  0
SECTION
  2
HEADER
  9
$ACADVER
  1
AC1027
  9
$ACADMAINTVER
 70
105
  9
$DWGCODEPAGE
  3
ANSI_1252
  9
$LASTSAVEDBY
  1
ezdxf
  9
$REQUIREDVERSIONS
160
0
  9
$INSBASE
 10
0.0
 20
0.0
 30
0.0
  9
$EXTMIN
 10
1e+20
 20
1e+20
 30
1e+20
  9
$EXTMAX
 10
-1e+20
 20
-1e+20
 30
-1e+20
  9
$LIMMIN
 10
0.0
 20
0.0
  9
$LIMMAX
 10
420.0
 20
297.0
  9
$ORTHOMODE
 70
0
  9
$REGENMODE
 70
1
  9
$FILLMODE
 70
1
  9
$QTEXTMODE
 70
0
  9
$MIRRTEXT
 70
1
  9
$LTSCALE
 40
1.0
  9
$ATTMODE
 70
1
  9
$TEXTSIZE
 40
2.5
  9
$TRACEWID
 40
1.0
  9
$TEXTSTYLE
  7
Standard
  9
$CLAYER
  8
0
  9
$CELTYPE
  6
ByLayer
  9
$CECOLOR
 62
256
  9
$CELTSCALE
 40
1.0
  9
$DISPSILH
 70
0
  9
$DIMSCALE
 40
1.0
  9
$DIMASZ
 40
2.5
  9
$DIMEXO
 40
0.625
  9
$DIMDLI
 40
3.75
  9
$DIMRND
 40
0.0
  9
$DIMDLE
 40
0.0
  9
$DIMEXE
 40
1.25
  9
$DIMTP
 40
0.0
  9
$DIMTM
 40
0.0
  9
$DIMTXT
 40
2.5
  9
$DIMCEN
 40
2.5
  9
$DIMTSZ
 40
0.0
  9
$DIMTOL
 70
0
  9
$DIMLIM
 70
0
  9
$DIMTIH
 70
0
  9
$DIMTOH
 70
0
  9
$DIMSE1
 70
0
  9
$DIMSE2
 70
0
  9
$DIMTAD
 70
1
  9
$DIMZIN
 70
8
  9
$DIMBLK
  1

  9
$DIMASO
 70
1
  9
$DIMSHO
 70
1
  9
$DIMPOST
  1

  9
$DIMAPOST
  1

  9
$DIMALT
 70
0
  9
$DIMALTD
 70
3
  9
$DIMALTF
 40
0.03937007874
  9
$DIMLFAC
 40
1.0
  9
$DIMTOFL
 70
1
  9
$DIMTVP
 40
0.0
  9
$DIMTIX
 70
0
  9
$DIMSOXD
 70
0
  9
$DIMSAH
 70
0
  9
$DIMBLK1
  1

  9
$DIMBLK2
  1

  9
$DIMSTYLE
  2
ISO-25
  9
$DIMCLRD
 70
0
  9
$DIMCLRE
 70
0
  9
$DIMCLRT
 70
0
  9
$DIMTFAC
 40
1.0
  9
$DIMGAP
 40
0.625
  9
$DIMJUST
 70
0
  9
$DIMSD1
 70
0
  9
$DIMSD2
 70
0
  9
$DIMTOLJ
 70
0
  9
$DIMTZIN
 70
8
  9
$DIMALTZ
 70
0
  9
$DIMALTTZ
 70
0
  9
$DIMUPT
 70
0
  9
$DIMDEC
 70
2
  9
$DIMTDEC
 70
2
  9
$DIMALTU
 70
2
  9
$DIMALTTD
 70
3
  9
$DIMTXSTY
  7
Standard
  9
$DIMAUNIT
 70
0
  9
$DIMADEC
 70
0
  9
$DIMALTRND
 40
0.0
  9
$DIMAZIN
 70
0
  9
$DIMDSEP
 70
44
  9
$DIMATFIT
 70
3
  9
$DIMFRAC
 70
0
  9
$DIMLDRBLK
  1

  9
$DIMLUNIT
 70
2
  9
$DIMLWD
 70
-2
  9
$DIMLWE
 70
-2
  9
$DIMTMOVE
 70
0
  9
$DIMFXL
 40
1.0
  9
$DIMFXLON
 70
0
  9
$DIMJOGANG
 40
0.785398163397
  9
$DIMTFILL
 70
0
  9
$DIMTFILLCLR
 70
0
  9
$DIMARCSYM
 70
0
  9
$DIMLTYPE
  6

  9
$DIMLTEX1
  6

  9
$DIMLTEX2
  6

  9
$DIMTXTDIRECTION
 70
0
  9
$LUNITS
 70
2
  9
$LUPREC
 70
4
  9
$SKETCHINC
 40
1.0
  9
$FILLETRAD
 40
10.0
  9
$AUNITS
 70
0
  9
$AUPREC
 70
2
  9
$MENU
  1
.
  9
$ELEVATION
 40
0.0
  9
$PELEVATION
 40
0.0
  9
$THICKNESS
 40
0.0
  9
$LIMCHECK
 70
0
  9
$CHAMFERA
 40
0.0
  9
$CHAMFERB
 40
0.0
  9
$CHAMFERC
 40
0.0
  9
$CHAMFERD
 40
0.0
  9
$SKPOLY
 70
0
  9
$TDCREATE
 40
2460238.574479167
  9
$TDUCREATE
 40
2458532.153996898
  9
$TDUPDATE
 40
2460238.574479167
  9
$TDUUPDATE
 40
2458532.1544311
  9
$TDINDWG
 40
0.0
  9
$TDUSRTIMER
 40
0.0
  9
$USRTIMER
 70
1
  9
$ANGBASE
 50
0.0
  9
$ANGDIR
 70
0
  9
$PDMODE
 70
0
  9
$PDSIZE
 40
0.0
  9
$PLINEWID
 40
0.0
  9
$SPLFRAME
 70
0
  9
$SPLINETYPE
 70
6
  9
$SPLINESEGS
 70
8
  9
$HANDSEED
  5
180
  9
$SURFTAB1
 70
6
  9
$SURFTAB2
 70
6
  9
$SURFTYPE
 70
6
  9
$SURFU
 70
6
  9
$SURFV
 70
6
  9
$UCSBASE
  2

  9
$UCSNAME
  2

  9
$UCSORG
 10
0.0
 20
0.0
 30
0.0
  9
$UCSXDIR
 10
1.0
 20
0.0
 30
0.0
  9
$UCSYDIR
 10
0.0
 20
1.0
 30
0.0
  9
$UCSORTHOREF
  2

  9
$UCSORTHOVIEW
 70
0
  9
$UCSORGTOP
 10
0.0
 20
0.0
 30
0.0
  9
$UCSORGBOTTOM
 10
0.0
 20
0.0
 30
0.0
  9
$UCSORGLEFT
 10
0.0
 20
0.0
 30
0.0
  9
$UCSORGRIGHT
 10
0.0
 20
0.0
 30
0.0
  9
$UCSORGFRONT
 10
0.0
 20
0.0
 30
0.0
  9
$UCSORGBACK
 10
0.0
 20
0.0
 30
0.0
  9
$PUCSBASE
  2

  9
$PUCSNAME
  2

  9
$PUCSORG
 10
0.0
 20
0.0
 30
0.0
  9
$PUCSXDIR
 10
1.0
 20
0.0
 30
0.0
  9
$PUCSYDIR
 10
0.0
 20
1.0
 30
0.0
  9
$PUCSORTHOREF
  2

  9
$PUCSORTHOVIEW
 70
0
  9
$PUCSORGTOP
 10
0.0
 20
0.0
 30
0.0
  9
$PUCSORGBOTTOM
 10
0.0
 20
0.0
 30
0.0
  9
$PUCSORGLEFT
 10
0.0
 20
0.0
 30
0.0
  9
$PUCSORGRIGHT
 10
0.0
 20
0.0
 30
0.0
  9
$PUCSORGFRONT
 10
0.0
 20
0.0
 30
0.0
  9
$PUCSORGBACK
 10
0.0
 20
0.0
 30
0.0
  9
$USERI1
 70
0
  9
$USERI2
 70
0
  9
$USERI3
 70
0
  9
$USERI4
 70
0
  9
$USERI5
 70
0
  9
$USERR1
 40
0.0
  9
$USERR2
 40
0.0
  9
$USERR3
 40
0.0
  9
$USERR4
 40
0.0
  9
$USERR5
 40
0.0
  9
$WORLDVIEW
 70
1
  9
$SHADEDGE
 70
3
  9
$SHADEDIF
 70
70
  9
$TILEMODE
 70
1
  9
$MAXACTVP
 70
64
  9
$PINSBASE
 10
0.0
 20
0.0
 30
0.0
  9
$PLIMCHECK
 70
0
  9
$PEXTMIN
 10
1e+20
 20
1e+20
 30
1e+20
  9
$PEXTMAX
 10
-1e+20
 20
-1e+20
 30
-1e+20
  9
$PLIMMIN
 10
0.0
 20
0.0
  9
$PLIMMAX
 10
420.0
 20
297.0
  9
$UNITMODE
 70
0
  9
$VISRETAIN
 70
1
  9
$PLINEGEN
 70
0
  9
$PSLTSCALE
 70
1
  9
$TREEDEPTH
 70
3020
  9
$CMLSTYLE
  2
Standard
  9
$CMLJUST
 70
0
  9
$CMLSCALE
 40
20.0
  9
$PROXYGRAPHICS
 70
1
  9
$MEASUREMENT
 70
1
  9
$CELWEIGHT
370
-1
  9
$ENDCAPS
280
0
  9
$JOINSTYLE
280
0
  9
$LWDISPLAY
290
0
  9
$INSUNITS
 70
6
  9
$HYPERLINKBASE
  1

  9
$STYLESHEET
  1

  9
$XEDIT
290
1
  9
$CEPSNTYPE
380
0
  9
$PSTYLEMODE
290
1
  9
$FINGERPRINTGUID
  2
{1F0DE9BA-1FEC-4974-B544-AF3E089F9A9D}
  9
$VERSIONGUID
  2
{23C733D1-254B-451C-B4B6-CFD87B8FEC86}
  9
$EXTNAMES
290
1
  9
$PSVPSCALE
 40
0.0
  9
$OLESTARTUP
290
0
  9
$SORTENTS
280
127
  9
$INDEXCTL
280
0
  9
$HIDETEXT
280
1
  9
$XCLIPFRAME
280
0
  9
$HALOGAP
280
0
  9
$OBSCOLOR
 70
257
  9
$OBSLTYPE
280
0
  9
$INTERSECTIONDISPLAY
280
0
  9
$INTERSECTIONCOLOR
 70
257
  9
$DIMASSOC
280
2
  9
$PROJECTNAME
  1

  9
$CAMERADISPLAY
290
0
  9
$LENSLENGTH
 40
50.0
  9
$CAMERAHEIGHT
 40
0.0
  9
$STEPSPERSEC
 40
24.0
  9
$STEPSIZE
 40
100.0
  9
$3DDWFPREC
 40
2.0
  9
$PSOLWIDTH
 40
0.005
  9
$PSOLHEIGHT
 40
0.08
  9
$LOFTANG1
 40
1.570796326795
  9
$LOFTANG2
 40
1.570796326795
  9
$LOFTMAG1
 40
0.0
  9
$LOFTMAG2
 40
0.0
  9
$LOFTPARAM
 70
7
  9
$LOFTNORMALS
280
1
  9
$LATITUDE
 40
37.795
  9
$LONGITUDE
 40
-122.394
  9
$NORTHDIRECTION
 40
0.0
  9
$TIMEZONE
 70
-8000
  9
$LIGHTGLYPHDISPLAY
280
1
  9
$TILEMODELIGHTSYNCH
280
1
  9
$CMATERIAL
347
20
  9
$SOLIDHIST
280
0
  9
$SHOWHIST
280
1
  9
$DWFFRAME
280
2
  9
$DGNFRAME
280
2
  9
$REALWORLDSCALE
290
1
  9
$INTERFERECOLOR
 62
256
  9
$CSHADOW
280
0
  9
$SHADOWPLANELOCATION
 40
0.0
  0
ENDSEC
  0
SECTION
  2
CLASSES
  0
CLASS
  1
ACDBDICTIONARYWDFLT
  2
AcDbDictionaryWithDefault
  3
ObjectDBX Classes
 90
0
 91
0
280
0
281
0
  0
CLASS
  1
SUN
  2
AcDbSun
  3
SCENEOE
 90
1153
 91
0
280
0
281
0
  0
CLASS
  1
VISUALSTYLE
  2
AcDbVisualStyle
  3
ObjectDBX Classes
 90
4095
 91
0
280
0
281
0
  0
CLASS
  1
MATERIAL
  2
AcDbMaterial
  3
ObjectDBX Classes
 90
1153
 91
0
280
0
281
0
  0
CLASS
  1
SCALE
  2
AcDbScale
  3
ObjectDBX Classes
 90
1153
 91
0
280
0
281
0
  0
CLASS
  1
TABLESTYLE
  2
AcDbTableStyle
  3
ObjectDBX Classes
 90
4095
 91
0
280
0
281
0
  0
CLASS
  1
MLEADERSTYLE
  2
AcDbMLeaderStyle
  3
ACDB_MLEADERSTYLE_CLASS
 90
4095
 91
0
280
0
281
0
  0
CLASS
  1
DICTIONARYVAR
  2
AcDbDictionaryVar
  3
ObjectDBX Classes
 90
0
 91
0
280
0
281
0
  0
CLASS
  1
CELLSTYLEMAP
  2
AcDbCellStyleMap
  3
ObjectDBX Classes
 90
1152
 91
0
280
0
281
0
  0
CLASS
  1
MENTALRAYRENDERSETTINGS
  2
AcDbMentalRayRenderSettings
  3
SCENEOE
 90
1024
 91
0
280
0
281
0
  0
CLASS
  1
ACDBDETAILVIEWSTYLE
  2
AcDbDetailViewStyle
  3
ObjectDBX Classes
 90
1025
 91
0
280
0
281
0
  0
CLASS
  1
ACDBSECTIONVIEWSTYLE
  2
AcDbSectionViewStyle
  3
ObjectDBX Classes
 90
1025
 91
0
280
0
281
0
  0
CLASS
  1
RASTERVARIABLES
  2
AcDbRasterVariables
  3
ISM
 90
0
 91
0
280
0
281
0
  0
CLASS
  1
ACDBPLACEHOLDER
  2
AcDbPlaceHolder
  3
ObjectDBX Classes
 90
0
 91
0
280
0
281
0
  0
CLASS
  1
LAYOUT
  2
AcDbLayout
  3
ObjectDBX Classes
 90
0
 91
0
280
0
281
0
  0
ENDSEC
  0
SECTION
  2
TABLES
  0
TABLE
  2
VPORT
  5
8
330
0
100
AcDbSymbolTable
 70
1
  0
VPORT
  5
23
330
8
100
AcDbSymbolTableRecord
100
AcDbViewportTableRecord
  2
*Active
 70
0
 10
0.0
 20
0.0
 11
1.0
 21
1.0
 12
0.0
 22
0.0
 13
0.0
 23
0.0
 14
0.5
 24
0.5
 15
0.5
 25
0.5
 16
0.0
 26
0.0
 36
1.0
 17
0.0
 27
0.0
 37
0.0
 40
1000.0
 41
1.34
 42
50.0
 43
0.0
 44
0.0
 50
0.0
 51
0.0
 71
0
 72
1000
 73
1
 74
3
 75
0
 76
0
 77
0
 78
0
281
0
 65
0
146
0.0
  0
ENDTAB
  0
TABLE
  2
LTYPE
  5
2
330
0
100
AcDbSymbolTable
 70
3
  0
LTYPE
  5
24
330
2
100
AcDbSymbolTableRecord
100
AcDbLinetypeTableRecord
  2
ByBlock
 70
0
  3

 72
65
 73
0
 40
0.0
  0
LTYPE
  5
25
330
2
100
AcDbSymbolTableRecord
100
AcDbLinetypeTableRecord
  2
ByLayer
 70
0
  3

 72
65
 73
0
 40
0.0
  0
LTYPE
  5
26
330
2
100
AcDbSymbolTableRecord
100
AcDbLinetypeTableRecord
  2
Continuous
 70
0
  3

 72
65
 73
0
 40
0.0
  0
ENDTAB
  0
TABLE
  2
LAYER
  5
1
330
0
100
AcDbSymbolTable
 70
5
  0
LAYER
  5
27
330
1
100
AcDbSymbolTableRecord
100
AcDbLayerTableRecord
  2
0
 70
0
 62
7
  6
Continuous
370
-3
390
13
347
21
  0
LAYER
  5
28
330
1
100
AcDbSymbolTableRecord
100
AcDbLayerTableRecord
  2
Defpoints
 70
0
 62
7
  6
Continuous
290
0
370
-3
390
13
347
21
  0
LAYER
  5
30
330
1
100
AcDbSymbolTableRecord
100
AcDbLayerTableRecord
  2
FoilLayer
 70
0
 62
1
  6
Continuous
370
50
390
13
347
21
  0
LAYER
  5
31
330
1
100
AcDbSymbolTableRecord
100
AcDbLayerTableRecord
  2
StringerLayer
 70
0
 62
1
  6
Continuous
370
50
390
13
347
21
  0
LAYER
  5
32
330
1
100
AcDbSymbolTableRecord
100
AcDbLayerTableRecord
  2
SubLayer
 70
0
 62
1
  6
Continuous
370
50
390
13
347
21
  0
ENDTAB
  0
TABLE
  2
STYLE
  5
5
330
0
100
AcDbSymbolTable
 70
2
  0
STYLE
  5
29
330
5
100
AcDbSymbolTableRecord
100
AcDbTextStyleTableRecord
  2
Standard
 70
0
 40
0.0
 41
1.0
 50
0.0
 71
0
 42
2.5
  3
txt
  4

  0
STYLE
  5
2F
330
5
100
AcDbSymbolTableRecord
100
AcDbTextStyleTableRecord
  2
MSゴシック
 70
0
 40
0.0
 41
1.0
 50
0.0
 71
0
 42
2.5
  3
romans
  4

  0
ENDTAB
  0
TABLE
  2
VIEW
  5
7
330
0
100
AcDbSymbolTable
 70
0
  0
ENDTAB
  0
TABLE
  2
UCS
  5
6
330
0
100
AcDbSymbolTable
 70
0
  0
ENDTAB
  0
TABLE
  2
APPID
  5
3
330
0
100
AcDbSymbolTable
 70
3
  0
APPID
  5
2A
330
3
100
AcDbSymbolTableRecord
100
AcDbRegAppTableRecord
  2
ACAD
 70
0
  0
APPID
  5
17D
330
3
100
AcDbSymbolTableRecord
100
AcDbRegAppTableRecord
  2
HATCHBACKGROUNDCOLOR
 70
0
  0
APPID
  5
17E
330
3
100
AcDbSymbolTableRecord
100
AcDbRegAppTableRecord
  2
EZDXF
 70
0
  0
ENDTAB
  0
TABLE
  2
DIMSTYLE
  5
4
330
0
100
AcDbSymbolTable
 70
1
100
AcDbDimStyleTable
  0
DIMSTYLE
105
2B
330
4
100
AcDbSymbolTableRecord
100
AcDbDimStyleTableRecord
  2
Standard
 70
0
 40
1.0
 41
2.5
 42
0.625
 43
3.75
 44
1.25
 45
0.0
 46
0.0
 47
0.0
 48
0.0
 49
2.5
140
2.5
141
2.5
142
0.0
143
0.03937007874
144
1.0
145
0.0
146
1.0
147
0.625
148
0.0
 69
0
 70
0
 71
0
 72
0
 73
0
 74
0
 75
0
 76
0
 77
1
 78
8
 79
3
170
0
171
3
172
1
173
0
174
0
175
0
176
0
177
0
178
0
179
2
271
2
272
2
273
2
274
3
275
0
276
0
277
2
278
44
279
0
280
0
281
0
282
0
283
0
284
8
285
0
286
0
288
0
289
3
290
0
371
-2
372
-2
  0
ENDTAB
  0
TABLE
  2
BLOCK_RECORD
  5
9
330
0
100
AcDbSymbolTable
 70
2
  0
BLOCK_RECORD
  5
17
330
9
100
AcDbSymbolTableRecord
100
AcDbBlockTableRecord
  2
*Model_Space
340
1A
 70
0
280
1
281
0
  0
BLOCK_RECORD
  5
1B
330
9
100
AcDbSymbolTableRecord
100
AcDbBlockTableRecord
  2
*Paper_Space
340
1E
 70
0
280
1
281
0
  0
ENDTAB
  0
ENDSEC
  0
SECTION
  2
BLOCKS
  0
BLOCK
  5
18
330
17
100
AcDbEntity
  8
0
100
AcDbBlockBegin
  2
*Model_Space
 70
0
 10
0.0
 20
0.0
 30
0.0
  3
*Model_Space
  1

  0
ENDBLK
  5
19
330
17
100
AcDbEntity
  8
0
100
AcDbBlockEnd
  0
BLOCK
  5
1C
330
1B
100
AcDbEntity
  8
0
100
AcDbBlockBegin
  2
*Paper_Space
 70
0
 10
0.0
 20
0.0
 30
0.0
  3
*Paper_Space
  1

  0
ENDBLK
  5
1D
330
1B
100
AcDbEntity
  8
0
100
AcDbBlockEnd
  0
ENDSEC
  0
SECTION
  2
ENTITIES
  0
LINE
  5
33
330
17
100
AcDbEntity
  8
FoilLayer
100
AcDbLine
 10
550.1846756425405
 20
-0.38240165711048485
 30
0.0
 11
550.0195272436486
 21
-0.32457659775482867
 31
0.0
  0
LINE
  5
34
330
17
100
AcDbEntity
  8
FoilLayer
100
AcDbLine
 10
550.0195272436486
 20
-0.32457659775482867
 30
0.0
 11
549.5153865732725
 21
-0.15365376733237657
 31
0.0
  0
LINE
  5
35
330
17
100
AcDbEntity
  8
FoilLayer
100
AcDbLine
 10
549.5153865732725
 20
-0.15365376733237657
 30
0.0
 11
548.7203385866603
 21
0.1254597620657651
 31
0.0
  0
LINE
  5
36
330
17
100
AcDbEntity
  8
FoilLayer
100
AcDbLine
 10
548.7203385866603
 20
0.1254597620657651
 30
0.0
 11
547.629303890337
 21
0.5060551535815392
 31
0.0
  0
LINE
  5
37
330
17
100
AcDbEntity
  8
FoilLayer
100
AcDbLine
 10
547.629303890337
 20
0.5060551535815392
 30
0.0
 11
546.2584572410403
 21
0.9799288996175397
 31
0.0
  0
LINE
  5
38
330
17
100
AcDbEntity
  8
FoilLayer
100
AcDbLine
 10
546.2584572410403
 20
0.9799288996175397
 30
0.0
 11
544.6101982385605
 21
1.5462639935809892
 31
0.0
  0
LINE
  5
39
330
17
100
AcDbEntity
  8
FoilLayer
100
AcDbLine
 10
544.6101982385605
 20
1.5462639935809892
 30
0.0
 11
542.6978060422052
 21
2.189371004124135
 31
0.0
  0
LINE
  5
3A
330
17
100
AcDbEntity
  8
FoilLayer
100
AcDbLine
 10
542.6978060422052
 20
2.189371004124135
 30
0.0
 11
540.513340508239
 21
2.917526182112809
 31
0.0
  0
LINE
  5
3B
330
17
100
AcDbEntity
  8
FoilLayer
100
AcDbLine
 10
540.513340508239
 20
2.917526182112809
 30
0.0
 11
538.0785073542045
 21
3.7291544272926234
 31
0.0
  0
LINE
  5
3C
330
17
100
AcDbEntity
  8
FoilLayer
100
AcDbLine
 10
538.0785073542045
 20
3.7291544272926234
 30
0.0
 11
535.3868255728225
 21
4.600989286727954
 31
0.0
  0
LINE
  5
3D
330
17
100
AcDbEntity
  8
FoilLayer
100
AcDbLine
 10
535.3868255728225
 20
4.600989286727954
 30
0.0
 11
532.4430720357323
 21
5.548413833140456
 31
0.0
  0
LINE
  5
3E
330
17
100
AcDbEntity
  8
FoilLayer
100
AcDbLine
 10
532.4430720357323
 20
5.548413833140456
 30
0.0
 11
529.2446240383192
 21
6.555338009260739
 31
0.0
  0
LINE
  5
3F
330
17
100
AcDbEntity
  8
FoilLayer
100
AcDbLine
 10
529.2446240383192
 20
6.555338009260739
 30
0.0
 11
525.7997444680568
 21
7.621813488125337
 31
0.0
  0
LINE
  5
40
330
17
100
AcDbEntity
  8
FoilLayer
100
AcDbLine
 10
525.7997444680568
 20
7.621813488125337
 30
0.0
 11
522.1010431797317
 21
8.755971323133101
 31
0.0
  0
LINE
  5
41
330
17
100
AcDbEntity
  8
FoilLayer
100
AcDbLine
 10
522.1010431797317
 20
8.755971323133101
 30
0.0
 11
518.1659213825462
 21
9.949206849144021
 31
0.0
  0
LINE
  5
42
330
17
100
AcDbEntity
  8
FoilLayer
100
AcDbLine
 10
518.1659213825462
 20
9.949206849144021
 30
0.0
 11
513.9927559063806
 21
11.193539466349955
 31
0.0
  0
LINE
  5
43
330
17
100
AcDbEntity
  8
FoilLayer
100
AcDbLine
 10
513.9927559063806
 20
11.193539466349955
 30
0.0
 11
509.58313859574406
 21
12.496961438145727
 31
0.0
  0
LINE
  5
44
330
17
100
AcDbEntity
  8
FoilLayer
100
AcDbLine
 10
509.58313859574406
 20
12.496961438145727
 30
0.0
 11
504.9362922680139
 21
13.851236388475048
 31
0.0
  0
LINE
  5
45
330
17
100
AcDbEntity
  8
FoilLayer
100
AcDbLine
 10
504.9362922680139
 20
13.851236388475048
 30
0.0
 11
500.05204935166006
 21
15.256410240599395
 31
0.0
  0
LINE
  5
46
330
17
100
AcDbEntity
  8
FoilLayer
100
AcDbLine
 10
500.05204935166006
 20
15.256410240599395
 30
0.0
 11
494.93783182886324
 21
16.71277686863087
 31
0.0
  0
LINE
  5
47
330
17
100
AcDbEntity
  8
FoilLayer
100
AcDbLine
 10
494.93783182886324
 20
16.71277686863087
 30
0.0
 11
489.59606857929015
 21
18.23657714235246
 31
0.0
  0
LINE
  5
48
330
17
100
AcDbEntity
  8
FoilLayer
100
AcDbLine
 10
489.59606857929015
 20
18.23657714235246
 30
0.0
 11
484.03259261426257
 21
19.81162575989978
 31
0.0
  0
LINE
  5
49
330
17
100
AcDbEntity
  8
FoilLayer
100
AcDbLine
 10
484.03259261426257
 20
19.81162575989978
 30
0.0
 11
478.2676637494789
 21
21.453912289208763
 31
0.0
  0
LINE
  5
4A
330
17
100
AcDbEntity
  8
FoilLayer
100
AcDbLine
 10
478.2676637494789
 20
21.453912289208763
 30
0.0
 11
472.2985158510482
 21
23.13882070430361
 31
0.0
  0
LINE
  5
4B
330
17
100
AcDbEntity
  8
FoilLayer
100
AcDbLine
 10
472.2985158510482
 20
23.13882070430361
 30
0.0
 11
466.1177748423806
 21
24.88297503171797
 31
0.0
  0
LINE
  5
4C
330
17
100
AcDbEntity
  8
FoilLayer
100
AcDbLine
 10
466.1177748423806
 20
24.88297503171797
 30
0.0
 11
459.7502370584131
 21
26.67807898175247
 31
0.0
  0
LINE
  5
4D
330
17
100
AcDbEntity
  8
FoilLayer
100
AcDbLine
 10
459.7502370584131
 20
26.67807898175247
 30
0.0
 11
453.1971732632564
 21
28.532240581281286
 31
0.0
  0
LINE
  5
4E
330
17
100
AcDbEntity
  8
FoilLayer
100
AcDbLine
 10
453.1971732632564
 20
28.532240581281286
 30
0.0
 11
446.4742620001494
 21
30.428880573321337
 31
0.0
  0
LINE
  5
4F
330
17
100
AcDbEntity
  8
FoilLayer
100
AcDbLine
 10
446.4742620001494
 20
30.428880573321337
 30
0.0
 11
439.582983118472
 21
32.37604861160373
 31
0.0
  0
LINE
  5
50
330
17
100
AcDbEntity
  8
FoilLayer
100
AcDbLine
 10
439.582983118472
 20
32.37604861160373
 30
0.0
 11
432.52185896056966
 21
34.357227435174394
 31
0.0
  0
LINE
  5
51
330
17
100
AcDbEntity
  8
FoilLayer
100
AcDbLine
 10
432.52185896056966
 20
34.357227435174394
 30
0.0
 11
425.29099688163814
 21
36.38085278664026
 31
0.0
  0
LINE
  5
52
330
17
100
AcDbEntity
  8
FoilLayer
100
AcDbLine
 10
425.29099688163814
 20
36.38085278664026
 30
0.0
 11
417.91607448017993
 21
38.446847190274525
 31
0.0
  0
LINE
  5
53
330
17
100
AcDbEntity
  8
FoilLayer
100
AcDbLine
 10
417.91607448017993
 20
38.446847190274525
 30
0.0
 11
410.4064552264402
 21
40.55495938346162
 31
0.0
  0
LINE
  5
54
330
17
100
AcDbEntity
  8
FoilLayer
100
AcDbLine
 10
410.4064552264402
 20
40.55495938346162
 30
0.0
 11
402.7703756364879
 21
42.68832232268615
 31
0.0
  0
LINE
  5
55
330
17
100
AcDbEntity
  8
FoilLayer
100
AcDbLine
 10
402.7703756364879
 20
42.68832232268615
 30
0.0
 11
394.99823939662423
 21
44.83878298303017
 31
0.0
  0
LINE
  5
56
330
17
100
AcDbEntity
  8
FoilLayer
100
AcDbLine
 10
394.99823939662423
 20
44.83878298303017
 30
0.0
 11
387.0989671919353
 21
47.014681279397436
 31
0.0
  0
LINE
  5
57
330
17
100
AcDbEntity
  8
FoilLayer
100
AcDbLine
 10
387.0989671919353
 20
47.014681279397436
 30
0.0
 11
379.08091729502104
 21
49.21604663444872
 31
0.0
  0
LINE
  5
58
330
17
100
AcDbEntity
  8
FoilLayer
100
AcDbLine
 10
379.08091729502104
 20
49.21604663444872
 30
0.0
 11
370.96156358361696
 21
51.442730929367606
 31
0.0
  0
LINE
  5
59
330
17
100
AcDbEntity
  8
FoilLayer
100
AcDbLine
 10
370.96156358361696
 20
51.442730929367606
 30
0.0
 11
362.75060455896
 21
53.68593579570225
 31
0.0
  0
LINE
  5
5A
330
17
100
AcDbEntity
  8
FoilLayer
100
AcDbLine
 10
362.75060455896
 20
53.68593579570225
 30
0.0
 11
354.4542313381107
 21
55.9124132676417
 31
0.0
  0
LINE
  5
5B
330
17
100
AcDbEntity
  8
FoilLayer
100
AcDbLine
 10
354.4542313381107
 20
55.9124132676417
 30
0.0
 11
346.0646980376137
 21
58.138900623298994
 31
0.0
  0
LINE
  5
5C
330
17
100
AcDbEntity
  8
FoilLayer
100
AcDbLine
 10
346.0646980376137
 20
58.138900623298994
 30
0.0
 11
338.55242266935267
 21
60.110685475447355
 31
0.0
  0
LINE
  5
5D
330
17
100
AcDbEntity
  8
FoilLayer
100
AcDbLine
 10
338.55242266935267
 20
60.110685475447355
 30
0.0
 11
338.15891556749347
 21
58.61146829278625
 31
0.0
  0
LINE
  5
5E
330
17
100
AcDbEntity
  8
FoilLayer
100
AcDbLine
 10
338.15891556749347
 20
58.61146829278625
 30
0.0
 11
337.1946936891323
 21
58.86456741817981
 31
0.0
  0
LINE
  5
5F
330
17
100
AcDbEntity
  8
FoilLayer
100
AcDbLine
 10
337.1946936891323
 20
58.86456741817981
 30
0.0
 11
328.6503666546177
 21
61.072571395573206
 31
0.0
  0
LINE
  5
60
330
17
100
AcDbEntity
  8
FoilLayer
100
AcDbLine
 10
328.6503666546177
 20
61.072571395573206
 30
0.0
 11
320.03999123907266
 21
63.26324880496553
 31
0.0
  0
LINE
  5
61
330
17
100
AcDbEntity
  8
FoilLayer
100
AcDbLine
 10
320.03999123907266
 20
63.26324880496553
 30
0.0
 11
311.3626381928347
 21
65.42838409820067
 31
0.0
  0
LINE
  5
62
330
17
100
AcDbEntity
  8
FoilLayer
100
AcDbLine
 10
311.3626381928347
 20
65.42838409820067
 30
0.0
 11
302.5987772395086
 21
67.56861025343403
 31
0.0
  0
LINE
  5
63
330
17
100
AcDbEntity
  8
FoilLayer
100
AcDbLine
 10
302.5987772395086
 20
67.56861025343403
 30
0.0
 11
293.78053001031327
 21
69.68431755131228
 31
0.0
  0
LINE
  5
64
330
17
100
AcDbEntity
  8
FoilLayer
100
AcDbLine
 10
293.78053001031327
 20
69.68431755131228
 30
0.0
 11
284.9172269278625
 21
71.79022504373746
 31
0.0
  0
LINE
  5
65
330
17
100
AcDbEntity
  8
FoilLayer
100
AcDbLine
 10
284.9172269278625
 20
71.79022504373746
 30
0.0
 11
276.0302623919237
 21
73.85345879021045
 31
0.0
  0
LINE
  5
66
330
17
100
AcDbEntity
  8
FoilLayer
100
AcDbLine
 10
276.0302623919237
 20
73.85345879021045
 30
0.0
 11
267.1200271124356
 21
75.86549935575789
 31
0.0
  0
LINE
  5
67
330
17
100
AcDbEntity
  8
FoilLayer
100
AcDbLine
 10
267.1200271124356
 20
75.86549935575789
 30
0.0
 11
258.1815483564366
 21
77.81719734369366
 31
0.0
  0
LINE
  5
68
330
17
100
AcDbEntity
  8
FoilLayer
100
AcDbLine
 10
258.1815483564366
 20
77.81719734369366
 30
0.0
 11
249.19572593313814
 21
79.6854252996162
 31
0.0
  0
LINE
  5
69
330
17
100
AcDbEntity
  8
FoilLayer
100
AcDbLine
 10
249.19572593313814
 20
79.6854252996162
 30
0.0
 11
240.15798338205678
 21
81.4947122077818
 31
0.0
  0
LINE
  5
6A
330
17
100
AcDbEntity
  8
FoilLayer
100
AcDbLine
 10
240.15798338205678
 20
81.4947122077818
 30
0.0
 11
231.09724001564024
 21
83.24438050001295
 31
0.0
  0
LINE
  5
6B
330
17
100
AcDbEntity
  8
FoilLayer
100
AcDbLine
 10
231.09724001564024
 20
83.24438050001295
 30
0.0
 11
221.99491857044626
 21
84.92631125717814
 31
0.0
  0
LINE
  5
6C
330
17
100
AcDbEntity
  8
FoilLayer
100
AcDbLine
 10
221.99491857044626
 20
84.92631125717814
 30
0.0
 11
212.87626878616624
 21
86.53208184593936
 31
0.0
  0
LINE
  5
6D
330
17
100
AcDbEntity
  8
FoilLayer
100
AcDbLine
 10
212.87626878616624
 20
86.53208184593936
 30
0.0
 11
203.72341857838967
 21
88.06185622440324
 31
0.0
  0
LINE
  5
6E
330
17
100
AcDbEntity
  8
FoilLayer
100
AcDbLine
 10
203.72341857838967
 20
88.06185622440324
 30
0.0
 11
194.54540841340372
 21
89.51553919167169
 31
0.0
  0
LINE
  5
6F
330
17
100
AcDbEntity
  8
FoilLayer
100
AcDbLine
 10
194.54540841340372
 20
89.51553919167169
 30
0.0
 11
185.33297068871667
 21
90.89324928295697
 31
0.0
  0
LINE
  5
70
330
17
100
AcDbEntity
  8
FoilLayer
100
AcDbLine
 10
185.33297068871667
 20
90.89324928295697
 30
0.0
 11
176.1033605993514
 21
92.1949290241422
 31
0.0
  0
LINE
  5
71
330
17
100
AcDbEntity
  8
FoilLayer
100
AcDbLine
 10
176.1033605993514
 20
92.1949290241422
 30
0.0
 11
166.86552889802613
 21
93.42051181933094
 31
0.0
  0
LINE
  5
72
330
17
100
AcDbEntity
  8
FoilLayer
100
AcDbLine
 10
166.86552889802613
 20
93.42051181933094
 30
0.0
 11
157.61054714042234
 21
94.57005687285107
 31
0.0
  0
LINE
  5
73
330
17
100
AcDbEntity
  8
FoilLayer
100
AcDbLine
 10
157.61054714042234
 20
94.57005687285107
 30
0.0
 11
148.35070016202843
 21
95.64315095954565
 31
0.0
  0
LINE
  5
74
330
17
100
AcDbEntity
  8
FoilLayer
100
AcDbLine
 10
148.35070016202843
 20
95.64315095954565
 30
0.0
 11
139.07882058348412
 21
96.6236544723951
 31
0.0
  0
LINE
  5
75
330
17
100
AcDbEntity
  8
FoilLayer
100
AcDbLine
 10
139.07882058348412
 20
96.6236544723951
 30
0.0
 11
129.79652329531973
 21
97.52826590747596
 31
0.0
  0
LINE
  5
76
330
17
100
AcDbEntity
  8
FoilLayer
100
AcDbLine
 10
129.79652329531973
 20
97.52826590747596
 30
0.0
 11
120.51771440124918
 21
98.36496057021576
 31
0.0
  0
LINE
  5
77
330
17
100
AcDbEntity
  8
FoilLayer
100
AcDbLine
 10
120.51771440124918
 20
98.36496057021576
 30
0.0
 11
111.24382353174639
 21
99.11740638463768
 31
0.0
  0
LINE
  5
78
330
17
100
AcDbEntity
  8
FoilLayer
100
AcDbLine
 10
111.24382353174639
 20
99.11740638463768
 30
0.0
 11
101.98184226520823
 21
99.80199360871683
 31
0.0
  0
LINE
  5
79
330
17
100
AcDbEntity
  8
FoilLayer
100
AcDbLine
 10
101.98184226520823
 20
99.80199360871683
 30
0.0
 11
92.74549273964635
 21
100.40205747722031
 31
0.0
  0
LINE
  5
7A
330
17
100
AcDbEntity
  8
FoilLayer
100
AcDbLine
 10
92.74549273964635
 20
100.40205747722031
 30
0.0
 11
83.52617055604122
 21
100.91761042703224
 31
0.0
  0
LINE
  5
7B
330
17
100
AcDbEntity
  8
FoilLayer
100
AcDbLine
 10
83.52617055604122
 20
100.91761042703224
 30
0.0
 11
74.32196502801008
 21
101.34872775531943
 31
0.0
  0
LINE
  5
7C
330
17
100
AcDbEntity
  8
FoilLayer
100
AcDbLine
 10
74.32196502801008
 20
101.34872775531943
 30
0.0
 11
65.14320964781069
 21
101.70377396414007
 31
0.0
  0
LINE
  5
7D
330
17
100
AcDbEntity
  8
FoilLayer
100
AcDbLine
 10
65.14320964781069
 20
101.70377396414007
 30
0.0
 11
55.99837271825811
 21
101.98275012088028
 31
0.0
  0
LINE
  5
7E
330
17
100
AcDbEntity
  8
FoilLayer
100
AcDbLine
 10
55.99837271825811
 20
101.98275012088028
 30
0.0
 11
46.90644746187246
 21
102.18562943116612
 31
0.0
  0
LINE
  5
7F
330
17
100
AcDbEntity
  8
FoilLayer
100
AcDbLine
 10
46.90644746187246
 20
102.18562943116612
 30
0.0
 11
37.84852103807174
 21
102.30400986650533
 31
0.0
  0
LINE
  5
80
330
17
100
AcDbEntity
  8
FoilLayer
100
AcDbLine
 10
37.84852103807174
 20
102.30400986650533
 30
0.0
 11
28.84347062657963
 21
102.33790691352517
 31
0.0
  0
LINE
  5
81
330
17
100
AcDbEntity
  8
FoilLayer
100
AcDbLine
 10
28.84347062657963
 20
102.33790691352517
 30
0.0
 11
19.866824710474702
 21
102.27879676309082
 31
0.0
  0
LINE
  5
82
330
17
100
AcDbEntity
  8
FoilLayer
100
AcDbLine
 10
19.866824710474702
 20
102.27879676309082
 30
0.0
 11
10.941232810863994
 21
102.15207269206098
 31
0.0
  0
LINE
  5
83
330
17
100
AcDbEntity
  8
FoilLayer
100
AcDbLine
 10
10.941232810863994
 20
102.15207269206098
 30
0.0
 11
2.0873861183375197
 21
101.95785618999622
 31
0.0
  0
LINE
  5
84
330
17
100
AcDbEntity
  8
FoilLayer
100
AcDbLine
 10
2.0873861183375197
 20
101.95785618999622
 30
0.0
 11
-6.708640257108698
 21
101.6791011092916
 31
0.0
  0
LINE
  5
85
330
17
100
AcDbEntity
  8
FoilLayer
100
AcDbLine
 10
-6.708640257108698
 20
101.6791011092916
 30
0.0
 11
-15.416065007049781
 21
101.32450648881078
 31
0.0
  0
LINE
  5
86
330
17
100
AcDbEntity
  8
FoilLayer
100
AcDbLine
 10
-15.416065007049781
 20
101.32450648881078
 30
0.0
 11
-24.067748378462113
 21
100.87679970733448
 31
0.0
  0
LINE
  5
87
330
17
100
AcDbEntity
  8
FoilLayer
100
AcDbLine
 10
-24.067748378462113
 20
100.87679970733448
 30
0.0
 11
-32.65143556033604
 21
100.35308002831933
 31
0.0
  0
LINE
  5
88
330
17
100
AcDbEntity
  8
FoilLayer
100
AcDbLine
 10
-32.65143556033604
 20
100.35308002831933
 30
0.0
 11
-41.16863622173892
 21
99.75323494536636
 31
0.0
  0
LINE
  5
89
330
17
100
AcDbEntity
  8
FoilLayer
100
AcDbLine
 10
-41.16863622173892
 20
99.75323494536636
 30
0.0
 11
-49.592171684244306
 21
99.0858549415685
 31
0.0
  0
LINE
  5
8A
330
17
100
AcDbEntity
  8
FoilLayer
100
AcDbLine
 10
-49.592171684244306
 20
99.0858549415685
 30
0.0
 11
-57.90985502736444
 21
98.35132177433893
 31
0.0
  0
LINE
  5
8B
330
17
100
AcDbEntity
  8
FoilLayer
100
AcDbLine
 10
-57.90985502736444
 20
98.35132177433893
 30
0.0
 11
-66.13216067235555
 21
97.53262011009478
 31
0.0
  0
LINE
  5
8C
330
17
100
AcDbEntity
  8
FoilLayer
100
AcDbLine
 10
-66.13216067235555
 20
97.53262011009478
 30
0.0
 11
-74.27528735150426
 21
96.62041151907921
 31
0.0
  0
LINE
  5
8D
330
17
100
AcDbEntity
  8
FoilLayer
100
AcDbLine
 10
-74.27528735150426
 20
96.62041151907921
 30
0.0
 11
-82.32463032313848
 21
95.64073702640628
 31
0.0
  0
LINE
  5
8E
330
17
100
AcDbEntity
  8
FoilLayer
100
AcDbLine
 10
-82.32463032313848
 20
95.64073702640628
 30
0.0
 11
-90.27194264163117
 21
94.59358564171914
 31
0.0
  0
LINE
  5
8F
330
17
100
AcDbEntity
  8
FoilLayer
100
AcDbLine
 10
-90.27194264163117
 20
94.59358564171914
 30
0.0
 11
-98.11868364327714
 21
93.47874921545522
 31
0.0
  0
LINE
  5
90
330
17
100
AcDbEntity
  8
FoilLayer
100
AcDbLine
 10
-98.11868364327714
 20
93.47874921545522
 30
0.0
 11
-105.84176479943221
 21
92.30566730582193
 31
0.0
  0
LINE
  5
91
330
17
100
AcDbEntity
  8
FoilLayer
100
AcDbLine
 10
-105.84176479943221
 20
92.30566730582193
 30
0.0
 11
-113.4379396933374
 21
91.05666940561942
 31
0.0
  0
LINE
  5
92
330
17
100
AcDbEntity
  8
FoilLayer
100
AcDbLine
 10
-113.4379396933374
 20
91.05666940561942
 30
0.0
 11
-120.92566168080342
 21
89.7314662541227
 31
0.0
  0
LINE
  5
93
330
17
100
AcDbEntity
  8
FoilLayer
100
AcDbLine
 10
-120.92566168080342
 20
89.7314662541227
 30
0.0
 11
-128.3019053815244
 21
88.33907612919447
 31
0.0
  0
LINE
  5
94
330
17
100
AcDbEntity
  8
FoilLayer
100
AcDbLine
 10
-128.3019053815244
 20
88.33907612919447
 30
0.0
 11
-135.55269704373808
 21
86.8789208241845
 31
0.0
  0
LINE
  5
95
330
17
100
AcDbEntity
  8
FoilLayer
100
AcDbLine
 10
-135.55269704373808
 20
86.8789208241845
 30
0.0
 11
-142.6775854112835
 21
85.35951518020684
 31
0.0
  0
LINE
  5
96
330
17
100
AcDbEntity
  8
FoilLayer
100
AcDbLine
 10
-142.6775854112835
 20
85.35951518020684
 30
0.0
 11
-149.662981351721
 21
83.79050366219252
 31
0.0
  0
LINE
  5
97
330
17
100
AcDbEntity
  8
FoilLayer
100
AcDbLine
 10
-149.662981351721
 20
83.79050366219252
 30
0.0
 11
-156.49222704329026
 21
82.16351693301279
 31
0.0
  0
LINE
  5
98
330
17
100
AcDbEntity
  8
FoilLayer
100
AcDbLine
 10
-156.49222704329026
 20
82.16351693301279
 30
0.0
 11
-163.19538561059946
 21
80.46054120202024
 31
0.0
  0
LINE
  5
99
330
17
100
AcDbEntity
  8
FoilLayer
100
AcDbLine
 10
-163.19538561059946
 20
80.46054120202024
 30
0.0
 11
-169.76457513249014
 21
78.68983926662442
 31
0.0
  0
LINE
  5
9A
330
17
100
AcDbEntity
  8
FoilLayer
100
AcDbLine
 10
-169.76457513249014
 20
78.68983926662442
 30
0.0
 11
-176.2031564682056
 21
76.85881557238906
 31
0.0
  0
LINE
  5
9B
330
17
100
AcDbEntity
  8
FoilLayer
100
AcDbLine
 10
-176.2031564682056
 20
76.85881557238906
 30
0.0
 11
-182.4820582987156
 21
74.9964540975937
 31
0.0
  0
LINE
  5
9C
330
17
100
AcDbEntity
  8
FoilLayer
100
AcDbLine
 10
-182.4820582987156
 20
74.9964540975937
 30
0.0
 11
-188.6168932689716
 21
73.07534918843727
 31
0.0
  0
LINE
  5
9D
330
17
100
AcDbEntity
  8
FoilLayer
100
AcDbLine
 10
-188.6168932689716
 20
73.07534918843727
 30
0.0
 11
-194.59142095666743
 21
71.10374089474014
 31
0.0
  0
LINE
  5
9E
330
17
100
AcDbEntity
  8
FoilLayer
100
AcDbLine
 10
-194.59142095666743
 20
71.10374089474014
 30
0.0
 11
-200.41925384797264
 21
69.08281884745925
 31
0.0
  0
LINE
  5
9F
330
17
100
AcDbEntity
  8
FoilLayer
100
AcDbLine
 10
-200.41925384797264
 20
69.08281884745925
 30
0.0
 11
-206.08940081332653
 21
67.01046368953334
 31
0.0
  0
LINE
  5
A0
330
17
100
AcDbEntity
  8
FoilLayer
100
AcDbLine
 10
-206.08940081332653
 20
67.01046368953334
 30
0.0
 11
-211.6151302124926
 21
64.89645030141206
 31
0.0
  0
LINE
  5
A1
330
17
100
AcDbEntity
  8
FoilLayer
100
AcDbLine
 10
-211.6151302124926
 20
64.89645030141206
 30
0.0
 11
-216.9777332847509
 21
62.75002426003783
 31
0.0
  0
LINE
  5
A2
330
17
100
AcDbEntity
  8
FoilLayer
100
AcDbLine
 10
-216.9777332847509
 20
62.75002426003783
 30
0.0
 11
-222.1696335407332
 21
60.57093713538655
 31
0.0
  0
LINE
  5
A3
330
17
100
AcDbEntity
  8
FoilLayer
100
AcDbLine
 10
-222.1696335407332
 20
60.57093713538655
 30
0.0
 11
-227.18818455819036
 21
58.360515967952836
 31
0.0
  0
LINE
  5
A4
330
17
100
AcDbEntity
  8
FoilLayer
100
AcDbLine
 10
-227.18818455819036
 20
58.360515967952836
 30
0.0
 11
-232.04236409598315
 21
56.10621797177444
 31
0.0
  0
LINE
  5
A5
330
17
100
AcDbEntity
  8
FoilLayer
100
AcDbLine
 10
-232.04236409598315
 20
56.10621797177444
 30
0.0
 11
-236.73169853577687
 21
53.829211249312074
 31
0.0
  0
LINE
  5
A6
330
17
100
AcDbEntity
  8
FoilLayer
100
AcDbLine
 10
-236.73169853577687
 20
53.829211249312074
 30
0.0
 11
-241.2638405068838
 21
51.517248761812674
 31
0.0
  0
LINE
  5
A7
330
17
100
AcDbEntity
  8
FoilLayer
100
AcDbLine
 10
-241.2638405068838
 20
51.517248761812674
 30
0.0
 11
-245.61115166619965
 21
49.20146784922278
 31
0.0
  0
LINE
  5
A8
330
17
100
AcDbEntity
  8
FoilLayer
100
AcDbLine
 10
-245.61115166619965
 20
49.20146784922278
 30
0.0
 11
-249.78530454475302
 21
46.858669438635246
 31
0.0
  0
LINE
  5
A9
330
17
100
AcDbEntity
  8
FoilLayer
100
AcDbLine
 10
-249.78530454475302
 20
46.858669438635246
 30
0.0
 11
-253.76204038139053
 21
44.52366439825448
 31
0.0
  0
LINE
  5
AA
330
17
100
AcDbEntity
  8
FoilLayer
100
AcDbLine
 10
-253.76204038139053
 20
44.52366439825448
 30
0.0
 11
-257.56264188459284
 21
42.15534943029337
 31
0.0
  0
LINE
  5
AB
330
17
100
AcDbEntity
  8
FoilLayer
100
AcDbLine
 10
-257.56264188459284
 20
42.15534943029337
 30
0.0
 11
-261.18039975687424
 21
39.769331437738984
 31
0.0
  0
LINE
  5
AC
330
17
100
AcDbEntity
  8
FoilLayer
100
AcDbLine
 10
-261.18039975687424
 20
39.769331437738984
 30
0.0
 11
-264.6397584627158
 21
37.366014810882945
 31
0.0
  0
LINE
  5
AD
330
17
100
AcDbEntity
  8
FoilLayer
100
AcDbLine
 10
-264.6397584627158
 20
37.366014810882945
 30
0.0
 11
-267.9150554098818
 21
34.97731049844267
 31
0.0
  0
LINE
  5
AE
330
17
100
AcDbEntity
  8
FoilLayer
100
AcDbLine
 10
-267.9150554098818
 20
34.97731049844267
 30
0.0
 11
-270.9951594073205
 21
32.59937522339558
 31
0.0
  0
LINE
  5
AF
330
17
100
AcDbEntity
  8
FoilLayer
100
AcDbLine
 10
-270.9951594073205
 20
32.59937522339558
 30
0.0
 11
-273.8789570181737
 21
30.240782771785348
 31
0.0
  0
LINE
  5
B0
330
17
100
AcDbEntity
  8
FoilLayer
100
AcDbLine
 10
-273.8789570181737
 20
30.240782771785348
 30
0.0
 11
-276.57050038020617
 21
27.87485273578825
 31
0.0
  0
LINE
  5
B1
330
17
100
AcDbEntity
  8
FoilLayer
100
AcDbLine
 10
-276.57050038020617
 20
27.87485273578825
 30
0.0
 11
-279.0809720923354
 21
25.507151062200982
 31
0.0
  0
LINE
  5
B2
330
17
100
AcDbEntity
  8
FoilLayer
100
AcDbLine
 10
-279.0809720923354
 20
25.507151062200982
 30
0.0
 11
-281.4087866704594
 21
23.16472926428289
 31
0.0
  0
LINE
  5
B3
330
17
100
AcDbEntity
  8
FoilLayer
100
AcDbLine
 10
-281.4087866704594
 20
23.16472926428289
 30
0.0
 11
-283.555362985148
 21
20.837611739439993
 31
0.0
  0
LINE
  5
B4
330
17
100
AcDbEntity
  8
FoilLayer
100
AcDbLine
 10
-283.555362985148
 20
20.837611739439993
 30
0.0
 11
-285.5140225462846
 21
18.561032130035418
 31
0.0
  0
LINE
  5
B5
330
17
100
AcDbEntity
  8
FoilLayer
100
AcDbLine
 10
-285.5140225462846
 20
18.561032130035418
 30
0.0
 11
-287.282018176695
 21
16.31095360288842
 31
0.0
  0
LINE
  5
B6
330
17
100
AcDbEntity
  8
FoilLayer
100
AcDbLine
 10
-287.282018176695
 20
16.31095360288842
 30
0.0
 11
-288.8509278879224
 21
14.125397712125151
 31
0.0
  0
LINE
  5
B7
330
17
100
AcDbEntity
  8
FoilLayer
100
AcDbLine
 10
-288.8509278879224
 20
14.125397712125151
 30
0.0
 11
-290.22053516227714
 21
12.000540943776773
 31
0.0
  0
LINE
  5
B8
330
17
100
AcDbEntity
  8
FoilLayer
100
AcDbLine
 10
-290.22053516227714
 20
12.000540943776773
 30
0.0
 11
-291.4031054554942
 21
9.9013999597023
 31
0.0
  0
LINE
  5
B9
330
17
100
AcDbEntity
  8
FoilLayer
100
AcDbLine
 10
-291.4031054554942
 20
9.9013999597023
 30
0.0
 11
-292.35969659763157
 21
7.957218787923262
 31
0.0
  0
LINE
  5
BA
330
17
100
AcDbEntity
  8
FoilLayer
100
AcDbLine
 10
-292.35969659763157
 20
7.957218787923262
 30
0.0
 11
-293.17208878195163
 21
5.860417577528709
 31
0.0
  0
LINE
  5
BB
330
17
100
AcDbEntity
  8
FoilLayer
100
AcDbLine
 10
-293.17208878195163
 20
5.860417577528709
 30
0.0
 11
-293.73457229209447
 21
4.286172521169067
 31
0.0
  0
LINE
  5
BC
330
17
100
AcDbEntity
  8
FoilLayer
100
AcDbLine
 10
-293.73457229209447
 20
4.286172521169067
 30
0.0
 11
-294.1307035567147
 21
2.282364046834811
 31
0.0
  0
LINE
  5
BD
330
17
100
AcDbEntity
  8
FoilLayer
100
AcDbLine
 10
-294.1307035567147
 20
2.282364046834811
 30
0.0
 11
-294.3333333333333
 21
0.25400762022860685
 31
0.0
  0
LINE
  5
BE
330
17
100
AcDbEntity
  8
FoilLayer
100
AcDbLine
 10
-294.3333333333333
 20
0.25400762022860685
 30
0.0
 11
-294.3385138931973
 21
-0.223967776622765
 31
0.0
  0
LINE
  5
BF
330
17
100
AcDbEntity
  8
FoilLayer
100
AcDbLine
 10
-294.3385138931973
 20
-0.223967776622765
 30
0.0
 11
-294.16002650612376
 21
-2.0752239270392576
 31
0.0
  0
LINE
  5
C0
330
17
100
AcDbEntity
  8
FoilLayer
100
AcDbLine
 10
-294.16002650612376
 20
-2.0752239270392576
 30
0.0
 11
-293.7550808901007
 21
-3.3937944920054637
 31
0.0
  0
LINE
  5
C1
330
17
100
AcDbEntity
  8
FoilLayer
100
AcDbLine
 10
-293.7550808901007
 20
-3.3937944920054637
 30
0.0
 11
-293.14497807034434
 21
-4.670485703600343
 31
0.0
  0
LINE
  5
C2
330
17
100
AcDbEntity
  8
FoilLayer
100
AcDbLine
 10
-293.14497807034434
 20
-4.670485703600343
 30
0.0
 11
-292.2665571331141
 21
-5.9505928479180845
 31
0.0
  0
LINE
  5
C3
330
17
100
AcDbEntity
  8
FoilLayer
100
AcDbLine
 10
-292.2665571331141
 20
-5.9505928479180845
 30
0.0
 11
-291.17913229256277
 21
-7.1908436520636165
 31
0.0
  0
LINE
  5
C4
330
17
100
AcDbEntity
  8
FoilLayer
100
AcDbLine
 10
-291.17913229256277
 20
-7.1908436520636165
 30
0.0
 11
-289.8421658828596
 21
-8.391045790072377
 31
0.0
  0
LINE
  5
C5
330
17
100
AcDbEntity
  8
FoilLayer
100
AcDbLine
 10
-289.8421658828596
 20
-8.391045790072377
 30
0.0
 11
-288.27332424221413
 21
-9.528144567447475
 31
0.0
  0
LINE
  5
C6
330
17
100
AcDbEntity
  8
FoilLayer
100
AcDbLine
 10
-288.27332424221413
 20
-9.528144567447475
 30
0.0
 11
-286.42795728188014
 21
-10.600139428189246
 31
0.0
  0
LINE
  5
C7
330
17
100
AcDbEntity
  8
FoilLayer
100
AcDbLine
 10
-286.42795728188014
 20
-10.600139428189246
 30
0.0
 11
-284.2480410175671
 21
-11.62112235768513
 31
0.0
  0
LINE
  5
C8
330
17
100
AcDbEntity
  8
FoilLayer
100
AcDbLine
 10
-284.2480410175671
 20
-11.62112235768513
 30
0.0
 11
-281.75427033825207
 21
-12.615679465808563
 31
0.0
  0
LINE
  5
C9
330
17
100
AcDbEntity
  8
FoilLayer
100
AcDbLine
 10
-281.75427033825207
 20
-12.615679465808563
 30
0.0
 11
-278.9798442465977
 21
-13.585787326775947
 31
0.0
  0
LINE
  5
CA
330
17
100
AcDbEntity
  8
FoilLayer
100
AcDbLine
 10
-278.9798442465977
 20
-13.585787326775947
 30
0.0
 11
-276.0054136530321
 21
-14.518756991296724
 31
0.0
  0
LINE
  5
CB
330
17
100
AcDbEntity
  8
FoilLayer
100
AcDbLine
 10
-276.0054136530321
 20
-14.518756991296724
 30
0.0
 11
-272.7808346830988
 21
-15.380293192504155
 31
0.0
  0
LINE
  5
CC
330
17
100
AcDbEntity
  8
FoilLayer
100
AcDbLine
 10
-272.7808346830988
 20
-15.380293192504155
 30
0.0
 11
-269.28715956781497
 21
-16.164856126768292
 31
0.0
  0
LINE
  5
CD
330
17
100
AcDbEntity
  8
FoilLayer
100
AcDbLine
 10
-269.28715956781497
 20
-16.164856126768292
 30
0.0
 11
-265.516820688442
 21
-16.90258365826305
 31
0.0
  0
LINE
  5
CE
330
17
100
AcDbEntity
  8
FoilLayer
100
AcDbLine
 10
-265.516820688442
 20
-16.90258365826305
 30
0.0
 11
-261.480375559799
 21
-17.6078335788608
 31
0.0
  0
LINE
  5
CF
330
17
100
AcDbEntity
  8
FoilLayer
100
AcDbLine
 10
-261.480375559799
 20
-17.6078335788608
 30
0.0
 11
-257.2356198231948
 21
-18.269839497475395
 31
0.0
  0
LINE
  5
D0
330
17
100
AcDbEntity
  8
FoilLayer
100
AcDbLine
 10
-257.2356198231948
 20
-18.269839497475395
 30
0.0
 11
-252.7584182587529
 21
-18.85723674748119
 31
0.0
  0
LINE
  5
D1
330
17
100
AcDbEntity
  8
FoilLayer
100
AcDbLine
 10
-252.7584182587529
 20
-18.85723674748119
 30
0.0
 11
-248.03444881300584
 21
-19.370282002073015
 31
0.0
  0
LINE
  5
D2
330
17
100
AcDbEntity
  8
FoilLayer
100
AcDbLine
 10
-248.03444881300584
 20
-19.370282002073015
 30
0.0
 11
-243.03468441642514
 21
-19.82568531366178
 31
0.0
  0
LINE
  5
D3
330
17
100
AcDbEntity
  8
FoilLayer
100
AcDbLine
 10
-243.03468441642514
 20
-19.82568531366178
 30
0.0
 11
-237.78689559389102
 21
-20.24762089236396
 31
0.0
  0
LINE
  5
D4
330
17
100
AcDbEntity
  8
FoilLayer
100
AcDbLine
 10
-237.78689559389102
 20
-20.24762089236396
 30
0.0
 11
-232.32607347915186
 21
-20.635438621882006
 31
0.0
  0
LINE
  5
D5
330
17
100
AcDbEntity
  8
FoilLayer
100
AcDbLine
 10
-232.32607347915186
 20
-20.635438621882006
 30
0.0
 11
-226.66915630201706
 21
-20.964012813389957
 31
0.0
  0
LINE
  5
D6
330
17
100
AcDbEntity
  8
FoilLayer
100
AcDbLine
 10
-226.66915630201706
 20
-20.964012813389957
 30
0.0
 11
-220.7816068661462
 21
-21.2087497414308
 31
0.0
  0
LINE
  5
D7
330
17
100
AcDbEntity
  8
FoilLayer
100
AcDbLine
 10
-220.7816068661462
 20
-21.2087497414308
 30
0.0
 11
-214.66137651808037
 21
-21.394550775007918
 31
0.0
  0
LINE
  5
D8
330
17
100
AcDbEntity
  8
FoilLayer
100
AcDbLine
 10
-214.66137651808037
 20
-21.394550775007918
 30
0.0
 11
-208.28042093015293
 21
-21.529809806050594
 31
0.0
  0
LINE
  5
D9
330
17
100
AcDbEntity
  8
FoilLayer
100
AcDbLine
 10
-208.28042093015293
 20
-21.529809806050594
 30
0.0
 11
-201.7030417407481
 21
-21.631214371970334
 31
0.0
  0
LINE
  5
DA
330
17
100
AcDbEntity
  8
FoilLayer
100
AcDbLine
 10
-201.7030417407481
 20
-21.631214371970334
 30
0.0
 11
-194.92382136983593
 21
-21.673523396312802
 31
0.0
  0
LINE
  5
DB
330
17
100
AcDbEntity
  8
FoilLayer
100
AcDbLine
 10
-194.92382136983593
 20
-21.673523396312802
 30
0.0
 11
-187.94867019836278
 21
-21.648275720628536
 31
0.0
  0
LINE
  5
DC
330
17
100
AcDbEntity
  8
FoilLayer
100
AcDbLine
 10
-187.94867019836278
 20
-21.648275720628536
 30
0.0
 11
-180.73695531300257
 21
-21.555303812458956
 31
0.0
  0
LINE
  5
DD
330
17
100
AcDbEntity
  8
FoilLayer
100
AcDbLine
 10
-180.73695531300257
 20
-21.555303812458956
 30
0.0
 11
-173.29168718802214
 21
-21.419943207350347
 31
0.0
  0
LINE
  5
DE
330
17
100
AcDbEntity
  8
FoilLayer
100
AcDbLine
 10
-173.29168718802214
 20
-21.419943207350347
 30
0.0
 11
-165.6390187184247
 21
-21.25930394476338
 31
0.0
  0
LINE
  5
DF
330
17
100
AcDbEntity
  8
FoilLayer
100
AcDbLine
 10
-165.6390187184247
 20
-21.25930394476338
 30
0.0
 11
-157.8227859439502
 21
-21.056565845361042
 31
0.0
  0
LINE
  5
E0
330
17
100
AcDbEntity
  8
FoilLayer
100
AcDbLine
 10
-157.8227859439502
 20
-21.056565845361042
 30
0.0
 11
-149.8153592427252
 21
-20.78601647116788
 31
0.0
  0
LINE
  5
E1
330
17
100
AcDbEntity
  8
FoilLayer
100
AcDbLine
 10
-149.8153592427252
 20
-20.78601647116788
 30
0.0
 11
-141.61251159019224
 21
-20.464693191829717
 31
0.0
  0
LINE
  5
E2
330
17
100
AcDbEntity
  8
FoilLayer
100
AcDbLine
 10
-141.61251159019224
 20
-20.464693191829717
 30
0.0
 11
-133.18789205141854
 21
-20.09214720245621
 31
0.0
  0
LINE
  5
E3
330
17
100
AcDbEntity
  8
FoilLayer
100
AcDbLine
 10
-133.18789205141854
 20
-20.09214720245621
 30
0.0
 11
-124.5747333758784
 21
-19.71141789705986
 31
0.0
  0
LINE
  5
E4
330
17
100
AcDbEntity
  8
FoilLayer
100
AcDbLine
 10
-124.5747333758784
 20
-19.71141789705986
 30
0.0
 11
-115.81084716478443
 21
-19.29692520057316
 31
0.0
  0
LINE
  5
E5
330
17
100
AcDbEntity
  8
FoilLayer
100
AcDbLine
 10
-115.81084716478443
 20
-19.29692520057316
 30
0.0
 11
-106.89768629630998
 21
-18.8403039268673
 31
0.0
  0
LINE
  5
E6
330
17
100
AcDbEntity
  8
FoilLayer
100
AcDbLine
 10
-106.89768629630998
 20
-18.8403039268673
 30
0.0
 11
-97.8026606447018
 21
-18.324226110450564
 31
0.0
  0
LINE
  5
E7
330
17
100
AcDbEntity
  8
FoilLayer
100
AcDbLine
 10
-97.8026606447018
 20
-18.324226110450564
 30
0.0
 11
-88.52066334618996
 21
-17.765274993354353
 31
0.0
  0
LINE
  5
E8
330
17
100
AcDbEntity
  8
FoilLayer
100
AcDbLine
 10
-88.52066334618996
 20
-17.765274993354353
 30
0.0
 11
-84.78463459866086
 21
-17.544524861450217
 31
0.0
  0
LINE
  5
E9
330
17
100
AcDbEntity
  8
FoilLayer
100
AcDbLine
 10
-84.78463459866086
 20
-17.544524861450217
 30
0.0
 11
-84.69320945136536
 21
-19.09182620328444
 31
0.0
  0
LINE
  5
EA
330
17
100
AcDbEntity
  8
FoilLayer
100
AcDbLine
 10
-84.69320945136536
 20
-19.09182620328444
 30
0.0
 11
-78.97212818307742
 21
-18.753785807814747
 31
0.0
  0
LINE
  5
EB
330
17
100
AcDbEntity
  8
FoilLayer
100
AcDbLine
 10
-78.97212818307742
 20
-18.753785807814747
 30
0.0
 11
-69.38878293116252
 21
-18.17810945750925
 31
0.0
  0
LINE
  5
EC
330
17
100
AcDbEntity
  8
FoilLayer
100
AcDbLine
 10
-69.38878293116252
 20
-18.17810945750925
 30
0.0
 11
-59.67950394273228
 21
-17.568640036034893
 31
0.0
  0
LINE
  5
ED
330
17
100
AcDbEntity
  8
FoilLayer
100
AcDbLine
 10
-59.67950394273228
 20
-17.568640036034893
 30
0.0
 11
-49.824302548619386
 21
-16.899773371637217
 31
0.0
  0
LINE
  5
EE
330
17
100
AcDbEntity
  8
FoilLayer
100
AcDbLine
 10
-49.824302548619386
 20
-16.899773371637217
 30
0.0
 11
-39.815968101112276
 21
-16.213923252429588
 31
0.0
  0
LINE
  5
EF
330
17
100
AcDbEntity
  8
FoilLayer
100
AcDbLine
 10
-39.815968101112276
 20
-16.213923252429588
 30
0.0
 11
-29.663437489114585
 21
-15.528056416759195
 31
0.0
  0
LINE
  5
F0
330
17
100
AcDbEntity
  8
FoilLayer
100
AcDbLine
 10
-29.663437489114585
 20
-15.528056416759195
 30
0.0
 11
-19.40309144401084
 21
-14.850808581378878
 31
0.0
  0
LINE
  5
F1
330
17
100
AcDbEntity
  8
FoilLayer
100
AcDbLine
 10
-19.40309144401084
 20
-14.850808581378878
 30
0.0
 11
-9.048805110720025
 21
-14.131173624283226
 31
0.0
  0
LINE
  5
F2
330
17
100
AcDbEntity
  8
FoilLayer
100
AcDbLine
 10
-9.048805110720025
 20
-14.131173624283226
 30
0.0
 11
1.4163076860371007
 21
-13.386084687298782
 31
0.0
  0
LINE
  5
F3
330
17
100
AcDbEntity
  8
FoilLayer
100
AcDbLine
 10
1.4163076860371007
 20
-13.386084687298782
 30
0.0
 11
12.00026090799247
 21
-12.632507320256348
 31
0.0
  0
LINE
  5
F4
330
17
100
AcDbEntity
  8
FoilLayer
100
AcDbLine
 10
12.00026090799247
 20
-12.632507320256348
 30
0.0
 11
22.686464953154825
 21
-11.878885382985171
 31
0.0
  0
LINE
  5
F5
330
17
100
AcDbEntity
  8
FoilLayer
100
AcDbLine
 10
22.686464953154825
 20
-11.878885382985171
 30
0.0
 11
33.45583229999545
 21
-11.142301641199854
 31
0.0
  0
LINE
  5
F6
330
17
100
AcDbEntity
  8
FoilLayer
100
AcDbLine
 10
33.45583229999545
 20
-11.142301641199854
 30
0.0
 11
44.27573327689959
 21
-10.388803819221394
 31
0.0
  0
LINE
  5
F7
330
17
100
AcDbEntity
  8
FoilLayer
100
AcDbLine
 10
44.27573327689959
 20
-10.388803819221394
 30
0.0
 11
55.17290632777491
 21
-9.609829589710433
 31
0.0
  0
LINE
  5
F8
330
17
100
AcDbEntity
  8
FoilLayer
100
AcDbLine
 10
55.17290632777491
 20
-9.609829589710433
 30
0.0
 11
66.15538131548419
 21
-8.830811411243493
 31
0.0
  0
LINE
  5
F9
330
17
100
AcDbEntity
  8
FoilLayer
100
AcDbLine
 10
66.15538131548419
 20
-8.830811411243493
 30
0.0
 11
77.20548976670784
 21
-8.068735641802563
 31
0.0
  0
LINE
  5
FA
330
17
100
AcDbEntity
  8
FoilLayer
100
AcDbLine
 10
77.20548976670784
 20
-8.068735641802563
 30
0.0
 11
88.28841697804131
 21
-7.323664987642287
 31
0.0
  0
LINE
  5
FB
330
17
100
AcDbEntity
  8
FoilLayer
100
AcDbLine
 10
88.28841697804131
 20
-7.323664987642287
 30
0.0
 11
99.3967462255892
 21
-6.570127491084641
 31
0.0
  0
LINE
  5
FC
330
17
100
AcDbEntity
  8
FoilLayer
100
AcDbLine
 10
99.3967462255892
 20
-6.570127491084641
 30
0.0
 11
110.53090885705711
 21
-5.808093576070055
 31
0.0
  0
LINE
  5
FD
330
17
100
AcDbEntity
  8
FoilLayer
100
AcDbLine
 10
110.53090885705711
 20
-5.808093576070055
 30
0.0
 11
121.72525896029413
 21
-5.045998431418539
 31
0.0
  0
LINE
  5
FE
330
17
100
AcDbEntity
  8
FoilLayer
100
AcDbLine
 10
121.72525896029413
 20
-5.045998431418539
 30
0.0
 11
132.94525783431885
 21
-4.309291046145798
 31
0.0
  0
LINE
  5
FF
330
17
100
AcDbEntity
  8
FoilLayer
100
AcDbLine
 10
132.94525783431885
 20
-4.309291046145798
 30
0.0
 11
144.15541837993914
 21
-3.606539291898984
 31
0.0
  0
LINE
  5
100
330
17
100
AcDbEntity
  8
FoilLayer
100
AcDbLine
 10
144.15541837993914
 20
-3.606539291898984
 30
0.0
 11
155.3479890595964
 21
-2.903829272591373
 31
0.0
  0
LINE
  5
101
330
17
100
AcDbEntity
  8
FoilLayer
100
AcDbLine
 10
155.3479890595964
 20
-2.903829272591373
 30
0.0
 11
166.53348972207942
 21
-2.184096618618785
 31
0.0
  0
LINE
  5
102
330
17
100
AcDbEntity
  8
FoilLayer
100
AcDbLine
 10
166.53348972207942
 20
-2.184096618618785
 30
0.0
 11
177.72807226749774
 21
-1.481261669436692
 31
0.0
  0
LINE
  5
103
330
17
100
AcDbEntity
  8
FoilLayer
100
AcDbLine
 10
177.72807226749774
 20
-1.481261669436692
 30
0.0
 11
188.904986519249
 21
-0.8123406606028913
 31
0.0
  0
LINE
  5
104
330
17
100
AcDbEntity
  8
FoilLayer
100
AcDbLine
 10
188.904986519249
 20
-0.8123406606028913
 30
0.0
 11
200.03916929086415
 21
-0.16037714370318518
 31
0.0
  0
LINE
  5
105
330
17
100
AcDbEntity
  8
FoilLayer
100
AcDbLine
 10
200.03916929086415
 20
-0.16037714370318518
 30
0.0
 11
211.10501111239785
 21
0.48308400139326185
 31
0.0
  0
LINE
  5
106
330
17
100
AcDbEntity
  8
FoilLayer
100
AcDbLine
 10
211.10501111239785
 20
0.48308400139326185
 30
0.0
 11
222.1380165915769
 21
1.1350724006444433
 31
0.0
  0
LINE
  5
107
330
17
100
AcDbEntity
  8
FoilLayer
100
AcDbLine
 10
222.1380165915769
 20
1.1350724006444433
 30
0.0
 11
233.1378120668109
 21
1.7701627300458922
 31
0.0
  0
LINE
  5
108
330
17
100
AcDbEntity
  8
FoilLayer
100
AcDbLine
 10
233.1378120668109
 20
1.7701627300458922
 30
0.0
 11
244.08637785825493
 21
2.3713592956966822
 31
0.0
  0
LINE
  5
109
330
17
100
AcDbEntity
  8
FoilLayer
100
AcDbLine
 10
244.08637785825493
 20
2.3713592956966822
 30
0.0
 11
254.94078330903295
 21
2.9470999514754066
 31
0.0
  0
LINE
  5
10A
330
17
100
AcDbEntity
  8
FoilLayer
100
AcDbLine
 10
254.94078330903295
 20
2.9470999514754066
 30
0.0
 11
265.71020035422526
 21
3.5228232184244495
 31
0.0
  0
LINE
  5
10B
330
17
100
AcDbEntity
  8
FoilLayer
100
AcDbLine
 10
265.71020035422526
 20
3.5228232184244495
 30
0.0
 11
276.4136593473382
 21
4.107108337879087
 31
0.0
  0
LINE
  5
10C
330
17
100
AcDbEntity
  8
FoilLayer
100
AcDbLine
 10
276.4136593473382
 20
4.107108337879087
 30
0.0
 11
287.04972454581747
 21
4.6575387469697604
 31
0.0
  0
LINE
  5
10D
330
17
100
AcDbEntity
  8
FoilLayer
100
AcDbLine
 10
287.04972454581747
 20
4.6575387469697604
 30
0.0
 11
297.6003544101687
 21
5.1655939604345384
 31
0.0
  0
LINE
  5
10E
330
17
100
AcDbEntity
  8
FoilLayer
100
AcDbLine
 10
297.6003544101687
 20
5.1655939604345384
 30
0.0
 11
308.031362147866
 21
5.648197339419634
 31
0.0
  0
LINE
  5
10F
330
17
100
AcDbEntity
  8
FoilLayer
100
AcDbLine
 10
308.031362147866
 20
5.648197339419634
 30
0.0
 11
318.3446234900925
 21
6.13083730893319
 31
0.0
  0
LINE
  5
110
330
17
100
AcDbEntity
  8
FoilLayer
100
AcDbLine
 10
318.3446234900925
 20
6.13083730893319
 30
0.0
 11
328.5658688813534
 21
6.596591025299572
 31
0.0
  0
LINE
  5
111
330
17
100
AcDbEntity
  8
FoilLayer
100
AcDbLine
 10
328.5658688813534
 20
6.596591025299572
 30
0.0
 11
338.68626365143024
 21
7.020031957809567
 31
0.0
  0
LINE
  5
112
330
17
100
AcDbEntity
  8
FoilLayer
100
AcDbLine
 10
338.68626365143024
 20
7.020031957809567
 30
0.0
 11
348.67892196421275
 21
7.38416801485068
 31
0.0
  0
LINE
  5
113
330
17
100
AcDbEntity
  8
FoilLayer
100
AcDbLine
 10
348.67892196421275
 20
7.38416801485068
 30
0.0
 11
358.52649238639873
 21
7.705928372798231
 31
0.0
  0
LINE
  5
114
330
17
100
AcDbEntity
  8
FoilLayer
100
AcDbLine
 10
358.52649238639873
 20
7.705928372798231
 30
0.0
 11
368.2144520586224
 21
8.010790621998286
 31
0.0
  0
LINE
  5
115
330
17
100
AcDbEntity
  8
FoilLayer
100
AcDbLine
 10
368.2144520586224
 20
8.010790621998286
 30
0.0
 11
377.776642976064
 21
8.273338304489918
 31
0.0
  0
LINE
  5
116
330
17
100
AcDbEntity
  8
FoilLayer
100
AcDbLine
 10
377.776642976064
 20
8.273338304489918
 30
0.0
 11
387.1865080216483
 21
8.468131196277568
 31
0.0
  0
LINE
  5
117
330
17
100
AcDbEntity
  8
FoilLayer
100
AcDbLine
 10
387.1865080216483
 20
8.468131196277568
 30
0.0
 11
396.40895325895957
 21
8.595157815341118
 31
0.0
  0
LINE
  5
118
330
17
100
AcDbEntity
  8
FoilLayer
100
AcDbLine
 10
396.40895325895957
 20
8.595157815341118
 30
0.0
 11
405.41896302890024
 21
8.679836741612945
 31
0.0
  0
LINE
  5
119
330
17
100
AcDbEntity
  8
FoilLayer
100
AcDbLine
 10
405.41896302890024
 20
8.679836741612945
 30
0.0
 11
414.24407615903687
 21
8.73911512386383
 31
0.0
  0
LINE
  5
11A
330
17
100
AcDbEntity
  8
FoilLayer
100
AcDbLine
 10
414.24407615903687
 20
8.73911512386383
 30
0.0
 11
422.88394217415015
 21
8.747571125131717
 31
0.0
  0
LINE
  5
11B
330
17
100
AcDbEntity
  8
FoilLayer
100
AcDbLine
 10
422.88394217415015
 20
8.747571125131717
 30
0.0
 11
431.3114115859924
 21
8.688273157009398
 31
0.0
  0
LINE
  5
11C
330
17
100
AcDbEntity
  8
FoilLayer
100
AcDbLine
 10
431.3114115859924
 20
8.688273157009398
 30
0.0
 11
439.5010377968429
 21
8.578169802621352
 31
0.0
  0
LINE
  5
11D
330
17
100
AcDbEntity
  8
FoilLayer
100
AcDbLine
 10
439.5010377968429
 20
8.578169802621352
 30
0.0
 11
447.43676130918794
 21
8.434186421209198
 31
0.0
  0
LINE
  5
11E
330
17
100
AcDbEntity
  8
FoilLayer
100
AcDbLine
 10
447.43676130918794
 20
8.434186421209198
 30
0.0
 11
455.1445368178194
 21
8.256305468644715
 31
0.0
  0
LINE
  5
11F
330
17
100
AcDbEntity
  8
FoilLayer
100
AcDbLine
 10
455.1445368178194
 20
8.256305468644715
 30
0.0
 11
462.6160106251287
 21
8.036043117425589
 31
0.0
  0
LINE
  5
120
330
17
100
AcDbEntity
  8
FoilLayer
100
AcDbLine
 10
462.6160106251287
 20
8.036043117425589
 30
0.0
 11
469.82478453309824
 21
7.7649598270741444
 31
0.0
  0
LINE
  5
121
330
17
100
AcDbEntity
  8
FoilLayer
100
AcDbLine
 10
469.82478453309824
 20
7.7649598270741444
 30
0.0
 11
476.7521498734115
 21
7.451617079962333
 31
0.0
  0
LINE
  5
122
330
17
100
AcDbEntity
  8
FoilLayer
100
AcDbLine
 10
476.7521498734115
 20
7.451617079962333
 30
0.0
 11
483.4019521562945
 21
7.129703899069618
 31
0.0
  0
LINE
  5
123
330
17
100
AcDbEntity
  8
FoilLayer
100
AcDbLine
 10
483.4019521562945
 20
7.129703899069618
 30
0.0
 11
489.7896347000164
 21
6.773876673267246
 31
0.0
  0
LINE
  5
124
330
17
100
AcDbEntity
  8
FoilLayer
100
AcDbLine
 10
489.7896347000164
 20
6.773876673267246
 30
0.0
 11
495.89974472770376
 21
6.384016602334443
 31
0.0
  0
LINE
  5
125
330
17
100
AcDbEntity
  8
FoilLayer
100
AcDbLine
 10
495.89974472770376
 20
6.384016602334443
 30
0.0
 11
501.69374575836815
 21
5.943529252106193
 31
0.0
  0
LINE
  5
126
330
17
100
AcDbEntity
  8
FoilLayer
100
AcDbLine
 10
501.69374575836815
 20
5.943529252106193
 30
0.0
 11
507.1741191460299
 21
5.494590223207908
 31
0.0
  0
LINE
  5
127
330
17
100
AcDbEntity
  8
FoilLayer
100
AcDbLine
 10
507.1741191460299
 20
5.494590223207908
 30
0.0
 11
512.3328332681724
 21
5.0456318322889775
 31
0.0
  0
LINE
  5
128
330
17
100
AcDbEntity
  8
FoilLayer
100
AcDbLine
 10
512.3328332681724
 20
5.0456318322889775
 30
0.0
 11
517.1965786932346
 21
4.596524661676367
 31
0.0
  0
LINE
  5
129
330
17
100
AcDbEntity
  8
FoilLayer
100
AcDbLine
 10
517.1965786932346
 20
4.596524661676367
 30
0.0
 11
521.739139134522
 21
4.138857856103643
 31
0.0
  0
LINE
  5
12A
330
17
100
AcDbEntity
  8
FoilLayer
100
AcDbLine
 10
521.739139134522
 20
4.138857856103643
 30
0.0
 11
525.9588457491977
 21
3.6728145488748436
 31
0.0
  0
LINE
  5
12B
330
17
100
AcDbEntity
  8
FoilLayer
100
AcDbLine
 10
525.9588457491977
 20
3.6728145488748436
 30
0.0
 11
529.8491880009783
 21
3.215108823509507
 31
0.0
  0
LINE
  5
12C
330
17
100
AcDbEntity
  8
FoilLayer
100
AcDbLine
 10
529.8491880009783
 20
3.215108823509507
 30
0.0
 11
533.3906133968455
 21
2.7660706388445675
 31
0.0
  0
LINE
  5
12D
330
17
100
AcDbEntity
  8
FoilLayer
100
AcDbLine
 10
533.3906133968455
 20
2.7660706388445675
 30
0.0
 11
536.6014027568378
 21
2.3424798463095593
 31
0.0
  0
LINE
  5
12E
330
17
100
AcDbEntity
  8
FoilLayer
100
AcDbLine
 10
536.6014027568378
 20
2.3424798463095593
 30
0.0
 11
539.4649302726916
 21
1.952765666051406
 31
0.0
  0
LINE
  5
12F
330
17
100
AcDbEntity
  8
FoilLayer
100
AcDbLine
 10
539.4649302726916
 20
1.952765666051406
 30
0.0
 11
542.0062545552921
 21
1.5969784838690804
 31
0.0
  0
LINE
  5
130
330
17
100
AcDbEntity
  8
FoilLayer
100
AcDbLine
 10
542.0062545552921
 20
1.5969784838690804
 30
0.0
 11
544.2000332721398
 21
1.2835807038801696
 31
0.0
  0
LINE
  5
131
330
17
100
AcDbEntity
  8
FoilLayer
100
AcDbLine
 10
544.2000332721398
 20
1.2835807038801696
 30
0.0
 11
546.0731293199792
 21
1.0123590073675333
 31
0.0
  0
LINE
  5
132
330
17
100
AcDbEntity
  8
FoilLayer
100
AcDbLine
 10
546.0731293199792
 20
1.0123590073675333
 30
0.0
 11
547.6076752435754
 21
0.7834440909385045
 31
0.0
  0
LINE
  5
133
330
17
100
AcDbEntity
  8
FoilLayer
100
AcDbLine
 10
547.6076752435754
 20
0.7834440909385045
 30
0.0
 11
548.8197546630538
 21
0.5969683590382651
 31
0.0
  0
LINE
  5
134
330
17
100
AcDbEntity
  8
FoilLayer
100
AcDbLine
 10
548.8197546630538
 20
0.5969683590382651
 30
0.0
 11
549.6772846861672
 21
0.4624111135187477
 31
0.0
  0
LINE
  5
135
330
17
100
AcDbEntity
  8
FoilLayer
100
AcDbLine
 10
549.6772846861672
 20
0.4624111135187477
 30
0.0
 11
550.2275595254887
 21
0.38347301486135915
 31
0.0
  0
LINE
  5
136
330
17
100
AcDbEntity
  8
FoilLayer
100
AcDbLine
 10
550.2275595254887
 20
0.38347301486135915
 30
0.0
 11
550.4138317803261
 21
0.34960533216367085
 31
0.0
  0
LINE
  5
137
330
17
100
AcDbEntity
  8
FoilLayer
100
AcDbLine
 10
550.4138317803261
 20
0.34960533216367085
 30
0.0
 11
550.1846756425405
 21
-0.38240165711048485
 31
0.0
  0
LINE
  5
138
330
17
100
AcDbEntity
  8
StringerLayer
100
AcDbLine
 10
292.9887106850211
 20
65.76077282527098
 30
0.0
 11
296.87832764994386
 21
64.8275633813704
 31
0.0
  0
LINE
  5
139
330
17
100
AcDbEntity
  8
StringerLayer
100
AcDbLine
 10
296.87832764994386
 20
64.8275633813704
 30
0.0
 11
297.81153709384444
 21
68.71718034629313
 31
0.0
  0
LINE
  5
13A
330
17
100
AcDbEntity
  8
StringerLayer
100
AcDbLine
 10
297.81153709384444
 20
68.71718034629313
 30
0.0
 11
293.92192012892167
 21
69.65038979019371
 31
0.0
  0
LINE
  5
13B
330
17
100
AcDbEntity
  8
StringerLayer
100
AcDbLine
 10
293.92192012892167
 20
69.65038979019371
 30
0.0
 11
292.9887106850211
 21
65.76077282527098
 31
0.0
  0
LINE
  5
13C
330
17
100
AcDbEntity
  8
StringerLayer
100
AcDbLine
 10
-85.86565325132185
 20
91.13954007846469
 30
0.0
 11
-81.89993655507863
 21
91.66212125410895
 31
0.0
  0
LINE
  5
13D
330
17
100
AcDbEntity
  8
StringerLayer
100
AcDbLine
 10
-81.89993655507863
 20
91.66212125410895
 30
0.0
 11
-82.4225177307229
 21
95.62783795035217
 31
0.0
  0
LINE
  5
13E
330
17
100
AcDbEntity
  8
StringerLayer
100
AcDbLine
 10
-82.4225177307229
 20
95.62783795035217
 30
0.0
 11
-86.38823442696612
 21
95.10525677470791
 31
0.0
  0
LINE
  5
13F
330
17
100
AcDbEntity
  8
StringerLayer
100
AcDbLine
 10
-86.38823442696612
 20
95.10525677470791
 30
0.0
 11
-85.86565325132185
 21
91.13954007846469
 31
0.0
  0
LINE
  5
140
330
17
100
AcDbEntity
  8
StringerLayer
100
AcDbLine
 10
-211.39046273216573
 20
60.6993590458521
 30
0.0
 11
-207.65459074058467
 21
62.128785666046404
 31
0.0
  0
LINE
  5
141
330
17
100
AcDbEntity
  8
StringerLayer
100
AcDbLine
 10
-207.65459074058467
 20
62.128785666046404
 30
0.0
 11
-209.08401736077897
 21
65.86465765762748
 31
0.0
  0
LINE
  5
142
330
17
100
AcDbEntity
  8
StringerLayer
100
AcDbLine
 10
-209.08401736077897
 20
65.86465765762748
 30
0.0
 11
-212.81988935236004
 21
64.43523103743317
 31
0.0
  0
LINE
  5
143
330
17
100
AcDbEntity
  8
StringerLayer
100
AcDbLine
 10
-212.81988935236004
 20
64.43523103743317
 30
0.0
 11
-211.39046273216573
 21
60.6993590458521
 31
0.0
  0
LINE
  5
144
330
17
100
AcDbEntity
  8
StringerLayer
100
AcDbLine
 10
-282.97696393234435
 20
13.69470378322607
 30
0.0
 11
-281.74233552589703
 21
15.26813719395348
 31
0.0
  0
LINE
  5
145
330
17
100
AcDbEntity
  8
StringerLayer
100
AcDbLine
 10
-281.74233552589703
 20
15.26813719395348
 30
0.0
 11
-285.6759190527156
 21
18.354708210071838
 31
0.0
  0
LINE
  5
146
330
17
100
AcDbEntity
  8
StringerLayer
100
AcDbLine
 10
-285.6759190527156
 20
18.354708210071838
 30
0.0
 11
-286.9105474591629
 21
16.781274799344427
 31
0.0
  0
LINE
  5
147
330
17
100
AcDbEntity
  8
StringerLayer
100
AcDbLine
 10
-286.9105474591629
 20
16.781274799344427
 30
0.0
 11
-282.97696393234435
 21
13.69470378322607
 31
0.0
  0
LINE
  5
148
330
17
100
AcDbEntity
  8
StringerLayer
100
AcDbLine
 10
-286.70685637960105
 20
-4.474254963680313
 30
0.0
 11
-288.20307333803635
 21
-3.1471020661999414
 31
0.0
  0
LINE
  5
149
330
17
100
AcDbEntity
  8
StringerLayer
100
AcDbLine
 10
-288.20307333803635
 20
-3.1471020661999414
 30
0.0
 11
-291.52095558173727
 21
-6.887644462288255
 31
0.0
  0
LINE
  5
14A
330
17
100
AcDbEntity
  8
StringerLayer
100
AcDbLine
 10
-291.52095558173727
 20
-6.887644462288255
 30
0.0
 11
-290.02473862330197
 21
-8.214797359768626
 31
0.0
  0
LINE
  5
14B
330
17
100
AcDbEntity
  8
StringerLayer
100
AcDbLine
 10
-290.02473862330197
 20
-8.214797359768626
 30
0.0
 11
-286.70685637960105
 21
-4.474254963680313
 31
0.0
  0
LINE
  5
14C
330
17
100
AcDbEntity
  8
StringerLayer
100
AcDbLine
 10
-125.26691833466137
 20
-15.738099795164091
 30
0.0
 11
-129.26301600880433
 21
-15.914744576319338
 31
0.0
  0
LINE
  5
14D
330
17
100
AcDbEntity
  8
StringerLayer
100
AcDbLine
 10
-129.26301600880433
 20
-15.914744576319338
 30
0.0
 11
-129.08637122764907
 21
-19.910842250462277
 31
0.0
  0
LINE
  5
14E
330
17
100
AcDbEntity
  8
StringerLayer
100
AcDbLine
 10
-129.08637122764907
 20
-19.910842250462277
 30
0.0
 11
-125.09027355350612
 21
-19.73419746930703
 31
0.0
  0
LINE
  5
14F
330
17
100
AcDbEntity
  8
StringerLayer
100
AcDbLine
 10
-125.09027355350612
 20
-19.73419746930703
 30
0.0
 11
-125.26691833466137
 21
-15.738099795164091
 31
0.0
  0
LINE
  5
150
330
17
100
AcDbEntity
  8
SubLayer
100
AcDbLine
 10
-296.3333333333333
 20
0.0
 30
0.0
 11
-292.3333333333333
 21
0.0
 31
0.0
  0
LINE
  5
151
330
17
100
AcDbEntity
  8
SubLayer
100
AcDbLine
 10
82.66666666666669
 20
0.0
 30
0.0
 11
95.13333333333333
 21
0.0
 31
0.0
  0
LINE
  5
152
330
17
100
AcDbEntity
  8
SubLayer
100
AcDbLine
 10
-63.46131751571257
 20
42.76119639807737
 30
0.0
 11
-55.466190899559805
 21
43.04039237169737
 31
0.0
  0
LINE
  5
153
330
17
100
AcDbEntity
  8
SubLayer
100
AcDbLine
 10
55.466190899559805
 20
46.914236505674985
 30
0.0
 11
63.46131751571257
 21
47.19343247929499
 31
0.0
  0
LINE
  5
154
330
17
100
AcDbEntity
  8
SubLayer
100
AcDbLine
 10
-1.8159371450868003
 20
96.97895047124646
 30
0.0
 11
-1.5367411714667927
 21
88.9838238550937
 31
0.0
  0
LINE
  5
155
330
17
100
AcDbEntity
  8
SubLayer
100
AcDbLine
 10
1.8159371450868003
 20
-7.024321593874099
 30
0.0
 11
1.5367411714667927
 21
0.9708050222786611
 31
0.0
  0
LINE
  5
156
330
17
100
AcDbEntity
  8
SubLayer
100
AcDbLine
 10
-61.392736868269374
 20
40.83221373744418
 30
0.0
 11
-57.395173560192994
 21
40.97181172425418
 31
0.0
  0
LINE
  5
157
330
17
100
AcDbEntity
  8
SubLayer
100
AcDbLine
 10
-57.395173560192994
 20
40.97181172425418
 30
0.0
 11
-57.534771547003
 21
44.96937503233056
 31
0.0
  0
LINE
  5
158
330
17
100
AcDbEntity
  8
SubLayer
100
AcDbLine
 10
-57.534771547003
 20
44.96937503233056
 30
0.0
 11
-61.53233485507938
 21
44.82977704552056
 31
0.0
  0
LINE
  5
159
330
17
100
AcDbEntity
  8
SubLayer
100
AcDbLine
 10
-61.53233485507938
 20
44.82977704552056
 30
0.0
 11
-61.392736868269374
 21
40.83221373744418
 31
0.0
  0
LINE
  5
15A
330
17
100
AcDbEntity
  8
SubLayer
100
AcDbLine
 10
57.534771547003
 20
44.9852538450418
 30
0.0
 11
61.53233485507938
 21
45.1248518318518
 31
0.0
  0
LINE
  5
15B
330
17
100
AcDbEntity
  8
SubLayer
100
AcDbLine
 10
61.53233485507938
 20
45.1248518318518
 30
0.0
 11
61.392736868269374
 21
49.12241513992818
 31
0.0
  0
LINE
  5
15C
330
17
100
AcDbEntity
  8
SubLayer
100
AcDbLine
 10
61.392736868269374
 20
49.12241513992818
 30
0.0
 11
57.395173560192994
 21
48.98281715311818
 31
0.0
  0
LINE
  5
15D
330
17
100
AcDbEntity
  8
SubLayer
100
AcDbLine
 10
57.395173560192994
 20
48.98281715311818
 30
0.0
 11
57.534771547003
 21
44.9852538450418
 31
0.0
  0
LINE
  5
15E
330
17
100
AcDbEntity
  8
SubLayer
100
AcDbLine
 10
-3.605321818909986
 20
90.91280651572688
 30
0.0
 11
0.392241489166397
 21
91.05240450253689
 31
0.0
  0
LINE
  5
15F
330
17
100
AcDbEntity
  8
SubLayer
100
AcDbLine
 10
0.392241489166397
 20
91.05240450253689
 30
0.0
 11
0.2526435023563931
 21
95.04996781061328
 31
0.0
  0
LINE
  5
160
330
17
100
AcDbEntity
  8
SubLayer
100
AcDbLine
 10
0.2526435023563931
 20
95.04996781061328
 30
0.0
 11
-3.74491980571999
 21
94.91036982380328
 31
0.0
  0
LINE
  5
161
330
17
100
AcDbEntity
  8
SubLayer
100
AcDbLine
 10
-3.74491980571999
 20
94.91036982380328
 30
0.0
 11
-3.605321818909986
 21
90.91280651572688
 31
0.0
  0
LINE
  5
162
330
17
100
AcDbEntity
  8
SubLayer
100
AcDbLine
 10
-0.2526435023563931
 20
-5.095338933240912
 30
0.0
 11
3.74491980571999
 21
-4.955740946430908
 31
0.0
  0
LINE
  5
163
330
17
100
AcDbEntity
  8
SubLayer
100
AcDbLine
 10
3.74491980571999
 20
-4.955740946430908
 30
0.0
 11
3.605321818909986
 21
-0.9581776383545253
 31
0.0
  0
LINE
  5
164
330
17
100
AcDbEntity
  8
SubLayer
100
AcDbLine
 10
3.605321818909986
 20
-0.9581776383545253
 30
0.0
 11
-0.392241489166397
 21
-1.0977756251645292
 31
0.0
  0
LINE
  5
165
330
17
100
AcDbEntity
  8
SubLayer
100
AcDbLine
 10
-0.392241489166397
 20
-1.0977756251645292
 30
0.0
 11
-0.2526435023563931
 21
-5.095338933240912
 31
0.0
  0
LINE
  5
166
330
17
100
AcDbEntity
  8
SubLayer
100
AcDbLine
 10
423.6677144618163
 20
36.20596677020517
 30
0.0
 11
427.6652777698926
 21
36.345564757015175
 31
0.0
  0
LINE
  5
167
330
17
100
AcDbEntity
  8
SubLayer
100
AcDbLine
 10
-292.6354320549928
 20
11.192109704478138
 30
0.0
 11
-288.63786874691647
 21
11.331707691288141
 31
0.0
  0
LINE
  5
168
330
17
100
AcDbEntity
  8
SubLayer
100
AcDbLine
 10
-150.3741935786501
 20
16.159981620921045
 30
0.0
 11
-144.37784861653554
 21
16.36937860113605
 31
0.0
  0
LINE
  5
169
330
17
100
AcDbEntity
  8
SubLayer
100
AcDbLine
 10
279.4076943314354
 20
31.168295860357265
 30
0.0
 11
285.40403929354994
 21
31.37769284057227
 31
0.0
  0
LINE
  5
16A
330
17
100
AcDbEntity
  8
SubLayer
100
AcDbLine
 10
64.51675037639262
 20
23.664138740639153
 30
0.0
 11
70.51309533850718
 21
23.873535720854157
 31
0.0
  0
LINE
  5
16B
330
17
100
AcDbEntity
  8
SubLayer
100
AcDbLine
 10
-145.30744045014964
 20
14.335697450395356
 30
0.0
 11
-145.44703843695964
 21
18.33326075847174
 31
0.0
  0
LINE
  5
16C
330
17
100
AcDbEntity
  8
SubLayer
100
AcDbLine
 10
-145.44703843695964
 20
18.33326075847174
 30
0.0
 11
-149.444601745036
 21
18.193662771661735
 31
0.0
  0
LINE
  5
16D
330
17
100
AcDbEntity
  8
SubLayer
100
AcDbLine
 10
-149.444601745036
 20
18.193662771661735
 30
0.0
 11
-149.305003758226
 21
14.196099463585353
 31
0.0
  0
LINE
  5
16E
330
17
100
AcDbEntity
  8
SubLayer
100
AcDbLine
 10
-149.305003758226
 20
14.196099463585353
 30
0.0
 11
-145.30744045014964
 21
14.335697450395356
 31
0.0
  0
LINE
  5
16F
330
17
100
AcDbEntity
  8
SubLayer
100
AcDbLine
 10
284.47444745993585
 20
29.34401168983158
 30
0.0
 11
284.33484947312587
 21
33.34157499790796
 31
0.0
  0
LINE
  5
170
330
17
100
AcDbEntity
  8
SubLayer
100
AcDbLine
 10
284.33484947312587
 20
33.34157499790796
 30
0.0
 11
280.3372861650495
 21
33.20197701109796
 31
0.0
  0
LINE
  5
171
330
17
100
AcDbEntity
  8
SubLayer
100
AcDbLine
 10
280.3372861650495
 20
33.20197701109796
 30
0.0
 11
280.47688415185945
 21
29.204413703021572
 31
0.0
  0
LINE
  5
172
330
17
100
AcDbEntity
  8
SubLayer
100
AcDbLine
 10
280.47688415185945
 20
29.204413703021572
 30
0.0
 11
284.47444745993585
 21
29.34401168983158
 31
0.0
  0
LINE
  5
173
330
17
100
AcDbEntity
  8
SubLayer
100
AcDbLine
 10
69.5835035048931
 20
21.839854570113467
 30
0.0
 11
69.4439055180831
 21
25.83741787818985
 31
0.0
  0
LINE
  5
174
330
17
100
AcDbEntity
  8
SubLayer
100
AcDbLine
 10
69.4439055180831
 20
25.83741787818985
 30
0.0
 11
65.4463422100067
 21
25.697819891379844
 31
0.0
  0
LINE
  5
175
330
17
100
AcDbEntity
  8
SubLayer
100
AcDbLine
 10
65.4463422100067
 20
25.697819891379844
 30
0.0
 11
65.58594019681671
 21
21.70025658330346
 31
0.0
  0
LINE
  5
176
330
17
100
AcDbEntity
  8
SubLayer
100
AcDbLine
 10
65.58594019681671
 20
21.70025658330346
 30
0.0
 11
69.5835035048931
 21
21.839854570113467
 31
0.0
  0
LINE
  5
177
330
17
100
AcDbEntity
  8
SubLayer
100
AcDbLine
 10
531.0842884905342
 20
5.451993383117112
 30
0.0
 11
531.3807641847686
 21
6.407033781596753
 31
0.0
  0
LINE
  5
178
330
17
100
AcDbEntity
  8
SubLayer
100
AcDbLine
 10
530.5005954372172
 20
2.628746477433955
 30
0.0
 11
530.6567265986386
 21
3.616482808867185
 31
0.0
  0
LINE
  5
179
330
17
100
AcDbEntity
  8
SubLayer
100
AcDbLine
 10
511.95214479888045
 20
11.275361046740228
 30
0.0
 11
512.2459770924991
 21
12.231218035639118
 31
0.0
  0
LINE
  5
17A
330
17
100
AcDbEntity
  8
SubLayer
100
AcDbLine
 10
510.60674557434317
 20
4.694432476180298
 30
0.0
 11
510.7365011383229
 21
5.685978488030633
 31
0.0
  0
LINE
  5
17B
330
17
100
AcDbEntity
  8
SubLayer
100
AcDbLine
 10
473.49710746240174
 20
22.281004019108497
 30
0.0
 11
473.781611757793
 21
23.239678784555014
 31
0.0
  0
LINE
  5
17C
330
17
100
AcDbEntity
  8
SubLayer
100
AcDbLine
 10
470.6589972388901
 20
7.227378885934023
 30
0.0
 11
470.75556038222754
 21
8.2227057464923
 31
0.0
  0
ENDSEC
  0
SECTION
  2
OBJECTS
  0
DICTIONARY
  5
A
330
0
100
AcDbDictionary
280
0
281
1
  3
ACAD_COLOR
350
B
  3
ACAD_GROUP
350
C
  3
ACAD_LAYOUT
350
D
  3
ACAD_MATERIAL
350
E
  3
ACAD_MLEADERSTYLE
350
F
  3
ACAD_MLINESTYLE
350
10
  3
ACAD_PLOTSETTINGS
350
11
  3
ACAD_PLOTSTYLENAME
350
12
  3
ACAD_SCALELIST
350
14
  3
ACAD_TABLESTYLE
350
15
  3
ACAD_VISUALSTYLE
350
16
  3
EZDXF_META
350
2D
  0
DICTIONARY
  5
B
330
A
100
AcDbDictionary
280
0
281
1
  0
DICTIONARY
  5
C
330
A
100
AcDbDictionary
280
0
281
1
  0
DICTIONARY
  5
D
330
A
100
AcDbDictionary
280
0
281
1
  3
Model
350
1A
  3
Layout1
350
1E
  0
DICTIONARY
  5
E
330
A
100
AcDbDictionary
280
0
281
1
  3
ByBlock
350
1F
  3
ByLayer
350
20
  3
Global
350
21
  0
DICTIONARY
  5
F
330
A
100
AcDbDictionary
280
0
281
1
  3
Standard
350
2C
  0
DICTIONARY
  5
10
330
A
100
AcDbDictionary
280
0
281
1
  3
Standard
350
22
  0
DICTIONARY
  5
11
330
A
100
AcDbDictionary
280
0
281
1
  0
ACDBDICTIONARYWDFLT
  5
12
330
A
100
AcDbDictionary
280
0
281
1
  3
Normal
350
13
100
AcDbDictionaryWithDefault
340
13
  0
ACDBPLACEHOLDER
  5
13
330
12
  0
DICTIONARY
  5
14
330
A
100
AcDbDictionary
280
0
281
1
  0
DICTIONARY
  5
15
330
A
100
AcDbDictionary
280
0
281
1
  0
DICTIONARY
  5
16
330
A
100
AcDbDictionary
280
0
281
1
  0
LAYOUT
  5
1A
330
D
100
AcDbPlotSettings
  1

  2
Adobe PDF
  4
A3
  6

 40
7.5
 41
20.0
 42
7.5
 43
20.0
 44
420.0
 45
297.0
 46
0.0
 47
0.0
 48
0.0
 49
0.0
140
0.0
141
0.0
142
1.0
143
1.0
 70
1024
 72
1
 73
0
 74
5
  7

 75
16
 76
0
 77
2
 78
300
147
1.0
148
0.0
149
0.0
100
AcDbLayout
  1
Model
 70
1
 71
0
 10
0.0
 20
0.0
 11
420.0
 21
297.0
 12
0.0
 22
0.0
 32
0.0
 14
1e+20
 24
1e+20
 34
1e+20
 15
-1e+20
 25
-1e+20
 35
-1e+20
146
0.0
 13
0.0
 23
0.0
 33
0.0
 16
1.0
 26
0.0
 36
0.0
 17
0.0
 27
1.0
 37
0.0
 76
1
330
17
  0
LAYOUT
  5
1E
330
D
100
AcDbPlotSettings
  1

  2
Adobe PDF
  4
A3
  6

 40
7.5
 41
20.0
 42
7.5
 43
20.0
 44
420.0
 45
297.0
 46
0.0
 47
0.0
 48
0.0
 49
0.0
140
0.0
141
0.0
142
1.0
143
1.0
 70
0
 72
1
 73
0
 74
5
  7

 75
16
 76
0
 77
2
 78
300
147
1.0
148
0.0
149
0.0
100
AcDbLayout
  1
Layout1
 70
1
 71
1
 10
0.0
 20
0.0
 11
420.0
 21
297.0
 12
0.0
 22
0.0
 32
0.0
 14
1e+20
 24
1e+20
 34
1e+20
 15
-1e+20
 25
-1e+20
 35
-1e+20
146
0.0
 13
0.0
 23
0.0
 33
0.0
 16
1.0
 26
0.0
 36
0.0
 17
0.0
 27
1.0
 37
0.0
 76
1
330
1B
  0
MATERIAL
  5
1F
102
{ACAD_REACTORS
330
E
102
}
330
E
100
AcDbMaterial
  1
ByBlock
  2

 70
0
 40
1.0
 71
1
 41
1.0
 91
-1023410177
 42
1.0
 72
1
  3

 73
1
 74
1
 75
1
 44
0.5
 73
0
 45
1.0
 46
1.0
 77
1
  4

 78
1
 79
1
170
1
 48
1.0
171
1
  6

172
1
173
1
174
1
140
1.0
141
1.0
175
1
  7

176
1
177
1
178
1
143
1.0
179
1
  8

270
1
271
1
272
1
145
1.0
146
1.0
273
1
  9

274
1
275
1
276
1
 42
1.0
 72
1
  3

 73
1
 74
1
 75
1
 94
63
  0
MATERIAL
  5
20
102
{ACAD_REACTORS
330
E
102
}
330
E
100
AcDbMaterial
  1
ByLayer
  2

 70
0
 40
1.0
 71
1
 41
1.0
 91
-1023410177
 42
1.0
 72
1
  3

 73
1
 74
1
 75
1
 44
0.5
 73
0
 45
1.0
 46
1.0
 77
1
  4

 78
1
 79
1
170
1
 48
1.0
171
1
  6

172
1
173
1
174
1
140
1.0
141
1.0
175
1
  7

176
1
177
1
178
1
143
1.0
179
1
  8

270
1
271
1
272
1
145
1.0
146
1.0
273
1
  9

274
1
275
1
276
1
 42
1.0
 72
1
  3

 73
1
 74
1
 75
1
 94
63
  0
MATERIAL
  5
21
102
{ACAD_REACTORS
330
E
102
}
330
E
100
AcDbMaterial
  1
Global
  2

 70
0
 40
1.0
 71
1
 41
1.0
 91
-1023410177
 42
1.0
 72
1
  3

 73
1
 74
1
 75
1
 44
0.5
 73
0
 45
1.0
 46
1.0
 77
1
  4

 78
1
 79
1
170
1
 48
1.0
171
1
  6

172
1
173
1
174
1
140
1.0
141
1.0
175
1
  7

176
1
177
1
178
1
143
1.0
179
1
  8

270
1
271
1
272
1
145
1.0
146
1.0
273
1
  9

274
1
275
1
276
1
 42
1.0
 72
1
  3

 73
1
 74
1
 75
1
 94
63
  0
MLINESTYLE
  5
22
102
{ACAD_REACTORS
330
10
102
}
330
10
100
AcDbMlineStyle
  2
Standard
 70
0
  3

 62
256
 51
90.0
 52
90.0
 71
2
 49
0.5
 62
256
  6
BYLAYER
 49
-0.5
 62
256
  6
BYLAYER
  0
MLEADERSTYLE
  5
2C
102
{ACAD_REACTORS
330
F
102
}
330
F
100
AcDbMLeaderStyle
179
2
170
2
171
1
172
0
 90
2
 40
0.0
 41
0.0
173
1
 91
-1056964608
 92
-2
290
1
 42
2.0
291
1
 43
8.0
  3
Standard
 44
4.0
300

342
29
174
1
175
1
176
0
178
1
 93
-1056964608
 45
4.0
292
0
297
0
 46
4.0
 94
-1056964608
 47
1.0
 49
1.0
140
1.0
294
1
141
0.0
177
0
142
1.0
295
0
296
0
143
3.75
271
0
272
9
273
9
  0
DICTIONARY
  5
2D
330
A
100
AcDbDictionary
281
1
  3
CREATED_BY_EZDXF
350
2E
  3
WRITTEN_BY_EZDXF
350
17F
  0
DICTIONARYVAR
  5
2E
330
2D
100
DictionaryVariables
280
0
  1
1.0.2 @ 2023-10-20T04:47:15.533195+00:00
  0
DICTIONARYVAR
  5
17F
330
2D
100
DictionaryVariables
280
0
  1
1.0.2 @ 2023-10-20T04:47:15.540171+00:00
  0
ENDSEC
  0
EOF
