  0
SECTION
  2
HEADER
  9
$ACADVER
  1
AC1027
  9
$ACADMAINTVER
 70
105
  9
$DWGCODEPAGE
  3
ANSI_1252
  9
$LASTSAVEDBY
  1
ezdxf
  9
$REQUIREDVERSIONS
160
0
  9
$INSBASE
 10
0.0
 20
0.0
 30
0.0
  9
$EXTMIN
 10
1e+20
 20
1e+20
 30
1e+20
  9
$EXTMAX
 10
-1e+20
 20
-1e+20
 30
-1e+20
  9
$LIMMIN
 10
0.0
 20
0.0
  9
$LIMMAX
 10
420.0
 20
297.0
  9
$ORTHOMODE
 70
0
  9
$REGENMODE
 70
1
  9
$FILLMODE
 70
1
  9
$QTEXTMODE
 70
0
  9
$MIRRTEXT
 70
1
  9
$LTSCALE
 40
1.0
  9
$ATTMODE
 70
1
  9
$TEXTSIZE
 40
2.5
  9
$TRACEWID
 40
1.0
  9
$TEXTSTYLE
  7
Standard
  9
$CLAYER
  8
0
  9
$CELTYPE
  6
ByLayer
  9
$CECOLOR
 62
256
  9
$CELTSCALE
 40
1.0
  9
$DISPSILH
 70
0
  9
$DIMSCALE
 40
1.0
  9
$DIMASZ
 40
2.5
  9
$DIMEXO
 40
0.625
  9
$DIMDLI
 40
3.75
  9
$DIMRND
 40
0.0
  9
$DIMDLE
 40
0.0
  9
$DIMEXE
 40
1.25
  9
$DIMTP
 40
0.0
  9
$DIMTM
 40
0.0
  9
$DIMTXT
 40
2.5
  9
$DIMCEN
 40
2.5
  9
$DIMTSZ
 40
0.0
  9
$DIMTOL
 70
0
  9
$DIMLIM
 70
0
  9
$DIMTIH
 70
0
  9
$DIMTOH
 70
0
  9
$DIMSE1
 70
0
  9
$DIMSE2
 70
0
  9
$DIMTAD
 70
1
  9
$DIMZIN
 70
8
  9
$DIMBLK
  1

  9
$DIMASO
 70
1
  9
$DIMSHO
 70
1
  9
$DIMPOST
  1

  9
$DIMAPOST
  1

  9
$DIMALT
 70
0
  9
$DIMALTD
 70
3
  9
$DIMALTF
 40
0.03937007874
  9
$DIMLFAC
 40
1.0
  9
$DIMTOFL
 70
1
  9
$DIMTVP
 40
0.0
  9
$DIMTIX
 70
0
  9
$DIMSOXD
 70
0
  9
$DIMSAH
 70
0
  9
$DIMBLK1
  1

  9
$DIMBLK2
  1

  9
$DIMSTYLE
  2
ISO-25
  9
$DIMCLRD
 70
0
  9
$DIMCLRE
 70
0
  9
$DIMCLRT
 70
0
  9
$DIMTFAC
 40
1.0
  9
$DIMGAP
 40
0.625
  9
$DIMJUST
 70
0
  9
$DIMSD1
 70
0
  9
$DIMSD2
 70
0
  9
$DIMTOLJ
 70
0
  9
$DIMTZIN
 70
8
  9
$DIMALTZ
 70
0
  9
$DIMALTTZ
 70
0
  9
$DIMUPT
 70
0
  9
$DIMDEC
 70
2
  9
$DIMTDEC
 70
2
  9
$DIMALTU
 70
2
  9
$DIMALTTD
 70
3
  9
$DIMTXSTY
  7
Standard
  9
$DIMAUNIT
 70
0
  9
$DIMADEC
 70
0
  9
$DIMALTRND
 40
0.0
  9
$DIMAZIN
 70
0
  9
$DIMDSEP
 70
44
  9
$DIMATFIT
 70
3
  9
$DIMFRAC
 70
0
  9
$DIMLDRBLK
  1

  9
$DIMLUNIT
 70
2
  9
$DIMLWD
 70
-2
  9
$DIMLWE
 70
-2
  9
$DIMTMOVE
 70
0
  9
$DIMFXL
 40
1.0
  9
$DIMFXLON
 70
0
  9
$DIMJOGANG
 40
0.785398163397
  9
$DIMTFILL
 70
0
  9
$DIMTFILLCLR
 70
0
  9
$DIMARCSYM
 70
0
  9
$DIMLTYPE
  6

  9
$DIMLTEX1
  6

  9
$DIMLTEX2
  6

  9
$DIMTXTDIRECTION
 70
0
  9
$LUNITS
 70
2
  9
$LUPREC
 70
4
  9
$SKETCHINC
 40
1.0
  9
$FILLETRAD
 40
10.0
  9
$AUNITS
 70
0
  9
$AUPREC
 70
2
  9
$MENU
  1
.
  9
$ELEVATION
 40
0.0
  9
$PELEVATION
 40
0.0
  9
$THICKNESS
 40
0.0
  9
$LIMCHECK
 70
0
  9
$CHAMFERA
 40
0.0
  9
$CHAMFERB
 40
0.0
  9
$CHAMFERC
 40
0.0
  9
$CHAMFERD
 40
0.0
  9
$SKPOLY
 70
0
  9
$TDCREATE
 40
2460238.574479167
  9
$TDUCREATE
 40
2458532.153996898
  9
$TDUPDATE
 40
2460238.574479167
  9
$TDUUPDATE
 40
2458532.1544311
  9
$TDINDWG
 40
0.0
  9
$TDUSRTIMER
 40
0.0
  9
$USRTIMER
 70
1
  9
$ANGBASE
 50
0.0
  9
$ANGDIR
 70
0
  9
$PDMODE
 70
0
  9
$PDSIZE
 40
0.0
  9
$PLINEWID
 40
0.0
  9
$SPLFRAME
 70
0
  9
$SPLINETYPE
 70
6
  9
$SPLINESEGS
 70
8
  9
$HANDSEED
  5
191
  9
$SURFTAB1
 70
6
  9
$SURFTAB2
 70
6
  9
$SURFTYPE
 70
6
  9
$SURFU
 70
6
  9
$SURFV
 70
6
  9
$UCSBASE
  2

  9
$UCSNAME
  2

  9
$UCSORG
 10
0.0
 20
0.0
 30
0.0
  9
$UCSXDIR
 10
1.0
 20
0.0
 30
0.0
  9
$UCSYDIR
 10
0.0
 20
1.0
 30
0.0
  9
$UCSORTHOREF
  2

  9
$UCSORTHOVIEW
 70
0
  9
$UCSORGTOP
 10
0.0
 20
0.0
 30
0.0
  9
$UCSORGBOTTOM
 10
0.0
 20
0.0
 30
0.0
  9
$UCSORGLEFT
 10
0.0
 20
0.0
 30
0.0
  9
$UCSORGRIGHT
 10
0.0
 20
0.0
 30
0.0
  9
$UCSORGFRONT
 10
0.0
 20
0.0
 30
0.0
  9
$UCSORGBACK
 10
0.0
 20
0.0
 30
0.0
  9
$PUCSBASE
  2

  9
$PUCSNAME
  2

  9
$PUCSORG
 10
0.0
 20
0.0
 30
0.0
  9
$PUCSXDIR
 10
1.0
 20
0.0
 30
0.0
  9
$PUCSYDIR
 10
0.0
 20
1.0
 30
0.0
  9
$PUCSORTHOREF
  2

  9
$PUCSORTHOVIEW
 70
0
  9
$PUCSORGTOP
 10
0.0
 20
0.0
 30
0.0
  9
$PUCSORGBOTTOM
 10
0.0
 20
0.0
 30
0.0
  9
$PUCSORGLEFT
 10
0.0
 20
0.0
 30
0.0
  9
$PUCSORGRIGHT
 10
0.0
 20
0.0
 30
0.0
  9
$PUCSORGFRONT
 10
0.0
 20
0.0
 30
0.0
  9
$PUCSORGBACK
 10
0.0
 20
0.0
 30
0.0
  9
$USERI1
 70
0
  9
$USERI2
 70
0
  9
$USERI3
 70
0
  9
$USERI4
 70
0
  9
$USERI5
 70
0
  9
$USERR1
 40
0.0
  9
$USERR2
 40
0.0
  9
$USERR3
 40
0.0
  9
$USERR4
 40
0.0
  9
$USERR5
 40
0.0
  9
$WORLDVIEW
 70
1
  9
$SHADEDGE
 70
3
  9
$SHADEDIF
 70
70
  9
$TILEMODE
 70
1
  9
$MAXACTVP
 70
64
  9
$PINSBASE
 10
0.0
 20
0.0
 30
0.0
  9
$PLIMCHECK
 70
0
  9
$PEXTMIN
 10
1e+20
 20
1e+20
 30
1e+20
  9
$PEXTMAX
 10
-1e+20
 20
-1e+20
 30
-1e+20
  9
$PLIMMIN
 10
0.0
 20
0.0
  9
$PLIMMAX
 10
420.0
 20
297.0
  9
$UNITMODE
 70
0
  9
$VISRETAIN
 70
1
  9
$PLINEGEN
 70
0
  9
$PSLTSCALE
 70
1
  9
$TREEDEPTH
 70
3020
  9
$CMLSTYLE
  2
Standard
  9
$CMLJUST
 70
0
  9
$CMLSCALE
 40
20.0
  9
$PROXYGRAPHICS
 70
1
  9
$MEASUREMENT
 70
1
  9
$CELWEIGHT
370
-1
  9
$ENDCAPS
280
0
  9
$JOINSTYLE
280
0
  9
$LWDISPLAY
290
0
  9
$INSUNITS
 70
6
  9
$HYPERLINKBASE
  1

  9
$STYLESHEET
  1

  9
$XEDIT
290
1
  9
$CEPSNTYPE
380
0
  9
$PSTYLEMODE
290
1
  9
$FINGERPRINTGUID
  2
{BD1FC163-E7F8-4151-84B4-6AB8753A3AD1}
  9
$VERSIONGUID
  2
{AF77C885-F7DF-4EC1-B680-98E7983C8655}
  9
$EXTNAMES
290
1
  9
$PSVPSCALE
 40
0.0
  9
$OLESTARTUP
290
0
  9
$SORTENTS
280
127
  9
$INDEXCTL
280
0
  9
$HIDETEXT
280
1
  9
$XCLIPFRAME
280
0
  9
$HALOGAP
280
0
  9
$OBSCOLOR
 70
257
  9
$OBSLTYPE
280
0
  9
$INTERSECTIONDISPLAY
280
0
  9
$INTERSECTIONCOLOR
 70
257
  9
$DIMASSOC
280
2
  9
$PROJECTNAME
  1

  9
$CAMERADISPLAY
290
0
  9
$LENSLENGTH
 40
50.0
  9
$CAMERAHEIGHT
 40
0.0
  9
$STEPSPERSEC
 40
24.0
  9
$STEPSIZE
 40
100.0
  9
$3DDWFPREC
 40
2.0
  9
$PSOLWIDTH
 40
0.005
  9
$PSOLHEIGHT
 40
0.08
  9
$LOFTANG1
 40
1.570796326795
  9
$LOFTANG2
 40
1.570796326795
  9
$LOFTMAG1
 40
0.0
  9
$LOFTMAG2
 40
0.0
  9
$LOFTPARAM
 70
7
  9
$LOFTNORMALS
280
1
  9
$LATITUDE
 40
37.795
  9
$LONGITUDE
 40
-122.394
  9
$NORTHDIRECTION
 40
0.0
  9
$TIMEZONE
 70
-8000
  9
$LIGHTGLYPHDISPLAY
280
1
  9
$TILEMODELIGHTSYNCH
280
1
  9
$CMATERIAL
347
20
  9
$SOLIDHIST
280
0
  9
$SHOWHIST
280
1
  9
$DWFFRAME
280
2
  9
$DGNFRAME
280
2
  9
$REALWORLDSCALE
290
1
  9
$INTERFERECOLOR
 62
256
  9
$CSHADOW
280
0
  9
$SHADOWPLANELOCATION
 40
0.0
  0
ENDSEC
  0
SECTION
  2
CLASSES
  0
CLASS
  1
ACDBDICTIONARYWDFLT
  2
AcDbDictionaryWithDefault
  3
ObjectDBX Classes
 90
0
 91
0
280
0
281
0
  0
CLASS
  1
SUN
  2
AcDbSun
  3
SCENEOE
 90
1153
 91
0
280
0
281
0
  0
CLASS
  1
VISUALSTYLE
  2
AcDbVisualStyle
  3
ObjectDBX Classes
 90
4095
 91
0
280
0
281
0
  0
CLASS
  1
MATERIAL
  2
AcDbMaterial
  3
ObjectDBX Classes
 90
1153
 91
0
280
0
281
0
  0
CLASS
  1
SCALE
  2
AcDbScale
  3
ObjectDBX Classes
 90
1153
 91
0
280
0
281
0
  0
CLASS
  1
TABLESTYLE
  2
AcDbTableStyle
  3
ObjectDBX Classes
 90
4095
 91
0
280
0
281
0
  0
CLASS
  1
MLEADERSTYLE
  2
AcDbMLeaderStyle
  3
ACDB_MLEADERSTYLE_CLASS
 90
4095
 91
0
280
0
281
0
  0
CLASS
  1
DICTIONARYVAR
  2
AcDbDictionaryVar
  3
ObjectDBX Classes
 90
0
 91
0
280
0
281
0
  0
CLASS
  1
CELLSTYLEMAP
  2
AcDbCellStyleMap
  3
ObjectDBX Classes
 90
1152
 91
0
280
0
281
0
  0
CLASS
  1
MENTALRAYRENDERSETTINGS
  2
AcDbMentalRayRenderSettings
  3
SCENEOE
 90
1024
 91
0
280
0
281
0
  0
CLASS
  1
ACDBDETAILVIEWSTYLE
  2
AcDbDetailViewStyle
  3
ObjectDBX Classes
 90
1025
 91
0
280
0
281
0
  0
CLASS
  1
ACDBSECTIONVIEWSTYLE
  2
AcDbSectionViewStyle
  3
ObjectDBX Classes
 90
1025
 91
0
280
0
281
0
  0
CLASS
  1
RASTERVARIABLES
  2
AcDbRasterVariables
  3
ISM
 90
0
 91
0
280
0
281
0
  0
CLASS
  1
ACDBPLACEHOLDER
  2
AcDbPlaceHolder
  3
ObjectDBX Classes
 90
0
 91
0
280
0
281
0
  0
CLASS
  1
LAYOUT
  2
AcDbLayout
  3
ObjectDBX Classes
 90
0
 91
0
280
0
281
0
  0
ENDSEC
  0
SECTION
  2
TABLES
  0
TABLE
  2
VPORT
  5
8
330
0
100
AcDbSymbolTable
 70
1
  0
VPORT
  5
23
330
8
100
AcDbSymbolTableRecord
100
AcDbViewportTableRecord
  2
*Active
 70
0
 10
0.0
 20
0.0
 11
1.0
 21
1.0
 12
0.0
 22
0.0
 13
0.0
 23
0.0
 14
0.5
 24
0.5
 15
0.5
 25
0.5
 16
0.0
 26
0.0
 36
1.0
 17
0.0
 27
0.0
 37
0.0
 40
1000.0
 41
1.34
 42
50.0
 43
0.0
 44
0.0
 50
0.0
 51
0.0
 71
0
 72
1000
 73
1
 74
3
 75
0
 76
0
 77
0
 78
0
281
0
 65
0
146
0.0
  0
ENDTAB
  0
TABLE
  2
LTYPE
  5
2
330
0
100
AcDbSymbolTable
 70
3
  0
LTYPE
  5
24
330
2
100
AcDbSymbolTableRecord
100
AcDbLinetypeTableRecord
  2
ByBlock
 70
0
  3

 72
65
 73
0
 40
0.0
  0
LTYPE
  5
25
330
2
100
AcDbSymbolTableRecord
100
AcDbLinetypeTableRecord
  2
ByLayer
 70
0
  3

 72
65
 73
0
 40
0.0
  0
LTYPE
  5
26
330
2
100
AcDbSymbolTableRecord
100
AcDbLinetypeTableRecord
  2
Continuous
 70
0
  3

 72
65
 73
0
 40
0.0
  0
ENDTAB
  0
TABLE
  2
LAYER
  5
1
330
0
100
AcDbSymbolTable
 70
5
  0
LAYER
  5
27
330
1
100
AcDbSymbolTableRecord
100
AcDbLayerTableRecord
  2
0
 70
0
 62
7
  6
Continuous
370
-3
390
13
347
21
  0
LAYER
  5
28
330
1
100
AcDbSymbolTableRecord
100
AcDbLayerTableRecord
  2
Defpoints
 70
0
 62
7
  6
Continuous
290
0
370
-3
390
13
347
21
  0
LAYER
  5
30
330
1
100
AcDbSymbolTableRecord
100
AcDbLayerTableRecord
  2
FoilLayer
 70
0
 62
1
  6
Continuous
370
50
390
13
347
21
  0
LAYER
  5
31
330
1
100
AcDbSymbolTableRecord
100
AcDbLayerTableRecord
  2
StringerLayer
 70
0
 62
1
  6
Continuous
370
50
390
13
347
21
  0
LAYER
  5
32
330
1
100
AcDbSymbolTableRecord
100
AcDbLayerTableRecord
  2
SubLayer
 70
0
 62
1
  6
Continuous
370
50
390
13
347
21
  0
ENDTAB
  0
TABLE
  2
STYLE
  5
5
330
0
100
AcDbSymbolTable
 70
2
  0
STYLE
  5
29
330
5
100
AcDbSymbolTableRecord
100
AcDbTextStyleTableRecord
  2
Standard
 70
0
 40
0.0
 41
1.0
 50
0.0
 71
0
 42
2.5
  3
txt
  4

  0
STYLE
  5
2F
330
5
100
AcDbSymbolTableRecord
100
AcDbTextStyleTableRecord
  2
MSゴシック
 70
0
 40
0.0
 41
1.0
 50
0.0
 71
0
 42
2.5
  3
romans
  4

  0
ENDTAB
  0
TABLE
  2
VIEW
  5
7
330
0
100
AcDbSymbolTable
 70
0
  0
ENDTAB
  0
TABLE
  2
UCS
  5
6
330
0
100
AcDbSymbolTable
 70
0
  0
ENDTAB
  0
TABLE
  2
APPID
  5
3
330
0
100
AcDbSymbolTable
 70
3
  0
APPID
  5
2A
330
3
100
AcDbSymbolTableRecord
100
AcDbRegAppTableRecord
  2
ACAD
 70
0
  0
APPID
  5
18E
330
3
100
AcDbSymbolTableRecord
100
AcDbRegAppTableRecord
  2
HATCHBACKGROUNDCOLOR
 70
0
  0
APPID
  5
18F
330
3
100
AcDbSymbolTableRecord
100
AcDbRegAppTableRecord
  2
EZDXF
 70
0
  0
ENDTAB
  0
TABLE
  2
DIMSTYLE
  5
4
330
0
100
AcDbSymbolTable
 70
1
100
AcDbDimStyleTable
  0
DIMSTYLE
105
2B
330
4
100
AcDbSymbolTableRecord
100
AcDbDimStyleTableRecord
  2
Standard
 70
0
 40
1.0
 41
2.5
 42
0.625
 43
3.75
 44
1.25
 45
0.0
 46
0.0
 47
0.0
 48
0.0
 49
2.5
140
2.5
141
2.5
142
0.0
143
0.03937007874
144
1.0
145
0.0
146
1.0
147
0.625
148
0.0
 69
0
 70
0
 71
0
 72
0
 73
0
 74
0
 75
0
 76
0
 77
1
 78
8
 79
3
170
0
171
3
172
1
173
0
174
0
175
0
176
0
177
0
178
0
179
2
271
2
272
2
273
2
274
3
275
0
276
0
277
2
278
44
279
0
280
0
281
0
282
0
283
0
284
8
285
0
286
0
288
0
289
3
290
0
371
-2
372
-2
  0
ENDTAB
  0
TABLE
  2
BLOCK_RECORD
  5
9
330
0
100
AcDbSymbolTable
 70
2
  0
BLOCK_RECORD
  5
17
330
9
100
AcDbSymbolTableRecord
100
AcDbBlockTableRecord
  2
*Model_Space
340
1A
 70
0
280
1
281
0
  0
BLOCK_RECORD
  5
1B
330
9
100
AcDbSymbolTableRecord
100
AcDbBlockTableRecord
  2
*Paper_Space
340
1E
 70
0
280
1
281
0
  0
ENDTAB
  0
ENDSEC
  0
SECTION
  2
BLOCKS
  0
BLOCK
  5
18
330
17
100
AcDbEntity
  8
0
100
AcDbBlockBegin
  2
*Model_Space
 70
0
 10
0.0
 20
0.0
 30
0.0
  3
*Model_Space
  1

  0
ENDBLK
  5
19
330
17
100
AcDbEntity
  8
0
100
AcDbBlockEnd
  0
BLOCK
  5
1C
330
1B
100
AcDbEntity
  8
0
100
AcDbBlockBegin
  2
*Paper_Space
 70
0
 10
0.0
 20
0.0
 30
0.0
  3
*Paper_Space
  1

  0
ENDBLK
  5
1D
330
1B
100
AcDbEntity
  8
0
100
AcDbBlockEnd
  0
ENDSEC
  0
SECTION
  2
ENTITIES
  0
LINE
  5
33
330
17
100
AcDbEntity
  8
FoilLayer
100
AcDbLine
 10
523.1013423092072
 20
-0.38448505294569324
 30
0.0
 11
522.9445274936613
 21
-0.329576747761127
 31
0.0
  0
LINE
  5
34
330
17
100
AcDbEntity
  8
FoilLayer
100
AcDbLine
 10
522.9445274936613
 20
-0.329576747761127
 30
0.0
 11
522.4649708941354
 21
-0.16698750067771023
 31
0.0
  0
LINE
  5
35
330
17
100
AcDbEntity
  8
FoilLayer
100
AcDbLine
 10
522.4649708941354
 20
-0.16698750067771023
 30
0.0
 11
521.7090907492252
 21
0.09837561620805596
 31
0.0
  0
LINE
  5
36
330
17
100
AcDbEntity
  8
FoilLayer
100
AcDbLine
 10
521.7090907492252
 20
0.09837561620805596
 30
0.0
 11
520.6718076654502
 21
0.46022044520695454
 31
0.0
  0
LINE
  5
37
330
17
100
AcDbEntity
  8
FoilLayer
100
AcDbLine
 10
520.6718076654502
 20
0.46022044520695454
 30
0.0
 11
519.3684630412142
 21
0.9107601578886211
 31
0.0
  0
LINE
  5
38
330
17
100
AcDbEntity
  8
FoilLayer
100
AcDbLine
 10
519.3684630412142
 20
0.9107601578886211
 30
0.0
 11
517.8014564763075
 21
1.449177747660278
 31
0.0
  0
LINE
  5
39
330
17
100
AcDbEntity
  8
FoilLayer
100
AcDbLine
 10
517.8014564763075
 20
1.449177747660278
 30
0.0
 11
515.9832337717037
 21
2.0606171415082564
 31
0.0
  0
LINE
  5
3A
330
17
100
AcDbEntity
  8
FoilLayer
100
AcDbLine
 10
515.9832337717037
 20
2.0606171415082564
 30
0.0
 11
513.9062714628344
 21
2.7529379111313457
 31
0.0
  0
LINE
  5
3B
330
17
100
AcDbEntity
  8
FoilLayer
100
AcDbLine
 10
513.9062714628344
 20
2.7529379111313457
 30
0.0
 11
511.5914419089076
 21
3.5245649562751593
 31
0.0
  0
LINE
  5
3C
330
17
100
AcDbEntity
  8
FoilLayer
100
AcDbLine
 10
511.5914419089076
 20
3.5245649562751593
 30
0.0
 11
509.032264102645
 21
4.3534818615051964
 31
0.0
  0
LINE
  5
3D
330
17
100
AcDbEntity
  8
FoilLayer
100
AcDbLine
 10
509.032264102645
 20
4.3534818615051964
 30
0.0
 11
506.23351491568525
 21
5.254238341209031
 31
0.0
  0
LINE
  5
3E
330
17
100
AcDbEntity
  8
FoilLayer
100
AcDbLine
 10
506.23351491568525
 20
5.254238341209031
 30
0.0
 11
503.19257164341406
 21
6.211577696451354
 31
0.0
  0
LINE
  5
3F
330
17
100
AcDbEntity
  8
FoilLayer
100
AcDbLine
 10
503.19257164341406
 20
6.211577696451354
 30
0.0
 11
499.91728049413763
 21
7.225551600268701
 31
0.0
  0
LINE
  5
40
330
17
100
AcDbEntity
  8
FoilLayer
100
AcDbLine
 10
499.91728049413763
 20
7.225551600268701
 30
0.0
 11
496.4006680018097
 21
8.30387442689288
 31
0.0
  0
LINE
  5
41
330
17
100
AcDbEntity
  8
FoilLayer
100
AcDbLine
 10
496.4006680018097
 20
8.30387442689288
 30
0.0
 11
492.65930201729856
 21
9.438358190350923
 31
0.0
  0
LINE
  5
42
330
17
100
AcDbEntity
  8
FoilLayer
100
AcDbLine
 10
492.65930201729856
 20
9.438358190350923
 30
0.0
 11
488.6915593704844
 21
10.62143897000173
 31
0.0
  0
LINE
  5
43
330
17
100
AcDbEntity
  8
FoilLayer
100
AcDbLine
 10
488.6915593704844
 20
10.62143897000173
 30
0.0
 11
484.4990319058766
 21
11.860692350073084
 31
0.0
  0
LINE
  5
44
330
17
100
AcDbEntity
  8
FoilLayer
100
AcDbLine
 10
484.4990319058766
 20
11.860692350073084
 30
0.0
 11
480.0809424408523
 21
13.148298633675736
 31
0.0
  0
LINE
  5
45
330
17
100
AcDbEntity
  8
FoilLayer
100
AcDbLine
 10
480.0809424408523
 20
13.148298633675736
 30
0.0
 11
475.4371234038817
 21
14.484303744071166
 31
0.0
  0
LINE
  5
46
330
17
100
AcDbEntity
  8
FoilLayer
100
AcDbLine
 10
475.4371234038817
 20
14.484303744071166
 30
0.0
 11
470.57458009797796
 21
15.869001555371467
 31
0.0
  0
LINE
  5
47
330
17
100
AcDbEntity
  8
FoilLayer
100
AcDbLine
 10
470.57458009797796
 20
15.869001555371467
 30
0.0
 11
465.49574140280816
 21
17.317799579025557
 31
0.0
  0
LINE
  5
48
330
17
100
AcDbEntity
  8
FoilLayer
100
AcDbLine
 10
465.49574140280816
 20
17.317799579025557
 30
0.0
 11
460.2060236505269
 21
18.815345871503126
 31
0.0
  0
LINE
  5
49
330
17
100
AcDbEntity
  8
FoilLayer
100
AcDbLine
 10
460.2060236505269
 20
18.815345871503126
 30
0.0
 11
454.72485329849866
 21
20.376796642406024
 31
0.0
  0
LINE
  5
4A
330
17
100
AcDbEntity
  8
FoilLayer
100
AcDbLine
 10
454.72485329849866
 20
20.376796642406024
 30
0.0
 11
449.04946421283233
 21
21.978785903259574
 31
0.0
  0
LINE
  5
4B
330
17
100
AcDbEntity
  8
FoilLayer
100
AcDbLine
 10
449.04946421283233
 20
21.978785903259574
 30
0.0
 11
443.1728989961052
 21
23.637104322263347
 31
0.0
  0
LINE
  5
4C
330
17
100
AcDbEntity
  8
FoilLayer
100
AcDbLine
 10
443.1728989961052
 20
23.637104322263347
 30
0.0
 11
437.118703945753
 21
25.343872288885017
 31
0.0
  0
LINE
  5
4D
330
17
100
AcDbEntity
  8
FoilLayer
100
AcDbLine
 10
437.118703945753
 20
25.343872288885017
 30
0.0
 11
430.8881498258865
 21
27.106781150831704
 31
0.0
  0
LINE
  5
4E
330
17
100
AcDbEntity
  8
FoilLayer
100
AcDbLine
 10
430.8881498258865
 20
27.106781150831704
 30
0.0
 11
424.49608182141066
 21
28.910085009454416
 31
0.0
  0
LINE
  5
4F
330
17
100
AcDbEntity
  8
FoilLayer
100
AcDbLine
 10
424.49608182141066
 20
28.910085009454416
 30
0.0
 11
417.9439797831321
 21
30.761416838916855
 31
0.0
  0
LINE
  5
50
330
17
100
AcDbEntity
  8
FoilLayer
100
AcDbLine
 10
417.9439797831321
 20
30.761416838916855
 30
0.0
 11
411.23036604911573
 21
32.645092737800134
 31
0.0
  0
LINE
  5
51
330
17
100
AcDbEntity
  8
FoilLayer
100
AcDbLine
 10
411.23036604911573
 20
32.645092737800134
 30
0.0
 11
404.35534797883776
 21
34.56913176834304
 31
0.0
  0
LINE
  5
52
330
17
100
AcDbEntity
  8
FoilLayer
100
AcDbLine
 10
404.35534797883776
 20
34.56913176834304
 30
0.0
 11
397.3433531318728
 21
36.53345645521914
 31
0.0
  0
LINE
  5
53
330
17
100
AcDbEntity
  8
FoilLayer
100
AcDbLine
 10
397.3433531318728
 20
36.53345645521914
 30
0.0
 11
390.203328299299
 21
38.537815535812854
 31
0.0
  0
LINE
  5
54
330
17
100
AcDbEntity
  8
FoilLayer
100
AcDbLine
 10
390.203328299299
 20
38.537815535812854
 30
0.0
 11
382.9430933180184
 21
40.56617532494288
 31
0.0
  0
LINE
  5
55
330
17
100
AcDbEntity
  8
FoilLayer
100
AcDbLine
 10
382.9430933180184
 20
40.56617532494288
 30
0.0
 11
375.5534685534988
 21
42.61079947685832
 31
0.0
  0
LINE
  5
56
330
17
100
AcDbEntity
  8
FoilLayer
100
AcDbLine
 10
375.5534685534988
 20
42.61079947685832
 30
0.0
 11
368.0429580116599
 21
44.67961122729587
 31
0.0
  0
LINE
  5
57
330
17
100
AcDbEntity
  8
FoilLayer
100
AcDbLine
 10
368.0429580116599
 20
44.67961122729587
 30
0.0
 11
360.4195032859341
 21
46.772639998916326
 31
0.0
  0
LINE
  5
58
330
17
100
AcDbEntity
  8
FoilLayer
100
AcDbLine
 10
360.4195032859341
 20
46.772639998916326
 30
0.0
 11
352.699744895723
 21
48.889737672903244
 31
0.0
  0
LINE
  5
59
330
17
100
AcDbEntity
  8
FoilLayer
100
AcDbLine
 10
352.699744895723
 20
48.889737672903244
 30
0.0
 11
344.8929646630965
 21
51.02252255997184
 31
0.0
  0
LINE
  5
5A
330
17
100
AcDbEntity
  8
FoilLayer
100
AcDbLine
 10
344.8929646630965
 20
51.02252255997184
 30
0.0
 11
337.004937025948
 21
53.13941341097933
 31
0.0
  0
LINE
  5
5B
330
17
100
AcDbEntity
  8
FoilLayer
100
AcDbLine
 10
337.004937025948
 20
53.13941341097933
 30
0.0
 11
329.0283327799893
 21
55.25631414570466
 31
0.0
  0
LINE
  5
5C
330
17
100
AcDbEntity
  8
FoilLayer
100
AcDbLine
 10
329.0283327799893
 20
55.25631414570466
 30
0.0
 11
321.8857560026859
 21
57.131062341743366
 31
0.0
  0
LINE
  5
5D
330
17
100
AcDbEntity
  8
FoilLayer
100
AcDbLine
 10
321.8857560026859
 20
57.131062341743366
 30
0.0
 11
321.4922489008267
 21
55.63184515908226
 31
0.0
  0
LINE
  5
5E
330
17
100
AcDbEntity
  8
FoilLayer
100
AcDbLine
 10
321.4922489008267
 20
55.63184515908226
 30
0.0
 11
320.5758409568836
 21
55.872394319653516
 31
0.0
  0
LINE
  5
5F
330
17
100
AcDbEntity
  8
FoilLayer
100
AcDbLine
 10
320.5758409568836
 20
55.872394319653516
 30
0.0
 11
312.4523598810811
 21
57.97164503444904
 31
0.0
  0
LINE
  5
60
330
17
100
AcDbEntity
  8
FoilLayer
100
AcDbLine
 10
312.4523598810811
 20
57.97164503444904
 30
0.0
 11
304.26616385758444
 21
60.054402539577566
 31
0.0
  0
LINE
  5
61
330
17
100
AcDbEntity
  8
FoilLayer
100
AcDbLine
 10
304.26616385758444
 20
60.054402539577566
 30
0.0
 11
296.01632363673133
 21
62.11286796605003
 31
0.0
  0
LINE
  5
62
330
17
100
AcDbEntity
  8
FoilLayer
100
AcDbLine
 10
296.01632363673133
 20
62.11286796605003
 30
0.0
 11
287.68414230046045
 21
64.14767429202185
 31
0.0
  0
LINE
  5
63
330
17
100
AcDbEntity
  8
FoilLayer
100
AcDbLine
 10
287.68414230046045
 20
64.14767429202185
 30
0.0
 11
279.30007476332247
 21
66.15921179813968
 31
0.0
  0
LINE
  5
64
330
17
100
AcDbEntity
  8
FoilLayer
100
AcDbLine
 10
279.30007476332247
 20
66.15921179813968
 30
0.0
 11
270.8734514479315
 21
68.16136617797149
 31
0.0
  0
LINE
  5
65
330
17
100
AcDbEntity
  8
FoilLayer
100
AcDbLine
 10
270.8734514479315
 20
68.16136617797149
 30
0.0
 11
262.4244167165535
 21
70.12293020768631
 31
0.0
  0
LINE
  5
66
330
17
100
AcDbEntity
  8
FoilLayer
100
AcDbLine
 10
262.4244167165535
 20
70.12293020768631
 30
0.0
 11
253.95336127912725
 21
72.03580113147783
 31
0.0
  0
LINE
  5
67
330
17
100
AcDbEntity
  8
FoilLayer
100
AcDbLine
 10
253.95336127912725
 20
72.03580113147783
 30
0.0
 11
245.45572908185835
 21
73.89124623182697
 31
0.0
  0
LINE
  5
68
330
17
100
AcDbEntity
  8
FoilLayer
100
AcDbLine
 10
245.45572908185835
 20
73.89124623182697
 30
0.0
 11
236.9128366131252
 21
75.66738809183329
 31
0.0
  0
LINE
  5
69
330
17
100
AcDbEntity
  8
FoilLayer
100
AcDbLine
 10
236.9128366131252
 20
75.66738809183329
 30
0.0
 11
228.32052409161133
 21
77.38750565825197
 31
0.0
  0
LINE
  5
6A
330
17
100
AcDbEntity
  8
FoilLayer
100
AcDbLine
 10
228.32052409161133
 20
77.38750565825197
 30
0.0
 11
219.70646079226356
 21
79.0509213629055
 31
0.0
  0
LINE
  5
6B
330
17
100
AcDbEntity
  8
FoilLayer
100
AcDbLine
 10
219.70646079226356
 20
79.0509213629055
 30
0.0
 11
211.05290280997338
 21
80.6499329658294
 31
0.0
  0
LINE
  5
6C
330
17
100
AcDbEntity
  8
FoilLayer
100
AcDbLine
 10
211.05290280997338
 20
80.6499329658294
 30
0.0
 11
202.38384984693135
 21
82.1765345128527
 31
0.0
  0
LINE
  5
6D
330
17
100
AcDbEntity
  8
FoilLayer
100
AcDbLine
 10
202.38384984693135
 20
82.1765345128527
 30
0.0
 11
193.68226317706092
 21
83.63088996208202
 31
0.0
  0
LINE
  5
6E
330
17
100
AcDbEntity
  8
FoilLayer
100
AcDbLine
 10
193.68226317706092
 20
83.63088996208202
 30
0.0
 11
184.95676658748226
 21
85.01290411261932
 31
0.0
  0
LINE
  5
6F
330
17
100
AcDbEntity
  8
FoilLayer
100
AcDbLine
 10
184.95676658748226
 20
85.01290411261932
 30
0.0
 11
176.19850915487064
 21
86.3226954996768
 31
0.0
  0
LINE
  5
70
330
17
100
AcDbEntity
  8
FoilLayer
100
AcDbLine
 10
176.19850915487064
 20
86.3226954996768
 30
0.0
 11
167.42391271591487
 21
87.56020664913761
 31
0.0
  0
LINE
  5
71
330
17
100
AcDbEntity
  8
FoilLayer
100
AcDbLine
 10
167.42391271591487
 20
87.56020664913761
 30
0.0
 11
158.6415113441662
 21
88.7253709651053
 31
0.0
  0
LINE
  5
72
330
17
100
AcDbEntity
  8
FoilLayer
100
AcDbLine
 10
158.6415113441662
 20
88.7253709651053
 30
0.0
 11
149.84279327447302
 21
89.81824765190777
 31
0.0
  0
LINE
  5
73
330
17
100
AcDbEntity
  8
FoilLayer
100
AcDbLine
 10
149.84279327447302
 20
89.81824765190777
 30
0.0
 11
141.0396266631568
 21
90.83842348438804
 31
0.0
  0
LINE
  5
74
330
17
100
AcDbEntity
  8
FoilLayer
100
AcDbLine
 10
141.0396266631568
 20
90.83842348438804
 30
0.0
 11
132.22484413085715
 21
91.77059221386067
 31
0.0
  0
LINE
  5
75
330
17
100
AcDbEntity
  8
FoilLayer
100
AcDbLine
 10
132.22484413085715
 20
91.77059221386067
 30
0.0
 11
123.40006056810455
 21
92.63061897806806
 31
0.0
  0
LINE
  5
76
330
17
100
AcDbEntity
  8
FoilLayer
100
AcDbLine
 10
123.40006056810455
 20
92.63061897806806
 30
0.0
 11
114.57876539944579
 21
93.42606240327075
 31
0.0
  0
LINE
  5
77
330
17
100
AcDbEntity
  8
FoilLayer
100
AcDbLine
 10
114.57876539944579
 20
93.42606240327075
 30
0.0
 11
105.76197157618776
 21
94.14142377182594
 31
0.0
  0
LINE
  5
78
330
17
100
AcDbEntity
  8
FoilLayer
100
AcDbLine
 10
105.76197157618776
 20
94.14142377182594
 30
0.0
 11
96.95667067672724
 21
94.79225998337473
 31
0.0
  0
LINE
  5
79
330
17
100
AcDbEntity
  8
FoilLayer
100
AcDbLine
 10
96.95667067672724
 20
94.79225998337473
 30
0.0
 11
88.1757514807419
 21
95.36273963101824
 31
0.0
  0
LINE
  5
7A
330
17
100
AcDbEntity
  8
FoilLayer
100
AcDbLine
 10
88.1757514807419
 20
95.36273963101824
 30
0.0
 11
79.41102626837926
 21
95.85287515164063
 31
0.0
  0
LINE
  5
7B
330
17
100
AcDbEntity
  8
FoilLayer
100
AcDbLine
 10
79.41102626837926
 20
95.85287515164063
 30
0.0
 11
70.66058435325647
 21
96.2627418424087
 31
0.0
  0
LINE
  5
7C
330
17
100
AcDbEntity
  8
FoilLayer
100
AcDbLine
 10
70.66058435325647
 20
96.2627418424087
 30
0.0
 11
61.93434254846437
 21
96.60028752621359
 31
0.0
  0
LINE
  5
7D
330
17
100
AcDbEntity
  8
FoilLayer
100
AcDbLine
 10
61.93434254846437
 20
96.60028752621359
 30
0.0
 11
53.2403524776509
 21
96.86551327044143
 31
0.0
  0
LINE
  5
7E
330
17
100
AcDbEntity
  8
FoilLayer
100
AcDbLine
 10
53.2403524776509
 20
96.86551327044143
 30
0.0
 11
44.59677400500209
 21
97.05839228071827
 31
0.0
  0
LINE
  5
7F
330
17
100
AcDbEntity
  8
FoilLayer
100
AcDbLine
 10
44.59677400500209
 20
97.05839228071827
 30
0.0
 11
35.98552764827002
 21
97.17093920771889
 31
0.0
  0
LINE
  5
80
330
17
100
AcDbEntity
  8
FoilLayer
100
AcDbLine
 10
35.98552764827002
 20
97.17093920771889
 30
0.0
 11
27.424657228844353
 21
97.20316953807057
 31
0.0
  0
LINE
  5
81
330
17
100
AcDbEntity
  8
FoilLayer
100
AcDbLine
 10
27.424657228844353
 20
97.20316953807057
 30
0.0
 11
18.890524588137737
 21
97.14697614180551
 31
0.0
  0
LINE
  5
82
330
17
100
AcDbEntity
  8
FoilLayer
100
AcDbLine
 10
18.890524588137737
 20
97.14697614180551
 30
0.0
 11
10.40494588892301
 21
97.0265022582813
 31
0.0
  0
LINE
  5
83
330
17
100
AcDbEntity
  8
FoilLayer
100
AcDbLine
 10
10.40494588892301
 20
97.0265022582813
 30
0.0
 11
1.9877789634562077
 21
96.84186937705849
 31
0.0
  0
LINE
  5
84
330
17
100
AcDbEntity
  8
FoilLayer
100
AcDbLine
 10
1.9877789634562077
 20
96.84186937705849
 30
0.0
 11
-6.374484399099572
 21
96.57686470886624
 31
0.0
  0
LINE
  5
85
330
17
100
AcDbEntity
  8
FoilLayer
100
AcDbLine
 10
-6.374484399099572
 20
96.57686470886624
 30
0.0
 11
-14.65231292782073
 21
96.23977061340118
 31
0.0
  0
LINE
  5
86
330
17
100
AcDbEntity
  8
FoilLayer
100
AcDbLine
 10
-14.65231292782073
 20
96.23977061340118
 30
0.0
 11
-22.877316832182373
 21
95.81414782777809
 31
0.0
  0
LINE
  5
87
330
17
100
AcDbEntity
  8
FoilLayer
100
AcDbLine
 10
-22.877316832182373
 20
95.81414782777809
 30
0.0
 11
-31.037657980341976
 21
95.31626225711952
 31
0.0
  0
LINE
  5
88
330
17
100
AcDbEntity
  8
FoilLayer
100
AcDbLine
 10
-31.037657980341976
 20
95.31626225711952
 30
0.0
 11
-39.13484604136681
 21
94.7460013950265
 31
0.0
  0
LINE
  5
89
330
17
100
AcDbEntity
  8
FoilLayer
100
AcDbLine
 10
-39.13484604136681
 20
94.7460013950265
 30
0.0
 11
-47.14295237433166
 21
94.11153904542493
 31
0.0
  0
LINE
  5
8A
330
17
100
AcDbEntity
  8
FoilLayer
100
AcDbLine
 10
-47.14295237433166
 20
94.11153904542493
 30
0.0
 11
-55.050206737915744
 21
93.41325696572798
 31
0.0
  0
LINE
  5
8B
330
17
100
AcDbEntity
  8
FoilLayer
100
AcDbLine
 10
-55.050206737915744
 20
93.41325696572798
 30
0.0
 11
-62.86666687420825
 21
92.63497318068688
 31
0.0
  0
LINE
  5
8C
330
17
100
AcDbEntity
  8
FoilLayer
100
AcDbLine
 10
-62.86666687420825
 20
92.63497318068688
 30
0.0
 11
-70.60811483632881
 21
91.76776593971182
 31
0.0
  0
LINE
  5
8D
330
17
100
AcDbEntity
  8
FoilLayer
100
AcDbLine
 10
-70.60811483632881
 20
91.76776593971182
 30
0.0
 11
-78.2603625617723
 21
90.83642623041574
 31
0.0
  0
LINE
  5
8E
330
17
100
AcDbEntity
  8
FoilLayer
100
AcDbLine
 10
-78.2603625617723
 20
90.83642623041574
 30
0.0
 11
-85.81557978407875
 21
89.84094306244175
 31
0.0
  0
LINE
  5
8F
330
17
100
AcDbEntity
  8
FoilLayer
100
AcDbLine
 10
-85.81557978407875
 20
89.84094306244175
 30
0.0
 11
-93.275225839543
 21
88.78110828622734
 31
0.0
  0
LINE
  5
90
330
17
100
AcDbEntity
  8
FoilLayer
100
AcDbLine
 10
-93.275225839543
 20
88.78110828622734
 30
0.0
 11
-100.61704555785494
 21
87.66594478081284
 31
0.0
  0
LINE
  5
91
330
17
100
AcDbEntity
  8
FoilLayer
100
AcDbLine
 10
-100.61704555785494
 20
87.66594478081284
 30
0.0
 11
-107.83820920142261
 21
86.47861539733249
 31
0.0
  0
LINE
  5
92
330
17
100
AcDbEntity
  8
FoilLayer
100
AcDbLine
 10
-107.83820920142261
 20
86.47861539733249
 30
0.0
 11
-114.95633676772266
 21
85.21883087506131
 31
0.0
  0
LINE
  5
93
330
17
100
AcDbEntity
  8
FoilLayer
100
AcDbLine
 10
-114.95633676772266
 20
85.21883087506131
 30
0.0
 11
-121.96840287644923
 21
83.89519281269497
 31
0.0
  0
LINE
  5
94
330
17
100
AcDbEntity
  8
FoilLayer
100
AcDbLine
 10
-121.96840287644923
 20
83.89519281269497
 30
0.0
 11
-128.86126713417408
 21
82.50712300358322
 31
0.0
  0
LINE
  5
95
330
17
100
AcDbEntity
  8
FoilLayer
100
AcDbLine
 10
-128.86126713417408
 20
82.50712300358322
 30
0.0
 11
-135.63447828473633
 21
81.06271960967305
 31
0.0
  0
LINE
  5
96
330
17
100
AcDbEntity
  8
FoilLayer
100
AcDbLine
 10
-135.63447828473633
 20
81.06271960967305
 30
0.0
 11
-142.2748638748633
 21
79.57121041672848
 31
0.0
  0
LINE
  5
97
330
17
100
AcDbEntity
  8
FoilLayer
100
AcDbLine
 10
-142.2748638748633
 20
79.57121041672848
 30
0.0
 11
-148.76659944112885
 21
78.02464276678779
 31
0.0
  0
LINE
  5
98
330
17
100
AcDbEntity
  8
FoilLayer
100
AcDbLine
 10
-148.76659944112885
 20
78.02464276678779
 30
0.0
 11
-155.1384980706399
 21
76.40583622753766
 31
0.0
  0
LINE
  5
99
330
17
100
AcDbEntity
  8
FoilLayer
100
AcDbLine
 10
-155.1384980706399
 20
76.40583622753766
 30
0.0
 11
-161.3830945214051
 21
74.7226369172206
 31
0.0
  0
LINE
  5
9A
330
17
100
AcDbEntity
  8
FoilLayer
100
AcDbLine
 10
-161.3830945214051
 20
74.7226369172206
 30
0.0
 11
-167.50374965266778
 21
72.98203260223329
 31
0.0
  0
LINE
  5
9B
330
17
100
AcDbEntity
  8
FoilLayer
100
AcDbLine
 10
-167.50374965266778
 20
72.98203260223329
 30
0.0
 11
-173.47222550373172
 21
71.21175722335413
 31
0.0
  0
LINE
  5
9C
330
17
100
AcDbEntity
  8
FoilLayer
100
AcDbLine
 10
-173.47222550373172
 20
71.21175722335413
 30
0.0
 11
-179.3037180403814
 21
69.38565516428321
 31
0.0
  0
LINE
  5
9D
330
17
100
AcDbEntity
  8
FoilLayer
100
AcDbLine
 10
-179.3037180403814
 20
69.38565516428321
 30
0.0
 11
-184.98282019864467
 21
67.51154979567383
 31
0.0
  0
LINE
  5
9E
330
17
100
AcDbEntity
  8
FoilLayer
100
AcDbLine
 10
-184.98282019864467
 20
67.51154979567383
 30
0.0
 11
-190.52231110635702
 21
65.59063074848294
 31
0.0
  0
LINE
  5
9F
330
17
100
AcDbEntity
  8
FoilLayer
100
AcDbLine
 10
-190.52231110635702
 20
65.59063074848294
 30
0.0
 11
-195.91203299229187
 21
63.62077866564928
 31
0.0
  0
LINE
  5
A0
330
17
100
AcDbEntity
  8
FoilLayer
100
AcDbLine
 10
-195.91203299229187
 20
63.62077866564928
 30
0.0
 11
-201.16442084650777
 21
61.61135175300737
 31
0.0
  0
LINE
  5
A1
330
17
100
AcDbEntity
  8
FoilLayer
100
AcDbLine
 10
-201.16442084650777
 20
61.61135175300737
 30
0.0
 11
-206.26159931187158
 21
59.5711788900005
 31
0.0
  0
LINE
  5
A2
330
17
100
AcDbEntity
  8
FoilLayer
100
AcDbLine
 10
-206.26159931187158
 20
59.5711788900005
 30
0.0
 11
-211.19640851064895
 21
57.500011674289375
 31
0.0
  0
LINE
  5
A3
330
17
100
AcDbEntity
  8
FoilLayer
100
AcDbLine
 10
-211.19640851064895
 20
57.500011674289375
 30
0.0
 11
-215.96620206538222
 21
55.39917712778763
 31
0.0
  0
LINE
  5
A4
330
17
100
AcDbEntity
  8
FoilLayer
100
AcDbLine
 10
-215.96620206538222
 20
55.39917712778763
 30
0.0
 11
-220.57995772379195
 21
53.2565491483764
 31
0.0
  0
LINE
  5
A5
330
17
100
AcDbEntity
  8
FoilLayer
100
AcDbLine
 10
-220.57995772379195
 20
53.2565491483764
 30
0.0
 11
-225.03678518837643
 21
51.09246248018233
 31
0.0
  0
LINE
  5
A6
330
17
100
AcDbEntity
  8
FoilLayer
100
AcDbLine
 10
-225.03678518837643
 20
51.09246248018233
 30
0.0
 11
-229.3443370884479
 21
48.895086763619396
 31
0.0
  0
LINE
  5
A7
330
17
100
AcDbEntity
  8
FoilLayer
100
AcDbLine
 10
-229.3443370884479
 20
48.895086763619396
 30
0.0
 11
-233.47580843923612
 21
46.694309301133
 31
0.0
  0
LINE
  5
A8
330
17
100
AcDbEntity
  8
FoilLayer
100
AcDbLine
 10
-233.47580843923612
 20
46.694309301133
 30
0.0
 11
-237.44287177176977
 21
44.4677643781501
 31
0.0
  0
LINE
  5
A9
330
17
100
AcDbEntity
  8
FoilLayer
100
AcDbLine
 10
-237.44287177176977
 20
44.4677643781501
 30
0.0
 11
-241.22168500406252
 21
42.24901282537396
 31
0.0
  0
LINE
  5
AA
330
17
100
AcDbEntity
  8
FoilLayer
100
AcDbLine
 10
-241.22168500406252
 20
42.24901282537396
 30
0.0
 11
-244.83311416542787
 21
39.99861806168564
 31
0.0
  0
LINE
  5
AB
330
17
100
AcDbEntity
  8
FoilLayer
100
AcDbLine
 10
-244.83311416542787
 20
39.99861806168564
 30
0.0
 11
-248.27086663754727
 21
37.73135363173813
 31
0.0
  0
LINE
  5
AC
330
17
100
AcDbEntity
  8
FoilLayer
100
AcDbLine
 10
-248.27086663754727
 20
37.73135363173813
 30
0.0
 11
-251.55813684740065
 21
35.44762392582305
 31
0.0
  0
LINE
  5
AD
330
17
100
AcDbEntity
  8
FoilLayer
100
AcDbLine
 10
-251.55813684740065
 20
35.44762392582305
 30
0.0
 11
-254.6700955610863
 21
33.1780898551567
 31
0.0
  0
LINE
  5
AE
330
17
100
AcDbEntity
  8
FoilLayer
100
AcDbLine
 10
-254.6700955610863
 20
33.1780898551567
 30
0.0
 11
-257.5964449458866
 21
30.918908142716486
 31
0.0
  0
LINE
  5
AF
330
17
100
AcDbEntity
  8
FoilLayer
100
AcDbLine
 10
-257.5964449458866
 20
30.918908142716486
 30
0.0
 11
-260.33565488577636
 21
28.678652574546096
 31
0.0
  0
LINE
  5
B0
330
17
100
AcDbEntity
  8
FoilLayer
100
AcDbLine
 10
-260.33565488577636
 20
28.678652574546096
 30
0.0
 11
-262.89219419768733
 21
26.431476101155873
 31
0.0
  0
LINE
  5
B1
330
17
100
AcDbEntity
  8
FoilLayer
100
AcDbLine
 10
-262.89219419768733
 20
26.431476101155873
 30
0.0
 11
-265.27682880136996
 21
24.18252799017548
 31
0.0
  0
LINE
  5
B2
330
17
100
AcDbEntity
  8
FoilLayer
100
AcDbLine
 10
-265.27682880136996
 20
24.18252799017548
 30
0.0
 11
-267.4875565335553
 21
21.95802639653019
 31
0.0
  0
LINE
  5
B3
330
17
100
AcDbEntity
  8
FoilLayer
100
AcDbLine
 10
-267.4875565335553
 20
21.95802639653019
 30
0.0
 11
-269.52621294398006
 21
19.747995717626004
 31
0.0
  0
LINE
  5
B4
330
17
100
AcDbEntity
  8
FoilLayer
100
AcDbLine
 10
-269.52621294398006
 20
19.747995717626004
 30
0.0
 11
-271.38570286336073
 21
17.586836237491973
 31
0.0
  0
LINE
  5
B5
330
17
100
AcDbEntity
  8
FoilLayer
100
AcDbLine
 10
-271.38570286336073
 20
17.586836237491973
 30
0.0
 11
-273.0641124728572
 21
15.450927802114396
 31
0.0
  0
LINE
  5
B6
330
17
100
AcDbEntity
  8
FoilLayer
100
AcDbLine
 10
-273.0641124728572
 20
15.450927802114396
 30
0.0
 11
-274.5530197840126
 21
13.377041928118295
 31
0.0
  0
LINE
  5
B7
330
17
100
AcDbEntity
  8
FoilLayer
100
AcDbLine
 10
-274.5530197840126
 20
13.377041928118295
 30
0.0
 11
-275.85220827913724
 21
11.36177178070188
 31
0.0
  0
LINE
  5
B8
330
17
100
AcDbEntity
  8
FoilLayer
100
AcDbLine
 10
-275.85220827913724
 20
11.36177178070188
 30
0.0
 11
-276.97394341396625
 21
9.370967380058241
 31
0.0
  0
LINE
  5
B9
330
17
100
AcDbEntity
  8
FoilLayer
100
AcDbLine
 10
-276.97394341396625
 20
9.370967380058241
 30
0.0
 11
-277.8801163768916
 21
7.530122641705541
 31
0.0
  0
LINE
  5
BA
330
17
100
AcDbEntity
  8
FoilLayer
100
AcDbLine
 10
-277.8801163768916
 20
7.530122641705541
 30
0.0
 11
-278.6512573236745
 21
5.539991298073658
 31
0.0
  0
LINE
  5
BB
330
17
100
AcDbEntity
  8
FoilLayer
100
AcDbLine
 10
-278.6512573236745
 20
5.539991298073658
 30
0.0
 11
-279.1824898962892
 21
4.056582300129102
 31
0.0
  0
LINE
  5
BC
330
17
100
AcDbEntity
  8
FoilLayer
100
AcDbLine
 10
-279.1824898962892
 20
4.056582300129102
 30
0.0
 11
-279.5577872025574
 21
2.160693730058641
 31
0.0
  0
LINE
  5
BD
330
17
100
AcDbEntity
  8
FoilLayer
100
AcDbLine
 10
-279.5577872025574
 20
2.160693730058641
 30
0.0
 11
-279.74999999999994
 21
0.24150724521735648
 31
0.0
  0
LINE
  5
BE
330
17
100
AcDbEntity
  8
FoilLayer
100
AcDbLine
 10
-279.74999999999994
 20
0.24150724521735648
 30
0.0
 11
-279.7555972390306
 21
-0.20146710160551382
 31
0.0
  0
LINE
  5
BF
330
17
100
AcDbEntity
  8
FoilLayer
100
AcDbLine
 10
-279.7555972390306
 20
-0.20146710160551382
 30
0.0
 11
-279.5900269061618
 21
-1.9427199518395337
 31
0.0
  0
LINE
  5
C0
330
17
100
AcDbEntity
  8
FoilLayer
100
AcDbLine
 10
-279.5900269061618
 20
-1.9427199518395337
 30
0.0
 11
-279.2104987193022
 21
-3.1829548334823743
 31
0.0
  0
LINE
  5
C1
330
17
100
AcDbEntity
  8
FoilLayer
100
AcDbLine
 10
-279.2104987193022
 20
-3.1829548334823743
 30
0.0
 11
-278.63789702457956
 21
-4.38422711584271
 31
0.0
  0
LINE
  5
C2
330
17
100
AcDbEntity
  8
FoilLayer
100
AcDbLine
 10
-278.63789702457956
 20
-4.38422711584271
 30
0.0
 11
-277.8098942665614
 21
-5.592248764262241
 31
0.0
  0
LINE
  5
C3
330
17
100
AcDbEntity
  8
FoilLayer
100
AcDbLine
 10
-277.8098942665614
 20
-5.592248764262241
 30
0.0
 11
-276.78413794273223
 21
-6.763330826678855
 31
0.0
  0
LINE
  5
C4
330
17
100
AcDbEntity
  8
FoilLayer
100
AcDbLine
 10
-276.78413794273223
 20
-6.763330826678855
 30
0.0
 11
-275.52092374559544
 21
-7.898114335462072
 31
0.0
  0
LINE
  5
C5
330
17
100
AcDbEntity
  8
FoilLayer
100
AcDbLine
 10
-275.52092374559544
 20
-7.898114335462072
 30
0.0
 11
-274.0375013341935
 21
-8.973961275282043
 31
0.0
  0
LINE
  5
C6
330
17
100
AcDbEntity
  8
FoilLayer
100
AcDbLine
 10
-274.0375013341935
 20
-8.973961275282043
 30
0.0
 11
-272.29047065728133
 21
-9.989287769306145
 31
0.0
  0
LINE
  5
C7
330
17
100
AcDbEntity
  8
FoilLayer
100
AcDbLine
 10
-272.29047065728133
 20
-9.989287769306145
 30
0.0
 11
-270.22305776806957
 21
-10.957769123754778
 31
0.0
  0
LINE
  5
C8
330
17
100
AcDbEntity
  8
FoilLayer
100
AcDbLine
 10
-270.22305776806957
 20
-10.957769123754778
 30
0.0
 11
-267.8559575555352
 21
-11.901908052666167
 31
0.0
  0
LINE
  5
C9
330
17
100
AcDbEntity
  8
FoilLayer
100
AcDbLine
 10
-267.8559575555352
 20
-11.901908052666167
 30
0.0
 11
-265.2211189879277
 21
-12.82326445012309
 31
0.0
  0
LINE
  5
CA
330
17
100
AcDbEntity
  8
FoilLayer
100
AcDbLine
 10
-265.2211189879277
 20
-12.82326445012309
 30
0.0
 11
-262.3971095705763
 21
-13.709149369734744
 31
0.0
  0
LINE
  5
CB
330
17
100
AcDbEntity
  8
FoilLayer
100
AcDbLine
 10
-262.3971095705763
 20
-13.709149369734744
 30
0.0
 11
-259.33503547578925
 21
-14.527350937569839
 31
0.0
  0
LINE
  5
CC
330
17
100
AcDbEntity
  8
FoilLayer
100
AcDbLine
 10
-259.33503547578925
 20
-14.527350937569839
 30
0.0
 11
-256.0159489314958
 21
-15.272746030132057
 31
0.0
  0
LINE
  5
CD
330
17
100
AcDbEntity
  8
FoilLayer
100
AcDbLine
 10
-256.0159489314958
 20
-15.272746030132057
 30
0.0
 11
-252.43311567729165
 21
-15.973805794927149
 31
0.0
  0
LINE
  5
CE
330
17
100
AcDbEntity
  8
FoilLayer
100
AcDbLine
 10
-252.43311567729165
 20
-15.973805794927149
 30
0.0
 11
-248.59709322799566
 21
-16.644054665493396
 31
0.0
  0
LINE
  5
CF
330
17
100
AcDbEntity
  8
FoilLayer
100
AcDbLine
 10
-248.59709322799566
 20
-16.644054665493396
 30
0.0
 11
-244.56359382908158
 21
-17.2731429299117
 31
0.0
  0
LINE
  5
D0
330
17
100
AcDbEntity
  8
FoilLayer
100
AcDbLine
 10
-244.56359382908158
 20
-17.2731429299117
 30
0.0
 11
-240.30889893983996
 21
-17.831372638224575
 31
0.0
  0
LINE
  5
D1
330
17
100
AcDbEntity
  8
FoilLayer
100
AcDbLine
 10
-240.30889893983996
 20
-17.831372638224575
 30
0.0
 11
-235.81910318597033
 21
-18.31900046362686
 31
0.0
  0
LINE
  5
D2
330
17
100
AcDbEntity
  8
FoilLayer
100
AcDbLine
 10
-235.81910318597033
 20
-18.31900046362686
 30
0.0
 11
-231.06642953544534
 21
-18.751903100195374
 31
0.0
  0
LINE
  5
D3
330
17
100
AcDbEntity
  8
FoilLayer
100
AcDbLine
 10
-231.06642953544534
 20
-18.751903100195374
 30
0.0
 11
-226.07781515481113
 21
-19.153004720545468
 31
0.0
  0
LINE
  5
D4
330
17
100
AcDbEntity
  8
FoilLayer
100
AcDbLine
 10
-226.07781515481113
 20
-19.153004720545468
 30
0.0
 11
-220.887001140315
 21
-19.5216552083796
 31
0.0
  0
LINE
  5
D5
330
17
100
AcDbEntity
  8
FoilLayer
100
AcDbLine
 10
-220.887001140315
 20
-19.5216552083796
 30
0.0
 11
-215.5100923634322
 21
-19.833978912372924
 31
0.0
  0
LINE
  5
D6
330
17
100
AcDbEntity
  8
FoilLayer
100
AcDbLine
 10
-215.5100923634322
 20
-19.833978912372924
 30
0.0
 11
-209.91338498615644
 21
-20.06663214456956
 31
0.0
  0
LINE
  5
D7
330
17
100
AcDbEntity
  8
FoilLayer
100
AcDbLine
 10
-209.91338498615644
 20
-20.06663214456956
 30
0.0
 11
-204.0952470341958
 21
-20.243266236471758
 31
0.0
  0
LINE
  5
D8
330
17
100
AcDbEntity
  8
FoilLayer
100
AcDbLine
 10
-204.0952470341958
 20
-20.243266236471758
 30
0.0
 11
-198.02888421738484
 21
-20.371858400841766
 31
0.0
  0
LINE
  5
D9
330
17
100
AcDbEntity
  8
FoilLayer
100
AcDbLine
 10
-198.02888421738484
 20
-20.371858400841766
 30
0.0
 11
-191.77609809910547
 21
-20.468262816757008
 31
0.0
  0
LINE
  5
DA
330
17
100
AcDbEntity
  8
FoilLayer
100
AcDbLine
 10
-191.77609809910547
 20
-20.468262816757008
 30
0.0
 11
-185.33147109932779
 21
-20.50848844526427
 31
0.0
  0
LINE
  5
DB
330
17
100
AcDbEntity
  8
FoilLayer
100
AcDbLine
 10
-185.33147109932779
 20
-20.50848844526427
 30
0.0
 11
-178.70049691983104
 21
-20.48449080708113
 31
0.0
  0
LINE
  5
DC
330
17
100
AcDbEntity
  8
FoilLayer
100
AcDbLine
 10
-178.70049691983104
 20
-20.48449080708113
 30
0.0
 11
-171.84420936395742
 21
-20.396102369749006
 31
0.0
  0
LINE
  5
DD
330
17
100
AcDbEntity
  8
FoilLayer
100
AcDbLine
 10
-171.84420936395742
 20
-20.396102369749006
 30
0.0
 11
-164.76561890597364
 21
-20.267408631313064
 31
0.0
  0
LINE
  5
DE
330
17
100
AcDbEntity
  8
FoilLayer
100
AcDbLine
 10
-164.76561890597364
 20
-20.267408631313064
 30
0.0
 11
-157.49004508254893
 21
-20.11468627289989
 31
0.0
  0
LINE
  5
DF
330
17
100
AcDbEntity
  8
FoilLayer
100
AcDbLine
 10
-157.49004508254893
 20
-20.11468627289989
 30
0.0
 11
-150.05924053758798
 21
-19.921948473506554
 31
0.0
  0
LINE
  5
E0
330
17
100
AcDbEntity
  8
FoilLayer
100
AcDbLine
 10
-150.05924053758798
 20
-19.921948473506554
 30
0.0
 11
-142.44640900755147
 21
-19.66473283265872
 31
0.0
  0
LINE
  5
E1
330
17
100
AcDbEntity
  8
FoilLayer
100
AcDbLine
 10
-142.44640900755147
 20
-19.66473283265872
 30
0.0
 11
-134.64774014704892
 21
-19.359243361668145
 31
0.0
  0
LINE
  5
E2
330
17
100
AcDbEntity
  8
FoilLayer
100
AcDbLine
 10
-134.64774014704892
 20
-19.359243361668145
 30
0.0
 11
-126.6377163794817
 21
-19.005031255644468
 31
0.0
  0
LINE
  5
E3
330
17
100
AcDbEntity
  8
FoilLayer
100
AcDbLine
 10
-126.6377163794817
 20
-19.005031255644468
 30
0.0
 11
-118.44873709598997
 21
-18.643052512764996
 31
0.0
  0
LINE
  5
E4
330
17
100
AcDbEntity
  8
FoilLayer
100
AcDbLine
 10
-118.44873709598997
 20
-18.643052512764996
 30
0.0
 11
-110.11653050195119
 21
-18.24897709546334
 31
0.0
  0
LINE
  5
E5
330
17
100
AcDbEntity
  8
FoilLayer
100
AcDbLine
 10
-110.11653050195119
 20
-18.24897709546334
 30
0.0
 11
-101.64254947553869
 21
-17.81485649677773
 31
0.0
  0
LINE
  5
E6
330
17
100
AcDbEntity
  8
FoilLayer
100
AcDbLine
 10
-101.64254947553869
 20
-17.81485649677773
 30
0.0
 11
-92.9954539285003
 21
-17.324196109550535
 31
0.0
  0
LINE
  5
E7
330
17
100
AcDbEntity
  8
FoilLayer
100
AcDbLine
 10
-92.9954539285003
 20
-17.324196109550535
 30
0.0
 11
-84.17013699706612
 21
-16.792745817479076
 31
0.0
  0
LINE
  5
E8
330
17
100
AcDbEntity
  8
FoilLayer
100
AcDbLine
 10
-84.17013699706612
 20
-16.792745817479076
 30
0.0
 11
-80.61796792492581
 21
-16.582859372750995
 31
0.0
  0
LINE
  5
E9
330
17
100
AcDbEntity
  8
FoilLayer
100
AcDbLine
 10
-80.61796792492581
 20
-16.582859372750995
 30
0.0
 11
-80.52654278310828
 21
-18.1301607149089
 31
0.0
  0
LINE
  5
EA
330
17
100
AcDbEntity
  8
FoilLayer
100
AcDbLine
 10
-80.52654278310828
 20
-18.1301607149089
 30
0.0
 11
-75.08703246353915
 21
-17.80875745696422
 31
0.0
  0
LINE
  5
EB
330
17
100
AcDbEntity
  8
FoilLayer
100
AcDbLine
 10
-75.08703246353915
 20
-17.80875745696422
 30
0.0
 11
-65.97536802871545
 21
-17.26141529001756
 31
0.0
  0
LINE
  5
EC
330
17
100
AcDbEntity
  8
FoilLayer
100
AcDbLine
 10
-65.97536802871545
 20
-17.26141529001756
 30
0.0
 11
-56.74402004488198
 21
-16.6819467685702
 31
0.0
  0
LINE
  5
ED
330
17
100
AcDbEntity
  8
FoilLayer
100
AcDbLine
 10
-56.74402004488198
 20
-16.6819467685702
 30
0.0
 11
-47.37383320120563
 21
-16.045997758368816
 31
0.0
  0
LINE
  5
EE
330
17
100
AcDbEntity
  8
FoilLayer
100
AcDbLine
 10
-47.37383320120563
 20
-16.045997758368816
 30
0.0
 11
-37.85801352914177
 21
-15.393898651691567
 31
0.0
  0
LINE
  5
EF
330
17
100
AcDbEntity
  8
FoilLayer
100
AcDbLine
 10
-37.85801352914177
 20
-15.393898651691567
 30
0.0
 11
-28.205081238427027
 21
-14.741782828551548
 31
0.0
  0
LINE
  5
F0
330
17
100
AcDbEntity
  8
FoilLayer
100
AcDbLine
 10
-28.205081238427027
 20
-14.741782828551548
 30
0.0
 11
-18.449750343777794
 21
-14.097869326534564
 31
0.0
  0
LINE
  5
F1
330
17
100
AcDbEntity
  8
FoilLayer
100
AcDbLine
 10
-18.449750343777794
 20
-14.097869326534564
 30
0.0
 11
-8.605062631778992
 21
-13.413652098637456
 31
0.0
  0
LINE
  5
F2
330
17
100
AcDbEntity
  8
FoilLayer
100
AcDbLine
 10
-8.605062631778992
 20
-13.413652098637456
 30
0.0
 11
1.345034714514668
 21
-12.705230928352679
 31
0.0
  0
LINE
  5
F3
330
17
100
AcDbEntity
  8
FoilLayer
100
AcDbLine
 10
1.345034714514668
 20
-12.705230928352679
 30
0.0
 11
11.408138977667932
 21
-11.988738007176954
 31
0.0
  0
LINE
  5
F4
330
17
100
AcDbEntity
  8
FoilLayer
100
AcDbLine
 10
11.408138977667932
 20
-11.988738007176954
 30
0.0
 11
21.568493914023634
 21
-11.272200515772488
 31
0.0
  0
LINE
  5
F5
330
17
100
AcDbEntity
  8
FoilLayer
100
AcDbLine
 10
21.568493914023634
 20
-11.272200515772488
 30
0.0
 11
31.80784536038726
 21
-10.571867861519795
 31
0.0
  0
LINE
  5
F6
330
17
100
AcDbEntity
  8
FoilLayer
100
AcDbLine
 10
31.80784536038726
 20
-10.571867861519795
 30
0.0
 11
42.09523036181213
 21
-9.855454485408046
 31
0.0
  0
LINE
  5
F7
330
17
100
AcDbEntity
  8
FoilLayer
100
AcDbLine
 10
42.09523036181213
 20
-9.855454485408046
 30
0.0
 11
52.4561373247048
 21
-9.114814739264919
 31
0.0
  0
LINE
  5
F8
330
17
100
AcDbEntity
  8
FoilLayer
100
AcDbLine
 10
52.4561373247048
 20
-9.114814739264919
 30
0.0
 11
62.89817943276108
 21
-8.374131044165813
 31
0.0
  0
LINE
  5
F9
330
17
100
AcDbEntity
  8
FoilLayer
100
AcDbLine
 10
62.89817943276108
 20
-8.374131044165813
 30
0.0
 11
73.40452157099531
 21
-7.649556399758633
 31
0.0
  0
LINE
  5
FA
330
17
100
AcDbEntity
  8
FoilLayer
100
AcDbLine
 10
73.40452157099531
 20
-7.649556399758633
 30
0.0
 11
83.94201575267118
 21
-6.941153512298025
 31
0.0
  0
LINE
  5
FB
330
17
100
AcDbEntity
  8
FoilLayer
100
AcDbLine
 10
83.94201575267118
 20
-6.941153512298025
 30
0.0
 11
94.50366193306041
 21
-6.224700461607089
 31
0.0
  0
LINE
  5
FC
330
17
100
AcDbEntity
  8
FoilLayer
100
AcDbLine
 10
94.50366193306041
 20
-6.224700461607089
 30
0.0
 11
105.08989145986851
 21
-5.500167671626254
 31
0.0
  0
LINE
  5
FD
330
17
100
AcDbEntity
  8
FoilLayer
100
AcDbLine
 10
105.08989145986851
 20
-5.500167671626254
 30
0.0
 11
115.73339170427647
 21
-4.7755736520084895
 31
0.0
  0
LINE
  5
FE
330
17
100
AcDbEntity
  8
FoilLayer
100
AcDbLine
 10
115.73339170427647
 20
-4.7755736520084895
 30
0.0
 11
126.40129068197092
 21
-4.075117354268374
 31
0.0
  0
LINE
  5
FF
330
17
100
AcDbEntity
  8
FoilLayer
100
AcDbLine
 10
126.40129068197092
 20
-4.075117354268374
 30
0.0
 11
137.05976801042806
 21
-3.4069499708860196
 31
0.0
  0
LINE
  5
100
330
17
100
AcDbEntity
  8
FoilLayer
100
AcDbLine
 10
137.05976801042806
 20
-3.4069499708860196
 30
0.0
 11
147.7014888312562
 21
-2.738824322442868
 31
0.0
  0
LINE
  5
101
330
17
100
AcDbEntity
  8
FoilLayer
100
AcDbLine
 10
147.7014888312562
 20
-2.738824322442868
 30
0.0
 11
158.33655631407714
 21
-2.054509397668823
 31
0.0
  0
LINE
  5
102
330
17
100
AcDbEntity
  8
FoilLayer
100
AcDbLine
 10
158.33655631407714
 20
-2.054509397668823
 30
0.0
 11
168.9802890006664
 21
-1.386258819351189
 31
0.0
  0
LINE
  5
103
330
17
100
AcDbEntity
  8
FoilLayer
100
AcDbLine
 10
168.9802890006664
 20
-1.386258819351189
 30
0.0
 11
179.60718675192265
 21
-0.7502554647136812
 31
0.0
  0
LINE
  5
104
330
17
100
AcDbEntity
  8
FoilLayer
100
AcDbLine
 10
179.60718675192265
 20
-0.7502554647136812
 30
0.0
 11
190.19343641887798
 21
-0.13037624367618433
 31
0.0
  0
LINE
  5
105
330
17
100
AcDbEntity
  8
FoilLayer
100
AcDbLine
 10
190.19343641887798
 20
-0.13037624367618433
 30
0.0
 11
200.71467856906645
 21
0.4814172847238102
 31
0.0
  0
LINE
  5
106
330
17
100
AcDbEntity
  8
FoilLayer
100
AcDbLine
 10
200.71467856906645
 20
0.4814172847238102
 30
0.0
 11
211.204751093612
 21
1.1013213881140673
 31
0.0
  0
LINE
  5
107
330
17
100
AcDbEntity
  8
FoilLayer
100
AcDbLine
 10
211.204751093612
 20
1.1013213881140673
 30
0.0
 11
221.66328033085887
 21
1.7051607799873905
 31
0.0
  0
LINE
  5
108
330
17
100
AcDbEntity
  8
FoilLayer
100
AcDbLine
 10
221.66328033085887
 20
1.7051607799873905
 30
0.0
 11
232.0730799593179
 21
2.276773124778221
 31
0.0
  0
LINE
  5
109
330
17
100
AcDbEntity
  8
FoilLayer
100
AcDbLine
 10
232.0730799593179
 20
2.276773124778221
 30
0.0
 11
242.39330271794853
 21
2.8241795971981114
 31
0.0
  0
LINE
  5
10A
330
17
100
AcDbEntity
  8
FoilLayer
100
AcDbLine
 10
242.39330271794853
 20
2.8241795971981114
 30
0.0
 11
252.63270386266385
 21
3.3715686807883203
 31
0.0
  0
LINE
  5
10B
330
17
100
AcDbEntity
  8
FoilLayer
100
AcDbLine
 10
252.63270386266385
 20
3.3715686807883203
 30
0.0
 11
262.809480388636
 21
3.9271029377170814
 31
0.0
  0
LINE
  5
10C
330
17
100
AcDbEntity
  8
FoilLayer
100
AcDbLine
 10
262.809480388636
 20
3.9271029377170814
 30
0.0
 11
272.9221965533109
 21
4.450449200950046
 31
0.0
  0
LINE
  5
10D
330
17
100
AcDbEntity
  8
FoilLayer
100
AcDbLine
 10
272.9221965533109
 20
4.450449200950046
 30
0.0
 11
282.9536441755284
 21
4.933503664392323
 31
0.0
  0
LINE
  5
10E
330
17
100
AcDbEntity
  8
FoilLayer
100
AcDbLine
 10
282.9536441755284
 20
4.933503664392323
 30
0.0
 11
292.8713031794303
 21
5.392356330856043
 31
0.0
  0
LINE
  5
10F
330
17
100
AcDbEntity
  8
FoilLayer
100
AcDbLine
 10
292.8713031794303
 20
5.392356330856043
 30
0.0
 11
302.6770492962
 21
5.851245587848224
 31
0.0
  0
LINE
  5
110
330
17
100
AcDbEntity
  8
FoilLayer
100
AcDbLine
 10
302.6770492962
 20
5.851245587848224
 30
0.0
 11
312.3953629328417
 21
6.294081950027314
 31
0.0
  0
LINE
  5
111
330
17
100
AcDbEntity
  8
FoilLayer
100
AcDbLine
 10
312.3953629328417
 20
6.294081950027314
 30
0.0
 11
322.0178260983036
 21
6.696688924185224
 31
0.0
  0
LINE
  5
112
330
17
100
AcDbEntity
  8
FoilLayer
100
AcDbLine
 10
322.0178260983036
 20
6.696688924185224
 30
0.0
 11
331.518802993977
 21
7.042907777043545
 31
0.0
  0
LINE
  5
113
330
17
100
AcDbEntity
  8
FoilLayer
100
AcDbLine
 10
331.518802993977
 20
7.042907777043545
 30
0.0
 11
340.8817755448934
 21
7.348834326643512
 31
0.0
  0
LINE
  5
114
330
17
100
AcDbEntity
  8
FoilLayer
100
AcDbLine
 10
340.8817755448934
 20
7.348834326643512
 30
0.0
 11
350.09305425002145
 21
7.638696125830067
 31
0.0
  0
LINE
  5
115
330
17
100
AcDbEntity
  8
FoilLayer
100
AcDbLine
 10
350.09305425002145
 20
7.638696125830067
 30
0.0
 11
359.184814387873
 21
7.888326754143407
 31
0.0
  0
LINE
  5
116
330
17
100
AcDbEntity
  8
FoilLayer
100
AcDbLine
 10
359.184814387873
 20
7.888326754143407
 30
0.0
 11
368.13174887927363
 21
8.073536025094603
 31
0.0
  0
LINE
  5
117
330
17
100
AcDbEntity
  8
FoilLayer
100
AcDbLine
 10
368.13174887927363
 20
8.073536025094603
 30
0.0
 11
376.90043050327694
 21
8.194312456647022
 31
0.0
  0
LINE
  5
118
330
17
100
AcDbEntity
  8
FoilLayer
100
AcDbLine
 10
376.90043050327694
 20
8.194312456647022
 30
0.0
 11
385.4670936390855
 21
8.27482459124575
 31
0.0
  0
LINE
  5
119
330
17
100
AcDbEntity
  8
FoilLayer
100
AcDbLine
 10
385.4670936390855
 20
8.27482459124575
 30
0.0
 11
393.8580270779641
 21
8.331186219330418
 31
0.0
  0
LINE
  5
11A
330
17
100
AcDbEntity
  8
FoilLayer
100
AcDbLine
 10
393.8580270779641
 20
8.331186219330418
 30
0.0
 11
402.07288034229515
 21
8.339225541430872
 31
0.0
  0
LINE
  5
11B
330
17
100
AcDbEntity
  8
FoilLayer
100
AcDbLine
 10
402.07288034229515
 20
8.339225541430872
 30
0.0
 11
410.08575398253146
 21
8.282844327483216
 31
0.0
  0
LINE
  5
11C
330
17
100
AcDbEntity
  8
FoilLayer
100
AcDbLine
 10
410.08575398253146
 20
8.282844327483216
 30
0.0
 11
417.8724514396517
 21
8.178157802254091
 31
0.0
  0
LINE
  5
11D
330
17
100
AcDbEntity
  8
FoilLayer
100
AcDbLine
 10
417.8724514396517
 20
8.178157802254091
 30
0.0
 11
425.4177465720791
 21
8.041257966688896
 31
0.0
  0
LINE
  5
11E
330
17
100
AcDbEntity
  8
FoilLayer
100
AcDbLine
 10
425.4177465720791
 20
8.041257966688896
 30
0.0
 11
432.7463440387026
 21
7.872127276632288
 31
0.0
  0
LINE
  5
11F
330
17
100
AcDbEntity
  8
FoilLayer
100
AcDbLine
 10
432.7463440387026
 20
7.872127276632288
 30
0.0
 11
439.85030682068117
 21
7.662698583756245
 31
0.0
  0
LINE
  5
120
330
17
100
AcDbEntity
  8
FoilLayer
100
AcDbLine
 10
439.85030682068117
 20
7.662698583756245
 30
0.0
 11
446.7044867574983
 21
7.404949026750135
 31
0.0
  0
LINE
  5
121
330
17
100
AcDbEntity
  8
FoilLayer
100
AcDbLine
 10
446.7044867574983
 20
7.404949026750135
 30
0.0
 11
453.2910085391714
 21
7.107023408818865
 31
0.0
  0
LINE
  5
122
330
17
100
AcDbEntity
  8
FoilLayer
100
AcDbLine
 10
453.2910085391714
 20
7.107023408818865
 30
0.0
 11
459.6137176759268
 21
6.800944036273734
 31
0.0
  0
LINE
  5
123
330
17
100
AcDbEntity
  8
FoilLayer
100
AcDbLine
 10
459.6137176759268
 20
6.800944036273734
 30
0.0
 11
465.68722412769927
 21
6.462617335487112
 31
0.0
  0
LINE
  5
124
330
17
100
AcDbEntity
  8
FoilLayer
100
AcDbLine
 10
465.68722412769927
 20
6.462617335487112
 30
0.0
 11
471.4969084759495
 21
6.091924506238225
 31
0.0
  0
LINE
  5
125
330
17
100
AcDbEntity
  8
FoilLayer
100
AcDbLine
 10
471.4969084759495
 20
6.091924506238225
 30
0.0
 11
477.0059009563574
 21
5.673104472696143
 31
0.0
  0
LINE
  5
126
330
17
100
AcDbEntity
  8
FoilLayer
100
AcDbLine
 10
477.0059009563574
 20
5.673104472696143
 30
0.0
 11
482.2166829229431
 21
5.246249439651067
 31
0.0
  0
LINE
  5
127
330
17
100
AcDbEntity
  8
FoilLayer
100
AcDbLine
 10
482.2166829229431
 20
5.246249439651067
 30
0.0
 11
487.1216394323573
 21
4.819375044585346
 31
0.0
  0
LINE
  5
128
330
17
100
AcDbEntity
  8
FoilLayer
100
AcDbLine
 10
487.1216394323573
 20
4.819375044585346
 30
0.0
 11
491.74621101553765
 21
4.392351869825944
 31
0.0
  0
LINE
  5
129
330
17
100
AcDbEntity
  8
FoilLayer
100
AcDbLine
 10
491.74621101553765
 20
4.392351869825944
 30
0.0
 11
496.0654314232907
 21
3.9571857392734704
 31
0.0
  0
LINE
  5
12A
330
17
100
AcDbEntity
  8
FoilLayer
100
AcDbLine
 10
496.0654314232907
 20
3.9571857392734704
 30
0.0
 11
500.07763181277966
 21
3.514059786231964
 31
0.0
  0
LINE
  5
12B
330
17
100
AcDbEntity
  8
FoilLayer
100
AcDbLine
 10
500.07763181277966
 20
3.514059786231964
 30
0.0
 11
503.7767183268881
 21
3.0788547358868783
 31
0.0
  0
LINE
  5
12C
330
17
100
AcDbEntity
  8
FoilLayer
100
AcDbLine
 10
503.7767183268881
 20
3.0788547358868783
 30
0.0
 11
507.1439718309319
 21
2.6519005470751473
 31
0.0
  0
LINE
  5
12D
330
17
100
AcDbEntity
  8
FoilLayer
100
AcDbLine
 10
507.1439718309319
 20
2.6519005470751473
 30
0.0
 11
510.1968397866154
 21
2.2491437128922236
 31
0.0
  0
LINE
  5
12E
330
17
100
AcDbEntity
  8
FoilLayer
100
AcDbLine
 10
510.1968397866154
 20
2.2491437128922236
 30
0.0
 11
512.919529744009
 21
1.878596774317987
 31
0.0
  0
LINE
  5
12F
330
17
100
AcDbEntity
  8
FoilLayer
100
AcDbLine
 10
512.919529744009
 20
1.878596774317987
 30
0.0
 11
515.335850276497
 21
1.540310117151412
 31
0.0
  0
LINE
  5
130
330
17
100
AcDbEntity
  8
FoilLayer
100
AcDbLine
 10
515.335850276497
 20
1.540310117151412
 30
0.0
 11
517.4217090890809
 21
1.2423294663430433
 31
0.0
  0
LINE
  5
131
330
17
100
AcDbEntity
  8
FoilLayer
100
AcDbLine
 10
517.4217090890809
 20
1.2423294663430433
 30
0.0
 11
519.202719041004
 21
0.9844415031757408
 31
0.0
  0
LINE
  5
132
330
17
100
AcDbEntity
  8
FoilLayer
100
AcDbLine
 10
519.202719041004
 20
0.9844415031757408
 30
0.0
 11
520.6618460353657
 21
0.7667769242568374
 31
0.0
  0
LINE
  5
133
330
17
100
AcDbEntity
  8
FoilLayer
100
AcDbLine
 10
520.6618460353657
 20
0.7667769242568374
 30
0.0
 11
521.814340333957
 21
0.5894681340315149
 31
0.0
  0
LINE
  5
134
330
17
100
AcDbEntity
  8
FoilLayer
100
AcDbLine
 10
521.814340333957
 20
0.5894681340315149
 30
0.0
 11
522.6293690820353
 21
0.46157775518423155
 31
0.0
  0
LINE
  5
135
330
17
100
AcDbEntity
  8
FoilLayer
100
AcDbLine
 10
522.6293690820353
 20
0.46157775518423155
 30
0.0
 11
523.1533931338361
 21
0.38638976902956956
 31
0.0
  0
LINE
  5
136
330
17
100
AcDbEntity
  8
FoilLayer
100
AcDbLine
 10
523.1533931338361
 20
0.38638976902956956
 30
0.0
 11
523.3304984469926
 21
0.3541888030011293
 31
0.0
  0
LINE
  5
137
330
17
100
AcDbEntity
  8
FoilLayer
100
AcDbLine
 10
523.3304984469926
 20
0.3541888030011293
 30
0.0
 11
523.1013423092072
 21
-0.38448505294569324
 31
0.0
  0
LINE
  5
138
330
17
100
AcDbEntity
  8
StringerLayer
100
AcDbLine
 10
278.4053773516877
 20
62.26034991431109
 30
0.0
 11
282.2949943166105
 21
61.32714047041051
 31
0.0
  0
LINE
  5
139
330
17
100
AcDbEntity
  8
StringerLayer
100
AcDbLine
 10
282.2949943166105
 20
61.32714047041051
 30
0.0
 11
283.22820376051106
 21
65.21675743533325
 31
0.0
  0
LINE
  5
13A
330
17
100
AcDbEntity
  8
StringerLayer
100
AcDbLine
 10
283.22820376051106
 20
65.21675743533325
 30
0.0
 11
279.3385867955883
 21
66.14996687923383
 31
0.0
  0
LINE
  5
13B
330
17
100
AcDbEntity
  8
StringerLayer
100
AcDbLine
 10
279.3385867955883
 20
66.14996687923383
 30
0.0
 11
278.4053773516877
 21
62.26034991431109
 31
0.0
  0
LINE
  5
13C
330
17
100
AcDbEntity
  8
StringerLayer
100
AcDbLine
 10
-81.69898667139645
 20
86.3487228850426
 30
0.0
 11
-77.73326996785366
 21
86.87130400529256
 31
0.0
  0
LINE
  5
13D
330
17
100
AcDbEntity
  8
StringerLayer
100
AcDbLine
 10
-77.73326996785366
 20
86.87130400529256
 30
0.0
 11
-78.25585108810361
 21
90.83702070883535
 31
0.0
  0
LINE
  5
13E
330
17
100
AcDbEntity
  8
StringerLayer
100
AcDbLine
 10
-78.25585108810361
 20
90.83702070883535
 30
0.0
 11
-82.22156779164641
 21
90.3144395885854
 31
0.0
  0
LINE
  5
13F
330
17
100
AcDbEntity
  8
StringerLayer
100
AcDbLine
 10
-82.22156779164641
 20
90.3144395885854
 30
0.0
 11
-81.69898667139645
 21
86.3487228850426
 31
0.0
  0
LINE
  5
140
330
17
100
AcDbEntity
  8
StringerLayer
100
AcDbLine
 10
-200.97379606549902
 20
57.40123501320836
 30
0.0
 11
-197.23792407391795
 21
58.83066163340265
 31
0.0
  0
LINE
  5
141
330
17
100
AcDbEntity
  8
StringerLayer
100
AcDbLine
 10
-197.23792407391795
 20
58.83066163340265
 30
0.0
 11
-198.66735069411226
 21
62.56653362498372
 31
0.0
  0
LINE
  5
142
330
17
100
AcDbEntity
  8
StringerLayer
100
AcDbLine
 10
-198.66735069411226
 20
62.56653362498372
 30
0.0
 11
-202.40322268569332
 21
61.13710700478943
 31
0.0
  0
LINE
  5
143
330
17
100
AcDbEntity
  8
StringerLayer
100
AcDbLine
 10
-202.40322268569332
 20
61.13710700478943
 30
0.0
 11
-200.97379606549902
 21
57.40123501320836
 31
0.0
  0
LINE
  5
144
330
17
100
AcDbEntity
  8
StringerLayer
100
AcDbLine
 10
-268.81029726567766
 20
12.769378000196761
 30
0.0
 11
-267.57566885923035
 21
14.342811410924172
 31
0.0
  0
LINE
  5
145
330
17
100
AcDbEntity
  8
StringerLayer
100
AcDbLine
 10
-267.57566885923035
 20
14.342811410924172
 30
0.0
 11
-271.5092523860489
 21
17.42938242704253
 31
0.0
  0
LINE
  5
146
330
17
100
AcDbEntity
  8
StringerLayer
100
AcDbLine
 10
-271.5092523860489
 20
17.42938242704253
 30
0.0
 11
-272.7438807924962
 21
15.855949016315119
 31
0.0
  0
LINE
  5
147
330
17
100
AcDbEntity
  8
StringerLayer
100
AcDbLine
 10
-272.7438807924962
 20
15.855949016315119
 30
0.0
 11
-268.81029726567766
 21
12.769378000196761
 31
0.0
  0
LINE
  5
148
330
17
100
AcDbEntity
  8
StringerLayer
100
AcDbLine
 10
-272.331856379601
 20
-4.029007037033473
 30
0.0
 11
-273.8280733380363
 21
-2.701854139553102
 31
0.0
  0
LINE
  5
149
330
17
100
AcDbEntity
  8
StringerLayer
100
AcDbLine
 10
-273.8280733380363
 20
-2.701854139553102
 30
0.0
 11
-277.1459555817372
 21
-6.442396535641415
 31
0.0
  0
LINE
  5
14A
330
17
100
AcDbEntity
  8
StringerLayer
100
AcDbLine
 10
-277.1459555817372
 20
-6.442396535641415
 30
0.0
 11
-275.6497386233019
 21
-7.769549433121786
 31
0.0
  0
LINE
  5
14B
330
17
100
AcDbEntity
  8
StringerLayer
100
AcDbLine
 10
-275.6497386233019
 20
-7.769549433121786
 30
0.0
 11
-272.331856379601
 21
-4.029007037033473
 31
0.0
  0
LINE
  5
14C
330
17
100
AcDbEntity
  8
StringerLayer
100
AcDbLine
 10
-119.01691835622846
 20
-14.66425290432623
 30
0.0
 11
-123.01301602974506
 21
-14.840897699650785
 31
0.0
  0
LINE
  5
14D
330
17
100
AcDbEntity
  8
StringerLayer
100
AcDbLine
 10
-123.01301602974506
 20
-14.840897699650785
 30
0.0
 11
-122.83637123442051
 21
-18.83699537316738
 31
0.0
  0
LINE
  5
14E
330
17
100
AcDbEntity
  8
StringerLayer
100
AcDbLine
 10
-122.83637123442051
 20
-18.83699537316738
 30
0.0
 11
-118.84027356090391
 21
-18.660350577842824
 31
0.0
  0
LINE
  5
14F
330
17
100
AcDbEntity
  8
StringerLayer
100
AcDbLine
 10
-118.84027356090391
 20
-18.660350577842824
 30
0.0
 11
-119.01691835622846
 21
-14.66425290432623
 31
0.0
  0
LINE
  5
150
330
17
100
AcDbEntity
  8
SubLayer
100
AcDbLine
 10
-281.74999999999994
 20
0.0
 30
0.0
 11
-277.74999999999994
 21
0.0
 31
0.0
  0
LINE
  5
151
330
17
100
AcDbEntity
  8
SubLayer
100
AcDbLine
 10
78.5
 20
0.0
 30
0.0
 11
90.55000000000001
 21
0.0
 31
0.0
  0
LINE
  5
152
330
17
100
AcDbEntity
  8
SubLayer
100
AcDbLine
 10
-60.338221181277895
 20
40.6568068115578
 30
0.0
 11
-52.34309456512513
 21
40.936002785177806
 31
0.0
  0
LINE
  5
153
330
17
100
AcDbEntity
  8
SubLayer
100
AcDbLine
 10
52.34309456512513
 20
44.59172506476479
 30
0.0
 11
60.338221181277895
 21
44.87092103838479
 31
0.0
  0
LINE
  5
154
330
17
100
AcDbEntity
  8
SubLayer
100
AcDbLine
 10
-1.72141767485086
 20
92.05881646768819
 30
0.0
 11
-1.4422217012308525
 21
84.06368985153543
 31
0.0
  0
LINE
  5
155
330
17
100
AcDbEntity
  8
SubLayer
100
AcDbLine
 10
1.72141767485086
 20
-6.531088617745596
 30
0.0
 11
1.4422217012308525
 21
1.4640379984071714
 31
0.0
  0
LINE
  5
156
330
17
100
AcDbEntity
  8
SubLayer
100
AcDbLine
 10
-58.269640533834696
 20
38.72782415092461
 30
0.0
 11
-54.272077225758316
 21
38.867422137734614
 31
0.0
  0
LINE
  5
157
330
17
100
AcDbEntity
  8
SubLayer
100
AcDbLine
 10
-54.272077225758316
 20
38.867422137734614
 30
0.0
 11
-54.41167521256832
 21
42.864985445810994
 31
0.0
  0
LINE
  5
158
330
17
100
AcDbEntity
  8
SubLayer
100
AcDbLine
 10
-54.41167521256832
 20
42.864985445810994
 30
0.0
 11
-58.4092385206447
 21
42.72538745900099
 31
0.0
  0
LINE
  5
159
330
17
100
AcDbEntity
  8
SubLayer
100
AcDbLine
 10
-58.4092385206447
 20
42.72538745900099
 30
0.0
 11
-58.269640533834696
 21
38.72782415092461
 31
0.0
  0
LINE
  5
15A
330
17
100
AcDbEntity
  8
SubLayer
100
AcDbLine
 10
54.41167521256832
 20
42.6627424041316
 30
0.0
 11
58.4092385206447
 21
42.8023403909416
 31
0.0
  0
LINE
  5
15B
330
17
100
AcDbEntity
  8
SubLayer
100
AcDbLine
 10
58.4092385206447
 20
42.8023403909416
 30
0.0
 11
58.269640533834696
 21
46.79990369901798
 31
0.0
  0
LINE
  5
15C
330
17
100
AcDbEntity
  8
SubLayer
100
AcDbLine
 10
58.269640533834696
 20
46.79990369901798
 30
0.0
 11
54.272077225758316
 21
46.66030571220798
 31
0.0
  0
LINE
  5
15D
330
17
100
AcDbEntity
  8
SubLayer
100
AcDbLine
 10
54.272077225758316
 20
46.66030571220798
 30
0.0
 11
54.41167521256832
 21
42.6627424041316
 31
0.0
  0
LINE
  5
15E
330
17
100
AcDbEntity
  8
SubLayer
100
AcDbLine
 10
-3.510802348674046
 20
85.99267251216861
 30
0.0
 11
0.48676095940233743
 21
86.13227049897861
 31
0.0
  0
LINE
  5
15F
330
17
100
AcDbEntity
  8
SubLayer
100
AcDbLine
 10
0.48676095940233743
 20
86.13227049897861
 30
0.0
 11
0.34716297259233353
 21
90.12983380705501
 31
0.0
  0
LINE
  5
160
330
17
100
AcDbEntity
  8
SubLayer
100
AcDbLine
 10
0.34716297259233353
 20
90.12983380705501
 30
0.0
 11
-3.6504003354840497
 21
89.990235820245
 31
0.0
  0
LINE
  5
161
330
17
100
AcDbEntity
  8
SubLayer
100
AcDbLine
 10
-3.6504003354840497
 20
89.990235820245
 30
0.0
 11
-3.510802348674046
 21
85.99267251216861
 31
0.0
  0
LINE
  5
162
330
17
100
AcDbEntity
  8
SubLayer
100
AcDbLine
 10
-0.34716297259233353
 20
-4.602105957112405
 30
0.0
 11
3.6504003354840497
 21
-4.4625079703024015
 31
0.0
  0
LINE
  5
163
330
17
100
AcDbEntity
  8
SubLayer
100
AcDbLine
 10
3.6504003354840497
 20
-4.4625079703024015
 30
0.0
 11
3.510802348674046
 21
-0.4649446622260185
 31
0.0
  0
LINE
  5
164
330
17
100
AcDbEntity
  8
SubLayer
100
AcDbLine
 10
3.510802348674046
 20
-0.4649446622260185
 30
0.0
 11
-0.48676095940233743
 21
-0.6045426490360224
 31
0.0
  0
LINE
  5
165
330
17
100
AcDbEntity
  8
SubLayer
100
AcDbLine
 10
-0.48676095940233743
 20
-0.6045426490360224
 30
0.0
 11
-0.34716297259233353
 21
-4.602105957112405
 31
0.0
  0
LINE
  5
166
330
17
100
AcDbEntity
  8
SubLayer
100
AcDbLine
 10
402.64650420612406
 20
34.41819090819686
 30
0.0
 11
406.6440675142004
 21
34.557788895006865
 31
0.0
  0
LINE
  5
167
330
17
100
AcDbEntity
  8
SubLayer
100
AcDbLine
 10
-278.2172766799194
 20
10.641903760595552
 30
0.0
 11
-274.21971337184306
 21
10.781501747405555
 31
0.0
  0
LINE
  5
168
330
17
100
AcDbEntity
  8
SubLayer
100
AcDbLine
 10
-143.0439113297298
 20
15.362261693413314
 30
0.0
 11
-137.04756636761525
 21
15.571658673628319
 31
0.0
  0
LINE
  5
169
330
17
100
AcDbEntity
  8
SubLayer
100
AcDbLine
 10
265.4743572018963
 20
29.628033981974102
 30
0.0
 11
271.47070216401085
 21
29.837430962189107
 31
0.0
  0
LINE
  5
16A
330
17
100
AcDbEntity
  8
SubLayer
100
AcDbLine
 10
61.215222936083215
 20
22.495147837693708
 30
0.0
 11
67.21156789819779
 21
22.70454481790871
 31
0.0
  0
LINE
  5
16B
330
17
100
AcDbEntity
  8
SubLayer
100
AcDbLine
 10
-137.97715820122934
 20
13.537977522887626
 30
0.0
 11
-138.11675618803935
 21
17.53554083096401
 31
0.0
  0
LINE
  5
16C
330
17
100
AcDbEntity
  8
SubLayer
100
AcDbLine
 10
-138.11675618803935
 20
17.53554083096401
 30
0.0
 11
-142.1143194961157
 21
17.395942844154007
 31
0.0
  0
LINE
  5
16D
330
17
100
AcDbEntity
  8
SubLayer
100
AcDbLine
 10
-142.1143194961157
 20
17.395942844154007
 30
0.0
 11
-141.9747215093057
 21
13.398379536077623
 31
0.0
  0
LINE
  5
16E
330
17
100
AcDbEntity
  8
SubLayer
100
AcDbLine
 10
-141.9747215093057
 20
13.398379536077623
 30
0.0
 11
-137.97715820122934
 21
13.537977522887626
 31
0.0
  0
LINE
  5
16F
330
17
100
AcDbEntity
  8
SubLayer
100
AcDbLine
 10
270.54111033039675
 20
27.803749811448416
 30
0.0
 11
270.4015123435868
 21
31.8013131195248
 31
0.0
  0
LINE
  5
170
330
17
100
AcDbEntity
  8
SubLayer
100
AcDbLine
 10
270.4015123435868
 20
31.8013131195248
 30
0.0
 11
266.4039490355104
 21
31.661715132714793
 31
0.0
  0
LINE
  5
171
330
17
100
AcDbEntity
  8
SubLayer
100
AcDbLine
 10
266.4039490355104
 20
31.661715132714793
 30
0.0
 11
266.54354702232035
 21
27.66415182463841
 31
0.0
  0
LINE
  5
172
330
17
100
AcDbEntity
  8
SubLayer
100
AcDbLine
 10
266.54354702232035
 20
27.66415182463841
 30
0.0
 11
270.54111033039675
 21
27.803749811448416
 31
0.0
  0
LINE
  5
173
330
17
100
AcDbEntity
  8
SubLayer
100
AcDbLine
 10
66.2819760645837
 20
20.67086366716802
 30
0.0
 11
66.1423780777737
 21
24.668426975244405
 31
0.0
  0
LINE
  5
174
330
17
100
AcDbEntity
  8
SubLayer
100
AcDbLine
 10
66.1423780777737
 20
24.668426975244405
 30
0.0
 11
62.14481476969731
 21
24.528828988434398
 31
0.0
  0
LINE
  5
175
330
17
100
AcDbEntity
  8
SubLayer
100
AcDbLine
 10
62.14481476969731
 20
24.528828988434398
 30
0.0
 11
62.284412756507315
 21
20.531265680358015
 31
0.0
  0
LINE
  5
176
330
17
100
AcDbEntity
  8
SubLayer
100
AcDbLine
 10
62.284412756507315
 20
20.531265680358015
 30
0.0
 11
66.2819760645837
 21
20.67086366716802
 31
0.0
  0
LINE
  5
177
330
17
100
AcDbEntity
  8
SubLayer
100
AcDbLine
 10
503.9959981004058
 20
5.434459921460248
 30
0.0
 11
504.29160386769786
 21
6.389769939383075
 31
0.0
  0
LINE
  5
178
330
17
100
AcDbEntity
  8
SubLayer
100
AcDbLine
 10
503.41585073401666
 20
2.6182483032707307
 30
0.0
 11
503.57145887338004
 21
3.6060671667086925
 31
0.0
  0
LINE
  5
179
330
17
100
AcDbEntity
  8
SubLayer
100
AcDbLine
 10
484.856576363344
 20
11.23364641940589
 30
0.0
 11
485.14936973970947
 21
12.189822155741268
 31
0.0
  0
LINE
  5
17A
330
17
100
AcDbEntity
  8
SubLayer
100
AcDbLine
 10
483.51603181820434
 20
4.631715209500928
 30
0.0
 11
483.64422192861304
 21
5.623464822857747
 31
0.0
  0
LINE
  5
17B
330
17
100
AcDbEntity
  8
SubLayer
100
AcDbLine
 10
446.39291899466275
 20
22.208955043666748
 30
0.0
 11
446.67652434584704
 21
23.167896128812046
 31
0.0
  0
LINE
  5
17C
330
17
100
AcDbEntity
  8
SubLayer
100
AcDbLine
 10
443.5575904798279
 20
7.023734224931138
 30
0.0
 11
443.65160974444257
 21
8.019304603097007
 31
0.0
  0
LINE
  5
17D
330
17
100
AcDbEntity
  8
SubLayer
100
AcDbLine
 10
-81.7814135163769
 20
92.38046738729221
 30
0.0
 11
-81.6418155295669
 21
88.38290407921582
 31
0.0
  0
LINE
  5
17E
330
17
100
AcDbEntity
  8
SubLayer
100
AcDbLine
 10
-77.99745876165082
 20
-15.977819380136827
 30
0.0
 11
-77.85786077484082
 21
-19.97538268821321
 31
0.0
  0
LINE
  5
17F
330
17
100
AcDbEntity
  8
SubLayer
100
AcDbLine
 10
-78.78914920929854
 20
6.693228800368075
 30
0.0
 11
-78.57975222908352
 21
0.6968838382535014
 31
0.0
  0
LINE
  5
180
330
17
100
AcDbEntity
  8
SubLayer
100
AcDbLine
 10
-81.05952206213419
 20
71.7082008608255
 30
0.0
 11
-80.85012508191917
 21
65.71185589871094
 31
0.0
  0
LINE
  5
181
330
17
100
AcDbEntity
  8
SubLayer
100
AcDbLine
 10
-79.92433563571636
 20
39.20071483059679
 30
0.0
 11
-79.71493865550134
 21
33.20436986848221
 31
0.0
  0
LINE
  5
182
330
17
100
AcDbEntity
  8
SubLayer
100
AcDbLine
 10
-80.61343337982423
 20
1.626475671867595
 30
0.0
 11
-76.61587007174784
 21
1.766073658677599
 31
0.0
  0
LINE
  5
183
330
17
100
AcDbEntity
  8
SubLayer
100
AcDbLine
 10
-76.61587007174784
 20
1.766073658677599
 30
0.0
 11
-76.75546805855784
 21
5.763636966753982
 31
0.0
  0
LINE
  5
184
330
17
100
AcDbEntity
  8
SubLayer
100
AcDbLine
 10
-76.75546805855784
 20
5.763636966753982
 30
0.0
 11
-80.75303136663423
 21
5.624038979943978
 31
0.0
  0
LINE
  5
185
330
17
100
AcDbEntity
  8
SubLayer
100
AcDbLine
 10
-80.75303136663423
 20
5.624038979943978
 30
0.0
 11
-80.61343337982423
 21
1.626475671867595
 31
0.0
  0
LINE
  5
186
330
17
100
AcDbEntity
  8
SubLayer
100
AcDbLine
 10
-82.88380623265988
 20
66.64144773232502
 30
0.0
 11
-78.88624292458348
 21
66.78104571913502
 31
0.0
  0
LINE
  5
187
330
17
100
AcDbEntity
  8
SubLayer
100
AcDbLine
 10
-78.88624292458348
 20
66.78104571913502
 30
0.0
 11
-79.02584091139349
 21
70.77860902721142
 31
0.0
  0
LINE
  5
188
330
17
100
AcDbEntity
  8
SubLayer
100
AcDbLine
 10
-79.02584091139349
 20
70.77860902721142
 30
0.0
 11
-83.02340421946988
 21
70.63901104040141
 31
0.0
  0
LINE
  5
189
330
17
100
AcDbEntity
  8
SubLayer
100
AcDbLine
 10
-83.02340421946988
 20
70.63901104040141
 30
0.0
 11
-82.88380623265988
 21
66.64144773232502
 31
0.0
  0
LINE
  5
18A
330
17
100
AcDbEntity
  8
SubLayer
100
AcDbLine
 10
-81.74861980624205
 20
34.13396170209631
 30
0.0
 11
-77.75105649816565
 21
34.27355968890631
 31
0.0
  0
LINE
  5
18B
330
17
100
AcDbEntity
  8
SubLayer
100
AcDbLine
 10
-77.75105649816565
 20
34.27355968890631
 30
0.0
 11
-77.89065448497566
 21
38.27112299698269
 31
0.0
  0
LINE
  5
18C
330
17
100
AcDbEntity
  8
SubLayer
100
AcDbLine
 10
-77.89065448497566
 20
38.27112299698269
 30
0.0
 11
-81.88821779305205
 21
38.13152501017269
 31
0.0
  0
LINE
  5
18D
330
17
100
AcDbEntity
  8
SubLayer
100
AcDbLine
 10
-81.88821779305205
 20
38.13152501017269
 30
0.0
 11
-81.74861980624205
 21
34.13396170209631
 31
0.0
  0
ENDSEC
  0
SECTION
  2
OBJECTS
  0
DICTIONARY
  5
A
330
0
100
AcDbDictionary
280
0
281
1
  3
ACAD_COLOR
350
B
  3
ACAD_GROUP
350
C
  3
ACAD_LAYOUT
350
D
  3
ACAD_MATERIAL
350
E
  3
ACAD_MLEADERSTYLE
350
F
  3
ACAD_MLINESTYLE
350
10
  3
ACAD_PLOTSETTINGS
350
11
  3
ACAD_PLOTSTYLENAME
350
12
  3
ACAD_SCALELIST
350
14
  3
ACAD_TABLESTYLE
350
15
  3
ACAD_VISUALSTYLE
350
16
  3
EZDXF_META
350
2D
  0
DICTIONARY
  5
B
330
A
100
AcDbDictionary
280
0
281
1
  0
DICTIONARY
  5
C
330
A
100
AcDbDictionary
280
0
281
1
  0
DICTIONARY
  5
D
330
A
100
AcDbDictionary
280
0
281
1
  3
Model
350
1A
  3
Layout1
350
1E
  0
DICTIONARY
  5
E
330
A
100
AcDbDictionary
280
0
281
1
  3
ByBlock
350
1F
  3
ByLayer
350
20
  3
Global
350
21
  0
DICTIONARY
  5
F
330
A
100
AcDbDictionary
280
0
281
1
  3
Standard
350
2C
  0
DICTIONARY
  5
10
330
A
100
AcDbDictionary
280
0
281
1
  3
Standard
350
22
  0
DICTIONARY
  5
11
330
A
100
AcDbDictionary
280
0
281
1
  0
ACDBDICTIONARYWDFLT
  5
12
330
A
100
AcDbDictionary
280
0
281
1
  3
Normal
350
13
100
AcDbDictionaryWithDefault
340
13
  0
ACDBPLACEHOLDER
  5
13
330
12
  0
DICTIONARY
  5
14
330
A
100
AcDbDictionary
280
0
281
1
  0
DICTIONARY
  5
15
330
A
100
AcDbDictionary
280
0
281
1
  0
DICTIONARY
  5
16
330
A
100
AcDbDictionary
280
0
281
1
  0
LAYOUT
  5
1A
330
D
100
AcDbPlotSettings
  1

  2
Adobe PDF
  4
A3
  6

 40
7.5
 41
20.0
 42
7.5
 43
20.0
 44
420.0
 45
297.0
 46
0.0
 47
0.0
 48
0.0
 49
0.0
140
0.0
141
0.0
142
1.0
143
1.0
 70
1024
 72
1
 73
0
 74
5
  7

 75
16
 76
0
 77
2
 78
300
147
1.0
148
0.0
149
0.0
100
AcDbLayout
  1
Model
 70
1
 71
0
 10
0.0
 20
0.0
 11
420.0
 21
297.0
 12
0.0
 22
0.0
 32
0.0
 14
1e+20
 24
1e+20
 34
1e+20
 15
-1e+20
 25
-1e+20
 35
-1e+20
146
0.0
 13
0.0
 23
0.0
 33
0.0
 16
1.0
 26
0.0
 36
0.0
 17
0.0
 27
1.0
 37
0.0
 76
1
330
17
  0
LAYOUT
  5
1E
330
D
100
AcDbPlotSettings
  1

  2
Adobe PDF
  4
A3
  6

 40
7.5
 41
20.0
 42
7.5
 43
20.0
 44
420.0
 45
297.0
 46
0.0
 47
0.0
 48
0.0
 49
0.0
140
0.0
141
0.0
142
1.0
143
1.0
 70
0
 72
1
 73
0
 74
5
  7

 75
16
 76
0
 77
2
 78
300
147
1.0
148
0.0
149
0.0
100
AcDbLayout
  1
Layout1
 70
1
 71
1
 10
0.0
 20
0.0
 11
420.0
 21
297.0
 12
0.0
 22
0.0
 32
0.0
 14
1e+20
 24
1e+20
 34
1e+20
 15
-1e+20
 25
-1e+20
 35
-1e+20
146
0.0
 13
0.0
 23
0.0
 33
0.0
 16
1.0
 26
0.0
 36
0.0
 17
0.0
 27
1.0
 37
0.0
 76
1
330
1B
  0
MATERIAL
  5
1F
102
{ACAD_REACTORS
330
E
102
}
330
E
100
AcDbMaterial
  1
ByBlock
  2

 70
0
 40
1.0
 71
1
 41
1.0
 91
-1023410177
 42
1.0
 72
1
  3

 73
1
 74
1
 75
1
 44
0.5
 73
0
 45
1.0
 46
1.0
 77
1
  4

 78
1
 79
1
170
1
 48
1.0
171
1
  6

172
1
173
1
174
1
140
1.0
141
1.0
175
1
  7

176
1
177
1
178
1
143
1.0
179
1
  8

270
1
271
1
272
1
145
1.0
146
1.0
273
1
  9

274
1
275
1
276
1
 42
1.0
 72
1
  3

 73
1
 74
1
 75
1
 94
63
  0
MATERIAL
  5
20
102
{ACAD_REACTORS
330
E
102
}
330
E
100
AcDbMaterial
  1
ByLayer
  2

 70
0
 40
1.0
 71
1
 41
1.0
 91
-1023410177
 42
1.0
 72
1
  3

 73
1
 74
1
 75
1
 44
0.5
 73
0
 45
1.0
 46
1.0
 77
1
  4

 78
1
 79
1
170
1
 48
1.0
171
1
  6

172
1
173
1
174
1
140
1.0
141
1.0
175
1
  7

176
1
177
1
178
1
143
1.0
179
1
  8

270
1
271
1
272
1
145
1.0
146
1.0
273
1
  9

274
1
275
1
276
1
 42
1.0
 72
1
  3

 73
1
 74
1
 75
1
 94
63
  0
MATERIAL
  5
21
102
{ACAD_REACTORS
330
E
102
}
330
E
100
AcDbMaterial
  1
Global
  2

 70
0
 40
1.0
 71
1
 41
1.0
 91
-1023410177
 42
1.0
 72
1
  3

 73
1
 74
1
 75
1
 44
0.5
 73
0
 45
1.0
 46
1.0
 77
1
  4

 78
1
 79
1
170
1
 48
1.0
171
1
  6

172
1
173
1
174
1
140
1.0
141
1.0
175
1
  7

176
1
177
1
178
1
143
1.0
179
1
  8

270
1
271
1
272
1
145
1.0
146
1.0
273
1
  9

274
1
275
1
276
1
 42
1.0
 72
1
  3

 73
1
 74
1
 75
1
 94
63
  0
MLINESTYLE
  5
22
102
{ACAD_REACTORS
330
10
102
}
330
10
100
AcDbMlineStyle
  2
Standard
 70
0
  3

 62
256
 51
90.0
 52
90.0
 71
2
 49
0.5
 62
256
  6
BYLAYER
 49
-0.5
 62
256
  6
BYLAYER
  0
MLEADERSTYLE
  5
2C
102
{ACAD_REACTORS
330
F
102
}
330
F
100
AcDbMLeaderStyle
179
2
170
2
171
1
172
0
 90
2
 40
0.0
 41
0.0
173
1
 91
-1056964608
 92
-2
290
1
 42
2.0
291
1
 43
8.0
  3
Standard
 44
4.0
300

342
29
174
1
175
1
176
0
178
1
 93
-1056964608
 45
4.0
292
0
297
0
 46
4.0
 94
-1056964608
 47
1.0
 49
1.0
140
1.0
294
1
141
0.0
177
0
142
1.0
295
0
296
0
143
3.75
271
0
272
9
273
9
  0
DICTIONARY
  5
2D
330
A
100
AcDbDictionary
281
1
  3
CREATED_BY_EZDXF
350
2E
  3
WRITTEN_BY_EZDXF
350
190
  0
DICTIONARYVAR
  5
2E
330
2D
100
DictionaryVariables
280
0
  1
1.0.2 @ 2023-10-20T04:47:15.634366+00:00
  0
DICTIONARYVAR
  5
190
330
2D
100
DictionaryVariables
280
0
  1
1.0.2 @ 2023-10-20T04:47:15.645330+00:00
  0
ENDSEC
  0
EOF
