  0
SECTION
  2
HEADER
  9
$ACADVER
  1
AC1027
  9
$ACADMAINTVER
 70
105
  9
$DWGCODEPAGE
  3
ANSI_1252
  9
$LASTSAVEDBY
  1
ezdxf
  9
$REQUIREDVERSIONS
160
0
  9
$INSBASE
 10
0.0
 20
0.0
 30
0.0
  9
$EXTMIN
 10
1e+20
 20
1e+20
 30
1e+20
  9
$EXTMAX
 10
-1e+20
 20
-1e+20
 30
-1e+20
  9
$LIMMIN
 10
0.0
 20
0.0
  9
$LIMMAX
 10
420.0
 20
297.0
  9
$ORTHOMODE
 70
0
  9
$REGENMODE
 70
1
  9
$FILLMODE
 70
1
  9
$QTEXTMODE
 70
0
  9
$MIRRTEXT
 70
1
  9
$LTSCALE
 40
1.0
  9
$ATTMODE
 70
1
  9
$TEXTSIZE
 40
2.5
  9
$TRACEWID
 40
1.0
  9
$TEXTSTYLE
  7
Standard
  9
$CLAYER
  8
0
  9
$CELTYPE
  6
ByLayer
  9
$CECOLOR
 62
256
  9
$CELTSCALE
 40
1.0
  9
$DISPSILH
 70
0
  9
$DIMSCALE
 40
1.0
  9
$DIMASZ
 40
2.5
  9
$DIMEXO
 40
0.625
  9
$DIMDLI
 40
3.75
  9
$DIMRND
 40
0.0
  9
$DIMDLE
 40
0.0
  9
$DIMEXE
 40
1.25
  9
$DIMTP
 40
0.0
  9
$DIMTM
 40
0.0
  9
$DIMTXT
 40
2.5
  9
$DIMCEN
 40
2.5
  9
$DIMTSZ
 40
0.0
  9
$DIMTOL
 70
0
  9
$DIMLIM
 70
0
  9
$DIMTIH
 70
0
  9
$DIMTOH
 70
0
  9
$DIMSE1
 70
0
  9
$DIMSE2
 70
0
  9
$DIMTAD
 70
1
  9
$DIMZIN
 70
8
  9
$DIMBLK
  1

  9
$DIMASO
 70
1
  9
$DIMSHO
 70
1
  9
$DIMPOST
  1

  9
$DIMAPOST
  1

  9
$DIMALT
 70
0
  9
$DIMALTD
 70
3
  9
$DIMALTF
 40
0.03937007874
  9
$DIMLFAC
 40
1.0
  9
$DIMTOFL
 70
1
  9
$DIMTVP
 40
0.0
  9
$DIMTIX
 70
0
  9
$DIMSOXD
 70
0
  9
$DIMSAH
 70
0
  9
$DIMBLK1
  1

  9
$DIMBLK2
  1

  9
$DIMSTYLE
  2
ISO-25
  9
$DIMCLRD
 70
0
  9
$DIMCLRE
 70
0
  9
$DIMCLRT
 70
0
  9
$DIMTFAC
 40
1.0
  9
$DIMGAP
 40
0.625
  9
$DIMJUST
 70
0
  9
$DIMSD1
 70
0
  9
$DIMSD2
 70
0
  9
$DIMTOLJ
 70
0
  9
$DIMTZIN
 70
8
  9
$DIMALTZ
 70
0
  9
$DIMALTTZ
 70
0
  9
$DIMUPT
 70
0
  9
$DIMDEC
 70
2
  9
$DIMTDEC
 70
2
  9
$DIMALTU
 70
2
  9
$DIMALTTD
 70
3
  9
$DIMTXSTY
  7
Standard
  9
$DIMAUNIT
 70
0
  9
$DIMADEC
 70
0
  9
$DIMALTRND
 40
0.0
  9
$DIMAZIN
 70
0
  9
$DIMDSEP
 70
44
  9
$DIMATFIT
 70
3
  9
$DIMFRAC
 70
0
  9
$DIMLDRBLK
  1

  9
$DIMLUNIT
 70
2
  9
$DIMLWD
 70
-2
  9
$DIMLWE
 70
-2
  9
$DIMTMOVE
 70
0
  9
$DIMFXL
 40
1.0
  9
$DIMFXLON
 70
0
  9
$DIMJOGANG
 40
0.785398163397
  9
$DIMTFILL
 70
0
  9
$DIMTFILLCLR
 70
0
  9
$DIMARCSYM
 70
0
  9
$DIMLTYPE
  6

  9
$DIMLTEX1
  6

  9
$DIMLTEX2
  6

  9
$DIMTXTDIRECTION
 70
0
  9
$LUNITS
 70
2
  9
$LUPREC
 70
4
  9
$SKETCHINC
 40
1.0
  9
$FILLETRAD
 40
10.0
  9
$AUNITS
 70
0
  9
$AUPREC
 70
2
  9
$MENU
  1
.
  9
$ELEVATION
 40
0.0
  9
$PELEVATION
 40
0.0
  9
$THICKNESS
 40
0.0
  9
$LIMCHECK
 70
0
  9
$CHAMFERA
 40
0.0
  9
$CHAMFERB
 40
0.0
  9
$CHAMFERC
 40
0.0
  9
$CHAMFERD
 40
0.0
  9
$SKPOLY
 70
0
  9
$TDCREATE
 40
2460238.574479167
  9
$TDUCREATE
 40
2458532.153996898
  9
$TDUPDATE
 40
2460238.574479167
  9
$TDUUPDATE
 40
2458532.1544311
  9
$TDINDWG
 40
0.0
  9
$TDUSRTIMER
 40
0.0
  9
$USRTIMER
 70
1
  9
$ANGBASE
 50
0.0
  9
$ANGDIR
 70
0
  9
$PDMODE
 70
0
  9
$PDSIZE
 40
0.0
  9
$PLINEWID
 40
0.0
  9
$SPLFRAME
 70
0
  9
$SPLINETYPE
 70
6
  9
$SPLINESEGS
 70
8
  9
$HANDSEED
  5
1A2
  9
$SURFTAB1
 70
6
  9
$SURFTAB2
 70
6
  9
$SURFTYPE
 70
6
  9
$SURFU
 70
6
  9
$SURFV
 70
6
  9
$UCSBASE
  2

  9
$UCSNAME
  2

  9
$UCSORG
 10
0.0
 20
0.0
 30
0.0
  9
$UCSXDIR
 10
1.0
 20
0.0
 30
0.0
  9
$UCSYDIR
 10
0.0
 20
1.0
 30
0.0
  9
$UCSORTHOREF
  2

  9
$UCSORTHOVIEW
 70
0
  9
$UCSORGTOP
 10
0.0
 20
0.0
 30
0.0
  9
$UCSORGBOTTOM
 10
0.0
 20
0.0
 30
0.0
  9
$UCSORGLEFT
 10
0.0
 20
0.0
 30
0.0
  9
$UCSORGRIGHT
 10
0.0
 20
0.0
 30
0.0
  9
$UCSORGFRONT
 10
0.0
 20
0.0
 30
0.0
  9
$UCSORGBACK
 10
0.0
 20
0.0
 30
0.0
  9
$PUCSBASE
  2

  9
$PUCSNAME
  2

  9
$PUCSORG
 10
0.0
 20
0.0
 30
0.0
  9
$PUCSXDIR
 10
1.0
 20
0.0
 30
0.0
  9
$PUCSYDIR
 10
0.0
 20
1.0
 30
0.0
  9
$PUCSORTHOREF
  2

  9
$PUCSORTHOVIEW
 70
0
  9
$PUCSORGTOP
 10
0.0
 20
0.0
 30
0.0
  9
$PUCSORGBOTTOM
 10
0.0
 20
0.0
 30
0.0
  9
$PUCSORGLEFT
 10
0.0
 20
0.0
 30
0.0
  9
$PUCSORGRIGHT
 10
0.0
 20
0.0
 30
0.0
  9
$PUCSORGFRONT
 10
0.0
 20
0.0
 30
0.0
  9
$PUCSORGBACK
 10
0.0
 20
0.0
 30
0.0
  9
$USERI1
 70
0
  9
$USERI2
 70
0
  9
$USERI3
 70
0
  9
$USERI4
 70
0
  9
$USERI5
 70
0
  9
$USERR1
 40
0.0
  9
$USERR2
 40
0.0
  9
$USERR3
 40
0.0
  9
$USERR4
 40
0.0
  9
$USERR5
 40
0.0
  9
$WORLDVIEW
 70
1
  9
$SHADEDGE
 70
3
  9
$SHADEDIF
 70
70
  9
$TILEMODE
 70
1
  9
$MAXACTVP
 70
64
  9
$PINSBASE
 10
0.0
 20
0.0
 30
0.0
  9
$PLIMCHECK
 70
0
  9
$PEXTMIN
 10
1e+20
 20
1e+20
 30
1e+20
  9
$PEXTMAX
 10
-1e+20
 20
-1e+20
 30
-1e+20
  9
$PLIMMIN
 10
0.0
 20
0.0
  9
$PLIMMAX
 10
420.0
 20
297.0
  9
$UNITMODE
 70
0
  9
$VISRETAIN
 70
1
  9
$PLINEGEN
 70
0
  9
$PSLTSCALE
 70
1
  9
$TREEDEPTH
 70
3020
  9
$CMLSTYLE
  2
Standard
  9
$CMLJUST
 70
0
  9
$CMLSCALE
 40
20.0
  9
$PROXYGRAPHICS
 70
1
  9
$MEASUREMENT
 70
1
  9
$CELWEIGHT
370
-1
  9
$ENDCAPS
280
0
  9
$JOINSTYLE
280
0
  9
$LWDISPLAY
290
0
  9
$INSUNITS
 70
6
  9
$HYPERLINKBASE
  1

  9
$STYLESHEET
  1

  9
$XEDIT
290
1
  9
$CEPSNTYPE
380
0
  9
$PSTYLEMODE
290
1
  9
$FINGERPRINTGUID
  2
{0A32859B-A84F-4A46-B4BF-E157CF338630}
  9
$VERSIONGUID
  2
{72E0B49D-5F8A-4A46-84F6-BDD2336F9ECE}
  9
$EXTNAMES
290
1
  9
$PSVPSCALE
 40
0.0
  9
$OLESTARTUP
290
0
  9
$SORTENTS
280
127
  9
$INDEXCTL
280
0
  9
$HIDETEXT
280
1
  9
$XCLIPFRAME
280
0
  9
$HALOGAP
280
0
  9
$OBSCOLOR
 70
257
  9
$OBSLTYPE
280
0
  9
$INTERSECTIONDISPLAY
280
0
  9
$INTERSECTIONCOLOR
 70
257
  9
$DIMASSOC
280
2
  9
$PROJECTNAME
  1

  9
$CAMERADISPLAY
290
0
  9
$LENSLENGTH
 40
50.0
  9
$CAMERAHEIGHT
 40
0.0
  9
$STEPSPERSEC
 40
24.0
  9
$STEPSIZE
 40
100.0
  9
$3DDWFPREC
 40
2.0
  9
$PSOLWIDTH
 40
0.005
  9
$PSOLHEIGHT
 40
0.08
  9
$LOFTANG1
 40
1.570796326795
  9
$LOFTANG2
 40
1.570796326795
  9
$LOFTMAG1
 40
0.0
  9
$LOFTMAG2
 40
0.0
  9
$LOFTPARAM
 70
7
  9
$LOFTNORMALS
280
1
  9
$LATITUDE
 40
37.795
  9
$LONGITUDE
 40
-122.394
  9
$NORTHDIRECTION
 40
0.0
  9
$TIMEZONE
 70
-8000
  9
$LIGHTGLYPHDISPLAY
280
1
  9
$TILEMODELIGHTSYNCH
280
1
  9
$CMATERIAL
347
20
  9
$SOLIDHIST
280
0
  9
$SHOWHIST
280
1
  9
$DWFFRAME
280
2
  9
$DGNFRAME
280
2
  9
$REALWORLDSCALE
290
1
  9
$INTERFERECOLOR
 62
256
  9
$CSHADOW
280
0
  9
$SHADOWPLANELOCATION
 40
0.0
  0
ENDSEC
  0
SECTION
  2
CLASSES
  0
CLASS
  1
ACDBDICTIONARYWDFLT
  2
AcDbDictionaryWithDefault
  3
ObjectDBX Classes
 90
0
 91
0
280
0
281
0
  0
CLASS
  1
SUN
  2
AcDbSun
  3
SCENEOE
 90
1153
 91
0
280
0
281
0
  0
CLASS
  1
VISUALSTYLE
  2
AcDbVisualStyle
  3
ObjectDBX Classes
 90
4095
 91
0
280
0
281
0
  0
CLASS
  1
MATERIAL
  2
AcDbMaterial
  3
ObjectDBX Classes
 90
1153
 91
0
280
0
281
0
  0
CLASS
  1
SCALE
  2
AcDbScale
  3
ObjectDBX Classes
 90
1153
 91
0
280
0
281
0
  0
CLASS
  1
TABLESTYLE
  2
AcDbTableStyle
  3
ObjectDBX Classes
 90
4095
 91
0
280
0
281
0
  0
CLASS
  1
MLEADERSTYLE
  2
AcDbMLeaderStyle
  3
ACDB_MLEADERSTYLE_CLASS
 90
4095
 91
0
280
0
281
0
  0
CLASS
  1
DICTIONARYVAR
  2
AcDbDictionaryVar
  3
ObjectDBX Classes
 90
0
 91
0
280
0
281
0
  0
CLASS
  1
CELLSTYLEMAP
  2
AcDbCellStyleMap
  3
ObjectDBX Classes
 90
1152
 91
0
280
0
281
0
  0
CLASS
  1
MENTALRAYRENDERSETTINGS
  2
AcDbMentalRayRenderSettings
  3
SCENEOE
 90
1024
 91
0
280
0
281
0
  0
CLASS
  1
ACDBDETAILVIEWSTYLE
  2
AcDbDetailViewStyle
  3
ObjectDBX Classes
 90
1025
 91
0
280
0
281
0
  0
CLASS
  1
ACDBSECTIONVIEWSTYLE
  2
AcDbSectionViewStyle
  3
ObjectDBX Classes
 90
1025
 91
0
280
0
281
0
  0
CLASS
  1
RASTERVARIABLES
  2
AcDbRasterVariables
  3
ISM
 90
0
 91
0
280
0
281
0
  0
CLASS
  1
ACDBPLACEHOLDER
  2
AcDbPlaceHolder
  3
ObjectDBX Classes
 90
0
 91
0
280
0
281
0
  0
CLASS
  1
LAYOUT
  2
AcDbLayout
  3
ObjectDBX Classes
 90
0
 91
0
280
0
281
0
  0
ENDSEC
  0
SECTION
  2
TABLES
  0
TABLE
  2
VPORT
  5
8
330
0
100
AcDbSymbolTable
 70
1
  0
VPORT
  5
23
330
8
100
AcDbSymbolTableRecord
100
AcDbViewportTableRecord
  2
*Active
 70
0
 10
0.0
 20
0.0
 11
1.0
 21
1.0
 12
0.0
 22
0.0
 13
0.0
 23
0.0
 14
0.5
 24
0.5
 15
0.5
 25
0.5
 16
0.0
 26
0.0
 36
1.0
 17
0.0
 27
0.0
 37
0.0
 40
1000.0
 41
1.34
 42
50.0
 43
0.0
 44
0.0
 50
0.0
 51
0.0
 71
0
 72
1000
 73
1
 74
3
 75
0
 76
0
 77
0
 78
0
281
0
 65
0
146
0.0
  0
ENDTAB
  0
TABLE
  2
LTYPE
  5
2
330
0
100
AcDbSymbolTable
 70
3
  0
LTYPE
  5
24
330
2
100
AcDbSymbolTableRecord
100
AcDbLinetypeTableRecord
  2
ByBlock
 70
0
  3

 72
65
 73
0
 40
0.0
  0
LTYPE
  5
25
330
2
100
AcDbSymbolTableRecord
100
AcDbLinetypeTableRecord
  2
ByLayer
 70
0
  3

 72
65
 73
0
 40
0.0
  0
LTYPE
  5
26
330
2
100
AcDbSymbolTableRecord
100
AcDbLinetypeTableRecord
  2
Continuous
 70
0
  3

 72
65
 73
0
 40
0.0
  0
ENDTAB
  0
TABLE
  2
LAYER
  5
1
330
0
100
AcDbSymbolTable
 70
5
  0
LAYER
  5
27
330
1
100
AcDbSymbolTableRecord
100
AcDbLayerTableRecord
  2
0
 70
0
 62
7
  6
Continuous
370
-3
390
13
347
21
  0
LAYER
  5
28
330
1
100
AcDbSymbolTableRecord
100
AcDbLayerTableRecord
  2
Defpoints
 70
0
 62
7
  6
Continuous
290
0
370
-3
390
13
347
21
  0
LAYER
  5
30
330
1
100
AcDbSymbolTableRecord
100
AcDbLayerTableRecord
  2
FoilLayer
 70
0
 62
1
  6
Continuous
370
50
390
13
347
21
  0
LAYER
  5
31
330
1
100
AcDbSymbolTableRecord
100
AcDbLayerTableRecord
  2
StringerLayer
 70
0
 62
1
  6
Continuous
370
50
390
13
347
21
  0
LAYER
  5
32
330
1
100
AcDbSymbolTableRecord
100
AcDbLayerTableRecord
  2
SubLayer
 70
0
 62
1
  6
Continuous
370
50
390
13
347
21
  0
ENDTAB
  0
TABLE
  2
STYLE
  5
5
330
0
100
AcDbSymbolTable
 70
2
  0
STYLE
  5
29
330
5
100
AcDbSymbolTableRecord
100
AcDbTextStyleTableRecord
  2
Standard
 70
0
 40
0.0
 41
1.0
 50
0.0
 71
0
 42
2.5
  3
txt
  4

  0
STYLE
  5
2F
330
5
100
AcDbSymbolTableRecord
100
AcDbTextStyleTableRecord
  2
MSゴシック
 70
0
 40
0.0
 41
1.0
 50
0.0
 71
0
 42
2.5
  3
romans
  4

  0
ENDTAB
  0
TABLE
  2
VIEW
  5
7
330
0
100
AcDbSymbolTable
 70
0
  0
ENDTAB
  0
TABLE
  2
UCS
  5
6
330
0
100
AcDbSymbolTable
 70
0
  0
ENDTAB
  0
TABLE
  2
APPID
  5
3
330
0
100
AcDbSymbolTable
 70
3
  0
APPID
  5
2A
330
3
100
AcDbSymbolTableRecord
100
AcDbRegAppTableRecord
  2
ACAD
 70
0
  0
APPID
  5
19F
330
3
100
AcDbSymbolTableRecord
100
AcDbRegAppTableRecord
  2
HATCHBACKGROUNDCOLOR
 70
0
  0
APPID
  5
1A0
330
3
100
AcDbSymbolTableRecord
100
AcDbRegAppTableRecord
  2
EZDXF
 70
0
  0
ENDTAB
  0
TABLE
  2
DIMSTYLE
  5
4
330
0
100
AcDbSymbolTable
 70
1
100
AcDbDimStyleTable
  0
DIMSTYLE
105
2B
330
4
100
AcDbSymbolTableRecord
100
AcDbDimStyleTableRecord
  2
Standard
 70
0
 40
1.0
 41
2.5
 42
0.625
 43
3.75
 44
1.25
 45
0.0
 46
0.0
 47
0.0
 48
0.0
 49
2.5
140
2.5
141
2.5
142
0.0
143
0.03937007874
144
1.0
145
0.0
146
1.0
147
0.625
148
0.0
 69
0
 70
0
 71
0
 72
0
 73
0
 74
0
 75
0
 76
0
 77
1
 78
8
 79
3
170
0
171
3
172
1
173
0
174
0
175
0
176
0
177
0
178
0
179
2
271
2
272
2
273
2
274
3
275
0
276
0
277
2
278
44
279
0
280
0
281
0
282
0
283
0
284
8
285
0
286
0
288
0
289
3
290
0
371
-2
372
-2
  0
ENDTAB
  0
TABLE
  2
BLOCK_RECORD
  5
9
330
0
100
AcDbSymbolTable
 70
2
  0
BLOCK_RECORD
  5
17
330
9
100
AcDbSymbolTableRecord
100
AcDbBlockTableRecord
  2
*Model_Space
340
1A
 70
0
280
1
281
0
  0
BLOCK_RECORD
  5
1B
330
9
100
AcDbSymbolTableRecord
100
AcDbBlockTableRecord
  2
*Paper_Space
340
1E
 70
0
280
1
281
0
  0
ENDTAB
  0
ENDSEC
  0
SECTION
  2
BLOCKS
  0
BLOCK
  5
18
330
17
100
AcDbEntity
  8
0
100
AcDbBlockBegin
  2
*Model_Space
 70
0
 10
0.0
 20
0.0
 30
0.0
  3
*Model_Space
  1

  0
ENDBLK
  5
19
330
17
100
AcDbEntity
  8
0
100
AcDbBlockEnd
  0
BLOCK
  5
1C
330
1B
100
AcDbEntity
  8
0
100
AcDbBlockBegin
  2
*Paper_Space
 70
0
 10
0.0
 20
0.0
 30
0.0
  3
*Paper_Space
  1

  0
ENDBLK
  5
1D
330
1B
100
AcDbEntity
  8
0
100
AcDbBlockEnd
  0
ENDSEC
  0
SECTION
  2
ENTITIES
  0
LINE
  5
33
330
17
100
AcDbEntity
  8
FoilLayer
100
AcDbLine
 10
492.22634230920715
 20
-0.3868601241978308
 30
0.0
 11
492.07902777866985
 21
-0.3352769187662572
 31
0.0
  0
LINE
  5
34
330
17
100
AcDbEntity
  8
FoilLayer
100
AcDbLine
 10
492.07902777866985
 20
-0.3352769187662572
 30
0.0
 11
491.6274970199193
 21
-0.18218795669139068
 31
0.0
  0
LINE
  5
35
330
17
100
AcDbEntity
  8
FoilLayer
100
AcDbLine
 10
491.6274970199193
 20
-0.18218795669139068
 30
0.0
 11
490.91626821457015
 21
0.06749968992293248
 31
0.0
  0
LINE
  5
36
330
17
100
AcDbEntity
  8
FoilLayer
100
AcDbLine
 10
490.91626821457015
 20
0.06749968992293248
 30
0.0
 11
489.94026196907936
 21
0.4079688776599281
 31
0.0
  0
LINE
  5
37
330
17
100
AcDbEntity
  8
FoilLayer
100
AcDbLine
 10
489.94026196907936
 20
0.4079688776599281
 30
0.0
 11
488.7138696534126
 21
0.8319077923176539
 31
0.0
  0
LINE
  5
38
330
17
100
AcDbEntity
  8
FoilLayer
100
AcDbLine
 10
488.7138696534126
 20
0.8319077923176539
 30
0.0
 11
487.23949086733927
 21
1.3384994273106676
 31
0.0
  0
LINE
  5
39
330
17
100
AcDbEntity
  8
FoilLayer
100
AcDbLine
 10
487.23949086733927
 20
1.3384994273106676
 30
0.0
 11
485.528621383332
 21
1.9138377381261555
 31
0.0
  0
LINE
  5
3A
330
17
100
AcDbEntity
  8
FoilLayer
100
AcDbLine
 10
485.528621383332
 20
1.9138377381261555
 30
0.0
 11
483.57421275107305
 21
2.565307282212478
 31
0.0
  0
LINE
  5
3B
330
17
100
AcDbEntity
  8
FoilLayer
100
AcDbLine
 10
483.57421275107305
 20
2.565307282212478
 30
0.0
 11
481.39618730126944
 21
3.2913329593152505
 31
0.0
  0
LINE
  5
3C
330
17
100
AcDbEntity
  8
FoilLayer
100
AcDbLine
 10
481.39618730126944
 20
3.2913329593152505
 30
0.0
 11
478.9880640266427
 21
4.071323396751254
 31
0.0
  0
LINE
  5
3D
330
17
100
AcDbEntity
  8
FoilLayer
100
AcDbLine
 10
478.9880640266427
 20
4.071323396751254
 30
0.0
 11
476.3546197988317
 21
4.918878280407207
 31
0.0
  0
LINE
  5
3E
330
17
100
AcDbEntity
  8
FoilLayer
100
AcDbLine
 10
476.3546197988317
 20
4.918878280407207
 30
0.0
 11
473.49323191322213
 21
5.819690939848656
 31
0.0
  0
LINE
  5
3F
330
17
100
AcDbEntity
  8
FoilLayer
100
AcDbLine
 10
473.49323191322213
 20
5.819690939848656
 30
0.0
 11
470.4112715638698
 21
6.773813048112136
 31
0.0
  0
LINE
  5
40
330
17
100
AcDbEntity
  8
FoilLayer
100
AcDbLine
 10
470.4112715638698
 20
6.773813048112136
 30
0.0
 11
467.10224029897864
 21
7.78848396517903
 31
0.0
  0
LINE
  5
41
330
17
100
AcDbEntity
  8
FoilLayer
100
AcDbLine
 10
467.10224029897864
 20
7.78848396517903
 30
0.0
 11
463.58175594091625
 21
8.855990719326792
 31
0.0
  0
LINE
  5
42
330
17
100
AcDbEntity
  8
FoilLayer
100
AcDbLine
 10
463.58175594091625
 20
8.855990719326792
 30
0.0
 11
459.8481953195629
 21
9.969244404164755
 31
0.0
  0
LINE
  5
43
330
17
100
AcDbEntity
  8
FoilLayer
100
AcDbLine
 10
459.8481953195629
 20
9.969244404164755
 30
0.0
 11
455.90315027942785
 21
11.135345589670273
 31
0.0
  0
LINE
  5
44
330
17
100
AcDbEntity
  8
FoilLayer
100
AcDbLine
 10
455.90315027942785
 20
11.135345589670273
 30
0.0
 11
451.7458436378883
 21
12.346949593204522
 31
0.0
  0
LINE
  5
45
330
17
100
AcDbEntity
  8
FoilLayer
100
AcDbLine
 10
451.7458436378883
 20
12.346949593204522
 30
0.0
 11
447.3761078234142
 21
13.604102338028984
 31
0.0
  0
LINE
  5
46
330
17
100
AcDbEntity
  8
FoilLayer
100
AcDbLine
 10
447.3761078234142
 20
13.604102338028984
 30
0.0
 11
442.80047312476876
 21
14.907097698255754
 31
0.0
  0
LINE
  5
47
330
17
100
AcDbEntity
  8
FoilLayer
100
AcDbLine
 10
442.80047312476876
 20
14.907097698255754
 30
0.0
 11
438.0213684216188
 21
16.270393156832892
 31
0.0
  0
LINE
  5
48
330
17
100
AcDbEntity
  8
FoilLayer
100
AcDbLine
 10
438.0213684216188
 20
16.270393156832892
 30
0.0
 11
433.0437350318684
 21
17.679586798730945
 31
0.0
  0
LINE
  5
49
330
17
100
AcDbEntity
  8
FoilLayer
100
AcDbLine
 10
433.0437350318684
 20
17.679586798730945
 30
0.0
 11
427.88604938438124
 21
19.148884805050905
 31
0.0
  0
LINE
  5
4A
330
17
100
AcDbEntity
  8
FoilLayer
100
AcDbLine
 10
427.88604938438124
 20
19.148884805050905
 30
0.0
 11
422.54554534526625
 21
20.656346230069378
 31
0.0
  0
LINE
  5
4B
330
17
100
AcDbEntity
  8
FoilLayer
100
AcDbLine
 10
422.54554534526625
 20
20.656346230069378
 30
0.0
 11
417.01574053135124
 21
22.216811713485086
 31
0.0
  0
LINE
  5
4C
330
17
100
AcDbEntity
  8
FoilLayer
100
AcDbLine
 10
417.01574053135124
 20
22.216811713485086
 30
0.0
 11
411.3187561973205
 21
23.822876659016117
 31
0.0
  0
LINE
  5
4D
330
17
100
AcDbEntity
  8
FoilLayer
100
AcDbLine
 10
411.3187561973205
 20
23.822876659016117
 30
0.0
 11
405.455863107285
 21
25.481757400119182
 31
0.0
  0
LINE
  5
4E
330
17
100
AcDbEntity
  8
FoilLayer
100
AcDbLine
 10
405.455863107285
 20
25.481757400119182
 30
0.0
 11
399.4409564176486
 21
27.178658066646133
 31
0.0
  0
LINE
  5
4F
330
17
100
AcDbEntity
  8
FoilLayer
100
AcDbLine
 10
399.4409564176486
 20
27.178658066646133
 30
0.0
 11
393.2755159792179
 21
28.920736618510244
 31
0.0
  0
LINE
  5
50
330
17
100
AcDbEntity
  8
FoilLayer
100
AcDbLine
 10
393.2755159792179
 20
28.920736618510244
 30
0.0
 11
386.95806413005806
 21
30.693259182793486
 31
0.0
  0
LINE
  5
51
330
17
100
AcDbEntity
  8
FoilLayer
100
AcDbLine
 10
386.95806413005806
 20
30.693259182793486
 30
0.0
 11
380.4887082296453
 21
32.50376980748422
 31
0.0
  0
LINE
  5
52
330
17
100
AcDbEntity
  8
FoilLayer
100
AcDbLine
 10
380.4887082296453
 20
32.50376980748422
 30
0.0
 11
373.8904507948026
 21
34.352191017256
 31
0.0
  0
LINE
  5
53
330
17
100
AcDbEntity
  8
FoilLayer
100
AcDbLine
 10
373.8904507948026
 20
34.352191017256
 30
0.0
 11
367.1717636023581
 21
36.23827154949326
 31
0.0
  0
LINE
  5
54
330
17
100
AcDbEntity
  8
FoilLayer
100
AcDbLine
 10
367.1717636023581
 20
36.23827154949326
 30
0.0
 11
360.339991474963
 21
38.14692774751556
 31
0.0
  0
LINE
  5
55
330
17
100
AcDbEntity
  8
FoilLayer
100
AcDbLine
 10
360.339991474963
 20
38.14692774751556
 30
0.0
 11
353.38642979233606
 21
40.0708982798224
 31
0.0
  0
LINE
  5
56
330
17
100
AcDbEntity
  8
FoilLayer
100
AcDbLine
 10
353.38642979233606
 20
40.0708982798224
 30
0.0
 11
346.319107546146
 21
42.01763136790009
 31
0.0
  0
LINE
  5
57
330
17
100
AcDbEntity
  8
FoilLayer
100
AcDbLine
 10
346.319107546146
 20
42.01763136790009
 30
0.0
 11
339.14549131557493
 21
43.987156434409385
 31
0.0
  0
LINE
  5
58
330
17
100
AcDbEntity
  8
FoilLayer
100
AcDbLine
 10
339.14549131557493
 20
43.987156434409385
 30
0.0
 11
331.8812715915238
 21
45.97932536053387
 31
0.0
  0
LINE
  5
59
330
17
100
AcDbEntity
  8
FoilLayer
100
AcDbLine
 10
331.8812715915238
 20
45.97932536053387
 30
0.0
 11
324.53525518181203
 21
47.98623147123918
 31
0.0
  0
LINE
  5
5A
330
17
100
AcDbEntity
  8
FoilLayer
100
AcDbLine
 10
324.53525518181203
 20
47.98623147123918
 30
0.0
 11
317.11274151008246
 21
49.978193574384235
 31
0.0
  0
LINE
  5
5B
330
17
100
AcDbEntity
  8
FoilLayer
100
AcDbLine
 10
317.11274151008246
 20
49.978193574384235
 30
0.0
 11
309.6068763862974
 21
51.97016556124713
 31
0.0
  0
LINE
  5
5C
330
17
100
AcDbEntity
  8
FoilLayer
100
AcDbLine
 10
309.6068763862974
 20
51.97016556124713
 30
0.0
 11
302.8857559997926
 21
53.73429197008026
 31
0.0
  0
LINE
  5
5D
330
17
100
AcDbEntity
  8
FoilLayer
100
AcDbLine
 10
302.8857559997926
 20
53.73429197008026
 30
0.0
 11
302.4922488879674
 21
52.23507479003497
 31
0.0
  0
LINE
  5
5E
330
17
100
AcDbEntity
  8
FoilLayer
100
AcDbLine
 10
302.4922488879674
 20
52.23507479003497
 30
0.0
 11
301.6303488421202
 21
52.46131698733355
 31
0.0
  0
LINE
  5
5F
330
17
100
AcDbEntity
  8
FoilLayer
100
AcDbLine
 10
301.6303488421202
 20
52.46131698733355
 30
0.0
 11
293.9866321592494
 21
54.43658898276749
 31
0.0
  0
LINE
  5
60
330
17
100
AcDbEntity
  8
FoilLayer
100
AcDbLine
 10
293.9866321592494
 20
54.43658898276749
 30
0.0
 11
286.284000642688
 21
56.396317797035294
 31
0.0
  0
LINE
  5
61
330
17
100
AcDbEntity
  8
FoilLayer
100
AcDbLine
 10
286.284000642688
 20
56.396317797035294
 30
0.0
 11
278.5215250427735
 21
58.333179575398304
 31
0.0
  0
LINE
  5
62
330
17
100
AcDbEntity
  8
FoilLayer
100
AcDbLine
 10
278.5215250427735
 20
58.333179575398304
 30
0.0
 11
270.68145846994554
 21
60.24780729601197
 31
0.0
  0
LINE
  5
63
330
17
100
AcDbEntity
  8
FoilLayer
100
AcDbLine
 10
270.68145846994554
 20
60.24780729601197
 30
0.0
 11
262.7923557817531
 21
62.14059123952291
 31
0.0
  0
LINE
  5
64
330
17
100
AcDbEntity
  8
FoilLayer
100
AcDbLine
 10
262.7923557817531
 20
62.14059123952291
 30
0.0
 11
254.86354740080998
 21
64.02446707099828
 31
0.0
  0
LINE
  5
65
330
17
100
AcDbEntity
  8
FoilLayer
100
AcDbLine
 10
254.86354740080998
 20
64.02446707099828
 30
0.0
 11
246.9137526466314
 21
65.8701276236088
 31
0.0
  0
LINE
  5
66
330
17
100
AcDbEntity
  8
FoilLayer
100
AcDbLine
 10
246.9137526466314
 20
65.8701276236088
 30
0.0
 11
238.94336222915575
 21
67.66994515579856
 31
0.0
  0
LINE
  5
67
330
17
100
AcDbEntity
  8
FoilLayer
100
AcDbLine
 10
238.94336222915575
 20
67.66994515579856
 30
0.0
 11
230.94829510883926
 21
69.41566196429893
 31
0.0
  0
LINE
  5
68
330
17
100
AcDbEntity
  8
FoilLayer
100
AcDbLine
 10
230.94829510883926
 20
69.41566196429893
 30
0.0
 11
222.91034278831034
 21
71.08682567496079
 31
0.0
  0
LINE
  5
69
330
17
100
AcDbEntity
  8
FoilLayer
100
AcDbLine
 10
222.91034278831034
 20
71.08682567496079
 30
0.0
 11
214.82582050050365
 21
72.70529019178798
 31
0.0
  0
LINE
  5
6A
330
17
100
AcDbEntity
  8
FoilLayer
100
AcDbLine
 10
214.82582050050365
 20
72.70529019178798
 30
0.0
 11
206.7209724776141
 21
74.270377946603
 31
0.0
  0
LINE
  5
6B
330
17
100
AcDbEntity
  8
FoilLayer
100
AcDbLine
 10
206.7209724776141
 20
74.270377946603
 30
0.0
 11
198.57900484303434
 21
75.77486171369183
 31
0.0
  0
LINE
  5
6C
330
17
100
AcDbEntity
  8
FoilLayer
100
AcDbLine
 10
198.57900484303434
 20
75.77486171369183
 30
0.0
 11
190.42249225620367
 21
77.2112105531339
 31
0.0
  0
LINE
  5
6D
330
17
100
AcDbEntity
  8
FoilLayer
100
AcDbLine
 10
190.42249225620367
 20
77.2112105531339
 30
0.0
 11
182.23534601954623
 21
78.57958842303586
 31
0.0
  0
LINE
  5
6E
330
17
100
AcDbEntity
  8
FoilLayer
100
AcDbLine
 10
182.23534601954623
 20
78.57958842303586
 30
0.0
 11
174.02571490593186
 21
79.87990012249962
 31
0.0
  0
LINE
  5
6F
330
17
100
AcDbEntity
  8
FoilLayer
100
AcDbLine
 10
174.02571490593186
 20
79.87990012249962
 30
0.0
 11
165.78522300628617
 21
81.11226418673742
 31
0.0
  0
LINE
  5
70
330
17
100
AcDbEntity
  8
FoilLayer
100
AcDbLine
 10
165.78522300628617
 20
81.11226418673742
 30
0.0
 11
157.52934212879723
 21
82.27662314163238
 31
0.0
  0
LINE
  5
71
330
17
100
AcDbEntity
  8
FoilLayer
100
AcDbLine
 10
157.52934212879723
 20
82.27662314163238
 30
0.0
 11
149.26613133276584
 21
83.37291039128809
 31
0.0
  0
LINE
  5
72
330
17
100
AcDbEntity
  8
FoilLayer
100
AcDbLine
 10
149.26613133276584
 20
83.37291039128809
 30
0.0
 11
140.98755386729079
 21
84.40118514003241
 31
0.0
  0
LINE
  5
73
330
17
100
AcDbEntity
  8
FoilLayer
100
AcDbLine
 10
140.98755386729079
 20
84.40118514003241
 30
0.0
 11
132.70500287444315
 21
85.36103416270839
 31
0.0
  0
LINE
  5
74
330
17
100
AcDbEntity
  8
FoilLayer
100
AcDbLine
 10
132.70500287444315
 20
85.36103416270839
 30
0.0
 11
124.41131097486249
 21
86.23810123913142
 31
0.0
  0
LINE
  5
75
330
17
100
AcDbEntity
  8
FoilLayer
100
AcDbLine
 10
124.41131097486249
 20
86.23810123913142
 30
0.0
 11
116.1080930590793
 21
87.04730147854308
 31
0.0
  0
LINE
  5
76
330
17
100
AcDbEntity
  8
FoilLayer
100
AcDbLine
 10
116.1080930590793
 20
87.04730147854308
 30
0.0
 11
107.80836353738994
 21
87.79571849295344
 31
0.0
  0
LINE
  5
77
330
17
100
AcDbEntity
  8
FoilLayer
100
AcDbLine
 10
107.80836353738994
 20
87.79571849295344
 30
0.0
 11
99.51266034685085
 21
88.46880359322058
 31
0.0
  0
LINE
  5
78
330
17
100
AcDbEntity
  8
FoilLayer
100
AcDbLine
 10
99.51266034685085
 20
88.46880359322058
 30
0.0
 11
91.22797506585891
 21
89.08116365048474
 31
0.0
  0
LINE
  5
79
330
17
100
AcDbEntity
  8
FoilLayer
100
AcDbLine
 10
91.22797506585891
 20
89.08116365048474
 30
0.0
 11
82.96624644559085
 21
89.6179172863479
 31
0.0
  0
LINE
  5
7A
330
17
100
AcDbEntity
  8
FoilLayer
100
AcDbLine
 10
82.96624644559085
 20
89.6179172863479
 30
0.0
 11
74.71976178044463
 21
90.07907693769421
 31
0.0
  0
LINE
  5
7B
330
17
100
AcDbEntity
  8
FoilLayer
100
AcDbLine
 10
74.71976178044463
 20
90.07907693769421
 30
0.0
 11
66.48661038403742
 21
90.46471790169048
 31
0.0
  0
LINE
  5
7C
330
17
100
AcDbEntity
  8
FoilLayer
100
AcDbLine
 10
66.48661038403742
 20
90.46471790169048
 30
0.0
 11
58.27623405520956
 21
90.78231298697742
 31
0.0
  0
LINE
  5
7D
330
17
100
AcDbEntity
  8
FoilLayer
100
AcDbLine
 10
58.27623405520956
 20
90.78231298697742
 30
0.0
 11
50.09620940335867
 21
91.03186326094114
 31
0.0
  0
LINE
  5
7E
330
17
100
AcDbEntity
  8
FoilLayer
100
AcDbLine
 10
50.09620940335867
 20
91.03186326094114
 30
0.0
 11
41.963746264169856
 21
91.21334192920771
 31
0.0
  0
LINE
  5
7F
330
17
100
AcDbEntity
  8
FoilLayer
100
AcDbLine
 10
41.963746264169856
 20
91.21334192920771
 30
0.0
 11
33.86171518389608
 21
91.31923865670235
 31
0.0
  0
LINE
  5
80
330
17
100
AcDbEntity
  8
FoilLayer
100
AcDbLine
 10
33.86171518389608
 20
91.31923865670235
 30
0.0
 11
25.807209955426117
 21
91.34956893005233
 31
0.0
  0
LINE
  5
81
330
17
100
AcDbEntity
  8
FoilLayer
100
AcDbLine
 10
25.807209955426117
 20
91.34956893005233
 30
0.0
 11
17.777542448673557
 21
91.29670063354027
 31
0.0
  0
LINE
  5
82
330
17
100
AcDbEntity
  8
FoilLayer
100
AcDbLine
 10
17.777542448673557
 20
91.29670063354027
 30
0.0
 11
9.7935787979103
 21
91.18335196377245
 31
0.0
  0
LINE
  5
83
330
17
100
AcDbEntity
  8
FoilLayer
100
AcDbLine
 10
9.7935787979103
 20
91.18335196377245
 30
0.0
 11
1.8742268068914996
 21
91.00964441030948
 31
0.0
  0
LINE
  5
84
330
17
100
AcDbEntity
  8
FoilLayer
100
AcDbLine
 10
1.8742268068914996
 20
91.00964441030948
 30
0.0
 11
-5.993546720969277
 21
90.76031521238134
 31
0.0
  0
LINE
  5
85
330
17
100
AcDbEntity
  8
FoilLayer
100
AcDbLine
 10
-5.993546720969277
 20
90.76031521238134
 30
0.0
 11
-13.781635557499612
 21
90.44317171543423
 31
0.0
  0
LINE
  5
86
330
17
100
AcDbEntity
  8
FoilLayer
100
AcDbLine
 10
-13.781635557499612
 20
90.44317171543423
 30
0.0
 11
-21.520224869423515
 21
90.04272468508381
 31
0.0
  0
LINE
  5
87
330
17
100
AcDbEntity
  8
FoilLayer
100
AcDbLine
 10
-21.520224869423515
 20
90.04272468508381
 30
0.0
 11
-29.197951539148733
 21
89.57428999795174
 31
0.0
  0
LINE
  5
88
330
17
100
AcDbEntity
  8
FoilLayer
100
AcDbLine
 10
-29.197951539148733
 20
89.57428999795174
 30
0.0
 11
-36.81632523574265
 21
89.03775514763907
 31
0.0
  0
LINE
  5
89
330
17
100
AcDbEntity
  8
FoilLayer
100
AcDbLine
 10
-36.81632523574265
 20
89.03775514763907
 30
0.0
 11
-44.350842361031255
 21
88.44081892382128
 31
0.0
  0
LINE
  5
8A
330
17
100
AcDbEntity
  8
FoilLayer
100
AcDbLine
 10
-44.350842361031255
 20
88.44081892382128
 30
0.0
 11
-51.790207687944246
 21
87.78386308391153
 31
0.0
  0
LINE
  5
8B
330
17
100
AcDbEntity
  8
FoilLayer
100
AcDbLine
 10
-51.790207687944246
 20
87.78386308391153
 30
0.0
 11
-59.14400394432036
 21
87.0516556811619
 31
0.0
  0
LINE
  5
8C
330
17
100
AcDbEntity
  8
FoilLayer
100
AcDbLine
 10
-59.14400394432036
 20
87.0516556811619
 30
0.0
 11
-66.4275381690288
 21
86.235749979233
 31
0.0
  0
LINE
  5
8D
330
17
100
AcDbEntity
  8
FoilLayer
100
AcDbLine
 10
-66.4275381690288
 20
86.235749979233
 30
0.0
 11
-73.62709731381486
 21
85.35951192298651
 31
0.0
  0
LINE
  5
8E
330
17
100
AcDbEntity
  8
FoilLayer
100
AcDbLine
 10
-73.62709731381486
 20
85.35951192298651
 30
0.0
 11
-80.73532612646903
 21
84.42293052206554
 31
0.0
  0
LINE
  5
8F
330
17
100
AcDbEntity
  8
FoilLayer
100
AcDbLine
 10
-80.73532612646903
 20
84.42293052206554
 30
0.0
 11
-87.75368394328612
 21
83.42579762690755
 31
0.0
  0
LINE
  5
90
330
17
100
AcDbEntity
  8
FoilLayer
100
AcDbLine
 10
-87.75368394328612
 20
83.42579762690755
 30
0.0
 11
-94.66086562245687
 21
82.37666110230248
 31
0.0
  0
LINE
  5
91
330
17
100
AcDbEntity
  8
FoilLayer
100
AcDbLine
 10
-94.66086562245687
 20
82.37666110230248
 30
0.0
 11
-101.4545164406398
 21
81.25963382788541
 31
0.0
  0
LINE
  5
92
330
17
100
AcDbEntity
  8
FoilLayer
100
AcDbLine
 10
-101.4545164406398
 20
81.25963382788541
 30
0.0
 11
-108.15130636681064
 21
80.07442654293135
 31
0.0
  0
LINE
  5
93
330
17
100
AcDbEntity
  8
FoilLayer
100
AcDbLine
 10
-108.15130636681064
 20
80.07442654293135
 30
0.0
 11
-114.74821002066355
 21
78.82916583188555
 31
0.0
  0
LINE
  5
94
330
17
100
AcDbEntity
  8
FoilLayer
100
AcDbLine
 10
-114.74821002066355
 20
78.82916583188555
 30
0.0
 11
-121.2330370372712
 21
77.52327348809774
 31
0.0
  0
LINE
  5
95
330
17
100
AcDbEntity
  8
FoilLayer
100
AcDbLine
 10
-121.2330370372712
 20
77.52327348809774
 30
0.0
 11
-127.6053361604726
 21
76.16437265926454
 31
0.0
  0
LINE
  5
96
330
17
100
AcDbEntity
  8
FoilLayer
100
AcDbLine
 10
-127.6053361604726
 20
76.16437265926454
 30
0.0
 11
-133.85240995124562
 21
74.76121611689949
 31
0.0
  0
LINE
  5
97
330
17
100
AcDbEntity
  8
FoilLayer
100
AcDbLine
 10
-133.85240995124562
 20
74.76121611689949
 30
0.0
 11
-139.95938397466486
 21
73.30632621729131
 31
0.0
  0
LINE
  5
98
330
17
100
AcDbEntity
  8
FoilLayer
100
AcDbLine
 10
-139.95938397466486
 20
73.30632621729131
 30
0.0
 11
-145.95364627508604
 21
71.78347255662754
 31
0.0
  0
LINE
  5
99
330
17
100
AcDbEntity
  8
FoilLayer
100
AcDbLine
 10
-145.95364627508604
 20
71.78347255662754
 30
0.0
 11
-151.8282066247682
 21
70.20002623890025
 31
0.0
  0
LINE
  5
9A
330
17
100
AcDbEntity
  8
FoilLayer
100
AcDbLine
 10
-151.8282066247682
 20
70.20002623890025
 30
0.0
 11
-157.5864258829547
 21
68.56250001625571
 31
0.0
  0
LINE
  5
9B
330
17
100
AcDbEntity
  8
FoilLayer
100
AcDbLine
 10
-157.5864258829547
 20
68.56250001625571
 30
0.0
 11
-163.20101611745014
 21
66.89720278672102
 31
0.0
  0
LINE
  5
9C
330
17
100
AcDbEntity
  8
FoilLayer
100
AcDbLine
 10
-163.20101611745014
 20
66.89720278672102
 30
0.0
 11
-168.68669827978857
 21
65.17940397674758
 31
0.0
  0
LINE
  5
9D
330
17
100
AcDbEntity
  8
FoilLayer
100
AcDbLine
 10
-168.68669827978857
 20
65.17940397674758
 30
0.0
 11
-174.02901533449875
 21
63.416451942738256
 31
0.0
  0
LINE
  5
9E
330
17
100
AcDbEntity
  8
FoilLayer
100
AcDbLine
 10
-174.02901533449875
 20
63.416451942738256
 30
0.0
 11
-179.23979636914123
 21
61.60953631995367
 31
0.0
  0
LINE
  5
9F
330
17
100
AcDbEntity
  8
FoilLayer
100
AcDbLine
 10
-179.23979636914123
 20
61.60953631995367
 30
0.0
 11
-184.3098336763124
 21
59.75653773842147
 31
0.0
  0
LINE
  5
A0
330
17
100
AcDbEntity
  8
FoilLayer
100
AcDbLine
 10
-184.3098336763124
 20
59.75653773842147
 30
0.0
 11
-189.25061218224783
 21
57.86633940263686
 31
0.0
  0
LINE
  5
A1
330
17
100
AcDbEntity
  8
FoilLayer
100
AcDbLine
 10
-189.25061218224783
 20
57.86633940263686
 30
0.0
 11
-194.0452065700893
 21
55.947295173489
 31
0.0
  0
LINE
  5
A2
330
17
100
AcDbEntity
  8
FoilLayer
100
AcDbLine
 10
-194.0452065700893
 20
55.947295173489
 30
0.0
 11
-198.68693197635292
 21
53.99915664863861
 31
0.0
  0
LINE
  5
A3
330
17
100
AcDbEntity
  8
FoilLayer
100
AcDbLine
 10
-198.68693197635292
 20
53.99915664863861
 30
0.0
 11
-203.17314202358094
 21
52.02325084999929
 31
0.0
  0
LINE
  5
A4
330
17
100
AcDbEntity
  8
FoilLayer
100
AcDbLine
 10
-203.17314202358094
 20
52.02325084999929
 30
0.0
 11
-207.51281445949402
 21
50.00792668970264
 31
0.0
  0
LINE
  5
A5
330
17
100
AcDbEntity
  8
FoilLayer
100
AcDbLine
 10
-207.51281445949402
 20
50.00792668970264
 30
0.0
 11
-211.70458397233995
 21
47.97256888337442
 31
0.0
  0
LINE
  5
A6
330
17
100
AcDbEntity
  8
FoilLayer
100
AcDbLine
 10
-211.70458397233995
 20
47.97256888337442
 30
0.0
 11
-215.75610319143098
 21
45.905822085679056
 31
0.0
  0
LINE
  5
A7
330
17
100
AcDbEntity
  8
FoilLayer
100
AcDbLine
 10
-215.75610319143098
 20
45.905822085679056
 30
0.0
 11
-219.64151716049776
 21
43.83614855631066
 31
0.0
  0
LINE
  5
A8
330
17
100
AcDbEntity
  8
FoilLayer
100
AcDbLine
 10
-219.64151716049776
 20
43.83614855631066
 30
0.0
 11
-223.37249841056894
 21
41.74213260919703
 31
0.0
  0
LINE
  5
A9
330
17
100
AcDbEntity
  8
FoilLayer
100
AcDbLine
 10
-223.37249841056894
 20
41.74213260919703
 30
0.0
 11
-226.9256798739086
 21
39.655910032290166
 31
0.0
  0
LINE
  5
AA
330
17
100
AcDbEntity
  8
FoilLayer
100
AcDbLine
 10
-226.9256798739086
 20
39.655910032290166
 30
0.0
 11
-230.32145256557988
 21
37.53994430147283
 31
0.0
  0
LINE
  5
AB
330
17
100
AcDbEntity
  8
FoilLayer
100
AcDbLine
 10
-230.32145256557988
 20
37.53994430147283
 30
0.0
 11
-233.55399887364507
 21
35.40805893836583
 31
0.0
  0
LINE
  5
AC
330
17
100
AcDbEntity
  8
FoilLayer
100
AcDbLine
 10
-233.55399887364507
 20
35.40805893836583
 30
0.0
 11
-236.6450882059414
 21
33.26065831685479
 31
0.0
  0
LINE
  5
AD
330
17
100
AcDbEntity
  8
FoilLayer
100
AcDbLine
 10
-236.6450882059414
 20
33.26065831685479
 30
0.0
 11
-239.57084133345947
 21
31.126978321810697
 31
0.0
  0
LINE
  5
AE
330
17
100
AcDbEntity
  8
FoilLayer
100
AcDbLine
 10
-239.57084133345947
 20
31.126978321810697
 30
0.0
 11
-242.32191045655915
 21
29.003175673437354
 31
0.0
  0
LINE
  5
AF
330
17
100
AcDbEntity
  8
FoilLayer
100
AcDbLine
 10
-242.32191045655915
 20
29.003175673437354
 30
0.0
 11
-244.89629045484344
 21
26.89782414969335
 31
0.0
  0
LINE
  5
B0
330
17
100
AcDbEntity
  8
FoilLayer
100
AcDbLine
 10
-244.89629045484344
 20
26.89782414969335
 30
0.0
 11
-247.29892514961588
 21
24.78602673767497
 31
0.0
  0
LINE
  5
B1
330
17
100
AcDbEntity
  8
FoilLayer
100
AcDbLine
 10
-247.29892514961588
 20
24.78602673767497
 30
0.0
 11
-249.54010544966943
 21
22.672457688066423
 31
0.0
  0
LINE
  5
B2
330
17
100
AcDbEntity
  8
FoilLayer
100
AcDbLine
 10
-249.54010544966943
 20
22.672457688066423
 30
0.0
 11
-251.61735417748457
 21
20.582385127292113
 31
0.0
  0
LINE
  5
B3
330
17
100
AcDbEntity
  8
FoilLayer
100
AcDbLine
 10
-251.61735417748457
 20
20.582385127292113
 30
0.0
 11
-253.53298189704864
 21
18.505833452758058
 31
0.0
  0
LINE
  5
B4
330
17
100
AcDbEntity
  8
FoilLayer
100
AcDbLine
 10
-253.53298189704864
 20
18.505833452758058
 30
0.0
 11
-255.2794184248276
 21
16.476252919992447
 31
0.0
  0
LINE
  5
B5
330
17
100
AcDbEntity
  8
FoilLayer
100
AcDbLine
 10
-255.2794184248276
 20
16.476252919992447
 30
0.0
 11
-256.8556999704821
 21
14.470498389232011
 31
0.0
  0
LINE
  5
B6
330
17
100
AcDbEntity
  8
FoilLayer
100
AcDbLine
 10
-256.8556999704821
 20
14.470498389232011
 30
0.0
 11
-258.25340454555544
 21
12.523916334350483
 31
0.0
  0
LINE
  5
B7
330
17
100
AcDbEntity
  8
FoilLayer
100
AcDbLine
 10
-258.25340454555544
 20
12.523916334350483
 30
0.0
 11
-259.4723156323579
 21
10.633574934796503
 31
0.0
  0
LINE
  5
B8
330
17
100
AcDbEntity
  8
FoilLayer
100
AcDbLine
 10
-259.4723156323579
 20
10.633574934796503
 30
0.0
 11
-260.52469868662445
 21
8.766274239264018
 31
0.0
  0
LINE
  5
B9
330
17
100
AcDbEntity
  8
FoilLayer
100
AcDbLine
 10
-260.52469868662445
 20
8.766274239264018
 30
0.0
 11
-261.3733949253314
 21
7.043233034801801
 31
0.0
  0
LINE
  5
BA
330
17
100
AcDbEntity
  8
FoilLayer
100
AcDbLine
 10
-261.3733949253314
 20
7.043233034801801
 30
0.0
 11
-262.09750946123864
 21
5.174705339494901
 31
0.0
  0
LINE
  5
BB
330
17
100
AcDbEntity
  8
FoilLayer
100
AcDbLine
 10
-262.09750946123864
 20
5.174705339494901
 30
0.0
 11
-262.59311596507126
 21
3.7948494481435415
 31
0.0
  0
LINE
  5
BC
330
17
100
AcDbEntity
  8
FoilLayer
100
AcDbLine
 10
-262.59311596507126
 20
3.7948494481435415
 30
0.0
 11
-262.9446625588181
 21
2.0219895689338068
 31
0.0
  0
LINE
  5
BD
330
17
100
AcDbEntity
  8
FoilLayer
100
AcDbLine
 10
-262.9446625588181
 20
2.0219895689338068
 30
0.0
 11
-263.12499999999994
 21
0.2272568177045311
 31
0.0
  0
LINE
  5
BE
330
17
100
AcDbEntity
  8
FoilLayer
100
AcDbLine
 10
-263.12499999999994
 20
0.2272568177045311
 30
0.0
 11
-263.1310722532812
 21
-0.17581633208092842
 31
0.0
  0
LINE
  5
BF
330
17
100
AcDbEntity
  8
FoilLayer
100
AcDbLine
 10
-263.1310722532812
 20
-0.17581633208092842
 30
0.0
 11
-262.9802273621494
 21
-1.7916654202840547
 31
0.0
  0
LINE
  5
C0
330
17
100
AcDbEntity
  8
FoilLayer
100
AcDbLine
 10
-262.9802273621494
 20
-1.7916654202840547
 30
0.0
 11
-262.62967504467036
 21
-2.942597622608401
 31
0.0
  0
LINE
  5
C1
330
17
100
AcDbEntity
  8
FoilLayer
100
AcDbLine
 10
-262.62967504467036
 20
-2.942597622608401
 30
0.0
 11
-262.09982463240783
 21
-4.057892325799008
 31
0.0
  0
LINE
  5
C2
330
17
100
AcDbEntity
  8
FoilLayer
100
AcDbLine
 10
-262.09982463240783
 20
-4.057892325799008
 30
0.0
 11
-261.32929859869137
 21
-5.1837365088945795
 31
0.0
  0
LINE
  5
C3
330
17
100
AcDbEntity
  8
FoilLayer
100
AcDbLine
 10
-261.32929859869137
 20
-5.1837365088945795
 30
0.0
 11
-260.37384438318173
 21
-6.275966206399932
 31
0.0
  0
LINE
  5
C4
330
17
100
AcDbEntity
  8
FoilLayer
100
AcDbLine
 10
-260.37384438318173
 20
-6.275966206399932
 30
0.0
 11
-259.19470770911437
 21
-7.3361724772063255
 31
0.0
  0
LINE
  5
C5
330
17
100
AcDbEntity
  8
FoilLayer
100
AcDbLine
 10
-259.19470770911437
 20
-7.3361724772063255
 30
0.0
 11
-257.80866321905006
 21
-8.342192322213451
 31
0.0
  0
LINE
  5
C6
330
17
100
AcDbEntity
  8
FoilLayer
100
AcDbLine
 10
-257.80866321905006
 20
-8.342192322213451
 30
0.0
 11
-256.1737359052388
 21
-9.292916878179412
 31
0.0
  0
LINE
  5
C7
330
17
100
AcDbEntity
  8
FoilLayer
100
AcDbLine
 10
-256.1737359052388
 20
-9.292916878179412
 30
0.0
 11
-254.23457686364245
 21
-10.201546437074176
 31
0.0
  0
LINE
  5
C8
330
17
100
AcDbEntity
  8
FoilLayer
100
AcDbLine
 10
-254.23457686364245
 20
-10.201546437074176
 30
0.0
 11
-252.01188098323806
 21
-11.088208641683838
 31
0.0
  0
LINE
  5
C9
330
17
100
AcDbEntity
  8
FoilLayer
100
AcDbLine
 10
-252.01188098323806
 20
-11.088208641683838
 30
0.0
 11
-249.53617218952377
 21
-11.953988371840742
 31
0.0
  0
LINE
  5
CA
330
17
100
AcDbEntity
  8
FoilLayer
100
AcDbLine
 10
-249.53617218952377
 20
-11.953988371840742
 30
0.0
 11
-246.88364291657666
 21
-12.786196681154088
 31
0.0
  0
LINE
  5
CB
330
17
100
AcDbEntity
  8
FoilLayer
100
AcDbLine
 10
-246.88364291657666
 20
-12.786196681154088
 30
0.0
 11
-244.00682437945633
 21
-13.554996766944718
 31
0.0
  0
LINE
  5
CC
330
17
100
AcDbEntity
  8
FoilLayer
100
AcDbLine
 10
-244.00682437945633
 20
-13.554996766944718
 30
0.0
 11
-240.88676880609205
 21
-14.255740519966752
 31
0.0
  0
LINE
  5
CD
330
17
100
AcDbEntity
  8
FoilLayer
100
AcDbLine
 10
-240.88676880609205
 20
-14.255740519966752
 30
0.0
 11
-237.51769196458025
 21
-14.914999030724225
 31
0.0
  0
LINE
  5
CE
330
17
100
AcDbEntity
  8
FoilLayer
100
AcDbLine
 10
-237.51769196458025
 20
-14.914999030724225
 30
0.0
 11
-233.9101513697399
 21
-15.54534670425456
 31
0.0
  0
LINE
  5
CF
330
17
100
AcDbEntity
  8
FoilLayer
100
AcDbLine
 10
-233.9101513697399
 20
-15.54534670425456
 30
0.0
 11
-230.1174841957926
 21
-16.13690884288909
 31
0.0
  0
LINE
  5
D0
330
17
100
AcDbEntity
  8
FoilLayer
100
AcDbLine
 10
-230.1174841957926
 20
-16.13690884288909
 30
0.0
 11
-226.11644691627927
 21
-16.661887553672038
 31
0.0
  0
LINE
  5
D1
330
17
100
AcDbEntity
  8
FoilLayer
100
AcDbLine
 10
-226.11644691627927
 20
-16.661887553672038
 30
0.0
 11
-221.89360917114988
 21
-17.120539509798245
 31
0.0
  0
LINE
  5
D2
330
17
100
AcDbEntity
  8
FoilLayer
100
AcDbLine
 10
-221.89360917114988
 20
-17.120539509798245
 30
0.0
 11
-217.42261897112843
 21
-17.527791376843673
 31
0.0
  0
LINE
  5
D3
330
17
100
AcDbEntity
  8
FoilLayer
100
AcDbLine
 10
-217.42261897112843
 20
-17.527791376843673
 30
0.0
 11
-212.72946345426013
 21
-17.905142284672394
 31
0.0
  0
LINE
  5
D4
330
17
100
AcDbEntity
  8
FoilLayer
100
AcDbLine
 10
-212.72946345426013
 20
-17.905142284672394
 30
0.0
 11
-207.846458674041
 21
-18.251942116986857
 31
0.0
  0
LINE
  5
D5
330
17
100
AcDbEntity
  8
FoilLayer
100
AcDbLine
 10
-207.846458674041
 20
-18.251942116986857
 30
0.0
 11
-202.7887594734455
 21
-18.54574026521351
 31
0.0
  0
LINE
  5
D6
330
17
100
AcDbEntity
  8
FoilLayer
100
AcDbLine
 10
-202.7887594734455
 20
-18.54574026521351
 30
0.0
 11
-197.52361204296813
 21
-18.76461808414775
 31
0.0
  0
LINE
  5
D7
330
17
100
AcDbEntity
  8
FoilLayer
100
AcDbLine
 10
-197.52361204296813
 20
-18.76461808414775
 30
0.0
 11
-192.04985942256747
 21
-18.93080186254054
 31
0.0
  0
LINE
  5
D8
330
17
100
AcDbEntity
  8
FoilLayer
100
AcDbLine
 10
-192.04985942256747
 20
-18.93080186254054
 30
0.0
 11
-186.34213236482927
 21
-19.05179379890371
 31
0.0
  0
LINE
  5
D9
330
17
100
AcDbEntity
  8
FoilLayer
100
AcDbLine
 10
-186.34213236482927
 20
-19.05179379890371
 30
0.0
 11
-180.45938234763292
 21
-19.14249804381382
 31
0.0
  0
LINE
  5
DA
330
17
100
AcDbEntity
  8
FoilLayer
100
AcDbLine
 10
-180.45938234763292
 20
-19.14249804381382
 30
0.0
 11
-174.39619179094854
 21
-19.180348601068943
 31
0.0
  0
LINE
  5
DB
330
17
100
AcDbEntity
  8
FoilLayer
100
AcDbLine
 10
-174.39619179094854
 20
-19.180348601068943
 30
0.0
 11
-168.15757938230493
 21
-19.157776005637086
 31
0.0
  0
LINE
  5
DC
330
17
100
AcDbEntity
  8
FoilLayer
100
AcDbLine
 10
-168.15757938230493
 20
-19.157776005637086
 30
0.0
 11
-161.70647898204595
 21
-19.074612725059666
 31
0.0
  0
LINE
  5
DD
330
17
100
AcDbEntity
  8
FoilLayer
100
AcDbLine
 10
-161.70647898204595
 20
-19.074612725059666
 30
0.0
 11
-155.0459010644384
 21
-18.953519214630564
 31
0.0
  0
LINE
  5
DE
330
17
100
AcDbEntity
  8
FoilLayer
100
AcDbLine
 10
-155.0459010644384
 20
-18.953519214630564
 30
0.0
 11
-148.20021513765056
 21
-18.80982212697551
 31
0.0
  0
LINE
  5
DF
330
17
100
AcDbEntity
  8
FoilLayer
100
AcDbLine
 10
-148.20021513765056
 20
-18.80982212697551
 30
0.0
 11
-141.2087987743351
 21
-18.628484669592435
 31
0.0
  0
LINE
  5
E0
330
17
100
AcDbEntity
  8
FoilLayer
100
AcDbLine
 10
-141.2087987743351
 20
-18.628484669592435
 30
0.0
 11
-134.0458057394534
 21
-18.386469484758287
 31
0.0
  0
LINE
  5
E1
330
17
100
AcDbEntity
  8
FoilLayer
100
AcDbLine
 10
-134.0458057394534
 20
-18.386469484758287
 30
0.0
 11
-126.70790070186558
 21
-18.099030555283953
 31
0.0
  0
LINE
  5
E2
330
17
100
AcDbEntity
  8
FoilLayer
100
AcDbLine
 10
-126.70790070186558
 20
-18.099030555283953
 30
0.0
 11
-119.1705161134737
 21
-17.76571907627909
 31
0.0
  0
LINE
  5
E3
330
17
100
AcDbEntity
  8
FoilLayer
100
AcDbLine
 10
-119.1705161134737
 20
-17.76571907627909
 30
0.0
 11
-111.4651013369172
 21
-17.425115974668856
 31
0.0
  0
LINE
  5
E4
330
17
100
AcDbEntity
  8
FoilLayer
100
AcDbLine
 10
-111.4651013369172
 20
-17.425115974668856
 30
0.0
 11
-103.6250095063213
 21
-17.054316255638142
 31
0.0
  0
LINE
  5
E5
330
17
100
AcDbEntity
  8
FoilLayer
100
AcDbLine
 10
-103.6250095063213
 20
-17.054316255638142
 30
0.0
 11
-95.65169349985942
 21
-16.645846426475618
 31
0.0
  0
LINE
  5
E6
330
17
100
AcDbEntity
  8
FoilLayer
100
AcDbLine
 10
-95.65169349985942
 20
-16.645846426475618
 30
0.0
 11
-87.51523827203062
 21
-16.184161908524505
 31
0.0
  0
LINE
  5
E7
330
17
100
AcDbEntity
  8
FoilLayer
100
AcDbLine
 10
-87.51523827203062
 20
-16.184161908524505
 30
0.0
 11
-79.210536959065
 21
-15.68406255698126
 31
0.0
  0
LINE
  5
E8
330
17
100
AcDbEntity
  8
FoilLayer
100
AcDbLine
 10
-79.210536959065
 20
-15.68406255698126
 30
0.0
 11
-75.86796792492581
 21
-15.486560716110006
 31
0.0
  0
LINE
  5
E9
330
17
100
AcDbEntity
  8
FoilLayer
100
AcDbLine
 10
-75.86796792492581
 20
-15.486560716110006
 30
0.0
 11
-75.77654278310828
 21
-17.03386205826791
 31
0.0
  0
LINE
  5
EA
330
17
100
AcDbEntity
  8
FoilLayer
100
AcDbLine
 10
-75.77654278310828
 20
-17.03386205826791
 30
0.0
 11
-70.65802334326554
 21
-16.73142513699462
 31
0.0
  0
LINE
  5
EB
330
17
100
AcDbEntity
  8
FoilLayer
100
AcDbLine
 10
-70.65802334326554
 20
-16.73142513699462
 30
0.0
 11
-62.08407503992578
 21
-16.21638393907703
 31
0.0
  0
LINE
  5
EC
330
17
100
AcDbEntity
  8
FoilLayer
100
AcDbLine
 10
-62.08407503992578
 20
-16.21638393907703
 30
0.0
 11
-53.39756840133268
 21
-15.671116443660456
 31
0.0
  0
LINE
  5
ED
330
17
100
AcDbEntity
  8
FoilLayer
100
AcDbLine
 10
-53.39756840133268
 20
-15.671116443660456
 30
0.0
 11
-44.58029814594772
 21
-15.072693559297239
 31
0.0
  0
LINE
  5
EE
330
17
100
AcDbEntity
  8
FoilLayer
100
AcDbLine
 10
-44.58029814594772
 20
-15.072693559297239
 30
0.0
 11
-35.625945317095415
 21
-14.45907060685022
 31
0.0
  0
LINE
  5
EF
330
17
100
AcDbEntity
  8
FoilLayer
100
AcDbLine
 10
-35.625945317095415
 20
-14.45907060685022
 30
0.0
 11
-26.54255511264327
 21
-13.84543093799483
 31
0.0
  0
LINE
  5
F0
330
17
100
AcDbEntity
  8
FoilLayer
100
AcDbLine
 10
-26.54255511264327
 20
-13.84543093799483
 30
0.0
 11
-17.362941489512167
 21
-13.239518576012049
 31
0.0
  0
LINE
  5
F1
330
17
100
AcDbEntity
  8
FoilLayer
100
AcDbLine
 10
-17.362941489512167
 20
-13.239518576012049
 30
0.0
 11
-8.0991962057862
 21
-12.59567755940128
 31
0.0
  0
LINE
  5
F2
330
17
100
AcDbEntity
  8
FoilLayer
100
AcDbLine
 10
-8.0991962057862
 20
-12.59567755940128
 30
0.0
 11
1.2637835269790116
 21
-11.929057643154122
 31
0.0
  0
LINE
  5
F3
330
17
100
AcDbEntity
  8
FoilLayer
100
AcDbLine
 10
1.2637835269790116
 20
-11.929057643154122
 30
0.0
 11
10.733119977097886
 21
-11.254840990266446
 31
0.0
  0
LINE
  5
F4
330
17
100
AcDbEntity
  8
FoilLayer
100
AcDbLine
 10
10.733119977097886
 20
-11.254840990266446
 30
0.0
 11
20.29400692941408
 21
-10.580579767150029
 31
0.0
  0
LINE
  5
F5
330
17
100
AcDbEntity
  8
FoilLayer
100
AcDbLine
 10
20.29400692941408
 20
-10.580579767150029
 30
0.0
 11
29.92914024923391
 21
-9.92157335268453
 31
0.0
  0
LINE
  5
F6
330
17
100
AcDbEntity
  8
FoilLayer
100
AcDbLine
 10
29.92914024923391
 20
-9.92157335268453
 30
0.0
 11
39.60945703861245
 21
-9.247436244860829
 31
0.0
  0
LINE
  5
F7
330
17
100
AcDbEntity
  8
FoilLayer
100
AcDbLine
 10
39.60945703861245
 20
-9.247436244860829
 30
0.0
 11
49.35902066120491
 21
-8.550497809757033
 31
0.0
  0
LINE
  5
F8
330
17
100
AcDbEntity
  8
FoilLayer
100
AcDbLine
 10
49.35902066120491
 20
-8.550497809757033
 30
0.0
 11
59.18496928645669
 21
-7.853515425697259
 31
0.0
  0
LINE
  5
F9
330
17
100
AcDbEntity
  8
FoilLayer
100
AcDbLine
 10
59.18496928645669
 20
-7.853515425697259
 30
0.0
 11
69.07141782788301
 21
-7.171692063828555
 31
0.0
  0
LINE
  5
FA
330
17
100
AcDbEntity
  8
FoilLayer
100
AcDbLine
 10
69.07141782788301
 20
-7.171692063828555
 30
0.0
 11
78.98711835574926
 21
-6.505090430405569
 31
0.0
  0
LINE
  5
FB
330
17
100
AcDbEntity
  8
FoilLayer
100
AcDbLine
 10
78.98711835574926
 20
-6.505090430405569
 30
0.0
 11
88.92554583957764
 21
-5.830913648002681
 31
0.0
  0
LINE
  5
FC
330
17
100
AcDbEntity
  8
FoilLayer
100
AcDbLine
 10
88.92554583957764
 20
-5.830913648002681
 30
0.0
 11
98.88713162707353
 21
-5.149132140560322
 31
0.0
  0
LINE
  5
FD
330
17
100
AcDbEntity
  8
FoilLayer
100
AcDbLine
 10
98.88713162707353
 20
-5.149132140560322
 30
0.0
 11
108.90266303241629
 21
-4.4672894034810335
 31
0.0
  0
LINE
  5
FE
330
17
100
AcDbEntity
  8
FoilLayer
100
AcDbLine
 10
108.90266303241629
 20
-4.4672894034810335
 30
0.0
 11
118.94116812829435
 21
-3.8081593455281126
 31
0.0
  0
LINE
  5
FF
330
17
100
AcDbEntity
  8
FoilLayer
100
AcDbLine
 10
118.94116812829435
 20
-3.8081593455281126
 30
0.0
 11
128.9707265891854
 21
-3.179418144931241
 31
0.0
  0
LINE
  5
100
330
17
100
AcDbEntity
  8
FoilLayer
100
AcDbLine
 10
128.9707265891854
 20
-3.179418144931241
 30
0.0
 11
138.9844785709484
 21
-2.550718679273573
 31
0.0
  0
LINE
  5
101
330
17
100
AcDbEntity
  8
FoilLayer
100
AcDbLine
 10
138.9844785709484
 20
-2.550718679273573
 30
0.0
 11
148.9920522289546
 21
-1.9067799657858668
 31
0.0
  0
LINE
  5
102
330
17
100
AcDbEntity
  8
FoilLayer
100
AcDbLine
 10
148.9920522289546
 20
-1.9067799657858668
 30
0.0
 11
159.00781607657802
 21
-1.277955570247768
 31
0.0
  0
LINE
  5
103
330
17
100
AcDbEntity
  8
FoilLayer
100
AcDbLine
 10
159.00781607657802
 20
-1.277955570247768
 30
0.0
 11
169.0076950171706
 21
-0.6794783413999819
 31
0.0
  0
LINE
  5
104
330
17
100
AcDbEntity
  8
FoilLayer
100
AcDbLine
 10
169.0076950171706
 20
-0.6794783413999819
 30
0.0
 11
178.96930094481377
 21
-0.09617521764540343
 31
0.0
  0
LINE
  5
105
330
17
100
AcDbEntity
  8
FoilLayer
100
AcDbLine
 10
178.96930094481377
 20
-0.09617521764540343
 30
0.0
 11
188.8696994697043
 21
0.4795172277227426
 31
0.0
  0
LINE
  5
106
330
17
100
AcDbEntity
  8
FoilLayer
100
AcDbLine
 10
188.8696994697043
 20
0.4795172277227426
 30
0.0
 11
198.74082842593197
 21
1.0628452338294387
 31
0.0
  0
LINE
  5
107
330
17
100
AcDbEntity
  8
FoilLayer
100
AcDbLine
 10
198.74082842593197
 20
1.0628452338294387
 30
0.0
 11
208.58231415187345
 21
1.6310585569206983
 31
0.0
  0
LINE
  5
108
330
17
100
AcDbEntity
  8
FoilLayer
100
AcDbLine
 10
208.58231415187345
 20
1.6310585569206983
 30
0.0
 11
218.3779203545298
 21
2.1689448899311756
 31
0.0
  0
LINE
  5
109
330
17
100
AcDbEntity
  8
FoilLayer
100
AcDbLine
 10
218.3779203545298
 20
2.1689448899311756
 30
0.0
 11
228.08917484411228
 21
2.684050393321995
 31
0.0
  0
LINE
  5
10A
330
17
100
AcDbEntity
  8
FoilLayer
100
AcDbLine
 10
228.08917484411228
 20
2.684050393321995
 30
0.0
 11
237.7243578622838
 21
3.199138507883133
 31
0.0
  0
LINE
  5
10B
330
17
100
AcDbEntity
  8
FoilLayer
100
AcDbLine
 10
237.7243578622838
 20
3.199138507883133
 30
0.0
 11
247.3007163757157
 21
3.721896781532396
 31
0.0
  0
LINE
  5
10C
330
17
100
AcDbEntity
  8
FoilLayer
100
AcDbLine
 10
247.3007163757157
 20
3.721896781532396
 30
0.0
 11
256.8168146418537
 21
4.214367118487572
 31
0.0
  0
LINE
  5
10D
330
17
100
AcDbEntity
  8
FoilLayer
100
AcDbLine
 10
256.8168146418537
 20
4.214367118487572
 30
0.0
 11
266.25639450803834
 21
4.668920726904199
 31
0.0
  0
LINE
  5
10E
330
17
100
AcDbEntity
  8
FoilLayer
100
AcDbLine
 10
266.25639450803834
 20
4.668920726904199
 30
0.0
 11
275.5888359554136
 21
5.10069758109355
 31
0.0
  0
LINE
  5
10F
330
17
100
AcDbEntity
  8
FoilLayer
100
AcDbLine
 10
275.5888359554136
 20
5.10069758109355
 30
0.0
 11
284.81601471516257
 21
5.5325110258113614
 31
0.0
  0
LINE
  5
110
330
17
100
AcDbEntity
  8
FoilLayer
100
AcDbLine
 10
284.81601471516257
 20
5.5325110258113614
 30
0.0
 11
293.9609861515382
 21
5.949221604216939
 31
0.0
  0
LINE
  5
111
330
17
100
AcDbEntity
  8
FoilLayer
100
AcDbLine
 10
293.9609861515382
 20
5.949221604216939
 30
0.0
 11
303.0158072877393
 21
6.328077865853475
 31
0.0
  0
LINE
  5
112
330
17
100
AcDbEntity
  8
FoilLayer
100
AcDbLine
 10
303.0158072877393
 20
6.328077865853475
 30
0.0
 11
311.9562673679082
 21
6.653871105943412
 31
0.0
  0
LINE
  5
113
330
17
100
AcDbEntity
  8
FoilLayer
100
AcDbLine
 10
311.9562673679082
 20
6.653871105943412
 30
0.0
 11
320.76679834557746
 21
6.941747114027134
 31
0.0
  0
LINE
  5
114
330
17
100
AcDbEntity
  8
FoilLayer
100
AcDbLine
 10
320.76679834557746
 20
6.941747114027134
 30
0.0
 11
329.43466074821634
 21
7.214508400198298
 31
0.0
  0
LINE
  5
115
330
17
100
AcDbEntity
  8
FoilLayer
100
AcDbLine
 10
329.43466074821634
 20
7.214508400198298
 30
0.0
 11
337.9901297973353
 21
7.449413586748385
 31
0.0
  0
LINE
  5
116
330
17
100
AcDbEntity
  8
FoilLayer
100
AcDbLine
 10
337.9901297973353
 20
7.449413586748385
 30
0.0
 11
346.4093234565109
 21
7.623697529939748
 31
0.0
  0
LINE
  5
117
330
17
100
AcDbEntity
  8
FoilLayer
100
AcDbLine
 10
346.4093234565109
 20
7.623697529939748
 30
0.0
 11
354.66071456179867
 21
7.737348747735755
 31
0.0
  0
LINE
  5
118
330
17
100
AcDbEntity
  8
FoilLayer
100
AcDbLine
 10
354.66071456179867
 20
7.737348747735755
 30
0.0
 11
362.7219625351524
 21
7.813110739830208
 31
0.0
  0
LINE
  5
119
330
17
100
AcDbEntity
  8
FoilLayer
100
AcDbLine
 10
362.7219625351524
 20
7.813110739830208
 30
0.0
 11
370.6179311250856
 21
7.866147268161883
 31
0.0
  0
LINE
  5
11A
330
17
100
AcDbEntity
  8
FoilLayer
100
AcDbLine
 10
370.6179311250856
 20
7.866147268161883
 30
0.0
 11
378.3482698539805
 21
7.87371157601191
 31
0.0
  0
LINE
  5
11B
330
17
100
AcDbEntity
  8
FoilLayer
100
AcDbLine
 10
378.3482698539805
 20
7.87371157601191
 30
0.0
 11
385.8885043150414
 21
7.820655461817246
 31
0.0
  0
LINE
  5
11C
330
17
100
AcDbEntity
  8
FoilLayer
100
AcDbLine
 10
385.8885043150414
 20
7.820655461817246
 30
0.0
 11
393.2158629919982
 21
7.722144121843679
 31
0.0
  0
LINE
  5
11D
330
17
100
AcDbEntity
  8
FoilLayer
100
AcDbLine
 10
393.2158629919982
 20
7.722144121843679
 30
0.0
 11
400.3160697717752
 21
7.593319528535751
 31
0.0
  0
LINE
  5
11E
330
17
100
AcDbEntity
  8
FoilLayer
100
AcDbLine
 10
400.3160697717752
 20
7.593319528535751
 30
0.0
 11
407.2124042705096
 21
7.4341641377381205
 31
0.0
  0
LINE
  5
11F
330
17
100
AcDbEntity
  8
FoilLayer
100
AcDbLine
 10
407.2124042705096
 20
7.4341641377381205
 30
0.0
 11
413.89740448361107
 21
7.237085815373193
 31
0.0
  0
LINE
  5
120
330
17
100
AcDbEntity
  8
FoilLayer
100
AcDbLine
 10
413.89740448361107
 20
7.237085815373193
 30
0.0
 11
420.3473472933144
 21
6.9945367143807635
 31
0.0
  0
LINE
  5
121
330
17
100
AcDbEntity
  8
FoilLayer
100
AcDbLine
 10
420.3473472933144
 20
6.9945367143807635
 30
0.0
 11
426.5453074181377
 21
6.714186623715312
 31
0.0
  0
LINE
  5
122
330
17
100
AcDbEntity
  8
FoilLayer
100
AcDbLine
 10
426.5453074181377
 20
6.714186623715312
 30
0.0
 11
432.49513036830757
 21
6.426157792686426
 31
0.0
  0
LINE
  5
123
330
17
100
AcDbEntity
  8
FoilLayer
100
AcDbLine
 10
432.49513036830757
 20
6.426157792686426
 30
0.0
 11
438.21047607525765
 21
6.1077816904177595
 31
0.0
  0
LINE
  5
124
330
17
100
AcDbEntity
  8
FoilLayer
100
AcDbLine
 10
438.21047607525765
 20
6.1077816904177595
 30
0.0
 11
443.67767514894973
 21
5.758939516688539
 31
0.0
  0
LINE
  5
125
330
17
100
AcDbEntity
  8
FoilLayer
100
AcDbLine
 10
443.67767514894973
 20
5.758939516688539
 30
0.0
 11
448.8617578820651
 21
5.364820224168687
 31
0.0
  0
LINE
  5
126
330
17
100
AcDbEntity
  8
FoilLayer
100
AcDbLine
 10
448.8617578820651
 20
5.364820224168687
 30
0.0
 11
453.7652056286243
 21
4.96314094639627
 31
0.0
  0
LINE
  5
127
330
17
100
AcDbEntity
  8
FoilLayer
100
AcDbLine
 10
453.7652056286243
 20
4.96314094639627
 30
0.0
 11
458.3808784595281
 21
4.561442306603206
 31
0.0
  0
LINE
  5
128
330
17
100
AcDbEntity
  8
FoilLayer
100
AcDbLine
 10
458.3808784595281
 20
4.561442306603206
 30
0.0
 11
462.732791862963
 21
4.159594887116463
 31
0.0
  0
LINE
  5
129
330
17
100
AcDbEntity
  8
FoilLayer
100
AcDbLine
 10
462.732791862963
 20
4.159594887116463
 30
0.0
 11
466.79740463248703
 21
3.7500795260870747
 31
0.0
  0
LINE
  5
12A
330
17
100
AcDbEntity
  8
FoilLayer
100
AcDbLine
 10
466.79740463248703
 20
3.7500795260870747
 30
0.0
 11
470.5730479252631
 21
3.3330793568190815
 31
0.0
  0
LINE
  5
12B
330
17
100
AcDbEntity
  8
FoilLayer
100
AcDbLine
 10
470.5730479252631
 20
3.3330793568190815
 30
0.0
 11
474.05410289842524
 21
2.9235250759970817
 31
0.0
  0
LINE
  5
12C
330
17
100
AcDbEntity
  8
FoilLayer
100
AcDbLine
 10
474.05410289842524
 20
2.9235250759970817
 30
0.0
 11
477.22280044579026
 21
2.521746642458009
 31
0.0
  0
LINE
  5
12D
330
17
100
AcDbEntity
  8
FoilLayer
100
AcDbLine
 10
477.22280044579026
 20
2.521746642458009
 30
0.0
 11
480.0956380005618
 21
2.1427405207964605
 31
0.0
  0
LINE
  5
12E
330
17
100
AcDbEntity
  8
FoilLayer
100
AcDbLine
 10
480.0956380005618
 20
2.1427405207964605
 30
0.0
 11
482.657773141311
 21
1.7940442377418897
 31
0.0
  0
LINE
  5
12F
330
17
100
AcDbEntity
  8
FoilLayer
100
AcDbLine
 10
482.657773141311
 20
1.7940442377418897
 30
0.0
 11
484.9315893986706
 21
1.4757081790932702
 31
0.0
  0
LINE
  5
130
330
17
100
AcDbEntity
  8
FoilLayer
100
AcDbLine
 10
484.9315893986706
 20
1.4757081790932702
 30
0.0
 11
486.8944195203939
 21
1.1953030555507196
 31
0.0
  0
LINE
  5
131
330
17
100
AcDbEntity
  8
FoilLayer
100
AcDbLine
 10
486.8944195203939
 20
1.1953030555507196
 30
0.0
 11
488.5704513229726
 21
0.9526155483970975
 31
0.0
  0
LINE
  5
132
330
17
100
AcDbEntity
  8
FoilLayer
100
AcDbLine
 10
488.5704513229726
 20
0.9526155483970975
 30
0.0
 11
489.94360073800675
 21
0.7477763542397369
 31
0.0
  0
LINE
  5
133
330
17
100
AcDbEntity
  8
FoilLayer
100
AcDbLine
 10
489.94360073800675
 20
0.7477763542397369
 30
0.0
 11
491.02816799878707
 21
0.5809178775238196
 31
0.0
  0
LINE
  5
134
330
17
100
AcDbEntity
  8
FoilLayer
100
AcDbLine
 10
491.02816799878707
 20
0.5809178775238196
 30
0.0
 11
491.7947452933186
 21
0.4606277266838093
 31
0.0
  0
LINE
  5
135
330
17
100
AcDbEntity
  8
FoilLayer
100
AcDbLine
 10
491.7947452933186
 20
0.4606277266838093
 30
0.0
 11
492.2888434473426
 21
0.3897148687831028
 31
0.0
  0
LINE
  5
136
330
17
100
AcDbEntity
  8
FoilLayer
100
AcDbLine
 10
492.2888434473426
 20
0.3897148687831028
 30
0.0
 11
492.45549844699264
 21
0.359413959755832
 31
0.0
  0
LINE
  5
137
330
17
100
AcDbEntity
  8
FoilLayer
100
AcDbLine
 10
492.45549844699264
 20
0.359413959755832
 30
0.0
 11
492.22634230920715
 21
-0.3868601241978308
 31
0.0
  0
LINE
  5
138
330
17
100
AcDbEntity
  8
StringerLayer
100
AcDbLine
 10
261.7803773516877
 20
58.269867795816836
 30
0.0
 11
265.6699943166105
 21
57.33665835191627
 31
0.0
  0
LINE
  5
139
330
17
100
AcDbEntity
  8
StringerLayer
100
AcDbLine
 10
265.6699943166105
 20
57.33665835191627
 30
0.0
 11
266.60320376051106
 21
61.22627531683901
 31
0.0
  0
LINE
  5
13A
330
17
100
AcDbEntity
  8
StringerLayer
100
AcDbLine
 10
266.60320376051106
 20
61.22627531683901
 30
0.0
 11
262.7135867955883
 21
62.15948476073957
 31
0.0
  0
LINE
  5
13B
330
17
100
AcDbEntity
  8
StringerLayer
100
AcDbLine
 10
262.7135867955883
 20
62.15948476073957
 30
0.0
 11
261.7803773516877
 21
58.269867795816836
 31
0.0
  0
LINE
  5
13C
330
17
100
AcDbEntity
  8
StringerLayer
100
AcDbLine
 10
-76.94898658465516
 20
80.88719124870117
 30
0.0
 11
-72.98326988841194
 21
81.40977242434543
 31
0.0
  0
LINE
  5
13D
330
17
100
AcDbEntity
  8
StringerLayer
100
AcDbLine
 10
-72.98326988841194
 20
81.40977242434543
 30
0.0
 11
-73.50585106405622
 21
85.37548912058865
 31
0.0
  0
LINE
  5
13E
330
17
100
AcDbEntity
  8
StringerLayer
100
AcDbLine
 10
-73.50585106405622
 20
85.37548912058865
 30
0.0
 11
-77.47156776029944
 21
84.85290794494439
 31
0.0
  0
LINE
  5
13F
330
17
100
AcDbEntity
  8
StringerLayer
100
AcDbLine
 10
-77.47156776029944
 20
84.85290794494439
 30
0.0
 11
-76.94898658465516
 21
80.88719124870117
 31
0.0
  0
LINE
  5
140
330
17
100
AcDbEntity
  8
StringerLayer
100
AcDbLine
 10
-189.09879606549904
 20
53.64137361599449
 30
0.0
 11
-185.36292407391798
 21
55.07080023618878
 31
0.0
  0
LINE
  5
141
330
17
100
AcDbEntity
  8
StringerLayer
100
AcDbLine
 10
-185.36292407391798
 20
55.07080023618878
 30
0.0
 11
-186.7923506941123
 21
58.80667222776985
 31
0.0
  0
LINE
  5
142
330
17
100
AcDbEntity
  8
StringerLayer
100
AcDbLine
 10
-186.7923506941123
 20
58.80667222776985
 30
0.0
 11
-190.52822268569335
 21
57.37724560757556
 31
0.0
  0
LINE
  5
143
330
17
100
AcDbEntity
  8
StringerLayer
100
AcDbLine
 10
-190.52822268569335
 20
57.37724560757556
 30
0.0
 11
-189.09879606549904
 21
53.64137361599449
 31
0.0
  0
LINE
  5
144
330
17
100
AcDbEntity
  8
StringerLayer
100
AcDbLine
 10
-252.66029726567766
 20
11.714506607543354
 30
0.0
 11
-251.4256688592303
 21
13.287940018270765
 31
0.0
  0
LINE
  5
145
330
17
100
AcDbEntity
  8
StringerLayer
100
AcDbLine
 10
-251.4256688592303
 20
13.287940018270765
 30
0.0
 11
-255.35925238604884
 21
16.374511034389123
 31
0.0
  0
LINE
  5
146
330
17
100
AcDbEntity
  8
StringerLayer
100
AcDbLine
 10
-255.35925238604884
 20
16.374511034389123
 30
0.0
 11
-256.5938807924962
 21
14.801077623661712
 31
0.0
  0
LINE
  5
147
330
17
100
AcDbEntity
  8
StringerLayer
100
AcDbLine
 10
-256.5938807924962
 20
14.801077623661712
 30
0.0
 11
-252.66029726567766
 21
11.714506607543354
 31
0.0
  0
LINE
  5
148
330
17
100
AcDbEntity
  8
StringerLayer
100
AcDbLine
 10
-255.94435638414748
 20
-3.5214243952943938
 30
0.0
 11
-257.4405733439022
 21
-2.194271499301512
 31
0.0
  0
LINE
  5
149
330
17
100
AcDbEntity
  8
StringerLayer
100
AcDbLine
 10
-257.4405733439022
 20
-2.194271499301512
 30
0.0
 11
-260.7584555838844
 21
-5.934813898688354
 31
0.0
  0
LINE
  5
14A
330
17
100
AcDbEntity
  8
StringerLayer
100
AcDbLine
 10
-260.7584555838844
 20
-5.934813898688354
 30
0.0
 11
-259.2622386241297
 21
-7.261966794681236
 31
0.0
  0
LINE
  5
14B
330
17
100
AcDbEntity
  8
StringerLayer
100
AcDbLine
 10
-259.2622386241297
 20
-7.261966794681236
 30
0.0
 11
-255.94435638414748
 21
-3.5214243952943938
 31
0.0
  0
LINE
  5
14C
330
17
100
AcDbEntity
  8
StringerLayer
100
AcDbLine
 10
-111.89191833466137
 20
-13.440067461921666
 30
0.0
 11
-115.8880160088043
 21
-13.616712243076913
 31
0.0
  0
LINE
  5
14D
330
17
100
AcDbEntity
  8
StringerLayer
100
AcDbLine
 10
-115.8880160088043
 20
-13.616712243076913
 30
0.0
 11
-115.71137122764905
 21
-17.612809917219852
 31
0.0
  0
LINE
  5
14E
330
17
100
AcDbEntity
  8
StringerLayer
100
AcDbLine
 10
-115.71137122764905
 20
-17.612809917219852
 30
0.0
 11
-111.71527355350612
 21
-17.436165136064606
 31
0.0
  0
LINE
  5
14F
330
17
100
AcDbEntity
  8
StringerLayer
100
AcDbLine
 10
-111.71527355350612
 20
-17.436165136064606
 30
0.0
 11
-111.89191833466137
 21
-13.440067461921666
 31
0.0
  0
LINE
  5
150
330
17
100
AcDbEntity
  8
SubLayer
100
AcDbLine
 10
-265.12499999999994
 20
0.0
 30
0.0
 11
-261.12499999999994
 21
0.0
 31
0.0
  0
LINE
  5
151
330
17
100
AcDbEntity
  8
SubLayer
100
AcDbLine
 10
73.75
 20
0.0
 30
0.0
 11
85.32500000000005
 21
0.0
 31
0.0
  0
LINE
  5
152
330
17
100
AcDbEntity
  8
SubLayer
100
AcDbLine
 10
-56.77789136002237
 20
38.25780268292551
 30
0.0
 11
-48.782764743869606
 21
38.53699865654552
 31
0.0
  0
LINE
  5
153
330
17
100
AcDbEntity
  8
SubLayer
100
AcDbLine
 10
48.782764743869606
 20
41.94406202212717
 30
0.0
 11
56.77789136002237
 21
42.22325799574718
 31
0.0
  0
LINE
  5
154
330
17
100
AcDbEntity
  8
SubLayer
100
AcDbLine
 10
-1.6136654787818885
 20
86.44986370363179
 30
0.0
 11
-1.3344695051618807
 21
78.45473708747902
 31
0.0
  0
LINE
  5
155
330
17
100
AcDbEntity
  8
SubLayer
100
AcDbLine
 10
1.6136654787818885
 20
-5.968803024959094
 30
0.0
 11
1.3344695051618807
 21
2.0263235911936732
 31
0.0
  0
LINE
  5
156
330
17
100
AcDbEntity
  8
SubLayer
100
AcDbLine
 10
-54.709310712579175
 20
36.32882002229233
 30
0.0
 11
-50.711747404502795
 21
36.46841800910233
 31
0.0
  0
LINE
  5
157
330
17
100
AcDbEntity
  8
SubLayer
100
AcDbLine
 10
-50.711747404502795
 20
36.46841800910233
 30
0.0
 11
-50.8513453913128
 21
40.46598131717871
 31
0.0
  0
LINE
  5
158
330
17
100
AcDbEntity
  8
SubLayer
100
AcDbLine
 10
-50.8513453913128
 20
40.46598131717871
 30
0.0
 11
-54.84890869938918
 21
40.32638333036871
 31
0.0
  0
LINE
  5
159
330
17
100
AcDbEntity
  8
SubLayer
100
AcDbLine
 10
-54.84890869938918
 20
40.32638333036871
 30
0.0
 11
-54.709310712579175
 21
36.32882002229233
 31
0.0
  0
LINE
  5
15A
330
17
100
AcDbEntity
  8
SubLayer
100
AcDbLine
 10
50.8513453913128
 20
40.01507936149398
 30
0.0
 11
54.84890869938918
 21
40.154677348303984
 31
0.0
  0
LINE
  5
15B
330
17
100
AcDbEntity
  8
SubLayer
100
AcDbLine
 10
54.84890869938918
 20
40.154677348303984
 30
0.0
 11
54.709310712579175
 21
44.152240656380364
 31
0.0
  0
LINE
  5
15C
330
17
100
AcDbEntity
  8
SubLayer
100
AcDbLine
 10
54.709310712579175
 20
44.152240656380364
 30
0.0
 11
50.711747404502795
 21
44.01264266957036
 31
0.0
  0
LINE
  5
15D
330
17
100
AcDbEntity
  8
SubLayer
100
AcDbLine
 10
50.711747404502795
 20
44.01264266957036
 30
0.0
 11
50.8513453913128
 21
40.01507936149398
 31
0.0
  0
LINE
  5
15E
330
17
100
AcDbEntity
  8
SubLayer
100
AcDbLine
 10
-3.403050152605074
 20
80.3837197481122
 30
0.0
 11
0.594513155471309
 21
80.5233177349222
 31
0.0
  0
LINE
  5
15F
330
17
100
AcDbEntity
  8
SubLayer
100
AcDbLine
 10
0.594513155471309
 20
80.5233177349222
 30
0.0
 11
0.4549151686613051
 21
84.5208810429986
 31
0.0
  0
LINE
  5
160
330
17
100
AcDbEntity
  8
SubLayer
100
AcDbLine
 10
0.4549151686613051
 20
84.5208810429986
 30
0.0
 11
-3.5426481394150775
 21
84.3812830561886
 31
0.0
  0
LINE
  5
161
330
17
100
AcDbEntity
  8
SubLayer
100
AcDbLine
 10
-3.5426481394150775
 20
84.3812830561886
 30
0.0
 11
-3.403050152605074
 21
80.3837197481122
 31
0.0
  0
LINE
  5
162
330
17
100
AcDbEntity
  8
SubLayer
100
AcDbLine
 10
-0.4549151686613051
 20
-4.039820364325903
 30
0.0
 11
3.5426481394150775
 21
-3.9002223775158997
 31
0.0
  0
LINE
  5
163
330
17
100
AcDbEntity
  8
SubLayer
100
AcDbLine
 10
3.5426481394150775
 20
-3.9002223775158997
 30
0.0
 11
3.403050152605074
 21
0.09734093056048332
 31
0.0
  0
LINE
  5
164
330
17
100
AcDbEntity
  8
SubLayer
100
AcDbLine
 10
3.403050152605074
 20
0.09734093056048332
 30
0.0
 11
-0.594513155471309
 21
-0.042257056249520586
 31
0.0
  0
LINE
  5
165
330
17
100
AcDbEntity
  8
SubLayer
100
AcDbLine
 10
-0.594513155471309
 20
-0.042257056249520586
 30
0.0
 11
-0.4549151686613051
 21
-4.039820364325903
 31
0.0
  0
LINE
  5
166
330
17
100
AcDbEntity
  8
SubLayer
100
AcDbLine
 10
378.68232451470044
 20
32.38012642550967
 30
0.0
 11
382.6798878227768
 21
32.519724412319675
 31
0.0
  0
LINE
  5
167
330
17
100
AcDbEntity
  8
SubLayer
100
AcDbLine
 10
-261.7805655706934
 20
10.014669472819122
 30
0.0
 11
-257.78300226261706
 21
10.154267459629125
 31
0.0
  0
LINE
  5
168
330
17
100
AcDbEntity
  8
SubLayer
100
AcDbLine
 10
-134.68737838063373
 20
14.452861366654732
 30
0.0
 11
-128.69103341851917
 21
14.662258346869736
 31
0.0
  0
LINE
  5
169
330
17
100
AcDbEntity
  8
SubLayer
100
AcDbLine
 10
249.59035567060255
 20
27.872135538269063
 30
0.0
 11
255.5867006327171
 21
28.081532518484067
 31
0.0
  0
LINE
  5
16A
330
17
100
AcDbEntity
  8
SubLayer
100
AcDbLine
 10
57.4514886449844
 20
21.162498452461897
 30
0.0
 11
63.44783360709898
 21
21.3718954326769
 31
0.0
  0
LINE
  5
16B
330
17
100
AcDbEntity
  8
SubLayer
100
AcDbLine
 10
-129.62062525213327
 20
12.628577196129044
 30
0.0
 11
-129.76022323894327
 21
16.626140504205427
 31
0.0
  0
LINE
  5
16C
330
17
100
AcDbEntity
  8
SubLayer
100
AcDbLine
 10
-129.76022323894327
 20
16.626140504205427
 30
0.0
 11
-133.75778654701963
 21
16.486542517395424
 31
0.0
  0
LINE
  5
16D
330
17
100
AcDbEntity
  8
SubLayer
100
AcDbLine
 10
-133.75778654701963
 20
16.486542517395424
 30
0.0
 11
-133.61818856020963
 21
12.48897920931904
 31
0.0
  0
LINE
  5
16E
330
17
100
AcDbEntity
  8
SubLayer
100
AcDbLine
 10
-133.61818856020963
 20
12.48897920931904
 30
0.0
 11
-129.62062525213327
 21
12.628577196129044
 31
0.0
  0
LINE
  5
16F
330
17
100
AcDbEntity
  8
SubLayer
100
AcDbLine
 10
254.657108799103
 20
26.047851367743377
 30
0.0
 11
254.517510812293
 21
30.04541467581976
 31
0.0
  0
LINE
  5
170
330
17
100
AcDbEntity
  8
SubLayer
100
AcDbLine
 10
254.517510812293
 20
30.04541467581976
 30
0.0
 11
250.51994750421665
 21
29.905816689009754
 31
0.0
  0
LINE
  5
171
330
17
100
AcDbEntity
  8
SubLayer
100
AcDbLine
 10
250.51994750421665
 20
29.905816689009754
 30
0.0
 11
250.65954549102665
 21
25.90825338093337
 31
0.0
  0
LINE
  5
172
330
17
100
AcDbEntity
  8
SubLayer
100
AcDbLine
 10
250.65954549102665
 20
25.90825338093337
 30
0.0
 11
254.657108799103
 21
26.047851367743377
 31
0.0
  0
LINE
  5
173
330
17
100
AcDbEntity
  8
SubLayer
100
AcDbLine
 10
62.51824177348488
 20
19.33821428193621
 30
0.0
 11
62.37864378667488
 21
23.335777590012594
 31
0.0
  0
LINE
  5
174
330
17
100
AcDbEntity
  8
SubLayer
100
AcDbLine
 10
62.37864378667488
 20
23.335777590012594
 30
0.0
 11
58.3810804785985
 21
23.196179603202587
 31
0.0
  0
LINE
  5
175
330
17
100
AcDbEntity
  8
SubLayer
100
AcDbLine
 10
58.3810804785985
 20
23.196179603202587
 30
0.0
 11
58.5206784654085
 21
19.198616295126204
 31
0.0
  0
LINE
  5
176
330
17
100
AcDbEntity
  8
SubLayer
100
AcDbLine
 10
58.5206784654085
 20
19.198616295126204
 30
0.0
 11
62.51824177348488
 21
19.33821428193621
 31
0.0
  0
LINE
  5
177
330
17
100
AcDbEntity
  8
SubLayer
100
AcDbLine
 10
473.11505278940507
 20
5.413356858883727
 30
0.0
 11
473.4096114675721
 21
6.368990253610205
 31
0.0
  0
LINE
  5
178
330
17
100
AcDbEntity
  8
SubLayer
100
AcDbLine
 10
472.5383636112847
 20
2.598773011221445
 30
0.0
 11
472.69300235762694
 21
3.586744092847676
 31
0.0
  0
LINE
  5
179
330
17
100
AcDbEntity
  8
SubLayer
100
AcDbLine
 10
453.9657027704055
 20
11.179231465477452
 30
0.0
 11
454.2571409887447
 21
12.135821118824856
 31
0.0
  0
LINE
  5
17A
330
17
100
AcDbEntity
  8
SubLayer
100
AcDbLine
 10
452.63212523889604
 20
4.55479048222676
 30
0.0
 11
452.75839525717277
 21
5.5467863907286095
 31
0.0
  0
LINE
  5
17B
330
17
100
AcDbEntity
  8
SubLayer
100
AcDbLine
 10
415.49408897197486
 20
22.12633434469949
 30
0.0
 11
415.77666345350895
 21
23.085579705587786
 31
0.0
  0
LINE
  5
17C
330
17
100
AcDbEntity
  8
SubLayer
100
AcDbLine
 10
412.66091253293075
 20
6.774268605875192
 30
0.0
 11
412.75181518135673
 21
7.770128389433675
 31
0.0
  0
LINE
  5
17D
330
17
100
AcDbEntity
  8
SubLayer
100
AcDbLine
 10
-151.21387873361166
 20
72.38320947055249
 30
0.0
 11
-151.07428074680163
 21
68.38564616247609
 31
0.0
  0
LINE
  5
17E
330
17
100
AcDbEntity
  8
SubLayer
100
AcDbLine
 10
-148.09930151352185
 20
-16.806612673138865
 30
0.0
 11
-147.95970352671182
 21
-20.804175981215245
 31
0.0
  0
LINE
  5
17F
330
17
100
AcDbEntity
  8
SubLayer
100
AcDbLine
 10
-148.7571164542423
 20
2.0307425826185015
 30
0.0
 11
-148.5477194740273
 21
-3.965602379496073
 31
0.0
  0
LINE
  5
180
330
17
100
AcDbEntity
  8
SubLayer
100
AcDbLine
 10
-150.62586278629618
 20
55.54463586883332
 30
0.0
 11
-150.4164658060812
 21
49.54829090671874
 31
0.0
  0
LINE
  5
181
330
17
100
AcDbEntity
  8
SubLayer
100
AcDbLine
 10
-149.69148962026924
 20
28.787689225725906
 30
0.0
 11
-149.48209264005425
 21
22.79134426361133
 31
0.0
  0
LINE
  5
182
330
17
100
AcDbEntity
  8
SubLayer
100
AcDbLine
 10
-150.58140062476798
 20
-3.0360105458819793
 30
0.0
 11
-146.5838373166916
 21
-2.896412559071975
 31
0.0
  0
LINE
  5
183
330
17
100
AcDbEntity
  8
SubLayer
100
AcDbLine
 10
-146.5838373166916
 20
-2.896412559071975
 30
0.0
 11
-146.72343530350162
 21
1.101150749004408
 31
0.0
  0
LINE
  5
184
330
17
100
AcDbEntity
  8
SubLayer
100
AcDbLine
 10
-146.72343530350162
 20
1.101150749004408
 30
0.0
 11
-150.72099861157798
 21
0.961552762194404
 31
0.0
  0
LINE
  5
185
330
17
100
AcDbEntity
  8
SubLayer
100
AcDbLine
 10
-150.72099861157798
 20
0.961552762194404
 30
0.0
 11
-150.58140062476798
 21
-3.0360105458819793
 31
0.0
  0
LINE
  5
186
330
17
100
AcDbEntity
  8
SubLayer
100
AcDbLine
 10
-152.45014695682187
 20
50.47788274033284
 30
0.0
 11
-148.4525836487455
 21
50.61748072714284
 31
0.0
  0
LINE
  5
187
330
17
100
AcDbEntity
  8
SubLayer
100
AcDbLine
 10
-148.4525836487455
 20
50.61748072714284
 30
0.0
 11
-148.5921816355555
 21
54.61504403521922
 31
0.0
  0
LINE
  5
188
330
17
100
AcDbEntity
  8
SubLayer
100
AcDbLine
 10
-148.5921816355555
 20
54.61504403521922
 30
0.0
 11
-152.58974494363187
 21
54.47544604840922
 31
0.0
  0
LINE
  5
189
330
17
100
AcDbEntity
  8
SubLayer
100
AcDbLine
 10
-152.58974494363187
 20
54.47544604840922
 30
0.0
 11
-152.45014695682187
 21
50.47788274033284
 31
0.0
  0
LINE
  5
18A
330
17
100
AcDbEntity
  8
SubLayer
100
AcDbLine
 10
-151.51577379079492
 20
23.720936097225422
 30
0.0
 11
-147.51821048271856
 21
23.86053408403543
 31
0.0
  0
LINE
  5
18B
330
17
100
AcDbEntity
  8
SubLayer
100
AcDbLine
 10
-147.51821048271856
 20
23.86053408403543
 30
0.0
 11
-147.65780846952856
 21
27.858097392111812
 31
0.0
  0
LINE
  5
18C
330
17
100
AcDbEntity
  8
SubLayer
100
AcDbLine
 10
-147.65780846952856
 20
27.858097392111812
 30
0.0
 11
-151.65537177760493
 21
27.718499405301806
 31
0.0
  0
LINE
  5
18D
330
17
100
AcDbEntity
  8
SubLayer
100
AcDbLine
 10
-151.65537177760493
 20
27.718499405301806
 30
0.0
 11
-151.51577379079492
 21
23.720936097225422
 31
0.0
  0
LINE
  5
18E
330
17
100
AcDbEntity
  8
SubLayer
100
AcDbLine
 10
198.81318516079386
 20
77.71747366040867
 30
0.0
 11
198.9527831476039
 21
73.71991035233228
 31
0.0
  0
LINE
  5
18F
330
17
100
AcDbEntity
  8
SubLayer
100
AcDbLine
 10
201.41469299070764
 20
3.220036525509693
 30
0.0
 11
201.55429097751767
 21
-0.7775267825666903
 31
0.0
  0
LINE
  5
190
330
17
100
AcDbEntity
  8
SubLayer
100
AcDbLine
 10
200.85949192802244
 20
19.118914779508586
 30
0.0
 11
201.06888890823743
 21
13.12256981739401
 31
0.0
  0
LINE
  5
191
330
17
100
AcDbEntity
  8
SubLayer
100
AcDbLine
 10
199.29858723007416
 20
63.817377060447974
 30
0.0
 11
199.50798421028915
 21
57.8210320983334
 31
0.0
  0
LINE
  5
192
330
17
100
AcDbEntity
  8
SubLayer
100
AcDbLine
 10
200.07903957904827
 20
41.46814591997828
 30
0.0
 11
200.28843655926326
 21
35.4718009578637
 31
0.0
  0
LINE
  5
193
330
17
100
AcDbEntity
  8
SubLayer
100
AcDbLine
 10
199.03520775749675
 20
14.052161651008104
 30
0.0
 11
203.03277106557312
 21
14.191759637818107
 31
0.0
  0
LINE
  5
194
330
17
100
AcDbEntity
  8
SubLayer
100
AcDbLine
 10
203.03277106557312
 20
14.191759637818107
 30
0.0
 11
202.8931730787631
 21
18.189322945894492
 31
0.0
  0
LINE
  5
195
330
17
100
AcDbEntity
  8
SubLayer
100
AcDbLine
 10
202.8931730787631
 20
18.189322945894492
 30
0.0
 11
198.89560977068675
 21
18.049724959084486
 31
0.0
  0
LINE
  5
196
330
17
100
AcDbEntity
  8
SubLayer
100
AcDbLine
 10
198.89560977068675
 20
18.049724959084486
 30
0.0
 11
199.03520775749675
 21
14.052161651008104
 31
0.0
  0
LINE
  5
197
330
17
100
AcDbEntity
  8
SubLayer
100
AcDbLine
 10
197.47430305954848
 20
58.750623931947494
 30
0.0
 11
201.47186636762484
 21
58.8902219187575
 31
0.0
  0
LINE
  5
198
330
17
100
AcDbEntity
  8
SubLayer
100
AcDbLine
 10
201.47186636762484
 20
58.8902219187575
 30
0.0
 11
201.33226838081484
 21
62.88778522683388
 31
0.0
  0
LINE
  5
199
330
17
100
AcDbEntity
  8
SubLayer
100
AcDbLine
 10
201.33226838081484
 20
62.88778522683388
 30
0.0
 11
197.33470507273847
 21
62.748187240023874
 31
0.0
  0
LINE
  5
19A
330
17
100
AcDbEntity
  8
SubLayer
100
AcDbLine
 10
197.33470507273847
 20
62.748187240023874
 30
0.0
 11
197.47430305954848
 21
58.750623931947494
 31
0.0
  0
LINE
  5
19B
330
17
100
AcDbEntity
  8
SubLayer
100
AcDbLine
 10
198.25475540852258
 20
36.4013927914778
 30
0.0
 11
202.25231871659895
 21
36.5409907782878
 31
0.0
  0
LINE
  5
19C
330
17
100
AcDbEntity
  8
SubLayer
100
AcDbLine
 10
202.25231871659895
 20
36.5409907782878
 30
0.0
 11
202.11272072978895
 21
40.53855408636418
 31
0.0
  0
LINE
  5
19D
330
17
100
AcDbEntity
  8
SubLayer
100
AcDbLine
 10
202.11272072978895
 20
40.53855408636418
 30
0.0
 11
198.11515742171258
 21
40.39895609955418
 31
0.0
  0
LINE
  5
19E
330
17
100
AcDbEntity
  8
SubLayer
100
AcDbLine
 10
198.11515742171258
 20
40.39895609955418
 30
0.0
 11
198.25475540852258
 21
36.4013927914778
 31
0.0
  0
ENDSEC
  0
SECTION
  2
OBJECTS
  0
DICTIONARY
  5
A
330
0
100
AcDbDictionary
280
0
281
1
  3
ACAD_COLOR
350
B
  3
ACAD_GROUP
350
C
  3
ACAD_LAYOUT
350
D
  3
ACAD_MATERIAL
350
E
  3
ACAD_MLEADERSTYLE
350
F
  3
ACAD_MLINESTYLE
350
10
  3
ACAD_PLOTSETTINGS
350
11
  3
ACAD_PLOTSTYLENAME
350
12
  3
ACAD_SCALELIST
350
14
  3
ACAD_TABLESTYLE
350
15
  3
ACAD_VISUALSTYLE
350
16
  3
EZDXF_META
350
2D
  0
DICTIONARY
  5
B
330
A
100
AcDbDictionary
280
0
281
1
  0
DICTIONARY
  5
C
330
A
100
AcDbDictionary
280
0
281
1
  0
DICTIONARY
  5
D
330
A
100
AcDbDictionary
280
0
281
1
  3
Model
350
1A
  3
Layout1
350
1E
  0
DICTIONARY
  5
E
330
A
100
AcDbDictionary
280
0
281
1
  3
ByBlock
350
1F
  3
ByLayer
350
20
  3
Global
350
21
  0
DICTIONARY
  5
F
330
A
100
AcDbDictionary
280
0
281
1
  3
Standard
350
2C
  0
DICTIONARY
  5
10
330
A
100
AcDbDictionary
280
0
281
1
  3
Standard
350
22
  0
DICTIONARY
  5
11
330
A
100
AcDbDictionary
280
0
281
1
  0
ACDBDICTIONARYWDFLT
  5
12
330
A
100
AcDbDictionary
280
0
281
1
  3
Normal
350
13
100
AcDbDictionaryWithDefault
340
13
  0
ACDBPLACEHOLDER
  5
13
330
12
  0
DICTIONARY
  5
14
330
A
100
AcDbDictionary
280
0
281
1
  0
DICTIONARY
  5
15
330
A
100
AcDbDictionary
280
0
281
1
  0
DICTIONARY
  5
16
330
A
100
AcDbDictionary
280
0
281
1
  0
LAYOUT
  5
1A
330
D
100
AcDbPlotSettings
  1

  2
Adobe PDF
  4
A3
  6

 40
7.5
 41
20.0
 42
7.5
 43
20.0
 44
420.0
 45
297.0
 46
0.0
 47
0.0
 48
0.0
 49
0.0
140
0.0
141
0.0
142
1.0
143
1.0
 70
1024
 72
1
 73
0
 74
5
  7

 75
16
 76
0
 77
2
 78
300
147
1.0
148
0.0
149
0.0
100
AcDbLayout
  1
Model
 70
1
 71
0
 10
0.0
 20
0.0
 11
420.0
 21
297.0
 12
0.0
 22
0.0
 32
0.0
 14
1e+20
 24
1e+20
 34
1e+20
 15
-1e+20
 25
-1e+20
 35
-1e+20
146
0.0
 13
0.0
 23
0.0
 33
0.0
 16
1.0
 26
0.0
 36
0.0
 17
0.0
 27
1.0
 37
0.0
 76
1
330
17
  0
LAYOUT
  5
1E
330
D
100
AcDbPlotSettings
  1

  2
Adobe PDF
  4
A3
  6

 40
7.5
 41
20.0
 42
7.5
 43
20.0
 44
420.0
 45
297.0
 46
0.0
 47
0.0
 48
0.0
 49
0.0
140
0.0
141
0.0
142
1.0
143
1.0
 70
0
 72
1
 73
0
 74
5
  7

 75
16
 76
0
 77
2
 78
300
147
1.0
148
0.0
149
0.0
100
AcDbLayout
  1
Layout1
 70
1
 71
1
 10
0.0
 20
0.0
 11
420.0
 21
297.0
 12
0.0
 22
0.0
 32
0.0
 14
1e+20
 24
1e+20
 34
1e+20
 15
-1e+20
 25
-1e+20
 35
-1e+20
146
0.0
 13
0.0
 23
0.0
 33
0.0
 16
1.0
 26
0.0
 36
0.0
 17
0.0
 27
1.0
 37
0.0
 76
1
330
1B
  0
MATERIAL
  5
1F
102
{ACAD_REACTORS
330
E
102
}
330
E
100
AcDbMaterial
  1
ByBlock
  2

 70
0
 40
1.0
 71
1
 41
1.0
 91
-1023410177
 42
1.0
 72
1
  3

 73
1
 74
1
 75
1
 44
0.5
 73
0
 45
1.0
 46
1.0
 77
1
  4

 78
1
 79
1
170
1
 48
1.0
171
1
  6

172
1
173
1
174
1
140
1.0
141
1.0
175
1
  7

176
1
177
1
178
1
143
1.0
179
1
  8

270
1
271
1
272
1
145
1.0
146
1.0
273
1
  9

274
1
275
1
276
1
 42
1.0
 72
1
  3

 73
1
 74
1
 75
1
 94
63
  0
MATERIAL
  5
20
102
{ACAD_REACTORS
330
E
102
}
330
E
100
AcDbMaterial
  1
ByLayer
  2

 70
0
 40
1.0
 71
1
 41
1.0
 91
-1023410177
 42
1.0
 72
1
  3

 73
1
 74
1
 75
1
 44
0.5
 73
0
 45
1.0
 46
1.0
 77
1
  4

 78
1
 79
1
170
1
 48
1.0
171
1
  6

172
1
173
1
174
1
140
1.0
141
1.0
175
1
  7

176
1
177
1
178
1
143
1.0
179
1
  8

270
1
271
1
272
1
145
1.0
146
1.0
273
1
  9

274
1
275
1
276
1
 42
1.0
 72
1
  3

 73
1
 74
1
 75
1
 94
63
  0
MATERIAL
  5
21
102
{ACAD_REACTORS
330
E
102
}
330
E
100
AcDbMaterial
  1
Global
  2

 70
0
 40
1.0
 71
1
 41
1.0
 91
-1023410177
 42
1.0
 72
1
  3

 73
1
 74
1
 75
1
 44
0.5
 73
0
 45
1.0
 46
1.0
 77
1
  4

 78
1
 79
1
170
1
 48
1.0
171
1
  6

172
1
173
1
174
1
140
1.0
141
1.0
175
1
  7

176
1
177
1
178
1
143
1.0
179
1
  8

270
1
271
1
272
1
145
1.0
146
1.0
273
1
  9

274
1
275
1
276
1
 42
1.0
 72
1
  3

 73
1
 74
1
 75
1
 94
63
  0
MLINESTYLE
  5
22
102
{ACAD_REACTORS
330
10
102
}
330
10
100
AcDbMlineStyle
  2
Standard
 70
0
  3

 62
256
 51
90.0
 52
90.0
 71
2
 49
0.5
 62
256
  6
BYLAYER
 49
-0.5
 62
256
  6
BYLAYER
  0
MLEADERSTYLE
  5
2C
102
{ACAD_REACTORS
330
F
102
}
330
F
100
AcDbMLeaderStyle
179
2
170
2
171
1
172
0
 90
2
 40
0.0
 41
0.0
173
1
 91
-1056964608
 92
-2
290
1
 42
2.0
291
1
 43
8.0
  3
Standard
 44
4.0
300

342
29
174
1
175
1
176
0
178
1
 93
-1056964608
 45
4.0
292
0
297
0
 46
4.0
 94
-1056964608
 47
1.0
 49
1.0
140
1.0
294
1
141
0.0
177
0
142
1.0
295
0
296
0
143
3.75
271
0
272
9
273
9
  0
DICTIONARY
  5
2D
330
A
100
AcDbDictionary
281
1
  3
CREATED_BY_EZDXF
350
2E
  3
WRITTEN_BY_EZDXF
350
1A1
  0
DICTIONARYVAR
  5
2E
330
2D
100
DictionaryVariables
280
0
  1
1.0.2 @ 2023-10-20T04:47:15.818771+00:00
  0
DICTIONARYVAR
  5
1A1
330
2D
100
DictionaryVariables
280
0
  1
1.0.2 @ 2023-10-20T04:47:15.827740+00:00
  0
ENDSEC
  0
EOF
