  0
SECTION
  2
HEADER
  9
$ACADVER
  1
AC1027
  9
$ACADMAINTVER
 70
105
  9
$DWGCODEPAGE
  3
ANSI_1252
  9
$LASTSAVEDBY
  1
ezdxf
  9
$REQUIREDVERSIONS
160
0
  9
$INSBASE
 10
0.0
 20
0.0
 30
0.0
  9
$EXTMIN
 10
1e+20
 20
1e+20
 30
1e+20
  9
$EXTMAX
 10
-1e+20
 20
-1e+20
 30
-1e+20
  9
$LIMMIN
 10
0.0
 20
0.0
  9
$LIMMAX
 10
420.0
 20
297.0
  9
$ORTHOMODE
 70
0
  9
$REGENMODE
 70
1
  9
$FILLMODE
 70
1
  9
$QTEXTMODE
 70
0
  9
$MIRRTEXT
 70
1
  9
$LTSCALE
 40
1.0
  9
$ATTMODE
 70
1
  9
$TEXTSIZE
 40
2.5
  9
$TRACEWID
 40
1.0
  9
$TEXTSTYLE
  7
Standard
  9
$CLAYER
  8
0
  9
$CELTYPE
  6
ByLayer
  9
$CECOLOR
 62
256
  9
$CELTSCALE
 40
1.0
  9
$DISPSILH
 70
0
  9
$DIMSCALE
 40
1.0
  9
$DIMASZ
 40
2.5
  9
$DIMEXO
 40
0.625
  9
$DIMDLI
 40
3.75
  9
$DIMRND
 40
0.0
  9
$DIMDLE
 40
0.0
  9
$DIMEXE
 40
1.25
  9
$DIMTP
 40
0.0
  9
$DIMTM
 40
0.0
  9
$DIMTXT
 40
2.5
  9
$DIMCEN
 40
2.5
  9
$DIMTSZ
 40
0.0
  9
$DIMTOL
 70
0
  9
$DIMLIM
 70
0
  9
$DIMTIH
 70
0
  9
$DIMTOH
 70
0
  9
$DIMSE1
 70
0
  9
$DIMSE2
 70
0
  9
$DIMTAD
 70
1
  9
$DIMZIN
 70
8
  9
$DIMBLK
  1

  9
$DIMASO
 70
1
  9
$DIMSHO
 70
1
  9
$DIMPOST
  1

  9
$DIMAPOST
  1

  9
$DIMALT
 70
0
  9
$DIMALTD
 70
3
  9
$DIMALTF
 40
0.03937007874
  9
$DIMLFAC
 40
1.0
  9
$DIMTOFL
 70
1
  9
$DIMTVP
 40
0.0
  9
$DIMTIX
 70
0
  9
$DIMSOXD
 70
0
  9
$DIMSAH
 70
0
  9
$DIMBLK1
  1

  9
$DIMBLK2
  1

  9
$DIMSTYLE
  2
ISO-25
  9
$DIMCLRD
 70
0
  9
$DIMCLRE
 70
0
  9
$DIMCLRT
 70
0
  9
$DIMTFAC
 40
1.0
  9
$DIMGAP
 40
0.625
  9
$DIMJUST
 70
0
  9
$DIMSD1
 70
0
  9
$DIMSD2
 70
0
  9
$DIMTOLJ
 70
0
  9
$DIMTZIN
 70
8
  9
$DIMALTZ
 70
0
  9
$DIMALTTZ
 70
0
  9
$DIMUPT
 70
0
  9
$DIMDEC
 70
2
  9
$DIMTDEC
 70
2
  9
$DIMALTU
 70
2
  9
$DIMALTTD
 70
3
  9
$DIMTXSTY
  7
Standard
  9
$DIMAUNIT
 70
0
  9
$DIMADEC
 70
0
  9
$DIMALTRND
 40
0.0
  9
$DIMAZIN
 70
0
  9
$DIMDSEP
 70
44
  9
$DIMATFIT
 70
3
  9
$DIMFRAC
 70
0
  9
$DIMLDRBLK
  1

  9
$DIMLUNIT
 70
2
  9
$DIMLWD
 70
-2
  9
$DIMLWE
 70
-2
  9
$DIMTMOVE
 70
0
  9
$DIMFXL
 40
1.0
  9
$DIMFXLON
 70
0
  9
$DIMJOGANG
 40
0.785398163397
  9
$DIMTFILL
 70
0
  9
$DIMTFILLCLR
 70
0
  9
$DIMARCSYM
 70
0
  9
$DIMLTYPE
  6

  9
$DIMLTEX1
  6

  9
$DIMLTEX2
  6

  9
$DIMTXTDIRECTION
 70
0
  9
$LUNITS
 70
2
  9
$LUPREC
 70
4
  9
$SKETCHINC
 40
1.0
  9
$FILLETRAD
 40
10.0
  9
$AUNITS
 70
0
  9
$AUPREC
 70
2
  9
$MENU
  1
.
  9
$ELEVATION
 40
0.0
  9
$PELEVATION
 40
0.0
  9
$THICKNESS
 40
0.0
  9
$LIMCHECK
 70
0
  9
$CHAMFERA
 40
0.0
  9
$CHAMFERB
 40
0.0
  9
$CHAMFERC
 40
0.0
  9
$CHAMFERD
 40
0.0
  9
$SKPOLY
 70
0
  9
$TDCREATE
 40
2460238.574479167
  9
$TDUCREATE
 40
2458532.153996898
  9
$TDUPDATE
 40
2460238.574479167
  9
$TDUUPDATE
 40
2458532.1544311
  9
$TDINDWG
 40
0.0
  9
$TDUSRTIMER
 40
0.0
  9
$USRTIMER
 70
1
  9
$ANGBASE
 50
0.0
  9
$ANGDIR
 70
0
  9
$PDMODE
 70
0
  9
$PDSIZE
 40
0.0
  9
$PLINEWID
 40
0.0
  9
$SPLFRAME
 70
0
  9
$SPLINETYPE
 70
6
  9
$SPLINESEGS
 70
8
  9
$HANDSEED
  5
1A3
  9
$SURFTAB1
 70
6
  9
$SURFTAB2
 70
6
  9
$SURFTYPE
 70
6
  9
$SURFU
 70
6
  9
$SURFV
 70
6
  9
$UCSBASE
  2

  9
$UCSNAME
  2

  9
$UCSORG
 10
0.0
 20
0.0
 30
0.0
  9
$UCSXDIR
 10
1.0
 20
0.0
 30
0.0
  9
$UCSYDIR
 10
0.0
 20
1.0
 30
0.0
  9
$UCSORTHOREF
  2

  9
$UCSORTHOVIEW
 70
0
  9
$UCSORGTOP
 10
0.0
 20
0.0
 30
0.0
  9
$UCSORGBOTTOM
 10
0.0
 20
0.0
 30
0.0
  9
$UCSORGLEFT
 10
0.0
 20
0.0
 30
0.0
  9
$UCSORGRIGHT
 10
0.0
 20
0.0
 30
0.0
  9
$UCSORGFRONT
 10
0.0
 20
0.0
 30
0.0
  9
$UCSORGBACK
 10
0.0
 20
0.0
 30
0.0
  9
$PUCSBASE
  2

  9
$PUCSNAME
  2

  9
$PUCSORG
 10
0.0
 20
0.0
 30
0.0
  9
$PUCSXDIR
 10
1.0
 20
0.0
 30
0.0
  9
$PUCSYDIR
 10
0.0
 20
1.0
 30
0.0
  9
$PUCSORTHOREF
  2

  9
$PUCSORTHOVIEW
 70
0
  9
$PUCSORGTOP
 10
0.0
 20
0.0
 30
0.0
  9
$PUCSORGBOTTOM
 10
0.0
 20
0.0
 30
0.0
  9
$PUCSORGLEFT
 10
0.0
 20
0.0
 30
0.0
  9
$PUCSORGRIGHT
 10
0.0
 20
0.0
 30
0.0
  9
$PUCSORGFRONT
 10
0.0
 20
0.0
 30
0.0
  9
$PUCSORGBACK
 10
0.0
 20
0.0
 30
0.0
  9
$USERI1
 70
0
  9
$USERI2
 70
0
  9
$USERI3
 70
0
  9
$USERI4
 70
0
  9
$USERI5
 70
0
  9
$USERR1
 40
0.0
  9
$USERR2
 40
0.0
  9
$USERR3
 40
0.0
  9
$USERR4
 40
0.0
  9
$USERR5
 40
0.0
  9
$WORLDVIEW
 70
1
  9
$SHADEDGE
 70
3
  9
$SHADEDIF
 70
70
  9
$TILEMODE
 70
1
  9
$MAXACTVP
 70
64
  9
$PINSBASE
 10
0.0
 20
0.0
 30
0.0
  9
$PLIMCHECK
 70
0
  9
$PEXTMIN
 10
1e+20
 20
1e+20
 30
1e+20
  9
$PEXTMAX
 10
-1e+20
 20
-1e+20
 30
-1e+20
  9
$PLIMMIN
 10
0.0
 20
0.0
  9
$PLIMMAX
 10
420.0
 20
297.0
  9
$UNITMODE
 70
0
  9
$VISRETAIN
 70
1
  9
$PLINEGEN
 70
0
  9
$PSLTSCALE
 70
1
  9
$TREEDEPTH
 70
3020
  9
$CMLSTYLE
  2
Standard
  9
$CMLJUST
 70
0
  9
$CMLSCALE
 40
20.0
  9
$PROXYGRAPHICS
 70
1
  9
$MEASUREMENT
 70
1
  9
$CELWEIGHT
370
-1
  9
$ENDCAPS
280
0
  9
$JOINSTYLE
280
0
  9
$LWDISPLAY
290
0
  9
$INSUNITS
 70
6
  9
$HYPERLINKBASE
  1

  9
$STYLESHEET
  1

  9
$XEDIT
290
1
  9
$CEPSNTYPE
380
0
  9
$PSTYLEMODE
290
1
  9
$FINGERPRINTGUID
  2
{635A3215-DC51-4CFA-98A6-9BDFDFF8E763}
  9
$VERSIONGUID
  2
{32E35D2C-B6B8-453C-B1BD-733BD76B185C}
  9
$EXTNAMES
290
1
  9
$PSVPSCALE
 40
0.0
  9
$OLESTARTUP
290
0
  9
$SORTENTS
280
127
  9
$INDEXCTL
280
0
  9
$HIDETEXT
280
1
  9
$XCLIPFRAME
280
0
  9
$HALOGAP
280
0
  9
$OBSCOLOR
 70
257
  9
$OBSLTYPE
280
0
  9
$INTERSECTIONDISPLAY
280
0
  9
$INTERSECTIONCOLOR
 70
257
  9
$DIMASSOC
280
2
  9
$PROJECTNAME
  1

  9
$CAMERADISPLAY
290
0
  9
$LENSLENGTH
 40
50.0
  9
$CAMERAHEIGHT
 40
0.0
  9
$STEPSPERSEC
 40
24.0
  9
$STEPSIZE
 40
100.0
  9
$3DDWFPREC
 40
2.0
  9
$PSOLWIDTH
 40
0.005
  9
$PSOLHEIGHT
 40
0.08
  9
$LOFTANG1
 40
1.570796326795
  9
$LOFTANG2
 40
1.570796326795
  9
$LOFTMAG1
 40
0.0
  9
$LOFTMAG2
 40
0.0
  9
$LOFTPARAM
 70
7
  9
$LOFTNORMALS
280
1
  9
$LATITUDE
 40
37.795
  9
$LONGITUDE
 40
-122.394
  9
$NORTHDIRECTION
 40
0.0
  9
$TIMEZONE
 70
-8000
  9
$LIGHTGLYPHDISPLAY
280
1
  9
$TILEMODELIGHTSYNCH
280
1
  9
$CMATERIAL
347
20
  9
$SOLIDHIST
280
0
  9
$SHOWHIST
280
1
  9
$DWFFRAME
280
2
  9
$DGNFRAME
280
2
  9
$REALWORLDSCALE
290
1
  9
$INTERFERECOLOR
 62
256
  9
$CSHADOW
280
0
  9
$SHADOWPLANELOCATION
 40
0.0
  0
ENDSEC
  0
SECTION
  2
CLASSES
  0
CLASS
  1
ACDBDICTIONARYWDFLT
  2
AcDbDictionaryWithDefault
  3
ObjectDBX Classes
 90
0
 91
0
280
0
281
0
  0
CLASS
  1
SUN
  2
AcDbSun
  3
SCENEOE
 90
1153
 91
0
280
0
281
0
  0
CLASS
  1
VISUALSTYLE
  2
AcDbVisualStyle
  3
ObjectDBX Classes
 90
4095
 91
0
280
0
281
0
  0
CLASS
  1
MATERIAL
  2
AcDbMaterial
  3
ObjectDBX Classes
 90
1153
 91
0
280
0
281
0
  0
CLASS
  1
SCALE
  2
AcDbScale
  3
ObjectDBX Classes
 90
1153
 91
0
280
0
281
0
  0
CLASS
  1
TABLESTYLE
  2
AcDbTableStyle
  3
ObjectDBX Classes
 90
4095
 91
0
280
0
281
0
  0
CLASS
  1
MLEADERSTYLE
  2
AcDbMLeaderStyle
  3
ACDB_MLEADERSTYLE_CLASS
 90
4095
 91
0
280
0
281
0
  0
CLASS
  1
DICTIONARYVAR
  2
AcDbDictionaryVar
  3
ObjectDBX Classes
 90
0
 91
0
280
0
281
0
  0
CLASS
  1
CELLSTYLEMAP
  2
AcDbCellStyleMap
  3
ObjectDBX Classes
 90
1152
 91
0
280
0
281
0
  0
CLASS
  1
MENTALRAYRENDERSETTINGS
  2
AcDbMentalRayRenderSettings
  3
SCENEOE
 90
1024
 91
0
280
0
281
0
  0
CLASS
  1
ACDBDETAILVIEWSTYLE
  2
AcDbDetailViewStyle
  3
ObjectDBX Classes
 90
1025
 91
0
280
0
281
0
  0
CLASS
  1
ACDBSECTIONVIEWSTYLE
  2
AcDbSectionViewStyle
  3
ObjectDBX Classes
 90
1025
 91
0
280
0
281
0
  0
CLASS
  1
RASTERVARIABLES
  2
AcDbRasterVariables
  3
ISM
 90
0
 91
0
280
0
281
0
  0
CLASS
  1
ACDBPLACEHOLDER
  2
AcDbPlaceHolder
  3
ObjectDBX Classes
 90
0
 91
0
280
0
281
0
  0
CLASS
  1
LAYOUT
  2
AcDbLayout
  3
ObjectDBX Classes
 90
0
 91
0
280
0
281
0
  0
ENDSEC
  0
SECTION
  2
TABLES
  0
TABLE
  2
VPORT
  5
8
330
0
100
AcDbSymbolTable
 70
1
  0
VPORT
  5
23
330
8
100
AcDbSymbolTableRecord
100
AcDbViewportTableRecord
  2
*Active
 70
0
 10
0.0
 20
0.0
 11
1.0
 21
1.0
 12
0.0
 22
0.0
 13
0.0
 23
0.0
 14
0.5
 24
0.5
 15
0.5
 25
0.5
 16
0.0
 26
0.0
 36
1.0
 17
0.0
 27
0.0
 37
0.0
 40
1000.0
 41
1.34
 42
50.0
 43
0.0
 44
0.0
 50
0.0
 51
0.0
 71
0
 72
1000
 73
1
 74
3
 75
0
 76
0
 77
0
 78
0
281
0
 65
0
146
0.0
  0
ENDTAB
  0
TABLE
  2
LTYPE
  5
2
330
0
100
AcDbSymbolTable
 70
3
  0
LTYPE
  5
24
330
2
100
AcDbSymbolTableRecord
100
AcDbLinetypeTableRecord
  2
ByBlock
 70
0
  3

 72
65
 73
0
 40
0.0
  0
LTYPE
  5
25
330
2
100
AcDbSymbolTableRecord
100
AcDbLinetypeTableRecord
  2
ByLayer
 70
0
  3

 72
65
 73
0
 40
0.0
  0
LTYPE
  5
26
330
2
100
AcDbSymbolTableRecord
100
AcDbLinetypeTableRecord
  2
Continuous
 70
0
  3

 72
65
 73
0
 40
0.0
  0
ENDTAB
  0
TABLE
  2
LAYER
  5
1
330
0
100
AcDbSymbolTable
 70
5
  0
LAYER
  5
27
330
1
100
AcDbSymbolTableRecord
100
AcDbLayerTableRecord
  2
0
 70
0
 62
7
  6
Continuous
370
-3
390
13
347
21
  0
LAYER
  5
28
330
1
100
AcDbSymbolTableRecord
100
AcDbLayerTableRecord
  2
Defpoints
 70
0
 62
7
  6
Continuous
290
0
370
-3
390
13
347
21
  0
LAYER
  5
30
330
1
100
AcDbSymbolTableRecord
100
AcDbLayerTableRecord
  2
FoilLayer
 70
0
 62
1
  6
Continuous
370
50
390
13
347
21
  0
LAYER
  5
31
330
1
100
AcDbSymbolTableRecord
100
AcDbLayerTableRecord
  2
StringerLayer
 70
0
 62
1
  6
Continuous
370
50
390
13
347
21
  0
LAYER
  5
32
330
1
100
AcDbSymbolTableRecord
100
AcDbLayerTableRecord
  2
SubLayer
 70
0
 62
1
  6
Continuous
370
50
390
13
347
21
  0
ENDTAB
  0
TABLE
  2
STYLE
  5
5
330
0
100
AcDbSymbolTable
 70
2
  0
STYLE
  5
29
330
5
100
AcDbSymbolTableRecord
100
AcDbTextStyleTableRecord
  2
Standard
 70
0
 40
0.0
 41
1.0
 50
0.0
 71
0
 42
2.5
  3
txt
  4

  0
STYLE
  5
2F
330
5
100
AcDbSymbolTableRecord
100
AcDbTextStyleTableRecord
  2
MSゴシック
 70
0
 40
0.0
 41
1.0
 50
0.0
 71
0
 42
2.5
  3
romans
  4

  0
ENDTAB
  0
TABLE
  2
VIEW
  5
7
330
0
100
AcDbSymbolTable
 70
0
  0
ENDTAB
  0
TABLE
  2
UCS
  5
6
330
0
100
AcDbSymbolTable
 70
0
  0
ENDTAB
  0
TABLE
  2
APPID
  5
3
330
0
100
AcDbSymbolTable
 70
3
  0
APPID
  5
2A
330
3
100
AcDbSymbolTableRecord
100
AcDbRegAppTableRecord
  2
ACAD
 70
0
  0
APPID
  5
1A0
330
3
100
AcDbSymbolTableRecord
100
AcDbRegAppTableRecord
  2
HATCHBACKGROUNDCOLOR
 70
0
  0
APPID
  5
1A1
330
3
100
AcDbSymbolTableRecord
100
AcDbRegAppTableRecord
  2
EZDXF
 70
0
  0
ENDTAB
  0
TABLE
  2
DIMSTYLE
  5
4
330
0
100
AcDbSymbolTable
 70
1
100
AcDbDimStyleTable
  0
DIMSTYLE
105
2B
330
4
100
AcDbSymbolTableRecord
100
AcDbDimStyleTableRecord
  2
Standard
 70
0
 40
1.0
 41
2.5
 42
0.625
 43
3.75
 44
1.25
 45
0.0
 46
0.0
 47
0.0
 48
0.0
 49
2.5
140
2.5
141
2.5
142
0.0
143
0.03937007874
144
1.0
145
0.0
146
1.0
147
0.625
148
0.0
 69
0
 70
0
 71
0
 72
0
 73
0
 74
0
 75
0
 76
0
 77
1
 78
8
 79
3
170
0
171
3
172
1
173
0
174
0
175
0
176
0
177
0
178
0
179
2
271
2
272
2
273
2
274
3
275
0
276
0
277
2
278
44
279
0
280
0
281
0
282
0
283
0
284
8
285
0
286
0
288
0
289
3
290
0
371
-2
372
-2
  0
ENDTAB
  0
TABLE
  2
BLOCK_RECORD
  5
9
330
0
100
AcDbSymbolTable
 70
2
  0
BLOCK_RECORD
  5
17
330
9
100
AcDbSymbolTableRecord
100
AcDbBlockTableRecord
  2
*Model_Space
340
1A
 70
0
280
1
281
0
  0
BLOCK_RECORD
  5
1B
330
9
100
AcDbSymbolTableRecord
100
AcDbBlockTableRecord
  2
*Paper_Space
340
1E
 70
0
280
1
281
0
  0
ENDTAB
  0
ENDSEC
  0
SECTION
  2
BLOCKS
  0
BLOCK
  5
18
330
17
100
AcDbEntity
  8
0
100
AcDbBlockBegin
  2
*Model_Space
 70
0
 10
0.0
 20
0.0
 30
0.0
  3
*Model_Space
  1

  0
ENDBLK
  5
19
330
17
100
AcDbEntity
  8
0
100
AcDbBlockEnd
  0
BLOCK
  5
1C
330
1B
100
AcDbEntity
  8
0
100
AcDbBlockBegin
  2
*Paper_Space
 70
0
 10
0.0
 20
0.0
 30
0.0
  3
*Paper_Space
  1

  0
ENDBLK
  5
1D
330
1B
100
AcDbEntity
  8
0
100
AcDbBlockEnd
  0
ENDSEC
  0
SECTION
  2
ENTITIES
  0
LINE
  5
33
330
17
100
AcDbEntity
  8
FoilLayer
100
AcDbLine
 10
299.4922488879673
 20
51.69874262596825
 30
0.0
 11
37.50000000000006
 21
-9.722092132247528
 31
0.0
  0
LINE
  5
34
330
17
100
AcDbEntity
  8
FoilLayer
100
AcDbLine
 10
487.4999999999999
 20
0.037501125033751005
 30
0.0
 11
487.3499954998649
 21
0.09000270008100239
 31
0.0
  0
LINE
  5
35
330
17
100
AcDbEntity
  8
FoilLayer
100
AcDbLine
 10
487.3499954998649
 20
0.09000270008100239
 30
0.0
 11
486.90748222446666
 21
0.24000720021600638
 31
0.0
  0
LINE
  5
36
330
17
100
AcDbEntity
  8
FoilLayer
100
AcDbLine
 10
486.90748222446666
 20
0.24000720021600638
 30
0.0
 11
486.20246107383207
 21
0.48751462543876306
 31
0.0
  0
LINE
  5
37
330
17
100
AcDbEntity
  8
FoilLayer
100
AcDbLine
 10
486.20246107383207
 20
0.48751462543876306
 30
0.0
 11
485.23493204796125
 21
0.8250247507425219
 31
0.0
  0
LINE
  5
38
330
17
100
AcDbEntity
  8
FoilLayer
100
AcDbLine
 10
485.23493204796125
 20
0.8250247507425219
 30
0.0
 11
484.01989559686785
 21
1.2450373511205333
 31
0.0
  0
LINE
  5
39
330
17
100
AcDbEntity
  8
FoilLayer
100
AcDbLine
 10
484.01989559686785
 20
1.2450373511205333
 30
0.0
 11
482.55735172055154
 21
1.7475524265727966
 31
0.0
  0
LINE
  5
3A
330
17
100
AcDbEntity
  8
FoilLayer
100
AcDbLine
 10
482.55735172055154
 20
1.7475524265727966
 30
0.0
 11
480.86230086902594
 21
2.3175695270858117
 31
0.0
  0
LINE
  5
3B
330
17
100
AcDbEntity
  8
FoilLayer
100
AcDbLine
 10
480.86230086902594
 20
2.3175695270858117
 30
0.0
 11
478.9272428172844
 21
2.9625888776663296
 31
0.0
  0
LINE
  5
3C
330
17
100
AcDbEntity
  8
FoilLayer
100
AcDbLine
 10
478.9272428172844
 20
2.9625888776663296
 30
0.0
 11
476.7671780153404
 21
3.682610478314348
 31
0.0
  0
LINE
  5
3D
330
17
100
AcDbEntity
  8
FoilLayer
100
AcDbLine
 10
476.7671780153404
 20
3.682610478314348
 30
0.0
 11
474.38210646319374
 21
4.455133654009619
 31
0.0
  0
LINE
  5
3E
330
17
100
AcDbEntity
  8
FoilLayer
100
AcDbLine
 10
474.38210646319374
 20
4.455133654009619
 30
0.0
 11
471.7720281608447
 21
5.295158854765642
 31
0.0
  0
LINE
  5
3F
330
17
100
AcDbEntity
  8
FoilLayer
100
AcDbLine
 10
471.7720281608447
 20
5.295158854765642
 30
0.0
 11
468.9369431082931
 21
6.187685630568914
 31
0.0
  0
LINE
  5
40
330
17
100
AcDbEntity
  8
FoilLayer
100
AcDbLine
 10
468.9369431082931
 20
6.187685630568914
 30
0.0
 11
465.8843515305459
 21
7.13271398141944
 31
0.0
  0
LINE
  5
41
330
17
100
AcDbEntity
  8
FoilLayer
100
AcDbLine
 10
465.8843515305459
 20
7.13271398141944
 30
0.0
 11
462.6067532025959
 21
8.137744132323968
 31
0.0
  0
LINE
  5
42
330
17
100
AcDbEntity
  8
FoilLayer
100
AcDbLine
 10
462.6067532025959
 20
8.137744132323968
 30
0.0
 11
459.1191485744572
 21
9.195275858275746
 31
0.0
  0
LINE
  5
43
330
17
100
AcDbEntity
  8
FoilLayer
100
AcDbLine
 10
459.1191485744572
 20
9.195275858275746
 30
0.0
 11
455.4215376461293
 21
10.297808934268025
 31
0.0
  0
LINE
  5
44
330
17
100
AcDbEntity
  8
FoilLayer
100
AcDbLine
 10
455.4215376461293
 20
10.297808934268025
 30
0.0
 11
451.51392041761244
 21
11.452843585307555
 31
0.0
  0
LINE
  5
45
330
17
100
AcDbEntity
  8
FoilLayer
100
AcDbLine
 10
451.51392041761244
 20
11.452843585307555
 30
0.0
 11
447.3962968889066
 21
12.652879586387586
 31
0.0
  0
LINE
  5
46
330
17
100
AcDbEntity
  8
FoilLayer
100
AcDbLine
 10
447.3962968889066
 20
12.652879586387586
 30
0.0
 11
443.06866706001176
 21
13.897916937508123
 31
0.0
  0
LINE
  5
47
330
17
100
AcDbEntity
  8
FoilLayer
100
AcDbLine
 10
443.06866706001176
 20
13.897916937508123
 30
0.0
 11
438.5385311559346
 21
15.187955638669155
 31
0.0
  0
LINE
  5
48
330
17
100
AcDbEntity
  8
FoilLayer
100
AcDbLine
 10
438.5385311559346
 20
15.187955638669155
 30
0.0
 11
433.8058891766751
 21
16.537996139884193
 31
0.0
  0
LINE
  5
49
330
17
100
AcDbEntity
  8
FoilLayer
100
AcDbLine
 10
433.8058891766751
 20
16.537996139884193
 30
0.0
 11
428.8782413472403
 21
17.933037991139727
 31
0.0
  0
LINE
  5
4A
330
17
100
AcDbEntity
  8
FoilLayer
100
AcDbLine
 10
428.8782413472403
 20
17.933037991139727
 30
0.0
 11
423.77058811764346
 21
19.38808164244927
 31
0.0
  0
LINE
  5
4B
330
17
100
AcDbEntity
  8
FoilLayer
100
AcDbLine
 10
423.77058811764346
 20
19.38808164244927
 30
0.0
 11
418.4829294878846
 21
20.88062641879256
 31
0.0
  0
LINE
  5
4C
330
17
100
AcDbEntity
  8
FoilLayer
100
AcDbLine
 10
418.4829294878846
 20
20.88062641879256
 30
0.0
 11
413.0077652329569
 21
22.4256727701831
 31
0.0
  0
LINE
  5
4D
330
17
100
AcDbEntity
  8
FoilLayer
100
AcDbLine
 10
413.0077652329569
 20
22.4256727701831
 30
0.0
 11
407.3675960278807
 21
24.01572047161414
 31
0.0
  0
LINE
  5
4E
330
17
100
AcDbEntity
  8
FoilLayer
100
AcDbLine
 10
407.3675960278807
 20
24.01572047161414
 30
0.0
 11
401.56242187265616
 21
25.658269748092433
 31
0.0
  0
LINE
  5
4F
330
17
100
AcDbEntity
  8
FoilLayer
100
AcDbLine
 10
401.56242187265616
 20
25.658269748092433
 30
0.0
 11
395.6072432172965
 21
27.338320149604474
 31
0.0
  0
LINE
  5
50
330
17
100
AcDbEntity
  8
FoilLayer
100
AcDbLine
 10
395.6072432172965
 20
27.338320149604474
 30
0.0
 11
389.5020600618018
 21
29.063371901157026
 31
0.0
  0
LINE
  5
51
330
17
100
AcDbEntity
  8
FoilLayer
100
AcDbLine
 10
389.5020600618018
 20
29.063371901157026
 30
0.0
 11
383.2468724061721
 21
30.81842455273657
 31
0.0
  0
LINE
  5
52
330
17
100
AcDbEntity
  8
FoilLayer
100
AcDbLine
 10
383.2468724061721
 20
30.81842455273657
 30
0.0
 11
376.8416802504074
 21
32.61097832934987
 31
0.0
  0
LINE
  5
53
330
17
100
AcDbEntity
  8
FoilLayer
100
AcDbLine
 10
376.8416802504074
 20
32.61097832934987
 30
0.0
 11
370.30898426952797
 21
34.441033230996915
 31
0.0
  0
LINE
  5
54
330
17
100
AcDbEntity
  8
FoilLayer
100
AcDbLine
 10
370.30898426952797
 20
34.441033230996915
 30
0.0
 11
363.6562846885406
 21
36.30858925767771
 31
0.0
  0
LINE
  5
55
330
17
100
AcDbEntity
  8
FoilLayer
100
AcDbLine
 10
363.6562846885406
 20
36.30858925767771
 30
0.0
 11
356.891081732452
 21
38.198645959378766
 31
0.0
  0
LINE
  5
56
330
17
100
AcDbEntity
  8
FoilLayer
100
AcDbLine
 10
356.891081732452
 20
38.198645959378766
 30
0.0
 11
350.00587517625513
 21
40.10370311109332
 31
0.0
  0
LINE
  5
57
330
17
100
AcDbEntity
  8
FoilLayer
100
AcDbLine
 10
350.00587517625513
 20
40.10370311109332
 30
0.0
 11
343.00816524495724
 21
42.03126093782812
 31
0.0
  0
LINE
  5
58
330
17
100
AcDbEntity
  8
FoilLayer
100
AcDbLine
 10
343.00816524495724
 20
42.03126093782812
 30
0.0
 11
335.90545216356486
 21
43.98131943958317
 31
0.0
  0
LINE
  5
59
330
17
100
AcDbEntity
  8
FoilLayer
100
AcDbLine
 10
335.90545216356486
 20
43.98131943958317
 30
0.0
 11
328.7127363820914
 21
45.95387861635847
 31
0.0
  0
LINE
  5
5A
330
17
100
AcDbEntity
  8
FoilLayer
100
AcDbLine
 10
328.7127363820914
 20
45.95387861635847
 30
0.0
 11
321.43751812554376
 21
47.94143824314729
 31
0.0
  0
LINE
  5
5B
330
17
100
AcDbEntity
  8
FoilLayer
100
AcDbLine
 10
321.43751812554376
 20
47.94143824314729
 30
0.0
 11
314.08729761892846
 21
49.91399741992258
 31
0.0
  0
LINE
  5
5C
330
17
100
AcDbEntity
  8
FoilLayer
100
AcDbLine
 10
314.08729761892846
 20
49.91399741992258
 30
0.0
 11
306.6545746372391
 21
51.88655659669788
 31
0.0
  0
LINE
  5
5D
330
17
100
AcDbEntity
  8
FoilLayer
100
AcDbLine
 10
306.6545746372391
 20
51.88655659669788
 30
0.0
 11
299.9999999999999
 21
53.63321640667184
 31
0.0
  0
LINE
  5
5E
330
17
100
AcDbEntity
  8
FoilLayer
100
AcDbLine
 10
299.9999999999999
 20
53.63321640667184
 30
0.0
 11
299.4922488879673
 21
51.69874262596825
 31
0.0
  0
LINE
  5
5F
330
17
100
AcDbEntity
  8
FoilLayer
100
AcDbLine
 10
299.4922488879673
 20
51.69874262596825
 30
0.0
 11
298.6389553503154
 21
51.922725829598804
 31
0.0
  0
LINE
  5
60
330
17
100
AcDbEntity
  8
FoilLayer
100
AcDbLine
 10
298.6389553503154
 20
51.922725829598804
 30
0.0
 11
291.07099094001285
 21
53.878422237765136
 31
0.0
  0
LINE
  5
61
330
17
100
AcDbEntity
  8
FoilLayer
100
AcDbLine
 10
291.07099094001285
 20
53.878422237765136
 30
0.0
 11
283.4447117140202
 21
55.818725469265445
 31
0.0
  0
LINE
  5
62
330
17
100
AcDbEntity
  8
FoilLayer
100
AcDbLine
 10
283.4447117140202
 20
55.818725469265445
 30
0.0
 11
275.7591884226748
 21
57.736386671611186
 31
0.0
  0
LINE
  5
63
330
17
100
AcDbEntity
  8
FoilLayer
100
AcDbLine
 10
275.7591884226748
 20
57.736386671611186
 30
0.0
 11
267.99682418091675
 21
59.632038822957774
 31
0.0
  0
LINE
  5
64
330
17
100
AcDbEntity
  8
FoilLayer
100
AcDbLine
 10
267.99682418091675
 20
59.632038822957774
 30
0.0
 11
260.18587382420753
 21
61.506072207061294
 31
0.0
  0
LINE
  5
65
330
17
100
AcDbEntity
  8
FoilLayer
100
AcDbLine
 10
260.18587382420753
 20
61.506072207061294
 30
0.0
 11
252.33566781442244
 21
63.3712724751604
 31
0.0
  0
LINE
  5
66
330
17
100
AcDbEntity
  8
FoilLayer
100
AcDbLine
 10
252.33566781442244
 20
63.3712724751604
 30
0.0
 11
244.46470042506473
 21
65.19863247875443
 31
0.0
  0
LINE
  5
67
330
17
100
AcDbEntity
  8
FoilLayer
100
AcDbLine
 10
244.46470042506473
 20
65.19863247875443
 30
0.0
 11
236.57336237916024
 21
66.98059947542814
 31
0.0
  0
LINE
  5
68
330
17
100
AcDbEntity
  8
FoilLayer
100
AcDbLine
 10
236.57336237916024
 20
66.98059947542814
 30
0.0
 11
228.65764763941513
 21
68.70899076416292
 31
0.0
  0
LINE
  5
69
330
17
100
AcDbEntity
  8
FoilLayer
100
AcDbLine
 10
228.65764763941513
 20
68.70899076416292
 30
0.0
 11
220.699422710708
 21
70.36357897755985
 31
0.0
  0
LINE
  5
6A
330
17
100
AcDbEntity
  8
FoilLayer
100
AcDbLine
 10
220.699422710708
 20
70.36357897755985
 30
0.0
 11
212.69507782822342
 21
71.9659930128726
 31
0.0
  0
LINE
  5
6B
330
17
100
AcDbEntity
  8
FoilLayer
100
AcDbLine
 10
212.69507782822342
 20
71.9659930128726
 30
0.0
 11
204.6706322174063
 21
73.51555530192365
 31
0.0
  0
LINE
  5
6C
330
17
100
AcDbEntity
  8
FoilLayer
100
AcDbLine
 10
204.6706322174063
 20
73.51555530192365
 30
0.0
 11
196.6094420061492
 21
75.00511362124905
 31
0.0
  0
LINE
  5
6D
330
17
100
AcDbEntity
  8
FoilLayer
100
AcDbLine
 10
196.6094420061492
 20
75.00511362124905
 30
0.0
 11
188.53385684714135
 21
76.4272120331783
 31
0.0
  0
LINE
  5
6E
330
17
100
AcDbEntity
  8
FoilLayer
100
AcDbLine
 10
188.53385684714135
 20
76.4272120331783
 30
0.0
 11
180.427938047307
 21
77.78201449581802
 31
0.0
  0
LINE
  5
6F
330
17
100
AcDbEntity
  8
FoilLayer
100
AcDbLine
 10
180.427938047307
 20
77.78201449581802
 30
0.0
 11
172.29975937726596
 21
79.06942580827018
 31
0.0
  0
LINE
  5
70
330
17
100
AcDbEntity
  8
FoilLayer
100
AcDbLine
 10
172.29975937726596
 20
79.06942580827018
 30
0.0
 11
164.14101993019392
 21
80.28956450574697
 31
0.0
  0
LINE
  5
71
330
17
100
AcDbEntity
  8
FoilLayer
100
AcDbLine
 10
164.14101993019392
 20
80.28956450574697
 30
0.0
 11
155.96704150977865
 21
81.44237311413154
 31
0.0
  0
LINE
  5
72
330
17
100
AcDbEntity
  8
FoilLayer
100
AcDbLine
 10
155.96704150977865
 20
81.44237311413154
 30
0.0
 11
147.78580817307108
 21
82.52778503752747
 31
0.0
  0
LINE
  5
73
330
17
100
AcDbEntity
  8
FoilLayer
100
AcDbLine
 10
147.78580817307108
 20
82.52778503752747
 30
0.0
 11
139.58935817141992
 21
83.5458594802626
 31
0.0
  0
LINE
  5
74
330
17
100
AcDbEntity
  8
FoilLayer
100
AcDbLine
 10
139.58935817141992
 20
83.5458594802626
 30
0.0
 11
131.38900964464625
 21
84.49618321718002
 31
0.0
  0
LINE
  5
75
330
17
100
AcDbEntity
  8
FoilLayer
100
AcDbLine
 10
131.38900964464625
 20
84.49618321718002
 30
0.0
 11
123.17759521338962
 21
85.36455003259522
 31
0.0
  0
LINE
  5
76
330
17
100
AcDbEntity
  8
FoilLayer
100
AcDbLine
 10
123.17759521338962
 20
85.36455003259522
 30
0.0
 11
114.9567297681806
 21
86.16572503124965
 31
0.0
  0
LINE
  5
77
330
17
100
AcDbEntity
  8
FoilLayer
100
AcDbLine
 10
114.9567297681806
 20
86.16572503124965
 30
0.0
 11
106.73935271706534
 21
86.90671682290332
 31
0.0
  0
LINE
  5
78
330
17
100
AcDbEntity
  8
FoilLayer
100
AcDbLine
 10
106.73935271706534
 20
86.90671682290332
 30
0.0
 11
98.5259269948503
 21
87.57312672291447
 31
0.0
  0
LINE
  5
79
330
17
100
AcDbEntity
  8
FoilLayer
100
AcDbLine
 10
98.5259269948503
 20
87.57312672291447
 30
0.0
 11
90.32344417993232
 21
88.17941159792315
 31
0.0
  0
LINE
  5
7A
330
17
100
AcDbEntity
  8
FoilLayer
100
AcDbLine
 10
90.32344417993232
 20
88.17941159792315
 30
0.0
 11
82.14369301898807
 21
88.71084007403152
 31
0.0
  0
LINE
  5
7B
330
17
100
AcDbEntity
  8
FoilLayer
100
AcDbLine
 10
82.14369301898807
 20
88.71084007403152
 30
0.0
 11
73.97903580866551
 21
89.16742458812371
 31
0.0
  0
LINE
  5
7C
330
17
100
AcDbEntity
  8
FoilLayer
100
AcDbLine
 10
73.97903580866551
 20
89.16742458812371
 30
0.0
 11
65.82756186258177
 21
89.54924043736654
 31
0.0
  0
LINE
  5
7D
330
17
100
AcDbEntity
  8
FoilLayer
100
AcDbLine
 10
65.82756186258177
 20
89.54924043736654
 30
0.0
 11
57.69863797732722
 21
89.86368542815065
 31
0.0
  0
LINE
  5
7E
330
17
100
AcDbEntity
  8
FoilLayer
100
AcDbLine
 10
57.69863797732722
 20
89.86368542815065
 30
0.0
 11
49.599765760049365
 21
90.11076062786213
 31
0.0
  0
LINE
  5
7F
330
17
100
AcDbEntity
  8
FoilLayer
100
AcDbLine
 10
49.599765760049365
 20
90.11076062786213
 30
0.0
 11
41.54800504193321
 21
90.29043924212709
 31
0.0
  0
LINE
  5
80
330
17
100
AcDbEntity
  8
FoilLayer
100
AcDbLine
 10
41.54800504193321
 20
90.29043924212709
 30
0.0
 11
33.52637637373181
 21
90.39528593812078
 31
0.0
  0
LINE
  5
81
330
17
100
AcDbEntity
  8
FoilLayer
100
AcDbLine
 10
33.52637637373181
 20
90.39528593812078
 30
0.0
 11
25.55182354383379
 21
90.4253162024705
 31
0.0
  0
LINE
  5
82
330
17
100
AcDbEntity
  8
FoilLayer
100
AcDbLine
 10
25.55182354383379
 20
90.4253162024705
 30
0.0
 11
17.601808426652894
 21
90.3729729217089
 31
0.0
  0
LINE
  5
83
330
17
100
AcDbEntity
  8
FoilLayer
100
AcDbLine
 10
17.601808426652894
 20
90.3729729217089
 30
0.0
 11
9.69704715196093
 21
90.2607492856921
 31
0.0
  0
LINE
  5
84
330
17
100
AcDbEntity
  8
FoilLayer
100
AcDbLine
 10
9.69704715196093
 20
90.2607492856921
 30
0.0
 11
1.8562975190128554
 21
90.08876678398067
 31
0.0
  0
LINE
  5
85
330
17
100
AcDbEntity
  8
FoilLayer
100
AcDbLine
 10
1.8562975190128554
 20
90.08876678398067
 30
0.0
 11
-5.93339866652758
 21
89.84191266030477
 31
0.0
  0
LINE
  5
86
330
17
100
AcDbEntity
  8
FoilLayer
100
AcDbLine
 10
-5.93339866652758
 20
89.84191266030477
 30
0.0
 11
-13.64416018323837
 21
89.52791925786049
 31
0.0
  0
LINE
  5
87
330
17
100
AcDbEntity
  8
FoilLayer
100
AcDbLine
 10
-13.64416018323837
 20
89.52791925786049
 30
0.0
 11
-21.30594719109314
 21
89.13144734676365
 31
0.0
  0
LINE
  5
88
330
17
100
AcDbEntity
  8
FoilLayer
100
AcDbLine
 10
-21.30594719109314
 20
89.13144734676365
 30
0.0
 11
-28.907471574749792
 21
88.66766279913575
 31
0.0
  0
LINE
  5
89
330
17
100
AcDbEntity
  8
FoilLayer
100
AcDbLine
 10
-28.907471574749792
 20
88.66766279913575
 30
0.0
 11
-36.45024300327566
 21
88.1364531085779
 31
0.0
  0
LINE
  5
8A
330
17
100
AcDbEntity
  8
FoilLayer
100
AcDbLine
 10
-36.45024300327566
 20
88.1364531085779
 30
0.0
 11
-43.90998288524696
 21
87.54544206251543
 31
0.0
  0
LINE
  5
8B
330
17
100
AcDbEntity
  8
FoilLayer
100
AcDbLine
 10
-43.90998288524696
 20
87.54544206251543
 30
0.0
 11
-51.27547099584348
 21
86.89501141836155
 31
0.0
  0
LINE
  5
8C
330
17
100
AcDbEntity
  8
FoilLayer
100
AcDbLine
 10
-51.27547099584348
 20
86.89501141836155
 30
0.0
 11
-58.55621506065381
 21
86.17007923386848
 31
0.0
  0
LINE
  5
8D
330
17
100
AcDbEntity
  8
FoilLayer
100
AcDbLine
 10
-58.55621506065381
 20
86.17007923386848
 30
0.0
 11
-65.76744711629718
 21
85.36227377494687
 31
0.0
  0
LINE
  5
8E
330
17
100
AcDbEntity
  8
FoilLayer
100
AcDbLine
 10
-65.76744711629718
 20
85.36227377494687
 30
0.0
 11
-72.89552911676893
 21
84.4947359797082
 31
0.0
  0
LINE
  5
8F
330
17
100
AcDbEntity
  8
FoilLayer
100
AcDbLine
 10
-72.89552911676893
 20
84.4947359797082
 30
0.0
 11
-79.93318081210958
 21
83.5674548577956
 31
0.0
  0
LINE
  5
90
330
17
100
AcDbEntity
  8
FoilLayer
100
AcDbLine
 10
-79.93318081210958
 20
83.5674548577956
 30
0.0
 11
-86.88186153861395
 21
82.58022225964652
 31
0.0
  0
LINE
  5
91
330
17
100
AcDbEntity
  8
FoilLayer
100
AcDbLine
 10
-86.88186153861395
 20
82.58022225964652
 30
0.0
 11
-93.72041615897294
 21
81.54151104780084
 31
0.0
  0
LINE
  5
92
330
17
100
AcDbEntity
  8
FoilLayer
100
AcDbLine
 10
-93.72041615897294
 20
81.54151104780084
 30
0.0
 11
-100.44656495209512
 21
80.43558410639376
 31
0.0
  0
LINE
  5
93
330
17
100
AcDbEntity
  8
FoilLayer
100
AcDbLine
 10
-100.44656495209512
 20
80.43558410639376
 30
0.0
 11
-107.07682788245609
 21
79.26215217470029
 31
0.0
  0
LINE
  5
94
330
17
100
AcDbEntity
  8
FoilLayer
100
AcDbLine
 10
-107.07682788245609
 20
79.26215217470029
 30
0.0
 11
-113.60817956974998
 21
78.02926683491562
 31
0.0
  0
LINE
  5
95
330
17
100
AcDbEntity
  8
FoilLayer
100
AcDbLine
 10
-113.60817956974998
 20
78.02926683491562
 30
0.0
 11
-120.02857965354966
 21
76.73634988038951
 31
0.0
  0
LINE
  5
96
330
17
100
AcDbEntity
  8
FoilLayer
100
AcDbLine
 10
-120.02857965354966
 20
76.73634988038951
 30
0.0
 11
-126.33757687769409
 21
75.39094945656845
 31
0.0
  0
LINE
  5
97
330
17
100
AcDbEntity
  8
FoilLayer
100
AcDbLine
 10
-126.33757687769409
 20
75.39094945656845
 30
0.0
 11
-132.5225488054112
 21
74.00174333271595
 31
0.0
  0
LINE
  5
98
330
17
100
AcDbEntity
  8
FoilLayer
100
AcDbLine
 10
-132.5225488054112
 20
74.00174333271595
 30
0.0
 11
-138.56877100627577
 21
72.5613288673708
 31
0.0
  0
LINE
  5
99
330
17
100
AcDbEntity
  8
FoilLayer
100
AcDbLine
 10
-138.56877100627577
 20
72.5613288673708
 30
0.0
 11
-144.50340651789327
 21
71.05362566122066
 31
0.0
  0
LINE
  5
9A
330
17
100
AcDbEntity
  8
FoilLayer
100
AcDbLine
 10
-144.50340651789327
 20
71.05362566122066
 30
0.0
 11
-150.31954011477285
 21
69.48592981600756
 31
0.0
  0
LINE
  5
9B
330
17
100
AcDbEntity
  8
FoilLayer
100
AcDbLine
 10
-150.31954011477285
 20
69.48592981600756
 30
0.0
 11
-156.02053265615785
 21
67.86467908162766
 31
0.0
  0
LINE
  5
9C
330
17
100
AcDbEntity
  8
FoilLayer
100
AcDbLine
 10
-156.02053265615785
 20
67.86467908162766
 30
0.0
 11
-161.579246214353
 21
66.2159573493579
 31
0.0
  0
LINE
  5
9D
330
17
100
AcDbEntity
  8
FoilLayer
100
AcDbLine
 10
-161.579246214353
 20
66.2159573493579
 30
0.0
 11
-167.01032673864228
 21
64.51525905239984
 31
0.0
  0
LINE
  5
9E
330
17
100
AcDbEntity
  8
FoilLayer
100
AcDbLine
 10
-167.01032673864228
 20
64.51525905239984
 30
0.0
 11
-172.29946719805463
 21
62.76985754490631
 31
0.0
  0
LINE
  5
9F
330
17
100
AcDbEntity
  8
FoilLayer
100
AcDbLine
 10
-172.29946719805463
 20
62.76985754490631
 30
0.0
 11
-177.45834667565038
 21
60.98094246213793
 31
0.0
  0
LINE
  5
A0
330
17
100
AcDbEntity
  8
FoilLayer
100
AcDbLine
 10
-177.45834667565038
 20
60.98094246213793
 30
0.0
 11
-182.4779074685261
 21
59.146394434122335
 31
0.0
  0
LINE
  5
A1
330
17
100
AcDbEntity
  8
FoilLayer
100
AcDbLine
 10
-182.4779074685261
 20
59.146394434122335
 30
0.0
 11
-187.3694844984173
 21
57.27502166310467
 31
0.0
  0
LINE
  5
A2
330
17
100
AcDbEntity
  8
FoilLayer
100
AcDbLine
 10
-187.3694844984173
 20
57.27502166310467
 30
0.0
 11
-192.11630245296575
 21
55.37510300772402
 31
0.0
  0
LINE
  5
A3
330
17
100
AcDbEntity
  8
FoilLayer
100
AcDbLine
 10
-192.11630245296575
 20
55.37510300772402
 30
0.0
 11
-196.7117514709377
 21
53.44639006564111
 31
0.0
  0
LINE
  5
A4
330
17
100
AcDbEntity
  8
FoilLayer
100
AcDbLine
 10
-196.7117514709377
 20
53.44639006564111
 30
0.0
 11
-201.15318517487543
 21
51.49020985876955
 31
0.0
  0
LINE
  5
A5
330
17
100
AcDbEntity
  8
FoilLayer
100
AcDbLine
 10
-201.15318517487543
 20
51.49020985876955
 30
0.0
 11
-205.44958131249956
 21
49.49498630149099
 31
0.0
  0
LINE
  5
A6
330
17
100
AcDbEntity
  8
FoilLayer
100
AcDbLine
 10
-205.44958131249956
 20
49.49498630149099
 30
0.0
 11
-209.59949956980782
 21
47.47995410493106
 31
0.0
  0
LINE
  5
A7
330
17
100
AcDbEntity
  8
FoilLayer
100
AcDbLine
 10
-209.59949956980782
 20
47.47995410493106
 30
0.0
 11
-213.61059257611248
 21
45.43383292600426
 31
0.0
  0
LINE
  5
A8
330
17
100
AcDbEntity
  8
FoilLayer
100
AcDbLine
 10
-213.61059257611248
 20
45.43383292600426
 30
0.0
 11
-217.4571553796443
 21
43.38486001765449
 31
0.0
  0
LINE
  5
A9
330
17
100
AcDbEntity
  8
FoilLayer
100
AcDbLine
 10
-217.4571553796443
 20
43.38486001765449
 30
0.0
 11
-221.15086051143192
 21
41.311769698309696
 31
0.0
  0
LINE
  5
AA
330
17
100
AcDbEntity
  8
FoilLayer
100
AcDbLine
 10
-221.15086051143192
 20
41.311769698309696
 30
0.0
 11
-224.66841590598952
 21
39.246472749171666
 31
0.0
  0
LINE
  5
AB
330
17
100
AcDbEntity
  8
FoilLayer
100
AcDbLine
 10
-224.66841590598952
 20
39.246472749171666
 30
0.0
 11
-228.03013757613013
 21
37.15173265512343
 31
0.0
  0
LINE
  5
AC
330
17
100
AcDbEntity
  8
FoilLayer
100
AcDbLine
 10
-228.03013757613013
 20
37.15173265512343
 30
0.0
 11
-231.23028291216616
 21
35.041222933285674
 31
0.0
  0
LINE
  5
AD
330
17
100
AcDbEntity
  8
FoilLayer
100
AcDbLine
 10
-231.23028291216616
 20
35.041222933285674
 30
0.0
 11
-234.2903963151846
 21
32.915347957544
 31
0.0
  0
LINE
  5
AE
330
17
100
AcDbEntity
  8
FoilLayer
100
AcDbLine
 10
-234.2903963151846
 20
32.915347957544
 30
0.0
 11
-237.18674856067625
 21
30.80311860601922
 31
0.0
  0
LINE
  5
AF
330
17
100
AcDbEntity
  8
FoilLayer
100
AcDbLine
 10
-237.18674856067625
 20
30.80311860601922
 30
0.0
 11
-239.91014185350102
 21
28.700691598915114
 31
0.0
  0
LINE
  5
B0
330
17
100
AcDbEntity
  8
FoilLayer
100
AcDbLine
 10
-239.91014185350102
 20
28.700691598915114
 30
0.0
 11
-242.45849607101187
 21
26.61664071419028
 31
0.0
  0
LINE
  5
B1
330
17
100
AcDbEntity
  8
FoilLayer
100
AcDbLine
 10
-242.45849607101187
 20
26.61664071419028
 30
0.0
 11
-244.83683003676245
 21
24.526218943441137
 31
0.0
  0
LINE
  5
B2
330
17
100
AcDbEntity
  8
FoilLayer
100
AcDbLine
 10
-244.83683003676245
 20
24.526218943441137
 30
0.0
 11
-247.0553596572956
 21
22.434025535101824
 31
0.0
  0
LINE
  5
B3
330
17
100
AcDbEntity
  8
FoilLayer
100
AcDbLine
 10
-247.0553596572956
 20
22.434025535101824
 30
0.0
 11
-249.11153275284178
 21
20.365178611096624
 31
0.0
  0
LINE
  5
B4
330
17
100
AcDbEntity
  8
FoilLayer
100
AcDbLine
 10
-249.11153275284178
 20
20.365178611096624
 30
0.0
 11
-251.00773488963836
 21
18.309702568831536
 31
0.0
  0
LINE
  5
B5
330
17
100
AcDbEntity
  8
FoilLayer
100
AcDbLine
 10
-251.00773488963836
 20
18.309702568831536
 30
0.0
 11
-252.73632088190126
 21
16.300897659334627
 31
0.0
  0
LINE
  5
B6
330
17
100
AcDbEntity
  8
FoilLayer
100
AcDbLine
 10
-252.73632088190126
 20
16.300897659334627
 30
0.0
 11
-254.29647694379122
 21
14.315693745092686
 31
0.0
  0
LINE
  5
B7
330
17
100
AcDbEntity
  8
FoilLayer
100
AcDbLine
 10
-254.29647694379122
 20
14.315693745092686
 30
0.0
 11
-255.67978108685162
 21
12.389212293229248
 31
0.0
  0
LINE
  5
B8
330
17
100
AcDbEntity
  8
FoilLayer
100
AcDbLine
 10
-255.67978108685162
 20
12.389212293229248
 30
0.0
 11
-256.8860167933926
 21
10.51859648544302
 31
0.0
  0
LINE
  5
B9
330
17
100
AcDbEntity
  8
FoilLayer
100
AcDbLine
 10
-256.8860167933926
 20
10.51859648544302
 30
0.0
 11
-257.9274495191493
 21
8.670796374928086
 31
0.0
  0
LINE
  5
BA
330
17
100
AcDbEntity
  8
FoilLayer
100
AcDbLine
 10
-257.9274495191493
 20
8.670796374928086
 30
0.0
 11
-258.76707048559814
 21
6.96635572848261
 31
0.0
  0
LINE
  5
BB
330
17
100
AcDbEntity
  8
FoilLayer
100
AcDbLine
 10
-258.76707048559814
 20
6.96635572848261
 30
0.0
 11
-259.4837597987487
 21
5.117028609192991
 31
0.0
  0
LINE
  5
BC
330
17
100
AcDbEntity
  8
FoilLayer
100
AcDbLine
 10
-259.4837597987487
 20
5.117028609192991
 30
0.0
 11
-259.97374113382625
 21
3.7535232083563472
 31
0.0
  0
LINE
  5
BD
330
17
100
AcDbEntity
  8
FoilLayer
100
AcDbLine
 10
-259.97374113382625
 20
3.7535232083563472
 30
0.0
 11
-260.3215376150705
 21
2.0000889119061185
 31
0.0
  0
LINE
  5
BE
330
17
100
AcDbEntity
  8
FoilLayer
100
AcDbLine
 10
-260.3215376150705
 20
2.0000889119061185
 30
0.0
 11
-260.4999999999999
 21
0.225006750202506
 31
0.0
  0
LINE
  5
BF
330
17
100
AcDbEntity
  8
FoilLayer
100
AcDbLine
 10
-260.4999999999999
 20
0.225006750202506
 30
0.0
 11
-260.50614725553083
 21
-0.1717662105802826
 31
0.0
  0
LINE
  5
C0
330
17
100
AcDbEntity
  8
FoilLayer
100
AcDbLine
 10
-260.50614725553083
 20
-0.1717662105802826
 30
0.0
 11
-260.35762743417763
 21
-1.7678147046821184
 31
0.0
  0
LINE
  5
C1
330
17
100
AcDbEntity
  8
FoilLayer
100
AcDbLine
 10
-260.35762743417763
 20
-1.7678147046821184
 30
0.0
 11
-260.0116502539266
 21
-2.9046464840742443
 31
0.0
  0
LINE
  5
C2
330
17
100
AcDbEntity
  8
FoilLayer
100
AcDbLine
 10
-260.0116502539266
 20
-2.9046464840742443
 30
0.0
 11
-259.4885500441701
 21
-4.006365780002634
 31
0.0
  0
LINE
  5
C3
330
17
100
AcDbEntity
  8
FoilLayer
100
AcDbLine
 10
-259.4885500441701
 20
-4.006365780002634
 30
0.0
 11
-258.72709928271183
 21
-5.119234573836527
 31
0.0
  0
LINE
  5
C4
330
17
100
AcDbEntity
  8
FoilLayer
100
AcDbLine
 10
-258.72709928271183
 20
-5.119234573836527
 30
0.0
 11
-257.78274540021215
 21
-6.199013897830674
 31
0.0
  0
LINE
  5
C5
330
17
100
AcDbEntity
  8
FoilLayer
100
AcDbLine
 10
-257.78274540021215
 20
-6.199013897830674
 30
0.0
 11
-256.61688412440674
 21
-7.247444815376468
 31
0.0
  0
LINE
  5
C6
330
17
100
AcDbEntity
  8
FoilLayer
100
AcDbLine
 10
-256.61688412440674
 20
-7.247444815376468
 30
0.0
 11
-255.2462150956063
 21
-8.242439329623672
 31
0.0
  0
LINE
  5
C7
330
17
100
AcDbEntity
  8
FoilLayer
100
AcDbLine
 10
-255.2462150956063
 20
-8.242439329623672
 30
0.0
 11
-253.62898831281095
 21
-9.182963579580452
 31
0.0
  0
LINE
  5
C8
330
17
100
AcDbEntity
  8
FoilLayer
100
AcDbLine
 10
-253.62898831281095
 20
-9.182963579580452
 30
0.0
 11
-251.71007987873284
 21
-10.082142854966712
 31
0.0
  0
LINE
  5
C9
330
17
100
AcDbEntity
  8
FoilLayer
100
AcDbLine
 10
-251.71007987873284
 20
-10.082142854966712
 30
0.0
 11
-249.51018468234898
 21
-10.959729787318205
 31
0.0
  0
LINE
  5
CA
330
17
100
AcDbEntity
  8
FoilLayer
100
AcDbLine
 10
-249.51018468234898
 20
-10.959729787318205
 30
0.0
 11
-247.0596016424073
 21
-11.816734254217211
 31
0.0
  0
LINE
  5
CB
330
17
100
AcDbEntity
  8
FoilLayer
100
AcDbLine
 10
-247.0596016424073
 20
-11.816734254217211
 30
0.0
 11
-244.43414818173457
 21
-12.640467309272928
 31
0.0
  0
LINE
  5
CC
330
17
100
AcDbEntity
  8
FoilLayer
100
AcDbLine
 10
-244.43414818173457
 20
-12.640467309272928
 30
0.0
 11
-241.58658052214057
 21
-13.401467161056539
 31
0.0
  0
LINE
  5
CD
330
17
100
AcDbEntity
  8
FoilLayer
100
AcDbLine
 10
-241.58658052214057
 20
-13.401467161056539
 30
0.0
 11
-238.49795089155458
 21
-14.095160702572228
 31
0.0
  0
LINE
  5
CE
330
17
100
AcDbEntity
  8
FoilLayer
100
AcDbLine
 10
-238.49795089155458
 20
-14.095160702572228
 30
0.0
 11
-235.16262506257314
 21
-14.74781901532376
 31
0.0
  0
LINE
  5
CF
330
17
100
AcDbEntity
  8
FoilLayer
100
AcDbLine
 10
-235.16262506257314
 20
-14.74781901532376
 30
0.0
 11
-231.59116055001527
 21
-15.371866499848428
 31
0.0
  0
LINE
  5
D0
330
17
100
AcDbEntity
  8
FoilLayer
100
AcDbLine
 10
-231.59116055001527
 20
-15.371866499848428
 30
0.0
 11
-227.83651951685218
 21
-15.957503460727622
 31
0.0
  0
LINE
  5
D1
330
17
100
AcDbEntity
  8
FoilLayer
100
AcDbLine
 10
-227.83651951685218
 20
-15.957503460727622
 30
0.0
 11
-223.8755334388749
 21
-16.477232014005846
 31
0.0
  0
LINE
  5
D2
330
17
100
AcDbEntity
  8
FoilLayer
100
AcDbLine
 10
-223.8755334388749
 20
-16.477232014005846
 30
0.0
 11
-219.69484695828345
 21
-16.931308832877935
 31
0.0
  0
LINE
  5
D3
330
17
100
AcDbEntity
  8
FoilLayer
100
AcDbLine
 10
-219.69484695828345
 20
-16.931308832877935
 30
0.0
 11
-215.268333092552
 21
-17.334510578419717
 31
0.0
  0
LINE
  5
D4
330
17
100
AcDbEntity
  8
FoilLayer
100
AcDbLine
 10
-215.268333092552
 20
-17.334510578419717
 30
0.0
 11
-210.6218289752257
 21
-17.708111373745062
 31
0.0
  0
LINE
  5
D5
330
17
100
AcDbEntity
  8
FoilLayer
100
AcDbLine
 10
-210.6218289752257
 20
-17.708111373745062
 30
0.0
 11
-205.78742565305032
 21
-18.051461102556424
 31
0.0
  0
LINE
  5
D6
330
17
100
AcDbEntity
  8
FoilLayer
100
AcDbLine
 10
-205.78742565305032
 20
-18.051461102556424
 30
0.0
 11
-200.7801279645002
 21
-18.34233416303044
 31
0.0
  0
LINE
  5
D7
330
17
100
AcDbEntity
  8
FoilLayer
100
AcDbLine
 10
-200.7801279645002
 20
-18.34233416303044
 30
0.0
 11
-195.56733210456994
 21
-18.55903691671272
 31
0.0
  0
LINE
  5
D8
330
17
100
AcDbEntity
  8
FoilLayer
100
AcDbLine
 10
-195.56733210456994
 20
-18.55903691671272
 30
0.0
 11
-190.14795611546822
 21
-18.72357064560403
 31
0.0
  0
LINE
  5
D9
330
17
100
AcDbEntity
  8
FoilLayer
100
AcDbLine
 10
-190.14795611546822
 20
-18.72357064560403
 30
0.0
 11
-184.49685575653098
 21
-18.84336254596612
 31
0.0
  0
LINE
  5
DA
330
17
100
AcDbEntity
  8
FoilLayer
100
AcDbLine
 10
-184.49685575653098
 20
-18.84336254596612
 30
0.0
 11
-178.67253249213724
 21
-18.93316676387542
 31
0.0
  0
LINE
  5
DB
330
17
100
AcDbEntity
  8
FoilLayer
100
AcDbLine
 10
-178.67253249213724
 20
-18.93316676387542
 30
0.0
 11
-172.669568742257
 21
-18.970642309880205
 31
0.0
  0
LINE
  5
DC
330
17
100
AcDbEntity
  8
FoilLayer
100
AcDbLine
 10
-172.669568742257
 20
-18.970642309880205
 30
0.0
 11
-166.49290819216918
 21
-18.94829472119855
 31
0.0
  0
LINE
  5
DD
330
17
100
AcDbEntity
  8
FoilLayer
100
AcDbLine
 10
-166.49290819216918
 20
-18.94829472119855
 30
0.0
 11
-160.10578471121778
 21
-18.865956465371873
 31
0.0
  0
LINE
  5
DE
330
17
100
AcDbEntity
  8
FoilLayer
100
AcDbLine
 10
-160.10578471121778
 20
-18.865956465371873
 30
0.0
 11
-153.51120877366964
 21
-18.746062990943848
 31
0.0
  0
LINE
  5
DF
330
17
100
AcDbEntity
  8
FoilLayer
100
AcDbLine
 10
-153.51120877366964
 20
-18.746062990943848
 30
0.0
 11
-146.7333998831929
 21
-18.60379094604008
 31
0.0
  0
LINE
  5
E0
330
17
100
AcDbEntity
  8
FoilLayer
100
AcDbLine
 10
-146.7333998831929
 20
-18.60379094604008
 30
0.0
 11
-139.81136060118985
 21
-18.424253542658626
 31
0.0
  0
LINE
  5
E1
330
17
100
AcDbEntity
  8
FoilLayer
100
AcDbLine
 10
-139.81136060118985
 20
-18.424253542658626
 30
0.0
 11
-132.7193946971221
 21
-18.184638429826634
 31
0.0
  0
LINE
  5
E2
330
17
100
AcDbEntity
  8
FoilLayer
100
AcDbLine
 10
-132.7193946971221
 20
-18.184638429826634
 30
0.0
 11
-125.45424184209975
 21
-17.900049585854866
 31
0.0
  0
LINE
  5
E3
330
17
100
AcDbEntity
  8
FoilLayer
100
AcDbLine
 10
-125.45424184209975
 20
-17.900049585854866
 30
0.0
 11
-117.99148449252505
 21
-17.570038205852974
 31
0.0
  0
LINE
  5
E4
330
17
100
AcDbEntity
  8
FoilLayer
100
AcDbLine
 10
-117.99148449252505
 20
-17.570038205852974
 30
0.0
 11
-110.36242200653726
 21
-17.232810205495777
 31
0.0
  0
LINE
  5
E5
330
17
100
AcDbEntity
  8
FoilLayer
100
AcDbLine
 10
-110.36242200653726
 20
-17.232810205495777
 30
0.0
 11
-102.60003250701129
 21
-16.86568559671837
 31
0.0
  0
LINE
  5
E6
330
17
100
AcDbEntity
  8
FoilLayer
100
AcDbLine
 10
-102.60003250701129
 20
-16.86568559671837
 30
0.0
 11
-94.70576887212056
 21
-16.461265889059494
 31
0.0
  0
LINE
  5
E7
330
17
100
AcDbEntity
  8
FoilLayer
100
AcDbLine
 10
-94.70576887212056
 20
-16.461265889059494
 30
0.0
 11
-86.64994106311431
 21
-16.0041565083625
 31
0.0
  0
LINE
  5
E8
330
17
100
AcDbEntity
  8
FoilLayer
100
AcDbLine
 10
-86.64994106311431
 20
-16.0041565083625
 30
0.0
 11
-78.42744221622269
 21
-15.50900730532371
 31
0.0
  0
LINE
  5
E9
330
17
100
AcDbEntity
  8
FoilLayer
100
AcDbLine
 10
-78.42744221622269
 20
-15.50900730532371
 30
0.0
 11
-75.11796793199414
 21
-15.313460928636975
 31
0.0
  0
LINE
  5
EA
330
17
100
AcDbEntity
  8
FoilLayer
100
AcDbLine
 10
-75.11796793199414
 20
-15.313460928636975
 30
0.0
 11
-74.99999999999994
 21
-17.309978789068232
 31
0.0
  0
LINE
  5
EB
330
17
100
AcDbEntity
  8
FoilLayer
100
AcDbLine
 10
-74.99999999999994
 20
-17.309978789068232
 30
0.0
 11
-69.93172295168847
 21
-17.010510315309453
 31
0.0
  0
LINE
  5
EC
330
17
100
AcDbEntity
  8
FoilLayer
100
AcDbLine
 10
-69.93172295168847
 20
-17.010510315309453
 30
0.0
 11
-61.44146824404726
 21
-16.50049501485044
 31
0.0
  0
LINE
  5
ED
330
17
100
AcDbEntity
  8
FoilLayer
100
AcDbLine
 10
-61.44146824404726
 20
-16.50049501485044
 30
0.0
 11
-52.83871016130476
 21
-15.960478814364427
 31
0.0
  0
LINE
  5
EE
330
17
100
AcDbEntity
  8
FoilLayer
100
AcDbLine
 10
-52.83871016130476
 20
-15.960478814364427
 30
0.0
 11
-44.108448253447506
 21
-15.367961038831158
 31
0.0
  0
LINE
  5
EF
330
17
100
AcDbEntity
  8
FoilLayer
100
AcDbLine
 10
-44.108448253447506
 20
-15.367961038831158
 30
0.0
 11
-35.243182295468785
 21
-14.760442813284392
 31
0.0
  0
LINE
  5
F0
330
17
100
AcDbEntity
  8
FoilLayer
100
AcDbLine
 10
-35.243182295468785
 20
-14.760442813284392
 30
0.0
 11
-26.250412512375306
 21
-14.152924587737626
 31
0.0
  0
LINE
  5
F1
330
17
100
AcDbEntity
  8
FoilLayer
100
AcDbLine
 10
-26.250412512375306
 20
-14.152924587737626
 30
0.0
 11
-17.160139804194074
 21
-13.552906587197612
 31
0.0
  0
LINE
  5
F2
330
17
100
AcDbEntity
  8
FoilLayer
100
AcDbLine
 10
-17.160139804194074
 20
-13.552906587197612
 30
0.0
 11
-7.987364620938564
 21
-12.915387461623844
 31
0.0
  0
LINE
  5
F3
330
17
100
AcDbEntity
  8
FoilLayer
100
AcDbLine
 10
-7.987364620938564
 20
-12.915387461623844
 30
0.0
 11
1.2829134874046417
 21
-12.255367661029828
 31
0.0
  0
LINE
  5
F4
330
17
100
AcDbEntity
  8
FoilLayer
100
AcDbLine
 10
1.2829134874046417
 20
-12.255367661029828
 30
0.0
 11
10.658194745842422
 21
-11.58784763542906
 31
0.0
  0
LINE
  5
F5
330
17
100
AcDbEntity
  8
FoilLayer
100
AcDbLine
 10
10.658194745842422
 20
-11.58784763542906
 30
0.0
 11
20.123478704361162
 21
-10.920327609828291
 31
0.0
  0
LINE
  5
F6
330
17
100
AcDbEntity
  8
FoilLayer
100
AcDbLine
 10
20.123478704361162
 20
-10.920327609828291
 30
0.0
 11
29.663764912947443
 21
-10.267808034241025
 31
0.0
  0
LINE
  5
F7
330
17
100
AcDbEntity
  8
FoilLayer
100
AcDbLine
 10
29.663764912947443
 20
-10.267808034241025
 30
0.0
 11
39.249052471574146
 21
-9.600288008640256
 31
0.0
  0
LINE
  5
F8
330
17
100
AcDbEntity
  8
FoilLayer
100
AcDbLine
 10
39.249052471574146
 20
-9.600288008640256
 30
0.0
 11
48.90184205526168
 21
-8.910267308019238
 31
0.0
  0
LINE
  5
F9
330
17
100
AcDbEntity
  8
FoilLayer
100
AcDbLine
 10
48.90184205526168
 20
-8.910267308019238
 30
0.0
 11
58.6296338890167
 21
-8.22024660739822
 31
0.0
  0
LINE
  5
FA
330
17
100
AcDbEntity
  8
FoilLayer
100
AcDbLine
 10
58.6296338890167
 20
-8.22024660739822
 30
0.0
 11
68.41742752282573
 21
-7.545226356790701
 31
0.0
  0
LINE
  5
FB
330
17
100
AcDbEntity
  8
FoilLayer
100
AcDbLine
 10
68.41742752282573
 20
-7.545226356790701
 30
0.0
 11
78.23522205666177
 21
-6.885206556196684
 31
0.0
  0
LINE
  5
FC
330
17
100
AcDbEntity
  8
FoilLayer
100
AcDbLine
 10
78.23522205666177
 20
-6.885206556196684
 30
0.0
 11
88.07551726551793
 21
-6.217686530595915
 31
0.0
  0
LINE
  5
FD
330
17
100
AcDbEntity
  8
FoilLayer
100
AcDbLine
 10
88.07551726551793
 20
-6.217686530595915
 30
0.0
 11
97.9383131493945
 21
-5.5426662799883974
 31
0.0
  0
LINE
  5
FE
330
17
100
AcDbEntity
  8
FoilLayer
100
AcDbLine
 10
97.9383131493945
 20
-5.5426662799883974
 30
0.0
 11
107.85361060831826
 21
-4.867646029380879
 31
0.0
  0
LINE
  5
FF
330
17
100
AcDbEntity
  8
FoilLayer
100
AcDbLine
 10
107.85361060831826
 20
-4.867646029380879
 30
0.0
 11
117.79140874226226
 21
-4.215126453793612
 31
0.0
  0
LINE
  5
100
330
17
100
AcDbEntity
  8
FoilLayer
100
AcDbLine
 10
117.79140874226226
 20
-4.215126453793612
 30
0.0
 11
127.72170665119955
 21
-3.592607778233346
 31
0.0
  0
LINE
  5
101
330
17
100
AcDbEntity
  8
FoilLayer
100
AcDbLine
 10
127.72170665119955
 20
-3.592607778233346
 30
0.0
 11
137.6370041101232
 21
-2.9700891026730796
 31
0.0
  0
LINE
  5
102
330
17
100
AcDbEntity
  8
FoilLayer
100
AcDbLine
 10
137.6370041101232
 20
-2.9700891026730796
 30
0.0
 11
147.5448013440403
 21
-2.3325699770993125
 31
0.0
  0
LINE
  5
103
330
17
100
AcDbEntity
  8
FoilLayer
100
AcDbLine
 10
147.5448013440403
 20
-2.3325699770993125
 30
0.0
 11
157.46009880296407
 21
-1.7100513015390455
 31
0.0
  0
LINE
  5
104
330
17
100
AcDbEntity
  8
FoilLayer
100
AcDbLine
 10
157.46009880296407
 20
-1.7100513015390455
 30
0.0
 11
167.36039581187435
 21
-1.1175335260057797
 31
0.0
  0
LINE
  5
105
330
17
100
AcDbEntity
  8
FoilLayer
100
AcDbLine
 10
167.36039581187435
 20
-1.1175335260057797
 30
0.0
 11
177.2231916957508
 21
-0.5400162004860143
 31
0.0
  0
LINE
  5
106
330
17
100
AcDbEntity
  8
FoilLayer
100
AcDbLine
 10
177.2231916957508
 20
-0.5400162004860143
 30
0.0
 11
187.02598577957338
 21
0.030000900027000798
 31
0.0
  0
LINE
  5
107
330
17
100
AcDbEntity
  8
FoilLayer
100
AcDbLine
 10
187.02598577957338
 20
0.030000900027000798
 30
0.0
 11
196.79877896336887
 21
0.6075182255467663
 31
0.0
  0
LINE
  5
108
330
17
100
AcDbEntity
  8
FoilLayer
100
AcDbLine
 10
196.79877896336887
 20
0.6075182255467663
 30
0.0
 11
206.54157124713737
 21
1.1700351010530312
 31
0.0
  0
LINE
  5
109
330
17
100
AcDbEntity
  8
FoilLayer
100
AcDbLine
 10
206.54157124713737
 20
1.1700351010530312
 30
0.0
 11
216.23936218086538
 21
1.7025510765322953
 31
0.0
  0
LINE
  5
10A
330
17
100
AcDbEntity
  8
FoilLayer
100
AcDbLine
 10
216.23936218086538
 20
1.7025510765322953
 30
0.0
 11
225.85465063951915
 21
2.212566376991309
 31
0.0
  0
LINE
  5
10B
330
17
100
AcDbEntity
  8
FoilLayer
100
AcDbLine
 10
225.85465063951915
 20
2.212566376991309
 30
0.0
 11
235.39493684810543
 21
2.7225816774503224
 31
0.0
  0
LINE
  5
10C
330
17
100
AcDbEntity
  8
FoilLayer
100
AcDbLine
 10
235.39493684810543
 20
2.7225816774503224
 30
0.0
 11
244.87522125663764
 21
3.240097202916086
 31
0.0
  0
LINE
  5
10D
330
17
100
AcDbEntity
  8
FoilLayer
100
AcDbLine
 10
244.87522125663764
 20
3.240097202916086
 30
0.0
 11
254.29550386511596
 21
3.7276118283548496
 31
0.0
  0
LINE
  5
10E
330
17
100
AcDbEntity
  8
FoilLayer
100
AcDbLine
 10
254.29550386511596
 20
3.7276118283548496
 30
0.0
 11
263.6407842235267
 21
4.177625328759862
 31
0.0
  0
LINE
  5
10F
330
17
100
AcDbEntity
  8
FoilLayer
100
AcDbLine
 10
263.6407842235267
 20
4.177625328759862
 30
0.0
 11
272.8810614318429
 21
4.6051381541446235
 31
0.0
  0
LINE
  5
110
330
17
100
AcDbEntity
  8
FoilLayer
100
AcDbLine
 10
272.8810614318429
 20
4.6051381541446235
 30
0.0
 11
282.01633549006465
 21
5.032650979529385
 31
0.0
  0
LINE
  5
111
330
17
100
AcDbEntity
  8
FoilLayer
100
AcDbLine
 10
282.01633549006465
 20
5.032650979529385
 30
0.0
 11
291.0691070732121
 21
5.445163354900645
 31
0.0
  0
LINE
  5
112
330
17
100
AcDbEntity
  8
FoilLayer
100
AcDbLine
 10
291.0691070732121
 20
5.445163354900645
 30
0.0
 11
300.03187595627867
 21
5.820174605238156
 31
0.0
  0
LINE
  5
113
330
17
100
AcDbEntity
  8
FoilLayer
100
AcDbLine
 10
300.03187595627867
 20
5.820174605238156
 30
0.0
 11
308.8821414642439
 21
6.142684280528414
 31
0.0
  0
LINE
  5
114
330
17
100
AcDbEntity
  8
FoilLayer
100
AcDbLine
 10
308.8821414642439
 20
6.142684280528414
 30
0.0
 11
317.6049031470943
 21
6.42769283078492
 31
0.0
  0
LINE
  5
115
330
17
100
AcDbEntity
  8
FoilLayer
100
AcDbLine
 10
317.6049031470943
 20
6.42769283078492
 30
0.0
 11
326.18516055481655
 21
6.697700931027928
 31
0.0
  0
LINE
  5
116
330
17
100
AcDbEntity
  8
FoilLayer
100
AcDbLine
 10
326.18516055481655
 20
6.697700931027928
 30
0.0
 11
334.6529145874375
 21
6.930207906237185
 31
0.0
  0
LINE
  5
117
330
17
100
AcDbEntity
  8
FoilLayer
100
AcDbLine
 10
334.6529145874375
 20
6.930207906237185
 30
0.0
 11
342.98566456993706
 21
7.102713081392439
 31
0.0
  0
LINE
  5
118
330
17
100
AcDbEntity
  8
FoilLayer
100
AcDbLine
 10
342.98566456993706
 20
7.102713081392439
 30
0.0
 11
351.153409602288
 21
7.215216456493693
 31
0.0
  0
LINE
  5
119
330
17
100
AcDbEntity
  8
FoilLayer
100
AcDbLine
 10
351.153409602288
 20
7.215216456493693
 30
0.0
 11
359.1336490094702
 21
7.290218706561193
 31
0.0
  0
LINE
  5
11A
330
17
100
AcDbEntity
  8
FoilLayer
100
AcDbLine
 10
359.1336490094702
 20
7.290218706561193
 30
0.0
 11
366.94888346650384
 21
7.342720281608445
 31
0.0
  0
LINE
  5
11B
330
17
100
AcDbEntity
  8
FoilLayer
100
AcDbLine
 10
366.94888346650384
 20
7.342720281608445
 30
0.0
 11
374.5991129733891
 21
7.350220506615195
 31
0.0
  0
LINE
  5
11C
330
17
100
AcDbEntity
  8
FoilLayer
100
AcDbLine
 10
374.5991129733891
 20
7.350220506615195
 30
0.0
 11
382.0618368551055
 21
7.297718931567943
 31
0.0
  0
LINE
  5
11D
330
17
100
AcDbEntity
  8
FoilLayer
100
AcDbLine
 10
382.0618368551055
 20
7.297718931567943
 30
0.0
 11
389.3145544366331
 21
7.200216006480192
 31
0.0
  0
LINE
  5
11E
330
17
100
AcDbEntity
  8
FoilLayer
100
AcDbLine
 10
389.3145544366331
 20
7.200216006480192
 30
0.0
 11
396.34226526795794
 21
7.072712181365438
 31
0.0
  0
LINE
  5
11F
330
17
100
AcDbEntity
  8
FoilLayer
100
AcDbLine
 10
396.34226526795794
 20
7.072712181365438
 30
0.0
 11
403.1674700241007
 21
6.915207456223684
 31
0.0
  0
LINE
  5
120
330
17
100
AcDbEntity
  8
FoilLayer
100
AcDbLine
 10
403.1674700241007
 20
6.915207456223684
 30
0.0
 11
409.7826684800542
 21
6.720201606048179
 31
0.0
  0
LINE
  5
121
330
17
100
AcDbEntity
  8
FoilLayer
100
AcDbLine
 10
409.7826684800542
 20
6.720201606048179
 30
0.0
 11
416.1653599607987
 21
6.480194405832172
 31
0.0
  0
LINE
  5
122
330
17
100
AcDbEntity
  8
FoilLayer
100
AcDbLine
 10
416.1653599607987
 20
6.480194405832172
 30
0.0
 11
422.3005440163204
 21
6.202686080582414
 31
0.0
  0
LINE
  5
123
330
17
100
AcDbEntity
  8
FoilLayer
100
AcDbLine
 10
422.3005440163204
 20
6.202686080582414
 30
0.0
 11
428.18822064661924
 21
5.917677530325908
 31
0.0
  0
LINE
  5
124
330
17
100
AcDbEntity
  8
FoilLayer
100
AcDbLine
 10
428.18822064661924
 20
5.917677530325908
 30
0.0
 11
433.84339030170895
 21
5.6026680800424
 31
0.0
  0
LINE
  5
125
330
17
100
AcDbEntity
  8
FoilLayer
100
AcDbLine
 10
433.84339030170895
 20
5.6026680800424
 30
0.0
 11
439.25105253157585
 21
5.257657729731891
 31
0.0
  0
LINE
  5
126
330
17
100
AcDbEntity
  8
FoilLayer
100
AcDbLine
 10
439.25105253157585
 20
5.257657729731891
 30
0.0
 11
444.381206436193
 21
4.86764602938088
 31
0.0
  0
LINE
  5
127
330
17
100
AcDbEntity
  8
FoilLayer
100
AcDbLine
 10
444.381206436193
 20
4.86764602938088
 30
0.0
 11
449.2338520155604
 21
4.470134104023119
 31
0.0
  0
LINE
  5
128
330
17
100
AcDbEntity
  8
FoilLayer
100
AcDbLine
 10
449.2338520155604
 20
4.470134104023119
 30
0.0
 11
453.80148904467126
 21
4.072622178665359
 31
0.0
  0
LINE
  5
129
330
17
100
AcDbEntity
  8
FoilLayer
100
AcDbLine
 10
453.80148904467126
 20
4.072622178665359
 30
0.0
 11
458.1066181985459
 21
3.675110253307598
 31
0.0
  0
LINE
  5
12A
330
17
100
AcDbEntity
  8
FoilLayer
100
AcDbLine
 10
458.1066181985459
 20
3.675110253307598
 30
0.0
 11
462.1267388021639
 21
3.2700981029430873
 31
0.0
  0
LINE
  5
12B
330
17
100
AcDbEntity
  8
FoilLayer
100
AcDbLine
 10
462.1267388021639
 20
3.2700981029430873
 30
0.0
 11
465.8618508555255
 21
2.857585727571826
 31
0.0
  0
LINE
  5
12C
330
17
100
AcDbEntity
  8
FoilLayer
100
AcDbLine
 10
465.8618508555255
 20
2.857585727571826
 30
0.0
 11
469.30445413362395
 21
2.4525735772073154
 31
0.0
  0
LINE
  5
12D
330
17
100
AcDbEntity
  8
FoilLayer
100
AcDbLine
 10
469.30445413362395
 20
2.4525735772073154
 30
0.0
 11
472.43954818644545
 21
2.0550616518495546
 31
0.0
  0
LINE
  5
12E
330
17
100
AcDbEntity
  8
FoilLayer
100
AcDbLine
 10
472.43954818644545
 20
2.0550616518495546
 30
0.0
 11
475.2821334640038
 21
1.6800504015120448
 31
0.0
  0
LINE
  5
12F
330
17
100
AcDbEntity
  8
FoilLayer
100
AcDbLine
 10
475.2821334640038
 20
1.6800504015120448
 30
0.0
 11
477.8172095162854
 21
1.3350400512015355
 31
0.0
  0
LINE
  5
130
330
17
100
AcDbEntity
  8
FoilLayer
100
AcDbLine
 10
477.8172095162854
 20
1.3350400512015355
 30
0.0
 11
480.0672770183105
 21
1.020030600918027
 31
0.0
  0
LINE
  5
131
330
17
100
AcDbEntity
  8
FoilLayer
100
AcDbLine
 10
480.0672770183105
 20
1.020030600918027
 30
0.0
 11
482.0098352950587
 21
0.7425222756682699
 31
0.0
  0
LINE
  5
132
330
17
100
AcDbEntity
  8
FoilLayer
100
AcDbLine
 10
482.0098352950587
 20
0.7425222756682699
 30
0.0
 11
483.66738502155056
 21
0.5025150754522635
 31
0.0
  0
LINE
  5
133
330
17
100
AcDbEntity
  8
FoilLayer
100
AcDbLine
 10
483.66738502155056
 20
0.5025150754522635
 30
0.0
 11
485.0249257477724
 21
0.30000900027000793
 31
0.0
  0
LINE
  5
134
330
17
100
AcDbEntity
  8
FoilLayer
100
AcDbLine
 10
485.0249257477724
 20
0.30000900027000793
 30
0.0
 11
486.0974579237376
 21
0.1350040501215036
 31
0.0
  0
LINE
  5
135
330
17
100
AcDbEntity
  8
FoilLayer
100
AcDbLine
 10
486.0974579237376
 20
0.1350040501215036
 30
0.0
 11
486.86248087442607
 21
0.0150004500135004
 31
0.0
  0
LINE
  5
136
330
17
100
AcDbEntity
  8
FoilLayer
100
AcDbLine
 10
486.86248087442607
 20
0.0150004500135004
 30
0.0
 11
487.3349950498514
 21
-0.052501575047251406
 31
0.0
  0
LINE
  5
137
330
17
100
AcDbEntity
  8
FoilLayer
100
AcDbLine
 10
487.3349950498514
 20
-0.052501575047251406
 30
0.0
 11
487.4999999999999
 21
-0.08250247507425221
 31
0.0
  0
LINE
  5
138
330
17
100
AcDbEntity
  8
FoilLayer
100
AcDbLine
 10
487.4999999999999
 20
-0.08250247507425221
 30
0.0
 11
487.4999999999999
 21
0.037501125033751005
 31
0.0
  0
LINE
  5
139
330
17
100
AcDbEntity
  8
StringerLayer
100
AcDbLine
 10
259.15537735168766
 20
57.639791671844044
 30
0.0
 11
263.0449943166104
 21
56.70658222794348
 31
0.0
  0
LINE
  5
13A
330
17
100
AcDbEntity
  8
StringerLayer
100
AcDbLine
 10
263.0449943166104
 20
56.70658222794348
 30
0.0
 11
263.978203760511
 21
60.596199192866216
 31
0.0
  0
LINE
  5
13B
330
17
100
AcDbEntity
  8
StringerLayer
100
AcDbLine
 10
263.978203760511
 20
60.596199192866216
 30
0.0
 11
260.08858679558824
 21
61.52940863676678
 31
0.0
  0
LINE
  5
13C
330
17
100
AcDbEntity
  8
StringerLayer
100
AcDbLine
 10
260.08858679558824
 20
61.52940863676678
 30
0.0
 11
259.15537735168766
 21
57.639791671844044
 31
0.0
  0
LINE
  5
13D
330
17
100
AcDbEntity
  8
StringerLayer
100
AcDbLine
 10
-76.19898658465513
 20
80.02484415087058
 30
0.0
 11
-72.23326988841191
 21
80.54742532651484
 31
0.0
  0
LINE
  5
13E
330
17
100
AcDbEntity
  8
StringerLayer
100
AcDbLine
 10
-72.23326988841191
 20
80.54742532651484
 30
0.0
 11
-72.75585106405619
 21
84.51314202275806
 31
0.0
  0
LINE
  5
13F
330
17
100
AcDbEntity
  8
StringerLayer
100
AcDbLine
 10
-72.75585106405619
 20
84.51314202275806
 30
0.0
 11
-76.72156776029941
 21
83.9905608471138
 31
0.0
  0
LINE
  5
140
330
17
100
AcDbEntity
  8
StringerLayer
100
AcDbLine
 10
-76.72156776029941
 20
83.9905608471138
 30
0.0
 11
-76.19898658465513
 21
80.02484415087058
 31
0.0
  0
LINE
  5
141
330
17
100
AcDbEntity
  8
StringerLayer
100
AcDbLine
 10
-187.223796065499
 20
53.04771129011861
 30
0.0
 11
-183.48792407391792
 21
54.477137910312905
 31
0.0
  0
LINE
  5
142
330
17
100
AcDbEntity
  8
StringerLayer
100
AcDbLine
 10
-183.48792407391792
 20
54.477137910312905
 30
0.0
 11
-184.91735069411223
 21
58.213009901893976
 31
0.0
  0
LINE
  5
143
330
17
100
AcDbEntity
  8
StringerLayer
100
AcDbLine
 10
-184.91735069411223
 20
58.213009901893976
 30
0.0
 11
-188.6532226856933
 21
56.783583281699684
 31
0.0
  0
LINE
  5
144
330
17
100
AcDbEntity
  8
StringerLayer
100
AcDbLine
 10
-188.6532226856933
 20
56.783583281699684
 30
0.0
 11
-187.223796065499
 21
53.04771129011861
 31
0.0
  0
LINE
  5
145
330
17
100
AcDbEntity
  8
StringerLayer
100
AcDbLine
 10
-250.11029726567764
 20
11.547947966598079
 30
0.0
 11
-248.87566885923027
 21
13.12138137732549
 31
0.0
  0
LINE
  5
146
330
17
100
AcDbEntity
  8
StringerLayer
100
AcDbLine
 10
-248.87566885923027
 20
13.12138137732549
 30
0.0
 11
-252.8092523860488
 21
16.207952393443847
 31
0.0
  0
LINE
  5
147
330
17
100
AcDbEntity
  8
StringerLayer
100
AcDbLine
 10
-252.8092523860488
 20
16.207952393443847
 30
0.0
 11
-254.04388079249617
 21
14.634518982716436
 31
0.0
  0
LINE
  5
148
330
17
100
AcDbEntity
  8
StringerLayer
100
AcDbLine
 10
-254.04388079249617
 20
14.634518982716436
 30
0.0
 11
-250.11029726567764
 21
11.547947966598079
 31
0.0
  0
LINE
  5
149
330
17
100
AcDbEntity
  8
StringerLayer
100
AcDbLine
 10
-253.35685638414745
 20
-3.4412797684979615
 30
0.0
 11
-254.8530733439022
 21
-2.11412687250508
 31
0.0
  0
LINE
  5
14A
330
17
100
AcDbEntity
  8
StringerLayer
100
AcDbLine
 10
-254.8530733439022
 20
-2.11412687250508
 30
0.0
 11
-258.1709555838844
 21
-5.854669271891922
 31
0.0
  0
LINE
  5
14B
330
17
100
AcDbEntity
  8
StringerLayer
100
AcDbLine
 10
-258.1709555838844
 20
-5.854669271891922
 30
0.0
 11
-256.67473862412965
 21
-7.181822167884803
 31
0.0
  0
LINE
  5
14C
330
17
100
AcDbEntity
  8
StringerLayer
100
AcDbLine
 10
-256.67473862412965
 20
-7.181822167884803
 30
0.0
 11
-253.35685638414745
 21
-3.4412797684979615
 31
0.0
  0
LINE
  5
14D
330
17
100
AcDbEntity
  8
StringerLayer
100
AcDbLine
 10
-110.76691835622843
 20
-13.246775016531835
 30
0.0
 11
-114.76301602974503
 21
-13.423419811856391
 31
0.0
  0
LINE
  5
14E
330
17
100
AcDbEntity
  8
StringerLayer
100
AcDbLine
 10
-114.76301602974503
 20
-13.423419811856391
 30
0.0
 11
-114.58637123442048
 21
-17.419517485372985
 31
0.0
  0
LINE
  5
14F
330
17
100
AcDbEntity
  8
StringerLayer
100
AcDbLine
 10
-114.58637123442048
 20
-17.419517485372985
 30
0.0
 11
-110.59027356090388
 21
-17.24287269004843
 31
0.0
  0
LINE
  5
150
330
17
100
AcDbEntity
  8
StringerLayer
100
AcDbLine
 10
-110.59027356090388
 20
-17.24287269004843
 30
0.0
 11
-110.76691835622843
 21
-13.246775016531835
 31
0.0
  0
LINE
  5
151
330
17
100
AcDbEntity
  8
SubLayer
100
AcDbLine
 10
-262.4999999999999
 20
0.0
 30
0.0
 11
-258.4999999999999
 21
0.0
 31
0.0
  0
LINE
  5
152
330
17
100
AcDbEntity
  8
SubLayer
100
AcDbLine
 10
73.0
 20
0.0
 30
0.0
 11
84.5
 21
0.0
 31
0.0
  0
LINE
  5
153
330
17
100
AcDbEntity
  8
SubLayer
100
AcDbLine
 10
-56.21573401982412
 20
37.879012557351984
 30
0.0
 11
-48.22060740367135
 21
38.158208530972
 31
0.0
  0
LINE
  5
154
330
17
100
AcDbEntity
  8
SubLayer
100
AcDbLine
 10
48.22060740367135
 20
41.52600996276333
 30
0.0
 11
56.21573401982412
 21
41.805205936383345
 31
0.0
  0
LINE
  5
155
330
17
100
AcDbEntity
  8
SubLayer
100
AcDbLine
 10
-1.596651974139419
 20
85.56423958299129
 30
0.0
 11
-1.3174560005194111
 21
77.56911296683852
 31
0.0
  0
LINE
  5
156
330
17
100
AcDbEntity
  8
SubLayer
100
AcDbLine
 10
1.596651974139419
 20
-5.880021089255955
 30
0.0
 11
1.3174560005194111
 21
2.115105526896812
 31
0.0
  0
LINE
  5
157
330
17
100
AcDbEntity
  8
SubLayer
100
AcDbLine
 10
-54.14715337238092
 20
35.950029896718796
 30
0.0
 11
-50.14959006430454
 21
36.0896278835288
 31
0.0
  0
LINE
  5
158
330
17
100
AcDbEntity
  8
SubLayer
100
AcDbLine
 10
-50.14959006430454
 20
36.0896278835288
 30
0.0
 11
-50.28918805111454
 21
40.08719119160518
 31
0.0
  0
LINE
  5
159
330
17
100
AcDbEntity
  8
SubLayer
100
AcDbLine
 10
-50.28918805111454
 20
40.08719119160518
 30
0.0
 11
-54.28675135919092
 21
39.947593204795176
 31
0.0
  0
LINE
  5
15A
330
17
100
AcDbEntity
  8
SubLayer
100
AcDbLine
 10
-54.28675135919092
 20
39.947593204795176
 30
0.0
 11
-54.14715337238092
 21
35.950029896718796
 31
0.0
  0
LINE
  5
15B
330
17
100
AcDbEntity
  8
SubLayer
100
AcDbLine
 10
50.28918805111454
 20
39.59702730213015
 30
0.0
 11
54.28675135919092
 21
39.736625288940154
 31
0.0
  0
LINE
  5
15C
330
17
100
AcDbEntity
  8
SubLayer
100
AcDbLine
 10
54.28675135919092
 20
39.736625288940154
 30
0.0
 11
54.14715337238092
 21
43.734188597016534
 31
0.0
  0
LINE
  5
15D
330
17
100
AcDbEntity
  8
SubLayer
100
AcDbLine
 10
54.14715337238092
 20
43.734188597016534
 30
0.0
 11
50.14959006430454
 21
43.59459061020653
 31
0.0
  0
LINE
  5
15E
330
17
100
AcDbEntity
  8
SubLayer
100
AcDbLine
 10
50.14959006430454
 20
43.59459061020653
 30
0.0
 11
50.28918805111454
 21
39.59702730213015
 31
0.0
  0
LINE
  5
15F
330
17
100
AcDbEntity
  8
SubLayer
100
AcDbLine
 10
-3.3860366479626043
 20
79.4980956274717
 30
0.0
 11
0.6115266601137785
 21
79.6376936142817
 31
0.0
  0
LINE
  5
160
330
17
100
AcDbEntity
  8
SubLayer
100
AcDbLine
 10
0.6115266601137785
 20
79.6376936142817
 30
0.0
 11
0.47192867330377464
 21
83.6352569223581
 31
0.0
  0
LINE
  5
161
330
17
100
AcDbEntity
  8
SubLayer
100
AcDbLine
 10
0.47192867330377464
 20
83.6352569223581
 30
0.0
 11
-3.525634634772608
 21
83.4956589355481
 31
0.0
  0
LINE
  5
162
330
17
100
AcDbEntity
  8
SubLayer
100
AcDbLine
 10
-3.525634634772608
 20
83.4956589355481
 30
0.0
 11
-3.3860366479626043
 21
79.4980956274717
 31
0.0
  0
LINE
  5
163
330
17
100
AcDbEntity
  8
SubLayer
100
AcDbLine
 10
-0.47192867330377464
 20
-3.951038428622765
 30
0.0
 11
3.525634634772608
 21
-3.8114404418127608
 31
0.0
  0
LINE
  5
164
330
17
100
AcDbEntity
  8
SubLayer
100
AcDbLine
 10
3.525634634772608
 20
-3.8114404418127608
 30
0.0
 11
3.3860366479626043
 21
0.1861228662636223
 31
0.0
  0
LINE
  5
165
330
17
100
AcDbEntity
  8
SubLayer
100
AcDbLine
 10
3.3860366479626043
 20
0.1861228662636223
 30
0.0
 11
-0.6115266601137785
 21
0.046524879453618384
 31
0.0
  0
LINE
  5
166
330
17
100
AcDbEntity
  8
SubLayer
100
AcDbLine
 10
-0.6115266601137785
 20
0.046524879453618384
 30
0.0
 11
-0.47192867330377464
 21
-3.951038428622765
 31
0.0
  0
LINE
  5
167
330
17
100
AcDbEntity
  8
SubLayer
100
AcDbLine
 10
376.3830029570986
 20
32.110166523047546
 30
0.0
 11
380.38056626517493
 21
32.24976450985755
 31
0.0
  0
LINE
  5
168
330
17
100
AcDbEntity
  8
SubLayer
100
AcDbLine
 10
-259.1852938486019
 20
9.915632534033024
 30
0.0
 11
-255.1877305405255
 21
10.055230520843027
 31
0.0
  0
LINE
  5
169
330
17
100
AcDbEntity
  8
SubLayer
100
AcDbLine
 10
-133.0710253144809
 20
14.31963983513343
 30
0.0
 11
-127.07468035236633
 21
14.529036815348434
 31
0.0
  0
LINE
  5
16A
330
17
100
AcDbEntity
  8
SubLayer
100
AcDbLine
 10
248.2699527689394
 20
27.636360228542145
 30
0.0
 11
254.26629773105395
 21
27.84575720875715
 31
0.0
  0
LINE
  5
16B
330
17
100
AcDbEntity
  8
SubLayer
100
AcDbLine
 10
57.59946372722924
 20
20.978000031837784
 30
0.0
 11
63.59580868934382
 21
21.187397012052788
 31
0.0
  0
LINE
  5
16C
330
17
100
AcDbEntity
  8
SubLayer
100
AcDbLine
 10
-128.00427218598043
 20
12.495355664607741
 30
0.0
 11
-128.14387017279043
 21
16.492918972684127
 31
0.0
  0
LINE
  5
16D
330
17
100
AcDbEntity
  8
SubLayer
100
AcDbLine
 10
-128.14387017279043
 20
16.492918972684127
 30
0.0
 11
-132.1414334808668
 21
16.35332098587412
 31
0.0
  0
LINE
  5
16E
330
17
100
AcDbEntity
  8
SubLayer
100
AcDbLine
 10
-132.1414334808668
 20
16.35332098587412
 30
0.0
 11
-132.0018354940568
 21
12.355757677797738
 31
0.0
  0
LINE
  5
16F
330
17
100
AcDbEntity
  8
SubLayer
100
AcDbLine
 10
-132.0018354940568
 20
12.355757677797738
 30
0.0
 11
-128.00427218598043
 21
12.495355664607741
 31
0.0
  0
LINE
  5
170
330
17
100
AcDbEntity
  8
SubLayer
100
AcDbLine
 10
253.33670589743986
 20
25.81207605801646
 30
0.0
 11
253.19710791062985
 21
29.809639366092842
 31
0.0
  0
LINE
  5
171
330
17
100
AcDbEntity
  8
SubLayer
100
AcDbLine
 10
253.19710791062985
 20
29.809639366092842
 30
0.0
 11
249.1995446025535
 21
29.670041379282836
 31
0.0
  0
LINE
  5
172
330
17
100
AcDbEntity
  8
SubLayer
100
AcDbLine
 10
249.1995446025535
 20
29.670041379282836
 30
0.0
 11
249.3391425893635
 21
25.672478071206452
 31
0.0
  0
LINE
  5
173
330
17
100
AcDbEntity
  8
SubLayer
100
AcDbLine
 10
249.3391425893635
 20
25.672478071206452
 30
0.0
 11
253.33670589743986
 21
25.81207605801646
 31
0.0
  0
LINE
  5
174
330
17
100
AcDbEntity
  8
SubLayer
100
AcDbLine
 10
62.66621685572972
 20
19.153715861312097
 30
0.0
 11
62.52661886891972
 21
23.15127916938848
 31
0.0
  0
LINE
  5
175
330
17
100
AcDbEntity
  8
SubLayer
100
AcDbLine
 10
62.52661886891972
 20
23.15127916938848
 30
0.0
 11
58.52905556084334
 21
23.011681182578474
 31
0.0
  0
LINE
  5
176
330
17
100
AcDbEntity
  8
SubLayer
100
AcDbLine
 10
58.52905556084334
 20
23.011681182578474
 30
0.0
 11
58.66865354765334
 21
19.01411787450209
 31
0.0
  0
LINE
  5
177
330
17
100
AcDbEntity
  8
SubLayer
100
AcDbLine
 10
58.66865354765334
 20
19.01411787450209
 30
0.0
 11
62.66621685572972
 21
19.153715861312097
 31
0.0
  0
LINE
  5
178
330
17
100
AcDbEntity
  8
SubLayer
100
AcDbLine
 10
468.3655079093723
 20
5.84129575702791
 30
0.0
 11
468.68129364838916
 21
6.790126283008999
 31
0.0
  0
LINE
  5
179
330
17
100
AcDbEntity
  8
SubLayer
100
AcDbLine
 10
467.609479031284
 20
2.148594492518576
 30
0.0
 11
467.74168941639215
 21
3.139816170080944
 31
0.0
  0
LINE
  5
17A
330
17
100
AcDbEntity
  8
SubLayer
100
AcDbLine
 10
449.2162506077713
 20
11.60181240173855
 30
0.0
 11
449.51821265133054
 21
12.555132350260328
 31
0.0
  0
LINE
  5
17B
330
17
100
AcDbEntity
  8
SubLayer
100
AcDbLine
 10
447.7069681820377
 20
4.093814196825885
 30
0.0
 11
447.8217311384934
 21
5.087207101886893
 31
0.0
  0
LINE
  5
17C
330
17
100
AcDbEntity
  8
SubLayer
100
AcDbLine
 10
410.74092017886795
 20
22.545317351334
 30
0.0
 11
411.0287222600928
 21
23.503007260460457
 31
0.0
  0
LINE
  5
17D
330
17
100
AcDbEntity
  8
SubLayer
100
AcDbLine
 10
407.7455385109046
 20
6.280802442445614
 30
0.0
 11
407.8302762433462
 21
7.277205732635215
 31
0.0
  0
LINE
  5
17E
330
17
100
AcDbEntity
  8
SubLayer
100
AcDbLine
 10
-151.1884795721714
 20
71.25745155790568
 30
0.0
 11
-151.04888158536136
 21
67.25988824982929
 31
0.0
  0
LINE
  5
17F
330
17
100
AcDbEntity
  8
SubLayer
100
AcDbLine
 10
-148.1192901125762
 20
-16.63263518031696
 30
0.0
 11
-147.97969212576618
 21
-20.63019848839334
 31
0.0
  0
LINE
  5
180
330
17
100
AcDbEntity
  8
SubLayer
100
AcDbLine
 10
-148.76802750119774
 20
1.9447729943466645
 30
0.0
 11
-148.55863052098275
 21
-4.051571967767909
 31
0.0
  0
LINE
  5
181
330
17
100
AcDbEntity
  8
SubLayer
100
AcDbLine
 10
-150.60954117695485
 20
54.67882503728025
 30
0.0
 11
-150.40014419673986
 21
48.68248007516567
 31
0.0
  0
LINE
  5
182
330
17
100
AcDbEntity
  8
SubLayer
100
AcDbLine
 10
-149.68878433907628
 20
28.311799015813456
 30
0.0
 11
-149.4793873588613
 21
22.31545405369888
 31
0.0
  0
LINE
  5
183
330
17
100
AcDbEntity
  8
SubLayer
100
AcDbLine
 10
-150.59231167172342
 20
-3.1219801341538163
 30
0.0
 11
-146.59474836364706
 21
-2.982382147343812
 31
0.0
  0
LINE
  5
184
330
17
100
AcDbEntity
  8
SubLayer
100
AcDbLine
 10
-146.59474836364706
 20
-2.982382147343812
 30
0.0
 11
-146.73434635045706
 21
1.015181160732571
 31
0.0
  0
LINE
  5
185
330
17
100
AcDbEntity
  8
SubLayer
100
AcDbLine
 10
-146.73434635045706
 20
1.015181160732571
 30
0.0
 11
-150.73190965853343
 21
0.875583173922567
 31
0.0
  0
LINE
  5
186
330
17
100
AcDbEntity
  8
SubLayer
100
AcDbLine
 10
-150.73190965853343
 20
0.875583173922567
 30
0.0
 11
-150.59231167172342
 21
-3.1219801341538163
 31
0.0
  0
LINE
  5
187
330
17
100
AcDbEntity
  8
SubLayer
100
AcDbLine
 10
-152.43382534748054
 20
49.61207190877977
 30
0.0
 11
-148.43626203940417
 21
49.75166989558977
 31
0.0
  0
LINE
  5
188
330
17
100
AcDbEntity
  8
SubLayer
100
AcDbLine
 10
-148.43626203940417
 20
49.75166989558977
 30
0.0
 11
-148.57586002621417
 21
53.74923320366615
 31
0.0
  0
LINE
  5
189
330
17
100
AcDbEntity
  8
SubLayer
100
AcDbLine
 10
-148.57586002621417
 20
53.74923320366615
 30
0.0
 11
-152.57342333429054
 21
53.60963521685615
 31
0.0
  0
LINE
  5
18A
330
17
100
AcDbEntity
  8
SubLayer
100
AcDbLine
 10
-152.57342333429054
 20
53.60963521685615
 30
0.0
 11
-152.43382534748054
 21
49.61207190877977
 31
0.0
  0
LINE
  5
18B
330
17
100
AcDbEntity
  8
SubLayer
100
AcDbLine
 10
-151.51306850960196
 20
23.245045887312973
 30
0.0
 11
-147.5155052015256
 21
23.38464387412298
 31
0.0
  0
LINE
  5
18C
330
17
100
AcDbEntity
  8
SubLayer
100
AcDbLine
 10
-147.5155052015256
 20
23.38464387412298
 30
0.0
 11
-147.6551031883356
 21
27.382207182199362
 31
0.0
  0
LINE
  5
18D
330
17
100
AcDbEntity
  8
SubLayer
100
AcDbLine
 10
-147.6551031883356
 20
27.382207182199362
 30
0.0
 11
-151.65266649641197
 21
27.242609195389356
 31
0.0
  0
LINE
  5
18E
330
17
100
AcDbEntity
  8
SubLayer
100
AcDbLine
 10
-151.65266649641197
 20
27.242609195389356
 30
0.0
 11
-151.51306850960196
 21
23.245045887312973
 31
0.0
  0
LINE
  5
18F
330
17
100
AcDbEntity
  8
SubLayer
100
AcDbLine
 10
198.83902796021624
 20
76.57901161814183
 30
0.0
 11
198.97862594702627
 21
72.58144831006544
 31
0.0
  0
LINE
  5
190
330
17
100
AcDbEntity
  8
SubLayer
100
AcDbLine
 10
201.41276847097967
 20
2.8767264674191555
 30
0.0
 11
201.5523664577897
 21
-1.1208368406572278
 31
0.0
  0
LINE
  5
191
330
17
100
AcDbEntity
  8
SubLayer
100
AcDbLine
 10
200.8631208721245
 20
18.616574324582785
 30
0.0
 11
201.0725178523395
 21
12.620229362468212
 31
0.0
  0
LINE
  5
192
330
17
100
AcDbEntity
  8
SubLayer
100
AcDbLine
 10
199.31887656566644
 20
62.83794541501639
 30
0.0
 11
199.52827354588143
 21
56.841600452901815
 31
0.0
  0
LINE
  5
193
330
17
100
AcDbEntity
  8
SubLayer
100
AcDbLine
 10
200.09099871889546
 20
40.72725986979959
 30
0.0
 11
200.30039569911045
 21
34.73091490768501
 31
0.0
  0
LINE
  5
194
330
17
100
AcDbEntity
  8
SubLayer
100
AcDbLine
 10
199.03883670159883
 20
13.549821196082306
 30
0.0
 11
203.0364000096752
 21
13.689419182892308
 31
0.0
  0
LINE
  5
195
330
17
100
AcDbEntity
  8
SubLayer
100
AcDbLine
 10
203.0364000096752
 20
13.689419182892308
 30
0.0
 11
202.8968020228652
 21
17.686982490968692
 31
0.0
  0
LINE
  5
196
330
17
100
AcDbEntity
  8
SubLayer
100
AcDbLine
 10
202.8968020228652
 20
17.686982490968692
 30
0.0
 11
198.89923871478882
 21
17.547384504158686
 31
0.0
  0
LINE
  5
197
330
17
100
AcDbEntity
  8
SubLayer
100
AcDbLine
 10
198.89923871478882
 20
17.547384504158686
 30
0.0
 11
199.03883670159883
 21
13.549821196082306
 31
0.0
  0
LINE
  5
198
330
17
100
AcDbEntity
  8
SubLayer
100
AcDbLine
 10
197.49459239514076
 20
57.77119228651591
 30
0.0
 11
201.49215570321712
 21
57.910790273325915
 31
0.0
  0
LINE
  5
199
330
17
100
AcDbEntity
  8
SubLayer
100
AcDbLine
 10
201.49215570321712
 20
57.910790273325915
 30
0.0
 11
201.35255771640712
 21
61.908353581402295
 31
0.0
  0
LINE
  5
19A
330
17
100
AcDbEntity
  8
SubLayer
100
AcDbLine
 10
201.35255771640712
 20
61.908353581402295
 30
0.0
 11
197.35499440833075
 21
61.76875559459229
 31
0.0
  0
LINE
  5
19B
330
17
100
AcDbEntity
  8
SubLayer
100
AcDbLine
 10
197.35499440833075
 20
61.76875559459229
 30
0.0
 11
197.49459239514076
 21
57.77119228651591
 31
0.0
  0
LINE
  5
19C
330
17
100
AcDbEntity
  8
SubLayer
100
AcDbLine
 10
198.26671454836978
 20
35.66050674129911
 30
0.0
 11
202.26427785644614
 21
35.80010472810911
 31
0.0
  0
LINE
  5
19D
330
17
100
AcDbEntity
  8
SubLayer
100
AcDbLine
 10
202.26427785644614
 20
35.80010472810911
 30
0.0
 11
202.12467986963614
 21
39.79766803618549
 31
0.0
  0
LINE
  5
19E
330
17
100
AcDbEntity
  8
SubLayer
100
AcDbLine
 10
202.12467986963614
 20
39.79766803618549
 30
0.0
 11
198.12711656155977
 21
39.65807004937549
 31
0.0
  0
LINE
  5
19F
330
17
100
AcDbEntity
  8
SubLayer
100
AcDbLine
 10
198.12711656155977
 20
39.65807004937549
 30
0.0
 11
198.26671454836978
 21
35.66050674129911
 31
0.0
  0
ENDSEC
  0
SECTION
  2
OBJECTS
  0
DICTIONARY
  5
A
330
0
100
AcDbDictionary
280
0
281
1
  3
ACAD_COLOR
350
B
  3
ACAD_GROUP
350
C
  3
ACAD_LAYOUT
350
D
  3
ACAD_MATERIAL
350
E
  3
ACAD_MLEADERSTYLE
350
F
  3
ACAD_MLINESTYLE
350
10
  3
ACAD_PLOTSETTINGS
350
11
  3
ACAD_PLOTSTYLENAME
350
12
  3
ACAD_SCALELIST
350
14
  3
ACAD_TABLESTYLE
350
15
  3
ACAD_VISUALSTYLE
350
16
  3
EZDXF_META
350
2D
  0
DICTIONARY
  5
B
330
A
100
AcDbDictionary
280
0
281
1
  0
DICTIONARY
  5
C
330
A
100
AcDbDictionary
280
0
281
1
  0
DICTIONARY
  5
D
330
A
100
AcDbDictionary
280
0
281
1
  3
Model
350
1A
  3
Layout1
350
1E
  0
DICTIONARY
  5
E
330
A
100
AcDbDictionary
280
0
281
1
  3
ByBlock
350
1F
  3
ByLayer
350
20
  3
Global
350
21
  0
DICTIONARY
  5
F
330
A
100
AcDbDictionary
280
0
281
1
  3
Standard
350
2C
  0
DICTIONARY
  5
10
330
A
100
AcDbDictionary
280
0
281
1
  3
Standard
350
22
  0
DICTIONARY
  5
11
330
A
100
AcDbDictionary
280
0
281
1
  0
ACDBDICTIONARYWDFLT
  5
12
330
A
100
AcDbDictionary
280
0
281
1
  3
Normal
350
13
100
AcDbDictionaryWithDefault
340
13
  0
ACDBPLACEHOLDER
  5
13
330
12
  0
DICTIONARY
  5
14
330
A
100
AcDbDictionary
280
0
281
1
  0
DICTIONARY
  5
15
330
A
100
AcDbDictionary
280
0
281
1
  0
DICTIONARY
  5
16
330
A
100
AcDbDictionary
280
0
281
1
  0
LAYOUT
  5
1A
330
D
100
AcDbPlotSettings
  1

  2
Adobe PDF
  4
A3
  6

 40
7.5
 41
20.0
 42
7.5
 43
20.0
 44
420.0
 45
297.0
 46
0.0
 47
0.0
 48
0.0
 49
0.0
140
0.0
141
0.0
142
1.0
143
1.0
 70
1024
 72
1
 73
0
 74
5
  7

 75
16
 76
0
 77
2
 78
300
147
1.0
148
0.0
149
0.0
100
AcDbLayout
  1
Model
 70
1
 71
0
 10
0.0
 20
0.0
 11
420.0
 21
297.0
 12
0.0
 22
0.0
 32
0.0
 14
1e+20
 24
1e+20
 34
1e+20
 15
-1e+20
 25
-1e+20
 35
-1e+20
146
0.0
 13
0.0
 23
0.0
 33
0.0
 16
1.0
 26
0.0
 36
0.0
 17
0.0
 27
1.0
 37
0.0
 76
1
330
17
  0
LAYOUT
  5
1E
330
D
100
AcDbPlotSettings
  1

  2
Adobe PDF
  4
A3
  6

 40
7.5
 41
20.0
 42
7.5
 43
20.0
 44
420.0
 45
297.0
 46
0.0
 47
0.0
 48
0.0
 49
0.0
140
0.0
141
0.0
142
1.0
143
1.0
 70
0
 72
1
 73
0
 74
5
  7

 75
16
 76
0
 77
2
 78
300
147
1.0
148
0.0
149
0.0
100
AcDbLayout
  1
Layout1
 70
1
 71
1
 10
0.0
 20
0.0
 11
420.0
 21
297.0
 12
0.0
 22
0.0
 32
0.0
 14
1e+20
 24
1e+20
 34
1e+20
 15
-1e+20
 25
-1e+20
 35
-1e+20
146
0.0
 13
0.0
 23
0.0
 33
0.0
 16
1.0
 26
0.0
 36
0.0
 17
0.0
 27
1.0
 37
0.0
 76
1
330
1B
  0
MATERIAL
  5
1F
102
{ACAD_REACTORS
330
E
102
}
330
E
100
AcDbMaterial
  1
ByBlock
  2

 70
0
 40
1.0
 71
1
 41
1.0
 91
-1023410177
 42
1.0
 72
1
  3

 73
1
 74
1
 75
1
 44
0.5
 73
0
 45
1.0
 46
1.0
 77
1
  4

 78
1
 79
1
170
1
 48
1.0
171
1
  6

172
1
173
1
174
1
140
1.0
141
1.0
175
1
  7

176
1
177
1
178
1
143
1.0
179
1
  8

270
1
271
1
272
1
145
1.0
146
1.0
273
1
  9

274
1
275
1
276
1
 42
1.0
 72
1
  3

 73
1
 74
1
 75
1
 94
63
  0
MATERIAL
  5
20
102
{ACAD_REACTORS
330
E
102
}
330
E
100
AcDbMaterial
  1
ByLayer
  2

 70
0
 40
1.0
 71
1
 41
1.0
 91
-1023410177
 42
1.0
 72
1
  3

 73
1
 74
1
 75
1
 44
0.5
 73
0
 45
1.0
 46
1.0
 77
1
  4

 78
1
 79
1
170
1
 48
1.0
171
1
  6

172
1
173
1
174
1
140
1.0
141
1.0
175
1
  7

176
1
177
1
178
1
143
1.0
179
1
  8

270
1
271
1
272
1
145
1.0
146
1.0
273
1
  9

274
1
275
1
276
1
 42
1.0
 72
1
  3

 73
1
 74
1
 75
1
 94
63
  0
MATERIAL
  5
21
102
{ACAD_REACTORS
330
E
102
}
330
E
100
AcDbMaterial
  1
Global
  2

 70
0
 40
1.0
 71
1
 41
1.0
 91
-1023410177
 42
1.0
 72
1
  3

 73
1
 74
1
 75
1
 44
0.5
 73
0
 45
1.0
 46
1.0
 77
1
  4

 78
1
 79
1
170
1
 48
1.0
171
1
  6

172
1
173
1
174
1
140
1.0
141
1.0
175
1
  7

176
1
177
1
178
1
143
1.0
179
1
  8

270
1
271
1
272
1
145
1.0
146
1.0
273
1
  9

274
1
275
1
276
1
 42
1.0
 72
1
  3

 73
1
 74
1
 75
1
 94
63
  0
MLINESTYLE
  5
22
102
{ACAD_REACTORS
330
10
102
}
330
10
100
AcDbMlineStyle
  2
Standard
 70
0
  3

 62
256
 51
90.0
 52
90.0
 71
2
 49
0.5
 62
256
  6
BYLAYER
 49
-0.5
 62
256
  6
BYLAYER
  0
MLEADERSTYLE
  5
2C
102
{ACAD_REACTORS
330
F
102
}
330
F
100
AcDbMLeaderStyle
179
2
170
2
171
1
172
0
 90
2
 40
0.0
 41
0.0
173
1
 91
-1056964608
 92
-2
290
1
 42
2.0
291
1
 43
8.0
  3
Standard
 44
4.0
300

342
29
174
1
175
1
176
0
178
1
 93
-1056964608
 45
4.0
292
0
297
0
 46
4.0
 94
-1056964608
 47
1.0
 49
1.0
140
1.0
294
1
141
0.0
177
0
142
1.0
295
0
296
0
143
3.75
271
0
272
9
273
9
  0
DICTIONARY
  5
2D
330
A
100
AcDbDictionary
281
1
  3
CREATED_BY_EZDXF
350
2E
  3
WRITTEN_BY_EZDXF
350
1A2
  0
DICTIONARYVAR
  5
2E
330
2D
100
DictionaryVariables
280
0
  1
1.0.2 @ 2023-10-20T04:47:15.841694+00:00
  0
DICTIONARYVAR
  5
1A2
330
2D
100
DictionaryVariables
280
0
  1
1.0.2 @ 2023-10-20T04:47:15.850664+00:00
  0
ENDSEC
  0
EOF
