  0
SECTION
  2
HEADER
  9
$ACADVER
  1
AC1027
  9
$ACADMAINTVER
 70
105
  9
$DWGCODEPAGE
  3
ANSI_1252
  9
$LASTSAVEDBY
  1
ezdxf
  9
$REQUIREDVERSIONS
160
0
  9
$INSBASE
 10
0.0
 20
0.0
 30
0.0
  9
$EXTMIN
 10
1e+20
 20
1e+20
 30
1e+20
  9
$EXTMAX
 10
-1e+20
 20
-1e+20
 30
-1e+20
  9
$LIMMIN
 10
0.0
 20
0.0
  9
$LIMMAX
 10
420.0
 20
297.0
  9
$ORTHOMODE
 70
0
  9
$REGENMODE
 70
1
  9
$FILLMODE
 70
1
  9
$QTEXTMODE
 70
0
  9
$MIRRTEXT
 70
1
  9
$LTSCALE
 40
1.0
  9
$ATTMODE
 70
1
  9
$TEXTSIZE
 40
2.5
  9
$TRACEWID
 40
1.0
  9
$TEXTSTYLE
  7
Standard
  9
$CLAYER
  8
0
  9
$CELTYPE
  6
ByLayer
  9
$CECOLOR
 62
256
  9
$CELTSCALE
 40
1.0
  9
$DISPSILH
 70
0
  9
$DIMSCALE
 40
1.0
  9
$DIMASZ
 40
2.5
  9
$DIMEXO
 40
0.625
  9
$DIMDLI
 40
3.75
  9
$DIMRND
 40
0.0
  9
$DIMDLE
 40
0.0
  9
$DIMEXE
 40
1.25
  9
$DIMTP
 40
0.0
  9
$DIMTM
 40
0.0
  9
$DIMTXT
 40
2.5
  9
$DIMCEN
 40
2.5
  9
$DIMTSZ
 40
0.0
  9
$DIMTOL
 70
0
  9
$DIMLIM
 70
0
  9
$DIMTIH
 70
0
  9
$DIMTOH
 70
0
  9
$DIMSE1
 70
0
  9
$DIMSE2
 70
0
  9
$DIMTAD
 70
1
  9
$DIMZIN
 70
8
  9
$DIMBLK
  1

  9
$DIMASO
 70
1
  9
$DIMSHO
 70
1
  9
$DIMPOST
  1

  9
$DIMAPOST
  1

  9
$DIMALT
 70
0
  9
$DIMALTD
 70
3
  9
$DIMALTF
 40
0.03937007874
  9
$DIMLFAC
 40
1.0
  9
$DIMTOFL
 70
1
  9
$DIMTVP
 40
0.0
  9
$DIMTIX
 70
0
  9
$DIMSOXD
 70
0
  9
$DIMSAH
 70
0
  9
$DIMBLK1
  1

  9
$DIMBLK2
  1

  9
$DIMSTYLE
  2
ISO-25
  9
$DIMCLRD
 70
0
  9
$DIMCLRE
 70
0
  9
$DIMCLRT
 70
0
  9
$DIMTFAC
 40
1.0
  9
$DIMGAP
 40
0.625
  9
$DIMJUST
 70
0
  9
$DIMSD1
 70
0
  9
$DIMSD2
 70
0
  9
$DIMTOLJ
 70
0
  9
$DIMTZIN
 70
8
  9
$DIMALTZ
 70
0
  9
$DIMALTTZ
 70
0
  9
$DIMUPT
 70
0
  9
$DIMDEC
 70
2
  9
$DIMTDEC
 70
2
  9
$DIMALTU
 70
2
  9
$DIMALTTD
 70
3
  9
$DIMTXSTY
  7
Standard
  9
$DIMAUNIT
 70
0
  9
$DIMADEC
 70
0
  9
$DIMALTRND
 40
0.0
  9
$DIMAZIN
 70
0
  9
$DIMDSEP
 70
44
  9
$DIMATFIT
 70
3
  9
$DIMFRAC
 70
0
  9
$DIMLDRBLK
  1

  9
$DIMLUNIT
 70
2
  9
$DIMLWD
 70
-2
  9
$DIMLWE
 70
-2
  9
$DIMTMOVE
 70
0
  9
$DIMFXL
 40
1.0
  9
$DIMFXLON
 70
0
  9
$DIMJOGANG
 40
0.785398163397
  9
$DIMTFILL
 70
0
  9
$DIMTFILLCLR
 70
0
  9
$DIMARCSYM
 70
0
  9
$DIMLTYPE
  6

  9
$DIMLTEX1
  6

  9
$DIMLTEX2
  6

  9
$DIMTXTDIRECTION
 70
0
  9
$LUNITS
 70
2
  9
$LUPREC
 70
4
  9
$SKETCHINC
 40
1.0
  9
$FILLETRAD
 40
10.0
  9
$AUNITS
 70
0
  9
$AUPREC
 70
2
  9
$MENU
  1
.
  9
$ELEVATION
 40
0.0
  9
$PELEVATION
 40
0.0
  9
$THICKNESS
 40
0.0
  9
$LIMCHECK
 70
0
  9
$CHAMFERA
 40
0.0
  9
$CHAMFERB
 40
0.0
  9
$CHAMFERC
 40
0.0
  9
$CHAMFERD
 40
0.0
  9
$SKPOLY
 70
0
  9
$TDCREATE
 40
2460238.574479167
  9
$TDUCREATE
 40
2458532.153996898
  9
$TDUPDATE
 40
2460238.574479167
  9
$TDUUPDATE
 40
2458532.1544311
  9
$TDINDWG
 40
0.0
  9
$TDUSRTIMER
 40
0.0
  9
$USRTIMER
 70
1
  9
$ANGBASE
 50
0.0
  9
$ANGDIR
 70
0
  9
$PDMODE
 70
0
  9
$PDSIZE
 40
0.0
  9
$PLINEWID
 40
0.0
  9
$SPLFRAME
 70
0
  9
$SPLINETYPE
 70
6
  9
$SPLINESEGS
 70
8
  9
$HANDSEED
  5
1A3
  9
$SURFTAB1
 70
6
  9
$SURFTAB2
 70
6
  9
$SURFTYPE
 70
6
  9
$SURFU
 70
6
  9
$SURFV
 70
6
  9
$UCSBASE
  2

  9
$UCSNAME
  2

  9
$UCSORG
 10
0.0
 20
0.0
 30
0.0
  9
$UCSXDIR
 10
1.0
 20
0.0
 30
0.0
  9
$UCSYDIR
 10
0.0
 20
1.0
 30
0.0
  9
$UCSORTHOREF
  2

  9
$UCSORTHOVIEW
 70
0
  9
$UCSORGTOP
 10
0.0
 20
0.0
 30
0.0
  9
$UCSORGBOTTOM
 10
0.0
 20
0.0
 30
0.0
  9
$UCSORGLEFT
 10
0.0
 20
0.0
 30
0.0
  9
$UCSORGRIGHT
 10
0.0
 20
0.0
 30
0.0
  9
$UCSORGFRONT
 10
0.0
 20
0.0
 30
0.0
  9
$UCSORGBACK
 10
0.0
 20
0.0
 30
0.0
  9
$PUCSBASE
  2

  9
$PUCSNAME
  2

  9
$PUCSORG
 10
0.0
 20
0.0
 30
0.0
  9
$PUCSXDIR
 10
1.0
 20
0.0
 30
0.0
  9
$PUCSYDIR
 10
0.0
 20
1.0
 30
0.0
  9
$PUCSORTHOREF
  2

  9
$PUCSORTHOVIEW
 70
0
  9
$PUCSORGTOP
 10
0.0
 20
0.0
 30
0.0
  9
$PUCSORGBOTTOM
 10
0.0
 20
0.0
 30
0.0
  9
$PUCSORGLEFT
 10
0.0
 20
0.0
 30
0.0
  9
$PUCSORGRIGHT
 10
0.0
 20
0.0
 30
0.0
  9
$PUCSORGFRONT
 10
0.0
 20
0.0
 30
0.0
  9
$PUCSORGBACK
 10
0.0
 20
0.0
 30
0.0
  9
$USERI1
 70
0
  9
$USERI2
 70
0
  9
$USERI3
 70
0
  9
$USERI4
 70
0
  9
$USERI5
 70
0
  9
$USERR1
 40
0.0
  9
$USERR2
 40
0.0
  9
$USERR3
 40
0.0
  9
$USERR4
 40
0.0
  9
$USERR5
 40
0.0
  9
$WORLDVIEW
 70
1
  9
$SHADEDGE
 70
3
  9
$SHADEDIF
 70
70
  9
$TILEMODE
 70
1
  9
$MAXACTVP
 70
64
  9
$PINSBASE
 10
0.0
 20
0.0
 30
0.0
  9
$PLIMCHECK
 70
0
  9
$PEXTMIN
 10
1e+20
 20
1e+20
 30
1e+20
  9
$PEXTMAX
 10
-1e+20
 20
-1e+20
 30
-1e+20
  9
$PLIMMIN
 10
0.0
 20
0.0
  9
$PLIMMAX
 10
420.0
 20
297.0
  9
$UNITMODE
 70
0
  9
$VISRETAIN
 70
1
  9
$PLINEGEN
 70
0
  9
$PSLTSCALE
 70
1
  9
$TREEDEPTH
 70
3020
  9
$CMLSTYLE
  2
Standard
  9
$CMLJUST
 70
0
  9
$CMLSCALE
 40
20.0
  9
$PROXYGRAPHICS
 70
1
  9
$MEASUREMENT
 70
1
  9
$CELWEIGHT
370
-1
  9
$ENDCAPS
280
0
  9
$JOINSTYLE
280
0
  9
$LWDISPLAY
290
0
  9
$INSUNITS
 70
6
  9
$HYPERLINKBASE
  1

  9
$STYLESHEET
  1

  9
$XEDIT
290
1
  9
$CEPSNTYPE
380
0
  9
$PSTYLEMODE
290
1
  9
$FINGERPRINTGUID
  2
{BFB5BE0B-3A9D-44E1-8CFF-33405264EDB9}
  9
$VERSIONGUID
  2
{355C58B1-12C5-46E8-BAB4-517E508E99C0}
  9
$EXTNAMES
290
1
  9
$PSVPSCALE
 40
0.0
  9
$OLESTARTUP
290
0
  9
$SORTENTS
280
127
  9
$INDEXCTL
280
0
  9
$HIDETEXT
280
1
  9
$XCLIPFRAME
280
0
  9
$HALOGAP
280
0
  9
$OBSCOLOR
 70
257
  9
$OBSLTYPE
280
0
  9
$INTERSECTIONDISPLAY
280
0
  9
$INTERSECTIONCOLOR
 70
257
  9
$DIMASSOC
280
2
  9
$PROJECTNAME
  1

  9
$CAMERADISPLAY
290
0
  9
$LENSLENGTH
 40
50.0
  9
$CAMERAHEIGHT
 40
0.0
  9
$STEPSPERSEC
 40
24.0
  9
$STEPSIZE
 40
100.0
  9
$3DDWFPREC
 40
2.0
  9
$PSOLWIDTH
 40
0.005
  9
$PSOLHEIGHT
 40
0.08
  9
$LOFTANG1
 40
1.570796326795
  9
$LOFTANG2
 40
1.570796326795
  9
$LOFTMAG1
 40
0.0
  9
$LOFTMAG2
 40
0.0
  9
$LOFTPARAM
 70
7
  9
$LOFTNORMALS
280
1
  9
$LATITUDE
 40
37.795
  9
$LONGITUDE
 40
-122.394
  9
$NORTHDIRECTION
 40
0.0
  9
$TIMEZONE
 70
-8000
  9
$LIGHTGLYPHDISPLAY
280
1
  9
$TILEMODELIGHTSYNCH
280
1
  9
$CMATERIAL
347
20
  9
$SOLIDHIST
280
0
  9
$SHOWHIST
280
1
  9
$DWFFRAME
280
2
  9
$DGNFRAME
280
2
  9
$REALWORLDSCALE
290
1
  9
$INTERFERECOLOR
 62
256
  9
$CSHADOW
280
0
  9
$SHADOWPLANELOCATION
 40
0.0
  0
ENDSEC
  0
SECTION
  2
CLASSES
  0
CLASS
  1
ACDBDICTIONARYWDFLT
  2
AcDbDictionaryWithDefault
  3
ObjectDBX Classes
 90
0
 91
0
280
0
281
0
  0
CLASS
  1
SUN
  2
AcDbSun
  3
SCENEOE
 90
1153
 91
0
280
0
281
0
  0
CLASS
  1
VISUALSTYLE
  2
AcDbVisualStyle
  3
ObjectDBX Classes
 90
4095
 91
0
280
0
281
0
  0
CLASS
  1
MATERIAL
  2
AcDbMaterial
  3
ObjectDBX Classes
 90
1153
 91
0
280
0
281
0
  0
CLASS
  1
SCALE
  2
AcDbScale
  3
ObjectDBX Classes
 90
1153
 91
0
280
0
281
0
  0
CLASS
  1
TABLESTYLE
  2
AcDbTableStyle
  3
ObjectDBX Classes
 90
4095
 91
0
280
0
281
0
  0
CLASS
  1
MLEADERSTYLE
  2
AcDbMLeaderStyle
  3
ACDB_MLEADERSTYLE_CLASS
 90
4095
 91
0
280
0
281
0
  0
CLASS
  1
DICTIONARYVAR
  2
AcDbDictionaryVar
  3
ObjectDBX Classes
 90
0
 91
0
280
0
281
0
  0
CLASS
  1
CELLSTYLEMAP
  2
AcDbCellStyleMap
  3
ObjectDBX Classes
 90
1152
 91
0
280
0
281
0
  0
CLASS
  1
MENTALRAYRENDERSETTINGS
  2
AcDbMentalRayRenderSettings
  3
SCENEOE
 90
1024
 91
0
280
0
281
0
  0
CLASS
  1
ACDBDETAILVIEWSTYLE
  2
AcDbDetailViewStyle
  3
ObjectDBX Classes
 90
1025
 91
0
280
0
281
0
  0
CLASS
  1
ACDBSECTIONVIEWSTYLE
  2
AcDbSectionViewStyle
  3
ObjectDBX Classes
 90
1025
 91
0
280
0
281
0
  0
CLASS
  1
RASTERVARIABLES
  2
AcDbRasterVariables
  3
ISM
 90
0
 91
0
280
0
281
0
  0
CLASS
  1
ACDBPLACEHOLDER
  2
AcDbPlaceHolder
  3
ObjectDBX Classes
 90
0
 91
0
280
0
281
0
  0
CLASS
  1
LAYOUT
  2
AcDbLayout
  3
ObjectDBX Classes
 90
0
 91
0
280
0
281
0
  0
ENDSEC
  0
SECTION
  2
TABLES
  0
TABLE
  2
VPORT
  5
8
330
0
100
AcDbSymbolTable
 70
1
  0
VPORT
  5
23
330
8
100
AcDbSymbolTableRecord
100
AcDbViewportTableRecord
  2
*Active
 70
0
 10
0.0
 20
0.0
 11
1.0
 21
1.0
 12
0.0
 22
0.0
 13
0.0
 23
0.0
 14
0.5
 24
0.5
 15
0.5
 25
0.5
 16
0.0
 26
0.0
 36
1.0
 17
0.0
 27
0.0
 37
0.0
 40
1000.0
 41
1.34
 42
50.0
 43
0.0
 44
0.0
 50
0.0
 51
0.0
 71
0
 72
1000
 73
1
 74
3
 75
0
 76
0
 77
0
 78
0
281
0
 65
0
146
0.0
  0
ENDTAB
  0
TABLE
  2
LTYPE
  5
2
330
0
100
AcDbSymbolTable
 70
3
  0
LTYPE
  5
24
330
2
100
AcDbSymbolTableRecord
100
AcDbLinetypeTableRecord
  2
ByBlock
 70
0
  3

 72
65
 73
0
 40
0.0
  0
LTYPE
  5
25
330
2
100
AcDbSymbolTableRecord
100
AcDbLinetypeTableRecord
  2
ByLayer
 70
0
  3

 72
65
 73
0
 40
0.0
  0
LTYPE
  5
26
330
2
100
AcDbSymbolTableRecord
100
AcDbLinetypeTableRecord
  2
Continuous
 70
0
  3

 72
65
 73
0
 40
0.0
  0
ENDTAB
  0
TABLE
  2
LAYER
  5
1
330
0
100
AcDbSymbolTable
 70
5
  0
LAYER
  5
27
330
1
100
AcDbSymbolTableRecord
100
AcDbLayerTableRecord
  2
0
 70
0
 62
7
  6
Continuous
370
-3
390
13
347
21
  0
LAYER
  5
28
330
1
100
AcDbSymbolTableRecord
100
AcDbLayerTableRecord
  2
Defpoints
 70
0
 62
7
  6
Continuous
290
0
370
-3
390
13
347
21
  0
LAYER
  5
30
330
1
100
AcDbSymbolTableRecord
100
AcDbLayerTableRecord
  2
FoilLayer
 70
0
 62
1
  6
Continuous
370
50
390
13
347
21
  0
LAYER
  5
31
330
1
100
AcDbSymbolTableRecord
100
AcDbLayerTableRecord
  2
StringerLayer
 70
0
 62
1
  6
Continuous
370
50
390
13
347
21
  0
LAYER
  5
32
330
1
100
AcDbSymbolTableRecord
100
AcDbLayerTableRecord
  2
SubLayer
 70
0
 62
1
  6
Continuous
370
50
390
13
347
21
  0
ENDTAB
  0
TABLE
  2
STYLE
  5
5
330
0
100
AcDbSymbolTable
 70
2
  0
STYLE
  5
29
330
5
100
AcDbSymbolTableRecord
100
AcDbTextStyleTableRecord
  2
Standard
 70
0
 40
0.0
 41
1.0
 50
0.0
 71
0
 42
2.5
  3
txt
  4

  0
STYLE
  5
2F
330
5
100
AcDbSymbolTableRecord
100
AcDbTextStyleTableRecord
  2
MSゴシック
 70
0
 40
0.0
 41
1.0
 50
0.0
 71
0
 42
2.5
  3
romans
  4

  0
ENDTAB
  0
TABLE
  2
VIEW
  5
7
330
0
100
AcDbSymbolTable
 70
0
  0
ENDTAB
  0
TABLE
  2
UCS
  5
6
330
0
100
AcDbSymbolTable
 70
0
  0
ENDTAB
  0
TABLE
  2
APPID
  5
3
330
0
100
AcDbSymbolTable
 70
3
  0
APPID
  5
2A
330
3
100
AcDbSymbolTableRecord
100
AcDbRegAppTableRecord
  2
ACAD
 70
0
  0
APPID
  5
1A0
330
3
100
AcDbSymbolTableRecord
100
AcDbRegAppTableRecord
  2
HATCHBACKGROUNDCOLOR
 70
0
  0
APPID
  5
1A1
330
3
100
AcDbSymbolTableRecord
100
AcDbRegAppTableRecord
  2
EZDXF
 70
0
  0
ENDTAB
  0
TABLE
  2
DIMSTYLE
  5
4
330
0
100
AcDbSymbolTable
 70
1
100
AcDbDimStyleTable
  0
DIMSTYLE
105
2B
330
4
100
AcDbSymbolTableRecord
100
AcDbDimStyleTableRecord
  2
Standard
 70
0
 40
1.0
 41
2.5
 42
0.625
 43
3.75
 44
1.25
 45
0.0
 46
0.0
 47
0.0
 48
0.0
 49
2.5
140
2.5
141
2.5
142
0.0
143
0.03937007874
144
1.0
145
0.0
146
1.0
147
0.625
148
0.0
 69
0
 70
0
 71
0
 72
0
 73
0
 74
0
 75
0
 76
0
 77
1
 78
8
 79
3
170
0
171
3
172
1
173
0
174
0
175
0
176
0
177
0
178
0
179
2
271
2
272
2
273
2
274
3
275
0
276
0
277
2
278
44
279
0
280
0
281
0
282
0
283
0
284
8
285
0
286
0
288
0
289
3
290
0
371
-2
372
-2
  0
ENDTAB
  0
TABLE
  2
BLOCK_RECORD
  5
9
330
0
100
AcDbSymbolTable
 70
2
  0
BLOCK_RECORD
  5
17
330
9
100
AcDbSymbolTableRecord
100
AcDbBlockTableRecord
  2
*Model_Space
340
1A
 70
0
280
1
281
0
  0
BLOCK_RECORD
  5
1B
330
9
100
AcDbSymbolTableRecord
100
AcDbBlockTableRecord
  2
*Paper_Space
340
1E
 70
0
280
1
281
0
  0
ENDTAB
  0
ENDSEC
  0
SECTION
  2
BLOCKS
  0
BLOCK
  5
18
330
17
100
AcDbEntity
  8
0
100
AcDbBlockBegin
  2
*Model_Space
 70
0
 10
0.0
 20
0.0
 30
0.0
  3
*Model_Space
  1

  0
ENDBLK
  5
19
330
17
100
AcDbEntity
  8
0
100
AcDbBlockEnd
  0
BLOCK
  5
1C
330
1B
100
AcDbEntity
  8
0
100
AcDbBlockBegin
  2
*Paper_Space
 70
0
 10
0.0
 20
0.0
 30
0.0
  3
*Paper_Space
  1

  0
ENDBLK
  5
1D
330
1B
100
AcDbEntity
  8
0
100
AcDbBlockEnd
  0
ENDSEC
  0
SECTION
  2
ENTITIES
  0
LINE
  5
33
330
17
100
AcDbEntity
  8
FoilLayer
100
AcDbLine
 10
293.4922489008267
 20
50.62607829445956
 30
0.0
 11
36.75
 21
-9.527650289602587
 31
0.0
  0
LINE
  5
34
330
17
100
AcDbEntity
  8
FoilLayer
100
AcDbLine
 10
477.74999999999994
 20
0.03675110253307599
 30
0.0
 11
477.6029955898676
 21
0.08820264607938236
 31
0.0
  0
LINE
  5
35
330
17
100
AcDbEntity
  8
FoilLayer
100
AcDbLine
 10
477.6029955898676
 20
0.08820264607938236
 30
0.0
 11
477.1693325799774
 21
0.23520705621168628
 31
0.0
  0
LINE
  5
36
330
17
100
AcDbEntity
  8
FoilLayer
100
AcDbLine
 10
477.1693325799774
 20
0.23520705621168628
 30
0.0
 11
476.47841185235546
 21
0.4777643329299879
 31
0.0
  0
LINE
  5
37
330
17
100
AcDbEntity
  8
FoilLayer
100
AcDbLine
 10
476.47841185235546
 20
0.4777643329299879
 30
0.0
 11
475.5302334070021
 21
0.8085242557276715
 31
0.0
  0
LINE
  5
38
330
17
100
AcDbEntity
  8
FoilLayer
100
AcDbLine
 10
475.5302334070021
 20
0.8085242557276715
 30
0.0
 11
474.33949768493056
 21
1.2201366040981227
 31
0.0
  0
LINE
  5
39
330
17
100
AcDbEntity
  8
FoilLayer
100
AcDbLine
 10
474.33949768493056
 20
1.2201366040981227
 30
0.0
 11
472.9062046861405
 21
1.712601378041341
 31
0.0
  0
LINE
  5
3A
330
17
100
AcDbEntity
  8
FoilLayer
100
AcDbLine
 10
472.9062046861405
 20
1.712601378041341
 30
0.0
 11
471.2450548516454
 21
2.2712181365440958
 31
0.0
  0
LINE
  5
3B
330
17
100
AcDbEntity
  8
FoilLayer
100
AcDbLine
 10
471.2450548516454
 20
2.2712181365440958
 30
0.0
 11
469.34869796093875
 21
2.9033371001130033
 31
0.0
  0
LINE
  5
3C
330
17
100
AcDbEntity
  8
FoilLayer
100
AcDbLine
 10
469.34869796093875
 20
2.9033371001130033
 30
0.0
 11
467.2318344550336
 21
3.608958268748062
 31
0.0
  0
LINE
  5
3D
330
17
100
AcDbEntity
  8
FoilLayer
100
AcDbLine
 10
467.2318344550336
 20
3.608958268748062
 30
0.0
 11
464.8944643339299
 21
4.366030980929427
 31
0.0
  0
LINE
  5
3E
330
17
100
AcDbEntity
  8
FoilLayer
100
AcDbLine
 10
464.8944643339299
 20
4.366030980929427
 30
0.0
 11
462.3365875976279
 21
5.18925567767033
 31
0.0
  0
LINE
  5
3F
330
17
100
AcDbEntity
  8
FoilLayer
100
AcDbLine
 10
462.3365875976279
 20
5.18925567767033
 30
0.0
 11
459.55820424612733
 21
6.063931917957536
 31
0.0
  0
LINE
  5
40
330
17
100
AcDbEntity
  8
FoilLayer
100
AcDbLine
 10
459.55820424612733
 20
6.063931917957536
 30
0.0
 11
456.56666449993503
 21
6.990059701791052
 31
0.0
  0
LINE
  5
41
330
17
100
AcDbEntity
  8
FoilLayer
100
AcDbLine
 10
456.56666449993503
 20
6.990059701791052
 30
0.0
 11
453.354618138544
 21
7.974989249677489
 31
0.0
  0
LINE
  5
42
330
17
100
AcDbEntity
  8
FoilLayer
100
AcDbLine
 10
453.354618138544
 20
7.974989249677489
 30
0.0
 11
449.936765602968
 21
9.011370341110233
 31
0.0
  0
LINE
  5
43
330
17
100
AcDbEntity
  8
FoilLayer
100
AcDbLine
 10
449.936765602968
 20
9.011370341110233
 30
0.0
 11
446.3131068932068
 21
10.091852755582666
 31
0.0
  0
LINE
  5
44
330
17
100
AcDbEntity
  8
FoilLayer
100
AcDbLine
 10
446.3131068932068
 20
10.091852755582666
 30
0.0
 11
442.4836420092602
 21
11.223786713601406
 31
0.0
  0
LINE
  5
45
330
17
100
AcDbEntity
  8
FoilLayer
100
AcDbLine
 10
442.4836420092602
 20
11.223786713601406
 30
0.0
 11
438.4483709511284
 21
12.399821994659836
 31
0.0
  0
LINE
  5
46
330
17
100
AcDbEntity
  8
FoilLayer
100
AcDbLine
 10
438.4483709511284
 20
12.399821994659836
 30
0.0
 11
434.2072937188115
 21
13.619958598757961
 31
0.0
  0
LINE
  5
47
330
17
100
AcDbEntity
  8
FoilLayer
100
AcDbLine
 10
434.2072937188115
 20
13.619958598757961
 30
0.0
 11
429.767760532816
 21
14.884196525895774
 31
0.0
  0
LINE
  5
48
330
17
100
AcDbEntity
  8
FoilLayer
100
AcDbLine
 10
429.767760532816
 20
14.884196525895774
 30
0.0
 11
425.12977139314165
 21
16.20723621708651
 31
0.0
  0
LINE
  5
49
330
17
100
AcDbEntity
  8
FoilLayer
100
AcDbLine
 10
425.12977139314165
 20
16.20723621708651
 30
0.0
 11
420.30067652029555
 21
17.574377231316937
 31
0.0
  0
LINE
  5
4A
330
17
100
AcDbEntity
  8
FoilLayer
100
AcDbLine
 10
420.30067652029555
 20
17.574377231316937
 30
0.0
 11
415.2951763552906
 21
19.000320009600284
 31
0.0
  0
LINE
  5
4B
330
17
100
AcDbEntity
  8
FoilLayer
100
AcDbLine
 10
415.2951763552906
 20
19.000320009600284
 30
0.0
 11
410.1132708981269
 21
20.46301389041671
 31
0.0
  0
LINE
  5
4C
330
17
100
AcDbEntity
  8
FoilLayer
100
AcDbLine
 10
410.1132708981269
 20
20.46301389041671
 30
0.0
 11
404.7476099282979
 21
21.97715931477944
 31
0.0
  0
LINE
  5
4D
330
17
100
AcDbEntity
  8
FoilLayer
100
AcDbLine
 10
404.7476099282979
 20
21.97715931477944
 30
0.0
 11
399.22024410732314
 21
23.535406062181863
 31
0.0
  0
LINE
  5
4E
330
17
100
AcDbEntity
  8
FoilLayer
100
AcDbLine
 10
399.22024410732314
 20
23.535406062181863
 30
0.0
 11
393.531173435203
 21
25.145104353130588
 31
0.0
  0
LINE
  5
4F
330
17
100
AcDbEntity
  8
FoilLayer
100
AcDbLine
 10
393.531173435203
 20
25.145104353130588
 30
0.0
 11
387.69509835295065
 21
26.79155374661239
 31
0.0
  0
LINE
  5
50
330
17
100
AcDbEntity
  8
FoilLayer
100
AcDbLine
 10
387.69509835295065
 20
26.79155374661239
 30
0.0
 11
381.7120188605658
 21
28.48210446313389
 31
0.0
  0
LINE
  5
51
330
17
100
AcDbEntity
  8
FoilLayer
100
AcDbLine
 10
381.7120188605658
 20
28.48210446313389
 30
0.0
 11
375.58193495804863
 21
30.202056061681844
 31
0.0
  0
LINE
  5
52
330
17
100
AcDbEntity
  8
FoilLayer
100
AcDbLine
 10
375.58193495804863
 20
30.202056061681844
 30
0.0
 11
369.3048466453993
 21
31.958758762762876
 31
0.0
  0
LINE
  5
53
330
17
100
AcDbEntity
  8
FoilLayer
100
AcDbLine
 10
369.3048466453993
 20
31.958758762762876
 30
0.0
 11
362.9028045841375
 21
33.75221256637698
 31
0.0
  0
LINE
  5
54
330
17
100
AcDbEntity
  8
FoilLayer
100
AcDbLine
 10
362.9028045841375
 20
33.75221256637698
 30
0.0
 11
356.38315899476976
 21
35.58241747252416
 31
0.0
  0
LINE
  5
55
330
17
100
AcDbEntity
  8
FoilLayer
100
AcDbLine
 10
356.38315899476976
 20
35.58241747252416
 30
0.0
 11
349.753260097803
 21
37.4346730401912
 31
0.0
  0
LINE
  5
56
330
17
100
AcDbEntity
  8
FoilLayer
100
AcDbLine
 10
349.753260097803
 20
37.4346730401912
 30
0.0
 11
343.0057576727301
 21
39.30162904887146
 31
0.0
  0
LINE
  5
57
330
17
100
AcDbEntity
  8
FoilLayer
100
AcDbLine
 10
343.0057576727301
 20
39.30162904887146
 30
0.0
 11
336.1480019400581
 21
41.190635719071565
 31
0.0
  0
LINE
  5
58
330
17
100
AcDbEntity
  8
FoilLayer
100
AcDbLine
 10
336.1480019400581
 20
41.190635719071565
 30
0.0
 11
329.18734312029363
 21
43.10169305079151
 31
0.0
  0
LINE
  5
59
330
17
100
AcDbEntity
  8
FoilLayer
100
AcDbLine
 10
329.18734312029363
 20
43.10169305079151
 30
0.0
 11
322.13848165444966
 21
45.03480104403131
 31
0.0
  0
LINE
  5
5A
330
17
100
AcDbEntity
  8
FoilLayer
100
AcDbLine
 10
322.13848165444966
 20
45.03480104403131
 30
0.0
 11
315.00876776303284
 21
46.982609478284346
 31
0.0
  0
LINE
  5
5B
330
17
100
AcDbEntity
  8
FoilLayer
100
AcDbLine
 10
315.00876776303284
 20
46.982609478284346
 30
0.0
 11
307.8055516665499
 21
48.91571747152414
 31
0.0
  0
LINE
  5
5C
330
17
100
AcDbEntity
  8
FoilLayer
100
AcDbLine
 10
307.8055516665499
 20
48.91571747152414
 30
0.0
 11
300.5214831444943
 21
50.848825464763934
 31
0.0
  0
LINE
  5
5D
330
17
100
AcDbEntity
  8
FoilLayer
100
AcDbLine
 10
300.5214831444943
 20
50.848825464763934
 30
0.0
 11
293.99999999999994
 21
52.56055207853841
 31
0.0
  0
LINE
  5
5E
330
17
100
AcDbEntity
  8
FoilLayer
100
AcDbLine
 10
293.99999999999994
 20
52.56055207853841
 30
0.0
 11
293.4922489008267
 21
50.62607829445956
 31
0.0
  0
LINE
  5
5F
330
17
100
AcDbEntity
  8
FoilLayer
100
AcDbLine
 10
293.4922489008267
 20
50.62607829445956
 30
0.0
 11
292.6561683667059
 21
50.84554351412935
 31
0.0
  0
LINE
  5
60
330
17
100
AcDbEntity
  8
FoilLayer
100
AcDbLine
 10
292.6561683667059
 20
50.84554351412935
 30
0.0
 11
285.2397085015397
 21
52.762088747760444
 31
0.0
  0
LINE
  5
61
330
17
100
AcDbEntity
  8
FoilLayer
100
AcDbLine
 10
285.2397085015397
 20
52.762088747760444
 30
0.0
 11
277.76613385668446
 21
54.66354081372579
 31
0.0
  0
LINE
  5
62
330
17
100
AcDbEntity
  8
FoilLayer
100
AcDbLine
 10
277.76613385668446
 20
54.66354081372579
 30
0.0
 11
270.23451518247765
 21
56.54280086403697
 31
0.0
  0
LINE
  5
63
330
17
100
AcDbEntity
  8
FoilLayer
100
AcDbLine
 10
270.23451518247765
 20
56.54280086403697
 30
0.0
 11
262.62755560285945
 21
58.4005018768494
 31
0.0
  0
LINE
  5
64
330
17
100
AcDbEntity
  8
FoilLayer
100
AcDbLine
 10
262.62755560285945
 20
58.4005018768494
 30
0.0
 11
254.97290993529083
 21
60.23703413591917
 31
0.0
  0
LINE
  5
65
330
17
100
AcDbEntity
  8
FoilLayer
100
AcDbLine
 10
254.97290993529083
 20
60.23703413591917
 30
0.0
 11
247.27990864164724
 21
62.064883283484654
 31
0.0
  0
LINE
  5
66
330
17
100
AcDbEntity
  8
FoilLayer
100
AcDbLine
 10
247.27990864164724
 20
62.064883283484654
 30
0.0
 11
239.5665959819314
 21
63.85564218904575
 31
0.0
  0
LINE
  5
67
330
17
100
AcDbEntity
  8
FoilLayer
100
AcDbLine
 10
239.5665959819314
 20
63.85564218904575
 30
0.0
 11
231.83336267916923
 21
65.60190811468732
 31
0.0
  0
LINE
  5
68
330
17
100
AcDbEntity
  8
FoilLayer
100
AcDbLine
 10
231.83336267916923
 20
65.60190811468732
 30
0.0
 11
224.07635270056699
 21
67.29564836389093
 31
0.0
  0
LINE
  5
69
330
17
100
AcDbEntity
  8
FoilLayer
100
AcDbLine
 10
224.07635270056699
 20
67.29564836389093
 30
0.0
 11
216.2775825555034
 21
68.91708558275802
 31
0.0
  0
LINE
  5
6A
330
17
100
AcDbEntity
  8
FoilLayer
100
AcDbLine
 10
216.2775825555034
 20
68.91708558275802
 30
0.0
 11
208.43359248366312
 21
70.48739865504187
 31
0.0
  0
LINE
  5
6B
330
17
100
AcDbEntity
  8
FoilLayer
100
AcDbLine
 10
208.43359248366312
 20
70.48739865504187
 30
0.0
 11
200.5699516969907
 21
72.00591001256498
 31
0.0
  0
LINE
  5
6C
330
17
100
AcDbEntity
  8
FoilLayer
100
AcDbLine
 10
200.5699516969907
 20
72.00591001256498
 30
0.0
 11
192.670316332379
 21
73.46561743636352
 31
0.0
  0
LINE
  5
6D
330
17
100
AcDbEntity
  8
FoilLayer
100
AcDbLine
 10
192.670316332379
 20
73.46561743636352
 30
0.0
 11
184.75658602901683
 21
74.8592149932671
 31
0.0
  0
LINE
  5
6E
330
17
100
AcDbEntity
  8
FoilLayer
100
AcDbLine
 10
184.75658602901683
 20
74.8592149932671
 30
0.0
 11
176.8131221028287
 21
76.18686664138241
 31
0.0
  0
LINE
  5
6F
330
17
100
AcDbEntity
  8
FoilLayer
100
AcDbLine
 10
176.8131221028287
 20
76.18686664138241
 30
0.0
 11
168.84784831993426
 21
77.44847717981133
 31
0.0
  0
LINE
  5
70
330
17
100
AcDbEntity
  8
FoilLayer
100
AcDbLine
 10
168.84784831993426
 20
77.44847717981133
 30
0.0
 11
160.85261377800936
 21
78.64416514376613
 31
0.0
  0
LINE
  5
71
330
17
100
AcDbEntity
  8
FoilLayer
100
AcDbLine
 10
160.85261377800936
 20
78.64416514376613
 30
0.0
 11
152.8424402717415
 21
79.77387305912991
 31
0.0
  0
LINE
  5
72
330
17
100
AcDbEntity
  8
FoilLayer
100
AcDbLine
 10
152.8424402717415
 20
79.77387305912991
 30
0.0
 11
144.8251618536815
 21
80.83753433000625
 31
0.0
  0
LINE
  5
73
330
17
100
AcDbEntity
  8
FoilLayer
100
AcDbLine
 10
144.8251618536815
 20
80.83753433000625
 30
0.0
 11
136.79296677967818
 21
81.83520816072303
 31
0.0
  0
LINE
  5
74
330
17
100
AcDbEntity
  8
FoilLayer
100
AcDbLine
 10
136.79296677967818
 20
81.83520816072303
 30
0.0
 11
128.7570231850525
 21
82.7664813261233
 31
0.0
  0
LINE
  5
75
330
17
100
AcDbEntity
  8
FoilLayer
100
AcDbLine
 10
128.7570231850525
 20
82.7664813261233
 30
0.0
 11
120.71016369044395
 21
83.61744761952284
 31
0.0
  0
LINE
  5
76
330
17
100
AcDbEntity
  8
FoilLayer
100
AcDbLine
 10
120.71016369044395
 20
83.61744761952284
 30
0.0
 11
112.65400318638314
 21
84.40257213666283
 31
0.0
  0
LINE
  5
77
330
17
100
AcDbEntity
  8
FoilLayer
100
AcDbLine
 10
112.65400318638314
 20
84.40257213666283
 30
0.0
 11
104.6013310764161
 21
85.12871348280314
 31
0.0
  0
LINE
  5
78
330
17
100
AcDbEntity
  8
FoilLayer
100
AcDbLine
 10
104.6013310764161
 20
85.12871348280314
 30
0.0
 11
96.55246029084918
 21
85.78177298230226
 31
0.0
  0
LINE
  5
79
330
17
100
AcDbEntity
  8
FoilLayer
100
AcDbLine
 10
96.55246029084918
 20
85.78177298230226
 30
0.0
 11
88.5143824080792
 21
86.37590749280001
 31
0.0
  0
LINE
  5
7A
330
17
100
AcDbEntity
  8
FoilLayer
100
AcDbLine
 10
88.5143824080792
 20
86.37590749280001
 30
0.0
 11
80.49858616578246
 21
86.8966856493988
 31
0.0
  0
LINE
  5
7B
330
17
100
AcDbEntity
  8
FoilLayer
100
AcDbLine
 10
80.49858616578246
 20
86.8966856493988
 30
0.0
 11
72.49758386510717
 21
87.34411988898276
 31
0.0
  0
LINE
  5
7C
330
17
100
AcDbEntity
  8
FoilLayer
100
AcDbLine
 10
72.49758386510717
 20
87.34411988898276
 30
0.0
 11
64.50946481967048
 21
87.7182855087187
 31
0.0
  0
LINE
  5
7D
330
17
100
AcDbEntity
  8
FoilLayer
100
AcDbLine
 10
64.50946481967048
 20
87.7182855087187
 30
0.0
 11
56.54344582156256
 21
88.02643031049712
 31
0.0
  0
LINE
  5
7E
330
17
100
AcDbEntity
  8
FoilLayer
100
AcDbLine
 10
56.54344582156256
 20
88.02643031049712
 30
0.0
 11
48.606878473430754
 21
88.26855536170416
 31
0.0
  0
LINE
  5
7F
330
17
100
AcDbEntity
  8
FoilLayer
100
AcDbLine
 10
48.606878473430754
 20
88.26855536170416
 30
0.0
 11
40.71652259745986
 21
88.44463386796588
 31
0.0
  0
LINE
  5
80
330
17
100
AcDbEntity
  8
FoilLayer
100
AcDbLine
 10
40.71652259745986
 20
88.44463386796588
 30
0.0
 11
32.8556987534032
 21
88.54738050095767
 31
0.0
  0
LINE
  5
81
330
17
100
AcDbEntity
  8
FoilLayer
100
AcDbLine
 10
32.8556987534032
 20
88.54738050095767
 30
0.0
 11
25.041050720649082
 21
88.57681074730685
 31
0.0
  0
LINE
  5
82
330
17
100
AcDbEntity
  8
FoilLayer
100
AcDbLine
 10
25.041050720649082
 20
88.57681074730685
 30
0.0
 11
17.25034038261157
 21
88.5255174980462
 31
0.0
  0
LINE
  5
83
330
17
100
AcDbEntity
  8
FoilLayer
100
AcDbLine
 10
17.25034038261157
 20
88.5255174980462
 30
0.0
 11
9.503983860062135
 21
88.41554392953142
 31
0.0
  0
LINE
  5
84
330
17
100
AcDbEntity
  8
FoilLayer
100
AcDbLine
 10
9.503983860062135
 20
88.41554392953142
 30
0.0
 11
1.8204389432555672
 21
88.24701153132311
 31
0.0
  0
LINE
  5
85
330
17
100
AcDbEntity
  8
FoilLayer
100
AcDbLine
 10
1.8204389432555672
 20
88.24701153132311
 30
0.0
 11
-5.813102557644328
 21
88.00510755615166
 31
0.0
  0
LINE
  5
86
330
17
100
AcDbEntity
  8
FoilLayer
100
AcDbLine
 10
-5.813102557644328
 20
88.00510755615166
 30
0.0
 11
-13.369209434715941
 21
87.69741434271305
 31
0.0
  0
LINE
  5
87
330
17
100
AcDbEntity
  8
FoilLayer
100
AcDbLine
 10
-13.369209434715941
 20
87.69741434271305
 30
0.0
 11
-20.877391834432473
 21
87.30889267012337
 31
0.0
  0
LINE
  5
88
330
17
100
AcDbEntity
  8
FoilLayer
100
AcDbLine
 10
-20.877391834432473
 20
87.30889267012337
 30
0.0
 11
-28.32651164595194
 21
86.85440840150385
 31
0.0
  0
LINE
  5
89
330
17
100
AcDbEntity
  8
FoilLayer
100
AcDbLine
 10
-28.32651164595194
 20
86.85440840150385
 30
0.0
 11
-35.71807853834173
 21
86.33384903045557
 31
0.0
  0
LINE
  5
8A
330
17
100
AcDbEntity
  8
FoilLayer
100
AcDbLine
 10
-35.71807853834173
 20
86.33384903045557
 30
0.0
 11
-43.02826393367846
 21
85.75468833990377
 31
0.0
  0
LINE
  5
8B
330
17
100
AcDbEntity
  8
FoilLayer
100
AcDbLine
 10
-43.02826393367846
 20
85.75468833990377
 30
0.0
 11
-50.24599761164197
 21
85.11730808726163
 31
0.0
  0
LINE
  5
8C
330
17
100
AcDbEntity
  8
FoilLayer
100
AcDbLine
 10
-50.24599761164197
 20
85.11730808726163
 30
0.0
 11
-57.38063729332083
 21
84.40692633928165
 31
0.0
  0
LINE
  5
8D
330
17
100
AcDbEntity
  8
FoilLayer
100
AcDbLine
 10
-57.38063729332083
 20
84.40692633928165
 30
0.0
 11
-64.44726501083403
 21
83.61532136637463
 31
0.0
  0
LINE
  5
8E
330
17
100
AcDbEntity
  8
FoilLayer
100
AcDbLine
 10
-64.44726501083403
 20
83.61532136637463
 30
0.0
 11
-71.43239272267712
 21
82.76518409315162
 31
0.0
  0
LINE
  5
8F
330
17
100
AcDbEntity
  8
FoilLayer
100
AcDbLine
 10
-71.43239272267712
 20
82.76518409315162
 30
0.0
 11
-78.32889018339074
 21
81.85650352925576
 31
0.0
  0
LINE
  5
90
330
17
100
AcDbEntity
  8
FoilLayer
100
AcDbLine
 10
-78.32889018339074
 20
81.85650352925576
 30
0.0
 11
-85.13821672926969
 21
80.8890715251245
 31
0.0
  0
LINE
  5
91
330
17
100
AcDbEntity
  8
FoilLayer
100
AcDbLine
 10
-85.13821672926969
 20
80.8890715251245
 30
0.0
 11
-91.83951723200516
 21
79.87121093879757
 31
0.0
  0
LINE
  5
92
330
17
100
AcDbEntity
  8
FoilLayer
100
AcDbLine
 10
-91.83951723200516
 20
79.87121093879757
 30
0.0
 11
-98.43066197500582
 21
78.78748466341048
 31
0.0
  0
LINE
  5
93
330
17
100
AcDbEntity
  8
FoilLayer
100
AcDbLine
 10
-98.43066197500582
 20
78.78748466341048
 30
0.0
 11
-104.92787091374706
 21
77.63760343823822
 31
0.0
  0
LINE
  5
94
330
17
100
AcDbEntity
  8
FoilLayer
100
AcDbLine
 10
-104.92787091374706
 20
77.63760343823822
 30
0.0
 11
-111.32811866792298
 21
76.42946884097582
 31
0.0
  0
LINE
  5
95
330
17
100
AcDbEntity
  8
FoilLayer
100
AcDbLine
 10
-111.32811866792298
 20
76.42946884097582
 30
0.0
 11
-117.61966488610665
 21
75.16250266497306
 31
0.0
  0
LINE
  5
96
330
17
100
AcDbEntity
  8
FoilLayer
100
AcDbLine
 10
-117.61966488610665
 20
75.16250266497306
 30
0.0
 11
-123.80205831213715
 21
73.84410305117629
 31
0.0
  0
LINE
  5
97
330
17
100
AcDbEntity
  8
FoilLayer
100
AcDbLine
 10
-123.80205831213715
 20
73.84410305117629
 30
0.0
 11
-129.8628265137425
 21
72.48279776434892
 31
0.0
  0
LINE
  5
98
330
17
100
AcDbEntity
  8
FoilLayer
100
AcDbLine
 10
-129.8628265137425
 20
72.48279776434892
 30
0.0
 11
-135.7875450694977
 21
71.07133416752981
 31
0.0
  0
LINE
  5
99
330
17
100
AcDbEntity
  8
FoilLayer
100
AcDbLine
 10
-135.7875450694977
 20
71.07133416752981
 30
0.0
 11
-141.6029270035079
 21
69.59393187040695
 31
0.0
  0
LINE
  5
9A
330
17
100
AcDbEntity
  8
FoilLayer
100
AcDbLine
 10
-141.6029270035079
 20
69.59393187040695
 30
0.0
 11
-147.30220709478232
 21
68.0577369702222
 31
0.0
  0
LINE
  5
9B
330
17
100
AcDbEntity
  8
FoilLayer
100
AcDbLine
 10
-147.30220709478232
 20
68.0577369702222
 30
0.0
 11
-152.88874620256428
 21
66.46903721237159
 31
0.0
  0
LINE
  5
9C
330
17
100
AcDbEntity
  8
FoilLayer
100
AcDbLine
 10
-152.88874620256428
 20
66.46903721237159
 30
0.0
 11
-158.33570640815884
 21
64.85346647463166
 31
0.0
  0
LINE
  5
9D
330
17
100
AcDbEntity
  8
FoilLayer
100
AcDbLine
 10
-158.33570640815884
 20
64.85346647463166
 30
0.0
 11
-163.65758365634986
 21
63.186969203704386
 31
0.0
  0
LINE
  5
9E
330
17
100
AcDbEntity
  8
FoilLayer
100
AcDbLine
 10
-163.65758365634986
 20
63.186969203704386
 30
0.0
 11
-168.8403709371512
 21
61.4766687450859
 31
0.0
  0
LINE
  5
9F
330
17
100
AcDbEntity
  8
FoilLayer
100
AcDbLine
 10
-168.8403709371512
 20
61.4766687450859
 30
0.0
 11
-173.89544728866883
 21
59.72375474650647
 31
0.0
  0
LINE
  5
A0
330
17
100
AcDbEntity
  8
FoilLayer
100
AcDbLine
 10
-173.89544728866883
 20
59.72375474650647
 30
0.0
 11
-178.81405505295368
 21
57.926107825524085
 31
0.0
  0
LINE
  5
A1
330
17
100
AcDbEntity
  8
FoilLayer
100
AcDbLine
 10
-178.81405505295368
 20
57.926107825524085
 30
0.0
 11
-183.6072291307563
 21
56.0923861840403
 31
0.0
  0
LINE
  5
A2
330
17
100
AcDbEntity
  8
FoilLayer
100
AcDbLine
 10
-183.6072291307563
 20
56.0923861840403
 30
0.0
 11
-188.25849421871877
 21
54.23071867619409
 31
0.0
  0
LINE
  5
A3
330
17
100
AcDbEntity
  8
FoilLayer
100
AcDbLine
 10
-188.25849421871877
 20
54.23071867619409
 30
0.0
 11
-192.7613904601074
 21
52.34085689964614
 31
0.0
  0
LINE
  5
A4
330
17
100
AcDbEntity
  8
FoilLayer
100
AcDbLine
 10
-192.7613904601074
 20
52.34085689964614
 30
0.0
 11
-197.11327147746456
 21
50.42412787631009
 31
0.0
  0
LINE
  5
A5
330
17
100
AcDbEntity
  8
FoilLayer
100
AcDbLine
 10
-197.11327147746456
 20
50.42412787631009
 30
0.0
 11
-201.3231150185108
 21
48.469105525067704
 31
0.0
  0
LINE
  5
A6
330
17
100
AcDbEntity
  8
FoilLayer
100
AcDbLine
 10
-201.3231150185108
 20
48.469105525067704
 30
0.0
 11
-205.3893307647437
 21
46.49472454804436
 31
0.0
  0
LINE
  5
A7
330
17
100
AcDbEntity
  8
FoilLayer
100
AcDbLine
 10
-205.3893307647437
 20
46.49472454804436
 30
0.0
 11
-209.3195713454756
 21
44.48985460665468
 31
0.0
  0
LINE
  5
A8
330
17
100
AcDbEntity
  8
FoilLayer
100
AcDbLine
 10
-209.3195713454756
 20
44.48985460665468
 30
0.0
 11
-213.08843181793748
 21
42.482282940342174
 31
0.0
  0
LINE
  5
A9
330
17
100
AcDbEntity
  8
FoilLayer
100
AcDbLine
 10
-213.08843181793748
 20
42.482282940342174
 30
0.0
 11
-216.70758471315804
 21
40.45104387653505
 31
0.0
  0
LINE
  5
AA
330
17
100
AcDbEntity
  8
FoilLayer
100
AcDbLine
 10
-216.70758471315804
 20
40.45104387653505
 30
0.0
 11
-220.1538879701515
 21
38.42759818293468
 31
0.0
  0
LINE
  5
AB
330
17
100
AcDbEntity
  8
FoilLayer
100
AcDbLine
 10
-220.1538879701515
 20
38.42759818293468
 30
0.0
 11
-223.4475075972308
 21
36.37530936242466
 31
0.0
  0
LINE
  5
AC
330
17
100
AcDbEntity
  8
FoilLayer
100
AcDbLine
 10
-223.4475075972308
 20
36.37530936242466
 30
0.0
 11
-226.58285098920854
 21
34.307550923125376
 31
0.0
  0
LINE
  5
AD
330
17
100
AcDbEntity
  8
FoilLayer
100
AcDbLine
 10
-226.58285098920854
 20
34.307550923125376
 30
0.0
 11
-229.5810125336712
 21
32.22472723892245
 31
0.0
  0
LINE
  5
AE
330
17
100
AcDbEntity
  8
FoilLayer
100
AcDbLine
 10
-229.5810125336712
 20
32.22472723892245
 30
0.0
 11
-232.41856301510992
 21
30.15539917443628
 31
0.0
  0
LINE
  5
AF
330
17
100
AcDbEntity
  8
FoilLayer
100
AcDbLine
 10
-232.41856301510992
 20
30.15539917443628
 30
0.0
 11
-235.0866046473849
 21
28.095723449870647
 31
0.0
  0
LINE
  5
B0
330
17
100
AcDbEntity
  8
FoilLayer
100
AcDbLine
 10
-235.0866046473849
 20
28.095723449870647
 30
0.0
 11
-237.5829073033489
 21
26.054273843184152
 31
0.0
  0
LINE
  5
B1
330
17
100
AcDbEntity
  8
FoilLayer
100
AcDbLine
 10
-237.5829073033489
 20
26.054273843184152
 30
0.0
 11
-239.91263981105573
 21
24.00660335497349
 31
0.0
  0
LINE
  5
B2
330
17
100
AcDbEntity
  8
FoilLayer
100
AcDbLine
 10
-239.91263981105573
 20
24.00660335497349
 30
0.0
 11
-242.08586807254812
 21
21.957161229172655
 31
0.0
  0
LINE
  5
B3
330
17
100
AcDbEntity
  8
FoilLayer
100
AcDbLine
 10
-242.08586807254812
 20
21.957161229172655
 30
0.0
 11
-244.09988990355635
 21
19.930765578705653
 31
0.0
  0
LINE
  5
B4
330
17
100
AcDbEntity
  8
FoilLayer
100
AcDbLine
 10
-244.09988990355635
 20
19.930765578705653
 30
0.0
 11
-245.95724087481798
 21
17.917440800978504
 31
0.0
  0
LINE
  5
B5
330
17
100
AcDbEntity
  8
FoilLayer
100
AcDbLine
 10
-245.95724087481798
 20
17.917440800978504
 30
0.0
 11
-247.65012579604874
 21
15.95018713801899
 31
0.0
  0
LINE
  5
B6
330
17
100
AcDbEntity
  8
FoilLayer
100
AcDbLine
 10
-247.65012579604874
 20
15.95018713801899
 30
0.0
 11
-249.17803089040967
 21
14.006084456814039
 31
0.0
  0
LINE
  5
B7
330
17
100
AcDbEntity
  8
FoilLayer
100
AcDbLine
 10
-249.17803089040967
 20
14.006084456814039
 30
0.0
 11
-250.53253416944415
 21
12.119804210986782
 31
0.0
  0
LINE
  5
B8
330
17
100
AcDbEntity
  8
FoilLayer
100
AcDbLine
 10
-250.53253416944415
 20
12.119804210986782
 30
0.0
 11
-251.71341911546236
 21
10.28863958673606
 31
0.0
  0
LINE
  5
B9
330
17
100
AcDbEntity
  8
FoilLayer
100
AcDbLine
 10
-251.71341911546236
 20
10.28863958673606
 30
0.0
 11
-252.73295118419935
 21
8.479840646256228
 31
0.0
  0
LINE
  5
BA
330
17
100
AcDbEntity
  8
FoilLayer
100
AcDbLine
 10
-252.73295118419935
 20
8.479840646256228
 30
0.0
 11
-253.55442160613183
 21
6.812601115844233
 31
0.0
  0
LINE
  5
BB
330
17
100
AcDbEntity
  8
FoilLayer
100
AcDbLine
 10
-253.55442160613183
 20
6.812601115844233
 30
0.0
 11
-254.256260473769
 21
5.0016751485891735
 31
0.0
  0
LINE
  5
BC
330
17
100
AcDbEntity
  8
FoilLayer
100
AcDbLine
 10
-254.256260473769
 20
5.0016751485891735
 30
0.0
 11
-254.73499147133646
 21
3.6708707287819604
 31
0.0
  0
LINE
  5
BD
330
17
100
AcDbEntity
  8
FoilLayer
100
AcDbLine
 10
-254.73499147133646
 20
3.6708707287819604
 30
0.0
 11
-255.07528772757314
 21
1.9562875978746754
 31
0.0
  0
LINE
  5
BE
330
17
100
AcDbEntity
  8
FoilLayer
100
AcDbLine
 10
-255.07528772757314
 20
1.9562875978746754
 30
0.0
 11
-255.24999999999994
 21
0.2205066151984559
 31
0.0
  0
LINE
  5
BF
330
17
100
AcDbEntity
  8
FoilLayer
100
AcDbLine
 10
-255.24999999999994
 20
0.2205066151984559
 30
0.0
 11
-255.25629726003103
 21
-0.16366596757299248
 31
0.0
  0
LINE
  5
C0
330
17
100
AcDbEntity
  8
FoilLayer
100
AcDbLine
 10
-255.25629726003103
 20
-0.16366596757299248
 30
0.0
 11
-255.1124275781559
 21
-1.7201132737196576
 31
0.0
  0
LINE
  5
C1
330
17
100
AcDbEntity
  8
FoilLayer
100
AcDbLine
 10
-255.1124275781559
 20
-1.7201132737196576
 30
0.0
 11
-254.77560067243923
 21
-2.8287442070059328
 31
0.0
  0
LINE
  5
C2
330
17
100
AcDbEntity
  8
FoilLayer
100
AcDbLine
 10
-254.77560067243923
 20
-2.8287442070059328
 30
0.0
 11
-254.26600086769486
 21
-3.903312688409887
 31
0.0
  0
LINE
  5
C3
330
17
100
AcDbEntity
  8
FoilLayer
100
AcDbLine
 10
-254.26600086769486
 20
-3.903312688409887
 30
0.0
 11
-253.5227006507529
 21
-4.9902307037204245
 31
0.0
  0
LINE
  5
C4
330
17
100
AcDbEntity
  8
FoilLayer
100
AcDbLine
 10
-253.5227006507529
 20
-4.9902307037204245
 30
0.0
 11
-252.60054743427324
 21
-6.045109280692161
 31
0.0
  0
LINE
  5
C5
330
17
100
AcDbEntity
  8
FoilLayer
100
AcDbLine
 10
-252.60054743427324
 20
-6.045109280692161
 30
0.0
 11
-251.46123695499173
 21
-7.069989491716759
 31
0.0
  0
LINE
  5
C6
330
17
100
AcDbEntity
  8
FoilLayer
100
AcDbLine
 10
-251.46123695499173
 20
-7.069989491716759
 30
0.0
 11
-250.12131884871891
 21
-8.042933344444117
 31
0.0
  0
LINE
  5
C7
330
17
100
AcDbEntity
  8
FoilLayer
100
AcDbLine
 10
-250.12131884871891
 20
-8.042933344444117
 30
0.0
 11
-248.53949312795547
 21
-8.963056982382538
 31
0.0
  0
LINE
  5
C8
330
17
100
AcDbEntity
  8
FoilLayer
100
AcDbLine
 10
-248.53949312795547
 20
-8.963056982382538
 30
0.0
 11
-246.6610859089138
 21
-9.843335690751786
 31
0.0
  0
LINE
  5
C9
330
17
100
AcDbEntity
  8
FoilLayer
100
AcDbLine
 10
-246.6610859089138
 20
-9.843335690751786
 30
0.0
 11
-244.506792080571
 21
-10.702772078586944
 31
0.0
  0
LINE
  5
CA
330
17
100
AcDbEntity
  8
FoilLayer
100
AcDbLine
 10
-244.506792080571
 20
-10.702772078586944
 30
0.0
 11
-242.1064605481745
 21
-11.542226018970156
 31
0.0
  0
LINE
  5
CB
330
17
100
AcDbEntity
  8
FoilLayer
100
AcDbLine
 10
-242.1064605481745
 20
-11.542226018970156
 30
0.0
 11
-239.53515871205053
 21
-12.349008565510617
 31
0.0
  0
LINE
  5
CC
330
17
100
AcDbEntity
  8
FoilLayer
100
AcDbLine
 10
-239.53515871205053
 20
-12.349008565510617
 30
0.0
 11
-236.74609280750917
 21
-13.094407949280189
 31
0.0
  0
LINE
  5
CD
330
17
100
AcDbEntity
  8
FoilLayer
100
AcDbLine
 10
-236.74609280750917
 20
-13.094407949280189
 30
0.0
 11
-233.720315065838
 21
-13.774001067126465
 31
0.0
  0
LINE
  5
CE
330
17
100
AcDbEntity
  8
FoilLayer
100
AcDbLine
 10
-233.720315065838
 20
-13.774001067126465
 30
0.0
 11
-230.45249125855906
 21
-14.413458984522837
 31
0.0
  0
LINE
  5
CF
330
17
100
AcDbEntity
  8
FoilLayer
100
AcDbLine
 10
-230.45249125855906
 20
-14.413458984522837
 30
0.0
 11
-226.95317891056615
 21
-15.024906091036167
 31
0.0
  0
LINE
  5
D0
330
17
100
AcDbEntity
  8
FoilLayer
100
AcDbLine
 10
-226.95317891056615
 20
-15.024906091036167
 30
0.0
 11
-223.2745901589715
 21
-15.598692696404694
 31
0.0
  0
LINE
  5
D1
330
17
100
AcDbEntity
  8
FoilLayer
100
AcDbLine
 10
-223.2745901589715
 20
-15.598692696404694
 30
0.0
 11
-219.39370648406629
 21
-16.107920934673466
 31
0.0
  0
LINE
  5
D2
330
17
100
AcDbEntity
  8
FoilLayer
100
AcDbLine
 10
-219.39370648406629
 20
-16.107920934673466
 30
0.0
 11
-215.2973225325507
 21
-16.55284747903732
 31
0.0
  0
LINE
  5
D3
330
17
100
AcDbEntity
  8
FoilLayer
100
AcDbLine
 10
-215.2973225325507
 20
-16.55284747903732
 30
0.0
 11
-210.95976133539935
 21
-16.947948981571816
 31
0.0
  0
LINE
  5
D4
330
17
100
AcDbEntity
  8
FoilLayer
100
AcDbLine
 10
-210.95976133539935
 20
-16.947948981571816
 30
0.0
 11
-206.406560017157
 21
-17.31404955189041
 31
0.0
  0
LINE
  5
D5
330
17
100
AcDbEntity
  8
FoilLayer
100
AcDbLine
 10
-206.406560017157
 20
-17.31404955189041
 30
0.0
 11
-201.66935961106913
 21
-17.65049907369556
 31
0.0
  0
LINE
  5
D6
330
17
100
AcDbEntity
  8
FoilLayer
100
AcDbLine
 10
-201.66935961106913
 20
-17.65049907369556
 30
0.0
 11
-196.7628649466097
 21
-17.935521958664314
 31
0.0
  0
LINE
  5
D7
330
17
100
AcDbEntity
  8
FoilLayer
100
AcDbLine
 10
-196.7628649466097
 20
-17.935521958664314
 30
0.0
 11
-191.6547722277737
 21
-18.14787458184268
 31
0.0
  0
LINE
  5
D8
330
17
100
AcDbEntity
  8
FoilLayer
100
AcDbLine
 10
-191.6547722277737
 20
-18.14787458184268
 30
0.0
 11
-186.34414950126984
 21
-18.30910821173102
 31
0.0
  0
LINE
  5
D9
330
17
100
AcDbEntity
  8
FoilLayer
100
AcDbLine
 10
-186.34414950126984
 20
-18.30910821173102
 30
0.0
 11
-180.8063025399345
 21
-18.426500040090946
 31
0.0
  0
LINE
  5
DA
330
17
100
AcDbEntity
  8
FoilLayer
100
AcDbLine
 10
-180.8063025399345
 20
-18.426500040090946
 30
0.0
 11
-175.09883278114594
 21
-18.514504203998627
 31
0.0
  0
LINE
  5
DB
330
17
100
AcDbEntity
  8
FoilLayer
100
AcDbLine
 10
-175.09883278114594
 20
-18.514504203998627
 30
0.0
 11
-169.21632264487414
 21
-18.551229727502736
 31
0.0
  0
LINE
  5
DC
330
17
100
AcDbEntity
  8
FoilLayer
100
AcDbLine
 10
-169.21632264487414
 20
-18.551229727502736
 30
0.0
 11
-163.1635658118978
 21
-18.529332152321487
 31
0.0
  0
LINE
  5
DD
330
17
100
AcDbEntity
  8
FoilLayer
100
AcDbLine
 10
-163.1635658118978
 20
-18.529332152321487
 30
0.0
 11
-156.9043961695616
 21
-18.448643945996295
 31
0.0
  0
LINE
  5
DE
330
17
100
AcDbEntity
  8
FoilLayer
100
AcDbLine
 10
-156.9043961695616
 20
-18.448643945996295
 30
0.0
 11
-150.44182419213223
 21
-18.33115054357043
 31
0.0
  0
LINE
  5
DF
330
17
100
AcDbEntity
  8
FoilLayer
100
AcDbLine
 10
-150.44182419213223
 20
-18.33115054357043
 30
0.0
 11
-143.79976937427767
 21
-18.191728584169226
 31
0.0
  0
LINE
  5
E0
330
17
100
AcDbEntity
  8
FoilLayer
100
AcDbLine
 10
-143.79976937427767
 20
-18.191728584169226
 30
0.0
 11
-137.01648425489952
 21
-18.01579128879101
 31
0.0
  0
LINE
  5
E1
330
17
100
AcDbEntity
  8
FoilLayer
100
AcDbLine
 10
-137.01648425489952
 20
-18.01579128879101
 30
0.0
 11
-130.0665726124596
 21
-17.78097631996334
 31
0.0
  0
LINE
  5
E2
330
17
100
AcDbEntity
  8
FoilLayer
100
AcDbLine
 10
-130.0665726124596
 20
-17.78097631996334
 30
0.0
 11
-122.94692412256819
 21
-17.502087646996703
 31
0.0
  0
LINE
  5
E3
330
17
100
AcDbEntity
  8
FoilLayer
100
AcDbLine
 10
-122.94692412256819
 20
-17.502087646996703
 30
0.0
 11
-115.63342125062783
 21
-17.178676465000752
 31
0.0
  0
LINE
  5
E4
330
17
100
AcDbEntity
  8
FoilLayer
100
AcDbLine
 10
-115.63342125062783
 20
-17.178676465000752
 30
0.0
 11
-108.15706334577746
 21
-16.848198667149628
 31
0.0
  0
LINE
  5
E5
330
17
100
AcDbEntity
  8
FoilLayer
100
AcDbLine
 10
-108.15706334577746
 20
-16.848198667149628
 30
0.0
 11
-100.55007850839138
 21
-16.48842427887884
 31
0.0
  0
LINE
  5
E6
330
17
100
AcDbEntity
  8
FoilLayer
100
AcDbLine
 10
-100.55007850839138
 20
-16.48842427887884
 30
0.0
 11
-92.81391961664292
 21
-16.092104814227252
 31
0.0
  0
LINE
  5
E7
330
17
100
AcDbEntity
  8
FoilLayer
100
AcDbLine
 10
-92.81391961664292
 20
-16.092104814227252
 30
0.0
 11
-84.91934664528179
 21
-15.64414570803849
 31
0.0
  0
LINE
  5
E8
330
17
100
AcDbEntity
  8
FoilLayer
100
AcDbLine
 10
-84.91934664528179
 20
-15.64414570803849
 30
0.0
 11
-76.86125273053813
 21
-15.158896802008613
 31
0.0
  0
LINE
  5
E9
330
17
100
AcDbEntity
  8
FoilLayer
100
AcDbLine
 10
-76.86125273053813
 20
-15.158896802008613
 30
0.0
 11
-73.61796793199417
 21
-14.967261352855612
 31
0.0
  0
LINE
  5
EA
330
17
100
AcDbEntity
  8
FoilLayer
100
AcDbLine
 10
-73.61796793199417
 20
-14.967261352855612
 30
0.0
 11
-73.49999999999997
 21
-16.96377921328687
 31
0.0
  0
LINE
  5
EB
330
17
100
AcDbEntity
  8
FoilLayer
100
AcDbLine
 10
-73.49999999999997
 20
-16.96377921328687
 30
0.0
 11
-68.53308849265474
 21
-16.670300109003264
 31
0.0
  0
LINE
  5
EC
330
17
100
AcDbEntity
  8
FoilLayer
100
AcDbLine
 10
-68.53308849265474
 20
-16.670300109003264
 30
0.0
 11
-60.21263887916635
 21
-16.170485114553433
 31
0.0
  0
LINE
  5
ED
330
17
100
AcDbEntity
  8
FoilLayer
100
AcDbLine
 10
-60.21263887916635
 20
-16.170485114553433
 30
0.0
 11
-51.78193595807869
 21
-15.64126923807714
 31
0.0
  0
LINE
  5
EE
330
17
100
AcDbEntity
  8
FoilLayer
100
AcDbLine
 10
-51.78193595807869
 20
-15.64126923807714
 30
0.0
 11
-43.22627928837858
 21
-15.060601818054536
 31
0.0
  0
LINE
  5
EF
330
17
100
AcDbEntity
  8
FoilLayer
100
AcDbLine
 10
-43.22627928837858
 20
-15.060601818054536
 30
0.0
 11
-34.53831864955944
 21
-14.465233957018707
 31
0.0
  0
LINE
  5
F0
330
17
100
AcDbEntity
  8
FoilLayer
100
AcDbLine
 10
-34.53831864955944
 20
-14.465233957018707
 30
0.0
 11
-25.725404262127824
 21
-13.869866095982877
 31
0.0
  0
LINE
  5
F1
330
17
100
AcDbEntity
  8
FoilLayer
100
AcDbLine
 10
-25.725404262127824
 20
-13.869866095982877
 30
0.0
 11
-16.816937008110216
 21
-13.28184845545366
 31
0.0
  0
LINE
  5
F2
330
17
100
AcDbEntity
  8
FoilLayer
100
AcDbLine
 10
-16.816937008110216
 20
-13.28184845545366
 30
0.0
 11
-7.827617328519807
 21
-12.657079712391369
 31
0.0
  0
LINE
  5
F3
330
17
100
AcDbEntity
  8
FoilLayer
100
AcDbLine
 10
-7.827617328519807
 20
-12.657079712391369
 30
0.0
 11
1.2572552176565637
 21
-12.010260307809233
 31
0.0
  0
LINE
  5
F4
330
17
100
AcDbEntity
  8
FoilLayer
100
AcDbLine
 10
1.2572552176565637
 20
-12.010260307809233
 30
0.0
 11
10.445030850925548
 21
-11.35609068272048
 31
0.0
  0
LINE
  5
F5
330
17
100
AcDbEntity
  8
FoilLayer
100
AcDbLine
 10
10.445030850925548
 20
-11.35609068272048
 30
0.0
 11
19.721009130273956
 21
-10.701921057631727
 31
0.0
  0
LINE
  5
F6
330
17
100
AcDbEntity
  8
FoilLayer
100
AcDbLine
 10
19.721009130273956
 20
-10.701921057631727
 30
0.0
 11
29.070489614688483
 21
-10.062451873556206
 31
0.0
  0
LINE
  5
F7
330
17
100
AcDbEntity
  8
FoilLayer
100
AcDbLine
 10
29.070489614688483
 20
-10.062451873556206
 30
0.0
 11
38.464071422142695
 21
-9.408282248467453
 31
0.0
  0
LINE
  5
F8
330
17
100
AcDbEntity
  8
FoilLayer
100
AcDbLine
 10
38.464071422142695
 20
-9.408282248467453
 30
0.0
 11
47.92380521415646
 21
-8.732061961858854
 31
0.0
  0
LINE
  5
F9
330
17
100
AcDbEntity
  8
FoilLayer
100
AcDbLine
 10
47.92380521415646
 20
-8.732061961858854
 30
0.0
 11
57.457041211236344
 21
-8.055841675250257
 31
0.0
  0
LINE
  5
FA
330
17
100
AcDbEntity
  8
FoilLayer
100
AcDbLine
 10
57.457041211236344
 20
-8.055841675250257
 30
0.0
 11
67.04907897236922
 21
-7.3943218296548885
 31
0.0
  0
LINE
  5
FB
330
17
100
AcDbEntity
  8
FoilLayer
100
AcDbLine
 10
67.04907897236922
 20
-7.3943218296548885
 30
0.0
 11
76.67051761552852
 21
-6.747502425072752
 31
0.0
  0
LINE
  5
FC
330
17
100
AcDbEntity
  8
FoilLayer
100
AcDbLine
 10
76.67051761552852
 20
-6.747502425072752
 30
0.0
 11
86.31400692020759
 21
-6.093332799983998
 31
0.0
  0
LINE
  5
FD
330
17
100
AcDbEntity
  8
FoilLayer
100
AcDbLine
 10
86.31400692020759
 20
-6.093332799983998
 30
0.0
 11
95.97954688640664
 21
-5.43181295438863
 31
0.0
  0
LINE
  5
FE
330
17
100
AcDbEntity
  8
FoilLayer
100
AcDbLine
 10
95.97954688640664
 20
-5.43181295438863
 30
0.0
 11
105.69653839615188
 21
-4.770293108793262
 31
0.0
  0
LINE
  5
FF
330
17
100
AcDbEntity
  8
FoilLayer
100
AcDbLine
 10
105.69653839615188
 20
-4.770293108793262
 30
0.0
 11
115.43558056741705
 21
-4.13082392471774
 31
0.0
  0
LINE
  5
100
330
17
100
AcDbEntity
  8
FoilLayer
100
AcDbLine
 10
115.43558056741705
 20
-4.13082392471774
 30
0.0
 11
125.1672725181756
 21
-3.5207556226686796
 31
0.0
  0
LINE
  5
101
330
17
100
AcDbEntity
  8
FoilLayer
100
AcDbLine
 10
125.1672725181756
 20
-3.5207556226686796
 30
0.0
 11
134.88426402792078
 21
-2.910687320619618
 31
0.0
  0
LINE
  5
102
330
17
100
AcDbEntity
  8
FoilLayer
100
AcDbLine
 10
134.88426402792078
 20
-2.910687320619618
 30
0.0
 11
144.5939053171595
 21
-2.2859185775573265
 31
0.0
  0
LINE
  5
103
330
17
100
AcDbEntity
  8
FoilLayer
100
AcDbLine
 10
144.5939053171595
 20
-2.2859185775573265
 30
0.0
 11
154.3108968269048
 21
-1.675850275508265
 31
0.0
  0
LINE
  5
104
330
17
100
AcDbEntity
  8
FoilLayer
100
AcDbLine
 10
154.3108968269048
 20
-1.675850275508265
 30
0.0
 11
164.01318789563686
 21
-1.0951828554856644
 31
0.0
  0
LINE
  5
105
330
17
100
AcDbEntity
  8
FoilLayer
100
AcDbLine
 10
164.01318789563686
 20
-1.0951828554856644
 30
0.0
 11
173.67872786183585
 21
-0.5292158764762941
 31
0.0
  0
LINE
  5
106
330
17
100
AcDbEntity
  8
FoilLayer
100
AcDbLine
 10
173.67872786183585
 20
-0.5292158764762941
 30
0.0
 11
183.28546606398197
 21
0.029400882026460785
 31
0.0
  0
LINE
  5
107
330
17
100
AcDbEntity
  8
FoilLayer
100
AcDbLine
 10
183.28546606398197
 20
0.029400882026460785
 30
0.0
 11
192.86280338410154
 21
0.595367861035831
 31
0.0
  0
LINE
  5
108
330
17
100
AcDbEntity
  8
FoilLayer
100
AcDbLine
 10
192.86280338410154
 20
0.595367861035831
 30
0.0
 11
202.4107398221946
 21
1.1466343990319707
 31
0.0
  0
LINE
  5
109
330
17
100
AcDbEntity
  8
FoilLayer
100
AcDbLine
 10
202.4107398221946
 20
1.1466343990319707
 30
0.0
 11
211.91457493724806
 21
1.6685000550016498
 31
0.0
  0
LINE
  5
10A
330
17
100
AcDbEntity
  8
FoilLayer
100
AcDbLine
 10
211.91457493724806
 20
1.6685000550016498
 30
0.0
 11
221.33755762672877
 21
2.168315049451483
 31
0.0
  0
LINE
  5
10B
330
17
100
AcDbEntity
  8
FoilLayer
100
AcDbLine
 10
221.33755762672877
 20
2.168315049451483
 30
0.0
 11
230.68703811114335
 21
2.6681300439013165
 31
0.0
  0
LINE
  5
10C
330
17
100
AcDbEntity
  8
FoilLayer
100
AcDbLine
 10
230.68703811114335
 20
2.6681300439013165
 30
0.0
 11
239.9777168315049
 21
3.175295258857765
 31
0.0
  0
LINE
  5
10D
330
17
100
AcDbEntity
  8
FoilLayer
100
AcDbLine
 10
239.9777168315049
 20
3.175295258857765
 30
0.0
 11
249.20959378781362
 21
3.6530595917877533
 31
0.0
  0
LINE
  5
10E
330
17
100
AcDbEntity
  8
FoilLayer
100
AcDbLine
 10
249.20959378781362
 20
3.6530595917877533
 30
0.0
 11
258.3679685390562
 21
4.094072822184665
 31
0.0
  0
LINE
  5
10F
330
17
100
AcDbEntity
  8
FoilLayer
100
AcDbLine
 10
258.3679685390562
 20
4.094072822184665
 30
0.0
 11
267.4234402032061
 21
4.513035391061732
 31
0.0
  0
LINE
  5
110
330
17
100
AcDbEntity
  8
FoilLayer
100
AcDbLine
 10
267.4234402032061
 20
4.513035391061732
 30
0.0
 11
276.37600878026336
 21
4.931997959938798
 31
0.0
  0
LINE
  5
111
330
17
100
AcDbEntity
  8
FoilLayer
100
AcDbLine
 10
276.37600878026336
 20
4.931997959938798
 30
0.0
 11
285.2477249317479
 21
5.336260087802633
 31
0.0
  0
LINE
  5
112
330
17
100
AcDbEntity
  8
FoilLayer
100
AcDbLine
 10
285.2477249317479
 20
5.336260087802633
 30
0.0
 11
294.03123843715304
 21
5.703771113133394
 31
0.0
  0
LINE
  5
113
330
17
100
AcDbEntity
  8
FoilLayer
100
AcDbLine
 10
294.03123843715304
 20
5.703771113133394
 30
0.0
 11
302.70449863495907
 21
6.019830594917846
 31
0.0
  0
LINE
  5
114
330
17
100
AcDbEntity
  8
FoilLayer
100
AcDbLine
 10
302.70449863495907
 20
6.019830594917846
 30
0.0
 11
311.2528050841525
 21
6.299138974169224
 31
0.0
  0
LINE
  5
115
330
17
100
AcDbEntity
  8
FoilLayer
100
AcDbLine
 10
311.2528050841525
 20
6.299138974169224
 30
0.0
 11
319.6614573437202
 21
6.56374691240737
 31
0.0
  0
LINE
  5
116
330
17
100
AcDbEntity
  8
FoilLayer
100
AcDbLine
 10
319.6614573437202
 20
6.56374691240737
 30
0.0
 11
327.9598562956888
 21
6.7916037481124425
 31
0.0
  0
LINE
  5
117
330
17
100
AcDbEntity
  8
FoilLayer
100
AcDbLine
 10
327.9598562956888
 20
6.7916037481124425
 30
0.0
 11
336.12595127853837
 21
6.960658819764592
 31
0.0
  0
LINE
  5
118
330
17
100
AcDbEntity
  8
FoilLayer
100
AcDbLine
 10
336.12595127853837
 20
6.960658819764592
 30
0.0
 11
344.13034141024224
 21
7.070912127363821
 31
0.0
  0
LINE
  5
119
330
17
100
AcDbEntity
  8
FoilLayer
100
AcDbLine
 10
344.13034141024224
 20
7.070912127363821
 30
0.0
 11
351.95097602928087
 21
7.144414332429971
 31
0.0
  0
LINE
  5
11A
330
17
100
AcDbEntity
  8
FoilLayer
100
AcDbLine
 10
351.95097602928087
 20
7.144414332429971
 30
0.0
 11
359.6099057971739
 21
7.195865875976278
 31
0.0
  0
LINE
  5
11B
330
17
100
AcDbEntity
  8
FoilLayer
100
AcDbLine
 10
359.6099057971739
 20
7.195865875976278
 30
0.0
 11
367.1071307139213
 21
7.203216096482892
 31
0.0
  0
LINE
  5
11C
330
17
100
AcDbEntity
  8
FoilLayer
100
AcDbLine
 10
367.1071307139213
 20
7.203216096482892
 30
0.0
 11
374.4206001180035
 21
7.151764552936585
 31
0.0
  0
LINE
  5
11D
330
17
100
AcDbEntity
  8
FoilLayer
100
AcDbLine
 10
374.4206001180035
 20
7.151764552936585
 30
0.0
 11
381.52826334790046
 21
7.056211686350589
 31
0.0
  0
LINE
  5
11E
330
17
100
AcDbEntity
  8
FoilLayer
100
AcDbLine
 10
381.52826334790046
 20
7.056211686350589
 30
0.0
 11
388.41541996259883
 21
6.93125793773813
 31
0.0
  0
LINE
  5
11F
330
17
100
AcDbEntity
  8
FoilLayer
100
AcDbLine
 10
388.41541996259883
 20
6.93125793773813
 30
0.0
 11
395.1041206236187
 21
6.776903307099211
 31
0.0
  0
LINE
  5
120
330
17
100
AcDbEntity
  8
FoilLayer
100
AcDbLine
 10
395.1041206236187
 20
6.776903307099211
 30
0.0
 11
401.58701511045325
 21
6.585797573927216
 31
0.0
  0
LINE
  5
121
330
17
100
AcDbEntity
  8
FoilLayer
100
AcDbLine
 10
401.58701511045325
 20
6.585797573927216
 30
0.0
 11
407.8420527615828
 21
6.35059051771553
 31
0.0
  0
LINE
  5
122
330
17
100
AcDbEntity
  8
FoilLayer
100
AcDbLine
 10
407.8420527615828
 20
6.35059051771553
 30
0.0
 11
413.854533135994
 21
6.078632358970767
 31
0.0
  0
LINE
  5
123
330
17
100
AcDbEntity
  8
FoilLayer
100
AcDbLine
 10
413.854533135994
 20
6.078632358970767
 30
0.0
 11
419.6244562336869
 21
5.79932397971939
 31
0.0
  0
LINE
  5
124
330
17
100
AcDbEntity
  8
FoilLayer
100
AcDbLine
 10
419.6244562336869
 20
5.79932397971939
 30
0.0
 11
425.16652249567477
 21
5.490614718441552
 31
0.0
  0
LINE
  5
125
330
17
100
AcDbEntity
  8
FoilLayer
100
AcDbLine
 10
425.16652249567477
 20
5.490614718441552
 30
0.0
 11
430.4660314809444
 21
5.152504575137254
 31
0.0
  0
LINE
  5
126
330
17
100
AcDbEntity
  8
FoilLayer
100
AcDbLine
 10
430.4660314809444
 20
5.152504575137254
 30
0.0
 11
435.4935823074691
 21
4.770293108793263
 31
0.0
  0
LINE
  5
127
330
17
100
AcDbEntity
  8
FoilLayer
100
AcDbLine
 10
435.4935823074691
 20
4.770293108793263
 30
0.0
 11
440.2491749752492
 21
4.380731421942658
 31
0.0
  0
LINE
  5
128
330
17
100
AcDbEntity
  8
FoilLayer
100
AcDbLine
 10
440.2491749752492
 20
4.380731421942658
 30
0.0
 11
444.72545926377785
 21
3.9911697350920523
 31
0.0
  0
LINE
  5
129
330
17
100
AcDbEntity
  8
FoilLayer
100
AcDbLine
 10
444.72545926377785
 20
3.9911697350920523
 30
0.0
 11
448.944485834575
 21
3.601608048241447
 31
0.0
  0
LINE
  5
12A
330
17
100
AcDbEntity
  8
FoilLayer
100
AcDbLine
 10
448.944485834575
 20
3.601608048241447
 30
0.0
 11
452.8842040261207
 21
3.204696140884226
 31
0.0
  0
LINE
  5
12B
330
17
100
AcDbEntity
  8
FoilLayer
100
AcDbLine
 10
452.8842040261207
 20
3.204696140884226
 30
0.0
 11
456.54461383841505
 21
2.80043401302039
 31
0.0
  0
LINE
  5
12C
330
17
100
AcDbEntity
  8
FoilLayer
100
AcDbLine
 10
456.54461383841505
 20
2.80043401302039
 30
0.0
 11
459.91836505095154
 21
2.4035221056631695
 31
0.0
  0
LINE
  5
12D
330
17
100
AcDbEntity
  8
FoilLayer
100
AcDbLine
 10
459.91836505095154
 20
2.4035221056631695
 30
0.0
 11
462.9907572227167
 21
2.013960418812564
 31
0.0
  0
LINE
  5
12E
330
17
100
AcDbEntity
  8
FoilLayer
100
AcDbLine
 10
462.9907572227167
 20
2.013960418812564
 30
0.0
 11
465.77649079472377
 21
1.646449393481804
 31
0.0
  0
LINE
  5
12F
330
17
100
AcDbEntity
  8
FoilLayer
100
AcDbLine
 10
465.77649079472377
 20
1.646449393481804
 30
0.0
 11
468.26086532595974
 21
1.3083392501775049
 31
0.0
  0
LINE
  5
130
330
17
100
AcDbEntity
  8
FoilLayer
100
AcDbLine
 10
468.26086532595974
 20
1.3083392501775049
 30
0.0
 11
470.46593147794425
 21
0.9996299888996668
 31
0.0
  0
LINE
  5
131
330
17
100
AcDbEntity
  8
FoilLayer
100
AcDbLine
 10
470.46593147794425
 20
0.9996299888996668
 30
0.0
 11
472.36963858915755
 21
0.7276718301549046
 31
0.0
  0
LINE
  5
132
330
17
100
AcDbEntity
  8
FoilLayer
100
AcDbLine
 10
472.36963858915755
 20
0.7276718301549046
 30
0.0
 11
473.9940373211196
 21
0.49246477394321825
 31
0.0
  0
LINE
  5
133
330
17
100
AcDbEntity
  8
FoilLayer
100
AcDbLine
 10
473.9940373211196
 20
0.49246477394321825
 30
0.0
 11
475.32442723281696
 21
0.29400882026460784
 31
0.0
  0
LINE
  5
134
330
17
100
AcDbEntity
  8
FoilLayer
100
AcDbLine
 10
475.32442723281696
 20
0.29400882026460784
 30
0.0
 11
476.37550876526285
 21
0.13230396911907355
 31
0.0
  0
LINE
  5
135
330
17
100
AcDbEntity
  8
FoilLayer
100
AcDbLine
 10
476.37550876526285
 20
0.13230396911907355
 30
0.0
 11
477.12523125693764
 21
0.014700441013230396
 31
0.0
  0
LINE
  5
136
330
17
100
AcDbEntity
  8
FoilLayer
100
AcDbLine
 10
477.12523125693764
 20
0.014700441013230396
 30
0.0
 11
477.58829514885434
 21
-0.051451543546306384
 31
0.0
  0
LINE
  5
137
330
17
100
AcDbEntity
  8
FoilLayer
100
AcDbLine
 10
477.58829514885434
 20
-0.051451543546306384
 30
0.0
 11
477.74999999999994
 21
-0.08085242557276717
 31
0.0
  0
LINE
  5
138
330
17
100
AcDbEntity
  8
FoilLayer
100
AcDbLine
 10
477.74999999999994
 20
-0.08085242557276717
 30
0.0
 11
477.74999999999994
 21
0.03675110253307599
 31
0.0
  0
LINE
  5
139
330
17
100
AcDbEntity
  8
StringerLayer
100
AcDbLine
 10
253.90537735168772
 20
56.379639423898475
 30
0.0
 11
257.7949943166105
 21
55.44642997999791
 31
0.0
  0
LINE
  5
13A
330
17
100
AcDbEntity
  8
StringerLayer
100
AcDbLine
 10
257.7949943166105
 20
55.44642997999791
 30
0.0
 11
258.72820376051106
 21
59.336046944920646
 31
0.0
  0
LINE
  5
13B
330
17
100
AcDbEntity
  8
StringerLayer
100
AcDbLine
 10
258.72820376051106
 20
59.336046944920646
 30
0.0
 11
254.8385867955883
 21
60.26925638882121
 31
0.0
  0
LINE
  5
13C
330
17
100
AcDbEntity
  8
StringerLayer
100
AcDbLine
 10
254.8385867955883
 20
60.26925638882121
 30
0.0
 11
253.90537735168772
 21
56.379639423898475
 31
0.0
  0
LINE
  5
13D
330
17
100
AcDbEntity
  8
StringerLayer
100
AcDbLine
 10
-74.69898658465516
 20
78.30014995520945
 30
0.0
 11
-70.73326988841194
 21
78.82273113085371
 31
0.0
  0
LINE
  5
13E
330
17
100
AcDbEntity
  8
StringerLayer
100
AcDbLine
 10
-70.73326988841194
 20
78.82273113085371
 30
0.0
 11
-71.25585106405622
 21
82.78844782709693
 31
0.0
  0
LINE
  5
13F
330
17
100
AcDbEntity
  8
StringerLayer
100
AcDbLine
 10
-71.25585106405622
 20
82.78844782709693
 30
0.0
 11
-75.22156776029944
 21
82.26586665145267
 31
0.0
  0
LINE
  5
140
330
17
100
AcDbEntity
  8
StringerLayer
100
AcDbLine
 10
-75.22156776029944
 20
82.26586665145267
 30
0.0
 11
-74.69898658465516
 21
78.30014995520945
 31
0.0
  0
LINE
  5
141
330
17
100
AcDbEntity
  8
StringerLayer
100
AcDbLine
 10
-183.47379602633666
 20
51.86038664007879
 30
0.0
 11
-179.7379240436152
 21
53.28981328342816
 31
0.0
  0
LINE
  5
142
330
17
100
AcDbEntity
  8
StringerLayer
100
AcDbLine
 10
-179.7379240436152
 20
53.28981328342816
 30
0.0
 11
-181.16735068696457
 21
57.02568526614959
 31
0.0
  0
LINE
  5
143
330
17
100
AcDbEntity
  8
StringerLayer
100
AcDbLine
 10
-181.16735068696457
 20
57.02568526614959
 30
0.0
 11
-184.90322266968602
 21
55.596258622800214
 31
0.0
  0
LINE
  5
144
330
17
100
AcDbEntity
  8
StringerLayer
100
AcDbLine
 10
-184.90322266968602
 20
55.596258622800214
 30
0.0
 11
-183.47379602633666
 21
51.86038664007879
 31
0.0
  0
LINE
  5
145
330
17
100
AcDbEntity
  8
StringerLayer
100
AcDbLine
 10
-245.0102972656777
 20
11.21483068470753
 30
0.0
 11
-243.77566885923034
 21
12.788264095434942
 31
0.0
  0
LINE
  5
146
330
17
100
AcDbEntity
  8
StringerLayer
100
AcDbLine
 10
-243.77566885923034
 20
12.788264095434942
 30
0.0
 11
-247.70925238604886
 21
15.874835111553299
 31
0.0
  0
LINE
  5
147
330
17
100
AcDbEntity
  8
StringerLayer
100
AcDbLine
 10
-247.70925238604886
 20
15.874835111553299
 30
0.0
 11
-248.94388079249623
 21
14.301401700825888
 31
0.0
  0
LINE
  5
148
330
17
100
AcDbEntity
  8
StringerLayer
100
AcDbLine
 10
-248.94388079249623
 20
14.301401700825888
 30
0.0
 11
-245.0102972656777
 21
11.21483068470753
 31
0.0
  0
LINE
  5
149
330
17
100
AcDbEntity
  8
StringerLayer
100
AcDbLine
 10
-248.18185638187424
 20
-3.280990517585941
 30
0.0
 11
-249.67807334096926
 21
-1.9538376208493147
 31
0.0
  0
LINE
  5
14A
330
17
100
AcDbEntity
  8
StringerLayer
100
AcDbLine
 10
-249.67807334096926
 20
-1.9538376208493147
 30
0.0
 11
-252.99595558281084
 21
-5.694380018586893
 31
0.0
  0
LINE
  5
14B
330
17
100
AcDbEntity
  8
StringerLayer
100
AcDbLine
 10
-252.99595558281084
 20
-5.694380018586893
 30
0.0
 11
-251.4997386237158
 21
-7.021532915323519
 31
0.0
  0
LINE
  5
14C
330
17
100
AcDbEntity
  8
StringerLayer
100
AcDbLine
 10
-251.4997386237158
 20
-7.021532915323519
 30
0.0
 11
-248.18185638187424
 21
-3.280990517585941
 31
0.0
  0
LINE
  5
14D
330
17
100
AcDbEntity
  8
StringerLayer
100
AcDbLine
 10
-108.51691835622849
 20
-12.860190138042459
 30
0.0
 11
-112.51301602974509
 21
-13.036834933367015
 31
0.0
  0
LINE
  5
14E
330
17
100
AcDbEntity
  8
StringerLayer
100
AcDbLine
 10
-112.51301602974509
 20
-13.036834933367015
 30
0.0
 11
-112.33637123442054
 21
-17.03293260688361
 31
0.0
  0
LINE
  5
14F
330
17
100
AcDbEntity
  8
StringerLayer
100
AcDbLine
 10
-112.33637123442054
 20
-17.03293260688361
 30
0.0
 11
-108.34027356090394
 21
-16.856287811559053
 31
0.0
  0
LINE
  5
150
330
17
100
AcDbEntity
  8
StringerLayer
100
AcDbLine
 10
-108.34027356090394
 20
-16.856287811559053
 30
0.0
 11
-108.51691835622849
 21
-12.860190138042459
 31
0.0
  0
LINE
  5
151
330
17
100
AcDbEntity
  8
SubLayer
100
AcDbLine
 10
-257.24999999999994
 20
0.0
 30
0.0
 11
-253.24999999999994
 21
0.0
 31
0.0
  0
LINE
  5
152
330
17
100
AcDbEntity
  8
SubLayer
100
AcDbLine
 10
71.5
 20
0.0
 30
0.0
 11
82.85000000000002
 21
0.0
 31
0.0
  0
LINE
  5
153
330
17
100
AcDbEntity
  8
SubLayer
100
AcDbLine
 10
-55.091419339427645
 20
37.121432306204944
 30
0.0
 11
-47.09629272327488
 21
37.40062827982495
 31
0.0
  0
LINE
  5
154
330
17
100
AcDbEntity
  8
SubLayer
100
AcDbLine
 10
47.09629272327488
 20
40.68990584403567
 30
0.0
 11
55.091419339427645
 21
40.96910181765568
 31
0.0
  0
LINE
  5
155
330
17
100
AcDbEntity
  8
SubLayer
100
AcDbLine
 10
-1.5626249648544805
 20
83.79299134171032
 30
0.0
 11
-1.2834289912344727
 21
75.79786472555755
 31
0.0
  0
LINE
  5
156
330
17
100
AcDbEntity
  8
SubLayer
100
AcDbLine
 10
1.5626249648544805
 20
-5.702457217849691
 30
0.0
 11
1.2834289912344727
 21
2.292669398303076
 31
0.0
  0
LINE
  5
157
330
17
100
AcDbEntity
  8
SubLayer
100
AcDbLine
 10
-53.022838691984454
 20
35.192449645571756
 30
0.0
 11
-49.025275383908074
 21
35.33204763238176
 31
0.0
  0
LINE
  5
158
330
17
100
AcDbEntity
  8
SubLayer
100
AcDbLine
 10
-49.025275383908074
 20
35.33204763238176
 30
0.0
 11
-49.16487337071808
 21
39.32961094045814
 31
0.0
  0
LINE
  5
159
330
17
100
AcDbEntity
  8
SubLayer
100
AcDbLine
 10
-49.16487337071808
 20
39.32961094045814
 30
0.0
 11
-53.16243667879446
 21
39.190012953648136
 31
0.0
  0
LINE
  5
15A
330
17
100
AcDbEntity
  8
SubLayer
100
AcDbLine
 10
-53.16243667879446
 20
39.190012953648136
 30
0.0
 11
-53.022838691984454
 21
35.192449645571756
 31
0.0
  0
LINE
  5
15B
330
17
100
AcDbEntity
  8
SubLayer
100
AcDbLine
 10
49.16487337071808
 20
38.76092318340248
 30
0.0
 11
53.16243667879446
 21
38.900521170212485
 31
0.0
  0
LINE
  5
15C
330
17
100
AcDbEntity
  8
SubLayer
100
AcDbLine
 10
53.16243667879446
 20
38.900521170212485
 30
0.0
 11
53.022838691984454
 21
42.898084478288865
 31
0.0
  0
LINE
  5
15D
330
17
100
AcDbEntity
  8
SubLayer
100
AcDbLine
 10
53.022838691984454
 20
42.898084478288865
 30
0.0
 11
49.025275383908074
 21
42.75848649147886
 31
0.0
  0
LINE
  5
15E
330
17
100
AcDbEntity
  8
SubLayer
100
AcDbLine
 10
49.025275383908074
 20
42.75848649147886
 30
0.0
 11
49.16487337071808
 21
38.76092318340248
 31
0.0
  0
LINE
  5
15F
330
17
100
AcDbEntity
  8
SubLayer
100
AcDbLine
 10
-3.352009638677666
 20
77.72684738619073
 30
0.0
 11
0.645553669398717
 21
77.86644537300073
 31
0.0
  0
LINE
  5
160
330
17
100
AcDbEntity
  8
SubLayer
100
AcDbLine
 10
0.645553669398717
 20
77.86644537300073
 30
0.0
 11
0.505955682588713
 21
81.86400868107712
 31
0.0
  0
LINE
  5
161
330
17
100
AcDbEntity
  8
SubLayer
100
AcDbLine
 10
0.505955682588713
 20
81.86400868107712
 30
0.0
 11
-3.4916076254876702
 21
81.72441069426712
 31
0.0
  0
LINE
  5
162
330
17
100
AcDbEntity
  8
SubLayer
100
AcDbLine
 10
-3.4916076254876702
 20
81.72441069426712
 30
0.0
 11
-3.352009638677666
 21
77.72684738619073
 31
0.0
  0
LINE
  5
163
330
17
100
AcDbEntity
  8
SubLayer
100
AcDbLine
 10
-0.505955682588713
 20
-3.773474557216501
 30
0.0
 11
3.4916076254876702
 21
-3.633876570406497
 31
0.0
  0
LINE
  5
164
330
17
100
AcDbEntity
  8
SubLayer
100
AcDbLine
 10
3.4916076254876702
 20
-3.633876570406497
 30
0.0
 11
3.352009638677666
 21
0.363686737669886
 31
0.0
  0
LINE
  5
165
330
17
100
AcDbEntity
  8
SubLayer
100
AcDbLine
 10
3.352009638677666
 20
0.363686737669886
 30
0.0
 11
-0.645553669398717
 21
0.2240887508598821
 31
0.0
  0
LINE
  5
166
330
17
100
AcDbEntity
  8
SubLayer
100
AcDbLine
 10
-0.645553669398717
 20
0.2240887508598821
 30
0.0
 11
-0.505955682588713
 21
-3.773474557216501
 31
0.0
  0
LINE
  5
167
330
17
100
AcDbEntity
  8
SubLayer
100
AcDbLine
 10
368.8153672648759
 20
31.466567212718495
 30
0.0
 11
372.8129305729522
 21
31.606165199528498
 31
0.0
  0
LINE
  5
168
330
17
100
AcDbEntity
  8
SubLayer
100
AcDbLine
 10
-253.99474901136645
 20
9.717558705107281
 30
0.0
 11
-249.99718570329006
 21
9.857156691917284
 31
0.0
  0
LINE
  5
169
330
17
100
AcDbEntity
  8
SubLayer
100
AcDbLine
 10
-130.4321165831371
 20
14.032460909927025
 30
0.0
 11
-124.43577162102251
 21
14.241857890142029
 31
0.0
  0
LINE
  5
16A
330
17
100
AcDbEntity
  8
SubLayer
100
AcDbLine
 10
243.2539531826083
 20
27.08186601449375
 30
0.0
 11
249.25029814472288
 21
27.291262994708756
 31
0.0
  0
LINE
  5
16B
330
17
100
AcDbEntity
  8
SubLayer
100
AcDbLine
 10
56.410918299735606
 20
20.557163462210386
 30
0.0
 11
62.40726326185018
 21
20.76656044242539
 31
0.0
  0
LINE
  5
16C
330
17
100
AcDbEntity
  8
SubLayer
100
AcDbLine
 10
-125.3653634546366
 20
12.208176739401322
 30
0.0
 11
-125.5049614414466
 21
16.205740047477722
 31
0.0
  0
LINE
  5
16D
330
17
100
AcDbEntity
  8
SubLayer
100
AcDbLine
 10
-125.5049614414466
 20
16.205740047477722
 30
0.0
 11
-129.502524749523
 21
16.066142060667715
 31
0.0
  0
LINE
  5
16E
330
17
100
AcDbEntity
  8
SubLayer
100
AcDbLine
 10
-129.502524749523
 20
16.066142060667715
 30
0.0
 11
-129.362926762713
 21
12.06857875259132
 31
0.0
  0
LINE
  5
16F
330
17
100
AcDbEntity
  8
SubLayer
100
AcDbLine
 10
-129.362926762713
 20
12.06857875259132
 30
0.0
 11
-125.3653634546366
 21
12.208176739401322
 31
0.0
  0
LINE
  5
170
330
17
100
AcDbEntity
  8
SubLayer
100
AcDbLine
 10
248.32070631110878
 20
25.257581843968065
 30
0.0
 11
248.18110832429878
 21
29.25514515204445
 31
0.0
  0
LINE
  5
171
330
17
100
AcDbEntity
  8
SubLayer
100
AcDbLine
 10
248.18110832429878
 20
29.25514515204445
 30
0.0
 11
244.1835450162224
 21
29.115547165234442
 31
0.0
  0
LINE
  5
172
330
17
100
AcDbEntity
  8
SubLayer
100
AcDbLine
 10
244.1835450162224
 20
29.115547165234442
 30
0.0
 11
244.3231430030324
 21
25.11798385715806
 31
0.0
  0
LINE
  5
173
330
17
100
AcDbEntity
  8
SubLayer
100
AcDbLine
 10
244.3231430030324
 20
25.11798385715806
 30
0.0
 11
248.32070631110878
 21
25.257581843968065
 31
0.0
  0
LINE
  5
174
330
17
100
AcDbEntity
  8
SubLayer
100
AcDbLine
 10
61.477671428236086
 20
18.7328792916847
 30
0.0
 11
61.33807344142608
 21
22.730442599761083
 31
0.0
  0
LINE
  5
175
330
17
100
AcDbEntity
  8
SubLayer
100
AcDbLine
 10
61.33807344142608
 20
22.730442599761083
 30
0.0
 11
57.3405101333497
 21
22.590844612951077
 31
0.0
  0
LINE
  5
176
330
17
100
AcDbEntity
  8
SubLayer
100
AcDbLine
 10
57.3405101333497
 20
22.590844612951077
 30
0.0
 11
57.480108120159706
 21
18.593281304874694
 31
0.0
  0
LINE
  5
177
330
17
100
AcDbEntity
  8
SubLayer
100
AcDbLine
 10
57.480108120159706
 20
18.593281304874694
 30
0.0
 11
61.477671428236086
 21
18.7328792916847
 31
0.0
  0
LINE
  5
178
330
17
100
AcDbEntity
  8
SubLayer
100
AcDbLine
 10
458.61305560218983
 20
5.833232519078914
 30
0.0
 11
458.9284416134762
 21
6.7821959872297395
 31
0.0
  0
LINE
  5
179
330
17
100
AcDbEntity
  8
SubLayer
100
AcDbLine
 10
457.8588130828471
 20
2.142432025101728
 30
0.0
 11
457.99071635904164
 21
3.13369461681451
 31
0.0
  0
LINE
  5
17A
330
17
100
AcDbEntity
  8
SubLayer
100
AcDbLine
 10
439.46087220578426
 20
11.584072398110942
 30
0.0
 11
439.76239244756056
 21
12.537532173769643
 31
0.0
  0
LINE
  5
17B
330
17
100
AcDbEntity
  8
SubLayer
100
AcDbLine
 10
437.9542598047843
 20
4.067314977949498
 30
0.0
 11
438.0683612573592
 21
5.060784080901523
 31
0.0
  0
LINE
  5
17C
330
17
100
AcDbEntity
  8
SubLayer
100
AcDbLine
 10
400.9831909736537
 20
22.518989258210837
 30
0.0
 11
401.27066456629916
 21
23.476777822316457
 31
0.0
  0
LINE
  5
17D
330
17
100
AcDbEntity
  8
SubLayer
100
AcDbLine
 10
397.98864744346133
 20
6.192390911624457
 30
0.0
 11
398.07228063576736
 21
7.188887519317987
 31
0.0
  0
LINE
  5
17E
330
17
100
AcDbEntity
  8
SubLayer
100
AcDbLine
 10
-151.13697934027596
 20
68.98583568828175
 30
0.0
 11
-150.99738135346593
 21
64.98827238020536
 31
0.0
  0
LINE
  5
17F
330
17
100
AcDbEntity
  8
SubLayer
100
AcDbLine
 10
-148.15932625238847
 20
-16.28299232511987
 30
0.0
 11
-148.01972826557844
 21
-20.28055563319625
 31
0.0
  0
LINE
  5
180
330
17
100
AcDbEntity
  8
SubLayer
100
AcDbLine
 10
-148.78975636666846
 20
1.7701641045795484
 30
0.0
 11
-148.58035938645347
 21
-4.2261808575350255
 31
0.0
  0
LINE
  5
181
330
17
100
AcDbEntity
  8
SubLayer
100
AcDbLine
 10
-150.57634821940096
 20
52.93146091262052
 30
0.0
 11
-150.36695123918597
 21
46.935115950505946
 31
0.0
  0
LINE
  5
182
330
17
100
AcDbEntity
  8
SubLayer
100
AcDbLine
 10
-149.6830522930347
 20
27.350812508600036
 30
0.0
 11
-149.47365531281972
 21
21.35446754648546
 31
0.0
  0
LINE
  5
183
330
17
100
AcDbEntity
  8
SubLayer
100
AcDbLine
 10
-150.61404053719414
 20
-3.2965890239209323
 30
0.0
 11
-146.61647722911778
 21
-3.156991037110928
 31
0.0
  0
LINE
  5
184
330
17
100
AcDbEntity
  8
SubLayer
100
AcDbLine
 10
-146.61647722911778
 20
-3.156991037110928
 30
0.0
 11
-146.75607521592778
 21
0.8405722709654548
 31
0.0
  0
LINE
  5
185
330
17
100
AcDbEntity
  8
SubLayer
100
AcDbLine
 10
-146.75607521592778
 20
0.8405722709654548
 30
0.0
 11
-150.75363852400415
 21
0.7009742841554509
 31
0.0
  0
LINE
  5
186
330
17
100
AcDbEntity
  8
SubLayer
100
AcDbLine
 10
-150.75363852400415
 20
0.7009742841554509
 30
0.0
 11
-150.61404053719414
 21
-3.2965890239209323
 31
0.0
  0
LINE
  5
187
330
17
100
AcDbEntity
  8
SubLayer
100
AcDbLine
 10
-152.40063238992664
 20
47.86470778412004
 30
0.0
 11
-148.40306908185028
 21
48.004305770930046
 31
0.0
  0
LINE
  5
188
330
17
100
AcDbEntity
  8
SubLayer
100
AcDbLine
 10
-148.40306908185028
 20
48.004305770930046
 30
0.0
 11
-148.54266706866028
 21
52.001869079006426
 31
0.0
  0
LINE
  5
189
330
17
100
AcDbEntity
  8
SubLayer
100
AcDbLine
 10
-148.54266706866028
 20
52.001869079006426
 30
0.0
 11
-152.54023037673664
 21
51.86227109219642
 31
0.0
  0
LINE
  5
18A
330
17
100
AcDbEntity
  8
SubLayer
100
AcDbLine
 10
-152.54023037673664
 20
51.86227109219642
 30
0.0
 11
-152.40063238992664
 21
47.86470778412004
 31
0.0
  0
LINE
  5
18B
330
17
100
AcDbEntity
  8
SubLayer
100
AcDbLine
 10
-151.5073364635604
 20
22.284059380099553
 30
0.0
 11
-147.50977315548403
 21
22.42365736690956
 31
0.0
  0
LINE
  5
18C
330
17
100
AcDbEntity
  8
SubLayer
100
AcDbLine
 10
-147.50977315548403
 20
22.42365736690956
 30
0.0
 11
-147.64937114229403
 21
26.421220674985943
 31
0.0
  0
LINE
  5
18D
330
17
100
AcDbEntity
  8
SubLayer
100
AcDbLine
 10
-147.64937114229403
 20
26.421220674985943
 30
0.0
 11
-151.6469344503704
 21
26.281622688175936
 31
0.0
  0
LINE
  5
18E
330
17
100
AcDbEntity
  8
SubLayer
100
AcDbLine
 10
-151.6469344503704
 20
26.281622688175936
 30
0.0
 11
-151.5073364635604
 21
22.284059380099553
 31
0.0
  0
LINE
  5
18F
330
17
100
AcDbEntity
  8
SubLayer
100
AcDbLine
 10
198.89071359750645
 20
74.30208643267301
 30
0.0
 11
199.03031158431648
 21
70.30452312459661
 31
0.0
  0
LINE
  5
190
330
17
100
AcDbEntity
  8
SubLayer
100
AcDbLine
 10
201.37750177776556
 20
3.0897902418122047
 30
0.0
 11
201.5170997645756
 21
-0.9077730662641785
 31
0.0
  0
LINE
  5
191
330
17
100
AcDbEntity
  8
SubLayer
100
AcDbLine
 10
200.8452446450113
 20
18.33164030700346
 30
0.0
 11
201.05464162522628
 21
12.335295344888888
 31
0.0
  0
LINE
  5
192
330
17
100
AcDbEntity
  8
SubLayer
100
AcDbLine
 10
199.3531717368558
 20
61.05901802151995
 30
0.0
 11
199.5625687170708
 21
55.06267305940537
 31
0.0
  0
LINE
  5
193
330
17
100
AcDbEntity
  8
SubLayer
100
AcDbLine
 10
200.09920819093352
 20
39.6953291642617
 30
0.0
 11
200.3086051711485
 21
33.69898420214712
 31
0.0
  0
LINE
  5
194
330
17
100
AcDbEntity
  8
SubLayer
100
AcDbLine
 10
199.0209604744856
 20
13.264887178502981
 30
0.0
 11
203.01852378256197
 21
13.404485165312984
 31
0.0
  0
LINE
  5
195
330
17
100
AcDbEntity
  8
SubLayer
100
AcDbLine
 10
203.01852378256197
 20
13.404485165312984
 30
0.0
 11
202.87892579575197
 21
17.402048473389367
 31
0.0
  0
LINE
  5
196
330
17
100
AcDbEntity
  8
SubLayer
100
AcDbLine
 10
202.87892579575197
 20
17.402048473389367
 30
0.0
 11
198.8813624876756
 21
17.26245048657936
 31
0.0
  0
LINE
  5
197
330
17
100
AcDbEntity
  8
SubLayer
100
AcDbLine
 10
198.8813624876756
 20
17.26245048657936
 30
0.0
 11
199.0209604744856
 21
13.264887178502981
 31
0.0
  0
LINE
  5
198
330
17
100
AcDbEntity
  8
SubLayer
100
AcDbLine
 10
197.52888756633013
 20
55.99226489301947
 30
0.0
 11
201.5264508744065
 21
56.13186287982947
 31
0.0
  0
LINE
  5
199
330
17
100
AcDbEntity
  8
SubLayer
100
AcDbLine
 10
201.5264508744065
 20
56.13186287982947
 30
0.0
 11
201.3868528875965
 21
60.12942618790585
 31
0.0
  0
LINE
  5
19A
330
17
100
AcDbEntity
  8
SubLayer
100
AcDbLine
 10
201.3868528875965
 20
60.12942618790585
 30
0.0
 11
197.38928957952012
 21
59.98982820109585
 31
0.0
  0
LINE
  5
19B
330
17
100
AcDbEntity
  8
SubLayer
100
AcDbLine
 10
197.38928957952012
 20
59.98982820109585
 30
0.0
 11
197.52888756633013
 21
55.99226489301947
 31
0.0
  0
LINE
  5
19C
330
17
100
AcDbEntity
  8
SubLayer
100
AcDbLine
 10
198.27492402040784
 20
34.62857603576122
 30
0.0
 11
202.2724873284842
 21
34.76817402257122
 31
0.0
  0
LINE
  5
19D
330
17
100
AcDbEntity
  8
SubLayer
100
AcDbLine
 10
202.2724873284842
 20
34.76817402257122
 30
0.0
 11
202.1328893416742
 21
38.7657373306476
 31
0.0
  0
LINE
  5
19E
330
17
100
AcDbEntity
  8
SubLayer
100
AcDbLine
 10
202.1328893416742
 20
38.7657373306476
 30
0.0
 11
198.13532603359783
 21
38.6261393438376
 31
0.0
  0
LINE
  5
19F
330
17
100
AcDbEntity
  8
SubLayer
100
AcDbLine
 10
198.13532603359783
 20
38.6261393438376
 30
0.0
 11
198.27492402040784
 21
34.62857603576122
 31
0.0
  0
ENDSEC
  0
SECTION
  2
OBJECTS
  0
DICTIONARY
  5
A
330
0
100
AcDbDictionary
280
0
281
1
  3
ACAD_COLOR
350
B
  3
ACAD_GROUP
350
C
  3
ACAD_LAYOUT
350
D
  3
ACAD_MATERIAL
350
E
  3
ACAD_MLEADERSTYLE
350
F
  3
ACAD_MLINESTYLE
350
10
  3
ACAD_PLOTSETTINGS
350
11
  3
ACAD_PLOTSTYLENAME
350
12
  3
ACAD_SCALELIST
350
14
  3
ACAD_TABLESTYLE
350
15
  3
ACAD_VISUALSTYLE
350
16
  3
EZDXF_META
350
2D
  0
DICTIONARY
  5
B
330
A
100
AcDbDictionary
280
0
281
1
  0
DICTIONARY
  5
C
330
A
100
AcDbDictionary
280
0
281
1
  0
DICTIONARY
  5
D
330
A
100
AcDbDictionary
280
0
281
1
  3
Model
350
1A
  3
Layout1
350
1E
  0
DICTIONARY
  5
E
330
A
100
AcDbDictionary
280
0
281
1
  3
ByBlock
350
1F
  3
ByLayer
350
20
  3
Global
350
21
  0
DICTIONARY
  5
F
330
A
100
AcDbDictionary
280
0
281
1
  3
Standard
350
2C
  0
DICTIONARY
  5
10
330
A
100
AcDbDictionary
280
0
281
1
  3
Standard
350
22
  0
DICTIONARY
  5
11
330
A
100
AcDbDictionary
280
0
281
1
  0
ACDBDICTIONARYWDFLT
  5
12
330
A
100
AcDbDictionary
280
0
281
1
  3
Normal
350
13
100
AcDbDictionaryWithDefault
340
13
  0
ACDBPLACEHOLDER
  5
13
330
12
  0
DICTIONARY
  5
14
330
A
100
AcDbDictionary
280
0
281
1
  0
DICTIONARY
  5
15
330
A
100
AcDbDictionary
280
0
281
1
  0
DICTIONARY
  5
16
330
A
100
AcDbDictionary
280
0
281
1
  0
LAYOUT
  5
1A
330
D
100
AcDbPlotSettings
  1

  2
Adobe PDF
  4
A3
  6

 40
7.5
 41
20.0
 42
7.5
 43
20.0
 44
420.0
 45
297.0
 46
0.0
 47
0.0
 48
0.0
 49
0.0
140
0.0
141
0.0
142
1.0
143
1.0
 70
1024
 72
1
 73
0
 74
5
  7

 75
16
 76
0
 77
2
 78
300
147
1.0
148
0.0
149
0.0
100
AcDbLayout
  1
Model
 70
1
 71
0
 10
0.0
 20
0.0
 11
420.0
 21
297.0
 12
0.0
 22
0.0
 32
0.0
 14
1e+20
 24
1e+20
 34
1e+20
 15
-1e+20
 25
-1e+20
 35
-1e+20
146
0.0
 13
0.0
 23
0.0
 33
0.0
 16
1.0
 26
0.0
 36
0.0
 17
0.0
 27
1.0
 37
0.0
 76
1
330
17
  0
LAYOUT
  5
1E
330
D
100
AcDbPlotSettings
  1

  2
Adobe PDF
  4
A3
  6

 40
7.5
 41
20.0
 42
7.5
 43
20.0
 44
420.0
 45
297.0
 46
0.0
 47
0.0
 48
0.0
 49
0.0
140
0.0
141
0.0
142
1.0
143
1.0
 70
0
 72
1
 73
0
 74
5
  7

 75
16
 76
0
 77
2
 78
300
147
1.0
148
0.0
149
0.0
100
AcDbLayout
  1
Layout1
 70
1
 71
1
 10
0.0
 20
0.0
 11
420.0
 21
297.0
 12
0.0
 22
0.0
 32
0.0
 14
1e+20
 24
1e+20
 34
1e+20
 15
-1e+20
 25
-1e+20
 35
-1e+20
146
0.0
 13
0.0
 23
0.0
 33
0.0
 16
1.0
 26
0.0
 36
0.0
 17
0.0
 27
1.0
 37
0.0
 76
1
330
1B
  0
MATERIAL
  5
1F
102
{ACAD_REACTORS
330
E
102
}
330
E
100
AcDbMaterial
  1
ByBlock
  2

 70
0
 40
1.0
 71
1
 41
1.0
 91
-1023410177
 42
1.0
 72
1
  3

 73
1
 74
1
 75
1
 44
0.5
 73
0
 45
1.0
 46
1.0
 77
1
  4

 78
1
 79
1
170
1
 48
1.0
171
1
  6

172
1
173
1
174
1
140
1.0
141
1.0
175
1
  7

176
1
177
1
178
1
143
1.0
179
1
  8

270
1
271
1
272
1
145
1.0
146
1.0
273
1
  9

274
1
275
1
276
1
 42
1.0
 72
1
  3

 73
1
 74
1
 75
1
 94
63
  0
MATERIAL
  5
20
102
{ACAD_REACTORS
330
E
102
}
330
E
100
AcDbMaterial
  1
ByLayer
  2

 70
0
 40
1.0
 71
1
 41
1.0
 91
-1023410177
 42
1.0
 72
1
  3

 73
1
 74
1
 75
1
 44
0.5
 73
0
 45
1.0
 46
1.0
 77
1
  4

 78
1
 79
1
170
1
 48
1.0
171
1
  6

172
1
173
1
174
1
140
1.0
141
1.0
175
1
  7

176
1
177
1
178
1
143
1.0
179
1
  8

270
1
271
1
272
1
145
1.0
146
1.0
273
1
  9

274
1
275
1
276
1
 42
1.0
 72
1
  3

 73
1
 74
1
 75
1
 94
63
  0
MATERIAL
  5
21
102
{ACAD_REACTORS
330
E
102
}
330
E
100
AcDbMaterial
  1
Global
  2

 70
0
 40
1.0
 71
1
 41
1.0
 91
-1023410177
 42
1.0
 72
1
  3

 73
1
 74
1
 75
1
 44
0.5
 73
0
 45
1.0
 46
1.0
 77
1
  4

 78
1
 79
1
170
1
 48
1.0
171
1
  6

172
1
173
1
174
1
140
1.0
141
1.0
175
1
  7

176
1
177
1
178
1
143
1.0
179
1
  8

270
1
271
1
272
1
145
1.0
146
1.0
273
1
  9

274
1
275
1
276
1
 42
1.0
 72
1
  3

 73
1
 74
1
 75
1
 94
63
  0
MLINESTYLE
  5
22
102
{ACAD_REACTORS
330
10
102
}
330
10
100
AcDbMlineStyle
  2
Standard
 70
0
  3

 62
256
 51
90.0
 52
90.0
 71
2
 49
0.5
 62
256
  6
BYLAYER
 49
-0.5
 62
256
  6
BYLAYER
  0
MLEADERSTYLE
  5
2C
102
{ACAD_REACTORS
330
F
102
}
330
F
100
AcDbMLeaderStyle
179
2
170
2
171
1
172
0
 90
2
 40
0.0
 41
0.0
173
1
 91
-1056964608
 92
-2
290
1
 42
2.0
291
1
 43
8.0
  3
Standard
 44
4.0
300

342
29
174
1
175
1
176
0
178
1
 93
-1056964608
 45
4.0
292
0
297
0
 46
4.0
 94
-1056964608
 47
1.0
 49
1.0
140
1.0
294
1
141
0.0
177
0
142
1.0
295
0
296
0
143
3.75
271
0
272
9
273
9
  0
DICTIONARY
  5
2D
330
A
100
AcDbDictionary
281
1
  3
CREATED_BY_EZDXF
350
2E
  3
WRITTEN_BY_EZDXF
350
1A2
  0
DICTIONARYVAR
  5
2E
330
2D
100
DictionaryVariables
280
0
  1
1.0.2 @ 2023-10-20T04:47:15.888049+00:00
  0
DICTIONARYVAR
  5
1A2
330
2D
100
DictionaryVariables
280
0
  1
1.0.2 @ 2023-10-20T04:47:15.897019+00:00
  0
ENDSEC
  0
EOF
