  0
SECTION
  2
HEADER
  9
$ACADVER
  1
AC1027
  9
$ACADMAINTVER
 70
105
  9
$DWGCODEPAGE
  3
ANSI_1252
  9
$LASTSAVEDBY
  1
ezdxf
  9
$REQUIREDVERSIONS
160
0
  9
$INSBASE
 10
0.0
 20
0.0
 30
0.0
  9
$EXTMIN
 10
1e+20
 20
1e+20
 30
1e+20
  9
$EXTMAX
 10
-1e+20
 20
-1e+20
 30
-1e+20
  9
$LIMMIN
 10
0.0
 20
0.0
  9
$LIMMAX
 10
420.0
 20
297.0
  9
$ORTHOMODE
 70
0
  9
$REGENMODE
 70
1
  9
$FILLMODE
 70
1
  9
$QTEXTMODE
 70
0
  9
$MIRRTEXT
 70
1
  9
$LTSCALE
 40
1.0
  9
$ATTMODE
 70
1
  9
$TEXTSIZE
 40
2.5
  9
$TRACEWID
 40
1.0
  9
$TEXTSTYLE
  7
Standard
  9
$CLAYER
  8
0
  9
$CELTYPE
  6
ByLayer
  9
$CECOLOR
 62
256
  9
$CELTSCALE
 40
1.0
  9
$DISPSILH
 70
0
  9
$DIMSCALE
 40
1.0
  9
$DIMASZ
 40
2.5
  9
$DIMEXO
 40
0.625
  9
$DIMDLI
 40
3.75
  9
$DIMRND
 40
0.0
  9
$DIMDLE
 40
0.0
  9
$DIMEXE
 40
1.25
  9
$DIMTP
 40
0.0
  9
$DIMTM
 40
0.0
  9
$DIMTXT
 40
2.5
  9
$DIMCEN
 40
2.5
  9
$DIMTSZ
 40
0.0
  9
$DIMTOL
 70
0
  9
$DIMLIM
 70
0
  9
$DIMTIH
 70
0
  9
$DIMTOH
 70
0
  9
$DIMSE1
 70
0
  9
$DIMSE2
 70
0
  9
$DIMTAD
 70
1
  9
$DIMZIN
 70
8
  9
$DIMBLK
  1

  9
$DIMASO
 70
1
  9
$DIMSHO
 70
1
  9
$DIMPOST
  1

  9
$DIMAPOST
  1

  9
$DIMALT
 70
0
  9
$DIMALTD
 70
3
  9
$DIMALTF
 40
0.03937007874
  9
$DIMLFAC
 40
1.0
  9
$DIMTOFL
 70
1
  9
$DIMTVP
 40
0.0
  9
$DIMTIX
 70
0
  9
$DIMSOXD
 70
0
  9
$DIMSAH
 70
0
  9
$DIMBLK1
  1

  9
$DIMBLK2
  1

  9
$DIMSTYLE
  2
ISO-25
  9
$DIMCLRD
 70
0
  9
$DIMCLRE
 70
0
  9
$DIMCLRT
 70
0
  9
$DIMTFAC
 40
1.0
  9
$DIMGAP
 40
0.625
  9
$DIMJUST
 70
0
  9
$DIMSD1
 70
0
  9
$DIMSD2
 70
0
  9
$DIMTOLJ
 70
0
  9
$DIMTZIN
 70
8
  9
$DIMALTZ
 70
0
  9
$DIMALTTZ
 70
0
  9
$DIMUPT
 70
0
  9
$DIMDEC
 70
2
  9
$DIMTDEC
 70
2
  9
$DIMALTU
 70
2
  9
$DIMALTTD
 70
3
  9
$DIMTXSTY
  7
Standard
  9
$DIMAUNIT
 70
0
  9
$DIMADEC
 70
0
  9
$DIMALTRND
 40
0.0
  9
$DIMAZIN
 70
0
  9
$DIMDSEP
 70
44
  9
$DIMATFIT
 70
3
  9
$DIMFRAC
 70
0
  9
$DIMLDRBLK
  1

  9
$DIMLUNIT
 70
2
  9
$DIMLWD
 70
-2
  9
$DIMLWE
 70
-2
  9
$DIMTMOVE
 70
0
  9
$DIMFXL
 40
1.0
  9
$DIMFXLON
 70
0
  9
$DIMJOGANG
 40
0.785398163397
  9
$DIMTFILL
 70
0
  9
$DIMTFILLCLR
 70
0
  9
$DIMARCSYM
 70
0
  9
$DIMLTYPE
  6

  9
$DIMLTEX1
  6

  9
$DIMLTEX2
  6

  9
$DIMTXTDIRECTION
 70
0
  9
$LUNITS
 70
2
  9
$LUPREC
 70
4
  9
$SKETCHINC
 40
1.0
  9
$FILLETRAD
 40
10.0
  9
$AUNITS
 70
0
  9
$AUPREC
 70
2
  9
$MENU
  1
.
  9
$ELEVATION
 40
0.0
  9
$PELEVATION
 40
0.0
  9
$THICKNESS
 40
0.0
  9
$LIMCHECK
 70
0
  9
$CHAMFERA
 40
0.0
  9
$CHAMFERB
 40
0.0
  9
$CHAMFERC
 40
0.0
  9
$CHAMFERD
 40
0.0
  9
$SKPOLY
 70
0
  9
$TDCREATE
 40
2460238.574479167
  9
$TDUCREATE
 40
2458532.153996898
  9
$TDUPDATE
 40
2460238.574479167
  9
$TDUUPDATE
 40
2458532.1544311
  9
$TDINDWG
 40
0.0
  9
$TDUSRTIMER
 40
0.0
  9
$USRTIMER
 70
1
  9
$ANGBASE
 50
0.0
  9
$ANGDIR
 70
0
  9
$PDMODE
 70
0
  9
$PDSIZE
 40
0.0
  9
$PLINEWID
 40
0.0
  9
$SPLFRAME
 70
0
  9
$SPLINETYPE
 70
6
  9
$SPLINESEGS
 70
8
  9
$HANDSEED
  5
1A2
  9
$SURFTAB1
 70
6
  9
$SURFTAB2
 70
6
  9
$SURFTYPE
 70
6
  9
$SURFU
 70
6
  9
$SURFV
 70
6
  9
$UCSBASE
  2

  9
$UCSNAME
  2

  9
$UCSORG
 10
0.0
 20
0.0
 30
0.0
  9
$UCSXDIR
 10
1.0
 20
0.0
 30
0.0
  9
$UCSYDIR
 10
0.0
 20
1.0
 30
0.0
  9
$UCSORTHOREF
  2

  9
$UCSORTHOVIEW
 70
0
  9
$UCSORGTOP
 10
0.0
 20
0.0
 30
0.0
  9
$UCSORGBOTTOM
 10
0.0
 20
0.0
 30
0.0
  9
$UCSORGLEFT
 10
0.0
 20
0.0
 30
0.0
  9
$UCSORGRIGHT
 10
0.0
 20
0.0
 30
0.0
  9
$UCSORGFRONT
 10
0.0
 20
0.0
 30
0.0
  9
$UCSORGBACK
 10
0.0
 20
0.0
 30
0.0
  9
$PUCSBASE
  2

  9
$PUCSNAME
  2

  9
$PUCSORG
 10
0.0
 20
0.0
 30
0.0
  9
$PUCSXDIR
 10
1.0
 20
0.0
 30
0.0
  9
$PUCSYDIR
 10
0.0
 20
1.0
 30
0.0
  9
$PUCSORTHOREF
  2

  9
$PUCSORTHOVIEW
 70
0
  9
$PUCSORGTOP
 10
0.0
 20
0.0
 30
0.0
  9
$PUCSORGBOTTOM
 10
0.0
 20
0.0
 30
0.0
  9
$PUCSORGLEFT
 10
0.0
 20
0.0
 30
0.0
  9
$PUCSORGRIGHT
 10
0.0
 20
0.0
 30
0.0
  9
$PUCSORGFRONT
 10
0.0
 20
0.0
 30
0.0
  9
$PUCSORGBACK
 10
0.0
 20
0.0
 30
0.0
  9
$USERI1
 70
0
  9
$USERI2
 70
0
  9
$USERI3
 70
0
  9
$USERI4
 70
0
  9
$USERI5
 70
0
  9
$USERR1
 40
0.0
  9
$USERR2
 40
0.0
  9
$USERR3
 40
0.0
  9
$USERR4
 40
0.0
  9
$USERR5
 40
0.0
  9
$WORLDVIEW
 70
1
  9
$SHADEDGE
 70
3
  9
$SHADEDIF
 70
70
  9
$TILEMODE
 70
1
  9
$MAXACTVP
 70
64
  9
$PINSBASE
 10
0.0
 20
0.0
 30
0.0
  9
$PLIMCHECK
 70
0
  9
$PEXTMIN
 10
1e+20
 20
1e+20
 30
1e+20
  9
$PEXTMAX
 10
-1e+20
 20
-1e+20
 30
-1e+20
  9
$PLIMMIN
 10
0.0
 20
0.0
  9
$PLIMMAX
 10
420.0
 20
297.0
  9
$UNITMODE
 70
0
  9
$VISRETAIN
 70
1
  9
$PLINEGEN
 70
0
  9
$PSLTSCALE
 70
1
  9
$TREEDEPTH
 70
3020
  9
$CMLSTYLE
  2
Standard
  9
$CMLJUST
 70
0
  9
$CMLSCALE
 40
20.0
  9
$PROXYGRAPHICS
 70
1
  9
$MEASUREMENT
 70
1
  9
$CELWEIGHT
370
-1
  9
$ENDCAPS
280
0
  9
$JOINSTYLE
280
0
  9
$LWDISPLAY
290
0
  9
$INSUNITS
 70
6
  9
$HYPERLINKBASE
  1

  9
$STYLESHEET
  1

  9
$XEDIT
290
1
  9
$CEPSNTYPE
380
0
  9
$PSTYLEMODE
290
1
  9
$FINGERPRINTGUID
  2
{6D60171C-8B8B-4252-9B85-C084421D3DF3}
  9
$VERSIONGUID
  2
{8AFD949B-C2B0-421E-B6B2-B6F53C0B41CC}
  9
$EXTNAMES
290
1
  9
$PSVPSCALE
 40
0.0
  9
$OLESTARTUP
290
0
  9
$SORTENTS
280
127
  9
$INDEXCTL
280
0
  9
$HIDETEXT
280
1
  9
$XCLIPFRAME
280
0
  9
$HALOGAP
280
0
  9
$OBSCOLOR
 70
257
  9
$OBSLTYPE
280
0
  9
$INTERSECTIONDISPLAY
280
0
  9
$INTERSECTIONCOLOR
 70
257
  9
$DIMASSOC
280
2
  9
$PROJECTNAME
  1

  9
$CAMERADISPLAY
290
0
  9
$LENSLENGTH
 40
50.0
  9
$CAMERAHEIGHT
 40
0.0
  9
$STEPSPERSEC
 40
24.0
  9
$STEPSIZE
 40
100.0
  9
$3DDWFPREC
 40
2.0
  9
$PSOLWIDTH
 40
0.005
  9
$PSOLHEIGHT
 40
0.08
  9
$LOFTANG1
 40
1.570796326795
  9
$LOFTANG2
 40
1.570796326795
  9
$LOFTMAG1
 40
0.0
  9
$LOFTMAG2
 40
0.0
  9
$LOFTPARAM
 70
7
  9
$LOFTNORMALS
280
1
  9
$LATITUDE
 40
37.795
  9
$LONGITUDE
 40
-122.394
  9
$NORTHDIRECTION
 40
0.0
  9
$TIMEZONE
 70
-8000
  9
$LIGHTGLYPHDISPLAY
280
1
  9
$TILEMODELIGHTSYNCH
280
1
  9
$CMATERIAL
347
20
  9
$SOLIDHIST
280
0
  9
$SHOWHIST
280
1
  9
$DWFFRAME
280
2
  9
$DGNFRAME
280
2
  9
$REALWORLDSCALE
290
1
  9
$INTERFERECOLOR
 62
256
  9
$CSHADOW
280
0
  9
$SHADOWPLANELOCATION
 40
0.0
  0
ENDSEC
  0
SECTION
  2
CLASSES
  0
CLASS
  1
ACDBDICTIONARYWDFLT
  2
AcDbDictionaryWithDefault
  3
ObjectDBX Classes
 90
0
 91
0
280
0
281
0
  0
CLASS
  1
SUN
  2
AcDbSun
  3
SCENEOE
 90
1153
 91
0
280
0
281
0
  0
CLASS
  1
VISUALSTYLE
  2
AcDbVisualStyle
  3
ObjectDBX Classes
 90
4095
 91
0
280
0
281
0
  0
CLASS
  1
MATERIAL
  2
AcDbMaterial
  3
ObjectDBX Classes
 90
1153
 91
0
280
0
281
0
  0
CLASS
  1
SCALE
  2
AcDbScale
  3
ObjectDBX Classes
 90
1153
 91
0
280
0
281
0
  0
CLASS
  1
TABLESTYLE
  2
AcDbTableStyle
  3
ObjectDBX Classes
 90
4095
 91
0
280
0
281
0
  0
CLASS
  1
MLEADERSTYLE
  2
AcDbMLeaderStyle
  3
ACDB_MLEADERSTYLE_CLASS
 90
4095
 91
0
280
0
281
0
  0
CLASS
  1
DICTIONARYVAR
  2
AcDbDictionaryVar
  3
ObjectDBX Classes
 90
0
 91
0
280
0
281
0
  0
CLASS
  1
CELLSTYLEMAP
  2
AcDbCellStyleMap
  3
ObjectDBX Classes
 90
1152
 91
0
280
0
281
0
  0
CLASS
  1
MENTALRAYRENDERSETTINGS
  2
AcDbMentalRayRenderSettings
  3
SCENEOE
 90
1024
 91
0
280
0
281
0
  0
CLASS
  1
ACDBDETAILVIEWSTYLE
  2
AcDbDetailViewStyle
  3
ObjectDBX Classes
 90
1025
 91
0
280
0
281
0
  0
CLASS
  1
ACDBSECTIONVIEWSTYLE
  2
AcDbSectionViewStyle
  3
ObjectDBX Classes
 90
1025
 91
0
280
0
281
0
  0
CLASS
  1
RASTERVARIABLES
  2
AcDbRasterVariables
  3
ISM
 90
0
 91
0
280
0
281
0
  0
CLASS
  1
ACDBPLACEHOLDER
  2
AcDbPlaceHolder
  3
ObjectDBX Classes
 90
0
 91
0
280
0
281
0
  0
CLASS
  1
LAYOUT
  2
AcDbLayout
  3
ObjectDBX Classes
 90
0
 91
0
280
0
281
0
  0
ENDSEC
  0
SECTION
  2
TABLES
  0
TABLE
  2
VPORT
  5
8
330
0
100
AcDbSymbolTable
 70
1
  0
VPORT
  5
23
330
8
100
AcDbSymbolTableRecord
100
AcDbViewportTableRecord
  2
*Active
 70
0
 10
0.0
 20
0.0
 11
1.0
 21
1.0
 12
0.0
 22
0.0
 13
0.0
 23
0.0
 14
0.5
 24
0.5
 15
0.5
 25
0.5
 16
0.0
 26
0.0
 36
1.0
 17
0.0
 27
0.0
 37
0.0
 40
1000.0
 41
1.34
 42
50.0
 43
0.0
 44
0.0
 50
0.0
 51
0.0
 71
0
 72
1000
 73
1
 74
3
 75
0
 76
0
 77
0
 78
0
281
0
 65
0
146
0.0
  0
ENDTAB
  0
TABLE
  2
LTYPE
  5
2
330
0
100
AcDbSymbolTable
 70
3
  0
LTYPE
  5
24
330
2
100
AcDbSymbolTableRecord
100
AcDbLinetypeTableRecord
  2
ByBlock
 70
0
  3

 72
65
 73
0
 40
0.0
  0
LTYPE
  5
25
330
2
100
AcDbSymbolTableRecord
100
AcDbLinetypeTableRecord
  2
ByLayer
 70
0
  3

 72
65
 73
0
 40
0.0
  0
LTYPE
  5
26
330
2
100
AcDbSymbolTableRecord
100
AcDbLinetypeTableRecord
  2
Continuous
 70
0
  3

 72
65
 73
0
 40
0.0
  0
ENDTAB
  0
TABLE
  2
LAYER
  5
1
330
0
100
AcDbSymbolTable
 70
5
  0
LAYER
  5
27
330
1
100
AcDbSymbolTableRecord
100
AcDbLayerTableRecord
  2
0
 70
0
 62
7
  6
Continuous
370
-3
390
13
347
21
  0
LAYER
  5
28
330
1
100
AcDbSymbolTableRecord
100
AcDbLayerTableRecord
  2
Defpoints
 70
0
 62
7
  6
Continuous
290
0
370
-3
390
13
347
21
  0
LAYER
  5
30
330
1
100
AcDbSymbolTableRecord
100
AcDbLayerTableRecord
  2
FoilLayer
 70
0
 62
1
  6
Continuous
370
50
390
13
347
21
  0
LAYER
  5
31
330
1
100
AcDbSymbolTableRecord
100
AcDbLayerTableRecord
  2
StringerLayer
 70
0
 62
1
  6
Continuous
370
50
390
13
347
21
  0
LAYER
  5
32
330
1
100
AcDbSymbolTableRecord
100
AcDbLayerTableRecord
  2
SubLayer
 70
0
 62
1
  6
Continuous
370
50
390
13
347
21
  0
ENDTAB
  0
TABLE
  2
STYLE
  5
5
330
0
100
AcDbSymbolTable
 70
2
  0
STYLE
  5
29
330
5
100
AcDbSymbolTableRecord
100
AcDbTextStyleTableRecord
  2
Standard
 70
0
 40
0.0
 41
1.0
 50
0.0
 71
0
 42
2.5
  3
txt
  4

  0
STYLE
  5
2F
330
5
100
AcDbSymbolTableRecord
100
AcDbTextStyleTableRecord
  2
MSゴシック
 70
0
 40
0.0
 41
1.0
 50
0.0
 71
0
 42
2.5
  3
romans
  4

  0
ENDTAB
  0
TABLE
  2
VIEW
  5
7
330
0
100
AcDbSymbolTable
 70
0
  0
ENDTAB
  0
TABLE
  2
UCS
  5
6
330
0
100
AcDbSymbolTable
 70
0
  0
ENDTAB
  0
TABLE
  2
APPID
  5
3
330
0
100
AcDbSymbolTable
 70
3
  0
APPID
  5
2A
330
3
100
AcDbSymbolTableRecord
100
AcDbRegAppTableRecord
  2
ACAD
 70
0
  0
APPID
  5
19F
330
3
100
AcDbSymbolTableRecord
100
AcDbRegAppTableRecord
  2
HATCHBACKGROUNDCOLOR
 70
0
  0
APPID
  5
1A0
330
3
100
AcDbSymbolTableRecord
100
AcDbRegAppTableRecord
  2
EZDXF
 70
0
  0
ENDTAB
  0
TABLE
  2
DIMSTYLE
  5
4
330
0
100
AcDbSymbolTable
 70
1
100
AcDbDimStyleTable
  0
DIMSTYLE
105
2B
330
4
100
AcDbSymbolTableRecord
100
AcDbDimStyleTableRecord
  2
Standard
 70
0
 40
1.0
 41
2.5
 42
0.625
 43
3.75
 44
1.25
 45
0.0
 46
0.0
 47
0.0
 48
0.0
 49
2.5
140
2.5
141
2.5
142
0.0
143
0.03937007874
144
1.0
145
0.0
146
1.0
147
0.625
148
0.0
 69
0
 70
0
 71
0
 72
0
 73
0
 74
0
 75
0
 76
0
 77
1
 78
8
 79
3
170
0
171
3
172
1
173
0
174
0
175
0
176
0
177
0
178
0
179
2
271
2
272
2
273
2
274
3
275
0
276
0
277
2
278
44
279
0
280
0
281
0
282
0
283
0
284
8
285
0
286
0
288
0
289
3
290
0
371
-2
372
-2
  0
ENDTAB
  0
TABLE
  2
BLOCK_RECORD
  5
9
330
0
100
AcDbSymbolTable
 70
2
  0
BLOCK_RECORD
  5
17
330
9
100
AcDbSymbolTableRecord
100
AcDbBlockTableRecord
  2
*Model_Space
340
1A
 70
0
280
1
281
0
  0
BLOCK_RECORD
  5
1B
330
9
100
AcDbSymbolTableRecord
100
AcDbBlockTableRecord
  2
*Paper_Space
340
1E
 70
0
280
1
281
0
  0
ENDTAB
  0
ENDSEC
  0
SECTION
  2
BLOCKS
  0
BLOCK
  5
18
330
17
100
AcDbEntity
  8
0
100
AcDbBlockBegin
  2
*Model_Space
 70
0
 10
0.0
 20
0.0
 30
0.0
  3
*Model_Space
  1

  0
ENDBLK
  5
19
330
17
100
AcDbEntity
  8
0
100
AcDbBlockEnd
  0
BLOCK
  5
1C
330
1B
100
AcDbEntity
  8
0
100
AcDbBlockBegin
  2
*Paper_Space
 70
0
 10
0.0
 20
0.0
 30
0.0
  3
*Paper_Space
  1

  0
ENDBLK
  5
1D
330
1B
100
AcDbEntity
  8
0
100
AcDbBlockEnd
  0
ENDSEC
  0
SECTION
  2
ENTITIES
  0
LINE
  5
33
330
17
100
AcDbEntity
  8
FoilLayer
100
AcDbLine
 10
472.7263423092071
 20
-0.3883601691991808
 30
0.0
 11
472.58502795867525
 21
-0.33887702676949727
 31
0.0
  0
LINE
  5
34
330
17
100
AcDbEntity
  8
FoilLayer
100
AcDbLine
 10
472.58502795867525
 20
-0.33887702676949727
 30
0.0
 11
472.15119773094057
 21
-0.19178824470003097
 31
0.0
  0
LINE
  5
35
330
17
100
AcDbEntity
  8
FoilLayer
100
AcDbLine
 10
472.15119773094057
 20
-0.19178824470003097
 30
0.0
 11
471.4681697716168
 21
0.04799910490538184
 31
0.0
  0
LINE
  5
36
330
17
100
AcDbEntity
  8
FoilLayer
100
AcDbLine
 10
471.4681697716168
 20
0.04799910490538184
 30
0.0
 11
470.53086468716083
 21
0.3749678876302271
 31
0.0
  0
LINE
  5
37
330
17
100
AcDbEntity
  8
FoilLayer
100
AcDbLine
 10
470.53086468716083
 20
0.3749678876302271
 30
0.0
 11
469.35307382953783
 21
0.7821062982728324
 31
0.0
  0
LINE
  5
38
330
17
100
AcDbEntity
  8
FoilLayer
100
AcDbLine
 10
469.35307382953783
 20
0.7821062982728324
 30
0.0
 11
467.9371967985171
 21
1.2685973302477556
 31
0.0
  0
LINE
  5
39
330
17
100
AcDbEntity
  8
FoilLayer
100
AcDbLine
 10
467.9371967985171
 20
1.2685973302477556
 30
0.0
 11
466.2941293485709
 21
1.8211349570427224
 31
0.0
  0
LINE
  5
3A
330
17
100
AcDbEntity
  8
FoilLayer
100
AcDbLine
 10
466.2941293485709
 20
1.8211349570427224
 30
0.0
 11
464.41712303838165
 21
2.4468037271058245
 31
0.0
  0
LINE
  5
3B
330
17
100
AcDbEntity
  8
FoilLayer
100
AcDbLine
 10
464.41712303838165
 20
2.4468037271058245
 30
0.0
 11
462.3255001806557
 21
3.144028540182676
 31
0.0
  0
LINE
  5
3C
330
17
100
AcDbEntity
  8
FoilLayer
100
AcDbLine
 10
462.3255001806557
 20
3.144028540182676
 30
0.0
 11
460.0127797681149
 21
3.8931180505908682
 31
0.0
  0
LINE
  5
3D
330
17
100
AcDbEntity
  8
FoilLayer
100
AcDbLine
 10
460.0127797681149
 20
3.8931180505908682
 30
0.0
 11
457.48373867239786
 21
4.707071926216581
 31
0.0
  0
LINE
  5
3E
330
17
100
AcDbEntity
  8
FoilLayer
100
AcDbLine
 10
457.48373867239786
 20
4.707071926216581
 30
0.0
 11
454.7357541888904
 21
5.572183514625898
 31
0.0
  0
LINE
  5
3F
330
17
100
AcDbEntity
  8
FoilLayer
100
AcDbLine
 10
454.7357541888904
 20
5.572183514625898
 30
0.0
 11
451.7758975026478
 21
6.488504488855358
 31
0.0
  0
LINE
  5
40
330
17
100
AcDbEntity
  8
FoilLayer
100
AcDbLine
 10
451.7758975026478
 20
6.488504488855358
 30
0.0
 11
448.59797017087476
 21
7.4629741998860695
 31
0.0
  0
LINE
  5
41
330
17
100
AcDbEntity
  8
FoilLayer
100
AcDbLine
 10
448.59797017087476
 20
7.4629741998860695
 30
0.0
 11
445.21698999793796
 21
8.48817968499576
 31
0.0
  0
LINE
  5
42
330
17
100
AcDbEntity
  8
FoilLayer
100
AcDbLine
 10
445.21698999793796
 20
8.48817968499576
 30
0.0
 11
441.63133381371756
 21
9.557332046794032
 31
0.0
  0
LINE
  5
43
330
17
100
AcDbEntity
  8
FoilLayer
100
AcDbLine
 10
441.63133381371756
 20
9.557332046794032
 30
0.0
 11
437.84259346272324
 21
10.677231846257968
 31
0.0
  0
LINE
  5
44
330
17
100
AcDbEntity
  8
FoilLayer
100
AcDbLine
 10
437.84259346272324
 20
10.677231846257968
 30
0.0
 11
433.8499917623319
 21
11.840834409749016
 31
0.0
  0
LINE
  5
45
330
17
100
AcDbEntity
  8
FoilLayer
100
AcDbLine
 10
433.8499917623319
 20
11.840834409749016
 30
0.0
 11
429.65336114101365
 21
13.048185660528658
 31
0.0
  0
LINE
  5
46
330
17
100
AcDbEntity
  8
FoilLayer
100
AcDbLine
 10
429.65336114101365
 20
13.048185660528658
 30
0.0
 11
425.25893187853126
 21
14.299579472708984
 31
0.0
  0
LINE
  5
47
330
17
100
AcDbEntity
  8
FoilLayer
100
AcDbLine
 10
425.25893187853126
 20
14.299579472708984
 30
0.0
 11
420.66913285455166
 21
15.60887331123752
 31
0.0
  0
LINE
  5
48
330
17
100
AcDbEntity
  8
FoilLayer
100
AcDbLine
 10
420.66913285455166
 20
15.60887331123752
 30
0.0
 11
415.8886053779787
 21
16.96226527908535
 31
0.0
  0
LINE
  5
49
330
17
100
AcDbEntity
  8
FoilLayer
100
AcDbLine
 10
415.8886053779787
 20
16.96226527908535
 30
0.0
 11
410.9352258596755
 21
18.373361539352928
 31
0.0
  0
LINE
  5
4A
330
17
100
AcDbEntity
  8
FoilLayer
100
AcDbLine
 10
410.9352258596755
 20
18.373361539352928
 30
0.0
 11
405.8062281657509
 21
19.82112117331767
 31
0.0
  0
LINE
  5
4B
330
17
100
AcDbEntity
  8
FoilLayer
100
AcDbLine
 10
405.8062281657509
 20
19.82112117331767
 30
0.0
 11
400.4954299220328
 21
21.319784802677756
 31
0.0
  0
LINE
  5
4C
330
17
100
AcDbEntity
  8
FoilLayer
100
AcDbLine
 10
400.4954299220328
 20
21.319784802677756
 30
0.0
 11
395.0240523562053
 21
22.86224784015155
 31
0.0
  0
LINE
  5
4D
330
17
100
AcDbEntity
  8
FoilLayer
100
AcDbLine
 10
395.0240523562053
 20
22.86224784015155
 30
0.0
 11
389.39336623237864
 21
24.45542661019548
 31
0.0
  0
LINE
  5
4E
330
17
100
AcDbEntity
  8
FoilLayer
100
AcDbLine
 10
389.39336623237864
 20
24.45542661019548
 30
0.0
 11
383.6166666889567
 21
26.08512526066195
 31
0.0
  0
LINE
  5
4F
330
17
100
AcDbEntity
  8
FoilLayer
100
AcDbLine
 10
383.6166666889567
 20
26.08512526066195
 30
0.0
 11
377.6954335767458
 21
27.758201742463957
 31
0.0
  0
LINE
  5
50
330
17
100
AcDbEntity
  8
FoilLayer
100
AcDbLine
 10
377.6954335767458
 20
27.758201742463957
 30
0.0
 11
371.6281892338112
 21
29.460522200684018
 31
0.0
  0
LINE
  5
51
330
17
100
AcDbEntity
  8
FoilLayer
100
AcDbLine
 10
371.6281892338112
 20
29.460522200684018
 30
0.0
 11
365.41504101820146
 21
31.199330674710094
 31
0.0
  0
LINE
  5
52
330
17
100
AcDbEntity
  8
FoilLayer
100
AcDbLine
 10
365.41504101820146
 20
31.199330674710094
 30
0.0
 11
359.0780914240214
 21
32.97454968801612
 31
0.0
  0
LINE
  5
53
330
17
100
AcDbEntity
  8
FoilLayer
100
AcDbLine
 10
359.0780914240214
 20
32.97454968801612
 30
0.0
 11
352.62551221481647
 21
34.78592797918615
 31
0.0
  0
LINE
  5
54
330
17
100
AcDbEntity
  8
FoilLayer
100
AcDbLine
 10
352.62551221481647
 20
34.78592797918615
 30
0.0
 11
346.06434820566494
 21
36.6189819091404
 31
0.0
  0
LINE
  5
55
330
17
100
AcDbEntity
  8
FoilLayer
100
AcDbLine
 10
346.06434820566494
 20
36.6189819091404
 30
0.0
 11
339.38619478528574
 21
38.46675015537866
 31
0.0
  0
LINE
  5
56
330
17
100
AcDbEntity
  8
FoilLayer
100
AcDbLine
 10
339.38619478528574
 20
38.46675015537866
 30
0.0
 11
332.59878093634757
 21
40.33638093038696
 31
0.0
  0
LINE
  5
57
330
17
100
AcDbEntity
  8
FoilLayer
100
AcDbLine
 10
332.59878093634757
 20
40.33638093038696
 30
0.0
 11
325.7092732290323
 21
42.22790365682605
 31
0.0
  0
LINE
  5
58
330
17
100
AcDbEntity
  8
FoilLayer
100
AcDbLine
 10
325.7092732290323
 20
42.22790365682605
 30
0.0
 11
318.7327621362401
 21
44.14117021587953
 31
0.0
  0
LINE
  5
59
330
17
100
AcDbEntity
  8
FoilLayer
100
AcDbLine
 10
318.7327621362401
 20
44.14117021587953
 30
0.0
 11
311.67775445679024
 21
46.06857394151328
 31
0.0
  0
LINE
  5
5A
330
17
100
AcDbEntity
  8
FoilLayer
100
AcDbLine
 10
311.67775445679024
 20
46.06857394151328
 30
0.0
 11
304.54924960532526
 21
47.981633677587325
 31
0.0
  0
LINE
  5
5B
330
17
100
AcDbEntity
  8
FoilLayer
100
AcDbLine
 10
304.54924960532526
 20
47.981633677587325
 30
0.0
 11
297.3406934008078
 21
49.8947032973792
 31
0.0
  0
LINE
  5
5C
330
17
100
AcDbEntity
  8
FoilLayer
100
AcDbLine
 10
297.3406934008078
 20
49.8947032973792
 30
0.0
 11
290.88575599979254
 21
51.58896331381337
 31
0.0
  0
LINE
  5
5D
330
17
100
AcDbEntity
  8
FoilLayer
100
AcDbLine
 10
290.88575599979254
 20
51.58896331381337
 30
0.0
 11
290.4922488879673
 21
50.08974613376809
 31
0.0
  0
LINE
  5
5E
330
17
100
AcDbEntity
  8
FoilLayer
100
AcDbLine
 10
290.4922488879673
 20
50.08974613376809
 30
0.0
 11
289.6647748749011
 21
50.30695235639461
 31
0.0
  0
LINE
  5
5F
330
17
100
AcDbEntity
  8
FoilLayer
100
AcDbLine
 10
289.6647748749011
 20
50.30695235639461
 30
0.0
 11
282.3240672823031
 21
52.20392200275808
 31
0.0
  0
LINE
  5
60
330
17
100
AcDbEntity
  8
FoilLayer
100
AcDbLine
 10
282.3240672823031
 20
52.20392200275808
 30
0.0
 11
274.92684492801664
 21
54.08594848595595
 31
0.0
  0
LINE
  5
61
330
17
100
AcDbEntity
  8
FoilLayer
100
AcDbLine
 10
274.92684492801664
 20
54.08594848595595
 30
0.0
 11
267.4721785623791
 21
55.946007960249844
 31
0.0
  0
LINE
  5
62
330
17
100
AcDbEntity
  8
FoilLayer
100
AcDbLine
 10
267.4721785623791
 20
55.946007960249844
 30
0.0
 11
259.94292131383077
 21
57.784733403795194
 31
0.0
  0
LINE
  5
63
330
17
100
AcDbEntity
  8
FoilLayer
100
AcDbLine
 10
259.94292131383077
 20
57.784733403795194
 30
0.0
 11
252.36642799083248
 21
59.60251510034809
 31
0.0
  0
LINE
  5
64
330
17
100
AcDbEntity
  8
FoilLayer
100
AcDbLine
 10
252.36642799083248
 20
59.60251510034809
 30
0.0
 11
244.7520290552596
 21
61.41168868764677
 31
0.0
  0
LINE
  5
65
330
17
100
AcDbEntity
  8
FoilLayer
100
AcDbLine
 10
244.7520290552596
 20
61.41168868764677
 30
0.0
 11
237.11754376036473
 21
63.18414704419139
 31
0.0
  0
LINE
  5
66
330
17
100
AcDbEntity
  8
FoilLayer
100
AcDbLine
 10
237.11754376036473
 20
63.18414704419139
 30
0.0
 11
229.4633628291737
 21
64.9125624343169
 31
0.0
  0
LINE
  5
67
330
17
100
AcDbEntity
  8
FoilLayer
100
AcDbLine
 10
229.4633628291737
 20
64.9125624343169
 30
0.0
 11
221.78570523114288
 21
66.58897716375492
 31
0.0
  0
LINE
  5
68
330
17
100
AcDbEntity
  8
FoilLayer
100
AcDbLine
 10
221.78570523114288
 20
66.58897716375492
 30
0.0
 11
214.06666247790102
 21
68.1938388853571
 31
0.0
  0
LINE
  5
69
330
17
100
AcDbEntity
  8
FoilLayer
100
AcDbLine
 10
214.06666247790102
 20
68.1938388853571
 30
0.0
 11
206.3028498113829
 21
69.7481014761265
 31
0.0
  0
LINE
  5
6A
330
17
100
AcDbEntity
  8
FoilLayer
100
AcDbLine
 10
206.3028498113829
 20
69.7481014761265
 30
0.0
 11
198.51961143678287
 21
71.25108736788563
 31
0.0
  0
LINE
  5
6B
330
17
100
AcDbEntity
  8
FoilLayer
100
AcDbLine
 10
198.51961143678287
 20
71.25108736788563
 30
0.0
 11
190.7007534954939
 21
72.69586934392073
 31
0.0
  0
LINE
  5
6C
330
17
100
AcDbEntity
  8
FoilLayer
100
AcDbLine
 10
190.7007534954939
 20
72.69586934392073
 30
0.0
 11
182.86795061995454
 21
74.0752164733115
 31
0.0
  0
LINE
  5
6D
330
17
100
AcDbEntity
  8
FoilLayer
100
AcDbLine
 10
182.86795061995454
 20
74.0752164733115
 30
0.0
 11
175.0057141305895
 21
75.38929271416457
 31
0.0
  0
LINE
  5
6E
330
17
100
AcDbEntity
  8
FoilLayer
100
AcDbLine
 10
175.0057141305895
 20
75.38929271416457
 30
0.0
 11
167.12189279126838
 21
76.6380028655819
 31
0.0
  0
LINE
  5
6F
330
17
100
AcDbEntity
  8
FoilLayer
100
AcDbLine
 10
167.12189279126838
 20
76.6380028655819
 30
0.0
 11
159.20841070191702
 21
77.82146546277568
 31
0.0
  0
LINE
  5
70
330
17
100
AcDbEntity
  8
FoilLayer
100
AcDbLine
 10
159.20841070191702
 20
77.82146546277568
 30
0.0
 11
151.2801396527229
 21
78.93962303162907
 31
0.0
  0
LINE
  5
71
330
17
100
AcDbEntity
  8
FoilLayer
100
AcDbLine
 10
151.2801396527229
 20
78.93962303162907
 30
0.0
 11
143.34483869398665
 21
79.99240897624563
 31
0.0
  0
LINE
  5
72
330
17
100
AcDbEntity
  8
FoilLayer
100
AcDbLine
 10
143.34483869398665
 20
79.99240897624563
 30
0.0
 11
135.39477108380723
 21
80.97988250095322
 31
0.0
  0
LINE
  5
73
330
17
100
AcDbEntity
  8
FoilLayer
100
AcDbLine
 10
135.39477108380723
 20
80.97988250095322
 30
0.0
 11
127.44102995525557
 21
81.90163038059492
 31
0.0
  0
LINE
  5
74
330
17
100
AcDbEntity
  8
FoilLayer
100
AcDbLine
 10
127.44102995525557
 20
81.90163038059492
 30
0.0
 11
119.47644792897111
 21
82.74389641298663
 31
0.0
  0
LINE
  5
75
330
17
100
AcDbEntity
  8
FoilLayer
100
AcDbLine
 10
119.47644792897111
 20
82.74389641298663
 30
0.0
 11
111.50263989548435
 21
83.52099568936939
 31
0.0
  0
LINE
  5
76
330
17
100
AcDbEntity
  8
FoilLayer
100
AcDbLine
 10
111.50263989548435
 20
83.52099568936939
 30
0.0
 11
103.53232025609148
 21
84.23971181275301
 31
0.0
  0
LINE
  5
77
330
17
100
AcDbEntity
  8
FoilLayer
100
AcDbLine
 10
103.53232025609148
 20
84.23971181275301
 30
0.0
 11
95.5657269388486
 21
84.88609611199614
 31
0.0
  0
LINE
  5
78
330
17
100
AcDbEntity
  8
FoilLayer
100
AcDbLine
 10
95.5657269388486
 20
84.88609611199614
 30
0.0
 11
87.60985152215258
 21
85.47415544023842
 31
0.0
  0
LINE
  5
79
330
17
100
AcDbEntity
  8
FoilLayer
100
AcDbLine
 10
87.60985152215258
 20
85.47415544023842
 30
0.0
 11
79.67603273917965
 21
85.98960843708241
 31
0.0
  0
LINE
  5
7A
330
17
100
AcDbEntity
  8
FoilLayer
100
AcDbLine
 10
79.67603273917965
 20
85.98960843708241
 30
0.0
 11
71.75685789332803
 21
86.43246753941226
 31
0.0
  0
LINE
  5
7B
330
17
100
AcDbEntity
  8
FoilLayer
100
AcDbLine
 10
71.75685789332803
 20
86.43246753941226
 30
0.0
 11
63.85041629821481
 21
86.80280804439475
 31
0.0
  0
LINE
  5
7C
330
17
100
AcDbEntity
  8
FoilLayer
100
AcDbLine
 10
63.85041629821481
 20
86.80280804439475
 30
0.0
 11
55.965849743680195
 21
87.10780275167035
 31
0.0
  0
LINE
  5
7D
330
17
100
AcDbEntity
  8
FoilLayer
100
AcDbLine
 10
55.965849743680195
 20
87.10780275167035
 30
0.0
 11
48.11043483012142
 21
87.34745272862516
 31
0.0
  0
LINE
  5
7E
330
17
100
AcDbEntity
  8
FoilLayer
100
AcDbLine
 10
48.11043483012142
 20
87.34745272862516
 30
0.0
 11
40.30078137522318
 21
87.52173118088525
 31
0.0
  0
LINE
  5
7F
330
17
100
AcDbEntity
  8
FoilLayer
100
AcDbLine
 10
40.30078137522318
 20
87.52173118088525
 30
0.0
 11
32.520359943238844
 21
87.62342778237611
 31
0.0
  0
LINE
  5
80
330
17
100
AcDbEntity
  8
FoilLayer
100
AcDbLine
 10
32.520359943238844
 20
87.62342778237611
 30
0.0
 11
24.785664309056727
 21
87.652558019725
 31
0.0
  0
LINE
  5
81
330
17
100
AcDbEntity
  8
FoilLayer
100
AcDbLine
 10
24.785664309056727
 20
87.652558019725
 30
0.0
 11
17.074606360590877
 21
87.60178978621484
 31
0.0
  0
LINE
  5
82
330
17
100
AcDbEntity
  8
FoilLayer
100
AcDbLine
 10
17.074606360590877
 20
87.60178978621484
 30
0.0
 11
9.407452214112737
 21
87.49294125145107
 31
0.0
  0
LINE
  5
83
330
17
100
AcDbEntity
  8
FoilLayer
100
AcDbLine
 10
9.407452214112737
 20
87.49294125145107
 30
0.0
 11
1.8025096553769515
 21
87.32613390499431
 31
0.0
  0
LINE
  5
84
330
17
100
AcDbEntity
  8
FoilLayer
100
AcDbLine
 10
1.8025096553769515
 20
87.32613390499431
 30
0.0
 11
-5.752954503202716
 21
87.08670500407509
 31
0.0
  0
LINE
  5
85
330
17
100
AcDbEntity
  8
FoilLayer
100
AcDbLine
 10
-5.752954503202716
 20
87.08670500407509
 30
0.0
 11
-13.231734060454727
 21
86.78216188513932
 31
0.0
  0
LINE
  5
86
330
17
100
AcDbEntity
  8
FoilLayer
100
AcDbLine
 10
-13.231734060454727
 20
86.78216188513932
 30
0.0
 11
-20.663114156102125
 21
86.3976153318032
 31
0.0
  0
LINE
  5
87
330
17
100
AcDbEntity
  8
FoilLayer
100
AcDbLine
 10
-20.663114156102125
 20
86.3976153318032
 30
0.0
 11
-28.036031681553027
 21
85.94778120268786
 31
0.0
  0
LINE
  5
88
330
17
100
AcDbEntity
  8
FoilLayer
100
AcDbLine
 10
-28.036031681553027
 20
85.94778120268786
 30
0.0
 11
-35.35199630587476
 21
85.43254699139437
 31
0.0
  0
LINE
  5
89
330
17
100
AcDbEntity
  8
FoilLayer
100
AcDbLine
 10
-35.35199630587476
 20
85.43254699139437
 30
0.0
 11
-42.587404457894166
 21
84.85931147859792
 31
0.0
  0
LINE
  5
8A
330
17
100
AcDbEntity
  8
FoilLayer
100
AcDbLine
 10
-42.587404457894166
 20
84.85931147859792
 30
0.0
 11
-49.7312609195412
 21
84.22845642171166
 31
0.0
  0
LINE
  5
8B
330
17
100
AcDbEntity
  8
FoilLayer
100
AcDbLine
 10
-49.7312609195412
 20
84.22845642171166
 30
0.0
 11
-56.79284840965431
 21
83.52534989198821
 31
0.0
  0
LINE
  5
8C
330
17
100
AcDbEntity
  8
FoilLayer
100
AcDbLine
 10
-56.79284840965431
 20
83.52534989198821
 30
0.0
 11
-63.78717395810247
 21
82.74184516208848
 31
0.0
  0
LINE
  5
8D
330
17
100
AcDbEntity
  8
FoilLayer
100
AcDbLine
 10
-63.78717395810247
 20
82.74184516208848
 30
0.0
 11
-70.70082452563122
 21
81.9004081498733
 31
0.0
  0
LINE
  5
8E
330
17
100
AcDbEntity
  8
FoilLayer
100
AcDbLine
 10
-70.70082452563122
 20
81.9004081498733
 30
0.0
 11
-77.52674486903132
 21
81.00102786498582
 31
0.0
  0
LINE
  5
8F
330
17
100
AcDbEntity
  8
FoilLayer
100
AcDbLine
 10
-77.52674486903132
 20
81.00102786498582
 30
0.0
 11
-84.26639432459754
 21
80.04349615786347
 31
0.0
  0
LINE
  5
90
330
17
100
AcDbEntity
  8
FoilLayer
100
AcDbLine
 10
-84.26639432459754
 20
80.04349615786347
 30
0.0
 11
-90.89906776852126
 21
79.03606088429594
 31
0.0
  0
LINE
  5
91
330
17
100
AcDbEntity
  8
FoilLayer
100
AcDbLine
 10
-90.89906776852126
 20
79.03606088429594
 30
0.0
 11
-97.42271048646117
 21
77.96343494191882
 31
0.0
  0
LINE
  5
92
330
17
100
AcDbEntity
  8
FoilLayer
100
AcDbLine
 10
-97.42271048646117
 20
77.96343494191882
 30
0.0
 11
-103.8533924293925
 21
76.82532907000716
 31
0.0
  0
LINE
  5
93
330
17
100
AcDbEntity
  8
FoilLayer
100
AcDbLine
 10
-103.8533924293925
 20
76.82532907000716
 30
0.0
 11
-110.18808821700944
 21
75.6295698440059
 31
0.0
  0
LINE
  5
94
330
17
100
AcDbEntity
  8
FoilLayer
100
AcDbLine
 10
-110.18808821700944
 20
75.6295698440059
 30
0.0
 11
-116.41520750238513
 21
74.37557905726482
 31
0.0
  0
LINE
  5
95
330
17
100
AcDbEntity
  8
FoilLayer
100
AcDbLine
 10
-116.41520750238513
 20
74.37557905726482
 30
0.0
 11
-122.53429902935866
 21
73.0706798484802
 31
0.0
  0
LINE
  5
96
330
17
100
AcDbEntity
  8
FoilLayer
100
AcDbLine
 10
-122.53429902935866
 20
73.0706798484802
 30
0.0
 11
-128.5329653679081
 21
71.72332498016537
 31
0.0
  0
LINE
  5
97
330
17
100
AcDbEntity
  8
FoilLayer
100
AcDbLine
 10
-128.5329653679081
 20
71.72332498016537
 30
0.0
 11
-134.39693210110863
 21
70.3263368176093
 31
0.0
  0
LINE
  5
98
330
17
100
AcDbEntity
  8
FoilLayer
100
AcDbLine
 10
-134.39693210110863
 20
70.3263368176093
 30
0.0
 11
-140.15268724631517
 21
68.86408497500008
 31
0.0
  0
LINE
  5
99
330
17
100
AcDbEntity
  8
FoilLayer
100
AcDbLine
 10
-140.15268724631517
 20
68.86408497500008
 30
0.0
 11
-145.793540584787
 21
67.3436405473295
 31
0.0
  0
LINE
  5
9A
330
17
100
AcDbEntity
  8
FoilLayer
100
AcDbLine
 10
-145.793540584787
 20
67.3436405473295
 30
0.0
 11
-151.32285297576746
 21
65.77121627774353
 31
0.0
  0
LINE
  5
9B
330
17
100
AcDbEntity
  8
FoilLayer
100
AcDbLine
 10
-151.32285297576746
 20
65.77121627774353
 30
0.0
 11
-156.71393650506172
 21
64.17222103726853
 31
0.0
  0
LINE
  5
9C
330
17
100
AcDbEntity
  8
FoilLayer
100
AcDbLine
 10
-156.71393650506172
 20
64.17222103726853
 30
0.0
 11
-161.98121211520362
 21
62.52282427935665
 31
0.0
  0
LINE
  5
9D
330
17
100
AcDbEntity
  8
FoilLayer
100
AcDbLine
 10
-161.98121211520362
 20
62.52282427935665
 30
0.0
 11
-167.11082280070707
 21
60.830074347253955
 31
0.0
  0
LINE
  5
9E
330
17
100
AcDbEntity
  8
FoilLayer
100
AcDbLine
 10
-167.11082280070707
 20
60.830074347253955
 30
0.0
 11
-172.113997595178
 21
59.09516088869073
 31
0.0
  0
LINE
  5
9F
330
17
100
AcDbEntity
  8
FoilLayer
100
AcDbLine
 10
-172.113997595178
 20
59.09516088869073
 30
0.0
 11
-176.98212884516744
 21
57.31596452122495
 31
0.0
  0
LINE
  5
A0
330
17
100
AcDbEntity
  8
FoilLayer
100
AcDbLine
 10
-176.98212884516744
 20
57.31596452122495
 30
0.0
 11
-181.72610144692578
 21
55.50106844450811
 31
0.0
  0
LINE
  5
A1
330
17
100
AcDbEntity
  8
FoilLayer
100
AcDbLine
 10
-181.72610144692578
 20
55.50106844450811
 30
0.0
 11
-186.32959010159524
 21
53.658526510429105
 31
0.0
  0
LINE
  5
A2
330
17
100
AcDbEntity
  8
FoilLayer
100
AcDbLine
 10
-186.32959010159524
 20
53.658526510429105
 30
0.0
 11
-190.78620995469223
 21
51.78809031664864
 31
0.0
  0
LINE
  5
A3
330
17
100
AcDbEntity
  8
FoilLayer
100
AcDbLine
 10
-190.78620995469223
 20
51.78809031664864
 30
0.0
 11
-195.0933146287591
 21
49.89108688508034
 31
0.0
  0
LINE
  5
A4
330
17
100
AcDbEntity
  8
FoilLayer
100
AcDbLine
 10
-195.0933146287591
 20
49.89108688508034
 30
0.0
 11
-199.25988187151637
 21
47.95616513685605
 31
0.0
  0
LINE
  5
A5
330
17
100
AcDbEntity
  8
FoilLayer
100
AcDbLine
 10
-199.25988187151637
 20
47.95616513685605
 30
0.0
 11
-203.2842463622116
 21
46.002109769601
 31
0.0
  0
LINE
  5
A6
330
17
100
AcDbEntity
  8
FoilLayer
100
AcDbLine
 10
-203.2842463622116
 20
46.002109769601
 30
0.0
 11
-207.17406073015712
 21
44.01786544697989
 31
0.0
  0
LINE
  5
A7
330
17
100
AcDbEntity
  8
FoilLayer
100
AcDbLine
 10
-207.17406073015712
 20
44.01786544697989
 30
0.0
 11
-210.90407003708404
 21
42.030994401686016
 31
0.0
  0
LINE
  5
A8
330
17
100
AcDbEntity
  8
FoilLayer
100
AcDbLine
 10
-210.90407003708404
 20
42.030994401686016
 30
0.0
 11
-214.48594681402102
 21
40.02068096564771
 31
0.0
  0
LINE
  5
A9
330
17
100
AcDbEntity
  8
FoilLayer
100
AcDbLine
 10
-214.48594681402102
 20
40.02068096564771
 30
0.0
 11
-217.89662400223244
 21
38.01816089981618
 31
0.0
  0
LINE
  5
AA
330
17
100
AcDbEntity
  8
FoilLayer
100
AcDbLine
 10
-217.89662400223244
 20
38.01816089981618
 30
0.0
 11
-221.15619260778112
 21
35.98709771607526
 31
0.0
  0
LINE
  5
AB
330
17
100
AcDbEntity
  8
FoilLayer
100
AcDbLine
 10
-221.15619260778112
 20
35.98709771607526
 30
0.0
 11
-224.25913502772966
 21
33.94071491804522
 31
0.0
  0
LINE
  5
AC
330
17
100
AcDbEntity
  8
FoilLayer
100
AcDbLine
 10
-224.25913502772966
 20
33.94071491804522
 30
0.0
 11
-227.2263206429145
 21
31.87941687961166
 31
0.0
  0
LINE
  5
AD
330
17
100
AcDbEntity
  8
FoilLayer
100
AcDbLine
 10
-227.2263206429145
 20
31.87941687961166
 30
0.0
 11
-230.03447024232673
 21
29.8315394586448
 31
0.0
  0
LINE
  5
AE
330
17
100
AcDbEntity
  8
FoilLayer
100
AcDbLine
 10
-230.03447024232673
 20
29.8315394586448
 30
0.0
 11
-232.67483604432675
 21
27.793239375348406
 31
0.0
  0
LINE
  5
AF
330
17
100
AcDbEntity
  8
FoilLayer
100
AcDbLine
 10
-232.67483604432675
 20
27.793239375348406
 30
0.0
 11
-235.14511291951735
 21
25.773090407681085
 31
0.0
  0
LINE
  5
B0
330
17
100
AcDbEntity
  8
FoilLayer
100
AcDbLine
 10
-235.14511291951735
 20
25.773090407681085
 30
0.0
 11
-237.45054469820232
 21
23.746795560739656
 31
0.0
  0
LINE
  5
B1
330
17
100
AcDbEntity
  8
FoilLayer
100
AcDbLine
 10
-237.45054469820232
 20
23.746795560739656
 30
0.0
 11
-239.6011222801743
 21
21.718729076208064
 31
0.0
  0
LINE
  5
B2
330
17
100
AcDbEntity
  8
FoilLayer
100
AcDbLine
 10
-239.6011222801743
 20
21.718729076208064
 30
0.0
 11
-241.59406847891358
 21
19.713559062510164
 31
0.0
  0
LINE
  5
B3
330
17
100
AcDbEntity
  8
FoilLayer
100
AcDbLine
 10
-241.59406847891358
 20
19.713559062510164
 30
0.0
 11
-243.43199386740773
 21
17.721309917051983
 31
0.0
  0
LINE
  5
B4
330
17
100
AcDbEntity
  8
FoilLayer
100
AcDbLine
 10
-243.43199386740773
 20
17.721309917051983
 30
0.0
 11
-245.10702825312242
 21
15.774831877361166
 31
0.0
  0
LINE
  5
B5
330
17
100
AcDbEntity
  8
FoilLayer
100
AcDbLine
 10
-245.10702825312242
 20
15.774831877361166
 30
0.0
 11
-246.61880786371884
 21
13.851279812674713
 31
0.0
  0
LINE
  5
B6
330
17
100
AcDbEntity
  8
FoilLayer
100
AcDbLine
 10
-246.61880786371884
 20
13.851279812674713
 30
0.0
 11
-247.95891071074035
 21
11.985100169865547
 31
0.0
  0
LINE
  5
B7
330
17
100
AcDbEntity
  8
FoilLayer
100
AcDbLine
 10
-247.95891071074035
 20
11.985100169865547
 30
0.0
 11
-249.12712027649715
 21
10.173661137382577
 31
0.0
  0
LINE
  5
B8
330
17
100
AcDbEntity
  8
FoilLayer
100
AcDbLine
 10
-249.12712027649715
 20
10.173661137382577
 30
0.0
 11
-250.1357020167243
 21
8.384362781920297
 31
0.0
  0
LINE
  5
B9
330
17
100
AcDbEntity
  8
FoilLayer
100
AcDbLine
 10
-250.1357020167243
 20
8.384362781920297
 30
0.0
 11
-250.94809716639858
 21
6.735723809525042
 31
0.0
  0
LINE
  5
BA
330
17
100
AcDbEntity
  8
FoilLayer
100
AcDbLine
 10
-250.94809716639858
 20
6.735723809525042
 30
0.0
 11
-251.6425108112791
 21
4.943998418287264
 31
0.0
  0
LINE
  5
BB
330
17
100
AcDbEntity
  8
FoilLayer
100
AcDbLine
 10
-251.6425108112791
 20
4.943998418287264
 30
0.0
 11
-252.11561664009147
 21
3.629544488994767
 31
0.0
  0
LINE
  5
BC
330
17
100
AcDbEntity
  8
FoilLayer
100
AcDbLine
 10
-252.11561664009147
 20
3.629544488994767
 30
0.0
 11
-252.4521627838248
 21
1.9343869408549643
 31
0.0
  0
LINE
  5
BD
330
17
100
AcDbEntity
  8
FoilLayer
100
AcDbLine
 10
-252.4521627838248
 20
1.9343869408549643
 30
0.0
 11
-252.62499999999991
 21
0.21825654769643082
 31
0.0
  0
LINE
  5
BE
330
17
100
AcDbEntity
  8
FoilLayer
100
AcDbLine
 10
-252.62499999999991
 20
0.21825654769643082
 30
0.0
 11
-252.63137226228145
 21
-0.1596158460663479
 31
0.0
  0
LINE
  5
BF
330
17
100
AcDbEntity
  8
FoilLayer
100
AcDbLine
 10
-252.63137226228145
 20
-0.1596158460663479
 30
0.0
 11
-252.48982765015802
 21
-1.6962625581981916
 31
0.0
  0
LINE
  5
C0
330
17
100
AcDbEntity
  8
FoilLayer
100
AcDbLine
 10
-252.48982765015802
 20
-1.6962625581981916
 30
0.0
 11
-252.15757588169546
 21
-2.790793068471776
 31
0.0
  0
LINE
  5
C1
330
17
100
AcDbEntity
  8
FoilLayer
100
AcDbLine
 10
-252.15757588169546
 20
-2.790793068471776
 30
0.0
 11
-251.65472627945718
 21
-3.851786142613512
 31
0.0
  0
LINE
  5
C2
330
17
100
AcDbEntity
  8
FoilLayer
100
AcDbLine
 10
-251.65472627945718
 20
-3.851786142613512
 30
0.0
 11
-250.9205013347734
 21
-4.925728768662372
 31
0.0
  0
LINE
  5
C3
330
17
100
AcDbEntity
  8
FoilLayer
100
AcDbLine
 10
-250.9205013347734
 20
-4.925728768662372
 30
0.0
 11
-250.00944845130374
 21
-5.968156972122903
 31
0.0
  0
LINE
  5
C4
330
17
100
AcDbEntity
  8
FoilLayer
100
AcDbLine
 10
-250.00944845130374
 20
-5.968156972122903
 30
0.0
 11
-248.88341337028416
 21
-6.981261829886904
 31
0.0
  0
LINE
  5
C5
330
17
100
AcDbEntity
  8
FoilLayer
100
AcDbLine
 10
-248.88341337028416
 20
-6.981261829886904
 30
0.0
 11
-247.5588707252752
 21
-7.943180351854338
 31
0.0
  0
LINE
  5
C6
330
17
100
AcDbEntity
  8
FoilLayer
100
AcDbLine
 10
-247.5588707252752
 20
-7.943180351854338
 30
0.0
 11
-245.99474553552767
 21
-8.853103683783578
 31
0.0
  0
LINE
  5
C7
330
17
100
AcDbEntity
  8
FoilLayer
100
AcDbLine
 10
-245.99474553552767
 20
-8.853103683783578
 30
0.0
 11
-244.13658892400423
 21
-9.723932108644322
 31
0.0
  0
LINE
  5
C8
330
17
100
AcDbEntity
  8
FoilLayer
100
AcDbLine
 10
-244.13658892400423
 20
-9.723932108644322
 30
0.0
 11
-242.00509577968194
 21
-10.574293224221313
 31
0.0
  0
LINE
  5
C9
330
17
100
AcDbEntity
  8
FoilLayer
100
AcDbLine
 10
-242.00509577968194
 20
-10.574293224221313
 30
0.0
 11
-239.62989000105807
 21
-11.404971901346626
 31
0.0
  0
LINE
  5
CA
330
17
100
AcDbEntity
  8
FoilLayer
100
AcDbLine
 10
-239.62989000105807
 20
-11.404971901346626
 30
0.0
 11
-237.08566397720847
 21
-12.20327919362946
 31
0.0
  0
LINE
  5
CB
330
17
100
AcDbEntity
  8
FoilLayer
100
AcDbLine
 10
-237.08566397720847
 20
-12.20327919362946
 30
0.0
 11
-234.32584895019343
 21
-12.94087834339201
 31
0.0
  0
LINE
  5
CC
330
17
100
AcDbEntity
  8
FoilLayer
100
AcDbLine
 10
-234.32584895019343
 20
-12.94087834339201
 30
0.0
 11
-231.33149715130054
 21
-13.613421249731939
 31
0.0
  0
LINE
  5
CD
330
17
100
AcDbEntity
  8
FoilLayer
100
AcDbLine
 10
-231.33149715130054
 20
-13.613421249731939
 30
0.0
 11
-228.09742435655198
 21
-14.246278969122372
 31
0.0
  0
LINE
  5
CE
330
17
100
AcDbEntity
  8
FoilLayer
100
AcDbLine
 10
-228.09742435655198
 20
-14.246278969122372
 30
0.0
 11
-224.63418809084152
 21
-14.85142588663003
 31
0.0
  0
LINE
  5
CF
330
17
100
AcDbEntity
  8
FoilLayer
100
AcDbLine
 10
-224.63418809084152
 20
-14.85142588663003
 30
0.0
 11
-220.9936254800311
 21
-15.419287314243228
 31
0.0
  0
LINE
  5
D0
330
17
100
AcDbEntity
  8
FoilLayer
100
AcDbLine
 10
-220.9936254800311
 20
-15.419287314243228
 30
0.0
 11
-217.15279300666197
 21
-15.923265395007272
 31
0.0
  0
LINE
  5
D1
330
17
100
AcDbEntity
  8
FoilLayer
100
AcDbLine
 10
-217.15279300666197
 20
-15.923265395007272
 30
0.0
 11
-213.0985603196843
 21
-16.36361680211701
 31
0.0
  0
LINE
  5
D2
330
17
100
AcDbEntity
  8
FoilLayer
100
AcDbLine
 10
-213.0985603196843
 20
-16.36361680211701
 30
0.0
 11
-208.80547545682296
 21
-16.75466818314786
 31
0.0
  0
LINE
  5
D3
330
17
100
AcDbEntity
  8
FoilLayer
100
AcDbLine
 10
-208.80547545682296
 20
-16.75466818314786
 30
0.0
 11
-204.2989255381226
 21
-17.117018640963078
 31
0.0
  0
LINE
  5
D4
330
17
100
AcDbEntity
  8
FoilLayer
100
AcDbLine
 10
-204.2989255381226
 20
-17.117018640963078
 30
0.0
 11
-199.61032659007847
 21
-17.450018059265123
 31
0.0
  0
LINE
  5
D5
330
17
100
AcDbEntity
  8
FoilLayer
100
AcDbLine
 10
-199.61032659007847
 20
-17.450018059265123
 30
0.0
 11
-194.75423343766442
 21
-17.732115856481244
 31
0.0
  0
LINE
  5
D6
330
17
100
AcDbEntity
  8
FoilLayer
100
AcDbLine
 10
-194.75423343766442
 20
-17.732115856481244
 30
0.0
 11
-189.6984922893755
 21
-17.94229341440765
 31
0.0
  0
LINE
  5
D7
330
17
100
AcDbEntity
  8
FoilLayer
100
AcDbLine
 10
-189.6984922893755
 20
-17.94229341440765
 30
0.0
 11
-184.4422461941706
 21
-18.101876994794505
 31
0.0
  0
LINE
  5
D8
330
17
100
AcDbEntity
  8
FoilLayer
100
AcDbLine
 10
-184.4422461941706
 20
-18.101876994794505
 30
0.0
 11
-178.96102593163624
 21
-18.218068787153353
 31
0.0
  0
LINE
  5
D9
330
17
100
AcDbEntity
  8
FoilLayer
100
AcDbLine
 10
-178.96102593163624
 20
-18.218068787153353
 30
0.0
 11
-173.31198292565026
 21
-18.305172924060226
 31
0.0
  0
LINE
  5
DA
330
17
100
AcDbEntity
  8
FoilLayer
100
AcDbLine
 10
-173.31198292565026
 20
-18.305172924060226
 30
0.0
 11
-167.48969959618267
 21
-18.341523436313995
 31
0.0
  0
LINE
  5
DB
330
17
100
AcDbEntity
  8
FoilLayer
100
AcDbLine
 10
-167.48969959618267
 20
-18.341523436313995
 30
0.0
 11
-161.49889462176208
 21
-18.319850867882952
 31
0.0
  0
LINE
  5
DC
330
17
100
AcDbEntity
  8
FoilLayer
100
AcDbLine
 10
-161.49889462176208
 20
-18.319850867882952
 30
0.0
 11
-155.30370189873344
 21
-18.2399876863085
 31
0.0
  0
LINE
  5
DD
330
17
100
AcDbEntity
  8
FoilLayer
100
AcDbLine
 10
-155.30370189873344
 20
-18.2399876863085
 30
0.0
 11
-148.90713190136347
 21
-18.123694319883718
 31
0.0
  0
LINE
  5
DE
330
17
100
AcDbEntity
  8
FoilLayer
100
AcDbLine
 10
-148.90713190136347
 20
-18.123694319883718
 30
0.0
 11
-142.33295411982004
 21
-17.985697403233797
 31
0.0
  0
LINE
  5
DF
330
17
100
AcDbEntity
  8
FoilLayer
100
AcDbLine
 10
-142.33295411982004
 20
-17.985697403233797
 30
0.0
 11
-135.6190460817543
 21
-17.8115601618572
 31
0.0
  0
LINE
  5
E0
330
17
100
AcDbEntity
  8
FoilLayer
100
AcDbLine
 10
-135.6190460817543
 20
-17.8115601618572
 30
0.0
 11
-128.74016157012832
 21
-17.57914526503169
 31
0.0
  0
LINE
  5
E1
330
17
100
AcDbEntity
  8
FoilLayer
100
AcDbLine
 10
-128.74016157012832
 20
-17.57914526503169
 30
0.0
 11
-121.69326526280241
 21
-17.30310667756762
 31
0.0
  0
LINE
  5
E2
330
17
100
AcDbEntity
  8
FoilLayer
100
AcDbLine
 10
-121.69326526280241
 20
-17.30310667756762
 30
0.0
 11
-114.45438962967918
 21
-16.982995594574636
 31
0.0
  0
LINE
  5
E3
330
17
100
AcDbEntity
  8
FoilLayer
100
AcDbLine
 10
-114.45438962967918
 20
-16.982995594574636
 30
0.0
 11
-107.05438401539755
 21
-16.65589289797655
 31
0.0
  0
LINE
  5
E4
330
17
100
AcDbEntity
  8
FoilLayer
100
AcDbLine
 10
-107.05438401539755
 20
-16.65589289797655
 30
0.0
 11
-99.5251015090814
 21
-16.29979361995907
 31
0.0
  0
LINE
  5
E5
330
17
100
AcDbEntity
  8
FoilLayer
100
AcDbLine
 10
-99.5251015090814
 20
-16.29979361995907
 30
0.0
 11
-91.86799498890409
 21
-15.907524276811127
 31
0.0
  0
LINE
  5
E6
330
17
100
AcDbEntity
  8
FoilLayer
100
AcDbLine
 10
-91.86799498890409
 20
-15.907524276811127
 30
0.0
 11
-84.05404943636555
 21
-15.464140307876484
 31
0.0
  0
LINE
  5
E7
330
17
100
AcDbEntity
  8
FoilLayer
100
AcDbLine
 10
-84.05404943636555
 20
-15.464140307876484
 30
0.0
 11
-76.07815798769585
 21
-14.983841550351059
 31
0.0
  0
LINE
  5
E8
330
17
100
AcDbEntity
  8
FoilLayer
100
AcDbLine
 10
-76.07815798769585
 20
-14.983841550351059
 30
0.0
 11
-72.86796792492581
 21
-14.794161564547274
 31
0.0
  0
LINE
  5
E9
330
17
100
AcDbEntity
  8
FoilLayer
100
AcDbLine
 10
-72.86796792492581
 20
-14.794161564547274
 30
0.0
 11
-72.77654278310828
 21
-16.34146290670518
 31
0.0
  0
LINE
  5
EA
330
17
100
AcDbEntity
  8
FoilLayer
100
AcDbLine
 10
-72.77654278310828
 20
-16.34146290670518
 30
0.0
 11
-67.860754425198
 21
-16.05100472438224
 31
0.0
  0
LINE
  5
EB
330
17
100
AcDbEntity
  8
FoilLayer
100
AcDbLine
 10
-67.860754425198
 20
-16.05100472438224
 30
0.0
 11
-59.626416310163904
 21
-15.556364138483007
 31
0.0
  0
LINE
  5
EC
330
17
100
AcDbEntity
  8
FoilLayer
100
AcDbLine
 10
-59.626416310163904
 20
-15.556364138483007
 30
0.0
 11
-51.28401999488048
 21
-15.032697291085874
 31
0.0
  0
LINE
  5
ED
330
17
100
AcDbEntity
  8
FoilLayer
100
AcDbLine
 10
-51.28401999488048
 20
-15.032697291085874
 30
0.0
 11
-42.81596021580981
 21
-14.45797511774399
 31
0.0
  0
LINE
  5
EE
330
17
100
AcDbEntity
  8
FoilLayer
100
AcDbLine
 10
-42.81596021580981
 20
-14.45797511774399
 30
0.0
 11
-34.216218025276675
 21
-13.868652894318842
 31
0.0
  0
LINE
  5
EF
330
17
100
AcDbEntity
  8
FoilLayer
100
AcDbLine
 10
-34.216218025276675
 20
-13.868652894318842
 30
0.0
 11
-25.492538612148252
 21
-13.279313954485323
 31
0.0
  0
LINE
  5
F0
330
17
100
AcDbEntity
  8
FoilLayer
100
AcDbLine
 10
-25.492538612148252
 20
-13.279313954485323
 30
0.0
 11
-16.676535897344422
 21
-12.697402312524142
 31
0.0
  0
LINE
  5
F1
330
17
100
AcDbEntity
  8
FoilLayer
100
AcDbLine
 10
-16.676535897344422
 20
-12.697402312524142
 30
0.0
 11
-7.779701620948629
 21
-12.079062060936323
 31
0.0
  0
LINE
  5
F2
330
17
100
AcDbEntity
  8
FoilLayer
100
AcDbLine
 10
-7.779701620948629
 20
-12.079062060936323
 30
0.0
 11
1.2124669874827987
 21
-11.438842936712927
 31
0.0
  0
LINE
  5
F3
330
17
100
AcDbEntity
  8
FoilLayer
100
AcDbLine
 10
1.2124669874827987
 20
-11.438842936712927
 30
0.0
 11
10.306792187264222
 21
-10.791327084849282
 31
0.0
  0
LINE
  5
F4
330
17
100
AcDbEntity
  8
FoilLayer
100
AcDbLine
 10
10.306792187264222
 20
-10.791327084849282
 30
0.0
 11
19.48906778123964
 21
-10.143766662756896
 31
0.0
  0
LINE
  5
F5
330
17
100
AcDbEntity
  8
FoilLayer
100
AcDbLine
 10
19.48906778123964
 20
-10.143766662756896
 30
0.0
 11
28.74258965271602
 21
-9.510861031314887
 31
0.0
  0
LINE
  5
F6
330
17
100
AcDbEntity
  8
FoilLayer
100
AcDbLine
 10
28.74258965271602
 20
-9.510861031314887
 30
0.0
 11
38.03949493974946
 21
-8.863424724515218
 31
0.0
  0
LINE
  5
F7
330
17
100
AcDbEntity
  8
FoilLayer
100
AcDbLine
 10
38.03949493974946
 20
-8.863424724515218
 30
0.0
 11
47.402946978994436
 21
-8.194087117436263
 31
0.0
  0
LINE
  5
F8
330
17
100
AcDbEntity
  8
FoilLayer
100
AcDbLine
 10
47.402946978994436
 20
-8.194087117436263
 30
0.0
 11
56.839783931292885
 21
-7.52470556137396
 31
0.0
  0
LINE
  5
F9
330
17
100
AcDbEntity
  8
FoilLayer
100
AcDbLine
 10
56.839783931292885
 20
-7.52470556137396
 30
0.0
 11
66.33472072696995
 21
-6.8698830095569265
 31
0.0
  0
LINE
  5
FA
330
17
100
AcDbEntity
  8
FoilLayer
100
AcDbLine
 10
66.33472072696995
 20
-6.8698830095569265
 30
0.0
 11
75.8577094734828
 21
-6.229682168157701
 31
0.0
  0
LINE
  5
FB
330
17
100
AcDbEntity
  8
FoilLayer
100
AcDbLine
 10
75.8577094734828
 20
-6.229682168157701
 30
0.0
 11
85.40252514895687
 21
-5.582206186778843
 31
0.0
  0
LINE
  5
FC
330
17
100
AcDbEntity
  8
FoilLayer
100
AcDbLine
 10
85.40252514895687
 20
-5.582206186778843
 30
0.0
 11
94.96959910109771
 21
-4.927425489360785
 31
0.0
  0
LINE
  5
FD
330
17
100
AcDbEntity
  8
FoilLayer
100
AcDbLine
 10
94.96959910109771
 20
-4.927425489360785
 30
0.0
 11
104.58851860808355
 21
-4.2725835623057975
 31
0.0
  0
LINE
  5
FE
330
17
100
AcDbEntity
  8
FoilLayer
100
AcDbLine
 10
104.58851860808355
 20
-4.2725835623057975
 30
0.0
 11
114.22951177860378
 21
-3.6395542873763675
 31
0.0
  0
LINE
  5
FF
330
17
100
AcDbEntity
  8
FoilLayer
100
AcDbLine
 10
114.22951177860378
 20
-3.6395542873763675
 30
0.0
 11
123.8618583231374
 21
-3.0357138338019065
 31
0.0
  0
LINE
  5
100
330
17
100
AcDbEntity
  8
FoilLayer
100
AcDbLine
 10
123.8618583231374
 20
-3.0357138338019065
 30
0.0
 11
133.4789984065434
 21
-2.4319151151666496
 31
0.0
  0
LINE
  5
101
330
17
100
AcDbEntity
  8
FoilLayer
100
AcDbLine
 10
133.4789984065434
 20
-2.4319151151666496
 30
0.0
 11
143.09026017519298
 21
-1.8134771667018936
 31
0.0
  0
LINE
  5
102
330
17
100
AcDbEntity
  8
FoilLayer
100
AcDbLine
 10
143.09026017519298
 20
-1.8134771667018936
 30
0.0
 11
152.70941212436006
 21
-1.2095535181921542
 31
0.0
  0
LINE
  5
103
330
17
100
AcDbEntity
  8
FoilLayer
100
AcDbLine
 10
152.70941212436006
 20
-1.2095535181921542
 30
0.0
 11
162.31327918469557
 21
-0.6347770003597504
 31
0.0
  0
LINE
  5
104
330
17
100
AcDbEntity
  8
FoilLayer
100
AcDbLine
 10
162.31327918469557
 20
-0.6347770003597504
 30
0.0
 11
171.8803732769837
 21
-0.07457456962596282
 31
0.0
  0
LINE
  5
105
330
17
100
AcDbEntity
  8
FoilLayer
100
AcDbLine
 10
171.8803732769837
 20
-0.07457456962596282
 30
0.0
 11
181.38866003854466
 21
0.4783171917230392
 31
0.0
  0
LINE
  5
106
330
17
100
AcDbEntity
  8
FoilLayer
100
AcDbLine
 10
181.38866003854466
 20
0.4783171917230392
 30
0.0
 11
190.86887726739715
 21
1.038544504807568
 31
0.0
  0
LINE
  5
107
330
17
100
AcDbEntity
  8
FoilLayer
100
AcDbLine
 10
190.86887726739715
 20
1.038544504807568
 30
0.0
 11
200.3206513019879
 21
1.584257152878577
 31
0.0
  0
LINE
  5
108
330
17
100
AcDbEntity
  8
FoilLayer
100
AcDbLine
 10
200.3206513019879
 20
1.584257152878577
 30
0.0
 11
209.7283458672952
 21
2.1008428468698837
 31
0.0
  0
LINE
  5
109
330
17
100
AcDbEntity
  8
FoilLayer
100
AcDbLine
 10
209.7283458672952
 20
2.1008428468698837
 30
0.0
 11
219.05498881853148
 21
2.595547738242342
 31
0.0
  0
LINE
  5
10A
330
17
100
AcDbEntity
  8
FoilLayer
100
AcDbLine
 10
219.05498881853148
 20
2.595547738242342
 30
0.0
 11
228.30856038835955
 21
3.0902352407851197
 31
0.0
  0
LINE
  5
10B
330
17
100
AcDbEntity
  8
FoilLayer
100
AcDbLine
 10
228.30856038835955
 20
3.0902352407851197
 30
0.0
 11
237.50570752545005
 21
3.5922928934157516
 31
0.0
  0
LINE
  5
10C
330
17
100
AcDbEntity
  8
FoilLayer
100
AcDbLine
 10
237.50570752545005
 20
3.5922928934157516
 30
0.0
 11
246.6449944872489
 21
4.065262645353377
 31
0.0
  0
LINE
  5
10D
330
17
100
AcDbEntity
  8
FoilLayer
100
AcDbLine
 10
246.6449944872489
 20
4.065262645353377
 30
0.0
 11
255.71076313909722
 21
4.501815713753804
 31
0.0
  0
LINE
  5
10E
330
17
100
AcDbEntity
  8
FoilLayer
100
AcDbLine
 10
255.71076313909722
 20
4.501815713753804
 30
0.0
 11
264.6735934981398
 21
4.916492054927764
 31
0.0
  0
LINE
  5
10F
330
17
100
AcDbEntity
  8
FoilLayer
100
AcDbLine
 10
264.6735934981398
 20
4.916492054927764
 30
0.0
 11
273.53536129555994
 21
5.331204986630185
 31
0.0
  0
LINE
  5
110
330
17
100
AcDbEntity
  8
FoilLayer
100
AcDbLine
 10
273.53536129555994
 20
5.331204986630185
 30
0.0
 11
282.3182218686097
 21
5.731415070020913
 31
0.0
  0
LINE
  5
111
330
17
100
AcDbEntity
  8
FoilLayer
100
AcDbLine
 10
282.3182218686097
 20
5.731415070020913
 30
0.0
 11
291.0145322494882
 21
6.095270881643947
 31
0.0
  0
LINE
  5
112
330
17
100
AcDbEntity
  8
FoilLayer
100
AcDbLine
 10
291.0145322494882
 20
6.095270881643947
 30
0.0
 11
299.6009817093384
 21
6.408163734722274
 31
0.0
  0
LINE
  5
113
330
17
100
AcDbEntity
  8
FoilLayer
100
AcDbLine
 10
299.6009817093384
 20
6.408163734722274
 30
0.0
 11
308.06260221969364
 21
6.684639400795736
 31
0.0
  0
LINE
  5
114
330
17
100
AcDbEntity
  8
FoilLayer
100
AcDbLine
 10
308.06260221969364
 20
6.684639400795736
 30
0.0
 11
316.3872543260237
 21
6.94660036295718
 31
0.0
  0
LINE
  5
115
330
17
100
AcDbEntity
  8
FoilLayer
100
AcDbLine
 10
316.3872543260237
 20
6.94660036295718
 30
0.0
 11
324.6040132138378
 21
7.172205270498896
 31
0.0
  0
LINE
  5
116
330
17
100
AcDbEntity
  8
FoilLayer
100
AcDbLine
 10
324.6040132138378
 20
7.172205270498896
 30
0.0
 11
332.68989687371334
 21
7.339589006684049
 31
0.0
  0
LINE
  5
117
330
17
100
AcDbEntity
  8
FoilLayer
100
AcDbLine
 10
332.68989687371334
 20
7.339589006684049
 30
0.0
 11
340.61457817770713
 21
7.448740089476006
 31
0.0
  0
LINE
  5
118
330
17
100
AcDbEntity
  8
FoilLayer
100
AcDbLine
 10
340.61457817770713
 20
7.448740089476006
 30
0.0
 11
348.3566165747735
 21
7.521501991567758
 31
0.0
  0
LINE
  5
119
330
17
100
AcDbEntity
  8
FoilLayer
100
AcDbLine
 10
348.3566165747735
 20
7.521501991567758
 30
0.0
 11
355.9399757864253
 21
7.572438456897544
 31
0.0
  0
LINE
  5
11A
330
17
100
AcDbEntity
  8
FoilLayer
100
AcDbLine
 10
355.9399757864253
 20
7.572438456897544
 30
0.0
 11
363.36430533504483
 21
7.579702755747301
 31
0.0
  0
LINE
  5
11B
330
17
100
AcDbEntity
  8
FoilLayer
100
AcDbLine
 10
363.36430533504483
 20
7.579702755747301
 30
0.0
 11
370.6060308408371
 21
7.528746704554527
 31
0.0
  0
LINE
  5
11C
330
17
100
AcDbEntity
  8
FoilLayer
100
AcDbLine
 10
370.6060308408371
 20
7.528746704554527
 30
0.0
 11
377.6432808145329
 21
7.4341354815844705
 31
0.0
  0
LINE
  5
11D
330
17
100
AcDbEntity
  8
FoilLayer
100
AcDbLine
 10
377.6432808145329
 20
7.4341354815844705
 30
0.0
 11
384.4623791610568
 21
7.3104110412811325
 31
0.0
  0
LINE
  5
11E
330
17
100
AcDbEntity
  8
FoilLayer
100
AcDbLine
 10
384.4623791610568
 20
7.3104110412811325
 30
0.0
 11
391.0857054695455
 21
7.157555839489173
 31
0.0
  0
LINE
  5
11F
330
17
100
AcDbEntity
  8
FoilLayer
100
AcDbLine
 10
391.0857054695455
 20
7.157555839489173
 30
0.0
 11
397.50609774440886
 21
6.968277751131265
 31
0.0
  0
LINE
  5
120
330
17
100
AcDbEntity
  8
FoilLayer
100
AcDbLine
 10
397.50609774440886
 20
6.968277751131265
 30
0.0
 11
403.7007328948823
 21
6.735328938147475
 31
0.0
  0
LINE
  5
121
330
17
100
AcDbEntity
  8
FoilLayer
100
AcDbLine
 10
403.7007328948823
 20
6.735328938147475
 30
0.0
 11
409.65328565748484
 21
6.466079180492015
 31
0.0
  0
LINE
  5
122
330
17
100
AcDbEntity
  8
FoilLayer
100
AcDbLine
 10
409.65328565748484
 20
6.466079180492015
 30
0.0
 11
415.3676015424427
 21
6.189450691473389
 31
0.0
  0
LINE
  5
123
330
17
100
AcDbEntity
  8
FoilLayer
100
AcDbLine
 10
415.3676015424427
 20
6.189450691473389
 30
0.0
 11
420.8567404631892
 21
5.883674967216063
 31
0.0
  0
LINE
  5
124
330
17
100
AcDbEntity
  8
FoilLayer
100
AcDbLine
 10
420.8567404631892
 20
5.883674967216063
 30
0.0
 11
426.1076330476867
 21
5.548633207499263
 31
0.0
  0
LINE
  5
125
330
17
100
AcDbEntity
  8
FoilLayer
100
AcDbLine
 10
426.1076330476867
 20
5.548633207499263
 30
0.0
 11
431.0865096246174
 21
5.170114382993451
 31
0.0
  0
LINE
  5
126
330
17
100
AcDbEntity
  8
FoilLayer
100
AcDbLine
 10
431.0865096246174
 20
5.170114382993451
 30
0.0
 11
435.7958515480019
 21
4.784335582235344
 31
0.0
  0
LINE
  5
127
330
17
100
AcDbEntity
  8
FoilLayer
100
AcDbLine
 10
435.7958515480019
 20
4.784335582235344
 30
0.0
 11
440.22881889774123
 21
4.398537419456591
 31
0.0
  0
LINE
  5
128
330
17
100
AcDbEntity
  8
FoilLayer
100
AcDbLine
 10
440.22881889774123
 20
4.398537419456591
 30
0.0
 11
444.40852713502113
 21
4.012590476984158
 31
0.0
  0
LINE
  5
129
330
17
100
AcDbEntity
  8
FoilLayer
100
AcDbLine
 10
444.40852713502113
 20
4.012590476984158
 30
0.0
 11
448.31233508040043
 21
3.619275601969351
 31
0.0
  0
LINE
  5
12A
330
17
100
AcDbEntity
  8
FoilLayer
100
AcDbLine
 10
448.31233508040043
 20
3.619275601969351
 30
0.0
 11
451.938573891042
 21
3.218775927716208
 31
0.0
  0
LINE
  5
12B
330
17
100
AcDbEntity
  8
FoilLayer
100
AcDbLine
 10
451.938573891042
 20
3.218775927716208
 30
0.0
 11
455.28192473308025
 21
2.8254221329087885
 31
0.0
  0
LINE
  5
12C
330
17
100
AcDbEntity
  8
FoilLayer
100
AcDbLine
 10
455.28192473308025
 20
2.8254221329087885
 30
0.0
 11
458.32521851833246
 21
2.439544176384026
 31
0.0
  0
LINE
  5
12D
330
17
100
AcDbEntity
  8
FoilLayer
100
AcDbLine
 10
458.32521851833246
 20
2.439544176384026
 30
0.0
 11
461.0843526620016
 21
2.0755385047359782
 31
0.0
  0
LINE
  5
12E
330
17
100
AcDbEntity
  8
FoilLayer
100
AcDbLine
 10
461.0843526620016
 20
2.0755385047359782
 30
0.0
 11
463.5450847606595
 21
1.740642635693828
 31
0.0
  0
LINE
  5
12F
330
17
100
AcDbEntity
  8
FoilLayer
100
AcDbLine
 10
463.5450847606595
 20
1.740642635693828
 30
0.0
 11
465.72889831788973
 21
1.4349069550634732
 31
0.0
  0
LINE
  5
130
330
17
100
AcDbEntity
  8
FoilLayer
100
AcDbLine
 10
465.72889831788973
 20
1.4349069550634732
 30
0.0
 11
467.6140261085915
 21
1.1656021645239887
 31
0.0
  0
LINE
  5
131
330
17
100
AcDbEntity
  8
FoilLayer
100
AcDbLine
 10
467.6140261085915
 20
1.1656021645239887
 30
0.0
 11
469.2237559220863
 21
0.932514945382612
 31
0.0
  0
LINE
  5
132
330
17
100
AcDbEntity
  8
FoilLayer
100
AcDbLine
 10
469.2237559220863
 20
0.932514945382612
 30
0.0
 11
470.54260370807174
 21
0.7357759942326472
 31
0.0
  0
LINE
  5
133
330
17
100
AcDbEntity
  8
FoilLayer
100
AcDbLine
 10
470.54260370807174
 20
0.7357759942326472
 30
0.0
 11
471.58426968183755
 21
0.5755177155189595
 31
0.0
  0
LINE
  5
134
330
17
100
AcDbEntity
  8
FoilLayer
100
AcDbLine
 10
471.58426968183755
 20
0.5755177155189595
 30
0.0
 11
472.32024605833476
 21
0.46002770868424303
 31
0.0
  0
LINE
  5
135
330
17
100
AcDbEntity
  8
FoilLayer
100
AcDbLine
 10
472.32024605833476
 20
0.46002770868424303
 30
0.0
 11
472.7954436453456
 21
0.39181493178553356
 31
0.0
  0
LINE
  5
136
330
17
100
AcDbEntity
  8
FoilLayer
100
AcDbLine
 10
472.7954436453456
 20
0.39181493178553356
 30
0.0
 11
472.9554984469926
 21
0.3627140587588021
 31
0.0
  0
LINE
  5
137
330
17
100
AcDbEntity
  8
FoilLayer
100
AcDbLine
 10
472.9554984469926
 20
0.3627140587588021
 30
0.0
 11
472.7263423092071
 21
-0.3883601691991808
 31
0.0
  0
LINE
  5
138
330
17
100
AcDbEntity
  8
StringerLayer
100
AcDbLine
 10
251.2803773516877
 20
55.74956329992569
 30
0.0
 11
255.16999431661043
 21
54.816353856025124
 31
0.0
  0
LINE
  5
139
330
17
100
AcDbEntity
  8
StringerLayer
100
AcDbLine
 10
255.16999431661043
 20
54.816353856025124
 30
0.0
 11
256.103203760511
 21
58.70597082094786
 31
0.0
  0
LINE
  5
13A
330
17
100
AcDbEntity
  8
StringerLayer
100
AcDbLine
 10
256.103203760511
 20
58.70597082094786
 30
0.0
 11
252.21358679558827
 21
59.63918026484843
 31
0.0
  0
LINE
  5
13B
330
17
100
AcDbEntity
  8
StringerLayer
100
AcDbLine
 10
252.21358679558827
 20
59.63918026484843
 30
0.0
 11
251.2803773516877
 21
55.74956329992569
 31
0.0
  0
LINE
  5
13C
330
17
100
AcDbEntity
  8
StringerLayer
100
AcDbLine
 10
-73.94898658465516
 20
77.43780285737886
 30
0.0
 11
-69.98326988841194
 21
77.96038403302312
 31
0.0
  0
LINE
  5
13D
330
17
100
AcDbEntity
  8
StringerLayer
100
AcDbLine
 10
-69.98326988841194
 20
77.96038403302312
 30
0.0
 11
-70.50585106405622
 21
81.92610072926634
 31
0.0
  0
LINE
  5
13E
330
17
100
AcDbEntity
  8
StringerLayer
100
AcDbLine
 10
-70.50585106405622
 20
81.92610072926634
 30
0.0
 11
-74.47156776029944
 21
81.40351955362208
 31
0.0
  0
LINE
  5
13F
330
17
100
AcDbEntity
  8
StringerLayer
100
AcDbLine
 10
-74.47156776029944
 20
81.40351955362208
 30
0.0
 11
-73.94898658465516
 21
77.43780285737886
 31
0.0
  0
LINE
  5
140
330
17
100
AcDbEntity
  8
StringerLayer
100
AcDbLine
 10
-181.5987960263366
 20
51.26672431420291
 30
0.0
 11
-177.86292404361515
 21
52.696150957552284
 31
0.0
  0
LINE
  5
141
330
17
100
AcDbEntity
  8
StringerLayer
100
AcDbLine
 10
-177.86292404361515
 20
52.696150957552284
 30
0.0
 11
-179.2923506869645
 21
56.43202294027371
 31
0.0
  0
LINE
  5
142
330
17
100
AcDbEntity
  8
StringerLayer
100
AcDbLine
 10
-179.2923506869645
 20
56.43202294027371
 30
0.0
 11
-183.02822266968596
 21
55.00259629692434
 31
0.0
  0
LINE
  5
143
330
17
100
AcDbEntity
  8
StringerLayer
100
AcDbLine
 10
-183.02822266968596
 20
55.00259629692434
 30
0.0
 11
-181.5987960263366
 21
51.26672431420291
 31
0.0
  0
LINE
  5
144
330
17
100
AcDbEntity
  8
StringerLayer
100
AcDbLine
 10
-242.46029726567767
 20
11.048272043762251
 30
0.0
 11
-241.2256688592303
 21
12.621705454489662
 31
0.0
  0
LINE
  5
145
330
17
100
AcDbEntity
  8
StringerLayer
100
AcDbLine
 10
-241.2256688592303
 20
12.621705454489662
 30
0.0
 11
-245.15925238604882
 21
15.70827647060802
 31
0.0
  0
LINE
  5
146
330
17
100
AcDbEntity
  8
StringerLayer
100
AcDbLine
 10
-245.15925238604882
 20
15.70827647060802
 30
0.0
 11
-246.3938807924962
 21
14.134843059880609
 31
0.0
  0
LINE
  5
147
330
17
100
AcDbEntity
  8
StringerLayer
100
AcDbLine
 10
-246.3938807924962
 20
14.134843059880609
 30
0.0
 11
-242.46029726567767
 21
11.048272043762251
 31
0.0
  0
LINE
  5
148
330
17
100
AcDbEntity
  8
StringerLayer
100
AcDbLine
 10
-245.5943563818742
 20
-3.2008458907895085
 30
0.0
 11
-247.09057334096923
 21
-1.8736929940528824
 31
0.0
  0
LINE
  5
149
330
17
100
AcDbEntity
  8
StringerLayer
100
AcDbLine
 10
-247.09057334096923
 20
-1.8736929940528824
 30
0.0
 11
-250.4084555828108
 21
-5.61423539179046
 31
0.0
  0
LINE
  5
14A
330
17
100
AcDbEntity
  8
StringerLayer
100
AcDbLine
 10
-250.4084555828108
 20
-5.61423539179046
 30
0.0
 11
-248.91223862371578
 21
-6.941388288527087
 31
0.0
  0
LINE
  5
14B
330
17
100
AcDbEntity
  8
StringerLayer
100
AcDbLine
 10
-248.91223862371578
 20
-6.941388288527087
 30
0.0
 11
-245.5943563818742
 21
-3.2008458907895085
 31
0.0
  0
LINE
  5
14C
330
17
100
AcDbEntity
  8
StringerLayer
100
AcDbLine
 10
-107.39191833466134
 20
-12.6668977049429
 30
0.0
 11
-111.38801600880427
 21
-12.843542486098146
 31
0.0
  0
LINE
  5
14D
330
17
100
AcDbEntity
  8
StringerLayer
100
AcDbLine
 10
-111.38801600880427
 20
-12.843542486098146
 30
0.0
 11
-111.21137122764902
 21
-16.839640160241085
 31
0.0
  0
LINE
  5
14E
330
17
100
AcDbEntity
  8
StringerLayer
100
AcDbLine
 10
-111.21137122764902
 20
-16.839640160241085
 30
0.0
 11
-107.2152735535061
 21
-16.66299537908584
 31
0.0
  0
LINE
  5
14F
330
17
100
AcDbEntity
  8
StringerLayer
100
AcDbLine
 10
-107.2152735535061
 20
-16.66299537908584
 30
0.0
 11
-107.39191833466134
 21
-12.6668977049429
 31
0.0
  0
LINE
  5
150
330
17
100
AcDbEntity
  8
SubLayer
100
AcDbLine
 10
-254.62499999999991
 20
0.0
 30
0.0
 11
-250.62499999999991
 21
0.0
 31
0.0
  0
LINE
  5
151
330
17
100
AcDbEntity
  8
SubLayer
100
AcDbLine
 10
70.74999999999997
 20
0.0
 30
0.0
 11
82.025
 21
0.0
 31
0.0
  0
LINE
  5
152
330
17
100
AcDbEntity
  8
SubLayer
100
AcDbLine
 10
-54.52926199922939
 20
36.74264218063143
 30
0.0
 11
-46.534135383076624
 21
37.021838154251434
 31
0.0
  0
LINE
  5
153
330
17
100
AcDbEntity
  8
SubLayer
100
AcDbLine
 10
46.534135383076624
 20
40.27185378467184
 30
0.0
 11
54.52926199922939
 21
40.551049758291846
 31
0.0
  0
LINE
  5
154
330
17
100
AcDbEntity
  8
SubLayer
100
AcDbLine
 10
-1.5456114602120112
 20
82.90736722106982
 30
0.0
 11
-1.2664154865920034
 21
74.91224060491706
 31
0.0
  0
LINE
  5
155
330
17
100
AcDbEntity
  8
SubLayer
100
AcDbLine
 10
1.5456114602120112
 20
-5.613675282146552
 30
0.0
 11
1.2664154865920034
 21
2.381451334006215
 31
0.0
  0
LINE
  5
156
330
17
100
AcDbEntity
  8
SubLayer
100
AcDbLine
 10
-52.4606813517862
 20
34.81365951999824
 30
0.0
 11
-48.46311804370982
 21
34.95325750680824
 31
0.0
  0
LINE
  5
157
330
17
100
AcDbEntity
  8
SubLayer
100
AcDbLine
 10
-48.46311804370982
 20
34.95325750680824
 30
0.0
 11
-48.60271603051982
 21
38.95082081488462
 31
0.0
  0
LINE
  5
158
330
17
100
AcDbEntity
  8
SubLayer
100
AcDbLine
 10
-48.60271603051982
 20
38.95082081488462
 30
0.0
 11
-52.6002793385962
 21
38.81122282807462
 31
0.0
  0
LINE
  5
159
330
17
100
AcDbEntity
  8
SubLayer
100
AcDbLine
 10
-52.6002793385962
 20
38.81122282807462
 30
0.0
 11
-52.4606813517862
 21
34.81365951999824
 31
0.0
  0
LINE
  5
15A
330
17
100
AcDbEntity
  8
SubLayer
100
AcDbLine
 10
48.60271603051982
 20
38.34287112403865
 30
0.0
 11
52.6002793385962
 21
38.482469110848655
 31
0.0
  0
LINE
  5
15B
330
17
100
AcDbEntity
  8
SubLayer
100
AcDbLine
 10
52.6002793385962
 20
38.482469110848655
 30
0.0
 11
52.4606813517862
 21
42.480032418925035
 31
0.0
  0
LINE
  5
15C
330
17
100
AcDbEntity
  8
SubLayer
100
AcDbLine
 10
52.4606813517862
 20
42.480032418925035
 30
0.0
 11
48.46311804370982
 21
42.34043443211503
 31
0.0
  0
LINE
  5
15D
330
17
100
AcDbEntity
  8
SubLayer
100
AcDbLine
 10
48.46311804370982
 20
42.34043443211503
 30
0.0
 11
48.60271603051982
 21
38.34287112403865
 31
0.0
  0
LINE
  5
15E
330
17
100
AcDbEntity
  8
SubLayer
100
AcDbLine
 10
-3.3349961340351966
 20
76.84122326555024
 30
0.0
 11
0.6625671740411863
 21
76.98082125236024
 31
0.0
  0
LINE
  5
15F
330
17
100
AcDbEntity
  8
SubLayer
100
AcDbLine
 10
0.6625671740411863
 20
76.98082125236024
 30
0.0
 11
0.5229691872311824
 21
80.97838456043664
 31
0.0
  0
LINE
  5
160
330
17
100
AcDbEntity
  8
SubLayer
100
AcDbLine
 10
0.5229691872311824
 20
80.97838456043664
 30
0.0
 11
-3.4745941208452003
 21
80.83878657362663
 31
0.0
  0
LINE
  5
161
330
17
100
AcDbEntity
  8
SubLayer
100
AcDbLine
 10
-3.4745941208452003
 20
80.83878657362663
 30
0.0
 11
-3.3349961340351966
 21
76.84122326555024
 31
0.0
  0
LINE
  5
162
330
17
100
AcDbEntity
  8
SubLayer
100
AcDbLine
 10
-0.5229691872311824
 20
-3.684692621513362
 30
0.0
 11
3.4745941208452003
 21
-3.545094634703358
 31
0.0
  0
LINE
  5
163
330
17
100
AcDbEntity
  8
SubLayer
100
AcDbLine
 10
3.4745941208452003
 20
-3.545094634703358
 30
0.0
 11
3.3349961340351966
 21
0.452468673373025
 31
0.0
  0
LINE
  5
164
330
17
100
AcDbEntity
  8
SubLayer
100
AcDbLine
 10
3.3349961340351966
 20
0.452468673373025
 30
0.0
 11
-0.6625671740411863
 21
0.3128706865630211
 31
0.0
  0
LINE
  5
165
330
17
100
AcDbEntity
  8
SubLayer
100
AcDbLine
 10
-0.6625671740411863
 20
0.3128706865630211
 30
0.0
 11
-0.5229691872311824
 21
-3.684692621513362
 31
0.0
  0
LINE
  5
166
330
17
100
AcDbEntity
  8
SubLayer
100
AcDbLine
 10
363.54705313068536
 20
31.092927804866605
 30
0.0
 11
367.5446164387617
 21
31.232525791676608
 31
0.0
  0
LINE
  5
167
330
17
100
AcDbEntity
  8
SubLayer
100
AcDbLine
 10
-251.3994758658555
 20
9.618521816028089
 30
0.0
 11
-247.4019125577791
 21
9.758119802838092
 31
0.0
  0
LINE
  5
168
330
17
100
AcDbEntity
  8
SubLayer
100
AcDbLine
 10
-129.40956089356644
 20
13.878503517093293
 30
0.0
 11
-123.41321593145187
 21
14.087900497308297
 31
0.0
  0
LINE
  5
169
330
17
100
AcDbEntity
  8
SubLayer
100
AcDbLine
 10
239.55835650435807
 20
26.763147110396403
 30
0.0
 11
245.55470146647264
 21
26.972544090611407
 31
0.0
  0
LINE
  5
16A
330
17
100
AcDbEntity
  8
SubLayer
100
AcDbLine
 10
55.074397805395826
 20
20.320825313744848
 30
0.0
 11
61.0707427675104
 21
20.530222293959852
 31
0.0
  0
LINE
  5
16B
330
17
100
AcDbEntity
  8
SubLayer
100
AcDbLine
 10
-124.34280776506596
 20
12.054219346567605
 30
0.0
 11
-124.48240575187596
 21
16.05178265464399
 31
0.0
  0
LINE
  5
16C
330
17
100
AcDbEntity
  8
SubLayer
100
AcDbLine
 10
-124.48240575187596
 20
16.05178265464399
 30
0.0
 11
-128.47996905995234
 21
15.912184667833985
 31
0.0
  0
LINE
  5
16D
330
17
100
AcDbEntity
  8
SubLayer
100
AcDbLine
 10
-128.47996905995234
 20
15.912184667833985
 30
0.0
 11
-128.34037107314234
 21
11.914621359757602
 31
0.0
  0
LINE
  5
16E
330
17
100
AcDbEntity
  8
SubLayer
100
AcDbLine
 10
-128.34037107314234
 20
11.914621359757602
 30
0.0
 11
-124.34280776506596
 21
12.054219346567605
 31
0.0
  0
LINE
  5
16F
330
17
100
AcDbEntity
  8
SubLayer
100
AcDbLine
 10
244.62510963285854
 20
24.938862939870717
 30
0.0
 11
244.48551164604854
 21
28.9364262479471
 31
0.0
  0
LINE
  5
170
330
17
100
AcDbEntity
  8
SubLayer
100
AcDbLine
 10
244.48551164604854
 20
28.9364262479471
 30
0.0
 11
240.48794833797217
 21
28.796828261137094
 31
0.0
  0
LINE
  5
171
330
17
100
AcDbEntity
  8
SubLayer
100
AcDbLine
 10
240.48794833797217
 20
28.796828261137094
 30
0.0
 11
240.62754632478217
 21
24.79926495306071
 31
0.0
  0
LINE
  5
172
330
17
100
AcDbEntity
  8
SubLayer
100
AcDbLine
 10
240.62754632478217
 20
24.79926495306071
 30
0.0
 11
244.62510963285854
 21
24.938862939870717
 31
0.0
  0
LINE
  5
173
330
17
100
AcDbEntity
  8
SubLayer
100
AcDbLine
 10
60.141150933896306
 20
18.49654114321916
 30
0.0
 11
60.0015529470863
 21
22.494104451295545
 31
0.0
  0
LINE
  5
174
330
17
100
AcDbEntity
  8
SubLayer
100
AcDbLine
 10
60.0015529470863
 20
22.494104451295545
 30
0.0
 11
56.00398963900992
 21
22.35450646448554
 31
0.0
  0
LINE
  5
175
330
17
100
AcDbEntity
  8
SubLayer
100
AcDbLine
 10
56.00398963900992
 20
22.35450646448554
 30
0.0
 11
56.143587625819926
 21
18.356943156409155
 31
0.0
  0
LINE
  5
176
330
17
100
AcDbEntity
  8
SubLayer
100
AcDbLine
 10
56.143587625819926
 20
18.356943156409155
 30
0.0
 11
60.141150933896306
 21
18.49654114321916
 31
0.0
  0
LINE
  5
177
330
17
100
AcDbEntity
  8
SubLayer
100
AcDbLine
 10
453.6105000209745
 20
5.397131815514777
 30
0.0
 11
453.9042536441735
 21
6.353012984310061
 31
0.0
  0
LINE
  5
178
330
17
100
AcDbEntity
  8
SubLayer
100
AcDbLine
 10
453.0367472197827
 20
2.5864788536726704
 30
0.0
 11
453.19077357294327
 21
3.5745455935906
 31
0.0
  0
LINE
  5
179
330
17
100
AcDbEntity
  8
SubLayer
100
AcDbLine
 10
434.45535694872535
 20
11.143638178893442
 30
0.0
 11
434.74590867659356
 21
12.10049746501277
 31
0.0
  0
LINE
  5
17A
330
17
100
AcDbEntity
  8
SubLayer
100
AcDbLine
 10
433.1261274902195
 20
4.50183406050293
 30
0.0
 11
433.25107579723493
 21
5.493997313488037
 31
0.0
  0
LINE
  5
17B
330
17
100
AcDbEntity
  8
SubLayer
100
AcDbLine
 10
395.9789292267829
 20
22.073596083855314
 30
0.0
 11
396.2608456857444
 21
23.033035039790825
 31
0.0
  0
LINE
  5
17C
330
17
100
AcDbEntity
  8
SubLayer
100
AcDbLine
 10
393.1461445845432
 20
6.597475671255833
 30
0.0
 11
393.2348386268394
 21
7.59353458862024
 31
0.0
  0
LINE
  5
17D
330
17
100
AcDbEntity
  8
SubLayer
100
AcDbLine
 10
-151.11122926228285
 20
67.8500288403487
 30
0.0
 11
-150.97163127547282
 21
63.85246553227231
 31
0.0
  0
LINE
  5
17E
330
17
100
AcDbEntity
  8
SubLayer
100
AcDbLine
 10
-148.17934432827383
 20
-16.108170726298034
 30
0.0
 11
-148.0397463414638
 21
-20.105734034374414
 31
0.0
  0
LINE
  5
17F
330
17
100
AcDbEntity
  8
SubLayer
100
AcDbLine
 10
-148.80062081177812
 20
1.6828600140504073
 30
0.0
 11
-148.59122383156313
 21
-4.313484948064167
 31
0.0
  0
LINE
  5
180
330
17
100
AcDbEntity
  8
SubLayer
100
AcDbLine
 10
-150.55975177218352
 20
52.05777975403844
 30
0.0
 11
-150.35035479196853
 21
46.061434791923865
 31
0.0
  0
LINE
  5
181
330
17
100
AcDbEntity
  8
SubLayer
100
AcDbLine
 10
-149.68018629198082
 20
26.870319884044427
 30
0.0
 11
-149.47078931176583
 21
20.87397492192985
 31
0.0
  0
LINE
  5
182
330
17
100
AcDbEntity
  8
SubLayer
100
AcDbLine
 10
-150.6249049823038
 20
-3.3838931144500735
 30
0.0
 11
-146.62734167422744
 21
-3.2442951276400693
 31
0.0
  0
LINE
  5
183
330
17
100
AcDbEntity
  8
SubLayer
100
AcDbLine
 10
-146.62734167422744
 20
-3.2442951276400693
 30
0.0
 11
-146.76693966103744
 21
0.7532681804363137
 31
0.0
  0
LINE
  5
184
330
17
100
AcDbEntity
  8
SubLayer
100
AcDbLine
 10
-146.76693966103744
 20
0.7532681804363137
 30
0.0
 11
-150.7645029691138
 21
0.6136701936263098
 31
0.0
  0
LINE
  5
185
330
17
100
AcDbEntity
  8
SubLayer
100
AcDbLine
 10
-150.7645029691138
 20
0.6136701936263098
 30
0.0
 11
-150.6249049823038
 21
-3.3838931144500735
 31
0.0
  0
LINE
  5
186
330
17
100
AcDbEntity
  8
SubLayer
100
AcDbLine
 10
-152.3840359427092
 20
46.99102662553796
 30
0.0
 11
-148.38647263463284
 21
47.130624612347965
 31
0.0
  0
LINE
  5
187
330
17
100
AcDbEntity
  8
SubLayer
100
AcDbLine
 10
-148.38647263463284
 20
47.130624612347965
 30
0.0
 11
-148.52607062144284
 21
51.128187920424345
 31
0.0
  0
LINE
  5
188
330
17
100
AcDbEntity
  8
SubLayer
100
AcDbLine
 10
-148.52607062144284
 20
51.128187920424345
 30
0.0
 11
-152.5236339295192
 21
50.98858993361434
 31
0.0
  0
LINE
  5
189
330
17
100
AcDbEntity
  8
SubLayer
100
AcDbLine
 10
-152.5236339295192
 20
50.98858993361434
 30
0.0
 11
-152.3840359427092
 21
46.99102662553796
 31
0.0
  0
LINE
  5
18A
330
17
100
AcDbEntity
  8
SubLayer
100
AcDbLine
 10
-151.5044704625065
 20
21.803566755543944
 30
0.0
 11
-147.50690715443014
 21
21.94316474235395
 31
0.0
  0
LINE
  5
18B
330
17
100
AcDbEntity
  8
SubLayer
100
AcDbLine
 10
-147.50690715443014
 20
21.94316474235395
 30
0.0
 11
-147.64650514124014
 21
25.940728050430334
 31
0.0
  0
LINE
  5
18C
330
17
100
AcDbEntity
  8
SubLayer
100
AcDbLine
 10
-147.64650514124014
 20
25.940728050430334
 30
0.0
 11
-151.6440684493165
 21
25.801130063620327
 31
0.0
  0
LINE
  5
18D
330
17
100
AcDbEntity
  8
SubLayer
100
AcDbLine
 10
-151.6440684493165
 20
25.801130063620327
 30
0.0
 11
-151.5044704625065
 21
21.803566755543944
 31
0.0
  0
LINE
  5
18E
330
17
100
AcDbEntity
  8
SubLayer
100
AcDbLine
 10
198.91669302661035
 20
73.15971182823918
 30
0.0
 11
199.05629101342038
 21
69.16214852016279
 31
0.0
  0
LINE
  5
18F
330
17
100
AcDbEntity
  8
SubLayer
100
AcDbLine
 10
201.34426732721025
 20
3.6430792931635896
 30
0.0
 11
201.48386531402028
 21
-0.3544840149127937
 31
0.0
  0
LINE
  5
190
330
17
100
AcDbEntity
  8
SubLayer
100
AcDbLine
 10
200.8238529703878
 20
18.545796627197802
 30
0.0
 11
201.0332499506028
 21
12.549451665083229
 31
0.0
  0
LINE
  5
191
330
17
100
AcDbEntity
  8
SubLayer
100
AcDbLine
 10
199.36730839002786
 20
60.25577614824316
 30
0.0
 11
199.57670537024285
 21
54.25943118612858
 31
0.0
  0
LINE
  5
192
330
17
100
AcDbEntity
  8
SubLayer
100
AcDbLine
 10
200.0955806802078
 20
39.40078638772048
 30
0.0
 11
200.3049776604228
 21
33.4044414256059
 31
0.0
  0
LINE
  5
193
330
17
100
AcDbEntity
  8
SubLayer
100
AcDbLine
 10
198.99956879986212
 20
13.479043498697322
 30
0.0
 11
202.99713210793848
 21
13.618641485507325
 31
0.0
  0
LINE
  5
194
330
17
100
AcDbEntity
  8
SubLayer
100
AcDbLine
 10
202.99713210793848
 20
13.618641485507325
 30
0.0
 11
202.85753412112848
 21
17.61620479358371
 31
0.0
  0
LINE
  5
195
330
17
100
AcDbEntity
  8
SubLayer
100
AcDbLine
 10
202.85753412112848
 20
17.61620479358371
 30
0.0
 11
198.85997081305212
 21
17.476606806773702
 31
0.0
  0
LINE
  5
196
330
17
100
AcDbEntity
  8
SubLayer
100
AcDbLine
 10
198.85997081305212
 20
17.476606806773702
 30
0.0
 11
198.99956879986212
 21
13.479043498697322
 31
0.0
  0
LINE
  5
197
330
17
100
AcDbEntity
  8
SubLayer
100
AcDbLine
 10
197.54302421950217
 20
55.18902301974268
 30
0.0
 11
201.54058752757854
 21
55.32862100655268
 31
0.0
  0
LINE
  5
198
330
17
100
AcDbEntity
  8
SubLayer
100
AcDbLine
 10
201.54058752757854
 20
55.32862100655268
 30
0.0
 11
201.40098954076853
 21
59.32618431462906
 31
0.0
  0
LINE
  5
199
330
17
100
AcDbEntity
  8
SubLayer
100
AcDbLine
 10
201.40098954076853
 20
59.32618431462906
 30
0.0
 11
197.40342623269217
 21
59.18658632781906
 31
0.0
  0
LINE
  5
19A
330
17
100
AcDbEntity
  8
SubLayer
100
AcDbLine
 10
197.40342623269217
 20
59.18658632781906
 30
0.0
 11
197.54302421950217
 21
55.18902301974268
 31
0.0
  0
LINE
  5
19B
330
17
100
AcDbEntity
  8
SubLayer
100
AcDbLine
 10
198.27129650968212
 20
34.33403325922
 30
0.0
 11
202.26885981775848
 21
34.47363124603
 31
0.0
  0
LINE
  5
19C
330
17
100
AcDbEntity
  8
SubLayer
100
AcDbLine
 10
202.26885981775848
 20
34.47363124603
 30
0.0
 11
202.12926183094848
 21
38.47119455410638
 31
0.0
  0
LINE
  5
19D
330
17
100
AcDbEntity
  8
SubLayer
100
AcDbLine
 10
202.12926183094848
 20
38.47119455410638
 30
0.0
 11
198.1316985228721
 21
38.33159656729638
 31
0.0
  0
LINE
  5
19E
330
17
100
AcDbEntity
  8
SubLayer
100
AcDbLine
 10
198.1316985228721
 20
38.33159656729638
 30
0.0
 11
198.27129650968212
 21
34.33403325922
 31
0.0
  0
ENDSEC
  0
SECTION
  2
OBJECTS
  0
DICTIONARY
  5
A
330
0
100
AcDbDictionary
280
0
281
1
  3
ACAD_COLOR
350
B
  3
ACAD_GROUP
350
C
  3
ACAD_LAYOUT
350
D
  3
ACAD_MATERIAL
350
E
  3
ACAD_MLEADERSTYLE
350
F
  3
ACAD_MLINESTYLE
350
10
  3
ACAD_PLOTSETTINGS
350
11
  3
ACAD_PLOTSTYLENAME
350
12
  3
ACAD_SCALELIST
350
14
  3
ACAD_TABLESTYLE
350
15
  3
ACAD_VISUALSTYLE
350
16
  3
EZDXF_META
350
2D
  0
DICTIONARY
  5
B
330
A
100
AcDbDictionary
280
0
281
1
  0
DICTIONARY
  5
C
330
A
100
AcDbDictionary
280
0
281
1
  0
DICTIONARY
  5
D
330
A
100
AcDbDictionary
280
0
281
1
  3
Model
350
1A
  3
Layout1
350
1E
  0
DICTIONARY
  5
E
330
A
100
AcDbDictionary
280
0
281
1
  3
ByBlock
350
1F
  3
ByLayer
350
20
  3
Global
350
21
  0
DICTIONARY
  5
F
330
A
100
AcDbDictionary
280
0
281
1
  3
Standard
350
2C
  0
DICTIONARY
  5
10
330
A
100
AcDbDictionary
280
0
281
1
  3
Standard
350
22
  0
DICTIONARY
  5
11
330
A
100
AcDbDictionary
280
0
281
1
  0
ACDBDICTIONARYWDFLT
  5
12
330
A
100
AcDbDictionary
280
0
281
1
  3
Normal
350
13
100
AcDbDictionaryWithDefault
340
13
  0
ACDBPLACEHOLDER
  5
13
330
12
  0
DICTIONARY
  5
14
330
A
100
AcDbDictionary
280
0
281
1
  0
DICTIONARY
  5
15
330
A
100
AcDbDictionary
280
0
281
1
  0
DICTIONARY
  5
16
330
A
100
AcDbDictionary
280
0
281
1
  0
LAYOUT
  5
1A
330
D
100
AcDbPlotSettings
  1

  2
Adobe PDF
  4
A3
  6

 40
7.5
 41
20.0
 42
7.5
 43
20.0
 44
420.0
 45
297.0
 46
0.0
 47
0.0
 48
0.0
 49
0.0
140
0.0
141
0.0
142
1.0
143
1.0
 70
1024
 72
1
 73
0
 74
5
  7

 75
16
 76
0
 77
2
 78
300
147
1.0
148
0.0
149
0.0
100
AcDbLayout
  1
Model
 70
1
 71
0
 10
0.0
 20
0.0
 11
420.0
 21
297.0
 12
0.0
 22
0.0
 32
0.0
 14
1e+20
 24
1e+20
 34
1e+20
 15
-1e+20
 25
-1e+20
 35
-1e+20
146
0.0
 13
0.0
 23
0.0
 33
0.0
 16
1.0
 26
0.0
 36
0.0
 17
0.0
 27
1.0
 37
0.0
 76
1
330
17
  0
LAYOUT
  5
1E
330
D
100
AcDbPlotSettings
  1

  2
Adobe PDF
  4
A3
  6

 40
7.5
 41
20.0
 42
7.5
 43
20.0
 44
420.0
 45
297.0
 46
0.0
 47
0.0
 48
0.0
 49
0.0
140
0.0
141
0.0
142
1.0
143
1.0
 70
0
 72
1
 73
0
 74
5
  7

 75
16
 76
0
 77
2
 78
300
147
1.0
148
0.0
149
0.0
100
AcDbLayout
  1
Layout1
 70
1
 71
1
 10
0.0
 20
0.0
 11
420.0
 21
297.0
 12
0.0
 22
0.0
 32
0.0
 14
1e+20
 24
1e+20
 34
1e+20
 15
-1e+20
 25
-1e+20
 35
-1e+20
146
0.0
 13
0.0
 23
0.0
 33
0.0
 16
1.0
 26
0.0
 36
0.0
 17
0.0
 27
1.0
 37
0.0
 76
1
330
1B
  0
MATERIAL
  5
1F
102
{ACAD_REACTORS
330
E
102
}
330
E
100
AcDbMaterial
  1
ByBlock
  2

 70
0
 40
1.0
 71
1
 41
1.0
 91
-1023410177
 42
1.0
 72
1
  3

 73
1
 74
1
 75
1
 44
0.5
 73
0
 45
1.0
 46
1.0
 77
1
  4

 78
1
 79
1
170
1
 48
1.0
171
1
  6

172
1
173
1
174
1
140
1.0
141
1.0
175
1
  7

176
1
177
1
178
1
143
1.0
179
1
  8

270
1
271
1
272
1
145
1.0
146
1.0
273
1
  9

274
1
275
1
276
1
 42
1.0
 72
1
  3

 73
1
 74
1
 75
1
 94
63
  0
MATERIAL
  5
20
102
{ACAD_REACTORS
330
E
102
}
330
E
100
AcDbMaterial
  1
ByLayer
  2

 70
0
 40
1.0
 71
1
 41
1.0
 91
-1023410177
 42
1.0
 72
1
  3

 73
1
 74
1
 75
1
 44
0.5
 73
0
 45
1.0
 46
1.0
 77
1
  4

 78
1
 79
1
170
1
 48
1.0
171
1
  6

172
1
173
1
174
1
140
1.0
141
1.0
175
1
  7

176
1
177
1
178
1
143
1.0
179
1
  8

270
1
271
1
272
1
145
1.0
146
1.0
273
1
  9

274
1
275
1
276
1
 42
1.0
 72
1
  3

 73
1
 74
1
 75
1
 94
63
  0
MATERIAL
  5
21
102
{ACAD_REACTORS
330
E
102
}
330
E
100
AcDbMaterial
  1
Global
  2

 70
0
 40
1.0
 71
1
 41
1.0
 91
-1023410177
 42
1.0
 72
1
  3

 73
1
 74
1
 75
1
 44
0.5
 73
0
 45
1.0
 46
1.0
 77
1
  4

 78
1
 79
1
170
1
 48
1.0
171
1
  6

172
1
173
1
174
1
140
1.0
141
1.0
175
1
  7

176
1
177
1
178
1
143
1.0
179
1
  8

270
1
271
1
272
1
145
1.0
146
1.0
273
1
  9

274
1
275
1
276
1
 42
1.0
 72
1
  3

 73
1
 74
1
 75
1
 94
63
  0
MLINESTYLE
  5
22
102
{ACAD_REACTORS
330
10
102
}
330
10
100
AcDbMlineStyle
  2
Standard
 70
0
  3

 62
256
 51
90.0
 52
90.0
 71
2
 49
0.5
 62
256
  6
BYLAYER
 49
-0.5
 62
256
  6
BYLAYER
  0
MLEADERSTYLE
  5
2C
102
{ACAD_REACTORS
330
F
102
}
330
F
100
AcDbMLeaderStyle
179
2
170
2
171
1
172
0
 90
2
 40
0.0
 41
0.0
173
1
 91
-1056964608
 92
-2
290
1
 42
2.0
291
1
 43
8.0
  3
Standard
 44
4.0
300

342
29
174
1
175
1
176
0
178
1
 93
-1056964608
 45
4.0
292
0
297
0
 46
4.0
 94
-1056964608
 47
1.0
 49
1.0
140
1.0
294
1
141
0.0
177
0
142
1.0
295
0
296
0
143
3.75
271
0
272
9
273
9
  0
DICTIONARY
  5
2D
330
A
100
AcDbDictionary
281
1
  3
CREATED_BY_EZDXF
350
2E
  3
WRITTEN_BY_EZDXF
350
1A1
  0
DICTIONARYVAR
  5
2E
330
2D
100
DictionaryVariables
280
0
  1
1.0.2 @ 2023-10-20T04:47:15.910972+00:00
  0
DICTIONARYVAR
  5
1A1
330
2D
100
DictionaryVariables
280
0
  1
1.0.2 @ 2023-10-20T04:47:15.920938+00:00
  0
ENDSEC
  0
EOF
