  0
SECTION
  2
HEADER
  9
$ACADVER
  1
AC1027
  9
$ACADMAINTVER
 70
105
  9
$DWGCODEPAGE
  3
ANSI_1252
  9
$LASTSAVEDBY
  1
ezdxf
  9
$REQUIREDVERSIONS
160
0
  9
$INSBASE
 10
0.0
 20
0.0
 30
0.0
  9
$EXTMIN
 10
1e+20
 20
1e+20
 30
1e+20
  9
$EXTMAX
 10
-1e+20
 20
-1e+20
 30
-1e+20
  9
$LIMMIN
 10
0.0
 20
0.0
  9
$LIMMAX
 10
420.0
 20
297.0
  9
$ORTHOMODE
 70
0
  9
$REGENMODE
 70
1
  9
$FILLMODE
 70
1
  9
$QTEXTMODE
 70
0
  9
$MIRRTEXT
 70
1
  9
$LTSCALE
 40
1.0
  9
$ATTMODE
 70
1
  9
$TEXTSIZE
 40
2.5
  9
$TRACEWID
 40
1.0
  9
$TEXTSTYLE
  7
Standard
  9
$CLAYER
  8
0
  9
$CELTYPE
  6
ByLayer
  9
$CECOLOR
 62
256
  9
$CELTSCALE
 40
1.0
  9
$DISPSILH
 70
0
  9
$DIMSCALE
 40
1.0
  9
$DIMASZ
 40
2.5
  9
$DIMEXO
 40
0.625
  9
$DIMDLI
 40
3.75
  9
$DIMRND
 40
0.0
  9
$DIMDLE
 40
0.0
  9
$DIMEXE
 40
1.25
  9
$DIMTP
 40
0.0
  9
$DIMTM
 40
0.0
  9
$DIMTXT
 40
2.5
  9
$DIMCEN
 40
2.5
  9
$DIMTSZ
 40
0.0
  9
$DIMTOL
 70
0
  9
$DIMLIM
 70
0
  9
$DIMTIH
 70
0
  9
$DIMTOH
 70
0
  9
$DIMSE1
 70
0
  9
$DIMSE2
 70
0
  9
$DIMTAD
 70
1
  9
$DIMZIN
 70
8
  9
$DIMBLK
  1

  9
$DIMASO
 70
1
  9
$DIMSHO
 70
1
  9
$DIMPOST
  1

  9
$DIMAPOST
  1

  9
$DIMALT
 70
0
  9
$DIMALTD
 70
3
  9
$DIMALTF
 40
0.03937007874
  9
$DIMLFAC
 40
1.0
  9
$DIMTOFL
 70
1
  9
$DIMTVP
 40
0.0
  9
$DIMTIX
 70
0
  9
$DIMSOXD
 70
0
  9
$DIMSAH
 70
0
  9
$DIMBLK1
  1

  9
$DIMBLK2
  1

  9
$DIMSTYLE
  2
ISO-25
  9
$DIMCLRD
 70
0
  9
$DIMCLRE
 70
0
  9
$DIMCLRT
 70
0
  9
$DIMTFAC
 40
1.0
  9
$DIMGAP
 40
0.625
  9
$DIMJUST
 70
0
  9
$DIMSD1
 70
0
  9
$DIMSD2
 70
0
  9
$DIMTOLJ
 70
0
  9
$DIMTZIN
 70
8
  9
$DIMALTZ
 70
0
  9
$DIMALTTZ
 70
0
  9
$DIMUPT
 70
0
  9
$DIMDEC
 70
2
  9
$DIMTDEC
 70
2
  9
$DIMALTU
 70
2
  9
$DIMALTTD
 70
3
  9
$DIMTXSTY
  7
Standard
  9
$DIMAUNIT
 70
0
  9
$DIMADEC
 70
0
  9
$DIMALTRND
 40
0.0
  9
$DIMAZIN
 70
0
  9
$DIMDSEP
 70
44
  9
$DIMATFIT
 70
3
  9
$DIMFRAC
 70
0
  9
$DIMLDRBLK
  1

  9
$DIMLUNIT
 70
2
  9
$DIMLWD
 70
-2
  9
$DIMLWE
 70
-2
  9
$DIMTMOVE
 70
0
  9
$DIMFXL
 40
1.0
  9
$DIMFXLON
 70
0
  9
$DIMJOGANG
 40
0.785398163397
  9
$DIMTFILL
 70
0
  9
$DIMTFILLCLR
 70
0
  9
$DIMARCSYM
 70
0
  9
$DIMLTYPE
  6

  9
$DIMLTEX1
  6

  9
$DIMLTEX2
  6

  9
$DIMTXTDIRECTION
 70
0
  9
$LUNITS
 70
2
  9
$LUPREC
 70
4
  9
$SKETCHINC
 40
1.0
  9
$FILLETRAD
 40
10.0
  9
$AUNITS
 70
0
  9
$AUPREC
 70
2
  9
$MENU
  1
.
  9
$ELEVATION
 40
0.0
  9
$PELEVATION
 40
0.0
  9
$THICKNESS
 40
0.0
  9
$LIMCHECK
 70
0
  9
$CHAMFERA
 40
0.0
  9
$CHAMFERB
 40
0.0
  9
$CHAMFERC
 40
0.0
  9
$CHAMFERD
 40
0.0
  9
$SKPOLY
 70
0
  9
$TDCREATE
 40
2460238.574479167
  9
$TDUCREATE
 40
2458532.153996898
  9
$TDUPDATE
 40
2460238.574479167
  9
$TDUUPDATE
 40
2458532.1544311
  9
$TDINDWG
 40
0.0
  9
$TDUSRTIMER
 40
0.0
  9
$USRTIMER
 70
1
  9
$ANGBASE
 50
0.0
  9
$ANGDIR
 70
0
  9
$PDMODE
 70
0
  9
$PDSIZE
 40
0.0
  9
$PLINEWID
 40
0.0
  9
$SPLFRAME
 70
0
  9
$SPLINETYPE
 70
6
  9
$SPLINESEGS
 70
8
  9
$HANDSEED
  5
1A3
  9
$SURFTAB1
 70
6
  9
$SURFTAB2
 70
6
  9
$SURFTYPE
 70
6
  9
$SURFU
 70
6
  9
$SURFV
 70
6
  9
$UCSBASE
  2

  9
$UCSNAME
  2

  9
$UCSORG
 10
0.0
 20
0.0
 30
0.0
  9
$UCSXDIR
 10
1.0
 20
0.0
 30
0.0
  9
$UCSYDIR
 10
0.0
 20
1.0
 30
0.0
  9
$UCSORTHOREF
  2

  9
$UCSORTHOVIEW
 70
0
  9
$UCSORGTOP
 10
0.0
 20
0.0
 30
0.0
  9
$UCSORGBOTTOM
 10
0.0
 20
0.0
 30
0.0
  9
$UCSORGLEFT
 10
0.0
 20
0.0
 30
0.0
  9
$UCSORGRIGHT
 10
0.0
 20
0.0
 30
0.0
  9
$UCSORGFRONT
 10
0.0
 20
0.0
 30
0.0
  9
$UCSORGBACK
 10
0.0
 20
0.0
 30
0.0
  9
$PUCSBASE
  2

  9
$PUCSNAME
  2

  9
$PUCSORG
 10
0.0
 20
0.0
 30
0.0
  9
$PUCSXDIR
 10
1.0
 20
0.0
 30
0.0
  9
$PUCSYDIR
 10
0.0
 20
1.0
 30
0.0
  9
$PUCSORTHOREF
  2

  9
$PUCSORTHOVIEW
 70
0
  9
$PUCSORGTOP
 10
0.0
 20
0.0
 30
0.0
  9
$PUCSORGBOTTOM
 10
0.0
 20
0.0
 30
0.0
  9
$PUCSORGLEFT
 10
0.0
 20
0.0
 30
0.0
  9
$PUCSORGRIGHT
 10
0.0
 20
0.0
 30
0.0
  9
$PUCSORGFRONT
 10
0.0
 20
0.0
 30
0.0
  9
$PUCSORGBACK
 10
0.0
 20
0.0
 30
0.0
  9
$USERI1
 70
0
  9
$USERI2
 70
0
  9
$USERI3
 70
0
  9
$USERI4
 70
0
  9
$USERI5
 70
0
  9
$USERR1
 40
0.0
  9
$USERR2
 40
0.0
  9
$USERR3
 40
0.0
  9
$USERR4
 40
0.0
  9
$USERR5
 40
0.0
  9
$WORLDVIEW
 70
1
  9
$SHADEDGE
 70
3
  9
$SHADEDIF
 70
70
  9
$TILEMODE
 70
1
  9
$MAXACTVP
 70
64
  9
$PINSBASE
 10
0.0
 20
0.0
 30
0.0
  9
$PLIMCHECK
 70
0
  9
$PEXTMIN
 10
1e+20
 20
1e+20
 30
1e+20
  9
$PEXTMAX
 10
-1e+20
 20
-1e+20
 30
-1e+20
  9
$PLIMMIN
 10
0.0
 20
0.0
  9
$PLIMMAX
 10
420.0
 20
297.0
  9
$UNITMODE
 70
0
  9
$VISRETAIN
 70
1
  9
$PLINEGEN
 70
0
  9
$PSLTSCALE
 70
1
  9
$TREEDEPTH
 70
3020
  9
$CMLSTYLE
  2
Standard
  9
$CMLJUST
 70
0
  9
$CMLSCALE
 40
20.0
  9
$PROXYGRAPHICS
 70
1
  9
$MEASUREMENT
 70
1
  9
$CELWEIGHT
370
-1
  9
$ENDCAPS
280
0
  9
$JOINSTYLE
280
0
  9
$LWDISPLAY
290
0
  9
$INSUNITS
 70
6
  9
$HYPERLINKBASE
  1

  9
$STYLESHEET
  1

  9
$XEDIT
290
1
  9
$CEPSNTYPE
380
0
  9
$PSTYLEMODE
290
1
  9
$FINGERPRINTGUID
  2
{BD0415F7-7C86-412E-AB16-9E1AB44F672B}
  9
$VERSIONGUID
  2
{8672722F-1A79-41DC-B4AE-F35CDAAA4CA5}
  9
$EXTNAMES
290
1
  9
$PSVPSCALE
 40
0.0
  9
$OLESTARTUP
290
0
  9
$SORTENTS
280
127
  9
$INDEXCTL
280
0
  9
$HIDETEXT
280
1
  9
$XCLIPFRAME
280
0
  9
$HALOGAP
280
0
  9
$OBSCOLOR
 70
257
  9
$OBSLTYPE
280
0
  9
$INTERSECTIONDISPLAY
280
0
  9
$INTERSECTIONCOLOR
 70
257
  9
$DIMASSOC
280
2
  9
$PROJECTNAME
  1

  9
$CAMERADISPLAY
290
0
  9
$LENSLENGTH
 40
50.0
  9
$CAMERAHEIGHT
 40
0.0
  9
$STEPSPERSEC
 40
24.0
  9
$STEPSIZE
 40
100.0
  9
$3DDWFPREC
 40
2.0
  9
$PSOLWIDTH
 40
0.005
  9
$PSOLHEIGHT
 40
0.08
  9
$LOFTANG1
 40
1.570796326795
  9
$LOFTANG2
 40
1.570796326795
  9
$LOFTMAG1
 40
0.0
  9
$LOFTMAG2
 40
0.0
  9
$LOFTPARAM
 70
7
  9
$LOFTNORMALS
280
1
  9
$LATITUDE
 40
37.795
  9
$LONGITUDE
 40
-122.394
  9
$NORTHDIRECTION
 40
0.0
  9
$TIMEZONE
 70
-8000
  9
$LIGHTGLYPHDISPLAY
280
1
  9
$TILEMODELIGHTSYNCH
280
1
  9
$CMATERIAL
347
20
  9
$SOLIDHIST
280
0
  9
$SHOWHIST
280
1
  9
$DWFFRAME
280
2
  9
$DGNFRAME
280
2
  9
$REALWORLDSCALE
290
1
  9
$INTERFERECOLOR
 62
256
  9
$CSHADOW
280
0
  9
$SHADOWPLANELOCATION
 40
0.0
  0
ENDSEC
  0
SECTION
  2
CLASSES
  0
CLASS
  1
ACDBDICTIONARYWDFLT
  2
AcDbDictionaryWithDefault
  3
ObjectDBX Classes
 90
0
 91
0
280
0
281
0
  0
CLASS
  1
SUN
  2
AcDbSun
  3
SCENEOE
 90
1153
 91
0
280
0
281
0
  0
CLASS
  1
VISUALSTYLE
  2
AcDbVisualStyle
  3
ObjectDBX Classes
 90
4095
 91
0
280
0
281
0
  0
CLASS
  1
MATERIAL
  2
AcDbMaterial
  3
ObjectDBX Classes
 90
1153
 91
0
280
0
281
0
  0
CLASS
  1
SCALE
  2
AcDbScale
  3
ObjectDBX Classes
 90
1153
 91
0
280
0
281
0
  0
CLASS
  1
TABLESTYLE
  2
AcDbTableStyle
  3
ObjectDBX Classes
 90
4095
 91
0
280
0
281
0
  0
CLASS
  1
MLEADERSTYLE
  2
AcDbMLeaderStyle
  3
ACDB_MLEADERSTYLE_CLASS
 90
4095
 91
0
280
0
281
0
  0
CLASS
  1
DICTIONARYVAR
  2
AcDbDictionaryVar
  3
ObjectDBX Classes
 90
0
 91
0
280
0
281
0
  0
CLASS
  1
CELLSTYLEMAP
  2
AcDbCellStyleMap
  3
ObjectDBX Classes
 90
1152
 91
0
280
0
281
0
  0
CLASS
  1
MENTALRAYRENDERSETTINGS
  2
AcDbMentalRayRenderSettings
  3
SCENEOE
 90
1024
 91
0
280
0
281
0
  0
CLASS
  1
ACDBDETAILVIEWSTYLE
  2
AcDbDetailViewStyle
  3
ObjectDBX Classes
 90
1025
 91
0
280
0
281
0
  0
CLASS
  1
ACDBSECTIONVIEWSTYLE
  2
AcDbSectionViewStyle
  3
ObjectDBX Classes
 90
1025
 91
0
280
0
281
0
  0
CLASS
  1
RASTERVARIABLES
  2
AcDbRasterVariables
  3
ISM
 90
0
 91
0
280
0
281
0
  0
CLASS
  1
ACDBPLACEHOLDER
  2
AcDbPlaceHolder
  3
ObjectDBX Classes
 90
0
 91
0
280
0
281
0
  0
CLASS
  1
LAYOUT
  2
AcDbLayout
  3
ObjectDBX Classes
 90
0
 91
0
280
0
281
0
  0
ENDSEC
  0
SECTION
  2
TABLES
  0
TABLE
  2
VPORT
  5
8
330
0
100
AcDbSymbolTable
 70
1
  0
VPORT
  5
23
330
8
100
AcDbSymbolTableRecord
100
AcDbViewportTableRecord
  2
*Active
 70
0
 10
0.0
 20
0.0
 11
1.0
 21
1.0
 12
0.0
 22
0.0
 13
0.0
 23
0.0
 14
0.5
 24
0.5
 15
0.5
 25
0.5
 16
0.0
 26
0.0
 36
1.0
 17
0.0
 27
0.0
 37
0.0
 40
1000.0
 41
1.34
 42
50.0
 43
0.0
 44
0.0
 50
0.0
 51
0.0
 71
0
 72
1000
 73
1
 74
3
 75
0
 76
0
 77
0
 78
0
281
0
 65
0
146
0.0
  0
ENDTAB
  0
TABLE
  2
LTYPE
  5
2
330
0
100
AcDbSymbolTable
 70
3
  0
LTYPE
  5
24
330
2
100
AcDbSymbolTableRecord
100
AcDbLinetypeTableRecord
  2
ByBlock
 70
0
  3

 72
65
 73
0
 40
0.0
  0
LTYPE
  5
25
330
2
100
AcDbSymbolTableRecord
100
AcDbLinetypeTableRecord
  2
ByLayer
 70
0
  3

 72
65
 73
0
 40
0.0
  0
LTYPE
  5
26
330
2
100
AcDbSymbolTableRecord
100
AcDbLinetypeTableRecord
  2
Continuous
 70
0
  3

 72
65
 73
0
 40
0.0
  0
ENDTAB
  0
TABLE
  2
LAYER
  5
1
330
0
100
AcDbSymbolTable
 70
5
  0
LAYER
  5
27
330
1
100
AcDbSymbolTableRecord
100
AcDbLayerTableRecord
  2
0
 70
0
 62
7
  6
Continuous
370
-3
390
13
347
21
  0
LAYER
  5
28
330
1
100
AcDbSymbolTableRecord
100
AcDbLayerTableRecord
  2
Defpoints
 70
0
 62
7
  6
Continuous
290
0
370
-3
390
13
347
21
  0
LAYER
  5
30
330
1
100
AcDbSymbolTableRecord
100
AcDbLayerTableRecord
  2
FoilLayer
 70
0
 62
1
  6
Continuous
370
50
390
13
347
21
  0
LAYER
  5
31
330
1
100
AcDbSymbolTableRecord
100
AcDbLayerTableRecord
  2
StringerLayer
 70
0
 62
1
  6
Continuous
370
50
390
13
347
21
  0
LAYER
  5
32
330
1
100
AcDbSymbolTableRecord
100
AcDbLayerTableRecord
  2
SubLayer
 70
0
 62
1
  6
Continuous
370
50
390
13
347
21
  0
ENDTAB
  0
TABLE
  2
STYLE
  5
5
330
0
100
AcDbSymbolTable
 70
2
  0
STYLE
  5
29
330
5
100
AcDbSymbolTableRecord
100
AcDbTextStyleTableRecord
  2
Standard
 70
0
 40
0.0
 41
1.0
 50
0.0
 71
0
 42
2.5
  3
txt
  4

  0
STYLE
  5
2F
330
5
100
AcDbSymbolTableRecord
100
AcDbTextStyleTableRecord
  2
MSゴシック
 70
0
 40
0.0
 41
1.0
 50
0.0
 71
0
 42
2.5
  3
romans
  4

  0
ENDTAB
  0
TABLE
  2
VIEW
  5
7
330
0
100
AcDbSymbolTable
 70
0
  0
ENDTAB
  0
TABLE
  2
UCS
  5
6
330
0
100
AcDbSymbolTable
 70
0
  0
ENDTAB
  0
TABLE
  2
APPID
  5
3
330
0
100
AcDbSymbolTable
 70
3
  0
APPID
  5
2A
330
3
100
AcDbSymbolTableRecord
100
AcDbRegAppTableRecord
  2
ACAD
 70
0
  0
APPID
  5
1A0
330
3
100
AcDbSymbolTableRecord
100
AcDbRegAppTableRecord
  2
HATCHBACKGROUNDCOLOR
 70
0
  0
APPID
  5
1A1
330
3
100
AcDbSymbolTableRecord
100
AcDbRegAppTableRecord
  2
EZDXF
 70
0
  0
ENDTAB
  0
TABLE
  2
DIMSTYLE
  5
4
330
0
100
AcDbSymbolTable
 70
1
100
AcDbDimStyleTable
  0
DIMSTYLE
105
2B
330
4
100
AcDbSymbolTableRecord
100
AcDbDimStyleTableRecord
  2
Standard
 70
0
 40
1.0
 41
2.5
 42
0.625
 43
3.75
 44
1.25
 45
0.0
 46
0.0
 47
0.0
 48
0.0
 49
2.5
140
2.5
141
2.5
142
0.0
143
0.03937007874
144
1.0
145
0.0
146
1.0
147
0.625
148
0.0
 69
0
 70
0
 71
0
 72
0
 73
0
 74
0
 75
0
 76
0
 77
1
 78
8
 79
3
170
0
171
3
172
1
173
0
174
0
175
0
176
0
177
0
178
0
179
2
271
2
272
2
273
2
274
3
275
0
276
0
277
2
278
44
279
0
280
0
281
0
282
0
283
0
284
8
285
0
286
0
288
0
289
3
290
0
371
-2
372
-2
  0
ENDTAB
  0
TABLE
  2
BLOCK_RECORD
  5
9
330
0
100
AcDbSymbolTable
 70
2
  0
BLOCK_RECORD
  5
17
330
9
100
AcDbSymbolTableRecord
100
AcDbBlockTableRecord
  2
*Model_Space
340
1A
 70
0
280
1
281
0
  0
BLOCK_RECORD
  5
1B
330
9
100
AcDbSymbolTableRecord
100
AcDbBlockTableRecord
  2
*Paper_Space
340
1E
 70
0
280
1
281
0
  0
ENDTAB
  0
ENDSEC
  0
SECTION
  2
BLOCKS
  0
BLOCK
  5
18
330
17
100
AcDbEntity
  8
0
100
AcDbBlockBegin
  2
*Model_Space
 70
0
 10
0.0
 20
0.0
 30
0.0
  3
*Model_Space
  1

  0
ENDBLK
  5
19
330
17
100
AcDbEntity
  8
0
100
AcDbBlockEnd
  0
BLOCK
  5
1C
330
1B
100
AcDbEntity
  8
0
100
AcDbBlockBegin
  2
*Paper_Space
 70
0
 10
0.0
 20
0.0
 30
0.0
  3
*Paper_Space
  1

  0
ENDBLK
  5
1D
330
1B
100
AcDbEntity
  8
0
100
AcDbBlockEnd
  0
ENDSEC
  0
SECTION
  2
ENTITIES
  0
LINE
  5
33
330
17
100
AcDbEntity
  8
FoilLayer
100
AcDbLine
 10
281.49224890082667
 20
48.48074963819268
 30
0.0
 11
35.25000000000003
 21
-9.138766604312679
 31
0.0
  0
LINE
  5
34
330
17
100
AcDbEntity
  8
FoilLayer
100
AcDbLine
 10
458.2499999999999
 20
0.03525105753172594
 30
0.0
 11
458.108995769873
 21
0.08460253807614225
 31
0.0
  0
LINE
  5
35
330
17
100
AcDbEntity
  8
FoilLayer
100
AcDbLine
 10
458.108995769873
 20
0.08460253807614225
 30
0.0
 11
457.69303329099864
 21
0.22560676820304598
 31
0.0
  0
LINE
  5
36
330
17
100
AcDbEntity
  8
FoilLayer
100
AcDbLine
 10
457.69303329099864
 20
0.22560676820304598
 30
0.0
 11
457.0303134094022
 21
0.4582637479124373
 31
0.0
  0
LINE
  5
37
330
17
100
AcDbEntity
  8
FoilLayer
100
AcDbLine
 10
457.0303134094022
 20
0.4582637479124373
 30
0.0
 11
456.12083612508366
 21
0.7755232656979706
 31
0.0
  0
LINE
  5
38
330
17
100
AcDbEntity
  8
FoilLayer
100
AcDbLine
 10
456.12083612508366
 20
0.7755232656979706
 30
0.0
 11
454.9787018610558
 21
1.1703351100533013
 31
0.0
  0
LINE
  5
39
330
17
100
AcDbEntity
  8
FoilLayer
100
AcDbLine
 10
454.9787018610558
 20
1.1703351100533013
 30
0.0
 11
453.60391061731843
 21
1.6426992809784289
 31
0.0
  0
LINE
  5
3A
330
17
100
AcDbEntity
  8
FoilLayer
100
AcDbLine
 10
453.60391061731843
 20
1.6426992809784289
 30
0.0
 11
452.0105628168843
 21
2.178515355460663
 31
0.0
  0
LINE
  5
3B
330
17
100
AcDbEntity
  8
FoilLayer
100
AcDbLine
 10
452.0105628168843
 20
2.178515355460663
 30
0.0
 11
450.19160824824735
 21
2.7848335450063497
 31
0.0
  0
LINE
  5
3C
330
17
100
AcDbEntity
  8
FoilLayer
100
AcDbLine
 10
450.19160824824735
 20
2.7848335450063497
 30
0.0
 11
448.16114733441987
 21
3.4616538496154874
 31
0.0
  0
LINE
  5
3D
330
17
100
AcDbEntity
  8
FoilLayer
100
AcDbLine
 10
448.16114733441987
 20
3.4616538496154874
 30
0.0
 11
445.9191800754021
 21
4.187825634769042
 31
0.0
  0
LINE
  5
3E
330
17
100
AcDbEntity
  8
FoilLayer
100
AcDbLine
 10
445.9191800754021
 20
4.187825634769042
 30
0.0
 11
443.46570647119404
 21
4.9774493234797035
 31
0.0
  0
LINE
  5
3F
330
17
100
AcDbEntity
  8
FoilLayer
100
AcDbLine
 10
443.46570647119404
 20
4.9774493234797035
 30
0.0
 11
440.80072652179547
 21
5.816424492734779
 31
0.0
  0
LINE
  5
40
330
17
100
AcDbEntity
  8
FoilLayer
100
AcDbLine
 10
440.80072652179547
 20
5.816424492734779
 30
0.0
 11
437.93129043871306
 21
6.704751142534274
 31
0.0
  0
LINE
  5
41
330
17
100
AcDbEntity
  8
FoilLayer
100
AcDbLine
 10
437.93129043871306
 20
6.704751142534274
 30
0.0
 11
434.85034801044014
 21
7.649479484384529
 31
0.0
  0
LINE
  5
42
330
17
100
AcDbEntity
  8
FoilLayer
100
AcDbLine
 10
434.85034801044014
 20
7.649479484384529
 30
0.0
 11
431.57199965998973
 21
8.643559306779201
 31
0.0
  0
LINE
  5
43
330
17
100
AcDbEntity
  8
FoilLayer
100
AcDbLine
 10
431.57199965998973
 20
8.643559306779201
 30
0.0
 11
428.0962453873616
 21
9.679940398211942
 31
0.0
  0
LINE
  5
44
330
17
100
AcDbEntity
  8
FoilLayer
100
AcDbLine
 10
428.0962453873616
 20
9.679940398211942
 30
0.0
 11
424.4230851925556
 21
10.765672970189101
 31
0.0
  0
LINE
  5
45
330
17
100
AcDbEntity
  8
FoilLayer
100
AcDbLine
 10
424.4230851925556
 20
10.765672970189101
 30
0.0
 11
420.55251907557215
 21
11.89370681120433
 31
0.0
  0
LINE
  5
46
330
17
100
AcDbEntity
  8
FoilLayer
100
AcDbLine
 10
420.55251907557215
 20
11.89370681120433
 30
0.0
 11
416.48454703641096
 21
13.064041921257635
 31
0.0
  0
LINE
  5
47
330
17
100
AcDbEntity
  8
FoilLayer
100
AcDbLine
 10
416.48454703641096
 20
13.064041921257635
 30
0.0
 11
412.2262192865785
 21
14.276678300349005
 31
0.0
  0
LINE
  5
48
330
17
100
AcDbEntity
  8
FoilLayer
100
AcDbLine
 10
412.2262192865785
 20
14.276678300349005
 30
0.0
 11
407.77753582607465
 21
15.54571637149114
 31
0.0
  0
LINE
  5
49
330
17
100
AcDbEntity
  8
FoilLayer
100
AcDbLine
 10
407.77753582607465
 20
15.54571637149114
 30
0.0
 11
403.1455468664059
 21
16.857055711671343
 31
0.0
  0
LINE
  5
4A
330
17
100
AcDbEntity
  8
FoilLayer
100
AcDbLine
 10
403.1455468664059
 20
16.857055711671343
 30
0.0
 11
398.34435283058485
 21
18.22479674390231
 31
0.0
  0
LINE
  5
4B
330
17
100
AcDbEntity
  8
FoilLayer
100
AcDbLine
 10
398.34435283058485
 20
18.22479674390231
 30
0.0
 11
393.37395371861146
 21
19.627788833665004
 31
0.0
  0
LINE
  5
4C
330
17
100
AcDbEntity
  8
FoilLayer
100
AcDbLine
 10
393.37395371861146
 20
19.627788833665004
 30
0.0
 11
388.2272993189795
 21
21.08013240397211
 31
0.0
  0
LINE
  5
4D
330
17
100
AcDbEntity
  8
FoilLayer
100
AcDbLine
 10
388.2272993189795
 20
21.08013240397211
 30
0.0
 11
382.9255402662078
 21
22.574777243317293
 31
0.0
  0
LINE
  5
4E
330
17
100
AcDbEntity
  8
FoilLayer
100
AcDbLine
 10
382.9255402662078
 20
22.574777243317293
 30
0.0
 11
377.4686765602968
 21
24.118773563206886
 31
0.0
  0
LINE
  5
4F
330
17
100
AcDbEntity
  8
FoilLayer
100
AcDbLine
 10
377.4686765602968
 20
24.118773563206886
 30
0.0
 11
371.87080862425864
 21
25.698020940628204
 31
0.0
  0
LINE
  5
50
330
17
100
AcDbEntity
  8
FoilLayer
100
AcDbLine
 10
371.87080862425864
 20
25.698020940628204
 30
0.0
 11
366.1319364580937
 21
27.319569587087603
 31
0.0
  0
LINE
  5
51
330
17
100
AcDbEntity
  8
FoilLayer
100
AcDbLine
 10
366.1319364580937
 20
27.319569587087603
 30
0.0
 11
360.2520600618018
 21
28.969319079572376
 31
0.0
  0
LINE
  5
52
330
17
100
AcDbEntity
  8
FoilLayer
100
AcDbLine
 10
360.2520600618018
 20
28.969319079572376
 30
0.0
 11
354.23117943538296
 21
30.654319629588876
 31
0.0
  0
LINE
  5
53
330
17
100
AcDbEntity
  8
FoilLayer
100
AcDbLine
 10
354.23117943538296
 20
30.654319629588876
 30
0.0
 11
348.09044521335636
 21
32.3745712371371
 31
0.0
  0
LINE
  5
54
330
17
100
AcDbEntity
  8
FoilLayer
100
AcDbLine
 10
348.09044521335636
 20
32.3745712371371
 30
0.0
 11
341.8369076072281
 21
34.13007390221705
 31
0.0
  0
LINE
  5
55
330
17
100
AcDbEntity
  8
FoilLayer
100
AcDbLine
 10
341.8369076072281
 20
34.13007390221705
 30
0.0
 11
335.4776168285048
 21
35.90672720181604
 31
0.0
  0
LINE
  5
56
330
17
100
AcDbEntity
  8
FoilLayer
100
AcDbLine
 10
335.4776168285048
 20
35.90672720181604
 30
0.0
 11
329.0055226656799
 21
37.69748092442772
 31
0.0
  0
LINE
  5
57
330
17
100
AcDbEntity
  8
FoilLayer
100
AcDbLine
 10
329.0055226656799
 20
37.69748092442772
 30
0.0
 11
322.42767533025983
 21
39.50938528155844
 31
0.0
  0
LINE
  5
58
330
17
100
AcDbEntity
  8
FoilLayer
100
AcDbLine
 10
322.42767533025983
 20
39.50938528155844
 30
0.0
 11
315.751125033751
 21
41.342440273208176
 31
0.0
  0
LINE
  5
59
330
17
100
AcDbEntity
  8
FoilLayer
100
AcDbLine
 10
315.751125033751
 20
41.342440273208176
 30
0.0
 11
308.9899721991659
 21
43.19664589937696
 31
0.0
  0
LINE
  5
5A
330
17
100
AcDbEntity
  8
FoilLayer
100
AcDbLine
 10
308.9899721991659
 20
43.19664589937696
 30
0.0
 11
302.15126703801104
 21
45.064951948558445
 31
0.0
  0
LINE
  5
5B
330
17
100
AcDbEntity
  8
FoilLayer
100
AcDbLine
 10
302.15126703801104
 20
45.064951948558445
 30
0.0
 11
295.2420597617928
 21
46.91915757472723
 31
0.0
  0
LINE
  5
5C
330
17
100
AcDbEntity
  8
FoilLayer
100
AcDbLine
 10
295.2420597617928
 20
46.91915757472723
 30
0.0
 11
288.2553001590047
 21
48.77336320089601
 31
0.0
  0
LINE
  5
5D
330
17
100
AcDbEntity
  8
FoilLayer
100
AcDbLine
 10
288.2553001590047
 20
48.77336320089601
 30
0.0
 11
281.9999999999999
 21
50.415223422271524
 31
0.0
  0
LINE
  5
5E
330
17
100
AcDbEntity
  8
FoilLayer
100
AcDbLine
 10
281.9999999999999
 20
50.415223422271524
 30
0.0
 11
281.49224890082667
 21
48.48074963819268
 31
0.0
  0
LINE
  5
5F
330
17
100
AcDbEntity
  8
FoilLayer
100
AcDbLine
 10
281.49224890082667
 20
48.48074963819268
 30
0.0
 11
280.6905943994868
 21
48.69117888319042
 31
0.0
  0
LINE
  5
60
330
17
100
AcDbEntity
  8
FoilLayer
100
AcDbLine
 10
280.6905943994868
 20
48.69117888319042
 30
0.0
 11
273.5771436245934
 21
50.52942176775103
 31
0.0
  0
LINE
  5
61
330
17
100
AcDbEntity
  8
FoilLayer
100
AcDbLine
 10
273.5771436245934
 20
50.52942176775103
 30
0.0
 11
266.408978142013
 21
52.35317150264645
 31
0.0
  0
LINE
  5
62
330
17
100
AcDbEntity
  8
FoilLayer
100
AcDbLine
 10
266.408978142013
 20
52.35317150264645
 30
0.0
 11
259.1851687020833
 21
54.1556292488885
 31
0.0
  0
LINE
  5
63
330
17
100
AcDbEntity
  8
FoilLayer
100
AcDbLine
 10
259.1851687020833
 20
54.1556292488885
 30
0.0
 11
251.88901844674476
 21
55.93742798463262
 31
0.0
  0
LINE
  5
64
330
17
100
AcDbEntity
  8
FoilLayer
100
AcDbLine
 10
251.88901844674476
 20
55.93742798463262
 30
0.0
 11
244.5469821574575
 21
57.69895799363489
 31
0.0
  0
LINE
  5
65
330
17
100
AcDbEntity
  8
FoilLayer
100
AcDbLine
 10
244.5469821574575
 20
57.69895799363489
 30
0.0
 11
237.16839029609682
 21
59.45210490013315
 31
0.0
  0
LINE
  5
66
330
17
100
AcDbEntity
  8
FoilLayer
100
AcDbLine
 10
237.16839029609682
 20
59.45210490013315
 30
0.0
 11
229.77038708247542
 21
61.169661612606596
 31
0.0
  0
LINE
  5
67
330
17
100
AcDbEntity
  8
FoilLayer
100
AcDbLine
 10
229.77038708247542
 20
61.169661612606596
 30
0.0
 11
222.35336327918722
 21
62.84452539320567
 31
0.0
  0
LINE
  5
68
330
17
100
AcDbEntity
  8
FoilLayer
100
AcDbLine
 10
222.35336327918722
 20
62.84452539320567
 30
0.0
 11
214.9137628228706
 21
64.4689635633469
 31
0.0
  0
LINE
  5
69
330
17
100
AcDbEntity
  8
FoilLayer
100
AcDbLine
 10
214.9137628228706
 20
64.4689635633469
 30
0.0
 11
207.433902245094
 21
66.02409879315432
 31
0.0
  0
LINE
  5
6A
330
17
100
AcDbEntity
  8
FoilLayer
100
AcDbLine
 10
207.433902245094
 20
66.02409879315432
 30
0.0
 11
199.91062179454238
 21
67.5302099393804
 31
0.0
  0
LINE
  5
6B
330
17
100
AcDbEntity
  8
FoilLayer
100
AcDbLine
 10
199.91062179454238
 20
67.5302099393804
 30
0.0
 11
192.36859065615945
 21
68.98661943384761
 31
0.0
  0
LINE
  5
6C
330
17
100
AcDbEntity
  8
FoilLayer
100
AcDbLine
 10
192.36859065615945
 20
68.98661943384761
 30
0.0
 11
184.79206498483856
 21
70.3866250665924
 31
0.0
  0
LINE
  5
6D
330
17
100
AcDbEntity
  8
FoilLayer
100
AcDbLine
 10
184.79206498483856
 20
70.3866250665924
 30
0.0
 11
177.2020443927677
 21
71.72322091344469
 31
0.0
  0
LINE
  5
6E
330
17
100
AcDbEntity
  8
FoilLayer
100
AcDbLine
 10
177.2020443927677
 20
71.72322091344469
 30
0.0
 11
169.583490213872
 21
72.99657093251112
 31
0.0
  0
LINE
  5
6F
330
17
100
AcDbEntity
  8
FoilLayer
100
AcDbLine
 10
169.583490213872
 20
72.99657093251112
 30
0.0
 11
161.94402620527077
 21
74.20657992289361
 31
0.0
  0
LINE
  5
70
330
17
100
AcDbEntity
  8
FoilLayer
100
AcDbLine
 10
161.94402620527077
 20
74.20657992289361
 30
0.0
 11
154.2758014736402
 21
75.35336641980439
 31
0.0
  0
LINE
  5
71
330
17
100
AcDbEntity
  8
FoilLayer
100
AcDbLine
 10
154.2758014736402
 20
75.35336641980439
 30
0.0
 11
146.5932377956672
 21
76.4368729491266
 31
0.0
  0
LINE
  5
72
330
17
100
AcDbEntity
  8
FoilLayer
100
AcDbLine
 10
146.5932377956672
 20
76.4368729491266
 30
0.0
 11
138.9038692149023
 21
77.45703291496379
 31
0.0
  0
LINE
  5
73
330
17
100
AcDbEntity
  8
FoilLayer
100
AcDbLine
 10
138.9038692149023
 20
77.45703291496379
 30
0.0
 11
131.20018399619462
 21
78.41390552164384
 31
0.0
  0
LINE
  5
74
330
17
100
AcDbEntity
  8
FoilLayer
100
AcDbLine
 10
131.20018399619462
 20
78.41390552164384
 30
0.0
 11
123.49305026586487
 21
79.30707754400983
 31
0.0
  0
LINE
  5
75
330
17
100
AcDbEntity
  8
FoilLayer
100
AcDbLine
 10
123.49305026586487
 20
79.30707754400983
 30
0.0
 11
115.77530064455257
 21
80.12324279337804
 31
0.0
  0
LINE
  5
76
330
17
100
AcDbEntity
  8
FoilLayer
100
AcDbLine
 10
115.77530064455257
 20
80.12324279337804
 30
0.0
 11
108.04855002278819
 21
80.87626634748914
 31
0.0
  0
LINE
  5
77
330
17
100
AcDbEntity
  8
FoilLayer
100
AcDbLine
 10
108.04855002278819
 20
80.87626634748914
 30
0.0
 11
100.32528779511765
 21
81.57270680260271
 31
0.0
  0
LINE
  5
78
330
17
100
AcDbEntity
  8
FoilLayer
100
AcDbLine
 10
100.32528779511765
 20
81.57270680260271
 30
0.0
 11
92.60552688284693
 21
82.19906550107781
 31
0.0
  0
LINE
  5
79
330
17
100
AcDbEntity
  8
FoilLayer
100
AcDbLine
 10
92.60552688284693
 20
82.19906550107781
 30
0.0
 11
84.89625886437287
 21
82.76889928255369
 31
0.0
  0
LINE
  5
7A
330
17
100
AcDbEntity
  8
FoilLayer
100
AcDbLine
 10
84.89625886437287
 20
82.76889928255369
 30
0.0
 11
77.20837245937125
 21
83.26837680013331
 31
0.0
  0
LINE
  5
7B
330
17
100
AcDbEntity
  8
FoilLayer
100
AcDbLine
 10
77.20837245937125
 20
83.26837680013331
 30
0.0
 11
69.53467997799052
 21
83.6975104907008
 31
0.0
  0
LINE
  5
7C
330
17
100
AcDbEntity
  8
FoilLayer
100
AcDbLine
 10
69.53467997799052
 20
83.6975104907008
 30
0.0
 11
61.873270733847875
 21
84.05637565142295
 31
0.0
  0
LINE
  5
7D
330
17
100
AcDbEntity
  8
FoilLayer
100
AcDbLine
 10
61.873270733847875
 20
84.05637565142295
 30
0.0
 11
54.233061510033195
 21
84.35192007519005
 31
0.0
  0
LINE
  5
7E
330
17
100
AcDbEntity
  8
FoilLayer
100
AcDbLine
 10
54.233061510033195
 20
84.35192007519005
 30
0.0
 11
46.62110390019356
 21
84.58414482938818
 31
0.0
  0
LINE
  5
7F
330
17
100
AcDbEntity
  8
FoilLayer
100
AcDbLine
 10
46.62110390019356
 20
84.58414482938818
 30
0.0
 11
39.05355770851318
 21
84.75302311964342
 31
0.0
  0
LINE
  5
80
330
17
100
AcDbEntity
  8
FoilLayer
100
AcDbLine
 10
39.05355770851318
 20
84.75302311964342
 30
0.0
 11
31.514343512745967
 21
84.85156962663143
 31
0.0
  0
LINE
  5
81
330
17
100
AcDbEntity
  8
FoilLayer
100
AcDbLine
 10
31.514343512745967
 20
84.85156962663143
 30
0.0
 11
24.019505074279692
 21
84.87979983697953
 31
0.0
  0
LINE
  5
82
330
17
100
AcDbEntity
  8
FoilLayer
100
AcDbLine
 10
24.019505074279692
 20
84.87979983697953
 30
0.0
 11
16.54740429452889
 21
84.83060665072077
 31
0.0
  0
LINE
  5
83
330
17
100
AcDbEntity
  8
FoilLayer
100
AcDbLine
 10
16.54740429452889
 20
84.83060665072077
 30
0.0
 11
9.11785727626463
 21
84.72513321721004
 31
0.0
  0
LINE
  5
84
330
17
100
AcDbEntity
  8
FoilLayer
100
AcDbLine
 10
9.11785727626463
 20
84.72513321721004
 30
0.0
 11
1.7487217917410192
 21
84.56350102600794
 31
0.0
  0
LINE
  5
85
330
17
100
AcDbEntity
  8
FoilLayer
100
AcDbLine
 10
1.7487217917410192
 20
84.56350102600794
 30
0.0
 11
-5.572510339877795
 21
84.3314973478454
 31
0.0
  0
LINE
  5
86
330
17
100
AcDbEntity
  8
FoilLayer
100
AcDbLine
 10
-5.572510339877795
 20
84.3314973478454
 30
0.0
 11
-12.819307937671027
 21
84.03640451241813
 31
0.0
  0
LINE
  5
87
330
17
100
AcDbEntity
  8
FoilLayer
100
AcDbLine
 10
-12.819307937671027
 20
84.03640451241813
 30
0.0
 11
-20.020281121111083
 21
83.66378331684275
 31
0.0
  0
LINE
  5
88
330
17
100
AcDbEntity
  8
FoilLayer
100
AcDbLine
 10
-20.020281121111083
 20
83.66378331684275
 30
0.0
 11
-27.164591788356233
 21
83.22789960623997
 31
0.0
  0
LINE
  5
89
330
17
100
AcDbEntity
  8
FoilLayer
100
AcDbLine
 10
-27.164591788356233
 20
83.22789960623997
 30
0.0
 11
-34.25374960847384
 21
82.72864087421087
 31
0.0
  0
LINE
  5
8A
330
17
100
AcDbEntity
  8
FoilLayer
100
AcDbLine
 10
-34.25374960847384
 20
82.72864087421087
 30
0.0
 11
-41.26482603054137
 21
82.1731808946804
 31
0.0
  0
LINE
  5
8B
330
17
100
AcDbEntity
  8
FoilLayer
100
AcDbLine
 10
-41.26482603054137
 20
82.1731808946804
 30
0.0
 11
-48.18705084323892
 21
81.56190142506175
 31
0.0
  0
LINE
  5
8C
330
17
100
AcDbEntity
  8
FoilLayer
100
AcDbLine
 10
-48.18705084323892
 20
81.56190142506175
 30
0.0
 11
-55.02948175865478
 21
80.88062055010796
 31
0.0
  0
LINE
  5
8D
330
17
100
AcDbEntity
  8
FoilLayer
100
AcDbLine
 10
-55.02948175865478
 20
80.88062055010796
 30
0.0
 11
-61.80690079990771
 21
80.1214165492301
 31
0.0
  0
LINE
  5
8E
330
17
100
AcDbEntity
  8
FoilLayer
100
AcDbLine
 10
-61.80690079990771
 20
80.1214165492301
 30
0.0
 11
-68.50611993449348
 21
79.3060803200384
 31
0.0
  0
LINE
  5
8F
330
17
100
AcDbEntity
  8
FoilLayer
100
AcDbLine
 10
-68.50611993449348
 20
79.3060803200384
 30
0.0
 11
-75.12030892595303
 21
78.43460087217603
 31
0.0
  0
LINE
  5
90
330
17
100
AcDbEntity
  8
FoilLayer
100
AcDbLine
 10
-75.12030892595303
 20
78.43460087217603
 30
0.0
 11
-81.65092711058114
 21
77.50677005608041
 31
0.0
  0
LINE
  5
91
330
17
100
AcDbEntity
  8
FoilLayer
100
AcDbLine
 10
-81.65092711058114
 20
77.50677005608041
 30
0.0
 11
-88.07771937806953
 21
76.53061072079102
 31
0.0
  0
LINE
  5
92
330
17
100
AcDbEntity
  8
FoilLayer
100
AcDbLine
 10
-88.07771937806953
 20
76.53061072079102
 30
0.0
 11
-94.3988560208272
 21
75.49128577744389
 31
0.0
  0
LINE
  5
93
330
17
100
AcDbEntity
  8
FoilLayer
100
AcDbLine
 10
-94.3988560208272
 20
75.49128577744389
 30
0.0
 11
-100.62995697632891
 21
74.38850596531401
 31
0.0
  0
LINE
  5
94
330
17
100
AcDbEntity
  8
FoilLayer
100
AcDbLine
 10
-100.62995697632891
 20
74.38850596531401
 30
0.0
 11
-106.76799686426884
 21
73.22987285309617
 31
0.0
  0
LINE
  5
95
330
17
100
AcDbEntity
  8
FoilLayer
100
AcDbLine
 10
-106.76799686426884
 20
73.22987285309617
 30
0.0
 11
-112.8018353512206
 21
72.01480823414012
 31
0.0
  0
LINE
  5
96
330
17
100
AcDbEntity
  8
FoilLayer
100
AcDbLine
 10
-112.8018353512206
 20
72.01480823414012
 30
0.0
 11
-118.73102118102321
 21
70.75041024039196
 31
0.0
  0
LINE
  5
97
330
17
100
AcDbEntity
  8
FoilLayer
100
AcDbLine
 10
-118.73102118102321
 20
70.75041024039196
 30
0.0
 11
-124.54338193040498
 21
69.4449066276148
 31
0.0
  0
LINE
  5
98
330
17
100
AcDbEntity
  8
FoilLayer
100
AcDbLine
 10
-124.54338193040498
 20
69.4449066276148
 30
0.0
 11
-130.2250931959415
 21
68.09134476784781
 31
0.0
  0
LINE
  5
99
330
17
100
AcDbEntity
  8
FoilLayer
100
AcDbLine
 10
-130.2250931959415
 20
68.09134476784781
 30
0.0
 11
-135.801967974737
 21
66.67454428877949
 31
0.0
  0
LINE
  5
9A
330
17
100
AcDbEntity
  8
FoilLayer
100
AcDbLine
 10
-135.801967974737
 20
66.67454428877949
 30
0.0
 11
-141.2675410548011
 21
65.20135127865143
 31
0.0
  0
LINE
  5
9B
330
17
100
AcDbEntity
  8
FoilLayer
100
AcDbLine
 10
-141.2675410548011
 20
65.20135127865143
 30
0.0
 11
-146.62517329537704
 21
63.67775347385943
 31
0.0
  0
LINE
  5
9C
330
17
100
AcDbEntity
  8
FoilLayer
100
AcDbLine
 10
-146.62517329537704
 20
63.67775347385943
 30
0.0
 11
-151.84862679577046
 21
62.12848472517918
 31
0.0
  0
LINE
  5
9D
330
17
100
AcDbEntity
  8
FoilLayer
100
AcDbLine
 10
-151.84862679577046
 20
62.12848472517918
 30
0.0
 11
-156.9520974917649
 21
60.530389506313455
 31
0.0
  0
LINE
  5
9E
330
17
100
AcDbEntity
  8
FoilLayer
100
AcDbLine
 10
-156.9520974917649
 20
60.530389506313455
 30
0.0
 11
-161.9221783913748
 21
58.89029115375815
 31
0.0
  0
LINE
  5
9F
330
17
100
AcDbEntity
  8
FoilLayer
100
AcDbLine
 10
-161.9221783913748
 20
58.89029115375815
 30
0.0
 11
-166.76964851470558
 21
57.209379315243524
 31
0.0
  0
LINE
  5
A0
330
17
100
AcDbEntity
  8
FoilLayer
100
AcDbLine
 10
-166.76964851470558
 20
57.209379315243524
 30
0.0
 11
-171.48635022180872
 21
55.48553460832756
 31
0.0
  0
LINE
  5
A1
330
17
100
AcDbEntity
  8
FoilLayer
100
AcDbLine
 10
-171.48635022180872
 20
55.48553460832756
 30
0.0
 11
-176.08271839543423
 21
53.72711522591155
 31
0.0
  0
LINE
  5
A2
330
17
100
AcDbEntity
  8
FoilLayer
100
AcDbLine
 10
-176.08271839543423
 20
53.72711522591155
 30
0.0
 11
-180.5428777502247
 21
51.94195001313419
 31
0.0
  0
LINE
  5
A3
330
17
100
AcDbEntity
  8
FoilLayer
100
AcDbLine
 10
-180.5428777502247
 20
51.94195001313419
 30
0.0
 11
-184.86066843844674
 21
50.12979056765617
 31
0.0
  0
LINE
  5
A4
330
17
100
AcDbEntity
  8
FoilLayer
100
AcDbLine
 10
-184.86066843844674
 20
50.12979056765617
 30
0.0
 11
-189.0334440826427
 21
48.29196391139113
 31
0.0
  0
LINE
  5
A5
330
17
100
AcDbEntity
  8
FoilLayer
100
AcDbLine
 10
-189.0334440826427
 20
48.29196391139113
 30
0.0
 11
-193.07018243053312
 21
46.41734397222111
 31
0.0
  0
LINE
  5
A6
330
17
100
AcDbEntity
  8
FoilLayer
100
AcDbLine
 10
-193.07018243053312
 20
46.41734397222111
 30
0.0
 11
-196.9689931546154
 21
44.524265434270944
 31
0.0
  0
LINE
  5
A7
330
17
100
AcDbEntity
  8
FoilLayer
100
AcDbLine
 10
-196.9689931546154
 20
44.524265434270944
 30
0.0
 11
-200.73752888420174
 21
42.601897967955516
 31
0.0
  0
LINE
  5
A8
330
17
100
AcDbEntity
  8
FoilLayer
100
AcDbLine
 10
-200.73752888420174
 20
42.601897967955516
 30
0.0
 11
-204.35098469452376
 21
40.67712878571753
 31
0.0
  0
LINE
  5
A9
330
17
100
AcDbEntity
  8
FoilLayer
100
AcDbLine
 10
-204.35098469452376
 20
40.67712878571753
 30
0.0
 11
-207.82103311661012
 21
38.72959223298574
 31
0.0
  0
LINE
  5
AA
330
17
100
AcDbEntity
  8
FoilLayer
100
AcDbLine
 10
-207.82103311661012
 20
38.72959223298574
 30
0.0
 11
-211.1248320984753
 21
36.7898490504607
 31
0.0
  0
LINE
  5
AB
330
17
100
AcDbEntity
  8
FoilLayer
100
AcDbLine
 10
-211.1248320984753
 20
36.7898490504607
 30
0.0
 11
-214.2822476311672
 21
34.82246278247961
 31
0.0
  0
LINE
  5
AC
330
17
100
AcDbEntity
  8
FoilLayer
100
AcDbLine
 10
-214.2822476311672
 20
34.82246278247961
 30
0.0
 11
-217.28798714329312
 21
32.84020690280476
 31
0.0
  0
LINE
  5
AD
330
17
100
AcDbEntity
  8
FoilLayer
100
AcDbLine
 10
-217.28798714329312
 20
32.84020690280476
 30
0.0
 11
-220.1622449706443
 21
30.84348580167933
 31
0.0
  0
LINE
  5
AE
330
17
100
AcDbEntity
  8
FoilLayer
100
AcDbLine
 10
-220.1622449706443
 20
30.84348580167933
 30
0.0
 11
-222.88219192397716
 21
28.859960311270378
 31
0.0
  0
LINE
  5
AF
330
17
100
AcDbEntity
  8
FoilLayer
100
AcDbLine
 10
-222.88219192397716
 20
28.859960311270378
 30
0.0
 11
-225.4395302351525
 21
26.8857871517817
 31
0.0
  0
LINE
  5
B0
330
17
100
AcDbEntity
  8
FoilLayer
100
AcDbLine
 10
-225.4395302351525
 20
26.8857871517817
 30
0.0
 11
-227.8317297680228
 21
24.929540101171888
 31
0.0
  0
LINE
  5
B1
330
17
100
AcDbEntity
  8
FoilLayer
100
AcDbLine
 10
-227.8317297680228
 20
24.929540101171888
 30
0.0
 11
-230.06425935964216
 21
22.967372178038175
 31
0.0
  0
LINE
  5
B2
330
17
100
AcDbEntity
  8
FoilLayer
100
AcDbLine
 10
-230.06425935964216
 20
22.967372178038175
 30
0.0
 11
-232.146884903053
 21
21.003432617314296
 31
0.0
  0
LINE
  5
B3
330
17
100
AcDbEntity
  8
FoilLayer
100
AcDbLine
 10
-232.146884903053
 20
21.003432617314296
 30
0.0
 11
-234.0766042049854
 21
19.061939513923708
 31
0.0
  0
LINE
  5
B4
330
17
100
AcDbEntity
  8
FoilLayer
100
AcDbLine
 10
-234.0766042049854
 20
19.061939513923708
 30
0.0
 11
-235.85625284517707
 21
17.13291726527243
 31
0.0
  0
LINE
  5
B5
330
17
100
AcDbEntity
  8
FoilLayer
100
AcDbLine
 10
-235.85625284517707
 20
17.13291726527243
 30
0.0
 11
-237.47773562434355
 21
15.248766095387708
 31
0.0
  0
LINE
  5
B6
330
17
100
AcDbEntity
  8
FoilLayer
100
AcDbLine
 10
-237.47773562434355
 20
15.248766095387708
 30
0.0
 11
-238.94113878364644
 21
13.38686588025674
 31
0.0
  0
LINE
  5
B7
330
17
100
AcDbEntity
  8
FoilLayer
100
AcDbLine
 10
-238.94113878364644
 20
13.38686588025674
 30
0.0
 11
-240.2380403346291
 21
11.580988046501846
 31
0.0
  0
LINE
  5
B8
330
17
100
AcDbEntity
  8
FoilLayer
100
AcDbLine
 10
-240.2380403346291
 20
11.580988046501846
 30
0.0
 11
-241.36822375960165
 21
9.828725789322135
 31
0.0
  0
LINE
  5
B9
330
17
100
AcDbEntity
  8
FoilLayer
100
AcDbLine
 10
-241.36822375960165
 20
9.828725789322135
 30
0.0
 11
-242.3439545142992
 21
8.097929188912506
 31
0.0
  0
LINE
  5
BA
330
17
100
AcDbEntity
  8
FoilLayer
100
AcDbLine
 10
-242.3439545142992
 20
8.097929188912506
 30
0.0
 11
-243.12912384719903
 21
6.505091890567473
 31
0.0
  0
LINE
  5
BB
330
17
100
AcDbEntity
  8
FoilLayer
100
AcDbLine
 10
-243.12912384719903
 20
6.505091890567473
 30
0.0
 11
-243.80126182380948
 21
4.770968227381537
 31
0.0
  0
LINE
  5
BC
330
17
100
AcDbEntity
  8
FoilLayer
100
AcDbLine
 10
-243.80126182380948
 20
4.770968227381537
 30
0.0
 11
-244.25749214636272
 21
3.5055657696018527
 31
0.0
  0
LINE
  5
BD
330
17
100
AcDbEntity
  8
FoilLayer
100
AcDbLine
 10
-244.25749214636272
 20
3.5055657696018527
 30
0.0
 11
-244.58278795257988
 21
1.8686849697958328
 31
0.0
  0
LINE
  5
BE
330
17
100
AcDbEntity
  8
FoilLayer
100
AcDbLine
 10
-244.58278795257988
 20
1.8686849697958328
 30
0.0
 11
-244.74999999999991
 21
0.21150634519035563
 31
0.0
  0
LINE
  5
BF
330
17
100
AcDbEntity
  8
FoilLayer
100
AcDbLine
 10
-244.74999999999991
 20
0.21150634519035563
 30
0.0
 11
-244.75659726903146
 21
-0.14746548155691228
 31
0.0
  0
LINE
  5
C0
330
17
100
AcDbEntity
  8
FoilLayer
100
AcDbLine
 10
-244.75659726903146
 20
-0.14746548155691228
 30
0.0
 11
-244.6220278661645
 21
-1.624710411633795
 31
0.0
  0
LINE
  5
C1
330
17
100
AcDbEntity
  8
FoilLayer
100
AcDbLine
 10
-244.6220278661645
 20
-1.624710411633795
 30
0.0
 11
-244.3035015094643
 21
-2.6769396528693084
 31
0.0
  0
LINE
  5
C2
330
17
100
AcDbEntity
  8
FoilLayer
100
AcDbLine
 10
-244.3035015094643
 20
-2.6769396528693084
 30
0.0
 11
-243.82090251474426
 21
-3.6972065052243908
 31
0.0
  0
LINE
  5
C3
330
17
100
AcDbEntity
  8
FoilLayer
100
AcDbLine
 10
-243.82090251474426
 20
-3.6972065052243908
 30
0.0
 11
-243.11390338683498
 21
-4.732222963488217
 31
0.0
  0
LINE
  5
C4
330
17
100
AcDbEntity
  8
FoilLayer
100
AcDbLine
 10
-243.11390338683498
 20
-4.732222963488217
 30
0.0
 11
-242.23615150239527
 21
-5.737300046415132
 31
0.0
  0
LINE
  5
C5
330
17
100
AcDbEntity
  8
FoilLayer
100
AcDbLine
 10
-242.23615150239527
 20
-5.737300046415132
 30
0.0
 11
-241.14994261616155
 21
-6.71507884439734
 31
0.0
  0
LINE
  5
C6
330
17
100
AcDbEntity
  8
FoilLayer
100
AcDbLine
 10
-241.14994261616155
 20
-6.71507884439734
 30
0.0
 11
-239.87152635494408
 21
-7.643921374085005
 31
0.0
  0
LINE
  5
C7
330
17
100
AcDbEntity
  8
FoilLayer
100
AcDbLine
 10
-239.87152635494408
 20
-7.643921374085005
 30
0.0
 11
-238.36050275824434
 21
-8.523243787986704
 31
0.0
  0
LINE
  5
C8
330
17
100
AcDbEntity
  8
FoilLayer
100
AcDbLine
 10
-238.36050275824434
 20
-8.523243787986704
 30
0.0
 11
-236.5630979692756
 21
-9.365721362321931
 31
0.0
  0
LINE
  5
C9
330
17
100
AcDbEntity
  8
FoilLayer
100
AcDbLine
 10
-236.5630979692756
 20
-9.365721362321931
 30
0.0
 11
-234.50000687701484
 21
-10.188856661124419
 31
0.0
  0
LINE
  5
CA
330
17
100
AcDbEntity
  8
FoilLayer
100
AcDbLine
 10
-234.50000687701484
 20
-10.188856661124419
 30
0.0
 11
-232.20017835970884
 21
-10.99320954847604
 31
0.0
  0
LINE
  5
CB
330
17
100
AcDbEntity
  8
FoilLayer
100
AcDbLine
 10
-232.20017835970884
 20
-10.99320954847604
 30
0.0
 11
-229.7371797726823
 21
-11.76609107798599
 31
0.0
  0
LINE
  5
CC
330
17
100
AcDbEntity
  8
FoilLayer
100
AcDbLine
 10
-229.7371797726823
 20
-11.76609107798599
 30
0.0
 11
-227.06511737824627
 21
-12.48028952572748
 31
0.0
  0
LINE
  5
CD
330
17
100
AcDbEntity
  8
FoilLayer
100
AcDbLine
 10
-227.06511737824627
 20
-12.48028952572748
 30
0.0
 11
-224.16504340768824
 21
-13.131681797548374
 31
0.0
  0
LINE
  5
CE
330
17
100
AcDbEntity
  8
FoilLayer
100
AcDbLine
 10
-224.16504340768824
 20
-13.131681797548374
 30
0.0
 11
-221.0322236505308
 21
-13.744738922920988
 31
0.0
  0
LINE
  5
CF
330
17
100
AcDbEntity
  8
FoilLayer
100
AcDbLine
 10
-221.0322236505308
 20
-13.744738922920988
 30
0.0
 11
-217.67721563166776
 21
-14.330985273411633
 31
0.0
  0
LINE
  5
D0
330
17
100
AcDbEntity
  8
FoilLayer
100
AcDbLine
 10
-217.67721563166776
 20
-14.330985273411633
 30
0.0
 11
-214.15073144321
 21
-14.881071167758833
 31
0.0
  0
LINE
  5
D1
330
17
100
AcDbEntity
  8
FoilLayer
100
AcDbLine
 10
-214.15073144321
 20
-14.881071167758833
 30
0.0
 11
-210.43005257444898
 21
-15.369298776008703
 31
0.0
  0
LINE
  5
D2
330
17
100
AcDbEntity
  8
FoilLayer
100
AcDbLine
 10
-210.43005257444898
 20
-15.369298776008703
 30
0.0
 11
-206.50227368108517
 21
-15.795924771356086
 31
0.0
  0
LINE
  5
D3
330
17
100
AcDbEntity
  8
FoilLayer
100
AcDbLine
 10
-206.50227368108517
 20
-15.795924771356086
 30
0.0
 11
-202.34261782109388
 21
-16.174825787876003
 31
0.0
  0
LINE
  5
D4
330
17
100
AcDbEntity
  8
FoilLayer
100
AcDbLine
 10
-202.34261782109388
 20
-16.174825787876003
 30
0.0
 11
-197.9760221010195
 21
-16.525925908181097
 31
0.0
  0
LINE
  5
D5
330
17
100
AcDbEntity
  8
FoilLayer
100
AcDbLine
 10
-197.9760221010195
 20
-16.525925908181097
 30
0.0
 11
-193.43322752710657
 21
-16.848575015973825
 31
0.0
  0
LINE
  5
D6
330
17
100
AcDbEntity
  8
FoilLayer
100
AcDbLine
 10
-193.43322752710657
 20
-16.848575015973825
 30
0.0
 11
-188.7283389108286
 21
-17.121897549932047
 31
0.0
  0
LINE
  5
D7
330
17
100
AcDbEntity
  8
FoilLayer
100
AcDbLine
 10
-188.7283389108286
 20
-17.121897549932047
 30
0.0
 11
-183.82965247418107
 21
-17.32554991210258
 31
0.0
  0
LINE
  5
D8
330
17
100
AcDbEntity
  8
FoilLayer
100
AcDbLine
 10
-183.82965247418107
 20
-17.32554991210258
 30
0.0
 11
-178.73653627287297
 21
-17.480183343984983
 31
0.0
  0
LINE
  5
D9
330
17
100
AcDbEntity
  8
FoilLayer
100
AcDbLine
 10
-178.73653627287297
 20
-17.480183343984983
 30
0.0
 11
-173.4251961067415
 21
-17.59277502834059
 31
0.0
  0
LINE
  5
DA
330
17
100
AcDbEntity
  8
FoilLayer
100
AcDbLine
 10
-173.4251961067415
 20
-17.59277502834059
 30
0.0
 11
-167.95143335916327
 21
-17.67717908424503
 31
0.0
  0
LINE
  5
DB
330
17
100
AcDbEntity
  8
FoilLayer
100
AcDbLine
 10
-167.95143335916327
 20
-17.67717908424503
 30
0.0
 11
-162.30983045010828
 21
-17.71240456274779
 31
0.0
  0
LINE
  5
DC
330
17
100
AcDbEntity
  8
FoilLayer
100
AcDbLine
 10
-162.30983045010828
 20
-17.71240456274779
 30
0.0
 11
-156.50488105135497
 21
-17.69140701456735
 31
0.0
  0
LINE
  5
DD
330
17
100
AcDbEntity
  8
FoilLayer
100
AcDbLine
 10
-156.50488105135497
 20
-17.69140701456735
 30
0.0
 11
-150.5016190862491
 21
-17.61401890724513
 31
0.0
  0
LINE
  5
DE
330
17
100
AcDbEntity
  8
FoilLayer
100
AcDbLine
 10
-150.5016190862491
 20
-17.61401890724513
 30
0.0
 11
-144.3030550290573
 21
-17.501325648823585
 31
0.0
  0
LINE
  5
DF
330
17
100
AcDbEntity
  8
FoilLayer
100
AcDbLine
 10
-144.3030550290573
 20
-17.501325648823585
 30
0.0
 11
-137.93250835644713
 21
-17.36760386042751
 31
0.0
  0
LINE
  5
E0
330
17
100
AcDbEntity
  8
FoilLayer
100
AcDbLine
 10
-137.93250835644713
 20
-17.36760386042751
 30
0.0
 11
-131.4267315623187
 21
-17.198866781055777
 31
0.0
  0
LINE
  5
E1
330
17
100
AcDbEntity
  8
FoilLayer
100
AcDbLine
 10
-131.4267315623187
 20
-17.198866781055777
 30
0.0
 11
-124.7609284431345
 21
-16.973652100236748
 31
0.0
  0
LINE
  5
E2
330
17
100
AcDbEntity
  8
FoilLayer
100
AcDbLine
 10
-124.7609284431345
 20
-16.973652100236748
 30
0.0
 11
-117.93228868350502
 21
-16.70616376928037
 31
0.0
  0
LINE
  5
E3
330
17
100
AcDbEntity
  8
FoilLayer
100
AcDbLine
 10
-117.93228868350502
 20
-16.70616376928037
 30
0.0
 11
-110.9172947668333
 21
-16.395952983296297
 31
0.0
  0
LINE
  5
E4
330
17
100
AcDbEntity
  8
FoilLayer
100
AcDbLine
 10
-110.9172947668333
 20
-16.395952983296297
 30
0.0
 11
-103.7463460242578
 21
-16.078975590457325
 31
0.0
  0
LINE
  5
E5
330
17
100
AcDbEntity
  8
FoilLayer
100
AcDbLine
 10
-103.7463460242578
 20
-16.078975590457325
 30
0.0
 11
-96.45017051115144
 21
-15.733901643199768
 31
0.0
  0
LINE
  5
E6
330
17
100
AcDbEntity
  8
FoilLayer
100
AcDbLine
 10
-96.45017051115144
 20
-15.733901643199768
 30
0.0
 11
-89.03022110568759
 21
-15.353782664562758
 31
0.0
  0
LINE
  5
E7
330
17
100
AcDbEntity
  8
FoilLayer
100
AcDbLine
 10
-89.03022110568759
 20
-15.353782664562758
 30
0.0
 11
-81.45815780961672
 21
-14.924124107390469
 31
0.0
  0
LINE
  5
E8
330
17
100
AcDbEntity
  8
FoilLayer
100
AcDbLine
 10
-81.45815780961672
 20
-14.924124107390469
 30
0.0
 11
-73.728873759169
 21
-14.458675795378412
 31
0.0
  0
LINE
  5
E9
330
17
100
AcDbEntity
  8
FoilLayer
100
AcDbLine
 10
-73.728873759169
 20
-14.458675795378412
 30
0.0
 11
-70.61796793199417
 21
-14.27486220129288
 31
0.0
  0
LINE
  5
EA
330
17
100
AcDbEntity
  8
FoilLayer
100
AcDbLine
 10
-70.61796793199417
 20
-14.27486220129288
 30
0.0
 11
-70.49999999999997
 21
-16.271380061724138
 31
0.0
  0
LINE
  5
EB
330
17
100
AcDbEntity
  8
FoilLayer
100
AcDbLine
 10
-70.49999999999997
 20
-16.271380061724138
 30
0.0
 11
-65.7358195745872
 21
-15.989879696390885
 31
0.0
  0
LINE
  5
EC
330
17
100
AcDbEntity
  8
FoilLayer
100
AcDbLine
 10
-65.7358195745872
 20
-15.989879696390885
 30
0.0
 11
-57.754980149404446
 21
-15.510465313959413
 31
0.0
  0
LINE
  5
ED
330
17
100
AcDbEntity
  8
FoilLayer
100
AcDbLine
 10
-57.754980149404446
 20
-15.510465313959413
 30
0.0
 11
-49.668387551626495
 21
-15.00285008550256
 31
0.0
  0
LINE
  5
EE
330
17
100
AcDbEntity
  8
FoilLayer
100
AcDbLine
 10
-49.668387551626495
 20
-15.00285008550256
 30
0.0
 11
-41.46194135824069
 21
-14.445883376501287
 31
0.0
  0
LINE
  5
EF
330
17
100
AcDbEntity
  8
FoilLayer
100
AcDbLine
 10
-41.46194135824069
 20
-14.445883376501287
 30
0.0
 11
-33.128591357740675
 21
-13.874816244487329
 31
0.0
  0
LINE
  5
F0
330
17
100
AcDbEntity
  8
FoilLayer
100
AcDbLine
 10
-33.128591357740675
 20
-13.874816244487329
 30
0.0
 11
-24.675387761632805
 21
-13.303749112473369
 31
0.0
  0
LINE
  5
F1
330
17
100
AcDbEntity
  8
FoilLayer
100
AcDbLine
 10
-24.675387761632805
 20
-13.303749112473369
 30
0.0
 11
-16.13053141594247
 21
-12.739732191965754
 31
0.0
  0
LINE
  5
F2
330
17
100
AcDbEntity
  8
FoilLayer
100
AcDbLine
 10
-16.13053141594247
 20
-12.739732191965754
 30
0.0
 11
-7.508122743682264
 21
-12.140464213926412
 31
0.0
  0
LINE
  5
F3
330
17
100
AcDbEntity
  8
FoilLayer
100
AcDbLine
 10
-7.508122743682264
 20
-12.140464213926412
 30
0.0
 11
1.2059386781603507
 21
-11.520045601368038
 31
0.0
  0
LINE
  5
F4
330
17
100
AcDbEntity
  8
FoilLayer
100
AcDbLine
 10
1.2059386781603507
 20
-11.520045601368038
 30
0.0
 11
10.018703061091827
 21
-10.892576777303315
 31
0.0
  0
LINE
  5
F5
330
17
100
AcDbEntity
  8
FoilLayer
100
AcDbLine
 10
10.018703061091827
 20
-10.892576777303315
 30
0.0
 11
18.916069982099458
 21
-10.265107953238592
 31
0.0
  0
LINE
  5
F6
330
17
100
AcDbEntity
  8
FoilLayer
100
AcDbLine
 10
18.916069982099458
 20
-10.265107953238592
 30
0.0
 11
27.883939018170594
 21
-9.651739552186562
 31
0.0
  0
LINE
  5
F7
330
17
100
AcDbEntity
  8
FoilLayer
100
AcDbLine
 10
27.883939018170594
 20
-9.651739552186562
 30
0.0
 11
36.89410932327971
 21
-9.02427072812184
 31
0.0
  0
LINE
  5
F8
330
17
100
AcDbEntity
  8
FoilLayer
100
AcDbLine
 10
36.89410932327971
 20
-9.02427072812184
 30
0.0
 11
45.96773153194599
 21
-8.375651269538084
 31
0.0
  0
LINE
  5
F9
330
17
100
AcDbEntity
  8
FoilLayer
100
AcDbLine
 10
45.96773153194599
 20
-8.375651269538084
 30
0.0
 11
55.11185585567566
 21
-7.727031810954327
 31
0.0
  0
LINE
  5
FA
330
17
100
AcDbEntity
  8
FoilLayer
100
AcDbLine
 10
55.11185585567566
 20
-7.727031810954327
 30
0.0
 11
64.31238187145615
 21
-7.09251277538326
 31
0.0
  0
LINE
  5
FB
330
17
100
AcDbEntity
  8
FoilLayer
100
AcDbLine
 10
64.31238187145615
 20
-7.09251277538326
 30
0.0
 11
73.541108733262
 21
-6.472094162824883
 31
0.0
  0
LINE
  5
FC
330
17
100
AcDbEntity
  8
FoilLayer
100
AcDbLine
 10
73.541108733262
 20
-6.472094162824883
 30
0.0
 11
82.79098622958682
 21
-5.844625338760161
 31
0.0
  0
LINE
  5
FD
330
17
100
AcDbEntity
  8
FoilLayer
100
AcDbLine
 10
82.79098622958682
 20
-5.844625338760161
 30
0.0
 11
92.06201436043082
 21
-5.210106303189094
 31
0.0
  0
LINE
  5
FE
330
17
100
AcDbEntity
  8
FoilLayer
100
AcDbLine
 10
92.06201436043082
 20
-5.210106303189094
 30
0.0
 11
101.38239397181914
 21
-4.575587267618026
 31
0.0
  0
LINE
  5
FF
330
17
100
AcDbEntity
  8
FoilLayer
100
AcDbLine
 10
101.38239397181914
 20
-4.575587267618026
 30
0.0
 11
110.72392421772653
 21
-3.9622188665659954
 31
0.0
  0
LINE
  5
100
330
17
100
AcDbEntity
  8
FoilLayer
100
AcDbLine
 10
110.72392421772653
 20
-3.9622188665659954
 30
0.0
 11
120.05840425212759
 21
-3.3770513115393452
 31
0.0
  0
LINE
  5
101
330
17
100
AcDbEntity
  8
FoilLayer
100
AcDbLine
 10
120.05840425212759
 20
-3.3770513115393452
 30
0.0
 11
129.3787838635158
 21
-2.7918837565126946
 31
0.0
  0
LINE
  5
102
330
17
100
AcDbEntity
  8
FoilLayer
100
AcDbLine
 10
129.3787838635158
 20
-2.7918837565126946
 30
0.0
 11
138.69211326339789
 21
-2.1926157784733533
 31
0.0
  0
LINE
  5
103
330
17
100
AcDbEntity
  8
FoilLayer
100
AcDbLine
 10
138.69211326339789
 20
-2.1926157784733533
 30
0.0
 11
148.0124928747862
 21
-1.607448223446703
 31
0.0
  0
LINE
  5
104
330
17
100
AcDbEntity
  8
FoilLayer
100
AcDbLine
 10
148.0124928747862
 20
-1.607448223446703
 30
0.0
 11
157.31877206316184
 21
-1.050481514445433
 31
0.0
  0
LINE
  5
105
330
17
100
AcDbEntity
  8
FoilLayer
100
AcDbLine
 10
157.31877206316184
 20
-1.050481514445433
 30
0.0
 11
166.58980019400573
 21
-0.5076152284568535
 31
0.0
  0
LINE
  5
106
330
17
100
AcDbEntity
  8
FoilLayer
100
AcDbLine
 10
166.58980019400573
 20
-0.5076152284568535
 30
0.0
 11
175.80442663279896
 21
0.028200846025380748
 31
0.0
  0
LINE
  5
107
330
17
100
AcDbEntity
  8
FoilLayer
100
AcDbLine
 10
175.80442663279896
 20
0.028200846025380748
 30
0.0
 11
184.99085222556673
 21
0.5710671320139602
 31
0.0
  0
LINE
  5
108
330
17
100
AcDbEntity
  8
FoilLayer
100
AcDbLine
 10
184.99085222556673
 20
0.5710671320139602
 30
0.0
 11
194.14907697230908
 21
1.0998329949898493
 31
0.0
  0
LINE
  5
109
330
17
100
AcDbEntity
  8
FoilLayer
100
AcDbLine
 10
194.14907697230908
 20
1.0998329949898493
 30
0.0
 11
203.26500045001345
 21
1.6003980119403576
 31
0.0
  0
LINE
  5
10A
330
17
100
AcDbEntity
  8
FoilLayer
100
AcDbLine
 10
203.26500045001345
 20
1.6003980119403576
 30
0.0
 11
212.30337160114797
 21
2.0798123943718303
 31
0.0
  0
LINE
  5
10B
330
17
100
AcDbEntity
  8
FoilLayer
100
AcDbLine
 10
212.30337160114797
 20
2.0798123943718303
 30
0.0
 11
221.27124063721905
 21
2.5592267768033032
 31
0.0
  0
LINE
  5
10C
330
17
100
AcDbEntity
  8
FoilLayer
100
AcDbLine
 10
221.27124063721905
 20
2.5592267768033032
 30
0.0
 11
230.18270798123936
 21
3.045691370741121
 31
0.0
  0
LINE
  5
10D
330
17
100
AcDbEntity
  8
FoilLayer
100
AcDbLine
 10
230.18270798123936
 20
3.045691370741121
 30
0.0
 11
239.03777363320896
 21
3.5039551186535585
 31
0.0
  0
LINE
  5
10E
330
17
100
AcDbEntity
  8
FoilLayer
100
AcDbLine
 10
239.03777363320896
 20
3.5039551186535585
 30
0.0
 11
247.82233717011505
 21
3.92696780903427
 31
0.0
  0
LINE
  5
10F
330
17
100
AcDbEntity
  8
FoilLayer
100
AcDbLine
 10
247.82233717011505
 20
3.92696780903427
 30
0.0
 11
256.5081977459323
 21
4.328829864895946
 31
0.0
  0
LINE
  5
110
330
17
100
AcDbEntity
  8
FoilLayer
100
AcDbLine
 10
256.5081977459323
 20
4.328829864895946
 30
0.0
 11
265.09535536066073
 21
4.7306919207576215
 31
0.0
  0
LINE
  5
111
330
17
100
AcDbEntity
  8
FoilLayer
100
AcDbLine
 10
265.09535536066073
 20
4.7306919207576215
 30
0.0
 11
273.60496064881943
 21
5.1184535536066065
 31
0.0
  0
LINE
  5
112
330
17
100
AcDbEntity
  8
FoilLayer
100
AcDbLine
 10
273.60496064881943
 20
5.1184535536066065
 30
0.0
 11
282.02996339890194
 21
5.470964128923867
 31
0.0
  0
LINE
  5
113
330
17
100
AcDbEntity
  8
FoilLayer
100
AcDbLine
 10
282.02996339890194
 20
5.470964128923867
 30
0.0
 11
290.34921297638925
 21
5.774123223696709
 31
0.0
  0
LINE
  5
114
330
17
100
AcDbEntity
  8
FoilLayer
100
AcDbLine
 10
290.34921297638925
 20
5.774123223696709
 30
0.0
 11
298.5486089582687
 21
6.042031260937826
 31
0.0
  0
LINE
  5
115
330
17
100
AcDbEntity
  8
FoilLayer
100
AcDbLine
 10
298.5486089582687
 20
6.042031260937826
 30
0.0
 11
306.61405092152756
 21
6.295838875166252
 31
0.0
  0
LINE
  5
116
330
17
100
AcDbEntity
  8
FoilLayer
100
AcDbLine
 10
306.61405092152756
 20
6.295838875166252
 30
0.0
 11
314.57373971219124
 21
6.514395431862954
 31
0.0
  0
LINE
  5
117
330
17
100
AcDbEntity
  8
FoilLayer
100
AcDbLine
 10
314.57373971219124
 20
6.514395431862954
 30
0.0
 11
322.4065246957408
 21
6.676550296508893
 31
0.0
  0
LINE
  5
118
330
17
100
AcDbEntity
  8
FoilLayer
100
AcDbLine
 10
322.4065246957408
 20
6.676550296508893
 30
0.0
 11
330.0842050261507
 21
6.782303469104072
 31
0.0
  0
LINE
  5
119
330
17
100
AcDbEntity
  8
FoilLayer
100
AcDbLine
 10
330.0842050261507
 20
6.782303469104072
 30
0.0
 11
337.585630068902
 21
6.8528055841675215
 31
0.0
  0
LINE
  5
11A
330
17
100
AcDbEntity
  8
FoilLayer
100
AcDbLine
 10
337.585630068902
 20
6.8528055841675215
 30
0.0
 11
344.9319504585136
 21
6.902157064711939
 31
0.0
  0
LINE
  5
11B
330
17
100
AcDbEntity
  8
FoilLayer
100
AcDbLine
 10
344.9319504585136
 20
6.902157064711939
 30
0.0
 11
352.12316619498574
 21
6.909207276218283
 31
0.0
  0
LINE
  5
11C
330
17
100
AcDbEntity
  8
FoilLayer
100
AcDbLine
 10
352.12316619498574
 20
6.909207276218283
 30
0.0
 11
359.1381266437992
 21
6.859855795673867
 31
0.0
  0
LINE
  5
11D
330
17
100
AcDbEntity
  8
FoilLayer
100
AcDbLine
 10
359.1381266437992
 20
6.859855795673867
 30
0.0
 11
365.955681170435
 21
6.76820304609138
 31
0.0
  0
LINE
  5
11E
330
17
100
AcDbEntity
  8
FoilLayer
100
AcDbLine
 10
365.955681170435
 20
6.76820304609138
 30
0.0
 11
372.56172935188044
 21
6.648349450483512
 31
0.0
  0
LINE
  5
11F
330
17
100
AcDbEntity
  8
FoilLayer
100
AcDbLine
 10
372.56172935188044
 20
6.648349450483512
 30
0.0
 11
378.9774218226546
 21
6.500295008850263
 31
0.0
  0
LINE
  5
120
330
17
100
AcDbEntity
  8
FoilLayer
100
AcDbLine
 10
378.9774218226546
 20
6.500295008850263
 30
0.0
 11
385.19570837125104
 21
6.316989509685288
 31
0.0
  0
LINE
  5
121
330
17
100
AcDbEntity
  8
FoilLayer
100
AcDbLine
 10
385.19570837125104
 20
6.316989509685288
 30
0.0
 11
391.19543836315074
 21
6.091382741482242
 31
0.0
  0
LINE
  5
122
330
17
100
AcDbEntity
  8
FoilLayer
100
AcDbLine
 10
391.19543836315074
 20
6.091382741482242
 30
0.0
 11
396.96251137534114
 21
5.8305249157474694
 31
0.0
  0
LINE
  5
123
330
17
100
AcDbEntity
  8
FoilLayer
100
AcDbLine
 10
396.96251137534114
 20
5.8305249157474694
 30
0.0
 11
402.4969274078221
 21
5.562616878506353
 31
0.0
  0
LINE
  5
124
330
17
100
AcDbEntity
  8
FoilLayer
100
AcDbLine
 10
402.4969274078221
 20
5.562616878506353
 30
0.0
 11
407.81278688360646
 21
5.266507995239856
 31
0.0
  0
LINE
  5
125
330
17
100
AcDbEntity
  8
FoilLayer
100
AcDbLine
 10
407.81278688360646
 20
5.266507995239856
 30
0.0
 11
412.8959893796813
 21
4.942198265947978
 31
0.0
  0
LINE
  5
126
330
17
100
AcDbEntity
  8
FoilLayer
100
AcDbLine
 10
412.8959893796813
 20
4.942198265947978
 30
0.0
 11
417.7183340500213
 21
4.575587267618027
 31
0.0
  0
LINE
  5
127
330
17
100
AcDbEntity
  8
FoilLayer
100
AcDbLine
 10
417.7183340500213
 20
4.575587267618027
 30
0.0
 11
422.2798208946268
 21
4.201926057781732
 31
0.0
  0
LINE
  5
128
330
17
100
AcDbEntity
  8
FoilLayer
100
AcDbLine
 10
422.2798208946268
 20
4.201926057781732
 30
0.0
 11
426.573399701991
 21
3.8282648479454373
 31
0.0
  0
LINE
  5
129
330
17
100
AcDbEntity
  8
FoilLayer
100
AcDbLine
 10
426.573399701991
 20
3.8282648479454373
 30
0.0
 11
430.62022110663315
 21
3.4546036381091425
 31
0.0
  0
LINE
  5
12A
330
17
100
AcDbEntity
  8
FoilLayer
100
AcDbLine
 10
430.62022110663315
 20
3.4546036381091425
 30
0.0
 11
434.3991344740341
 21
3.073892216766502
 31
0.0
  0
LINE
  5
12B
330
17
100
AcDbEntity
  8
FoilLayer
100
AcDbLine
 10
434.3991344740341
 20
3.073892216766502
 30
0.0
 11
437.91013980419393
 21
2.6861305839175165
 31
0.0
  0
LINE
  5
12C
330
17
100
AcDbEntity
  8
FoilLayer
100
AcDbLine
 10
437.91013980419393
 20
2.6861305839175165
 30
0.0
 11
441.1461868856064
 21
2.3054191625748763
 31
0.0
  0
LINE
  5
12D
330
17
100
AcDbEntity
  8
FoilLayer
100
AcDbLine
 10
441.1461868856064
 20
2.3054191625748763
 30
0.0
 11
444.0931752952588
 21
1.9317579527385815
 31
0.0
  0
LINE
  5
12E
330
17
100
AcDbEntity
  8
FoilLayer
100
AcDbLine
 10
444.0931752952588
 20
1.9317579527385815
 30
0.0
 11
446.7652054561636
 21
1.579247377421322
 31
0.0
  0
LINE
  5
12F
330
17
100
AcDbEntity
  8
FoilLayer
100
AcDbLine
 10
446.7652054561636
 20
1.579247377421322
 30
0.0
 11
449.14817694530825
 21
1.2549376481294432
 31
0.0
  0
LINE
  5
130
330
17
100
AcDbEntity
  8
FoilLayer
100
AcDbLine
 10
449.14817694530825
 20
1.2549376481294432
 30
0.0
 11
451.2632403972118
 21
0.9588287648629455
 31
0.0
  0
LINE
  5
131
330
17
100
AcDbEntity
  8
FoilLayer
100
AcDbLine
 10
451.2632403972118
 20
0.9588287648629455
 30
0.0
 11
453.0892451773552
 21
0.6979709391281737
 31
0.0
  0
LINE
  5
132
330
17
100
AcDbEntity
  8
FoilLayer
100
AcDbLine
 10
453.0892451773552
 20
0.6979709391281737
 30
0.0
 11
454.64734192025753
 21
0.4723641709251276
 31
0.0
  0
LINE
  5
133
330
17
100
AcDbEntity
  8
FoilLayer
100
AcDbLine
 10
454.64734192025753
 20
0.4723641709251276
 30
0.0
 11
455.92343020290605
 21
0.2820084602538075
 31
0.0
  0
LINE
  5
134
330
17
100
AcDbEntity
  8
FoilLayer
100
AcDbLine
 10
455.92343020290605
 20
0.2820084602538075
 30
0.0
 11
456.93161044831334
 21
0.1269038071142134
 31
0.0
  0
LINE
  5
135
330
17
100
AcDbEntity
  8
FoilLayer
100
AcDbLine
 10
456.93161044831334
 20
0.1269038071142134
 30
0.0
 11
457.6507320219605
 21
0.014100423012690377
 31
0.0
  0
LINE
  5
136
330
17
100
AcDbEntity
  8
FoilLayer
100
AcDbLine
 10
457.6507320219605
 20
0.014100423012690377
 30
0.0
 11
458.0948953468603
 21
-0.04935148054441632
 31
0.0
  0
LINE
  5
137
330
17
100
AcDbEntity
  8
FoilLayer
100
AcDbLine
 10
458.0948953468603
 20
-0.04935148054441632
 30
0.0
 11
458.2499999999999
 21
-0.07755232656979708
 31
0.0
  0
LINE
  5
138
330
17
100
AcDbEntity
  8
FoilLayer
100
AcDbLine
 10
458.2499999999999
 20
-0.07755232656979708
 30
0.0
 11
458.2499999999999
 21
0.03525105753172594
 31
0.0
  0
LINE
  5
139
330
17
100
AcDbEntity
  8
StringerLayer
100
AcDbLine
 10
243.4053773516877
 20
53.859334928007364
 30
0.0
 11
247.29499431661046
 21
52.9261254841068
 31
0.0
  0
LINE
  5
13A
330
17
100
AcDbEntity
  8
StringerLayer
100
AcDbLine
 10
247.29499431661046
 20
52.9261254841068
 30
0.0
 11
248.22820376051104
 21
56.815742449029536
 31
0.0
  0
LINE
  5
13B
330
17
100
AcDbEntity
  8
StringerLayer
100
AcDbLine
 10
248.22820376051104
 20
56.815742449029536
 30
0.0
 11
244.33858679558827
 21
57.7489518929301
 31
0.0
  0
LINE
  5
13C
330
17
100
AcDbEntity
  8
StringerLayer
100
AcDbLine
 10
244.33858679558827
 20
57.7489518929301
 30
0.0
 11
243.4053773516877
 21
53.859334928007364
 31
0.0
  0
LINE
  5
13D
330
17
100
AcDbEntity
  8
StringerLayer
100
AcDbLine
 10
-71.69898658465516
 20
74.85076156388713
 30
0.0
 11
-67.73326988841194
 21
75.3733427395314
 31
0.0
  0
LINE
  5
13E
330
17
100
AcDbEntity
  8
StringerLayer
100
AcDbLine
 10
-67.73326988841194
 20
75.3733427395314
 30
0.0
 11
-68.25585106405622
 21
79.33905943577462
 31
0.0
  0
LINE
  5
13F
330
17
100
AcDbEntity
  8
StringerLayer
100
AcDbLine
 10
-68.25585106405622
 20
79.33905943577462
 30
0.0
 11
-72.22156776029944
 21
78.81647826013035
 31
0.0
  0
LINE
  5
140
330
17
100
AcDbEntity
  8
StringerLayer
100
AcDbLine
 10
-72.22156776029944
 20
78.81647826013035
 30
0.0
 11
-71.69898658465516
 21
74.85076156388713
 31
0.0
  0
LINE
  5
141
330
17
100
AcDbEntity
  8
StringerLayer
100
AcDbLine
 10
-175.9737960263366
 20
49.48573733657528
 30
0.0
 11
-172.23792404361515
 21
50.91516397992466
 31
0.0
  0
LINE
  5
142
330
17
100
AcDbEntity
  8
StringerLayer
100
AcDbLine
 10
-172.23792404361515
 20
50.91516397992466
 30
0.0
 11
-173.6673506869645
 21
54.651035962646084
 31
0.0
  0
LINE
  5
143
330
17
100
AcDbEntity
  8
StringerLayer
100
AcDbLine
 10
-173.6673506869645
 20
54.651035962646084
 30
0.0
 11
-177.40322266968596
 21
53.22160931929671
 31
0.0
  0
LINE
  5
144
330
17
100
AcDbEntity
  8
StringerLayer
100
AcDbLine
 10
-177.40322266968596
 20
53.22160931929671
 30
0.0
 11
-175.9737960263366
 21
49.48573733657528
 31
0.0
  0
LINE
  5
145
330
17
100
AcDbEntity
  8
StringerLayer
100
AcDbLine
 10
-234.81029726567766
 20
10.548596120926428
 30
0.0
 11
-233.5756688592303
 21
12.122029531653839
 31
0.0
  0
LINE
  5
146
330
17
100
AcDbEntity
  8
StringerLayer
100
AcDbLine
 10
-233.5756688592303
 20
12.122029531653839
 30
0.0
 11
-237.50925238604881
 21
15.208600547772196
 31
0.0
  0
LINE
  5
147
330
17
100
AcDbEntity
  8
StringerLayer
100
AcDbLine
 10
-237.50925238604881
 20
15.208600547772196
 30
0.0
 11
-238.74388079249618
 21
13.635167137044785
 31
0.0
  0
LINE
  5
148
330
17
100
AcDbEntity
  8
StringerLayer
100
AcDbLine
 10
-238.74388079249618
 20
13.635167137044785
 30
0.0
 11
-234.81029726567766
 21
10.548596120926428
 31
0.0
  0
LINE
  5
149
330
17
100
AcDbEntity
  8
StringerLayer
100
AcDbLine
 10
-237.83185638187422
 20
-2.960412010400216
 30
0.0
 11
-239.32807334096924
 21
-1.63325911366359
 31
0.0
  0
LINE
  5
14A
330
17
100
AcDbEntity
  8
StringerLayer
100
AcDbLine
 10
-239.32807334096924
 20
-1.63325911366359
 30
0.0
 11
-242.6459555828108
 21
-5.373801511401168
 31
0.0
  0
LINE
  5
14B
330
17
100
AcDbEntity
  8
StringerLayer
100
AcDbLine
 10
-242.6459555828108
 20
-5.373801511401168
 30
0.0
 11
-241.1497386237158
 21
-6.700954408137794
 31
0.0
  0
LINE
  5
14C
330
17
100
AcDbEntity
  8
StringerLayer
100
AcDbLine
 10
-241.1497386237158
 20
-6.700954408137794
 30
0.0
 11
-237.83185638187422
 21
-2.960412010400216
 31
0.0
  0
LINE
  5
14D
330
17
100
AcDbEntity
  8
StringerLayer
100
AcDbLine
 10
-104.01691835622846
 20
-12.087020381063695
 30
0.0
 11
-108.01301602974506
 21
-12.263665176388251
 31
0.0
  0
LINE
  5
14E
330
17
100
AcDbEntity
  8
StringerLayer
100
AcDbLine
 10
-108.01301602974506
 20
-12.263665176388251
 30
0.0
 11
-107.83637123442051
 21
-16.259762849904845
 31
0.0
  0
LINE
  5
14F
330
17
100
AcDbEntity
  8
StringerLayer
100
AcDbLine
 10
-107.83637123442051
 20
-16.259762849904845
 30
0.0
 11
-103.84027356090391
 21
-16.08311805458029
 31
0.0
  0
LINE
  5
150
330
17
100
AcDbEntity
  8
StringerLayer
100
AcDbLine
 10
-103.84027356090391
 20
-16.08311805458029
 30
0.0
 11
-104.01691835622846
 21
-12.087020381063695
 31
0.0
  0
LINE
  5
151
330
17
100
AcDbEntity
  8
SubLayer
100
AcDbLine
 10
-246.74999999999991
 20
0.0
 30
0.0
 11
-242.74999999999991
 21
0.0
 31
0.0
  0
LINE
  5
152
330
17
100
AcDbEntity
  8
SubLayer
100
AcDbLine
 10
68.49999999999997
 20
0.0
 30
0.0
 11
79.54999999999998
 21
0.0
 31
0.0
  0
LINE
  5
153
330
17
100
AcDbEntity
  8
SubLayer
100
AcDbLine
 10
-52.84278997863467
 20
35.606271803910865
 30
0.0
 11
-44.8476633624819
 21
35.88546777753087
 31
0.0
  0
LINE
  5
154
330
17
100
AcDbEntity
  8
SubLayer
100
AcDbLine
 10
44.8476633624819
 20
39.017697606580334
 30
0.0
 11
52.84278997863467
 21
39.29689358020034
 31
0.0
  0
LINE
  5
155
330
17
100
AcDbEntity
  8
SubLayer
100
AcDbLine
 10
-1.4945709462846035
 20
80.25049485914838
 30
0.0
 11
-1.215374972664596
 21
72.2553682429956
 31
0.0
  0
LINE
  5
156
330
17
100
AcDbEntity
  8
SubLayer
100
AcDbLine
 10
1.4945709462846035
 20
-5.347329475037164
 30
0.0
 11
1.215374972664596
 21
2.6477971411156034
 31
0.0
  0
LINE
  5
157
330
17
100
AcDbEntity
  8
SubLayer
100
AcDbLine
 10
-50.77420933119148
 20
33.677289143277676
 30
0.0
 11
-46.7766460231151
 21
33.81688713008768
 31
0.0
  0
LINE
  5
158
330
17
100
AcDbEntity
  8
SubLayer
100
AcDbLine
 10
-46.7766460231151
 20
33.81688713008768
 30
0.0
 11
-46.9162440099251
 21
37.81445043816406
 31
0.0
  0
LINE
  5
159
330
17
100
AcDbEntity
  8
SubLayer
100
AcDbLine
 10
-46.9162440099251
 20
37.81445043816406
 30
0.0
 11
-50.91380731800148
 21
37.674852451354056
 31
0.0
  0
LINE
  5
15A
330
17
100
AcDbEntity
  8
SubLayer
100
AcDbLine
 10
-50.91380731800148
 20
37.674852451354056
 30
0.0
 11
-50.77420933119148
 21
33.677289143277676
 31
0.0
  0
LINE
  5
15B
330
17
100
AcDbEntity
  8
SubLayer
100
AcDbLine
 10
46.9162440099251
 20
37.088714945947146
 30
0.0
 11
50.91380731800148
 21
37.22831293275715
 31
0.0
  0
LINE
  5
15C
330
17
100
AcDbEntity
  8
SubLayer
100
AcDbLine
 10
50.91380731800148
 20
37.22831293275715
 30
0.0
 11
50.77420933119148
 21
41.22587624083353
 31
0.0
  0
LINE
  5
15D
330
17
100
AcDbEntity
  8
SubLayer
100
AcDbLine
 10
50.77420933119148
 20
41.22587624083353
 30
0.0
 11
46.7766460231151
 21
41.086278254023526
 31
0.0
  0
LINE
  5
15E
330
17
100
AcDbEntity
  8
SubLayer
100
AcDbLine
 10
46.7766460231151
 20
41.086278254023526
 30
0.0
 11
46.9162440099251
 21
37.088714945947146
 31
0.0
  0
LINE
  5
15F
330
17
100
AcDbEntity
  8
SubLayer
100
AcDbLine
 10
-3.2839556201077897
 20
74.18435090362878
 30
0.0
 11
0.7136076879685938
 21
74.32394889043879
 31
0.0
  0
LINE
  5
160
330
17
100
AcDbEntity
  8
SubLayer
100
AcDbLine
 10
0.7136076879685938
 20
74.32394889043879
 30
0.0
 11
0.5740097011585898
 21
78.32151219851518
 31
0.0
  0
LINE
  5
161
330
17
100
AcDbEntity
  8
SubLayer
100
AcDbLine
 10
0.5740097011585898
 20
78.32151219851518
 30
0.0
 11
-3.4235536069177934
 21
78.18191421170518
 31
0.0
  0
LINE
  5
162
330
17
100
AcDbEntity
  8
SubLayer
100
AcDbLine
 10
-3.4235536069177934
 20
78.18191421170518
 30
0.0
 11
-3.2839556201077897
 21
74.18435090362878
 31
0.0
  0
LINE
  5
163
330
17
100
AcDbEntity
  8
SubLayer
100
AcDbLine
 10
-0.5740097011585898
 20
-3.4183468144039737
 30
0.0
 11
3.4235536069177934
 21
-3.2787488275939696
 31
0.0
  0
LINE
  5
164
330
17
100
AcDbEntity
  8
SubLayer
100
AcDbLine
 10
3.4235536069177934
 20
-3.2787488275939696
 30
0.0
 11
3.2839556201077897
 21
0.7188144804824135
 31
0.0
  0
LINE
  5
165
330
17
100
AcDbEntity
  8
SubLayer
100
AcDbLine
 10
3.2839556201077897
 20
0.7188144804824135
 30
0.0
 11
-0.7136076879685938
 21
0.5792164936724096
 31
0.0
  0
LINE
  5
166
330
17
100
AcDbEntity
  8
SubLayer
100
AcDbLine
 10
-0.7136076879685938
 20
0.5792164936724096
 30
0.0
 11
-0.5740097011585898
 21
-3.4183468144039737
 31
0.0
  0
LINE
  5
167
330
17
100
AcDbEntity
  8
SubLayer
100
AcDbLine
 10
353.6800958804301
 20
30.179368592060378
 30
0.0
 11
357.6776591885064
 21
30.31896657887038
 31
0.0
  0
LINE
  5
168
330
17
100
AcDbEntity
  8
SubLayer
100
AcDbLine
 10
-243.61365332518167
 20
9.321411257189478
 30
0.0
 11
-239.61609001710528
 21
9.46100924399948
 31
0.0
  0
LINE
  5
169
330
17
100
AcDbEntity
  8
SubLayer
100
AcDbLine
 10
-125.15429431107842
 20
13.458103227461159
 30
0.0
 11
-119.15794934896385
 21
13.667500207676163
 31
0.0
  0
LINE
  5
16A
330
17
100
AcDbEntity
  8
SubLayer
100
AcDbLine
 10
233.22195521228863
 20
25.9728776283837
 30
0.0
 11
239.2183001744032
 21
26.182274608598703
 31
0.0
  0
LINE
  5
16B
330
17
100
AcDbEntity
  8
SubLayer
100
AcDbLine
 10
54.0338304506051
 20
19.715490427922425
 30
0.0
 11
60.03017541271968
 21
19.92488740813743
 31
0.0
  0
LINE
  5
16C
330
17
100
AcDbEntity
  8
SubLayer
100
AcDbLine
 10
-120.08754118257794
 20
11.63381905693547
 30
0.0
 11
-120.22713916938794
 21
15.631382365011854
 31
0.0
  0
LINE
  5
16D
330
17
100
AcDbEntity
  8
SubLayer
100
AcDbLine
 10
-120.22713916938794
 20
15.631382365011854
 30
0.0
 11
-124.22470247746433
 21
15.491784378201851
 31
0.0
  0
LINE
  5
16E
330
17
100
AcDbEntity
  8
SubLayer
100
AcDbLine
 10
-124.22470247746433
 20
15.491784378201851
 30
0.0
 11
-124.08510449065433
 21
11.494221070125468
 31
0.0
  0
LINE
  5
16F
330
17
100
AcDbEntity
  8
SubLayer
100
AcDbLine
 10
-124.08510449065433
 20
11.494221070125468
 30
0.0
 11
-120.08754118257794
 21
11.63381905693547
 31
0.0
  0
LINE
  5
170
330
17
100
AcDbEntity
  8
SubLayer
100
AcDbLine
 10
238.2887083407891
 20
24.148593457858013
 30
0.0
 11
238.1491103539791
 21
28.146156765934396
 31
0.0
  0
LINE
  5
171
330
17
100
AcDbEntity
  8
SubLayer
100
AcDbLine
 10
238.1491103539791
 20
28.146156765934396
 30
0.0
 11
234.15154704590273
 21
28.00655877912439
 31
0.0
  0
LINE
  5
172
330
17
100
AcDbEntity
  8
SubLayer
100
AcDbLine
 10
234.15154704590273
 20
28.00655877912439
 30
0.0
 11
234.29114503271273
 21
24.008995471048006
 31
0.0
  0
LINE
  5
173
330
17
100
AcDbEntity
  8
SubLayer
100
AcDbLine
 10
234.29114503271273
 20
24.008995471048006
 30
0.0
 11
238.2887083407891
 21
24.148593457858013
 31
0.0
  0
LINE
  5
174
330
17
100
AcDbEntity
  8
SubLayer
100
AcDbLine
 10
59.10058357910558
 20
17.89120625739674
 30
0.0
 11
58.96098559229558
 21
21.888769565473122
 31
0.0
  0
LINE
  5
175
330
17
100
AcDbEntity
  8
SubLayer
100
AcDbLine
 10
58.96098559229558
 20
21.888769565473122
 30
0.0
 11
54.9634222842192
 21
21.749171578663116
 31
0.0
  0
LINE
  5
176
330
17
100
AcDbEntity
  8
SubLayer
100
AcDbLine
 10
54.9634222842192
 20
21.749171578663116
 30
0.0
 11
55.1030202710292
 21
17.751608270586733
 31
0.0
  0
LINE
  5
177
330
17
100
AcDbEntity
  8
SubLayer
100
AcDbLine
 10
55.1030202710292
 20
17.751608270586733
 30
0.0
 11
59.10058357910558
 21
17.89120625739674
 31
0.0
  0
LINE
  5
178
330
17
100
AcDbEntity
  8
SubLayer
100
AcDbLine
 10
439.10815107198385
 20
5.817106295710449
 30
0.0
 11
439.4227374594905
 21
6.766335143141635
 31
0.0
  0
LINE
  5
179
330
17
100
AcDbEntity
  8
SubLayer
100
AcDbLine
 10
438.35748120482
 20
2.1301072330139856
 30
0.0
 11
438.4887702254936
 21
3.121451367535678
 31
0.0
  0
LINE
  5
17A
330
17
100
AcDbEntity
  8
SubLayer
100
AcDbLine
 10
419.94967200382854
 20
11.547027145775385
 30
0.0
 11
420.25026966810486
 21
12.500778184690493
 31
0.0
  0
LINE
  5
17B
330
17
100
AcDbEntity
  8
SubLayer
100
AcDbLine
 10
418.4488431257235
 20
4.0143172009936
 30
0.0
 11
418.56162141964415
 21
5.0079373781339145
 31
0.0
  0
LINE
  5
17C
330
17
100
AcDbEntity
  8
SubLayer
100
AcDbLine
 10
381.46812298812273
 20
22.467577853972394
 30
0.0
 11
381.7549551209791
 21
23.42555871367734
 31
0.0
  0
LINE
  5
17D
330
17
100
AcDbEntity
  8
SubLayer
100
AcDbLine
 10
378.4747551750218
 20
6.0126146400542595
 30
0.0
 11
378.55614217993224
 21
7.009297215116002
 31
0.0
  0
LINE
  5
17E
330
17
100
AcDbEntity
  8
SubLayer
100
AcDbLine
 10
-151.03214663762304
 20
64.39013549290607
 30
0.0
 11
-150.892548650813
 21
60.39257218482968
 31
0.0
  0
LINE
  5
17F
330
17
100
AcDbEntity
  8
SubLayer
100
AcDbLine
 10
-148.23977776625284
 20
-15.57284676698024
 30
0.0
 11
-148.1001797794428
 21
-19.57041007505662
 31
0.0
  0
LINE
  5
180
330
17
100
AcDbEntity
  8
SubLayer
100
AcDbLine
 10
-148.83315103722938
 20
1.4191405120161158
 30
0.0
 11
-148.6237540570144
 21
-4.577204450098458
 31
0.0
  0
LINE
  5
181
330
17
100
AcDbEntity
  8
SubLayer
100
AcDbLine
 10
-150.5085723600515
 20
49.396929867947904
 30
0.0
 11
-150.2991753798365
 21
43.40058490583333
 31
0.0
  0
LINE
  5
182
330
17
100
AcDbEntity
  8
SubLayer
100
AcDbLine
 10
-149.67086169864044
 20
25.40803518998201
 30
0.0
 11
-149.46146471842545
 21
19.41169022786743
 31
0.0
  0
LINE
  5
183
330
17
100
AcDbEntity
  8
SubLayer
100
AcDbLine
 10
-150.65743520775507
 20
-3.647612616484365
 30
0.0
 11
-146.6598718996787
 21
-3.508014629674361
 31
0.0
  0
LINE
  5
184
330
17
100
AcDbEntity
  8
SubLayer
100
AcDbLine
 10
-146.6598718996787
 20
-3.508014629674361
 30
0.0
 11
-146.7994698864887
 21
0.4895486784020222
 31
0.0
  0
LINE
  5
185
330
17
100
AcDbEntity
  8
SubLayer
100
AcDbLine
 10
-146.7994698864887
 20
0.4895486784020222
 30
0.0
 11
-150.79703319456507
 21
0.3499506915920183
 31
0.0
  0
LINE
  5
186
330
17
100
AcDbEntity
  8
SubLayer
100
AcDbLine
 10
-150.79703319456507
 20
0.3499506915920183
 30
0.0
 11
-150.65743520775507
 21
-3.647612616484365
 31
0.0
  0
LINE
  5
187
330
17
100
AcDbEntity
  8
SubLayer
100
AcDbLine
 10
-152.33285653057717
 20
44.330176739447424
 30
0.0
 11
-148.3352932225008
 21
44.46977472625743
 31
0.0
  0
LINE
  5
188
330
17
100
AcDbEntity
  8
SubLayer
100
AcDbLine
 10
-148.3352932225008
 20
44.46977472625743
 30
0.0
 11
-148.4748912093108
 21
48.46733803433381
 31
0.0
  0
LINE
  5
189
330
17
100
AcDbEntity
  8
SubLayer
100
AcDbLine
 10
-148.4748912093108
 20
48.46733803433381
 30
0.0
 11
-152.47245451738718
 21
48.327740047523804
 31
0.0
  0
LINE
  5
18A
330
17
100
AcDbEntity
  8
SubLayer
100
AcDbLine
 10
-152.47245451738718
 20
48.327740047523804
 30
0.0
 11
-152.33285653057717
 21
44.330176739447424
 31
0.0
  0
LINE
  5
18B
330
17
100
AcDbEntity
  8
SubLayer
100
AcDbLine
 10
-151.49514586916612
 20
20.341282061481525
 30
0.0
 11
-147.49758256108976
 21
20.48088004829153
 31
0.0
  0
LINE
  5
18C
330
17
100
AcDbEntity
  8
SubLayer
100
AcDbLine
 10
-147.49758256108976
 20
20.48088004829153
 30
0.0
 11
-147.63718054789976
 21
24.478443356367915
 31
0.0
  0
LINE
  5
18D
330
17
100
AcDbEntity
  8
SubLayer
100
AcDbLine
 10
-147.63718054789976
 20
24.478443356367915
 30
0.0
 11
-151.63474385597613
 21
24.33884536955791
 31
0.0
  0
LINE
  5
18E
330
17
100
AcDbEntity
  8
SubLayer
100
AcDbLine
 10
-151.63474385597613
 20
24.33884536955791
 30
0.0
 11
-151.49514586916612
 21
20.341282061481525
 31
0.0
  0
LINE
  5
18F
330
17
100
AcDbEntity
  8
SubLayer
100
AcDbLine
 10
198.9960443779723
 20
69.69212315489071
 30
0.0
 11
199.13564236478234
 21
65.69455984681431
 31
0.0
  0
LINE
  5
190
330
17
100
AcDbEntity
  8
SubLayer
100
AcDbLine
 10
201.3076802133697
 20
3.495533874587034
 30
0.0
 11
201.44727820017974
 21
-0.5020294334893494
 31
0.0
  0
LINE
  5
191
330
17
100
AcDbEntity
  8
SubLayer
100
AcDbLine
 10
200.81045354958775
 20
17.734242557666864
 30
0.0
 11
201.01985052980274
 21
11.73789759555229
 31
0.0
  0
LINE
  5
192
330
17
100
AcDbEntity
  8
SubLayer
100
AcDbLine
 10
199.4234720483493
 20
57.45219612584907
 30
0.0
 11
199.6328690285643
 21
51.45585116373449
 31
0.0
  0
LINE
  5
193
330
17
100
AcDbEntity
  8
SubLayer
100
AcDbLine
 10
200.11696279896853
 20
37.593219341757965
 30
0.0
 11
200.32635977918352
 21
31.59687437964339
 31
0.0
  0
LINE
  5
194
330
17
100
AcDbEntity
  8
SubLayer
100
AcDbLine
 10
198.98616937906206
 20
12.667489429166384
 30
0.0
 11
202.98373268713843
 21
12.807087415976387
 31
0.0
  0
LINE
  5
195
330
17
100
AcDbEntity
  8
SubLayer
100
AcDbLine
 10
202.98373268713843
 20
12.807087415976387
 30
0.0
 11
202.84413470032842
 21
16.804650724052774
 31
0.0
  0
LINE
  5
196
330
17
100
AcDbEntity
  8
SubLayer
100
AcDbLine
 10
202.84413470032842
 20
16.804650724052774
 30
0.0
 11
198.84657139225206
 21
16.665052737242767
 31
0.0
  0
LINE
  5
197
330
17
100
AcDbEntity
  8
SubLayer
100
AcDbLine
 10
198.84657139225206
 20
16.665052737242767
 30
0.0
 11
198.98616937906206
 21
12.667489429166384
 31
0.0
  0
LINE
  5
198
330
17
100
AcDbEntity
  8
SubLayer
100
AcDbLine
 10
197.59918787782362
 20
52.38544299734859
 30
0.0
 11
201.5967511859
 21
52.52504098415859
 31
0.0
  0
LINE
  5
199
330
17
100
AcDbEntity
  8
SubLayer
100
AcDbLine
 10
201.5967511859
 20
52.52504098415859
 30
0.0
 11
201.45715319909
 21
56.52260429223497
 31
0.0
  0
LINE
  5
19A
330
17
100
AcDbEntity
  8
SubLayer
100
AcDbLine
 10
201.45715319909
 20
56.52260429223497
 30
0.0
 11
197.45958989101362
 21
56.38300630542497
 31
0.0
  0
LINE
  5
19B
330
17
100
AcDbEntity
  8
SubLayer
100
AcDbLine
 10
197.45958989101362
 20
56.38300630542497
 30
0.0
 11
197.59918787782362
 21
52.38544299734859
 31
0.0
  0
LINE
  5
19C
330
17
100
AcDbEntity
  8
SubLayer
100
AcDbLine
 10
198.29267862844284
 20
32.526466213257486
 30
0.0
 11
202.2902419365192
 21
32.66606420006749
 31
0.0
  0
LINE
  5
19D
330
17
100
AcDbEntity
  8
SubLayer
100
AcDbLine
 10
202.2902419365192
 20
32.66606420006749
 30
0.0
 11
202.1506439497092
 21
36.66362750814387
 31
0.0
  0
LINE
  5
19E
330
17
100
AcDbEntity
  8
SubLayer
100
AcDbLine
 10
202.1506439497092
 20
36.66362750814387
 30
0.0
 11
198.15308064163284
 21
36.524029521333865
 31
0.0
  0
LINE
  5
19F
330
17
100
AcDbEntity
  8
SubLayer
100
AcDbLine
 10
198.15308064163284
 20
36.524029521333865
 30
0.0
 11
198.29267862844284
 21
32.526466213257486
 31
0.0
  0
ENDSEC
  0
SECTION
  2
OBJECTS
  0
DICTIONARY
  5
A
330
0
100
AcDbDictionary
280
0
281
1
  3
ACAD_COLOR
350
B
  3
ACAD_GROUP
350
C
  3
ACAD_LAYOUT
350
D
  3
ACAD_MATERIAL
350
E
  3
ACAD_MLEADERSTYLE
350
F
  3
ACAD_MLINESTYLE
350
10
  3
ACAD_PLOTSETTINGS
350
11
  3
ACAD_PLOTSTYLENAME
350
12
  3
ACAD_SCALELIST
350
14
  3
ACAD_TABLESTYLE
350
15
  3
ACAD_VISUALSTYLE
350
16
  3
EZDXF_META
350
2D
  0
DICTIONARY
  5
B
330
A
100
AcDbDictionary
280
0
281
1
  0
DICTIONARY
  5
C
330
A
100
AcDbDictionary
280
0
281
1
  0
DICTIONARY
  5
D
330
A
100
AcDbDictionary
280
0
281
1
  3
Model
350
1A
  3
Layout1
350
1E
  0
DICTIONARY
  5
E
330
A
100
AcDbDictionary
280
0
281
1
  3
ByBlock
350
1F
  3
ByLayer
350
20
  3
Global
350
21
  0
DICTIONARY
  5
F
330
A
100
AcDbDictionary
280
0
281
1
  3
Standard
350
2C
  0
DICTIONARY
  5
10
330
A
100
AcDbDictionary
280
0
281
1
  3
Standard
350
22
  0
DICTIONARY
  5
11
330
A
100
AcDbDictionary
280
0
281
1
  0
ACDBDICTIONARYWDFLT
  5
12
330
A
100
AcDbDictionary
280
0
281
1
  3
Normal
350
13
100
AcDbDictionaryWithDefault
340
13
  0
ACDBPLACEHOLDER
  5
13
330
12
  0
DICTIONARY
  5
14
330
A
100
AcDbDictionary
280
0
281
1
  0
DICTIONARY
  5
15
330
A
100
AcDbDictionary
280
0
281
1
  0
DICTIONARY
  5
16
330
A
100
AcDbDictionary
280
0
281
1
  0
LAYOUT
  5
1A
330
D
100
AcDbPlotSettings
  1

  2
Adobe PDF
  4
A3
  6

 40
7.5
 41
20.0
 42
7.5
 43
20.0
 44
420.0
 45
297.0
 46
0.0
 47
0.0
 48
0.0
 49
0.0
140
0.0
141
0.0
142
1.0
143
1.0
 70
1024
 72
1
 73
0
 74
5
  7

 75
16
 76
0
 77
2
 78
300
147
1.0
148
0.0
149
0.0
100
AcDbLayout
  1
Model
 70
1
 71
0
 10
0.0
 20
0.0
 11
420.0
 21
297.0
 12
0.0
 22
0.0
 32
0.0
 14
1e+20
 24
1e+20
 34
1e+20
 15
-1e+20
 25
-1e+20
 35
-1e+20
146
0.0
 13
0.0
 23
0.0
 33
0.0
 16
1.0
 26
0.0
 36
0.0
 17
0.0
 27
1.0
 37
0.0
 76
1
330
17
  0
LAYOUT
  5
1E
330
D
100
AcDbPlotSettings
  1

  2
Adobe PDF
  4
A3
  6

 40
7.5
 41
20.0
 42
7.5
 43
20.0
 44
420.0
 45
297.0
 46
0.0
 47
0.0
 48
0.0
 49
0.0
140
0.0
141
0.0
142
1.0
143
1.0
 70
0
 72
1
 73
0
 74
5
  7

 75
16
 76
0
 77
2
 78
300
147
1.0
148
0.0
149
0.0
100
AcDbLayout
  1
Layout1
 70
1
 71
1
 10
0.0
 20
0.0
 11
420.0
 21
297.0
 12
0.0
 22
0.0
 32
0.0
 14
1e+20
 24
1e+20
 34
1e+20
 15
-1e+20
 25
-1e+20
 35
-1e+20
146
0.0
 13
0.0
 23
0.0
 33
0.0
 16
1.0
 26
0.0
 36
0.0
 17
0.0
 27
1.0
 37
0.0
 76
1
330
1B
  0
MATERIAL
  5
1F
102
{ACAD_REACTORS
330
E
102
}
330
E
100
AcDbMaterial
  1
ByBlock
  2

 70
0
 40
1.0
 71
1
 41
1.0
 91
-1023410177
 42
1.0
 72
1
  3

 73
1
 74
1
 75
1
 44
0.5
 73
0
 45
1.0
 46
1.0
 77
1
  4

 78
1
 79
1
170
1
 48
1.0
171
1
  6

172
1
173
1
174
1
140
1.0
141
1.0
175
1
  7

176
1
177
1
178
1
143
1.0
179
1
  8

270
1
271
1
272
1
145
1.0
146
1.0
273
1
  9

274
1
275
1
276
1
 42
1.0
 72
1
  3

 73
1
 74
1
 75
1
 94
63
  0
MATERIAL
  5
20
102
{ACAD_REACTORS
330
E
102
}
330
E
100
AcDbMaterial
  1
ByLayer
  2

 70
0
 40
1.0
 71
1
 41
1.0
 91
-1023410177
 42
1.0
 72
1
  3

 73
1
 74
1
 75
1
 44
0.5
 73
0
 45
1.0
 46
1.0
 77
1
  4

 78
1
 79
1
170
1
 48
1.0
171
1
  6

172
1
173
1
174
1
140
1.0
141
1.0
175
1
  7

176
1
177
1
178
1
143
1.0
179
1
  8

270
1
271
1
272
1
145
1.0
146
1.0
273
1
  9

274
1
275
1
276
1
 42
1.0
 72
1
  3

 73
1
 74
1
 75
1
 94
63
  0
MATERIAL
  5
21
102
{ACAD_REACTORS
330
E
102
}
330
E
100
AcDbMaterial
  1
Global
  2

 70
0
 40
1.0
 71
1
 41
1.0
 91
-1023410177
 42
1.0
 72
1
  3

 73
1
 74
1
 75
1
 44
0.5
 73
0
 45
1.0
 46
1.0
 77
1
  4

 78
1
 79
1
170
1
 48
1.0
171
1
  6

172
1
173
1
174
1
140
1.0
141
1.0
175
1
  7

176
1
177
1
178
1
143
1.0
179
1
  8

270
1
271
1
272
1
145
1.0
146
1.0
273
1
  9

274
1
275
1
276
1
 42
1.0
 72
1
  3

 73
1
 74
1
 75
1
 94
63
  0
MLINESTYLE
  5
22
102
{ACAD_REACTORS
330
10
102
}
330
10
100
AcDbMlineStyle
  2
Standard
 70
0
  3

 62
256
 51
90.0
 52
90.0
 71
2
 49
0.5
 62
256
  6
BYLAYER
 49
-0.5
 62
256
  6
BYLAYER
  0
MLEADERSTYLE
  5
2C
102
{ACAD_REACTORS
330
F
102
}
330
F
100
AcDbMLeaderStyle
179
2
170
2
171
1
172
0
 90
2
 40
0.0
 41
0.0
173
1
 91
-1056964608
 92
-2
290
1
 42
2.0
291
1
 43
8.0
  3
Standard
 44
4.0
300

342
29
174
1
175
1
176
0
178
1
 93
-1056964608
 45
4.0
292
0
297
0
 46
4.0
 94
-1056964608
 47
1.0
 49
1.0
140
1.0
294
1
141
0.0
177
0
142
1.0
295
0
296
0
143
3.75
271
0
272
9
273
9
  0
DICTIONARY
  5
2D
330
A
100
AcDbDictionary
281
1
  3
CREATED_BY_EZDXF
350
2E
  3
WRITTEN_BY_EZDXF
350
1A2
  0
DICTIONARYVAR
  5
2E
330
2D
100
DictionaryVariables
280
0
  1
1.0.2 @ 2023-10-20T04:47:15.980251+00:00
  0
DICTIONARYVAR
  5
1A2
330
2D
100
DictionaryVariables
280
0
  1
1.0.2 @ 2023-10-20T04:47:15.990217+00:00
  0
ENDSEC
  0
EOF
