  0
SECTION
  2
HEADER
  9
$ACADVER
  1
AC1027
  9
$ACADMAINTVER
 70
105
  9
$DWGCODEPAGE
  3
ANSI_1252
  9
$LASTSAVEDBY
  1
ezdxf
  9
$REQUIREDVERSIONS
160
0
  9
$INSBASE
 10
0.0
 20
0.0
 30
0.0
  9
$EXTMIN
 10
1e+20
 20
1e+20
 30
1e+20
  9
$EXTMAX
 10
-1e+20
 20
-1e+20
 30
-1e+20
  9
$LIMMIN
 10
0.0
 20
0.0
  9
$LIMMAX
 10
420.0
 20
297.0
  9
$ORTHOMODE
 70
0
  9
$REGENMODE
 70
1
  9
$FILLMODE
 70
1
  9
$QTEXTMODE
 70
0
  9
$MIRRTEXT
 70
1
  9
$LTSCALE
 40
1.0
  9
$ATTMODE
 70
1
  9
$TEXTSIZE
 40
2.5
  9
$TRACEWID
 40
1.0
  9
$TEXTSTYLE
  7
Standard
  9
$CLAYER
  8
0
  9
$CELTYPE
  6
ByLayer
  9
$CECOLOR
 62
256
  9
$CELTSCALE
 40
1.0
  9
$DISPSILH
 70
0
  9
$DIMSCALE
 40
1.0
  9
$DIMASZ
 40
2.5
  9
$DIMEXO
 40
0.625
  9
$DIMDLI
 40
3.75
  9
$DIMRND
 40
0.0
  9
$DIMDLE
 40
0.0
  9
$DIMEXE
 40
1.25
  9
$DIMTP
 40
0.0
  9
$DIMTM
 40
0.0
  9
$DIMTXT
 40
2.5
  9
$DIMCEN
 40
2.5
  9
$DIMTSZ
 40
0.0
  9
$DIMTOL
 70
0
  9
$DIMLIM
 70
0
  9
$DIMTIH
 70
0
  9
$DIMTOH
 70
0
  9
$DIMSE1
 70
0
  9
$DIMSE2
 70
0
  9
$DIMTAD
 70
1
  9
$DIMZIN
 70
8
  9
$DIMBLK
  1

  9
$DIMASO
 70
1
  9
$DIMSHO
 70
1
  9
$DIMPOST
  1

  9
$DIMAPOST
  1

  9
$DIMALT
 70
0
  9
$DIMALTD
 70
3
  9
$DIMALTF
 40
0.03937007874
  9
$DIMLFAC
 40
1.0
  9
$DIMTOFL
 70
1
  9
$DIMTVP
 40
0.0
  9
$DIMTIX
 70
0
  9
$DIMSOXD
 70
0
  9
$DIMSAH
 70
0
  9
$DIMBLK1
  1

  9
$DIMBLK2
  1

  9
$DIMSTYLE
  2
ISO-25
  9
$DIMCLRD
 70
0
  9
$DIMCLRE
 70
0
  9
$DIMCLRT
 70
0
  9
$DIMTFAC
 40
1.0
  9
$DIMGAP
 40
0.625
  9
$DIMJUST
 70
0
  9
$DIMSD1
 70
0
  9
$DIMSD2
 70
0
  9
$DIMTOLJ
 70
0
  9
$DIMTZIN
 70
8
  9
$DIMALTZ
 70
0
  9
$DIMALTTZ
 70
0
  9
$DIMUPT
 70
0
  9
$DIMDEC
 70
2
  9
$DIMTDEC
 70
2
  9
$DIMALTU
 70
2
  9
$DIMALTTD
 70
3
  9
$DIMTXSTY
  7
Standard
  9
$DIMAUNIT
 70
0
  9
$DIMADEC
 70
0
  9
$DIMALTRND
 40
0.0
  9
$DIMAZIN
 70
0
  9
$DIMDSEP
 70
44
  9
$DIMATFIT
 70
3
  9
$DIMFRAC
 70
0
  9
$DIMLDRBLK
  1

  9
$DIMLUNIT
 70
2
  9
$DIMLWD
 70
-2
  9
$DIMLWE
 70
-2
  9
$DIMTMOVE
 70
0
  9
$DIMFXL
 40
1.0
  9
$DIMFXLON
 70
0
  9
$DIMJOGANG
 40
0.785398163397
  9
$DIMTFILL
 70
0
  9
$DIMTFILLCLR
 70
0
  9
$DIMARCSYM
 70
0
  9
$DIMLTYPE
  6

  9
$DIMLTEX1
  6

  9
$DIMLTEX2
  6

  9
$DIMTXTDIRECTION
 70
0
  9
$LUNITS
 70
2
  9
$LUPREC
 70
4
  9
$SKETCHINC
 40
1.0
  9
$FILLETRAD
 40
10.0
  9
$AUNITS
 70
0
  9
$AUPREC
 70
2
  9
$MENU
  1
.
  9
$ELEVATION
 40
0.0
  9
$PELEVATION
 40
0.0
  9
$THICKNESS
 40
0.0
  9
$LIMCHECK
 70
0
  9
$CHAMFERA
 40
0.0
  9
$CHAMFERB
 40
0.0
  9
$CHAMFERC
 40
0.0
  9
$CHAMFERD
 40
0.0
  9
$SKPOLY
 70
0
  9
$TDCREATE
 40
2460238.574490741
  9
$TDUCREATE
 40
2458532.153996898
  9
$TDUPDATE
 40
2460238.574490741
  9
$TDUUPDATE
 40
2458532.1544311
  9
$TDINDWG
 40
0.0
  9
$TDUSRTIMER
 40
0.0
  9
$USRTIMER
 70
1
  9
$ANGBASE
 50
0.0
  9
$ANGDIR
 70
0
  9
$PDMODE
 70
0
  9
$PDSIZE
 40
0.0
  9
$PLINEWID
 40
0.0
  9
$SPLFRAME
 70
0
  9
$SPLINETYPE
 70
6
  9
$SPLINESEGS
 70
8
  9
$HANDSEED
  5
1A3
  9
$SURFTAB1
 70
6
  9
$SURFTAB2
 70
6
  9
$SURFTYPE
 70
6
  9
$SURFU
 70
6
  9
$SURFV
 70
6
  9
$UCSBASE
  2

  9
$UCSNAME
  2

  9
$UCSORG
 10
0.0
 20
0.0
 30
0.0
  9
$UCSXDIR
 10
1.0
 20
0.0
 30
0.0
  9
$UCSYDIR
 10
0.0
 20
1.0
 30
0.0
  9
$UCSORTHOREF
  2

  9
$UCSORTHOVIEW
 70
0
  9
$UCSORGTOP
 10
0.0
 20
0.0
 30
0.0
  9
$UCSORGBOTTOM
 10
0.0
 20
0.0
 30
0.0
  9
$UCSORGLEFT
 10
0.0
 20
0.0
 30
0.0
  9
$UCSORGRIGHT
 10
0.0
 20
0.0
 30
0.0
  9
$UCSORGFRONT
 10
0.0
 20
0.0
 30
0.0
  9
$UCSORGBACK
 10
0.0
 20
0.0
 30
0.0
  9
$PUCSBASE
  2

  9
$PUCSNAME
  2

  9
$PUCSORG
 10
0.0
 20
0.0
 30
0.0
  9
$PUCSXDIR
 10
1.0
 20
0.0
 30
0.0
  9
$PUCSYDIR
 10
0.0
 20
1.0
 30
0.0
  9
$PUCSORTHOREF
  2

  9
$PUCSORTHOVIEW
 70
0
  9
$PUCSORGTOP
 10
0.0
 20
0.0
 30
0.0
  9
$PUCSORGBOTTOM
 10
0.0
 20
0.0
 30
0.0
  9
$PUCSORGLEFT
 10
0.0
 20
0.0
 30
0.0
  9
$PUCSORGRIGHT
 10
0.0
 20
0.0
 30
0.0
  9
$PUCSORGFRONT
 10
0.0
 20
0.0
 30
0.0
  9
$PUCSORGBACK
 10
0.0
 20
0.0
 30
0.0
  9
$USERI1
 70
0
  9
$USERI2
 70
0
  9
$USERI3
 70
0
  9
$USERI4
 70
0
  9
$USERI5
 70
0
  9
$USERR1
 40
0.0
  9
$USERR2
 40
0.0
  9
$USERR3
 40
0.0
  9
$USERR4
 40
0.0
  9
$USERR5
 40
0.0
  9
$WORLDVIEW
 70
1
  9
$SHADEDGE
 70
3
  9
$SHADEDIF
 70
70
  9
$TILEMODE
 70
1
  9
$MAXACTVP
 70
64
  9
$PINSBASE
 10
0.0
 20
0.0
 30
0.0
  9
$PLIMCHECK
 70
0
  9
$PEXTMIN
 10
1e+20
 20
1e+20
 30
1e+20
  9
$PEXTMAX
 10
-1e+20
 20
-1e+20
 30
-1e+20
  9
$PLIMMIN
 10
0.0
 20
0.0
  9
$PLIMMAX
 10
420.0
 20
297.0
  9
$UNITMODE
 70
0
  9
$VISRETAIN
 70
1
  9
$PLINEGEN
 70
0
  9
$PSLTSCALE
 70
1
  9
$TREEDEPTH
 70
3020
  9
$CMLSTYLE
  2
Standard
  9
$CMLJUST
 70
0
  9
$CMLSCALE
 40
20.0
  9
$PROXYGRAPHICS
 70
1
  9
$MEASUREMENT
 70
1
  9
$CELWEIGHT
370
-1
  9
$ENDCAPS
280
0
  9
$JOINSTYLE
280
0
  9
$LWDISPLAY
290
0
  9
$INSUNITS
 70
6
  9
$HYPERLINKBASE
  1

  9
$STYLESHEET
  1

  9
$XEDIT
290
1
  9
$CEPSNTYPE
380
0
  9
$PSTYLEMODE
290
1
  9
$FINGERPRINTGUID
  2
{B35ED25D-962B-4E6A-BA3D-6E7DEF129ACB}
  9
$VERSIONGUID
  2
{0FE50F7C-5901-4288-9079-EE186DF4B613}
  9
$EXTNAMES
290
1
  9
$PSVPSCALE
 40
0.0
  9
$OLESTARTUP
290
0
  9
$SORTENTS
280
127
  9
$INDEXCTL
280
0
  9
$HIDETEXT
280
1
  9
$XCLIPFRAME
280
0
  9
$HALOGAP
280
0
  9
$OBSCOLOR
 70
257
  9
$OBSLTYPE
280
0
  9
$INTERSECTIONDISPLAY
280
0
  9
$INTERSECTIONCOLOR
 70
257
  9
$DIMASSOC
280
2
  9
$PROJECTNAME
  1

  9
$CAMERADISPLAY
290
0
  9
$LENSLENGTH
 40
50.0
  9
$CAMERAHEIGHT
 40
0.0
  9
$STEPSPERSEC
 40
24.0
  9
$STEPSIZE
 40
100.0
  9
$3DDWFPREC
 40
2.0
  9
$PSOLWIDTH
 40
0.005
  9
$PSOLHEIGHT
 40
0.08
  9
$LOFTANG1
 40
1.570796326795
  9
$LOFTANG2
 40
1.570796326795
  9
$LOFTMAG1
 40
0.0
  9
$LOFTMAG2
 40
0.0
  9
$LOFTPARAM
 70
7
  9
$LOFTNORMALS
280
1
  9
$LATITUDE
 40
37.795
  9
$LONGITUDE
 40
-122.394
  9
$NORTHDIRECTION
 40
0.0
  9
$TIMEZONE
 70
-8000
  9
$LIGHTGLYPHDISPLAY
280
1
  9
$TILEMODELIGHTSYNCH
280
1
  9
$CMATERIAL
347
20
  9
$SOLIDHIST
280
0
  9
$SHOWHIST
280
1
  9
$DWFFRAME
280
2
  9
$DGNFRAME
280
2
  9
$REALWORLDSCALE
290
1
  9
$INTERFERECOLOR
 62
256
  9
$CSHADOW
280
0
  9
$SHADOWPLANELOCATION
 40
0.0
  0
ENDSEC
  0
SECTION
  2
CLASSES
  0
CLASS
  1
ACDBDICTIONARYWDFLT
  2
AcDbDictionaryWithDefault
  3
ObjectDBX Classes
 90
0
 91
0
280
0
281
0
  0
CLASS
  1
SUN
  2
AcDbSun
  3
SCENEOE
 90
1153
 91
0
280
0
281
0
  0
CLASS
  1
VISUALSTYLE
  2
AcDbVisualStyle
  3
ObjectDBX Classes
 90
4095
 91
0
280
0
281
0
  0
CLASS
  1
MATERIAL
  2
AcDbMaterial
  3
ObjectDBX Classes
 90
1153
 91
0
280
0
281
0
  0
CLASS
  1
SCALE
  2
AcDbScale
  3
ObjectDBX Classes
 90
1153
 91
0
280
0
281
0
  0
CLASS
  1
TABLESTYLE
  2
AcDbTableStyle
  3
ObjectDBX Classes
 90
4095
 91
0
280
0
281
0
  0
CLASS
  1
MLEADERSTYLE
  2
AcDbMLeaderStyle
  3
ACDB_MLEADERSTYLE_CLASS
 90
4095
 91
0
280
0
281
0
  0
CLASS
  1
DICTIONARYVAR
  2
AcDbDictionaryVar
  3
ObjectDBX Classes
 90
0
 91
0
280
0
281
0
  0
CLASS
  1
CELLSTYLEMAP
  2
AcDbCellStyleMap
  3
ObjectDBX Classes
 90
1152
 91
0
280
0
281
0
  0
CLASS
  1
MENTALRAYRENDERSETTINGS
  2
AcDbMentalRayRenderSettings
  3
SCENEOE
 90
1024
 91
0
280
0
281
0
  0
CLASS
  1
ACDBDETAILVIEWSTYLE
  2
AcDbDetailViewStyle
  3
ObjectDBX Classes
 90
1025
 91
0
280
0
281
0
  0
CLASS
  1
ACDBSECTIONVIEWSTYLE
  2
AcDbSectionViewStyle
  3
ObjectDBX Classes
 90
1025
 91
0
280
0
281
0
  0
CLASS
  1
RASTERVARIABLES
  2
AcDbRasterVariables
  3
ISM
 90
0
 91
0
280
0
281
0
  0
CLASS
  1
ACDBPLACEHOLDER
  2
AcDbPlaceHolder
  3
ObjectDBX Classes
 90
0
 91
0
280
0
281
0
  0
CLASS
  1
LAYOUT
  2
AcDbLayout
  3
ObjectDBX Classes
 90
0
 91
0
280
0
281
0
  0
ENDSEC
  0
SECTION
  2
TABLES
  0
TABLE
  2
VPORT
  5
8
330
0
100
AcDbSymbolTable
 70
1
  0
VPORT
  5
23
330
8
100
AcDbSymbolTableRecord
100
AcDbViewportTableRecord
  2
*Active
 70
0
 10
0.0
 20
0.0
 11
1.0
 21
1.0
 12
0.0
 22
0.0
 13
0.0
 23
0.0
 14
0.5
 24
0.5
 15
0.5
 25
0.5
 16
0.0
 26
0.0
 36
1.0
 17
0.0
 27
0.0
 37
0.0
 40
1000.0
 41
1.34
 42
50.0
 43
0.0
 44
0.0
 50
0.0
 51
0.0
 71
0
 72
1000
 73
1
 74
3
 75
0
 76
0
 77
0
 78
0
281
0
 65
0
146
0.0
  0
ENDTAB
  0
TABLE
  2
LTYPE
  5
2
330
0
100
AcDbSymbolTable
 70
3
  0
LTYPE
  5
24
330
2
100
AcDbSymbolTableRecord
100
AcDbLinetypeTableRecord
  2
ByBlock
 70
0
  3

 72
65
 73
0
 40
0.0
  0
LTYPE
  5
25
330
2
100
AcDbSymbolTableRecord
100
AcDbLinetypeTableRecord
  2
ByLayer
 70
0
  3

 72
65
 73
0
 40
0.0
  0
LTYPE
  5
26
330
2
100
AcDbSymbolTableRecord
100
AcDbLinetypeTableRecord
  2
Continuous
 70
0
  3

 72
65
 73
0
 40
0.0
  0
ENDTAB
  0
TABLE
  2
LAYER
  5
1
330
0
100
AcDbSymbolTable
 70
5
  0
LAYER
  5
27
330
1
100
AcDbSymbolTableRecord
100
AcDbLayerTableRecord
  2
0
 70
0
 62
7
  6
Continuous
370
-3
390
13
347
21
  0
LAYER
  5
28
330
1
100
AcDbSymbolTableRecord
100
AcDbLayerTableRecord
  2
Defpoints
 70
0
 62
7
  6
Continuous
290
0
370
-3
390
13
347
21
  0
LAYER
  5
30
330
1
100
AcDbSymbolTableRecord
100
AcDbLayerTableRecord
  2
FoilLayer
 70
0
 62
1
  6
Continuous
370
50
390
13
347
21
  0
LAYER
  5
31
330
1
100
AcDbSymbolTableRecord
100
AcDbLayerTableRecord
  2
StringerLayer
 70
0
 62
1
  6
Continuous
370
50
390
13
347
21
  0
LAYER
  5
32
330
1
100
AcDbSymbolTableRecord
100
AcDbLayerTableRecord
  2
SubLayer
 70
0
 62
1
  6
Continuous
370
50
390
13
347
21
  0
ENDTAB
  0
TABLE
  2
STYLE
  5
5
330
0
100
AcDbSymbolTable
 70
2
  0
STYLE
  5
29
330
5
100
AcDbSymbolTableRecord
100
AcDbTextStyleTableRecord
  2
Standard
 70
0
 40
0.0
 41
1.0
 50
0.0
 71
0
 42
2.5
  3
txt
  4

  0
STYLE
  5
2F
330
5
100
AcDbSymbolTableRecord
100
AcDbTextStyleTableRecord
  2
MSゴシック
 70
0
 40
0.0
 41
1.0
 50
0.0
 71
0
 42
2.5
  3
romans
  4

  0
ENDTAB
  0
TABLE
  2
VIEW
  5
7
330
0
100
AcDbSymbolTable
 70
0
  0
ENDTAB
  0
TABLE
  2
UCS
  5
6
330
0
100
AcDbSymbolTable
 70
0
  0
ENDTAB
  0
TABLE
  2
APPID
  5
3
330
0
100
AcDbSymbolTable
 70
3
  0
APPID
  5
2A
330
3
100
AcDbSymbolTableRecord
100
AcDbRegAppTableRecord
  2
ACAD
 70
0
  0
APPID
  5
1A0
330
3
100
AcDbSymbolTableRecord
100
AcDbRegAppTableRecord
  2
HATCHBACKGROUNDCOLOR
 70
0
  0
APPID
  5
1A1
330
3
100
AcDbSymbolTableRecord
100
AcDbRegAppTableRecord
  2
EZDXF
 70
0
  0
ENDTAB
  0
TABLE
  2
DIMSTYLE
  5
4
330
0
100
AcDbSymbolTable
 70
1
100
AcDbDimStyleTable
  0
DIMSTYLE
105
2B
330
4
100
AcDbSymbolTableRecord
100
AcDbDimStyleTableRecord
  2
Standard
 70
0
 40
1.0
 41
2.5
 42
0.625
 43
3.75
 44
1.25
 45
0.0
 46
0.0
 47
0.0
 48
0.0
 49
2.5
140
2.5
141
2.5
142
0.0
143
0.03937007874
144
1.0
145
0.0
146
1.0
147
0.625
148
0.0
 69
0
 70
0
 71
0
 72
0
 73
0
 74
0
 75
0
 76
0
 77
1
 78
8
 79
3
170
0
171
3
172
1
173
0
174
0
175
0
176
0
177
0
178
0
179
2
271
2
272
2
273
2
274
3
275
0
276
0
277
2
278
44
279
0
280
0
281
0
282
0
283
0
284
8
285
0
286
0
288
0
289
3
290
0
371
-2
372
-2
  0
ENDTAB
  0
TABLE
  2
BLOCK_RECORD
  5
9
330
0
100
AcDbSymbolTable
 70
2
  0
BLOCK_RECORD
  5
17
330
9
100
AcDbSymbolTableRecord
100
AcDbBlockTableRecord
  2
*Model_Space
340
1A
 70
0
280
1
281
0
  0
BLOCK_RECORD
  5
1B
330
9
100
AcDbSymbolTableRecord
100
AcDbBlockTableRecord
  2
*Paper_Space
340
1E
 70
0
280
1
281
0
  0
ENDTAB
  0
ENDSEC
  0
SECTION
  2
BLOCKS
  0
BLOCK
  5
18
330
17
100
AcDbEntity
  8
0
100
AcDbBlockBegin
  2
*Model_Space
 70
0
 10
0.0
 20
0.0
 30
0.0
  3
*Model_Space
  1

  0
ENDBLK
  5
19
330
17
100
AcDbEntity
  8
0
100
AcDbBlockEnd
  0
BLOCK
  5
1C
330
1B
100
AcDbEntity
  8
0
100
AcDbBlockBegin
  2
*Paper_Space
 70
0
 10
0.0
 20
0.0
 30
0.0
  3
*Paper_Space
  1

  0
ENDBLK
  5
1D
330
1B
100
AcDbEntity
  8
0
100
AcDbBlockEnd
  0
ENDSEC
  0
SECTION
  2
ENTITIES
  0
LINE
  5
33
330
17
100
AcDbEntity
  8
FoilLayer
100
AcDbLine
 10
268.49224890082655
 20
46.15664359390354
 30
0.0
 11
33.625
 21
-8.717475945248614
 31
0.0
  0
LINE
  5
34
330
17
100
AcDbEntity
  8
FoilLayer
100
AcDbLine
 10
437.1249999999997
 20
0.03362600878026339
 30
0.0
 11
436.9904959648787
 21
0.08070242107263212
 31
0.0
  0
LINE
  5
35
330
17
100
AcDbEntity
  8
FoilLayer
100
AcDbLine
 10
436.9904959648787
 20
0.08070242107263212
 30
0.0
 11
436.59370906127157
 21
0.21520645619368564
 31
0.0
  0
LINE
  5
36
330
17
100
AcDbEntity
  8
FoilLayer
100
AcDbLine
 10
436.59370906127157
 20
0.21520645619368564
 30
0.0
 11
435.96154009620255
 21
0.4371381141434241
 31
0.0
  0
LINE
  5
37
330
17
100
AcDbEntity
  8
FoilLayer
100
AcDbLine
 10
435.96154009620255
 20
0.4371381141434241
 30
0.0
 11
435.09398906967175
 21
0.7397721931657943
 31
0.0
  0
LINE
  5
38
330
17
100
AcDbEntity
  8
FoilLayer
100
AcDbLine
 10
435.09398906967175
 20
0.7397721931657943
 30
0.0
 11
434.0045063851913
 21
1.1163834915047444
 31
0.0
  0
LINE
  5
39
330
17
100
AcDbEntity
  8
FoilLayer
100
AcDbLine
 10
434.0045063851913
 20
1.1163834915047444
 30
0.0
 11
432.69309204276107
 21
1.566972009160274
 31
0.0
  0
LINE
  5
3A
330
17
100
AcDbEntity
  8
FoilLayer
100
AcDbLine
 10
432.69309204276107
 20
1.566972009160274
 30
0.0
 11
431.1731964458931
 21
2.078087342620277
 31
0.0
  0
LINE
  5
3B
330
17
100
AcDbEntity
  8
FoilLayer
100
AcDbLine
 10
431.1731964458931
 20
2.078087342620277
 30
0.0
 11
429.4380943928315
 21
2.656454693640808
 31
0.0
  0
LINE
  5
3C
330
17
100
AcDbEntity
  8
FoilLayer
100
AcDbLine
 10
429.4380943928315
 20
2.656454693640808
 30
0.0
 11
427.5012362870884
 21
3.3020740622218643
 31
0.0
  0
LINE
  5
3D
330
17
100
AcDbEntity
  8
FoilLayer
100
AcDbLine
 10
427.5012362870884
 20
3.3020740622218643
 30
0.0
 11
425.36262212866353
 21
3.99476984309529
 31
0.0
  0
LINE
  5
3E
330
17
100
AcDbEntity
  8
FoilLayer
100
AcDbLine
 10
425.36262212866353
 20
3.99476984309529
 30
0.0
 11
423.0222519175572
 21
4.74799243977319
 31
0.0
  0
LINE
  5
3F
330
17
100
AcDbEntity
  8
FoilLayer
100
AcDbLine
 10
423.0222519175572
 20
4.74799243977319
 30
0.0
 11
420.48012565376933
 21
5.548291448743457
 31
0.0
  0
LINE
  5
40
330
17
100
AcDbEntity
  8
FoilLayer
100
AcDbLine
 10
420.48012565376933
 20
5.548291448743457
 30
0.0
 11
417.742968539056
 21
6.395666870006096
 31
0.0
  0
LINE
  5
41
330
17
100
AcDbEntity
  8
FoilLayer
100
AcDbLine
 10
417.742968539056
 20
6.395666870006096
 30
0.0
 11
414.8040553716608
 21
7.2968439053171545
 31
0.0
  0
LINE
  5
42
330
17
100
AcDbEntity
  8
FoilLayer
100
AcDbLine
 10
414.8040553716608
 20
7.2968439053171545
 30
0.0
 11
411.6768365550964
 21
8.245097352920583
 31
0.0
  0
LINE
  5
43
330
17
100
AcDbEntity
  8
FoilLayer
100
AcDbLine
 10
411.6768365550964
 20
8.245097352920583
 30
0.0
 11
408.36131208936246
 21
9.233702011060325
 31
0.0
  0
LINE
  5
44
330
17
100
AcDbEntity
  8
FoilLayer
100
AcDbLine
 10
408.36131208936246
 20
9.233702011060325
 30
0.0
 11
404.85748197445895
 21
10.269383081492437
 31
0.0
  0
LINE
  5
45
330
17
100
AcDbEntity
  8
FoilLayer
100
AcDbLine
 10
404.85748197445895
 20
10.269383081492437
 30
0.0
 11
401.1653462103861
 21
11.345415362460864
 31
0.0
  0
LINE
  5
46
330
17
100
AcDbEntity
  8
FoilLayer
100
AcDbLine
 10
401.1653462103861
 20
11.345415362460864
 30
0.0
 11
397.2849047971436
 21
12.461798853965611
 31
0.0
  0
LINE
  5
47
330
17
100
AcDbEntity
  8
FoilLayer
100
AcDbLine
 10
397.2849047971436
 20
12.461798853965611
 30
0.0
 11
393.2228829364879
 21
13.618533556006671
 31
0.0
  0
LINE
  5
48
330
17
100
AcDbEntity
  8
FoilLayer
100
AcDbLine
 10
393.2228829364879
 20
13.618533556006671
 30
0.0
 11
388.9792806284185
 21
14.829069872096154
 31
0.0
  0
LINE
  5
49
330
17
100
AcDbEntity
  8
FoilLayer
100
AcDbLine
 10
388.9792806284185
 20
14.829069872096154
 30
0.0
 11
384.560823074692
 21
16.07995739872195
 31
0.0
  0
LINE
  5
4A
330
17
100
AcDbEntity
  8
FoilLayer
100
AcDbLine
 10
384.560823074692
 20
16.07995739872195
 30
0.0
 11
379.98096067882017
 21
17.38464653939617
 31
0.0
  0
LINE
  5
4B
330
17
100
AcDbEntity
  8
FoilLayer
100
AcDbLine
 10
379.98096067882017
 20
17.38464653939617
 30
0.0
 11
375.239693440803
 21
18.722961688850653
 31
0.0
  0
LINE
  5
4C
330
17
100
AcDbEntity
  8
FoilLayer
100
AcDbLine
 10
375.239693440803
 20
18.722961688850653
 30
0.0
 11
370.33029615888455
 21
20.108353250597503
 31
0.0
  0
LINE
  5
4D
330
17
100
AcDbEntity
  8
FoilLayer
100
AcDbLine
 10
370.33029615888455
 20
20.108353250597503
 30
0.0
 11
365.2729444383329
 21
21.53409602288067
 31
0.0
  0
LINE
  5
4E
330
17
100
AcDbEntity
  8
FoilLayer
100
AcDbLine
 10
365.2729444383329
 20
21.53409602288067
 30
0.0
 11
360.0676382791482
 21
23.006915207456206
 31
0.0
  0
LINE
  5
4F
330
17
100
AcDbEntity
  8
FoilLayer
100
AcDbLine
 10
360.0676382791482
 20
23.006915207456206
 30
0.0
 11
354.7278280848423
 21
24.513360400812005
 31
0.0
  0
LINE
  5
50
330
17
100
AcDbEntity
  8
FoilLayer
100
AcDbLine
 10
354.7278280848423
 20
24.513360400812005
 30
0.0
 11
349.2535138554154
 21
26.06015680470412
 31
0.0
  0
LINE
  5
51
330
17
100
AcDbEntity
  8
FoilLayer
100
AcDbLine
 10
349.2535138554154
 20
26.06015680470412
 30
0.0
 11
343.64469559086746
 21
27.633854015620447
 31
0.0
  0
LINE
  5
52
330
17
100
AcDbEntity
  8
FoilLayer
100
AcDbLine
 10
343.64469559086746
 20
27.633854015620447
 30
0.0
 11
337.9013732911986
 21
29.24117723531704
 31
0.0
  0
LINE
  5
53
330
17
100
AcDbEntity
  8
FoilLayer
100
AcDbLine
 10
337.9013732911986
 20
29.24117723531704
 30
0.0
 11
332.0437225616766
 21
30.882126463793888
 31
0.0
  0
LINE
  5
54
330
17
100
AcDbEntity
  8
FoilLayer
100
AcDbLine
 10
332.0437225616766
 20
30.882126463793888
 30
0.0
 11
326.07846860405795
 21
32.556701701051004
 31
0.0
  0
LINE
  5
55
330
17
100
AcDbEntity
  8
FoilLayer
100
AcDbLine
 10
326.07846860405795
 20
32.556701701051004
 30
0.0
 11
320.01233662009844
 21
34.25145254357628
 31
0.0
  0
LINE
  5
56
330
17
100
AcDbEntity
  8
FoilLayer
100
AcDbLine
 10
320.01233662009844
 20
34.25145254357628
 30
0.0
 11
313.83860140804205
 21
35.95965378961366
 31
0.0
  0
LINE
  5
57
330
17
100
AcDbEntity
  8
FoilLayer
100
AcDbLine
 10
313.83860140804205
 20
35.95965378961366
 30
0.0
 11
307.5639881696449
 21
37.6880306409192
 31
0.0
  0
LINE
  5
58
330
17
100
AcDbEntity
  8
FoilLayer
100
AcDbLine
 10
307.5639881696449
 20
37.6880306409192
 30
0.0
 11
301.19522210666304
 21
39.43658309749289
 31
0.0
  0
LINE
  5
59
330
17
100
AcDbEntity
  8
FoilLayer
100
AcDbLine
 10
301.19522210666304
 20
39.43658309749289
 30
0.0
 11
294.74575362260856
 21
41.20531115933475
 31
0.0
  0
LINE
  5
5A
330
17
100
AcDbEntity
  8
FoilLayer
100
AcDbLine
 10
294.74575362260856
 20
41.20531115933475
 30
0.0
 11
288.2223079192374
 21
42.98748962468872
 31
0.0
  0
LINE
  5
5B
330
17
100
AcDbEntity
  8
FoilLayer
100
AcDbLine
 10
288.2223079192374
 20
42.98748962468872
 30
0.0
 11
281.63161019830574
 21
44.75621768653057
 31
0.0
  0
LINE
  5
5C
330
17
100
AcDbEntity
  8
FoilLayer
100
AcDbLine
 10
281.63161019830574
 20
44.75621768653057
 30
0.0
 11
274.96693525805756
 21
46.52494574837242
 31
0.0
  0
LINE
  5
5D
330
17
100
AcDbEntity
  8
FoilLayer
100
AcDbLine
 10
274.96693525805756
 20
46.52494574837242
 30
0.0
 11
268.99999999999983
 21
48.091117377982386
 31
0.0
  0
LINE
  5
5E
330
17
100
AcDbEntity
  8
FoilLayer
100
AcDbLine
 10
268.99999999999983
 20
48.091117377982386
 30
0.0
 11
268.49224890082655
 21
46.15664359390354
 31
0.0
  0
LINE
  5
5F
330
17
100
AcDbEntity
  8
FoilLayer
100
AcDbLine
 10
268.49224890082655
 20
46.15664359390354
 30
0.0
 11
267.72788926833283
 21
46.35728386633989
 31
0.0
  0
LINE
  5
60
330
17
100
AcDbEntity
  8
FoilLayer
100
AcDbLine
 10
267.72788926833283
 20
46.35728386633989
 30
0.0
 11
260.9426983412348
 21
48.11069920607416
 31
0.0
  0
LINE
  5
61
330
17
100
AcDbEntity
  8
FoilLayer
100
AcDbLine
 10
260.9426983412348
 20
48.11069920607416
 30
0.0
 11
254.10539278445214
 21
49.85027141564383
 31
0.0
  0
LINE
  5
62
330
17
100
AcDbEntity
  8
FoilLayer
100
AcDbLine
 10
254.10539278445214
 20
49.85027141564383
 30
0.0
 11
247.21504334832258
 21
51.56952666581099
 31
0.0
  0
LINE
  5
63
330
17
100
AcDbEntity
  8
FoilLayer
100
AcDbLine
 10
247.21504334832258
 20
51.56952666581099
 30
0.0
 11
240.25560319428706
 21
53.26909793473111
 31
0.0
  0
LINE
  5
64
330
17
100
AcDbEntity
  8
FoilLayer
100
AcDbLine
 10
240.25560319428706
 20
53.26909793473111
 30
0.0
 11
233.25222706480463
 21
54.94937550616025
 31
0.0
  0
LINE
  5
65
330
17
100
AcDbEntity
  8
FoilLayer
100
AcDbLine
 10
233.25222706480463
 20
54.94937550616025
 30
0.0
 11
226.21424542175055
 21
56.62159498483567
 31
0.0
  0
LINE
  5
66
330
17
100
AcDbEntity
  8
FoilLayer
100
AcDbLine
 10
226.21424542175055
 20
56.62159498483567
 30
0.0
 11
219.15782745568657
 21
58.25984931823774
 31
0.0
  0
LINE
  5
67
330
17
100
AcDbEntity
  8
FoilLayer
100
AcDbLine
 10
219.15782745568657
 20
58.25984931823774
 30
0.0
 11
212.08336392920666
 21
59.8573607782672
 31
0.0
  0
LINE
  5
68
330
17
100
AcDbEntity
  8
FoilLayer
100
AcDbLine
 10
212.08336392920666
 20
59.8573607782672
 30
0.0
 11
204.98762378869952
 21
61.40672169609087
 31
0.0
  0
LINE
  5
69
330
17
100
AcDbEntity
  8
FoilLayer
100
AcDbLine
 10
204.98762378869952
 20
61.40672169609087
 30
0.0
 11
197.85324857548386
 21
62.89002977108365
 31
0.0
  0
LINE
  5
6A
330
17
100
AcDbEntity
  8
FoilLayer
100
AcDbLine
 10
197.85324857548386
 20
62.89002977108365
 30
0.0
 11
190.67740354799497
 21
64.32658883074711
 31
0.0
  0
LINE
  5
6B
330
17
100
AcDbEntity
  8
FoilLayer
100
AcDbLine
 10
190.67740354799497
 20
64.32658883074711
 30
0.0
 11
183.48378286192553
 21
65.71572130690377
 31
0.0
  0
LINE
  5
6C
330
17
100
AcDbEntity
  8
FoilLayer
100
AcDbLine
 10
183.48378286192553
 20
65.71572130690377
 30
0.0
 11
176.2572926916697
 21
67.05104999934036
 31
0.0
  0
LINE
  5
6D
330
17
100
AcDbEntity
  8
FoilLayer
100
AcDbLine
 10
176.2572926916697
 20
67.05104999934036
 30
0.0
 11
169.01795762016445
 21
68.32589399363708
 31
0.0
  0
LINE
  5
6E
330
17
100
AcDbEntity
  8
FoilLayer
100
AcDbLine
 10
169.01795762016445
 20
68.32589399363708
 30
0.0
 11
161.75138900083556
 21
69.54041724790056
 31
0.0
  0
LINE
  5
6F
330
17
100
AcDbEntity
  8
FoilLayer
100
AcDbLine
 10
161.75138900083556
 20
69.54041724790056
 30
0.0
 11
154.464885581052
 21
70.69452456123274
 31
0.0
  0
LINE
  5
70
330
17
100
AcDbEntity
  8
FoilLayer
100
AcDbLine
 10
154.464885581052
 20
70.69452456123274
 30
0.0
 11
147.15092147724027
 21
71.78833446884583
 31
0.0
  0
LINE
  5
71
330
17
100
AcDbEntity
  8
FoilLayer
100
AcDbLine
 10
147.15092147724027
 20
71.78833446884583
 30
0.0
 11
139.82326844658667
 21
72.821789496623
 31
0.0
  0
LINE
  5
72
330
17
100
AcDbEntity
  8
FoilLayer
100
AcDbLine
 10
139.82326844658667
 20
72.821789496623
 30
0.0
 11
132.48913552289144
 21
73.79482304866777
 31
0.0
  0
LINE
  5
73
330
17
100
AcDbEntity
  8
FoilLayer
100
AcDbLine
 10
132.48913552289144
 20
73.79482304866777
 30
0.0
 11
125.14133598075415
 21
74.70749432930805
 31
0.0
  0
LINE
  5
74
330
17
100
AcDbEntity
  8
FoilLayer
100
AcDbLine
 10
125.14133598075415
 20
74.70749432930805
 30
0.0
 11
117.79041293674499
 21
75.55939011338688
 31
0.0
  0
LINE
  5
75
330
17
100
AcDbEntity
  8
FoilLayer
100
AcDbLine
 10
117.79041293674499
 20
75.55939011338688
 30
0.0
 11
110.4291990115035
 21
76.33785423172117
 31
0.0
  0
LINE
  5
76
330
17
100
AcDbEntity
  8
FoilLayer
100
AcDbLine
 10
110.4291990115035
 20
76.33785423172117
 30
0.0
 11
103.05930909556031
 21
77.05610174255096
 31
0.0
  0
LINE
  5
77
330
17
100
AcDbEntity
  8
FoilLayer
100
AcDbLine
 10
103.05930909556031
 20
77.05610174255096
 30
0.0
 11
95.69290757371095
 21
77.72036623238559
 31
0.0
  0
LINE
  5
78
330
17
100
AcDbEntity
  8
FoilLayer
100
AcDbLine
 10
95.69290757371095
 20
77.72036623238559
 30
0.0
 11
88.32968235751116
 21
78.31779906308465
 31
0.0
  0
LINE
  5
79
330
17
100
AcDbEntity
  8
FoilLayer
100
AcDbLine
 10
88.32968235751116
 20
78.31779906308465
 30
0.0
 11
80.97662502535763
 21
78.86130705478683
 31
0.0
  0
LINE
  5
7A
330
17
100
AcDbEntity
  8
FoilLayer
100
AcDbLine
 10
80.97662502535763
 20
78.86130705478683
 30
0.0
 11
73.64397427742574
 21
79.33770888009568
 31
0.0
  0
LINE
  5
7B
330
17
100
AcDbEntity
  8
FoilLayer
100
AcDbLine
 10
73.64397427742574
 20
79.33770888009568
 30
0.0
 11
66.3248674336142
 21
79.74701697589532
 31
0.0
  0
LINE
  5
7C
330
17
100
AcDbEntity
  8
FoilLayer
100
AcDbLine
 10
66.3248674336142
 20
79.74701697589532
 30
0.0
 11
59.01739380754009
 21
80.08930663935257
 31
0.0
  0
LINE
  5
7D
330
17
100
AcDbEntity
  8
FoilLayer
100
AcDbLine
 10
59.01739380754009
 20
80.08930663935257
 30
0.0
 11
51.730145172543075
 21
80.37120065360737
 31
0.0
  0
LINE
  5
7E
330
17
100
AcDbEntity
  8
FoilLayer
100
AcDbLine
 10
51.730145172543075
 20
80.37120065360737
 30
0.0
 11
44.46984811251991
 21
80.59270008604585
 31
0.0
  0
LINE
  5
7F
330
17
100
AcDbEntity
  8
FoilLayer
100
AcDbLine
 10
44.46984811251991
 20
80.59270008604585
 30
0.0
 11
37.25201241215427
 21
80.75377814229407
 31
0.0
  0
LINE
  5
80
330
17
100
AcDbEntity
  8
FoilLayer
100
AcDbLine
 10
37.25201241215427
 20
80.75377814229407
 30
0.0
 11
30.0612086687006
 21
80.84777451277799
 31
0.0
  0
LINE
  5
81
330
17
100
AcDbEntity
  8
FoilLayer
100
AcDbLine
 10
30.0612086687006
 20
80.84777451277799
 30
0.0
 11
22.912830624046194
 21
80.87470468412492
 31
0.0
  0
LINE
  5
82
330
17
100
AcDbEntity
  8
FoilLayer
100
AcDbLine
 10
22.912830624046194
 20
80.87470468412492
 30
0.0
 11
15.785890199106007
 21
80.8277865661182
 31
0.0
  0
LINE
  5
83
330
17
100
AcDbEntity
  8
FoilLayer
100
AcDbLine
 10
15.785890199106007
 20
80.8277865661182
 30
0.0
 11
8.699553477150658
 21
80.72718827886187
 31
0.0
  0
LINE
  5
84
330
17
100
AcDbEntity
  8
FoilLayer
100
AcDbLine
 10
8.699553477150658
 20
80.72718827886187
 30
0.0
 11
1.6710282109335992
 21
80.5730313119165
 31
0.0
  0
LINE
  5
85
330
17
100
AcDbEntity
  8
FoilLayer
100
AcDbLine
 10
1.6710282109335992
 20
80.5730313119165
 30
0.0
 11
-5.311868770630724
 21
80.3517529555136
 31
0.0
  0
LINE
  5
86
330
17
100
AcDbEntity
  8
FoilLayer
100
AcDbLine
 10
-5.311868770630724
 20
80.3517529555136
 30
0.0
 11
-12.223581315872366
 21
80.07031052959861
 31
0.0
  0
LINE
  5
87
330
17
100
AcDbEntity
  8
FoilLayer
100
AcDbLine
 10
-12.223581315872366
 20
80.07031052959861
 30
0.0
 11
-19.09174451501289
 21
79.71491485078874
 31
0.0
  0
LINE
  5
88
330
17
100
AcDbEntity
  8
FoilLayer
100
AcDbLine
 10
-19.09174451501289
 20
79.71491485078874
 30
0.0
 11
-25.905845275960843
 21
79.2991817447041
 31
0.0
  0
LINE
  5
89
330
17
100
AcDbEntity
  8
FoilLayer
100
AcDbLine
 10
-25.905845275960843
 20
79.2991817447041
 30
0.0
 11
-32.66739326778361
 21
78.82299870494576
 31
0.0
  0
LINE
  5
8A
330
17
100
AcDbEntity
  8
FoilLayer
100
AcDbLine
 10
-32.66739326778361
 20
78.82299870494576
 30
0.0
 11
-39.3544349688095
 21
78.2932144956884
 31
0.0
  0
LINE
  5
8B
330
17
100
AcDbEntity
  8
FoilLayer
100
AcDbLine
 10
-39.3544349688095
 20
78.2932144956884
 30
0.0
 11
-45.95652517746893
 21
77.71021087434521
 31
0.0
  0
LINE
  5
8C
330
17
100
AcDbEntity
  8
FoilLayer
100
AcDbLine
 10
-45.95652517746893
 20
77.71021087434521
 30
0.0
 11
-52.4823965960999
 21
77.06045594516979
 31
0.0
  0
LINE
  5
8D
330
17
100
AcDbEntity
  8
FoilLayer
100
AcDbLine
 10
-52.4823965960999
 20
77.06045594516979
 30
0.0
 11
-58.94650623807084
 21
76.33635299732352
 31
0.0
  0
LINE
  5
8E
330
17
100
AcDbEntity
  8
FoilLayer
100
AcDbLine
 10
-58.94650623807084
 20
76.33635299732352
 30
0.0
 11
-65.33599108062785
 21
75.55871789916576
 31
0.0
  0
LINE
  5
8F
330
17
100
AcDbEntity
  8
FoilLayer
100
AcDbLine
 10
-65.33599108062785
 20
75.55871789916576
 30
0.0
 11
-71.64434589706212
 21
74.72753966033966
 31
0.0
  0
LINE
  5
90
330
17
100
AcDbEntity
  8
FoilLayer
100
AcDbLine
 10
-71.64434589706212
 20
74.72753966033966
 30
0.0
 11
-77.87303002366849
 21
73.84261013128264
 31
0.0
  0
LINE
  5
91
330
17
100
AcDbEntity
  8
FoilLayer
100
AcDbLine
 10
-77.87303002366849
 20
73.84261013128264
 30
0.0
 11
-84.00243836963926
 21
72.91162715128391
 31
0.0
  0
LINE
  5
92
330
17
100
AcDbEntity
  8
FoilLayer
100
AcDbLine
 10
-84.00243836963926
 20
72.91162715128391
 30
0.0
 11
-90.03106623713364
 21
71.92040365098006
 31
0.0
  0
LINE
  5
93
330
17
100
AcDbEntity
  8
FoilLayer
100
AcDbLine
 10
-90.03106623713364
 20
71.92040365098006
 30
0.0
 11
-95.97388354412593
 21
70.86865036964612
 31
0.0
  0
LINE
  5
94
330
17
100
AcDbEntity
  8
FoilLayer
100
AcDbLine
 10
-95.97388354412593
 20
70.86865036964612
 30
0.0
 11
-101.82786491031018
 21
69.76364386622654
 31
0.0
  0
LINE
  5
95
330
17
100
AcDbEntity
  8
FoilLayer
100
AcDbLine
 10
-101.82786491031018
 20
69.76364386622654
 30
0.0
 11
-107.58252002176067
 21
68.6048059340711
 31
0.0
  0
LINE
  5
96
330
17
100
AcDbEntity
  8
FoilLayer
100
AcDbLine
 10
-107.58252002176067
 20
68.6048059340711
 30
0.0
 11
-113.23739762231641
 21
67.39890969537558
 31
0.0
  0
LINE
  5
97
330
17
100
AcDbEntity
  8
FoilLayer
100
AcDbLine
 10
-113.23739762231641
 20
67.39890969537558
 30
0.0
 11
-118.78065029845597
 21
66.15385789615283
 31
0.0
  0
LINE
  5
98
330
17
100
AcDbEntity
  8
FoilLayer
100
AcDbLine
 10
-118.78065029845597
 20
66.15385789615283
 30
0.0
 11
-124.19910366625555
 21
64.8630229181923
 31
0.0
  0
LINE
  5
99
330
17
100
AcDbEntity
  8
FoilLayer
100
AcDbLine
 10
-124.19910366625555
 20
64.8630229181923
 30
0.0
 11
-129.51759569356852
 21
63.51187440868307
 31
0.0
  0
LINE
  5
9A
330
17
100
AcDbEntity
  8
FoilLayer
100
AcDbLine
 10
-129.51759569356852
 20
63.51187440868307
 30
0.0
 11
-134.72998617815475
 21
62.10693344611643
 31
0.0
  0
LINE
  5
9B
330
17
100
AcDbEntity
  8
FoilLayer
100
AcDbLine
 10
-134.72998617815475
 20
62.10693344611643
 30
0.0
 11
-139.8396359667354
 21
60.653862760852526
 31
0.0
  0
LINE
  5
9C
330
17
100
AcDbEntity
  8
FoilLayer
100
AcDbLine
 10
-139.8396359667354
 20
60.653862760852526
 30
0.0
 11
-144.82095722803297
 21
59.17642115940445
 31
0.0
  0
LINE
  5
9D
330
17
100
AcDbEntity
  8
FoilLayer
100
AcDbLine
 10
-144.82095722803297
 20
59.17642115940445
 30
0.0
 11
-149.6878208134645
 21
57.65242816747327
 31
0.0
  0
LINE
  5
9E
330
17
100
AcDbEntity
  8
FoilLayer
100
AcDbLine
 10
-149.6878208134645
 20
57.65242816747327
 30
0.0
 11
-154.42746980011702
 21
56.08838209648641
 31
0.0
  0
LINE
  5
9F
330
17
100
AcDbEntity
  8
FoilLayer
100
AcDbLine
 10
-154.42746980011702
 20
56.08838209648641
 30
0.0
 11
-159.0500331762454
 21
54.48547259804199
 31
0.0
  0
LINE
  5
A0
330
17
100
AcDbEntity
  8
FoilLayer
100
AcDbLine
 10
-159.0500331762454
 20
54.48547259804199
 30
0.0
 11
-163.54800332140167
 21
52.84158028969799
 31
0.0
  0
LINE
  5
A1
330
17
100
AcDbEntity
  8
FoilLayer
100
AcDbLine
 10
-163.54800332140167
 20
52.84158028969799
 30
0.0
 11
-167.93116509883527
 21
51.16473835460539
 31
0.0
  0
LINE
  5
A2
330
17
100
AcDbEntity
  8
FoilLayer
100
AcDbLine
 10
-167.93116509883527
 20
51.16473835460539
 30
0.0
 11
-172.18429324268942
 21
49.462450628152624
 31
0.0
  0
LINE
  5
A3
330
17
100
AcDbEntity
  8
FoilLayer
100
AcDbLine
 10
-172.18429324268942
 20
49.462450628152624
 30
0.0
 11
-176.30155291498096
 21
47.734468708000364
 31
0.0
  0
LINE
  5
A4
330
17
100
AcDbEntity
  8
FoilLayer
100
AcDbLine
 10
-176.30155291498096
 20
47.734468708000364
 30
0.0
 11
-180.2802977382523
 21
45.982119616062256
 31
0.0
  0
LINE
  5
A5
330
17
100
AcDbEntity
  8
FoilLayer
100
AcDbLine
 10
-180.2802977382523
 20
45.982119616062256
 30
0.0
 11
-184.12950546022395
 21
44.194602289970625
 31
0.0
  0
LINE
  5
A6
330
17
100
AcDbEntity
  8
FoilLayer
100
AcDbLine
 10
-184.12950546022395
 20
44.194602289970625
 30
0.0
 11
-187.846960743643
 21
42.389601394349725
 31
0.0
  0
LINE
  5
A7
330
17
100
AcDbEntity
  8
FoilLayer
100
AcDbLine
 10
-187.846960743643
 20
42.389601394349725
 30
0.0
 11
-191.44031621782167
 21
40.556611609364744
 31
0.0
  0
LINE
  5
A8
330
17
100
AcDbEntity
  8
FoilLayer
100
AcDbLine
 10
-191.44031621782167
 20
40.556611609364744
 30
0.0
 11
-194.88541697749218
 21
38.72154511820749
 31
0.0
  0
LINE
  5
A9
330
17
100
AcDbEntity
  8
FoilLayer
100
AcDbLine
 10
-194.88541697749218
 20
38.72154511820749
 30
0.0
 11
-198.19393555368316
 21
36.86468628580731
 31
0.0
  0
LINE
  5
AA
330
17
100
AcDbEntity
  8
FoilLayer
100
AcDbLine
 10
-198.19393555368316
 20
36.86468628580731
 30
0.0
 11
-201.3433549041594
 21
35.01562082361389
 31
0.0
  0
LINE
  5
AB
330
17
100
AcDbEntity
  8
FoilLayer
100
AcDbLine
 10
-201.3433549041594
 20
35.01562082361389
 30
0.0
 11
-204.3532160102185
 21
33.140212314965574
 31
0.0
  0
LINE
  5
AC
330
17
100
AcDbEntity
  8
FoilLayer
100
AcDbLine
 10
-204.3532160102185
 20
33.140212314965574
 30
0.0
 11
-207.21855131021806
 21
31.250584214124085
 31
0.0
  0
LINE
  5
AD
330
17
100
AcDbEntity
  8
FoilLayer
100
AcDbLine
 10
-207.21855131021806
 20
31.250584214124085
 30
0.0
 11
-209.9585801144445
 21
29.347140908599524
 31
0.0
  0
LINE
  5
AE
330
17
100
AcDbEntity
  8
FoilLayer
100
AcDbLine
 10
-209.9585801144445
 20
29.347140908599524
 30
0.0
 11
-212.55112324191663
 21
27.456568209507317
 31
0.0
  0
LINE
  5
AF
330
17
100
AcDbEntity
  8
FoilLayer
100
AcDbLine
 10
-212.55112324191663
 20
27.456568209507317
 30
0.0
 11
-214.988532955234
 21
25.575022828852003
 31
0.0
  0
LINE
  5
B0
330
17
100
AcDbEntity
  8
FoilLayer
100
AcDbLine
 10
-214.988532955234
 20
25.575022828852003
 30
0.0
 11
-217.26795410475282
 21
23.711078547325265
 31
0.0
  0
LINE
  5
B1
330
17
100
AcDbEntity
  8
FoilLayer
100
AcDbLine
 10
-217.26795410475282
 20
23.711078547325265
 30
0.0
 11
-219.3951805372774
 21
21.841538403024916
 31
0.0
  0
LINE
  5
B2
330
17
100
AcDbEntity
  8
FoilLayer
100
AcDbLine
 10
-219.3951805372774
 20
21.841538403024916
 30
0.0
 11
-221.3796531360999
 21
19.9702266211344
 31
0.0
  0
LINE
  5
B3
330
17
100
AcDbEntity
  8
FoilLayer
100
AcDbLine
 10
-221.3796531360999
 20
19.9702266211344
 30
0.0
 11
-223.2180446982001
 21
18.120711277076595
 31
0.0
  0
LINE
  5
B4
330
17
100
AcDbEntity
  8
FoilLayer
100
AcDbLine
 10
-223.2180446982001
 20
18.120711277076595
 30
0.0
 11
-224.91351581306603
 21
16.283016768257514
 31
0.0
  0
LINE
  5
B5
330
17
100
AcDbEntity
  8
FoilLayer
100
AcDbLine
 10
-224.91351581306603
 20
16.283016768257514
 30
0.0
 11
-226.4576462716629
 21
14.488893299203816
 31
0.0
  0
LINE
  5
B6
330
17
100
AcDbEntity
  8
FoilLayer
100
AcDbLine
 10
-226.4576462716629
 20
14.488893299203816
 30
0.0
 11
-227.8511723346529
 21
12.716045755652997
 31
0.0
  0
LINE
  5
B7
330
17
100
AcDbEntity
  8
FoilLayer
100
AcDbLine
 10
-227.8511723346529
 20
12.716045755652997
 30
0.0
 11
-229.08567201357937
 21
10.997270534976495
 31
0.0
  0
LINE
  5
B8
330
17
100
AcDbEntity
  8
FoilLayer
100
AcDbLine
 10
-229.08567201357937
 20
10.997270534976495
 30
0.0
 11
-230.1609287907525
 21
9.330485842123718
 31
0.0
  0
LINE
  5
B9
330
17
100
AcDbEntity
  8
FoilLayer
100
AcDbLine
 10
-230.1609287907525
 20
9.330485842123718
 30
0.0
 11
-231.08920812190738
 21
7.68419177679014
 31
0.0
  0
LINE
  5
BA
330
17
100
AcDbEntity
  8
FoilLayer
100
AcDbLine
 10
-231.08920812190738
 20
7.68419177679014
 30
0.0
 11
-231.83505127502175
 21
6.171956896517649
 31
0.0
  0
LINE
  5
BB
330
17
100
AcDbEntity
  8
FoilLayer
100
AcDbLine
 10
-231.83505127502175
 20
6.171956896517649
 30
0.0
 11
-232.47501328635326
 21
4.521035729406596
 31
0.0
  0
LINE
  5
BC
330
17
100
AcDbEntity
  8
FoilLayer
100
AcDbLine
 10
-232.47501328635326
 20
4.521035729406596
 30
0.0
 11
-232.90686787763457
 21
3.326485397190679
 31
0.0
  0
LINE
  5
BD
330
17
100
AcDbEntity
  8
FoilLayer
100
AcDbLine
 10
-232.90686787763457
 20
3.326485397190679
 30
0.0
 11
-233.21591319633671
 21
1.7737821227144084
 31
0.0
  0
LINE
  5
BE
330
17
100
AcDbEntity
  8
FoilLayer
100
AcDbLine
 10
-233.21591319633671
 20
1.7737821227144084
 30
0.0
 11
-233.37499999999983
 21
0.2017560526815803
 31
0.0
  0
LINE
  5
BF
330
17
100
AcDbEntity
  8
FoilLayer
100
AcDbLine
 10
-233.37499999999983
 20
0.2017560526815803
 30
0.0
 11
-233.3819222787815
 21
-0.12991495504261638
 31
0.0
  0
LINE
  5
C0
330
17
100
AcDbEntity
  8
FoilLayer
100
AcDbLine
 10
-233.3819222787815
 20
-0.12991495504261638
 30
0.0
 11
-233.25742817817377
 21
-1.5213573110407763
 31
0.0
  0
LINE
  5
C1
330
17
100
AcDbEntity
  8
FoilLayer
100
AcDbLine
 10
-233.25742817817377
 20
-1.5213573110407763
 30
0.0
 11
-232.9587274162414
 21
-2.512484719221298
 31
0.0
  0
LINE
  5
C2
330
17
100
AcDbEntity
  8
FoilLayer
100
AcDbLine
 10
-232.9587274162414
 20
-2.512484719221298
 30
0.0
 11
-232.5053792990477
 21
-3.473924806773436
 31
0.0
  0
LINE
  5
C3
330
17
100
AcDbEntity
  8
FoilLayer
100
AcDbLine
 10
-232.5053792990477
 20
-3.473924806773436
 30
0.0
 11
-231.8377063509238
 21
-4.452714578236657
 31
0.0
  0
LINE
  5
C4
330
17
100
AcDbEntity
  8
FoilLayer
100
AcDbLine
 10
-231.8377063509238
 20
-4.452714578236657
 30
0.0
 11
-231.0080559095274
 21
-5.403840042615015
 31
0.0
  0
LINE
  5
C5
330
17
100
AcDbEntity
  8
FoilLayer
100
AcDbLine
 10
-231.0080559095274
 20
-5.403840042615015
 30
0.0
 11
-229.97937374909543
 21
-6.330592309801299
 31
0.0
  0
LINE
  5
C6
330
17
100
AcDbEntity
  8
FoilLayer
100
AcDbLine
 10
-229.97937374909543
 20
-6.330592309801299
 30
0.0
 11
-228.76758448668795
 21
-7.211658406195966
 31
0.0
  0
LINE
  5
C7
330
17
100
AcDbEntity
  8
FoilLayer
100
AcDbLine
 10
-228.76758448668795
 20
-7.211658406195966
 30
0.0
 11
-227.33326319105726
 21
-8.046779494057883
 31
0.0
  0
LINE
  5
C8
330
17
100
AcDbEntity
  8
FoilLayer
100
AcDbLine
 10
-227.33326319105726
 20
-8.046779494057883
 30
0.0
 11
-225.62361103466748
 21
-8.848305839856254
 31
0.0
  0
LINE
  5
C9
330
17
100
AcDbEntity
  8
FoilLayer
100
AcDbLine
 10
-225.62361103466748
 20
-8.848305839856254
 30
0.0
 11
-223.65932290649565
 21
-9.632114958873348
 31
0.0
  0
LINE
  5
CA
330
17
100
AcDbEntity
  8
FoilLayer
100
AcDbLine
 10
-223.65932290649565
 20
-9.632114958873348
 30
0.0
 11
-221.46837265553762
 21
-10.398441705440744
 31
0.0
  0
LINE
  5
CB
330
17
100
AcDbEntity
  8
FoilLayer
100
AcDbLine
 10
-221.46837265553762
 20
-10.398441705440744
 30
0.0
 11
-219.12270259157157
 21
-11.134597132313013
 31
0.0
  0
LINE
  5
CC
330
17
100
AcDbEntity
  8
FoilLayer
100
AcDbLine
 10
-219.12270259157157
 20
-11.134597132313013
 30
0.0
 11
-216.57739399654474
 21
-11.81499456687871
 31
0.0
  0
LINE
  5
CD
330
17
100
AcDbEntity
  8
FoilLayer
100
AcDbLine
 10
-216.57739399654474
 20
-11.81499456687871
 30
0.0
 11
-213.81349911135925
 21
-12.435835922172108
 31
0.0
  0
LINE
  5
CE
330
17
100
AcDbEntity
  8
FoilLayer
100
AcDbLine
 10
-213.81349911135925
 20
-12.435835922172108
 30
0.0
 11
-210.82693374183347
 21
-13.02029218951898
 31
0.0
  0
LINE
  5
CF
330
17
100
AcDbEntity
  8
FoilLayer
100
AcDbLine
 10
-210.82693374183347
 20
-13.02029218951898
 30
0.0
 11
-207.6282554128611
 21
-13.579237720985056
 31
0.0
  0
LINE
  5
D0
330
17
100
AcDbEntity
  8
FoilLayer
100
AcDbLine
 10
-207.6282554128611
 20
-13.579237720985056
 30
0.0
 11
-204.26655116780165
 21
-14.103647845059147
 31
0.0
  0
LINE
  5
D1
330
17
100
AcDbEntity
  8
FoilLayer
100
AcDbLine
 10
-204.26655116780165
 20
-14.103647845059147
 30
0.0
 11
-200.71942750569684
 21
-14.56912477078854
 31
0.0
  0
LINE
  5
D2
330
17
100
AcDbEntity
  8
FoilLayer
100
AcDbLine
 10
-200.71942750569684
 20
-14.56912477078854
 30
0.0
 11
-196.9743040919974
 21
-14.97592517136808
 31
0.0
  0
LINE
  5
D3
330
17
100
AcDbEntity
  8
FoilLayer
100
AcDbLine
 10
-196.9743040919974
 20
-14.97592517136808
 30
0.0
 11
-193.0073790139296
 21
-15.337275661372203
 31
0.0
  0
LINE
  5
D4
330
17
100
AcDbEntity
  8
FoilLayer
100
AcDbLine
 10
-193.0073790139296
 20
-15.337275661372203
 30
0.0
 11
-188.84293935853717
 21
-15.67212529416267
 31
0.0
  0
LINE
  5
D5
330
17
100
AcDbEntity
  8
FoilLayer
100
AcDbLine
 10
-188.84293935853717
 20
-15.67212529416267
 30
0.0
 11
-184.51075110281377
 21
-15.979823953441944
 31
0.0
  0
LINE
  5
D6
330
17
100
AcDbEntity
  8
FoilLayer
100
AcDbLine
 10
-184.51075110281377
 20
-15.979823953441944
 30
0.0
 11
-180.02426903873237
 21
-16.24047110713876
 31
0.0
  0
LINE
  5
D7
330
17
100
AcDbEntity
  8
FoilLayer
100
AcDbLine
 10
-180.02426903873237
 20
-16.24047110713876
 30
0.0
 11
-175.352439407789
 21
-16.43469818655081
 31
0.0
  0
LINE
  5
D8
330
17
100
AcDbEntity
  8
FoilLayer
100
AcDbLine
 10
-175.352439407789
 20
-16.43469818655081
 30
0.0
 11
-170.49495527544298
 21
-16.582181403926775
 31
0.0
  0
LINE
  5
D9
330
17
100
AcDbEntity
  8
FoilLayer
100
AcDbLine
 10
-170.49495527544298
 20
-16.582181403926775
 30
0.0
 11
-165.42899747078238
 21
-16.689572932277702
 31
0.0
  0
LINE
  5
DA
330
17
100
AcDbEntity
  8
FoilLayer
100
AcDbLine
 10
-165.42899747078238
 20
-16.689572932277702
 30
0.0
 11
-160.208417318682
 21
-16.77007687117863
 31
0.0
  0
LINE
  5
DB
330
17
100
AcDbEntity
  8
FoilLayer
100
AcDbLine
 10
-160.208417318682
 20
-16.77007687117863
 30
0.0
 11
-154.8277972391119
 21
-16.80367730092993
 31
0.0
  0
LINE
  5
DC
330
17
100
AcDbEntity
  8
FoilLayer
100
AcDbLine
 10
-154.8277972391119
 20
-16.80367730092993
 30
0.0
 11
-149.29130589410022
 21
-16.78365478200037
 31
0.0
  0
LINE
  5
DD
330
17
100
AcDbEntity
  8
FoilLayer
100
AcDbLine
 10
-149.29130589410022
 20
-16.78365478200037
 30
0.0
 11
-143.5652772459938
 21
-16.709841781931363
 31
0.0
  0
LINE
  5
DE
330
17
100
AcDbEntity
  8
FoilLayer
100
AcDbLine
 10
-143.5652772459938
 20
-16.709841781931363
 30
0.0
 11
-137.65272176905947
 21
-16.602348679514503
 31
0.0
  0
LINE
  5
DF
330
17
100
AcDbEntity
  8
FoilLayer
100
AcDbLine
 10
-137.65272176905947
 20
-16.602348679514503
 30
0.0
 11
-131.576308920464
 21
-16.474802076373983
 31
0.0
  0
LINE
  5
E0
330
17
100
AcDbEntity
  8
FoilLayer
100
AcDbLine
 10
-131.576308920464
 20
-16.474802076373983
 30
0.0
 11
-125.37116614535617
 21
-16.31386523100927
 31
0.0
  0
LINE
  5
E1
330
17
100
AcDbEntity
  8
FoilLayer
100
AcDbLine
 10
-125.37116614535617
 20
-16.31386523100927
 30
0.0
 11
-119.01314725969895
 21
-16.0990508621996
 31
0.0
  0
LINE
  5
E2
330
17
100
AcDbEntity
  8
FoilLayer
100
AcDbLine
 10
-119.01314725969895
 20
-16.0990508621996
 30
0.0
 11
-112.4997669578532
 21
-15.843912901754338
 31
0.0
  0
LINE
  5
E3
330
17
100
AcDbEntity
  8
FoilLayer
100
AcDbLine
 10
-112.4997669578532
 20
-15.843912901754338
 30
0.0
 11
-105.80815774272253
 21
-15.548002544783134
 31
0.0
  0
LINE
  5
E4
330
17
100
AcDbEntity
  8
FoilLayer
100
AcDbLine
 10
-105.80815774272253
 20
-15.548002544783134
 30
0.0
 11
-98.96806892594483
 21
-15.245650590707326
 31
0.0
  0
LINE
  5
E5
330
17
100
AcDbEntity
  8
FoilLayer
100
AcDbLine
 10
-98.96806892594483
 20
-15.245650590707326
 30
0.0
 11
-92.0086035141415
 21
-14.916502121214101
 31
0.0
  0
LINE
  5
E6
330
17
100
AcDbEntity
  8
FoilLayer
100
AcDbLine
 10
-92.0086035141415
 20
-14.916502121214101
 30
0.0
 11
-84.93121438548596
 21
-14.553933669092888
 31
0.0
  0
LINE
  5
E7
330
17
100
AcDbEntity
  8
FoilLayer
100
AcDbLine
 10
-84.93121438548596
 20
-14.553933669092888
 30
0.0
 11
-77.70853657097953
 21
-14.144100706688441
 31
0.0
  0
LINE
  5
E8
330
17
100
AcDbEntity
  8
FoilLayer
100
AcDbLine
 10
-77.70853657097953
 20
-14.144100706688441
 30
0.0
 11
-70.33546320685241
 21
-13.700103038195689
 31
0.0
  0
LINE
  5
E9
330
17
100
AcDbEntity
  8
FoilLayer
100
AcDbLine
 10
-70.33546320685241
 20
-13.700103038195689
 30
0.0
 11
-67.36796792845996
 21
-13.524763120224424
 31
0.0
  0
LINE
  5
EA
330
17
100
AcDbEntity
  8
FoilLayer
100
AcDbLine
 10
-67.36796792845996
 20
-13.524763120224424
 30
0.0
 11
-67.24999999999994
 21
-15.521280980864507
 31
0.0
  0
LINE
  5
EB
330
17
100
AcDbEntity
  8
FoilLayer
100
AcDbLine
 10
-67.24999999999994
 20
-15.521280980864507
 30
0.0
 11
-62.70544491334732
 21
-15.252757582727469
 31
0.0
  0
LINE
  5
EC
330
17
100
AcDbEntity
  8
FoilLayer
100
AcDbLine
 10
-62.70544491334732
 20
-15.252757582727469
 30
0.0
 11
-55.09251652549571
 21
-14.795443863315889
 31
0.0
  0
LINE
  5
ED
330
17
100
AcDbEntity
  8
FoilLayer
100
AcDbLine
 10
-55.09251652549571
 20
-14.795443863315889
 30
0.0
 11
-47.37871011130326
 21
-14.311229336880096
 31
0.0
  0
LINE
  5
EE
330
17
100
AcDbEntity
  8
FoilLayer
100
AcDbLine
 10
-47.37871011130326
 20
-14.311229336880096
 30
0.0
 11
-39.550575267257926
 21
-13.779938398151932
 31
0.0
  0
LINE
  5
EF
330
17
100
AcDbEntity
  8
FoilLayer
100
AcDbLine
 10
-39.550575267257926
 20
-13.779938398151932
 30
0.0
 11
-31.601386791603687
 21
-13.235197055911668
 31
0.0
  0
LINE
  5
F0
330
17
100
AcDbEntity
  8
FoilLayer
100
AcDbLine
 10
-31.601386791603687
 20
-13.235197055911668
 30
0.0
 11
-23.53786988609653
 21
-12.690455713671401
 31
0.0
  0
LINE
  5
F1
330
17
100
AcDbEntity
  8
FoilLayer
100
AcDbLine
 10
-23.53786988609653
 20
-12.690455713671401
 30
0.0
 11
-15.386925357760703
 21
-12.152439573187186
 31
0.0
  0
LINE
  5
F2
330
17
100
AcDbEntity
  8
FoilLayer
100
AcDbLine
 10
-15.386925357760703
 20
-12.152439573187186
 30
0.0
 11
-7.162003610108258
 21
-11.580797423922709
 31
0.0
  0
LINE
  5
F3
330
17
100
AcDbEntity
  8
FoilLayer
100
AcDbLine
 10
-7.162003610108258
 20
-11.580797423922709
 30
0.0
 11
1.1503457603728293
 21
-10.988979669390075
 31
0.0
  0
LINE
  5
F4
330
17
100
AcDbEntity
  8
FoilLayer
100
AcDbLine
 10
1.1503457603728293
 20
-10.988979669390075
 30
0.0
 11
9.556847955438684
 21
-10.390436713101387
 31
0.0
  0
LINE
  5
F5
330
17
100
AcDbEntity
  8
FoilLayer
100
AcDbLine
 10
9.556847955438684
 20
-10.390436713101387
 30
0.0
 11
18.04405257157714
 21
-9.791893756812698
 31
0.0
  0
LINE
  5
F6
330
17
100
AcDbEntity
  8
FoilLayer
100
AcDbLine
 10
18.04405257157714
 20
-9.791893756812698
 30
0.0
 11
26.598509205276173
 21
-9.206801204036115
 31
0.0
  0
LINE
  5
F7
330
17
100
AcDbEntity
  8
FoilLayer
100
AcDbLine
 10
26.598509205276173
 20
-9.206801204036115
 30
0.0
 11
35.19331704951145
 21
-8.608258247747425
 31
0.0
  0
LINE
  5
F8
330
17
100
AcDbEntity
  8
FoilLayer
100
AcDbLine
 10
35.19331704951145
 20
-8.608258247747425
 30
0.0
 11
43.84865170955129
 21
-7.98953968619058
 31
0.0
  0
LINE
  5
F9
330
17
100
AcDbEntity
  8
FoilLayer
100
AcDbLine
 10
43.84865170955129
 20
-7.98953968619058
 30
0.0
 11
52.571238387151595
 21
-7.370821124633735
 31
0.0
  0
LINE
  5
FA
330
17
100
AcDbEntity
  8
FoilLayer
100
AcDbLine
 10
52.571238387151595
 20
-7.370821124633735
 30
0.0
 11
61.34762667880034
 21
-6.765552966588993
 31
0.0
  0
LINE
  5
FB
330
17
100
AcDbEntity
  8
FoilLayer
100
AcDbLine
 10
61.34762667880034
 20
-6.765552966588993
 30
0.0
 11
70.1509157774733
 21
-6.173735212056358
 31
0.0
  0
LINE
  5
FC
330
17
100
AcDbEntity
  8
FoilLayer
100
AcDbLine
 10
70.1509157774733
 20
-6.173735212056358
 30
0.0
 11
78.97438048141436
 21
-5.575192255767669
 31
0.0
  0
LINE
  5
FD
330
17
100
AcDbEntity
  8
FoilLayer
100
AcDbLine
 10
78.97438048141436
 20
-5.575192255767669
 30
0.0
 11
87.81802079062368
 21
-4.969924097722928
 31
0.0
  0
LINE
  5
FE
330
17
100
AcDbEntity
  8
FoilLayer
100
AcDbLine
 10
87.81802079062368
 20
-4.969924097722928
 30
0.0
 11
96.70873751212531
 21
-4.364655939678187
 31
0.0
  0
LINE
  5
FF
330
17
100
AcDbEntity
  8
FoilLayer
100
AcDbLine
 10
96.70873751212531
 20
-4.364655939678187
 30
0.0
 11
105.6196298388951
 21
-3.779563386901604
 31
0.0
  0
LINE
  5
100
330
17
100
AcDbEntity
  8
FoilLayer
100
AcDbLine
 10
105.6196298388951
 20
-3.779563386901604
 30
0.0
 11
114.52379696390886
 21
-3.2213716411492324
 31
0.0
  0
LINE
  5
101
330
17
100
AcDbEntity
  8
FoilLayer
100
AcDbLine
 10
114.52379696390886
 20
-3.2213716411492324
 30
0.0
 11
123.41451368541044
 21
-2.66317989539686
 31
0.0
  0
LINE
  5
102
330
17
100
AcDbEntity
  8
FoilLayer
100
AcDbLine
 10
123.41451368541044
 20
-2.66317989539686
 30
0.0
 11
132.29850520515612
 21
-2.0915377461323827
 31
0.0
  0
LINE
  5
103
330
17
100
AcDbEntity
  8
FoilLayer
100
AcDbLine
 10
132.29850520515612
 20
-2.0915377461323827
 30
0.0
 11
141.1892219266577
 21
-1.5333460003800103
 31
0.0
  0
LINE
  5
104
330
17
100
AcDbEntity
  8
FoilLayer
100
AcDbLine
 10
141.1892219266577
 20
-1.5333460003800103
 30
0.0
 11
150.06648824464725
 21
-1.0020550616518489
 31
0.0
  0
LINE
  5
105
330
17
100
AcDbEntity
  8
FoilLayer
100
AcDbLine
 10
150.06648824464725
 20
-1.0020550616518489
 30
0.0
 11
158.9101285538565
 21
-0.48421452643579266
 31
0.0
  0
LINE
  5
106
330
17
100
AcDbEntity
  8
FoilLayer
100
AcDbLine
 10
158.9101285538565
 20
-0.48421452643579266
 30
0.0
 11
167.6999672490174
 21
0.026900807024210705
 31
0.0
  0
LINE
  5
107
330
17
100
AcDbEntity
  8
FoilLayer
100
AcDbLine
 10
167.6999672490174
 20
0.026900807024210705
 30
0.0
 11
176.462905137154
 21
0.5447413422402668
 31
0.0
  0
LINE
  5
108
330
17
100
AcDbEntity
  8
FoilLayer
100
AcDbLine
 10
176.462905137154
 20
0.5447413422402668
 30
0.0
 11
185.19894221826638
 21
1.0491314739442177
 31
0.0
  0
LINE
  5
109
330
17
100
AcDbEntity
  8
FoilLayer
100
AcDbLine
 10
185.19894221826638
 20
1.0491314739442177
 30
0.0
 11
193.89462808884252
 21
1.5266207986239575
 31
0.0
  0
LINE
  5
10A
330
17
100
AcDbEntity
  8
FoilLayer
100
AcDbLine
 10
193.89462808884252
 20
1.5266207986239575
 30
0.0
 11
202.51633674010208
 21
1.9839345180355397
 31
0.0
  0
LINE
  5
10B
330
17
100
AcDbEntity
  8
FoilLayer
100
AcDbLine
 10
202.51633674010208
 20
1.9839345180355397
 30
0.0
 11
211.0707933738011
 21
2.441248237447122
 31
0.0
  0
LINE
  5
10C
330
17
100
AcDbEntity
  8
FoilLayer
100
AcDbLine
 10
211.0707933738011
 20
2.441248237447122
 30
0.0
 11
219.57144839345165
 21
2.9052871586147564
 31
0.0
  0
LINE
  5
10D
330
17
100
AcDbEntity
  8
FoilLayer
100
AcDbLine
 10
219.57144839345165
 20
2.9052871586147564
 30
0.0
 11
228.01830179905386
 21
3.3424252727581805
 31
0.0
  0
LINE
  5
10E
330
17
100
AcDbEntity
  8
FoilLayer
100
AcDbLine
 10
228.01830179905386
 20
3.3424252727581805
 30
0.0
 11
236.3979031870955
 21
3.7459373781213414
 31
0.0
  0
LINE
  5
10F
330
17
100
AcDbEntity
  8
FoilLayer
100
AcDbLine
 10
236.3979031870955
 20
3.7459373781213414
 30
0.0
 11
244.68335175055233
 21
4.129273878216344
 31
0.0
  0
LINE
  5
110
330
17
100
AcDbEntity
  8
FoilLayer
100
AcDbLine
 10
244.68335175055233
 20
4.129273878216344
 30
0.0
 11
252.87464748942455
 21
4.512610378311346
 31
0.0
  0
LINE
  5
111
330
17
100
AcDbEntity
  8
FoilLayer
100
AcDbLine
 10
252.87464748942455
 20
4.512610378311346
 30
0.0
 11
260.9919660089801
 21
4.882496474894244
 31
0.0
  0
LINE
  5
112
330
17
100
AcDbEntity
  8
FoilLayer
100
AcDbLine
 10
260.9919660089801
 20
4.882496474894244
 30
0.0
 11
269.028582107463
 21
5.2187565626968775
 31
0.0
  0
LINE
  5
113
330
17
100
AcDbEntity
  8
FoilLayer
100
AcDbLine
 10
269.028582107463
 20
5.2187565626968775
 30
0.0
 11
276.9643201796053
 21
5.5079402382071425
 31
0.0
  0
LINE
  5
114
330
17
100
AcDbEntity
  8
FoilLayer
100
AcDbLine
 10
276.9643201796053
 20
5.5079402382071425
 30
0.0
 11
284.78572982189445
 21
5.763497904937143
 31
0.0
  0
LINE
  5
115
330
17
100
AcDbEntity
  8
FoilLayer
100
AcDbLine
 10
284.78572982189445
 20
5.763497904937143
 30
0.0
 11
292.4793606308187
 21
6.005605168155039
 31
0.0
  0
LINE
  5
116
330
17
100
AcDbEntity
  8
FoilLayer
100
AcDbLine
 10
292.4793606308187
 20
6.005605168155039
 30
0.0
 11
300.0721134134022
 21
6.214086422592674
 31
0.0
  0
LINE
  5
117
330
17
100
AcDbEntity
  8
FoilLayer
100
AcDbLine
 10
300.0721134134022
 20
6.214086422592674
 30
0.0
 11
307.54381256437676
 21
6.3687660629818845
 31
0.0
  0
LINE
  5
118
330
17
100
AcDbEntity
  8
FoilLayer
100
AcDbLine
 10
307.54381256437676
 20
6.3687660629818845
 30
0.0
 11
314.86755727671806
 21
6.469644089322676
 31
0.0
  0
LINE
  5
119
330
17
100
AcDbEntity
  8
FoilLayer
100
AcDbLine
 10
314.86755727671806
 20
6.469644089322676
 30
0.0
 11
322.02317194515814
 21
6.5368961068832006
 31
0.0
  0
LINE
  5
11A
330
17
100
AcDbEntity
  8
FoilLayer
100
AcDbLine
 10
322.02317194515814
 20
6.5368961068832006
 30
0.0
 11
329.03083217496504
 21
6.58397251917557
 31
0.0
  0
LINE
  5
11B
330
17
100
AcDbEntity
  8
FoilLayer
100
AcDbLine
 10
329.03083217496504
 20
6.58397251917557
 30
0.0
 11
335.89053796613877
 21
6.590697720931622
 31
0.0
  0
LINE
  5
11C
330
17
100
AcDbEntity
  8
FoilLayer
100
AcDbLine
 10
335.89053796613877
 20
6.590697720931622
 30
0.0
 11
342.58211371341116
 21
6.543621308639254
 31
0.0
  0
LINE
  5
11D
330
17
100
AcDbEntity
  8
FoilLayer
100
AcDbLine
 10
342.58211371341116
 20
6.543621308639254
 30
0.0
 11
349.0853838115142
 21
6.45619368581057
 31
0.0
  0
LINE
  5
11E
330
17
100
AcDbEntity
  8
FoilLayer
100
AcDbLine
 10
349.0853838115142
 20
6.45619368581057
 30
0.0
 11
355.3868978569355
 21
6.341865255957674
 31
0.0
  0
LINE
  5
11F
330
17
100
AcDbEntity
  8
FoilLayer
100
AcDbLine
 10
355.3868978569355
 20
6.341865255957674
 30
0.0
 11
361.50683145494344
 21
6.200636019080568
 31
0.0
  0
LINE
  5
120
330
17
100
AcDbEntity
  8
FoilLayer
100
AcDbLine
 10
361.50683145494344
 20
6.200636019080568
 30
0.0
 11
367.4384594037818
 21
6.025780773423198
 31
0.0
  0
LINE
  5
121
330
17
100
AcDbEntity
  8
FoilLayer
100
AcDbLine
 10
367.4384594037818
 20
6.025780773423198
 30
0.0
 11
373.16160609818263
 21
5.810574317229513
 31
0.0
  0
LINE
  5
122
330
17
100
AcDbEntity
  8
FoilLayer
100
AcDbLine
 10
373.16160609818263
 20
5.810574317229513
 30
0.0
 11
378.6628211346338
 21
5.561741852255563
 31
0.0
  0
LINE
  5
123
330
17
100
AcDbEntity
  8
FoilLayer
100
AcDbLine
 10
378.6628211346338
 20
5.561741852255563
 30
0.0
 11
383.9421045131351
 21
5.306184185525562
 31
0.0
  0
LINE
  5
124
330
17
100
AcDbEntity
  8
FoilLayer
100
AcDbLine
 10
383.9421045131351
 20
5.306184185525562
 30
0.0
 11
389.0129066371989
 21
5.02372571177135
 31
0.0
  0
LINE
  5
125
330
17
100
AcDbEntity
  8
FoilLayer
100
AcDbLine
 10
389.0129066371989
 20
5.02372571177135
 30
0.0
 11
393.8617771033128
 21
4.714366430992927
 31
0.0
  0
LINE
  5
126
330
17
100
AcDbEntity
  8
FoilLayer
100
AcDbLine
 10
393.8617771033128
 20
4.714366430992927
 30
0.0
 11
398.4618151044529
 21
4.364655939678187
 31
0.0
  0
LINE
  5
127
330
17
100
AcDbEntity
  8
FoilLayer
100
AcDbLine
 10
398.4618151044529
 20
4.364655939678187
 30
0.0
 11
402.81302064061896
 21
4.0082202466073955
 31
0.0
  0
LINE
  5
128
330
17
100
AcDbEntity
  8
FoilLayer
100
AcDbLine
 10
402.81302064061896
 20
4.0082202466073955
 30
0.0
 11
406.90866851005507
 21
3.651784553536604
 31
0.0
  0
LINE
  5
129
330
17
100
AcDbEntity
  8
FoilLayer
100
AcDbLine
 10
406.90866851005507
 20
3.651784553536604
 30
0.0
 11
410.7689343180294
 21
3.295348860465812
 31
0.0
  0
LINE
  5
12A
330
17
100
AcDbEntity
  8
FoilLayer
100
AcDbLine
 10
410.7689343180294
 20
3.295348860465812
 30
0.0
 11
414.3736424592735
 21
2.9321879656389673
 31
0.0
  0
LINE
  5
12B
330
17
100
AcDbEntity
  8
FoilLayer
100
AcDbLine
 10
414.3736424592735
 20
2.9321879656389673
 30
0.0
 11
417.72279293378773
 21
2.56230186905607
 31
0.0
  0
LINE
  5
12C
330
17
100
AcDbEntity
  8
FoilLayer
100
AcDbLine
 10
417.72279293378773
 20
2.56230186905607
 30
0.0
 11
420.809660539816
 21
2.199140974229225
 31
0.0
  0
LINE
  5
12D
330
17
100
AcDbEntity
  8
FoilLayer
100
AcDbLine
 10
420.809660539816
 20
2.199140974229225
 30
0.0
 11
423.6207948738459
 21
1.8427052811584335
 31
0.0
  0
LINE
  5
12E
330
17
100
AcDbEntity
  8
FoilLayer
100
AcDbLine
 10
423.6207948738459
 20
1.8427052811584335
 30
0.0
 11
426.1696463393899
 21
1.5064451933557994
 31
0.0
  0
LINE
  5
12F
330
17
100
AcDbEntity
  8
FoilLayer
100
AcDbLine
 10
426.1696463393899
 20
1.5064451933557994
 30
0.0
 11
428.44276453293577
 21
1.1970859125773763
 31
0.0
  0
LINE
  5
130
330
17
100
AcDbEntity
  8
FoilLayer
100
AcDbLine
 10
428.44276453293577
 20
1.1970859125773763
 30
0.0
 11
430.4603250597515
 21
0.914627438823164
 31
0.0
  0
LINE
  5
131
330
17
100
AcDbEntity
  8
FoilLayer
100
AcDbLine
 10
430.4603250597515
 20
0.914627438823164
 30
0.0
 11
432.2021523145691
 21
0.665794973849215
 31
0.0
  0
LINE
  5
132
330
17
100
AcDbEntity
  8
FoilLayer
100
AcDbLine
 10
432.2021523145691
 20
0.665794973849215
 30
0.0
 11
433.6884219026568
 21
0.4505885176555294
 31
0.0
  0
LINE
  5
133
330
17
100
AcDbEntity
  8
FoilLayer
100
AcDbLine
 10
433.6884219026568
 20
0.4505885176555294
 30
0.0
 11
434.9056834205024
 21
0.26900807024210704
 31
0.0
  0
LINE
  5
134
330
17
100
AcDbEntity
  8
FoilLayer
100
AcDbLine
 10
434.9056834205024
 20
0.26900807024210704
 30
0.0
 11
435.8673872716178
 21
0.12105363160894819
 31
0.0
  0
LINE
  5
135
330
17
100
AcDbEntity
  8
FoilLayer
100
AcDbLine
 10
435.8673872716178
 20
0.12105363160894819
 30
0.0
 11
436.55335785073515
 21
0.013450403512105354
 31
0.0
  0
LINE
  5
136
330
17
100
AcDbEntity
  8
FoilLayer
100
AcDbLine
 10
436.55335785073515
 20
0.013450403512105354
 30
0.0
 11
436.97704556136654
 21
-0.047076412292368745
 31
0.0
  0
LINE
  5
137
330
17
100
AcDbEntity
  8
FoilLayer
100
AcDbLine
 10
436.97704556136654
 20
-0.047076412292368745
 30
0.0
 11
437.1249999999997
 21
-0.07397721931657945
 31
0.0
  0
LINE
  5
138
330
17
100
AcDbEntity
  8
FoilLayer
100
AcDbLine
 10
437.1249999999997
 20
-0.07397721931657945
 30
0.0
 11
437.1249999999997
 21
0.03362600878026339
 31
0.0
  0
LINE
  5
139
330
17
100
AcDbEntity
  8
StringerLayer
100
AcDbLine
 10
232.0303773516876
 20
51.129005057458635
 30
0.0
 11
235.91999431661037
 21
50.19579561355807
 31
0.0
  0
LINE
  5
13A
330
17
100
AcDbEntity
  8
StringerLayer
100
AcDbLine
 10
235.91999431661037
 20
50.19579561355807
 30
0.0
 11
236.85320376051095
 21
54.085412578480806
 31
0.0
  0
LINE
  5
13B
330
17
100
AcDbEntity
  8
StringerLayer
100
AcDbLine
 10
236.85320376051095
 20
54.085412578480806
 30
0.0
 11
232.96358679558818
 21
55.01862202238137
 31
0.0
  0
LINE
  5
13C
330
17
100
AcDbEntity
  8
StringerLayer
100
AcDbLine
 10
232.96358679558818
 20
55.01862202238137
 30
0.0
 11
232.0303773516876
 21
51.129005057458635
 31
0.0
  0
LINE
  5
13D
330
17
100
AcDbEntity
  8
StringerLayer
100
AcDbLine
 10
-68.44898667139643
 20
71.1139241567024
 30
0.0
 11
-64.48326996785363
 21
71.63650527695235
 31
0.0
  0
LINE
  5
13E
330
17
100
AcDbEntity
  8
StringerLayer
100
AcDbLine
 10
-64.48326996785363
 20
71.63650527695235
 30
0.0
 11
-65.00585108810358
 21
75.60222198049514
 31
0.0
  0
LINE
  5
13F
330
17
100
AcDbEntity
  8
StringerLayer
100
AcDbLine
 10
-65.00585108810358
 20
75.60222198049514
 30
0.0
 11
-68.97156779164638
 21
75.07964086024519
 31
0.0
  0
LINE
  5
140
330
17
100
AcDbEntity
  8
StringerLayer
100
AcDbLine
 10
-68.97156779164638
 20
75.07964086024519
 30
0.0
 11
-68.44898667139643
 21
71.1139241567024
 31
0.0
  0
LINE
  5
141
330
17
100
AcDbEntity
  8
StringerLayer
100
AcDbLine
 10
-167.84879606549893
 20
46.91320058940122
 30
0.0
 11
-164.11292407391787
 21
48.34262720959551
 31
0.0
  0
LINE
  5
142
330
17
100
AcDbEntity
  8
StringerLayer
100
AcDbLine
 10
-164.11292407391787
 20
48.34262720959551
 30
0.0
 11
-165.54235069411217
 21
52.078499201176584
 31
0.0
  0
LINE
  5
143
330
17
100
AcDbEntity
  8
StringerLayer
100
AcDbLine
 10
-165.54235069411217
 20
52.078499201176584
 30
0.0
 11
-169.27822268569324
 21
50.64907258098229
 31
0.0
  0
LINE
  5
144
330
17
100
AcDbEntity
  8
StringerLayer
100
AcDbLine
 10
-169.27822268569324
 20
50.64907258098229
 30
0.0
 11
-167.84879606549893
 21
46.91320058940122
 31
0.0
  0
LINE
  5
145
330
17
100
AcDbEntity
  8
StringerLayer
100
AcDbLine
 10
-223.7602972656776
 20
9.826842010163565
 30
0.0
 11
-222.52566885923022
 21
11.400275420890976
 31
0.0
  0
LINE
  5
146
330
17
100
AcDbEntity
  8
StringerLayer
100
AcDbLine
 10
-222.52566885923022
 20
11.400275420890976
 30
0.0
 11
-226.45925238604875
 21
14.486846437009333
 31
0.0
  0
LINE
  5
147
330
17
100
AcDbEntity
  8
StringerLayer
100
AcDbLine
 10
-226.45925238604875
 20
14.486846437009333
 30
0.0
 11
-227.69388079249612
 21
12.913413026281923
 31
0.0
  0
LINE
  5
148
330
17
100
AcDbEntity
  8
StringerLayer
100
AcDbLine
 10
-227.69388079249612
 20
12.913413026281923
 30
0.0
 11
-223.7602972656776
 21
9.826842010163565
 31
0.0
  0
LINE
  5
149
330
17
100
AcDbEntity
  8
StringerLayer
100
AcDbLine
 10
-226.61935638187413
 20
-2.613118627615679
 30
0.0
 11
-228.11557334096915
 21
-1.2859657308790529
 31
0.0
  0
LINE
  5
14A
330
17
100
AcDbEntity
  8
StringerLayer
100
AcDbLine
 10
-228.11557334096915
 20
-1.2859657308790529
 30
0.0
 11
-231.43345558281072
 21
-5.026508128616631
 31
0.0
  0
LINE
  5
14B
330
17
100
AcDbEntity
  8
StringerLayer
100
AcDbLine
 10
-231.43345558281072
 20
-5.026508128616631
 30
0.0
 11
-229.9372386237157
 21
-6.353661025353257
 31
0.0
  0
LINE
  5
14C
330
17
100
AcDbEntity
  8
StringerLayer
100
AcDbLine
 10
-229.9372386237157
 20
-6.353661025353257
 30
0.0
 11
-226.61935638187413
 21
-2.613118627615679
 31
0.0
  0
LINE
  5
14D
330
17
100
AcDbEntity
  8
StringerLayer
100
AcDbLine
 10
-99.14191833466131
 20
-11.249419817148498
 30
0.0
 11
-103.13801600880424
 21
-11.426064598303748
 31
0.0
  0
LINE
  5
14E
330
17
100
AcDbEntity
  8
StringerLayer
100
AcDbLine
 10
-103.13801600880424
 20
-11.426064598303748
 30
0.0
 11
-102.961371227649
 21
-15.422162272446688
 31
0.0
  0
LINE
  5
14F
330
17
100
AcDbEntity
  8
StringerLayer
100
AcDbLine
 10
-102.961371227649
 20
-15.422162272446688
 30
0.0
 11
-98.96527355350607
 21
-15.245517491291437
 31
0.0
  0
LINE
  5
150
330
17
100
AcDbEntity
  8
StringerLayer
100
AcDbLine
 10
-98.96527355350607
 20
-15.245517491291437
 30
0.0
 11
-99.14191833466131
 21
-11.249419817148498
 31
0.0
  0
LINE
  5
151
330
17
100
AcDbEntity
  8
SubLayer
100
AcDbLine
 10
-235.37499999999983
 20
0.0
 30
0.0
 11
-231.37499999999983
 21
0.0
 31
0.0
  0
LINE
  5
152
330
17
100
AcDbEntity
  8
SubLayer
100
AcDbLine
 10
65.25
 20
0.0
 30
0.0
 11
75.97499999999997
 21
0.0
 31
0.0
  0
LINE
  5
153
330
17
100
AcDbEntity
  8
SubLayer
100
AcDbLine
 10
-50.40677483777561
 20
33.9648479264256
 30
0.0
 11
-42.41164822162284
 21
34.24404390004561
 31
0.0
  0
LINE
  5
154
330
17
100
AcDbEntity
  8
SubLayer
100
AcDbLine
 10
42.41164822162284
 20
37.20613868267037
 30
0.0
 11
50.40677483777561
 21
37.485334656290384
 31
0.0
  0
LINE
  5
155
330
17
100
AcDbEntity
  8
SubLayer
100
AcDbLine
 10
-1.4208457595005697
 20
76.4127903363729
 30
0.0
 11
-1.1416497858805619
 21
68.41766372022013
 31
0.0
  0
LINE
  5
156
330
17
100
AcDbEntity
  8
SubLayer
100
AcDbLine
 10
1.4208457595005697
 20
-4.962607753656918
 30
0.0
 11
1.1416497858805619
 21
3.0325188624958486
 31
0.0
  0
LINE
  5
157
330
17
100
AcDbEntity
  8
SubLayer
100
AcDbLine
 10
-48.33819419033241
 20
32.03586526579242
 30
0.0
 11
-44.34063088225603
 21
32.17546325260242
 31
0.0
  0
LINE
  5
158
330
17
100
AcDbEntity
  8
SubLayer
100
AcDbLine
 10
-44.34063088225603
 20
32.17546325260242
 30
0.0
 11
-44.48022886906603
 21
36.1730265606788
 31
0.0
  0
LINE
  5
159
330
17
100
AcDbEntity
  8
SubLayer
100
AcDbLine
 10
-44.48022886906603
 20
36.1730265606788
 30
0.0
 11
-48.47779217714241
 21
36.0334285738688
 31
0.0
  0
LINE
  5
15A
330
17
100
AcDbEntity
  8
SubLayer
100
AcDbLine
 10
-48.47779217714241
 20
36.0334285738688
 30
0.0
 11
-48.33819419033241
 21
32.03586526579242
 31
0.0
  0
LINE
  5
15B
330
17
100
AcDbEntity
  8
SubLayer
100
AcDbLine
 10
44.48022886906603
 20
35.27715602203718
 30
0.0
 11
48.47779217714241
 21
35.416754008847185
 31
0.0
  0
LINE
  5
15C
330
17
100
AcDbEntity
  8
SubLayer
100
AcDbLine
 10
48.47779217714241
 20
35.416754008847185
 30
0.0
 11
48.33819419033241
 21
39.414317316923565
 31
0.0
  0
LINE
  5
15D
330
17
100
AcDbEntity
  8
SubLayer
100
AcDbLine
 10
48.33819419033241
 20
39.414317316923565
 30
0.0
 11
44.34063088225603
 21
39.27471933011356
 31
0.0
  0
LINE
  5
15E
330
17
100
AcDbEntity
  8
SubLayer
100
AcDbLine
 10
44.34063088225603
 20
39.27471933011356
 30
0.0
 11
44.48022886906603
 21
35.27715602203718
 31
0.0
  0
LINE
  5
15F
330
17
100
AcDbEntity
  8
SubLayer
100
AcDbLine
 10
-3.2102304333237557
 20
70.34664638085331
 30
0.0
 11
0.7873328747526278
 21
70.48624436766332
 31
0.0
  0
LINE
  5
160
330
17
100
AcDbEntity
  8
SubLayer
100
AcDbLine
 10
0.7873328747526278
 20
70.48624436766332
 30
0.0
 11
0.6477348879426239
 21
74.48380767573971
 31
0.0
  0
LINE
  5
161
330
17
100
AcDbEntity
  8
SubLayer
100
AcDbLine
 10
0.6477348879426239
 20
74.48380767573971
 30
0.0
 11
-3.3498284201337594
 21
74.34420968892971
 31
0.0
  0
LINE
  5
162
330
17
100
AcDbEntity
  8
SubLayer
100
AcDbLine
 10
-3.3498284201337594
 20
74.34420968892971
 30
0.0
 11
-3.2102304333237557
 21
70.34664638085331
 31
0.0
  0
LINE
  5
163
330
17
100
AcDbEntity
  8
SubLayer
100
AcDbLine
 10
-0.6477348879426239
 20
-3.0336250930237285
 30
0.0
 11
3.3498284201337594
 21
-2.8940271062137244
 31
0.0
  0
LINE
  5
164
330
17
100
AcDbEntity
  8
SubLayer
100
AcDbLine
 10
3.3498284201337594
 20
-2.8940271062137244
 30
0.0
 11
3.2102304333237557
 21
1.1035362018626587
 31
0.0
  0
LINE
  5
165
330
17
100
AcDbEntity
  8
SubLayer
100
AcDbLine
 10
3.2102304333237557
 20
1.1035362018626587
 30
0.0
 11
-0.7873328747526278
 21
0.9639382150526548
 31
0.0
  0
LINE
  5
166
330
17
100
AcDbEntity
  8
SubLayer
100
AcDbLine
 10
-0.7873328747526278
 20
0.9639382150526548
 30
0.0
 11
-0.6477348879426239
 21
-3.0336250930237285
 31
0.0
  0
LINE
  5
167
330
17
100
AcDbEntity
  8
SubLayer
100
AcDbLine
 10
337.2835518806146
 20
28.784903419680777
 30
0.0
 11
341.28111518869093
 21
28.92450140649078
 31
0.0
  0
LINE
  5
168
330
17
100
AcDbEntity
  8
SubLayer
100
AcDbLine
 10
-232.3674561791662
 20
8.892251876483488
 30
0.0
 11
-228.3698928710898
 21
9.031849863293491
 31
0.0
  0
LINE
  5
169
330
17
100
AcDbEntity
  8
SubLayer
100
AcDbLine
 10
-119.43664539422913
 20
12.835882688420448
 30
0.0
 11
-113.44030043211457
 21
13.045279668635452
 31
0.0
  0
LINE
  5
16A
330
17
100
AcDbEntity
  8
SubLayer
100
AcDbLine
 10
222.35395944163935
 20
24.77147361433882
 30
0.0
 11
228.3503044037539
 21
24.980870594553824
 31
0.0
  0
LINE
  5
16B
330
17
100
AcDbEntity
  8
SubLayer
100
AcDbLine
 10
51.45865702370509
 20
18.803678151379632
 30
0.0
 11
57.45500198581967
 21
19.013075131594636
 31
0.0
  0
LINE
  5
16C
330
17
100
AcDbEntity
  8
SubLayer
100
AcDbLine
 10
-114.36989226572865
 20
11.01159851789476
 30
0.0
 11
-114.50949025253865
 21
15.009161825971143
 31
0.0
  0
LINE
  5
16D
330
17
100
AcDbEntity
  8
SubLayer
100
AcDbLine
 10
-114.50949025253865
 20
15.009161825971143
 30
0.0
 11
-118.50705356061505
 21
14.86956383916114
 31
0.0
  0
LINE
  5
16E
330
17
100
AcDbEntity
  8
SubLayer
100
AcDbLine
 10
-118.50705356061505
 20
14.86956383916114
 30
0.0
 11
-118.36745557380505
 21
10.872000531084757
 31
0.0
  0
LINE
  5
16F
330
17
100
AcDbEntity
  8
SubLayer
100
AcDbLine
 10
-118.36745557380505
 20
10.872000531084757
 30
0.0
 11
-114.36989226572865
 21
11.01159851789476
 31
0.0
  0
LINE
  5
170
330
17
100
AcDbEntity
  8
SubLayer
100
AcDbLine
 10
227.4207125701398
 20
22.947189443813134
 30
0.0
 11
227.2811145833298
 21
26.944752751889517
 31
0.0
  0
LINE
  5
171
330
17
100
AcDbEntity
  8
SubLayer
100
AcDbLine
 10
227.2811145833298
 20
26.944752751889517
 30
0.0
 11
223.28355127525344
 21
26.80515476507951
 31
0.0
  0
LINE
  5
172
330
17
100
AcDbEntity
  8
SubLayer
100
AcDbLine
 10
223.28355127525344
 20
26.80515476507951
 30
0.0
 11
223.42314926206345
 21
22.807591457003127
 31
0.0
  0
LINE
  5
173
330
17
100
AcDbEntity
  8
SubLayer
100
AcDbLine
 10
223.42314926206345
 20
22.807591457003127
 30
0.0
 11
227.4207125701398
 21
22.947189443813134
 31
0.0
  0
LINE
  5
174
330
17
100
AcDbEntity
  8
SubLayer
100
AcDbLine
 10
56.52541015220557
 20
16.979393980853946
 30
0.0
 11
56.38581216539557
 21
20.97695728893033
 31
0.0
  0
LINE
  5
175
330
17
100
AcDbEntity
  8
SubLayer
100
AcDbLine
 10
56.38581216539557
 20
20.97695728893033
 30
0.0
 11
52.38824885731919
 21
20.837359302120323
 31
0.0
  0
LINE
  5
176
330
17
100
AcDbEntity
  8
SubLayer
100
AcDbLine
 10
52.38824885731919
 20
20.837359302120323
 30
0.0
 11
52.52784684412919
 21
16.83979599404394
 31
0.0
  0
LINE
  5
177
330
17
100
AcDbEntity
  8
SubLayer
100
AcDbLine
 10
52.52784684412919
 20
16.83979599404394
 30
0.0
 11
56.52541015220557
 21
16.979393980853946
 31
0.0
  0
LINE
  5
178
330
17
100
AcDbEntity
  8
SubLayer
100
AcDbLine
 10
417.977837956729
 20
5.79963660063272
 30
0.0
 11
418.2915578335379
 21
6.749152181808178
 31
0.0
  0
LINE
  5
179
330
17
100
AcDbEntity
  8
SubLayer
100
AcDbLine
 10
417.2307364712696
 20
2.1137146791505486
 30
0.0
 11
417.3612085844505
 21
3.1051666586644866
 31
0.0
  0
LINE
  5
17A
330
17
100
AcDbEntity
  8
SubLayer
100
AcDbLine
 10
398.8113023768688
 20
11.50253133514666
 30
0.0
 11
399.11079212391786
 21
12.456630853757016
 31
0.0
  0
LINE
  5
17B
330
17
100
AcDbEntity
  8
SubLayer
100
AcDbLine
 10
397.3174786408799
 20
3.9505260999833447
 30
0.0
 11
397.4286644481981
 21
4.9443257358511605
 31
0.0
  0
LINE
  5
17C
330
17
100
AcDbEntity
  8
SubLayer
100
AcDbLine
 10
360.3274128788931
 20
22.41383830465026
 30
0.0
 11
360.61357450161603
 21
23.372019668318206
 31
0.0
  0
LINE
  5
17D
330
17
100
AcDbEntity
  8
SubLayer
100
AcDbLine
 10
357.33394845925415
 20
5.797576082937023
 30
0.0
 11
357.41264893583565
 21
6.794474390180967
 31
0.0
  0
LINE
  5
17E
330
17
100
AcDbEntity
  8
SubLayer
100
AcDbLine
 10
-150.91362876097563
 20
59.26973615797973
 30
0.0
 11
-150.7740307741656
 21
55.27217284990335
 31
0.0
  0
LINE
  5
17F
330
17
100
AcDbEntity
  8
SubLayer
100
AcDbLine
 10
-148.32804985632984
 20
-14.771556238420692
 30
0.0
 11
-148.1884518695198
 21
-18.769119546497073
 31
0.0
  0
LINE
  5
180
330
17
100
AcDbEntity
  8
SubLayer
100
AcDbLine
 10
-148.8800651339615
 20
1.0360930678784883
 30
0.0
 11
-148.6706681537465
 21
-4.960251894236086
 31
0.0
  0
LINE
  5
181
330
17
100
AcDbEntity
  8
SubLayer
100
AcDbLine
 10
-150.43141247674896
 20
45.46086850571874
 30
0.0
 11
-150.22201549653397
 21
39.464523543604166
 31
0.0
  0
LINE
  5
182
330
17
100
AcDbEntity
  8
SubLayer
100
AcDbLine
 10
-149.6557388053552
 20
23.248480786798616
 30
0.0
 11
-149.44634182514022
 21
17.25213582468404
 31
0.0
  0
LINE
  5
183
330
17
100
AcDbEntity
  8
SubLayer
100
AcDbLine
 10
-150.70434930448718
 20
-4.030660060621992
 30
0.0
 11
-146.70678599641082
 21
-3.8910620738119883
 31
0.0
  0
LINE
  5
184
330
17
100
AcDbEntity
  8
SubLayer
100
AcDbLine
 10
-146.70678599641082
 20
-3.8910620738119883
 30
0.0
 11
-146.84638398322082
 21
0.10650123426439473
 31
0.0
  0
LINE
  5
185
330
17
100
AcDbEntity
  8
SubLayer
100
AcDbLine
 10
-146.84638398322082
 20
0.10650123426439473
 30
0.0
 11
-150.84394729129718
 21
-0.033096752545609176
 31
0.0
  0
LINE
  5
186
330
17
100
AcDbEntity
  8
SubLayer
100
AcDbLine
 10
-150.84394729129718
 20
-0.033096752545609176
 30
0.0
 11
-150.70434930448718
 21
-4.030660060621992
 31
0.0
  0
LINE
  5
187
330
17
100
AcDbEntity
  8
SubLayer
100
AcDbLine
 10
-152.25569664727465
 20
40.39411537721826
 30
0.0
 11
-148.25813333919828
 21
40.533713364028266
 31
0.0
  0
LINE
  5
188
330
17
100
AcDbEntity
  8
SubLayer
100
AcDbLine
 10
-148.25813333919828
 20
40.533713364028266
 30
0.0
 11
-148.39773132600828
 21
44.531276672104646
 31
0.0
  0
LINE
  5
189
330
17
100
AcDbEntity
  8
SubLayer
100
AcDbLine
 10
-148.39773132600828
 20
44.531276672104646
 30
0.0
 11
-152.39529463408465
 21
44.39167868529464
 31
0.0
  0
LINE
  5
18A
330
17
100
AcDbEntity
  8
SubLayer
100
AcDbLine
 10
-152.39529463408465
 20
44.39167868529464
 30
0.0
 11
-152.25569664727465
 21
40.39411537721826
 31
0.0
  0
LINE
  5
18B
330
17
100
AcDbEntity
  8
SubLayer
100
AcDbLine
 10
-151.4800229758809
 20
18.181727658298133
 30
0.0
 11
-147.48245966780453
 21
18.32132564510814
 31
0.0
  0
LINE
  5
18C
330
17
100
AcDbEntity
  8
SubLayer
100
AcDbLine
 10
-147.48245966780453
 20
18.32132564510814
 30
0.0
 11
-147.62205765461454
 21
22.318888953184523
 31
0.0
  0
LINE
  5
18D
330
17
100
AcDbEntity
  8
SubLayer
100
AcDbLine
 10
-147.62205765461454
 20
22.318888953184523
 30
0.0
 11
-151.6196209626909
 21
22.179290966374516
 31
0.0
  0
LINE
  5
18E
330
17
100
AcDbEntity
  8
SubLayer
100
AcDbLine
 10
-151.6196209626909
 20
22.179290966374516
 30
0.0
 11
-151.4800229758809
 21
18.181727658298133
 31
0.0
  0
LINE
  5
18F
330
17
100
AcDbEntity
  8
SubLayer
100
AcDbLine
 10
199.11314339085493
 20
64.61235476210672
 30
0.0
 11
199.25274137766496
 21
60.61479145403033
 31
0.0
  0
LINE
  5
190
330
17
100
AcDbEntity
  8
SubLayer
100
AcDbLine
 10
201.23262551969543
 20
3.9183276920169536
 30
0.0
 11
201.37222350650546
 21
-0.07923561605942964
 31
0.0
  0
LINE
  5
191
330
17
100
AcDbEntity
  8
SubLayer
100
AcDbLine
 10
200.77382959722487
 20
17.056523933054002
 30
0.0
 11
200.98322657743986
 21
11.060178970939427
 31
0.0
  0
LINE
  5
192
330
17
100
AcDbEntity
  8
SubLayer
100
AcDbLine
 10
199.50214031992058
 20
53.47294017510786
 30
0.0
 11
199.71153730013557
 21
47.47659521299328
 31
0.0
  0
LINE
  5
193
330
17
100
AcDbEntity
  8
SubLayer
100
AcDbLine
 10
200.1379849585727
 20
35.26473205408093
 30
0.0
 11
200.3473819387877
 21
29.268387091966353
 31
0.0
  0
LINE
  5
194
330
17
100
AcDbEntity
  8
SubLayer
100
AcDbLine
 10
198.9495454266992
 20
11.98977080455352
 30
0.0
 11
202.94710873477555
 21
12.129368791363524
 31
0.0
  0
LINE
  5
195
330
17
100
AcDbEntity
  8
SubLayer
100
AcDbLine
 10
202.94710873477555
 20
12.129368791363524
 30
0.0
 11
202.80751074796555
 21
16.12693209943991
 31
0.0
  0
LINE
  5
196
330
17
100
AcDbEntity
  8
SubLayer
100
AcDbLine
 10
202.80751074796555
 20
16.12693209943991
 30
0.0
 11
198.80994743988919
 21
15.987334112629904
 31
0.0
  0
LINE
  5
197
330
17
100
AcDbEntity
  8
SubLayer
100
AcDbLine
 10
198.80994743988919
 20
15.987334112629904
 30
0.0
 11
198.9495454266992
 21
11.98977080455352
 31
0.0
  0
LINE
  5
198
330
17
100
AcDbEntity
  8
SubLayer
100
AcDbLine
 10
197.6778561493949
 20
48.40618704660738
 30
0.0
 11
201.67541945747126
 21
48.54578503341738
 31
0.0
  0
LINE
  5
199
330
17
100
AcDbEntity
  8
SubLayer
100
AcDbLine
 10
201.67541945747126
 20
48.54578503341738
 30
0.0
 11
201.53582147066126
 21
52.54334834149376
 31
0.0
  0
LINE
  5
19A
330
17
100
AcDbEntity
  8
SubLayer
100
AcDbLine
 10
201.53582147066126
 20
52.54334834149376
 30
0.0
 11
197.5382581625849
 21
52.40375035468376
 31
0.0
  0
LINE
  5
19B
330
17
100
AcDbEntity
  8
SubLayer
100
AcDbLine
 10
197.5382581625849
 20
52.40375035468376
 30
0.0
 11
197.6778561493949
 21
48.40618704660738
 31
0.0
  0
LINE
  5
19C
330
17
100
AcDbEntity
  8
SubLayer
100
AcDbLine
 10
198.31370078804702
 20
30.197978925580447
 30
0.0
 11
202.31126409612338
 21
30.337576912390453
 31
0.0
  0
LINE
  5
19D
330
17
100
AcDbEntity
  8
SubLayer
100
AcDbLine
 10
202.31126409612338
 20
30.337576912390453
 30
0.0
 11
202.17166610931338
 21
34.33514022046683
 31
0.0
  0
LINE
  5
19E
330
17
100
AcDbEntity
  8
SubLayer
100
AcDbLine
 10
202.17166610931338
 20
34.33514022046683
 30
0.0
 11
198.174102801237
 21
34.19554223365683
 31
0.0
  0
LINE
  5
19F
330
17
100
AcDbEntity
  8
SubLayer
100
AcDbLine
 10
198.174102801237
 20
34.19554223365683
 30
0.0
 11
198.31370078804702
 21
30.197978925580447
 31
0.0
  0
ENDSEC
  0
SECTION
  2
OBJECTS
  0
DICTIONARY
  5
A
330
0
100
AcDbDictionary
280
0
281
1
  3
ACAD_COLOR
350
B
  3
ACAD_GROUP
350
C
  3
ACAD_LAYOUT
350
D
  3
ACAD_MATERIAL
350
E
  3
ACAD_MLEADERSTYLE
350
F
  3
ACAD_MLINESTYLE
350
10
  3
ACAD_PLOTSETTINGS
350
11
  3
ACAD_PLOTSTYLENAME
350
12
  3
ACAD_SCALELIST
350
14
  3
ACAD_TABLESTYLE
350
15
  3
ACAD_VISUALSTYLE
350
16
  3
EZDXF_META
350
2D
  0
DICTIONARY
  5
B
330
A
100
AcDbDictionary
280
0
281
1
  0
DICTIONARY
  5
C
330
A
100
AcDbDictionary
280
0
281
1
  0
DICTIONARY
  5
D
330
A
100
AcDbDictionary
280
0
281
1
  3
Model
350
1A
  3
Layout1
350
1E
  0
DICTIONARY
  5
E
330
A
100
AcDbDictionary
280
0
281
1
  3
ByBlock
350
1F
  3
ByLayer
350
20
  3
Global
350
21
  0
DICTIONARY
  5
F
330
A
100
AcDbDictionary
280
0
281
1
  3
Standard
350
2C
  0
DICTIONARY
  5
10
330
A
100
AcDbDictionary
280
0
281
1
  3
Standard
350
22
  0
DICTIONARY
  5
11
330
A
100
AcDbDictionary
280
0
281
1
  0
ACDBDICTIONARYWDFLT
  5
12
330
A
100
AcDbDictionary
280
0
281
1
  3
Normal
350
13
100
AcDbDictionaryWithDefault
340
13
  0
ACDBPLACEHOLDER
  5
13
330
12
  0
DICTIONARY
  5
14
330
A
100
AcDbDictionary
280
0
281
1
  0
DICTIONARY
  5
15
330
A
100
AcDbDictionary
280
0
281
1
  0
DICTIONARY
  5
16
330
A
100
AcDbDictionary
280
0
281
1
  0
LAYOUT
  5
1A
330
D
100
AcDbPlotSettings
  1

  2
Adobe PDF
  4
A3
  6

 40
7.5
 41
20.0
 42
7.5
 43
20.0
 44
420.0
 45
297.0
 46
0.0
 47
0.0
 48
0.0
 49
0.0
140
0.0
141
0.0
142
1.0
143
1.0
 70
1024
 72
1
 73
0
 74
5
  7

 75
16
 76
0
 77
2
 78
300
147
1.0
148
0.0
149
0.0
100
AcDbLayout
  1
Model
 70
1
 71
0
 10
0.0
 20
0.0
 11
420.0
 21
297.0
 12
0.0
 22
0.0
 32
0.0
 14
1e+20
 24
1e+20
 34
1e+20
 15
-1e+20
 25
-1e+20
 35
-1e+20
146
0.0
 13
0.0
 23
0.0
 33
0.0
 16
1.0
 26
0.0
 36
0.0
 17
0.0
 27
1.0
 37
0.0
 76
1
330
17
  0
LAYOUT
  5
1E
330
D
100
AcDbPlotSettings
  1

  2
Adobe PDF
  4
A3
  6

 40
7.5
 41
20.0
 42
7.5
 43
20.0
 44
420.0
 45
297.0
 46
0.0
 47
0.0
 48
0.0
 49
0.0
140
0.0
141
0.0
142
1.0
143
1.0
 70
0
 72
1
 73
0
 74
5
  7

 75
16
 76
0
 77
2
 78
300
147
1.0
148
0.0
149
0.0
100
AcDbLayout
  1
Layout1
 70
1
 71
1
 10
0.0
 20
0.0
 11
420.0
 21
297.0
 12
0.0
 22
0.0
 32
0.0
 14
1e+20
 24
1e+20
 34
1e+20
 15
-1e+20
 25
-1e+20
 35
-1e+20
146
0.0
 13
0.0
 23
0.0
 33
0.0
 16
1.0
 26
0.0
 36
0.0
 17
0.0
 27
1.0
 37
0.0
 76
1
330
1B
  0
MATERIAL
  5
1F
102
{ACAD_REACTORS
330
E
102
}
330
E
100
AcDbMaterial
  1
ByBlock
  2

 70
0
 40
1.0
 71
1
 41
1.0
 91
-1023410177
 42
1.0
 72
1
  3

 73
1
 74
1
 75
1
 44
0.5
 73
0
 45
1.0
 46
1.0
 77
1
  4

 78
1
 79
1
170
1
 48
1.0
171
1
  6

172
1
173
1
174
1
140
1.0
141
1.0
175
1
  7

176
1
177
1
178
1
143
1.0
179
1
  8

270
1
271
1
272
1
145
1.0
146
1.0
273
1
  9

274
1
275
1
276
1
 42
1.0
 72
1
  3

 73
1
 74
1
 75
1
 94
63
  0
MATERIAL
  5
20
102
{ACAD_REACTORS
330
E
102
}
330
E
100
AcDbMaterial
  1
ByLayer
  2

 70
0
 40
1.0
 71
1
 41
1.0
 91
-1023410177
 42
1.0
 72
1
  3

 73
1
 74
1
 75
1
 44
0.5
 73
0
 45
1.0
 46
1.0
 77
1
  4

 78
1
 79
1
170
1
 48
1.0
171
1
  6

172
1
173
1
174
1
140
1.0
141
1.0
175
1
  7

176
1
177
1
178
1
143
1.0
179
1
  8

270
1
271
1
272
1
145
1.0
146
1.0
273
1
  9

274
1
275
1
276
1
 42
1.0
 72
1
  3

 73
1
 74
1
 75
1
 94
63
  0
MATERIAL
  5
21
102
{ACAD_REACTORS
330
E
102
}
330
E
100
AcDbMaterial
  1
Global
  2

 70
0
 40
1.0
 71
1
 41
1.0
 91
-1023410177
 42
1.0
 72
1
  3

 73
1
 74
1
 75
1
 44
0.5
 73
0
 45
1.0
 46
1.0
 77
1
  4

 78
1
 79
1
170
1
 48
1.0
171
1
  6

172
1
173
1
174
1
140
1.0
141
1.0
175
1
  7

176
1
177
1
178
1
143
1.0
179
1
  8

270
1
271
1
272
1
145
1.0
146
1.0
273
1
  9

274
1
275
1
276
1
 42
1.0
 72
1
  3

 73
1
 74
1
 75
1
 94
63
  0
MLINESTYLE
  5
22
102
{ACAD_REACTORS
330
10
102
}
330
10
100
AcDbMlineStyle
  2
Standard
 70
0
  3

 62
256
 51
90.0
 52
90.0
 71
2
 49
0.5
 62
256
  6
BYLAYER
 49
-0.5
 62
256
  6
BYLAYER
  0
MLEADERSTYLE
  5
2C
102
{ACAD_REACTORS
330
F
102
}
330
F
100
AcDbMLeaderStyle
179
2
170
2
171
1
172
0
 90
2
 40
0.0
 41
0.0
173
1
 91
-1056964608
 92
-2
290
1
 42
2.0
291
1
 43
8.0
  3
Standard
 44
4.0
300

342
29
174
1
175
1
176
0
178
1
 93
-1056964608
 45
4.0
292
0
297
0
 46
4.0
 94
-1056964608
 47
1.0
 49
1.0
140
1.0
294
1
141
0.0
177
0
142
1.0
295
0
296
0
143
3.75
271
0
272
9
273
9
  0
DICTIONARY
  5
2D
330
A
100
AcDbDictionary
281
1
  3
CREATED_BY_EZDXF
350
2E
  3
WRITTEN_BY_EZDXF
350
1A2
  0
DICTIONARYVAR
  5
2E
330
2D
100
DictionaryVariables
280
0
  1
1.0.2 @ 2023-10-20T04:47:16.076438+00:00
  0
DICTIONARYVAR
  5
1A2
330
2D
100
DictionaryVariables
280
0
  1
1.0.2 @ 2023-10-20T04:47:16.086405+00:00
  0
ENDSEC
  0
EOF
