  0
SECTION
  2
HEADER
  9
$ACADVER
  1
AC1027
  9
$ACADMAINTVER
 70
105
  9
$DWGCODEPAGE
  3
ANSI_1252
  9
$LASTSAVEDBY
  1
ezdxf
  9
$REQUIREDVERSIONS
160
0
  9
$INSBASE
 10
0.0
 20
0.0
 30
0.0
  9
$EXTMIN
 10
1e+20
 20
1e+20
 30
1e+20
  9
$EXTMAX
 10
-1e+20
 20
-1e+20
 30
-1e+20
  9
$LIMMIN
 10
0.0
 20
0.0
  9
$LIMMAX
 10
420.0
 20
297.0
  9
$ORTHOMODE
 70
0
  9
$REGENMODE
 70
1
  9
$FILLMODE
 70
1
  9
$QTEXTMODE
 70
0
  9
$MIRRTEXT
 70
1
  9
$LTSCALE
 40
1.0
  9
$ATTMODE
 70
1
  9
$TEXTSIZE
 40
2.5
  9
$TRACEWID
 40
1.0
  9
$TEXTSTYLE
  7
Standard
  9
$CLAYER
  8
0
  9
$CELTYPE
  6
ByLayer
  9
$CECOLOR
 62
256
  9
$CELTSCALE
 40
1.0
  9
$DISPSILH
 70
0
  9
$DIMSCALE
 40
1.0
  9
$DIMASZ
 40
2.5
  9
$DIMEXO
 40
0.625
  9
$DIMDLI
 40
3.75
  9
$DIMRND
 40
0.0
  9
$DIMDLE
 40
0.0
  9
$DIMEXE
 40
1.25
  9
$DIMTP
 40
0.0
  9
$DIMTM
 40
0.0
  9
$DIMTXT
 40
2.5
  9
$DIMCEN
 40
2.5
  9
$DIMTSZ
 40
0.0
  9
$DIMTOL
 70
0
  9
$DIMLIM
 70
0
  9
$DIMTIH
 70
0
  9
$DIMTOH
 70
0
  9
$DIMSE1
 70
0
  9
$DIMSE2
 70
0
  9
$DIMTAD
 70
1
  9
$DIMZIN
 70
8
  9
$DIMBLK
  1

  9
$DIMASO
 70
1
  9
$DIMSHO
 70
1
  9
$DIMPOST
  1

  9
$DIMAPOST
  1

  9
$DIMALT
 70
0
  9
$DIMALTD
 70
3
  9
$DIMALTF
 40
0.03937007874
  9
$DIMLFAC
 40
1.0
  9
$DIMTOFL
 70
1
  9
$DIMTVP
 40
0.0
  9
$DIMTIX
 70
0
  9
$DIMSOXD
 70
0
  9
$DIMSAH
 70
0
  9
$DIMBLK1
  1

  9
$DIMBLK2
  1

  9
$DIMSTYLE
  2
ISO-25
  9
$DIMCLRD
 70
0
  9
$DIMCLRE
 70
0
  9
$DIMCLRT
 70
0
  9
$DIMTFAC
 40
1.0
  9
$DIMGAP
 40
0.625
  9
$DIMJUST
 70
0
  9
$DIMSD1
 70
0
  9
$DIMSD2
 70
0
  9
$DIMTOLJ
 70
0
  9
$DIMTZIN
 70
8
  9
$DIMALTZ
 70
0
  9
$DIMALTTZ
 70
0
  9
$DIMUPT
 70
0
  9
$DIMDEC
 70
2
  9
$DIMTDEC
 70
2
  9
$DIMALTU
 70
2
  9
$DIMALTTD
 70
3
  9
$DIMTXSTY
  7
Standard
  9
$DIMAUNIT
 70
0
  9
$DIMADEC
 70
0
  9
$DIMALTRND
 40
0.0
  9
$DIMAZIN
 70
0
  9
$DIMDSEP
 70
44
  9
$DIMATFIT
 70
3
  9
$DIMFRAC
 70
0
  9
$DIMLDRBLK
  1

  9
$DIMLUNIT
 70
2
  9
$DIMLWD
 70
-2
  9
$DIMLWE
 70
-2
  9
$DIMTMOVE
 70
0
  9
$DIMFXL
 40
1.0
  9
$DIMFXLON
 70
0
  9
$DIMJOGANG
 40
0.785398163397
  9
$DIMTFILL
 70
0
  9
$DIMTFILLCLR
 70
0
  9
$DIMARCSYM
 70
0
  9
$DIMLTYPE
  6

  9
$DIMLTEX1
  6

  9
$DIMLTEX2
  6

  9
$DIMTXTDIRECTION
 70
0
  9
$LUNITS
 70
2
  9
$LUPREC
 70
4
  9
$SKETCHINC
 40
1.0
  9
$FILLETRAD
 40
10.0
  9
$AUNITS
 70
0
  9
$AUPREC
 70
2
  9
$MENU
  1
.
  9
$ELEVATION
 40
0.0
  9
$PELEVATION
 40
0.0
  9
$THICKNESS
 40
0.0
  9
$LIMCHECK
 70
0
  9
$CHAMFERA
 40
0.0
  9
$CHAMFERB
 40
0.0
  9
$CHAMFERC
 40
0.0
  9
$CHAMFERD
 40
0.0
  9
$SKPOLY
 70
0
  9
$TDCREATE
 40
2460238.574490741
  9
$TDUCREATE
 40
2458532.153996898
  9
$TDUPDATE
 40
2460238.574490741
  9
$TDUUPDATE
 40
2458532.1544311
  9
$TDINDWG
 40
0.0
  9
$TDUSRTIMER
 40
0.0
  9
$USRTIMER
 70
1
  9
$ANGBASE
 50
0.0
  9
$ANGDIR
 70
0
  9
$PDMODE
 70
0
  9
$PDSIZE
 40
0.0
  9
$PLINEWID
 40
0.0
  9
$SPLFRAME
 70
0
  9
$SPLINETYPE
 70
6
  9
$SPLINESEGS
 70
8
  9
$HANDSEED
  5
1A2
  9
$SURFTAB1
 70
6
  9
$SURFTAB2
 70
6
  9
$SURFTYPE
 70
6
  9
$SURFU
 70
6
  9
$SURFV
 70
6
  9
$UCSBASE
  2

  9
$UCSNAME
  2

  9
$UCSORG
 10
0.0
 20
0.0
 30
0.0
  9
$UCSXDIR
 10
1.0
 20
0.0
 30
0.0
  9
$UCSYDIR
 10
0.0
 20
1.0
 30
0.0
  9
$UCSORTHOREF
  2

  9
$UCSORTHOVIEW
 70
0
  9
$UCSORGTOP
 10
0.0
 20
0.0
 30
0.0
  9
$UCSORGBOTTOM
 10
0.0
 20
0.0
 30
0.0
  9
$UCSORGLEFT
 10
0.0
 20
0.0
 30
0.0
  9
$UCSORGRIGHT
 10
0.0
 20
0.0
 30
0.0
  9
$UCSORGFRONT
 10
0.0
 20
0.0
 30
0.0
  9
$UCSORGBACK
 10
0.0
 20
0.0
 30
0.0
  9
$PUCSBASE
  2

  9
$PUCSNAME
  2

  9
$PUCSORG
 10
0.0
 20
0.0
 30
0.0
  9
$PUCSXDIR
 10
1.0
 20
0.0
 30
0.0
  9
$PUCSYDIR
 10
0.0
 20
1.0
 30
0.0
  9
$PUCSORTHOREF
  2

  9
$PUCSORTHOVIEW
 70
0
  9
$PUCSORGTOP
 10
0.0
 20
0.0
 30
0.0
  9
$PUCSORGBOTTOM
 10
0.0
 20
0.0
 30
0.0
  9
$PUCSORGLEFT
 10
0.0
 20
0.0
 30
0.0
  9
$PUCSORGRIGHT
 10
0.0
 20
0.0
 30
0.0
  9
$PUCSORGFRONT
 10
0.0
 20
0.0
 30
0.0
  9
$PUCSORGBACK
 10
0.0
 20
0.0
 30
0.0
  9
$USERI1
 70
0
  9
$USERI2
 70
0
  9
$USERI3
 70
0
  9
$USERI4
 70
0
  9
$USERI5
 70
0
  9
$USERR1
 40
0.0
  9
$USERR2
 40
0.0
  9
$USERR3
 40
0.0
  9
$USERR4
 40
0.0
  9
$USERR5
 40
0.0
  9
$WORLDVIEW
 70
1
  9
$SHADEDGE
 70
3
  9
$SHADEDIF
 70
70
  9
$TILEMODE
 70
1
  9
$MAXACTVP
 70
64
  9
$PINSBASE
 10
0.0
 20
0.0
 30
0.0
  9
$PLIMCHECK
 70
0
  9
$PEXTMIN
 10
1e+20
 20
1e+20
 30
1e+20
  9
$PEXTMAX
 10
-1e+20
 20
-1e+20
 30
-1e+20
  9
$PLIMMIN
 10
0.0
 20
0.0
  9
$PLIMMAX
 10
420.0
 20
297.0
  9
$UNITMODE
 70
0
  9
$VISRETAIN
 70
1
  9
$PLINEGEN
 70
0
  9
$PSLTSCALE
 70
1
  9
$TREEDEPTH
 70
3020
  9
$CMLSTYLE
  2
Standard
  9
$CMLJUST
 70
0
  9
$CMLSCALE
 40
20.0
  9
$PROXYGRAPHICS
 70
1
  9
$MEASUREMENT
 70
1
  9
$CELWEIGHT
370
-1
  9
$ENDCAPS
280
0
  9
$JOINSTYLE
280
0
  9
$LWDISPLAY
290
0
  9
$INSUNITS
 70
6
  9
$HYPERLINKBASE
  1

  9
$STYLESHEET
  1

  9
$XEDIT
290
1
  9
$CEPSNTYPE
380
0
  9
$PSTYLEMODE
290
1
  9
$FINGERPRINTGUID
  2
{19AD2A87-7B41-41D9-9D3B-F0EC215D8179}
  9
$VERSIONGUID
  2
{0AE83827-7BE4-4539-B9E4-0EC284E2B376}
  9
$EXTNAMES
290
1
  9
$PSVPSCALE
 40
0.0
  9
$OLESTARTUP
290
0
  9
$SORTENTS
280
127
  9
$INDEXCTL
280
0
  9
$HIDETEXT
280
1
  9
$XCLIPFRAME
280
0
  9
$HALOGAP
280
0
  9
$OBSCOLOR
 70
257
  9
$OBSLTYPE
280
0
  9
$INTERSECTIONDISPLAY
280
0
  9
$INTERSECTIONCOLOR
 70
257
  9
$DIMASSOC
280
2
  9
$PROJECTNAME
  1

  9
$CAMERADISPLAY
290
0
  9
$LENSLENGTH
 40
50.0
  9
$CAMERAHEIGHT
 40
0.0
  9
$STEPSPERSEC
 40
24.0
  9
$STEPSIZE
 40
100.0
  9
$3DDWFPREC
 40
2.0
  9
$PSOLWIDTH
 40
0.005
  9
$PSOLHEIGHT
 40
0.08
  9
$LOFTANG1
 40
1.570796326795
  9
$LOFTANG2
 40
1.570796326795
  9
$LOFTMAG1
 40
0.0
  9
$LOFTMAG2
 40
0.0
  9
$LOFTPARAM
 70
7
  9
$LOFTNORMALS
280
1
  9
$LATITUDE
 40
37.795
  9
$LONGITUDE
 40
-122.394
  9
$NORTHDIRECTION
 40
0.0
  9
$TIMEZONE
 70
-8000
  9
$LIGHTGLYPHDISPLAY
280
1
  9
$TILEMODELIGHTSYNCH
280
1
  9
$CMATERIAL
347
20
  9
$SOLIDHIST
280
0
  9
$SHOWHIST
280
1
  9
$DWFFRAME
280
2
  9
$DGNFRAME
280
2
  9
$REALWORLDSCALE
290
1
  9
$INTERFERECOLOR
 62
256
  9
$CSHADOW
280
0
  9
$SHADOWPLANELOCATION
 40
0.0
  0
ENDSEC
  0
SECTION
  2
CLASSES
  0
CLASS
  1
ACDBDICTIONARYWDFLT
  2
AcDbDictionaryWithDefault
  3
ObjectDBX Classes
 90
0
 91
0
280
0
281
0
  0
CLASS
  1
SUN
  2
AcDbSun
  3
SCENEOE
 90
1153
 91
0
280
0
281
0
  0
CLASS
  1
VISUALSTYLE
  2
AcDbVisualStyle
  3
ObjectDBX Classes
 90
4095
 91
0
280
0
281
0
  0
CLASS
  1
MATERIAL
  2
AcDbMaterial
  3
ObjectDBX Classes
 90
1153
 91
0
280
0
281
0
  0
CLASS
  1
SCALE
  2
AcDbScale
  3
ObjectDBX Classes
 90
1153
 91
0
280
0
281
0
  0
CLASS
  1
TABLESTYLE
  2
AcDbTableStyle
  3
ObjectDBX Classes
 90
4095
 91
0
280
0
281
0
  0
CLASS
  1
MLEADERSTYLE
  2
AcDbMLeaderStyle
  3
ACDB_MLEADERSTYLE_CLASS
 90
4095
 91
0
280
0
281
0
  0
CLASS
  1
DICTIONARYVAR
  2
AcDbDictionaryVar
  3
ObjectDBX Classes
 90
0
 91
0
280
0
281
0
  0
CLASS
  1
CELLSTYLEMAP
  2
AcDbCellStyleMap
  3
ObjectDBX Classes
 90
1152
 91
0
280
0
281
0
  0
CLASS
  1
MENTALRAYRENDERSETTINGS
  2
AcDbMentalRayRenderSettings
  3
SCENEOE
 90
1024
 91
0
280
0
281
0
  0
CLASS
  1
ACDBDETAILVIEWSTYLE
  2
AcDbDetailViewStyle
  3
ObjectDBX Classes
 90
1025
 91
0
280
0
281
0
  0
CLASS
  1
ACDBSECTIONVIEWSTYLE
  2
AcDbSectionViewStyle
  3
ObjectDBX Classes
 90
1025
 91
0
280
0
281
0
  0
CLASS
  1
RASTERVARIABLES
  2
AcDbRasterVariables
  3
ISM
 90
0
 91
0
280
0
281
0
  0
CLASS
  1
ACDBPLACEHOLDER
  2
AcDbPlaceHolder
  3
ObjectDBX Classes
 90
0
 91
0
280
0
281
0
  0
CLASS
  1
LAYOUT
  2
AcDbLayout
  3
ObjectDBX Classes
 90
0
 91
0
280
0
281
0
  0
ENDSEC
  0
SECTION
  2
TABLES
  0
TABLE
  2
VPORT
  5
8
330
0
100
AcDbSymbolTable
 70
1
  0
VPORT
  5
23
330
8
100
AcDbSymbolTableRecord
100
AcDbViewportTableRecord
  2
*Active
 70
0
 10
0.0
 20
0.0
 11
1.0
 21
1.0
 12
0.0
 22
0.0
 13
0.0
 23
0.0
 14
0.5
 24
0.5
 15
0.5
 25
0.5
 16
0.0
 26
0.0
 36
1.0
 17
0.0
 27
0.0
 37
0.0
 40
1000.0
 41
1.34
 42
50.0
 43
0.0
 44
0.0
 50
0.0
 51
0.0
 71
0
 72
1000
 73
1
 74
3
 75
0
 76
0
 77
0
 78
0
281
0
 65
0
146
0.0
  0
ENDTAB
  0
TABLE
  2
LTYPE
  5
2
330
0
100
AcDbSymbolTable
 70
3
  0
LTYPE
  5
24
330
2
100
AcDbSymbolTableRecord
100
AcDbLinetypeTableRecord
  2
ByBlock
 70
0
  3

 72
65
 73
0
 40
0.0
  0
LTYPE
  5
25
330
2
100
AcDbSymbolTableRecord
100
AcDbLinetypeTableRecord
  2
ByLayer
 70
0
  3

 72
65
 73
0
 40
0.0
  0
LTYPE
  5
26
330
2
100
AcDbSymbolTableRecord
100
AcDbLinetypeTableRecord
  2
Continuous
 70
0
  3

 72
65
 73
0
 40
0.0
  0
ENDTAB
  0
TABLE
  2
LAYER
  5
1
330
0
100
AcDbSymbolTable
 70
5
  0
LAYER
  5
27
330
1
100
AcDbSymbolTableRecord
100
AcDbLayerTableRecord
  2
0
 70
0
 62
7
  6
Continuous
370
-3
390
13
347
21
  0
LAYER
  5
28
330
1
100
AcDbSymbolTableRecord
100
AcDbLayerTableRecord
  2
Defpoints
 70
0
 62
7
  6
Continuous
290
0
370
-3
390
13
347
21
  0
LAYER
  5
30
330
1
100
AcDbSymbolTableRecord
100
AcDbLayerTableRecord
  2
FoilLayer
 70
0
 62
1
  6
Continuous
370
50
390
13
347
21
  0
LAYER
  5
31
330
1
100
AcDbSymbolTableRecord
100
AcDbLayerTableRecord
  2
StringerLayer
 70
0
 62
1
  6
Continuous
370
50
390
13
347
21
  0
LAYER
  5
32
330
1
100
AcDbSymbolTableRecord
100
AcDbLayerTableRecord
  2
SubLayer
 70
0
 62
1
  6
Continuous
370
50
390
13
347
21
  0
ENDTAB
  0
TABLE
  2
STYLE
  5
5
330
0
100
AcDbSymbolTable
 70
2
  0
STYLE
  5
29
330
5
100
AcDbSymbolTableRecord
100
AcDbTextStyleTableRecord
  2
Standard
 70
0
 40
0.0
 41
1.0
 50
0.0
 71
0
 42
2.5
  3
txt
  4

  0
STYLE
  5
2F
330
5
100
AcDbSymbolTableRecord
100
AcDbTextStyleTableRecord
  2
MSゴシック
 70
0
 40
0.0
 41
1.0
 50
0.0
 71
0
 42
2.5
  3
romans
  4

  0
ENDTAB
  0
TABLE
  2
VIEW
  5
7
330
0
100
AcDbSymbolTable
 70
0
  0
ENDTAB
  0
TABLE
  2
UCS
  5
6
330
0
100
AcDbSymbolTable
 70
0
  0
ENDTAB
  0
TABLE
  2
APPID
  5
3
330
0
100
AcDbSymbolTable
 70
3
  0
APPID
  5
2A
330
3
100
AcDbSymbolTableRecord
100
AcDbRegAppTableRecord
  2
ACAD
 70
0
  0
APPID
  5
19F
330
3
100
AcDbSymbolTableRecord
100
AcDbRegAppTableRecord
  2
HATCHBACKGROUNDCOLOR
 70
0
  0
APPID
  5
1A0
330
3
100
AcDbSymbolTableRecord
100
AcDbRegAppTableRecord
  2
EZDXF
 70
0
  0
ENDTAB
  0
TABLE
  2
DIMSTYLE
  5
4
330
0
100
AcDbSymbolTable
 70
1
100
AcDbDimStyleTable
  0
DIMSTYLE
105
2B
330
4
100
AcDbSymbolTableRecord
100
AcDbDimStyleTableRecord
  2
Standard
 70
0
 40
1.0
 41
2.5
 42
0.625
 43
3.75
 44
1.25
 45
0.0
 46
0.0
 47
0.0
 48
0.0
 49
2.5
140
2.5
141
2.5
142
0.0
143
0.03937007874
144
1.0
145
0.0
146
1.0
147
0.625
148
0.0
 69
0
 70
0
 71
0
 72
0
 73
0
 74
0
 75
0
 76
0
 77
1
 78
8
 79
3
170
0
171
3
172
1
173
0
174
0
175
0
176
0
177
0
178
0
179
2
271
2
272
2
273
2
274
3
275
0
276
0
277
2
278
44
279
0
280
0
281
0
282
0
283
0
284
8
285
0
286
0
288
0
289
3
290
0
371
-2
372
-2
  0
ENDTAB
  0
TABLE
  2
BLOCK_RECORD
  5
9
330
0
100
AcDbSymbolTable
 70
2
  0
BLOCK_RECORD
  5
17
330
9
100
AcDbSymbolTableRecord
100
AcDbBlockTableRecord
  2
*Model_Space
340
1A
 70
0
280
1
281
0
  0
BLOCK_RECORD
  5
1B
330
9
100
AcDbSymbolTableRecord
100
AcDbBlockTableRecord
  2
*Paper_Space
340
1E
 70
0
280
1
281
0
  0
ENDTAB
  0
ENDSEC
  0
SECTION
  2
BLOCKS
  0
BLOCK
  5
18
330
17
100
AcDbEntity
  8
0
100
AcDbBlockBegin
  2
*Model_Space
 70
0
 10
0.0
 20
0.0
 30
0.0
  3
*Model_Space
  1

  0
ENDBLK
  5
19
330
17
100
AcDbEntity
  8
0
100
AcDbBlockEnd
  0
BLOCK
  5
1C
330
1B
100
AcDbEntity
  8
0
100
AcDbBlockBegin
  2
*Paper_Space
 70
0
 10
0.0
 20
0.0
 30
0.0
  3
*Paper_Space
  1

  0
ENDBLK
  5
1D
330
1B
100
AcDbEntity
  8
0
100
AcDbBlockEnd
  0
ENDSEC
  0
SECTION
  2
ENTITIES
  0
LINE
  5
33
330
17
100
AcDbEntity
  8
FoilLayer
100
AcDbLine
 10
432.1013423092069
 20
-0.39148526295199343
 30
0.0
 11
431.9725283336863
 21
-0.3463772517762475
 31
0.0
  0
LINE
  5
34
330
17
100
AcDbEntity
  8
FoilLayer
100
AcDbLine
 10
431.9725283336863
 20
-0.3463772517762475
 30
0.0
 11
431.5755742122454
 21
-0.21178884472171491
 31
0.0
  0
LINE
  5
35
330
17
100
AcDbEntity
  8
FoilLayer
100
AcDbLine
 10
431.5755742122454
 20
-0.21178884472171491
 30
0.0
 11
430.9512980154639
 21
0.007372886118818089
 31
0.0
  0
LINE
  5
36
330
17
100
AcDbEntity
  8
FoilLayer
100
AcDbLine
 10
430.9512980154639
 20
0.007372886118818089
 30
0.0
 11
430.09462034983056
 21
0.30621582506835004
 31
0.0
  0
LINE
  5
37
330
17
100
AcDbEntity
  8
FoilLayer
100
AcDbLine
 10
430.09462034983056
 20
0.30621582506835004
 30
0.0
 11
429.01808252979873
 21
0.6783531856794542
 31
0.0
  0
LINE
  5
38
330
17
100
AcDbEntity
  8
FoilLayer
100
AcDbLine
 10
429.01808252979873
 20
0.6783531856794542
 30
0.0
 11
427.72408415513763
 21
1.1229679613666885
 31
0.0
  0
LINE
  5
39
330
17
100
AcDbEntity
  8
FoilLayer
100
AcDbLine
 10
427.72408415513763
 20
1.1229679613666885
 30
0.0
 11
426.2222709428185
 21
1.6280041631189042
 31
0.0
  0
LINE
  5
3A
330
17
100
AcDbEntity
  8
FoilLayer
100
AcDbLine
 10
426.2222709428185
 20
1.6280041631189042
 30
0.0
 11
424.50651947027444
 21
2.199921320633629
 31
0.0
  0
LINE
  5
3B
330
17
100
AcDbEntity
  8
FoilLayer
100
AcDbLine
 10
424.50651947027444
 20
2.199921320633629
 30
0.0
 11
422.5949020127105
 21
2.8371443336564792
 31
0.0
  0
LINE
  5
3C
330
17
100
AcDbEntity
  8
FoilLayer
100
AcDbLine
 10
422.5949020127105
 20
2.8371443336564792
 30
0.0
 11
420.4809375628486
 21
3.5218569127567316
 31
0.0
  0
LINE
  5
3D
330
17
100
AcDbEntity
  8
FoilLayer
100
AcDbLine
 10
420.4809375628486
 20
3.5218569127567316
 30
0.0
 11
418.1694029923273
 21
4.265808688319442
 31
0.0
  0
LINE
  5
3E
330
17
100
AcDbEntity
  8
FoilLayer
100
AcDbLine
 10
418.1694029923273
 20
4.265808688319442
 30
0.0
 11
415.65767559653244
 21
5.0565430454118205
 31
0.0
  0
LINE
  5
3F
330
17
100
AcDbEntity
  8
FoilLayer
100
AcDbLine
 10
415.65767559653244
 20
5.0565430454118205
 30
0.0
 11
412.95220154176883
 21
5.894111657070401
 31
0.0
  0
LINE
  5
40
330
17
100
AcDbEntity
  8
FoilLayer
100
AcDbLine
 10
412.95220154176883
 20
5.894111657070401
 30
0.0
 11
410.0474074039916
 21
6.784828855525737
 31
0.0
  0
LINE
  5
41
330
17
100
AcDbEntity
  8
FoilLayer
100
AcDbLine
 10
410.0474074039916
 20
6.784828855525737
 30
0.0
 11
406.95706095006636
 21
7.721906696806113
 31
0.0
  0
LINE
  5
42
330
17
100
AcDbEntity
  8
FoilLayer
100
AcDbLine
 10
406.95706095006636
 20
7.721906696806113
 30
0.0
 11
403.6795390098733
 21
8.699181302271693
 31
0.0
  0
LINE
  5
43
330
17
100
AcDbEntity
  8
FoilLayer
100
AcDbLine
 10
403.6795390098733
 20
8.699181302271693
 30
0.0
 11
400.21643342792214
 21
9.722828214149
 31
0.0
  0
LINE
  5
44
330
17
100
AcDbEntity
  8
FoilLayer
100
AcDbLine
 10
400.21643342792214
 20
9.722828214149
 30
0.0
 11
396.5669670215896
 21
10.786427777550047
 31
0.0
  0
LINE
  5
45
330
17
100
AcDbEntity
  8
FoilLayer
100
AcDbLine
 10
396.5669670215896
 20
10.786427777550047
 30
0.0
 11
392.7309722193459
 21
11.89002591573631
 31
0.0
  0
LINE
  5
46
330
17
100
AcDbEntity
  8
FoilLayer
100
AcDbLine
 10
392.7309722193459
 20
11.89002591573631
 30
0.0
 11
388.7140542822032
 21
13.033916502819883
 31
0.0
  0
LINE
  5
47
330
17
100
AcDbEntity
  8
FoilLayer
100
AcDbLine
 10
388.7140542822032
 20
13.033916502819883
 30
0.0
 11
384.5186420905407
 21
14.230706966045577
 31
0.0
  0
LINE
  5
48
330
17
100
AcDbEntity
  8
FoilLayer
100
AcDbLine
 10
384.5186420905407
 20
14.230706966045577
 30
0.0
 11
380.1487519316641
 21
15.467845446692934
 31
0.0
  0
LINE
  5
49
330
17
100
AcDbEntity
  8
FoilLayer
100
AcDbLine
 10
380.1487519316641
 20
15.467845446692934
 30
0.0
 11
375.621010183205
 21
16.757688069148816
 31
0.0
  0
LINE
  5
4A
330
17
100
AcDbEntity
  8
FoilLayer
100
AcDbLine
 10
375.621010183205
 20
16.757688069148816
 30
0.0
 11
370.93265070842693
 21
18.08106897175162
 31
0.0
  0
LINE
  5
4B
330
17
100
AcDbEntity
  8
FoilLayer
100
AcDbLine
 10
370.93265070842693
 20
18.08106897175162
 30
0.0
 11
366.07811615261966
 21
19.450978738495824
 31
0.0
  0
LINE
  5
4C
330
17
100
AcDbEntity
  8
FoilLayer
100
AcDbLine
 10
366.07811615261966
 20
19.450978738495824
 30
0.0
 11
361.0767526872151
 21
20.860937800850362
 31
0.0
  0
LINE
  5
4D
330
17
100
AcDbEntity
  8
FoilLayer
100
AcDbLine
 10
361.0767526872151
 20
20.860937800850362
 30
0.0
 11
355.92983107632386
 21
22.317237464521103
 31
0.0
  0
LINE
  5
4E
330
17
100
AcDbEntity
  8
FoilLayer
100
AcDbLine
 10
355.92983107632386
 20
22.317237464521103
 30
0.0
 11
350.6493964208484
 21
23.80693191486157
 31
0.0
  0
LINE
  5
4F
330
17
100
AcDbEntity
  8
FoilLayer
100
AcDbLine
 10
350.6493964208484
 20
23.80693191486157
 30
0.0
 11
345.23692857159557
 21
25.336254084034195
 31
0.0
  0
LINE
  5
50
330
17
100
AcDbEntity
  8
FoilLayer
100
AcDbLine
 10
345.23692857159557
 20
25.336254084034195
 30
0.0
 11
339.69094986663
 21
26.892320154622627
 31
0.0
  0
LINE
  5
51
330
17
100
AcDbEntity
  8
FoilLayer
100
AcDbLine
 10
339.69094986663
 20
26.892320154622627
 30
0.0
 11
334.01156766400067
 21
28.48174914726426
 31
0.0
  0
LINE
  5
52
330
17
100
AcDbEntity
  8
FoilLayer
100
AcDbLine
 10
334.01156766400067
 20
28.48174914726426
 30
0.0
 11
328.21900940013387
 21
30.104463585833564
 31
0.0
  0
LINE
  5
53
330
17
100
AcDbEntity
  8
FoilLayer
100
AcDbLine
 10
328.21900940013387
 20
30.104463585833564
 30
0.0
 11
322.3208218241046
 21
31.760212207713
 31
0.0
  0
LINE
  5
54
330
17
100
AcDbEntity
  8
FoilLayer
100
AcDbLine
 10
322.3208218241046
 20
31.760212207713
 30
0.0
 11
316.32342472796046
 21
33.435761412525494
 31
0.0
  0
LINE
  5
55
330
17
100
AcDbEntity
  8
FoilLayer
100
AcDbLine
 10
316.32342472796046
 20
33.435761412525494
 30
0.0
 11
310.21903852059773
 21
35.124774896120876
 31
0.0
  0
LINE
  5
56
330
17
100
AcDbEntity
  8
FoilLayer
100
AcDbLine
 10
310.21903852059773
 20
35.124774896120876
 30
0.0
 11
304.0147671659343
 21
36.8337758522346
 31
0.0
  0
LINE
  5
57
330
17
100
AcDbEntity
  8
FoilLayer
100
AcDbLine
 10
304.0147671659343
 20
36.8337758522346
 30
0.0
 11
297.71715221540177
 21
38.56279370352744
 31
0.0
  0
LINE
  5
58
330
17
100
AcDbEntity
  8
FoilLayer
100
AcDbLine
 10
297.71715221540177
 20
38.56279370352744
 30
0.0
 11
291.34003410439897
 21
40.31168033118297
 31
0.0
  0
LINE
  5
59
330
17
100
AcDbEntity
  8
FoilLayer
100
AcDbLine
 10
291.34003410439897
 20
40.31168033118297
 30
0.0
 11
284.89129461299484
 21
42.07345408791765
 31
0.0
  0
LINE
  5
5A
330
17
100
AcDbEntity
  8
FoilLayer
100
AcDbLine
 10
284.89129461299484
 20
42.07345408791765
 30
0.0
 11
278.3753081370812
 21
43.822133892593754
 31
0.0
  0
LINE
  5
5B
330
17
100
AcDbEntity
  8
FoilLayer
100
AcDbLine
 10
278.3753081370812
 20
43.822133892593754
 30
0.0
 11
271.78614551437124
 21
45.57082358098769
 31
0.0
  0
LINE
  5
5C
330
17
100
AcDbEntity
  8
FoilLayer
100
AcDbLine
 10
271.78614551437124
 20
45.57082358098769
 30
0.0
 11
265.88575600268587
 21
47.11952861249792
 31
0.0
  0
LINE
  5
5D
330
17
100
AcDbEntity
  8
FoilLayer
100
AcDbLine
 10
265.88575600268587
 20
47.11952861249792
 30
0.0
 11
265.49224890082655
 21
45.62031142983682
 31
0.0
  0
LINE
  5
5E
330
17
100
AcDbEntity
  8
FoilLayer
100
AcDbLine
 10
265.49224890082655
 20
45.62031142983682
 30
0.0
 11
264.73649577652805
 21
45.81869270860516
 31
0.0
  0
LINE
  5
5F
330
17
100
AcDbEntity
  8
FoilLayer
100
AcDbLine
 10
264.73649577652805
 20
45.81869270860516
 30
0.0
 11
258.0270571219982
 21
47.552532461071806
 31
0.0
  0
LINE
  5
60
330
17
100
AcDbEntity
  8
FoilLayer
100
AcDbLine
 10
258.0270571219982
 20
47.552532461071806
 30
0.0
 11
251.26610385578425
 21
49.272679087873996
 31
0.0
  0
LINE
  5
61
330
17
100
AcDbEntity
  8
FoilLayer
100
AcDbLine
 10
251.26610385578425
 20
49.272679087873996
 30
0.0
 11
244.45270672822397
 21
50.97273376202388
 31
0.0
  0
LINE
  5
62
330
17
100
AcDbEntity
  8
FoilLayer
100
AcDbLine
 10
244.45270672822397
 20
50.97273376202388
 30
0.0
 11
237.57096890525844
 21
52.65332946167692
 31
0.0
  0
LINE
  5
63
330
17
100
AcDbEntity
  8
FoilLayer
100
AcDbLine
 10
237.57096890525844
 20
52.65332946167692
 30
0.0
 11
230.6457451203463
 21
54.314856470589184
 31
0.0
  0
LINE
  5
64
330
17
100
AcDbEntity
  8
FoilLayer
100
AcDbLine
 10
230.6457451203463
 20
54.314856470589184
 30
0.0
 11
223.68636583536295
 21
55.96840038899779
 31
0.0
  0
LINE
  5
65
330
17
100
AcDbEntity
  8
FoilLayer
100
AcDbLine
 10
223.68636583536295
 20
55.96840038899779
 30
0.0
 11
216.7087752341199
 21
57.588354173383394
 31
0.0
  0
LINE
  5
66
330
17
100
AcDbEntity
  8
FoilLayer
100
AcDbLine
 10
216.7087752341199
 20
57.588354173383394
 30
0.0
 11
209.71336407921115
 21
59.168015097896784
 31
0.0
  0
LINE
  5
67
330
17
100
AcDbEntity
  8
FoilLayer
100
AcDbLine
 10
209.71336407921115
 20
59.168015097896784
 30
0.0
 11
202.69697631927545
 21
60.70005049595486
 31
0.0
  0
LINE
  5
68
330
17
100
AcDbEntity
  8
FoilLayer
100
AcDbLine
 10
202.69697631927545
 20
60.70005049595486
 30
0.0
 11
195.64232849788152
 21
62.16678307368272
 31
0.0
  0
LINE
  5
69
330
17
100
AcDbEntity
  8
FoilLayer
100
AcDbLine
 10
195.64232849788152
 20
62.16678307368272
 30
0.0
 11
188.5466608757148
 21
63.58729165183175
 31
0.0
  0
LINE
  5
6A
330
17
100
AcDbEntity
  8
FoilLayer
100
AcDbLine
 10
188.5466608757148
 20
63.58729165183175
 30
0.0
 11
181.43344260171773
 21
64.96089866222444
 31
0.0
  0
LINE
  5
6B
330
17
100
AcDbEntity
  8
FoilLayer
100
AcDbLine
 10
181.43344260171773
 20
64.96089866222444
 30
0.0
 11
174.28772985478457
 21
66.2813019068976
 31
0.0
  0
LINE
  5
6C
330
17
100
AcDbEntity
  8
FoilLayer
100
AcDbLine
 10
174.28772985478457
 20
66.2813019068976
 30
0.0
 11
167.1293222111022
 21
67.54189547368148
 31
0.0
  0
LINE
  5
6D
330
17
100
AcDbEntity
  8
FoilLayer
100
AcDbLine
 10
167.1293222111022
 20
67.54189547368148
 30
0.0
 11
159.9439810285964
 21
68.74284332068275
 31
0.0
  0
LINE
  5
6E
330
17
100
AcDbEntity
  8
FoilLayer
100
AcDbLine
 10
159.9439810285964
 20
68.74284332068275
 30
0.0
 11
152.73893005238614
 21
69.88405024700332
 31
0.0
  0
LINE
  5
6F
330
17
100
AcDbEntity
  8
FoilLayer
100
AcDbLine
 10
152.73893005238614
 20
69.88405024700332
 30
0.0
 11
145.50671840114796
 21
70.96563478785541
 31
0.0
  0
LINE
  5
70
330
17
100
AcDbEntity
  8
FoilLayer
100
AcDbLine
 10
145.50671840114796
 20
70.96563478785541
 30
0.0
 11
138.2609678275681
 21
71.98753946912217
 31
0.0
  0
LINE
  5
71
330
17
100
AcDbEntity
  8
FoilLayer
100
AcDbLine
 10
138.2609678275681
 20
71.98753946912217
 30
0.0
 11
131.00881236319668
 21
72.94969769490716
 31
0.0
  0
LINE
  5
72
330
17
100
AcDbEntity
  8
FoilLayer
100
AcDbLine
 10
131.00881236319668
 20
72.94969769490716
 30
0.0
 11
123.74314028488322
 21
73.85216866953826
 31
0.0
  0
LINE
  5
73
330
17
100
AcDbEntity
  8
FoilLayer
100
AcDbLine
 10
123.74314028488322
 20
73.85216866953826
 30
0.0
 11
116.47441970694808
 21
74.69453916785851
 31
0.0
  0
LINE
  5
74
330
17
100
AcDbEntity
  8
FoilLayer
100
AcDbLine
 10
116.47441970694808
 20
74.69453916785851
 30
0.0
 11
109.19548325003069
 21
75.46430302518498
 31
0.0
  0
LINE
  5
75
330
17
100
AcDbEntity
  8
FoilLayer
100
AcDbLine
 10
109.19548325003069
 20
75.46430302518498
 30
0.0
 11
101.90794580466161
 21
76.17452529525754
 31
0.0
  0
LINE
  5
76
330
17
100
AcDbEntity
  8
FoilLayer
100
AcDbLine
 10
101.90794580466161
 20
76.17452529525754
 30
0.0
 11
94.62389675338636
 21
76.83136456233548
 31
0.0
  0
LINE
  5
77
330
17
100
AcDbEntity
  8
FoilLayer
100
AcDbLine
 10
94.62389675338636
 20
76.83136456233548
 30
0.0
 11
87.3429490055106
 21
77.42212219277853
 31
0.0
  0
LINE
  5
78
330
17
100
AcDbEntity
  8
FoilLayer
100
AcDbLine
 10
87.3429490055106
 20
77.42212219277853
 30
0.0
 11
80.07209413943104
 21
77.95955500222526
 31
0.0
  0
LINE
  5
79
330
17
100
AcDbEntity
  8
FoilLayer
100
AcDbLine
 10
80.07209413943104
 20
77.95955500222526
 30
0.0
 11
72.82142085082296
 21
78.43063166777931
 31
0.0
  0
LINE
  5
7A
330
17
100
AcDbEntity
  8
FoilLayer
100
AcDbLine
 10
72.82142085082296
 20
78.43063166777931
 30
0.0
 11
65.58414146183503
 21
78.83536462632483
 31
0.0
  0
LINE
  5
7B
330
17
100
AcDbEntity
  8
FoilLayer
100
AcDbLine
 10
65.58414146183503
 20
78.83536462632483
 30
0.0
 11
58.35834528608444
 21
79.17382917502864
 31
0.0
  0
LINE
  5
7C
330
17
100
AcDbEntity
  8
FoilLayer
100
AcDbLine
 10
58.35834528608444
 20
79.17382917502864
 30
0.0
 11
51.152549094660685
 21
79.45257309478062
 31
0.0
  0
LINE
  5
7D
330
17
100
AcDbEntity
  8
FoilLayer
100
AcDbLine
 10
51.152549094660685
 20
79.45257309478062
 30
0.0
 11
43.97340446921061
 21
79.67159745296686
 31
0.0
  0
LINE
  5
7E
330
17
100
AcDbEntity
  8
FoilLayer
100
AcDbLine
 10
43.97340446921061
 20
79.67159745296686
 30
0.0
 11
36.836271189917625
 21
79.83087545521346
 31
0.0
  0
LINE
  5
7F
330
17
100
AcDbEntity
  8
FoilLayer
100
AcDbLine
 10
36.836271189917625
 20
79.83087545521346
 30
0.0
 11
29.725869858536328
 21
79.92382179419643
 31
0.0
  0
LINE
  5
80
330
17
100
AcDbEntity
  8
FoilLayer
100
AcDbLine
 10
29.725869858536328
 20
79.92382179419643
 30
0.0
 11
22.65744421245384
 21
79.95045195654309
 31
0.0
  0
LINE
  5
81
330
17
100
AcDbEntity
  8
FoilLayer
100
AcDbLine
 10
22.65744421245384
 20
79.95045195654309
 30
0.0
 11
15.610156177085344
 21
79.90405885428684
 31
0.0
  0
LINE
  5
82
330
17
100
AcDbEntity
  8
FoilLayer
100
AcDbLine
 10
15.610156177085344
 20
79.90405885428684
 30
0.0
 11
8.60302183120126
 21
79.80458560078152
 31
0.0
  0
LINE
  5
83
330
17
100
AcDbEntity
  8
FoilLayer
100
AcDbLine
 10
8.60302183120126
 20
79.80458560078152
 30
0.0
 11
1.6530989230549835
 21
79.6521536855877
 31
0.0
  0
LINE
  5
84
330
17
100
AcDbEntity
  8
FoilLayer
100
AcDbLine
 10
1.6530989230549835
 20
79.6521536855877
 30
0.0
 11
-5.251720716189084
 21
79.43335040343703
 31
0.0
  0
LINE
  5
85
330
17
100
AcDbEntity
  8
FoilLayer
100
AcDbLine
 10
-5.251720716189084
 20
79.43335040343703
 30
0.0
 11
-12.086105941611152
 21
79.15505807202489
 31
0.0
  0
LINE
  5
86
330
17
100
AcDbEntity
  8
FoilLayer
100
AcDbLine
 10
-12.086105941611152
 20
79.15505807202489
 30
0.0
 11
-18.877466836682515
 21
78.8036375124686
 31
0.0
  0
LINE
  5
87
330
17
100
AcDbEntity
  8
FoilLayer
100
AcDbLine
 10
-18.877466836682515
 20
78.8036375124686
 30
0.0
 11
-25.615365311561902
 21
78.39255454588813
 31
0.0
  0
LINE
  5
88
330
17
100
AcDbEntity
  8
FoilLayer
100
AcDbLine
 10
-25.615365311561902
 20
78.39255454588813
 30
0.0
 11
-32.301311035316644
 21
77.92169666588458
 31
0.0
  0
LINE
  5
89
330
17
100
AcDbEntity
  8
FoilLayer
100
AcDbLine
 10
-32.301311035316644
 20
77.92169666588458
 30
0.0
 11
-38.913575493025206
 21
77.39783763438257
 31
0.0
  0
LINE
  5
8A
330
17
100
AcDbEntity
  8
FoilLayer
100
AcDbLine
 10
-38.913575493025206
 20
77.39783763438257
 30
0.0
 11
-45.441788485368164
 21
76.82135920879524
 31
0.0
  0
LINE
  5
8B
330
17
100
AcDbEntity
  8
FoilLayer
100
AcDbLine
 10
-45.441788485368164
 20
76.82135920879524
 30
0.0
 11
-51.894607712433384
 21
76.17887949787637
 31
0.0
  0
LINE
  5
8C
330
17
100
AcDbEntity
  8
FoilLayer
100
AcDbLine
 10
-51.894607712433384
 20
76.17887949787637
 30
0.0
 11
-58.28641518533925
 21
75.46287679303738
 31
0.0
  0
LINE
  5
8D
330
17
100
AcDbEntity
  8
FoilLayer
100
AcDbLine
 10
-58.28641518533925
 20
75.46287679303738
 30
0.0
 11
-64.60442288358192
 21
74.69394195588745
 31
0.0
  0
LINE
  5
8E
330
17
100
AcDbEntity
  8
FoilLayer
100
AcDbLine
 10
-64.60442288358192
 20
74.69394195588745
 30
0.0
 11
-70.84220058270267
 21
73.87206399606973
 31
0.0
  0
LINE
  5
8F
330
17
100
AcDbEntity
  8
FoilLayer
100
AcDbLine
 10
-70.84220058270267
 20
73.87206399606973
 30
0.0
 11
-77.00120761899635
 21
72.99703476402163
 31
0.0
  0
LINE
  5
90
330
17
100
AcDbEntity
  8
FoilLayer
100
AcDbLine
 10
-77.00120761899635
 20
72.99703476402163
 30
0.0
 11
-83.06198890615536
 21
72.07647709678228
 31
0.0
  0
LINE
  5
91
330
17
100
AcDbEntity
  8
FoilLayer
100
AcDbLine
 10
-83.06198890615536
 20
72.07647709678228
 30
0.0
 11
-89.023114748589
 21
71.09635392948843
 31
0.0
  0
LINE
  5
92
330
17
100
AcDbEntity
  8
FoilLayer
100
AcDbLine
 10
-89.023114748589
 20
71.09635392948843
 30
0.0
 11
-94.8994050597714
 21
70.05637600141507
 31
0.0
  0
LINE
  5
93
330
17
100
AcDbEntity
  8
FoilLayer
100
AcDbLine
 10
-94.8994050597714
 20
70.05637600141507
 30
0.0
 11
-100.68783445939667
 21
68.96374486925663
 31
0.0
  0
LINE
  5
94
330
17
100
AcDbEntity
  8
FoilLayer
100
AcDbLine
 10
-100.68783445939667
 20
68.96374486925663
 30
0.0
 11
-106.37806263803917
 21
67.81788232636286
 31
0.0
  0
LINE
  5
95
330
17
100
AcDbEntity
  8
FoilLayer
100
AcDbLine
 10
-106.37806263803917
 20
67.81788232636286
 30
0.0
 11
-111.96963833953794
 21
66.6254864926795
 31
0.0
  0
LINE
  5
96
330
17
100
AcDbEntity
  8
FoilLayer
100
AcDbLine
 10
-111.96963833953794
 20
66.6254864926795
 30
0.0
 11
-117.4507891526216
 21
65.3943851119693
 31
0.0
  0
LINE
  5
97
330
17
100
AcDbEntity
  8
FoilLayer
100
AcDbLine
 10
-117.4507891526216
 20
65.3943851119693
 30
0.0
 11
-122.8084906978665
 21
64.1180255682718
 31
0.0
  0
LINE
  5
98
330
17
100
AcDbEntity
  8
FoilLayer
100
AcDbLine
 10
-122.8084906978665
 20
64.1180255682718
 30
0.0
 11
-128.0673559363758
 21
62.782027513276205
 31
0.0
  0
LINE
  5
99
330
17
100
AcDbEntity
  8
FoilLayer
100
AcDbLine
 10
-128.0673559363758
 20
62.782027513276205
 30
0.0
 11
-133.22131966815945
 21
61.39283702322375
 31
0.0
  0
LINE
  5
9A
330
17
100
AcDbEntity
  8
FoilLayer
100
AcDbLine
 10
-133.22131966815945
 20
61.39283702322375
 30
0.0
 11
-138.27374273993857
 21
59.956041826224485
 31
0.0
  0
LINE
  5
9B
330
17
100
AcDbEntity
  8
FoilLayer
100
AcDbLine
 10
-138.27374273993857
 20
59.956041826224485
 30
0.0
 11
-143.19918732493588
 21
58.495175722041324
 31
0.0
  0
LINE
  5
9C
330
17
100
AcDbEntity
  8
FoilLayer
100
AcDbLine
 10
-143.19918732493588
 20
58.495175722041324
 30
0.0
 11
-148.01144927231826
 21
56.98828324312554
 31
0.0
  0
LINE
  5
9D
330
17
100
AcDbEntity
  8
FoilLayer
100
AcDbLine
 10
-148.01144927231826
 20
56.98828324312554
 30
0.0
 11
-152.6979216636729
 21
55.44178769865448
 31
0.0
  0
LINE
  5
9E
330
17
100
AcDbEntity
  8
FoilLayer
100
AcDbLine
 10
-152.6979216636729
 20
55.44178769865448
 30
0.0
 11
-157.26858348275456
 21
53.85687874022625
 31
0.0
  0
LINE
  5
9F
330
17
100
AcDbEntity
  8
FoilLayer
100
AcDbLine
 10
-157.26858348275456
 20
53.85687874022625
 30
0.0
 11
-161.71607711361543
 21
52.23143698539886
 31
0.0
  0
LINE
  5
A0
330
17
100
AcDbEntity
  8
FoilLayer
100
AcDbLine
 10
-161.71607711361543
 20
52.23143698539886
 30
0.0
 11
-166.05003741500474
 21
50.57342061507321
 31
0.0
  0
LINE
  5
A1
330
17
100
AcDbEntity
  8
FoilLayer
100
AcDbLine
 10
-166.05003741500474
 20
50.57342061507321
 30
0.0
 11
-170.2553891255659
 21
48.89025846238765
 31
0.0
  0
LINE
  5
A2
330
17
100
AcDbEntity
  8
FoilLayer
100
AcDbLine
 10
-170.2553891255659
 20
48.89025846238765
 30
0.0
 11
-174.3263724095658
 21
47.18170212500287
 31
0.0
  0
LINE
  5
A3
330
17
100
AcDbEntity
  8
FoilLayer
100
AcDbLine
 10
-174.3263724095658
 20
47.18170212500287
 30
0.0
 11
-178.26034088954685
 21
45.44907862483252
 31
0.0
  0
LINE
  5
A4
330
17
100
AcDbEntity
  8
FoilLayer
100
AcDbLine
 10
-178.26034088954685
 20
45.44907862483252
 30
0.0
 11
-182.06627231322955
 21
43.68166190175898
 31
0.0
  0
LINE
  5
A5
330
17
100
AcDbEntity
  8
FoilLayer
100
AcDbLine
 10
-182.06627231322955
 20
43.68166190175898
 30
0.0
 11
-185.74187634111092
 21
41.89698661590638
 31
0.0
  0
LINE
  5
A6
330
17
100
AcDbEntity
  8
FoilLayer
100
AcDbLine
 10
-185.74187634111092
 20
41.89698661590638
 30
0.0
 11
-189.29480560250323
 21
40.08462244968995
 31
0.0
  0
LINE
  5
A7
330
17
100
AcDbEntity
  8
FoilLayer
100
AcDbLine
 10
-189.29480560250323
 20
40.08462244968995
 30
0.0
 11
-192.70105519663875
 21
38.27025657955133
 31
0.0
  0
LINE
  5
A8
330
17
100
AcDbEntity
  8
FoilLayer
100
AcDbLine
 10
-192.70105519663875
 20
38.27025657955133
 30
0.0
 11
-195.97229765454617
 21
36.434323374919984
 31
0.0
  0
LINE
  5
A9
330
17
100
AcDbEntity
  8
FoilLayer
100
AcDbLine
 10
-195.97229765454617
 20
36.434323374919984
 30
0.0
 11
-199.08609093624037
 21
34.606183540495394
 31
0.0
  0
LINE
  5
AA
330
17
100
AcDbEntity
  8
FoilLayer
100
AcDbLine
 10
-199.08609093624037
 20
34.606183540495394
 30
0.0
 11
-202.0619010207688
 21
32.75200066861618
 31
0.0
  0
LINE
  5
AB
330
17
100
AcDbEntity
  8
FoilLayer
100
AcDbLine
 10
-202.0619010207688
 20
32.75200066861618
 30
0.0
 11
-204.8948353487392
 21
30.883748209043933
 31
0.0
  0
LINE
  5
AC
330
17
100
AcDbEntity
  8
FoilLayer
100
AcDbLine
 10
-204.8948353487392
 20
30.883748209043933
 30
0.0
 11
-207.60388822368776
 21
29.001830549288744
 31
0.0
  0
LINE
  5
AD
330
17
100
AcDbEntity
  8
FoilLayer
100
AcDbLine
 10
-207.60388822368776
 20
29.001830549288744
 30
0.0
 11
-210.16703046913344
 21
27.132708493715842
 31
0.0
  0
LINE
  5
AE
330
17
100
AcDbEntity
  8
FoilLayer
100
AcDbLine
 10
-210.16703046913344
 20
27.132708493715842
 30
0.0
 11
-212.57676435217593
 21
25.272538754329766
 31
0.0
  0
LINE
  5
AF
330
17
100
AcDbEntity
  8
FoilLayer
100
AcDbLine
 10
-212.57676435217593
 20
25.272538754329766
 30
0.0
 11
-214.8301597209213
 21
23.4298951118222
 31
0.0
  0
LINE
  5
B0
330
17
100
AcDbEntity
  8
FoilLayer
100
AcDbLine
 10
-214.8301597209213
 20
23.4298951118222
 30
0.0
 11
-216.933085424424
 21
21.58173060879109
 31
0.0
  0
LINE
  5
B1
330
17
100
AcDbEntity
  8
FoilLayer
100
AcDbLine
 10
-216.933085424424
 20
21.58173060879109
 30
0.0
 11
-218.89490734372615
 21
19.73179446816981
 31
0.0
  0
LINE
  5
B2
330
17
100
AcDbEntity
  8
FoilLayer
100
AcDbLine
 10
-218.89490734372615
 20
19.73179446816981
 30
0.0
 11
-220.71222327355736
 21
17.90350476088111
 31
0.0
  0
LINE
  5
B3
330
17
100
AcDbEntity
  8
FoilLayer
100
AcDbLine
 10
-220.71222327355736
 20
17.90350476088111
 30
0.0
 11
-222.3882688056558
 21
16.086885884330997
 31
0.0
  0
LINE
  5
B4
330
17
100
AcDbEntity
  8
FoilLayer
100
AcDbLine
 10
-222.3882688056558
 20
16.086885884330997
 30
0.0
 11
-223.9145487287366
 21
14.313538038545996
 31
0.0
  0
LINE
  5
B5
330
17
100
AcDbEntity
  8
FoilLayer
100
AcDbLine
 10
-223.9145487287366
 20
14.313538038545996
 30
0.0
 11
-225.29194930796208
 21
12.561241111513672
 31
0.0
  0
LINE
  5
B6
330
17
100
AcDbEntity
  8
FoilLayer
100
AcDbLine
 10
-225.29194930796208
 20
12.561241111513672
 30
0.0
 11
-226.5120485548756
 21
10.862566493855262
 31
0.0
  0
LINE
  5
B7
330
17
100
AcDbEntity
  8
FoilLayer
100
AcDbLine
 10
-226.5120485548756
 20
10.862566493855262
 30
0.0
 11
-227.57462995178733
 21
9.215507392770235
 31
0.0
  0
LINE
  5
B8
330
17
100
AcDbEntity
  8
FoilLayer
100
AcDbLine
 10
-227.57462995178733
 20
9.215507392770235
 30
0.0
 11
-228.49195895443233
 21
7.58871391245421
 31
0.0
  0
LINE
  5
B9
330
17
100
AcDbEntity
  8
FoilLayer
100
AcDbLine
 10
-228.49195895443233
 20
7.58871391245421
 30
0.0
 11
-229.22872683528857
 21
6.09507959019846
 31
0.0
  0
LINE
  5
BA
330
17
100
AcDbEntity
  8
FoilLayer
100
AcDbLine
 10
-229.22872683528857
 20
6.09507959019846
 30
0.0
 11
-229.8612636238634
 21
4.4633589991046865
 31
0.0
  0
LINE
  5
BB
330
17
100
AcDbEntity
  8
FoilLayer
100
AcDbLine
 10
-229.8612636238634
 20
4.4633589991046865
 30
0.0
 11
-230.28749304638964
 21
3.2851591574034855
 31
0.0
  0
LINE
  5
BC
330
17
100
AcDbEntity
  8
FoilLayer
100
AcDbLine
 10
-230.28749304638964
 20
3.2851591574034855
 30
0.0
 11
-230.59278825258804
 21
1.7518814656986865
 31
0.0
  0
LINE
  5
BD
330
17
100
AcDbEntity
  8
FoilLayer
100
AcDbLine
 10
-230.59278825258804
 20
1.7518814656986865
 30
0.0
 11
-230.74999999999983
 21
0.19950598517955526
 31
0.0
  0
LINE
  5
BE
330
17
100
AcDbEntity
  8
FoilLayer
100
AcDbLine
 10
-230.74999999999983
 20
0.19950598517955526
 30
0.0
 11
-230.75699728103154
 21
-0.12586483353897124
 31
0.0
  0
LINE
  5
BF
330
17
100
AcDbEntity
  8
FoilLayer
100
AcDbLine
 10
-230.75699728103154
 20
-0.12586483353897124
 30
0.0
 11
-230.63482825017593
 21
-1.4975065955193108
 31
0.0
  0
LINE
  5
C0
330
17
100
AcDbEntity
  8
FoilLayer
100
AcDbLine
 10
-230.63482825017593
 20
-1.4975065955193108
 30
0.0
 11
-230.3407026254977
 21
-2.4745335806871416
 31
0.0
  0
LINE
  5
C1
330
17
100
AcDbEntity
  8
FoilLayer
100
AcDbLine
 10
-230.3407026254977
 20
-2.4745335806871416
 30
0.0
 11
-229.89410471081004
 21
-3.4223982609770616
 31
0.0
  0
LINE
  5
C2
330
17
100
AcDbEntity
  8
FoilLayer
100
AcDbLine
 10
-229.89410471081004
 20
-3.4223982609770616
 30
0.0
 11
-229.23550703494433
 21
-4.388212643178605
 31
0.0
  0
LINE
  5
C3
330
17
100
AcDbEntity
  8
FoilLayer
100
AcDbLine
 10
-229.23550703494433
 20
-4.388212643178605
 30
0.0
 11
-228.4169569265579
 21
-5.326887734045758
 31
0.0
  0
LINE
  5
C4
330
17
100
AcDbEntity
  8
FoilLayer
100
AcDbLine
 10
-228.4169569265579
 20
-5.326887734045758
 30
0.0
 11
-227.4015501643879
 21
-6.241864647971443
 31
0.0
  0
LINE
  5
C5
330
17
100
AcDbEntity
  8
FoilLayer
100
AcDbLine
 10
-227.4015501643879
 20
-6.241864647971443
 30
0.0
 11
-226.20513636324426
 21
-7.111905413606188
 31
0.0
  0
LINE
  5
C6
330
17
100
AcDbEntity
  8
FoilLayer
100
AcDbLine
 10
-226.20513636324426
 20
-7.111905413606188
 30
0.0
 11
-224.78851559862946
 21
-7.936826195458925
 31
0.0
  0
LINE
  5
C7
330
17
100
AcDbEntity
  8
FoilLayer
100
AcDbLine
 10
-224.78851559862946
 20
-7.936826195458925
 30
0.0
 11
-223.09911404975793
 21
-8.728902257748791
 31
0.0
  0
LINE
  5
C8
330
17
100
AcDbEntity
  8
FoilLayer
100
AcDbLine
 10
-223.09911404975793
 20
-8.728902257748791
 30
0.0
 11
-221.15762660560662
 21
-9.503636104507716
 31
0.0
  0
LINE
  5
C9
330
17
100
AcDbEntity
  8
FoilLayer
100
AcDbLine
 10
-221.15762660560662
 20
-9.503636104507716
 30
0.0
 11
-218.9918021084212
 21
-10.261187587817215
 31
0.0
  0
LINE
  5
CA
330
17
100
AcDbEntity
  8
FoilLayer
100
AcDbLine
 10
-218.9918021084212
 20
-10.261187587817215
 30
0.0
 11
-216.6732078567295
 21
-10.988867760431857
 31
0.0
  0
LINE
  5
CB
330
17
100
AcDbEntity
  8
FoilLayer
100
AcDbLine
 10
-216.6732078567295
 20
-10.988867760431857
 30
0.0
 11
-214.15715013922903
 21
-11.661464960990534
 31
0.0
  0
LINE
  5
CC
330
17
100
AcDbEntity
  8
FoilLayer
100
AcDbLine
 10
-214.15715013922903
 20
-11.661464960990534
 30
0.0
 11
-211.42468119682184
 21
-12.275256104777586
 31
0.0
  0
LINE
  5
CD
330
17
100
AcDbEntity
  8
FoilLayer
100
AcDbLine
 10
-211.42468119682184
 20
-12.275256104777586
 30
0.0
 11
-208.47186683982642
 21
-12.853112174118518
 31
0.0
  0
LINE
  5
CE
330
17
100
AcDbEntity
  8
FoilLayer
100
AcDbLine
 10
-208.47186683982642
 20
-12.853112174118518
 30
0.0
 11
-205.3092645931365
 21
-13.405757516578923
 31
0.0
  0
LINE
  5
CF
330
17
100
AcDbEntity
  8
FoilLayer
100
AcDbLine
 10
-205.3092645931365
 20
-13.405757516578923
 30
0.0
 11
-201.9855864888613
 21
-13.924242462897682
 31
0.0
  0
LINE
  5
D0
330
17
100
AcDbEntity
  8
FoilLayer
100
AcDbLine
 10
-201.9855864888613
 20
-13.924242462897682
 30
0.0
 11
-198.47851402829252
 21
-14.38446923112235
 31
0.0
  0
LINE
  5
D1
330
17
100
AcDbEntity
  8
FoilLayer
100
AcDbLine
 10
-198.47851402829252
 20
-14.38446923112235
 30
0.0
 11
-194.77554187913103
 21
-14.786694494447774
 31
0.0
  0
LINE
  5
D2
330
17
100
AcDbEntity
  8
FoilLayer
100
AcDbLine
 10
-194.77554187913103
 20
-14.786694494447774
 30
0.0
 11
-190.85309313535325
 21
-15.143994862948247
 31
0.0
  0
LINE
  5
D3
330
17
100
AcDbEntity
  8
FoilLayer
100
AcDbLine
 10
-190.85309313535325
 20
-15.143994862948247
 30
0.0
 11
-186.7353048795028
 21
-15.475094383235342
 31
0.0
  0
LINE
  5
D4
330
17
100
AcDbEntity
  8
FoilLayer
100
AcDbLine
 10
-186.7353048795028
 20
-15.475094383235342
 30
0.0
 11
-182.45171808182315
 21
-15.77934293901151
 31
0.0
  0
LINE
  5
D5
330
17
100
AcDbEntity
  8
FoilLayer
100
AcDbLine
 10
-182.45171808182315
 20
-15.77934293901151
 30
0.0
 11
-178.0156375297871
 21
-16.037065004955693
 31
0.0
  0
LINE
  5
D6
330
17
100
AcDbEntity
  8
FoilLayer
100
AcDbLine
 10
-178.0156375297871
 20
-16.037065004955693
 30
0.0
 11
-173.39615946939085
 21
-16.22911701911579
 31
0.0
  0
LINE
  5
D7
330
17
100
AcDbEntity
  8
FoilLayer
100
AcDbLine
 10
-173.39615946939085
 20
-16.22911701911579
 30
0.0
 11
-168.59305196834373
 21
-16.374950186990265
 31
0.0
  0
LINE
  5
D8
330
17
100
AcDbEntity
  8
FoilLayer
100
AcDbLine
 10
-168.59305196834373
 20
-16.374950186990265
 30
0.0
 11
-163.58372086248414
 21
-16.481141679340112
 31
0.0
  0
LINE
  5
D9
330
17
100
AcDbEntity
  8
FoilLayer
100
AcDbLine
 10
-163.58372086248414
 20
-16.481141679340112
 30
0.0
 11
-158.42156746318634
 21
-16.560745591240234
 31
0.0
  0
LINE
  5
DA
330
17
100
AcDbEntity
  8
FoilLayer
100
AcDbLine
 10
-158.42156746318634
 20
-16.560745591240234
 30
0.0
 11
-153.10117419042044
 21
-16.593971009741193
 31
0.0
  0
LINE
  5
DB
330
17
100
AcDbEntity
  8
FoilLayer
100
AcDbLine
 10
-153.10117419042044
 20
-16.593971009741193
 30
0.0
 11
-147.6266347039645
 21
-16.574173497561834
 31
0.0
  0
LINE
  5
DC
330
17
100
AcDbEntity
  8
FoilLayer
100
AcDbLine
 10
-147.6266347039645
 20
-16.574173497561834
 30
0.0
 11
-141.96458297516568
 21
-16.50118552224357
 31
0.0
  0
LINE
  5
DD
330
17
100
AcDbEntity
  8
FoilLayer
100
AcDbLine
 10
-141.96458297516568
 20
-16.50118552224357
 30
0.0
 11
-136.11802947829074
 21
-16.39489245582779
 31
0.0
  0
LINE
  5
DE
330
17
100
AcDbEntity
  8
FoilLayer
100
AcDbLine
 10
-136.11802947829074
 20
-16.39489245582779
 30
0.0
 11
-130.10949366600636
 21
-16.268770895438557
 31
0.0
  0
LINE
  5
DF
330
17
100
AcDbEntity
  8
FoilLayer
100
AcDbLine
 10
-130.10949366600636
 20
-16.268770895438557
 30
0.0
 11
-123.97372797221098
 21
-16.10963410407546
 31
0.0
  0
LINE
  5
E0
330
17
100
AcDbEntity
  8
FoilLayer
100
AcDbLine
 10
-123.97372797221098
 20
-16.10963410407546
 30
0.0
 11
-117.6867362173677
 21
-15.897219807267954
 31
0.0
  0
LINE
  5
E1
330
17
100
AcDbEntity
  8
FoilLayer
100
AcDbLine
 10
-117.6867362173677
 20
-15.897219807267954
 30
0.0
 11
-111.2461080980874
 21
-15.644931932325258
 31
0.0
  0
LINE
  5
E2
330
17
100
AcDbEntity
  8
FoilLayer
100
AcDbLine
 10
-111.2461080980874
 20
-15.644931932325258
 30
0.0
 11
-104.62912612177391
 21
-15.352321674357022
 31
0.0
  0
LINE
  5
E3
330
17
100
AcDbEntity
  8
FoilLayer
100
AcDbLine
 10
-104.62912612177391
 20
-15.352321674357022
 30
0.0
 11
-97.86538959556492
 21
-15.053344821534251
 31
0.0
  0
LINE
  5
E4
330
17
100
AcDbEntity
  8
FoilLayer
100
AcDbLine
 10
-97.86538959556492
 20
-15.053344821534251
 30
0.0
 11
-90.98362651483151
 21
-14.727871462294335
 31
0.0
  0
LINE
  5
E5
330
17
100
AcDbEntity
  8
FoilLayer
100
AcDbLine
 10
-90.98362651483151
 20
-14.727871462294335
 30
0.0
 11
-83.98528975774713
 21
-14.369353131676768
 31
0.0
  0
LINE
  5
E6
330
17
100
AcDbEntity
  8
FoilLayer
100
AcDbLine
 10
-83.98528975774713
 20
-14.369353131676768
 30
0.0
 11
-76.84323936559676
 21
-13.96409530673922
 31
0.0
  0
LINE
  5
E7
330
17
100
AcDbEntity
  8
FoilLayer
100
AcDbLine
 10
-76.84323936559676
 20
-13.96409530673922
 30
0.0
 11
-69.5523684640101
 21
-13.52504778653814
 31
0.0
  0
LINE
  5
E8
330
17
100
AcDbEntity
  8
FoilLayer
100
AcDbLine
 10
-69.5523684640101
 20
-13.52504778653814
 30
0.0
 11
-66.61796792845996
 21
-13.351663332333743
 31
0.0
  0
LINE
  5
E9
330
17
100
AcDbEntity
  8
FoilLayer
100
AcDbLine
 10
-66.61796792845996
 20
-13.351663332333743
 30
0.0
 11
-66.52654278390344
 21
-14.898964674329807
 31
0.0
  0
LINE
  5
EA
330
17
100
AcDbEntity
  8
FoilLayer
100
AcDbLine
 10
-66.52654278390344
 20
-14.898964674329807
 30
0.0
 11
-62.033110845890576
 21
-14.633462198106447
 31
0.0
  0
LINE
  5
EB
330
17
100
AcDbEntity
  8
FoilLayer
100
AcDbLine
 10
-62.033110845890576
 20
-14.633462198106447
 30
0.0
 11
-54.506293956493266
 21
-14.181322887245466
 31
0.0
  0
LINE
  5
EC
330
17
100
AcDbEntity
  8
FoilLayer
100
AcDbLine
 10
-54.506293956493266
 20
-14.181322887245466
 30
0.0
 11
-46.88079414810505
 21
-13.702657389888833
 31
0.0
  0
LINE
  5
ED
330
17
100
AcDbEntity
  8
FoilLayer
100
AcDbLine
 10
-46.88079414810505
 20
-13.702657389888833
 30
0.0
 11
-39.14025619468916
 21
-13.177311697841388
 31
0.0
  0
LINE
  5
EE
330
17
100
AcDbEntity
  8
FoilLayer
100
AcDbLine
 10
-39.14025619468916
 20
-13.177311697841388
 30
0.0
 11
-31.27928616732092
 21
-12.638615993211806
 31
0.0
  0
LINE
  5
EF
330
17
100
AcDbEntity
  8
FoilLayer
100
AcDbLine
 10
-31.27928616732092
 20
-12.638615993211806
 30
0.0
 11
-23.305004236116957
 21
-12.099903572173849
 31
0.0
  0
LINE
  5
F0
330
17
100
AcDbEntity
  8
FoilLayer
100
AcDbLine
 10
-23.305004236116957
 20
-12.099903572173849
 30
0.0
 11
-15.246524246994909
 21
-11.56799343025767
 31
0.0
  0
LINE
  5
F1
330
17
100
AcDbEntity
  8
FoilLayer
100
AcDbLine
 10
-15.246524246994909
 20
-11.56799343025767
 30
0.0
 11
-7.114087902537079
 21
-11.002779772467665
 31
0.0
  0
LINE
  5
F2
330
17
100
AcDbEntity
  8
FoilLayer
100
AcDbLine
 10
-7.114087902537079
 20
-11.002779772467665
 30
0.0
 11
1.1055575301990928
 21
-10.41756229829377
 31
0.0
  0
LINE
  5
F3
330
17
100
AcDbEntity
  8
FoilLayer
100
AcDbLine
 10
1.1055575301990928
 20
-10.41756229829377
 30
0.0
 11
9.41860929177733
 21
-9.82567311523019
 31
0.0
  0
LINE
  5
F4
330
17
100
AcDbEntity
  8
FoilLayer
100
AcDbLine
 10
9.41860929177733
 20
-9.82567311523019
 30
0.0
 11
17.812111222542853
 21
-9.233739361937868
 31
0.0
  0
LINE
  5
F5
330
17
100
AcDbEntity
  8
FoilLayer
100
AcDbLine
 10
17.812111222542853
 20
-9.233739361937868
 30
0.0
 11
26.27060924330368
 21
-8.655210361794799
 31
0.0
  0
LINE
  5
F6
330
17
100
AcDbEntity
  8
FoilLayer
100
AcDbLine
 10
26.27060924330368
 20
-8.655210361794799
 30
0.0
 11
34.7687405671183
 21
-8.063400723795192
 31
0.0
  0
LINE
  5
F7
330
17
100
AcDbEntity
  8
FoilLayer
100
AcDbLine
 10
34.7687405671183
 20
-8.063400723795192
 30
0.0
 11
43.327793474389296
 21
-7.451564841767991
 31
0.0
  0
LINE
  5
F8
330
17
100
AcDbEntity
  8
FoilLayer
100
AcDbLine
 10
43.327793474389296
 20
-7.451564841767991
 30
0.0
 11
51.95398110720811
 21
-6.839685010757439
 31
0.0
  0
LINE
  5
F9
330
17
100
AcDbEntity
  8
FoilLayer
100
AcDbLine
 10
51.95398110720811
 20
-6.839685010757439
 30
0.0
 11
60.6332684334011
 21
-6.241114146491032
 31
0.0
  0
LINE
  5
FA
330
17
100
AcDbEntity
  8
FoilLayer
100
AcDbLine
 10
60.6332684334011
 20
-6.241114146491032
 30
0.0
 11
69.3381076354276
 21
-5.6559149551413075
 31
0.0
  0
LINE
  5
FB
330
17
100
AcDbEntity
  8
FoilLayer
100
AcDbLine
 10
69.3381076354276
 20
-5.6559149551413075
 30
0.0
 11
78.06289871016372
 21
-5.064065642562515
 31
0.0
  0
LINE
  5
FC
330
17
100
AcDbEntity
  8
FoilLayer
100
AcDbLine
 10
78.06289871016372
 20
-5.064065642562515
 30
0.0
 11
86.80807300531484
 21
-4.465536632695084
 31
0.0
  0
LINE
  5
FD
330
17
100
AcDbEntity
  8
FoilLayer
100
AcDbLine
 10
86.80807300531484
 20
-4.465536632695084
 30
0.0
 11
95.600717724057
 21
-3.8669463931907235
 31
0.0
  0
LINE
  5
FE
330
17
100
AcDbEntity
  8
FoilLayer
100
AcDbLine
 10
95.600717724057
 20
-3.8669463931907235
 30
0.0
 11
104.41356104988324
 21
-3.2882937495726856
 31
0.0
  0
LINE
  5
FF
330
17
100
AcDbEntity
  8
FoilLayer
100
AcDbLine
 10
104.41356104988324
 20
-3.2882937495726856
 30
0.0
 11
113.21838276887075
 21
-2.7363298522824597
 31
0.0
  0
LINE
  5
100
330
17
100
AcDbEntity
  8
FoilLayer
100
AcDbLine
 10
113.21838276887075
 20
-2.7363298522824597
 30
0.0
 11
122.0092480640331
 21
-2.184407689943892
 31
0.0
  0
LINE
  5
101
330
17
100
AcDbEntity
  8
FoilLayer
100
AcDbLine
 10
122.0092480640331
 20
-2.184407689943892
 30
0.0
 11
130.79486006318956
 21
-1.6190963352769503
 31
0.0
  0
LINE
  5
102
330
17
100
AcDbEntity
  8
FoilLayer
100
AcDbLine
 10
130.79486006318956
 20
-1.6190963352769503
 30
0.0
 11
139.58773722411303
 21
-1.0670492430638998
 31
0.0
  0
LINE
  5
103
330
17
100
AcDbEntity
  8
FoilLayer
100
AcDbLine
 10
139.58773722411303
 20
-1.0670492430638998
 30
0.0
 11
148.366579533706
 21
-0.5416492065259351
 31
0.0
  0
LINE
  5
104
330
17
100
AcDbEntity
  8
FoilLayer
100
AcDbLine
 10
148.366579533706
 20
-0.5416492065259351
 30
0.0
 11
157.1117739690044
 21
-0.029573219585461386
 31
0.0
  0
LINE
  5
105
330
17
100
AcDbEntity
  8
FoilLayer
100
AcDbLine
 10
157.1117739690044
 20
-0.029573219585461386
 30
0.0
 11
165.8031612235538
 21
0.47581711671922894
 31
0.0
  0
LINE
  5
106
330
17
100
AcDbEntity
  8
FoilLayer
100
AcDbLine
 10
165.8031612235538
 20
0.47581711671922894
 30
0.0
 11
174.4689790204497
 21
0.987917986012004
 31
0.0
  0
LINE
  5
107
330
17
100
AcDbEntity
  8
FoilLayer
100
AcDbLine
 10
174.4689790204497
 20
0.987917986012004
 30
0.0
 11
183.10885369805976
 21
1.486754227790824
 31
0.0
  0
LINE
  5
108
330
17
100
AcDbEntity
  8
FoilLayer
100
AcDbLine
 10
183.10885369805976
 20
1.486754227790824
 30
0.0
 11
191.70839901888968
 21
1.9589635904921918
 31
0.0
  0
LINE
  5
109
330
17
100
AcDbEntity
  8
FoilLayer
100
AcDbLine
 10
191.70839901888968
 20
1.9589635904921918
 30
0.0
 11
200.23376793190482
 21
2.411167206826399
 31
0.0
  0
LINE
  5
10A
330
17
100
AcDbEntity
  8
FoilLayer
100
AcDbLine
 10
200.23376793190482
 20
2.411167206826399
 30
0.0
 11
208.69231565101734
 21
2.863353434330925
 31
0.0
  0
LINE
  5
10B
330
17
100
AcDbEntity
  8
FoilLayer
100
AcDbLine
 10
208.69231565101734
 20
2.863353434330925
 30
0.0
 11
217.09943908739683
 21
3.3222847931727433
 31
0.0
  0
LINE
  5
10C
330
17
100
AcDbEntity
  8
FoilLayer
100
AcDbLine
 10
217.09943908739683
 20
3.3222847931727433
 30
0.0
 11
225.45370249848912
 21
3.7546283263238047
 31
0.0
  0
LINE
  5
10D
330
17
100
AcDbEntity
  8
FoilLayer
100
AcDbLine
 10
225.45370249848912
 20
3.7546283263238047
 30
0.0
 11
233.74069778713664
 21
4.153680269690481
 31
0.0
  0
LINE
  5
10E
330
17
100
AcDbEntity
  8
FoilLayer
100
AcDbLine
 10
233.74069778713664
 20
4.153680269690481
 30
0.0
 11
241.93350504548619
 21
4.532730542082378
 31
0.0
  0
LINE
  5
10F
330
17
100
AcDbEntity
  8
FoilLayer
100
AcDbLine
 10
241.93350504548619
 20
4.532730542082378
 30
0.0
 11
250.03400000472112
 21
4.911817405002736
 31
0.0
  0
LINE
  5
110
330
17
100
AcDbEntity
  8
FoilLayer
100
AcDbLine
 10
250.03400000472112
 20
4.911817405002736
 30
0.0
 11
258.0624629458419
 21
5.2776514571125235
 31
0.0
  0
LINE
  5
111
330
17
100
AcDbEntity
  8
FoilLayer
100
AcDbLine
 10
258.0624629458419
 20
5.2776514571125235
 30
0.0
 11
266.0118759197982
 21
5.610256331207433
 31
0.0
  0
LINE
  5
112
330
17
100
AcDbEntity
  8
FoilLayer
100
AcDbLine
 10
266.0118759197982
 20
5.610256331207433
 30
0.0
 11
273.8608032539846
 21
5.896273378011571
 31
0.0
  0
LINE
  5
113
330
17
100
AcDbEntity
  8
FoilLayer
100
AcDbLine
 10
273.8608032539846
 20
5.896273378011571
 30
0.0
 11
281.59552695743565
 21
6.148998331563657
 31
0.0
  0
LINE
  5
114
330
17
100
AcDbEntity
  8
FoilLayer
100
AcDbLine
 10
281.59552695743565
 20
6.148998331563657
 30
0.0
 11
289.20515761312214
 21
6.38845861870485
 31
0.0
  0
LINE
  5
115
330
17
100
AcDbEntity
  8
FoilLayer
100
AcDbLine
 10
289.20515761312214
 20
6.38845861870485
 30
0.0
 11
296.71627033155124
 21
6.594687944979128
 31
0.0
  0
LINE
  5
116
330
17
100
AcDbEntity
  8
FoilLayer
100
AcDbLine
 10
296.71627033155124
 20
6.594687944979128
 30
0.0
 11
304.1077581595518
 21
6.7476962499013435
 31
0.0
  0
LINE
  5
117
330
17
100
AcDbEntity
  8
FoilLayer
100
AcDbLine
 10
304.1077581595518
 20
6.7476962499013435
 30
0.0
 11
311.351794044183
 21
6.847472051434863
 31
0.0
  0
LINE
  5
118
330
17
100
AcDbEntity
  8
FoilLayer
100
AcDbLine
 10
311.351794044183
 20
6.847472051434863
 30
0.0
 11
318.42881249065084
 21
6.91398376602099
 31
0.0
  0
LINE
  5
119
330
17
100
AcDbEntity
  8
FoilLayer
100
AcDbLine
 10
318.42881249065084
 20
6.91398376602099
 30
0.0
 11
325.3609021642165
 21
6.960545100096837
 31
0.0
  0
LINE
  5
11A
330
17
100
AcDbEntity
  8
FoilLayer
100
AcDbLine
 10
325.3609021642165
 20
6.960545100096837
 30
0.0
 11
332.14771258726233
 21
6.9671843801960325
 31
0.0
  0
LINE
  5
11B
330
17
100
AcDbEntity
  8
FoilLayer
100
AcDbLine
 10
332.14771258726233
 20
6.9671843801960325
 30
0.0
 11
338.7675444362448
 21
6.920603460257196
 31
0.0
  0
LINE
  5
11C
330
17
100
AcDbEntity
  8
FoilLayer
100
AcDbLine
 10
338.7675444362448
 20
6.920603460257196
 30
0.0
 11
345.20040127814667
 21
6.834117481044452
 31
0.0
  0
LINE
  5
11D
330
17
100
AcDbEntity
  8
FoilLayer
100
AcDbLine
 10
345.20040127814667
 20
6.834117481044452
 30
0.0
 11
351.4338570553935
 21
6.721018359500677
 31
0.0
  0
LINE
  5
11E
330
17
100
AcDbEntity
  8
FoilLayer
100
AcDbLine
 10
351.4338570553935
 20
6.721018359500677
 30
0.0
 11
357.48841630087026
 21
6.5812885514705295
 31
0.0
  0
LINE
  5
11F
330
17
100
AcDbEntity
  8
FoilLayer
100
AcDbLine
 10
357.48841630087026
 20
6.5812885514705295
 30
0.0
 11
363.3575420377376
 21
6.408260950627247
 31
0.0
  0
LINE
  5
120
330
17
100
AcDbEntity
  8
FoilLayer
100
AcDbLine
 10
363.3575420377376
 20
6.408260950627247
 30
0.0
 11
369.0202862314823
 21
6.1953127376614585
 31
0.0
  0
LINE
  5
121
330
17
100
AcDbEntity
  8
FoilLayer
100
AcDbLine
 10
369.0202862314823
 20
6.1953127376614585
 30
0.0
 11
374.4615736561247
 21
5.949188673776812
 31
0.0
  0
LINE
  5
122
330
17
100
AcDbEntity
  8
FoilLayer
100
AcDbLine
 10
374.4615736561247
 20
5.949188673776812
 30
0.0
 11
379.685249821891
 21
5.696310897279561
 31
0.0
  0
LINE
  5
123
330
17
100
AcDbEntity
  8
FoilLayer
100
AcDbLine
 10
379.685249821891
 20
5.696310897279561
 30
0.0
 11
384.7031246047133
 21
5.4167859605458615
 31
0.0
  0
LINE
  5
124
330
17
100
AcDbEntity
  8
FoilLayer
100
AcDbLine
 10
384.7031246047133
 20
5.4167859605458615
 30
0.0
 11
389.50337867005516
 21
5.110495063354937
 31
0.0
  0
LINE
  5
125
330
17
100
AcDbEntity
  8
FoilLayer
100
AcDbLine
 10
389.50337867005516
 20
5.110495063354937
 30
0.0
 11
394.05474242160113
 21
4.764477213878376
 31
0.0
  0
LINE
  5
126
330
17
100
AcDbEntity
  8
FoilLayer
100
AcDbLine
 10
394.05474242160113
 20
4.764477213878376
 30
0.0
 11
398.3596972131741
 21
4.411824406917279
 31
0.0
  0
LINE
  5
127
330
17
100
AcDbEntity
  8
FoilLayer
100
AcDbLine
 10
398.3596972131741
 20
4.411824406917279
 30
0.0
 11
402.4120281440185
 21
4.059152237901143
 31
0.0
  0
LINE
  5
128
330
17
100
AcDbEntity
  8
FoilLayer
100
AcDbLine
 10
402.4120281440185
 20
4.059152237901143
 30
0.0
 11
406.23297561847545
 21
3.7063312892085243
 31
0.0
  0
LINE
  5
129
330
17
100
AcDbEntity
  8
FoilLayer
100
AcDbLine
 10
406.23297561847545
 20
3.7063312892085243
 30
0.0
 11
409.8017735135532
 21
3.3467674267240923
 31
0.0
  0
LINE
  5
12A
330
17
100
AcDbEntity
  8
FoilLayer
100
AcDbLine
 10
409.8017735135532
 20
3.3467674267240923
 30
0.0
 11
413.1167529864147
 21
2.980643783751888
 31
0.0
  0
LINE
  5
12B
330
17
100
AcDbEntity
  8
FoilLayer
100
AcDbLine
 10
413.1167529864147
 20
2.980643783751888
 30
0.0
 11
416.17322022194475
 21
2.6210410014748446
 31
0.0
  0
LINE
  5
12C
330
17
100
AcDbEntity
  8
FoilLayer
100
AcDbLine
 10
416.17322022194475
 20
2.6210410014748446
 30
0.0
 11
418.95525616946173
 21
2.268289038729896
 31
0.0
  0
LINE
  5
12D
330
17
100
AcDbEntity
  8
FoilLayer
100
AcDbLine
 10
418.95525616946173
 20
2.268289038729896
 30
0.0
 11
421.4775082066678
 21
1.935534304609974
 31
0.0
  0
LINE
  5
12E
330
17
100
AcDbEntity
  8
FoilLayer
100
AcDbLine
 10
421.4775082066678
 20
1.935534304609974
 30
0.0
 11
423.7269839676356
 21
1.6293892980936997
 31
0.0
  0
LINE
  5
12F
330
17
100
AcDbEntity
  8
FoilLayer
100
AcDbLine
 10
423.7269839676356
 20
1.6293892980936997
 30
0.0
 11
425.723291899697
 21
1.3499044049869706
 31
0.0
  0
LINE
  5
130
330
17
100
AcDbEntity
  8
FoilLayer
100
AcDbLine
 10
425.723291899697
 20
1.3499044049869706
 30
0.0
 11
427.4465398340031
 21
1.1037253082182994
 31
0.0
  0
LINE
  5
131
330
17
100
AcDbEntity
  8
FoilLayer
100
AcDbLine
 10
427.4465398340031
 20
1.1037253082182994
 30
0.0
 11
428.91814050364775
 21
0.890638689091318
 31
0.0
  0
LINE
  5
132
330
17
100
AcDbEntity
  8
FoilLayer
100
AcDbLine
 10
428.91814050364775
 20
0.890638689091318
 30
0.0
 11
430.1238598957813
 21
0.7107752442064358
 31
0.0
  0
LINE
  5
133
330
17
100
AcDbEntity
  8
FoilLayer
100
AcDbLine
 10
430.1238598957813
 20
0.7107752442064358
 30
0.0
 11
431.07614818818655
 21
0.5642673780097787
 31
0.0
  0
LINE
  5
134
330
17
100
AcDbEntity
  8
FoilLayer
100
AcDbLine
 10
431.07614818818655
 20
0.5642673780097787
 30
0.0
 11
431.7483726521377
 21
0.4587776711823607
 31
0.0
  0
LINE
  5
135
330
17
100
AcDbEntity
  8
FoilLayer
100
AcDbLine
 10
431.7483726521377
 20
0.4587776711823607
 30
0.0
 11
432.1841940578607
 21
0.3961900630389305
 31
0.0
  0
LINE
  5
136
330
17
100
AcDbEntity
  8
FoilLayer
100
AcDbLine
 10
432.1841940578607
 20
0.3961900630389305
 30
0.0
 11
432.3304984469924
 21
0.3695892650149898
 31
0.0
  0
LINE
  5
137
330
17
100
AcDbEntity
  8
FoilLayer
100
AcDbLine
 10
432.3304984469924
 20
0.3695892650149898
 30
0.0
 11
432.1013423092069
 21
-0.39148526295199343
 31
0.0
  0
LINE
  5
138
330
17
100
AcDbEntity
  8
StringerLayer
100
AcDbLine
 10
229.4053773516876
 20
50.498928933485864
 30
0.0
 11
233.29499431661037
 21
49.5657194895853
 31
0.0
  0
LINE
  5
139
330
17
100
AcDbEntity
  8
StringerLayer
100
AcDbLine
 10
233.29499431661037
 20
49.5657194895853
 30
0.0
 11
234.22820376051095
 21
53.455336454508036
 31
0.0
  0
LINE
  5
13A
330
17
100
AcDbEntity
  8
StringerLayer
100
AcDbLine
 10
234.22820376051095
 20
53.455336454508036
 30
0.0
 11
230.33858679558818
 21
54.3885458984086
 31
0.0
  0
LINE
  5
13B
330
17
100
AcDbEntity
  8
StringerLayer
100
AcDbLine
 10
230.33858679558818
 20
54.3885458984086
 30
0.0
 11
229.4053773516876
 21
50.498928933485864
 31
0.0
  0
LINE
  5
13C
330
17
100
AcDbEntity
  8
StringerLayer
100
AcDbLine
 10
-67.69898658465513
 20
70.25157704212403
 30
0.0
 11
-63.73326988841191
 21
70.77415821776829
 31
0.0
  0
LINE
  5
13D
330
17
100
AcDbEntity
  8
StringerLayer
100
AcDbLine
 10
-63.73326988841191
 20
70.77415821776829
 30
0.0
 11
-64.25585106405619
 21
74.73987491401151
 31
0.0
  0
LINE
  5
13E
330
17
100
AcDbEntity
  8
StringerLayer
100
AcDbLine
 10
-64.25585106405619
 20
74.73987491401151
 30
0.0
 11
-68.22156776029941
 21
74.21729373836725
 31
0.0
  0
LINE
  5
13F
330
17
100
AcDbEntity
  8
StringerLayer
100
AcDbLine
 10
-68.22156776029941
 20
74.21729373836725
 30
0.0
 11
-67.69898658465513
 21
70.25157704212403
 31
0.0
  0
LINE
  5
140
330
17
100
AcDbEntity
  8
StringerLayer
100
AcDbLine
 10
-165.97379602633654
 20
46.31953826523728
 30
0.0
 11
-162.2379240436151
 21
47.74896490858665
 31
0.0
  0
LINE
  5
141
330
17
100
AcDbEntity
  8
StringerLayer
100
AcDbLine
 10
-162.2379240436151
 20
47.74896490858665
 30
0.0
 11
-163.66735068696445
 21
51.48483689130808
 31
0.0
  0
LINE
  5
142
330
17
100
AcDbEntity
  8
StringerLayer
100
AcDbLine
 10
-163.66735068696445
 20
51.48483689130808
 30
0.0
 11
-167.4032226696859
 21
50.055410247958704
 31
0.0
  0
LINE
  5
143
330
17
100
AcDbEntity
  8
StringerLayer
100
AcDbLine
 10
-167.4032226696859
 20
50.055410247958704
 30
0.0
 11
-165.97379602633654
 21
46.31953826523728
 31
0.0
  0
LINE
  5
144
330
17
100
AcDbEntity
  8
StringerLayer
100
AcDbLine
 10
-221.21029726567758
 20
9.66028336921829
 30
0.0
 11
-219.9756688592302
 21
11.2337167799457
 31
0.0
  0
LINE
  5
145
330
17
100
AcDbEntity
  8
StringerLayer
100
AcDbLine
 10
-219.9756688592302
 20
11.2337167799457
 30
0.0
 11
-223.90925238604873
 21
14.320287796064058
 31
0.0
  0
LINE
  5
146
330
17
100
AcDbEntity
  8
StringerLayer
100
AcDbLine
 10
-223.90925238604873
 20
14.320287796064058
 30
0.0
 11
-225.1438807924961
 21
12.746854385336647
 31
0.0
  0
LINE
  5
147
330
17
100
AcDbEntity
  8
StringerLayer
100
AcDbLine
 10
-225.1438807924961
 20
12.746854385336647
 30
0.0
 11
-221.21029726567758
 21
9.66028336921829
 31
0.0
  0
LINE
  5
148
330
17
100
AcDbEntity
  8
StringerLayer
100
AcDbLine
 10
-224.03185638187412
 20
-2.5329740008192476
 30
0.0
 11
-225.52807334096914
 21
-1.2058211040826214
 31
0.0
  0
LINE
  5
149
330
17
100
AcDbEntity
  8
StringerLayer
100
AcDbLine
 10
-225.52807334096914
 20
-1.2058211040826214
 30
0.0
 11
-228.84595558281072
 21
-4.9463635018201995
 31
0.0
  0
LINE
  5
14A
330
17
100
AcDbEntity
  8
StringerLayer
100
AcDbLine
 10
-228.84595558281072
 20
-4.9463635018201995
 30
0.0
 11
-227.3497386237157
 21
-6.273516398556826
 31
0.0
  0
LINE
  5
14B
330
17
100
AcDbEntity
  8
StringerLayer
100
AcDbLine
 10
-227.3497386237157
 20
-6.273516398556826
 30
0.0
 11
-224.03185638187412
 21
-2.5329740008192476
 31
0.0
  0
LINE
  5
14C
330
17
100
AcDbEntity
  8
StringerLayer
100
AcDbLine
 10
-98.01691833466131
 20
-11.056127377903808
 30
0.0
 11
-102.01301600880424
 21
-11.232772159059058
 31
0.0
  0
LINE
  5
14D
330
17
100
AcDbEntity
  8
StringerLayer
100
AcDbLine
 10
-102.01301600880424
 20
-11.232772159059058
 30
0.0
 11
-101.836371227649
 21
-15.228869833201998
 31
0.0
  0
LINE
  5
14E
330
17
100
AcDbEntity
  8
StringerLayer
100
AcDbLine
 10
-101.836371227649
 20
-15.228869833201998
 30
0.0
 11
-97.84027355350607
 21
-15.052225052046747
 31
0.0
  0
LINE
  5
14F
330
17
100
AcDbEntity
  8
StringerLayer
100
AcDbLine
 10
-97.84027355350607
 20
-15.052225052046747
 30
0.0
 11
-98.01691833466131
 21
-11.056127377903808
 31
0.0
  0
LINE
  5
150
330
17
100
AcDbEntity
  8
SubLayer
100
AcDbLine
 10
-232.74999999999983
 20
0.0
 30
0.0
 11
-228.74999999999983
 21
0.0
 31
0.0
  0
LINE
  5
151
330
17
100
AcDbEntity
  8
SubLayer
100
AcDbLine
 10
64.5
 20
0.0
 30
0.0
 11
75.14999999999998
 21
0.0
 31
0.0
  0
LINE
  5
152
330
17
100
AcDbEntity
  8
SubLayer
100
AcDbLine
 10
-49.84461749757737
 20
33.58605780085208
 30
0.0
 11
-41.8494908814246
 21
33.86525377447209
 31
0.0
  0
LINE
  5
153
330
17
100
AcDbEntity
  8
SubLayer
100
AcDbLine
 10
41.8494908814246
 20
36.78808662330655
 30
0.0
 11
49.84461749757737
 21
37.06728259692655
 31
0.0
  0
LINE
  5
154
330
17
100
AcDbEntity
  8
SubLayer
100
AcDbLine
 10
-1.4038322548581006
 20
75.52716621573242
 30
0.0
 11
-1.1246362812380928
 21
67.53203959957966
 31
0.0
  0
LINE
  5
155
330
17
100
AcDbEntity
  8
SubLayer
100
AcDbLine
 10
1.4038322548581006
 20
-4.8738258179537794
 30
0.0
 11
1.1246362812380928
 21
3.1213007981989804
 31
0.0
  0
LINE
  5
156
330
17
100
AcDbEntity
  8
SubLayer
100
AcDbLine
 10
-47.77603685013417
 20
31.65707514021889
 30
0.0
 11
-43.77847354205779
 21
31.796673127028896
 31
0.0
  0
LINE
  5
157
330
17
100
AcDbEntity
  8
SubLayer
100
AcDbLine
 10
-43.77847354205779
 20
31.796673127028896
 30
0.0
 11
-43.91807152886779
 21
35.794236435105276
 31
0.0
  0
LINE
  5
158
330
17
100
AcDbEntity
  8
SubLayer
100
AcDbLine
 10
-43.91807152886779
 20
35.794236435105276
 30
0.0
 11
-47.91563483694417
 21
35.65463844829527
 31
0.0
  0
LINE
  5
159
330
17
100
AcDbEntity
  8
SubLayer
100
AcDbLine
 10
-47.91563483694417
 20
35.65463844829527
 30
0.0
 11
-47.77603685013417
 21
31.65707514021889
 31
0.0
  0
LINE
  5
15A
330
17
100
AcDbEntity
  8
SubLayer
100
AcDbLine
 10
43.91807152886779
 20
34.85910396267336
 30
0.0
 11
47.91563483694417
 21
34.99870194948336
 31
0.0
  0
LINE
  5
15B
330
17
100
AcDbEntity
  8
SubLayer
100
AcDbLine
 10
47.91563483694417
 20
34.99870194948336
 30
0.0
 11
47.77603685013417
 21
38.99626525755974
 31
0.0
  0
LINE
  5
15C
330
17
100
AcDbEntity
  8
SubLayer
100
AcDbLine
 10
47.77603685013417
 20
38.99626525755974
 30
0.0
 11
43.77847354205779
 21
38.85666727074974
 31
0.0
  0
LINE
  5
15D
330
17
100
AcDbEntity
  8
SubLayer
100
AcDbLine
 10
43.77847354205779
 20
38.85666727074974
 30
0.0
 11
43.91807152886779
 21
34.85910396267336
 31
0.0
  0
LINE
  5
15E
330
17
100
AcDbEntity
  8
SubLayer
100
AcDbLine
 10
-3.193216928681286
 20
69.46102226021284
 30
0.0
 11
0.8043463793950969
 21
69.60062024702285
 31
0.0
  0
LINE
  5
15F
330
17
100
AcDbEntity
  8
SubLayer
100
AcDbLine
 10
0.8043463793950969
 20
69.60062024702285
 30
0.0
 11
0.664748392585093
 21
73.59818355509924
 31
0.0
  0
LINE
  5
160
330
17
100
AcDbEntity
  8
SubLayer
100
AcDbLine
 10
0.664748392585093
 20
73.59818355509924
 30
0.0
 11
-3.3328149154912903
 21
73.45858556828924
 31
0.0
  0
LINE
  5
161
330
17
100
AcDbEntity
  8
SubLayer
100
AcDbLine
 10
-3.3328149154912903
 20
73.45858556828924
 30
0.0
 11
-3.193216928681286
 21
69.46102226021284
 31
0.0
  0
LINE
  5
162
330
17
100
AcDbEntity
  8
SubLayer
100
AcDbLine
 10
-0.664748392585093
 20
-2.944843157320593
 30
0.0
 11
3.3328149154912903
 21
-2.805245170510589
 31
0.0
  0
LINE
  5
163
330
17
100
AcDbEntity
  8
SubLayer
100
AcDbLine
 10
3.3328149154912903
 20
-2.805245170510589
 30
0.0
 11
3.193216928681286
 21
1.192318137565794
 31
0.0
  0
LINE
  5
164
330
17
100
AcDbEntity
  8
SubLayer
100
AcDbLine
 10
3.193216928681286
 20
1.192318137565794
 30
0.0
 11
-0.8043463793950969
 21
1.0527201507557902
 31
0.0
  0
LINE
  5
165
330
17
100
AcDbEntity
  8
SubLayer
100
AcDbLine
 10
-0.8043463793950969
 20
1.0527201507557902
 30
0.0
 11
-0.664748392585093
 21
-2.944843157320593
 31
0.0
  0
LINE
  5
166
330
17
100
AcDbEntity
  8
SubLayer
100
AcDbLine
 10
332.0152377474428
 20
28.411264011864464
 30
0.0
 11
336.01280105551916
 21
28.550861998674467
 31
0.0
  0
LINE
  5
167
330
17
100
AcDbEntity
  8
SubLayer
100
AcDbLine
 10
-229.77217824745844
 20
8.793215154541969
 30
0.0
 11
-225.77461493938205
 21
8.932813141351971
 31
0.0
  0
LINE
  5
168
330
17
100
AcDbEntity
  8
SubLayer
100
AcDbLine
 10
-118.41408587549729
 20
12.681925429303968
 30
0.0
 11
-112.41774091338273
 21
12.891322409518972
 31
0.0
  0
LINE
  5
169
330
17
100
AcDbEntity
  8
SubLayer
100
AcDbLine
 10
218.65836372144344
 20
24.45275474369747
 30
0.0
 11
224.654708683558
 21
24.662151723912473
 31
0.0
  0
LINE
  5
16A
330
17
100
AcDbEntity
  8
SubLayer
100
AcDbLine
 10
50.122138922973086
 20
18.567340086500714
 30
0.0
 11
56.11848388508766
 21
18.776737066715718
 31
0.0
  0
LINE
  5
16B
330
17
100
AcDbEntity
  8
SubLayer
100
AcDbLine
 10
-113.34733274699681
 20
10.85764125877828
 30
0.0
 11
-113.48693073380682
 21
14.855204566854663
 31
0.0
  0
LINE
  5
16C
330
17
100
AcDbEntity
  8
SubLayer
100
AcDbLine
 10
-113.48693073380682
 20
14.855204566854663
 30
0.0
 11
-117.48449404188321
 21
14.71560658004466
 31
0.0
  0
LINE
  5
16D
330
17
100
AcDbEntity
  8
SubLayer
100
AcDbLine
 10
-117.48449404188321
 20
14.71560658004466
 30
0.0
 11
-117.3448960550732
 21
10.718043271968277
 31
0.0
  0
LINE
  5
16E
330
17
100
AcDbEntity
  8
SubLayer
100
AcDbLine
 10
-117.3448960550732
 20
10.718043271968277
 30
0.0
 11
-113.34733274699681
 21
10.85764125877828
 31
0.0
  0
LINE
  5
16F
330
17
100
AcDbEntity
  8
SubLayer
100
AcDbLine
 10
223.7251168499439
 20
22.628470573171782
 30
0.0
 11
223.5855188631339
 21
26.626033881248166
 31
0.0
  0
LINE
  5
170
330
17
100
AcDbEntity
  8
SubLayer
100
AcDbLine
 10
223.5855188631339
 20
26.626033881248166
 30
0.0
 11
219.58795555505753
 21
26.48643589443816
 31
0.0
  0
LINE
  5
171
330
17
100
AcDbEntity
  8
SubLayer
100
AcDbLine
 10
219.58795555505753
 20
26.48643589443816
 30
0.0
 11
219.72755354186754
 21
22.488872586361776
 31
0.0
  0
LINE
  5
172
330
17
100
AcDbEntity
  8
SubLayer
100
AcDbLine
 10
219.72755354186754
 20
22.488872586361776
 30
0.0
 11
223.7251168499439
 21
22.628470573171782
 31
0.0
  0
LINE
  5
173
330
17
100
AcDbEntity
  8
SubLayer
100
AcDbLine
 10
55.188892051473566
 20
16.743055915975027
 30
0.0
 11
55.04929406466356
 21
20.74061922405141
 31
0.0
  0
LINE
  5
174
330
17
100
AcDbEntity
  8
SubLayer
100
AcDbLine
 10
55.04929406466356
 20
20.74061922405141
 30
0.0
 11
51.05173075658718
 21
20.601021237241405
 31
0.0
  0
LINE
  5
175
330
17
100
AcDbEntity
  8
SubLayer
100
AcDbLine
 10
51.05173075658718
 20
20.601021237241405
 30
0.0
 11
51.191328743397186
 21
16.60345792916502
 31
0.0
  0
LINE
  5
176
330
17
100
AcDbEntity
  8
SubLayer
100
AcDbLine
 10
51.191328743397186
 20
16.60345792916502
 30
0.0
 11
55.188892051473566
 21
16.743055915975027
 31
0.0
  0
LINE
  5
177
330
17
100
AcDbEntity
  8
SubLayer
100
AcDbLine
 10
412.97605858799255
 20
5.363317493705826
 30
0.0
 11
413.26813434521824
 21
6.319712679829778
 31
0.0
  0
LINE
  5
178
330
17
100
AcDbEntity
  8
SubLayer
100
AcDbLine
 10
412.407820932847
 20
2.5563693395964227
 30
0.0
 11
412.5603474383246
 21
3.5446687199092843
 31
0.0
  0
LINE
  5
179
330
17
100
AcDbEntity
  8
SubLayer
100
AcDbLine
 10
393.80631798958893
 20
11.060413706894138
 30
0.0
 11
394.0947969608271
 21
12.017899938206803
 31
0.0
  0
LINE
  5
17A
330
17
100
AcDbEntity
  8
SubLayer
100
AcDbLine
 10
392.4878024782901
 20
4.382700790434187
 30
0.0
 11
392.60977702864244
 21
5.375234018626747
 31
0.0
  0
LINE
  5
17B
330
17
100
AcDbEntity
  8
SubLayer
100
AcDbLine
 10
355.32388962835773
 20
21.96868994990107
 30
0.0
 11
355.60449714846266
 21
22.928512547916228
 31
0.0
  0
LINE
  5
17C
330
17
100
AcDbEntity
  8
SubLayer
100
AcDbLine
 10
352.4889790366086
 20
6.197456344297481
 30
0.0
 11
352.5726754493064
 21
7.1939476440595636
 31
0.0
  0
LINE
  5
17D
330
17
100
AcDbEntity
  8
SubLayer
100
AcDbLine
 10
-150.8853575315597
 20
58.061732979336135
 30
0.0
 11
-150.74575954474966
 21
54.064169671259755
 31
0.0
  0
LINE
  5
17E
330
17
100
AcDbEntity
  8
SubLayer
100
AcDbLine
 10
-148.3487308646657
 20
-14.577750738037741
 30
0.0
 11
-148.20913287785567
 21
-18.575314046114123
 31
0.0
  0
LINE
  5
17F
330
17
100
AcDbEntity
  8
SubLayer
100
AcDbLine
 10
-148.890955694747
 20
0.9495368324561295
 30
0.0
 11
-148.681558714532
 21
-5.046808129658444
 31
0.0
  0
LINE
  5
180
330
17
100
AcDbEntity
  8
SubLayer
100
AcDbLine
 10
-150.41293169488338
 20
44.53322706288046
 30
0.0
 11
-150.2035347146684
 21
38.53688210076588
 31
0.0
  0
LINE
  5
181
330
17
100
AcDbEntity
  8
SubLayer
100
AcDbLine
 10
-149.65194369481517
 20
22.741381947668295
 30
0.0
 11
-149.44254671460018
 21
16.745036985553718
 31
0.0
  0
LINE
  5
182
330
17
100
AcDbEntity
  8
SubLayer
100
AcDbLine
 10
-150.71523986527268
 20
-4.117216296044351
 30
0.0
 11
-146.7176765571963
 21
-3.977618309234347
 31
0.0
  0
LINE
  5
183
330
17
100
AcDbEntity
  8
SubLayer
100
AcDbLine
 10
-146.7176765571963
 20
-3.977618309234347
 30
0.0
 11
-146.85727454400632
 21
0.019944998842035933
 31
0.0
  0
LINE
  5
184
330
17
100
AcDbEntity
  8
SubLayer
100
AcDbLine
 10
-146.85727454400632
 20
0.019944998842035933
 30
0.0
 11
-150.85483785208268
 21
-0.11965298796796797
 31
0.0
  0
LINE
  5
185
330
17
100
AcDbEntity
  8
SubLayer
100
AcDbLine
 10
-150.85483785208268
 20
-0.11965298796796797
 30
0.0
 11
-150.71523986527268
 21
-4.117216296044351
 31
0.0
  0
LINE
  5
186
330
17
100
AcDbEntity
  8
SubLayer
100
AcDbLine
 10
-152.23721586540907
 20
39.46647393437998
 30
0.0
 11
-148.2396525573327
 21
39.60607192118998
 31
0.0
  0
LINE
  5
187
330
17
100
AcDbEntity
  8
SubLayer
100
AcDbLine
 10
-148.2396525573327
 20
39.60607192118998
 30
0.0
 11
-148.3792505441427
 21
43.60363522926636
 31
0.0
  0
LINE
  5
188
330
17
100
AcDbEntity
  8
SubLayer
100
AcDbLine
 10
-148.3792505441427
 20
43.60363522926636
 30
0.0
 11
-152.37681385221907
 21
43.46403724245636
 31
0.0
  0
LINE
  5
189
330
17
100
AcDbEntity
  8
SubLayer
100
AcDbLine
 10
-152.37681385221907
 20
43.46403724245636
 30
0.0
 11
-152.23721586540907
 21
39.46647393437998
 31
0.0
  0
LINE
  5
18A
330
17
100
AcDbEntity
  8
SubLayer
100
AcDbLine
 10
-151.47622786534086
 20
17.67462881916781
 30
0.0
 11
-147.4786645572645
 21
17.814226805977817
 31
0.0
  0
LINE
  5
18B
330
17
100
AcDbEntity
  8
SubLayer
100
AcDbLine
 10
-147.4786645572645
 20
17.814226805977817
 30
0.0
 11
-147.6182625440745
 21
21.8117901140542
 31
0.0
  0
LINE
  5
18C
330
17
100
AcDbEntity
  8
SubLayer
100
AcDbLine
 10
-147.6182625440745
 20
21.8117901140542
 30
0.0
 11
-151.61582585215086
 21
21.672192127244195
 31
0.0
  0
LINE
  5
18D
330
17
100
AcDbEntity
  8
SubLayer
100
AcDbLine
 10
-151.61582585215086
 20
21.672192127244195
 30
0.0
 11
-151.47622786534086
 21
17.67462881916781
 31
0.0
  0
LINE
  5
18E
330
17
100
AcDbEntity
  8
SubLayer
100
AcDbLine
 10
199.1407390318031
 20
63.423697905942696
 30
0.0
 11
199.28033701861312
 21
59.426134597866316
 31
0.0
  0
LINE
  5
18F
330
17
100
AcDbEntity
  8
SubLayer
100
AcDbLine
 10
201.19961118853325
 20
4.4653133486748064
 30
0.0
 11
201.33920917534329
 21
0.4677500405984232
 31
0.0
  0
LINE
  5
190
330
17
100
AcDbEntity
  8
SubLayer
100
AcDbLine
 10
200.75293726048477
 20
17.25638108714748
 30
0.0
 11
200.96233424069976
 21
11.260036125032908
 31
0.0
  0
LINE
  5
191
330
17
100
AcDbEntity
  8
SubLayer
100
AcDbLine
 10
199.51761396644667
 20
52.63141182150822
 30
0.0
 11
199.72701094666166
 21
46.635066859393646
 31
0.0
  0
LINE
  5
192
330
17
100
AcDbEntity
  8
SubLayer
100
AcDbLine
 10
200.1352756134657
 20
34.94389645432785
 30
0.0
 11
200.34467259368068
 21
28.94755149221327
 31
0.0
  0
LINE
  5
193
330
17
100
AcDbEntity
  8
SubLayer
100
AcDbLine
 10
198.92865308995908
 20
12.189627958647002
 30
0.0
 11
202.92621639803545
 21
12.329225945457004
 31
0.0
  0
LINE
  5
194
330
17
100
AcDbEntity
  8
SubLayer
100
AcDbLine
 10
202.92621639803545
 20
12.329225945457004
 30
0.0
 11
202.78661841122545
 21
16.326789253533388
 31
0.0
  0
LINE
  5
195
330
17
100
AcDbEntity
  8
SubLayer
100
AcDbLine
 10
202.78661841122545
 20
16.326789253533388
 30
0.0
 11
198.78905510314908
 21
16.18719126672338
 31
0.0
  0
LINE
  5
196
330
17
100
AcDbEntity
  8
SubLayer
100
AcDbLine
 10
198.78905510314908
 20
16.18719126672338
 30
0.0
 11
198.92865308995908
 21
12.189627958647002
 31
0.0
  0
LINE
  5
197
330
17
100
AcDbEntity
  8
SubLayer
100
AcDbLine
 10
197.693329795921
 20
47.56465869300774
 30
0.0
 11
201.69089310399735
 21
47.704256679817746
 31
0.0
  0
LINE
  5
198
330
17
100
AcDbEntity
  8
SubLayer
100
AcDbLine
 10
201.69089310399735
 20
47.704256679817746
 30
0.0
 11
201.55129511718735
 21
51.701819987894126
 31
0.0
  0
LINE
  5
199
330
17
100
AcDbEntity
  8
SubLayer
100
AcDbLine
 10
201.55129511718735
 20
51.701819987894126
 30
0.0
 11
197.55373180911099
 21
51.56222200108412
 31
0.0
  0
LINE
  5
19A
330
17
100
AcDbEntity
  8
SubLayer
100
AcDbLine
 10
197.55373180911099
 20
51.56222200108412
 30
0.0
 11
197.693329795921
 21
47.56465869300774
 31
0.0
  0
LINE
  5
19B
330
17
100
AcDbEntity
  8
SubLayer
100
AcDbLine
 10
198.31099144294
 20
29.877143325827365
 30
0.0
 11
202.30855475101637
 21
30.01674131263737
 31
0.0
  0
LINE
  5
19C
330
17
100
AcDbEntity
  8
SubLayer
100
AcDbLine
 10
202.30855475101637
 20
30.01674131263737
 30
0.0
 11
202.16895676420637
 21
34.01430462071375
 31
0.0
  0
LINE
  5
19D
330
17
100
AcDbEntity
  8
SubLayer
100
AcDbLine
 10
202.16895676420637
 20
34.01430462071375
 30
0.0
 11
198.17139345613
 21
33.87470663390375
 31
0.0
  0
LINE
  5
19E
330
17
100
AcDbEntity
  8
SubLayer
100
AcDbLine
 10
198.17139345613
 20
33.87470663390375
 30
0.0
 11
198.31099144294
 21
29.877143325827365
 31
0.0
  0
ENDSEC
  0
SECTION
  2
OBJECTS
  0
DICTIONARY
  5
A
330
0
100
AcDbDictionary
280
0
281
1
  3
ACAD_COLOR
350
B
  3
ACAD_GROUP
350
C
  3
ACAD_LAYOUT
350
D
  3
ACAD_MATERIAL
350
E
  3
ACAD_MLEADERSTYLE
350
F
  3
ACAD_MLINESTYLE
350
10
  3
ACAD_PLOTSETTINGS
350
11
  3
ACAD_PLOTSTYLENAME
350
12
  3
ACAD_SCALELIST
350
14
  3
ACAD_TABLESTYLE
350
15
  3
ACAD_VISUALSTYLE
350
16
  3
EZDXF_META
350
2D
  0
DICTIONARY
  5
B
330
A
100
AcDbDictionary
280
0
281
1
  0
DICTIONARY
  5
C
330
A
100
AcDbDictionary
280
0
281
1
  0
DICTIONARY
  5
D
330
A
100
AcDbDictionary
280
0
281
1
  3
Model
350
1A
  3
Layout1
350
1E
  0
DICTIONARY
  5
E
330
A
100
AcDbDictionary
280
0
281
1
  3
ByBlock
350
1F
  3
ByLayer
350
20
  3
Global
350
21
  0
DICTIONARY
  5
F
330
A
100
AcDbDictionary
280
0
281
1
  3
Standard
350
2C
  0
DICTIONARY
  5
10
330
A
100
AcDbDictionary
280
0
281
1
  3
Standard
350
22
  0
DICTIONARY
  5
11
330
A
100
AcDbDictionary
280
0
281
1
  0
ACDBDICTIONARYWDFLT
  5
12
330
A
100
AcDbDictionary
280
0
281
1
  3
Normal
350
13
100
AcDbDictionaryWithDefault
340
13
  0
ACDBPLACEHOLDER
  5
13
330
12
  0
DICTIONARY
  5
14
330
A
100
AcDbDictionary
280
0
281
1
  0
DICTIONARY
  5
15
330
A
100
AcDbDictionary
280
0
281
1
  0
DICTIONARY
  5
16
330
A
100
AcDbDictionary
280
0
281
1
  0
LAYOUT
  5
1A
330
D
100
AcDbPlotSettings
  1

  2
Adobe PDF
  4
A3
  6

 40
7.5
 41
20.0
 42
7.5
 43
20.0
 44
420.0
 45
297.0
 46
0.0
 47
0.0
 48
0.0
 49
0.0
140
0.0
141
0.0
142
1.0
143
1.0
 70
1024
 72
1
 73
0
 74
5
  7

 75
16
 76
0
 77
2
 78
300
147
1.0
148
0.0
149
0.0
100
AcDbLayout
  1
Model
 70
1
 71
0
 10
0.0
 20
0.0
 11
420.0
 21
297.0
 12
0.0
 22
0.0
 32
0.0
 14
1e+20
 24
1e+20
 34
1e+20
 15
-1e+20
 25
-1e+20
 35
-1e+20
146
0.0
 13
0.0
 23
0.0
 33
0.0
 16
1.0
 26
0.0
 36
0.0
 17
0.0
 27
1.0
 37
0.0
 76
1
330
17
  0
LAYOUT
  5
1E
330
D
100
AcDbPlotSettings
  1

  2
Adobe PDF
  4
A3
  6

 40
7.5
 41
20.0
 42
7.5
 43
20.0
 44
420.0
 45
297.0
 46
0.0
 47
0.0
 48
0.0
 49
0.0
140
0.0
141
0.0
142
1.0
143
1.0
 70
0
 72
1
 73
0
 74
5
  7

 75
16
 76
0
 77
2
 78
300
147
1.0
148
0.0
149
0.0
100
AcDbLayout
  1
Layout1
 70
1
 71
1
 10
0.0
 20
0.0
 11
420.0
 21
297.0
 12
0.0
 22
0.0
 32
0.0
 14
1e+20
 24
1e+20
 34
1e+20
 15
-1e+20
 25
-1e+20
 35
-1e+20
146
0.0
 13
0.0
 23
0.0
 33
0.0
 16
1.0
 26
0.0
 36
0.0
 17
0.0
 27
1.0
 37
0.0
 76
1
330
1B
  0
MATERIAL
  5
1F
102
{ACAD_REACTORS
330
E
102
}
330
E
100
AcDbMaterial
  1
ByBlock
  2

 70
0
 40
1.0
 71
1
 41
1.0
 91
-1023410177
 42
1.0
 72
1
  3

 73
1
 74
1
 75
1
 44
0.5
 73
0
 45
1.0
 46
1.0
 77
1
  4

 78
1
 79
1
170
1
 48
1.0
171
1
  6

172
1
173
1
174
1
140
1.0
141
1.0
175
1
  7

176
1
177
1
178
1
143
1.0
179
1
  8

270
1
271
1
272
1
145
1.0
146
1.0
273
1
  9

274
1
275
1
276
1
 42
1.0
 72
1
  3

 73
1
 74
1
 75
1
 94
63
  0
MATERIAL
  5
20
102
{ACAD_REACTORS
330
E
102
}
330
E
100
AcDbMaterial
  1
ByLayer
  2

 70
0
 40
1.0
 71
1
 41
1.0
 91
-1023410177
 42
1.0
 72
1
  3

 73
1
 74
1
 75
1
 44
0.5
 73
0
 45
1.0
 46
1.0
 77
1
  4

 78
1
 79
1
170
1
 48
1.0
171
1
  6

172
1
173
1
174
1
140
1.0
141
1.0
175
1
  7

176
1
177
1
178
1
143
1.0
179
1
  8

270
1
271
1
272
1
145
1.0
146
1.0
273
1
  9

274
1
275
1
276
1
 42
1.0
 72
1
  3

 73
1
 74
1
 75
1
 94
63
  0
MATERIAL
  5
21
102
{ACAD_REACTORS
330
E
102
}
330
E
100
AcDbMaterial
  1
Global
  2

 70
0
 40
1.0
 71
1
 41
1.0
 91
-1023410177
 42
1.0
 72
1
  3

 73
1
 74
1
 75
1
 44
0.5
 73
0
 45
1.0
 46
1.0
 77
1
  4

 78
1
 79
1
170
1
 48
1.0
171
1
  6

172
1
173
1
174
1
140
1.0
141
1.0
175
1
  7

176
1
177
1
178
1
143
1.0
179
1
  8

270
1
271
1
272
1
145
1.0
146
1.0
273
1
  9

274
1
275
1
276
1
 42
1.0
 72
1
  3

 73
1
 74
1
 75
1
 94
63
  0
MLINESTYLE
  5
22
102
{ACAD_REACTORS
330
10
102
}
330
10
100
AcDbMlineStyle
  2
Standard
 70
0
  3

 62
256
 51
90.0
 52
90.0
 71
2
 49
0.5
 62
256
  6
BYLAYER
 49
-0.5
 62
256
  6
BYLAYER
  0
MLEADERSTYLE
  5
2C
102
{ACAD_REACTORS
330
F
102
}
330
F
100
AcDbMLeaderStyle
179
2
170
2
171
1
172
0
 90
2
 40
0.0
 41
0.0
173
1
 91
-1056964608
 92
-2
290
1
 42
2.0
291
1
 43
8.0
  3
Standard
 44
4.0
300

342
29
174
1
175
1
176
0
178
1
 93
-1056964608
 45
4.0
292
0
297
0
 46
4.0
 94
-1056964608
 47
1.0
 49
1.0
140
1.0
294
1
141
0.0
177
0
142
1.0
295
0
296
0
143
3.75
271
0
272
9
273
9
  0
DICTIONARY
  5
2D
330
A
100
AcDbDictionary
281
1
  3
CREATED_BY_EZDXF
350
2E
  3
WRITTEN_BY_EZDXF
350
1A1
  0
DICTIONARYVAR
  5
2E
330
2D
100
DictionaryVariables
280
0
  1
1.0.2 @ 2023-10-20T04:47:16.101355+00:00
  0
DICTIONARYVAR
  5
1A1
330
2D
100
DictionaryVariables
280
0
  1
1.0.2 @ 2023-10-20T04:47:16.110325+00:00
  0
ENDSEC
  0
EOF
