  0
SECTION
  2
HEADER
  9
$ACADVER
  1
AC1027
  9
$ACADMAINTVER
 70
105
  9
$DWGCODEPAGE
  3
ANSI_1252
  9
$LASTSAVEDBY
  1
ezdxf
  9
$REQUIREDVERSIONS
160
0
  9
$INSBASE
 10
0.0
 20
0.0
 30
0.0
  9
$EXTMIN
 10
1e+20
 20
1e+20
 30
1e+20
  9
$EXTMAX
 10
-1e+20
 20
-1e+20
 30
-1e+20
  9
$LIMMIN
 10
0.0
 20
0.0
  9
$LIMMAX
 10
420.0
 20
297.0
  9
$ORTHOMODE
 70
0
  9
$REGENMODE
 70
1
  9
$FILLMODE
 70
1
  9
$QTEXTMODE
 70
0
  9
$MIRRTEXT
 70
1
  9
$LTSCALE
 40
1.0
  9
$ATTMODE
 70
1
  9
$TEXTSIZE
 40
2.5
  9
$TRACEWID
 40
1.0
  9
$TEXTSTYLE
  7
Standard
  9
$CLAYER
  8
0
  9
$CELTYPE
  6
ByLayer
  9
$CECOLOR
 62
256
  9
$CELTSCALE
 40
1.0
  9
$DISPSILH
 70
0
  9
$DIMSCALE
 40
1.0
  9
$DIMASZ
 40
2.5
  9
$DIMEXO
 40
0.625
  9
$DIMDLI
 40
3.75
  9
$DIMRND
 40
0.0
  9
$DIMDLE
 40
0.0
  9
$DIMEXE
 40
1.25
  9
$DIMTP
 40
0.0
  9
$DIMTM
 40
0.0
  9
$DIMTXT
 40
2.5
  9
$DIMCEN
 40
2.5
  9
$DIMTSZ
 40
0.0
  9
$DIMTOL
 70
0
  9
$DIMLIM
 70
0
  9
$DIMTIH
 70
0
  9
$DIMTOH
 70
0
  9
$DIMSE1
 70
0
  9
$DIMSE2
 70
0
  9
$DIMTAD
 70
1
  9
$DIMZIN
 70
8
  9
$DIMBLK
  1

  9
$DIMASO
 70
1
  9
$DIMSHO
 70
1
  9
$DIMPOST
  1

  9
$DIMAPOST
  1

  9
$DIMALT
 70
0
  9
$DIMALTD
 70
3
  9
$DIMALTF
 40
0.03937007874
  9
$DIMLFAC
 40
1.0
  9
$DIMTOFL
 70
1
  9
$DIMTVP
 40
0.0
  9
$DIMTIX
 70
0
  9
$DIMSOXD
 70
0
  9
$DIMSAH
 70
0
  9
$DIMBLK1
  1

  9
$DIMBLK2
  1

  9
$DIMSTYLE
  2
ISO-25
  9
$DIMCLRD
 70
0
  9
$DIMCLRE
 70
0
  9
$DIMCLRT
 70
0
  9
$DIMTFAC
 40
1.0
  9
$DIMGAP
 40
0.625
  9
$DIMJUST
 70
0
  9
$DIMSD1
 70
0
  9
$DIMSD2
 70
0
  9
$DIMTOLJ
 70
0
  9
$DIMTZIN
 70
8
  9
$DIMALTZ
 70
0
  9
$DIMALTTZ
 70
0
  9
$DIMUPT
 70
0
  9
$DIMDEC
 70
2
  9
$DIMTDEC
 70
2
  9
$DIMALTU
 70
2
  9
$DIMALTTD
 70
3
  9
$DIMTXSTY
  7
Standard
  9
$DIMAUNIT
 70
0
  9
$DIMADEC
 70
0
  9
$DIMALTRND
 40
0.0
  9
$DIMAZIN
 70
0
  9
$DIMDSEP
 70
44
  9
$DIMATFIT
 70
3
  9
$DIMFRAC
 70
0
  9
$DIMLDRBLK
  1

  9
$DIMLUNIT
 70
2
  9
$DIMLWD
 70
-2
  9
$DIMLWE
 70
-2
  9
$DIMTMOVE
 70
0
  9
$DIMFXL
 40
1.0
  9
$DIMFXLON
 70
0
  9
$DIMJOGANG
 40
0.785398163397
  9
$DIMTFILL
 70
0
  9
$DIMTFILLCLR
 70
0
  9
$DIMARCSYM
 70
0
  9
$DIMLTYPE
  6

  9
$DIMLTEX1
  6

  9
$DIMLTEX2
  6

  9
$DIMTXTDIRECTION
 70
0
  9
$LUNITS
 70
2
  9
$LUPREC
 70
4
  9
$SKETCHINC
 40
1.0
  9
$FILLETRAD
 40
10.0
  9
$AUNITS
 70
0
  9
$AUPREC
 70
2
  9
$MENU
  1
.
  9
$ELEVATION
 40
0.0
  9
$PELEVATION
 40
0.0
  9
$THICKNESS
 40
0.0
  9
$LIMCHECK
 70
0
  9
$CHAMFERA
 40
0.0
  9
$CHAMFERB
 40
0.0
  9
$CHAMFERC
 40
0.0
  9
$CHAMFERD
 40
0.0
  9
$SKPOLY
 70
0
  9
$TDCREATE
 40
2460238.574490741
  9
$TDUCREATE
 40
2458532.153996898
  9
$TDUPDATE
 40
2460238.574490741
  9
$TDUUPDATE
 40
2458532.1544311
  9
$TDINDWG
 40
0.0
  9
$TDUSRTIMER
 40
0.0
  9
$USRTIMER
 70
1
  9
$ANGBASE
 50
0.0
  9
$ANGDIR
 70
0
  9
$PDMODE
 70
0
  9
$PDSIZE
 40
0.0
  9
$PLINEWID
 40
0.0
  9
$SPLFRAME
 70
0
  9
$SPLINETYPE
 70
6
  9
$SPLINESEGS
 70
8
  9
$HANDSEED
  5
1A2
  9
$SURFTAB1
 70
6
  9
$SURFTAB2
 70
6
  9
$SURFTYPE
 70
6
  9
$SURFU
 70
6
  9
$SURFV
 70
6
  9
$UCSBASE
  2

  9
$UCSNAME
  2

  9
$UCSORG
 10
0.0
 20
0.0
 30
0.0
  9
$UCSXDIR
 10
1.0
 20
0.0
 30
0.0
  9
$UCSYDIR
 10
0.0
 20
1.0
 30
0.0
  9
$UCSORTHOREF
  2

  9
$UCSORTHOVIEW
 70
0
  9
$UCSORGTOP
 10
0.0
 20
0.0
 30
0.0
  9
$UCSORGBOTTOM
 10
0.0
 20
0.0
 30
0.0
  9
$UCSORGLEFT
 10
0.0
 20
0.0
 30
0.0
  9
$UCSORGRIGHT
 10
0.0
 20
0.0
 30
0.0
  9
$UCSORGFRONT
 10
0.0
 20
0.0
 30
0.0
  9
$UCSORGBACK
 10
0.0
 20
0.0
 30
0.0
  9
$PUCSBASE
  2

  9
$PUCSNAME
  2

  9
$PUCSORG
 10
0.0
 20
0.0
 30
0.0
  9
$PUCSXDIR
 10
1.0
 20
0.0
 30
0.0
  9
$PUCSYDIR
 10
0.0
 20
1.0
 30
0.0
  9
$PUCSORTHOREF
  2

  9
$PUCSORTHOVIEW
 70
0
  9
$PUCSORGTOP
 10
0.0
 20
0.0
 30
0.0
  9
$PUCSORGBOTTOM
 10
0.0
 20
0.0
 30
0.0
  9
$PUCSORGLEFT
 10
0.0
 20
0.0
 30
0.0
  9
$PUCSORGRIGHT
 10
0.0
 20
0.0
 30
0.0
  9
$PUCSORGFRONT
 10
0.0
 20
0.0
 30
0.0
  9
$PUCSORGBACK
 10
0.0
 20
0.0
 30
0.0
  9
$USERI1
 70
0
  9
$USERI2
 70
0
  9
$USERI3
 70
0
  9
$USERI4
 70
0
  9
$USERI5
 70
0
  9
$USERR1
 40
0.0
  9
$USERR2
 40
0.0
  9
$USERR3
 40
0.0
  9
$USERR4
 40
0.0
  9
$USERR5
 40
0.0
  9
$WORLDVIEW
 70
1
  9
$SHADEDGE
 70
3
  9
$SHADEDIF
 70
70
  9
$TILEMODE
 70
1
  9
$MAXACTVP
 70
64
  9
$PINSBASE
 10
0.0
 20
0.0
 30
0.0
  9
$PLIMCHECK
 70
0
  9
$PEXTMIN
 10
1e+20
 20
1e+20
 30
1e+20
  9
$PEXTMAX
 10
-1e+20
 20
-1e+20
 30
-1e+20
  9
$PLIMMIN
 10
0.0
 20
0.0
  9
$PLIMMAX
 10
420.0
 20
297.0
  9
$UNITMODE
 70
0
  9
$VISRETAIN
 70
1
  9
$PLINEGEN
 70
0
  9
$PSLTSCALE
 70
1
  9
$TREEDEPTH
 70
3020
  9
$CMLSTYLE
  2
Standard
  9
$CMLJUST
 70
0
  9
$CMLSCALE
 40
20.0
  9
$PROXYGRAPHICS
 70
1
  9
$MEASUREMENT
 70
1
  9
$CELWEIGHT
370
-1
  9
$ENDCAPS
280
0
  9
$JOINSTYLE
280
0
  9
$LWDISPLAY
290
0
  9
$INSUNITS
 70
6
  9
$HYPERLINKBASE
  1

  9
$STYLESHEET
  1

  9
$XEDIT
290
1
  9
$CEPSNTYPE
380
0
  9
$PSTYLEMODE
290
1
  9
$FINGERPRINTGUID
  2
{A61E25A5-393A-487C-83B0-3CBF51DE9AD2}
  9
$VERSIONGUID
  2
{D081D3B6-E465-46F1-BE58-3DC0822F29B0}
  9
$EXTNAMES
290
1
  9
$PSVPSCALE
 40
0.0
  9
$OLESTARTUP
290
0
  9
$SORTENTS
280
127
  9
$INDEXCTL
280
0
  9
$HIDETEXT
280
1
  9
$XCLIPFRAME
280
0
  9
$HALOGAP
280
0
  9
$OBSCOLOR
 70
257
  9
$OBSLTYPE
280
0
  9
$INTERSECTIONDISPLAY
280
0
  9
$INTERSECTIONCOLOR
 70
257
  9
$DIMASSOC
280
2
  9
$PROJECTNAME
  1

  9
$CAMERADISPLAY
290
0
  9
$LENSLENGTH
 40
50.0
  9
$CAMERAHEIGHT
 40
0.0
  9
$STEPSPERSEC
 40
24.0
  9
$STEPSIZE
 40
100.0
  9
$3DDWFPREC
 40
2.0
  9
$PSOLWIDTH
 40
0.005
  9
$PSOLHEIGHT
 40
0.08
  9
$LOFTANG1
 40
1.570796326795
  9
$LOFTANG2
 40
1.570796326795
  9
$LOFTMAG1
 40
0.0
  9
$LOFTMAG2
 40
0.0
  9
$LOFTPARAM
 70
7
  9
$LOFTNORMALS
280
1
  9
$LATITUDE
 40
37.795
  9
$LONGITUDE
 40
-122.394
  9
$NORTHDIRECTION
 40
0.0
  9
$TIMEZONE
 70
-8000
  9
$LIGHTGLYPHDISPLAY
280
1
  9
$TILEMODELIGHTSYNCH
280
1
  9
$CMATERIAL
347
20
  9
$SOLIDHIST
280
0
  9
$SHOWHIST
280
1
  9
$DWFFRAME
280
2
  9
$DGNFRAME
280
2
  9
$REALWORLDSCALE
290
1
  9
$INTERFERECOLOR
 62
256
  9
$CSHADOW
280
0
  9
$SHADOWPLANELOCATION
 40
0.0
  0
ENDSEC
  0
SECTION
  2
CLASSES
  0
CLASS
  1
ACDBDICTIONARYWDFLT
  2
AcDbDictionaryWithDefault
  3
ObjectDBX Classes
 90
0
 91
0
280
0
281
0
  0
CLASS
  1
SUN
  2
AcDbSun
  3
SCENEOE
 90
1153
 91
0
280
0
281
0
  0
CLASS
  1
VISUALSTYLE
  2
AcDbVisualStyle
  3
ObjectDBX Classes
 90
4095
 91
0
280
0
281
0
  0
CLASS
  1
MATERIAL
  2
AcDbMaterial
  3
ObjectDBX Classes
 90
1153
 91
0
280
0
281
0
  0
CLASS
  1
SCALE
  2
AcDbScale
  3
ObjectDBX Classes
 90
1153
 91
0
280
0
281
0
  0
CLASS
  1
TABLESTYLE
  2
AcDbTableStyle
  3
ObjectDBX Classes
 90
4095
 91
0
280
0
281
0
  0
CLASS
  1
MLEADERSTYLE
  2
AcDbMLeaderStyle
  3
ACDB_MLEADERSTYLE_CLASS
 90
4095
 91
0
280
0
281
0
  0
CLASS
  1
DICTIONARYVAR
  2
AcDbDictionaryVar
  3
ObjectDBX Classes
 90
0
 91
0
280
0
281
0
  0
CLASS
  1
CELLSTYLEMAP
  2
AcDbCellStyleMap
  3
ObjectDBX Classes
 90
1152
 91
0
280
0
281
0
  0
CLASS
  1
MENTALRAYRENDERSETTINGS
  2
AcDbMentalRayRenderSettings
  3
SCENEOE
 90
1024
 91
0
280
0
281
0
  0
CLASS
  1
ACDBDETAILVIEWSTYLE
  2
AcDbDetailViewStyle
  3
ObjectDBX Classes
 90
1025
 91
0
280
0
281
0
  0
CLASS
  1
ACDBSECTIONVIEWSTYLE
  2
AcDbSectionViewStyle
  3
ObjectDBX Classes
 90
1025
 91
0
280
0
281
0
  0
CLASS
  1
RASTERVARIABLES
  2
AcDbRasterVariables
  3
ISM
 90
0
 91
0
280
0
281
0
  0
CLASS
  1
ACDBPLACEHOLDER
  2
AcDbPlaceHolder
  3
ObjectDBX Classes
 90
0
 91
0
280
0
281
0
  0
CLASS
  1
LAYOUT
  2
AcDbLayout
  3
ObjectDBX Classes
 90
0
 91
0
280
0
281
0
  0
ENDSEC
  0
SECTION
  2
TABLES
  0
TABLE
  2
VPORT
  5
8
330
0
100
AcDbSymbolTable
 70
1
  0
VPORT
  5
23
330
8
100
AcDbSymbolTableRecord
100
AcDbViewportTableRecord
  2
*Active
 70
0
 10
0.0
 20
0.0
 11
1.0
 21
1.0
 12
0.0
 22
0.0
 13
0.0
 23
0.0
 14
0.5
 24
0.5
 15
0.5
 25
0.5
 16
0.0
 26
0.0
 36
1.0
 17
0.0
 27
0.0
 37
0.0
 40
1000.0
 41
1.34
 42
50.0
 43
0.0
 44
0.0
 50
0.0
 51
0.0
 71
0
 72
1000
 73
1
 74
3
 75
0
 76
0
 77
0
 78
0
281
0
 65
0
146
0.0
  0
ENDTAB
  0
TABLE
  2
LTYPE
  5
2
330
0
100
AcDbSymbolTable
 70
3
  0
LTYPE
  5
24
330
2
100
AcDbSymbolTableRecord
100
AcDbLinetypeTableRecord
  2
ByBlock
 70
0
  3

 72
65
 73
0
 40
0.0
  0
LTYPE
  5
25
330
2
100
AcDbSymbolTableRecord
100
AcDbLinetypeTableRecord
  2
ByLayer
 70
0
  3

 72
65
 73
0
 40
0.0
  0
LTYPE
  5
26
330
2
100
AcDbSymbolTableRecord
100
AcDbLinetypeTableRecord
  2
Continuous
 70
0
  3

 72
65
 73
0
 40
0.0
  0
ENDTAB
  0
TABLE
  2
LAYER
  5
1
330
0
100
AcDbSymbolTable
 70
5
  0
LAYER
  5
27
330
1
100
AcDbSymbolTableRecord
100
AcDbLayerTableRecord
  2
0
 70
0
 62
7
  6
Continuous
370
-3
390
13
347
21
  0
LAYER
  5
28
330
1
100
AcDbSymbolTableRecord
100
AcDbLayerTableRecord
  2
Defpoints
 70
0
 62
7
  6
Continuous
290
0
370
-3
390
13
347
21
  0
LAYER
  5
30
330
1
100
AcDbSymbolTableRecord
100
AcDbLayerTableRecord
  2
FoilLayer
 70
0
 62
1
  6
Continuous
370
50
390
13
347
21
  0
LAYER
  5
31
330
1
100
AcDbSymbolTableRecord
100
AcDbLayerTableRecord
  2
StringerLayer
 70
0
 62
1
  6
Continuous
370
50
390
13
347
21
  0
LAYER
  5
32
330
1
100
AcDbSymbolTableRecord
100
AcDbLayerTableRecord
  2
SubLayer
 70
0
 62
1
  6
Continuous
370
50
390
13
347
21
  0
ENDTAB
  0
TABLE
  2
STYLE
  5
5
330
0
100
AcDbSymbolTable
 70
2
  0
STYLE
  5
29
330
5
100
AcDbSymbolTableRecord
100
AcDbTextStyleTableRecord
  2
Standard
 70
0
 40
0.0
 41
1.0
 50
0.0
 71
0
 42
2.5
  3
txt
  4

  0
STYLE
  5
2F
330
5
100
AcDbSymbolTableRecord
100
AcDbTextStyleTableRecord
  2
MSゴシック
 70
0
 40
0.0
 41
1.0
 50
0.0
 71
0
 42
2.5
  3
romans
  4

  0
ENDTAB
  0
TABLE
  2
VIEW
  5
7
330
0
100
AcDbSymbolTable
 70
0
  0
ENDTAB
  0
TABLE
  2
UCS
  5
6
330
0
100
AcDbSymbolTable
 70
0
  0
ENDTAB
  0
TABLE
  2
APPID
  5
3
330
0
100
AcDbSymbolTable
 70
3
  0
APPID
  5
2A
330
3
100
AcDbSymbolTableRecord
100
AcDbRegAppTableRecord
  2
ACAD
 70
0
  0
APPID
  5
19F
330
3
100
AcDbSymbolTableRecord
100
AcDbRegAppTableRecord
  2
HATCHBACKGROUNDCOLOR
 70
0
  0
APPID
  5
1A0
330
3
100
AcDbSymbolTableRecord
100
AcDbRegAppTableRecord
  2
EZDXF
 70
0
  0
ENDTAB
  0
TABLE
  2
DIMSTYLE
  5
4
330
0
100
AcDbSymbolTable
 70
1
100
AcDbDimStyleTable
  0
DIMSTYLE
105
2B
330
4
100
AcDbSymbolTableRecord
100
AcDbDimStyleTableRecord
  2
Standard
 70
0
 40
1.0
 41
2.5
 42
0.625
 43
3.75
 44
1.25
 45
0.0
 46
0.0
 47
0.0
 48
0.0
 49
2.5
140
2.5
141
2.5
142
0.0
143
0.03937007874
144
1.0
145
0.0
146
1.0
147
0.625
148
0.0
 69
0
 70
0
 71
0
 72
0
 73
0
 74
0
 75
0
 76
0
 77
1
 78
8
 79
3
170
0
171
3
172
1
173
0
174
0
175
0
176
0
177
0
178
0
179
2
271
2
272
2
273
2
274
3
275
0
276
0
277
2
278
44
279
0
280
0
281
0
282
0
283
0
284
8
285
0
286
0
288
0
289
3
290
0
371
-2
372
-2
  0
ENDTAB
  0
TABLE
  2
BLOCK_RECORD
  5
9
330
0
100
AcDbSymbolTable
 70
2
  0
BLOCK_RECORD
  5
17
330
9
100
AcDbSymbolTableRecord
100
AcDbBlockTableRecord
  2
*Model_Space
340
1A
 70
0
280
1
281
0
  0
BLOCK_RECORD
  5
1B
330
9
100
AcDbSymbolTableRecord
100
AcDbBlockTableRecord
  2
*Paper_Space
340
1E
 70
0
280
1
281
0
  0
ENDTAB
  0
ENDSEC
  0
SECTION
  2
BLOCKS
  0
BLOCK
  5
18
330
17
100
AcDbEntity
  8
0
100
AcDbBlockBegin
  2
*Model_Space
 70
0
 10
0.0
 20
0.0
 30
0.0
  3
*Model_Space
  1

  0
ENDBLK
  5
19
330
17
100
AcDbEntity
  8
0
100
AcDbBlockEnd
  0
BLOCK
  5
1C
330
1B
100
AcDbEntity
  8
0
100
AcDbBlockBegin
  2
*Paper_Space
 70
0
 10
0.0
 20
0.0
 30
0.0
  3
*Paper_Space
  1

  0
ENDBLK
  5
1D
330
1B
100
AcDbEntity
  8
0
100
AcDbBlockEnd
  0
ENDSEC
  0
SECTION
  2
ENTITIES
  0
LINE
  5
33
330
17
100
AcDbEntity
  8
FoilLayer
100
AcDbLine
 10
422.35134230920687
 20
-0.39223528545266845
 30
0.0
 11
422.22552842368896
 21
-0.3481773057778676
 31
0.0
  0
LINE
  5
34
330
17
100
AcDbEntity
  8
FoilLayer
100
AcDbLine
 10
422.22552842368896
 20
-0.3481773057778676
 30
0.0
 11
421.83742456773496
 21
-0.21658898871866847
 31
0.0
  0
LINE
  5
35
330
17
100
AcDbEntity
  8
FoilLayer
100
AcDbLine
 10
421.83742456773496
 20
-0.21658898871866847
 30
0.0
 11
421.2272487939873
 21
-0.0023774063899572595
 31
0.0
  0
LINE
  5
36
330
17
100
AcDbEntity
  8
FoilLayer
100
AcDbLine
 10
421.2272487939873
 20
-0.0023774063899572595
 30
0.0
 11
420.38992170887127
 21
0.2897153300534994
 31
0.0
  0
LINE
  5
37
330
17
100
AcDbEntity
  8
FoilLayer
100
AcDbLine
 10
420.38992170887127
 20
0.2897153300534994
 30
0.0
 11
419.3376846178613
 21
0.6534524386570435
 31
0.0
  0
LINE
  5
38
330
17
100
AcDbEntity
  8
FoilLayer
100
AcDbLine
 10
419.3376846178613
 20
0.6534524386570435
 30
0.0
 11
418.0729371207266
 21
1.0880169128352324
 31
0.0
  0
LINE
  5
39
330
17
100
AcDbEntity
  8
FoilLayer
100
AcDbLine
 10
418.0729371207266
 20
1.0880169128352324
 30
0.0
 11
416.605024925438
 21
1.5816527725771874
 31
0.0
  0
LINE
  5
3A
330
17
100
AcDbEntity
  8
FoilLayer
100
AcDbLine
 10
416.605024925438
 20
1.5816527725771874
 30
0.0
 11
414.92797461392865
 21
2.1406695430803024
 31
0.0
  0
LINE
  5
3B
330
17
100
AcDbEntity
  8
FoilLayer
100
AcDbLine
 10
414.92797461392865
 20
2.1406695430803024
 30
0.0
 11
413.05955845240373
 21
2.7634921240901917
 31
0.0
  0
LINE
  5
3C
330
17
100
AcDbEntity
  8
FoilLayer
100
AcDbLine
 10
413.05955845240373
 20
2.7634921240901917
 30
0.0
 11
410.99329543358465
 21
3.4327542396765387
 31
0.0
  0
LINE
  5
3D
330
17
100
AcDbEntity
  8
FoilLayer
100
AcDbLine
 10
410.99329543358465
 20
3.4327542396765387
 30
0.0
 11
408.7339624291104
 21
4.159905511224128
 31
0.0
  0
LINE
  5
3E
330
17
100
AcDbEntity
  8
FoilLayer
100
AcDbLine
 10
408.7339624291104
 20
4.159905511224128
 30
0.0
 11
406.27893673436654
 21
4.932789332800441
 31
0.0
  0
LINE
  5
3F
330
17
100
AcDbEntity
  8
FoilLayer
100
AcDbLine
 10
406.27893673436654
 20
4.932789332800441
 30
0.0
 11
403.63451451115793
 21
5.751457377442012
 31
0.0
  0
LINE
  5
40
330
17
100
AcDbEntity
  8
FoilLayer
100
AcDbLine
 10
403.63451451115793
 20
5.751457377442012
 30
0.0
 11
400.79527233993963
 21
6.622073972879256
 31
0.0
  0
LINE
  5
41
330
17
100
AcDbEntity
  8
FoilLayer
100
AcDbLine
 10
400.79527233993963
 20
6.622073972879256
 30
0.0
 11
397.7746779785772
 21
7.538001179640597
 31
0.0
  0
LINE
  5
42
330
17
100
AcDbEntity
  8
FoilLayer
100
AcDbLine
 10
397.7746779785772
 20
7.538001179640597
 30
0.0
 11
394.57110825695065
 21
8.493225123586331
 31
0.0
  0
LINE
  5
43
330
17
100
AcDbEntity
  8
FoilLayer
100
AcDbLine
 10
394.57110825695065
 20
8.493225123586331
 30
0.0
 11
391.1861550195698
 21
9.493771342442848
 31
0.0
  0
LINE
  5
44
330
17
100
AcDbEntity
  8
FoilLayer
100
AcDbLine
 10
391.1861550195698
 20
9.493771342442848
 30
0.0
 11
387.61904108381134
 21
10.533370185822292
 31
0.0
  0
LINE
  5
45
330
17
100
AcDbEntity
  8
FoilLayer
100
AcDbLine
 10
387.61904108381134
 20
10.533370185822292
 30
0.0
 11
383.86959887814555
 21
11.612067576986144
 31
0.0
  0
LINE
  5
46
330
17
100
AcDbEntity
  8
FoilLayer
100
AcDbLine
 10
383.86959887814555
 20
11.612067576986144
 30
0.0
 11
379.9432836590845
 21
12.730157390046498
 31
0.0
  0
LINE
  5
47
330
17
100
AcDbEntity
  8
FoilLayer
100
AcDbLine
 10
379.9432836590845
 20
12.730157390046498
 30
0.0
 11
375.84252430700724
 21
13.899947043247892
 31
0.0
  0
LINE
  5
48
330
17
100
AcDbEntity
  8
FoilLayer
100
AcDbLine
 10
375.84252430700724
 20
13.899947043247892
 30
0.0
 11
371.57118710471923
 21
15.109184686870137
 31
0.0
  0
LINE
  5
49
330
17
100
AcDbEntity
  8
FoilLayer
100
AcDbLine
 10
371.57118710471923
 20
15.109184686870137
 30
0.0
 11
367.145598420852
 21
16.369926436299828
 31
0.0
  0
LINE
  5
4A
330
17
100
AcDbEntity
  8
FoilLayer
100
AcDbLine
 10
367.145598420852
 20
16.369926436299828
 30
0.0
 11
362.5629921186693
 21
17.663456443375765
 31
0.0
  0
LINE
  5
4B
330
17
100
AcDbEntity
  8
FoilLayer
100
AcDbLine
 10
362.5629921186693
 20
17.663456443375765
 30
0.0
 11
357.8179608479604
 21
19.00246528309216
 31
0.0
  0
LINE
  5
4C
330
17
100
AcDbEntity
  8
FoilLayer
100
AcDbLine
 10
357.8179608479604
 20
19.00246528309216
 30
0.0
 11
352.9294007666574
 21
20.380623391418077
 31
0.0
  0
LINE
  5
4D
330
17
100
AcDbEntity
  8
FoilLayer
100
AcDbLine
 10
352.9294007666574
 20
20.380623391418077
 30
0.0
 11
347.8985826388707
 21
21.80407206955925
 31
0.0
  0
LINE
  5
4E
330
17
100
AcDbEntity
  8
FoilLayer
100
AcDbLine
 10
347.8985826388707
 20
21.80407206955925
 30
0.0
 11
342.73725155650243
 21
23.260165511869474
 31
0.0
  0
LINE
  5
4F
330
17
100
AcDbEntity
  8
FoilLayer
100
AcDbLine
 10
342.73725155650243
 20
23.260165511869474
 30
0.0
 11
337.4468873703595
 21
24.75498664601105
 31
0.0
  0
LINE
  5
50
330
17
100
AcDbEntity
  8
FoilLayer
100
AcDbLine
 10
337.4468873703595
 20
24.75498664601105
 30
0.0
 11
332.0260124185065
 21
26.27595166356789
 31
0.0
  0
LINE
  5
51
330
17
100
AcDbEntity
  8
FoilLayer
100
AcDbLine
 10
332.0260124185065
 20
26.27595166356789
 30
0.0
 11
326.47473405899245
 21
27.82952958067726
 31
0.0
  0
LINE
  5
52
330
17
100
AcDbEntity
  8
FoilLayer
100
AcDbLine
 10
326.47473405899245
 20
27.82952958067726
 30
0.0
 11
320.8128297147433
 21
29.41564292121362
 31
0.0
  0
LINE
  5
53
330
17
100
AcDbEntity
  8
FoilLayer
100
AcDbLine
 10
320.8128297147433
 20
29.41564292121362
 30
0.0
 11
315.04769613033375
 21
31.03404042255944
 31
0.0
  0
LINE
  5
54
330
17
100
AcDbEntity
  8
FoilLayer
100
AcDbLine
 10
315.04769613033375
 20
31.03404042255944
 30
0.0
 11
309.18560309331144
 21
32.671788493337914
 31
0.0
  0
LINE
  5
55
330
17
100
AcDbEntity
  8
FoilLayer
100
AcDbLine
 10
309.18560309331144
 20
32.671788493337914
 30
0.0
 11
303.2189210170726
 21
34.322700833899006
 31
0.0
  0
LINE
  5
56
330
17
100
AcDbEntity
  8
FoilLayer
100
AcDbLine
 10
303.2189210170726
 20
34.322700833899006
 30
0.0
 11
297.1546038610352
 21
35.99315063347803
 31
0.0
  0
LINE
  5
57
330
17
100
AcDbEntity
  8
FoilLayer
100
AcDbLine
 10
297.1546038610352
 20
35.99315063347803
 30
0.0
 11
290.9990431721304
 21
37.68316731473577
 31
0.0
  0
LINE
  5
58
330
17
100
AcDbEntity
  8
FoilLayer
100
AcDbLine
 10
290.9990431721304
 20
37.68316731473577
 30
0.0
 11
284.7657793767571
 21
39.392602758855794
 31
0.0
  0
LINE
  5
59
330
17
100
AcDbEntity
  8
FoilLayer
100
AcDbLine
 10
284.7657793767571
 20
39.392602758855794
 30
0.0
 11
278.4625442504839
 21
41.1146253230547
 31
0.0
  0
LINE
  5
5A
330
17
100
AcDbEntity
  8
FoilLayer
100
AcDbLine
 10
278.4625442504839
 20
41.1146253230547
 30
0.0
 11
272.0935621847026
 21
42.8238539441953
 31
0.0
  0
LINE
  5
5B
330
17
100
AcDbEntity
  8
FoilLayer
100
AcDbLine
 10
272.0935621847026
 20
42.8238539441953
 30
0.0
 11
265.6530540216264
 21
44.53309244905373
 31
0.0
  0
LINE
  5
5C
330
17
100
AcDbEntity
  8
FoilLayer
100
AcDbLine
 10
265.6530540216264
 20
44.53309244905373
 30
0.0
 11
259.8857559997924
 21
46.046864285123924
 31
0.0
  0
LINE
  5
5D
330
17
100
AcDbEntity
  8
FoilLayer
100
AcDbLine
 10
259.8857559997924
 20
46.046864285123924
 30
0.0
 11
259.49224888796715
 21
44.54764710507864
 31
0.0
  0
LINE
  5
5E
330
17
100
AcDbEntity
  8
FoilLayer
100
AcDbLine
 10
259.49224888796715
 20
44.54764710507864
 30
0.0
 11
258.75370879291853
 21
44.74151039313569
 31
0.0
  0
LINE
  5
5F
330
17
100
AcDbEntity
  8
FoilLayer
100
AcDbLine
 10
258.75370879291853
 20
44.74151039313569
 30
0.0
 11
252.19577468352503
 21
46.4361989710671
 31
0.0
  0
LINE
  5
60
330
17
100
AcDbEntity
  8
FoilLayer
100
AcDbLine
 10
252.19577468352503
 20
46.4361989710671
 30
0.0
 11
245.58752599844848
 21
48.11749443233431
 31
0.0
  0
LINE
  5
61
330
17
100
AcDbEntity
  8
FoilLayer
100
AcDbLine
 10
245.58752599844848
 20
48.11749443233431
 30
0.0
 11
238.92803348802676
 21
49.77914795444964
 31
0.0
  0
LINE
  5
62
330
17
100
AcDbEntity
  8
FoilLayer
100
AcDbLine
 10
238.92803348802676
 20
49.77914795444964
 30
0.0
 11
232.20170032720102
 21
51.42179251556852
 31
0.0
  0
LINE
  5
63
330
17
100
AcDbEntity
  8
FoilLayer
100
AcDbLine
 10
232.20170032720102
 20
51.42179251556852
 30
0.0
 11
225.4327812314296
 21
53.045818399447036
 31
0.0
  0
LINE
  5
64
330
17
100
AcDbEntity
  8
FoilLayer
100
AcDbLine
 10
225.4327812314296
 20
53.045818399447036
 30
0.0
 11
218.63060666258775
 21
54.66201119732204
 31
0.0
  0
LINE
  5
65
330
17
100
AcDbEntity
  8
FoilLayer
100
AcDbLine
 10
218.63060666258775
 20
54.66201119732204
 30
0.0
 11
211.8106707909866
 21
56.24536388367469
 31
0.0
  0
LINE
  5
66
330
17
100
AcDbEntity
  8
FoilLayer
100
AcDbLine
 10
211.8106707909866
 20
56.24536388367469
 30
0.0
 11
204.97336437922013
 21
57.789323737155954
 31
0.0
  0
LINE
  5
67
330
17
100
AcDbEntity
  8
FoilLayer
100
AcDbLine
 10
204.97336437922013
 20
57.789323737155954
 30
0.0
 11
198.11568138042725
 21
59.28670809568285
 31
0.0
  0
LINE
  5
68
330
17
100
AcDbEntity
  8
FoilLayer
100
AcDbLine
 10
198.11568138042725
 20
59.28670809568285
 30
0.0
 11
191.22048834267684
 21
60.72028967888086
 31
0.0
  0
LINE
  5
69
330
17
100
AcDbEntity
  8
FoilLayer
100
AcDbLine
 10
191.22048834267684
 20
60.72028967888086
 30
0.0
 11
184.28517553115444
 21
62.108697294001004
 31
0.0
  0
LINE
  5
6A
330
17
100
AcDbEntity
  8
FoilLayer
100
AcDbLine
 10
184.28517553115444
 20
62.108697294001004
 30
0.0
 11
177.33276208130212
 21
63.45125337286574
 31
0.0
  0
LINE
  5
6B
330
17
100
AcDbEntity
  8
FoilLayer
100
AcDbLine
 10
177.33276208130212
 20
63.45125337286574
 30
0.0
 11
170.34860418101437
 21
64.74180572201203
 31
0.0
  0
LINE
  5
6C
330
17
100
AcDbEntity
  8
FoilLayer
100
AcDbLine
 10
170.34860418101437
 20
64.74180572201203
 30
0.0
 11
163.35205139297767
 21
65.97389843377027
 31
0.0
  0
LINE
  5
6D
330
17
100
AcDbEntity
  8
FoilLayer
100
AcDbLine
 10
163.35205139297767
 20
65.97389843377027
 30
0.0
 11
156.32916508411802
 21
67.1476954662471
 31
0.0
  0
LINE
  5
6E
330
17
100
AcDbEntity
  8
FoilLayer
100
AcDbLine
 10
156.32916508411802
 20
67.1476954662471
 30
0.0
 11
149.28701899505444
 21
68.26310161854445
 31
0.0
  0
LINE
  5
6F
330
17
100
AcDbEntity
  8
FoilLayer
100
AcDbLine
 10
149.28701899505444
 20
68.26310161854445
 30
0.0
 11
142.2183122489634
 21
69.32023542587454
 31
0.0
  0
LINE
  5
70
330
17
100
AcDbEntity
  8
FoilLayer
100
AcDbLine
 10
142.2183122489634
 20
69.32023542587454
 30
0.0
 11
135.13636658953095
 21
70.31903941412051
 31
0.0
  0
LINE
  5
71
330
17
100
AcDbEntity
  8
FoilLayer
100
AcDbLine
 10
135.13636658953095
 20
70.31903941412051
 30
0.0
 11
128.0481660438071
 21
71.25944698738591
 31
0.0
  0
LINE
  5
72
330
17
100
AcDbEntity
  8
FoilLayer
100
AcDbLine
 10
128.0481660438071
 20
71.25944698738591
 30
0.0
 11
120.94674889314149
 21
72.14151734999865
 31
0.0
  0
LINE
  5
73
330
17
100
AcDbEntity
  8
FoilLayer
100
AcDbLine
 10
120.94674889314149
 20
72.14151734999865
 30
0.0
 11
113.84243324735428
 21
72.96483727680177
 31
0.0
  0
LINE
  5
74
330
17
100
AcDbEntity
  8
FoilLayer
100
AcDbLine
 10
113.84243324735428
 20
72.96483727680177
 30
0.0
 11
106.72805172708502
 21
73.71720061211256
 31
0.0
  0
LINE
  5
75
330
17
100
AcDbEntity
  8
FoilLayer
100
AcDbLine
 10
106.72805172708502
 20
73.71720061211256
 30
0.0
 11
99.60521922286415
 21
74.41137240067069
 31
0.0
  0
LINE
  5
76
330
17
100
AcDbEntity
  8
FoilLayer
100
AcDbLine
 10
99.60521922286415
 20
74.41137240067069
 30
0.0
 11
92.48587511273712
 21
75.05336122223527
 31
0.0
  0
LINE
  5
77
330
17
100
AcDbEntity
  8
FoilLayer
100
AcDbLine
 10
92.48587511273712
 20
75.05336122223527
 30
0.0
 11
85.36948230150944
 21
75.63076845216631
 31
0.0
  0
LINE
  5
78
330
17
100
AcDbEntity
  8
FoilLayer
100
AcDbLine
 10
85.36948230150944
 20
75.63076845216631
 30
0.0
 11
78.26303236757792
 21
76.15605089710209
 31
0.0
  0
LINE
  5
79
330
17
100
AcDbEntity
  8
FoilLayer
100
AcDbLine
 10
78.26303236757792
 20
76.15605089710209
 30
0.0
 11
71.1763139976174
 21
76.61647724314656
 31
0.0
  0
LINE
  5
7A
330
17
100
AcDbEntity
  8
FoilLayer
100
AcDbLine
 10
71.1763139976174
 20
76.61647724314656
 30
0.0
 11
64.10268951827675
 21
77.01205992718384
 31
0.0
  0
LINE
  5
7B
330
17
100
AcDbEntity
  8
FoilLayer
100
AcDbLine
 10
64.10268951827675
 20
77.01205992718384
 30
0.0
 11
57.04024824317315
 21
77.34287424638076
 31
0.0
  0
LINE
  5
7C
330
17
100
AcDbEntity
  8
FoilLayer
100
AcDbLine
 10
57.04024824317315
 20
77.34287424638076
 30
0.0
 11
49.997356938896075
 21
77.61531797712706
 31
0.0
  0
LINE
  5
7D
330
17
100
AcDbEntity
  8
FoilLayer
100
AcDbLine
 10
49.997356938896075
 20
77.61531797712706
 30
0.0
 11
42.980517182591996
 21
77.82939218680886
 31
0.0
  0
LINE
  5
7E
330
17
100
AcDbEntity
  8
FoilLayer
100
AcDbLine
 10
42.980517182591996
 20
77.82939218680886
 30
0.0
 11
36.00478874544427
 21
77.98507008105221
 31
0.0
  0
LINE
  5
7F
330
17
100
AcDbEntity
  8
FoilLayer
100
AcDbLine
 10
36.00478874544427
 20
77.98507008105221
 30
0.0
 11
29.055192238207724
 21
78.07591635703331
 31
0.0
  0
LINE
  5
80
330
17
100
AcDbEntity
  8
FoilLayer
100
AcDbLine
 10
29.055192238207724
 20
78.07591635703331
 30
0.0
 11
22.14667138926916
 21
78.10194650137942
 31
0.0
  0
LINE
  5
81
330
17
100
AcDbEntity
  8
FoilLayer
100
AcDbLine
 10
22.14667138926916
 20
78.10194650137942
 30
0.0
 11
15.258688133044046
 21
78.05660343062412
 31
0.0
  0
LINE
  5
82
330
17
100
AcDbEntity
  8
FoilLayer
100
AcDbLine
 10
15.258688133044046
 20
78.05660343062412
 30
0.0
 11
8.409958539302522
 21
77.95938024462083
 31
0.0
  0
LINE
  5
83
330
17
100
AcDbEntity
  8
FoilLayer
100
AcDbLine
 10
8.409958539302522
 20
77.95938024462083
 30
0.0
 11
1.6172403472977237
 21
77.8103984329301
 31
0.0
  0
LINE
  5
84
330
17
100
AcDbEntity
  8
FoilLayer
100
AcDbLine
 10
1.6172403472977237
 20
77.8103984329301
 30
0.0
 11
-5.131424607305803
 21
77.5965452992839
 31
0.0
  0
LINE
  5
85
330
17
100
AcDbEntity
  8
FoilLayer
100
AcDbLine
 10
-5.131424607305803
 20
77.5965452992839
 30
0.0
 11
-11.811155193088666
 21
77.32455315687743
 31
0.0
  0
LINE
  5
86
330
17
100
AcDbEntity
  8
FoilLayer
100
AcDbLine
 10
-11.811155193088666
 20
77.32455315687743
 30
0.0
 11
-18.44891148002182
 21
76.98108283582827
 31
0.0
  0
LINE
  5
87
330
17
100
AcDbEntity
  8
FoilLayer
100
AcDbLine
 10
-18.44891148002182
 20
76.98108283582827
 30
0.0
 11
-25.03440538276402
 21
76.5793001482562
 31
0.0
  0
LINE
  5
88
330
17
100
AcDbEntity
  8
FoilLayer
100
AcDbLine
 10
-25.03440538276402
 20
76.5793001482562
 30
0.0
 11
-31.569146570382657
 21
76.11909258776222
 31
0.0
  0
LINE
  5
89
330
17
100
AcDbEntity
  8
FoilLayer
100
AcDbLine
 10
-31.569146570382657
 20
76.11909258776222
 30
0.0
 11
-38.03185654145665
 21
75.60708391177087
 31
0.0
  0
LINE
  5
8A
330
17
100
AcDbEntity
  8
FoilLayer
100
AcDbLine
 10
-38.03185654145665
 20
75.60708391177087
 30
0.0
 11
-44.4123151011666
 21
75.04365587769529
 31
0.0
  0
LINE
  5
8B
330
17
100
AcDbEntity
  8
FoilLayer
100
AcDbLine
 10
-44.4123151011666
 20
75.04365587769529
 30
0.0
 11
-50.719029945100345
 21
74.41572660328951
 31
0.0
  0
LINE
  5
8C
330
17
100
AcDbEntity
  8
FoilLayer
100
AcDbLine
 10
-50.719029945100345
 20
74.41572660328951
 30
0.0
 11
-56.966233079876076
 21
73.71592438446511
 31
0.0
  0
LINE
  5
8D
330
17
100
AcDbEntity
  8
FoilLayer
100
AcDbLine
 10
-56.966233079876076
 20
73.71592438446511
 30
0.0
 11
-63.141286489490085
 21
72.96439006933085
 31
0.0
  0
LINE
  5
8E
330
17
100
AcDbEntity
  8
FoilLayer
100
AcDbLine
 10
-63.141286489490085
 20
72.96439006933085
 30
0.0
 11
-69.2379099539838
 21
72.16111266752985
 31
0.0
  0
LINE
  5
8F
330
17
100
AcDbEntity
  8
FoilLayer
100
AcDbLine
 10
-69.2379099539838
 20
72.16111266752985
 30
0.0
 11
-75.25756280965203
 21
71.30588402949958
 31
0.0
  0
LINE
  5
90
330
17
100
AcDbEntity
  8
FoilLayer
100
AcDbLine
 10
-75.25756280965203
 20
71.30588402949958
 30
0.0
 11
-81.1810899791875
 21
70.40617698777899
 31
0.0
  0
LINE
  5
91
330
17
100
AcDbEntity
  8
FoilLayer
100
AcDbLine
 10
-81.1810899791875
 20
70.40617698777899
 30
0.0
 11
-87.00721177149964
 21
69.44825448650512
 31
0.0
  0
LINE
  5
92
330
17
100
AcDbEntity
  8
FoilLayer
100
AcDbLine
 10
-87.00721177149964
 20
69.44825448650512
 30
0.0
 11
-92.75044809106228
 21
68.43182726495297
 31
0.0
  0
LINE
  5
93
330
17
100
AcDbEntity
  8
FoilLayer
100
AcDbLine
 10
-92.75044809106228
 20
68.43182726495297
 30
0.0
 11
-98.40777355756958
 21
67.3639468753168
 31
0.0
  0
LINE
  5
94
330
17
100
AcDbEntity
  8
FoilLayer
100
AcDbLine
 10
-98.40777355756958
 20
67.3639468753168
 30
0.0
 11
-103.9691478705961
 21
66.24403511094638
 31
0.0
  0
LINE
  5
95
330
17
100
AcDbEntity
  8
FoilLayer
100
AcDbLine
 10
-103.9691478705961
 20
66.24403511094638
 30
0.0
 11
-109.43411977398092
 21
65.07864008728733
 31
0.0
  0
LINE
  5
96
330
17
100
AcDbEntity
  8
FoilLayer
100
AcDbLine
 10
-109.43411977398092
 20
65.07864008728733
 30
0.0
 11
-114.79106686095281
 21
63.87543954360224
 31
0.0
  0
LINE
  5
97
330
17
100
AcDbEntity
  8
FoilLayer
100
AcDbLine
 10
-114.79106686095281
 20
63.87543954360224
 30
0.0
 11
-120.02726476108836
 21
62.6280308684308
 31
0.0
  0
LINE
  5
98
330
17
100
AcDbEntity
  8
FoilLayer
100
AcDbLine
 10
-120.02726476108836
 20
62.6280308684308
 30
0.0
 11
-125.16687640919889
 21
61.322333725910745
 31
0.0
  0
LINE
  5
99
330
17
100
AcDbEntity
  8
FoilLayer
100
AcDbLine
 10
-125.16687640919889
 20
61.322333725910745
 30
0.0
 11
-130.2039866481688
 21
59.964644177438366
 31
0.0
  0
LINE
  5
9A
330
17
100
AcDbEntity
  8
FoilLayer
100
AcDbLine
 10
-130.2039866481688
 20
59.964644177438366
 30
0.0
 11
-135.1419562863449
 21
58.560399956968396
 31
0.0
  0
LINE
  5
9B
330
17
100
AcDbEntity
  8
FoilLayer
100
AcDbLine
 10
-135.1419562863449
 20
58.560399956968396
 30
0.0
 11
-139.95564751874167
 21
57.132684847315076
 31
0.0
  0
LINE
  5
9C
330
17
100
AcDbEntity
  8
FoilLayer
100
AcDbLine
 10
-139.95564751874167
 20
57.132684847315076
 30
0.0
 11
-144.65870619002578
 21
55.65999339443007
 31
0.0
  0
LINE
  5
9D
330
17
100
AcDbEntity
  8
FoilLayer
100
AcDbLine
 10
-144.65870619002578
 20
55.65999339443007
 30
0.0
 11
-149.23882539078468
 21
54.1485989029906
 31
0.0
  0
LINE
  5
9E
330
17
100
AcDbEntity
  8
FoilLayer
100
AcDbLine
 10
-149.23882539078468
 20
54.1485989029906
 30
0.0
 11
-153.70568409577294
 21
52.599691024594776
 31
0.0
  0
LINE
  5
9F
330
17
100
AcDbEntity
  8
FoilLayer
100
AcDbLine
 10
-153.70568409577294
 20
52.599691024594776
 30
0.0
 11
-158.05222469804292
 21
51.011150376800586
 31
0.0
  0
LINE
  5
A0
330
17
100
AcDbEntity
  8
FoilLayer
100
AcDbLine
 10
-158.05222469804292
 20
51.011150376800586
 30
0.0
 11
-162.28778204734368
 21
49.39078513600883
 31
0.0
  0
LINE
  5
A1
330
17
100
AcDbEntity
  8
FoilLayer
100
AcDbLine
 10
-162.28778204734368
 20
49.39078513600883
 30
0.0
 11
-166.39758089131882
 21
47.74587413085769
 31
0.0
  0
LINE
  5
A2
330
17
100
AcDbEntity
  8
FoilLayer
100
AcDbLine
 10
-166.39758089131882
 20
47.74587413085769
 30
0.0
 11
-170.37601139873544
 21
46.07616895900789
 31
0.0
  0
LINE
  5
A3
330
17
100
AcDbEntity
  8
FoilLayer
100
AcDbLine
 10
-170.37601139873544
 20
46.07616895900789
 30
0.0
 11
-174.22042719213587
 21
44.38299664237304
 31
0.0
  0
LINE
  5
A4
330
17
100
AcDbEntity
  8
FoilLayer
100
AcDbLine
 10
-174.22042719213587
 20
44.38299664237304
 30
0.0
 11
-177.93980601924068
 21
42.65578112533568
 31
0.0
  0
LINE
  5
A5
330
17
100
AcDbEntity
  8
FoilLayer
100
AcDbLine
 10
-177.93980601924068
 20
42.65578112533568
 30
0.0
 11
-181.53170753604672
 21
40.91175705901966
 31
0.0
  0
LINE
  5
A6
330
17
100
AcDbEntity
  8
FoilLayer
100
AcDbLine
 10
-181.53170753604672
 20
40.91175705901966
 30
0.0
 11
-185.00378437186626
 21
39.14064413034037
 31
0.0
  0
LINE
  5
A7
330
17
100
AcDbEntity
  8
FoilLayer
100
AcDbLine
 10
-185.00378437186626
 20
39.14064413034037
 30
0.0
 11
-188.33233163493185
 21
37.367679502239
 31
0.0
  0
LINE
  5
A8
330
17
100
AcDbEntity
  8
FoilLayer
100
AcDbLine
 10
-188.33233163493185
 20
37.367679502239
 30
0.0
 11
-191.52902185627218
 21
35.57359755314532
 31
0.0
  0
LINE
  5
A9
330
17
100
AcDbEntity
  8
FoilLayer
100
AcDbLine
 10
-191.52902185627218
 20
35.57359755314532
 30
0.0
 11
-194.57156300040225
 21
33.7873089742584
 31
0.0
  0
LINE
  5
AA
330
17
100
AcDbEntity
  8
FoilLayer
100
AcDbLine
 10
-194.57156300040225
 20
33.7873089742584
 30
0.0
 11
-197.47927104186937
 21
31.975577375917396
 31
0.0
  0
LINE
  5
AB
330
17
100
AcDbEntity
  8
FoilLayer
100
AcDbLine
 10
-197.47927104186937
 20
31.975577375917396
 30
0.0
 11
-200.24740342971626
 21
30.150076196149293
 31
0.0
  0
LINE
  5
AC
330
17
100
AcDbEntity
  8
FoilLayer
100
AcDbLine
 10
-200.24740342971626
 20
30.150076196149293
 30
0.0
 11
-202.89450444217425
 21
28.31120983066718
 31
0.0
  0
LINE
  5
AD
330
17
100
AcDbEntity
  8
FoilLayer
100
AcDbLine
 10
-202.89450444217425
 20
28.31120983066718
 30
0.0
 11
-205.39884492356703
 21
26.48498906213289
 31
0.0
  0
LINE
  5
AE
330
17
100
AcDbEntity
  8
FoilLayer
100
AcDbLine
 10
-205.39884492356703
 20
26.48498906213289
 30
0.0
 11
-207.7532271460597
 21
24.66757060528529
 31
0.0
  0
LINE
  5
AF
330
17
100
AcDbEntity
  8
FoilLayer
100
AcDbLine
 10
-207.7532271460597
 20
24.66757060528529
 30
0.0
 11
-209.9545709532582
 21
22.867528240816068
 31
0.0
  0
LINE
  5
B0
330
17
100
AcDbEntity
  8
FoilLayer
100
AcDbLine
 10
-209.9545709532582
 20
22.867528240816068
 30
0.0
 11
-212.0088951987172
 21
21.062115020323432
 31
0.0
  0
LINE
  5
B1
330
17
100
AcDbEntity
  8
FoilLayer
100
AcDbLine
 10
-212.0088951987172
 20
21.062115020323432
 30
0.0
 11
-213.92541575897854
 21
19.254930162240633
 31
0.0
  0
LINE
  5
B2
330
17
100
AcDbEntity
  8
FoilLayer
100
AcDbLine
 10
-213.92541575897854
 20
19.254930162240633
 30
0.0
 11
-215.7005804242718
 21
17.469091728490135
 31
0.0
  0
LINE
  5
B3
330
17
100
AcDbEntity
  8
FoilLayer
100
AcDbLine
 10
-215.7005804242718
 20
17.469091728490135
 30
0.0
 11
-217.33777479083528
 21
15.694624116477955
 31
0.0
  0
LINE
  5
B4
330
17
100
AcDbEntity
  8
FoilLayer
100
AcDbLine
 10
-217.33777479083528
 20
15.694624116477955
 30
0.0
 11
-218.82835364288397
 21
13.962827517230355
 31
0.0
  0
LINE
  5
B5
330
17
100
AcDbEntity
  8
FoilLayer
100
AcDbLine
 10
-218.82835364288397
 20
13.962827517230355
 30
0.0
 11
-220.17350325458042
 21
12.251631823235023
 31
0.0
  0
LINE
  5
B6
330
17
100
AcDbEntity
  8
FoilLayer
100
AcDbLine
 10
-220.17350325458042
 20
12.251631823235023
 30
0.0
 11
-221.36480163746802
 21
10.593158411612793
 31
0.0
  0
LINE
  5
B7
330
17
100
AcDbEntity
  8
FoilLayer
100
AcDbLine
 10
-221.36480163746802
 20
10.593158411612793
 30
0.0
 11
-222.40203227385695
 21
8.985550494063272
 31
0.0
  0
LINE
  5
B8
330
17
100
AcDbEntity
  8
FoilLayer
100
AcDbLine
 10
-222.40203227385695
 20
8.985550494063272
 30
0.0
 11
-223.29746061948225
 21
7.397758183782347
 31
0.0
  0
LINE
  5
B9
330
17
100
AcDbEntity
  8
FoilLayer
100
AcDbLine
 10
-223.29746061948225
 20
7.397758183782347
 30
0.0
 11
-224.01607795582214
 21
5.94132497756008
 31
0.0
  0
LINE
  5
BA
330
17
100
AcDbEntity
  8
FoilLayer
100
AcDbLine
 10
-224.01607795582214
 20
5.94132497756008
 30
0.0
 11
-224.6337642988836
 21
4.348005538500868
 31
0.0
  0
LINE
  5
BB
330
17
100
AcDbEntity
  8
FoilLayer
100
AcDbLine
 10
-224.6337642988836
 20
4.348005538500868
 30
0.0
 11
-225.0487433838997
 21
3.2025066778290974
 31
0.0
  0
LINE
  5
BC
330
17
100
AcDbEntity
  8
FoilLayer
100
AcDbLine
 10
-225.0487433838997
 20
3.2025066778290974
 30
0.0
 11
-225.34653836509173
 21
1.7080801516552762
 31
0.0
  0
LINE
  5
BD
330
17
100
AcDbEntity
  8
FoilLayer
100
AcDbLine
 10
-225.34653836509173
 20
1.7080801516552762
 30
0.0
 11
-225.49999999999977
 21
0.1950058501755051
 31
0.0
  0
LINE
  5
BE
330
17
100
AcDbEntity
  8
FoilLayer
100
AcDbLine
 10
-225.49999999999977
 20
0.1950058501755051
 30
0.0
 11
-225.50714728553163
 21
-0.11776459053168101
 31
0.0
  0
LINE
  5
BF
330
17
100
AcDbEntity
  8
FoilLayer
100
AcDbLine
 10
-225.50714728553163
 20
-0.11776459053168101
 30
0.0
 11
-225.3896283941802
 21
-1.4498051644763792
 31
0.0
  0
LINE
  5
C0
330
17
100
AcDbEntity
  8
FoilLayer
100
AcDbLine
 10
-225.3896283941802
 20
-1.4498051644763792
 30
0.0
 11
-225.10465304401018
 21
-2.398631303618829
 31
0.0
  0
LINE
  5
C1
330
17
100
AcDbEntity
  8
FoilLayer
100
AcDbLine
 10
-225.10465304401018
 20
-2.398631303618829
 30
0.0
 11
-224.6715555343347
 21
-3.319345169384313
 31
0.0
  0
LINE
  5
C2
330
17
100
AcDbEntity
  8
FoilLayer
100
AcDbLine
 10
-224.6715555343347
 20
-3.319345169384313
 30
0.0
 11
-224.03110840298532
 21
-4.2592087730625
 31
0.0
  0
LINE
  5
C3
330
17
100
AcDbEntity
  8
FoilLayer
100
AcDbLine
 10
-224.03110840298532
 20
-4.2592087730625
 30
0.0
 11
-223.23475896061888
 21
-5.172983116907242
 31
0.0
  0
LINE
  5
C4
330
17
100
AcDbEntity
  8
FoilLayer
100
AcDbLine
 10
-223.23475896061888
 20
-5.172983116907242
 30
0.0
 11
-222.24590299497277
 21
-6.0644093243117325
 31
0.0
  0
LINE
  5
C5
330
17
100
AcDbEntity
  8
FoilLayer
100
AcDbLine
 10
-222.24590299497277
 20
-6.0644093243117325
 30
0.0
 11
-221.08024011635678
 21
-6.912399428426632
 31
0.0
  0
LINE
  5
C6
330
17
100
AcDbEntity
  8
FoilLayer
100
AcDbLine
 10
-221.08024011635678
 20
-6.912399428426632
 30
0.0
 11
-219.69902041377387
 21
-7.716919598261008
 31
0.0
  0
LINE
  5
C7
330
17
100
AcDbEntity
  8
FoilLayer
100
AcDbLine
 10
-219.69902041377387
 20
-7.716919598261008
 30
0.0
 11
-218.05012007993878
 21
-8.490095093533863
 31
0.0
  0
LINE
  5
C8
330
17
100
AcDbEntity
  8
FoilLayer
100
AcDbLine
 10
-218.05012007993878
 20
-8.490095093533863
 30
0.0
 11
-216.15423400382852
 21
-9.246678395776453
 31
0.0
  0
LINE
  5
C9
330
17
100
AcDbEntity
  8
FoilLayer
100
AcDbLine
 10
-216.15423400382852
 20
-9.246678395776453
 30
0.0
 11
-214.03866101418834
 21
-9.986679352570155
 31
0.0
  0
LINE
  5
CA
330
17
100
AcDbEntity
  8
FoilLayer
100
AcDbLine
 10
-214.03866101418834
 20
-9.986679352570155
 30
0.0
 11
-211.77421838704538
 21
-10.69740901666954
 31
0.0
  0
LINE
  5
CB
330
17
100
AcDbEntity
  8
FoilLayer
100
AcDbLine
 10
-211.77421838704538
 20
-10.69740901666954
 30
0.0
 11
-209.31666242459755
 21
-11.354405749214179
 31
0.0
  0
LINE
  5
CC
330
17
100
AcDbEntity
  8
FoilLayer
100
AcDbLine
 10
-209.31666242459755
 20
-11.354405749214179
 30
0.0
 11
-206.6470453677469
 21
-11.95409646998854
 31
0.0
  0
LINE
  5
CD
330
17
100
AcDbEntity
  8
FoilLayer
100
AcDbLine
 10
-206.6470453677469
 20
-11.95409646998854
 30
0.0
 11
-203.76173303581226
 21
-12.518752143317592
 31
0.0
  0
LINE
  5
CE
330
17
100
AcDbEntity
  8
FoilLayer
100
AcDbLine
 10
-203.76173303581226
 20
-12.518752143317592
 30
0.0
 11
-200.6712829536873
 21
-13.058797107766656
 31
0.0
  0
LINE
  5
CF
330
17
100
AcDbEntity
  8
FoilLayer
100
AcDbLine
 10
-200.6712829536873
 20
-13.058797107766656
 30
0.0
 11
-197.4236571309805
 21
-13.56543169857475
 31
0.0
  0
LINE
  5
D0
330
17
100
AcDbEntity
  8
FoilLayer
100
AcDbLine
 10
-197.4236571309805
 20
-13.56543169857475
 30
0.0
 11
-193.99668707348383
 21
-14.015158151789967
 31
0.0
  0
LINE
  5
D1
330
17
100
AcDbEntity
  8
FoilLayer
100
AcDbLine
 10
-193.99668707348383
 20
-14.015158151789967
 30
0.0
 11
-190.3780174533982
 21
-14.408233140607157
 31
0.0
  0
LINE
  5
D2
330
17
100
AcDbEntity
  8
FoilLayer
100
AcDbLine
 10
-190.3780174533982
 20
-14.408233140607157
 30
0.0
 11
-186.5445213782005
 21
-14.757433266100339
 31
0.0
  0
LINE
  5
D3
330
17
100
AcDbEntity
  8
FoilLayer
100
AcDbLine
 10
-186.5445213782005
 20
-14.757433266100339
 30
0.0
 11
-182.520035921434
 21
-15.081032561380686
 31
0.0
  0
LINE
  5
D4
330
17
100
AcDbEntity
  8
FoilLayer
100
AcDbLine
 10
-182.520035921434
 20
-15.081032561380686
 30
0.0
 11
-178.33365203984184
 21
-15.37838091015064
 31
0.0
  0
LINE
  5
D5
330
17
100
AcDbEntity
  8
FoilLayer
100
AcDbLine
 10
-178.33365203984184
 20
-15.37838091015064
 30
0.0
 11
-173.99837451189654
 21
-15.630252800589561
 31
0.0
  0
LINE
  5
D6
330
17
100
AcDbEntity
  8
FoilLayer
100
AcDbLine
 10
-173.99837451189654
 20
-15.630252800589561
 30
0.0
 11
-169.48359959259452
 21
-15.81795468424574
 31
0.0
  0
LINE
  5
D7
330
17
100
AcDbEntity
  8
FoilLayer
100
AcDbLine
 10
-169.48359959259452
 20
-15.81795468424574
 30
0.0
 11
-164.7892453541453
 21
-15.960487753117246
 31
0.0
  0
LINE
  5
D8
330
17
100
AcDbEntity
  8
FoilLayer
100
AcDbLine
 10
-164.7892453541453
 20
-15.960487753117246
 30
0.0
 11
-159.89316764588756
 21
-16.064279173464936
 31
0.0
  0
LINE
  5
D9
330
17
100
AcDbEntity
  8
FoilLayer
100
AcDbLine
 10
-159.89316764588756
 20
-16.064279173464936
 30
0.0
 11
-154.84786775219496
 21
-16.142083031363434
 31
0.0
  0
LINE
  5
DA
330
17
100
AcDbEntity
  8
FoilLayer
100
AcDbLine
 10
-154.84786775219496
 20
-16.142083031363434
 30
0.0
 11
-149.64792809303748
 21
-16.174558427363717
 31
0.0
  0
LINE
  5
DB
330
17
100
AcDbEntity
  8
FoilLayer
100
AcDbLine
 10
-149.64792809303748
 20
-16.174558427363717
 30
0.0
 11
-144.29729232369306
 21
-16.155210928684763
 31
0.0
  0
LINE
  5
DC
330
17
100
AcDbEntity
  8
FoilLayer
100
AcDbLine
 10
-144.29729232369306
 20
-16.155210928684763
 30
0.0
 11
-138.7631944335094
 21
-16.08387300286799
 31
0.0
  0
LINE
  5
DD
330
17
100
AcDbEntity
  8
FoilLayer
100
AcDbLine
 10
-138.7631944335094
 20
-16.08387300286799
 30
0.0
 11
-133.04864489675327
 21
-15.979980008454366
 31
0.0
  0
LINE
  5
DE
330
17
100
AcDbEntity
  8
FoilLayer
100
AcDbLine
 10
-133.04864489675327
 20
-15.979980008454366
 30
0.0
 11
-127.17586315709106
 21
-15.856708533567698
 31
0.0
  0
LINE
  5
DF
330
17
100
AcDbEntity
  8
FoilLayer
100
AcDbLine
 10
-127.17586315709106
 20
-15.856708533567698
 30
0.0
 11
-121.17885162592054
 21
-15.701171850207844
 31
0.0
  0
LINE
  5
E0
330
17
100
AcDbEntity
  8
FoilLayer
100
AcDbLine
 10
-121.17885162592054
 20
-15.701171850207844
 30
0.0
 11
-115.0339141327051
 21
-15.493557697404656
 31
0.0
  0
LINE
  5
E1
330
17
100
AcDbEntity
  8
FoilLayer
100
AcDbLine
 10
-115.0339141327051
 20
-15.493557697404656
 30
0.0
 11
-108.73879037855578
 21
-15.246969993467088
 31
0.0
  0
LINE
  5
E2
330
17
100
AcDbEntity
  8
FoilLayer
100
AcDbLine
 10
-108.73879037855578
 20
-15.246969993467088
 30
0.0
 11
-102.27106287987664
 21
-14.960959933504792
 31
0.0
  0
LINE
  5
E3
330
17
100
AcDbEntity
  8
FoilLayer
100
AcDbLine
 10
-102.27106287987664
 20
-14.960959933504792
 30
0.0
 11
-95.66003093480506
 21
-14.668733283188098
 31
0.0
  0
LINE
  5
E4
330
17
100
AcDbEntity
  8
FoilLayer
100
AcDbLine
 10
-95.66003093480506
 20
-14.668733283188098
 30
0.0
 11
-88.93367251621154
 21
-14.350610144454794
 31
0.0
  0
LINE
  5
E5
330
17
100
AcDbEntity
  8
FoilLayer
100
AcDbLine
 10
-88.93367251621154
 20
-14.350610144454794
 30
0.0
 11
-82.09344050580506
 21
-14.000192057045146
 31
0.0
  0
LINE
  5
E6
330
17
100
AcDbEntity
  8
FoilLayer
100
AcDbLine
 10
-82.09344050580506
 20
-14.000192057045146
 30
0.0
 11
-75.11264494776421
 21
-13.604084506415207
 31
0.0
  0
LINE
  5
E7
330
17
100
AcDbEntity
  8
FoilLayer
100
AcDbLine
 10
-75.11264494776421
 20
-13.604084506415207
 30
0.0
 11
-67.98617897832551
 21
-13.174937283223038
 31
0.0
  0
LINE
  5
E8
330
17
100
AcDbEntity
  8
FoilLayer
100
AcDbLine
 10
-67.98617897832551
 20
-13.174937283223038
 30
0.0
 11
-65.11796792845993
 21
-13.005463756552375
 31
0.0
  0
LINE
  5
E9
330
17
100
AcDbEntity
  8
FoilLayer
100
AcDbLine
 10
-65.11796792845993
 20
-13.005463756552375
 30
0.0
 11
-65.02654278390341
 21
-14.55276509854844
 31
0.0
  0
LINE
  5
EA
330
17
100
AcDbEntity
  8
FoilLayer
100
AcDbLine
 10
-65.02654278390341
 20
-14.55276509854844
 30
0.0
 11
-60.63447638685679
 21
-14.293251991800256
 31
0.0
  0
LINE
  5
EB
330
17
100
AcDbEntity
  8
FoilLayer
100
AcDbLine
 10
-60.63447638685679
 20
-14.293251991800256
 30
0.0
 11
-53.27746459161227
 21
-13.851312986948454
 31
0.0
  0
LINE
  5
EC
330
17
100
AcDbEntity
  8
FoilLayer
100
AcDbLine
 10
-53.27746459161227
 20
-13.851312986948454
 30
0.0
 11
-45.824019944878955
 21
-13.383447813601542
 31
0.0
  0
LINE
  5
ED
330
17
100
AcDbEntity
  8
FoilLayer
100
AcDbLine
 10
-45.824019944878955
 20
-13.383447813601542
 30
0.0
 11
-38.2580872296202
 21
-12.869952477064762
 31
0.0
  0
LINE
  5
EE
330
17
100
AcDbEntity
  8
FoilLayer
100
AcDbLine
 10
-38.2580872296202
 20
-12.869952477064762
 30
0.0
 11
-30.57442252141152
 21
-12.343407136946116
 31
0.0
  0
LINE
  5
EF
330
17
100
AcDbEntity
  8
FoilLayer
100
AcDbLine
 10
-30.57442252141152
 20
-12.343407136946116
 30
0.0
 11
-22.779995985869448
 21
-11.816845080419094
 31
0.0
  0
LINE
  5
F0
330
17
100
AcDbEntity
  8
FoilLayer
100
AcDbLine
 10
-22.779995985869448
 20
-11.816845080419094
 30
0.0
 11
-14.903321450910994
 21
-11.296935298513716
 31
0.0
  0
LINE
  5
F1
330
17
100
AcDbEntity
  8
FoilLayer
100
AcDbLine
 10
-14.903321450910994
 20
-11.296935298513716
 30
0.0
 11
-6.954340610118294
 21
-10.744472023235186
 31
0.0
  0
LINE
  5
F2
330
17
100
AcDbEntity
  8
FoilLayer
100
AcDbLine
 10
-6.954340610118294
 20
-10.744472023235186
 30
0.0
 11
1.0798992604510147
 21
-10.172454945073172
 31
0.0
  0
LINE
  5
F3
330
17
100
AcDbEntity
  8
FoilLayer
100
AcDbLine
 10
1.0798992604510147
 20
-10.172454945073172
 30
0.0
 11
9.205445396860512
 21
-9.593916162521607
 31
0.0
  0
LINE
  5
F4
330
17
100
AcDbEntity
  8
FoilLayer
100
AcDbLine
 10
9.205445396860512
 20
-9.593916162521607
 30
0.0
 11
17.409641648455647
 21
-9.0153328097413
 31
0.0
  0
LINE
  5
F5
330
17
100
AcDbEntity
  8
FoilLayer
100
AcDbLine
 10
17.409641648455647
 20
-9.0153328097413
 30
0.0
 11
25.67733394504475
 21
-8.449854201109977
 31
0.0
  0
LINE
  5
F6
330
17
100
AcDbEntity
  8
FoilLayer
100
AcDbLine
 10
25.67733394504475
 20
-8.449854201109977
 30
0.0
 11
33.98375951768679
 21
-7.871394963622386
 31
0.0
  0
LINE
  5
F7
330
17
100
AcDbEntity
  8
FoilLayer
100
AcDbLine
 10
33.98375951768679
 20
-7.871394963622386
 30
0.0
 11
42.34975663328407
 21
-7.273359495607605
 31
0.0
  0
LINE
  5
F8
330
17
100
AcDbEntity
  8
FoilLayer
100
AcDbLine
 10
42.34975663328407
 20
-7.273359495607605
 30
0.0
 11
50.78138842942781
 21
-6.675280078609473
 31
0.0
  0
LINE
  5
F9
330
17
100
AcDbEntity
  8
FoilLayer
100
AcDbLine
 10
50.78138842942781
 20
-6.675280078609473
 30
0.0
 11
59.26491988294464
 21
-6.090209619355217
 31
0.0
  0
LINE
  5
FA
330
17
100
AcDbEntity
  8
FoilLayer
100
AcDbLine
 10
59.26491988294464
 20
-6.090209619355217
 30
0.0
 11
67.77340319429442
 21
-5.518210824017373
 31
0.0
  0
LINE
  5
FB
330
17
100
AcDbEntity
  8
FoilLayer
100
AcDbLine
 10
67.77340319429442
 20
-5.518210824017373
 30
0.0
 11
76.30138836485338
 21
-4.939711911950596
 31
0.0
  0
LINE
  5
FC
330
17
100
AcDbEntity
  8
FoilLayer
100
AcDbLine
 10
76.30138836485338
 20
-4.939711911950596
 30
0.0
 11
84.84930674232697
 21
-4.354683307095315
 31
0.0
  0
LINE
  5
FD
330
17
100
AcDbEntity
  8
FoilLayer
100
AcDbLine
 10
84.84930674232697
 20
-4.354683307095315
 30
0.0
 11
93.44364551189062
 21
-3.769593472603105
 31
0.0
  0
LINE
  5
FE
330
17
100
AcDbEntity
  8
FoilLayer
100
AcDbLine
 10
93.44364551189062
 20
-3.769593472603105
 30
0.0
 11
102.05773287503803
 21
-3.2039912204968126
 31
0.0
  0
LINE
  5
FF
330
17
100
AcDbEntity
  8
FoilLayer
100
AcDbLine
 10
102.05773287503803
 20
-3.2039912204968126
 30
0.0
 11
110.66394863584674
 21
-2.664477696717792
 31
0.0
  0
LINE
  5
100
330
17
100
AcDbEntity
  8
FoilLayer
100
AcDbLine
 10
110.66394863584674
 20
-2.664477696717792
 30
0.0
 11
119.25650798183068
 21
-2.1250059078904298
 31
0.0
  0
LINE
  5
101
330
17
100
AcDbEntity
  8
FoilLayer
100
AcDbLine
 10
119.25650798183068
 20
-2.1250059078904298
 30
0.0
 11
127.84396403630876
 21
-1.572444935734964
 31
0.0
  0
LINE
  5
102
330
17
100
AcDbEntity
  8
FoilLayer
100
AcDbLine
 10
127.84396403630876
 20
-1.572444935734964
 30
0.0
 11
136.4385352480537
 21
-1.0328482170331186
 31
0.0
  0
LINE
  5
103
330
17
100
AcDbEntity
  8
FoilLayer
100
AcDbLine
 10
136.4385352480537
 20
-1.0328482170331186
 30
0.0
 11
145.0193716174685
 21
-0.5192985360058193
 31
0.0
  0
LINE
  5
104
330
17
100
AcDbEntity
  8
FoilLayer
100
AcDbLine
 10
145.0193716174685
 20
-0.5192985360058193
 30
0.0
 11
153.5673101351142
 21
-0.01877289557429579
 31
0.0
  0
LINE
  5
105
330
17
100
AcDbEntity
  8
FoilLayer
100
AcDbLine
 10
153.5673101351142
 20
-0.01877289557429579
 30
0.0
 11
162.06264150797466
 21
0.4752170987194232
 31
0.0
  0
LINE
  5
106
330
17
100
AcDbEntity
  8
FoilLayer
100
AcDbLine
 10
162.06264150797466
 20
0.4752170987194232
 30
0.0
 11
170.5330034411823
 21
0.9757676215010684
 31
0.0
  0
LINE
  5
107
330
17
100
AcDbEntity
  8
FoilLayer
100
AcDbLine
 10
170.5330034411823
 20
0.9757676215010684
 30
0.0
 11
178.978022273117
 21
1.4633535257697634
 31
0.0
  0
LINE
  5
108
330
17
100
AcDbEntity
  8
FoilLayer
100
AcDbLine
 10
178.978022273117
 20
1.4633535257697634
 30
0.0
 11
187.38361177527236
 21
1.9249125689615456
 31
0.0
  0
LINE
  5
109
330
17
100
AcDbEntity
  8
FoilLayer
100
AcDbLine
 10
187.38361177527236
 20
1.9249125689615456
 30
0.0
 11
195.71667491911438
 21
2.3669158792865725
 31
0.0
  0
LINE
  5
10A
330
17
100
AcDbEntity
  8
FoilLayer
100
AcDbLine
 10
195.71667491911438
 20
2.3669158792865725
 30
0.0
 11
203.98441691405526
 21
2.808901800781918
 31
0.0
  0
LINE
  5
10B
330
17
100
AcDbEntity
  8
FoilLayer
100
AcDbLine
 10
203.98441691405526
 20
2.808901800781918
 30
0.0
 11
212.20193466226408
 21
3.2574828491144214
 31
0.0
  0
LINE
  5
10C
330
17
100
AcDbEntity
  8
FoilLayer
100
AcDbLine
 10
212.20193466226408
 20
3.2574828491144214
 30
0.0
 11
220.36779242118678
 21
3.680076089756707
 31
0.0
  0
LINE
  5
10D
330
17
100
AcDbEntity
  8
FoilLayer
100
AcDbLine
 10
220.36779242118678
 20
3.680076089756707
 30
0.0
 11
228.46788210266607
 21
4.070127763115283
 31
0.0
  0
LINE
  5
10E
330
17
100
AcDbEntity
  8
FoilLayer
100
AcDbLine
 10
228.46788210266607
 20
4.070127763115283
 30
0.0
 11
236.47588381684932
 21
4.4406277789994855
 31
0.0
  0
LINE
  5
10F
330
17
100
AcDbEntity
  8
FoilLayer
100
AcDbLine
 10
236.47588381684932
 20
4.4406277789994855
 30
0.0
 11
244.39367329491978
 21
4.811164385412146
 31
0.0
  0
LINE
  5
110
330
17
100
AcDbEntity
  8
FoilLayer
100
AcDbLine
 10
244.39367329491978
 20
4.811164385412146
 30
0.0
 11
252.24108080437765
 21
5.16874819001451
 31
0.0
  0
LINE
  5
111
330
17
100
AcDbEntity
  8
FoilLayer
100
AcDbLine
 10
252.24108080437765
 20
5.16874819001451
 30
0.0
 11
260.0112384006726
 21
5.493852839102669
 31
0.0
  0
LINE
  5
112
330
17
100
AcDbEntity
  8
FoilLayer
100
AcDbLine
 10
260.0112384006726
 20
5.493852839102669
 30
0.0
 11
267.68316042469974
 21
5.773419692401002
 31
0.0
  0
LINE
  5
113
330
17
100
AcDbEntity
  8
FoilLayer
100
AcDbLine
 10
267.68316042469974
 20
5.773419692401002
 30
0.0
 11
275.2434288944937
 21
6.020444474947958
 31
0.0
  0
LINE
  5
114
330
17
100
AcDbEntity
  8
FoilLayer
100
AcDbLine
 10
275.2434288944937
 20
6.020444474947958
 30
0.0
 11
282.6814544020258
 21
6.2545046000842905
 31
0.0
  0
LINE
  5
115
330
17
100
AcDbEntity
  8
FoilLayer
100
AcDbLine
 10
282.6814544020258
 20
6.2545046000842905
 30
0.0
 11
290.0232120398024
 21
6.456083786854384
 31
0.0
  0
LINE
  5
116
330
17
100
AcDbEntity
  8
FoilLayer
100
AcDbLine
 10
290.0232120398024
 20
6.456083786854384
 30
0.0
 11
297.248044868153
 21
6.605641988273494
 31
0.0
  0
LINE
  5
117
330
17
100
AcDbEntity
  8
FoilLayer
100
AcDbLine
 10
297.248044868153
 20
6.605641988273494
 30
0.0
 11
304.32872585213715
 21
6.703167722304988
 31
0.0
  0
LINE
  5
118
330
17
100
AcDbEntity
  8
FoilLayer
100
AcDbLine
 10
304.32872585213715
 20
6.703167722304988
 30
0.0
 11
311.2461395104614
 21
6.768179391889765
 31
0.0
  0
LINE
  5
119
330
17
100
AcDbEntity
  8
FoilLayer
100
AcDbLine
 10
311.2461395104614
 20
6.768179391889765
 30
0.0
 11
318.02192449488643
 21
6.813690694464667
 31
0.0
  0
LINE
  5
11A
330
17
100
AcDbEntity
  8
FoilLayer
100
AcDbLine
 10
318.02192449488643
 20
6.813690694464667
 30
0.0
 11
324.65573032779446
 21
6.820179970063728
 31
0.0
  0
LINE
  5
11B
330
17
100
AcDbEntity
  8
FoilLayer
100
AcDbLine
 10
324.65573032779446
 20
6.820179970063728
 30
0.0
 11
331.12630769914267
 21
6.774649081625835
 31
0.0
  0
LINE
  5
11C
330
17
100
AcDbEntity
  8
FoilLayer
100
AcDbLine
 10
331.12630769914267
 20
6.774649081625835
 30
0.0
 11
337.4141101894139
 21
6.690113160914847
 31
0.0
  0
LINE
  5
11D
330
17
100
AcDbEntity
  8
FoilLayer
100
AcDbLine
 10
337.4141101894139
 20
6.690113160914847
 30
0.0
 11
343.5070117500343
 21
6.579564115873367
 31
0.0
  0
LINE
  5
11E
330
17
100
AcDbEntity
  8
FoilLayer
100
AcDbLine
 10
343.5070117500343
 20
6.579564115873367
 30
0.0
 11
349.4250669003883
 21
6.442984402346055
 31
0.0
  0
LINE
  5
11F
330
17
100
AcDbEntity
  8
FoilLayer
100
AcDbLine
 10
349.4250669003883
 20
6.442984402346055
 30
0.0
 11
355.1618886681364
 21
6.273856918506283
 31
0.0
  0
LINE
  5
120
330
17
100
AcDbEntity
  8
FoilLayer
100
AcDbLine
 10
355.1618886681364
 20
6.273856918506283
 30
0.0
 11
360.6969790322663
 21
6.065708849544815
 31
0.0
  0
LINE
  5
121
330
17
100
AcDbEntity
  8
FoilLayer
100
AcDbLine
 10
360.6969790322663
 20
6.065708849544815
 30
0.0
 11
366.01556277579823
 21
5.825134952165162
 31
0.0
  0
LINE
  5
122
330
17
100
AcDbEntity
  8
FoilLayer
100
AcDbLine
 10
366.01556277579823
 20
5.825134952165162
 30
0.0
 11
371.1214854089585
 21
5.577957346673042
 31
0.0
  0
LINE
  5
123
330
17
100
AcDbEntity
  8
FoilLayer
100
AcDbLine
 10
371.1214854089585
 20
5.577957346673042
 30
0.0
 11
376.0262567986791
 21
5.304732598945012
 31
0.0
  0
LINE
  5
124
330
17
100
AcDbEntity
  8
FoilLayer
100
AcDbLine
 10
376.0262567986791
 20
5.304732598945012
 30
0.0
 11
380.7183576194236
 21
5.005341908760298
 31
0.0
  0
LINE
  5
125
330
17
100
AcDbEntity
  8
FoilLayer
100
AcDbLine
 10
380.7183576194236
 20
5.005341908760298
 30
0.0
 11
385.16711829287715
 21
4.667124293290758
 31
0.0
  0
LINE
  5
126
330
17
100
AcDbEntity
  8
FoilLayer
100
AcDbLine
 10
385.16711829287715
 20
4.667124293290758
 30
0.0
 11
389.37502017286283
 21
4.322421724836816
 31
0.0
  0
LINE
  5
127
330
17
100
AcDbEntity
  8
FoilLayer
100
AcDbLine
 10
389.37502017286283
 20
4.322421724836816
 30
0.0
 11
393.335998363125
 21
3.9776997943278354
 31
0.0
  0
LINE
  5
128
330
17
100
AcDbEntity
  8
FoilLayer
100
AcDbLine
 10
393.335998363125
 20
3.9776997943278354
 30
0.0
 11
397.07084325450455
 21
3.6328290841423714
 31
0.0
  0
LINE
  5
129
330
17
100
AcDbEntity
  8
FoilLayer
100
AcDbLine
 10
397.07084325450455
 20
3.6328290841423714
 30
0.0
 11
400.5592387375099
 21
3.2813654646652304
 31
0.0
  0
LINE
  5
12A
330
17
100
AcDbEntity
  8
FoilLayer
100
AcDbLine
 10
400.5592387375099
 20
3.2813654646652304
 30
0.0
 11
403.79951596930414
 21
2.923492069200451
 31
0.0
  0
LINE
  5
12B
330
17
100
AcDbEntity
  8
FoilLayer
100
AcDbLine
 10
403.79951596930414
 20
2.923492069200451
 30
0.0
 11
406.7871311392721
 21
2.571989529930698
 31
0.0
  0
LINE
  5
12C
330
17
100
AcDbEntity
  8
FoilLayer
100
AcDbLine
 10
406.7871311392721
 20
2.571989529930698
 30
0.0
 11
409.50646520573287
 21
2.227187805692905
 31
0.0
  0
LINE
  5
12D
330
17
100
AcDbEntity
  8
FoilLayer
100
AcDbLine
 10
409.50646520573287
 20
2.227187805692905
 30
0.0
 11
411.97186553738766
 21
1.9019332965797329
 31
0.0
  0
LINE
  5
12E
330
17
100
AcDbEntity
  8
FoilLayer
100
AcDbLine
 10
411.97186553738766
 20
1.9019332965797329
 30
0.0
 11
414.1706397773098
 21
1.602688497069669
 31
0.0
  0
LINE
  5
12F
330
17
100
AcDbEntity
  8
FoilLayer
100
AcDbLine
 10
414.1706397773098
 20
1.602688497069669
 30
0.0
 11
416.12194635933076
 21
1.3295037929686098
 31
0.0
  0
LINE
  5
130
330
17
100
AcDbEntity
  8
FoilLayer
100
AcDbLine
 10
416.12194635933076
 20
1.3295037929686098
 30
0.0
 11
417.80634312810184
 21
1.0888748627049338
 31
0.0
  0
LINE
  5
131
330
17
100
AcDbEntity
  8
FoilLayer
100
AcDbLine
 10
417.80634312810184
 20
1.0888748627049338
 30
0.0
 11
419.2447928032167
 21
0.8805883875822726
 31
0.0
  0
LINE
  5
132
330
17
100
AcDbEntity
  8
FoilLayer
100
AcDbLine
 10
419.2447928032167
 20
0.8805883875822726
 30
0.0
 11
420.4233613808258
 21
0.7047750642010355
 31
0.0
  0
LINE
  5
133
330
17
100
AcDbEntity
  8
FoilLayer
100
AcDbLine
 10
420.4233613808258
 20
0.7047750642010355
 30
0.0
 11
421.35419902971773
 21
0.561567297006404
 31
0.0
  0
LINE
  5
134
330
17
100
AcDbEntity
  8
FoilLayer
100
AcDbLine
 10
421.35419902971773
 20
0.561567297006404
 30
0.0
 11
422.011123034643
 21
0.45847766218295616
 31
0.0
  0
LINE
  5
135
330
17
100
AcDbEntity
  8
FoilLayer
100
AcDbLine
 10
422.011123034643
 20
0.45847766218295616
 30
0.0
 11
422.43749415686364
 21
0.3972400945398755
 31
0.0
  0
LINE
  5
136
330
17
100
AcDbEntity
  8
FoilLayer
100
AcDbLine
 10
422.43749415686364
 20
0.3972400945398755
 30
0.0
 11
422.58049844699235
 21
0.37123931451647485
 31
0.0
  0
LINE
  5
137
330
17
100
AcDbEntity
  8
FoilLayer
100
AcDbLine
 10
422.58049844699235
 20
0.37123931451647485
 30
0.0
 11
422.35134230920687
 21
-0.39223528545266845
 31
0.0
  0
LINE
  5
138
330
17
100
AcDbEntity
  8
StringerLayer
100
AcDbLine
 10
224.15537735168755
 20
49.238776685540294
 30
0.0
 11
228.0449943166103
 21
48.30556724163973
 31
0.0
  0
LINE
  5
139
330
17
100
AcDbEntity
  8
StringerLayer
100
AcDbLine
 10
228.0449943166103
 20
48.30556724163973
 30
0.0
 11
228.9782037605109
 21
52.195184206562466
 31
0.0
  0
LINE
  5
13A
330
17
100
AcDbEntity
  8
StringerLayer
100
AcDbLine
 10
228.9782037605109
 20
52.195184206562466
 30
0.0
 11
225.08858679558813
 21
53.12839365046303
 31
0.0
  0
LINE
  5
13B
330
17
100
AcDbEntity
  8
StringerLayer
100
AcDbLine
 10
225.08858679558813
 20
53.12839365046303
 30
0.0
 11
224.15537735168755
 21
49.238776685540294
 31
0.0
  0
LINE
  5
13C
330
17
100
AcDbEntity
  8
StringerLayer
100
AcDbLine
 10
-66.1989865846551
 20
68.52688284646287
 30
0.0
 11
-62.23326988841188
 21
69.04946402210713
 31
0.0
  0
LINE
  5
13D
330
17
100
AcDbEntity
  8
StringerLayer
100
AcDbLine
 10
-62.23326988841188
 20
69.04946402210713
 30
0.0
 11
-62.75585106405616
 21
73.01518071835035
 31
0.0
  0
LINE
  5
13E
330
17
100
AcDbEntity
  8
StringerLayer
100
AcDbLine
 10
-62.75585106405616
 20
73.01518071835035
 30
0.0
 11
-66.72156776029938
 21
72.49259954270609
 31
0.0
  0
LINE
  5
13F
330
17
100
AcDbEntity
  8
StringerLayer
100
AcDbLine
 10
-66.72156776029938
 20
72.49259954270609
 30
0.0
 11
-66.1989865846551
 21
68.52688284646287
 31
0.0
  0
LINE
  5
140
330
17
100
AcDbEntity
  8
StringerLayer
100
AcDbLine
 10
-162.2237960654989
 20
45.1322136117736
 30
0.0
 11
-158.48792407391784
 21
46.56164023196789
 31
0.0
  0
LINE
  5
141
330
17
100
AcDbEntity
  8
StringerLayer
100
AcDbLine
 10
-158.48792407391784
 20
46.56164023196789
 30
0.0
 11
-159.91735069411214
 21
50.297512223548964
 31
0.0
  0
LINE
  5
142
330
17
100
AcDbEntity
  8
StringerLayer
100
AcDbLine
 10
-159.91735069411214
 20
50.297512223548964
 30
0.0
 11
-163.6532226856932
 21
48.86808560335467
 31
0.0
  0
LINE
  5
143
330
17
100
AcDbEntity
  8
StringerLayer
100
AcDbLine
 10
-163.6532226856932
 20
48.86808560335467
 30
0.0
 11
-162.2237960654989
 21
45.1322136117736
 31
0.0
  0
LINE
  5
144
330
17
100
AcDbEntity
  8
StringerLayer
100
AcDbLine
 10
-216.11029726567753
 20
9.327166087327738
 30
0.0
 11
-214.87566885923016
 21
10.900599498055149
 31
0.0
  0
LINE
  5
145
330
17
100
AcDbEntity
  8
StringerLayer
100
AcDbLine
 10
-214.87566885923016
 20
10.900599498055149
 30
0.0
 11
-218.80925238604868
 21
13.987170514173506
 31
0.0
  0
LINE
  5
146
330
17
100
AcDbEntity
  8
StringerLayer
100
AcDbLine
 10
-218.80925238604868
 20
13.987170514173506
 30
0.0
 11
-220.04388079249605
 21
12.413737103446095
 31
0.0
  0
LINE
  5
147
330
17
100
AcDbEntity
  8
StringerLayer
100
AcDbLine
 10
-220.04388079249605
 20
12.413737103446095
 30
0.0
 11
-216.11029726567753
 21
9.327166087327738
 31
0.0
  0
LINE
  5
148
330
17
100
AcDbEntity
  8
StringerLayer
100
AcDbLine
 10
-218.85685638187405
 20
-2.372684747226385
 30
0.0
 11
-220.35307334096908
 21
-1.0455318504897586
 31
0.0
  0
LINE
  5
149
330
17
100
AcDbEntity
  8
StringerLayer
100
AcDbLine
 10
-220.35307334096908
 20
-1.0455318504897586
 30
0.0
 11
-223.67095558281065
 21
-4.786074248227337
 31
0.0
  0
LINE
  5
14A
330
17
100
AcDbEntity
  8
StringerLayer
100
AcDbLine
 10
-223.67095558281065
 20
-4.786074248227337
 30
0.0
 11
-222.17473862371563
 21
-6.113227144963963
 31
0.0
  0
LINE
  5
14B
330
17
100
AcDbEntity
  8
StringerLayer
100
AcDbLine
 10
-222.17473862371563
 20
-6.113227144963963
 30
0.0
 11
-218.85685638187405
 21
-2.372684747226385
 31
0.0
  0
LINE
  5
14C
330
17
100
AcDbEntity
  8
StringerLayer
100
AcDbLine
 10
-95.76691833466128
 20
-10.669542499414424
 30
0.0
 11
-99.76301600880421
 21
-10.846187280569675
 31
0.0
  0
LINE
  5
14D
330
17
100
AcDbEntity
  8
StringerLayer
100
AcDbLine
 10
-99.76301600880421
 20
-10.846187280569675
 30
0.0
 11
-99.58637122764897
 21
-14.842284954712614
 31
0.0
  0
LINE
  5
14E
330
17
100
AcDbEntity
  8
StringerLayer
100
AcDbLine
 10
-99.58637122764897
 20
-14.842284954712614
 30
0.0
 11
-95.59027355350604
 21
-14.665640173557364
 31
0.0
  0
LINE
  5
14F
330
17
100
AcDbEntity
  8
StringerLayer
100
AcDbLine
 10
-95.59027355350604
 20
-14.665640173557364
 30
0.0
 11
-95.76691833466128
 21
-10.669542499414424
 31
0.0
  0
LINE
  5
150
330
17
100
AcDbEntity
  8
SubLayer
100
AcDbLine
 10
-227.49999999999977
 20
0.0
 30
0.0
 11
-223.49999999999977
 21
0.0
 31
0.0
  0
LINE
  5
151
330
17
100
AcDbEntity
  8
SubLayer
100
AcDbLine
 10
63.0
 20
0.0
 30
0.0
 11
73.5
 21
0.0
 31
0.0
  0
LINE
  5
152
330
17
100
AcDbEntity
  8
SubLayer
100
AcDbLine
 10
-48.72030281718087
 20
32.828477549705035
 30
0.0
 11
-40.72517620102811
 21
33.10767352332504
 31
0.0
  0
LINE
  5
153
330
17
100
AcDbEntity
  8
SubLayer
100
AcDbLine
 10
40.72517620102811
 20
35.95198250457887
 30
0.0
 11
48.72030281718087
 21
36.23117847819888
 31
0.0
  0
LINE
  5
154
330
17
100
AcDbEntity
  8
SubLayer
100
AcDbLine
 10
-1.3698052455731617
 20
73.75591797445142
 30
0.0
 11
-1.0906092719531542
 21
65.76079135829866
 31
0.0
  0
LINE
  5
155
330
17
100
AcDbEntity
  8
SubLayer
100
AcDbLine
 10
1.3698052455731617
 20
-4.696261946547516
 30
0.0
 11
1.0906092719531542
 21
3.2988646696052477
 31
0.0
  0
LINE
  5
156
330
17
100
AcDbEntity
  8
SubLayer
100
AcDbLine
 10
-46.65172216973768
 20
30.899494889071843
 30
0.0
 11
-42.6541588616613
 21
31.03909287588185
 31
0.0
  0
LINE
  5
157
330
17
100
AcDbEntity
  8
SubLayer
100
AcDbLine
 10
-42.6541588616613
 20
31.03909287588185
 30
0.0
 11
-42.793756848471304
 21
35.03665618395823
 31
0.0
  0
LINE
  5
158
330
17
100
AcDbEntity
  8
SubLayer
100
AcDbLine
 10
-42.793756848471304
 20
35.03665618395823
 30
0.0
 11
-46.791320156547684
 21
34.897058197148226
 31
0.0
  0
LINE
  5
159
330
17
100
AcDbEntity
  8
SubLayer
100
AcDbLine
 10
-46.791320156547684
 20
34.897058197148226
 30
0.0
 11
-46.65172216973768
 21
30.899494889071843
 31
0.0
  0
LINE
  5
15A
330
17
100
AcDbEntity
  8
SubLayer
100
AcDbLine
 10
42.793756848471304
 20
34.02299984394568
 30
0.0
 11
46.791320156547684
 21
34.162597830755686
 31
0.0
  0
LINE
  5
15B
330
17
100
AcDbEntity
  8
SubLayer
100
AcDbLine
 10
46.791320156547684
 20
34.162597830755686
 30
0.0
 11
46.65172216973768
 21
38.160161138832066
 31
0.0
  0
LINE
  5
15C
330
17
100
AcDbEntity
  8
SubLayer
100
AcDbLine
 10
46.65172216973768
 20
38.160161138832066
 30
0.0
 11
42.6541588616613
 21
38.02056315202206
 31
0.0
  0
LINE
  5
15D
330
17
100
AcDbEntity
  8
SubLayer
100
AcDbLine
 10
42.6541588616613
 20
38.02056315202206
 30
0.0
 11
42.793756848471304
 21
34.02299984394568
 31
0.0
  0
LINE
  5
15E
330
17
100
AcDbEntity
  8
SubLayer
100
AcDbLine
 10
-3.159189919396348
 20
67.68977401893184
 30
0.0
 11
0.8383733886800355
 21
67.82937200574185
 31
0.0
  0
LINE
  5
15F
330
17
100
AcDbEntity
  8
SubLayer
100
AcDbLine
 10
0.8383733886800355
 20
67.82937200574185
 30
0.0
 11
0.6987754018700316
 21
71.82693531381824
 31
0.0
  0
LINE
  5
160
330
17
100
AcDbEntity
  8
SubLayer
100
AcDbLine
 10
0.6987754018700316
 20
71.82693531381824
 30
0.0
 11
-3.2987879062063516
 21
71.68733732700824
 31
0.0
  0
LINE
  5
161
330
17
100
AcDbEntity
  8
SubLayer
100
AcDbLine
 10
-3.2987879062063516
 20
71.68733732700824
 30
0.0
 11
-3.159189919396348
 21
67.68977401893184
 31
0.0
  0
LINE
  5
162
330
17
100
AcDbEntity
  8
SubLayer
100
AcDbLine
 10
-0.6987754018700316
 20
-2.7672792859143276
 30
0.0
 11
3.2987879062063516
 21
-2.6276812991043235
 31
0.0
  0
LINE
  5
163
330
17
100
AcDbEntity
  8
SubLayer
100
AcDbLine
 10
3.2987879062063516
 20
-2.6276812991043235
 30
0.0
 11
3.159189919396348
 21
1.3698820089720596
 31
0.0
  0
LINE
  5
164
330
17
100
AcDbEntity
  8
SubLayer
100
AcDbLine
 10
3.159189919396348
 20
1.3698820089720596
 30
0.0
 11
-0.8383733886800355
 21
1.2302840221620557
 31
0.0
  0
LINE
  5
165
330
17
100
AcDbEntity
  8
SubLayer
100
AcDbLine
 10
-0.8383733886800355
 20
1.2302840221620557
 30
0.0
 11
-0.6987754018700316
 21
-2.7672792859143276
 31
0.0
  0
LINE
  5
166
330
17
100
AcDbEntity
  8
SubLayer
100
AcDbLine
 10
324.4476270978941
 20
27.767665576044855
 30
0.0
 11
328.44519040597044
 21
27.907263562854858
 31
0.0
  0
LINE
  5
167
330
17
100
AcDbEntity
  8
SubLayer
100
AcDbLine
 10
-224.5816203394511
 20
8.59514178205764
 30
0.0
 11
-220.5840570313747
 21
8.734739768867643
 31
0.0
  0
LINE
  5
168
330
17
100
AcDbEntity
  8
SubLayer
100
AcDbLine
 10
-115.77516167900116
 20
12.394747044152583
 30
0.0
 11
-109.7788167168866
 21
12.604144024367587
 31
0.0
  0
LINE
  5
169
330
17
100
AcDbEntity
  8
SubLayer
100
AcDbLine
 10
213.64238678340593
 20
23.89826132054491
 30
0.0
 11
219.6387317455205
 21
24.107658300759915
 31
0.0
  0
LINE
  5
16A
330
17
100
AcDbEntity
  8
SubLayer
100
AcDbLine
 10
48.9336125522024
 20
18.146504182348746
 30
0.0
 11
54.929957514316975
 21
18.35590116256375
 31
0.0
  0
LINE
  5
16B
330
17
100
AcDbEntity
  8
SubLayer
100
AcDbLine
 10
-110.70840855050068
 20
10.570462873626894
 30
0.0
 11
-110.84800653731068
 21
14.568026181703278
 31
0.0
  0
LINE
  5
16C
330
17
100
AcDbEntity
  8
SubLayer
100
AcDbLine
 10
-110.84800653731068
 20
14.568026181703278
 30
0.0
 11
-114.84556984538708
 21
14.428428194893275
 31
0.0
  0
LINE
  5
16D
330
17
100
AcDbEntity
  8
SubLayer
100
AcDbLine
 10
-114.84556984538708
 20
14.428428194893275
 30
0.0
 11
-114.70597185857707
 21
10.430864886816892
 31
0.0
  0
LINE
  5
16E
330
17
100
AcDbEntity
  8
SubLayer
100
AcDbLine
 10
-114.70597185857707
 20
10.430864886816892
 30
0.0
 11
-110.70840855050068
 21
10.570462873626894
 31
0.0
  0
LINE
  5
16F
330
17
100
AcDbEntity
  8
SubLayer
100
AcDbLine
 10
218.7091399119064
 20
22.073977150019225
 30
0.0
 11
218.5695419250964
 21
26.07154045809561
 31
0.0
  0
LINE
  5
170
330
17
100
AcDbEntity
  8
SubLayer
100
AcDbLine
 10
218.5695419250964
 20
26.07154045809561
 30
0.0
 11
214.57197861702002
 21
25.931942471285602
 31
0.0
  0
LINE
  5
171
330
17
100
AcDbEntity
  8
SubLayer
100
AcDbLine
 10
214.57197861702002
 20
25.931942471285602
 30
0.0
 11
214.71157660383003
 21
21.93437916320922
 31
0.0
  0
LINE
  5
172
330
17
100
AcDbEntity
  8
SubLayer
100
AcDbLine
 10
214.71157660383003
 20
21.93437916320922
 30
0.0
 11
218.7091399119064
 21
22.073977150019225
 31
0.0
  0
LINE
  5
173
330
17
100
AcDbEntity
  8
SubLayer
100
AcDbLine
 10
54.00036568070288
 20
16.32222001182306
 30
0.0
 11
53.860767693892875
 21
20.319783319899443
 31
0.0
  0
LINE
  5
174
330
17
100
AcDbEntity
  8
SubLayer
100
AcDbLine
 10
53.860767693892875
 20
20.319783319899443
 30
0.0
 11
49.863204385816495
 21
20.180185333089437
 31
0.0
  0
LINE
  5
175
330
17
100
AcDbEntity
  8
SubLayer
100
AcDbLine
 10
49.863204385816495
 20
20.180185333089437
 30
0.0
 11
50.0028023726265
 21
16.182622025013053
 31
0.0
  0
LINE
  5
176
330
17
100
AcDbEntity
  8
SubLayer
100
AcDbLine
 10
50.0028023726265
 20
16.182622025013053
 30
0.0
 11
54.00036568070288
 21
16.32222001182306
 31
0.0
  0
LINE
  5
177
330
17
100
AcDbEntity
  8
SubLayer
100
AcDbLine
 10
403.22360158421844
 20
5.35448059249374
 30
0.0
 11
403.5152388392493
 21
6.311009583940461
 31
0.0
  0
LINE
  5
178
330
17
100
AcDbEntity
  8
SubLayer
100
AcDbLine
 10
402.65666229721836
 20
2.547132243107034
 30
0.0
 11
402.80872893835027
 21
3.5355024858070307
 31
0.0
  0
LINE
  5
179
330
17
100
AcDbEntity
  8
SubLayer
100
AcDbLine
 10
384.0503915493609
 20
11.03981078223546
 30
0.0
 11
384.33835734451253
 21
11.997451477289012
 31
0.0
  0
LINE
  5
17A
330
17
100
AcDbEntity
  8
SubLayer
100
AcDbLine
 10
382.73434839524555
 20
4.351154471514331
 30
0.0
 11
382.85553552215697
 21
5.343784150836363
 31
0.0
  0
LINE
  5
17B
330
17
100
AcDbEntity
  8
SubLayer
100
AcDbLine
 10
345.56642226601235
 20
21.942516678615974
 30
0.0
 11
345.84670322472715
 21
22.90243468770943
 31
0.0
  0
LINE
  5
17C
330
17
100
AcDbEntity
  8
SubLayer
100
AcDbLine
 10
342.7310180806759
 20
6.094596840355673
 30
0.0
 11
342.8134293804359
 21
7.091195243761914
 31
0.0
  0
LINE
  5
17D
330
17
100
AcDbEntity
  8
SubLayer
100
AcDbLine
 10
-150.8279359174231
 20
55.62055090807038
 30
0.0
 11
-150.68833793061307
 21
51.622987599994
 31
0.0
  0
LINE
  5
17E
330
17
100
AcDbEntity
  8
SubLayer
100
AcDbLine
 10
-148.3907620041528
 20
-14.170978566852375
 30
0.0
 11
-148.25116401734277
 21
-18.168541874928756
 31
0.0
  0
LINE
  5
17F
330
17
100
AcDbEntity
  8
SubLayer
100
AcDbLine
 10
-148.91309628350936
 20
0.7867181551512705
 30
0.0
 11
-148.70369930329437
 21
-5.209626806963303
 31
0.0
  0
LINE
  5
180
330
17
100
AcDbEntity
  8
SubLayer
100
AcDbLine
 10
-150.37540063147154
 20
42.66163584010493
 30
0.0
 11
-150.16600365125655
 21
36.66529087799035
 31
0.0
  0
LINE
  5
181
330
17
100
AcDbEntity
  8
SubLayer
100
AcDbLine
 10
-149.64424845749042
 20
21.7241769976281
 30
0.0
 11
-149.43485147727543
 21
15.727832035513524
 31
0.0
  0
LINE
  5
182
330
17
100
AcDbEntity
  8
SubLayer
100
AcDbLine
 10
-150.73738045403505
 20
-4.28003497334921
 30
0.0
 11
-146.73981714595868
 21
-4.140436986539206
 31
0.0
  0
LINE
  5
183
330
17
100
AcDbEntity
  8
SubLayer
100
AcDbLine
 10
-146.73981714595868
 20
-4.140436986539206
 30
0.0
 11
-146.87941513276868
 21
-0.14287367846282306
 31
0.0
  0
LINE
  5
184
330
17
100
AcDbEntity
  8
SubLayer
100
AcDbLine
 10
-146.87941513276868
 20
-0.14287367846282306
 30
0.0
 11
-150.87697844084505
 21
-0.28247166527282697
 31
0.0
  0
LINE
  5
185
330
17
100
AcDbEntity
  8
SubLayer
100
AcDbLine
 10
-150.87697844084505
 20
-0.28247166527282697
 30
0.0
 11
-150.73738045403505
 21
-4.28003497334921
 31
0.0
  0
LINE
  5
186
330
17
100
AcDbEntity
  8
SubLayer
100
AcDbLine
 10
-152.19968480199722
 20
37.59488271160445
 30
0.0
 11
-148.20212149392086
 21
37.73448069841445
 31
0.0
  0
LINE
  5
187
330
17
100
AcDbEntity
  8
SubLayer
100
AcDbLine
 10
-148.20212149392086
 20
37.73448069841445
 30
0.0
 11
-148.34171948073086
 21
41.73204400649083
 31
0.0
  0
LINE
  5
188
330
17
100
AcDbEntity
  8
SubLayer
100
AcDbLine
 10
-148.34171948073086
 20
41.73204400649083
 30
0.0
 11
-152.33928278880722
 21
41.59244601968083
 31
0.0
  0
LINE
  5
189
330
17
100
AcDbEntity
  8
SubLayer
100
AcDbLine
 10
-152.33928278880722
 20
41.59244601968083
 30
0.0
 11
-152.19968480199722
 21
37.59488271160445
 31
0.0
  0
LINE
  5
18A
330
17
100
AcDbEntity
  8
SubLayer
100
AcDbLine
 10
-151.4685326280161
 20
16.657423869127616
 30
0.0
 11
-147.47096931993974
 21
16.797021855937622
 31
0.0
  0
LINE
  5
18B
330
17
100
AcDbEntity
  8
SubLayer
100
AcDbLine
 10
-147.47096931993974
 20
16.797021855937622
 30
0.0
 11
-147.61056730674974
 21
20.794585164014006
 31
0.0
  0
LINE
  5
18C
330
17
100
AcDbEntity
  8
SubLayer
100
AcDbLine
 10
-147.61056730674974
 20
20.794585164014006
 30
0.0
 11
-151.6081306148261
 21
20.654987177204
 31
0.0
  0
LINE
  5
18D
330
17
100
AcDbEntity
  8
SubLayer
100
AcDbLine
 10
-151.6081306148261
 20
20.654987177204
 30
0.0
 11
-151.4685326280161
 21
16.657423869127616
 31
0.0
  0
LINE
  5
18E
330
17
100
AcDbEntity
  8
SubLayer
100
AcDbLine
 10
199.19635289817754
 20
61.03428295746411
 30
0.0
 11
199.33595088498757
 21
57.03671964938773
 31
0.0
  0
LINE
  5
18F
330
17
100
AcDbEntity
  8
SubLayer
100
AcDbLine
 10
201.16496216511786
 20
4.660689374266747
 30
0.0
 11
201.3045601519279
 21
0.6631260661903637
 31
0.0
  0
LINE
  5
190
330
17
100
AcDbEntity
  8
SubLayer
100
AcDbLine
 10
200.73634081502732
 20
16.934798917925317
 30
0.0
 11
200.9457377952423
 21
10.938453955810742
 31
0.0
  0
LINE
  5
191
330
17
100
AcDbEntity
  8
SubLayer
100
AcDbLine
 10
199.55517525486312
 20
50.758955067843736
 30
0.0
 11
199.7645722350781
 21
44.76261010572916
 31
0.0
  0
LINE
  5
192
330
17
100
AcDbEntity
  8
SubLayer
100
AcDbLine
 10
200.1457580349452
 20
33.846876992884525
 30
0.0
 11
200.3551550151602
 21
27.850532030769948
 31
0.0
  0
LINE
  5
193
330
17
100
AcDbEntity
  8
SubLayer
100
AcDbLine
 10
198.91205664450163
 20
11.868045789424835
 30
0.0
 11
202.909619952578
 21
12.007643776234838
 31
0.0
  0
LINE
  5
194
330
17
100
AcDbEntity
  8
SubLayer
100
AcDbLine
 10
202.909619952578
 20
12.007643776234838
 30
0.0
 11
202.770021965768
 21
16.005207084311223
 31
0.0
  0
LINE
  5
195
330
17
100
AcDbEntity
  8
SubLayer
100
AcDbLine
 10
202.770021965768
 20
16.005207084311223
 30
0.0
 11
198.77245865769163
 21
15.865609097501219
 31
0.0
  0
LINE
  5
196
330
17
100
AcDbEntity
  8
SubLayer
100
AcDbLine
 10
198.77245865769163
 20
15.865609097501219
 30
0.0
 11
198.91205664450163
 21
11.868045789424835
 31
0.0
  0
LINE
  5
197
330
17
100
AcDbEntity
  8
SubLayer
100
AcDbLine
 10
197.73089108433743
 20
45.692201939343256
 30
0.0
 11
201.7284543924138
 21
45.83179992615326
 31
0.0
  0
LINE
  5
198
330
17
100
AcDbEntity
  8
SubLayer
100
AcDbLine
 10
201.7284543924138
 20
45.83179992615326
 30
0.0
 11
201.5888564056038
 21
49.82936323422964
 31
0.0
  0
LINE
  5
199
330
17
100
AcDbEntity
  8
SubLayer
100
AcDbLine
 10
201.5888564056038
 20
49.82936323422964
 30
0.0
 11
197.59129309752743
 21
49.689765247419636
 31
0.0
  0
LINE
  5
19A
330
17
100
AcDbEntity
  8
SubLayer
100
AcDbLine
 10
197.59129309752743
 20
49.689765247419636
 30
0.0
 11
197.73089108433743
 21
45.692201939343256
 31
0.0
  0
LINE
  5
19B
330
17
100
AcDbEntity
  8
SubLayer
100
AcDbLine
 10
198.32147386441952
 20
28.78012386438404
 30
0.0
 11
202.31903717249588
 21
28.919721851194048
 31
0.0
  0
LINE
  5
19C
330
17
100
AcDbEntity
  8
SubLayer
100
AcDbLine
 10
202.31903717249588
 20
28.919721851194048
 30
0.0
 11
202.17943918568588
 21
32.91728515927043
 31
0.0
  0
LINE
  5
19D
330
17
100
AcDbEntity
  8
SubLayer
100
AcDbLine
 10
202.17943918568588
 20
32.91728515927043
 30
0.0
 11
198.1818758776095
 21
32.777687172460425
 31
0.0
  0
LINE
  5
19E
330
17
100
AcDbEntity
  8
SubLayer
100
AcDbLine
 10
198.1818758776095
 20
32.777687172460425
 30
0.0
 11
198.32147386441952
 21
28.78012386438404
 31
0.0
  0
ENDSEC
  0
SECTION
  2
OBJECTS
  0
DICTIONARY
  5
A
330
0
100
AcDbDictionary
280
0
281
1
  3
ACAD_COLOR
350
B
  3
ACAD_GROUP
350
C
  3
ACAD_LAYOUT
350
D
  3
ACAD_MATERIAL
350
E
  3
ACAD_MLEADERSTYLE
350
F
  3
ACAD_MLINESTYLE
350
10
  3
ACAD_PLOTSETTINGS
350
11
  3
ACAD_PLOTSTYLENAME
350
12
  3
ACAD_SCALELIST
350
14
  3
ACAD_TABLESTYLE
350
15
  3
ACAD_VISUALSTYLE
350
16
  3
EZDXF_META
350
2D
  0
DICTIONARY
  5
B
330
A
100
AcDbDictionary
280
0
281
1
  0
DICTIONARY
  5
C
330
A
100
AcDbDictionary
280
0
281
1
  0
DICTIONARY
  5
D
330
A
100
AcDbDictionary
280
0
281
1
  3
Model
350
1A
  3
Layout1
350
1E
  0
DICTIONARY
  5
E
330
A
100
AcDbDictionary
280
0
281
1
  3
ByBlock
350
1F
  3
ByLayer
350
20
  3
Global
350
21
  0
DICTIONARY
  5
F
330
A
100
AcDbDictionary
280
0
281
1
  3
Standard
350
2C
  0
DICTIONARY
  5
10
330
A
100
AcDbDictionary
280
0
281
1
  3
Standard
350
22
  0
DICTIONARY
  5
11
330
A
100
AcDbDictionary
280
0
281
1
  0
ACDBDICTIONARYWDFLT
  5
12
330
A
100
AcDbDictionary
280
0
281
1
  3
Normal
350
13
100
AcDbDictionaryWithDefault
340
13
  0
ACDBPLACEHOLDER
  5
13
330
12
  0
DICTIONARY
  5
14
330
A
100
AcDbDictionary
280
0
281
1
  0
DICTIONARY
  5
15
330
A
100
AcDbDictionary
280
0
281
1
  0
DICTIONARY
  5
16
330
A
100
AcDbDictionary
280
0
281
1
  0
LAYOUT
  5
1A
330
D
100
AcDbPlotSettings
  1

  2
Adobe PDF
  4
A3
  6

 40
7.5
 41
20.0
 42
7.5
 43
20.0
 44
420.0
 45
297.0
 46
0.0
 47
0.0
 48
0.0
 49
0.0
140
0.0
141
0.0
142
1.0
143
1.0
 70
1024
 72
1
 73
0
 74
5
  7

 75
16
 76
0
 77
2
 78
300
147
1.0
148
0.0
149
0.0
100
AcDbLayout
  1
Model
 70
1
 71
0
 10
0.0
 20
0.0
 11
420.0
 21
297.0
 12
0.0
 22
0.0
 32
0.0
 14
1e+20
 24
1e+20
 34
1e+20
 15
-1e+20
 25
-1e+20
 35
-1e+20
146
0.0
 13
0.0
 23
0.0
 33
0.0
 16
1.0
 26
0.0
 36
0.0
 17
0.0
 27
1.0
 37
0.0
 76
1
330
17
  0
LAYOUT
  5
1E
330
D
100
AcDbPlotSettings
  1

  2
Adobe PDF
  4
A3
  6

 40
7.5
 41
20.0
 42
7.5
 43
20.0
 44
420.0
 45
297.0
 46
0.0
 47
0.0
 48
0.0
 49
0.0
140
0.0
141
0.0
142
1.0
143
1.0
 70
0
 72
1
 73
0
 74
5
  7

 75
16
 76
0
 77
2
 78
300
147
1.0
148
0.0
149
0.0
100
AcDbLayout
  1
Layout1
 70
1
 71
1
 10
0.0
 20
0.0
 11
420.0
 21
297.0
 12
0.0
 22
0.0
 32
0.0
 14
1e+20
 24
1e+20
 34
1e+20
 15
-1e+20
 25
-1e+20
 35
-1e+20
146
0.0
 13
0.0
 23
0.0
 33
0.0
 16
1.0
 26
0.0
 36
0.0
 17
0.0
 27
1.0
 37
0.0
 76
1
330
1B
  0
MATERIAL
  5
1F
102
{ACAD_REACTORS
330
E
102
}
330
E
100
AcDbMaterial
  1
ByBlock
  2

 70
0
 40
1.0
 71
1
 41
1.0
 91
-1023410177
 42
1.0
 72
1
  3

 73
1
 74
1
 75
1
 44
0.5
 73
0
 45
1.0
 46
1.0
 77
1
  4

 78
1
 79
1
170
1
 48
1.0
171
1
  6

172
1
173
1
174
1
140
1.0
141
1.0
175
1
  7

176
1
177
1
178
1
143
1.0
179
1
  8

270
1
271
1
272
1
145
1.0
146
1.0
273
1
  9

274
1
275
1
276
1
 42
1.0
 72
1
  3

 73
1
 74
1
 75
1
 94
63
  0
MATERIAL
  5
20
102
{ACAD_REACTORS
330
E
102
}
330
E
100
AcDbMaterial
  1
ByLayer
  2

 70
0
 40
1.0
 71
1
 41
1.0
 91
-1023410177
 42
1.0
 72
1
  3

 73
1
 74
1
 75
1
 44
0.5
 73
0
 45
1.0
 46
1.0
 77
1
  4

 78
1
 79
1
170
1
 48
1.0
171
1
  6

172
1
173
1
174
1
140
1.0
141
1.0
175
1
  7

176
1
177
1
178
1
143
1.0
179
1
  8

270
1
271
1
272
1
145
1.0
146
1.0
273
1
  9

274
1
275
1
276
1
 42
1.0
 72
1
  3

 73
1
 74
1
 75
1
 94
63
  0
MATERIAL
  5
21
102
{ACAD_REACTORS
330
E
102
}
330
E
100
AcDbMaterial
  1
Global
  2

 70
0
 40
1.0
 71
1
 41
1.0
 91
-1023410177
 42
1.0
 72
1
  3

 73
1
 74
1
 75
1
 44
0.5
 73
0
 45
1.0
 46
1.0
 77
1
  4

 78
1
 79
1
170
1
 48
1.0
171
1
  6

172
1
173
1
174
1
140
1.0
141
1.0
175
1
  7

176
1
177
1
178
1
143
1.0
179
1
  8

270
1
271
1
272
1
145
1.0
146
1.0
273
1
  9

274
1
275
1
276
1
 42
1.0
 72
1
  3

 73
1
 74
1
 75
1
 94
63
  0
MLINESTYLE
  5
22
102
{ACAD_REACTORS
330
10
102
}
330
10
100
AcDbMlineStyle
  2
Standard
 70
0
  3

 62
256
 51
90.0
 52
90.0
 71
2
 49
0.5
 62
256
  6
BYLAYER
 49
-0.5
 62
256
  6
BYLAYER
  0
MLEADERSTYLE
  5
2C
102
{ACAD_REACTORS
330
F
102
}
330
F
100
AcDbMLeaderStyle
179
2
170
2
171
1
172
0
 90
2
 40
0.0
 41
0.0
173
1
 91
-1056964608
 92
-2
290
1
 42
2.0
291
1
 43
8.0
  3
Standard
 44
4.0
300

342
29
174
1
175
1
176
0
178
1
 93
-1056964608
 45
4.0
292
0
297
0
 46
4.0
 94
-1056964608
 47
1.0
 49
1.0
140
1.0
294
1
141
0.0
177
0
142
1.0
295
0
296
0
143
3.75
271
0
272
9
273
9
  0
DICTIONARY
  5
2D
330
A
100
AcDbDictionary
281
1
  3
CREATED_BY_EZDXF
350
2E
  3
WRITTEN_BY_EZDXF
350
1A1
  0
DICTIONARYVAR
  5
2E
330
2D
100
DictionaryVariables
280
0
  1
1.0.2 @ 2023-10-20T04:47:16.150191+00:00
  0
DICTIONARYVAR
  5
1A1
330
2D
100
DictionaryVariables
280
0
  1
1.0.2 @ 2023-10-20T04:47:16.160160+00:00
  0
ENDSEC
  0
EOF
