  0
SECTION
  2
HEADER
  9
$ACADVER
  1
AC1027
  9
$ACADMAINTVER
 70
105
  9
$DWGCODEPAGE
  3
ANSI_1252
  9
$LASTSAVEDBY
  1
ezdxf
  9
$REQUIREDVERSIONS
160
0
  9
$INSBASE
 10
0.0
 20
0.0
 30
0.0
  9
$EXTMIN
 10
1e+20
 20
1e+20
 30
1e+20
  9
$EXTMAX
 10
-1e+20
 20
-1e+20
 30
-1e+20
  9
$LIMMIN
 10
0.0
 20
0.0
  9
$LIMMAX
 10
420.0
 20
297.0
  9
$ORTHOMODE
 70
0
  9
$REGENMODE
 70
1
  9
$FILLMODE
 70
1
  9
$QTEXTMODE
 70
0
  9
$MIRRTEXT
 70
1
  9
$LTSCALE
 40
1.0
  9
$ATTMODE
 70
1
  9
$TEXTSIZE
 40
2.5
  9
$TRACEWID
 40
1.0
  9
$TEXTSTYLE
  7
Standard
  9
$CLAYER
  8
0
  9
$CELTYPE
  6
ByLayer
  9
$CECOLOR
 62
256
  9
$CELTSCALE
 40
1.0
  9
$DISPSILH
 70
0
  9
$DIMSCALE
 40
1.0
  9
$DIMASZ
 40
2.5
  9
$DIMEXO
 40
0.625
  9
$DIMDLI
 40
3.75
  9
$DIMRND
 40
0.0
  9
$DIMDLE
 40
0.0
  9
$DIMEXE
 40
1.25
  9
$DIMTP
 40
0.0
  9
$DIMTM
 40
0.0
  9
$DIMTXT
 40
2.5
  9
$DIMCEN
 40
2.5
  9
$DIMTSZ
 40
0.0
  9
$DIMTOL
 70
0
  9
$DIMLIM
 70
0
  9
$DIMTIH
 70
0
  9
$DIMTOH
 70
0
  9
$DIMSE1
 70
0
  9
$DIMSE2
 70
0
  9
$DIMTAD
 70
1
  9
$DIMZIN
 70
8
  9
$DIMBLK
  1

  9
$DIMASO
 70
1
  9
$DIMSHO
 70
1
  9
$DIMPOST
  1

  9
$DIMAPOST
  1

  9
$DIMALT
 70
0
  9
$DIMALTD
 70
3
  9
$DIMALTF
 40
0.03937007874
  9
$DIMLFAC
 40
1.0
  9
$DIMTOFL
 70
1
  9
$DIMTVP
 40
0.0
  9
$DIMTIX
 70
0
  9
$DIMSOXD
 70
0
  9
$DIMSAH
 70
0
  9
$DIMBLK1
  1

  9
$DIMBLK2
  1

  9
$DIMSTYLE
  2
ISO-25
  9
$DIMCLRD
 70
0
  9
$DIMCLRE
 70
0
  9
$DIMCLRT
 70
0
  9
$DIMTFAC
 40
1.0
  9
$DIMGAP
 40
0.625
  9
$DIMJUST
 70
0
  9
$DIMSD1
 70
0
  9
$DIMSD2
 70
0
  9
$DIMTOLJ
 70
0
  9
$DIMTZIN
 70
8
  9
$DIMALTZ
 70
0
  9
$DIMALTTZ
 70
0
  9
$DIMUPT
 70
0
  9
$DIMDEC
 70
2
  9
$DIMTDEC
 70
2
  9
$DIMALTU
 70
2
  9
$DIMALTTD
 70
3
  9
$DIMTXSTY
  7
Standard
  9
$DIMAUNIT
 70
0
  9
$DIMADEC
 70
0
  9
$DIMALTRND
 40
0.0
  9
$DIMAZIN
 70
0
  9
$DIMDSEP
 70
44
  9
$DIMATFIT
 70
3
  9
$DIMFRAC
 70
0
  9
$DIMLDRBLK
  1

  9
$DIMLUNIT
 70
2
  9
$DIMLWD
 70
-2
  9
$DIMLWE
 70
-2
  9
$DIMTMOVE
 70
0
  9
$DIMFXL
 40
1.0
  9
$DIMFXLON
 70
0
  9
$DIMJOGANG
 40
0.785398163397
  9
$DIMTFILL
 70
0
  9
$DIMTFILLCLR
 70
0
  9
$DIMARCSYM
 70
0
  9
$DIMLTYPE
  6

  9
$DIMLTEX1
  6

  9
$DIMLTEX2
  6

  9
$DIMTXTDIRECTION
 70
0
  9
$LUNITS
 70
2
  9
$LUPREC
 70
4
  9
$SKETCHINC
 40
1.0
  9
$FILLETRAD
 40
10.0
  9
$AUNITS
 70
0
  9
$AUPREC
 70
2
  9
$MENU
  1
.
  9
$ELEVATION
 40
0.0
  9
$PELEVATION
 40
0.0
  9
$THICKNESS
 40
0.0
  9
$LIMCHECK
 70
0
  9
$CHAMFERA
 40
0.0
  9
$CHAMFERB
 40
0.0
  9
$CHAMFERC
 40
0.0
  9
$CHAMFERD
 40
0.0
  9
$SKPOLY
 70
0
  9
$TDCREATE
 40
2460238.574490741
  9
$TDUCREATE
 40
2458532.153996898
  9
$TDUPDATE
 40
2460238.574490741
  9
$TDUUPDATE
 40
2458532.1544311
  9
$TDINDWG
 40
0.0
  9
$TDUSRTIMER
 40
0.0
  9
$USRTIMER
 70
1
  9
$ANGBASE
 50
0.0
  9
$ANGDIR
 70
0
  9
$PDMODE
 70
0
  9
$PDSIZE
 40
0.0
  9
$PLINEWID
 40
0.0
  9
$SPLFRAME
 70
0
  9
$SPLINETYPE
 70
6
  9
$SPLINESEGS
 70
8
  9
$HANDSEED
  5
1A2
  9
$SURFTAB1
 70
6
  9
$SURFTAB2
 70
6
  9
$SURFTYPE
 70
6
  9
$SURFU
 70
6
  9
$SURFV
 70
6
  9
$UCSBASE
  2

  9
$UCSNAME
  2

  9
$UCSORG
 10
0.0
 20
0.0
 30
0.0
  9
$UCSXDIR
 10
1.0
 20
0.0
 30
0.0
  9
$UCSYDIR
 10
0.0
 20
1.0
 30
0.0
  9
$UCSORTHOREF
  2

  9
$UCSORTHOVIEW
 70
0
  9
$UCSORGTOP
 10
0.0
 20
0.0
 30
0.0
  9
$UCSORGBOTTOM
 10
0.0
 20
0.0
 30
0.0
  9
$UCSORGLEFT
 10
0.0
 20
0.0
 30
0.0
  9
$UCSORGRIGHT
 10
0.0
 20
0.0
 30
0.0
  9
$UCSORGFRONT
 10
0.0
 20
0.0
 30
0.0
  9
$UCSORGBACK
 10
0.0
 20
0.0
 30
0.0
  9
$PUCSBASE
  2

  9
$PUCSNAME
  2

  9
$PUCSORG
 10
0.0
 20
0.0
 30
0.0
  9
$PUCSXDIR
 10
1.0
 20
0.0
 30
0.0
  9
$PUCSYDIR
 10
0.0
 20
1.0
 30
0.0
  9
$PUCSORTHOREF
  2

  9
$PUCSORTHOVIEW
 70
0
  9
$PUCSORGTOP
 10
0.0
 20
0.0
 30
0.0
  9
$PUCSORGBOTTOM
 10
0.0
 20
0.0
 30
0.0
  9
$PUCSORGLEFT
 10
0.0
 20
0.0
 30
0.0
  9
$PUCSORGRIGHT
 10
0.0
 20
0.0
 30
0.0
  9
$PUCSORGFRONT
 10
0.0
 20
0.0
 30
0.0
  9
$PUCSORGBACK
 10
0.0
 20
0.0
 30
0.0
  9
$USERI1
 70
0
  9
$USERI2
 70
0
  9
$USERI3
 70
0
  9
$USERI4
 70
0
  9
$USERI5
 70
0
  9
$USERR1
 40
0.0
  9
$USERR2
 40
0.0
  9
$USERR3
 40
0.0
  9
$USERR4
 40
0.0
  9
$USERR5
 40
0.0
  9
$WORLDVIEW
 70
1
  9
$SHADEDGE
 70
3
  9
$SHADEDIF
 70
70
  9
$TILEMODE
 70
1
  9
$MAXACTVP
 70
64
  9
$PINSBASE
 10
0.0
 20
0.0
 30
0.0
  9
$PLIMCHECK
 70
0
  9
$PEXTMIN
 10
1e+20
 20
1e+20
 30
1e+20
  9
$PEXTMAX
 10
-1e+20
 20
-1e+20
 30
-1e+20
  9
$PLIMMIN
 10
0.0
 20
0.0
  9
$PLIMMAX
 10
420.0
 20
297.0
  9
$UNITMODE
 70
0
  9
$VISRETAIN
 70
1
  9
$PLINEGEN
 70
0
  9
$PSLTSCALE
 70
1
  9
$TREEDEPTH
 70
3020
  9
$CMLSTYLE
  2
Standard
  9
$CMLJUST
 70
0
  9
$CMLSCALE
 40
20.0
  9
$PROXYGRAPHICS
 70
1
  9
$MEASUREMENT
 70
1
  9
$CELWEIGHT
370
-1
  9
$ENDCAPS
280
0
  9
$JOINSTYLE
280
0
  9
$LWDISPLAY
290
0
  9
$INSUNITS
 70
6
  9
$HYPERLINKBASE
  1

  9
$STYLESHEET
  1

  9
$XEDIT
290
1
  9
$CEPSNTYPE
380
0
  9
$PSTYLEMODE
290
1
  9
$FINGERPRINTGUID
  2
{4286E32D-B87D-4157-AAAC-A17F8E56340A}
  9
$VERSIONGUID
  2
{BBEA8B3C-7887-4FAD-B6B3-371B42C1ABE3}
  9
$EXTNAMES
290
1
  9
$PSVPSCALE
 40
0.0
  9
$OLESTARTUP
290
0
  9
$SORTENTS
280
127
  9
$INDEXCTL
280
0
  9
$HIDETEXT
280
1
  9
$XCLIPFRAME
280
0
  9
$HALOGAP
280
0
  9
$OBSCOLOR
 70
257
  9
$OBSLTYPE
280
0
  9
$INTERSECTIONDISPLAY
280
0
  9
$INTERSECTIONCOLOR
 70
257
  9
$DIMASSOC
280
2
  9
$PROJECTNAME
  1

  9
$CAMERADISPLAY
290
0
  9
$LENSLENGTH
 40
50.0
  9
$CAMERAHEIGHT
 40
0.0
  9
$STEPSPERSEC
 40
24.0
  9
$STEPSIZE
 40
100.0
  9
$3DDWFPREC
 40
2.0
  9
$PSOLWIDTH
 40
0.005
  9
$PSOLHEIGHT
 40
0.08
  9
$LOFTANG1
 40
1.570796326795
  9
$LOFTANG2
 40
1.570796326795
  9
$LOFTMAG1
 40
0.0
  9
$LOFTMAG2
 40
0.0
  9
$LOFTPARAM
 70
7
  9
$LOFTNORMALS
280
1
  9
$LATITUDE
 40
37.795
  9
$LONGITUDE
 40
-122.394
  9
$NORTHDIRECTION
 40
0.0
  9
$TIMEZONE
 70
-8000
  9
$LIGHTGLYPHDISPLAY
280
1
  9
$TILEMODELIGHTSYNCH
280
1
  9
$CMATERIAL
347
20
  9
$SOLIDHIST
280
0
  9
$SHOWHIST
280
1
  9
$DWFFRAME
280
2
  9
$DGNFRAME
280
2
  9
$REALWORLDSCALE
290
1
  9
$INTERFERECOLOR
 62
256
  9
$CSHADOW
280
0
  9
$SHADOWPLANELOCATION
 40
0.0
  0
ENDSEC
  0
SECTION
  2
CLASSES
  0
CLASS
  1
ACDBDICTIONARYWDFLT
  2
AcDbDictionaryWithDefault
  3
ObjectDBX Classes
 90
0
 91
0
280
0
281
0
  0
CLASS
  1
SUN
  2
AcDbSun
  3
SCENEOE
 90
1153
 91
0
280
0
281
0
  0
CLASS
  1
VISUALSTYLE
  2
AcDbVisualStyle
  3
ObjectDBX Classes
 90
4095
 91
0
280
0
281
0
  0
CLASS
  1
MATERIAL
  2
AcDbMaterial
  3
ObjectDBX Classes
 90
1153
 91
0
280
0
281
0
  0
CLASS
  1
SCALE
  2
AcDbScale
  3
ObjectDBX Classes
 90
1153
 91
0
280
0
281
0
  0
CLASS
  1
TABLESTYLE
  2
AcDbTableStyle
  3
ObjectDBX Classes
 90
4095
 91
0
280
0
281
0
  0
CLASS
  1
MLEADERSTYLE
  2
AcDbMLeaderStyle
  3
ACDB_MLEADERSTYLE_CLASS
 90
4095
 91
0
280
0
281
0
  0
CLASS
  1
DICTIONARYVAR
  2
AcDbDictionaryVar
  3
ObjectDBX Classes
 90
0
 91
0
280
0
281
0
  0
CLASS
  1
CELLSTYLEMAP
  2
AcDbCellStyleMap
  3
ObjectDBX Classes
 90
1152
 91
0
280
0
281
0
  0
CLASS
  1
MENTALRAYRENDERSETTINGS
  2
AcDbMentalRayRenderSettings
  3
SCENEOE
 90
1024
 91
0
280
0
281
0
  0
CLASS
  1
ACDBDETAILVIEWSTYLE
  2
AcDbDetailViewStyle
  3
ObjectDBX Classes
 90
1025
 91
0
280
0
281
0
  0
CLASS
  1
ACDBSECTIONVIEWSTYLE
  2
AcDbSectionViewStyle
  3
ObjectDBX Classes
 90
1025
 91
0
280
0
281
0
  0
CLASS
  1
RASTERVARIABLES
  2
AcDbRasterVariables
  3
ISM
 90
0
 91
0
280
0
281
0
  0
CLASS
  1
ACDBPLACEHOLDER
  2
AcDbPlaceHolder
  3
ObjectDBX Classes
 90
0
 91
0
280
0
281
0
  0
CLASS
  1
LAYOUT
  2
AcDbLayout
  3
ObjectDBX Classes
 90
0
 91
0
280
0
281
0
  0
ENDSEC
  0
SECTION
  2
TABLES
  0
TABLE
  2
VPORT
  5
8
330
0
100
AcDbSymbolTable
 70
1
  0
VPORT
  5
23
330
8
100
AcDbSymbolTableRecord
100
AcDbViewportTableRecord
  2
*Active
 70
0
 10
0.0
 20
0.0
 11
1.0
 21
1.0
 12
0.0
 22
0.0
 13
0.0
 23
0.0
 14
0.5
 24
0.5
 15
0.5
 25
0.5
 16
0.0
 26
0.0
 36
1.0
 17
0.0
 27
0.0
 37
0.0
 40
1000.0
 41
1.34
 42
50.0
 43
0.0
 44
0.0
 50
0.0
 51
0.0
 71
0
 72
1000
 73
1
 74
3
 75
0
 76
0
 77
0
 78
0
281
0
 65
0
146
0.0
  0
ENDTAB
  0
TABLE
  2
LTYPE
  5
2
330
0
100
AcDbSymbolTable
 70
3
  0
LTYPE
  5
24
330
2
100
AcDbSymbolTableRecord
100
AcDbLinetypeTableRecord
  2
ByBlock
 70
0
  3

 72
65
 73
0
 40
0.0
  0
LTYPE
  5
25
330
2
100
AcDbSymbolTableRecord
100
AcDbLinetypeTableRecord
  2
ByLayer
 70
0
  3

 72
65
 73
0
 40
0.0
  0
LTYPE
  5
26
330
2
100
AcDbSymbolTableRecord
100
AcDbLinetypeTableRecord
  2
Continuous
 70
0
  3

 72
65
 73
0
 40
0.0
  0
ENDTAB
  0
TABLE
  2
LAYER
  5
1
330
0
100
AcDbSymbolTable
 70
5
  0
LAYER
  5
27
330
1
100
AcDbSymbolTableRecord
100
AcDbLayerTableRecord
  2
0
 70
0
 62
7
  6
Continuous
370
-3
390
13
347
21
  0
LAYER
  5
28
330
1
100
AcDbSymbolTableRecord
100
AcDbLayerTableRecord
  2
Defpoints
 70
0
 62
7
  6
Continuous
290
0
370
-3
390
13
347
21
  0
LAYER
  5
30
330
1
100
AcDbSymbolTableRecord
100
AcDbLayerTableRecord
  2
FoilLayer
 70
0
 62
1
  6
Continuous
370
50
390
13
347
21
  0
LAYER
  5
31
330
1
100
AcDbSymbolTableRecord
100
AcDbLayerTableRecord
  2
StringerLayer
 70
0
 62
1
  6
Continuous
370
50
390
13
347
21
  0
LAYER
  5
32
330
1
100
AcDbSymbolTableRecord
100
AcDbLayerTableRecord
  2
SubLayer
 70
0
 62
1
  6
Continuous
370
50
390
13
347
21
  0
ENDTAB
  0
TABLE
  2
STYLE
  5
5
330
0
100
AcDbSymbolTable
 70
2
  0
STYLE
  5
29
330
5
100
AcDbSymbolTableRecord
100
AcDbTextStyleTableRecord
  2
Standard
 70
0
 40
0.0
 41
1.0
 50
0.0
 71
0
 42
2.5
  3
txt
  4

  0
STYLE
  5
2F
330
5
100
AcDbSymbolTableRecord
100
AcDbTextStyleTableRecord
  2
MSゴシック
 70
0
 40
0.0
 41
1.0
 50
0.0
 71
0
 42
2.5
  3
romans
  4

  0
ENDTAB
  0
TABLE
  2
VIEW
  5
7
330
0
100
AcDbSymbolTable
 70
0
  0
ENDTAB
  0
TABLE
  2
UCS
  5
6
330
0
100
AcDbSymbolTable
 70
0
  0
ENDTAB
  0
TABLE
  2
APPID
  5
3
330
0
100
AcDbSymbolTable
 70
3
  0
APPID
  5
2A
330
3
100
AcDbSymbolTableRecord
100
AcDbRegAppTableRecord
  2
ACAD
 70
0
  0
APPID
  5
19F
330
3
100
AcDbSymbolTableRecord
100
AcDbRegAppTableRecord
  2
HATCHBACKGROUNDCOLOR
 70
0
  0
APPID
  5
1A0
330
3
100
AcDbSymbolTableRecord
100
AcDbRegAppTableRecord
  2
EZDXF
 70
0
  0
ENDTAB
  0
TABLE
  2
DIMSTYLE
  5
4
330
0
100
AcDbSymbolTable
 70
1
100
AcDbDimStyleTable
  0
DIMSTYLE
105
2B
330
4
100
AcDbSymbolTableRecord
100
AcDbDimStyleTableRecord
  2
Standard
 70
0
 40
1.0
 41
2.5
 42
0.625
 43
3.75
 44
1.25
 45
0.0
 46
0.0
 47
0.0
 48
0.0
 49
2.5
140
2.5
141
2.5
142
0.0
143
0.03937007874
144
1.0
145
0.0
146
1.0
147
0.625
148
0.0
 69
0
 70
0
 71
0
 72
0
 73
0
 74
0
 75
0
 76
0
 77
1
 78
8
 79
3
170
0
171
3
172
1
173
0
174
0
175
0
176
0
177
0
178
0
179
2
271
2
272
2
273
2
274
3
275
0
276
0
277
2
278
44
279
0
280
0
281
0
282
0
283
0
284
8
285
0
286
0
288
0
289
3
290
0
371
-2
372
-2
  0
ENDTAB
  0
TABLE
  2
BLOCK_RECORD
  5
9
330
0
100
AcDbSymbolTable
 70
2
  0
BLOCK_RECORD
  5
17
330
9
100
AcDbSymbolTableRecord
100
AcDbBlockTableRecord
  2
*Model_Space
340
1A
 70
0
280
1
281
0
  0
BLOCK_RECORD
  5
1B
330
9
100
AcDbSymbolTableRecord
100
AcDbBlockTableRecord
  2
*Paper_Space
340
1E
 70
0
280
1
281
0
  0
ENDTAB
  0
ENDSEC
  0
SECTION
  2
BLOCKS
  0
BLOCK
  5
18
330
17
100
AcDbEntity
  8
0
100
AcDbBlockBegin
  2
*Model_Space
 70
0
 10
0.0
 20
0.0
 30
0.0
  3
*Model_Space
  1

  0
ENDBLK
  5
19
330
17
100
AcDbEntity
  8
0
100
AcDbBlockEnd
  0
BLOCK
  5
1C
330
1B
100
AcDbEntity
  8
0
100
AcDbBlockBegin
  2
*Paper_Space
 70
0
 10
0.0
 20
0.0
 30
0.0
  3
*Paper_Space
  1

  0
ENDBLK
  5
1D
330
1B
100
AcDbEntity
  8
0
100
AcDbBlockEnd
  0
ENDSEC
  0
SECTION
  2
ENTITIES
  0
LINE
  5
33
330
17
100
AcDbEntity
  8
FoilLayer
100
AcDbLine
 10
412.60134230920687
 20
-0.39298530795334347
 30
0.0
 11
412.4785285136917
 21
-0.34997735977948763
 31
0.0
  0
LINE
  5
34
330
17
100
AcDbEntity
  8
FoilLayer
100
AcDbLine
 10
412.4785285136917
 20
-0.34997735977948763
 30
0.0
 11
412.0992749232561
 21
-0.22138913272667188
 31
0.0
  0
LINE
  5
35
330
17
100
AcDbEntity
  8
FoilLayer
100
AcDbLine
 10
412.0992749232561
 20
-0.22138913272667188
 30
0.0
 11
411.50319957251065
 21
-0.012127698898732497
 31
0.0
  0
LINE
  5
36
330
17
100
AcDbEntity
  8
FoilLayer
100
AcDbLine
 10
411.50319957251065
 20
-0.012127698898732497
 30
0.0
 11
410.68522306791203
 21
0.273214835038649
 31
0.0
  0
LINE
  5
37
330
17
100
AcDbEntity
  8
FoilLayer
100
AcDbLine
 10
410.68522306791203
 20
0.273214835038649
 30
0.0
 11
409.657286705924
 21
0.6285516916346328
 31
0.0
  0
LINE
  5
38
330
17
100
AcDbEntity
  8
FoilLayer
100
AcDbLine
 10
409.657286705924
 20
0.6285516916346328
 30
0.0
 11
408.4217900863156
 21
1.0530658643037765
 31
0.0
  0
LINE
  5
39
330
17
100
AcDbEntity
  8
FoilLayer
100
AcDbLine
 10
408.4217900863156
 20
1.0530658643037765
 30
0.0
 11
406.9877789080574
 21
1.5353013820354713
 31
0.0
  0
LINE
  5
3A
330
17
100
AcDbEntity
  8
FoilLayer
100
AcDbLine
 10
406.9877789080574
 20
1.5353013820354713
 30
0.0
 11
405.3494297575829
 21
2.0814177655269757
 31
0.0
  0
LINE
  5
3B
330
17
100
AcDbEntity
  8
FoilLayer
100
AcDbLine
 10
405.3494297575829
 20
2.0814177655269757
 30
0.0
 11
403.5242148920969
 21
2.6898399145239047
 31
0.0
  0
LINE
  5
3C
330
17
100
AcDbEntity
  8
FoilLayer
100
AcDbLine
 10
403.5242148920969
 20
2.6898399145239047
 30
0.0
 11
401.50565330432084
 21
3.343651566596346
 31
0.0
  0
LINE
  5
3D
330
17
100
AcDbEntity
  8
FoilLayer
100
AcDbLine
 10
401.50565330432084
 20
3.343651566596346
 30
0.0
 11
399.29852186589346
 21
4.054002334128815
 31
0.0
  0
LINE
  5
3E
330
17
100
AcDbEntity
  8
FoilLayer
100
AcDbLine
 10
399.29852186589346
 20
4.054002334128815
 30
0.0
 11
396.9001978722006
 21
4.8090356201890625
 31
0.0
  0
LINE
  5
3F
330
17
100
AcDbEntity
  8
FoilLayer
100
AcDbLine
 10
396.9001978722006
 20
4.8090356201890625
 30
0.0
 11
394.316827480547
 21
5.608803097813623
 31
0.0
  0
LINE
  5
40
330
17
100
AcDbEntity
  8
FoilLayer
100
AcDbLine
 10
394.316827480547
 20
5.608803097813623
 30
0.0
 11
391.5431372758877
 21
6.459319090232777
 31
0.0
  0
LINE
  5
41
330
17
100
AcDbEntity
  8
FoilLayer
100
AcDbLine
 10
391.5431372758877
 20
6.459319090232777
 30
0.0
 11
388.59229500708796
 21
7.354095662475082
 31
0.0
  0
LINE
  5
42
330
17
100
AcDbEntity
  8
FoilLayer
100
AcDbLine
 10
388.59229500708796
 20
7.354095662475082
 30
0.0
 11
385.4626775040281
 21
8.28726894490097
 31
0.0
  0
LINE
  5
43
330
17
100
AcDbEntity
  8
FoilLayer
100
AcDbLine
 10
385.4626775040281
 20
8.28726894490097
 30
0.0
 11
382.15587661121754
 21
9.264714470736697
 31
0.0
  0
LINE
  5
44
330
17
100
AcDbEntity
  8
FoilLayer
100
AcDbLine
 10
382.15587661121754
 20
9.264714470736697
 30
0.0
 11
378.67111514603323
 21
10.280312594094541
 31
0.0
  0
LINE
  5
45
330
17
100
AcDbEntity
  8
FoilLayer
100
AcDbLine
 10
378.67111514603323
 20
10.280312594094541
 30
0.0
 11
375.00822553694536
 21
11.334109238235982
 31
0.0
  0
LINE
  5
46
330
17
100
AcDbEntity
  8
FoilLayer
100
AcDbLine
 10
375.00822553694536
 20
11.334109238235982
 30
0.0
 11
371.17251303596584
 21
12.426398277273115
 31
0.0
  0
LINE
  5
47
330
17
100
AcDbEntity
  8
FoilLayer
100
AcDbLine
 10
371.17251303596584
 20
12.426398277273115
 30
0.0
 11
367.1664065234737
 21
13.569187120450207
 31
0.0
  0
LINE
  5
48
330
17
100
AcDbEntity
  8
FoilLayer
100
AcDbLine
 10
367.1664065234737
 20
13.569187120450207
 30
0.0
 11
362.9936222777744
 21
14.750523927047341
 31
0.0
  0
LINE
  5
49
330
17
100
AcDbEntity
  8
FoilLayer
100
AcDbLine
 10
362.9936222777744
 20
14.750523927047341
 30
0.0
 11
358.67018665849923
 21
15.982164803450841
 31
0.0
  0
LINE
  5
4A
330
17
100
AcDbEntity
  8
FoilLayer
100
AcDbLine
 10
358.67018665849923
 20
15.982164803450841
 30
0.0
 11
354.1933335289116
 21
17.245843914999913
 31
0.0
  0
LINE
  5
4B
330
17
100
AcDbEntity
  8
FoilLayer
100
AcDbLine
 10
354.1933335289116
 20
17.245843914999913
 30
0.0
 11
349.55780554330136
 21
18.553951827688497
 31
0.0
  0
LINE
  5
4C
330
17
100
AcDbEntity
  8
FoilLayer
100
AcDbLine
 10
349.55780554330136
 20
18.553951827688497
 30
0.0
 11
344.78204884609977
 21
19.900308981985795
 31
0.0
  0
LINE
  5
4D
330
17
100
AcDbEntity
  8
FoilLayer
100
AcDbLine
 10
344.78204884609977
 20
19.900308981985795
 30
0.0
 11
339.8673342014175
 21
21.2909066745974
 31
0.0
  0
LINE
  5
4E
330
17
100
AcDbEntity
  8
FoilLayer
100
AcDbLine
 10
339.8673342014175
 20
21.2909066745974
 30
0.0
 11
334.8251066921565
 21
22.713399108877383
 31
0.0
  0
LINE
  5
4F
330
17
100
AcDbEntity
  8
FoilLayer
100
AcDbLine
 10
334.8251066921565
 20
22.713399108877383
 30
0.0
 11
329.65684616912347
 21
24.17371920798791
 31
0.0
  0
LINE
  5
50
330
17
100
AcDbEntity
  8
FoilLayer
100
AcDbLine
 10
329.65684616912347
 20
24.17371920798791
 30
0.0
 11
324.36107497038313
 21
25.65958317251316
 31
0.0
  0
LINE
  5
51
330
17
100
AcDbEntity
  8
FoilLayer
100
AcDbLine
 10
324.36107497038313
 20
25.65958317251316
 30
0.0
 11
318.9379004539843
 21
27.17731001409026
 31
0.0
  0
LINE
  5
52
330
17
100
AcDbEntity
  8
FoilLayer
100
AcDbLine
 10
318.9379004539843
 20
27.17731001409026
 30
0.0
 11
313.4066500293527
 21
28.72682225659368
 31
0.0
  0
LINE
  5
53
330
17
100
AcDbEntity
  8
FoilLayer
100
AcDbLine
 10
313.4066500293527
 20
28.72682225659368
 30
0.0
 11
307.77457043656295
 21
30.307868637405885
 31
0.0
  0
LINE
  5
54
330
17
100
AcDbEntity
  8
FoilLayer
100
AcDbLine
 10
307.77457043656295
 20
30.307868637405885
 30
0.0
 11
302.04778145866237
 21
31.907815574150337
 31
0.0
  0
LINE
  5
55
330
17
100
AcDbEntity
  8
FoilLayer
100
AcDbLine
 10
302.04778145866237
 20
31.907815574150337
 30
0.0
 11
296.2188035135475
 21
33.520626771677136
 31
0.0
  0
LINE
  5
56
330
17
100
AcDbEntity
  8
FoilLayer
100
AcDbLine
 10
296.2188035135475
 20
33.520626771677136
 30
0.0
 11
290.294440556136
 21
35.15252541472147
 31
0.0
  0
LINE
  5
57
330
17
100
AcDbEntity
  8
FoilLayer
100
AcDbLine
 10
290.294440556136
 20
35.15252541472147
 30
0.0
 11
284.28093412885914
 21
36.803540925944105
 31
0.0
  0
LINE
  5
58
330
17
100
AcDbEntity
  8
FoilLayer
100
AcDbLine
 10
284.28093412885914
 20
36.803540925944105
 30
0.0
 11
278.1915246491153
 21
38.473525186528626
 31
0.0
  0
LINE
  5
59
330
17
100
AcDbEntity
  8
FoilLayer
100
AcDbLine
 10
278.1915246491153
 20
38.473525186528626
 30
0.0
 11
272.03379388797305
 21
40.15579655819176
 31
0.0
  0
LINE
  5
5A
330
17
100
AcDbEntity
  8
FoilLayer
100
AcDbLine
 10
272.03379388797305
 20
40.15579655819176
 30
0.0
 11
265.81181623232396
 21
41.825573995796844
 31
0.0
  0
LINE
  5
5B
330
17
100
AcDbEntity
  8
FoilLayer
100
AcDbLine
 10
265.81181623232396
 20
41.825573995796844
 30
0.0
 11
259.5199625288816
 21
43.49536131711977
 31
0.0
  0
LINE
  5
5C
330
17
100
AcDbEntity
  8
FoilLayer
100
AcDbLine
 10
259.5199625288816
 20
43.49536131711977
 30
0.0
 11
253.88575600268578
 21
44.974199956231054
 31
0.0
  0
LINE
  5
5D
330
17
100
AcDbEntity
  8
FoilLayer
100
AcDbLine
 10
253.88575600268578
 20
44.974199956231054
 30
0.0
 11
253.49224890082647
 21
43.47498277356995
 31
0.0
  0
LINE
  5
5E
330
17
100
AcDbEntity
  8
FoilLayer
100
AcDbLine
 10
253.49224890082647
 20
43.47498277356995
 30
0.0
 11
252.770921809309
 21
43.66432807766623
 31
0.0
  0
LINE
  5
5F
330
17
100
AcDbEntity
  8
FoilLayer
100
AcDbLine
 10
252.770921809309
 20
43.66432807766623
 30
0.0
 11
246.36449224505188
 21
45.31986548106241
 31
0.0
  0
LINE
  5
60
330
17
100
AcDbEntity
  8
FoilLayer
100
AcDbLine
 10
246.36449224505188
 20
45.31986548106241
 30
0.0
 11
239.90894814111275
 21
46.962309776794655
 31
0.0
  0
LINE
  5
61
330
17
100
AcDbEntity
  8
FoilLayer
100
AcDbLine
 10
239.90894814111275
 20
46.962309776794655
 30
0.0
 11
233.4033602478295
 21
48.58556214687542
 31
0.0
  0
LINE
  5
62
330
17
100
AcDbEntity
  8
FoilLayer
100
AcDbLine
 10
233.4033602478295
 20
48.58556214687542
 30
0.0
 11
226.8324317491437
 21
50.19025556946014
 31
0.0
  0
LINE
  5
63
330
17
100
AcDbEntity
  8
FoilLayer
100
AcDbLine
 10
226.8324317491437
 20
50.19025556946014
 30
0.0
 11
220.21981734251293
 21
51.7767803283049
 31
0.0
  0
LINE
  5
64
330
17
100
AcDbEntity
  8
FoilLayer
100
AcDbLine
 10
220.21981734251293
 20
51.7767803283049
 30
0.0
 11
213.57484748981253
 21
53.35562200564628
 31
0.0
  0
LINE
  5
65
330
17
100
AcDbEntity
  8
FoilLayer
100
AcDbLine
 10
213.57484748981253
 20
53.35562200564628
 30
0.0
 11
206.9125663478533
 21
54.902373593966004
 31
0.0
  0
LINE
  5
66
330
17
100
AcDbEntity
  8
FoilLayer
100
AcDbLine
 10
206.9125663478533
 20
54.902373593966004
 30
0.0
 11
200.23336467922908
 21
56.41063237641513
 31
0.0
  0
LINE
  5
67
330
17
100
AcDbEntity
  8
FoilLayer
100
AcDbLine
 10
200.23336467922908
 20
56.41063237641513
 30
0.0
 11
193.53438644157907
 21
57.87336569541084
 31
0.0
  0
LINE
  5
68
330
17
100
AcDbEntity
  8
FoilLayer
100
AcDbLine
 10
193.53438644157907
 20
57.87336569541084
 30
0.0
 11
186.7986481874722
 21
59.27379628407902
 31
0.0
  0
LINE
  5
69
330
17
100
AcDbEntity
  8
FoilLayer
100
AcDbLine
 10
186.7986481874722
 20
59.27379628407902
 30
0.0
 11
180.0236901731425
 21
60.63010293876772
 31
0.0
  0
LINE
  5
6A
330
17
100
AcDbEntity
  8
FoilLayer
100
AcDbLine
 10
180.0236901731425
 20
60.63010293876772
 30
0.0
 11
173.23208156088648
 21
61.941608083507056
 31
0.0
  0
LINE
  5
6B
330
17
100
AcDbEntity
  8
FoilLayer
100
AcDbLine
 10
173.23208156088648
 20
61.941608083507056
 30
0.0
 11
166.40947850724413
 21
63.202309537126496
 31
0.0
  0
LINE
  5
6C
330
17
100
AcDbEntity
  8
FoilLayer
100
AcDbLine
 10
166.40947850724413
 20
63.202309537126496
 30
0.0
 11
159.57478057485307
 21
64.40590139385908
 31
0.0
  0
LINE
  5
6D
330
17
100
AcDbEntity
  8
FoilLayer
100
AcDbLine
 10
159.57478057485307
 20
64.40590139385908
 30
0.0
 11
152.71434913963967
 21
65.55254761181146
 31
0.0
  0
LINE
  5
6E
330
17
100
AcDbEntity
  8
FoilLayer
100
AcDbLine
 10
152.71434913963967
 20
65.55254761181146
 30
0.0
 11
145.83510793772265
 21
66.64215299008559
 31
0.0
  0
LINE
  5
6F
330
17
100
AcDbEntity
  8
FoilLayer
100
AcDbLine
 10
145.83510793772265
 20
66.64215299008559
 30
0.0
 11
138.9299060967788
 21
67.67483606389368
 31
0.0
  0
LINE
  5
70
330
17
100
AcDbEntity
  8
FoilLayer
100
AcDbLine
 10
138.9299060967788
 20
67.67483606389368
 30
0.0
 11
132.01176535149378
 21
68.65053935911885
 31
0.0
  0
LINE
  5
71
330
17
100
AcDbEntity
  8
FoilLayer
100
AcDbLine
 10
132.01176535149378
 20
68.65053935911885
 30
0.0
 11
125.08751972441749
 21
69.5691962798647
 31
0.0
  0
LINE
  5
72
330
17
100
AcDbEntity
  8
FoilLayer
100
AcDbLine
 10
125.08751972441749
 20
69.5691962798647
 30
0.0
 11
118.15035750139972
 21
70.43086603045907
 31
0.0
  0
LINE
  5
73
330
17
100
AcDbEntity
  8
FoilLayer
100
AcDbLine
 10
118.15035750139972
 20
70.43086603045907
 30
0.0
 11
111.2104467877605
 21
71.23513538574504
 31
0.0
  0
LINE
  5
74
330
17
100
AcDbEntity
  8
FoilLayer
100
AcDbLine
 10
111.2104467877605
 20
71.23513538574504
 30
0.0
 11
104.26062020413926
 21
71.97009819904017
 31
0.0
  0
LINE
  5
75
330
17
100
AcDbEntity
  8
FoilLayer
100
AcDbLine
 10
104.26062020413926
 20
71.97009819904017
 30
0.0
 11
97.30249264106666
 21
72.64821950608385
 31
0.0
  0
LINE
  5
76
330
17
100
AcDbEntity
  8
FoilLayer
100
AcDbLine
 10
97.30249264106666
 20
72.64821950608385
 30
0.0
 11
90.3478534720879
 21
73.27535788213505
 31
0.0
  0
LINE
  5
77
330
17
100
AcDbEntity
  8
FoilLayer
100
AcDbLine
 10
90.3478534720879
 20
73.27535788213505
 30
0.0
 11
83.3960155975083
 21
73.83941471155408
 31
0.0
  0
LINE
  5
78
330
17
100
AcDbEntity
  8
FoilLayer
100
AcDbLine
 10
83.3960155975083
 20
73.83941471155408
 30
0.0
 11
76.45397059572471
 21
74.35254679197894
 31
0.0
  0
LINE
  5
79
330
17
100
AcDbEntity
  8
FoilLayer
100
AcDbLine
 10
76.45397059572471
 20
74.35254679197894
 30
0.0
 11
69.53120714441175
 21
74.80232281851382
 31
0.0
  0
LINE
  5
7A
330
17
100
AcDbEntity
  8
FoilLayer
100
AcDbLine
 10
69.53120714441175
 20
74.80232281851382
 30
0.0
 11
62.62123757471838
 21
75.18875522804288
 31
0.0
  0
LINE
  5
7B
330
17
100
AcDbEntity
  8
FoilLayer
100
AcDbLine
 10
62.62123757471838
 20
75.18875522804288
 30
0.0
 11
55.722151200261834
 21
75.5119193177329
 31
0.0
  0
LINE
  5
7C
330
17
100
AcDbEntity
  8
FoilLayer
100
AcDbLine
 10
55.722151200261834
 20
75.5119193177329
 30
0.0
 11
48.842164783131324
 21
75.77806285947354
 31
0.0
  0
LINE
  5
7D
330
17
100
AcDbEntity
  8
FoilLayer
100
AcDbLine
 10
48.842164783131324
 20
75.77806285947354
 30
0.0
 11
41.987629895973356
 21
75.98718692065088
 31
0.0
  0
LINE
  5
7E
330
17
100
AcDbEntity
  8
FoilLayer
100
AcDbLine
 10
41.987629895973356
 20
75.98718692065088
 30
0.0
 11
35.17330630097089
 21
76.139264706891
 31
0.0
  0
LINE
  5
7F
330
17
100
AcDbEntity
  8
FoilLayer
100
AcDbLine
 10
35.17330630097089
 20
76.139264706891
 30
0.0
 11
28.384514617879034
 21
76.22801091987019
 31
0.0
  0
LINE
  5
80
330
17
100
AcDbEntity
  8
FoilLayer
100
AcDbLine
 10
28.384514617879034
 20
76.22801091987019
 30
0.0
 11
21.63589856608442
 21
76.25344104621577
 31
0.0
  0
LINE
  5
81
330
17
100
AcDbEntity
  8
FoilLayer
100
AcDbLine
 10
21.63589856608442
 20
76.25344104621577
 30
0.0
 11
14.907220089002692
 21
76.20914800696141
 31
0.0
  0
LINE
  5
82
330
17
100
AcDbEntity
  8
FoilLayer
100
AcDbLine
 10
14.907220089002692
 20
76.20914800696141
 30
0.0
 11
8.216895247403755
 21
76.11417488846014
 31
0.0
  0
LINE
  5
83
330
17
100
AcDbEntity
  8
FoilLayer
100
AcDbLine
 10
8.216895247403755
 20
76.11417488846014
 30
0.0
 11
1.581381771540407
 21
75.96864318027252
 31
0.0
  0
LINE
  5
84
330
17
100
AcDbEntity
  8
FoilLayer
100
AcDbLine
 10
1.581381771540407
 20
75.96864318027252
 30
0.0
 11
-5.011128498422579
 21
75.75974019513077
 31
0.0
  0
LINE
  5
85
330
17
100
AcDbEntity
  8
FoilLayer
100
AcDbLine
 10
-5.011128498422579
 20
75.75974019513077
 30
0.0
 11
-11.536204444566238
 21
75.49404824172997
 31
0.0
  0
LINE
  5
86
330
17
100
AcDbEntity
  8
FoilLayer
100
AcDbLine
 10
-11.536204444566238
 20
75.49404824172997
 30
0.0
 11
-18.020356123361125
 21
75.15852815918798
 31
0.0
  0
LINE
  5
87
330
17
100
AcDbEntity
  8
FoilLayer
100
AcDbLine
 10
-18.020356123361125
 20
75.15852815918798
 30
0.0
 11
-24.453445453966197
 21
74.76604575062426
 31
0.0
  0
LINE
  5
88
330
17
100
AcDbEntity
  8
FoilLayer
100
AcDbLine
 10
-24.453445453966197
 20
74.76604575062426
 30
0.0
 11
-30.836982105448755
 21
74.31648850963988
 31
0.0
  0
LINE
  5
89
330
17
100
AcDbEntity
  8
FoilLayer
100
AcDbLine
 10
-30.836982105448755
 20
74.31648850963988
 30
0.0
 11
-37.15013758988812
 21
73.81633018915919
 31
0.0
  0
LINE
  5
8A
330
17
100
AcDbEntity
  8
FoilLayer
100
AcDbLine
 10
-37.15013758988812
 20
73.81633018915919
 30
0.0
 11
-43.38284171696512
 21
73.26595254659536
 31
0.0
  0
LINE
  5
8B
330
17
100
AcDbEntity
  8
FoilLayer
100
AcDbLine
 10
-43.38284171696512
 20
73.26595254659536
 30
0.0
 11
-49.543452177767335
 21
72.65257370870268
 31
0.0
  0
LINE
  5
8C
330
17
100
AcDbEntity
  8
FoilLayer
100
AcDbLine
 10
-49.543452177767335
 20
72.65257370870268
 30
0.0
 11
-55.64605097441293
 21
71.96897197589286
 31
0.0
  0
LINE
  5
8D
330
17
100
AcDbEntity
  8
FoilLayer
100
AcDbLine
 10
-55.64605097441293
 20
71.96897197589286
 30
0.0
 11
-61.67815009539828
 21
71.23483818277425
 31
0.0
  0
LINE
  5
8E
330
17
100
AcDbEntity
  8
FoilLayer
100
AcDbLine
 10
-61.67815009539828
 20
71.23483818277425
 30
0.0
 11
-67.63361932526496
 21
70.45016133899
 31
0.0
  0
LINE
  5
8F
330
17
100
AcDbEntity
  8
FoilLayer
100
AcDbLine
 10
-67.63361932526496
 20
70.45016133899
 30
0.0
 11
-73.5139180003078
 21
69.61473329497754
 31
0.0
  0
LINE
  5
90
330
17
100
AcDbEntity
  8
FoilLayer
100
AcDbLine
 10
-73.5139180003078
 20
69.61473329497754
 30
0.0
 11
-79.30019105221973
 21
68.73587687877573
 31
0.0
  0
LINE
  5
91
330
17
100
AcDbEntity
  8
FoilLayer
100
AcDbLine
 10
-79.30019105221973
 20
68.73587687877573
 30
0.0
 11
-84.99130879441037
 21
67.80015504352183
 31
0.0
  0
LINE
  5
92
330
17
100
AcDbEntity
  8
FoilLayer
100
AcDbLine
 10
-84.99130879441037
 20
67.80015504352183
 30
0.0
 11
-90.60149112235325
 21
66.80727852849087
 31
0.0
  0
LINE
  5
93
330
17
100
AcDbEntity
  8
FoilLayer
100
AcDbLine
 10
-90.60149112235325
 20
66.80727852849087
 30
0.0
 11
-96.12771265574256
 21
65.76414888137698
 31
0.0
  0
LINE
  5
94
330
17
100
AcDbEntity
  8
FoilLayer
100
AcDbLine
 10
-96.12771265574256
 20
65.76414888137698
 30
0.0
 11
-101.56023310315311
 21
64.67018789552992
 31
0.0
  0
LINE
  5
95
330
17
100
AcDbEntity
  8
FoilLayer
100
AcDbLine
 10
-101.56023310315311
 20
64.67018789552992
 30
0.0
 11
-106.89860120842398
 21
63.531793681895174
 31
0.0
  0
LINE
  5
96
330
17
100
AcDbEntity
  8
FoilLayer
100
AcDbLine
 10
-106.89860120842398
 20
63.531793681895174
 30
0.0
 11
-112.1313445692841
 21
62.356493975235196
 31
0.0
  0
LINE
  5
97
330
17
100
AcDbEntity
  8
FoilLayer
100
AcDbLine
 10
-112.1313445692841
 20
62.356493975235196
 30
0.0
 11
-117.24603882431029
 21
61.1380361685898
 31
0.0
  0
LINE
  5
98
330
17
100
AcDbEntity
  8
FoilLayer
100
AcDbLine
 10
-117.24603882431029
 20
61.1380361685898
 30
0.0
 11
-122.26639689481348
 21
59.86263993509702
 31
0.0
  0
LINE
  5
99
330
17
100
AcDbEntity
  8
FoilLayer
100
AcDbLine
 10
-122.26639689481348
 20
59.86263993509702
 30
0.0
 11
-127.18665362817823
 21
58.53645133165299
 31
0.0
  0
LINE
  5
9A
330
17
100
AcDbEntity
  8
FoilLayer
100
AcDbLine
 10
-127.18665362817823
 20
58.53645133165299
 30
0.0
 11
-132.01016983275133
 21
57.16475808771232
 31
0.0
  0
LINE
  5
9B
330
17
100
AcDbEntity
  8
FoilLayer
100
AcDbLine
 10
-132.01016983275133
 20
57.16475808771232
 30
0.0
 11
-136.7121077125475
 21
55.770193972588835
 31
0.0
  0
LINE
  5
9C
330
17
100
AcDbEntity
  8
FoilLayer
100
AcDbLine
 10
-136.7121077125475
 20
55.770193972588835
 30
0.0
 11
-141.3059631077333
 21
54.331703545734605
 31
0.0
  0
LINE
  5
9D
330
17
100
AcDbEntity
  8
FoilLayer
100
AcDbLine
 10
-141.3059631077333
 20
54.331703545734605
 30
0.0
 11
-145.77972911789652
 21
52.855410107326726
 31
0.0
  0
LINE
  5
9E
330
17
100
AcDbEntity
  8
FoilLayer
100
AcDbLine
 10
-145.77972911789652
 20
52.855410107326726
 30
0.0
 11
-150.14278470879134
 21
51.3425033089633
 31
0.0
  0
LINE
  5
9F
330
17
100
AcDbEntity
  8
FoilLayer
100
AcDbLine
 10
-150.14278470879134
 20
51.3425033089633
 30
0.0
 11
-154.38837228247047
 21
49.79086376820233
 31
0.0
  0
LINE
  5
A0
330
17
100
AcDbEntity
  8
FoilLayer
100
AcDbLine
 10
-154.38837228247047
 20
49.79086376820233
 30
0.0
 11
-158.52552667968268
 21
48.20814965694446
 31
0.0
  0
LINE
  5
A1
330
17
100
AcDbEntity
  8
FoilLayer
100
AcDbLine
 10
-158.52552667968268
 20
48.20814965694446
 30
0.0
 11
-162.53977265707184
 21
46.601489799327744
 31
0.0
  0
LINE
  5
A2
330
17
100
AcDbEntity
  8
FoilLayer
100
AcDbLine
 10
-162.53977265707184
 20
46.601489799327744
 30
0.0
 11
-166.42565038790514
 21
44.9706357930129
 31
0.0
  0
LINE
  5
A3
330
17
100
AcDbEntity
  8
FoilLayer
100
AcDbLine
 10
-166.42565038790514
 20
44.9706357930129
 30
0.0
 11
-170.18051349472498
 21
43.316914659913564
 31
0.0
  0
LINE
  5
A4
330
17
100
AcDbEntity
  8
FoilLayer
100
AcDbLine
 10
-170.18051349472498
 20
43.316914659913564
 30
0.0
 11
-173.8133397252519
 21
41.629900348912386
 31
0.0
  0
LINE
  5
A5
330
17
100
AcDbEntity
  8
FoilLayer
100
AcDbLine
 10
-173.8133397252519
 20
41.629900348912386
 30
0.0
 11
-177.32153873098258
 21
39.926527502132956
 31
0.0
  0
LINE
  5
A6
330
17
100
AcDbEntity
  8
FoilLayer
100
AcDbLine
 10
-177.32153873098258
 20
39.926527502132956
 30
0.0
 11
-180.71276314122937
 21
38.19666581099079
 31
0.0
  0
LINE
  5
A7
330
17
100
AcDbEntity
  8
FoilLayer
100
AcDbLine
 10
-180.71276314122937
 20
38.19666581099079
 30
0.0
 11
-183.96360807322503
 21
36.465102424926684
 31
0.0
  0
LINE
  5
A8
330
17
100
AcDbEntity
  8
FoilLayer
100
AcDbLine
 10
-183.96360807322503
 20
36.465102424926684
 30
0.0
 11
-187.08574605799825
 21
34.71287173137067
 31
0.0
  0
LINE
  5
A9
330
17
100
AcDbEntity
  8
FoilLayer
100
AcDbLine
 10
-187.08574605799825
 20
34.71287173137067
 30
0.0
 11
-190.05703506456422
 21
32.96843440802141
 31
0.0
  0
LINE
  5
AA
330
17
100
AcDbEntity
  8
FoilLayer
100
AcDbLine
 10
-190.05703506456422
 20
32.96843440802141
 30
0.0
 11
-192.89664106297005
 21
31.199154083218616
 31
0.0
  0
LINE
  5
AB
330
17
100
AcDbEntity
  8
FoilLayer
100
AcDbLine
 10
-192.89664106297005
 20
31.199154083218616
 30
0.0
 11
-195.59997150675858
 21
29.416404185988988
 31
0.0
  0
LINE
  5
AC
330
17
100
AcDbEntity
  8
FoilLayer
100
AcDbLine
 10
-195.59997150675858
 20
29.416404185988988
 30
0.0
 11
-198.18512066066083
 21
27.62058911204562
 31
0.0
  0
LINE
  5
AD
330
17
100
AcDbEntity
  8
FoilLayer
100
AcDbLine
 10
-198.18512066066083
 20
27.62058911204562
 30
0.0
 11
-200.6306593780007
 21
25.837269630549944
 31
0.0
  0
LINE
  5
AE
330
17
100
AcDbEntity
  8
FoilLayer
100
AcDbLine
 10
-200.6306593780007
 20
25.837269630549944
 30
0.0
 11
-202.92968993994353
 21
24.06260245624082
 31
0.0
  0
LINE
  5
AF
330
17
100
AcDbEntity
  8
FoilLayer
100
AcDbLine
 10
-202.92968993994353
 20
24.06260245624082
 30
0.0
 11
-205.07898218860305
 21
22.305161367164168
 31
0.0
  0
LINE
  5
B0
330
17
100
AcDbEntity
  8
FoilLayer
100
AcDbLine
 10
-205.07898218860305
 20
22.305161367164168
 30
0.0
 11
-207.08470497301045
 21
20.542499431855777
 31
0.0
  0
LINE
  5
B1
330
17
100
AcDbEntity
  8
FoilLayer
100
AcDbLine
 10
-207.08470497301045
 20
20.542499431855777
 30
0.0
 11
-208.95592417423103
 21
18.77806585631145
 31
0.0
  0
LINE
  5
B2
330
17
100
AcDbEntity
  8
FoilLayer
100
AcDbLine
 10
-208.95592417423103
 20
18.77806585631145
 30
0.0
 11
-210.68893757498637
 21
17.034678696099164
 31
0.0
  0
LINE
  5
B3
330
17
100
AcDbEntity
  8
FoilLayer
100
AcDbLine
 10
-210.68893757498637
 20
17.034678696099164
 30
0.0
 11
-212.28728077601488
 21
15.30236234862492
 31
0.0
  0
LINE
  5
B4
330
17
100
AcDbEntity
  8
FoilLayer
100
AcDbLine
 10
-212.28728077601488
 20
15.30236234862492
 30
0.0
 11
-213.74215855703142
 21
13.612116995914715
 31
0.0
  0
LINE
  5
B5
330
17
100
AcDbEntity
  8
FoilLayer
100
AcDbLine
 10
-213.74215855703142
 20
13.612116995914715
 30
0.0
 11
-215.05505720119885
 21
11.942022534956374
 31
0.0
  0
LINE
  5
B6
330
17
100
AcDbEntity
  8
FoilLayer
100
AcDbLine
 10
-215.05505720119885
 20
11.942022534956374
 30
0.0
 11
-216.21755472006055
 21
10.323750329370325
 31
0.0
  0
LINE
  5
B7
330
17
100
AcDbEntity
  8
FoilLayer
100
AcDbLine
 10
-216.21755472006055
 20
10.323750329370325
 30
0.0
 11
-217.22943459592665
 21
8.755593595356313
 31
0.0
  0
LINE
  5
B8
330
17
100
AcDbEntity
  8
FoilLayer
100
AcDbLine
 10
-217.22943459592665
 20
8.755593595356313
 30
0.0
 11
-218.10296228453223
 21
7.206802455110488
 31
0.0
  0
LINE
  5
B9
330
17
100
AcDbEntity
  8
FoilLayer
100
AcDbLine
 10
-218.10296228453223
 20
7.206802455110488
 30
0.0
 11
-218.80342907635577
 21
5.7875703649217005
 31
0.0
  0
LINE
  5
BA
330
17
100
AcDbEntity
  8
FoilLayer
100
AcDbLine
 10
-218.80342907635577
 20
5.7875703649217005
 30
0.0
 11
-219.40626497390386
 21
4.23265207789705
 31
0.0
  0
LINE
  5
BB
330
17
100
AcDbEntity
  8
FoilLayer
100
AcDbLine
 10
-219.40626497390386
 20
4.23265207789705
 30
0.0
 11
-219.80999372140985
 21
3.11985419825471
 31
0.0
  0
LINE
  5
BC
330
17
100
AcDbEntity
  8
FoilLayer
100
AcDbLine
 10
-219.80999372140985
 20
3.11985419825471
 30
0.0
 11
-220.10028847759514
 21
1.664278837615855
 31
0.0
  0
LINE
  5
BD
330
17
100
AcDbEntity
  8
FoilLayer
100
AcDbLine
 10
-220.10028847759514
 20
1.664278837615855
 30
0.0
 11
-220.2499999999998
 21
0.19050571517145495
 31
0.0
  0
LINE
  5
BE
330
17
100
AcDbEntity
  8
FoilLayer
100
AcDbLine
 10
-220.2499999999998
 20
0.19050571517145495
 30
0.0
 11
-220.25729729003197
 21
-0.10966434752289109
 31
0.0
  0
LINE
  5
BF
330
17
100
AcDbEntity
  8
FoilLayer
100
AcDbLine
 10
-220.25729729003197
 20
-0.10966434752289109
 30
0.0
 11
-220.14442853818454
 21
-1.4021037334334476
 31
0.0
  0
LINE
  5
C0
330
17
100
AcDbEntity
  8
FoilLayer
100
AcDbLine
 10
-220.14442853818454
 20
-1.4021037334334476
 30
0.0
 11
-219.86860346252277
 21
-2.322729026550517
 31
0.0
  0
LINE
  5
C1
330
17
100
AcDbEntity
  8
FoilLayer
100
AcDbLine
 10
-219.86860346252277
 20
-2.322729026550517
 30
0.0
 11
-219.44900635785942
 21
-3.2162920777915653
 31
0.0
  0
LINE
  5
C2
330
17
100
AcDbEntity
  8
FoilLayer
100
AcDbLine
 10
-219.44900635785942
 20
-3.2162920777915653
 30
0.0
 11
-218.8267097710264
 21
-4.130204902946398
 31
0.0
  0
LINE
  5
C3
330
17
100
AcDbEntity
  8
FoilLayer
100
AcDbLine
 10
-218.8267097710264
 20
-4.130204902946398
 30
0.0
 11
-218.0525609946799
 21
-5.019078499768728
 31
0.0
  0
LINE
  5
C4
330
17
100
AcDbEntity
  8
FoilLayer
100
AcDbLine
 10
-218.0525609946799
 20
-5.019078499768728
 30
0.0
 11
-217.0902558255577
 21
-5.886954000652024
 31
0.0
  0
LINE
  5
C5
330
17
100
AcDbEntity
  8
FoilLayer
100
AcDbLine
 10
-217.0902558255577
 20
-5.886954000652024
 30
0.0
 11
-215.9553438694694
 21
-6.712893443247076
 31
0.0
  0
LINE
  5
C6
330
17
100
AcDbEntity
  8
FoilLayer
100
AcDbLine
 10
-215.9553438694694
 20
-6.712893443247076
 30
0.0
 11
-214.60952522891836
 21
-7.497013001063092
 31
0.0
  0
LINE
  5
C7
330
17
100
AcDbEntity
  8
FoilLayer
100
AcDbLine
 10
-214.60952522891836
 20
-7.497013001063092
 30
0.0
 11
-213.0011261101197
 21
-8.251287929318936
 31
0.0
  0
LINE
  5
C8
330
17
100
AcDbEntity
  8
FoilLayer
100
AcDbLine
 10
-213.0011261101197
 20
-8.251287929318936
 30
0.0
 11
-211.1508414020505
 21
-8.98972068704519
 31
0.0
  0
LINE
  5
C9
330
17
100
AcDbEntity
  8
FoilLayer
100
AcDbLine
 10
-211.1508414020505
 20
-8.98972068704519
 30
0.0
 11
-209.08551991995554
 21
-9.712171117323098
 31
0.0
  0
LINE
  5
CA
330
17
100
AcDbEntity
  8
FoilLayer
100
AcDbLine
 10
-209.08551991995554
 20
-9.712171117323098
 30
0.0
 11
-206.8752289173613
 21
-10.405950272907228
 31
0.0
  0
LINE
  5
CB
330
17
100
AcDbEntity
  8
FoilLayer
100
AcDbLine
 10
-206.8752289173613
 20
-10.405950272907228
 30
0.0
 11
-204.47617470996613
 21
-11.047346537437825
 31
0.0
  0
LINE
  5
CC
330
17
100
AcDbEntity
  8
FoilLayer
100
AcDbLine
 10
-204.47617470996613
 20
-11.047346537437825
 30
0.0
 11
-201.86940953867204
 21
-11.632936835199496
 31
0.0
  0
LINE
  5
CD
330
17
100
AcDbEntity
  8
FoilLayer
100
AcDbLine
 10
-201.86940953867204
 20
-11.632936835199496
 30
0.0
 11
-199.05159923179815
 21
-12.184392112516665
 31
0.0
  0
LINE
  5
CE
330
17
100
AcDbEntity
  8
FoilLayer
100
AcDbLine
 10
-199.05159923179815
 20
-12.184392112516665
 30
0.0
 11
-196.03330131423812
 21
-12.711836698954393
 31
0.0
  0
LINE
  5
CF
330
17
100
AcDbEntity
  8
FoilLayer
100
AcDbLine
 10
-196.03330131423812
 20
-12.711836698954393
 30
0.0
 11
-192.8617277730998
 21
-13.20662093425182
 31
0.0
  0
LINE
  5
D0
330
17
100
AcDbEntity
  8
FoilLayer
100
AcDbLine
 10
-192.8617277730998
 20
-13.20662093425182
 30
0.0
 11
-189.51486011518438
 21
-13.645847072836489
 31
0.0
  0
LINE
  5
D1
330
17
100
AcDbEntity
  8
FoilLayer
100
AcDbLine
 10
-189.51486011518438
 20
-13.645847072836489
 30
0.0
 11
-185.98049302766546
 21
-14.02977178676654
 31
0.0
  0
LINE
  5
D2
330
17
100
AcDbEntity
  8
FoilLayer
100
AcDbLine
 10
-185.98049302766546
 20
-14.02977178676654
 30
0.0
 11
-182.2359496210478
 21
-14.370871669252434
 31
0.0
  0
LINE
  5
D3
330
17
100
AcDbEntity
  8
FoilLayer
100
AcDbLine
 10
-182.2359496210478
 20
-14.370871669252434
 30
0.0
 11
-178.3047669633653
 21
-14.68697073952603
 31
0.0
  0
LINE
  5
D4
330
17
100
AcDbEntity
  8
FoilLayer
100
AcDbLine
 10
-178.3047669633653
 20
-14.68697073952603
 30
0.0
 11
-174.21558599786061
 21
-14.977418881289775
 31
0.0
  0
LINE
  5
D5
330
17
100
AcDbEntity
  8
FoilLayer
100
AcDbLine
 10
-174.21558599786061
 20
-14.977418881289775
 30
0.0
 11
-169.98111149400603
 21
-15.223440596223428
 31
0.0
  0
LINE
  5
D6
330
17
100
AcDbEntity
  8
FoilLayer
100
AcDbLine
 10
-169.98111149400603
 20
-15.223440596223428
 30
0.0
 11
-165.57103971579824
 21
-15.406792349375694
 31
0.0
  0
LINE
  5
D7
330
17
100
AcDbEntity
  8
FoilLayer
100
AcDbLine
 10
-165.57103971579824
 20
-15.406792349375694
 30
0.0
 11
-160.9854387399469
 21
-15.54602531924423
 31
0.0
  0
LINE
  5
D8
330
17
100
AcDbEntity
  8
FoilLayer
100
AcDbLine
 10
-160.9854387399469
 20
-15.54602531924423
 30
0.0
 11
-156.20261442929112
 21
-15.64741666758976
 31
0.0
  0
LINE
  5
D9
330
17
100
AcDbEntity
  8
FoilLayer
100
AcDbLine
 10
-156.20261442929112
 20
-15.64741666758976
 30
0.0
 11
-151.27416804120367
 21
-15.723420471486637
 31
0.0
  0
LINE
  5
DA
330
17
100
AcDbEntity
  8
FoilLayer
100
AcDbLine
 10
-151.27416804120367
 20
-15.723420471486637
 30
0.0
 11
-146.19468199565458
 21
-15.755145844986249
 31
0.0
  0
LINE
  5
DB
330
17
100
AcDbEntity
  8
FoilLayer
100
AcDbLine
 10
-146.19468199565458
 20
-15.755145844986249
 30
0.0
 11
-140.96794994342167
 21
-15.7362483598077
 31
0.0
  0
LINE
  5
DC
330
17
100
AcDbEntity
  8
FoilLayer
100
AcDbLine
 10
-140.96794994342167
 20
-15.7362483598077
 30
0.0
 11
-135.56180589185317
 21
-15.666560483492407
 31
0.0
  0
LINE
  5
DD
330
17
100
AcDbEntity
  8
FoilLayer
100
AcDbLine
 10
-135.56180589185317
 20
-15.666560483492407
 30
0.0
 11
-129.97926031521584
 21
-15.565067561080944
 31
0.0
  0
LINE
  5
DE
330
17
100
AcDbEntity
  8
FoilLayer
100
AcDbLine
 10
-129.97926031521584
 20
-15.565067561080944
 30
0.0
 11
-124.24223264817581
 21
-15.444646171696842
 31
0.0
  0
LINE
  5
DF
330
17
100
AcDbEntity
  8
FoilLayer
100
AcDbLine
 10
-124.24223264817581
 20
-15.444646171696842
 30
0.0
 11
-118.38397527963019
 21
-15.292709596340229
 31
0.0
  0
LINE
  5
E0
330
17
100
AcDbEntity
  8
FoilLayer
100
AcDbLine
 10
-118.38397527963019
 20
-15.292709596340229
 30
0.0
 11
-112.3810920480426
 21
-15.089895587541358
 31
0.0
  0
LINE
  5
E1
330
17
100
AcDbEntity
  8
FoilLayer
100
AcDbLine
 10
-112.3810920480426
 20
-15.089895587541358
 30
0.0
 11
-106.23147265902422
 21
-14.849008054608921
 31
0.0
  0
LINE
  5
E2
330
17
100
AcDbEntity
  8
FoilLayer
100
AcDbLine
 10
-106.23147265902422
 20
-14.849008054608921
 30
0.0
 11
-99.91299963797941
 21
-14.569598192652567
 31
0.0
  0
LINE
  5
E3
330
17
100
AcDbEntity
  8
FoilLayer
100
AcDbLine
 10
-99.91299963797941
 20
-14.569598192652567
 30
0.0
 11
-93.45467227404527
 21
-14.284121744841945
 31
0.0
  0
LINE
  5
E4
330
17
100
AcDbEntity
  8
FoilLayer
100
AcDbLine
 10
-93.45467227404527
 20
-14.284121744841945
 30
0.0
 11
-86.8837185175916
 21
-13.973348826615261
 31
0.0
  0
LINE
  5
E5
330
17
100
AcDbEntity
  8
FoilLayer
100
AcDbLine
 10
-86.8837185175916
 20
-13.973348826615261
 30
0.0
 11
-80.20159125032743
 21
-13.6310309822129
 31
0.0
  0
LINE
  5
E6
330
17
100
AcDbEntity
  8
FoilLayer
100
AcDbLine
 10
-80.20159125032743
 20
-13.6310309822129
 30
0.0
 11
-73.38205052993169
 21
-13.244073706091198
 31
0.0
  0
LINE
  5
E7
330
17
100
AcDbEntity
  8
FoilLayer
100
AcDbLine
 10
-73.38205052993169
 20
-13.244073706091198
 30
0.0
 11
-66.41998949264098
 21
-12.824826779907939
 31
0.0
  0
LINE
  5
E8
330
17
100
AcDbEntity
  8
FoilLayer
100
AcDbLine
 10
-66.41998949264098
 20
-12.824826779907939
 30
0.0
 11
-63.61796792845996
 21
-12.659264180771011
 31
0.0
  0
LINE
  5
E9
330
17
100
AcDbEntity
  8
FoilLayer
100
AcDbLine
 10
-63.61796792845996
 20
-12.659264180771011
 30
0.0
 11
-63.52654278390344
 21
-14.206565522767075
 31
0.0
  0
LINE
  5
EA
330
17
100
AcDbEntity
  8
FoilLayer
100
AcDbLine
 10
-63.52654278390344
 20
-14.206565522767075
 30
0.0
 11
-59.23584192782303
 21
-13.953041785494067
 31
0.0
  0
LINE
  5
EB
330
17
100
AcDbEntity
  8
FoilLayer
100
AcDbLine
 10
-59.23584192782303
 20
-13.953041785494067
 30
0.0
 11
-52.04863522673136
 21
-13.521303086651445
 31
0.0
  0
LINE
  5
EC
330
17
100
AcDbEntity
  8
FoilLayer
100
AcDbLine
 10
-52.04863522673136
 20
-13.521303086651445
 30
0.0
 11
-44.767245741652886
 21
-13.064238237314253
 31
0.0
  0
LINE
  5
ED
330
17
100
AcDbEntity
  8
FoilLayer
100
AcDbLine
 10
-44.767245741652886
 20
-13.064238237314253
 30
0.0
 11
-37.375918264551274
 21
-12.562593256288139
 31
0.0
  0
LINE
  5
EE
330
17
100
AcDbEntity
  8
FoilLayer
100
AcDbLine
 10
-37.375918264551274
 20
-12.562593256288139
 30
0.0
 11
-29.86955887550218
 21
-12.048198280680428
 31
0.0
  0
LINE
  5
EF
330
17
100
AcDbEntity
  8
FoilLayer
100
AcDbLine
 10
-29.86955887550218
 20
-12.048198280680428
 30
0.0
 11
-22.254987735621967
 21
-11.533786588664341
 31
0.0
  0
LINE
  5
F0
330
17
100
AcDbEntity
  8
FoilLayer
100
AcDbLine
 10
-22.254987735621967
 20
-11.533786588664341
 30
0.0
 11
-14.560118654827136
 21
-11.025877166769764
 31
0.0
  0
LINE
  5
F1
330
17
100
AcDbEntity
  8
FoilLayer
100
AcDbLine
 10
-14.560118654827136
 20
-11.025877166769764
 30
0.0
 11
-6.794593317699537
 21
-10.48616427400271
 31
0.0
  0
LINE
  5
F2
330
17
100
AcDbEntity
  8
FoilLayer
100
AcDbLine
 10
-6.794593317699537
 20
-10.48616427400271
 30
0.0
 11
1.0542409907028798
 21
-9.927347591852577
 31
0.0
  0
LINE
  5
F3
330
17
100
AcDbEntity
  8
FoilLayer
100
AcDbLine
 10
1.0542409907028798
 20
-9.927347591852577
 30
0.0
 11
8.992281501943637
 21
-9.362159209813026
 31
0.0
  0
LINE
  5
F4
330
17
100
AcDbEntity
  8
FoilLayer
100
AcDbLine
 10
8.992281501943637
 20
-9.362159209813026
 30
0.0
 11
17.007172074368384
 21
-8.796926257544733
 31
0.0
  0
LINE
  5
F5
330
17
100
AcDbEntity
  8
FoilLayer
100
AcDbLine
 10
17.007172074368384
 20
-8.796926257544733
 30
0.0
 11
25.084058646785763
 21
-8.244498040425157
 31
0.0
  0
LINE
  5
F6
330
17
100
AcDbEntity
  8
FoilLayer
100
AcDbLine
 10
25.084058646785763
 20
-8.244498040425157
 30
0.0
 11
33.19877846825531
 21
-7.679389203449581
 31
0.0
  0
LINE
  5
F7
330
17
100
AcDbEntity
  8
FoilLayer
100
AcDbLine
 10
33.19877846825531
 20
-7.679389203449581
 30
0.0
 11
41.371719792178766
 21
-7.09515414944722
 31
0.0
  0
LINE
  5
F8
330
17
100
AcDbEntity
  8
FoilLayer
100
AcDbLine
 10
41.371719792178766
 20
-7.09515414944722
 30
0.0
 11
49.60879575164742
 21
-6.510875146461508
 31
0.0
  0
LINE
  5
F9
330
17
100
AcDbEntity
  8
FoilLayer
100
AcDbLine
 10
49.60879575164742
 20
-6.510875146461508
 30
0.0
 11
57.896571332488094
 21
-5.939305092219403
 31
0.0
  0
LINE
  5
FA
330
17
100
AcDbEntity
  8
FoilLayer
100
AcDbLine
 10
57.896571332488094
 20
-5.939305092219403
 30
0.0
 11
66.20869875316114
 21
-5.380506692893439
 31
0.0
  0
LINE
  5
FB
330
17
100
AcDbEntity
  8
FoilLayer
100
AcDbLine
 10
66.20869875316114
 20
-5.380506692893439
 30
0.0
 11
74.53987801954295
 21
-4.815358181338677
 31
0.0
  0
LINE
  5
FC
330
17
100
AcDbEntity
  8
FoilLayer
100
AcDbLine
 10
74.53987801954295
 20
-4.815358181338677
 30
0.0
 11
82.89054047933902
 21
-4.243829981495547
 31
0.0
  0
LINE
  5
FD
330
17
100
AcDbEntity
  8
FoilLayer
100
AcDbLine
 10
82.89054047933902
 20
-4.243829981495547
 30
0.0
 11
91.28657329972421
 21
-3.6722405520154875
 31
0.0
  0
LINE
  5
FE
330
17
100
AcDbEntity
  8
FoilLayer
100
AcDbLine
 10
91.28657329972421
 20
-3.6722405520154875
 30
0.0
 11
99.70190470019273
 21
-3.1196886914209405
 31
0.0
  0
LINE
  5
FF
330
17
100
AcDbEntity
  8
FoilLayer
100
AcDbLine
 10
99.70190470019273
 20
-3.1196886914209405
 30
0.0
 11
108.10951450282275
 21
-2.5926255411531254
 31
0.0
  0
LINE
  5
100
330
17
100
AcDbEntity
  8
FoilLayer
100
AcDbLine
 10
108.10951450282275
 20
-2.5926255411531254
 30
0.0
 11
116.50376789962817
 21
-2.0656041258369684
 31
0.0
  0
LINE
  5
101
330
17
100
AcDbEntity
  8
FoilLayer
100
AcDbLine
 10
116.50376789962817
 20
-2.0656041258369684
 30
0.0
 11
124.89306800942794
 21
-1.5257935361929775
 31
0.0
  0
LINE
  5
102
330
17
100
AcDbEntity
  8
FoilLayer
100
AcDbLine
 10
124.89306800942794
 20
-1.5257935361929775
 30
0.0
 11
133.28933327199442
 21
-0.9986471910023378
 31
0.0
  0
LINE
  5
103
330
17
100
AcDbEntity
  8
FoilLayer
100
AcDbLine
 10
133.28933327199442
 20
-0.9986471910023378
 30
0.0
 11
141.67216370123103
 21
-0.49694786548570374
 31
0.0
  0
LINE
  5
104
330
17
100
AcDbEntity
  8
FoilLayer
100
AcDbLine
 10
141.67216370123103
 20
-0.49694786548570374
 30
0.0
 11
150.02284630117433
 21
-0.00797257156602077
 31
0.0
  0
LINE
  5
105
330
17
100
AcDbEntity
  8
FoilLayer
100
AcDbLine
 10
150.02284630117433
 20
-0.00797257156602077
 30
0.0
 11
158.32212179239409
 21
0.47461708071952563
 31
0.0
  0
LINE
  5
106
330
17
100
AcDbEntity
  8
FoilLayer
100
AcDbLine
 10
158.32212179239409
 20
0.47461708071952563
 30
0.0
 11
166.59702786191494
 21
0.9636172569901331
 31
0.0
  0
LINE
  5
107
330
17
100
AcDbEntity
  8
FoilLayer
100
AcDbLine
 10
166.59702786191494
 20
0.9636172569901331
 30
0.0
 11
174.84719084822396
 21
1.4399528237514336
 31
0.0
  0
LINE
  5
108
330
17
100
AcDbEntity
  8
FoilLayer
100
AcDbLine
 10
174.84719084822396
 20
1.4399528237514336
 30
0.0
 11
183.058824531655
 21
1.8908615474308996
 31
0.0
  0
LINE
  5
109
330
17
100
AcDbEntity
  8
FoilLayer
100
AcDbLine
 10
183.058824531655
 20
1.8908615474308996
 30
0.0
 11
191.19958190632397
 21
2.3226645517467466
 31
0.0
  0
LINE
  5
10A
330
17
100
AcDbEntity
  8
FoilLayer
100
AcDbLine
 10
191.19958190632397
 20
2.3226645517467466
 30
0.0
 11
199.2765181770931
 21
2.754450167232912
 31
0.0
  0
LINE
  5
10B
330
17
100
AcDbEntity
  8
FoilLayer
100
AcDbLine
 10
199.2765181770931
 20
2.754450167232912
 30
0.0
 11
207.30443023713124
 21
3.1926809050560996
 31
0.0
  0
LINE
  5
10C
330
17
100
AcDbEntity
  8
FoilLayer
100
AcDbLine
 10
207.30443023713124
 20
3.1926809050560996
 30
0.0
 11
215.28188234388446
 21
3.6055238531896103
 31
0.0
  0
LINE
  5
10D
330
17
100
AcDbEntity
  8
FoilLayer
100
AcDbLine
 10
215.28188234388446
 20
3.6055238531896103
 30
0.0
 11
223.19506641819552
 21
3.986575256540086
 31
0.0
  0
LINE
  5
10E
330
17
100
AcDbEntity
  8
FoilLayer
100
AcDbLine
 10
223.19506641819552
 20
3.986575256540086
 30
0.0
 11
231.01826258821242
 21
4.348525015916593
 31
0.0
  0
LINE
  5
10F
330
17
100
AcDbEntity
  8
FoilLayer
100
AcDbLine
 10
231.01826258821242
 20
4.348525015916593
 30
0.0
 11
238.75334658511846
 21
4.71051136582156
 31
0.0
  0
LINE
  5
110
330
17
100
AcDbEntity
  8
FoilLayer
100
AcDbLine
 10
238.75334658511846
 20
4.71051136582156
 30
0.0
 11
246.41969866291336
 21
5.059844922916497
 31
0.0
  0
LINE
  5
111
330
17
100
AcDbEntity
  8
FoilLayer
100
AcDbLine
 10
246.41969866291336
 20
5.059844922916497
 30
0.0
 11
254.010600881547
 21
5.377449346997905
 31
0.0
  0
LINE
  5
112
330
17
100
AcDbEntity
  8
FoilLayer
100
AcDbLine
 10
254.010600881547
 20
5.377449346997905
 30
0.0
 11
261.50551759541486
 21
5.6505660067904335
 31
0.0
  0
LINE
  5
113
330
17
100
AcDbEntity
  8
FoilLayer
100
AcDbLine
 10
261.50551759541486
 20
5.6505660067904335
 30
0.0
 11
268.89133083155184
 21
5.891890618332259
 31
0.0
  0
LINE
  5
114
330
17
100
AcDbEntity
  8
FoilLayer
100
AcDbLine
 10
268.89133083155184
 20
5.891890618332259
 30
0.0
 11
276.1577511909294
 21
6.120550581463732
 31
0.0
  0
LINE
  5
115
330
17
100
AcDbEntity
  8
FoilLayer
100
AcDbLine
 10
276.1577511909294
 20
6.120550581463732
 30
0.0
 11
283.3301537480537
 21
6.3174796287296395
 31
0.0
  0
LINE
  5
116
330
17
100
AcDbEntity
  8
FoilLayer
100
AcDbLine
 10
283.3301537480537
 20
6.3174796287296395
 30
0.0
 11
290.38833157675435
 21
6.4635877266456445
 31
0.0
  0
LINE
  5
117
330
17
100
AcDbEntity
  8
FoilLayer
100
AcDbLine
 10
290.38833157675435
 20
6.4635877266456445
 30
0.0
 11
297.30565766009147
 21
6.558863393175114
 31
0.0
  0
LINE
  5
118
330
17
100
AcDbEntity
  8
FoilLayer
100
AcDbLine
 10
297.30565766009147
 20
6.558863393175114
 30
0.0
 11
304.06346653027197
 21
6.622375017758541
 31
0.0
  0
LINE
  5
119
330
17
100
AcDbEntity
  8
FoilLayer
100
AcDbLine
 10
304.06346653027197
 20
6.622375017758541
 30
0.0
 11
310.6829468255563
 21
6.666836288832498
 31
0.0
  0
LINE
  5
11A
330
17
100
AcDbEntity
  8
FoilLayer
100
AcDbLine
 10
310.6829468255563
 20
6.666836288832498
 30
0.0
 11
317.16374806832664
 21
6.6731755599314235
 31
0.0
  0
LINE
  5
11B
330
17
100
AcDbEntity
  8
FoilLayer
100
AcDbLine
 10
317.16374806832664
 20
6.6731755599314235
 30
0.0
 11
323.4850709620406
 21
6.628694702994476
 31
0.0
  0
LINE
  5
11C
330
17
100
AcDbEntity
  8
FoilLayer
100
AcDbLine
 10
323.4850709620406
 20
6.628694702994476
 30
0.0
 11
329.62781910068134
 21
6.546108840785243
 31
0.0
  0
LINE
  5
11D
330
17
100
AcDbEntity
  8
FoilLayer
100
AcDbLine
 10
329.62781910068134
 20
6.546108840785243
 30
0.0
 11
335.5801664446751
 21
6.438109872246058
 31
0.0
  0
LINE
  5
11E
330
17
100
AcDbEntity
  8
FoilLayer
100
AcDbLine
 10
335.5801664446751
 20
6.438109872246058
 30
0.0
 11
341.36171749990626
 21
6.304680253221581
 31
0.0
  0
LINE
  5
11F
330
17
100
AcDbEntity
  8
FoilLayer
100
AcDbLine
 10
341.36171749990626
 20
6.304680253221581
 30
0.0
 11
346.96623529853525
 21
6.139452886385319
 31
0.0
  0
LINE
  5
120
330
17
100
AcDbEntity
  8
FoilLayer
100
AcDbLine
 10
346.96623529853525
 20
6.139452886385319
 30
0.0
 11
352.37367183305025
 21
5.936104961428171
 31
0.0
  0
LINE
  5
121
330
17
100
AcDbEntity
  8
FoilLayer
100
AcDbLine
 10
352.37367183305025
 20
5.936104961428171
 30
0.0
 11
357.5695518954718
 21
5.7010812305535135
 31
0.0
  0
LINE
  5
122
330
17
100
AcDbEntity
  8
FoilLayer
100
AcDbLine
 10
357.5695518954718
 20
5.7010812305535135
 30
0.0
 11
362.5577209960261
 21
5.459603796066523
 31
0.0
  0
LINE
  5
123
330
17
100
AcDbEntity
  8
FoilLayer
100
AcDbLine
 10
362.5577209960261
 20
5.459603796066523
 30
0.0
 11
367.3493889926449
 21
5.192679237344164
 31
0.0
  0
LINE
  5
124
330
17
100
AcDbEntity
  8
FoilLayer
100
AcDbLine
 10
367.3493889926449
 20
5.192679237344164
 30
0.0
 11
371.93333656879213
 21
4.900188754165661
 31
0.0
  0
LINE
  5
125
330
17
100
AcDbEntity
  8
FoilLayer
100
AcDbLine
 10
371.93333656879213
 20
4.900188754165661
 30
0.0
 11
376.27949416415333
 21
4.56977137270314
 31
0.0
  0
LINE
  5
126
330
17
100
AcDbEntity
  8
FoilLayer
100
AcDbLine
 10
376.27949416415333
 20
4.56977137270314
 30
0.0
 11
380.3903431325516
 21
4.233019042756353
 31
0.0
  0
LINE
  5
127
330
17
100
AcDbEntity
  8
FoilLayer
100
AcDbLine
 10
380.3903431325516
 20
4.233019042756353
 30
0.0
 11
384.2599685822315
 21
3.8962473507545283
 31
0.0
  0
LINE
  5
128
330
17
100
AcDbEntity
  8
FoilLayer
100
AcDbLine
 10
384.2599685822315
 20
3.8962473507545283
 30
0.0
 11
387.9087108905336
 21
3.5593268790762194
 31
0.0
  0
LINE
  5
129
330
17
100
AcDbEntity
  8
FoilLayer
100
AcDbLine
 10
387.9087108905336
 20
3.5593268790762194
 30
0.0
 11
391.3167039614666
 21
3.2159635026063684
 31
0.0
  0
LINE
  5
12A
330
17
100
AcDbEntity
  8
FoilLayer
100
AcDbLine
 10
391.3167039614666
 20
3.2159635026063684
 30
0.0
 11
394.4822789521936
 21
2.8663403546490147
 31
0.0
  0
LINE
  5
12B
330
17
100
AcDbEntity
  8
FoilLayer
100
AcDbLine
 10
394.4822789521936
 20
2.8663403546490147
 30
0.0
 11
397.40104205659964
 21
2.5229380583865515
 31
0.0
  0
LINE
  5
12C
330
17
100
AcDbEntity
  8
FoilLayer
100
AcDbLine
 10
397.40104205659964
 20
2.5229380583865515
 30
0.0
 11
400.05767424200394
 21
2.1860865726559138
 31
0.0
  0
LINE
  5
12D
330
17
100
AcDbEntity
  8
FoilLayer
100
AcDbLine
 10
400.05767424200394
 20
2.1860865726559138
 30
0.0
 11
402.4662228681075
 21
1.868332288549492
 31
0.0
  0
LINE
  5
12E
330
17
100
AcDbEntity
  8
FoilLayer
100
AcDbLine
 10
402.4662228681075
 20
1.868332288549492
 30
0.0
 11
404.6142955869841
 21
1.575987696045638
 31
0.0
  0
LINE
  5
12F
330
17
100
AcDbEntity
  8
FoilLayer
100
AcDbLine
 10
404.6142955869841
 20
1.575987696045638
 30
0.0
 11
406.52060081896457
 21
1.3091031809502494
 31
0.0
  0
LINE
  5
130
330
17
100
AcDbEntity
  8
FoilLayer
100
AcDbLine
 10
406.52060081896457
 20
1.3091031809502494
 30
0.0
 11
408.16614642220065
 21
1.0740244171915685
 31
0.0
  0
LINE
  5
131
330
17
100
AcDbEntity
  8
FoilLayer
100
AcDbLine
 10
408.16614642220065
 20
1.0740244171915685
 30
0.0
 11
409.5714451028098
 21
0.8705380860696219
 31
0.0
  0
LINE
  5
132
330
17
100
AcDbEntity
  8
FoilLayer
100
AcDbLine
 10
409.5714451028098
 20
0.8705380860696219
 30
0.0
 11
410.7228628658703
 21
0.6987748841956354
 31
0.0
  0
LINE
  5
133
330
17
100
AcDbEntity
  8
FoilLayer
100
AcDbLine
 10
410.7228628658703
 20
0.6987748841956354
 30
0.0
 11
411.63224987124295
 21
0.5588672160039739
 31
0.0
  0
LINE
  5
134
330
17
100
AcDbEntity
  8
FoilLayer
100
AcDbLine
 10
411.63224987124295
 20
0.5588672160039739
 30
0.0
 11
412.2738734171538
 21
0.45817765318279435
 31
0.0
  0
LINE
  5
135
330
17
100
AcDbEntity
  8
FoilLayer
100
AcDbLine
 10
412.2738734171538
 20
0.45817765318279435
 30
0.0
 11
412.6907942558636
 21
0.3982901260413612
 31
0.0
  0
LINE
  5
136
330
17
100
AcDbEntity
  8
FoilLayer
100
AcDbLine
 10
412.6907942558636
 20
0.3982901260413612
 30
0.0
 11
412.83049844699235
 21
0.3728893640179599
 31
0.0
  0
LINE
  5
137
330
17
100
AcDbEntity
  8
FoilLayer
100
AcDbLine
 10
412.83049844699235
 20
0.3728893640179599
 30
0.0
 11
412.60134230920687
 21
-0.39298530795334347
 31
0.0
  0
LINE
  5
138
330
17
100
AcDbEntity
  8
StringerLayer
100
AcDbLine
 10
218.90537735168758
 20
47.97862443759473
 30
0.0
 11
222.79499431661034
 21
47.045414993694166
 31
0.0
  0
LINE
  5
139
330
17
100
AcDbEntity
  8
StringerLayer
100
AcDbLine
 10
222.79499431661034
 20
47.045414993694166
 30
0.0
 11
223.72820376051092
 21
50.935031958616904
 31
0.0
  0
LINE
  5
13A
330
17
100
AcDbEntity
  8
StringerLayer
100
AcDbLine
 10
223.72820376051092
 20
50.935031958616904
 30
0.0
 11
219.83858679558816
 21
51.86824140251747
 31
0.0
  0
LINE
  5
13B
330
17
100
AcDbEntity
  8
StringerLayer
100
AcDbLine
 10
219.83858679558816
 20
51.86824140251747
 30
0.0
 11
218.90537735168758
 21
47.97862443759473
 31
0.0
  0
LINE
  5
13C
330
17
100
AcDbEntity
  8
StringerLayer
100
AcDbLine
 10
-64.69898658465513
 20
66.80218865080172
 30
0.0
 11
-60.73326988841191
 21
67.32476982644599
 31
0.0
  0
LINE
  5
13D
330
17
100
AcDbEntity
  8
StringerLayer
100
AcDbLine
 10
-60.73326988841191
 20
67.32476982644599
 30
0.0
 11
-61.25585106405619
 21
71.2904865226892
 31
0.0
  0
LINE
  5
13E
330
17
100
AcDbEntity
  8
StringerLayer
100
AcDbLine
 10
-61.25585106405619
 20
71.2904865226892
 30
0.0
 11
-65.22156776029941
 21
70.76790534704494
 31
0.0
  0
LINE
  5
13F
330
17
100
AcDbEntity
  8
StringerLayer
100
AcDbLine
 10
-65.22156776029941
 20
70.76790534704494
 30
0.0
 11
-64.69898658465513
 21
66.80218865080172
 31
0.0
  0
LINE
  5
140
330
17
100
AcDbEntity
  8
StringerLayer
100
AcDbLine
 10
-158.47379606549893
 20
43.94488896002185
 30
0.0
 11
-154.73792407391787
 21
45.37431558021614
 31
0.0
  0
LINE
  5
141
330
17
100
AcDbEntity
  8
StringerLayer
100
AcDbLine
 10
-154.73792407391787
 20
45.37431558021614
 30
0.0
 11
-156.16735069411217
 21
49.11018757179721
 31
0.0
  0
LINE
  5
142
330
17
100
AcDbEntity
  8
StringerLayer
100
AcDbLine
 10
-156.16735069411217
 20
49.11018757179721
 30
0.0
 11
-159.90322268569324
 21
47.68076095160292
 31
0.0
  0
LINE
  5
143
330
17
100
AcDbEntity
  8
StringerLayer
100
AcDbLine
 10
-159.90322268569324
 20
47.68076095160292
 30
0.0
 11
-158.47379606549893
 21
43.94488896002185
 31
0.0
  0
LINE
  5
144
330
17
100
AcDbEntity
  8
StringerLayer
100
AcDbLine
 10
-211.01029726221984
 20
8.994048808747166
 30
0.0
 11
-209.7756688568376
 21
10.567482220310332
 31
0.0
  0
LINE
  5
145
330
17
100
AcDbEntity
  8
StringerLayer
100
AcDbLine
 10
-209.7756688568376
 20
10.567482220310332
 30
0.0
 11
-213.70925238574551
 21
13.654053233765936
 31
0.0
  0
LINE
  5
146
330
17
100
AcDbEntity
  8
StringerLayer
100
AcDbLine
 10
-213.70925238574551
 20
13.654053233765936
 30
0.0
 11
-214.94388079112775
 21
12.08061982220277
 31
0.0
  0
LINE
  5
147
330
17
100
AcDbEntity
  8
StringerLayer
100
AcDbLine
 10
-214.94388079112775
 20
12.08061982220277
 30
0.0
 11
-211.01029726221984
 21
8.994048808747166
 31
0.0
  0
LINE
  5
148
330
17
100
AcDbEntity
  8
StringerLayer
100
AcDbLine
 10
-213.68185638414735
 20
-2.2123954909526815
 30
0.0
 11
-215.1780733439021
 21
-0.8852425949598
 31
0.0
  0
LINE
  5
149
330
17
100
AcDbEntity
  8
StringerLayer
100
AcDbLine
 10
-215.1780733439021
 20
-0.8852425949598
 30
0.0
 11
-218.4959555838843
 21
-4.625784994346642
 31
0.0
  0
LINE
  5
14A
330
17
100
AcDbEntity
  8
StringerLayer
100
AcDbLine
 10
-218.4959555838843
 20
-4.625784994346642
 30
0.0
 11
-216.99973862412955
 21
-5.952937890339523
 31
0.0
  0
LINE
  5
14B
330
17
100
AcDbEntity
  8
StringerLayer
100
AcDbLine
 10
-216.99973862412955
 20
-5.952937890339523
 30
0.0
 11
-213.68185638414735
 21
-2.2123954909526815
 31
0.0
  0
LINE
  5
14C
330
17
100
AcDbEntity
  8
StringerLayer
100
AcDbLine
 10
-93.51691835622844
 20
-10.28295761477991
 30
0.0
 11
-97.51301602974505
 21
-10.459602410104463
 31
0.0
  0
LINE
  5
14D
330
17
100
AcDbEntity
  8
StringerLayer
100
AcDbLine
 10
-97.51301602974505
 20
-10.459602410104463
 30
0.0
 11
-97.3363712344205
 21
-14.455700083621059
 31
0.0
  0
LINE
  5
14E
330
17
100
AcDbEntity
  8
StringerLayer
100
AcDbLine
 10
-97.3363712344205
 20
-14.455700083621059
 30
0.0
 11
-93.3402735609039
 21
-14.279055288296506
 31
0.0
  0
LINE
  5
14F
330
17
100
AcDbEntity
  8
StringerLayer
100
AcDbLine
 10
-93.3402735609039
 20
-14.279055288296506
 30
0.0
 11
-93.51691835622844
 21
-10.28295761477991
 31
0.0
  0
LINE
  5
150
330
17
100
AcDbEntity
  8
SubLayer
100
AcDbLine
 10
-222.2499999999998
 20
0.0
 30
0.0
 11
-218.2499999999998
 21
0.0
 31
0.0
  0
LINE
  5
151
330
17
100
AcDbEntity
  8
SubLayer
100
AcDbLine
 10
61.49999999999997
 20
0.0
 30
0.0
 11
71.84999999999994
 21
0.0
 31
0.0
  0
LINE
  5
152
330
17
100
AcDbEntity
  8
SubLayer
100
AcDbLine
 10
-47.59598813678439
 20
32.070897298557995
 30
0.0
 11
-39.600861520631625
 21
32.350093272178
 31
0.0
  0
LINE
  5
153
330
17
100
AcDbEntity
  8
SubLayer
100
AcDbLine
 10
39.600861520631625
 20
35.115878385851204
 30
0.0
 11
47.59598813678439
 21
35.39507435947121
 31
0.0
  0
LINE
  5
154
330
17
100
AcDbEntity
  8
SubLayer
100
AcDbLine
 10
-1.3357782362882233
 20
71.98466973317045
 30
0.0
 11
-1.0565822626682155
 21
63.98954311701769
 31
0.0
  0
LINE
  5
155
330
17
100
AcDbEntity
  8
SubLayer
100
AcDbLine
 10
1.3357782362882233
 20
-4.518698075141252
 30
0.0
 11
1.0565822626682155
 21
3.476428541011515
 31
0.0
  0
LINE
  5
156
330
17
100
AcDbEntity
  8
SubLayer
100
AcDbLine
 10
-45.52740748934119
 20
30.141914637924803
 30
0.0
 11
-41.529844181264814
 21
30.28151262473481
 31
0.0
  0
LINE
  5
157
330
17
100
AcDbEntity
  8
SubLayer
100
AcDbLine
 10
-41.529844181264814
 20
30.28151262473481
 30
0.0
 11
-41.669442168074816
 21
34.27907593281119
 31
0.0
  0
LINE
  5
158
330
17
100
AcDbEntity
  8
SubLayer
100
AcDbLine
 10
-41.669442168074816
 20
34.27907593281119
 30
0.0
 11
-45.667005476151196
 21
34.139477946001186
 31
0.0
  0
LINE
  5
159
330
17
100
AcDbEntity
  8
SubLayer
100
AcDbLine
 10
-45.667005476151196
 20
34.139477946001186
 30
0.0
 11
-45.52740748934119
 21
30.141914637924803
 31
0.0
  0
LINE
  5
15A
330
17
100
AcDbEntity
  8
SubLayer
100
AcDbLine
 10
41.669442168074816
 20
33.186895725218015
 30
0.0
 11
45.667005476151196
 21
33.32649371202802
 31
0.0
  0
LINE
  5
15B
330
17
100
AcDbEntity
  8
SubLayer
100
AcDbLine
 10
45.667005476151196
 20
33.32649371202802
 30
0.0
 11
45.52740748934119
 21
37.3240570201044
 31
0.0
  0
LINE
  5
15C
330
17
100
AcDbEntity
  8
SubLayer
100
AcDbLine
 10
45.52740748934119
 20
37.3240570201044
 30
0.0
 11
41.529844181264814
 21
37.184459033294395
 31
0.0
  0
LINE
  5
15D
330
17
100
AcDbEntity
  8
SubLayer
100
AcDbLine
 10
41.529844181264814
 20
37.184459033294395
 30
0.0
 11
41.669442168074816
 21
33.186895725218015
 31
0.0
  0
LINE
  5
15E
330
17
100
AcDbEntity
  8
SubLayer
100
AcDbLine
 10
-3.125162910111409
 20
65.91852577765087
 30
0.0
 11
0.8724003979649742
 21
66.05812376446087
 31
0.0
  0
LINE
  5
15F
330
17
100
AcDbEntity
  8
SubLayer
100
AcDbLine
 10
0.8724003979649742
 20
66.05812376446087
 30
0.0
 11
0.7328024111549702
 21
70.05568707253727
 31
0.0
  0
LINE
  5
160
330
17
100
AcDbEntity
  8
SubLayer
100
AcDbLine
 10
0.7328024111549702
 20
70.05568707253727
 30
0.0
 11
-3.264760896921413
 21
69.91608908572726
 31
0.0
  0
LINE
  5
161
330
17
100
AcDbEntity
  8
SubLayer
100
AcDbLine
 10
-3.264760896921413
 20
69.91608908572726
 30
0.0
 11
-3.125162910111409
 21
65.91852577765087
 31
0.0
  0
LINE
  5
162
330
17
100
AcDbEntity
  8
SubLayer
100
AcDbLine
 10
-0.7328024111549702
 20
-2.589715414508062
 30
0.0
 11
3.264760896921413
 21
-2.450117427698058
 31
0.0
  0
LINE
  5
163
330
17
100
AcDbEntity
  8
SubLayer
100
AcDbLine
 10
3.264760896921413
 20
-2.450117427698058
 30
0.0
 11
3.125162910111409
 21
1.547445880378325
 31
0.0
  0
LINE
  5
164
330
17
100
AcDbEntity
  8
SubLayer
100
AcDbLine
 10
3.125162910111409
 20
1.547445880378325
 30
0.0
 11
-0.8724003979649742
 21
1.4078478935683212
 31
0.0
  0
LINE
  5
165
330
17
100
AcDbEntity
  8
SubLayer
100
AcDbLine
 10
-0.8724003979649742
 20
1.4078478935683212
 30
0.0
 11
-0.7328024111549702
 21
-2.589715414508062
 31
0.0
  0
LINE
  5
166
330
17
100
AcDbEntity
  8
SubLayer
100
AcDbLine
 10
316.8800186140655
 20
27.124067215853863
 30
0.0
 11
320.8775819221418
 21
27.263665202663866
 31
0.0
  0
LINE
  5
167
330
17
100
AcDbEntity
  8
SubLayer
100
AcDbLine
 10
-219.39105953368463
 20
8.397068510765289
 30
0.0
 11
-215.39349622560823
 21
8.536666497575292
 31
0.0
  0
LINE
  5
168
330
17
100
AcDbEntity
  8
SubLayer
100
AcDbLine
 10
-113.1362347311537
 20
12.107568755080504
 30
0.0
 11
-107.13988976903914
 21
12.316965735295508
 31
0.0
  0
LINE
  5
169
330
17
100
AcDbEntity
  8
SubLayer
100
AcDbLine
 10
208.62641215749636
 20
23.34376797813365
 30
0.0
 11
214.62275711961092
 21
23.553164958348653
 31
0.0
  0
LINE
  5
16A
330
17
100
AcDbEntity
  8
SubLayer
100
AcDbLine
 10
47.74508871317132
 20
17.725668366607074
 30
0.0
 11
53.7414336752859
 21
17.93506534682208
 31
0.0
  0
LINE
  5
16B
330
17
100
AcDbEntity
  8
SubLayer
100
AcDbLine
 10
-108.06948160265323
 20
10.283284584554815
 30
0.0
 11
-108.20907958946323
 21
14.280847892631199
 31
0.0
  0
LINE
  5
16C
330
17
100
AcDbEntity
  8
SubLayer
100
AcDbLine
 10
-108.20907958946323
 20
14.280847892631199
 30
0.0
 11
-112.20664289753962
 21
14.141249905821196
 31
0.0
  0
LINE
  5
16D
330
17
100
AcDbEntity
  8
SubLayer
100
AcDbLine
 10
-112.20664289753962
 20
14.141249905821196
 30
0.0
 11
-112.06704491072962
 21
10.143686597744813
 31
0.0
  0
LINE
  5
16E
330
17
100
AcDbEntity
  8
SubLayer
100
AcDbLine
 10
-112.06704491072962
 20
10.143686597744813
 30
0.0
 11
-108.06948160265323
 21
10.283284584554815
 31
0.0
  0
LINE
  5
16F
330
17
100
AcDbEntity
  8
SubLayer
100
AcDbLine
 10
213.69316528599683
 20
21.519483807607962
 30
0.0
 11
213.55356729918682
 21
25.517047115684345
 31
0.0
  0
LINE
  5
170
330
17
100
AcDbEntity
  8
SubLayer
100
AcDbLine
 10
213.55356729918682
 20
25.517047115684345
 30
0.0
 11
209.55600399111046
 21
25.37744912887434
 31
0.0
  0
LINE
  5
171
330
17
100
AcDbEntity
  8
SubLayer
100
AcDbLine
 10
209.55600399111046
 20
25.37744912887434
 30
0.0
 11
209.69560197792046
 21
21.379885820797956
 31
0.0
  0
LINE
  5
172
330
17
100
AcDbEntity
  8
SubLayer
100
AcDbLine
 10
209.69560197792046
 20
21.379885820797956
 30
0.0
 11
213.69316528599683
 21
21.519483807607962
 31
0.0
  0
LINE
  5
173
330
17
100
AcDbEntity
  8
SubLayer
100
AcDbLine
 10
52.8118418416718
 20
15.901384196081386
 30
0.0
 11
52.6722438548618
 21
19.89894750415777
 31
0.0
  0
LINE
  5
174
330
17
100
AcDbEntity
  8
SubLayer
100
AcDbLine
 10
52.6722438548618
 20
19.89894750415777
 30
0.0
 11
48.67468054678542
 21
19.759349517347765
 31
0.0
  0
LINE
  5
175
330
17
100
AcDbEntity
  8
SubLayer
100
AcDbLine
 10
48.67468054678542
 20
19.759349517347765
 30
0.0
 11
48.81427853359542
 21
15.761786209271383
 31
0.0
  0
LINE
  5
176
330
17
100
AcDbEntity
  8
SubLayer
100
AcDbLine
 10
48.81427853359542
 20
15.761786209271383
 30
0.0
 11
52.8118418416718
 21
15.901384196081386
 31
0.0
  0
LINE
  5
177
330
17
100
AcDbEntity
  8
SubLayer
100
AcDbLine
 10
393.47102100174715
 20
5.345181227627384
 30
0.0
 11
393.7621968045317
 21
6.301850790158143
 31
0.0
  0
LINE
  5
178
330
17
100
AcDbEntity
  8
SubLayer
100
AcDbLine
 10
392.90548971969383
 20
2.537896869464301
 30
0.0
 11
393.0570964366732
 21
3.5263377646961573
 31
0.0
  0
LINE
  5
179
330
17
100
AcDbEntity
  8
SubLayer
100
AcDbLine
 10
374.2940408401399
 20
11.017659935794672
 30
0.0
 11
374.5814549523674
 21
11.975466350521835
 31
0.0
  0
LINE
  5
17A
330
17
100
AcDbEntity
  8
SubLayer
100
AcDbLine
 10
372.9808750156837
 20
4.3196100083627895
 30
0.0
 11
373.1012746232282
 21
5.312335516498412
 31
0.0
  0
LINE
  5
17B
330
17
100
AcDbEntity
  8
SubLayer
100
AcDbLine
 10
335.80896038842116
 20
21.916341920742433
 30
0.0
 11
336.08891475392875
 21
22.876355229625837
 31
0.0
  0
LINE
  5
17C
330
17
100
AcDbEntity
  8
SubLayer
100
AcDbLine
 10
332.97293718970855
 20
5.986325229307546
 30
0.0
 11
333.0539959046988
 21
6.983034557408839
 31
0.0
  0
LINE
  5
17D
330
17
100
AcDbEntity
  8
SubLayer
100
AcDbLine
 10
-150.76906641070119
 20
53.137906618003704
 30
0.0
 11
-150.62946842389115
 21
49.140343309927324
 31
0.0
  0
LINE
  5
17E
330
17
100
AcDbEntity
  8
SubLayer
100
AcDbLine
 10
-148.4335400877142
 20
-13.742816715968422
 30
0.0
 11
-148.29394210090416
 21
-17.740380024044804
 31
0.0
  0
LINE
  5
17F
330
17
100
AcDbEntity
  8
SubLayer
100
AcDbLine
 10
-148.93554484901406
 20
0.6327187778450978
 30
0.0
 11
-148.72614786879907
 21
-5.363626184269476
 31
0.0
  0
LINE
  5
180
330
17
100
AcDbEntity
  8
SubLayer
100
AcDbLine
 10
-150.33686064280627
 20
40.76115277822838
 30
0.0
 11
-150.12746366259128
 21
34.7648078161138
 31
0.0
  0
LINE
  5
181
330
17
100
AcDbEntity
  8
SubLayer
100
AcDbLine
 10
-149.63620274591017
 20
20.69693577803674
 30
0.0
 11
-149.42680576569518
 21
14.700590815922164
 31
0.0
  0
LINE
  5
182
330
17
100
AcDbEntity
  8
SubLayer
100
AcDbLine
 10
-150.75982901953975
 20
-4.4340343506553825
 30
0.0
 11
-146.76226571146339
 21
-4.294436363845379
 31
0.0
  0
LINE
  5
183
330
17
100
AcDbEntity
  8
SubLayer
100
AcDbLine
 10
-146.76226571146339
 20
-4.294436363845379
 30
0.0
 11
-146.9018636982734
 21
-0.2968730557689958
 31
0.0
  0
LINE
  5
184
330
17
100
AcDbEntity
  8
SubLayer
100
AcDbLine
 10
-146.9018636982734
 20
-0.2968730557689958
 30
0.0
 11
-150.89942700634975
 21
-0.4364710425789997
 31
0.0
  0
LINE
  5
185
330
17
100
AcDbEntity
  8
SubLayer
100
AcDbLine
 10
-150.89942700634975
 20
-0.4364710425789997
 30
0.0
 11
-150.75982901953975
 21
-4.4340343506553825
 31
0.0
  0
LINE
  5
186
330
17
100
AcDbEntity
  8
SubLayer
100
AcDbLine
 10
-152.16114481333196
 20
35.6943996497279
 30
0.0
 11
-148.1635815052556
 21
35.8339976365379
 31
0.0
  0
LINE
  5
187
330
17
100
AcDbEntity
  8
SubLayer
100
AcDbLine
 10
-148.1635815052556
 20
35.8339976365379
 30
0.0
 11
-148.3031794920656
 21
39.83156094461428
 31
0.0
  0
LINE
  5
188
330
17
100
AcDbEntity
  8
SubLayer
100
AcDbLine
 10
-148.3031794920656
 20
39.83156094461428
 30
0.0
 11
-152.30074280014196
 21
39.69196295780428
 31
0.0
  0
LINE
  5
189
330
17
100
AcDbEntity
  8
SubLayer
100
AcDbLine
 10
-152.30074280014196
 20
39.69196295780428
 30
0.0
 11
-152.16114481333196
 21
35.6943996497279
 31
0.0
  0
LINE
  5
18A
330
17
100
AcDbEntity
  8
SubLayer
100
AcDbLine
 10
-151.46048691643585
 20
15.630182649536257
 30
0.0
 11
-147.4629236083595
 21
15.76978063634626
 31
0.0
  0
LINE
  5
18B
330
17
100
AcDbEntity
  8
SubLayer
100
AcDbLine
 10
-147.4629236083595
 20
15.76978063634626
 30
0.0
 11
-147.6025215951695
 21
19.767343944422645
 31
0.0
  0
LINE
  5
18C
330
17
100
AcDbEntity
  8
SubLayer
100
AcDbLine
 10
-147.6025215951695
 20
19.767343944422645
 30
0.0
 11
-151.60008490324586
 21
19.62774595761264
 31
0.0
  0
LINE
  5
18D
330
17
100
AcDbEntity
  8
SubLayer
100
AcDbLine
 10
-151.60008490324586
 20
19.62774595761264
 30
0.0
 11
-151.46048691643585
 21
15.630182649536257
 31
0.0
  0
LINE
  5
18E
330
17
100
AcDbEntity
  8
SubLayer
100
AcDbLine
 10
199.2532478162099
 20
58.60818348924143
 30
0.0
 11
199.39284580301992
 21
54.610620181165054
 31
0.0
  0
LINE
  5
18F
330
17
100
AcDbEntity
  8
SubLayer
100
AcDbLine
 10
201.1302374274709
 20
4.85823357177045
 30
0.0
 11
201.26983541428092
 21
0.8606702636940666
 31
0.0
  0
LINE
  5
190
330
17
100
AcDbEntity
  8
SubLayer
100
AcDbLine
 10
200.71994000851623
 20
16.607614382283742
 30
0.0
 11
200.92933698873122
 21
10.611269420169169
 31
0.0
  0
LINE
  5
191
330
17
100
AcDbEntity
  8
SubLayer
100
AcDbLine
 10
199.59374624175965
 20
48.857584332766336
 30
0.0
 11
199.80314322197464
 21
42.86123937065176
 31
0.0
  0
LINE
  5
192
330
17
100
AcDbEntity
  8
SubLayer
100
AcDbLine
 10
200.1568431251379
 20
32.73259935752504
 30
0.0
 11
200.3662401053529
 21
26.736254395410462
 31
0.0
  0
LINE
  5
193
330
17
100
AcDbEntity
  8
SubLayer
100
AcDbLine
 10
198.89565583799055
 20
11.540861253783262
 30
0.0
 11
202.8932191460669
 21
11.680459240593265
 31
0.0
  0
LINE
  5
194
330
17
100
AcDbEntity
  8
SubLayer
100
AcDbLine
 10
202.8932191460669
 20
11.680459240593265
 30
0.0
 11
202.7536211592569
 21
15.678022548669649
 31
0.0
  0
LINE
  5
195
330
17
100
AcDbEntity
  8
SubLayer
100
AcDbLine
 10
202.7536211592569
 20
15.678022548669649
 30
0.0
 11
198.75605785118054
 21
15.538424561859646
 31
0.0
  0
LINE
  5
196
330
17
100
AcDbEntity
  8
SubLayer
100
AcDbLine
 10
198.75605785118054
 20
15.538424561859646
 30
0.0
 11
198.89565583799055
 21
11.540861253783262
 31
0.0
  0
LINE
  5
197
330
17
100
AcDbEntity
  8
SubLayer
100
AcDbLine
 10
197.76946207123396
 20
43.79083120426586
 30
0.0
 11
201.76702537931033
 21
43.93042919107586
 31
0.0
  0
LINE
  5
198
330
17
100
AcDbEntity
  8
SubLayer
100
AcDbLine
 10
201.76702537931033
 20
43.93042919107586
 30
0.0
 11
201.62742739250032
 21
47.92799249915224
 31
0.0
  0
LINE
  5
199
330
17
100
AcDbEntity
  8
SubLayer
100
AcDbLine
 10
201.62742739250032
 20
47.92799249915224
 30
0.0
 11
197.62986408442396
 21
47.78839451234224
 31
0.0
  0
LINE
  5
19A
330
17
100
AcDbEntity
  8
SubLayer
100
AcDbLine
 10
197.62986408442396
 20
47.78839451234224
 30
0.0
 11
197.76946207123396
 21
43.79083120426586
 31
0.0
  0
LINE
  5
19B
330
17
100
AcDbEntity
  8
SubLayer
100
AcDbLine
 10
198.3325589546122
 20
27.665846229024556
 30
0.0
 11
202.33012226268858
 21
27.805444215834562
 31
0.0
  0
LINE
  5
19C
330
17
100
AcDbEntity
  8
SubLayer
100
AcDbLine
 10
202.33012226268858
 20
27.805444215834562
 30
0.0
 11
202.19052427587857
 21
31.803007523910946
 31
0.0
  0
LINE
  5
19D
330
17
100
AcDbEntity
  8
SubLayer
100
AcDbLine
 10
202.19052427587857
 20
31.803007523910946
 30
0.0
 11
198.1929609678022
 21
31.66340953710094
 31
0.0
  0
LINE
  5
19E
330
17
100
AcDbEntity
  8
SubLayer
100
AcDbLine
 10
198.1929609678022
 20
31.66340953710094
 30
0.0
 11
198.3325589546122
 21
27.665846229024556
 31
0.0
  0
ENDSEC
  0
SECTION
  2
OBJECTS
  0
DICTIONARY
  5
A
330
0
100
AcDbDictionary
280
0
281
1
  3
ACAD_COLOR
350
B
  3
ACAD_GROUP
350
C
  3
ACAD_LAYOUT
350
D
  3
ACAD_MATERIAL
350
E
  3
ACAD_MLEADERSTYLE
350
F
  3
ACAD_MLINESTYLE
350
10
  3
ACAD_PLOTSETTINGS
350
11
  3
ACAD_PLOTSTYLENAME
350
12
  3
ACAD_SCALELIST
350
14
  3
ACAD_TABLESTYLE
350
15
  3
ACAD_VISUALSTYLE
350
16
  3
EZDXF_META
350
2D
  0
DICTIONARY
  5
B
330
A
100
AcDbDictionary
280
0
281
1
  0
DICTIONARY
  5
C
330
A
100
AcDbDictionary
280
0
281
1
  0
DICTIONARY
  5
D
330
A
100
AcDbDictionary
280
0
281
1
  3
Model
350
1A
  3
Layout1
350
1E
  0
DICTIONARY
  5
E
330
A
100
AcDbDictionary
280
0
281
1
  3
ByBlock
350
1F
  3
ByLayer
350
20
  3
Global
350
21
  0
DICTIONARY
  5
F
330
A
100
AcDbDictionary
280
0
281
1
  3
Standard
350
2C
  0
DICTIONARY
  5
10
330
A
100
AcDbDictionary
280
0
281
1
  3
Standard
350
22
  0
DICTIONARY
  5
11
330
A
100
AcDbDictionary
280
0
281
1
  0
ACDBDICTIONARYWDFLT
  5
12
330
A
100
AcDbDictionary
280
0
281
1
  3
Normal
350
13
100
AcDbDictionaryWithDefault
340
13
  0
ACDBPLACEHOLDER
  5
13
330
12
  0
DICTIONARY
  5
14
330
A
100
AcDbDictionary
280
0
281
1
  0
DICTIONARY
  5
15
330
A
100
AcDbDictionary
280
0
281
1
  0
DICTIONARY
  5
16
330
A
100
AcDbDictionary
280
0
281
1
  0
LAYOUT
  5
1A
330
D
100
AcDbPlotSettings
  1

  2
Adobe PDF
  4
A3
  6

 40
7.5
 41
20.0
 42
7.5
 43
20.0
 44
420.0
 45
297.0
 46
0.0
 47
0.0
 48
0.0
 49
0.0
140
0.0
141
0.0
142
1.0
143
1.0
 70
1024
 72
1
 73
0
 74
5
  7

 75
16
 76
0
 77
2
 78
300
147
1.0
148
0.0
149
0.0
100
AcDbLayout
  1
Model
 70
1
 71
0
 10
0.0
 20
0.0
 11
420.0
 21
297.0
 12
0.0
 22
0.0
 32
0.0
 14
1e+20
 24
1e+20
 34
1e+20
 15
-1e+20
 25
-1e+20
 35
-1e+20
146
0.0
 13
0.0
 23
0.0
 33
0.0
 16
1.0
 26
0.0
 36
0.0
 17
0.0
 27
1.0
 37
0.0
 76
1
330
17
  0
LAYOUT
  5
1E
330
D
100
AcDbPlotSettings
  1

  2
Adobe PDF
  4
A3
  6

 40
7.5
 41
20.0
 42
7.5
 43
20.0
 44
420.0
 45
297.0
 46
0.0
 47
0.0
 48
0.0
 49
0.0
140
0.0
141
0.0
142
1.0
143
1.0
 70
0
 72
1
 73
0
 74
5
  7

 75
16
 76
0
 77
2
 78
300
147
1.0
148
0.0
149
0.0
100
AcDbLayout
  1
Layout1
 70
1
 71
1
 10
0.0
 20
0.0
 11
420.0
 21
297.0
 12
0.0
 22
0.0
 32
0.0
 14
1e+20
 24
1e+20
 34
1e+20
 15
-1e+20
 25
-1e+20
 35
-1e+20
146
0.0
 13
0.0
 23
0.0
 33
0.0
 16
1.0
 26
0.0
 36
0.0
 17
0.0
 27
1.0
 37
0.0
 76
1
330
1B
  0
MATERIAL
  5
1F
102
{ACAD_REACTORS
330
E
102
}
330
E
100
AcDbMaterial
  1
ByBlock
  2

 70
0
 40
1.0
 71
1
 41
1.0
 91
-1023410177
 42
1.0
 72
1
  3

 73
1
 74
1
 75
1
 44
0.5
 73
0
 45
1.0
 46
1.0
 77
1
  4

 78
1
 79
1
170
1
 48
1.0
171
1
  6

172
1
173
1
174
1
140
1.0
141
1.0
175
1
  7

176
1
177
1
178
1
143
1.0
179
1
  8

270
1
271
1
272
1
145
1.0
146
1.0
273
1
  9

274
1
275
1
276
1
 42
1.0
 72
1
  3

 73
1
 74
1
 75
1
 94
63
  0
MATERIAL
  5
20
102
{ACAD_REACTORS
330
E
102
}
330
E
100
AcDbMaterial
  1
ByLayer
  2

 70
0
 40
1.0
 71
1
 41
1.0
 91
-1023410177
 42
1.0
 72
1
  3

 73
1
 74
1
 75
1
 44
0.5
 73
0
 45
1.0
 46
1.0
 77
1
  4

 78
1
 79
1
170
1
 48
1.0
171
1
  6

172
1
173
1
174
1
140
1.0
141
1.0
175
1
  7

176
1
177
1
178
1
143
1.0
179
1
  8

270
1
271
1
272
1
145
1.0
146
1.0
273
1
  9

274
1
275
1
276
1
 42
1.0
 72
1
  3

 73
1
 74
1
 75
1
 94
63
  0
MATERIAL
  5
21
102
{ACAD_REACTORS
330
E
102
}
330
E
100
AcDbMaterial
  1
Global
  2

 70
0
 40
1.0
 71
1
 41
1.0
 91
-1023410177
 42
1.0
 72
1
  3

 73
1
 74
1
 75
1
 44
0.5
 73
0
 45
1.0
 46
1.0
 77
1
  4

 78
1
 79
1
170
1
 48
1.0
171
1
  6

172
1
173
1
174
1
140
1.0
141
1.0
175
1
  7

176
1
177
1
178
1
143
1.0
179
1
  8

270
1
271
1
272
1
145
1.0
146
1.0
273
1
  9

274
1
275
1
276
1
 42
1.0
 72
1
  3

 73
1
 74
1
 75
1
 94
63
  0
MLINESTYLE
  5
22
102
{ACAD_REACTORS
330
10
102
}
330
10
100
AcDbMlineStyle
  2
Standard
 70
0
  3

 62
256
 51
90.0
 52
90.0
 71
2
 49
0.5
 62
256
  6
BYLAYER
 49
-0.5
 62
256
  6
BYLAYER
  0
MLEADERSTYLE
  5
2C
102
{ACAD_REACTORS
330
F
102
}
330
F
100
AcDbMLeaderStyle
179
2
170
2
171
1
172
0
 90
2
 40
0.0
 41
0.0
173
1
 91
-1056964608
 92
-2
290
1
 42
2.0
291
1
 43
8.0
  3
Standard
 44
4.0
300

342
29
174
1
175
1
176
0
178
1
 93
-1056964608
 45
4.0
292
0
297
0
 46
4.0
 94
-1056964608
 47
1.0
 49
1.0
140
1.0
294
1
141
0.0
177
0
142
1.0
295
0
296
0
143
3.75
271
0
272
9
273
9
  0
DICTIONARY
  5
2D
330
A
100
AcDbDictionary
281
1
  3
CREATED_BY_EZDXF
350
2E
  3
WRITTEN_BY_EZDXF
350
1A1
  0
DICTIONARYVAR
  5
2E
330
2D
100
DictionaryVariables
280
0
  1
1.0.2 @ 2023-10-20T04:47:16.201530+00:00
  0
DICTIONARYVAR
  5
1A1
330
2D
100
DictionaryVariables
280
0
  1
1.0.2 @ 2023-10-20T04:47:16.211496+00:00
  0
ENDSEC
  0
EOF
