  0
SECTION
  2
HEADER
  9
$ACADVER
  1
AC1027
  9
$ACADMAINTVER
 70
105
  9
$DWGCODEPAGE
  3
ANSI_1252
  9
$LASTSAVEDBY
  1
ezdxf
  9
$REQUIREDVERSIONS
160
0
  9
$INSBASE
 10
0.0
 20
0.0
 30
0.0
  9
$EXTMIN
 10
1e+20
 20
1e+20
 30
1e+20
  9
$EXTMAX
 10
-1e+20
 20
-1e+20
 30
-1e+20
  9
$LIMMIN
 10
0.0
 20
0.0
  9
$LIMMAX
 10
420.0
 20
297.0
  9
$ORTHOMODE
 70
0
  9
$REGENMODE
 70
1
  9
$FILLMODE
 70
1
  9
$QTEXTMODE
 70
0
  9
$MIRRTEXT
 70
1
  9
$LTSCALE
 40
1.0
  9
$ATTMODE
 70
1
  9
$TEXTSIZE
 40
2.5
  9
$TRACEWID
 40
1.0
  9
$TEXTSTYLE
  7
Standard
  9
$CLAYER
  8
0
  9
$CELTYPE
  6
ByLayer
  9
$CECOLOR
 62
256
  9
$CELTSCALE
 40
1.0
  9
$DISPSILH
 70
0
  9
$DIMSCALE
 40
1.0
  9
$DIMASZ
 40
2.5
  9
$DIMEXO
 40
0.625
  9
$DIMDLI
 40
3.75
  9
$DIMRND
 40
0.0
  9
$DIMDLE
 40
0.0
  9
$DIMEXE
 40
1.25
  9
$DIMTP
 40
0.0
  9
$DIMTM
 40
0.0
  9
$DIMTXT
 40
2.5
  9
$DIMCEN
 40
2.5
  9
$DIMTSZ
 40
0.0
  9
$DIMTOL
 70
0
  9
$DIMLIM
 70
0
  9
$DIMTIH
 70
0
  9
$DIMTOH
 70
0
  9
$DIMSE1
 70
0
  9
$DIMSE2
 70
0
  9
$DIMTAD
 70
1
  9
$DIMZIN
 70
8
  9
$DIMBLK
  1

  9
$DIMASO
 70
1
  9
$DIMSHO
 70
1
  9
$DIMPOST
  1

  9
$DIMAPOST
  1

  9
$DIMALT
 70
0
  9
$DIMALTD
 70
3
  9
$DIMALTF
 40
0.03937007874
  9
$DIMLFAC
 40
1.0
  9
$DIMTOFL
 70
1
  9
$DIMTVP
 40
0.0
  9
$DIMTIX
 70
0
  9
$DIMSOXD
 70
0
  9
$DIMSAH
 70
0
  9
$DIMBLK1
  1

  9
$DIMBLK2
  1

  9
$DIMSTYLE
  2
ISO-25
  9
$DIMCLRD
 70
0
  9
$DIMCLRE
 70
0
  9
$DIMCLRT
 70
0
  9
$DIMTFAC
 40
1.0
  9
$DIMGAP
 40
0.625
  9
$DIMJUST
 70
0
  9
$DIMSD1
 70
0
  9
$DIMSD2
 70
0
  9
$DIMTOLJ
 70
0
  9
$DIMTZIN
 70
8
  9
$DIMALTZ
 70
0
  9
$DIMALTTZ
 70
0
  9
$DIMUPT
 70
0
  9
$DIMDEC
 70
2
  9
$DIMTDEC
 70
2
  9
$DIMALTU
 70
2
  9
$DIMALTTD
 70
3
  9
$DIMTXSTY
  7
Standard
  9
$DIMAUNIT
 70
0
  9
$DIMADEC
 70
0
  9
$DIMALTRND
 40
0.0
  9
$DIMAZIN
 70
0
  9
$DIMDSEP
 70
44
  9
$DIMATFIT
 70
3
  9
$DIMFRAC
 70
0
  9
$DIMLDRBLK
  1

  9
$DIMLUNIT
 70
2
  9
$DIMLWD
 70
-2
  9
$DIMLWE
 70
-2
  9
$DIMTMOVE
 70
0
  9
$DIMFXL
 40
1.0
  9
$DIMFXLON
 70
0
  9
$DIMJOGANG
 40
0.785398163397
  9
$DIMTFILL
 70
0
  9
$DIMTFILLCLR
 70
0
  9
$DIMARCSYM
 70
0
  9
$DIMLTYPE
  6

  9
$DIMLTEX1
  6

  9
$DIMLTEX2
  6

  9
$DIMTXTDIRECTION
 70
0
  9
$LUNITS
 70
2
  9
$LUPREC
 70
4
  9
$SKETCHINC
 40
1.0
  9
$FILLETRAD
 40
10.0
  9
$AUNITS
 70
0
  9
$AUPREC
 70
2
  9
$MENU
  1
.
  9
$ELEVATION
 40
0.0
  9
$PELEVATION
 40
0.0
  9
$THICKNESS
 40
0.0
  9
$LIMCHECK
 70
0
  9
$CHAMFERA
 40
0.0
  9
$CHAMFERB
 40
0.0
  9
$CHAMFERC
 40
0.0
  9
$CHAMFERD
 40
0.0
  9
$SKPOLY
 70
0
  9
$TDCREATE
 40
2460238.574490741
  9
$TDUCREATE
 40
2458532.153996898
  9
$TDUPDATE
 40
2460238.574490741
  9
$TDUUPDATE
 40
2458532.1544311
  9
$TDINDWG
 40
0.0
  9
$TDUSRTIMER
 40
0.0
  9
$USRTIMER
 70
1
  9
$ANGBASE
 50
0.0
  9
$ANGDIR
 70
0
  9
$PDMODE
 70
0
  9
$PDSIZE
 40
0.0
  9
$PLINEWID
 40
0.0
  9
$SPLFRAME
 70
0
  9
$SPLINETYPE
 70
6
  9
$SPLINESEGS
 70
8
  9
$HANDSEED
  5
1B3
  9
$SURFTAB1
 70
6
  9
$SURFTAB2
 70
6
  9
$SURFTYPE
 70
6
  9
$SURFU
 70
6
  9
$SURFV
 70
6
  9
$UCSBASE
  2

  9
$UCSNAME
  2

  9
$UCSORG
 10
0.0
 20
0.0
 30
0.0
  9
$UCSXDIR
 10
1.0
 20
0.0
 30
0.0
  9
$UCSYDIR
 10
0.0
 20
1.0
 30
0.0
  9
$UCSORTHOREF
  2

  9
$UCSORTHOVIEW
 70
0
  9
$UCSORGTOP
 10
0.0
 20
0.0
 30
0.0
  9
$UCSORGBOTTOM
 10
0.0
 20
0.0
 30
0.0
  9
$UCSORGLEFT
 10
0.0
 20
0.0
 30
0.0
  9
$UCSORGRIGHT
 10
0.0
 20
0.0
 30
0.0
  9
$UCSORGFRONT
 10
0.0
 20
0.0
 30
0.0
  9
$UCSORGBACK
 10
0.0
 20
0.0
 30
0.0
  9
$PUCSBASE
  2

  9
$PUCSNAME
  2

  9
$PUCSORG
 10
0.0
 20
0.0
 30
0.0
  9
$PUCSXDIR
 10
1.0
 20
0.0
 30
0.0
  9
$PUCSYDIR
 10
0.0
 20
1.0
 30
0.0
  9
$PUCSORTHOREF
  2

  9
$PUCSORTHOVIEW
 70
0
  9
$PUCSORGTOP
 10
0.0
 20
0.0
 30
0.0
  9
$PUCSORGBOTTOM
 10
0.0
 20
0.0
 30
0.0
  9
$PUCSORGLEFT
 10
0.0
 20
0.0
 30
0.0
  9
$PUCSORGRIGHT
 10
0.0
 20
0.0
 30
0.0
  9
$PUCSORGFRONT
 10
0.0
 20
0.0
 30
0.0
  9
$PUCSORGBACK
 10
0.0
 20
0.0
 30
0.0
  9
$USERI1
 70
0
  9
$USERI2
 70
0
  9
$USERI3
 70
0
  9
$USERI4
 70
0
  9
$USERI5
 70
0
  9
$USERR1
 40
0.0
  9
$USERR2
 40
0.0
  9
$USERR3
 40
0.0
  9
$USERR4
 40
0.0
  9
$USERR5
 40
0.0
  9
$WORLDVIEW
 70
1
  9
$SHADEDGE
 70
3
  9
$SHADEDIF
 70
70
  9
$TILEMODE
 70
1
  9
$MAXACTVP
 70
64
  9
$PINSBASE
 10
0.0
 20
0.0
 30
0.0
  9
$PLIMCHECK
 70
0
  9
$PEXTMIN
 10
1e+20
 20
1e+20
 30
1e+20
  9
$PEXTMAX
 10
-1e+20
 20
-1e+20
 30
-1e+20
  9
$PLIMMIN
 10
0.0
 20
0.0
  9
$PLIMMAX
 10
420.0
 20
297.0
  9
$UNITMODE
 70
0
  9
$VISRETAIN
 70
1
  9
$PLINEGEN
 70
0
  9
$PSLTSCALE
 70
1
  9
$TREEDEPTH
 70
3020
  9
$CMLSTYLE
  2
Standard
  9
$CMLJUST
 70
0
  9
$CMLSCALE
 40
20.0
  9
$PROXYGRAPHICS
 70
1
  9
$MEASUREMENT
 70
1
  9
$CELWEIGHT
370
-1
  9
$ENDCAPS
280
0
  9
$JOINSTYLE
280
0
  9
$LWDISPLAY
290
0
  9
$INSUNITS
 70
6
  9
$HYPERLINKBASE
  1

  9
$STYLESHEET
  1

  9
$XEDIT
290
1
  9
$CEPSNTYPE
380
0
  9
$PSTYLEMODE
290
1
  9
$FINGERPRINTGUID
  2
{309DF70F-67A9-49EA-A016-69B069256DA1}
  9
$VERSIONGUID
  2
{D7080755-D6B8-49E3-8F04-2D93CC83D7C7}
  9
$EXTNAMES
290
1
  9
$PSVPSCALE
 40
0.0
  9
$OLESTARTUP
290
0
  9
$SORTENTS
280
127
  9
$INDEXCTL
280
0
  9
$HIDETEXT
280
1
  9
$XCLIPFRAME
280
0
  9
$HALOGAP
280
0
  9
$OBSCOLOR
 70
257
  9
$OBSLTYPE
280
0
  9
$INTERSECTIONDISPLAY
280
0
  9
$INTERSECTIONCOLOR
 70
257
  9
$DIMASSOC
280
2
  9
$PROJECTNAME
  1

  9
$CAMERADISPLAY
290
0
  9
$LENSLENGTH
 40
50.0
  9
$CAMERAHEIGHT
 40
0.0
  9
$STEPSPERSEC
 40
24.0
  9
$STEPSIZE
 40
100.0
  9
$3DDWFPREC
 40
2.0
  9
$PSOLWIDTH
 40
0.005
  9
$PSOLHEIGHT
 40
0.08
  9
$LOFTANG1
 40
1.570796326795
  9
$LOFTANG2
 40
1.570796326795
  9
$LOFTMAG1
 40
0.0
  9
$LOFTMAG2
 40
0.0
  9
$LOFTPARAM
 70
7
  9
$LOFTNORMALS
280
1
  9
$LATITUDE
 40
37.795
  9
$LONGITUDE
 40
-122.394
  9
$NORTHDIRECTION
 40
0.0
  9
$TIMEZONE
 70
-8000
  9
$LIGHTGLYPHDISPLAY
280
1
  9
$TILEMODELIGHTSYNCH
280
1
  9
$CMATERIAL
347
20
  9
$SOLIDHIST
280
0
  9
$SHOWHIST
280
1
  9
$DWFFRAME
280
2
  9
$DGNFRAME
280
2
  9
$REALWORLDSCALE
290
1
  9
$INTERFERECOLOR
 62
256
  9
$CSHADOW
280
0
  9
$SHADOWPLANELOCATION
 40
0.0
  0
ENDSEC
  0
SECTION
  2
CLASSES
  0
CLASS
  1
ACDBDICTIONARYWDFLT
  2
AcDbDictionaryWithDefault
  3
ObjectDBX Classes
 90
0
 91
0
280
0
281
0
  0
CLASS
  1
SUN
  2
AcDbSun
  3
SCENEOE
 90
1153
 91
0
280
0
281
0
  0
CLASS
  1
VISUALSTYLE
  2
AcDbVisualStyle
  3
ObjectDBX Classes
 90
4095
 91
0
280
0
281
0
  0
CLASS
  1
MATERIAL
  2
AcDbMaterial
  3
ObjectDBX Classes
 90
1153
 91
0
280
0
281
0
  0
CLASS
  1
SCALE
  2
AcDbScale
  3
ObjectDBX Classes
 90
1153
 91
0
280
0
281
0
  0
CLASS
  1
TABLESTYLE
  2
AcDbTableStyle
  3
ObjectDBX Classes
 90
4095
 91
0
280
0
281
0
  0
CLASS
  1
MLEADERSTYLE
  2
AcDbMLeaderStyle
  3
ACDB_MLEADERSTYLE_CLASS
 90
4095
 91
0
280
0
281
0
  0
CLASS
  1
DICTIONARYVAR
  2
AcDbDictionaryVar
  3
ObjectDBX Classes
 90
0
 91
0
280
0
281
0
  0
CLASS
  1
CELLSTYLEMAP
  2
AcDbCellStyleMap
  3
ObjectDBX Classes
 90
1152
 91
0
280
0
281
0
  0
CLASS
  1
MENTALRAYRENDERSETTINGS
  2
AcDbMentalRayRenderSettings
  3
SCENEOE
 90
1024
 91
0
280
0
281
0
  0
CLASS
  1
ACDBDETAILVIEWSTYLE
  2
AcDbDetailViewStyle
  3
ObjectDBX Classes
 90
1025
 91
0
280
0
281
0
  0
CLASS
  1
ACDBSECTIONVIEWSTYLE
  2
AcDbSectionViewStyle
  3
ObjectDBX Classes
 90
1025
 91
0
280
0
281
0
  0
CLASS
  1
RASTERVARIABLES
  2
AcDbRasterVariables
  3
ISM
 90
0
 91
0
280
0
281
0
  0
CLASS
  1
ACDBPLACEHOLDER
  2
AcDbPlaceHolder
  3
ObjectDBX Classes
 90
0
 91
0
280
0
281
0
  0
CLASS
  1
LAYOUT
  2
AcDbLayout
  3
ObjectDBX Classes
 90
0
 91
0
280
0
281
0
  0
ENDSEC
  0
SECTION
  2
TABLES
  0
TABLE
  2
VPORT
  5
8
330
0
100
AcDbSymbolTable
 70
1
  0
VPORT
  5
23
330
8
100
AcDbSymbolTableRecord
100
AcDbViewportTableRecord
  2
*Active
 70
0
 10
0.0
 20
0.0
 11
1.0
 21
1.0
 12
0.0
 22
0.0
 13
0.0
 23
0.0
 14
0.5
 24
0.5
 15
0.5
 25
0.5
 16
0.0
 26
0.0
 36
1.0
 17
0.0
 27
0.0
 37
0.0
 40
1000.0
 41
1.34
 42
50.0
 43
0.0
 44
0.0
 50
0.0
 51
0.0
 71
0
 72
1000
 73
1
 74
3
 75
0
 76
0
 77
0
 78
0
281
0
 65
0
146
0.0
  0
ENDTAB
  0
TABLE
  2
LTYPE
  5
2
330
0
100
AcDbSymbolTable
 70
3
  0
LTYPE
  5
24
330
2
100
AcDbSymbolTableRecord
100
AcDbLinetypeTableRecord
  2
ByBlock
 70
0
  3

 72
65
 73
0
 40
0.0
  0
LTYPE
  5
25
330
2
100
AcDbSymbolTableRecord
100
AcDbLinetypeTableRecord
  2
ByLayer
 70
0
  3

 72
65
 73
0
 40
0.0
  0
LTYPE
  5
26
330
2
100
AcDbSymbolTableRecord
100
AcDbLinetypeTableRecord
  2
Continuous
 70
0
  3

 72
65
 73
0
 40
0.0
  0
ENDTAB
  0
TABLE
  2
LAYER
  5
1
330
0
100
AcDbSymbolTable
 70
5
  0
LAYER
  5
27
330
1
100
AcDbSymbolTableRecord
100
AcDbLayerTableRecord
  2
0
 70
0
 62
7
  6
Continuous
370
-3
390
13
347
21
  0
LAYER
  5
28
330
1
100
AcDbSymbolTableRecord
100
AcDbLayerTableRecord
  2
Defpoints
 70
0
 62
7
  6
Continuous
290
0
370
-3
390
13
347
21
  0
LAYER
  5
30
330
1
100
AcDbSymbolTableRecord
100
AcDbLayerTableRecord
  2
FoilLayer
 70
0
 62
1
  6
Continuous
370
50
390
13
347
21
  0
LAYER
  5
31
330
1
100
AcDbSymbolTableRecord
100
AcDbLayerTableRecord
  2
StringerLayer
 70
0
 62
1
  6
Continuous
370
50
390
13
347
21
  0
LAYER
  5
32
330
1
100
AcDbSymbolTableRecord
100
AcDbLayerTableRecord
  2
SubLayer
 70
0
 62
1
  6
Continuous
370
50
390
13
347
21
  0
ENDTAB
  0
TABLE
  2
STYLE
  5
5
330
0
100
AcDbSymbolTable
 70
2
  0
STYLE
  5
29
330
5
100
AcDbSymbolTableRecord
100
AcDbTextStyleTableRecord
  2
Standard
 70
0
 40
0.0
 41
1.0
 50
0.0
 71
0
 42
2.5
  3
txt
  4

  0
STYLE
  5
2F
330
5
100
AcDbSymbolTableRecord
100
AcDbTextStyleTableRecord
  2
MSゴシック
 70
0
 40
0.0
 41
1.0
 50
0.0
 71
0
 42
2.5
  3
romans
  4

  0
ENDTAB
  0
TABLE
  2
VIEW
  5
7
330
0
100
AcDbSymbolTable
 70
0
  0
ENDTAB
  0
TABLE
  2
UCS
  5
6
330
0
100
AcDbSymbolTable
 70
0
  0
ENDTAB
  0
TABLE
  2
APPID
  5
3
330
0
100
AcDbSymbolTable
 70
3
  0
APPID
  5
2A
330
3
100
AcDbSymbolTableRecord
100
AcDbRegAppTableRecord
  2
ACAD
 70
0
  0
APPID
  5
1B0
330
3
100
AcDbSymbolTableRecord
100
AcDbRegAppTableRecord
  2
HATCHBACKGROUNDCOLOR
 70
0
  0
APPID
  5
1B1
330
3
100
AcDbSymbolTableRecord
100
AcDbRegAppTableRecord
  2
EZDXF
 70
0
  0
ENDTAB
  0
TABLE
  2
DIMSTYLE
  5
4
330
0
100
AcDbSymbolTable
 70
1
100
AcDbDimStyleTable
  0
DIMSTYLE
105
2B
330
4
100
AcDbSymbolTableRecord
100
AcDbDimStyleTableRecord
  2
Standard
 70
0
 40
1.0
 41
2.5
 42
0.625
 43
3.75
 44
1.25
 45
0.0
 46
0.0
 47
0.0
 48
0.0
 49
2.5
140
2.5
141
2.5
142
0.0
143
0.03937007874
144
1.0
145
0.0
146
1.0
147
0.625
148
0.0
 69
0
 70
0
 71
0
 72
0
 73
0
 74
0
 75
0
 76
0
 77
1
 78
8
 79
3
170
0
171
3
172
1
173
0
174
0
175
0
176
0
177
0
178
0
179
2
271
2
272
2
273
2
274
3
275
0
276
0
277
2
278
44
279
0
280
0
281
0
282
0
283
0
284
8
285
0
286
0
288
0
289
3
290
0
371
-2
372
-2
  0
ENDTAB
  0
TABLE
  2
BLOCK_RECORD
  5
9
330
0
100
AcDbSymbolTable
 70
2
  0
BLOCK_RECORD
  5
17
330
9
100
AcDbSymbolTableRecord
100
AcDbBlockTableRecord
  2
*Model_Space
340
1A
 70
0
280
1
281
0
  0
BLOCK_RECORD
  5
1B
330
9
100
AcDbSymbolTableRecord
100
AcDbBlockTableRecord
  2
*Paper_Space
340
1E
 70
0
280
1
281
0
  0
ENDTAB
  0
ENDSEC
  0
SECTION
  2
BLOCKS
  0
BLOCK
  5
18
330
17
100
AcDbEntity
  8
0
100
AcDbBlockBegin
  2
*Model_Space
 70
0
 10
0.0
 20
0.0
 30
0.0
  3
*Model_Space
  1

  0
ENDBLK
  5
19
330
17
100
AcDbEntity
  8
0
100
AcDbBlockEnd
  0
BLOCK
  5
1C
330
1B
100
AcDbEntity
  8
0
100
AcDbBlockBegin
  2
*Paper_Space
 70
0
 10
0.0
 20
0.0
 30
0.0
  3
*Paper_Space
  1

  0
ENDBLK
  5
1D
330
1B
100
AcDbEntity
  8
0
100
AcDbBlockEnd
  0
ENDSEC
  0
SECTION
  2
ENTITIES
  0
LINE
  5
33
330
17
100
AcDbEntity
  8
FoilLayer
100
AcDbLine
 10
407.7263423092069
 20
-0.393360319203681
 30
0.0
 11
407.60502855869305
 21
-0.3508773867802976
 31
0.0
  0
LINE
  5
34
330
17
100
AcDbEntity
  8
FoilLayer
100
AcDbLine
 10
407.60502855869305
 20
-0.3508773867802976
 30
0.0
 11
407.23020010101146
 21
-0.2237892047288319
 31
0.0
  0
LINE
  5
35
330
17
100
AcDbEntity
  8
FoilLayer
100
AcDbLine
 10
407.23020010101146
 20
-0.2237892047288319
 30
0.0
 11
406.6411749617724
 21
-0.01700284515312006
 31
0.0
  0
LINE
  5
36
330
17
100
AcDbEntity
  8
FoilLayer
100
AcDbLine
 10
406.6411749617724
 20
-0.01700284515312006
 30
0.0
 11
405.8328737474324
 21
0.2649645875312239
 31
0.0
  0
LINE
  5
37
330
17
100
AcDbEntity
  8
FoilLayer
100
AcDbLine
 10
405.8328737474324
 20
0.2649645875312239
 30
0.0
 11
404.8170877499553
 21
0.6161013181234276
 31
0.0
  0
LINE
  5
38
330
17
100
AcDbEntity
  8
FoilLayer
100
AcDbLine
 10
404.8170877499553
 20
0.6161013181234276
 30
0.0
 11
403.59621656911014
 21
1.0355903400380486
 31
0.0
  0
LINE
  5
39
330
17
100
AcDbEntity
  8
FoilLayer
100
AcDbLine
 10
403.59621656911014
 20
1.0355903400380486
 30
0.0
 11
402.17915589936723
 21
1.5121256867646133
 31
0.0
  0
LINE
  5
3A
330
17
100
AcDbEntity
  8
FoilLayer
100
AcDbLine
 10
402.17915589936723
 20
1.5121256867646133
 30
0.0
 11
400.5601573294102
 21
2.051791876750313
 31
0.0
  0
LINE
  5
3B
330
17
100
AcDbEntity
  8
FoilLayer
100
AcDbLine
 10
400.5601573294102
 20
2.051791876750313
 30
0.0
 11
398.7565431119435
 21
2.6530138097407616
 31
0.0
  0
LINE
  5
3C
330
17
100
AcDbEntity
  8
FoilLayer
100
AcDbLine
 10
398.7565431119435
 20
2.6530138097407616
 30
0.0
 11
396.7618322396889
 21
3.2991002300562506
 31
0.0
  0
LINE
  5
3D
330
17
100
AcDbEntity
  8
FoilLayer
100
AcDbLine
 10
396.7618322396889
 20
3.2991002300562506
 30
0.0
 11
394.5808015842851
 21
4.00105074558116
 31
0.0
  0
LINE
  5
3E
330
17
100
AcDbEntity
  8
FoilLayer
100
AcDbLine
 10
394.5808015842851
 20
4.00105074558116
 30
0.0
 11
392.2108284411177
 21
4.747158763883374
 31
0.0
  0
LINE
  5
3F
330
17
100
AcDbEntity
  8
FoilLayer
100
AcDbLine
 10
392.2108284411177
 20
4.747158763883374
 30
0.0
 11
389.6579839652416
 21
5.53747595799943
 31
0.0
  0
LINE
  5
40
330
17
100
AcDbEntity
  8
FoilLayer
100
AcDbLine
 10
389.6579839652416
 20
5.53747595799943
 30
0.0
 11
386.91706974386176
 21
6.3779416489095375
 31
0.0
  0
LINE
  5
41
330
17
100
AcDbEntity
  8
FoilLayer
100
AcDbLine
 10
386.91706974386176
 20
6.3779416489095375
 30
0.0
 11
384.0011035213435
 21
7.262142903892325
 31
0.0
  0
LINE
  5
42
330
17
100
AcDbEntity
  8
FoilLayer
100
AcDbLine
 10
384.0011035213435
 20
7.262142903892325
 30
0.0
 11
380.9084621275669
 21
8.184290855558293
 31
0.0
  0
LINE
  5
43
330
17
100
AcDbEntity
  8
FoilLayer
100
AcDbLine
 10
380.9084621275669
 20
8.184290855558293
 30
0.0
 11
377.6407374070415
 21
9.150186034883623
 31
0.0
  0
LINE
  5
44
330
17
100
AcDbEntity
  8
FoilLayer
100
AcDbLine
 10
377.6407374070415
 20
9.150186034883623
 30
0.0
 11
374.19715217714423
 21
10.153783798230668
 31
0.0
  0
LINE
  5
45
330
17
100
AcDbEntity
  8
FoilLayer
100
AcDbLine
 10
374.19715217714423
 20
10.153783798230668
 30
0.0
 11
370.57753886634526
 21
11.195130068860903
 31
0.0
  0
LINE
  5
46
330
17
100
AcDbEntity
  8
FoilLayer
100
AcDbLine
 10
370.57753886634526
 20
11.195130068860903
 30
0.0
 11
366.7871277244065
 21
12.274518720886425
 31
0.0
  0
LINE
  5
47
330
17
100
AcDbEntity
  8
FoilLayer
100
AcDbLine
 10
366.7871277244065
 20
12.274518720886425
 30
0.0
 11
362.828347631707
 21
13.403807159051368
 31
0.0
  0
LINE
  5
48
330
17
100
AcDbEntity
  8
FoilLayer
100
AcDbLine
 10
362.828347631707
 20
13.403807159051368
 30
0.0
 11
358.7048398643021
 21
14.571193547135948
 31
0.0
  0
LINE
  5
49
330
17
100
AcDbEntity
  8
FoilLayer
100
AcDbLine
 10
358.7048398643021
 20
14.571193547135948
 30
0.0
 11
354.43248077732284
 21
15.788283987026352
 31
0.0
  0
LINE
  5
4A
330
17
100
AcDbEntity
  8
FoilLayer
100
AcDbLine
 10
354.43248077732284
 20
15.788283987026352
 30
0.0
 11
350.0085042340327
 21
17.03703765081199
 31
0.0
  0
LINE
  5
4B
330
17
100
AcDbEntity
  8
FoilLayer
100
AcDbLine
 10
350.0085042340327
 20
17.03703765081199
 30
0.0
 11
345.42772789097177
 21
18.32969509998667
 31
0.0
  0
LINE
  5
4C
330
17
100
AcDbEntity
  8
FoilLayer
100
AcDbLine
 10
345.42772789097177
 20
18.32969509998667
 30
0.0
 11
340.708372885821
 21
19.660151777269654
 31
0.0
  0
LINE
  5
4D
330
17
100
AcDbEntity
  8
FoilLayer
100
AcDbLine
 10
340.708372885821
 20
19.660151777269654
 30
0.0
 11
335.85170998269103
 21
21.03432397711648
 31
0.0
  0
LINE
  5
4E
330
17
100
AcDbEntity
  8
FoilLayer
100
AcDbLine
 10
335.85170998269103
 20
21.03432397711648
 30
0.0
 11
330.8690342599836
 21
22.440015907381344
 31
0.0
  0
LINE
  5
4F
330
17
100
AcDbEntity
  8
FoilLayer
100
AcDbLine
 10
330.8690342599836
 20
22.440015907381344
 30
0.0
 11
325.76182556850546
 21
23.883085488976345
 31
0.0
  0
LINE
  5
50
330
17
100
AcDbEntity
  8
FoilLayer
100
AcDbLine
 10
325.76182556850546
 20
23.883085488976345
 30
0.0
 11
320.52860624632143
 21
25.351398926985798
 31
0.0
  0
LINE
  5
51
330
17
100
AcDbEntity
  8
FoilLayer
100
AcDbLine
 10
320.52860624632143
 20
25.351398926985798
 30
0.0
 11
315.16948365148033
 21
26.851200230796767
 31
0.0
  0
LINE
  5
52
330
17
100
AcDbEntity
  8
FoilLayer
100
AcDbLine
 10
315.16948365148033
 20
26.851200230796767
 30
0.0
 11
309.7035601866575
 21
28.38241192428372
 31
0.0
  0
LINE
  5
53
330
17
100
AcDbEntity
  8
FoilLayer
100
AcDbLine
 10
309.7035601866575
 20
28.38241192428372
 30
0.0
 11
304.13800758967756
 21
29.944782744829112
 31
0.0
  0
LINE
  5
54
330
17
100
AcDbEntity
  8
FoilLayer
100
AcDbLine
 10
304.13800758967756
 20
29.944782744829112
 30
0.0
 11
298.4788706413379
 21
31.525829114556558
 31
0.0
  0
LINE
  5
55
330
17
100
AcDbEntity
  8
FoilLayer
100
AcDbLine
 10
298.4788706413379
 20
31.525829114556558
 30
0.0
 11
292.718744761785
 21
33.11958974056621
 31
0.0
  0
LINE
  5
56
330
17
100
AcDbEntity
  8
FoilLayer
100
AcDbLine
 10
292.718744761785
 20
33.11958974056621
 30
0.0
 11
286.8643589036865
 21
34.732212805343195
 31
0.0
  0
LINE
  5
57
330
17
100
AcDbEntity
  8
FoilLayer
100
AcDbLine
 10
286.8643589036865
 20
34.732212805343195
 30
0.0
 11
280.92187960722356
 21
36.36372773154828
 31
0.0
  0
LINE
  5
58
330
17
100
AcDbEntity
  8
FoilLayer
100
AcDbLine
 10
280.92187960722356
 20
36.36372773154828
 30
0.0
 11
274.90439728529446
 21
38.01398640036505
 31
0.0
  0
LINE
  5
59
330
17
100
AcDbEntity
  8
FoilLayer
100
AcDbLine
 10
274.90439728529446
 20
38.01398640036505
 30
0.0
 11
268.8194187067176
 21
39.67638217576029
 31
0.0
  0
LINE
  5
5A
330
17
100
AcDbEntity
  8
FoilLayer
100
AcDbLine
 10
268.8194187067176
 20
39.67638217576029
 30
0.0
 11
262.67094325613476
 21
41.32643402159763
 31
0.0
  0
LINE
  5
5B
330
17
100
AcDbEntity
  8
FoilLayer
100
AcDbLine
 10
262.67094325613476
 20
41.32643402159763
 30
0.0
 11
256.45341678250924
 21
42.976495751152804
 31
0.0
  0
LINE
  5
5C
330
17
100
AcDbEntity
  8
FoilLayer
100
AcDbLine
 10
256.45341678250924
 20
42.976495751152804
 30
0.0
 11
250.88575599979248
 21
44.43786779292376
 31
0.0
  0
LINE
  5
5D
330
17
100
AcDbEntity
  8
FoilLayer
100
AcDbLine
 10
250.88575599979248
 20
44.43786779292376
 30
0.0
 11
250.4922488879672
 21
42.938650612878476
 31
0.0
  0
LINE
  5
5E
330
17
100
AcDbEntity
  8
FoilLayer
100
AcDbLine
 10
250.4922488879672
 20
42.938650612878476
 30
0.0
 11
249.7795283175043
 21
43.1257369199315
 31
0.0
  0
LINE
  5
5F
330
17
100
AcDbEntity
  8
FoilLayer
100
AcDbLine
 10
249.7795283175043
 20
43.1257369199315
 30
0.0
 11
243.44885102581532
 21
44.76169873606007
 31
0.0
  0
LINE
  5
60
330
17
100
AcDbEntity
  8
FoilLayer
100
AcDbLine
 10
243.44885102581532
 20
44.76169873606007
 30
0.0
 11
237.06965921244495
 21
46.38471744902483
 31
0.0
  0
LINE
  5
61
330
17
100
AcDbEntity
  8
FoilLayer
100
AcDbLine
 10
237.06965921244495
 20
46.38471744902483
 30
0.0
 11
230.641023627731
 21
47.98876924308831
 31
0.0
  0
LINE
  5
62
330
17
100
AcDbEntity
  8
FoilLayer
100
AcDbLine
 10
230.641023627731
 20
47.98876924308831
 30
0.0
 11
224.14779746011504
 21
49.57448709640596
 31
0.0
  0
LINE
  5
63
330
17
100
AcDbEntity
  8
FoilLayer
100
AcDbLine
 10
224.14779746011504
 20
49.57448709640596
 30
0.0
 11
217.61333539805463
 21
51.14226129273384
 31
0.0
  0
LINE
  5
64
330
17
100
AcDbEntity
  8
FoilLayer
100
AcDbLine
 10
217.61333539805463
 20
51.14226129273384
 30
0.0
 11
211.04696790342496
 21
52.70242740980842
 31
0.0
  0
LINE
  5
65
330
17
100
AcDbEntity
  8
FoilLayer
100
AcDbLine
 10
211.04696790342496
 20
52.70242740980842
 30
0.0
 11
204.46351412628667
 21
54.23087844911167
 31
0.0
  0
LINE
  5
66
330
17
100
AcDbEntity
  8
FoilLayer
100
AcDbLine
 10
204.46351412628667
 20
54.23087844911167
 30
0.0
 11
197.86336482923366
 21
55.72128669604473
 31
0.0
  0
LINE
  5
67
330
17
100
AcDbEntity
  8
FoilLayer
100
AcDbLine
 10
197.86336482923366
 20
55.72128669604473
 30
0.0
 11
191.24373897215503
 21
57.16669449527485
 31
0.0
  0
LINE
  5
68
330
17
100
AcDbEntity
  8
FoilLayer
100
AcDbLine
 10
191.24373897215503
 20
57.16669449527485
 30
0.0
 11
184.5877281098699
 21
58.55054958667811
 31
0.0
  0
LINE
  5
69
330
17
100
AcDbEntity
  8
FoilLayer
100
AcDbLine
 10
184.5877281098699
 20
58.55054958667811
 30
0.0
 11
177.89294750086242
 21
59.89080575985236
 31
0.0
  0
LINE
  5
6A
330
17
100
AcDbEntity
  8
FoilLayer
100
AcDbLine
 10
177.89294750086242
 20
59.89080575985236
 30
0.0
 11
171.1817413006787
 21
61.18678543882773
 31
0.0
  0
LINE
  5
6B
330
17
100
AcDbEntity
  8
FoilLayer
100
AcDbLine
 10
171.1817413006787
 20
61.18678543882773
 30
0.0
 11
164.43991567035908
 21
62.43256144468373
 31
0.0
  0
LINE
  5
6C
330
17
100
AcDbEntity
  8
FoilLayer
100
AcDbLine
 10
164.43991567035908
 20
62.43256144468373
 30
0.0
 11
157.68614516579083
 21
63.62190287390349
 31
0.0
  0
LINE
  5
6D
330
17
100
AcDbEntity
  8
FoilLayer
100
AcDbLine
 10
157.68614516579083
 20
63.62190287390349
 30
0.0
 11
150.90694116740053
 21
64.75497368459366
 31
0.0
  0
LINE
  5
6E
330
17
100
AcDbEntity
  8
FoilLayer
100
AcDbLine
 10
150.90694116740053
 20
64.75497368459366
 30
0.0
 11
144.10915240905683
 21
65.83167867585618
 31
0.0
  0
LINE
  5
6F
330
17
100
AcDbEntity
  8
FoilLayer
100
AcDbLine
 10
144.10915240905683
 20
65.83167867585618
 30
0.0
 11
137.28570302068658
 21
66.85213638290325
 31
0.0
  0
LINE
  5
70
330
17
100
AcDbEntity
  8
FoilLayer
100
AcDbLine
 10
137.28570302068658
 20
66.85213638290325
 30
0.0
 11
130.44946473247523
 21
67.81628933161804
 31
0.0
  0
LINE
  5
71
330
17
100
AcDbEntity
  8
FoilLayer
100
AcDbLine
 10
130.44946473247523
 20
67.81628933161804
 30
0.0
 11
123.6071965647227
 21
68.72407092610409
 31
0.0
  0
LINE
  5
72
330
17
100
AcDbEntity
  8
FoilLayer
100
AcDbLine
 10
123.6071965647227
 20
68.72407092610409
 30
0.0
 11
116.75216180552889
 21
69.57554037068928
 31
0.0
  0
LINE
  5
73
330
17
100
AcDbEntity
  8
FoilLayer
100
AcDbLine
 10
116.75216180552889
 20
69.57554037068928
 30
0.0
 11
109.89445355796363
 21
70.37028444021668
 31
0.0
  0
LINE
  5
74
330
17
100
AcDbEntity
  8
FoilLayer
100
AcDbLine
 10
109.89445355796363
 20
70.37028444021668
 30
0.0
 11
103.02690444266648
 21
71.09654699250399
 31
0.0
  0
LINE
  5
75
330
17
100
AcDbEntity
  8
FoilLayer
100
AcDbLine
 10
103.02690444266648
 20
71.09654699250399
 30
0.0
 11
96.15112935016799
 21
71.76664305879045
 31
0.0
  0
LINE
  5
76
330
17
100
AcDbEntity
  8
FoilLayer
100
AcDbLine
 10
96.15112935016799
 20
71.76664305879045
 30
0.0
 11
89.27884265176334
 21
72.38635621208498
 31
0.0
  0
LINE
  5
77
330
17
100
AcDbEntity
  8
FoilLayer
100
AcDbLine
 10
89.27884265176334
 20
72.38635621208498
 30
0.0
 11
82.40928224550777
 21
72.943737841248
 31
0.0
  0
LINE
  5
78
330
17
100
AcDbEntity
  8
FoilLayer
100
AcDbLine
 10
82.40928224550777
 20
72.943737841248
 30
0.0
 11
75.54943970979821
 21
73.45079473941738
 31
0.0
  0
LINE
  5
79
330
17
100
AcDbEntity
  8
FoilLayer
100
AcDbLine
 10
75.54943970979821
 20
73.45079473941738
 30
0.0
 11
68.708653717809
 21
73.89524560619746
 31
0.0
  0
LINE
  5
7A
330
17
100
AcDbEntity
  8
FoilLayer
100
AcDbLine
 10
68.708653717809
 20
73.89524560619746
 30
0.0
 11
61.88051160293929
 21
74.2771028784724
 31
0.0
  0
LINE
  5
7B
330
17
100
AcDbEntity
  8
FoilLayer
100
AcDbLine
 10
61.88051160293929
 20
74.2771028784724
 30
0.0
 11
55.06310267880622
 21
74.59644185340899
 31
0.0
  0
LINE
  5
7C
330
17
100
AcDbEntity
  8
FoilLayer
100
AcDbLine
 10
55.06310267880622
 20
74.59644185340899
 30
0.0
 11
48.26456870524902
 21
74.8594353006468
 31
0.0
  0
LINE
  5
7D
330
17
100
AcDbEntity
  8
FoilLayer
100
AcDbLine
 10
48.26456870524902
 20
74.8594353006468
 30
0.0
 11
41.49118625266408
 21
75.0660842875719
 31
0.0
  0
LINE
  5
7E
330
17
100
AcDbEntity
  8
FoilLayer
100
AcDbLine
 10
41.49118625266408
 20
75.0660842875719
 30
0.0
 11
34.7575650787343
 21
75.21636201981039
 31
0.0
  0
LINE
  5
7F
330
17
100
AcDbEntity
  8
FoilLayer
100
AcDbLine
 10
34.7575650787343
 20
75.21636201981039
 30
0.0
 11
28.04917580771476
 21
75.30405820128865
 31
0.0
  0
LINE
  5
80
330
17
100
AcDbEntity
  8
FoilLayer
100
AcDbLine
 10
28.04917580771476
 20
75.30405820128865
 30
0.0
 11
21.380512154492095
 21
75.32918831863395
 31
0.0
  0
LINE
  5
81
330
17
100
AcDbEntity
  8
FoilLayer
100
AcDbLine
 10
21.380512154492095
 20
75.32918831863395
 30
0.0
 11
14.73148606698203
 21
75.28542029513008
 31
0.0
  0
LINE
  5
82
330
17
100
AcDbEntity
  8
FoilLayer
100
AcDbLine
 10
14.73148606698203
 20
75.28542029513008
 30
0.0
 11
8.120363601454386
 21
75.19157221037982
 31
0.0
  0
LINE
  5
83
330
17
100
AcDbEntity
  8
FoilLayer
100
AcDbLine
 10
8.120363601454386
 20
75.19157221037982
 30
0.0
 11
1.5634524836617913
 21
75.04776555394375
 31
0.0
  0
LINE
  5
84
330
17
100
AcDbEntity
  8
FoilLayer
100
AcDbLine
 10
1.5634524836617913
 20
75.04776555394375
 30
0.0
 11
-4.95098044398091
 21
74.84133764305423
 31
0.0
  0
LINE
  5
85
330
17
100
AcDbEntity
  8
FoilLayer
100
AcDbLine
 10
-4.95098044398091
 20
74.84133764305423
 30
0.0
 11
-11.398729070304995
 21
74.57879578415626
 31
0.0
  0
LINE
  5
86
330
17
100
AcDbEntity
  8
FoilLayer
100
AcDbLine
 10
-11.398729070304995
 20
74.57879578415626
 30
0.0
 11
-17.806078445030778
 21
74.24725082086785
 31
0.0
  0
LINE
  5
87
330
17
100
AcDbEntity
  8
FoilLayer
100
AcDbLine
 10
-17.806078445030778
 20
74.24725082086785
 30
0.0
 11
-24.162965489567256
 21
73.85941855180832
 31
0.0
  0
LINE
  5
88
330
17
100
AcDbEntity
  8
FoilLayer
100
AcDbLine
 10
-24.162965489567256
 20
73.85941855180832
 30
0.0
 11
-30.47089987298176
 21
73.41518647057873
 31
0.0
  0
LINE
  5
89
330
17
100
AcDbEntity
  8
FoilLayer
100
AcDbLine
 10
-30.47089987298176
 20
73.41518647057873
 30
0.0
 11
-36.70927811410385
 21
72.92095332785337
 31
0.0
  0
LINE
  5
8A
330
17
100
AcDbEntity
  8
FoilLayer
100
AcDbLine
 10
-36.70927811410385
 20
72.92095332785337
 30
0.0
 11
-42.86810502486435
 21
72.37710088104541
 31
0.0
  0
LINE
  5
8B
330
17
100
AcDbEntity
  8
FoilLayer
100
AcDbLine
 10
-42.86810502486435
 20
72.37710088104541
 30
0.0
 11
-48.955663294100816
 21
71.77099726140928
 31
0.0
  0
LINE
  5
8C
330
17
100
AcDbEntity
  8
FoilLayer
100
AcDbLine
 10
-48.955663294100816
 20
71.77099726140928
 30
0.0
 11
-54.98595992168134
 21
71.09549577160675
 31
0.0
  0
LINE
  5
8D
330
17
100
AcDbEntity
  8
FoilLayer
100
AcDbLine
 10
-54.98595992168134
 20
71.09549577160675
 30
0.0
 11
-60.94658189835238
 21
70.37006223949597
 31
0.0
  0
LINE
  5
8E
330
17
100
AcDbEntity
  8
FoilLayer
100
AcDbLine
 10
-60.94658189835238
 20
70.37006223949597
 30
0.0
 11
-66.83147401090554
 21
69.59468567472008
 31
0.0
  0
LINE
  5
8F
330
17
100
AcDbEntity
  8
FoilLayer
100
AcDbLine
 10
-66.83147401090554
 20
69.59468567472008
 30
0.0
 11
-72.64209559563565
 21
68.76915792771653
 31
0.0
  0
LINE
  5
90
330
17
100
AcDbEntity
  8
FoilLayer
100
AcDbLine
 10
-72.64209559563565
 20
68.76915792771653
 30
0.0
 11
-78.35974158873583
 21
67.9007268242741
 31
0.0
  0
LINE
  5
91
330
17
100
AcDbEntity
  8
FoilLayer
100
AcDbLine
 10
-78.35974158873583
 20
67.9007268242741
 30
0.0
 11
-83.9833573058657
 21
66.97610532203021
 31
0.0
  0
LINE
  5
92
330
17
100
AcDbEntity
  8
FoilLayer
100
AcDbLine
 10
-83.9833573058657
 20
66.97610532203021
 30
0.0
 11
-89.52701263799872
 21
65.99500416025984
 31
0.0
  0
LINE
  5
93
330
17
100
AcDbEntity
  8
FoilLayer
100
AcDbLine
 10
-89.52701263799872
 20
65.99500416025984
 30
0.0
 11
-94.98768220482904
 21
64.96424988440708
 31
0.0
  0
LINE
  5
94
330
17
100
AcDbEntity
  8
FoilLayer
100
AcDbLine
 10
-94.98768220482904
 20
64.96424988440708
 30
0.0
 11
-100.3557757194316
 21
63.88326428782171
 31
0.0
  0
LINE
  5
95
330
17
100
AcDbEntity
  8
FoilLayer
100
AcDbLine
 10
-100.3557757194316
 20
63.88326428782171
 30
0.0
 11
-105.63084192564551
 21
62.75837047919911
 31
0.0
  0
LINE
  5
96
330
17
100
AcDbEntity
  8
FoilLayer
100
AcDbLine
 10
-105.63084192564551
 20
62.75837047919911
 30
0.0
 11
-110.80148343653093
 21
61.59702118793479
 31
0.0
  0
LINE
  5
97
330
17
100
AcDbEntity
  8
FoilLayer
100
AcDbLine
 10
-110.80148343653093
 20
61.59702118793479
 30
0.0
 11
-115.85542585592124
 21
60.39303881866932
 31
0.0
  0
LINE
  5
98
330
17
100
AcDbEntity
  8
FoilLayer
100
AcDbLine
 10
-115.85542585592124
 20
60.39303881866932
 30
0.0
 11
-120.81615713762078
 21
59.13279303969017
 31
0.0
  0
LINE
  5
99
330
17
100
AcDbEntity
  8
FoilLayer
100
AcDbLine
 10
-120.81615713762078
 20
59.13279303969017
 30
0.0
 11
-125.67798711818294
 21
57.82235490876032
 31
0.0
  0
LINE
  5
9A
330
17
100
AcDbEntity
  8
FoilLayer
100
AcDbLine
 10
-125.67798711818294
 20
57.82235490876032
 30
0.0
 11
-130.44427660595454
 21
56.466937153084295
 31
0.0
  0
LINE
  5
9B
330
17
100
AcDbEntity
  8
FoilLayer
100
AcDbLine
 10
-130.44427660595454
 20
56.466937153084295
 30
0.0
 11
-135.09033780945043
 21
55.088948535225725
 31
0.0
  0
LINE
  5
9C
330
17
100
AcDbEntity
  8
FoilLayer
100
AcDbLine
 10
-135.09033780945043
 20
55.088948535225725
 30
0.0
 11
-139.62959156658712
 21
53.66755862138689
 31
0.0
  0
LINE
  5
9D
330
17
100
AcDbEntity
  8
FoilLayer
100
AcDbLine
 10
-139.62959156658712
 20
53.66755862138689
 30
0.0
 11
-144.05018098145246
 21
52.2088157094948
 31
0.0
  0
LINE
  5
9E
330
17
100
AcDbEntity
  8
FoilLayer
100
AcDbLine
 10
-144.05018098145246
 20
52.2088157094948
 30
0.0
 11
-148.36133501530054
 21
50.71390945114758
 31
0.0
  0
LINE
  5
9F
330
17
100
AcDbEntity
  8
FoilLayer
100
AcDbLine
 10
-148.36133501530054
 20
50.71390945114758
 30
0.0
 11
-152.55644607468426
 21
49.180720463903214
 31
0.0
  0
LINE
  5
A0
330
17
100
AcDbEntity
  8
FoilLayer
100
AcDbLine
 10
-152.55644607468426
 20
49.180720463903214
 30
0.0
 11
-156.64439899585219
 21
47.61683191741228
 31
0.0
  0
LINE
  5
A1
330
17
100
AcDbEntity
  8
FoilLayer
100
AcDbLine
 10
-156.64439899585219
 20
47.61683191741228
 30
0.0
 11
-160.61086853994834
 21
46.029297633562784
 31
0.0
  0
LINE
  5
A2
330
17
100
AcDbEntity
  8
FoilLayer
100
AcDbLine
 10
-160.61086853994834
 20
46.029297633562784
 30
0.0
 11
-164.45046988249
 21
44.417869210015425
 31
0.0
  0
LINE
  5
A3
330
17
100
AcDbEntity
  8
FoilLayer
100
AcDbLine
 10
-164.45046988249
 20
44.417869210015425
 30
0.0
 11
-168.16055664601953
 21
42.78387366868383
 31
0.0
  0
LINE
  5
A4
330
17
100
AcDbEntity
  8
FoilLayer
100
AcDbLine
 10
-168.16055664601953
 20
42.78387366868383
 30
0.0
 11
-171.7501065782575
 21
41.11695996070075
 31
0.0
  0
LINE
  5
A5
330
17
100
AcDbEntity
  8
FoilLayer
100
AcDbLine
 10
-171.7501065782575
 20
41.11695996070075
 30
0.0
 11
-175.21645432845054
 21
39.43391272368961
 31
0.0
  0
LINE
  5
A6
330
17
100
AcDbEntity
  8
FoilLayer
100
AcDbLine
 10
-175.21645432845054
 20
39.43391272368961
 30
0.0
 11
-178.56725252591093
 21
37.724676651316
 31
0.0
  0
LINE
  5
A7
330
17
100
AcDbEntity
  8
FoilLayer
100
AcDbLine
 10
-178.56725252591093
 20
37.724676651316
 30
0.0
 11
-181.77924629237162
 21
36.01381388627054
 31
0.0
  0
LINE
  5
A8
330
17
100
AcDbEntity
  8
FoilLayer
100
AcDbLine
 10
-181.77924629237162
 20
36.01381388627054
 30
0.0
 11
-184.8641081588613
 21
34.28250882048335
 31
0.0
  0
LINE
  5
A9
330
17
100
AcDbEntity
  8
FoilLayer
100
AcDbLine
 10
-184.8641081588613
 20
34.28250882048335
 30
0.0
 11
-187.7997710966452
 21
32.55899712490292
 31
0.0
  0
LINE
  5
AA
330
17
100
AcDbEntity
  8
FoilLayer
100
AcDbLine
 10
-187.7997710966452
 20
32.55899712490292
 30
0.0
 11
-190.6053260735204
 21
30.810942436869233
 31
0.0
  0
LINE
  5
AB
330
17
100
AcDbEntity
  8
FoilLayer
100
AcDbLine
 10
-190.6053260735204
 20
30.810942436869233
 30
0.0
 11
-193.27625554527975
 21
29.049568180908842
 31
0.0
  0
LINE
  5
AC
330
17
100
AcDbEntity
  8
FoilLayer
100
AcDbLine
 10
-193.27625554527975
 20
29.049568180908842
 30
0.0
 11
-195.83042876990413
 21
27.27527875273485
 31
0.0
  0
LINE
  5
AD
330
17
100
AcDbEntity
  8
FoilLayer
100
AcDbLine
 10
-195.83042876990413
 20
27.27527875273485
 30
0.0
 11
-198.24656660521754
 21
25.513409914758473
 31
0.0
  0
LINE
  5
AE
330
17
100
AcDbEntity
  8
FoilLayer
100
AcDbLine
 10
-198.24656660521754
 20
25.513409914758473
 30
0.0
 11
-200.51792133688545
 21
23.760118381718588
 31
0.0
  0
LINE
  5
AF
330
17
100
AcDbEntity
  8
FoilLayer
100
AcDbLine
 10
-200.51792133688545
 20
23.760118381718588
 30
0.0
 11
-202.64118780477156
 21
22.023977931661104
 31
0.0
  0
LINE
  5
B0
330
17
100
AcDbEntity
  8
FoilLayer
100
AcDbLine
 10
-202.64118780477156
 20
22.023977931661104
 30
0.0
 11
-204.6226098601571
 21
20.282691637621955
 31
0.0
  0
LINE
  5
B1
330
17
100
AcDbEntity
  8
FoilLayer
100
AcDbLine
 10
-204.6226098601571
 20
20.282691637621955
 30
0.0
 11
-206.4711783818573
 21
18.539633703346865
 31
0.0
  0
LINE
  5
B2
330
17
100
AcDbEntity
  8
FoilLayer
100
AcDbLine
 10
-206.4711783818573
 20
18.539633703346865
 30
0.0
 11
-208.18311615034366
 21
16.81747217990368
 31
0.0
  0
LINE
  5
B3
330
17
100
AcDbEntity
  8
FoilLayer
100
AcDbLine
 10
-208.18311615034366
 20
16.81747217990368
 30
0.0
 11
-209.76203376860468
 21
15.106231464698405
 31
0.0
  0
LINE
  5
B4
330
17
100
AcDbEntity
  8
FoilLayer
100
AcDbLine
 10
-209.76203376860468
 20
15.106231464698405
 30
0.0
 11
-211.19906101410515
 21
13.436761735256898
 31
0.0
  0
LINE
  5
B5
330
17
100
AcDbEntity
  8
FoilLayer
100
AcDbLine
 10
-211.19906101410515
 20
13.436761735256898
 30
0.0
 11
-212.4958341745081
 21
11.787217890817052
 31
0.0
  0
LINE
  5
B6
330
17
100
AcDbEntity
  8
FoilLayer
100
AcDbLine
 10
-212.4958341745081
 20
11.787217890817052
 30
0.0
 11
-213.6439312613568
 21
10.189046288249093
 31
0.0
  0
LINE
  5
B7
330
17
100
AcDbEntity
  8
FoilLayer
100
AcDbLine
 10
-213.6439312613568
 20
10.189046288249093
 30
0.0
 11
-214.6431357569615
 21
8.640615146002833
 31
0.0
  0
LINE
  5
B8
330
17
100
AcDbEntity
  8
FoilLayer
100
AcDbLine
 10
-214.6431357569615
 20
8.640615146002833
 30
0.0
 11
-215.505713117207
 21
7.111324590467593
 31
0.0
  0
LINE
  5
B9
330
17
100
AcDbEntity
  8
FoilLayer
100
AcDbLine
 10
-215.505713117207
 20
7.111324590467593
 30
0.0
 11
-216.1971046366226
 21
5.710693058602512
 31
0.0
  0
LINE
  5
BA
330
17
100
AcDbEntity
  8
FoilLayer
100
AcDbLine
 10
-216.1971046366226
 20
5.710693058602512
 30
0.0
 11
-216.79251531141404
 21
4.174975347595141
 31
0.0
  0
LINE
  5
BB
330
17
100
AcDbEntity
  8
FoilLayer
100
AcDbLine
 10
-216.79251531141404
 20
4.174975347595141
 30
0.0
 11
-217.19061889016496
 21
3.078527958467517
 31
0.0
  0
LINE
  5
BC
330
17
100
AcDbEntity
  8
FoilLayer
100
AcDbLine
 10
-217.19061889016496
 20
3.078527958467517
 30
0.0
 11
-217.47716353384646
 21
1.6423781806001336
 31
0.0
  0
LINE
  5
BD
330
17
100
AcDbEntity
  8
FoilLayer
100
AcDbLine
 10
-217.47716353384646
 20
1.6423781806001336
 30
0.0
 11
-217.62499999999983
 21
0.18825564766942993
 31
0.0
  0
LINE
  5
BE
330
17
100
AcDbEntity
  8
FoilLayer
100
AcDbLine
 10
-217.62499999999983
 20
0.18825564766942993
 30
0.0
 11
-217.63237229228207
 21
-0.10561422601924605
 31
0.0
  0
LINE
  5
BF
330
17
100
AcDbEntity
  8
FoilLayer
100
AcDbLine
 10
-217.63237229228207
 20
-0.10561422601924605
 30
0.0
 11
-217.52182861018673
 21
-1.3782530179119825
 31
0.0
  0
LINE
  5
C0
330
17
100
AcDbEntity
  8
FoilLayer
100
AcDbLine
 10
-217.52182861018673
 20
-1.3782530179119825
 30
0.0
 11
-217.25057867177907
 21
-2.2847778880163614
 31
0.0
  0
LINE
  5
C1
330
17
100
AcDbEntity
  8
FoilLayer
100
AcDbLine
 10
-217.25057867177907
 20
-2.2847778880163614
 30
0.0
 11
-216.83773176962183
 21
-3.164765531995192
 31
0.0
  0
LINE
  5
C2
330
17
100
AcDbEntity
  8
FoilLayer
100
AcDbLine
 10
-216.83773176962183
 20
-3.164765531995192
 30
0.0
 11
-216.22451045504693
 21
-4.065702967888347
 31
0.0
  0
LINE
  5
C3
330
17
100
AcDbEntity
  8
FoilLayer
100
AcDbLine
 10
-216.22451045504693
 20
-4.065702967888347
 30
0.0
 11
-215.46146201171047
 21
-4.942126191199472
 31
0.0
  0
LINE
  5
C4
330
17
100
AcDbEntity
  8
FoilLayer
100
AcDbLine
 10
-215.46146201171047
 20
-4.942126191199472
 30
0.0
 11
-214.5124322408502
 21
-5.79822633882217
 31
0.0
  0
LINE
  5
C5
330
17
100
AcDbEntity
  8
FoilLayer
100
AcDbLine
 10
-214.5124322408502
 20
-5.79822633882217
 30
0.0
 11
-213.39289574602574
 21
-6.6131404506572995
 31
0.0
  0
LINE
  5
C6
330
17
100
AcDbEntity
  8
FoilLayer
100
AcDbLine
 10
-213.39289574602574
 20
-6.6131404506572995
 30
0.0
 11
-212.06477763649062
 21
-7.387059702464136
 31
0.0
  0
LINE
  5
C7
330
17
100
AcDbEntity
  8
FoilLayer
100
AcDbLine
 10
-212.06477763649062
 20
-7.387059702464136
 30
0.0
 11
-210.4766291252102
 21
-8.131884347211475
 31
0.0
  0
LINE
  5
C8
330
17
100
AcDbEntity
  8
FoilLayer
100
AcDbLine
 10
-210.4766291252102
 20
-8.131884347211475
 30
0.0
 11
-208.64914510116148
 21
-8.861241832679562
 31
0.0
  0
LINE
  5
C9
330
17
100
AcDbEntity
  8
FoilLayer
100
AcDbLine
 10
-208.64914510116148
 20
-8.861241832679562
 30
0.0
 11
-206.60894937283916
 21
-9.574916999699571
 31
0.0
  0
LINE
  5
CA
330
17
100
AcDbEntity
  8
FoilLayer
100
AcDbLine
 10
-206.60894937283916
 20
-9.574916999699571
 30
0.0
 11
-204.4257341825193
 21
-10.260220901026075
 31
0.0
  0
LINE
  5
CB
330
17
100
AcDbEntity
  8
FoilLayer
100
AcDbLine
 10
-204.4257341825193
 20
-10.260220901026075
 30
0.0
 11
-202.05593085265045
 21
-10.893816931549651
 31
0.0
  0
LINE
  5
CC
330
17
100
AcDbEntity
  8
FoilLayer
100
AcDbLine
 10
-202.05593085265045
 20
-10.893816931549651
 30
0.0
 11
-199.48059162413463
 21
-11.472357017804978
 31
0.0
  0
LINE
  5
CD
330
17
100
AcDbEntity
  8
FoilLayer
100
AcDbLine
 10
-199.48059162413463
 20
-11.472357017804978
 30
0.0
 11
-196.69653232979113
 21
-12.017212097116207
 31
0.0
  0
LINE
  5
CE
330
17
100
AcDbEntity
  8
FoilLayer
100
AcDbLine
 10
-196.69653232979113
 20
-12.017212097116207
 30
0.0
 11
-193.71431049451357
 21
-12.538356494548264
 31
0.0
  0
LINE
  5
CF
330
17
100
AcDbEntity
  8
FoilLayer
100
AcDbLine
 10
-193.71431049451357
 20
-12.538356494548264
 30
0.0
 11
-190.58076309415947
 21
-13.027215552090357
 31
0.0
  0
LINE
  5
D0
330
17
100
AcDbEntity
  8
FoilLayer
100
AcDbLine
 10
-190.58076309415947
 20
-13.027215552090357
 30
0.0
 11
-187.27394663778006
 21
-13.4611915331703
 31
0.0
  0
LINE
  5
D1
330
17
100
AcDbEntity
  8
FoilLayer
100
AcDbLine
 10
-187.27394663778006
 20
-13.4611915331703
 30
0.0
 11
-183.78173081129012
 21
-13.840541110165772
 31
0.0
  0
LINE
  5
D2
330
17
100
AcDbEntity
  8
FoilLayer
100
AcDbLine
 10
-183.78173081129012
 20
-13.840541110165772
 30
0.0
 11
-180.08166374247145
 21
-14.177590870828485
 31
0.0
  0
LINE
  5
D3
330
17
100
AcDbEntity
  8
FoilLayer
100
AcDbLine
 10
-180.08166374247145
 20
-14.177590870828485
 30
0.0
 11
-176.19713248433095
 21
-14.489939828598706
 31
0.0
  0
LINE
  5
D4
330
17
100
AcDbEntity
  8
FoilLayer
100
AcDbLine
 10
-176.19713248433095
 20
-14.489939828598706
 30
0.0
 11
-172.15655297687
 21
-14.776937866859345
 31
0.0
  0
LINE
  5
D5
330
17
100
AcDbEntity
  8
FoilLayer
100
AcDbLine
 10
-172.15655297687
 20
-14.776937866859345
 30
0.0
 11
-167.97247998506077
 21
-15.020034494040369
 31
0.0
  0
LINE
  5
D6
330
17
100
AcDbEntity
  8
FoilLayer
100
AcDbLine
 10
-167.97247998506077
 20
-15.020034494040369
 30
0.0
 11
-163.61475977740008
 21
-15.201211181940673
 31
0.0
  0
LINE
  5
D7
330
17
100
AcDbEntity
  8
FoilLayer
100
AcDbLine
 10
-163.61475977740008
 20
-15.201211181940673
 30
0.0
 11
-159.08353543284767
 21
-15.338794102307723
 31
0.0
  0
LINE
  5
D8
330
17
100
AcDbEntity
  8
FoilLayer
100
AcDbLine
 10
-159.08353543284767
 20
-15.338794102307723
 30
0.0
 11
-154.35733782099288
 21
-15.438985414652173
 31
0.0
  0
LINE
  5
D9
330
17
100
AcDbEntity
  8
FoilLayer
100
AcDbLine
 10
-154.35733782099288
 20
-15.438985414652173
 30
0.0
 11
-149.487318185708
 21
-15.514089191548244
 31
0.0
  0
LINE
  5
DA
330
17
100
AcDbEntity
  8
FoilLayer
100
AcDbLine
 10
-149.487318185708
 20
-15.514089191548244
 30
0.0
 11
-144.46805894696314
 21
-15.545439553797515
 31
0.0
  0
LINE
  5
DB
330
17
100
AcDbEntity
  8
FoilLayer
100
AcDbLine
 10
-144.46805894696314
 20
-15.545439553797515
 30
0.0
 11
-139.30327875328598
 21
-15.526767075369168
 31
0.0
  0
LINE
  5
DC
330
17
100
AcDbEntity
  8
FoilLayer
100
AcDbLine
 10
-139.30327875328598
 20
-15.526767075369168
 30
0.0
 11
-133.96111162102505
 21
-15.457904223804618
 31
0.0
  0
LINE
  5
DD
330
17
100
AcDbEntity
  8
FoilLayer
100
AcDbLine
 10
-133.96111162102505
 20
-15.457904223804618
 30
0.0
 11
-128.44456802444714
 21
-15.357611337394236
 31
0.0
  0
LINE
  5
DE
330
17
100
AcDbEntity
  8
FoilLayer
100
AcDbLine
 10
-128.44456802444714
 20
-15.357611337394236
 30
0.0
 11
-122.7754173937182
 21
-15.238614990761416
 31
0.0
  0
LINE
  5
DF
330
17
100
AcDbEntity
  8
FoilLayer
100
AcDbLine
 10
-122.7754173937182
 20
-15.238614990761416
 30
0.0
 11
-116.986537106485
 21
-15.088478469406423
 31
0.0
  0
LINE
  5
E0
330
17
100
AcDbEntity
  8
FoilLayer
100
AcDbLine
 10
-116.986537106485
 20
-15.088478469406423
 30
0.0
 11
-111.05468100571134
 21
-14.888064532609713
 31
0.0
  0
LINE
  5
E1
330
17
100
AcDbEntity
  8
FoilLayer
100
AcDbLine
 10
-111.05468100571134
 20
-14.888064532609713
 30
0.0
 11
-104.97781379925844
 21
-14.650027085179842
 31
0.0
  0
LINE
  5
E2
330
17
100
AcDbEntity
  8
FoilLayer
100
AcDbLine
 10
-104.97781379925844
 20
-14.650027085179842
 30
0.0
 11
-98.73396801703078
 21
-14.373917322226458
 31
0.0
  0
LINE
  5
E3
330
17
100
AcDbEntity
  8
FoilLayer
100
AcDbLine
 10
-98.73396801703078
 20
-14.373917322226458
 30
0.0
 11
-92.35199294366534
 21
-14.091815975668874
 31
0.0
  0
LINE
  5
E4
330
17
100
AcDbEntity
  8
FoilLayer
100
AcDbLine
 10
-92.35199294366534
 20
-14.091815975668874
 30
0.0
 11
-85.85874151828162
 21
-13.784718167695496
 31
0.0
  0
LINE
  5
E5
330
17
100
AcDbEntity
  8
FoilLayer
100
AcDbLine
 10
-85.85874151828162
 20
-13.784718167695496
 30
0.0
 11
-79.25566662258859
 21
-13.446450444796781
 31
0.0
  0
LINE
  5
E6
330
17
100
AcDbEntity
  8
FoilLayer
100
AcDbLine
 10
-79.25566662258859
 20
-13.446450444796781
 30
0.0
 11
-72.51675332101544
 21
-13.064068305929196
 31
0.0
  0
LINE
  5
E7
330
17
100
AcDbEntity
  8
FoilLayer
100
AcDbLine
 10
-72.51675332101544
 20
-13.064068305929196
 30
0.0
 11
-65.63689474979867
 21
-12.64977152825039
 31
0.0
  0
LINE
  5
E8
330
17
100
AcDbEntity
  8
FoilLayer
100
AcDbLine
 10
-65.63689474979867
 20
-12.64977152825039
 30
0.0
 11
-62.867967931994144
 21
-12.486164393089156
 31
0.0
  0
LINE
  5
E9
330
17
100
AcDbEntity
  8
FoilLayer
100
AcDbLine
 10
-62.867967931994144
 20
-12.486164393089156
 30
0.0
 11
-62.77654278469865
 21
-14.03346573492338
 31
0.0
  0
LINE
  5
EA
330
17
100
AcDbEntity
  8
FoilLayer
100
AcDbLine
 10
-62.77654278469865
 20
-14.03346573492338
 30
0.0
 11
-58.53652469830615
 21
-13.782936682340974
 31
0.0
  0
LINE
  5
EB
330
17
100
AcDbEntity
  8
FoilLayer
100
AcDbLine
 10
-58.53652469830615
 20
-13.782936682340974
 30
0.0
 11
-51.434220544290895
 21
-13.356298136502943
 31
0.0
  0
LINE
  5
EC
330
17
100
AcDbEntity
  8
FoilLayer
100
AcDbLine
 10
-51.434220544290895
 20
-13.356298136502943
 30
0.0
 11
-44.23885864003984
 21
-12.904633449170612
 31
0.0
  0
LINE
  5
ED
330
17
100
AcDbEntity
  8
FoilLayer
100
AcDbLine
 10
-44.23885864003984
 20
-12.904633449170612
 30
0.0
 11
-36.934833782016796
 21
-12.40891364589983
 31
0.0
  0
LINE
  5
EE
330
17
100
AcDbEntity
  8
FoilLayer
100
AcDbLine
 10
-36.934833782016796
 20
-12.40891364589983
 30
0.0
 11
-29.517127052547465
 21
-11.900593852547585
 31
0.0
  0
LINE
  5
EF
330
17
100
AcDbEntity
  8
FoilLayer
100
AcDbLine
 10
-29.517127052547465
 20
-11.900593852547585
 30
0.0
 11
-21.992483610498198
 21
-11.392257342786968
 31
0.0
  0
LINE
  5
F0
330
17
100
AcDbEntity
  8
FoilLayer
100
AcDbLine
 10
-21.992483610498198
 20
-11.392257342786968
 30
0.0
 11
-14.388517256785207
 21
-10.89034810089779
 31
0.0
  0
LINE
  5
F1
330
17
100
AcDbEntity
  8
FoilLayer
100
AcDbLine
 10
-14.388517256785207
 20
-10.89034810089779
 30
0.0
 11
-6.714719671490144
 21
-10.357010399386473
 31
0.0
  0
LINE
  5
F2
330
17
100
AcDbEntity
  8
FoilLayer
100
AcDbLine
 10
-6.714719671490144
 20
-10.357010399386473
 30
0.0
 11
1.0414118558288408
 21
-9.80479391524228
 31
0.0
  0
LINE
  5
F3
330
17
100
AcDbEntity
  8
FoilLayer
100
AcDbLine
 10
1.0414118558288408
 20
-9.80479391524228
 30
0.0
 11
8.8856995544852
 21
-9.246280733458736
 31
0.0
  0
LINE
  5
F4
330
17
100
AcDbEntity
  8
FoilLayer
100
AcDbLine
 10
8.8856995544852
 20
-9.246280733458736
 30
0.0
 11
16.80593728732481
 21
-8.687722981446452
 31
0.0
  0
LINE
  5
F5
330
17
100
AcDbEntity
  8
FoilLayer
100
AcDbLine
 10
16.80593728732481
 20
-8.687722981446452
 30
0.0
 11
24.787420997656312
 21
-8.141819960082747
 31
0.0
  0
LINE
  5
F6
330
17
100
AcDbEntity
  8
FoilLayer
100
AcDbLine
 10
24.787420997656312
 20
-8.141819960082747
 30
0.0
 11
32.80628794353959
 21
-7.583386323363181
 31
0.0
  0
LINE
  5
F7
330
17
100
AcDbEntity
  8
FoilLayer
100
AcDbLine
 10
32.80628794353959
 20
-7.583386323363181
 30
0.0
 11
40.88270137162618
 21
-7.006051476367029
 31
0.0
  0
LINE
  5
F8
330
17
100
AcDbEntity
  8
FoilLayer
100
AcDbLine
 10
40.88270137162618
 20
-7.006051476367029
 30
0.0
 11
49.02249941275733
 21
-6.428672680387527
 31
0.0
  0
LINE
  5
F9
330
17
100
AcDbEntity
  8
FoilLayer
100
AcDbLine
 10
49.02249941275733
 20
-6.428672680387527
 30
0.0
 11
57.212397057259864
 21
-5.863852828651496
 31
0.0
  0
LINE
  5
FA
330
17
100
AcDbEntity
  8
FoilLayer
100
AcDbLine
 10
57.212397057259864
 20
-5.863852828651496
 30
0.0
 11
65.42634653259455
 21
-5.311654627331474
 31
0.0
  0
LINE
  5
FB
330
17
100
AcDbEntity
  8
FoilLayer
100
AcDbLine
 10
65.42634653259455
 20
-5.311654627331474
 30
0.0
 11
73.65912284688784
 21
-4.753181316032719
 31
0.0
  0
LINE
  5
FC
330
17
100
AcDbEntity
  8
FoilLayer
100
AcDbLine
 10
73.65912284688784
 20
-4.753181316032719
 30
0.0
 11
81.91115734784512
 21
-4.188403318695664
 31
0.0
  0
LINE
  5
FD
330
17
100
AcDbEntity
  8
FoilLayer
100
AcDbLine
 10
81.91115734784512
 20
-4.188403318695664
 30
0.0
 11
90.20803719364108
 21
-3.6235640917216796
 31
0.0
  0
LINE
  5
FE
330
17
100
AcDbEntity
  8
FoilLayer
100
AcDbLine
 10
90.20803719364108
 20
-3.6235640917216796
 30
0.0
 11
98.52399061277015
 21
-3.077537426883005
 31
0.0
  0
LINE
  5
FF
330
17
100
AcDbEntity
  8
FoilLayer
100
AcDbLine
 10
98.52399061277015
 20
-3.077537426883005
 30
0.0
 11
106.8322974363108
 21
-2.5566994633707925
 31
0.0
  0
LINE
  5
100
330
17
100
AcDbEntity
  8
FoilLayer
100
AcDbLine
 10
106.8322974363108
 20
-2.5566994633707925
 30
0.0
 11
115.12739785852699
 21
-2.0359032348102377
 31
0.0
  0
LINE
  5
101
330
17
100
AcDbEntity
  8
FoilLayer
100
AcDbLine
 10
115.12739785852699
 20
-2.0359032348102377
 30
0.0
 11
123.4176199960869
 21
-1.5024678364157484
 31
0.0
  0
LINE
  5
102
330
17
100
AcDbEntity
  8
FoilLayer
100
AcDbLine
 10
123.4176199960869
 20
-1.5024678364157484
 30
0.0
 11
131.7147322839648
 21
-0.9815466779869475
 31
0.0
  0
LINE
  5
103
330
17
100
AcDbEntity
  8
FoilLayer
100
AcDbLine
 10
131.7147322839648
 20
-0.9815466779869475
 30
0.0
 11
139.9985597431123
 21
-0.4857725302256462
 31
0.0
  0
LINE
  5
104
330
17
100
AcDbEntity
  8
FoilLayer
100
AcDbLine
 10
139.9985597431123
 20
-0.4857725302256462
 30
0.0
 11
148.25061438421687
 21
-0.002572409561160671
 31
0.0
  0
LINE
  5
105
330
17
100
AcDbEntity
  8
FoilLayer
100
AcDbLine
 10
148.25061438421687
 20
-0.002572409561160671
 30
0.0
 11
156.45186193460148
 21
0.47431707171943915
 31
0.0
  0
LINE
  5
106
330
17
100
AcDbEntity
  8
FoilLayer
100
AcDbLine
 10
156.45186193460148
 20
0.47431707171943915
 30
0.0
 11
164.62904007228127
 21
0.9575420747346657
 31
0.0
  0
LINE
  5
107
330
17
100
AcDbEntity
  8
FoilLayer
100
AcDbLine
 10
164.62904007228127
 20
0.9575420747346657
 30
0.0
 11
172.78177513575264
 21
1.4282524727409034
 31
0.0
  0
LINE
  5
108
330
17
100
AcDbEntity
  8
FoilLayer
100
AcDbLine
 10
172.78177513575264
 20
1.4282524727409034
 30
0.0
 11
180.8964309098464
 21
1.8738360366655769
 31
0.0
  0
LINE
  5
109
330
17
100
AcDbEntity
  8
FoilLayer
100
AcDbLine
 10
180.8964309098464
 20
1.8738360366655769
 30
0.0
 11
188.94103539992886
 21
2.300538887976834
 31
0.0
  0
LINE
  5
10A
330
17
100
AcDbEntity
  8
FoilLayer
100
AcDbLine
 10
188.94103539992886
 20
2.300538887976834
 30
0.0
 11
196.92256880861208
 21
2.727224350458409
 31
0.0
  0
LINE
  5
10B
330
17
100
AcDbEntity
  8
FoilLayer
100
AcDbLine
 10
196.92256880861208
 20
2.727224350458409
 30
0.0
 11
204.85567802456495
 21
3.1602799330269393
 31
0.0
  0
LINE
  5
10C
330
17
100
AcDbEntity
  8
FoilLayer
100
AcDbLine
 10
204.85567802456495
 20
3.1602799330269393
 30
0.0
 11
212.73892730523335
 21
3.568247734906062
 31
0.0
  0
LINE
  5
10D
330
17
100
AcDbEntity
  8
FoilLayer
100
AcDbLine
 10
212.73892730523335
 20
3.568247734906062
 30
0.0
 11
220.5586585759603
 21
3.944799003252488
 31
0.0
  0
LINE
  5
10E
330
17
100
AcDbEntity
  8
FoilLayer
100
AcDbLine
 10
220.5586585759603
 20
3.944799003252488
 30
0.0
 11
228.28945197389407
 21
4.302473634375147
 31
0.0
  0
LINE
  5
10F
330
17
100
AcDbEntity
  8
FoilLayer
100
AcDbLine
 10
228.28945197389407
 20
4.302473634375147
 30
0.0
 11
235.93318323021788
 21
4.660184856026266
 31
0.0
  0
LINE
  5
110
330
17
100
AcDbEntity
  8
FoilLayer
100
AcDbLine
 10
235.93318323021788
 20
4.660184856026266
 30
0.0
 11
243.50900759218126
 21
5.0053932893674915
 31
0.0
  0
LINE
  5
111
330
17
100
AcDbEntity
  8
FoilLayer
100
AcDbLine
 10
243.50900759218126
 20
5.0053932893674915
 30
0.0
 11
251.0102821219843
 21
5.319247600945524
 31
0.0
  0
LINE
  5
112
330
17
100
AcDbEntity
  8
FoilLayer
100
AcDbLine
 10
251.0102821219843
 20
5.319247600945524
 30
0.0
 11
258.4166961807724
 21
5.58913916398515
 31
0.0
  0
LINE
  5
113
330
17
100
AcDbEntity
  8
FoilLayer
100
AcDbLine
 10
258.4166961807724
 20
5.58913916398515
 30
0.0
 11
265.71528180008096
 21
5.827613690024411
 31
0.0
  0
LINE
  5
114
330
17
100
AcDbEntity
  8
FoilLayer
100
AcDbLine
 10
265.71528180008096
 20
5.827613690024411
 30
0.0
 11
272.8958995853813
 21
6.053573572153454
 31
0.0
  0
LINE
  5
115
330
17
100
AcDbEntity
  8
FoilLayer
100
AcDbLine
 10
272.8958995853813
 20
6.053573572153454
 30
0.0
 11
279.98362460217936
 21
6.248177549667269
 31
0.0
  0
LINE
  5
116
330
17
100
AcDbEntity
  8
FoilLayer
100
AcDbLine
 10
279.98362460217936
 20
6.248177549667269
 30
0.0
 11
286.9584749310549
 21
6.392560595831721
 31
0.0
  0
LINE
  5
117
330
17
100
AcDbEntity
  8
FoilLayer
100
AcDbLine
 10
286.9584749310549
 20
6.392560595831721
 30
0.0
 11
293.79412356406857
 21
6.486711228610178
 31
0.0
  0
LINE
  5
118
330
17
100
AcDbEntity
  8
FoilLayer
100
AcDbLine
 10
293.79412356406857
 20
6.486711228610178
 30
0.0
 11
300.4721300401773
 21
6.54947283069293
 31
0.0
  0
LINE
  5
119
330
17
100
AcDbEntity
  8
FoilLayer
100
AcDbLine
 10
300.4721300401773
 20
6.54947283069293
 30
0.0
 11
307.01345799089137
 21
6.593409086016415
 31
0.0
  0
LINE
  5
11A
330
17
100
AcDbEntity
  8
FoilLayer
100
AcDbLine
 10
307.01345799089137
 20
6.593409086016415
 30
0.0
 11
313.41775693859285
 21
6.599673354865272
 31
0.0
  0
LINE
  5
11B
330
17
100
AcDbEntity
  8
FoilLayer
100
AcDbLine
 10
313.41775693859285
 20
6.599673354865272
 30
0.0
 11
319.66445259348956
 21
6.555717513678799
 31
0.0
  0
LINE
  5
11C
330
17
100
AcDbEntity
  8
FoilLayer
100
AcDbLine
 10
319.66445259348956
 20
6.555717513678799
 30
0.0
 11
325.73467355631504
 21
6.474106680720442
 31
0.0
  0
LINE
  5
11D
330
17
100
AcDbEntity
  8
FoilLayer
100
AcDbLine
 10
325.73467355631504
 20
6.474106680720442
 30
0.0
 11
331.6167437919956
 21
6.367382750432405
 31
0.0
  0
LINE
  5
11E
330
17
100
AcDbEntity
  8
FoilLayer
100
AcDbLine
 10
331.6167437919956
 20
6.367382750432405
 30
0.0
 11
337.33004279966525
 21
6.2355281786593455
 31
0.0
  0
LINE
  5
11F
330
17
100
AcDbEntity
  8
FoilLayer
100
AcDbLine
 10
337.33004279966525
 20
6.2355281786593455
 30
0.0
 11
342.86840861373486
 21
6.072250870324838
 31
0.0
  0
LINE
  5
120
330
17
100
AcDbEntity
  8
FoilLayer
100
AcDbLine
 10
342.86840861373486
 20
6.072250870324838
 30
0.0
 11
348.2120182334424
 21
5.871303017369851
 31
0.0
  0
LINE
  5
121
330
17
100
AcDbEntity
  8
FoilLayer
100
AcDbLine
 10
348.2120182334424
 20
5.871303017369851
 30
0.0
 11
353.34654645530867
 21
5.63905436974769
 31
0.0
  0
LINE
  5
122
330
17
100
AcDbEntity
  8
FoilLayer
100
AcDbLine
 10
353.34654645530867
 20
5.63905436974769
 30
0.0
 11
358.27583878955994
 21
5.400427020763265
 31
0.0
  0
LINE
  5
123
330
17
100
AcDbEntity
  8
FoilLayer
100
AcDbLine
 10
358.27583878955994
 20
5.400427020763265
 30
0.0
 11
363.0109550896279
 21
5.1366525565437415
 31
0.0
  0
LINE
  5
124
330
17
100
AcDbEntity
  8
FoilLayer
100
AcDbLine
 10
363.0109550896279
 20
5.1366525565437415
 30
0.0
 11
367.54082604347633
 21
4.847612176868342
 31
0.0
  0
LINE
  5
125
330
17
100
AcDbEntity
  8
FoilLayer
100
AcDbLine
 10
367.54082604347633
 20
4.847612176868342
 30
0.0
 11
371.8356820997914
 21
4.521094912409332
 31
0.0
  0
LINE
  5
126
330
17
100
AcDbEntity
  8
FoilLayer
100
AcDbLine
 10
371.8356820997914
 20
4.521094912409332
 30
0.0
 11
375.89800461239605
 21
4.188317701716123
 31
0.0
  0
LINE
  5
127
330
17
100
AcDbEntity
  8
FoilLayer
100
AcDbLine
 10
375.89800461239605
 20
4.188317701716123
 30
0.0
 11
379.7219536917849
 21
3.8555211289678755
 31
0.0
  0
LINE
  5
128
330
17
100
AcDbEntity
  8
FoilLayer
100
AcDbLine
 10
379.7219536917849
 20
3.8555211289678755
 30
0.0
 11
383.3276447085481
 21
3.5225757765431442
 31
0.0
  0
LINE
  5
129
330
17
100
AcDbEntity
  8
FoilLayer
100
AcDbLine
 10
383.3276447085481
 20
3.5225757765431442
 30
0.0
 11
386.69543657344497
 21
3.183262521576938
 31
0.0
  0
LINE
  5
12A
330
17
100
AcDbEntity
  8
FoilLayer
100
AcDbLine
 10
386.69543657344497
 20
3.183262521576938
 30
0.0
 11
389.8236604436384
 21
2.8377644973732967
 31
0.0
  0
LINE
  5
12B
330
17
100
AcDbEntity
  8
FoilLayer
100
AcDbLine
 10
389.8236604436384
 20
2.8377644973732967
 30
0.0
 11
392.70799751526346
 21
2.4984123226144788
 31
0.0
  0
LINE
  5
12C
330
17
100
AcDbEntity
  8
FoilLayer
100
AcDbLine
 10
392.70799751526346
 20
2.4984123226144788
 30
0.0
 11
395.33327876013954
 21
2.1655359561374183
 31
0.0
  0
LINE
  5
12D
330
17
100
AcDbEntity
  8
FoilLayer
100
AcDbLine
 10
395.33327876013954
 20
2.1655359561374183
 30
0.0
 11
397.71340153346756
 21
1.8515317845343717
 31
0.0
  0
LINE
  5
12E
330
17
100
AcDbEntity
  8
FoilLayer
100
AcDbLine
 10
397.71340153346756
 20
1.8515317845343717
 30
0.0
 11
399.8361234918213
 21
1.562637295533623
 31
0.0
  0
LINE
  5
12F
330
17
100
AcDbEntity
  8
FoilLayer
100
AcDbLine
 10
399.8361234918213
 20
1.562637295533623
 30
0.0
 11
401.71992804878147
 21
1.2989028749410692
 31
0.0
  0
LINE
  5
130
330
17
100
AcDbEntity
  8
FoilLayer
100
AcDbLine
 10
401.71992804878147
 20
1.2989028749410692
 30
0.0
 11
403.34604806925023
 21
1.0665991944348858
 31
0.0
  0
LINE
  5
131
330
17
100
AcDbEntity
  8
FoilLayer
100
AcDbLine
 10
403.34604806925023
 20
1.0665991944348858
 30
0.0
 11
404.73477125257017
 21
0.8655129353187048
 31
0.0
  0
LINE
  5
132
330
17
100
AcDbEntity
  8
FoilLayer
100
AcDbLine
 10
404.73477125257017
 20
0.8655129353187048
 30
0.0
 11
405.87261360839267
 21
0.6957747941929353
 31
0.0
  0
LINE
  5
133
330
17
100
AcDbEntity
  8
FoilLayer
100
AcDbLine
 10
405.87261360839267
 20
0.6957747941929353
 30
0.0
 11
406.77127529199964
 21
0.5575171755037035
 31
0.0
  0
LINE
  5
134
330
17
100
AcDbEntity
  8
FoilLayer
100
AcDbLine
 10
406.77127529199964
 20
0.5575171755037035
 30
0.0
 11
407.405248608417
 21
0.4580276486815774
 31
0.0
  0
LINE
  5
135
330
17
100
AcDbEntity
  8
FoilLayer
100
AcDbLine
 10
407.405248608417
 20
0.4580276486815774
 30
0.0
 11
407.8174443053652
 21
0.39881514179183375
 31
0.0
  0
LINE
  5
136
330
17
100
AcDbEntity
  8
FoilLayer
100
AcDbLine
 10
407.8174443053652
 20
0.39881514179183375
 30
0.0
 11
407.9554984469924
 21
0.3737143887687024
 31
0.0
  0
LINE
  5
137
330
17
100
AcDbEntity
  8
FoilLayer
100
AcDbLine
 10
407.9554984469924
 20
0.3737143887687024
 30
0.0
 11
407.7263423092069
 21
-0.393360319203681
 31
0.0
  0
LINE
  5
138
330
17
100
AcDbEntity
  8
StringerLayer
100
AcDbLine
 10
216.2803773516876
 20
47.34854831362196
 30
0.0
 11
220.16999431661037
 21
46.415338869721396
 31
0.0
  0
LINE
  5
139
330
17
100
AcDbEntity
  8
StringerLayer
100
AcDbLine
 10
220.16999431661037
 20
46.415338869721396
 30
0.0
 11
221.10320376051095
 21
50.30495583464413
 31
0.0
  0
LINE
  5
13A
330
17
100
AcDbEntity
  8
StringerLayer
100
AcDbLine
 10
221.10320376051095
 20
50.30495583464413
 30
0.0
 11
217.21358679558818
 21
51.2381652785447
 31
0.0
  0
LINE
  5
13B
330
17
100
AcDbEntity
  8
StringerLayer
100
AcDbLine
 10
217.21358679558818
 20
51.2381652785447
 30
0.0
 11
216.2803773516876
 21
47.34854831362196
 31
0.0
  0
LINE
  5
13C
330
17
100
AcDbEntity
  8
StringerLayer
100
AcDbLine
 10
-63.94898658465513
 20
65.93984155297116
 30
0.0
 11
-59.98326988841191
 21
66.46242272861542
 31
0.0
  0
LINE
  5
13D
330
17
100
AcDbEntity
  8
StringerLayer
100
AcDbLine
 10
-59.98326988841191
 20
66.46242272861542
 30
0.0
 11
-60.50585106405619
 21
70.42813942485864
 31
0.0
  0
LINE
  5
13E
330
17
100
AcDbEntity
  8
StringerLayer
100
AcDbLine
 10
-60.50585106405619
 20
70.42813942485864
 30
0.0
 11
-64.47156776029941
 21
69.90555824921438
 31
0.0
  0
LINE
  5
13F
330
17
100
AcDbEntity
  8
StringerLayer
100
AcDbLine
 10
-64.47156776029941
 20
69.90555824921438
 30
0.0
 11
-63.94898658465513
 21
65.93984155297116
 31
0.0
  0
LINE
  5
140
330
17
100
AcDbEntity
  8
StringerLayer
100
AcDbLine
 10
-156.59879606549896
 20
43.35122663414598
 30
0.0
 11
-152.8629240739179
 21
44.78065325434027
 31
0.0
  0
LINE
  5
141
330
17
100
AcDbEntity
  8
StringerLayer
100
AcDbLine
 10
-152.8629240739179
 20
44.78065325434027
 30
0.0
 11
-154.2923506941122
 21
48.51652524592134
 31
0.0
  0
LINE
  5
142
330
17
100
AcDbEntity
  8
StringerLayer
100
AcDbLine
 10
-154.2923506941122
 20
48.51652524592134
 30
0.0
 11
-158.02822268569327
 21
47.08709862572705
 31
0.0
  0
LINE
  5
143
330
17
100
AcDbEntity
  8
StringerLayer
100
AcDbLine
 10
-158.02822268569327
 20
47.08709862572705
 30
0.0
 11
-156.59879606549896
 21
43.35122663414598
 31
0.0
  0
LINE
  5
144
330
17
100
AcDbEntity
  8
StringerLayer
100
AcDbLine
 10
-208.46029726567758
 20
8.827490164491914
 30
0.0
 11
-207.2256688592302
 21
10.400923575219325
 31
0.0
  0
LINE
  5
145
330
17
100
AcDbEntity
  8
StringerLayer
100
AcDbLine
 10
-207.2256688592302
 20
10.400923575219325
 30
0.0
 11
-211.15925238604873
 21
13.487494591337683
 31
0.0
  0
LINE
  5
146
330
17
100
AcDbEntity
  8
StringerLayer
100
AcDbLine
 10
-211.15925238604873
 20
13.487494591337683
 30
0.0
 11
-212.3938807924961
 21
11.914061180610272
 31
0.0
  0
LINE
  5
147
330
17
100
AcDbEntity
  8
StringerLayer
100
AcDbLine
 10
-212.3938807924961
 20
11.914061180610272
 30
0.0
 11
-208.46029726567758
 21
8.827490164491914
 31
0.0
  0
LINE
  5
148
330
17
100
AcDbEntity
  8
StringerLayer
100
AcDbLine
 10
-211.09435638414737
 20
-2.132250864156252
 30
0.0
 11
-212.59057334390212
 21
-0.8050979681633703
 31
0.0
  0
LINE
  5
149
330
17
100
AcDbEntity
  8
StringerLayer
100
AcDbLine
 10
-212.59057334390212
 20
-0.8050979681633703
 30
0.0
 11
-215.90845558388432
 21
-4.545640367550212
 31
0.0
  0
LINE
  5
14A
330
17
100
AcDbEntity
  8
StringerLayer
100
AcDbLine
 10
-215.90845558388432
 20
-4.545640367550212
 30
0.0
 11
-214.41223862412957
 21
-5.872793263543094
 31
0.0
  0
LINE
  5
14B
330
17
100
AcDbEntity
  8
StringerLayer
100
AcDbLine
 10
-214.41223862412957
 20
-5.872793263543094
 30
0.0
 11
-211.09435638414737
 21
-2.132250864156252
 31
0.0
  0
LINE
  5
14C
330
17
100
AcDbEntity
  8
StringerLayer
100
AcDbLine
 10
-92.39191835622844
 20
-10.089665175535224
 30
0.0
 11
-96.38801602974505
 21
-10.266309970859776
 31
0.0
  0
LINE
  5
14D
330
17
100
AcDbEntity
  8
StringerLayer
100
AcDbLine
 10
-96.38801602974505
 20
-10.266309970859776
 30
0.0
 11
-96.2113712344205
 21
-14.262407644376372
 31
0.0
  0
LINE
  5
14E
330
17
100
AcDbEntity
  8
StringerLayer
100
AcDbLine
 10
-96.2113712344205
 20
-14.262407644376372
 30
0.0
 11
-92.2152735609039
 21
-14.08576284905182
 31
0.0
  0
LINE
  5
14F
330
17
100
AcDbEntity
  8
StringerLayer
100
AcDbLine
 10
-92.2152735609039
 20
-14.08576284905182
 30
0.0
 11
-92.39191835622844
 21
-10.089665175535224
 31
0.0
  0
LINE
  5
150
330
17
100
AcDbEntity
  8
SubLayer
100
AcDbLine
 10
-219.62499999999983
 20
0.0
 30
0.0
 11
-215.62499999999983
 21
0.0
 31
0.0
  0
LINE
  5
151
330
17
100
AcDbEntity
  8
SubLayer
100
AcDbLine
 10
60.75
 20
0.0
 30
0.0
 11
71.02499999999998
 21
0.0
 31
0.0
  0
LINE
  5
152
330
17
100
AcDbEntity
  8
SubLayer
100
AcDbLine
 10
-47.03383079658616
 20
31.692107172984485
 30
0.0
 11
-39.03870418043339
 21
31.97130314660449
 31
0.0
  0
LINE
  5
153
330
17
100
AcDbEntity
  8
SubLayer
100
AcDbLine
 10
39.03870418043339
 20
34.69782632648738
 30
0.0
 11
47.03383079658616
 21
34.977022300107386
 31
0.0
  0
LINE
  5
154
330
17
100
AcDbEntity
  8
SubLayer
100
AcDbLine
 10
-1.3187647316457545
 20
71.09904561252999
 30
0.0
 11
-1.0395687580257467
 21
63.103918996377224
 31
0.0
  0
LINE
  5
155
330
17
100
AcDbEntity
  8
SubLayer
100
AcDbLine
 10
1.3187647316457545
 20
-4.42991613943812
 30
0.0
 11
1.0395687580257467
 21
3.565210476714647
 31
0.0
  0
LINE
  5
156
330
17
100
AcDbEntity
  8
SubLayer
100
AcDbLine
 10
-44.96525014914297
 20
29.763124512351293
 30
0.0
 11
-40.96768684106659
 21
29.9027224991613
 31
0.0
  0
LINE
  5
157
330
17
100
AcDbEntity
  8
SubLayer
100
AcDbLine
 10
-40.96768684106659
 20
29.9027224991613
 30
0.0
 11
-41.10728482787659
 21
33.90028580723768
 31
0.0
  0
LINE
  5
158
330
17
100
AcDbEntity
  8
SubLayer
100
AcDbLine
 10
-41.10728482787659
 20
33.90028580723768
 30
0.0
 11
-45.10484813595297
 21
33.76068782042768
 31
0.0
  0
LINE
  5
159
330
17
100
AcDbEntity
  8
SubLayer
100
AcDbLine
 10
-45.10484813595297
 20
33.76068782042768
 30
0.0
 11
-44.96525014914297
 21
29.763124512351293
 31
0.0
  0
LINE
  5
15A
330
17
100
AcDbEntity
  8
SubLayer
100
AcDbLine
 10
41.10728482787659
 20
32.76884366585419
 30
0.0
 11
45.10484813595297
 21
32.908441652664195
 31
0.0
  0
LINE
  5
15B
330
17
100
AcDbEntity
  8
SubLayer
100
AcDbLine
 10
45.10484813595297
 20
32.908441652664195
 30
0.0
 11
44.96525014914297
 21
36.906004960740574
 31
0.0
  0
LINE
  5
15C
330
17
100
AcDbEntity
  8
SubLayer
100
AcDbLine
 10
44.96525014914297
 20
36.906004960740574
 30
0.0
 11
40.96768684106659
 21
36.76640697393057
 31
0.0
  0
LINE
  5
15D
330
17
100
AcDbEntity
  8
SubLayer
100
AcDbLine
 10
40.96768684106659
 20
36.76640697393057
 30
0.0
 11
41.10728482787659
 21
32.76884366585419
 31
0.0
  0
LINE
  5
15E
330
17
100
AcDbEntity
  8
SubLayer
100
AcDbLine
 10
-3.1081494054689403
 20
65.03290165701041
 30
0.0
 11
0.889413902607443
 21
65.17249964382042
 31
0.0
  0
LINE
  5
15F
330
17
100
AcDbEntity
  8
SubLayer
100
AcDbLine
 10
0.889413902607443
 20
65.17249964382042
 30
0.0
 11
0.7498159157974391
 21
69.17006295189681
 31
0.0
  0
LINE
  5
160
330
17
100
AcDbEntity
  8
SubLayer
100
AcDbLine
 10
0.7498159157974391
 20
69.17006295189681
 30
0.0
 11
-3.247747392278944
 21
69.03046496508681
 31
0.0
  0
LINE
  5
161
330
17
100
AcDbEntity
  8
SubLayer
100
AcDbLine
 10
-3.247747392278944
 20
69.03046496508681
 30
0.0
 11
-3.1081494054689403
 21
65.03290165701041
 31
0.0
  0
LINE
  5
162
330
17
100
AcDbEntity
  8
SubLayer
100
AcDbLine
 10
-0.7498159157974391
 20
-2.50093347880493
 30
0.0
 11
3.247747392278944
 21
-2.361335491994926
 31
0.0
  0
LINE
  5
163
330
17
100
AcDbEntity
  8
SubLayer
100
AcDbLine
 10
3.247747392278944
 20
-2.361335491994926
 30
0.0
 11
3.1081494054689403
 21
1.636227816081457
 31
0.0
  0
LINE
  5
164
330
17
100
AcDbEntity
  8
SubLayer
100
AcDbLine
 10
3.1081494054689403
 20
1.636227816081457
 30
0.0
 11
-0.889413902607443
 21
1.496629829271453
 31
0.0
  0
LINE
  5
165
330
17
100
AcDbEntity
  8
SubLayer
100
AcDbLine
 10
-0.889413902607443
 20
1.496629829271453
 30
0.0
 11
-0.7498159157974391
 21
-2.50093347880493
 31
0.0
  0
LINE
  5
166
330
17
100
AcDbEntity
  8
SubLayer
100
AcDbLine
 10
313.0962143721731
 20
26.80226803575914
 30
0.0
 11
317.09377768024945
 21
26.941866022569144
 31
0.0
  0
LINE
  5
167
330
17
100
AcDbEntity
  8
SubLayer
100
AcDbLine
 10
-216.79577797484941
 20
8.298031915485856
 30
0.0
 11
-212.79821466677302
 21
8.437629902295859
 31
0.0
  0
LINE
  5
168
330
17
100
AcDbEntity
  8
SubLayer
100
AcDbLine
 10
-111.81677033246399
 20
11.963979642838012
 30
0.0
 11
-105.82042537034943
 21
12.173376623053016
 31
0.0
  0
LINE
  5
169
330
17
100
AcDbEntity
  8
SubLayer
100
AcDbLine
 10
206.1184250757495
 20
23.066521315001985
 30
0.0
 11
212.11477003786408
 21
23.27591829521699
 31
0.0
  0
LINE
  5
16A
330
17
100
AcDbEntity
  8
SubLayer
100
AcDbLine
 10
47.15082737164274
 20
17.51525047892
 30
0.0
 11
53.14717233375732
 21
17.724647459135003
 31
0.0
  0
LINE
  5
16B
330
17
100
AcDbEntity
  8
SubLayer
100
AcDbLine
 10
-106.75001720396351
 20
10.139695472312324
 30
0.0
 11
-106.88961519077351
 21
14.137258780388708
 31
0.0
  0
LINE
  5
16C
330
17
100
AcDbEntity
  8
SubLayer
100
AcDbLine
 10
-106.88961519077351
 20
14.137258780388708
 30
0.0
 11
-110.8871784988499
 21
13.997660793578705
 31
0.0
  0
LINE
  5
16D
330
17
100
AcDbEntity
  8
SubLayer
100
AcDbLine
 10
-110.8871784988499
 20
13.997660793578705
 30
0.0
 11
-110.7475805120399
 21
10.000097485502321
 31
0.0
  0
LINE
  5
16E
330
17
100
AcDbEntity
  8
SubLayer
100
AcDbLine
 10
-110.7475805120399
 20
10.000097485502321
 30
0.0
 11
-106.75001720396351
 21
10.139695472312324
 31
0.0
  0
LINE
  5
16F
330
17
100
AcDbEntity
  8
SubLayer
100
AcDbLine
 10
211.18517820424998
 20
21.2422371444763
 30
0.0
 11
211.04558021743998
 21
25.239800452552682
 31
0.0
  0
LINE
  5
170
330
17
100
AcDbEntity
  8
SubLayer
100
AcDbLine
 10
211.04558021743998
 20
25.239800452552682
 30
0.0
 11
207.0480169093636
 21
25.100202465742676
 31
0.0
  0
LINE
  5
171
330
17
100
AcDbEntity
  8
SubLayer
100
AcDbLine
 10
207.0480169093636
 20
25.100202465742676
 30
0.0
 11
207.1876148961736
 21
21.102639157666292
 31
0.0
  0
LINE
  5
172
330
17
100
AcDbEntity
  8
SubLayer
100
AcDbLine
 10
207.1876148961736
 20
21.102639157666292
 30
0.0
 11
211.18517820424998
 21
21.2422371444763
 31
0.0
  0
LINE
  5
173
330
17
100
AcDbEntity
  8
SubLayer
100
AcDbLine
 10
52.21758050014322
 20
15.69096630839431
 30
0.0
 11
52.07798251333322
 21
19.688529616470696
 31
0.0
  0
LINE
  5
174
330
17
100
AcDbEntity
  8
SubLayer
100
AcDbLine
 10
52.07798251333322
 20
19.688529616470696
 30
0.0
 11
48.08041920525684
 21
19.54893162966069
 31
0.0
  0
LINE
  5
175
330
17
100
AcDbEntity
  8
SubLayer
100
AcDbLine
 10
48.08041920525684
 20
19.54893162966069
 30
0.0
 11
48.22001719206684
 21
15.551368321584308
 31
0.0
  0
LINE
  5
176
330
17
100
AcDbEntity
  8
SubLayer
100
AcDbLine
 10
48.22001719206684
 20
15.551368321584308
 30
0.0
 11
52.21758050014322
 21
15.69096630839431
 31
0.0
  0
LINE
  5
177
330
17
100
AcDbEntity
  8
SubLayer
100
AcDbLine
 10
388.59473240923535
 20
5.3405310764764655
 30
0.0
 11
388.8856774606097
 21
6.297270841031467
 31
0.0
  0
LINE
  5
178
330
17
100
AcDbEntity
  8
SubLayer
100
AcDbLine
 10
388.029897771425
 20
2.533279878017711
 30
0.0
 11
388.18127450347674
 21
3.521756020872624
 31
0.0
  0
LINE
  5
179
330
17
100
AcDbEntity
  8
SubLayer
100
AcDbLine
 10
369.41574555320994
 20
11.00614330574398
 30
0.0
 11
369.70287284128517
 21
11.964035742525148
 31
0.0
  0
LINE
  5
17A
330
17
100
AcDbEntity
  8
SubLayer
100
AcDbLine
 10
368.1041305930215
 20
4.303838512132213
 30
0.0
 11
368.22413640522325
 21
5.296611701253379
 31
0.0
  0
LINE
  5
17B
330
17
100
AcDbEntity
  8
SubLayer
100
AcDbLine
 10
330.93023159909046
 20
21.903253958201745
 30
0.0
 11
331.21002265608695
 21
22.863314875240242
 31
0.0
  0
LINE
  5
17C
330
17
100
AcDbEntity
  8
SubLayer
100
AcDbLine
 10
328.0938856700955
 20
5.932189999598368
 30
0.0
 11
328.1742680274546
 21
6.928954102395712
 31
0.0
  0
LINE
  5
17D
330
17
100
AcDbEntity
  8
SubLayer
100
AcDbLine
 10
-81.30910623118184
 20
69.42605715265503
 30
0.0
 11
-81.16950824437184
 21
65.42849384457864
 31
0.0
  0
LINE
  5
17E
330
17
100
AcDbEntity
  8
SubLayer
100
AcDbLine
 10
-78.48659570057895
 20
-11.400069295386094
 30
0.0
 11
-78.34699771376894
 21
-15.397632603462478
 31
0.0
  0
LINE
  5
17F
330
17
100
AcDbEntity
  8
SubLayer
100
AcDbLine
 10
-79.08599730340204
 20
5.764546821241224
 30
0.0
 11
-78.87660032318702
 21
-0.23179814087335027
 31
0.0
  0
LINE
  5
180
330
17
100
AcDbEntity
  8
SubLayer
100
AcDbLine
 10
-80.77950362176378
 20
54.2602226900659
 30
0.0
 11
-80.57010664154876
 21
48.263877727951325
 31
0.0
  0
LINE
  5
181
330
17
100
AcDbEntity
  8
SubLayer
100
AcDbLine
 10
-79.9327504625829
 20
30.012384755653564
 30
0.0
 11
-79.72335348236788
 21
24.016039793538987
 31
0.0
  0
LINE
  5
182
330
17
100
AcDbEntity
  8
SubLayer
100
AcDbLine
 10
-80.91028147392772
 20
0.6977936927407433
 30
0.0
 11
-76.91271816585133
 21
0.8373916795507472
 31
0.0
  0
LINE
  5
183
330
17
100
AcDbEntity
  8
SubLayer
100
AcDbLine
 10
-76.91271816585133
 20
0.8373916795507472
 30
0.0
 11
-77.05231615266133
 21
4.83495498762713
 31
0.0
  0
LINE
  5
184
330
17
100
AcDbEntity
  8
SubLayer
100
AcDbLine
 10
-77.05231615266133
 20
4.83495498762713
 30
0.0
 11
-81.04987946073773
 21
4.695357000817126
 31
0.0
  0
LINE
  5
185
330
17
100
AcDbEntity
  8
SubLayer
100
AcDbLine
 10
-81.04987946073773
 20
4.695357000817126
 30
0.0
 11
-80.91028147392772
 21
0.6977936927407433
 31
0.0
  0
LINE
  5
186
330
17
100
AcDbEntity
  8
SubLayer
100
AcDbLine
 10
-82.60378779228947
 20
49.19346956156542
 30
0.0
 11
-78.60622448421307
 21
49.333067548375425
 31
0.0
  0
LINE
  5
187
330
17
100
AcDbEntity
  8
SubLayer
100
AcDbLine
 10
-78.60622448421307
 20
49.333067548375425
 30
0.0
 11
-78.74582247102308
 21
53.330630856451805
 31
0.0
  0
LINE
  5
188
330
17
100
AcDbEntity
  8
SubLayer
100
AcDbLine
 10
-78.74582247102308
 20
53.330630856451805
 30
0.0
 11
-82.74338577909947
 21
53.1910328696418
 31
0.0
  0
LINE
  5
189
330
17
100
AcDbEntity
  8
SubLayer
100
AcDbLine
 10
-82.74338577909947
 20
53.1910328696418
 30
0.0
 11
-82.60378779228947
 21
49.19346956156542
 31
0.0
  0
LINE
  5
18A
330
17
100
AcDbEntity
  8
SubLayer
100
AcDbLine
 10
-81.75703463310859
 20
24.94563162715308
 30
0.0
 11
-77.7594713250322
 21
25.085229613963087
 31
0.0
  0
LINE
  5
18B
330
17
100
AcDbEntity
  8
SubLayer
100
AcDbLine
 10
-77.7594713250322
 20
25.085229613963087
 30
0.0
 11
-77.8990693118422
 21
29.08279292203947
 31
0.0
  0
LINE
  5
18C
330
17
100
AcDbEntity
  8
SubLayer
100
AcDbLine
 10
-77.8990693118422
 20
29.08279292203947
 30
0.0
 11
-81.89663261991859
 21
28.943194935229464
 31
0.0
  0
LINE
  5
18D
330
17
100
AcDbEntity
  8
SubLayer
100
AcDbLine
 10
-81.89663261991859
 20
28.943194935229464
 30
0.0
 11
-81.75703463310859
 21
24.94563162715308
 31
0.0
  0
LINE
  5
18E
330
17
100
AcDbEntity
  8
SubLayer
100
AcDbLine
 10
-150.73868064608894
 20
51.869351073904305
 30
0.0
 11
-150.5990826592789
 21
47.871787765827925
 31
0.0
  0
LINE
  5
18F
330
17
100
AcDbEntity
  8
SubLayer
100
AcDbLine
 10
-148.45515769986292
 20
-13.522190391574133
 30
0.0
 11
-148.3155597130529
 21
-17.519753699650515
 31
0.0
  0
LINE
  5
190
330
17
100
AcDbEntity
  8
SubLayer
100
AcDbLine
 10
-148.94676178581062
 20
0.5555087285406501
 30
0.0
 11
-148.73736480559563
 21
-5.440836233573924
 31
0.0
  0
LINE
  5
191
330
17
100
AcDbEntity
  8
SubLayer
100
AcDbLine
 10
-150.31687555354623
 20
39.79043360782772
 30
0.0
 11
-150.10747857333124
 21
33.794088645713146
 31
0.0
  0
LINE
  5
192
330
17
100
AcDbEntity
  8
SubLayer
100
AcDbLine
 10
-149.6318186696784
 20
20.172971168184183
 30
0.0
 11
-149.42242168946342
 21
14.176626206069608
 31
0.0
  0
LINE
  5
193
330
17
100
AcDbEntity
  8
SubLayer
100
AcDbLine
 10
-150.7710459563363
 20
-4.51124439995983
 30
0.0
 11
-146.77348264825994
 21
-4.3716464131498265
 31
0.0
  0
LINE
  5
194
330
17
100
AcDbEntity
  8
SubLayer
100
AcDbLine
 10
-146.77348264825994
 20
-4.3716464131498265
 30
0.0
 11
-146.91308063506995
 21
-0.37408310507344344
 31
0.0
  0
LINE
  5
195
330
17
100
AcDbEntity
  8
SubLayer
100
AcDbLine
 10
-146.91308063506995
 20
-0.37408310507344344
 30
0.0
 11
-150.9106439431463
 21
-0.5136810918834473
 31
0.0
  0
LINE
  5
196
330
17
100
AcDbEntity
  8
SubLayer
100
AcDbLine
 10
-150.9106439431463
 20
-0.5136810918834473
 30
0.0
 11
-150.7710459563363
 21
-4.51124439995983
 31
0.0
  0
LINE
  5
197
330
17
100
AcDbEntity
  8
SubLayer
100
AcDbLine
 10
-152.1411597240719
 20
34.72368047932724
 30
0.0
 11
-148.14359641599555
 21
34.863278466137245
 31
0.0
  0
LINE
  5
198
330
17
100
AcDbEntity
  8
SubLayer
100
AcDbLine
 10
-148.14359641599555
 20
34.863278466137245
 30
0.0
 11
-148.28319440280555
 21
38.860841774213625
 31
0.0
  0
LINE
  5
199
330
17
100
AcDbEntity
  8
SubLayer
100
AcDbLine
 10
-148.28319440280555
 20
38.860841774213625
 30
0.0
 11
-152.28075771088191
 21
38.72124378740362
 31
0.0
  0
LINE
  5
19A
330
17
100
AcDbEntity
  8
SubLayer
100
AcDbLine
 10
-152.28075771088191
 20
38.72124378740362
 30
0.0
 11
-152.1411597240719
 21
34.72368047932724
 31
0.0
  0
LINE
  5
19B
330
17
100
AcDbEntity
  8
SubLayer
100
AcDbLine
 10
-151.4561028402041
 20
15.106218039683702
 30
0.0
 11
-147.45853953212773
 21
15.245816026493705
 31
0.0
  0
LINE
  5
19C
330
17
100
AcDbEntity
  8
SubLayer
100
AcDbLine
 10
-147.45853953212773
 20
15.245816026493705
 30
0.0
 11
-147.59813751893773
 21
19.24337933457009
 31
0.0
  0
LINE
  5
19D
330
17
100
AcDbEntity
  8
SubLayer
100
AcDbLine
 10
-147.59813751893773
 20
19.24337933457009
 30
0.0
 11
-151.5957008270141
 21
19.103781347760084
 31
0.0
  0
LINE
  5
19E
330
17
100
AcDbEntity
  8
SubLayer
100
AcDbLine
 10
-151.5957008270141
 20
19.103781347760084
 30
0.0
 11
-151.4561028402041
 21
15.106218039683702
 31
0.0
  0
LINE
  5
19F
330
17
100
AcDbEntity
  8
SubLayer
100
AcDbLine
 10
199.28208620010142
 20
57.38393913138528
 30
0.0
 11
199.42168418691145
 21
53.3863758233089
 31
0.0
  0
LINE
  5
1A0
330
17
100
AcDbEntity
  8
SubLayer
100
AcDbLine
 10
201.1128209445506
 20
4.958555295504391
 30
0.0
 11
201.25241893136064
 21
0.960991987428008
 31
0.0
  0
LINE
  5
1A1
330
17
100
AcDbEntity
  8
SubLayer
100
AcDbLine
 10
200.7117744989583
 20
16.443022889699666
 30
0.0
 11
200.9211714791733
 21
10.446677927585093
 31
0.0
  0
LINE
  5
1A2
330
17
100
AcDbEntity
  8
SubLayer
100
AcDbLine
 10
199.6133336522888
 20
47.89825319122821
 30
0.0
 11
199.82273063250378
 21
41.90190822911363
 31
0.0
  0
LINE
  5
1A3
330
17
100
AcDbEntity
  8
SubLayer
100
AcDbLine
 10
200.16255407562355
 20
32.170638040463935
 30
0.0
 11
200.37195105583854
 21
26.174293078349358
 31
0.0
  0
LINE
  5
1A4
330
17
100
AcDbEntity
  8
SubLayer
100
AcDbLine
 10
198.88749032843262
 20
11.376269761199186
 30
0.0
 11
202.88505363650899
 21
11.515867748009189
 31
0.0
  0
LINE
  5
1A5
330
17
100
AcDbEntity
  8
SubLayer
100
AcDbLine
 10
202.88505363650899
 20
11.515867748009189
 30
0.0
 11
202.74545564969898
 21
15.513431056085572
 31
0.0
  0
LINE
  5
1A6
330
17
100
AcDbEntity
  8
SubLayer
100
AcDbLine
 10
202.74545564969898
 20
15.513431056085572
 30
0.0
 11
198.74789234162262
 21
15.37383306927557
 31
0.0
  0
LINE
  5
1A7
330
17
100
AcDbEntity
  8
SubLayer
100
AcDbLine
 10
198.74789234162262
 20
15.37383306927557
 30
0.0
 11
198.88749032843262
 21
11.376269761199186
 31
0.0
  0
LINE
  5
1A8
330
17
100
AcDbEntity
  8
SubLayer
100
AcDbLine
 10
197.7890494817631
 20
42.83150006272773
 30
0.0
 11
201.78661278983947
 21
42.97109804953773
 31
0.0
  0
LINE
  5
1A9
330
17
100
AcDbEntity
  8
SubLayer
100
AcDbLine
 10
201.78661278983947
 20
42.97109804953773
 30
0.0
 11
201.64701480302946
 21
46.96866135761411
 31
0.0
  0
LINE
  5
1AA
330
17
100
AcDbEntity
  8
SubLayer
100
AcDbLine
 10
201.64701480302946
 20
46.96866135761411
 30
0.0
 11
197.6494514949531
 21
46.82906337080411
 31
0.0
  0
LINE
  5
1AB
330
17
100
AcDbEntity
  8
SubLayer
100
AcDbLine
 10
197.6494514949531
 20
46.82906337080411
 30
0.0
 11
197.7890494817631
 21
42.83150006272773
 31
0.0
  0
LINE
  5
1AC
330
17
100
AcDbEntity
  8
SubLayer
100
AcDbLine
 10
198.33826990509786
 20
27.10388491196345
 30
0.0
 11
202.33583321317423
 21
27.243482898773458
 31
0.0
  0
LINE
  5
1AD
330
17
100
AcDbEntity
  8
SubLayer
100
AcDbLine
 10
202.33583321317423
 20
27.243482898773458
 30
0.0
 11
202.19623522636422
 21
31.24104620684984
 31
0.0
  0
LINE
  5
1AE
330
17
100
AcDbEntity
  8
SubLayer
100
AcDbLine
 10
202.19623522636422
 20
31.24104620684984
 30
0.0
 11
198.19867191828786
 21
31.101448220039835
 31
0.0
  0
LINE
  5
1AF
330
17
100
AcDbEntity
  8
SubLayer
100
AcDbLine
 10
198.19867191828786
 20
31.101448220039835
 30
0.0
 11
198.33826990509786
 21
27.10388491196345
 31
0.0
  0
ENDSEC
  0
SECTION
  2
OBJECTS
  0
DICTIONARY
  5
A
330
0
100
AcDbDictionary
280
0
281
1
  3
ACAD_COLOR
350
B
  3
ACAD_GROUP
350
C
  3
ACAD_LAYOUT
350
D
  3
ACAD_MATERIAL
350
E
  3
ACAD_MLEADERSTYLE
350
F
  3
ACAD_MLINESTYLE
350
10
  3
ACAD_PLOTSETTINGS
350
11
  3
ACAD_PLOTSTYLENAME
350
12
  3
ACAD_SCALELIST
350
14
  3
ACAD_TABLESTYLE
350
15
  3
ACAD_VISUALSTYLE
350
16
  3
EZDXF_META
350
2D
  0
DICTIONARY
  5
B
330
A
100
AcDbDictionary
280
0
281
1
  0
DICTIONARY
  5
C
330
A
100
AcDbDictionary
280
0
281
1
  0
DICTIONARY
  5
D
330
A
100
AcDbDictionary
280
0
281
1
  3
Model
350
1A
  3
Layout1
350
1E
  0
DICTIONARY
  5
E
330
A
100
AcDbDictionary
280
0
281
1
  3
ByBlock
350
1F
  3
ByLayer
350
20
  3
Global
350
21
  0
DICTIONARY
  5
F
330
A
100
AcDbDictionary
280
0
281
1
  3
Standard
350
2C
  0
DICTIONARY
  5
10
330
A
100
AcDbDictionary
280
0
281
1
  3
Standard
350
22
  0
DICTIONARY
  5
11
330
A
100
AcDbDictionary
280
0
281
1
  0
ACDBDICTIONARYWDFLT
  5
12
330
A
100
AcDbDictionary
280
0
281
1
  3
Normal
350
13
100
AcDbDictionaryWithDefault
340
13
  0
ACDBPLACEHOLDER
  5
13
330
12
  0
DICTIONARY
  5
14
330
A
100
AcDbDictionary
280
0
281
1
  0
DICTIONARY
  5
15
330
A
100
AcDbDictionary
280
0
281
1
  0
DICTIONARY
  5
16
330
A
100
AcDbDictionary
280
0
281
1
  0
LAYOUT
  5
1A
330
D
100
AcDbPlotSettings
  1

  2
Adobe PDF
  4
A3
  6

 40
7.5
 41
20.0
 42
7.5
 43
20.0
 44
420.0
 45
297.0
 46
0.0
 47
0.0
 48
0.0
 49
0.0
140
0.0
141
0.0
142
1.0
143
1.0
 70
1024
 72
1
 73
0
 74
5
  7

 75
16
 76
0
 77
2
 78
300
147
1.0
148
0.0
149
0.0
100
AcDbLayout
  1
Model
 70
1
 71
0
 10
0.0
 20
0.0
 11
420.0
 21
297.0
 12
0.0
 22
0.0
 32
0.0
 14
1e+20
 24
1e+20
 34
1e+20
 15
-1e+20
 25
-1e+20
 35
-1e+20
146
0.0
 13
0.0
 23
0.0
 33
0.0
 16
1.0
 26
0.0
 36
0.0
 17
0.0
 27
1.0
 37
0.0
 76
1
330
17
  0
LAYOUT
  5
1E
330
D
100
AcDbPlotSettings
  1

  2
Adobe PDF
  4
A3
  6

 40
7.5
 41
20.0
 42
7.5
 43
20.0
 44
420.0
 45
297.0
 46
0.0
 47
0.0
 48
0.0
 49
0.0
140
0.0
141
0.0
142
1.0
143
1.0
 70
0
 72
1
 73
0
 74
5
  7

 75
16
 76
0
 77
2
 78
300
147
1.0
148
0.0
149
0.0
100
AcDbLayout
  1
Layout1
 70
1
 71
1
 10
0.0
 20
0.0
 11
420.0
 21
297.0
 12
0.0
 22
0.0
 32
0.0
 14
1e+20
 24
1e+20
 34
1e+20
 15
-1e+20
 25
-1e+20
 35
-1e+20
146
0.0
 13
0.0
 23
0.0
 33
0.0
 16
1.0
 26
0.0
 36
0.0
 17
0.0
 27
1.0
 37
0.0
 76
1
330
1B
  0
MATERIAL
  5
1F
102
{ACAD_REACTORS
330
E
102
}
330
E
100
AcDbMaterial
  1
ByBlock
  2

 70
0
 40
1.0
 71
1
 41
1.0
 91
-1023410177
 42
1.0
 72
1
  3

 73
1
 74
1
 75
1
 44
0.5
 73
0
 45
1.0
 46
1.0
 77
1
  4

 78
1
 79
1
170
1
 48
1.0
171
1
  6

172
1
173
1
174
1
140
1.0
141
1.0
175
1
  7

176
1
177
1
178
1
143
1.0
179
1
  8

270
1
271
1
272
1
145
1.0
146
1.0
273
1
  9

274
1
275
1
276
1
 42
1.0
 72
1
  3

 73
1
 74
1
 75
1
 94
63
  0
MATERIAL
  5
20
102
{ACAD_REACTORS
330
E
102
}
330
E
100
AcDbMaterial
  1
ByLayer
  2

 70
0
 40
1.0
 71
1
 41
1.0
 91
-1023410177
 42
1.0
 72
1
  3

 73
1
 74
1
 75
1
 44
0.5
 73
0
 45
1.0
 46
1.0
 77
1
  4

 78
1
 79
1
170
1
 48
1.0
171
1
  6

172
1
173
1
174
1
140
1.0
141
1.0
175
1
  7

176
1
177
1
178
1
143
1.0
179
1
  8

270
1
271
1
272
1
145
1.0
146
1.0
273
1
  9

274
1
275
1
276
1
 42
1.0
 72
1
  3

 73
1
 74
1
 75
1
 94
63
  0
MATERIAL
  5
21
102
{ACAD_REACTORS
330
E
102
}
330
E
100
AcDbMaterial
  1
Global
  2

 70
0
 40
1.0
 71
1
 41
1.0
 91
-1023410177
 42
1.0
 72
1
  3

 73
1
 74
1
 75
1
 44
0.5
 73
0
 45
1.0
 46
1.0
 77
1
  4

 78
1
 79
1
170
1
 48
1.0
171
1
  6

172
1
173
1
174
1
140
1.0
141
1.0
175
1
  7

176
1
177
1
178
1
143
1.0
179
1
  8

270
1
271
1
272
1
145
1.0
146
1.0
273
1
  9

274
1
275
1
276
1
 42
1.0
 72
1
  3

 73
1
 74
1
 75
1
 94
63
  0
MLINESTYLE
  5
22
102
{ACAD_REACTORS
330
10
102
}
330
10
100
AcDbMlineStyle
  2
Standard
 70
0
  3

 62
256
 51
90.0
 52
90.0
 71
2
 49
0.5
 62
256
  6
BYLAYER
 49
-0.5
 62
256
  6
BYLAYER
  0
MLEADERSTYLE
  5
2C
102
{ACAD_REACTORS
330
F
102
}
330
F
100
AcDbMLeaderStyle
179
2
170
2
171
1
172
0
 90
2
 40
0.0
 41
0.0
173
1
 91
-1056964608
 92
-2
290
1
 42
2.0
291
1
 43
8.0
  3
Standard
 44
4.0
300

342
29
174
1
175
1
176
0
178
1
 93
-1056964608
 45
4.0
292
0
297
0
 46
4.0
 94
-1056964608
 47
1.0
 49
1.0
140
1.0
294
1
141
0.0
177
0
142
1.0
295
0
296
0
143
3.75
271
0
272
9
273
9
  0
DICTIONARY
  5
2D
330
A
100
AcDbDictionary
281
1
  3
CREATED_BY_EZDXF
350
2E
  3
WRITTEN_BY_EZDXF
350
1B2
  0
DICTIONARYVAR
  5
2E
330
2D
100
DictionaryVariables
280
0
  1
1.0.2 @ 2023-10-20T04:47:16.226446+00:00
  0
DICTIONARYVAR
  5
1B2
330
2D
100
DictionaryVariables
280
0
  1
1.0.2 @ 2023-10-20T04:47:16.236413+00:00
  0
ENDSEC
  0
EOF
