  0
SECTION
  2
HEADER
  9
$ACADVER
  1
AC1027
  9
$ACADMAINTVER
 70
105
  9
$DWGCODEPAGE
  3
ANSI_1252
  9
$LASTSAVEDBY
  1
ezdxf
  9
$REQUIREDVERSIONS
160
0
  9
$INSBASE
 10
0.0
 20
0.0
 30
0.0
  9
$EXTMIN
 10
1e+20
 20
1e+20
 30
1e+20
  9
$EXTMAX
 10
-1e+20
 20
-1e+20
 30
-1e+20
  9
$LIMMIN
 10
0.0
 20
0.0
  9
$LIMMAX
 10
420.0
 20
297.0
  9
$ORTHOMODE
 70
0
  9
$REGENMODE
 70
1
  9
$FILLMODE
 70
1
  9
$QTEXTMODE
 70
0
  9
$MIRRTEXT
 70
1
  9
$LTSCALE
 40
1.0
  9
$ATTMODE
 70
1
  9
$TEXTSIZE
 40
2.5
  9
$TRACEWID
 40
1.0
  9
$TEXTSTYLE
  7
Standard
  9
$CLAYER
  8
0
  9
$CELTYPE
  6
ByLayer
  9
$CECOLOR
 62
256
  9
$CELTSCALE
 40
1.0
  9
$DISPSILH
 70
0
  9
$DIMSCALE
 40
1.0
  9
$DIMASZ
 40
2.5
  9
$DIMEXO
 40
0.625
  9
$DIMDLI
 40
3.75
  9
$DIMRND
 40
0.0
  9
$DIMDLE
 40
0.0
  9
$DIMEXE
 40
1.25
  9
$DIMTP
 40
0.0
  9
$DIMTM
 40
0.0
  9
$DIMTXT
 40
2.5
  9
$DIMCEN
 40
2.5
  9
$DIMTSZ
 40
0.0
  9
$DIMTOL
 70
0
  9
$DIMLIM
 70
0
  9
$DIMTIH
 70
0
  9
$DIMTOH
 70
0
  9
$DIMSE1
 70
0
  9
$DIMSE2
 70
0
  9
$DIMTAD
 70
1
  9
$DIMZIN
 70
8
  9
$DIMBLK
  1

  9
$DIMASO
 70
1
  9
$DIMSHO
 70
1
  9
$DIMPOST
  1

  9
$DIMAPOST
  1

  9
$DIMALT
 70
0
  9
$DIMALTD
 70
3
  9
$DIMALTF
 40
0.03937007874
  9
$DIMLFAC
 40
1.0
  9
$DIMTOFL
 70
1
  9
$DIMTVP
 40
0.0
  9
$DIMTIX
 70
0
  9
$DIMSOXD
 70
0
  9
$DIMSAH
 70
0
  9
$DIMBLK1
  1

  9
$DIMBLK2
  1

  9
$DIMSTYLE
  2
ISO-25
  9
$DIMCLRD
 70
0
  9
$DIMCLRE
 70
0
  9
$DIMCLRT
 70
0
  9
$DIMTFAC
 40
1.0
  9
$DIMGAP
 40
0.625
  9
$DIMJUST
 70
0
  9
$DIMSD1
 70
0
  9
$DIMSD2
 70
0
  9
$DIMTOLJ
 70
0
  9
$DIMTZIN
 70
8
  9
$DIMALTZ
 70
0
  9
$DIMALTTZ
 70
0
  9
$DIMUPT
 70
0
  9
$DIMDEC
 70
2
  9
$DIMTDEC
 70
2
  9
$DIMALTU
 70
2
  9
$DIMALTTD
 70
3
  9
$DIMTXSTY
  7
Standard
  9
$DIMAUNIT
 70
0
  9
$DIMADEC
 70
0
  9
$DIMALTRND
 40
0.0
  9
$DIMAZIN
 70
0
  9
$DIMDSEP
 70
44
  9
$DIMATFIT
 70
3
  9
$DIMFRAC
 70
0
  9
$DIMLDRBLK
  1

  9
$DIMLUNIT
 70
2
  9
$DIMLWD
 70
-2
  9
$DIMLWE
 70
-2
  9
$DIMTMOVE
 70
0
  9
$DIMFXL
 40
1.0
  9
$DIMFXLON
 70
0
  9
$DIMJOGANG
 40
0.785398163397
  9
$DIMTFILL
 70
0
  9
$DIMTFILLCLR
 70
0
  9
$DIMARCSYM
 70
0
  9
$DIMLTYPE
  6

  9
$DIMLTEX1
  6

  9
$DIMLTEX2
  6

  9
$DIMTXTDIRECTION
 70
0
  9
$LUNITS
 70
2
  9
$LUPREC
 70
4
  9
$SKETCHINC
 40
1.0
  9
$FILLETRAD
 40
10.0
  9
$AUNITS
 70
0
  9
$AUPREC
 70
2
  9
$MENU
  1
.
  9
$ELEVATION
 40
0.0
  9
$PELEVATION
 40
0.0
  9
$THICKNESS
 40
0.0
  9
$LIMCHECK
 70
0
  9
$CHAMFERA
 40
0.0
  9
$CHAMFERB
 40
0.0
  9
$CHAMFERC
 40
0.0
  9
$CHAMFERD
 40
0.0
  9
$SKPOLY
 70
0
  9
$TDCREATE
 40
2460238.574490741
  9
$TDUCREATE
 40
2458532.153996898
  9
$TDUPDATE
 40
2460238.574490741
  9
$TDUUPDATE
 40
2458532.1544311
  9
$TDINDWG
 40
0.0
  9
$TDUSRTIMER
 40
0.0
  9
$USRTIMER
 70
1
  9
$ANGBASE
 50
0.0
  9
$ANGDIR
 70
0
  9
$PDMODE
 70
0
  9
$PDSIZE
 40
0.0
  9
$PLINEWID
 40
0.0
  9
$SPLFRAME
 70
0
  9
$SPLINETYPE
 70
6
  9
$SPLINESEGS
 70
8
  9
$HANDSEED
  5
1A2
  9
$SURFTAB1
 70
6
  9
$SURFTAB2
 70
6
  9
$SURFTYPE
 70
6
  9
$SURFU
 70
6
  9
$SURFV
 70
6
  9
$UCSBASE
  2

  9
$UCSNAME
  2

  9
$UCSORG
 10
0.0
 20
0.0
 30
0.0
  9
$UCSXDIR
 10
1.0
 20
0.0
 30
0.0
  9
$UCSYDIR
 10
0.0
 20
1.0
 30
0.0
  9
$UCSORTHOREF
  2

  9
$UCSORTHOVIEW
 70
0
  9
$UCSORGTOP
 10
0.0
 20
0.0
 30
0.0
  9
$UCSORGBOTTOM
 10
0.0
 20
0.0
 30
0.0
  9
$UCSORGLEFT
 10
0.0
 20
0.0
 30
0.0
  9
$UCSORGRIGHT
 10
0.0
 20
0.0
 30
0.0
  9
$UCSORGFRONT
 10
0.0
 20
0.0
 30
0.0
  9
$UCSORGBACK
 10
0.0
 20
0.0
 30
0.0
  9
$PUCSBASE
  2

  9
$PUCSNAME
  2

  9
$PUCSORG
 10
0.0
 20
0.0
 30
0.0
  9
$PUCSXDIR
 10
1.0
 20
0.0
 30
0.0
  9
$PUCSYDIR
 10
0.0
 20
1.0
 30
0.0
  9
$PUCSORTHOREF
  2

  9
$PUCSORTHOVIEW
 70
0
  9
$PUCSORGTOP
 10
0.0
 20
0.0
 30
0.0
  9
$PUCSORGBOTTOM
 10
0.0
 20
0.0
 30
0.0
  9
$PUCSORGLEFT
 10
0.0
 20
0.0
 30
0.0
  9
$PUCSORGRIGHT
 10
0.0
 20
0.0
 30
0.0
  9
$PUCSORGFRONT
 10
0.0
 20
0.0
 30
0.0
  9
$PUCSORGBACK
 10
0.0
 20
0.0
 30
0.0
  9
$USERI1
 70
0
  9
$USERI2
 70
0
  9
$USERI3
 70
0
  9
$USERI4
 70
0
  9
$USERI5
 70
0
  9
$USERR1
 40
0.0
  9
$USERR2
 40
0.0
  9
$USERR3
 40
0.0
  9
$USERR4
 40
0.0
  9
$USERR5
 40
0.0
  9
$WORLDVIEW
 70
1
  9
$SHADEDGE
 70
3
  9
$SHADEDIF
 70
70
  9
$TILEMODE
 70
1
  9
$MAXACTVP
 70
64
  9
$PINSBASE
 10
0.0
 20
0.0
 30
0.0
  9
$PLIMCHECK
 70
0
  9
$PEXTMIN
 10
1e+20
 20
1e+20
 30
1e+20
  9
$PEXTMAX
 10
-1e+20
 20
-1e+20
 30
-1e+20
  9
$PLIMMIN
 10
0.0
 20
0.0
  9
$PLIMMAX
 10
420.0
 20
297.0
  9
$UNITMODE
 70
0
  9
$VISRETAIN
 70
1
  9
$PLINEGEN
 70
0
  9
$PSLTSCALE
 70
1
  9
$TREEDEPTH
 70
3020
  9
$CMLSTYLE
  2
Standard
  9
$CMLJUST
 70
0
  9
$CMLSCALE
 40
20.0
  9
$PROXYGRAPHICS
 70
1
  9
$MEASUREMENT
 70
1
  9
$CELWEIGHT
370
-1
  9
$ENDCAPS
280
0
  9
$JOINSTYLE
280
0
  9
$LWDISPLAY
290
0
  9
$INSUNITS
 70
6
  9
$HYPERLINKBASE
  1

  9
$STYLESHEET
  1

  9
$XEDIT
290
1
  9
$CEPSNTYPE
380
0
  9
$PSTYLEMODE
290
1
  9
$FINGERPRINTGUID
  2
{CF09D8D4-7A79-4C57-A8E0-B8A6CF5CC488}
  9
$VERSIONGUID
  2
{525A8A4C-E28F-44F8-885B-876406F21ED7}
  9
$EXTNAMES
290
1
  9
$PSVPSCALE
 40
0.0
  9
$OLESTARTUP
290
0
  9
$SORTENTS
280
127
  9
$INDEXCTL
280
0
  9
$HIDETEXT
280
1
  9
$XCLIPFRAME
280
0
  9
$HALOGAP
280
0
  9
$OBSCOLOR
 70
257
  9
$OBSLTYPE
280
0
  9
$INTERSECTIONDISPLAY
280
0
  9
$INTERSECTIONCOLOR
 70
257
  9
$DIMASSOC
280
2
  9
$PROJECTNAME
  1

  9
$CAMERADISPLAY
290
0
  9
$LENSLENGTH
 40
50.0
  9
$CAMERAHEIGHT
 40
0.0
  9
$STEPSPERSEC
 40
24.0
  9
$STEPSIZE
 40
100.0
  9
$3DDWFPREC
 40
2.0
  9
$PSOLWIDTH
 40
0.005
  9
$PSOLHEIGHT
 40
0.08
  9
$LOFTANG1
 40
1.570796326795
  9
$LOFTANG2
 40
1.570796326795
  9
$LOFTMAG1
 40
0.0
  9
$LOFTMAG2
 40
0.0
  9
$LOFTPARAM
 70
7
  9
$LOFTNORMALS
280
1
  9
$LATITUDE
 40
37.795
  9
$LONGITUDE
 40
-122.394
  9
$NORTHDIRECTION
 40
0.0
  9
$TIMEZONE
 70
-8000
  9
$LIGHTGLYPHDISPLAY
280
1
  9
$TILEMODELIGHTSYNCH
280
1
  9
$CMATERIAL
347
20
  9
$SOLIDHIST
280
0
  9
$SHOWHIST
280
1
  9
$DWFFRAME
280
2
  9
$DGNFRAME
280
2
  9
$REALWORLDSCALE
290
1
  9
$INTERFERECOLOR
 62
256
  9
$CSHADOW
280
0
  9
$SHADOWPLANELOCATION
 40
0.0
  0
ENDSEC
  0
SECTION
  2
CLASSES
  0
CLASS
  1
ACDBDICTIONARYWDFLT
  2
AcDbDictionaryWithDefault
  3
ObjectDBX Classes
 90
0
 91
0
280
0
281
0
  0
CLASS
  1
SUN
  2
AcDbSun
  3
SCENEOE
 90
1153
 91
0
280
0
281
0
  0
CLASS
  1
VISUALSTYLE
  2
AcDbVisualStyle
  3
ObjectDBX Classes
 90
4095
 91
0
280
0
281
0
  0
CLASS
  1
MATERIAL
  2
AcDbMaterial
  3
ObjectDBX Classes
 90
1153
 91
0
280
0
281
0
  0
CLASS
  1
SCALE
  2
AcDbScale
  3
ObjectDBX Classes
 90
1153
 91
0
280
0
281
0
  0
CLASS
  1
TABLESTYLE
  2
AcDbTableStyle
  3
ObjectDBX Classes
 90
4095
 91
0
280
0
281
0
  0
CLASS
  1
MLEADERSTYLE
  2
AcDbMLeaderStyle
  3
ACDB_MLEADERSTYLE_CLASS
 90
4095
 91
0
280
0
281
0
  0
CLASS
  1
DICTIONARYVAR
  2
AcDbDictionaryVar
  3
ObjectDBX Classes
 90
0
 91
0
280
0
281
0
  0
CLASS
  1
CELLSTYLEMAP
  2
AcDbCellStyleMap
  3
ObjectDBX Classes
 90
1152
 91
0
280
0
281
0
  0
CLASS
  1
MENTALRAYRENDERSETTINGS
  2
AcDbMentalRayRenderSettings
  3
SCENEOE
 90
1024
 91
0
280
0
281
0
  0
CLASS
  1
ACDBDETAILVIEWSTYLE
  2
AcDbDetailViewStyle
  3
ObjectDBX Classes
 90
1025
 91
0
280
0
281
0
  0
CLASS
  1
ACDBSECTIONVIEWSTYLE
  2
AcDbSectionViewStyle
  3
ObjectDBX Classes
 90
1025
 91
0
280
0
281
0
  0
CLASS
  1
RASTERVARIABLES
  2
AcDbRasterVariables
  3
ISM
 90
0
 91
0
280
0
281
0
  0
CLASS
  1
ACDBPLACEHOLDER
  2
AcDbPlaceHolder
  3
ObjectDBX Classes
 90
0
 91
0
280
0
281
0
  0
CLASS
  1
LAYOUT
  2
AcDbLayout
  3
ObjectDBX Classes
 90
0
 91
0
280
0
281
0
  0
ENDSEC
  0
SECTION
  2
TABLES
  0
TABLE
  2
VPORT
  5
8
330
0
100
AcDbSymbolTable
 70
1
  0
VPORT
  5
23
330
8
100
AcDbSymbolTableRecord
100
AcDbViewportTableRecord
  2
*Active
 70
0
 10
0.0
 20
0.0
 11
1.0
 21
1.0
 12
0.0
 22
0.0
 13
0.0
 23
0.0
 14
0.5
 24
0.5
 15
0.5
 25
0.5
 16
0.0
 26
0.0
 36
1.0
 17
0.0
 27
0.0
 37
0.0
 40
1000.0
 41
1.34
 42
50.0
 43
0.0
 44
0.0
 50
0.0
 51
0.0
 71
0
 72
1000
 73
1
 74
3
 75
0
 76
0
 77
0
 78
0
281
0
 65
0
146
0.0
  0
ENDTAB
  0
TABLE
  2
LTYPE
  5
2
330
0
100
AcDbSymbolTable
 70
3
  0
LTYPE
  5
24
330
2
100
AcDbSymbolTableRecord
100
AcDbLinetypeTableRecord
  2
ByBlock
 70
0
  3

 72
65
 73
0
 40
0.0
  0
LTYPE
  5
25
330
2
100
AcDbSymbolTableRecord
100
AcDbLinetypeTableRecord
  2
ByLayer
 70
0
  3

 72
65
 73
0
 40
0.0
  0
LTYPE
  5
26
330
2
100
AcDbSymbolTableRecord
100
AcDbLinetypeTableRecord
  2
Continuous
 70
0
  3

 72
65
 73
0
 40
0.0
  0
ENDTAB
  0
TABLE
  2
LAYER
  5
1
330
0
100
AcDbSymbolTable
 70
5
  0
LAYER
  5
27
330
1
100
AcDbSymbolTableRecord
100
AcDbLayerTableRecord
  2
0
 70
0
 62
7
  6
Continuous
370
-3
390
13
347
21
  0
LAYER
  5
28
330
1
100
AcDbSymbolTableRecord
100
AcDbLayerTableRecord
  2
Defpoints
 70
0
 62
7
  6
Continuous
290
0
370
-3
390
13
347
21
  0
LAYER
  5
30
330
1
100
AcDbSymbolTableRecord
100
AcDbLayerTableRecord
  2
FoilLayer
 70
0
 62
1
  6
Continuous
370
50
390
13
347
21
  0
LAYER
  5
31
330
1
100
AcDbSymbolTableRecord
100
AcDbLayerTableRecord
  2
StringerLayer
 70
0
 62
1
  6
Continuous
370
50
390
13
347
21
  0
LAYER
  5
32
330
1
100
AcDbSymbolTableRecord
100
AcDbLayerTableRecord
  2
SubLayer
 70
0
 62
1
  6
Continuous
370
50
390
13
347
21
  0
ENDTAB
  0
TABLE
  2
STYLE
  5
5
330
0
100
AcDbSymbolTable
 70
2
  0
STYLE
  5
29
330
5
100
AcDbSymbolTableRecord
100
AcDbTextStyleTableRecord
  2
Standard
 70
0
 40
0.0
 41
1.0
 50
0.0
 71
0
 42
2.5
  3
txt
  4

  0
STYLE
  5
2F
330
5
100
AcDbSymbolTableRecord
100
AcDbTextStyleTableRecord
  2
MSゴシック
 70
0
 40
0.0
 41
1.0
 50
0.0
 71
0
 42
2.5
  3
romans
  4

  0
ENDTAB
  0
TABLE
  2
VIEW
  5
7
330
0
100
AcDbSymbolTable
 70
0
  0
ENDTAB
  0
TABLE
  2
UCS
  5
6
330
0
100
AcDbSymbolTable
 70
0
  0
ENDTAB
  0
TABLE
  2
APPID
  5
3
330
0
100
AcDbSymbolTable
 70
3
  0
APPID
  5
2A
330
3
100
AcDbSymbolTableRecord
100
AcDbRegAppTableRecord
  2
ACAD
 70
0
  0
APPID
  5
19F
330
3
100
AcDbSymbolTableRecord
100
AcDbRegAppTableRecord
  2
HATCHBACKGROUNDCOLOR
 70
0
  0
APPID
  5
1A0
330
3
100
AcDbSymbolTableRecord
100
AcDbRegAppTableRecord
  2
EZDXF
 70
0
  0
ENDTAB
  0
TABLE
  2
DIMSTYLE
  5
4
330
0
100
AcDbSymbolTable
 70
1
100
AcDbDimStyleTable
  0
DIMSTYLE
105
2B
330
4
100
AcDbSymbolTableRecord
100
AcDbDimStyleTableRecord
  2
Standard
 70
0
 40
1.0
 41
2.5
 42
0.625
 43
3.75
 44
1.25
 45
0.0
 46
0.0
 47
0.0
 48
0.0
 49
2.5
140
2.5
141
2.5
142
0.0
143
0.03937007874
144
1.0
145
0.0
146
1.0
147
0.625
148
0.0
 69
0
 70
0
 71
0
 72
0
 73
0
 74
0
 75
0
 76
0
 77
1
 78
8
 79
3
170
0
171
3
172
1
173
0
174
0
175
0
176
0
177
0
178
0
179
2
271
2
272
2
273
2
274
3
275
0
276
0
277
2
278
44
279
0
280
0
281
0
282
0
283
0
284
8
285
0
286
0
288
0
289
3
290
0
371
-2
372
-2
  0
ENDTAB
  0
TABLE
  2
BLOCK_RECORD
  5
9
330
0
100
AcDbSymbolTable
 70
2
  0
BLOCK_RECORD
  5
17
330
9
100
AcDbSymbolTableRecord
100
AcDbBlockTableRecord
  2
*Model_Space
340
1A
 70
0
280
1
281
0
  0
BLOCK_RECORD
  5
1B
330
9
100
AcDbSymbolTableRecord
100
AcDbBlockTableRecord
  2
*Paper_Space
340
1E
 70
0
280
1
281
0
  0
ENDTAB
  0
ENDSEC
  0
SECTION
  2
BLOCKS
  0
BLOCK
  5
18
330
17
100
AcDbEntity
  8
0
100
AcDbBlockBegin
  2
*Model_Space
 70
0
 10
0.0
 20
0.0
 30
0.0
  3
*Model_Space
  1

  0
ENDBLK
  5
19
330
17
100
AcDbEntity
  8
0
100
AcDbBlockEnd
  0
BLOCK
  5
1C
330
1B
100
AcDbEntity
  8
0
100
AcDbBlockBegin
  2
*Paper_Space
 70
0
 10
0.0
 20
0.0
 30
0.0
  3
*Paper_Space
  1

  0
ENDBLK
  5
1D
330
1B
100
AcDbEntity
  8
0
100
AcDbBlockEnd
  0
ENDSEC
  0
SECTION
  2
ENTITIES
  0
LINE
  5
33
330
17
100
AcDbEntity
  8
FoilLayer
100
AcDbLine
 10
389.70361503647956
 20
-0.3947467244322015
 30
0.0
 11
389.58784690687975
 21
-0.35420475932874684
 31
0.0
  0
LINE
  5
34
330
17
100
AcDbEntity
  8
FoilLayer
100
AcDbLine
 10
389.58784690687975
 20
-0.35420475932874684
 30
0.0
 11
389.2293780308947
 21
-0.23266219819136308
 31
0.0
  0
LINE
  5
35
330
17
100
AcDbEntity
  8
FoilLayer
100
AcDbLine
 10
389.2293780308947
 20
-0.23266219819136308
 30
0.0
 11
388.6664173099518
 21
-0.03502611312388654
 31
0.0
  0
LINE
  5
36
330
17
100
AcDbEntity
  8
FoilLayer
100
AcDbLine
 10
388.6664173099518
 20
-0.03502611312388654
 30
0.0
 11
387.8938853505078
 21
0.23446367250377292
 31
0.0
  0
LINE
  5
37
330
17
100
AcDbEntity
  8
FoilLayer
100
AcDbLine
 10
387.8938853505078
 20
0.23446367250377292
 30
0.0
 11
386.92301888239234
 21
0.5700726645510671
 31
0.0
  0
LINE
  5
38
330
17
100
AcDbEntity
  8
FoilLayer
100
AcDbLine
 10
386.92301888239234
 20
0.5700726645510671
 30
0.0
 11
385.75621750550175
 21
0.9709838563889934
 31
0.0
  0
LINE
  5
39
330
17
100
AcDbEntity
  8
FoilLayer
100
AcDbLine
 10
385.75621750550175
 20
0.9709838563889934
 30
0.0
 11
384.401822352088
 21
1.4264458436420466
 31
0.0
  0
LINE
  5
3A
330
17
100
AcDbEntity
  8
FoilLayer
100
AcDbLine
 10
384.401822352088
 20
1.4264458436420466
 30
0.0
 11
382.85436229192266
 21
1.9422658636971935
 31
0.0
  0
LINE
  5
3B
330
17
100
AcDbEntity
  8
FoilLayer
100
AcDbLine
 10
382.85436229192266
 20
1.9422658636971935
 30
0.0
 11
381.13060501561876
 21
2.516868816300049
 31
0.0
  0
LINE
  5
3C
330
17
100
AcDbEntity
  8
FoilLayer
100
AcDbLine
 10
381.13060501561876
 20
2.516868816300049
 30
0.0
 11
379.22406951589807
 21
3.1343952889080153
 31
0.0
  0
LINE
  5
3D
330
17
100
AcDbEntity
  8
FoilLayer
100
AcDbLine
 10
379.22406951589807
 20
3.1343952889080153
 30
0.0
 11
377.13953266439927
 21
3.805290327314065
 31
0.0
  0
LINE
  5
3E
330
17
100
AcDbEntity
  8
FoilLayer
100
AcDbLine
 10
377.13953266439927
 20
3.805290327314065
 30
0.0
 11
374.8743717565081
 21
4.5184019011774925
 31
0.0
  0
LINE
  5
3F
330
17
100
AcDbEntity
  8
FoilLayer
100
AcDbLine
 10
374.8743717565081
 20
4.5184019011774925
 30
0.0
 11
372.4343806662334
 21
5.273781683534831
 31
0.0
  0
LINE
  5
40
330
17
100
AcDbEntity
  8
FoilLayer
100
AcDbLine
 10
372.4343806662334
 20
5.273781683534831
 30
0.0
 11
369.81463826182636
 21
6.07709171432059
 31
0.0
  0
LINE
  5
41
330
17
100
AcDbEntity
  8
FoilLayer
100
AcDbLine
 10
369.81463826182636
 20
6.07709171432059
 30
0.0
 11
367.0276077255605
 21
6.9221963418591
 31
0.0
  0
LINE
  5
42
330
17
100
AcDbEntity
  8
FoilLayer
100
AcDbLine
 10
367.0276077255605
 20
6.9221963418591
 30
0.0
 11
364.0716658873159
 21
7.803583979806563
 31
0.0
  0
LINE
  5
43
330
17
100
AcDbEntity
  8
FoilLayer
100
AcDbLine
 10
364.0716658873159
 20
7.803583979806563
 30
0.0
 11
360.94840459160235
 21
8.726777878093463
 31
0.0
  0
LINE
  5
44
330
17
100
AcDbEntity
  8
FoilLayer
100
AcDbLine
 10
360.94840459160235
 20
8.726777878093463
 30
0.0
 11
357.6570466557967
 21
9.686010674127852
 31
0.0
  0
LINE
  5
45
330
17
100
AcDbEntity
  8
FoilLayer
100
AcDbLine
 10
357.6570466557967
 20
9.686010674127852
 30
0.0
 11
354.197424508369
 21
10.681328291171205
 31
0.0
  0
LINE
  5
46
330
17
100
AcDbEntity
  8
FoilLayer
100
AcDbLine
 10
354.197424508369
 20
10.681328291171205
 30
0.0
 11
350.5744911180355
 21
11.713024603335624
 31
0.0
  0
LINE
  5
47
330
17
100
AcDbEntity
  8
FoilLayer
100
AcDbLine
 10
350.5744911180355
 20
11.713024603335624
 30
0.0
 11
346.79067536517533
 21
12.792402453273828
 31
0.0
  0
LINE
  5
48
330
17
100
AcDbEntity
  8
FoilLayer
100
AcDbLine
 10
346.79067536517533
 20
12.792402453273828
 30
0.0
 11
342.8493412447979
 21
13.908214566857446
 31
0.0
  0
LINE
  5
49
330
17
100
AcDbEntity
  8
FoilLayer
100
AcDbLine
 10
342.8493412447979
 20
13.908214566857446
 30
0.0
 11
338.76581055065566
 21
15.071512483680129
 31
0.0
  0
LINE
  5
4A
330
17
100
AcDbEntity
  8
FoilLayer
100
AcDbLine
 10
338.76581055065566
 20
15.071512483680129
 30
0.0
 11
334.53731714387453
 21
16.265087219571775
 31
0.0
  0
LINE
  5
4B
330
17
100
AcDbEntity
  8
FoilLayer
100
AcDbLine
 10
334.53731714387453
 20
16.265087219571775
 30
0.0
 11
330.15895596417755
 21
17.500624773331413
 31
0.0
  0
LINE
  5
4C
330
17
100
AcDbEntity
  8
FoilLayer
100
AcDbLine
 10
330.15895596417755
 20
17.500624773331413
 30
0.0
 11
325.6481163053963
 21
18.77229786892513
 31
0.0
  0
LINE
  5
4D
330
17
100
AcDbEntity
  8
FoilLayer
100
AcDbLine
 10
325.6481163053963
 20
18.77229786892513
 30
0.0
 11
321.0060689316412
 21
20.085745519762753
 31
0.0
  0
LINE
  5
4E
330
17
100
AcDbEntity
  8
FoilLayer
100
AcDbLine
 10
321.0060689316412
 20
20.085745519762753
 30
0.0
 11
316.24355435922286
 21
21.4293264957899
 31
0.0
  0
LINE
  5
4F
330
17
100
AcDbEntity
  8
FoilLayer
100
AcDbLine
 10
316.24355435922286
 20
21.4293264957899
 30
0.0
 11
311.36205243894784
 21
22.808621436872958
 31
0.0
  0
LINE
  5
50
330
17
100
AcDbEntity
  8
FoilLayer
100
AcDbLine
 10
311.36205243894784
 20
22.808621436872958
 30
0.0
 11
306.360085508881
 21
24.21205111018765
 31
0.0
  0
LINE
  5
51
330
17
100
AcDbEntity
  8
FoilLayer
100
AcDbLine
 10
306.360085508881
 20
24.21205111018765
 30
0.0
 11
301.23776092707124
 21
25.645582244075342
 31
0.0
  0
LINE
  5
52
330
17
100
AcDbEntity
  8
FoilLayer
100
AcDbLine
 10
301.23776092707124
 20
25.645582244075342
 30
0.0
 11
296.0133492530566
 21
27.109137362410493
 31
0.0
  0
LINE
  5
53
330
17
100
AcDbEntity
  8
FoilLayer
100
AcDbLine
 10
296.0133492530566
 20
27.109137362410493
 30
0.0
 11
290.69374494361625
 21
28.602465202575566
 31
0.0
  0
LINE
  5
54
330
17
100
AcDbEntity
  8
FoilLayer
100
AcDbLine
 10
290.69374494361625
 20
28.602465202575566
 30
0.0
 11
285.2847154985017
 21
30.113636748785577
 31
0.0
  0
LINE
  5
55
330
17
100
AcDbEntity
  8
FoilLayer
100
AcDbLine
 10
285.2847154985017
 20
30.113636748785577
 30
0.0
 11
279.7791336189051
 21
31.636967989186388
 31
0.0
  0
LINE
  5
56
330
17
100
AcDbEntity
  8
FoilLayer
100
AcDbLine
 10
279.7791336189051
 20
31.636967989186388
 30
0.0
 11
274.18345097644857
 21
33.17832982521742
 31
0.0
  0
LINE
  5
57
330
17
100
AcDbEntity
  8
FoilLayer
100
AcDbLine
 10
274.18345097644857
 20
33.17832982521742
 30
0.0
 11
268.5035568302674
 21
34.73775167953944
 31
0.0
  0
LINE
  5
58
330
17
100
AcDbEntity
  8
FoilLayer
100
AcDbLine
 10
268.5035568302674
 20
34.73775167953944
 30
0.0
 11
262.7519870311686
 21
36.31508543333603
 31
0.0
  0
LINE
  5
59
330
17
100
AcDbEntity
  8
FoilLayer
100
AcDbLine
 10
262.7519870311686
 20
36.31508543333603
 30
0.0
 11
256.9359710669247
 21
37.90400173161969
 31
0.0
  0
LINE
  5
5A
330
17
100
AcDbEntity
  8
FoilLayer
100
AcDbLine
 10
256.9359710669247
 20
37.90400173161969
 30
0.0
 11
251.0592310411319
 21
39.481128662436845
 31
0.0
  0
LINE
  5
5B
330
17
100
AcDbEntity
  8
FoilLayer
100
AcDbLine
 10
251.0592310411319
 20
39.481128662436845
 30
0.0
 11
245.11649008379914
 21
41.05826547697184
 31
0.0
  0
LINE
  5
5C
330
17
100
AcDbEntity
  8
FoilLayer
100
AcDbLine
 10
245.11649008379914
 20
41.05826547697184
 30
0.0
 11
239.79484691177674
 21
42.45506403409948
 31
0.0
  0
LINE
  5
5D
330
17
100
AcDbEntity
  8
FoilLayer
100
AcDbLine
 10
239.79484691177674
 20
42.45506403409948
 30
0.0
 11
239.40133980991743
 21
40.95584685143837
 31
0.0
  0
LINE
  5
5E
330
17
100
AcDbEntity
  8
FoilLayer
100
AcDbLine
 10
239.40133980991743
 20
40.95584685143837
 30
0.0
 11
238.7204372265897
 21
41.13458173073036
 31
0.0
  0
LINE
  5
5F
330
17
100
AcDbEntity
  8
FoilLayer
100
AcDbLine
 10
238.7204372265897
 20
41.13458173073036
 30
0.0
 11
232.66981379106187
 21
42.698173193930145
 31
0.0
  0
LINE
  5
60
330
17
100
AcDbEntity
  8
FoilLayer
100
AcDbLine
 10
232.66981379106187
 20
42.698173193930145
 30
0.0
 11
226.57289408221828
 21
44.24937611605756
 31
0.0
  0
LINE
  5
61
330
17
100
AcDbEntity
  8
FoilLayer
100
AcDbLine
 10
226.57289408221828
 20
44.24937611605756
 30
0.0
 11
220.4287488503967
 21
45.78244396242079
 31
0.0
  0
LINE
  5
62
330
17
100
AcDbEntity
  8
FoilLayer
100
AcDbLine
 10
220.4287488503967
 20
45.78244396242079
 30
0.0
 11
214.22278584613025
 21
47.2980097111753
 31
0.0
  0
LINE
  5
63
330
17
100
AcDbEntity
  8
FoilLayer
100
AcDbLine
 10
214.22278584613025
 20
47.2980097111753
 30
0.0
 11
207.97725063369347
 21
48.796463646077164
 31
0.0
  0
LINE
  5
64
330
17
100
AcDbEntity
  8
FoilLayer
100
AcDbLine
 10
207.97725063369347
 20
48.796463646077164
 30
0.0
 11
201.70147367496168
 21
50.28758678277141
 31
0.0
  0
LINE
  5
65
330
17
100
AcDbEntity
  8
FoilLayer
100
AcDbLine
 10
201.70147367496168
 20
50.28758678277141
 30
0.0
 11
195.40944227685844
 21
51.74838124692286
 31
0.0
  0
LINE
  5
66
330
17
100
AcDbEntity
  8
FoilLayer
100
AcDbLine
 10
195.40944227685844
 20
51.74838124692286
 30
0.0
 11
189.1015472019775
 21
53.17279660497835
 31
0.0
  0
LINE
  5
67
330
17
100
AcDbEntity
  8
FoilLayer
100
AcDbLine
 10
189.1015472019775
 20
53.17279660497835
 30
0.0
 11
182.77528469125383
 21
54.554152482650814
 31
0.0
  0
LINE
  5
68
330
17
100
AcDbEntity
  8
FoilLayer
100
AcDbLine
 10
182.77528469125383
 20
54.554152482650814
 30
0.0
 11
176.4140235805521
 21
55.87672846295347
 31
0.0
  0
LINE
  5
69
330
17
100
AcDbEntity
  8
FoilLayer
100
AcDbLine
 10
176.4140235805521
 20
55.87672846295347
 30
0.0
 11
170.01565640940237
 21
57.157646492347055
 31
0.0
  0
LINE
  5
6A
330
17
100
AcDbEntity
  8
FoilLayer
100
AcDbLine
 10
170.01565640940237
 20
57.157646492347055
 30
0.0
 11
163.60169549021344
 21
58.39622899486167
 31
0.0
  0
LINE
  5
6B
330
17
100
AcDbEntity
  8
FoilLayer
100
AcDbLine
 10
163.60169549021344
 20
58.39622899486167
 30
0.0
 11
157.15850155969173
 21
59.586826070232206
 31
0.0
  0
LINE
  5
6C
330
17
100
AcDbEntity
  8
FoilLayer
100
AcDbLine
 10
157.15850155969173
 20
59.586826070232206
 30
0.0
 11
150.70391728986363
 21
60.723484103158526
 31
0.0
  0
LINE
  5
6D
330
17
100
AcDbEntity
  8
FoilLayer
100
AcDbLine
 10
150.70391728986363
 20
60.723484103158526
 30
0.0
 11
144.2250086776633
 21
61.80636704240767
 31
0.0
  0
LINE
  5
6E
330
17
100
AcDbEntity
  8
FoilLayer
100
AcDbLine
 10
144.2250086776633
 20
61.80636704240767
 30
0.0
 11
137.72834712126183
 21
62.83537969597767
 31
0.0
  0
LINE
  5
6F
330
17
100
AcDbEntity
  8
FoilLayer
100
AcDbLine
 10
137.72834712126183
 20
62.83537969597767
 30
0.0
 11
131.20713407270898
 21
63.810640592574984
 31
0.0
  0
LINE
  5
70
330
17
100
AcDbEntity
  8
FoilLayer
100
AcDbLine
 10
131.20713407270898
 20
63.810640592574984
 30
0.0
 11
124.6736866864066
 21
64.73209226025135
 31
0.0
  0
LINE
  5
71
330
17
100
AcDbEntity
  8
FoilLayer
100
AcDbLine
 10
124.6736866864066
 20
64.73209226025135
 30
0.0
 11
118.13448670160864
 21
65.59966810311029
 31
0.0
  0
LINE
  5
72
330
17
100
AcDbEntity
  8
FoilLayer
100
AcDbLine
 10
118.13448670160864
 20
65.59966810311029
 30
0.0
 11
111.58307468746074
 21
66.41342732547973
 31
0.0
  0
LINE
  5
73
330
17
100
AcDbEntity
  8
FoilLayer
100
AcDbLine
 10
111.58307468746074
 20
66.41342732547973
 30
0.0
 11
105.02926646598718
 21
67.17295670220271
 31
0.0
  0
LINE
  5
74
330
17
100
AcDbEntity
  8
FoilLayer
100
AcDbLine
 10
105.02926646598718
 20
67.17295670220271
 30
0.0
 11
98.46589465782745
 21
67.86705465318833
 31
0.0
  0
LINE
  5
75
330
17
100
AcDbEntity
  8
FoilLayer
100
AcDbLine
 10
98.46589465782745
 20
67.86705465318833
 30
0.0
 11
91.89457415351205
 21
68.50748164758446
 31
0.0
  0
LINE
  5
76
330
17
100
AcDbEntity
  8
FoilLayer
100
AcDbLine
 10
91.89457415351205
 20
68.50748164758446
 30
0.0
 11
85.3267420432905
 21
69.09974397735428
 31
0.0
  0
LINE
  5
77
330
17
100
AcDbEntity
  8
FoilLayer
100
AcDbLine
 10
85.3267420432905
 20
69.09974397735428
 30
0.0
 11
78.76135894417234
 21
69.63244759344963
 31
0.0
  0
LINE
  5
78
330
17
100
AcDbEntity
  8
FoilLayer
100
AcDbLine
 10
78.76135894417234
 20
69.63244759344963
 30
0.0
 11
72.20541643455442
 21
70.11704472691697
 31
0.0
  0
LINE
  5
79
330
17
100
AcDbEntity
  8
FoilLayer
100
AcDbLine
 10
72.20541643455442
 20
70.11704472691697
 30
0.0
 11
65.66769862551985
 21
70.54180863945209
 31
0.0
  0
LINE
  5
7A
330
17
100
AcDbEntity
  8
FoilLayer
100
AcDbLine
 10
65.66769862551985
 20
70.54180863945209
 30
0.0
 11
59.14207013151332
 21
70.90675176793907
 31
0.0
  0
LINE
  5
7B
330
17
100
AcDbEntity
  8
FoilLayer
100
AcDbLine
 10
59.14207013151332
 20
70.90675176793907
 30
0.0
 11
52.626620266151974
 21
71.21194940954474
 31
0.0
  0
LINE
  5
7C
330
17
100
AcDbEntity
  8
FoilLayer
100
AcDbLine
 10
52.626620266151974
 20
71.21194940954474
 30
0.0
 11
46.12921350822944
 21
71.46329705286297
 31
0.0
  0
LINE
  5
7D
330
17
100
AcDbEntity
  8
FoilLayer
100
AcDbLine
 10
46.12921350822944
 20
71.46329705286297
 30
0.0
 11
39.655849147096376
 21
71.66079576527986
 31
0.0
  0
LINE
  5
7E
330
17
100
AcDbEntity
  8
FoilLayer
100
AcDbLine
 10
39.655849147096376
 20
71.66079576527986
 30
0.0
 11
33.220582378344176
 21
71.80441875242144
 31
0.0
  0
LINE
  5
7F
330
17
100
AcDbEntity
  8
FoilLayer
100
AcDbLine
 10
33.220582378344176
 20
71.80441875242144
 30
0.0
 11
26.80943838831942
 21
71.88823299925984
 31
0.0
  0
LINE
  5
80
330
17
100
AcDbEntity
  8
FoilLayer
100
AcDbLine
 10
26.80943838831942
 20
71.88823299925984
 30
0.0
 11
20.43635632981733
 21
71.91225399242234
 31
0.0
  0
LINE
  5
81
330
17
100
AcDbEntity
  8
FoilLayer
100
AcDbLine
 10
20.43635632981733
 20
71.91225399242234
 30
0.0
 11
14.081802712845047
 21
71.87042693623839
 31
0.0
  0
LINE
  5
82
330
17
100
AcDbEntity
  8
FoilLayer
100
AcDbLine
 10
14.081802712845047
 20
71.87042693623839
 30
0.0
 11
7.763489031580917
 21
71.78073806717369
 31
0.0
  0
LINE
  5
83
330
17
100
AcDbEntity
  8
FoilLayer
100
AcDbLine
 10
7.763489031580917
 20
71.78073806717369
 30
0.0
 11
1.497168449686228
 21
71.64330887478881
 31
0.0
  0
LINE
  5
84
330
17
100
AcDbEntity
  8
FoilLayer
100
AcDbLine
 10
1.497168449686228
 20
71.64330887478881
 30
0.0
 11
-4.7286149093785355
 21
71.44603123840753
 31
0.0
  0
LINE
  5
85
330
17
100
AcDbEntity
  8
FoilLayer
100
AcDbLine
 10
-4.7286149093785355
 20
71.44603123840753
 30
0.0
 11
-10.890486777581685
 21
71.19513518342913
 31
0.0
  0
LINE
  5
86
330
17
100
AcDbEntity
  8
FoilLayer
100
AcDbLine
 10
-10.890486777581685
 20
71.19513518342913
 30
0.0
 11
-17.013900361506472
 21
70.87828611556303
 31
0.0
  0
LINE
  5
87
330
17
100
AcDbEntity
  8
FoilLayer
100
AcDbLine
 10
-17.013900361506472
 20
70.87828611556303
 30
0.0
 11
-23.089069863607563
 21
70.50764527133715
 31
0.0
  0
LINE
  5
88
330
17
100
AcDbEntity
  8
FoilLayer
100
AcDbLine
 10
-23.089069863607563
 20
70.50764527133715
 30
0.0
 11
-29.117504952952345
 21
70.08310014435256
 31
0.0
  0
LINE
  5
89
330
17
100
AcDbEntity
  8
FoilLayer
100
AcDbLine
 10
-29.117504952952345
 20
70.08310014435256
 30
0.0
 11
-35.07943399150744
 21
69.61077220423782
 31
0.0
  0
LINE
  5
8A
330
17
100
AcDbEntity
  8
FoilLayer
100
AcDbLine
 10
-35.07943399150744
 20
69.61077220423782
 30
0.0
 11
-40.9651390722494
 21
69.09104320840612
 31
0.0
  0
LINE
  5
8B
330
17
100
AcDbEntity
  8
FoilLayer
100
AcDbLine
 10
-40.9651390722494
 20
69.09104320840612
 30
0.0
 11
-46.782625602970086
 21
68.51183585020328
 31
0.0
  0
LINE
  5
8C
330
17
100
AcDbEntity
  8
FoilLayer
100
AcDbLine
 10
-46.782625602970086
 20
68.51183585020328
 30
0.0
 11
-52.54562330249186
 21
67.8662807133368
 31
0.0
  0
LINE
  5
8D
330
17
100
AcDbEntity
  8
FoilLayer
100
AcDbLine
 10
-52.54562330249186
 20
67.8662807133368
 30
0.0
 11
-58.241996442606876
 21
67.1730117825277
 31
0.0
  0
LINE
  5
8E
330
17
100
AcDbEntity
  8
FoilLayer
100
AcDbLine
 10
-58.241996442606876
 20
67.1730117825277
 30
0.0
 11
-63.86596709115247
 21
66.43201806741912
 31
0.0
  0
LINE
  5
8F
330
17
100
AcDbEntity
  8
FoilLayer
100
AcDbLine
 10
-63.86596709115247
 20
66.43201806741912
 30
0.0
 11
-69.41899458442347
 21
65.64309141844852
 31
0.0
  0
LINE
  5
90
330
17
100
AcDbEntity
  8
FoilLayer
100
AcDbLine
 10
-69.41899458442347
 20
65.64309141844852
 30
0.0
 11
-74.88292842070442
 21
64.81320238035896
 31
0.0
  0
LINE
  5
91
330
17
100
AcDbEntity
  8
FoilLayer
100
AcDbLine
 10
-74.88292842070442
 20
64.81320238035896
 30
0.0
 11
-80.2569911967006
 21
63.929618472879255
 31
0.0
  0
LINE
  5
92
330
17
100
AcDbEntity
  8
FoilLayer
100
AcDbLine
 10
-80.2569911967006
 20
63.929618472879255
 30
0.0
 11
-85.55469824129409
 21
62.99205043528444
 31
0.0
  0
LINE
  5
93
330
17
100
AcDbEntity
  8
FoilLayer
100
AcDbLine
 10
-85.55469824129409
 20
62.99205043528444
 30
0.0
 11
-90.77302417417901
 21
62.00704753197285
 31
0.0
  0
LINE
  5
94
330
17
100
AcDbEntity
  8
FoilLayer
100
AcDbLine
 10
-90.77302417417901
 20
62.00704753197285
 30
0.0
 11
-95.90293327052176
 21
60.9740315562943
 31
0.0
  0
LINE
  5
95
330
17
100
AcDbEntity
  8
FoilLayer
100
AcDbLine
 10
-95.90293327052176
 20
60.9740315562943
 30
0.0
 11
-100.94397426096214
 21
59.89904833886349
 31
0.0
  0
LINE
  5
96
330
17
100
AcDbEntity
  8
FoilLayer
100
AcDbLine
 10
-100.94397426096214
 20
59.89904833886349
 30
0.0
 11
-105.88502707920382
 21
58.789273319135084
 31
0.0
  0
LINE
  5
97
330
17
100
AcDbEntity
  8
FoilLayer
100
AcDbLine
 10
-105.88502707920382
 20
58.789273319135084
 30
0.0
 11
-110.71437185157383
 21
57.63880619169049
 31
0.0
  0
LINE
  5
98
330
17
100
AcDbEntity
  8
FoilLayer
100
AcDbLine
 10
-110.71437185157383
 20
57.63880619169049
 30
0.0
 11
-115.4546647019386
 21
56.434571183943575
 31
0.0
  0
LINE
  5
99
330
17
100
AcDbEntity
  8
FoilLayer
100
AcDbLine
 10
-115.4546647019386
 20
56.434571183943575
 30
0.0
 11
-120.10049274789728
 21
55.18236207261158
 31
0.0
  0
LINE
  5
9A
330
17
100
AcDbEntity
  8
FoilLayer
100
AcDbLine
 10
-120.10049274789728
 20
55.18236207261158
 30
0.0
 11
-124.65521679779664
 21
53.88711430385335
 31
0.0
  0
LINE
  5
9B
330
17
100
AcDbEntity
  8
FoilLayer
100
AcDbLine
 10
-124.65521679779664
 20
53.88711430385335
 30
0.0
 11
-129.09470362224295
 21
52.570404797095385
 31
0.0
  0
LINE
  5
9C
330
17
100
AcDbEntity
  8
FoilLayer
100
AcDbLine
 10
-129.09470362224295
 20
52.570404797095385
 30
0.0
 11
-133.43209677810705
 21
51.21223496167708
 31
0.0
  0
LINE
  5
9D
330
17
100
AcDbEntity
  8
FoilLayer
100
AcDbLine
 10
-133.43209677810705
 20
51.21223496167708
 30
0.0
 11
-137.6560939315682
 21
49.81837581447976
 31
0.0
  0
LINE
  5
9E
330
17
100
AcDbEntity
  8
FoilLayer
100
AcDbLine
 10
-137.6560939315682
 20
49.81837581447976
 30
0.0
 11
-141.77536948178906
 21
48.39001700710152
 31
0.0
  0
LINE
  5
9F
330
17
100
AcDbEntity
  8
FoilLayer
100
AcDbLine
 10
-141.77536948178906
 20
48.39001700710152
 30
0.0
 11
-145.78387039741392
 21
46.92503915710036
 31
0.0
  0
LINE
  5
A0
330
17
100
AcDbEntity
  8
FoilLayer
100
AcDbLine
 10
-145.78387039741392
 20
46.92503915710036
 30
0.0
 11
-149.68992695259993
 21
45.430748153081154
 31
0.0
  0
LINE
  5
A1
330
17
100
AcDbEntity
  8
FoilLayer
100
AcDbLine
 10
-149.68992695259993
 20
45.430748153081154
 30
0.0
 11
-153.4797684705826
 21
43.913920535886206
 31
0.0
  0
LINE
  5
A2
330
17
100
AcDbEntity
  8
FoilLayer
100
AcDbLine
 10
-153.4797684705826
 20
43.913920535886206
 30
0.0
 11
-157.14828740792484
 21
42.37430790317621
 31
0.0
  0
LINE
  5
A3
330
17
100
AcDbEntity
  8
FoilLayer
100
AcDbLine
 10
-157.14828740792484
 20
42.37430790317621
 30
0.0
 11
-160.692837387169
 21
40.8132372768648
 31
0.0
  0
LINE
  5
A4
330
17
100
AcDbEntity
  8
FoilLayer
100
AcDbLine
 10
-160.692837387169
 20
40.8132372768648
 30
0.0
 11
-164.1223961560357
 21
39.22063488913041
 31
0.0
  0
LINE
  5
A5
330
17
100
AcDbEntity
  8
FoilLayer
100
AcDbLine
 10
-164.1223961560357
 20
39.22063488913041
 30
0.0
 11
-167.43402108272585
 21
37.61273081550508
 31
0.0
  0
LINE
  5
A6
330
17
100
AcDbEntity
  8
FoilLayer
100
AcDbLine
 10
-167.43402108272585
 20
37.61273081550508
 30
0.0
 11
-170.63536479655176
 21
35.9797470307001
 31
0.0
  0
LINE
  5
A7
330
17
100
AcDbEntity
  8
FoilLayer
100
AcDbLine
 10
-170.63536479655176
 20
35.9797470307001
 30
0.0
 11
-173.7037269813377
 21
34.34541383426897
 31
0.0
  0
LINE
  5
A8
330
17
100
AcDbEntity
  8
FoilLayer
100
AcDbLine
 10
-173.7037269813377
 20
34.34541383426897
 30
0.0
 11
-176.65078016811248
 21
32.691470180233225
 31
0.0
  0
LINE
  5
A9
330
17
100
AcDbEntity
  8
FoilLayer
100
AcDbLine
 10
-176.65078016811248
 20
32.691470180233225
 30
0.0
 11
-179.4547346091869
 21
31.04531989640424
 31
0.0
  0
LINE
  5
AA
330
17
100
AcDbEntity
  8
FoilLayer
100
AcDbLine
 10
-179.4547346091869
 20
31.04531989640424
 30
0.0
 11
-182.13440399544487
 21
29.375735741578552
 31
0.0
  0
LINE
  5
AB
330
17
100
AcDbEntity
  8
FoilLayer
100
AcDbLine
 10
-182.13440399544487
 20
29.375735741578552
 30
0.0
 11
-184.68554805132763
 21
27.69338658637009
 31
0.0
  0
LINE
  5
AC
330
17
100
AcDbEntity
  8
FoilLayer
100
AcDbLine
 10
-184.68554805132763
 20
27.69338658637009
 30
0.0
 11
-187.12520420407623
 21
25.99867681831317
 31
0.0
  0
LINE
  5
AD
330
17
100
AcDbEntity
  8
FoilLayer
100
AcDbLine
 10
-187.12520420407623
 20
25.99867681831317
 30
0.0
 11
-189.4326478694736
 21
24.31611035940817
 31
0.0
  0
LINE
  5
AE
330
17
100
AcDbEntity
  8
FoilLayer
100
AcDbLine
 10
-189.4326478694736
 20
24.31611035940817
 30
0.0
 11
-191.60168589527672
 21
22.641843924393953
 31
0.0
  0
LINE
  5
AF
330
17
100
AcDbEntity
  8
FoilLayer
100
AcDbLine
 10
-191.60168589527672
 20
22.641843924393953
 30
0.0
 11
-193.6287358403035
 21
20.984451291316436
 31
0.0
  0
LINE
  5
B0
330
17
100
AcDbEntity
  8
FoilLayer
100
AcDbLine
 10
-193.6287358403035
 20
20.984451291316436
 30
0.0
 11
-195.5203188368809
 21
19.322190095302954
 31
0.0
  0
LINE
  5
B1
330
17
100
AcDbEntity
  8
FoilLayer
100
AcDbLine
 10
-195.5203188368809
 20
19.322190095302954
 30
0.0
 11
-197.28514848277845
 21
17.65815725905353
 31
0.0
  0
LINE
  5
B2
330
17
100
AcDbEntity
  8
FoilLayer
100
AcDbLine
 10
-197.28514848277845
 20
17.65815725905353
 30
0.0
 11
-198.91917027742198
 21
16.01446627154461
 31
0.0
  0
LINE
  5
B3
330
17
100
AcDbEntity
  8
FoilLayer
100
AcDbLine
 10
-198.91917027742198
 20
16.01446627154461
 30
0.0
 11
-200.42627210386232
 21
14.381141531326621
 31
0.0
  0
LINE
  5
B4
330
17
100
AcDbEntity
  8
FoilLayer
100
AcDbLine
 10
-200.42627210386232
 20
14.381141531326621
 30
0.0
 11
-201.79730646146854
 21
12.788478650400712
 31
0.0
  0
LINE
  5
B5
330
17
100
AcDbEntity
  8
FoilLayer
100
AcDbLine
 10
-201.79730646146854
 20
12.788478650400712
 30
0.0
 11
-203.03446419704508
 21
11.21490981248379
 31
0.0
  0
LINE
  5
B6
330
17
100
AcDbEntity
  8
FoilLayer
100
AcDbLine
 10
-203.03446419704508
 20
11.21490981248379
 30
0.0
 11
-204.12932332311863
 21
9.69104953016453
 31
0.0
  0
LINE
  5
B7
330
17
100
AcDbEntity
  8
FoilLayer
100
AcDbLine
 10
-204.12932332311863
 20
9.69104953016453
 30
0.0
 11
-205.0816673219993
 21
8.21554330293845
 31
0.0
  0
LINE
  5
B8
330
17
100
AcDbEntity
  8
FoilLayer
100
AcDbLine
 10
-205.0816673219993
 20
8.21554330293845
 30
0.0
 11
-205.903761649572
 21
6.758345819286275
 31
0.0
  0
LINE
  5
B9
330
17
100
AcDbEntity
  8
FoilLayer
100
AcDbLine
 10
-205.903761649572
 20
6.758345819286275
 30
0.0
 11
-206.56160216245743
 21
5.42647998675581
 31
0.0
  0
LINE
  5
BA
330
17
100
AcDbEntity
  8
FoilLayer
100
AcDbLine
 10
-206.56160216245743
 20
5.42647998675581
 30
0.0
 11
-207.12956201372415
 21
3.9617462234486887
 31
0.0
  0
LINE
  5
BB
330
17
100
AcDbEntity
  8
FoilLayer
100
AcDbLine
 10
-207.12956201372415
 20
3.9617462234486887
 30
0.0
 11
-207.50686951404725
 21
2.9257461022845583
 31
0.0
  0
LINE
  5
BC
330
17
100
AcDbEntity
  8
FoilLayer
100
AcDbLine
 10
-207.50686951404725
 20
2.9257461022845583
 30
0.0
 11
-207.77955010544434
 21
1.5614121152465588
 31
0.0
  0
LINE
  5
BD
330
17
100
AcDbEntity
  8
FoilLayer
100
AcDbLine
 10
-207.77955010544434
 20
1.5614121152465588
 30
0.0
 11
-207.92045454545433
 21
0.17993721629830695
 31
0.0
  0
LINE
  5
BE
330
17
100
AcDbEntity
  8
FoilLayer
100
AcDbLine
 10
-207.92045454545433
 20
0.17993721629830695
 30
0.0
 11
-207.92810411878227
 21
-0.09064104955122462
 31
0.0
  0
LINE
  5
BF
330
17
100
AcDbEntity
  8
FoilLayer
100
AcDbLine
 10
-207.92810411878227
 20
-0.09064104955122462
 30
0.0
 11
-207.8261561490907
 21
-1.290077645418314
 31
0.0
  0
LINE
  5
C0
330
17
100
AcDbEntity
  8
FoilLayer
100
AcDbLine
 10
-207.8261561490907
 20
-1.290077645418314
 30
0.0
 11
-207.57182035448406
 21
-2.1444736788900873
 31
0.0
  0
LINE
  5
C1
330
17
100
AcDbEntity
  8
FoilLayer
100
AcDbLine
 10
-207.57182035448406
 20
-2.1444736788900873
 30
0.0
 11
-207.18392874644016
 21
-2.974273453596475
 31
0.0
  0
LINE
  5
C2
330
17
100
AcDbEntity
  8
FoilLayer
100
AcDbLine
 10
-207.18392874644016
 20
-2.974273453596475
 30
0.0
 11
-206.60425843839548
 21
-3.827241268582821
 31
0.0
  0
LINE
  5
C3
330
17
100
AcDbEntity
  8
FoilLayer
100
AcDbLine
 10
-206.60425843839548
 20
-3.827241268582821
 30
0.0
 11
-205.8822475898232
 21
-4.657635838307066
 31
0.0
  0
LINE
  5
C4
330
17
100
AcDbEntity
  8
FoilLayer
100
AcDbLine
 10
-205.8822475898232
 20
-4.657635838307066
 30
0.0
 11
-204.98229656405258
 21
-5.470202861754219
 31
0.0
  0
LINE
  5
C5
330
17
100
AcDbEntity
  8
FoilLayer
100
AcDbLine
 10
-204.98229656405258
 20
-5.470202861754219
 30
0.0
 11
-203.91960268475285
 21
-6.244356659205025
 31
0.0
  0
LINE
  5
C6
330
17
100
AcDbEntity
  8
FoilLayer
100
AcDbLine
 10
-203.91960268475285
 20
-6.244356659205025
 30
0.0
 11
-202.65692290084849
 21
-6.980565689461926
 31
0.0
  0
LINE
  5
C7
330
17
100
AcDbEntity
  8
FoilLayer
100
AcDbLine
 10
-202.65692290084849
 20
-6.980565689461926
 30
0.0
 11
-201.14364027190817
 21
-7.6904529224505485
 31
0.0
  0
LINE
  5
C8
330
17
100
AcDbEntity
  8
FoilLayer
100
AcDbLine
 10
-201.14364027190817
 20
-7.6904529224505485
 30
0.0
 11
-199.40044968575353
 21
-8.38625940138844
 31
0.0
  0
LINE
  5
C9
330
17
100
AcDbEntity
  8
FoilLayer
100
AcDbLine
 10
-199.40044968575353
 20
-8.38625940138844
 30
0.0
 11
-197.45314310774208
 21
-9.067492686061069
 31
0.0
  0
LINE
  5
CA
330
17
100
AcDbEntity
  8
FoilLayer
100
AcDbLine
 10
-197.45314310774208
 20
-9.067492686061069
 30
0.0
 11
-195.3700263749214
 21
-9.721463829223008
 31
0.0
  0
LINE
  5
CB
330
17
100
AcDbEntity
  8
FoilLayer
100
AcDbLine
 10
-195.3700263749214
 20
-9.721463829223008
 30
0.0
 11
-193.10836265287713
 21
-10.326222630993358
 31
0.0
  0
LINE
  5
CC
330
17
100
AcDbEntity
  8
FoilLayer
100
AcDbLine
 10
-193.10836265287713
 20
-10.326222630993358
 30
0.0
 11
-190.64920418251137
 21
-10.8786982989525
 31
0.0
  0
LINE
  5
CD
330
17
100
AcDbEntity
  8
FoilLayer
100
AcDbLine
 10
-190.64920418251137
 20
-10.8786982989525
 30
0.0
 11
-187.98992135873468
 21
-11.39915264624177
 31
0.0
  0
LINE
  5
CE
330
17
100
AcDbEntity
  8
FoilLayer
100
AcDbLine
 10
-187.98992135873468
 20
-11.39915264624177
 30
0.0
 11
-185.14107170644078
 21
-11.89700543583468
 31
0.0
  0
LINE
  5
CF
330
17
100
AcDbEntity
  8
FoilLayer
100
AcDbLine
 10
-185.14107170644078
 20
-11.89700543583468
 30
0.0
 11
-182.14810579625868
 21
-12.363959290766152
 31
0.0
  0
LINE
  5
D0
330
17
100
AcDbEntity
  8
FoilLayer
100
AcDbLine
 10
-182.14810579625868
 20
-12.363959290766152
 30
0.0
 11
-178.98935741828527
 21
-12.778525598646807
 31
0.0
  0
LINE
  5
D1
330
17
100
AcDbEntity
  8
FoilLayer
100
AcDbLine
 10
-178.98935741828527
 20
-12.778525598646807
 30
0.0
 11
-175.65297353948102
 21
-13.140961031854328
 31
0.0
  0
LINE
  5
D2
330
17
100
AcDbEntity
  8
FoilLayer
100
AcDbLine
 10
-175.65297353948102
 20
-13.140961031854328
 30
0.0
 11
-172.1173341307649
 21
-13.46303761604902
 31
0.0
  0
LINE
  5
D3
330
17
100
AcDbEntity
  8
FoilLayer
100
AcDbLine
 10
-172.1173341307649
 20
-13.46303761604902
 30
0.0
 11
-168.4052716795263
 21
-13.76152252178434
 31
0.0
  0
LINE
  5
D4
330
17
100
AcDbEntity
  8
FoilLayer
100
AcDbLine
 10
-168.4052716795263
 20
-13.76152252178434
 30
0.0
 11
-164.54437029320763
 21
-14.035765631692286
 31
0.0
  0
LINE
  5
D5
330
17
100
AcDbEntity
  8
FoilLayer
100
AcDbLine
 10
-164.54437029320763
 20
-14.035765631692286
 30
0.0
 11
-160.54663016411158
 21
-14.268048298090848
 31
0.0
  0
LINE
  5
D6
330
17
100
AcDbEntity
  8
FoilLayer
100
AcDbLine
 10
-160.54663016411158
 20
-14.268048298090848
 30
0.0
 11
-156.38245212635235
 21
-14.441183835665734
 31
0.0
  0
LINE
  5
D7
330
17
100
AcDbEntity
  8
FoilLayer
100
AcDbLine
 10
-156.38245212635235
 20
-14.441183835665734
 30
0.0
 11
-152.0522565399354
 21
-14.572666573027298
 31
0.0
  0
LINE
  5
D8
330
17
100
AcDbEntity
  8
FoilLayer
100
AcDbLine
 10
-152.0522565399354
 20
-14.572666573027298
 30
0.0
 11
-147.5354061175872
 21
-14.668421388640478
 31
0.0
  0
LINE
  5
D9
330
17
100
AcDbEntity
  8
FoilLayer
100
AcDbLine
 10
-147.5354061175872
 20
-14.668421388640478
 30
0.0
 11
-142.88138841690582
 21
-14.740197792988102
 31
0.0
  0
LINE
  5
DA
330
17
100
AcDbEntity
  8
FoilLayer
100
AcDbLine
 10
-142.88138841690582
 20
-14.740197792988102
 30
0.0
 11
-138.08478585786133
 21
-14.770161750008853
 31
0.0
  0
LINE
  5
DB
330
17
100
AcDbEntity
  8
FoilLayer
100
AcDbLine
 10
-138.08478585786133
 20
-14.770161750008853
 30
0.0
 11
-133.14903980793576
 21
-14.752321114717617
 31
0.0
  0
LINE
  5
DC
330
17
100
AcDbEntity
  8
FoilLayer
100
AcDbLine
 10
-133.14903980793576
 20
-14.752321114717617
 30
0.0
 11
-128.04339340766046
 21
-14.686508354655814
 31
0.0
  0
LINE
  5
DD
330
17
100
AcDbEntity
  8
FoilLayer
100
AcDbLine
 10
-128.04339340766046
 20
-14.686508354655814
 30
0.0
 11
-122.77085713130214
 21
-14.590651964976697
 31
0.0
  0
LINE
  5
DE
330
17
100
AcDbEntity
  8
FoilLayer
100
AcDbLine
 10
-122.77085713130214
 20
-14.590651964976697
 30
0.0
 11
-117.35264584693542
 21
-14.476923958212254
 31
0.0
  0
LINE
  5
DF
330
17
100
AcDbEntity
  8
FoilLayer
100
AcDbLine
 10
-117.35264584693542
 20
-14.476923958212254
 30
0.0
 11
-111.82025052697851
 21
-14.33344218195416
 31
0.0
  0
LINE
  5
E0
330
17
100
AcDbEntity
  8
FoilLayer
100
AcDbLine
 10
-111.82025052697851
 20
-14.33344218195416
 30
0.0
 11
-106.15097957648662
 21
-14.141901238619981
 31
0.0
  0
LINE
  5
E1
330
17
100
AcDbEntity
  8
FoilLayer
100
AcDbLine
 10
-106.15097957648662
 20
-14.141901238619981
 30
0.0
 11
-100.34307498082438
 21
-13.91440047077022
 31
0.0
  0
LINE
  5
E2
330
17
100
AcDbEntity
  8
FoilLayer
100
AcDbLine
 10
-100.34307498082438
 20
-13.91440047077022
 30
0.0
 11
-94.3751238390723
 21
-13.650491073827876
 31
0.0
  0
LINE
  5
E3
330
17
100
AcDbEntity
  8
FoilLayer
100
AcDbLine
 10
-94.3751238390723
 20
-13.650491073827876
 30
0.0
 11
-88.27542087023514
 21
-13.380867374316091
 31
0.0
  0
LINE
  5
E4
330
17
100
AcDbEntity
  8
FoilLayer
100
AcDbLine
 10
-88.27542087023514
 20
-13.380867374316091
 30
0.0
 11
-82.06943261174168
 21
-13.087356337749686
 31
0.0
  0
LINE
  5
E5
330
17
100
AcDbEntity
  8
FoilLayer
100
AcDbLine
 10
-82.06943261174168
 20
-13.087356337749686
 30
0.0
 11
-75.75861193822078
 21
-12.76406179131899
 31
0.0
  0
LINE
  5
E6
330
17
100
AcDbEntity
  8
FoilLayer
100
AcDbLine
 10
-75.75861193822078
 20
-12.76406179131899
 30
0.0
 11
-69.31777576077951
 21
-12.398593796239355
 31
0.0
  0
LINE
  5
E7
330
17
100
AcDbEntity
  8
FoilLayer
100
AcDbLine
 10
-69.31777576077951
 20
-12.398593796239355
 30
0.0
 11
-62.741817215654464
 21
-12.002597567577022
 31
0.0
  0
LINE
  5
E8
330
17
100
AcDbEntity
  8
FoilLayer
100
AcDbLine
 10
-62.741817215654464
 20
-12.002597567577022
 30
0.0
 11
-60.095240659266864
 21
-11.846219722705419
 31
0.0
  0
LINE
  5
E9
330
17
100
AcDbEntity
  8
FoilLayer
100
AcDbLine
 10
-60.095240659266864
 20
-11.846219722705419
 30
0.0
 11
-60.00381551197137
 21
-13.393521064539643
 31
0.0
  0
LINE
  5
EA
330
17
100
AcDbEntity
  8
FoilLayer
100
AcDbLine
 10
-60.00381551197137
 20
-13.393521064539643
 30
0.0
 11
-55.95117009221343
 21
-13.154063270684077
 31
0.0
  0
LINE
  5
EB
330
17
100
AcDbEntity
  8
FoilLayer
100
AcDbLine
 10
-55.95117009221343
 20
-13.154063270684077
 30
0.0
 11
-49.162748081935206
 21
-12.746279835953924
 31
0.0
  0
LINE
  5
EC
330
17
100
AcDbEntity
  8
FoilLayer
100
AcDbLine
 10
-49.162748081935206
 20
-12.746279835953924
 30
0.0
 11
-42.28542753710673
 21
-12.314579383912287
 31
0.0
  0
LINE
  5
ED
330
17
100
AcDbEntity
  8
FoilLayer
100
AcDbLine
 10
-42.28542753710673
 20
-12.314579383912287
 30
0.0
 11
-35.304157816283265
 21
-11.84076478325213
 31
0.0
  0
LINE
  5
EE
330
17
100
AcDbEntity
  8
FoilLayer
100
AcDbLine
 10
-35.304157816283265
 20
-11.84076478325213
 30
0.0
 11
-28.21419728283621
 21
-11.354904754601916
 31
0.0
  0
LINE
  5
EF
330
17
100
AcDbEntity
  8
FoilLayer
100
AcDbLine
 10
-28.21419728283621
 20
-11.354904754601916
 30
0.0
 11
-21.02201381458616
 21
-10.869028009543332
 31
0.0
  0
LINE
  5
F0
330
17
100
AcDbEntity
  8
FoilLayer
100
AcDbLine
 10
-21.02201381458616
 20
-10.869028009543332
 30
0.0
 11
-13.75411208826651
 21
-10.389301251310481
 31
0.0
  0
LINE
  5
F1
330
17
100
AcDbEntity
  8
FoilLayer
100
AcDbLine
 10
-13.75411208826651
 20
-10.389301251310481
 30
0.0
 11
-6.419429221867574
 21
-9.879532438684015
 31
0.0
  0
LINE
  5
F2
330
17
100
AcDbEntity
  8
FoilLayer
100
AcDbLine
 10
-6.419429221867574
 20
-9.879532438684015
 30
0.0
 11
0.9939829329611598
 21
-9.351716686561781
 31
0.0
  0
LINE
  5
F3
330
17
100
AcDbEntity
  8
FoilLayer
100
AcDbLine
 10
0.9939829329611598
 20
-9.351716686561781
 30
0.0
 11
8.49166932448739
 21
-8.817881517845903
 31
0.0
  0
LINE
  5
F4
330
17
100
AcDbEntity
  8
FoilLayer
100
AcDbLine
 10
8.49166932448739
 20
-8.817881517845903
 30
0.0
 11
16.061978377648416
 21
-8.284001778901283
 31
0.0
  0
LINE
  5
F5
330
17
100
AcDbEntity
  8
FoilLayer
100
AcDbLine
 10
16.061978377648416
 20
-8.284001778901283
 30
0.0
 11
23.690760597844303
 21
-7.762222208513835
 31
0.0
  0
LINE
  5
F6
330
17
100
AcDbEntity
  8
FoilLayer
100
AcDbLine
 10
23.690760597844303
 20
-7.762222208513835
 30
0.0
 11
31.355262367714374
 21
-7.228466584833579
 31
0.0
  0
LINE
  5
F7
330
17
100
AcDbEntity
  8
FoilLayer
100
AcDbLine
 10
31.355262367714374
 20
-7.228466584833579
 30
0.0
 11
39.074815089583154
 21
-6.676641594070558
 31
0.0
  0
LINE
  5
F8
330
17
100
AcDbEntity
  8
FoilLayer
100
AcDbLine
 10
39.074815089583154
 20
-6.676641594070558
 30
0.0
 11
46.85497961443605
 21
-6.124772654295834
 31
0.0
  0
LINE
  5
F9
330
17
100
AcDbEntity
  8
FoilLayer
100
AcDbLine
 10
46.85497961443605
 20
-6.124772654295834
 30
0.0
 11
54.683025494294725
 21
-5.584908096673172
 31
0.0
  0
LINE
  5
FA
330
17
100
AcDbEntity
  8
FoilLayer
100
AcDbLine
 10
54.683025494294725
 20
-5.584908096673172
 30
0.0
 11
62.53401408080276
 21
-5.05711062737511
 31
0.0
  0
LINE
  5
FB
330
17
100
AcDbEntity
  8
FoilLayer
100
AcDbLine
 10
62.53401408080276
 20
-5.05711062737511
 30
0.0
 11
70.40299766313228
 21
-4.523315329144021
 31
0.0
  0
LINE
  5
FC
330
17
100
AcDbEntity
  8
FoilLayer
100
AcDbLine
 10
70.40299766313228
 20
-4.523315329144021
 30
0.0
 11
78.29040758898867
 21
-3.9834926259203343
 31
0.0
  0
LINE
  5
FD
330
17
100
AcDbEntity
  8
FoilLayer
100
AcDbLine
 10
78.29040758898867
 20
-3.9834926259203343
 30
0.0
 11
86.22072189256238
 21
-3.4436086930466816
 31
0.0
  0
LINE
  5
FE
330
17
100
AcDbEntity
  8
FoilLayer
100
AcDbLine
 10
86.22072189256238
 20
-3.4436086930466816
 30
0.0
 11
94.16927792593498
 21
-2.9217054791973007
 31
0.0
  0
LINE
  5
FF
330
17
100
AcDbEntity
  8
FoilLayer
100
AcDbLine
 10
94.16927792593498
 20
-2.9217054791973007
 30
0.0
 11
102.11046464496337
 21
-2.4238818424785284
 31
0.0
  0
LINE
  5
100
330
17
100
AcDbEntity
  8
FoilLayer
100
AcDbLine
 10
102.11046464496337
 20
-2.4238818424785284
 30
0.0
 11
110.03899952475876
 21
-1.9260999407114143
 31
0.0
  0
LINE
  5
101
330
17
100
AcDbEntity
  8
FoilLayer
100
AcDbLine
 10
110.03899952475876
 20
-1.9260999407114143
 30
0.0
 11
117.96293340084418
 21
-1.4162334312080098
 31
0.0
  0
LINE
  5
102
330
17
100
AcDbEntity
  8
FoilLayer
100
AcDbLine
 10
117.96293340084418
 20
-1.4162334312080098
 30
0.0
 11
125.89348014640063
 21
-0.9183265995664127
 31
0.0
  0
LINE
  5
103
330
17
100
AcDbEntity
  8
FoilLayer
100
AcDbLine
 10
125.89348014640063
 20
-0.9183265995664127
 30
0.0
 11
133.81129662521874
 21
-0.4444576544157353
 31
0.0
  0
LINE
  5
104
330
17
100
AcDbEntity
  8
FoilLayer
100
AcDbLine
 10
133.81129662521874
 20
-0.4444576544157353
 30
0.0
 11
141.69872669122242
 21
0.017391825729534516
 31
0.0
  0
LINE
  5
105
330
17
100
AcDbEntity
  8
FoilLayer
100
AcDbLine
 10
141.69872669122242
 20
0.017391825729534516
 30
0.0
 11
149.53756791485006
 21
0.47320794753533785
 31
0.0
  0
LINE
  5
106
330
17
100
AcDbEntity
  8
FoilLayer
100
AcDbLine
 10
149.53756791485006
 20
0.47320794753533785
 30
0.0
 11
157.3534488499991
 21
0.9350823100326335
 31
0.0
  0
LINE
  5
107
330
17
100
AcDbEntity
  8
FoilLayer
100
AcDbLine
 10
157.3534488499991
 20
0.9350823100326335
 30
0.0
 11
165.14599583510085
 21
1.3849966296110638
 31
0.0
  0
LINE
  5
108
330
17
100
AcDbEntity
  8
FoilLayer
100
AcDbLine
 10
165.14599583510085
 20
1.3849966296110638
 30
0.0
 11
172.90212721709918
 21
1.8108932392907462
 31
0.0
  0
LINE
  5
109
330
17
100
AcDbEntity
  8
FoilLayer
100
AcDbLine
 10
172.90212721709918
 20
1.8108932392907462
 30
0.0
 11
180.59125740658902
 21
2.2187409794941244
 31
0.0
  0
LINE
  5
10A
330
17
100
AcDbEntity
  8
FoilLayer
100
AcDbLine
 10
180.59125740658902
 20
2.2187409794941244
 30
0.0
 11
188.22008932513666
 21
2.626571330867821
 31
0.0
  0
LINE
  5
10B
330
17
100
AcDbEntity
  8
FoilLayer
100
AcDbLine
 10
188.22008932513666
 20
2.626571330867821
 30
0.0
 11
195.80271529931952
 21
3.040494521282768
 31
0.0
  0
LINE
  5
10C
330
17
100
AcDbEntity
  8
FoilLayer
100
AcDbLine
 10
195.80271529931952
 20
3.040494521282768
 30
0.0
 11
203.33769958658354
 21
3.430439055191125
 31
0.0
  0
LINE
  5
10D
330
17
100
AcDbEntity
  8
FoilLayer
100
AcDbLine
 10
203.33769958658354
 20
3.430439055191125
 30
0.0
 11
210.8119386743632
 21
3.790353460795304
 31
0.0
  0
LINE
  5
10E
330
17
100
AcDbEntity
  8
FoilLayer
100
AcDbLine
 10
210.8119386743632
 20
3.790353460795304
 30
0.0
 11
218.20112182398952
 21
4.13222307231283
 31
0.0
  0
LINE
  5
10F
330
17
100
AcDbEntity
  8
FoilLayer
100
AcDbLine
 10
218.20112182398952
 20
4.13222307231283
 30
0.0
 11
225.50712476664575
 21
4.474129274358816
 31
0.0
  0
LINE
  5
110
330
17
100
AcDbEntity
  8
FoilLayer
100
AcDbLine
 10
225.50712476664575
 20
4.474129274358816
 30
0.0
 11
232.7482709064443
 21
4.804087250186315
 31
0.0
  0
LINE
  5
111
330
17
100
AcDbEntity
  8
FoilLayer
100
AcDbLine
 10
232.7482709064443
 20
4.804087250186315
 30
0.0
 11
239.91819458663088
 21
5.1040775094791435
 31
0.0
  0
LINE
  5
112
330
17
100
AcDbEntity
  8
FoilLayer
100
AcDbLine
 10
239.91819458663088
 20
5.1040775094791435
 30
0.0
 11
246.9974170114882
 21
5.3620459875534925
 31
0.0
  0
LINE
  5
113
330
17
100
AcDbEntity
  8
FoilLayer
100
AcDbLine
 10
246.9974170114882
 20
5.3620459875534925
 30
0.0
 11
253.97352477464284
 21
5.589983833855998
 31
0.0
  0
LINE
  5
114
330
17
100
AcDbEntity
  8
FoilLayer
100
AcDbLine
 10
253.97352477464284
 20
5.589983833855998
 30
0.0
 11
260.8369330436577
 21
5.805961598339692
 31
0.0
  0
LINE
  5
115
330
17
100
AcDbEntity
  8
FoilLayer
100
AcDbLine
 10
260.8369330436577
 20
5.805961598339692
 30
0.0
 11
267.6116077598559
 21
5.9919698634366805
 31
0.0
  0
LINE
  5
116
330
17
100
AcDbEntity
  8
FoilLayer
100
AcDbLine
 10
267.6116077598559
 20
5.9919698634366805
 30
0.0
 11
274.27839884695413
 21
6.129975445549939
 31
0.0
  0
LINE
  5
117
330
17
100
AcDbEntity
  8
FoilLayer
100
AcDbLine
 10
274.27839884695413
 20
6.129975445549939
 30
0.0
 11
280.81208842119605
 21
6.219966862642835
 31
0.0
  0
LINE
  5
118
330
17
100
AcDbEntity
  8
FoilLayer
100
AcDbLine
 10
280.81208842119605
 20
6.219966862642835
 30
0.0
 11
287.1950678646757
 21
6.279955654268545
 31
0.0
  0
LINE
  5
119
330
17
100
AcDbEntity
  8
FoilLayer
100
AcDbLine
 10
287.1950678646757
 20
6.279955654268545
 30
0.0
 11
293.4474689657659
 21
6.321950942272101
 31
0.0
  0
LINE
  5
11A
330
17
100
AcDbEntity
  8
FoilLayer
100
AcDbLine
 10
293.4474689657659
 20
6.321950942272101
 30
0.0
 11
299.5689412468493
 21
6.327937930075255
 31
0.0
  0
LINE
  5
11B
330
17
100
AcDbEntity
  8
FoilLayer
100
AcDbLine
 10
299.5689412468493
 20
6.327937930075255
 30
0.0
 11
305.5397422612704
 21
6.285923056208709
 31
0.0
  0
LINE
  5
11C
330
17
100
AcDbEntity
  8
FoilLayer
100
AcDbLine
 10
305.5397422612704
 20
6.285923056208709
 30
0.0
 11
311.34183245289995
 21
6.207916876844506
 31
0.0
  0
LINE
  5
11D
330
17
100
AcDbEntity
  8
FoilLayer
100
AcDbLine
 10
311.34183245289995
 20
6.207916876844506
 30
0.0
 11
316.96409034875586
 21
6.105906724333439
 31
0.0
  0
LINE
  5
11E
330
17
100
AcDbEntity
  8
FoilLayer
100
AcDbLine
 10
316.96409034875586
 20
6.105906724333439
 30
0.0
 11
322.42506360483475
 21
5.979875054520166
 31
0.0
  0
LINE
  5
11F
330
17
100
AcDbEntity
  8
FoilLayer
100
AcDbLine
 10
322.42506360483475
 20
5.979875054520166
 30
0.0
 11
327.71886753659334
 21
5.823807053373965
 31
0.0
  0
LINE
  5
120
330
17
100
AcDbEntity
  8
FoilLayer
100
AcDbLine
 10
327.71886753659334
 20
5.823807053373965
 30
0.0
 11
332.82651098640673
 21
5.631732193881508
 31
0.0
  0
LINE
  5
121
330
17
100
AcDbEntity
  8
FoilLayer
100
AcDbLine
 10
332.82651098640673
 20
5.631732193881508
 30
0.0
 11
337.7342233128871
 21
5.4097429449504
 31
0.0
  0
LINE
  5
122
330
17
100
AcDbEntity
  8
FoilLayer
100
AcDbLine
 10
337.7342233128871
 20
5.4097429449504
 30
0.0
 11
342.44585002626064
 21
5.181652275702731
 31
0.0
  0
LINE
  5
123
330
17
100
AcDbEntity
  8
FoilLayer
100
AcDbLine
 10
342.44585002626064
 20
5.181652275702731
 30
0.0
 11
346.97189641786764
 21
4.929523615402779
 31
0.0
  0
LINE
  5
124
330
17
100
AcDbEntity
  8
FoilLayer
100
AcDbLine
 10
346.97189641786764
 20
4.929523615402779
 30
0.0
 11
351.30184773776347
 21
4.653238163829768
 31
0.0
  0
LINE
  5
125
330
17
100
AcDbEntity
  8
FoilLayer
100
AcDbLine
 10
351.30184773776347
 20
4.653238163829768
 30
0.0
 11
355.40704355881695
 21
4.341139513747371
 31
0.0
  0
LINE
  5
126
330
17
100
AcDbEntity
  8
FoilLayer
100
AcDbLine
 10
355.40704355881695
 20
4.341139513747371
 30
0.0
 11
359.28996523485097
 21
4.0230581984764795
 31
0.0
  0
LINE
  5
127
330
17
100
AcDbEntity
  8
FoilLayer
100
AcDbLine
 10
359.28996523485097
 20
4.0230581984764795
 30
0.0
 11
362.945050157406
 21
3.704957521150549
 31
0.0
  0
LINE
  5
128
330
17
100
AcDbEntity
  8
FoilLayer
100
AcDbLine
 10
362.945050157406
 20
3.704957521150549
 30
0.0
 11
366.3915818539352
 21
3.3867080641481353
 31
0.0
  0
LINE
  5
129
330
17
100
AcDbEntity
  8
FoilLayer
100
AcDbLine
 10
366.3915818539352
 20
3.3867080641481353
 30
0.0
 11
369.61075107833466
 21
3.0623679856499506
 31
0.0
  0
LINE
  5
12A
330
17
100
AcDbEntity
  8
FoilLayer
100
AcDbLine
 10
369.61075107833466
 20
3.0623679856499506
 30
0.0
 11
372.6008889877674
 21
2.7321204189600348
 31
0.0
  0
LINE
  5
12B
330
17
100
AcDbEntity
  8
FoilLayer
100
AcDbLine
 10
372.6008889877674
 20
2.7321204189600348
 30
0.0
 11
375.35795405931657
 21
2.407741420681608
 31
0.0
  0
LINE
  5
12C
330
17
100
AcDbEntity
  8
FoilLayer
100
AcDbLine
 10
375.35795405931657
 20
2.407741420681608
 30
0.0
 11
377.867331827186
 21
2.089560949614495
 31
0.0
  0
LINE
  5
12D
330
17
100
AcDbEntity
  8
FoilLayer
100
AcDbLine
 10
377.867331827186
 20
2.089560949614495
 30
0.0
 11
380.14236508419214
 21
1.7894208302966534
 31
0.0
  0
LINE
  5
12E
330
17
100
AcDbEntity
  8
FoilLayer
100
AcDbLine
 10
380.14236508419214
 20
1.7894208302966534
 30
0.0
 11
382.1713660490979
 21
1.513281269398293
 31
0.0
  0
LINE
  5
12F
330
17
100
AcDbEntity
  8
FoilLayer
100
AcDbLine
 10
382.1713660490979
 20
1.513281269398293
 30
0.0
 11
383.9719862923469
 21
1.2611926527253117
 31
0.0
  0
LINE
  5
130
330
17
100
AcDbEntity
  8
FoilLayer
100
AcDbLine
 10
383.9719862923469
 20
1.2611926527253117
 30
0.0
 11
385.5262905219782
 21
1.0391483709101799
 31
0.0
  0
LINE
  5
131
330
17
100
AcDbEntity
  8
FoilLayer
100
AcDbLine
 10
385.5262905219782
 20
1.0391483709101799
 30
0.0
 11
386.85373459422175
 21
0.8469351052529248
 31
0.0
  0
LINE
  5
132
330
17
100
AcDbEntity
  8
FoilLayer
100
AcDbLine
 10
386.85373459422175
 20
0.8469351052529248
 30
0.0
 11
387.94138908073563
 21
0.6846835523666267
 31
0.0
  0
LINE
  5
133
330
17
100
AcDbEntity
  8
FoilLayer
100
AcDbLine
 10
387.94138908073563
 20
0.6846835523666267
 30
0.0
 11
388.800399574819
 21
0.5525261166810297
 31
0.0
  0
LINE
  5
134
330
17
100
AcDbEntity
  8
FoilLayer
100
AcDbLine
 10
388.800399574819
 20
0.5525261166810297
 30
0.0
 11
389.4060902245769
 21
0.4574730865898447
 31
0.0
  0
LINE
  5
135
330
17
100
AcDbEntity
  8
FoilLayer
100
AcDbLine
 10
389.4060902245769
 20
0.4574730865898447
 30
0.0
 11
389.8008172156463
 21
0.4007561091112218
 31
0.0
  0
LINE
  5
136
330
17
100
AcDbEntity
  8
FoilLayer
100
AcDbLine
 10
389.8008172156463
 20
0.4007561091112218
 30
0.0
 11
389.93277117426504
 21
0.3767644802714475
 31
0.0
  0
LINE
  5
137
330
17
100
AcDbEntity
  8
FoilLayer
100
AcDbLine
 10
389.93277117426504
 20
0.3767644802714475
 30
0.0
 11
389.70361503647956
 21
-0.3947467244322015
 31
0.0
  0
LINE
  5
138
330
17
100
AcDbEntity
  8
StringerLayer
100
AcDbLine
 10
206.5758318971421
 20
45.01917597651047
 30
0.0
 11
210.46544886206487
 21
44.0859665326099
 31
0.0
  0
LINE
  5
139
330
17
100
AcDbEntity
  8
StringerLayer
100
AcDbLine
 10
210.46544886206487
 20
44.0859665326099
 30
0.0
 11
211.39865830596545
 21
47.97558349753264
 31
0.0
  0
LINE
  5
13A
330
17
100
AcDbEntity
  8
StringerLayer
100
AcDbLine
 10
211.39865830596545
 20
47.97558349753264
 30
0.0
 11
207.5090413410427
 21
48.908792941433205
 31
0.0
  0
LINE
  5
13B
330
17
100
AcDbEntity
  8
StringerLayer
100
AcDbLine
 10
207.5090413410427
 20
48.908792941433205
 30
0.0
 11
206.5758318971421
 21
45.01917597651047
 31
0.0
  0
LINE
  5
13C
330
17
100
AcDbEntity
  8
StringerLayer
100
AcDbLine
 10
-61.17625939866915
 20
62.75177048076953
 30
0.0
 11
-57.21054269512636
 21
63.27435160101948
 31
0.0
  0
LINE
  5
13D
330
17
100
AcDbEntity
  8
StringerLayer
100
AcDbLine
 10
-57.21054269512636
 20
63.27435160101948
 30
0.0
 11
-57.7331238153763
 21
67.24006830456227
 31
0.0
  0
LINE
  5
13E
330
17
100
AcDbEntity
  8
StringerLayer
100
AcDbLine
 10
-57.7331238153763
 20
67.24006830456227
 30
0.0
 11
-61.6988405189191
 21
66.71748718431232
 31
0.0
  0
LINE
  5
13F
330
17
100
AcDbEntity
  8
StringerLayer
100
AcDbLine
 10
-61.6988405189191
 20
66.71748718431232
 30
0.0
 11
-61.17625939866915
 21
62.75177048076953
 31
0.0
  0
LINE
  5
140
330
17
100
AcDbEntity
  8
StringerLayer
100
AcDbLine
 10
-149.66697784451836
 20
41.15647500686224
 30
0.0
 11
-145.9311058617969
 21
42.58590165021161
 31
0.0
  0
LINE
  5
141
330
17
100
AcDbEntity
  8
StringerLayer
100
AcDbLine
 10
-145.9311058617969
 20
42.58590165021161
 30
0.0
 11
-147.36053250514627
 21
46.32177363293304
 31
0.0
  0
LINE
  5
142
330
17
100
AcDbEntity
  8
StringerLayer
100
AcDbLine
 10
-147.36053250514627
 20
46.32177363293304
 30
0.0
 11
-151.09640448786772
 21
44.892346989583665
 31
0.0
  0
LINE
  5
143
330
17
100
AcDbEntity
  8
StringerLayer
100
AcDbLine
 10
-151.09640448786772
 20
44.892346989583665
 30
0.0
 11
-149.66697784451836
 21
41.15647500686224
 31
0.0
  0
LINE
  5
144
330
17
100
AcDbEntity
  8
StringerLayer
100
AcDbLine
 10
-199.03302453840482
 20
8.211727916148773
 30
0.0
 11
-197.79839613195745
 21
9.785161326876183
 31
0.0
  0
LINE
  5
145
330
17
100
AcDbEntity
  8
StringerLayer
100
AcDbLine
 10
-197.79839613195745
 20
9.785161326876183
 30
0.0
 11
-201.73197965877597
 21
12.871732342994541
 31
0.0
  0
LINE
  5
146
330
17
100
AcDbEntity
  8
StringerLayer
100
AcDbLine
 10
-201.73197965877597
 20
12.871732342994541
 30
0.0
 11
-202.96660806522334
 21
11.29829893226713
 31
0.0
  0
LINE
  5
147
330
17
100
AcDbEntity
  8
StringerLayer
100
AcDbLine
 10
-202.96660806522334
 20
11.29829893226713
 30
0.0
 11
-199.03302453840482
 21
8.211727916148773
 31
0.0
  0
LINE
  5
148
330
17
100
AcDbEntity
  8
StringerLayer
100
AcDbLine
 10
-201.52844729096498
 20
-1.8359586101957404
 30
0.0
 11
-203.02466425006
 21
-0.5088057134591142
 31
0.0
  0
LINE
  5
149
330
17
100
AcDbEntity
  8
StringerLayer
100
AcDbLine
 10
-203.02466425006
 20
-0.5088057134591142
 30
0.0
 11
-206.34254649190157
 21
-4.249348111196692
 31
0.0
  0
LINE
  5
14A
330
17
100
AcDbEntity
  8
StringerLayer
100
AcDbLine
 10
-206.34254649190157
 20
-4.249348111196692
 30
0.0
 11
-204.84632953280655
 21
-5.576501007933318
 31
0.0
  0
LINE
  5
14B
330
17
100
AcDbEntity
  8
StringerLayer
100
AcDbLine
 10
-204.84632953280655
 20
-5.576501007933318
 30
0.0
 11
-201.52844729096498
 21
-1.8359586101957404
 31
0.0
  0
LINE
  5
14C
330
17
100
AcDbEntity
  8
StringerLayer
100
AcDbLine
 10
-88.23282743635396
 20
-9.37506888806681
 30
0.0
 11
-92.22892511018374
 21
-9.551713676306711
 31
0.0
  0
LINE
  5
14D
330
17
100
AcDbEntity
  8
StringerLayer
100
AcDbLine
 10
-92.22892511018374
 20
-9.551713676306711
 30
0.0
 11
-92.05228032194384
 21
-13.54781135013648
 31
0.0
  0
LINE
  5
14E
330
17
100
AcDbEntity
  8
StringerLayer
100
AcDbLine
 10
-92.05228032194384
 20
-13.54781135013648
 30
0.0
 11
-88.05618264811406
 21
-13.371166561896578
 31
0.0
  0
LINE
  5
14F
330
17
100
AcDbEntity
  8
StringerLayer
100
AcDbLine
 10
-88.05618264811406
 20
-13.371166561896578
 30
0.0
 11
-88.23282743635396
 21
-9.37506888806681
 31
0.0
  0
LINE
  5
150
330
17
100
AcDbEntity
  8
SubLayer
100
AcDbLine
 10
-209.92045454545433
 20
0.0
 30
0.0
 11
-205.92045454545433
 21
0.0
 31
0.0
  0
LINE
  5
151
330
17
100
AcDbEntity
  8
SubLayer
100
AcDbLine
 10
57.97727272727269
 20
0.0
 30
0.0
 11
67.97499999999997
 21
0.0
 31
0.0
  0
LINE
  5
152
330
17
100
AcDbEntity
  8
SubLayer
100
AcDbLine
 10
-44.955552144944164
 20
30.291731557227827
 30
0.0
 11
-36.9604255287914
 21
30.570927530847833
 31
0.0
  0
LINE
  5
153
330
17
100
AcDbEntity
  8
SubLayer
100
AcDbLine
 10
36.9604255287914
 20
33.1523005312635
 30
0.0
 11
44.955552144944164
 21
33.431496504883505
 31
0.0
  0
LINE
  5
154
330
17
100
AcDbEntity
  8
SubLayer
100
AcDbLine
 10
-1.255866320543292
 20
67.82492007561666
 30
0.0
 11
-0.9766703469232844
 21
59.82979345946389
 31
0.0
  0
LINE
  5
155
330
17
100
AcDbEntity
  8
SubLayer
100
AcDbLine
 10
1.255866320543292
 20
-4.101692013505328
 30
0.0
 11
0.9766703469232844
 21
3.8934346026474387
 31
0.0
  0
LINE
  5
156
330
17
100
AcDbEntity
  8
SubLayer
100
AcDbLine
 10
-42.88697149750097
 20
28.362748896594635
 30
0.0
 11
-38.88940818942459
 21
28.50234688340464
 31
0.0
  0
LINE
  5
157
330
17
100
AcDbEntity
  8
SubLayer
100
AcDbLine
 10
-38.88940818942459
 20
28.50234688340464
 30
0.0
 11
-39.029006176234596
 21
32.49991019148102
 31
0.0
  0
LINE
  5
158
330
17
100
AcDbEntity
  8
SubLayer
100
AcDbLine
 10
-39.029006176234596
 20
32.49991019148102
 30
0.0
 11
-43.026569484310976
 21
32.36031220467102
 31
0.0
  0
LINE
  5
159
330
17
100
AcDbEntity
  8
SubLayer
100
AcDbLine
 10
-43.026569484310976
 20
32.36031220467102
 30
0.0
 11
-42.88697149750097
 21
28.362748896594635
 31
0.0
  0
LINE
  5
15A
330
17
100
AcDbEntity
  8
SubLayer
100
AcDbLine
 10
39.029006176234596
 20
31.223317870630307
 30
0.0
 11
43.026569484310976
 21
31.362915857440314
 31
0.0
  0
LINE
  5
15B
330
17
100
AcDbEntity
  8
SubLayer
100
AcDbLine
 10
43.026569484310976
 20
31.362915857440314
 30
0.0
 11
42.88697149750097
 21
35.36047916551669
 31
0.0
  0
LINE
  5
15C
330
17
100
AcDbEntity
  8
SubLayer
100
AcDbLine
 10
42.88697149750097
 20
35.36047916551669
 30
0.0
 11
38.88940818942459
 21
35.22088117870669
 31
0.0
  0
LINE
  5
15D
330
17
100
AcDbEntity
  8
SubLayer
100
AcDbLine
 10
38.88940818942459
 20
35.22088117870669
 30
0.0
 11
39.029006176234596
 21
31.223317870630307
 31
0.0
  0
LINE
  5
15E
330
17
100
AcDbEntity
  8
SubLayer
100
AcDbLine
 10
-3.0452509943664774
 20
61.75877612009709
 30
0.0
 11
0.9523123137099054
 21
61.89837410690709
 31
0.0
  0
LINE
  5
15F
330
17
100
AcDbEntity
  8
SubLayer
100
AcDbLine
 10
0.9523123137099054
 20
61.89837410690709
 30
0.0
 11
0.8127143268999015
 21
65.89593741498348
 31
0.0
  0
LINE
  5
160
330
17
100
AcDbEntity
  8
SubLayer
100
AcDbLine
 10
0.8127143268999015
 20
65.89593741498348
 30
0.0
 11
-3.184848981176481
 21
65.75633942817348
 31
0.0
  0
LINE
  5
161
330
17
100
AcDbEntity
  8
SubLayer
100
AcDbLine
 10
-3.184848981176481
 20
65.75633942817348
 30
0.0
 11
-3.0452509943664774
 21
61.75877612009709
 31
0.0
  0
LINE
  5
162
330
17
100
AcDbEntity
  8
SubLayer
100
AcDbLine
 10
-0.8127143268999015
 20
-2.1727093528721384
 30
0.0
 11
3.184848981176481
 21
-2.0331113660621343
 31
0.0
  0
LINE
  5
163
330
17
100
AcDbEntity
  8
SubLayer
100
AcDbLine
 10
3.184848981176481
 20
-2.0331113660621343
 30
0.0
 11
3.0452509943664774
 21
1.9644519420142488
 31
0.0
  0
LINE
  5
164
330
17
100
AcDbEntity
  8
SubLayer
100
AcDbLine
 10
3.0452509943664774
 20
1.9644519420142488
 30
0.0
 11
-0.9523123137099054
 21
1.8248539552042449
 31
0.0
  0
LINE
  5
165
330
17
100
AcDbEntity
  8
SubLayer
100
AcDbLine
 10
-0.9523123137099054
 20
1.8248539552042449
 30
0.0
 11
-0.8127143268999015
 21
-2.1727093528721384
 31
0.0
  0
LINE
  5
166
330
17
100
AcDbEntity
  8
SubLayer
100
AcDbLine
 10
299.10760475077103
 20
25.612586218444093
 30
0.0
 11
303.10516805884737
 21
25.752184205254096
 31
0.0
  0
LINE
  5
167
330
17
100
AcDbEntity
  8
SubLayer
100
AcDbLine
 10
-207.20109340621428
 20
7.9318968784371675
 30
0.0
 11
-203.2035300981379
 21
8.071494865247171
 31
0.0
  0
LINE
  5
168
330
17
100
AcDbEntity
  8
SubLayer
100
AcDbLine
 10
-106.93874460183632
 20
11.433135249736054
 30
0.0
 11
-100.94239963972176
 21
11.642532229951058
 31
0.0
  0
LINE
  5
169
330
17
100
AcDbEntity
  8
SubLayer
100
AcDbLine
 10
196.84647429235486
 20
22.041548853740206
 30
0.0
 11
202.84281925446942
 21
22.25094583395521
 31
0.0
  0
LINE
  5
16A
330
17
100
AcDbEntity
  8
SubLayer
100
AcDbLine
 10
44.95386484525927
 20
16.737342051738132
 30
0.0
 11
50.950209807373845
 21
16.946739031953136
 31
0.0
  0
LINE
  5
16B
330
17
100
AcDbEntity
  8
SubLayer
100
AcDbLine
 10
-101.87199147333584
 20
9.608851079210366
 30
0.0
 11
-102.01158946014584
 21
13.60641438728675
 31
0.0
  0
LINE
  5
16C
330
17
100
AcDbEntity
  8
SubLayer
100
AcDbLine
 10
-102.01158946014584
 20
13.60641438728675
 30
0.0
 11
-106.00915276822224
 21
13.466816400476747
 31
0.0
  0
LINE
  5
16D
330
17
100
AcDbEntity
  8
SubLayer
100
AcDbLine
 10
-106.00915276822224
 20
13.466816400476747
 30
0.0
 11
-105.86955478141223
 21
9.469253092400363
 31
0.0
  0
LINE
  5
16E
330
17
100
AcDbEntity
  8
SubLayer
100
AcDbLine
 10
-105.86955478141223
 20
9.469253092400363
 30
0.0
 11
-101.87199147333584
 21
9.608851079210366
 31
0.0
  0
LINE
  5
16F
330
17
100
AcDbEntity
  8
SubLayer
100
AcDbLine
 10
201.91322742085532
 20
20.21726468321452
 30
0.0
 11
201.77362943404532
 21
24.214827991290903
 31
0.0
  0
LINE
  5
170
330
17
100
AcDbEntity
  8
SubLayer
100
AcDbLine
 10
201.77362943404532
 20
24.214827991290903
 30
0.0
 11
197.77606612596895
 21
24.075230004480897
 31
0.0
  0
LINE
  5
171
330
17
100
AcDbEntity
  8
SubLayer
100
AcDbLine
 10
197.77606612596895
 20
24.075230004480897
 30
0.0
 11
197.91566411277896
 21
20.077666696404513
 31
0.0
  0
LINE
  5
172
330
17
100
AcDbEntity
  8
SubLayer
100
AcDbLine
 10
197.91566411277896
 20
20.077666696404513
 30
0.0
 11
201.91322742085532
 21
20.21726468321452
 31
0.0
  0
LINE
  5
173
330
17
100
AcDbEntity
  8
SubLayer
100
AcDbLine
 10
50.02061797375975
 20
14.913057881212444
 30
0.0
 11
49.881019986949745
 21
18.91062118928883
 31
0.0
  0
LINE
  5
174
330
17
100
AcDbEntity
  8
SubLayer
100
AcDbLine
 10
49.881019986949745
 20
18.91062118928883
 30
0.0
 11
45.883456678873365
 21
18.771023202478823
 31
0.0
  0
LINE
  5
175
330
17
100
AcDbEntity
  8
SubLayer
100
AcDbLine
 10
45.883456678873365
 20
18.771023202478823
 30
0.0
 11
46.02305466568337
 21
14.773459894402441
 31
0.0
  0
LINE
  5
176
330
17
100
AcDbEntity
  8
SubLayer
100
AcDbLine
 10
46.02305466568337
 20
14.773459894402441
 30
0.0
 11
50.02061797375975
 21
14.913057881212444
 31
0.0
  0
LINE
  5
177
330
17
100
AcDbEntity
  8
SubLayer
100
AcDbLine
 10
370.56725093637544
 20
5.323336943250335
 30
0.0
 11
370.85734276057485
 21
6.280335759097404
 31
0.0
  0
LINE
  5
178
330
17
100
AcDbEntity
  8
SubLayer
100
AcDbLine
 10
370.00494551405177
 20
2.5162154608482536
 30
0.0
 11
370.1554718626927
 21
3.504821458384595
 31
0.0
  0
LINE
  5
179
330
17
100
AcDbEntity
  8
SubLayer
100
AcDbLine
 10
351.3808565428563
 20
10.963561145365084
 30
0.0
 11
351.6669232343232
 21
11.921770855205878
 31
0.0
  0
LINE
  5
17A
330
17
100
AcDbEntity
  8
SubLayer
100
AcDbLine
 10
350.07369593780913
 20
4.231337990190814
 30
0.0
 11
350.1918921575957
 21
5.224328248767484
 31
0.0
  0
LINE
  5
17B
330
17
100
AcDbEntity
  8
SubLayer
100
AcDbLine
 10
312.89411767055896
 20
21.856166854286833
 30
0.0
 11
313.1733212133044
 21
22.816398795912598
 31
0.0
  0
LINE
  5
17C
330
17
100
AcDbEntity
  8
SubLayer
100
AcDbLine
 10
310.0560445637971
 20
5.726196442277967
 30
0.0
 11
310.13385320893
 21
6.723164754082598
 31
0.0
  0
LINE
  5
17D
330
17
100
AcDbEntity
  8
SubLayer
100
AcDbLine
 10
-101.10909456948418
 20
61.87642054468946
 30
0.0
 11
-100.96949658267418
 21
57.87885723661308
 31
0.0
  0
LINE
  5
17E
330
17
100
AcDbEntity
  8
SubLayer
100
AcDbLine
 10
-98.53511946690817
 20
-11.83258243659626
 30
0.0
 11
-98.39552148009817
 21
-15.830145744672643
 31
0.0
  0
LINE
  5
17F
330
17
100
AcDbEntity
  8
SubLayer
100
AcDbLine
 10
-99.08481398412589
 20
3.90860898667998
 30
0.0
 11
-98.87541700391087
 21
-2.0877359754345943
 31
0.0
  0
LINE
  5
180
330
17
100
AcDbEntity
  8
SubLayer
100
AcDbLine
 10
-100.6291990456715
 20
48.134010775451415
 30
0.0
 11
-100.41980206545648
 21
42.13766581333684
 31
0.0
  0
LINE
  5
181
330
17
100
AcDbEntity
  8
SubLayer
100
AcDbLine
 10
-99.85700651489869
 20
26.021309881065697
 30
0.0
 11
-99.64760953468367
 21
20.02496491895112
 31
0.0
  0
LINE
  5
182
330
17
100
AcDbEntity
  8
SubLayer
100
AcDbLine
 10
-100.90909815465157
 20
-1.1581441418205007
 30
0.0
 11
-96.91153484657518
 21
-1.0185461550104968
 31
0.0
  0
LINE
  5
183
330
17
100
AcDbEntity
  8
SubLayer
100
AcDbLine
 10
-96.91153484657518
 20
-1.0185461550104968
 30
0.0
 11
-97.05113283338518
 21
2.9790171530658864
 31
0.0
  0
LINE
  5
184
330
17
100
AcDbEntity
  8
SubLayer
100
AcDbLine
 10
-97.05113283338518
 20
2.9790171530658864
 30
0.0
 11
-101.04869614146158
 21
2.8394191662558823
 31
0.0
  0
LINE
  5
185
330
17
100
AcDbEntity
  8
SubLayer
100
AcDbLine
 10
-101.04869614146158
 20
2.8394191662558823
 30
0.0
 11
-100.90909815465157
 21
-1.1581441418205007
 31
0.0
  0
LINE
  5
186
330
17
100
AcDbEntity
  8
SubLayer
100
AcDbLine
 10
-102.45348321619718
 20
43.067257646950935
 30
0.0
 11
-98.45591990812079
 21
43.20685563376094
 31
0.0
  0
LINE
  5
187
330
17
100
AcDbEntity
  8
SubLayer
100
AcDbLine
 10
-98.45591990812079
 20
43.20685563376094
 30
0.0
 11
-98.5955178949308
 21
47.20441894183732
 31
0.0
  0
LINE
  5
188
330
17
100
AcDbEntity
  8
SubLayer
100
AcDbLine
 10
-98.5955178949308
 20
47.20441894183732
 30
0.0
 11
-102.59308120300719
 21
47.064820955027315
 31
0.0
  0
LINE
  5
189
330
17
100
AcDbEntity
  8
SubLayer
100
AcDbLine
 10
-102.59308120300719
 20
47.064820955027315
 30
0.0
 11
-102.45348321619718
 21
43.067257646950935
 31
0.0
  0
LINE
  5
18A
330
17
100
AcDbEntity
  8
SubLayer
100
AcDbLine
 10
-101.68129068542437
 20
20.954556752565214
 30
0.0
 11
-97.68372737734798
 21
21.09415473937522
 31
0.0
  0
LINE
  5
18B
330
17
100
AcDbEntity
  8
SubLayer
100
AcDbLine
 10
-97.68372737734798
 20
21.09415473937522
 30
0.0
 11
-97.82332536415798
 21
25.091718047451604
 31
0.0
  0
LINE
  5
18C
330
17
100
AcDbEntity
  8
SubLayer
100
AcDbLine
 10
-97.82332536415798
 20
25.091718047451604
 30
0.0
 11
-101.82088867223437
 21
24.952120060641597
 31
0.0
  0
LINE
  5
18D
330
17
100
AcDbEntity
  8
SubLayer
100
AcDbLine
 10
-101.82088867223437
 20
24.952120060641597
 30
0.0
 11
-101.68129068542437
 21
20.954556752565214
 31
0.0
  0
LINE
  5
18E
330
17
100
AcDbEntity
  8
SubLayer
100
AcDbLine
 10
149.00424091987605
 20
62.99468299747999
 30
0.0
 11
149.14383890668609
 21
58.99711968940361
 31
0.0
  0
LINE
  5
18F
330
17
100
AcDbEntity
  8
SubLayer
100
AcDbLine
 10
151.11434204376238
 20
2.569292761306622
 30
0.0
 11
151.2539400305724
 21
-1.4282705467697612
 31
0.0
  0
LINE
  5
190
330
17
100
AcDbEntity
  8
SubLayer
100
AcDbLine
 10
150.65742232228263
 20
15.653761635560391
 30
0.0
 11
150.86681930249762
 21
9.657416673445818
 31
0.0
  0
LINE
  5
191
330
17
100
AcDbEntity
  8
SubLayer
100
AcDbLine
 10
149.39136164795084
 20
51.908995777264415
 30
0.0
 11
149.60075862816583
 21
45.91265081514984
 31
0.0
  0
LINE
  5
192
330
17
100
AcDbEntity
  8
SubLayer
100
AcDbLine
 10
150.02439198511675
 20
33.781378706412404
 30
0.0
 11
150.23378896533174
 21
27.785033744297827
 31
0.0
  0
LINE
  5
193
330
17
100
AcDbEntity
  8
SubLayer
100
AcDbLine
 10
148.83313815175694
 20
10.587008507059911
 30
0.0
 11
152.8307014598333
 21
10.726606493869914
 31
0.0
  0
LINE
  5
194
330
17
100
AcDbEntity
  8
SubLayer
100
AcDbLine
 10
152.8307014598333
 20
10.726606493869914
 30
0.0
 11
152.6911034730233
 21
14.724169801946298
 31
0.0
  0
LINE
  5
195
330
17
100
AcDbEntity
  8
SubLayer
100
AcDbLine
 10
152.6911034730233
 20
14.724169801946298
 30
0.0
 11
148.69354016494694
 21
14.584571815136295
 31
0.0
  0
LINE
  5
196
330
17
100
AcDbEntity
  8
SubLayer
100
AcDbLine
 10
148.69354016494694
 20
14.584571815136295
 30
0.0
 11
148.83313815175694
 21
10.587008507059911
 31
0.0
  0
LINE
  5
197
330
17
100
AcDbEntity
  8
SubLayer
100
AcDbLine
 10
147.56707747742516
 20
46.842242648763936
 30
0.0
 11
151.56464078550152
 21
46.98184063557394
 31
0.0
  0
LINE
  5
198
330
17
100
AcDbEntity
  8
SubLayer
100
AcDbLine
 10
151.56464078550152
 20
46.98184063557394
 30
0.0
 11
151.42504279869152
 21
50.97940394365032
 31
0.0
  0
LINE
  5
199
330
17
100
AcDbEntity
  8
SubLayer
100
AcDbLine
 10
151.42504279869152
 20
50.97940394365032
 30
0.0
 11
147.42747949061516
 21
50.839805956840316
 31
0.0
  0
LINE
  5
19A
330
17
100
AcDbEntity
  8
SubLayer
100
AcDbLine
 10
147.42747949061516
 20
50.839805956840316
 30
0.0
 11
147.56707747742516
 21
46.842242648763936
 31
0.0
  0
LINE
  5
19B
330
17
100
AcDbEntity
  8
SubLayer
100
AcDbLine
 10
148.20010781459106
 20
28.71462557791192
 30
0.0
 11
152.19767112266743
 21
28.854223564721927
 31
0.0
  0
LINE
  5
19C
330
17
100
AcDbEntity
  8
SubLayer
100
AcDbLine
 10
152.19767112266743
 20
28.854223564721927
 30
0.0
 11
152.05807313585743
 21
32.85178687279831
 31
0.0
  0
LINE
  5
19D
330
17
100
AcDbEntity
  8
SubLayer
100
AcDbLine
 10
152.05807313585743
 20
32.85178687279831
 30
0.0
 11
148.06050982778106
 21
32.712188885988304
 31
0.0
  0
LINE
  5
19E
330
17
100
AcDbEntity
  8
SubLayer
100
AcDbLine
 10
148.06050982778106
 20
32.712188885988304
 30
0.0
 11
148.20010781459106
 21
28.71462557791192
 31
0.0
  0
ENDSEC
  0
SECTION
  2
OBJECTS
  0
DICTIONARY
  5
A
330
0
100
AcDbDictionary
280
0
281
1
  3
ACAD_COLOR
350
B
  3
ACAD_GROUP
350
C
  3
ACAD_LAYOUT
350
D
  3
ACAD_MATERIAL
350
E
  3
ACAD_MLEADERSTYLE
350
F
  3
ACAD_MLINESTYLE
350
10
  3
ACAD_PLOTSETTINGS
350
11
  3
ACAD_PLOTSTYLENAME
350
12
  3
ACAD_SCALELIST
350
14
  3
ACAD_TABLESTYLE
350
15
  3
ACAD_VISUALSTYLE
350
16
  3
EZDXF_META
350
2D
  0
DICTIONARY
  5
B
330
A
100
AcDbDictionary
280
0
281
1
  0
DICTIONARY
  5
C
330
A
100
AcDbDictionary
280
0
281
1
  0
DICTIONARY
  5
D
330
A
100
AcDbDictionary
280
0
281
1
  3
Model
350
1A
  3
Layout1
350
1E
  0
DICTIONARY
  5
E
330
A
100
AcDbDictionary
280
0
281
1
  3
ByBlock
350
1F
  3
ByLayer
350
20
  3
Global
350
21
  0
DICTIONARY
  5
F
330
A
100
AcDbDictionary
280
0
281
1
  3
Standard
350
2C
  0
DICTIONARY
  5
10
330
A
100
AcDbDictionary
280
0
281
1
  3
Standard
350
22
  0
DICTIONARY
  5
11
330
A
100
AcDbDictionary
280
0
281
1
  0
ACDBDICTIONARYWDFLT
  5
12
330
A
100
AcDbDictionary
280
0
281
1
  3
Normal
350
13
100
AcDbDictionaryWithDefault
340
13
  0
ACDBPLACEHOLDER
  5
13
330
12
  0
DICTIONARY
  5
14
330
A
100
AcDbDictionary
280
0
281
1
  0
DICTIONARY
  5
15
330
A
100
AcDbDictionary
280
0
281
1
  0
DICTIONARY
  5
16
330
A
100
AcDbDictionary
280
0
281
1
  0
LAYOUT
  5
1A
330
D
100
AcDbPlotSettings
  1

  2
Adobe PDF
  4
A3
  6

 40
7.5
 41
20.0
 42
7.5
 43
20.0
 44
420.0
 45
297.0
 46
0.0
 47
0.0
 48
0.0
 49
0.0
140
0.0
141
0.0
142
1.0
143
1.0
 70
1024
 72
1
 73
0
 74
5
  7

 75
16
 76
0
 77
2
 78
300
147
1.0
148
0.0
149
0.0
100
AcDbLayout
  1
Model
 70
1
 71
0
 10
0.0
 20
0.0
 11
420.0
 21
297.0
 12
0.0
 22
0.0
 32
0.0
 14
1e+20
 24
1e+20
 34
1e+20
 15
-1e+20
 25
-1e+20
 35
-1e+20
146
0.0
 13
0.0
 23
0.0
 33
0.0
 16
1.0
 26
0.0
 36
0.0
 17
0.0
 27
1.0
 37
0.0
 76
1
330
17
  0
LAYOUT
  5
1E
330
D
100
AcDbPlotSettings
  1

  2
Adobe PDF
  4
A3
  6

 40
7.5
 41
20.0
 42
7.5
 43
20.0
 44
420.0
 45
297.0
 46
0.0
 47
0.0
 48
0.0
 49
0.0
140
0.0
141
0.0
142
1.0
143
1.0
 70
0
 72
1
 73
0
 74
5
  7

 75
16
 76
0
 77
2
 78
300
147
1.0
148
0.0
149
0.0
100
AcDbLayout
  1
Layout1
 70
1
 71
1
 10
0.0
 20
0.0
 11
420.0
 21
297.0
 12
0.0
 22
0.0
 32
0.0
 14
1e+20
 24
1e+20
 34
1e+20
 15
-1e+20
 25
-1e+20
 35
-1e+20
146
0.0
 13
0.0
 23
0.0
 33
0.0
 16
1.0
 26
0.0
 36
0.0
 17
0.0
 27
1.0
 37
0.0
 76
1
330
1B
  0
MATERIAL
  5
1F
102
{ACAD_REACTORS
330
E
102
}
330
E
100
AcDbMaterial
  1
ByBlock
  2

 70
0
 40
1.0
 71
1
 41
1.0
 91
-1023410177
 42
1.0
 72
1
  3

 73
1
 74
1
 75
1
 44
0.5
 73
0
 45
1.0
 46
1.0
 77
1
  4

 78
1
 79
1
170
1
 48
1.0
171
1
  6

172
1
173
1
174
1
140
1.0
141
1.0
175
1
  7

176
1
177
1
178
1
143
1.0
179
1
  8

270
1
271
1
272
1
145
1.0
146
1.0
273
1
  9

274
1
275
1
276
1
 42
1.0
 72
1
  3

 73
1
 74
1
 75
1
 94
63
  0
MATERIAL
  5
20
102
{ACAD_REACTORS
330
E
102
}
330
E
100
AcDbMaterial
  1
ByLayer
  2

 70
0
 40
1.0
 71
1
 41
1.0
 91
-1023410177
 42
1.0
 72
1
  3

 73
1
 74
1
 75
1
 44
0.5
 73
0
 45
1.0
 46
1.0
 77
1
  4

 78
1
 79
1
170
1
 48
1.0
171
1
  6

172
1
173
1
174
1
140
1.0
141
1.0
175
1
  7

176
1
177
1
178
1
143
1.0
179
1
  8

270
1
271
1
272
1
145
1.0
146
1.0
273
1
  9

274
1
275
1
276
1
 42
1.0
 72
1
  3

 73
1
 74
1
 75
1
 94
63
  0
MATERIAL
  5
21
102
{ACAD_REACTORS
330
E
102
}
330
E
100
AcDbMaterial
  1
Global
  2

 70
0
 40
1.0
 71
1
 41
1.0
 91
-1023410177
 42
1.0
 72
1
  3

 73
1
 74
1
 75
1
 44
0.5
 73
0
 45
1.0
 46
1.0
 77
1
  4

 78
1
 79
1
170
1
 48
1.0
171
1
  6

172
1
173
1
174
1
140
1.0
141
1.0
175
1
  7

176
1
177
1
178
1
143
1.0
179
1
  8

270
1
271
1
272
1
145
1.0
146
1.0
273
1
  9

274
1
275
1
276
1
 42
1.0
 72
1
  3

 73
1
 74
1
 75
1
 94
63
  0
MLINESTYLE
  5
22
102
{ACAD_REACTORS
330
10
102
}
330
10
100
AcDbMlineStyle
  2
Standard
 70
0
  3

 62
256
 51
90.0
 52
90.0
 71
2
 49
0.5
 62
256
  6
BYLAYER
 49
-0.5
 62
256
  6
BYLAYER
  0
MLEADERSTYLE
  5
2C
102
{ACAD_REACTORS
330
F
102
}
330
F
100
AcDbMLeaderStyle
179
2
170
2
171
1
172
0
 90
2
 40
0.0
 41
0.0
173
1
 91
-1056964608
 92
-2
290
1
 42
2.0
291
1
 43
8.0
  3
Standard
 44
4.0
300

342
29
174
1
175
1
176
0
178
1
 93
-1056964608
 45
4.0
292
0
297
0
 46
4.0
 94
-1056964608
 47
1.0
 49
1.0
140
1.0
294
1
141
0.0
177
0
142
1.0
295
0
296
0
143
3.75
271
0
272
9
273
9
  0
DICTIONARY
  5
2D
330
A
100
AcDbDictionary
281
1
  3
CREATED_BY_EZDXF
350
2E
  3
WRITTEN_BY_EZDXF
350
1A1
  0
DICTIONARYVAR
  5
2E
330
2D
100
DictionaryVariables
280
0
  1
1.0.2 @ 2023-10-20T04:47:16.325625+00:00
  0
DICTIONARYVAR
  5
1A1
330
2D
100
DictionaryVariables
280
0
  1
1.0.2 @ 2023-10-20T04:47:16.335591+00:00
  0
ENDSEC
  0
EOF
