  0
SECTION
  2
HEADER
  9
$ACADVER
  1
AC1027
  9
$ACADMAINTVER
 70
105
  9
$DWGCODEPAGE
  3
ANSI_1252
  9
$LASTSAVEDBY
  1
ezdxf
  9
$REQUIREDVERSIONS
160
0
  9
$INSBASE
 10
0.0
 20
0.0
 30
0.0
  9
$EXTMIN
 10
1e+20
 20
1e+20
 30
1e+20
  9
$EXTMAX
 10
-1e+20
 20
-1e+20
 30
-1e+20
  9
$LIMMIN
 10
0.0
 20
0.0
  9
$LIMMAX
 10
420.0
 20
297.0
  9
$ORTHOMODE
 70
0
  9
$REGENMODE
 70
1
  9
$FILLMODE
 70
1
  9
$QTEXTMODE
 70
0
  9
$MIRRTEXT
 70
1
  9
$LTSCALE
 40
1.0
  9
$ATTMODE
 70
1
  9
$TEXTSIZE
 40
2.5
  9
$TRACEWID
 40
1.0
  9
$TEXTSTYLE
  7
Standard
  9
$CLAYER
  8
0
  9
$CELTYPE
  6
ByLayer
  9
$CECOLOR
 62
256
  9
$CELTSCALE
 40
1.0
  9
$DISPSILH
 70
0
  9
$DIMSCALE
 40
1.0
  9
$DIMASZ
 40
2.5
  9
$DIMEXO
 40
0.625
  9
$DIMDLI
 40
3.75
  9
$DIMRND
 40
0.0
  9
$DIMDLE
 40
0.0
  9
$DIMEXE
 40
1.25
  9
$DIMTP
 40
0.0
  9
$DIMTM
 40
0.0
  9
$DIMTXT
 40
2.5
  9
$DIMCEN
 40
2.5
  9
$DIMTSZ
 40
0.0
  9
$DIMTOL
 70
0
  9
$DIMLIM
 70
0
  9
$DIMTIH
 70
0
  9
$DIMTOH
 70
0
  9
$DIMSE1
 70
0
  9
$DIMSE2
 70
0
  9
$DIMTAD
 70
1
  9
$DIMZIN
 70
8
  9
$DIMBLK
  1

  9
$DIMASO
 70
1
  9
$DIMSHO
 70
1
  9
$DIMPOST
  1

  9
$DIMAPOST
  1

  9
$DIMALT
 70
0
  9
$DIMALTD
 70
3
  9
$DIMALTF
 40
0.03937007874
  9
$DIMLFAC
 40
1.0
  9
$DIMTOFL
 70
1
  9
$DIMTVP
 40
0.0
  9
$DIMTIX
 70
0
  9
$DIMSOXD
 70
0
  9
$DIMSAH
 70
0
  9
$DIMBLK1
  1

  9
$DIMBLK2
  1

  9
$DIMSTYLE
  2
ISO-25
  9
$DIMCLRD
 70
0
  9
$DIMCLRE
 70
0
  9
$DIMCLRT
 70
0
  9
$DIMTFAC
 40
1.0
  9
$DIMGAP
 40
0.625
  9
$DIMJUST
 70
0
  9
$DIMSD1
 70
0
  9
$DIMSD2
 70
0
  9
$DIMTOLJ
 70
0
  9
$DIMTZIN
 70
8
  9
$DIMALTZ
 70
0
  9
$DIMALTTZ
 70
0
  9
$DIMUPT
 70
0
  9
$DIMDEC
 70
2
  9
$DIMTDEC
 70
2
  9
$DIMALTU
 70
2
  9
$DIMALTTD
 70
3
  9
$DIMTXSTY
  7
Standard
  9
$DIMAUNIT
 70
0
  9
$DIMADEC
 70
0
  9
$DIMALTRND
 40
0.0
  9
$DIMAZIN
 70
0
  9
$DIMDSEP
 70
44
  9
$DIMATFIT
 70
3
  9
$DIMFRAC
 70
0
  9
$DIMLDRBLK
  1

  9
$DIMLUNIT
 70
2
  9
$DIMLWD
 70
-2
  9
$DIMLWE
 70
-2
  9
$DIMTMOVE
 70
0
  9
$DIMFXL
 40
1.0
  9
$DIMFXLON
 70
0
  9
$DIMJOGANG
 40
0.785398163397
  9
$DIMTFILL
 70
0
  9
$DIMTFILLCLR
 70
0
  9
$DIMARCSYM
 70
0
  9
$DIMLTYPE
  6

  9
$DIMLTEX1
  6

  9
$DIMLTEX2
  6

  9
$DIMTXTDIRECTION
 70
0
  9
$LUNITS
 70
2
  9
$LUPREC
 70
4
  9
$SKETCHINC
 40
1.0
  9
$FILLETRAD
 40
10.0
  9
$AUNITS
 70
0
  9
$AUPREC
 70
2
  9
$MENU
  1
.
  9
$ELEVATION
 40
0.0
  9
$PELEVATION
 40
0.0
  9
$THICKNESS
 40
0.0
  9
$LIMCHECK
 70
0
  9
$CHAMFERA
 40
0.0
  9
$CHAMFERB
 40
0.0
  9
$CHAMFERC
 40
0.0
  9
$CHAMFERD
 40
0.0
  9
$SKPOLY
 70
0
  9
$TDCREATE
 40
2460238.574490741
  9
$TDUCREATE
 40
2458532.153996898
  9
$TDUPDATE
 40
2460238.574490741
  9
$TDUUPDATE
 40
2458532.1544311
  9
$TDINDWG
 40
0.0
  9
$TDUSRTIMER
 40
0.0
  9
$USRTIMER
 70
1
  9
$ANGBASE
 50
0.0
  9
$ANGDIR
 70
0
  9
$PDMODE
 70
0
  9
$PDSIZE
 40
0.0
  9
$PLINEWID
 40
0.0
  9
$SPLFRAME
 70
0
  9
$SPLINETYPE
 70
6
  9
$SPLINESEGS
 70
8
  9
$HANDSEED
  5
1A3
  9
$SURFTAB1
 70
6
  9
$SURFTAB2
 70
6
  9
$SURFTYPE
 70
6
  9
$SURFU
 70
6
  9
$SURFV
 70
6
  9
$UCSBASE
  2

  9
$UCSNAME
  2

  9
$UCSORG
 10
0.0
 20
0.0
 30
0.0
  9
$UCSXDIR
 10
1.0
 20
0.0
 30
0.0
  9
$UCSYDIR
 10
0.0
 20
1.0
 30
0.0
  9
$UCSORTHOREF
  2

  9
$UCSORTHOVIEW
 70
0
  9
$UCSORGTOP
 10
0.0
 20
0.0
 30
0.0
  9
$UCSORGBOTTOM
 10
0.0
 20
0.0
 30
0.0
  9
$UCSORGLEFT
 10
0.0
 20
0.0
 30
0.0
  9
$UCSORGRIGHT
 10
0.0
 20
0.0
 30
0.0
  9
$UCSORGFRONT
 10
0.0
 20
0.0
 30
0.0
  9
$UCSORGBACK
 10
0.0
 20
0.0
 30
0.0
  9
$PUCSBASE
  2

  9
$PUCSNAME
  2

  9
$PUCSORG
 10
0.0
 20
0.0
 30
0.0
  9
$PUCSXDIR
 10
1.0
 20
0.0
 30
0.0
  9
$PUCSYDIR
 10
0.0
 20
1.0
 30
0.0
  9
$PUCSORTHOREF
  2

  9
$PUCSORTHOVIEW
 70
0
  9
$PUCSORGTOP
 10
0.0
 20
0.0
 30
0.0
  9
$PUCSORGBOTTOM
 10
0.0
 20
0.0
 30
0.0
  9
$PUCSORGLEFT
 10
0.0
 20
0.0
 30
0.0
  9
$PUCSORGRIGHT
 10
0.0
 20
0.0
 30
0.0
  9
$PUCSORGFRONT
 10
0.0
 20
0.0
 30
0.0
  9
$PUCSORGBACK
 10
0.0
 20
0.0
 30
0.0
  9
$USERI1
 70
0
  9
$USERI2
 70
0
  9
$USERI3
 70
0
  9
$USERI4
 70
0
  9
$USERI5
 70
0
  9
$USERR1
 40
0.0
  9
$USERR2
 40
0.0
  9
$USERR3
 40
0.0
  9
$USERR4
 40
0.0
  9
$USERR5
 40
0.0
  9
$WORLDVIEW
 70
1
  9
$SHADEDGE
 70
3
  9
$SHADEDIF
 70
70
  9
$TILEMODE
 70
1
  9
$MAXACTVP
 70
64
  9
$PINSBASE
 10
0.0
 20
0.0
 30
0.0
  9
$PLIMCHECK
 70
0
  9
$PEXTMIN
 10
1e+20
 20
1e+20
 30
1e+20
  9
$PEXTMAX
 10
-1e+20
 20
-1e+20
 30
-1e+20
  9
$PLIMMIN
 10
0.0
 20
0.0
  9
$PLIMMAX
 10
420.0
 20
297.0
  9
$UNITMODE
 70
0
  9
$VISRETAIN
 70
1
  9
$PLINEGEN
 70
0
  9
$PSLTSCALE
 70
1
  9
$TREEDEPTH
 70
3020
  9
$CMLSTYLE
  2
Standard
  9
$CMLJUST
 70
0
  9
$CMLSCALE
 40
20.0
  9
$PROXYGRAPHICS
 70
1
  9
$MEASUREMENT
 70
1
  9
$CELWEIGHT
370
-1
  9
$ENDCAPS
280
0
  9
$JOINSTYLE
280
0
  9
$LWDISPLAY
290
0
  9
$INSUNITS
 70
6
  9
$HYPERLINKBASE
  1

  9
$STYLESHEET
  1

  9
$XEDIT
290
1
  9
$CEPSNTYPE
380
0
  9
$PSTYLEMODE
290
1
  9
$FINGERPRINTGUID
  2
{265B822C-D738-4648-9B59-7E2AE8503931}
  9
$VERSIONGUID
  2
{3285261C-446F-407B-B10C-8994BA61218B}
  9
$EXTNAMES
290
1
  9
$PSVPSCALE
 40
0.0
  9
$OLESTARTUP
290
0
  9
$SORTENTS
280
127
  9
$INDEXCTL
280
0
  9
$HIDETEXT
280
1
  9
$XCLIPFRAME
280
0
  9
$HALOGAP
280
0
  9
$OBSCOLOR
 70
257
  9
$OBSLTYPE
280
0
  9
$INTERSECTIONDISPLAY
280
0
  9
$INTERSECTIONCOLOR
 70
257
  9
$DIMASSOC
280
2
  9
$PROJECTNAME
  1

  9
$CAMERADISPLAY
290
0
  9
$LENSLENGTH
 40
50.0
  9
$CAMERAHEIGHT
 40
0.0
  9
$STEPSPERSEC
 40
24.0
  9
$STEPSIZE
 40
100.0
  9
$3DDWFPREC
 40
2.0
  9
$PSOLWIDTH
 40
0.005
  9
$PSOLHEIGHT
 40
0.08
  9
$LOFTANG1
 40
1.570796326795
  9
$LOFTANG2
 40
1.570796326795
  9
$LOFTMAG1
 40
0.0
  9
$LOFTMAG2
 40
0.0
  9
$LOFTPARAM
 70
7
  9
$LOFTNORMALS
280
1
  9
$LATITUDE
 40
37.795
  9
$LONGITUDE
 40
-122.394
  9
$NORTHDIRECTION
 40
0.0
  9
$TIMEZONE
 70
-8000
  9
$LIGHTGLYPHDISPLAY
280
1
  9
$TILEMODELIGHTSYNCH
280
1
  9
$CMATERIAL
347
20
  9
$SOLIDHIST
280
0
  9
$SHOWHIST
280
1
  9
$DWFFRAME
280
2
  9
$DGNFRAME
280
2
  9
$REALWORLDSCALE
290
1
  9
$INTERFERECOLOR
 62
256
  9
$CSHADOW
280
0
  9
$SHADOWPLANELOCATION
 40
0.0
  0
ENDSEC
  0
SECTION
  2
CLASSES
  0
CLASS
  1
ACDBDICTIONARYWDFLT
  2
AcDbDictionaryWithDefault
  3
ObjectDBX Classes
 90
0
 91
0
280
0
281
0
  0
CLASS
  1
SUN
  2
AcDbSun
  3
SCENEOE
 90
1153
 91
0
280
0
281
0
  0
CLASS
  1
VISUALSTYLE
  2
AcDbVisualStyle
  3
ObjectDBX Classes
 90
4095
 91
0
280
0
281
0
  0
CLASS
  1
MATERIAL
  2
AcDbMaterial
  3
ObjectDBX Classes
 90
1153
 91
0
280
0
281
0
  0
CLASS
  1
SCALE
  2
AcDbScale
  3
ObjectDBX Classes
 90
1153
 91
0
280
0
281
0
  0
CLASS
  1
TABLESTYLE
  2
AcDbTableStyle
  3
ObjectDBX Classes
 90
4095
 91
0
280
0
281
0
  0
CLASS
  1
MLEADERSTYLE
  2
AcDbMLeaderStyle
  3
ACDB_MLEADERSTYLE_CLASS
 90
4095
 91
0
280
0
281
0
  0
CLASS
  1
DICTIONARYVAR
  2
AcDbDictionaryVar
  3
ObjectDBX Classes
 90
0
 91
0
280
0
281
0
  0
CLASS
  1
CELLSTYLEMAP
  2
AcDbCellStyleMap
  3
ObjectDBX Classes
 90
1152
 91
0
280
0
281
0
  0
CLASS
  1
MENTALRAYRENDERSETTINGS
  2
AcDbMentalRayRenderSettings
  3
SCENEOE
 90
1024
 91
0
280
0
281
0
  0
CLASS
  1
ACDBDETAILVIEWSTYLE
  2
AcDbDetailViewStyle
  3
ObjectDBX Classes
 90
1025
 91
0
280
0
281
0
  0
CLASS
  1
ACDBSECTIONVIEWSTYLE
  2
AcDbSectionViewStyle
  3
ObjectDBX Classes
 90
1025
 91
0
280
0
281
0
  0
CLASS
  1
RASTERVARIABLES
  2
AcDbRasterVariables
  3
ISM
 90
0
 91
0
280
0
281
0
  0
CLASS
  1
ACDBPLACEHOLDER
  2
AcDbPlaceHolder
  3
ObjectDBX Classes
 90
0
 91
0
280
0
281
0
  0
CLASS
  1
LAYOUT
  2
AcDbLayout
  3
ObjectDBX Classes
 90
0
 91
0
280
0
281
0
  0
ENDSEC
  0
SECTION
  2
TABLES
  0
TABLE
  2
VPORT
  5
8
330
0
100
AcDbSymbolTable
 70
1
  0
VPORT
  5
23
330
8
100
AcDbSymbolTableRecord
100
AcDbViewportTableRecord
  2
*Active
 70
0
 10
0.0
 20
0.0
 11
1.0
 21
1.0
 12
0.0
 22
0.0
 13
0.0
 23
0.0
 14
0.5
 24
0.5
 15
0.5
 25
0.5
 16
0.0
 26
0.0
 36
1.0
 17
0.0
 27
0.0
 37
0.0
 40
1000.0
 41
1.34
 42
50.0
 43
0.0
 44
0.0
 50
0.0
 51
0.0
 71
0
 72
1000
 73
1
 74
3
 75
0
 76
0
 77
0
 78
0
281
0
 65
0
146
0.0
  0
ENDTAB
  0
TABLE
  2
LTYPE
  5
2
330
0
100
AcDbSymbolTable
 70
3
  0
LTYPE
  5
24
330
2
100
AcDbSymbolTableRecord
100
AcDbLinetypeTableRecord
  2
ByBlock
 70
0
  3

 72
65
 73
0
 40
0.0
  0
LTYPE
  5
25
330
2
100
AcDbSymbolTableRecord
100
AcDbLinetypeTableRecord
  2
ByLayer
 70
0
  3

 72
65
 73
0
 40
0.0
  0
LTYPE
  5
26
330
2
100
AcDbSymbolTableRecord
100
AcDbLinetypeTableRecord
  2
Continuous
 70
0
  3

 72
65
 73
0
 40
0.0
  0
ENDTAB
  0
TABLE
  2
LAYER
  5
1
330
0
100
AcDbSymbolTable
 70
5
  0
LAYER
  5
27
330
1
100
AcDbSymbolTableRecord
100
AcDbLayerTableRecord
  2
0
 70
0
 62
7
  6
Continuous
370
-3
390
13
347
21
  0
LAYER
  5
28
330
1
100
AcDbSymbolTableRecord
100
AcDbLayerTableRecord
  2
Defpoints
 70
0
 62
7
  6
Continuous
290
0
370
-3
390
13
347
21
  0
LAYER
  5
30
330
1
100
AcDbSymbolTableRecord
100
AcDbLayerTableRecord
  2
FoilLayer
 70
0
 62
1
  6
Continuous
370
50
390
13
347
21
  0
LAYER
  5
31
330
1
100
AcDbSymbolTableRecord
100
AcDbLayerTableRecord
  2
StringerLayer
 70
0
 62
1
  6
Continuous
370
50
390
13
347
21
  0
LAYER
  5
32
330
1
100
AcDbSymbolTableRecord
100
AcDbLayerTableRecord
  2
SubLayer
 70
0
 62
1
  6
Continuous
370
50
390
13
347
21
  0
ENDTAB
  0
TABLE
  2
STYLE
  5
5
330
0
100
AcDbSymbolTable
 70
2
  0
STYLE
  5
29
330
5
100
AcDbSymbolTableRecord
100
AcDbTextStyleTableRecord
  2
Standard
 70
0
 40
0.0
 41
1.0
 50
0.0
 71
0
 42
2.5
  3
txt
  4

  0
STYLE
  5
2F
330
5
100
AcDbSymbolTableRecord
100
AcDbTextStyleTableRecord
  2
MSゴシック
 70
0
 40
0.0
 41
1.0
 50
0.0
 71
0
 42
2.5
  3
romans
  4

  0
ENDTAB
  0
TABLE
  2
VIEW
  5
7
330
0
100
AcDbSymbolTable
 70
0
  0
ENDTAB
  0
TABLE
  2
UCS
  5
6
330
0
100
AcDbSymbolTable
 70
0
  0
ENDTAB
  0
TABLE
  2
APPID
  5
3
330
0
100
AcDbSymbolTable
 70
3
  0
APPID
  5
2A
330
3
100
AcDbSymbolTableRecord
100
AcDbRegAppTableRecord
  2
ACAD
 70
0
  0
APPID
  5
1A0
330
3
100
AcDbSymbolTableRecord
100
AcDbRegAppTableRecord
  2
HATCHBACKGROUNDCOLOR
 70
0
  0
APPID
  5
1A1
330
3
100
AcDbSymbolTableRecord
100
AcDbRegAppTableRecord
  2
EZDXF
 70
0
  0
ENDTAB
  0
TABLE
  2
DIMSTYLE
  5
4
330
0
100
AcDbSymbolTable
 70
1
100
AcDbDimStyleTable
  0
DIMSTYLE
105
2B
330
4
100
AcDbSymbolTableRecord
100
AcDbDimStyleTableRecord
  2
Standard
 70
0
 40
1.0
 41
2.5
 42
0.625
 43
3.75
 44
1.25
 45
0.0
 46
0.0
 47
0.0
 48
0.0
 49
2.5
140
2.5
141
2.5
142
0.0
143
0.03937007874
144
1.0
145
0.0
146
1.0
147
0.625
148
0.0
 69
0
 70
0
 71
0
 72
0
 73
0
 74
0
 75
0
 76
0
 77
1
 78
8
 79
3
170
0
171
3
172
1
173
0
174
0
175
0
176
0
177
0
178
0
179
2
271
2
272
2
273
2
274
3
275
0
276
0
277
2
278
44
279
0
280
0
281
0
282
0
283
0
284
8
285
0
286
0
288
0
289
3
290
0
371
-2
372
-2
  0
ENDTAB
  0
TABLE
  2
BLOCK_RECORD
  5
9
330
0
100
AcDbSymbolTable
 70
2
  0
BLOCK_RECORD
  5
17
330
9
100
AcDbSymbolTableRecord
100
AcDbBlockTableRecord
  2
*Model_Space
340
1A
 70
0
280
1
281
0
  0
BLOCK_RECORD
  5
1B
330
9
100
AcDbSymbolTableRecord
100
AcDbBlockTableRecord
  2
*Paper_Space
340
1E
 70
0
280
1
281
0
  0
ENDTAB
  0
ENDSEC
  0
SECTION
  2
BLOCKS
  0
BLOCK
  5
18
330
17
100
AcDbEntity
  8
0
100
AcDbBlockBegin
  2
*Model_Space
 70
0
 10
0.0
 20
0.0
 30
0.0
  3
*Model_Space
  1

  0
ENDBLK
  5
19
330
17
100
AcDbEntity
  8
0
100
AcDbBlockEnd
  0
BLOCK
  5
1C
330
1B
100
AcDbEntity
  8
0
100
AcDbBlockBegin
  2
*Paper_Space
 70
0
 10
0.0
 20
0.0
 30
0.0
  3
*Paper_Space
  1

  0
ENDBLK
  5
1D
330
1B
100
AcDbEntity
  8
0
100
AcDbBlockEnd
  0
ENDSEC
  0
SECTION
  2
ENTITIES
  0
LINE
  5
33
330
17
100
AcDbEntity
  8
FoilLayer
100
AcDbLine
 10
236.94679435537196
 20
40.51702962629289
 30
0.0
 11
29.681818181818187
 21
-7.695183227100161
 31
0.0
  0
LINE
  5
34
330
17
100
AcDbEntity
  8
FoilLayer
100
AcDbLine
 10
385.86363636363603
 20
0.02968270866307805
 30
0.0
 11
385.74490552898374
 21
0.0712385007913873
 31
0.0
  0
LINE
  5
35
330
17
100
AcDbEntity
  8
FoilLayer
100
AcDbLine
 10
385.74490552898374
 20
0.0712385007913873
 30
0.0
 11
385.3946495667594
 21
0.18996933544369946
 31
0.0
  0
LINE
  5
36
330
17
100
AcDbEntity
  8
FoilLayer
100
AcDbLine
 10
385.3946495667594
 20
0.18996933544369946
 30
0.0
 11
384.83661464389354
 21
0.3858752126200146
 31
0.0
  0
LINE
  5
37
330
17
100
AcDbEntity
  8
FoilLayer
100
AcDbLine
 10
384.83661464389354
 20
0.3858752126200146
 30
0.0
 11
384.0708007603861
 21
0.6530195905877169
 31
0.0
  0
LINE
  5
38
330
17
100
AcDbEntity
  8
FoilLayer
100
AcDbLine
 10
384.0708007603861
 20
0.6530195905877169
 30
0.0
 11
383.1090809997024
 21
0.985465927614191
 31
0.0
  0
LINE
  5
39
330
17
100
AcDbEntity
  8
FoilLayer
100
AcDbLine
 10
383.1090809997024
 20
0.985465927614191
 30
0.0
 11
381.95145536184236
 21
1.383214223699437
 31
0.0
  0
LINE
  5
3A
330
17
100
AcDbEntity
  8
FoilLayer
100
AcDbLine
 10
381.95145536184236
 20
1.383214223699437
 30
0.0
 11
380.60979693027116
 21
1.8343913953782232
 31
0.0
  0
LINE
  5
3B
330
17
100
AcDbEntity
  8
FoilLayer
100
AcDbLine
 10
380.60979693027116
 20
1.8343913953782232
 30
0.0
 11
379.07816916325635
 21
2.344933984383166
 31
0.0
  0
LINE
  5
3C
330
17
100
AcDbEntity
  8
FoilLayer
100
AcDbLine
 10
379.07816916325635
 20
2.344933984383166
 30
0.0
 11
377.3684451442631
 21
2.914841990714264
 31
0.0
  0
LINE
  5
3D
330
17
100
AcDbEntity
  8
FoilLayer
100
AcDbLine
 10
377.3684451442631
 20
2.914841990714264
 30
0.0
 11
375.4806248732913
 21
3.5263057891736715
 31
0.0
  0
LINE
  5
3E
330
17
100
AcDbEntity
  8
FoilLayer
100
AcDbLine
 10
375.4806248732913
 20
3.5263057891736715
 30
0.0
 11
373.41470835034113
 21
4.191198463226621
 31
0.0
  0
LINE
  5
3F
330
17
100
AcDbEntity
  8
FoilLayer
100
AcDbLine
 10
373.41470835034113
 20
4.191198463226621
 30
0.0
 11
371.1706955754124
 21
4.897646929407876
 31
0.0
  0
LINE
  5
40
330
17
100
AcDbEntity
  8
FoilLayer
100
AcDbLine
 10
371.1706955754124
 20
4.897646929407876
 30
0.0
 11
368.75452309023785
 21
5.645651187717444
 31
0.0
  0
LINE
  5
41
330
17
100
AcDbEntity
  8
FoilLayer
100
AcDbLine
 10
368.75452309023785
 20
5.645651187717444
 30
0.0
 11
366.16025435308484
 21
6.441147779887936
 31
0.0
  0
LINE
  5
42
330
17
100
AcDbEntity
  8
FoilLayer
100
AcDbLine
 10
366.16025435308484
 20
6.441147779887936
 30
0.0
 11
363.39976244741865
 21
7.278200164186737
 31
0.0
  0
LINE
  5
43
330
17
100
AcDbEntity
  8
FoilLayer
100
AcDbLine
 10
363.39976244741865
 20
7.278200164186737
 30
0.0
 11
360.47304737323907
 21
8.15087179888123
 31
0.0
  0
LINE
  5
44
330
17
100
AcDbEntity
  8
FoilLayer
100
AcDbLine
 10
360.47304737323907
 20
8.15087179888123
 30
0.0
 11
357.3801091305463
 21
9.065099225704035
 31
0.0
  0
LINE
  5
45
330
17
100
AcDbEntity
  8
FoilLayer
100
AcDbLine
 10
357.3801091305463
 20
9.065099225704035
 30
0.0
 11
354.1209477193404
 21
10.01494590292253
 31
0.0
  0
LINE
  5
46
330
17
100
AcDbEntity
  8
FoilLayer
100
AcDbLine
 10
354.1209477193404
 20
10.01494590292253
 30
0.0
 11
350.6955631396212
 21
11.000411830536725
 31
0.0
  0
LINE
  5
47
330
17
100
AcDbEntity
  8
FoilLayer
100
AcDbLine
 10
350.6955631396212
 20
11.000411830536725
 30
0.0
 11
347.1098919331214
 21
12.021497008546607
 31
0.0
  0
LINE
  5
48
330
17
100
AcDbEntity
  8
FoilLayer
100
AcDbLine
 10
347.1098919331214
 20
12.021497008546607
 30
0.0
 11
343.3639340998409
 21
13.090074520417419
 31
0.0
  0
LINE
  5
49
330
17
100
AcDbEntity
  8
FoilLayer
100
AcDbLine
 10
343.3639340998409
 20
13.090074520417419
 30
0.0
 11
339.4636261815124
 21
14.194271282683921
 31
0.0
  0
LINE
  5
4A
330
17
100
AcDbEntity
  8
FoilLayer
100
AcDbLine
 10
339.4636261815124
 20
14.194271282683921
 30
0.0
 11
335.42084126160125
 21
15.345960378811348
 31
0.0
  0
LINE
  5
4B
330
17
100
AcDbEntity
  8
FoilLayer
100
AcDbLine
 10
335.42084126160125
 20
15.345960378811348
 30
0.0
 11
331.23557934010717
 21
16.527332183601857
 31
0.0
  0
LINE
  5
4C
330
17
100
AcDbEntity
  8
FoilLayer
100
AcDbLine
 10
331.23557934010717
 20
16.527332183601857
 30
0.0
 11
326.9019038752979
 21
17.750259780520672
 31
0.0
  0
LINE
  5
4D
330
17
100
AcDbEntity
  8
FoilLayer
100
AcDbLine
 10
326.9019038752979
 20
17.750259780520672
 30
0.0
 11
322.4376244923708
 21
19.00880662783518
 31
0.0
  0
LINE
  5
4E
330
17
100
AcDbEntity
  8
FoilLayer
100
AcDbLine
 10
322.4376244923708
 20
19.00880662783518
 30
0.0
 11
317.84274119132635
 21
20.308909267277997
 31
0.0
  0
LINE
  5
4F
330
17
100
AcDbEntity
  8
FoilLayer
100
AcDbLine
 10
317.84274119132635
 20
20.308909267277997
 30
0.0
 11
313.1291270556296
 21
21.63869461538389
 31
0.0
  0
LINE
  5
50
330
17
100
AcDbEntity
  8
FoilLayer
100
AcDbLine
 10
313.1291270556296
 20
21.63869461538389
 30
0.0
 11
308.2967820852805
 21
23.004099213885485
 31
0.0
  0
LINE
  5
51
330
17
100
AcDbEntity
  8
FoilLayer
100
AcDbLine
 10
308.2967820852805
 20
23.004099213885485
 30
0.0
 11
303.34570628027905
 21
24.393249979317535
 31
0.0
  0
LINE
  5
52
330
17
100
AcDbEntity
  8
FoilLayer
100
AcDbLine
 10
303.34570628027905
 20
24.393249979317535
 30
0.0
 11
298.2758996406253
 21
25.81208345341267
 31
0.0
  0
LINE
  5
53
330
17
100
AcDbEntity
  8
FoilLayer
100
AcDbLine
 10
298.2758996406253
 20
25.81208345341267
 30
0.0
 11
293.10517179151714
 21
27.260599636170873
 31
0.0
  0
LINE
  5
54
330
17
100
AcDbEntity
  8
FoilLayer
100
AcDbLine
 10
293.10517179151714
 20
27.260599636170873
 30
0.0
 11
287.8394592746871
 21
28.73879852759216
 31
0.0
  0
LINE
  5
55
330
17
100
AcDbEntity
  8
FoilLayer
100
AcDbLine
 10
287.8394592746871
 20
28.73879852759216
 30
0.0
 11
282.4846986318678
 21
30.234807044211294
 31
0.0
  0
LINE
  5
56
330
17
100
AcDbEntity
  8
FoilLayer
100
AcDbLine
 10
282.4846986318678
 20
30.234807044211294
 30
0.0
 11
277.0349533213266
 21
31.74268864429566
 31
0.0
  0
LINE
  5
57
330
17
100
AcDbEntity
  8
FoilLayer
100
AcDbLine
 10
277.0349533213266
 20
31.74268864429566
 30
0.0
 11
271.49615988479627
 21
33.26837986957787
 31
0.0
  0
LINE
  5
58
330
17
100
AcDbEntity
  8
FoilLayer
100
AcDbLine
 10
271.49615988479627
 20
33.26837986957787
 30
0.0
 11
265.87425486400934
 21
34.81188072005793
 31
0.0
  0
LINE
  5
59
330
17
100
AcDbEntity
  8
FoilLayer
100
AcDbLine
 10
265.87425486400934
 20
34.81188072005793
 30
0.0
 11
260.181111342431
 21
36.373191195735835
 31
0.0
  0
LINE
  5
5A
330
17
100
AcDbEntity
  8
FoilLayer
100
AcDbLine
 10
260.181111342431
 20
36.373191195735835
 30
0.0
 11
254.42266586179383
 21
37.94637475487898
 31
0.0
  0
LINE
  5
5B
330
17
100
AcDbEntity
  8
FoilLayer
100
AcDbLine
 10
254.42266586179383
 20
37.94637475487898
 30
0.0
 11
248.6048549638305
 21
39.50768523055688
 31
0.0
  0
LINE
  5
5C
330
17
100
AcDbEntity
  8
FoilLayer
100
AcDbLine
 10
248.6048549638305
 20
39.50768523055688
 30
0.0
 11
242.72174210680842
 21
41.06899570623478
 31
0.0
  0
LINE
  5
5D
330
17
100
AcDbEntity
  8
FoilLayer
100
AcDbLine
 10
242.72174210680842
 20
41.06899570623478
 30
0.0
 11
237.45454545454524
 21
42.451503410371735
 31
0.0
  0
LINE
  5
5E
330
17
100
AcDbEntity
  8
FoilLayer
100
AcDbLine
 10
237.45454545454524
 20
42.451503410371735
 30
0.0
 11
236.94679435537196
 21
40.51702962629289
 31
0.0
  0
LINE
  5
5F
330
17
100
AcDbEntity
  8
FoilLayer
100
AcDbLine
 10
236.94679435537196
 20
40.51702962629289
 30
0.0
 11
236.27293346056766
 21
40.693916238038305
 31
0.0
  0
LINE
  5
60
330
17
100
AcDbEntity
  8
FoilLayer
100
AcDbLine
 10
236.27293346056766
 20
40.693916238038305
 30
0.0
 11
230.28428915714105
 21
42.24149131165551
 31
0.0
  0
LINE
  5
61
330
17
100
AcDbEntity
  8
FoilLayer
100
AcDbLine
 10
230.28428915714105
 20
42.24149131165551
 30
0.0
 11
224.2498395042173
 21
43.776800575154965
 31
0.0
  0
LINE
  5
62
330
17
100
AcDbEntity
  8
FoilLayer
100
AcDbLine
 10
224.2498395042173
 20
43.776800575154965
 30
0.0
 11
218.1686552521342
 21
45.294158859322245
 31
0.0
  0
LINE
  5
63
330
17
100
AcDbEntity
  8
FoilLayer
100
AcDbLine
 10
218.1686552521342
 20
45.294158859322245
 30
0.0
 11
212.02626688237953
 21
46.79419914231278
 31
0.0
  0
LINE
  5
64
330
17
100
AcDbEntity
  8
FoilLayer
100
AcDbLine
 10
212.02626688237953
 20
46.79419914231278
 30
0.0
 11
205.8446744973185
 21
48.27731170788265
 31
0.0
  0
LINE
  5
65
330
17
100
AcDbEntity
  8
FoilLayer
100
AcDbLine
 10
205.8446744973185
 20
48.27731170788265
 30
0.0
 11
199.6332085588264
 21
49.753154840722246
 31
0.0
  0
LINE
  5
66
330
17
100
AcDbEntity
  8
FoilLayer
100
AcDbLine
 10
199.6332085588264
 20
49.753154840722246
 30
0.0
 11
193.4056722773948
 21
51.198976128405675
 31
0.0
  0
LINE
  5
67
330
17
100
AcDbEntity
  8
FoilLayer
100
AcDbLine
 10
193.4056722773948
 20
51.198976128405675
 30
0.0
 11
187.16245641561758
 21
52.60878650285711
 31
0.0
  0
LINE
  5
68
330
17
100
AcDbEntity
  8
FoilLayer
100
AcDbLine
 10
187.16245641561758
 20
52.60878650285711
 30
0.0
 11
180.90111857990686
 21
53.97596695526681
 31
0.0
  0
LINE
  5
69
330
17
100
AcDbEntity
  8
FoilLayer
100
AcDbLine
 10
180.90111857990686
 20
53.97596695526681
 30
0.0
 11
174.60508897160477
 21
55.28498116507999
 31
0.0
  0
LINE
  5
6A
330
17
100
AcDbEntity
  8
FoilLayer
100
AcDbLine
 10
174.60508897160477
 20
55.28498116507999
 30
0.0
 11
168.27232149571856
 21
56.55276698232539
 31
0.0
  0
LINE
  5
6B
330
17
100
AcDbEntity
  8
FoilLayer
100
AcDbLine
 10
168.27232149571856
 20
56.55276698232539
 30
0.0
 11
161.92414436822529
 21
57.77864683103312
 31
0.0
  0
LINE
  5
6C
330
17
100
AcDbEntity
  8
FoilLayer
100
AcDbLine
 10
161.92414436822529
 20
57.77864683103312
 30
0.0
 11
155.54704105678573
 21
58.957032176415396
 31
0.0
  0
LINE
  5
6D
330
17
100
AcDbEntity
  8
FoilLayer
100
AcDbLine
 10
155.54704105678573
 20
58.957032176415396
 30
0.0
 11
149.15867013699452
 21
60.0820307686494
 31
0.0
  0
LINE
  5
6E
330
17
100
AcDbEntity
  8
FoilLayer
100
AcDbLine
 10
149.15867013699452
 20
60.0820307686494
 30
0.0
 11
142.74622033674038
 21
61.15380655650218
 31
0.0
  0
LINE
  5
6F
330
17
100
AcDbEntity
  8
FoilLayer
100
AcDbLine
 10
142.74622033674038
 20
61.15380655650218
 30
0.0
 11
136.31620168871703
 21
62.17226434797178
 31
0.0
  0
LINE
  5
70
330
17
100
AcDbEntity
  8
FoilLayer
100
AcDbLine
 10
136.31620168871703
 20
62.17226434797178
 30
0.0
 11
129.8618770104517
 21
63.13752267176464
 31
0.0
  0
LINE
  5
71
330
17
100
AcDbEntity
  8
FoilLayer
100
AcDbLine
 10
129.8618770104517
 20
63.13752267176464
 30
0.0
 11
123.39544072539141
 21
64.0495240559325
 31
0.0
  0
LINE
  5
72
330
17
100
AcDbEntity
  8
FoilLayer
100
AcDbLine
 10
123.39544072539141
 20
64.0495240559325
 30
0.0
 11
116.92331320731287
 21
64.90820190457889
 31
0.0
  0
LINE
  5
73
330
17
100
AcDbEntity
  8
FoilLayer
100
AcDbLine
 10
116.92331320731287
 20
64.90820190457889
 30
0.0
 11
110.43909639083913
 21
65.71361542203172
 31
0.0
  0
LINE
  5
74
330
17
100
AcDbEntity
  8
FoilLayer
100
AcDbLine
 10
110.43909639083913
 20
65.71361542203172
 30
0.0
 11
103.952544732517
 21
66.46535138313405
 31
0.0
  0
LINE
  5
75
330
17
100
AcDbEntity
  8
FoilLayer
100
AcDbLine
 10
103.952544732517
 20
66.46535138313405
 30
0.0
 11
97.45649085298604
 21
67.15233093874963
 31
0.0
  0
LINE
  5
76
330
17
100
AcDbEntity
  8
FoilLayer
100
AcDbLine
 10
97.45649085298604
 20
67.15233093874963
 30
0.0
 11
90.95254964277675
 21
67.78619182707166
 31
0.0
  0
LINE
  5
77
330
17
100
AcDbEntity
  8
FoilLayer
100
AcDbLine
 10
90.95254964277675
 20
67.78619182707166
 30
0.0
 11
84.45209682666129
 21
68.37237897458601
 31
0.0
  0
LINE
  5
78
330
17
100
AcDbEntity
  8
FoilLayer
100
AcDbLine
 10
84.45209682666129
 20
68.37237897458601
 30
0.0
 11
77.9540316561719
 21
68.89962106319918
 31
0.0
  0
LINE
  5
79
330
17
100
AcDbEntity
  8
FoilLayer
100
AcDbLine
 10
77.9540316561719
 20
68.89962106319918
 30
0.0
 11
71.46534570970542
 21
69.37924759300296
 31
0.0
  0
LINE
  5
7A
330
17
100
AcDbEntity
  8
FoilLayer
100
AcDbLine
 10
71.46534570970542
 20
69.37924759300296
 30
0.0
 11
64.99470036739027
 21
69.79965455664778
 31
0.0
  0
LINE
  5
7B
330
17
100
AcDbEntity
  8
FoilLayer
100
AcDbLine
 10
64.99470036739027
 20
69.79965455664778
 30
0.0
 11
58.53602160914855
 21
70.16085439101776
 31
0.0
  0
LINE
  5
7C
330
17
100
AcDbEntity
  8
FoilLayer
100
AcDbLine
 10
58.53602160914855
 20
70.16085439101776
 30
0.0
 11
52.087398748597394
 21
70.46292239327971
 31
0.0
  0
LINE
  5
7D
330
17
100
AcDbEntity
  8
FoilLayer
100
AcDbLine
 10
52.087398748597394
 20
70.46292239327971
 30
0.0
 11
45.65663489905302
 21
70.71169268655017
 31
0.0
  0
LINE
  5
7E
330
17
100
AcDbEntity
  8
FoilLayer
100
AcDbLine
 10
45.65663489905302
 20
70.71169268655017
 30
0.0
 11
39.249667984388765
 21
70.90716633821522
 31
0.0
  0
LINE
  5
7F
330
17
100
AcDbEntity
  8
FoilLayer
100
AcDbLine
 10
39.249667984388765
 20
70.90716633821522
 30
0.0
 11
32.880430469241475
 21
71.04931655390095
 31
0.0
  0
LINE
  5
80
330
17
100
AcDbEntity
  8
FoilLayer
100
AcDbLine
 10
32.880430469241475
 20
71.04931655390095
 30
0.0
 11
26.535070270912286
 21
71.13227168405675
 31
0.0
  0
LINE
  5
81
330
17
100
AcDbEntity
  8
FoilLayer
100
AcDbLine
 10
26.535070270912286
 20
71.13227168405675
 30
0.0
 11
20.2274038112418
 21
71.15604721530993
 31
0.0
  0
LINE
  5
82
330
17
100
AcDbEntity
  8
FoilLayer
100
AcDbLine
 10
20.2274038112418
 20
71.15604721530993
 30
0.0
 11
13.93802033119178
 21
71.11464971746727
 31
0.0
  0
LINE
  5
83
330
17
100
AcDbEntity
  8
FoilLayer
100
AcDbLine
 10
13.93802033119178
 20
71.11464971746727
 30
0.0
 11
7.684508593985981
 21
71.0258813305625
 31
0.0
  0
LINE
  5
84
330
17
100
AcDbEntity
  8
FoilLayer
100
AcDbLine
 10
7.684508593985981
 20
71.0258813305625
 30
0.0
 11
1.482499032330992
 21
70.88986354415617
 31
0.0
  0
LINE
  5
85
330
17
100
AcDbEntity
  8
FoilLayer
100
AcDbLine
 10
1.482499032330992
 20
70.88986354415617
 30
0.0
 11
-4.679402864835367
 21
70.6946109685267
 31
0.0
  0
LINE
  5
86
330
17
100
AcDbEntity
  8
FoilLayer
100
AcDbLine
 10
-4.679402864835367
 20
70.6946109685267
 30
0.0
 11
-10.778006925913388
 21
70.44629226359608
 31
0.0
  0
LINE
  5
87
330
17
100
AcDbEntity
  8
FoilLayer
100
AcDbLine
 10
-10.778006925913388
 20
70.44629226359608
 30
0.0
 11
-16.83858226105434
 21
70.13269556602837
 31
0.0
  0
LINE
  5
88
330
17
100
AcDbEntity
  8
FoilLayer
100
AcDbLine
 10
-16.83858226105434
 20
70.13269556602837
 30
0.0
 11
-22.85140443819023
 21
69.76585938139682
 31
0.0
  0
LINE
  5
89
330
17
100
AcDbEntity
  8
FoilLayer
100
AcDbLine
 10
-22.85140443819023
 20
69.76585938139682
 30
0.0
 11
-28.81798312638844
 21
69.34567120330252
 31
0.0
  0
LINE
  5
8A
330
17
100
AcDbEntity
  8
FoilLayer
100
AcDbLine
 10
-28.81798312638844
 20
69.34567120330252
 30
0.0
 11
-34.71873078404758
 21
68.87819113589669
 31
0.0
  0
LINE
  5
8B
330
17
100
AcDbEntity
  8
FoilLayer
100
AcDbLine
 10
-34.71873078404758
 20
68.87819113589669
 30
0.0
 11
-40.543990869621496
 21
68.36380093659251
 31
0.0
  0
LINE
  5
8C
330
17
100
AcDbEntity
  8
FoilLayer
100
AcDbLine
 10
-40.543990869621496
 20
68.36380093659251
 30
0.0
 11
-46.30170742542475
 21
67.79054602969049
 31
0.0
  0
LINE
  5
8D
330
17
100
AcDbEntity
  8
FoilLayer
100
AcDbLine
 10
-46.30170742542475
 20
67.79054602969049
 30
0.0
 11
-52.00554880480237
 21
67.15161836437542
 31
0.0
  0
LINE
  5
8E
330
17
100
AcDbEntity
  8
FoilLayer
100
AcDbLine
 10
-52.00554880480237
 20
67.15161836437542
 30
0.0
 11
-57.643440645023844
 21
66.46546782893637
 31
0.0
  0
LINE
  5
8F
330
17
100
AcDbEntity
  8
FoilLayer
100
AcDbLine
 10
-57.643440645023844
 20
66.46546782893637
 30
0.0
 11
-63.20966637940384
 21
65.73208343301646
 31
0.0
  0
LINE
  5
90
330
17
100
AcDbEntity
  8
FoilLayer
100
AcDbLine
 10
-63.20966637940384
 20
65.73208343301646
 30
0.0
 11
-68.70568534423717
 21
64.95125702705315
 31
0.0
  0
LINE
  5
91
330
17
100
AcDbEntity
  8
FoilLayer
100
AcDbLine
 10
-68.70568534423717
 20
64.95125702705315
 30
0.0
 11
-74.11346976876303
 21
64.12989779031216
 31
0.0
  0
LINE
  5
92
330
17
100
AcDbEntity
  8
FoilLayer
100
AcDbLine
 10
-74.11346976876303
 20
64.12989779031216
 30
0.0
 11
-79.43230361516407
 21
63.25539597347701
 31
0.0
  0
LINE
  5
93
330
17
100
AcDbEntity
  8
FoilLayer
100
AcDbLine
 10
-79.43230361516407
 20
63.25539597347701
 30
0.0
 11
-84.67557948136765
 21
62.32746231582267
 31
0.0
  0
LINE
  5
94
330
17
100
AcDbEntity
  8
FoilLayer
100
AcDbLine
 10
-84.67557948136765
 20
62.32746231582267
 30
0.0
 11
-89.84027198706794
 21
61.3525847162702
 31
0.0
  0
LINE
  5
95
330
17
100
AcDbEntity
  8
FoilLayer
100
AcDbLine
 10
-89.84027198706794
 20
61.3525847162702
 30
0.0
 11
-94.91746813838597
 21
60.330184968169384
 31
0.0
  0
LINE
  5
96
330
17
100
AcDbEntity
  8
FoilLayer
100
AcDbLine
 10
-94.91746813838597
 20
60.330184968169384
 30
0.0
 11
-99.90671666596155
 21
59.2662475366576
 31
0.0
  0
LINE
  5
97
330
17
100
AcDbEntity
  8
FoilLayer
100
AcDbLine
 10
-99.90671666596155
 20
59.2662475366576
 30
0.0
 11
-104.7969588689757
 21
58.167886495712196
 31
0.0
  0
LINE
  5
98
330
17
100
AcDbEntity
  8
FoilLayer
100
AcDbLine
 10
-104.7969588689757
 20
58.167886495712196
 30
0.0
 11
-109.57659760471005
 21
57.0292629053919
 31
0.0
  0
LINE
  5
99
330
17
100
AcDbEntity
  8
FoilLayer
100
AcDbLine
 10
-109.57659760471005
 20
57.0292629053919
 30
0.0
 11
-114.2681049005991
 21
55.83742372406524
 31
0.0
  0
LINE
  5
9A
330
17
100
AcDbEntity
  8
FoilLayer
100
AcDbLine
 10
-114.2681049005991
 20
55.83742372406524
 30
0.0
 11
-118.86612923971929
 21
54.59810136297211
 31
0.0
  0
LINE
  5
9B
330
17
100
AcDbEntity
  8
FoilLayer
100
AcDbLine
 10
-118.86612923971929
 20
54.59810136297211
 30
0.0
 11
-123.37403143041743
 21
53.316169902794044
 31
0.0
  0
LINE
  5
9C
330
17
100
AcDbEntity
  8
FoilLayer
100
AcDbLine
 10
-123.37403143041743
 20
53.316169902794044
 30
0.0
 11
-127.76780097425441
 21
52.01302216652556
 31
0.0
  0
LINE
  5
9D
330
17
100
AcDbEntity
  8
FoilLayer
100
AcDbLine
 10
-127.76780097425441
 20
52.01302216652556
 30
0.0
 11
-132.06052006262377
 21
50.668843659938034
 31
0.0
  0
LINE
  5
9E
330
17
100
AcDbEntity
  8
FoilLayer
100
AcDbLine
 10
-132.06052006262377
 20
50.668843659938034
 30
0.0
 11
-136.2410090926594
 21
49.28934403443545
 31
0.0
  0
LINE
  5
9F
330
17
100
AcDbEntity
  8
FoilLayer
100
AcDbLine
 10
-136.2410090926594
 20
49.28934403443545
 30
0.0
 11
-140.31781973256932
 21
47.87571294161592
 31
0.0
  0
LINE
  5
A0
330
17
100
AcDbEntity
  8
FoilLayer
100
AcDbLine
 10
-140.31781973256932
 20
47.87571294161592
 30
0.0
 11
-144.28502168195246
 21
46.42583099903744
 31
0.0
  0
LINE
  5
A1
330
17
100
AcDbEntity
  8
FoilLayer
100
AcDbLine
 10
-144.28502168195246
 20
46.42583099903744
 30
0.0
 11
-148.15082248401134
 21
44.94694272982755
 31
0.0
  0
LINE
  5
A2
330
17
100
AcDbEntity
  8
FoilLayer
100
AcDbLine
 10
-148.15082248401134
 20
44.94694272982755
 30
0.0
 11
-151.90157419293607
 21
43.44576330935123
 31
0.0
  0
LINE
  5
A3
330
17
100
AcDbEntity
  8
FoilLayer
100
AcDbLine
 10
-151.90157419293607
 20
43.44576330935123
 30
0.0
 11
-155.53223063076695
 21
41.92204433526917
 31
0.0
  0
LINE
  5
A4
330
17
100
AcDbEntity
  8
FoilLayer
100
AcDbLine
 10
-155.53223063076695
 20
41.92204433526917
 30
0.0
 11
-159.04014542004634
 21
40.37711282949501
 31
0.0
  0
LINE
  5
A5
330
17
100
AcDbEntity
  8
FoilLayer
100
AcDbLine
 10
-159.04014542004634
 20
40.37711282949501
 30
0.0
 11
-162.43429630849482
 21
38.80095638968452
 31
0.0
  0
LINE
  5
A6
330
17
100
AcDbEntity
  8
FoilLayer
100
AcDbLine
 10
-162.43429630849482
 20
38.80095638968452
 30
0.0
 11
-165.71167929883597
 21
37.209682360415066
 31
0.0
  0
LINE
  5
A7
330
17
100
AcDbEntity
  8
FoilLayer
100
AcDbLine
 10
-165.71167929883597
 20
37.209682360415066
 30
0.0
 11
-168.87994702038208
 21
35.593574081875275
 31
0.0
  0
LINE
  5
A8
330
17
100
AcDbEntity
  8
FoilLayer
100
AcDbLine
 10
-168.87994702038208
 20
35.593574081875275
 30
0.0
 11
-171.91652188791218
 21
33.97617775718666
 31
0.0
  0
LINE
  5
A9
330
17
100
AcDbEntity
  8
FoilLayer
100
AcDbLine
 10
-171.91652188791218
 20
33.97617775718666
 30
0.0
 11
-174.83307643245493
 21
32.339355071325414
 31
0.0
  0
LINE
  5
AA
330
17
100
AcDbEntity
  8
FoilLayer
100
AcDbLine
 10
-174.83307643245493
 20
32.339355071325414
 30
0.0
 11
-177.6078822717986
 21
30.710325755670926
 31
0.0
  0
LINE
  5
AB
330
17
100
AcDbEntity
  8
FoilLayer
100
AcDbLine
 10
-177.6078822717986
 20
30.710325755670926
 30
0.0
 11
-180.25969173134968
 21
29.058108030929052
 31
0.0
  0
LINE
  5
AC
330
17
100
AcDbEntity
  8
FoilLayer
100
AcDbLine
 10
-180.25969173134968
 20
29.058108030929052
 30
0.0
 11
-182.78432590102676
 21
27.393248036759058
 31
0.0
  0
LINE
  5
AD
330
17
100
AcDbEntity
  8
FoilLayer
100
AcDbLine
 10
-182.78432590102676
 20
27.393248036759058
 30
0.0
 11
-185.1986381116389
 21
25.716150160695264
 31
0.0
  0
LINE
  5
AE
330
17
100
AcDbEntity
  8
FoilLayer
100
AcDbLine
 10
-185.1986381116389
 20
25.716150160695264
 30
0.0
 11
-187.4820265099237
 21
24.051134228306058
 31
0.0
  0
LINE
  5
AF
330
17
100
AcDbEntity
  8
FoilLayer
100
AcDbLine
 10
-187.4820265099237
 20
24.051134228306058
 30
0.0
 11
-189.62842067459283
 21
22.39435695433031
 31
0.0
  0
LINE
  5
B0
330
17
100
AcDbEntity
  8
FoilLayer
100
AcDbLine
 10
-189.62842067459283
 20
22.39435695433031
 30
0.0
 11
-191.6341767989868
 21
20.75439211681393
 31
0.0
  0
LINE
  5
B1
330
17
100
AcDbEntity
  8
FoilLayer
100
AcDbLine
 10
-191.6341767989868
 20
20.75439211681393
 30
0.0
 11
-193.50587738090994
 21
19.109620081838916
 31
0.0
  0
LINE
  5
B2
330
17
100
AcDbEntity
  8
FoilLayer
100
AcDbLine
 10
-193.50587738090994
 20
19.109620081838916
 30
0.0
 11
-195.25217465265445
 21
17.463076406627962
 31
0.0
  0
LINE
  5
B3
330
17
100
AcDbEntity
  8
FoilLayer
100
AcDbLine
 10
-195.25217465265445
 20
17.463076406627962
 30
0.0
 11
-196.86895274816882
 21
15.83675184920285
 31
0.0
  0
LINE
  5
B4
330
17
100
AcDbEntity
  8
FoilLayer
100
AcDbLine
 10
-196.86895274816882
 20
15.83675184920285
 30
0.0
 11
-198.36016091598123
 21
14.220670808114017
 31
0.0
  0
LINE
  5
B5
330
17
100
AcDbEntity
  8
FoilLayer
100
AcDbLine
 10
-198.36016091598123
 20
14.220670808114017
 30
0.0
 11
-199.7165902899834
 21
12.645006164407953
 31
0.0
  0
LINE
  5
B6
330
17
100
AcDbEntity
  8
FoilLayer
100
AcDbLine
 10
-199.7165902899834
 20
12.645006164407953
 30
0.0
 11
-200.94055444793443
 21
11.088251467278889
 31
0.0
  0
LINE
  5
B7
330
17
100
AcDbEntity
  8
FoilLayer
100
AcDbLine
 10
-200.94055444793443
 20
11.088251467278889
 30
0.0
 11
-202.023631402361
 21
9.580837132883522
 31
0.0
  0
LINE
  5
B8
330
17
100
AcDbEntity
  8
FoilLayer
100
AcDbLine
 10
-202.023631402361
 20
9.580837132883522
 30
0.0
 11
-202.96560463557327
 21
8.121470026194693
 31
0.0
  0
LINE
  5
B9
330
17
100
AcDbEntity
  8
FoilLayer
100
AcDbLine
 10
-202.96560463557327
 20
8.121470026194693
 30
0.0
 11
-203.77873960345607
 21
6.680227566647786
 31
0.0
  0
LINE
  5
BA
330
17
100
AcDbEntity
  8
FoilLayer
100
AcDbLine
 10
-203.77873960345607
 20
6.680227566647786
 30
0.0
 11
-204.4291548935848
 21
5.3635803724946545
 31
0.0
  0
LINE
  5
BB
330
17
100
AcDbEntity
  8
FoilLayer
100
AcDbLine
 10
-204.4291548935848
 20
5.3635803724946545
 30
0.0
 11
-204.99103956259606
 21
3.9145561713834898
 31
0.0
  0
LINE
  5
BC
330
17
100
AcDbEntity
  8
FoilLayer
100
AcDbLine
 10
-204.99103956259606
 20
3.9145561713834898
 30
0.0
 11
-205.36374465211958
 21
2.8919337242768544
 31
0.0
  0
LINE
  5
BD
330
17
100
AcDbEntity
  8
FoilLayer
100
AcDbLine
 10
-205.36374465211958
 20
2.8919337242768544
 30
0.0
 11
-205.63335696964987
 21
1.5434933958707844
 31
0.0
  0
LINE
  5
BE
330
17
100
AcDbEntity
  8
FoilLayer
100
AcDbLine
 10
-205.63335696964987
 20
1.5434933958707844
 30
0.0
 11
-205.77272727272705
 21
0.17809625197846826
 31
0.0
  0
LINE
  5
BF
330
17
100
AcDbEntity
  8
FoilLayer
100
AcDbLine
 10
-205.77272727272705
 20
0.17809625197846826
 30
0.0
 11
-205.78043821153233
 21
-0.08732731377551503
 31
0.0
  0
LINE
  5
C0
330
17
100
AcDbEntity
  8
FoilLayer
100
AcDbLine
 10
-205.78043821153233
 20
-0.08732731377551503
 30
0.0
 11
-205.68039257163792
 21
-1.2705634236280239
 31
0.0
  0
LINE
  5
C1
330
17
100
AcDbEntity
  8
FoilLayer
100
AcDbLine
 10
-205.68039257163792
 20
-1.2705634236280239
 30
0.0
 11
-205.4298000711483
 21
-2.1134227473621414
 31
0.0
  0
LINE
  5
C2
330
17
100
AcDbEntity
  8
FoilLayer
100
AcDbLine
 10
-205.4298000711483
 20
-2.1134227473621414
 30
0.0
 11
-205.0474313560639
 21
-2.93211537067217
 31
0.0
  0
LINE
  5
C3
330
17
100
AcDbEntity
  8
FoilLayer
100
AcDbLine
 10
-205.0474313560639
 20
-2.93211537067217
 30
0.0
 11
-204.4751862707759
 21
-3.774466958080779
 31
0.0
  0
LINE
  5
C4
330
17
100
AcDbEntity
  8
FoilLayer
100
AcDbLine
 10
-204.4751862707759
 20
-3.774466958080779
 30
0.0
 11
-203.76225751284818
 21
-4.594674858568583
 31
0.0
  0
LINE
  5
C5
330
17
100
AcDbEntity
  8
FoilLayer
100
AcDbLine
 10
-203.76225751284818
 20
-4.594674858568583
 30
0.0
 11
-202.87316817656458
 21
-5.397607502075248
 31
0.0
  0
LINE
  5
C6
330
17
100
AcDbEntity
  8
FoilLayer
100
AcDbLine
 10
-202.87316817656458
 20
-5.397607502075248
 30
0.0
 11
-201.8230542201171
 21
-6.162740574358843
 31
0.0
  0
LINE
  5
C7
330
17
100
AcDbEntity
  8
FoilLayer
100
AcDbLine
 10
-201.8230542201171
 20
-6.162740574358843
 30
0.0
 11
-200.57485668886213
 21
-6.890603899699142
 31
0.0
  0
LINE
  5
C8
330
17
100
AcDbEntity
  8
FoilLayer
100
AcDbLine
 10
-200.57485668886213
 20
-6.890603899699142
 30
0.0
 11
-199.07814273880035
 21
-7.5927590825444415
 31
0.0
  0
LINE
  5
C9
330
17
100
AcDbEntity
  8
FoilLayer
100
AcDbLine
 10
-199.07814273880035
 20
-7.5927590825444415
 30
0.0
 11
-197.35360725775342
 21
-8.28114033872565
 31
0.0
  0
LINE
  5
CA
330
17
100
AcDbEntity
  8
FoilLayer
100
AcDbLine
 10
-197.35360725775342
 20
-8.28114033872565
 30
0.0
 11
-195.42685811464682
 21
-8.95519386255091
 31
0.0
  0
LINE
  5
CB
330
17
100
AcDbEntity
  8
FoilLayer
100
AcDbLine
 10
-195.42685811464682
 20
-8.95519386255091
 30
0.0
 11
-193.36589431914152
 21
-9.60223070677479
 31
0.0
  0
LINE
  5
CC
330
17
100
AcDbEntity
  8
FoilLayer
100
AcDbLine
 10
-193.36589431914152
 20
-9.60223070677479
 30
0.0
 11
-191.12816313325516
 21
-10.200607498903032
 31
0.0
  0
LINE
  5
CD
330
17
100
AcDbEntity
  8
FoilLayer
100
AcDbLine
 10
-191.12816313325516
 20
-10.200607498903032
 30
0.0
 11
-188.6947167978898
 21
-10.747314811993347
 31
0.0
  0
LINE
  5
CE
330
17
100
AcDbEntity
  8
FoilLayer
100
AcDbLine
 10
-188.6947167978898
 20
-10.747314811993347
 30
0.0
 11
-186.0630484389107
 21
-11.262368997277754
 31
0.0
  0
LINE
  5
CF
330
17
100
AcDbEntity
  8
FoilLayer
100
AcDbLine
 10
-186.0630484389107
 20
-11.262368997277754
 30
0.0
 11
-183.24371558121157
 21
-11.755067086775117
 31
0.0
  0
LINE
  5
D0
330
17
100
AcDbEntity
  8
FoilLayer
100
AcDbLine
 10
-183.24371558121157
 20
-11.755067086775117
 30
0.0
 11
-180.28186196803472
 21
-12.217173068997681
 31
0.0
  0
LINE
  5
D1
330
17
100
AcDbEntity
  8
FoilLayer
100
AcDbLine
 10
-180.28186196803472
 20
-12.217173068997681
 30
0.0
 11
-177.15588275495446
 21
-12.62744379346538
 31
0.0
  0
LINE
  5
D2
330
17
100
AcDbEntity
  8
FoilLayer
100
AcDbLine
 10
-177.15588275495446
 20
-12.62744379346538
 30
0.0
 11
-173.8539862744085
 21
-12.986135932555895
 31
0.0
  0
LINE
  5
D3
330
17
100
AcDbEntity
  8
FoilLayer
100
AcDbLine
 10
-173.8539862744085
 20
-12.986135932555895
 30
0.0
 11
-170.35473659374787
 21
-13.304898780974877
 31
0.0
  0
LINE
  5
D4
330
17
100
AcDbEntity
  8
FoilLayer
100
AcDbLine
 10
-170.35473659374787
 20
-13.304898780974877
 30
0.0
 11
-166.68084346940725
 21
-13.600315412843798
 31
0.0
  0
LINE
  5
D5
330
17
100
AcDbEntity
  8
FoilLayer
100
AcDbLine
 10
-166.68084346940725
 20
-13.600315412843798
 30
0.0
 11
-162.85970690886228
 21
-13.871735710999806
 31
0.0
  0
LINE
  5
D6
330
17
100
AcDbEntity
  8
FoilLayer
100
AcDbLine
 10
-162.85970690886228
 20
-13.871735710999806
 30
0.0
 11
-158.90320438406542
 21
-14.101625123577433
 31
0.0
  0
LINE
  5
D7
330
17
100
AcDbEntity
  8
FoilLayer
100
AcDbLine
 10
-158.90320438406542
 20
-14.101625123577433
 30
0.0
 11
-154.78185944948115
 21
-14.272981062309809
 31
0.0
  0
LINE
  5
D8
330
17
100
AcDbEntity
  8
FoilLayer
100
AcDbLine
 10
-154.78185944948115
 20
-14.272981062309809
 30
0.0
 11
-150.49615383412697
 21
-14.403113759170154
 31
0.0
  0
LINE
  5
D9
330
17
100
AcDbEntity
  8
FoilLayer
100
AcDbLine
 10
-150.49615383412697
 20
-14.403113759170154
 30
0.0
 11
-146.02563434716134
 21
-14.497886727146089
 31
0.0
  0
LINE
  5
DA
330
17
100
AcDbEntity
  8
FoilLayer
100
AcDbLine
 10
-146.02563434716134
 20
-14.497886727146089
 30
0.0
 11
-141.41942035331846
 21
-14.568926745765776
 31
0.0
  0
LINE
  5
DB
330
17
100
AcDbEntity
  8
FoilLayer
100
AcDbLine
 10
-141.41942035331846
 20
-14.568926745765776
 30
0.0
 11
-136.67209427256833
 21
-14.598583875399886
 31
0.0
  0
LINE
  5
DC
330
17
100
AcDbEntity
  8
FoilLayer
100
AcDbLine
 10
-136.67209427256833
 20
-14.598583875399886
 30
0.0
 11
-131.78703610691565
 21
-14.580927336540636
 31
0.0
  0
LINE
  5
DD
330
17
100
AcDbEntity
  8
FoilLayer
100
AcDbLine
 10
-131.78703610691565
 20
-14.580927336540636
 30
0.0
 11
-126.73373445880108
 21
-14.51578959672944
 31
0.0
  0
LINE
  5
DE
330
17
100
AcDbEntity
  8
FoilLayer
100
AcDbLine
 10
-126.73373445880108
 20
-14.51578959672944
 30
0.0
 11
-121.51519980249135
 21
-14.420915054687573
 31
0.0
  0
LINE
  5
DF
330
17
100
AcDbEntity
  8
FoilLayer
100
AcDbLine
 10
-121.51519980249135
 20
-14.420915054687573
 30
0.0
 11
-116.15252427510643
 21
-14.308352991992358
 31
0.0
  0
LINE
  5
E0
330
17
100
AcDbEntity
  8
FoilLayer
100
AcDbLine
 10
-116.15252427510643
 20
-14.308352991992358
 30
0.0
 11
-110.67689202167789
 21
-14.166343987190134
 31
0.0
  0
LINE
  5
E1
330
17
100
AcDbEntity
  8
FoilLayer
100
AcDbLine
 10
-110.67689202167789
 20
-14.166343987190134
 30
0.0
 11
-105.06573417467104
 21
-13.976766738991591
 31
0.0
  0
LINE
  5
E2
330
17
100
AcDbEntity
  8
FoilLayer
100
AcDbLine
 10
-105.06573417467104
 20
-13.976766738991591
 30
0.0
 11
-99.31735409556146
 21
-13.751597859419153
 31
0.0
  0
LINE
  5
E3
330
17
100
AcDbEntity
  8
FoilLayer
100
AcDbLine
 10
-99.31735409556146
 20
-13.751597859419153
 30
0.0
 11
-93.41046160375069
 21
-13.490388543479238
 31
0.0
  0
LINE
  5
E4
330
17
100
AcDbEntity
  8
FoilLayer
100
AcDbLine
 10
-93.41046160375069
 20
-13.490388543479238
 30
0.0
 11
-87.37322869083339
 21
-13.22352629044721
 31
0.0
  0
LINE
  5
E5
330
17
100
AcDbEntity
  8
FoilLayer
100
AcDbLine
 10
-87.37322869083339
 20
-13.22352629044721
 30
0.0
 11
-81.23081506685168
 21
-12.933022162269875
 31
0.0
  0
LINE
  5
E6
330
17
100
AcDbEntity
  8
FoilLayer
100
AcDbLine
 10
-81.23081506685168
 20
-12.933022162269875
 30
0.0
 11
-74.98467360643443
 21
-12.613041351614891
 31
0.0
  0
LINE
  5
E7
330
17
100
AcDbEntity
  8
FoilLayer
100
AcDbLine
 10
-74.98467360643443
 20
-12.613041351614891
 30
0.0
 11
-68.60980531712076
 21
-12.251316650652262
 31
0.0
  0
LINE
  5
E8
330
17
100
AcDbEntity
  8
FoilLayer
100
AcDbLine
 10
-68.60980531712076
 20
-12.251316650652262
 30
0.0
 11
-62.101103335147144
 21
-11.859370543493572
 31
0.0
  0
LINE
  5
E9
330
17
100
AcDbEntity
  8
FoilLayer
100
AcDbLine
 10
-62.101103335147144
 20
-11.859370543493572
 30
0.0
 11
-59.48160429563049
 21
-11.704592623522132
 31
0.0
  0
LINE
  5
EA
330
17
100
AcDbEntity
  8
FoilLayer
100
AcDbLine
 10
-59.48160429563049
 20
-11.704592623522132
 30
0.0
 11
-59.36363636363629
 21
-13.70111048395339
 31
0.0
  0
LINE
  5
EB
330
17
100
AcDbEntity
  8
FoilLayer
100
AcDbLine
 10
-59.36363636363629
 20
-13.70111048395339
 30
0.0
 11
-55.352018287821295
 21
-13.464076649572199
 31
0.0
  0
LINE
  5
EC
330
17
100
AcDbEntity
  8
FoilLayer
100
AcDbLine
 10
-55.352018287821295
 20
-13.464076649572199
 30
0.0
 11
-48.631853046500424
 21
-13.06039181175434
 31
0.0
  0
LINE
  5
ED
330
17
100
AcDbEntity
  8
FoilLayer
100
AcDbLine
 10
-48.631853046500424
 20
-13.06039181175434
 30
0.0
 11
-41.8226396791903
 21
-12.632960807006016
 31
0.0
  0
LINE
  5
EE
330
17
100
AcDbEntity
  8
FoilLayer
100
AcDbLine
 10
-41.8226396791903
 20
-12.632960807006016
 30
0.0
 11
-34.91250510242571
 21
-12.163974010129381
 31
0.0
  0
LINE
  5
EF
330
17
100
AcDbEntity
  8
FoilLayer
100
AcDbLine
 10
-34.91250510242571
 20
-12.163974010129381
 30
0.0
 11
-27.89551277447407
 21
-11.683114129787517
 31
0.0
  0
LINE
  5
F0
330
17
100
AcDbEntity
  8
FoilLayer
100
AcDbLine
 10
-27.89551277447407
 20
-11.683114129787517
 30
0.0
 11
-20.77759923706796
 21
-11.202254249445653
 31
0.0
  0
LINE
  5
F1
330
17
100
AcDbEntity
  8
FoilLayer
100
AcDbLine
 10
-20.77759923706796
 20
-11.202254249445653
 30
0.0
 11
-13.582510657137874
 21
-10.727330910836406
 31
0.0
  0
LINE
  5
F2
330
17
100
AcDbEntity
  8
FoilLayer
100
AcDbLine
 10
-13.582510657137874
 20
-10.727330910836406
 30
0.0
 11
-6.322120118148945
 21
-10.222724863564078
 31
0.0
  0
LINE
  5
F3
330
17
100
AcDbEntity
  8
FoilLayer
100
AcDbLine
 10
-6.322120118148945
 20
-10.222724863564078
 30
0.0
 11
1.0154454633639318
 21
-9.700309191093906
 31
0.0
  0
LINE
  5
F4
330
17
100
AcDbEntity
  8
FoilLayer
100
AcDbLine
 10
1.0154454633639318
 20
-9.700309191093906
 30
0.0
 11
8.436122629133422
 21
-9.171956976891115
 31
0.0
  0
LINE
  5
F5
330
17
100
AcDbEntity
  8
FoilLayer
100
AcDbLine
 10
8.436122629133422
 20
-9.171956976891115
 30
0.0
 11
15.928038295694336
 21
-8.643604762688327
 31
0.0
  0
LINE
  5
F6
330
17
100
AcDbEntity
  8
FoilLayer
100
AcDbLine
 10
15.928038295694336
 20
-8.643604762688327
 30
0.0
 11
23.479319379581426
 21
-8.127125631950769
 31
0.0
  0
LINE
  5
F7
330
17
100
AcDbEntity
  8
FoilLayer
100
AcDbLine
 10
23.479319379581426
 20
-8.127125631950769
 30
0.0
 11
31.066219713864115
 21
-7.598773417747979
 31
0.0
  0
LINE
  5
F8
330
17
100
AcDbEntity
  8
FoilLayer
100
AcDbLine
 10
31.066219713864115
 20
-7.598773417747979
 30
0.0
 11
38.70654892374043
 21
-7.052611578347343
 31
0.0
  0
LINE
  5
F9
330
17
100
AcDbEntity
  8
FoilLayer
100
AcDbLine
 10
38.70654892374043
 20
-7.052611578347343
 30
0.0
 11
46.40624355094289
 21
-6.506449738946708
 31
0.0
  0
LINE
  5
FA
330
17
100
AcDbEntity
  8
FoilLayer
100
AcDbLine
 10
46.40624355094289
 20
-6.506449738946708
 30
0.0
 11
54.15343051200628
 21
-5.972160983011303
 31
0.0
  0
LINE
  5
FB
330
17
100
AcDbEntity
  8
FoilLayer
100
AcDbLine
 10
54.15343051200628
 20
-5.972160983011303
 30
0.0
 11
61.92436364000011
 21
-5.44974531054113
 31
0.0
  0
LINE
  5
FC
330
17
100
AcDbEntity
  8
FoilLayer
100
AcDbLine
 10
61.92436364000011
 20
-5.44974531054113
 30
0.0
 11
69.71310639319174
 21
-4.921393096338339
 31
0.0
  0
LINE
  5
FD
330
17
100
AcDbEntity
  8
FoilLayer
100
AcDbLine
 10
69.71310639319174
 20
-4.921393096338339
 30
0.0
 11
77.51965877158128
 21
-4.387104340402935
 31
0.0
  0
LINE
  5
FE
330
17
100
AcDbEntity
  8
FoilLayer
100
AcDbLine
 10
77.51965877158128
 20
-4.387104340402935
 30
0.0
 11
85.36776694209911
 21
-3.8528155844675296
 31
0.0
  0
LINE
  5
FF
330
17
100
AcDbEntity
  8
FoilLayer
100
AcDbLine
 10
85.36776694209911
 20
-3.8528155844675296
 30
0.0
 11
93.2336847378148
 21
-3.336336453729972
 31
0.0
  0
LINE
  5
100
330
17
100
AcDbEntity
  8
FoilLayer
100
AcDbLine
 10
93.2336847378148
 20
-3.336336453729972
 30
0.0
 11
101.0936659917979
 21
-2.843603489922877
 31
0.0
  0
LINE
  5
101
330
17
100
AcDbEntity
  8
FoilLayer
100
AcDbLine
 10
101.0936659917979
 20
-2.843603489922877
 30
0.0
 11
108.94177416231562
 21
-2.350870526115781
 31
0.0
  0
LINE
  5
102
330
17
100
AcDbEntity
  8
FoilLayer
100
AcDbLine
 10
108.94177416231562
 20
-2.350870526115781
 30
0.0
 11
116.78394579110093
 21
-1.8462644788434543
 31
0.0
  0
LINE
  5
103
330
17
100
AcDbEntity
  8
FoilLayer
100
AcDbLine
 10
116.78394579110093
 20
-1.8462644788434543
 30
0.0
 11
124.63205396161877
 21
-1.3535315150363587
 31
0.0
  0
LINE
  5
104
330
17
100
AcDbEntity
  8
FoilLayer
100
AcDbLine
 10
124.63205396161877
 20
-1.3535315150363587
 30
0.0
 11
132.46828904867138
 21
-0.8845447181597257
 31
0.0
  0
LINE
  5
105
330
17
100
AcDbEntity
  8
FoilLayer
100
AcDbLine
 10
132.46828904867138
 20
-0.8845447181597257
 30
0.0
 11
140.27484142706086
 21
-0.4274310047483238
 31
0.0
  0
LINE
  5
106
330
17
100
AcDbEntity
  8
FoilLayer
100
AcDbLine
 10
140.27484142706086
 20
-0.4274310047483238
 30
0.0
 11
148.03390147158953
 21
0.023746166930462432
 31
0.0
  0
LINE
  5
107
330
17
100
AcDbEntity
  8
FoilLayer
100
AcDbLine
 10
148.03390147158953
 20
0.023746166930462432
 30
0.0
 11
155.7692153491876
 21
0.48085988034186433
 31
0.0
  0
LINE
  5
108
330
17
100
AcDbEntity
  8
FoilLayer
100
AcDbLine
 10
155.7692153491876
 20
0.48085988034186433
 30
0.0
 11
163.48078305985527
 21
0.926100510288035
 31
0.0
  0
LINE
  5
109
330
17
100
AcDbEntity
  8
FoilLayer
100
AcDbLine
 10
163.48078305985527
 20
0.926100510288035
 30
0.0
 11
171.15673152012724
 21
1.3475949733037431
 31
0.0
  0
LINE
  5
10A
330
17
100
AcDbEntity
  8
FoilLayer
100
AcDbLine
 10
171.15673152012724
 20
1.3475949733037431
 30
0.0
 11
178.76737802134048
 21
1.7512798111216046
 31
0.0
  0
LINE
  5
10B
330
17
100
AcDbEntity
  8
FoilLayer
100
AcDbLine
 10
178.76737802134048
 20
1.7512798111216046
 30
0.0
 11
186.31865910522757
 21
2.154964648939466
 31
0.0
  0
LINE
  5
10C
330
17
100
AcDbEntity
  8
FoilLayer
100
AcDbLine
 10
186.31865910522757
 20
2.154964648939466
 30
0.0
 11
193.82244785525367
 21
2.564586028489943
 31
0.0
  0
LINE
  5
10D
330
17
100
AcDbEntity
  8
FoilLayer
100
AcDbLine
 10
193.82244785525367
 20
2.564586028489943
 30
0.0
 11
201.2787442714189
 21
2.9504612411099576
 31
0.0
  0
LINE
  5
10E
330
17
100
AcDbEntity
  8
FoilLayer
100
AcDbLine
 10
201.2787442714189
 20
2.9504612411099576
 30
0.0
 11
208.67567527025793
 21
3.3066537450668947
 31
0.0
  0
LINE
  5
10F
330
17
100
AcDbEntity
  8
FoilLayer
100
AcDbLine
 10
208.67567527025793
 20
3.3066537450668947
 30
0.0
 11
215.98949468484037
 21
3.6450366238259844
 31
0.0
  0
LINE
  5
110
330
17
100
AcDbEntity
  8
FoilLayer
100
AcDbLine
 10
215.98949468484037
 20
3.6450366238259844
 30
0.0
 11
223.22020251516616
 21
3.983419502585074
 31
0.0
  0
LINE
  5
111
330
17
100
AcDbEntity
  8
FoilLayer
100
AcDbLine
 10
223.22020251516616
 20
3.983419502585074
 30
0.0
 11
230.38560838643318
 21
4.309929297878932
 31
0.0
  0
LINE
  5
112
330
17
100
AcDbEntity
  8
FoilLayer
100
AcDbLine
 10
230.38560838643318
 20
4.309929297878932
 30
0.0
 11
237.47977575690888
 21
4.606756384509713
 31
0.0
  0
LINE
  5
113
330
17
100
AcDbEntity
  8
FoilLayer
100
AcDbLine
 10
237.47977575690888
 20
4.606756384509713
 30
0.0
 11
244.4848950013953
 21
4.862027679012184
 31
0.0
  0
LINE
  5
114
330
17
100
AcDbEntity
  8
FoilLayer
100
AcDbLine
 10
244.4848950013953
 20
4.862027679012184
 30
0.0
 11
251.38909303642723
 21
5.087616264851576
 31
0.0
  0
LINE
  5
115
330
17
100
AcDbEntity
  8
FoilLayer
100
AcDbLine
 10
251.38909303642723
 20
5.087616264851576
 30
0.0
 11
258.18049677853946
 21
5.301331767225738
 31
0.0
  0
LINE
  5
116
330
17
100
AcDbEntity
  8
FoilLayer
100
AcDbLine
 10
258.18049677853946
 20
5.301331767225738
 30
0.0
 11
264.88285239466245
 21
5.485364560936823
 31
0.0
  0
LINE
  5
117
330
17
100
AcDbEntity
  8
FoilLayer
100
AcDbLine
 10
264.88285239466245
 20
5.485364560936823
 30
0.0
 11
271.4783502595985
 21
5.621905020786982
 31
0.0
  0
LINE
  5
118
330
17
100
AcDbEntity
  8
FoilLayer
100
AcDbLine
 10
271.4783502595985
 20
5.621905020786982
 30
0.0
 11
277.9432442064168
 21
5.710953146776216
 31
0.0
  0
LINE
  5
119
330
17
100
AcDbEntity
  8
FoilLayer
100
AcDbLine
 10
277.9432442064168
 20
5.710953146776216
 30
0.0
 11
284.2597246099199
 21
5.770318564102371
 31
0.0
  0
LINE
  5
11A
330
17
100
AcDbEntity
  8
FoilLayer
100
AcDbLine
 10
284.2597246099199
 20
5.770318564102371
 30
0.0
 11
290.4456010953053
 21
5.811874356230681
 31
0.0
  0
LINE
  5
11B
330
17
100
AcDbEntity
  8
FoilLayer
100
AcDbLine
 10
290.4456010953053
 20
5.811874356230681
 30
0.0
 11
296.5008736625732
 21
5.817810897963296
 31
0.0
  0
LINE
  5
11C
330
17
100
AcDbEntity
  8
FoilLayer
100
AcDbLine
 10
296.5008736625732
 20
5.817810897963296
 30
0.0
 11
302.4077326865257
 21
5.776255105834986
 31
0.0
  0
LINE
  5
11D
330
17
100
AcDbEntity
  8
FoilLayer
100
AcDbLine
 10
302.4077326865257
 20
5.776255105834986
 30
0.0
 11
308.14836854196517
 21
5.699080063310984
 31
0.0
  0
LINE
  5
11E
330
17
100
AcDbEntity
  8
FoilLayer
100
AcDbLine
 10
308.14836854196517
 20
5.699080063310984
 30
0.0
 11
313.71090814542595
 21
5.598158853856519
 31
0.0
  0
LINE
  5
11F
330
17
100
AcDbEntity
  8
FoilLayer
100
AcDbLine
 10
313.71090814542595
 20
5.598158853856519
 30
0.0
 11
319.11316112210613
 21
5.473491477471591
 31
0.0
  0
LINE
  5
120
330
17
100
AcDbEntity
  8
FoilLayer
100
AcDbLine
 10
319.11316112210613
 20
5.473491477471591
 30
0.0
 11
324.34919093027304
 21
5.319141392423585
 31
0.0
  0
LINE
  5
121
330
17
100
AcDbEntity
  8
FoilLayer
100
AcDbLine
 10
324.34919093027304
 20
5.319141392423585
 30
0.0
 11
329.4011879447289
 21
5.129172056979886
 31
0.0
  0
LINE
  5
122
330
17
100
AcDbEntity
  8
FoilLayer
100
AcDbLine
 10
329.4011879447289
 20
5.129172056979886
 30
0.0
 11
334.2572790820086
 21
4.909520012873108
 31
0.0
  0
LINE
  5
123
330
17
100
AcDbEntity
  8
FoilLayer
100
AcDbLine
 10
334.2572790820086
 20
4.909520012873108
 30
0.0
 11
338.91746434211177
 21
4.683931427033715
 31
0.0
  0
LINE
  5
124
330
17
100
AcDbEntity
  8
FoilLayer
100
AcDbLine
 10
338.91746434211177
 20
4.683931427033715
 30
0.0
 11
343.393616808504
 21
4.43459667426386
 31
0.0
  0
LINE
  5
125
330
17
100
AcDbEntity
  8
FoilLayer
100
AcDbLine
 10
343.393616808504
 20
4.43459667426386
 30
0.0
 11
347.67386339771986
 21
4.161515754563543
 31
0.0
  0
LINE
  5
126
330
17
100
AcDbEntity
  8
FoilLayer
100
AcDbLine
 10
347.67386339771986
 20
4.161515754563543
 30
0.0
 11
351.73445794282884
 21
3.85281558446753
 31
0.0
  0
LINE
  5
127
330
17
100
AcDbEntity
  8
FoilLayer
100
AcDbLine
 10
351.73445794282884
 20
3.85281558446753
 30
0.0
 11
355.5754004438312
 21
3.5381788726389027
 31
0.0
  0
LINE
  5
128
330
17
100
AcDbEntity
  8
FoilLayer
100
AcDbLine
 10
355.5754004438312
 20
3.5381788726389027
 30
0.0
 11
359.1907543589941
 21
3.223542160810276
 31
0.0
  0
LINE
  5
129
330
17
100
AcDbEntity
  8
FoilLayer
100
AcDbLine
 10
359.1907543589941
 20
3.223542160810276
 30
0.0
 11
362.5983293135155
 21
2.9089054489816486
 31
0.0
  0
LINE
  5
12A
330
17
100
AcDbEntity
  8
FoilLayer
100
AcDbLine
 10
362.5983293135155
 20
2.9089054489816486
 30
0.0
 11
365.7803156821974
 21
2.5883321954204055
 31
0.0
  0
LINE
  5
12B
330
17
100
AcDbEntity
  8
FoilLayer
100
AcDbLine
 10
365.7803156821974
 20
2.5883321954204055
 30
0.0
 11
368.73671346504
 21
2.261822400126547
 31
0.0
  0
LINE
  5
12C
330
17
100
AcDbEntity
  8
FoilLayer
100
AcDbLine
 10
368.73671346504
 20
2.261822400126547
 30
0.0
 11
371.4615861203106
 21
1.941249146565304
 31
0.0
  0
LINE
  5
12D
330
17
100
AcDbEntity
  8
FoilLayer
100
AcDbLine
 10
371.4615861203106
 20
1.941249146565304
 30
0.0
 11
373.9430605645439
 21
1.6266124347366768
 31
0.0
  0
LINE
  5
12E
330
17
100
AcDbEntity
  8
FoilLayer
100
AcDbLine
 10
373.9430605645439
 20
1.6266124347366768
 30
0.0
 11
376.19300988120517
 21
1.3297853481058963
 31
0.0
  0
LINE
  5
12F
330
17
100
AcDbEntity
  8
FoilLayer
100
AcDbLine
 10
376.19300988120517
 20
1.3297853481058963
 30
0.0
 11
378.1995609868293
 21
1.0567044284055782
 31
0.0
  0
LINE
  5
130
330
17
100
AcDbEntity
  8
FoilLayer
100
AcDbLine
 10
378.1995609868293
 20
1.0567044284055782
 30
0.0
 11
379.98052350661396
 21
0.8073696756357228
 31
0.0
  0
LINE
  5
131
330
17
100
AcDbEntity
  8
FoilLayer
100
AcDbLine
 10
379.98052350661396
 20
0.8073696756357228
 30
0.0
 11
381.51808781536135
 21
0.5877176315289453
 31
0.0
  0
LINE
  5
132
330
17
100
AcDbEntity
  8
FoilLayer
100
AcDbLine
 10
381.51808781536135
 20
0.5877176315289453
 30
0.0
 11
382.83006353826954
 21
0.3977482960852458
 31
0.0
  0
LINE
  5
133
330
17
100
AcDbEntity
  8
FoilLayer
100
AcDbLine
 10
382.83006353826954
 20
0.3977482960852458
 30
0.0
 11
383.9045775918729
 21
0.2374616693046243
 31
0.0
  0
LINE
  5
134
330
17
100
AcDbEntity
  8
FoilLayer
100
AcDbLine
 10
383.9045775918729
 20
0.2374616693046243
 30
0.0
 11
384.75350305963684
 21
0.10685775118708096
 31
0.0
  0
LINE
  5
135
330
17
100
AcDbEntity
  8
FoilLayer
100
AcDbLine
 10
384.75350305963684
 20
0.10685775118708096
 30
0.0
 11
385.3590303163637
 21
0.011873083465231218
 31
0.0
  0
LINE
  5
136
330
17
100
AcDbEntity
  8
FoilLayer
100
AcDbLine
 10
385.3590303163637
 20
0.011873083465231218
 30
0.0
 11
385.73303244551846
 21
-0.04155579212830927
 31
0.0
  0
LINE
  5
137
330
17
100
AcDbEntity
  8
FoilLayer
100
AcDbLine
 10
385.73303244551846
 20
-0.04155579212830927
 30
0.0
 11
385.86363636363603
 21
-0.0653019590587717
 31
0.0
  0
LINE
  5
138
330
17
100
AcDbEntity
  8
FoilLayer
100
AcDbLine
 10
385.86363636363603
 20
-0.0653019590587717
 30
0.0
 11
385.86363636363603
 21
0.02968270866307805
 31
0.0
  0
LINE
  5
139
330
17
100
AcDbEntity
  8
StringerLayer
100
AcDbLine
 10
204.42810462441483
 20
44.50365914780547
 30
0.0
 11
208.3177215893376
 21
43.570449703904906
 31
0.0
  0
LINE
  5
13A
330
17
100
AcDbEntity
  8
StringerLayer
100
AcDbLine
 10
208.3177215893376
 20
43.570449703904906
 30
0.0
 11
209.25093103323817
 21
47.46006666882764
 31
0.0
  0
LINE
  5
13B
330
17
100
AcDbEntity
  8
StringerLayer
100
AcDbLine
 10
209.25093103323817
 20
47.46006666882764
 30
0.0
 11
205.3613140683154
 21
48.39327611272821
 31
0.0
  0
LINE
  5
13C
330
17
100
AcDbEntity
  8
StringerLayer
100
AcDbLine
 10
205.3613140683154
 20
48.39327611272821
 30
0.0
 11
204.42810462441483
 21
44.50365914780547
 31
0.0
  0
LINE
  5
13D
330
17
100
AcDbEntity
  8
StringerLayer
100
AcDbLine
 10
-60.56262294829148
 20
62.046213747614914
 30
0.0
 11
-56.59690625204826
 21
62.568794923259176
 31
0.0
  0
LINE
  5
13E
330
17
100
AcDbEntity
  8
StringerLayer
100
AcDbLine
 10
-56.59690625204826
 20
62.568794923259176
 30
0.0
 11
-57.11948742769253
 21
66.5345116195024
 31
0.0
  0
LINE
  5
13F
330
17
100
AcDbEntity
  8
StringerLayer
100
AcDbLine
 10
-57.11948742769253
 20
66.5345116195024
 30
0.0
 11
-61.08520412393575
 21
66.01193044385813
 31
0.0
  0
LINE
  5
140
330
17
100
AcDbEntity
  8
StringerLayer
100
AcDbLine
 10
-61.08520412393575
 20
66.01193044385813
 30
0.0
 11
-60.56262294829148
 21
62.046213747614914
 31
0.0
  0
LINE
  5
141
330
17
100
AcDbEntity
  8
StringerLayer
100
AcDbLine
 10
-148.1328869745898
 20
40.67075128397915
 30
0.0
 11
-144.39701498300875
 21
42.10017790417344
 31
0.0
  0
LINE
  5
142
330
17
100
AcDbEntity
  8
StringerLayer
100
AcDbLine
 10
-144.39701498300875
 20
42.10017790417344
 30
0.0
 11
-145.82644160320305
 21
45.83604989575451
 31
0.0
  0
LINE
  5
143
330
17
100
AcDbEntity
  8
StringerLayer
100
AcDbLine
 10
-145.82644160320305
 20
45.83604989575451
 30
0.0
 11
-149.56231359478411
 21
44.40662327556022
 31
0.0
  0
LINE
  5
144
330
17
100
AcDbEntity
  8
StringerLayer
100
AcDbLine
 10
-149.56231359478411
 20
44.40662327556022
 30
0.0
 11
-148.1328869745898
 21
40.67075128397915
 31
0.0
  0
LINE
  5
145
330
17
100
AcDbEntity
  8
StringerLayer
100
AcDbLine
 10
-196.94666090204117
 20
8.075452664466278
 30
0.0
 11
-195.7120324955938
 21
9.648886075193689
 31
0.0
  0
LINE
  5
146
330
17
100
AcDbEntity
  8
StringerLayer
100
AcDbLine
 10
-195.7120324955938
 20
9.648886075193689
 30
0.0
 11
-199.64561602241233
 21
12.735457091312046
 31
0.0
  0
LINE
  5
147
330
17
100
AcDbEntity
  8
StringerLayer
100
AcDbLine
 10
-199.64561602241233
 20
12.735457091312046
 30
0.0
 11
-200.8802444288597
 21
11.162023680584635
 31
0.0
  0
LINE
  5
148
330
17
100
AcDbEntity
  8
StringerLayer
100
AcDbLine
 10
-200.8802444288597
 20
11.162023680584635
 30
0.0
 11
-196.94666090204117
 21
8.075452664466278
 31
0.0
  0
LINE
  5
149
330
17
100
AcDbEntity
  8
StringerLayer
100
AcDbLine
 10
-199.41140183641951
 20
-1.770385733725933
 30
0.0
 11
-200.90761879551454
 21
-0.4432328369893068
 31
0.0
  0
LINE
  5
14A
330
17
100
AcDbEntity
  8
StringerLayer
100
AcDbLine
 10
-200.90761879551454
 20
-0.4432328369893068
 30
0.0
 11
-204.2255010373561
 21
-4.183775234726885
 31
0.0
  0
LINE
  5
14B
330
17
100
AcDbEntity
  8
StringerLayer
100
AcDbLine
 10
-204.2255010373561
 20
-4.183775234726885
 30
0.0
 11
-202.7292840782611
 21
-5.510928131463511
 31
0.0
  0
LINE
  5
14C
330
17
100
AcDbEntity
  8
StringerLayer
100
AcDbLine
 10
-202.7292840782611
 20
-5.510928131463511
 30
0.0
 11
-199.41140183641951
 21
-1.770385733725933
 31
0.0
  0
LINE
  5
14D
330
17
100
AcDbEntity
  8
StringerLayer
100
AcDbLine
 10
-87.3123728908994
 20
-9.216920528684792
 30
0.0
 11
-91.30847056472918
 21
-9.393565316924693
 31
0.0
  0
LINE
  5
14E
330
17
100
AcDbEntity
  8
StringerLayer
100
AcDbLine
 10
-91.30847056472918
 20
-9.393565316924693
 30
0.0
 11
-91.13182577648928
 21
-13.389662990754461
 31
0.0
  0
LINE
  5
14F
330
17
100
AcDbEntity
  8
StringerLayer
100
AcDbLine
 10
-91.13182577648928
 20
-13.389662990754461
 30
0.0
 11
-87.1357281026595
 21
-13.21301820251456
 31
0.0
  0
LINE
  5
150
330
17
100
AcDbEntity
  8
StringerLayer
100
AcDbLine
 10
-87.1357281026595
 20
-13.21301820251456
 30
0.0
 11
-87.3123728908994
 21
-9.216920528684792
 31
0.0
  0
LINE
  5
151
330
17
100
AcDbEntity
  8
SubLayer
100
AcDbLine
 10
-207.77272727272705
 20
0.0
 30
0.0
 11
-203.77272727272705
 21
0.0
 31
0.0
  0
LINE
  5
152
330
17
100
AcDbEntity
  8
SubLayer
100
AcDbLine
 10
57.363636363636346
 20
0.0
 30
0.0
 11
67.29999999999998
 21
0.0
 31
0.0
  0
LINE
  5
153
330
17
100
AcDbEntity
  8
SubLayer
100
AcDbLine
 10
-44.495605230236514
 20
29.981812363576765
 30
0.0
 11
-36.500478614083754
 21
30.26100833719677
 31
0.0
  0
LINE
  5
154
330
17
100
AcDbEntity
  8
SubLayer
100
AcDbLine
 10
36.500478614083754
 20
32.810257937238546
 30
0.0
 11
44.495605230236514
 21
33.08945391085855
 31
0.0
  0
LINE
  5
155
330
17
100
AcDbEntity
  8
SubLayer
100
AcDbLine
 10
-1.241946180381272
 20
67.10031852236536
 30
0.0
 11
-0.9627502067612641
 21
59.10519190621258
 31
0.0
  0
LINE
  5
156
330
17
100
AcDbEntity
  8
SubLayer
100
AcDbLine
 10
1.241946180381272
 20
-4.029052247930039
 30
0.0
 11
0.9627502067612641
 21
3.9660743682227313
 31
0.0
  0
LINE
  5
157
330
17
100
AcDbEntity
  8
SubLayer
100
AcDbLine
 10
-42.42702458279332
 20
28.052829702943573
 30
0.0
 11
-38.42946127471694
 21
28.19242768975358
 31
0.0
  0
LINE
  5
158
330
17
100
AcDbEntity
  8
SubLayer
100
AcDbLine
 10
-38.42946127471694
 20
28.19242768975358
 30
0.0
 11
-38.569059261526945
 21
32.18999099782996
 31
0.0
  0
LINE
  5
159
330
17
100
AcDbEntity
  8
SubLayer
100
AcDbLine
 10
-38.569059261526945
 20
32.18999099782996
 30
0.0
 11
-42.566622569603325
 21
32.050393011019956
 31
0.0
  0
LINE
  5
15A
330
17
100
AcDbEntity
  8
SubLayer
100
AcDbLine
 10
-42.566622569603325
 20
32.050393011019956
 30
0.0
 11
-42.42702458279332
 21
28.052829702943573
 31
0.0
  0
LINE
  5
15B
330
17
100
AcDbEntity
  8
SubLayer
100
AcDbLine
 10
38.569059261526945
 20
30.881275276605354
 30
0.0
 11
42.566622569603325
 21
31.02087326341536
 31
0.0
  0
LINE
  5
15C
330
17
100
AcDbEntity
  8
SubLayer
100
AcDbLine
 10
42.566622569603325
 20
31.02087326341536
 30
0.0
 11
42.42702458279332
 21
35.01843657149174
 31
0.0
  0
LINE
  5
15D
330
17
100
AcDbEntity
  8
SubLayer
100
AcDbLine
 10
42.42702458279332
 20
35.01843657149174
 30
0.0
 11
38.42946127471694
 21
34.87883858468174
 31
0.0
  0
LINE
  5
15E
330
17
100
AcDbEntity
  8
SubLayer
100
AcDbLine
 10
38.42946127471694
 20
34.87883858468174
 30
0.0
 11
38.569059261526945
 21
30.881275276605354
 31
0.0
  0
LINE
  5
15F
330
17
100
AcDbEntity
  8
SubLayer
100
AcDbLine
 10
-3.031330854204458
 20
61.03417456684578
 30
0.0
 11
0.9662324538719256
 21
61.17377255365578
 31
0.0
  0
LINE
  5
160
330
17
100
AcDbEntity
  8
SubLayer
100
AcDbLine
 10
0.9662324538719256
 20
61.17377255365578
 30
0.0
 11
0.8266344670619212
 21
65.17133586173217
 31
0.0
  0
LINE
  5
161
330
17
100
AcDbEntity
  8
SubLayer
100
AcDbLine
 10
0.8266344670619212
 20
65.17133586173217
 30
0.0
 11
-3.1709288410144616
 21
65.03173787492217
 31
0.0
  0
LINE
  5
162
330
17
100
AcDbEntity
  8
SubLayer
100
AcDbLine
 10
-3.1709288410144616
 20
65.03173787492217
 30
0.0
 11
-3.031330854204458
 21
61.03417456684578
 31
0.0
  0
LINE
  5
163
330
17
100
AcDbEntity
  8
SubLayer
100
AcDbLine
 10
-0.8266344670619217
 20
-2.1000695872968476
 30
0.0
 11
3.1709288410144616
 21
-1.9604716004868437
 31
0.0
  0
LINE
  5
164
330
17
100
AcDbEntity
  8
SubLayer
100
AcDbLine
 10
3.1709288410144616
 20
-1.9604716004868437
 30
0.0
 11
3.031330854204458
 21
2.0370917075895396
 31
0.0
  0
LINE
  5
165
330
17
100
AcDbEntity
  8
SubLayer
100
AcDbLine
 10
3.031330854204458
 20
2.0370917075895396
 30
0.0
 11
-0.9662324538719256
 21
1.8974937207795357
 31
0.0
  0
LINE
  5
166
330
17
100
AcDbEntity
  8
SubLayer
100
AcDbLine
 10
-0.9662324538719256
 20
1.8974937207795357
 30
0.0
 11
-0.8266344670619217
 21
-2.1000695872968476
 31
0.0
  0
LINE
  5
167
330
17
100
AcDbEntity
  8
SubLayer
100
AcDbLine
 10
297.49613392301904
 20
25.40113128810227
 30
0.0
 11
301.4936972310954
 21
25.540729274912273
 31
0.0
  0
LINE
  5
168
330
17
100
AcDbEntity
  8
SubLayer
100
AcDbLine
 10
-205.07767794146474
 20
7.850867051393682
 30
0.0
 11
-201.08011463338835
 21
7.990465038203687
 31
0.0
  0
LINE
  5
169
330
17
100
AcDbEntity
  8
SubLayer
100
AcDbLine
 10
-105.56230639558709
 20
11.326020402032901
 30
0.0
 11
-99.56596143347252
 21
11.535417382247905
 31
0.0
  0
LINE
  5
16A
330
17
100
AcDbEntity
  8
SubLayer
100
AcDbLine
 10
195.9819807231032
 20
21.856178944058055
 30
0.0
 11
201.97832568521775
 21
22.06557592427306
 31
0.0
  0
LINE
  5
16B
330
17
100
AcDbEntity
  8
SubLayer
100
AcDbLine
 10
45.209837163758046
 20
16.591099673045477
 30
0.0
 11
51.20618212587262
 21
16.80049665326048
 31
0.0
  0
LINE
  5
16C
330
17
100
AcDbEntity
  8
SubLayer
100
AcDbLine
 10
-100.4955532670866
 20
9.501736231507213
 30
0.0
 11
-100.63515125389661
 21
13.499299539583596
 31
0.0
  0
LINE
  5
16D
330
17
100
AcDbEntity
  8
SubLayer
100
AcDbLine
 10
-100.63515125389661
 20
13.499299539583596
 30
0.0
 11
-104.632714561973
 21
13.359701552773593
 31
0.0
  0
LINE
  5
16E
330
17
100
AcDbEntity
  8
SubLayer
100
AcDbLine
 10
-104.632714561973
 20
13.359701552773593
 30
0.0
 11
-104.493116575163
 21
9.36213824469721
 31
0.0
  0
LINE
  5
16F
330
17
100
AcDbEntity
  8
SubLayer
100
AcDbLine
 10
-104.493116575163
 20
9.36213824469721
 30
0.0
 11
-100.4955532670866
 21
9.501736231507213
 31
0.0
  0
LINE
  5
170
330
17
100
AcDbEntity
  8
SubLayer
100
AcDbLine
 10
201.04873385160366
 20
20.03189477353237
 30
0.0
 11
200.90913586479365
 21
24.02945808160875
 31
0.0
  0
LINE
  5
171
330
17
100
AcDbEntity
  8
SubLayer
100
AcDbLine
 10
200.90913586479365
 20
24.02945808160875
 30
0.0
 11
196.9115725567173
 21
23.889860094798745
 31
0.0
  0
LINE
  5
172
330
17
100
AcDbEntity
  8
SubLayer
100
AcDbLine
 10
196.9115725567173
 20
23.889860094798745
 30
0.0
 11
197.0511705435273
 21
19.892296786722362
 31
0.0
  0
LINE
  5
173
330
17
100
AcDbEntity
  8
SubLayer
100
AcDbLine
 10
197.0511705435273
 20
19.892296786722362
 30
0.0
 11
201.04873385160366
 21
20.03189477353237
 31
0.0
  0
LINE
  5
174
330
17
100
AcDbEntity
  8
SubLayer
100
AcDbLine
 10
50.276590292258525
 20
14.766815502519789
 30
0.0
 11
50.13699230544852
 21
18.764378810596174
 31
0.0
  0
LINE
  5
175
330
17
100
AcDbEntity
  8
SubLayer
100
AcDbLine
 10
50.13699230544852
 20
18.764378810596174
 30
0.0
 11
46.13942899737214
 21
18.624780823786168
 31
0.0
  0
LINE
  5
176
330
17
100
AcDbEntity
  8
SubLayer
100
AcDbLine
 10
46.13942899737214
 20
18.624780823786168
 30
0.0
 11
46.279026984182146
 21
14.627217515709786
 31
0.0
  0
LINE
  5
177
330
17
100
AcDbEntity
  8
SubLayer
100
AcDbLine
 10
46.279026984182146
 20
14.627217515709786
 30
0.0
 11
50.276590292258525
 21
14.766815502519789
 31
0.0
  0
LINE
  5
178
330
17
100
AcDbEntity
  8
SubLayer
100
AcDbLine
 10
366.70214468828385
 20
5.7521015039534165
 30
0.0
 11
367.0135072631715
 21
6.702392694567803
 31
0.0
  0
LINE
  5
179
330
17
100
AcDbEntity
  8
SubLayer
100
AcDbLine
 10
365.96425812611034
 20
2.0650623513653716
 30
0.0
 11
366.0923054871683
 21
3.0568304055625664
 31
0.0
  0
LINE
  5
17A
330
17
100
AcDbEntity
  8
SubLayer
100
AcDbLine
 10
347.5152305273281
 20
11.386337384839772
 30
0.0
 11
347.81182660080515
 21
12.341340405357487
 31
0.0
  0
LINE
  5
17B
330
17
100
AcDbEntity
  8
SubLayer
100
AcDbLine
 10
346.03820940813165
 20
3.7653185614701865
 30
0.0
 11
346.1447714557282
 21
4.759624615968516
 31
0.0
  0
LINE
  5
17C
330
17
100
AcDbEntity
  8
SubLayer
100
AcDbLine
 10
309.02663525017095
 20
22.27834363247799
 30
0.0
 11
309.31110633922475
 21
23.237028251887587
 31
0.0
  0
LINE
  5
17D
330
17
100
AcDbEntity
  8
SubLayer
100
AcDbLine
 10
306.0332573878552
 20
5.228316512803847
 30
0.0
 11
306.1048454500284
 21
6.225750796029709
 31
0.0
  0
LINE
  5
17E
330
17
100
AcDbEntity
  8
SubLayer
100
AcDbLine
 10
-101.09039136075924
 20
61.014849828600596
 30
0.0
 11
-100.95079337394924
 21
57.017286520524216
 31
0.0
  0
LINE
  5
17F
330
17
100
AcDbEntity
  8
SubLayer
100
AcDbLine
 10
-98.55058033368915
 20
-11.715822033320512
 30
0.0
 11
-98.41098234687915
 21
-15.713385341396895
 31
0.0
  0
LINE
  5
180
330
17
100
AcDbEntity
  8
SubLayer
100
AcDbLine
 10
-99.0934420358057
 20
3.829703166082805
 30
0.0
 11
-98.88404505559068
 21
-2.166641796031769
 31
0.0
  0
LINE
  5
181
330
17
100
AcDbEntity
  8
SubLayer
100
AcDbLine
 10
-100.61732865204773
 20
47.46810628323547
 30
0.0
 11
-100.40793167183271
 21
41.471761321120894
 31
0.0
  0
LINE
  5
182
330
17
100
AcDbEntity
  8
SubLayer
100
AcDbLine
 10
-99.8553853439267
 20
25.64890472465914
 30
0.0
 11
-99.64598836371168
 21
19.652559762544563
 31
0.0
  0
LINE
  5
183
330
17
100
AcDbEntity
  8
SubLayer
100
AcDbLine
 10
-100.91772620633138
 20
-1.2370499624176756
 30
0.0
 11
-96.92016289825499
 21
-1.0974519756076717
 31
0.0
  0
LINE
  5
184
330
17
100
AcDbEntity
  8
SubLayer
100
AcDbLine
 10
-96.92016289825499
 20
-1.0974519756076717
 30
0.0
 11
-97.05976088506499
 21
2.9001113324687116
 31
0.0
  0
LINE
  5
185
330
17
100
AcDbEntity
  8
SubLayer
100
AcDbLine
 10
-97.05976088506499
 20
2.9001113324687116
 30
0.0
 11
-101.05732419314138
 21
2.7605133456587074
 31
0.0
  0
LINE
  5
186
330
17
100
AcDbEntity
  8
SubLayer
100
AcDbLine
 10
-101.05732419314138
 20
2.7605133456587074
 30
0.0
 11
-100.91772620633138
 21
-1.2370499624176756
 31
0.0
  0
LINE
  5
187
330
17
100
AcDbEntity
  8
SubLayer
100
AcDbLine
 10
-102.44161282257342
 20
42.40135315473499
 30
0.0
 11
-98.44404951449702
 21
42.540951141544994
 31
0.0
  0
LINE
  5
188
330
17
100
AcDbEntity
  8
SubLayer
100
AcDbLine
 10
-98.44404951449702
 20
42.540951141544994
 30
0.0
 11
-98.58364750130703
 21
46.538514449621374
 31
0.0
  0
LINE
  5
189
330
17
100
AcDbEntity
  8
SubLayer
100
AcDbLine
 10
-98.58364750130703
 20
46.538514449621374
 30
0.0
 11
-102.58121080938342
 21
46.39891646281137
 31
0.0
  0
LINE
  5
18A
330
17
100
AcDbEntity
  8
SubLayer
100
AcDbLine
 10
-102.58121080938342
 20
46.39891646281137
 30
0.0
 11
-102.44161282257342
 21
42.40135315473499
 31
0.0
  0
LINE
  5
18B
330
17
100
AcDbEntity
  8
SubLayer
100
AcDbLine
 10
-101.67966951445239
 20
20.582151596158656
 30
0.0
 11
-97.68210620637599
 21
20.721749582968663
 31
0.0
  0
LINE
  5
18C
330
17
100
AcDbEntity
  8
SubLayer
100
AcDbLine
 10
-97.68210620637599
 20
20.721749582968663
 30
0.0
 11
-97.821704193186
 21
24.719312891045046
 31
0.0
  0
LINE
  5
18D
330
17
100
AcDbEntity
  8
SubLayer
100
AcDbLine
 10
-97.821704193186
 20
24.719312891045046
 30
0.0
 11
-101.81926750126239
 21
24.57971490423504
 31
0.0
  0
LINE
  5
18E
330
17
100
AcDbEntity
  8
SubLayer
100
AcDbLine
 10
-101.81926750126239
 20
24.57971490423504
 30
0.0
 11
-101.67966951445239
 21
20.582151596158656
 31
0.0
  0
LINE
  5
18F
330
17
100
AcDbEntity
  8
SubLayer
100
AcDbLine
 10
149.0243941501661
 20
62.09158909658648
 30
0.0
 11
149.16399213697613
 21
58.0940257885101
 31
0.0
  0
LINE
  5
190
330
17
100
AcDbEntity
  8
SubLayer
100
AcDbLine
 10
151.11554859953017
 20
2.208760630901759
 30
0.0
 11
151.2551465863402
 21
-1.7888026771746242
 31
0.0
  0
LINE
  5
191
330
17
100
AcDbEntity
  8
SubLayer
100
AcDbLine
 10
150.6624182129549
 20
15.1847171510578
 30
0.0
 11
150.87181519316988
 21
9.188372188943227
 31
0.0
  0
LINE
  5
192
330
17
100
AcDbEntity
  8
SubLayer
100
AcDbLine
 10
149.40772554333645
 20
51.11441423046864
 30
0.0
 11
149.61712252355144
 21
45.11806926835406
 31
0.0
  0
LINE
  5
193
330
17
100
AcDbEntity
  8
SubLayer
100
AcDbLine
 10
150.03507187814566
 20
33.14956569076322
 30
0.0
 11
150.24446885836065
 21
27.15322072864864
 31
0.0
  0
LINE
  5
194
330
17
100
AcDbEntity
  8
SubLayer
100
AcDbLine
 10
148.8381340424292
 20
10.11796402255732
 30
0.0
 11
152.83569735050557
 21
10.257562009367323
 31
0.0
  0
LINE
  5
195
330
17
100
AcDbEntity
  8
SubLayer
100
AcDbLine
 10
152.83569735050557
 20
10.257562009367323
 30
0.0
 11
152.69609936369557
 21
14.255125317443706
 31
0.0
  0
LINE
  5
196
330
17
100
AcDbEntity
  8
SubLayer
100
AcDbLine
 10
152.69609936369557
 20
14.255125317443706
 30
0.0
 11
148.6985360556192
 21
14.115527330633704
 31
0.0
  0
LINE
  5
197
330
17
100
AcDbEntity
  8
SubLayer
100
AcDbLine
 10
148.6985360556192
 20
14.115527330633704
 30
0.0
 11
148.8381340424292
 21
10.11796402255732
 31
0.0
  0
LINE
  5
198
330
17
100
AcDbEntity
  8
SubLayer
100
AcDbLine
 10
147.58344137281077
 20
46.04766110196816
 30
0.0
 11
151.58100468088713
 21
46.18725908877816
 31
0.0
  0
LINE
  5
199
330
17
100
AcDbEntity
  8
SubLayer
100
AcDbLine
 10
151.58100468088713
 20
46.18725908877816
 30
0.0
 11
151.44140669407713
 21
50.18482239685454
 31
0.0
  0
LINE
  5
19A
330
17
100
AcDbEntity
  8
SubLayer
100
AcDbLine
 10
151.44140669407713
 20
50.18482239685454
 30
0.0
 11
147.44384338600076
 21
50.04522441004454
 31
0.0
  0
LINE
  5
19B
330
17
100
AcDbEntity
  8
SubLayer
100
AcDbLine
 10
147.44384338600076
 20
50.04522441004454
 30
0.0
 11
147.58344137281077
 21
46.04766110196816
 31
0.0
  0
LINE
  5
19C
330
17
100
AcDbEntity
  8
SubLayer
100
AcDbLine
 10
148.21078770761997
 20
28.082812562262735
 30
0.0
 11
152.20835101569634
 21
28.22241054907274
 31
0.0
  0
LINE
  5
19D
330
17
100
AcDbEntity
  8
SubLayer
100
AcDbLine
 10
152.20835101569634
 20
28.22241054907274
 30
0.0
 11
152.06875302888633
 21
32.21997385714912
 31
0.0
  0
LINE
  5
19E
330
17
100
AcDbEntity
  8
SubLayer
100
AcDbLine
 10
152.06875302888633
 20
32.21997385714912
 30
0.0
 11
148.07118972080997
 21
32.08037587033912
 31
0.0
  0
LINE
  5
19F
330
17
100
AcDbEntity
  8
SubLayer
100
AcDbLine
 10
148.07118972080997
 20
32.08037587033912
 30
0.0
 11
148.21078770761997
 21
28.082812562262735
 31
0.0
  0
ENDSEC
  0
SECTION
  2
OBJECTS
  0
DICTIONARY
  5
A
330
0
100
AcDbDictionary
280
0
281
1
  3
ACAD_COLOR
350
B
  3
ACAD_GROUP
350
C
  3
ACAD_LAYOUT
350
D
  3
ACAD_MATERIAL
350
E
  3
ACAD_MLEADERSTYLE
350
F
  3
ACAD_MLINESTYLE
350
10
  3
ACAD_PLOTSETTINGS
350
11
  3
ACAD_PLOTSTYLENAME
350
12
  3
ACAD_SCALELIST
350
14
  3
ACAD_TABLESTYLE
350
15
  3
ACAD_VISUALSTYLE
350
16
  3
EZDXF_META
350
2D
  0
DICTIONARY
  5
B
330
A
100
AcDbDictionary
280
0
281
1
  0
DICTIONARY
  5
C
330
A
100
AcDbDictionary
280
0
281
1
  0
DICTIONARY
  5
D
330
A
100
AcDbDictionary
280
0
281
1
  3
Model
350
1A
  3
Layout1
350
1E
  0
DICTIONARY
  5
E
330
A
100
AcDbDictionary
280
0
281
1
  3
ByBlock
350
1F
  3
ByLayer
350
20
  3
Global
350
21
  0
DICTIONARY
  5
F
330
A
100
AcDbDictionary
280
0
281
1
  3
Standard
350
2C
  0
DICTIONARY
  5
10
330
A
100
AcDbDictionary
280
0
281
1
  3
Standard
350
22
  0
DICTIONARY
  5
11
330
A
100
AcDbDictionary
280
0
281
1
  0
ACDBDICTIONARYWDFLT
  5
12
330
A
100
AcDbDictionary
280
0
281
1
  3
Normal
350
13
100
AcDbDictionaryWithDefault
340
13
  0
ACDBPLACEHOLDER
  5
13
330
12
  0
DICTIONARY
  5
14
330
A
100
AcDbDictionary
280
0
281
1
  0
DICTIONARY
  5
15
330
A
100
AcDbDictionary
280
0
281
1
  0
DICTIONARY
  5
16
330
A
100
AcDbDictionary
280
0
281
1
  0
LAYOUT
  5
1A
330
D
100
AcDbPlotSettings
  1

  2
Adobe PDF
  4
A3
  6

 40
7.5
 41
20.0
 42
7.5
 43
20.0
 44
420.0
 45
297.0
 46
0.0
 47
0.0
 48
0.0
 49
0.0
140
0.0
141
0.0
142
1.0
143
1.0
 70
1024
 72
1
 73
0
 74
5
  7

 75
16
 76
0
 77
2
 78
300
147
1.0
148
0.0
149
0.0
100
AcDbLayout
  1
Model
 70
1
 71
0
 10
0.0
 20
0.0
 11
420.0
 21
297.0
 12
0.0
 22
0.0
 32
0.0
 14
1e+20
 24
1e+20
 34
1e+20
 15
-1e+20
 25
-1e+20
 35
-1e+20
146
0.0
 13
0.0
 23
0.0
 33
0.0
 16
1.0
 26
0.0
 36
0.0
 17
0.0
 27
1.0
 37
0.0
 76
1
330
17
  0
LAYOUT
  5
1E
330
D
100
AcDbPlotSettings
  1

  2
Adobe PDF
  4
A3
  6

 40
7.5
 41
20.0
 42
7.5
 43
20.0
 44
420.0
 45
297.0
 46
0.0
 47
0.0
 48
0.0
 49
0.0
140
0.0
141
0.0
142
1.0
143
1.0
 70
0
 72
1
 73
0
 74
5
  7

 75
16
 76
0
 77
2
 78
300
147
1.0
148
0.0
149
0.0
100
AcDbLayout
  1
Layout1
 70
1
 71
1
 10
0.0
 20
0.0
 11
420.0
 21
297.0
 12
0.0
 22
0.0
 32
0.0
 14
1e+20
 24
1e+20
 34
1e+20
 15
-1e+20
 25
-1e+20
 35
-1e+20
146
0.0
 13
0.0
 23
0.0
 33
0.0
 16
1.0
 26
0.0
 36
0.0
 17
0.0
 27
1.0
 37
0.0
 76
1
330
1B
  0
MATERIAL
  5
1F
102
{ACAD_REACTORS
330
E
102
}
330
E
100
AcDbMaterial
  1
ByBlock
  2

 70
0
 40
1.0
 71
1
 41
1.0
 91
-1023410177
 42
1.0
 72
1
  3

 73
1
 74
1
 75
1
 44
0.5
 73
0
 45
1.0
 46
1.0
 77
1
  4

 78
1
 79
1
170
1
 48
1.0
171
1
  6

172
1
173
1
174
1
140
1.0
141
1.0
175
1
  7

176
1
177
1
178
1
143
1.0
179
1
  8

270
1
271
1
272
1
145
1.0
146
1.0
273
1
  9

274
1
275
1
276
1
 42
1.0
 72
1
  3

 73
1
 74
1
 75
1
 94
63
  0
MATERIAL
  5
20
102
{ACAD_REACTORS
330
E
102
}
330
E
100
AcDbMaterial
  1
ByLayer
  2

 70
0
 40
1.0
 71
1
 41
1.0
 91
-1023410177
 42
1.0
 72
1
  3

 73
1
 74
1
 75
1
 44
0.5
 73
0
 45
1.0
 46
1.0
 77
1
  4

 78
1
 79
1
170
1
 48
1.0
171
1
  6

172
1
173
1
174
1
140
1.0
141
1.0
175
1
  7

176
1
177
1
178
1
143
1.0
179
1
  8

270
1
271
1
272
1
145
1.0
146
1.0
273
1
  9

274
1
275
1
276
1
 42
1.0
 72
1
  3

 73
1
 74
1
 75
1
 94
63
  0
MATERIAL
  5
21
102
{ACAD_REACTORS
330
E
102
}
330
E
100
AcDbMaterial
  1
Global
  2

 70
0
 40
1.0
 71
1
 41
1.0
 91
-1023410177
 42
1.0
 72
1
  3

 73
1
 74
1
 75
1
 44
0.5
 73
0
 45
1.0
 46
1.0
 77
1
  4

 78
1
 79
1
170
1
 48
1.0
171
1
  6

172
1
173
1
174
1
140
1.0
141
1.0
175
1
  7

176
1
177
1
178
1
143
1.0
179
1
  8

270
1
271
1
272
1
145
1.0
146
1.0
273
1
  9

274
1
275
1
276
1
 42
1.0
 72
1
  3

 73
1
 74
1
 75
1
 94
63
  0
MLINESTYLE
  5
22
102
{ACAD_REACTORS
330
10
102
}
330
10
100
AcDbMlineStyle
  2
Standard
 70
0
  3

 62
256
 51
90.0
 52
90.0
 71
2
 49
0.5
 62
256
  6
BYLAYER
 49
-0.5
 62
256
  6
BYLAYER
  0
MLEADERSTYLE
  5
2C
102
{ACAD_REACTORS
330
F
102
}
330
F
100
AcDbMLeaderStyle
179
2
170
2
171
1
172
0
 90
2
 40
0.0
 41
0.0
173
1
 91
-1056964608
 92
-2
290
1
 42
2.0
291
1
 43
8.0
  3
Standard
 44
4.0
300

342
29
174
1
175
1
176
0
178
1
 93
-1056964608
 45
4.0
292
0
297
0
 46
4.0
 94
-1056964608
 47
1.0
 49
1.0
140
1.0
294
1
141
0.0
177
0
142
1.0
295
0
296
0
143
3.75
271
0
272
9
273
9
  0
DICTIONARY
  5
2D
330
A
100
AcDbDictionary
281
1
  3
CREATED_BY_EZDXF
350
2E
  3
WRITTEN_BY_EZDXF
350
1A2
  0
DICTIONARYVAR
  5
2E
330
2D
100
DictionaryVariables
280
0
  1
1.0.2 @ 2023-10-20T04:47:16.349546+00:00
  0
DICTIONARYVAR
  5
1A2
330
2D
100
DictionaryVariables
280
0
  1
1.0.2 @ 2023-10-20T04:47:16.359511+00:00
  0
ENDSEC
  0
EOF
