  0
SECTION
  2
HEADER
  9
$ACADVER
  1
AC1027
  9
$ACADMAINTVER
 70
105
  9
$DWGCODEPAGE
  3
ANSI_1252
  9
$LASTSAVEDBY
  1
ezdxf
  9
$REQUIREDVERSIONS
160
0
  9
$INSBASE
 10
0.0
 20
0.0
 30
0.0
  9
$EXTMIN
 10
1e+20
 20
1e+20
 30
1e+20
  9
$EXTMAX
 10
-1e+20
 20
-1e+20
 30
-1e+20
  9
$LIMMIN
 10
0.0
 20
0.0
  9
$LIMMAX
 10
420.0
 20
297.0
  9
$ORTHOMODE
 70
0
  9
$REGENMODE
 70
1
  9
$FILLMODE
 70
1
  9
$QTEXTMODE
 70
0
  9
$MIRRTEXT
 70
1
  9
$LTSCALE
 40
1.0
  9
$ATTMODE
 70
1
  9
$TEXTSIZE
 40
2.5
  9
$TRACEWID
 40
1.0
  9
$TEXTSTYLE
  7
Standard
  9
$CLAYER
  8
0
  9
$CELTYPE
  6
ByLayer
  9
$CECOLOR
 62
256
  9
$CELTSCALE
 40
1.0
  9
$DISPSILH
 70
0
  9
$DIMSCALE
 40
1.0
  9
$DIMASZ
 40
2.5
  9
$DIMEXO
 40
0.625
  9
$DIMDLI
 40
3.75
  9
$DIMRND
 40
0.0
  9
$DIMDLE
 40
0.0
  9
$DIMEXE
 40
1.25
  9
$DIMTP
 40
0.0
  9
$DIMTM
 40
0.0
  9
$DIMTXT
 40
2.5
  9
$DIMCEN
 40
2.5
  9
$DIMTSZ
 40
0.0
  9
$DIMTOL
 70
0
  9
$DIMLIM
 70
0
  9
$DIMTIH
 70
0
  9
$DIMTOH
 70
0
  9
$DIMSE1
 70
0
  9
$DIMSE2
 70
0
  9
$DIMTAD
 70
1
  9
$DIMZIN
 70
8
  9
$DIMBLK
  1

  9
$DIMASO
 70
1
  9
$DIMSHO
 70
1
  9
$DIMPOST
  1

  9
$DIMAPOST
  1

  9
$DIMALT
 70
0
  9
$DIMALTD
 70
3
  9
$DIMALTF
 40
0.03937007874
  9
$DIMLFAC
 40
1.0
  9
$DIMTOFL
 70
1
  9
$DIMTVP
 40
0.0
  9
$DIMTIX
 70
0
  9
$DIMSOXD
 70
0
  9
$DIMSAH
 70
0
  9
$DIMBLK1
  1

  9
$DIMBLK2
  1

  9
$DIMSTYLE
  2
ISO-25
  9
$DIMCLRD
 70
0
  9
$DIMCLRE
 70
0
  9
$DIMCLRT
 70
0
  9
$DIMTFAC
 40
1.0
  9
$DIMGAP
 40
0.625
  9
$DIMJUST
 70
0
  9
$DIMSD1
 70
0
  9
$DIMSD2
 70
0
  9
$DIMTOLJ
 70
0
  9
$DIMTZIN
 70
8
  9
$DIMALTZ
 70
0
  9
$DIMALTTZ
 70
0
  9
$DIMUPT
 70
0
  9
$DIMDEC
 70
2
  9
$DIMTDEC
 70
2
  9
$DIMALTU
 70
2
  9
$DIMALTTD
 70
3
  9
$DIMTXSTY
  7
Standard
  9
$DIMAUNIT
 70
0
  9
$DIMADEC
 70
0
  9
$DIMALTRND
 40
0.0
  9
$DIMAZIN
 70
0
  9
$DIMDSEP
 70
44
  9
$DIMATFIT
 70
3
  9
$DIMFRAC
 70
0
  9
$DIMLDRBLK
  1

  9
$DIMLUNIT
 70
2
  9
$DIMLWD
 70
-2
  9
$DIMLWE
 70
-2
  9
$DIMTMOVE
 70
0
  9
$DIMFXL
 40
1.0
  9
$DIMFXLON
 70
0
  9
$DIMJOGANG
 40
0.785398163397
  9
$DIMTFILL
 70
0
  9
$DIMTFILLCLR
 70
0
  9
$DIMARCSYM
 70
0
  9
$DIMLTYPE
  6

  9
$DIMLTEX1
  6

  9
$DIMLTEX2
  6

  9
$DIMTXTDIRECTION
 70
0
  9
$LUNITS
 70
2
  9
$LUPREC
 70
4
  9
$SKETCHINC
 40
1.0
  9
$FILLETRAD
 40
10.0
  9
$AUNITS
 70
0
  9
$AUPREC
 70
2
  9
$MENU
  1
.
  9
$ELEVATION
 40
0.0
  9
$PELEVATION
 40
0.0
  9
$THICKNESS
 40
0.0
  9
$LIMCHECK
 70
0
  9
$CHAMFERA
 40
0.0
  9
$CHAMFERB
 40
0.0
  9
$CHAMFERC
 40
0.0
  9
$CHAMFERD
 40
0.0
  9
$SKPOLY
 70
0
  9
$TDCREATE
 40
2460238.574490741
  9
$TDUCREATE
 40
2458532.153996898
  9
$TDUPDATE
 40
2460238.574490741
  9
$TDUUPDATE
 40
2458532.1544311
  9
$TDINDWG
 40
0.0
  9
$TDUSRTIMER
 40
0.0
  9
$USRTIMER
 70
1
  9
$ANGBASE
 50
0.0
  9
$ANGDIR
 70
0
  9
$PDMODE
 70
0
  9
$PDSIZE
 40
0.0
  9
$PLINEWID
 40
0.0
  9
$SPLFRAME
 70
0
  9
$SPLINETYPE
 70
6
  9
$SPLINESEGS
 70
8
  9
$HANDSEED
  5
1A2
  9
$SURFTAB1
 70
6
  9
$SURFTAB2
 70
6
  9
$SURFTYPE
 70
6
  9
$SURFU
 70
6
  9
$SURFV
 70
6
  9
$UCSBASE
  2

  9
$UCSNAME
  2

  9
$UCSORG
 10
0.0
 20
0.0
 30
0.0
  9
$UCSXDIR
 10
1.0
 20
0.0
 30
0.0
  9
$UCSYDIR
 10
0.0
 20
1.0
 30
0.0
  9
$UCSORTHOREF
  2

  9
$UCSORTHOVIEW
 70
0
  9
$UCSORGTOP
 10
0.0
 20
0.0
 30
0.0
  9
$UCSORGBOTTOM
 10
0.0
 20
0.0
 30
0.0
  9
$UCSORGLEFT
 10
0.0
 20
0.0
 30
0.0
  9
$UCSORGRIGHT
 10
0.0
 20
0.0
 30
0.0
  9
$UCSORGFRONT
 10
0.0
 20
0.0
 30
0.0
  9
$UCSORGBACK
 10
0.0
 20
0.0
 30
0.0
  9
$PUCSBASE
  2

  9
$PUCSNAME
  2

  9
$PUCSORG
 10
0.0
 20
0.0
 30
0.0
  9
$PUCSXDIR
 10
1.0
 20
0.0
 30
0.0
  9
$PUCSYDIR
 10
0.0
 20
1.0
 30
0.0
  9
$PUCSORTHOREF
  2

  9
$PUCSORTHOVIEW
 70
0
  9
$PUCSORGTOP
 10
0.0
 20
0.0
 30
0.0
  9
$PUCSORGBOTTOM
 10
0.0
 20
0.0
 30
0.0
  9
$PUCSORGLEFT
 10
0.0
 20
0.0
 30
0.0
  9
$PUCSORGRIGHT
 10
0.0
 20
0.0
 30
0.0
  9
$PUCSORGFRONT
 10
0.0
 20
0.0
 30
0.0
  9
$PUCSORGBACK
 10
0.0
 20
0.0
 30
0.0
  9
$USERI1
 70
0
  9
$USERI2
 70
0
  9
$USERI3
 70
0
  9
$USERI4
 70
0
  9
$USERI5
 70
0
  9
$USERR1
 40
0.0
  9
$USERR2
 40
0.0
  9
$USERR3
 40
0.0
  9
$USERR4
 40
0.0
  9
$USERR5
 40
0.0
  9
$WORLDVIEW
 70
1
  9
$SHADEDGE
 70
3
  9
$SHADEDIF
 70
70
  9
$TILEMODE
 70
1
  9
$MAXACTVP
 70
64
  9
$PINSBASE
 10
0.0
 20
0.0
 30
0.0
  9
$PLIMCHECK
 70
0
  9
$PEXTMIN
 10
1e+20
 20
1e+20
 30
1e+20
  9
$PEXTMAX
 10
-1e+20
 20
-1e+20
 30
-1e+20
  9
$PLIMMIN
 10
0.0
 20
0.0
  9
$PLIMMAX
 10
420.0
 20
297.0
  9
$UNITMODE
 70
0
  9
$VISRETAIN
 70
1
  9
$PLINEGEN
 70
0
  9
$PSLTSCALE
 70
1
  9
$TREEDEPTH
 70
3020
  9
$CMLSTYLE
  2
Standard
  9
$CMLJUST
 70
0
  9
$CMLSCALE
 40
20.0
  9
$PROXYGRAPHICS
 70
1
  9
$MEASUREMENT
 70
1
  9
$CELWEIGHT
370
-1
  9
$ENDCAPS
280
0
  9
$JOINSTYLE
280
0
  9
$LWDISPLAY
290
0
  9
$INSUNITS
 70
6
  9
$HYPERLINKBASE
  1

  9
$STYLESHEET
  1

  9
$XEDIT
290
1
  9
$CEPSNTYPE
380
0
  9
$PSTYLEMODE
290
1
  9
$FINGERPRINTGUID
  2
{DF67158C-1206-4B8B-A751-62C57A0B515E}
  9
$VERSIONGUID
  2
{5F90A643-576A-4FFA-A66E-CC91C2F9B810}
  9
$EXTNAMES
290
1
  9
$PSVPSCALE
 40
0.0
  9
$OLESTARTUP
290
0
  9
$SORTENTS
280
127
  9
$INDEXCTL
280
0
  9
$HIDETEXT
280
1
  9
$XCLIPFRAME
280
0
  9
$HALOGAP
280
0
  9
$OBSCOLOR
 70
257
  9
$OBSLTYPE
280
0
  9
$INTERSECTIONDISPLAY
280
0
  9
$INTERSECTIONCOLOR
 70
257
  9
$DIMASSOC
280
2
  9
$PROJECTNAME
  1

  9
$CAMERADISPLAY
290
0
  9
$LENSLENGTH
 40
50.0
  9
$CAMERAHEIGHT
 40
0.0
  9
$STEPSPERSEC
 40
24.0
  9
$STEPSIZE
 40
100.0
  9
$3DDWFPREC
 40
2.0
  9
$PSOLWIDTH
 40
0.005
  9
$PSOLHEIGHT
 40
0.08
  9
$LOFTANG1
 40
1.570796326795
  9
$LOFTANG2
 40
1.570796326795
  9
$LOFTMAG1
 40
0.0
  9
$LOFTMAG2
 40
0.0
  9
$LOFTPARAM
 70
7
  9
$LOFTNORMALS
280
1
  9
$LATITUDE
 40
37.795
  9
$LONGITUDE
 40
-122.394
  9
$NORTHDIRECTION
 40
0.0
  9
$TIMEZONE
 70
-8000
  9
$LIGHTGLYPHDISPLAY
280
1
  9
$TILEMODELIGHTSYNCH
280
1
  9
$CMATERIAL
347
20
  9
$SOLIDHIST
280
0
  9
$SHOWHIST
280
1
  9
$DWFFRAME
280
2
  9
$DGNFRAME
280
2
  9
$REALWORLDSCALE
290
1
  9
$INTERFERECOLOR
 62
256
  9
$CSHADOW
280
0
  9
$SHADOWPLANELOCATION
 40
0.0
  0
ENDSEC
  0
SECTION
  2
CLASSES
  0
CLASS
  1
ACDBDICTIONARYWDFLT
  2
AcDbDictionaryWithDefault
  3
ObjectDBX Classes
 90
0
 91
0
280
0
281
0
  0
CLASS
  1
SUN
  2
AcDbSun
  3
SCENEOE
 90
1153
 91
0
280
0
281
0
  0
CLASS
  1
VISUALSTYLE
  2
AcDbVisualStyle
  3
ObjectDBX Classes
 90
4095
 91
0
280
0
281
0
  0
CLASS
  1
MATERIAL
  2
AcDbMaterial
  3
ObjectDBX Classes
 90
1153
 91
0
280
0
281
0
  0
CLASS
  1
SCALE
  2
AcDbScale
  3
ObjectDBX Classes
 90
1153
 91
0
280
0
281
0
  0
CLASS
  1
TABLESTYLE
  2
AcDbTableStyle
  3
ObjectDBX Classes
 90
4095
 91
0
280
0
281
0
  0
CLASS
  1
MLEADERSTYLE
  2
AcDbMLeaderStyle
  3
ACDB_MLEADERSTYLE_CLASS
 90
4095
 91
0
280
0
281
0
  0
CLASS
  1
DICTIONARYVAR
  2
AcDbDictionaryVar
  3
ObjectDBX Classes
 90
0
 91
0
280
0
281
0
  0
CLASS
  1
CELLSTYLEMAP
  2
AcDbCellStyleMap
  3
ObjectDBX Classes
 90
1152
 91
0
280
0
281
0
  0
CLASS
  1
MENTALRAYRENDERSETTINGS
  2
AcDbMentalRayRenderSettings
  3
SCENEOE
 90
1024
 91
0
280
0
281
0
  0
CLASS
  1
ACDBDETAILVIEWSTYLE
  2
AcDbDetailViewStyle
  3
ObjectDBX Classes
 90
1025
 91
0
280
0
281
0
  0
CLASS
  1
ACDBSECTIONVIEWSTYLE
  2
AcDbSectionViewStyle
  3
ObjectDBX Classes
 90
1025
 91
0
280
0
281
0
  0
CLASS
  1
RASTERVARIABLES
  2
AcDbRasterVariables
  3
ISM
 90
0
 91
0
280
0
281
0
  0
CLASS
  1
ACDBPLACEHOLDER
  2
AcDbPlaceHolder
  3
ObjectDBX Classes
 90
0
 91
0
280
0
281
0
  0
CLASS
  1
LAYOUT
  2
AcDbLayout
  3
ObjectDBX Classes
 90
0
 91
0
280
0
281
0
  0
ENDSEC
  0
SECTION
  2
TABLES
  0
TABLE
  2
VPORT
  5
8
330
0
100
AcDbSymbolTable
 70
1
  0
VPORT
  5
23
330
8
100
AcDbSymbolTableRecord
100
AcDbViewportTableRecord
  2
*Active
 70
0
 10
0.0
 20
0.0
 11
1.0
 21
1.0
 12
0.0
 22
0.0
 13
0.0
 23
0.0
 14
0.5
 24
0.5
 15
0.5
 25
0.5
 16
0.0
 26
0.0
 36
1.0
 17
0.0
 27
0.0
 37
0.0
 40
1000.0
 41
1.34
 42
50.0
 43
0.0
 44
0.0
 50
0.0
 51
0.0
 71
0
 72
1000
 73
1
 74
3
 75
0
 76
0
 77
0
 78
0
281
0
 65
0
146
0.0
  0
ENDTAB
  0
TABLE
  2
LTYPE
  5
2
330
0
100
AcDbSymbolTable
 70
3
  0
LTYPE
  5
24
330
2
100
AcDbSymbolTableRecord
100
AcDbLinetypeTableRecord
  2
ByBlock
 70
0
  3

 72
65
 73
0
 40
0.0
  0
LTYPE
  5
25
330
2
100
AcDbSymbolTableRecord
100
AcDbLinetypeTableRecord
  2
ByLayer
 70
0
  3

 72
65
 73
0
 40
0.0
  0
LTYPE
  5
26
330
2
100
AcDbSymbolTableRecord
100
AcDbLinetypeTableRecord
  2
Continuous
 70
0
  3

 72
65
 73
0
 40
0.0
  0
ENDTAB
  0
TABLE
  2
LAYER
  5
1
330
0
100
AcDbSymbolTable
 70
5
  0
LAYER
  5
27
330
1
100
AcDbSymbolTableRecord
100
AcDbLayerTableRecord
  2
0
 70
0
 62
7
  6
Continuous
370
-3
390
13
347
21
  0
LAYER
  5
28
330
1
100
AcDbSymbolTableRecord
100
AcDbLayerTableRecord
  2
Defpoints
 70
0
 62
7
  6
Continuous
290
0
370
-3
390
13
347
21
  0
LAYER
  5
30
330
1
100
AcDbSymbolTableRecord
100
AcDbLayerTableRecord
  2
FoilLayer
 70
0
 62
1
  6
Continuous
370
50
390
13
347
21
  0
LAYER
  5
31
330
1
100
AcDbSymbolTableRecord
100
AcDbLayerTableRecord
  2
StringerLayer
 70
0
 62
1
  6
Continuous
370
50
390
13
347
21
  0
LAYER
  5
32
330
1
100
AcDbSymbolTableRecord
100
AcDbLayerTableRecord
  2
SubLayer
 70
0
 62
1
  6
Continuous
370
50
390
13
347
21
  0
ENDTAB
  0
TABLE
  2
STYLE
  5
5
330
0
100
AcDbSymbolTable
 70
2
  0
STYLE
  5
29
330
5
100
AcDbSymbolTableRecord
100
AcDbTextStyleTableRecord
  2
Standard
 70
0
 40
0.0
 41
1.0
 50
0.0
 71
0
 42
2.5
  3
txt
  4

  0
STYLE
  5
2F
330
5
100
AcDbSymbolTableRecord
100
AcDbTextStyleTableRecord
  2
MSゴシック
 70
0
 40
0.0
 41
1.0
 50
0.0
 71
0
 42
2.5
  3
romans
  4

  0
ENDTAB
  0
TABLE
  2
VIEW
  5
7
330
0
100
AcDbSymbolTable
 70
0
  0
ENDTAB
  0
TABLE
  2
UCS
  5
6
330
0
100
AcDbSymbolTable
 70
0
  0
ENDTAB
  0
TABLE
  2
APPID
  5
3
330
0
100
AcDbSymbolTable
 70
3
  0
APPID
  5
2A
330
3
100
AcDbSymbolTableRecord
100
AcDbRegAppTableRecord
  2
ACAD
 70
0
  0
APPID
  5
19F
330
3
100
AcDbSymbolTableRecord
100
AcDbRegAppTableRecord
  2
HATCHBACKGROUNDCOLOR
 70
0
  0
APPID
  5
1A0
330
3
100
AcDbSymbolTableRecord
100
AcDbRegAppTableRecord
  2
EZDXF
 70
0
  0
ENDTAB
  0
TABLE
  2
DIMSTYLE
  5
4
330
0
100
AcDbSymbolTable
 70
1
100
AcDbDimStyleTable
  0
DIMSTYLE
105
2B
330
4
100
AcDbSymbolTableRecord
100
AcDbDimStyleTableRecord
  2
Standard
 70
0
 40
1.0
 41
2.5
 42
0.625
 43
3.75
 44
1.25
 45
0.0
 46
0.0
 47
0.0
 48
0.0
 49
2.5
140
2.5
141
2.5
142
0.0
143
0.03937007874
144
1.0
145
0.0
146
1.0
147
0.625
148
0.0
 69
0
 70
0
 71
0
 72
0
 73
0
 74
0
 75
0
 76
0
 77
1
 78
8
 79
3
170
0
171
3
172
1
173
0
174
0
175
0
176
0
177
0
178
0
179
2
271
2
272
2
273
2
274
3
275
0
276
0
277
2
278
44
279
0
280
0
281
0
282
0
283
0
284
8
285
0
286
0
288
0
289
3
290
0
371
-2
372
-2
  0
ENDTAB
  0
TABLE
  2
BLOCK_RECORD
  5
9
330
0
100
AcDbSymbolTable
 70
2
  0
BLOCK_RECORD
  5
17
330
9
100
AcDbSymbolTableRecord
100
AcDbBlockTableRecord
  2
*Model_Space
340
1A
 70
0
280
1
281
0
  0
BLOCK_RECORD
  5
1B
330
9
100
AcDbSymbolTableRecord
100
AcDbBlockTableRecord
  2
*Paper_Space
340
1E
 70
0
280
1
281
0
  0
ENDTAB
  0
ENDSEC
  0
SECTION
  2
BLOCKS
  0
BLOCK
  5
18
330
17
100
AcDbEntity
  8
0
100
AcDbBlockBegin
  2
*Model_Space
 70
0
 10
0.0
 20
0.0
 30
0.0
  3
*Model_Space
  1

  0
ENDBLK
  5
19
330
17
100
AcDbEntity
  8
0
100
AcDbBlockEnd
  0
BLOCK
  5
1C
330
1B
100
AcDbEntity
  8
0
100
AcDbBlockBegin
  2
*Paper_Space
 70
0
 10
0.0
 20
0.0
 30
0.0
  3
*Paper_Space
  1

  0
ENDBLK
  5
1D
330
1B
100
AcDbEntity
  8
0
100
AcDbBlockEnd
  0
ENDSEC
  0
SECTION
  2
ENTITIES
  0
LINE
  5
33
330
17
100
AcDbEntity
  8
FoilLayer
100
AcDbLine
 10
373.74906958193424
 20
-0.39597403397876063
 30
0.0
 11
373.63821069052074
 21
-0.3571503022404887
 31
0.0
  0
LINE
  5
34
330
17
100
AcDbEntity
  8
FoilLayer
100
AcDbLine
 10
373.63821069052074
 20
-0.3571503022404887
 30
0.0
 11
373.2942240671746
 21
-0.24051697928565816
 31
0.0
  0
LINE
  5
35
330
17
100
AcDbEntity
  8
FoilLayer
100
AcDbLine
 10
373.2942240671746
 20
-0.24051697928565816
 30
0.0
 11
372.7543367657174
 21
-0.05098113722915504
 31
0.0
  0
LINE
  5
36
330
17
100
AcDbEntity
  8
FoilLayer
100
AcDbLine
 10
372.7543367657174
 20
-0.05098113722915504
 30
0.0
 11
372.0134693925746
 21
0.20746286247947238
 31
0.0
  0
LINE
  5
37
330
17
100
AcDbEntity
  8
FoilLayer
100
AcDbLine
 10
372.0134693925746
 20
0.20746286247947238
 30
0.0
 11
371.0823677537677
 21
0.5293259876053045
 31
0.0
  0
LINE
  5
38
330
17
100
AcDbEntity
  8
FoilLayer
100
AcDbLine
 10
371.0823677537677
 20
0.5293259876053045
 30
0.0
 11
369.96343144919285
 21
0.9137912315193386
 31
0.0
  0
LINE
  5
39
330
17
100
AcDbEntity
  8
FoilLayer
100
AcDbLine
 10
369.96343144919285
 20
0.9137912315193386
 30
0.0
 11
368.6645106872836
 21
1.3505981136646932
 31
0.0
  0
LINE
  5
3A
330
17
100
AcDbEntity
  8
FoilLayer
100
AcDbLine
 10
368.6645106872836
 20
1.3505981136646932
 30
0.0
 11
367.18037979972064
 21
1.8453084095190235
 31
0.0
  0
LINE
  5
3B
330
17
100
AcDbEntity
  8
FoilLayer
100
AcDbLine
 10
367.18037979972064
 20
1.8453084095190235
 30
0.0
 11
365.52731555329865
 21
2.3963470188279437
 31
0.0
  0
LINE
  5
3C
330
17
100
AcDbEntity
  8
FoilLayer
100
AcDbLine
 10
365.52731555329865
 20
2.3963470188279437
 30
0.0
 11
363.69883694073906
 21
2.9885909147767924
 31
0.0
  0
LINE
  5
3D
330
17
100
AcDbEntity
  8
FoilLayer
100
AcDbLine
 10
363.69883694073906
 20
2.9885909147767924
 30
0.0
 11
361.6997208336808
 21
3.6319942193399184
 31
0.0
  0
LINE
  5
3E
330
17
100
AcDbEntity
  8
FoilLayer
100
AcDbLine
 10
361.6997208336808
 20
3.6319942193399184
 30
0.0
 11
359.5273445275095
 21
4.315895825995238
 31
0.0
  0
LINE
  5
3F
330
17
100
AcDbEntity
  8
FoilLayer
100
AcDbLine
 10
359.5273445275095
 20
4.315895825995238
 30
0.0
 11
357.1872564343248
 21
5.0403474077792865
 31
0.0
  0
LINE
  5
40
330
17
100
AcDbEntity
  8
FoilLayer
100
AcDbLine
 10
357.1872564343248
 20
5.0403474077792865
 30
0.0
 11
354.674780884287
 21
5.810765542717261
 31
0.0
  0
LINE
  5
41
330
17
100
AcDbEntity
  8
FoilLayer
100
AcDbLine
 10
354.674780884287
 20
5.810765542717261
 30
0.0
 11
352.001890135851
 21
6.621260041042804
 31
0.0
  0
LINE
  5
42
330
17
100
AcDbEntity
  8
FoilLayer
100
AcDbLine
 10
352.001890135851
 20
6.621260041042804
 30
0.0
 11
349.16696101889727
 21
7.46656477832143
 31
0.0
  0
LINE
  5
43
330
17
100
AcDbEntity
  8
FoilLayer
100
AcDbLine
 10
349.16696101889727
 20
7.46656477832143
 30
0.0
 11
346.17158537793523
 21
8.35195754257431
 31
0.0
  0
LINE
  5
44
330
17
100
AcDbEntity
  8
FoilLayer
100
AcDbLine
 10
346.17158537793523
 20
8.35195754257431
 30
0.0
 11
343.0149860303417
 21
9.271916433118806
 31
0.0
  0
LINE
  5
45
330
17
100
AcDbEntity
  8
FoilLayer
100
AcDbLine
 10
343.0149860303417
 20
9.271916433118806
 30
0.0
 11
339.6969954045869
 21
10.226487373216397
 31
0.0
  0
LINE
  5
46
330
17
100
AcDbEntity
  8
FoilLayer
100
AcDbLine
 10
339.6969954045869
 20
10.226487373216397
 30
0.0
 11
336.2223210074777
 21
11.21596423697918
 31
0.0
  0
LINE
  5
47
330
17
100
AcDbEntity
  8
FoilLayer
100
AcDbLine
 10
336.2223210074777
 20
11.21596423697918
 30
0.0
 11
332.59339171939325
 21
12.251158943241258
 31
0.0
  0
LINE
  5
48
330
17
100
AcDbEntity
  8
FoilLayer
100
AcDbLine
 10
332.59339171939325
 20
12.251158943241258
 30
0.0
 11
328.8133260734338
 21
13.321315141692876
 31
0.0
  0
LINE
  5
49
330
17
100
AcDbEntity
  8
FoilLayer
100
AcDbLine
 10
328.8133260734338
 20
13.321315141692876
 30
0.0
 11
324.89695493953286
 21
14.436993448109067
 31
0.0
  0
LINE
  5
4A
330
17
100
AcDbEntity
  8
FoilLayer
100
AcDbLine
 10
324.89695493953286
 20
14.436993448109067
 30
0.0
 11
320.84151217881663
 21
15.581721264047664
 31
0.0
  0
LINE
  5
4B
330
17
100
AcDbEntity
  8
FoilLayer
100
AcDbLine
 10
320.84151217881663
 20
15.581721264047664
 30
0.0
 11
316.64233819291724
 21
16.76669366448906
 31
0.0
  0
LINE
  5
4C
330
17
100
AcDbEntity
  8
FoilLayer
100
AcDbLine
 10
316.64233819291724
 20
16.76669366448906
 30
0.0
 11
312.31608588993845
 21
17.98632883530867
 31
0.0
  0
LINE
  5
4D
330
17
100
AcDbEntity
  8
FoilLayer
100
AcDbLine
 10
312.31608588993845
 20
17.98632883530867
 30
0.0
 11
307.86402603399074
 21
19.246020328007006
 31
0.0
  0
LINE
  5
4E
330
17
100
AcDbEntity
  8
FoilLayer
100
AcDbLine
 10
307.86402603399074
 20
19.246020328007006
 30
0.0
 11
303.29640821756595
 21
20.534617836348303
 31
0.0
  0
LINE
  5
4F
330
17
100
AcDbEntity
  8
FoilLayer
100
AcDbLine
 10
303.29640821756595
 20
20.534617836348303
 30
0.0
 11
298.6147122914708
 21
21.857456538289643
 31
0.0
  0
LINE
  5
50
330
17
100
AcDbEntity
  8
FoilLayer
100
AcDbLine
 10
298.6147122914708
 20
21.857456538289643
 30
0.0
 11
293.8174605937701
 21
23.20344812482537
 31
0.0
  0
LINE
  5
51
330
17
100
AcDbEntity
  8
FoilLayer
100
AcDbLine
 10
293.8174605937701
 20
23.20344812482537
 30
0.0
 11
288.90476048251253
 21
24.578313862387535
 31
0.0
  0
LINE
  5
52
330
17
100
AcDbEntity
  8
FoilLayer
100
AcDbLine
 10
288.90476048251253
 20
24.578313862387535
 30
0.0
 11
283.8941461315085
 21
25.9819762748506
 31
0.0
  0
LINE
  5
53
330
17
100
AcDbEntity
  8
FoilLayer
100
AcDbLine
 10
283.8941461315085
 20
25.9819762748506
 30
0.0
 11
278.79226653562773
 21
27.41418409959703
 31
0.0
  0
LINE
  5
54
330
17
100
AcDbEntity
  8
FoilLayer
100
AcDbLine
 10
278.79226653562773
 20
27.41418409959703
 30
0.0
 11
273.6046437327125
 21
28.86349924466046
 31
0.0
  0
LINE
  5
55
330
17
100
AcDbEntity
  8
FoilLayer
100
AcDbLine
 10
273.6046437327125
 20
28.86349924466046
 30
0.0
 11
268.3243958858641
 21
30.32448316009607
 31
0.0
  0
LINE
  5
56
330
17
100
AcDbEntity
  8
FoilLayer
100
AcDbLine
 10
268.3243958858641
 20
30.32448316009607
 30
0.0
 11
262.95772920479556
 21
31.80276128543396
 31
0.0
  0
LINE
  5
57
330
17
100
AcDbEntity
  8
FoilLayer
100
AcDbLine
 10
262.95772920479556
 20
31.80276128543396
 30
0.0
 11
257.51028748673264
 21
33.29836304333491
 31
0.0
  0
LINE
  5
58
330
17
100
AcDbEntity
  8
FoilLayer
100
AcDbLine
 10
257.51028748673264
 20
33.29836304333491
 30
0.0
 11
251.99411565866384
 21
34.81114031498249
 31
0.0
  0
LINE
  5
59
330
17
100
AcDbEntity
  8
FoilLayer
100
AcDbLine
 10
251.99411565866384
 20
34.81114031498249
 30
0.0
 11
246.41619774645247
 21
36.33500920729851
 31
0.0
  0
LINE
  5
5A
330
17
100
AcDbEntity
  8
FoilLayer
100
AcDbLine
 10
246.41619774645247
 20
36.33500920729851
 30
0.0
 11
240.78001039178523
 21
37.84757965596666
 31
0.0
  0
LINE
  5
5B
330
17
100
AcDbEntity
  8
FoilLayer
100
AcDbLine
 10
240.78001039178523
 20
37.84757965596666
 30
0.0
 11
235.08052218658045
 21
39.36015998835265
 31
0.0
  0
LINE
  5
5C
330
17
100
AcDbEntity
  8
FoilLayer
100
AcDbLine
 10
235.08052218658045
 20
39.36015998835265
 30
0.0
 11
229.97666509359496
 21
40.69979513351751
 31
0.0
  0
LINE
  5
5D
330
17
100
AcDbEntity
  8
FoilLayer
100
AcDbLine
 10
229.97666509359496
 20
40.69979513351751
 30
0.0
 11
229.58315799173565
 21
39.200577950856406
 31
0.0
  0
LINE
  5
5E
330
17
100
AcDbEntity
  8
FoilLayer
100
AcDbLine
 10
229.58315799173565
 20
39.200577950856406
 30
0.0
 11
228.93042216250146
 21
39.37191975996216
 31
0.0
  0
LINE
  5
5F
330
17
100
AcDbEntity
  8
FoilLayer
100
AcDbLine
 10
228.93042216250146
 20
39.37191975996216
 30
0.0
 11
223.1277152553786
 21
40.87144566483157
 31
0.0
  0
LINE
  5
60
330
17
100
AcDbEntity
  8
FoilLayer
100
AcDbLine
 10
223.1277152553786
 20
40.87144566483157
 30
0.0
 11
217.2806757702144
 21
42.359073952447204
 31
0.0
  0
LINE
  5
61
330
17
100
AcDbEntity
  8
FoilLayer
100
AcDbLine
 10
217.2806757702144
 20
42.359073952447204
 30
0.0
 11
211.38837445734677
 21
43.82930355002661
 31
0.0
  0
LINE
  5
62
330
17
100
AcDbEntity
  8
FoilLayer
100
AcDbLine
 10
211.38837445734677
 20
43.82930355002661
 30
0.0
 11
205.43670999112734
 21
45.282767435725226
 31
0.0
  0
LINE
  5
63
330
17
100
AcDbEntity
  8
FoilLayer
100
AcDbLine
 10
205.43670999112734
 20
45.282767435725226
 30
0.0
 11
199.44694608819353
 21
46.71985589329914
 31
0.0
  0
LINE
  5
64
330
17
100
AcDbEntity
  8
FoilLayer
100
AcDbLine
 10
199.44694608819353
 20
46.71985589329914
 30
0.0
 11
193.42841321042053
 21
48.149859014574744
 31
0.0
  0
LINE
  5
65
330
17
100
AcDbEntity
  8
FoilLayer
100
AcDbLine
 10
193.42841321042053
 20
48.149859014574744
 30
0.0
 11
187.394362279004
 21
49.55076077285411
 31
0.0
  0
LINE
  5
66
330
17
100
AcDbEntity
  8
FoilLayer
100
AcDbLine
 10
187.394362279004
 20
49.55076077285411
 30
0.0
 11
181.34518405653776
 21
50.91675619649338
 31
0.0
  0
LINE
  5
67
330
17
100
AcDbEntity
  8
FoilLayer
100
AcDbLine
 10
181.34518405653776
 20
50.91675619649338
 30
0.0
 11
175.27862024586594
 21
52.24141037311482
 31
0.0
  0
LINE
  5
68
330
17
100
AcDbEntity
  8
FoilLayer
100
AcDbLine
 10
175.27862024586594
 20
52.24141037311482
 30
0.0
 11
169.17828514476273
 21
53.509739271459566
 31
0.0
  0
LINE
  5
69
330
17
100
AcDbEntity
  8
FoilLayer
100
AcDbLine
 10
169.17828514476273
 20
53.509739271459566
 30
0.0
 11
163.04231675466727
 21
54.73812845226041
 31
0.0
  0
LINE
  5
6A
330
17
100
AcDbEntity
  8
FoilLayer
100
AcDbLine
 10
163.04231675466727
 20
54.73812845226041
 30
0.0
 11
156.89149100226066
 21
55.92590033954748
 31
0.0
  0
LINE
  5
6B
330
17
100
AcDbEntity
  8
FoilLayer
100
AcDbLine
 10
156.89149100226066
 20
55.92590033954748
 30
0.0
 11
150.71265954806776
 21
57.067650494964965
 31
0.0
  0
LINE
  5
6C
330
17
100
AcDbEntity
  8
FoilLayer
100
AcDbLine
 10
150.71265954806776
 20
57.067650494964965
 30
0.0
 11
144.5229286783871
 21
58.15767076512204
 31
0.0
  0
LINE
  5
6D
330
17
100
AcDbEntity
  8
FoilLayer
100
AcDbLine
 10
144.5229286783871
 20
58.15767076512204
 30
0.0
 11
138.30985531397155
 21
59.19612509878574
 31
0.0
  0
LINE
  5
6E
330
17
100
AcDbEntity
  8
FoilLayer
100
AcDbLine
 10
138.30985531397155
 20
59.19612509878574
 30
0.0
 11
132.07976537733552
 21
60.18291830600988
 31
0.0
  0
LINE
  5
6F
330
17
100
AcDbEntity
  8
FoilLayer
100
AcDbLine
 10
132.07976537733552
 20
60.18291830600988
 30
0.0
 11
125.82610582367974
 21
61.118168909333605
 31
0.0
  0
LINE
  5
70
330
17
100
AcDbEntity
  8
FoilLayer
100
AcDbLine
 10
125.82610582367974
 20
61.118168909333605
 30
0.0
 11
119.560702828502
 21
62.00181944481249
 31
0.0
  0
LINE
  5
71
330
17
100
AcDbEntity
  8
FoilLayer
100
AcDbLine
 10
119.560702828502
 20
62.00181944481249
 30
0.0
 11
113.28979272442567
 21
62.83380330898467
 31
0.0
  0
LINE
  5
72
330
17
100
AcDbEntity
  8
FoilLayer
100
AcDbLine
 10
113.28979272442567
 20
62.83380330898467
 30
0.0
 11
107.00716150097426
 21
63.6141797116877
 31
0.0
  0
LINE
  5
73
330
17
100
AcDbEntity
  8
FoilLayer
100
AcDbLine
 10
107.00716150097426
 20
63.6141797116877
 30
0.0
 11
100.72237953210649
 21
64.34253542592808
 31
0.0
  0
LINE
  5
74
330
17
100
AcDbEntity
  8
FoilLayer
100
AcDbLine
 10
100.72237953210649
 20
64.34253542592808
 30
0.0
 11
94.42827943846177
 21
65.00815979543353
 31
0.0
  0
LINE
  5
75
330
17
100
AcDbEntity
  8
FoilLayer
100
AcDbLine
 10
94.42827943846177
 20
65.00815979543353
 30
0.0
 11
88.12647611057079
 21
65.6223223655333
 31
0.0
  0
LINE
  5
76
330
17
100
AcDbEntity
  8
FoilLayer
100
AcDbLine
 10
88.12647611057079
 20
65.6223223655333
 30
0.0
 11
81.82816117677359
 21
66.19028396628124
 31
0.0
  0
LINE
  5
77
330
17
100
AcDbEntity
  8
FoilLayer
100
AcDbLine
 10
81.82816117677359
 20
66.19028396628124
 30
0.0
 11
75.53204979217051
 21
66.70114147244784
 31
0.0
  0
LINE
  5
78
330
17
100
AcDbEntity
  8
FoilLayer
100
AcDbLine
 10
75.53204979217051
 20
66.70114147244784
 30
0.0
 11
69.24513353515837
 21
67.16585619126093
 31
0.0
  0
LINE
  5
79
330
17
100
AcDbEntity
  8
FoilLayer
100
AcDbLine
 10
69.24513353515837
 20
67.16585619126093
 30
0.0
 11
62.97570559300161
 21
67.5731923082349
 31
0.0
  0
LINE
  5
7A
330
17
100
AcDbEntity
  8
FoilLayer
100
AcDbLine
 10
62.97570559300161
 20
67.5731923082349
 30
0.0
 11
56.71787604205426
 21
67.92316226025386
 31
0.0
  0
LINE
  5
7B
330
17
100
AcDbEntity
  8
FoilLayer
100
AcDbLine
 10
56.71787604205426
 20
67.92316226025386
 30
0.0
 11
50.46973419593357
 21
68.21584134448463
 31
0.0
  0
LINE
  5
7C
330
17
100
AcDbEntity
  8
FoilLayer
100
AcDbLine
 10
50.46973419593357
 20
68.21584134448463
 30
0.0
 11
44.23889907152366
 21
68.45687958761177
 31
0.0
  0
LINE
  5
7D
330
17
100
AcDbEntity
  8
FoilLayer
100
AcDbLine
 10
44.23889907152366
 20
68.45687958761177
 30
0.0
 11
38.03112449626596
 21
68.64627805702135
 31
0.0
  0
LINE
  5
7E
330
17
100
AcDbEntity
  8
FoilLayer
100
AcDbLine
 10
38.03112449626596
 20
68.64627805702135
 30
0.0
 11
31.859974741933286
 21
68.78400995833947
 31
0.0
  0
LINE
  5
7F
330
17
100
AcDbEntity
  8
FoilLayer
100
AcDbLine
 10
31.859974741933286
 20
68.78400995833947
 30
0.0
 11
25.711965918690794
 21
68.86438773844749
 31
0.0
  0
LINE
  5
80
330
17
100
AcDbEntity
  8
FoilLayer
100
AcDbLine
 10
25.711965918690794
 20
68.86438773844749
 30
0.0
 11
19.6005462555151
 21
68.88742688397274
 31
0.0
  0
LINE
  5
81
330
17
100
AcDbEntity
  8
FoilLayer
100
AcDbLine
 10
19.6005462555151
 20
68.88742688397274
 30
0.0
 11
13.506673186231978
 21
68.84731806115397
 31
0.0
  0
LINE
  5
82
330
17
100
AcDbEntity
  8
FoilLayer
100
AcDbLine
 10
13.506673186231978
 20
68.84731806115397
 30
0.0
 11
7.447567281201145
 21
68.76131112072895
 31
0.0
  0
LINE
  5
83
330
17
100
AcDbEntity
  8
FoilLayer
100
AcDbLine
 10
7.447567281201145
 20
68.76131112072895
 30
0.0
 11
1.4384907802652265
 21
68.62952755225825
 31
0.0
  0
LINE
  5
84
330
17
100
AcDbEntity
  8
FoilLayer
100
AcDbLine
 10
1.4384907802652265
 20
68.62952755225825
 30
0.0
 11
-4.53176673120592
 21
68.44035015888424
 31
0.0
  0
LINE
  5
85
330
17
100
AcDbEntity
  8
FoilLayer
100
AcDbLine
 10
-4.53176673120592
 20
68.44035015888424
 30
0.0
 11
-10.440567370908582
 21
68.19976350409695
 31
0.0
  0
LINE
  5
86
330
17
100
AcDbEntity
  8
FoilLayer
100
AcDbLine
 10
-10.440567370908582
 20
68.19976350409695
 30
0.0
 11
-16.312627959698034
 21
67.89592391742438
 31
0.0
  0
LINE
  5
87
330
17
100
AcDbEntity
  8
FoilLayer
100
AcDbLine
 10
-16.312627959698034
 20
67.89592391742438
 30
0.0
 11
-22.138408161938344
 21
67.54050171157583
 31
0.0
  0
LINE
  5
88
330
17
100
AcDbEntity
  8
FoilLayer
100
AcDbLine
 10
-22.138408161938344
 20
67.54050171157583
 30
0.0
 11
-27.919417646696814
 21
67.13338438015238
 31
0.0
  0
LINE
  5
89
330
17
100
AcDbEntity
  8
FoilLayer
100
AcDbLine
 10
-27.919417646696814
 20
67.13338438015238
 30
0.0
 11
-33.63662116166802
 21
66.68044793087329
 31
0.0
  0
LINE
  5
8A
330
17
100
AcDbEntity
  8
FoilLayer
100
AcDbLine
 10
-33.63662116166802
 20
66.68044793087329
 30
0.0
 11
-39.28054626173781
 21
66.1820741211517
 31
0.0
  0
LINE
  5
8B
330
17
100
AcDbEntity
  8
FoilLayer
100
AcDbLine
 10
-39.28054626173781
 20
66.1820741211517
 30
0.0
 11
-44.85895289278881
 21
65.62667656815212
 31
0.0
  0
LINE
  5
8C
330
17
100
AcDbEntity
  8
FoilLayer
100
AcDbLine
 10
-44.85895289278881
 20
65.62667656815212
 30
0.0
 11
-50.385325311733965
 21
65.0076313174913
 31
0.0
  0
LINE
  5
8D
330
17
100
AcDbEntity
  8
FoilLayer
100
AcDbLine
 10
-50.385325311733965
 20
65.0076313174913
 30
0.0
 11
-55.847773252274806
 21
64.34283596816238
 31
0.0
  0
LINE
  5
8E
330
17
100
AcDbEntity
  8
FoilLayer
100
AcDbLine
 10
-55.847773252274806
 20
64.34283596816238
 30
0.0
 11
-61.24076424415799
 21
63.632279529808464
 31
0.0
  0
LINE
  5
8F
330
17
100
AcDbEntity
  8
FoilLayer
100
AcDbLine
 10
-61.24076424415799
 20
63.632279529808464
 30
0.0
 11
-66.56575762367831
 21
62.87575385286703
 31
0.0
  0
LINE
  5
90
330
17
100
AcDbEntity
  8
FoilLayer
100
AcDbLine
 10
-66.56575762367831
 20
62.87575385286703
 30
0.0
 11
-71.80509381293894
 21
62.079984020171814
 31
0.0
  0
LINE
  5
91
330
17
100
AcDbEntity
  8
FoilLayer
100
AcDbLine
 10
-71.80509381293894
 20
62.079984020171814
 30
0.0
 11
-76.95824087055448
 21
61.23272847527026
 31
0.0
  0
LINE
  5
92
330
17
100
AcDbEntity
  8
FoilLayer
100
AcDbLine
 10
-76.95824087055448
 20
61.23272847527026
 30
0.0
 11
-82.03822320158837
 21
60.333697957437394
 31
0.0
  0
LINE
  5
93
330
17
100
AcDbEntity
  8
FoilLayer
100
AcDbLine
 10
-82.03822320158837
 20
60.333697957437394
 30
0.0
 11
-87.04201542573476
 21
59.38919626916226
 31
0.0
  0
LINE
  5
94
330
17
100
AcDbEntity
  8
FoilLayer
100
AcDbLine
 10
-87.04201542573476
 20
59.38919626916226
 30
0.0
 11
-91.96107274197865
 21
58.39864520379465
 31
0.0
  0
LINE
  5
95
330
17
100
AcDbEntity
  8
FoilLayer
100
AcDbLine
 10
-91.96107274197865
 20
58.39864520379465
 30
0.0
 11
-96.79494388095985
 21
57.36784513003996
 31
0.0
  0
LINE
  5
96
330
17
100
AcDbEntity
  8
FoilLayer
100
AcDbLine
 10
-96.79494388095985
 20
57.36784513003996
 30
0.0
 11
-101.53275423829136
 21
56.30372602544356
 31
0.0
  0
LINE
  5
97
330
17
100
AcDbEntity
  8
FoilLayer
100
AcDbLine
 10
-101.53275423829136
 20
56.30372602544356
 30
0.0
 11
-106.16327486411878
 21
55.20063304649615
 31
0.0
  0
LINE
  5
98
330
17
100
AcDbEntity
  8
FoilLayer
100
AcDbLine
 10
-106.16327486411878
 20
55.20063304649615
 30
0.0
 11
-110.70842549658065
 21
54.045981344430224
 31
0.0
  0
LINE
  5
99
330
17
100
AcDbEntity
  8
FoilLayer
100
AcDbLine
 10
-110.70842549658065
 20
54.045981344430224
 30
0.0
 11
-115.16303871518541
 21
52.84531923405371
 31
0.0
  0
LINE
  5
9A
330
17
100
AcDbEntity
  8
FoilLayer
100
AcDbLine
 10
-115.16303871518541
 20
52.84531923405371
 30
0.0
 11
-119.53047532827986
 21
51.60333669961614
 31
0.0
  0
LINE
  5
9B
330
17
100
AcDbEntity
  8
FoilLayer
100
AcDbLine
 10
-119.53047532827986
 20
51.60333669961614
 30
0.0
 11
-123.78709303028887
 21
50.340874274816095
 31
0.0
  0
LINE
  5
9C
330
17
100
AcDbEntity
  8
FoilLayer
100
AcDbLine
 10
-123.78709303028887
 20
50.340874274816095
 30
0.0
 11
-127.94578991617396
 21
49.038669754720885
 31
0.0
  0
LINE
  5
9D
330
17
100
AcDbEntity
  8
FoilLayer
100
AcDbLine
 10
-127.94578991617396
 20
49.038669754720885
 30
0.0
 11
-131.995754575933
 21
47.70224869430253
 31
0.0
  0
LINE
  5
9E
330
17
100
AcDbEntity
  8
FoilLayer
100
AcDbLine
 10
-131.995754575933
 20
47.70224869430253
 30
0.0
 11
-135.9451704849101
 21
46.332800745159126
 31
0.0
  0
LINE
  5
9F
330
17
100
AcDbEntity
  8
FoilLayer
100
AcDbLine
 10
-135.9451704849101
 20
46.332800745159126
 30
0.0
 11
-139.78847553556812
 21
44.928206524848676
 31
0.0
  0
LINE
  5
A0
330
17
100
AcDbEntity
  8
FoilLayer
100
AcDbLine
 10
-139.78847553556812
 20
44.928206524848676
 30
0.0
 11
-143.53350907824557
 21
43.49552646006674
 31
0.0
  0
LINE
  5
A1
330
17
100
AcDbEntity
  8
FoilLayer
100
AcDbLine
 10
-143.53350907824557
 20
43.49552646006674
 30
0.0
 11
-147.1669913599966
 21
42.041291629746304
 31
0.0
  0
LINE
  5
A2
330
17
100
AcDbEntity
  8
FoilLayer
100
AcDbLine
 10
-147.1669913599966
 20
42.041291629746304
 30
0.0
 11
-150.68406029929344
 21
40.565253631548075
 31
0.0
  0
LINE
  5
A3
330
17
100
AcDbEntity
  8
FoilLayer
100
AcDbLine
 10
-150.68406029929344
 20
40.565253631548075
 30
0.0
 11
-154.08206951867845
 21
39.06873948738567
 31
0.0
  0
LINE
  5
A4
330
17
100
AcDbEntity
  8
FoilLayer
100
AcDbLine
 10
-154.08206951867845
 20
39.06873948738567
 30
0.0
 11
-157.36999676587223
 21
37.54192089134685
 31
0.0
  0
LINE
  5
A5
330
17
100
AcDbEntity
  8
FoilLayer
100
AcDbLine
 10
-157.36999676587223
 20
37.54192089134685
 30
0.0
 11
-160.54465394716638
 21
36.000536995145026
 31
0.0
  0
LINE
  5
A6
330
17
100
AcDbEntity
  8
FoilLayer
100
AcDbLine
 10
-160.54465394716638
 20
36.000536995145026
 30
0.0
 11
-163.61369369187318
 21
34.4350552354008
 31
0.0
  0
LINE
  5
A7
330
17
100
AcDbEntity
  8
FoilLayer
100
AcDbLine
 10
-163.61369369187318
 20
34.4350552354008
 30
0.0
 11
-166.55490660763564
 21
32.86846952593973
 31
0.0
  0
LINE
  5
A8
330
17
100
AcDbEntity
  8
FoilLayer
100
AcDbLine
 10
-166.55490660763564
 20
32.86846952593973
 30
0.0
 11
-169.3799652254824
 21
31.283009744601987
 31
0.0
  0
LINE
  5
A9
330
17
100
AcDbEntity
  8
FoilLayer
100
AcDbLine
 10
-169.3799652254824
 20
31.283009744601987
 30
0.0
 11
-172.0673252552912
 21
29.7053433361779
 31
0.0
  0
LINE
  5
AA
330
17
100
AcDbEntity
  8
FoilLayer
100
AcDbLine
 10
-172.0673252552912
 20
29.7053433361779
 30
0.0
 11
-174.63555493906412
 21
28.105224898980556
 31
0.0
  0
LINE
  5
AB
330
17
100
AcDbEntity
  8
FoilLayer
100
AcDbLine
 10
-174.63555493906412
 20
28.105224898980556
 30
0.0
 11
-177.0806594501242
 21
26.49283238792596
 31
0.0
  0
LINE
  5
AC
330
17
100
AcDbEntity
  8
FoilLayer
100
AcDbLine
 10
-177.0806594501242
 20
26.49283238792596
 30
0.0
 11
-179.41893983432698
 21
24.868570187841538
 31
0.0
  0
LINE
  5
AD
330
17
100
AcDbEntity
  8
FoilLayer
100
AcDbLine
 10
-179.41893983432698
 20
24.868570187841538
 30
0.0
 11
-181.63016243127413
 21
23.25620583499972
 31
0.0
  0
LINE
  5
AE
330
17
100
AcDbEntity
  8
FoilLayer
100
AcDbLine
 10
-181.63016243127413
 20
23.25620583499972
 30
0.0
 11
-183.7086250125412
 21
21.65189604413937
 31
0.0
  0
LINE
  5
AF
330
17
100
AcDbEntity
  8
FoilLayer
100
AcDbLine
 10
-183.7086250125412
 20
21.65189604413937
 30
0.0
 11
-185.65049967503677
 21
20.06421459330641
 31
0.0
  0
LINE
  5
B0
330
17
100
AcDbEntity
  8
FoilLayer
100
AcDbLine
 10
-185.65049967503677
 20
20.06421459330641
 30
0.0
 11
-187.46255301299715
 21
18.471910041446797
 31
0.0
  0
LINE
  5
B1
330
17
100
AcDbEntity
  8
FoilLayer
100
AcDbLine
 10
-187.46255301299715
 20
18.471910041446797
 30
0.0
 11
-189.15325316228254
 21
16.877833849351248
 31
0.0
  0
LINE
  5
B2
330
17
100
AcDbEntity
  8
FoilLayer
100
AcDbLine
 10
-189.15325316228254
 20
16.877833849351248
 30
0.0
 11
-190.71830016040943
 21
15.303608582177569
 31
0.0
  0
LINE
  5
B3
330
17
100
AcDbEntity
  8
FoilLayer
100
AcDbLine
 10
-190.71830016040943
 20
15.303608582177569
 30
0.0
 11
-192.161827352338
 21
13.739258638476205
 31
0.0
  0
LINE
  5
B4
330
17
100
AcDbEntity
  8
FoilLayer
100
AcDbLine
 10
-192.161827352338
 20
13.739258638476205
 30
0.0
 11
-193.47444177552802
 21
12.21458870642967
 31
0.0
  0
LINE
  5
B5
330
17
100
AcDbEntity
  8
FoilLayer
100
AcDbLine
 10
-193.47444177552802
 20
12.21458870642967
 30
0.0
 11
-194.65882520060254
 21
10.708276431664187
 31
0.0
  0
LINE
  5
B6
330
17
100
AcDbEntity
  8
FoilLayer
100
AcDbLine
 10
-194.65882520060254
 20
10.708276431664187
 30
0.0
 11
-195.70655564008817
 21
9.250199941040496
 31
0.0
  0
LINE
  5
B7
330
17
100
AcDbEntity
  8
FoilLayer
100
AcDbLine
 10
-195.70655564008817
 20
9.250199941040496
 30
0.0
 11
-196.61741657629517
 21
7.839250195963424
 31
0.0
  0
LINE
  5
B8
330
17
100
AcDbEntity
  8
FoilLayer
100
AcDbLine
 10
-196.61741657629517
 20
7.839250195963424
 30
0.0
 11
-197.40367346510834
 21
6.445872808732323
 31
0.0
  0
LINE
  5
B9
330
17
100
AcDbEntity
  8
FoilLayer
100
AcDbLine
 10
-197.40367346510834
 20
6.445872808732323
 30
0.0
 11
-198.03181308696705
 21
5.1748815297111905
 31
0.0
  0
LINE
  5
BA
330
17
100
AcDbEntity
  8
FoilLayer
100
AcDbLine
 10
-198.03181308696705
 20
5.1748815297111905
 30
0.0
 11
-198.57547220921188
 21
3.7729860151878967
 31
0.0
  0
LINE
  5
BB
330
17
100
AcDbEntity
  8
FoilLayer
100
AcDbLine
 10
-198.57547220921188
 20
3.7729860151878967
 30
0.0
 11
-198.9343700663366
 21
2.7904965902537437
 31
0.0
  0
LINE
  5
BC
330
17
100
AcDbEntity
  8
FoilLayer
100
AcDbLine
 10
-198.9343700663366
 20
2.7904965902537437
 30
0.0
 11
-199.19477756226772
 21
1.4897372377314952
 31
0.0
  0
LINE
  5
BD
330
17
100
AcDbEntity
  8
FoilLayer
100
AcDbLine
 10
-199.19477756226772
 20
1.4897372377314952
 30
0.0
 11
-199.3295454545453
 21
0.17257335901895224
 31
0.0
  0
LINE
  5
BE
330
17
100
AcDbEntity
  8
FoilLayer
100
AcDbLine
 10
-199.3295454545453
 20
0.17257335901895224
 30
0.0
 11
-199.33744048978272
 21
-0.07738610644688651
 31
0.0
  0
LINE
  5
BF
330
17
100
AcDbEntity
  8
FoilLayer
100
AcDbLine
 10
-199.33744048978272
 20
-0.07738610644688651
 30
0.0
 11
-199.24310183927966
 21
-1.2120207582571543
 31
0.0
  0
LINE
  5
C0
330
17
100
AcDbEntity
  8
FoilLayer
100
AcDbLine
 10
-199.24310183927966
 20
-1.2120207582571543
 30
0.0
 11
-199.00373922114102
 21
-2.0202699527783046
 31
0.0
  0
LINE
  5
C1
330
17
100
AcDbEntity
  8
FoilLayer
100
AcDbLine
 10
-199.00373922114102
 20
-2.0202699527783046
 30
0.0
 11
-198.6379391849352
 21
-2.805641121899253
 31
0.0
  0
LINE
  5
C2
330
17
100
AcDbEntity
  8
FoilLayer
100
AcDbLine
 10
-198.6379391849352
 20
-2.805641121899253
 30
0.0
 11
-198.08796976791726
 21
-3.6161440265746525
 31
0.0
  0
LINE
  5
C3
330
17
100
AcDbEntity
  8
FoilLayer
100
AcDbLine
 10
-198.08796976791726
 20
-3.6161440265746525
 30
0.0
 11
-197.40228728192312
 21
-4.405791919353136
 31
0.0
  0
LINE
  5
C4
330
17
100
AcDbEntity
  8
FoilLayer
100
AcDbLine
 10
-197.40228728192312
 20
-4.405791919353136
 30
0.0
 11
-196.5457830141007
 21
-5.179821423038332
 31
0.0
  0
LINE
  5
C5
330
17
100
AcDbEntity
  8
FoilLayer
100
AcDbLine
 10
-196.5457830141007
 20
-5.179821423038332
 30
0.0
 11
-195.53340882620986
 21
-5.9178923198203
 31
0.0
  0
LINE
  5
C6
330
17
100
AcDbEntity
  8
FoilLayer
100
AcDbLine
 10
-195.53340882620986
 20
-5.9178923198203
 30
0.0
 11
-194.3286580529031
 21
-6.620718530410793
 31
0.0
  0
LINE
  5
C7
330
17
100
AcDbEntity
  8
FoilLayer
100
AcDbLine
 10
-194.3286580529031
 20
-6.620718530410793
 30
0.0
 11
-192.881650139477
 21
-7.299677562826126
 31
0.0
  0
LINE
  5
C8
330
17
100
AcDbEntity
  8
FoilLayer
100
AcDbLine
 10
-192.881650139477
 20
-7.299677562826126
 30
0.0
 11
-191.21307997375314
 21
-7.965783150737286
 31
0.0
  0
LINE
  5
C9
330
17
100
AcDbEntity
  8
FoilLayer
100
AcDbLine
 10
-191.21307997375314
 20
-7.965783150737286
 30
0.0
 11
-189.34800313536113
 21
-8.618297392020432
 31
0.0
  0
LINE
  5
CA
330
17
100
AcDbEntity
  8
FoilLayer
100
AcDbLine
 10
-189.34800313536113
 20
-8.618297392020432
 30
0.0
 11
-187.35349815180203
 21
-9.244531339430136
 31
0.0
  0
LINE
  5
CB
330
17
100
AcDbEntity
  8
FoilLayer
100
AcDbLine
 10
-187.35349815180203
 20
-9.244531339430136
 30
0.0
 11
-185.18756457438937
 21
-9.823762102632056
 31
0.0
  0
LINE
  5
CC
330
17
100
AcDbEntity
  8
FoilLayer
100
AcDbLine
 10
-185.18756457438937
 20
-9.823762102632056
 30
0.0
 11
-182.83125464402525
 21
-10.353164351115886
 31
0.0
  0
LINE
  5
CD
330
17
100
AcDbEntity
  8
FoilLayer
100
AcDbLine
 10
-182.83125464402525
 20
-10.353164351115886
 30
0.0
 11
-180.28242967943888
 21
-10.852018050385716
 31
0.0
  0
LINE
  5
CE
330
17
100
AcDbEntity
  8
FoilLayer
100
AcDbLine
 10
-180.28242967943888
 20
-10.852018050385716
 30
0.0
 11
-177.55164720552398
 21
-11.329252039596433
 31
0.0
  0
LINE
  5
CF
330
17
100
AcDbEntity
  8
FoilLayer
100
AcDbLine
 10
-177.55164720552398
 20
-11.329252039596433
 30
0.0
 11
-174.68313048336296
 21
-11.77681440369227
 31
0.0
  0
LINE
  5
D0
330
17
100
AcDbEntity
  8
FoilLayer
100
AcDbLine
 10
-174.68313048336296
 20
-11.77681440369227
 30
0.0
 11
-171.65545876496208
 21
-12.1741983779211
 31
0.0
  0
LINE
  5
D1
330
17
100
AcDbEntity
  8
FoilLayer
100
AcDbLine
 10
-171.65545876496208
 20
-12.1741983779211
 30
0.0
 11
-168.4570244791911
 21
-12.521660634660599
 31
0.0
  0
LINE
  5
D2
330
17
100
AcDbEntity
  8
FoilLayer
100
AcDbLine
 10
-168.4570244791911
 20
-12.521660634660599
 30
0.0
 11
-165.06694398269687
 21
-12.830482275752452
 31
0.0
  0
LINE
  5
D3
330
17
100
AcDbEntity
  8
FoilLayer
100
AcDbLine
 10
-165.06694398269687
 20
-12.830482275752452
 30
0.0
 11
-161.5075588390502
 21
-13.116694086022179
 31
0.0
  0
LINE
  5
D4
330
17
100
AcDbEntity
  8
FoilLayer
100
AcDbLine
 10
-161.5075588390502
 20
-13.116694086022179
 30
0.0
 11
-157.80571676643078
 21
-13.379645948306928
 31
0.0
  0
LINE
  5
D5
330
17
100
AcDbEntity
  8
FoilLayer
100
AcDbLine
 10
-157.80571676643078
 20
-13.379645948306928
 30
0.0
 11
-153.9729270439271
 21
-13.602355600037184
 31
0.0
  0
LINE
  5
D6
330
17
100
AcDbEntity
  8
FoilLayer
100
AcDbLine
 10
-153.9729270439271
 20
-13.602355600037184
 30
0.0
 11
-149.98008142241534
 21
-13.76837274213437
 31
0.0
  0
LINE
  5
D7
330
17
100
AcDbEntity
  8
FoilLayer
100
AcDbLine
 10
-149.98008142241534
 20
-13.76837274213437
 30
0.0
 11
-145.827845720252
 21
-13.894455317523493
 31
0.0
  0
LINE
  5
D8
330
17
100
AcDbEntity
  8
FoilLayer
100
AcDbLine
 10
-145.827845720252
 20
-13.894455317523493
 30
0.0
 11
-141.4963190358839
 21
-13.986282742662922
 31
0.0
  0
LINE
  5
D9
330
17
100
AcDbEntity
  8
FoilLayer
100
AcDbLine
 10
-141.4963190358839
 20
-13.986282742662922
 30
0.0
 11
-137.0335161625564
 21
-14.055113604098803
 31
0.0
  0
LINE
  5
DA
330
17
100
AcDbEntity
  8
FoilLayer
100
AcDbLine
 10
-137.0335161625564
 20
-14.055113604098803
 30
0.0
 11
-132.43401951668932
 21
-14.083850251572994
 31
0.0
  0
LINE
  5
DB
330
17
100
AcDbEntity
  8
FoilLayer
100
AcDbLine
 10
-132.43401951668932
 20
-14.083850251572994
 30
0.0
 11
-127.70102500385532
 21
-14.066746002009694
 31
0.0
  0
LINE
  5
DC
330
17
100
AcDbEntity
  8
FoilLayer
100
AcDbLine
 10
-127.70102500385532
 20
-14.066746002009694
 30
0.0
 11
-122.804757612223
 21
-14.003633322950321
 31
0.0
  0
LINE
  5
DD
330
17
100
AcDbEntity
  8
FoilLayer
100
AcDbLine
 10
-122.804757612223
 20
-14.003633322950321
 30
0.0
 11
-117.74822781960944
 21
-13.911704323894732
 31
0.0
  0
LINE
  5
DE
330
17
100
AcDbEntity
  8
FoilLayer
100
AcDbLine
 10
-117.74822781960944
 20
-13.911704323894732
 30
0.0
 11
-112.55215955607044
 21
-13.802640093240589
 31
0.0
  0
LINE
  5
DF
330
17
100
AcDbEntity
  8
FoilLayer
100
AcDbLine
 10
-112.55215955607044
 20
-13.802640093240589
 30
0.0
 11
-107.24681650577608
 21
-13.665049402898065
 31
0.0
  0
LINE
  5
E0
330
17
100
AcDbEntity
  8
FoilLayer
100
AcDbLine
 10
-107.24681650577608
 20
-13.665049402898065
 30
0.0
 11
-101.80999797985795
 21
-13.481363240523006
 31
0.0
  0
LINE
  5
E1
330
17
100
AcDbEntity
  8
FoilLayer
100
AcDbLine
 10
-101.80999797985795
 20
-13.481363240523006
 30
0.0
 11
-96.24019143977273
 21
-13.263190025365953
 31
0.0
  0
LINE
  5
E2
330
17
100
AcDbEntity
  8
FoilLayer
100
AcDbLine
 10
-96.24019143977273
 20
-13.263190025365953
 30
0.0
 11
-90.5164748977859
 21
-13.01008095243333
 31
0.0
  0
LINE
  5
E3
330
17
100
AcDbEntity
  8
FoilLayer
100
AcDbLine
 10
-90.5164748977859
 20
-13.01008095243333
 30
0.0
 11
-84.66665215262817
 21
-12.751503038840577
 31
0.0
  0
LINE
  5
E4
330
17
100
AcDbEntity
  8
FoilLayer
100
AcDbLine
 10
-84.66665215262817
 20
-12.751503038840577
 30
0.0
 11
-78.71496243218176
 21
-12.47001963583045
 31
0.0
  0
LINE
  5
E5
330
17
100
AcDbEntity
  8
FoilLayer
100
AcDbLine
 10
-78.71496243218176
 20
-12.47001963583045
 30
0.0
 11
-72.6628586110755
 21
-12.159980032502594
 31
0.0
  0
LINE
  5
E6
330
17
100
AcDbEntity
  8
FoilLayer
100
AcDbLine
 10
-72.6628586110755
 20
-12.159980032502594
 30
0.0
 11
-66.48589398614448
 21
-11.80948521389098
 31
0.0
  0
LINE
  5
E7
330
17
100
AcDbEntity
  8
FoilLayer
100
AcDbLine
 10
-66.48589398614448
 20
-11.80948521389098
 30
0.0
 11
-60.17896169362518
 21
-11.429689471243227
 31
0.0
  0
LINE
  5
E8
330
17
100
AcDbEntity
  8
FoilLayer
100
AcDbLine
 10
-60.17896169362518
 20
-11.429689471243227
 30
0.0
 11
-57.640695204721425
 21
-11.279711325972281
 31
0.0
  0
LINE
  5
E9
330
17
100
AcDbEntity
  8
FoilLayer
100
AcDbLine
 10
-57.640695204721425
 20
-11.279711325972281
 30
0.0
 11
-57.54927005742593
 21
-12.827012667806505
 31
0.0
  0
LINE
  5
EA
330
17
100
AcDbEntity
  8
FoilLayer
100
AcDbLine
 10
-57.54927005742593
 20
-12.827012667806505
 30
0.0
 11
-53.66249552288545
 21
-12.597355660364862
 31
0.0
  0
LINE
  5
EB
330
17
100
AcDbEntity
  8
FoilLayer
100
AcDbLine
 10
-53.66249552288545
 20
-12.597355660364862
 30
0.0
 11
-47.151936393948205
 21
-12.206263635467913
 31
0.0
  0
LINE
  5
EC
330
17
100
AcDbEntity
  8
FoilLayer
100
AcDbLine
 10
-47.151936393948205
 20
-12.206263635467913
 30
0.0
 11
-40.556160659100414
 21
-11.792236440896728
 31
0.0
  0
LINE
  5
ED
330
17
100
AcDbEntity
  8
FoilLayer
100
AcDbLine
 10
-40.556160659100414
 20
-11.792236440896728
 30
0.0
 11
-33.86060860071592
 21
-11.337813331072203
 31
0.0
  0
LINE
  5
EE
330
17
100
AcDbEntity
  8
FoilLayer
100
AcDbLine
 10
-33.86060860071592
 20
-11.337813331072203
 30
0.0
 11
-27.060784044075405
 21
-10.87183571707625
 31
0.0
  0
LINE
  5
EF
330
17
100
AcDbEntity
  8
FoilLayer
100
AcDbLine
 10
-27.060784044075405
 20
-10.87183571707625
 30
0.0
 11
-20.162909405090232
 21
-10.405841386671922
 31
0.0
  0
LINE
  5
F0
330
17
100
AcDbEntity
  8
FoilLayer
100
AcDbLine
 10
-20.162909405090232
 20
-10.405841386671922
 30
0.0
 11
-13.192507512856508
 21
-9.945751581184016
 31
0.0
  0
LINE
  5
F1
330
17
100
AcDbEntity
  8
FoilLayer
100
AcDbLine
 10
-13.192507512856508
 20
-9.945751581184016
 30
0.0
 11
-6.158024561545943
 21
-9.456847030849055
 31
0.0
  0
LINE
  5
F2
330
17
100
AcDbEntity
  8
FoilLayer
100
AcDbLine
 10
-6.158024561545943
 20
-9.456847030849055
 30
0.0
 11
0.9519966733733725
 21
-8.950631926746262
 31
0.0
  0
LINE
  5
F3
330
17
100
AcDbEntity
  8
FoilLayer
100
AcDbLine
 10
0.9519966733733725
 20
-8.950631926746262
 30
0.0
 11
8.14285567825982
 21
-8.438642867959135
 31
0.0
  0
LINE
  5
F4
330
17
100
AcDbEntity
  8
FoilLayer
100
AcDbLine
 10
8.14285567825982
 20
-8.438642867959135
 30
0.0
 11
15.403391801869333
 21
-7.9266092389432705
 31
0.0
  0
LINE
  5
F5
330
17
100
AcDbEntity
  8
FoilLayer
100
AcDbLine
 10
15.403391801869333
 20
-7.9266092389432705
 30
0.0
 11
22.719946473420578
 21
-7.426184854665949
 31
0.0
  0
LINE
  5
F6
330
17
100
AcDbEntity
  8
FoilLayer
100
AcDbLine
 10
22.719946473420578
 20
-7.426184854665949
 30
0.0
 11
30.07074792319014
 21
-6.914275340914445
 31
0.0
  0
LINE
  5
F7
330
17
100
AcDbEntity
  8
FoilLayer
100
AcDbLine
 10
30.07074792319014
 20
-6.914275340914445
 30
0.0
 11
37.4743911677746
 21
-6.385032845808112
 31
0.0
  0
LINE
  5
F8
330
17
100
AcDbEntity
  8
FoilLayer
100
AcDbLine
 10
37.4743911677746
 20
-6.385032845808112
 30
0.0
 11
44.93619159625004
 21
-5.855746401690076
 31
0.0
  0
LINE
  5
F9
330
17
100
AcDbEntity
  8
FoilLayer
100
AcDbLine
 10
44.93619159625004
 20
-5.855746401690076
 30
0.0
 11
52.4439096844568
 21
-5.337973415905478
 31
0.0
  0
LINE
  5
FA
330
17
100
AcDbEntity
  8
FoilLayer
100
AcDbLine
 10
52.4439096844568
 20
-5.337973415905478
 30
0.0
 11
59.97358863167571
 21
-4.831776594626856
 31
0.0
  0
LINE
  5
FB
330
17
100
AcDbEntity
  8
FoilLayer
100
AcDbLine
 10
59.97358863167571
 20
-4.831776594626856
 30
0.0
 11
67.5205261889881
 21
-4.319827406324519
 31
0.0
  0
LINE
  5
FC
330
17
100
AcDbEntity
  8
FoilLayer
100
AcDbLine
 10
67.5205261889881
 20
-4.319827406324519
 30
0.0
 11
75.08515370409944
 21
-3.802096274938897
 31
0.0
  0
LINE
  5
FD
330
17
100
AcDbEntity
  8
FoilLayer
100
AcDbLine
 10
75.08515370409944
 20
-3.802096274938897
 30
0.0
 11
82.69096736356292
 21
-3.284303913903308
 31
0.0
  0
LINE
  5
FE
330
17
100
AcDbEntity
  8
FoilLayer
100
AcDbLine
 10
82.69096736356292
 20
-3.284303913903308
 30
0.0
 11
90.31428636709731
 21
-2.783755886164056
 31
0.0
  0
LINE
  5
FF
330
17
100
AcDbEntity
  8
FoilLayer
100
AcDbLine
 10
90.31428636709731
 20
-2.783755886164056
 30
0.0
 11
97.93048151819684
 21
-2.3063055879181653
 31
0.0
  0
LINE
  5
100
330
17
100
AcDbEntity
  8
FoilLayer
100
AcDbLine
 10
97.93048151819684
 20
-2.3063055879181653
 30
0.0
 11
105.534515753882
 21
-1.8288970246239322
 31
0.0
  0
LINE
  5
101
330
17
100
AcDbEntity
  8
FoilLayer
100
AcDbLine
 10
105.534515753882
 20
-1.8288970246239322
 30
0.0
 11
113.13419444776653
 21
-1.3398947774120327
 31
0.0
  0
LINE
  5
102
330
17
100
AcDbEntity
  8
FoilLayer
100
AcDbLine
 10
113.13419444776653
 20
-1.3398947774120327
 30
0.0
 11
120.74024054921276
 21
-0.862361284243317
 31
0.0
  0
LINE
  5
103
330
17
100
AcDbEntity
  8
FoilLayer
100
AcDbLine
 10
120.74024054921276
 20
-0.862361284243317
 30
0.0
 11
128.3340473077392
 21
-0.4078838299282736
 31
0.0
  0
LINE
  5
104
330
17
100
AcDbEntity
  8
FoilLayer
100
AcDbLine
 10
128.3340473077392
 20
-0.4078838299282736
 30
0.0
 11
135.8986949629979
 21
0.03506508319998575
 31
0.0
  0
LINE
  5
105
330
17
100
AcDbEntity
  8
FoilLayer
100
AcDbLine
 10
135.8986949629979
 20
0.03506508319998575
 30
0.0
 11
143.4167174711565
 21
0.47222609989818237
 31
0.0
  0
LINE
  5
106
330
17
100
AcDbEntity
  8
FoilLayer
100
AcDbLine
 10
143.4167174711565
 20
0.47222609989818237
 30
0.0
 11
150.91276153847073
 21
0.9151998953783759
 31
0.0
  0
LINE
  5
107
330
17
100
AcDbEntity
  8
FoilLayer
100
AcDbLine
 10
150.91276153847073
 20
0.9151998953783759
 30
0.0
 11
158.38645350337637
 21
1.3467045717584196
 31
0.0
  0
LINE
  5
108
330
17
100
AcDbEntity
  8
FoilLayer
100
AcDbLine
 10
158.38645350337637
 20
1.3467045717584196
 30
0.0
 11
165.82520263663454
 21
1.7551733858769625
 31
0.0
  0
LINE
  5
109
330
17
100
AcDbEntity
  8
FoilLayer
100
AcDbLine
 10
165.82520263663454
 20
1.7551733858769625
 30
0.0
 11
173.19965065838662
 21
2.1463297162471364
 31
0.0
  0
LINE
  5
10A
330
17
100
AcDbEntity
  8
FoilLayer
100
AcDbLine
 10
173.19965065838662
 20
2.1463297162471364
 30
0.0
 11
180.51625502828958
 21
2.537468657787629
 31
0.0
  0
LINE
  5
10B
330
17
100
AcDbEntity
  8
FoilLayer
100
AcDbLine
 10
180.51625502828958
 20
2.537468657787629
 30
0.0
 11
187.7886171491023
 21
2.9344549764600605
 31
0.0
  0
LINE
  5
10C
330
17
100
AcDbEntity
  8
FoilLayer
100
AcDbLine
 10
187.7886171491023
 20
2.9344549764600605
 30
0.0
 11
195.0153012782707
 21
3.3084444862631486
 31
0.0
  0
LINE
  5
10D
330
17
100
AcDbEntity
  8
FoilLayer
100
AcDbLine
 10
195.0153012782707
 20
3.3084444862631486
 30
0.0
 11
202.1836948270478
 21
3.6536311773086187
 31
0.0
  0
LINE
  5
10E
330
17
100
AcDbEntity
  8
FoilLayer
100
AcDbLine
 10
202.1836948270478
 20
3.6536311773086187
 30
0.0
 11
209.27046890440195
 21
3.9815094599953706
 31
0.0
  0
LINE
  5
10F
330
17
100
AcDbEntity
  8
FoilLayer
100
AcDbLine
 10
209.27046890440195
 20
3.9815094599953706
 30
0.0
 11
216.27749924171567
 21
4.30942433321966
 31
0.0
  0
LINE
  5
110
330
17
100
AcDbEntity
  8
FoilLayer
100
AcDbLine
 10
216.27749924171567
 20
4.30942433321966
 30
0.0
 11
223.2223728567756
 21
4.625881904025931
 31
0.0
  0
LINE
  5
111
330
17
100
AcDbEntity
  8
FoilLayer
100
AcDbLine
 10
223.2223728567756
 20
4.625881904025931
 30
0.0
 11
230.09896955533455
 21
4.913599067853168
 31
0.0
  0
LINE
  5
112
330
17
100
AcDbEntity
  8
FoilLayer
100
AcDbLine
 10
230.09896955533455
 20
4.913599067853168
 30
0.0
 11
236.88854692720392
 21
5.16101268382711
 31
0.0
  0
LINE
  5
113
330
17
100
AcDbEntity
  8
FoilLayer
100
AcDbLine
 10
236.88854692720392
 20
5.16101268382711
 30
0.0
 11
243.57918248982892
 21
5.379622977575765
 31
0.0
  0
LINE
  5
114
330
17
100
AcDbEntity
  8
FoilLayer
100
AcDbLine
 10
243.57918248982892
 20
5.379622977575765
 30
0.0
 11
250.1617823345911
 21
5.586764113324235
 31
0.0
  0
LINE
  5
115
330
17
100
AcDbEntity
  8
FoilLayer
100
AcDbLine
 10
250.1617823345911
 20
5.586764113324235
 30
0.0
 11
256.6593305551762
 21
5.765163059232556
 31
0.0
  0
LINE
  5
116
330
17
100
AcDbEntity
  8
FoilLayer
100
AcDbLine
 10
256.6593305551762
 20
5.765163059232556
 30
0.0
 11
263.053413461029
 21
5.897523017431642
 31
0.0
  0
LINE
  5
117
330
17
100
AcDbEntity
  8
FoilLayer
100
AcDbLine
 10
263.053413461029
 20
5.897523017431642
 30
0.0
 11
269.3197950160303
 21
5.983832505884861
 31
0.0
  0
LINE
  5
118
330
17
100
AcDbEntity
  8
FoilLayer
100
AcDbLine
 10
269.3197950160303
 20
5.983832505884861
 30
0.0
 11
275.44160298800216
 21
6.041366678417453
 31
0.0
  0
LINE
  5
119
330
17
100
AcDbEntity
  8
FoilLayer
100
AcDbLine
 10
275.44160298800216
 20
6.041366678417453
 30
0.0
 11
281.4382327795895
 21
6.081643733055826
 31
0.0
  0
LINE
  5
11A
330
17
100
AcDbEntity
  8
FoilLayer
100
AcDbLine
 10
281.4382327795895
 20
6.081643733055826
 30
0.0
 11
287.3093339131748
 21
6.087385258949668
 31
0.0
  0
LINE
  5
11B
330
17
100
AcDbEntity
  8
FoilLayer
100
AcDbLine
 10
287.3093339131748
 20
6.087385258949668
 30
0.0
 11
293.03590032783063
 21
6.047088618448306
 31
0.0
  0
LINE
  5
11C
330
17
100
AcDbEntity
  8
FoilLayer
100
AcDbLine
 10
293.03590032783063
 20
6.047088618448306
 30
0.0
 11
298.60062885315574
 21
5.972273443905156
 31
0.0
  0
LINE
  5
11D
330
17
100
AcDbEntity
  8
FoilLayer
100
AcDbLine
 10
298.60062885315574
 20
5.972273443905156
 30
0.0
 11
303.9928889399864
 21
5.87443614385239
 31
0.0
  0
LINE
  5
11E
330
17
100
AcDbEntity
  8
FoilLayer
100
AcDbLine
 10
303.9928889399864
 20
5.87443614385239
 30
0.0
 11
309.23049185859156
 21
5.753559174134664
 31
0.0
  0
LINE
  5
11F
330
17
100
AcDbEntity
  8
FoilLayer
100
AcDbLine
 10
309.23049185859156
 20
5.753559174134664
 30
0.0
 11
314.30779838633714
 21
5.603873182630572
 31
0.0
  0
LINE
  5
120
330
17
100
AcDbEntity
  8
FoilLayer
100
AcDbLine
 10
314.30779838633714
 20
5.603873182630572
 30
0.0
 11
319.20655375132606
 21
5.419653104236093
 31
0.0
  0
LINE
  5
121
330
17
100
AcDbEntity
  8
FoilLayer
100
AcDbLine
 10
319.20655375132606
 20
5.419653104236093
 30
0.0
 11
323.9134782359894
 21
5.206745945949522
 31
0.0
  0
LINE
  5
122
330
17
100
AcDbEntity
  8
FoilLayer
100
AcDbLine
 10
323.9134782359894
 20
5.206745945949522
 30
0.0
 11
328.43241735055324
 21
4.987982829255702
 31
0.0
  0
LINE
  5
123
330
17
100
AcDbEntity
  8
FoilLayer
100
AcDbLine
 10
328.43241735055324
 20
4.987982829255702
 30
0.0
 11
332.77338546253907
 21
4.746163569146847
 31
0.0
  0
LINE
  5
124
330
17
100
AcDbEntity
  8
FoilLayer
100
AcDbLine
 10
332.77338546253907
 20
4.746163569146847
 30
0.0
 11
336.9263587458212
 21
4.48116936540218
 31
0.0
  0
LINE
  5
125
330
17
100
AcDbEntity
  8
FoilLayer
100
AcDbLine
 10
336.9263587458212
 20
4.48116936540218
 30
0.0
 11
340.8636586209053
 21
4.1818347346039975
 31
0.0
  0
LINE
  5
126
330
17
100
AcDbEntity
  8
FoilLayer
100
AcDbLine
 10
340.8636586209053
 20
4.1818347346039975
 30
0.0
 11
344.5877664416146
 21
3.8767629005266326
 31
0.0
  0
LINE
  5
127
330
17
100
AcDbEntity
  8
FoilLayer
100
AcDbLine
 10
344.5877664416146
 20
3.8767629005266326
 30
0.0
 11
348.0933650613988
 21
3.571671704394229
 31
0.0
  0
LINE
  5
128
330
17
100
AcDbEntity
  8
FoilLayer
100
AcDbLine
 10
348.0933650613988
 20
3.571671704394229
 30
0.0
 11
351.39900162198285
 21
3.2664317285853417
 31
0.0
  0
LINE
  5
129
330
17
100
AcDbEntity
  8
FoilLayer
100
AcDbLine
 10
351.39900162198285
 20
3.2664317285853417
 30
0.0
 11
354.48660326299125
 21
2.955346593189996
 31
0.0
  0
LINE
  5
12A
330
17
100
AcDbEntity
  8
FoilLayer
100
AcDbLine
 10
354.48660326299125
 20
2.955346593189996
 30
0.0
 11
357.35450114158664
 21
2.63859943151223
 31
0.0
  0
LINE
  5
12B
330
17
100
AcDbEntity
  8
FoilLayer
100
AcDbLine
 10
357.35450114158664
 20
2.63859943151223
 30
0.0
 11
359.9988991967617
 21
2.327475376336642
 31
0.0
  0
LINE
  5
12C
330
17
100
AcDbEntity
  8
FoilLayer
100
AcDbLine
 10
359.9988991967617
 20
2.327475376336642
 30
0.0
 11
362.4056738865388
 21
2.0223043864630554
 31
0.0
  0
LINE
  5
12D
330
17
100
AcDbEntity
  8
FoilLayer
100
AcDbLine
 10
362.4056738865388
 20
2.0223043864630554
 30
0.0
 11
364.5876770799158
 21
1.7344373626108052
 31
0.0
  0
LINE
  5
12E
330
17
100
AcDbEntity
  8
FoilLayer
100
AcDbLine
 10
364.5876770799158
 20
1.7344373626108052
 30
0.0
 11
366.5337119194742
 21
1.4695890495407888
 31
0.0
  0
LINE
  5
12F
330
17
100
AcDbEntity
  8
FoilLayer
100
AcDbLine
 10
366.5337119194742
 20
1.4695890495407888
 30
0.0
 11
368.2606935899296
 21
1.2278098330589038
 31
0.0
  0
LINE
  5
130
330
17
100
AcDbEntity
  8
FoilLayer
100
AcDbLine
 10
368.2606935899296
 20
1.2278098330589038
 30
0.0
 11
369.75142318504913
 21
1.0148476418883094
 31
0.0
  0
LINE
  5
131
330
17
100
AcDbEntity
  8
FoilLayer
100
AcDbLine
 10
369.75142318504913
 20
1.0148476418883094
 30
0.0
 11
371.0246201753107
 21
0.8304891573326381
 31
0.0
  0
LINE
  5
132
330
17
100
AcDbEntity
  8
FoilLayer
100
AcDbLine
 10
371.0246201753107
 20
0.8304891573326381
 30
0.0
 11
372.0678460562632
 21
0.6748650759941538
 31
0.0
  0
LINE
  5
133
330
17
100
AcDbEntity
  8
FoilLayer
100
AcDbLine
 10
372.0678460562632
 20
0.6748650759941538
 30
0.0
 11
372.8917554973209
 21
0.5481078023124722
 31
0.0
  0
LINE
  5
134
330
17
100
AcDbEntity
  8
FoilLayer
100
AcDbLine
 10
372.8917554973209
 20
0.5481078023124722
 30
0.0
 11
373.47240903232387
 21
0.4569821627711128
 31
0.0
  0
LINE
  5
135
330
17
100
AcDbEntity
  8
FoilLayer
100
AcDbLine
 10
373.47240903232387
 20
0.4569821627711128
 30
0.0
 11
373.85167192310576
 21
0.4024743424764045
 31
0.0
  0
LINE
  5
136
330
17
100
AcDbEntity
  8
FoilLayer
100
AcDbLine
 10
373.85167192310576
 20
0.4024743424764045
 30
0.0
 11
373.9782257197197
 21
0.37946456127387757
 31
0.0
  0
LINE
  5
137
330
17
100
AcDbEntity
  8
FoilLayer
100
AcDbLine
 10
373.9782257197197
 20
0.37946456127387757
 30
0.0
 11
373.74906958193424
 21
-0.39597403397876063
 31
0.0
  0
LINE
  5
138
330
17
100
AcDbEntity
  8
StringerLayer
100
AcDbLine
 10
197.98492280623307
 20
42.95710866169048
 30
0.0
 11
201.87453977115584
 21
42.02389921778991
 31
0.0
  0
LINE
  5
139
330
17
100
AcDbEntity
  8
StringerLayer
100
AcDbLine
 10
201.87453977115584
 20
42.02389921778991
 30
0.0
 11
202.80774921505642
 21
45.91351618271265
 31
0.0
  0
LINE
  5
13A
330
17
100
AcDbEntity
  8
StringerLayer
100
AcDbLine
 10
202.80774921505642
 20
45.91351618271265
 30
0.0
 11
198.91813225013365
 21
46.846725626613214
 31
0.0
  0
LINE
  5
13B
330
17
100
AcDbEntity
  8
StringerLayer
100
AcDbLine
 10
198.91813225013365
 20
46.846725626613214
 30
0.0
 11
197.98492280623307
 21
42.95710866169048
 31
0.0
  0
LINE
  5
13C
330
17
100
AcDbEntity
  8
StringerLayer
100
AcDbLine
 10
-58.72171385738241
 20
59.92954359839441
 30
0.0
 11
-54.75599716113919
 21
60.45212477403868
 31
0.0
  0
LINE
  5
13D
330
17
100
AcDbEntity
  8
StringerLayer
100
AcDbLine
 10
-54.75599716113919
 20
60.45212477403868
 30
0.0
 11
-55.27857833678347
 21
64.4178414702819
 31
0.0
  0
LINE
  5
13E
330
17
100
AcDbEntity
  8
StringerLayer
100
AcDbLine
 10
-55.27857833678347
 20
64.4178414702819
 30
0.0
 11
-59.24429503302669
 21
63.89526029463763
 31
0.0
  0
LINE
  5
13F
330
17
100
AcDbEntity
  8
StringerLayer
100
AcDbLine
 10
-59.24429503302669
 20
63.89526029463763
 30
0.0
 11
-58.72171385738241
 21
59.92954359839441
 31
0.0
  0
LINE
  5
140
330
17
100
AcDbEntity
  8
StringerLayer
100
AcDbLine
 10
-143.53061420815473
 20
39.213580122177575
 30
0.0
 11
-139.79474222543328
 21
40.64300676552695
 31
0.0
  0
LINE
  5
141
330
17
100
AcDbEntity
  8
StringerLayer
100
AcDbLine
 10
-139.79474222543328
 20
40.64300676552695
 30
0.0
 11
-141.22416886878264
 21
44.378878748248376
 31
0.0
  0
LINE
  5
142
330
17
100
AcDbEntity
  8
StringerLayer
100
AcDbLine
 10
-141.22416886878264
 20
44.378878748248376
 30
0.0
 11
-144.9600408515041
 21
42.949452104899
 31
0.0
  0
LINE
  5
143
330
17
100
AcDbEntity
  8
StringerLayer
100
AcDbLine
 10
-144.9600408515041
 20
42.949452104899
 30
0.0
 11
-143.53061420815473
 21
39.213580122177575
 31
0.0
  0
LINE
  5
144
330
17
100
AcDbEntity
  8
StringerLayer
100
AcDbLine
 10
-190.68756999295033
 20
7.66662690941879
 30
0.0
 11
-189.45294158650296
 21
9.2400603201462
 31
0.0
  0
LINE
  5
145
330
17
100
AcDbEntity
  8
StringerLayer
100
AcDbLine
 10
-189.45294158650296
 20
9.2400603201462
 30
0.0
 11
-193.38652511332148
 21
12.326631336264558
 31
0.0
  0
LINE
  5
146
330
17
100
AcDbEntity
  8
StringerLayer
100
AcDbLine
 10
-193.38652511332148
 20
12.326631336264558
 30
0.0
 11
-194.62115351976885
 21
10.753197925537147
 31
0.0
  0
LINE
  5
147
330
17
100
AcDbEntity
  8
StringerLayer
100
AcDbLine
 10
-194.62115351976885
 20
10.753197925537147
 30
0.0
 11
-190.68756999295033
 21
7.66662690941879
 31
0.0
  0
LINE
  5
148
330
17
100
AcDbEntity
  8
StringerLayer
100
AcDbLine
 10
-193.06026547278321
 20
-1.5736671043165136
 30
0.0
 11
-194.55648243187824
 21
-0.2465142075798874
 31
0.0
  0
LINE
  5
149
330
17
100
AcDbEntity
  8
StringerLayer
100
AcDbLine
 10
-194.55648243187824
 20
-0.2465142075798874
 30
0.0
 11
-197.8743646737198
 21
-3.9870566053174654
 31
0.0
  0
LINE
  5
14A
330
17
100
AcDbEntity
  8
StringerLayer
100
AcDbLine
 10
-197.8743646737198
 20
-3.9870566053174654
 30
0.0
 11
-196.3781477146248
 21
-5.314209502054092
 31
0.0
  0
LINE
  5
14B
330
17
100
AcDbEntity
  8
StringerLayer
100
AcDbLine
 10
-196.3781477146248
 20
-5.314209502054092
 30
0.0
 11
-193.06026547278321
 21
-1.5736671043165136
 31
0.0
  0
LINE
  5
14C
330
17
100
AcDbEntity
  8
StringerLayer
100
AcDbLine
 10
-84.5510092545358
 20
-8.742475450538738
 30
0.0
 11
-88.54710692836558
 21
-8.919120238778639
 31
0.0
  0
LINE
  5
14D
330
17
100
AcDbEntity
  8
StringerLayer
100
AcDbLine
 10
-88.54710692836558
 20
-8.919120238778639
 30
0.0
 11
-88.37046214012568
 21
-12.915217912608407
 31
0.0
  0
LINE
  5
14E
330
17
100
AcDbEntity
  8
StringerLayer
100
AcDbLine
 10
-88.37046214012568
 20
-12.915217912608407
 30
0.0
 11
-84.3743644662959
 21
-12.738573124368505
 31
0.0
  0
LINE
  5
14F
330
17
100
AcDbEntity
  8
StringerLayer
100
AcDbLine
 10
-84.3743644662959
 20
-12.738573124368505
 30
0.0
 11
-84.5510092545358
 21
-8.742475450538738
 31
0.0
  0
LINE
  5
150
330
17
100
AcDbEntity
  8
SubLayer
100
AcDbLine
 10
-201.3295454545453
 20
0.0
 30
0.0
 11
-197.3295454545453
 21
0.0
 31
0.0
  0
LINE
  5
151
330
17
100
AcDbEntity
  8
SubLayer
100
AcDbLine
 10
55.522727272727224
 20
0.0
 30
0.0
 11
65.27499999999995
 21
0.0
 31
0.0
  0
LINE
  5
152
330
17
100
AcDbEntity
  8
SubLayer
100
AcDbLine
 10
-43.11576448611357
 20
29.05205478262359
 30
0.0
 11
-35.1206378699608
 21
29.331250756243595
 31
0.0
  0
LINE
  5
153
330
17
100
AcDbEntity
  8
SubLayer
100
AcDbLine
 10
35.1206378699608
 20
31.78413015516369
 30
0.0
 11
43.11576448611357
 21
32.0633261287837
 31
0.0
  0
LINE
  5
154
330
17
100
AcDbEntity
  8
SubLayer
100
AcDbLine
 10
-1.2001857598952113
 20
64.92651386261144
 30
0.0
 11
-0.9209897862752036
 21
56.931387246458684
 31
0.0
  0
LINE
  5
155
330
17
100
AcDbEntity
  8
SubLayer
100
AcDbLine
 10
1.2001857598952113
 20
-3.811132951204165
 30
0.0
 11
0.9209897862752036
 21
4.183993664948602
 31
0.0
  0
LINE
  5
156
330
17
100
AcDbEntity
  8
SubLayer
100
AcDbLine
 10
-41.04718383867037
 20
27.123072121990397
 30
0.0
 11
-37.04962053059399
 21
27.262670108800403
 31
0.0
  0
LINE
  5
157
330
17
100
AcDbEntity
  8
SubLayer
100
AcDbLine
 10
-37.04962053059399
 20
27.262670108800403
 30
0.0
 11
-37.189218517403994
 21
31.260233416876787
 31
0.0
  0
LINE
  5
158
330
17
100
AcDbEntity
  8
SubLayer
100
AcDbLine
 10
-37.189218517403994
 20
31.260233416876787
 30
0.0
 11
-41.186781825480374
 21
31.12063543006678
 31
0.0
  0
LINE
  5
159
330
17
100
AcDbEntity
  8
SubLayer
100
AcDbLine
 10
-41.186781825480374
 20
31.12063543006678
 30
0.0
 11
-41.04718383867037
 21
27.123072121990397
 31
0.0
  0
LINE
  5
15A
330
17
100
AcDbEntity
  8
SubLayer
100
AcDbLine
 10
37.189218517403994
 20
29.855147494530502
 30
0.0
 11
41.186781825480374
 21
29.99474548134051
 31
0.0
  0
LINE
  5
15B
330
17
100
AcDbEntity
  8
SubLayer
100
AcDbLine
 10
41.186781825480374
 20
29.99474548134051
 30
0.0
 11
41.04718383867037
 21
33.99230878941689
 31
0.0
  0
LINE
  5
15C
330
17
100
AcDbEntity
  8
SubLayer
100
AcDbLine
 10
41.04718383867037
 20
33.99230878941689
 30
0.0
 11
37.04962053059399
 21
33.852710802606886
 31
0.0
  0
LINE
  5
15D
330
17
100
AcDbEntity
  8
SubLayer
100
AcDbLine
 10
37.04962053059399
 20
33.852710802606886
 30
0.0
 11
37.189218517403994
 21
29.855147494530502
 31
0.0
  0
LINE
  5
15E
330
17
100
AcDbEntity
  8
SubLayer
100
AcDbLine
 10
-2.989570433718397
 20
58.86036990709187
 30
0.0
 11
1.0079928743579862
 21
58.999967893901875
 31
0.0
  0
LINE
  5
15F
330
17
100
AcDbEntity
  8
SubLayer
100
AcDbLine
 10
1.0079928743579862
 20
58.999967893901875
 30
0.0
 11
0.8683948875479823
 21
62.997531201978255
 31
0.0
  0
LINE
  5
160
330
17
100
AcDbEntity
  8
SubLayer
100
AcDbLine
 10
0.8683948875479823
 20
62.997531201978255
 30
0.0
 11
-3.129168420528401
 21
62.85793321516825
 31
0.0
  0
LINE
  5
161
330
17
100
AcDbEntity
  8
SubLayer
100
AcDbLine
 10
-3.129168420528401
 20
62.85793321516825
 30
0.0
 11
-2.989570433718397
 21
58.86036990709187
 31
0.0
  0
LINE
  5
162
330
17
100
AcDbEntity
  8
SubLayer
100
AcDbLine
 10
-0.8683948875479823
 20
-1.882150290570975
 30
0.0
 11
3.129168420528401
 21
-1.7425523037609711
 31
0.0
  0
LINE
  5
163
330
17
100
AcDbEntity
  8
SubLayer
100
AcDbLine
 10
3.129168420528401
 20
-1.7425523037609711
 30
0.0
 11
2.989570433718397
 21
2.255011004315412
 31
0.0
  0
LINE
  5
164
330
17
100
AcDbEntity
  8
SubLayer
100
AcDbLine
 10
2.989570433718397
 20
2.255011004315412
 30
0.0
 11
-1.0079928743579862
 21
2.115413017505408
 31
0.0
  0
LINE
  5
165
330
17
100
AcDbEntity
  8
SubLayer
100
AcDbLine
 10
-1.0079928743579862
 20
2.115413017505408
 30
0.0
 11
-0.8683948875479823
 21
-1.882150290570975
 31
0.0
  0
LINE
  5
166
330
17
100
AcDbEntity
  8
SubLayer
100
AcDbLine
 10
286.72424541399346
 20
24.559425265418135
 30
0.0
 11
290.7218087220698
 21
24.699023252228137
 31
0.0
  0
LINE
  5
167
330
17
100
AcDbEntity
  8
SubLayer
100
AcDbLine
 10
-198.70742756925821
 20
7.607777709176578
 30
0.0
 11
-194.70986426118182
 21
7.747375695986583
 31
0.0
  0
LINE
  5
168
330
17
100
AcDbEntity
  8
SubLayer
100
AcDbLine
 10
-102.62048379962698
 20
10.963207723722391
 30
0.0
 11
-96.62413883751242
 21
11.172604703937395
 31
0.0
  0
LINE
  5
169
330
17
100
AcDbEntity
  8
SubLayer
100
AcDbLine
 10
188.63851999032403
 20
21.134196257467323
 30
0.0
 11
194.6348649524386
 21
21.343593237682327
 31
0.0
  0
LINE
  5
16A
330
17
100
AcDbEntity
  8
SubLayer
100
AcDbLine
 10
43.009018095348516
 20
16.048701990594857
 30
0.0
 11
49.00536305746309
 21
16.25809897080986
 31
0.0
  0
LINE
  5
16B
330
17
100
AcDbEntity
  8
SubLayer
100
AcDbLine
 10
-97.5537306711265
 20
9.138923553196703
 30
0.0
 11
-97.6933286579365
 21
13.136486861273086
 31
0.0
  0
LINE
  5
16C
330
17
100
AcDbEntity
  8
SubLayer
100
AcDbLine
 10
-97.6933286579365
 20
13.136486861273086
 30
0.0
 11
-101.6908919660129
 21
12.996888874463083
 31
0.0
  0
LINE
  5
16D
330
17
100
AcDbEntity
  8
SubLayer
100
AcDbLine
 10
-101.6908919660129
 20
12.996888874463083
 30
0.0
 11
-101.5512939792029
 21
8.9993255663867
 31
0.0
  0
LINE
  5
16E
330
17
100
AcDbEntity
  8
SubLayer
100
AcDbLine
 10
-101.5512939792029
 20
8.9993255663867
 30
0.0
 11
-97.5537306711265
 21
9.138923553196703
 31
0.0
  0
LINE
  5
16F
330
17
100
AcDbEntity
  8
SubLayer
100
AcDbLine
 10
193.7052731188245
 20
19.309912086941637
 30
0.0
 11
193.5656751320145
 21
23.30747539501802
 31
0.0
  0
LINE
  5
170
330
17
100
AcDbEntity
  8
SubLayer
100
AcDbLine
 10
193.5656751320145
 20
23.30747539501802
 30
0.0
 11
189.56811182393812
 21
23.167877408208014
 31
0.0
  0
LINE
  5
171
330
17
100
AcDbEntity
  8
SubLayer
100
AcDbLine
 10
189.56811182393812
 20
23.167877408208014
 30
0.0
 11
189.70770981074813
 21
19.17031410013163
 31
0.0
  0
LINE
  5
172
330
17
100
AcDbEntity
  8
SubLayer
100
AcDbLine
 10
189.70770981074813
 20
19.17031410013163
 30
0.0
 11
193.7052731188245
 21
19.309912086941637
 31
0.0
  0
LINE
  5
173
330
17
100
AcDbEntity
  8
SubLayer
100
AcDbLine
 10
48.075771223848996
 20
14.224417820069169
 30
0.0
 11
47.93617323703899
 21
18.221981128145554
 31
0.0
  0
LINE
  5
174
330
17
100
AcDbEntity
  8
SubLayer
100
AcDbLine
 10
47.93617323703899
 20
18.221981128145554
 30
0.0
 11
43.93860992896261
 21
18.082383141335548
 31
0.0
  0
LINE
  5
175
330
17
100
AcDbEntity
  8
SubLayer
100
AcDbLine
 10
43.93860992896261
 20
18.082383141335548
 30
0.0
 11
44.078207915772616
 21
14.084819833259166
 31
0.0
  0
LINE
  5
176
330
17
100
AcDbEntity
  8
SubLayer
100
AcDbLine
 10
44.078207915772616
 20
14.084819833259166
 30
0.0
 11
48.075771223848996
 21
14.224417820069169
 31
0.0
  0
LINE
  5
177
330
17
100
AcDbEntity
  8
SubLayer
100
AcDbLine
 10
354.60850911045674
 20
5.308112552890239
 30
0.0
 11
354.89784542709975
 21
6.265340057651488
 31
0.0
  0
LINE
  5
178
330
17
100
AcDbEntity
  8
SubLayer
100
AcDbLine
 10
354.0480505987504
 20
2.4976224710950548
 30
0.0
 11
354.19765080130566
 21
3.4863690409477353
 31
0.0
  0
LINE
  5
179
330
17
100
AcDbEntity
  8
SubLayer
100
AcDbLine
 10
335.4156690349751
 20
10.926158450563127
 30
0.0
 11
335.70080411078715
 21
11.884645794528433
 31
0.0
  0
LINE
  5
17A
330
17
100
AcDbEntity
  8
SubLayer
100
AcDbLine
 10
334.1116823524352
 20
4.160454970357023
 30
0.0
 11
334.22810912676835
 21
5.153654248557711
 31
0.0
  0
LINE
  5
17B
330
17
100
AcDbEntity
  8
SubLayer
100
AcDbLine
 10
296.9269610122625
 20
21.81171074458149
 30
0.0
 11
297.205609862207
 21
22.77210379871328
 31
0.0
  0
LINE
  5
17C
330
17
100
AcDbEntity
  8
SubLayer
100
AcDbLine
 10
294.08791089407754
 20
5.533861458711404
 30
0.0
 11
294.16331648361
 21
6.53101440438587
 31
0.0
  0
LINE
  5
17D
330
17
100
AcDbEntity
  8
SubLayer
100
AcDbLine
 10
-101.03428189413653
 20
58.430142249309334
 30
0.0
 11
-100.89468390732652
 21
54.432578941232954
 31
0.0
  0
LINE
  5
17E
330
17
100
AcDbEntity
  8
SubLayer
100
AcDbLine
 10
-98.59736572287504
 20
-11.354006460167659
 30
0.0
 11
-98.45776773606504
 21
-15.351569768244042
 31
0.0
  0
LINE
  5
17F
330
17
100
AcDbEntity
  8
SubLayer
100
AcDbLine
 10
-99.11964845382985
 20
3.602214108746836
 30
0.0
 11
-98.91025147361484
 21
-2.3941308533677383
 31
0.0
  0
LINE
  5
180
330
17
100
AcDbEntity
  8
SubLayer
100
AcDbLine
 10
-100.58179815658674
 20
45.472703334433035
 30
0.0
 11
-100.37240117637172
 21
39.47635837231846
 31
0.0
  0
LINE
  5
181
330
17
100
AcDbEntity
  8
SubLayer
100
AcDbLine
 10
-99.85072330520829
 20
24.537458721589935
 30
0.0
 11
-99.64132632499327
 21
18.54111375947536
 31
0.0
  0
LINE
  5
182
330
17
100
AcDbEntity
  8
SubLayer
100
AcDbLine
 10
-100.94393262435554
 20
-1.4645390197536448
 30
0.0
 11
-96.94636931627915
 21
-1.3249410329436409
 31
0.0
  0
LINE
  5
183
330
17
100
AcDbEntity
  8
SubLayer
100
AcDbLine
 10
-96.94636931627915
 20
-1.3249410329436409
 30
0.0
 11
-97.08596730308915
 21
2.6726222751327424
 31
0.0
  0
LINE
  5
184
330
17
100
AcDbEntity
  8
SubLayer
100
AcDbLine
 10
-97.08596730308915
 20
2.6726222751327424
 30
0.0
 11
-101.08353061116554
 21
2.5330242883227383
 31
0.0
  0
LINE
  5
185
330
17
100
AcDbEntity
  8
SubLayer
100
AcDbLine
 10
-101.08353061116554
 20
2.5330242883227383
 30
0.0
 11
-100.94393262435554
 21
-1.4645390197536448
 31
0.0
  0
LINE
  5
186
330
17
100
AcDbEntity
  8
SubLayer
100
AcDbLine
 10
-102.40608232711243
 20
40.405950205932555
 30
0.0
 11
-98.40851901903604
 21
40.54554819274256
 31
0.0
  0
LINE
  5
187
330
17
100
AcDbEntity
  8
SubLayer
100
AcDbLine
 10
-98.40851901903604
 20
40.54554819274256
 30
0.0
 11
-98.54811700584604
 21
44.54311150081894
 31
0.0
  0
LINE
  5
188
330
17
100
AcDbEntity
  8
SubLayer
100
AcDbLine
 10
-98.54811700584604
 20
44.54311150081894
 30
0.0
 11
-102.54568031392243
 21
44.403513514008935
 31
0.0
  0
LINE
  5
189
330
17
100
AcDbEntity
  8
SubLayer
100
AcDbLine
 10
-102.54568031392243
 20
44.403513514008935
 30
0.0
 11
-102.40608232711243
 21
40.405950205932555
 31
0.0
  0
LINE
  5
18A
330
17
100
AcDbEntity
  8
SubLayer
100
AcDbLine
 10
-101.67500747573398
 20
19.470705593089452
 30
0.0
 11
-97.67744416765758
 21
19.61030357989946
 31
0.0
  0
LINE
  5
18B
330
17
100
AcDbEntity
  8
SubLayer
100
AcDbLine
 10
-97.67744416765758
 20
19.61030357989946
 30
0.0
 11
-97.81704215446759
 21
23.60786688797584
 31
0.0
  0
LINE
  5
18C
330
17
100
AcDbEntity
  8
SubLayer
100
AcDbLine
 10
-97.81704215446759
 20
23.60786688797584
 30
0.0
 11
-101.81460546254398
 21
23.468268901165835
 31
0.0
  0
LINE
  5
18D
330
17
100
AcDbEntity
  8
SubLayer
100
AcDbLine
 10
-101.81460546254398
 20
23.468268901165835
 30
0.0
 11
-101.67500747573398
 21
19.470705593089452
 31
0.0
  0
LINE
  5
18E
330
17
100
AcDbEntity
  8
SubLayer
100
AcDbLine
 10
149.08631230415318
 20
59.34054247468824
 30
0.0
 11
149.2259102909632
 21
55.34297916661186
 31
0.0
  0
LINE
  5
18F
330
17
100
AcDbEntity
  8
SubLayer
100
AcDbLine
 10
151.05634101725795
 20
2.926301271604041
 30
0.0
 11
151.19593900406798
 21
-1.0712620364723422
 31
0.0
  0
LINE
  5
190
330
17
100
AcDbEntity
  8
SubLayer
100
AcDbLine
 10
150.62743577793452
 20
15.208540339239976
 30
0.0
 11
150.8368327581495
 21
9.212195377125402
 31
0.0
  0
LINE
  5
191
330
17
100
AcDbEntity
  8
SubLayer
100
AcDbLine
 10
149.44541855007165
 20
49.0570850610905
 30
0.0
 11
149.65481553028664
 21
43.06074009897592
 31
0.0
  0
LINE
  5
192
330
17
100
AcDbEntity
  8
SubLayer
100
AcDbLine
 10
150.03642716400307
 20
32.13281270016524
 30
0.0
 11
150.24582414421806
 21
26.136467738050662
 31
0.0
  0
LINE
  5
193
330
17
100
AcDbEntity
  8
SubLayer
100
AcDbLine
 10
148.80315160740884
 20
10.141787210739496
 30
0.0
 11
152.8007149154852
 21
10.281385197549499
 31
0.0
  0
LINE
  5
194
330
17
100
AcDbEntity
  8
SubLayer
100
AcDbLine
 10
152.8007149154852
 20
10.281385197549499
 30
0.0
 11
152.6611169286752
 21
14.278948505625882
 31
0.0
  0
LINE
  5
195
330
17
100
AcDbEntity
  8
SubLayer
100
AcDbLine
 10
152.6611169286752
 20
14.278948505625882
 30
0.0
 11
148.66355362059883
 21
14.13935051881588
 31
0.0
  0
LINE
  5
196
330
17
100
AcDbEntity
  8
SubLayer
100
AcDbLine
 10
148.66355362059883
 20
14.13935051881588
 30
0.0
 11
148.80315160740884
 21
10.141787210739496
 31
0.0
  0
LINE
  5
197
330
17
100
AcDbEntity
  8
SubLayer
100
AcDbLine
 10
147.62113437954596
 20
43.99033193259002
 30
0.0
 11
151.61869768762233
 21
44.12992991940002
 31
0.0
  0
LINE
  5
198
330
17
100
AcDbEntity
  8
SubLayer
100
AcDbLine
 10
151.61869768762233
 20
44.12992991940002
 30
0.0
 11
151.47909970081233
 21
48.1274932274764
 31
0.0
  0
LINE
  5
199
330
17
100
AcDbEntity
  8
SubLayer
100
AcDbLine
 10
151.47909970081233
 20
48.1274932274764
 30
0.0
 11
147.48153639273596
 21
47.9878952406664
 31
0.0
  0
LINE
  5
19A
330
17
100
AcDbEntity
  8
SubLayer
100
AcDbLine
 10
147.48153639273596
 20
47.9878952406664
 30
0.0
 11
147.62113437954596
 21
43.99033193259002
 31
0.0
  0
LINE
  5
19B
330
17
100
AcDbEntity
  8
SubLayer
100
AcDbLine
 10
148.21214299347739
 20
27.066059571664756
 30
0.0
 11
152.20970630155375
 21
27.205657558474762
 31
0.0
  0
LINE
  5
19C
330
17
100
AcDbEntity
  8
SubLayer
100
AcDbLine
 10
152.20970630155375
 20
27.205657558474762
 30
0.0
 11
152.07010831474375
 21
31.203220866551145
 31
0.0
  0
LINE
  5
19D
330
17
100
AcDbEntity
  8
SubLayer
100
AcDbLine
 10
152.07010831474375
 20
31.203220866551145
 30
0.0
 11
148.07254500666738
 21
31.06362287974114
 31
0.0
  0
LINE
  5
19E
330
17
100
AcDbEntity
  8
SubLayer
100
AcDbLine
 10
148.07254500666738
 20
31.06362287974114
 30
0.0
 11
148.21214299347739
 21
27.066059571664756
 31
0.0
  0
ENDSEC
  0
SECTION
  2
OBJECTS
  0
DICTIONARY
  5
A
330
0
100
AcDbDictionary
280
0
281
1
  3
ACAD_COLOR
350
B
  3
ACAD_GROUP
350
C
  3
ACAD_LAYOUT
350
D
  3
ACAD_MATERIAL
350
E
  3
ACAD_MLEADERSTYLE
350
F
  3
ACAD_MLINESTYLE
350
10
  3
ACAD_PLOTSETTINGS
350
11
  3
ACAD_PLOTSTYLENAME
350
12
  3
ACAD_SCALELIST
350
14
  3
ACAD_TABLESTYLE
350
15
  3
ACAD_VISUALSTYLE
350
16
  3
EZDXF_META
350
2D
  0
DICTIONARY
  5
B
330
A
100
AcDbDictionary
280
0
281
1
  0
DICTIONARY
  5
C
330
A
100
AcDbDictionary
280
0
281
1
  0
DICTIONARY
  5
D
330
A
100
AcDbDictionary
280
0
281
1
  3
Model
350
1A
  3
Layout1
350
1E
  0
DICTIONARY
  5
E
330
A
100
AcDbDictionary
280
0
281
1
  3
ByBlock
350
1F
  3
ByLayer
350
20
  3
Global
350
21
  0
DICTIONARY
  5
F
330
A
100
AcDbDictionary
280
0
281
1
  3
Standard
350
2C
  0
DICTIONARY
  5
10
330
A
100
AcDbDictionary
280
0
281
1
  3
Standard
350
22
  0
DICTIONARY
  5
11
330
A
100
AcDbDictionary
280
0
281
1
  0
ACDBDICTIONARYWDFLT
  5
12
330
A
100
AcDbDictionary
280
0
281
1
  3
Normal
350
13
100
AcDbDictionaryWithDefault
340
13
  0
ACDBPLACEHOLDER
  5
13
330
12
  0
DICTIONARY
  5
14
330
A
100
AcDbDictionary
280
0
281
1
  0
DICTIONARY
  5
15
330
A
100
AcDbDictionary
280
0
281
1
  0
DICTIONARY
  5
16
330
A
100
AcDbDictionary
280
0
281
1
  0
LAYOUT
  5
1A
330
D
100
AcDbPlotSettings
  1

  2
Adobe PDF
  4
A3
  6

 40
7.5
 41
20.0
 42
7.5
 43
20.0
 44
420.0
 45
297.0
 46
0.0
 47
0.0
 48
0.0
 49
0.0
140
0.0
141
0.0
142
1.0
143
1.0
 70
1024
 72
1
 73
0
 74
5
  7

 75
16
 76
0
 77
2
 78
300
147
1.0
148
0.0
149
0.0
100
AcDbLayout
  1
Model
 70
1
 71
0
 10
0.0
 20
0.0
 11
420.0
 21
297.0
 12
0.0
 22
0.0
 32
0.0
 14
1e+20
 24
1e+20
 34
1e+20
 15
-1e+20
 25
-1e+20
 35
-1e+20
146
0.0
 13
0.0
 23
0.0
 33
0.0
 16
1.0
 26
0.0
 36
0.0
 17
0.0
 27
1.0
 37
0.0
 76
1
330
17
  0
LAYOUT
  5
1E
330
D
100
AcDbPlotSettings
  1

  2
Adobe PDF
  4
A3
  6

 40
7.5
 41
20.0
 42
7.5
 43
20.0
 44
420.0
 45
297.0
 46
0.0
 47
0.0
 48
0.0
 49
0.0
140
0.0
141
0.0
142
1.0
143
1.0
 70
0
 72
1
 73
0
 74
5
  7

 75
16
 76
0
 77
2
 78
300
147
1.0
148
0.0
149
0.0
100
AcDbLayout
  1
Layout1
 70
1
 71
1
 10
0.0
 20
0.0
 11
420.0
 21
297.0
 12
0.0
 22
0.0
 32
0.0
 14
1e+20
 24
1e+20
 34
1e+20
 15
-1e+20
 25
-1e+20
 35
-1e+20
146
0.0
 13
0.0
 23
0.0
 33
0.0
 16
1.0
 26
0.0
 36
0.0
 17
0.0
 27
1.0
 37
0.0
 76
1
330
1B
  0
MATERIAL
  5
1F
102
{ACAD_REACTORS
330
E
102
}
330
E
100
AcDbMaterial
  1
ByBlock
  2

 70
0
 40
1.0
 71
1
 41
1.0
 91
-1023410177
 42
1.0
 72
1
  3

 73
1
 74
1
 75
1
 44
0.5
 73
0
 45
1.0
 46
1.0
 77
1
  4

 78
1
 79
1
170
1
 48
1.0
171
1
  6

172
1
173
1
174
1
140
1.0
141
1.0
175
1
  7

176
1
177
1
178
1
143
1.0
179
1
  8

270
1
271
1
272
1
145
1.0
146
1.0
273
1
  9

274
1
275
1
276
1
 42
1.0
 72
1
  3

 73
1
 74
1
 75
1
 94
63
  0
MATERIAL
  5
20
102
{ACAD_REACTORS
330
E
102
}
330
E
100
AcDbMaterial
  1
ByLayer
  2

 70
0
 40
1.0
 71
1
 41
1.0
 91
-1023410177
 42
1.0
 72
1
  3

 73
1
 74
1
 75
1
 44
0.5
 73
0
 45
1.0
 46
1.0
 77
1
  4

 78
1
 79
1
170
1
 48
1.0
171
1
  6

172
1
173
1
174
1
140
1.0
141
1.0
175
1
  7

176
1
177
1
178
1
143
1.0
179
1
  8

270
1
271
1
272
1
145
1.0
146
1.0
273
1
  9

274
1
275
1
276
1
 42
1.0
 72
1
  3

 73
1
 74
1
 75
1
 94
63
  0
MATERIAL
  5
21
102
{ACAD_REACTORS
330
E
102
}
330
E
100
AcDbMaterial
  1
Global
  2

 70
0
 40
1.0
 71
1
 41
1.0
 91
-1023410177
 42
1.0
 72
1
  3

 73
1
 74
1
 75
1
 44
0.5
 73
0
 45
1.0
 46
1.0
 77
1
  4

 78
1
 79
1
170
1
 48
1.0
171
1
  6

172
1
173
1
174
1
140
1.0
141
1.0
175
1
  7

176
1
177
1
178
1
143
1.0
179
1
  8

270
1
271
1
272
1
145
1.0
146
1.0
273
1
  9

274
1
275
1
276
1
 42
1.0
 72
1
  3

 73
1
 74
1
 75
1
 94
63
  0
MLINESTYLE
  5
22
102
{ACAD_REACTORS
330
10
102
}
330
10
100
AcDbMlineStyle
  2
Standard
 70
0
  3

 62
256
 51
90.0
 52
90.0
 71
2
 49
0.5
 62
256
  6
BYLAYER
 49
-0.5
 62
256
  6
BYLAYER
  0
MLEADERSTYLE
  5
2C
102
{ACAD_REACTORS
330
F
102
}
330
F
100
AcDbMLeaderStyle
179
2
170
2
171
1
172
0
 90
2
 40
0.0
 41
0.0
173
1
 91
-1056964608
 92
-2
290
1
 42
2.0
291
1
 43
8.0
  3
Standard
 44
4.0
300

342
29
174
1
175
1
176
0
178
1
 93
-1056964608
 45
4.0
292
0
297
0
 46
4.0
 94
-1056964608
 47
1.0
 49
1.0
140
1.0
294
1
141
0.0
177
0
142
1.0
295
0
296
0
143
3.75
271
0
272
9
273
9
  0
DICTIONARY
  5
2D
330
A
100
AcDbDictionary
281
1
  3
CREATED_BY_EZDXF
350
2E
  3
WRITTEN_BY_EZDXF
350
1A1
  0
DICTIONARYVAR
  5
2E
330
2D
100
DictionaryVariables
280
0
  1
1.0.2 @ 2023-10-20T04:47:16.420816+00:00
  0
DICTIONARYVAR
  5
1A1
330
2D
100
DictionaryVariables
280
0
  1
1.0.2 @ 2023-10-20T04:47:16.431780+00:00
  0
ENDSEC
  0
EOF
