  0
SECTION
  2
HEADER
  9
$ACADVER
  1
AC1027
  9
$ACADMAINTVER
 70
105
  9
$DWGCODEPAGE
  3
ANSI_1252
  9
$LASTSAVEDBY
  1
ezdxf
  9
$REQUIREDVERSIONS
160
0
  9
$INSBASE
 10
0.0
 20
0.0
 30
0.0
  9
$EXTMIN
 10
1e+20
 20
1e+20
 30
1e+20
  9
$EXTMAX
 10
-1e+20
 20
-1e+20
 30
-1e+20
  9
$LIMMIN
 10
0.0
 20
0.0
  9
$LIMMAX
 10
420.0
 20
297.0
  9
$ORTHOMODE
 70
0
  9
$REGENMODE
 70
1
  9
$FILLMODE
 70
1
  9
$QTEXTMODE
 70
0
  9
$MIRRTEXT
 70
1
  9
$LTSCALE
 40
1.0
  9
$ATTMODE
 70
1
  9
$TEXTSIZE
 40
2.5
  9
$TRACEWID
 40
1.0
  9
$TEXTSTYLE
  7
Standard
  9
$CLAYER
  8
0
  9
$CELTYPE
  6
ByLayer
  9
$CECOLOR
 62
256
  9
$CELTSCALE
 40
1.0
  9
$DISPSILH
 70
0
  9
$DIMSCALE
 40
1.0
  9
$DIMASZ
 40
2.5
  9
$DIMEXO
 40
0.625
  9
$DIMDLI
 40
3.75
  9
$DIMRND
 40
0.0
  9
$DIMDLE
 40
0.0
  9
$DIMEXE
 40
1.25
  9
$DIMTP
 40
0.0
  9
$DIMTM
 40
0.0
  9
$DIMTXT
 40
2.5
  9
$DIMCEN
 40
2.5
  9
$DIMTSZ
 40
0.0
  9
$DIMTOL
 70
0
  9
$DIMLIM
 70
0
  9
$DIMTIH
 70
0
  9
$DIMTOH
 70
0
  9
$DIMSE1
 70
0
  9
$DIMSE2
 70
0
  9
$DIMTAD
 70
1
  9
$DIMZIN
 70
8
  9
$DIMBLK
  1

  9
$DIMASO
 70
1
  9
$DIMSHO
 70
1
  9
$DIMPOST
  1

  9
$DIMAPOST
  1

  9
$DIMALT
 70
0
  9
$DIMALTD
 70
3
  9
$DIMALTF
 40
0.03937007874
  9
$DIMLFAC
 40
1.0
  9
$DIMTOFL
 70
1
  9
$DIMTVP
 40
0.0
  9
$DIMTIX
 70
0
  9
$DIMSOXD
 70
0
  9
$DIMSAH
 70
0
  9
$DIMBLK1
  1

  9
$DIMBLK2
  1

  9
$DIMSTYLE
  2
ISO-25
  9
$DIMCLRD
 70
0
  9
$DIMCLRE
 70
0
  9
$DIMCLRT
 70
0
  9
$DIMTFAC
 40
1.0
  9
$DIMGAP
 40
0.625
  9
$DIMJUST
 70
0
  9
$DIMSD1
 70
0
  9
$DIMSD2
 70
0
  9
$DIMTOLJ
 70
0
  9
$DIMTZIN
 70
8
  9
$DIMALTZ
 70
0
  9
$DIMALTTZ
 70
0
  9
$DIMUPT
 70
0
  9
$DIMDEC
 70
2
  9
$DIMTDEC
 70
2
  9
$DIMALTU
 70
2
  9
$DIMALTTD
 70
3
  9
$DIMTXSTY
  7
Standard
  9
$DIMAUNIT
 70
0
  9
$DIMADEC
 70
0
  9
$DIMALTRND
 40
0.0
  9
$DIMAZIN
 70
0
  9
$DIMDSEP
 70
44
  9
$DIMATFIT
 70
3
  9
$DIMFRAC
 70
0
  9
$DIMLDRBLK
  1

  9
$DIMLUNIT
 70
2
  9
$DIMLWD
 70
-2
  9
$DIMLWE
 70
-2
  9
$DIMTMOVE
 70
0
  9
$DIMFXL
 40
1.0
  9
$DIMFXLON
 70
0
  9
$DIMJOGANG
 40
0.785398163397
  9
$DIMTFILL
 70
0
  9
$DIMTFILLCLR
 70
0
  9
$DIMARCSYM
 70
0
  9
$DIMLTYPE
  6

  9
$DIMLTEX1
  6

  9
$DIMLTEX2
  6

  9
$DIMTXTDIRECTION
 70
0
  9
$LUNITS
 70
2
  9
$LUPREC
 70
4
  9
$SKETCHINC
 40
1.0
  9
$FILLETRAD
 40
10.0
  9
$AUNITS
 70
0
  9
$AUPREC
 70
2
  9
$MENU
  1
.
  9
$ELEVATION
 40
0.0
  9
$PELEVATION
 40
0.0
  9
$THICKNESS
 40
0.0
  9
$LIMCHECK
 70
0
  9
$CHAMFERA
 40
0.0
  9
$CHAMFERB
 40
0.0
  9
$CHAMFERC
 40
0.0
  9
$CHAMFERD
 40
0.0
  9
$SKPOLY
 70
0
  9
$TDCREATE
 40
2460238.574490741
  9
$TDUCREATE
 40
2458532.153996898
  9
$TDUPDATE
 40
2460238.574490741
  9
$TDUUPDATE
 40
2458532.1544311
  9
$TDINDWG
 40
0.0
  9
$TDUSRTIMER
 40
0.0
  9
$USRTIMER
 70
1
  9
$ANGBASE
 50
0.0
  9
$ANGDIR
 70
0
  9
$PDMODE
 70
0
  9
$PDSIZE
 40
0.0
  9
$PLINEWID
 40
0.0
  9
$SPLFRAME
 70
0
  9
$SPLINETYPE
 70
6
  9
$SPLINESEGS
 70
8
  9
$HANDSEED
  5
1A3
  9
$SURFTAB1
 70
6
  9
$SURFTAB2
 70
6
  9
$SURFTYPE
 70
6
  9
$SURFU
 70
6
  9
$SURFV
 70
6
  9
$UCSBASE
  2

  9
$UCSNAME
  2

  9
$UCSORG
 10
0.0
 20
0.0
 30
0.0
  9
$UCSXDIR
 10
1.0
 20
0.0
 30
0.0
  9
$UCSYDIR
 10
0.0
 20
1.0
 30
0.0
  9
$UCSORTHOREF
  2

  9
$UCSORTHOVIEW
 70
0
  9
$UCSORGTOP
 10
0.0
 20
0.0
 30
0.0
  9
$UCSORGBOTTOM
 10
0.0
 20
0.0
 30
0.0
  9
$UCSORGLEFT
 10
0.0
 20
0.0
 30
0.0
  9
$UCSORGRIGHT
 10
0.0
 20
0.0
 30
0.0
  9
$UCSORGFRONT
 10
0.0
 20
0.0
 30
0.0
  9
$UCSORGBACK
 10
0.0
 20
0.0
 30
0.0
  9
$PUCSBASE
  2

  9
$PUCSNAME
  2

  9
$PUCSORG
 10
0.0
 20
0.0
 30
0.0
  9
$PUCSXDIR
 10
1.0
 20
0.0
 30
0.0
  9
$PUCSYDIR
 10
0.0
 20
1.0
 30
0.0
  9
$PUCSORTHOREF
  2

  9
$PUCSORTHOVIEW
 70
0
  9
$PUCSORGTOP
 10
0.0
 20
0.0
 30
0.0
  9
$PUCSORGBOTTOM
 10
0.0
 20
0.0
 30
0.0
  9
$PUCSORGLEFT
 10
0.0
 20
0.0
 30
0.0
  9
$PUCSORGRIGHT
 10
0.0
 20
0.0
 30
0.0
  9
$PUCSORGFRONT
 10
0.0
 20
0.0
 30
0.0
  9
$PUCSORGBACK
 10
0.0
 20
0.0
 30
0.0
  9
$USERI1
 70
0
  9
$USERI2
 70
0
  9
$USERI3
 70
0
  9
$USERI4
 70
0
  9
$USERI5
 70
0
  9
$USERR1
 40
0.0
  9
$USERR2
 40
0.0
  9
$USERR3
 40
0.0
  9
$USERR4
 40
0.0
  9
$USERR5
 40
0.0
  9
$WORLDVIEW
 70
1
  9
$SHADEDGE
 70
3
  9
$SHADEDIF
 70
70
  9
$TILEMODE
 70
1
  9
$MAXACTVP
 70
64
  9
$PINSBASE
 10
0.0
 20
0.0
 30
0.0
  9
$PLIMCHECK
 70
0
  9
$PEXTMIN
 10
1e+20
 20
1e+20
 30
1e+20
  9
$PEXTMAX
 10
-1e+20
 20
-1e+20
 30
-1e+20
  9
$PLIMMIN
 10
0.0
 20
0.0
  9
$PLIMMAX
 10
420.0
 20
297.0
  9
$UNITMODE
 70
0
  9
$VISRETAIN
 70
1
  9
$PLINEGEN
 70
0
  9
$PSLTSCALE
 70
1
  9
$TREEDEPTH
 70
3020
  9
$CMLSTYLE
  2
Standard
  9
$CMLJUST
 70
0
  9
$CMLSCALE
 40
20.0
  9
$PROXYGRAPHICS
 70
1
  9
$MEASUREMENT
 70
1
  9
$CELWEIGHT
370
-1
  9
$ENDCAPS
280
0
  9
$JOINSTYLE
280
0
  9
$LWDISPLAY
290
0
  9
$INSUNITS
 70
6
  9
$HYPERLINKBASE
  1

  9
$STYLESHEET
  1

  9
$XEDIT
290
1
  9
$CEPSNTYPE
380
0
  9
$PSTYLEMODE
290
1
  9
$FINGERPRINTGUID
  2
{8AF93D11-1280-49BF-8116-4543EE527D28}
  9
$VERSIONGUID
  2
{53D0A467-E273-4C23-ADE4-7D4A4B05378C}
  9
$EXTNAMES
290
1
  9
$PSVPSCALE
 40
0.0
  9
$OLESTARTUP
290
0
  9
$SORTENTS
280
127
  9
$INDEXCTL
280
0
  9
$HIDETEXT
280
1
  9
$XCLIPFRAME
280
0
  9
$HALOGAP
280
0
  9
$OBSCOLOR
 70
257
  9
$OBSLTYPE
280
0
  9
$INTERSECTIONDISPLAY
280
0
  9
$INTERSECTIONCOLOR
 70
257
  9
$DIMASSOC
280
2
  9
$PROJECTNAME
  1

  9
$CAMERADISPLAY
290
0
  9
$LENSLENGTH
 40
50.0
  9
$CAMERAHEIGHT
 40
0.0
  9
$STEPSPERSEC
 40
24.0
  9
$STEPSIZE
 40
100.0
  9
$3DDWFPREC
 40
2.0
  9
$PSOLWIDTH
 40
0.005
  9
$PSOLHEIGHT
 40
0.08
  9
$LOFTANG1
 40
1.570796326795
  9
$LOFTANG2
 40
1.570796326795
  9
$LOFTMAG1
 40
0.0
  9
$LOFTMAG2
 40
0.0
  9
$LOFTPARAM
 70
7
  9
$LOFTNORMALS
280
1
  9
$LATITUDE
 40
37.795
  9
$LONGITUDE
 40
-122.394
  9
$NORTHDIRECTION
 40
0.0
  9
$TIMEZONE
 70
-8000
  9
$LIGHTGLYPHDISPLAY
280
1
  9
$TILEMODELIGHTSYNCH
280
1
  9
$CMATERIAL
347
20
  9
$SOLIDHIST
280
0
  9
$SHOWHIST
280
1
  9
$DWFFRAME
280
2
  9
$DGNFRAME
280
2
  9
$REALWORLDSCALE
290
1
  9
$INTERFERECOLOR
 62
256
  9
$CSHADOW
280
0
  9
$SHADOWPLANELOCATION
 40
0.0
  0
ENDSEC
  0
SECTION
  2
CLASSES
  0
CLASS
  1
ACDBDICTIONARYWDFLT
  2
AcDbDictionaryWithDefault
  3
ObjectDBX Classes
 90
0
 91
0
280
0
281
0
  0
CLASS
  1
SUN
  2
AcDbSun
  3
SCENEOE
 90
1153
 91
0
280
0
281
0
  0
CLASS
  1
VISUALSTYLE
  2
AcDbVisualStyle
  3
ObjectDBX Classes
 90
4095
 91
0
280
0
281
0
  0
CLASS
  1
MATERIAL
  2
AcDbMaterial
  3
ObjectDBX Classes
 90
1153
 91
0
280
0
281
0
  0
CLASS
  1
SCALE
  2
AcDbScale
  3
ObjectDBX Classes
 90
1153
 91
0
280
0
281
0
  0
CLASS
  1
TABLESTYLE
  2
AcDbTableStyle
  3
ObjectDBX Classes
 90
4095
 91
0
280
0
281
0
  0
CLASS
  1
MLEADERSTYLE
  2
AcDbMLeaderStyle
  3
ACDB_MLEADERSTYLE_CLASS
 90
4095
 91
0
280
0
281
0
  0
CLASS
  1
DICTIONARYVAR
  2
AcDbDictionaryVar
  3
ObjectDBX Classes
 90
0
 91
0
280
0
281
0
  0
CLASS
  1
CELLSTYLEMAP
  2
AcDbCellStyleMap
  3
ObjectDBX Classes
 90
1152
 91
0
280
0
281
0
  0
CLASS
  1
MENTALRAYRENDERSETTINGS
  2
AcDbMentalRayRenderSettings
  3
SCENEOE
 90
1024
 91
0
280
0
281
0
  0
CLASS
  1
ACDBDETAILVIEWSTYLE
  2
AcDbDetailViewStyle
  3
ObjectDBX Classes
 90
1025
 91
0
280
0
281
0
  0
CLASS
  1
ACDBSECTIONVIEWSTYLE
  2
AcDbSectionViewStyle
  3
ObjectDBX Classes
 90
1025
 91
0
280
0
281
0
  0
CLASS
  1
RASTERVARIABLES
  2
AcDbRasterVariables
  3
ISM
 90
0
 91
0
280
0
281
0
  0
CLASS
  1
ACDBPLACEHOLDER
  2
AcDbPlaceHolder
  3
ObjectDBX Classes
 90
0
 91
0
280
0
281
0
  0
CLASS
  1
LAYOUT
  2
AcDbLayout
  3
ObjectDBX Classes
 90
0
 91
0
280
0
281
0
  0
ENDSEC
  0
SECTION
  2
TABLES
  0
TABLE
  2
VPORT
  5
8
330
0
100
AcDbSymbolTable
 70
1
  0
VPORT
  5
23
330
8
100
AcDbSymbolTableRecord
100
AcDbViewportTableRecord
  2
*Active
 70
0
 10
0.0
 20
0.0
 11
1.0
 21
1.0
 12
0.0
 22
0.0
 13
0.0
 23
0.0
 14
0.5
 24
0.5
 15
0.5
 25
0.5
 16
0.0
 26
0.0
 36
1.0
 17
0.0
 27
0.0
 37
0.0
 40
1000.0
 41
1.34
 42
50.0
 43
0.0
 44
0.0
 50
0.0
 51
0.0
 71
0
 72
1000
 73
1
 74
3
 75
0
 76
0
 77
0
 78
0
281
0
 65
0
146
0.0
  0
ENDTAB
  0
TABLE
  2
LTYPE
  5
2
330
0
100
AcDbSymbolTable
 70
3
  0
LTYPE
  5
24
330
2
100
AcDbSymbolTableRecord
100
AcDbLinetypeTableRecord
  2
ByBlock
 70
0
  3

 72
65
 73
0
 40
0.0
  0
LTYPE
  5
25
330
2
100
AcDbSymbolTableRecord
100
AcDbLinetypeTableRecord
  2
ByLayer
 70
0
  3

 72
65
 73
0
 40
0.0
  0
LTYPE
  5
26
330
2
100
AcDbSymbolTableRecord
100
AcDbLinetypeTableRecord
  2
Continuous
 70
0
  3

 72
65
 73
0
 40
0.0
  0
ENDTAB
  0
TABLE
  2
LAYER
  5
1
330
0
100
AcDbSymbolTable
 70
5
  0
LAYER
  5
27
330
1
100
AcDbSymbolTableRecord
100
AcDbLayerTableRecord
  2
0
 70
0
 62
7
  6
Continuous
370
-3
390
13
347
21
  0
LAYER
  5
28
330
1
100
AcDbSymbolTableRecord
100
AcDbLayerTableRecord
  2
Defpoints
 70
0
 62
7
  6
Continuous
290
0
370
-3
390
13
347
21
  0
LAYER
  5
30
330
1
100
AcDbSymbolTableRecord
100
AcDbLayerTableRecord
  2
FoilLayer
 70
0
 62
1
  6
Continuous
370
50
390
13
347
21
  0
LAYER
  5
31
330
1
100
AcDbSymbolTableRecord
100
AcDbLayerTableRecord
  2
StringerLayer
 70
0
 62
1
  6
Continuous
370
50
390
13
347
21
  0
LAYER
  5
32
330
1
100
AcDbSymbolTableRecord
100
AcDbLayerTableRecord
  2
SubLayer
 70
0
 62
1
  6
Continuous
370
50
390
13
347
21
  0
ENDTAB
  0
TABLE
  2
STYLE
  5
5
330
0
100
AcDbSymbolTable
 70
2
  0
STYLE
  5
29
330
5
100
AcDbSymbolTableRecord
100
AcDbTextStyleTableRecord
  2
Standard
 70
0
 40
0.0
 41
1.0
 50
0.0
 71
0
 42
2.5
  3
txt
  4

  0
STYLE
  5
2F
330
5
100
AcDbSymbolTableRecord
100
AcDbTextStyleTableRecord
  2
MSゴシック
 70
0
 40
0.0
 41
1.0
 50
0.0
 71
0
 42
2.5
  3
romans
  4

  0
ENDTAB
  0
TABLE
  2
VIEW
  5
7
330
0
100
AcDbSymbolTable
 70
0
  0
ENDTAB
  0
TABLE
  2
UCS
  5
6
330
0
100
AcDbSymbolTable
 70
0
  0
ENDTAB
  0
TABLE
  2
APPID
  5
3
330
0
100
AcDbSymbolTable
 70
3
  0
APPID
  5
2A
330
3
100
AcDbSymbolTableRecord
100
AcDbRegAppTableRecord
  2
ACAD
 70
0
  0
APPID
  5
1A0
330
3
100
AcDbSymbolTableRecord
100
AcDbRegAppTableRecord
  2
HATCHBACKGROUNDCOLOR
 70
0
  0
APPID
  5
1A1
330
3
100
AcDbSymbolTableRecord
100
AcDbRegAppTableRecord
  2
EZDXF
 70
0
  0
ENDTAB
  0
TABLE
  2
DIMSTYLE
  5
4
330
0
100
AcDbSymbolTable
 70
1
100
AcDbDimStyleTable
  0
DIMSTYLE
105
2B
330
4
100
AcDbSymbolTableRecord
100
AcDbDimStyleTableRecord
  2
Standard
 70
0
 40
1.0
 41
2.5
 42
0.625
 43
3.75
 44
1.25
 45
0.0
 46
0.0
 47
0.0
 48
0.0
 49
2.5
140
2.5
141
2.5
142
0.0
143
0.03937007874
144
1.0
145
0.0
146
1.0
147
0.625
148
0.0
 69
0
 70
0
 71
0
 72
0
 73
0
 74
0
 75
0
 76
0
 77
1
 78
8
 79
3
170
0
171
3
172
1
173
0
174
0
175
0
176
0
177
0
178
0
179
2
271
2
272
2
273
2
274
3
275
0
276
0
277
2
278
44
279
0
280
0
281
0
282
0
283
0
284
8
285
0
286
0
288
0
289
3
290
0
371
-2
372
-2
  0
ENDTAB
  0
TABLE
  2
BLOCK_RECORD
  5
9
330
0
100
AcDbSymbolTable
 70
2
  0
BLOCK_RECORD
  5
17
330
9
100
AcDbSymbolTableRecord
100
AcDbBlockTableRecord
  2
*Model_Space
340
1A
 70
0
280
1
281
0
  0
BLOCK_RECORD
  5
1B
330
9
100
AcDbSymbolTableRecord
100
AcDbBlockTableRecord
  2
*Paper_Space
340
1E
 70
0
280
1
281
0
  0
ENDTAB
  0
ENDSEC
  0
SECTION
  2
BLOCKS
  0
BLOCK
  5
18
330
17
100
AcDbEntity
  8
0
100
AcDbBlockBegin
  2
*Model_Space
 70
0
 10
0.0
 20
0.0
 30
0.0
  3
*Model_Space
  1

  0
ENDBLK
  5
19
330
17
100
AcDbEntity
  8
0
100
AcDbBlockEnd
  0
BLOCK
  5
1C
330
1B
100
AcDbEntity
  8
0
100
AcDbBlockBegin
  2
*Paper_Space
 70
0
 10
0.0
 20
0.0
 30
0.0
  3
*Paper_Space
  1

  0
ENDBLK
  5
1D
330
1B
100
AcDbEntity
  8
0
100
AcDbBlockEnd
  0
ENDSEC
  0
SECTION
  2
ENTITIES
  0
LINE
  5
33
330
17
100
AcDbEntity
  8
FoilLayer
100
AcDbLine
 10
227.12861253719015
 20
38.7617607257109
 30
0.0
 11
28.45454545454544
 21
-7.377005666408426
 31
0.0
  0
LINE
  5
34
330
17
100
AcDbEntity
  8
FoilLayer
100
AcDbLine
 10
369.90909090909054
 20
0.028455399116518926
 30
0.0
 11
369.79526931262444
 21
0.06829295787964541
 31
0.0
  0
LINE
  5
35
330
17
100
AcDbEntity
  8
FoilLayer
100
AcDbLine
 10
369.79526931262444
 20
0.06829295787964541
 30
0.0
 11
369.4594956030495
 21
0.18211455434572107
 31
0.0
  0
LINE
  5
36
330
17
100
AcDbEntity
  8
FoilLayer
100
AcDbLine
 10
369.4594956030495
 20
0.18211455434572107
 30
0.0
 11
368.924534099659
 21
0.36992018851474606
 31
0.0
  0
LINE
  5
37
330
17
100
AcDbEntity
  8
FoilLayer
100
AcDbLine
 10
368.924534099659
 20
0.36992018851474606
 30
0.0
 11
368.19038480245274
 21
0.6260187805634162
 31
0.0
  0
LINE
  5
38
330
17
100
AcDbEntity
  8
FoilLayer
100
AcDbLine
 10
368.19038480245274
 20
0.6260187805634162
 30
0.0
 11
367.2684298710776
 21
0.9447192506684282
 31
0.0
  0
LINE
  5
39
330
17
100
AcDbEntity
  8
FoilLayer
100
AcDbLine
 10
367.2684298710776
 20
0.9447192506684282
 30
0.0
 11
366.1586693055333
 21
1.3260215988297819
 31
0.0
  0
LINE
  5
3A
330
17
100
AcDbEntity
  8
FoilLayer
100
AcDbLine
 10
366.1586693055333
 20
1.3260215988297819
 30
0.0
 11
364.8724852654666
 21
1.7585436654008695
 31
0.0
  0
LINE
  5
3B
330
17
100
AcDbEntity
  8
FoilLayer
100
AcDbLine
 10
364.8724852654666
 20
1.7585436654008695
 30
0.0
 11
363.4041866710543
 21
2.2479765302049954
 31
0.0
  0
LINE
  5
3C
330
17
100
AcDbEntity
  8
FoilLayer
100
AcDbLine
 10
363.4041866710543
 20
2.2479765302049954
 30
0.0
 11
361.7651556819428
 21
2.794320193242158
 31
0.0
  0
LINE
  5
3D
330
17
100
AcDbEntity
  8
FoilLayer
100
AcDbLine
 10
361.7651556819428
 20
2.794320193242158
 30
0.0
 11
359.9553922981322
 21
3.380501415042448
 31
0.0
  0
LINE
  5
3E
330
17
100
AcDbEntity
  8
FoilLayer
100
AcDbLine
 10
359.9553922981322
 20
3.380501415042448
 30
0.0
 11
357.97489651962246
 21
4.017902355252472
 31
0.0
  0
LINE
  5
3F
330
17
100
AcDbEntity
  8
FoilLayer
100
AcDbLine
 10
357.97489651962246
 20
4.017902355252472
 30
0.0
 11
355.8236683464137
 21
4.695140854225621
 31
0.0
  0
LINE
  5
40
330
17
100
AcDbEntity
  8
FoilLayer
100
AcDbLine
 10
355.8236683464137
 20
4.695140854225621
 30
0.0
 11
353.5073988583291
 21
5.412216911961899
 31
0.0
  0
LINE
  5
41
330
17
100
AcDbEntity
  8
FoilLayer
100
AcDbLine
 10
353.5073988583291
 20
5.412216911961899
 30
0.0
 11
351.0203969755453
 21
6.174821608284606
 31
0.0
  0
LINE
  5
42
330
17
100
AcDbEntity
  8
FoilLayer
100
AcDbLine
 10
351.0203969755453
 20
6.174821608284606
 30
0.0
 11
348.374044857709
 21
6.97726386337044
 31
0.0
  0
LINE
  5
43
330
17
100
AcDbEntity
  8
FoilLayer
100
AcDbLine
 10
348.374044857709
 20
6.97726386337044
 30
0.0
 11
345.5683425048203
 21
7.813852597396096
 31
0.0
  0
LINE
  5
44
330
17
100
AcDbEntity
  8
FoilLayer
100
AcDbLine
 10
345.5683425048203
 20
7.813852597396096
 30
0.0
 11
342.6032899168789
 21
8.690278890184878
 31
0.0
  0
LINE
  5
45
330
17
100
AcDbEntity
  8
FoilLayer
100
AcDbLine
 10
342.6032899168789
 20
8.690278890184878
 30
0.0
 11
339.4788870938852
 21
9.600851661913483
 31
0.0
  0
LINE
  5
46
330
17
100
AcDbEntity
  8
FoilLayer
100
AcDbLine
 10
339.4788870938852
 20
9.600851661913483
 30
0.0
 11
336.1951340358389
 21
10.545570912581914
 31
0.0
  0
LINE
  5
47
330
17
100
AcDbEntity
  8
FoilLayer
100
AcDbLine
 10
336.1951340358389
 20
10.545570912581914
 30
0.0
 11
332.75772182256344
 21
11.524436642190164
 31
0.0
  0
LINE
  5
48
330
17
100
AcDbEntity
  8
FoilLayer
100
AcDbLine
 10
332.75772182256344
 20
11.524436642190164
 30
0.0
 11
329.16665045405875
 21
12.548831010384845
 31
0.0
  0
LINE
  5
49
330
17
100
AcDbEntity
  8
FoilLayer
100
AcDbLine
 10
329.16665045405875
 20
12.548831010384845
 30
0.0
 11
325.4276110101481
 21
13.607371857519349
 31
0.0
  0
LINE
  5
4A
330
17
100
AcDbEntity
  8
FoilLayer
100
AcDbLine
 10
325.4276110101481
 20
13.607371857519349
 30
0.0
 11
321.5519856504783
 21
14.711441343240283
 31
0.0
  0
LINE
  5
4B
330
17
100
AcDbEntity
  8
FoilLayer
100
AcDbLine
 10
321.5519856504783
 20
14.711441343240283
 30
0.0
 11
317.5397743750491
 21
15.843966228077736
 31
0.0
  0
LINE
  5
4C
330
17
100
AcDbEntity
  8
FoilLayer
100
AcDbLine
 10
317.5397743750491
 20
15.843966228077736
 30
0.0
 11
313.3852861040374
 21
17.016328671678316
 31
0.0
  0
LINE
  5
4D
330
17
100
AcDbEntity
  8
FoilLayer
100
AcDbLine
 10
313.3852861040374
 20
17.016328671678316
 30
0.0
 11
309.1055940769129
 21
18.22283759421872
 31
0.0
  0
LINE
  5
4E
330
17
100
AcDbEntity
  8
FoilLayer
100
AcDbLine
 10
309.1055940769129
 20
18.22283759421872
 30
0.0
 11
304.7006982936758
 21
19.469184075522247
 31
0.0
  0
LINE
  5
4F
330
17
100
AcDbEntity
  8
FoilLayer
100
AcDbLine
 10
304.7006982936758
 20
19.469184075522247
 30
0.0
 11
300.18198091397267
 21
20.74398595594229
 31
0.0
  0
LINE
  5
50
330
17
100
AcDbEntity
  8
FoilLayer
100
AcDbLine
 10
300.18198091397267
 20
20.74398595594229
 30
0.0
 11
295.5494419378033
 21
22.052934315302164
 31
0.0
  0
LINE
  5
51
330
17
100
AcDbEntity
  8
FoilLayer
100
AcDbLine
 10
295.5494419378033
 20
22.052934315302164
 30
0.0
 11
290.80308136516794
 21
23.38464699395525
 31
0.0
  0
LINE
  5
52
330
17
100
AcDbEntity
  8
FoilLayer
100
AcDbLine
 10
290.80308136516794
 20
23.38464699395525
 30
0.0
 11
285.9428991960665
 21
24.744815071724855
 31
0.0
  0
LINE
  5
53
330
17
100
AcDbEntity
  8
FoilLayer
100
AcDbLine
 10
285.9428991960665
 20
24.744815071724855
 30
0.0
 11
280.9859686699689
 21
26.133438548610975
 31
0.0
  0
LINE
  5
54
330
17
100
AcDbEntity
  8
FoilLayer
100
AcDbLine
 10
280.9859686699689
 20
26.133438548610975
 30
0.0
 11
275.93798086669847
 21
27.550517424613616
 31
0.0
  0
LINE
  5
55
330
17
100
AcDbEntity
  8
FoilLayer
100
AcDbLine
 10
275.93798086669847
 20
27.550517424613616
 30
0.0
 11
270.8046268660785
 21
28.984669540086173
 31
0.0
  0
LINE
  5
56
330
17
100
AcDbEntity
  8
FoilLayer
100
AcDbLine
 10
270.8046268660785
 20
28.984669540086173
 30
0.0
 11
265.58021558828557
 21
30.430203815205335
 31
0.0
  0
LINE
  5
57
330
17
100
AcDbEntity
  8
FoilLayer
100
AcDbLine
 10
265.58021558828557
 20
30.430203815205335
 30
0.0
 11
260.2704381131432
 21
31.89281132979441
 31
0.0
  0
LINE
  5
58
330
17
100
AcDbEntity
  8
FoilLayer
100
AcDbLine
 10
260.2704381131432
 20
31.89281132979441
 30
0.0
 11
254.88098552047447
 21
33.37249208385339
 31
0.0
  0
LINE
  5
59
330
17
100
AcDbEntity
  8
FoilLayer
100
AcDbLine
 10
254.88098552047447
 20
33.37249208385339
 30
0.0
 11
249.4232399699262
 21
34.869246077382286
 31
0.0
  0
LINE
  5
5A
330
17
100
AcDbEntity
  8
FoilLayer
100
AcDbLine
 10
249.4232399699262
 20
34.869246077382286
 30
0.0
 11
243.9028925413215
 21
36.3773822305578
 31
0.0
  0
LINE
  5
5B
330
17
100
AcDbEntity
  8
FoilLayer
100
AcDbLine
 10
243.9028925413215
 20
36.3773822305578
 30
0.0
 11
238.32563431448372
 21
37.87413622408669
 31
0.0
  0
LINE
  5
5C
330
17
100
AcDbEntity
  8
FoilLayer
100
AcDbLine
 10
238.32563431448372
 20
37.87413622408669
 30
0.0
 11
232.6857742095897
 21
39.37089021761558
 31
0.0
  0
LINE
  5
5D
330
17
100
AcDbEntity
  8
FoilLayer
100
AcDbLine
 10
232.6857742095897
 20
39.37089021761558
 30
0.0
 11
227.63636363636343
 21
40.69623450978975
 31
0.0
  0
LINE
  5
5E
330
17
100
AcDbEntity
  8
FoilLayer
100
AcDbLine
 10
227.63636363636343
 20
40.69623450978975
 30
0.0
 11
227.12861253719015
 21
38.7617607257109
 31
0.0
  0
LINE
  5
5F
330
17
100
AcDbEntity
  8
FoilLayer
100
AcDbLine
 10
227.12861253719015
 20
38.7617607257109
 30
0.0
 11
226.48291839647933
 21
38.9312542672701
 31
0.0
  0
LINE
  5
60
330
17
100
AcDbEntity
  8
FoilLayer
100
AcDbLine
 10
226.48291839647933
 20
38.9312542672701
 30
0.0
 11
220.7421906214577
 21
40.4147637825569
 31
0.0
  0
LINE
  5
61
330
17
100
AcDbEntity
  8
FoilLayer
100
AcDbLine
 10
220.7421906214577
 20
40.4147637825569
 30
0.0
 11
214.9576211922134
 21
41.88649841154461
 31
0.0
  0
LINE
  5
62
330
17
100
AcDbEntity
  8
FoilLayer
100
AcDbLine
 10
214.9576211922134
 20
41.88649841154461
 30
0.0
 11
209.12828085908424
 21
43.341018446928054
 31
0.0
  0
LINE
  5
63
330
17
100
AcDbEntity
  8
FoilLayer
100
AcDbLine
 10
209.12828085908424
 20
43.341018446928054
 30
0.0
 11
203.2401910273766
 21
44.7789568668627
 31
0.0
  0
LINE
  5
64
330
17
100
AcDbEntity
  8
FoilLayer
100
AcDbLine
 10
203.2401910273766
 20
44.7789568668627
 30
0.0
 11
197.31436995181846
 21
46.20070395510462
 31
0.0
  0
LINE
  5
65
330
17
100
AcDbEntity
  8
FoilLayer
100
AcDbLine
 10
197.31436995181846
 20
46.20070395510462
 30
0.0
 11
191.36014809428522
 21
47.61542707252557
 31
0.0
  0
LINE
  5
66
330
17
100
AcDbEntity
  8
FoilLayer
100
AcDbLine
 10
191.36014809428522
 20
47.61542707252557
 30
0.0
 11
185.39059227954036
 21
49.00135565433691
 31
0.0
  0
LINE
  5
67
330
17
100
AcDbEntity
  8
FoilLayer
100
AcDbLine
 10
185.39059227954036
 20
49.00135565433691
 30
0.0
 11
179.40609327017776
 21
50.35274609437213
 31
0.0
  0
LINE
  5
68
330
17
100
AcDbEntity
  8
FoilLayer
100
AcDbLine
 10
179.40609327017776
 20
50.35274609437213
 30
0.0
 11
173.40445413451894
 21
51.6632248457308
 31
0.0
  0
LINE
  5
69
330
17
100
AcDbEntity
  8
FoilLayer
100
AcDbLine
 10
173.40445413451894
 20
51.6632248457308
 30
0.0
 11
167.36935053581536
 21
52.91799197358607
 31
0.0
  0
LINE
  5
6A
330
17
100
AcDbEntity
  8
FoilLayer
100
AcDbLine
 10
167.36935053581536
 20
52.91799197358607
 30
0.0
 11
161.2989818409835
 21
54.13324894223874
 31
0.0
  0
LINE
  5
6B
330
17
100
AcDbEntity
  8
FoilLayer
100
AcDbLine
 10
161.2989818409835
 20
54.13324894223874
 30
0.0
 11
155.21393988027242
 21
55.30831817571892
 31
0.0
  0
LINE
  5
6C
330
17
100
AcDbEntity
  8
FoilLayer
100
AcDbLine
 10
155.21393988027242
 20
55.30831817571892
 30
0.0
 11
149.10119904516174
 21
56.43785660114814
 31
0.0
  0
LINE
  5
6D
330
17
100
AcDbEntity
  8
FoilLayer
100
AcDbLine
 10
149.10119904516174
 20
56.43785660114814
 30
0.0
 11
142.97768152551797
 21
57.516217430612905
 31
0.0
  0
LINE
  5
6E
330
17
100
AcDbEntity
  8
FoilLayer
100
AcDbLine
 10
142.97768152551797
 20
57.516217430612905
 30
0.0
 11
136.83106697304854
 21
58.54356461288024
 31
0.0
  0
LINE
  5
6F
330
17
100
AcDbEntity
  8
FoilLayer
100
AcDbLine
 10
136.83106697304854
 20
58.54356461288024
 30
0.0
 11
130.66761994479074
 21
59.51980295800397
 31
0.0
  0
LINE
  5
70
330
17
100
AcDbEntity
  8
FoilLayer
100
AcDbLine
 10
130.66761994479074
 20
59.51980295800397
 30
0.0
 11
124.48084876142238
 21
60.445050988523235
 31
0.0
  0
LINE
  5
71
330
17
100
AcDbEntity
  8
FoilLayer
100
AcDbLine
 10
124.48084876142238
 20
60.445050988523235
 30
0.0
 11
118.28245686748679
 21
61.31925124049362
 31
0.0
  0
LINE
  5
72
330
17
100
AcDbEntity
  8
FoilLayer
100
AcDbLine
 10
118.28245686748679
 20
61.31925124049362
 30
0.0
 11
112.07861923012993
 21
62.142337110453255
 31
0.0
  0
LINE
  5
73
330
17
100
AcDbEntity
  8
FoilLayer
100
AcDbLine
 10
112.07861923012993
 20
62.142337110453255
 30
0.0
 11
105.86318320435262
 21
62.914367808239675
 31
0.0
  0
LINE
  5
74
330
17
100
AcDbEntity
  8
FoilLayer
100
AcDbLine
 10
105.86318320435262
 20
62.914367808239675
 30
0.0
 11
99.64565779863628
 21
63.63493010685941
 31
0.0
  0
LINE
  5
75
330
17
100
AcDbEntity
  8
FoilLayer
100
AcDbLine
 10
99.64565779863628
 20
63.63493010685941
 30
0.0
 11
93.41887563362033
 21
64.29343608099481
 31
0.0
  0
LINE
  5
76
330
17
100
AcDbEntity
  8
FoilLayer
100
AcDbLine
 10
93.41887563362033
 20
64.29343608099481
 30
0.0
 11
87.18445159983546
 21
64.90103254502047
 31
0.0
  0
LINE
  5
77
330
17
100
AcDbEntity
  8
FoilLayer
100
AcDbLine
 10
87.18445159983546
 20
64.90103254502047
 30
0.0
 11
80.95351596014436
 21
65.46291896351296
 31
0.0
  0
LINE
  5
78
330
17
100
AcDbEntity
  8
FoilLayer
100
AcDbLine
 10
80.95351596014436
 20
65.46291896351296
 30
0.0
 11
74.72472250417005
 21
65.96831494219737
 31
0.0
  0
LINE
  5
79
330
17
100
AcDbEntity
  8
FoilLayer
100
AcDbLine
 10
74.72472250417005
 20
65.96831494219737
 30
0.0
 11
68.50506281030934
 21
66.4280590573469
 31
0.0
  0
LINE
  5
7A
330
17
100
AcDbEntity
  8
FoilLayer
100
AcDbLine
 10
68.50506281030934
 20
66.4280590573469
 30
0.0
 11
62.302707334872
 21
66.83103822543058
 31
0.0
  0
LINE
  5
7B
330
17
100
AcDbEntity
  8
FoilLayer
100
AcDbLine
 10
62.302707334872
 20
66.83103822543058
 30
0.0
 11
56.11182751968951
 21
67.17726488333254
 31
0.0
  0
LINE
  5
7C
330
17
100
AcDbEntity
  8
FoilLayer
100
AcDbLine
 10
56.11182751968951
 20
67.17726488333254
 30
0.0
 11
49.93051267837893
 21
67.46681432821958
 31
0.0
  0
LINE
  5
7D
330
17
100
AcDbEntity
  8
FoilLayer
100
AcDbLine
 10
49.93051267837893
 20
67.46681432821958
 30
0.0
 11
43.76632046234718
 21
67.70527522129895
 31
0.0
  0
LINE
  5
7E
330
17
100
AcDbEntity
  8
FoilLayer
100
AcDbLine
 10
43.76632046234718
 20
67.70527522129895
 30
0.0
 11
37.62494333355832
 21
67.89264862995671
 31
0.0
  0
LINE
  5
7F
330
17
100
AcDbEntity
  8
FoilLayer
100
AcDbLine
 10
37.62494333355832
 20
67.89264862995671
 30
0.0
 11
31.519822832830556
 21
68.02890775981895
 31
0.0
  0
LINE
  5
80
330
17
100
AcDbEntity
  8
FoilLayer
100
AcDbLine
 10
31.519822832830556
 20
68.02890775981895
 30
0.0
 11
25.43759780128363
 21
68.10842642324438
 31
0.0
  0
LINE
  5
81
330
17
100
AcDbEntity
  8
FoilLayer
100
AcDbLine
 10
25.43759780128363
 20
68.10842642324438
 30
0.0
 11
19.39159373693954
 21
68.13122010686031
 31
0.0
  0
LINE
  5
82
330
17
100
AcDbEntity
  8
FoilLayer
100
AcDbLine
 10
19.39159373693954
 20
68.13122010686031
 30
0.0
 11
13.362890804578711
 21
68.09154084238284
 31
0.0
  0
LINE
  5
83
330
17
100
AcDbEntity
  8
FoilLayer
100
AcDbLine
 10
13.362890804578711
 20
68.09154084238284
 30
0.0
 11
7.368586843606181
 21
68.00645438411775
 31
0.0
  0
LINE
  5
84
330
17
100
AcDbEntity
  8
FoilLayer
100
AcDbLine
 10
7.368586843606181
 20
68.00645438411775
 30
0.0
 11
1.4238213629099619
 21
67.8760822216256
 31
0.0
  0
LINE
  5
85
330
17
100
AcDbEntity
  8
FoilLayer
100
AcDbLine
 10
1.4238213629099619
 20
67.8760822216256
 30
0.0
 11
-4.482554686662752
 21
67.68892988900342
 31
0.0
  0
LINE
  5
86
330
17
100
AcDbEntity
  8
FoilLayer
100
AcDbLine
 10
-4.482554686662752
 20
67.68892988900342
 30
0.0
 11
-10.328087519240285
 21
67.45092058426388
 31
0.0
  0
LINE
  5
87
330
17
100
AcDbEntity
  8
FoilLayer
100
AcDbLine
 10
-10.328087519240285
 20
67.45092058426388
 30
0.0
 11
-16.13730985924593
 21
67.1503333678897
 31
0.0
  0
LINE
  5
88
330
17
100
AcDbEntity
  8
FoilLayer
100
AcDbLine
 10
-16.13730985924593
 20
67.1503333678897
 30
0.0
 11
-21.90074273652101
 21
66.79871582163548
 31
0.0
  0
LINE
  5
89
330
17
100
AcDbEntity
  8
FoilLayer
100
AcDbLine
 10
-21.90074273652101
 20
66.79871582163548
 30
0.0
 11
-27.61989582013291
 21
66.39595543910232
 31
0.0
  0
LINE
  5
8A
330
17
100
AcDbEntity
  8
FoilLayer
100
AcDbLine
 10
-27.61989582013291
 20
66.39595543910232
 30
0.0
 11
-33.275917954208154
 21
65.94786686253212
 31
0.0
  0
LINE
  5
8B
330
17
100
AcDbEntity
  8
FoilLayer
100
AcDbLine
 10
-33.275917954208154
 20
65.94786686253212
 30
0.0
 11
-38.85939805910991
 21
65.45483184933808
 31
0.0
  0
LINE
  5
8C
330
17
100
AcDbEntity
  8
FoilLayer
100
AcDbLine
 10
-38.85939805910991
 20
65.45483184933808
 30
0.0
 11
-44.37803471524347
 21
64.9053867476393
 31
0.0
  0
LINE
  5
8D
330
17
100
AcDbEntity
  8
FoilLayer
100
AcDbLine
 10
-44.37803471524347
 20
64.9053867476393
 30
0.0
 11
-49.845250814044476
 21
64.29296896852992
 31
0.0
  0
LINE
  5
8E
330
17
100
AcDbEntity
  8
FoilLayer
100
AcDbLine
 10
-49.845250814044476
 20
64.29296896852992
 30
0.0
 11
-55.249217454691774
 21
63.63529201457102
 31
0.0
  0
LINE
  5
8F
330
17
100
AcDbEntity
  8
FoilLayer
100
AcDbLine
 10
-55.249217454691774
 20
63.63529201457102
 30
0.0
 11
-60.58446353240936
 21
62.932344895405784
 31
0.0
  0
LINE
  5
90
330
17
100
AcDbEntity
  8
FoilLayer
100
AcDbLine
 10
-60.58446353240936
 20
62.932344895405784
 30
0.0
 11
-65.852448383492
 21
62.18391946147164
 31
0.0
  0
LINE
  5
91
330
17
100
AcDbEntity
  8
FoilLayer
100
AcDbLine
 10
-65.852448383492
 20
62.18391946147164
 30
0.0
 11
-71.03563516099754
 21
61.396679430125005
 31
0.0
  0
LINE
  5
92
330
17
100
AcDbEntity
  8
FoilLayer
100
AcDbLine
 10
-71.03563516099754
 20
61.396679430125005
 30
0.0
 11
-76.13355328901793
 21
60.55850597586799
 31
0.0
  0
LINE
  5
93
330
17
100
AcDbEntity
  8
FoilLayer
100
AcDbLine
 10
-76.13355328901793
 20
60.55850597586799
 30
0.0
 11
-81.15910444166192
 21
59.66910983797562
 31
0.0
  0
LINE
  5
94
330
17
100
AcDbEntity
  8
FoilLayer
100
AcDbLine
 10
-81.15910444166192
 20
59.66910983797562
 30
0.0
 11
-86.10926323862368
 21
58.7347334534596
 31
0.0
  0
LINE
  5
95
330
17
100
AcDbEntity
  8
FoilLayer
100
AcDbLine
 10
-86.10926323862368
 20
58.7347334534596
 30
0.0
 11
-90.97560760984285
 21
57.75479861566972
 31
0.0
  0
LINE
  5
96
330
17
100
AcDbEntity
  8
FoilLayer
100
AcDbLine
 10
-90.97560760984285
 20
57.75479861566972
 30
0.0
 11
-95.75768628595927
 21
56.73504432783407
 31
0.0
  0
LINE
  5
97
330
17
100
AcDbEntity
  8
FoilLayer
100
AcDbLine
 10
-95.75768628595927
 20
56.73504432783407
 30
0.0
 11
-100.44468602806322
 21
55.682339202020664
 31
0.0
  0
LINE
  5
98
330
17
100
AcDbEntity
  8
FoilLayer
100
AcDbLine
 10
-100.44468602806322
 20
55.682339202020664
 30
0.0
 11
-105.02550061725499
 21
54.591089760197555
 31
0.0
  0
LINE
  5
99
330
17
100
AcDbEntity
  8
FoilLayer
100
AcDbLine
 10
-105.02550061725499
 20
54.591089760197555
 30
0.0
 11
-109.52186569524113
 21
53.448833884551874
 31
0.0
  0
LINE
  5
9A
330
17
100
AcDbEntity
  8
FoilLayer
100
AcDbLine
 10
-109.52186569524113
 20
53.448833884551874
 30
0.0
 11
-113.92867520700742
 21
52.26105852441423
 31
0.0
  0
LINE
  5
9B
330
17
100
AcDbEntity
  8
FoilLayer
100
AcDbLine
 10
-113.92867520700742
 20
52.26105852441423
 30
0.0
 11
-118.24928996090064
 21
51.032392298556836
 31
0.0
  0
LINE
  5
9C
330
17
100
AcDbEntity
  8
FoilLayer
100
AcDbLine
 10
-118.24928996090064
 20
51.032392298556836
 30
0.0
 11
-122.46019038230031
 21
49.78349164424626
 31
0.0
  0
LINE
  5
9D
330
17
100
AcDbEntity
  8
FoilLayer
100
AcDbLine
 10
-122.46019038230031
 20
49.78349164424626
 30
0.0
 11
-126.57421320069066
 21
48.49527845298183
 31
0.0
  0
LINE
  5
9E
330
17
100
AcDbEntity
  8
FoilLayer
100
AcDbLine
 10
-126.57421320069066
 20
48.49527845298183
 30
0.0
 11
-130.5806697370242
 21
47.17321691425821
 31
0.0
  0
LINE
  5
9F
330
17
100
AcDbEntity
  8
FoilLayer
100
AcDbLine
 10
-130.5806697370242
 20
47.17321691425821
 30
0.0
 11
-134.4876207356903
 21
45.81849667967352
 31
0.0
  0
LINE
  5
A0
330
17
100
AcDbEntity
  8
FoilLayer
100
AcDbLine
 10
-134.4876207356903
 20
45.81849667967352
 30
0.0
 11
-138.2896268201066
 21
44.42899836678575
 31
0.0
  0
LINE
  5
A1
330
17
100
AcDbEntity
  8
FoilLayer
100
AcDbLine
 10
-138.2896268201066
 20
44.42899836678575
 30
0.0
 11
-141.99440460965695
 21
43.01172103681313
 31
0.0
  0
LINE
  5
A2
330
17
100
AcDbEntity
  8
FoilLayer
100
AcDbLine
 10
-141.99440460965695
 20
43.01172103681313
 30
0.0
 11
-145.58879708235003
 21
41.57313440321132
 31
0.0
  0
LINE
  5
A3
330
17
100
AcDbEntity
  8
FoilLayer
100
AcDbLine
 10
-145.58879708235003
 20
41.57313440321132
 30
0.0
 11
-149.06800352213554
 21
40.11299006364103
 31
0.0
  0
LINE
  5
A4
330
17
100
AcDbEntity
  8
FoilLayer
100
AcDbLine
 10
-149.06800352213554
 20
40.11299006364103
 30
0.0
 11
-152.42937755155577
 21
38.63261504001588
 31
0.0
  0
LINE
  5
A5
330
17
100
AcDbEntity
  8
FoilLayer
100
AcDbLine
 10
-152.42937755155577
 20
38.63261504001588
 30
0.0
 11
-155.68189691833132
 21
37.122242391900954
 31
0.0
  0
LINE
  5
A6
330
17
100
AcDbEntity
  8
FoilLayer
100
AcDbLine
 10
-155.68189691833132
 20
37.122242391900954
 30
0.0
 11
-158.82231216327648
 21
35.597488540055004
 31
0.0
  0
LINE
  5
A7
330
17
100
AcDbEntity
  8
FoilLayer
100
AcDbLine
 10
-158.82231216327648
 20
35.597488540055004
 30
0.0
 11
-161.8582759157035
 21
34.04888228657597
 31
0.0
  0
LINE
  5
A8
330
17
100
AcDbEntity
  8
FoilLayer
100
AcDbLine
 10
-161.8582759157035
 20
34.04888228657597
 30
0.0
 11
-164.76770151421007
 21
32.49923344885741
 31
0.0
  0
LINE
  5
A9
330
17
100
AcDbEntity
  8
FoilLayer
100
AcDbLine
 10
-164.76770151421007
 20
32.49923344885741
 30
0.0
 11
-167.56226148982486
 21
30.93089463569417
 31
0.0
  0
LINE
  5
AA
330
17
100
AcDbEntity
  8
FoilLayer
100
AcDbLine
 10
-167.56226148982486
 20
30.93089463569417
 30
0.0
 11
-170.22047291790287
 21
29.37034919544458
 31
0.0
  0
LINE
  5
AB
330
17
100
AcDbEntity
  8
FoilLayer
100
AcDbLine
 10
-170.22047291790287
 20
29.37034919544458
 30
0.0
 11
-172.7608426749689
 21
27.78759718833105
 31
0.0
  0
LINE
  5
AC
330
17
100
AcDbEntity
  8
FoilLayer
100
AcDbLine
 10
-172.7608426749689
 20
27.78759718833105
 30
0.0
 11
-175.1794372998233
 21
26.192693838314923
 31
0.0
  0
LINE
  5
AD
330
17
100
AcDbEntity
  8
FoilLayer
100
AcDbLine
 10
-175.1794372998233
 20
26.192693838314923
 30
0.0
 11
-177.49237374188965
 21
24.586043530223623
 31
0.0
  0
LINE
  5
AE
330
17
100
AcDbEntity
  8
FoilLayer
100
AcDbLine
 10
-177.49237374188965
 20
24.586043530223623
 30
0.0
 11
-179.67954107172423
 21
22.9912297038976
 31
0.0
  0
LINE
  5
AF
330
17
100
AcDbEntity
  8
FoilLayer
100
AcDbLine
 10
-179.67954107172423
 20
22.9912297038976
 30
0.0
 11
-181.73535979185726
 21
21.40440907407572
 31
0.0
  0
LINE
  5
B0
330
17
100
AcDbEntity
  8
FoilLayer
100
AcDbLine
 10
-181.73535979185726
 20
21.40440907407572
 30
0.0
 11
-183.65594063372004
 21
19.8341554188039
 31
0.0
  0
LINE
  5
B1
330
17
100
AcDbEntity
  8
FoilLayer
100
AcDbLine
 10
-183.65594063372004
 20
19.8341554188039
 30
0.0
 11
-185.44811155702615
 21
18.259340027982756
 31
0.0
  0
LINE
  5
B2
330
17
100
AcDbEntity
  8
FoilLayer
100
AcDbLine
 10
-185.44811155702615
 20
18.259340027982756
 30
0.0
 11
-187.1202793321585
 21
16.68275299692567
 31
0.0
  0
LINE
  5
B3
330
17
100
AcDbEntity
  8
FoilLayer
100
AcDbLine
 10
-187.1202793321585
 20
16.68275299692567
 30
0.0
 11
-188.66808263115624
 21
15.125894159835804
 31
0.0
  0
LINE
  5
B4
330
17
100
AcDbEntity
  8
FoilLayer
100
AcDbLine
 10
-188.66808263115624
 20
15.125894159835804
 30
0.0
 11
-190.0957161644569
 21
13.578787915263597
 31
0.0
  0
LINE
  5
B5
330
17
100
AcDbEntity
  8
FoilLayer
100
AcDbLine
 10
-190.0957161644569
 20
13.578787915263597
 30
0.0
 11
-191.39372560404286
 21
12.071116220436906
 31
0.0
  0
LINE
  5
B6
330
17
100
AcDbEntity
  8
FoilLayer
100
AcDbLine
 10
-191.39372560404286
 20
12.071116220436906
 30
0.0
 11
-192.56491545149183
 21
10.581618086459283
 31
0.0
  0
LINE
  5
B7
330
17
100
AcDbEntity
  8
FoilLayer
100
AcDbLine
 10
-192.56491545149183
 20
10.581618086459283
 30
0.0
 11
-193.6008637193305
 21
9.139987543759485
 31
0.0
  0
LINE
  5
B8
330
17
100
AcDbEntity
  8
FoilLayer
100
AcDbLine
 10
-193.6008637193305
 20
9.139987543759485
 30
0.0
 11
-194.5013538898691
 21
7.745176919219666
 31
0.0
  0
LINE
  5
B9
330
17
100
AcDbEntity
  8
FoilLayer
100
AcDbLine
 10
-194.5013538898691
 20
7.745176919219666
 30
0.0
 11
-195.27865141899238
 21
6.367754556093834
 31
0.0
  0
LINE
  5
BA
330
17
100
AcDbEntity
  8
FoilLayer
100
AcDbLine
 10
-195.27865141899238
 20
6.367754556093834
 30
0.0
 11
-195.8993658180944
 21
5.111981915450035
 31
0.0
  0
LINE
  5
BB
330
17
100
AcDbEntity
  8
FoilLayer
100
AcDbLine
 10
-195.8993658180944
 20
5.111981915450035
 30
0.0
 11
-196.43694975808376
 21
3.725795963122697
 31
0.0
  0
LINE
  5
BC
330
17
100
AcDbEntity
  8
FoilLayer
100
AcDbLine
 10
-196.43694975808376
 20
3.725795963122697
 30
0.0
 11
-196.7912452044089
 21
2.7566842122460393
 31
0.0
  0
LINE
  5
BD
330
17
100
AcDbEntity
  8
FoilLayer
100
AcDbLine
 10
-196.7912452044089
 20
2.7566842122460393
 30
0.0
 11
-197.0485844264736
 21
1.4718185183517318
 31
0.0
  0
LINE
  5
BE
330
17
100
AcDbEntity
  8
FoilLayer
100
AcDbLine
 10
-197.0485844264736
 20
1.4718185183517318
 30
0.0
 11
-197.181818181818
 21
0.17073239469911353
 31
0.0
  0
LINE
  5
BF
330
17
100
AcDbEntity
  8
FoilLayer
100
AcDbLine
 10
-197.181818181818
 20
0.17073239469911353
 30
0.0
 11
-197.1897745825324
 21
-0.07407237067417619
 31
0.0
  0
LINE
  5
C0
330
17
100
AcDbEntity
  8
FoilLayer
100
AcDbLine
 10
-197.1897745825324
 20
-0.07407237067417619
 30
0.0
 11
-197.09733826181377
 21
-1.1925065365070988
 31
0.0
  0
LINE
  5
C1
330
17
100
AcDbEntity
  8
FoilLayer
100
AcDbLine
 10
-197.09733826181377
 20
-1.1925065365070988
 30
0.0
 11
-196.86171893780522
 21
-1.9892190212503582
 31
0.0
  0
LINE
  5
C2
330
17
100
AcDbEntity
  8
FoilLayer
100
AcDbLine
 10
-196.86171893780522
 20
-1.9892190212503582
 30
0.0
 11
-196.5014417945589
 21
-2.763483038974946
 31
0.0
  0
LINE
  5
C3
330
17
100
AcDbEntity
  8
FoilLayer
100
AcDbLine
 10
-196.5014417945589
 20
-2.763483038974946
 30
0.0
 11
-195.95889760029763
 21
-3.5633697160726094
 31
0.0
  0
LINE
  5
C4
330
17
100
AcDbEntity
  8
FoilLayer
100
AcDbLine
 10
-195.95889760029763
 20
-3.5633697160726094
 30
0.0
 11
-195.28229720494804
 21
-4.342830939614651
 31
0.0
  0
LINE
  5
C5
330
17
100
AcDbEntity
  8
FoilLayer
100
AcDbLine
 10
-195.28229720494804
 20
-4.342830939614651
 30
0.0
 11
-194.43665462661266
 21
-5.107226063359359
 31
0.0
  0
LINE
  5
C6
330
17
100
AcDbEntity
  8
FoilLayer
100
AcDbLine
 10
-194.43665462661266
 20
-5.107226063359359
 30
0.0
 11
-193.43686036157408
 21
-5.836276234974116
 31
0.0
  0
LINE
  5
C7
330
17
100
AcDbEntity
  8
FoilLayer
100
AcDbLine
 10
-193.43686036157408
 20
-5.836276234974116
 30
0.0
 11
-192.24659184091672
 21
-6.530756740648007
 31
0.0
  0
LINE
  5
C8
330
17
100
AcDbEntity
  8
FoilLayer
100
AcDbLine
 10
-192.24659184091672
 20
-6.530756740648007
 30
0.0
 11
-190.81615260636914
 21
-7.201983722920017
 31
0.0
  0
LINE
  5
C9
330
17
100
AcDbEntity
  8
FoilLayer
100
AcDbLine
 10
-190.81615260636914
 20
-7.201983722920017
 30
0.0
 11
-189.16623754575298
 21
-7.860664088074495
 31
0.0
  0
LINE
  5
CA
330
17
100
AcDbEntity
  8
FoilLayer
100
AcDbLine
 10
-189.16623754575298
 20
-7.860664088074495
 30
0.0
 11
-187.32171814226584
 21
-8.50599856851027
 31
0.0
  0
LINE
  5
CB
330
17
100
AcDbEntity
  8
FoilLayer
100
AcDbLine
 10
-187.32171814226584
 20
-8.50599856851027
 30
0.0
 11
-185.34936609602212
 21
-9.125298216981916
 31
0.0
  0
LINE
  5
CC
330
17
100
AcDbEntity
  8
FoilLayer
100
AcDbLine
 10
-185.34936609602212
 20
-9.125298216981916
 30
0.0
 11
-183.2073650547674
 21
-9.698146970541728
 31
0.0
  0
LINE
  5
CD
330
17
100
AcDbEntity
  8
FoilLayer
100
AcDbLine
 10
-183.2073650547674
 20
-9.698146970541728
 30
0.0
 11
-180.8767672594037
 21
-10.22178086415673
 31
0.0
  0
LINE
  5
CE
330
17
100
AcDbEntity
  8
FoilLayer
100
AcDbLine
 10
-180.8767672594037
 20
-10.22178086415673
 30
0.0
 11
-178.3555567596149
 21
-10.7152344014217
 31
0.0
  0
LINE
  5
CF
330
17
100
AcDbEntity
  8
FoilLayer
100
AcDbLine
 10
-178.3555567596149
 20
-10.7152344014217
 30
0.0
 11
-175.65429108029474
 21
-11.187313690536868
 31
0.0
  0
LINE
  5
D0
330
17
100
AcDbEntity
  8
FoilLayer
100
AcDbLine
 10
-175.65429108029474
 20
-11.187313690536868
 30
0.0
 11
-172.816886655139
 21
-11.630028181923796
 31
0.0
  0
LINE
  5
D1
330
17
100
AcDbEntity
  8
FoilLayer
100
AcDbLine
 10
-172.816886655139
 20
-11.630028181923796
 30
0.0
 11
-169.82198410163124
 21
-12.023116572739667
 31
0.0
  0
LINE
  5
D2
330
17
100
AcDbEntity
  8
FoilLayer
100
AcDbLine
 10
-169.82198410163124
 20
-12.023116572739667
 30
0.0
 11
-166.65803721411854
 21
-12.366835535362162
 31
0.0
  0
LINE
  5
D3
330
17
100
AcDbEntity
  8
FoilLayer
100
AcDbLine
 10
-166.65803721411854
 20
-12.366835535362162
 30
0.0
 11
-163.3043464456798
 21
-12.672343440678306
 31
0.0
  0
LINE
  5
D4
330
17
100
AcDbEntity
  8
FoilLayer
100
AcDbLine
 10
-163.3043464456798
 20
-12.672343440678306
 30
0.0
 11
-159.78313062893116
 21
-12.955486977081634
 31
0.0
  0
LINE
  5
D5
330
17
100
AcDbEntity
  8
FoilLayer
100
AcDbLine
 10
-159.78313062893116
 20
-12.955486977081634
 30
0.0
 11
-156.12105338562023
 21
-13.215616027409299
 31
0.0
  0
LINE
  5
D6
330
17
100
AcDbEntity
  8
FoilLayer
100
AcDbLine
 10
-156.12105338562023
 20
-13.215616027409299
 30
0.0
 11
-152.32950126388093
 21
-13.435932425523763
 31
0.0
  0
LINE
  5
D7
330
17
100
AcDbEntity
  8
FoilLayer
100
AcDbLine
 10
-152.32950126388093
 20
-13.435932425523763
 30
0.0
 11
-148.3794887455441
 21
-13.600169968778438
 31
0.0
  0
LINE
  5
D8
330
17
100
AcDbEntity
  8
FoilLayer
100
AcDbLine
 10
-148.3794887455441
 20
-13.600169968778438
 30
0.0
 11
-144.27174301444353
 21
-13.724902503666346
 31
0.0
  0
LINE
  5
D9
330
17
100
AcDbEntity
  8
FoilLayer
100
AcDbLine
 10
-144.27174301444353
 20
-13.724902503666346
 30
0.0
 11
-139.986547265458
 21
-13.815748081168529
 31
0.0
  0
LINE
  5
DA
330
17
100
AcDbEntity
  8
FoilLayer
100
AcDbLine
 10
-139.986547265458
 20
-13.815748081168529
 30
0.0
 11
-135.57154809896903
 21
-13.883842556876473
 31
0.0
  0
LINE
  5
DB
330
17
100
AcDbEntity
  8
FoilLayer
100
AcDbLine
 10
-135.57154809896903
 20
-13.883842556876473
 30
0.0
 11
-131.02132793139629
 21
-13.912272376964026
 31
0.0
  0
LINE
  5
DC
330
17
100
AcDbEntity
  8
FoilLayer
100
AcDbLine
 10
-131.02132793139629
 20
-13.912272376964026
 30
0.0
 11
-126.339021306387
 21
-13.895352223878515
 31
0.0
  0
LINE
  5
DD
330
17
100
AcDbEntity
  8
FoilLayer
100
AcDbLine
 10
-126.339021306387
 20
-13.895352223878515
 30
0.0
 11
-121.49509866336359
 21
-13.832914565023945
 31
0.0
  0
LINE
  5
DE
330
17
100
AcDbEntity
  8
FoilLayer
100
AcDbLine
 10
-121.49509866336359
 20
-13.832914565023945
 30
0.0
 11
-116.49257049079864
 21
-13.741967413605602
 31
0.0
  0
LINE
  5
DF
330
17
100
AcDbEntity
  8
FoilLayer
100
AcDbLine
 10
-116.49257049079864
 20
-13.741967413605602
 30
0.0
 11
-111.35203798424143
 21
-13.634069127020691
 31
0.0
  0
LINE
  5
E0
330
17
100
AcDbEntity
  8
FoilLayer
100
AcDbLine
 10
-111.35203798424143
 20
-13.634069127020691
 30
0.0
 11
-106.10345800047546
 21
-13.497951208134037
 31
0.0
  0
LINE
  5
E1
330
17
100
AcDbEntity
  8
FoilLayer
100
AcDbLine
 10
-106.10345800047546
 20
-13.497951208134037
 30
0.0
 11
-100.7247525815869
 21
-13.316228741033472
 31
0.0
  0
LINE
  5
E2
330
17
100
AcDbEntity
  8
FoilLayer
100
AcDbLine
 10
-100.7247525815869
 20
-13.316228741033472
 30
0.0
 11
-95.21447055450979
 21
-13.100387414014882
 31
0.0
  0
LINE
  5
E3
330
17
100
AcDbEntity
  8
FoilLayer
100
AcDbLine
 10
-95.21447055450979
 20
-13.100387414014882
 30
0.0
 11
-89.55181266246429
 21
-12.849978422084689
 31
0.0
  0
LINE
  5
E4
330
17
100
AcDbEntity
  8
FoilLayer
100
AcDbLine
 10
-89.55181266246429
 20
-12.849978422084689
 30
0.0
 11
-83.76445997322642
 21
-12.594161954971694
 31
0.0
  0
LINE
  5
E5
330
17
100
AcDbEntity
  8
FoilLayer
100
AcDbLine
 10
-83.76445997322642
 20
-12.594161954971694
 30
0.0
 11
-77.87634488729176
 21
-12.315685460350638
 31
0.0
  0
LINE
  5
E6
330
17
100
AcDbEntity
  8
FoilLayer
100
AcDbLine
 10
-77.87634488729176
 20
-12.315685460350638
 30
0.0
 11
-71.8889202792892
 21
-12.008959592798492
 31
0.0
  0
LINE
  5
E7
330
17
100
AcDbEntity
  8
FoilLayer
100
AcDbLine
 10
-71.8889202792892
 20
-12.008959592798492
 30
0.0
 11
-65.7779235424857
 21
-11.662208068303883
 31
0.0
  0
LINE
  5
E8
330
17
100
AcDbEntity
  8
FoilLayer
100
AcDbLine
 10
-65.7779235424857
 20
-11.662208068303883
 30
0.0
 11
-59.53824781311786
 21
-11.286462447159774
 31
0.0
  0
LINE
  5
E9
330
17
100
AcDbEntity
  8
FoilLayer
100
AcDbLine
 10
-59.53824781311786
 20
-11.286462447159774
 30
0.0
 11
-57.02705883755087
 21
-11.138084226580165
 31
0.0
  0
LINE
  5
EA
330
17
100
AcDbEntity
  8
FoilLayer
100
AcDbLine
 10
-57.02705883755087
 20
-11.138084226580165
 30
0.0
 11
-56.90909090909085
 21
-13.134602087220248
 31
0.0
  0
LINE
  5
EB
330
17
100
AcDbEntity
  8
FoilLayer
100
AcDbLine
 10
-56.90909090909085
 20
-13.134602087220248
 30
0.0
 11
-53.063343718493314
 21
-12.907369039252982
 31
0.0
  0
LINE
  5
EC
330
17
100
AcDbEntity
  8
FoilLayer
100
AcDbLine
 10
-53.063343718493314
 20
-12.907369039252982
 30
0.0
 11
-46.62104135851342
 21
-12.520375611268326
 31
0.0
  0
LINE
  5
ED
330
17
100
AcDbEntity
  8
FoilLayer
100
AcDbLine
 10
-46.62104135851342
 20
-12.520375611268326
 30
0.0
 11
-40.09337280118399
 21
-12.110617863990454
 31
0.0
  0
LINE
  5
EE
330
17
100
AcDbEntity
  8
FoilLayer
100
AcDbLine
 10
-40.09337280118399
 20
-12.110617863990454
 30
0.0
 11
-33.46895588685834
 21
-11.661022557949453
 31
0.0
  0
LINE
  5
EF
330
17
100
AcDbEntity
  8
FoilLayer
100
AcDbLine
 10
-33.46895588685834
 20
-11.661022557949453
 30
0.0
 11
-26.742099535713294
 21
-11.200045092261847
 31
0.0
  0
LINE
  5
F0
330
17
100
AcDbEntity
  8
FoilLayer
100
AcDbLine
 10
-26.742099535713294
 20
-11.200045092261847
 30
0.0
 11
-19.91849482757206
 21
-10.73906762657424
 31
0.0
  0
LINE
  5
F1
330
17
100
AcDbEntity
  8
FoilLayer
100
AcDbLine
 10
-19.91849482757206
 20
-10.73906762657424
 30
0.0
 11
-13.020906081727873
 21
-10.283781240709938
 31
0.0
  0
LINE
  5
F2
330
17
100
AcDbEntity
  8
FoilLayer
100
AcDbLine
 10
-13.020906081727873
 20
-10.283781240709938
 30
0.0
 11
-6.060715457827342
 21
-9.800039455729117
 31
0.0
  0
LINE
  5
F3
330
17
100
AcDbEntity
  8
FoilLayer
100
AcDbLine
 10
-6.060715457827342
 20
-9.800039455729117
 30
0.0
 11
0.973459203776116
 21
-9.299224431278384
 31
0.0
  0
LINE
  5
F4
330
17
100
AcDbEntity
  8
FoilLayer
100
AcDbLine
 10
0.973459203776116
 20
-9.299224431278384
 30
0.0
 11
8.087308982905853
 21
-8.792718327004348
 31
0.0
  0
LINE
  5
F5
330
17
100
AcDbEntity
  8
FoilLayer
100
AcDbLine
 10
8.087308982905853
 20
-8.792718327004348
 30
0.0
 11
15.269451719915224
 21
-8.28621222273031
 31
0.0
  0
LINE
  5
F6
330
17
100
AcDbEntity
  8
FoilLayer
100
AcDbLine
 10
15.269451719915224
 20
-8.28621222273031
 30
0.0
 11
22.508505255157672
 21
-7.791088278102881
 31
0.0
  0
LINE
  5
F7
330
17
100
AcDbEntity
  8
FoilLayer
100
AcDbLine
 10
22.508505255157672
 20
-7.791088278102881
 30
0.0
 11
29.78170526933988
 21
-7.284582173828844
 31
0.0
  0
LINE
  5
F8
330
17
100
AcDbEntity
  8
FoilLayer
100
AcDbLine
 10
29.78170526933988
 20
-7.284582173828844
 30
0.0
 11
37.106125001931844
 21
-6.761002830084896
 31
0.0
  0
LINE
  5
F9
330
17
100
AcDbEntity
  8
FoilLayer
100
AcDbLine
 10
37.106125001931844
 20
-6.761002830084896
 30
0.0
 11
44.48745553275688
 21
-6.237423486340949
 31
0.0
  0
LINE
  5
FA
330
17
100
AcDbEntity
  8
FoilLayer
100
AcDbLine
 10
44.48745553275688
 20
-6.237423486340949
 30
0.0
 11
51.914314702168326
 21
-5.725226302243608
 31
0.0
  0
LINE
  5
FB
330
17
100
AcDbEntity
  8
FoilLayer
100
AcDbLine
 10
51.914314702168326
 20
-5.725226302243608
 30
0.0
 11
59.36393819087297
 21
-5.224411277792875
 31
0.0
  0
LINE
  5
FC
330
17
100
AcDbEntity
  8
FoilLayer
100
AcDbLine
 10
59.36393819087297
 20
-5.224411277792875
 30
0.0
 11
66.83063491904753
 21
-4.7179051735188375
 31
0.0
  0
LINE
  5
FD
330
17
100
AcDbEntity
  8
FoilLayer
100
AcDbLine
 10
66.83063491904753
 20
-4.7179051735188375
 30
0.0
 11
74.31440488669202
 21
-4.205707989421497
 31
0.0
  0
LINE
  5
FE
330
17
100
AcDbEntity
  8
FoilLayer
100
AcDbLine
 10
74.31440488669202
 20
-4.205707989421497
 30
0.0
 11
81.83801241309962
 21
-3.6935108053241557
 31
0.0
  0
LINE
  5
FF
330
17
100
AcDbEntity
  8
FoilLayer
100
AcDbLine
 10
81.83801241309962
 20
-3.6935108053241557
 30
0.0
 11
89.3786931789771
 21
-3.1983868606967265
 31
0.0
  0
LINE
  5
100
330
17
100
AcDbEntity
  8
FoilLayer
100
AcDbLine
 10
89.3786931789771
 20
-3.1983868606967265
 30
0.0
 11
96.91368286503135
 21
-2.726027235362513
 31
0.0
  0
LINE
  5
101
330
17
100
AcDbEntity
  8
FoilLayer
100
AcDbLine
 10
96.91368286503135
 20
-2.726027235362513
 30
0.0
 11
104.43729039143889
 21
-2.2536676100282986
 31
0.0
  0
LINE
  5
102
330
17
100
AcDbEntity
  8
FoilLayer
100
AcDbLine
 10
104.43729039143889
 20
-2.2536676100282986
 30
0.0
 11
111.95520683802326
 21
-1.769925825047477
 31
0.0
  0
LINE
  5
103
330
17
100
AcDbEntity
  8
FoilLayer
100
AcDbLine
 10
111.95520683802326
 20
-1.769925825047477
 30
0.0
 11
119.4788143644308
 21
-1.2975661997132628
 31
0.0
  0
LINE
  5
104
330
17
100
AcDbEntity
  8
FoilLayer
100
AcDbLine
 10
119.4788143644308
 20
-1.2975661997132628
 30
0.0
 11
126.99103973119182
 21
-0.8479708936722639
 31
0.0
  0
LINE
  5
105
330
17
100
AcDbEntity
  8
FoilLayer
100
AcDbLine
 10
126.99103973119182
 20
-0.8479708936722639
 30
0.0
 11
134.4748096988363
 21
-0.40975774727787245
 31
0.0
  0
LINE
  5
106
330
17
100
AcDbEntity
  8
FoilLayer
100
AcDbLine
 10
134.4748096988363
 20
-0.40975774727787245
 30
0.0
 11
141.9130510278944
 21
0.022764319293215134
 31
0.0
  0
LINE
  5
107
330
17
100
AcDbEntity
  8
FoilLayer
100
AcDbLine
 10
141.9130510278944
 20
0.022764319293215134
 30
0.0
 11
149.3285280376592
 21
0.46097746568760656
 31
0.0
  0
LINE
  5
108
330
17
100
AcDbEntity
  8
FoilLayer
100
AcDbLine
 10
149.3285280376592
 20
0.46097746568760656
 30
0.0
 11
156.72124072813077
 21
0.8878084524353904
 31
0.0
  0
LINE
  5
109
330
17
100
AcDbEntity
  8
FoilLayer
100
AcDbLine
 10
156.72124072813077
 20
0.8878084524353904
 30
0.0
 11
164.07980693966257
 21
1.291875119889959
 31
0.0
  0
LINE
  5
10A
330
17
100
AcDbEntity
  8
FoilLayer
100
AcDbLine
 10
164.07980693966257
 20
1.291875119889959
 30
0.0
 11
171.37577127313804
 21
1.6788685478746164
 31
0.0
  0
LINE
  5
10B
330
17
100
AcDbEntity
  8
FoilLayer
100
AcDbLine
 10
171.37577127313804
 20
1.6788685478746164
 30
0.0
 11
178.61482480838046
 21
2.065861975859274
 31
0.0
  0
LINE
  5
10C
330
17
100
AcDbEntity
  8
FoilLayer
100
AcDbLine
 10
178.61482480838046
 20
2.065861975859274
 30
0.0
 11
185.80834970503642
 21
2.458546483667235
 31
0.0
  0
LINE
  5
10D
330
17
100
AcDbEntity
  8
FoilLayer
100
AcDbLine
 10
185.80834970503642
 20
2.458546483667235
 30
0.0
 11
192.95634596310597
 21
2.828466672181981
 31
0.0
  0
LINE
  5
10E
330
17
100
AcDbEntity
  8
FoilLayer
100
AcDbLine
 10
192.95634596310597
 20
2.828466672181981
 30
0.0
 11
200.04743142294254
 21
3.1699314615802083
 31
0.0
  0
LINE
  5
10F
330
17
100
AcDbEntity
  8
FoilLayer
100
AcDbLine
 10
200.04743142294254
 20
3.1699314615802083
 30
0.0
 11
207.05884176525277
 21
3.494323011508524
 31
0.0
  0
LINE
  5
110
330
17
100
AcDbEntity
  8
FoilLayer
100
AcDbLine
 10
207.05884176525277
 20
3.494323011508524
 30
0.0
 11
213.99057699003677
 21
3.8187145614368396
 31
0.0
  0
LINE
  5
111
330
17
100
AcDbEntity
  8
FoilLayer
100
AcDbLine
 10
213.99057699003677
 20
3.8187145614368396
 30
0.0
 11
220.85971033676444
 21
4.131723951718548
 31
0.0
  0
LINE
  5
112
330
17
100
AcDbEntity
  8
FoilLayer
100
AcDbLine
 10
220.85971033676444
 20
4.131723951718548
 30
0.0
 11
227.66055072561247
 21
4.416277942883737
 31
0.0
  0
LINE
  5
113
330
17
100
AcDbEntity
  8
FoilLayer
100
AcDbLine
 10
227.66055072561247
 20
4.416277942883737
 30
0.0
 11
234.37602491711098
 21
4.660994375285799
 31
0.0
  0
LINE
  5
114
330
17
100
AcDbEntity
  8
FoilLayer
100
AcDbLine
 10
234.37602491711098
 20
4.660994375285799
 30
0.0
 11
240.99475075161322
 21
4.877255408571343
 31
0.0
  0
LINE
  5
115
330
17
100
AcDbEntity
  8
FoilLayer
100
AcDbLine
 10
240.99475075161322
 20
4.877255408571343
 30
0.0
 11
247.50534606947272
 21
5.082134282210279
 31
0.0
  0
LINE
  5
116
330
17
100
AcDbEntity
  8
FoilLayer
100
AcDbLine
 10
247.50534606947272
 20
5.082134282210279
 30
0.0
 11
253.9305751899827
 21
5.258557756732697
 31
0.0
  0
LINE
  5
117
330
17
100
AcDbEntity
  8
FoilLayer
100
AcDbLine
 10
253.9305751899827
 20
5.258557756732697
 30
0.0
 11
260.25336487367326
 21
5.389452592668684
 31
0.0
  0
LINE
  5
118
330
17
100
AcDbEntity
  8
FoilLayer
100
AcDbLine
 10
260.25336487367326
 20
5.389452592668684
 30
0.0
 11
266.450950801251
 21
5.474818790018241
 31
0.0
  0
LINE
  5
119
330
17
100
AcDbEntity
  8
FoilLayer
100
AcDbLine
 10
266.450950801251
 20
5.474818790018241
 30
0.0
 11
272.5062597332462
 21
5.531729588251277
 31
0.0
  0
LINE
  5
11A
330
17
100
AcDbEntity
  8
FoilLayer
100
AcDbLine
 10
272.5062597332462
 20
5.531729588251277
 30
0.0
 11
278.43636490912877
 21
5.571567147014405
 31
0.0
  0
LINE
  5
11B
330
17
100
AcDbEntity
  8
FoilLayer
100
AcDbLine
 10
278.43636490912877
 20
5.571567147014405
 30
0.0
 11
284.24126632889875
 21
5.577258226837708
 31
0.0
  0
LINE
  5
11C
330
17
100
AcDbEntity
  8
FoilLayer
100
AcDbLine
 10
284.24126632889875
 20
5.577258226837708
 30
0.0
 11
289.903890753086
 21
5.537420668074581
 31
0.0
  0
LINE
  5
11D
330
17
100
AcDbEntity
  8
FoilLayer
100
AcDbLine
 10
289.903890753086
 20
5.537420668074581
 30
0.0
 11
295.4071649422208
 21
5.463436630371633
 31
0.0
  0
LINE
  5
11E
330
17
100
AcDbEntity
  8
FoilLayer
100
AcDbLine
 10
295.4071649422208
 20
5.463436630371633
 30
0.0
 11
300.73970673665633
 21
5.366688273375469
 31
0.0
  0
LINE
  5
11F
330
17
100
AcDbEntity
  8
FoilLayer
100
AcDbLine
 10
300.73970673665633
 20
5.366688273375469
 30
0.0
 11
305.9185893758628
 21
5.2471755970860885
 31
0.0
  0
LINE
  5
120
330
17
100
AcDbEntity
  8
FoilLayer
100
AcDbLine
 10
305.9185893758628
 20
5.2471755970860885
 30
0.0
 11
310.9381217800167
 21
5.09920752168019
 31
0.0
  0
LINE
  5
121
330
17
100
AcDbEntity
  8
FoilLayer
100
AcDbLine
 10
310.9381217800167
 20
5.09920752168019
 30
0.0
 11
315.7812307096482
 21
4.91709296733447
 31
0.0
  0
LINE
  5
122
330
17
100
AcDbEntity
  8
FoilLayer
100
AcDbLine
 10
315.7812307096482
 20
4.91709296733447
 30
0.0
 11
320.43653400511073
 21
4.706523013872229
 31
0.0
  0
LINE
  5
123
330
17
100
AcDbEntity
  8
FoilLayer
100
AcDbLine
 10
320.43653400511073
 20
4.706523013872229
 30
0.0
 11
324.9040316664042
 21
4.490261980586686
 31
0.0
  0
LINE
  5
124
330
17
100
AcDbEntity
  8
FoilLayer
100
AcDbLine
 10
324.9040316664042
 20
4.490261980586686
 30
0.0
 11
329.1951058531753
 21
4.251236628007927
 31
0.0
  0
LINE
  5
125
330
17
100
AcDbEntity
  8
FoilLayer
100
AcDbLine
 10
329.1951058531753
 20
4.251236628007927
 30
0.0
 11
333.2983744057773
 21
3.9894469561359536
 31
0.0
  0
LINE
  5
126
330
17
100
AcDbEntity
  8
FoilLayer
100
AcDbLine
 10
333.2983744057773
 20
3.9894469561359536
 30
0.0
 11
337.19107300491703
 21
3.693510805324156
 31
0.0
  0
LINE
  5
127
330
17
100
AcDbEntity
  8
FoilLayer
100
AcDbLine
 10
337.19107300491703
 20
3.693510805324156
 30
0.0
 11
340.87320165059464
 21
3.3918835746890554
 31
0.0
  0
LINE
  5
128
330
17
100
AcDbEntity
  8
FoilLayer
100
AcDbLine
 10
340.87320165059464
 20
3.3918835746890554
 30
0.0
 11
344.33906926298664
 21
3.090256344053955
 31
0.0
  0
LINE
  5
129
330
17
100
AcDbEntity
  8
FoilLayer
100
AcDbLine
 10
344.33906926298664
 20
3.090256344053955
 30
0.0
 11
347.6057490815631
 21
2.7886291134188546
 31
0.0
  0
LINE
  5
12A
330
17
100
AcDbEntity
  8
FoilLayer
100
AcDbLine
 10
347.6057490815631
 20
2.7886291134188546
 30
0.0
 11
350.6561678668538
 21
2.4813108029604503
 31
0.0
  0
LINE
  5
12B
330
17
100
AcDbEntity
  8
FoilLayer
100
AcDbLine
 10
350.6561678668538
 20
2.4813108029604503
 30
0.0
 11
353.49032561885906
 21
2.168301412678742
 31
0.0
  0
LINE
  5
12C
330
17
100
AcDbEntity
  8
FoilLayer
100
AcDbLine
 10
353.49032561885906
 20
2.168301412678742
 30
0.0
 11
356.1025312577556
 21
1.8609831022203374
 31
0.0
  0
LINE
  5
12D
330
17
100
AcDbEntity
  8
FoilLayer
100
AcDbLine
 10
356.1025312577556
 20
1.8609831022203374
 30
0.0
 11
358.48140262389654
 21
1.559355871585237
 31
0.0
  0
LINE
  5
12E
330
17
100
AcDbEntity
  8
FoilLayer
100
AcDbLine
 10
358.48140262389654
 20
1.559355871585237
 30
0.0
 11
360.63832187692867
 21
1.2748018804200476
 31
0.0
  0
LINE
  5
12F
330
17
100
AcDbEntity
  8
FoilLayer
100
AcDbLine
 10
360.63832187692867
 20
1.2748018804200476
 30
0.0
 11
362.5619068572054
 21
1.0130122085480735
 31
0.0
  0
LINE
  5
130
330
17
100
AcDbEntity
  8
FoilLayer
100
AcDbLine
 10
362.5619068572054
 20
1.0130122085480735
 30
0.0
 11
364.26923080419647
 21
0.7739868559693147
 31
0.0
  0
LINE
  5
131
330
17
100
AcDbEntity
  8
FoilLayer
100
AcDbLine
 10
364.26923080419647
 20
0.7739868559693147
 30
0.0
 11
365.74322047843214
 21
0.5634169025070747
 31
0.0
  0
LINE
  5
132
330
17
100
AcDbEntity
  8
FoilLayer
100
AcDbLine
 10
365.74322047843214
 20
0.5634169025070747
 30
0.0
 11
367.0009491193823
 21
0.3813023481613536
 31
0.0
  0
LINE
  5
133
330
17
100
AcDbEntity
  8
FoilLayer
100
AcDbLine
 10
367.0009491193823
 20
0.3813023481613536
 30
0.0
 11
368.0310345674003
 21
0.22764319293215135
 31
0.0
  0
LINE
  5
134
330
17
100
AcDbEntity
  8
FoilLayer
100
AcDbLine
 10
368.0310345674003
 20
0.22764319293215135
 30
0.0
 11
368.8448589821327
 21
0.10243943681946813
 31
0.0
  0
LINE
  5
135
330
17
100
AcDbEntity
  8
FoilLayer
100
AcDbLine
 10
368.8448589821327
 20
0.10243943681946813
 30
0.0
 11
369.42534912410974
 21
0.011382159646607569
 31
0.0
  0
LINE
  5
136
330
17
100
AcDbEntity
  8
FoilLayer
100
AcDbLine
 10
369.42534912410974
 20
0.011382159646607569
 30
0.0
 11
369.78388715297785
 21
-0.039837558763126495
 31
0.0
  0
LINE
  5
137
330
17
100
AcDbEntity
  8
FoilLayer
100
AcDbLine
 10
369.78388715297785
 20
-0.039837558763126495
 30
0.0
 11
369.90909090909054
 21
-0.06260187805634164
 31
0.0
  0
LINE
  5
138
330
17
100
AcDbEntity
  8
FoilLayer
100
AcDbLine
 10
369.90909090909054
 20
-0.06260187805634164
 30
0.0
 11
369.90909090909054
 21
0.028455399116518926
 31
0.0
  0
LINE
  5
139
330
17
100
AcDbEntity
  8
StringerLayer
100
AcDbLine
 10
195.83719553350576
 20
42.441591832985466
 30
0.0
 11
199.72681249842853
 21
41.5083823890849
 31
0.0
  0
LINE
  5
13A
330
17
100
AcDbEntity
  8
StringerLayer
100
AcDbLine
 10
199.72681249842853
 20
41.5083823890849
 30
0.0
 11
200.6600219423291
 21
45.39799935400764
 31
0.0
  0
LINE
  5
13B
330
17
100
AcDbEntity
  8
StringerLayer
100
AcDbLine
 10
200.6600219423291
 20
45.39799935400764
 30
0.0
 11
196.77040497740634
 21
46.331208797908204
 31
0.0
  0
LINE
  5
13C
330
17
100
AcDbEntity
  8
StringerLayer
100
AcDbLine
 10
196.77040497740634
 20
46.331208797908204
 30
0.0
 11
195.83719553350576
 21
42.441591832985466
 31
0.0
  0
LINE
  5
13D
330
17
100
AcDbEntity
  8
StringerLayer
100
AcDbLine
 10
-58.10807749374604
 20
59.223986881987564
 30
0.0
 11
-54.14236079750282
 21
59.74656805763184
 31
0.0
  0
LINE
  5
13E
330
17
100
AcDbEntity
  8
StringerLayer
100
AcDbLine
 10
-54.14236079750282
 20
59.74656805763184
 30
0.0
 11
-54.664941973147094
 21
63.71228475387506
 31
0.0
  0
LINE
  5
13F
330
17
100
AcDbEntity
  8
StringerLayer
100
AcDbLine
 10
-54.664941973147094
 20
63.71228475387506
 30
0.0
 11
-58.630658669390314
 21
63.189703578230784
 31
0.0
  0
LINE
  5
140
330
17
100
AcDbEntity
  8
StringerLayer
100
AcDbLine
 10
-58.630658669390314
 20
63.189703578230784
 30
0.0
 11
-58.10807749374604
 21
59.223986881987564
 31
0.0
  0
LINE
  5
141
330
17
100
AcDbEntity
  8
StringerLayer
100
AcDbLine
 10
-141.9965233382262
 20
38.727856399294474
 30
0.0
 11
-138.26065134664515
 21
40.157283019488766
 31
0.0
  0
LINE
  5
142
330
17
100
AcDbEntity
  8
StringerLayer
100
AcDbLine
 10
-138.26065134664515
 20
40.157283019488766
 30
0.0
 11
-139.69007796683945
 21
43.89315501106984
 31
0.0
  0
LINE
  5
143
330
17
100
AcDbEntity
  8
StringerLayer
100
AcDbLine
 10
-139.69007796683945
 20
43.89315501106984
 30
0.0
 11
-143.42594995842052
 21
42.463728390875545
 31
0.0
  0
LINE
  5
144
330
17
100
AcDbEntity
  8
StringerLayer
100
AcDbLine
 10
-143.42594995842052
 20
42.463728390875545
 30
0.0
 11
-141.9965233382262
 21
38.727856399294474
 31
0.0
  0
LINE
  5
145
330
17
100
AcDbEntity
  8
StringerLayer
100
AcDbLine
 10
-188.60120635658666
 20
7.530351657736288
 30
0.0
 11
-187.3665779501393
 21
9.103785068463699
 31
0.0
  0
LINE
  5
146
330
17
100
AcDbEntity
  8
StringerLayer
100
AcDbLine
 10
-187.3665779501393
 20
9.103785068463699
 30
0.0
 11
-191.3001614769578
 21
12.190356084582056
 31
0.0
  0
LINE
  5
147
330
17
100
AcDbEntity
  8
StringerLayer
100
AcDbLine
 10
-191.3001614769578
 20
12.190356084582056
 30
0.0
 11
-192.53478988340518
 21
10.616922673854646
 31
0.0
  0
LINE
  5
148
330
17
100
AcDbEntity
  8
StringerLayer
100
AcDbLine
 10
-192.53478988340518
 20
10.616922673854646
 30
0.0
 11
-188.60120635658666
 21
7.530351657736288
 31
0.0
  0
LINE
  5
149
330
17
100
AcDbEntity
  8
StringerLayer
100
AcDbLine
 10
-190.943220020511
 20
-1.508094225165864
 30
0.0
 11
-192.43943698026575
 21
-0.18094132917298245
 31
0.0
  0
LINE
  5
14A
330
17
100
AcDbEntity
  8
StringerLayer
100
AcDbLine
 10
-192.43943698026575
 20
-0.18094132917298245
 30
0.0
 11
-195.75731922024795
 21
-3.9214837285598243
 31
0.0
  0
LINE
  5
14B
330
17
100
AcDbEntity
  8
StringerLayer
100
AcDbLine
 10
-195.75731922024795
 20
-3.9214837285598243
 30
0.0
 11
-194.2611022604932
 21
-5.248636624552706
 31
0.0
  0
LINE
  5
14C
330
17
100
AcDbEntity
  8
StringerLayer
100
AcDbLine
 10
-194.2611022604932
 20
-5.248636624552706
 30
0.0
 11
-190.943220020511
 21
-1.508094225165864
 31
0.0
  0
LINE
  5
14D
330
17
100
AcDbEntity
  8
StringerLayer
100
AcDbLine
 10
-83.63055470908124
 20
-8.584327091156716
 30
0.0
 11
-87.62665238291102
 21
-8.760971879396617
 31
0.0
  0
LINE
  5
14E
330
17
100
AcDbEntity
  8
StringerLayer
100
AcDbLine
 10
-87.62665238291102
 20
-8.760971879396617
 30
0.0
 11
-87.45000759467112
 21
-12.757069553226385
 31
0.0
  0
LINE
  5
14F
330
17
100
AcDbEntity
  8
StringerLayer
100
AcDbLine
 10
-87.45000759467112
 20
-12.757069553226385
 30
0.0
 11
-83.45390992084134
 21
-12.580424764986484
 31
0.0
  0
LINE
  5
150
330
17
100
AcDbEntity
  8
StringerLayer
100
AcDbLine
 10
-83.45390992084134
 20
-12.580424764986484
 30
0.0
 11
-83.63055470908124
 21
-8.584327091156716
 31
0.0
  0
LINE
  5
151
330
17
100
AcDbEntity
  8
SubLayer
100
AcDbLine
 10
-199.181818181818
 20
0.0
 30
0.0
 11
-195.181818181818
 21
0.0
 31
0.0
  0
LINE
  5
152
330
17
100
AcDbEntity
  8
SubLayer
100
AcDbLine
 10
54.90909090909085
 20
0.0
 30
0.0
 11
64.59999999999994
 21
0.0
 31
0.0
  0
LINE
  5
153
330
17
100
AcDbEntity
  8
SubLayer
100
AcDbLine
 10
-42.655817571405905
 20
28.742135588972523
 30
0.0
 11
-34.66069095525314
 21
29.021331562592533
 31
0.0
  0
LINE
  5
154
330
17
100
AcDbEntity
  8
SubLayer
100
AcDbLine
 10
34.66069095525314
 20
31.44208756113873
 30
0.0
 11
42.655817571405905
 21
31.72128353475874
 31
0.0
  0
LINE
  5
155
330
17
100
AcDbEntity
  8
SubLayer
100
AcDbLine
 10
-1.186265619733191
 20
64.20191230936014
 30
0.0
 11
-0.9070696461131831
 21
56.206785693207365
 31
0.0
  0
LINE
  5
156
330
17
100
AcDbEntity
  8
SubLayer
100
AcDbLine
 10
1.186265619733191
 20
-3.7384931856288723
 30
0.0
 11
0.9070696461131831
 21
4.256633430523895
 31
0.0
  0
LINE
  5
157
330
17
100
AcDbEntity
  8
SubLayer
100
AcDbLine
 10
-40.58723692396271
 20
26.81315292833933
 30
0.0
 11
-36.58967361588633
 21
26.952750915149338
 31
0.0
  0
LINE
  5
158
330
17
100
AcDbEntity
  8
SubLayer
100
AcDbLine
 10
-36.58967361588633
 20
26.952750915149338
 30
0.0
 11
-36.729271602696336
 21
30.95031422322572
 31
0.0
  0
LINE
  5
159
330
17
100
AcDbEntity
  8
SubLayer
100
AcDbLine
 10
-36.729271602696336
 20
30.95031422322572
 30
0.0
 11
-40.726834910772716
 21
30.810716236415715
 31
0.0
  0
LINE
  5
15A
330
17
100
AcDbEntity
  8
SubLayer
100
AcDbLine
 10
-40.726834910772716
 20
30.810716236415715
 30
0.0
 11
-40.58723692396271
 21
26.81315292833933
 31
0.0
  0
LINE
  5
15B
330
17
100
AcDbEntity
  8
SubLayer
100
AcDbLine
 10
36.729271602696336
 20
29.513104900505542
 30
0.0
 11
40.726834910772716
 21
29.65270288731555
 31
0.0
  0
LINE
  5
15C
330
17
100
AcDbEntity
  8
SubLayer
100
AcDbLine
 10
40.726834910772716
 20
29.65270288731555
 30
0.0
 11
40.58723692396271
 21
33.65026619539193
 31
0.0
  0
LINE
  5
15D
330
17
100
AcDbEntity
  8
SubLayer
100
AcDbLine
 10
40.58723692396271
 20
33.65026619539193
 30
0.0
 11
36.58967361588633
 21
33.510668208581926
 31
0.0
  0
LINE
  5
15E
330
17
100
AcDbEntity
  8
SubLayer
100
AcDbLine
 10
36.58967361588633
 20
33.510668208581926
 30
0.0
 11
36.729271602696336
 21
29.513104900505542
 31
0.0
  0
LINE
  5
15F
330
17
100
AcDbEntity
  8
SubLayer
100
AcDbLine
 10
-2.9756502935563764
 20
58.13576835384056
 30
0.0
 11
1.0219130145200066
 21
58.275366340650564
 31
0.0
  0
LINE
  5
160
330
17
100
AcDbEntity
  8
SubLayer
100
AcDbLine
 10
1.0219130145200066
 20
58.275366340650564
 30
0.0
 11
0.8823150277100027
 21
62.272929648726944
 31
0.0
  0
LINE
  5
161
330
17
100
AcDbEntity
  8
SubLayer
100
AcDbLine
 10
0.8823150277100027
 20
62.272929648726944
 30
0.0
 11
-3.1152482803663806
 21
62.13333166191694
 31
0.0
  0
LINE
  5
162
330
17
100
AcDbEntity
  8
SubLayer
100
AcDbLine
 10
-3.1152482803663806
 20
62.13333166191694
 30
0.0
 11
-2.9756502935563764
 21
58.13576835384056
 31
0.0
  0
LINE
  5
163
330
17
100
AcDbEntity
  8
SubLayer
100
AcDbLine
 10
-0.8823150277100027
 20
-1.8095105249956824
 30
0.0
 11
3.1152482803663806
 21
-1.6699125381856785
 31
0.0
  0
LINE
  5
164
330
17
100
AcDbEntity
  8
SubLayer
100
AcDbLine
 10
3.1152482803663806
 20
-1.6699125381856785
 30
0.0
 11
2.9756502935563764
 21
2.3276507698907047
 31
0.0
  0
LINE
  5
165
330
17
100
AcDbEntity
  8
SubLayer
100
AcDbLine
 10
2.9756502935563764
 20
2.3276507698907047
 30
0.0
 11
-1.0219130145200066
 21
2.1880527830807006
 31
0.0
  0
LINE
  5
166
330
17
100
AcDbEntity
  8
SubLayer
100
AcDbLine
 10
-1.0219130145200066
 20
2.1880527830807006
 30
0.0
 11
-0.8823150277100027
 21
-1.8095105249956824
 31
0.0
  0
LINE
  5
167
330
17
100
AcDbEntity
  8
SubLayer
100
AcDbLine
 10
285.11273006301815
 20
24.347968780291097
 30
0.0
 11
289.1102933710945
 21
24.4875667671011
 31
0.0
  0
LINE
  5
168
330
17
100
AcDbEntity
  8
SubLayer
100
AcDbLine
 10
-196.584009375733
 20
7.52674797742404
 30
0.0
 11
-192.5864460676566
 21
7.666345964234044
 31
0.0
  0
LINE
  5
169
330
17
100
AcDbEntity
  8
SubLayer
100
AcDbLine
 10
-101.24405231500185
 20
10.856092641294952
 30
0.0
 11
-95.24770735288729
 21
11.065489621509956
 31
0.0
  0
LINE
  5
16A
330
17
100
AcDbEntity
  8
SubLayer
100
AcDbLine
 10
187.77399134824884
 20
20.948825123015187
 30
0.0
 11
193.7703363103634
 21
21.15822210323019
 31
0.0
  0
LINE
  5
16B
330
17
100
AcDbEntity
  8
SubLayer
100
AcDbLine
 10
43.264969516623474
 20
15.902458882155067
 30
0.0
 11
49.26131447873805
 21
16.11185586237007
 31
0.0
  0
LINE
  5
16C
330
17
100
AcDbEntity
  8
SubLayer
100
AcDbLine
 10
-96.17729918650137
 20
9.031808470769263
 30
0.0
 11
-96.31689717331138
 21
13.029371778845647
 31
0.0
  0
LINE
  5
16D
330
17
100
AcDbEntity
  8
SubLayer
100
AcDbLine
 10
-96.31689717331138
 20
13.029371778845647
 30
0.0
 11
-100.31446048138777
 21
12.889773792035644
 31
0.0
  0
LINE
  5
16E
330
17
100
AcDbEntity
  8
SubLayer
100
AcDbLine
 10
-100.31446048138777
 20
12.889773792035644
 30
0.0
 11
-100.17486249457777
 21
8.89221048395926
 31
0.0
  0
LINE
  5
16F
330
17
100
AcDbEntity
  8
SubLayer
100
AcDbLine
 10
-100.17486249457777
 20
8.89221048395926
 30
0.0
 11
-96.17729918650137
 21
9.031808470769263
 31
0.0
  0
LINE
  5
170
330
17
100
AcDbEntity
  8
SubLayer
100
AcDbLine
 10
192.8407444767493
 20
19.1245409524895
 30
0.0
 11
192.7011464899393
 21
23.122104260565884
 31
0.0
  0
LINE
  5
171
330
17
100
AcDbEntity
  8
SubLayer
100
AcDbLine
 10
192.7011464899393
 20
23.122104260565884
 30
0.0
 11
188.70358318186294
 21
22.982506273755877
 31
0.0
  0
LINE
  5
172
330
17
100
AcDbEntity
  8
SubLayer
100
AcDbLine
 10
188.70358318186294
 20
22.982506273755877
 30
0.0
 11
188.84318116867294
 21
18.984942965679494
 31
0.0
  0
LINE
  5
173
330
17
100
AcDbEntity
  8
SubLayer
100
AcDbLine
 10
188.84318116867294
 20
18.984942965679494
 30
0.0
 11
192.8407444767493
 21
19.1245409524895
 31
0.0
  0
LINE
  5
174
330
17
100
AcDbEntity
  8
SubLayer
100
AcDbLine
 10
48.33172264512395
 20
14.078174711629378
 30
0.0
 11
48.19212465831395
 21
18.075738019705764
 31
0.0
  0
LINE
  5
175
330
17
100
AcDbEntity
  8
SubLayer
100
AcDbLine
 10
48.19212465831395
 20
18.075738019705764
 30
0.0
 11
44.19456135023757
 21
17.936140032895757
 31
0.0
  0
LINE
  5
176
330
17
100
AcDbEntity
  8
SubLayer
100
AcDbLine
 10
44.19456135023757
 20
17.936140032895757
 30
0.0
 11
44.33415933704757
 21
13.938576724819375
 31
0.0
  0
LINE
  5
177
330
17
100
AcDbEntity
  8
SubLayer
100
AcDbLine
 10
44.33415933704757
 20
13.938576724819375
 30
0.0
 11
48.33172264512395
 21
14.078174711629378
 31
0.0
  0
LINE
  5
178
330
17
100
AcDbEntity
  8
SubLayer
100
AcDbLine
 10
350.7429392650318
 20
5.736592544548621
 30
0.0
 11
351.0535325183459
 21
6.687135458359329
 31
0.0
  0
LINE
  5
179
330
17
100
AcDbEntity
  8
SubLayer
100
AcDbLine
 10
350.0075871972628
 20
2.0443043147995223
 30
0.0
 11
350.1346000936292
 21
3.0362053805095193
 31
0.0
  0
LINE
  5
17A
330
17
100
AcDbEntity
  8
SubLayer
100
AcDbLine
 10
331.5496892020474
 20
11.349225147670557
 30
0.0
 11
331.84536107858685
 21
12.304514706612578
 31
0.0
  0
LINE
  5
17B
330
17
100
AcDbEntity
  8
SubLayer
100
AcDbLine
 10
330.0769911642517
 20
3.6943821178667418
 30
0.0
 11
330.1817820715279
 21
4.688876394246565
 31
0.0
  0
LINE
  5
17C
330
17
100
AcDbEntity
  8
SubLayer
100
AcDbLine
 10
293.05881322200037
 20
22.232489158369454
 30
0.0
 11
293.3427122028223
 21
23.191343354109485
 31
0.0
  0
LINE
  5
17D
330
17
100
AcDbEntity
  8
SubLayer
100
AcDbLine
 10
290.0662107092226
 20
5.035971515569238
 30
0.0
 11
290.13539539611526
 21
6.033575384396722
 31
0.0
  0
LINE
  5
17E
330
17
100
AcDbEntity
  8
SubLayer
100
AcDbLine
 10
-101.01534241922936
 20
57.56180575498396
 30
0.0
 11
-100.87574443241935
 21
53.56424244690758
 31
0.0
  0
LINE
  5
17F
330
17
100
AcDbEntity
  8
SubLayer
100
AcDbLine
 10
-98.6130099716021
 20
-11.231994685036772
 30
0.0
 11
-98.4734119847921
 21
-15.229557993113156
 31
0.0
  0
LINE
  5
180
330
17
100
AcDbEntity
  8
SubLayer
100
AcDbLine
 10
-99.12837595783006
 20
3.5261562299864697
 30
0.0
 11
-98.91897897761504
 21
-2.4701887321281046
 31
0.0
  0
LINE
  5
181
330
17
100
AcDbEntity
  8
SubLayer
100
AcDbLine
 10
-100.56977542640642
 20
44.80243649399892
 30
0.0
 11
-100.3603784461914
 21
38.80609153188434
 31
0.0
  0
LINE
  5
182
330
17
100
AcDbEntity
  8
SubLayer
100
AcDbLine
 10
-99.84907569211823
 20
24.16429636199269
 30
0.0
 11
-99.63967871190322
 21
18.167951399878113
 31
0.0
  0
LINE
  5
183
330
17
100
AcDbEntity
  8
SubLayer
100
AcDbLine
 10
-100.95266012835575
 20
-1.540596898514011
 30
0.0
 11
-96.95509682027935
 21
-1.4009989117040071
 31
0.0
  0
LINE
  5
184
330
17
100
AcDbEntity
  8
SubLayer
100
AcDbLine
 10
-96.95509682027935
 20
-1.4009989117040071
 30
0.0
 11
-97.09469480708935
 21
2.596564396372376
 31
0.0
  0
LINE
  5
185
330
17
100
AcDbEntity
  8
SubLayer
100
AcDbLine
 10
-97.09469480708935
 20
2.596564396372376
 30
0.0
 11
-101.09225811516575
 21
2.456966409562372
 31
0.0
  0
LINE
  5
186
330
17
100
AcDbEntity
  8
SubLayer
100
AcDbLine
 10
-101.09225811516575
 20
2.456966409562372
 30
0.0
 11
-100.95266012835575
 21
-1.540596898514011
 31
0.0
  0
LINE
  5
187
330
17
100
AcDbEntity
  8
SubLayer
100
AcDbLine
 10
-102.39405959693211
 20
39.73568336549844
 30
0.0
 11
-98.39649628885572
 21
39.87528135230844
 31
0.0
  0
LINE
  5
188
330
17
100
AcDbEntity
  8
SubLayer
100
AcDbLine
 10
-98.39649628885572
 20
39.87528135230844
 30
0.0
 11
-98.53609427566572
 21
43.87284466038482
 31
0.0
  0
LINE
  5
189
330
17
100
AcDbEntity
  8
SubLayer
100
AcDbLine
 10
-98.53609427566572
 20
43.87284466038482
 30
0.0
 11
-102.53365758374211
 21
43.73324667357482
 31
0.0
  0
LINE
  5
18A
330
17
100
AcDbEntity
  8
SubLayer
100
AcDbLine
 10
-102.53365758374211
 20
43.73324667357482
 30
0.0
 11
-102.39405959693211
 21
39.73568336549844
 31
0.0
  0
LINE
  5
18B
330
17
100
AcDbEntity
  8
SubLayer
100
AcDbLine
 10
-101.67335986264392
 20
19.097543233492207
 30
0.0
 11
-97.67579655456753
 21
19.237141220302213
 31
0.0
  0
LINE
  5
18C
330
17
100
AcDbEntity
  8
SubLayer
100
AcDbLine
 10
-97.67579655456753
 20
19.237141220302213
 30
0.0
 11
-97.81539454137753
 21
23.234704528378597
 31
0.0
  0
LINE
  5
18D
330
17
100
AcDbEntity
  8
SubLayer
100
AcDbLine
 10
-97.81539454137753
 20
23.234704528378597
 30
0.0
 11
-101.81295784945392
 21
23.09510654156859
 31
0.0
  0
LINE
  5
18E
330
17
100
AcDbEntity
  8
SubLayer
100
AcDbLine
 10
-101.81295784945392
 20
23.09510654156859
 30
0.0
 11
-101.67335986264392
 21
19.097543233492207
 31
0.0
  0
LINE
  5
18F
330
17
100
AcDbEntity
  8
SubLayer
100
AcDbLine
 10
149.10698154435198
 20
58.42267198335261
 30
0.0
 11
149.246579531162
 21
54.42510867527623
 31
0.0
  0
LINE
  5
190
330
17
100
AcDbEntity
  8
SubLayer
100
AcDbLine
 10
151.05762257614563
 20
2.563621332861965
 30
0.0
 11
151.19722056295566
 21
-1.4339419752144182
 31
0.0
  0
LINE
  5
191
330
17
100
AcDbEntity
  8
SubLayer
100
AcDbLine
 10
150.63259487308443
 20
14.73482228997919
 30
0.0
 11
150.84199185329942
 21
8.738477327864617
 31
0.0
  0
LINE
  5
192
330
17
100
AcDbEntity
  8
SubLayer
100
AcDbLine
 10
149.46221025400823
 20
48.25025268027358
 30
0.0
 11
149.67160723422322
 21
42.253907718159006
 31
0.0
  0
LINE
  5
193
330
17
100
AcDbEntity
  8
SubLayer
100
AcDbLine
 10
150.04740256354634
 20
31.492537485126384
 30
0.0
 11
150.25679954376133
 21
25.496192523011807
 31
0.0
  0
LINE
  5
194
330
17
100
AcDbEntity
  8
SubLayer
100
AcDbLine
 10
148.80831070255874
 20
9.66806916147871
 30
0.0
 11
152.8058740106351
 21
9.807667148288713
 31
0.0
  0
LINE
  5
195
330
17
100
AcDbEntity
  8
SubLayer
100
AcDbLine
 10
152.8058740106351
 20
9.807667148288713
 30
0.0
 11
152.6662760238251
 21
13.805230456365097
 31
0.0
  0
LINE
  5
196
330
17
100
AcDbEntity
  8
SubLayer
100
AcDbLine
 10
152.6662760238251
 20
13.805230456365097
 30
0.0
 11
148.66871271574874
 21
13.665632469555094
 31
0.0
  0
LINE
  5
197
330
17
100
AcDbEntity
  8
SubLayer
100
AcDbLine
 10
148.66871271574874
 20
13.665632469555094
 30
0.0
 11
148.80831070255874
 21
9.66806916147871
 31
0.0
  0
LINE
  5
198
330
17
100
AcDbEntity
  8
SubLayer
100
AcDbLine
 10
147.63792608348254
 20
43.1834995517731
 30
0.0
 11
151.6354893915589
 21
43.323097538583106
 31
0.0
  0
LINE
  5
199
330
17
100
AcDbEntity
  8
SubLayer
100
AcDbLine
 10
151.6354893915589
 20
43.323097538583106
 30
0.0
 11
151.4958914047489
 21
47.320660846659486
 31
0.0
  0
LINE
  5
19A
330
17
100
AcDbEntity
  8
SubLayer
100
AcDbLine
 10
151.4958914047489
 20
47.320660846659486
 30
0.0
 11
147.49832809667254
 21
47.18106285984948
 31
0.0
  0
LINE
  5
19B
330
17
100
AcDbEntity
  8
SubLayer
100
AcDbLine
 10
147.49832809667254
 20
47.18106285984948
 30
0.0
 11
147.63792608348254
 21
43.1834995517731
 31
0.0
  0
LINE
  5
19C
330
17
100
AcDbEntity
  8
SubLayer
100
AcDbLine
 10
148.22311839302066
 20
26.4257843566259
 30
0.0
 11
152.22068170109702
 21
26.565382343435907
 31
0.0
  0
LINE
  5
19D
330
17
100
AcDbEntity
  8
SubLayer
100
AcDbLine
 10
152.22068170109702
 20
26.565382343435907
 30
0.0
 11
152.08108371428702
 21
30.56294565151229
 31
0.0
  0
LINE
  5
19E
330
17
100
AcDbEntity
  8
SubLayer
100
AcDbLine
 10
152.08108371428702
 20
30.56294565151229
 30
0.0
 11
148.08352040621065
 21
30.423347664702284
 31
0.0
  0
LINE
  5
19F
330
17
100
AcDbEntity
  8
SubLayer
100
AcDbLine
 10
148.08352040621065
 20
30.423347664702284
 30
0.0
 11
148.22311839302066
 21
26.4257843566259
 31
0.0
  0
ENDSEC
  0
SECTION
  2
OBJECTS
  0
DICTIONARY
  5
A
330
0
100
AcDbDictionary
280
0
281
1
  3
ACAD_COLOR
350
B
  3
ACAD_GROUP
350
C
  3
ACAD_LAYOUT
350
D
  3
ACAD_MATERIAL
350
E
  3
ACAD_MLEADERSTYLE
350
F
  3
ACAD_MLINESTYLE
350
10
  3
ACAD_PLOTSETTINGS
350
11
  3
ACAD_PLOTSTYLENAME
350
12
  3
ACAD_SCALELIST
350
14
  3
ACAD_TABLESTYLE
350
15
  3
ACAD_VISUALSTYLE
350
16
  3
EZDXF_META
350
2D
  0
DICTIONARY
  5
B
330
A
100
AcDbDictionary
280
0
281
1
  0
DICTIONARY
  5
C
330
A
100
AcDbDictionary
280
0
281
1
  0
DICTIONARY
  5
D
330
A
100
AcDbDictionary
280
0
281
1
  3
Model
350
1A
  3
Layout1
350
1E
  0
DICTIONARY
  5
E
330
A
100
AcDbDictionary
280
0
281
1
  3
ByBlock
350
1F
  3
ByLayer
350
20
  3
Global
350
21
  0
DICTIONARY
  5
F
330
A
100
AcDbDictionary
280
0
281
1
  3
Standard
350
2C
  0
DICTIONARY
  5
10
330
A
100
AcDbDictionary
280
0
281
1
  3
Standard
350
22
  0
DICTIONARY
  5
11
330
A
100
AcDbDictionary
280
0
281
1
  0
ACDBDICTIONARYWDFLT
  5
12
330
A
100
AcDbDictionary
280
0
281
1
  3
Normal
350
13
100
AcDbDictionaryWithDefault
340
13
  0
ACDBPLACEHOLDER
  5
13
330
12
  0
DICTIONARY
  5
14
330
A
100
AcDbDictionary
280
0
281
1
  0
DICTIONARY
  5
15
330
A
100
AcDbDictionary
280
0
281
1
  0
DICTIONARY
  5
16
330
A
100
AcDbDictionary
280
0
281
1
  0
LAYOUT
  5
1A
330
D
100
AcDbPlotSettings
  1

  2
Adobe PDF
  4
A3
  6

 40
7.5
 41
20.0
 42
7.5
 43
20.0
 44
420.0
 45
297.0
 46
0.0
 47
0.0
 48
0.0
 49
0.0
140
0.0
141
0.0
142
1.0
143
1.0
 70
1024
 72
1
 73
0
 74
5
  7

 75
16
 76
0
 77
2
 78
300
147
1.0
148
0.0
149
0.0
100
AcDbLayout
  1
Model
 70
1
 71
0
 10
0.0
 20
0.0
 11
420.0
 21
297.0
 12
0.0
 22
0.0
 32
0.0
 14
1e+20
 24
1e+20
 34
1e+20
 15
-1e+20
 25
-1e+20
 35
-1e+20
146
0.0
 13
0.0
 23
0.0
 33
0.0
 16
1.0
 26
0.0
 36
0.0
 17
0.0
 27
1.0
 37
0.0
 76
1
330
17
  0
LAYOUT
  5
1E
330
D
100
AcDbPlotSettings
  1

  2
Adobe PDF
  4
A3
  6

 40
7.5
 41
20.0
 42
7.5
 43
20.0
 44
420.0
 45
297.0
 46
0.0
 47
0.0
 48
0.0
 49
0.0
140
0.0
141
0.0
142
1.0
143
1.0
 70
0
 72
1
 73
0
 74
5
  7

 75
16
 76
0
 77
2
 78
300
147
1.0
148
0.0
149
0.0
100
AcDbLayout
  1
Layout1
 70
1
 71
1
 10
0.0
 20
0.0
 11
420.0
 21
297.0
 12
0.0
 22
0.0
 32
0.0
 14
1e+20
 24
1e+20
 34
1e+20
 15
-1e+20
 25
-1e+20
 35
-1e+20
146
0.0
 13
0.0
 23
0.0
 33
0.0
 16
1.0
 26
0.0
 36
0.0
 17
0.0
 27
1.0
 37
0.0
 76
1
330
1B
  0
MATERIAL
  5
1F
102
{ACAD_REACTORS
330
E
102
}
330
E
100
AcDbMaterial
  1
ByBlock
  2

 70
0
 40
1.0
 71
1
 41
1.0
 91
-1023410177
 42
1.0
 72
1
  3

 73
1
 74
1
 75
1
 44
0.5
 73
0
 45
1.0
 46
1.0
 77
1
  4

 78
1
 79
1
170
1
 48
1.0
171
1
  6

172
1
173
1
174
1
140
1.0
141
1.0
175
1
  7

176
1
177
1
178
1
143
1.0
179
1
  8

270
1
271
1
272
1
145
1.0
146
1.0
273
1
  9

274
1
275
1
276
1
 42
1.0
 72
1
  3

 73
1
 74
1
 75
1
 94
63
  0
MATERIAL
  5
20
102
{ACAD_REACTORS
330
E
102
}
330
E
100
AcDbMaterial
  1
ByLayer
  2

 70
0
 40
1.0
 71
1
 41
1.0
 91
-1023410177
 42
1.0
 72
1
  3

 73
1
 74
1
 75
1
 44
0.5
 73
0
 45
1.0
 46
1.0
 77
1
  4

 78
1
 79
1
170
1
 48
1.0
171
1
  6

172
1
173
1
174
1
140
1.0
141
1.0
175
1
  7

176
1
177
1
178
1
143
1.0
179
1
  8

270
1
271
1
272
1
145
1.0
146
1.0
273
1
  9

274
1
275
1
276
1
 42
1.0
 72
1
  3

 73
1
 74
1
 75
1
 94
63
  0
MATERIAL
  5
21
102
{ACAD_REACTORS
330
E
102
}
330
E
100
AcDbMaterial
  1
Global
  2

 70
0
 40
1.0
 71
1
 41
1.0
 91
-1023410177
 42
1.0
 72
1
  3

 73
1
 74
1
 75
1
 44
0.5
 73
0
 45
1.0
 46
1.0
 77
1
  4

 78
1
 79
1
170
1
 48
1.0
171
1
  6

172
1
173
1
174
1
140
1.0
141
1.0
175
1
  7

176
1
177
1
178
1
143
1.0
179
1
  8

270
1
271
1
272
1
145
1.0
146
1.0
273
1
  9

274
1
275
1
276
1
 42
1.0
 72
1
  3

 73
1
 74
1
 75
1
 94
63
  0
MLINESTYLE
  5
22
102
{ACAD_REACTORS
330
10
102
}
330
10
100
AcDbMlineStyle
  2
Standard
 70
0
  3

 62
256
 51
90.0
 52
90.0
 71
2
 49
0.5
 62
256
  6
BYLAYER
 49
-0.5
 62
256
  6
BYLAYER
  0
MLEADERSTYLE
  5
2C
102
{ACAD_REACTORS
330
F
102
}
330
F
100
AcDbMLeaderStyle
179
2
170
2
171
1
172
0
 90
2
 40
0.0
 41
0.0
173
1
 91
-1056964608
 92
-2
290
1
 42
2.0
291
1
 43
8.0
  3
Standard
 44
4.0
300

342
29
174
1
175
1
176
0
178
1
 93
-1056964608
 45
4.0
292
0
297
0
 46
4.0
 94
-1056964608
 47
1.0
 49
1.0
140
1.0
294
1
141
0.0
177
0
142
1.0
295
0
296
0
143
3.75
271
0
272
9
273
9
  0
DICTIONARY
  5
2D
330
A
100
AcDbDictionary
281
1
  3
CREATED_BY_EZDXF
350
2E
  3
WRITTEN_BY_EZDXF
350
1A2
  0
DICTIONARYVAR
  5
2E
330
2D
100
DictionaryVariables
280
0
  1
1.0.2 @ 2023-10-20T04:47:16.444737+00:00
  0
DICTIONARYVAR
  5
1A2
330
2D
100
DictionaryVariables
280
0
  1
1.0.2 @ 2023-10-20T04:47:16.454703+00:00
  0
ENDSEC
  0
EOF
