  0
SECTION
  2
HEADER
  9
$ACADVER
  1
AC1027
  9
$ACADMAINTVER
 70
105
  9
$DWGCODEPAGE
  3
ANSI_1252
  9
$LASTSAVEDBY
  1
ezdxf
  9
$REQUIREDVERSIONS
160
0
  9
$INSBASE
 10
0.0
 20
0.0
 30
0.0
  9
$EXTMIN
 10
1e+20
 20
1e+20
 30
1e+20
  9
$EXTMAX
 10
-1e+20
 20
-1e+20
 30
-1e+20
  9
$LIMMIN
 10
0.0
 20
0.0
  9
$LIMMAX
 10
420.0
 20
297.0
  9
$ORTHOMODE
 70
0
  9
$REGENMODE
 70
1
  9
$FILLMODE
 70
1
  9
$QTEXTMODE
 70
0
  9
$MIRRTEXT
 70
1
  9
$LTSCALE
 40
1.0
  9
$ATTMODE
 70
1
  9
$TEXTSIZE
 40
2.5
  9
$TRACEWID
 40
1.0
  9
$TEXTSTYLE
  7
Standard
  9
$CLAYER
  8
0
  9
$CELTYPE
  6
ByLayer
  9
$CECOLOR
 62
256
  9
$CELTSCALE
 40
1.0
  9
$DISPSILH
 70
0
  9
$DIMSCALE
 40
1.0
  9
$DIMASZ
 40
2.5
  9
$DIMEXO
 40
0.625
  9
$DIMDLI
 40
3.75
  9
$DIMRND
 40
0.0
  9
$DIMDLE
 40
0.0
  9
$DIMEXE
 40
1.25
  9
$DIMTP
 40
0.0
  9
$DIMTM
 40
0.0
  9
$DIMTXT
 40
2.5
  9
$DIMCEN
 40
2.5
  9
$DIMTSZ
 40
0.0
  9
$DIMTOL
 70
0
  9
$DIMLIM
 70
0
  9
$DIMTIH
 70
0
  9
$DIMTOH
 70
0
  9
$DIMSE1
 70
0
  9
$DIMSE2
 70
0
  9
$DIMTAD
 70
1
  9
$DIMZIN
 70
8
  9
$DIMBLK
  1

  9
$DIMASO
 70
1
  9
$DIMSHO
 70
1
  9
$DIMPOST
  1

  9
$DIMAPOST
  1

  9
$DIMALT
 70
0
  9
$DIMALTD
 70
3
  9
$DIMALTF
 40
0.03937007874
  9
$DIMLFAC
 40
1.0
  9
$DIMTOFL
 70
1
  9
$DIMTVP
 40
0.0
  9
$DIMTIX
 70
0
  9
$DIMSOXD
 70
0
  9
$DIMSAH
 70
0
  9
$DIMBLK1
  1

  9
$DIMBLK2
  1

  9
$DIMSTYLE
  2
ISO-25
  9
$DIMCLRD
 70
0
  9
$DIMCLRE
 70
0
  9
$DIMCLRT
 70
0
  9
$DIMTFAC
 40
1.0
  9
$DIMGAP
 40
0.625
  9
$DIMJUST
 70
0
  9
$DIMSD1
 70
0
  9
$DIMSD2
 70
0
  9
$DIMTOLJ
 70
0
  9
$DIMTZIN
 70
8
  9
$DIMALTZ
 70
0
  9
$DIMALTTZ
 70
0
  9
$DIMUPT
 70
0
  9
$DIMDEC
 70
2
  9
$DIMTDEC
 70
2
  9
$DIMALTU
 70
2
  9
$DIMALTTD
 70
3
  9
$DIMTXSTY
  7
Standard
  9
$DIMAUNIT
 70
0
  9
$DIMADEC
 70
0
  9
$DIMALTRND
 40
0.0
  9
$DIMAZIN
 70
0
  9
$DIMDSEP
 70
44
  9
$DIMATFIT
 70
3
  9
$DIMFRAC
 70
0
  9
$DIMLDRBLK
  1

  9
$DIMLUNIT
 70
2
  9
$DIMLWD
 70
-2
  9
$DIMLWE
 70
-2
  9
$DIMTMOVE
 70
0
  9
$DIMFXL
 40
1.0
  9
$DIMFXLON
 70
0
  9
$DIMJOGANG
 40
0.785398163397
  9
$DIMTFILL
 70
0
  9
$DIMTFILLCLR
 70
0
  9
$DIMARCSYM
 70
0
  9
$DIMLTYPE
  6

  9
$DIMLTEX1
  6

  9
$DIMLTEX2
  6

  9
$DIMTXTDIRECTION
 70
0
  9
$LUNITS
 70
2
  9
$LUPREC
 70
4
  9
$SKETCHINC
 40
1.0
  9
$FILLETRAD
 40
10.0
  9
$AUNITS
 70
0
  9
$AUPREC
 70
2
  9
$MENU
  1
.
  9
$ELEVATION
 40
0.0
  9
$PELEVATION
 40
0.0
  9
$THICKNESS
 40
0.0
  9
$LIMCHECK
 70
0
  9
$CHAMFERA
 40
0.0
  9
$CHAMFERB
 40
0.0
  9
$CHAMFERC
 40
0.0
  9
$CHAMFERD
 40
0.0
  9
$SKPOLY
 70
0
  9
$TDCREATE
 40
2460238.574490741
  9
$TDUCREATE
 40
2458532.153996898
  9
$TDUPDATE
 40
2460238.574490741
  9
$TDUUPDATE
 40
2458532.1544311
  9
$TDINDWG
 40
0.0
  9
$TDUSRTIMER
 40
0.0
  9
$USRTIMER
 70
1
  9
$ANGBASE
 50
0.0
  9
$ANGDIR
 70
0
  9
$PDMODE
 70
0
  9
$PDSIZE
 40
0.0
  9
$PLINEWID
 40
0.0
  9
$SPLFRAME
 70
0
  9
$SPLINETYPE
 70
6
  9
$SPLINESEGS
 70
8
  9
$HANDSEED
  5
1A3
  9
$SURFTAB1
 70
6
  9
$SURFTAB2
 70
6
  9
$SURFTYPE
 70
6
  9
$SURFU
 70
6
  9
$SURFV
 70
6
  9
$UCSBASE
  2

  9
$UCSNAME
  2

  9
$UCSORG
 10
0.0
 20
0.0
 30
0.0
  9
$UCSXDIR
 10
1.0
 20
0.0
 30
0.0
  9
$UCSYDIR
 10
0.0
 20
1.0
 30
0.0
  9
$UCSORTHOREF
  2

  9
$UCSORTHOVIEW
 70
0
  9
$UCSORGTOP
 10
0.0
 20
0.0
 30
0.0
  9
$UCSORGBOTTOM
 10
0.0
 20
0.0
 30
0.0
  9
$UCSORGLEFT
 10
0.0
 20
0.0
 30
0.0
  9
$UCSORGRIGHT
 10
0.0
 20
0.0
 30
0.0
  9
$UCSORGFRONT
 10
0.0
 20
0.0
 30
0.0
  9
$UCSORGBACK
 10
0.0
 20
0.0
 30
0.0
  9
$PUCSBASE
  2

  9
$PUCSNAME
  2

  9
$PUCSORG
 10
0.0
 20
0.0
 30
0.0
  9
$PUCSXDIR
 10
1.0
 20
0.0
 30
0.0
  9
$PUCSYDIR
 10
0.0
 20
1.0
 30
0.0
  9
$PUCSORTHOREF
  2

  9
$PUCSORTHOVIEW
 70
0
  9
$PUCSORGTOP
 10
0.0
 20
0.0
 30
0.0
  9
$PUCSORGBOTTOM
 10
0.0
 20
0.0
 30
0.0
  9
$PUCSORGLEFT
 10
0.0
 20
0.0
 30
0.0
  9
$PUCSORGRIGHT
 10
0.0
 20
0.0
 30
0.0
  9
$PUCSORGFRONT
 10
0.0
 20
0.0
 30
0.0
  9
$PUCSORGBACK
 10
0.0
 20
0.0
 30
0.0
  9
$USERI1
 70
0
  9
$USERI2
 70
0
  9
$USERI3
 70
0
  9
$USERI4
 70
0
  9
$USERI5
 70
0
  9
$USERR1
 40
0.0
  9
$USERR2
 40
0.0
  9
$USERR3
 40
0.0
  9
$USERR4
 40
0.0
  9
$USERR5
 40
0.0
  9
$WORLDVIEW
 70
1
  9
$SHADEDGE
 70
3
  9
$SHADEDIF
 70
70
  9
$TILEMODE
 70
1
  9
$MAXACTVP
 70
64
  9
$PINSBASE
 10
0.0
 20
0.0
 30
0.0
  9
$PLIMCHECK
 70
0
  9
$PEXTMIN
 10
1e+20
 20
1e+20
 30
1e+20
  9
$PEXTMAX
 10
-1e+20
 20
-1e+20
 30
-1e+20
  9
$PLIMMIN
 10
0.0
 20
0.0
  9
$PLIMMAX
 10
420.0
 20
297.0
  9
$UNITMODE
 70
0
  9
$VISRETAIN
 70
1
  9
$PLINEGEN
 70
0
  9
$PSLTSCALE
 70
1
  9
$TREEDEPTH
 70
3020
  9
$CMLSTYLE
  2
Standard
  9
$CMLJUST
 70
0
  9
$CMLSCALE
 40
20.0
  9
$PROXYGRAPHICS
 70
1
  9
$MEASUREMENT
 70
1
  9
$CELWEIGHT
370
-1
  9
$ENDCAPS
280
0
  9
$JOINSTYLE
280
0
  9
$LWDISPLAY
290
0
  9
$INSUNITS
 70
6
  9
$HYPERLINKBASE
  1

  9
$STYLESHEET
  1

  9
$XEDIT
290
1
  9
$CEPSNTYPE
380
0
  9
$PSTYLEMODE
290
1
  9
$FINGERPRINTGUID
  2
{11E13605-271C-4303-95BD-5854ADC920BB}
  9
$VERSIONGUID
  2
{EFD68971-BBB6-4E8B-9C90-D377161E0C62}
  9
$EXTNAMES
290
1
  9
$PSVPSCALE
 40
0.0
  9
$OLESTARTUP
290
0
  9
$SORTENTS
280
127
  9
$INDEXCTL
280
0
  9
$HIDETEXT
280
1
  9
$XCLIPFRAME
280
0
  9
$HALOGAP
280
0
  9
$OBSCOLOR
 70
257
  9
$OBSLTYPE
280
0
  9
$INTERSECTIONDISPLAY
280
0
  9
$INTERSECTIONCOLOR
 70
257
  9
$DIMASSOC
280
2
  9
$PROJECTNAME
  1

  9
$CAMERADISPLAY
290
0
  9
$LENSLENGTH
 40
50.0
  9
$CAMERAHEIGHT
 40
0.0
  9
$STEPSPERSEC
 40
24.0
  9
$STEPSIZE
 40
100.0
  9
$3DDWFPREC
 40
2.0
  9
$PSOLWIDTH
 40
0.005
  9
$PSOLHEIGHT
 40
0.08
  9
$LOFTANG1
 40
1.570796326795
  9
$LOFTANG2
 40
1.570796326795
  9
$LOFTMAG1
 40
0.0
  9
$LOFTMAG2
 40
0.0
  9
$LOFTPARAM
 70
7
  9
$LOFTNORMALS
280
1
  9
$LATITUDE
 40
37.795
  9
$LONGITUDE
 40
-122.394
  9
$NORTHDIRECTION
 40
0.0
  9
$TIMEZONE
 70
-8000
  9
$LIGHTGLYPHDISPLAY
280
1
  9
$TILEMODELIGHTSYNCH
280
1
  9
$CMATERIAL
347
20
  9
$SOLIDHIST
280
0
  9
$SHOWHIST
280
1
  9
$DWFFRAME
280
2
  9
$DGNFRAME
280
2
  9
$REALWORLDSCALE
290
1
  9
$INTERFERECOLOR
 62
256
  9
$CSHADOW
280
0
  9
$SHADOWPLANELOCATION
 40
0.0
  0
ENDSEC
  0
SECTION
  2
CLASSES
  0
CLASS
  1
ACDBDICTIONARYWDFLT
  2
AcDbDictionaryWithDefault
  3
ObjectDBX Classes
 90
0
 91
0
280
0
281
0
  0
CLASS
  1
SUN
  2
AcDbSun
  3
SCENEOE
 90
1153
 91
0
280
0
281
0
  0
CLASS
  1
VISUALSTYLE
  2
AcDbVisualStyle
  3
ObjectDBX Classes
 90
4095
 91
0
280
0
281
0
  0
CLASS
  1
MATERIAL
  2
AcDbMaterial
  3
ObjectDBX Classes
 90
1153
 91
0
280
0
281
0
  0
CLASS
  1
SCALE
  2
AcDbScale
  3
ObjectDBX Classes
 90
1153
 91
0
280
0
281
0
  0
CLASS
  1
TABLESTYLE
  2
AcDbTableStyle
  3
ObjectDBX Classes
 90
4095
 91
0
280
0
281
0
  0
CLASS
  1
MLEADERSTYLE
  2
AcDbMLeaderStyle
  3
ACDB_MLEADERSTYLE_CLASS
 90
4095
 91
0
280
0
281
0
  0
CLASS
  1
DICTIONARYVAR
  2
AcDbDictionaryVar
  3
ObjectDBX Classes
 90
0
 91
0
280
0
281
0
  0
CLASS
  1
CELLSTYLEMAP
  2
AcDbCellStyleMap
  3
ObjectDBX Classes
 90
1152
 91
0
280
0
281
0
  0
CLASS
  1
MENTALRAYRENDERSETTINGS
  2
AcDbMentalRayRenderSettings
  3
SCENEOE
 90
1024
 91
0
280
0
281
0
  0
CLASS
  1
ACDBDETAILVIEWSTYLE
  2
AcDbDetailViewStyle
  3
ObjectDBX Classes
 90
1025
 91
0
280
0
281
0
  0
CLASS
  1
ACDBSECTIONVIEWSTYLE
  2
AcDbSectionViewStyle
  3
ObjectDBX Classes
 90
1025
 91
0
280
0
281
0
  0
CLASS
  1
RASTERVARIABLES
  2
AcDbRasterVariables
  3
ISM
 90
0
 91
0
280
0
281
0
  0
CLASS
  1
ACDBPLACEHOLDER
  2
AcDbPlaceHolder
  3
ObjectDBX Classes
 90
0
 91
0
280
0
281
0
  0
CLASS
  1
LAYOUT
  2
AcDbLayout
  3
ObjectDBX Classes
 90
0
 91
0
280
0
281
0
  0
ENDSEC
  0
SECTION
  2
TABLES
  0
TABLE
  2
VPORT
  5
8
330
0
100
AcDbSymbolTable
 70
1
  0
VPORT
  5
23
330
8
100
AcDbSymbolTableRecord
100
AcDbViewportTableRecord
  2
*Active
 70
0
 10
0.0
 20
0.0
 11
1.0
 21
1.0
 12
0.0
 22
0.0
 13
0.0
 23
0.0
 14
0.5
 24
0.5
 15
0.5
 25
0.5
 16
0.0
 26
0.0
 36
1.0
 17
0.0
 27
0.0
 37
0.0
 40
1000.0
 41
1.34
 42
50.0
 43
0.0
 44
0.0
 50
0.0
 51
0.0
 71
0
 72
1000
 73
1
 74
3
 75
0
 76
0
 77
0
 78
0
281
0
 65
0
146
0.0
  0
ENDTAB
  0
TABLE
  2
LTYPE
  5
2
330
0
100
AcDbSymbolTable
 70
3
  0
LTYPE
  5
24
330
2
100
AcDbSymbolTableRecord
100
AcDbLinetypeTableRecord
  2
ByBlock
 70
0
  3

 72
65
 73
0
 40
0.0
  0
LTYPE
  5
25
330
2
100
AcDbSymbolTableRecord
100
AcDbLinetypeTableRecord
  2
ByLayer
 70
0
  3

 72
65
 73
0
 40
0.0
  0
LTYPE
  5
26
330
2
100
AcDbSymbolTableRecord
100
AcDbLinetypeTableRecord
  2
Continuous
 70
0
  3

 72
65
 73
0
 40
0.0
  0
ENDTAB
  0
TABLE
  2
LAYER
  5
1
330
0
100
AcDbSymbolTable
 70
5
  0
LAYER
  5
27
330
1
100
AcDbSymbolTableRecord
100
AcDbLayerTableRecord
  2
0
 70
0
 62
7
  6
Continuous
370
-3
390
13
347
21
  0
LAYER
  5
28
330
1
100
AcDbSymbolTableRecord
100
AcDbLayerTableRecord
  2
Defpoints
 70
0
 62
7
  6
Continuous
290
0
370
-3
390
13
347
21
  0
LAYER
  5
30
330
1
100
AcDbSymbolTableRecord
100
AcDbLayerTableRecord
  2
FoilLayer
 70
0
 62
1
  6
Continuous
370
50
390
13
347
21
  0
LAYER
  5
31
330
1
100
AcDbSymbolTableRecord
100
AcDbLayerTableRecord
  2
StringerLayer
 70
0
 62
1
  6
Continuous
370
50
390
13
347
21
  0
LAYER
  5
32
330
1
100
AcDbSymbolTableRecord
100
AcDbLayerTableRecord
  2
SubLayer
 70
0
 62
1
  6
Continuous
370
50
390
13
347
21
  0
ENDTAB
  0
TABLE
  2
STYLE
  5
5
330
0
100
AcDbSymbolTable
 70
2
  0
STYLE
  5
29
330
5
100
AcDbSymbolTableRecord
100
AcDbTextStyleTableRecord
  2
Standard
 70
0
 40
0.0
 41
1.0
 50
0.0
 71
0
 42
2.5
  3
txt
  4

  0
STYLE
  5
2F
330
5
100
AcDbSymbolTableRecord
100
AcDbTextStyleTableRecord
  2
MSゴシック
 70
0
 40
0.0
 41
1.0
 50
0.0
 71
0
 42
2.5
  3
romans
  4

  0
ENDTAB
  0
TABLE
  2
VIEW
  5
7
330
0
100
AcDbSymbolTable
 70
0
  0
ENDTAB
  0
TABLE
  2
UCS
  5
6
330
0
100
AcDbSymbolTable
 70
0
  0
ENDTAB
  0
TABLE
  2
APPID
  5
3
330
0
100
AcDbSymbolTable
 70
3
  0
APPID
  5
2A
330
3
100
AcDbSymbolTableRecord
100
AcDbRegAppTableRecord
  2
ACAD
 70
0
  0
APPID
  5
1A0
330
3
100
AcDbSymbolTableRecord
100
AcDbRegAppTableRecord
  2
HATCHBACKGROUNDCOLOR
 70
0
  0
APPID
  5
1A1
330
3
100
AcDbSymbolTableRecord
100
AcDbRegAppTableRecord
  2
EZDXF
 70
0
  0
ENDTAB
  0
TABLE
  2
DIMSTYLE
  5
4
330
0
100
AcDbSymbolTable
 70
1
100
AcDbDimStyleTable
  0
DIMSTYLE
105
2B
330
4
100
AcDbSymbolTableRecord
100
AcDbDimStyleTableRecord
  2
Standard
 70
0
 40
1.0
 41
2.5
 42
0.625
 43
3.75
 44
1.25
 45
0.0
 46
0.0
 47
0.0
 48
0.0
 49
2.5
140
2.5
141
2.5
142
0.0
143
0.03937007874
144
1.0
145
0.0
146
1.0
147
0.625
148
0.0
 69
0
 70
0
 71
0
 72
0
 73
0
 74
0
 75
0
 76
0
 77
1
 78
8
 79
3
170
0
171
3
172
1
173
0
174
0
175
0
176
0
177
0
178
0
179
2
271
2
272
2
273
2
274
3
275
0
276
0
277
2
278
44
279
0
280
0
281
0
282
0
283
0
284
8
285
0
286
0
288
0
289
3
290
0
371
-2
372
-2
  0
ENDTAB
  0
TABLE
  2
BLOCK_RECORD
  5
9
330
0
100
AcDbSymbolTable
 70
2
  0
BLOCK_RECORD
  5
17
330
9
100
AcDbSymbolTableRecord
100
AcDbBlockTableRecord
  2
*Model_Space
340
1A
 70
0
280
1
281
0
  0
BLOCK_RECORD
  5
1B
330
9
100
AcDbSymbolTableRecord
100
AcDbBlockTableRecord
  2
*Paper_Space
340
1E
 70
0
280
1
281
0
  0
ENDTAB
  0
ENDSEC
  0
SECTION
  2
BLOCKS
  0
BLOCK
  5
18
330
17
100
AcDbEntity
  8
0
100
AcDbBlockBegin
  2
*Model_Space
 70
0
 10
0.0
 20
0.0
 30
0.0
  3
*Model_Space
  1

  0
ENDBLK
  5
19
330
17
100
AcDbEntity
  8
0
100
AcDbBlockEnd
  0
BLOCK
  5
1C
330
1B
100
AcDbEntity
  8
0
100
AcDbBlockBegin
  2
*Paper_Space
 70
0
 10
0.0
 20
0.0
 30
0.0
  3
*Paper_Space
  1

  0
ENDBLK
  5
1D
330
1B
100
AcDbEntity
  8
0
100
AcDbBlockEnd
  0
ENDSEC
  0
SECTION
  2
ENTITIES
  0
LINE
  5
33
330
17
100
AcDbEntity
  8
FoilLayer
100
AcDbLine
 10
222.21952162809924
 20
37.88412627541989
 30
0.0
 11
27.840909090909093
 21
-7.2179168860625555
 31
0.0
  0
LINE
  5
34
330
17
100
AcDbEntity
  8
FoilLayer
100
AcDbLine
 10
361.9318181818178
 20
0.02784174434323936
 30
0.0
 11
361.8204512044448
 21
0.06682018642377445
 31
0.0
  0
LINE
  5
35
330
17
100
AcDbEntity
  8
FoilLayer
100
AcDbLine
 10
361.8204512044448
 20
0.06682018642377445
 30
0.0
 11
361.4919186211946
 21
0.17818716379673186
 31
0.0
  0
LINE
  5
36
330
17
100
AcDbEntity
  8
FoilLayer
100
AcDbLine
 10
361.4919186211946
 20
0.17818716379673186
 30
0.0
 11
360.9684938275417
 21
0.36194267646211165
 31
0.0
  0
LINE
  5
37
330
17
100
AcDbEntity
  8
FoilLayer
100
AcDbLine
 10
360.9684938275417
 20
0.36194267646211165
 30
0.0
 11
360.2501768234861
 21
0.6125183755512658
 31
0.0
  0
LINE
  5
38
330
17
100
AcDbEntity
  8
FoilLayer
100
AcDbLine
 10
360.2501768234861
 20
0.6125183755512658
 30
0.0
 11
359.3481043067652
 21
0.9243459121955466
 31
0.0
  0
LINE
  5
39
330
17
100
AcDbEntity
  8
FoilLayer
100
AcDbLine
 10
359.3481043067652
 20
0.9243459121955466
 30
0.0
 11
358.2622762773789
 21
1.297425286394954
 31
0.0
  0
LINE
  5
3A
330
17
100
AcDbEntity
  8
FoilLayer
100
AcDbLine
 10
358.2622762773789
 20
1.297425286394954
 30
0.0
 11
357.0038294330644
 21
1.7206198004121922
 31
0.0
  0
LINE
  5
3B
330
17
100
AcDbEntity
  8
FoilLayer
100
AcDbLine
 10
357.0038294330644
 20
1.7206198004121922
 30
0.0
 11
355.5671954249533
 21
2.1994978031159094
 31
0.0
  0
LINE
  5
3C
330
17
100
AcDbEntity
  8
FoilLayer
100
AcDbLine
 10
355.5671954249533
 20
2.1994978031159094
 30
0.0
 11
353.9635109507826
 21
2.7340592945061046
 31
0.0
  0
LINE
  5
3D
330
17
100
AcDbEntity
  8
FoilLayer
100
AcDbLine
 10
353.9635109507826
 20
2.7340592945061046
 30
0.0
 11
352.1927760105526
 21
3.3075992279768354
 31
0.0
  0
LINE
  5
3E
330
17
100
AcDbEntity
  8
FoilLayer
100
AcDbLine
 10
352.1927760105526
 20
3.3075992279768354
 30
0.0
 11
350.2549906042632
 21
3.9312543012653975
 31
0.0
  0
LINE
  5
3F
330
17
100
AcDbEntity
  8
FoilLayer
100
AcDbLine
 10
350.2549906042632
 20
3.9312543012653975
 30
0.0
 11
348.1501547319143
 21
4.593887816634492
 31
0.0
  0
LINE
  5
40
330
17
100
AcDbEntity
  8
FoilLayer
100
AcDbLine
 10
348.1501547319143
 20
4.593887816634492
 30
0.0
 11
345.8838367423747
 21
5.295499774084125
 31
0.0
  0
LINE
  5
41
330
17
100
AcDbEntity
  8
FoilLayer
100
AcDbLine
 10
345.8838367423747
 20
5.295499774084125
 30
0.0
 11
343.4504682867755
 21
6.04165852248294
 31
0.0
  0
LINE
  5
42
330
17
100
AcDbEntity
  8
FoilLayer
100
AcDbLine
 10
343.4504682867755
 20
6.04165852248294
 30
0.0
 11
340.86118606285424
 21
6.826795712962291
 31
0.0
  0
LINE
  5
43
330
17
100
AcDbEntity
  8
FoilLayer
100
AcDbLine
 10
340.86118606285424
 20
6.826795712962291
 30
0.0
 11
338.1159900706109
 21
7.645342996653527
 31
0.0
  0
LINE
  5
44
330
17
100
AcDbEntity
  8
FoilLayer
100
AcDbLine
 10
338.1159900706109
 20
7.645342996653527
 30
0.0
 11
335.21488031004526
 21
8.5028687224253
 31
0.0
  0
LINE
  5
45
330
17
100
AcDbEntity
  8
FoilLayer
100
AcDbLine
 10
335.21488031004526
 20
8.5028687224253
 30
0.0
 11
332.15785678115765
 21
9.393804541408958
 31
0.0
  0
LINE
  5
46
330
17
100
AcDbEntity
  8
FoilLayer
100
AcDbLine
 10
332.15785678115765
 20
9.393804541408958
 30
0.0
 11
328.94491948394784
 21
10.318150453604506
 31
0.0
  0
LINE
  5
47
330
17
100
AcDbEntity
  8
FoilLayer
100
AcDbLine
 10
328.94491948394784
 20
10.318150453604506
 30
0.0
 11
325.5816367672845
 21
11.275906459011939
 31
0.0
  0
LINE
  5
48
330
17
100
AcDbEntity
  8
FoilLayer
100
AcDbLine
 10
325.5816367672845
 20
11.275906459011939
 30
0.0
 11
322.0680086311677
 21
12.278209255368557
 31
0.0
  0
LINE
  5
49
330
17
100
AcDbEntity
  8
FoilLayer
100
AcDbLine
 10
322.0680086311677
 20
12.278209255368557
 30
0.0
 11
318.409603424466
 21
13.31392214493706
 31
0.0
  0
LINE
  5
4A
330
17
100
AcDbEntity
  8
FoilLayer
100
AcDbLine
 10
318.409603424466
 20
13.31392214493706
 30
0.0
 11
314.61755784491686
 21
14.394181825454748
 31
0.0
  0
LINE
  5
4B
330
17
100
AcDbEntity
  8
FoilLayer
100
AcDbLine
 10
314.61755784491686
 20
14.394181825454748
 30
0.0
 11
310.6918718925201
 21
15.502283250315674
 31
0.0
  0
LINE
  5
4C
330
17
100
AcDbEntity
  8
FoilLayer
100
AcDbLine
 10
310.6918718925201
 20
15.502283250315674
 30
0.0
 11
306.62697721840715
 21
16.649363117257135
 31
0.0
  0
LINE
  5
4D
330
17
100
AcDbEntity
  8
FoilLayer
100
AcDbLine
 10
306.62697721840715
 20
16.649363117257135
 30
0.0
 11
302.4395788691839
 21
17.829853077410483
 31
0.0
  0
LINE
  5
4E
330
17
100
AcDbEntity
  8
FoilLayer
100
AcDbLine
 10
302.4395788691839
 20
17.829853077410483
 30
0.0
 11
298.1296768448505
 21
19.049321479644366
 31
0.0
  0
LINE
  5
4F
330
17
100
AcDbEntity
  8
FoilLayer
100
AcDbLine
 10
298.1296768448505
 20
19.049321479644366
 30
0.0
 11
293.70840784314413
 21
20.296631626221487
 31
0.0
  0
LINE
  5
50
330
17
100
AcDbEntity
  8
FoilLayer
100
AcDbLine
 10
293.70840784314413
 20
20.296631626221487
 30
0.0
 11
289.1757718640647
 21
21.5773518660105
 31
0.0
  0
LINE
  5
51
330
17
100
AcDbEntity
  8
FoilLayer
100
AcDbLine
 10
289.1757718640647
 20
21.5773518660105
 30
0.0
 11
284.53176890761233
 21
22.8803455012741
 31
0.0
  0
LINE
  5
52
330
17
100
AcDbEntity
  8
FoilLayer
100
AcDbLine
 10
284.53176890761233
 20
22.8803455012741
 30
0.0
 11
279.7763989737871
 21
24.211180880880942
 31
0.0
  0
LINE
  5
53
330
17
100
AcDbEntity
  8
FoilLayer
100
AcDbLine
 10
279.7763989737871
 20
24.211180880880942
 30
0.0
 11
274.9263671091948
 21
25.56985800483102
 31
0.0
  0
LINE
  5
54
330
17
100
AcDbEntity
  8
FoilLayer
100
AcDbLine
 10
274.9263671091948
 20
25.56985800483102
 30
0.0
 11
269.98724166270415
 21
26.95637687312434
 31
0.0
  0
LINE
  5
55
330
17
100
AcDbEntity
  8
FoilLayer
100
AcDbLine
 10
269.98724166270415
 20
26.95637687312434
 30
0.0
 11
264.96459098318377
 21
28.359600788023606
 31
0.0
  0
LINE
  5
56
330
17
100
AcDbEntity
  8
FoilLayer
100
AcDbLine
 10
264.96459098318377
 20
28.359600788023606
 30
0.0
 11
259.852846721765
 21
29.773961400660166
 31
0.0
  0
LINE
  5
57
330
17
100
AcDbEntity
  8
FoilLayer
100
AcDbLine
 10
259.852846721765
 20
29.773961400660166
 30
0.0
 11
254.65757722731655
 21
31.205027059902672
 31
0.0
  0
LINE
  5
58
330
17
100
AcDbEntity
  8
FoilLayer
100
AcDbLine
 10
254.65757722731655
 20
31.205027059902672
 30
0.0
 11
249.38435084870702
 21
32.65279776575112
 31
0.0
  0
LINE
  5
59
330
17
100
AcDbEntity
  8
FoilLayer
100
AcDbLine
 10
249.38435084870702
 20
32.65279776575112
 30
0.0
 11
244.04430428367374
 21
34.11727351820551
 31
0.0
  0
LINE
  5
5A
330
17
100
AcDbEntity
  8
FoilLayer
100
AcDbLine
 10
244.04430428367374
 20
34.11727351820551
 30
0.0
 11
238.6430058810853
 21
35.5928859683972
 31
0.0
  0
LINE
  5
5B
330
17
100
AcDbEntity
  8
FoilLayer
100
AcDbLine
 10
238.6430058810853
 20
35.5928859683972
 30
0.0
 11
233.18602398981034
 21
37.05736172085158
 31
0.0
  0
LINE
  5
5C
330
17
100
AcDbEntity
  8
FoilLayer
100
AcDbLine
 10
233.18602398981034
 20
37.05736172085158
 30
0.0
 11
227.66779026098033
 21
38.52183747330597
 31
0.0
  0
LINE
  5
5D
330
17
100
AcDbEntity
  8
FoilLayer
100
AcDbLine
 10
227.66779026098033
 20
38.52183747330597
 30
0.0
 11
222.72727272727252
 21
39.818600059498735
 31
0.0
  0
LINE
  5
5E
330
17
100
AcDbEntity
  8
FoilLayer
100
AcDbLine
 10
222.72727272727252
 20
39.818600059498735
 30
0.0
 11
222.21952162809924
 21
37.88412627541989
 31
0.0
  0
LINE
  5
5F
330
17
100
AcDbEntity
  8
FoilLayer
100
AcDbLine
 10
222.21952162809924
 20
37.88412627541989
 30
0.0
 11
221.58791086443517
 21
38.04992328188598
 31
0.0
  0
LINE
  5
60
330
17
100
AcDbEntity
  8
FoilLayer
100
AcDbLine
 10
221.58791086443517
 20
38.04992328188598
 30
0.0
 11
215.97114135361602
 21
39.5014000180076
 31
0.0
  0
LINE
  5
61
330
17
100
AcDbEntity
  8
FoilLayer
100
AcDbLine
 10
215.97114135361602
 20
39.5014000180076
 30
0.0
 11
210.3115120362114
 21
40.941347329739415
 31
0.0
  0
LINE
  5
62
330
17
100
AcDbEntity
  8
FoilLayer
100
AcDbLine
 10
210.3115120362114
 20
40.941347329739415
 30
0.0
 11
204.6080936625592
 21
42.36444824073095
 31
0.0
  0
LINE
  5
63
330
17
100
AcDbEntity
  8
FoilLayer
100
AcDbLine
 10
204.6080936625592
 20
42.36444824073095
 30
0.0
 11
198.84715309987513
 21
43.771335729137654
 31
0.0
  0
LINE
  5
64
330
17
100
AcDbEntity
  8
FoilLayer
100
AcDbLine
 10
198.84715309987513
 20
43.771335729137654
 30
0.0
 11
193.04921767906848
 21
45.16240007871559
 31
0.0
  0
LINE
  5
65
330
17
100
AcDbEntity
  8
FoilLayer
100
AcDbLine
 10
193.04921767906848
 20
45.16240007871559
 30
0.0
 11
187.22361786201458
 21
46.54656318842722
 31
0.0
  0
LINE
  5
66
330
17
100
AcDbEntity
  8
FoilLayer
100
AcDbLine
 10
187.22361786201458
 20
46.54656318842722
 30
0.0
 11
181.38305228061307
 21
47.90254541730252
 31
0.0
  0
LINE
  5
67
330
17
100
AcDbEntity
  8
FoilLayer
100
AcDbLine
 10
181.38305228061307
 20
47.90254541730252
 30
0.0
 11
175.5279116974578
 21
49.224725890129626
 31
0.0
  0
LINE
  5
68
330
17
100
AcDbEntity
  8
FoilLayer
100
AcDbLine
 10
175.5279116974578
 20
49.224725890129626
 30
0.0
 11
169.65612191182498
 21
50.506853790962786
 31
0.0
  0
LINE
  5
69
330
17
100
AcDbEntity
  8
FoilLayer
100
AcDbLine
 10
169.65612191182498
 20
50.506853790962786
 30
0.0
 11
163.7514813179206
 21
51.7344973778391
 31
0.0
  0
LINE
  5
6A
330
17
100
AcDbEntity
  8
FoilLayer
100
AcDbLine
 10
163.7514813179206
 20
51.7344973778391
 30
0.0
 11
157.81231201361595
 21
52.9234899221954
 31
0.0
  0
LINE
  5
6B
330
17
100
AcDbEntity
  8
FoilLayer
100
AcDbLine
 10
157.81231201361595
 20
52.9234899221954
 30
0.0
 11
151.85883763629602
 21
54.07315384806181
 31
0.0
  0
LINE
  5
6C
330
17
100
AcDbEntity
  8
FoilLayer
100
AcDbLine
 10
151.85883763629602
 20
54.07315384806181
 30
0.0
 11
145.87827803934977
 21
55.1782688135145
 31
0.0
  0
LINE
  5
6D
330
17
100
AcDbEntity
  8
FoilLayer
100
AcDbLine
 10
145.87827803934977
 20
55.1782688135145
 30
0.0
 11
139.88718721977972
 21
56.23331076159464
 31
0.0
  0
LINE
  5
6E
330
17
100
AcDbEntity
  8
FoilLayer
100
AcDbLine
 10
139.88718721977972
 20
56.23331076159464
 30
0.0
 11
133.87349029120264
 21
57.23844364106926
 31
0.0
  0
LINE
  5
6F
330
17
100
AcDbEntity
  8
FoilLayer
100
AcDbLine
 10
133.87349029120264
 20
57.23844364106926
 30
0.0
 11
127.8433290797011
 21
58.19357226199217
 31
0.0
  0
LINE
  5
70
330
17
100
AcDbEntity
  8
FoilLayer
100
AcDbLine
 10
127.8433290797011
 20
58.19357226199217
 30
0.0
 11
121.79033463690774
 21
59.098815146902524
 31
0.0
  0
LINE
  5
71
330
17
100
AcDbEntity
  8
FoilLayer
100
AcDbLine
 10
121.79033463690774
 20
59.098815146902524
 30
0.0
 11
115.72596494545638
 21
59.9541148318559
 31
0.0
  0
LINE
  5
72
330
17
100
AcDbEntity
  8
FoilLayer
100
AcDbLine
 10
115.72596494545638
 20
59.9541148318559
 30
0.0
 11
109.65627222765016
 21
60.75940471511535
 31
0.0
  0
LINE
  5
73
330
17
100
AcDbEntity
  8
FoilLayer
100
AcDbLine
 10
109.65627222765016
 20
60.75940471511535
 30
0.0
 11
103.57522659718
 21
61.51474400295772
 31
0.0
  0
LINE
  5
74
330
17
100
AcDbEntity
  8
FoilLayer
100
AcDbLine
 10
103.57522659718
 20
61.51474400295772
 30
0.0
 11
97.49221433169589
 21
62.21971946872207
 31
0.0
  0
LINE
  5
75
330
17
100
AcDbEntity
  8
FoilLayer
100
AcDbLine
 10
97.49221433169589
 20
62.21971946872207
 30
0.0
 11
91.40006802393748
 21
62.863988652117406
 31
0.0
  0
LINE
  5
76
330
17
100
AcDbEntity
  8
FoilLayer
100
AcDbLine
 10
91.40006802393748
 20
62.863988652117406
 30
0.0
 11
85.30040257836475
 21
63.458452903994875
 31
0.0
  0
LINE
  5
77
330
17
100
AcDbEntity
  8
FoilLayer
100
AcDbLine
 10
85.30040257836475
 20
63.458452903994875
 30
0.0
 11
79.20422552688592
 21
64.00818895797642
 31
0.0
  0
LINE
  5
78
330
17
100
AcDbEntity
  8
FoilLayer
100
AcDbLine
 10
79.20422552688592
 20
64.00818895797642
 30
0.0
 11
73.11006792816914
 21
64.50266188169645
 31
0.0
  0
LINE
  5
79
330
17
100
AcDbEntity
  8
FoilLayer
100
AcDbLine
 10
73.11006792816914
 20
64.50266188169645
 30
0.0
 11
67.0249213606113
 21
64.95246478951886
 31
0.0
  0
LINE
  5
7A
330
17
100
AcDbEntity
  8
FoilLayer
100
AcDbLine
 10
67.0249213606113
 20
64.95246478951886
 30
0.0
 11
60.95671081861286
 21
65.34673005982197
 31
0.0
  0
LINE
  5
7B
330
17
100
AcDbEntity
  8
FoilLayer
100
AcDbLine
 10
60.95671081861286
 20
65.34673005982197
 30
0.0
 11
54.899730474959995
 21
65.68547012948991
 31
0.0
  0
LINE
  5
7C
330
17
100
AcDbEntity
  8
FoilLayer
100
AcDbLine
 10
54.899730474959995
 20
65.68547012948991
 30
0.0
 11
48.852069643269715
 21
65.9687602956895
 31
0.0
  0
LINE
  5
7D
330
17
100
AcDbEntity
  8
FoilLayer
100
AcDbLine
 10
48.852069643269715
 20
65.9687602956895
 30
0.0
 11
42.82116324399428
 21
66.20206648867331
 31
0.0
  0
LINE
  5
7E
330
17
100
AcDbEntity
  8
FoilLayer
100
AcDbLine
 10
42.82116324399428
 20
66.20206648867331
 30
0.0
 11
36.81258100814313
 21
66.38538977582743
 31
0.0
  0
LINE
  5
7F
330
17
100
AcDbEntity
  8
FoilLayer
100
AcDbLine
 10
36.81258100814313
 20
66.38538977582743
 30
0.0
 11
30.839519014625097
 21
66.51870336277794
 31
0.0
  0
LINE
  5
80
330
17
100
AcDbEntity
  8
FoilLayer
100
AcDbLine
 10
30.839519014625097
 20
66.51870336277794
 30
0.0
 11
24.88886156646933
 21
66.59650379283819
 31
0.0
  0
LINE
  5
81
330
17
100
AcDbEntity
  8
FoilLayer
100
AcDbLine
 10
24.88886156646933
 20
66.59650379283819
 30
0.0
 11
18.973688699788454
 21
66.61880655263549
 31
0.0
  0
LINE
  5
82
330
17
100
AcDbEntity
  8
FoilLayer
100
AcDbLine
 10
18.973688699788454
 20
66.61880655263549
 30
0.0
 11
13.075326041272177
 21
66.57998640484061
 31
0.0
  0
LINE
  5
83
330
17
100
AcDbEntity
  8
FoilLayer
100
AcDbLine
 10
13.075326041272177
 20
66.57998640484061
 30
0.0
 11
7.210625968416309
 21
66.49674091089535
 31
0.0
  0
LINE
  5
84
330
17
100
AcDbEntity
  8
FoilLayer
100
AcDbLine
 10
7.210625968416309
 20
66.49674091089535
 30
0.0
 11
1.3944825281994895
 21
66.36919156036029
 31
0.0
  0
LINE
  5
85
330
17
100
AcDbEntity
  8
FoilLayer
100
AcDbLine
 10
1.3944825281994895
 20
66.36919156036029
 30
0.0
 11
-4.384130597576444
 21
66.18608934924175
 31
0.0
  0
LINE
  5
86
330
17
100
AcDbEntity
  8
FoilLayer
100
AcDbLine
 10
-4.384130597576444
 20
66.18608934924175
 30
0.0
 11
-10.103127815903719
 21
65.95323474459778
 31
0.0
  0
LINE
  5
87
330
17
100
AcDbEntity
  8
FoilLayer
100
AcDbLine
 10
-10.103127815903719
 20
65.95323474459778
 30
0.0
 11
-15.786673658341726
 21
65.65915226882035
 31
0.0
  0
LINE
  5
88
330
17
100
AcDbEntity
  8
FoilLayer
100
AcDbLine
 10
-15.786673658341726
 20
65.65915226882035
 30
0.0
 11
-21.4254118856864
 21
65.3151440417548
 31
0.0
  0
LINE
  5
89
330
17
100
AcDbEntity
  8
FoilLayer
100
AcDbLine
 10
-21.4254118856864
 20
65.3151440417548
 30
0.0
 11
-27.02085216700513
 21
64.92109755700221
 31
0.0
  0
LINE
  5
8A
330
17
100
AcDbEntity
  8
FoilLayer
100
AcDbLine
 10
-27.02085216700513
 20
64.92109755700221
 30
0.0
 11
-32.5545115392884
 21
64.48270472584983
 31
0.0
  0
LINE
  5
8B
330
17
100
AcDbEntity
  8
FoilLayer
100
AcDbLine
 10
-32.5545115392884
 20
64.48270472584983
 30
0.0
 11
-38.0171016538541
 21
64.00034730571086
 31
0.0
  0
LINE
  5
8C
330
17
100
AcDbEntity
  8
FoilLayer
100
AcDbLine
 10
-38.0171016538541
 20
64.00034730571086
 30
0.0
 11
-43.416198360152805
 21
63.4628071066137
 31
0.0
  0
LINE
  5
8D
330
17
100
AcDbEntity
  8
FoilLayer
100
AcDbLine
 10
-43.416198360152805
 20
63.4628071066137
 30
0.0
 11
-48.7651018186655
 21
62.86364427060716
 31
0.0
  0
LINE
  5
8E
330
17
100
AcDbEntity
  8
FoilLayer
100
AcDbLine
 10
-48.7651018186655
 20
62.86364427060716
 30
0.0
 11
-54.05210585952574
 21
62.22020410738834
 31
0.0
  0
LINE
  5
8F
330
17
100
AcDbEntity
  8
FoilLayer
100
AcDbLine
 10
-54.05210585952574
 20
62.22020410738834
 30
0.0
 11
-59.271862108912075
 21
61.53247562660043
 31
0.0
  0
LINE
  5
90
330
17
100
AcDbEntity
  8
FoilLayer
100
AcDbLine
 10
-59.271862108912075
 20
61.53247562660043
 30
0.0
 11
-64.42582991685214
 21
60.80025067659469
 31
0.0
  0
LINE
  5
91
330
17
100
AcDbEntity
  8
FoilLayer
100
AcDbLine
 10
-64.42582991685214
 20
60.80025067659469
 30
0.0
 11
-69.49671785711477
 21
60.03007025003141
 31
0.0
  0
LINE
  5
92
330
17
100
AcDbEntity
  8
FoilLayer
100
AcDbLine
 10
-69.49671785711477
 20
60.03007025003141
 30
0.0
 11
-74.48417812594482
 21
59.21006097706347
 31
0.0
  0
LINE
  5
93
330
17
100
AcDbEntity
  8
FoilLayer
100
AcDbLine
 10
-74.48417812594482
 20
59.21006097706347
 30
0.0
 11
-79.40086692180903
 21
58.339933599052074
 31
0.0
  0
LINE
  5
94
330
17
100
AcDbEntity
  8
FoilLayer
100
AcDbLine
 10
-79.40086692180903
 20
58.339933599052074
 30
0.0
 11
-84.24375886440151
 21
57.42580782205428
 31
0.0
  0
LINE
  5
95
330
17
100
AcDbEntity
  8
FoilLayer
100
AcDbLine
 10
-84.24375886440151
 20
57.42580782205428
 30
0.0
 11
-89.00467734557127
 21
56.46710543941988
 31
0.0
  0
LINE
  5
96
330
17
100
AcDbEntity
  8
FoilLayer
100
AcDbLine
 10
-89.00467734557127
 20
56.46710543941988
 30
0.0
 11
-93.68317109595807
 21
55.46944272342229
 31
0.0
  0
LINE
  5
97
330
17
100
AcDbEntity
  8
FoilLayer
100
AcDbLine
 10
-93.68317109595807
 20
55.46944272342229
 30
0.0
 11
-98.26854960760693
 21
54.43956555517489
 31
0.0
  0
LINE
  5
98
330
17
100
AcDbEntity
  8
FoilLayer
100
AcDbLine
 10
-98.26854960760693
 20
54.43956555517489
 30
0.0
 11
-102.74995212352742
 21
53.37200318760037
 31
0.0
  0
LINE
  5
99
330
17
100
AcDbEntity
  8
FoilLayer
100
AcDbLine
 10
-102.74995212352742
 20
53.37200318760037
 30
0.0
 11
-107.14874609256212
 21
52.25453896479518
 31
0.0
  0
LINE
  5
9A
330
17
100
AcDbEntity
  8
FoilLayer
100
AcDbLine
 10
-107.14874609256212
 20
52.25453896479518
 30
0.0
 11
-111.45994819065145
 21
51.09253710513528
 31
0.0
  0
LINE
  5
9B
330
17
100
AcDbEntity
  8
FoilLayer
100
AcDbLine
 10
-111.45994819065145
 20
51.09253710513528
 30
0.0
 11
-115.6869192261422
 21
49.890503496438214
 31
0.0
  0
LINE
  5
9C
330
17
100
AcDbEntity
  8
FoilLayer
100
AcDbLine
 10
-115.6869192261422
 20
49.890503496438214
 30
0.0
 11
-119.80638508632322
 21
48.668726383106595
 31
0.0
  0
LINE
  5
9D
330
17
100
AcDbEntity
  8
FoilLayer
100
AcDbLine
 10
-119.80638508632322
 20
48.668726383106595
 30
0.0
 11
-123.83105976972406
 21
47.408495849503716
 31
0.0
  0
LINE
  5
9E
330
17
100
AcDbEntity
  8
FoilLayer
100
AcDbLine
 10
-123.83105976972406
 20
47.408495849503716
 30
0.0
 11
-127.75050005920654
 21
46.115153354169585
 31
0.0
  0
LINE
  5
9F
330
17
100
AcDbEntity
  8
FoilLayer
100
AcDbLine
 10
-127.75050005920654
 20
46.115153354169585
 30
0.0
 11
-131.57252123725078
 21
44.78988854870231
 31
0.0
  0
LINE
  5
A0
330
17
100
AcDbEntity
  8
FoilLayer
100
AcDbLine
 10
-131.57252123725078
 20
44.78988854870231
 30
0.0
 11
-135.29192938918365
 21
43.43058205065989
 31
0.0
  0
LINE
  5
A1
330
17
100
AcDbEntity
  8
FoilLayer
100
AcDbLine
 10
-135.29192938918365
 20
43.43058205065989
 30
0.0
 11
-138.91619567247972
 21
42.04411019030591
 31
0.0
  0
LINE
  5
A2
330
17
100
AcDbEntity
  8
FoilLayer
100
AcDbLine
 10
-138.91619567247972
 20
42.04411019030591
 30
0.0
 11
-142.432408527057
 21
40.63681995014136
 31
0.0
  0
LINE
  5
A3
330
17
100
AcDbEntity
  8
FoilLayer
100
AcDbLine
 10
-142.432408527057
 20
40.63681995014136
 30
0.0
 11
-145.83588996781978
 21
39.20846292782694
 31
0.0
  0
LINE
  5
A4
330
17
100
AcDbEntity
  8
FoilLayer
100
AcDbLine
 10
-145.83588996781978
 20
39.20846292782694
 30
0.0
 11
-149.12399361731042
 21
37.7603661452763
 31
0.0
  0
LINE
  5
A5
330
17
100
AcDbEntity
  8
FoilLayer
100
AcDbLine
 10
-149.12399361731042
 20
37.7603661452763
 30
0.0
 11
-152.30569722324952
 21
36.28288539300916
 31
0.0
  0
LINE
  5
A6
330
17
100
AcDbEntity
  8
FoilLayer
100
AcDbLine
 10
-152.30569722324952
 20
36.28288539300916
 30
0.0
 11
-155.37762859549667
 21
34.791391629874965
 31
0.0
  0
LINE
  5
A7
330
17
100
AcDbEntity
  8
FoilLayer
100
AcDbLine
 10
-155.37762859549667
 20
34.791391629874965
 30
0.0
 11
-158.34744036336417
 21
33.2765363889263
 31
0.0
  0
LINE
  5
A8
330
17
100
AcDbEntity
  8
FoilLayer
100
AcDbLine
 10
-158.34744036336417
 20
33.2765363889263
 30
0.0
 11
-161.19329132735896
 21
31.760761294692774
 31
0.0
  0
LINE
  5
A9
330
17
100
AcDbEntity
  8
FoilLayer
100
AcDbLine
 10
-161.19329132735896
 20
31.760761294692774
 30
0.0
 11
-163.9268540139546
 21
30.22666442055411
 31
0.0
  0
LINE
  5
AA
330
17
100
AcDbEntity
  8
FoilLayer
100
AcDbLine
 10
-163.9268540139546
 20
30.22666442055411
 30
0.0
 11
-166.5267682431262
 21
28.70036091397795
 31
0.0
  0
LINE
  5
AB
330
17
100
AcDbEntity
  8
FoilLayer
100
AcDbLine
 10
-166.5267682431262
 20
28.70036091397795
 30
0.0
 11
-169.01141814677848
 21
27.15234176703204
 31
0.0
  0
LINE
  5
AC
330
17
100
AcDbEntity
  8
FoilLayer
100
AcDbLine
 10
-169.01141814677848
 20
27.15234176703204
 30
0.0
 11
-171.3769929992215
 21
25.59241673909285
 31
0.0
  0
LINE
  5
AD
330
17
100
AcDbEntity
  8
FoilLayer
100
AcDbLine
 10
-171.3769929992215
 20
25.59241673909285
 30
0.0
 11
-173.63924155701497
 21
24.020990214987798
 31
0.0
  0
LINE
  5
AE
330
17
100
AcDbEntity
  8
FoilLayer
100
AcDbLine
 10
-173.63924155701497
 20
24.020990214987798
 30
0.0
 11
-175.77829835262443
 21
22.461277441693365
 31
0.0
  0
LINE
  5
AF
330
17
100
AcDbEntity
  8
FoilLayer
100
AcDbLine
 10
-175.77829835262443
 20
22.461277441693365
 30
0.0
 11
-177.78882935048944
 21
20.90943513394842
 31
0.0
  0
LINE
  5
B0
330
17
100
AcDbEntity
  8
FoilLayer
100
AcDbLine
 10
-177.78882935048944
 20
20.90943513394842
 30
0.0
 11
-179.6668225510866
 21
19.37403706979888
 31
0.0
  0
LINE
  5
B1
330
17
100
AcDbEntity
  8
FoilLayer
100
AcDbLine
 10
-179.6668225510866
 20
19.37403706979888
 30
0.0
 11
-181.41922864508422
 21
17.834200001054672
 31
0.0
  0
LINE
  5
B2
330
17
100
AcDbEntity
  8
FoilLayer
100
AcDbLine
 10
-181.41922864508422
 20
17.834200001054672
 30
0.0
 11
-183.05433167191046
 21
16.292591292074526
 31
0.0
  0
LINE
  5
B3
330
17
100
AcDbEntity
  8
FoilLayer
100
AcDbLine
 10
-183.05433167191046
 20
16.292591292074526
 30
0.0
 11
-184.5676475726499
 21
14.770465315152281
 31
0.0
  0
LINE
  5
B4
330
17
100
AcDbEntity
  8
FoilLayer
100
AcDbLine
 10
-184.5676475726499
 20
14.770465315152281
 30
0.0
 11
-185.96349378869468
 21
13.257846468838382
 31
0.0
  0
LINE
  5
B5
330
17
100
AcDbEntity
  8
FoilLayer
100
AcDbLine
 10
-185.96349378869468
 20
13.257846468838382
 30
0.0
 11
-187.2322932610725
 21
11.78417124845138
 31
0.0
  0
LINE
  5
B6
330
17
100
AcDbEntity
  8
FoilLayer
100
AcDbLine
 10
-187.2322932610725
 20
11.78417124845138
 30
0.0
 11
-188.37709595327047
 21
10.328301396049477
 31
0.0
  0
LINE
  5
B7
330
17
100
AcDbEntity
  8
FoilLayer
100
AcDbLine
 10
-188.37709595327047
 20
10.328301396049477
 30
0.0
 11
-189.38947987781523
 21
8.919562749197464
 31
0.0
  0
LINE
  5
B8
330
17
100
AcDbEntity
  8
FoilLayer
100
AcDbLine
 10
-189.38947987781523
 20
8.919562749197464
 30
0.0
 11
-190.26922851701696
 21
7.5570303657321505
 31
0.0
  0
LINE
  5
B9
330
17
100
AcDbEntity
  8
FoilLayer
100
AcDbLine
 10
-190.26922851701696
 20
7.5570303657321505
 30
0.0
 11
-191.0286073267605
 21
6.211518050816856
 31
0.0
  0
LINE
  5
BA
330
17
100
AcDbEntity
  8
FoilLayer
100
AcDbLine
 10
-191.0286073267605
 20
6.211518050816856
 30
0.0
 11
-191.63447128034915
 21
4.986182686927724
 31
0.0
  0
LINE
  5
BB
330
17
100
AcDbEntity
  8
FoilLayer
100
AcDbLine
 10
-191.63447128034915
 20
4.986182686927724
 30
0.0
 11
-192.15990485582756
 21
3.6314158589923
 31
0.0
  0
LINE
  5
BC
330
17
100
AcDbEntity
  8
FoilLayer
100
AcDbLine
 10
-192.15990485582756
 20
3.6314158589923
 30
0.0
 11
-192.5049954805535
 21
2.689059456230631
 31
0.0
  0
LINE
  5
BD
330
17
100
AcDbEntity
  8
FoilLayer
100
AcDbLine
 10
-192.5049954805535
 20
2.689059456230631
 30
0.0
 11
-192.75619815488542
 21
1.435981079592205
 31
0.0
  0
LINE
  5
BE
330
17
100
AcDbEntity
  8
FoilLayer
100
AcDbLine
 10
-192.75619815488542
 20
1.435981079592205
 30
0.0
 11
-192.8863636363634
 21
0.16705046605943613
 31
0.0
  0
LINE
  5
BF
330
17
100
AcDbEntity
  8
FoilLayer
100
AcDbLine
 10
-192.8863636363634
 20
0.16705046605943613
 30
0.0
 11
-192.89444276803263
 21
-0.0674448991212572
 31
0.0
  0
LINE
  5
C0
330
17
100
AcDbEntity
  8
FoilLayer
100
AcDbLine
 10
-192.89444276803263
 20
-0.0674448991212572
 30
0.0
 11
-192.8058111069343
 21
-1.153478092846048
 31
0.0
  0
LINE
  5
C1
330
17
100
AcDbEntity
  8
FoilLayer
100
AcDbLine
 10
-192.8058111069343
 20
-1.153478092846048
 30
0.0
 11
-192.57767837113363
 21
-1.927117158194466
 31
0.0
  0
LINE
  5
C2
330
17
100
AcDbEntity
  8
FoilLayer
100
AcDbLine
 10
-192.57767837113363
 20
-1.927117158194466
 30
0.0
 11
-192.22844701380635
 21
-2.6791668731263334
 31
0.0
  0
LINE
  5
C3
330
17
100
AcDbEntity
  8
FoilLayer
100
AcDbLine
 10
-192.22844701380635
 20
-2.6791668731263334
 30
0.0
 11
-191.70075326505844
 21
-3.457821095068524
 31
0.0
  0
LINE
  5
C4
330
17
100
AcDbEntity
  8
FoilLayer
100
AcDbLine
 10
-191.70075326505844
 20
-3.457821095068524
 30
0.0
 11
-191.04231705099792
 21
-4.216908980137684
 31
0.0
  0
LINE
  5
C5
330
17
100
AcDbEntity
  8
FoilLayer
100
AcDbLine
 10
-191.04231705099792
 20
-4.216908980137684
 30
0.0
 11
-190.21839785163664
 21
-4.962035344001414
 31
0.0
  0
LINE
  5
C6
330
17
100
AcDbEntity
  8
FoilLayer
100
AcDbLine
 10
-190.21839785163664
 20
-4.962035344001414
 30
0.0
 11
-189.24376343230253
 21
-5.673044065281752
 31
0.0
  0
LINE
  5
C7
330
17
100
AcDbEntity
  8
FoilLayer
100
AcDbLine
 10
-189.24376343230253
 20
-5.673044065281752
 30
0.0
 11
-188.08245941694395
 21
-6.350833161122438
 31
0.0
  0
LINE
  5
C8
330
17
100
AcDbEntity
  8
FoilLayer
100
AcDbLine
 10
-188.08245941694395
 20
-6.350833161122438
 30
0.0
 11
-186.68515754015348
 21
-7.006596043107804
 31
0.0
  0
LINE
  5
C9
330
17
100
AcDbEntity
  8
FoilLayer
100
AcDbLine
 10
-186.68515754015348
 20
-7.006596043107804
 30
0.0
 11
-185.0725526897527
 21
-7.6504259627489155
 31
0.0
  0
LINE
  5
CA
330
17
100
AcDbEntity
  8
FoilLayer
100
AcDbLine
 10
-185.0725526897527
 20
-7.6504259627489155
 30
0.0
 11
-183.26914815607532
 21
-8.281400921489949
 31
0.0
  0
LINE
  5
CB
330
17
100
AcDbEntity
  8
FoilLayer
100
AcDbLine
 10
-183.26914815607532
 20
-8.281400921489949
 30
0.0
 11
-181.34110198446237
 21
-8.886831972085476
 31
0.0
  0
LINE
  5
CC
330
17
100
AcDbEntity
  8
FoilLayer
100
AcDbLine
 10
-181.34110198446237
 20
-8.886831972085476
 30
0.0
 11
-179.24696601552344
 21
-9.446916706361073
 31
0.0
  0
LINE
  5
CD
330
17
100
AcDbEntity
  8
FoilLayer
100
AcDbLine
 10
-179.24696601552344
 20
-9.446916706361073
 30
0.0
 11
-176.96779249016055
 21
-9.959013890238419
 31
0.0
  0
LINE
  5
CE
330
17
100
AcDbEntity
  8
FoilLayer
100
AcDbLine
 10
-176.96779249016055
 20
-9.959013890238419
 30
0.0
 11
-174.50181091996694
 21
-10.441667103493668
 31
0.0
  0
LINE
  5
CF
330
17
100
AcDbEntity
  8
FoilLayer
100
AcDbLine
 10
-174.50181091996694
 20
-10.441667103493668
 30
0.0
 11
-171.8595788298363
 21
-10.90343699241774
 31
0.0
  0
LINE
  5
D0
330
17
100
AcDbEntity
  8
FoilLayer
100
AcDbLine
 10
-171.8595788298363
 20
-10.90343699241774
 30
0.0
 11
-169.08439899869109
 21
-11.336455738386851
 31
0.0
  0
LINE
  5
D1
330
17
100
AcDbEntity
  8
FoilLayer
100
AcDbLine
 10
-169.08439899869109
 20
-11.336455738386851
 30
0.0
 11
-166.15503477496958
 21
-11.72095296237681
 31
0.0
  0
LINE
  5
D2
330
17
100
AcDbEntity
  8
FoilLayer
100
AcDbLine
 10
-166.15503477496958
 20
-11.72095296237681
 30
0.0
 11
-163.0600626839735
 21
-12.057185336765293
 31
0.0
  0
LINE
  5
D3
330
17
100
AcDbEntity
  8
FoilLayer
100
AcDbLine
 10
-163.0600626839735
 20
-12.057185336765293
 30
0.0
 11
-159.77915137164575
 21
-12.356065770530018
 31
0.0
  0
LINE
  5
D4
330
17
100
AcDbEntity
  8
FoilLayer
100
AcDbLine
 10
-159.77915137164575
 20
-12.356065770530018
 30
0.0
 11
-156.33427420869305
 21
-12.633072759200552
 31
0.0
  0
LINE
  5
D5
330
17
100
AcDbEntity
  8
FoilLayer
100
AcDbLine
 10
-156.33427420869305
 20
-12.633072759200552
 30
0.0
 11
-152.75172662399916
 21
-12.887556185614043
 31
0.0
  0
LINE
  5
D6
330
17
100
AcDbEntity
  8
FoilLayer
100
AcDbLine
 10
-152.75172662399916
 20
-12.887556185614043
 30
0.0
 11
-149.04264970378864
 21
-13.103086076496927
 31
0.0
  0
LINE
  5
D7
330
17
100
AcDbEntity
  8
FoilLayer
100
AcDbLine
 10
-149.04264970378864
 20
-13.103086076496927
 30
0.0
 11
-145.17830339180165
 21
-13.263764422066581
 31
0.0
  0
LINE
  5
D8
330
17
100
AcDbEntity
  8
FoilLayer
100
AcDbLine
 10
-145.17830339180165
 20
-13.263764422066581
 30
0.0
 11
-141.1595376028266
 21
-13.385796875952058
 31
0.0
  0
LINE
  5
D9
330
17
100
AcDbEntity
  8
FoilLayer
100
AcDbLine
 10
-141.1595376028266
 20
-13.385796875952058
 30
0.0
 11
-136.9670037246063
 21
-13.474678758179746
 31
0.0
  0
LINE
  5
DA
330
17
100
AcDbEntity
  8
FoilLayer
100
AcDbLine
 10
-136.9670037246063
 20
-13.474678758179746
 30
0.0
 11
-132.64761197179428
 21
-13.54130046243182
 31
0.0
  0
LINE
  5
DB
330
17
100
AcDbEntity
  8
FoilLayer
100
AcDbLine
 10
-132.64761197179428
 20
-13.54130046243182
 30
0.0
 11
-128.19594476081022
 21
-13.569116627746093
 31
0.0
  0
LINE
  5
DC
330
17
100
AcDbEntity
  8
FoilLayer
100
AcDbLine
 10
-128.19594476081022
 20
-13.569116627746093
 30
0.0
 11
-123.61501390434672
 21
-13.552564667524546
 31
0.0
  0
LINE
  5
DD
330
17
100
AcDbEntity
  8
FoilLayer
100
AcDbLine
 10
-123.61501390434672
 20
-13.552564667524546
 30
0.0
 11
-118.87578076564482
 21
-13.491477049171193
 31
0.0
  0
LINE
  5
DE
330
17
100
AcDbEntity
  8
FoilLayer
100
AcDbLine
 10
-118.87578076564482
 20
-13.491477049171193
 30
0.0
 11
-113.98125583317707
 21
-13.402493593027346
 31
0.0
  0
LINE
  5
DF
330
17
100
AcDbEntity
  8
FoilLayer
100
AcDbLine
 10
-113.98125583317707
 20
-13.402493593027346
 30
0.0
 11
-108.95179484058346
 21
-13.296927194580896
 31
0.0
  0
LINE
  5
E0
330
17
100
AcDbEntity
  8
FoilLayer
100
AcDbLine
 10
-108.95179484058346
 20
-13.296927194580896
 30
0.0
 11
-103.81674098987419
 21
-13.163754818605986
 31
0.0
  0
LINE
  5
E1
330
17
100
AcDbEntity
  8
FoilLayer
100
AcDbLine
 10
-103.81674098987419
 20
-13.163754818605986
 30
0.0
 11
-98.55426178504479
 21
-12.98595974205441
 31
0.0
  0
LINE
  5
E2
330
17
100
AcDbEntity
  8
FoilLayer
100
AcDbLine
 10
-98.55426178504479
 20
-12.98595974205441
 30
0.0
 11
-93.16302878398392
 21
-12.774782191312744
 31
0.0
  0
LINE
  5
E3
330
17
100
AcDbEntity
  8
FoilLayer
100
AcDbLine
 10
-93.16302878398392
 20
-12.774782191312744
 30
0.0
 11
-87.62248819182105
 21
-12.52977336138741
 31
0.0
  0
LINE
  5
E4
330
17
100
AcDbEntity
  8
FoilLayer
100
AcDbLine
 10
-87.62248819182105
 20
-12.52977336138741
 30
0.0
 11
-81.9600756144229
 21
-12.279479787233932
 31
0.0
  0
LINE
  5
E5
330
17
100
AcDbEntity
  8
FoilLayer
100
AcDbLine
 10
-81.9600756144229
 20
-12.279479787233932
 30
0.0
 11
-76.19910979751178
 21
-12.007017109391015
 31
0.0
  0
LINE
  5
E6
330
17
100
AcDbEntity
  8
FoilLayer
100
AcDbLine
 10
-76.19910979751178
 20
-12.007017109391015
 30
0.0
 11
-70.34104361571653
 21
-11.706918713390289
 31
0.0
  0
LINE
  5
E7
330
17
100
AcDbEntity
  8
FoilLayer
100
AcDbLine
 10
-70.34104361571653
 20
-11.706918713390289
 30
0.0
 11
-64.36198265516816
 21
-11.367653777129691
 31
0.0
  0
LINE
  5
E8
330
17
100
AcDbEntity
  8
FoilLayer
100
AcDbLine
 10
-64.36198265516816
 20
-11.367653777129691
 30
0.0
 11
-58.256820052103194
 21
-11.000008398992874
 31
0.0
  0
LINE
  5
E9
330
17
100
AcDbEntity
  8
FoilLayer
100
AcDbLine
 10
-58.256820052103194
 20
-11.000008398992874
 30
0.0
 11
-55.79978611027812
 21
-10.854830028213593
 31
0.0
  0
LINE
  5
EA
330
17
100
AcDbEntity
  8
FoilLayer
100
AcDbLine
 10
-55.79978611027812
 20
-10.854830028213593
 30
0.0
 11
-55.6818181818181
 21
-12.851347888853676
 31
0.0
  0
LINE
  5
EB
330
17
100
AcDbEntity
  8
FoilLayer
100
AcDbLine
 10
-55.6818181818181
 20
-12.851347888853676
 30
0.0
 11
-51.91900643382928
 21
-12.629015234093371
 31
0.0
  0
LINE
  5
EC
330
17
100
AcDbEntity
  8
FoilLayer
100
AcDbLine
 10
-51.91900643382928
 20
-12.629015234093371
 30
0.0
 11
-45.61563551451991
 21
-12.250367511025317
 31
0.0
  0
LINE
  5
ED
330
17
100
AcDbEntity
  8
FoilLayer
100
AcDbLine
 10
-45.61563551451991
 20
-12.250367511025317
 30
0.0
 11
-39.22873936218079
 21
-11.84944639248267
 31
0.0
  0
LINE
  5
EE
330
17
100
AcDbEntity
  8
FoilLayer
100
AcDbLine
 10
-39.22873936218079
 20
-11.84944639248267
 30
0.0
 11
-32.74718127907465
 21
-11.409546831859487
 31
0.0
  0
LINE
  5
EF
330
17
100
AcDbEntity
  8
FoilLayer
100
AcDbLine
 10
-32.74718127907465
 20
-11.409546831859487
 30
0.0
 11
-26.165392916332877
 21
-10.958510573499009
 31
0.0
  0
LINE
  5
F0
330
17
100
AcDbEntity
  8
FoilLayer
100
AcDbLine
 10
-26.165392916332877
 20
-10.958510573499009
 30
0.0
 11
-19.488942622824084
 21
-10.507474315138532
 31
0.0
  0
LINE
  5
F1
330
17
100
AcDbEntity
  8
FoilLayer
100
AcDbLine
 10
-19.488942622824084
 20
-10.507474315138532
 30
0.0
 11
-12.740103794022872
 21
-10.062006405646702
 31
0.0
  0
LINE
  5
F2
330
17
100
AcDbEntity
  8
FoilLayer
100
AcDbLine
 10
-12.740103794022872
 20
-10.062006405646702
 30
0.0
 11
-5.930013127666513
 21
-9.588696751811634
 31
0.0
  0
LINE
  5
F3
330
17
100
AcDbEntity
  8
FoilLayer
100
AcDbLine
 10
-5.930013127666513
 20
-9.588696751811634
 30
0.0
 11
0.9524660739822366
 21
-9.098682051370623
 31
0.0
  0
LINE
  5
F4
330
17
100
AcDbEntity
  8
FoilLayer
100
AcDbLine
 10
0.9524660739822366
 20
-9.098682051370623
 30
0.0
 11
7.912902159792083
 21
-8.603099002060961
 31
0.0
  0
LINE
  5
F5
330
17
100
AcDbEntity
  8
FoilLayer
100
AcDbLine
 10
7.912902159792083
 20
-8.603099002060961
 30
0.0
 11
14.940158432025697
 21
-8.1075159527513
 31
0.0
  0
LINE
  5
F6
330
17
100
AcDbEntity
  8
FoilLayer
100
AcDbLine
 10
14.940158432025697
 20
-8.1075159527513
 30
0.0
 11
22.02309819294581
 21
-7.623069601178936
 31
0.0
  0
LINE
  5
F7
330
17
100
AcDbEntity
  8
FoilLayer
100
AcDbLine
 10
22.02309819294581
 20
-7.623069601178936
 30
0.0
 11
29.139448047077764
 21
-7.127486551869275
 31
0.0
  0
LINE
  5
F8
330
17
100
AcDbEntity
  8
FoilLayer
100
AcDbLine
 10
29.139448047077764
 20
-7.127486551869275
 30
0.0
 11
36.305913041027566
 21
-6.615198455953671
 31
0.0
  0
LINE
  5
F9
330
17
100
AcDbEntity
  8
FoilLayer
100
AcDbLine
 10
36.305913041027566
 20
-6.615198455953671
 30
0.0
 11
43.528061523663865
 21
-6.102910360038067
 31
0.0
  0
LINE
  5
FA
330
17
100
AcDbEntity
  8
FoilLayer
100
AcDbLine
 10
43.528061523663865
 20
-6.102910360038067
 30
0.0
 11
50.79475679724936
 21
-5.601758961859759
 31
0.0
  0
LINE
  5
FB
330
17
100
AcDbEntity
  8
FoilLayer
100
AcDbLine
 10
50.79475679724936
 20
-5.601758961859759
 30
0.0
 11
58.08372546630943
 21
-5.111744261418746
 31
0.0
  0
LINE
  5
FC
330
17
100
AcDbEntity
  8
FoilLayer
100
AcDbLine
 10
58.08372546630943
 20
-5.111744261418746
 30
0.0
 11
65.38939918197536
 21
-4.616161212109085
 31
0.0
  0
LINE
  5
FD
330
17
100
AcDbEntity
  8
FoilLayer
100
AcDbLine
 10
65.38939918197536
 20
-4.616161212109085
 30
0.0
 11
72.71177794424739
 21
-4.115009813930777
 31
0.0
  0
LINE
  5
FE
330
17
100
AcDbEntity
  8
FoilLayer
100
AcDbLine
 10
72.71177794424739
 20
-4.115009813930777
 30
0.0
 11
80.07313514859982
 21
-3.613858415752468
 31
0.0
  0
LINE
  5
FF
330
17
100
AcDbEntity
  8
FoilLayer
100
AcDbLine
 10
80.07313514859982
 20
-3.613858415752468
 30
0.0
 11
87.45119739955828
 21
-3.1294120641801033
 31
0.0
  0
LINE
  5
100
330
17
100
AcDbEntity
  8
FoilLayer
100
AcDbLine
 10
87.45119739955828
 20
-3.1294120641801033
 30
0.0
 11
94.82369130164807
 21
-2.6672391080823306
 31
0.0
  0
LINE
  5
101
330
17
100
AcDbEntity
  8
FoilLayer
100
AcDbLine
 10
94.82369130164807
 20
-2.6672391080823306
 30
0.0
 11
102.1850485060005
 21
-2.205066151984557
 31
0.0
  0
LINE
  5
102
330
17
100
AcDbEntity
  8
FoilLayer
100
AcDbLine
 10
102.1850485060005
 20
-2.205066151984557
 30
0.0
 11
109.54083736148436
 21
-1.731756498149488
 31
0.0
  0
LINE
  5
103
330
17
100
AcDbEntity
  8
FoilLayer
100
AcDbLine
 10
109.54083736148436
 20
-1.731756498149488
 30
0.0
 11
116.90219456583685
 21
-1.2695835420517145
 31
0.0
  0
LINE
  5
104
330
17
100
AcDbEntity
  8
FoilLayer
100
AcDbLine
 10
116.90219456583685
 20
-1.2695835420517145
 30
0.0
 11
124.2524150724521
 21
-0.8296839814285328
 31
0.0
  0
LINE
  5
105
330
17
100
AcDbEntity
  8
FoilLayer
100
AcDbLine
 10
124.2524150724521
 20
-0.8296839814285328
 30
0.0
 11
131.574793834724
 21
-0.40092111854264667
 31
0.0
  0
LINE
  5
106
330
17
100
AcDbEntity
  8
FoilLayer
100
AcDbLine
 10
131.574793834724
 20
-0.40092111854264667
 30
0.0
 11
138.85262580604677
 21
0.022273395474591482
 31
0.0
  0
LINE
  5
107
330
17
100
AcDbEntity
  8
FoilLayer
100
AcDbLine
 10
138.85262580604677
 20
0.022273395474591482
 30
0.0
 11
146.10818438189494
 21
0.45103625836047756
 31
0.0
  0
LINE
  5
108
330
17
100
AcDbEntity
  8
FoilLayer
100
AcDbLine
 10
146.10818438189494
 20
0.45103625836047756
 30
0.0
 11
153.34146956226851
 21
0.868662423509068
 31
0.0
  0
LINE
  5
109
330
17
100
AcDbEntity
  8
FoilLayer
100
AcDbLine
 10
153.34146956226851
 20
0.868662423509068
 30
0.0
 11
160.5413446494302
 21
1.2640151931830668
 31
0.0
  0
LINE
  5
10A
330
17
100
AcDbEntity
  8
FoilLayer
100
AcDbLine
 10
160.5413446494302
 20
1.2640151931830668
 30
0.0
 11
167.6799678990368
 21
1.642662916251122
 31
0.0
  0
LINE
  5
10B
330
17
100
AcDbEntity
  8
FoilLayer
100
AcDbLine
 10
167.6799678990368
 20
1.642662916251122
 30
0.0
 11
174.7629076599569
 21
2.0213106393191773
 31
0.0
  0
LINE
  5
10C
330
17
100
AcDbEntity
  8
FoilLayer
100
AcDbLine
 10
174.7629076599569
 20
2.0213106393191773
 30
0.0
 11
181.80130062992777
 21
2.4055267112558805
 31
0.0
  0
LINE
  5
10D
330
17
100
AcDbEntity
  8
FoilLayer
100
AcDbLine
 10
181.80130062992777
 20
2.4055267112558805
 30
0.0
 11
188.79514680894954
 21
2.767469387717992
 31
0.0
  0
LINE
  5
10E
330
17
100
AcDbEntity
  8
FoilLayer
100
AcDbLine
 10
188.79514680894954
 20
2.767469387717992
 30
0.0
 11
195.73330949928481
 21
3.1015703198368647
 31
0.0
  0
LINE
  5
10F
330
17
100
AcDbEntity
  8
FoilLayer
100
AcDbLine
 10
195.73330949928481
 20
3.1015703198368647
 30
0.0
 11
202.59351530545894
 21
3.4189662053497933
 31
0.0
  0
LINE
  5
110
330
17
100
AcDbEntity
  8
FoilLayer
100
AcDbLine
 10
202.59351530545894
 20
3.4189662053497933
 30
0.0
 11
209.37576422747208
 21
3.736362090862722
 31
0.0
  0
LINE
  5
111
330
17
100
AcDbEntity
  8
FoilLayer
100
AcDbLine
 10
209.37576422747208
 20
3.736362090862722
 30
0.0
 11
216.09676131193004
 21
4.042621278638355
 31
0.0
  0
LINE
  5
112
330
17
100
AcDbEntity
  8
FoilLayer
100
AcDbLine
 10
216.09676131193004
 20
4.042621278638355
 30
0.0
 11
222.75093820996426
 21
4.321038722070749
 31
0.0
  0
LINE
  5
113
330
17
100
AcDbEntity
  8
FoilLayer
100
AcDbLine
 10
222.75093820996426
 20
4.321038722070749
 30
0.0
 11
229.32158987496877
 21
4.560477723422607
 31
0.0
  0
LINE
  5
114
330
17
100
AcDbEntity
  8
FoilLayer
100
AcDbLine
 10
229.32158987496877
 20
4.560477723422607
 30
0.0
 11
235.7975796092062
 21
4.772074980431225
 31
0.0
  0
LINE
  5
115
330
17
100
AcDbEntity
  8
FoilLayer
100
AcDbLine
 10
235.7975796092062
 20
4.772074980431225
 30
0.0
 11
242.16777071493937
 21
4.972535539702548
 31
0.0
  0
LINE
  5
116
330
17
100
AcDbEntity
  8
FoilLayer
100
AcDbLine
 10
242.16777071493937
 20
4.972535539702548
 30
0.0
 11
248.45443658764276
 21
5.145154354630633
 31
0.0
  0
LINE
  5
117
330
17
100
AcDbEntity
  8
FoilLayer
100
AcDbLine
 10
248.45443658764276
 20
5.145154354630633
 30
0.0
 11
254.64087218071063
 21
5.273226378609534
 31
0.0
  0
LINE
  5
118
330
17
100
AcDbEntity
  8
FoilLayer
100
AcDbLine
 10
254.64087218071063
 20
5.273226378609534
 30
0.0
 11
260.7048040986681
 21
5.356751611639252
 31
0.0
  0
LINE
  5
119
330
17
100
AcDbEntity
  8
FoilLayer
100
AcDbLine
 10
260.7048040986681
 20
5.356751611639252
 30
0.0
 11
266.62952729490945
 21
5.41243510032573
 31
0.0
  0
LINE
  5
11A
330
17
100
AcDbEntity
  8
FoilLayer
100
AcDbLine
 10
266.62952729490945
 20
5.41243510032573
 30
0.0
 11
272.4317468160405
 21
5.451413542406265
 31
0.0
  0
LINE
  5
11B
330
17
100
AcDbEntity
  8
FoilLayer
100
AcDbLine
 10
272.4317468160405
 20
5.451413542406265
 30
0.0
 11
278.1114626620614
 21
5.456981891274913
 31
0.0
  0
LINE
  5
11C
330
17
100
AcDbEntity
  8
FoilLayer
100
AcDbLine
 10
278.1114626620614
 20
5.456981891274913
 30
0.0
 11
283.651969786366
 21
5.418003449194377
 31
0.0
  0
LINE
  5
11D
330
17
100
AcDbEntity
  8
FoilLayer
100
AcDbLine
 10
283.651969786366
 20
5.418003449194377
 30
0.0
 11
289.03656314234854
 21
5.345614913901956
 31
0.0
  0
LINE
  5
11E
330
17
100
AcDbEntity
  8
FoilLayer
100
AcDbLine
 10
289.03656314234854
 20
5.345614913901956
 30
0.0
 11
294.2541060322716
 21
5.250952983134942
 31
0.0
  0
LINE
  5
11F
330
17
100
AcDbEntity
  8
FoilLayer
100
AcDbLine
 10
294.2541060322716
 20
5.250952983134942
 30
0.0
 11
299.32130350274116
 21
5.134017656893337
 31
0.0
  0
LINE
  5
120
330
17
100
AcDbEntity
  8
FoilLayer
100
AcDbLine
 10
299.32130350274116
 20
5.134017656893337
 30
0.0
 11
304.2325872048885
 21
4.989240586308492
 31
0.0
  0
LINE
  5
121
330
17
100
AcDbEntity
  8
FoilLayer
100
AcDbLine
 10
304.2325872048885
 20
4.989240586308492
 30
0.0
 11
308.9712520921079
 21
4.811053422511761
 31
0.0
  0
LINE
  5
122
330
17
100
AcDbEntity
  8
FoilLayer
100
AcDbLine
 10
308.9712520921079
 20
4.811053422511761
 30
0.0
 11
313.52616146666185
 21
4.605024514371789
 31
0.0
  0
LINE
  5
123
330
17
100
AcDbEntity
  8
FoilLayer
100
AcDbLine
 10
313.52616146666185
 20
4.605024514371789
 30
0.0
 11
317.89731532855035
 21
4.393427257363171
 31
0.0
  0
LINE
  5
124
330
17
100
AcDbEntity
  8
FoilLayer
100
AcDbLine
 10
317.89731532855035
 20
4.393427257363171
 30
0.0
 11
322.09585037551096
 21
4.15955660487996
 31
0.0
  0
LINE
  5
125
330
17
100
AcDbEntity
  8
FoilLayer
100
AcDbLine
 10
322.09585037551096
 20
4.15955660487996
 30
0.0
 11
326.110629909806
 21
3.903412556922158
 31
0.0
  0
LINE
  5
126
330
17
100
AcDbEntity
  8
FoilLayer
100
AcDbLine
 10
326.110629909806
 20
3.903412556922158
 30
0.0
 11
329.9193805359612
 21
3.6138584157524685
 31
0.0
  0
LINE
  5
127
330
17
100
AcDbEntity
  8
FoilLayer
100
AcDbLine
 10
329.9193805359612
 20
3.6138584157524685
 30
0.0
 11
333.5221022539764
 21
3.3187359257141313
 31
0.0
  0
LINE
  5
128
330
17
100
AcDbEntity
  8
FoilLayer
100
AcDbLine
 10
333.5221022539764
 20
3.3187359257141313
 30
0.0
 11
336.9132267149829
 21
3.023613435675794
 31
0.0
  0
LINE
  5
129
330
17
100
AcDbEntity
  8
FoilLayer
100
AcDbLine
 10
336.9132267149829
 20
3.023613435675794
 30
0.0
 11
340.1094589655868
 21
2.728490945637457
 31
0.0
  0
LINE
  5
12A
330
17
100
AcDbEntity
  8
FoilLayer
100
AcDbLine
 10
340.1094589655868
 20
2.728490945637457
 30
0.0
 11
343.09409395918203
 21
2.427800106730472
 31
0.0
  0
LINE
  5
12B
330
17
100
AcDbEntity
  8
FoilLayer
100
AcDbLine
 10
343.09409395918203
 20
2.427800106730472
 30
0.0
 11
345.86713169576865
 21
2.121540918954839
 31
0.0
  0
LINE
  5
12C
330
17
100
AcDbEntity
  8
FoilLayer
100
AcDbLine
 10
345.86713169576865
 20
2.121540918954839
 30
0.0
 11
348.42300382647807
 21
1.8208500800478538
 31
0.0
  0
LINE
  5
12D
330
17
100
AcDbEntity
  8
FoilLayer
100
AcDbLine
 10
348.42300382647807
 20
1.8208500800478538
 30
0.0
 11
350.7505736535729
 21
1.5257275900095166
 31
0.0
  0
LINE
  5
12E
330
17
100
AcDbEntity
  8
FoilLayer
100
AcDbLine
 10
350.7505736535729
 20
1.5257275900095166
 30
0.0
 11
352.86097787479036
 21
1.247310146577123
 31
0.0
  0
LINE
  5
12F
330
17
100
AcDbEntity
  8
FoilLayer
100
AcDbLine
 10
352.86097787479036
 20
1.247310146577123
 30
0.0
 11
354.74307979239336
 21
0.9911660986193209
 31
0.0
  0
LINE
  5
130
330
17
100
AcDbEntity
  8
FoilLayer
100
AcDbLine
 10
354.74307979239336
 20
0.9911660986193209
 30
0.0
 11
356.4135844529877
 21
0.7572954461361104
 31
0.0
  0
LINE
  5
131
330
17
100
AcDbEntity
  8
FoilLayer
100
AcDbLine
 10
356.4135844529877
 20
0.7572954461361104
 30
0.0
 11
357.8557868099675
 21
0.5512665379961392
 31
0.0
  0
LINE
  5
132
330
17
100
AcDbEntity
  8
FoilLayer
100
AcDbLine
 10
357.8557868099675
 20
0.5512665379961392
 30
0.0
 11
359.0863919099388
 21
0.3730793741994074
 31
0.0
  0
LINE
  5
133
330
17
100
AcDbEntity
  8
FoilLayer
100
AcDbLine
 10
359.0863919099388
 20
0.3730793741994074
 30
0.0
 11
360.094263055164
 21
0.22273395474591481
 31
0.0
  0
LINE
  5
134
330
17
100
AcDbEntity
  8
FoilLayer
100
AcDbLine
 10
360.094263055164
 20
0.22273395474591481
 30
0.0
 11
360.89053694338065
 21
0.10023027963566168
 31
0.0
  0
LINE
  5
135
330
17
100
AcDbEntity
  8
FoilLayer
100
AcDbLine
 10
360.89053694338065
 20
0.10023027963566168
 30
0.0
 11
361.45850852798264
 21
0.011136697737295743
 31
0.0
  0
LINE
  5
136
330
17
100
AcDbEntity
  8
FoilLayer
100
AcDbLine
 10
361.45850852798264
 20
0.011136697737295743
 30
0.0
 11
361.80931450670755
 21
-0.0389784420805351
 31
0.0
  0
LINE
  5
137
330
17
100
AcDbEntity
  8
FoilLayer
100
AcDbLine
 10
361.80931450670755
 20
-0.0389784420805351
 30
0.0
 11
361.9318181818178
 21
-0.06125183755512659
 31
0.0
  0
LINE
  5
138
330
17
100
AcDbEntity
  8
FoilLayer
100
AcDbLine
 10
361.9318181818178
 20
-0.06125183755512659
 30
0.0
 11
361.9318181818178
 21
0.02784174434323936
 31
0.0
  0
LINE
  5
139
330
17
100
AcDbEntity
  8
StringerLayer
100
AcDbLine
 10
191.54174098805117
 20
41.41055817557547
 30
0.0
 11
195.43135795297394
 21
40.4773487316749
 31
0.0
  0
LINE
  5
13A
330
17
100
AcDbEntity
  8
StringerLayer
100
AcDbLine
 10
195.43135795297394
 20
40.4773487316749
 30
0.0
 11
196.36456739687452
 21
44.36696569659764
 31
0.0
  0
LINE
  5
13B
330
17
100
AcDbEntity
  8
StringerLayer
100
AcDbLine
 10
196.36456739687452
 20
44.36696569659764
 30
0.0
 11
192.47495043195175
 21
45.300175140498204
 31
0.0
  0
LINE
  5
13C
330
17
100
AcDbEntity
  8
StringerLayer
100
AcDbLine
 10
192.47495043195175
 20
45.300175140498204
 30
0.0
 11
191.54174098805117
 21
41.41055817557547
 31
0.0
  0
LINE
  5
13D
330
17
100
AcDbEntity
  8
StringerLayer
100
AcDbLine
 10
-56.88080485321459
 20
57.812873465921676
 30
0.0
 11
-52.915088149671796
 21
58.33545458617163
 31
0.0
  0
LINE
  5
13E
330
17
100
AcDbEntity
  8
StringerLayer
100
AcDbLine
 10
-52.915088149671796
 20
58.33545458617163
 30
0.0
 11
-53.43766926992174
 21
62.30117128971442
 31
0.0
  0
LINE
  5
13F
330
17
100
AcDbEntity
  8
StringerLayer
100
AcDbLine
 10
-53.43766926992174
 20
62.30117128971442
 30
0.0
 11
-57.40338597346454
 21
61.778590169464465
 31
0.0
  0
LINE
  5
140
330
17
100
AcDbEntity
  8
StringerLayer
100
AcDbLine
 10
-57.40338597346454
 20
61.778590169464465
 30
0.0
 11
-56.88080485321459
 21
57.812873465921676
 31
0.0
  0
LINE
  5
141
330
17
100
AcDbEntity
  8
StringerLayer
100
AcDbLine
 10
-138.92834148088195
 20
37.75640895866405
 30
0.0
 11
-135.1924694981605
 21
39.18583560201343
 31
0.0
  0
LINE
  5
142
330
17
100
AcDbEntity
  8
StringerLayer
100
AcDbLine
 10
-135.1924694981605
 20
39.18583560201343
 30
0.0
 11
-136.62189614150986
 21
42.921707584734854
 31
0.0
  0
LINE
  5
143
330
17
100
AcDbEntity
  8
StringerLayer
100
AcDbLine
 10
-136.62189614150986
 20
42.921707584734854
 30
0.0
 11
-140.3577681242313
 21
41.49228094138548
 31
0.0
  0
LINE
  5
144
330
17
100
AcDbEntity
  8
StringerLayer
100
AcDbLine
 10
-140.3577681242313
 20
41.49228094138548
 30
0.0
 11
-138.92834148088195
 21
37.75640895866405
 31
0.0
  0
LINE
  5
145
330
17
100
AcDbEntity
  8
StringerLayer
100
AcDbLine
 10
-184.42847908385934
 20
7.2578011543712915
 30
0.0
 11
-183.19385067741197
 21
8.831234565098702
 31
0.0
  0
LINE
  5
146
330
17
100
AcDbEntity
  8
StringerLayer
100
AcDbLine
 10
-183.19385067741197
 20
8.831234565098702
 30
0.0
 11
-187.1274342042305
 21
11.91780558121706
 31
0.0
  0
LINE
  5
147
330
17
100
AcDbEntity
  8
StringerLayer
100
AcDbLine
 10
-187.1274342042305
 20
11.91780558121706
 30
0.0
 11
-188.36206261067787
 21
10.344372170489649
 31
0.0
  0
LINE
  5
148
330
17
100
AcDbEntity
  8
StringerLayer
100
AcDbLine
 10
-188.36206261067787
 20
10.344372170489649
 30
0.0
 11
-184.42847908385934
 21
7.2578011543712915
 31
0.0
  0
LINE
  5
149
330
17
100
AcDbEntity
  8
StringerLayer
100
AcDbLine
 10
-186.70912910914677
 20
-1.3769484749070897
 30
0.0
 11
-188.2053460682418
 21
-0.04979557817046354
 31
0.0
  0
LINE
  5
14A
330
17
100
AcDbEntity
  8
StringerLayer
100
AcDbLine
 10
-188.2053460682418
 20
-0.04979557817046354
 30
0.0
 11
-191.52322831008337
 21
-3.7903379759080416
 31
0.0
  0
LINE
  5
14B
330
17
100
AcDbEntity
  8
StringerLayer
100
AcDbLine
 10
-191.52322831008337
 20
-3.7903379759080416
 30
0.0
 11
-190.02701135098835
 21
-5.117490872644668
 31
0.0
  0
LINE
  5
14C
330
17
100
AcDbEntity
  8
StringerLayer
100
AcDbLine
 10
-190.02701135098835
 20
-5.117490872644668
 30
0.0
 11
-186.70912910914677
 21
-1.3769484749070897
 31
0.0
  0
LINE
  5
14D
330
17
100
AcDbEntity
  8
StringerLayer
100
AcDbLine
 10
-81.78964561817212
 20
-8.268030372392676
 30
0.0
 11
-85.7857432920019
 21
-8.444675160632578
 31
0.0
  0
LINE
  5
14E
330
17
100
AcDbEntity
  8
StringerLayer
100
AcDbLine
 10
-85.7857432920019
 20
-8.444675160632578
 30
0.0
 11
-85.609098503762
 21
-12.440772834462345
 31
0.0
  0
LINE
  5
14F
330
17
100
AcDbEntity
  8
StringerLayer
100
AcDbLine
 10
-85.609098503762
 20
-12.440772834462345
 30
0.0
 11
-81.61300082993222
 21
-12.264128046222444
 31
0.0
  0
LINE
  5
150
330
17
100
AcDbEntity
  8
StringerLayer
100
AcDbLine
 10
-81.61300082993222
 20
-12.264128046222444
 30
0.0
 11
-81.78964561817212
 21
-8.268030372392676
 31
0.0
  0
LINE
  5
151
330
17
100
AcDbEntity
  8
SubLayer
100
AcDbLine
 10
-194.8863636363634
 20
0.0
 30
0.0
 11
-190.8863636363634
 21
0.0
 31
0.0
  0
LINE
  5
152
330
17
100
AcDbEntity
  8
SubLayer
100
AcDbLine
 10
53.68181818181813
 20
0.0
 30
0.0
 11
63.24999999999994
 21
0.0
 31
0.0
  0
LINE
  5
153
330
17
100
AcDbEntity
  8
SubLayer
100
AcDbLine
 10
-41.735923741990604
 20
28.122297201670396
 30
0.0
 11
-33.74079712583784
 21
28.4014931752904
 31
0.0
  0
LINE
  5
154
330
17
100
AcDbEntity
  8
SubLayer
100
AcDbLine
 10
33.74079712583784
 20
30.758002373088818
 30
0.0
 11
41.735923741990604
 21
31.037198346708823
 31
0.0
  0
LINE
  5
155
330
17
100
AcDbEntity
  8
SubLayer
100
AcDbLine
 10
-1.1584253394091502
 20
62.7527092028575
 30
0.0
 11
-0.8792293657891423
 21
54.75758258670474
 31
0.0
  0
LINE
  5
156
330
17
100
AcDbEntity
  8
SubLayer
100
AcDbLine
 10
1.1584253394091502
 20
-3.593213654478287
 30
0.0
 11
0.8792293657891423
 21
4.401912961674476
 31
0.0
  0
LINE
  5
157
330
17
100
AcDbEntity
  8
SubLayer
100
AcDbLine
 10
-39.66734309454741
 20
26.193314541037203
 30
0.0
 11
-35.66977978647103
 21
26.33291252784721
 31
0.0
  0
LINE
  5
158
330
17
100
AcDbEntity
  8
SubLayer
100
AcDbLine
 10
-35.66977978647103
 20
26.33291252784721
 30
0.0
 11
-35.809377773281035
 21
30.330475835923593
 31
0.0
  0
LINE
  5
159
330
17
100
AcDbEntity
  8
SubLayer
100
AcDbLine
 10
-35.809377773281035
 20
30.330475835923593
 30
0.0
 11
-39.806941081357415
 21
30.190877849113587
 31
0.0
  0
LINE
  5
15A
330
17
100
AcDbEntity
  8
SubLayer
100
AcDbLine
 10
-39.806941081357415
 20
30.190877849113587
 30
0.0
 11
-39.66734309454741
 21
26.193314541037203
 31
0.0
  0
LINE
  5
15B
330
17
100
AcDbEntity
  8
SubLayer
100
AcDbLine
 10
35.809377773281035
 20
28.829019712455626
 30
0.0
 11
39.806941081357415
 21
28.968617699265632
 31
0.0
  0
LINE
  5
15C
330
17
100
AcDbEntity
  8
SubLayer
100
AcDbLine
 10
39.806941081357415
 20
28.968617699265632
 30
0.0
 11
39.66734309454741
 21
32.96618100734201
 31
0.0
  0
LINE
  5
15D
330
17
100
AcDbEntity
  8
SubLayer
100
AcDbLine
 10
39.66734309454741
 20
32.96618100734201
 30
0.0
 11
35.66977978647103
 21
32.826583020532006
 31
0.0
  0
LINE
  5
15E
330
17
100
AcDbEntity
  8
SubLayer
100
AcDbLine
 10
35.66977978647103
 20
32.826583020532006
 30
0.0
 11
35.809377773281035
 21
28.829019712455626
 31
0.0
  0
LINE
  5
15F
330
17
100
AcDbEntity
  8
SubLayer
100
AcDbLine
 10
-2.9478100132323357
 20
56.68656524733793
 30
0.0
 11
1.0497532948440473
 21
56.826163234147934
 31
0.0
  0
LINE
  5
160
330
17
100
AcDbEntity
  8
SubLayer
100
AcDbLine
 10
1.0497532948440473
 20
56.826163234147934
 30
0.0
 11
0.9101553080340434
 21
60.823726542224314
 31
0.0
  0
LINE
  5
161
330
17
100
AcDbEntity
  8
SubLayer
100
AcDbLine
 10
0.9101553080340434
 20
60.823726542224314
 30
0.0
 11
-3.08740800004234
 21
60.68412855541431
 31
0.0
  0
LINE
  5
162
330
17
100
AcDbEntity
  8
SubLayer
100
AcDbLine
 10
-3.08740800004234
 20
60.68412855541431
 30
0.0
 11
-2.9478100132323357
 21
56.68656524733793
 31
0.0
  0
LINE
  5
163
330
17
100
AcDbEntity
  8
SubLayer
100
AcDbLine
 10
-0.9101553080340434
 20
-1.664230993845099
 30
0.0
 11
3.08740800004234
 21
-1.524633007035095
 31
0.0
  0
LINE
  5
164
330
17
100
AcDbEntity
  8
SubLayer
100
AcDbLine
 10
3.08740800004234
 20
-1.524633007035095
 30
0.0
 11
2.9478100132323357
 21
2.472930301041288
 31
0.0
  0
LINE
  5
165
330
17
100
AcDbEntity
  8
SubLayer
100
AcDbLine
 10
2.9478100132323357
 20
2.472930301041288
 30
0.0
 11
-1.0497532948440473
 21
2.333332314231284
 31
0.0
  0
LINE
  5
166
330
17
100
AcDbEntity
  8
SubLayer
100
AcDbLine
 10
-1.0497532948440473
 20
2.333332314231284
 30
0.0
 11
-0.9101553080340434
 21
-1.664230993845099
 31
0.0
  0
LINE
  5
167
330
17
100
AcDbEntity
  8
SubLayer
100
AcDbLine
 10
278.9210281330178
 20
23.821387526385514
 30
0.0
 11
282.9185914410941
 21
23.960985513195517
 31
0.0
  0
LINE
  5
168
330
17
100
AcDbEntity
  8
SubLayer
100
AcDbLine
 10
-192.33717073477482
 20
7.364688592627152
 30
0.0
 11
-188.33960742669842
 21
7.5042865794371565
 31
0.0
  0
LINE
  5
169
330
17
100
AcDbEntity
  8
SubLayer
100
AcDbLine
 10
-99.08492178823539
 20
10.621128882676324
 30
0.0
 11
-93.08857682612083
 21
10.830525862891328
 31
0.0
  0
LINE
  5
16A
330
17
100
AcDbEntity
  8
SubLayer
100
AcDbLine
 10
183.66999753244016
 20
20.49514824293134
 30
0.0
 11
189.66634249455473
 21
20.704545223146344
 31
0.0
  0
LINE
  5
16B
330
17
100
AcDbEntity
  8
SubLayer
100
AcDbLine
 10
42.29253787210238
 20
15.558138562803833
 30
0.0
 11
48.288882834216956
 21
15.767535543018838
 31
0.0
  0
LINE
  5
16C
330
17
100
AcDbEntity
  8
SubLayer
100
AcDbLine
 10
-94.01816865973491
 20
8.796844712150635
 30
0.0
 11
-94.15776664654491
 21
12.794408020227019
 31
0.0
  0
LINE
  5
16D
330
17
100
AcDbEntity
  8
SubLayer
100
AcDbLine
 10
-94.15776664654491
 20
12.794408020227019
 30
0.0
 11
-98.15532995462131
 21
12.654810033417016
 31
0.0
  0
LINE
  5
16E
330
17
100
AcDbEntity
  8
SubLayer
100
AcDbLine
 10
-98.15532995462131
 20
12.654810033417016
 30
0.0
 11
-98.0157319678113
 21
8.657246725340633
 31
0.0
  0
LINE
  5
16F
330
17
100
AcDbEntity
  8
SubLayer
100
AcDbLine
 10
-98.0157319678113
 20
8.657246725340633
 30
0.0
 11
-94.01816865973491
 21
8.796844712150635
 31
0.0
  0
LINE
  5
170
330
17
100
AcDbEntity
  8
SubLayer
100
AcDbLine
 10
188.73675066094063
 20
18.670864072405653
 30
0.0
 11
188.59715267413063
 21
22.668427380482036
 31
0.0
  0
LINE
  5
171
330
17
100
AcDbEntity
  8
SubLayer
100
AcDbLine
 10
188.59715267413063
 20
22.668427380482036
 30
0.0
 11
184.59958936605426
 21
22.52882939367203
 31
0.0
  0
LINE
  5
172
330
17
100
AcDbEntity
  8
SubLayer
100
AcDbLine
 10
184.59958936605426
 20
22.52882939367203
 30
0.0
 11
184.73918735286426
 21
18.531266085595647
 31
0.0
  0
LINE
  5
173
330
17
100
AcDbEntity
  8
SubLayer
100
AcDbLine
 10
184.73918735286426
 20
18.531266085595647
 30
0.0
 11
188.73675066094063
 21
18.670864072405653
 31
0.0
  0
LINE
  5
174
330
17
100
AcDbEntity
  8
SubLayer
100
AcDbLine
 10
47.35929100060286
 20
13.733854392278145
 30
0.0
 11
47.219693013792856
 21
17.73141770035453
 31
0.0
  0
LINE
  5
175
330
17
100
AcDbEntity
  8
SubLayer
100
AcDbLine
 10
47.219693013792856
 20
17.73141770035453
 30
0.0
 11
43.222129705716476
 21
17.591819713544524
 31
0.0
  0
LINE
  5
176
330
17
100
AcDbEntity
  8
SubLayer
100
AcDbLine
 10
43.222129705716476
 20
17.591819713544524
 30
0.0
 11
43.36172769252648
 21
13.594256405468142
 31
0.0
  0
LINE
  5
177
330
17
100
AcDbEntity
  8
SubLayer
100
AcDbLine
 10
43.36172769252648
 20
13.594256405468142
 30
0.0
 11
47.35929100060286
 21
13.733854392278145
 31
0.0
  0
LINE
  5
178
330
17
100
AcDbEntity
  8
SubLayer
100
AcDbLine
 10
342.7630286798899
 20
5.727741443529924
 30
0.0
 11
343.07318309570326
 21
6.678427636945752
 31
0.0
  0
LINE
  5
179
330
17
100
AcDbEntity
  8
SubLayer
100
AcDbLine
 10
342.029138544878
 20
2.0327340337653608
 30
0.0
 11
342.1555748259281
 21
3.024708764710761
 31
0.0
  0
LINE
  5
17A
330
17
100
AcDbEntity
  8
SubLayer
100
AcDbLine
 10
323.56696994030705
 20
11.330791134515433
 30
0.0
 11
323.86218275952086
 21
12.286222655542346
 31
0.0
  0
LINE
  5
17B
330
17
100
AcDbEntity
  8
SubLayer
100
AcDbLine
 10
322.0963821036238
 20
3.658914487715042
 30
0.0
 11
322.2002873181158
 21
4.653501691735571
 31
0.0
  0
LINE
  5
17C
330
17
100
AcDbEntity
  8
SubLayer
100
AcDbLine
 10
285.0746761147148
 20
22.208762095517773
 30
0.0
 11
285.3582790404561
 21
23.16770389798076
 31
0.0
  0
LINE
  5
17D
330
17
100
AcDbEntity
  8
SubLayer
100
AcDbLine
 10
282.08243874325746
 20
4.929959252054681
 30
0.0
 11
282.1502989438481
 21
5.927654091760592
 31
0.0
  0
LINE
  5
17E
330
17
100
AcDbEntity
  8
SubLayer
100
AcDbLine
 10
-100.97692745730396
 20
55.80978338775852
 30
0.0
 11
-100.83732947049396
 21
51.81222007968214
 31
0.0
  0
LINE
  5
17F
330
17
100
AcDbEntity
  8
SubLayer
100
AcDbLine
 10
-98.64430228167257
 20
-10.98786195572726
 30
0.0
 11
-98.50470429486256
 21
-14.985425263803643
 31
0.0
  0
LINE
  5
180
330
17
100
AcDbEntity
  8
SubLayer
100
AcDbLine
 10
-99.14572681350137
 20
3.3710579399889924
 30
0.0
 11
-98.93632983328635
 21
-2.625287022125582
 31
0.0
  0
LINE
  5
181
330
17
100
AcDbEntity
  8
SubLayer
100
AcDbLine
 10
-100.5453019188802
 20
43.449645146080464
 30
0.0
 11
-100.33590493866518
 21
37.45330018396589
 31
0.0
  0
LINE
  5
182
330
17
100
AcDbEntity
  8
SubLayer
100
AcDbLine
 10
-99.84551436619077
 20
23.41035154303473
 30
0.0
 11
-99.63611738597575
 21
17.41400658092015
 31
0.0
  0
LINE
  5
183
330
17
100
AcDbEntity
  8
SubLayer
100
AcDbLine
 10
-100.97001098402706
 20
-1.6956951885114884
 30
0.0
 11
-96.97244767595066
 21
-1.5560972017014845
 31
0.0
  0
LINE
  5
184
330
17
100
AcDbEntity
  8
SubLayer
100
AcDbLine
 10
-96.97244767595066
 20
-1.5560972017014845
 30
0.0
 11
-97.11204566276066
 21
2.441466106374899
 31
0.0
  0
LINE
  5
185
330
17
100
AcDbEntity
  8
SubLayer
100
AcDbLine
 10
-97.11204566276066
 20
2.441466106374899
 30
0.0
 11
-101.10960897083706
 21
2.3018681195648947
 31
0.0
  0
LINE
  5
186
330
17
100
AcDbEntity
  8
SubLayer
100
AcDbLine
 10
-101.10960897083706
 20
2.3018681195648947
 30
0.0
 11
-100.97001098402706
 21
-1.6956951885114884
 31
0.0
  0
LINE
  5
187
330
17
100
AcDbEntity
  8
SubLayer
100
AcDbLine
 10
-102.36958608940589
 20
38.382892017579984
 30
0.0
 11
-98.37202278132949
 21
38.52249000438999
 31
0.0
  0
LINE
  5
188
330
17
100
AcDbEntity
  8
SubLayer
100
AcDbLine
 10
-98.37202278132949
 20
38.52249000438999
 30
0.0
 11
-98.5116207681395
 21
42.520053312466366
 31
0.0
  0
LINE
  5
189
330
17
100
AcDbEntity
  8
SubLayer
100
AcDbLine
 10
-98.5116207681395
 20
42.520053312466366
 30
0.0
 11
-102.50918407621589
 21
42.380455325656364
 31
0.0
  0
LINE
  5
18A
330
17
100
AcDbEntity
  8
SubLayer
100
AcDbLine
 10
-102.50918407621589
 20
42.380455325656364
 30
0.0
 11
-102.36958608940589
 21
38.382892017579984
 31
0.0
  0
LINE
  5
18B
330
17
100
AcDbEntity
  8
SubLayer
100
AcDbLine
 10
-101.66979853671646
 20
18.343598414534245
 30
0.0
 11
-97.67223522864006
 21
18.48319640134425
 31
0.0
  0
LINE
  5
18C
330
17
100
AcDbEntity
  8
SubLayer
100
AcDbLine
 10
-97.67223522864006
 20
18.48319640134425
 30
0.0
 11
-97.81183321545006
 21
22.480759709420635
 31
0.0
  0
LINE
  5
18D
330
17
100
AcDbEntity
  8
SubLayer
100
AcDbLine
 10
-97.81183321545006
 20
22.480759709420635
 30
0.0
 11
-101.80939652352646
 21
22.34116172261063
 31
0.0
  0
LINE
  5
18E
330
17
100
AcDbEntity
  8
SubLayer
100
AcDbLine
 10
-101.80939652352646
 20
22.34116172261063
 30
0.0
 11
-101.66979853671646
 21
18.343598414534245
 31
0.0
  0
LINE
  5
18F
330
17
100
AcDbEntity
  8
SubLayer
100
AcDbLine
 10
149.14927011694616
 20
56.55972391989629
 30
0.0
 11
149.2888681037562
 21
52.56216061181991
 31
0.0
  0
LINE
  5
190
330
17
100
AcDbEntity
  8
SubLayer
100
AcDbLine
 10
151.02876800896883
 20
2.737946239229439
 30
0.0
 11
151.16836599577886
 21
-1.2596170688469444
 31
0.0
  0
LINE
  5
191
330
17
100
AcDbEntity
  8
SubLayer
100
AcDbLine
 10
150.61796893386182
 20
14.501692602381906
 30
0.0
 11
150.8273659140768
 21
8.505347640267333
 31
0.0
  0
LINE
  5
192
330
17
100
AcDbEntity
  8
SubLayer
100
AcDbLine
 10
149.4902701986482
 20
46.794759210782026
 30
0.0
 11
149.6996671788632
 21
40.79841424866745
 31
0.0
  0
LINE
  5
193
330
17
100
AcDbEntity
  8
SubLayer
100
AcDbLine
 10
150.05411956625503
 20
30.648225906581963
 30
0.0
 11
150.26351654647002
 21
24.651880944467386
 31
0.0
  0
LINE
  5
194
330
17
100
AcDbEntity
  8
SubLayer
100
AcDbLine
 10
148.79368476333613
 20
9.434939473881427
 30
0.0
 11
152.7912480714125
 21
9.57453746069143
 31
0.0
  0
LINE
  5
195
330
17
100
AcDbEntity
  8
SubLayer
100
AcDbLine
 10
152.7912480714125
 20
9.57453746069143
 30
0.0
 11
152.6516500846025
 21
13.572100768767813
 31
0.0
  0
LINE
  5
196
330
17
100
AcDbEntity
  8
SubLayer
100
AcDbLine
 10
152.6516500846025
 20
13.572100768767813
 30
0.0
 11
148.65408677652613
 21
13.43250278195781
 31
0.0
  0
LINE
  5
197
330
17
100
AcDbEntity
  8
SubLayer
100
AcDbLine
 10
148.65408677652613
 20
13.43250278195781
 30
0.0
 11
148.79368476333613
 21
9.434939473881427
 31
0.0
  0
LINE
  5
198
330
17
100
AcDbEntity
  8
SubLayer
100
AcDbLine
 10
147.66598602812252
 20
41.728006082281546
 30
0.0
 11
151.66354933619888
 21
41.86760406909155
 31
0.0
  0
LINE
  5
199
330
17
100
AcDbEntity
  8
SubLayer
100
AcDbLine
 10
151.66354933619888
 20
41.86760406909155
 30
0.0
 11
151.52395134938888
 21
45.86516737716793
 31
0.0
  0
LINE
  5
19A
330
17
100
AcDbEntity
  8
SubLayer
100
AcDbLine
 10
151.52395134938888
 20
45.86516737716793
 30
0.0
 11
147.52638804131252
 21
45.725569390357926
 31
0.0
  0
LINE
  5
19B
330
17
100
AcDbEntity
  8
SubLayer
100
AcDbLine
 10
147.52638804131252
 20
45.725569390357926
 30
0.0
 11
147.66598602812252
 21
41.728006082281546
 31
0.0
  0
LINE
  5
19C
330
17
100
AcDbEntity
  8
SubLayer
100
AcDbLine
 10
148.22983539572934
 20
25.58147277808148
 30
0.0
 11
152.2273987038057
 21
25.721070764891486
 31
0.0
  0
LINE
  5
19D
330
17
100
AcDbEntity
  8
SubLayer
100
AcDbLine
 10
152.2273987038057
 20
25.721070764891486
 30
0.0
 11
152.0878007169957
 21
29.71863407296787
 31
0.0
  0
LINE
  5
19E
330
17
100
AcDbEntity
  8
SubLayer
100
AcDbLine
 10
152.0878007169957
 20
29.71863407296787
 30
0.0
 11
148.09023740891934
 21
29.579036086157863
 31
0.0
  0
LINE
  5
19F
330
17
100
AcDbEntity
  8
SubLayer
100
AcDbLine
 10
148.09023740891934
 20
29.579036086157863
 30
0.0
 11
148.22983539572934
 21
25.58147277808148
 31
0.0
  0
ENDSEC
  0
SECTION
  2
OBJECTS
  0
DICTIONARY
  5
A
330
0
100
AcDbDictionary
280
0
281
1
  3
ACAD_COLOR
350
B
  3
ACAD_GROUP
350
C
  3
ACAD_LAYOUT
350
D
  3
ACAD_MATERIAL
350
E
  3
ACAD_MLEADERSTYLE
350
F
  3
ACAD_MLINESTYLE
350
10
  3
ACAD_PLOTSETTINGS
350
11
  3
ACAD_PLOTSTYLENAME
350
12
  3
ACAD_SCALELIST
350
14
  3
ACAD_TABLESTYLE
350
15
  3
ACAD_VISUALSTYLE
350
16
  3
EZDXF_META
350
2D
  0
DICTIONARY
  5
B
330
A
100
AcDbDictionary
280
0
281
1
  0
DICTIONARY
  5
C
330
A
100
AcDbDictionary
280
0
281
1
  0
DICTIONARY
  5
D
330
A
100
AcDbDictionary
280
0
281
1
  3
Model
350
1A
  3
Layout1
350
1E
  0
DICTIONARY
  5
E
330
A
100
AcDbDictionary
280
0
281
1
  3
ByBlock
350
1F
  3
ByLayer
350
20
  3
Global
350
21
  0
DICTIONARY
  5
F
330
A
100
AcDbDictionary
280
0
281
1
  3
Standard
350
2C
  0
DICTIONARY
  5
10
330
A
100
AcDbDictionary
280
0
281
1
  3
Standard
350
22
  0
DICTIONARY
  5
11
330
A
100
AcDbDictionary
280
0
281
1
  0
ACDBDICTIONARYWDFLT
  5
12
330
A
100
AcDbDictionary
280
0
281
1
  3
Normal
350
13
100
AcDbDictionaryWithDefault
340
13
  0
ACDBPLACEHOLDER
  5
13
330
12
  0
DICTIONARY
  5
14
330
A
100
AcDbDictionary
280
0
281
1
  0
DICTIONARY
  5
15
330
A
100
AcDbDictionary
280
0
281
1
  0
DICTIONARY
  5
16
330
A
100
AcDbDictionary
280
0
281
1
  0
LAYOUT
  5
1A
330
D
100
AcDbPlotSettings
  1

  2
Adobe PDF
  4
A3
  6

 40
7.5
 41
20.0
 42
7.5
 43
20.0
 44
420.0
 45
297.0
 46
0.0
 47
0.0
 48
0.0
 49
0.0
140
0.0
141
0.0
142
1.0
143
1.0
 70
1024
 72
1
 73
0
 74
5
  7

 75
16
 76
0
 77
2
 78
300
147
1.0
148
0.0
149
0.0
100
AcDbLayout
  1
Model
 70
1
 71
0
 10
0.0
 20
0.0
 11
420.0
 21
297.0
 12
0.0
 22
0.0
 32
0.0
 14
1e+20
 24
1e+20
 34
1e+20
 15
-1e+20
 25
-1e+20
 35
-1e+20
146
0.0
 13
0.0
 23
0.0
 33
0.0
 16
1.0
 26
0.0
 36
0.0
 17
0.0
 27
1.0
 37
0.0
 76
1
330
17
  0
LAYOUT
  5
1E
330
D
100
AcDbPlotSettings
  1

  2
Adobe PDF
  4
A3
  6

 40
7.5
 41
20.0
 42
7.5
 43
20.0
 44
420.0
 45
297.0
 46
0.0
 47
0.0
 48
0.0
 49
0.0
140
0.0
141
0.0
142
1.0
143
1.0
 70
0
 72
1
 73
0
 74
5
  7

 75
16
 76
0
 77
2
 78
300
147
1.0
148
0.0
149
0.0
100
AcDbLayout
  1
Layout1
 70
1
 71
1
 10
0.0
 20
0.0
 11
420.0
 21
297.0
 12
0.0
 22
0.0
 32
0.0
 14
1e+20
 24
1e+20
 34
1e+20
 15
-1e+20
 25
-1e+20
 35
-1e+20
146
0.0
 13
0.0
 23
0.0
 33
0.0
 16
1.0
 26
0.0
 36
0.0
 17
0.0
 27
1.0
 37
0.0
 76
1
330
1B
  0
MATERIAL
  5
1F
102
{ACAD_REACTORS
330
E
102
}
330
E
100
AcDbMaterial
  1
ByBlock
  2

 70
0
 40
1.0
 71
1
 41
1.0
 91
-1023410177
 42
1.0
 72
1
  3

 73
1
 74
1
 75
1
 44
0.5
 73
0
 45
1.0
 46
1.0
 77
1
  4

 78
1
 79
1
170
1
 48
1.0
171
1
  6

172
1
173
1
174
1
140
1.0
141
1.0
175
1
  7

176
1
177
1
178
1
143
1.0
179
1
  8

270
1
271
1
272
1
145
1.0
146
1.0
273
1
  9

274
1
275
1
276
1
 42
1.0
 72
1
  3

 73
1
 74
1
 75
1
 94
63
  0
MATERIAL
  5
20
102
{ACAD_REACTORS
330
E
102
}
330
E
100
AcDbMaterial
  1
ByLayer
  2

 70
0
 40
1.0
 71
1
 41
1.0
 91
-1023410177
 42
1.0
 72
1
  3

 73
1
 74
1
 75
1
 44
0.5
 73
0
 45
1.0
 46
1.0
 77
1
  4

 78
1
 79
1
170
1
 48
1.0
171
1
  6

172
1
173
1
174
1
140
1.0
141
1.0
175
1
  7

176
1
177
1
178
1
143
1.0
179
1
  8

270
1
271
1
272
1
145
1.0
146
1.0
273
1
  9

274
1
275
1
276
1
 42
1.0
 72
1
  3

 73
1
 74
1
 75
1
 94
63
  0
MATERIAL
  5
21
102
{ACAD_REACTORS
330
E
102
}
330
E
100
AcDbMaterial
  1
Global
  2

 70
0
 40
1.0
 71
1
 41
1.0
 91
-1023410177
 42
1.0
 72
1
  3

 73
1
 74
1
 75
1
 44
0.5
 73
0
 45
1.0
 46
1.0
 77
1
  4

 78
1
 79
1
170
1
 48
1.0
171
1
  6

172
1
173
1
174
1
140
1.0
141
1.0
175
1
  7

176
1
177
1
178
1
143
1.0
179
1
  8

270
1
271
1
272
1
145
1.0
146
1.0
273
1
  9

274
1
275
1
276
1
 42
1.0
 72
1
  3

 73
1
 74
1
 75
1
 94
63
  0
MLINESTYLE
  5
22
102
{ACAD_REACTORS
330
10
102
}
330
10
100
AcDbMlineStyle
  2
Standard
 70
0
  3

 62
256
 51
90.0
 52
90.0
 71
2
 49
0.5
 62
256
  6
BYLAYER
 49
-0.5
 62
256
  6
BYLAYER
  0
MLEADERSTYLE
  5
2C
102
{ACAD_REACTORS
330
F
102
}
330
F
100
AcDbMLeaderStyle
179
2
170
2
171
1
172
0
 90
2
 40
0.0
 41
0.0
173
1
 91
-1056964608
 92
-2
290
1
 42
2.0
291
1
 43
8.0
  3
Standard
 44
4.0
300

342
29
174
1
175
1
176
0
178
1
 93
-1056964608
 45
4.0
292
0
297
0
 46
4.0
 94
-1056964608
 47
1.0
 49
1.0
140
1.0
294
1
141
0.0
177
0
142
1.0
295
0
296
0
143
3.75
271
0
272
9
273
9
  0
DICTIONARY
  5
2D
330
A
100
AcDbDictionary
281
1
  3
CREATED_BY_EZDXF
350
2E
  3
WRITTEN_BY_EZDXF
350
1A2
  0
DICTIONARYVAR
  5
2E
330
2D
100
DictionaryVariables
280
0
  1
1.0.2 @ 2023-10-20T04:47:16.492088+00:00
  0
DICTIONARYVAR
  5
1A2
330
2D
100
DictionaryVariables
280
0
  1
1.0.2 @ 2023-10-20T04:47:16.503052+00:00
  0
ENDSEC
  0
EOF
