  0
SECTION
  2
HEADER
  9
$ACADVER
  1
AC1027
  9
$ACADMAINTVER
 70
105
  9
$DWGCODEPAGE
  3
ANSI_1252
  9
$LASTSAVEDBY
  1
ezdxf
  9
$REQUIREDVERSIONS
160
0
  9
$INSBASE
 10
0.0
 20
0.0
 30
0.0
  9
$EXTMIN
 10
1e+20
 20
1e+20
 30
1e+20
  9
$EXTMAX
 10
-1e+20
 20
-1e+20
 30
-1e+20
  9
$LIMMIN
 10
0.0
 20
0.0
  9
$LIMMAX
 10
420.0
 20
297.0
  9
$ORTHOMODE
 70
0
  9
$REGENMODE
 70
1
  9
$FILLMODE
 70
1
  9
$QTEXTMODE
 70
0
  9
$MIRRTEXT
 70
1
  9
$LTSCALE
 40
1.0
  9
$ATTMODE
 70
1
  9
$TEXTSIZE
 40
2.5
  9
$TRACEWID
 40
1.0
  9
$TEXTSTYLE
  7
Standard
  9
$CLAYER
  8
0
  9
$CELTYPE
  6
ByLayer
  9
$CECOLOR
 62
256
  9
$CELTSCALE
 40
1.0
  9
$DISPSILH
 70
0
  9
$DIMSCALE
 40
1.0
  9
$DIMASZ
 40
2.5
  9
$DIMEXO
 40
0.625
  9
$DIMDLI
 40
3.75
  9
$DIMRND
 40
0.0
  9
$DIMDLE
 40
0.0
  9
$DIMEXE
 40
1.25
  9
$DIMTP
 40
0.0
  9
$DIMTM
 40
0.0
  9
$DIMTXT
 40
2.5
  9
$DIMCEN
 40
2.5
  9
$DIMTSZ
 40
0.0
  9
$DIMTOL
 70
0
  9
$DIMLIM
 70
0
  9
$DIMTIH
 70
0
  9
$DIMTOH
 70
0
  9
$DIMSE1
 70
0
  9
$DIMSE2
 70
0
  9
$DIMTAD
 70
1
  9
$DIMZIN
 70
8
  9
$DIMBLK
  1

  9
$DIMASO
 70
1
  9
$DIMSHO
 70
1
  9
$DIMPOST
  1

  9
$DIMAPOST
  1

  9
$DIMALT
 70
0
  9
$DIMALTD
 70
3
  9
$DIMALTF
 40
0.03937007874
  9
$DIMLFAC
 40
1.0
  9
$DIMTOFL
 70
1
  9
$DIMTVP
 40
0.0
  9
$DIMTIX
 70
0
  9
$DIMSOXD
 70
0
  9
$DIMSAH
 70
0
  9
$DIMBLK1
  1

  9
$DIMBLK2
  1

  9
$DIMSTYLE
  2
ISO-25
  9
$DIMCLRD
 70
0
  9
$DIMCLRE
 70
0
  9
$DIMCLRT
 70
0
  9
$DIMTFAC
 40
1.0
  9
$DIMGAP
 40
0.625
  9
$DIMJUST
 70
0
  9
$DIMSD1
 70
0
  9
$DIMSD2
 70
0
  9
$DIMTOLJ
 70
0
  9
$DIMTZIN
 70
8
  9
$DIMALTZ
 70
0
  9
$DIMALTTZ
 70
0
  9
$DIMUPT
 70
0
  9
$DIMDEC
 70
2
  9
$DIMTDEC
 70
2
  9
$DIMALTU
 70
2
  9
$DIMALTTD
 70
3
  9
$DIMTXSTY
  7
Standard
  9
$DIMAUNIT
 70
0
  9
$DIMADEC
 70
0
  9
$DIMALTRND
 40
0.0
  9
$DIMAZIN
 70
0
  9
$DIMDSEP
 70
44
  9
$DIMATFIT
 70
3
  9
$DIMFRAC
 70
0
  9
$DIMLDRBLK
  1

  9
$DIMLUNIT
 70
2
  9
$DIMLWD
 70
-2
  9
$DIMLWE
 70
-2
  9
$DIMTMOVE
 70
0
  9
$DIMFXL
 40
1.0
  9
$DIMFXLON
 70
0
  9
$DIMJOGANG
 40
0.785398163397
  9
$DIMTFILL
 70
0
  9
$DIMTFILLCLR
 70
0
  9
$DIMARCSYM
 70
0
  9
$DIMLTYPE
  6

  9
$DIMLTEX1
  6

  9
$DIMLTEX2
  6

  9
$DIMTXTDIRECTION
 70
0
  9
$LUNITS
 70
2
  9
$LUPREC
 70
4
  9
$SKETCHINC
 40
1.0
  9
$FILLETRAD
 40
10.0
  9
$AUNITS
 70
0
  9
$AUPREC
 70
2
  9
$MENU
  1
.
  9
$ELEVATION
 40
0.0
  9
$PELEVATION
 40
0.0
  9
$THICKNESS
 40
0.0
  9
$LIMCHECK
 70
0
  9
$CHAMFERA
 40
0.0
  9
$CHAMFERB
 40
0.0
  9
$CHAMFERC
 40
0.0
  9
$CHAMFERD
 40
0.0
  9
$SKPOLY
 70
0
  9
$TDCREATE
 40
2460238.574490741
  9
$TDUCREATE
 40
2458532.153996898
  9
$TDUPDATE
 40
2460238.574490741
  9
$TDUUPDATE
 40
2458532.1544311
  9
$TDINDWG
 40
0.0
  9
$TDUSRTIMER
 40
0.0
  9
$USRTIMER
 70
1
  9
$ANGBASE
 50
0.0
  9
$ANGDIR
 70
0
  9
$PDMODE
 70
0
  9
$PDSIZE
 40
0.0
  9
$PLINEWID
 40
0.0
  9
$SPLFRAME
 70
0
  9
$SPLINETYPE
 70
6
  9
$SPLINESEGS
 70
8
  9
$HANDSEED
  5
1A3
  9
$SURFTAB1
 70
6
  9
$SURFTAB2
 70
6
  9
$SURFTYPE
 70
6
  9
$SURFU
 70
6
  9
$SURFV
 70
6
  9
$UCSBASE
  2

  9
$UCSNAME
  2

  9
$UCSORG
 10
0.0
 20
0.0
 30
0.0
  9
$UCSXDIR
 10
1.0
 20
0.0
 30
0.0
  9
$UCSYDIR
 10
0.0
 20
1.0
 30
0.0
  9
$UCSORTHOREF
  2

  9
$UCSORTHOVIEW
 70
0
  9
$UCSORGTOP
 10
0.0
 20
0.0
 30
0.0
  9
$UCSORGBOTTOM
 10
0.0
 20
0.0
 30
0.0
  9
$UCSORGLEFT
 10
0.0
 20
0.0
 30
0.0
  9
$UCSORGRIGHT
 10
0.0
 20
0.0
 30
0.0
  9
$UCSORGFRONT
 10
0.0
 20
0.0
 30
0.0
  9
$UCSORGBACK
 10
0.0
 20
0.0
 30
0.0
  9
$PUCSBASE
  2

  9
$PUCSNAME
  2

  9
$PUCSORG
 10
0.0
 20
0.0
 30
0.0
  9
$PUCSXDIR
 10
1.0
 20
0.0
 30
0.0
  9
$PUCSYDIR
 10
0.0
 20
1.0
 30
0.0
  9
$PUCSORTHOREF
  2

  9
$PUCSORTHOVIEW
 70
0
  9
$PUCSORGTOP
 10
0.0
 20
0.0
 30
0.0
  9
$PUCSORGBOTTOM
 10
0.0
 20
0.0
 30
0.0
  9
$PUCSORGLEFT
 10
0.0
 20
0.0
 30
0.0
  9
$PUCSORGRIGHT
 10
0.0
 20
0.0
 30
0.0
  9
$PUCSORGFRONT
 10
0.0
 20
0.0
 30
0.0
  9
$PUCSORGBACK
 10
0.0
 20
0.0
 30
0.0
  9
$USERI1
 70
0
  9
$USERI2
 70
0
  9
$USERI3
 70
0
  9
$USERI4
 70
0
  9
$USERI5
 70
0
  9
$USERR1
 40
0.0
  9
$USERR2
 40
0.0
  9
$USERR3
 40
0.0
  9
$USERR4
 40
0.0
  9
$USERR5
 40
0.0
  9
$WORLDVIEW
 70
1
  9
$SHADEDGE
 70
3
  9
$SHADEDIF
 70
70
  9
$TILEMODE
 70
1
  9
$MAXACTVP
 70
64
  9
$PINSBASE
 10
0.0
 20
0.0
 30
0.0
  9
$PLIMCHECK
 70
0
  9
$PEXTMIN
 10
1e+20
 20
1e+20
 30
1e+20
  9
$PEXTMAX
 10
-1e+20
 20
-1e+20
 30
-1e+20
  9
$PLIMMIN
 10
0.0
 20
0.0
  9
$PLIMMAX
 10
420.0
 20
297.0
  9
$UNITMODE
 70
0
  9
$VISRETAIN
 70
1
  9
$PLINEGEN
 70
0
  9
$PSLTSCALE
 70
1
  9
$TREEDEPTH
 70
3020
  9
$CMLSTYLE
  2
Standard
  9
$CMLJUST
 70
0
  9
$CMLSCALE
 40
20.0
  9
$PROXYGRAPHICS
 70
1
  9
$MEASUREMENT
 70
1
  9
$CELWEIGHT
370
-1
  9
$ENDCAPS
280
0
  9
$JOINSTYLE
280
0
  9
$LWDISPLAY
290
0
  9
$INSUNITS
 70
6
  9
$HYPERLINKBASE
  1

  9
$STYLESHEET
  1

  9
$XEDIT
290
1
  9
$CEPSNTYPE
380
0
  9
$PSTYLEMODE
290
1
  9
$FINGERPRINTGUID
  2
{534A2773-ACB7-467D-AED9-6540E1A0770F}
  9
$VERSIONGUID
  2
{30128491-272E-4B60-8987-3F80C0437495}
  9
$EXTNAMES
290
1
  9
$PSVPSCALE
 40
0.0
  9
$OLESTARTUP
290
0
  9
$SORTENTS
280
127
  9
$INDEXCTL
280
0
  9
$HIDETEXT
280
1
  9
$XCLIPFRAME
280
0
  9
$HALOGAP
280
0
  9
$OBSCOLOR
 70
257
  9
$OBSLTYPE
280
0
  9
$INTERSECTIONDISPLAY
280
0
  9
$INTERSECTIONCOLOR
 70
257
  9
$DIMASSOC
280
2
  9
$PROJECTNAME
  1

  9
$CAMERADISPLAY
290
0
  9
$LENSLENGTH
 40
50.0
  9
$CAMERAHEIGHT
 40
0.0
  9
$STEPSPERSEC
 40
24.0
  9
$STEPSIZE
 40
100.0
  9
$3DDWFPREC
 40
2.0
  9
$PSOLWIDTH
 40
0.005
  9
$PSOLHEIGHT
 40
0.08
  9
$LOFTANG1
 40
1.570796326795
  9
$LOFTANG2
 40
1.570796326795
  9
$LOFTMAG1
 40
0.0
  9
$LOFTMAG2
 40
0.0
  9
$LOFTPARAM
 70
7
  9
$LOFTNORMALS
280
1
  9
$LATITUDE
 40
37.795
  9
$LONGITUDE
 40
-122.394
  9
$NORTHDIRECTION
 40
0.0
  9
$TIMEZONE
 70
-8000
  9
$LIGHTGLYPHDISPLAY
280
1
  9
$TILEMODELIGHTSYNCH
280
1
  9
$CMATERIAL
347
20
  9
$SOLIDHIST
280
0
  9
$SHOWHIST
280
1
  9
$DWFFRAME
280
2
  9
$DGNFRAME
280
2
  9
$REALWORLDSCALE
290
1
  9
$INTERFERECOLOR
 62
256
  9
$CSHADOW
280
0
  9
$SHADOWPLANELOCATION
 40
0.0
  0
ENDSEC
  0
SECTION
  2
CLASSES
  0
CLASS
  1
ACDBDICTIONARYWDFLT
  2
AcDbDictionaryWithDefault
  3
ObjectDBX Classes
 90
0
 91
0
280
0
281
0
  0
CLASS
  1
SUN
  2
AcDbSun
  3
SCENEOE
 90
1153
 91
0
280
0
281
0
  0
CLASS
  1
VISUALSTYLE
  2
AcDbVisualStyle
  3
ObjectDBX Classes
 90
4095
 91
0
280
0
281
0
  0
CLASS
  1
MATERIAL
  2
AcDbMaterial
  3
ObjectDBX Classes
 90
1153
 91
0
280
0
281
0
  0
CLASS
  1
SCALE
  2
AcDbScale
  3
ObjectDBX Classes
 90
1153
 91
0
280
0
281
0
  0
CLASS
  1
TABLESTYLE
  2
AcDbTableStyle
  3
ObjectDBX Classes
 90
4095
 91
0
280
0
281
0
  0
CLASS
  1
MLEADERSTYLE
  2
AcDbMLeaderStyle
  3
ACDB_MLEADERSTYLE_CLASS
 90
4095
 91
0
280
0
281
0
  0
CLASS
  1
DICTIONARYVAR
  2
AcDbDictionaryVar
  3
ObjectDBX Classes
 90
0
 91
0
280
0
281
0
  0
CLASS
  1
CELLSTYLEMAP
  2
AcDbCellStyleMap
  3
ObjectDBX Classes
 90
1152
 91
0
280
0
281
0
  0
CLASS
  1
MENTALRAYRENDERSETTINGS
  2
AcDbMentalRayRenderSettings
  3
SCENEOE
 90
1024
 91
0
280
0
281
0
  0
CLASS
  1
ACDBDETAILVIEWSTYLE
  2
AcDbDetailViewStyle
  3
ObjectDBX Classes
 90
1025
 91
0
280
0
281
0
  0
CLASS
  1
ACDBSECTIONVIEWSTYLE
  2
AcDbSectionViewStyle
  3
ObjectDBX Classes
 90
1025
 91
0
280
0
281
0
  0
CLASS
  1
RASTERVARIABLES
  2
AcDbRasterVariables
  3
ISM
 90
0
 91
0
280
0
281
0
  0
CLASS
  1
ACDBPLACEHOLDER
  2
AcDbPlaceHolder
  3
ObjectDBX Classes
 90
0
 91
0
280
0
281
0
  0
CLASS
  1
LAYOUT
  2
AcDbLayout
  3
ObjectDBX Classes
 90
0
 91
0
280
0
281
0
  0
ENDSEC
  0
SECTION
  2
TABLES
  0
TABLE
  2
VPORT
  5
8
330
0
100
AcDbSymbolTable
 70
1
  0
VPORT
  5
23
330
8
100
AcDbSymbolTableRecord
100
AcDbViewportTableRecord
  2
*Active
 70
0
 10
0.0
 20
0.0
 11
1.0
 21
1.0
 12
0.0
 22
0.0
 13
0.0
 23
0.0
 14
0.5
 24
0.5
 15
0.5
 25
0.5
 16
0.0
 26
0.0
 36
1.0
 17
0.0
 27
0.0
 37
0.0
 40
1000.0
 41
1.34
 42
50.0
 43
0.0
 44
0.0
 50
0.0
 51
0.0
 71
0
 72
1000
 73
1
 74
3
 75
0
 76
0
 77
0
 78
0
281
0
 65
0
146
0.0
  0
ENDTAB
  0
TABLE
  2
LTYPE
  5
2
330
0
100
AcDbSymbolTable
 70
3
  0
LTYPE
  5
24
330
2
100
AcDbSymbolTableRecord
100
AcDbLinetypeTableRecord
  2
ByBlock
 70
0
  3

 72
65
 73
0
 40
0.0
  0
LTYPE
  5
25
330
2
100
AcDbSymbolTableRecord
100
AcDbLinetypeTableRecord
  2
ByLayer
 70
0
  3

 72
65
 73
0
 40
0.0
  0
LTYPE
  5
26
330
2
100
AcDbSymbolTableRecord
100
AcDbLinetypeTableRecord
  2
Continuous
 70
0
  3

 72
65
 73
0
 40
0.0
  0
ENDTAB
  0
TABLE
  2
LAYER
  5
1
330
0
100
AcDbSymbolTable
 70
5
  0
LAYER
  5
27
330
1
100
AcDbSymbolTableRecord
100
AcDbLayerTableRecord
  2
0
 70
0
 62
7
  6
Continuous
370
-3
390
13
347
21
  0
LAYER
  5
28
330
1
100
AcDbSymbolTableRecord
100
AcDbLayerTableRecord
  2
Defpoints
 70
0
 62
7
  6
Continuous
290
0
370
-3
390
13
347
21
  0
LAYER
  5
30
330
1
100
AcDbSymbolTableRecord
100
AcDbLayerTableRecord
  2
FoilLayer
 70
0
 62
1
  6
Continuous
370
50
390
13
347
21
  0
LAYER
  5
31
330
1
100
AcDbSymbolTableRecord
100
AcDbLayerTableRecord
  2
StringerLayer
 70
0
 62
1
  6
Continuous
370
50
390
13
347
21
  0
LAYER
  5
32
330
1
100
AcDbSymbolTableRecord
100
AcDbLayerTableRecord
  2
SubLayer
 70
0
 62
1
  6
Continuous
370
50
390
13
347
21
  0
ENDTAB
  0
TABLE
  2
STYLE
  5
5
330
0
100
AcDbSymbolTable
 70
2
  0
STYLE
  5
29
330
5
100
AcDbSymbolTableRecord
100
AcDbTextStyleTableRecord
  2
Standard
 70
0
 40
0.0
 41
1.0
 50
0.0
 71
0
 42
2.5
  3
txt
  4

  0
STYLE
  5
2F
330
5
100
AcDbSymbolTableRecord
100
AcDbTextStyleTableRecord
  2
MSゴシック
 70
0
 40
0.0
 41
1.0
 50
0.0
 71
0
 42
2.5
  3
romans
  4

  0
ENDTAB
  0
TABLE
  2
VIEW
  5
7
330
0
100
AcDbSymbolTable
 70
0
  0
ENDTAB
  0
TABLE
  2
UCS
  5
6
330
0
100
AcDbSymbolTable
 70
0
  0
ENDTAB
  0
TABLE
  2
APPID
  5
3
330
0
100
AcDbSymbolTable
 70
3
  0
APPID
  5
2A
330
3
100
AcDbSymbolTableRecord
100
AcDbRegAppTableRecord
  2
ACAD
 70
0
  0
APPID
  5
1A0
330
3
100
AcDbSymbolTableRecord
100
AcDbRegAppTableRecord
  2
HATCHBACKGROUNDCOLOR
 70
0
  0
APPID
  5
1A1
330
3
100
AcDbSymbolTableRecord
100
AcDbRegAppTableRecord
  2
EZDXF
 70
0
  0
ENDTAB
  0
TABLE
  2
DIMSTYLE
  5
4
330
0
100
AcDbSymbolTable
 70
1
100
AcDbDimStyleTable
  0
DIMSTYLE
105
2B
330
4
100
AcDbSymbolTableRecord
100
AcDbDimStyleTableRecord
  2
Standard
 70
0
 40
1.0
 41
2.5
 42
0.625
 43
3.75
 44
1.25
 45
0.0
 46
0.0
 47
0.0
 48
0.0
 49
2.5
140
2.5
141
2.5
142
0.0
143
0.03937007874
144
1.0
145
0.0
146
1.0
147
0.625
148
0.0
 69
0
 70
0
 71
0
 72
0
 73
0
 74
0
 75
0
 76
0
 77
1
 78
8
 79
3
170
0
171
3
172
1
173
0
174
0
175
0
176
0
177
0
178
0
179
2
271
2
272
2
273
2
274
3
275
0
276
0
277
2
278
44
279
0
280
0
281
0
282
0
283
0
284
8
285
0
286
0
288
0
289
3
290
0
371
-2
372
-2
  0
ENDTAB
  0
TABLE
  2
BLOCK_RECORD
  5
9
330
0
100
AcDbSymbolTable
 70
2
  0
BLOCK_RECORD
  5
17
330
9
100
AcDbSymbolTableRecord
100
AcDbBlockTableRecord
  2
*Model_Space
340
1A
 70
0
280
1
281
0
  0
BLOCK_RECORD
  5
1B
330
9
100
AcDbSymbolTableRecord
100
AcDbBlockTableRecord
  2
*Paper_Space
340
1E
 70
0
280
1
281
0
  0
ENDTAB
  0
ENDSEC
  0
SECTION
  2
BLOCKS
  0
BLOCK
  5
18
330
17
100
AcDbEntity
  8
0
100
AcDbBlockBegin
  2
*Model_Space
 70
0
 10
0.0
 20
0.0
 30
0.0
  3
*Model_Space
  1

  0
ENDBLK
  5
19
330
17
100
AcDbEntity
  8
0
100
AcDbBlockEnd
  0
BLOCK
  5
1C
330
1B
100
AcDbEntity
  8
0
100
AcDbBlockBegin
  2
*Paper_Space
 70
0
 10
0.0
 20
0.0
 30
0.0
  3
*Paper_Space
  1

  0
ENDBLK
  5
1D
330
1B
100
AcDbEntity
  8
0
100
AcDbBlockEnd
  0
ENDSEC
  0
SECTION
  2
ENTITIES
  0
LINE
  5
33
330
17
100
AcDbEntity
  8
FoilLayer
100
AcDbLine
 10
212.40133980991743
 20
36.128857374837914
 30
0.0
 11
26.613636363636346
 21
-6.899739325370819
 31
0.0
  0
LINE
  5
34
330
17
100
AcDbEntity
  8
FoilLayer
100
AcDbLine
 10
345.97727272727235
 20
0.02661443479668024
 30
0.0
 11
345.87081498808567
 21
0.06387464351203256
 31
0.0
  0
LINE
  5
35
330
17
100
AcDbEntity
  8
FoilLayer
100
AcDbLine
 10
345.87081498808567
 20
0.06387464351203256
 30
0.0
 11
345.55676465748485
 21
0.17033238269875348
 31
0.0
  0
LINE
  5
36
330
17
100
AcDbEntity
  8
FoilLayer
100
AcDbLine
 10
345.55676465748485
 20
0.17033238269875348
 30
0.0
 11
345.0564132833072
 21
0.3459876523568431
 31
0.0
  0
LINE
  5
37
330
17
100
AcDbEntity
  8
FoilLayer
100
AcDbLine
 10
345.0564132833072
 20
0.3459876523568431
 30
0.0
 11
344.3697608655528
 21
0.5855175655269651
 31
0.0
  0
LINE
  5
38
330
17
100
AcDbEntity
  8
FoilLayer
100
AcDbLine
 10
344.3697608655528
 20
0.5855175655269651
 30
0.0
 11
343.50745317814045
 21
0.8835992352497838
 31
0.0
  0
LINE
  5
39
330
17
100
AcDbEntity
  8
FoilLayer
100
AcDbLine
 10
343.50745317814045
 20
0.8835992352497838
 30
0.0
 11
342.46949022106986
 21
1.240232661525299
 31
0.0
  0
LINE
  5
3A
330
17
100
AcDbEntity
  8
FoilLayer
100
AcDbLine
 10
342.46949022106986
 20
1.240232661525299
 30
0.0
 11
341.2665177682599
 21
1.6447720704348385
 31
0.0
  0
LINE
  5
3B
330
17
100
AcDbEntity
  8
FoilLayer
100
AcDbLine
 10
341.2665177682599
 20
1.6447720704348385
 30
0.0
 11
339.8932129327513
 21
2.102540348937739
 31
0.0
  0
LINE
  5
3C
330
17
100
AcDbEntity
  8
FoilLayer
100
AcDbLine
 10
339.8932129327513
 20
2.102540348937739
 30
0.0
 11
338.3602214884625
 21
2.613537497033999
 31
0.0
  0
LINE
  5
3D
330
17
100
AcDbEntity
  8
FoilLayer
100
AcDbLine
 10
338.3602214884625
 20
2.613537497033999
 30
0.0
 11
336.6675434353936
 21
3.1617948538456115
 31
0.0
  0
LINE
  5
3E
330
17
100
AcDbEntity
  8
FoilLayer
100
AcDbLine
 10
336.6675434353936
 20
3.1617948538456115
 30
0.0
 11
334.8151787735447
 21
3.7579581932912496
 31
0.0
  0
LINE
  5
3F
330
17
100
AcDbEntity
  8
FoilLayer
100
AcDbLine
 10
334.8151787735447
 20
3.7579581932912496
 30
0.0
 11
332.80312750291563
 21
4.391381741452237
 31
0.0
  0
LINE
  5
40
330
17
100
AcDbEntity
  8
FoilLayer
100
AcDbLine
 10
332.80312750291563
 20
4.391381741452237
 30
0.0
 11
330.6367125104659
 21
5.062065498328581
 31
0.0
  0
LINE
  5
41
330
17
100
AcDbEntity
  8
FoilLayer
100
AcDbLine
 10
330.6367125104659
 20
5.062065498328581
 30
0.0
 11
328.310610909236
 21
5.775332350879611
 31
0.0
  0
LINE
  5
42
330
17
100
AcDbEntity
  8
FoilLayer
100
AcDbLine
 10
328.310610909236
 20
5.775332350879611
 30
0.0
 11
325.8354684731448
 21
6.525859412145993
 31
0.0
  0
LINE
  5
43
330
17
100
AcDbEntity
  8
FoilLayer
100
AcDbLine
 10
325.8354684731448
 20
6.525859412145993
 30
0.0
 11
323.21128520219213
 21
7.308323795168392
 31
0.0
  0
LINE
  5
44
330
17
100
AcDbEntity
  8
FoilLayer
100
AcDbLine
 10
323.21128520219213
 20
7.308323795168392
 30
0.0
 11
320.43806109637796
 21
8.128048386906142
 31
0.0
  0
LINE
  5
45
330
17
100
AcDbEntity
  8
FoilLayer
100
AcDbLine
 10
320.43806109637796
 20
8.128048386906142
 30
0.0
 11
317.5157961557025
 21
8.97971030039991
 31
0.0
  0
LINE
  5
46
330
17
100
AcDbEntity
  8
FoilLayer
100
AcDbLine
 10
317.5157961557025
 20
8.97971030039991
 30
0.0
 11
314.44449038016563
 21
9.863309535649696
 31
0.0
  0
LINE
  5
47
330
17
100
AcDbEntity
  8
FoilLayer
100
AcDbLine
 10
314.44449038016563
 20
9.863309535649696
 30
0.0
 11
311.22946665672663
 21
10.778846092655495
 31
0.0
  0
LINE
  5
48
330
17
100
AcDbEntity
  8
FoilLayer
100
AcDbLine
 10
311.22946665672663
 20
10.778846092655495
 30
0.0
 11
307.87072498538555
 21
11.736965745335985
 31
0.0
  0
LINE
  5
49
330
17
100
AcDbEntity
  8
FoilLayer
100
AcDbLine
 10
307.87072498538555
 20
11.736965745335985
 30
0.0
 11
304.3735882531018
 21
12.727022719772489
 31
0.0
  0
LINE
  5
4A
330
17
100
AcDbEntity
  8
FoilLayer
100
AcDbLine
 10
304.3735882531018
 20
12.727022719772489
 30
0.0
 11
300.748702233794
 21
13.75966278988368
 31
0.0
  0
LINE
  5
4B
330
17
100
AcDbEntity
  8
FoilLayer
100
AcDbLine
 10
300.748702233794
 20
13.75966278988368
 30
0.0
 11
296.99606692746204
 21
14.818917294791556
 31
0.0
  0
LINE
  5
4C
330
17
100
AcDbEntity
  8
FoilLayer
100
AcDbLine
 10
296.99606692746204
 20
14.818917294791556
 30
0.0
 11
293.1103594471468
 21
15.91543200841478
 31
0.0
  0
LINE
  5
4D
330
17
100
AcDbEntity
  8
FoilLayer
100
AcDbLine
 10
293.1103594471468
 20
15.91543200841478
 30
0.0
 11
289.107548453726
 21
17.043884043794023
 31
0.0
  0
LINE
  5
4E
330
17
100
AcDbEntity
  8
FoilLayer
100
AcDbLine
 10
289.107548453726
 20
17.043884043794023
 30
0.0
 11
284.9876339471999
 21
18.209596287888616
 31
0.0
  0
LINE
  5
4F
330
17
100
AcDbEntity
  8
FoilLayer
100
AcDbLine
 10
284.9876339471999
 20
18.209596287888616
 30
0.0
 11
280.7612617014872
 21
19.401922966779885
 31
0.0
  0
LINE
  5
50
330
17
100
AcDbEntity
  8
FoilLayer
100
AcDbLine
 10
280.7612617014872
 20
19.401922966779885
 30
0.0
 11
276.42843171658757
 21
20.62618696742718
 31
0.0
  0
LINE
  5
51
330
17
100
AcDbEntity
  8
FoilLayer
100
AcDbLine
 10
276.42843171658757
 20
20.62618696742718
 30
0.0
 11
271.9891439925013
 21
21.871742515911816
 31
0.0
  0
LINE
  5
52
330
17
100
AcDbEntity
  8
FoilLayer
100
AcDbLine
 10
271.9891439925013
 20
21.871742515911816
 30
0.0
 11
267.4433985292283
 21
23.14391249919313
 31
0.0
  0
LINE
  5
53
330
17
100
AcDbEntity
  8
FoilLayer
100
AcDbLine
 10
267.4433985292283
 20
23.14391249919313
 30
0.0
 11
262.8071639876466
 21
24.442696917271125
 31
0.0
  0
LINE
  5
54
330
17
100
AcDbEntity
  8
FoilLayer
100
AcDbLine
 10
262.8071639876466
 20
24.442696917271125
 30
0.0
 11
258.0857632547155
 21
25.7680957701458
 31
0.0
  0
LINE
  5
55
330
17
100
AcDbEntity
  8
FoilLayer
100
AcDbLine
 10
258.0857632547155
 20
25.7680957701458
 30
0.0
 11
253.28451921739446
 21
27.109463283898485
 31
0.0
  0
LINE
  5
56
330
17
100
AcDbEntity
  8
FoilLayer
100
AcDbLine
 10
253.28451921739446
 20
27.109463283898485
 30
0.0
 11
248.3981089887239
 21
28.461476571569843
 31
0.0
  0
LINE
  5
57
330
17
100
AcDbEntity
  8
FoilLayer
100
AcDbLine
 10
248.3981089887239
 20
28.461476571569843
 30
0.0
 11
243.43185545566342
 21
29.829458520119207
 31
0.0
  0
LINE
  5
58
330
17
100
AcDbEntity
  8
FoilLayer
100
AcDbLine
 10
243.43185545566342
 20
29.829458520119207
 30
0.0
 11
238.39108150517217
 21
31.213409129546577
 31
0.0
  0
LINE
  5
59
330
17
100
AcDbEntity
  8
FoilLayer
100
AcDbLine
 10
238.39108150517217
 20
31.213409129546577
 30
0.0
 11
233.2864329111689
 21
32.61332839985196
 31
0.0
  0
LINE
  5
5A
330
17
100
AcDbEntity
  8
FoilLayer
100
AcDbLine
 10
233.2864329111689
 20
32.61332839985196
 30
0.0
 11
228.12323256061296
 21
34.023893444076016
 31
0.0
  0
LINE
  5
5B
330
17
100
AcDbEntity
  8
FoilLayer
100
AcDbLine
 10
228.12323256061296
 20
34.023893444076016
 30
0.0
 11
222.90680334046357
 21
35.42381271438139
 31
0.0
  0
LINE
  5
5C
330
17
100
AcDbEntity
  8
FoilLayer
100
AcDbLine
 10
222.90680334046357
 20
35.42381271438139
 30
0.0
 11
217.63182236376161
 21
36.823731984686766
 31
0.0
  0
LINE
  5
5D
330
17
100
AcDbEntity
  8
FoilLayer
100
AcDbLine
 10
217.63182236376161
 20
36.823731984686766
 30
0.0
 11
212.9090909090907
 21
38.06333115891676
 31
0.0
  0
LINE
  5
5E
330
17
100
AcDbEntity
  8
FoilLayer
100
AcDbLine
 10
212.9090909090907
 20
38.06333115891676
 30
0.0
 11
212.40133980991743
 21
36.128857374837914
 31
0.0
  0
LINE
  5
5F
330
17
100
AcDbEntity
  8
FoilLayer
100
AcDbLine
 10
212.40133980991743
 20
36.128857374837914
 30
0.0
 11
211.7978958003469
 21
36.287261311117774
 31
0.0
  0
LINE
  5
60
330
17
100
AcDbEntity
  8
FoilLayer
100
AcDbLine
 10
211.7978958003469
 20
36.287261311117774
 30
0.0
 11
206.42904281793267
 21
37.674672488908996
 31
0.0
  0
LINE
  5
61
330
17
100
AcDbEntity
  8
FoilLayer
100
AcDbLine
 10
206.42904281793267
 20
37.674672488908996
 30
0.0
 11
201.0192937242075
 21
39.05104516612906
 31
0.0
  0
LINE
  5
62
330
17
100
AcDbEntity
  8
FoilLayer
100
AcDbLine
 10
201.0192937242075
 20
39.05104516612906
 30
0.0
 11
195.56771926950927
 21
40.41130782833677
 31
0.0
  0
LINE
  5
63
330
17
100
AcDbEntity
  8
FoilLayer
100
AcDbLine
 10
195.56771926950927
 20
40.41130782833677
 30
0.0
 11
190.0610772448722
 21
41.756093453687576
 31
0.0
  0
LINE
  5
64
330
17
100
AcDbEntity
  8
FoilLayer
100
AcDbLine
 10
190.0610772448722
 20
41.756093453687576
 30
0.0
 11
184.51891313356845
 21
43.08579232593756
 31
0.0
  0
LINE
  5
65
330
17
100
AcDbEntity
  8
FoilLayer
100
AcDbLine
 10
184.51891313356845
 20
43.08579232593756
 30
0.0
 11
178.9505573974734
 21
44.40883542023054
 31
0.0
  0
LINE
  5
66
330
17
100
AcDbEntity
  8
FoilLayer
100
AcDbLine
 10
178.9505573974734
 20
44.40883542023054
 30
0.0
 11
173.36797228275861
 21
45.704924943233756
 31
0.0
  0
LINE
  5
67
330
17
100
AcDbEntity
  8
FoilLayer
100
AcDbLine
 10
173.36797228275861
 20
45.704924943233756
 30
0.0
 11
167.77154855201803
 21
46.96868548164465
 31
0.0
  0
LINE
  5
68
330
17
100
AcDbEntity
  8
FoilLayer
100
AcDbLine
 10
167.77154855201803
 20
46.96868548164465
 30
0.0
 11
162.15945746643706
 21
48.19411168142678
 31
0.0
  0
LINE
  5
69
330
17
100
AcDbEntity
  8
FoilLayer
100
AcDbLine
 10
162.15945746643706
 20
48.19411168142678
 30
0.0
 11
156.51574288213118
 21
49.36750818634518
 31
0.0
  0
LINE
  5
6A
330
17
100
AcDbEntity
  8
FoilLayer
100
AcDbLine
 10
156.51574288213118
 20
49.36750818634518
 30
0.0
 11
150.83897235888082
 21
50.50397188210875
 31
0.0
  0
LINE
  5
6B
330
17
100
AcDbEntity
  8
FoilLayer
100
AcDbLine
 10
150.83897235888082
 20
50.50397188210875
 30
0.0
 11
145.1486331483432
 21
51.60282519274761
 31
0.0
  0
LINE
  5
6C
330
17
100
AcDbEntity
  8
FoilLayer
100
AcDbLine
 10
145.1486331483432
 20
51.60282519274761
 30
0.0
 11
139.43243602772577
 21
52.65909323824725
 31
0.0
  0
LINE
  5
6D
330
17
100
AcDbEntity
  8
FoilLayer
100
AcDbLine
 10
139.43243602772577
 20
52.65909323824725
 30
0.0
 11
133.70619860830317
 21
53.66749742355814
 31
0.0
  0
LINE
  5
6E
330
17
100
AcDbEntity
  8
FoilLayer
100
AcDbLine
 10
133.70619860830317
 20
53.66749742355814
 30
0.0
 11
127.9583369275108
 21
54.62820169744732
 31
0.0
  0
LINE
  5
6F
330
17
100
AcDbEntity
  8
FoilLayer
100
AcDbLine
 10
127.9583369275108
 20
54.62820169744732
 30
0.0
 11
122.19474734952195
 21
55.5411108699686
 31
0.0
  0
LINE
  5
70
330
17
100
AcDbEntity
  8
FoilLayer
100
AcDbLine
 10
122.19474734952195
 20
55.5411108699686
 30
0.0
 11
116.40930638787847
 21
56.40634346366112
 31
0.0
  0
LINE
  5
71
330
17
100
AcDbEntity
  8
FoilLayer
100
AcDbLine
 10
116.40930638787847
 20
56.40634346366112
 30
0.0
 11
110.61298110139563
 21
57.22384201458047
 31
0.0
  0
LINE
  5
72
330
17
100
AcDbEntity
  8
FoilLayer
100
AcDbLine
 10
110.61298110139563
 20
57.22384201458047
 30
0.0
 11
104.81157825046722
 21
57.99353992098971
 31
0.0
  0
LINE
  5
73
330
17
100
AcDbEntity
  8
FoilLayer
100
AcDbLine
 10
104.81157825046722
 20
57.99353992098971
 30
0.0
 11
98.9993134106935
 21
58.71549638916567
 31
0.0
  0
LINE
  5
74
330
17
100
AcDbEntity
  8
FoilLayer
100
AcDbLine
 10
98.9993134106935
 20
58.71549638916567
 30
0.0
 11
93.18532741179092
 21
59.38929819096958
 31
0.0
  0
LINE
  5
75
330
17
100
AcDbEntity
  8
FoilLayer
100
AcDbLine
 10
93.18532741179092
 20
59.38929819096958
 30
0.0
 11
87.3624528185826
 21
60.00509379299723
 31
0.0
  0
LINE
  5
76
330
17
100
AcDbEntity
  8
FoilLayer
100
AcDbLine
 10
87.3624528185826
 20
60.00509379299723
 30
0.0
 11
81.53230453542346
 21
60.5732936219437
 31
0.0
  0
LINE
  5
77
330
17
100
AcDbEntity
  8
FoilLayer
100
AcDbLine
 10
81.53230453542346
 20
60.5732936219437
 30
0.0
 11
75.70564466036899
 21
61.09872894690336
 31
0.0
  0
LINE
  5
78
330
17
100
AcDbEntity
  8
FoilLayer
100
AcDbLine
 10
75.70564466036899
 20
61.09872894690336
 30
0.0
 11
69.88075879026246
 21
61.57135575965294
 31
0.0
  0
LINE
  5
79
330
17
100
AcDbEntity
  8
FoilLayer
100
AcDbLine
 10
69.88075879026246
 20
61.57135575965294
 30
0.0
 11
64.06463846121525
 21
62.001276253862784
 31
0.0
  0
LINE
  5
7A
330
17
100
AcDbEntity
  8
FoilLayer
100
AcDbLine
 10
64.06463846121525
 20
62.001276253862784
 30
0.0
 11
58.26471778609462
 21
62.37811372860477
 31
0.0
  0
LINE
  5
7B
330
17
100
AcDbEntity
  8
FoilLayer
100
AcDbLine
 10
58.26471778609462
 20
62.37811372860477
 30
0.0
 11
52.47553638550093
 21
62.70188062180469
 31
0.0
  0
LINE
  5
7C
330
17
100
AcDbEntity
  8
FoilLayer
100
AcDbLine
 10
52.47553638550093
 20
62.70188062180469
 30
0.0
 11
46.695183573051224
 21
62.972652230629386
 31
0.0
  0
LINE
  5
7D
330
17
100
AcDbEntity
  8
FoilLayer
100
AcDbLine
 10
46.695183573051224
 20
62.972652230629386
 30
0.0
 11
40.93084880728844
 21
63.195649023422085
 31
0.0
  0
LINE
  5
7E
330
17
100
AcDbEntity
  8
FoilLayer
100
AcDbLine
 10
40.93084880728844
 20
63.195649023422085
 30
0.0
 11
35.18785635731268
 21
63.370872067568925
 31
0.0
  0
LINE
  5
7F
330
17
100
AcDbEntity
  8
FoilLayer
100
AcDbLine
 10
35.18785635731268
 20
63.370872067568925
 30
0.0
 11
29.47891137821418
 21
63.49829456869595
 31
0.0
  0
LINE
  5
80
330
17
100
AcDbEntity
  8
FoilLayer
100
AcDbLine
 10
29.47891137821418
 20
63.49829456869595
 30
0.0
 11
23.791389096840675
 21
63.57265853202583
 31
0.0
  0
LINE
  5
81
330
17
100
AcDbEntity
  8
FoilLayer
100
AcDbLine
 10
23.791389096840675
 20
63.57265853202583
 30
0.0
 11
18.137878625486195
 21
63.59397944418589
 31
0.0
  0
LINE
  5
82
330
17
100
AcDbEntity
  8
FoilLayer
100
AcDbLine
 10
18.137878625486195
 20
63.59397944418589
 30
0.0
 11
12.50019651465908
 21
63.556877529756186
 31
0.0
  0
LINE
  5
83
330
17
100
AcDbEntity
  8
FoilLayer
100
AcDbLine
 10
12.50019651465908
 20
63.556877529756186
 30
0.0
 11
6.894704218036509
 21
63.47731396445061
 31
0.0
  0
LINE
  5
84
330
17
100
AcDbEntity
  8
FoilLayer
100
AcDbLine
 10
6.894704218036509
 20
63.47731396445061
 30
0.0
 11
1.3358048587784879
 21
63.3554102378297
 31
0.0
  0
LINE
  5
85
330
17
100
AcDbEntity
  8
FoilLayer
100
AcDbLine
 10
1.3358048587784879
 20
63.3554102378297
 30
0.0
 11
-4.187282419403829
 21
63.18040826971848
 31
0.0
  0
LINE
  5
86
330
17
100
AcDbEntity
  8
FoilLayer
100
AcDbLine
 10
-4.187282419403829
 20
63.18040826971848
 30
0.0
 11
-9.653208409230615
 21
62.95786306526559
 31
0.0
  0
LINE
  5
87
330
17
100
AcDbEntity
  8
FoilLayer
100
AcDbLine
 10
-9.653208409230615
 20
62.95786306526559
 30
0.0
 11
-15.085401256533316
 21
62.67679007068169
 31
0.0
  0
LINE
  5
88
330
17
100
AcDbEntity
  8
FoilLayer
100
AcDbLine
 10
-15.085401256533316
 20
62.67679007068169
 30
0.0
 11
-20.474750184017182
 21
62.34800048199348
 31
0.0
  0
LINE
  5
89
330
17
100
AcDbEntity
  8
FoilLayer
100
AcDbLine
 10
-20.474750184017182
 20
62.34800048199348
 30
0.0
 11
-25.822764846671504
 21
61.97138179391753
 31
0.0
  0
LINE
  5
8A
330
17
100
AcDbEntity
  8
FoilLayer
100
AcDbLine
 10
-25.822764846671504
 20
61.97138179391753
 30
0.0
 11
-31.111698695402794
 21
61.5523804537259
 31
0.0
  0
LINE
  5
8B
330
17
100
AcDbEntity
  8
FoilLayer
100
AcDbLine
 10
-31.111698695402794
 20
61.5523804537259
 30
0.0
 11
-36.33250885734458
 21
61.091378217061965
 31
0.0
  0
LINE
  5
8C
330
17
100
AcDbEntity
  8
FoilLayer
100
AcDbLine
 10
-36.33250885734458
 20
61.091378217061965
 30
0.0
 11
-41.4925256499715
 21
60.577647824562526
 31
0.0
  0
LINE
  5
8D
330
17
100
AcDbEntity
  8
FoilLayer
100
AcDbLine
 10
-41.4925256499715
 20
60.577647824562526
 30
0.0
 11
-46.60480384180843
 21
60.004994873069634
 31
0.0
  0
LINE
  5
8E
330
17
100
AcDbEntity
  8
FoilLayer
100
AcDbLine
 10
-46.60480384180843
 20
60.004994873069634
 30
0.0
 11
-51.65788268304226
 21
59.390028291198114
 31
0.0
  0
LINE
  5
8F
330
17
100
AcDbEntity
  8
FoilLayer
100
AcDbLine
 10
-51.65788268304226
 20
59.390028291198114
 30
0.0
 11
-56.64665926191759
 21
58.732737088989765
 31
0.0
  0
LINE
  5
90
330
17
100
AcDbEntity
  8
FoilLayer
100
AcDbLine
 10
-56.64665926191759
 20
58.732737088989765
 30
0.0
 11
-61.57259295610696
 21
58.03291311101319
 31
0.0
  0
LINE
  5
91
330
17
100
AcDbEntity
  8
FoilLayer
100
AcDbLine
 10
-61.57259295610696
 20
58.03291311101319
 30
0.0
 11
-66.41888324934928
 21
57.29685188984424
 31
0.0
  0
LINE
  5
92
330
17
100
AcDbEntity
  8
FoilLayer
100
AcDbLine
 10
-66.41888324934928
 20
57.29685188984424
 30
0.0
 11
-71.18542779979869
 21
56.51317097945446
 31
0.0
  0
LINE
  5
93
330
17
100
AcDbEntity
  8
FoilLayer
100
AcDbLine
 10
-71.18542779979869
 20
56.51317097945446
 30
0.0
 11
-75.88439188210332
 21
55.681581121205014
 31
0.0
  0
LINE
  5
94
330
17
100
AcDbEntity
  8
FoilLayer
100
AcDbLine
 10
-75.88439188210332
 20
55.681581121205014
 30
0.0
 11
-80.51275011595726
 21
54.80795655924367
 31
0.0
  0
LINE
  5
95
330
17
100
AcDbEntity
  8
FoilLayer
100
AcDbLine
 10
-80.51275011595726
 20
54.80795655924367
 30
0.0
 11
-85.06281681702815
 21
53.89171908692022
 31
0.0
  0
LINE
  5
96
330
17
100
AcDbEntity
  8
FoilLayer
100
AcDbLine
 10
-85.06281681702815
 20
53.89171908692022
 30
0.0
 11
-89.53414071595579
 21
52.938239514598756
 31
0.0
  0
LINE
  5
97
330
17
100
AcDbEntity
  8
FoilLayer
100
AcDbLine
 10
-89.53414071595579
 20
52.938239514598756
 30
0.0
 11
-93.91627676669445
 21
51.95401826148335
 31
0.0
  0
LINE
  5
98
330
17
100
AcDbEntity
  8
FoilLayer
100
AcDbLine
 10
-93.91627676669445
 20
51.95401826148335
 30
0.0
 11
-98.19885513607235
 21
50.933830042406015
 31
0.0
  0
LINE
  5
99
330
17
100
AcDbEntity
  8
FoilLayer
100
AcDbLine
 10
-98.19885513607235
 20
50.933830042406015
 30
0.0
 11
-102.40250688720415
 21
49.865949125281816
 31
0.0
  0
LINE
  5
9A
330
17
100
AcDbEntity
  8
FoilLayer
100
AcDbLine
 10
-102.40250688720415
 20
49.865949125281816
 30
0.0
 11
-106.52249415793958
 21
48.7554942665774
 31
0.0
  0
LINE
  5
9B
330
17
100
AcDbEntity
  8
FoilLayer
100
AcDbLine
 10
-106.52249415793958
 20
48.7554942665774
 30
0.0
 11
-110.5621777566254
 21
47.606725892201
 31
0.0
  0
LINE
  5
9C
330
17
100
AcDbEntity
  8
FoilLayer
100
AcDbLine
 10
-110.5621777566254
 20
47.606725892201
 30
0.0
 11
-114.49877449436912
 21
46.4391958608273
 31
0.0
  0
LINE
  5
9D
330
17
100
AcDbEntity
  8
FoilLayer
100
AcDbLine
 10
-114.49877449436912
 20
46.4391958608273
 30
0.0
 11
-118.34475290779095
 21
45.23493064254751
 31
0.0
  0
LINE
  5
9E
330
17
100
AcDbEntity
  8
FoilLayer
100
AcDbLine
 10
-118.34475290779095
 20
45.23493064254751
 30
0.0
 11
-122.09016070357136
 21
43.999026233992346
 31
0.0
  0
LINE
  5
9F
330
17
100
AcDbEntity
  8
FoilLayer
100
AcDbLine
 10
-122.09016070357136
 20
43.999026233992346
 30
0.0
 11
-125.74232224037182
 21
42.73267228675991
 31
0.0
  0
LINE
  5
A0
330
17
100
AcDbEntity
  8
FoilLayer
100
AcDbLine
 10
-125.74232224037182
 20
42.73267228675991
 30
0.0
 11
-129.29653452733783
 21
41.4337494184082
 31
0.0
  0
LINE
  5
A1
330
17
100
AcDbEntity
  8
FoilLayer
100
AcDbLine
 10
-129.29653452733783
 20
41.4337494184082
 30
0.0
 11
-132.7597777981253
 21
40.10888849729148
 31
0.0
  0
LINE
  5
A2
330
17
100
AcDbEntity
  8
FoilLayer
100
AcDbLine
 10
-132.7597777981253
 20
40.10888849729148
 30
0.0
 11
-136.11963141647095
 21
38.76419104400145
 31
0.0
  0
LINE
  5
A3
330
17
100
AcDbEntity
  8
FoilLayer
100
AcDbLine
 10
-136.11963141647095
 20
38.76419104400145
 30
0.0
 11
-139.37166285918835
 21
37.3994086561988
 31
0.0
  0
LINE
  5
A4
330
17
100
AcDbEntity
  8
FoilLayer
100
AcDbLine
 10
-139.37166285918835
 20
37.3994086561988
 30
0.0
 11
-142.51322574881985
 21
36.01586835579717
 31
0.0
  0
LINE
  5
A5
330
17
100
AcDbEntity
  8
FoilLayer
100
AcDbLine
 10
-142.51322574881985
 20
36.01586835579717
 30
0.0
 11
-145.55329783308602
 21
34.60417139522559
 31
0.0
  0
LINE
  5
A6
330
17
100
AcDbEntity
  8
FoilLayer
100
AcDbLine
 10
-145.55329783308602
 20
34.60417139522559
 30
0.0
 11
-148.48826145993718
 21
33.1791978095149
 31
0.0
  0
LINE
  5
A7
330
17
100
AcDbEntity
  8
FoilLayer
100
AcDbLine
 10
-148.48826145993718
 20
33.1791978095149
 30
0.0
 11
-151.3257692586856
 21
31.73184459362699
 31
0.0
  0
LINE
  5
A8
330
17
100
AcDbEntity
  8
FoilLayer
100
AcDbLine
 10
-151.3257692586856
 20
31.73184459362699
 30
0.0
 11
-154.04447095365688
 21
30.28381698636353
 31
0.0
  0
LINE
  5
A9
330
17
100
AcDbEntity
  8
FoilLayer
100
AcDbLine
 10
-154.04447095365688
 20
30.28381698636353
 30
0.0
 11
-156.6560390713245
 21
28.81820398492286
 31
0.0
  0
LINE
  5
AA
330
17
100
AcDbEntity
  8
FoilLayer
100
AcDbLine
 10
-156.6560390713245
 20
28.81820398492286
 30
0.0
 11
-159.13935889357305
 21
27.3603843510447
 31
0.0
  0
LINE
  5
AB
330
17
100
AcDbEntity
  8
FoilLayer
100
AcDbLine
 10
-159.13935889357305
 20
27.3603843510447
 30
0.0
 11
-161.5125690903977
 21
25.881830924434038
 31
0.0
  0
LINE
  5
AC
330
17
100
AcDbEntity
  8
FoilLayer
100
AcDbLine
 10
-161.5125690903977
 20
25.881830924434038
 30
0.0
 11
-163.77210439801803
 21
24.39186254064872
 31
0.0
  0
LINE
  5
AD
330
17
100
AcDbEntity
  8
FoilLayer
100
AcDbLine
 10
-163.77210439801803
 20
24.39186254064872
 30
0.0
 11
-165.93297718726572
 21
22.89088358451616
 31
0.0
  0
LINE
  5
AE
330
17
100
AcDbEntity
  8
FoilLayer
100
AcDbLine
 10
-165.93297718726572
 20
22.89088358451616
 30
0.0
 11
-167.97581291442495
 21
21.40137291728491
 31
0.0
  0
LINE
  5
AF
330
17
100
AcDbEntity
  8
FoilLayer
100
AcDbLine
 10
-167.97581291442495
 20
21.40137291728491
 30
0.0
 11
-169.8957684677539
 21
19.919487253693834
 31
0.0
  0
LINE
  5
B0
330
17
100
AcDbEntity
  8
FoilLayer
100
AcDbLine
 10
-169.8957684677539
 20
19.919487253693834
 30
0.0
 11
-171.68858638581986
 21
18.45380037178885
 31
0.0
  0
LINE
  5
B1
330
17
100
AcDbEntity
  8
FoilLayer
100
AcDbLine
 10
-171.68858638581986
 20
18.45380037178885
 30
0.0
 11
-173.36146282120043
 21
16.983919947198512
 31
0.0
  0
LINE
  5
B2
330
17
100
AcDbEntity
  8
FoilLayer
100
AcDbLine
 10
-173.36146282120043
 20
16.983919947198512
 30
0.0
 11
-174.92243635141452
 21
15.512267882372234
 31
0.0
  0
LINE
  5
B3
330
17
100
AcDbEntity
  8
FoilLayer
100
AcDbLine
 10
-174.92243635141452
 20
15.512267882372234
 30
0.0
 11
-176.36677745563733
 21
14.059607625785237
 31
0.0
  0
LINE
  5
B4
330
17
100
AcDbEntity
  8
FoilLayer
100
AcDbLine
 10
-176.36677745563733
 20
14.059607625785237
 30
0.0
 11
-177.69904903717034
 21
12.615963575987962
 31
0.0
  0
LINE
  5
B5
330
17
100
AcDbEntity
  8
FoilLayer
100
AcDbLine
 10
-177.69904903717034
 20
12.615963575987962
 30
0.0
 11
-178.90942857513195
 21
11.210281304480336
 31
0.0
  0
LINE
  5
B6
330
17
100
AcDbEntity
  8
FoilLayer
100
AcDbLine
 10
-178.90942857513195
 20
11.210281304480336
 30
0.0
 11
-180.0014569568279
 21
9.821668015229871
 31
0.0
  0
LINE
  5
B7
330
17
100
AcDbEntity
  8
FoilLayer
100
AcDbLine
 10
-180.0014569568279
 20
9.821668015229871
 30
0.0
 11
-180.96671219478475
 21
8.478713160073427
 31
0.0
  0
LINE
  5
B8
330
17
100
AcDbEntity
  8
FoilLayer
100
AcDbLine
 10
-180.96671219478475
 20
8.478713160073427
 30
0.0
 11
-181.8049777713128
 21
7.180737258757124
 31
0.0
  0
LINE
  5
B9
330
17
100
AcDbEntity
  8
FoilLayer
100
AcDbLine
 10
-181.8049777713128
 20
7.180737258757124
 30
0.0
 11
-182.5285191422968
 21
5.899045040262903
 31
0.0
  0
LINE
  5
BA
330
17
100
AcDbEntity
  8
FoilLayer
100
AcDbLine
 10
-182.5285191422968
 20
5.899045040262903
 30
0.0
 11
-183.1046822048587
 21
4.734584229883104
 31
0.0
  0
LINE
  5
BB
330
17
100
AcDbEntity
  8
FoilLayer
100
AcDbLine
 10
-183.1046822048587
 20
4.734584229883104
 30
0.0
 11
-183.60581505131526
 21
3.442655650731507
 31
0.0
  0
LINE
  5
BC
330
17
100
AcDbEntity
  8
FoilLayer
100
AcDbLine
 10
-183.60581505131526
 20
3.442655650731507
 30
0.0
 11
-183.93249603284283
 21
2.553809944199816
 31
0.0
  0
LINE
  5
BD
330
17
100
AcDbEntity
  8
FoilLayer
100
AcDbLine
 10
-183.93249603284283
 20
2.553809944199816
 30
0.0
 11
-184.17142561170914
 21
1.3643062020731525
 31
0.0
  0
LINE
  5
BE
330
17
100
AcDbEntity
  8
FoilLayer
100
AcDbLine
 10
-184.17142561170914
 20
1.3643062020731525
 30
0.0
 11
-184.29545454545433
 21
0.1596866087800814
 31
0.0
  0
LINE
  5
BF
330
17
100
AcDbEntity
  8
FoilLayer
100
AcDbLine
 10
-184.29545454545433
 20
0.1596866087800814
 30
0.0
 11
-184.30377913903288
 21
-0.05418995601841867
 31
0.0
  0
LINE
  5
C0
330
17
100
AcDbEntity
  8
FoilLayer
100
AcDbLine
 10
-184.30377913903288
 20
-0.05418995601841867
 30
0.0
 11
-184.22275679711015
 21
-1.0754212057251231
 31
0.0
  0
LINE
  5
C1
330
17
100
AcDbEntity
  8
FoilLayer
100
AcDbLine
 10
-184.22275679711015
 20
-1.0754212057251231
 30
0.0
 11
-184.00959723779056
 21
-1.8029134320826832
 31
0.0
  0
LINE
  5
C2
330
17
100
AcDbEntity
  8
FoilLayer
100
AcDbLine
 10
-184.00959723779056
 20
-1.8029134320826832
 30
0.0
 11
-183.68245745230135
 21
-2.5105345414291103
 31
0.0
  0
LINE
  5
C3
330
17
100
AcDbEntity
  8
FoilLayer
100
AcDbLine
 10
-183.68245745230135
 20
-2.5105345414291103
 30
0.0
 11
-183.18446459458016
 21
-3.2467238530603555
 31
0.0
  0
LINE
  5
C4
330
17
100
AcDbEntity
  8
FoilLayer
100
AcDbLine
 10
-183.18446459458016
 20
-3.2467238530603555
 30
0.0
 11
-182.5623567430978
 21
-3.9650650611837523
 31
0.0
  0
LINE
  5
C5
330
17
100
AcDbEntity
  8
FoilLayer
100
AcDbLine
 10
-182.5623567430978
 20
-3.9650650611837523
 30
0.0
 11
-181.7818843016847
 21
-4.671653905285526
 31
0.0
  0
LINE
  5
C6
330
17
100
AcDbEntity
  8
FoilLayer
100
AcDbLine
 10
-181.7818843016847
 20
-4.671653905285526
 30
0.0
 11
-180.85756957375952
 21
-5.346579725897026
 31
0.0
  0
LINE
  5
C7
330
17
100
AcDbEntity
  8
FoilLayer
100
AcDbLine
 10
-180.85756957375952
 20
-5.346579725897026
 30
0.0
 11
-179.7541945676767
 21
-5.99098600268816
 31
0.0
  0
LINE
  5
C8
330
17
100
AcDbEntity
  8
FoilLayer
100
AcDbLine
 10
-179.7541945676767
 20
-5.99098600268816
 30
0.0
 11
-178.42316740772225
 21
-6.6158206834833795
 31
0.0
  0
LINE
  5
C9
330
17
100
AcDbEntity
  8
FoilLayer
100
AcDbLine
 10
-178.42316740772225
 20
-6.6158206834833795
 30
0.0
 11
-176.8851829777523
 21
-7.229949712097762
 31
0.0
  0
LINE
  5
CA
330
17
100
AcDbEntity
  8
FoilLayer
100
AcDbLine
 10
-176.8851829777523
 20
-7.229949712097762
 30
0.0
 11
-175.16400818369434
 21
-7.83220562744931
 31
0.0
  0
LINE
  5
CB
330
17
100
AcDbEntity
  8
FoilLayer
100
AcDbLine
 10
-175.16400818369434
 20
-7.83220562744931
 30
0.0
 11
-173.32457376134298
 21
-8.409899482292602
 31
0.0
  0
LINE
  5
CC
330
17
100
AcDbEntity
  8
FoilLayer
100
AcDbLine
 10
-173.32457376134298
 20
-8.409899482292602
 30
0.0
 11
-171.32616793703565
 21
-8.944456177999768
 31
0.0
  0
LINE
  5
CD
330
17
100
AcDbEntity
  8
FoilLayer
100
AcDbLine
 10
-171.32616793703565
 20
-8.944456177999768
 30
0.0
 11
-169.14984295167443
 21
-9.433479942401803
 31
0.0
  0
LINE
  5
CE
330
17
100
AcDbEntity
  8
FoilLayer
100
AcDbLine
 10
-169.14984295167443
 20
-9.433479942401803
 30
0.0
 11
-166.79431924067114
 21
-9.89453250763761
 31
0.0
  0
LINE
  5
CF
330
17
100
AcDbEntity
  8
FoilLayer
100
AcDbLine
 10
-166.79431924067114
 20
-9.89453250763761
 30
0.0
 11
-164.27015432891946
 21
-10.335683596179491
 31
0.0
  0
LINE
  5
D0
330
17
100
AcDbEntity
  8
FoilLayer
100
AcDbLine
 10
-164.27015432891946
 20
-10.335683596179491
 30
0.0
 11
-161.61942368579534
 21
-10.749310851312968
 31
0.0
  0
LINE
  5
D1
330
17
100
AcDbEntity
  8
FoilLayer
100
AcDbLine
 10
-161.61942368579534
 20
-10.749310851312968
 30
0.0
 11
-158.82113612164636
 21
-11.116625741651097
 31
0.0
  0
LINE
  5
D2
330
17
100
AcDbEntity
  8
FoilLayer
100
AcDbLine
 10
-158.82113612164636
 20
-11.116625741651097
 30
0.0
 11
-155.86411362368355
 21
-11.43788493957156
 31
0.0
  0
LINE
  5
D3
330
17
100
AcDbEntity
  8
FoilLayer
100
AcDbLine
 10
-155.86411362368355
 20
-11.43788493957156
 30
0.0
 11
-152.7287612235777
 21
-11.723510430233446
 31
0.0
  0
LINE
  5
D4
330
17
100
AcDbEntity
  8
FoilLayer
100
AcDbLine
 10
-152.7287612235777
 20
-11.723510430233446
 30
0.0
 11
-149.43656136821696
 21
-11.988244323438387
 31
0.0
  0
LINE
  5
D5
330
17
100
AcDbEntity
  8
FoilLayer
100
AcDbLine
 10
-149.43656136821696
 20
-11.988244323438387
 30
0.0
 11
-146.01307310075714
 21
-12.231436502023536
 31
0.0
  0
LINE
  5
D6
330
17
100
AcDbEntity
  8
FoilLayer
100
AcDbLine
 10
-146.01307310075714
 20
-12.231436502023536
 30
0.0
 11
-142.46894658360415
 21
-12.437393378443259
 31
0.0
  0
LINE
  5
D7
330
17
100
AcDbEntity
  8
FoilLayer
100
AcDbLine
 10
-142.46894658360415
 20
-12.437393378443259
 30
0.0
 11
-138.77593268431679
 21
-12.59095332864287
 31
0.0
  0
LINE
  5
D8
330
17
100
AcDbEntity
  8
FoilLayer
100
AcDbLine
 10
-138.77593268431679
 20
-12.59095332864287
 30
0.0
 11
-134.93512677959282
 21
-12.707585620523487
 31
0.0
  0
LINE
  5
D9
330
17
100
AcDbEntity
  8
FoilLayer
100
AcDbLine
 10
-134.93512677959282
 20
-12.707585620523487
 30
0.0
 11
-130.92791664290297
 21
-12.792540112202186
 31
0.0
  0
LINE
  5
DA
330
17
100
AcDbEntity
  8
FoilLayer
100
AcDbLine
 10
-130.92791664290297
 20
-12.792540112202186
 30
0.0
 11
-126.79973971744484
 21
-12.856216273542518
 31
0.0
  0
LINE
  5
DB
330
17
100
AcDbEntity
  8
FoilLayer
100
AcDbLine
 10
-126.79973971744484
 20
-12.856216273542518
 30
0.0
 11
-122.54517841963819
 21
-12.882805129310231
 31
0.0
  0
LINE
  5
DC
330
17
100
AcDbEntity
  8
FoilLayer
100
AcDbLine
 10
-122.54517841963819
 20
-12.882805129310231
 30
0.0
 11
-118.16699910026627
 21
-12.866989554816623
 31
0.0
  0
LINE
  5
DD
330
17
100
AcDbEntity
  8
FoilLayer
100
AcDbLine
 10
-118.16699910026627
 20
-12.866989554816623
 30
0.0
 11
-113.63714497020733
 21
-12.808602017465699
 31
0.0
  0
LINE
  5
DE
330
17
100
AcDbEntity
  8
FoilLayer
100
AcDbLine
 10
-113.63714497020733
 20
-12.808602017465699
 30
0.0
 11
-108.958626517934
 21
-12.72354595187084
 31
0.0
  0
LINE
  5
DF
330
17
100
AcDbEntity
  8
FoilLayer
100
AcDbLine
 10
-108.958626517934
 20
-12.72354595187084
 30
0.0
 11
-104.15130855326758
 21
-12.622643329701315
 31
0.0
  0
LINE
  5
E0
330
17
100
AcDbEntity
  8
FoilLayer
100
AcDbLine
 10
-104.15130855326758
 20
-12.622643329701315
 30
0.0
 11
-99.24330696867176
 21
-12.495362039549887
 31
0.0
  0
LINE
  5
E1
330
17
100
AcDbEntity
  8
FoilLayer
100
AcDbLine
 10
-99.24330696867176
 20
-12.495362039549887
 30
0.0
 11
-94.21328019196065
 21
-12.32542174409629
 31
0.0
  0
LINE
  5
E2
330
17
100
AcDbEntity
  8
FoilLayer
100
AcDbLine
 10
-94.21328019196065
 20
-12.32542174409629
 30
0.0
 11
-89.06014524293225
 21
-12.123571745908475
 31
0.0
  0
LINE
  5
E3
330
17
100
AcDbEntity
  8
FoilLayer
100
AcDbLine
 10
-89.06014524293225
 20
-12.123571745908475
 30
0.0
 11
-83.76383925053464
 21
-11.88936323999286
 31
0.0
  0
LINE
  5
E4
330
17
100
AcDbEntity
  8
FoilLayer
100
AcDbLine
 10
-83.76383925053464
 20
-11.88936323999286
 30
0.0
 11
-78.35130689681594
 21
-11.650115451758415
 31
0.0
  0
LINE
  5
E5
330
17
100
AcDbEntity
  8
FoilLayer
100
AcDbLine
 10
-78.35130689681594
 20
-11.650115451758415
 30
0.0
 11
-72.84463961795186
 21
-11.389680407471777
 31
0.0
  0
LINE
  5
E6
330
17
100
AcDbEntity
  8
FoilLayer
100
AcDbLine
 10
-72.84463961795186
 20
-11.389680407471777
 30
0.0
 11
-67.24529028857128
 21
-11.102836954573888
 31
0.0
  0
LINE
  5
E7
330
17
100
AcDbEntity
  8
FoilLayer
100
AcDbLine
 10
-67.24529028857128
 20
-11.102836954573888
 30
0.0
 11
-61.5301008805331
 21
-10.778545194781312
 31
0.0
  0
LINE
  5
E8
330
17
100
AcDbEntity
  8
FoilLayer
100
AcDbLine
 10
-61.5301008805331
 20
-10.778545194781312
 30
0.0
 11
-55.69396453007391
 21
-10.427100302659076
 31
0.0
  0
LINE
  5
E9
330
17
100
AcDbEntity
  8
FoilLayer
100
AcDbLine
 10
-55.69396453007391
 20
-10.427100302659076
 30
0.0
 11
-53.345240659266864
 21
-10.288321631689277
 31
0.0
  0
LINE
  5
EA
330
17
100
AcDbEntity
  8
FoilLayer
100
AcDbLine
 10
-53.345240659266864
 20
-10.288321631689277
 30
0.0
 11
-53.22727272727266
 21
-12.284839492120534
 31
0.0
  0
LINE
  5
EB
330
17
100
AcDbEntity
  8
FoilLayer
100
AcDbLine
 10
-53.22727272727266
 20
-12.284839492120534
 30
0.0
 11
-49.63033186450133
 21
-12.072307623774153
 31
0.0
  0
LINE
  5
EC
330
17
100
AcDbEntity
  8
FoilLayer
100
AcDbLine
 10
-49.63033186450133
 20
-12.072307623774153
 30
0.0
 11
-43.60482382653291
 21
-11.710351310539304
 31
0.0
  0
LINE
  5
ED
330
17
100
AcDbEntity
  8
FoilLayer
100
AcDbLine
 10
-43.60482382653291
 20
-11.710351310539304
 30
0.0
 11
-37.499472484174476
 21
-11.327103449467108
 31
0.0
  0
LINE
  5
EE
330
17
100
AcDbEntity
  8
FoilLayer
100
AcDbLine
 10
-37.499472484174476
 20
-11.327103449467108
 30
0.0
 11
-31.30363206350728
 21
-10.906595379679558
 31
0.0
  0
LINE
  5
EF
330
17
100
AcDbEntity
  8
FoilLayer
100
AcDbLine
 10
-31.30363206350728
 20
-10.906595379679558
 30
0.0
 11
-25.0119796775721
 21
-10.475441535973339
 31
0.0
  0
LINE
  5
F0
330
17
100
AcDbEntity
  8
FoilLayer
100
AcDbLine
 10
-25.0119796775721
 20
-10.475441535973339
 30
0.0
 11
-18.629838213328156
 21
-10.044287692267119
 31
0.0
  0
LINE
  5
F1
330
17
100
AcDbEntity
  8
FoilLayer
100
AcDbLine
 10
-18.629838213328156
 20
-10.044287692267119
 30
0.0
 11
-12.178499218612899
 21
-9.618456735520237
 31
0.0
  0
LINE
  5
F2
330
17
100
AcDbEntity
  8
FoilLayer
100
AcDbLine
 10
-12.178499218612899
 20
-9.618456735520237
 30
0.0
 11
-5.668608467344882
 21
-9.166011343976672
 31
0.0
  0
LINE
  5
F3
330
17
100
AcDbEntity
  8
FoilLayer
100
AcDbLine
 10
-5.668608467344882
 20
-9.166011343976672
 30
0.0
 11
0.9104798143944492
 21
-8.697597291555102
 31
0.0
  0
LINE
  5
F4
330
17
100
AcDbEntity
  8
FoilLayer
100
AcDbLine
 10
0.9104798143944492
 20
-8.697597291555102
 30
0.0
 11
7.564088513564485
 21
-8.223860352174192
 31
0.0
  0
LINE
  5
F5
330
17
100
AcDbEntity
  8
FoilLayer
100
AcDbLine
 10
7.564088513564485
 20
-8.223860352174192
 30
0.0
 11
14.281571856246586
 21
-7.750123412793284
 31
0.0
  0
LINE
  5
F6
330
17
100
AcDbEntity
  8
FoilLayer
100
AcDbLine
 10
14.281571856246586
 20
-7.750123412793284
 30
0.0
 11
21.052284068522056
 21
-7.287032247331049
 31
0.0
  0
LINE
  5
F7
330
17
100
AcDbEntity
  8
FoilLayer
100
AcDbLine
 10
21.052284068522056
 20
-7.287032247331049
 30
0.0
 11
27.8549336025535
 21
-6.81329530795014
 31
0.0
  0
LINE
  5
F8
330
17
100
AcDbEntity
  8
FoilLayer
100
AcDbLine
 10
27.8549336025535
 20
-6.81329530795014
 30
0.0
 11
34.70548911921901
 21
-6.323589707691223
 31
0.0
  0
LINE
  5
F9
330
17
100
AcDbEntity
  8
FoilLayer
100
AcDbLine
 10
34.70548911921901
 20
-6.323589707691223
 30
0.0
 11
41.60927350547786
 21
-5.833884107432308
 31
0.0
  0
LINE
  5
FA
330
17
100
AcDbEntity
  8
FoilLayer
100
AcDbLine
 10
41.60927350547786
 20
-5.833884107432308
 30
0.0
 11
48.55564098741141
 21
-5.354824281092063
 31
0.0
  0
LINE
  5
FB
330
17
100
AcDbEntity
  8
FoilLayer
100
AcDbLine
 10
48.55564098741141
 20
-5.354824281092063
 30
0.0
 11
55.523300017182294
 21
-4.886410228670491
 31
0.0
  0
LINE
  5
FC
330
17
100
AcDbEntity
  8
FoilLayer
100
AcDbLine
 10
55.523300017182294
 20
-4.886410228670491
 30
0.0
 11
62.50692770783115
 21
-4.412673289289582
 31
0.0
  0
LINE
  5
FD
330
17
100
AcDbEntity
  8
FoilLayer
100
AcDbLine
 10
62.50692770783115
 20
-4.412673289289582
 30
0.0
 11
69.5065240593581
 21
-3.9336134629493387
 31
0.0
  0
LINE
  5
FE
330
17
100
AcDbEntity
  8
FoilLayer
100
AcDbLine
 10
69.5065240593581
 20
-3.9336134629493387
 30
0.0
 11
76.54338061960033
 21
-3.4545536366090936
 31
0.0
  0
LINE
  5
FF
330
17
100
AcDbEntity
  8
FoilLayer
100
AcDbLine
 10
76.54338061960033
 20
-3.4545536366090936
 30
0.0
 11
83.59620584072059
 21
-2.9914624711468583
 31
0.0
  0
LINE
  5
100
330
17
100
AcDbEntity
  8
FoilLayer
100
AcDbLine
 10
83.59620584072059
 20
-2.9914624711468583
 30
0.0
 11
90.64370817488151
 21
-2.5496628535219665
 31
0.0
  0
LINE
  5
101
330
17
100
AcDbEntity
  8
FoilLayer
100
AcDbLine
 10
90.64370817488151
 20
-2.5496628535219665
 30
0.0
 11
97.68056473512371
 21
-2.107863235897075
 31
0.0
  0
LINE
  5
102
330
17
100
AcDbEntity
  8
FoilLayer
100
AcDbLine
 10
97.68056473512371
 20
-2.107863235897075
 30
0.0
 11
104.71209840840669
 21
-1.6554178443535106
 31
0.0
  0
LINE
  5
103
330
17
100
AcDbEntity
  8
FoilLayer
100
AcDbLine
 10
104.71209840840669
 20
-1.6554178443535106
 30
0.0
 11
111.74895496864895
 21
-1.2136182267286186
 31
0.0
  0
LINE
  5
104
330
17
100
AcDbEntity
  8
FoilLayer
100
AcDbLine
 10
111.74895496864895
 20
-1.2136182267286186
 30
0.0
 11
118.77516575497253
 21
-0.793110156941071
 31
0.0
  0
LINE
  5
105
330
17
100
AcDbEntity
  8
FoilLayer
100
AcDbLine
 10
118.77516575497253
 20
-0.793110156941071
 30
0.0
 11
125.7747621064994
 21
-0.38324786107219533
 31
0.0
  0
LINE
  5
106
330
17
100
AcDbEntity
  8
FoilLayer
100
AcDbLine
 10
125.7747621064994
 20
-0.38324786107219533
 30
0.0
 11
132.73177536235164
 21
0.021291547837344185
 31
0.0
  0
LINE
  5
107
330
17
100
AcDbEntity
  8
FoilLayer
100
AcDbLine
 10
132.73177536235164
 20
0.021291547837344185
 30
0.0
 11
139.6674970703665
 21
0.4311538437062198
 31
0.0
  0
LINE
  5
108
330
17
100
AcDbEntity
  8
FoilLayer
100
AcDbLine
 10
139.6674970703665
 20
0.4311538437062198
 30
0.0
 11
146.581927230544
 21
0.8303703656564233
 31
0.0
  0
LINE
  5
109
330
17
100
AcDbEntity
  8
FoilLayer
100
AcDbLine
 10
146.581927230544
 20
0.8303703656564233
 30
0.0
 11
153.46442006896552
 21
1.2082953397692826
 31
0.0
  0
LINE
  5
10A
330
17
100
AcDbEntity
  8
FoilLayer
100
AcDbLine
 10
153.46442006896552
 20
1.2082953397692826
 30
0.0
 11
160.28836115083436
 21
1.5702516530041337
 31
0.0
  0
LINE
  5
10B
330
17
100
AcDbEntity
  8
FoilLayer
100
AcDbLine
 10
160.28836115083436
 20
1.5702516530041337
 30
0.0
 11
167.0590733631098
 21
1.9322079662389848
 31
0.0
  0
LINE
  5
10C
330
17
100
AcDbEntity
  8
FoilLayer
100
AcDbLine
 10
167.0590733631098
 20
1.9322079662389848
 30
0.0
 11
173.78720247971057
 21
2.299487166433172
 31
0.0
  0
LINE
  5
10D
330
17
100
AcDbEntity
  8
FoilLayer
100
AcDbLine
 10
173.78720247971057
 20
2.299487166433172
 30
0.0
 11
180.47274850063667
 21
2.6454748187900154
 31
0.0
  0
LINE
  5
10E
330
17
100
AcDbEntity
  8
FoilLayer
100
AcDbLine
 10
180.47274850063667
 20
2.6454748187900154
 30
0.0
 11
187.10506565196937
 21
2.9648480363501784
 31
0.0
  0
LINE
  5
10F
330
17
100
AcDbEntity
  8
FoilLayer
100
AcDbLine
 10
187.10506565196937
 20
2.9648480363501784
 30
0.0
 11
193.66286238587134
 21
3.268252593032333
 31
0.0
  0
LINE
  5
110
330
17
100
AcDbEntity
  8
FoilLayer
100
AcDbLine
 10
193.66286238587134
 20
3.268252593032333
 30
0.0
 11
200.14613870234268
 21
3.5716571497144876
 31
0.0
  0
LINE
  5
111
330
17
100
AcDbEntity
  8
FoilLayer
100
AcDbLine
 10
200.14613870234268
 20
3.5716571497144876
 30
0.0
 11
206.5708632622613
 21
3.8644159324779697
 31
0.0
  0
LINE
  5
112
330
17
100
AcDbEntity
  8
FoilLayer
100
AcDbLine
 10
206.5708632622613
 20
3.8644159324779697
 30
0.0
 11
212.93171317866785
 21
4.130560280444772
 31
0.0
  0
LINE
  5
113
330
17
100
AcDbEntity
  8
FoilLayer
100
AcDbLine
 10
212.93171317866785
 20
4.130560280444772
 30
0.0
 11
219.21271979068445
 21
4.3594444196962225
 31
0.0
  0
LINE
  5
114
330
17
100
AcDbEntity
  8
FoilLayer
100
AcDbLine
 10
219.21271979068445
 20
4.3594444196962225
 30
0.0
 11
225.4032373243922
 21
4.561714124150992
 31
0.0
  0
LINE
  5
115
330
17
100
AcDbEntity
  8
FoilLayer
100
AcDbLine
 10
225.4032373243922
 20
4.561714124150992
 30
0.0
 11
231.49262000587265
 21
4.753338054687089
 31
0.0
  0
LINE
  5
116
330
17
100
AcDbEntity
  8
FoilLayer
100
AcDbLine
 10
231.49262000587265
 20
4.753338054687089
 30
0.0
 11
237.50215938296304
 21
4.918347550426508
 31
0.0
  0
LINE
  5
117
330
17
100
AcDbEntity
  8
FoilLayer
100
AcDbLine
 10
237.50215938296304
 20
4.918347550426508
 30
0.0
 11
243.41588679478542
 21
5.0407739504912366
 31
0.0
  0
LINE
  5
118
330
17
100
AcDbEntity
  8
FoilLayer
100
AcDbLine
 10
243.41588679478542
 20
5.0407739504912366
 30
0.0
 11
249.21251069350234
 21
5.120617254881277
 31
0.0
  0
LINE
  5
119
330
17
100
AcDbEntity
  8
FoilLayer
100
AcDbLine
 10
249.21251069350234
 20
5.120617254881277
 30
0.0
 11
254.8760624182359
 21
5.173846124474637
 31
0.0
  0
LINE
  5
11A
330
17
100
AcDbEntity
  8
FoilLayer
100
AcDbLine
 10
254.8760624182359
 20
5.173846124474637
 30
0.0
 11
260.42251062986406
 21
5.211106333189989
 31
0.0
  0
LINE
  5
11B
330
17
100
AcDbEntity
  8
FoilLayer
100
AcDbLine
 10
260.42251062986406
 20
5.211106333189989
 30
0.0
 11
265.8518553283868
 21
5.216429220149325
 31
0.0
  0
LINE
  5
11C
330
17
100
AcDbEntity
  8
FoilLayer
100
AcDbLine
 10
265.8518553283868
 20
5.216429220149325
 30
0.0
 11
271.14812785292617
 21
5.179169011433973
 31
0.0
  0
LINE
  5
11D
330
17
100
AcDbEntity
  8
FoilLayer
100
AcDbLine
 10
271.14812785292617
 20
5.179169011433973
 30
0.0
 11
276.29535954260416
 21
5.109971480962605
 31
0.0
  0
LINE
  5
11E
330
17
100
AcDbEntity
  8
FoilLayer
100
AcDbLine
 10
276.29535954260416
 20
5.109971480962605
 30
0.0
 11
281.282904623502
 21
5.019482402653892
 31
0.0
  0
LINE
  5
11F
330
17
100
AcDbEntity
  8
FoilLayer
100
AcDbLine
 10
281.282904623502
 20
5.019482402653892
 30
0.0
 11
286.12673175649786
 21
4.907701776507834
 31
0.0
  0
LINE
  5
120
330
17
100
AcDbEntity
  8
FoilLayer
100
AcDbLine
 10
286.12673175649786
 20
4.907701776507834
 30
0.0
 11
290.8215180546322
 21
4.769306715565097
 31
0.0
  0
LINE
  5
121
330
17
100
AcDbEntity
  8
FoilLayer
100
AcDbLine
 10
290.8215180546322
 20
4.769306715565097
 30
0.0
 11
295.3512948570272
 21
4.598974332866344
 31
0.0
  0
LINE
  5
122
330
17
100
AcDbEntity
  8
FoilLayer
100
AcDbLine
 10
295.3512948570272
 20
4.598974332866344
 30
0.0
 11
299.7054163897641
 21
4.40202751537091
 31
0.0
  0
LINE
  5
123
330
17
100
AcDbEntity
  8
FoilLayer
100
AcDbLine
 10
299.7054163897641
 20
4.40202751537091
 30
0.0
 11
303.88388265284283
 21
4.199757810916141
 31
0.0
  0
LINE
  5
124
330
17
100
AcDbEntity
  8
FoilLayer
100
AcDbLine
 10
303.88388265284283
 20
4.199757810916141
 30
0.0
 11
307.8973394201823
 21
3.976196558624027
 31
0.0
  0
LINE
  5
125
330
17
100
AcDbEntity
  8
FoilLayer
100
AcDbLine
 10
307.8973394201823
 20
3.976196558624027
 30
0.0
 11
311.7351409178636
 21
3.7313437584945692
 31
0.0
  0
LINE
  5
126
330
17
100
AcDbEntity
  8
FoilLayer
100
AcDbLine
 10
311.7351409178636
 20
3.7313437584945692
 30
0.0
 11
315.3759955980494
 21
3.454553636609094
 31
0.0
  0
LINE
  5
127
330
17
100
AcDbEntity
  8
FoilLayer
100
AcDbLine
 10
315.3759955980494
 20
3.454553636609094
 30
0.0
 11
318.8199034607399
 21
3.172440627764284
 31
0.0
  0
LINE
  5
128
330
17
100
AcDbEntity
  8
FoilLayer
100
AcDbLine
 10
318.8199034607399
 20
3.172440627764284
 30
0.0
 11
322.0615416189755
 21
2.8903276189194735
 31
0.0
  0
LINE
  5
129
330
17
100
AcDbEntity
  8
FoilLayer
100
AcDbLine
 10
322.0615416189755
 20
2.8903276189194735
 30
0.0
 11
325.11687873363445
 21
2.608214610074663
 31
0.0
  0
LINE
  5
12A
330
17
100
AcDbEntity
  8
FoilLayer
100
AcDbLine
 10
325.11687873363445
 20
2.608214610074663
 30
0.0
 11
327.9699461438385
 21
2.3207787142705163
 31
0.0
  0
LINE
  5
12B
330
17
100
AcDbEntity
  8
FoilLayer
100
AcDbLine
 10
327.9699461438385
 20
2.3207787142705163
 30
0.0
 11
330.6207438495879
 21
2.0280199315070337
 31
0.0
  0
LINE
  5
12C
330
17
100
AcDbEntity
  8
FoilLayer
100
AcDbLine
 10
330.6207438495879
 20
2.0280199315070337
 30
0.0
 11
333.0639489639231
 21
1.7405840357028872
 31
0.0
  0
LINE
  5
12D
330
17
100
AcDbEntity
  8
FoilLayer
100
AcDbLine
 10
333.0639489639231
 20
1.7405840357028872
 30
0.0
 11
335.28891571292553
 21
1.4584710268580767
 31
0.0
  0
LINE
  5
12E
330
17
100
AcDbEntity
  8
FoilLayer
100
AcDbLine
 10
335.28891571292553
 20
1.4584710268580767
 30
0.0
 11
337.3062898705139
 21
1.1923266788912743
 31
0.0
  0
LINE
  5
12F
330
17
100
AcDbEntity
  8
FoilLayer
100
AcDbLine
 10
337.3062898705139
 20
1.1923266788912743
 30
0.0
 11
339.1054256627695
 21
0.9474738787618162
 31
0.0
  0
LINE
  5
130
330
17
100
AcDbEntity
  8
FoilLayer
100
AcDbLine
 10
339.1054256627695
 20
0.9474738787618162
 30
0.0
 11
340.7022917505704
 21
0.7239126264697023
 31
0.0
  0
LINE
  5
131
330
17
100
AcDbEntity
  8
FoilLayer
100
AcDbLine
 10
340.7022917505704
 20
0.7239126264697023
 30
0.0
 11
342.08091947303836
 21
0.5269658089742687
 31
0.0
  0
LINE
  5
132
330
17
100
AcDbEntity
  8
FoilLayer
100
AcDbLine
 10
342.08091947303836
 20
0.5269658089742687
 30
0.0
 11
343.25727749105164
 21
0.35663342627551514
 31
0.0
  0
LINE
  5
133
330
17
100
AcDbEntity
  8
FoilLayer
100
AcDbLine
 10
343.25727749105164
 20
0.35663342627551514
 30
0.0
 11
344.22072003069144
 21
0.21291547837344185
 31
0.0
  0
LINE
  5
134
330
17
100
AcDbEntity
  8
FoilLayer
100
AcDbLine
 10
344.22072003069144
 20
0.21291547837344185
 30
0.0
 11
344.98189286587643
 21
0.09581196526804885
 31
0.0
  0
LINE
  5
135
330
17
100
AcDbEntity
  8
FoilLayer
100
AcDbLine
 10
344.98189286587643
 20
0.09581196526804885
 30
0.0
 11
345.52482733572873
 21
0.010645773918672094
 31
0.0
  0
LINE
  5
136
330
17
100
AcDbEntity
  8
FoilLayer
100
AcDbLine
 10
345.52482733572873
 20
0.010645773918672094
 30
0.0
 11
345.8601692141669
 21
-0.03726020871535233
 31
0.0
  0
LINE
  5
137
330
17
100
AcDbEntity
  8
FoilLayer
100
AcDbLine
 10
345.8601692141669
 20
-0.03726020871535233
 30
0.0
 11
345.97727272727235
 21
-0.05855175655269652
 31
0.0
  0
LINE
  5
138
330
17
100
AcDbEntity
  8
FoilLayer
100
AcDbLine
 10
345.97727272727235
 20
-0.05855175655269652
 30
0.0
 11
345.97727272727235
 21
0.02661443479668024
 31
0.0
  0
LINE
  5
139
330
17
100
AcDbEntity
  8
StringerLayer
100
AcDbLine
 10
182.9508319332068
 20
39.348490838284015
 30
0.0
 11
186.84044890439947
 21
38.41528142051653
 31
0.0
  0
LINE
  5
13A
330
17
100
AcDbEntity
  8
StringerLayer
100
AcDbLine
 10
186.84044890439947
 20
38.41528142051653
 30
0.0
 11
187.77365832216694
 21
42.3048983917092
 31
0.0
  0
LINE
  5
13B
330
17
100
AcDbEntity
  8
StringerLayer
100
AcDbLine
 10
187.77365832216694
 20
42.3048983917092
 30
0.0
 11
183.8840413509743
 21
43.23810780947669
 31
0.0
  0
LINE
  5
13C
330
17
100
AcDbEntity
  8
StringerLayer
100
AcDbLine
 10
183.8840413509743
 20
43.23810780947669
 30
0.0
 11
182.9508319332068
 21
39.348490838284015
 31
0.0
  0
LINE
  5
13D
330
17
100
AcDbEntity
  8
StringerLayer
100
AcDbLine
 10
-54.426259355298505
 20
54.990646591920445
 30
0.0
 11
-50.4605426554055
 21
55.51322773986755
 31
0.0
  0
LINE
  5
13E
330
17
100
AcDbEntity
  8
StringerLayer
100
AcDbLine
 10
-50.4605426554055
 20
55.51322773986755
 30
0.0
 11
-50.983123803352605
 21
59.47894443976056
 31
0.0
  0
LINE
  5
13F
330
17
100
AcDbEntity
  8
StringerLayer
100
AcDbLine
 10
-50.983123803352605
 20
59.47894443976056
 30
0.0
 11
-54.94884050324561
 21
58.95636329181345
 31
0.0
  0
LINE
  5
140
330
17
100
AcDbEntity
  8
StringerLayer
100
AcDbLine
 10
-54.94884050324561
 20
58.95636329181345
 30
0.0
 11
-54.426259355298505
 21
54.990646591920445
 31
0.0
  0
LINE
  5
141
330
17
100
AcDbEntity
  8
StringerLayer
100
AcDbLine
 10
-132.79197788368074
 20
35.81351407226745
 30
0.0
 11
-129.05610589209968
 21
37.242940692461744
 31
0.0
  0
LINE
  5
142
330
17
100
AcDbEntity
  8
StringerLayer
100
AcDbLine
 10
-129.05610589209968
 20
37.242940692461744
 30
0.0
 11
-130.485532512294
 21
40.978812684042815
 31
0.0
  0
LINE
  5
143
330
17
100
AcDbEntity
  8
StringerLayer
100
AcDbLine
 10
-130.485532512294
 20
40.978812684042815
 30
0.0
 11
-134.22140450387505
 21
39.54938606384852
 31
0.0
  0
LINE
  5
144
330
17
100
AcDbEntity
  8
StringerLayer
100
AcDbLine
 10
-134.22140450387505
 20
39.54938606384852
 30
0.0
 11
-132.79197788368074
 21
35.81351407226745
 31
0.0
  0
LINE
  5
145
330
17
100
AcDbEntity
  8
StringerLayer
100
AcDbLine
 10
-176.08302453840483
 20
6.712700147641302
 30
0.0
 11
-174.84839613195746
 21
8.286133558368713
 31
0.0
  0
LINE
  5
146
330
17
100
AcDbEntity
  8
StringerLayer
100
AcDbLine
 10
-174.84839613195746
 20
8.286133558368713
 30
0.0
 11
-178.78197965877598
 21
11.37270457448707
 31
0.0
  0
LINE
  5
147
330
17
100
AcDbEntity
  8
StringerLayer
100
AcDbLine
 10
-178.78197965877598
 20
11.37270457448707
 30
0.0
 11
-180.01660806522335
 21
9.79927116375966
 31
0.0
  0
LINE
  5
148
330
17
100
AcDbEntity
  8
StringerLayer
100
AcDbLine
 10
-180.01660806522335
 20
9.79927116375966
 30
0.0
 11
-176.08302453840483
 21
6.712700147641302
 31
0.0
  0
LINE
  5
149
330
17
100
AcDbEntity
  8
StringerLayer
100
AcDbLine
 10
-178.24094729096498
 20
-1.1146569690278612
 30
0.0
 11
-179.73716425006
 21
0.21249592770876502
 31
0.0
  0
LINE
  5
14A
330
17
100
AcDbEntity
  8
StringerLayer
100
AcDbLine
 10
-179.73716425006
 20
0.21249592770876502
 30
0.0
 11
-183.05504649190158
 21
-3.528046470028813
 31
0.0
  0
LINE
  5
14B
330
17
100
AcDbEntity
  8
StringerLayer
100
AcDbLine
 10
-183.05504649190158
 20
-3.528046470028813
 30
0.0
 11
-181.55882953280656
 21
-4.855199366765439
 31
0.0
  0
LINE
  5
14C
330
17
100
AcDbEntity
  8
StringerLayer
100
AcDbLine
 10
-181.55882953280656
 20
-4.855199366765439
 30
0.0
 11
-178.24094729096498
 21
-1.1146569690278612
 31
0.0
  0
LINE
  5
14D
330
17
100
AcDbEntity
  8
StringerLayer
100
AcDbLine
 10
-78.10782743635396
 20
-7.6354369348646
 30
0.0
 11
-82.10392511018374
 21
-7.812081723104502
 31
0.0
  0
LINE
  5
14E
330
17
100
AcDbEntity
  8
StringerLayer
100
AcDbLine
 10
-82.10392511018374
 20
-7.812081723104502
 30
0.0
 11
-81.92728032194384
 21
-11.80817939693427
 31
0.0
  0
LINE
  5
14F
330
17
100
AcDbEntity
  8
StringerLayer
100
AcDbLine
 10
-81.92728032194384
 20
-11.80817939693427
 30
0.0
 11
-77.93118264811406
 21
-11.631534608694368
 31
0.0
  0
LINE
  5
150
330
17
100
AcDbEntity
  8
StringerLayer
100
AcDbLine
 10
-77.93118264811406
 20
-11.631534608694368
 30
0.0
 11
-78.10782743635396
 21
-7.6354369348646
 31
0.0
  0
LINE
  5
151
330
17
100
AcDbEntity
  8
SubLayer
100
AcDbLine
 10
-186.29545454545433
 20
0.0
 30
0.0
 11
-182.29545454545433
 21
0.0
 31
0.0
  0
LINE
  5
152
330
17
100
AcDbEntity
  8
SubLayer
100
AcDbLine
 10
51.22727272727269
 20
0.0
 30
0.0
 11
60.549999999999955
 21
0.0
 31
0.0
  0
LINE
  5
153
330
17
100
AcDbEntity
  8
SubLayer
100
AcDbLine
 10
-39.89613608315999
 20
26.882620427066144
 30
0.0
 11
-31.901009467007224
 21
27.16181640068615
 31
0.0
  0
LINE
  5
154
330
17
100
AcDbEntity
  8
SubLayer
100
AcDbLine
 10
31.901009467007224
 20
29.389831996988995
 30
0.0
 11
39.89613608315999
 21
29.669027970609
 31
0.0
  0
LINE
  5
155
330
17
100
AcDbEntity
  8
SubLayer
100
AcDbLine
 10
-1.1027447787610691
 20
59.85430298985228
 30
0.0
 11
-0.8235488051410613
 21
51.85917637369951
 31
0.0
  0
LINE
  5
156
330
17
100
AcDbEntity
  8
SubLayer
100
AcDbLine
 10
1.1027447787610691
 20
-3.3026545921771344
 30
0.0
 11
0.8235488051410613
 21
4.692472023975633
 31
0.0
  0
LINE
  5
157
330
17
100
AcDbEntity
  8
SubLayer
100
AcDbLine
 10
-37.827555435716796
 20
24.95363776643295
 30
0.0
 11
-33.829992127640416
 21
25.093235753242958
 31
0.0
  0
LINE
  5
158
330
17
100
AcDbEntity
  8
SubLayer
100
AcDbLine
 10
-33.829992127640416
 20
25.093235753242958
 30
0.0
 11
-33.96959011445042
 21
29.09079906131934
 31
0.0
  0
LINE
  5
159
330
17
100
AcDbEntity
  8
SubLayer
100
AcDbLine
 10
-33.96959011445042
 20
29.09079906131934
 30
0.0
 11
-37.9671534225268
 21
28.951201074509335
 31
0.0
  0
LINE
  5
15A
330
17
100
AcDbEntity
  8
SubLayer
100
AcDbLine
 10
-37.9671534225268
 20
28.951201074509335
 30
0.0
 11
-37.827555435716796
 21
24.95363776643295
 31
0.0
  0
LINE
  5
15B
330
17
100
AcDbEntity
  8
SubLayer
100
AcDbLine
 10
33.96959011445042
 20
27.460849336355803
 30
0.0
 11
37.9671534225268
 21
27.60044732316581
 31
0.0
  0
LINE
  5
15C
330
17
100
AcDbEntity
  8
SubLayer
100
AcDbLine
 10
37.9671534225268
 20
27.60044732316581
 30
0.0
 11
37.827555435716796
 21
31.598010631242193
 31
0.0
  0
LINE
  5
15D
330
17
100
AcDbEntity
  8
SubLayer
100
AcDbLine
 10
37.827555435716796
 20
31.598010631242193
 30
0.0
 11
33.829992127640416
 21
31.458412644432187
 31
0.0
  0
LINE
  5
15E
330
17
100
AcDbEntity
  8
SubLayer
100
AcDbLine
 10
33.829992127640416
 20
31.458412644432187
 30
0.0
 11
33.96959011445042
 21
27.460849336355803
 31
0.0
  0
LINE
  5
15F
330
17
100
AcDbEntity
  8
SubLayer
100
AcDbLine
 10
-2.892129452584255
 20
53.7881590343327
 30
0.0
 11
1.1054338554921284
 21
53.9277570211427
 31
0.0
  0
LINE
  5
160
330
17
100
AcDbEntity
  8
SubLayer
100
AcDbLine
 10
1.1054338554921284
 20
53.9277570211427
 30
0.0
 11
0.9658358686821245
 21
57.92532032921908
 31
0.0
  0
LINE
  5
161
330
17
100
AcDbEntity
  8
SubLayer
100
AcDbLine
 10
0.9658358686821245
 20
57.92532032921908
 30
0.0
 11
-3.031727439394259
 21
57.78572234240908
 31
0.0
  0
LINE
  5
162
330
17
100
AcDbEntity
  8
SubLayer
100
AcDbLine
 10
-3.031727439394259
 20
57.78572234240908
 30
0.0
 11
-2.892129452584255
 21
53.7881590343327
 31
0.0
  0
LINE
  5
163
330
17
100
AcDbEntity
  8
SubLayer
100
AcDbLine
 10
-0.9658358686821245
 20
-1.3736719315439445
 30
0.0
 11
3.031727439394259
 21
-1.2340739447339406
 31
0.0
  0
LINE
  5
164
330
17
100
AcDbEntity
  8
SubLayer
100
AcDbLine
 10
3.031727439394259
 20
-1.2340739447339406
 30
0.0
 11
2.892129452584255
 21
2.7634893633424427
 31
0.0
  0
LINE
  5
165
330
17
100
AcDbEntity
  8
SubLayer
100
AcDbLine
 10
2.892129452584255
 20
2.7634893633424427
 30
0.0
 11
-1.1054338554921284
 21
2.6238913765324385
 31
0.0
  0
LINE
  5
166
330
17
100
AcDbEntity
  8
SubLayer
100
AcDbLine
 10
-1.1054338554921284
 20
2.6238913765324385
 30
0.0
 11
-0.9658358686821245
 21
-1.3736719315439445
 31
0.0
  0
LINE
  5
167
330
17
100
AcDbEntity
  8
SubLayer
100
AcDbLine
 10
266.5376242730169
 20
22.768225018574334
 30
0.0
 11
270.5351875810932
 21
22.907823005384337
 31
0.0
  0
LINE
  5
168
330
17
100
AcDbEntity
  8
SubLayer
100
AcDbLine
 10
-183.84348365153284
 20
7.040570165303209
 30
0.0
 11
-179.84592034345644
 21
7.180168152113214
 31
0.0
  0
LINE
  5
169
330
17
100
AcDbEntity
  8
SubLayer
100
AcDbLine
 10
-94.766652893642
 20
10.151201639254936
 30
0.0
 11
-88.77030793152744
 21
10.36059861946994
 31
0.0
  0
LINE
  5
16A
330
17
100
AcDbEntity
  8
SubLayer
100
AcDbLine
 10
175.46201186108783
 20
19.58779455121761
 30
0.0
 11
181.4583568232024
 21
19.797191531432613
 31
0.0
  0
LINE
  5
16B
330
17
100
AcDbEntity
  8
SubLayer
100
AcDbLine
 10
40.34767948372292
 20
14.86949809523627
 30
0.0
 11
46.3440244458375
 21
15.078895075451275
 31
0.0
  0
LINE
  5
16C
330
17
100
AcDbEntity
  8
SubLayer
100
AcDbLine
 10
-89.69989976514152
 20
8.326917468729247
 30
0.0
 11
-89.83949775195153
 21
12.32448077680563
 31
0.0
  0
LINE
  5
16D
330
17
100
AcDbEntity
  8
SubLayer
100
AcDbLine
 10
-89.83949775195153
 20
12.32448077680563
 30
0.0
 11
-93.83706106002792
 21
12.184882789995628
 31
0.0
  0
LINE
  5
16E
330
17
100
AcDbEntity
  8
SubLayer
100
AcDbLine
 10
-93.83706106002792
 20
12.184882789995628
 30
0.0
 11
-93.69746307321792
 21
8.187319481919245
 31
0.0
  0
LINE
  5
16F
330
17
100
AcDbEntity
  8
SubLayer
100
AcDbLine
 10
-93.69746307321792
 20
8.187319481919245
 30
0.0
 11
-89.69989976514152
 21
8.326917468729247
 31
0.0
  0
LINE
  5
170
330
17
100
AcDbEntity
  8
SubLayer
100
AcDbLine
 10
180.5287649895883
 20
17.763510380691923
 30
0.0
 11
180.3891670027783
 21
21.761073688768306
 31
0.0
  0
LINE
  5
171
330
17
100
AcDbEntity
  8
SubLayer
100
AcDbLine
 10
180.3891670027783
 20
21.761073688768306
 30
0.0
 11
176.39160369470193
 21
21.6214757019583
 31
0.0
  0
LINE
  5
172
330
17
100
AcDbEntity
  8
SubLayer
100
AcDbLine
 10
176.39160369470193
 20
21.6214757019583
 30
0.0
 11
176.53120168151193
 21
17.623912393881916
 31
0.0
  0
LINE
  5
173
330
17
100
AcDbEntity
  8
SubLayer
100
AcDbLine
 10
176.53120168151193
 20
17.623912393881916
 30
0.0
 11
180.5287649895883
 21
17.763510380691923
 31
0.0
  0
LINE
  5
174
330
17
100
AcDbEntity
  8
SubLayer
100
AcDbLine
 10
45.4144326122234
 20
13.045213924710582
 30
0.0
 11
45.2748346254134
 21
17.042777232786968
 31
0.0
  0
LINE
  5
175
330
17
100
AcDbEntity
  8
SubLayer
100
AcDbLine
 10
45.2748346254134
 20
17.042777232786968
 30
0.0
 11
41.27727131733702
 21
16.90317924597696
 31
0.0
  0
LINE
  5
176
330
17
100
AcDbEntity
  8
SubLayer
100
AcDbLine
 10
41.27727131733702
 20
16.90317924597696
 30
0.0
 11
41.41686930414702
 21
12.90561593790058
 31
0.0
  0
LINE
  5
177
330
17
100
AcDbEntity
  8
SubLayer
100
AcDbLine
 10
41.41686930414702
 20
12.90561593790058
 30
0.0
 11
45.4144326122234
 21
13.045213924710582
 31
0.0
  0
LINE
  5
178
330
17
100
AcDbEntity
  8
SubLayer
100
AcDbLine
 10
326.8032076090458
 20
5.710039545293923
 30
0.0
 11
327.1124841509784
 21
6.661011690317214
 31
0.0
  0
LINE
  5
179
330
17
100
AcDbEntity
  8
SubLayer
100
AcDbLine
 10
326.0722413044009
 20
2.0095939744710076
 30
0.0
 11
326.1975242262331
 21
3.0017150303392883
 31
0.0
  0
LINE
  5
17A
330
17
100
AcDbEntity
  8
SubLayer
100
AcDbLine
 10
307.6014652179276
 20
11.293678945591216
 30
0.0
 11
307.8957536693115
 21
12.24939559156014
 31
0.0
  0
LINE
  5
17B
330
17
100
AcDbEntity
  8
SubLayer
100
AcDbLine
 10
306.134243847265
 20
3.574168161406418
 30
0.0
 11
306.2360333920358
 21
4.568974116643594
 31
0.0
  0
LINE
  5
17C
330
17
100
AcDbEntity
  8
SubLayer
100
AcDbLine
 10
269.1059108794996
 20
22.15948248717433
 30
0.0
 11
269.38889895552387
 21
23.118605914491212
 31
0.0
  0
LINE
  5
17D
330
17
100
AcDbEntity
  8
SubLayer
100
AcDbLine
 10
266.1148311989388
 20
4.715413083367696
 30
0.0
 11
266.18001059929594
 21
5.713286645382987
 31
0.0
  0
LINE
  5
17E
330
17
100
AcDbEntity
  8
SubLayer
100
AcDbLine
 10
-100.89865727129802
 20
52.26449494144011
 30
0.0
 11
-100.75905928448802
 21
48.26693163336373
 31
0.0
  0
LINE
  5
17F
330
17
100
AcDbEntity
  8
SubLayer
100
AcDbLine
 10
-98.70770647950323
 20
-10.476126862800049
 30
0.0
 11
-98.56810849269323
 21
-14.473690170876433
 31
0.0
  0
LINE
  5
180
330
17
100
AcDbEntity
  8
SubLayer
100
AcDbLine
 10
-99.1807961345647
 20
3.07138832506708
 30
0.0
 11
-98.97139915434968
 21
-2.924956637047494
 31
0.0
  0
LINE
  5
181
330
17
100
AcDbEntity
  8
SubLayer
100
AcDbLine
 10
-100.49536660964158
 20
40.71576140761118
 30
0.0
 11
-100.28596962942656
 21
34.719416445496606
 31
0.0
  0
LINE
  5
182
330
17
100
AcDbEntity
  8
SubLayer
100
AcDbLine
 10
-99.83808137210313
 20
21.89357486633913
 30
0.0
 11
-99.62868439188811
 21
15.897229904224554
 31
0.0
  0
LINE
  5
183
330
17
100
AcDbEntity
  8
SubLayer
100
AcDbLine
 10
-101.00508030509039
 20
-1.9953648034334006
 30
0.0
 11
-97.007516997014
 21
-1.8557668166233967
 31
0.0
  0
LINE
  5
184
330
17
100
AcDbEntity
  8
SubLayer
100
AcDbLine
 10
-97.007516997014
 20
-1.8557668166233967
 30
0.0
 11
-97.147114983824
 21
2.1417964914529866
 31
0.0
  0
LINE
  5
185
330
17
100
AcDbEntity
  8
SubLayer
100
AcDbLine
 10
-97.147114983824
 20
2.1417964914529866
 30
0.0
 11
-101.14467829190039
 21
2.0021985046429824
 31
0.0
  0
LINE
  5
186
330
17
100
AcDbEntity
  8
SubLayer
100
AcDbLine
 10
-101.14467829190039
 20
2.0021985046429824
 30
0.0
 11
-101.00508030509039
 21
-1.9953648034334006
 31
0.0
  0
LINE
  5
187
330
17
100
AcDbEntity
  8
SubLayer
100
AcDbLine
 10
-102.31965078016727
 20
35.6490082791107
 30
0.0
 11
-98.32208747209087
 21
35.788606265920706
 31
0.0
  0
LINE
  5
188
330
17
100
AcDbEntity
  8
SubLayer
100
AcDbLine
 10
-98.32208747209087
 20
35.788606265920706
 30
0.0
 11
-98.46168545890087
 21
39.786169573997086
 31
0.0
  0
LINE
  5
189
330
17
100
AcDbEntity
  8
SubLayer
100
AcDbLine
 10
-98.46168545890087
 20
39.786169573997086
 30
0.0
 11
-102.45924876697727
 21
39.64657158718708
 31
0.0
  0
LINE
  5
18A
330
17
100
AcDbEntity
  8
SubLayer
100
AcDbLine
 10
-102.45924876697727
 20
39.64657158718708
 30
0.0
 11
-102.31965078016727
 21
35.6490082791107
 31
0.0
  0
LINE
  5
18B
330
17
100
AcDbEntity
  8
SubLayer
100
AcDbLine
 10
-101.66236554262882
 20
16.826821737838646
 30
0.0
 11
-97.66480223455243
 21
16.966419724648652
 31
0.0
  0
LINE
  5
18C
330
17
100
AcDbEntity
  8
SubLayer
100
AcDbLine
 10
-97.66480223455243
 20
16.966419724648652
 30
0.0
 11
-97.80440022136243
 21
20.963983032725036
 31
0.0
  0
LINE
  5
18D
330
17
100
AcDbEntity
  8
SubLayer
100
AcDbLine
 10
-97.80440022136243
 20
20.963983032725036
 30
0.0
 11
-101.80196352943882
 21
20.82438504591503
 31
0.0
  0
LINE
  5
18E
330
17
100
AcDbEntity
  8
SubLayer
100
AcDbLine
 10
-101.80196352943882
 20
20.82438504591503
 30
0.0
 11
-101.66236554262882
 21
16.826821737838646
 31
0.0
  0
LINE
  5
18F
330
17
100
AcDbEntity
  8
SubLayer
100
AcDbLine
 10
149.23506335892534
 20
52.79900333726558
 30
0.0
 11
149.37466134573538
 21
48.8014400291892
 31
0.0
  0
LINE
  5
190
330
17
100
AcDbEntity
  8
SubLayer
100
AcDbLine
 10
150.9714980142178
 20
3.0740207390793675
 30
0.0
 11
151.11109600102782
 21
-0.9235425689970158
 31
0.0
  0
LINE
  5
191
330
17
100
AcDbEntity
  8
SubLayer
100
AcDbLine
 10
150.58931158645683
 20
14.018408085735706
 30
0.0
 11
150.79870856667182
 21
8.022063123621132
 31
0.0
  0
LINE
  5
192
330
17
100
AcDbEntity
  8
SubLayer
100
AcDbLine
 10
149.54745079328137
 20
43.85339764464744
 30
0.0
 11
149.75684777349636
 21
37.85705268253286
 31
0.0
  0
LINE
  5
193
330
17
100
AcDbEntity
  8
SubLayer
100
AcDbLine
 10
150.0683811898691
 20
28.935902865191572
 30
0.0
 11
150.27777817008408
 21
22.939557903076995
 31
0.0
  0
LINE
  5
194
330
17
100
AcDbEntity
  8
SubLayer
100
AcDbLine
 10
148.76502741593114
 20
8.951654957235226
 30
0.0
 11
152.7625907240075
 21
9.091252944045229
 31
0.0
  0
LINE
  5
195
330
17
100
AcDbEntity
  8
SubLayer
100
AcDbLine
 10
152.7625907240075
 20
9.091252944045229
 30
0.0
 11
152.6229927371975
 21
13.088816252121612
 31
0.0
  0
LINE
  5
196
330
17
100
AcDbEntity
  8
SubLayer
100
AcDbLine
 10
152.6229927371975
 20
13.088816252121612
 30
0.0
 11
148.62542942912114
 21
12.94921826531161
 31
0.0
  0
LINE
  5
197
330
17
100
AcDbEntity
  8
SubLayer
100
AcDbLine
 10
148.62542942912114
 20
12.94921826531161
 30
0.0
 11
148.76502741593114
 21
8.951654957235226
 31
0.0
  0
LINE
  5
198
330
17
100
AcDbEntity
  8
SubLayer
100
AcDbLine
 10
147.72316662275568
 20
38.78664451614696
 30
0.0
 11
151.72072993083205
 21
38.92624250295696
 31
0.0
  0
LINE
  5
199
330
17
100
AcDbEntity
  8
SubLayer
100
AcDbLine
 10
151.72072993083205
 20
38.92624250295696
 30
0.0
 11
151.58113194402205
 21
42.92380581103334
 31
0.0
  0
LINE
  5
19A
330
17
100
AcDbEntity
  8
SubLayer
100
AcDbLine
 10
151.58113194402205
 20
42.92380581103334
 30
0.0
 11
147.58356863594568
 21
42.78420782422334
 31
0.0
  0
LINE
  5
19B
330
17
100
AcDbEntity
  8
SubLayer
100
AcDbLine
 10
147.58356863594568
 20
42.78420782422334
 30
0.0
 11
147.72316662275568
 21
38.78664451614696
 31
0.0
  0
LINE
  5
19C
330
17
100
AcDbEntity
  8
SubLayer
100
AcDbLine
 10
148.2440970193434
 20
23.86914973669109
 30
0.0
 11
152.24166032741977
 21
24.008747723501095
 31
0.0
  0
LINE
  5
19D
330
17
100
AcDbEntity
  8
SubLayer
100
AcDbLine
 10
152.24166032741977
 20
24.008747723501095
 30
0.0
 11
152.10206234060976
 21
28.00631103157748
 31
0.0
  0
LINE
  5
19E
330
17
100
AcDbEntity
  8
SubLayer
100
AcDbLine
 10
152.10206234060976
 20
28.00631103157748
 30
0.0
 11
148.1044990325334
 21
27.866713044767472
 31
0.0
  0
LINE
  5
19F
330
17
100
AcDbEntity
  8
SubLayer
100
AcDbLine
 10
148.1044990325334
 20
27.866713044767472
 30
0.0
 11
148.2440970193434
 21
23.86914973669109
 31
0.0
  0
ENDSEC
  0
SECTION
  2
OBJECTS
  0
DICTIONARY
  5
A
330
0
100
AcDbDictionary
280
0
281
1
  3
ACAD_COLOR
350
B
  3
ACAD_GROUP
350
C
  3
ACAD_LAYOUT
350
D
  3
ACAD_MATERIAL
350
E
  3
ACAD_MLEADERSTYLE
350
F
  3
ACAD_MLINESTYLE
350
10
  3
ACAD_PLOTSETTINGS
350
11
  3
ACAD_PLOTSTYLENAME
350
12
  3
ACAD_SCALELIST
350
14
  3
ACAD_TABLESTYLE
350
15
  3
ACAD_VISUALSTYLE
350
16
  3
EZDXF_META
350
2D
  0
DICTIONARY
  5
B
330
A
100
AcDbDictionary
280
0
281
1
  0
DICTIONARY
  5
C
330
A
100
AcDbDictionary
280
0
281
1
  0
DICTIONARY
  5
D
330
A
100
AcDbDictionary
280
0
281
1
  3
Model
350
1A
  3
Layout1
350
1E
  0
DICTIONARY
  5
E
330
A
100
AcDbDictionary
280
0
281
1
  3
ByBlock
350
1F
  3
ByLayer
350
20
  3
Global
350
21
  0
DICTIONARY
  5
F
330
A
100
AcDbDictionary
280
0
281
1
  3
Standard
350
2C
  0
DICTIONARY
  5
10
330
A
100
AcDbDictionary
280
0
281
1
  3
Standard
350
22
  0
DICTIONARY
  5
11
330
A
100
AcDbDictionary
280
0
281
1
  0
ACDBDICTIONARYWDFLT
  5
12
330
A
100
AcDbDictionary
280
0
281
1
  3
Normal
350
13
100
AcDbDictionaryWithDefault
340
13
  0
ACDBPLACEHOLDER
  5
13
330
12
  0
DICTIONARY
  5
14
330
A
100
AcDbDictionary
280
0
281
1
  0
DICTIONARY
  5
15
330
A
100
AcDbDictionary
280
0
281
1
  0
DICTIONARY
  5
16
330
A
100
AcDbDictionary
280
0
281
1
  0
LAYOUT
  5
1A
330
D
100
AcDbPlotSettings
  1

  2
Adobe PDF
  4
A3
  6

 40
7.5
 41
20.0
 42
7.5
 43
20.0
 44
420.0
 45
297.0
 46
0.0
 47
0.0
 48
0.0
 49
0.0
140
0.0
141
0.0
142
1.0
143
1.0
 70
1024
 72
1
 73
0
 74
5
  7

 75
16
 76
0
 77
2
 78
300
147
1.0
148
0.0
149
0.0
100
AcDbLayout
  1
Model
 70
1
 71
0
 10
0.0
 20
0.0
 11
420.0
 21
297.0
 12
0.0
 22
0.0
 32
0.0
 14
1e+20
 24
1e+20
 34
1e+20
 15
-1e+20
 25
-1e+20
 35
-1e+20
146
0.0
 13
0.0
 23
0.0
 33
0.0
 16
1.0
 26
0.0
 36
0.0
 17
0.0
 27
1.0
 37
0.0
 76
1
330
17
  0
LAYOUT
  5
1E
330
D
100
AcDbPlotSettings
  1

  2
Adobe PDF
  4
A3
  6

 40
7.5
 41
20.0
 42
7.5
 43
20.0
 44
420.0
 45
297.0
 46
0.0
 47
0.0
 48
0.0
 49
0.0
140
0.0
141
0.0
142
1.0
143
1.0
 70
0
 72
1
 73
0
 74
5
  7

 75
16
 76
0
 77
2
 78
300
147
1.0
148
0.0
149
0.0
100
AcDbLayout
  1
Layout1
 70
1
 71
1
 10
0.0
 20
0.0
 11
420.0
 21
297.0
 12
0.0
 22
0.0
 32
0.0
 14
1e+20
 24
1e+20
 34
1e+20
 15
-1e+20
 25
-1e+20
 35
-1e+20
146
0.0
 13
0.0
 23
0.0
 33
0.0
 16
1.0
 26
0.0
 36
0.0
 17
0.0
 27
1.0
 37
0.0
 76
1
330
1B
  0
MATERIAL
  5
1F
102
{ACAD_REACTORS
330
E
102
}
330
E
100
AcDbMaterial
  1
ByBlock
  2

 70
0
 40
1.0
 71
1
 41
1.0
 91
-1023410177
 42
1.0
 72
1
  3

 73
1
 74
1
 75
1
 44
0.5
 73
0
 45
1.0
 46
1.0
 77
1
  4

 78
1
 79
1
170
1
 48
1.0
171
1
  6

172
1
173
1
174
1
140
1.0
141
1.0
175
1
  7

176
1
177
1
178
1
143
1.0
179
1
  8

270
1
271
1
272
1
145
1.0
146
1.0
273
1
  9

274
1
275
1
276
1
 42
1.0
 72
1
  3

 73
1
 74
1
 75
1
 94
63
  0
MATERIAL
  5
20
102
{ACAD_REACTORS
330
E
102
}
330
E
100
AcDbMaterial
  1
ByLayer
  2

 70
0
 40
1.0
 71
1
 41
1.0
 91
-1023410177
 42
1.0
 72
1
  3

 73
1
 74
1
 75
1
 44
0.5
 73
0
 45
1.0
 46
1.0
 77
1
  4

 78
1
 79
1
170
1
 48
1.0
171
1
  6

172
1
173
1
174
1
140
1.0
141
1.0
175
1
  7

176
1
177
1
178
1
143
1.0
179
1
  8

270
1
271
1
272
1
145
1.0
146
1.0
273
1
  9

274
1
275
1
276
1
 42
1.0
 72
1
  3

 73
1
 74
1
 75
1
 94
63
  0
MATERIAL
  5
21
102
{ACAD_REACTORS
330
E
102
}
330
E
100
AcDbMaterial
  1
Global
  2

 70
0
 40
1.0
 71
1
 41
1.0
 91
-1023410177
 42
1.0
 72
1
  3

 73
1
 74
1
 75
1
 44
0.5
 73
0
 45
1.0
 46
1.0
 77
1
  4

 78
1
 79
1
170
1
 48
1.0
171
1
  6

172
1
173
1
174
1
140
1.0
141
1.0
175
1
  7

176
1
177
1
178
1
143
1.0
179
1
  8

270
1
271
1
272
1
145
1.0
146
1.0
273
1
  9

274
1
275
1
276
1
 42
1.0
 72
1
  3

 73
1
 74
1
 75
1
 94
63
  0
MLINESTYLE
  5
22
102
{ACAD_REACTORS
330
10
102
}
330
10
100
AcDbMlineStyle
  2
Standard
 70
0
  3

 62
256
 51
90.0
 52
90.0
 71
2
 49
0.5
 62
256
  6
BYLAYER
 49
-0.5
 62
256
  6
BYLAYER
  0
MLEADERSTYLE
  5
2C
102
{ACAD_REACTORS
330
F
102
}
330
F
100
AcDbMLeaderStyle
179
2
170
2
171
1
172
0
 90
2
 40
0.0
 41
0.0
173
1
 91
-1056964608
 92
-2
290
1
 42
2.0
291
1
 43
8.0
  3
Standard
 44
4.0
300

342
29
174
1
175
1
176
0
178
1
 93
-1056964608
 45
4.0
292
0
297
0
 46
4.0
 94
-1056964608
 47
1.0
 49
1.0
140
1.0
294
1
141
0.0
177
0
142
1.0
295
0
296
0
143
3.75
271
0
272
9
273
9
  0
DICTIONARY
  5
2D
330
A
100
AcDbDictionary
281
1
  3
CREATED_BY_EZDXF
350
2E
  3
WRITTEN_BY_EZDXF
350
1A2
  0
DICTIONARYVAR
  5
2E
330
2D
100
DictionaryVariables
280
0
  1
1.0.2 @ 2023-10-20T04:47:16.619174+00:00
  0
DICTIONARYVAR
  5
1A2
330
2D
100
DictionaryVariables
280
0
  1
1.0.2 @ 2023-10-20T04:47:16.628143+00:00
  0
ENDSEC
  0
EOF
