  0
SECTION
  2
HEADER
  9
$ACADVER
  1
AC1027
  9
$ACADMAINTVER
 70
105
  9
$DWGCODEPAGE
  3
ANSI_1252
  9
$LASTSAVEDBY
  1
ezdxf
  9
$REQUIREDVERSIONS
160
0
  9
$INSBASE
 10
0.0
 20
0.0
 30
0.0
  9
$EXTMIN
 10
1e+20
 20
1e+20
 30
1e+20
  9
$EXTMAX
 10
-1e+20
 20
-1e+20
 30
-1e+20
  9
$LIMMIN
 10
0.0
 20
0.0
  9
$LIMMAX
 10
420.0
 20
297.0
  9
$ORTHOMODE
 70
0
  9
$REGENMODE
 70
1
  9
$FILLMODE
 70
1
  9
$QTEXTMODE
 70
0
  9
$MIRRTEXT
 70
1
  9
$LTSCALE
 40
1.0
  9
$ATTMODE
 70
1
  9
$TEXTSIZE
 40
2.5
  9
$TRACEWID
 40
1.0
  9
$TEXTSTYLE
  7
Standard
  9
$CLAYER
  8
0
  9
$CELTYPE
  6
ByLayer
  9
$CECOLOR
 62
256
  9
$CELTSCALE
 40
1.0
  9
$DISPSILH
 70
0
  9
$DIMSCALE
 40
1.0
  9
$DIMASZ
 40
2.5
  9
$DIMEXO
 40
0.625
  9
$DIMDLI
 40
3.75
  9
$DIMRND
 40
0.0
  9
$DIMDLE
 40
0.0
  9
$DIMEXE
 40
1.25
  9
$DIMTP
 40
0.0
  9
$DIMTM
 40
0.0
  9
$DIMTXT
 40
2.5
  9
$DIMCEN
 40
2.5
  9
$DIMTSZ
 40
0.0
  9
$DIMTOL
 70
0
  9
$DIMLIM
 70
0
  9
$DIMTIH
 70
0
  9
$DIMTOH
 70
0
  9
$DIMSE1
 70
0
  9
$DIMSE2
 70
0
  9
$DIMTAD
 70
1
  9
$DIMZIN
 70
8
  9
$DIMBLK
  1

  9
$DIMASO
 70
1
  9
$DIMSHO
 70
1
  9
$DIMPOST
  1

  9
$DIMAPOST
  1

  9
$DIMALT
 70
0
  9
$DIMALTD
 70
3
  9
$DIMALTF
 40
0.03937007874
  9
$DIMLFAC
 40
1.0
  9
$DIMTOFL
 70
1
  9
$DIMTVP
 40
0.0
  9
$DIMTIX
 70
0
  9
$DIMSOXD
 70
0
  9
$DIMSAH
 70
0
  9
$DIMBLK1
  1

  9
$DIMBLK2
  1

  9
$DIMSTYLE
  2
ISO-25
  9
$DIMCLRD
 70
0
  9
$DIMCLRE
 70
0
  9
$DIMCLRT
 70
0
  9
$DIMTFAC
 40
1.0
  9
$DIMGAP
 40
0.625
  9
$DIMJUST
 70
0
  9
$DIMSD1
 70
0
  9
$DIMSD2
 70
0
  9
$DIMTOLJ
 70
0
  9
$DIMTZIN
 70
8
  9
$DIMALTZ
 70
0
  9
$DIMALTTZ
 70
0
  9
$DIMUPT
 70
0
  9
$DIMDEC
 70
2
  9
$DIMTDEC
 70
2
  9
$DIMALTU
 70
2
  9
$DIMALTTD
 70
3
  9
$DIMTXSTY
  7
Standard
  9
$DIMAUNIT
 70
0
  9
$DIMADEC
 70
0
  9
$DIMALTRND
 40
0.0
  9
$DIMAZIN
 70
0
  9
$DIMDSEP
 70
44
  9
$DIMATFIT
 70
3
  9
$DIMFRAC
 70
0
  9
$DIMLDRBLK
  1

  9
$DIMLUNIT
 70
2
  9
$DIMLWD
 70
-2
  9
$DIMLWE
 70
-2
  9
$DIMTMOVE
 70
0
  9
$DIMFXL
 40
1.0
  9
$DIMFXLON
 70
0
  9
$DIMJOGANG
 40
0.785398163397
  9
$DIMTFILL
 70
0
  9
$DIMTFILLCLR
 70
0
  9
$DIMARCSYM
 70
0
  9
$DIMLTYPE
  6

  9
$DIMLTEX1
  6

  9
$DIMLTEX2
  6

  9
$DIMTXTDIRECTION
 70
0
  9
$LUNITS
 70
2
  9
$LUPREC
 70
4
  9
$SKETCHINC
 40
1.0
  9
$FILLETRAD
 40
10.0
  9
$AUNITS
 70
0
  9
$AUPREC
 70
2
  9
$MENU
  1
.
  9
$ELEVATION
 40
0.0
  9
$PELEVATION
 40
0.0
  9
$THICKNESS
 40
0.0
  9
$LIMCHECK
 70
0
  9
$CHAMFERA
 40
0.0
  9
$CHAMFERB
 40
0.0
  9
$CHAMFERC
 40
0.0
  9
$CHAMFERD
 40
0.0
  9
$SKPOLY
 70
0
  9
$TDCREATE
 40
2460238.574490741
  9
$TDUCREATE
 40
2458532.153996898
  9
$TDUPDATE
 40
2460238.574490741
  9
$TDUUPDATE
 40
2458532.1544311
  9
$TDINDWG
 40
0.0
  9
$TDUSRTIMER
 40
0.0
  9
$USRTIMER
 70
1
  9
$ANGBASE
 50
0.0
  9
$ANGDIR
 70
0
  9
$PDMODE
 70
0
  9
$PDSIZE
 40
0.0
  9
$PLINEWID
 40
0.0
  9
$SPLFRAME
 70
0
  9
$SPLINETYPE
 70
6
  9
$SPLINESEGS
 70
8
  9
$HANDSEED
  5
1B3
  9
$SURFTAB1
 70
6
  9
$SURFTAB2
 70
6
  9
$SURFTYPE
 70
6
  9
$SURFU
 70
6
  9
$SURFV
 70
6
  9
$UCSBASE
  2

  9
$UCSNAME
  2

  9
$UCSORG
 10
0.0
 20
0.0
 30
0.0
  9
$UCSXDIR
 10
1.0
 20
0.0
 30
0.0
  9
$UCSYDIR
 10
0.0
 20
1.0
 30
0.0
  9
$UCSORTHOREF
  2

  9
$UCSORTHOVIEW
 70
0
  9
$UCSORGTOP
 10
0.0
 20
0.0
 30
0.0
  9
$UCSORGBOTTOM
 10
0.0
 20
0.0
 30
0.0
  9
$UCSORGLEFT
 10
0.0
 20
0.0
 30
0.0
  9
$UCSORGRIGHT
 10
0.0
 20
0.0
 30
0.0
  9
$UCSORGFRONT
 10
0.0
 20
0.0
 30
0.0
  9
$UCSORGBACK
 10
0.0
 20
0.0
 30
0.0
  9
$PUCSBASE
  2

  9
$PUCSNAME
  2

  9
$PUCSORG
 10
0.0
 20
0.0
 30
0.0
  9
$PUCSXDIR
 10
1.0
 20
0.0
 30
0.0
  9
$PUCSYDIR
 10
0.0
 20
1.0
 30
0.0
  9
$PUCSORTHOREF
  2

  9
$PUCSORTHOVIEW
 70
0
  9
$PUCSORGTOP
 10
0.0
 20
0.0
 30
0.0
  9
$PUCSORGBOTTOM
 10
0.0
 20
0.0
 30
0.0
  9
$PUCSORGLEFT
 10
0.0
 20
0.0
 30
0.0
  9
$PUCSORGRIGHT
 10
0.0
 20
0.0
 30
0.0
  9
$PUCSORGFRONT
 10
0.0
 20
0.0
 30
0.0
  9
$PUCSORGBACK
 10
0.0
 20
0.0
 30
0.0
  9
$USERI1
 70
0
  9
$USERI2
 70
0
  9
$USERI3
 70
0
  9
$USERI4
 70
0
  9
$USERI5
 70
0
  9
$USERR1
 40
0.0
  9
$USERR2
 40
0.0
  9
$USERR3
 40
0.0
  9
$USERR4
 40
0.0
  9
$USERR5
 40
0.0
  9
$WORLDVIEW
 70
1
  9
$SHADEDGE
 70
3
  9
$SHADEDIF
 70
70
  9
$TILEMODE
 70
1
  9
$MAXACTVP
 70
64
  9
$PINSBASE
 10
0.0
 20
0.0
 30
0.0
  9
$PLIMCHECK
 70
0
  9
$PEXTMIN
 10
1e+20
 20
1e+20
 30
1e+20
  9
$PEXTMAX
 10
-1e+20
 20
-1e+20
 30
-1e+20
  9
$PLIMMIN
 10
0.0
 20
0.0
  9
$PLIMMAX
 10
420.0
 20
297.0
  9
$UNITMODE
 70
0
  9
$VISRETAIN
 70
1
  9
$PLINEGEN
 70
0
  9
$PSLTSCALE
 70
1
  9
$TREEDEPTH
 70
3020
  9
$CMLSTYLE
  2
Standard
  9
$CMLJUST
 70
0
  9
$CMLSCALE
 40
20.0
  9
$PROXYGRAPHICS
 70
1
  9
$MEASUREMENT
 70
1
  9
$CELWEIGHT
370
-1
  9
$ENDCAPS
280
0
  9
$JOINSTYLE
280
0
  9
$LWDISPLAY
290
0
  9
$INSUNITS
 70
6
  9
$HYPERLINKBASE
  1

  9
$STYLESHEET
  1

  9
$XEDIT
290
1
  9
$CEPSNTYPE
380
0
  9
$PSTYLEMODE
290
1
  9
$FINGERPRINTGUID
  2
{3DC08248-F75E-42B9-B0AB-7BD98579F40B}
  9
$VERSIONGUID
  2
{39683237-D92F-4143-951A-F722A0703924}
  9
$EXTNAMES
290
1
  9
$PSVPSCALE
 40
0.0
  9
$OLESTARTUP
290
0
  9
$SORTENTS
280
127
  9
$INDEXCTL
280
0
  9
$HIDETEXT
280
1
  9
$XCLIPFRAME
280
0
  9
$HALOGAP
280
0
  9
$OBSCOLOR
 70
257
  9
$OBSLTYPE
280
0
  9
$INTERSECTIONDISPLAY
280
0
  9
$INTERSECTIONCOLOR
 70
257
  9
$DIMASSOC
280
2
  9
$PROJECTNAME
  1

  9
$CAMERADISPLAY
290
0
  9
$LENSLENGTH
 40
50.0
  9
$CAMERAHEIGHT
 40
0.0
  9
$STEPSPERSEC
 40
24.0
  9
$STEPSIZE
 40
100.0
  9
$3DDWFPREC
 40
2.0
  9
$PSOLWIDTH
 40
0.005
  9
$PSOLHEIGHT
 40
0.08
  9
$LOFTANG1
 40
1.570796326795
  9
$LOFTANG2
 40
1.570796326795
  9
$LOFTMAG1
 40
0.0
  9
$LOFTMAG2
 40
0.0
  9
$LOFTPARAM
 70
7
  9
$LOFTNORMALS
280
1
  9
$LATITUDE
 40
37.795
  9
$LONGITUDE
 40
-122.394
  9
$NORTHDIRECTION
 40
0.0
  9
$TIMEZONE
 70
-8000
  9
$LIGHTGLYPHDISPLAY
280
1
  9
$TILEMODELIGHTSYNCH
280
1
  9
$CMATERIAL
347
20
  9
$SOLIDHIST
280
0
  9
$SHOWHIST
280
1
  9
$DWFFRAME
280
2
  9
$DGNFRAME
280
2
  9
$REALWORLDSCALE
290
1
  9
$INTERFERECOLOR
 62
256
  9
$CSHADOW
280
0
  9
$SHADOWPLANELOCATION
 40
0.0
  0
ENDSEC
  0
SECTION
  2
CLASSES
  0
CLASS
  1
ACDBDICTIONARYWDFLT
  2
AcDbDictionaryWithDefault
  3
ObjectDBX Classes
 90
0
 91
0
280
0
281
0
  0
CLASS
  1
SUN
  2
AcDbSun
  3
SCENEOE
 90
1153
 91
0
280
0
281
0
  0
CLASS
  1
VISUALSTYLE
  2
AcDbVisualStyle
  3
ObjectDBX Classes
 90
4095
 91
0
280
0
281
0
  0
CLASS
  1
MATERIAL
  2
AcDbMaterial
  3
ObjectDBX Classes
 90
1153
 91
0
280
0
281
0
  0
CLASS
  1
SCALE
  2
AcDbScale
  3
ObjectDBX Classes
 90
1153
 91
0
280
0
281
0
  0
CLASS
  1
TABLESTYLE
  2
AcDbTableStyle
  3
ObjectDBX Classes
 90
4095
 91
0
280
0
281
0
  0
CLASS
  1
MLEADERSTYLE
  2
AcDbMLeaderStyle
  3
ACDB_MLEADERSTYLE_CLASS
 90
4095
 91
0
280
0
281
0
  0
CLASS
  1
DICTIONARYVAR
  2
AcDbDictionaryVar
  3
ObjectDBX Classes
 90
0
 91
0
280
0
281
0
  0
CLASS
  1
CELLSTYLEMAP
  2
AcDbCellStyleMap
  3
ObjectDBX Classes
 90
1152
 91
0
280
0
281
0
  0
CLASS
  1
MENTALRAYRENDERSETTINGS
  2
AcDbMentalRayRenderSettings
  3
SCENEOE
 90
1024
 91
0
280
0
281
0
  0
CLASS
  1
ACDBDETAILVIEWSTYLE
  2
AcDbDetailViewStyle
  3
ObjectDBX Classes
 90
1025
 91
0
280
0
281
0
  0
CLASS
  1
ACDBSECTIONVIEWSTYLE
  2
AcDbSectionViewStyle
  3
ObjectDBX Classes
 90
1025
 91
0
280
0
281
0
  0
CLASS
  1
RASTERVARIABLES
  2
AcDbRasterVariables
  3
ISM
 90
0
 91
0
280
0
281
0
  0
CLASS
  1
ACDBPLACEHOLDER
  2
AcDbPlaceHolder
  3
ObjectDBX Classes
 90
0
 91
0
280
0
281
0
  0
CLASS
  1
LAYOUT
  2
AcDbLayout
  3
ObjectDBX Classes
 90
0
 91
0
280
0
281
0
  0
ENDSEC
  0
SECTION
  2
TABLES
  0
TABLE
  2
VPORT
  5
8
330
0
100
AcDbSymbolTable
 70
1
  0
VPORT
  5
23
330
8
100
AcDbSymbolTableRecord
100
AcDbViewportTableRecord
  2
*Active
 70
0
 10
0.0
 20
0.0
 11
1.0
 21
1.0
 12
0.0
 22
0.0
 13
0.0
 23
0.0
 14
0.5
 24
0.5
 15
0.5
 25
0.5
 16
0.0
 26
0.0
 36
1.0
 17
0.0
 27
0.0
 37
0.0
 40
1000.0
 41
1.34
 42
50.0
 43
0.0
 44
0.0
 50
0.0
 51
0.0
 71
0
 72
1000
 73
1
 74
3
 75
0
 76
0
 77
0
 78
0
281
0
 65
0
146
0.0
  0
ENDTAB
  0
TABLE
  2
LTYPE
  5
2
330
0
100
AcDbSymbolTable
 70
3
  0
LTYPE
  5
24
330
2
100
AcDbSymbolTableRecord
100
AcDbLinetypeTableRecord
  2
ByBlock
 70
0
  3

 72
65
 73
0
 40
0.0
  0
LTYPE
  5
25
330
2
100
AcDbSymbolTableRecord
100
AcDbLinetypeTableRecord
  2
ByLayer
 70
0
  3

 72
65
 73
0
 40
0.0
  0
LTYPE
  5
26
330
2
100
AcDbSymbolTableRecord
100
AcDbLinetypeTableRecord
  2
Continuous
 70
0
  3

 72
65
 73
0
 40
0.0
  0
ENDTAB
  0
TABLE
  2
LAYER
  5
1
330
0
100
AcDbSymbolTable
 70
5
  0
LAYER
  5
27
330
1
100
AcDbSymbolTableRecord
100
AcDbLayerTableRecord
  2
0
 70
0
 62
7
  6
Continuous
370
-3
390
13
347
21
  0
LAYER
  5
28
330
1
100
AcDbSymbolTableRecord
100
AcDbLayerTableRecord
  2
Defpoints
 70
0
 62
7
  6
Continuous
290
0
370
-3
390
13
347
21
  0
LAYER
  5
30
330
1
100
AcDbSymbolTableRecord
100
AcDbLayerTableRecord
  2
FoilLayer
 70
0
 62
1
  6
Continuous
370
50
390
13
347
21
  0
LAYER
  5
31
330
1
100
AcDbSymbolTableRecord
100
AcDbLayerTableRecord
  2
StringerLayer
 70
0
 62
1
  6
Continuous
370
50
390
13
347
21
  0
LAYER
  5
32
330
1
100
AcDbSymbolTableRecord
100
AcDbLayerTableRecord
  2
SubLayer
 70
0
 62
1
  6
Continuous
370
50
390
13
347
21
  0
ENDTAB
  0
TABLE
  2
STYLE
  5
5
330
0
100
AcDbSymbolTable
 70
2
  0
STYLE
  5
29
330
5
100
AcDbSymbolTableRecord
100
AcDbTextStyleTableRecord
  2
Standard
 70
0
 40
0.0
 41
1.0
 50
0.0
 71
0
 42
2.5
  3
txt
  4

  0
STYLE
  5
2F
330
5
100
AcDbSymbolTableRecord
100
AcDbTextStyleTableRecord
  2
MSゴシック
 70
0
 40
0.0
 41
1.0
 50
0.0
 71
0
 42
2.5
  3
romans
  4

  0
ENDTAB
  0
TABLE
  2
VIEW
  5
7
330
0
100
AcDbSymbolTable
 70
0
  0
ENDTAB
  0
TABLE
  2
UCS
  5
6
330
0
100
AcDbSymbolTable
 70
0
  0
ENDTAB
  0
TABLE
  2
APPID
  5
3
330
0
100
AcDbSymbolTable
 70
3
  0
APPID
  5
2A
330
3
100
AcDbSymbolTableRecord
100
AcDbRegAppTableRecord
  2
ACAD
 70
0
  0
APPID
  5
1B0
330
3
100
AcDbSymbolTableRecord
100
AcDbRegAppTableRecord
  2
HATCHBACKGROUNDCOLOR
 70
0
  0
APPID
  5
1B1
330
3
100
AcDbSymbolTableRecord
100
AcDbRegAppTableRecord
  2
EZDXF
 70
0
  0
ENDTAB
  0
TABLE
  2
DIMSTYLE
  5
4
330
0
100
AcDbSymbolTable
 70
1
100
AcDbDimStyleTable
  0
DIMSTYLE
105
2B
330
4
100
AcDbSymbolTableRecord
100
AcDbDimStyleTableRecord
  2
Standard
 70
0
 40
1.0
 41
2.5
 42
0.625
 43
3.75
 44
1.25
 45
0.0
 46
0.0
 47
0.0
 48
0.0
 49
2.5
140
2.5
141
2.5
142
0.0
143
0.03937007874
144
1.0
145
0.0
146
1.0
147
0.625
148
0.0
 69
0
 70
0
 71
0
 72
0
 73
0
 74
0
 75
0
 76
0
 77
1
 78
8
 79
3
170
0
171
3
172
1
173
0
174
0
175
0
176
0
177
0
178
0
179
2
271
2
272
2
273
2
274
3
275
0
276
0
277
2
278
44
279
0
280
0
281
0
282
0
283
0
284
8
285
0
286
0
288
0
289
3
290
0
371
-2
372
-2
  0
ENDTAB
  0
TABLE
  2
BLOCK_RECORD
  5
9
330
0
100
AcDbSymbolTable
 70
2
  0
BLOCK_RECORD
  5
17
330
9
100
AcDbSymbolTableRecord
100
AcDbBlockTableRecord
  2
*Model_Space
340
1A
 70
0
280
1
281
0
  0
BLOCK_RECORD
  5
1B
330
9
100
AcDbSymbolTableRecord
100
AcDbBlockTableRecord
  2
*Paper_Space
340
1E
 70
0
280
1
281
0
  0
ENDTAB
  0
ENDSEC
  0
SECTION
  2
BLOCKS
  0
BLOCK
  5
18
330
17
100
AcDbEntity
  8
0
100
AcDbBlockBegin
  2
*Model_Space
 70
0
 10
0.0
 20
0.0
 30
0.0
  3
*Model_Space
  1

  0
ENDBLK
  5
19
330
17
100
AcDbEntity
  8
0
100
AcDbBlockEnd
  0
BLOCK
  5
1C
330
1B
100
AcDbEntity
  8
0
100
AcDbBlockBegin
  2
*Paper_Space
 70
0
 10
0.0
 20
0.0
 30
0.0
  3
*Paper_Space
  1

  0
ENDBLK
  5
1D
330
1B
100
AcDbEntity
  8
0
100
AcDbBlockEnd
  0
ENDSEC
  0
SECTION
  2
ENTITIES
  0
LINE
  5
33
330
17
100
AcDbEntity
  8
FoilLayer
100
AcDbLine
 10
269.60134230920613
 20
-0.4039856379632438
 30
0.0
 11
269.52252983373046
 21
-0.37637815180324846
 31
0.0
  0
LINE
  5
34
330
17
100
AcDbEntity
  8
FoilLayer
100
AcDbLine
 10
269.52252983373046
 20
-0.37637815180324846
 30
0.0
 11
269.27308013741174
 21
-0.29179124479003415
 31
0.0
  0
LINE
  5
35
330
17
100
AcDbEntity
  8
FoilLayer
100
AcDbLine
 10
269.27308013741174
 20
-0.29179124479003415
 30
0.0
 11
268.8838109908524
 21
-0.15513198902743713
 31
0.0
  0
LINE
  5
36
330
17
100
AcDbEntity
  8
FoilLayer
100
AcDbLine
 10
268.8838109908524
 20
-0.15513198902743713
 30
0.0
 11
268.34964300053025
 21
0.031207574813551076
 31
0.0
  0
LINE
  5
37
330
17
100
AcDbEntity
  8
FoilLayer
100
AcDbLine
 10
268.34964300053025
 20
0.031207574813551076
 30
0.0
 11
267.67811733079964
 21
0.263340735320461
 31
0.0
  0
LINE
  5
38
330
17
100
AcDbEntity
  8
FoilLayer
100
AcDbLine
 10
267.67811733079964
 20
0.263340735320461
 30
0.0
 11
266.8716335816622
 21
0.5404504858281132
 31
0.0
  0
LINE
  5
39
330
17
100
AcDbEntity
  8
FoilLayer
100
AcDbLine
 10
266.8716335816622
 20
0.5404504858281132
 30
0.0
 11
265.93483731980905
 21
0.8554809874236291
 31
0.0
  0
LINE
  5
3A
330
17
100
AcDbEntity
  8
FoilLayer
100
AcDbLine
 10
265.93483731980905
 20
0.8554809874236291
 30
0.0
 11
264.8641051978454
 21
1.2123916947448476
 31
0.0
  0
LINE
  5
3B
330
17
100
AcDbEntity
  8
FoilLayer
100
AcDbLine
 10
264.8641051978454
 20
1.2123916947448476
 30
0.0
 11
263.6725093409296
 21
1.6096075075516896
 31
0.0
  0
LINE
  5
3C
330
17
100
AcDbEntity
  8
FoilLayer
100
AcDbLine
 10
263.6725093409296
 20
1.6096075075516896
 30
0.0
 11
262.35356874178314
 21
2.036812361420184
 31
0.0
  0
LINE
  5
3D
330
17
100
AcDbEntity
  8
FoilLayer
100
AcDbLine
 10
262.35356874178314
 20
2.036812361420184
 30
0.0
 11
260.912060272045
 21
2.500755736730885
 31
0.0
  0
LINE
  5
3E
330
17
100
AcDbEntity
  8
FoilLayer
100
AcDbLine
 10
260.912060272045
 20
2.500755736730885
 30
0.0
 11
259.3453612272748
 21
2.9939811685015734
 31
0.0
  0
LINE
  5
3F
330
17
100
AcDbEntity
  8
FoilLayer
100
AcDbLine
 10
259.3453612272748
 20
2.9939811685015734
 30
0.0
 11
257.65741769825274
 21
3.5165403299305753
 31
0.0
  0
LINE
  5
40
330
17
100
AcDbEntity
  8
FoilLayer
100
AcDbLine
 10
257.65741769825274
 20
3.5165403299305753
 30
0.0
 11
255.84515633645867
 21
4.072247478084399
 31
0.0
  0
LINE
  5
41
330
17
100
AcDbEntity
  8
FoilLayer
100
AcDbLine
 10
255.84515633645867
 20
4.072247478084399
 30
0.0
 11
253.91734475857976
 21
4.656814744047514
 31
0.0
  0
LINE
  5
42
330
17
100
AcDbEntity
  8
FoilLayer
100
AcDbLine
 10
253.91734475857976
 20
4.656814744047514
 30
0.0
 11
251.8723597944961
 21
5.266578324182333
 31
0.0
  0
LINE
  5
43
330
17
100
AcDbEntity
  8
FoilLayer
100
AcDbLine
 10
251.8723597944961
 20
5.266578324182333
 30
0.0
 11
249.71179328871716
 21
5.90521368571313
 31
0.0
  0
LINE
  5
44
330
17
100
AcDbEntity
  8
FoilLayer
100
AcDbLine
 10
249.71179328871716
 20
5.90521368571313
 30
0.0
 11
247.43486805861988
 21
6.568801248754162
 31
0.0
  0
LINE
  5
45
330
17
100
AcDbEntity
  8
FoilLayer
100
AcDbLine
 10
247.43486805861988
 20
6.568801248754162
 30
0.0
 11
245.0414165326746
 21
7.257386936566911
 31
0.0
  0
LINE
  5
46
330
17
100
AcDbEntity
  8
FoilLayer
100
AcDbLine
 10
245.0414165326746
 20
7.257386936566911
 30
0.0
 11
242.53454389689097
 21
7.971264623263471
 31
0.0
  0
LINE
  5
47
330
17
100
AcDbEntity
  8
FoilLayer
100
AcDbLine
 10
242.53454389689097
 20
7.971264623263471
 30
0.0
 11
239.9166790316482
 21
8.71804158608415
 31
0.0
  0
LINE
  5
48
330
17
100
AcDbEntity
  8
FoilLayer
100
AcDbLine
 10
239.9166790316482
 20
8.71804158608415
 30
0.0
 11
237.18933814924992
 21
9.490166116312992
 31
0.0
  0
LINE
  5
49
330
17
100
AcDbEntity
  8
FoilLayer
100
AcDbLine
 10
237.18933814924992
 20
9.490166116312992
 30
0.0
 11
234.36414747803553
 21
10.294994188131232
 31
0.0
  0
LINE
  5
4A
330
17
100
AcDbEntity
  8
FoilLayer
100
AcDbLine
 10
234.36414747803553
 20
10.294994188131232
 30
0.0
 11
231.43834087984396
 21
11.120860165286315
 31
0.0
  0
LINE
  5
4B
330
17
100
AcDbEntity
  8
FoilLayer
100
AcDbLine
 10
231.43834087984396
 20
11.120860165286315
 30
0.0
 11
228.40886107496652
 21
11.975754481768083
 31
0.0
  0
LINE
  5
4C
330
17
100
AcDbEntity
  8
FoilLayer
100
AcDbLine
 10
228.40886107496652
 20
11.975754481768083
 30
0.0
 11
225.28755401054195
 21
12.855697643847103
 31
0.0
  0
LINE
  5
4D
330
17
100
AcDbEntity
  8
FoilLayer
100
AcDbLine
 10
225.28755401054195
 20
12.855697643847103
 30
0.0
 11
222.07569045139172
 21
13.764480882024618
 31
0.0
  0
LINE
  5
4E
330
17
100
AcDbEntity
  8
FoilLayer
100
AcDbLine
 10
222.07569045139172
 20
13.764480882024618
 30
0.0
 11
218.7803153477032
 21
14.69415853186131
 31
0.0
  0
LINE
  5
4F
330
17
100
AcDbEntity
  8
FoilLayer
100
AcDbLine
 10
218.7803153477032
 20
14.69415853186131
 30
0.0
 11
215.40290855099425
 21
15.648463450315134
 31
0.0
  0
LINE
  5
50
330
17
100
AcDbEntity
  8
FoilLayer
100
AcDbLine
 10
215.40290855099425
 20
15.648463450315134
 30
0.0
 11
211.94199239790538
 21
16.619511970377047
 31
0.0
  0
LINE
  5
51
330
17
100
AcDbEntity
  8
FoilLayer
100
AcDbLine
 10
211.94199239790538
 20
16.619511970377047
 30
0.0
 11
208.39767424719753
 21
17.61142303748091
 31
0.0
  0
LINE
  5
52
330
17
100
AcDbEntity
  8
FoilLayer
100
AcDbLine
 10
208.39767424719753
 20
17.61142303748091
 30
0.0
 11
204.7826813102905
 21
18.624119175501196
 31
0.0
  0
LINE
  5
53
330
17
100
AcDbEntity
  8
FoilLayer
100
AcDbLine
 10
204.7826813102905
 20
18.624119175501196
 30
0.0
 11
201.102060261257
 21
19.65734912182036
 31
0.0
  0
LINE
  5
54
330
17
100
AcDbEntity
  8
FoilLayer
100
AcDbLine
 10
201.102060261257
 20
19.65734912182036
 30
0.0
 11
197.35973081714252
 21
20.702879426065838
 31
0.0
  0
LINE
  5
55
330
17
100
AcDbEntity
  8
FoilLayer
100
AcDbLine
 10
197.35973081714252
 20
20.702879426065838
 30
0.0
 11
193.55041346184532
 21
21.756873859089694
 31
0.0
  0
LINE
  5
56
330
17
100
AcDbEntity
  8
FoilLayer
100
AcDbLine
 10
193.55041346184532
 20
21.756873859089694
 30
0.0
 11
189.6787120842813
 21
22.823355539625148
 31
0.0
  0
LINE
  5
57
330
17
100
AcDbEntity
  8
FoilLayer
100
AcDbLine
 10
189.6787120842813
 20
22.823355539625148
 30
0.0
 11
185.74866816087956
 21
23.902353890332975
 31
0.0
  0
LINE
  5
58
330
17
100
AcDbEntity
  8
FoilLayer
100
AcDbLine
 10
185.74866816087956
 20
23.902353890332975
 30
0.0
 11
181.76912197559955
 21
24.993720792788785
 31
0.0
  0
LINE
  5
59
330
17
100
AcDbEntity
  8
FoilLayer
100
AcDbLine
 10
181.76912197559955
 20
24.993720792788785
 30
0.0
 11
177.7454552363726
 21
26.092974673921685
 31
0.0
  0
LINE
  5
5A
330
17
100
AcDbEntity
  8
FoilLayer
100
AcDbLine
 10
177.7454552363726
 20
26.092974673921685
 30
0.0
 11
173.6795422626609
 21
27.184134753002578
 31
0.0
  0
LINE
  5
5B
330
17
100
AcDbEntity
  8
FoilLayer
100
AcDbLine
 10
173.6795422626609
 20
27.184134753002578
 30
0.0
 11
169.5679539686243
 21
28.27530471542164
 31
0.0
  0
LINE
  5
5C
330
17
100
AcDbEntity
  8
FoilLayer
100
AcDbLine
 10
169.5679539686243
 20
28.27530471542164
 30
0.0
 11
165.88575600268535
 21
29.241789810273875
 31
0.0
  0
LINE
  5
5D
330
17
100
AcDbEntity
  8
FoilLayer
100
AcDbLine
 10
165.88575600268535
 20
29.241789810273875
 30
0.0
 11
165.49224890082604
 21
27.742572627612766
 31
0.0
  0
LINE
  5
5E
330
17
100
AcDbEntity
  8
FoilLayer
100
AcDbLine
 10
165.49224890082604
 20
27.742572627612766
 30
0.0
 11
165.0233793765869
 21
27.865654119113806
 31
0.0
  0
LINE
  5
5F
330
17
100
AcDbEntity
  8
FoilLayer
100
AcDbLine
 10
165.0233793765869
 20
27.865654119113806
 30
0.0
 11
160.83901648724589
 21
28.946974292681272
 31
0.0
  0
LINE
  5
60
330
17
100
AcDbEntity
  8
FoilLayer
100
AcDbLine
 10
160.83901648724589
 20
28.946974292681272
 30
0.0
 11
156.62313956036502
 21
30.019601497165464
 31
0.0
  0
LINE
  5
61
330
17
100
AcDbEntity
  8
FoilLayer
100
AcDbLine
 10
156.62313956036502
 20
30.019601497165464
 30
0.0
 11
152.3748193916034
 21
31.079636969119992
 31
0.0
  0
LINE
  5
62
330
17
100
AcDbEntity
  8
FoilLayer
100
AcDbLine
 10
152.3748193916034
 20
31.079636969119992
 30
0.0
 11
148.0831592709689
 21
32.12771369320375
 31
0.0
  0
LINE
  5
63
330
17
100
AcDbEntity
  8
FoilLayer
100
AcDbLine
 10
148.0831592709689
 20
32.12771369320375
 30
0.0
 11
143.7630136384014
 21
33.1642219515535
 31
0.0
  0
LINE
  5
64
330
17
100
AcDbEntity
  8
FoilLayer
100
AcDbLine
 10
143.7630136384014
 20
33.1642219515535
 30
0.0
 11
139.42371295577607
 21
34.195247194401844
 31
0.0
  0
LINE
  5
65
330
17
100
AcDbEntity
  8
FoilLayer
100
AcDbLine
 10
139.42371295577607
 20
34.195247194401844
 30
0.0
 11
135.07370118189795
 21
35.20518267823843
 31
0.0
  0
LINE
  5
66
330
17
100
AcDbEntity
  8
FoilLayer
100
AcDbLine
 10
135.07370118189795
 20
35.20518267823843
 30
0.0
 11
130.71336907936075
 21
36.1898257522163
 31
0.0
  0
LINE
  5
67
330
17
100
AcDbEntity
  8
FoilLayer
100
AcDbLine
 10
130.71336907936075
 20
36.1898257522163
 30
0.0
 11
126.3420606718056
 21
37.14434382475461
 31
0.0
  0
LINE
  5
68
330
17
100
AcDbEntity
  8
FoilLayer
100
AcDbLine
 10
126.3420606718056
 20
37.14434382475461
 30
0.0
 11
121.94499257780353
 21
38.058559826985196
 31
0.0
  0
LINE
  5
69
330
17
100
AcDbEntity
  8
FoilLayer
100
AcDbLine
 10
121.94499257780353
 20
38.058559826985196
 30
0.0
 11
117.5219051195906
 21
38.944052357250165
 31
0.0
  0
LINE
  5
6A
330
17
100
AcDbEntity
  8
FoilLayer
100
AcDbLine
 10
117.5219051195906
 20
38.944052357250165
 30
0.0
 11
113.08876726145718
 21
39.80014383957962
 31
0.0
  0
LINE
  5
6B
330
17
100
AcDbEntity
  8
FoilLayer
100
AcDbLine
 10
113.08876726145718
 20
39.80014383957962
 30
0.0
 11
108.63563530552199
 21
40.62303215641467
 31
0.0
  0
LINE
  5
6C
330
17
100
AcDbEntity
  8
FoilLayer
100
AcDbLine
 10
108.63563530552199
 20
40.62303215641467
 30
0.0
 11
104.1748085756928
 21
41.408611475161386
 31
0.0
  0
LINE
  5
6D
330
17
100
AcDbEntity
  8
FoilLayer
100
AcDbLine
 10
104.1748085756928
 20
41.408611475161386
 30
0.0
 11
99.6970486343163
 21
42.15704574458679
 31
0.0
  0
LINE
  5
6E
330
17
100
AcDbEntity
  8
FoilLayer
100
AcDbLine
 10
99.6970486343163
 20
42.15704574458679
 30
0.0
 11
95.20707908311005
 21
42.86823977474471
 31
0.0
  0
LINE
  5
6F
330
17
100
AcDbEntity
  8
FoilLayer
100
AcDbLine
 10
95.20707908311005
 20
42.86823977474471
 30
0.0
 11
90.69994919807161
 21
43.54231208817428
 31
0.0
  0
LINE
  5
70
330
17
100
AcDbEntity
  8
FoilLayer
100
AcDbLine
 10
90.69994919807161
 20
43.54231208817428
 30
0.0
 11
86.184280513105
 21
44.17920522093108
 31
0.0
  0
LINE
  5
71
330
17
100
AcDbEntity
  8
FoilLayer
100
AcDbLine
 10
86.184280513105
 20
44.17920522093108
 30
0.0
 11
81.66470702614848
 21
44.77885257127818
 31
0.0
  0
LINE
  5
72
330
17
100
AcDbEntity
  8
FoilLayer
100
AcDbLine
 10
81.66470702614848
 20
44.77885257127818
 30
0.0
 11
77.13661707525776
 21
45.34131334549241
 31
0.0
  0
LINE
  5
73
330
17
100
AcDbEntity
  8
FoilLayer
100
AcDbLine
 10
77.13661707525776
 20
45.34131334549241
 30
0.0
 11
72.60797872769385
 21
45.866174315434996
 31
0.0
  0
LINE
  5
74
330
17
100
AcDbEntity
  8
FoilLayer
100
AcDbLine
 10
72.60797872769385
 20
45.866174315434996
 30
0.0
 11
68.07162454827974
 21
46.34592947261294
 31
0.0
  0
LINE
  5
75
330
17
100
AcDbEntity
  8
FoilLayer
100
AcDbLine
 10
68.07162454827974
 20
46.34592947261294
 30
0.0
 11
63.5291694413705
 21
46.7886437188101
 31
0.0
  0
LINE
  5
76
330
17
100
AcDbEntity
  8
FoilLayer
100
AcDbLine
 10
63.5291694413705
 20
46.7886437188101
 30
0.0
 11
58.99020274256583
 21
47.19797556066527
 31
0.0
  0
LINE
  5
77
330
17
100
AcDbEntity
  8
FoilLayer
100
AcDbLine
 10
58.99020274256583
 20
47.19797556066527
 30
0.0
 11
54.45183728625361
 21
47.566226514866365
 31
0.0
  0
LINE
  5
78
330
17
100
AcDbEntity
  8
FoilLayer
100
AcDbLine
 10
54.45183728625361
 20
47.566226514866365
 30
0.0
 11
49.92106460854498
 21
47.901153250172534
 31
0.0
  0
LINE
  5
79
330
17
100
AcDbEntity
  8
FoilLayer
100
AcDbLine
 10
49.92106460854498
 20
47.901153250172534
 30
0.0
 11
45.40297331154068
 21
48.194724589775994
 31
0.0
  0
LINE
  5
7A
330
17
100
AcDbEntity
  8
FoilLayer
100
AcDbLine
 10
45.40297331154068
 20
48.194724589775994
 30
0.0
 11
40.89327573586314
 21
48.44695297397511
 31
0.0
  0
LINE
  5
7B
330
17
100
AcDbEntity
  8
FoilLayer
100
AcDbLine
 10
40.89327573586314
 20
48.44695297397511
 30
0.0
 11
36.39006123756289
 21
48.65791369756416
 31
0.0
  0
LINE
  5
7C
330
17
100
AcDbEntity
  8
FoilLayer
100
AcDbLine
 10
36.39006123756289
 20
48.65791369756416
 30
0.0
 11
31.899346512773803
 21
48.831654466788805
 31
0.0
  0
LINE
  5
7D
330
17
100
AcDbEntity
  8
FoilLayer
100
AcDbLine
 10
31.899346512773803
 20
48.831654466788805
 30
0.0
 11
27.425283025567182
 21
48.96817635033362
 31
0.0
  0
LINE
  5
7E
330
17
100
AcDbEntity
  8
FoilLayer
100
AcDbLine
 10
27.425283025567182
 20
48.96817635033362
 30
0.0
 11
22.978230448695314
 21
49.06745255252623
 31
0.0
  0
LINE
  5
7F
330
17
100
AcDbEntity
  8
FoilLayer
100
AcDbLine
 10
22.978230448695314
 20
49.06745255252623
 30
0.0
 11
18.547909519726062
 21
49.12539784147769
 31
0.0
  0
LINE
  5
80
330
17
100
AcDbEntity
  8
FoilLayer
100
AcDbLine
 10
18.547909519726062
 20
49.12539784147769
 30
0.0
 11
14.144563826042173
 21
49.142027703815344
 31
0.0
  0
LINE
  5
81
330
17
100
AcDbEntity
  8
FoilLayer
100
AcDbLine
 10
14.144563826042173
 20
49.142027703815344
 30
0.0
 11
9.752355443063294
 21
49.11313512657485
 31
0.0
  0
LINE
  5
82
330
17
100
AcDbEntity
  8
FoilLayer
100
AcDbLine
 10
9.752355443063294
 20
49.11313512657485
 30
0.0
 11
5.385300299555297
 21
49.051162998103294
 31
0.0
  0
LINE
  5
83
330
17
100
AcDbEntity
  8
FoilLayer
100
AcDbLine
 10
5.385300299555297
 20
49.051162998103294
 30
0.0
 11
1.0554560079565363
 21
48.95623280841102
 31
0.0
  0
LINE
  5
84
330
17
100
AcDbEntity
  8
FoilLayer
100
AcDbLine
 10
1.0554560079565363
 20
48.95623280841102
 30
0.0
 11
-3.2467855681346407
 21
48.819932000884805
 31
0.0
  0
LINE
  5
85
330
17
100
AcDbEntity
  8
FoilLayer
100
AcDbLine
 10
-3.2467855681346407
 20
48.819932000884805
 30
0.0
 11
-7.503593452082924
 21
48.64664282029974
 31
0.0
  0
LINE
  5
86
330
17
100
AcDbEntity
  8
FoilLayer
100
AcDbLine
 10
-7.503593452082924
 20
48.64664282029974
 30
0.0
 11
-11.734877573136004
 21
48.42772623426774
 31
0.0
  0
LINE
  5
87
330
17
100
AcDbEntity
  8
FoilLayer
100
AcDbLine
 10
-11.734877573136004
 20
48.42772623426774
 30
0.0
 11
-15.932699845703212
 21
48.1716479176956
 31
0.0
  0
LINE
  5
88
330
17
100
AcDbEntity
  8
FoilLayer
100
AcDbLine
 10
-15.932699845703212
 20
48.1716479176956
 30
0.0
 11
-20.098569939006055
 21
47.878295364960884
 31
0.0
  0
LINE
  5
89
330
17
100
AcDbEntity
  8
FoilLayer
100
AcDbLine
 10
-20.098569939006055
 20
47.878295364960884
 30
0.0
 11
-24.218259619503186
 21
47.55194225876173
 31
0.0
  0
LINE
  5
8A
330
17
100
AcDbEntity
  8
FoilLayer
100
AcDbLine
 10
-24.218259619503186
 20
47.55194225876173
 30
0.0
 11
-28.28389876267802
 21
47.19297035573508
 31
0.0
  0
LINE
  5
8B
330
17
100
AcDbEntity
  8
FoilLayer
100
AcDbLine
 10
-28.28389876267802
 20
47.19297035573508
 30
0.0
 11
-32.30164492354962
 21
46.79299792142893
 31
0.0
  0
LINE
  5
8C
330
17
100
AcDbEntity
  8
FoilLayer
100
AcDbLine
 10
-32.30164492354962
 20
46.79299792142893
 30
0.0
 11
-36.28338010818723
 21
46.347003315140945
 31
0.0
  0
LINE
  5
8D
330
17
100
AcDbEntity
  8
FoilLayer
100
AcDbLine
 10
-36.28338010818723
 20
46.347003315140945
 30
0.0
 11
-40.21881632923335
 21
45.86807717811914
 31
0.0
  0
LINE
  5
8E
330
17
100
AcDbEntity
  8
FoilLayer
100
AcDbLine
 10
-40.21881632923335
 20
45.86807717811914
 30
0.0
 11
-44.10402343738818
 21
45.356208520405296
 31
0.0
  0
LINE
  5
8F
330
17
100
AcDbEntity
  8
FoilLayer
100
AcDbLine
 10
-44.10402343738818
 20
45.356208520405296
 30
0.0
 11
-47.94046081032427
 21
44.81118918656805
 31
0.0
  0
LINE
  5
90
330
17
100
AcDbEntity
  8
FoilLayer
100
AcDbLine
 10
-47.94046081032427
 20
44.81118918656805
 30
0.0
 11
-51.71367345669171
 21
44.23814194672764
 31
0.0
  0
LINE
  5
91
330
17
100
AcDbEntity
  8
FoilLayer
100
AcDbLine
 10
-51.71367345669171
 20
44.23814194672764
 30
0.0
 11
-55.424731797100264
 21
43.62802987976679
 31
0.0
  0
LINE
  5
92
330
17
100
AcDbEntity
  8
FoilLayer
100
AcDbLine
 10
-55.424731797100264
 20
43.62802987976679
 30
0.0
 11
-59.08345558128684
 21
42.9805637270467
 31
0.0
  0
LINE
  5
93
330
17
100
AcDbEntity
  8
FoilLayer
100
AcDbLine
 10
-59.08345558128684
 20
42.9805637270467
 30
0.0
 11
-62.68681942894557
 21
42.30044497025951
 31
0.0
  0
LINE
  5
94
330
17
100
AcDbEntity
  8
FoilLayer
100
AcDbLine
 10
-62.68681942894557
 20
42.30044497025951
 30
0.0
 11
-66.22948318065524
 21
41.587095402755025
 31
0.0
  0
LINE
  5
95
330
17
100
AcDbEntity
  8
FoilLayer
100
AcDbLine
 10
-66.22948318065524
 20
41.587095402755025
 30
0.0
 11
-69.71099556705566
 21
40.844713072441735
 31
0.0
  0
LINE
  5
96
330
17
100
AcDbEntity
  8
FoilLayer
100
AcDbLine
 10
-69.71099556705566
 20
40.844713072441735
 30
0.0
 11
-73.12208430455674
 21
40.078625636068104
 31
0.0
  0
LINE
  5
97
330
17
100
AcDbEntity
  8
FoilLayer
100
AcDbLine
 10
-73.12208430455674
 20
40.078625636068104
 30
0.0
 11
-76.45472508489787
 21
39.284780570921754
 31
0.0
  0
LINE
  5
98
330
17
100
AcDbEntity
  8
FoilLayer
100
AcDbLine
 10
-76.45472508489787
 20
39.284780570921754
 30
0.0
 11
-79.72603068382692
 21
38.45379766982895
 31
0.0
  0
LINE
  5
99
330
17
100
AcDbEntity
  8
FoilLayer
100
AcDbLine
 10
-79.72603068382692
 20
38.45379766982895
 30
0.0
 11
-82.9324360016492
 21
37.58962292680073
 31
0.0
  0
LINE
  5
9A
330
17
100
AcDbEntity
  8
FoilLayer
100
AcDbLine
 10
-82.9324360016492
 20
37.58962292680073
 30
0.0
 11
-86.07730184671149
 21
36.69534400528974
 31
0.0
  0
LINE
  5
9B
330
17
100
AcDbEntity
  8
FoilLayer
100
AcDbLine
 10
-86.07730184671149
 20
36.69534400528974
 30
0.0
 11
-89.14019055503249
 21
35.786994476603844
 31
0.0
  0
LINE
  5
9C
330
17
100
AcDbEntity
  8
FoilLayer
100
AcDbLine
 10
-89.14019055503249
 20
35.786994476603844
 30
0.0
 11
-92.13239790077684
 21
34.85011909820107
 31
0.0
  0
LINE
  5
9D
330
17
100
AcDbEntity
  8
FoilLayer
100
AcDbLine
 10
-92.13239790077684
 20
34.85011909820107
 30
0.0
 11
-95.04631711553617
 21
33.888641104256536
 31
0.0
  0
LINE
  5
9E
330
17
100
AcDbEntity
  8
FoilLayer
100
AcDbLine
 10
-95.04631711553617
 20
33.888641104256536
 30
0.0
 11
-97.88692703306077
 21
32.90375014636833
 31
0.0
  0
LINE
  5
9F
330
17
100
AcDbEntity
  8
FoilLayer
100
AcDbLine
 10
-97.88692703306077
 20
32.90375014636833
 30
0.0
 11
-100.65187018740734
 21
31.89332684209445
 31
0.0
  0
LINE
  5
A0
330
17
100
AcDbEntity
  8
FoilLayer
100
AcDbLine
 10
-100.65187018740734
 20
31.89332684209445
 30
0.0
 11
-103.34578128732059
 21
30.862829297333576
 31
0.0
  0
LINE
  5
A1
330
17
100
AcDbEntity
  8
FoilLayer
100
AcDbLine
 10
-103.34578128732059
 20
30.862829297333576
 30
0.0
 11
-105.95858522144844
 21
29.817186270221786
 31
0.0
  0
LINE
  5
A2
330
17
100
AcDbEntity
  8
FoilLayer
100
AcDbLine
 10
-105.95858522144844
 20
29.817186270221786
 30
0.0
 11
-108.48702222906006
 21
28.756149358419783
 31
0.0
  0
LINE
  5
A3
330
17
100
AcDbEntity
  8
FoilLayer
100
AcDbLine
 10
-108.48702222906006
 20
28.756149358419783
 30
0.0
 11
-110.92844593799848
 21
27.681045581379173
 31
0.0
  0
LINE
  5
A4
330
17
100
AcDbEntity
  8
FoilLayer
100
AcDbLine
 10
-110.92844593799848
 20
27.681045581379173
 30
0.0
 11
-113.29183407491051
 21
26.58364896388238
 31
0.0
  0
LINE
  5
A5
330
17
100
AcDbEntity
  8
FoilLayer
100
AcDbLine
 10
-113.29183407491051
 20
26.58364896388238
 30
0.0
 11
-115.57239625670802
 21
25.476494001127847
 31
0.0
  0
LINE
  5
A6
330
17
100
AcDbEntity
  8
FoilLayer
100
AcDbLine
 10
-115.57239625670802
 20
25.476494001127847
 30
0.0
 11
-117.77778509188752
 21
24.351650460530195
 31
0.0
  0
LINE
  5
A7
330
17
100
AcDbEntity
  8
FoilLayer
100
AcDbLine
 10
-117.77778509188752
 20
24.351650460530195
 30
0.0
 11
-119.88899583485752
 21
23.2273052910126
 31
0.0
  0
LINE
  5
A8
330
17
100
AcDbEntity
  8
FoilLayer
100
AcDbLine
 10
-119.88899583485752
 20
23.2273052910126
 30
0.0
 11
-121.91770101209147
 21
22.088893014684594
 31
0.0
  0
LINE
  5
A9
330
17
100
AcDbEntity
  8
FoilLayer
100
AcDbLine
 10
-121.91770101209147
 20
22.088893014684594
 30
0.0
 11
-123.84395866792954
 21
20.958274105919102
 31
0.0
  0
LINE
  5
AA
330
17
100
AcDbEntity
  8
FoilLayer
100
AcDbLine
 10
-123.84395866792954
 20
20.958274105919102
 30
0.0
 11
-125.6847347099114
 21
19.81161245424351
 31
0.0
  0
LINE
  5
AB
330
17
100
AcDbEntity
  8
FoilLayer
100
AcDbLine
 10
-125.6847347099114
 20
19.81161245424351
 30
0.0
 11
-127.43763663671211
 21
18.65588137030446
 31
0.0
  0
LINE
  5
AC
330
17
100
AcDbEntity
  8
FoilLayer
100
AcDbLine
 10
-127.43763663671211
 20
18.65588137030446
 30
0.0
 11
-129.1141585317966
 21
17.491485238929375
 31
0.0
  0
LINE
  5
AD
330
17
100
AcDbEntity
  8
FoilLayer
100
AcDbLine
 10
-129.1141585317966
 20
17.491485238929375
 30
0.0
 11
-130.69727137636025
 21
16.337384633999996
 31
0.0
  0
LINE
  5
AE
330
17
100
AcDbEntity
  8
FoilLayer
100
AcDbLine
 10
-130.69727137636025
 20
16.337384633999996
 30
0.0
 11
-132.18447758357243
 21
15.189736270255192
 31
0.0
  0
LINE
  5
AF
330
17
100
AcDbEntity
  8
FoilLayer
100
AcDbLine
 10
-132.18447758357243
 20
15.189736270255192
 30
0.0
 11
-133.57034692804098
 21
14.057113927063766
 31
0.0
  0
LINE
  5
B0
330
17
100
AcDbEntity
  8
FoilLayer
100
AcDbLine
 10
-133.57034692804098
 20
14.057113927063766
 30
0.0
 11
-134.8632483306774
 21
12.921470799707068
 31
0.0
  0
LINE
  5
B1
330
17
100
AcDbEntity
  8
FoilLayer
100
AcDbLine
 10
-134.8632483306774
 20
12.921470799707068
 30
0.0
 11
-136.0700475966906
 21
11.784056037268387
 31
0.0
  0
LINE
  5
B2
330
17
100
AcDbEntity
  8
FoilLayer
100
AcDbLine
 10
-136.0700475966906
 20
11.784056037268387
 30
0.0
 11
-137.18484245213227
 21
10.66328755436488
 31
0.0
  0
LINE
  5
B3
330
17
100
AcDbEntity
  8
FoilLayer
100
AcDbLine
 10
-137.18484245213227
 20
10.66328755436488
 30
0.0
 11
-138.21336855766464
 21
9.54918975459147
 31
0.0
  0
LINE
  5
B4
330
17
100
AcDbEntity
  8
FoilLayer
100
AcDbLine
 10
-138.21336855766464
 20
9.54918975459147
 30
0.0
 11
-139.14463063119325
 21
8.468362683285307
 31
0.0
  0
LINE
  5
B5
330
17
100
AcDbEntity
  8
FoilLayer
100
AcDbLine
 10
-139.14463063119325
 20
8.468362683285307
 30
0.0
 11
-139.98451508493497
 21
7.401086306869507
 31
0.0
  0
LINE
  5
B6
330
17
100
AcDbEntity
  8
FoilLayer
100
AcDbLine
 10
-139.98451508493497
 20
7.401086306869507
 30
0.0
 11
-140.72459993141646
 21
6.372431789814117
 31
0.0
  0
LINE
  5
B7
330
17
100
AcDbEntity
  8
FoilLayer
100
AcDbLine
 10
-140.72459993141646
 20
6.372431789814117
 30
0.0
 11
-141.36466865294793
 21
5.382892414320863
 31
0.0
  0
LINE
  5
B8
330
17
100
AcDbEntity
  8
FoilLayer
100
AcDbLine
 10
-141.36466865294793
 20
5.382892414320863
 30
0.0
 11
-141.9169867054142
 21
4.406118434282892
 31
0.0
  0
LINE
  5
B9
330
17
100
AcDbEntity
  8
FoilLayer
100
AcDbLine
 10
-141.9169867054142
 20
4.406118434282892
 30
0.0
 11
-142.3512455108484
 21
3.5325027128921276
 31
0.0
  0
LINE
  5
BA
330
17
100
AcDbEntity
  8
FoilLayer
100
AcDbLine
 10
-142.3512455108484
 20
3.5325027128921276
 30
0.0
 11
-142.73627487416988
 21
2.540801322463261
 31
0.0
  0
LINE
  5
BB
330
17
100
AcDbEntity
  8
FoilLayer
100
AcDbLine
 10
-142.73627487416988
 20
2.540801322463261
 30
0.0
 11
-142.97499867155793
 21
1.907617831163691
 31
0.0
  0
LINE
  5
BC
330
17
100
AcDbEntity
  8
FoilLayer
100
AcDbLine
 10
-142.97499867155793
 20
1.907617831163691
 30
0.0
 11
-143.1552901276442
 21
1.0218595650376743
 31
0.0
  0
LINE
  5
BD
330
17
100
AcDbEntity
  8
FoilLayer
100
AcDbLine
 10
-143.1552901276442
 20
1.0218595650376743
 30
0.0
 11
-143.24999999999937
 21
0.12450373511205283
 31
0.0
  0
LINE
  5
BE
330
17
100
AcDbEntity
  8
FoilLayer
100
AcDbLine
 10
-143.24999999999937
 20
0.12450373511205283
 30
0.0
 11
-143.25949735603353
 21
0.009139216584032772
 31
0.0
  0
LINE
  5
BF
330
17
100
AcDbEntity
  8
FoilLayer
100
AcDbLine
 10
-143.25949735603353
 20
0.009139216584032772
 30
0.0
 11
-143.21483065023443
 21
-0.7024827448440203
 31
0.0
  0
LINE
  5
C0
330
17
100
AcDbEntity
  8
FoilLayer
100
AcDbLine
 10
-143.21483065023443
 20
-0.7024827448440203
 30
0.0
 11
-143.0732096007065
 21
-1.2094956295486012
 31
0.0
  0
LINE
  5
C1
330
17
100
AcDbEntity
  8
FoilLayer
100
AcDbLine
 10
-143.0732096007065
 20
-1.2094956295486012
 30
0.0
 11
-142.85161843622137
 21
-1.7048467344312563
 31
0.0
  0
LINE
  5
C2
330
17
100
AcDbEntity
  8
FoilLayer
100
AcDbLine
 10
-142.85161843622137
 20
-1.7048467344312563
 30
0.0
 11
-142.4955298356279
 21
-2.2381481412435362
 31
0.0
  0
LINE
  5
C3
330
17
100
AcDbEntity
  8
FoilLayer
100
AcDbLine
 10
-142.4955298356279
 20
-2.2381481412435362
 30
0.0
 11
-142.04699082831823
 21
-2.76181078107747
 31
0.0
  0
LINE
  5
C4
330
17
100
AcDbEntity
  8
FoilLayer
100
AcDbLine
 10
-142.04699082831823
 20
-2.76181078107747
 30
0.0
 11
-141.47409734080276
 21
-3.284275920309599
 31
0.0
  0
LINE
  5
C5
330
17
100
AcDbEntity
  8
FoilLayer
100
AcDbLine
 10
-141.47409734080276
 20
-3.284275920309599
 30
0.0
 11
-140.79019891627576
 21
-3.7868056599477584
 31
0.0
  0
LINE
  5
C6
330
17
100
AcDbEntity
  8
FoilLayer
100
AcDbLine
 10
-140.79019891627576
 20
-3.7868056599477584
 30
0.0
 11
-139.96359584971475
 21
-4.271716242777164
 31
0.0
  0
LINE
  5
C7
330
17
100
AcDbEntity
  8
FoilLayer
100
AcDbLine
 10
-139.96359584971475
 20
-4.271716242777164
 30
0.0
 11
-138.94921455277256
 21
-4.748782854166663
 31
0.0
  0
LINE
  5
C8
330
17
100
AcDbEntity
  8
FoilLayer
100
AcDbLine
 10
-138.94921455277256
 20
-4.748782854166663
 30
0.0
 11
-137.7677499093053
 21
-5.221007625653328
 31
0.0
  0
LINE
  5
C9
330
17
100
AcDbEntity
  8
FoilLayer
100
AcDbLine
 10
-137.7677499093053
 20
-5.221007625653328
 30
0.0
 11
-136.43945053787368
 21
-5.686050333699567
 31
0.0
  0
LINE
  5
CA
330
17
100
AcDbEntity
  8
FoilLayer
100
AcDbLine
 10
-136.43945053787368
 20
-5.686050333699567
 30
0.0
 11
-135.02338336199426
 21
-6.13122203105995
 31
0.0
  0
LINE
  5
CB
330
17
100
AcDbEntity
  8
FoilLayer
100
AcDbLine
 10
-135.02338336199426
 20
-6.13122203105995
 30
0.0
 11
-133.4823548953713
 21
-6.543811431384618
 31
0.0
  0
LINE
  5
CC
330
17
100
AcDbEntity
  8
FoilLayer
100
AcDbLine
 10
-133.4823548953713
 20
-6.543811431384618
 30
0.0
 11
-131.79741737890689
 21
-6.922595524960163
 31
0.0
  0
LINE
  5
CD
330
17
100
AcDbEntity
  8
FoilLayer
100
AcDbLine
 10
-131.79741737890689
 20
-6.922595524960163
 30
0.0
 11
-129.969636772924
 21
-7.280444994103088
 31
0.0
  0
LINE
  5
CE
330
17
100
AcDbEntity
  8
FoilLayer
100
AcDbLine
 10
-129.969636772924
 20
-7.280444994103088
 30
0.0
 11
-128.0095706023164
 21
-7.623084036374488
 31
0.0
  0
LINE
  5
CF
330
17
100
AcDbEntity
  8
FoilLayer
100
AcDbLine
 10
-128.0095706023164
 20
-7.623084036374488
 30
0.0
 11
-125.95343052418195
 21
-7.944063057515488
 31
0.0
  0
LINE
  5
D0
330
17
100
AcDbEntity
  8
FoilLayer
100
AcDbLine
 10
-125.95343052418195
 20
-7.944063057515488
 30
0.0
 11
-123.7813981113239
 21
-8.229284575961552
 31
0.0
  0
LINE
  5
D1
330
17
100
AcDbEntity
  8
FoilLayer
100
AcDbLine
 10
-123.7813981113239
 20
-8.229284575961552
 30
0.0
 11
-121.4834681134088
 21
-8.479005264090357
 31
0.0
  0
LINE
  5
D2
330
17
100
AcDbEntity
  8
FoilLayer
100
AcDbLine
 10
-121.4834681134088
 20
-8.479005264090357
 30
0.0
 11
-119.0435638494743
 21
-8.701301582149792
 31
0.0
  0
LINE
  5
D3
330
17
100
AcDbEntity
  8
FoilLayer
100
AcDbLine
 10
-119.0435638494743
 20
-8.701301582149792
 30
0.0
 11
-116.48082224149736
 21
-8.907397352574687
 31
0.0
  0
LINE
  5
D4
330
17
100
AcDbEntity
  8
FoilLayer
100
AcDbLine
 10
-116.48082224149736
 20
-8.907397352574687
 30
0.0
 11
-113.81728404526696
 21
-9.09664245820219
 31
0.0
  0
LINE
  5
D5
330
17
100
AcDbEntity
  8
FoilLayer
100
AcDbLine
 10
-113.81728404526696
 20
-9.09664245820219
 30
0.0
 11
-111.06125389827781
 21
-9.256861598853476
 31
0.0
  0
LINE
  5
D6
330
17
100
AcDbEntity
  8
FoilLayer
100
AcDbLine
 10
-111.06125389827781
 20
-9.256861598853476
 30
0.0
 11
-108.18682819299994
 21
-9.376411437840659
 31
0.0
  0
LINE
  5
D7
330
17
100
AcDbEntity
  8
FoilLayer
100
AcDbLine
 10
-108.18682819299994
 20
-9.376411437840659
 30
0.0
 11
-105.19627506858666
 21
-9.467242955698055
 31
0.0
  0
LINE
  5
D8
330
17
100
AcDbEntity
  8
FoilLayer
100
AcDbLine
 10
-105.19627506858666
 20
-9.467242955698055
 30
0.0
 11
-102.07450058587551
 21
-9.533433248087139
 31
0.0
  0
LINE
  5
D9
330
17
100
AcDbEntity
  8
FoilLayer
100
AcDbLine
 10
-102.07450058587551
 20
-9.533433248087139
 30
0.0
 11
-98.85990561333053
 21
-9.58303625996026
 31
0.0
  0
LINE
  5
DA
330
17
100
AcDbEntity
  8
FoilLayer
100
AcDbLine
 10
-98.85990561333053
 20
-9.58303625996026
 30
0.0
 11
-95.54707256737143
 21
-9.603761303449968
 31
0.0
  0
LINE
  5
DB
330
17
100
AcDbEntity
  8
FoilLayer
100
AcDbLine
 10
-95.54707256737143
 20
-9.603761303449968
 30
0.0
 11
-92.1375950363259
 21
-9.591464016323162
 31
0.0
  0
LINE
  5
DC
330
17
100
AcDbEntity
  8
FoilLayer
100
AcDbLine
 10
-92.1375950363259
 20
-9.591464016323162
 30
0.0
 11
-88.60810728089459
 21
-9.545976865983848
 31
0.0
  0
LINE
  5
DD
330
17
100
AcDbEntity
  8
FoilLayer
100
AcDbLine
 10
-88.60810728089459
 20
-9.545976865983848
 30
0.0
 11
-84.96161978955007
 21
-9.479684999678605
 31
0.0
  0
LINE
  5
DE
330
17
100
AcDbEntity
  8
FoilLayer
100
AcDbLine
 10
-84.96161978955007
 20
-9.479684999678605
 30
0.0
 11
-81.21565184720254
 21
-9.401064864165498
 31
0.0
  0
LINE
  5
DF
330
17
100
AcDbEntity
  8
FoilLayer
100
AcDbLine
 10
-81.21565184720254
 20
-9.401064864165498
 30
0.0
 11
-77.3924555340376
 21
-9.301929872948493
 31
0.0
  0
LINE
  5
E0
330
17
100
AcDbEntity
  8
FoilLayer
100
AcDbLine
 10
-77.3924555340376
 20
-9.301929872948493
 30
0.0
 11
-73.47303480278057
 21
-9.169517976074127
 31
0.0
  0
LINE
  5
E1
330
17
100
AcDbEntity
  8
FoilLayer
100
AcDbLine
 10
-73.47303480278057
 20
-9.169517976074127
 30
0.0
 11
-69.4574794356851
 21
-9.012232951199147
 31
0.0
  0
LINE
  5
E2
330
17
100
AcDbEntity
  8
FoilLayer
100
AcDbLine
 10
-69.4574794356851
 20
-9.012232951199147
 30
0.0
 11
-65.32807208661045
 21
-8.829625993329977
 31
0.0
  0
LINE
  5
E3
330
17
100
AcDbEntity
  8
FoilLayer
100
AcDbLine
 10
-65.32807208661045
 20
-8.829625993329977
 30
0.0
 11
-61.10941191269352
 21
-8.643152515597572
 31
0.0
  0
LINE
  5
E4
330
17
100
AcDbEntity
  8
FoilLayer
100
AcDbLine
 10
-61.10941191269352
 20
-8.643152515597572
 30
0.0
 11
-56.817726537832016
 21
-8.440182831635381
 31
0.0
  0
LINE
  5
E5
330
17
100
AcDbEntity
  8
FoilLayer
100
AcDbLine
 10
-56.817726537832016
 20
-8.440182831635381
 30
0.0
 11
-52.45446883665484
 21
-8.216668551339945
 31
0.0
  0
LINE
  5
E6
330
17
100
AcDbEntity
  8
FoilLayer
100
AcDbLine
 10
-52.45446883665484
 20
-8.216668551339945
 30
0.0
 11
-47.999999068387694
 21
-7.963915301339027
 31
0.0
  0
LINE
  5
E7
330
17
100
AcDbEntity
  8
FoilLayer
100
AcDbLine
 10
-47.999999068387694
 20
-7.963915301339027
 30
0.0
 11
-43.449210369267135
 21
-7.68987273128645
 31
0.0
  0
LINE
  5
E8
330
17
100
AcDbEntity
  8
FoilLayer
100
AcDbLine
 10
-43.449210369267135
 20
-7.68987273128645
 30
0.0
 11
-41.617967928459834
 21
-7.581670402644299
 31
0.0
  0
LINE
  5
E9
330
17
100
AcDbEntity
  8
FoilLayer
100
AcDbLine
 10
-41.617967928459834
 20
-7.581670402644299
 30
0.0
 11
-41.526542783903324
 21
-9.128971744640364
 31
0.0
  0
LINE
  5
EA
330
17
100
AcDbEntity
  8
FoilLayer
100
AcDbLine
 10
-41.526542783903324
 20
-9.128971744640364
 30
0.0
 11
-38.72253652866097
 21
-8.963292093003265
 31
0.0
  0
LINE
  5
EB
330
17
100
AcDbEntity
  8
FoilLayer
100
AcDbLine
 10
-38.72253652866097
 20
-8.963292093003265
 30
0.0
 11
-34.02580454181073
 21
-8.681157882295288
 31
0.0
  0
LINE
  5
EC
330
17
100
AcDbEntity
  8
FoilLayer
100
AcDbLine
 10
-34.02580454181073
 20
-8.681157882295288
 30
0.0
 11
-29.267890761003386
 21
-8.382497785100663
 31
0.0
  0
LINE
  5
ED
330
17
100
AcDbEntity
  8
FoilLayer
100
AcDbLine
 10
-29.267890761003386
 20
-8.382497785100663
 30
0.0
 11
-24.43744011020658
 21
-8.054658018230974
 31
0.0
  0
LINE
  5
EE
330
17
100
AcDbEntity
  8
FoilLayer
100
AcDbLine
 10
-24.43744011020658
 20
-8.054658018230974
 30
0.0
 11
-19.53155873549791
 21
-7.718468388783647
 31
0.0
  0
LINE
  5
EF
330
17
100
AcDbEntity
  8
FoilLayer
100
AcDbLine
 10
-19.53155873549791
 20
-7.718468388783647
 30
0.0
 11
-14.554866731594728
 21
-7.382262042901738
 31
0.0
  0
LINE
  5
F0
330
17
100
AcDbEntity
  8
FoilLayer
100
AcDbLine
 10
-14.554866731594728
 20
-7.382262042901738
 30
0.0
 11
-9.526477645596827
 21
-7.050357901191774
 31
0.0
  0
LINE
  5
F1
330
17
100
AcDbEntity
  8
FoilLayer
100
AcDbLine
 10
-9.526477645596827
 20
-7.050357901191774
 30
0.0
 11
-4.451633028890882
 21
-6.697650618593028
 31
0.0
  0
LINE
  5
F2
330
17
100
AcDbEntity
  8
FoilLayer
100
AcDbLine
 10
-4.451633028890882
 20
-6.697650618593028
 30
0.0
 11
0.677919701460894
 21
-6.332439744588898
 31
0.0
  0
LINE
  5
F3
330
17
100
AcDbEntity
  8
FoilLayer
100
AcDbLine
 10
0.677919701460894
 20
-6.332439744588898
 30
0.0
 11
5.865877709829846
 21
-5.963057236753816
 31
0.0
  0
LINE
  5
F4
330
17
100
AcDbEntity
  8
FoilLayer
100
AcDbLine
 10
5.865877709829846
 20
-5.963057236753816
 30
0.0
 11
11.10428498735888
 21
-5.593630158688898
 31
0.0
  0
LINE
  5
F5
330
17
100
AcDbEntity
  8
FoilLayer
100
AcDbLine
 10
11.10428498735888
 20
-5.593630158688898
 30
0.0
 11
16.382687605654468
 21
-5.232607683714438
 31
0.0
  0
LINE
  5
F6
330
17
100
AcDbEntity
  8
FoilLayer
100
AcDbLine
 10
16.382687605654468
 20
-5.232607683714438
 30
0.0
 11
21.685723076990143
 21
-4.863304720886736
 31
0.0
  0
LINE
  5
F7
330
17
100
AcDbEntity
  8
FoilLayer
100
AcDbLine
 10
21.685723076990143
 20
-4.863304720886736
 30
0.0
 11
27.027179455968593
 21
-4.481475739094895
 31
0.0
  0
LINE
  5
F8
330
17
100
AcDbEntity
  8
FoilLayer
100
AcDbLine
 10
27.027179455968593
 20
-4.481475739094895
 30
0.0
 11
32.41076981086911
 21
-4.099602808291349
 31
0.0
  0
LINE
  5
F9
330
17
100
AcDbEntity
  8
FoilLayer
100
AcDbLine
 10
32.41076981086911
 20
-4.099602808291349
 30
0.0
 11
37.82745925912573
 21
-3.7260386942274506
 31
0.0
  0
LINE
  5
FA
330
17
100
AcDbEntity
  8
FoilLayer
100
AcDbLine
 10
37.82745925912573
 20
-3.7260386942274506
 30
0.0
 11
43.25970028320688
 21
-3.3608461030757337
 31
0.0
  0
LINE
  5
FB
330
17
100
AcDbEntity
  8
FoilLayer
100
AcDbLine
 10
43.25970028320688
 20
-3.3608461030757337
 30
0.0
 11
48.70439295499091
 21
-2.9915034656971984
 31
0.0
  0
LINE
  5
FC
330
17
100
AcDbEntity
  8
FoilLayer
100
AcDbLine
 10
48.70439295499091
 20
-2.9915034656971984
 30
0.0
 11
54.16196862238161
 21
-2.6179812060187637
 31
0.0
  0
LINE
  5
FD
330
17
100
AcDbEntity
  8
FoilLayer
100
AcDbLine
 10
54.16196862238161
 20
-2.6179812060187637
 30
0.0
 11
59.649514188149254
 21
-2.2443977167173843
 31
0.0
  0
LINE
  5
FE
330
17
100
AcDbEntity
  8
FoilLayer
100
AcDbLine
 10
59.649514188149254
 20
-2.2443977167173843
 30
0.0
 11
65.1497581357956
 21
-1.8832515983081404
 31
0.0
  0
LINE
  5
FF
330
17
100
AcDbEntity
  8
FoilLayer
100
AcDbLine
 10
65.1497581357956
 20
-1.8832515983081404
 30
0.0
 11
70.64448055180401
 21
-1.5387939262046713
 31
0.0
  0
LINE
  5
100
330
17
100
AcDbEntity
  8
FoilLayer
100
AcDbLine
 10
70.64448055180401
 20
-1.5387939262046713
 30
0.0
 11
76.1302466938925
 21
-1.1943779890592494
 31
0.0
  0
LINE
  5
101
330
17
100
AcDbEntity
  8
FoilLayer
100
AcDbLine
 10
76.1302466938925
 20
-1.1943779890592494
 30
0.0
 11
81.61325961517585
 21
-0.8415730095771754
 31
0.0
  0
LINE
  5
102
330
17
100
AcDbEntity
  8
FoilLayer
100
AcDbLine
 10
81.61325961517585
 20
-0.8415730095771754
 30
0.0
 11
87.101037623075
 21
-0.4970321425538554
 31
0.0
  0
LINE
  5
103
330
17
100
AcDbEntity
  8
FoilLayer
100
AcDbLine
 10
87.101037623075
 20
-0.4970321425538554
 30
0.0
 11
92.57978092974759
 21
-0.16913803119067322
 31
0.0
  0
LINE
  5
104
330
17
100
AcDbEntity
  8
FoilLayer
100
AcDbLine
 10
92.57978092974759
 20
-0.16913803119067322
 30
0.0
 11
98.03737673708716
 21
0.15043218057654434
 31
0.0
  0
LINE
  5
105
330
17
100
AcDbEntity
  8
FoilLayer
100
AcDbLine
 10
98.03737673708716
 20
0.15043218057654434
 30
0.0
 11
103.46116596372048
 21
0.46581681671169706
 31
0.0
  0
LINE
  5
106
330
17
100
AcDbEntity
  8
FoilLayer
100
AcDbLine
 10
103.46116596372048
 20
0.46581681671169706
 30
0.0
 11
108.86938603265975
 21
0.7854119108297475
 31
0.0
  0
LINE
  5
107
330
17
100
AcDbEntity
  8
FoilLayer
100
AcDbLine
 10
108.86938603265975
 20
0.7854119108297475
 30
0.0
 11
114.26166328239668
 21
1.0967425274425424
 31
0.0
  0
LINE
  5
108
330
17
100
AcDbEntity
  8
FoilLayer
100
AcDbLine
 10
114.26166328239668
 20
1.0967425274425424
 30
0.0
 11
119.62861162526747
 21
1.3914465649814236
 31
0.0
  0
LINE
  5
109
330
17
100
AcDbEntity
  8
FoilLayer
100
AcDbLine
 10
119.62861162526747
 20
1.3914465649814236
 30
0.0
 11
124.948884385398
 21
1.6736450811626256
 31
0.0
  0
LINE
  5
10A
330
17
100
AcDbEntity
  8
FoilLayer
100
AcDbLine
 10
124.948884385398
 20
1.6736450811626256
 30
0.0
 11
130.22733670164848
 21
1.955826208514146
 31
0.0
  0
LINE
  5
10B
330
17
100
AcDbEntity
  8
FoilLayer
100
AcDbLine
 10
130.22733670164848
 20
1.955826208514146
 30
0.0
 11
135.47436533528338
 21
2.242252392205859
 31
0.0
  0
LINE
  5
10C
330
17
100
AcDbEntity
  8
FoilLayer
100
AcDbLine
 10
135.47436533528338
 20
2.242252392205859
 30
0.0
 11
140.68853454345003
 21
2.5120910502055147
 31
0.0
  0
LINE
  5
10D
330
17
100
AcDbEntity
  8
FoilLayer
100
AcDbLine
 10
140.68853454345003
 20
2.5120910502055147
 30
0.0
 11
145.8604363792939
 21
2.761138493437186
 31
0.0
  0
LINE
  5
10E
330
17
100
AcDbEntity
  8
FoilLayer
100
AcDbLine
 10
145.8604363792939
 20
2.761138493437186
 30
0.0
 11
150.9731512348714
 21
2.997684490700829
 31
0.0
  0
LINE
  5
10F
330
17
100
AcDbEntity
  8
FoilLayer
100
AcDbLine
 10
150.9731512348714
 20
2.997684490700829
 30
0.0
 11
156.02855484156498
 21
3.2342670785020093
 31
0.0
  0
LINE
  5
110
330
17
100
AcDbEntity
  8
FoilLayer
100
AcDbLine
 10
156.02855484156498
 20
3.2342670785020093
 30
0.0
 11
161.03942725496995
 21
3.462597005487305
 31
0.0
  0
LINE
  5
111
330
17
100
AcDbEntity
  8
FoilLayer
100
AcDbLine
 10
161.03942725496995
 20
3.462597005487305
 30
0.0
 11
166.00125060103812
 21
3.6701981294613697
 31
0.0
  0
LINE
  5
112
330
17
100
AcDbEntity
  8
FoilLayer
100
AcDbLine
 10
166.00125060103812
 20
3.6701981294613697
 30
0.0
 11
170.90008943256942
 21
3.848711951168755
 31
0.0
  0
LINE
  5
113
330
17
100
AcDbEntity
  8
FoilLayer
100
AcDbLine
 10
170.90008943256942
 20
3.848711951168755
 30
0.0
 11
175.7272259086032
 21
4.006434054641618
 31
0.0
  0
LINE
  5
114
330
17
100
AcDbEntity
  8
FoilLayer
100
AcDbLine
 10
175.7272259086032
 20
4.006434054641618
 30
0.0
 11
180.47677076151604
 21
4.155891641695529
 31
0.0
  0
LINE
  5
115
330
17
100
AcDbEntity
  8
FoilLayer
100
AcDbLine
 10
180.47677076151604
 20
4.155891641695529
 30
0.0
 11
185.16529880240483
 21
4.284618642900054
 31
0.0
  0
LINE
  5
116
330
17
100
AcDbEntity
  8
FoilLayer
100
AcDbLine
 10
185.16529880240483
 20
4.284618642900054
 30
0.0
 11
189.77920330290544
 21
4.380125222770517
 31
0.0
  0
LINE
  5
117
330
17
100
AcDbEntity
  8
FoilLayer
100
AcDbLine
 10
189.77920330290544
 20
4.380125222770517
 30
0.0
 11
194.30065751008635
 21
4.442399899270285
 31
0.0
  0
LINE
  5
118
330
17
100
AcDbEntity
  8
FoilLayer
100
AcDbLine
 10
194.30065751008635
 20
4.442399899270285
 30
0.0
 11
198.71759615416016
 21
4.483910863833912
 31
0.0
  0
LINE
  5
119
330
17
100
AcDbEntity
  8
FoilLayer
100
AcDbLine
 10
198.71759615416016
 20
4.483910863833912
 30
0.0
 11
203.0446076753812
 21
4.512971672894008
 31
0.0
  0
LINE
  5
11A
330
17
100
AcDbEntity
  8
FoilLayer
100
AcDbLine
 10
203.0446076753812
 20
4.512971672894008
 30
0.0
 11
207.28134159613188
 21
4.517110877990954
 31
0.0
  0
LINE
  5
11B
330
17
100
AcDbEntity
  8
FoilLayer
100
AcDbLine
 10
207.28134159613188
 20
4.517110877990954
 30
0.0
 11
211.4135988178756
 21
4.488030483067869
 31
0.0
  0
LINE
  5
11C
330
17
100
AcDbEntity
  8
FoilLayer
100
AcDbLine
 10
211.4135988178756
 20
4.488030483067869
 30
0.0
 11
215.42888313260158
 21
4.434045478884374
 31
0.0
  0
LINE
  5
11D
330
17
100
AcDbEntity
  8
FoilLayer
100
AcDbLine
 10
215.42888313260158
 20
4.434045478884374
 30
0.0
 11
219.31976863293983
 21
4.363447632374243
 31
0.0
  0
LINE
  5
11E
330
17
100
AcDbEntity
  8
FoilLayer
100
AcDbLine
 10
219.31976863293983
 20
4.363447632374243
 30
0.0
 11
223.09925962616933
 21
4.276219399395956
 31
0.0
  0
LINE
  5
11F
330
17
100
AcDbEntity
  8
FoilLayer
100
AcDbLine
 10
223.09925962616933
 20
4.276219399395956
 30
0.0
 11
226.76331921085261
 21
4.168193748618674
 31
0.0
  0
LINE
  5
120
330
17
100
AcDbEntity
  8
FoilLayer
100
AcDbLine
 10
226.76331921085261
 20
4.168193748618674
 30
0.0
 11
230.29849957788196
 21
4.035247935717389
 31
0.0
  0
LINE
  5
121
330
17
100
AcDbEntity
  8
FoilLayer
100
AcDbLine
 10
230.29849957788196
 20
4.035247935717389
 30
0.0
 11
233.69472565068378
 21
3.881626646915995
 31
0.0
  0
LINE
  5
122
330
17
100
AcDbEntity
  8
FoilLayer
100
AcDbLine
 10
233.69472565068378
 20
3.881626646915995
 30
0.0
 11
236.9558429396837
 21
3.7237517205042474
 31
0.0
  0
LINE
  5
123
330
17
100
AcDbEntity
  8
FoilLayer
100
AcDbLine
 10
236.9558429396837
 20
3.7237517205042474
 30
0.0
 11
240.0886611708096
 21
3.5492299338650515
 31
0.0
  0
LINE
  5
124
330
17
100
AcDbEntity
  8
FoilLayer
100
AcDbLine
 10
240.0886611708096
 20
3.5492299338650515
 30
0.0
 11
243.08636115933092
 21
3.357942486792692
 31
0.0
  0
LINE
  5
125
330
17
100
AcDbEntity
  8
FoilLayer
100
AcDbLine
 10
243.08636115933092
 20
3.357942486792692
 30
0.0
 11
245.927673609536
 21
3.1419285374180737
 31
0.0
  0
LINE
  5
126
330
17
100
AcDbEntity
  8
FoilLayer
100
AcDbLine
 10
245.927673609536
 20
3.1419285374180737
 30
0.0
 11
248.61507987465308
 21
2.921779705576231
 31
0.0
  0
LINE
  5
127
330
17
100
AcDbEntity
  8
FoilLayer
100
AcDbLine
 10
248.61507987465308
 20
2.921779705576231
 30
0.0
 11
251.14486512912725
 21
2.7016115116793498
 31
0.0
  0
LINE
  5
128
330
17
100
AcDbEntity
  8
FoilLayer
100
AcDbLine
 10
251.14486512912725
 20
2.7016115116793498
 30
0.0
 11
253.5307695522926
 21
2.4812945381059843
 31
0.0
  0
LINE
  5
129
330
17
100
AcDbEntity
  8
FoilLayer
100
AcDbLine
 10
253.5307695522926
 20
2.4812945381059843
 30
0.0
 11
255.75952724616445
 21
2.2567347257430574
 31
0.0
  0
LINE
  5
12A
330
17
100
AcDbEntity
  8
FoilLayer
100
AcDbLine
 10
255.75952724616445
 20
2.2567347257430574
 30
0.0
 11
257.82946936800323
 21
2.0281152078830917
 31
0.0
  0
LINE
  5
12B
330
17
100
AcDbEntity
  8
FoilLayer
100
AcDbLine
 10
257.82946936800323
 20
2.0281152078830917
 30
0.0
 11
259.7384021773049
 21
1.8035164757514384
 31
0.0
  0
LINE
  5
12C
330
17
100
AcDbEntity
  8
FoilLayer
100
AcDbLine
 10
259.7384021773049
 20
1.8035164757514384
 30
0.0
 11
261.4754067739791
 21
1.5832684881133743
 31
0.0
  0
LINE
  5
12D
330
17
100
AcDbEntity
  8
FoilLayer
100
AcDbLine
 10
261.4754067739791
 20
1.5832684881133743
 30
0.0
 11
263.0501303853322
 21
1.375517504105956
 31
0.0
  0
LINE
  5
12E
330
17
100
AcDbEntity
  8
FoilLayer
100
AcDbLine
 10
263.0501303853322
 20
1.375517504105956
 30
0.0
 11
264.4545807955395
 21
1.1843759476931854
 31
0.0
  0
LINE
  5
12F
330
17
100
AcDbEntity
  8
FoilLayer
100
AcDbLine
 10
264.4545807955395
 20
1.1843759476931854
 30
0.0
 11
265.700866226926
 21
1.0098942046809596
 31
0.0
  0
LINE
  5
130
330
17
100
AcDbEntity
  8
FoilLayer
100
AcDbLine
 10
265.700866226926
 20
1.0098942046809596
 30
0.0
 11
266.7765947356251
 21
0.8562178829990474
 31
0.0
  0
LINE
  5
131
330
17
100
AcDbEntity
  8
FoilLayer
100
AcDbLine
 10
266.7765947356251
 20
0.8562178829990474
 30
0.0
 11
267.69567882979663
 21
0.7231336639405626
 31
0.0
  0
LINE
  5
132
330
17
100
AcDbEntity
  8
FoilLayer
100
AcDbLine
 10
267.69567882979663
 20
0.7231336639405626
 30
0.0
 11
268.44888464651086
 21
0.6107722441182879
 31
0.0
  0
LINE
  5
133
330
17
100
AcDbEntity
  8
FoilLayer
100
AcDbLine
 10
268.44888464651086
 20
0.6107722441182879
 30
0.0
 11
269.0436622136064
 21
0.5192660279692772
 31
0.0
  0
LINE
  5
134
330
17
100
AcDbEntity
  8
FoilLayer
100
AcDbLine
 10
269.0436622136064
 20
0.5192660279692772
 30
0.0
 11
269.4608790273296
 21
0.4537775211776441
 31
0.0
  0
LINE
  5
135
330
17
100
AcDbEntity
  8
FoilLayer
100
AcDbLine
 10
269.4608790273296
 20
0.4537775211776441
 30
0.0
 11
269.73919570790787
 21
0.41369058805495146
 31
0.0
  0
LINE
  5
136
330
17
100
AcDbEntity
  8
FoilLayer
100
AcDbLine
 10
269.73919570790787
 20
0.41369058805495146
 30
0.0
 11
269.83049844699156
 21
0.39709009003974066
 31
0.0
  0
LINE
  5
137
330
17
100
AcDbEntity
  8
FoilLayer
100
AcDbLine
 10
269.83049844699156
 20
0.39709009003974066
 30
0.0
 11
269.60134230920613
 21
-0.4039856379632438
 31
0.0
  0
LINE
  5
138
330
17
100
AcDbEntity
  8
StringerLayer
100
AcDbLine
 10
141.90537738775186
 20
29.496391445255014
 30
0.0
 11
145.7949943589445
 21
28.563182027487528
 31
0.0
  0
LINE
  5
139
330
17
100
AcDbEntity
  8
StringerLayer
100
AcDbLine
 10
145.7949943589445
 20
28.563182027487528
 30
0.0
 11
146.72820377671198
 21
32.4527989986802
 31
0.0
  0
LINE
  5
13A
330
17
100
AcDbEntity
  8
StringerLayer
100
AcDbLine
 10
146.72820377671198
 20
32.4527989986802
 30
0.0
 11
142.83858680551933
 21
33.38600841644769
 31
0.0
  0
LINE
  5
13B
330
17
100
AcDbEntity
  8
StringerLayer
100
AcDbLine
 10
142.83858680551933
 20
33.38600841644769
 30
0.0
 11
141.90537738775186
 21
29.496391445255014
 31
0.0
  0
LINE
  5
13C
330
17
100
AcDbEntity
  8
StringerLayer
100
AcDbLine
 10
-42.69898658465502
 20
41.50667378110469
 30
0.0
 11
-38.7332698884118
 21
42.029254956748964
 31
0.0
  0
LINE
  5
13D
330
17
100
AcDbEntity
  8
StringerLayer
100
AcDbLine
 10
-38.7332698884118
 20
42.029254956748964
 30
0.0
 11
-39.255851064056074
 21
45.994971652992184
 31
0.0
  0
LINE
  5
13E
330
17
100
AcDbEntity
  8
StringerLayer
100
AcDbLine
 10
-39.255851064056074
 20
45.994971652992184
 30
0.0
 11
-43.221567760299294
 21
45.47239047734791
 31
0.0
  0
LINE
  5
13F
330
17
100
AcDbEntity
  8
StringerLayer
100
AcDbLine
 10
-43.221567760299294
 20
45.47239047734791
 30
0.0
 11
-42.69898658465502
 21
41.50667378110469
 31
0.0
  0
LINE
  5
140
330
17
100
AcDbEntity
  8
StringerLayer
100
AcDbLine
 10
-103.4737960263362
 20
26.530794069374714
 30
0.0
 11
-99.73792404361478
 21
27.960220712724087
 31
0.0
  0
LINE
  5
141
330
17
100
AcDbEntity
  8
StringerLayer
100
AcDbLine
 10
-99.73792404361478
 20
27.960220712724087
 30
0.0
 11
-101.16735068696416
 21
31.696092695445518
 31
0.0
  0
LINE
  5
142
330
17
100
AcDbEntity
  8
StringerLayer
100
AcDbLine
 10
-101.16735068696416
 20
31.696092695445518
 30
0.0
 11
-104.90322266968558
 21
30.266666052096145
 31
0.0
  0
LINE
  5
143
330
17
100
AcDbEntity
  8
StringerLayer
100
AcDbLine
 10
-104.90322266968558
 20
30.266666052096145
 30
0.0
 11
-103.4737960263362
 21
26.530794069374714
 31
0.0
  0
LINE
  5
144
330
17
100
AcDbEntity
  8
StringerLayer
100
AcDbLine
 10
-136.21029726567716
 20
4.108328671042431
 30
0.0
 11
-134.97566885922978
 21
5.681762081769843
 31
0.0
  0
LINE
  5
145
330
17
100
AcDbEntity
  8
StringerLayer
100
AcDbLine
 10
-134.97566885922978
 20
5.681762081769843
 30
0.0
 11
-138.9092523860483
 21
8.7683330978882
 31
0.0
  0
LINE
  5
146
330
17
100
AcDbEntity
  8
StringerLayer
100
AcDbLine
 10
-138.9092523860483
 20
8.7683330978882
 30
0.0
 11
-140.14388079249568
 21
7.194899687160789
 31
0.0
  0
LINE
  5
147
330
17
100
AcDbEntity
  8
StringerLayer
100
AcDbLine
 10
-140.14388079249568
 20
7.194899687160789
 30
0.0
 11
-136.21029726567716
 21
4.108328671042431
 31
0.0
  0
LINE
  5
148
330
17
100
AcDbEntity
  8
StringerLayer
100
AcDbLine
 10
-137.78185638187367
 20
0.13851355906179963
 30
0.0
 11
-139.2780733409687
 21
1.4656664557984258
 31
0.0
  0
LINE
  5
149
330
17
100
AcDbEntity
  8
StringerLayer
100
AcDbLine
 10
-139.2780733409687
 20
1.4656664557984258
 30
0.0
 11
-142.59595558281026
 21
-2.274875941939152
 31
0.0
  0
LINE
  5
14A
330
17
100
AcDbEntity
  8
StringerLayer
100
AcDbLine
 10
-142.59595558281026
 20
-2.274875941939152
 30
0.0
 11
-141.09973862371524
 21
-3.6020288386757784
 31
0.0
  0
LINE
  5
14B
330
17
100
AcDbEntity
  8
StringerLayer
100
AcDbLine
 10
-141.09973862371524
 20
-3.6020288386757784
 30
0.0
 11
-137.78185638187367
 21
0.13851355906179963
 31
0.0
  0
LINE
  5
14C
330
17
100
AcDbEntity
  8
StringerLayer
100
AcDbLine
 10
-60.516918345444694
 20
-4.613046066674869
 30
0.0
 11
-64.51301601927446
 21
-4.78969085491477
 31
0.0
  0
LINE
  5
14D
330
17
100
AcDbEntity
  8
StringerLayer
100
AcDbLine
 10
-64.51301601927446
 20
-4.78969085491477
 30
0.0
 11
-64.33637123103456
 21
-8.785788528744538
 31
0.0
  0
LINE
  5
14E
330
17
100
AcDbEntity
  8
StringerLayer
100
AcDbLine
 10
-64.33637123103456
 20
-8.785788528744538
 30
0.0
 11
-60.34027355720479
 21
-8.609143740504637
 31
0.0
  0
LINE
  5
14F
330
17
100
AcDbEntity
  8
StringerLayer
100
AcDbLine
 10
-60.34027355720479
 20
-8.609143740504637
 30
0.0
 11
-60.516918345444694
 21
-4.613046066674869
 31
0.0
  0
LINE
  5
150
330
17
100
AcDbEntity
  8
SubLayer
100
AcDbLine
 10
-145.24999999999937
 20
0.0
 30
0.0
 11
-141.24999999999937
 21
0.0
 31
0.0
  0
LINE
  5
151
330
17
100
AcDbEntity
  8
SubLayer
100
AcDbLine
 10
39.49999999999983
 20
0.0
 30
0.0
 11
47.649999999999835
 21
0.0
 31
0.0
  0
LINE
  5
152
330
17
100
AcDbEntity
  8
SubLayer
100
AcDbLine
 10
-31.122581353470206
 20
21.657953074817737
 30
0.0
 11
-23.12320301362241
 21
21.757683591581056
 31
0.0
  0
LINE
  5
153
330
17
100
AcDbEntity
  8
SubLayer
100
AcDbLine
 10
23.12320301362241
 20
22.33425064161898
 30
0.0
 11
31.122581353470206
 21
22.4339811583823
 31
0.0
  0
LINE
  5
154
330
17
100
AcDbEntity
  8
SubLayer
100
AcDbLine
 10
-0.2988798924250656
 20
46.019104078831276
 30
0.0
 11
-0.19914937566174812
 21
38.01972573898348
 31
0.0
  0
LINE
  5
155
330
17
100
AcDbEntity
  8
SubLayer
100
AcDbLine
 10
0.2988798924250656
 20
-1.9271698456312407
 30
0.0
 11
0.19914937566174812
 21
6.072208494216557
 31
0.0
  0
LINE
  5
156
330
17
100
AcDbEntity
  8
SubLayer
100
AcDbLine
 10
-29.097804139317425
 20
19.68304111904662
 30
0.0
 11
-25.098114969393528
 21
19.73290637742828
 31
0.0
  0
LINE
  5
157
330
17
100
AcDbEntity
  8
SubLayer
100
AcDbLine
 10
-25.098114969393528
 20
19.73290637742828
 30
0.0
 11
-25.147980227775186
 21
23.732595547352176
 31
0.0
  0
LINE
  5
158
330
17
100
AcDbEntity
  8
SubLayer
100
AcDbLine
 10
-25.147980227775186
 20
23.732595547352176
 30
0.0
 11
-29.147669397699083
 21
23.682730288970518
 31
0.0
  0
LINE
  5
159
330
17
100
AcDbEntity
  8
SubLayer
100
AcDbLine
 10
-29.147669397699083
 20
23.682730288970518
 30
0.0
 11
-29.097804139317425
 21
19.68304111904662
 31
0.0
  0
LINE
  5
15A
330
17
100
AcDbEntity
  8
SubLayer
100
AcDbLine
 10
25.147980227775186
 20
20.35933868584786
 30
0.0
 11
29.147669397699083
 21
20.409203944229517
 31
0.0
  0
LINE
  5
15B
330
17
100
AcDbEntity
  8
SubLayer
100
AcDbLine
 10
29.147669397699083
 20
20.409203944229517
 30
0.0
 11
29.097804139317425
 21
24.408893114153415
 31
0.0
  0
LINE
  5
15C
330
17
100
AcDbEntity
  8
SubLayer
100
AcDbLine
 10
29.097804139317425
 20
24.408893114153415
 30
0.0
 11
25.098114969393528
 21
24.359027855771757
 31
0.0
  0
LINE
  5
15D
330
17
100
AcDbEntity
  8
SubLayer
100
AcDbLine
 10
25.098114969393528
 20
24.359027855771757
 30
0.0
 11
25.147980227775186
 21
20.35933868584786
 31
0.0
  0
LINE
  5
15E
330
17
100
AcDbEntity
  8
SubLayer
100
AcDbLine
 10
-2.223926589814527
 20
39.9946376947546
 30
0.0
 11
1.775762580109372
 21
40.04450295313626
 31
0.0
  0
LINE
  5
15F
330
17
100
AcDbEntity
  8
SubLayer
100
AcDbLine
 10
1.775762580109372
 20
40.04450295313626
 30
0.0
 11
1.7258973217277136
 21
44.04419212306016
 31
0.0
  0
LINE
  5
160
330
17
100
AcDbEntity
  8
SubLayer
100
AcDbLine
 10
1.7258973217277136
 20
44.04419212306016
 30
0.0
 11
-2.273791848196186
 21
43.9943268646785
 31
0.0
  0
LINE
  5
161
330
17
100
AcDbEntity
  8
SubLayer
100
AcDbLine
 10
-2.273791848196186
 20
43.9943268646785
 30
0.0
 11
-2.223926589814527
 21
39.9946376947546
 31
0.0
  0
LINE
  5
162
330
17
100
AcDbEntity
  8
SubLayer
100
AcDbLine
 10
-1.7258973217277136
 20
0.04774211013987939
 30
0.0
 11
2.273791848196186
 21
0.09760736852153795
 31
0.0
  0
LINE
  5
163
330
17
100
AcDbEntity
  8
SubLayer
100
AcDbLine
 10
2.273791848196186
 20
0.09760736852153795
 30
0.0
 11
2.223926589814527
 21
4.097296538445438
 31
0.0
  0
LINE
  5
164
330
17
100
AcDbEntity
  8
SubLayer
100
AcDbLine
 10
2.223926589814527
 20
4.097296538445438
 30
0.0
 11
-1.775762580109372
 21
4.047431280063779
 31
0.0
  0
LINE
  5
165
330
17
100
AcDbEntity
  8
SubLayer
100
AcDbLine
 10
-1.775762580109372
 20
4.047431280063779
 30
0.0
 11
-1.7258973217277136
 21
0.04774211013987939
 31
0.0
  0
LINE
  5
166
330
17
100
AcDbEntity
  8
SubLayer
100
AcDbLine
 10
221.77163422263172
 20
13.259732094634161
 30
0.0
 11
225.77132339255562
 21
13.30959735301582
 31
0.0
  0
LINE
  5
167
330
17
100
AcDbEntity
  8
SubLayer
100
AcDbLine
 10
-140.89039058379248
 20
8.738321854014961
 30
0.0
 11
-136.89070141386858
 21
8.788187112396619
 31
0.0
  0
LINE
  5
168
330
17
100
AcDbEntity
  8
SubLayer
100
AcDbLine
 10
-69.35790791498862
 20
9.630137587543388
 30
0.0
 11
-63.35837416010277
 21
9.704935475115875
 31
0.0
  0
LINE
  5
169
330
17
100
AcDbEntity
  8
SubLayer
100
AcDbLine
 10
148.2393069688659
 20
12.342983731914908
 30
0.0
 11
154.23884072375176
 21
12.417781619487394
 31
0.0
  0
LINE
  5
16A
330
17
100
AcDbEntity
  8
SubLayer
100
AcDbLine
 10
39.440699526938644
 20
10.986560659729147
 30
0.0
 11
45.44023328182449
 21
11.061358547301634
 31
0.0
  0
LINE
  5
16B
330
17
100
AcDbEntity
  8
SubLayer
100
AcDbLine
 10
-64.33336382339292
 20
7.6926245755585105
 30
0.0
 11
-64.38322908177457
 21
11.69231374548241
 31
0.0
  0
LINE
  5
16C
330
17
100
AcDbEntity
  8
SubLayer
100
AcDbLine
 10
-64.38322908177457
 20
11.69231374548241
 30
0.0
 11
-68.38291825169847
 21
11.64244848710075
 31
0.0
  0
LINE
  5
16D
330
17
100
AcDbEntity
  8
SubLayer
100
AcDbLine
 10
-68.38291825169847
 20
11.64244848710075
 30
0.0
 11
-68.33305299331681
 21
7.642759317176852
 31
0.0
  0
LINE
  5
16E
330
17
100
AcDbEntity
  8
SubLayer
100
AcDbLine
 10
-68.33305299331681
 20
7.642759317176852
 30
0.0
 11
-64.33336382339292
 21
7.6926245755585105
 31
0.0
  0
LINE
  5
16F
330
17
100
AcDbEntity
  8
SubLayer
100
AcDbLine
 10
153.2638510604616
 20
10.40547071993003
 30
0.0
 11
153.21398580207995
 21
14.40515988985393
 31
0.0
  0
LINE
  5
170
330
17
100
AcDbEntity
  8
SubLayer
100
AcDbLine
 10
153.21398580207995
 20
14.40515988985393
 30
0.0
 11
149.21429663215605
 21
14.355294631472272
 31
0.0
  0
LINE
  5
171
330
17
100
AcDbEntity
  8
SubLayer
100
AcDbLine
 10
149.21429663215605
 20
14.355294631472272
 30
0.0
 11
149.2641618905377
 21
10.355605461548372
 31
0.0
  0
LINE
  5
172
330
17
100
AcDbEntity
  8
SubLayer
100
AcDbLine
 10
149.2641618905377
 20
10.355605461548372
 30
0.0
 11
153.2638510604616
 21
10.40547071993003
 31
0.0
  0
LINE
  5
173
330
17
100
AcDbEntity
  8
SubLayer
100
AcDbLine
 10
44.465243618534345
 20
9.04904764774427
 30
0.0
 11
44.41537836015269
 21
13.04873681766817
 31
0.0
  0
LINE
  5
174
330
17
100
AcDbEntity
  8
SubLayer
100
AcDbLine
 10
44.41537836015269
 20
13.04873681766817
 30
0.0
 11
40.41568919022879
 21
12.99887155928651
 31
0.0
  0
LINE
  5
175
330
17
100
AcDbEntity
  8
SubLayer
100
AcDbLine
 10
40.41568919022879
 20
12.99887155928651
 30
0.0
 11
40.46555444861045
 21
8.99918238936261
 31
0.0
  0
LINE
  5
176
330
17
100
AcDbEntity
  8
SubLayer
100
AcDbLine
 10
40.46555444861045
 20
8.99918238936261
 30
0.0
 11
44.465243618534345
 21
9.04904764774427
 31
0.0
  0
LINE
  5
177
330
17
100
AcDbEntity
  8
SubLayer
100
AcDbLine
 10
250.42417754919046
 20
5.173256777881305
 30
0.0
 11
250.70682101433107
 21
6.132481814884249
 31
0.0
  0
LINE
  5
178
330
17
100
AcDbEntity
  8
SubLayer
100
AcDbLine
 10
249.87776117255808
 20
2.3107280861934214
 30
0.0
 11
250.01805115547697
 21
3.300838545027494
 31
0.0
  0
LINE
  5
179
330
17
100
AcDbEntity
  8
SubLayer
100
AcDbLine
 10
231.19605011005777
 20
10.669720290021598
 30
0.0
 11
231.47479767387003
 21
11.63008469776937
 31
0.0
  0
LINE
  5
17A
330
17
100
AcDbEntity
  8
SubLayer
100
AcDbLine
 10
229.9048215477066
 20
3.550716978282345
 30
0.0
 11
230.006025425164
 21
4.54558268539441
 31
0.0
  0
LINE
  5
17B
330
17
100
AcDbEntity
  8
SubLayer
100
AcDbLine
 10
192.6850675915985
 20
21.476638206686236
 30
0.0
 11
192.95953555009697
 21
22.43823445239318
 31
0.0
  0
LINE
  5
17C
330
17
100
AcDbEntity
  8
SubLayer
100
AcDbLine
 10
189.84269689908797
 20
3.882127313576376
 30
0.0
 11
189.89746411874398
 21
4.880626463125912
 31
0.0
  0
LINE
  5
17D
330
17
100
AcDbEntity
  8
SubLayer
100
AcDbLine
 10
-80.23408743153065
 20
40.32343299564266
 30
0.0
 11
-80.184222173149
 21
36.323743825718765
 31
0.0
  0
LINE
  5
17E
330
17
100
AcDbEntity
  8
SubLayer
100
AcDbLine
 10
-79.63960820982979
 20
-7.359707169461642
 30
0.0
 11
-79.58974295144813
 21
-11.359396339385542
 31
0.0
  0
LINE
  5
17F
330
17
100
AcDbEntity
  8
SubLayer
100
AcDbLine
 10
-79.77097036876538
 20
3.176843156040194
 30
0.0
 11
-79.69617248119289
 21
-2.8226905988456554
 31
0.0
  0
LINE
  5
180
330
17
100
AcDbEntity
  8
SubLayer
100
AcDbLine
 10
-80.1276579017859
 20
31.786727255102775
 30
0.0
 11
-80.05286001421341
 21
25.78719350021693
 31
0.0
  0
LINE
  5
181
330
17
100
AcDbEntity
  8
SubLayer
100
AcDbLine
 10
-79.94931413527563
 20
17.481785205571484
 30
0.0
 11
-79.87451624770314
 21
11.482251450685636
 31
0.0
  0
LINE
  5
182
330
17
100
AcDbEntity
  8
SubLayer
100
AcDbLine
 10
-81.70848338075025
 20
-1.8477009355555096
 30
0.0
 11
-77.70879421082635
 21
-1.797835677173851
 31
0.0
  0
LINE
  5
183
330
17
100
AcDbEntity
  8
SubLayer
100
AcDbLine
 10
-77.70879421082635
 20
-1.797835677173851
 30
0.0
 11
-77.75865946920801
 21
2.201853492750048
 31
0.0
  0
LINE
  5
184
330
17
100
AcDbEntity
  8
SubLayer
100
AcDbLine
 10
-77.75865946920801
 20
2.201853492750048
 30
0.0
 11
-81.75834863913191
 21
2.15198823436839
 31
0.0
  0
LINE
  5
185
330
17
100
AcDbEntity
  8
SubLayer
100
AcDbLine
 10
-81.75834863913191
 20
2.15198823436839
 30
0.0
 11
-81.70848338075025
 21
-1.8477009355555096
 31
0.0
  0
LINE
  5
186
330
17
100
AcDbEntity
  8
SubLayer
100
AcDbLine
 10
-82.06517091377077
 20
26.762183163507075
 30
0.0
 11
-78.06548174384687
 21
26.812048421888733
 31
0.0
  0
LINE
  5
187
330
17
100
AcDbEntity
  8
SubLayer
100
AcDbLine
 10
-78.06548174384687
 20
26.812048421888733
 30
0.0
 11
-78.11534700222853
 21
30.81173759181263
 31
0.0
  0
LINE
  5
188
330
17
100
AcDbEntity
  8
SubLayer
100
AcDbLine
 10
-78.11534700222853
 20
30.81173759181263
 30
0.0
 11
-82.11503617215243
 21
30.761872333430972
 31
0.0
  0
LINE
  5
189
330
17
100
AcDbEntity
  8
SubLayer
100
AcDbLine
 10
-82.11503617215243
 20
30.761872333430972
 30
0.0
 11
-82.06517091377077
 21
26.762183163507075
 31
0.0
  0
LINE
  5
18A
330
17
100
AcDbEntity
  8
SubLayer
100
AcDbLine
 10
-81.8868271472605
 20
12.457241113975781
 30
0.0
 11
-77.88713797733661
 21
12.507106372357441
 31
0.0
  0
LINE
  5
18B
330
17
100
AcDbEntity
  8
SubLayer
100
AcDbLine
 10
-77.88713797733661
 20
12.507106372357441
 30
0.0
 11
-77.93700323571827
 21
16.50679554228134
 31
0.0
  0
LINE
  5
18C
330
17
100
AcDbEntity
  8
SubLayer
100
AcDbLine
 10
-77.93700323571827
 20
16.50679554228134
 30
0.0
 11
-81.93669240564216
 21
16.45693028389968
 31
0.0
  0
LINE
  5
18D
330
17
100
AcDbEntity
  8
SubLayer
100
AcDbLine
 10
-81.93669240564216
 20
16.45693028389968
 30
0.0
 11
-81.8868271472605
 21
12.457241113975781
 31
0.0
  0
LINE
  5
18E
330
17
100
AcDbEntity
  8
SubLayer
100
AcDbLine
 10
-100.1578382406614
 20
34.08282230682519
 30
0.0
 11
-100.10797298227975
 21
30.083133136901296
 31
0.0
  0
LINE
  5
18F
330
17
100
AcDbEntity
  8
SubLayer
100
AcDbLine
 10
-99.63852122775216
 20
-7.571561921821256
 30
0.0
 11
-99.5886559693705
 21
-11.571251091745156
 31
0.0
  0
LINE
  5
190
330
17
100
AcDbEntity
  8
SubLayer
100
AcDbLine
 10
-99.75485094492943
 20
1.7592372163890095
 30
0.0
 11
-99.68005305735694
 21
-4.24029653849684
 31
0.0
  0
LINE
  5
191
330
17
100
AcDbEntity
  8
SubLayer
100
AcDbLine
 10
-100.06644115267498
 20
26.75186775357688
 30
0.0
 11
-99.9916432651025
 21
20.75233399869103
 31
0.0
  0
LINE
  5
192
330
17
100
AcDbEntity
  8
SubLayer
100
AcDbLine
 10
-99.9106460488022
 20
14.255552484982944
 30
0.0
 11
-99.83584816122972
 21
8.256018730097095
 31
0.0
  0
LINE
  5
193
330
17
100
AcDbEntity
  8
SubLayer
100
AcDbLine
 10
-101.6923639569143
 20
-3.265306875206694
 30
0.0
 11
-97.69267478699041
 21
-3.2154416168250357
 31
0.0
  0
LINE
  5
194
330
17
100
AcDbEntity
  8
SubLayer
100
AcDbLine
 10
-97.69267478699041
 20
-3.2154416168250357
 30
0.0
 11
-97.74254004537207
 21
0.7842475530988637
 31
0.0
  0
LINE
  5
195
330
17
100
AcDbEntity
  8
SubLayer
100
AcDbLine
 10
-97.74254004537207
 20
0.7842475530988637
 30
0.0
 11
-101.74222921529596
 21
0.7343822947172052
 31
0.0
  0
LINE
  5
196
330
17
100
AcDbEntity
  8
SubLayer
100
AcDbLine
 10
-101.74222921529596
 20
0.7343822947172052
 30
0.0
 11
-101.6923639569143
 21
-3.265306875206694
 31
0.0
  0
LINE
  5
197
330
17
100
AcDbEntity
  8
SubLayer
100
AcDbLine
 10
-102.00395416465986
 20
21.727323661981178
 30
0.0
 11
-98.00426499473596
 21
21.777188920362835
 31
0.0
  0
LINE
  5
198
330
17
100
AcDbEntity
  8
SubLayer
100
AcDbLine
 10
-98.00426499473596
 20
21.777188920362835
 30
0.0
 11
-98.05413025311762
 21
25.776878090286733
 31
0.0
  0
LINE
  5
199
330
17
100
AcDbEntity
  8
SubLayer
100
AcDbLine
 10
-98.05413025311762
 20
25.776878090286733
 30
0.0
 11
-102.05381942304152
 21
25.727012831905075
 31
0.0
  0
LINE
  5
19A
330
17
100
AcDbEntity
  8
SubLayer
100
AcDbLine
 10
-102.05381942304152
 20
25.727012831905075
 30
0.0
 11
-102.00395416465986
 21
21.727323661981178
 31
0.0
  0
LINE
  5
19B
330
17
100
AcDbEntity
  8
SubLayer
100
AcDbLine
 10
-101.84815906078708
 20
9.23100839338724
 30
0.0
 11
-97.84846989086319
 21
9.2808736517689
 31
0.0
  0
LINE
  5
19C
330
17
100
AcDbEntity
  8
SubLayer
100
AcDbLine
 10
-97.84846989086319
 20
9.2808736517689
 30
0.0
 11
-97.89833514924484
 21
13.280562821692799
 31
0.0
  0
LINE
  5
19D
330
17
100
AcDbEntity
  8
SubLayer
100
AcDbLine
 10
-97.89833514924484
 20
13.280562821692799
 30
0.0
 11
-101.89802431916874
 21
13.23069756331114
 31
0.0
  0
LINE
  5
19E
330
17
100
AcDbEntity
  8
SubLayer
100
AcDbLine
 10
-101.89802431916874
 20
13.23069756331114
 30
0.0
 11
-101.84815906078708
 21
9.23100839338724
 31
0.0
  0
LINE
  5
19F
330
17
100
AcDbEntity
  8
SubLayer
100
AcDbLine
 10
149.86653811636853
 20
33.68594614831321
 30
0.0
 11
149.9164033747502
 21
29.68625697838931
 31
0.0
  0
LINE
  5
1A0
330
17
100
AcDbEntity
  8
SubLayer
100
AcDbLine
 10
150.22462212287618
 20
4.964051000601587
 30
0.0
 11
150.27448738125784
 21
0.9643618306776875
 31
0.0
  0
LINE
  5
1A1
330
17
100
AcDbEntity
  8
SubLayer
100
AcDbLine
 10
150.14053900697925
 20
11.708352322624886
 30
0.0
 11
150.21533689455177
 21
5.708818567739037
 31
0.0
  0
LINE
  5
1A2
330
17
100
AcDbEntity
  8
SubLayer
100
AcDbLine
 10
149.92568860307463
 20
28.941489411251858
 30
0.0
 11
150.00048649064715
 21
22.941955656366012
 31
0.0
  0
LINE
  5
1A3
330
17
100
AcDbEntity
  8
SubLayer
100
AcDbLine
 10
150.03311380502694
 20
20.32492086693837
 30
0.0
 11
150.10791169259946
 21
14.325387112052523
 31
0.0
  0
LINE
  5
1A4
330
17
100
AcDbEntity
  8
SubLayer
100
AcDbLine
 10
148.2030259949944
 20
6.683808231029182
 30
0.0
 11
152.2027151649183
 21
6.733673489410841
 31
0.0
  0
LINE
  5
1A5
330
17
100
AcDbEntity
  8
SubLayer
100
AcDbLine
 10
152.2027151649183
 20
6.733673489410841
 30
0.0
 11
152.15284990653663
 21
10.733362659334741
 31
0.0
  0
LINE
  5
1A6
330
17
100
AcDbEntity
  8
SubLayer
100
AcDbLine
 10
152.15284990653663
 20
10.733362659334741
 30
0.0
 11
148.15316073661273
 21
10.683497400953081
 31
0.0
  0
LINE
  5
1A7
330
17
100
AcDbEntity
  8
SubLayer
100
AcDbLine
 10
148.15316073661273
 20
10.683497400953081
 30
0.0
 11
148.2030259949944
 21
6.683808231029182
 31
0.0
  0
LINE
  5
1A8
330
17
100
AcDbEntity
  8
SubLayer
100
AcDbLine
 10
147.98817559108977
 20
23.916945319656158
 30
0.0
 11
151.98786476101367
 21
23.966810578037816
 31
0.0
  0
LINE
  5
1A9
330
17
100
AcDbEntity
  8
SubLayer
100
AcDbLine
 10
151.98786476101367
 20
23.966810578037816
 30
0.0
 11
151.937999502632
 21
27.966499747961713
 31
0.0
  0
LINE
  5
1AA
330
17
100
AcDbEntity
  8
SubLayer
100
AcDbLine
 10
151.937999502632
 20
27.966499747961713
 30
0.0
 11
147.9383103327081
 21
27.916634489580055
 31
0.0
  0
LINE
  5
1AB
330
17
100
AcDbEntity
  8
SubLayer
100
AcDbLine
 10
147.9383103327081
 20
27.916634489580055
 30
0.0
 11
147.98817559108977
 21
23.916945319656158
 31
0.0
  0
LINE
  5
1AC
330
17
100
AcDbEntity
  8
SubLayer
100
AcDbLine
 10
148.09560079304208
 20
15.300376775342668
 30
0.0
 11
152.09528996296598
 21
15.350242033724328
 31
0.0
  0
LINE
  5
1AD
330
17
100
AcDbEntity
  8
SubLayer
100
AcDbLine
 10
152.09528996296598
 20
15.350242033724328
 30
0.0
 11
152.04542470458432
 21
19.349931203648225
 31
0.0
  0
LINE
  5
1AE
330
17
100
AcDbEntity
  8
SubLayer
100
AcDbLine
 10
152.04542470458432
 20
19.349931203648225
 30
0.0
 11
148.04573553466042
 21
19.300065945266567
 31
0.0
  0
LINE
  5
1AF
330
17
100
AcDbEntity
  8
SubLayer
100
AcDbLine
 10
148.04573553466042
 20
19.300065945266567
 30
0.0
 11
148.09560079304208
 21
15.300376775342668
 31
0.0
  0
ENDSEC
  0
SECTION
  2
OBJECTS
  0
DICTIONARY
  5
A
330
0
100
AcDbDictionary
280
0
281
1
  3
ACAD_COLOR
350
B
  3
ACAD_GROUP
350
C
  3
ACAD_LAYOUT
350
D
  3
ACAD_MATERIAL
350
E
  3
ACAD_MLEADERSTYLE
350
F
  3
ACAD_MLINESTYLE
350
10
  3
ACAD_PLOTSETTINGS
350
11
  3
ACAD_PLOTSTYLENAME
350
12
  3
ACAD_SCALELIST
350
14
  3
ACAD_TABLESTYLE
350
15
  3
ACAD_VISUALSTYLE
350
16
  3
EZDXF_META
350
2D
  0
DICTIONARY
  5
B
330
A
100
AcDbDictionary
280
0
281
1
  0
DICTIONARY
  5
C
330
A
100
AcDbDictionary
280
0
281
1
  0
DICTIONARY
  5
D
330
A
100
AcDbDictionary
280
0
281
1
  3
Model
350
1A
  3
Layout1
350
1E
  0
DICTIONARY
  5
E
330
A
100
AcDbDictionary
280
0
281
1
  3
ByBlock
350
1F
  3
ByLayer
350
20
  3
Global
350
21
  0
DICTIONARY
  5
F
330
A
100
AcDbDictionary
280
0
281
1
  3
Standard
350
2C
  0
DICTIONARY
  5
10
330
A
100
AcDbDictionary
280
0
281
1
  3
Standard
350
22
  0
DICTIONARY
  5
11
330
A
100
AcDbDictionary
280
0
281
1
  0
ACDBDICTIONARYWDFLT
  5
12
330
A
100
AcDbDictionary
280
0
281
1
  3
Normal
350
13
100
AcDbDictionaryWithDefault
340
13
  0
ACDBPLACEHOLDER
  5
13
330
12
  0
DICTIONARY
  5
14
330
A
100
AcDbDictionary
280
0
281
1
  0
DICTIONARY
  5
15
330
A
100
AcDbDictionary
280
0
281
1
  0
DICTIONARY
  5
16
330
A
100
AcDbDictionary
280
0
281
1
  0
LAYOUT
  5
1A
330
D
100
AcDbPlotSettings
  1

  2
Adobe PDF
  4
A3
  6

 40
7.5
 41
20.0
 42
7.5
 43
20.0
 44
420.0
 45
297.0
 46
0.0
 47
0.0
 48
0.0
 49
0.0
140
0.0
141
0.0
142
1.0
143
1.0
 70
1024
 72
1
 73
0
 74
5
  7

 75
16
 76
0
 77
2
 78
300
147
1.0
148
0.0
149
0.0
100
AcDbLayout
  1
Model
 70
1
 71
0
 10
0.0
 20
0.0
 11
420.0
 21
297.0
 12
0.0
 22
0.0
 32
0.0
 14
1e+20
 24
1e+20
 34
1e+20
 15
-1e+20
 25
-1e+20
 35
-1e+20
146
0.0
 13
0.0
 23
0.0
 33
0.0
 16
1.0
 26
0.0
 36
0.0
 17
0.0
 27
1.0
 37
0.0
 76
1
330
17
  0
LAYOUT
  5
1E
330
D
100
AcDbPlotSettings
  1

  2
Adobe PDF
  4
A3
  6

 40
7.5
 41
20.0
 42
7.5
 43
20.0
 44
420.0
 45
297.0
 46
0.0
 47
0.0
 48
0.0
 49
0.0
140
0.0
141
0.0
142
1.0
143
1.0
 70
0
 72
1
 73
0
 74
5
  7

 75
16
 76
0
 77
2
 78
300
147
1.0
148
0.0
149
0.0
100
AcDbLayout
  1
Layout1
 70
1
 71
1
 10
0.0
 20
0.0
 11
420.0
 21
297.0
 12
0.0
 22
0.0
 32
0.0
 14
1e+20
 24
1e+20
 34
1e+20
 15
-1e+20
 25
-1e+20
 35
-1e+20
146
0.0
 13
0.0
 23
0.0
 33
0.0
 16
1.0
 26
0.0
 36
0.0
 17
0.0
 27
1.0
 37
0.0
 76
1
330
1B
  0
MATERIAL
  5
1F
102
{ACAD_REACTORS
330
E
102
}
330
E
100
AcDbMaterial
  1
ByBlock
  2

 70
0
 40
1.0
 71
1
 41
1.0
 91
-1023410177
 42
1.0
 72
1
  3

 73
1
 74
1
 75
1
 44
0.5
 73
0
 45
1.0
 46
1.0
 77
1
  4

 78
1
 79
1
170
1
 48
1.0
171
1
  6

172
1
173
1
174
1
140
1.0
141
1.0
175
1
  7

176
1
177
1
178
1
143
1.0
179
1
  8

270
1
271
1
272
1
145
1.0
146
1.0
273
1
  9

274
1
275
1
276
1
 42
1.0
 72
1
  3

 73
1
 74
1
 75
1
 94
63
  0
MATERIAL
  5
20
102
{ACAD_REACTORS
330
E
102
}
330
E
100
AcDbMaterial
  1
ByLayer
  2

 70
0
 40
1.0
 71
1
 41
1.0
 91
-1023410177
 42
1.0
 72
1
  3

 73
1
 74
1
 75
1
 44
0.5
 73
0
 45
1.0
 46
1.0
 77
1
  4

 78
1
 79
1
170
1
 48
1.0
171
1
  6

172
1
173
1
174
1
140
1.0
141
1.0
175
1
  7

176
1
177
1
178
1
143
1.0
179
1
  8

270
1
271
1
272
1
145
1.0
146
1.0
273
1
  9

274
1
275
1
276
1
 42
1.0
 72
1
  3

 73
1
 74
1
 75
1
 94
63
  0
MATERIAL
  5
21
102
{ACAD_REACTORS
330
E
102
}
330
E
100
AcDbMaterial
  1
Global
  2

 70
0
 40
1.0
 71
1
 41
1.0
 91
-1023410177
 42
1.0
 72
1
  3

 73
1
 74
1
 75
1
 44
0.5
 73
0
 45
1.0
 46
1.0
 77
1
  4

 78
1
 79
1
170
1
 48
1.0
171
1
  6

172
1
173
1
174
1
140
1.0
141
1.0
175
1
  7

176
1
177
1
178
1
143
1.0
179
1
  8

270
1
271
1
272
1
145
1.0
146
1.0
273
1
  9

274
1
275
1
276
1
 42
1.0
 72
1
  3

 73
1
 74
1
 75
1
 94
63
  0
MLINESTYLE
  5
22
102
{ACAD_REACTORS
330
10
102
}
330
10
100
AcDbMlineStyle
  2
Standard
 70
0
  3

 62
256
 51
90.0
 52
90.0
 71
2
 49
0.5
 62
256
  6
BYLAYER
 49
-0.5
 62
256
  6
BYLAYER
  0
MLEADERSTYLE
  5
2C
102
{ACAD_REACTORS
330
F
102
}
330
F
100
AcDbMLeaderStyle
179
2
170
2
171
1
172
0
 90
2
 40
0.0
 41
0.0
173
1
 91
-1056964608
 92
-2
290
1
 42
2.0
291
1
 43
8.0
  3
Standard
 44
4.0
300

342
29
174
1
175
1
176
0
178
1
 93
-1056964608
 45
4.0
292
0
297
0
 46
4.0
 94
-1056964608
 47
1.0
 49
1.0
140
1.0
294
1
141
0.0
177
0
142
1.0
295
0
296
0
143
3.75
271
0
272
9
273
9
  0
DICTIONARY
  5
2D
330
A
100
AcDbDictionary
281
1
  3
CREATED_BY_EZDXF
350
2E
  3
WRITTEN_BY_EZDXF
350
1B2
  0
DICTIONARYVAR
  5
2E
330
2D
100
DictionaryVariables
280
0
  1
1.0.2 @ 2023-10-20T04:47:16.854406+00:00
  0
DICTIONARYVAR
  5
1B2
330
2D
100
DictionaryVariables
280
0
  1
1.0.2 @ 2023-10-20T04:47:16.865371+00:00
  0
ENDSEC
  0
EOF
