  0
SECTION
  2
HEADER
  9
$ACADVER
  1
AC1027
  9
$ACADMAINTVER
 70
105
  9
$DWGCODEPAGE
  3
ANSI_1252
  9
$LASTSAVEDBY
  1
ezdxf
  9
$REQUIREDVERSIONS
160
0
  9
$INSBASE
 10
0.0
 20
0.0
 30
0.0
  9
$EXTMIN
 10
1e+20
 20
1e+20
 30
1e+20
  9
$EXTMAX
 10
-1e+20
 20
-1e+20
 30
-1e+20
  9
$LIMMIN
 10
0.0
 20
0.0
  9
$LIMMAX
 10
420.0
 20
297.0
  9
$ORTHOMODE
 70
0
  9
$REGENMODE
 70
1
  9
$FILLMODE
 70
1
  9
$QTEXTMODE
 70
0
  9
$MIRRTEXT
 70
1
  9
$LTSCALE
 40
1.0
  9
$ATTMODE
 70
1
  9
$TEXTSIZE
 40
2.5
  9
$TRACEWID
 40
1.0
  9
$TEXTSTYLE
  7
Standard
  9
$CLAYER
  8
0
  9
$CELTYPE
  6
ByLayer
  9
$CECOLOR
 62
256
  9
$CELTSCALE
 40
1.0
  9
$DISPSILH
 70
0
  9
$DIMSCALE
 40
1.0
  9
$DIMASZ
 40
2.5
  9
$DIMEXO
 40
0.625
  9
$DIMDLI
 40
3.75
  9
$DIMRND
 40
0.0
  9
$DIMDLE
 40
0.0
  9
$DIMEXE
 40
1.25
  9
$DIMTP
 40
0.0
  9
$DIMTM
 40
0.0
  9
$DIMTXT
 40
2.5
  9
$DIMCEN
 40
2.5
  9
$DIMTSZ
 40
0.0
  9
$DIMTOL
 70
0
  9
$DIMLIM
 70
0
  9
$DIMTIH
 70
0
  9
$DIMTOH
 70
0
  9
$DIMSE1
 70
0
  9
$DIMSE2
 70
0
  9
$DIMTAD
 70
1
  9
$DIMZIN
 70
8
  9
$DIMBLK
  1

  9
$DIMASO
 70
1
  9
$DIMSHO
 70
1
  9
$DIMPOST
  1

  9
$DIMAPOST
  1

  9
$DIMALT
 70
0
  9
$DIMALTD
 70
3
  9
$DIMALTF
 40
0.03937007874
  9
$DIMLFAC
 40
1.0
  9
$DIMTOFL
 70
1
  9
$DIMTVP
 40
0.0
  9
$DIMTIX
 70
0
  9
$DIMSOXD
 70
0
  9
$DIMSAH
 70
0
  9
$DIMBLK1
  1

  9
$DIMBLK2
  1

  9
$DIMSTYLE
  2
ISO-25
  9
$DIMCLRD
 70
0
  9
$DIMCLRE
 70
0
  9
$DIMCLRT
 70
0
  9
$DIMTFAC
 40
1.0
  9
$DIMGAP
 40
0.625
  9
$DIMJUST
 70
0
  9
$DIMSD1
 70
0
  9
$DIMSD2
 70
0
  9
$DIMTOLJ
 70
0
  9
$DIMTZIN
 70
8
  9
$DIMALTZ
 70
0
  9
$DIMALTTZ
 70
0
  9
$DIMUPT
 70
0
  9
$DIMDEC
 70
2
  9
$DIMTDEC
 70
2
  9
$DIMALTU
 70
2
  9
$DIMALTTD
 70
3
  9
$DIMTXSTY
  7
Standard
  9
$DIMAUNIT
 70
0
  9
$DIMADEC
 70
0
  9
$DIMALTRND
 40
0.0
  9
$DIMAZIN
 70
0
  9
$DIMDSEP
 70
44
  9
$DIMATFIT
 70
3
  9
$DIMFRAC
 70
0
  9
$DIMLDRBLK
  1

  9
$DIMLUNIT
 70
2
  9
$DIMLWD
 70
-2
  9
$DIMLWE
 70
-2
  9
$DIMTMOVE
 70
0
  9
$DIMFXL
 40
1.0
  9
$DIMFXLON
 70
0
  9
$DIMJOGANG
 40
0.785398163397
  9
$DIMTFILL
 70
0
  9
$DIMTFILLCLR
 70
0
  9
$DIMARCSYM
 70
0
  9
$DIMLTYPE
  6

  9
$DIMLTEX1
  6

  9
$DIMLTEX2
  6

  9
$DIMTXTDIRECTION
 70
0
  9
$LUNITS
 70
2
  9
$LUPREC
 70
4
  9
$SKETCHINC
 40
1.0
  9
$FILLETRAD
 40
10.0
  9
$AUNITS
 70
0
  9
$AUPREC
 70
2
  9
$MENU
  1
.
  9
$ELEVATION
 40
0.0
  9
$PELEVATION
 40
0.0
  9
$THICKNESS
 40
0.0
  9
$LIMCHECK
 70
0
  9
$CHAMFERA
 40
0.0
  9
$CHAMFERB
 40
0.0
  9
$CHAMFERC
 40
0.0
  9
$CHAMFERD
 40
0.0
  9
$SKPOLY
 70
0
  9
$TDCREATE
 40
2460392.695520833
  9
$TDUCREATE
 40
2458532.153996898
  9
$TDUPDATE
 40
2460392.695520833
  9
$TDUUPDATE
 40
2458532.1544311
  9
$TDINDWG
 40
0.0
  9
$TDUSRTIMER
 40
0.0
  9
$USRTIMER
 70
1
  9
$ANGBASE
 50
0.0
  9
$ANGDIR
 70
0
  9
$PDMODE
 70
0
  9
$PDSIZE
 40
0.0
  9
$PLINEWID
 40
0.0
  9
$SPLFRAME
 70
0
  9
$SPLINETYPE
 70
6
  9
$SPLINESEGS
 70
8
  9
$HANDSEED
  5
1CC
  9
$SURFTAB1
 70
6
  9
$SURFTAB2
 70
6
  9
$SURFTYPE
 70
6
  9
$SURFU
 70
6
  9
$SURFV
 70
6
  9
$UCSBASE
  2

  9
$UCSNAME
  2

  9
$UCSORG
 10
0.0
 20
0.0
 30
0.0
  9
$UCSXDIR
 10
1.0
 20
0.0
 30
0.0
  9
$UCSYDIR
 10
0.0
 20
1.0
 30
0.0
  9
$UCSORTHOREF
  2

  9
$UCSORTHOVIEW
 70
0
  9
$UCSORGTOP
 10
0.0
 20
0.0
 30
0.0
  9
$UCSORGBOTTOM
 10
0.0
 20
0.0
 30
0.0
  9
$UCSORGLEFT
 10
0.0
 20
0.0
 30
0.0
  9
$UCSORGRIGHT
 10
0.0
 20
0.0
 30
0.0
  9
$UCSORGFRONT
 10
0.0
 20
0.0
 30
0.0
  9
$UCSORGBACK
 10
0.0
 20
0.0
 30
0.0
  9
$PUCSBASE
  2

  9
$PUCSNAME
  2

  9
$PUCSORG
 10
0.0
 20
0.0
 30
0.0
  9
$PUCSXDIR
 10
1.0
 20
0.0
 30
0.0
  9
$PUCSYDIR
 10
0.0
 20
1.0
 30
0.0
  9
$PUCSORTHOREF
  2

  9
$PUCSORTHOVIEW
 70
0
  9
$PUCSORGTOP
 10
0.0
 20
0.0
 30
0.0
  9
$PUCSORGBOTTOM
 10
0.0
 20
0.0
 30
0.0
  9
$PUCSORGLEFT
 10
0.0
 20
0.0
 30
0.0
  9
$PUCSORGRIGHT
 10
0.0
 20
0.0
 30
0.0
  9
$PUCSORGFRONT
 10
0.0
 20
0.0
 30
0.0
  9
$PUCSORGBACK
 10
0.0
 20
0.0
 30
0.0
  9
$USERI1
 70
0
  9
$USERI2
 70
0
  9
$USERI3
 70
0
  9
$USERI4
 70
0
  9
$USERI5
 70
0
  9
$USERR1
 40
0.0
  9
$USERR2
 40
0.0
  9
$USERR3
 40
0.0
  9
$USERR4
 40
0.0
  9
$USERR5
 40
0.0
  9
$WORLDVIEW
 70
1
  9
$SHADEDGE
 70
3
  9
$SHADEDIF
 70
70
  9
$TILEMODE
 70
1
  9
$MAXACTVP
 70
64
  9
$PINSBASE
 10
0.0
 20
0.0
 30
0.0
  9
$PLIMCHECK
 70
0
  9
$PEXTMIN
 10
1e+20
 20
1e+20
 30
1e+20
  9
$PEXTMAX
 10
-1e+20
 20
-1e+20
 30
-1e+20
  9
$PLIMMIN
 10
0.0
 20
0.0
  9
$PLIMMAX
 10
420.0
 20
297.0
  9
$UNITMODE
 70
0
  9
$VISRETAIN
 70
1
  9
$PLINEGEN
 70
0
  9
$PSLTSCALE
 70
1
  9
$TREEDEPTH
 70
3020
  9
$CMLSTYLE
  2
Standard
  9
$CMLJUST
 70
0
  9
$CMLSCALE
 40
20.0
  9
$PROXYGRAPHICS
 70
1
  9
$MEASUREMENT
 70
1
  9
$CELWEIGHT
370
-1
  9
$ENDCAPS
280
0
  9
$JOINSTYLE
280
0
  9
$LWDISPLAY
290
0
  9
$INSUNITS
 70
6
  9
$HYPERLINKBASE
  1

  9
$STYLESHEET
  1

  9
$XEDIT
290
1
  9
$CEPSNTYPE
380
0
  9
$PSTYLEMODE
290
1
  9
$FINGERPRINTGUID
  2
{88A4890E-073A-424C-B649-20121821E61B}
  9
$VERSIONGUID
  2
{1F179873-D60E-4C67-8ADD-363B064EDE5D}
  9
$EXTNAMES
290
1
  9
$PSVPSCALE
 40
0.0
  9
$OLESTARTUP
290
0
  9
$SORTENTS
280
127
  9
$INDEXCTL
280
0
  9
$HIDETEXT
280
1
  9
$XCLIPFRAME
280
0
  9
$HALOGAP
280
0
  9
$OBSCOLOR
 70
257
  9
$OBSLTYPE
280
0
  9
$INTERSECTIONDISPLAY
280
0
  9
$INTERSECTIONCOLOR
 70
257
  9
$DIMASSOC
280
2
  9
$PROJECTNAME
  1

  9
$CAMERADISPLAY
290
0
  9
$LENSLENGTH
 40
50.0
  9
$CAMERAHEIGHT
 40
0.0
  9
$STEPSPERSEC
 40
24.0
  9
$STEPSIZE
 40
100.0
  9
$3DDWFPREC
 40
2.0
  9
$PSOLWIDTH
 40
0.005
  9
$PSOLHEIGHT
 40
0.08
  9
$LOFTANG1
 40
1.570796326795
  9
$LOFTANG2
 40
1.570796326795
  9
$LOFTMAG1
 40
0.0
  9
$LOFTMAG2
 40
0.0
  9
$LOFTPARAM
 70
7
  9
$LOFTNORMALS
280
1
  9
$LATITUDE
 40
37.795
  9
$LONGITUDE
 40
-122.394
  9
$NORTHDIRECTION
 40
0.0
  9
$TIMEZONE
 70
-8000
  9
$LIGHTGLYPHDISPLAY
280
1
  9
$TILEMODELIGHTSYNCH
280
1
  9
$CMATERIAL
347
20
  9
$SOLIDHIST
280
0
  9
$SHOWHIST
280
1
  9
$DWFFRAME
280
2
  9
$DGNFRAME
280
2
  9
$REALWORLDSCALE
290
1
  9
$INTERFERECOLOR
 62
256
  9
$CSHADOW
280
0
  9
$SHADOWPLANELOCATION
 40
0.0
  0
ENDSEC
  0
SECTION
  2
CLASSES
  0
CLASS
  1
ACDBDICTIONARYWDFLT
  2
AcDbDictionaryWithDefault
  3
ObjectDBX Classes
 90
0
 91
0
280
0
281
0
  0
CLASS
  1
SUN
  2
AcDbSun
  3
SCENEOE
 90
1153
 91
0
280
0
281
0
  0
CLASS
  1
VISUALSTYLE
  2
AcDbVisualStyle
  3
ObjectDBX Classes
 90
4095
 91
0
280
0
281
0
  0
CLASS
  1
MATERIAL
  2
AcDbMaterial
  3
ObjectDBX Classes
 90
1153
 91
0
280
0
281
0
  0
CLASS
  1
SCALE
  2
AcDbScale
  3
ObjectDBX Classes
 90
1153
 91
0
280
0
281
0
  0
CLASS
  1
TABLESTYLE
  2
AcDbTableStyle
  3
ObjectDBX Classes
 90
4095
 91
0
280
0
281
0
  0
CLASS
  1
MLEADERSTYLE
  2
AcDbMLeaderStyle
  3
ACDB_MLEADERSTYLE_CLASS
 90
4095
 91
0
280
0
281
0
  0
CLASS
  1
DICTIONARYVAR
  2
AcDbDictionaryVar
  3
ObjectDBX Classes
 90
0
 91
0
280
0
281
0
  0
CLASS
  1
CELLSTYLEMAP
  2
AcDbCellStyleMap
  3
ObjectDBX Classes
 90
1152
 91
0
280
0
281
0
  0
CLASS
  1
MENTALRAYRENDERSETTINGS
  2
AcDbMentalRayRenderSettings
  3
SCENEOE
 90
1024
 91
0
280
0
281
0
  0
CLASS
  1
ACDBDETAILVIEWSTYLE
  2
AcDbDetailViewStyle
  3
ObjectDBX Classes
 90
1025
 91
0
280
0
281
0
  0
CLASS
  1
ACDBSECTIONVIEWSTYLE
  2
AcDbSectionViewStyle
  3
ObjectDBX Classes
 90
1025
 91
0
280
0
281
0
  0
CLASS
  1
RASTERVARIABLES
  2
AcDbRasterVariables
  3
ISM
 90
0
 91
0
280
0
281
0
  0
CLASS
  1
LAYOUT
  2
AcDbLayout
  3
ObjectDBX Classes
 90
0
 91
0
280
0
281
0
  0
CLASS
  1
ACDBPLACEHOLDER
  2
AcDbPlaceHolder
  3
ObjectDBX Classes
 90
0
 91
0
280
0
281
0
  0
ENDSEC
  0
SECTION
  2
TABLES
  0
TABLE
  2
VPORT
  5
8
330
0
100
AcDbSymbolTable
 70
1
  0
VPORT
  5
23
330
8
100
AcDbSymbolTableRecord
100
AcDbViewportTableRecord
  2
*Active
 70
0
 10
0.0
 20
0.0
 11
1.0
 21
1.0
 12
0.0
 22
0.0
 13
0.0
 23
0.0
 14
0.5
 24
0.5
 15
0.5
 25
0.5
 16
0.0
 26
0.0
 36
1.0
 17
0.0
 27
0.0
 37
0.0
 40
1000.0
 41
1.34
 42
50.0
 43
0.0
 44
0.0
 50
0.0
 51
0.0
 71
0
 72
1000
 73
1
 74
3
 75
0
 76
0
 77
0
 78
0
281
0
 65
0
146
0.0
  0
ENDTAB
  0
TABLE
  2
LTYPE
  5
2
330
0
100
AcDbSymbolTable
 70
3
  0
LTYPE
  5
24
330
2
100
AcDbSymbolTableRecord
100
AcDbLinetypeTableRecord
  2
ByBlock
 70
0
  3

 72
65
 73
0
 40
0.0
  0
LTYPE
  5
25
330
2
100
AcDbSymbolTableRecord
100
AcDbLinetypeTableRecord
  2
ByLayer
 70
0
  3

 72
65
 73
0
 40
0.0
  0
LTYPE
  5
26
330
2
100
AcDbSymbolTableRecord
100
AcDbLinetypeTableRecord
  2
Continuous
 70
0
  3

 72
65
 73
0
 40
0.0
  0
ENDTAB
  0
TABLE
  2
LAYER
  5
1
330
0
100
AcDbSymbolTable
 70
5
  0
LAYER
  5
27
330
1
100
AcDbSymbolTableRecord
100
AcDbLayerTableRecord
  2
0
 70
0
 62
7
  6
Continuous
370
-3
390
13
347
21
  0
LAYER
  5
28
330
1
100
AcDbSymbolTableRecord
100
AcDbLayerTableRecord
  2
Defpoints
 70
0
 62
7
  6
Continuous
290
0
370
-3
390
13
347
21
  0
LAYER
  5
30
330
1
100
AcDbSymbolTableRecord
100
AcDbLayerTableRecord
  2
FoilLayer
 70
0
 62
1
  6
Continuous
370
50
390
13
347
21
  0
LAYER
  5
31
330
1
100
AcDbSymbolTableRecord
100
AcDbLayerTableRecord
  2
StringerLayer
 70
0
 62
1
  6
Continuous
370
50
390
13
347
21
  0
LAYER
  5
32
330
1
100
AcDbSymbolTableRecord
100
AcDbLayerTableRecord
  2
SubLayer
 70
0
 62
1
  6
Continuous
370
50
390
13
347
21
  0
ENDTAB
  0
TABLE
  2
STYLE
  5
5
330
0
100
AcDbSymbolTable
 70
2
  0
STYLE
  5
29
330
5
100
AcDbSymbolTableRecord
100
AcDbTextStyleTableRecord
  2
Standard
 70
0
 40
0.0
 41
1.0
 50
0.0
 71
0
 42
2.5
  3
txt
  4

  0
STYLE
  5
2F
330
5
100
AcDbSymbolTableRecord
100
AcDbTextStyleTableRecord
  2
MSゴシック
 70
0
 40
0.0
 41
1.0
 50
0.0
 71
0
 42
2.5
  3
romans
  4

  0
ENDTAB
  0
TABLE
  2
VIEW
  5
7
330
0
100
AcDbSymbolTable
 70
0
  0
ENDTAB
  0
TABLE
  2
UCS
  5
6
330
0
100
AcDbSymbolTable
 70
0
  0
ENDTAB
  0
TABLE
  2
APPID
  5
3
330
0
100
AcDbSymbolTable
 70
3
  0
APPID
  5
2A
330
3
100
AcDbSymbolTableRecord
100
AcDbRegAppTableRecord
  2
ACAD
 70
0
  0
APPID
  5
1C9
330
3
100
AcDbSymbolTableRecord
100
AcDbRegAppTableRecord
  2
HATCHBACKGROUNDCOLOR
 70
0
  0
APPID
  5
1CA
330
3
100
AcDbSymbolTableRecord
100
AcDbRegAppTableRecord
  2
EZDXF
 70
0
  0
ENDTAB
  0
TABLE
  2
DIMSTYLE
  5
4
330
0
100
AcDbSymbolTable
 70
1
100
AcDbDimStyleTable
  0
DIMSTYLE
105
2B
330
4
100
AcDbSymbolTableRecord
100
AcDbDimStyleTableRecord
  2
Standard
 70
0
 40
1.0
 41
2.5
 42
0.625
 43
3.75
 44
1.25
 45
0.0
 46
0.0
 47
0.0
 48
0.0
 49
2.5
140
2.5
141
2.5
142
0.0
143
0.03937007874
144
1.0
145
0.0
146
1.0
147
0.625
148
0.0
 69
0
 70
0
 71
0
 72
0
 73
0
 74
0
 75
0
 76
0
 77
1
 78
8
 79
3
170
0
171
3
172
1
173
0
174
0
175
0
176
0
177
0
178
0
179
2
271
2
272
2
273
2
274
3
275
0
276
0
277
2
278
44
279
0
280
0
281
0
282
0
283
0
284
8
285
0
286
0
288
0
289
3
290
0
371
-2
372
-2
  0
ENDTAB
  0
TABLE
  2
BLOCK_RECORD
  5
9
330
0
100
AcDbSymbolTable
 70
2
  0
BLOCK_RECORD
  5
17
330
9
100
AcDbSymbolTableRecord
100
AcDbBlockTableRecord
  2
*Model_Space
340
1A
 70
0
280
1
281
0
  0
BLOCK_RECORD
  5
1B
330
9
100
AcDbSymbolTableRecord
100
AcDbBlockTableRecord
  2
*Paper_Space
340
1E
 70
0
280
1
281
0
  0
ENDTAB
  0
ENDSEC
  0
SECTION
  2
BLOCKS
  0
BLOCK
  5
18
330
17
100
AcDbEntity
  8
0
100
AcDbBlockBegin
  2
*Model_Space
 70
0
 10
0.0
 20
0.0
 30
0.0
  3
*Model_Space
  1

  0
ENDBLK
  5
19
330
17
100
AcDbEntity
  8
0
100
AcDbBlockEnd
  0
BLOCK
  5
1C
330
1B
100
AcDbEntity
  8
0
100
AcDbBlockBegin
  2
*Paper_Space
 70
0
 10
0.0
 20
0.0
 30
0.0
  3
*Paper_Space
  1

  0
ENDBLK
  5
1D
330
1B
100
AcDbEntity
  8
0
100
AcDbBlockEnd
  0
ENDSEC
  0
SECTION
  2
ENTITIES
  0
LINE
  5
33
330
17
100
AcDbEntity
  8
FoilLayer
100
AcDbLine
 10
636.3759920741259
 20
1.0997572845205945
 30
0.0
 11
633.2618454913932
 21
2.096484792515768
 31
0.0
  0
LINE
  5
34
330
17
100
AcDbEntity
  8
FoilLayer
100
AcDbLine
 10
633.2618454913932
 20
2.096484792515768
 30
0.0
 11
628.2545867150166
 21
3.6069182563861277
 31
0.0
  0
LINE
  5
35
330
17
100
AcDbEntity
  8
FoilLayer
100
AcDbLine
 10
628.2545867150166
 20
3.6069182563861277
 30
0.0
 11
622.8364292246015
 21
5.283260534538882
 31
0.0
  0
LINE
  5
36
330
17
100
AcDbEntity
  8
FoilLayer
100
AcDbLine
 10
622.8364292246015
 20
5.283260534538882
 30
0.0
 11
616.9196696363938
 21
7.074971760247934
 31
0.0
  0
LINE
  5
37
330
17
100
AcDbEntity
  8
FoilLayer
100
AcDbLine
 10
616.9196696363938
 20
7.074971760247934
 30
0.0
 11
610.4685594077732
 21
8.984386332462577
 31
0.0
  0
LINE
  5
38
330
17
100
AcDbEntity
  8
FoilLayer
100
AcDbLine
 10
610.4685594077732
 20
8.984386332462577
 30
0.0
 11
603.5290361215807
 21
11.037124318176412
 31
0.0
  0
LINE
  5
39
330
17
100
AcDbEntity
  8
FoilLayer
100
AcDbLine
 10
603.5290361215807
 20
11.037124318176412
 30
0.0
 11
596.1834134707235
 21
13.223377830554547
 31
0.0
  0
LINE
  5
3A
330
17
100
AcDbEntity
  8
FoilLayer
100
AcDbLine
 10
596.1834134707235
 20
13.223377830554547
 30
0.0
 11
588.4977872519116
 21
15.49826946332745
 31
0.0
  0
LINE
  5
3B
330
17
100
AcDbEntity
  8
FoilLayer
100
AcDbLine
 10
588.4977872519116
 20
15.49826946332745
 30
0.0
 11
580.5913797968501
 21
17.83482067940573
 31
0.0
  0
LINE
  5
3C
330
17
100
AcDbEntity
  8
FoilLayer
100
AcDbLine
 10
580.5913797968501
 20
17.83482067940573
 30
0.0
 11
572.6108948765973
 21
20.164766875113852
 31
0.0
  0
LINE
  5
3D
330
17
100
AcDbEntity
  8
FoilLayer
100
AcDbLine
 10
572.6108948765973
 20
20.164766875113852
 30
0.0
 11
564.5670003874711
 21
22.456658663878294
 31
0.0
  0
LINE
  5
3E
330
17
100
AcDbEntity
  8
FoilLayer
100
AcDbLine
 10
564.5670003874711
 20
22.456658663878294
 30
0.0
 11
556.4089594401441
 21
24.841566377655
 31
0.0
  0
LINE
  5
3F
330
17
100
AcDbEntity
  8
FoilLayer
100
AcDbLine
 10
556.4089594401441
 20
24.841566377655
 30
0.0
 11
548.1555493135147
 21
27.26679894347482
 31
0.0
  0
LINE
  5
40
330
17
100
AcDbEntity
  8
FoilLayer
100
AcDbLine
 10
548.1555493135147
 20
27.26679894347482
 30
0.0
 11
539.7633309799114
 21
29.67132623375628
 31
0.0
  0
LINE
  5
41
330
17
100
AcDbEntity
  8
FoilLayer
100
AcDbLine
 10
539.7633309799114
 20
29.67132623375628
 30
0.0
 11
531.235639044985
 21
32.102300724811954
 31
0.0
  0
LINE
  5
42
330
17
100
AcDbEntity
  8
FoilLayer
100
AcDbLine
 10
531.235639044985
 20
32.102300724811954
 30
0.0
 11
522.5649925366088
 21
34.535557461317985
 31
0.0
  0
LINE
  5
43
330
17
100
AcDbEntity
  8
FoilLayer
100
AcDbLine
 10
522.5649925366088
 20
34.535557461317985
 30
0.0
 11
513.7289215773787
 21
37.026949689533
 31
0.0
  0
LINE
  5
44
330
17
100
AcDbEntity
  8
FoilLayer
100
AcDbLine
 10
513.7289215773787
 20
37.026949689533
 30
0.0
 11
504.7524809823804
 21
39.552337522160435
 31
0.0
  0
LINE
  5
45
330
17
100
AcDbEntity
  8
FoilLayer
100
AcDbLine
 10
504.7524809823804
 20
39.552337522160435
 30
0.0
 11
495.6741316964462
 21
42.09915961127512
 31
0.0
  0
LINE
  5
46
330
17
100
AcDbEntity
  8
FoilLayer
100
AcDbLine
 10
495.6741316964462
 20
42.09915961127512
 30
0.0
 11
486.531077552308
 21
44.66068536794779
 31
0.0
  0
LINE
  5
47
330
17
100
AcDbEntity
  8
FoilLayer
100
AcDbLine
 10
486.531077552308
 20
44.66068536794779
 30
0.0
 11
477.358780934746
 21
47.230073203301444
 31
0.0
  0
LINE
  5
48
330
17
100
AcDbEntity
  8
FoilLayer
100
AcDbLine
 10
477.358780934746
 20
47.230073203301444
 30
0.0
 11
468.1828723353238
 21
49.793482635895174
 31
0.0
  0
LINE
  5
49
330
17
100
AcDbEntity
  8
FoilLayer
100
AcDbLine
 10
468.1828723353238
 20
49.793482635895174
 30
0.0
 11
459.0101708820626
 21
52.343130353205616
 31
0.0
  0
LINE
  5
4A
330
17
100
AcDbEntity
  8
FoilLayer
100
AcDbLine
 10
459.0101708820626
 20
52.343130353205616
 30
0.0
 11
449.8417200751399
 21
54.87761189568256
 31
0.0
  0
LINE
  5
4B
330
17
100
AcDbEntity
  8
FoilLayer
100
AcDbLine
 10
449.8417200751399
 20
54.87761189568256
 30
0.0
 11
440.6805017363377
 21
57.39674356003035
 31
0.0
  0
LINE
  5
4C
330
17
100
AcDbEntity
  8
FoilLayer
100
AcDbLine
 10
440.6805017363377
 20
57.39674356003035
 30
0.0
 11
431.53702202631524
 21
59.899955781718894
 31
0.0
  0
LINE
  5
4D
330
17
100
AcDbEntity
  8
FoilLayer
100
AcDbLine
 10
431.53702202631524
 20
59.899955781718894
 30
0.0
 11
422.42951305718697
 21
62.37962962715833
 31
0.0
  0
LINE
  5
4E
330
17
100
AcDbEntity
  8
FoilLayer
100
AcDbLine
 10
422.42951305718697
 20
62.37962962715833
 30
0.0
 11
413.3592955110258
 21
64.82594482251372
 31
0.0
  0
LINE
  5
4F
330
17
100
AcDbEntity
  8
FoilLayer
100
AcDbLine
 10
413.3592955110258
 20
64.82594482251372
 30
0.0
 11
404.30919131130526
 21
67.23879829181841
 31
0.0
  0
LINE
  5
50
330
17
100
AcDbEntity
  8
FoilLayer
100
AcDbLine
 10
404.30919131130526
 20
67.23879829181841
 30
0.0
 11
395.2720747436736
 21
69.62366078077683
 31
0.0
  0
LINE
  5
51
330
17
100
AcDbEntity
  8
FoilLayer
100
AcDbLine
 10
395.2720747436736
 20
69.62366078077683
 30
0.0
 11
386.25622506692247
 21
71.97955489785096
 31
0.0
  0
LINE
  5
52
330
17
100
AcDbEntity
  8
FoilLayer
100
AcDbLine
 10
386.25622506692247
 20
71.97955489785096
 30
0.0
 11
381.7953675454598
 21
73.13164035815058
 31
0.0
  0
LINE
  5
53
330
17
100
AcDbEntity
  8
FoilLayer
100
AcDbLine
 10
381.7953675454598
 20
73.13164035815058
 30
0.0
 11
381.53280409890084
 21
72.11499861371396
 31
0.0
  0
LINE
  5
54
330
17
100
AcDbEntity
  8
FoilLayer
100
AcDbLine
 10
381.53280409890084
 20
72.11499861371396
 30
0.0
 11
377.00693226798495
 21
73.28388347337655
 31
0.0
  0
LINE
  5
55
330
17
100
AcDbEntity
  8
FoilLayer
100
AcDbLine
 10
377.00693226798495
 20
73.28388347337655
 30
0.0
 11
368.0417925782413
 21
75.56772366190725
 31
0.0
  0
LINE
  5
56
330
17
100
AcDbEntity
  8
FoilLayer
100
AcDbLine
 10
368.0417925782413
 20
75.56772366190725
 30
0.0
 11
359.09198013853137
 21
77.81424576359848
 31
0.0
  0
LINE
  5
57
330
17
100
AcDbEntity
  8
FoilLayer
100
AcDbLine
 10
359.09198013853137
 20
77.81424576359848
 30
0.0
 11
350.15084752233196
 21
80.02363556892715
 31
0.0
  0
LINE
  5
58
330
17
100
AcDbEntity
  8
FoilLayer
100
AcDbLine
 10
350.15084752233196
 20
80.02363556892715
 30
0.0
 11
341.2122115096358
 21
82.19806844069494
 31
0.0
  0
LINE
  5
59
330
17
100
AcDbEntity
  8
FoilLayer
100
AcDbLine
 10
341.2122115096358
 20
82.19806844069494
 30
0.0
 11
332.2767714370868
 21
84.3417647332095
 31
0.0
  0
LINE
  5
5A
330
17
100
AcDbEntity
  8
FoilLayer
100
AcDbLine
 10
332.2767714370868
 20
84.3417647332095
 30
0.0
 11
323.3686907316672
 21
86.45476002357418
 31
0.0
  0
LINE
  5
5B
330
17
100
AcDbEntity
  8
FoilLayer
100
AcDbLine
 10
323.3686907316672
 20
86.45476002357418
 30
0.0
 11
314.5198786541303
 21
88.5254444851125
 31
0.0
  0
LINE
  5
5C
330
17
100
AcDbEntity
  8
FoilLayer
100
AcDbLine
 10
314.5198786541303
 20
88.5254444851125
 30
0.0
 11
305.7389370814888
 21
90.53940899316582
 31
0.0
  0
LINE
  5
5D
330
17
100
AcDbEntity
  8
FoilLayer
100
AcDbLine
 10
305.7389370814888
 20
90.53940899316582
 30
0.0
 11
297.0146375310556
 21
92.49072840938713
 31
0.0
  0
LINE
  5
5E
330
17
100
AcDbEntity
  8
FoilLayer
100
AcDbLine
 10
297.0146375310556
 20
92.49072840938713
 30
0.0
 11
288.33333275811316
 21
94.37866588453286
 31
0.0
  0
LINE
  5
5F
330
17
100
AcDbEntity
  8
FoilLayer
100
AcDbLine
 10
288.33333275811316
 20
94.37866588453286
 30
0.0
 11
279.6830156662682
 21
96.20388000508302
 31
0.0
  0
LINE
  5
60
330
17
100
AcDbEntity
  8
FoilLayer
100
AcDbLine
 10
279.6830156662682
 20
96.20388000508302
 30
0.0
 11
271.05300487328094
 21
97.96775709975958
 31
0.0
  0
LINE
  5
61
330
17
100
AcDbEntity
  8
FoilLayer
100
AcDbLine
 10
271.05300487328094
 20
97.96775709975958
 30
0.0
 11
262.4374477959795
 21
99.67232217899074
 31
0.0
  0
LINE
  5
62
330
17
100
AcDbEntity
  8
FoilLayer
100
AcDbLine
 10
262.4374477959795
 20
99.67232217899074
 30
0.0
 11
253.8370261227097
 21
101.31789395826907
 31
0.0
  0
LINE
  5
63
330
17
100
AcDbEntity
  8
FoilLayer
100
AcDbLine
 10
253.8370261227097
 20
101.31789395826907
 30
0.0
 11
245.2531361564001
 21
102.90178497469242
 31
0.0
  0
LINE
  5
64
330
17
100
AcDbEntity
  8
FoilLayer
100
AcDbLine
 10
245.2531361564001
 20
102.90178497469242
 30
0.0
 11
236.67852021018467
 21
104.42125064570492
 31
0.0
  0
LINE
  5
65
330
17
100
AcDbEntity
  8
FoilLayer
100
AcDbLine
 10
236.67852021018467
 20
104.42125064570492
 30
0.0
 11
228.1008772855825
 21
105.87749475499989
 31
0.0
  0
LINE
  5
66
330
17
100
AcDbEntity
  8
FoilLayer
100
AcDbLine
 10
228.1008772855825
 20
105.87749475499989
 30
0.0
 11
219.51343732102015
 21
107.27345615969706
 31
0.0
  0
LINE
  5
67
330
17
100
AcDbEntity
  8
FoilLayer
100
AcDbLine
 10
219.51343732102015
 20
107.27345615969706
 30
0.0
 11
210.91349254376286
 21
108.6109568192096
 31
0.0
  0
LINE
  5
68
330
17
100
AcDbEntity
  8
FoilLayer
100
AcDbLine
 10
210.91349254376286
 20
108.6109568192096
 30
0.0
 11
202.3002602663558
 21
109.89121032051932
 31
0.0
  0
LINE
  5
69
330
17
100
AcDbEntity
  8
FoilLayer
100
AcDbLine
 10
202.3002602663558
 20
109.89121032051932
 30
0.0
 11
193.6750410065559
 21
111.11491572282742
 31
0.0
  0
LINE
  5
6A
330
17
100
AcDbEntity
  8
FoilLayer
100
AcDbLine
 10
193.6750410065559
 20
111.11491572282742
 30
0.0
 11
185.04133763586657
 21
112.28202700485457
 31
0.0
  0
LINE
  5
6B
330
17
100
AcDbEntity
  8
FoilLayer
100
AcDbLine
 10
185.04133763586657
 20
112.28202700485457
 30
0.0
 11
176.40121707733562
 21
113.39070048186875
 31
0.0
  0
LINE
  5
6C
330
17
100
AcDbEntity
  8
FoilLayer
100
AcDbLine
 10
176.40121707733562
 20
113.39070048186875
 30
0.0
 11
167.74914313219568
 21
114.43927555953454
 31
0.0
  0
LINE
  5
6D
330
17
100
AcDbEntity
  8
FoilLayer
100
AcDbLine
 10
167.74914313219568
 20
114.43927555953454
 30
0.0
 11
159.07670801740284
 21
115.42951934543494
 31
0.0
  0
LINE
  5
6E
330
17
100
AcDbEntity
  8
FoilLayer
100
AcDbLine
 10
159.07670801740284
 20
115.42951934543494
 30
0.0
 11
150.3808325842545
 21
116.3645811969869
 31
0.0
  0
LINE
  5
6F
330
17
100
AcDbEntity
  8
FoilLayer
100
AcDbLine
 10
150.3808325842545
 20
116.3645811969869
 30
0.0
 11
141.66333786263255
 21
117.2471922717545
 31
0.0
  0
LINE
  5
70
330
17
100
AcDbEntity
  8
FoilLayer
100
AcDbLine
 10
141.66333786263255
 20
117.2471922717545
 30
0.0
 11
132.93296026036074
 21
118.07893055799798
 31
0.0
  0
LINE
  5
71
330
17
100
AcDbEntity
  8
FoilLayer
100
AcDbLine
 10
132.93296026036074
 20
118.07893055799798
 30
0.0
 11
124.19958101161734
 21
118.85854916993142
 31
0.0
  0
LINE
  5
72
330
17
100
AcDbEntity
  8
FoilLayer
100
AcDbLine
 10
124.19958101161734
 20
118.85854916993142
 30
0.0
 11
115.46865540238338
 21
119.58352768042282
 31
0.0
  0
LINE
  5
73
330
17
100
AcDbEntity
  8
FoilLayer
100
AcDbLine
 10
115.46865540238338
 20
119.58352768042282
 30
0.0
 11
106.74239255590822
 21
120.25315741972149
 31
0.0
  0
LINE
  5
74
330
17
100
AcDbEntity
  8
FoilLayer
100
AcDbLine
 10
106.74239255590822
 20
120.25315741972149
 30
0.0
 11
98.02498271985587
 21
120.86681480967087
 31
0.0
  0
LINE
  5
75
330
17
100
AcDbEntity
  8
FoilLayer
100
AcDbLine
 10
98.02498271985587
 20
120.86681480967087
 30
0.0
 11
89.31913007517352
 21
121.42277108599883
 31
0.0
  0
LINE
  5
76
330
17
100
AcDbEntity
  8
FoilLayer
100
AcDbLine
 10
89.31913007517352
 20
121.42277108599883
 30
0.0
 11
80.62430355199217
 21
121.91921152104301
 31
0.0
  0
LINE
  5
77
330
17
100
AcDbEntity
  8
FoilLayer
100
AcDbLine
 10
80.62430355199217
 20
121.91921152104301
 30
0.0
 11
71.93780564547416
 21
122.35573788863044
 31
0.0
  0
LINE
  5
78
330
17
100
AcDbEntity
  8
FoilLayer
100
AcDbLine
 10
71.93780564547416
 20
122.35573788863044
 30
0.0
 11
63.259805300721666
 21
122.73264901051002
 31
0.0
  0
LINE
  5
79
330
17
100
AcDbEntity
  8
FoilLayer
100
AcDbLine
 10
63.259805300721666
 20
122.73264901051002
 30
0.0
 11
54.591183184735655
 21
123.0492330278065
 31
0.0
  0
LINE
  5
7A
330
17
100
AcDbEntity
  8
FoilLayer
100
AcDbLine
 10
54.591183184735655
 20
123.0492330278065
 30
0.0
 11
45.930434504201116
 21
123.3044800019707
 31
0.0
  0
LINE
  5
7B
330
17
100
AcDbEntity
  8
FoilLayer
100
AcDbLine
 10
45.930434504201116
 20
123.3044800019707
 30
0.0
 11
37.275981975995535
 21
123.498391323227
 31
0.0
  0
LINE
  5
7C
330
17
100
AcDbEntity
  8
FoilLayer
100
AcDbLine
 10
37.275981975995535
 20
123.498391323227
 30
0.0
 11
28.629406909392912
 21
123.63116732010674
 31
0.0
  0
LINE
  5
7D
330
17
100
AcDbEntity
  8
FoilLayer
100
AcDbLine
 10
28.629406909392912
 20
123.63116732010674
 30
0.0
 11
19.98949227695465
 21
123.70098239018594
 31
0.0
  0
LINE
  5
7E
330
17
100
AcDbEntity
  8
FoilLayer
100
AcDbLine
 10
19.98949227695465
 20
123.70098239018594
 30
0.0
 11
11.352100057116843
 21
123.70712432933956
 31
0.0
  0
LINE
  5
7F
330
17
100
AcDbEntity
  8
FoilLayer
100
AcDbLine
 10
11.352100057116843
 20
123.70712432933956
 30
0.0
 11
2.712810097264253
 21
123.65091023401736
 31
0.0
  0
LINE
  5
80
330
17
100
AcDbEntity
  8
FoilLayer
100
AcDbLine
 10
2.712810097264253
 20
123.65091023401736
 30
0.0
 11
-5.925547684705293
 21
123.53447682373816
 31
0.0
  0
LINE
  5
81
330
17
100
AcDbEntity
  8
FoilLayer
100
AcDbLine
 10
-5.925547684705293
 20
123.53447682373816
 30
0.0
 11
-14.557005571682907
 21
123.35844062175138
 31
0.0
  0
LINE
  5
82
330
17
100
AcDbEntity
  8
FoilLayer
100
AcDbLine
 10
-14.557005571682907
 20
123.35844062175138
 30
0.0
 11
-23.176173166244382
 21
123.12199397148528
 31
0.0
  0
LINE
  5
83
330
17
100
AcDbEntity
  8
FoilLayer
100
AcDbLine
 10
-23.176173166244382
 20
123.12199397148528
 30
0.0
 11
-31.77981637276099
 21
122.82381785022025
 31
0.0
  0
LINE
  5
84
330
17
100
AcDbEntity
  8
FoilLayer
100
AcDbLine
 10
-31.77981637276099
 20
122.82381785022025
 30
0.0
 11
-40.367435093430515
 21
122.46268518329681
 31
0.0
  0
LINE
  5
85
330
17
100
AcDbEntity
  8
FoilLayer
100
AcDbLine
 10
-40.367435093430515
 20
122.46268518329681
 30
0.0
 11
-48.93867516740363
 21
122.03858802022611
 31
0.0
  0
LINE
  5
86
330
17
100
AcDbEntity
  8
FoilLayer
100
AcDbLine
 10
-48.93867516740363
 20
122.03858802022611
 30
0.0
 11
-57.49098926747769
 21
121.55252926834511
 31
0.0
  0
LINE
  5
87
330
17
100
AcDbEntity
  8
FoilLayer
100
AcDbLine
 10
-57.49098926747769
 20
121.55252926834511
 30
0.0
 11
-66.0162336468091
 21
121.00707685934944
 31
0.0
  0
LINE
  5
88
330
17
100
AcDbEntity
  8
FoilLayer
100
AcDbLine
 10
-66.0162336468091
 20
121.00707685934944
 30
0.0
 11
-74.4984972607138
 21
120.4032072358391
 31
0.0
  0
LINE
  5
89
330
17
100
AcDbEntity
  8
FoilLayer
100
AcDbLine
 10
-74.4984972607138
 20
120.4032072358391
 30
0.0
 11
-82.92493735751941
 21
119.73781909246806
 31
0.0
  0
LINE
  5
8A
330
17
100
AcDbEntity
  8
FoilLayer
100
AcDbLine
 10
-82.92493735751941
 20
119.73781909246806
 30
0.0
 11
-91.29002638352398
 21
119.00517207166625
 31
0.0
  0
LINE
  5
8B
330
17
100
AcDbEntity
  8
FoilLayer
100
AcDbLine
 10
-91.29002638352398
 20
119.00517207166625
 30
0.0
 11
-99.6005943664527
 21
118.19667992561521
 31
0.0
  0
LINE
  5
8C
330
17
100
AcDbEntity
  8
FoilLayer
100
AcDbLine
 10
-99.6005943664527
 20
118.19667992561521
 30
0.0
 11
-107.87930076230066
 21
117.30595892744792
 31
0.0
  0
LINE
  5
8D
330
17
100
AcDbEntity
  8
FoilLayer
100
AcDbLine
 10
-107.87930076230066
 20
117.30595892744792
 30
0.0
 11
-116.14434968968703
 21
116.33590320428476
 31
0.0
  0
LINE
  5
8E
330
17
100
AcDbEntity
  8
FoilLayer
100
AcDbLine
 10
-116.14434968968703
 20
116.33590320428476
 30
0.0
 11
-124.39343187311107
 21
115.29305976743926
 31
0.0
  0
LINE
  5
8F
330
17
100
AcDbEntity
  8
FoilLayer
100
AcDbLine
 10
-124.39343187311107
 20
115.29305976743926
 30
0.0
 11
-132.6171608896224
 21
114.17829268742977
 31
0.0
  0
LINE
  5
90
330
17
100
AcDbEntity
  8
FoilLayer
100
AcDbLine
 10
-132.6171608896224
 20
114.17829268742977
 30
0.0
 11
-140.8120355585217
 21
112.9900291965709
 31
0.0
  0
LINE
  5
91
330
17
100
AcDbEntity
  8
FoilLayer
100
AcDbLine
 10
-140.8120355585217
 20
112.9900291965709
 30
0.0
 11
-148.97579123180182
 21
111.72866540346244
 31
0.0
  0
LINE
  5
92
330
17
100
AcDbEntity
  8
FoilLayer
100
AcDbLine
 10
-148.97579123180182
 20
111.72866540346244
 30
0.0
 11
-157.1012263238452
 21
110.39589577164807
 31
0.0
  0
LINE
  5
93
330
17
100
AcDbEntity
  8
FoilLayer
100
AcDbLine
 10
-157.1012263238452
 20
110.39589577164807
 30
0.0
 11
-165.18074526809087
 21
108.99153798195553
 31
0.0
  0
LINE
  5
94
330
17
100
AcDbEntity
  8
FoilLayer
100
AcDbLine
 10
-165.18074526809087
 20
108.99153798195553
 30
0.0
 11
-173.20828237708457
 21
107.51500476001972
 31
0.0
  0
LINE
  5
95
330
17
100
AcDbEntity
  8
FoilLayer
100
AcDbLine
 10
-173.20828237708457
 20
107.51500476001972
 30
0.0
 11
-181.17922338545395
 21
105.96527827720622
 31
0.0
  0
LINE
  5
96
330
17
100
AcDbEntity
  8
FoilLayer
100
AcDbLine
 10
-181.17922338545395
 20
105.96527827720622
 30
0.0
 11
-189.08963270457525
 21
104.3417309524177
 31
0.0
  0
LINE
  5
97
330
17
100
AcDbEntity
  8
FoilLayer
100
AcDbLine
 10
-189.08963270457525
 20
104.3417309524177
 30
0.0
 11
-196.93509527123257
 21
102.64473201743593
 31
0.0
  0
LINE
  5
98
330
17
100
AcDbEntity
  8
FoilLayer
100
AcDbLine
 10
-196.93509527123257
 20
102.64473201743593
 30
0.0
 11
-204.70684193181154
 21
100.87444463383115
 31
0.0
  0
LINE
  5
99
330
17
100
AcDbEntity
  8
FoilLayer
100
AcDbLine
 10
-204.70684193181154
 20
100.87444463383115
 30
0.0
 11
-212.40293957717327
 21
99.02392155352983
 31
0.0
  0
LINE
  5
9A
330
17
100
AcDbEntity
  8
FoilLayer
100
AcDbLine
 10
-212.40293957717327
 20
99.02392155352983
 30
0.0
 11
-220.0377230518393
 21
97.08840864305851
 31
0.0
  0
LINE
  5
9B
330
17
100
AcDbEntity
  8
FoilLayer
100
AcDbLine
 10
-220.0377230518393
 20
97.08840864305851
 30
0.0
 11
-227.61130714330548
 21
95.08105858922046
 31
0.0
  0
LINE
  5
9C
330
17
100
AcDbEntity
  8
FoilLayer
100
AcDbLine
 10
-227.61130714330548
 20
95.08105858922046
 30
0.0
 11
-235.08437476100423
 21
93.02199283999597
 31
0.0
  0
LINE
  5
9D
330
17
100
AcDbEntity
  8
FoilLayer
100
AcDbLine
 10
-235.08437476100423
 20
93.02199283999597
 30
0.0
 11
-242.41523211107952
 21
90.9134399249672
 31
0.0
  0
LINE
  5
9E
330
17
100
AcDbEntity
  8
FoilLayer
100
AcDbLine
 10
-242.41523211107952
 20
90.9134399249672
 30
0.0
 11
-249.58953024112492
 21
88.7454334827126
 31
0.0
  0
LINE
  5
9F
330
17
100
AcDbEntity
  8
FoilLayer
100
AcDbLine
 10
-249.58953024112492
 20
88.7454334827126
 30
0.0
 11
-256.60879801729965
 21
86.50962356780052
 31
0.0
  0
LINE
  5
A0
330
17
100
AcDbEntity
  8
FoilLayer
100
AcDbLine
 10
-256.60879801729965
 20
86.50962356780052
 30
0.0
 11
-263.478121733151
 21
84.2015845474375
 31
0.0
  0
LINE
  5
A1
330
17
100
AcDbEntity
  8
FoilLayer
100
AcDbLine
 10
-263.478121733151
 20
84.2015845474375
 30
0.0
 11
-270.20167054972177
 21
81.82028689900935
 31
0.0
  0
LINE
  5
A2
330
17
100
AcDbEntity
  8
FoilLayer
100
AcDbLine
 10
-270.20167054972177
 20
81.82028689900935
 30
0.0
 11
-276.77898779765343
 21
79.36835569282435
 31
0.0
  0
LINE
  5
A3
330
17
100
AcDbEntity
  8
FoilLayer
100
AcDbLine
 10
-276.77898779765343
 20
79.36835569282435
 30
0.0
 11
-283.2034268104876
 21
76.8527649265582
 31
0.0
  0
LINE
  5
A4
330
17
100
AcDbEntity
  8
FoilLayer
100
AcDbLine
 10
-283.2034268104876
 20
76.8527649265582
 30
0.0
 11
-289.46058868975376
 21
74.28335702037388
 31
0.0
  0
LINE
  5
A5
330
17
100
AcDbEntity
  8
FoilLayer
100
AcDbLine
 10
-289.46058868975376
 20
74.28335702037388
 30
0.0
 11
-295.53306347737134
 21
71.66762069142874
 31
0.0
  0
LINE
  5
A6
330
17
100
AcDbEntity
  8
FoilLayer
100
AcDbLine
 10
-295.53306347737134
 20
71.66762069142874
 30
0.0
 11
-301.409532312182
 21
69.01147123422476
 31
0.0
  0
LINE
  5
A7
330
17
100
AcDbEntity
  8
FoilLayer
100
AcDbLine
 10
-301.409532312182
 20
69.01147123422476
 30
0.0
 11
-307.07864930337485
 21
66.33001533293763
 31
0.0
  0
LINE
  5
A8
330
17
100
AcDbEntity
  8
FoilLayer
100
AcDbLine
 10
-307.07864930337485
 20
66.33001533293763
 30
0.0
 11
-312.51828046145044
 21
63.647751439893334
 31
0.0
  0
LINE
  5
A9
330
17
100
AcDbEntity
  8
FoilLayer
100
AcDbLine
 10
-312.51828046145044
 20
63.647751439893334
 30
0.0
 11
-317.70125684954763
 21
60.98564967262978
 31
0.0
  0
LINE
  5
AA
330
17
100
AcDbEntity
  8
FoilLayer
100
AcDbLine
 10
-317.70125684954763
 20
60.98564967262978
 30
0.0
 11
-322.6072236077817
 21
58.35665590476868
 31
0.0
  0
LINE
  5
AB
330
17
100
AcDbEntity
  8
FoilLayer
100
AcDbLine
 10
-322.6072236077817
 20
58.35665590476868
 30
0.0
 11
-327.2253985257444
 21
55.76864150159906
 31
0.0
  0
LINE
  5
AC
330
17
100
AcDbEntity
  8
FoilLayer
100
AcDbLine
 10
-327.2253985257444
 20
55.76864150159906
 30
0.0
 11
-331.5552539656205
 21
53.22529787872241
 31
0.0
  0
LINE
  5
AD
330
17
100
AcDbEntity
  8
FoilLayer
100
AcDbLine
 10
-331.5552539656205
 20
53.22529787872241
 30
0.0
 11
-335.60398944990453
 21
50.731929309159284
 31
0.0
  0
LINE
  5
AE
330
17
100
AcDbEntity
  8
FoilLayer
100
AcDbLine
 10
-335.60398944990453
 20
50.731929309159284
 30
0.0
 11
-339.38063323689994
 21
48.297754102620154
 31
0.0
  0
LINE
  5
AF
330
17
100
AcDbEntity
  8
FoilLayer
100
AcDbLine
 10
-339.38063323689994
 20
48.297754102620154
 30
0.0
 11
-342.89499529668956
 21
45.931556186855744
 31
0.0
  0
LINE
  5
B0
330
17
100
AcDbEntity
  8
FoilLayer
100
AcDbLine
 10
-342.89499529668956
 20
45.931556186855744
 30
0.0
 11
-346.1572723797236
 21
43.64127286961496
 31
0.0
  0
LINE
  5
B1
330
17
100
AcDbEntity
  8
FoilLayer
100
AcDbLine
 10
-346.1572723797236
 20
43.64127286961496
 30
0.0
 11
-349.177592213083
 21
41.43064856733822
 31
0.0
  0
LINE
  5
B2
330
17
100
AcDbEntity
  8
FoilLayer
100
AcDbLine
 10
-349.177592213083
 20
41.43064856733822
 30
0.0
 11
-351.96770065306487
 21
39.298548317868516
 31
0.0
  0
LINE
  5
B3
330
17
100
AcDbEntity
  8
FoilLayer
100
AcDbLine
 10
-351.96770065306487
 20
39.298548317868516
 30
0.0
 11
-354.5407231260052
 21
37.24075516991816
 31
0.0
  0
LINE
  5
B4
330
17
100
AcDbEntity
  8
FoilLayer
100
AcDbLine
 10
-354.5407231260052
 20
37.24075516991816
 30
0.0
 11
-356.9113729079281
 21
35.250548934805025
 31
0.0
  0
LINE
  5
B5
330
17
100
AcDbEntity
  8
FoilLayer
100
AcDbLine
 10
-356.9113729079281
 20
35.250548934805025
 30
0.0
 11
-359.0975121581283
 21
33.320984020609274
 31
0.0
  0
LINE
  5
B6
330
17
100
AcDbEntity
  8
FoilLayer
100
AcDbLine
 10
-359.0975121581283
 20
33.320984020609274
 30
0.0
 11
-361.117249067929
 21
31.451912518476718
 31
0.0
  0
LINE
  5
B7
330
17
100
AcDbEntity
  8
FoilLayer
100
AcDbLine
 10
-361.117249067929
 20
31.451912518476718
 30
0.0
 11
-362.9852043436424
 21
29.64591012916299
 31
0.0
  0
LINE
  5
B8
330
17
100
AcDbEntity
  8
FoilLayer
100
AcDbLine
 10
-362.9852043436424
 20
29.64591012916299
 30
0.0
 11
-364.7121311845801
 21
27.902935950903153
 31
0.0
  0
LINE
  5
B9
330
17
100
AcDbEntity
  8
FoilLayer
100
AcDbLine
 10
-364.7121311845801
 20
27.902935950903153
 30
0.0
 11
-366.3077246539416
 21
26.218898984300615
 31
0.0
  0
LINE
  5
BA
330
17
100
AcDbEntity
  8
FoilLayer
100
AcDbLine
 10
-366.3077246539416
 20
26.218898984300615
 30
0.0
 11
-367.78122478717063
 21
24.590175310289766
 31
0.0
  0
LINE
  5
BB
330
17
100
AcDbEntity
  8
FoilLayer
100
AcDbLine
 10
-367.78122478717063
 20
24.590175310289766
 30
0.0
 11
-369.14098010765446
 21
23.01323751061881
 31
0.0
  0
LINE
  5
BC
330
17
100
AcDbEntity
  8
FoilLayer
100
AcDbLine
 10
-369.14098010765446
 20
23.01323751061881
 30
0.0
 11
-370.39475021562544
 21
21.48442392469617
 31
0.0
  0
LINE
  5
BD
330
17
100
AcDbEntity
  8
FoilLayer
100
AcDbLine
 10
-370.39475021562544
 20
21.48442392469617
 30
0.0
 11
-371.5507664602616
 21
19.998905672062335
 31
0.0
  0
LINE
  5
BE
330
17
100
AcDbEntity
  8
FoilLayer
100
AcDbLine
 10
-371.5507664602616
 20
19.998905672062335
 30
0.0
 11
-372.6176846872753
 21
18.554249747552582
 31
0.0
  0
LINE
  5
BF
330
17
100
AcDbEntity
  8
FoilLayer
100
AcDbLine
 10
-372.6176846872753
 20
18.554249747552582
 30
0.0
 11
-373.6014006427471
 21
17.152773930955313
 31
0.0
  0
LINE
  5
C0
330
17
100
AcDbEntity
  8
FoilLayer
100
AcDbLine
 10
-373.6014006427471
 20
17.152773930955313
 30
0.0
 11
-374.5038798247759
 21
15.794634937741058
 31
0.0
  0
LINE
  5
C1
330
17
100
AcDbEntity
  8
FoilLayer
100
AcDbLine
 10
-374.5038798247759
 20
15.794634937741058
 30
0.0
 11
-375.33024811264744
 21
14.467452509262316
 31
0.0
  0
LINE
  5
C2
330
17
100
AcDbEntity
  8
FoilLayer
100
AcDbLine
 10
-375.33024811264744
 20
14.467452509262316
 30
0.0
 11
-376.09272712700545
 21
13.162773949902183
 31
0.0
  0
LINE
  5
C3
330
17
100
AcDbEntity
  8
FoilLayer
100
AcDbLine
 10
-376.09272712700545
 20
13.162773949902183
 30
0.0
 11
-376.7969687164135
 21
11.901130810082737
 31
0.0
  0
LINE
  5
C4
330
17
100
AcDbEntity
  8
FoilLayer
100
AcDbLine
 10
-376.7969687164135
 20
11.901130810082737
 30
0.0
 11
-377.43157013464275
 21
10.69960783470081
 31
0.0
  0
LINE
  5
C5
330
17
100
AcDbEntity
  8
FoilLayer
100
AcDbLine
 10
-377.43157013464275
 20
10.69960783470081
 30
0.0
 11
-377.98945665953886
 21
9.523283701284868
 31
0.0
  0
LINE
  5
C6
330
17
100
AcDbEntity
  8
FoilLayer
100
AcDbLine
 10
-377.98945665953886
 20
9.523283701284868
 30
0.0
 11
-378.4855777403528
 21
8.336187433567353
 31
0.0
  0
LINE
  5
C7
330
17
100
AcDbEntity
  8
FoilLayer
100
AcDbLine
 10
-378.4855777403528
 20
8.336187433567353
 30
0.0
 11
-378.9369029948338
 21
7.176152794050231
 31
0.0
  0
LINE
  5
C8
330
17
100
AcDbEntity
  8
FoilLayer
100
AcDbLine
 10
-378.9369029948338
 20
7.176152794050231
 30
0.0
 11
-379.33383256114735
 21
6.085196502103813
 31
0.0
  0
LINE
  5
C9
330
17
100
AcDbEntity
  8
FoilLayer
100
AcDbLine
 10
-379.33383256114735
 20
6.085196502103813
 30
0.0
 11
-379.6588415822746
 21
5.0295658709326245
 31
0.0
  0
LINE
  5
CA
330
17
100
AcDbEntity
  8
FoilLayer
100
AcDbLine
 10
-379.6588415822746
 20
5.0295658709326245
 30
0.0
 11
-379.9133324580987
 21
3.9670273561984875
 31
0.0
  0
LINE
  5
CB
330
17
100
AcDbEntity
  8
FoilLayer
100
AcDbLine
 10
-379.9133324580987
 20
3.9670273561984875
 30
0.0
 11
-380.11323126171635
 21
2.914916515701648
 31
0.0
  0
LINE
  5
CC
330
17
100
AcDbEntity
  8
FoilLayer
100
AcDbLine
 10
-380.11323126171635
 20
2.914916515701648
 30
0.0
 11
-380.26529405969757
 21
1.8995296687483088
 31
0.0
  0
LINE
  5
CD
330
17
100
AcDbEntity
  8
FoilLayer
100
AcDbLine
 10
-380.26529405969757
 20
1.8995296687483088
 30
0.0
 11
-380.36436908714893
 21
0.9158478110900999
 31
0.0
  0
LINE
  5
CE
330
17
100
AcDbEntity
  8
FoilLayer
100
AcDbLine
 10
-380.36436908714893
 20
0.9158478110900999
 30
0.0
 11
-380.40789473684214
 21
-0.0634475617866294
 31
0.0
  0
LINE
  5
CF
330
17
100
AcDbEntity
  8
FoilLayer
100
AcDbLine
 10
-380.40789473684214
 20
-0.0634475617866294
 30
0.0
 11
-380.39843281785915
 21
-0.9721564257081877
 31
0.0
  0
LINE
  5
D0
330
17
100
AcDbEntity
  8
FoilLayer
100
AcDbLine
 10
-380.39843281785915
 20
-0.9721564257081877
 30
0.0
 11
-380.3294459202687
 21
-1.8867229523652864
 31
0.0
  0
LINE
  5
D1
330
17
100
AcDbEntity
  8
FoilLayer
100
AcDbLine
 10
-380.3294459202687
 20
-1.8867229523652864
 30
0.0
 11
-380.1848268229842
 21
-2.799939944562234
 31
0.0
  0
LINE
  5
D2
330
17
100
AcDbEntity
  8
FoilLayer
100
AcDbLine
 10
-380.1848268229842
 20
-2.799939944562234
 30
0.0
 11
-379.95536134639036
 21
-3.7184752148202462
 31
0.0
  0
LINE
  5
D3
330
17
100
AcDbEntity
  8
FoilLayer
100
AcDbLine
 10
-379.95536134639036
 20
-3.7184752148202462
 30
0.0
 11
-379.64294989075194
 21
-4.636459217513351
 31
0.0
  0
LINE
  5
D4
330
17
100
AcDbEntity
  8
FoilLayer
100
AcDbLine
 10
-379.64294989075194
 20
-4.636459217513351
 30
0.0
 11
-379.2504329631053
 21
-5.5459416907925805
 31
0.0
  0
LINE
  5
D5
330
17
100
AcDbEntity
  8
FoilLayer
100
AcDbLine
 10
-379.2504329631053
 20
-5.5459416907925805
 30
0.0
 11
-378.7779830917083
 21
-6.440719636313489
 31
0.0
  0
LINE
  5
D6
330
17
100
AcDbEntity
  8
FoilLayer
100
AcDbLine
 10
-378.7779830917083
 20
-6.440719636313489
 30
0.0
 11
-378.2247020246974
 21
-7.314649521685231
 31
0.0
  0
LINE
  5
D7
330
17
100
AcDbEntity
  8
FoilLayer
100
AcDbLine
 10
-378.2247020246974
 20
-7.314649521685231
 30
0.0
 11
-377.5828225687998
 21
-8.168272300893726
 31
0.0
  0
LINE
  5
D8
330
17
100
AcDbEntity
  8
FoilLayer
100
AcDbLine
 10
-377.5828225687998
 20
-8.168272300893726
 30
0.0
 11
-376.84895070204084
 21
-9.00345737843269
 31
0.0
  0
LINE
  5
D9
330
17
100
AcDbEntity
  8
FoilLayer
100
AcDbLine
 10
-376.84895070204084
 20
-9.00345737843269
 30
0.0
 11
-376.0301869392601
 21
-9.81842303534226
 31
0.0
  0
LINE
  5
DA
330
17
100
AcDbEntity
  8
FoilLayer
100
AcDbLine
 10
-376.0301869392601
 20
-9.81842303534226
 30
0.0
 11
-375.131511397548
 21
-10.611566365564899
 31
0.0
  0
LINE
  5
DB
330
17
100
AcDbEntity
  8
FoilLayer
100
AcDbLine
 10
-375.131511397548
 20
-10.611566365564899
 30
0.0
 11
-374.1552126533407
 21
-11.381108475962398
 31
0.0
  0
LINE
  5
DC
330
17
100
AcDbEntity
  8
FoilLayer
100
AcDbLine
 10
-374.1552126533407
 20
-11.381108475962398
 30
0.0
 11
-373.101331546433
 21
-12.124931483556374
 31
0.0
  0
LINE
  5
DD
330
17
100
AcDbEntity
  8
FoilLayer
100
AcDbLine
 10
-373.101331546433
 20
-12.124931483556374
 30
0.0
 11
-371.9656530439761
 21
-12.841745365564684
 31
0.0
  0
LINE
  5
DE
330
17
100
AcDbEntity
  8
FoilLayer
100
AcDbLine
 10
-371.9656530439761
 20
-12.841745365564684
 30
0.0
 11
-370.7435774497888
 21
-13.531582415892945
 31
0.0
  0
LINE
  5
DF
330
17
100
AcDbEntity
  8
FoilLayer
100
AcDbLine
 10
-370.7435774497888
 20
-13.531582415892945
 30
0.0
 11
-369.42968074411885
 21
-14.196364281987448
 31
0.0
  0
LINE
  5
E0
330
17
100
AcDbEntity
  8
FoilLayer
100
AcDbLine
 10
-369.42968074411885
 20
-14.196364281987448
 30
0.0
 11
-368.0196397580012
 21
-14.840287813328773
 31
0.0
  0
LINE
  5
E1
330
17
100
AcDbEntity
  8
FoilLayer
100
AcDbLine
 10
-368.0196397580012
 20
-14.840287813328773
 30
0.0
 11
-366.511392116433
 21
-15.469167739070917
 31
0.0
  0
LINE
  5
E2
330
17
100
AcDbEntity
  8
FoilLayer
100
AcDbLine
 10
-366.511392116433
 20
-15.469167739070917
 30
0.0
 11
-364.9034186240244
 21
-16.088330519132512
 31
0.0
  0
LINE
  5
E3
330
17
100
AcDbEntity
  8
FoilLayer
100
AcDbLine
 10
-364.9034186240244
 20
-16.088330519132512
 30
0.0
 11
-363.1915766340664
 21
-16.701638814444593
 31
0.0
  0
LINE
  5
E4
330
17
100
AcDbEntity
  8
FoilLayer
100
AcDbLine
 10
-363.1915766340664
 20
-16.701638814444593
 30
0.0
 11
-361.3696934346483
 21
-17.311602705748665
 31
0.0
  0
LINE
  5
E5
330
17
100
AcDbEntity
  8
FoilLayer
100
AcDbLine
 10
-361.3696934346483
 20
-17.311602705748665
 30
0.0
 11
-359.4303485203684
 21
-17.919458181214278
 31
0.0
  0
LINE
  5
E6
330
17
100
AcDbEntity
  8
FoilLayer
100
AcDbLine
 10
-359.4303485203684
 20
-17.919458181214278
 30
0.0
 11
-357.3659187213252
 21
-18.524123833499466
 31
0.0
  0
LINE
  5
E7
330
17
100
AcDbEntity
  8
FoilLayer
100
AcDbLine
 10
-357.3659187213252
 20
-18.524123833499466
 30
0.0
 11
-355.1629090703933
 21
-19.120752913004964
 31
0.0
  0
LINE
  5
E8
330
17
100
AcDbEntity
  8
FoilLayer
100
AcDbLine
 10
-355.1629090703933
 20
-19.120752913004964
 30
0.0
 11
-352.80013699519907
 21
-19.704803192156245
 31
0.0
  0
LINE
  5
E9
330
17
100
AcDbEntity
  8
FoilLayer
100
AcDbLine
 10
-352.80013699519907
 20
-19.704803192156245
 30
0.0
 11
-350.25756441912495
 21
-20.278368160953413
 31
0.0
  0
LINE
  5
EA
330
17
100
AcDbEntity
  8
FoilLayer
100
AcDbLine
 10
-350.25756441912495
 20
-20.278368160953413
 30
0.0
 11
-347.51904119761844
 21
-20.84723436144862
 31
0.0
  0
LINE
  5
EB
330
17
100
AcDbEntity
  8
FoilLayer
100
AcDbLine
 10
-347.51904119761844
 20
-20.84723436144862
 30
0.0
 11
-344.56698614487846
 21
-21.41554287968563
 31
0.0
  0
LINE
  5
EC
330
17
100
AcDbEntity
  8
FoilLayer
100
AcDbLine
 10
-344.56698614487846
 20
-21.41554287968563
 30
0.0
 11
-341.38183089719985
 21
-21.984949631740815
 31
0.0
  0
LINE
  5
ED
330
17
100
AcDbEntity
  8
FoilLayer
100
AcDbLine
 10
-341.38183089719985
 20
-21.984949631740815
 30
0.0
 11
-337.94377215241576
 21
-22.551434459713594
 31
0.0
  0
LINE
  5
EE
330
17
100
AcDbEntity
  8
FoilLayer
100
AcDbLine
 10
-337.94377215241576
 20
-22.551434459713594
 30
0.0
 11
-334.2278572153077
 21
-23.10426122791155
 31
0.0
  0
LINE
  5
EF
330
17
100
AcDbEntity
  8
FoilLayer
100
AcDbLine
 10
-334.2278572153077
 20
-23.10426122791155
 30
0.0
 11
-330.20401113506387
 21
-23.633144613970373
 31
0.0
  0
LINE
  5
F0
330
17
100
AcDbEntity
  8
FoilLayer
100
AcDbLine
 10
-330.20401113506387
 20
-23.633144613970373
 30
0.0
 11
-325.8379149300066
 21
-24.13077096199973
 31
0.0
  0
LINE
  5
F1
330
17
100
AcDbEntity
  8
FoilLayer
100
AcDbLine
 10
-325.8379149300066
 20
-24.13077096199973
 30
0.0
 11
-321.09126705458425
 21
-24.59508563170774
 31
0.0
  0
LINE
  5
F2
330
17
100
AcDbEntity
  8
FoilLayer
100
AcDbLine
 10
-321.09126705458425
 20
-24.59508563170774
 30
0.0
 11
-315.9350264376317
 21
-25.03417088431515
 31
0.0
  0
LINE
  5
F3
330
17
100
AcDbEntity
  8
FoilLayer
100
AcDbLine
 10
-315.9350264376317
 20
-25.03417088431515
 30
0.0
 11
-310.3628942595502
 21
-25.453595307907303
 31
0.0
  0
LINE
  5
F4
330
17
100
AcDbEntity
  8
FoilLayer
100
AcDbLine
 10
-310.3628942595502
 20
-25.453595307907303
 30
0.0
 11
-304.3807809803683
 21
-25.841909627257518
 31
0.0
  0
LINE
  5
F5
330
17
100
AcDbEntity
  8
FoilLayer
100
AcDbLine
 10
-304.3807809803683
 20
-25.841909627257518
 30
0.0
 11
-297.9911550787147
 21
-26.182163787105615
 31
0.0
  0
LINE
  5
F6
330
17
100
AcDbEntity
  8
FoilLayer
100
AcDbLine
 10
-297.9911550787147
 20
-26.182163787105615
 30
0.0
 11
-291.1976701967127
 21
-26.465950248696203
 31
0.0
  0
LINE
  5
F7
330
17
100
AcDbEntity
  8
FoilLayer
100
AcDbLine
 10
-291.1976701967127
 20
-26.465950248696203
 30
0.0
 11
-284.010760794129
 21
-26.693344755779073
 31
0.0
  0
LINE
  5
F8
330
17
100
AcDbEntity
  8
FoilLayer
100
AcDbLine
 10
-284.010760794129
 20
-26.693344755779073
 30
0.0
 11
-276.45973107147205
 21
-26.873321131558683
 31
0.0
  0
LINE
  5
F9
330
17
100
AcDbEntity
  8
FoilLayer
100
AcDbLine
 10
-276.45973107147205
 20
-26.873321131558683
 30
0.0
 11
-268.60998271739214
 21
-27.0148506895329
 31
0.0
  0
LINE
  5
FA
330
17
100
AcDbEntity
  8
FoilLayer
100
AcDbLine
 10
-268.60998271739214
 20
-27.0148506895329
 30
0.0
 11
-260.5428818869723
 21
-27.113036199063274
 31
0.0
  0
LINE
  5
FB
330
17
100
AcDbEntity
  8
FoilLayer
100
AcDbLine
 10
-260.5428818869723
 20
-27.113036199063274
 30
0.0
 11
-252.31837890168785
 21
-27.154476762001643
 31
0.0
  0
LINE
  5
FC
330
17
100
AcDbEntity
  8
FoilLayer
100
AcDbLine
 10
-252.31837890168785
 20
-27.154476762001643
 30
0.0
 11
-243.9624897221598
 21
-27.124242569946038
 31
0.0
  0
LINE
  5
FD
330
17
100
AcDbEntity
  8
FoilLayer
100
AcDbLine
 10
-243.9624897221598
 20
-27.124242569946038
 30
0.0
 11
-235.45575416907437
 21
-27.014637442205313
 31
0.0
  0
LINE
  5
FE
330
17
100
AcDbEntity
  8
FoilLayer
100
AcDbLine
 10
-235.45575416907437
 20
-27.014637442205313
 30
0.0
 11
-226.76929457723085
 21
-26.8394199814738
 31
0.0
  0
LINE
  5
FF
330
17
100
AcDbEntity
  8
FoilLayer
100
AcDbLine
 10
-226.76929457723085
 20
-26.8394199814738
 30
0.0
 11
-217.92393523806635
 21
-26.620423433643065
 31
0.0
  0
LINE
  5
100
330
17
100
AcDbEntity
  8
FoilLayer
100
AcDbLine
 10
-217.92393523806635
 20
-26.620423433643065
 30
0.0
 11
-208.9584718645874
 21
-26.36113249113206
 31
0.0
  0
LINE
  5
101
330
17
100
AcDbEntity
  8
FoilLayer
100
AcDbLine
 10
-208.9584718645874
 20
-26.36113249113206
 30
0.0
 11
-199.87783294803083
 21
-26.059032373172993
 31
0.0
  0
LINE
  5
102
330
17
100
AcDbEntity
  8
FoilLayer
100
AcDbLine
 10
-199.87783294803083
 20
-26.059032373172993
 30
0.0
 11
-190.68106187898655
 21
-25.72365864868254
 31
0.0
  0
LINE
  5
103
330
17
100
AcDbEntity
  8
FoilLayer
100
AcDbLine
 10
-190.68106187898655
 20
-25.72365864868254
 30
0.0
 11
-181.39743470714484
 21
-25.369522593944282
 31
0.0
  0
LINE
  5
104
330
17
100
AcDbEntity
  8
FoilLayer
100
AcDbLine
 10
-181.39743470714484
 20
-25.369522593944282
 30
0.0
 11
-178.28267881758683
 21
-25.246925203597556
 31
0.0
  0
LINE
  5
105
330
17
100
AcDbEntity
  8
FoilLayer
100
AcDbLine
 10
-178.28267881758683
 20
-25.246925203597556
 30
0.0
 11
-178.24138259264447
 21
-26.29611280446096
 31
0.0
  0
LINE
  5
106
330
17
100
AcDbEntity
  8
FoilLayer
100
AcDbLine
 10
-178.24138259264447
 20
-26.29611280446096
 30
0.0
 11
-172.02919855765956
 21
-26.051600704437803
 31
0.0
  0
LINE
  5
107
330
17
100
AcDbEntity
  8
FoilLayer
100
AcDbLine
 10
-172.02919855765956
 20
-26.051600704437803
 30
0.0
 11
-162.69724336606006
 21
-25.66832510745566
 31
0.0
  0
LINE
  5
108
330
17
100
AcDbEntity
  8
FoilLayer
100
AcDbLine
 10
-162.69724336606006
 20
-25.66832510745566
 30
0.0
 11
-153.37147789613525
 21
-25.257162307386224
 31
0.0
  0
LINE
  5
109
330
17
100
AcDbEntity
  8
FoilLayer
100
AcDbLine
 10
-153.37147789613525
 20
-25.257162307386224
 30
0.0
 11
-144.02451409939798
 21
-24.81095032189147
 31
0.0
  0
LINE
  5
10A
330
17
100
AcDbEntity
  8
FoilLayer
100
AcDbLine
 10
-144.02451409939798
 20
-24.81095032189147
 30
0.0
 11
-134.63191404290777
 21
-24.33711509343313
 31
0.0
  0
LINE
  5
10B
330
17
100
AcDbEntity
  8
FoilLayer
100
AcDbLine
 10
-134.63191404290777
 20
-24.33711509343313
 30
0.0
 11
-125.19965620703852
 21
-23.846667647755094
 31
0.0
  0
LINE
  5
10C
330
17
100
AcDbEntity
  8
FoilLayer
100
AcDbLine
 10
-125.19965620703852
 20
-23.846667647755094
 30
0.0
 11
-115.75002015648556
 21
-23.345840276153528
 31
0.0
  0
LINE
  5
10D
330
17
100
AcDbEntity
  8
FoilLayer
100
AcDbLine
 10
-115.75002015648556
 20
-23.345840276153528
 30
0.0
 11
-106.30986939884366
 21
-22.83312757143698
 31
0.0
  0
LINE
  5
10E
330
17
100
AcDbEntity
  8
FoilLayer
100
AcDbLine
 10
-106.30986939884366
 20
-22.83312757143698
 30
0.0
 11
-96.88246992568577
 21
-22.297720236162085
 31
0.0
  0
LINE
  5
10F
330
17
100
AcDbEntity
  8
FoilLayer
100
AcDbLine
 10
-96.88246992568577
 20
-22.297720236162085
 30
0.0
 11
-87.43813796072016
 21
-21.73316934900485
 31
0.0
  0
LINE
  5
110
330
17
100
AcDbEntity
  8
FoilLayer
100
AcDbLine
 10
-87.43813796072016
 20
-21.73316934900485
 30
0.0
 11
-77.9504831309531
 21
-21.14474832093003
 31
0.0
  0
LINE
  5
111
330
17
100
AcDbEntity
  8
FoilLayer
100
AcDbLine
 10
-77.9504831309531
 20
-21.14474832093003
 30
0.0
 11
-68.41906590630646
 21
-20.546100442334136
 31
0.0
  0
LINE
  5
112
330
17
100
AcDbEntity
  8
FoilLayer
100
AcDbLine
 10
-68.41906590630646
 20
-20.546100442334136
 30
0.0
 11
-58.8660760342176
 21
-19.953157055061872
 31
0.0
  0
LINE
  5
113
330
17
100
AcDbEntity
  8
FoilLayer
100
AcDbLine
 10
-58.8660760342176
 20
-19.953157055061872
 30
0.0
 11
-49.29123493830207
 21
-19.36554994215854
 31
0.0
  0
LINE
  5
114
330
17
100
AcDbEntity
  8
FoilLayer
100
AcDbLine
 10
-49.29123493830207
 20
-19.36554994215854
 30
0.0
 11
-39.70687524447044
 21
-18.77000928184269
 31
0.0
  0
LINE
  5
115
330
17
100
AcDbEntity
  8
FoilLayer
100
AcDbLine
 10
-39.70687524447044
 20
-18.77000928184269
 30
0.0
 11
-30.099780306115065
 21
-18.162328861343198
 31
0.0
  0
LINE
  5
116
330
17
100
AcDbEntity
  8
FoilLayer
100
AcDbLine
 10
-30.099780306115065
 20
-18.162328861343198
 30
0.0
 11
-20.46960035943033
 21
-17.549539051597037
 31
0.0
  0
LINE
  5
117
330
17
100
AcDbEntity
  8
FoilLayer
100
AcDbLine
 10
-20.46960035943033
 20
-17.549539051597037
 30
0.0
 11
-10.831664733030266
 21
-16.938473170220632
 31
0.0
  0
LINE
  5
118
330
17
100
AcDbEntity
  8
FoilLayer
100
AcDbLine
 10
-10.831664733030266
 20
-16.938473170220632
 30
0.0
 11
-1.1910535525532282
 21
-16.33198856143737
 31
0.0
  0
LINE
  5
119
330
17
100
AcDbEntity
  8
FoilLayer
100
AcDbLine
 10
-1.1910535525532282
 20
-16.33198856143737
 30
0.0
 11
8.451879847928922
 21
-15.730705587402921
 31
0.0
  0
LINE
  5
11A
330
17
100
AcDbEntity
  8
FoilLayer
100
AcDbLine
 10
8.451879847928922
 20
-15.730705587402921
 30
0.0
 11
18.0939871392452
 21
-15.13219207649113
 31
0.0
  0
LINE
  5
11B
330
17
100
AcDbEntity
  8
FoilLayer
100
AcDbLine
 10
18.0939871392452
 20
-15.13219207649113
 30
0.0
 11
27.727086929769712
 21
-14.530129920681013
 31
0.0
  0
LINE
  5
11C
330
17
100
AcDbEntity
  8
FoilLayer
100
AcDbLine
 10
27.727086929769712
 20
-14.530129920681013
 30
0.0
 11
37.35877450500885
 21
-13.918684781142836
 31
0.0
  0
LINE
  5
11D
330
17
100
AcDbEntity
  8
FoilLayer
100
AcDbLine
 10
37.35877450500885
 20
-13.918684781142836
 30
0.0
 11
46.9986853876257
 21
-13.301919534720234
 31
0.0
  0
LINE
  5
11E
330
17
100
AcDbEntity
  8
FoilLayer
100
AcDbLine
 10
46.9986853876257
 20
-13.301919534720234
 30
0.0
 11
56.63811379469672
 21
-12.688608855925091
 31
0.0
  0
LINE
  5
11F
330
17
100
AcDbEntity
  8
FoilLayer
100
AcDbLine
 10
56.63811379469672
 20
-12.688608855925091
 30
0.0
 11
66.27880437442826
 21
-12.081412736628256
 31
0.0
  0
LINE
  5
120
330
17
100
AcDbEntity
  8
FoilLayer
100
AcDbLine
 10
66.27880437442826
 20
-12.081412736628256
 30
0.0
 11
75.92206268937764
 21
-11.47891914357108
 31
0.0
  0
LINE
  5
121
330
17
100
AcDbEntity
  8
FoilLayer
100
AcDbLine
 10
75.92206268937764
 20
-11.47891914357108
 30
0.0
 11
85.56294203434732
 21
-10.875320435965765
 31
0.0
  0
LINE
  5
122
330
17
100
AcDbEntity
  8
FoilLayer
100
AcDbLine
 10
85.56294203434732
 20
-10.875320435965765
 30
0.0
 11
95.19872320058789
 21
-10.26561179667641
 31
0.0
  0
LINE
  5
123
330
17
100
AcDbEntity
  8
FoilLayer
100
AcDbLine
 10
95.19872320058789
 20
-10.26561179667641
 30
0.0
 11
104.83557472447978
 21
-9.649273721731292
 31
0.0
  0
LINE
  5
124
330
17
100
AcDbEntity
  8
FoilLayer
100
AcDbLine
 10
104.83557472447978
 20
-9.649273721731292
 30
0.0
 11
114.47126901334002
 21
-9.02976131971763
 31
0.0
  0
LINE
  5
125
330
17
100
AcDbEntity
  8
FoilLayer
100
AcDbLine
 10
114.47126901334002
 20
-9.02976131971763
 30
0.0
 11
124.09751408158968
 21
-8.413391710943586
 31
0.0
  0
LINE
  5
126
330
17
100
AcDbEntity
  8
FoilLayer
100
AcDbLine
 10
124.09751408158968
 20
-8.413391710943586
 30
0.0
 11
133.71193464727395
 21
-7.80516404712064
 31
0.0
  0
LINE
  5
127
330
17
100
AcDbEntity
  8
FoilLayer
100
AcDbLine
 10
133.71193464727395
 20
-7.80516404712064
 30
0.0
 11
143.31930658547975
 21
-7.206714957468533
 31
0.0
  0
LINE
  5
128
330
17
100
AcDbEntity
  8
FoilLayer
100
AcDbLine
 10
143.31930658547975
 20
-7.206714957468533
 30
0.0
 11
152.92504136629015
 21
-6.617234978209405
 31
0.0
  0
LINE
  5
129
330
17
100
AcDbEntity
  8
FoilLayer
100
AcDbLine
 10
152.92504136629015
 20
-6.617234978209405
 30
0.0
 11
162.52904174517204
 21
-6.034375119670551
 31
0.0
  0
LINE
  5
12A
330
17
100
AcDbEntity
  8
FoilLayer
100
AcDbLine
 10
162.52904174517204
 20
-6.034375119670551
 30
0.0
 11
172.1234916906064
 21
-5.458535185629428
 31
0.0
  0
LINE
  5
12B
330
17
100
AcDbEntity
  8
FoilLayer
100
AcDbLine
 10
172.1234916906064
 20
-5.458535185629428
 30
0.0
 11
181.70508572298257
 21
-4.892563911024902
 31
0.0
  0
LINE
  5
12C
330
17
100
AcDbEntity
  8
FoilLayer
100
AcDbLine
 10
181.70508572298257
 20
-4.892563911024902
 30
0.0
 11
191.2781471867517
 21
-4.340029624145387
 31
0.0
  0
LINE
  5
12D
330
17
100
AcDbEntity
  8
FoilLayer
100
AcDbLine
 10
191.2781471867517
 20
-4.340029624145387
 30
0.0
 11
200.8564257757111
 21
-3.8027826892518752
 31
0.0
  0
LINE
  5
12E
330
17
100
AcDbEntity
  8
FoilLayer
100
AcDbLine
 10
200.8564257757111
 20
-3.8027826892518752
 30
0.0
 11
210.4568469017883
 21
-3.2760458540184416
 31
0.0
  0
LINE
  5
12F
330
17
100
AcDbEntity
  8
FoilLayer
100
AcDbLine
 10
210.4568469017883
 20
-3.2760458540184416
 30
0.0
 11
220.07690389449868
 21
-2.7521783616572195
 31
0.0
  0
LINE
  5
130
330
17
100
AcDbEntity
  8
FoilLayer
100
AcDbLine
 10
220.07690389449868
 20
-2.7521783616572195
 30
0.0
 11
229.7008462283422
 21
-2.2250623847108404
 31
0.0
  0
LINE
  5
131
330
17
100
AcDbEntity
  8
FoilLayer
100
AcDbLine
 10
229.7008462283422
 20
-2.2250623847108404
 30
0.0
 11
239.32765481923076
 21
-1.6907036405483664
 31
0.0
  0
LINE
  5
132
330
17
100
AcDbEntity
  8
FoilLayer
100
AcDbLine
 10
239.32765481923076
 20
-1.6907036405483664
 30
0.0
 11
248.9557728975006
 21
-1.1538788838443073
 31
0.0
  0
LINE
  5
133
330
17
100
AcDbEntity
  8
FoilLayer
100
AcDbLine
 10
248.9557728975006
 20
-1.1538788838443073
 30
0.0
 11
258.5755806833584
 21
-0.6235644432217471
 31
0.0
  0
LINE
  5
134
330
17
100
AcDbEntity
  8
FoilLayer
100
AcDbLine
 10
258.5755806833584
 20
-0.6235644432217471
 30
0.0
 11
268.1923791176527
 21
-0.1025210066070637
 31
0.0
  0
LINE
  5
135
330
17
100
AcDbEntity
  8
FoilLayer
100
AcDbLine
 10
268.1923791176527
 20
-0.1025210066070637
 30
0.0
 11
277.8118969789153
 21
0.4107643664296983
 31
0.0
  0
LINE
  5
136
330
17
100
AcDbEntity
  8
FoilLayer
100
AcDbLine
 10
277.8118969789153
 20
0.4107643664296983
 30
0.0
 11
287.4288819699007
 21
0.9232193488364112
 31
0.0
  0
LINE
  5
137
330
17
100
AcDbEntity
  8
FoilLayer
100
AcDbLine
 10
287.4288819699007
 20
0.9232193488364112
 30
0.0
 11
297.0333464326682
 21
1.4405794513799628
 31
0.0
  0
LINE
  5
138
330
17
100
AcDbEntity
  8
FoilLayer
100
AcDbLine
 10
297.0333464326682
 20
1.4405794513799628
 30
0.0
 11
306.62095851116015
 21
1.9559271843826556
 31
0.0
  0
LINE
  5
139
330
17
100
AcDbEntity
  8
FoilLayer
100
AcDbLine
 10
306.62095851116015
 20
1.9559271843826556
 30
0.0
 11
316.18295359765153
 21
2.458964291409708
 31
0.0
  0
LINE
  5
13A
330
17
100
AcDbEntity
  8
FoilLayer
100
AcDbLine
 10
316.18295359765153
 20
2.458964291409708
 30
0.0
 11
325.7307064690155
 21
2.944993256456355
 31
0.0
  0
LINE
  5
13B
330
17
100
AcDbEntity
  8
FoilLayer
100
AcDbLine
 10
325.7307064690155
 20
2.944993256456355
 30
0.0
 11
335.2819264409856
 21
3.4146050168986655
 31
0.0
  0
LINE
  5
13C
330
17
100
AcDbEntity
  8
FoilLayer
100
AcDbLine
 10
335.2819264409856
 20
3.4146050168986655
 30
0.0
 11
344.8426447290147
 21
3.8766668411790683
 31
0.0
  0
LINE
  5
13D
330
17
100
AcDbEntity
  8
FoilLayer
100
AcDbLine
 10
344.8426447290147
 20
3.8766668411790683
 30
0.0
 11
354.38947601507465
 21
4.335982035639317
 31
0.0
  0
LINE
  5
13E
330
17
100
AcDbEntity
  8
FoilLayer
100
AcDbLine
 10
354.38947601507465
 20
4.335982035639317
 30
0.0
 11
363.8920076554329
 21
4.789715055067149
 31
0.0
  0
LINE
  5
13F
330
17
100
AcDbEntity
  8
FoilLayer
100
AcDbLine
 10
363.8920076554329
 20
4.789715055067149
 30
0.0
 11
373.327180571213
 21
5.228200905027268
 31
0.0
  0
LINE
  5
140
330
17
100
AcDbEntity
  8
FoilLayer
100
AcDbLine
 10
373.327180571213
 20
5.228200905027268
 30
0.0
 11
382.69671828061263
 21
5.637664646763934
 31
0.0
  0
LINE
  5
141
330
17
100
AcDbEntity
  8
FoilLayer
100
AcDbLine
 10
382.69671828061263
 20
5.637664646763934
 30
0.0
 11
392.0294295862546
 21
6.016443889665362
 31
0.0
  0
LINE
  5
142
330
17
100
AcDbEntity
  8
FoilLayer
100
AcDbLine
 10
392.0294295862546
 20
6.016443889665362
 30
0.0
 11
401.3208512271048
 21
6.378525821421473
 31
0.0
  0
LINE
  5
143
330
17
100
AcDbEntity
  8
FoilLayer
100
AcDbLine
 10
401.3208512271048
 20
6.378525821421473
 30
0.0
 11
410.52260709154865
 21
6.718956640979424
 31
0.0
  0
LINE
  5
144
330
17
100
AcDbEntity
  8
FoilLayer
100
AcDbLine
 10
410.52260709154865
 20
6.718956640979424
 30
0.0
 11
419.6310663989114
 21
7.0120339017706
 31
0.0
  0
LINE
  5
145
330
17
100
AcDbEntity
  8
FoilLayer
100
AcDbLine
 10
419.6310663989114
 20
7.0120339017706
 30
0.0
 11
428.6931175108038
 21
7.249887048970846
 31
0.0
  0
LINE
  5
146
330
17
100
AcDbEntity
  8
FoilLayer
100
AcDbLine
 10
428.6931175108038
 20
7.249887048970846
 30
0.0
 11
437.73883897197237
 21
7.443307813182929
 31
0.0
  0
LINE
  5
147
330
17
100
AcDbEntity
  8
FoilLayer
100
AcDbLine
 10
437.73883897197237
 20
7.443307813182929
 30
0.0
 11
446.75037653886517
 21
7.613275193881561
 31
0.0
  0
LINE
  5
148
330
17
100
AcDbEntity
  8
FoilLayer
100
AcDbLine
 10
446.75037653886517
 20
7.613275193881561
 30
0.0
 11
455.68257770722374
 21
7.788866910493239
 31
0.0
  0
LINE
  5
149
330
17
100
AcDbEntity
  8
FoilLayer
100
AcDbLine
 10
455.68257770722374
 20
7.788866910493239
 30
0.0
 11
464.4470940476422
 21
7.944337922516316
 31
0.0
  0
LINE
  5
14A
330
17
100
AcDbEntity
  8
FoilLayer
100
AcDbLine
 10
464.4470940476422
 20
7.944337922516316
 30
0.0
 11
473.0421313097043
 21
8.003514013966011
 31
0.0
  0
LINE
  5
14B
330
17
100
AcDbEntity
  8
FoilLayer
100
AcDbLine
 10
473.0421313097043
 20
8.003514013966011
 30
0.0
 11
481.6130985120704
 21
7.963998610282232
 31
0.0
  0
LINE
  5
14C
330
17
100
AcDbEntity
  8
FoilLayer
100
AcDbLine
 10
481.6130985120704
 20
7.963998610282232
 30
0.0
 11
490.1867637745732
 21
7.921635950194746
 31
0.0
  0
LINE
  5
14D
330
17
100
AcDbEntity
  8
FoilLayer
100
AcDbLine
 10
490.1867637745732
 20
7.921635950194746
 30
0.0
 11
498.6731543961018
 21
7.897066494745891
 31
0.0
  0
LINE
  5
14E
330
17
100
AcDbEntity
  8
FoilLayer
100
AcDbLine
 10
498.6731543961018
 20
7.897066494745891
 30
0.0
 11
507.045664946332
 21
7.804606662651742
 31
0.0
  0
LINE
  5
14F
330
17
100
AcDbEntity
  8
FoilLayer
100
AcDbLine
 10
507.045664946332
 20
7.804606662651742
 30
0.0
 11
515.3843039891206
 21
7.6147750357286625
 31
0.0
  0
LINE
  5
150
330
17
100
AcDbEntity
  8
FoilLayer
100
AcDbLine
 10
515.3843039891206
 20
7.6147750357286625
 30
0.0
 11
523.7020520578606
 21
7.42692145432881
 31
0.0
  0
LINE
  5
151
330
17
100
AcDbEntity
  8
FoilLayer
100
AcDbLine
 10
523.7020520578606
 20
7.42692145432881
 30
0.0
 11
531.9314777770778
 21
7.281926430060474
 31
0.0
  0
LINE
  5
152
330
17
100
AcDbEntity
  8
FoilLayer
100
AcDbLine
 10
531.9314777770778
 20
7.281926430060474
 30
0.0
 11
540.0459469092907
 21
7.0767491332006145
 31
0.0
  0
LINE
  5
153
330
17
100
AcDbEntity
  8
FoilLayer
100
AcDbLine
 10
540.0459469092907
 20
7.0767491332006145
 30
0.0
 11
548.1265926632443
 21
6.729499460462553
 31
0.0
  0
LINE
  5
154
330
17
100
AcDbEntity
  8
FoilLayer
100
AcDbLine
 10
548.1265926632443
 20
6.729499460462553
 30
0.0
 11
556.2631763192217
 21
6.313479123274
 31
0.0
  0
LINE
  5
155
330
17
100
AcDbEntity
  8
FoilLayer
100
AcDbLine
 10
556.2631763192217
 20
6.313479123274
 30
0.0
 11
564.3574642525418
 21
5.901103651123594
 31
0.0
  0
LINE
  5
156
330
17
100
AcDbEntity
  8
FoilLayer
100
AcDbLine
 10
564.3574642525418
 20
5.901103651123594
 30
0.0
 11
572.2454890629781
 21
5.459908748605272
 31
0.0
  0
LINE
  5
157
330
17
100
AcDbEntity
  8
FoilLayer
100
AcDbLine
 10
572.2454890629781
 20
5.459908748605272
 30
0.0
 11
579.9764052308376
 21
4.8645455702705345
 31
0.0
  0
LINE
  5
158
330
17
100
AcDbEntity
  8
FoilLayer
100
AcDbLine
 10
579.9764052308376
 20
4.8645455702705345
 30
0.0
 11
587.6694846813159
 21
4.187885879055839
 31
0.0
  0
LINE
  5
159
330
17
100
AcDbEntity
  8
FoilLayer
100
AcDbLine
 10
587.6694846813159
 20
4.187885879055839
 30
0.0
 11
595.2198371510169
 21
3.48163742120569
 31
0.0
  0
LINE
  5
15A
330
17
100
AcDbEntity
  8
FoilLayer
100
AcDbLine
 10
595.2198371510169
 20
3.48163742120569
 30
0.0
 11
602.5203602936642
 21
2.7855008035164737
 31
0.0
  0
LINE
  5
15B
330
17
100
AcDbEntity
  8
FoilLayer
100
AcDbLine
 10
602.5203602936642
 20
2.7855008035164737
 30
0.0
 11
609.4701610166821
 21
2.067256368989554
 31
0.0
  0
LINE
  5
15C
330
17
100
AcDbEntity
  8
FoilLayer
100
AcDbLine
 10
609.4701610166821
 20
2.067256368989554
 30
0.0
 11
616.0470079818951
 21
1.337581824568383
 31
0.0
  0
LINE
  5
15D
330
17
100
AcDbEntity
  8
FoilLayer
100
AcDbLine
 10
616.0470079818951
 20
1.337581824568383
 30
0.0
 11
622.2162927584677
 21
0.6560600095790343
 31
0.0
  0
LINE
  5
15E
330
17
100
AcDbEntity
  8
FoilLayer
100
AcDbLine
 10
622.2162927584677
 20
0.6560600095790343
 30
0.0
 11
627.9507353861582
 21
-0.011848803838626243
 31
0.0
  0
LINE
  5
15F
330
17
100
AcDbEntity
  8
FoilLayer
100
AcDbLine
 10
627.9507353861582
 20
-0.011848803838626243
 30
0.0
 11
633.2334937965732
 21
-0.6506720101640688
 31
0.0
  0
LINE
  5
160
330
17
100
AcDbEntity
  8
FoilLayer
100
AcDbLine
 10
633.2334937965732
 20
-0.6506720101640688
 30
0.0
 11
636.5009923075879
 21
-1.079936011657878
 31
0.0
  0
LINE
  5
161
330
17
100
AcDbEntity
  8
FoilLayer
100
AcDbLine
 10
636.5009923075879
 20
-1.079936011657878
 30
0.0
 11
636.3759920741259
 21
1.0997572845205945
 31
0.0
  0
LINE
  5
162
330
17
100
AcDbEntity
  8
StringerLayer
100
AcDbLine
 10
276.9733969487341
 20
92.68749905332315
 30
0.0
 11
280.8872250196296
 21
91.86169651550317
 31
0.0
  0
LINE
  5
163
330
17
100
AcDbEntity
  8
StringerLayer
100
AcDbLine
 10
280.8872250196296
 20
91.86169651550317
 30
0.0
 11
281.7130275574496
 21
95.77552458639873
 31
0.0
  0
LINE
  5
164
330
17
100
AcDbEntity
  8
StringerLayer
100
AcDbLine
 10
281.7130275574496
 20
95.77552458639873
 30
0.0
 11
277.7991994865541
 21
96.60132712421871
 31
0.0
  0
LINE
  5
165
330
17
100
AcDbEntity
  8
StringerLayer
100
AcDbLine
 10
277.7991994865541
 20
96.60132712421871
 30
0.0
 11
276.9733969487341
 21
92.68749905332315
 31
0.0
  0
LINE
  5
166
330
17
100
AcDbEntity
  8
StringerLayer
100
AcDbLine
 10
-108.33432704848684
 20
113.2338386597266
 30
0.0
 11
-104.35728354917146
 21
113.66176973426236
 31
0.0
  0
LINE
  5
167
330
17
100
AcDbEntity
  8
StringerLayer
100
AcDbLine
 10
-104.35728354917146
 20
113.66176973426236
 30
0.0
 11
-104.7852146237072
 21
117.63881323357774
 31
0.0
  0
LINE
  5
168
330
17
100
AcDbEntity
  8
StringerLayer
100
AcDbLine
 10
-104.7852146237072
 20
117.63881323357774
 30
0.0
 11
-108.76225812302259
 21
117.21088215904197
 31
0.0
  0
LINE
  5
169
330
17
100
AcDbEntity
  8
StringerLayer
100
AcDbLine
 10
-108.76225812302259
 20
117.21088215904197
 30
0.0
 11
-108.33432704848684
 21
113.2338386597266
 31
0.0
  0
LINE
  5
16A
330
17
100
AcDbEntity
  8
StringerLayer
100
AcDbLine
 10
-279.92258038076983
 20
73.84155996969014
 30
0.0
 11
-276.19798264797424
 21
75.30011121282627
 31
0.0
  0
LINE
  5
16B
330
17
100
AcDbEntity
  8
StringerLayer
100
AcDbLine
 10
-276.19798264797424
 20
75.30011121282627
 30
0.0
 11
-277.65653389111037
 21
79.02470894562185
 31
0.0
  0
LINE
  5
16C
330
17
100
AcDbEntity
  8
StringerLayer
100
AcDbLine
 10
-277.65653389111037
 20
79.02470894562185
 30
0.0
 11
-281.38113162390596
 21
77.56615770248573
 31
0.0
  0
LINE
  5
16D
330
17
100
AcDbEntity
  8
StringerLayer
100
AcDbLine
 10
-281.38113162390596
 20
77.56615770248573
 30
0.0
 11
-279.92258038076983
 21
73.84155996969014
 31
0.0
  0
LINE
  5
16E
330
17
100
AcDbEntity
  8
StringerLayer
100
AcDbLine
 10
-363.3260771763002
 20
23.54952011902104
 30
0.0
 11
-361.95075105677444
 21
25.001580057505073
 31
0.0
  0
LINE
  5
16F
330
17
100
AcDbEntity
  8
StringerLayer
100
AcDbLine
 10
-361.95075105677444
 20
25.001580057505073
 30
0.0
 11
-364.8548709337425
 21
27.75223229655656
 31
0.0
  0
LINE
  5
170
330
17
100
AcDbEntity
  8
StringerLayer
100
AcDbLine
 10
-364.8548709337425
 20
27.75223229655656
 30
0.0
 11
-366.2301970532683
 21
26.300172358072526
 31
0.0
  0
LINE
  5
171
330
17
100
AcDbEntity
  8
StringerLayer
100
AcDbLine
 10
-366.2301970532683
 20
26.300172358072526
 30
0.0
 11
-363.3260771763002
 21
23.54952011902104
 31
0.0
  0
LINE
  5
172
330
17
100
AcDbEntity
  8
StringerLayer
100
AcDbLine
 10
-368.1539032509131
 20
-10.39746595985373
 30
0.0
 11
-369.89665113604144
 21
-9.416227044563161
 31
0.0
  0
LINE
  5
173
330
17
100
AcDbEntity
  8
StringerLayer
100
AcDbLine
 10
-369.89665113604144
 20
-9.416227044563161
 30
0.0
 11
-371.85912896662256
 21
-12.901722814819893
 31
0.0
  0
LINE
  5
174
330
17
100
AcDbEntity
  8
StringerLayer
100
AcDbLine
 10
-371.85912896662256
 20
-12.901722814819893
 30
0.0
 11
-370.11638108149424
 21
-13.88296173011046
 31
0.0
  0
LINE
  5
175
330
17
100
AcDbEntity
  8
StringerLayer
100
AcDbLine
 10
-370.11638108149424
 20
-13.88296173011046
 30
0.0
 11
-368.1539032509131
 21
-10.39746595985373
 31
0.0
  0
LINE
  5
176
330
17
100
AcDbEntity
  8
StringerLayer
100
AcDbLine
 10
-227.25607341122662
 20
-22.848410248655178
 30
0.0
 11
-231.25525974786575
 21
-22.929086421339456
 31
0.0
  0
LINE
  5
177
330
17
100
AcDbEntity
  8
StringerLayer
100
AcDbLine
 10
-231.25525974786575
 20
-22.929086421339456
 30
0.0
 11
-231.17458357518146
 21
-26.928272757978572
 31
0.0
  0
LINE
  5
178
330
17
100
AcDbEntity
  8
StringerLayer
100
AcDbLine
 10
-231.17458357518146
 20
-26.928272757978572
 30
0.0
 11
-227.17539723854233
 21
-26.847596585294294
 31
0.0
  0
LINE
  5
179
330
17
100
AcDbEntity
  8
StringerLayer
100
AcDbLine
 10
-227.17539723854233
 20
-26.847596585294294
 30
0.0
 11
-227.25607341122662
 21
-22.848410248655178
 31
0.0
  0
LINE
  5
17A
330
17
100
AcDbEntity
  8
SubLayer
100
AcDbLine
 10
-381.90789473684214
 20
0.0
 30
0.0
 11
-377.90789473684214
 21
0.0
 31
0.0
  0
LINE
  5
17B
330
17
100
AcDbEntity
  8
SubLayer
100
AcDbLine
 10
74.38157894736844
 20
0.0
 30
0.0
 11
88.56578947368428
 21
0.0
 31
0.0
  0
LINE
  5
17C
330
17
100
AcDbEntity
  8
SubLayer
100
AcDbLine
 10
-54.26075738685406
 20
50.02780007678195
 30
0.0
 11
-46.28433536903869
 21
50.641552301796494
 31
0.0
  0
LINE
  5
17D
330
17
100
AcDbEntity
  8
SubLayer
100
AcDbLine
 10
46.28433536903869
 20
57.764323326855035
 30
0.0
 11
54.26075738685406
 21
58.37807555186958
 31
0.0
  0
LINE
  5
17E
330
17
100
AcDbEntity
  8
SubLayer
100
AcDbLine
 10
-3.939905689452771
 20
105.40658190493924
 30
0.0
 11
-3.326153464438222
 21
97.43015988712388
 31
0.0
  0
LINE
  5
17F
330
17
100
AcDbEntity
  8
SubLayer
100
AcDbLine
 10
3.939905689452771
 20
2.9992937237122845
 30
0.0
 11
3.326153464438222
 21
10.975715741527651
 31
0.0
  0
LINE
  5
180
330
17
100
AcDbEntity
  8
SubLayer
100
AcDbLine
 10
-52.11321382614658
 20
48.18713262858175
 30
0.0
 11
-48.1250028172389
 21
48.494008741089026
 31
0.0
  0
LINE
  5
181
330
17
100
AcDbEntity
  8
SubLayer
100
AcDbLine
 10
-48.1250028172389
 20
48.494008741089026
 30
0.0
 11
-48.431878929746176
 21
52.4822197499967
 31
0.0
  0
LINE
  5
182
330
17
100
AcDbEntity
  8
SubLayer
100
AcDbLine
 10
-48.431878929746176
 20
52.4822197499967
 30
0.0
 11
-52.42008993865385
 21
52.175343637489426
 31
0.0
  0
LINE
  5
183
330
17
100
AcDbEntity
  8
SubLayer
100
AcDbLine
 10
-52.42008993865385
 20
52.175343637489426
 30
0.0
 11
-52.11321382614658
 21
48.18713262858175
 31
0.0
  0
LINE
  5
184
330
17
100
AcDbEntity
  8
SubLayer
100
AcDbLine
 10
48.431878929746176
 20
55.92365587865483
 30
0.0
 11
52.42008993865385
 21
56.2305319911621
 31
0.0
  0
LINE
  5
185
330
17
100
AcDbEntity
  8
SubLayer
100
AcDbLine
 10
52.42008993865385
 20
56.2305319911621
 30
0.0
 11
52.11321382614658
 21
60.21874300006978
 31
0.0
  0
LINE
  5
186
330
17
100
AcDbEntity
  8
SubLayer
100
AcDbLine
 10
52.11321382614658
 20
60.21874300006978
 30
0.0
 11
48.1250028172389
 21
59.9118668875625
 31
0.0
  0
LINE
  5
187
330
17
100
AcDbEntity
  8
SubLayer
100
AcDbLine
 10
48.1250028172389
 20
59.9118668875625
 30
0.0
 11
48.431878929746176
 21
55.92365587865483
 31
0.0
  0
LINE
  5
188
330
17
100
AcDbEntity
  8
SubLayer
100
AcDbLine
 10
-5.473697025145699
 20
99.27082733532409
 30
0.0
 11
-1.4854860162380183
 21
99.57770344783135
 31
0.0
  0
LINE
  5
189
330
17
100
AcDbEntity
  8
SubLayer
100
AcDbLine
 10
-1.4854860162380183
 20
99.57770344783135
 30
0.0
 11
-1.792362128745293
 21
103.56591445673904
 31
0.0
  0
LINE
  5
18A
330
17
100
AcDbEntity
  8
SubLayer
100
AcDbLine
 10
-1.792362128745293
 20
103.56591445673904
 30
0.0
 11
-5.780573137652974
 21
103.25903834423177
 31
0.0
  0
LINE
  5
18B
330
17
100
AcDbEntity
  8
SubLayer
100
AcDbLine
 10
-5.780573137652974
 20
103.25903834423177
 30
0.0
 11
-5.473697025145699
 21
99.27082733532409
 31
0.0
  0
LINE
  5
18C
330
17
100
AcDbEntity
  8
SubLayer
100
AcDbLine
 10
1.792362128745293
 20
4.83996117191249
 30
0.0
 11
5.780573137652974
 21
5.146837284419765
 31
0.0
  0
LINE
  5
18D
330
17
100
AcDbEntity
  8
SubLayer
100
AcDbLine
 10
5.780573137652974
 20
5.146837284419765
 30
0.0
 11
5.473697025145699
 21
9.135048293327445
 31
0.0
  0
LINE
  5
18E
330
17
100
AcDbEntity
  8
SubLayer
100
AcDbLine
 10
5.473697025145699
 20
9.135048293327445
 30
0.0
 11
1.4854860162380183
 21
8.828172180820172
 31
0.0
  0
LINE
  5
18F
330
17
100
AcDbEntity
  8
SubLayer
100
AcDbLine
 10
1.4854860162380183
 20
8.828172180820172
 30
0.0
 11
1.792362128745293
 21
4.83996117191249
 31
0.0
  0
LINE
  5
190
330
17
100
AcDbEntity
  8
SubLayer
100
AcDbLine
 10
431.9855389438849
 20
59.07780050907816
 30
0.0
 11
435.97374995279256
 21
59.38467662158543
 31
0.0
  0
LINE
  5
191
330
17
100
AcDbEntity
  8
SubLayer
100
AcDbLine
 10
-382.0281035535903
 20
-3.5571357015635274
 30
0.0
 11
-378.03989254468263
 21
-3.250259589056253
 31
0.0
  0
LINE
  5
192
330
17
100
AcDbEntity
  8
SubLayer
100
AcDbLine
 10
-220.2224278063222
 20
8.89313251243799
 30
0.0
 11
-214.24011129296068
 21
9.353446681198903
 31
0.0
  0
LINE
  5
193
330
17
100
AcDbEntity
  8
SubLayer
100
AcDbLine
 10
268.18575769216295
 20
46.474094238823
 30
0.0
 11
274.1680742055245
 21
46.934408407583916
 31
0.0
  0
LINE
  5
194
330
17
100
AcDbEntity
  8
SubLayer
100
AcDbLine
 10
23.98166494292036
 20
27.683613375630497
 30
0.0
 11
29.963981456281886
 21
28.143927544391406
 31
0.0
  0
LINE
  5
195
330
17
100
AcDbEntity
  8
SubLayer
100
AcDbLine
 10
-215.08372598893396
 20
7.282622148618244
 30
0.0
 11
-215.39060210144123
 21
11.270833157525924
 31
0.0
  0
LINE
  5
196
330
17
100
AcDbEntity
  8
SubLayer
100
AcDbLine
 10
-215.39060210144123
 20
11.270833157525924
 30
0.0
 11
-219.37881311034891
 21
10.963957045018649
 31
0.0
  0
LINE
  5
197
330
17
100
AcDbEntity
  8
SubLayer
100
AcDbLine
 10
-219.37881311034891
 20
10.963957045018649
 30
0.0
 11
-219.07193699784165
 21
6.975746036110969
 31
0.0
  0
LINE
  5
198
330
17
100
AcDbEntity
  8
SubLayer
100
AcDbLine
 10
-219.07193699784165
 20
6.975746036110969
 30
0.0
 11
-215.08372598893396
 21
7.282622148618244
 31
0.0
  0
LINE
  5
199
330
17
100
AcDbEntity
  8
SubLayer
100
AcDbLine
 10
273.3244595095512
 20
44.86358387500326
 30
0.0
 11
273.0175833970439
 21
48.851794883910934
 31
0.0
  0
LINE
  5
19A
330
17
100
AcDbEntity
  8
SubLayer
100
AcDbLine
 10
273.0175833970439
 20
48.851794883910934
 30
0.0
 11
269.0293723881362
 21
48.54491877140366
 31
0.0
  0
LINE
  5
19B
330
17
100
AcDbEntity
  8
SubLayer
100
AcDbLine
 10
269.0293723881362
 20
48.54491877140366
 30
0.0
 11
269.33624850064353
 21
44.55670776249598
 31
0.0
  0
LINE
  5
19C
330
17
100
AcDbEntity
  8
SubLayer
100
AcDbLine
 10
269.33624850064353
 20
44.55670776249598
 30
0.0
 11
273.3244595095512
 21
44.86358387500326
 31
0.0
  0
LINE
  5
19D
330
17
100
AcDbEntity
  8
SubLayer
100
AcDbLine
 10
29.120366760308602
 20
26.073103011810748
 30
0.0
 11
28.813490647801327
 21
30.06131402071843
 31
0.0
  0
LINE
  5
19E
330
17
100
AcDbEntity
  8
SubLayer
100
AcDbLine
 10
28.813490647801327
 20
30.06131402071843
 30
0.0
 11
24.825279638893644
 21
29.754437908211155
 31
0.0
  0
LINE
  5
19F
330
17
100
AcDbEntity
  8
SubLayer
100
AcDbLine
 10
24.825279638893644
 20
29.754437908211155
 30
0.0
 11
25.13215575140092
 21
25.766226899303472
 31
0.0
  0
LINE
  5
1A0
330
17
100
AcDbEntity
  8
SubLayer
100
AcDbLine
 10
25.13215575140092
 20
25.766226899303472
 30
0.0
 11
29.120366760308602
 21
26.073103011810748
 31
0.0
  0
LINE
  5
1A1
330
17
100
AcDbEntity
  8
SubLayer
100
AcDbLine
 10
617.5464004339966
 20
6.363543453328068
 30
0.0
 11
617.8880804580598
 21
7.303359797704056
 31
0.0
  0
LINE
  5
1A2
330
17
100
AcDbEntity
  8
SubLayer
100
AcDbLine
 10
616.5224282992208
 20
0.7825502986051112
 30
0.0
 11
616.586505106822
 21
1.7804952683943454
 31
0.0
  0
LINE
  5
1A3
330
17
100
AcDbEntity
  8
SubLayer
100
AcDbLine
 10
598.3687090573678
 20
12.051522918369368
 30
0.0
 11
598.681869539673
 21
13.001223140714519
 31
0.0
  0
LINE
  5
1A4
330
17
100
AcDbEntity
  8
SubLayer
100
AcDbLine
 10
596.6114656986538
 20
2.8467039449916216
 30
0.0
 11
596.6950895469906
 21
3.8432013368544062
 31
0.0
  0
LINE
  5
1A5
330
17
100
AcDbEntity
  8
SubLayer
100
AcDbLine
 10
559.9733241609368
 20
23.278714679912543
 30
0.0
 11
560.2702762945597
 21
24.233607045751167
 31
0.0
  0
LINE
  5
1A6
330
17
100
AcDbEntity
  8
SubLayer
100
AcDbLine
 10
556.7213888932191
 20
5.789679515488077
 30
0.0
 11
556.799990570017
 21
6.786585617588244
 31
0.0
  0
LINE
  5
1A7
330
17
100
AcDbEntity
  8
SubLayer
100
AcDbLine
 10
-155.06523455753538
 20
114.26911699853133
 30
0.0
 11
-154.7583584450281
 21
110.28090598962365
 31
0.0
  0
LINE
  5
1A8
330
17
100
AcDbEntity
  8
SubLayer
100
AcDbLine
 10
-144.481265584883
 20
-23.281835500806096
 30
0.0
 11
-144.17438947237574
 21
-27.27004650971378
 31
0.0
  0
LINE
  5
1A9
330
17
100
AcDbEntity
  8
SubLayer
100
AcDbLine
 10
-146.67477840754032
 20
5.22540775128831
 30
0.0
 11
-146.21446423877939
 21
-0.7569087620732109
 31
0.0
  0
LINE
  5
1AA
330
17
100
AcDbEntity
  8
SubLayer
100
AcDbLine
 10
-153.02515979113173
 20
87.75597925089077
 30
0.0
 11
-152.5648456223708
 21
81.77366273752925
 31
0.0
  0
LINE
  5
1AB
330
17
100
AcDbEntity
  8
SubLayer
100
AcDbLine
 10
-149.84996909933602
 20
46.49069350108954
 30
0.0
 11
-149.3896549305751
 21
40.50837698772801
 31
0.0
  0
LINE
  5
1AC
330
17
100
AcDbEntity
  8
SubLayer
100
AcDbLine
 10
-148.28528877136006
 20
0.08670593390007175
 30
0.0
 11
-144.29707776245237
 21
0.3935820464073465
 31
0.0
  0
LINE
  5
1AD
330
17
100
AcDbEntity
  8
SubLayer
100
AcDbLine
 10
-144.29707776245237
 20
0.3935820464073465
 30
0.0
 11
-144.60395387495964
 21
4.381793055315027
 31
0.0
  0
LINE
  5
1AE
330
17
100
AcDbEntity
  8
SubLayer
100
AcDbLine
 10
-144.60395387495964
 20
4.381793055315027
 30
0.0
 11
-148.59216488386733
 21
4.074916942807753
 31
0.0
  0
LINE
  5
1AF
330
17
100
AcDbEntity
  8
SubLayer
100
AcDbLine
 10
-148.59216488386733
 20
4.074916942807753
 30
0.0
 11
-148.28528877136006
 21
0.08670593390007175
 31
0.0
  0
LINE
  5
1B0
330
17
100
AcDbEntity
  8
SubLayer
100
AcDbLine
 10
-154.63567015495147
 20
82.61727743350254
 30
0.0
 11
-150.6474591460438
 21
82.9241535460098
 31
0.0
  0
LINE
  5
1B1
330
17
100
AcDbEntity
  8
SubLayer
100
AcDbLine
 10
-150.6474591460438
 20
82.9241535460098
 30
0.0
 11
-150.95433525855105
 21
86.91236455491749
 31
0.0
  0
LINE
  5
1B2
330
17
100
AcDbEntity
  8
SubLayer
100
AcDbLine
 10
-150.95433525855105
 20
86.91236455491749
 30
0.0
 11
-154.94254626745874
 21
86.60548844241022
 31
0.0
  0
LINE
  5
1B3
330
17
100
AcDbEntity
  8
SubLayer
100
AcDbLine
 10
-154.94254626745874
 20
86.60548844241022
 30
0.0
 11
-154.63567015495147
 21
82.61727743350254
 31
0.0
  0
LINE
  5
1B4
330
17
100
AcDbEntity
  8
SubLayer
100
AcDbLine
 10
-151.46047946315576
 20
41.3519916837013
 30
0.0
 11
-147.47226845424808
 21
41.658867796208575
 31
0.0
  0
LINE
  5
1B5
330
17
100
AcDbEntity
  8
SubLayer
100
AcDbLine
 10
-147.47226845424808
 20
41.658867796208575
 30
0.0
 11
-147.77914456675535
 21
45.64707880511625
 31
0.0
  0
LINE
  5
1B6
330
17
100
AcDbEntity
  8
SubLayer
100
AcDbLine
 10
-147.77914456675535
 20
45.64707880511625
 30
0.0
 11
-151.76735557566303
 21
45.340202692608976
 31
0.0
  0
LINE
  5
1B7
330
17
100
AcDbEntity
  8
SubLayer
100
AcDbLine
 10
-151.76735557566303
 20
45.340202692608976
 30
0.0
 11
-151.46047946315576
 21
41.3519916837013
 31
0.0
  0
LINE
  5
1B8
330
17
100
AcDbEntity
  8
SubLayer
100
AcDbLine
 10
94.88231086333707
 20
124.55485633886212
 30
0.0
 11
95.18918697584434
 21
120.56664532995444
 31
0.0
  0
LINE
  5
1B9
330
17
100
AcDbEntity
  8
SubLayer
100
AcDbLine
 10
105.08800704506376
 20
-8.080002506870303
 30
0.0
 11
105.39488315757103
 21
-12.068213515777982
 31
0.0
  0
LINE
  5
1BA
330
17
100
AcDbEntity
  8
SubLayer
100
AcDbLine
 10
102.97014878059161
 20
19.444022014503105
 30
0.0
 11
103.43046294935252
 21
13.461705501141582
 31
0.0
  0
LINE
  5
1BB
330
17
100
AcDbEntity
  8
SubLayer
100
AcDbLine
 10
96.8467310715556
 20
99.02493732194256
 30
0.0
 11
97.3070452403165
 21
93.04262080858103
 31
0.0
  0
LINE
  5
1BC
330
17
100
AcDbEntity
  8
SubLayer
100
AcDbLine
 10
99.9084399260736
 20
59.23447966822283
 30
0.0
 11
100.3687540948345
 21
53.25216315486131
 31
0.0
  0
LINE
  5
1BD
330
17
100
AcDbEntity
  8
SubLayer
100
AcDbLine
 10
101.35963841677186
 20
14.305320197114865
 30
0.0
 11
105.34784942567954
 21
14.612196309622139
 31
0.0
  0
LINE
  5
1BE
330
17
100
AcDbEntity
  8
SubLayer
100
AcDbLine
 10
105.34784942567954
 20
14.612196309622139
 30
0.0
 11
105.04097331317227
 21
18.60040731852982
 31
0.0
  0
LINE
  5
1BF
330
17
100
AcDbEntity
  8
SubLayer
100
AcDbLine
 10
105.04097331317227
 20
18.60040731852982
 30
0.0
 11
101.05276230426459
 21
18.293531206022546
 31
0.0
  0
LINE
  5
1C0
330
17
100
AcDbEntity
  8
SubLayer
100
AcDbLine
 10
101.05276230426459
 20
18.293531206022546
 30
0.0
 11
101.35963841677186
 21
14.305320197114865
 31
0.0
  0
LINE
  5
1C1
330
17
100
AcDbEntity
  8
SubLayer
100
AcDbLine
 10
95.23622070773584
 20
93.88623550455432
 30
0.0
 11
99.22443171664352
 21
94.19311161706159
 31
0.0
  0
LINE
  5
1C2
330
17
100
AcDbEntity
  8
SubLayer
100
AcDbLine
 10
99.22443171664352
 20
94.19311161706159
 30
0.0
 11
98.91755560413625
 21
98.18132262596927
 31
0.0
  0
LINE
  5
1C3
330
17
100
AcDbEntity
  8
SubLayer
100
AcDbLine
 10
98.91755560413625
 20
98.18132262596927
 30
0.0
 11
94.92934459522857
 21
97.874446513462
 31
0.0
  0
LINE
  5
1C4
330
17
100
AcDbEntity
  8
SubLayer
100
AcDbLine
 10
94.92934459522857
 20
97.874446513462
 30
0.0
 11
95.23622070773584
 21
93.88623550455432
 31
0.0
  0
LINE
  5
1C5
330
17
100
AcDbEntity
  8
SubLayer
100
AcDbLine
 10
98.29792956225384
 20
54.095777850834594
 30
0.0
 11
102.28614057116152
 21
54.40265396334187
 31
0.0
  0
LINE
  5
1C6
330
17
100
AcDbEntity
  8
SubLayer
100
AcDbLine
 10
102.28614057116152
 20
54.40265396334187
 30
0.0
 11
101.97926445865426
 21
58.390864972249545
 31
0.0
  0
LINE
  5
1C7
330
17
100
AcDbEntity
  8
SubLayer
100
AcDbLine
 10
101.97926445865426
 20
58.390864972249545
 30
0.0
 11
97.99105344974657
 21
58.08398885974227
 31
0.0
  0
LINE
  5
1C8
330
17
100
AcDbEntity
  8
SubLayer
100
AcDbLine
 10
97.99105344974657
 20
58.08398885974227
 30
0.0
 11
98.29792956225384
 21
54.095777850834594
 31
0.0
  0
ENDSEC
  0
SECTION
  2
OBJECTS
  0
DICTIONARY
  5
A
330
0
100
AcDbDictionary
280
0
281
1
  3
ACAD_COLOR
350
B
  3
ACAD_GROUP
350
C
  3
ACAD_LAYOUT
350
D
  3
ACAD_MATERIAL
350
E
  3
ACAD_MLEADERSTYLE
350
F
  3
ACAD_MLINESTYLE
350
10
  3
ACAD_PLOTSETTINGS
350
11
  3
ACAD_PLOTSTYLENAME
350
12
  3
ACAD_SCALELIST
350
14
  3
ACAD_TABLESTYLE
350
15
  3
ACAD_VISUALSTYLE
350
16
  3
EZDXF_META
350
2D
  0
DICTIONARY
  5
B
330
A
100
AcDbDictionary
280
0
281
1
  0
DICTIONARY
  5
C
330
A
100
AcDbDictionary
280
0
281
1
  0
DICTIONARY
  5
D
330
A
100
AcDbDictionary
280
0
281
1
  3
Model
350
1A
  3
Layout1
350
1E
  0
DICTIONARY
  5
E
330
A
100
AcDbDictionary
280
0
281
1
  3
ByBlock
350
1F
  3
ByLayer
350
20
  3
Global
350
21
  0
DICTIONARY
  5
F
330
A
100
AcDbDictionary
280
0
281
1
  3
Standard
350
2C
  0
DICTIONARY
  5
10
330
A
100
AcDbDictionary
280
0
281
1
  3
Standard
350
22
  0
DICTIONARY
  5
11
330
A
100
AcDbDictionary
280
0
281
1
  0
ACDBDICTIONARYWDFLT
  5
12
330
A
100
AcDbDictionary
280
0
281
1
  3
Normal
350
13
100
AcDbDictionaryWithDefault
340
13
  0
ACDBPLACEHOLDER
  5
13
330
12
  0
DICTIONARY
  5
14
330
A
100
AcDbDictionary
280
0
281
1
  0
DICTIONARY
  5
15
330
A
100
AcDbDictionary
280
0
281
1
  0
DICTIONARY
  5
16
330
A
100
AcDbDictionary
280
0
281
1
  0
LAYOUT
  5
1A
330
D
100
AcDbPlotSettings
  1

  2
Adobe PDF
  4
A3
  6

 40
7.5
 41
20.0
 42
7.5
 43
20.0
 44
420.0
 45
297.0
 46
0.0
 47
0.0
 48
0.0
 49
0.0
140
0.0
141
0.0
142
1.0
143
1.0
 70
1024
 72
1
 73
0
 74
5
  7

 75
16
 76
0
 77
2
 78
300
147
1.0
148
0.0
149
0.0
100
AcDbLayout
  1
Model
 70
1
 71
0
 10
0.0
 20
0.0
 11
420.0
 21
297.0
 12
0.0
 22
0.0
 32
0.0
 14
1e+20
 24
1e+20
 34
1e+20
 15
-1e+20
 25
-1e+20
 35
-1e+20
146
0.0
 13
0.0
 23
0.0
 33
0.0
 16
1.0
 26
0.0
 36
0.0
 17
0.0
 27
1.0
 37
0.0
 76
1
330
17
  0
LAYOUT
  5
1E
330
D
100
AcDbPlotSettings
  1

  2
Adobe PDF
  4
A3
  6

 40
7.5
 41
20.0
 42
7.5
 43
20.0
 44
420.0
 45
297.0
 46
0.0
 47
0.0
 48
0.0
 49
0.0
140
0.0
141
0.0
142
1.0
143
1.0
 70
0
 72
1
 73
0
 74
5
  7

 75
16
 76
0
 77
2
 78
300
147
1.0
148
0.0
149
0.0
100
AcDbLayout
  1
Layout1
 70
1
 71
1
 10
0.0
 20
0.0
 11
420.0
 21
297.0
 12
0.0
 22
0.0
 32
0.0
 14
1e+20
 24
1e+20
 34
1e+20
 15
-1e+20
 25
-1e+20
 35
-1e+20
146
0.0
 13
0.0
 23
0.0
 33
0.0
 16
1.0
 26
0.0
 36
0.0
 17
0.0
 27
1.0
 37
0.0
 76
1
330
1B
  0
MATERIAL
  5
1F
102
{ACAD_REACTORS
330
E
102
}
330
E
100
AcDbMaterial
  1
ByBlock
  2

 70
0
 40
1.0
 71
1
 41
1.0
 91
-1023410177
 42
1.0
 72
1
  3

 73
1
 74
1
 75
1
 44
0.5
 73
0
 45
1.0
 46
1.0
 77
1
  4

 78
1
 79
1
170
1
 48
1.0
171
1
  6

172
1
173
1
174
1
140
1.0
141
1.0
175
1
  7

176
1
177
1
178
1
143
1.0
179
1
  8

270
1
271
1
272
1
145
1.0
146
1.0
273
1
  9

274
1
275
1
276
1
 42
1.0
 72
1
  3

 73
1
 74
1
 75
1
 94
63
  0
MATERIAL
  5
20
102
{ACAD_REACTORS
330
E
102
}
330
E
100
AcDbMaterial
  1
ByLayer
  2

 70
0
 40
1.0
 71
1
 41
1.0
 91
-1023410177
 42
1.0
 72
1
  3

 73
1
 74
1
 75
1
 44
0.5
 73
0
 45
1.0
 46
1.0
 77
1
  4

 78
1
 79
1
170
1
 48
1.0
171
1
  6

172
1
173
1
174
1
140
1.0
141
1.0
175
1
  7

176
1
177
1
178
1
143
1.0
179
1
  8

270
1
271
1
272
1
145
1.0
146
1.0
273
1
  9

274
1
275
1
276
1
 42
1.0
 72
1
  3

 73
1
 74
1
 75
1
 94
63
  0
MATERIAL
  5
21
102
{ACAD_REACTORS
330
E
102
}
330
E
100
AcDbMaterial
  1
Global
  2

 70
0
 40
1.0
 71
1
 41
1.0
 91
-1023410177
 42
1.0
 72
1
  3

 73
1
 74
1
 75
1
 44
0.5
 73
0
 45
1.0
 46
1.0
 77
1
  4

 78
1
 79
1
170
1
 48
1.0
171
1
  6

172
1
173
1
174
1
140
1.0
141
1.0
175
1
  7

176
1
177
1
178
1
143
1.0
179
1
  8

270
1
271
1
272
1
145
1.0
146
1.0
273
1
  9

274
1
275
1
276
1
 42
1.0
 72
1
  3

 73
1
 74
1
 75
1
 94
63
  0
MLINESTYLE
  5
22
102
{ACAD_REACTORS
330
10
102
}
330
10
100
AcDbMlineStyle
  2
Standard
 70
0
  3

 62
256
 51
90.0
 52
90.0
 71
2
 49
0.5
 62
256
  6
BYLAYER
 49
-0.5
 62
256
  6
BYLAYER
  0
MLEADERSTYLE
  5
2C
102
{ACAD_REACTORS
330
F
102
}
330
F
100
AcDbMLeaderStyle
179
2
170
2
171
1
172
0
 90
2
 40
0.0
 41
0.0
173
1
 91
-1056964608
 92
-2
290
1
 42
2.0
291
1
 43
8.0
  3
Standard
 44
4.0
300

342
29
174
1
175
1
176
0
178
1
 93
-1056964608
 45
4.0
292
0
297
0
 46
4.0
 94
-1056964608
 47
1.0
 49
1.0
140
1.0
294
1
141
0.0
177
0
142
1.0
295
0
296
0
143
3.75
271
0
272
9
273
9
  0
DICTIONARY
  5
2D
330
A
100
AcDbDictionary
281
1
  3
CREATED_BY_EZDXF
350
2E
  3
WRITTEN_BY_EZDXF
350
1CB
  0
DICTIONARYVAR
  5
2E
330
2D
100
DictionaryVariables
280
0
  1
1.0.2 @ 2024-03-22T07:41:33.524049+00:00
  0
DICTIONARYVAR
  5
1CB
330
2D
100
DictionaryVariables
280
0
  1
1.0.2 @ 2024-03-22T07:41:33.534064+00:00
  0
ENDSEC
  0
EOF
