  0
SECTION
  2
HEADER
  9
$ACADVER
  1
AC1027
  9
$ACADMAINTVER
 70
105
  9
$DWGCODEPAGE
  3
ANSI_1252
  9
$LASTSAVEDBY
  1
ezdxf
  9
$REQUIREDVERSIONS
160
0
  9
$INSBASE
 10
0.0
 20
0.0
 30
0.0
  9
$EXTMIN
 10
1e+20
 20
1e+20
 30
1e+20
  9
$EXTMAX
 10
-1e+20
 20
-1e+20
 30
-1e+20
  9
$LIMMIN
 10
0.0
 20
0.0
  9
$LIMMAX
 10
420.0
 20
297.0
  9
$ORTHOMODE
 70
0
  9
$REGENMODE
 70
1
  9
$FILLMODE
 70
1
  9
$QTEXTMODE
 70
0
  9
$MIRRTEXT
 70
1
  9
$LTSCALE
 40
1.0
  9
$ATTMODE
 70
1
  9
$TEXTSIZE
 40
2.5
  9
$TRACEWID
 40
1.0
  9
$TEXTSTYLE
  7
Standard
  9
$CLAYER
  8
0
  9
$CELTYPE
  6
ByLayer
  9
$CECOLOR
 62
256
  9
$CELTSCALE
 40
1.0
  9
$DISPSILH
 70
0
  9
$DIMSCALE
 40
1.0
  9
$DIMASZ
 40
2.5
  9
$DIMEXO
 40
0.625
  9
$DIMDLI
 40
3.75
  9
$DIMRND
 40
0.0
  9
$DIMDLE
 40
0.0
  9
$DIMEXE
 40
1.25
  9
$DIMTP
 40
0.0
  9
$DIMTM
 40
0.0
  9
$DIMTXT
 40
2.5
  9
$DIMCEN
 40
2.5
  9
$DIMTSZ
 40
0.0
  9
$DIMTOL
 70
0
  9
$DIMLIM
 70
0
  9
$DIMTIH
 70
0
  9
$DIMTOH
 70
0
  9
$DIMSE1
 70
0
  9
$DIMSE2
 70
0
  9
$DIMTAD
 70
1
  9
$DIMZIN
 70
8
  9
$DIMBLK
  1

  9
$DIMASO
 70
1
  9
$DIMSHO
 70
1
  9
$DIMPOST
  1

  9
$DIMAPOST
  1

  9
$DIMALT
 70
0
  9
$DIMALTD
 70
3
  9
$DIMALTF
 40
0.03937007874
  9
$DIMLFAC
 40
1.0
  9
$DIMTOFL
 70
1
  9
$DIMTVP
 40
0.0
  9
$DIMTIX
 70
0
  9
$DIMSOXD
 70
0
  9
$DIMSAH
 70
0
  9
$DIMBLK1
  1

  9
$DIMBLK2
  1

  9
$DIMSTYLE
  2
ISO-25
  9
$DIMCLRD
 70
0
  9
$DIMCLRE
 70
0
  9
$DIMCLRT
 70
0
  9
$DIMTFAC
 40
1.0
  9
$DIMGAP
 40
0.625
  9
$DIMJUST
 70
0
  9
$DIMSD1
 70
0
  9
$DIMSD2
 70
0
  9
$DIMTOLJ
 70
0
  9
$DIMTZIN
 70
8
  9
$DIMALTZ
 70
0
  9
$DIMALTTZ
 70
0
  9
$DIMUPT
 70
0
  9
$DIMDEC
 70
2
  9
$DIMTDEC
 70
2
  9
$DIMALTU
 70
2
  9
$DIMALTTD
 70
3
  9
$DIMTXSTY
  7
Standard
  9
$DIMAUNIT
 70
0
  9
$DIMADEC
 70
0
  9
$DIMALTRND
 40
0.0
  9
$DIMAZIN
 70
0
  9
$DIMDSEP
 70
44
  9
$DIMATFIT
 70
3
  9
$DIMFRAC
 70
0
  9
$DIMLDRBLK
  1

  9
$DIMLUNIT
 70
2
  9
$DIMLWD
 70
-2
  9
$DIMLWE
 70
-2
  9
$DIMTMOVE
 70
0
  9
$DIMFXL
 40
1.0
  9
$DIMFXLON
 70
0
  9
$DIMJOGANG
 40
0.785398163397
  9
$DIMTFILL
 70
0
  9
$DIMTFILLCLR
 70
0
  9
$DIMARCSYM
 70
0
  9
$DIMLTYPE
  6

  9
$DIMLTEX1
  6

  9
$DIMLTEX2
  6

  9
$DIMTXTDIRECTION
 70
0
  9
$LUNITS
 70
2
  9
$LUPREC
 70
4
  9
$SKETCHINC
 40
1.0
  9
$FILLETRAD
 40
10.0
  9
$AUNITS
 70
0
  9
$AUPREC
 70
2
  9
$MENU
  1
.
  9
$ELEVATION
 40
0.0
  9
$PELEVATION
 40
0.0
  9
$THICKNESS
 40
0.0
  9
$LIMCHECK
 70
0
  9
$CHAMFERA
 40
0.0
  9
$CHAMFERB
 40
0.0
  9
$CHAMFERC
 40
0.0
  9
$CHAMFERD
 40
0.0
  9
$SKPOLY
 70
0
  9
$TDCREATE
 40
2460392.695520833
  9
$TDUCREATE
 40
2458532.153996898
  9
$TDUPDATE
 40
2460392.695520833
  9
$TDUUPDATE
 40
2458532.1544311
  9
$TDINDWG
 40
0.0
  9
$TDUSRTIMER
 40
0.0
  9
$USRTIMER
 70
1
  9
$ANGBASE
 50
0.0
  9
$ANGDIR
 70
0
  9
$PDMODE
 70
0
  9
$PDSIZE
 40
0.0
  9
$PLINEWID
 40
0.0
  9
$SPLFRAME
 70
0
  9
$SPLINETYPE
 70
6
  9
$SPLINESEGS
 70
8
  9
$HANDSEED
  5
1CC
  9
$SURFTAB1
 70
6
  9
$SURFTAB2
 70
6
  9
$SURFTYPE
 70
6
  9
$SURFU
 70
6
  9
$SURFV
 70
6
  9
$UCSBASE
  2

  9
$UCSNAME
  2

  9
$UCSORG
 10
0.0
 20
0.0
 30
0.0
  9
$UCSXDIR
 10
1.0
 20
0.0
 30
0.0
  9
$UCSYDIR
 10
0.0
 20
1.0
 30
0.0
  9
$UCSORTHOREF
  2

  9
$UCSORTHOVIEW
 70
0
  9
$UCSORGTOP
 10
0.0
 20
0.0
 30
0.0
  9
$UCSORGBOTTOM
 10
0.0
 20
0.0
 30
0.0
  9
$UCSORGLEFT
 10
0.0
 20
0.0
 30
0.0
  9
$UCSORGRIGHT
 10
0.0
 20
0.0
 30
0.0
  9
$UCSORGFRONT
 10
0.0
 20
0.0
 30
0.0
  9
$UCSORGBACK
 10
0.0
 20
0.0
 30
0.0
  9
$PUCSBASE
  2

  9
$PUCSNAME
  2

  9
$PUCSORG
 10
0.0
 20
0.0
 30
0.0
  9
$PUCSXDIR
 10
1.0
 20
0.0
 30
0.0
  9
$PUCSYDIR
 10
0.0
 20
1.0
 30
0.0
  9
$PUCSORTHOREF
  2

  9
$PUCSORTHOVIEW
 70
0
  9
$PUCSORGTOP
 10
0.0
 20
0.0
 30
0.0
  9
$PUCSORGBOTTOM
 10
0.0
 20
0.0
 30
0.0
  9
$PUCSORGLEFT
 10
0.0
 20
0.0
 30
0.0
  9
$PUCSORGRIGHT
 10
0.0
 20
0.0
 30
0.0
  9
$PUCSORGFRONT
 10
0.0
 20
0.0
 30
0.0
  9
$PUCSORGBACK
 10
0.0
 20
0.0
 30
0.0
  9
$USERI1
 70
0
  9
$USERI2
 70
0
  9
$USERI3
 70
0
  9
$USERI4
 70
0
  9
$USERI5
 70
0
  9
$USERR1
 40
0.0
  9
$USERR2
 40
0.0
  9
$USERR3
 40
0.0
  9
$USERR4
 40
0.0
  9
$USERR5
 40
0.0
  9
$WORLDVIEW
 70
1
  9
$SHADEDGE
 70
3
  9
$SHADEDIF
 70
70
  9
$TILEMODE
 70
1
  9
$MAXACTVP
 70
64
  9
$PINSBASE
 10
0.0
 20
0.0
 30
0.0
  9
$PLIMCHECK
 70
0
  9
$PEXTMIN
 10
1e+20
 20
1e+20
 30
1e+20
  9
$PEXTMAX
 10
-1e+20
 20
-1e+20
 30
-1e+20
  9
$PLIMMIN
 10
0.0
 20
0.0
  9
$PLIMMAX
 10
420.0
 20
297.0
  9
$UNITMODE
 70
0
  9
$VISRETAIN
 70
1
  9
$PLINEGEN
 70
0
  9
$PSLTSCALE
 70
1
  9
$TREEDEPTH
 70
3020
  9
$CMLSTYLE
  2
Standard
  9
$CMLJUST
 70
0
  9
$CMLSCALE
 40
20.0
  9
$PROXYGRAPHICS
 70
1
  9
$MEASUREMENT
 70
1
  9
$CELWEIGHT
370
-1
  9
$ENDCAPS
280
0
  9
$JOINSTYLE
280
0
  9
$LWDISPLAY
290
0
  9
$INSUNITS
 70
6
  9
$HYPERLINKBASE
  1

  9
$STYLESHEET
  1

  9
$XEDIT
290
1
  9
$CEPSNTYPE
380
0
  9
$PSTYLEMODE
290
1
  9
$FINGERPRINTGUID
  2
{3662DA3A-A1DD-4C3A-9144-43C5949E632F}
  9
$VERSIONGUID
  2
{6E882DF5-7C54-4EFD-B7F8-97AD1CF74A2E}
  9
$EXTNAMES
290
1
  9
$PSVPSCALE
 40
0.0
  9
$OLESTARTUP
290
0
  9
$SORTENTS
280
127
  9
$INDEXCTL
280
0
  9
$HIDETEXT
280
1
  9
$XCLIPFRAME
280
0
  9
$HALOGAP
280
0
  9
$OBSCOLOR
 70
257
  9
$OBSLTYPE
280
0
  9
$INTERSECTIONDISPLAY
280
0
  9
$INTERSECTIONCOLOR
 70
257
  9
$DIMASSOC
280
2
  9
$PROJECTNAME
  1

  9
$CAMERADISPLAY
290
0
  9
$LENSLENGTH
 40
50.0
  9
$CAMERAHEIGHT
 40
0.0
  9
$STEPSPERSEC
 40
24.0
  9
$STEPSIZE
 40
100.0
  9
$3DDWFPREC
 40
2.0
  9
$PSOLWIDTH
 40
0.005
  9
$PSOLHEIGHT
 40
0.08
  9
$LOFTANG1
 40
1.570796326795
  9
$LOFTANG2
 40
1.570796326795
  9
$LOFTMAG1
 40
0.0
  9
$LOFTMAG2
 40
0.0
  9
$LOFTPARAM
 70
7
  9
$LOFTNORMALS
280
1
  9
$LATITUDE
 40
37.795
  9
$LONGITUDE
 40
-122.394
  9
$NORTHDIRECTION
 40
0.0
  9
$TIMEZONE
 70
-8000
  9
$LIGHTGLYPHDISPLAY
280
1
  9
$TILEMODELIGHTSYNCH
280
1
  9
$CMATERIAL
347
20
  9
$SOLIDHIST
280
0
  9
$SHOWHIST
280
1
  9
$DWFFRAME
280
2
  9
$DGNFRAME
280
2
  9
$REALWORLDSCALE
290
1
  9
$INTERFERECOLOR
 62
256
  9
$CSHADOW
280
0
  9
$SHADOWPLANELOCATION
 40
0.0
  0
ENDSEC
  0
SECTION
  2
CLASSES
  0
CLASS
  1
ACDBDICTIONARYWDFLT
  2
AcDbDictionaryWithDefault
  3
ObjectDBX Classes
 90
0
 91
0
280
0
281
0
  0
CLASS
  1
SUN
  2
AcDbSun
  3
SCENEOE
 90
1153
 91
0
280
0
281
0
  0
CLASS
  1
VISUALSTYLE
  2
AcDbVisualStyle
  3
ObjectDBX Classes
 90
4095
 91
0
280
0
281
0
  0
CLASS
  1
MATERIAL
  2
AcDbMaterial
  3
ObjectDBX Classes
 90
1153
 91
0
280
0
281
0
  0
CLASS
  1
SCALE
  2
AcDbScale
  3
ObjectDBX Classes
 90
1153
 91
0
280
0
281
0
  0
CLASS
  1
TABLESTYLE
  2
AcDbTableStyle
  3
ObjectDBX Classes
 90
4095
 91
0
280
0
281
0
  0
CLASS
  1
MLEADERSTYLE
  2
AcDbMLeaderStyle
  3
ACDB_MLEADERSTYLE_CLASS
 90
4095
 91
0
280
0
281
0
  0
CLASS
  1
DICTIONARYVAR
  2
AcDbDictionaryVar
  3
ObjectDBX Classes
 90
0
 91
0
280
0
281
0
  0
CLASS
  1
CELLSTYLEMAP
  2
AcDbCellStyleMap
  3
ObjectDBX Classes
 90
1152
 91
0
280
0
281
0
  0
CLASS
  1
MENTALRAYRENDERSETTINGS
  2
AcDbMentalRayRenderSettings
  3
SCENEOE
 90
1024
 91
0
280
0
281
0
  0
CLASS
  1
ACDBDETAILVIEWSTYLE
  2
AcDbDetailViewStyle
  3
ObjectDBX Classes
 90
1025
 91
0
280
0
281
0
  0
CLASS
  1
ACDBSECTIONVIEWSTYLE
  2
AcDbSectionViewStyle
  3
ObjectDBX Classes
 90
1025
 91
0
280
0
281
0
  0
CLASS
  1
RASTERVARIABLES
  2
AcDbRasterVariables
  3
ISM
 90
0
 91
0
280
0
281
0
  0
CLASS
  1
LAYOUT
  2
AcDbLayout
  3
ObjectDBX Classes
 90
0
 91
0
280
0
281
0
  0
CLASS
  1
ACDBPLACEHOLDER
  2
AcDbPlaceHolder
  3
ObjectDBX Classes
 90
0
 91
0
280
0
281
0
  0
ENDSEC
  0
SECTION
  2
TABLES
  0
TABLE
  2
VPORT
  5
8
330
0
100
AcDbSymbolTable
 70
1
  0
VPORT
  5
23
330
8
100
AcDbSymbolTableRecord
100
AcDbViewportTableRecord
  2
*Active
 70
0
 10
0.0
 20
0.0
 11
1.0
 21
1.0
 12
0.0
 22
0.0
 13
0.0
 23
0.0
 14
0.5
 24
0.5
 15
0.5
 25
0.5
 16
0.0
 26
0.0
 36
1.0
 17
0.0
 27
0.0
 37
0.0
 40
1000.0
 41
1.34
 42
50.0
 43
0.0
 44
0.0
 50
0.0
 51
0.0
 71
0
 72
1000
 73
1
 74
3
 75
0
 76
0
 77
0
 78
0
281
0
 65
0
146
0.0
  0
ENDTAB
  0
TABLE
  2
LTYPE
  5
2
330
0
100
AcDbSymbolTable
 70
3
  0
LTYPE
  5
24
330
2
100
AcDbSymbolTableRecord
100
AcDbLinetypeTableRecord
  2
ByBlock
 70
0
  3

 72
65
 73
0
 40
0.0
  0
LTYPE
  5
25
330
2
100
AcDbSymbolTableRecord
100
AcDbLinetypeTableRecord
  2
ByLayer
 70
0
  3

 72
65
 73
0
 40
0.0
  0
LTYPE
  5
26
330
2
100
AcDbSymbolTableRecord
100
AcDbLinetypeTableRecord
  2
Continuous
 70
0
  3

 72
65
 73
0
 40
0.0
  0
ENDTAB
  0
TABLE
  2
LAYER
  5
1
330
0
100
AcDbSymbolTable
 70
5
  0
LAYER
  5
27
330
1
100
AcDbSymbolTableRecord
100
AcDbLayerTableRecord
  2
0
 70
0
 62
7
  6
Continuous
370
-3
390
13
347
21
  0
LAYER
  5
28
330
1
100
AcDbSymbolTableRecord
100
AcDbLayerTableRecord
  2
Defpoints
 70
0
 62
7
  6
Continuous
290
0
370
-3
390
13
347
21
  0
LAYER
  5
30
330
1
100
AcDbSymbolTableRecord
100
AcDbLayerTableRecord
  2
FoilLayer
 70
0
 62
1
  6
Continuous
370
50
390
13
347
21
  0
LAYER
  5
31
330
1
100
AcDbSymbolTableRecord
100
AcDbLayerTableRecord
  2
StringerLayer
 70
0
 62
1
  6
Continuous
370
50
390
13
347
21
  0
LAYER
  5
32
330
1
100
AcDbSymbolTableRecord
100
AcDbLayerTableRecord
  2
SubLayer
 70
0
 62
1
  6
Continuous
370
50
390
13
347
21
  0
ENDTAB
  0
TABLE
  2
STYLE
  5
5
330
0
100
AcDbSymbolTable
 70
2
  0
STYLE
  5
29
330
5
100
AcDbSymbolTableRecord
100
AcDbTextStyleTableRecord
  2
Standard
 70
0
 40
0.0
 41
1.0
 50
0.0
 71
0
 42
2.5
  3
txt
  4

  0
STYLE
  5
2F
330
5
100
AcDbSymbolTableRecord
100
AcDbTextStyleTableRecord
  2
MSゴシック
 70
0
 40
0.0
 41
1.0
 50
0.0
 71
0
 42
2.5
  3
romans
  4

  0
ENDTAB
  0
TABLE
  2
VIEW
  5
7
330
0
100
AcDbSymbolTable
 70
0
  0
ENDTAB
  0
TABLE
  2
UCS
  5
6
330
0
100
AcDbSymbolTable
 70
0
  0
ENDTAB
  0
TABLE
  2
APPID
  5
3
330
0
100
AcDbSymbolTable
 70
3
  0
APPID
  5
2A
330
3
100
AcDbSymbolTableRecord
100
AcDbRegAppTableRecord
  2
ACAD
 70
0
  0
APPID
  5
1C9
330
3
100
AcDbSymbolTableRecord
100
AcDbRegAppTableRecord
  2
HATCHBACKGROUNDCOLOR
 70
0
  0
APPID
  5
1CA
330
3
100
AcDbSymbolTableRecord
100
AcDbRegAppTableRecord
  2
EZDXF
 70
0
  0
ENDTAB
  0
TABLE
  2
DIMSTYLE
  5
4
330
0
100
AcDbSymbolTable
 70
1
100
AcDbDimStyleTable
  0
DIMSTYLE
105
2B
330
4
100
AcDbSymbolTableRecord
100
AcDbDimStyleTableRecord
  2
Standard
 70
0
 40
1.0
 41
2.5
 42
0.625
 43
3.75
 44
1.25
 45
0.0
 46
0.0
 47
0.0
 48
0.0
 49
2.5
140
2.5
141
2.5
142
0.0
143
0.03937007874
144
1.0
145
0.0
146
1.0
147
0.625
148
0.0
 69
0
 70
0
 71
0
 72
0
 73
0
 74
0
 75
0
 76
0
 77
1
 78
8
 79
3
170
0
171
3
172
1
173
0
174
0
175
0
176
0
177
0
178
0
179
2
271
2
272
2
273
2
274
3
275
0
276
0
277
2
278
44
279
0
280
0
281
0
282
0
283
0
284
8
285
0
286
0
288
0
289
3
290
0
371
-2
372
-2
  0
ENDTAB
  0
TABLE
  2
BLOCK_RECORD
  5
9
330
0
100
AcDbSymbolTable
 70
2
  0
BLOCK_RECORD
  5
17
330
9
100
AcDbSymbolTableRecord
100
AcDbBlockTableRecord
  2
*Model_Space
340
1A
 70
0
280
1
281
0
  0
BLOCK_RECORD
  5
1B
330
9
100
AcDbSymbolTableRecord
100
AcDbBlockTableRecord
  2
*Paper_Space
340
1E
 70
0
280
1
281
0
  0
ENDTAB
  0
ENDSEC
  0
SECTION
  2
BLOCKS
  0
BLOCK
  5
18
330
17
100
AcDbEntity
  8
0
100
AcDbBlockBegin
  2
*Model_Space
 70
0
 10
0.0
 20
0.0
 30
0.0
  3
*Model_Space
  1

  0
ENDBLK
  5
19
330
17
100
AcDbEntity
  8
0
100
AcDbBlockEnd
  0
BLOCK
  5
1C
330
1B
100
AcDbEntity
  8
0
100
AcDbBlockBegin
  2
*Paper_Space
 70
0
 10
0.0
 20
0.0
 30
0.0
  3
*Paper_Space
  1

  0
ENDBLK
  5
1D
330
1B
100
AcDbEntity
  8
0
100
AcDbBlockEnd
  0
ENDSEC
  0
SECTION
  2
ENTITIES
  0
LINE
  5
33
330
17
100
AcDbEntity
  8
FoilLayer
100
AcDbLine
 10
602.1654657583363
 20
1.0176137959310634
 30
0.0
 11
599.219081938433
 21
1.9606499945656246
 31
0.0
  0
LINE
  5
34
330
17
100
AcDbEntity
  8
FoilLayer
100
AcDbLine
 10
599.219081938433
 20
1.9606499945656246
 30
0.0
 11
594.480783287253
 21
3.3899526003115072
 31
0.0
  0
LINE
  5
35
330
17
100
AcDbEntity
  8
FoilLayer
100
AcDbLine
 10
594.480783287253
 20
3.3899526003115072
 30
0.0
 11
589.3539732658294
 21
4.976154346039899
 31
0.0
  0
LINE
  5
36
330
17
100
AcDbEntity
  8
FoilLayer
100
AcDbLine
 10
589.3539732658294
 20
4.976154346039899
 30
0.0
 11
583.755365748707
 21
6.671523361935908
 31
0.0
  0
LINE
  5
37
330
17
100
AcDbEntity
  8
FoilLayer
100
AcDbLine
 10
583.755365748707
 20
6.671523361935908
 30
0.0
 11
577.650985664999
 21
8.478311941775985
 31
0.0
  0
LINE
  5
38
330
17
100
AcDbEntity
  8
FoilLayer
100
AcDbLine
 10
577.650985664999
 20
8.478311941775985
 30
0.0
 11
571.0844004948902
 21
10.420733417259033
 31
0.0
  0
LINE
  5
39
330
17
100
AcDbEntity
  8
FoilLayer
100
AcDbLine
 10
571.0844004948902
 20
10.420733417259033
 30
0.0
 11
564.133616146553
 21
12.489472532587216
 31
0.0
  0
LINE
  5
3A
330
17
100
AcDbEntity
  8
FoilLayer
100
AcDbLine
 10
564.133616146553
 20
12.489472532587216
 30
0.0
 11
556.861077473345
 21
14.642093141963507
 31
0.0
  0
LINE
  5
3B
330
17
100
AcDbEntity
  8
FoilLayer
100
AcDbLine
 10
556.861077473345
 20
14.642093141963507
 30
0.0
 11
549.3796901823403
 21
16.853039864627785
 31
0.0
  0
LINE
  5
3C
330
17
100
AcDbEntity
  8
FoilLayer
100
AcDbLine
 10
549.3796901823403
 20
16.853039864627785
 30
0.0
 11
541.8282814216826
 21
19.05771546129146
 31
0.0
  0
LINE
  5
3D
330
17
100
AcDbEntity
  8
FoilLayer
100
AcDbLine
 10
541.8282814216826
 20
19.05771546129146
 30
0.0
 11
534.2165611940068
 21
21.226471385505352
 31
0.0
  0
LINE
  5
3E
330
17
100
AcDbEntity
  8
FoilLayer
100
AcDbLine
 10
534.2165611940068
 20
21.226471385505352
 30
0.0
 11
526.4969563959789
 21
23.483207450797185
 31
0.0
  0
LINE
  5
3F
330
17
100
AcDbEntity
  8
FoilLayer
100
AcDbLine
 10
526.4969563959789
 20
23.483207450797185
 30
0.0
 11
518.6872973601708
 21
25.778046054787207
 31
0.0
  0
LINE
  5
40
330
17
100
AcDbEntity
  8
FoilLayer
100
AcDbLine
 10
518.6872973601708
 20
25.778046054787207
 30
0.0
 11
510.7461648461625
 21
28.053328855658656
 31
0.0
  0
LINE
  5
41
330
17
100
AcDbEntity
  8
FoilLayer
100
AcDbLine
 10
510.7461648461625
 20
28.053328855658656
 30
0.0
 11
502.6769044069614
 21
30.353619279940496
 31
0.0
  0
LINE
  5
42
330
17
100
AcDbEntity
  8
FoilLayer
100
AcDbLine
 10
502.6769044069614
 20
30.353619279940496
 30
0.0
 11
494.4722485438904
 21
32.656104370821645
 31
0.0
  0
LINE
  5
43
330
17
100
AcDbEntity
  8
FoilLayer
100
AcDbLine
 10
494.4722485438904
 20
32.656104370821645
 30
0.0
 11
486.1111012727704
 21
35.01358853580921
 31
0.0
  0
LINE
  5
44
330
17
100
AcDbEntity
  8
FoilLayer
100
AcDbLine
 10
486.1111012727704
 20
35.01358853580921
 30
0.0
 11
477.6171325681057
 21
37.40324009669392
 31
0.0
  0
LINE
  5
45
330
17
100
AcDbEntity
  8
FoilLayer
100
AcDbLine
 10
477.6171325681057
 20
37.40324009669392
 30
0.0
 11
469.0267233770163
 21
39.81317644164608
 31
0.0
  0
LINE
  5
46
330
17
100
AcDbEntity
  8
FoilLayer
100
AcDbLine
 10
469.0267233770163
 20
39.81317644164608
 30
0.0
 11
460.3750796396952
 21
42.23702824449694
 31
0.0
  0
LINE
  5
47
330
17
100
AcDbEntity
  8
FoilLayer
100
AcDbLine
 10
460.3750796396952
 20
42.23702824449694
 30
0.0
 11
451.69578079562507
 21
44.668315179130005
 31
0.0
  0
LINE
  5
48
330
17
100
AcDbEntity
  8
FoilLayer
100
AcDbLine
 10
451.69578079562507
 20
44.668315179130005
 30
0.0
 11
443.01307796946605
 21
47.093941184338135
 31
0.0
  0
LINE
  5
49
330
17
100
AcDbEntity
  8
FoilLayer
100
AcDbLine
 10
443.01307796946605
 20
47.093941184338135
 30
0.0
 11
434.3334126054441
 21
49.506544420818564
 31
0.0
  0
LINE
  5
4A
330
17
100
AcDbEntity
  8
FoilLayer
100
AcDbLine
 10
434.3334126054441
 20
49.506544420818564
 30
0.0
 11
425.6577679932766
 21
51.90479706051572
 31
0.0
  0
LINE
  5
4B
330
17
100
AcDbEntity
  8
FoilLayer
100
AcDbLine
 10
425.6577679932766
 20
51.90479706051572
 30
0.0
 11
416.98896174440006
 21
54.28852634749033
 31
0.0
  0
LINE
  5
4C
330
17
100
AcDbEntity
  8
FoilLayer
100
AcDbLine
 10
416.98896174440006
 20
54.28852634749033
 30
0.0
 11
408.3369471779765
 21
56.65719008560326
 31
0.0
  0
LINE
  5
4D
330
17
100
AcDbEntity
  8
FoilLayer
100
AcDbLine
 10
408.3369471779765
 20
56.65719008560326
 30
0.0
 11
399.718993038759
 21
59.00357439345066
 31
0.0
  0
LINE
  5
4E
330
17
100
AcDbEntity
  8
FoilLayer
100
AcDbLine
 10
399.718993038759
 20
59.00357439345066
 30
0.0
 11
391.13633790653205
 21
61.318389943212935
 31
0.0
  0
LINE
  5
4F
330
17
100
AcDbEntity
  8
FoilLayer
100
AcDbLine
 10
391.13633790653205
 20
61.318389943212935
 30
0.0
 11
382.57270685301705
 21
63.60154460858694
 31
0.0
  0
LINE
  5
50
330
17
100
AcDbEntity
  8
FoilLayer
100
AcDbLine
 10
382.57270685301705
 20
63.60154460858694
 30
0.0
 11
374.0213628036672
 21
65.85821355434771
 31
0.0
  0
LINE
  5
51
330
17
100
AcDbEntity
  8
FoilLayer
100
AcDbLine
 10
374.0213628036672
 20
65.85821355434771
 30
0.0
 11
365.4901525938127
 21
68.08746865283004
 31
0.0
  0
LINE
  5
52
330
17
100
AcDbEntity
  8
FoilLayer
100
AcDbLine
 10
365.4901525938127
 20
68.08746865283004
 30
0.0
 11
361.26905175018146
 21
69.17763324226335
 31
0.0
  0
LINE
  5
53
330
17
100
AcDbEntity
  8
FoilLayer
100
AcDbLine
 10
361.26905175018146
 20
69.17763324226335
 30
0.0
 11
361.00648829007866
 21
68.16099150132467
 31
0.0
  0
LINE
  5
54
330
17
100
AcDbEntity
  8
FoilLayer
100
AcDbLine
 10
361.00648829007866
 20
68.16099150132467
 30
0.0
 11
356.7241253685462
 21
69.26698641827909
 31
0.0
  0
LINE
  5
55
330
17
100
AcDbEntity
  8
FoilLayer
100
AcDbLine
 10
356.7241253685462
 20
69.26698641827909
 30
0.0
 11
348.241107253732
 21
71.42800821559425
 31
0.0
  0
LINE
  5
56
330
17
100
AcDbEntity
  8
FoilLayer
100
AcDbLine
 10
348.241107253732
 20
71.42800821559425
 30
0.0
 11
339.7726062845794
 21
73.55371529228725
 31
0.0
  0
LINE
  5
57
330
17
100
AcDbEntity
  8
FoilLayer
100
AcDbLine
 10
339.7726062845794
 20
73.55371529228725
 30
0.0
 11
331.3123144026131
 21
75.64428796515688
 31
0.0
  0
LINE
  5
58
330
17
100
AcDbEntity
  8
FoilLayer
100
AcDbLine
 10
331.3123144026131
 20
75.64428796515688
 30
0.0
 11
322.85434944012616
 21
77.701792123441
 31
0.0
  0
LINE
  5
59
330
17
100
AcDbEntity
  8
FoilLayer
100
AcDbLine
 10
322.85434944012616
 20
77.701792123441
 30
0.0
 11
314.39936147065873
 21
79.73022370064147
 31
0.0
  0
LINE
  5
5A
330
17
100
AcDbEntity
  8
FoilLayer
100
AcDbLine
 10
314.39936147065873
 20
79.73022370064147
 30
0.0
 11
305.9702987646351
 21
81.72959637914892
 31
0.0
  0
LINE
  5
5B
330
17
100
AcDbEntity
  8
FoilLayer
100
AcDbLine
 10
305.9702987646351
 20
81.72959637914892
 30
0.0
 11
297.5974284793517
 21
83.68890791056589
 31
0.0
  0
LINE
  5
5C
330
17
100
AcDbEntity
  8
FoilLayer
100
AcDbLine
 10
297.5974284793517
 20
83.68890791056589
 30
0.0
 11
289.2888598607842
 21
85.59453190621483
 31
0.0
  0
LINE
  5
5D
330
17
100
AcDbEntity
  8
FoilLayer
100
AcDbLine
 10
289.2888598607842
 20
85.59453190621483
 30
0.0
 11
281.03392821509897
 21
87.44087164844008
 31
0.0
  0
LINE
  5
5E
330
17
100
AcDbEntity
  8
FoilLayer
100
AcDbLine
 10
281.03392821509897
 20
87.44087164844008
 30
0.0
 11
272.8197033494213
 21
89.22723407742365
 31
0.0
  0
LINE
  5
5F
330
17
100
AcDbEntity
  8
FoilLayer
100
AcDbLine
 10
272.8197033494213
 20
89.22723407742365
 30
0.0
 11
264.6348131140279
 21
90.95424493757633
 31
0.0
  0
LINE
  5
60
330
17
100
AcDbEntity
  8
FoilLayer
100
AcDbLine
 10
264.6348131140279
 20
90.95424493757633
 30
0.0
 11
256.46913444185407
 21
92.62321939980367
 31
0.0
  0
LINE
  5
61
330
17
100
AcDbEntity
  8
FoilLayer
100
AcDbLine
 10
256.46913444185407
 20
92.62321939980367
 30
0.0
 11
248.31713222306348
 21
94.2360730009701
 31
0.0
  0
LINE
  5
62
330
17
100
AcDbEntity
  8
FoilLayer
100
AcDbLine
 10
248.31713222306348
 20
94.2360730009701
 30
0.0
 11
240.17947719864503
 21
95.79310256185538
 31
0.0
  0
LINE
  5
63
330
17
100
AcDbEntity
  8
FoilLayer
100
AcDbLine
 10
240.17947719864503
 20
95.79310256185538
 30
0.0
 11
232.05750546106742
 21
97.29176293519033
 31
0.0
  0
LINE
  5
64
330
17
100
AcDbEntity
  8
FoilLayer
100
AcDbLine
 10
232.05750546106742
 20
97.29176293519033
 30
0.0
 11
223.94432058622522
 21
98.72946280140837
 31
0.0
  0
LINE
  5
65
330
17
100
AcDbEntity
  8
FoilLayer
100
AcDbLine
 10
223.94432058622522
 20
98.72946280140837
 30
0.0
 11
215.82825652230747
 21
100.10734573374275
 31
0.0
  0
LINE
  5
66
330
17
100
AcDbEntity
  8
FoilLayer
100
AcDbLine
 10
215.82825652230747
 20
100.10734573374275
 30
0.0
 11
207.70290994417917
 21
101.42819185264568
 31
0.0
  0
LINE
  5
67
330
17
100
AcDbEntity
  8
FoilLayer
100
AcDbLine
 10
207.70290994417917
 20
101.42819185264568
 30
0.0
 11
199.56572086841697
 21
102.69372459132295
 31
0.0
  0
LINE
  5
68
330
17
100
AcDbEntity
  8
FoilLayer
100
AcDbLine
 10
199.56572086841697
 20
102.69372459132295
 30
0.0
 11
191.41595039699132
 21
103.90509185261804
 31
0.0
  0
LINE
  5
69
330
17
100
AcDbEntity
  8
FoilLayer
100
AcDbLine
 10
191.41595039699132
 20
103.90509185261804
 30
0.0
 11
183.25483336352113
 21
105.0629543799849
 31
0.0
  0
LINE
  5
6A
330
17
100
AcDbEntity
  8
FoilLayer
100
AcDbLine
 10
183.25483336352113
 20
105.0629543799849
 30
0.0
 11
175.08570295548577
 21
106.16726615214414
 31
0.0
  0
LINE
  5
6B
330
17
100
AcDbEntity
  8
FoilLayer
100
AcDbLine
 10
175.08570295548577
 20
106.16726615214414
 30
0.0
 11
166.91052209604743
 21
107.21628201057116
 31
0.0
  0
LINE
  5
6C
330
17
100
AcDbEntity
  8
FoilLayer
100
AcDbLine
 10
166.91052209604743
 20
107.21628201057116
 30
0.0
 11
158.72402279667017
 21
108.20843441345978
 31
0.0
  0
LINE
  5
6D
330
17
100
AcDbEntity
  8
FoilLayer
100
AcDbLine
 10
158.72402279667017
 20
108.20843441345978
 30
0.0
 11
150.51822969488688
 21
109.1453974158638
 31
0.0
  0
LINE
  5
6E
330
17
100
AcDbEntity
  8
FoilLayer
100
AcDbLine
 10
150.51822969488688
 20
109.1453974158638
 30
0.0
 11
142.29022785234076
 21
110.03015069117626
 31
0.0
  0
LINE
  5
6F
330
17
100
AcDbEntity
  8
FoilLayer
100
AcDbLine
 10
142.29022785234076
 20
110.03015069117626
 30
0.0
 11
134.04174524638432
 21
110.8652776076501
 31
0.0
  0
LINE
  5
70
330
17
100
AcDbEntity
  8
FoilLayer
100
AcDbLine
 10
134.04174524638432
 20
110.8652776076501
 30
0.0
 11
125.78107491690827
 21
111.65226857469457
 31
0.0
  0
LINE
  5
71
330
17
100
AcDbEntity
  8
FoilLayer
100
AcDbLine
 10
125.78107491690827
 20
111.65226857469457
 30
0.0
 11
117.51758357234081
 21
112.38994239066203
 31
0.0
  0
LINE
  5
72
330
17
100
AcDbEntity
  8
FoilLayer
100
AcDbLine
 10
117.51758357234081
 20
112.38994239066203
 30
0.0
 11
109.25641997268445
 21
113.0759154703752
 31
0.0
  0
LINE
  5
73
330
17
100
AcDbEntity
  8
FoilLayer
100
AcDbLine
 10
109.25641997268445
 20
113.0759154703752
 30
0.0
 11
100.99967282026836
 21
113.7095174598307
 31
0.0
  0
LINE
  5
74
330
17
100
AcDbEntity
  8
FoilLayer
100
AcDbLine
 10
100.99967282026836
 20
113.7095174598307
 30
0.0
 11
92.75131888930713
 21
114.29015762294114
 31
0.0
  0
LINE
  5
75
330
17
100
AcDbEntity
  8
FoilLayer
100
AcDbLine
 10
92.75131888930713
 20
114.29015762294114
 30
0.0
 11
84.51392004511507
 21
114.81620024796358
 31
0.0
  0
LINE
  5
76
330
17
100
AcDbEntity
  8
FoilLayer
100
AcDbLine
 10
84.51392004511507
 20
114.81620024796358
 30
0.0
 11
76.28696163885769
 21
115.28592913344309
 31
0.0
  0
LINE
  5
77
330
17
100
AcDbEntity
  8
FoilLayer
100
AcDbLine
 10
76.28696163885769
 20
115.28592913344309
 30
0.0
 11
68.0678830076522
 21
115.69896794791947
 31
0.0
  0
LINE
  5
78
330
17
100
AcDbEntity
  8
FoilLayer
100
AcDbLine
 10
68.0678830076522
 20
115.69896794791947
 30
0.0
 11
59.85685309660062
 21
116.05559909210702
 31
0.0
  0
LINE
  5
79
330
17
100
AcDbEntity
  8
FoilLayer
100
AcDbLine
 10
59.85685309660062
 20
116.05559909210702
 30
0.0
 11
51.65470878327852
 21
116.35514902287784
 31
0.0
  0
LINE
  5
7A
330
17
100
AcDbEntity
  8
FoilLayer
100
AcDbLine
 10
51.65470878327852
 20
116.35514902287784
 30
0.0
 11
43.460016432187274
 21
116.59666253846464
 31
0.0
  0
LINE
  5
7B
330
17
100
AcDbEntity
  8
FoilLayer
100
AcDbLine
 10
43.460016432187274
 20
116.59666253846464
 30
0.0
 11
35.271280865377264
 21
116.78014102909178
 31
0.0
  0
LINE
  5
7C
330
17
100
AcDbEntity
  8
FoilLayer
100
AcDbLine
 10
35.271280865377264
 20
116.78014102909178
 30
0.0
 11
27.090017707984202
 21
116.90577387593426
 31
0.0
  0
LINE
  5
7D
330
17
100
AcDbEntity
  8
FoilLayer
100
AcDbLine
 10
27.090017707984202
 20
116.90577387593426
 30
0.0
 11
18.915064669351295
 21
116.97183400277547
 31
0.0
  0
LINE
  5
7E
330
17
100
AcDbEntity
  8
FoilLayer
100
AcDbLine
 10
18.915064669351295
 20
116.97183400277547
 30
0.0
 11
10.742486254007815
 21
116.97764752123773
 31
0.0
  0
LINE
  5
7F
330
17
100
AcDbEntity
  8
FoilLayer
100
AcDbLine
 10
10.742486254007815
 20
116.97764752123773
 30
0.0
 11
2.5680922038223457
 21
116.9244603699543
 31
0.0
  0
LINE
  5
80
330
17
100
AcDbEntity
  8
FoilLayer
100
AcDbLine
 10
2.5680922038223457
 20
116.9244603699543
 30
0.0
 11
-5.605424405261942
 21
116.81429432120207
 31
0.0
  0
LINE
  5
81
330
17
100
AcDbEntity
  8
FoilLayer
100
AcDbLine
 10
-5.605424405261942
 20
116.81429432120207
 30
0.0
 11
-13.77240238211482
 21
116.64773305616129
 31
0.0
  0
LINE
  5
82
330
17
100
AcDbEntity
  8
FoilLayer
100
AcDbLine
 10
-13.77240238211482
 20
116.64773305616129
 30
0.0
 11
-21.92773596057799
 21
116.42401270768572
 31
0.0
  0
LINE
  5
83
330
17
100
AcDbEntity
  8
FoilLayer
100
AcDbLine
 10
-21.92773596057799
 20
116.42401270768572
 30
0.0
 11
-30.068366202724576
 21
116.14188541087223
 31
0.0
  0
LINE
  5
84
330
17
100
AcDbEntity
  8
FoilLayer
100
AcDbLine
 10
-30.068366202724576
 20
116.14188541087223
 30
0.0
 11
-38.19383132649995
 21
115.80018977519964
 31
0.0
  0
LINE
  5
85
330
17
100
AcDbEntity
  8
FoilLayer
100
AcDbLine
 10
-38.19383132649995
 20
115.80018977519964
 30
0.0
 11
-46.30380453944554
 21
115.39891785017909
 31
0.0
  0
LINE
  5
86
330
17
100
AcDbEntity
  8
FoilLayer
100
AcDbLine
 10
-46.30380453944554
 20
115.39891785017909
 30
0.0
 11
-54.3958863036699
 21
114.93901780636561
 31
0.0
  0
LINE
  5
87
330
17
100
AcDbEntity
  8
FoilLayer
100
AcDbLine
 10
-54.3958863036699
 20
114.93901780636561
 30
0.0
 11
-62.462348871871825
 21
114.4229207335001
 31
0.0
  0
LINE
  5
88
330
17
100
AcDbEntity
  8
FoilLayer
100
AcDbLine
 10
-62.462348871871825
 20
114.4229207335001
 30
0.0
 11
-70.48809677741752
 21
113.85155381107892
 31
0.0
  0
LINE
  5
89
330
17
100
AcDbEntity
  8
FoilLayer
100
AcDbLine
 10
-70.48809677741752
 20
113.85155381107892
 30
0.0
 11
-78.46095505737361
 21
113.22198541777983
 31
0.0
  0
LINE
  5
8A
330
17
100
AcDbEntity
  8
FoilLayer
100
AcDbLine
 10
-78.46095505737361
 20
113.22198541777983
 30
0.0
 11
-86.37567531562593
 21
112.5287871956896
 31
0.0
  0
LINE
  5
8B
330
17
100
AcDbEntity
  8
FoilLayer
100
AcDbLine
 10
-86.37567531562593
 20
112.5287871956896
 30
0.0
 11
-94.23875915920826
 21
111.7638326859577
 31
0.0
  0
LINE
  5
8C
330
17
100
AcDbEntity
  8
FoilLayer
100
AcDbLine
 10
-94.23875915920826
 20
111.7638326859577
 30
0.0
 11
-102.07173846640865
 21
110.92107205608663
 31
0.0
  0
LINE
  5
8D
330
17
100
AcDbEntity
  8
FoilLayer
100
AcDbLine
 10
-102.07173846640865
 20
110.92107205608663
 30
0.0
 11
-109.89185398848491
 21
110.0032406965293
 31
0.0
  0
LINE
  5
8E
330
17
100
AcDbEntity
  8
FoilLayer
100
AcDbLine
 10
-109.89185398848491
 20
110.0032406965293
 30
0.0
 11
-117.6968566603964
 21
109.0165407768733
 31
0.0
  0
LINE
  5
8F
330
17
100
AcDbEntity
  8
FoilLayer
100
AcDbLine
 10
-117.6968566603964
 20
109.0165407768733
 30
0.0
 11
-125.47784721655165
 21
107.96179257821146
 31
0.0
  0
LINE
  5
90
330
17
100
AcDbEntity
  8
FoilLayer
100
AcDbLine
 10
-125.47784721655165
 20
107.96179257821146
 30
0.0
 11
-133.23153247602247
 21
106.83750543803123
 31
0.0
  0
LINE
  5
91
330
17
100
AcDbEntity
  8
FoilLayer
100
AcDbLine
 10
-133.23153247602247
 20
106.83750543803123
 30
0.0
 11
-140.95577368540006
 21
105.64405357021967
 31
0.0
  0
LINE
  5
92
330
17
100
AcDbEntity
  8
FoilLayer
100
AcDbLine
 10
-140.95577368540006
 20
105.64405357021967
 30
0.0
 11
-148.6437359955056
 21
104.38304385946938
 31
0.0
  0
LINE
  5
93
330
17
100
AcDbEntity
  8
FoilLayer
100
AcDbLine
 10
-148.6437359955056
 20
104.38304385946938
 30
0.0
 11
-156.28822889196417
 21
103.05430493396452
 31
0.0
  0
LINE
  5
94
330
17
100
AcDbEntity
  8
FoilLayer
100
AcDbLine
 10
-156.28822889196417
 20
103.05430493396452
 30
0.0
 11
-163.8835096343346
 21
101.65728236140909
 31
0.0
  0
LINE
  5
95
330
17
100
AcDbEntity
  8
FoilLayer
100
AcDbLine
 10
-163.8835096343346
 20
101.65728236140909
 30
0.0
 11
-171.4252157464413
 21
100.1910130499506
 31
0.0
  0
LINE
  5
96
330
17
100
AcDbEntity
  8
FoilLayer
100
AcDbLine
 10
-171.4252157464413
 20
100.1910130499506
 30
0.0
 11
-178.9096305867881
 21
98.65490226056085
 31
0.0
  0
LINE
  5
97
330
17
100
AcDbEntity
  8
FoilLayer
100
AcDbLine
 10
-178.9096305867881
 20
98.65490226056085
 30
0.0
 11
-186.33256351296487
 21
97.04930280398699
 31
0.0
  0
LINE
  5
98
330
17
100
AcDbEntity
  8
FoilLayer
100
AcDbLine
 10
-186.33256351296487
 20
97.04930280398699
 30
0.0
 11
-193.68566137089962
 21
95.37438331547753
 31
0.0
  0
LINE
  5
99
330
17
100
AcDbEntity
  8
FoilLayer
100
AcDbLine
 10
-193.68566137089962
 20
95.37438331547753
 30
0.0
 11
-200.96715526179918
 21
93.62355780971941
 31
0.0
  0
LINE
  5
9A
330
17
100
AcDbEntity
  8
FoilLayer
100
AcDbLine
 10
-200.96715526179918
 20
93.62355780971941
 30
0.0
 11
-208.19075055719324
 21
91.79229110036674
 31
0.0
  0
LINE
  5
9B
330
17
100
AcDbEntity
  8
FoilLayer
100
AcDbLine
 10
-208.19075055719324
 20
91.79229110036674
 30
0.0
 11
-215.3565182551522
 21
89.89303524341454
 31
0.0
  0
LINE
  5
9C
330
17
100
AcDbEntity
  8
FoilLayer
100
AcDbLine
 10
-215.3565182551522
 20
89.89303524341454
 30
0.0
 11
-222.42706252615295
 21
87.94488263534352
 31
0.0
  0
LINE
  5
9D
330
17
100
AcDbEntity
  8
FoilLayer
100
AcDbLine
 10
-222.42706252615295
 20
87.94488263534352
 30
0.0
 11
-229.36287357393707
 21
85.94996327952833
 31
0.0
  0
LINE
  5
9E
330
17
100
AcDbEntity
  8
FoilLayer
100
AcDbLine
 10
-229.36287357393707
 20
85.94996327952833
 30
0.0
 11
-236.15042897150474
 21
83.89883628765372
 31
0.0
  0
LINE
  5
9F
330
17
100
AcDbEntity
  8
FoilLayer
100
AcDbLine
 10
-236.15042897150474
 20
83.89883628765372
 30
0.0
 11
-242.79122474294604
 21
81.78358960854312
 31
0.0
  0
LINE
  5
A0
330
17
100
AcDbEntity
  8
FoilLayer
100
AcDbLine
 10
-242.79122474294604
 20
81.78358960854312
 30
0.0
 11
-249.2901063399679
 21
79.60002750388709
 31
0.0
  0
LINE
  5
A1
330
17
100
AcDbEntity
  8
FoilLayer
100
AcDbLine
 10
-249.2901063399679
 20
79.60002750388709
 30
0.0
 11
-255.6510403975202
 21
77.3471697141751
 31
0.0
  0
LINE
  5
A2
330
17
100
AcDbEntity
  8
FoilLayer
100
AcDbLine
 10
-255.6510403975202
 20
77.3471697141751
 30
0.0
 11
-261.87361403566985
 21
75.02749352040432
 31
0.0
  0
LINE
  5
A3
330
17
100
AcDbEntity
  8
FoilLayer
100
AcDbLine
 10
-261.87361403566985
 20
75.02749352040432
 30
0.0
 11
-267.9515309033626
 21
72.64760071013356
 31
0.0
  0
LINE
  5
A4
330
17
100
AcDbEntity
  8
FoilLayer
100
AcDbLine
 10
-267.9515309033626
 20
72.64760071013356
 30
0.0
 11
-273.87112010132705
 21
70.21682465145422
 31
0.0
  0
LINE
  5
A5
330
17
100
AcDbEntity
  8
FoilLayer
100
AcDbLine
 10
-273.87112010132705
 20
70.21682465145422
 30
0.0
 11
-279.6159076704533
 21
67.74225448301577
 31
0.0
  0
LINE
  5
A6
330
17
100
AcDbEntity
  8
FoilLayer
100
AcDbLine
 10
-279.6159076704533
 20
67.74225448301577
 30
0.0
 11
-285.17526990671274
 21
65.2294497102379
 31
0.0
  0
LINE
  5
A7
330
17
100
AcDbEntity
  8
FoilLayer
100
AcDbLine
 10
-285.17526990671274
 20
65.2294497102379
 30
0.0
 11
-290.5385068133211
 21
62.692685018211485
 31
0.0
  0
LINE
  5
A8
330
17
100
AcDbEntity
  8
FoilLayer
100
AcDbLine
 10
-290.5385068133211
 20
62.692685018211485
 30
0.0
 11
-295.6845955649525
 21
60.15517801471301
 31
0.0
  0
LINE
  5
A9
330
17
100
AcDbEntity
  8
FoilLayer
100
AcDbLine
 10
-295.6845955649525
 20
60.15517801471301
 30
0.0
 11
-300.58775751650217
 21
57.63680956688021
 31
0.0
  0
LINE
  5
AA
330
17
100
AcDbEntity
  8
FoilLayer
100
AcDbLine
 10
-300.58775751650217
 20
57.63680956688021
 30
0.0
 11
-305.2287106715143
 21
55.14984680067974
 31
0.0
  0
LINE
  5
AB
330
17
100
AcDbEntity
  8
FoilLayer
100
AcDbLine
 10
-305.2287106715143
 20
55.14984680067974
 30
0.0
 11
-309.5972530219676
 21
52.70174508571143
 31
0.0
  0
LINE
  5
AC
330
17
100
AcDbEntity
  8
FoilLayer
100
AcDbLine
 10
-309.5972530219676
 20
52.70174508571143
 30
0.0
 11
-313.69294998257595
 21
50.295965943092796
 31
0.0
  0
LINE
  5
AD
330
17
100
AcDbEntity
  8
FoilLayer
100
AcDbLine
 10
-313.69294998257595
 20
50.295965943092796
 30
0.0
 11
-317.52267812882064
 21
47.937490698831226
 31
0.0
  0
LINE
  5
AE
330
17
100
AcDbEntity
  8
FoilLayer
100
AcDbLine
 10
-317.52267812882064
 20
47.937490698831226
 30
0.0
 11
-321.0949895090028
 21
45.63503408424375
 31
0.0
  0
LINE
  5
AF
330
17
100
AcDbEntity
  8
FoilLayer
100
AcDbLine
 10
-321.0949895090028
 20
45.63503408424375
 30
0.0
 11
-324.4191686200989
 21
43.39690381707861
 31
0.0
  0
LINE
  5
B0
330
17
100
AcDbEntity
  8
FoilLayer
100
AcDbLine
 10
-324.4191686200989
 20
43.39690381707861
 30
0.0
 11
-327.5048155816366
 21
41.23064310025507
 31
0.0
  0
LINE
  5
B1
330
17
100
AcDbEntity
  8
FoilLayer
100
AcDbLine
 10
-327.5048155816366
 20
41.23064310025507
 30
0.0
 11
-330.36146696345236
 21
39.13983213986786
 31
0.0
  0
LINE
  5
B2
330
17
100
AcDbEntity
  8
FoilLayer
100
AcDbLine
 10
-330.36146696345236
 20
39.13983213986786
 30
0.0
 11
-333.0002117804605
 21
37.123423552611015
 31
0.0
  0
LINE
  5
B3
330
17
100
AcDbEntity
  8
FoilLayer
100
AcDbLine
 10
-333.0002117804605
 20
37.123423552611015
 30
0.0
 11
-335.43345840715426
 21
35.177446702715365
 31
0.0
  0
LINE
  5
B4
330
17
100
AcDbEntity
  8
FoilLayer
100
AcDbLine
 10
-335.43345840715426
 20
35.177446702715365
 30
0.0
 11
-337.67518117300216
 21
33.295509822190155
 31
0.0
  0
LINE
  5
B5
330
17
100
AcDbEntity
  8
FoilLayer
100
AcDbLine
 10
-337.67518117300216
 20
33.295509822190155
 30
0.0
 11
-339.7424157118923
 21
31.470924581990445
 31
0.0
  0
LINE
  5
B6
330
17
100
AcDbEntity
  8
FoilLayer
100
AcDbLine
 10
-339.7424157118923
 20
31.470924581990445
 30
0.0
 11
-341.6523177971223
 21
29.70352117663501
 31
0.0
  0
LINE
  5
B7
330
17
100
AcDbEntity
  8
FoilLayer
100
AcDbLine
 10
-341.6523177971223
 20
29.70352117663501
 30
0.0
 11
-343.4186432879122
 21
27.995804154805874
 31
0.0
  0
LINE
  5
B8
330
17
100
AcDbEntity
  8
FoilLayer
100
AcDbLine
 10
-343.4186432879122
 20
27.995804154805874
 30
0.0
 11
-345.0514994954855
 21
26.34780376681171
 31
0.0
  0
LINE
  5
B9
330
17
100
AcDbEntity
  8
FoilLayer
100
AcDbLine
 10
-345.0514994954855
 20
26.34780376681171
 30
0.0
 11
-346.5600724289906
 21
24.7556424886196
 31
0.0
  0
LINE
  5
BA
330
17
100
AcDbEntity
  8
FoilLayer
100
AcDbLine
 10
-346.5600724289906
 20
24.7556424886196
 30
0.0
 11
-347.95310401915606
 21
23.21589892725694
 31
0.0
  0
LINE
  5
BB
330
17
100
AcDbEntity
  8
FoilLayer
100
AcDbLine
 10
-347.95310401915606
 20
23.21589892725694
 30
0.0
 11
-349.23849394775766
 21
21.72524271688677
 31
0.0
  0
LINE
  5
BC
330
17
100
AcDbEntity
  8
FoilLayer
100
AcDbLine
 10
-349.23849394775766
 20
21.72524271688677
 30
0.0
 11
-350.42359128916337
 21
20.280209249332312
 31
0.0
  0
LINE
  5
BD
330
17
100
AcDbEntity
  8
FoilLayer
100
AcDbLine
 10
-350.42359128916337
 20
20.280209249332312
 30
0.0
 11
-351.51624970875633
 21
18.876150275514323
 31
0.0
  0
LINE
  5
BE
330
17
100
AcDbEntity
  8
FoilLayer
100
AcDbLine
 10
-351.51624970875633
 20
18.876150275514323
 30
0.0
 11
-352.52468715799364
 21
17.510720369119106
 31
0.0
  0
LINE
  5
BF
330
17
100
AcDbEntity
  8
FoilLayer
100
AcDbLine
 10
-352.52468715799364
 20
17.510720369119106
 30
0.0
 11
-353.45436696237886
 21
16.186275625682395
 31
0.0
  0
LINE
  5
C0
330
17
100
AcDbEntity
  8
FoilLayer
100
AcDbLine
 10
-353.45436696237886
 20
16.186275625682395
 30
0.0
 11
-354.30705209391795
 21
14.9031369710204
 31
0.0
  0
LINE
  5
C1
330
17
100
AcDbEntity
  8
FoilLayer
100
AcDbLine
 10
-354.30705209391795
 20
14.9031369710204
 30
0.0
 11
-355.0878465371839
 21
13.649208777751472
 31
0.0
  0
LINE
  5
C2
330
17
100
AcDbEntity
  8
FoilLayer
100
AcDbLine
 10
-355.0878465371839
 20
13.649208777751472
 30
0.0
 11
-355.8085504395998
 21
12.4160438239369
 31
0.0
  0
LINE
  5
C3
330
17
100
AcDbEntity
  8
FoilLayer
100
AcDbLine
 10
-355.8085504395998
 20
12.4160438239369
 30
0.0
 11
-356.4740219663918
 21
11.223905449767473
 31
0.0
  0
LINE
  5
C4
330
17
100
AcDbEntity
  8
FoilLayer
100
AcDbLine
 10
-356.4740219663918
 20
11.223905449767473
 30
0.0
 11
-357.07295689753835
 21
10.09008092623304
 31
0.0
  0
LINE
  5
C5
330
17
100
AcDbEntity
  8
FoilLayer
100
AcDbLine
 10
-357.07295689753835
 20
10.09008092623304
 30
0.0
 11
-357.59934787813216
 21
8.980376930061263
 31
0.0
  0
LINE
  5
C6
330
17
100
AcDbEntity
  8
FoilLayer
100
AcDbLine
 10
-357.59934787813216
 20
8.980376930061263
 30
0.0
 11
-358.06805677857324
 21
7.858937432226566
 31
0.0
  0
LINE
  5
C7
330
17
100
AcDbEntity
  8
FoilLayer
100
AcDbLine
 10
-358.06805677857324
 20
7.858937432226566
 30
0.0
 11
-358.49446037625756
 21
6.763021459021014
 31
0.0
  0
LINE
  5
C8
330
17
100
AcDbEntity
  8
FoilLayer
100
AcDbLine
 10
-358.49446037625756
 20
6.763021459021014
 30
0.0
 11
-358.86875080957935
 21
5.734618361423977
 31
0.0
  0
LINE
  5
C9
330
17
100
AcDbEntity
  8
FoilLayer
100
AcDbLine
 10
-358.86875080957935
 20
5.734618361423977
 30
0.0
 11
-359.1749741671603
 21
4.740583030919011
 31
0.0
  0
LINE
  5
CA
330
17
100
AcDbEntity
  8
FoilLayer
100
AcDbLine
 10
-359.1749741671603
 20
4.740583030919011
 30
0.0
 11
-359.41499811152966
 21
3.738851607191811
 31
0.0
  0
LINE
  5
CB
330
17
100
AcDbEntity
  8
FoilLayer
100
AcDbLine
 10
-359.41499811152966
 20
3.738851607191811
 30
0.0
 11
-359.6036211380769
 21
2.7464476483858227
 31
0.0
  0
LINE
  5
CC
330
17
100
AcDbEntity
  8
FoilLayer
100
AcDbLine
 10
-359.6036211380769
 20
2.7464476483858227
 30
0.0
 11
-359.7470300508406
 21
1.7895415792088916
 31
0.0
  0
LINE
  5
CD
330
17
100
AcDbEntity
  8
FoilLayer
100
AcDbLine
 10
-359.7470300508406
 20
1.7895415792088916
 30
0.0
 11
-359.8404671897568
 21
0.863158184837855
 31
0.0
  0
LINE
  5
CE
330
17
100
AcDbEntity
  8
FoilLayer
100
AcDbLine
 10
-359.8404671897568
 20
0.863158184837855
 30
0.0
 11
-359.88157894736844
 21
-0.06003746027458316
 31
0.0
  0
LINE
  5
CF
330
17
100
AcDbEntity
  8
FoilLayer
100
AcDbLine
 10
-359.88157894736844
 20
-0.06003746027458316
 30
0.0
 11
-359.87288881701016
 21
-0.9133964903441166
 31
0.0
  0
LINE
  5
D0
330
17
100
AcDbEntity
  8
FoilLayer
100
AcDbLine
 10
-359.87288881701016
 20
-0.9133964903441166
 30
0.0
 11
-359.808417703926
 21
-1.772219078319548
 31
0.0
  0
LINE
  5
D1
330
17
100
AcDbEntity
  8
FoilLayer
100
AcDbLine
 10
-359.808417703926
 20
-1.772219078319548
 30
0.0
 11
-359.6730108070344
 21
-2.6294896057418167
 31
0.0
  0
LINE
  5
D2
330
17
100
AcDbEntity
  8
FoilLayer
100
AcDbLine
 10
-359.6730108070344
 20
-2.6294896057418167
 30
0.0
 11
-359.4577933147678
 21
-3.4922754636399724
 31
0.0
  0
LINE
  5
D3
330
17
100
AcDbEntity
  8
FoilLayer
100
AcDbLine
 10
-359.4577933147678
 20
-3.4922754636399724
 30
0.0
 11
-359.16449594336706
 21
-4.354975316619326
 31
0.0
  0
LINE
  5
D4
330
17
100
AcDbEntity
  8
FoilLayer
100
AcDbLine
 10
-359.16449594336706
 20
-4.354975316619326
 30
0.0
 11
-358.79582783159196
 21
-5.209896165705816
 31
0.0
  0
LINE
  5
D5
330
17
100
AcDbEntity
  8
FoilLayer
100
AcDbLine
 10
-358.79582783159196
 20
-5.209896165705816
 30
0.0
 11
-358.35197245505685
 21
-6.051114170142659
 31
0.0
  0
LINE
  5
D6
330
17
100
AcDbEntity
  8
FoilLayer
100
AcDbLine
 10
-358.35197245505685
 20
-6.051114170142659
 30
0.0
 11
-357.83210271971456
 21
-6.872803270874001
 31
0.0
  0
LINE
  5
D7
330
17
100
AcDbEntity
  8
FoilLayer
100
AcDbLine
 10
-357.83210271971456
 20
-6.872803270874001
 30
0.0
 11
-357.22856090585606
 21
-7.675860210968077
 31
0.0
  0
LINE
  5
D8
330
17
100
AcDbEntity
  8
FoilLayer
100
AcDbLine
 10
-357.22856090585606
 20
-7.675860210968077
 30
0.0
 11
-356.5377942548392
 21
-8.462280289516961
 31
0.0
  0
LINE
  5
D9
330
17
100
AcDbEntity
  8
FoilLayer
100
AcDbLine
 10
-356.5377942548392
 20
-8.462280289516961
 30
0.0
 11
-355.76654749242135
 21
-9.23016684031881
 31
0.0
  0
LINE
  5
DA
330
17
100
AcDbEntity
  8
FoilLayer
100
AcDbLine
 10
-355.76654749242135
 20
-9.23016684031881
 30
0.0
 11
-354.91960368327807
 21
-9.977829378465058
 31
0.0
  0
LINE
  5
DB
330
17
100
AcDbEntity
  8
FoilLayer
100
AcDbLine
 10
-354.91960368327807
 20
-9.977829378465058
 30
0.0
 11
-353.99919119338534
 21
-10.703472589782924
 31
0.0
  0
LINE
  5
DC
330
17
100
AcDbEntity
  8
FoilLayer
100
AcDbLine
 10
-353.99919119338534
 20
-10.703472589782924
 30
0.0
 11
-353.00540012564176
 21
-11.405022380719544
 31
0.0
  0
LINE
  5
DD
330
17
100
AcDbEntity
  8
FoilLayer
100
AcDbLine
 10
-353.00540012564176
 20
-11.405022380719544
 30
0.0
 11
-351.93414681547506
 21
-12.081292728378374
 31
0.0
  0
LINE
  5
DE
330
17
100
AcDbEntity
  8
FoilLayer
100
AcDbLine
 10
-351.93414681547506
 20
-12.081292728378374
 30
0.0
 11
-350.78096840865874
 21
-12.732337821377788
 31
0.0
  0
LINE
  5
DF
330
17
100
AcDbEntity
  8
FoilLayer
100
AcDbLine
 10
-350.78096840865874
 20
-12.732337821377788
 30
0.0
 11
-349.5405777273953
 21
-13.360002675669424
 31
0.0
  0
LINE
  5
E0
330
17
100
AcDbEntity
  8
FoilLayer
100
AcDbLine
 10
-349.5405777273953
 20
-13.360002675669424
 30
0.0
 11
-348.2087720236399
 21
-13.968248772571716
 31
0.0
  0
LINE
  5
E1
330
17
100
AcDbEntity
  8
FoilLayer
100
AcDbLine
 10
-348.2087720236399
 20
-13.968248772571716
 30
0.0
 11
-346.78363671170075
 21
-14.562507683765398
 31
0.0
  0
LINE
  5
E2
330
17
100
AcDbEntity
  8
FoilLayer
100
AcDbLine
 10
-346.78363671170075
 20
-14.562507683765398
 30
0.0
 11
-345.2638605959593
 21
-15.147733659052214
 31
0.0
  0
LINE
  5
E3
330
17
100
AcDbEntity
  8
FoilLayer
100
AcDbLine
 10
-345.2638605959593
 20
-15.147733659052214
 30
0.0
 11
-343.64561850304136
 21
-15.727526622810107
 31
0.0
  0
LINE
  5
E4
330
17
100
AcDbEntity
  8
FoilLayer
100
AcDbLine
 10
-343.64561850304136
 20
-15.727526622810107
 30
0.0
 11
-341.92313729954424
 21
-16.30422697175671
 31
0.0
  0
LINE
  5
E5
330
17
100
AcDbEntity
  8
FoilLayer
100
AcDbLine
 10
-341.92313729954424
 20
-16.30422697175671
 30
0.0
 11
-340.08947816374683
 21
-16.878972167854155
 31
0.0
  0
LINE
  5
E6
330
17
100
AcDbEntity
  8
FoilLayer
100
AcDbLine
 10
-340.08947816374683
 20
-16.878972167854155
 30
0.0
 11
-338.13759266195757
 21
-17.450691751116864
 31
0.0
  0
LINE
  5
E7
330
17
100
AcDbEntity
  8
FoilLayer
100
AcDbLine
 10
-338.13759266195757
 20
-17.450691751116864
 30
0.0
 11
-336.0547138262502
 21
-18.014807182176845
 31
0.0
  0
LINE
  5
E8
330
17
100
AcDbEntity
  8
FoilLayer
100
AcDbLine
 10
-336.0547138262502
 20
-18.014807182176845
 30
0.0
 11
-333.8205348727614
 21
-18.567088233116383
 31
0.0
  0
LINE
  5
E9
330
17
100
AcDbEntity
  8
FoilLayer
100
AcDbLine
 10
-333.8205348727614
 20
-18.567088233116383
 30
0.0
 11
-331.4159591975222
 21
-19.109535341406357
 31
0.0
  0
LINE
  5
EA
330
17
100
AcDbEntity
  8
FoilLayer
100
AcDbLine
 10
-331.4159591975222
 20
-19.109535341406357
 30
0.0
 11
-328.8257781286288
 21
-19.647595681051172
 31
0.0
  0
LINE
  5
EB
330
17
100
AcDbEntity
  8
FoilLayer
100
AcDbLine
 10
-328.8257781286288
 20
-19.647595681051172
 30
0.0
 11
-326.0334395317797
 21
-20.185164022576057
 31
0.0
  0
LINE
  5
EC
330
17
100
AcDbEntity
  8
FoilLayer
100
AcDbLine
 10
-326.0334395317797
 20
-20.185164022576057
 30
0.0
 11
-323.02055735775866
 21
-20.723781334815413
 31
0.0
  0
LINE
  5
ED
330
17
100
AcDbEntity
  8
FoilLayer
100
AcDbLine
 10
-323.02055735775866
 20
-20.723781334815413
 30
0.0
 11
-319.7685270399222
 21
-21.25962451228348
 31
0.0
  0
LINE
  5
EE
330
17
100
AcDbEntity
  8
FoilLayer
100
AcDbLine
 10
-319.7685270399222
 20
-21.25962451228348
 30
0.0
 11
-316.25368767110473
 21
-21.782548576532307
 31
0.0
  0
LINE
  5
EF
330
17
100
AcDbEntity
  8
FoilLayer
100
AcDbLine
 10
-316.25368767110473
 20
-21.782548576532307
 30
0.0
 11
-312.44748598303096
 21
-22.282837467729287
 31
0.0
  0
LINE
  5
F0
330
17
100
AcDbEntity
  8
FoilLayer
100
AcDbLine
 10
-312.44748598303096
 20
-22.282837467729287
 30
0.0
 11
-308.3173326763313
 21
-22.753582582170104
 31
0.0
  0
LINE
  5
F1
330
17
100
AcDbEntity
  8
FoilLayer
100
AcDbLine
 10
-308.3173326763313
 20
-22.753582582170104
 30
0.0
 11
-303.8268091507511
 21
-23.192849700483052
 31
0.0
  0
LINE
  5
F2
330
17
100
AcDbEntity
  8
FoilLayer
100
AcDbLine
 10
-303.8268091507511
 20
-23.192849700483052
 30
0.0
 11
-298.94848907019116
 21
-23.608272242277337
 31
0.0
  0
LINE
  5
F3
330
17
100
AcDbEntity
  8
FoilLayer
100
AcDbLine
 10
-298.94848907019116
 20
-23.608272242277337
 30
0.0
 11
-293.67667024597563
 21
-24.00509584862513
 31
0.0
  0
LINE
  5
F4
330
17
100
AcDbEntity
  8
FoilLayer
100
AcDbLine
 10
-293.67667024597563
 20
-24.00509584862513
 30
0.0
 11
-288.0170113489359
 21
-24.372484296256957
 31
0.0
  0
LINE
  5
F5
330
17
100
AcDbEntity
  8
FoilLayer
100
AcDbLine
 10
-288.0170113489359
 20
-24.372484296256957
 30
0.0
 11
-281.9717290685044
 21
-24.694407107848487
 31
0.0
  0
LINE
  5
F6
330
17
100
AcDbEntity
  8
FoilLayer
100
AcDbLine
 10
-281.9717290685044
 20
-24.694407107848487
 30
0.0
 11
-275.54418694186006
 21
-24.962911059934044
 31
0.0
  0
LINE
  5
F7
330
17
100
AcDbEntity
  8
FoilLayer
100
AcDbLine
 10
-275.54418694186006
 20
-24.962911059934044
 30
0.0
 11
-268.7441790084216
 21
-25.17806642258524
 31
0.0
  0
LINE
  5
F8
330
17
100
AcDbEntity
  8
FoilLayer
100
AcDbLine
 10
-268.7441790084216
 20
-25.17806642258524
 30
0.0
 11
-261.59946041776976
 21
-25.348359861647655
 31
0.0
  0
LINE
  5
F9
330
17
100
AcDbEntity
  8
FoilLayer
100
AcDbLine
 10
-261.59946041776976
 20
-25.348359861647655
 30
0.0
 11
-254.17208296750294
 21
-25.482275533260307
 31
0.0
  0
LINE
  5
FA
330
17
100
AcDbEntity
  8
FoilLayer
100
AcDbLine
 10
-254.17208296750294
 20
-25.482275533260307
 30
0.0
 11
-246.53913787003802
 21
-25.575178943337832
 31
0.0
  0
LINE
  5
FB
330
17
100
AcDbEntity
  8
FoilLayer
100
AcDbLine
 10
-246.53913787003802
 20
-25.575178943337832
 30
0.0
 11
-238.75737334510976
 21
-25.614391719253085
 31
0.0
  0
LINE
  5
FC
330
17
100
AcDbEntity
  8
FoilLayer
100
AcDbLine
 10
-238.75737334510976
 20
-25.614391719253085
 30
0.0
 11
-230.85133293390595
 21
-25.58578868329794
 31
0.0
  0
LINE
  5
FD
330
17
100
AcDbEntity
  8
FoilLayer
100
AcDbLine
 10
-230.85133293390595
 20
-25.58578868329794
 30
0.0
 11
-222.8023939298759
 21
-25.482084180645476
 31
0.0
  0
LINE
  5
FE
330
17
100
AcDbEntity
  8
FoilLayer
100
AcDbLine
 10
-222.8023939298759
 20
-25.482084180645476
 30
0.0
 11
-214.5831729819646
 21
-25.31629239375625
 31
0.0
  0
LINE
  5
FF
330
17
100
AcDbEntity
  8
FoilLayer
100
AcDbLine
 10
-214.5831729819646
 20
-25.31629239375625
 30
0.0
 11
-206.21355838263878
 21
-25.109075201389278
 31
0.0
  0
LINE
  5
100
330
17
100
AcDbEntity
  8
FoilLayer
100
AcDbLine
 10
-206.21355838263878
 20
-25.109075201389278
 30
0.0
 11
-197.7303096366185
 21
-24.863731190905064
 31
0.0
  0
LINE
  5
101
330
17
100
AcDbEntity
  8
FoilLayer
100
AcDbLine
 10
-197.7303096366185
 20
-24.863731190905064
 30
0.0
 11
-189.13798302502363
 21
-24.577876949812378
 31
0.0
  0
LINE
  5
102
330
17
100
AcDbEntity
  8
FoilLayer
100
AcDbLine
 10
-189.13798302502363
 20
-24.577876949812378
 30
0.0
 11
-180.43564383315692
 21
-24.260533521278074
 31
0.0
  0
LINE
  5
103
330
17
100
AcDbEntity
  8
FoilLayer
100
AcDbLine
 10
-180.43564383315692
 20
-24.260533521278074
 30
0.0
 11
-171.6510792702411
 21
-23.92543491928283
 31
0.0
  0
LINE
  5
104
330
17
100
AcDbEntity
  8
FoilLayer
100
AcDbLine
 10
-171.6510792702411
 20
-23.92543491928283
 30
0.0
 11
-168.7037314491658
 21
-23.809426742680834
 31
0.0
  0
LINE
  5
105
330
17
100
AcDbEntity
  8
FoilLayer
100
AcDbLine
 10
-168.7037314491658
 20
-23.809426742680834
 30
0.0
 11
-168.66243522422343
 21
-24.85861434354424
 31
0.0
  0
LINE
  5
106
330
17
100
AcDbEntity
  8
FoilLayer
100
AcDbLine
 10
-168.66243522422343
 20
-24.85861434354424
 30
0.0
 11
-162.78417730613032
 21
-24.627245639649423
 31
0.0
  0
LINE
  5
107
330
17
100
AcDbEntity
  8
FoilLayer
100
AcDbLine
 10
-162.78417730613032
 20
-24.627245639649423
 30
0.0
 11
-153.95385735220574
 21
-24.264572967372487
 31
0.0
  0
LINE
  5
108
330
17
100
AcDbEntity
  8
FoilLayer
100
AcDbLine
 10
-153.95385735220574
 20
-24.264572967372487
 30
0.0
 11
-145.12940964662084
 21
-23.875512879832172
 31
0.0
  0
LINE
  5
109
330
17
100
AcDbEntity
  8
FoilLayer
100
AcDbLine
 10
-145.12940964662084
 20
-23.875512879832172
 30
0.0
 11
-136.28488024457417
 21
-23.45328655216372
 31
0.0
  0
LINE
  5
10A
330
17
100
AcDbEntity
  8
FoilLayer
100
AcDbLine
 10
-136.28488024457417
 20
-23.45328655216372
 30
0.0
 11
-127.39713942221249
 21
-23.004920348321033
 31
0.0
  0
LINE
  5
10B
330
17
100
AcDbEntity
  8
FoilLayer
100
AcDbLine
 10
-127.39713942221249
 20
-23.004920348321033
 30
0.0
 11
-118.4718591339311
 21
-22.540834136803532
 31
0.0
  0
LINE
  5
10C
330
17
100
AcDbEntity
  8
FoilLayer
100
AcDbLine
 10
-118.4718591339311
 20
-22.540834136803532
 30
0.0
 11
-109.53014210361462
 21
-22.06692631453783
 31
0.0
  0
LINE
  5
10D
330
17
100
AcDbEntity
  8
FoilLayer
100
AcDbLine
 10
-109.53014210361462
 20
-22.06692631453783
 30
0.0
 11
-100.59742868252846
 21
-21.581773579505313
 31
0.0
  0
LINE
  5
10E
330
17
100
AcDbEntity
  8
FoilLayer
100
AcDbLine
 10
-100.59742868252846
 20
-21.581773579505313
 30
0.0
 11
-91.67679328350903
 21
-21.075146844150712
 31
0.0
  0
LINE
  5
10F
330
17
100
AcDbEntity
  8
FoilLayer
100
AcDbLine
 10
-91.67679328350903
 20
-21.075146844150712
 30
0.0
 11
-82.7401176022268
 21
-20.54094202887595
 31
0.0
  0
LINE
  5
110
330
17
100
AcDbEntity
  8
FoilLayer
100
AcDbLine
 10
-82.7401176022268
 20
-20.54094202887595
 30
0.0
 11
-73.76241252730443
 21
-19.984147913379953
 31
0.0
  0
LINE
  5
111
330
17
100
AcDbEntity
  8
FoilLayer
100
AcDbLine
 10
-73.76241252730443
 20
-19.984147913379953
 30
0.0
 11
-64.74326042337668
 21
-19.417674315181824
 31
0.0
  0
LINE
  5
112
330
17
100
AcDbEntity
  8
FoilLayer
100
AcDbLine
 10
-64.74326042337668
 20
-19.417674315181824
 30
0.0
 11
-55.703696091782945
 21
-18.856598682328713
 31
0.0
  0
LINE
  5
113
330
17
100
AcDbEntity
  8
FoilLayer
100
AcDbLine
 10
-55.703696091782945
 20
-18.856598682328713
 30
0.0
 11
-46.643490219242324
 21
-18.30057469257868
 31
0.0
  0
LINE
  5
114
330
17
100
AcDbEntity
  8
FoilLayer
100
AcDbLine
 10
-46.643490219242324
 20
-18.30057469257868
 30
0.0
 11
-37.57428574821364
 21
-17.737044102314915
 31
0.0
  0
LINE
  5
115
330
17
100
AcDbEntity
  8
FoilLayer
100
AcDbLine
 10
-37.57428574821364
 20
-17.737044102314915
 30
0.0
 11
-28.483550241862872
 21
-17.16202511957205
 31
0.0
  0
LINE
  5
116
330
17
100
AcDbEntity
  8
FoilLayer
100
AcDbLine
 10
-28.483550241862872
 20
-17.16202511957205
 30
0.0
 11
-19.370955831097206
 21
-16.582170431491992
 31
0.0
  0
LINE
  5
117
330
17
100
AcDbEntity
  8
FoilLayer
100
AcDbLine
 10
-19.370955831097206
 20
-16.582170431491992
 30
0.0
 11
-10.251016266480406
 21
-16.00394661925247
 31
0.0
  0
LINE
  5
118
330
17
100
AcDbEntity
  8
FoilLayer
100
AcDbLine
 10
-10.251016266480406
 20
-16.00394661925247
 30
0.0
 11
-1.1285434634195894
 21
-15.430057764087563
 31
0.0
  0
LINE
  5
119
330
17
100
AcDbEntity
  8
FoilLayer
100
AcDbLine
 10
-1.1285434634195894
 20
-15.430057764087563
 30
0.0
 11
7.996120192164597
 21
-14.86109138603447
 31
0.0
  0
LINE
  5
11A
330
17
100
AcDbEntity
  8
FoilLayer
100
AcDbLine
 10
7.996120192164597
 20
-14.86109138603447
 30
0.0
 11
17.119985105384274
 21
-14.294746681891588
 31
0.0
  0
LINE
  5
11B
330
17
100
AcDbEntity
  8
FoilLayer
100
AcDbLine
 10
17.119985105384274
 20
-14.294746681891588
 30
0.0
 11
26.23531325493127
 21
-13.72504491153768
 31
0.0
  0
LINE
  5
11C
330
17
100
AcDbEntity
  8
FoilLayer
100
AcDbLine
 10
26.23531325493127
 20
-13.72504491153768
 30
0.0
 11
35.349316768043934
 21
-13.146463735849144
 31
0.0
  0
LINE
  5
11D
330
17
100
AcDbEntity
  8
FoilLayer
100
AcDbLine
 10
35.349316768043934
 20
-13.146463735849144
 30
0.0
 11
44.47112211531373
 21
-12.562847084542033
 31
0.0
  0
LINE
  5
11E
330
17
100
AcDbEntity
  8
FoilLayer
100
AcDbLine
 10
44.47112211531373
 20
-12.562847084542033
 30
0.0
 11
53.59247782910677
 21
-11.982498895803941
 31
0.0
  0
LINE
  5
11F
330
17
100
AcDbEntity
  8
FoilLayer
100
AcDbLine
 10
53.59247782910677
 20
-11.982498895803941
 30
0.0
 11
62.71502455774396
 21
-11.407936845872788
 31
0.0
  0
LINE
  5
120
330
17
100
AcDbEntity
  8
FoilLayer
100
AcDbLine
 10
62.71502455774396
 20
-11.407936845872788
 30
0.0
 11
71.8399857586096
 21
-10.837825532984576
 31
0.0
  0
LINE
  5
121
330
17
100
AcDbEntity
  8
FoilLayer
100
AcDbLine
 10
71.8399857586096
 20
-10.837825532984576
 30
0.0
 11
80.96268293673762
 21
-10.266669316008311
 31
0.0
  0
LINE
  5
122
330
17
100
AcDbEntity
  8
FoilLayer
100
AcDbLine
 10
80.96268293673762
 20
-10.266669316008311
 30
0.0
 11
90.08055562004591
 21
-9.689731588039376
 31
0.0
  0
LINE
  5
123
330
17
100
AcDbEntity
  8
FoilLayer
100
AcDbLine
 10
90.08055562004591
 20
-9.689731588039376
 30
0.0
 11
99.19944939790184
 21
-9.106520213496994
 31
0.0
  0
LINE
  5
124
330
17
100
AcDbEntity
  8
FoilLayer
100
AcDbLine
 10
99.19944939790184
 20
-9.106520213496994
 30
0.0
 11
108.31726257222073
 21
-8.52030419590994
 31
0.0
  0
LINE
  5
125
330
17
100
AcDbEntity
  8
FoilLayer
100
AcDbLine
 10
108.31726257222073
 20
-8.52030419590994
 30
0.0
 11
117.42614652535713
 21
-7.937061287538629
 31
0.0
  0
LINE
  5
126
330
17
100
AcDbEntity
  8
FoilLayer
100
AcDbLine
 10
117.42614652535713
 20
-7.937061287538629
 30
0.0
 11
126.52384639627633
 21
-7.36152242986326
 31
0.0
  0
LINE
  5
127
330
17
100
AcDbEntity
  8
FoilLayer
100
AcDbLine
 10
126.52384639627633
 20
-7.36152242986326
 30
0.0
 11
135.61487532351202
 21
-6.79523667325254
 31
0.0
  0
LINE
  5
128
330
17
100
AcDbEntity
  8
FoilLayer
100
AcDbLine
 10
135.61487532351202
 20
-6.79523667325254
 30
0.0
 11
144.70434919852522
 21
-6.237438343354124
 31
0.0
  0
LINE
  5
129
330
17
100
AcDbEntity
  8
FoilLayer
100
AcDbLine
 10
144.70434919852522
 20
-6.237438343354124
 30
0.0
 11
153.79218172413903
 21
-5.6859043450936655
 31
0.0
  0
LINE
  5
12A
330
17
100
AcDbEntity
  8
FoilLayer
100
AcDbLine
 10
153.79218172413903
 20
-5.6859043450936655
 30
0.0
 11
162.87098381573344
 21
-5.141012587535865
 31
0.0
  0
LINE
  5
12B
330
17
100
AcDbEntity
  8
FoilLayer
100
AcDbLine
 10
162.87098381573344
 20
-5.141012587535865
 30
0.0
 11
171.937630625078
 21
-4.605458542630281
 31
0.0
  0
LINE
  5
12C
330
17
100
AcDbEntity
  8
FoilLayer
100
AcDbLine
 10
171.937630625078
 20
-4.605458542630281
 30
0.0
 11
180.99621012846137
 21
-4.082618959928696
 31
0.0
  0
LINE
  5
12D
330
17
100
AcDbEntity
  8
FoilLayer
100
AcDbLine
 10
180.99621012846137
 20
-4.082618959928696
 30
0.0
 11
190.05971665209108
 21
-3.574245677484693
 31
0.0
  0
LINE
  5
12E
330
17
100
AcDbEntity
  8
FoilLayer
100
AcDbLine
 10
190.05971665209108
 20
-3.574245677484693
 30
0.0
 11
199.1441560299587
 21
-3.0758187058472517
 31
0.0
  0
LINE
  5
12F
330
17
100
AcDbEntity
  8
FoilLayer
100
AcDbLine
 10
199.1441560299587
 20
-3.0758187058472517
 30
0.0
 11
208.24715843353454
 21
-2.5801078140927163
 31
0.0
  0
LINE
  5
130
330
17
100
AcDbEntity
  8
FoilLayer
100
AcDbLine
 10
208.24715843353454
 20
-2.5801078140927163
 30
0.0
 11
217.3538272311157
 21
-2.0813235954550873
 31
0.0
  0
LINE
  5
131
330
17
100
AcDbEntity
  8
FoilLayer
100
AcDbLine
 10
217.3538272311157
 20
-2.0813235954550873
 30
0.0
 11
226.4632199701091
 21
-1.5756852407528168
 31
0.0
  0
LINE
  5
132
330
17
100
AcDbEntity
  8
FoilLayer
100
AcDbLine
 10
226.4632199701091
 20
-1.5756852407528168
 30
0.0
 11
235.57387293338002
 21
-1.0677122417855078
 31
0.0
  0
LINE
  5
133
330
17
100
AcDbEntity
  8
FoilLayer
100
AcDbLine
 10
235.57387293338002
 20
-1.0677122417855078
 30
0.0
 11
244.67666991952865
 21
-0.5658992434955719
 31
0.0
  0
LINE
  5
134
330
17
100
AcDbEntity
  8
FoilLayer
100
AcDbLine
 10
244.67666991952865
 20
-0.5658992434955719
 30
0.0
 11
253.77661629078125
 21
-0.07285914449826986
 31
0.0
  0
LINE
  5
135
330
17
100
AcDbEntity
  8
FoilLayer
100
AcDbLine
 10
253.77661629078125
 20
-0.07285914449826986
 30
0.0
 11
262.87911787867506
 21
0.41283889046450545
 31
0.0
  0
LINE
  5
136
330
17
100
AcDbEntity
  8
FoilLayer
100
AcDbLine
 10
262.87911787867506
 20
0.41283889046450545
 30
0.0
 11
271.97920701714975
 21
0.8977503242194196
 31
0.0
  0
LINE
  5
137
330
17
100
AcDbEntity
  8
FoilLayer
100
AcDbLine
 10
271.97920701714975
 20
0.8977503242194196
 30
0.0
 11
281.0674653109269
 21
1.387304141561751
 31
0.0
  0
LINE
  5
138
330
17
100
AcDbEntity
  8
FoilLayer
100
AcDbLine
 10
281.0674653109269
 20
1.387304141561751
 30
0.0
 11
290.13980174569565
 21
1.8749550629256733
 31
0.0
  0
LINE
  5
139
330
17
100
AcDbEntity
  8
FoilLayer
100
AcDbLine
 10
290.13980174569565
 20
1.8749550629256733
 30
0.0
 11
299.18791150282357
 21
2.350957673379949
 31
0.0
  0
LINE
  5
13A
330
17
100
AcDbEntity
  8
FoilLayer
100
AcDbLine
 10
299.18791150282357
 20
2.350957673379949
 30
0.0
 11
308.22254535957165
 21
2.8108662461013294
 31
0.0
  0
LINE
  5
13B
330
17
100
AcDbEntity
  8
FoilLayer
100
AcDbLine
 10
308.22254535957165
 20
2.8108662461013294
 30
0.0
 11
317.26043831725406
 21
3.2552388764119464
 31
0.0
  0
LINE
  5
13C
330
17
100
AcDbEntity
  8
FoilLayer
100
AcDbLine
 10
317.26043831725406
 20
3.2552388764119464
 30
0.0
 11
326.3073041178893
 21
3.692466622746677
 31
0.0
  0
LINE
  5
13D
330
17
100
AcDbEntity
  8
FoilLayer
100
AcDbLine
 10
326.3073041178893
 20
3.692466622746677
 30
0.0
 11
335.3410328104675
 21
4.12709552857237
 31
0.0
  0
LINE
  5
13E
330
17
100
AcDbEntity
  8
FoilLayer
100
AcDbLine
 10
335.3410328104675
 20
4.12709552857237
 30
0.0
 11
344.3328648020689
 21
4.556443311666067
 31
0.0
  0
LINE
  5
13F
330
17
100
AcDbEntity
  8
FoilLayer
100
AcDbLine
 10
344.3328648020689
 20
4.556443311666067
 30
0.0
 11
353.26099448612285
 21
4.971364977020473
 31
0.0
  0
LINE
  5
140
330
17
100
AcDbEntity
  8
FoilLayer
100
AcDbLine
 10
353.26099448612285
 20
4.971364977020473
 30
0.0
 11
362.12702495990675
 21
5.3588245324354284
 31
0.0
  0
LINE
  5
141
330
17
100
AcDbEntity
  8
FoilLayer
100
AcDbLine
 10
362.12702495990675
 20
5.3588245324354284
 30
0.0
 11
370.9581721856904
 21
5.7172471661501785
 31
0.0
  0
LINE
  5
142
330
17
100
AcDbEntity
  8
FoilLayer
100
AcDbLine
 10
370.9581721856904
 20
5.7172471661501785
 30
0.0
 11
379.7502575337053
 21
6.059870171942687
 31
0.0
  0
LINE
  5
143
330
17
100
AcDbEntity
  8
FoilLayer
100
AcDbLine
 10
379.7502575337053
 20
6.059870171942687
 30
0.0
 11
388.4575650999369
 21
6.3820079589913945
 31
0.0
  0
LINE
  5
144
330
17
100
AcDbEntity
  8
FoilLayer
100
AcDbLine
 10
388.4575650999369
 20
6.3820079589913945
 30
0.0
 11
397.0766173667
 21
6.659337447631436
 31
0.0
  0
LINE
  5
145
330
17
100
AcDbEntity
  8
FoilLayer
100
AcDbLine
 10
397.0766173667
 20
6.659337447631436
 30
0.0
 11
405.6517300668563
 21
6.8844095562592456
 31
0.0
  0
LINE
  5
146
330
17
100
AcDbEntity
  8
FoilLayer
100
AcDbLine
 10
405.6517300668563
 20
6.8844095562592456
 30
0.0
 11
414.21133416801706
 21
7.067435805589505
 31
0.0
  0
LINE
  5
147
330
17
100
AcDbEntity
  8
FoilLayer
100
AcDbLine
 10
414.21133416801706
 20
7.067435805589505
 30
0.0
 11
422.738511425601
 21
7.2282676173898945
 31
0.0
  0
LINE
  5
148
330
17
100
AcDbEntity
  8
FoilLayer
100
AcDbLine
 10
422.738511425601
 20
7.2282676173898945
 30
0.0
 11
431.19068196409853
 21
7.394422712802908
 31
0.0
  0
LINE
  5
149
330
17
100
AcDbEntity
  8
FoilLayer
100
AcDbLine
 10
431.19068196409853
 20
7.394422712802908
 30
0.0
 11
439.48439629608333
 21
7.541540891908838
 31
0.0
  0
LINE
  5
14A
330
17
100
AcDbEntity
  8
FoilLayer
100
AcDbLine
 10
439.48439629608333
 20
7.541540891908838
 30
0.0
 11
447.61775617125375
 21
7.597536776330446
 31
0.0
  0
LINE
  5
14B
330
17
100
AcDbEntity
  8
FoilLayer
100
AcDbLine
 10
447.61775617125375
 20
7.597536776330446
 30
0.0
 11
455.7280695645495
 21
7.560145159784186
 31
0.0
  0
LINE
  5
14C
330
17
100
AcDbEntity
  8
FoilLayer
100
AcDbLine
 10
455.7280695645495
 20
7.560145159784186
 30
0.0
 11
463.84087849188904
 21
7.5200595498235225
 31
0.0
  0
LINE
  5
14D
330
17
100
AcDbEntity
  8
FoilLayer
100
AcDbLine
 10
463.84087849188904
 20
7.5200595498235225
 30
0.0
 11
471.8713500359813
 21
7.496809250818332
 31
0.0
  0
LINE
  5
14E
330
17
100
AcDbEntity
  8
FoilLayer
100
AcDbLine
 10
471.8713500359813
 20
7.496809250818332
 30
0.0
 11
479.794148659842
 21
7.409314044842042
 31
0.0
  0
LINE
  5
14F
330
17
100
AcDbEntity
  8
FoilLayer
100
AcDbLine
 10
479.794148659842
 20
7.409314044842042
 30
0.0
 11
487.6846084061541
 21
7.229685354064154
 31
0.0
  0
LINE
  5
150
330
17
100
AcDbEntity
  8
FoilLayer
100
AcDbLine
 10
487.6846084061541
 20
7.229685354064154
 30
0.0
 11
495.55518433520456
 21
7.051930708923893
 31
0.0
  0
LINE
  5
151
330
17
100
AcDbEntity
  8
FoilLayer
100
AcDbLine
 10
495.55518433520456
 20
7.051930708923893
 30
0.0
 11
503.342490119701
 21
6.914724728719187
 31
0.0
  0
LINE
  5
152
330
17
100
AcDbEntity
  8
FoilLayer
100
AcDbLine
 10
503.342490119701
 20
6.914724728719187
 30
0.0
 11
511.02125994170945
 21
6.720560472376563
 31
0.0
  0
LINE
  5
153
330
17
100
AcDbEntity
  8
FoilLayer
100
AcDbLine
 10
511.02125994170945
 20
6.720560472376563
 30
0.0
 11
518.6677937521335
 21
6.39196509490825
 31
0.0
  0
LINE
  5
154
330
17
100
AcDbEntity
  8
FoilLayer
100
AcDbLine
 10
518.6677937521335
 20
6.39196509490825
 30
0.0
 11
526.3670578891624
 21
5.998304733123724
 31
0.0
  0
LINE
  5
155
330
17
100
AcDbEntity
  8
FoilLayer
100
AcDbLine
 10
526.3670578891624
 20
5.998304733123724
 30
0.0
 11
534.026423774581
 21
5.608086710284335
 31
0.0
  0
LINE
  5
156
330
17
100
AcDbEntity
  8
FoilLayer
100
AcDbLine
 10
534.026423774581
 20
5.608086710284335
 30
0.0
 11
541.4909993666009
 21
5.190570939613703
 31
0.0
  0
LINE
  5
157
330
17
100
AcDbEntity
  8
FoilLayer
100
AcDbLine
 10
541.4909993666009
 20
5.190570939613703
 30
0.0
 11
548.8066658859719
 21
4.62718498926191
 31
0.0
  0
LINE
  5
158
330
17
100
AcDbEntity
  8
FoilLayer
100
AcDbLine
 10
548.8066658859719
 20
4.62718498926191
 30
0.0
 11
556.0864005279716
 21
3.9868814685817426
 31
0.0
  0
LINE
  5
159
330
17
100
AcDbEntity
  8
FoilLayer
100
AcDbLine
 10
556.0864005279716
 20
3.9868814685817426
 30
0.0
 11
563.2309892334864
 21
3.31858749529745
 31
0.0
  0
LINE
  5
15A
330
17
100
AcDbEntity
  8
FoilLayer
100
AcDbLine
 10
563.2309892334864
 20
3.31858749529745
 30
0.0
 11
570.1393233338574
 21
2.6598470469987636
 31
0.0
  0
LINE
  5
15B
330
17
100
AcDbEntity
  8
FoilLayer
100
AcDbLine
 10
570.1393233338574
 20
2.6598470469987636
 30
0.0
 11
576.7157754149273
 21
1.9801865700294907
 31
0.0
  0
LINE
  5
15C
330
17
100
AcDbEntity
  8
FoilLayer
100
AcDbLine
 10
576.7157754149273
 20
1.9801865700294907
 30
0.0
 11
582.9391267689855
 21
1.2897309298359463
 31
0.0
  0
LINE
  5
15D
330
17
100
AcDbEntity
  8
FoilLayer
100
AcDbLine
 10
582.9391267689855
 20
1.2897309298359463
 30
0.0
 11
588.776974857507
 21
0.6448225482560312
 31
0.0
  0
LINE
  5
15E
330
17
100
AcDbEntity
  8
FoilLayer
100
AcDbLine
 10
588.776974857507
 20
0.6448225482560312
 30
0.0
 11
594.2033150872678
 21
0.01279916904860362
 31
0.0
  0
LINE
  5
15F
330
17
100
AcDbEntity
  8
FoilLayer
100
AcDbLine
 10
594.2033150872678
 20
0.01279916904860362
 30
0.0
 11
599.2023891781566
 21
-0.591720496063366
 31
0.0
  0
LINE
  5
160
330
17
100
AcDbEntity
  8
FoilLayer
100
AcDbLine
 10
599.2023891781566
 20
-0.591720496063366
 30
0.0
 11
602.2942701981401
 21
-0.9979129439885153
 31
0.0
  0
LINE
  5
161
330
17
100
AcDbEntity
  8
FoilLayer
100
AcDbLine
 10
602.2942701981401
 20
-0.9979129439885153
 30
0.0
 11
602.1654657583363
 21
1.0176137959310634
 31
0.0
  0
LINE
  5
162
330
17
100
AcDbEntity
  8
StringerLayer
100
AcDbLine
 10
261.92076536978664
 20
87.4387984932627
 30
0.0
 11
265.83459344068217
 21
86.61299595544271
 31
0.0
  0
LINE
  5
163
330
17
100
AcDbEntity
  8
StringerLayer
100
AcDbLine
 10
265.83459344068217
 20
86.61299595544271
 30
0.0
 11
266.66039597850215
 21
90.52682402633828
 31
0.0
  0
LINE
  5
164
330
17
100
AcDbEntity
  8
StringerLayer
100
AcDbLine
 10
266.66039597850215
 20
90.52682402633828
 30
0.0
 11
262.7465679076066
 21
91.35262656415826
 31
0.0
  0
LINE
  5
165
330
17
100
AcDbEntity
  8
StringerLayer
100
AcDbLine
 10
262.7465679076066
 20
91.35262656415826
 30
0.0
 11
261.92076536978664
 21
87.4387984932627
 31
0.0
  0
LINE
  5
166
330
17
100
AcDbEntity
  8
StringerLayer
100
AcDbLine
 10
-102.58695862743423
 20
106.84247490939609
 30
0.0
 11
-98.60991512811884
 21
107.27040598393185
 31
0.0
  0
LINE
  5
167
330
17
100
AcDbEntity
  8
StringerLayer
100
AcDbLine
 10
-98.60991512811884
 20
107.27040598393185
 30
0.0
 11
-99.03784620265459
 21
111.24744948324722
 31
0.0
  0
LINE
  5
168
330
17
100
AcDbEntity
  8
StringerLayer
100
AcDbLine
 10
-99.03784620265459
 20
111.24744948324722
 30
0.0
 11
-103.01488970196998
 21
110.81951840871146
 31
0.0
  0
LINE
  5
169
330
17
100
AcDbEntity
  8
StringerLayer
100
AcDbLine
 10
-103.01488970196998
 20
110.81951840871146
 30
0.0
 11
-102.58695862743423
 21
106.84247490939609
 31
0.0
  0
LINE
  5
16A
330
17
100
AcDbEntity
  8
StringerLayer
100
AcDbLine
 10
-264.86994887390983
 20
69.55836390731545
 30
0.0
 11
-261.14535112314286
 21
71.01691510455944
 31
0.0
  0
LINE
  5
16B
330
17
100
AcDbEntity
  8
StringerLayer
100
AcDbLine
 10
-261.14535112314286
 20
71.01691510455944
 30
0.0
 11
-262.60390232038685
 21
74.74151285532638
 31
0.0
  0
LINE
  5
16C
330
17
100
AcDbEntity
  8
StringerLayer
100
AcDbLine
 10
-262.60390232038685
 20
74.74151285532638
 30
0.0
 11
-266.3285000711538
 21
73.28296165808239
 31
0.0
  0
LINE
  5
16D
330
17
100
AcDbEntity
  8
StringerLayer
100
AcDbLine
 10
-266.3285000711538
 20
73.28296165808239
 30
0.0
 11
-264.86994887390983
 21
69.55836390731545
 31
0.0
  0
LINE
  5
16E
330
17
100
AcDbEntity
  8
StringerLayer
100
AcDbLine
 10
-343.6208140184055
 20
22.041509535370537
 30
0.0
 11
-342.24548789887973
 21
23.49356947385457
 31
0.0
  0
LINE
  5
16F
330
17
100
AcDbEntity
  8
StringerLayer
100
AcDbLine
 10
-342.24548789887973
 20
23.49356947385457
 30
0.0
 11
-345.1496077758478
 21
26.244221712906057
 31
0.0
  0
LINE
  5
170
330
17
100
AcDbEntity
  8
StringerLayer
100
AcDbLine
 10
-345.1496077758478
 20
26.244221712906057
 30
0.0
 11
-346.5249338953736
 21
24.792161774422024
 31
0.0
  0
LINE
  5
171
330
17
100
AcDbEntity
  8
StringerLayer
100
AcDbLine
 10
-346.5249338953736
 20
24.792161774422024
 30
0.0
 11
-343.6208140184055
 21
22.041509535370537
 31
0.0
  0
LINE
  5
172
330
17
100
AcDbEntity
  8
StringerLayer
100
AcDbLine
 10
-348.1749558766897
 20
-9.607420522096778
 30
0.0
 11
-349.9177037604946
 21
-8.626181604455638
 31
0.0
  0
LINE
  5
173
330
17
100
AcDbEntity
  8
StringerLayer
100
AcDbLine
 10
-349.9177037604946
 20
-8.626181604455638
 30
0.0
 11
-351.8801815957769
 21
-12.111677372065431
 31
0.0
  0
LINE
  5
174
330
17
100
AcDbEntity
  8
StringerLayer
100
AcDbLine
 10
-351.8801815957769
 20
-12.111677372065431
 30
0.0
 11
-350.137433711972
 21
-13.09291628970657
 31
0.0
  0
LINE
  5
175
330
17
100
AcDbEntity
  8
StringerLayer
100
AcDbLine
 10
-350.137433711972
 20
-13.09291628970657
 30
0.0
 11
-348.1749558766897
 21
-9.607420522096778
 31
0.0
  0
LINE
  5
176
330
17
100
AcDbEntity
  8
StringerLayer
100
AcDbLine
 10
-214.9402839375424
 20
-21.32266685176674
 30
0.0
 11
-218.93947027418153
 21
-21.40334302445102
 31
0.0
  0
LINE
  5
177
330
17
100
AcDbEntity
  8
StringerLayer
100
AcDbLine
 10
-218.93947027418153
 20
-21.40334302445102
 30
0.0
 11
-218.85879410149724
 21
-25.40252936109014
 31
0.0
  0
LINE
  5
178
330
17
100
AcDbEntity
  8
StringerLayer
100
AcDbLine
 10
-218.85879410149724
 20
-25.40252936109014
 30
0.0
 11
-214.8596077648581
 21
-25.32185318840586
 31
0.0
  0
LINE
  5
179
330
17
100
AcDbEntity
  8
StringerLayer
100
AcDbLine
 10
-214.8596077648581
 20
-25.32185318840586
 30
0.0
 11
-214.9402839375424
 21
-21.32266685176674
 31
0.0
  0
LINE
  5
17A
330
17
100
AcDbEntity
  8
SubLayer
100
AcDbLine
 10
-361.38157894736844
 20
0.0
 30
0.0
 11
-357.38157894736844
 21
0.0
 31
0.0
  0
LINE
  5
17B
330
17
100
AcDbEntity
  8
SubLayer
100
AcDbLine
 10
70.2763157894737
 20
0.0
 30
0.0
 11
83.91315789473686
 21
0.0
 31
0.0
  0
LINE
  5
17C
330
17
100
AcDbEntity
  8
SubLayer
100
AcDbLine
 10
-49.37440125874037
 20
47.4905518563944
 30
0.0
 11
-41.39797924092501
 21
48.10430408140895
 31
0.0
  0
LINE
  5
17D
330
17
100
AcDbEntity
  8
SubLayer
100
AcDbLine
 10
41.39797924092501
 20
54.47510588037965
 30
0.0
 11
49.37440125874037
 21
55.0888581053942
 31
0.0
  0
LINE
  5
17E
330
17
100
AcDbEntity
  8
SubLayer
100
AcDbLine
 10
-3.571654354444042
 20
97.70749586081857
 30
0.0
 11
-2.9579021294294923
 21
89.7310738430032
 31
0.0
  0
LINE
  5
17F
330
17
100
AcDbEntity
  8
SubLayer
100
AcDbLine
 10
3.571654354444042
 20
4.871914100970038
 30
0.0
 11
2.9579021294294923
 21
12.848336118785397
 31
0.0
  0
LINE
  5
180
330
17
100
AcDbEntity
  8
SubLayer
100
AcDbLine
 10
-47.226857698032894
 20
45.6498844081942
 30
0.0
 11
-43.23864668912522
 21
45.95676052070147
 31
0.0
  0
LINE
  5
181
330
17
100
AcDbEntity
  8
SubLayer
100
AcDbLine
 10
-43.23864668912522
 20
45.95676052070147
 30
0.0
 11
-43.545522801632494
 21
49.94497152960915
 31
0.0
  0
LINE
  5
182
330
17
100
AcDbEntity
  8
SubLayer
100
AcDbLine
 10
-43.545522801632494
 20
49.94497152960915
 30
0.0
 11
-47.53373381054017
 21
49.63809541710187
 31
0.0
  0
LINE
  5
183
330
17
100
AcDbEntity
  8
SubLayer
100
AcDbLine
 10
-47.53373381054017
 20
49.63809541710187
 30
0.0
 11
-47.226857698032894
 21
45.6498844081942
 31
0.0
  0
LINE
  5
184
330
17
100
AcDbEntity
  8
SubLayer
100
AcDbLine
 10
43.545522801632494
 20
52.63443843217945
 30
0.0
 11
47.53373381054017
 21
52.941314544686726
 31
0.0
  0
LINE
  5
185
330
17
100
AcDbEntity
  8
SubLayer
100
AcDbLine
 10
47.53373381054017
 20
52.941314544686726
 30
0.0
 11
47.226857698032894
 21
56.9295255535944
 31
0.0
  0
LINE
  5
186
330
17
100
AcDbEntity
  8
SubLayer
100
AcDbLine
 10
47.226857698032894
 20
56.9295255535944
 30
0.0
 11
43.23864668912522
 21
56.62264944108713
 31
0.0
  0
LINE
  5
187
330
17
100
AcDbEntity
  8
SubLayer
100
AcDbLine
 10
43.23864668912522
 20
56.62264944108713
 30
0.0
 11
43.545522801632494
 21
52.63443843217945
 31
0.0
  0
LINE
  5
188
330
17
100
AcDbEntity
  8
SubLayer
100
AcDbLine
 10
-5.10544569013697
 20
91.57174129120341
 30
0.0
 11
-1.1172346812292893
 21
91.87861740371068
 31
0.0
  0
LINE
  5
189
330
17
100
AcDbEntity
  8
SubLayer
100
AcDbLine
 10
-1.1172346812292893
 20
91.87861740371068
 30
0.0
 11
-1.424110793736564
 21
95.86682841261836
 31
0.0
  0
LINE
  5
18A
330
17
100
AcDbEntity
  8
SubLayer
100
AcDbLine
 10
-1.424110793736564
 20
95.86682841261836
 30
0.0
 11
-5.412321802644245
 21
95.55995230011109
 31
0.0
  0
LINE
  5
18B
330
17
100
AcDbEntity
  8
SubLayer
100
AcDbLine
 10
-5.412321802644245
 20
95.55995230011109
 30
0.0
 11
-5.10544569013697
 21
91.57174129120341
 31
0.0
  0
LINE
  5
18C
330
17
100
AcDbEntity
  8
SubLayer
100
AcDbLine
 10
1.424110793736564
 20
6.71258154917024
 30
0.0
 11
5.412321802644245
 21
7.019457661677515
 31
0.0
  0
LINE
  5
18D
330
17
100
AcDbEntity
  8
SubLayer
100
AcDbLine
 10
5.412321802644245
 20
7.019457661677515
 30
0.0
 11
5.10544569013697
 21
11.007668670585195
 31
0.0
  0
LINE
  5
18E
330
17
100
AcDbEntity
  8
SubLayer
100
AcDbLine
 10
5.10544569013697
 20
11.007668670585195
 30
0.0
 11
1.1172346812292893
 21
10.700792558077922
 31
0.0
  0
LINE
  5
18F
330
17
100
AcDbEntity
  8
SubLayer
100
AcDbLine
 10
1.1172346812292893
 20
10.700792558077922
 30
0.0
 11
1.424110793736564
 21
6.71258154917024
 31
0.0
  0
LINE
  5
190
330
17
100
AcDbEntity
  8
SubLayer
100
AcDbLine
 10
408.5890352748531
 20
55.888811163103405
 30
0.0
 11
412.57724628376076
 21
56.19568727561067
 31
0.0
  0
LINE
  5
191
330
17
100
AcDbEntity
  8
SubLayer
100
AcDbLine
 10
-361.5211877379042
 20
-3.367941027897753
 30
0.0
 11
-357.5329767289965
 21
-3.0610649153904785
 31
0.0
  0
LINE
  5
192
330
17
100
AcDbEntity
  8
SubLayer
100
AcDbLine
 10
-208.49619588757963
 20
8.40669038217566
 30
0.0
 11
-202.5138793742181
 21
8.867004550936572
 31
0.0
  0
LINE
  5
193
330
17
100
AcDbEntity
  8
SubLayer
100
AcDbLine
 10
253.56993792007472
 20
43.96074169677635
 30
0.0
 11
259.55225443343625
 21
44.42105586553727
 31
0.0
  0
LINE
  5
194
330
17
100
AcDbEntity
  8
SubLayer
100
AcDbLine
 10
22.536871016247517
 20
26.183716039476007
 30
0.0
 11
28.51918752960904
 21
26.644030208236916
 31
0.0
  0
LINE
  5
195
330
17
100
AcDbEntity
  8
SubLayer
100
AcDbLine
 10
-203.3574940701914
 20
6.796180018355913
 30
0.0
 11
-203.66437018269866
 21
10.784391027263593
 31
0.0
  0
LINE
  5
196
330
17
100
AcDbEntity
  8
SubLayer
100
AcDbLine
 10
-203.66437018269866
 20
10.784391027263593
 30
0.0
 11
-207.65258119160634
 21
10.47751491475632
 31
0.0
  0
LINE
  5
197
330
17
100
AcDbEntity
  8
SubLayer
100
AcDbLine
 10
-207.65258119160634
 20
10.47751491475632
 30
0.0
 11
-207.34570507909908
 21
6.489303905848638
 31
0.0
  0
LINE
  5
198
330
17
100
AcDbEntity
  8
SubLayer
100
AcDbLine
 10
-207.34570507909908
 20
6.489303905848638
 30
0.0
 11
-203.3574940701914
 21
6.796180018355913
 31
0.0
  0
LINE
  5
199
330
17
100
AcDbEntity
  8
SubLayer
100
AcDbLine
 10
258.708639737463
 20
42.35023133295661
 30
0.0
 11
258.40176362495566
 21
46.33844234186429
 31
0.0
  0
LINE
  5
19A
330
17
100
AcDbEntity
  8
SubLayer
100
AcDbLine
 10
258.40176362495566
 20
46.33844234186429
 30
0.0
 11
254.413552616048
 21
46.03156622935701
 31
0.0
  0
LINE
  5
19B
330
17
100
AcDbEntity
  8
SubLayer
100
AcDbLine
 10
254.413552616048
 20
46.03156622935701
 30
0.0
 11
254.72042872855528
 21
42.043355220449335
 31
0.0
  0
LINE
  5
19C
330
17
100
AcDbEntity
  8
SubLayer
100
AcDbLine
 10
254.72042872855528
 20
42.043355220449335
 30
0.0
 11
258.708639737463
 21
42.35023133295661
 31
0.0
  0
LINE
  5
19D
330
17
100
AcDbEntity
  8
SubLayer
100
AcDbLine
 10
27.67557283363576
 20
24.573205675656258
 30
0.0
 11
27.368696721128483
 21
28.56141668456394
 31
0.0
  0
LINE
  5
19E
330
17
100
AcDbEntity
  8
SubLayer
100
AcDbLine
 10
27.368696721128483
 20
28.56141668456394
 30
0.0
 11
23.3804857122208
 21
28.254540572056666
 31
0.0
  0
LINE
  5
19F
330
17
100
AcDbEntity
  8
SubLayer
100
AcDbLine
 10
23.3804857122208
 20
28.254540572056666
 30
0.0
 11
23.687361824728075
 21
24.266329563148982
 31
0.0
  0
LINE
  5
1A0
330
17
100
AcDbEntity
  8
SubLayer
100
AcDbLine
 10
23.687361824728075
 20
24.266329563148982
 30
0.0
 11
27.67557283363576
 21
24.573205675656258
 31
0.0
  0
LINE
  5
1A1
330
17
100
AcDbEntity
  8
SubLayer
100
AcDbLine
 10
583.3087357838548
 20
6.283114076816579
 30
0.0
 11
583.6464247885398
 21
7.224371818412811
 31
0.0
  0
LINE
  5
1A2
330
17
100
AcDbEntity
  8
SubLayer
100
AcDbLine
 10
582.3148431648343
 20
0.8563829495010893
 30
0.0
 11
582.3826052669448
 21
1.8540844567253583
 31
0.0
  0
LINE
  5
1A3
330
17
100
AcDbEntity
  8
SubLayer
100
AcDbLine
 10
564.1319086369089
 20
11.968496190833434
 30
0.0
 11
564.4430008862736
 21
12.918875910937597
 31
0.0
  0
LINE
  5
1A4
330
17
100
AcDbEntity
  8
SubLayer
100
AcDbLine
 10
562.4043119505229
 20
2.8937486099493457
 30
0.0
 11
562.4891106502744
 21
3.890146713380128
 31
0.0
  0
LINE
  5
1A5
330
17
100
AcDbEntity
  8
SubLayer
100
AcDbLine
 10
525.7346683089739
 20
23.18611808119084
 30
0.0
 11
526.0304651244581
 21
24.14136896130003
 31
0.0
  0
LINE
  5
1A6
330
17
100
AcDbEntity
  8
SubLayer
100
AcDbLine
 10
522.5041180867721
 20
5.695336862302981
 30
0.0
 11
522.5815410999356
 21
6.692335195818488
 31
0.0
  0
LINE
  5
1A7
330
17
100
AcDbEntity
  8
SubLayer
100
AcDbLine
 10
-154.72007138713252
 20
106.87008843201727
 30
0.0
 11
-154.41319527462525
 21
102.88187742310959
 31
0.0
  0
LINE
  5
1A8
330
17
100
AcDbEntity
  8
SubLayer
100
AcDbLine
 10
-144.78036443520134
 20
-22.30793186784706
 30
0.0
 11
-144.47348832269407
 21
-26.296142876754743
 31
0.0
  0
LINE
  5
1A9
330
17
100
AcDbEntity
  8
SubLayer
100
AcDbLine
 10
-146.84502485371442
 20
4.524724944352725
 30
0.0
 11
-146.3847106849535
 21
-1.4575915690087964
 31
0.0
  0
LINE
  5
1AA
330
17
100
AcDbEntity
  8
SubLayer
100
AcDbLine
 10
-152.80884902487313
 20
82.03153712427134
 30
0.0
 11
-152.3485348561122
 21
76.04922061090981
 31
0.0
  0
LINE
  5
1AB
330
17
100
AcDbEntity
  8
SubLayer
100
AcDbLine
 10
-149.82693693929374
 20
43.278131034312025
 30
0.0
 11
-149.3666227705328
 21
37.2958145209505
 31
0.0
  0
LINE
  5
1AC
330
17
100
AcDbEntity
  8
SubLayer
100
AcDbLine
 10
-148.45553521753416
 20
-0.6139768730355137
 30
0.0
 11
-144.46732420862648
 21
-0.307100760528239
 31
0.0
  0
LINE
  5
1AD
330
17
100
AcDbEntity
  8
SubLayer
100
AcDbLine
 10
-144.46732420862648
 20
-0.307100760528239
 30
0.0
 11
-144.77420032113375
 21
3.6811102483794422
 31
0.0
  0
LINE
  5
1AE
330
17
100
AcDbEntity
  8
SubLayer
100
AcDbLine
 10
-144.77420032113375
 20
3.6811102483794422
 30
0.0
 11
-148.76241133004143
 21
3.3742341358721673
 31
0.0
  0
LINE
  5
1AF
330
17
100
AcDbEntity
  8
SubLayer
100
AcDbLine
 10
-148.76241133004143
 20
3.3742341358721673
 30
0.0
 11
-148.45553521753416
 21
-0.6139768730355137
 31
0.0
  0
LINE
  5
1B0
330
17
100
AcDbEntity
  8
SubLayer
100
AcDbLine
 10
-154.41935938869287
 20
76.8928353068831
 30
0.0
 11
-150.43114837978518
 21
77.19971141939037
 31
0.0
  0
LINE
  5
1B1
330
17
100
AcDbEntity
  8
SubLayer
100
AcDbLine
 10
-150.43114837978518
 20
77.19971141939037
 30
0.0
 11
-150.73802449229245
 21
81.18792242829805
 31
0.0
  0
LINE
  5
1B2
330
17
100
AcDbEntity
  8
SubLayer
100
AcDbLine
 10
-150.73802449229245
 20
81.18792242829805
 30
0.0
 11
-154.72623550120014
 21
80.88104631579078
 31
0.0
  0
LINE
  5
1B3
330
17
100
AcDbEntity
  8
SubLayer
100
AcDbLine
 10
-154.72623550120014
 20
80.88104631579078
 30
0.0
 11
-154.41935938869287
 21
76.8928353068831
 31
0.0
  0
LINE
  5
1B4
330
17
100
AcDbEntity
  8
SubLayer
100
AcDbLine
 10
-151.4374473031135
 20
38.13942921692379
 30
0.0
 11
-147.4492362942058
 21
38.44630532943106
 31
0.0
  0
LINE
  5
1B5
330
17
100
AcDbEntity
  8
SubLayer
100
AcDbLine
 10
-147.4492362942058
 20
38.44630532943106
 30
0.0
 11
-147.75611240671307
 21
42.43451633833874
 31
0.0
  0
LINE
  5
1B6
330
17
100
AcDbEntity
  8
SubLayer
100
AcDbLine
 10
-147.75611240671307
 20
42.43451633833874
 30
0.0
 11
-151.74432341562076
 21
42.12764022583146
 31
0.0
  0
LINE
  5
1B7
330
17
100
AcDbEntity
  8
SubLayer
100
AcDbLine
 10
-151.74432341562076
 20
42.12764022583146
 30
0.0
 11
-151.4374473031135
 21
38.13942921692379
 31
0.0
  0
LINE
  5
1B8
330
17
100
AcDbEntity
  8
SubLayer
100
AcDbLine
 10
95.19289072275382
 20
117.60527800968441
 30
0.0
 11
95.49976683526108
 21
113.61706700077673
 31
0.0
  0
LINE
  5
1B9
330
17
100
AcDbEntity
  8
SubLayer
100
AcDbLine
 10
104.79564716944971
 20
-7.193679666318645
 30
0.0
 11
105.10252328195698
 21
-11.181890675226326
 31
0.0
  0
LINE
  5
1BA
330
17
100
AcDbEntity
  8
SubLayer
100
AcDbLine
 10
102.79837685198372
 20
18.763164621108885
 30
0.0
 11
103.25869102074462
 21
12.780848107747365
 31
0.0
  0
LINE
  5
1BB
330
17
100
AcDbEntity
  8
SubLayer
100
AcDbLine
 10
97.03672298396619
 20
93.64253922671072
 30
0.0
 11
97.49703715272709
 21
87.6602227133492
 31
0.0
  0
LINE
  5
1BC
330
17
100
AcDbEntity
  8
SubLayer
100
AcDbLine
 10
99.91754991797494
 20
56.202851923909805
 30
0.0
 11
100.37786408673584
 21
50.22053541054828
 31
0.0
  0
LINE
  5
1BD
330
17
100
AcDbEntity
  8
SubLayer
100
AcDbLine
 10
101.18786648816396
 20
13.624462803720649
 30
0.0
 11
105.17607749707165
 21
13.931338916227922
 31
0.0
  0
LINE
  5
1BE
330
17
100
AcDbEntity
  8
SubLayer
100
AcDbLine
 10
105.17607749707165
 20
13.931338916227922
 30
0.0
 11
104.86920138456438
 21
17.919549925135605
 31
0.0
  0
LINE
  5
1BF
330
17
100
AcDbEntity
  8
SubLayer
100
AcDbLine
 10
104.86920138456438
 20
17.919549925135605
 30
0.0
 11
100.8809903756567
 21
17.61267381262833
 31
0.0
  0
LINE
  5
1C0
330
17
100
AcDbEntity
  8
SubLayer
100
AcDbLine
 10
100.8809903756567
 20
17.61267381262833
 30
0.0
 11
101.18786648816396
 21
13.624462803720649
 31
0.0
  0
LINE
  5
1C1
330
17
100
AcDbEntity
  8
SubLayer
100
AcDbLine
 10
95.42621262014643
 20
88.50383740932249
 30
0.0
 11
99.41442362905411
 21
88.81071352182975
 31
0.0
  0
LINE
  5
1C2
330
17
100
AcDbEntity
  8
SubLayer
100
AcDbLine
 10
99.41442362905411
 20
88.81071352182975
 30
0.0
 11
99.10754751654684
 21
92.79892453073744
 31
0.0
  0
LINE
  5
1C3
330
17
100
AcDbEntity
  8
SubLayer
100
AcDbLine
 10
99.10754751654684
 20
92.79892453073744
 30
0.0
 11
95.11933650763916
 21
92.49204841823017
 31
0.0
  0
LINE
  5
1C4
330
17
100
AcDbEntity
  8
SubLayer
100
AcDbLine
 10
95.11933650763916
 20
92.49204841823017
 30
0.0
 11
95.42621262014643
 21
88.50383740932249
 31
0.0
  0
LINE
  5
1C5
330
17
100
AcDbEntity
  8
SubLayer
100
AcDbLine
 10
98.30703955415518
 20
51.064150106521566
 30
0.0
 11
102.29525056306287
 21
51.37102621902884
 31
0.0
  0
LINE
  5
1C6
330
17
100
AcDbEntity
  8
SubLayer
100
AcDbLine
 10
102.29525056306287
 20
51.37102621902884
 30
0.0
 11
101.9883744505556
 21
55.35923722793652
 31
0.0
  0
LINE
  5
1C7
330
17
100
AcDbEntity
  8
SubLayer
100
AcDbLine
 10
101.9883744505556
 20
55.35923722793652
 30
0.0
 11
98.00016344164791
 21
55.05236111542924
 31
0.0
  0
LINE
  5
1C8
330
17
100
AcDbEntity
  8
SubLayer
100
AcDbLine
 10
98.00016344164791
 20
55.05236111542924
 30
0.0
 11
98.30703955415518
 21
51.064150106521566
 31
0.0
  0
ENDSEC
  0
SECTION
  2
OBJECTS
  0
DICTIONARY
  5
A
330
0
100
AcDbDictionary
280
0
281
1
  3
ACAD_COLOR
350
B
  3
ACAD_GROUP
350
C
  3
ACAD_LAYOUT
350
D
  3
ACAD_MATERIAL
350
E
  3
ACAD_MLEADERSTYLE
350
F
  3
ACAD_MLINESTYLE
350
10
  3
ACAD_PLOTSETTINGS
350
11
  3
ACAD_PLOTSTYLENAME
350
12
  3
ACAD_SCALELIST
350
14
  3
ACAD_TABLESTYLE
350
15
  3
ACAD_VISUALSTYLE
350
16
  3
EZDXF_META
350
2D
  0
DICTIONARY
  5
B
330
A
100
AcDbDictionary
280
0
281
1
  0
DICTIONARY
  5
C
330
A
100
AcDbDictionary
280
0
281
1
  0
DICTIONARY
  5
D
330
A
100
AcDbDictionary
280
0
281
1
  3
Model
350
1A
  3
Layout1
350
1E
  0
DICTIONARY
  5
E
330
A
100
AcDbDictionary
280
0
281
1
  3
ByBlock
350
1F
  3
ByLayer
350
20
  3
Global
350
21
  0
DICTIONARY
  5
F
330
A
100
AcDbDictionary
280
0
281
1
  3
Standard
350
2C
  0
DICTIONARY
  5
10
330
A
100
AcDbDictionary
280
0
281
1
  3
Standard
350
22
  0
DICTIONARY
  5
11
330
A
100
AcDbDictionary
280
0
281
1
  0
ACDBDICTIONARYWDFLT
  5
12
330
A
100
AcDbDictionary
280
0
281
1
  3
Normal
350
13
100
AcDbDictionaryWithDefault
340
13
  0
ACDBPLACEHOLDER
  5
13
330
12
  0
DICTIONARY
  5
14
330
A
100
AcDbDictionary
280
0
281
1
  0
DICTIONARY
  5
15
330
A
100
AcDbDictionary
280
0
281
1
  0
DICTIONARY
  5
16
330
A
100
AcDbDictionary
280
0
281
1
  0
LAYOUT
  5
1A
330
D
100
AcDbPlotSettings
  1

  2
Adobe PDF
  4
A3
  6

 40
7.5
 41
20.0
 42
7.5
 43
20.0
 44
420.0
 45
297.0
 46
0.0
 47
0.0
 48
0.0
 49
0.0
140
0.0
141
0.0
142
1.0
143
1.0
 70
1024
 72
1
 73
0
 74
5
  7

 75
16
 76
0
 77
2
 78
300
147
1.0
148
0.0
149
0.0
100
AcDbLayout
  1
Model
 70
1
 71
0
 10
0.0
 20
0.0
 11
420.0
 21
297.0
 12
0.0
 22
0.0
 32
0.0
 14
1e+20
 24
1e+20
 34
1e+20
 15
-1e+20
 25
-1e+20
 35
-1e+20
146
0.0
 13
0.0
 23
0.0
 33
0.0
 16
1.0
 26
0.0
 36
0.0
 17
0.0
 27
1.0
 37
0.0
 76
1
330
17
  0
LAYOUT
  5
1E
330
D
100
AcDbPlotSettings
  1

  2
Adobe PDF
  4
A3
  6

 40
7.5
 41
20.0
 42
7.5
 43
20.0
 44
420.0
 45
297.0
 46
0.0
 47
0.0
 48
0.0
 49
0.0
140
0.0
141
0.0
142
1.0
143
1.0
 70
0
 72
1
 73
0
 74
5
  7

 75
16
 76
0
 77
2
 78
300
147
1.0
148
0.0
149
0.0
100
AcDbLayout
  1
Layout1
 70
1
 71
1
 10
0.0
 20
0.0
 11
420.0
 21
297.0
 12
0.0
 22
0.0
 32
0.0
 14
1e+20
 24
1e+20
 34
1e+20
 15
-1e+20
 25
-1e+20
 35
-1e+20
146
0.0
 13
0.0
 23
0.0
 33
0.0
 16
1.0
 26
0.0
 36
0.0
 17
0.0
 27
1.0
 37
0.0
 76
1
330
1B
  0
MATERIAL
  5
1F
102
{ACAD_REACTORS
330
E
102
}
330
E
100
AcDbMaterial
  1
ByBlock
  2

 70
0
 40
1.0
 71
1
 41
1.0
 91
-1023410177
 42
1.0
 72
1
  3

 73
1
 74
1
 75
1
 44
0.5
 73
0
 45
1.0
 46
1.0
 77
1
  4

 78
1
 79
1
170
1
 48
1.0
171
1
  6

172
1
173
1
174
1
140
1.0
141
1.0
175
1
  7

176
1
177
1
178
1
143
1.0
179
1
  8

270
1
271
1
272
1
145
1.0
146
1.0
273
1
  9

274
1
275
1
276
1
 42
1.0
 72
1
  3

 73
1
 74
1
 75
1
 94
63
  0
MATERIAL
  5
20
102
{ACAD_REACTORS
330
E
102
}
330
E
100
AcDbMaterial
  1
ByLayer
  2

 70
0
 40
1.0
 71
1
 41
1.0
 91
-1023410177
 42
1.0
 72
1
  3

 73
1
 74
1
 75
1
 44
0.5
 73
0
 45
1.0
 46
1.0
 77
1
  4

 78
1
 79
1
170
1
 48
1.0
171
1
  6

172
1
173
1
174
1
140
1.0
141
1.0
175
1
  7

176
1
177
1
178
1
143
1.0
179
1
  8

270
1
271
1
272
1
145
1.0
146
1.0
273
1
  9

274
1
275
1
276
1
 42
1.0
 72
1
  3

 73
1
 74
1
 75
1
 94
63
  0
MATERIAL
  5
21
102
{ACAD_REACTORS
330
E
102
}
330
E
100
AcDbMaterial
  1
Global
  2

 70
0
 40
1.0
 71
1
 41
1.0
 91
-1023410177
 42
1.0
 72
1
  3

 73
1
 74
1
 75
1
 44
0.5
 73
0
 45
1.0
 46
1.0
 77
1
  4

 78
1
 79
1
170
1
 48
1.0
171
1
  6

172
1
173
1
174
1
140
1.0
141
1.0
175
1
  7

176
1
177
1
178
1
143
1.0
179
1
  8

270
1
271
1
272
1
145
1.0
146
1.0
273
1
  9

274
1
275
1
276
1
 42
1.0
 72
1
  3

 73
1
 74
1
 75
1
 94
63
  0
MLINESTYLE
  5
22
102
{ACAD_REACTORS
330
10
102
}
330
10
100
AcDbMlineStyle
  2
Standard
 70
0
  3

 62
256
 51
90.0
 52
90.0
 71
2
 49
0.5
 62
256
  6
BYLAYER
 49
-0.5
 62
256
  6
BYLAYER
  0
MLEADERSTYLE
  5
2C
102
{ACAD_REACTORS
330
F
102
}
330
F
100
AcDbMLeaderStyle
179
2
170
2
171
1
172
0
 90
2
 40
0.0
 41
0.0
173
1
 91
-1056964608
 92
-2
290
1
 42
2.0
291
1
 43
8.0
  3
Standard
 44
4.0
300

342
29
174
1
175
1
176
0
178
1
 93
-1056964608
 45
4.0
292
0
297
0
 46
4.0
 94
-1056964608
 47
1.0
 49
1.0
140
1.0
294
1
141
0.0
177
0
142
1.0
295
0
296
0
143
3.75
271
0
272
9
273
9
  0
DICTIONARY
  5
2D
330
A
100
AcDbDictionary
281
1
  3
CREATED_BY_EZDXF
350
2E
  3
WRITTEN_BY_EZDXF
350
1CB
  0
DICTIONARYVAR
  5
2E
330
2D
100
DictionaryVariables
280
0
  1
1.0.2 @ 2024-03-22T07:41:33.753830+00:00
  0
DICTIONARYVAR
  5
1CB
330
2D
100
DictionaryVariables
280
0
  1
1.0.2 @ 2024-03-22T07:41:33.764974+00:00
  0
ENDSEC
  0
EOF
