  0
SECTION
  2
HEADER
  9
$ACADVER
  1
AC1027
  9
$ACADMAINTVER
 70
105
  9
$DWGCODEPAGE
  3
ANSI_1252
  9
$LASTSAVEDBY
  1
ezdxf
  9
$REQUIREDVERSIONS
160
0
  9
$INSBASE
 10
0.0
 20
0.0
 30
0.0
  9
$EXTMIN
 10
1e+20
 20
1e+20
 30
1e+20
  9
$EXTMAX
 10
-1e+20
 20
-1e+20
 30
-1e+20
  9
$LIMMIN
 10
0.0
 20
0.0
  9
$LIMMAX
 10
420.0
 20
297.0
  9
$ORTHOMODE
 70
0
  9
$REGENMODE
 70
1
  9
$FILLMODE
 70
1
  9
$QTEXTMODE
 70
0
  9
$MIRRTEXT
 70
1
  9
$LTSCALE
 40
1.0
  9
$ATTMODE
 70
1
  9
$TEXTSIZE
 40
2.5
  9
$TRACEWID
 40
1.0
  9
$TEXTSTYLE
  7
Standard
  9
$CLAYER
  8
0
  9
$CELTYPE
  6
ByLayer
  9
$CECOLOR
 62
256
  9
$CELTSCALE
 40
1.0
  9
$DISPSILH
 70
0
  9
$DIMSCALE
 40
1.0
  9
$DIMASZ
 40
2.5
  9
$DIMEXO
 40
0.625
  9
$DIMDLI
 40
3.75
  9
$DIMRND
 40
0.0
  9
$DIMDLE
 40
0.0
  9
$DIMEXE
 40
1.25
  9
$DIMTP
 40
0.0
  9
$DIMTM
 40
0.0
  9
$DIMTXT
 40
2.5
  9
$DIMCEN
 40
2.5
  9
$DIMTSZ
 40
0.0
  9
$DIMTOL
 70
0
  9
$DIMLIM
 70
0
  9
$DIMTIH
 70
0
  9
$DIMTOH
 70
0
  9
$DIMSE1
 70
0
  9
$DIMSE2
 70
0
  9
$DIMTAD
 70
1
  9
$DIMZIN
 70
8
  9
$DIMBLK
  1

  9
$DIMASO
 70
1
  9
$DIMSHO
 70
1
  9
$DIMPOST
  1

  9
$DIMAPOST
  1

  9
$DIMALT
 70
0
  9
$DIMALTD
 70
3
  9
$DIMALTF
 40
0.03937007874
  9
$DIMLFAC
 40
1.0
  9
$DIMTOFL
 70
1
  9
$DIMTVP
 40
0.0
  9
$DIMTIX
 70
0
  9
$DIMSOXD
 70
0
  9
$DIMSAH
 70
0
  9
$DIMBLK1
  1

  9
$DIMBLK2
  1

  9
$DIMSTYLE
  2
ISO-25
  9
$DIMCLRD
 70
0
  9
$DIMCLRE
 70
0
  9
$DIMCLRT
 70
0
  9
$DIMTFAC
 40
1.0
  9
$DIMGAP
 40
0.625
  9
$DIMJUST
 70
0
  9
$DIMSD1
 70
0
  9
$DIMSD2
 70
0
  9
$DIMTOLJ
 70
0
  9
$DIMTZIN
 70
8
  9
$DIMALTZ
 70
0
  9
$DIMALTTZ
 70
0
  9
$DIMUPT
 70
0
  9
$DIMDEC
 70
2
  9
$DIMTDEC
 70
2
  9
$DIMALTU
 70
2
  9
$DIMALTTD
 70
3
  9
$DIMTXSTY
  7
Standard
  9
$DIMAUNIT
 70
0
  9
$DIMADEC
 70
0
  9
$DIMALTRND
 40
0.0
  9
$DIMAZIN
 70
0
  9
$DIMDSEP
 70
44
  9
$DIMATFIT
 70
3
  9
$DIMFRAC
 70
0
  9
$DIMLDRBLK
  1

  9
$DIMLUNIT
 70
2
  9
$DIMLWD
 70
-2
  9
$DIMLWE
 70
-2
  9
$DIMTMOVE
 70
0
  9
$DIMFXL
 40
1.0
  9
$DIMFXLON
 70
0
  9
$DIMJOGANG
 40
0.785398163397
  9
$DIMTFILL
 70
0
  9
$DIMTFILLCLR
 70
0
  9
$DIMARCSYM
 70
0
  9
$DIMLTYPE
  6

  9
$DIMLTEX1
  6

  9
$DIMLTEX2
  6

  9
$DIMTXTDIRECTION
 70
0
  9
$LUNITS
 70
2
  9
$LUPREC
 70
4
  9
$SKETCHINC
 40
1.0
  9
$FILLETRAD
 40
10.0
  9
$AUNITS
 70
0
  9
$AUPREC
 70
2
  9
$MENU
  1
.
  9
$ELEVATION
 40
0.0
  9
$PELEVATION
 40
0.0
  9
$THICKNESS
 40
0.0
  9
$LIMCHECK
 70
0
  9
$CHAMFERA
 40
0.0
  9
$CHAMFERB
 40
0.0
  9
$CHAMFERC
 40
0.0
  9
$CHAMFERD
 40
0.0
  9
$SKPOLY
 70
0
  9
$TDCREATE
 40
2460392.695520833
  9
$TDUCREATE
 40
2458532.153996898
  9
$TDUPDATE
 40
2460392.695520833
  9
$TDUUPDATE
 40
2458532.1544311
  9
$TDINDWG
 40
0.0
  9
$TDUSRTIMER
 40
0.0
  9
$USRTIMER
 70
1
  9
$ANGBASE
 50
0.0
  9
$ANGDIR
 70
0
  9
$PDMODE
 70
0
  9
$PDSIZE
 40
0.0
  9
$PLINEWID
 40
0.0
  9
$SPLFRAME
 70
0
  9
$SPLINETYPE
 70
6
  9
$SPLINESEGS
 70
8
  9
$HANDSEED
  5
1CD
  9
$SURFTAB1
 70
6
  9
$SURFTAB2
 70
6
  9
$SURFTYPE
 70
6
  9
$SURFU
 70
6
  9
$SURFV
 70
6
  9
$UCSBASE
  2

  9
$UCSNAME
  2

  9
$UCSORG
 10
0.0
 20
0.0
 30
0.0
  9
$UCSXDIR
 10
1.0
 20
0.0
 30
0.0
  9
$UCSYDIR
 10
0.0
 20
1.0
 30
0.0
  9
$UCSORTHOREF
  2

  9
$UCSORTHOVIEW
 70
0
  9
$UCSORGTOP
 10
0.0
 20
0.0
 30
0.0
  9
$UCSORGBOTTOM
 10
0.0
 20
0.0
 30
0.0
  9
$UCSORGLEFT
 10
0.0
 20
0.0
 30
0.0
  9
$UCSORGRIGHT
 10
0.0
 20
0.0
 30
0.0
  9
$UCSORGFRONT
 10
0.0
 20
0.0
 30
0.0
  9
$UCSORGBACK
 10
0.0
 20
0.0
 30
0.0
  9
$PUCSBASE
  2

  9
$PUCSNAME
  2

  9
$PUCSORG
 10
0.0
 20
0.0
 30
0.0
  9
$PUCSXDIR
 10
1.0
 20
0.0
 30
0.0
  9
$PUCSYDIR
 10
0.0
 20
1.0
 30
0.0
  9
$PUCSORTHOREF
  2

  9
$PUCSORTHOVIEW
 70
0
  9
$PUCSORGTOP
 10
0.0
 20
0.0
 30
0.0
  9
$PUCSORGBOTTOM
 10
0.0
 20
0.0
 30
0.0
  9
$PUCSORGLEFT
 10
0.0
 20
0.0
 30
0.0
  9
$PUCSORGRIGHT
 10
0.0
 20
0.0
 30
0.0
  9
$PUCSORGFRONT
 10
0.0
 20
0.0
 30
0.0
  9
$PUCSORGBACK
 10
0.0
 20
0.0
 30
0.0
  9
$USERI1
 70
0
  9
$USERI2
 70
0
  9
$USERI3
 70
0
  9
$USERI4
 70
0
  9
$USERI5
 70
0
  9
$USERR1
 40
0.0
  9
$USERR2
 40
0.0
  9
$USERR3
 40
0.0
  9
$USERR4
 40
0.0
  9
$USERR5
 40
0.0
  9
$WORLDVIEW
 70
1
  9
$SHADEDGE
 70
3
  9
$SHADEDIF
 70
70
  9
$TILEMODE
 70
1
  9
$MAXACTVP
 70
64
  9
$PINSBASE
 10
0.0
 20
0.0
 30
0.0
  9
$PLIMCHECK
 70
0
  9
$PEXTMIN
 10
1e+20
 20
1e+20
 30
1e+20
  9
$PEXTMAX
 10
-1e+20
 20
-1e+20
 30
-1e+20
  9
$PLIMMIN
 10
0.0
 20
0.0
  9
$PLIMMAX
 10
420.0
 20
297.0
  9
$UNITMODE
 70
0
  9
$VISRETAIN
 70
1
  9
$PLINEGEN
 70
0
  9
$PSLTSCALE
 70
1
  9
$TREEDEPTH
 70
3020
  9
$CMLSTYLE
  2
Standard
  9
$CMLJUST
 70
0
  9
$CMLSCALE
 40
20.0
  9
$PROXYGRAPHICS
 70
1
  9
$MEASUREMENT
 70
1
  9
$CELWEIGHT
370
-1
  9
$ENDCAPS
280
0
  9
$JOINSTYLE
280
0
  9
$LWDISPLAY
290
0
  9
$INSUNITS
 70
6
  9
$HYPERLINKBASE
  1

  9
$STYLESHEET
  1

  9
$XEDIT
290
1
  9
$CEPSNTYPE
380
0
  9
$PSTYLEMODE
290
1
  9
$FINGERPRINTGUID
  2
{C74888E4-B67A-4BF4-910A-20325D4F2914}
  9
$VERSIONGUID
  2
{F69A16C2-C814-4304-A8AE-8831FD366382}
  9
$EXTNAMES
290
1
  9
$PSVPSCALE
 40
0.0
  9
$OLESTARTUP
290
0
  9
$SORTENTS
280
127
  9
$INDEXCTL
280
0
  9
$HIDETEXT
280
1
  9
$XCLIPFRAME
280
0
  9
$HALOGAP
280
0
  9
$OBSCOLOR
 70
257
  9
$OBSLTYPE
280
0
  9
$INTERSECTIONDISPLAY
280
0
  9
$INTERSECTIONCOLOR
 70
257
  9
$DIMASSOC
280
2
  9
$PROJECTNAME
  1

  9
$CAMERADISPLAY
290
0
  9
$LENSLENGTH
 40
50.0
  9
$CAMERAHEIGHT
 40
0.0
  9
$STEPSPERSEC
 40
24.0
  9
$STEPSIZE
 40
100.0
  9
$3DDWFPREC
 40
2.0
  9
$PSOLWIDTH
 40
0.005
  9
$PSOLHEIGHT
 40
0.08
  9
$LOFTANG1
 40
1.570796326795
  9
$LOFTANG2
 40
1.570796326795
  9
$LOFTMAG1
 40
0.0
  9
$LOFTMAG2
 40
0.0
  9
$LOFTPARAM
 70
7
  9
$LOFTNORMALS
280
1
  9
$LATITUDE
 40
37.795
  9
$LONGITUDE
 40
-122.394
  9
$NORTHDIRECTION
 40
0.0
  9
$TIMEZONE
 70
-8000
  9
$LIGHTGLYPHDISPLAY
280
1
  9
$TILEMODELIGHTSYNCH
280
1
  9
$CMATERIAL
347
20
  9
$SOLIDHIST
280
0
  9
$SHOWHIST
280
1
  9
$DWFFRAME
280
2
  9
$DGNFRAME
280
2
  9
$REALWORLDSCALE
290
1
  9
$INTERFERECOLOR
 62
256
  9
$CSHADOW
280
0
  9
$SHADOWPLANELOCATION
 40
0.0
  0
ENDSEC
  0
SECTION
  2
CLASSES
  0
CLASS
  1
ACDBDICTIONARYWDFLT
  2
AcDbDictionaryWithDefault
  3
ObjectDBX Classes
 90
0
 91
0
280
0
281
0
  0
CLASS
  1
SUN
  2
AcDbSun
  3
SCENEOE
 90
1153
 91
0
280
0
281
0
  0
CLASS
  1
VISUALSTYLE
  2
AcDbVisualStyle
  3
ObjectDBX Classes
 90
4095
 91
0
280
0
281
0
  0
CLASS
  1
MATERIAL
  2
AcDbMaterial
  3
ObjectDBX Classes
 90
1153
 91
0
280
0
281
0
  0
CLASS
  1
SCALE
  2
AcDbScale
  3
ObjectDBX Classes
 90
1153
 91
0
280
0
281
0
  0
CLASS
  1
TABLESTYLE
  2
AcDbTableStyle
  3
ObjectDBX Classes
 90
4095
 91
0
280
0
281
0
  0
CLASS
  1
MLEADERSTYLE
  2
AcDbMLeaderStyle
  3
ACDB_MLEADERSTYLE_CLASS
 90
4095
 91
0
280
0
281
0
  0
CLASS
  1
DICTIONARYVAR
  2
AcDbDictionaryVar
  3
ObjectDBX Classes
 90
0
 91
0
280
0
281
0
  0
CLASS
  1
CELLSTYLEMAP
  2
AcDbCellStyleMap
  3
ObjectDBX Classes
 90
1152
 91
0
280
0
281
0
  0
CLASS
  1
MENTALRAYRENDERSETTINGS
  2
AcDbMentalRayRenderSettings
  3
SCENEOE
 90
1024
 91
0
280
0
281
0
  0
CLASS
  1
ACDBDETAILVIEWSTYLE
  2
AcDbDetailViewStyle
  3
ObjectDBX Classes
 90
1025
 91
0
280
0
281
0
  0
CLASS
  1
ACDBSECTIONVIEWSTYLE
  2
AcDbSectionViewStyle
  3
ObjectDBX Classes
 90
1025
 91
0
280
0
281
0
  0
CLASS
  1
RASTERVARIABLES
  2
AcDbRasterVariables
  3
ISM
 90
0
 91
0
280
0
281
0
  0
CLASS
  1
LAYOUT
  2
AcDbLayout
  3
ObjectDBX Classes
 90
0
 91
0
280
0
281
0
  0
CLASS
  1
ACDBPLACEHOLDER
  2
AcDbPlaceHolder
  3
ObjectDBX Classes
 90
0
 91
0
280
0
281
0
  0
ENDSEC
  0
SECTION
  2
TABLES
  0
TABLE
  2
VPORT
  5
8
330
0
100
AcDbSymbolTable
 70
1
  0
VPORT
  5
23
330
8
100
AcDbSymbolTableRecord
100
AcDbViewportTableRecord
  2
*Active
 70
0
 10
0.0
 20
0.0
 11
1.0
 21
1.0
 12
0.0
 22
0.0
 13
0.0
 23
0.0
 14
0.5
 24
0.5
 15
0.5
 25
0.5
 16
0.0
 26
0.0
 36
1.0
 17
0.0
 27
0.0
 37
0.0
 40
1000.0
 41
1.34
 42
50.0
 43
0.0
 44
0.0
 50
0.0
 51
0.0
 71
0
 72
1000
 73
1
 74
3
 75
0
 76
0
 77
0
 78
0
281
0
 65
0
146
0.0
  0
ENDTAB
  0
TABLE
  2
LTYPE
  5
2
330
0
100
AcDbSymbolTable
 70
3
  0
LTYPE
  5
24
330
2
100
AcDbSymbolTableRecord
100
AcDbLinetypeTableRecord
  2
ByBlock
 70
0
  3

 72
65
 73
0
 40
0.0
  0
LTYPE
  5
25
330
2
100
AcDbSymbolTableRecord
100
AcDbLinetypeTableRecord
  2
ByLayer
 70
0
  3

 72
65
 73
0
 40
0.0
  0
LTYPE
  5
26
330
2
100
AcDbSymbolTableRecord
100
AcDbLinetypeTableRecord
  2
Continuous
 70
0
  3

 72
65
 73
0
 40
0.0
  0
ENDTAB
  0
TABLE
  2
LAYER
  5
1
330
0
100
AcDbSymbolTable
 70
5
  0
LAYER
  5
27
330
1
100
AcDbSymbolTableRecord
100
AcDbLayerTableRecord
  2
0
 70
0
 62
7
  6
Continuous
370
-3
390
13
347
21
  0
LAYER
  5
28
330
1
100
AcDbSymbolTableRecord
100
AcDbLayerTableRecord
  2
Defpoints
 70
0
 62
7
  6
Continuous
290
0
370
-3
390
13
347
21
  0
LAYER
  5
30
330
1
100
AcDbSymbolTableRecord
100
AcDbLayerTableRecord
  2
FoilLayer
 70
0
 62
1
  6
Continuous
370
50
390
13
347
21
  0
LAYER
  5
31
330
1
100
AcDbSymbolTableRecord
100
AcDbLayerTableRecord
  2
StringerLayer
 70
0
 62
1
  6
Continuous
370
50
390
13
347
21
  0
LAYER
  5
32
330
1
100
AcDbSymbolTableRecord
100
AcDbLayerTableRecord
  2
SubLayer
 70
0
 62
1
  6
Continuous
370
50
390
13
347
21
  0
ENDTAB
  0
TABLE
  2
STYLE
  5
5
330
0
100
AcDbSymbolTable
 70
2
  0
STYLE
  5
29
330
5
100
AcDbSymbolTableRecord
100
AcDbTextStyleTableRecord
  2
Standard
 70
0
 40
0.0
 41
1.0
 50
0.0
 71
0
 42
2.5
  3
txt
  4

  0
STYLE
  5
2F
330
5
100
AcDbSymbolTableRecord
100
AcDbTextStyleTableRecord
  2
MSゴシック
 70
0
 40
0.0
 41
1.0
 50
0.0
 71
0
 42
2.5
  3
romans
  4

  0
ENDTAB
  0
TABLE
  2
VIEW
  5
7
330
0
100
AcDbSymbolTable
 70
0
  0
ENDTAB
  0
TABLE
  2
UCS
  5
6
330
0
100
AcDbSymbolTable
 70
0
  0
ENDTAB
  0
TABLE
  2
APPID
  5
3
330
0
100
AcDbSymbolTable
 70
3
  0
APPID
  5
2A
330
3
100
AcDbSymbolTableRecord
100
AcDbRegAppTableRecord
  2
ACAD
 70
0
  0
APPID
  5
1CA
330
3
100
AcDbSymbolTableRecord
100
AcDbRegAppTableRecord
  2
HATCHBACKGROUNDCOLOR
 70
0
  0
APPID
  5
1CB
330
3
100
AcDbSymbolTableRecord
100
AcDbRegAppTableRecord
  2
EZDXF
 70
0
  0
ENDTAB
  0
TABLE
  2
DIMSTYLE
  5
4
330
0
100
AcDbSymbolTable
 70
1
100
AcDbDimStyleTable
  0
DIMSTYLE
105
2B
330
4
100
AcDbSymbolTableRecord
100
AcDbDimStyleTableRecord
  2
Standard
 70
0
 40
1.0
 41
2.5
 42
0.625
 43
3.75
 44
1.25
 45
0.0
 46
0.0
 47
0.0
 48
0.0
 49
2.5
140
2.5
141
2.5
142
0.0
143
0.03937007874
144
1.0
145
0.0
146
1.0
147
0.625
148
0.0
 69
0
 70
0
 71
0
 72
0
 73
0
 74
0
 75
0
 76
0
 77
1
 78
8
 79
3
170
0
171
3
172
1
173
0
174
0
175
0
176
0
177
0
178
0
179
2
271
2
272
2
273
2
274
3
275
0
276
0
277
2
278
44
279
0
280
0
281
0
282
0
283
0
284
8
285
0
286
0
288
0
289
3
290
0
371
-2
372
-2
  0
ENDTAB
  0
TABLE
  2
BLOCK_RECORD
  5
9
330
0
100
AcDbSymbolTable
 70
2
  0
BLOCK_RECORD
  5
17
330
9
100
AcDbSymbolTableRecord
100
AcDbBlockTableRecord
  2
*Model_Space
340
1A
 70
0
280
1
281
0
  0
BLOCK_RECORD
  5
1B
330
9
100
AcDbSymbolTableRecord
100
AcDbBlockTableRecord
  2
*Paper_Space
340
1E
 70
0
280
1
281
0
  0
ENDTAB
  0
ENDSEC
  0
SECTION
  2
BLOCKS
  0
BLOCK
  5
18
330
17
100
AcDbEntity
  8
0
100
AcDbBlockBegin
  2
*Model_Space
 70
0
 10
0.0
 20
0.0
 30
0.0
  3
*Model_Space
  1

  0
ENDBLK
  5
19
330
17
100
AcDbEntity
  8
0
100
AcDbBlockEnd
  0
BLOCK
  5
1C
330
1B
100
AcDbEntity
  8
0
100
AcDbBlockBegin
  2
*Paper_Space
 70
0
 10
0.0
 20
0.0
 30
0.0
  3
*Paper_Space
  1

  0
ENDBLK
  5
1D
330
1B
100
AcDbEntity
  8
0
100
AcDbBlockEnd
  0
ENDSEC
  0
SECTION
  2
ENTITIES
  0
LINE
  5
33
330
17
100
AcDbEntity
  8
FoilLayer
100
AcDbLine
 10
340.17575681968583
 20
64.14834444287834
 30
0.0
 11
22.703389830508456
 21
-13.485023188003584
 31
0.0
  0
LINE
  5
34
330
17
100
AcDbEntity
  8
FoilLayer
100
AcDbLine
 10
567.5847457627118
 20
1.3628375856244184
 30
0.0
 11
564.8014040447267
 21
2.2536268091461027
 31
0.0
  0
LINE
  5
35
330
17
100
AcDbEntity
  8
FoilLayer
100
AcDbLine
 10
564.8014040447267
 20
2.2536268091461027
 30
0.0
 11
560.339103088851
 21
3.5996639047764845
 31
0.0
  0
LINE
  5
36
330
17
100
AcDbEntity
  8
FoilLayer
100
AcDbLine
 10
560.339103088851
 20
3.5996639047764845
 30
0.0
 11
555.5053750839179
 21
5.095179954624083
 31
0.0
  0
LINE
  5
37
330
17
100
AcDbEntity
  8
FoilLayer
100
AcDbLine
 10
555.5053750839179
 20
5.095179954624083
 30
0.0
 11
550.2269335681696
 21
6.693587654002732
 31
0.0
  0
LINE
  5
38
330
17
100
AcDbEntity
  8
FoilLayer
100
AcDbLine
 10
550.2269335681696
 20
6.693587654002732
 30
0.0
 11
544.4743549807519
 21
8.396249204803839
 31
0.0
  0
LINE
  5
39
330
17
100
AcDbEntity
  8
FoilLayer
100
AcDbLine
 10
544.4743549807519
 20
8.396249204803839
 30
0.0
 11
538.2869615495964
 21
10.226503666100204
 31
0.0
  0
LINE
  5
3A
330
17
100
AcDbEntity
  8
FoilLayer
100
AcDbLine
 10
538.2869615495964
 20
10.226503666100204
 30
0.0
 11
531.7362234672727
 21
12.176177826543373
 31
0.0
  0
LINE
  5
3B
330
17
100
AcDbEntity
  8
FoilLayer
100
AcDbLine
 10
531.7362234672727
 20
12.176177826543373
 30
0.0
 11
524.8827133112187
 21
14.204768883228805
 31
0.0
  0
LINE
  5
3C
330
17
100
AcDbEntity
  8
FoilLayer
100
AcDbLine
 10
524.8827133112187
 20
14.204768883228805
 30
0.0
 11
517.8312298136133
 21
16.288665336705417
 31
0.0
  0
LINE
  5
3D
330
17
100
AcDbEntity
  8
FoilLayer
100
AcDbLine
 10
517.8312298136133
 20
16.288665336705417
 30
0.0
 11
510.71245354257223
 21
18.367022169156968
 31
0.0
  0
LINE
  5
3E
330
17
100
AcDbEntity
  8
FoilLayer
100
AcDbLine
 10
510.71245354257223
 20
18.367022169156968
 30
0.0
 11
503.54227685349554
 21
20.409961752431897
 31
0.0
  0
LINE
  5
3F
330
17
100
AcDbEntity
  8
FoilLayer
100
AcDbLine
 10
503.54227685349554
 20
20.409961752431897
 30
0.0
 11
496.2682095668338
 21
22.53644971837988
 31
0.0
  0
LINE
  5
40
330
17
100
AcDbEntity
  8
FoilLayer
100
AcDbLine
 10
496.2682095668338
 20
22.53644971837988
 30
0.0
 11
488.90596241106846
 21
24.699807948855323
 31
0.0
  0
LINE
  5
41
330
17
100
AcDbEntity
  8
FoilLayer
100
AcDbLine
 10
488.90596241106846
 20
24.699807948855323
 30
0.0
 11
481.42202521967045
 21
26.844095352851042
 31
0.0
  0
LINE
  5
42
330
17
100
AcDbEntity
  8
FoilLayer
100
AcDbLine
 10
481.42202521967045
 20
26.844095352851042
 30
0.0
 11
473.8162163657213
 21
29.01226669667612
 31
0.0
  0
LINE
  5
43
330
17
100
AcDbEntity
  8
FoilLayer
100
AcDbLine
 10
473.8162163657213
 20
29.01226669667612
 30
0.0
 11
466.08499412430297
 21
31.18189105585204
 31
0.0
  0
LINE
  5
44
330
17
100
AcDbEntity
  8
FoilLayer
100
AcDbLine
 10
466.08499412430297
 20
31.18189105585204
 30
0.0
 11
458.2055643170995
 21
33.40355152727975
 31
0.0
  0
LINE
  5
45
330
17
100
AcDbEntity
  8
FoilLayer
100
AcDbLine
 10
458.2055643170995
 20
33.40355152727975
 30
0.0
 11
450.2009027493459
 21
35.655543694156165
 31
0.0
  0
LINE
  5
46
330
17
100
AcDbEntity
  8
FoilLayer
100
AcDbLine
 10
450.2009027493459
 20
35.655543694156165
 30
0.0
 11
442.10551853562447
 21
37.926606687512304
 31
0.0
  0
LINE
  5
47
330
17
100
AcDbEntity
  8
FoilLayer
100
AcDbLine
 10
442.10551853562447
 20
37.926606687512304
 30
0.0
 11
433.9525585886263
 21
40.21074681902595
 31
0.0
  0
LINE
  5
48
330
17
100
AcDbEntity
  8
FoilLayer
100
AcDbLine
 10
433.9525585886263
 20
40.21074681902595
 30
0.0
 11
425.773262738394
 21
42.50197040037493
 31
0.0
  0
LINE
  5
49
330
17
100
AcDbEntity
  8
FoilLayer
100
AcDbLine
 10
425.773262738394
 20
42.50197040037493
 30
0.0
 11
417.5905159767036
 21
44.78792680107713
 31
0.0
  0
LINE
  5
4A
330
17
100
AcDbEntity
  8
FoilLayer
100
AcDbLine
 10
417.5905159767036
 20
44.78792680107713
 30
0.0
 11
409.4105844322554
 21
47.061623384756636
 31
0.0
  0
LINE
  5
4B
330
17
100
AcDbEntity
  8
FoilLayer
100
AcDbLine
 10
409.4105844322554
 20
47.061623384756636
 30
0.0
 11
401.23446705310323
 21
49.321788762981505
 31
0.0
  0
LINE
  5
4C
330
17
100
AcDbEntity
  8
FoilLayer
100
AcDbLine
 10
401.23446705310323
 20
49.321788762981505
 30
0.0
 11
393.0648882430297
 21
51.56824130883287
 31
0.0
  0
LINE
  5
4D
330
17
100
AcDbEntity
  8
FoilLayer
100
AcDbLine
 10
393.0648882430297
 20
51.56824130883287
 30
0.0
 11
384.91102016143714
 21
53.80052695501357
 31
0.0
  0
LINE
  5
4E
330
17
100
AcDbEntity
  8
FoilLayer
100
AcDbLine
 10
384.91102016143714
 20
53.80052695501357
 30
0.0
 11
376.78884597718456
 21
56.01192550552601
 31
0.0
  0
LINE
  5
4F
330
17
100
AcDbEntity
  8
FoilLayer
100
AcDbLine
 10
376.78884597718456
 20
56.01192550552601
 30
0.0
 11
368.69972789216365
 21
58.19362805480575
 31
0.0
  0
LINE
  5
50
330
17
100
AcDbEntity
  8
FoilLayer
100
AcDbLine
 10
368.69972789216365
 20
58.19362805480575
 30
0.0
 11
360.6286816855687
 21
60.34545297593393
 31
0.0
  0
LINE
  5
51
330
17
100
AcDbEntity
  8
FoilLayer
100
AcDbLine
 10
360.6286816855687
 20
60.34545297593393
 30
0.0
 11
352.56925960178046
 21
62.472304195719616
 31
0.0
  0
LINE
  5
52
330
17
100
AcDbEntity
  8
FoilLayer
100
AcDbLine
 10
352.56925960178046
 20
62.472304195719616
 30
0.0
 11
344.5286359040937
 21
64.57336439302797
 31
0.0
  0
LINE
  5
53
330
17
100
AcDbEntity
  8
FoilLayer
100
AcDbLine
 10
344.5286359040937
 20
64.57336439302797
 30
0.0
 11
340.5508474576271
 21
65.6006897920735
 31
0.0
  0
LINE
  5
54
330
17
100
AcDbEntity
  8
FoilLayer
100
AcDbLine
 10
340.5508474576271
 20
65.6006897920735
 30
0.0
 11
340.17575681968583
 21
64.14834444287834
 31
0.0
  0
LINE
  5
55
330
17
100
AcDbEntity
  8
FoilLayer
100
AcDbLine
 10
340.17575681968583
 20
64.14834444287834
 30
0.0
 11
336.1405141294971
 21
65.19051673736452
 31
0.0
  0
LINE
  5
56
330
17
100
AcDbEntity
  8
FoilLayer
100
AcDbLine
 10
336.1405141294971
 20
65.19051673736452
 30
0.0
 11
328.14676769771506
 21
67.22689868427234
 31
0.0
  0
LINE
  5
57
330
17
100
AcDbEntity
  8
FoilLayer
100
AcDbLine
 10
328.14676769771506
 20
67.22689868427234
 30
0.0
 11
320.16671629296286
 21
69.22999898771505
 31
0.0
  0
LINE
  5
58
330
17
100
AcDbEntity
  8
FoilLayer
100
AcDbLine
 10
320.16671629296286
 20
69.22999898771505
 30
0.0
 11
312.19439625781365
 21
71.19999240963577
 31
0.0
  0
LINE
  5
59
330
17
100
AcDbEntity
  8
FoilLayer
100
AcDbLine
 10
312.19439625781365
 20
71.19999240963577
 30
0.0
 11
304.22423094161945
 21
73.13883374215997
 31
0.0
  0
LINE
  5
5A
330
17
100
AcDbEntity
  8
FoilLayer
100
AcDbLine
 10
304.22423094161945
 20
73.13883374215997
 30
0.0
 11
296.2568204242201
 21
75.05029116970908
 31
0.0
  0
LINE
  5
5B
330
17
100
AcDbEntity
  8
FoilLayer
100
AcDbLine
 10
296.2568204242201
 20
75.05029116970908
 30
0.0
 11
288.313879798092
 21
76.93435615525125
 31
0.0
  0
LINE
  5
5C
330
17
100
AcDbEntity
  8
FoilLayer
100
AcDbLine
 10
288.313879798092
 20
76.93435615525125
 30
0.0
 11
280.42400976384556
 21
78.78064303936286
 31
0.0
  0
LINE
  5
5D
330
17
100
AcDbEntity
  8
FoilLayer
100
AcDbLine
 10
280.42400976384556
 20
78.78064303936286
 30
0.0
 11
272.5948196304506
 21
80.57631977772006
 31
0.0
  0
LINE
  5
5E
330
17
100
AcDbEntity
  8
FoilLayer
100
AcDbLine
 10
272.5948196304506
 20
80.57631977772006
 30
0.0
 11
264.81621685420225
 21
82.31612294400442
 31
0.0
  0
LINE
  5
5F
330
17
100
AcDbEntity
  8
FoilLayer
100
AcDbLine
 10
264.81621685420225
 20
82.31612294400442
 30
0.0
 11
257.0759989283124
 21
83.99940391724287
 31
0.0
  0
LINE
  5
60
330
17
100
AcDbEntity
  8
FoilLayer
100
AcDbLine
 10
257.0759989283124
 20
83.99940391724287
 30
0.0
 11
249.3634380663093
 21
85.62675511271254
 31
0.0
  0
LINE
  5
61
330
17
100
AcDbEntity
  8
FoilLayer
100
AcDbLine
 10
249.3634380663093
 20
85.62675511271254
 30
0.0
 11
241.66897779640192
 21
87.19941948819587
 31
0.0
  0
LINE
  5
62
330
17
100
AcDbEntity
  8
FoilLayer
100
AcDbLine
 10
241.66897779640192
 20
87.19941948819587
 30
0.0
 11
233.9874051903796
 21
88.71920148344489
 31
0.0
  0
LINE
  5
63
330
17
100
AcDbEntity
  8
FoilLayer
100
AcDbLine
 10
233.9874051903796
 20
88.71920148344489
 30
0.0
 11
226.31937987952006
 21
90.18637569981692
 31
0.0
  0
LINE
  5
64
330
17
100
AcDbEntity
  8
FoilLayer
100
AcDbLine
 10
226.31937987952006
 20
90.18637569981692
 30
0.0
 11
218.6661768528803
 21
91.59854141628885
 31
0.0
  0
LINE
  5
65
330
17
100
AcDbEntity
  8
FoilLayer
100
AcDbLine
 10
218.6661768528803
 20
91.59854141628885
 30
0.0
 11
211.02126630682574
 21
92.9532628492515
 31
0.0
  0
LINE
  5
66
330
17
100
AcDbEntity
  8
FoilLayer
100
AcDbLine
 10
211.02126630682574
 20
92.9532628492515
 30
0.0
 11
203.3736265527973
 21
94.25162246852628
 31
0.0
  0
LINE
  5
67
330
17
100
AcDbEntity
  8
FoilLayer
100
AcDbLine
 10
203.3736265527973
 20
94.25162246852628
 30
0.0
 11
195.71722644098668
 21
95.49623930375245
 31
0.0
  0
LINE
  5
68
330
17
100
AcDbEntity
  8
FoilLayer
100
AcDbLine
 10
195.71722644098668
 20
95.49623930375245
 30
0.0
 11
188.0496559690722
 21
96.68873680073457
 31
0.0
  0
LINE
  5
69
330
17
100
AcDbEntity
  8
FoilLayer
100
AcDbLine
 10
188.0496559690722
 20
96.68873680073457
 30
0.0
 11
180.37022067786938
 21
97.83019620404875
 31
0.0
  0
LINE
  5
6A
330
17
100
AcDbEntity
  8
FoilLayer
100
AcDbLine
 10
180.37022067786938
 20
97.83019620404875
 30
0.0
 11
172.68008874272948
 21
98.92123937315952
 31
0.0
  0
LINE
  5
6B
330
17
100
AcDbEntity
  8
FoilLayer
100
AcDbLine
 10
172.68008874272948
 20
98.92123937315952
 30
0.0
 11
164.9824211506077
 21
99.96182028678756
 31
0.0
  0
LINE
  5
6C
330
17
100
AcDbEntity
  8
FoilLayer
100
AcDbLine
 10
164.9824211506077
 20
99.96182028678756
 30
0.0
 11
157.27907528240962
 21
100.9502937738094
 31
0.0
  0
LINE
  5
6D
330
17
100
AcDbEntity
  8
FoilLayer
100
AcDbLine
 10
157.27907528240962
 20
100.9502937738094
 30
0.0
 11
149.56505533752454
 21
101.88518672496444
 31
0.0
  0
LINE
  5
6E
330
17
100
AcDbEntity
  8
FoilLayer
100
AcDbLine
 10
149.56505533752454
 20
101.88518672496444
 30
0.0
 11
141.8328247870793
 21
102.76807876276087
 31
0.0
  0
LINE
  5
6F
330
17
100
AcDbEntity
  8
FoilLayer
100
AcDbLine
 10
141.8328247870793
 20
102.76807876276087
 30
0.0
 11
134.0796353383859
 21
103.60177736006753
 31
0.0
  0
LINE
  5
70
330
17
100
AcDbEntity
  8
FoilLayer
100
AcDbLine
 10
134.0796353383859
 20
103.60177736006753
 30
0.0
 11
126.30712053625115
 21
104.38871590403566
 31
0.0
  0
LINE
  5
71
330
17
100
AcDbEntity
  8
FoilLayer
100
AcDbLine
 10
126.30712053625115
 20
104.38871590403566
 30
0.0
 11
118.52312347726053
 21
105.13029592638455
 31
0.0
  0
LINE
  5
72
330
17
100
AcDbEntity
  8
FoilLayer
100
AcDbLine
 10
118.52312347726053
 20
105.13029592638455
 30
0.0
 11
110.73648871341396
 21
105.82540288373399
 31
0.0
  0
LINE
  5
73
330
17
100
AcDbEntity
  8
FoilLayer
100
AcDbLine
 10
110.73648871341396
 20
105.82540288373399
 30
0.0
 11
102.95205393279929
 21
106.4717920622972
 31
0.0
  0
LINE
  5
74
330
17
100
AcDbEntity
  8
FoilLayer
100
AcDbLine
 10
102.95205393279929
 20
106.4717920622972
 30
0.0
 11
95.17178563092193
 21
107.06883199206017
 31
0.0
  0
LINE
  5
75
330
17
100
AcDbEntity
  8
FoilLayer
100
AcDbLine
 10
95.17178563092193
 20
107.06883199206017
 30
0.0
 11
87.39944394262733
 21
107.61596526606921
 31
0.0
  0
LINE
  5
76
330
17
100
AcDbEntity
  8
FoilLayer
100
AcDbLine
 10
87.39944394262733
 20
107.61596526606921
 30
0.0
 11
79.63744630698369
 21
108.11165060512697
 31
0.0
  0
LINE
  5
77
330
17
100
AcDbEntity
  8
FoilLayer
100
AcDbLine
 10
79.63744630698369
 20
108.11165060512697
 30
0.0
 11
71.88529473972335
 21
108.55427179517963
 31
0.0
  0
LINE
  5
78
330
17
100
AcDbEntity
  8
FoilLayer
100
AcDbLine
 10
71.88529473972335
 20
108.55427179517963
 30
0.0
 11
64.14056744935408
 21
108.94347472418949
 31
0.0
  0
LINE
  5
79
330
17
100
AcDbEntity
  8
FoilLayer
100
AcDbLine
 10
64.14056744935408
 20
108.94347472418949
 30
0.0
 11
56.40343338097779
 21
109.27952512830397
 31
0.0
  0
LINE
  5
7A
330
17
100
AcDbEntity
  8
FoilLayer
100
AcDbLine
 10
56.40343338097779
 20
109.27952512830397
 30
0.0
 11
48.67468497332521
 21
109.56178834838457
 31
0.0
  0
LINE
  5
7B
330
17
100
AcDbEntity
  8
FoilLayer
100
AcDbLine
 10
48.67468497332521
 20
109.56178834838457
 30
0.0
 11
40.95296080402068
 21
109.78936473122015
 31
0.0
  0
LINE
  5
7C
330
17
100
AcDbEntity
  8
FoilLayer
100
AcDbLine
 10
40.95296080402068
 20
109.78936473122015
 30
0.0
 11
33.23684901794894
 21
109.96225566703507
 31
0.0
  0
LINE
  5
7D
330
17
100
AcDbEntity
  8
FoilLayer
100
AcDbLine
 10
33.23684901794894
 20
109.96225566703507
 30
0.0
 11
25.52779858197829
 21
110.08063942729312
 31
0.0
  0
LINE
  5
7E
330
17
100
AcDbEntity
  8
FoilLayer
100
AcDbLine
 10
25.52779858197829
 20
110.08063942729312
 30
0.0
 11
17.824702754008058
 21
110.14288892317883
 31
0.0
  0
LINE
  5
7F
330
17
100
AcDbEntity
  8
FoilLayer
100
AcDbLine
 10
17.824702754008058
 20
110.14288892317883
 30
0.0
 11
10.123831568225569
 21
110.14836915030386
 31
0.0
  0
LINE
  5
80
330
17
100
AcDbEntity
  8
FoilLayer
100
AcDbLine
 10
10.123831568225569
 20
110.14836915030386
 30
0.0
 11
2.4212280704353475
 21
110.09825383417845
 31
0.0
  0
LINE
  5
81
330
17
100
AcDbEntity
  8
FoilLayer
100
AcDbLine
 10
2.4212280704353475
 20
110.09825383417845
 30
0.0
 11
-5.28055353480994
 21
109.99444809511141
 31
0.0
  0
LINE
  5
82
330
17
100
AcDbEntity
  8
FoilLayer
100
AcDbLine
 10
-5.28055353480994
 20
109.99444809511141
 30
0.0
 11
-12.97616312829473
 21
109.83750228514928
 31
0.0
  0
LINE
  5
83
330
17
100
AcDbEntity
  8
FoilLayer
100
AcDbLine
 10
-12.97616312829473
 20
109.83750228514928
 30
0.0
 11
-20.660783796352916
 21
109.62669697599081
 31
0.0
  0
LINE
  5
84
330
17
100
AcDbEntity
  8
FoilLayer
100
AcDbLine
 10
-20.660783796352916
 20
109.62669697599081
 30
0.0
 11
-28.331534356437714
 21
109.36085651585593
 31
0.0
  0
LINE
  5
85
330
17
100
AcDbEntity
  8
FoilLayer
100
AcDbLine
 10
-28.331534356437714
 20
109.36085651585593
 30
0.0
 11
-35.987991910483515
 21
109.03888617249086
 31
0.0
  0
LINE
  5
86
330
17
100
AcDbEntity
  8
FoilLayer
100
AcDbLine
 10
-35.987991910483515
 20
109.03888617249086
 30
0.0
 11
-43.629857440310104
 21
108.66077799540678
 31
0.0
  0
LINE
  5
87
330
17
100
AcDbEntity
  8
FoilLayer
100
AcDbLine
 10
-43.629857440310104
 20
108.66077799540678
 30
0.0
 11
-51.25488138912772
 21
108.22742460660251
 31
0.0
  0
LINE
  5
88
330
17
100
AcDbEntity
  8
FoilLayer
100
AcDbLine
 10
-51.25488138912772
 20
108.22742460660251
 30
0.0
 11
-58.8557581786622
 21
107.74111822442845
 31
0.0
  0
LINE
  5
89
330
17
100
AcDbEntity
  8
FoilLayer
100
AcDbLine
 10
-58.8557581786622
 20
107.74111822442845
 30
0.0
 11
-66.41822001576725
 21
107.20273603468033
 31
0.0
  0
LINE
  5
8A
330
17
100
AcDbEntity
  8
FoilLayer
100
AcDbLine
 10
-66.41822001576725
 20
107.20273603468033
 30
0.0
 11
-73.93076962989517
 21
106.60951861656021
 31
0.0
  0
LINE
  5
8B
330
17
100
AcDbEntity
  8
FoilLayer
100
AcDbLine
 10
-73.93076962989517
 20
106.60951861656021
 30
0.0
 11
-81.3884419225684
 21
105.95635423892517
 31
0.0
  0
LINE
  5
8C
330
17
100
AcDbEntity
  8
FoilLayer
100
AcDbLine
 10
-81.3884419225684
 20
105.95635423892517
 30
0.0
 11
-88.79740520948349
 21
105.23558305079678
 31
0.0
  0
LINE
  5
8D
330
17
100
AcDbEntity
  8
FoilLayer
100
AcDbLine
 10
-88.79740520948349
 20
105.23558305079678
 30
0.0
 11
-96.17804706867085
 21
104.44149406587039
 31
0.0
  0
LINE
  5
8E
330
17
100
AcDbEntity
  8
FoilLayer
100
AcDbLine
 10
-96.17804706867085
 20
104.44149406587039
 30
0.0
 11
-103.5466305967989
 21
103.57666158378593
 31
0.0
  0
LINE
  5
8F
330
17
100
AcDbEntity
  8
FoilLayer
100
AcDbLine
 10
-103.5466305967989
 20
103.57666158378593
 30
0.0
 11
-110.90096783223899
 21
102.64693781822692
 31
0.0
  0
LINE
  5
90
330
17
100
AcDbEntity
  8
FoilLayer
100
AcDbLine
 10
-110.90096783223899
 20
102.64693781822692
 30
0.0
 11
-118.23265389154977
 21
101.65309861144118
 31
0.0
  0
LINE
  5
91
330
17
100
AcDbEntity
  8
FoilLayer
100
AcDbLine
 10
-118.23265389154977
 20
101.65309861144118
 30
0.0
 11
-125.53860667831668
 21
100.59373662375052
 31
0.0
  0
LINE
  5
92
330
17
100
AcDbEntity
  8
FoilLayer
100
AcDbLine
 10
-125.53860667831668
 20
100.59373662375052
 30
0.0
 11
-132.81681520081017
 21
99.46920384961946
 31
0.0
  0
LINE
  5
93
330
17
100
AcDbEntity
  8
FoilLayer
100
AcDbLine
 10
-132.81681520081017
 20
99.46920384961946
 30
0.0
 11
-140.06081678517796
 21
98.28101829605075
 31
0.0
  0
LINE
  5
94
330
17
100
AcDbEntity
  8
FoilLayer
100
AcDbLine
 10
-140.06081678517796
 20
98.28101829605075
 30
0.0
 11
-147.263831976361
 21
97.02901970093973
 31
0.0
  0
LINE
  5
95
330
17
100
AcDbEntity
  8
FoilLayer
100
AcDbLine
 10
-147.263831976361
 20
97.02901970093973
 30
0.0
 11
-154.42044577039977
 21
95.71268696112415
 31
0.0
  0
LINE
  5
96
330
17
100
AcDbEntity
  8
FoilLayer
100
AcDbLine
 10
-154.42044577039977
 20
95.71268696112415
 30
0.0
 11
-161.5265512144772
 21
94.3311125333077
 31
0.0
  0
LINE
  5
97
330
17
100
AcDbEntity
  8
FoilLayer
100
AcDbLine
 10
-161.5265512144772
 20
94.3311125333077
 30
0.0
 11
-168.57865386132192
 21
92.88373500759593
 31
0.0
  0
LINE
  5
98
330
17
100
AcDbEntity
  8
FoilLayer
100
AcDbLine
 10
-168.57865386132192
 20
92.88373500759593
 30
0.0
 11
-175.57279081760424
 21
91.37089053016912
 31
0.0
  0
LINE
  5
99
330
17
100
AcDbEntity
  8
FoilLayer
100
AcDbLine
 10
-175.57279081760424
 20
91.37089053016912
 30
0.0
 11
-182.5010310982793
 21
89.79275329113139
 31
0.0
  0
LINE
  5
9A
330
17
100
AcDbEntity
  8
FoilLayer
100
AcDbLine
 10
-182.5010310982793
 20
89.79275329113139
 30
0.0
 11
-189.3617724502225
 21
88.14310392564062
 31
0.0
  0
LINE
  5
9B
330
17
100
AcDbEntity
  8
FoilLayer
100
AcDbLine
 10
-189.3617724502225
 20
88.14310392564062
 30
0.0
 11
-196.1680814365673
 21
86.41762944157574
 31
0.0
  0
LINE
  5
9C
330
17
100
AcDbEntity
  8
FoilLayer
100
AcDbLine
 10
-196.1680814365673
 20
86.41762944157574
 30
0.0
 11
-202.91998461653904
 21
84.62807087341237
 31
0.0
  0
LINE
  5
9D
330
17
100
AcDbEntity
  8
FoilLayer
100
AcDbLine
 10
-202.91998461653904
 20
84.62807087341237
 30
0.0
 11
-209.58203591493736
 21
82.7924763047746
 31
0.0
  0
LINE
  5
9E
330
17
100
AcDbEntity
  8
FoilLayer
100
AcDbLine
 10
-209.58203591493736
 20
82.7924763047746
 30
0.0
 11
-216.11694192289633
 21
80.91287575163594
 31
0.0
  0
LINE
  5
9F
330
17
100
AcDbEntity
  8
FoilLayer
100
AcDbLine
 10
-216.11694192289633
 20
80.91287575163594
 30
0.0
 11
-222.51201899661476
 21
78.98036159182067
 31
0.0
  0
LINE
  5
A0
330
17
100
AcDbEntity
  8
FoilLayer
100
AcDbLine
 10
-222.51201899661476
 20
78.98036159182067
 30
0.0
 11
-228.7687298310491
 21
76.98746616260183
 31
0.0
  0
LINE
  5
A1
330
17
100
AcDbEntity
  8
FoilLayer
100
AcDbLine
 10
-228.7687298310491
 20
76.98746616260183
 30
0.0
 11
-234.89167546425884
 21
74.93022702960606
 31
0.0
  0
LINE
  5
A2
330
17
100
AcDbEntity
  8
FoilLayer
100
AcDbLine
 10
-234.89167546425884
 20
74.93022702960606
 30
0.0
 11
-240.88461700153596
 21
72.80771392702337
 31
0.0
  0
LINE
  5
A3
330
17
100
AcDbEntity
  8
FoilLayer
100
AcDbLine
 10
-240.88461700153596
 20
72.80771392702337
 30
0.0
 11
-246.74718600179241
 21
70.62225415474924
 31
0.0
  0
LINE
  5
A4
330
17
100
AcDbEntity
  8
FoilLayer
100
AcDbLine
 10
-246.74718600179241
 20
70.62225415474924
 30
0.0
 11
-252.4734416247336
 21
68.38007177016026
 31
0.0
  0
LINE
  5
A5
330
17
100
AcDbEntity
  8
FoilLayer
100
AcDbLine
 10
-252.4734416247336
 20
68.38007177016026
 30
0.0
 11
-258.0504517668856
 21
66.08998353977515
 31
0.0
  0
LINE
  5
A6
330
17
100
AcDbEntity
  8
FoilLayer
100
AcDbLine
 10
-258.0504517668856
 20
66.08998353977515
 30
0.0
 11
-263.4626923494495
 21
63.75867309778313
 31
0.0
  0
LINE
  5
A7
330
17
100
AcDbEntity
  8
FoilLayer
100
AcDbLine
 10
-263.4626923494495
 20
63.75867309778313
 30
0.0
 11
-268.7002451350607
 21
61.391338883988524
 31
0.0
  0
LINE
  5
A8
330
17
100
AcDbEntity
  8
FoilLayer
100
AcDbLine
 10
-268.7002451350607
 20
61.391338883988524
 30
0.0
 11
-273.75306560758696
 21
59.00141124163618
 31
0.0
  0
LINE
  5
A9
330
17
100
AcDbEntity
  8
FoilLayer
100
AcDbLine
 10
-273.75306560758696
 20
59.00141124163618
 30
0.0
 11
-278.6012585543261
 21
56.6108079536628
 31
0.0
  0
LINE
  5
AA
330
17
100
AcDbEntity
  8
FoilLayer
100
AcDbLine
 10
-278.6012585543261
 20
56.6108079536628
 30
0.0
 11
-283.2204562865683
 21
54.238304459562315
 31
0.0
  0
LINE
  5
AB
330
17
100
AcDbEntity
  8
FoilLayer
100
AcDbLine
 10
-283.2204562865683
 20
54.238304459562315
 30
0.0
 11
-287.59246555187013
 21
51.89547908699626
 31
0.0
  0
LINE
  5
AC
330
17
100
AcDbEntity
  8
FoilLayer
100
AcDbLine
 10
-287.59246555187013
 20
51.89547908699626
 30
0.0
 11
-291.707673156906
 21
49.58936503653733
 31
0.0
  0
LINE
  5
AD
330
17
100
AcDbEntity
  8
FoilLayer
100
AcDbLine
 10
-291.707673156906
 20
49.58936503653733
 30
0.0
 11
-295.5657389489354
 21
47.32319052536698
 31
0.0
  0
LINE
  5
AE
330
17
100
AcDbEntity
  8
FoilLayer
100
AcDbLine
 10
-295.5657389489354
 20
47.32319052536698
 30
0.0
 11
-299.173211766958
 21
45.10160914301101
 31
0.0
  0
LINE
  5
AF
330
17
100
AcDbEntity
  8
FoilLayer
100
AcDbLine
 10
-299.173211766958
 20
45.10160914301101
 30
0.0
 11
-302.53816038683595
 21
42.932824574069386
 31
0.0
  0
LINE
  5
B0
330
17
100
AcDbEntity
  8
FoilLayer
100
AcDbLine
 10
-302.53816038683595
 20
42.932824574069386
 30
0.0
 11
-305.6693360394063
 21
40.82466126385139
 31
0.0
  0
LINE
  5
B1
330
17
100
AcDbEntity
  8
FoilLayer
100
AcDbLine
 10
-305.6693360394063
 20
40.82466126385139
 30
0.0
 11
-308.5757333649339
 21
38.784262465671624
 31
0.0
  0
LINE
  5
B2
330
17
100
AcDbEntity
  8
FoilLayer
100
AcDbLine
 10
-308.5757333649339
 20
38.784262465671624
 30
0.0
 11
-311.2662890088484
 21
36.815041739956214
 31
0.0
  0
LINE
  5
B3
330
17
100
AcDbEntity
  8
FoilLayer
100
AcDbLine
 10
-311.2662890088484
 20
36.815041739956214
 30
0.0
 11
-313.7514254033896
 21
34.916040581089106
 31
0.0
  0
LINE
  5
B4
330
17
100
AcDbEntity
  8
FoilLayer
100
AcDbLine
 10
-313.7514254033896
 20
34.916040581089106
 30
0.0
 11
-316.04282323696447
 21
33.083538321804056
 31
0.0
  0
LINE
  5
B5
330
17
100
AcDbEntity
  8
FoilLayer
100
AcDbLine
 10
-316.04282323696447
 20
33.083538321804056
 30
0.0
 11
-318.1537069335328
 21
31.311476485447518
 31
0.0
  0
LINE
  5
B6
330
17
100
AcDbEntity
  8
FoilLayer
100
AcDbLine
 10
-318.1537069335328
 20
31.311476485447518
 30
0.0
 11
-320.1002733458903
 21
29.59342781923912
 31
0.0
  0
LINE
  5
B7
330
17
100
AcDbEntity
  8
FoilLayer
100
AcDbLine
 10
-320.1002733458903
 20
29.59342781923912
 30
0.0
 11
-321.89871169613804
 21
27.929200304123917
 31
0.0
  0
LINE
  5
B8
330
17
100
AcDbEntity
  8
FoilLayer
100
AcDbLine
 10
-321.89871169613804
 20
27.929200304123917
 30
0.0
 11
-323.5619001844838
 21
26.3212262679371
 31
0.0
  0
LINE
  5
B9
330
17
100
AcDbEntity
  8
FoilLayer
100
AcDbLine
 10
-323.5619001844838
 20
26.3212262679371
 30
0.0
 11
-325.0992906415102
 21
24.769608181685015
 31
0.0
  0
LINE
  5
BA
330
17
100
AcDbEntity
  8
FoilLayer
100
AcDbLine
 10
-325.0992906415102
 20
24.769608181685015
 30
0.0
 11
-326.51955248036455
 21
23.27068515507891
 31
0.0
  0
LINE
  5
BB
330
17
100
AcDbEntity
  8
FoilLayer
100
AcDbLine
 10
-326.51955248036455
 20
23.27068515507891
 30
0.0
 11
-327.83092213805656
 21
21.82124132667914
 31
0.0
  0
LINE
  5
BC
330
17
100
AcDbEntity
  8
FoilLayer
100
AcDbLine
 10
-327.83092213805656
 20
21.82124132667914
 30
0.0
 11
-329.04084379820137
 21
20.41814630545107
 31
0.0
  0
LINE
  5
BD
330
17
100
AcDbEntity
  8
FoilLayer
100
AcDbLine
 10
-329.04084379820137
 20
20.41814630545107
 30
0.0
 11
-330.1562499209953
 21
19.05813545802026
 31
0.0
  0
LINE
  5
BE
330
17
100
AcDbEntity
  8
FoilLayer
100
AcDbLine
 10
-330.1562499209953
 20
19.05813545802026
 30
0.0
 11
-331.18461088678384
 21
17.73674384554293
 31
0.0
  0
LINE
  5
BF
330
17
100
AcDbEntity
  8
FoilLayer
100
AcDbLine
 10
-331.18461088678384
 20
17.73674384554293
 30
0.0
 11
-332.13370025857427
 21
16.451714919395304
 31
0.0
  0
LINE
  5
C0
330
17
100
AcDbEntity
  8
FoilLayer
100
AcDbLine
 10
-332.13370025857427
 20
16.451714919395304
 30
0.0
 11
-333.0085425282764
 21
15.205443659102464
 31
0.0
  0
LINE
  5
C1
330
17
100
AcDbEntity
  8
FoilLayer
100
AcDbLine
 10
-333.0085425282764
 20
15.205443659102464
 30
0.0
 11
-333.810695138238
 21
13.998417636149222
 31
0.0
  0
LINE
  5
C2
330
17
100
AcDbEntity
  8
FoilLayer
100
AcDbLine
 10
-333.810695138238
 20
13.998417636149222
 30
0.0
 11
-334.54523985360964
 21
12.818830075646188
 31
0.0
  0
LINE
  5
C3
330
17
100
AcDbEntity
  8
FoilLayer
100
AcDbLine
 10
-334.54523985360964
 20
12.818830075646188
 30
0.0
 11
-335.22354909793177
 21
11.658239310510266
 31
0.0
  0
LINE
  5
C4
330
17
100
AcDbEntity
  8
FoilLayer
100
AcDbLine
 10
-335.22354909793177
 20
11.658239310510266
 30
0.0
 11
-335.8496755823655
 21
10.536636493006858
 31
0.0
  0
LINE
  5
C5
330
17
100
AcDbEntity
  8
FoilLayer
100
AcDbLine
 10
-335.8496755823655
 20
10.536636493006858
 30
0.0
 11
-336.41241507429044
 21
9.471514423783757
 31
0.0
  0
LINE
  5
C6
330
17
100
AcDbEntity
  8
FoilLayer
100
AcDbLine
 10
-336.41241507429044
 20
9.471514423783757
 30
0.0
 11
-336.9068434156453
 21
8.429418575366121
 31
0.0
  0
LINE
  5
C7
330
17
100
AcDbEntity
  8
FoilLayer
100
AcDbLine
 10
-336.9068434156453
 20
8.429418575366121
 30
0.0
 11
-337.34773359920354
 21
7.3746095705334245
 31
0.0
  0
LINE
  5
C8
330
17
100
AcDbEntity
  8
FoilLayer
100
AcDbLine
 10
-337.34773359920354
 20
7.3746095705334245
 30
0.0
 11
-337.7488459391854
 21
6.343763176226535
 31
0.0
  0
LINE
  5
C9
330
17
100
AcDbEntity
  8
FoilLayer
100
AcDbLine
 10
-337.7488459391854
 20
6.343763176226535
 30
0.0
 11
-338.10016148966184
 21
5.378840968657788
 31
0.0
  0
LINE
  5
CA
330
17
100
AcDbEntity
  8
FoilLayer
100
AcDbLine
 10
-338.10016148966184
 20
5.378840968657788
 30
0.0
 11
-338.3873205827541
 21
4.4473144284475685
 31
0.0
  0
LINE
  5
CB
330
17
100
AcDbEntity
  8
FoilLayer
100
AcDbLine
 10
-338.3873205827541
 20
4.4473144284475685
 30
0.0
 11
-338.61266304372333
 21
3.507291895783257
 31
0.0
  0
LINE
  5
CC
330
17
100
AcDbEntity
  8
FoilLayer
100
AcDbLine
 10
-338.61266304372333
 20
3.507291895783257
 30
0.0
 11
-338.78984306768865
 21
2.575480302105568
 31
0.0
  0
LINE
  5
CD
330
17
100
AcDbEntity
  8
FoilLayer
100
AcDbLine
 10
-338.78984306768865
 20
2.575480302105568
 30
0.0
 11
-338.92446975371666
 21
1.6779223103754572
 31
0.0
  0
LINE
  5
CE
330
17
100
AcDbEntity
  8
FoilLayer
100
AcDbLine
 10
-338.92446975371666
 20
1.6779223103754572
 30
0.0
 11
-339.012185391344
 21
0.8096871446369583
 31
0.0
  0
LINE
  5
CF
330
17
100
AcDbEntity
  8
FoilLayer
100
AcDbLine
 10
-339.012185391344
 20
0.8096871446369583
 30
0.0
 11
-339.0508474576271
 21
-0.05657678522316336
 31
0.0
  0
LINE
  5
D0
330
17
100
AcDbEntity
  8
FoilLayer
100
AcDbLine
 10
-339.0508474576271
 20
-0.05657678522316336
 30
0.0
 11
-339.04294056191134
 21
-0.8537651152606629
 31
0.0
  0
LINE
  5
D1
330
17
100
AcDbEntity
  8
FoilLayer
100
AcDbLine
 10
-339.04294056191134
 20
-0.8537651152606629
 30
0.0
 11
-338.9830522047139
 21
-1.6560170535994019
 31
0.0
  0
LINE
  5
D2
330
17
100
AcDbEntity
  8
FoilLayer
100
AcDbLine
 10
-338.9830522047139
 20
-1.6560170535994019
 30
0.0
 11
-338.8569941298211
 21
-2.4565114017666
 31
0.0
  0
LINE
  5
D3
330
17
100
AcDbEntity
  8
FoilLayer
100
AcDbLine
 10
-338.8569941298211
 20
-2.4565114017666
 30
0.0
 11
-338.65623592676735
 21
-3.2627210550656507
 31
0.0
  0
LINE
  5
D4
330
17
100
AcDbEntity
  8
FoilLayer
100
AcDbLine
 10
-338.65623592676735
 20
-3.2627210550656507
 30
0.0
 11
-338.3823361111693
 21
-4.069316866347635
 31
0.0
  0
LINE
  5
D5
330
17
100
AcDbEntity
  8
FoilLayer
100
AcDbLine
 10
-338.3823361111693
 20
-4.069316866347635
 30
0.0
 11
-338.0378705053317
 21
-4.868866914611408
 31
0.0
  0
LINE
  5
D6
330
17
100
AcDbEntity
  8
FoilLayer
100
AcDbLine
 10
-338.0378705053317
 20
-4.868866914611408
 30
0.0
 11
-337.62303369455674
 21
-5.6557306568040415
 31
0.0
  0
LINE
  5
D7
330
17
100
AcDbEntity
  8
FoilLayer
100
AcDbLine
 10
-337.62303369455674
 20
-5.6557306568040415
 30
0.0
 11
-337.13707079792044
 21
-6.424404215495655
 31
0.0
  0
LINE
  5
D8
330
17
100
AcDbEntity
  8
FoilLayer
100
AcDbLine
 10
-337.13707079792044
 20
-6.424404215495655
 30
0.0
 11
-336.5724351928263
 21
-7.176145399369801
 31
0.0
  0
LINE
  5
D9
330
17
100
AcDbEntity
  8
FoilLayer
100
AcDbLine
 10
-336.5724351928263
 20
-7.176145399369801
 30
0.0
 11
-335.9254130298189
 21
-7.913077269197821
 31
0.0
  0
LINE
  5
DA
330
17
100
AcDbEntity
  8
FoilLayer
100
AcDbLine
 10
-335.9254130298189
 20
-7.913077269197821
 30
0.0
 11
-335.2023879690405
 21
-8.633186506809844
 31
0.0
  0
LINE
  5
DB
330
17
100
AcDbEntity
  8
FoilLayer
100
AcDbLine
 10
-335.2023879690405
 20
-8.633186506809844
 30
0.0
 11
-334.40794310036426
 21
-9.33469374960738
 31
0.0
  0
LINE
  5
DC
330
17
100
AcDbEntity
  8
FoilLayer
100
AcDbLine
 10
-334.40794310036426
 20
-9.33469374960738
 30
0.0
 11
-333.54424568635443
 21
-10.015787018850789
 31
0.0
  0
LINE
  5
DD
330
17
100
AcDbEntity
  8
FoilLayer
100
AcDbLine
 10
-333.54424568635443
 20
-10.015787018850789
 30
0.0
 11
-332.61143582361
 21
-10.674436659832168
 31
0.0
  0
LINE
  5
DE
330
17
100
AcDbEntity
  8
FoilLayer
100
AcDbLine
 10
-332.61143582361
 20
-10.674436659832168
 30
0.0
 11
-331.60556316409367
 21
-11.309562191911757
 31
0.0
  0
LINE
  5
DF
330
17
100
AcDbEntity
  8
FoilLayer
100
AcDbLine
 10
-331.60556316409367
 20
-11.309562191911757
 30
0.0
 11
-330.52230372496956
 21
-11.921240023130414
 31
0.0
  0
LINE
  5
E0
330
17
100
AcDbEntity
  8
FoilLayer
100
AcDbLine
 10
-330.52230372496956
 20
-11.921240023130414
 30
0.0
 11
-329.35650919983055
 21
-12.51123740146109
 31
0.0
  0
LINE
  5
E1
330
17
100
AcDbEntity
  8
FoilLayer
100
AcDbLine
 10
-329.35650919983055
 20
-12.51123740146109
 30
0.0
 11
-328.1040990474554
 21
-13.08327694943055
 31
0.0
  0
LINE
  5
E2
330
17
100
AcDbEntity
  8
FoilLayer
100
AcDbLine
 10
-328.1040990474554
 20
-13.08327694943055
 30
0.0
 11
-326.7633086632543
 21
-13.642401398826111
 31
0.0
  0
LINE
  5
E3
330
17
100
AcDbEntity
  8
FoilLayer
100
AcDbLine
 10
-326.7633086632543
 20
-13.642401398826111
 30
0.0
 11
-325.333037936122
 21
-14.193187269267337
 31
0.0
  0
LINE
  5
E4
330
17
100
AcDbEntity
  8
FoilLayer
100
AcDbLine
 10
-325.333037936122
 20
-14.193187269267337
 30
0.0
 11
-323.8097838743105
 21
-14.738967852062398
 31
0.0
  0
LINE
  5
E5
330
17
100
AcDbEntity
  8
FoilLayer
100
AcDbLine
 10
-323.8097838743105
 20
-14.738967852062398
 30
0.0
 11
-322.1881788488772
 21
-15.281911343404701
 31
0.0
  0
LINE
  5
E6
330
17
100
AcDbEntity
  8
FoilLayer
100
AcDbLine
 10
-322.1881788488772
 20
-15.281911343404701
 30
0.0
 11
-320.46177286539574
 21
-15.823055217855213
 31
0.0
  0
LINE
  5
E7
330
17
100
AcDbEntity
  8
FoilLayer
100
AcDbLine
 10
-320.46177286539574
 20
-15.823055217855213
 30
0.0
 11
-318.6241007500145
 21
-16.3613401251396
 31
0.0
  0
LINE
  5
E8
330
17
100
AcDbEntity
  8
FoilLayer
100
AcDbLine
 10
-318.6241007500145
 20
-16.3613401251396
 30
0.0
 11
-316.6631343306049
 21
-16.892459713815256
 31
0.0
  0
LINE
  5
E9
330
17
100
AcDbEntity
  8
FoilLayer
100
AcDbLine
 10
-316.6631343306049
 20
-16.892459713815256
 30
0.0
 11
-314.5594556002028
 21
-17.412500382734827
 31
0.0
  0
LINE
  5
EA
330
17
100
AcDbEntity
  8
FoilLayer
100
AcDbLine
 10
-314.5594556002028
 20
-17.412500382734827
 30
0.0
 11
-312.2949233900059
 21
-17.92336813682364
 31
0.0
  0
LINE
  5
EB
330
17
100
AcDbEntity
  8
FoilLayer
100
AcDbLine
 10
-312.2949233900059
 20
-17.92336813682364
 30
0.0
 11
-309.85528445823104
 21
-18.430165750008857
 31
0.0
  0
LINE
  5
EC
330
17
100
AcDbEntity
  8
FoilLayer
100
AcDbLine
 10
-309.85528445823104
 20
-18.430165750008857
 30
0.0
 11
-307.22503099857147
 21
-18.936538021399176
 31
0.0
  0
LINE
  5
ED
330
17
100
AcDbEntity
  8
FoilLayer
100
AcDbLine
 10
-307.22503099857147
 20
-18.936538021399176
 30
0.0
 11
-304.3869767954867
 21
-19.443909270774594
 31
0.0
  0
LINE
  5
EE
330
17
100
AcDbEntity
  8
FoilLayer
100
AcDbLine
 10
-304.3869767954867
 20
-19.443909270774594
 30
0.0
 11
-301.32373380076035
 21
-19.948656366480463
 31
0.0
  0
LINE
  5
EF
330
17
100
AcDbEntity
  8
FoilLayer
100
AcDbLine
 10
-301.32373380076035
 20
-19.948656366480463
 30
0.0
 11
-298.012952053153
 21
-20.44123425447583
 31
0.0
  0
LINE
  5
F0
330
17
100
AcDbEntity
  8
FoilLayer
100
AcDbLine
 10
-298.012952053153
 20
-20.44123425447583
 30
0.0
 11
-294.42762253425184
 21
-20.91250457991259
 31
0.0
  0
LINE
  5
F1
330
17
100
AcDbEntity
  8
FoilLayer
100
AcDbLine
 10
-294.42762253425184
 20
-20.91250457991259
 30
0.0
 11
-290.53691127906336
 21
-21.355969798402324
 31
0.0
  0
LINE
  5
F2
330
17
100
AcDbEntity
  8
FoilLayer
100
AcDbLine
 10
-290.53691127906336
 20
-21.355969798402324
 30
0.0
 11
-286.3063105576662
 21
-21.76981789739698
 31
0.0
  0
LINE
  5
F3
330
17
100
AcDbEntity
  8
FoilLayer
100
AcDbLine
 10
-286.3063105576662
 20
-21.76981789739698
 30
0.0
 11
-281.71003271636914
 21
-22.161226798344895
 31
0.0
  0
LINE
  5
F4
330
17
100
AcDbEntity
  8
FoilLayer
100
AcDbLine
 10
-281.71003271636914
 20
-22.161226798344895
 30
0.0
 11
-276.74298104575894
 21
-22.535114405836648
 31
0.0
  0
LINE
  5
F5
330
17
100
AcDbEntity
  8
FoilLayer
100
AcDbLine
 10
-276.74298104575894
 20
-22.535114405836648
 30
0.0
 11
-271.4105586933086
 21
-22.881266640432237
 31
0.0
  0
LINE
  5
F6
330
17
100
AcDbEntity
  8
FoilLayer
100
AcDbLine
 10
-271.4105586933086
 20
-22.881266640432237
 30
0.0
 11
-265.71472682509176
 21
-23.18458624055153
 31
0.0
  0
LINE
  5
F7
330
17
100
AcDbEntity
  8
FoilLayer
100
AcDbLine
 10
-265.71472682509176
 20
-23.18458624055153
 30
0.0
 11
-259.6585545709397
 21
-23.43758103574533
 31
0.0
  0
LINE
  5
F8
330
17
100
AcDbEntity
  8
FoilLayer
100
AcDbLine
 10
-259.6585545709397
 20
-23.43758103574533
 30
0.0
 11
-253.25118605216346
 21
-23.640315741229628
 31
0.0
  0
LINE
  5
F9
330
17
100
AcDbEntity
  8
FoilLayer
100
AcDbLine
 10
-253.25118605216346
 20
-23.640315741229628
 30
0.0
 11
-246.51880439420327
 21
-23.80078264069981
 31
0.0
  0
LINE
  5
FA
330
17
100
AcDbEntity
  8
FoilLayer
100
AcDbLine
 10
-246.51880439420327
 20
-23.80078264069981
 30
0.0
 11
-239.5200618230179
 21
-23.92697150814469
 31
0.0
  0
LINE
  5
FB
330
17
100
AcDbEntity
  8
FoilLayer
100
AcDbLine
 10
-239.5200618230179
 20
-23.92697150814469
 30
0.0
 11
-232.32771120878488
 21
-24.014514482548662
 31
0.0
  0
LINE
  5
FC
330
17
100
AcDbEntity
  8
FoilLayer
100
AcDbLine
 10
-232.32771120878488
 20
-24.014514482548662
 30
0.0
 11
-224.99525118070108
 21
-24.051466432226473
 31
0.0
  0
LINE
  5
FD
330
17
100
AcDbEntity
  8
FoilLayer
100
AcDbLine
 10
-224.99525118070108
 20
-24.051466432226473
 30
0.0
 11
-217.5457310237924
 21
-24.024518743246166
 31
0.0
  0
LINE
  5
FE
330
17
100
AcDbEntity
  8
FoilLayer
100
AcDbLine
 10
-217.5457310237924
 20
-24.024518743246166
 30
0.0
 11
-209.96137792441814
 21
-23.926802374952338
 31
0.0
  0
LINE
  5
FF
330
17
100
AcDbEntity
  8
FoilLayer
100
AcDbLine
 10
-209.96137792441814
 20
-23.926802374952338
 30
0.0
 11
-202.21632500710754
 21
-23.770576049441193
 31
0.0
  0
LINE
  5
100
330
17
100
AcDbEntity
  8
FoilLayer
100
AcDbLine
 10
-202.21632500710754
 20
-23.770576049441193
 30
0.0
 11
-194.32951068401633
 21
-23.575312906369014
 31
0.0
  0
LINE
  5
101
330
17
100
AcDbEntity
  8
FoilLayer
100
AcDbLine
 10
-194.32951068401633
 20
-23.575312906369014
 30
0.0
 11
-186.33562805357377
 21
-23.344122668005213
 31
0.0
  0
LINE
  5
102
330
17
100
AcDbEntity
  8
FoilLayer
100
AcDbLine
 10
-186.33562805357377
 20
-23.344122668005213
 30
0.0
 11
-178.2388556667176
 21
-23.07475523839345
 31
0.0
  0
LINE
  5
103
330
17
100
AcDbEntity
  8
FoilLayer
100
AcDbLine
 10
-178.2388556667176
 20
-23.07475523839345
 30
0.0
 11
-170.03828102817306
 21
-22.775709504272267
 31
0.0
  0
LINE
  5
104
330
17
100
AcDbEntity
  8
FoilLayer
100
AcDbLine
 10
-170.03828102817306
 20
-22.775709504272267
 30
0.0
 11
-161.76018042643412
 21
-22.459930690124274
 31
0.0
  0
LINE
  5
105
330
17
100
AcDbEntity
  8
FoilLayer
100
AcDbLine
 10
-161.76018042643412
 20
-22.459930690124274
 30
0.0
 11
-158.98272342061986
 21
-22.3506094486573
 31
0.0
  0
LINE
  5
106
330
17
100
AcDbEntity
  8
FoilLayer
100
AcDbLine
 10
-158.98272342061986
 20
-22.3506094486573
 30
0.0
 11
-158.92372881355934
 21
-23.849448878462162
 31
0.0
  0
LINE
  5
107
330
17
100
AcDbEntity
  8
FoilLayer
100
AcDbLine
 10
-158.92372881355934
 20
-23.849448878462162
 30
0.0
 11
-153.38358107043373
 21
-23.63138759869398
 31
0.0
  0
LINE
  5
108
330
17
100
AcDbEntity
  8
FoilLayer
100
AcDbLine
 10
-153.38358107043373
 20
-23.63138759869398
 30
0.0
 11
-145.0609815812254
 21
-23.28956573740989
 31
0.0
  0
LINE
  5
109
330
17
100
AcDbEntity
  8
FoilLayer
100
AcDbLine
 10
-145.0609815812254
 20
-23.28956573740989
 30
0.0
 11
-136.74364927266382
 21
-22.922860988242743
 31
0.0
  0
LINE
  5
10A
330
17
100
AcDbEntity
  8
FoilLayer
100
AcDbLine
 10
-136.74364927266382
 20
-22.922860988242743
 30
0.0
 11
-128.4077910183791
 21
-22.524916409032627
 31
0.0
  0
LINE
  5
10B
330
17
100
AcDbEntity
  8
FoilLayer
100
AcDbLine
 10
-128.4077910183791
 20
-22.524916409032627
 30
0.0
 11
-120.03170240156808
 21
-22.10236138231773
 31
0.0
  0
LINE
  5
10C
330
17
100
AcDbEntity
  8
FoilLayer
100
AcDbLine
 10
-120.03170240156808
 20
-22.10236138231773
 30
0.0
 11
-111.62046897595872
 21
-21.6650037617162
 31
0.0
  0
LINE
  5
10D
330
17
100
AcDbEntity
  8
FoilLayer
100
AcDbLine
 10
-111.62046897595872
 20
-21.6650037617162
 30
0.0
 11
-103.19361563532792
 21
-21.218383168253087
 31
0.0
  0
LINE
  5
10E
330
17
100
AcDbEntity
  8
FoilLayer
100
AcDbLine
 10
-103.19361563532792
 20
-21.218383168253087
 30
0.0
 11
-94.77475387912668
 21
-20.761137400036997
 31
0.0
  0
LINE
  5
10F
330
17
100
AcDbEntity
  8
FoilLayer
100
AcDbLine
 10
-94.77475387912668
 20
-20.761137400036997
 30
0.0
 11
-86.36706217843502
 21
-20.283640230368626
 31
0.0
  0
LINE
  5
110
330
17
100
AcDbEntity
  8
FoilLayer
100
AcDbLine
 10
-86.36706217843502
 20
-20.283640230368626
 30
0.0
 11
-77.94456788385673
 21
-19.780170411304073
 31
0.0
  0
LINE
  5
111
330
17
100
AcDbEntity
  8
FoilLayer
100
AcDbLine
 10
-77.94456788385673
 20
-19.780170411304073
 30
0.0
 11
-69.48402274977843
 21
-19.25545024273355
 31
0.0
  0
LINE
  5
112
330
17
100
AcDbEntity
  8
FoilLayer
100
AcDbLine
 10
-69.48402274977843
 20
-19.25545024273355
 30
0.0
 11
-60.985063522362395
 21
-18.721648728220295
 31
0.0
  0
LINE
  5
113
330
17
100
AcDbEntity
  8
FoilLayer
100
AcDbLine
 10
-60.985063522362395
 20
-18.721648728220295
 30
0.0
 11
-52.46685184154779
 21
-18.19293276743497
 31
0.0
  0
LINE
  5
114
330
17
100
AcDbEntity
  8
FoilLayer
100
AcDbLine
 10
-52.46685184154779
 20
-18.19293276743497
 30
0.0
 11
-43.92857038619974
 21
-17.668939106539863
 31
0.0
  0
LINE
  5
115
330
17
100
AcDbEntity
  8
FoilLayer
100
AcDbLine
 10
-43.92857038619974
 20
-17.668939106539863
 30
0.0
 11
-35.38166165220616
 21
-17.137861995809427
 31
0.0
  0
LINE
  5
116
330
17
100
AcDbEntity
  8
FoilLayer
100
AcDbLine
 10
-35.38166165220616
 20
-17.137861995809427
 30
0.0
 11
-26.814773957138527
 21
-16.595978083407157
 31
0.0
  0
LINE
  5
117
330
17
100
AcDbEntity
  8
FoilLayer
100
AcDbLine
 10
-26.814773957138527
 20
-16.595978083407157
 30
0.0
 11
-18.2275440471592
 21
-16.04955349803352
 31
0.0
  0
LINE
  5
118
330
17
100
AcDbEntity
  8
FoilLayer
100
AcDbLine
 10
-18.2275440471592
 20
-16.04955349803352
 30
0.0
 11
-9.63350312772286
 21
-15.504672741470154
 31
0.0
  0
LINE
  5
119
330
17
100
AcDbEntity
  8
FoilLayer
100
AcDbLine
 10
-9.63350312772286
 20
-15.504672741470154
 30
0.0
 11
-1.0371010583414204
 21
-14.963878590581006
 31
0.0
  0
LINE
  5
11A
330
17
100
AcDbEntity
  8
FoilLayer
100
AcDbLine
 10
-1.0371010583414204
 20
-14.963878590581006
 30
0.0
 11
7.56148053406622
 21
-14.427715926122648
 31
0.0
  0
LINE
  5
11B
330
17
100
AcDbEntity
  8
FoilLayer
100
AcDbLine
 10
7.56148053406622
 20
-14.427715926122648
 30
0.0
 11
16.15960805917689
 21
-13.894005225068826
 31
0.0
  0
LINE
  5
11C
330
17
100
AcDbEntity
  8
FoilLayer
100
AcDbLine
 10
16.15960805917689
 20
-13.894005225068826
 30
0.0
 11
24.7499256267767
 21
-13.35711605293505
 31
0.0
  0
LINE
  5
11D
330
17
100
AcDbEntity
  8
FoilLayer
100
AcDbLine
 10
24.7499256267767
 20
-13.35711605293505
 30
0.0
 11
33.33879017902564
 21
-12.811872042533972
 31
0.0
  0
LINE
  5
11E
330
17
100
AcDbEntity
  8
FoilLayer
100
AcDbLine
 10
33.33879017902564
 20
-12.811872042533972
 30
0.0
 11
41.934647367650484
 21
-12.261905732242676
 31
0.0
  0
LINE
  5
11F
330
17
100
AcDbEntity
  8
FoilLayer
100
AcDbLine
 10
41.934647367650484
 20
-12.261905732242676
 30
0.0
 11
50.52995967551885
 21
-11.715027079571904
 31
0.0
  0
LINE
  5
120
330
17
100
AcDbEntity
  8
FoilLayer
100
AcDbLine
 10
50.52995967551885
 20
-11.715027079571904
 30
0.0
 11
59.1264525583598
 21
-11.173597234466769
 31
0.0
  0
LINE
  5
121
330
17
100
AcDbEntity
  8
FoilLayer
100
AcDbLine
 10
59.1264525583598
 20
-11.173597234466769
 30
0.0
 11
67.72548821806458
 21
-10.636344808495286
 31
0.0
  0
LINE
  5
122
330
17
100
AcDbEntity
  8
FoilLayer
100
AcDbLine
 10
67.72548821806458
 20
-10.636344808495286
 30
0.0
 11
76.32261679512146
 21
-10.098093434470103
 31
0.0
  0
LINE
  5
123
330
17
100
AcDbEntity
  8
FoilLayer
100
AcDbLine
 10
76.32261679512146
 20
-10.098093434470103
 30
0.0
 11
84.91520469920698
 21
-9.554393252879285
 31
0.0
  0
LINE
  5
124
330
17
100
AcDbEntity
  8
FoilLayer
100
AcDbLine
 10
84.91520469920698
 20
-9.554393252879285
 30
0.0
 11
93.50860992442733
 21
-9.004790196425697
 31
0.0
  0
LINE
  5
125
330
17
100
AcDbEntity
  8
FoilLayer
100
AcDbLine
 10
93.50860992442733
 20
-9.004790196425697
 30
0.0
 11
102.10074376121571
 21
-8.452371922729867
 31
0.0
  0
LINE
  5
126
330
17
100
AcDbEntity
  8
FoilLayer
100
AcDbLine
 10
102.10074376121571
 20
-8.452371922729867
 30
0.0
 11
110.68425031935851
 21
-7.90276886627628
 31
0.0
  0
LINE
  5
127
330
17
100
AcDbEntity
  8
FoilLayer
100
AcDbLine
 10
110.68425031935851
 20
-7.90276886627628
 30
0.0
 11
119.25713170274827
 21
-7.360430886576871
 31
0.0
  0
LINE
  5
128
330
17
100
AcDbEntity
  8
FoilLayer
100
AcDbLine
 10
119.25713170274827
 20
-7.360430886576871
 30
0.0
 11
127.82374695743766
 21
-6.826810998982476
 31
0.0
  0
LINE
  5
129
330
17
100
AcDbEntity
  8
FoilLayer
100
AcDbLine
 10
127.82374695743766
 20
-6.826810998982476
 30
0.0
 11
136.38900001023558
 21
-6.301182695817678
 31
0.0
  0
LINE
  5
12A
330
17
100
AcDbEntity
  8
FoilLayer
100
AcDbLine
 10
136.38900001023558
 20
-6.301182695817678
 30
0.0
 11
144.95270923422305
 21
-5.781457267515648
 31
0.0
  0
LINE
  5
12B
330
17
100
AcDbEntity
  8
FoilLayer
100
AcDbLine
 10
144.95270923422305
 20
-5.781457267515648
 30
0.0
 11
153.5077911795653
 21
-5.2679979679140985
 31
0.0
  0
LINE
  5
12C
330
17
100
AcDbEntity
  8
FoilLayer
100
AcDbLine
 10
153.5077911795653
 20
-5.2679979679140985
 30
0.0
 11
162.05124900210063
 21
-4.763347573876989
 31
0.0
  0
LINE
  5
12D
330
17
100
AcDbEntity
  8
FoilLayer
100
AcDbLine
 10
162.05124900210063
 20
-4.763347573876989
 30
0.0
 11
170.58698768058457
 21
-4.270684556484276
 31
0.0
  0
LINE
  5
12E
330
17
100
AcDbEntity
  8
FoilLayer
100
AcDbLine
 10
170.58698768058457
 20
-4.270684556484276
 30
0.0
 11
179.12753947241833
 21
-3.791643558005645
 31
0.0
  0
LINE
  5
12F
330
17
100
AcDbEntity
  8
FoilLayer
100
AcDbLine
 10
179.12753947241833
 20
-3.791643558005645
 30
0.0
 11
187.68816103878544
 21
-3.3219563458480192
 31
0.0
  0
LINE
  5
130
330
17
100
AcDbEntity
  8
FoilLayer
100
AcDbLine
 10
187.68816103878544
 20
-3.3219563458480192
 30
0.0
 11
196.2665820432004
 21
-2.8548119105543552
 31
0.0
  0
LINE
  5
131
330
17
100
AcDbEntity
  8
FoilLayer
100
AcDbLine
 10
196.2665820432004
 20
-2.8548119105543552
 30
0.0
 11
204.84863558599238
 21
-2.384761444559021
 31
0.0
  0
LINE
  5
132
330
17
100
AcDbEntity
  8
FoilLayer
100
AcDbLine
 10
204.84863558599238
 20
-2.384761444559021
 30
0.0
 11
213.4330502787294
 21
-1.9082632229443526
 31
0.0
  0
LINE
  5
133
330
17
100
AcDbEntity
  8
FoilLayer
100
AcDbLine
 10
213.4330502787294
 20
-1.9082632229443526
 30
0.0
 11
222.01828229260127
 21
-1.4295854783034314
 31
0.0
  0
LINE
  5
134
330
17
100
AcDbEntity
  8
FoilLayer
100
AcDbLine
 10
222.01828229260127
 20
-1.4295854783034314
 30
0.0
 11
230.59597678934074
 21
-0.9567197950658525
 31
0.0
  0
LINE
  5
135
330
17
100
AcDbEntity
  8
FoilLayer
100
AcDbLine
 10
230.59597678934074
 20
-0.9567197950658525
 30
0.0
 11
239.1710376957568
 21
-0.49211813663615134
 31
0.0
  0
LINE
  5
136
330
17
100
AcDbEntity
  8
FoilLayer
100
AcDbLine
 10
239.1710376957568
 20
-0.49211813663615134
 30
0.0
 11
247.74882300595573
 21
-0.03441830112291961
 31
0.0
  0
LINE
  5
137
330
17
100
AcDbEntity
  8
FoilLayer
100
AcDbLine
 10
247.74882300595573
 20
-0.03441830112291961
 30
0.0
 11
256.3246104200472
 21
0.4225550267148943
 31
0.0
  0
LINE
  5
138
330
17
100
AcDbEntity
  8
FoilLayer
100
AcDbLine
 10
256.3246104200472
 20
0.4225550267148943
 30
0.0
 11
264.88895533825087
 21
0.8838874006052151
 31
0.0
  0
LINE
  5
139
330
17
100
AcDbEntity
  8
FoilLayer
100
AcDbLine
 10
264.88895533825087
 20
0.8838874006052151
 30
0.0
 11
273.43786196835174
 21
1.3434035053069915
 31
0.0
  0
LINE
  5
13A
330
17
100
AcDbEntity
  8
FoilLayer
100
AcDbLine
 10
273.43786196835174
 20
1.3434035053069915
 30
0.0
 11
281.9637019797584
 21
1.7919311814180732
 31
0.0
  0
LINE
  5
13B
330
17
100
AcDbEntity
  8
FoilLayer
100
AcDbLine
 10
281.9637019797584
 20
1.7919311814180732
 30
0.0
 11
290.476828106845
 21
2.2252930098048074
 31
0.0
  0
LINE
  5
13C
330
17
100
AcDbEntity
  8
FoilLayer
100
AcDbLine
 10
290.476828106845
 20
2.2252930098048074
 30
0.0
 11
298.99340514538994
 21
2.6440338712237588
 31
0.0
  0
LINE
  5
13D
330
17
100
AcDbEntity
  8
FoilLayer
100
AcDbLine
 10
298.99340514538994
 20
2.6440338712237588
 30
0.0
 11
307.5187002760399
 21
3.0560545366450937
 31
0.0
  0
LINE
  5
13E
330
17
100
AcDbEntity
  8
FoilLayer
100
AcDbLine
 10
307.5187002760399
 20
3.0560545366450937
 30
0.0
 11
316.03155396274826
 21
3.4656232386618946
 31
0.0
  0
LINE
  5
13F
330
17
100
AcDbEntity
  8
FoilLayer
100
AcDbLine
 10
316.03155396274826
 20
3.4656232386618946
 30
0.0
 11
324.5045405407682
 21
3.870197200410198
 31
0.0
  0
LINE
  5
140
330
17
100
AcDbEntity
  8
FoilLayer
100
AcDbLine
 10
324.5045405407682
 20
3.870197200410198
 30
0.0
 11
332.9168637278906
 21
4.261149143244417
 31
0.0
  0
LINE
  5
141
330
17
100
AcDbEntity
  8
FoilLayer
100
AcDbLine
 10
332.9168637278906
 20
4.261149143244417
 30
0.0
 11
341.2705214202231
 21
4.626219250141875
 31
0.0
  0
LINE
  5
142
330
17
100
AcDbEntity
  8
FoilLayer
100
AcDbLine
 10
341.2705214202231
 20
4.626219250141875
 30
0.0
 11
349.59194033445874
 21
4.9639545057517385
 31
0.0
  0
LINE
  5
143
330
17
100
AcDbEntity
  8
FoilLayer
100
AcDbLine
 10
349.59194033445874
 20
4.9639545057517385
 30
0.0
 11
357.8763981707077
 21
5.286796354015536
 31
0.0
  0
LINE
  5
144
330
17
100
AcDbEntity
  8
FoilLayer
100
AcDbLine
 10
357.8763981707077
 20
5.286796354015536
 30
0.0
 11
366.07975958768805
 21
5.590294935421333
 31
0.0
  0
LINE
  5
145
330
17
100
AcDbEntity
  8
FoilLayer
100
AcDbLine
 10
366.07975958768805
 20
5.590294935421333
 30
0.0
 11
374.199481808536
 21
5.851565258193471
 31
0.0
  0
LINE
  5
146
330
17
100
AcDbEntity
  8
FoilLayer
100
AcDbLine
 10
374.199481808536
 20
5.851565258193471
 30
0.0
 11
382.27824715918234
 21
6.063614685956049
 31
0.0
  0
LINE
  5
147
330
17
100
AcDbEntity
  8
FoilLayer
100
AcDbLine
 10
382.27824715918234
 20
6.063614685956049
 30
0.0
 11
390.34339049091454
 21
6.236069445408355
 31
0.0
  0
LINE
  5
148
330
17
100
AcDbEntity
  8
FoilLayer
100
AcDbLine
 10
390.34339049091454
 20
6.236069445408355
 30
0.0
 11
398.37938270217046
 21
6.3876371091924
 31
0.0
  0
LINE
  5
149
330
17
100
AcDbEntity
  8
FoilLayer
100
AcDbLine
 10
398.37938270217046
 20
6.3876371091924
 30
0.0
 11
406.3435414670196
 21
6.5441995132449415
 31
0.0
  0
LINE
  5
14A
330
17
100
AcDbEntity
  8
FoilLayer
100
AcDbLine
 10
406.3435414670196
 20
6.5441995132449415
 30
0.0
 11
414.15458873927446
 21
6.682780852330893
 31
0.0
  0
LINE
  5
14B
330
17
100
AcDbEntity
  8
FoilLayer
100
AcDbLine
 10
414.15458873927446
 20
6.682780852330893
 30
0.0
 11
421.8142499746639
 21
6.7355434722581125
 31
0.0
  0
LINE
  5
14C
330
17
100
AcDbEntity
  8
FoilLayer
100
AcDbLine
 10
421.8142499746639
 20
6.7355434722581125
 30
0.0
 11
429.45692909314073
 21
6.700307850000348
 31
0.0
  0
LINE
  5
14D
330
17
100
AcDbEntity
  8
FoilLayer
100
AcDbLine
 10
429.45692909314073
 20
6.700307850000348
 30
0.0
 11
437.10296830961624
 21
6.662529450878621
 31
0.0
  0
LINE
  5
14E
330
17
100
AcDbEntity
  8
FoilLayer
100
AcDbLine
 10
437.10296830961624
 20
6.662529450878621
 30
0.0
 11
444.6670937856884
 21
6.6406434071566585
 31
0.0
  0
LINE
  5
14F
330
17
100
AcDbEntity
  8
FoilLayer
100
AcDbLine
 10
444.6670937856884
 20
6.6406434071566585
 30
0.0
 11
452.1282367987701
 21
6.558275599456162
 31
0.0
  0
LINE
  5
150
330
17
100
AcDbEntity
  8
FoilLayer
100
AcDbLine
 10
452.1282367987701
 20
6.558275599456162
 30
0.0
 11
459.563952043212
 21
6.388999311083809
 31
0.0
  0
LINE
  5
151
330
17
100
AcDbEntity
  8
FoilLayer
100
AcDbLine
 10
459.563952043212
 20
6.388999311083809
 30
0.0
 11
466.98295761111945
 21
6.221448478440572
 31
0.0
  0
LINE
  5
152
330
17
100
AcDbEntity
  8
FoilLayer
100
AcDbLine
 10
466.98295761111945
 20
6.221448478440572
 30
0.0
 11
474.3181423559756
 21
6.092220925675626
 31
0.0
  0
LINE
  5
153
330
17
100
AcDbEntity
  8
FoilLayer
100
AcDbLine
 10
474.3181423559756
 20
6.092220925675626
 30
0.0
 11
481.54680291292357
 21
5.9095042453080415
 31
0.0
  0
LINE
  5
154
330
17
100
AcDbEntity
  8
FoilLayer
100
AcDbLine
 10
481.54680291292357
 20
5.9095042453080415
 30
0.0
 11
488.74912756663764
 21
5.600011975580046
 31
0.0
  0
LINE
  5
155
330
17
100
AcDbEntity
  8
FoilLayer
100
AcDbLine
 10
488.74912756663764
 20
5.600011975580046
 30
0.0
 11
496.00466890757593
 21
5.229038993819818
 31
0.0
  0
LINE
  5
156
330
17
100
AcDbEntity
  8
FoilLayer
100
AcDbLine
 10
496.00466890757593
 20
5.229038993819818
 30
0.0
 11
503.22043395328535
 21
4.861426110058399
 31
0.0
  0
LINE
  5
157
330
17
100
AcDbEntity
  8
FoilLayer
100
AcDbLine
 10
503.22043395328535
 20
4.861426110058399
 30
0.0
 11
510.24585398803526
 21
4.468567084576207
 31
0.0
  0
LINE
  5
158
330
17
100
AcDbEntity
  8
FoilLayer
100
AcDbLine
 10
510.24585398803526
 20
4.468567084576207
 30
0.0
 11
517.135235460563
 21
3.938034854602338
 31
0.0
  0
LINE
  5
159
330
17
100
AcDbEntity
  8
FoilLayer
100
AcDbLine
 10
517.135235460563
 20
3.938034854602338
 30
0.0
 11
523.9930138492101
 21
3.3348518570866856
 31
0.0
  0
LINE
  5
15A
330
17
100
AcDbEntity
  8
FoilLayer
100
AcDbLine
 10
523.9930138492101
 20
3.3348518570866856
 30
0.0
 11
530.7250155965505
 21
2.7051513294182827
 31
0.0
  0
LINE
  5
15B
330
17
100
AcDbEntity
  8
FoilLayer
100
AcDbLine
 10
530.7250155965505
 20
2.7051513294182827
 30
0.0
 11
537.2317999645115
 21
2.0847137746114583
 31
0.0
  0
LINE
  5
15C
330
17
100
AcDbEntity
  8
FoilLayer
100
AcDbLine
 10
537.2317999645115
 20
2.0847137746114583
 30
0.0
 11
543.4260044051238
 21
1.4445696991089239
 31
0.0
  0
LINE
  5
15D
330
17
100
AcDbEntity
  8
FoilLayer
100
AcDbLine
 10
543.4260044051238
 20
1.4445696991089239
 30
0.0
 11
549.2908284283939
 21
0.7938912623128317
 31
0.0
  0
LINE
  5
15E
330
17
100
AcDbEntity
  8
FoilLayer
100
AcDbLine
 10
549.2908284283939
 20
0.7938912623128317
 30
0.0
 11
554.7896742101718
 21
0.18644003220410016
 31
0.0
  0
LINE
  5
15F
330
17
100
AcDbEntity
  8
FoilLayer
100
AcDbLine
 10
554.7896742101718
 20
0.18644003220410016
 30
0.0
 11
559.9013822144116
 21
-0.40893300780081004
 31
0.0
  0
LINE
  5
160
330
17
100
AcDbEntity
  8
FoilLayer
100
AcDbLine
 10
559.9013822144116
 20
-0.40893300780081004
 30
0.0
 11
564.6079713761468
 21
-0.978060958031251
 31
0.0
  0
LINE
  5
161
330
17
100
AcDbEntity
  8
FoilLayer
100
AcDbLine
 10
564.6079713761468
 20
-0.978060958031251
 30
0.0
 11
567.5216304084099
 21
-1.3608396895170194
 31
0.0
  0
LINE
  5
162
330
17
100
AcDbEntity
  8
FoilLayer
100
AcDbLine
 10
567.5216304084099
 20
-1.3608396895170194
 30
0.0
 11
567.5847457627118
 21
1.3628375856244184
 31
0.0
  0
LINE
  5
163
330
17
100
AcDbEntity
  8
StringerLayer
100
AcDbLine
 10
246.64489561064295
 20
82.1122570350657
 30
0.0
 11
250.55872368153848
 21
81.28645449724571
 31
0.0
  0
LINE
  5
164
330
17
100
AcDbEntity
  8
StringerLayer
100
AcDbLine
 10
250.55872368153848
 20
81.28645449724571
 30
0.0
 11
251.38452621935846
 21
85.20028256814128
 31
0.0
  0
LINE
  5
165
330
17
100
AcDbEntity
  8
StringerLayer
100
AcDbLine
 10
251.38452621935846
 20
85.20028256814128
 30
0.0
 11
247.47069814846293
 21
86.02608510596126
 31
0.0
  0
LINE
  5
166
330
17
100
AcDbEntity
  8
StringerLayer
100
AcDbLine
 10
247.47069814846293
 20
86.02608510596126
 30
0.0
 11
246.64489561064295
 21
82.1122570350657
 31
0.0
  0
LINE
  5
167
330
17
100
AcDbEntity
  8
StringerLayer
100
AcDbLine
 10
-96.75435381030664
 20
100.35632398480219
 30
0.0
 11
-92.77731031099125
 21
100.78425505933795
 31
0.0
  0
LINE
  5
168
330
17
100
AcDbEntity
  8
StringerLayer
100
AcDbLine
 10
-92.77731031099125
 20
100.78425505933795
 30
0.0
 11
-93.205241385527
 21
104.76129855865332
 31
0.0
  0
LINE
  5
169
330
17
100
AcDbEntity
  8
StringerLayer
100
AcDbLine
 10
-93.205241385527
 20
104.76129855865332
 30
0.0
 11
-97.18228488484239
 21
104.33336748411756
 31
0.0
  0
LINE
  5
16A
330
17
100
AcDbEntity
  8
StringerLayer
100
AcDbLine
 10
-97.18228488484239
 20
104.33336748411756
 30
0.0
 11
-96.75435381030664
 21
100.35632398480219
 31
0.0
  0
LINE
  5
16B
330
17
100
AcDbEntity
  8
StringerLayer
100
AcDbLine
 10
-249.59407904267886
 20
65.2116458729947
 30
0.0
 11
-245.86948130988327
 21
66.67019711613082
 31
0.0
  0
LINE
  5
16C
330
17
100
AcDbEntity
  8
StringerLayer
100
AcDbLine
 10
-245.86948130988327
 20
66.67019711613082
 30
0.0
 11
-247.3280325530194
 21
70.39479484892641
 31
0.0
  0
LINE
  5
16D
330
17
100
AcDbEntity
  8
StringerLayer
100
AcDbLine
 10
-247.3280325530194
 20
70.39479484892641
 30
0.0
 11
-251.05263028581498
 21
68.93624360579028
 31
0.0
  0
LINE
  5
16E
330
17
100
AcDbEntity
  8
StringerLayer
100
AcDbLine
 10
-251.05263028581498
 20
68.93624360579028
 30
0.0
 11
-249.59407904267886
 21
65.2116458729947
 31
0.0
  0
LINE
  5
16F
330
17
100
AcDbEntity
  8
StringerLayer
100
AcDbLine
 10
-323.62331178825383
 20
20.511134387979453
 30
0.0
 11
-322.24798566872806
 21
21.963194326463487
 31
0.0
  0
LINE
  5
170
330
17
100
AcDbEntity
  8
StringerLayer
100
AcDbLine
 10
-322.24798566872806
 20
21.963194326463487
 30
0.0
 11
-325.15210554569614
 21
24.713846565514974
 31
0.0
  0
LINE
  5
171
330
17
100
AcDbEntity
  8
StringerLayer
100
AcDbLine
 10
-325.15210554569614
 20
24.713846565514974
 30
0.0
 11
-326.5274316652219
 21
23.26178662703094
 31
0.0
  0
LINE
  5
172
330
17
100
AcDbEntity
  8
StringerLayer
100
AcDbLine
 10
-326.5274316652219
 20
23.26178662703094
 30
0.0
 11
-323.62331178825383
 21
20.511134387979453
 31
0.0
  0
LINE
  5
173
330
17
100
AcDbEntity
  8
StringerLayer
100
AcDbLine
 10
-327.89971056581055
 20
-8.80565829907881
 30
0.0
 11
-329.6424584509389
 21
-7.824419383788243
 31
0.0
  0
LINE
  5
174
330
17
100
AcDbEntity
  8
StringerLayer
100
AcDbLine
 10
-329.6424584509389
 20
-7.824419383788243
 30
0.0
 11
-331.60493628152
 21
-11.309915154044974
 31
0.0
  0
LINE
  5
175
330
17
100
AcDbEntity
  8
StringerLayer
100
AcDbLine
 10
-331.60493628152
 20
-11.309915154044974
 30
0.0
 11
-329.8621883963917
 21
-12.291154069335542
 31
0.0
  0
LINE
  5
176
330
17
100
AcDbEntity
  8
StringerLayer
100
AcDbLine
 10
-329.8621883963917
 20
-12.291154069335542
 30
0.0
 11
-327.89971056581055
 21
-8.80565829907881
 31
0.0
  0
LINE
  5
177
330
17
100
AcDbEntity
  8
StringerLayer
100
AcDbLine
 10
-202.44184504369764
 20
-19.774295904500725
 30
0.0
 11
-206.44103138033677
 21
-19.854972077185003
 31
0.0
  0
LINE
  5
178
330
17
100
AcDbEntity
  8
StringerLayer
100
AcDbLine
 10
-206.44103138033677
 20
-19.854972077185003
 30
0.0
 11
-206.36035520765247
 21
-23.854158413824123
 31
0.0
  0
LINE
  5
179
330
17
100
AcDbEntity
  8
StringerLayer
100
AcDbLine
 10
-206.36035520765247
 20
-23.854158413824123
 30
0.0
 11
-202.36116887101335
 21
-23.773482241139845
 31
0.0
  0
LINE
  5
17A
330
17
100
AcDbEntity
  8
StringerLayer
100
AcDbLine
 10
-202.36116887101335
 20
-23.773482241139845
 30
0.0
 11
-202.44184504369764
 21
-19.774295904500725
 31
0.0
  0
LINE
  5
17B
330
17
100
AcDbEntity
  8
SubLayer
100
AcDbLine
 10
-340.5508474576271
 20
0.0
 30
0.0
 11
-336.5508474576271
 21
0.0
 31
0.0
  0
LINE
  5
17C
330
17
100
AcDbEntity
  8
SubLayer
100
AcDbLine
 10
66.11016949152543
 20
0.0
 30
0.0
 11
79.19152542372882
 21
0.0
 31
0.0
  0
LINE
  5
17D
330
17
100
AcDbEntity
  8
SubLayer
100
AcDbLine
 10
-49.74023984754251
 20
44.505964553480105
 30
0.0
 11
-41.76381782972715
 21
45.11971677849465
 31
0.0
  0
LINE
  5
17E
330
17
100
AcDbEntity
  8
SubLayer
100
AcDbLine
 10
41.76381782972715
 20
51.54681806798179
 30
0.0
 11
49.74023984754251
 21
52.16057029299633
 31
0.0
  0
LINE
  5
17F
330
17
100
AcDbEntity
  8
SubLayer
100
AcDbLine
 10
-3.6290927400171693
 20
95.4975367429635
 30
0.0
 11
-3.0153405150026202
 21
87.52111472514815
 31
0.0
  0
LINE
  5
180
330
17
100
AcDbEntity
  8
SubLayer
100
AcDbLine
 10
3.6290927400171693
 20
1.1689981035129335
 30
0.0
 11
3.0153405150026202
 21
9.145420121328293
 31
0.0
  0
LINE
  5
181
330
17
100
AcDbEntity
  8
SubLayer
100
AcDbLine
 10
-47.59269628683503
 20
42.665297105279905
 30
0.0
 11
-43.60448527792735
 21
42.97217321778718
 31
0.0
  0
LINE
  5
182
330
17
100
AcDbEntity
  8
SubLayer
100
AcDbLine
 10
-43.60448527792735
 20
42.97217321778718
 30
0.0
 11
-43.91136139043463
 21
46.960384226694856
 31
0.0
  0
LINE
  5
183
330
17
100
AcDbEntity
  8
SubLayer
100
AcDbLine
 10
-43.91136139043463
 20
46.960384226694856
 30
0.0
 11
-47.899572399342304
 21
46.65350811418758
 31
0.0
  0
LINE
  5
184
330
17
100
AcDbEntity
  8
SubLayer
100
AcDbLine
 10
-47.899572399342304
 20
46.65350811418758
 30
0.0
 11
-47.59269628683503
 21
42.665297105279905
 31
0.0
  0
LINE
  5
185
330
17
100
AcDbEntity
  8
SubLayer
100
AcDbLine
 10
43.91136139043463
 20
49.70615061978158
 30
0.0
 11
47.899572399342304
 21
50.01302673228886
 31
0.0
  0
LINE
  5
186
330
17
100
AcDbEntity
  8
SubLayer
100
AcDbLine
 10
47.899572399342304
 20
50.01302673228886
 30
0.0
 11
47.59269628683503
 21
54.00123774119653
 31
0.0
  0
LINE
  5
187
330
17
100
AcDbEntity
  8
SubLayer
100
AcDbLine
 10
47.59269628683503
 20
54.00123774119653
 30
0.0
 11
43.60448527792735
 21
53.69436162868926
 31
0.0
  0
LINE
  5
188
330
17
100
AcDbEntity
  8
SubLayer
100
AcDbLine
 10
43.60448527792735
 20
53.69436162868926
 30
0.0
 11
43.91136139043463
 21
49.70615061978158
 31
0.0
  0
LINE
  5
189
330
17
100
AcDbEntity
  8
SubLayer
100
AcDbLine
 10
-5.162884075710098
 20
89.36178217334836
 30
0.0
 11
-1.1746730668024168
 21
89.66865828585563
 31
0.0
  0
LINE
  5
18A
330
17
100
AcDbEntity
  8
SubLayer
100
AcDbLine
 10
-1.1746730668024168
 20
89.66865828585563
 30
0.0
 11
-1.4815491793096915
 21
93.65686929476331
 31
0.0
  0
LINE
  5
18B
330
17
100
AcDbEntity
  8
SubLayer
100
AcDbLine
 10
-1.4815491793096915
 20
93.65686929476331
 30
0.0
 11
-5.469760188217373
 21
93.34999318225604
 31
0.0
  0
LINE
  5
18C
330
17
100
AcDbEntity
  8
SubLayer
100
AcDbLine
 10
-5.469760188217373
 20
93.34999318225604
 30
0.0
 11
-5.162884075710098
 21
89.36178217334836
 31
0.0
  0
LINE
  5
18D
330
17
100
AcDbEntity
  8
SubLayer
100
AcDbLine
 10
1.4815491793096915
 20
3.009665551713135
 30
0.0
 11
5.469760188217373
 21
3.31654166422041
 31
0.0
  0
LINE
  5
18E
330
17
100
AcDbEntity
  8
SubLayer
100
AcDbLine
 10
5.469760188217373
 20
3.31654166422041
 30
0.0
 11
5.162884075710098
 21
7.304752673128091
 31
0.0
  0
LINE
  5
18F
330
17
100
AcDbEntity
  8
SubLayer
100
AcDbLine
 10
5.162884075710098
 20
7.304752673128091
 30
0.0
 11
1.1746730668024168
 21
6.997876560620816
 31
0.0
  0
LINE
  5
190
330
17
100
AcDbEntity
  8
SubLayer
100
AcDbLine
 10
1.1746730668024168
 20
6.997876560620816
 30
0.0
 11
1.4815491793096915
 21
3.009665551713135
 31
0.0
  0
LINE
  5
191
330
17
100
AcDbEntity
  8
SubLayer
100
AcDbLine
 10
386.17585334700783
 20
52.75488878137644
 30
0.0
 11
390.1640643559155
 21
53.061764893883705
 31
0.0
  0
LINE
  5
192
330
17
100
AcDbEntity
  8
SubLayer
100
AcDbLine
 10
-340.7101591489869
 20
-3.1759416717944258
 30
0.0
 11
-336.72194814007923
 21
-2.8690655592871512
 31
0.0
  0
LINE
  5
193
330
17
100
AcDbEntity
  8
SubLayer
100
AcDbLine
 10
-196.3300094020149
 20
7.933505390712928
 30
0.0
 11
-190.34769288865337
 21
8.39381955947384
 31
0.0
  0
LINE
  5
194
330
17
100
AcDbEntity
  8
SubLayer
100
AcDbLine
 10
239.801598095582
 20
41.49200366261544
 30
0.0
 11
245.78391460894352
 21
41.952317831376355
 31
0.0
  0
LINE
  5
195
330
17
100
AcDbEntity
  8
SubLayer
100
AcDbLine
 10
21.735794346783536
 20
24.712754526664188
 30
0.0
 11
27.71811086014506
 21
25.173068695425098
 31
0.0
  0
LINE
  5
196
330
17
100
AcDbEntity
  8
SubLayer
100
AcDbLine
 10
-191.19130758462666
 20
6.322995026893181
 30
0.0
 11
-191.49818369713392
 21
10.311206035800861
 31
0.0
  0
LINE
  5
197
330
17
100
AcDbEntity
  8
SubLayer
100
AcDbLine
 10
-191.49818369713392
 20
10.311206035800861
 30
0.0
 11
-195.4863947060416
 21
10.004329923293586
 31
0.0
  0
LINE
  5
198
330
17
100
AcDbEntity
  8
SubLayer
100
AcDbLine
 10
-195.4863947060416
 20
10.004329923293586
 30
0.0
 11
-195.17951859353434
 21
6.016118914385906
 31
0.0
  0
LINE
  5
199
330
17
100
AcDbEntity
  8
SubLayer
100
AcDbLine
 10
-195.17951859353434
 20
6.016118914385906
 30
0.0
 11
-191.19130758462666
 21
6.322995026893181
 31
0.0
  0
LINE
  5
19A
330
17
100
AcDbEntity
  8
SubLayer
100
AcDbLine
 10
244.94029991297023
 20
39.8814932987957
 30
0.0
 11
244.63342380046296
 21
43.86970430770337
 31
0.0
  0
LINE
  5
19B
330
17
100
AcDbEntity
  8
SubLayer
100
AcDbLine
 10
244.63342380046296
 20
43.86970430770337
 30
0.0
 11
240.64521279155528
 21
43.5628281951961
 31
0.0
  0
LINE
  5
19C
330
17
100
AcDbEntity
  8
SubLayer
100
AcDbLine
 10
240.64521279155528
 20
43.5628281951961
 30
0.0
 11
240.95208890406255
 21
39.57461718628842
 31
0.0
  0
LINE
  5
19D
330
17
100
AcDbEntity
  8
SubLayer
100
AcDbLine
 10
240.95208890406255
 20
39.57461718628842
 30
0.0
 11
244.94029991297023
 21
39.8814932987957
 31
0.0
  0
LINE
  5
19E
330
17
100
AcDbEntity
  8
SubLayer
100
AcDbLine
 10
26.874496164171777
 20
23.10224416284444
 30
0.0
 11
26.567620051664502
 21
27.090455171752122
 31
0.0
  0
LINE
  5
19F
330
17
100
AcDbEntity
  8
SubLayer
100
AcDbLine
 10
26.567620051664502
 20
27.090455171752122
 30
0.0
 11
22.57940904275682
 21
26.783579059244847
 31
0.0
  0
LINE
  5
1A0
330
17
100
AcDbEntity
  8
SubLayer
100
AcDbLine
 10
22.57940904275682
 20
26.783579059244847
 30
0.0
 11
22.886285155264094
 21
22.795368050337164
 31
0.0
  0
LINE
  5
1A1
330
17
100
AcDbEntity
  8
SubLayer
100
AcDbLine
 10
22.886285155264094
 20
22.795368050337164
 30
0.0
 11
26.874496164171777
 21
23.10224416284444
 31
0.0
  0
LINE
  5
1A2
330
17
100
AcDbEntity
  8
SubLayer
100
AcDbLine
 10
548.7075040600416
 20
6.6233233759952315
 30
0.0
 11
549.0620599860508
 21
7.558358185685123
 31
0.0
  0
LINE
  5
1A3
330
17
100
AcDbEntity
  8
SubLayer
100
AcDbLine
 10
547.5848867526731
 20
0.4810402816090075
 30
0.0
 11
547.6339101928834
 21
1.4798379099151415
 31
0.0
  0
LINE
  5
1A4
330
17
100
AcDbEntity
  8
SubLayer
100
AcDbLine
 10
529.5230204023999
 20
12.310194505205985
 30
0.0
 11
529.8426210846799
 21
13.257746827711824
 31
0.0
  0
LINE
  5
1A5
330
17
100
AcDbEntity
  8
SubLayer
100
AcDbLine
 10
527.6592282153783
 20
2.489823325560141
 30
0.0
 11
527.7339389534927
 21
3.487028573044536
 31
0.0
  0
LINE
  5
1A6
330
17
100
AcDbEntity
  8
SubLayer
100
AcDbLine
 10
491.1211233613177
 20
23.527848664093018
 30
0.0
 11
491.42118358345203
 21
24.481768924435922
 31
0.0
  0
LINE
  5
1A7
330
17
100
AcDbEntity
  8
SubLayer
100
AcDbLine
 10
487.74867632707844
 20
5.142732164058964
 30
0.0
 11
487.81919494334227
 21
6.140242627543049
 31
0.0
  0
LINE
  5
1A8
330
17
100
AcDbEntity
  8
SubLayer
100
AcDbLine
 10
-154.36281609555485
 20
99.27070400169816
 30
0.0
 11
-154.05593998304758
 21
95.28249299279048
 31
0.0
  0
LINE
  5
1A9
330
17
100
AcDbEntity
  8
SubLayer
100
AcDbLine
 10
-145.08619036925128
 20
-21.289806703686395
 30
0.0
 11
-144.77931425674402
 21
-25.278017712594078
 31
0.0
  0
LINE
  5
1AA
330
17
100
AcDbEntity
  8
SubLayer
100
AcDbLine
 10
-147.01823454263885
 20
3.8193481896174344
 30
0.0
 11
-146.55792037387792
 21
-2.162968323744087
 31
0.0
  0
LINE
  5
1AB
330
17
100
AcDbEntity
  8
SubLayer
100
AcDbLine
 10
-152.58420997842097
 20
76.15565461284817
 30
0.0
 11
-152.12389580966004
 21
70.17333809948664
 31
0.0
  0
LINE
  5
1AC
330
17
100
AcDbEntity
  8
SubLayer
100
AcDbLine
 10
-149.8012222605299
 20
39.987501401232805
 30
0.0
 11
-149.34090809176897
 21
34.00518488787128
 31
0.0
  0
LINE
  5
1AD
330
17
100
AcDbEntity
  8
SubLayer
100
AcDbLine
 10
-148.6287449064586
 20
-1.3193536277708042
 30
0.0
 11
-144.6405338975509
 21
-1.0124775152635295
 31
0.0
  0
LINE
  5
1AE
330
17
100
AcDbEntity
  8
SubLayer
100
AcDbLine
 10
-144.6405338975509
 20
-1.0124775152635295
 30
0.0
 11
-144.94741001005818
 21
2.9757334936441517
 31
0.0
  0
LINE
  5
1AF
330
17
100
AcDbEntity
  8
SubLayer
100
AcDbLine
 10
-144.94741001005818
 20
2.9757334936441517
 30
0.0
 11
-148.93562101896586
 21
2.6688573811368768
 31
0.0
  0
LINE
  5
1B0
330
17
100
AcDbEntity
  8
SubLayer
100
AcDbLine
 10
-148.93562101896586
 20
2.6688573811368768
 30
0.0
 11
-148.6287449064586
 21
-1.3193536277708042
 31
0.0
  0
LINE
  5
1B1
330
17
100
AcDbEntity
  8
SubLayer
100
AcDbLine
 10
-154.19472034224071
 20
71.01695279545993
 30
0.0
 11
-150.20650933333303
 21
71.3238289079672
 31
0.0
  0
LINE
  5
1B2
330
17
100
AcDbEntity
  8
SubLayer
100
AcDbLine
 10
-150.20650933333303
 20
71.3238289079672
 30
0.0
 11
-150.5133854458403
 21
75.31203991687488
 31
0.0
  0
LINE
  5
1B3
330
17
100
AcDbEntity
  8
SubLayer
100
AcDbLine
 10
-150.5133854458403
 20
75.31203991687488
 30
0.0
 11
-154.50159645474798
 21
75.00516380436761
 31
0.0
  0
LINE
  5
1B4
330
17
100
AcDbEntity
  8
SubLayer
100
AcDbLine
 10
-154.50159645474798
 20
75.00516380436761
 30
0.0
 11
-154.19472034224071
 21
71.01695279545993
 31
0.0
  0
LINE
  5
1B5
330
17
100
AcDbEntity
  8
SubLayer
100
AcDbLine
 10
-151.41173262434964
 20
34.84879958384457
 30
0.0
 11
-147.42352161544196
 21
35.15567569635184
 31
0.0
  0
LINE
  5
1B6
330
17
100
AcDbEntity
  8
SubLayer
100
AcDbLine
 10
-147.42352161544196
 20
35.15567569635184
 30
0.0
 11
-147.73039772794922
 21
39.14388670525952
 31
0.0
  0
LINE
  5
1B7
330
17
100
AcDbEntity
  8
SubLayer
100
AcDbLine
 10
-147.73039772794922
 20
39.14388670525952
 30
0.0
 11
-151.7186087368569
 21
38.83701059275224
 31
0.0
  0
LINE
  5
1B8
330
17
100
AcDbEntity
  8
SubLayer
100
AcDbLine
 10
-151.7186087368569
 20
38.83701059275224
 30
0.0
 11
-151.41173262434964
 21
34.84879958384457
 31
0.0
  0
LINE
  5
1B9
330
17
100
AcDbEntity
  8
SubLayer
100
AcDbLine
 10
95.50984882035041
 20
110.52960235340572
 30
0.0
 11
95.81672493285768
 21
106.54139134449804
 31
0.0
  0
LINE
  5
1BA
330
17
100
AcDbEntity
  8
SubLayer
100
AcDbLine
 10
104.49900290211357
 20
-6.294880910358985
 30
0.0
 11
104.80587901462084
 21
-10.283091919266665
 31
0.0
  0
LINE
  5
1BB
330
17
100
AcDbEntity
  8
SubLayer
100
AcDbLine
 10
102.62445305763414
 20
18.067068494620877
 30
0.0
 11
103.08476722639504
 21
12.084751981259357
 31
0.0
  0
LINE
  5
1BC
330
17
100
AcDbEntity
  8
SubLayer
100
AcDbLine
 10
97.23096060857624
 20
88.16175845287971
 30
0.0
 11
97.69127477733714
 21
82.17944193951818
 31
0.0
  0
LINE
  5
1BD
330
17
100
AcDbEntity
  8
SubLayer
100
AcDbLine
 10
99.92770683310518
 20
53.11441347375029
 30
0.0
 11
100.38802100186608
 21
47.132096960388765
 31
0.0
  0
LINE
  5
1BE
330
17
100
AcDbEntity
  8
SubLayer
100
AcDbLine
 10
101.01394269381439
 20
12.92836667723264
 30
0.0
 11
105.00215370272207
 21
13.235242789739914
 31
0.0
  0
LINE
  5
1BF
330
17
100
AcDbEntity
  8
SubLayer
100
AcDbLine
 10
105.00215370272207
 20
13.235242789739914
 30
0.0
 11
104.6952775902148
 21
17.223453798647597
 31
0.0
  0
LINE
  5
1C0
330
17
100
AcDbEntity
  8
SubLayer
100
AcDbLine
 10
104.6952775902148
 20
17.223453798647597
 30
0.0
 11
100.70706658130712
 21
16.91657768614032
 31
0.0
  0
LINE
  5
1C1
330
17
100
AcDbEntity
  8
SubLayer
100
AcDbLine
 10
100.70706658130712
 20
16.91657768614032
 30
0.0
 11
101.01394269381439
 21
12.92836667723264
 31
0.0
  0
LINE
  5
1C2
330
17
100
AcDbEntity
  8
SubLayer
100
AcDbLine
 10
95.62045024475648
 20
83.02305663549147
 30
0.0
 11
99.60866125366417
 21
83.32993274799874
 31
0.0
  0
LINE
  5
1C3
330
17
100
AcDbEntity
  8
SubLayer
100
AcDbLine
 10
99.60866125366417
 20
83.32993274799874
 30
0.0
 11
99.3017851411569
 21
87.31814375690642
 31
0.0
  0
LINE
  5
1C4
330
17
100
AcDbEntity
  8
SubLayer
100
AcDbLine
 10
99.3017851411569
 20
87.31814375690642
 30
0.0
 11
95.31357413224922
 21
87.01126764439915
 31
0.0
  0
LINE
  5
1C5
330
17
100
AcDbEntity
  8
SubLayer
100
AcDbLine
 10
95.31357413224922
 20
87.01126764439915
 30
0.0
 11
95.62045024475648
 21
83.02305663549147
 31
0.0
  0
LINE
  5
1C6
330
17
100
AcDbEntity
  8
SubLayer
100
AcDbLine
 10
98.31719646928542
 20
47.97571165636205
 30
0.0
 11
102.3054074781931
 21
48.28258776886933
 31
0.0
  0
LINE
  5
1C7
330
17
100
AcDbEntity
  8
SubLayer
100
AcDbLine
 10
102.3054074781931
 20
48.28258776886933
 30
0.0
 11
101.99853136568584
 21
52.270798777777
 31
0.0
  0
LINE
  5
1C8
330
17
100
AcDbEntity
  8
SubLayer
100
AcDbLine
 10
101.99853136568584
 20
52.270798777777
 30
0.0
 11
98.01032035677815
 21
51.96392266526973
 31
0.0
  0
LINE
  5
1C9
330
17
100
AcDbEntity
  8
SubLayer
100
AcDbLine
 10
98.01032035677815
 20
51.96392266526973
 30
0.0
 11
98.31719646928542
 21
47.97571165636205
 31
0.0
  0
ENDSEC
  0
SECTION
  2
OBJECTS
  0
DICTIONARY
  5
A
330
0
100
AcDbDictionary
280
0
281
1
  3
ACAD_COLOR
350
B
  3
ACAD_GROUP
350
C
  3
ACAD_LAYOUT
350
D
  3
ACAD_MATERIAL
350
E
  3
ACAD_MLEADERSTYLE
350
F
  3
ACAD_MLINESTYLE
350
10
  3
ACAD_PLOTSETTINGS
350
11
  3
ACAD_PLOTSTYLENAME
350
12
  3
ACAD_SCALELIST
350
14
  3
ACAD_TABLESTYLE
350
15
  3
ACAD_VISUALSTYLE
350
16
  3
EZDXF_META
350
2D
  0
DICTIONARY
  5
B
330
A
100
AcDbDictionary
280
0
281
1
  0
DICTIONARY
  5
C
330
A
100
AcDbDictionary
280
0
281
1
  0
DICTIONARY
  5
D
330
A
100
AcDbDictionary
280
0
281
1
  3
Model
350
1A
  3
Layout1
350
1E
  0
DICTIONARY
  5
E
330
A
100
AcDbDictionary
280
0
281
1
  3
ByBlock
350
1F
  3
ByLayer
350
20
  3
Global
350
21
  0
DICTIONARY
  5
F
330
A
100
AcDbDictionary
280
0
281
1
  3
Standard
350
2C
  0
DICTIONARY
  5
10
330
A
100
AcDbDictionary
280
0
281
1
  3
Standard
350
22
  0
DICTIONARY
  5
11
330
A
100
AcDbDictionary
280
0
281
1
  0
ACDBDICTIONARYWDFLT
  5
12
330
A
100
AcDbDictionary
280
0
281
1
  3
Normal
350
13
100
AcDbDictionaryWithDefault
340
13
  0
ACDBPLACEHOLDER
  5
13
330
12
  0
DICTIONARY
  5
14
330
A
100
AcDbDictionary
280
0
281
1
  0
DICTIONARY
  5
15
330
A
100
AcDbDictionary
280
0
281
1
  0
DICTIONARY
  5
16
330
A
100
AcDbDictionary
280
0
281
1
  0
LAYOUT
  5
1A
330
D
100
AcDbPlotSettings
  1

  2
Adobe PDF
  4
A3
  6

 40
7.5
 41
20.0
 42
7.5
 43
20.0
 44
420.0
 45
297.0
 46
0.0
 47
0.0
 48
0.0
 49
0.0
140
0.0
141
0.0
142
1.0
143
1.0
 70
1024
 72
1
 73
0
 74
5
  7

 75
16
 76
0
 77
2
 78
300
147
1.0
148
0.0
149
0.0
100
AcDbLayout
  1
Model
 70
1
 71
0
 10
0.0
 20
0.0
 11
420.0
 21
297.0
 12
0.0
 22
0.0
 32
0.0
 14
1e+20
 24
1e+20
 34
1e+20
 15
-1e+20
 25
-1e+20
 35
-1e+20
146
0.0
 13
0.0
 23
0.0
 33
0.0
 16
1.0
 26
0.0
 36
0.0
 17
0.0
 27
1.0
 37
0.0
 76
1
330
17
  0
LAYOUT
  5
1E
330
D
100
AcDbPlotSettings
  1

  2
Adobe PDF
  4
A3
  6

 40
7.5
 41
20.0
 42
7.5
 43
20.0
 44
420.0
 45
297.0
 46
0.0
 47
0.0
 48
0.0
 49
0.0
140
0.0
141
0.0
142
1.0
143
1.0
 70
0
 72
1
 73
0
 74
5
  7

 75
16
 76
0
 77
2
 78
300
147
1.0
148
0.0
149
0.0
100
AcDbLayout
  1
Layout1
 70
1
 71
1
 10
0.0
 20
0.0
 11
420.0
 21
297.0
 12
0.0
 22
0.0
 32
0.0
 14
1e+20
 24
1e+20
 34
1e+20
 15
-1e+20
 25
-1e+20
 35
-1e+20
146
0.0
 13
0.0
 23
0.0
 33
0.0
 16
1.0
 26
0.0
 36
0.0
 17
0.0
 27
1.0
 37
0.0
 76
1
330
1B
  0
MATERIAL
  5
1F
102
{ACAD_REACTORS
330
E
102
}
330
E
100
AcDbMaterial
  1
ByBlock
  2

 70
0
 40
1.0
 71
1
 41
1.0
 91
-1023410177
 42
1.0
 72
1
  3

 73
1
 74
1
 75
1
 44
0.5
 73
0
 45
1.0
 46
1.0
 77
1
  4

 78
1
 79
1
170
1
 48
1.0
171
1
  6

172
1
173
1
174
1
140
1.0
141
1.0
175
1
  7

176
1
177
1
178
1
143
1.0
179
1
  8

270
1
271
1
272
1
145
1.0
146
1.0
273
1
  9

274
1
275
1
276
1
 42
1.0
 72
1
  3

 73
1
 74
1
 75
1
 94
63
  0
MATERIAL
  5
20
102
{ACAD_REACTORS
330
E
102
}
330
E
100
AcDbMaterial
  1
ByLayer
  2

 70
0
 40
1.0
 71
1
 41
1.0
 91
-1023410177
 42
1.0
 72
1
  3

 73
1
 74
1
 75
1
 44
0.5
 73
0
 45
1.0
 46
1.0
 77
1
  4

 78
1
 79
1
170
1
 48
1.0
171
1
  6

172
1
173
1
174
1
140
1.0
141
1.0
175
1
  7

176
1
177
1
178
1
143
1.0
179
1
  8

270
1
271
1
272
1
145
1.0
146
1.0
273
1
  9

274
1
275
1
276
1
 42
1.0
 72
1
  3

 73
1
 74
1
 75
1
 94
63
  0
MATERIAL
  5
21
102
{ACAD_REACTORS
330
E
102
}
330
E
100
AcDbMaterial
  1
Global
  2

 70
0
 40
1.0
 71
1
 41
1.0
 91
-1023410177
 42
1.0
 72
1
  3

 73
1
 74
1
 75
1
 44
0.5
 73
0
 45
1.0
 46
1.0
 77
1
  4

 78
1
 79
1
170
1
 48
1.0
171
1
  6

172
1
173
1
174
1
140
1.0
141
1.0
175
1
  7

176
1
177
1
178
1
143
1.0
179
1
  8

270
1
271
1
272
1
145
1.0
146
1.0
273
1
  9

274
1
275
1
276
1
 42
1.0
 72
1
  3

 73
1
 74
1
 75
1
 94
63
  0
MLINESTYLE
  5
22
102
{ACAD_REACTORS
330
10
102
}
330
10
100
AcDbMlineStyle
  2
Standard
 70
0
  3

 62
256
 51
90.0
 52
90.0
 71
2
 49
0.5
 62
256
  6
BYLAYER
 49
-0.5
 62
256
  6
BYLAYER
  0
MLEADERSTYLE
  5
2C
102
{ACAD_REACTORS
330
F
102
}
330
F
100
AcDbMLeaderStyle
179
2
170
2
171
1
172
0
 90
2
 40
0.0
 41
0.0
173
1
 91
-1056964608
 92
-2
290
1
 42
2.0
291
1
 43
8.0
  3
Standard
 44
4.0
300

342
29
174
1
175
1
176
0
178
1
 93
-1056964608
 45
4.0
292
0
297
0
 46
4.0
 94
-1056964608
 47
1.0
 49
1.0
140
1.0
294
1
141
0.0
177
0
142
1.0
295
0
296
0
143
3.75
271
0
272
9
273
9
  0
DICTIONARY
  5
2D
330
A
100
AcDbDictionary
281
1
  3
CREATED_BY_EZDXF
350
2E
  3
WRITTEN_BY_EZDXF
350
1CC
  0
DICTIONARYVAR
  5
2E
330
2D
100
DictionaryVariables
280
0
  1
1.0.2 @ 2024-03-22T07:41:33.910425+00:00
  0
DICTIONARYVAR
  5
1CC
330
2D
100
DictionaryVariables
280
0
  1
1.0.2 @ 2024-03-22T07:41:33.919950+00:00
  0
ENDSEC
  0
EOF
