  0
SECTION
  2
HEADER
  9
$ACADVER
  1
AC1027
  9
$ACADMAINTVER
 70
105
  9
$DWGCODEPAGE
  3
ANSI_1252
  9
$LASTSAVEDBY
  1
ezdxf
  9
$REQUIREDVERSIONS
160
0
  9
$INSBASE
 10
0.0
 20
0.0
 30
0.0
  9
$EXTMIN
 10
1e+20
 20
1e+20
 30
1e+20
  9
$EXTMAX
 10
-1e+20
 20
-1e+20
 30
-1e+20
  9
$LIMMIN
 10
0.0
 20
0.0
  9
$LIMMAX
 10
420.0
 20
297.0
  9
$ORTHOMODE
 70
0
  9
$REGENMODE
 70
1
  9
$FILLMODE
 70
1
  9
$QTEXTMODE
 70
0
  9
$MIRRTEXT
 70
1
  9
$LTSCALE
 40
1.0
  9
$ATTMODE
 70
1
  9
$TEXTSIZE
 40
2.5
  9
$TRACEWID
 40
1.0
  9
$TEXTSTYLE
  7
Standard
  9
$CLAYER
  8
0
  9
$CELTYPE
  6
ByLayer
  9
$CECOLOR
 62
256
  9
$CELTSCALE
 40
1.0
  9
$DISPSILH
 70
0
  9
$DIMSCALE
 40
1.0
  9
$DIMASZ
 40
2.5
  9
$DIMEXO
 40
0.625
  9
$DIMDLI
 40
3.75
  9
$DIMRND
 40
0.0
  9
$DIMDLE
 40
0.0
  9
$DIMEXE
 40
1.25
  9
$DIMTP
 40
0.0
  9
$DIMTM
 40
0.0
  9
$DIMTXT
 40
2.5
  9
$DIMCEN
 40
2.5
  9
$DIMTSZ
 40
0.0
  9
$DIMTOL
 70
0
  9
$DIMLIM
 70
0
  9
$DIMTIH
 70
0
  9
$DIMTOH
 70
0
  9
$DIMSE1
 70
0
  9
$DIMSE2
 70
0
  9
$DIMTAD
 70
1
  9
$DIMZIN
 70
8
  9
$DIMBLK
  1

  9
$DIMASO
 70
1
  9
$DIMSHO
 70
1
  9
$DIMPOST
  1

  9
$DIMAPOST
  1

  9
$DIMALT
 70
0
  9
$DIMALTD
 70
3
  9
$DIMALTF
 40
0.03937007874
  9
$DIMLFAC
 40
1.0
  9
$DIMTOFL
 70
1
  9
$DIMTVP
 40
0.0
  9
$DIMTIX
 70
0
  9
$DIMSOXD
 70
0
  9
$DIMSAH
 70
0
  9
$DIMBLK1
  1

  9
$DIMBLK2
  1

  9
$DIMSTYLE
  2
ISO-25
  9
$DIMCLRD
 70
0
  9
$DIMCLRE
 70
0
  9
$DIMCLRT
 70
0
  9
$DIMTFAC
 40
1.0
  9
$DIMGAP
 40
0.625
  9
$DIMJUST
 70
0
  9
$DIMSD1
 70
0
  9
$DIMSD2
 70
0
  9
$DIMTOLJ
 70
0
  9
$DIMTZIN
 70
8
  9
$DIMALTZ
 70
0
  9
$DIMALTTZ
 70
0
  9
$DIMUPT
 70
0
  9
$DIMDEC
 70
2
  9
$DIMTDEC
 70
2
  9
$DIMALTU
 70
2
  9
$DIMALTTD
 70
3
  9
$DIMTXSTY
  7
Standard
  9
$DIMAUNIT
 70
0
  9
$DIMADEC
 70
0
  9
$DIMALTRND
 40
0.0
  9
$DIMAZIN
 70
0
  9
$DIMDSEP
 70
44
  9
$DIMATFIT
 70
3
  9
$DIMFRAC
 70
0
  9
$DIMLDRBLK
  1

  9
$DIMLUNIT
 70
2
  9
$DIMLWD
 70
-2
  9
$DIMLWE
 70
-2
  9
$DIMTMOVE
 70
0
  9
$DIMFXL
 40
1.0
  9
$DIMFXLON
 70
0
  9
$DIMJOGANG
 40
0.785398163397
  9
$DIMTFILL
 70
0
  9
$DIMTFILLCLR
 70
0
  9
$DIMARCSYM
 70
0
  9
$DIMLTYPE
  6

  9
$DIMLTEX1
  6

  9
$DIMLTEX2
  6

  9
$DIMTXTDIRECTION
 70
0
  9
$LUNITS
 70
2
  9
$LUPREC
 70
4
  9
$SKETCHINC
 40
1.0
  9
$FILLETRAD
 40
10.0
  9
$AUNITS
 70
0
  9
$AUPREC
 70
2
  9
$MENU
  1
.
  9
$ELEVATION
 40
0.0
  9
$PELEVATION
 40
0.0
  9
$THICKNESS
 40
0.0
  9
$LIMCHECK
 70
0
  9
$CHAMFERA
 40
0.0
  9
$CHAMFERB
 40
0.0
  9
$CHAMFERC
 40
0.0
  9
$CHAMFERD
 40
0.0
  9
$SKPOLY
 70
0
  9
$TDCREATE
 40
2460392.695520833
  9
$TDUCREATE
 40
2458532.153996898
  9
$TDUPDATE
 40
2460392.695520833
  9
$TDUUPDATE
 40
2458532.1544311
  9
$TDINDWG
 40
0.0
  9
$TDUSRTIMER
 40
0.0
  9
$USRTIMER
 70
1
  9
$ANGBASE
 50
0.0
  9
$ANGDIR
 70
0
  9
$PDMODE
 70
0
  9
$PDSIZE
 40
0.0
  9
$PLINEWID
 40
0.0
  9
$SPLFRAME
 70
0
  9
$SPLINETYPE
 70
6
  9
$SPLINESEGS
 70
8
  9
$HANDSEED
  5
1CC
  9
$SURFTAB1
 70
6
  9
$SURFTAB2
 70
6
  9
$SURFTYPE
 70
6
  9
$SURFU
 70
6
  9
$SURFV
 70
6
  9
$UCSBASE
  2

  9
$UCSNAME
  2

  9
$UCSORG
 10
0.0
 20
0.0
 30
0.0
  9
$UCSXDIR
 10
1.0
 20
0.0
 30
0.0
  9
$UCSYDIR
 10
0.0
 20
1.0
 30
0.0
  9
$UCSORTHOREF
  2

  9
$UCSORTHOVIEW
 70
0
  9
$UCSORGTOP
 10
0.0
 20
0.0
 30
0.0
  9
$UCSORGBOTTOM
 10
0.0
 20
0.0
 30
0.0
  9
$UCSORGLEFT
 10
0.0
 20
0.0
 30
0.0
  9
$UCSORGRIGHT
 10
0.0
 20
0.0
 30
0.0
  9
$UCSORGFRONT
 10
0.0
 20
0.0
 30
0.0
  9
$UCSORGBACK
 10
0.0
 20
0.0
 30
0.0
  9
$PUCSBASE
  2

  9
$PUCSNAME
  2

  9
$PUCSORG
 10
0.0
 20
0.0
 30
0.0
  9
$PUCSXDIR
 10
1.0
 20
0.0
 30
0.0
  9
$PUCSYDIR
 10
0.0
 20
1.0
 30
0.0
  9
$PUCSORTHOREF
  2

  9
$PUCSORTHOVIEW
 70
0
  9
$PUCSORGTOP
 10
0.0
 20
0.0
 30
0.0
  9
$PUCSORGBOTTOM
 10
0.0
 20
0.0
 30
0.0
  9
$PUCSORGLEFT
 10
0.0
 20
0.0
 30
0.0
  9
$PUCSORGRIGHT
 10
0.0
 20
0.0
 30
0.0
  9
$PUCSORGFRONT
 10
0.0
 20
0.0
 30
0.0
  9
$PUCSORGBACK
 10
0.0
 20
0.0
 30
0.0
  9
$USERI1
 70
0
  9
$USERI2
 70
0
  9
$USERI3
 70
0
  9
$USERI4
 70
0
  9
$USERI5
 70
0
  9
$USERR1
 40
0.0
  9
$USERR2
 40
0.0
  9
$USERR3
 40
0.0
  9
$USERR4
 40
0.0
  9
$USERR5
 40
0.0
  9
$WORLDVIEW
 70
1
  9
$SHADEDGE
 70
3
  9
$SHADEDIF
 70
70
  9
$TILEMODE
 70
1
  9
$MAXACTVP
 70
64
  9
$PINSBASE
 10
0.0
 20
0.0
 30
0.0
  9
$PLIMCHECK
 70
0
  9
$PEXTMIN
 10
1e+20
 20
1e+20
 30
1e+20
  9
$PEXTMAX
 10
-1e+20
 20
-1e+20
 30
-1e+20
  9
$PLIMMIN
 10
0.0
 20
0.0
  9
$PLIMMAX
 10
420.0
 20
297.0
  9
$UNITMODE
 70
0
  9
$VISRETAIN
 70
1
  9
$PLINEGEN
 70
0
  9
$PSLTSCALE
 70
1
  9
$TREEDEPTH
 70
3020
  9
$CMLSTYLE
  2
Standard
  9
$CMLJUST
 70
0
  9
$CMLSCALE
 40
20.0
  9
$PROXYGRAPHICS
 70
1
  9
$MEASUREMENT
 70
1
  9
$CELWEIGHT
370
-1
  9
$ENDCAPS
280
0
  9
$JOINSTYLE
280
0
  9
$LWDISPLAY
290
0
  9
$INSUNITS
 70
6
  9
$HYPERLINKBASE
  1

  9
$STYLESHEET
  1

  9
$XEDIT
290
1
  9
$CEPSNTYPE
380
0
  9
$PSTYLEMODE
290
1
  9
$FINGERPRINTGUID
  2
{BE04516B-D867-4F0D-800A-6ABE1F26EAC0}
  9
$VERSIONGUID
  2
{EF47603C-7558-4DFE-A73F-426EF47BCF61}
  9
$EXTNAMES
290
1
  9
$PSVPSCALE
 40
0.0
  9
$OLESTARTUP
290
0
  9
$SORTENTS
280
127
  9
$INDEXCTL
280
0
  9
$HIDETEXT
280
1
  9
$XCLIPFRAME
280
0
  9
$HALOGAP
280
0
  9
$OBSCOLOR
 70
257
  9
$OBSLTYPE
280
0
  9
$INTERSECTIONDISPLAY
280
0
  9
$INTERSECTIONCOLOR
 70
257
  9
$DIMASSOC
280
2
  9
$PROJECTNAME
  1

  9
$CAMERADISPLAY
290
0
  9
$LENSLENGTH
 40
50.0
  9
$CAMERAHEIGHT
 40
0.0
  9
$STEPSPERSEC
 40
24.0
  9
$STEPSIZE
 40
100.0
  9
$3DDWFPREC
 40
2.0
  9
$PSOLWIDTH
 40
0.005
  9
$PSOLHEIGHT
 40
0.08
  9
$LOFTANG1
 40
1.570796326795
  9
$LOFTANG2
 40
1.570796326795
  9
$LOFTMAG1
 40
0.0
  9
$LOFTMAG2
 40
0.0
  9
$LOFTPARAM
 70
7
  9
$LOFTNORMALS
280
1
  9
$LATITUDE
 40
37.795
  9
$LONGITUDE
 40
-122.394
  9
$NORTHDIRECTION
 40
0.0
  9
$TIMEZONE
 70
-8000
  9
$LIGHTGLYPHDISPLAY
280
1
  9
$TILEMODELIGHTSYNCH
280
1
  9
$CMATERIAL
347
20
  9
$SOLIDHIST
280
0
  9
$SHOWHIST
280
1
  9
$DWFFRAME
280
2
  9
$DGNFRAME
280
2
  9
$REALWORLDSCALE
290
1
  9
$INTERFERECOLOR
 62
256
  9
$CSHADOW
280
0
  9
$SHADOWPLANELOCATION
 40
0.0
  0
ENDSEC
  0
SECTION
  2
CLASSES
  0
CLASS
  1
ACDBDICTIONARYWDFLT
  2
AcDbDictionaryWithDefault
  3
ObjectDBX Classes
 90
0
 91
0
280
0
281
0
  0
CLASS
  1
SUN
  2
AcDbSun
  3
SCENEOE
 90
1153
 91
0
280
0
281
0
  0
CLASS
  1
VISUALSTYLE
  2
AcDbVisualStyle
  3
ObjectDBX Classes
 90
4095
 91
0
280
0
281
0
  0
CLASS
  1
MATERIAL
  2
AcDbMaterial
  3
ObjectDBX Classes
 90
1153
 91
0
280
0
281
0
  0
CLASS
  1
SCALE
  2
AcDbScale
  3
ObjectDBX Classes
 90
1153
 91
0
280
0
281
0
  0
CLASS
  1
TABLESTYLE
  2
AcDbTableStyle
  3
ObjectDBX Classes
 90
4095
 91
0
280
0
281
0
  0
CLASS
  1
MLEADERSTYLE
  2
AcDbMLeaderStyle
  3
ACDB_MLEADERSTYLE_CLASS
 90
4095
 91
0
280
0
281
0
  0
CLASS
  1
DICTIONARYVAR
  2
AcDbDictionaryVar
  3
ObjectDBX Classes
 90
0
 91
0
280
0
281
0
  0
CLASS
  1
CELLSTYLEMAP
  2
AcDbCellStyleMap
  3
ObjectDBX Classes
 90
1152
 91
0
280
0
281
0
  0
CLASS
  1
MENTALRAYRENDERSETTINGS
  2
AcDbMentalRayRenderSettings
  3
SCENEOE
 90
1024
 91
0
280
0
281
0
  0
CLASS
  1
ACDBDETAILVIEWSTYLE
  2
AcDbDetailViewStyle
  3
ObjectDBX Classes
 90
1025
 91
0
280
0
281
0
  0
CLASS
  1
ACDBSECTIONVIEWSTYLE
  2
AcDbSectionViewStyle
  3
ObjectDBX Classes
 90
1025
 91
0
280
0
281
0
  0
CLASS
  1
RASTERVARIABLES
  2
AcDbRasterVariables
  3
ISM
 90
0
 91
0
280
0
281
0
  0
CLASS
  1
LAYOUT
  2
AcDbLayout
  3
ObjectDBX Classes
 90
0
 91
0
280
0
281
0
  0
CLASS
  1
ACDBPLACEHOLDER
  2
AcDbPlaceHolder
  3
ObjectDBX Classes
 90
0
 91
0
280
0
281
0
  0
ENDSEC
  0
SECTION
  2
TABLES
  0
TABLE
  2
VPORT
  5
8
330
0
100
AcDbSymbolTable
 70
1
  0
VPORT
  5
23
330
8
100
AcDbSymbolTableRecord
100
AcDbViewportTableRecord
  2
*Active
 70
0
 10
0.0
 20
0.0
 11
1.0
 21
1.0
 12
0.0
 22
0.0
 13
0.0
 23
0.0
 14
0.5
 24
0.5
 15
0.5
 25
0.5
 16
0.0
 26
0.0
 36
1.0
 17
0.0
 27
0.0
 37
0.0
 40
1000.0
 41
1.34
 42
50.0
 43
0.0
 44
0.0
 50
0.0
 51
0.0
 71
0
 72
1000
 73
1
 74
3
 75
0
 76
0
 77
0
 78
0
281
0
 65
0
146
0.0
  0
ENDTAB
  0
TABLE
  2
LTYPE
  5
2
330
0
100
AcDbSymbolTable
 70
3
  0
LTYPE
  5
24
330
2
100
AcDbSymbolTableRecord
100
AcDbLinetypeTableRecord
  2
ByBlock
 70
0
  3

 72
65
 73
0
 40
0.0
  0
LTYPE
  5
25
330
2
100
AcDbSymbolTableRecord
100
AcDbLinetypeTableRecord
  2
ByLayer
 70
0
  3

 72
65
 73
0
 40
0.0
  0
LTYPE
  5
26
330
2
100
AcDbSymbolTableRecord
100
AcDbLinetypeTableRecord
  2
Continuous
 70
0
  3

 72
65
 73
0
 40
0.0
  0
ENDTAB
  0
TABLE
  2
LAYER
  5
1
330
0
100
AcDbSymbolTable
 70
5
  0
LAYER
  5
27
330
1
100
AcDbSymbolTableRecord
100
AcDbLayerTableRecord
  2
0
 70
0
 62
7
  6
Continuous
370
-3
390
13
347
21
  0
LAYER
  5
28
330
1
100
AcDbSymbolTableRecord
100
AcDbLayerTableRecord
  2
Defpoints
 70
0
 62
7
  6
Continuous
290
0
370
-3
390
13
347
21
  0
LAYER
  5
30
330
1
100
AcDbSymbolTableRecord
100
AcDbLayerTableRecord
  2
FoilLayer
 70
0
 62
1
  6
Continuous
370
50
390
13
347
21
  0
LAYER
  5
31
330
1
100
AcDbSymbolTableRecord
100
AcDbLayerTableRecord
  2
StringerLayer
 70
0
 62
1
  6
Continuous
370
50
390
13
347
21
  0
LAYER
  5
32
330
1
100
AcDbSymbolTableRecord
100
AcDbLayerTableRecord
  2
SubLayer
 70
0
 62
1
  6
Continuous
370
50
390
13
347
21
  0
ENDTAB
  0
TABLE
  2
STYLE
  5
5
330
0
100
AcDbSymbolTable
 70
2
  0
STYLE
  5
29
330
5
100
AcDbSymbolTableRecord
100
AcDbTextStyleTableRecord
  2
Standard
 70
0
 40
0.0
 41
1.0
 50
0.0
 71
0
 42
2.5
  3
txt
  4

  0
STYLE
  5
2F
330
5
100
AcDbSymbolTableRecord
100
AcDbTextStyleTableRecord
  2
MSゴシック
 70
0
 40
0.0
 41
1.0
 50
0.0
 71
0
 42
2.5
  3
romans
  4

  0
ENDTAB
  0
TABLE
  2
VIEW
  5
7
330
0
100
AcDbSymbolTable
 70
0
  0
ENDTAB
  0
TABLE
  2
UCS
  5
6
330
0
100
AcDbSymbolTable
 70
0
  0
ENDTAB
  0
TABLE
  2
APPID
  5
3
330
0
100
AcDbSymbolTable
 70
3
  0
APPID
  5
2A
330
3
100
AcDbSymbolTableRecord
100
AcDbRegAppTableRecord
  2
ACAD
 70
0
  0
APPID
  5
1C9
330
3
100
AcDbSymbolTableRecord
100
AcDbRegAppTableRecord
  2
HATCHBACKGROUNDCOLOR
 70
0
  0
APPID
  5
1CA
330
3
100
AcDbSymbolTableRecord
100
AcDbRegAppTableRecord
  2
EZDXF
 70
0
  0
ENDTAB
  0
TABLE
  2
DIMSTYLE
  5
4
330
0
100
AcDbSymbolTable
 70
1
100
AcDbDimStyleTable
  0
DIMSTYLE
105
2B
330
4
100
AcDbSymbolTableRecord
100
AcDbDimStyleTableRecord
  2
Standard
 70
0
 40
1.0
 41
2.5
 42
0.625
 43
3.75
 44
1.25
 45
0.0
 46
0.0
 47
0.0
 48
0.0
 49
2.5
140
2.5
141
2.5
142
0.0
143
0.03937007874
144
1.0
145
0.0
146
1.0
147
0.625
148
0.0
 69
0
 70
0
 71
0
 72
0
 73
0
 74
0
 75
0
 76
0
 77
1
 78
8
 79
3
170
0
171
3
172
1
173
0
174
0
175
0
176
0
177
0
178
0
179
2
271
2
272
2
273
2
274
3
275
0
276
0
277
2
278
44
279
0
280
0
281
0
282
0
283
0
284
8
285
0
286
0
288
0
289
3
290
0
371
-2
372
-2
  0
ENDTAB
  0
TABLE
  2
BLOCK_RECORD
  5
9
330
0
100
AcDbSymbolTable
 70
2
  0
BLOCK_RECORD
  5
17
330
9
100
AcDbSymbolTableRecord
100
AcDbBlockTableRecord
  2
*Model_Space
340
1A
 70
0
280
1
281
0
  0
BLOCK_RECORD
  5
1B
330
9
100
AcDbSymbolTableRecord
100
AcDbBlockTableRecord
  2
*Paper_Space
340
1E
 70
0
280
1
281
0
  0
ENDTAB
  0
ENDSEC
  0
SECTION
  2
BLOCKS
  0
BLOCK
  5
18
330
17
100
AcDbEntity
  8
0
100
AcDbBlockBegin
  2
*Model_Space
 70
0
 10
0.0
 20
0.0
 30
0.0
  3
*Model_Space
  1

  0
ENDBLK
  5
19
330
17
100
AcDbEntity
  8
0
100
AcDbBlockEnd
  0
BLOCK
  5
1C
330
1B
100
AcDbEntity
  8
0
100
AcDbBlockBegin
  2
*Paper_Space
 70
0
 10
0.0
 20
0.0
 30
0.0
  3
*Paper_Space
  1

  0
ENDBLK
  5
1D
330
1B
100
AcDbEntity
  8
0
100
AcDbBlockEnd
  0
ENDSEC
  0
SECTION
  2
ENTITIES
  0
LINE
  5
33
330
17
100
AcDbEntity
  8
FoilLayer
100
AcDbLine
 10
549.3331731624396
 20
0.8907572610753922
 30
0.0
 11
546.6458701672709
 21
1.7508764376269736
 31
0.0
  0
LINE
  5
34
330
17
100
AcDbEntity
  8
FoilLayer
100
AcDbLine
 10
546.6458701672709
 20
1.7508764376269736
 30
0.0
 11
542.3229343169974
 21
3.054886342657806
 31
0.0
  0
LINE
  5
35
330
17
100
AcDbEntity
  8
FoilLayer
100
AcDbLine
 10
542.3229343169974
 20
3.054886342657806
 30
0.0
 11
537.6460605107242
 21
4.50188149039838
 31
0.0
  0
LINE
  5
36
330
17
100
AcDbEntity
  8
FoilLayer
100
AcDbLine
 10
537.6460605107242
 20
4.50188149039838
 30
0.0
 11
532.5387843211124
 21
6.048466480839957
 31
0.0
  0
LINE
  5
37
330
17
100
AcDbEntity
  8
FoilLayer
100
AcDbLine
 10
532.5387843211124
 20
6.048466480839957
 30
0.0
 11
526.9698695003104
 21
7.696766810396235
 31
0.0
  0
LINE
  5
38
330
17
100
AcDbEntity
  8
FoilLayer
100
AcDbLine
 10
526.9698695003104
 20
7.696766810396235
 30
0.0
 11
520.9792233112987
 21
9.46882334928428
 31
0.0
  0
LINE
  5
39
330
17
100
AcDbEntity
  8
FoilLayer
100
AcDbLine
 10
520.9792233112987
 20
9.46882334928428
 30
0.0
 11
514.6381990272833
 21
11.356081625882776
 31
0.0
  0
LINE
  5
3A
330
17
100
AcDbEntity
  8
FoilLayer
100
AcDbLine
 10
514.6381990272833
 20
11.356081625882776
 30
0.0
 11
508.00360324555845
 21
13.31987560264722
 31
0.0
  0
LINE
  5
3B
330
17
100
AcDbEntity
  8
FoilLayer
100
AcDbLine
 10
508.00360324555845
 20
13.31987560264722
 30
0.0
 11
501.1785867287166
 21
15.336847719978309
 31
0.0
  0
LINE
  5
3C
330
17
100
AcDbEntity
  8
FoilLayer
100
AcDbLine
 10
501.1785867287166
 20
15.336847719978309
 30
0.0
 11
494.289812533356
 21
17.34806435350446
 31
0.0
  0
LINE
  5
3D
330
17
100
AcDbEntity
  8
FoilLayer
100
AcDbLine
 10
494.289812533356
 20
17.34806435350446
 30
0.0
 11
487.3455113574247
 21
19.326658046218842
 31
0.0
  0
LINE
  5
3E
330
17
100
AcDbEntity
  8
FoilLayer
100
AcDbLine
 10
487.3455113574247
 20
19.326658046218842
 30
0.0
 11
480.3029960233406
 21
21.385454975095644
 31
0.0
  0
LINE
  5
3F
330
17
100
AcDbEntity
  8
FoilLayer
100
AcDbLine
 10
480.3029960233406
 20
21.385454975095644
 30
0.0
 11
473.1786344674251
 21
23.478922460718785
 31
0.0
  0
LINE
  5
40
330
17
100
AcDbEntity
  8
FoilLayer
100
AcDbLine
 10
473.1786344674251
 20
23.478922460718785
 30
0.0
 11
465.9341266643821
 21
25.55460930630189
 31
0.0
  0
LINE
  5
41
330
17
100
AcDbEntity
  8
FoilLayer
100
AcDbLine
 10
465.9341266643821
 20
25.55460930630189
 30
0.0
 11
458.57283507353384
 21
27.653080594868456
 31
0.0
  0
LINE
  5
42
330
17
100
AcDbEntity
  8
FoilLayer
100
AcDbLine
 10
458.57283507353384
 20
27.653080594868456
 30
0.0
 11
451.0878218679212
 21
29.75361129991596
 31
0.0
  0
LINE
  5
43
330
17
100
AcDbEntity
  8
FoilLayer
100
AcDbLine
 10
451.0878218679212
 20
29.75361129991596
 30
0.0
 11
443.46011281017786
 21
31.904297419008913
 31
0.0
  0
LINE
  5
44
330
17
100
AcDbEntity
  8
FoilLayer
100
AcDbLine
 10
443.46011281017786
 20
31.904297419008913
 30
0.0
 11
435.7112392216802
 21
34.08432757979027
 31
0.0
  0
LINE
  5
45
330
17
100
AcDbEntity
  8
FoilLayer
100
AcDbLine
 10
435.7112392216802
 20
34.08432757979027
 30
0.0
 11
427.8743698511172
 21
36.28286736156055
 31
0.0
  0
LINE
  5
46
330
17
100
AcDbEntity
  8
FoilLayer
100
AcDbLine
 10
427.8743698511172
 20
36.28286736156055
 30
0.0
 11
419.98162523618805
 21
38.49410534654709
 31
0.0
  0
LINE
  5
47
330
17
100
AcDbEntity
  8
FoilLayer
100
AcDbLine
 10
419.98162523618805
 20
38.49410534654709
 30
0.0
 11
412.0636769301899
 21
40.712119117029516
 31
0.0
  0
LINE
  5
48
330
17
100
AcDbEntity
  8
FoilLayer
100
AcDbLine
 10
412.0636769301899
 20
40.712119117029516
 30
0.0
 11
404.14264586208844
 21
42.92496224122299
 31
0.0
  0
LINE
  5
49
330
17
100
AcDbEntity
  8
FoilLayer
100
AcDbLine
 10
404.14264586208844
 20
42.92496224122299
 30
0.0
 11
396.22439020824106
 21
45.125923772953534
 31
0.0
  0
LINE
  5
4A
330
17
100
AcDbEntity
  8
FoilLayer
100
AcDbLine
 10
396.22439020824106
 20
45.125923772953534
 30
0.0
 11
388.3098002736324
 21
47.31379422837083
 31
0.0
  0
LINE
  5
4B
330
17
100
AcDbEntity
  8
FoilLayer
100
AcDbLine
 10
388.3098002736324
 20
47.31379422837083
 30
0.0
 11
380.4014400749735
 21
49.48841775785062
 31
0.0
  0
LINE
  5
4C
330
17
100
AcDbEntity
  8
FoilLayer
100
AcDbLine
 10
380.4014400749735
 20
49.48841775785062
 30
0.0
 11
372.5084091625172
 21
51.64929443104137
 31
0.0
  0
LINE
  5
4D
330
17
100
AcDbEntity
  8
FoilLayer
100
AcDbLine
 10
372.5084091625172
 20
51.64929443104137
 30
0.0
 11
364.64648852529353
 21
53.78983590019546
 31
0.0
  0
LINE
  5
4E
330
17
100
AcDbEntity
  8
FoilLayer
100
AcDbLine
 10
364.64648852529353
 20
53.78983590019546
 30
0.0
 11
356.8167899457243
 21
55.901572793772445
 31
0.0
  0
LINE
  5
4F
330
17
100
AcDbEntity
  8
FoilLayer
100
AcDbLine
 10
356.8167899457243
 20
55.901572793772445
 30
0.0
 11
349.00443326363086
 21
57.984429892546956
 31
0.0
  0
LINE
  5
50
330
17
100
AcDbEntity
  8
FoilLayer
100
AcDbLine
 10
349.00443326363086
 20
57.984429892546956
 30
0.0
 11
341.2032815902169
 21
60.04312588774319
 31
0.0
  0
LINE
  5
51
330
17
100
AcDbEntity
  8
FoilLayer
100
AcDbLine
 10
341.2032815902169
 20
60.04312588774319
 30
0.0
 11
333.42051394691237
 21
62.07680873392234
 31
0.0
  0
LINE
  5
52
330
17
100
AcDbEntity
  8
FoilLayer
100
AcDbLine
 10
333.42051394691237
 20
62.07680873392234
 30
0.0
 11
329.56967619554575
 21
63.07134715214726
 31
0.0
  0
LINE
  5
53
330
17
100
AcDbEntity
  8
FoilLayer
100
AcDbLine
 10
329.56967619554575
 20
63.07134715214726
 30
0.0
 11
329.3071127422148
 21
62.05470540945962
 31
0.0
  0
LINE
  5
54
330
17
100
AcDbEntity
  8
FoilLayer
100
AcDbLine
 10
329.3071127422148
 20
62.05470540945962
 30
0.0
 11
325.4008075427505
 21
63.06357760242127
 31
0.0
  0
LINE
  5
55
330
17
100
AcDbEntity
  8
FoilLayer
100
AcDbLine
 10
325.4008075427505
 20
63.06357760242127
 30
0.0
 11
317.6623435420223
 21
65.0349274513729
 31
0.0
  0
LINE
  5
56
330
17
100
AcDbEntity
  8
FoilLayer
100
AcDbLine
 10
317.6623435420223
 20
65.0349274513729
 30
0.0
 11
309.93714561964316
 21
66.97405643535355
 31
0.0
  0
LINE
  5
57
330
17
100
AcDbEntity
  8
FoilLayer
100
AcDbLine
 10
309.93714561964316
 20
66.97405643535355
 30
0.0
 11
302.21942981290385
 21
68.88113641800447
 31
0.0
  0
LINE
  5
58
330
17
100
AcDbEntity
  8
FoilLayer
100
AcDbLine
 10
302.21942981290385
 20
68.88113641800447
 30
0.0
 11
294.50377887776085
 21
70.75806422541321
 31
0.0
  0
LINE
  5
59
330
17
100
AcDbEntity
  8
FoilLayer
100
AcDbLine
 10
294.50377887776085
 20
70.75806422541321
 30
0.0
 11
286.7907668093367
 21
72.60848921162344
 31
0.0
  0
LINE
  5
5A
330
17
100
AcDbEntity
  8
FoilLayer
100
AcDbLine
 10
286.7907668093367
 20
72.60848921162344
 30
0.0
 11
279.10146527708696
 21
74.43239124639568
 31
0.0
  0
LINE
  5
5B
330
17
100
AcDbEntity
  8
FoilLayer
100
AcDbLine
 10
279.10146527708696
 20
74.43239124639568
 30
0.0
 11
271.46360549105293
 21
76.2197063818169
 31
0.0
  0
LINE
  5
5C
330
17
100
AcDbEntity
  8
FoilLayer
100
AcDbLine
 10
271.46360549105293
 20
76.2197063818169
 30
0.0
 11
263.8845359130338
 21
77.95801703073442
 31
0.0
  0
LINE
  5
5D
330
17
100
AcDbEntity
  8
FoilLayer
100
AcDbLine
 10
263.8845359130338
 20
77.95801703073442
 30
0.0
 11
256.3544625244201
 21
79.64223366494363
 31
0.0
  0
LINE
  5
5E
330
17
100
AcDbEntity
  8
FoilLayer
100
AcDbLine
 10
256.3544625244201
 20
79.64223366494363
 30
0.0
 11
248.86156249597207
 21
81.27173084988662
 31
0.0
  0
LINE
  5
5F
330
17
100
AcDbEntity
  8
FoilLayer
100
AcDbLine
 10
248.86156249597207
 20
81.27173084988662
 30
0.0
 11
241.3954442442381
 21
82.84708361102915
 31
0.0
  0
LINE
  5
60
330
17
100
AcDbEntity
  8
FoilLayer
100
AcDbLine
 10
241.3954442442381
 20
82.84708361102915
 30
0.0
 11
233.9468469242205
 21
84.369497228229
 31
0.0
  0
LINE
  5
61
330
17
100
AcDbEntity
  8
FoilLayer
100
AcDbLine
 10
233.9468469242205
 20
84.369497228229
 30
0.0
 11
226.5107257092185
 21
85.84071817520025
 31
0.0
  0
LINE
  5
62
330
17
100
AcDbEntity
  8
FoilLayer
100
AcDbLine
 10
226.5107257092185
 20
85.84071817520025
 30
0.0
 11
219.08773443390635
 21
87.26100946009265
 31
0.0
  0
LINE
  5
63
330
17
100
AcDbEntity
  8
FoilLayer
100
AcDbLine
 10
219.08773443390635
 20
87.26100946009265
 30
0.0
 11
211.67911620602
 21
88.62804571773242
 31
0.0
  0
LINE
  5
64
330
17
100
AcDbEntity
  8
FoilLayer
100
AcDbLine
 10
211.67911620602
 20
88.62804571773242
 30
0.0
 11
204.27853250984992
 21
89.93947231696345
 31
0.0
  0
LINE
  5
65
330
17
100
AcDbEntity
  8
FoilLayer
100
AcDbLine
 10
204.27853250984992
 20
89.93947231696345
 30
0.0
 11
196.87529785985726
 21
91.1963398462863
 31
0.0
  0
LINE
  5
66
330
17
100
AcDbEntity
  8
FoilLayer
100
AcDbLine
 10
196.87529785985726
 20
91.1963398462863
 30
0.0
 11
189.46357529246063
 21
92.40118328458524
 31
0.0
  0
LINE
  5
67
330
17
100
AcDbEntity
  8
FoilLayer
100
AcDbLine
 10
189.46357529246063
 20
92.40118328458524
 30
0.0
 11
182.04103305948956
 21
93.55557390823068
 31
0.0
  0
LINE
  5
68
330
17
100
AcDbEntity
  8
FoilLayer
100
AcDbLine
 10
182.04103305948956
 20
93.55557390823068
 30
0.0
 11
174.60699988817493
 21
94.66055818217598
 31
0.0
  0
LINE
  5
69
330
17
100
AcDbEntity
  8
FoilLayer
100
AcDbLine
 10
174.60699988817493
 20
94.66055818217598
 30
0.0
 11
167.16260917424512
 21
95.7167376777724
 31
0.0
  0
LINE
  5
6A
330
17
100
AcDbEntity
  8
FoilLayer
100
AcDbLine
 10
167.16260917424512
 20
95.7167376777724
 30
0.0
 11
159.7109320572966
 21
96.72406637374058
 31
0.0
  0
LINE
  5
6B
330
17
100
AcDbEntity
  8
FoilLayer
100
AcDbLine
 10
159.7109320572966
 20
96.72406637374058
 30
0.0
 11
152.25377085049877
 21
97.68095126839124
 31
0.0
  0
LINE
  5
6C
330
17
100
AcDbEntity
  8
FoilLayer
100
AcDbLine
 10
152.25377085049877
 20
97.68095126839124
 30
0.0
 11
144.78627177003392
 21
98.58596852359597
 31
0.0
  0
LINE
  5
6D
330
17
100
AcDbEntity
  8
FoilLayer
100
AcDbLine
 10
144.78627177003392
 20
98.58596852359597
 30
0.0
 11
137.3011272528788
 21
99.44064849073077
 31
0.0
  0
LINE
  5
6E
330
17
100
AcDbEntity
  8
FoilLayer
100
AcDbLine
 10
137.3011272528788
 20
99.44064849073077
 30
0.0
 11
129.79567595540226
 21
100.24770879530567
 31
0.0
  0
LINE
  5
6F
330
17
100
AcDbEntity
  8
FoilLayer
100
AcDbLine
 10
129.79567595540226
 20
100.24770879530567
 30
0.0
 11
122.27150215127887
 21
101.00950457032066
 31
0.0
  0
LINE
  5
70
330
17
100
AcDbEntity
  8
FoilLayer
100
AcDbLine
 10
122.27150215127887
 20
101.00950457032066
 30
0.0
 11
114.7362141746404
 21
101.72739097466473
 31
0.0
  0
LINE
  5
71
330
17
100
AcDbEntity
  8
FoilLayer
100
AcDbLine
 10
114.7362141746404
 20
101.72739097466473
 30
0.0
 11
107.19838413710869
 21
102.40028824458041
 31
0.0
  0
LINE
  5
72
330
17
100
AcDbEntity
  8
FoilLayer
100
AcDbLine
 10
107.19838413710869
 20
102.40028824458041
 30
0.0
 11
99.6626874218652
 21
103.02602412382835
 31
0.0
  0
LINE
  5
73
330
17
100
AcDbEntity
  8
FoilLayer
100
AcDbLine
 10
99.6626874218652
 20
103.02602412382835
 30
0.0
 11
92.13102676177363
 21
103.60398743050781
 31
0.0
  0
LINE
  5
74
330
17
100
AcDbEntity
  8
FoilLayer
100
AcDbLine
 10
92.13102676177363
 20
103.60398743050781
 30
0.0
 11
84.6070492579056
 21
104.13363814747649
 31
0.0
  0
LINE
  5
75
330
17
100
AcDbEntity
  8
FoilLayer
100
AcDbLine
 10
84.6070492579056
 20
104.13363814747649
 30
0.0
 11
77.09309699347983
 21
104.61348426666925
 31
0.0
  0
LINE
  5
76
330
17
100
AcDbEntity
  8
FoilLayer
100
AcDbLine
 10
77.09309699347983
 20
104.61348426666925
 30
0.0
 11
69.58868067913448
 21
105.04196174346643
 31
0.0
  0
LINE
  5
77
330
17
100
AcDbEntity
  8
FoilLayer
100
AcDbLine
 10
69.58868067913448
 20
105.04196174346643
 30
0.0
 11
62.091450980924606
 21
105.41872805903792
 31
0.0
  0
LINE
  5
78
330
17
100
AcDbEntity
  8
FoilLayer
100
AcDbLine
 10
62.091450980924606
 20
105.41872805903792
 30
0.0
 11
54.601576843952216
 21
105.74404025462546
 31
0.0
  0
LINE
  5
79
330
17
100
AcDbEntity
  8
FoilLayer
100
AcDbLine
 10
54.601576843952216
 20
105.74404025462546
 30
0.0
 11
47.11982752053285
 21
106.01728395920378
 31
0.0
  0
LINE
  5
7A
330
17
100
AcDbEntity
  8
FoilLayer
100
AcDbLine
 10
47.11982752053285
 20
106.01728395920378
 30
0.0
 11
39.644879266215526
 21
106.23758850258075
 31
0.0
  0
LINE
  5
7B
330
17
100
AcDbEntity
  8
FoilLayer
100
AcDbLine
 10
39.644879266215526
 20
106.23758850258075
 30
0.0
 11
32.17536370041336
 21
106.40495527498074
 31
0.0
  0
LINE
  5
7C
330
17
100
AcDbEntity
  8
FoilLayer
100
AcDbLine
 10
32.17536370041336
 20
106.40495527498074
 30
0.0
 11
24.71269501037193
 21
106.5195567512637
 31
0.0
  0
LINE
  5
7D
330
17
100
AcDbEntity
  8
FoilLayer
100
AcDbLine
 10
24.71269501037193
 20
106.5195567512637
 30
0.0
 11
17.255795437009567
 21
106.57981801204834
 31
0.0
  0
LINE
  5
7E
330
17
100
AcDbEntity
  8
FoilLayer
100
AcDbLine
 10
17.255795437009567
 20
106.57981801204834
 30
0.0
 11
9.801042251683668
 21
106.58512434105958
 31
0.0
  0
LINE
  5
7F
330
17
100
AcDbEntity
  8
FoilLayer
100
AcDbLine
 10
9.801042251683668
 20
106.58512434105958
 30
0.0
 11
2.344600228878562
 21
106.536611785883
 31
0.0
  0
LINE
  5
80
330
17
100
AcDbEntity
  8
FoilLayer
100
AcDbLine
 10
2.344600228878562
 20
106.536611785883
 30
0.0
 11
-5.111048884400645
 21
106.43612460248757
 31
0.0
  0
LINE
  5
81
330
17
100
AcDbEntity
  8
FoilLayer
100
AcDbLine
 10
-5.111048884400645
 20
106.43612460248757
 30
0.0
 11
-12.560717273844432
 21
106.28419575310849
 31
0.0
  0
LINE
  5
82
330
17
100
AcDbEntity
  8
FoilLayer
100
AcDbLine
 10
-12.560717273844432
 20
106.28419575310849
 30
0.0
 11
-19.99973873748553
 21
106.08012899585964
 31
0.0
  0
LINE
  5
83
330
17
100
AcDbEntity
  8
FoilLayer
100
AcDbLine
 10
-19.99973873748553
 20
106.08012899585964
 30
0.0
 11
-27.425324838437632
 21
105.82278635688563
 31
0.0
  0
LINE
  5
84
330
17
100
AcDbEntity
  8
FoilLayer
100
AcDbLine
 10
-27.425324838437632
 20
105.82278635688563
 30
0.0
 11
-34.837072966748565
 21
105.51110788355544
 31
0.0
  0
LINE
  5
85
330
17
100
AcDbEntity
  8
FoilLayer
100
AcDbLine
 10
-34.837072966748565
 20
105.51110788355544
 30
0.0
 11
-42.23469859574749
 21
105.14508562538023
 31
0.0
  0
LINE
  5
86
330
17
100
AcDbEntity
  8
FoilLayer
100
AcDbLine
 10
-42.23469859574749
 20
105.14508562538023
 30
0.0
 11
-49.616030422795916
 21
104.72558322133987
 31
0.0
  0
LINE
  5
87
330
17
100
AcDbEntity
  8
FoilLayer
100
AcDbLine
 10
-49.616030422795916
 20
104.72558322133987
 30
0.0
 11
-56.97398314056386
 21
104.25482043223735
 31
0.0
  0
LINE
  5
88
330
17
100
AcDbEntity
  8
FoilLayer
100
AcDbLine
 10
-56.97398314056386
 20
104.25482043223735
 30
0.0
 11
-64.29472080288753
 21
103.73364835915133
 31
0.0
  0
LINE
  5
89
330
17
100
AcDbEntity
  8
FoilLayer
100
AcDbLine
 10
-64.29472080288753
 20
103.73364835915133
 30
0.0
 11
-71.56709973205062
 21
103.15939742864265
 31
0.0
  0
LINE
  5
8A
330
17
100
AcDbEntity
  8
FoilLayer
100
AcDbLine
 10
-71.56709973205062
 20
103.15939742864265
 30
0.0
 11
-78.78630264297246
 21
102.5271211127765
 31
0.0
  0
LINE
  5
8B
330
17
100
AcDbEntity
  8
FoilLayer
100
AcDbLine
 10
-78.78630264297246
 20
102.5271211127765
 30
0.0
 11
-85.95832395323552
 21
101.82940301793377
 31
0.0
  0
LINE
  5
8C
330
17
100
AcDbEntity
  8
FoilLayer
100
AcDbLine
 10
-85.95832395323552
 20
101.82940301793377
 30
0.0
 11
-93.10295419067975
 21
101.06070895422552
 31
0.0
  0
LINE
  5
8D
330
17
100
AcDbEntity
  8
FoilLayer
100
AcDbLine
 10
-93.10295419067975
 20
101.06070895422552
 30
0.0
 11
-100.23594635083967
 21
100.22352917053666
 31
0.0
  0
LINE
  5
8E
330
17
100
AcDbEntity
  8
FoilLayer
100
AcDbLine
 10
-100.23594635083967
 20
100.22352917053666
 30
0.0
 11
-107.35514435340747
 21
99.3235332875312
 31
0.0
  0
LINE
  5
8F
330
17
100
AcDbEntity
  8
FoilLayer
100
AcDbLine
 10
-107.35514435340747
 20
99.3235332875312
 30
0.0
 11
-114.45240126381066
 21
98.36147396104184
 31
0.0
  0
LINE
  5
90
330
17
100
AcDbEntity
  8
FoilLayer
100
AcDbLine
 10
-114.45240126381066
 20
98.36147396104184
 30
0.0
 11
-121.52474512110672
 21
97.33598732591878
 31
0.0
  0
LINE
  5
91
330
17
100
AcDbEntity
  8
FoilLayer
100
AcDbLine
 10
-121.52474512110672
 20
97.33598732591878
 30
0.0
 11
-128.5702315945097
 21
96.24741378341903
 31
0.0
  0
LINE
  5
92
330
17
100
AcDbEntity
  8
FoilLayer
100
AcDbLine
 10
-128.5702315945097
 20
96.24741378341903
 30
0.0
 11
-135.58259219639442
 21
95.09722496771492
 31
0.0
  0
LINE
  5
93
330
17
100
AcDbEntity
  8
FoilLayer
100
AcDbLine
 10
-135.58259219639442
 20
95.09722496771492
 30
0.0
 11
-142.55526194604218
 21
93.88526641330562
 31
0.0
  0
LINE
  5
94
330
17
100
AcDbEntity
  8
FoilLayer
100
AcDbLine
 10
-142.55526194604218
 20
93.88526641330562
 30
0.0
 11
-149.4829968393054
 21
92.61103440684025
 31
0.0
  0
LINE
  5
95
330
17
100
AcDbEntity
  8
FoilLayer
100
AcDbLine
 10
-149.4829968393054
 20
92.61103440684025
 30
0.0
 11
-156.36182324525416
 21
91.27365038804147
 31
0.0
  0
LINE
  5
96
330
17
100
AcDbEntity
  8
FoilLayer
100
AcDbLine
 10
-156.36182324525416
 20
91.27365038804147
 30
0.0
 11
-163.18836264869304
 21
89.8725703368262
 31
0.0
  0
LINE
  5
97
330
17
100
AcDbEntity
  8
FoilLayer
100
AcDbLine
 10
-163.18836264869304
 20
89.8725703368262
 30
0.0
 11
-169.95877098667006
 21
88.40812170446905
 31
0.0
  0
LINE
  5
98
330
17
100
AcDbEntity
  8
FoilLayer
100
AcDbLine
 10
-169.95877098667006
 20
88.40812170446905
 30
0.0
 11
-176.6653375450845
 21
86.88048157937602
 31
0.0
  0
LINE
  5
99
330
17
100
AcDbEntity
  8
FoilLayer
100
AcDbLine
 10
-176.6653375450845
 20
86.88048157937602
 30
0.0
 11
-183.3065470198687
 21
85.28362188463018
 31
0.0
  0
LINE
  5
9A
330
17
100
AcDbEntity
  8
FoilLayer
100
AcDbLine
 10
-183.3065470198687
 20
85.28362188463018
 30
0.0
 11
-189.89513266943797
 21
83.6133455601863
 31
0.0
  0
LINE
  5
9B
330
17
100
AcDbEntity
  8
FoilLayer
100
AcDbLine
 10
-189.89513266943797
 20
83.6133455601863
 30
0.0
 11
-196.4310978666025
 21
81.88102265787725
 31
0.0
  0
LINE
  5
9C
330
17
100
AcDbEntity
  8
FoilLayer
100
AcDbLine
 10
-196.4310978666025
 20
81.88102265787725
 30
0.0
 11
-202.88001384012767
 21
80.10415638057056
 31
0.0
  0
LINE
  5
9D
330
17
100
AcDbEntity
  8
FoilLayer
100
AcDbLine
 10
-202.88001384012767
 20
80.10415638057056
 30
0.0
 11
-209.20574360360422
 21
78.28472457480561
 31
0.0
  0
LINE
  5
9E
330
17
100
AcDbEntity
  8
FoilLayer
100
AcDbLine
 10
-209.20574360360422
 20
78.28472457480561
 30
0.0
 11
-215.39604115681743
 21
76.41409785538873
 31
0.0
  0
LINE
  5
9F
330
17
100
AcDbEntity
  8
FoilLayer
100
AcDbLine
 10
-215.39604115681743
 20
76.41409785538873
 30
0.0
 11
-221.45235180491227
 21
74.4850404237447
 31
0.0
  0
LINE
  5
A0
330
17
100
AcDbEntity
  8
FoilLayer
100
AcDbLine
 10
-221.45235180491227
 20
74.4850404237447
 30
0.0
 11
-227.37914906066493
 21
72.49371157417983
 31
0.0
  0
LINE
  5
A1
330
17
100
AcDbEntity
  8
FoilLayer
100
AcDbLine
 10
-227.37914906066493
 20
72.49371157417983
 30
0.0
 11
-233.18008679219707
 21
70.43920712560119
 31
0.0
  0
LINE
  5
A2
330
17
100
AcDbEntity
  8
FoilLayer
100
AcDbLine
 10
-233.18008679219707
 20
70.43920712560119
 30
0.0
 11
-238.85481974483588
 21
68.32377612375302
 31
0.0
  0
LINE
  5
A3
330
17
100
AcDbEntity
  8
FoilLayer
100
AcDbLine
 10
-238.85481974483588
 20
68.32377612375302
 30
0.0
 11
-244.39759256960815
 21
66.153445541483
 31
0.0
  0
LINE
  5
A4
330
17
100
AcDbEntity
  8
FoilLayer
100
AcDbLine
 10
-244.39759256960815
 20
66.153445541483
 30
0.0
 11
-249.79585863719223
 21
63.936762603233426
 31
0.0
  0
LINE
  5
A5
330
17
100
AcDbEntity
  8
FoilLayer
100
AcDbLine
 10
-249.79585863719223
 20
63.936762603233426
 30
0.0
 11
-255.0345894864776
 21
61.68019936350976
 31
0.0
  0
LINE
  5
A6
330
17
100
AcDbEntity
  8
FoilLayer
100
AcDbLine
 10
-255.0345894864776
 20
61.68019936350976
 30
0.0
 11
-260.1042349402481
 21
59.38876588342898
 31
0.0
  0
LINE
  5
A7
330
17
100
AcDbEntity
  8
FoilLayer
100
AcDbLine
 10
-260.1042349402481
 20
59.38876588342898
 30
0.0
 11
-264.9950925061878
 21
57.07545195341172
 31
0.0
  0
LINE
  5
A8
330
17
100
AcDbEntity
  8
FoilLayer
100
AcDbLine
 10
-264.9950925061878
 20
57.07545195341172
 30
0.0
 11
-269.6878553188153
 21
54.76149715739619
 31
0.0
  0
LINE
  5
A9
330
17
100
AcDbEntity
  8
FoilLayer
100
AcDbLine
 10
-269.6878553188153
 20
54.76149715739619
 30
0.0
 11
-274.15889185810266
 21
52.465100172798884
 31
0.0
  0
LINE
  5
AA
330
17
100
AcDbEntity
  8
FoilLayer
100
AcDbLine
 10
-274.15889185810266
 20
52.465100172798884
 30
0.0
 11
-278.390576938778
 21
50.19747993784617
 31
0.0
  0
LINE
  5
AB
330
17
100
AcDbEntity
  8
FoilLayer
100
AcDbLine
 10
-278.390576938778
 20
50.19747993784617
 30
0.0
 11
-282.3736045875169
 21
47.965449382166575
 31
0.0
  0
LINE
  5
AC
330
17
100
AcDbEntity
  8
FoilLayer
100
AcDbLine
 10
-282.3736045875169
 20
47.965449382166575
 30
0.0
 11
-286.1076839227111
 21
45.772114994261926
 31
0.0
  0
LINE
  5
AD
330
17
100
AcDbEntity
  8
FoilLayer
100
AcDbLine
 10
-286.1076839227111
 20
45.772114994261926
 30
0.0
 11
-289.5991927835483
 21
43.6219593638461
 31
0.0
  0
LINE
  5
AE
330
17
100
AcDbEntity
  8
FoilLayer
100
AcDbLine
 10
-289.5991927835483
 20
43.6219593638461
 30
0.0
 11
-292.85594779362566
 21
41.52291953174459
 31
0.0
  0
LINE
  5
AF
330
17
100
AcDbEntity
  8
FoilLayer
100
AcDbLine
 10
-292.85594779362566
 20
41.52291953174459
 30
0.0
 11
-295.8864219467981
 21
39.482567791001664
 31
0.0
  0
LINE
  5
B0
330
17
100
AcDbEntity
  8
FoilLayer
100
AcDbLine
 10
-295.8864219467981
 20
39.482567791001664
 30
0.0
 11
-298.69929396842394
 21
37.50783871719537
 31
0.0
  0
LINE
  5
B1
330
17
100
AcDbEntity
  8
FoilLayer
100
AcDbLine
 10
-298.69929396842394
 20
37.50783871719537
 30
0.0
 11
-301.30318748732776
 21
35.60205892169493
 31
0.0
  0
LINE
  5
B2
330
17
100
AcDbEntity
  8
FoilLayer
100
AcDbLine
 10
-301.30318748732776
 20
35.60205892169493
 30
0.0
 11
-303.7081771395219
 21
33.76431627171465
 31
0.0
  0
LINE
  5
B3
330
17
100
AcDbEntity
  8
FoilLayer
100
AcDbLine
 10
-303.7081771395219
 20
33.76431627171465
 30
0.0
 11
-305.9255639358649
 21
31.991020523573635
 31
0.0
  0
LINE
  5
B4
330
17
100
AcDbEntity
  8
FoilLayer
100
AcDbLine
 10
-305.9255639358649
 20
31.991020523573635
 30
0.0
 11
-307.96818102956036
 21
30.276287098732105
 31
0.0
  0
LINE
  5
B5
330
17
100
AcDbEntity
  8
FoilLayer
100
AcDbLine
 10
-307.96818102956036
 20
30.276287098732105
 30
0.0
 11
-309.85178762981775
 21
28.613824964598866
 31
0.0
  0
LINE
  5
B6
330
17
100
AcDbEntity
  8
FoilLayer
100
AcDbLine
 10
-309.85178762981775
 20
28.613824964598866
 30
0.0
 11
-311.592068654208
 21
27.003430508911364
 31
0.0
  0
LINE
  5
B7
330
17
100
AcDbEntity
  8
FoilLayer
100
AcDbLine
 10
-311.592068654208
 20
27.003430508911364
 30
0.0
 11
-313.20144437123935
 21
25.447498381580143
 31
0.0
  0
LINE
  5
B8
330
17
100
AcDbEntity
  8
FoilLayer
100
AcDbLine
 10
-313.20144437123935
 20
25.447498381580143
 30
0.0
 11
-314.68902461187054
 21
23.946168731536204
 31
0.0
  0
LINE
  5
B9
330
17
100
AcDbEntity
  8
FoilLayer
100
AcDbLine
 10
-314.68902461187054
 20
23.946168731536204
 30
0.0
 11
-316.0632092471725
 21
22.49589370226476
 31
0.0
  0
LINE
  5
BA
330
17
100
AcDbEntity
  8
FoilLayer
100
AcDbLine
 10
-316.0632092471725
 20
22.49589370226476
 30
0.0
 11
-317.3319709686824
 21
21.09356466949634
 31
0.0
  0
LINE
  5
BB
330
17
100
AcDbEntity
  8
FoilLayer
100
AcDbLine
 10
-317.3319709686824
 20
21.09356466949634
 30
0.0
 11
-318.5025162992598
 21
19.73615558106459
 31
0.0
  0
LINE
  5
BC
330
17
100
AcDbEntity
  8
FoilLayer
100
AcDbLine
 10
-318.5025162992598
 20
19.73615558106459
 30
0.0
 11
-319.5815603264589
 21
18.42050614246335
 31
0.0
  0
LINE
  5
BD
330
17
100
AcDbEntity
  8
FoilLayer
100
AcDbLine
 10
-319.5815603264589
 20
18.42050614246335
 30
0.0
 11
-320.5763734477941
 21
17.142247058811424
 31
0.0
  0
LINE
  5
BE
330
17
100
AcDbEntity
  8
FoilLayer
100
AcDbLine
 10
-320.5763734477941
 20
17.142247058811424
 30
0.0
 11
-321.4944973621211
 21
15.899168154315387
 31
0.0
  0
LINE
  5
BF
330
17
100
AcDbEntity
  8
FoilLayer
100
AcDbLine
 10
-321.4944973621211
 20
15.899168154315387
 30
0.0
 11
-322.3407275954998
 21
14.693684696613591
 31
0.0
  0
LINE
  5
C0
330
17
100
AcDbEntity
  8
FoilLayer
100
AcDbLine
 10
-322.3407275954998
 20
14.693684696613591
 30
0.0
 11
-323.11651435310796
 21
13.52637120624775
 31
0.0
  0
LINE
  5
C1
330
17
100
AcDbEntity
  8
FoilLayer
100
AcDbLine
 10
-323.11651435310796
 20
13.52637120624775
 30
0.0
 11
-323.8269278068884
 21
12.385571620027097
 31
0.0
  0
LINE
  5
C2
330
17
100
AcDbEntity
  8
FoilLayer
100
AcDbLine
 10
-323.8269278068884
 20
12.385571620027097
 30
0.0
 11
-324.48311721113555
 21
11.262847169170433
 31
0.0
  0
LINE
  5
C3
330
17
100
AcDbEntity
  8
FoilLayer
100
AcDbLine
 10
-324.48311721113555
 20
11.262847169170433
 30
0.0
 11
-325.0887150232356
 21
10.178046989150225
 31
0.0
  0
LINE
  5
C4
330
17
100
AcDbEntity
  8
FoilLayer
100
AcDbLine
 10
-325.0887150232356
 20
10.178046989150225
 30
0.0
 11
-325.6325691800022
 21
9.148771117784442
 31
0.0
  0
LINE
  5
C5
330
17
100
AcDbEntity
  8
FoilLayer
100
AcDbLine
 10
-325.6325691800022
 20
9.148771117784442
 30
0.0
 11
-326.110320692244
 21
8.141950501750493
 31
0.0
  0
LINE
  5
C6
330
17
100
AcDbEntity
  8
FoilLayer
100
AcDbLine
 10
-326.110320692244
 20
8.141950501750493
 30
0.0
 11
-326.5366961799039
 21
7.121906628167677
 31
0.0
  0
LINE
  5
C7
330
17
100
AcDbEntity
  8
FoilLayer
100
AcDbLine
 10
-326.5366961799039
 20
7.121906628167677
 30
0.0
 11
-326.92461255135055
 21
6.1250109422777195
 31
0.0
  0
LINE
  5
C8
330
17
100
AcDbEntity
  8
FoilLayer
100
AcDbLine
 10
-326.92461255135055
 20
6.1250109422777195
 30
0.0
 11
-327.2639407251826
 21
5.1932105287834744
 31
0.0
  0
LINE
  5
C9
330
17
100
AcDbEntity
  8
FoilLayer
100
AcDbLine
 10
-327.2639407251826
 20
5.1932105287834744
 30
0.0
 11
-327.54115284616563
 21
4.294298579815849
 31
0.0
  0
LINE
  5
CA
330
17
100
AcDbEntity
  8
FoilLayer
100
AcDbLine
 10
-327.54115284616563
 20
4.294298579815849
 30
0.0
 11
-327.75883509522214
 21
3.3864732829210182
 31
0.0
  0
LINE
  5
CB
330
17
100
AcDbEntity
  8
FoilLayer
100
AcDbLine
 10
-327.75883509522214
 20
3.3864732829210182
 30
0.0
 11
-327.9300446172804
 21
2.486276366331592
 31
0.0
  0
LINE
  5
CC
330
17
100
AcDbEntity
  8
FoilLayer
100
AcDbLine
 10
-327.9300446172804
 20
2.486276366331592
 30
0.0
 11
-328.0600890880099
 21
1.6196838320649016
 31
0.0
  0
LINE
  5
CD
330
17
100
AcDbEntity
  8
FoilLayer
100
AcDbLine
 10
-328.0600890880099
 20
1.6196838320649016
 30
0.0
 11
-328.14481947468374
 21
0.781788090580155
 31
0.0
  0
LINE
  5
CE
330
17
100
AcDbEntity
  8
FoilLayer
100
AcDbLine
 10
-328.14481947468374
 20
0.781788090580155
 30
0.0
 11
-328.1822033898304
 21
-0.054771143141573025
 31
0.0
  0
LINE
  5
CF
330
17
100
AcDbEntity
  8
FoilLayer
100
AcDbLine
 10
-328.1822033898304
 20
-0.054771143141573025
 30
0.0
 11
-328.17470515468193
 21
-0.8226518444015971
 31
0.0
  0
LINE
  5
D0
330
17
100
AcDbEntity
  8
FoilLayer
100
AcDbLine
 10
-328.17470515468193
 20
-0.8226518444015971
 30
0.0
 11
-328.1172078965493
 21
-1.59538747622414
 31
0.0
  0
LINE
  5
D1
330
17
100
AcDbEntity
  8
FoilLayer
100
AcDbLine
 10
-328.1172078965493
 20
-1.59538747622414
 30
0.0
 11
-327.99602766374846
 21
-2.3662582807060493
 31
0.0
  0
LINE
  5
D2
330
17
100
AcDbEntity
  8
FoilLayer
100
AcDbLine
 10
-327.99602766374846
 20
-2.3662582807060493
 30
0.0
 11
-327.80281374053163
 21
-3.14294872918809
 31
0.0
  0
LINE
  5
D3
330
17
100
AcDbEntity
  8
FoilLayer
100
AcDbLine
 10
-327.80281374053163
 20
-3.14294872918809
 30
0.0
 11
-327.53903479515657
 21
-3.920271691314276
 31
0.0
  0
LINE
  5
D4
330
17
100
AcDbEntity
  8
FoilLayer
100
AcDbLine
 10
-327.53903479515657
 20
-3.920271691314276
 30
0.0
 11
-327.2071970906825
 21
-4.690931466272604
 31
0.0
  0
LINE
  5
D5
330
17
100
AcDbEntity
  8
FoilLayer
100
AcDbLine
 10
-327.2071970906825
 20
-4.690931466272604
 30
0.0
 11
-326.8075010090155
 21
-5.449435324406872
 31
0.0
  0
LINE
  5
D6
330
17
100
AcDbEntity
  8
FoilLayer
100
AcDbLine
 10
-326.8075010090155
 20
-5.449435324406872
 30
0.0
 11
-326.33922934715616
 21
-6.190447489797204
 31
0.0
  0
LINE
  5
D7
330
17
100
AcDbEntity
  8
FoilLayer
100
AcDbLine
 10
-326.33922934715616
 20
-6.190447489797204
 30
0.0
 11
-325.79489344854585
 21
-6.915414160750434
 31
0.0
  0
LINE
  5
D8
330
17
100
AcDbEntity
  8
FoilLayer
100
AcDbLine
 10
-325.79489344854585
 20
-6.915414160750434
 30
0.0
 11
-325.17069541297434
 21
-7.626525058981523
 31
0.0
  0
LINE
  5
D9
330
17
100
AcDbEntity
  8
FoilLayer
100
AcDbLine
 10
-325.17069541297434
 20
-7.626525058981523
 30
0.0
 11
-324.4728305109604
 21
-8.32170600198077
 31
0.0
  0
LINE
  5
DA
330
17
100
AcDbEntity
  8
FoilLayer
100
AcDbLine
 10
-324.4728305109604
 20
-8.32170600198077
 30
0.0
 11
-323.70577749350906
 21
-8.999131254319343
 31
0.0
  0
LINE
  5
DB
330
17
100
AcDbEntity
  8
FoilLayer
100
AcDbLine
 10
-323.70577749350906
 20
-8.999131254319343
 30
0.0
 11
-322.8716717418636
 21
-9.65698014235191
 31
0.0
  0
LINE
  5
DC
330
17
100
AcDbEntity
  8
FoilLayer
100
AcDbLine
 10
-322.8716717418636
 20
-9.65698014235191
 30
0.0
 11
-321.9706794373402
 21
-10.293246197785741
 31
0.0
  0
LINE
  5
DD
330
17
100
AcDbEntity
  8
FoilLayer
100
AcDbLine
 10
-321.9706794373402
 20
-10.293246197785741
 30
0.0
 11
-320.99891979114705
 21
-10.906904007717115
 31
0.0
  0
LINE
  5
DE
330
17
100
AcDbEntity
  8
FoilLayer
100
AcDbLine
 10
-320.99891979114705
 20
-10.906904007717115
 30
0.0
 11
-319.9521412779956
 21
-11.498041573394469
 31
0.0
  0
LINE
  5
DF
330
17
100
AcDbEntity
  8
FoilLayer
100
AcDbLine
 10
-319.9521412779956
 20
-11.498041573394469
 30
0.0
 11
-318.8252680490262
 21
-12.068385566564208
 31
0.0
  0
LINE
  5
E0
330
17
100
AcDbEntity
  8
FoilLayer
100
AcDbLine
 10
-318.8252680490262
 20
-12.068385566564208
 30
0.0
 11
-317.6142833256594
 21
-12.62153398277154
 31
0.0
  0
LINE
  5
E1
330
17
100
AcDbEntity
  8
FoilLayer
100
AcDbLine
 10
-317.6142833256594
 20
-12.62153398277154
 30
0.0
 11
-316.31750075745646
 21
-13.16232667267102
 31
0.0
  0
LINE
  5
E2
330
17
100
AcDbEntity
  8
FoilLayer
100
AcDbLine
 10
-316.31750075745646
 20
-13.16232667267102
 30
0.0
 11
-314.93393036878433
 21
-13.695143071353241
 31
0.0
  0
LINE
  5
E3
330
17
100
AcDbEntity
  8
FoilLayer
100
AcDbLine
 10
-314.93393036878433
 20
-13.695143071353241
 30
0.0
 11
-313.4602372694049
 21
-14.223177351635336
 31
0.0
  0
LINE
  5
E4
330
17
100
AcDbEntity
  8
FoilLayer
100
AcDbLine
 10
-313.4602372694049
 20
-14.223177351635336
 30
0.0
 11
-311.8912654064141
 21
-14.748507862351918
 31
0.0
  0
LINE
  5
E5
330
17
100
AcDbEntity
  8
FoilLayer
100
AcDbLine
 10
-311.8912654064141
 20
-14.748507862351918
 30
0.0
 11
-310.22081983595245
 21
-15.272119908629815
 31
0.0
  0
LINE
  5
E6
330
17
100
AcDbEntity
  8
FoilLayer
100
AcDbLine
 10
-310.22081983595245
 20
-15.272119908629815
 30
0.0
 11
-308.44273970586755
 21
-15.79295993679848
 31
0.0
  0
LINE
  5
E7
330
17
100
AcDbEntity
  8
FoilLayer
100
AcDbLine
 10
-308.44273970586755
 20
-15.79295993679848
 30
0.0
 11
-306.5453823181829
 21
-16.306863612208254
 31
0.0
  0
LINE
  5
E8
330
17
100
AcDbEntity
  8
FoilLayer
100
AcDbLine
 10
-306.5453823181829
 20
-16.306863612208254
 30
0.0
 11
-304.50979339423793
 21
-16.81008253691988
 31
0.0
  0
LINE
  5
E9
330
17
100
AcDbEntity
  8
FoilLayer
100
AcDbLine
 10
-304.50979339423793
 20
-16.81008253691988
 30
0.0
 11
-302.31833027315656
 21
-17.304473444726444
 31
0.0
  0
LINE
  5
EA
330
17
100
AcDbEntity
  8
FoilLayer
100
AcDbLine
 10
-302.31833027315656
 20
-17.304473444726444
 30
0.0
 11
-299.9572382210818
 21
-17.794959414837518
 31
0.0
  0
LINE
  5
EB
330
17
100
AcDbEntity
  8
FoilLayer
100
AcDbLine
 10
-299.9572382210818
 20
-17.794959414837518
 30
0.0
 11
-297.4115543124635
 21
-18.285054822776456
 31
0.0
  0
LINE
  5
EC
330
17
100
AcDbEntity
  8
FoilLayer
100
AcDbLine
 10
-297.4115543124635
 20
-18.285054822776456
 30
0.0
 11
-294.6647183649709
 21
-18.77612312398342
 31
0.0
  0
LINE
  5
ED
330
17
100
AcDbEntity
  8
FoilLayer
100
AcDbLine
 10
-294.6647183649709
 20
-18.77612312398342
 30
0.0
 11
-291.69997705850284
 21
-19.264645525672048
 31
0.0
  0
LINE
  5
EE
330
17
100
AcDbEntity
  8
FoilLayer
100
AcDbLine
 10
-291.69997705850284
 20
-19.264645525672048
 30
0.0
 11
-288.4956644310676
 21
-19.741389990406212
 31
0.0
  0
LINE
  5
EF
330
17
100
AcDbEntity
  8
FoilLayer
100
AcDbLine
 10
-288.4956644310676
 20
-19.741389990406212
 30
0.0
 11
-285.0255771921796
 21
-20.19751958673506
 31
0.0
  0
LINE
  5
F0
330
17
100
AcDbEntity
  8
FoilLayer
100
AcDbLine
 10
-285.0255771921796
 20
-20.19751958673506
 30
0.0
 11
-281.25979724024467
 21
-20.626751244610528
 31
0.0
  0
LINE
  5
F1
330
17
100
AcDbEntity
  8
FoilLayer
100
AcDbLine
 10
-281.25979724024467
 20
-20.626751244610528
 30
0.0
 11
-277.16481386119386
 21
-21.027336714126278
 31
0.0
  0
LINE
  5
F2
330
17
100
AcDbEntity
  8
FoilLayer
100
AcDbLine
 10
-277.16481386119386
 20
-21.027336714126278
 30
0.0
 11
-272.7156944003955
 21
-21.40621625597513
 31
0.0
  0
LINE
  5
F3
330
17
100
AcDbEntity
  8
FoilLayer
100
AcDbLine
 10
-272.7156944003955
 20
-21.40621625597513
 30
0.0
 11
-267.907658063343
 21
-21.768136774935765
 31
0.0
  0
LINE
  5
F4
330
17
100
AcDbEntity
  8
FoilLayer
100
AcDbLine
 10
-267.907658063343
 20
-21.768136774935765
 30
0.0
 11
-262.74597467562205
 21
-22.103208801380603
 31
0.0
  0
LINE
  5
F5
330
17
100
AcDbEntity
  8
FoilLayer
100
AcDbLine
 10
-262.74597467562205
 20
-22.103208801380603
 30
0.0
 11
-257.23247208141936
 21
-22.39682198844813
 31
0.0
  0
LINE
  5
F6
330
17
100
AcDbEntity
  8
FoilLayer
100
AcDbLine
 10
-257.23247208141936
 20
-22.39682198844813
 30
0.0
 11
-251.37006580056538
 21
-22.641724724746588
 31
0.0
  0
LINE
  5
F7
330
17
100
AcDbEntity
  8
FoilLayer
100
AcDbLine
 10
-251.37006580056538
 20
-22.641724724746588
 30
0.0
 11
-245.1675608530494
 21
-22.83797882719006
 31
0.0
  0
LINE
  5
F8
330
17
100
AcDbEntity
  8
FoilLayer
100
AcDbLine
 10
-245.1675608530494
 20
-22.83797882719006
 30
0.0
 11
-238.65032014487485
 21
-22.993318630605135
 31
0.0
  0
LINE
  5
F9
330
17
100
AcDbEntity
  8
FoilLayer
100
AcDbLine
 10
-238.65032014487485
 20
-22.993318630605135
 30
0.0
 11
-231.87522214123976
 21
-23.115475960111816
 31
0.0
  0
LINE
  5
FA
330
17
100
AcDbEntity
  8
FoilLayer
100
AcDbLine
 10
-231.87522214123976
 20
-23.115475960111816
 30
0.0
 11
-224.9127561385405
 21
-23.200222073185564
 31
0.0
  0
LINE
  5
FB
330
17
100
AcDbEntity
  8
FoilLayer
100
AcDbLine
 10
-224.9127561385405
 20
-23.200222073185564
 30
0.0
 11
-217.81472525936425
 21
-23.23599441399145
 31
0.0
  0
LINE
  5
FC
330
17
100
AcDbEntity
  8
FoilLayer
100
AcDbLine
 10
-217.81472525936425
 20
-23.23599441399145
 30
0.0
 11
-210.60339914552688
 21
-23.209910418976335
 31
0.0
  0
LINE
  5
FD
330
17
100
AcDbEntity
  8
FoilLayer
100
AcDbLine
 10
-210.60339914552688
 20
-23.209910418976335
 30
0.0
 11
-203.2614484235778
 21
-23.115318420127057
 31
0.0
  0
LINE
  5
FE
330
17
100
AcDbEntity
  8
FoilLayer
100
AcDbLine
 10
-203.2614484235778
 20
-23.115318420127057
 30
0.0
 11
-195.76379745446405
 21
-22.96408297048188
 31
0.0
  0
LINE
  5
FF
330
17
100
AcDbEntity
  8
FoilLayer
100
AcDbLine
 10
-195.76379745446405
 20
-22.96408297048188
 30
0.0
 11
-188.128889040717
 21
-22.775056973091214
 31
0.0
  0
LINE
  5
100
330
17
100
AcDbEntity
  8
FoilLayer
100
AcDbLine
 10
-188.128889040717
 20
-22.775056973091214
 30
0.0
 11
-180.39033811246043
 21
-22.551251607959983
 31
0.0
  0
LINE
  5
101
330
17
100
AcDbEntity
  8
FoilLayer
100
AcDbLine
 10
-180.39033811246043
 20
-22.551251607959983
 30
0.0
 11
-172.55212613610308
 21
-22.29048633837737
 31
0.0
  0
LINE
  5
102
330
17
100
AcDbEntity
  8
FoilLayer
100
AcDbLine
 10
-172.55212613610308
 20
-22.29048633837737
 30
0.0
 11
-164.61335220957773
 21
-22.000987610703636
 31
0.0
  0
LINE
  5
103
330
17
100
AcDbEntity
  8
FoilLayer
100
AcDbLine
 10
-164.61335220957773
 20
-22.000987610703636
 30
0.0
 11
-156.59950428326255
 21
-21.695289090552066
 31
0.0
  0
LINE
  5
104
330
17
100
AcDbEntity
  8
FoilLayer
100
AcDbLine
 10
-156.59950428326255
 20
-21.695289090552066
 30
0.0
 11
-153.9106895223147
 21
-21.58945682487659
 31
0.0
  0
LINE
  5
105
330
17
100
AcDbEntity
  8
FoilLayer
100
AcDbLine
 10
-153.9106895223147
 20
-21.58945682487659
 30
0.0
 11
-153.86939329737234
 21
-22.638644425739994
 31
0.0
  0
LINE
  5
106
330
17
100
AcDbEntity
  8
FoilLayer
100
AcDbLine
 10
-153.86939329737234
 20
-22.638644425739994
 30
0.0
 11
-148.50682701612192
 21
-22.427573443766978
 31
0.0
  0
LINE
  5
107
330
17
100
AcDbEntity
  8
FoilLayer
100
AcDbLine
 10
-148.50682701612192
 20
-22.427573443766978
 30
0.0
 11
-140.4511966828309
 21
-22.09671845638354
 31
0.0
  0
LINE
  5
108
330
17
100
AcDbEntity
  8
FoilLayer
100
AcDbLine
 10
-140.4511966828309
 20
-22.09671845638354
 30
0.0
 11
-132.4009483147436
 21
-21.741792218896347
 31
0.0
  0
LINE
  5
109
330
17
100
AcDbEntity
  8
FoilLayer
100
AcDbLine
 10
-132.4009483147436
 20
-21.741792218896347
 30
0.0
 11
-124.33234269432796
 21
-21.356607627466822
 31
0.0
  0
LINE
  5
10A
330
17
100
AcDbEntity
  8
FoilLayer
100
AcDbLine
 10
-124.33234269432796
 20
-21.356607627466822
 30
0.0
 11
-116.22427040237727
 21
-20.94757396555013
 31
0.0
  0
LINE
  5
10B
330
17
100
AcDbEntity
  8
FoilLayer
100
AcDbLine
 10
-116.22427040237727
 20
-20.94757396555013
 30
0.0
 11
-108.08193001646592
 21
-20.52419816063388
 31
0.0
  0
LINE
  5
10C
330
17
100
AcDbEntity
  8
FoilLayer
100
AcDbLine
 10
-108.08193001646592
 20
-20.52419816063388
 30
0.0
 11
-99.92460683161241
 21
-20.091862967036143
 31
0.0
  0
LINE
  5
10D
330
17
100
AcDbEntity
  8
FoilLayer
100
AcDbLine
 10
-99.92460683161241
 20
-20.091862967036143
 30
0.0
 11
-91.77554337812774
 21
-19.649271880101068
 31
0.0
  0
LINE
  5
10E
330
17
100
AcDbEntity
  8
FoilLayer
100
AcDbLine
 10
-91.77554337812774
 20
-19.649271880101068
 30
0.0
 11
-83.63751820833511
 21
-19.18709184697017
 31
0.0
  0
LINE
  5
10F
330
17
100
AcDbEntity
  8
FoilLayer
100
AcDbLine
 10
-83.63751820833511
 20
-19.18709184697017
 30
0.0
 11
-75.48483062095497
 21
-18.699751336968937
 31
0.0
  0
LINE
  5
110
330
17
100
AcDbEntity
  8
FoilLayer
100
AcDbLine
 10
-75.48483062095497
 20
-18.699751336968937
 30
0.0
 11
-67.29465551293436
 21
-18.19179956560541
 31
0.0
  0
LINE
  5
111
330
17
100
AcDbEntity
  8
FoilLayer
100
AcDbLine
 10
-67.29465551293436
 20
-18.19179956560541
 30
0.0
 11
-59.06660906153792
 21
-17.67501362729145
 31
0.0
  0
LINE
  5
112
330
17
100
AcDbEntity
  8
FoilLayer
100
AcDbLine
 10
-59.06660906153792
 20
-17.67501362729145
 30
0.0
 11
-50.81994245186905
 21
-17.163152277501556
 31
0.0
  0
LINE
  5
113
330
17
100
AcDbEntity
  8
FoilLayer
100
AcDbLine
 10
-50.81994245186905
 20
-17.163152277501556
 30
0.0
 11
-42.554502449064614
 21
-16.655903006623866
 31
0.0
  0
LINE
  5
114
330
17
100
AcDbEntity
  8
FoilLayer
100
AcDbLine
 10
-42.554502449064614
 20
-16.655903006623866
 30
0.0
 11
-34.28086689773619
 21
-16.141806481518753
 31
0.0
  0
LINE
  5
115
330
17
100
AcDbEntity
  8
FoilLayer
100
AcDbLine
 10
-34.28086689773619
 20
-16.141806481518753
 30
0.0
 11
-25.98756000573934
 21
-15.617227489679056
 31
0.0
  0
LINE
  5
116
330
17
100
AcDbEntity
  8
FoilLayer
100
AcDbLine
 10
-25.98756000573934
 20
-15.617227489679056
 30
0.0
 11
-17.674287717406003
 21
-15.088235450428382
 31
0.0
  0
LINE
  5
117
330
17
100
AcDbEntity
  8
FoilLayer
100
AcDbLine
 10
-17.674287717406003
 20
-15.088235450428382
 30
0.0
 11
-9.354304259651485
 21
-14.560730583189716
 31
0.0
  0
LINE
  5
118
330
17
100
AcDbEntity
  8
FoilLayer
100
AcDbLine
 10
-9.354304259651485
 20
-14.560730583189716
 30
0.0
 11
-1.0320073479322218
 21
-14.037180281087759
 31
0.0
  0
LINE
  5
119
330
17
100
AcDbEntity
  8
FoilLayer
100
AcDbLine
 10
-1.0320073479322218
 20
-14.037180281087759
 30
0.0
 11
7.292277541324609
 21
-13.518121345014269
 31
0.0
  0
LINE
  5
11A
330
17
100
AcDbEntity
  8
FoilLayer
100
AcDbLine
 10
7.292277541324609
 20
-13.518121345014269
 30
0.0
 11
15.615805954004543
 21
-13.001455847598033
 31
0.0
  0
LINE
  5
11B
330
17
100
AcDbEntity
  8
FoilLayer
100
AcDbLine
 10
15.615805954004543
 20
-13.001455847598033
 30
0.0
 11
23.93152457455824
 21
-12.48172914448386
 31
0.0
  0
LINE
  5
11C
330
17
100
AcDbEntity
  8
FoilLayer
100
AcDbLine
 10
23.93152457455824
 20
-12.48172914448386
 30
0.0
 11
32.24605380919786
 21
-11.953900726526612
 31
0.0
  0
LINE
  5
11D
330
17
100
AcDbEntity
  8
FoilLayer
100
AcDbLine
 10
32.24605380919786
 20
-11.953900726526612
 30
0.0
 11
40.56773398486581
 21
-11.421476397141669
 31
0.0
  0
LINE
  5
11E
330
17
100
AcDbEntity
  8
FoilLayer
100
AcDbLine
 10
40.56773398486581
 20
-11.421476397141669
 30
0.0
 11
48.889015246002145
 21
-10.892033122970169
 31
0.0
  0
LINE
  5
11F
330
17
100
AcDbEntity
  8
FoilLayer
100
AcDbLine
 10
48.889015246002145
 20
-10.892033122970169
 30
0.0
 11
57.21137763093486
 21
-10.367868798154596
 31
0.0
  0
LINE
  5
120
330
17
100
AcDbEntity
  8
FoilLayer
100
AcDbLine
 10
57.21137763093486
 20
-10.367868798154596
 30
0.0
 11
65.53591779968565
 21
-9.847766365136188
 31
0.0
  0
LINE
  5
121
330
17
100
AcDbEntity
  8
FoilLayer
100
AcDbLine
 10
65.53591779968565
 20
-9.847766365136188
 30
0.0
 11
73.85837146200652
 21
-9.326712012762412
 31
0.0
  0
LINE
  5
122
330
17
100
AcDbEntity
  8
FoilLayer
100
AcDbLine
 10
73.85837146200652
 20
-9.326712012762412
 30
0.0
 11
82.17642328738361
 21
-8.800383338846979
 31
0.0
  0
LINE
  5
123
330
17
100
AcDbEntity
  8
FoilLayer
100
AcDbLine
 10
82.17642328738361
 20
-8.800383338846979
 30
0.0
 11
90.49542012889066
 21
-8.268330473596695
 31
0.0
  0
LINE
  5
124
330
17
100
AcDbEntity
  8
FoilLayer
100
AcDbLine
 10
90.49542012889066
 20
-8.268330473596695
 30
0.0
 11
98.81345471106596
 21
-7.733535013184764
 31
0.0
  0
LINE
  5
125
330
17
100
AcDbEntity
  8
FoilLayer
100
AcDbLine
 10
98.81345471106596
 20
-7.733535013184764
 30
0.0
 11
107.12336312162552
 21
-7.201450614130685
 31
0.0
  0
LINE
  5
126
330
17
100
AcDbEntity
  8
FoilLayer
100
AcDbLine
 10
107.12336312162552
 20
-7.201450614130685
 30
0.0
 11
115.42307647019192
 21
-6.676394013120931
 31
0.0
  0
LINE
  5
127
330
17
100
AcDbEntity
  8
FoilLayer
100
AcDbLine
 10
115.42307647019192
 20
-6.676394013120931
 30
0.0
 11
123.71670214254624
 21
-6.1597790100793395
 31
0.0
  0
LINE
  5
128
330
17
100
AcDbEntity
  8
FoilLayer
100
AcDbLine
 10
123.71670214254624
 20
-6.1597790100793395
 30
0.0
 11
132.0088995600408
 21
-5.650907555888568
 31
0.0
  0
LINE
  5
129
330
17
100
AcDbEntity
  8
FoilLayer
100
AcDbLine
 10
132.0088995600408
 20
-5.650907555888568
 30
0.0
 11
140.29959933181368
 21
-5.147750978097158
 31
0.0
  0
LINE
  5
12A
330
17
100
AcDbEntity
  8
FoilLayer
100
AcDbLine
 10
140.29959933181368
 20
-5.147750978097158
 30
0.0
 11
148.58207171953148
 21
-4.6506533731397415
 31
0.0
  0
LINE
  5
12B
330
17
100
AcDbEntity
  8
FoilLayer
100
AcDbLine
 10
148.58207171953148
 20
-4.6506533731397415
 30
0.0
 11
156.85347082916132
 21
-4.162073524555405
 31
0.0
  0
LINE
  5
12C
330
17
100
AcDbEntity
  8
FoilLayer
100
AcDbLine
 10
156.85347082916132
 20
-4.162073524555405
 30
0.0
 11
165.11752115121902
 21
-3.6850923213828413
 31
0.0
  0
LINE
  5
12D
330
17
100
AcDbEntity
  8
FoilLayer
100
AcDbLine
 10
165.11752115121902
 20
-3.6850923213828413
 30
0.0
 11
173.38605047617472
 21
-3.2213094448403288
 31
0.0
  0
LINE
  5
12E
330
17
100
AcDbEntity
  8
FoilLayer
100
AcDbLine
 10
173.38605047617472
 20
-3.2213094448403288
 30
0.0
 11
181.67364450755707
 21
-2.7666022038801397
 31
0.0
  0
LINE
  5
12F
330
17
100
AcDbEntity
  8
FoilLayer
100
AcDbLine
 10
181.67364450755707
 20
-2.7666022038801397
 30
0.0
 11
189.97814474577422
 21
-2.3143743543923847
 31
0.0
  0
LINE
  5
130
330
17
100
AcDbEntity
  8
FoilLayer
100
AcDbLine
 10
189.97814474577422
 20
-2.3143743543923847
 30
0.0
 11
198.28597325169608
 21
-1.859343679062076
 31
0.0
  0
LINE
  5
131
330
17
100
AcDbEntity
  8
FoilLayer
100
AcDbLine
 10
198.28597325169608
 20
-1.859343679062076
 30
0.0
 11
206.59630591703433
 21
-1.3980590418452779
 31
0.0
  0
LINE
  5
132
330
17
100
AcDbEntity
  8
FoilLayer
100
AcDbLine
 10
206.59630591703433
 20
-1.3980590418452779
 30
0.0
 11
214.90782272803335
 21
-0.9346426361549373
 31
0.0
  0
LINE
  5
133
330
17
100
AcDbEntity
  8
FoilLayer
100
AcDbLine
 10
214.90782272803335
 20
-0.9346426361549373
 30
0.0
 11
223.21218517408363
 21
-0.4768452290553445
 31
0.0
  0
LINE
  5
134
330
17
100
AcDbEntity
  8
FoilLayer
100
AcDbLine
 10
223.21218517408363
 20
-0.4768452290553445
 30
0.0
 11
231.51394214678078
 21
-0.027051483915677466
 31
0.0
  0
LINE
  5
135
330
17
100
AcDbEntity
  8
FoilLayer
100
AcDbLine
 10
231.51394214678078
 20
-0.027051483915677466
 30
0.0
 11
239.81800074140938
 21
0.41604263716157674
 31
0.0
  0
LINE
  5
136
330
17
100
AcDbEntity
  8
FoilLayer
100
AcDbLine
 10
239.81800074140938
 20
0.41604263716157674
 30
0.0
 11
248.1198328561277
 21
0.8584177822934226
 31
0.0
  0
LINE
  5
137
330
17
100
AcDbEntity
  8
FoilLayer
100
AcDbLine
 10
248.1198328561277
 20
0.8584177822934226
 30
0.0
 11
256.4108992239612
 21
1.3050295594500534
 31
0.0
  0
LINE
  5
138
330
17
100
AcDbEntity
  8
FoilLayer
100
AcDbLine
 10
256.4108992239612
 20
1.3050295594500534
 30
0.0
 11
264.68748076956444
 21
1.7499075037786125
 31
0.0
  0
LINE
  5
139
330
17
100
AcDbEntity
  8
FoilLayer
100
AcDbLine
 10
264.68748076956444
 20
1.7499075037786125
 30
0.0
 11
272.941982739536
 21
2.1841599692570663
 31
0.0
  0
LINE
  5
13A
330
17
100
AcDbEntity
  8
FoilLayer
100
AcDbLine
 10
272.941982739536
 20
2.1841599692570663
 30
0.0
 11
281.1841922511802
 21
2.6037300743079417
 31
0.0
  0
LINE
  5
13B
330
17
100
AcDbEntity
  8
FoilLayer
100
AcDbLine
 10
281.1841922511802
 20
2.6037300743079417
 30
0.0
 11
289.429339643773
 21
3.0091251953082705
 31
0.0
  0
LINE
  5
13C
330
17
100
AcDbEntity
  8
FoilLayer
100
AcDbLine
 10
289.429339643773
 20
3.0091251953082705
 30
0.0
 11
297.682648376197
 21
3.408000965988961
 31
0.0
  0
LINE
  5
13D
330
17
100
AcDbEntity
  8
FoilLayer
100
AcDbLine
 10
297.682648376197
 20
3.408000965988961
 30
0.0
 11
305.92397808314377
 21
3.8045061314135684
 31
0.0
  0
LINE
  5
13E
330
17
100
AcDbEntity
  8
FoilLayer
100
AcDbLine
 10
305.92397808314377
 20
3.8045061314135684
 30
0.0
 11
314.127122025463
 21
4.196195097778866
 31
0.0
  0
LINE
  5
13F
330
17
100
AcDbEntity
  8
FoilLayer
100
AcDbLine
 10
314.127122025463
 20
4.196195097778866
 30
0.0
 11
322.27221036905735
 21
4.57472592001389
 31
0.0
  0
LINE
  5
140
330
17
100
AcDbEntity
  8
FoilLayer
100
AcDbLine
 10
322.27221036905735
 20
4.57472592001389
 30
0.0
 11
330.36066024233696
 21
4.9282037822110265
 31
0.0
  0
LINE
  5
141
330
17
100
AcDbEntity
  8
FoilLayer
100
AcDbLine
 10
330.36066024233696
 20
4.9282037822110265
 30
0.0
 11
338.41722773853473
 21
5.2551891231205365
 31
0.0
  0
LINE
  5
142
330
17
100
AcDbEntity
  8
FoilLayer
100
AcDbLine
 10
338.41722773853473
 20
5.2551891231205365
 30
0.0
 11
346.43817379207314
 21
5.567761153940571
 31
0.0
  0
LINE
  5
143
330
17
100
AcDbEntity
  8
FoilLayer
100
AcDbLine
 10
346.43817379207314
 20
5.567761153940571
 30
0.0
 11
354.3818907334909
 21
5.861648488567899
 31
0.0
  0
LINE
  5
144
330
17
100
AcDbEntity
  8
FoilLayer
100
AcDbLine
 10
354.3818907334909
 20
5.861648488567899
 30
0.0
 11
362.24513773351316
 21
6.114658243031904
 31
0.0
  0
LINE
  5
145
330
17
100
AcDbEntity
  8
FoilLayer
100
AcDbLine
 10
362.24513773351316
 20
6.114658243031904
 30
0.0
 11
370.0682575409686
 21
6.3199922288578225
 31
0.0
  0
LINE
  5
146
330
17
100
AcDbEntity
  8
FoilLayer
100
AcDbLine
 10
370.0682575409686
 20
6.3199922288578225
 30
0.0
 11
377.8771367230561
 21
6.486965932063546
 31
0.0
  0
LINE
  5
147
330
17
100
AcDbEntity
  8
FoilLayer
100
AcDbLine
 10
377.8771367230561
 20
6.486965932063546
 30
0.0
 11
385.6563025251297
 21
6.633689423968279
 31
0.0
  0
LINE
  5
148
330
17
100
AcDbEntity
  8
FoilLayer
100
AcDbLine
 10
385.6563025251297
 20
6.633689423968279
 30
0.0
 11
393.36714805571273
 21
6.785271275822208
 31
0.0
  0
LINE
  5
149
330
17
100
AcDbEntity
  8
FoilLayer
100
AcDbLine
 10
393.36714805571273
 20
6.785271275822208
 30
0.0
 11
400.9337894033565
 21
6.919489936557394
 31
0.0
  0
LINE
  5
14A
330
17
100
AcDbEntity
  8
FoilLayer
100
AcDbLine
 10
400.9337894033565
 20
6.919489936557394
 30
0.0
 11
408.35416770776646
 21
6.9705745364617
 31
0.0
  0
LINE
  5
14B
330
17
100
AcDbEntity
  8
FoilLayer
100
AcDbLine
 10
408.35416770776646
 20
6.9705745364617
 30
0.0
 11
415.75308027075755
 21
6.936462745031985
 31
0.0
  0
LINE
  5
14C
330
17
100
AcDbEntity
  8
FoilLayer
100
AcDbLine
 10
415.75308027075755
 20
6.936462745031985
 30
0.0
 11
423.1541756009642
 21
6.899893648598341
 31
0.0
  0
LINE
  5
14D
330
17
100
AcDbEntity
  8
FoilLayer
100
AcDbLine
 10
423.1541756009642
 20
6.899893648598341
 30
0.0
 11
430.4805582960038
 21
6.8786805605547165
 31
0.0
  0
LINE
  5
14E
330
17
100
AcDbEntity
  8
FoilLayer
100
AcDbLine
 10
430.4805582960038
 20
6.8786805605547165
 30
0.0
 11
437.7088539514359
 21
6.798852368446227
 31
0.0
  0
LINE
  5
14F
330
17
100
AcDbEntity
  8
FoilLayer
100
AcDbLine
 10
437.7088539514359
 20
6.798852368446227
 30
0.0
 11
444.9071776134242
 21
6.6349803632797855
 31
0.0
  0
LINE
  5
150
330
17
100
AcDbEntity
  8
FoilLayer
100
AcDbLine
 10
444.9071776134242
 20
6.6349803632797855
 30
0.0
 11
452.0871728391339
 21
6.47282179375815
 31
0.0
  0
LINE
  5
151
330
17
100
AcDbEntity
  8
FoilLayer
100
AcDbLine
 10
452.0871728391339
 20
6.47282179375815
 30
0.0
 11
459.19170018467776
 21
6.347644656699949
 31
0.0
  0
LINE
  5
152
330
17
100
AcDbEntity
  8
FoilLayer
100
AcDbLine
 10
459.19170018467776
 20
6.347644656699949
 30
0.0
 11
466.1976071215008
 21
6.170488153281267
 31
0.0
  0
LINE
  5
153
330
17
100
AcDbEntity
  8
FoilLayer
100
AcDbLine
 10
466.1976071215008
 20
6.170488153281267
 30
0.0
 11
473.1737294624195
 21
5.870701136630449
 31
0.0
  0
LINE
  5
154
330
17
100
AcDbEntity
  8
FoilLayer
100
AcDbLine
 10
473.1737294624195
 20
5.870701136630449
 30
0.0
 11
480.19762857963804
 21
5.511571923302338
 31
0.0
  0
LINE
  5
155
330
17
100
AcDbEntity
  8
FoilLayer
100
AcDbLine
 10
480.19762857963804
 20
5.511571923302338
 30
0.0
 11
487.1853319282386
 21
5.155572282091239
 31
0.0
  0
LINE
  5
156
330
17
100
AcDbEntity
  8
FoilLayer
100
AcDbLine
 10
487.1853319282386
 20
5.155572282091239
 30
0.0
 11
493.99596280159597
 21
4.774624870838589
 31
0.0
  0
LINE
  5
157
330
17
100
AcDbEntity
  8
FoilLayer
100
AcDbLine
 10
493.99596280159597
 20
4.774624870838589
 30
0.0
 11
500.67034743206705
 21
4.260622266717726
 31
0.0
  0
LINE
  5
158
330
17
100
AcDbEntity
  8
FoilLayer
100
AcDbLine
 10
500.67034743206705
 20
4.260622266717726
 30
0.0
 11
507.31174188437785
 21
3.6764646182472354
 31
0.0
  0
LINE
  5
159
330
17
100
AcDbEntity
  8
FoilLayer
100
AcDbLine
 10
507.31174188437785
 20
3.6764646182472354
 30
0.0
 11
513.8296980231671
 21
3.066784839184921
 31
0.0
  0
LINE
  5
15A
330
17
100
AcDbEntity
  8
FoilLayer
100
AcDbLine
 10
513.8296980231671
 20
3.066784839184921
 30
0.0
 11
520.1323633874543
 21
2.4657963630414916
 31
0.0
  0
LINE
  5
15B
330
17
100
AcDbEntity
  8
FoilLayer
100
AcDbLine
 10
520.1323633874543
 20
2.4657963630414916
 30
0.0
 11
526.1322425006136
 21
1.8457221934086365
 31
0.0
  0
LINE
  5
15C
330
17
100
AcDbEntity
  8
FoilLayer
100
AcDbLine
 10
526.1322425006136
 20
1.8457221934086365
 30
0.0
 11
531.8096804890747
 21
1.215833426823467
 31
0.0
  0
LINE
  5
15D
330
17
100
AcDbEntity
  8
FoilLayer
100
AcDbLine
 10
531.8096804890747
 20
1.215833426823467
 30
0.0
 11
537.1356814368166
 21
0.6274682158710454
 31
0.0
  0
LINE
  5
15E
330
17
100
AcDbEntity
  8
FoilLayer
100
AcDbLine
 10
537.1356814368166
 20
0.6274682158710454
 30
0.0
 11
542.0862103362924
 21
0.050863737341158954
 31
0.0
  0
LINE
  5
15F
330
17
100
AcDbEntity
  8
FoilLayer
100
AcDbLine
 10
542.0862103362924
 20
0.050863737341158954
 30
0.0
 11
546.6471826325541
 21
-0.5006799896130707
 31
0.0
  0
LINE
  5
160
330
17
100
AcDbEntity
  8
FoilLayer
100
AcDbLine
 10
546.6471826325541
 20
-0.5006799896130707
 30
0.0
 11
549.4678525468149
 21
-0.8712423786110096
 31
0.0
  0
LINE
  5
161
330
17
100
AcDbEntity
  8
FoilLayer
100
AcDbLine
 10
549.4678525468149
 20
-0.8712423786110096
 30
0.0
 11
549.3331731624396
 21
0.8907572610753922
 31
0.0
  0
LINE
  5
162
330
17
100
AcDbEntity
  8
StringerLayer
100
AcDbLine
 10
238.6745566275921
 20
79.33308035324748
 30
0.0
 11
242.58838469848763
 21
78.5072778154275
 31
0.0
  0
LINE
  5
163
330
17
100
AcDbEntity
  8
StringerLayer
100
AcDbLine
 10
242.58838469848763
 20
78.5072778154275
 30
0.0
 11
243.4141872363076
 21
82.42110588632306
 31
0.0
  0
LINE
  5
164
330
17
100
AcDbEntity
  8
StringerLayer
100
AcDbLine
 10
243.4141872363076
 20
82.42110588632306
 30
0.0
 11
239.50035916541208
 21
83.24690842414304
 31
0.0
  0
LINE
  5
165
330
17
100
AcDbEntity
  8
StringerLayer
100
AcDbLine
 10
239.50035916541208
 20
83.24690842414304
 30
0.0
 11
238.6745566275921
 21
79.33308035324748
 31
0.0
  0
LINE
  5
166
330
17
100
AcDbEntity
  8
StringerLayer
100
AcDbLine
 10
-93.71113347132354
 20
96.97210937840977
 30
0.0
 11
-89.73408997200815
 21
97.40004045294553
 31
0.0
  0
LINE
  5
167
330
17
100
AcDbEntity
  8
StringerLayer
100
AcDbLine
 10
-89.73408997200815
 20
97.40004045294553
 30
0.0
 11
-90.1620210465439
 21
101.3770839522609
 31
0.0
  0
LINE
  5
168
330
17
100
AcDbEntity
  8
StringerLayer
100
AcDbLine
 10
-90.1620210465439
 20
101.3770839522609
 30
0.0
 11
-94.13906454585928
 21
100.94915287772514
 31
0.0
  0
LINE
  5
169
330
17
100
AcDbEntity
  8
StringerLayer
100
AcDbLine
 10
-94.13906454585928
 20
100.94915287772514
 30
0.0
 11
-93.71113347132354
 21
96.97210937840977
 31
0.0
  0
LINE
  5
16A
330
17
100
AcDbEntity
  8
StringerLayer
100
AcDbLine
 10
-241.6237400596279
 20
62.94370193542585
 30
0.0
 11
-237.8991423268323
 21
64.40225317856198
 31
0.0
  0
LINE
  5
16B
330
17
100
AcDbEntity
  8
StringerLayer
100
AcDbLine
 10
-237.8991423268323
 20
64.40225317856198
 30
0.0
 11
-239.35769356996843
 21
68.12685091135756
 31
0.0
  0
LINE
  5
16C
330
17
100
AcDbEntity
  8
StringerLayer
100
AcDbLine
 10
-239.35769356996843
 20
68.12685091135756
 30
0.0
 11
-243.08229130276402
 21
66.66829966822144
 31
0.0
  0
LINE
  5
16D
330
17
100
AcDbEntity
  8
StringerLayer
100
AcDbLine
 10
-243.08229130276402
 20
66.66829966822144
 30
0.0
 11
-241.6237400596279
 21
62.94370193542585
 31
0.0
  0
LINE
  5
16E
330
17
100
AcDbEntity
  8
StringerLayer
100
AcDbLine
 10
-313.189413483169
 20
19.712645733109746
 30
0.0
 11
-311.81408736364324
 21
21.16470567159378
 31
0.0
  0
LINE
  5
16F
330
17
100
AcDbEntity
  8
StringerLayer
100
AcDbLine
 10
-311.81408736364324
 20
21.16470567159378
 30
0.0
 11
-314.7182072406113
 21
23.91535791064527
 31
0.0
  0
LINE
  5
170
330
17
100
AcDbEntity
  8
StringerLayer
100
AcDbLine
 10
-314.7182072406113
 20
23.91535791064527
 30
0.0
 11
-316.0935333601371
 21
22.463297972161236
 31
0.0
  0
LINE
  5
171
330
17
100
AcDbEntity
  8
StringerLayer
100
AcDbLine
 10
-316.0935333601371
 20
22.463297972161236
 30
0.0
 11
-313.189413483169
 21
19.712645733109746
 31
0.0
  0
LINE
  5
172
330
17
100
AcDbEntity
  8
StringerLayer
100
AcDbLine
 10
-317.320897000686
 20
-8.387330787121194
 30
0.0
 11
-319.0636448844909
 21
-7.406091869480053
 31
0.0
  0
LINE
  5
173
330
17
100
AcDbEntity
  8
StringerLayer
100
AcDbLine
 10
-319.0636448844909
 20
-7.406091869480053
 30
0.0
 11
-321.0261227197732
 21
-10.891587637089845
 31
0.0
  0
LINE
  5
174
330
17
100
AcDbEntity
  8
StringerLayer
100
AcDbLine
 10
-321.0261227197732
 20
-10.891587637089845
 30
0.0
 11
-319.2833748359683
 21
-11.872826554730985
 31
0.0
  0
LINE
  5
175
330
17
100
AcDbEntity
  8
StringerLayer
100
AcDbLine
 10
-319.2833748359683
 20
-11.872826554730985
 30
0.0
 11
-317.320897000686
 21
-8.387330787121194
 31
0.0
  0
LINE
  5
176
330
17
100
AcDbEntity
  8
StringerLayer
100
AcDbLine
 10
-195.92065860301958
 20
-18.966417759701095
 30
0.0
 11
-199.9198449396587
 21
-19.047093932385373
 31
0.0
  0
LINE
  5
177
330
17
100
AcDbEntity
  8
StringerLayer
100
AcDbLine
 10
-199.9198449396587
 20
-19.047093932385373
 30
0.0
 11
-199.8391687669744
 21
-23.046280269024493
 31
0.0
  0
LINE
  5
178
330
17
100
AcDbEntity
  8
StringerLayer
100
AcDbLine
 10
-199.8391687669744
 20
-23.046280269024493
 30
0.0
 11
-195.83998243033528
 21
-22.965604096340215
 31
0.0
  0
LINE
  5
179
330
17
100
AcDbEntity
  8
StringerLayer
100
AcDbLine
 10
-195.83998243033528
 20
-22.965604096340215
 30
0.0
 11
-195.92065860301958
 21
-18.966417759701095
 31
0.0
  0
LINE
  5
17A
330
17
100
AcDbEntity
  8
SubLayer
100
AcDbLine
 10
-329.6822033898304
 20
0.0
 30
0.0
 11
-325.6822033898304
 21
0.0
 31
0.0
  0
LINE
  5
17B
330
17
100
AcDbEntity
  8
SubLayer
100
AcDbLine
 10
63.93644067796612
 20
0.0
 30
0.0
 11
76.7279661016949
 21
0.0
 31
0.0
  0
LINE
  5
17C
330
17
100
AcDbEntity
  8
SubLayer
100
AcDbLine
 10
-47.67370293034815
 20
43.12242481522611
 30
0.0
 11
-39.69728091253279
 21
43.73617704024066
 31
0.0
  0
LINE
  5
17D
330
17
100
AcDbEntity
  8
SubLayer
100
AcDbLine
 10
39.69728091253279
 20
49.845255630284385
 30
0.0
 11
47.67370293034815
 21
50.459007855298935
 31
0.0
  0
LINE
  5
17E
330
17
100
AcDbEntity
  8
SubLayer
100
AcDbLine
 10
-3.4678314526678693
 20
91.85920818875749
 30
0.0
 11
-2.8540792276533202
 21
83.88278617094214
 31
0.0
  0
LINE
  5
17F
330
17
100
AcDbEntity
  8
SubLayer
100
AcDbLine
 10
3.4678314526678693
 20
1.7222244817675474
 30
0.0
 11
2.8540792276533202
 21
9.698646499582907
 31
0.0
  0
LINE
  5
180
330
17
100
AcDbEntity
  8
SubLayer
100
AcDbLine
 10
-45.52615936964067
 20
41.28175736702591
 30
0.0
 11
-41.537948360733
 21
41.588633479533186
 31
0.0
  0
LINE
  5
181
330
17
100
AcDbEntity
  8
SubLayer
100
AcDbLine
 10
-41.537948360733
 20
41.588633479533186
 30
0.0
 11
-41.84482447324027
 21
45.57684448844086
 31
0.0
  0
LINE
  5
182
330
17
100
AcDbEntity
  8
SubLayer
100
AcDbLine
 10
-41.84482447324027
 20
45.57684448844086
 30
0.0
 11
-45.83303548214795
 21
45.26996837593359
 31
0.0
  0
LINE
  5
183
330
17
100
AcDbEntity
  8
SubLayer
100
AcDbLine
 10
-45.83303548214795
 20
45.26996837593359
 30
0.0
 11
-45.52615936964067
 21
41.28175736702591
 31
0.0
  0
LINE
  5
184
330
17
100
AcDbEntity
  8
SubLayer
100
AcDbLine
 10
41.84482447324027
 20
48.004588182084184
 30
0.0
 11
45.83303548214795
 21
48.31146429459146
 31
0.0
  0
LINE
  5
185
330
17
100
AcDbEntity
  8
SubLayer
100
AcDbLine
 10
45.83303548214795
 20
48.31146429459146
 30
0.0
 11
45.52615936964067
 21
52.299675303499136
 31
0.0
  0
LINE
  5
186
330
17
100
AcDbEntity
  8
SubLayer
100
AcDbLine
 10
45.52615936964067
 20
52.299675303499136
 30
0.0
 11
41.537948360733
 21
51.99279919099186
 31
0.0
  0
LINE
  5
187
330
17
100
AcDbEntity
  8
SubLayer
100
AcDbLine
 10
41.537948360733
 20
51.99279919099186
 30
0.0
 11
41.84482447324027
 21
48.004588182084184
 31
0.0
  0
LINE
  5
188
330
17
100
AcDbEntity
  8
SubLayer
100
AcDbLine
 10
-5.001622788360797
 20
85.72345361914233
 30
0.0
 11
-1.0134117794531168
 21
86.0303297316496
 31
0.0
  0
LINE
  5
189
330
17
100
AcDbEntity
  8
SubLayer
100
AcDbLine
 10
-1.0134117794531168
 20
86.0303297316496
 30
0.0
 11
-1.3202878919603915
 21
90.01854074055728
 31
0.0
  0
LINE
  5
18A
330
17
100
AcDbEntity
  8
SubLayer
100
AcDbLine
 10
-1.3202878919603915
 20
90.01854074055728
 30
0.0
 11
-5.308498900868072
 21
89.71166462805002
 31
0.0
  0
LINE
  5
18B
330
17
100
AcDbEntity
  8
SubLayer
100
AcDbLine
 10
-5.308498900868072
 20
89.71166462805002
 30
0.0
 11
-5.001622788360797
 21
85.72345361914233
 31
0.0
  0
LINE
  5
18C
330
17
100
AcDbEntity
  8
SubLayer
100
AcDbLine
 10
1.3202878919603915
 20
3.562891929967749
 30
0.0
 11
5.308498900868072
 21
3.869768042475024
 31
0.0
  0
LINE
  5
18D
330
17
100
AcDbEntity
  8
SubLayer
100
AcDbLine
 10
5.308498900868072
 20
3.869768042475024
 30
0.0
 11
5.001622788360797
 21
7.857979051382705
 31
0.0
  0
LINE
  5
18E
330
17
100
AcDbEntity
  8
SubLayer
100
AcDbLine
 10
5.001622788360797
 20
7.857979051382705
 30
0.0
 11
1.0134117794531168
 21
7.55110293887543
 31
0.0
  0
LINE
  5
18F
330
17
100
AcDbEntity
  8
SubLayer
100
AcDbLine
 10
1.0134117794531168
 20
7.55110293887543
 30
0.0
 11
1.3202878919603915
 21
3.562891929967749
 31
0.0
  0
LINE
  5
190
330
17
100
AcDbEntity
  8
SubLayer
100
AcDbLine
 10
372.45714662540183
 20
50.963963861714106
 30
0.0
 11
376.4453576343095
 21
51.270839974221374
 31
0.0
  0
LINE
  5
191
330
17
100
AcDbEntity
  8
SubLayer
100
AcDbLine
 10
-329.8518024650862
 20
-3.0757646267208503
 30
0.0
 11
-325.86359145617854
 21
-2.7688885142135757
 31
0.0
  0
LINE
  5
192
330
17
100
AcDbEntity
  8
SubLayer
100
AcDbLine
 10
-190.38706539921554
 20
7.655462042839322
 30
0.0
 11
-184.40474888585402
 21
8.115776211600235
 31
0.0
  0
LINE
  5
193
330
17
100
AcDbEntity
  8
SubLayer
100
AcDbLine
 10
230.99830405507728
 20
40.07929913590029
 30
0.0
 11
236.9806205684388
 21
40.53961330466121
 31
0.0
  0
LINE
  5
194
330
17
100
AcDbEntity
  8
SubLayer
100
AcDbLine
 10
20.305619327930884
 20
23.86738058936981
 30
0.0
 11
26.28793584129241
 21
24.32769475813072
 31
0.0
  0
LINE
  5
195
330
17
100
AcDbEntity
  8
SubLayer
100
AcDbLine
 10
-185.2483635818273
 20
6.044951679019575
 30
0.0
 11
-185.55523969433457
 21
10.033162687927256
 31
0.0
  0
LINE
  5
196
330
17
100
AcDbEntity
  8
SubLayer
100
AcDbLine
 10
-185.55523969433457
 20
10.033162687927256
 30
0.0
 11
-189.54345070324226
 21
9.72628657541998
 31
0.0
  0
LINE
  5
197
330
17
100
AcDbEntity
  8
SubLayer
100
AcDbLine
 10
-189.54345070324226
 20
9.72628657541998
 30
0.0
 11
-189.236574590735
 21
5.7380755665123
 31
0.0
  0
LINE
  5
198
330
17
100
AcDbEntity
  8
SubLayer
100
AcDbLine
 10
-189.236574590735
 20
5.7380755665123
 30
0.0
 11
-185.2483635818273
 21
6.044951679019575
 31
0.0
  0
LINE
  5
199
330
17
100
AcDbEntity
  8
SubLayer
100
AcDbLine
 10
236.13700587246552
 20
38.46878877208055
 30
0.0
 11
235.83012975995825
 21
42.45699978098823
 31
0.0
  0
LINE
  5
19A
330
17
100
AcDbEntity
  8
SubLayer
100
AcDbLine
 10
235.83012975995825
 20
42.45699978098823
 30
0.0
 11
231.84191875105057
 21
42.15012366848095
 31
0.0
  0
LINE
  5
19B
330
17
100
AcDbEntity
  8
SubLayer
100
AcDbLine
 10
231.84191875105057
 20
42.15012366848095
 30
0.0
 11
232.14879486355784
 21
38.161912659573275
 31
0.0
  0
LINE
  5
19C
330
17
100
AcDbEntity
  8
SubLayer
100
AcDbLine
 10
232.14879486355784
 20
38.161912659573275
 30
0.0
 11
236.13700587246552
 21
38.46878877208055
 31
0.0
  0
LINE
  5
19D
330
17
100
AcDbEntity
  8
SubLayer
100
AcDbLine
 10
25.444321145319126
 20
22.25687022555006
 30
0.0
 11
25.13744503281185
 21
26.245081234457743
 31
0.0
  0
LINE
  5
19E
330
17
100
AcDbEntity
  8
SubLayer
100
AcDbLine
 10
25.13744503281185
 20
26.245081234457743
 30
0.0
 11
21.149234023904167
 21
25.938205121950467
 31
0.0
  0
LINE
  5
19F
330
17
100
AcDbEntity
  8
SubLayer
100
AcDbLine
 10
21.149234023904167
 20
25.938205121950467
 30
0.0
 11
21.456110136411443
 21
21.949994113042784
 31
0.0
  0
LINE
  5
1A0
330
17
100
AcDbEntity
  8
SubLayer
100
AcDbLine
 10
21.456110136411443
 20
21.949994113042784
 30
0.0
 11
25.444321145319126
 21
22.25687022555006
 31
0.0
  0
LINE
  5
1A1
330
17
100
AcDbEntity
  8
SubLayer
100
AcDbLine
 10
530.4335298619222
 20
6.1507878686202675
 30
0.0
 11
530.764666158106
 21
7.094370802627483
 31
0.0
  0
LINE
  5
1A2
330
17
100
AcDbEntity
  8
SubLayer
100
AcDbLine
 10
529.4879116963822
 20
0.9706999941735992
 30
0.0
 11
529.5613800844498
 21
1.9679975405231023
 31
0.0
  0
LINE
  5
1A3
330
17
100
AcDbEntity
  8
SubLayer
100
AcDbLine
 10
511.2581814193551
 20
11.835264011233399
 30
0.0
 11
511.5659569821745
 21
12.786722997701638
 31
0.0
  0
LINE
  5
1A4
330
17
100
AcDbEntity
  8
SubLayer
100
AcDbLine
 10
509.5770596451044
 20
2.9623987051279648
 30
0.0
 11
509.6635727590031
 21
3.958649417109416
 31
0.0
  0
LINE
  5
1A5
330
17
100
AcDbEntity
  8
SubLayer
100
AcDbLine
 10
472.8612382897089
 20
23.04984246066222
 30
0.0
 11
473.1553349289402
 21
24.005618149196337
 31
0.0
  0
LINE
  5
1A6
330
17
100
AcDbEntity
  8
SubLayer
100
AcDbLine
 10
469.6596248902624
 20
5.521514616687366
 30
0.0
 11
469.73487617694093
 21
6.518679218873597
 31
0.0
  0
LINE
  5
1A7
330
17
100
AcDbEntity
  8
SubLayer
100
AcDbLine
 10
-154.1722344562675
 20
95.25132346717021
 30
0.0
 11
-153.86535834376022
 21
91.26311245826253
 31
0.0
  0
LINE
  5
1A8
330
17
100
AcDbEntity
  8
SubLayer
100
AcDbLine
 10
-145.24690725076562
 20
-20.74365551068024
 30
0.0
 11
-144.94003113825835
 21
-24.731866519587925
 31
0.0
  0
LINE
  5
1A9
330
17
100
AcDbEntity
  8
SubLayer
100
AcDbLine
 10
-147.10869171999283
 20
3.4523930371167655
 30
0.0
 11
-146.6483775512319
 21
-2.5299234762447558
 31
0.0
  0
LINE
  5
1AA
330
17
100
AcDbEntity
  8
SubLayer
100
AcDbLine
 10
-152.46388804329396
 20
73.04938042382705
 30
0.0
 11
-152.00357387453303
 21
67.06706391046552
 31
0.0
  0
LINE
  5
1AB
330
17
100
AcDbEntity
  8
SubLayer
100
AcDbLine
 10
-149.7862898816434
 20
38.250886730471905
 30
0.0
 11
-149.32597571288247
 21
32.26857021711038
 31
0.0
  0
LINE
  5
1AC
330
17
100
AcDbEntity
  8
SubLayer
100
AcDbLine
 10
-148.71920208381258
 20
-1.6863087802714731
 30
0.0
 11
-144.7309910749049
 21
-1.3794326677641984
 31
0.0
  0
LINE
  5
1AD
330
17
100
AcDbEntity
  8
SubLayer
100
AcDbLine
 10
-144.7309910749049
 20
-1.3794326677641984
 30
0.0
 11
-145.03786718741216
 21
2.608778341143483
 31
0.0
  0
LINE
  5
1AE
330
17
100
AcDbEntity
  8
SubLayer
100
AcDbLine
 10
-145.03786718741216
 20
2.608778341143483
 30
0.0
 11
-149.02607819631984
 21
2.301902228636208
 31
0.0
  0
LINE
  5
1AF
330
17
100
AcDbEntity
  8
SubLayer
100
AcDbLine
 10
-149.02607819631984
 20
2.301902228636208
 30
0.0
 11
-148.71920208381258
 21
-1.6863087802714731
 31
0.0
  0
LINE
  5
1B0
330
17
100
AcDbEntity
  8
SubLayer
100
AcDbLine
 10
-154.0743984071137
 20
67.91067860643881
 30
0.0
 11
-150.08618739820602
 21
68.21755471894608
 31
0.0
  0
LINE
  5
1B1
330
17
100
AcDbEntity
  8
SubLayer
100
AcDbLine
 10
-150.08618739820602
 20
68.21755471894608
 30
0.0
 11
-150.3930635107133
 21
72.20576572785376
 31
0.0
  0
LINE
  5
1B2
330
17
100
AcDbEntity
  8
SubLayer
100
AcDbLine
 10
-150.3930635107133
 20
72.20576572785376
 30
0.0
 11
-154.38127451962097
 21
71.89888961534649
 31
0.0
  0
LINE
  5
1B3
330
17
100
AcDbEntity
  8
SubLayer
100
AcDbLine
 10
-154.38127451962097
 20
71.89888961534649
 30
0.0
 11
-154.0743984071137
 21
67.91067860643881
 31
0.0
  0
LINE
  5
1B4
330
17
100
AcDbEntity
  8
SubLayer
100
AcDbLine
 10
-151.39680024546314
 20
33.11218491308367
 30
0.0
 11
-147.40858923655546
 21
33.41906102559094
 31
0.0
  0
LINE
  5
1B5
330
17
100
AcDbEntity
  8
SubLayer
100
AcDbLine
 10
-147.40858923655546
 20
33.41906102559094
 30
0.0
 11
-147.71546534906273
 21
37.40727203449862
 31
0.0
  0
LINE
  5
1B6
330
17
100
AcDbEntity
  8
SubLayer
100
AcDbLine
 10
-147.71546534906273
 20
37.40727203449862
 30
0.0
 11
-151.7036763579704
 21
37.10039592199134
 31
0.0
  0
LINE
  5
1B7
330
17
100
AcDbEntity
  8
SubLayer
100
AcDbLine
 10
-151.7036763579704
 20
37.10039592199134
 30
0.0
 11
-151.39680024546314
 21
33.11218491308367
 31
0.0
  0
LINE
  5
1B8
330
17
100
AcDbEntity
  8
SubLayer
100
AcDbLine
 10
95.67670008997197
 20
106.81862549609252
 30
0.0
 11
95.98357620247924
 21
102.83041448718484
 31
0.0
  0
LINE
  5
1B9
330
17
100
AcDbEntity
  8
SubLayer
100
AcDbLine
 10
104.34426150640358
 20
-5.826388085981422
 30
0.0
 11
104.65113761891085
 21
-9.814599094889102
 31
0.0
  0
LINE
  5
1BA
330
17
100
AcDbEntity
  8
SubLayer
100
AcDbLine
 10
102.53403019499045
 20
17.699667382660287
 30
0.0
 11
102.99434436375135
 21
11.717350869298768
 31
0.0
  0
LINE
  5
1BB
330
17
100
AcDbEntity
  8
SubLayer
100
AcDbLine
 10
97.33349334513149
 20
85.28667553190466
 30
0.0
 11
97.79380751389239
 21
79.30435901854314
 31
0.0
  0
LINE
  5
1BC
330
17
100
AcDbEntity
  8
SubLayer
100
AcDbLine
 10
99.93376177006097
 20
51.49317145728247
 30
0.0
 11
100.39407593882187
 21
45.51085494392095
 31
0.0
  0
LINE
  5
1BD
330
17
100
AcDbEntity
  8
SubLayer
100
AcDbLine
 10
100.9235198311707
 20
12.56096556527205
 30
0.0
 11
104.91173084007838
 21
12.867841677779325
 31
0.0
  0
LINE
  5
1BE
330
17
100
AcDbEntity
  8
SubLayer
100
AcDbLine
 10
104.91173084007838
 20
12.867841677779325
 30
0.0
 11
104.60485472757111
 21
16.856052686687008
 31
0.0
  0
LINE
  5
1BF
330
17
100
AcDbEntity
  8
SubLayer
100
AcDbLine
 10
104.60485472757111
 20
16.856052686687008
 30
0.0
 11
100.61664371866343
 21
16.549176574179732
 31
0.0
  0
LINE
  5
1C0
330
17
100
AcDbEntity
  8
SubLayer
100
AcDbLine
 10
100.61664371866343
 20
16.549176574179732
 30
0.0
 11
100.9235198311707
 21
12.56096556527205
 31
0.0
  0
LINE
  5
1C1
330
17
100
AcDbEntity
  8
SubLayer
100
AcDbLine
 10
95.72298298131173
 20
80.14797371451643
 30
0.0
 11
99.71119399021941
 21
80.4548498270237
 31
0.0
  0
LINE
  5
1C2
330
17
100
AcDbEntity
  8
SubLayer
100
AcDbLine
 10
99.71119399021941
 20
80.4548498270237
 30
0.0
 11
99.40431787771215
 21
84.44306083593138
 31
0.0
  0
LINE
  5
1C3
330
17
100
AcDbEntity
  8
SubLayer
100
AcDbLine
 10
99.40431787771215
 20
84.44306083593138
 30
0.0
 11
95.41610686880446
 21
84.13618472342411
 31
0.0
  0
LINE
  5
1C4
330
17
100
AcDbEntity
  8
SubLayer
100
AcDbLine
 10
95.41610686880446
 20
84.13618472342411
 30
0.0
 11
95.72298298131173
 21
80.14797371451643
 31
0.0
  0
LINE
  5
1C5
330
17
100
AcDbEntity
  8
SubLayer
100
AcDbLine
 10
98.32325140624121
 20
46.35446963989423
 30
0.0
 11
102.3114624151489
 21
46.66134575240151
 31
0.0
  0
LINE
  5
1C6
330
17
100
AcDbEntity
  8
SubLayer
100
AcDbLine
 10
102.3114624151489
 20
46.66134575240151
 30
0.0
 11
102.00458630264163
 21
50.649556761309185
 31
0.0
  0
LINE
  5
1C7
330
17
100
AcDbEntity
  8
SubLayer
100
AcDbLine
 10
102.00458630264163
 20
50.649556761309185
 30
0.0
 11
98.01637529373394
 21
50.34268064880191
 31
0.0
  0
LINE
  5
1C8
330
17
100
AcDbEntity
  8
SubLayer
100
AcDbLine
 10
98.01637529373394
 20
50.34268064880191
 30
0.0
 11
98.32325140624121
 21
46.35446963989423
 31
0.0
  0
ENDSEC
  0
SECTION
  2
OBJECTS
  0
DICTIONARY
  5
A
330
0
100
AcDbDictionary
280
0
281
1
  3
ACAD_COLOR
350
B
  3
ACAD_GROUP
350
C
  3
ACAD_LAYOUT
350
D
  3
ACAD_MATERIAL
350
E
  3
ACAD_MLEADERSTYLE
350
F
  3
ACAD_MLINESTYLE
350
10
  3
ACAD_PLOTSETTINGS
350
11
  3
ACAD_PLOTSTYLENAME
350
12
  3
ACAD_SCALELIST
350
14
  3
ACAD_TABLESTYLE
350
15
  3
ACAD_VISUALSTYLE
350
16
  3
EZDXF_META
350
2D
  0
DICTIONARY
  5
B
330
A
100
AcDbDictionary
280
0
281
1
  0
DICTIONARY
  5
C
330
A
100
AcDbDictionary
280
0
281
1
  0
DICTIONARY
  5
D
330
A
100
AcDbDictionary
280
0
281
1
  3
Model
350
1A
  3
Layout1
350
1E
  0
DICTIONARY
  5
E
330
A
100
AcDbDictionary
280
0
281
1
  3
ByBlock
350
1F
  3
ByLayer
350
20
  3
Global
350
21
  0
DICTIONARY
  5
F
330
A
100
AcDbDictionary
280
0
281
1
  3
Standard
350
2C
  0
DICTIONARY
  5
10
330
A
100
AcDbDictionary
280
0
281
1
  3
Standard
350
22
  0
DICTIONARY
  5
11
330
A
100
AcDbDictionary
280
0
281
1
  0
ACDBDICTIONARYWDFLT
  5
12
330
A
100
AcDbDictionary
280
0
281
1
  3
Normal
350
13
100
AcDbDictionaryWithDefault
340
13
  0
ACDBPLACEHOLDER
  5
13
330
12
  0
DICTIONARY
  5
14
330
A
100
AcDbDictionary
280
0
281
1
  0
DICTIONARY
  5
15
330
A
100
AcDbDictionary
280
0
281
1
  0
DICTIONARY
  5
16
330
A
100
AcDbDictionary
280
0
281
1
  0
LAYOUT
  5
1A
330
D
100
AcDbPlotSettings
  1

  2
Adobe PDF
  4
A3
  6

 40
7.5
 41
20.0
 42
7.5
 43
20.0
 44
420.0
 45
297.0
 46
0.0
 47
0.0
 48
0.0
 49
0.0
140
0.0
141
0.0
142
1.0
143
1.0
 70
1024
 72
1
 73
0
 74
5
  7

 75
16
 76
0
 77
2
 78
300
147
1.0
148
0.0
149
0.0
100
AcDbLayout
  1
Model
 70
1
 71
0
 10
0.0
 20
0.0
 11
420.0
 21
297.0
 12
0.0
 22
0.0
 32
0.0
 14
1e+20
 24
1e+20
 34
1e+20
 15
-1e+20
 25
-1e+20
 35
-1e+20
146
0.0
 13
0.0
 23
0.0
 33
0.0
 16
1.0
 26
0.0
 36
0.0
 17
0.0
 27
1.0
 37
0.0
 76
1
330
17
  0
LAYOUT
  5
1E
330
D
100
AcDbPlotSettings
  1

  2
Adobe PDF
  4
A3
  6

 40
7.5
 41
20.0
 42
7.5
 43
20.0
 44
420.0
 45
297.0
 46
0.0
 47
0.0
 48
0.0
 49
0.0
140
0.0
141
0.0
142
1.0
143
1.0
 70
0
 72
1
 73
0
 74
5
  7

 75
16
 76
0
 77
2
 78
300
147
1.0
148
0.0
149
0.0
100
AcDbLayout
  1
Layout1
 70
1
 71
1
 10
0.0
 20
0.0
 11
420.0
 21
297.0
 12
0.0
 22
0.0
 32
0.0
 14
1e+20
 24
1e+20
 34
1e+20
 15
-1e+20
 25
-1e+20
 35
-1e+20
146
0.0
 13
0.0
 23
0.0
 33
0.0
 16
1.0
 26
0.0
 36
0.0
 17
0.0
 27
1.0
 37
0.0
 76
1
330
1B
  0
MATERIAL
  5
1F
102
{ACAD_REACTORS
330
E
102
}
330
E
100
AcDbMaterial
  1
ByBlock
  2

 70
0
 40
1.0
 71
1
 41
1.0
 91
-1023410177
 42
1.0
 72
1
  3

 73
1
 74
1
 75
1
 44
0.5
 73
0
 45
1.0
 46
1.0
 77
1
  4

 78
1
 79
1
170
1
 48
1.0
171
1
  6

172
1
173
1
174
1
140
1.0
141
1.0
175
1
  7

176
1
177
1
178
1
143
1.0
179
1
  8

270
1
271
1
272
1
145
1.0
146
1.0
273
1
  9

274
1
275
1
276
1
 42
1.0
 72
1
  3

 73
1
 74
1
 75
1
 94
63
  0
MATERIAL
  5
20
102
{ACAD_REACTORS
330
E
102
}
330
E
100
AcDbMaterial
  1
ByLayer
  2

 70
0
 40
1.0
 71
1
 41
1.0
 91
-1023410177
 42
1.0
 72
1
  3

 73
1
 74
1
 75
1
 44
0.5
 73
0
 45
1.0
 46
1.0
 77
1
  4

 78
1
 79
1
170
1
 48
1.0
171
1
  6

172
1
173
1
174
1
140
1.0
141
1.0
175
1
  7

176
1
177
1
178
1
143
1.0
179
1
  8

270
1
271
1
272
1
145
1.0
146
1.0
273
1
  9

274
1
275
1
276
1
 42
1.0
 72
1
  3

 73
1
 74
1
 75
1
 94
63
  0
MATERIAL
  5
21
102
{ACAD_REACTORS
330
E
102
}
330
E
100
AcDbMaterial
  1
Global
  2

 70
0
 40
1.0
 71
1
 41
1.0
 91
-1023410177
 42
1.0
 72
1
  3

 73
1
 74
1
 75
1
 44
0.5
 73
0
 45
1.0
 46
1.0
 77
1
  4

 78
1
 79
1
170
1
 48
1.0
171
1
  6

172
1
173
1
174
1
140
1.0
141
1.0
175
1
  7

176
1
177
1
178
1
143
1.0
179
1
  8

270
1
271
1
272
1
145
1.0
146
1.0
273
1
  9

274
1
275
1
276
1
 42
1.0
 72
1
  3

 73
1
 74
1
 75
1
 94
63
  0
MLINESTYLE
  5
22
102
{ACAD_REACTORS
330
10
102
}
330
10
100
AcDbMlineStyle
  2
Standard
 70
0
  3

 62
256
 51
90.0
 52
90.0
 71
2
 49
0.5
 62
256
  6
BYLAYER
 49
-0.5
 62
256
  6
BYLAYER
  0
MLEADERSTYLE
  5
2C
102
{ACAD_REACTORS
330
F
102
}
330
F
100
AcDbMLeaderStyle
179
2
170
2
171
1
172
0
 90
2
 40
0.0
 41
0.0
173
1
 91
-1056964608
 92
-2
290
1
 42
2.0
291
1
 43
8.0
  3
Standard
 44
4.0
300

342
29
174
1
175
1
176
0
178
1
 93
-1056964608
 45
4.0
292
0
297
0
 46
4.0
 94
-1056964608
 47
1.0
 49
1.0
140
1.0
294
1
141
0.0
177
0
142
1.0
295
0
296
0
143
3.75
271
0
272
9
273
9
  0
DICTIONARY
  5
2D
330
A
100
AcDbDictionary
281
1
  3
CREATED_BY_EZDXF
350
2E
  3
WRITTEN_BY_EZDXF
350
1CB
  0
DICTIONARYVAR
  5
2E
330
2D
100
DictionaryVariables
280
0
  1
1.0.2 @ 2024-03-22T07:41:33.986759+00:00
  0
DICTIONARYVAR
  5
1CB
330
2D
100
DictionaryVariables
280
0
  1
1.0.2 @ 2024-03-22T07:41:33.996888+00:00
  0
ENDSEC
  0
EOF
