  0
SECTION
  2
HEADER
  9
$ACADVER
  1
AC1027
  9
$ACADMAINTVER
 70
105
  9
$DWGCODEPAGE
  3
ANSI_1252
  9
$LASTSAVEDBY
  1
ezdxf
  9
$REQUIREDVERSIONS
160
0
  9
$INSBASE
 10
0.0
 20
0.0
 30
0.0
  9
$EXTMIN
 10
1e+20
 20
1e+20
 30
1e+20
  9
$EXTMAX
 10
-1e+20
 20
-1e+20
 30
-1e+20
  9
$LIMMIN
 10
0.0
 20
0.0
  9
$LIMMAX
 10
420.0
 20
297.0
  9
$ORTHOMODE
 70
0
  9
$REGENMODE
 70
1
  9
$FILLMODE
 70
1
  9
$QTEXTMODE
 70
0
  9
$MIRRTEXT
 70
1
  9
$LTSCALE
 40
1.0
  9
$ATTMODE
 70
1
  9
$TEXTSIZE
 40
2.5
  9
$TRACEWID
 40
1.0
  9
$TEXTSTYLE
  7
Standard
  9
$CLAYER
  8
0
  9
$CELTYPE
  6
ByLayer
  9
$CECOLOR
 62
256
  9
$CELTSCALE
 40
1.0
  9
$DISPSILH
 70
0
  9
$DIMSCALE
 40
1.0
  9
$DIMASZ
 40
2.5
  9
$DIMEXO
 40
0.625
  9
$DIMDLI
 40
3.75
  9
$DIMRND
 40
0.0
  9
$DIMDLE
 40
0.0
  9
$DIMEXE
 40
1.25
  9
$DIMTP
 40
0.0
  9
$DIMTM
 40
0.0
  9
$DIMTXT
 40
2.5
  9
$DIMCEN
 40
2.5
  9
$DIMTSZ
 40
0.0
  9
$DIMTOL
 70
0
  9
$DIMLIM
 70
0
  9
$DIMTIH
 70
0
  9
$DIMTOH
 70
0
  9
$DIMSE1
 70
0
  9
$DIMSE2
 70
0
  9
$DIMTAD
 70
1
  9
$DIMZIN
 70
8
  9
$DIMBLK
  1

  9
$DIMASO
 70
1
  9
$DIMSHO
 70
1
  9
$DIMPOST
  1

  9
$DIMAPOST
  1

  9
$DIMALT
 70
0
  9
$DIMALTD
 70
3
  9
$DIMALTF
 40
0.03937007874
  9
$DIMLFAC
 40
1.0
  9
$DIMTOFL
 70
1
  9
$DIMTVP
 40
0.0
  9
$DIMTIX
 70
0
  9
$DIMSOXD
 70
0
  9
$DIMSAH
 70
0
  9
$DIMBLK1
  1

  9
$DIMBLK2
  1

  9
$DIMSTYLE
  2
ISO-25
  9
$DIMCLRD
 70
0
  9
$DIMCLRE
 70
0
  9
$DIMCLRT
 70
0
  9
$DIMTFAC
 40
1.0
  9
$DIMGAP
 40
0.625
  9
$DIMJUST
 70
0
  9
$DIMSD1
 70
0
  9
$DIMSD2
 70
0
  9
$DIMTOLJ
 70
0
  9
$DIMTZIN
 70
8
  9
$DIMALTZ
 70
0
  9
$DIMALTTZ
 70
0
  9
$DIMUPT
 70
0
  9
$DIMDEC
 70
2
  9
$DIMTDEC
 70
2
  9
$DIMALTU
 70
2
  9
$DIMALTTD
 70
3
  9
$DIMTXSTY
  7
Standard
  9
$DIMAUNIT
 70
0
  9
$DIMADEC
 70
0
  9
$DIMALTRND
 40
0.0
  9
$DIMAZIN
 70
0
  9
$DIMDSEP
 70
44
  9
$DIMATFIT
 70
3
  9
$DIMFRAC
 70
0
  9
$DIMLDRBLK
  1

  9
$DIMLUNIT
 70
2
  9
$DIMLWD
 70
-2
  9
$DIMLWE
 70
-2
  9
$DIMTMOVE
 70
0
  9
$DIMFXL
 40
1.0
  9
$DIMFXLON
 70
0
  9
$DIMJOGANG
 40
0.785398163397
  9
$DIMTFILL
 70
0
  9
$DIMTFILLCLR
 70
0
  9
$DIMARCSYM
 70
0
  9
$DIMLTYPE
  6

  9
$DIMLTEX1
  6

  9
$DIMLTEX2
  6

  9
$DIMTXTDIRECTION
 70
0
  9
$LUNITS
 70
2
  9
$LUPREC
 70
4
  9
$SKETCHINC
 40
1.0
  9
$FILLETRAD
 40
10.0
  9
$AUNITS
 70
0
  9
$AUPREC
 70
2
  9
$MENU
  1
.
  9
$ELEVATION
 40
0.0
  9
$PELEVATION
 40
0.0
  9
$THICKNESS
 40
0.0
  9
$LIMCHECK
 70
0
  9
$CHAMFERA
 40
0.0
  9
$CHAMFERB
 40
0.0
  9
$CHAMFERC
 40
0.0
  9
$CHAMFERD
 40
0.0
  9
$SKPOLY
 70
0
  9
$TDCREATE
 40
2460392.6955324076
  9
$TDUCREATE
 40
2458532.153996898
  9
$TDUPDATE
 40
2460392.6955324076
  9
$TDUUPDATE
 40
2458532.1544311
  9
$TDINDWG
 40
0.0
  9
$TDUSRTIMER
 40
0.0
  9
$USRTIMER
 70
1
  9
$ANGBASE
 50
0.0
  9
$ANGDIR
 70
0
  9
$PDMODE
 70
0
  9
$PDSIZE
 40
0.0
  9
$PLINEWID
 40
0.0
  9
$SPLFRAME
 70
0
  9
$SPLINETYPE
 70
6
  9
$SPLINESEGS
 70
8
  9
$HANDSEED
  5
1CC
  9
$SURFTAB1
 70
6
  9
$SURFTAB2
 70
6
  9
$SURFTYPE
 70
6
  9
$SURFU
 70
6
  9
$SURFV
 70
6
  9
$UCSBASE
  2

  9
$UCSNAME
  2

  9
$UCSORG
 10
0.0
 20
0.0
 30
0.0
  9
$UCSXDIR
 10
1.0
 20
0.0
 30
0.0
  9
$UCSYDIR
 10
0.0
 20
1.0
 30
0.0
  9
$UCSORTHOREF
  2

  9
$UCSORTHOVIEW
 70
0
  9
$UCSORGTOP
 10
0.0
 20
0.0
 30
0.0
  9
$UCSORGBOTTOM
 10
0.0
 20
0.0
 30
0.0
  9
$UCSORGLEFT
 10
0.0
 20
0.0
 30
0.0
  9
$UCSORGRIGHT
 10
0.0
 20
0.0
 30
0.0
  9
$UCSORGFRONT
 10
0.0
 20
0.0
 30
0.0
  9
$UCSORGBACK
 10
0.0
 20
0.0
 30
0.0
  9
$PUCSBASE
  2

  9
$PUCSNAME
  2

  9
$PUCSORG
 10
0.0
 20
0.0
 30
0.0
  9
$PUCSXDIR
 10
1.0
 20
0.0
 30
0.0
  9
$PUCSYDIR
 10
0.0
 20
1.0
 30
0.0
  9
$PUCSORTHOREF
  2

  9
$PUCSORTHOVIEW
 70
0
  9
$PUCSORGTOP
 10
0.0
 20
0.0
 30
0.0
  9
$PUCSORGBOTTOM
 10
0.0
 20
0.0
 30
0.0
  9
$PUCSORGLEFT
 10
0.0
 20
0.0
 30
0.0
  9
$PUCSORGRIGHT
 10
0.0
 20
0.0
 30
0.0
  9
$PUCSORGFRONT
 10
0.0
 20
0.0
 30
0.0
  9
$PUCSORGBACK
 10
0.0
 20
0.0
 30
0.0
  9
$USERI1
 70
0
  9
$USERI2
 70
0
  9
$USERI3
 70
0
  9
$USERI4
 70
0
  9
$USERI5
 70
0
  9
$USERR1
 40
0.0
  9
$USERR2
 40
0.0
  9
$USERR3
 40
0.0
  9
$USERR4
 40
0.0
  9
$USERR5
 40
0.0
  9
$WORLDVIEW
 70
1
  9
$SHADEDGE
 70
3
  9
$SHADEDIF
 70
70
  9
$TILEMODE
 70
1
  9
$MAXACTVP
 70
64
  9
$PINSBASE
 10
0.0
 20
0.0
 30
0.0
  9
$PLIMCHECK
 70
0
  9
$PEXTMIN
 10
1e+20
 20
1e+20
 30
1e+20
  9
$PEXTMAX
 10
-1e+20
 20
-1e+20
 30
-1e+20
  9
$PLIMMIN
 10
0.0
 20
0.0
  9
$PLIMMAX
 10
420.0
 20
297.0
  9
$UNITMODE
 70
0
  9
$VISRETAIN
 70
1
  9
$PLINEGEN
 70
0
  9
$PSLTSCALE
 70
1
  9
$TREEDEPTH
 70
3020
  9
$CMLSTYLE
  2
Standard
  9
$CMLJUST
 70
0
  9
$CMLSCALE
 40
20.0
  9
$PROXYGRAPHICS
 70
1
  9
$MEASUREMENT
 70
1
  9
$CELWEIGHT
370
-1
  9
$ENDCAPS
280
0
  9
$JOINSTYLE
280
0
  9
$LWDISPLAY
290
0
  9
$INSUNITS
 70
6
  9
$HYPERLINKBASE
  1

  9
$STYLESHEET
  1

  9
$XEDIT
290
1
  9
$CEPSNTYPE
380
0
  9
$PSTYLEMODE
290
1
  9
$FINGERPRINTGUID
  2
{F837254F-410D-4CB3-80BE-B10D5B731B4A}
  9
$VERSIONGUID
  2
{B35BA5D9-96E6-4FD6-B1E7-43CD46DBE1A7}
  9
$EXTNAMES
290
1
  9
$PSVPSCALE
 40
0.0
  9
$OLESTARTUP
290
0
  9
$SORTENTS
280
127
  9
$INDEXCTL
280
0
  9
$HIDETEXT
280
1
  9
$XCLIPFRAME
280
0
  9
$HALOGAP
280
0
  9
$OBSCOLOR
 70
257
  9
$OBSLTYPE
280
0
  9
$INTERSECTIONDISPLAY
280
0
  9
$INTERSECTIONCOLOR
 70
257
  9
$DIMASSOC
280
2
  9
$PROJECTNAME
  1

  9
$CAMERADISPLAY
290
0
  9
$LENSLENGTH
 40
50.0
  9
$CAMERAHEIGHT
 40
0.0
  9
$STEPSPERSEC
 40
24.0
  9
$STEPSIZE
 40
100.0
  9
$3DDWFPREC
 40
2.0
  9
$PSOLWIDTH
 40
0.005
  9
$PSOLHEIGHT
 40
0.08
  9
$LOFTANG1
 40
1.570796326795
  9
$LOFTANG2
 40
1.570796326795
  9
$LOFTMAG1
 40
0.0
  9
$LOFTMAG2
 40
0.0
  9
$LOFTPARAM
 70
7
  9
$LOFTNORMALS
280
1
  9
$LATITUDE
 40
37.795
  9
$LONGITUDE
 40
-122.394
  9
$NORTHDIRECTION
 40
0.0
  9
$TIMEZONE
 70
-8000
  9
$LIGHTGLYPHDISPLAY
280
1
  9
$TILEMODELIGHTSYNCH
280
1
  9
$CMATERIAL
347
20
  9
$SOLIDHIST
280
0
  9
$SHOWHIST
280
1
  9
$DWFFRAME
280
2
  9
$DGNFRAME
280
2
  9
$REALWORLDSCALE
290
1
  9
$INTERFERECOLOR
 62
256
  9
$CSHADOW
280
0
  9
$SHADOWPLANELOCATION
 40
0.0
  0
ENDSEC
  0
SECTION
  2
CLASSES
  0
CLASS
  1
ACDBDICTIONARYWDFLT
  2
AcDbDictionaryWithDefault
  3
ObjectDBX Classes
 90
0
 91
0
280
0
281
0
  0
CLASS
  1
SUN
  2
AcDbSun
  3
SCENEOE
 90
1153
 91
0
280
0
281
0
  0
CLASS
  1
VISUALSTYLE
  2
AcDbVisualStyle
  3
ObjectDBX Classes
 90
4095
 91
0
280
0
281
0
  0
CLASS
  1
MATERIAL
  2
AcDbMaterial
  3
ObjectDBX Classes
 90
1153
 91
0
280
0
281
0
  0
CLASS
  1
SCALE
  2
AcDbScale
  3
ObjectDBX Classes
 90
1153
 91
0
280
0
281
0
  0
CLASS
  1
TABLESTYLE
  2
AcDbTableStyle
  3
ObjectDBX Classes
 90
4095
 91
0
280
0
281
0
  0
CLASS
  1
MLEADERSTYLE
  2
AcDbMLeaderStyle
  3
ACDB_MLEADERSTYLE_CLASS
 90
4095
 91
0
280
0
281
0
  0
CLASS
  1
DICTIONARYVAR
  2
AcDbDictionaryVar
  3
ObjectDBX Classes
 90
0
 91
0
280
0
281
0
  0
CLASS
  1
CELLSTYLEMAP
  2
AcDbCellStyleMap
  3
ObjectDBX Classes
 90
1152
 91
0
280
0
281
0
  0
CLASS
  1
MENTALRAYRENDERSETTINGS
  2
AcDbMentalRayRenderSettings
  3
SCENEOE
 90
1024
 91
0
280
0
281
0
  0
CLASS
  1
ACDBDETAILVIEWSTYLE
  2
AcDbDetailViewStyle
  3
ObjectDBX Classes
 90
1025
 91
0
280
0
281
0
  0
CLASS
  1
ACDBSECTIONVIEWSTYLE
  2
AcDbSectionViewStyle
  3
ObjectDBX Classes
 90
1025
 91
0
280
0
281
0
  0
CLASS
  1
RASTERVARIABLES
  2
AcDbRasterVariables
  3
ISM
 90
0
 91
0
280
0
281
0
  0
CLASS
  1
LAYOUT
  2
AcDbLayout
  3
ObjectDBX Classes
 90
0
 91
0
280
0
281
0
  0
CLASS
  1
ACDBPLACEHOLDER
  2
AcDbPlaceHolder
  3
ObjectDBX Classes
 90
0
 91
0
280
0
281
0
  0
ENDSEC
  0
SECTION
  2
TABLES
  0
TABLE
  2
VPORT
  5
8
330
0
100
AcDbSymbolTable
 70
1
  0
VPORT
  5
23
330
8
100
AcDbSymbolTableRecord
100
AcDbViewportTableRecord
  2
*Active
 70
0
 10
0.0
 20
0.0
 11
1.0
 21
1.0
 12
0.0
 22
0.0
 13
0.0
 23
0.0
 14
0.5
 24
0.5
 15
0.5
 25
0.5
 16
0.0
 26
0.0
 36
1.0
 17
0.0
 27
0.0
 37
0.0
 40
1000.0
 41
1.34
 42
50.0
 43
0.0
 44
0.0
 50
0.0
 51
0.0
 71
0
 72
1000
 73
1
 74
3
 75
0
 76
0
 77
0
 78
0
281
0
 65
0
146
0.0
  0
ENDTAB
  0
TABLE
  2
LTYPE
  5
2
330
0
100
AcDbSymbolTable
 70
3
  0
LTYPE
  5
24
330
2
100
AcDbSymbolTableRecord
100
AcDbLinetypeTableRecord
  2
ByBlock
 70
0
  3

 72
65
 73
0
 40
0.0
  0
LTYPE
  5
25
330
2
100
AcDbSymbolTableRecord
100
AcDbLinetypeTableRecord
  2
ByLayer
 70
0
  3

 72
65
 73
0
 40
0.0
  0
LTYPE
  5
26
330
2
100
AcDbSymbolTableRecord
100
AcDbLinetypeTableRecord
  2
Continuous
 70
0
  3

 72
65
 73
0
 40
0.0
  0
ENDTAB
  0
TABLE
  2
LAYER
  5
1
330
0
100
AcDbSymbolTable
 70
5
  0
LAYER
  5
27
330
1
100
AcDbSymbolTableRecord
100
AcDbLayerTableRecord
  2
0
 70
0
 62
7
  6
Continuous
370
-3
390
13
347
21
  0
LAYER
  5
28
330
1
100
AcDbSymbolTableRecord
100
AcDbLayerTableRecord
  2
Defpoints
 70
0
 62
7
  6
Continuous
290
0
370
-3
390
13
347
21
  0
LAYER
  5
30
330
1
100
AcDbSymbolTableRecord
100
AcDbLayerTableRecord
  2
FoilLayer
 70
0
 62
1
  6
Continuous
370
50
390
13
347
21
  0
LAYER
  5
31
330
1
100
AcDbSymbolTableRecord
100
AcDbLayerTableRecord
  2
StringerLayer
 70
0
 62
1
  6
Continuous
370
50
390
13
347
21
  0
LAYER
  5
32
330
1
100
AcDbSymbolTableRecord
100
AcDbLayerTableRecord
  2
SubLayer
 70
0
 62
1
  6
Continuous
370
50
390
13
347
21
  0
ENDTAB
  0
TABLE
  2
STYLE
  5
5
330
0
100
AcDbSymbolTable
 70
2
  0
STYLE
  5
29
330
5
100
AcDbSymbolTableRecord
100
AcDbTextStyleTableRecord
  2
Standard
 70
0
 40
0.0
 41
1.0
 50
0.0
 71
0
 42
2.5
  3
txt
  4

  0
STYLE
  5
2F
330
5
100
AcDbSymbolTableRecord
100
AcDbTextStyleTableRecord
  2
MSゴシック
 70
0
 40
0.0
 41
1.0
 50
0.0
 71
0
 42
2.5
  3
romans
  4

  0
ENDTAB
  0
TABLE
  2
VIEW
  5
7
330
0
100
AcDbSymbolTable
 70
0
  0
ENDTAB
  0
TABLE
  2
UCS
  5
6
330
0
100
AcDbSymbolTable
 70
0
  0
ENDTAB
  0
TABLE
  2
APPID
  5
3
330
0
100
AcDbSymbolTable
 70
3
  0
APPID
  5
2A
330
3
100
AcDbSymbolTableRecord
100
AcDbRegAppTableRecord
  2
ACAD
 70
0
  0
APPID
  5
1C9
330
3
100
AcDbSymbolTableRecord
100
AcDbRegAppTableRecord
  2
HATCHBACKGROUNDCOLOR
 70
0
  0
APPID
  5
1CA
330
3
100
AcDbSymbolTableRecord
100
AcDbRegAppTableRecord
  2
EZDXF
 70
0
  0
ENDTAB
  0
TABLE
  2
DIMSTYLE
  5
4
330
0
100
AcDbSymbolTable
 70
1
100
AcDbDimStyleTable
  0
DIMSTYLE
105
2B
330
4
100
AcDbSymbolTableRecord
100
AcDbDimStyleTableRecord
  2
Standard
 70
0
 40
1.0
 41
2.5
 42
0.625
 43
3.75
 44
1.25
 45
0.0
 46
0.0
 47
0.0
 48
0.0
 49
2.5
140
2.5
141
2.5
142
0.0
143
0.03937007874
144
1.0
145
0.0
146
1.0
147
0.625
148
0.0
 69
0
 70
0
 71
0
 72
0
 73
0
 74
0
 75
0
 76
0
 77
1
 78
8
 79
3
170
0
171
3
172
1
173
0
174
0
175
0
176
0
177
0
178
0
179
2
271
2
272
2
273
2
274
3
275
0
276
0
277
2
278
44
279
0
280
0
281
0
282
0
283
0
284
8
285
0
286
0
288
0
289
3
290
0
371
-2
372
-2
  0
ENDTAB
  0
TABLE
  2
BLOCK_RECORD
  5
9
330
0
100
AcDbSymbolTable
 70
2
  0
BLOCK_RECORD
  5
17
330
9
100
AcDbSymbolTableRecord
100
AcDbBlockTableRecord
  2
*Model_Space
340
1A
 70
0
280
1
281
0
  0
BLOCK_RECORD
  5
1B
330
9
100
AcDbSymbolTableRecord
100
AcDbBlockTableRecord
  2
*Paper_Space
340
1E
 70
0
280
1
281
0
  0
ENDTAB
  0
ENDSEC
  0
SECTION
  2
BLOCKS
  0
BLOCK
  5
18
330
17
100
AcDbEntity
  8
0
100
AcDbBlockBegin
  2
*Model_Space
 70
0
 10
0.0
 20
0.0
 30
0.0
  3
*Model_Space
  1

  0
ENDBLK
  5
19
330
17
100
AcDbEntity
  8
0
100
AcDbBlockEnd
  0
BLOCK
  5
1C
330
1B
100
AcDbEntity
  8
0
100
AcDbBlockBegin
  2
*Paper_Space
 70
0
 10
0.0
 20
0.0
 30
0.0
  3
*Paper_Space
  1

  0
ENDBLK
  5
1D
330
1B
100
AcDbEntity
  8
0
100
AcDbBlockEnd
  0
ENDSEC
  0
SECTION
  2
ENTITIES
  0
LINE
  5
33
330
17
100
AcDbEntity
  8
FoilLayer
100
AcDbLine
 10
525.1806307895582
 20
0.8327641723254169
 30
0.0
 11
522.6117678674952
 21
1.65497742447182
 31
0.0
  0
LINE
  5
34
330
17
100
AcDbEntity
  8
FoilLayer
100
AcDbLine
 10
522.6117678674952
 20
1.65497742447182
 30
0.0
 11
518.4787171642803
 21
2.9017091552205088
 31
0.0
  0
LINE
  5
35
330
17
100
AcDbEntity
  8
FoilLayer
100
AcDbLine
 10
518.4787171642803
 20
2.9017091552205088
 30
0.0
 11
514.0075339114085
 21
4.285065322116504
 31
0.0
  0
LINE
  5
36
330
17
100
AcDbEntity
  8
FoilLayer
100
AcDbLine
 10
514.0075339114085
 20
4.285065322116504
 30
0.0
 11
509.1248722543818
 21
5.76363296364835
 31
0.0
  0
LINE
  5
37
330
17
100
AcDbEntity
  8
FoilLayer
100
AcDbLine
 10
509.1248722543818
 20
5.76363296364835
 30
0.0
 11
503.8007480114154
 21
7.339479610296065
 31
0.0
  0
LINE
  5
38
330
17
100
AcDbEntity
  8
FoilLayer
100
AcDbLine
 10
503.8007480114154
 20
7.339479610296065
 30
0.0
 11
498.07339516025206
 21
9.033652980514058
 31
0.0
  0
LINE
  5
39
330
17
100
AcDbEntity
  8
FoilLayer
100
AcDbLine
 10
498.07339516025206
 20
9.033652980514058
 30
0.0
 11
492.01112568825044
 21
10.837946399221355
 31
0.0
  0
LINE
  5
3A
330
17
100
AcDbEntity
  8
FoilLayer
100
AcDbLine
 10
492.01112568825044
 20
10.837946399221355
 30
0.0
 11
485.6681686365704
 21
12.715417352297058
 31
0.0
  0
LINE
  5
3B
330
17
100
AcDbEntity
  8
FoilLayer
100
AcDbLine
 10
485.6681686365704
 20
12.715417352297058
 30
0.0
 11
479.1432152472862
 21
14.643713024799354
 31
0.0
  0
LINE
  5
3C
330
17
100
AcDbEntity
  8
FoilLayer
100
AcDbLine
 10
479.1432152472862
 20
14.643713024799354
 30
0.0
 11
472.55736770175713
 21
16.56648894205097
 31
0.0
  0
LINE
  5
3D
330
17
100
AcDbEntity
  8
FoilLayer
100
AcDbLine
 10
472.55736770175713
 20
16.56648894205097
 30
0.0
 11
465.91818042748866
 21
18.458149035477057
 31
0.0
  0
LINE
  5
3E
330
17
100
AcDbEntity
  8
FoilLayer
100
AcDbLine
 10
465.91818042748866
 20
18.458149035477057
 30
0.0
 11
459.18519987156037
 21
20.42645711473905
 31
0.0
  0
LINE
  5
3F
330
17
100
AcDbEntity
  8
FoilLayer
100
AcDbLine
 10
459.18519987156037
 20
20.42645711473905
 30
0.0
 11
452.37412542865616
 21
22.427866803320683
 31
0.0
  0
LINE
  5
40
330
17
100
AcDbEntity
  8
FoilLayer
100
AcDbLine
 10
452.37412542865616
 20
22.427866803320683
 30
0.0
 11
445.4480830380131
 21
24.412307376393336
 31
0.0
  0
LINE
  5
41
330
17
100
AcDbEntity
  8
FoilLayer
100
AcDbLine
 10
445.4480830380131
 20
24.412307376393336
 30
0.0
 11
438.41044288775845
 21
26.418516054584362
 31
0.0
  0
LINE
  5
42
330
17
100
AcDbEntity
  8
FoilLayer
100
AcDbLine
 10
438.41044288775845
 20
26.418516054584362
 30
0.0
 11
431.2544178626316
 21
28.426722318815873
 31
0.0
  0
LINE
  5
43
330
17
100
AcDbEntity
  8
FoilLayer
100
AcDbLine
 10
431.2544178626316
 20
28.426722318815873
 30
0.0
 11
423.9620036917273
 21
30.482869694042602
 31
0.0
  0
LINE
  5
44
330
17
100
AcDbEntity
  8
FoilLayer
100
AcDbLine
 10
423.9620036917273
 20
30.482869694042602
 30
0.0
 11
416.5537539983037
 21
32.56707040131554
 31
0.0
  0
LINE
  5
45
330
17
100
AcDbEntity
  8
FoilLayer
100
AcDbLine
 10
416.5537539983037
 20
32.56707040131554
 30
0.0
 11
409.06136906236713
 21
34.66896920464512
 31
0.0
  0
LINE
  5
46
330
17
100
AcDbEntity
  8
FoilLayer
100
AcDbLine
 10
409.06136906236713
 20
34.66896920464512
 30
0.0
 11
401.5155589132677
 21
36.78300973722683
 31
0.0
  0
LINE
  5
47
330
17
100
AcDbEntity
  8
FoilLayer
100
AcDbLine
 10
401.5155589132677
 20
36.78300973722683
 30
0.0
 11
393.94566574983264
 21
38.903524631907175
 31
0.0
  0
LINE
  5
48
330
17
100
AcDbEntity
  8
FoilLayer
100
AcDbLine
 10
393.94566574983264
 20
38.903524631907175
 30
0.0
 11
386.37283667159033
 21
41.01909301564524
 31
0.0
  0
LINE
  5
49
330
17
100
AcDbEntity
  8
FoilLayer
100
AcDbLine
 10
386.37283667159033
 20
41.01909301564524
 30
0.0
 11
378.8026632111238
 21
43.123301501261764
 31
0.0
  0
LINE
  5
4A
330
17
100
AcDbEntity
  8
FoilLayer
100
AcDbLine
 10
378.8026632111238
 20
43.123301501261764
 30
0.0
 11
371.23599316498974
 21
45.21499470654182
 31
0.0
  0
LINE
  5
4B
330
17
100
AcDbEntity
  8
FoilLayer
100
AcDbLine
 10
371.23599316498974
 20
45.21499470654182
 30
0.0
 11
363.67527461782333
 21
47.29402451066624
 31
0.0
  0
LINE
  5
4C
330
17
100
AcDbEntity
  8
FoilLayer
100
AcDbLine
 10
363.67527461782333
 20
47.29402451066624
 30
0.0
 11
356.129216815222
 21
49.35991030529611
 31
0.0
  0
LINE
  5
4D
330
17
100
AcDbEntity
  8
FoilLayer
100
AcDbLine
 10
356.129216815222
 20
49.35991030529611
 30
0.0
 11
348.61292061137067
 21
51.40634970847095
 31
0.0
  0
LINE
  5
4E
330
17
100
AcDbEntity
  8
FoilLayer
100
AcDbLine
 10
348.61292061137067
 20
51.40634970847095
 30
0.0
 11
341.1274398226535
 21
53.4252481956956
 31
0.0
  0
LINE
  5
4F
330
17
100
AcDbEntity
  8
FoilLayer
100
AcDbLine
 10
341.1274398226535
 20
53.4252481956956
 30
0.0
 11
333.6585319153088
 21
55.416538276549765
 31
0.0
  0
LINE
  5
50
330
17
100
AcDbEntity
  8
FoilLayer
100
AcDbLine
 10
333.6585319153088
 20
55.416538276549765
 30
0.0
 11
326.20033437311974
 21
57.38472996452107
 31
0.0
  0
LINE
  5
51
330
17
100
AcDbEntity
  8
FoilLayer
100
AcDbLine
 10
326.20033437311974
 20
57.38472996452107
 30
0.0
 11
318.7597209297169
 21
59.32900599379349
 31
0.0
  0
LINE
  5
52
330
17
100
AcDbEntity
  8
FoilLayer
100
AcDbLine
 10
318.7597209297169
 20
59.32900599379349
 30
0.0
 11
315.0781507718169
 21
60.27982843759095
 31
0.0
  0
LINE
  5
53
330
17
100
AcDbEntity
  8
FoilLayer
100
AcDbLine
 10
315.0781507718169
 20
60.27982843759095
 30
0.0
 11
314.815587318486
 21
59.26318669490331
 31
0.0
  0
LINE
  5
54
330
17
100
AcDbEntity
  8
FoilLayer
100
AcDbLine
 10
314.815587318486
 20
59.26318669490331
 30
0.0
 11
311.0811987604219
 21
60.227658755830305
 31
0.0
  0
LINE
  5
55
330
17
100
AcDbEntity
  8
FoilLayer
100
AcDbLine
 10
311.0811987604219
 20
60.227658755830305
 30
0.0
 11
303.68311132470717
 21
62.11229914328133
 31
0.0
  0
LINE
  5
56
330
17
100
AcDbEntity
  8
FoilLayer
100
AcDbLine
 10
303.68311132470717
 20
62.11229914328133
 30
0.0
 11
296.2977180552168
 21
63.96613303220489
 31
0.0
  0
LINE
  5
57
330
17
100
AcDbEntity
  8
FoilLayer
100
AcDbLine
 10
296.2977180552168
 20
63.96613303220489
 30
0.0
 11
288.9194745530241
 21
65.78932842916275
 31
0.0
  0
LINE
  5
58
330
17
100
AcDbEntity
  8
FoilLayer
100
AcDbLine
 10
288.9194745530241
 20
65.78932842916275
 30
0.0
 11
281.54317612594923
 21
67.58370486975086
 31
0.0
  0
LINE
  5
59
330
17
100
AcDbEntity
  8
FoilLayer
100
AcDbLine
 10
281.54317612594923
 20
67.58370486975086
 30
0.0
 11
274.16936198949213
 21
69.35275326750924
 31
0.0
  0
LINE
  5
5A
330
17
100
AcDbEntity
  8
FoilLayer
100
AcDbLine
 10
274.16936198949213
 20
69.35275326750924
 30
0.0
 11
266.81824591574684
 21
71.09643803458829
 31
0.0
  0
LINE
  5
5B
330
17
100
AcDbEntity
  8
FoilLayer
100
AcDbLine
 10
266.81824591574684
 20
71.09643803458829
 30
0.0
 11
259.51639979399613
 21
72.80512417175564
 31
0.0
  0
LINE
  5
5C
330
17
100
AcDbEntity
  8
FoilLayer
100
AcDbLine
 10
259.51639979399613
 20
72.80512417175564
 30
0.0
 11
252.27082428981157
 21
74.46694670142026
 31
0.0
  0
LINE
  5
5D
330
17
100
AcDbEntity
  8
FoilLayer
100
AcDbLine
 10
252.27082428981157
 20
74.46694670142026
 30
0.0
 11
245.07212341804404
 21
76.07704795952925
 31
0.0
  0
LINE
  5
5E
330
17
100
AcDbEntity
  8
FoilLayer
100
AcDbLine
 10
245.07212341804404
 20
76.07704795952925
 30
0.0
 11
237.90898058618507
 21
77.63483342674498
 31
0.0
  0
LINE
  5
5F
330
17
100
AcDbEntity
  8
FoilLayer
100
AcDbLine
 10
237.90898058618507
 20
77.63483342674498
 30
0.0
 11
230.77145248147656
 21
79.14085494211797
 31
0.0
  0
LINE
  5
60
330
17
100
AcDbEntity
  8
FoilLayer
100
AcDbLine
 10
230.77145248147656
 20
79.14085494211797
 30
0.0
 11
223.65067242797852
 21
80.59626754827316
 31
0.0
  0
LINE
  5
61
330
17
100
AcDbEntity
  8
FoilLayer
100
AcDbLine
 10
223.65067242797852
 20
80.59626754827316
 30
0.0
 11
216.54181973433708
 21
82.00274043087407
 31
0.0
  0
LINE
  5
62
330
17
100
AcDbEntity
  8
FoilLayer
100
AcDbLine
 10
216.54181973433708
 20
82.00274043087407
 30
0.0
 11
209.44554050642137
 21
83.3605211404603
 31
0.0
  0
LINE
  5
63
330
17
100
AcDbEntity
  8
FoilLayer
100
AcDbLine
 10
209.44554050642137
 20
83.3605211404603
 30
0.0
 11
202.36303534353942
 21
84.66738478632384
 31
0.0
  0
LINE
  5
64
330
17
100
AcDbEntity
  8
FoilLayer
100
AcDbLine
 10
202.36303534353942
 20
84.66738478632384
 30
0.0
 11
195.28822078054873
 21
85.92108494057939
 31
0.0
  0
LINE
  5
65
330
17
100
AcDbEntity
  8
FoilLayer
100
AcDbLine
 10
195.28822078054873
 20
85.92108494057939
 30
0.0
 11
188.21085960260376
 21
87.12262968329968
 31
0.0
  0
LINE
  5
66
330
17
100
AcDbEntity
  8
FoilLayer
100
AcDbLine
 10
188.21085960260376
 20
87.12262968329968
 30
0.0
 11
181.12537376109236
 21
88.27444192569564
 31
0.0
  0
LINE
  5
67
330
17
100
AcDbEntity
  8
FoilLayer
100
AcDbLine
 10
181.12537376109236
 20
88.27444192569564
 30
0.0
 11
174.02953584671275
 21
89.37802338489219
 31
0.0
  0
LINE
  5
68
330
17
100
AcDbEntity
  8
FoilLayer
100
AcDbLine
 10
174.02953584671275
 20
89.37802338489219
 30
0.0
 11
166.9227055019157
 21
90.4343741530123
 31
0.0
  0
LINE
  5
69
330
17
100
AcDbEntity
  8
FoilLayer
100
AcDbLine
 10
166.9227055019157
 20
90.4343741530123
 30
0.0
 11
159.80596974959934
 21
91.44406875058957
 31
0.0
  0
LINE
  5
6A
330
17
100
AcDbEntity
  8
FoilLayer
100
AcDbLine
 10
159.80596974959934
 20
91.44406875058957
 30
0.0
 11
152.68227993288167
 21
92.40706115634462
 31
0.0
  0
LINE
  5
6B
330
17
100
AcDbEntity
  8
FoilLayer
100
AcDbLine
 10
152.68227993288167
 20
92.40706115634462
 30
0.0
 11
145.55336494128426
 21
93.32182792783368
 31
0.0
  0
LINE
  5
6C
330
17
100
AcDbEntity
  8
FoilLayer
100
AcDbLine
 10
145.55336494128426
 20
93.32182792783368
 30
0.0
 11
138.41456034671307
 21
94.18701092177136
 31
0.0
  0
LINE
  5
6D
330
17
100
AcDbEntity
  8
FoilLayer
100
AcDbLine
 10
138.41456034671307
 20
94.18701092177136
 30
0.0
 11
131.2588638739448
 21
95.00407479469064
 31
0.0
  0
LINE
  5
6E
330
17
100
AcDbEntity
  8
FoilLayer
100
AcDbLine
 10
131.2588638739448
 20
95.00407479469064
 30
0.0
 11
124.08373011142407
 21
95.77561737562317
 31
0.0
  0
LINE
  5
6F
330
17
100
AcDbEntity
  8
FoilLayer
100
AcDbLine
 10
124.08373011142407
 20
95.77561737562317
 30
0.0
 11
116.89067763798244
 21
96.50388945870066
 31
0.0
  0
LINE
  5
70
330
17
100
AcDbEntity
  8
FoilLayer
100
AcDbLine
 10
116.89067763798244
 20
96.50388945870066
 30
0.0
 11
109.68700177114692
 21
97.19018437237165
 31
0.0
  0
LINE
  5
71
330
17
100
AcDbEntity
  8
FoilLayer
100
AcDbLine
 10
109.68700177114692
 20
97.19018437237165
 30
0.0
 11
102.48091136870158
 21
97.83346872570898
 31
0.0
  0
LINE
  5
72
330
17
100
AcDbEntity
  8
FoilLayer
100
AcDbLine
 10
102.48091136870158
 20
97.83346872570898
 30
0.0
 11
95.27686540728632
 21
98.43166687253658
 31
0.0
  0
LINE
  5
73
330
17
100
AcDbEntity
  8
FoilLayer
100
AcDbLine
 10
95.27686540728632
 20
98.43166687253658
 30
0.0
 11
88.07668160290928
 21
98.98419468177136
 31
0.0
  0
LINE
  5
74
330
17
100
AcDbEntity
  8
FoilLayer
100
AcDbLine
 10
88.07668160290928
 20
98.98419468177136
 30
0.0
 11
80.88385634494318
 21
99.4905353226862
 31
0.0
  0
LINE
  5
75
330
17
100
AcDbEntity
  8
FoilLayer
100
AcDbLine
 10
80.88385634494318
 20
99.4905353226862
 30
0.0
 11
73.7006312421413
 21
99.94926248205897
 31
0.0
  0
LINE
  5
76
330
17
100
AcDbEntity
  8
FoilLayer
100
AcDbLine
 10
73.7006312421413
 20
99.94926248205897
 30
0.0
 11
66.52652859834922
 21
100.35888167451552
 31
0.0
  0
LINE
  5
77
330
17
100
AcDbEntity
  8
FoilLayer
100
AcDbLine
 10
66.52652859834922
 20
100.35888167451552
 30
0.0
 11
59.35929568968521
 21
100.71906583883585
 31
0.0
  0
LINE
  5
78
330
17
100
AcDbEntity
  8
FoilLayer
100
AcDbLine
 10
59.35929568968521
 20
100.71906583883585
 30
0.0
 11
52.199101461251416
 21
101.03006042305411
 31
0.0
  0
LINE
  5
79
330
17
100
AcDbEntity
  8
FoilLayer
100
AcDbLine
 10
52.199101461251416
 20
101.03006042305411
 30
0.0
 11
45.04668425014296
 21
101.29127810696276
 31
0.0
  0
LINE
  5
7A
330
17
100
AcDbEntity
  8
FoilLayer
100
AcDbLine
 10
45.04668425014296
 20
101.29127810696276
 30
0.0
 11
37.900770549141896
 21
101.50188686439492
 31
0.0
  0
LINE
  5
7B
330
17
100
AcDbEntity
  8
FoilLayer
100
AcDbLine
 10
37.900770549141896
 20
101.50188686439492
 30
0.0
 11
30.76004994369913
 21
101.66188808557497
 31
0.0
  0
LINE
  5
7C
330
17
100
AcDbEntity
  8
FoilLayer
100
AcDbLine
 10
30.76004994369913
 20
101.66188808557497
 30
0.0
 11
23.625890248230007
 21
101.77144651655783
 31
0.0
  0
LINE
  5
7D
330
17
100
AcDbEntity
  8
FoilLayer
100
AcDbLine
 10
23.625890248230007
 20
101.77144651655783
 30
0.0
 11
16.497252347678113
 21
101.8290567972077
 31
0.0
  0
LINE
  5
7E
330
17
100
AcDbEntity
  8
FoilLayer
100
AcDbLine
 10
16.497252347678113
 20
101.8290567972077
 30
0.0
 11
9.37065649629443
 21
101.83413126206722
 31
0.0
  0
LINE
  5
7F
330
17
100
AcDbEntity
  8
FoilLayer
100
AcDbLine
 10
9.37065649629443
 20
101.83413126206722
 30
0.0
 11
2.242429773469439
 21
101.78775572148906
 31
0.0
  0
LINE
  5
80
330
17
100
AcDbEntity
  8
FoilLayer
100
AcDbLine
 10
2.242429773469439
 20
101.78775572148906
 30
0.0
 11
-4.88504268385492
 21
101.69169327898913
 31
0.0
  0
LINE
  5
81
330
17
100
AcDbEntity
  8
FoilLayer
100
AcDbLine
 10
-4.88504268385492
 20
101.69169327898913
 30
0.0
 11
-12.006789467910778
 21
101.54645371038744
 31
0.0
  0
LINE
  5
82
330
17
100
AcDbEntity
  8
FoilLayer
100
AcDbLine
 10
-12.006789467910778
 20
101.54645371038744
 30
0.0
 11
-19.118345325662347
 21
101.3513716890181
 31
0.0
  0
LINE
  5
83
330
17
100
AcDbEntity
  8
FoilLayer
100
AcDbLine
 10
-19.118345325662347
 20
101.3513716890181
 30
0.0
 11
-26.217045481104208
 21
101.10535947825858
 31
0.0
  0
LINE
  5
84
330
17
100
AcDbEntity
  8
FoilLayer
100
AcDbLine
 10
-26.217045481104208
 20
101.10535947825858
 30
0.0
 11
-33.302514375101964
 21
100.80740349830822
 31
0.0
  0
LINE
  5
85
330
17
100
AcDbEntity
  8
FoilLayer
100
AcDbLine
 10
-33.302514375101964
 20
100.80740349830822
 30
0.0
 11
-40.37448680299741
 21
100.45749579867818
 31
0.0
  0
LINE
  5
86
330
17
100
AcDbEntity
  8
FoilLayer
100
AcDbLine
 10
-40.37448680299741
 20
100.45749579867818
 30
0.0
 11
-47.430895801020256
 21
100.05646137432306
 31
0.0
  0
LINE
  5
87
330
17
100
AcDbEntity
  8
FoilLayer
100
AcDbLine
 10
-47.430895801020256
 20
100.05646137432306
 30
0.0
 11
-54.46494975643276
 21
99.60642337598259
 31
0.0
  0
LINE
  5
88
330
17
100
AcDbEntity
  8
FoilLayer
100
AcDbLine
 10
-54.46494975643276
 20
99.60642337598259
 30
0.0
 11
-61.46338851904795
 21
99.10819812511268
 31
0.0
  0
LINE
  5
89
330
17
100
AcDbEntity
  8
FoilLayer
100
AcDbLine
 10
-61.46338851904795
 20
99.10819812511268
 30
0.0
 11
-68.41553986825801
 21
98.55923584475259
 31
0.0
  0
LINE
  5
8A
330
17
100
AcDbEntity
  8
FoilLayer
100
AcDbLine
 10
-68.41553986825801
 20
98.55923584475259
 30
0.0
 11
-75.3167836035112
 21
97.95481027791163
 31
0.0
  0
LINE
  5
8B
330
17
100
AcDbEntity
  8
FoilLayer
100
AcDbLine
 10
-75.3167836035112
 20
97.95481027791163
 30
0.0
 11
-82.17288227823832
 21
97.28782964078313
 31
0.0
  0
LINE
  5
8C
330
17
100
AcDbEntity
  8
FoilLayer
100
AcDbLine
 10
-82.17288227823832
 20
97.28782964078313
 30
0.0
 11
-89.00283035335835
 21
96.55299547203238
 31
0.0
  0
LINE
  5
8D
330
17
100
AcDbEntity
  8
FoilLayer
100
AcDbLine
 10
-89.00283035335835
 20
96.55299547203238
 30
0.0
 11
-95.82170068956074
 21
95.75268595287098
 31
0.0
  0
LINE
  5
8E
330
17
100
AcDbEntity
  8
FoilLayer
100
AcDbLine
 10
-95.82170068956074
 20
95.75268595287098
 30
0.0
 11
-102.62737971496551
 21
94.89232724660361
 31
0.0
  0
LINE
  5
8F
330
17
100
AcDbEntity
  8
FoilLayer
100
AcDbLine
 10
-102.62737971496551
 20
94.89232724660361
 30
0.0
 11
-109.41206442682525
 21
93.97264109384274
 31
0.0
  0
LINE
  5
90
330
17
100
AcDbEntity
  8
FoilLayer
100
AcDbLine
 10
-109.41206442682525
 20
93.97264109384274
 30
0.0
 11
-116.17292971149348
 21
92.99232159547651
 31
0.0
  0
LINE
  5
91
330
17
100
AcDbEntity
  8
FoilLayer
100
AcDbLine
 10
-116.17292971149348
 20
92.99232159547651
 30
0.0
 11
-122.90812011944249
 21
91.9516936951518
 31
0.0
  0
LINE
  5
92
330
17
100
AcDbEntity
  8
FoilLayer
100
AcDbLine
 10
-122.90812011944249
 20
91.9516936951518
 30
0.0
 11
-129.61162607801646
 21
90.85216719660049
 31
0.0
  0
LINE
  5
93
330
17
100
AcDbEntity
  8
FoilLayer
100
AcDbLine
 10
-129.61162607801646
 20
90.85216719660049
 30
0.0
 11
-136.27716857228387
 21
89.69359536312682
 31
0.0
  0
LINE
  5
94
330
17
100
AcDbEntity
  8
FoilLayer
100
AcDbLine
 10
-136.27716857228387
 20
89.69359536312682
 30
0.0
 11
-142.8997315978463
 21
88.47549766779505
 31
0.0
  0
LINE
  5
95
330
17
100
AcDbEntity
  8
FoilLayer
100
AcDbLine
 10
-142.8997315978463
 20
88.47549766779505
 30
0.0
 11
-149.4755192862902
 21
87.19703419435318
 31
0.0
  0
LINE
  5
96
330
17
100
AcDbEntity
  8
FoilLayer
100
AcDbLine
 10
-149.4755192862902
 20
87.19703419435318
 30
0.0
 11
-156.00130769852126
 21
85.85768410913325
 31
0.0
  0
LINE
  5
97
330
17
100
AcDbEntity
  8
FoilLayer
100
AcDbLine
 10
-156.00130769852126
 20
85.85768410913325
 30
0.0
 11
-162.4734112120912
 21
84.4577632702023
 31
0.0
  0
LINE
  5
98
330
17
100
AcDbEntity
  8
FoilLayer
100
AcDbLine
 10
-162.4734112120912
 20
84.4577632702023
 30
0.0
 11
-168.88441280749154
 21
82.99745263036888
 31
0.0
  0
LINE
  5
99
330
17
100
AcDbEntity
  8
FoilLayer
100
AcDbLine
 10
-168.88441280749154
 20
82.99745263036888
 30
0.0
 11
-175.23291311273042
 21
81.47097916328292
 31
0.0
  0
LINE
  5
9A
330
17
100
AcDbEntity
  8
FoilLayer
100
AcDbLine
 10
-175.23291311273042
 20
81.47097916328292
 30
0.0
 11
-181.53120097993232
 21
79.8743003850004
 31
0.0
  0
LINE
  5
9B
330
17
100
AcDbEntity
  8
FoilLayer
100
AcDbLine
 10
-181.53120097993232
 20
79.8743003850004
 30
0.0
 11
-187.77924886668725
 21
78.21829170383046
 31
0.0
  0
LINE
  5
9C
330
17
100
AcDbEntity
  8
FoilLayer
100
AcDbLine
 10
-187.77924886668725
 20
78.21829170383046
 30
0.0
 11
-193.94398440704816
 21
76.5197298149652
 31
0.0
  0
LINE
  5
9D
330
17
100
AcDbEntity
  8
FoilLayer
100
AcDbLine
 10
-193.94398440704816
 20
76.5197298149652
 30
0.0
 11
-199.99081251121484
 21
74.78052300569853
 31
0.0
  0
LINE
  5
9E
330
17
100
AcDbEntity
  8
FoilLayer
100
AcDbLine
 10
-199.99081251121484
 20
74.78052300569853
 30
0.0
 11
-205.90807070375442
 21
72.9924128734795
 31
0.0
  0
LINE
  5
9F
330
17
100
AcDbEntity
  8
FoilLayer
100
AcDbLine
 10
-205.90807070375442
 20
72.9924128734795
 30
0.0
 11
-211.69718110339664
 21
71.14847277193523
 31
0.0
  0
LINE
  5
A0
330
17
100
AcDbEntity
  8
FoilLayer
100
AcDbLine
 10
-211.69718110339664
 20
71.14847277193523
 30
0.0
 11
-217.36244718920645
 21
69.24502430027819
 31
0.0
  0
LINE
  5
A1
330
17
100
AcDbEntity
  8
FoilLayer
100
AcDbLine
 10
-217.36244718920645
 20
69.24502430027819
 30
0.0
 11
-222.907379846412
 21
67.28119805703827
 31
0.0
  0
LINE
  5
A2
330
17
100
AcDbEntity
  8
FoilLayer
100
AcDbLine
 10
-222.907379846412
 20
67.28119805703827
 30
0.0
 11
-228.33166473556062
 21
65.25913874909142
 31
0.0
  0
LINE
  5
A3
330
17
100
AcDbEntity
  8
FoilLayer
100
AcDbLine
 10
-228.33166473556062
 20
65.25913874909142
 30
0.0
 11
-233.62979382944098
 21
63.18461056991333
 31
0.0
  0
LINE
  5
A4
330
17
100
AcDbEntity
  8
FoilLayer
100
AcDbLine
 10
-233.62979382944098
 20
63.18461056991333
 30
0.0
 11
-238.7897344560115
 21
61.06580135806789
 31
0.0
  0
LINE
  5
A5
330
17
100
AcDbEntity
  8
FoilLayer
100
AcDbLine
 10
-238.7897344560115
 20
61.06580135806789
 30
0.0
 11
-243.79711899176294
 21
58.90890105600569
 31
0.0
  0
LINE
  5
A6
330
17
100
AcDbEntity
  8
FoilLayer
100
AcDbLine
 10
-243.79711899176294
 20
58.90890105600569
 30
0.0
 11
-248.6428880138314
 21
56.71866854934961
 31
0.0
  0
LINE
  5
A7
330
17
100
AcDbEntity
  8
FoilLayer
100
AcDbLine
 10
-248.6428880138314
 20
56.71866854934961
 30
0.0
 11
-253.31779503765569
 21
54.507506235779125
 31
0.0
  0
LINE
  5
A8
330
17
100
AcDbEntity
  8
FoilLayer
100
AcDbLine
 10
-253.31779503765569
 20
54.507506235779125
 30
0.0
 11
-257.80331767146777
 21
52.295749429040725
 31
0.0
  0
LINE
  5
A9
330
17
100
AcDbEntity
  8
FoilLayer
100
AcDbLine
 10
-257.80331767146777
 20
52.295749429040725
 30
0.0
 11
-262.0768059534819
 21
50.10082779044766
 31
0.0
  0
LINE
  5
AA
330
17
100
AcDbEntity
  8
FoilLayer
100
AcDbLine
 10
-262.0768059534819
 20
50.10082779044766
 30
0.0
 11
-266.121392121322
 21
47.93348107231271
 31
0.0
  0
LINE
  5
AB
330
17
100
AcDbEntity
  8
FoilLayer
100
AcDbLine
 10
-266.121392121322
 20
47.93348107231271
 30
0.0
 11
-269.9281798283316
 21
45.800228509672245
 31
0.0
  0
LINE
  5
AC
330
17
100
AcDbEntity
  8
FoilLayer
100
AcDbLine
 10
-269.9281798283316
 20
45.800228509672245
 30
0.0
 11
-273.4969438877455
 21
43.704014286121854
 31
0.0
  0
LINE
  5
AD
330
17
100
AcDbEntity
  8
FoilLayer
100
AcDbLine
 10
-273.4969438877455
 20
43.704014286121854
 30
0.0
 11
-276.8338341390021
 21
41.649092991626226
 31
0.0
  0
LINE
  5
AE
330
17
100
AcDbEntity
  8
FoilLayer
100
AcDbLine
 10
-276.8338341390021
 20
41.649092991626226
 30
0.0
 11
-279.9463310026787
 21
39.643046141978196
 31
0.0
  0
LINE
  5
AF
330
17
100
AcDbEntity
  8
FoilLayer
100
AcDbLine
 10
-279.9463310026787
 20
39.643046141978196
 30
0.0
 11
-282.84253648998737
 21
37.69310982720203
 31
0.0
  0
LINE
  5
B0
330
17
100
AcDbEntity
  8
FoilLayer
100
AcDbLine
 10
-282.84253648998737
 20
37.69310982720203
 30
0.0
 11
-285.5307081064107
 21
35.8059403858937
 31
0.0
  0
LINE
  5
B1
330
17
100
AcDbEntity
  8
FoilLayer
100
AcDbLine
 10
-285.5307081064107
 20
35.8059403858937
 30
0.0
 11
-288.0190521253004
 21
33.984748497346565
 31
0.0
  0
LINE
  5
B2
330
17
100
AcDbEntity
  8
FoilLayer
100
AcDbLine
 10
-288.0190521253004
 20
33.984748497346565
 30
0.0
 11
-290.3171794543651
 21
32.22868385921539
 31
0.0
  0
LINE
  5
B3
330
17
100
AcDbEntity
  8
FoilLayer
100
AcDbLine
 10
-290.3171794543651
 20
32.22868385921539
 30
0.0
 11
-292.43588486773217
 21
30.53433012593307
 31
0.0
  0
LINE
  5
B4
330
17
100
AcDbEntity
  8
FoilLayer
100
AcDbLine
 10
-292.43588486773217
 20
30.53433012593307
 30
0.0
 11
-294.3874798242639
 21
28.896034583111565
 31
0.0
  0
LINE
  5
B5
330
17
100
AcDbEntity
  8
FoilLayer
100
AcDbLine
 10
-294.3874798242639
 20
28.896034583111565
 30
0.0
 11
-296.1871400083877
 21
27.30768782507853
 31
0.0
  0
LINE
  5
B6
330
17
100
AcDbEntity
  8
FoilLayer
100
AcDbLine
 10
-296.1871400083877
 20
27.30768782507853
 30
0.0
 11
-297.84987793163475
 21
25.7690707819613
 31
0.0
  0
LINE
  5
B7
330
17
100
AcDbEntity
  8
FoilLayer
100
AcDbLine
 10
-297.84987793163475
 20
25.7690707819613
 30
0.0
 11
-299.3875032869135
 21
24.28252786643754
 31
0.0
  0
LINE
  5
B8
330
17
100
AcDbEntity
  8
FoilLayer
100
AcDbLine
 10
-299.3875032869135
 20
24.28252786643754
 30
0.0
 11
-300.80866990568444
 21
22.848249464671124
 31
0.0
  0
LINE
  5
B9
330
17
100
AcDbEntity
  8
FoilLayer
100
AcDbLine
 10
-300.80866990568444
 20
22.848249464671124
 30
0.0
 11
-302.1214182695832
 21
21.462838431845892
 31
0.0
  0
LINE
  5
BA
330
17
100
AcDbEntity
  8
FoilLayer
100
AcDbLine
 10
-302.1214182695832
 20
21.462838431845892
 30
0.0
 11
-303.333369409517
 21
20.123329126585947
 31
0.0
  0
LINE
  5
BB
330
17
100
AcDbEntity
  8
FoilLayer
100
AcDbLine
 10
-303.333369409517
 20
20.123329126585947
 30
0.0
 11
-304.4514129673379
 21
18.826834615215958
 31
0.0
  0
LINE
  5
BC
330
17
100
AcDbEntity
  8
FoilLayer
100
AcDbLine
 10
-304.4514129673379
 20
18.826834615215958
 30
0.0
 11
-305.4819742004104
 21
17.57033372172081
 31
0.0
  0
LINE
  5
BD
330
17
100
AcDbEntity
  8
FoilLayer
100
AcDbLine
 10
-305.4819742004104
 20
17.57033372172081
 30
0.0
 11
-306.4320568624745
 21
16.349584676502754
 31
0.0
  0
LINE
  5
BE
330
17
100
AcDbEntity
  8
FoilLayer
100
AcDbLine
 10
-306.4320568624745
 20
16.349584676502754
 30
0.0
 11
-307.3088935001836
 21
15.162439134208835
 31
0.0
  0
LINE
  5
BF
330
17
100
AcDbEntity
  8
FoilLayer
100
AcDbLine
 10
-307.3088935001836
 20
15.162439134208835
 30
0.0
 11
-308.11697435179786
 21
14.011339413295097
 31
0.0
  0
LINE
  5
C0
330
17
100
AcDbEntity
  8
FoilLayer
100
AcDbLine
 10
-308.11697435179786
 20
14.011339413295097
 30
0.0
 11
-308.85760663960133
 21
12.896975966379124
 31
0.0
  0
LINE
  5
C1
330
17
100
AcDbEntity
  8
FoilLayer
100
AcDbLine
 10
-308.85760663960133
 20
12.896975966379124
 30
0.0
 11
-309.53584507792687
 21
11.807893679201644
 31
0.0
  0
LINE
  5
C2
330
17
100
AcDbEntity
  8
FoilLayer
100
AcDbLine
 10
-309.53584507792687
 20
11.807893679201644
 30
0.0
 11
-310.162541362074
 21
10.735657647383992
 31
0.0
  0
LINE
  5
C3
330
17
100
AcDbEntity
  8
FoilLayer
100
AcDbLine
 10
-310.162541362074
 20
10.735657647383992
 30
0.0
 11
-310.74076761106244
 21
9.699927650674718
 31
0.0
  0
LINE
  5
C4
330
17
100
AcDbEntity
  8
FoilLayer
100
AcDbLine
 10
-310.74076761106244
 20
9.699927650674718
 30
0.0
 11
-311.2594413209513
 21
8.71844670978536
 31
0.0
  0
LINE
  5
C5
330
17
100
AcDbEntity
  8
FoilLayer
100
AcDbLine
 10
-311.2594413209513
 20
8.71844670978536
 30
0.0
 11
-311.71495706104224
 21
7.758659736929654
 31
0.0
  0
LINE
  5
C6
330
17
100
AcDbEntity
  8
FoilLayer
100
AcDbLine
 10
-311.71495706104224
 20
7.758659736929654
 30
0.0
 11
-312.12197962083786
 21
6.784969371680014
 31
0.0
  0
LINE
  5
C7
330
17
100
AcDbEntity
  8
FoilLayer
100
AcDbLine
 10
-312.12197962083786
 20
6.784969371680014
 30
0.0
 11
-312.4923013675708
 21
5.833341297012634
 31
0.0
  0
LINE
  5
C8
330
17
100
AcDbEntity
  8
FoilLayer
100
AcDbLine
 10
-312.4923013675708
 20
5.833341297012634
 30
0.0
 11
-312.81564637254365
 21
4.945703275617724
 31
0.0
  0
LINE
  5
C9
330
17
100
AcDbEntity
  8
FoilLayer
100
AcDbLine
 10
-312.81564637254365
 20
4.945703275617724
 30
0.0
 11
-313.0795958640478
 21
4.09027744830689
 31
0.0
  0
LINE
  5
CA
330
17
100
AcDbEntity
  8
FoilLayer
100
AcDbLine
 10
-313.0795958640478
 20
4.09027744830689
 30
0.0
 11
-313.2870644972206
 21
3.225381799104701
 31
0.0
  0
LINE
  5
CB
330
17
100
AcDbEntity
  8
FoilLayer
100
AcDbLine
 10
-313.2870644972206
 20
3.225381799104701
 30
0.0
 11
-313.4503133500695
 21
2.367337785299624
 31
0.0
  0
LINE
  5
CC
330
17
100
AcDbEntity
  8
FoilLayer
100
AcDbLine
 10
-313.4503133500695
 20
2.367337785299624
 30
0.0
 11
-313.574248200401
 21
1.542032527650828
 31
0.0
  0
LINE
  5
CD
330
17
100
AcDbEntity
  8
FoilLayer
100
AcDbLine
 10
-313.574248200401
 20
1.542032527650828
 30
0.0
 11
-313.6549982524701
 21
0.7445893518380581
 31
0.0
  0
LINE
  5
CE
330
17
100
AcDbEntity
  8
FoilLayer
100
AcDbLine
 10
-313.6549982524701
 20
0.7445893518380581
 30
0.0
 11
-313.6906779661016
 21
-0.052363620366119266
 31
0.0
  0
LINE
  5
CF
330
17
100
AcDbEntity
  8
FoilLayer
100
AcDbLine
 10
-313.6906779661016
 20
-0.052363620366119266
 30
0.0
 11
-313.68372461170975
 21
-0.7811674832536512
 31
0.0
  0
LINE
  5
D0
330
17
100
AcDbEntity
  8
FoilLayer
100
AcDbLine
 10
-313.68372461170975
 20
-0.7811674832536512
 30
0.0
 11
-313.6294154856633
 21
-1.5145480397237914
 31
0.0
  0
LINE
  5
D1
330
17
100
AcDbEntity
  8
FoilLayer
100
AcDbLine
 10
-313.6294154856633
 20
-1.5145480397237914
 30
0.0
 11
-313.51473904231847
 21
-2.245920785958649
 31
0.0
  0
LINE
  5
D2
330
17
100
AcDbEntity
  8
FoilLayer
100
AcDbLine
 10
-313.51473904231847
 20
-2.245920785958649
 30
0.0
 11
-313.3315841588842
 21
-2.983252294684676
 31
0.0
  0
LINE
  5
D3
330
17
100
AcDbEntity
  8
FoilLayer
100
AcDbLine
 10
-313.3315841588842
 20
-2.983252294684676
 30
0.0
 11
-313.08129970713975
 21
-3.7215447912697983
 31
0.0
  0
LINE
  5
D4
330
17
100
AcDbEntity
  8
FoilLayer
100
AcDbLine
 10
-313.08129970713975
 20
-3.7215447912697983
 30
0.0
 11
-312.7662992044837
 21
-4.453684201820865
 31
0.0
  0
LINE
  5
D5
330
17
100
AcDbEntity
  8
FoilLayer
100
AcDbLine
 10
-312.7662992044837
 20
-4.453684201820865
 30
0.0
 11
-312.3867907616272
 21
-5.174374881210647
 31
0.0
  0
LINE
  5
D6
330
17
100
AcDbEntity
  8
FoilLayer
100
AcDbLine
 10
-312.3867907616272
 20
-5.174374881210647
 30
0.0
 11
-311.9421074128038
 21
-5.8785051888659385
 31
0.0
  0
LINE
  5
D7
330
17
100
AcDbEntity
  8
FoilLayer
100
AcDbLine
 10
-311.9421074128038
 20
-5.8785051888659385
 30
0.0
 11
-311.4248377895054
 21
-6.567772509257945
 31
0.0
  0
LINE
  5
D8
330
17
100
AcDbEntity
  8
FoilLayer
100
AcDbLine
 10
-311.4248377895054
 20
-6.567772509257945
 30
0.0
 11
-310.8310719238483
 21
-7.244455445359792
 31
0.0
  0
LINE
  5
D9
330
17
100
AcDbEntity
  8
FoilLayer
100
AcDbLine
 10
-310.8310719238483
 20
-7.244455445359792
 30
0.0
 11
-310.166753900187
 21
-7.906398662208675
 31
0.0
  0
LINE
  5
DA
330
17
100
AcDbEntity
  8
FoilLayer
100
AcDbLine
 10
-310.166753900187
 20
-7.906398662208675
 30
0.0
 11
-309.43622335103555
 21
-8.551714593935296
 31
0.0
  0
LINE
  5
DB
330
17
100
AcDbEntity
  8
FoilLayer
100
AcDbLine
 10
-309.43622335103555
 20
-8.551714593935296
 30
0.0
 11
-308.64157314920936
 21
-9.178570973686742
 31
0.0
  0
LINE
  5
DC
330
17
100
AcDbEntity
  8
FoilLayer
100
AcDbLine
 10
-308.64157314920936
 20
-9.178570973686742
 30
0.0
 11
-307.7830042556473
 21
-9.784992248390509
 31
0.0
  0
LINE
  5
DD
330
17
100
AcDbEntity
  8
FoilLayer
100
AcDbLine
 10
-307.7830042556473
 20
-9.784992248390509
 30
0.0
 11
-306.85672862721833
 21
-10.370026428790926
 31
0.0
  0
LINE
  5
DE
330
17
100
AcDbEntity
  8
FoilLayer
100
AcDbLine
 10
-306.85672862721833
 20
-10.370026428790926
 30
0.0
 11
-305.85859134869713
 21
-10.933776973746545
 31
0.0
  0
LINE
  5
DF
330
17
100
AcDbEntity
  8
FoilLayer
100
AcDbLine
 10
-305.85859134869713
 20
-10.933776973746545
 30
0.0
 11
-304.78361318128725
 21
-11.477916453368367
 31
0.0
  0
LINE
  5
E0
330
17
100
AcDbEntity
  8
FoilLayer
100
AcDbLine
 10
-304.78361318128725
 20
-11.477916453368367
 30
0.0
 11
-303.6278623632648
 21
-12.005876693892862
 31
0.0
  0
LINE
  5
E1
330
17
100
AcDbEntity
  8
FoilLayer
100
AcDbLine
 10
-303.6278623632648
 20
-12.005876693892862
 30
0.0
 11
-302.3897568830594
 21
-12.522227037797565
 31
0.0
  0
LINE
  5
E2
330
17
100
AcDbEntity
  8
FoilLayer
100
AcDbLine
 10
-302.3897568830594
 20
-12.522227037797565
 30
0.0
 11
-301.06845361233417
 21
-13.031084140801115
 31
0.0
  0
LINE
  5
E3
330
17
100
AcDbEntity
  8
FoilLayer
100
AcDbLine
 10
-301.06845361233417
 20
-13.031084140801115
 30
0.0
 11
-299.66084179619753
 21
-13.535456684399255
 31
0.0
  0
LINE
  5
E4
330
17
100
AcDbEntity
  8
FoilLayer
100
AcDbLine
 10
-299.66084179619753
 20
-13.535456684399255
 30
0.0
 11
-298.16204748313004
 21
-14.037303220948207
 31
0.0
  0
LINE
  5
E5
330
17
100
AcDbEntity
  8
FoilLayer
100
AcDbLine
 10
-298.16204748313004
 20
-14.037303220948207
 30
0.0
 11
-296.56621579669485
 21
-14.537539496329284
 31
0.0
  0
LINE
  5
E6
330
17
100
AcDbEntity
  8
FoilLayer
100
AcDbLine
 10
-296.56621579669485
 20
-14.537539496329284
 30
0.0
 11
-294.86759164700493
 21
-15.035119685676994
 31
0.0
  0
LINE
  5
E7
330
17
100
AcDbEntity
  8
FoilLayer
100
AcDbLine
 10
-294.86759164700493
 20
-15.035119685676994
 30
0.0
 11
-293.0550463016203
 21
-15.526068810065587
 31
0.0
  0
LINE
  5
E8
330
17
100
AcDbEntity
  8
FoilLayer
100
AcDbLine
 10
-293.0550463016203
 20
-15.526068810065587
 30
0.0
 11
-291.11024378628485
 21
-16.006858742499947
 31
0.0
  0
LINE
  5
E9
330
17
100
AcDbEntity
  8
FoilLayer
100
AcDbLine
 10
-291.11024378628485
 20
-16.006858742499947
 30
0.0
 11
-289.01620611735757
 21
-16.479280521930185
 31
0.0
  0
LINE
  5
EA
330
17
100
AcDbEntity
  8
FoilLayer
100
AcDbLine
 10
-289.01620611735757
 20
-16.479280521930185
 30
0.0
 11
-286.75984323821626
 21
-16.94801763460907
 31
0.0
  0
LINE
  5
EB
330
17
100
AcDbEntity
  8
FoilLayer
100
AcDbLine
 10
-286.75984323821626
 20
-16.94801763460907
 30
0.0
 11
-284.32691872590283
 21
-17.416410558854718
 31
0.0
  0
LINE
  5
EC
330
17
100
AcDbEntity
  8
FoilLayer
100
AcDbLine
 10
-284.32691872590283
 20
-17.416410558854718
 30
0.0
 11
-281.70170712428325
 21
-17.885741594928525
 31
0.0
  0
LINE
  5
ED
330
17
100
AcDbEntity
  8
FoilLayer
100
AcDbLine
 10
-281.70170712428325
 20
-17.885741594928525
 30
0.0
 11
-278.8683014021596
 21
-18.352631071260827
 31
0.0
  0
LINE
  5
EE
330
17
100
AcDbEntity
  8
FoilLayer
100
AcDbLine
 10
-278.8683014021596
 20
-18.352631071260827
 30
0.0
 11
-275.8059476016205
 21
-18.808264304980057
 31
0.0
  0
LINE
  5
EF
330
17
100
AcDbEntity
  8
FoilLayer
100
AcDbLine
 10
-275.8059476016205
 20
-18.808264304980057
 30
0.0
 11
-272.4895167360834
 21
-19.24420626249836
 31
0.0
  0
LINE
  5
F0
330
17
100
AcDbEntity
  8
FoilLayer
100
AcDbLine
 10
-272.4895167360834
 20
-19.24420626249836
 30
0.0
 11
-268.89031185515313
 21
-19.6544598395548
 31
0.0
  0
LINE
  5
F1
330
17
100
AcDbEntity
  8
FoilLayer
100
AcDbLine
 10
-268.89031185515313
 20
-19.6544598395548
 30
0.0
 11
-264.9761515992308
 21
-20.03736180309868
 31
0.0
  0
LINE
  5
F2
330
17
100
AcDbEntity
  8
FoilLayer
100
AcDbLine
 10
-264.9761515992308
 20
-20.03736180309868
 30
0.0
 11
-260.7232433124306
 21
-20.399535532815452
 31
0.0
  0
LINE
  5
F3
330
17
100
AcDbEntity
  8
FoilLayer
100
AcDbLine
 10
-260.7232433124306
 20
-20.399535532815452
 30
0.0
 11
-256.12722742012176
 21
-20.745499933734596
 31
0.0
  0
LINE
  5
F4
330
17
100
AcDbEntity
  8
FoilLayer
100
AcDbLine
 10
-256.12722742012176
 20
-20.745499933734596
 30
0.0
 11
-251.19319598537356
 21
-21.06579834931176
 31
0.0
  0
LINE
  5
F5
330
17
100
AcDbEntity
  8
FoilLayer
100
AcDbLine
 10
-251.19319598537356
 20
-21.06579834931176
 30
0.0
 11
-245.92279908985623
 21
-21.346469652310276
 31
0.0
  0
LINE
  5
F6
330
17
100
AcDbEntity
  8
FoilLayer
100
AcDbLine
 10
-245.92279908985623
 20
-21.346469652310276
 30
0.0
 11
-240.31874744006643
 21
-21.58058297674827
 31
0.0
  0
LINE
  5
F7
330
17
100
AcDbEntity
  8
FoilLayer
100
AcDbLine
 10
-240.31874744006643
 20
-21.58058297674827
 30
0.0
 11
-234.38939392089742
 21
-21.76819627513731
 31
0.0
  0
LINE
  5
F8
330
17
100
AcDbEntity
  8
FoilLayer
100
AcDbLine
 10
-234.38939392089742
 20
-21.76819627513731
 30
0.0
 11
-228.15900781243704
 21
-21.916699950478904
 31
0.0
  0
LINE
  5
F9
330
17
100
AcDbEntity
  8
FoilLayer
100
AcDbLine
 10
-228.15900781243704
 20
-21.916699950478904
 30
0.0
 11
-221.6821025655357
 21
-22.033481896067997
 31
0.0
  0
LINE
  5
FA
330
17
100
AcDbEntity
  8
FoilLayer
100
AcDbLine
 10
-221.6821025655357
 20
-22.033481896067997
 30
0.0
 11
-215.02614937821465
 21
-22.114498860701435
 31
0.0
  0
LINE
  5
FB
330
17
100
AcDbEntity
  8
FoilLayer
100
AcDbLine
 10
-215.02614937821465
 20
-22.114498860701435
 30
0.0
 11
-208.2406906975819
 21
-22.148698389678092
 31
0.0
  0
LINE
  5
FC
330
17
100
AcDbEntity
  8
FoilLayer
100
AcDbLine
 10
-208.2406906975819
 20
-22.148698389678092
 30
0.0
 11
-201.34695664117294
 21
-22.123765986616565
 31
0.0
  0
LINE
  5
FD
330
17
100
AcDbEntity
  8
FoilLayer
100
AcDbLine
 10
-201.34695664117294
 20
-22.123765986616565
 30
0.0
 11
-194.3282090891241
 21
-22.033339813693352
 31
0.0
  0
LINE
  5
FE
330
17
100
AcDbEntity
  8
FoilLayer
100
AcDbLine
 10
-194.3282090891241
 20
-22.033339813693352
 30
0.0
 11
-187.16042738427282
 21
-21.888758865202803
 31
0.0
  0
LINE
  5
FF
330
17
100
AcDbEntity
  8
FoilLayer
100
AcDbLine
 10
-187.16042738427282
 20
-21.888758865202803
 30
0.0
 11
-179.861393516318
 21
-21.70804906205415
 31
0.0
  0
LINE
  5
100
330
17
100
AcDbEntity
  8
FoilLayer
100
AcDbLine
 10
-179.861393516318
 20
-21.70804906205415
 30
0.0
 11
-172.46328485764272
 21
-21.494090194566354
 31
0.0
  0
LINE
  5
101
330
17
100
AcDbEntity
  8
FoilLayer
100
AcDbLine
 10
-172.46328485764272
 20
-21.494090194566354
 30
0.0
 11
-164.96982009528378
 21
-21.24479447168927
 31
0.0
  0
LINE
  5
102
330
17
100
AcDbEntity
  8
FoilLayer
100
AcDbLine
 10
-164.96982009528378
 20
-21.24479447168927
 30
0.0
 11
-157.38011378478407
 21
-20.96802508594546
 31
0.0
  0
LINE
  5
103
330
17
100
AcDbEntity
  8
FoilLayer
100
AcDbLine
 10
-157.38011378478407
 20
-20.96802508594546
 30
0.0
 11
-149.71860275903387
 21
-20.675766957789122
 31
0.0
  0
LINE
  5
104
330
17
100
AcDbEntity
  8
FoilLayer
100
AcDbLine
 10
-149.71860275903387
 20
-20.675766957789122
 30
0.0
 11
-147.14797765790792
 21
-20.574586659835642
 31
0.0
  0
LINE
  5
105
330
17
100
AcDbEntity
  8
FoilLayer
100
AcDbLine
 10
-147.14797765790792
 20
-20.574586659835642
 30
0.0
 11
-147.10668143296556
 21
-21.623774260699047
 31
0.0
  0
LINE
  5
106
330
17
100
AcDbEntity
  8
FoilLayer
100
AcDbLine
 10
-147.10668143296556
 20
-21.623774260699047
 30
0.0
 11
-141.9798661195077
 21
-21.421982482120423
 31
0.0
  0
LINE
  5
107
330
17
100
AcDbEntity
  8
FoilLayer
100
AcDbLine
 10
-141.9798661195077
 20
-21.421982482120423
 30
0.0
 11
-134.27838895597023
 21
-21.10567310585546
 31
0.0
  0
LINE
  5
108
330
17
100
AcDbEntity
  8
FoilLayer
100
AcDbLine
 10
-134.27838895597023
 20
-21.10567310585546
 30
0.0
 11
-126.58206962228982
 21
-20.766351325779635
 31
0.0
  0
LINE
  5
109
330
17
100
AcDbEntity
  8
FoilLayer
100
AcDbLine
 10
-126.58206962228982
 20
-20.766351325779635
 30
0.0
 11
-118.86818137439693
 21
-20.39810054623139
 31
0.0
  0
LINE
  5
10A
330
17
100
AcDbEntity
  8
FoilLayer
100
AcDbLine
 10
-118.86818137439693
 20
-20.39810054623139
 30
0.0
 11
-111.11653838528926
 21
-20.00704794928129
 31
0.0
  0
LINE
  5
10B
330
17
100
AcDbEntity
  8
FoilLayer
100
AcDbLine
 10
-111.11653838528926
 20
-20.00704794928129
 30
0.0
 11
-103.33212282599959
 21
-19.602283106943826
 31
0.0
  0
LINE
  5
10C
330
17
100
AcDbEntity
  8
FoilLayer
100
AcDbLine
 10
-103.33212282599959
 20
-19.602283106943826
 30
0.0
 11
-95.5333891450027
 21
-19.18895304498282
 31
0.0
  0
LINE
  5
10D
330
17
100
AcDbEntity
  8
FoilLayer
100
AcDbLine
 10
-95.5333891450027
 20
-19.18895304498282
 30
0.0
 11
-87.74257512795211
 21
-18.765819224780344
 31
0.0
  0
LINE
  5
10E
330
17
100
AcDbEntity
  8
FoilLayer
100
AcDbLine
 10
-87.74257512795211
 20
-18.765819224780344
 30
0.0
 11
-79.96232407308256
 21
-18.32395822014597
 31
0.0
  0
LINE
  5
10F
330
17
100
AcDbEntity
  8
FoilLayer
100
AcDbLine
 10
-79.96232407308256
 20
-18.32395822014597
 30
0.0
 11
-72.16804049823767
 21
-17.858041957764506
 31
0.0
  0
LINE
  5
110
330
17
100
AcDbEntity
  8
FoilLayer
100
AcDbLine
 10
-72.16804049823767
 20
-17.858041957764506
 30
0.0
 11
-64.33788858741184
 21
-17.372418704212496
 31
0.0
  0
LINE
  5
111
330
17
100
AcDbEntity
  8
FoilLayer
100
AcDbLine
 10
-64.33788858741184
 20
-17.372418704212496
 30
0.0
 11
-56.47149997547996
 21
-16.87834772396292
 31
0.0
  0
LINE
  5
112
330
17
100
AcDbEntity
  8
FoilLayer
100
AcDbLine
 10
-56.47149997547996
 20
-16.87834772396292
 30
0.0
 11
-48.58731045861174
 21
-16.388984925695812
 31
0.0
  0
LINE
  5
113
330
17
100
AcDbEntity
  8
FoilLayer
100
AcDbLine
 10
-48.58731045861174
 20
-16.388984925695812
 30
0.0
 11
-40.68520158156679
 21
-15.9040332574094
 31
0.0
  0
LINE
  5
114
330
17
100
AcDbEntity
  8
FoilLayer
100
AcDbLine
 10
-40.68520158156679
 20
-15.9040332574094
 30
0.0
 11
-32.775264274238054
 21
-15.412535758292819
 31
0.0
  0
LINE
  5
115
330
17
100
AcDbEntity
  8
FoilLayer
100
AcDbLine
 10
-32.775264274238054
 20
-15.412535758292819
 30
0.0
 11
-24.84650579559184
 21
-14.911015656393138
 31
0.0
  0
LINE
  5
116
330
17
100
AcDbEntity
  8
FoilLayer
100
AcDbLine
 10
-24.84650579559184
 20
-14.911015656393138
 30
0.0
 11
-16.898647545186464
 21
-14.405275727107806
 31
0.0
  0
LINE
  5
117
330
17
100
AcDbEntity
  8
FoilLayer
100
AcDbLine
 10
-16.898647545186464
 20
-14.405275727107806
 30
0.0
 11
-8.944367956344138
 21
-13.90095727504205
 31
0.0
  0
LINE
  5
118
330
17
100
AcDbEntity
  8
FoilLayer
100
AcDbLine
 10
-8.944367956344138
 20
-13.90095727504205
 30
0.0
 11
-0.9878753880028057
 21
-13.400419489999205
 31
0.0
  0
LINE
  5
119
330
17
100
AcDbEntity
  8
FoilLayer
100
AcDbLine
 10
-0.9878753880028057
 20
-13.400419489999205
 30
0.0
 11
6.970512412215442
 21
-12.904175986455858
 31
0.0
  0
LINE
  5
11A
330
17
100
AcDbEntity
  8
FoilLayer
100
AcDbLine
 10
6.970512412215442
 20
-12.904175986455858
 30
0.0
 11
14.92816305786937
 21
-12.410221582701487
 31
0.0
  0
LINE
  5
11B
330
17
100
AcDbEntity
  8
FoilLayer
100
AcDbLine
 10
14.92816305786937
 20
-12.410221582701487
 30
0.0
 11
22.878336250014513
 21
-11.913341227337687
 31
0.0
  0
LINE
  5
11C
330
17
100
AcDbEntity
  8
FoilLayer
100
AcDbLine
 10
22.878336250014513
 20
-11.913341227337687
 30
0.0
 11
30.827381886686112
 21
-11.408714682163463
 31
0.0
  0
LINE
  5
11D
330
17
100
AcDbEntity
  8
FoilLayer
100
AcDbLine
 10
30.827381886686112
 20
-11.408714682163463
 30
0.0
 11
38.78328090539134
 21
-10.899693174493043
 31
0.0
  0
LINE
  5
11E
330
17
100
AcDbEntity
  8
FoilLayer
100
AcDbLine
 10
38.78328090539134
 20
-10.899693174493043
 30
0.0
 11
46.738804195980094
 21
-10.393521332350087
 31
0.0
  0
LINE
  5
11F
330
17
100
AcDbEntity
  8
FoilLayer
100
AcDbLine
 10
46.738804195980094
 20
-10.393521332350087
 30
0.0
 11
54.69535837313231
 21
-9.892396575411329
 31
0.0
  0
LINE
  5
120
330
17
100
AcDbEntity
  8
FoilLayer
100
AcDbLine
 10
54.69535837313231
 20
-9.892396575411329
 30
0.0
 11
62.65398213083182
 21
-9.395155947753409
 31
0.0
  0
LINE
  5
121
330
17
100
AcDbEntity
  8
FoilLayer
100
AcDbLine
 10
62.65398213083182
 20
-9.395155947753409
 30
0.0
 11
70.61060053455452
 21
-8.89700590916794
 31
0.0
  0
LINE
  5
122
330
17
100
AcDbEntity
  8
FoilLayer
100
AcDbLine
 10
70.61060053455452
 20
-8.89700590916794
 30
0.0
 11
78.5630103214599
 21
-8.393813413192541
 31
0.0
  0
LINE
  5
123
330
17
100
AcDbEntity
  8
FoilLayer
100
AcDbLine
 10
78.5630103214599
 20
-8.393813413192541
 30
0.0
 11
86.51633034487247
 21
-7.885147912046666
 31
0.0
  0
LINE
  5
124
330
17
100
AcDbEntity
  8
FoilLayer
100
AcDbLine
 10
86.51633034487247
 20
-7.885147912046666
 30
0.0
 11
94.46874221098591
 21
-7.373859612192099
 31
0.0
  0
LINE
  5
125
330
17
100
AcDbEntity
  8
FoilLayer
100
AcDbLine
 10
94.46874221098591
 20
-7.373859612192099
 30
0.0
 11
102.41339502292936
 21
-6.865162577267864
 31
0.0
  0
LINE
  5
126
330
17
100
AcDbEntity
  8
FoilLayer
100
AcDbLine
 10
102.41339502292936
 20
-6.865162577267864
 30
0.0
 11
110.34830490837282
 21
-6.363184188160212
 31
0.0
  0
LINE
  5
127
330
17
100
AcDbEntity
  8
FoilLayer
100
AcDbLine
 10
110.34830490837282
 20
-6.363184188160212
 30
0.0
 11
118.27739376137868
 21
-5.869276414377957
 31
0.0
  0
LINE
  5
128
330
17
100
AcDbEntity
  8
FoilLayer
100
AcDbLine
 10
118.27739376137868
 20
-5.869276414377957
 30
0.0
 11
126.20511232556265
 21
-5.382772122023986
 31
0.0
  0
LINE
  5
129
330
17
100
AcDbEntity
  8
FoilLayer
100
AcDbLine
 10
126.20511232556265
 20
-5.382772122023986
 30
0.0
 11
134.13139893886802
 21
-4.901731519905002
 31
0.0
  0
LINE
  5
12A
330
17
100
AcDbEntity
  8
FoilLayer
100
AcDbLine
 10
134.13139893886802
 20
-4.901731519905002
 30
0.0
 11
142.0498252863585
 21
-4.426483246845525
 31
0.0
  0
LINE
  5
12B
330
17
100
AcDbEntity
  8
FoilLayer
100
AcDbLine
 10
142.0498252863585
 20
-4.426483246845525
 30
0.0
 11
149.95767299928468
 21
-3.959377883113831
 31
0.0
  0
LINE
  5
12C
330
17
100
AcDbEntity
  8
FoilLayer
100
AcDbLine
 10
149.95767299928468
 20
-3.959377883113831
 30
0.0
 11
157.85850039905262
 21
-3.5033610636489496
 31
0.0
  0
LINE
  5
12D
330
17
100
AcDbEntity
  8
FoilLayer
100
AcDbLine
 10
157.85850039905262
 20
-3.5033610636489496
 30
0.0
 11
165.7636019879867
 21
-3.0599629104571098
 31
0.0
  0
LINE
  5
12E
330
17
100
AcDbEntity
  8
FoilLayer
100
AcDbLine
 10
165.7636019879867
 20
-3.0599629104571098
 30
0.0
 11
173.6869142505875
 21
-2.6252423593759686
 31
0.0
  0
LINE
  5
12F
330
17
100
AcDbEntity
  8
FoilLayer
100
AcDbLine
 10
173.6869142505875
 20
-2.6252423593759686
 30
0.0
 11
181.62637529712737
 21
-2.1928929964964543
 31
0.0
  0
LINE
  5
130
330
17
100
AcDbEntity
  8
FoilLayer
100
AcDbLine
 10
181.62637529712737
 20
-2.1928929964964543
 30
0.0
 11
189.56901003527094
 21
-1.757864468655309
 31
0.0
  0
LINE
  5
131
330
17
100
AcDbEntity
  8
FoilLayer
100
AcDbLine
 10
189.56901003527094
 20
-1.757864468655309
 30
0.0
 11
197.51404845836498
 21
-1.3168563515072202
 31
0.0
  0
LINE
  5
132
330
17
100
AcDbEntity
  8
FoilLayer
100
AcDbLine
 10
197.51404845836498
 20
-1.3168563515072202
 30
0.0
 11
205.46023624749716
 21
-0.8738092115462804
 31
0.0
  0
LINE
  5
133
330
17
100
AcDbEntity
  8
FoilLayer
100
AcDbLine
 10
205.46023624749716
 20
-0.8738092115462804
 30
0.0
 11
213.3995904170904
 21
-0.4361337484142443
 31
0.0
  0
LINE
  5
134
330
17
100
AcDbEntity
  8
FoilLayer
100
AcDbLine
 10
213.3995904170904
 20
-0.4361337484142443
 30
0.0
 11
221.3364511810039
 21
-0.006110286612011406
 31
0.0
  0
LINE
  5
135
330
17
100
AcDbEntity
  8
FoilLayer
100
AcDbLine
 10
221.3364511810039
 20
-0.006110286612011406
 30
0.0
 11
229.2754976348009
 21
0.41750724572149
 31
0.0
  0
LINE
  5
136
330
17
100
AcDbEntity
  8
FoilLayer
100
AcDbLine
 10
229.2754976348009
 20
0.41750724572149
 30
0.0
 11
237.21240262548736
 21
0.8404367173268312
 31
0.0
  0
LINE
  5
137
330
17
100
AcDbEntity
  8
FoilLayer
100
AcDbLine
 10
237.21240262548736
 20
0.8404367173268312
 30
0.0
 11
245.13902878403565
 21
1.2674173296370654
 31
0.0
  0
LINE
  5
138
330
17
100
AcDbEntity
  8
FoilLayer
100
AcDbLine
 10
245.13902878403565
 20
1.2674173296370654
 30
0.0
 11
253.0518270687835
 21
1.6927413971698042
 31
0.0
  0
LINE
  5
139
330
17
100
AcDbEntity
  8
FoilLayer
100
AcDbLine
 10
253.0518270687835
 20
1.6927413971698042
 30
0.0
 11
260.943527336142
 21
2.1079075785584247
 31
0.0
  0
LINE
  5
13A
330
17
100
AcDbEntity
  8
FoilLayer
100
AcDbLine
 10
260.943527336142
 20
2.1079075785584247
 30
0.0
 11
268.8234761615272
 21
2.5090367547417793
 31
0.0
  0
LINE
  5
13B
330
17
100
AcDbEntity
  8
FoilLayer
100
AcDbLine
 10
268.8234761615272
 20
2.5090367547417793
 30
0.0
 11
276.70621602056485
 21
2.896613115681727
 31
0.0
  0
LINE
  5
13C
330
17
100
AcDbEntity
  8
FoilLayer
100
AcDbLine
 10
276.70621602056485
 20
2.896613115681727
 30
0.0
 11
284.596746236791
 21
3.2779560920891697
 31
0.0
  0
LINE
  5
13D
330
17
100
AcDbEntity
  8
FoilLayer
100
AcDbLine
 10
284.596746236791
 20
3.2779560920891697
 30
0.0
 11
292.4758268506863
 21
3.657032802108807
 31
0.0
  0
LINE
  5
13E
330
17
100
AcDbEntity
  8
FoilLayer
100
AcDbLine
 10
292.4758268506863
 20
3.657032802108807
 30
0.0
 11
300.31841817266434
 21
4.03150585520822
 31
0.0
  0
LINE
  5
13F
330
17
100
AcDbEntity
  8
FoilLayer
100
AcDbLine
 10
300.31841817266434
 20
4.03150585520822
 30
0.0
 11
308.1055353166074
 21
4.393400424547972
 31
0.0
  0
LINE
  5
140
330
17
100
AcDbEntity
  8
FoilLayer
100
AcDbLine
 10
308.1055353166074
 20
4.393400424547972
 30
0.0
 11
315.8385103946679
 21
4.731343388587968
 31
0.0
  0
LINE
  5
141
330
17
100
AcDbEntity
  8
FoilLayer
100
AcDbLine
 10
315.8385103946679
 20
4.731343388587968
 30
0.0
 11
323.5409749583449
 21
5.0439570164928025
 31
0.0
  0
LINE
  5
142
330
17
100
AcDbEntity
  8
FoilLayer
100
AcDbLine
 10
323.5409749583449
 20
5.0439570164928025
 30
0.0
 11
331.2093908911919
 21
5.342791096322889
 31
0.0
  0
LINE
  5
143
330
17
100
AcDbEntity
  8
FoilLayer
100
AcDbLine
 10
331.2093908911919
 20
5.342791096322889
 30
0.0
 11
338.80402862337644
 21
5.623763597698905
 31
0.0
  0
LINE
  5
144
330
17
100
AcDbEntity
  8
FoilLayer
100
AcDbLine
 10
338.80402862337644
 20
5.623763597698905
 30
0.0
 11
346.3217555288945
 21
5.865655466087501
 31
0.0
  0
LINE
  5
145
330
17
100
AcDbEntity
  8
FoilLayer
100
AcDbLine
 10
346.3217555288945
 20
5.865655466087501
 30
0.0
 11
353.8010980873863
 21
6.061966072008628
 31
0.0
  0
LINE
  5
146
330
17
100
AcDbEntity
  8
FoilLayer
100
AcDbLine
 10
353.8010980873863
 20
6.061966072008628
 30
0.0
 11
361.2667796808895
 21
6.221601274812126
 31
0.0
  0
LINE
  5
147
330
17
100
AcDbEntity
  8
FoilLayer
100
AcDbLine
 10
361.2667796808895
 20
6.221601274812126
 30
0.0
 11
368.70398836759045
 21
6.361875078896261
 31
0.0
  0
LINE
  5
148
330
17
100
AcDbEntity
  8
FoilLayer
100
AcDbLine
 10
368.70398836759045
 20
6.361875078896261
 30
0.0
 11
376.0759335252012
 21
6.506794700790508
 31
0.0
  0
LINE
  5
149
330
17
100
AcDbEntity
  8
FoilLayer
100
AcDbLine
 10
376.0759335252012
 20
6.506794700790508
 30
0.0
 11
383.3101898825364
 21
6.635116283266717
 31
0.0
  0
LINE
  5
14A
330
17
100
AcDbEntity
  8
FoilLayer
100
AcDbLine
 10
383.3101898825364
 20
6.635116283266717
 30
0.0
 11
390.4046251556531
 21
6.68395566530178
 31
0.0
  0
LINE
  5
14B
330
17
100
AcDbEntity
  8
FoilLayer
100
AcDbLine
 10
390.4046251556531
 20
6.68395566530178
 30
0.0
 11
397.4783173306239
 21
6.651343262053247
 31
0.0
  0
LINE
  5
14C
330
17
100
AcDbEntity
  8
FoilLayer
100
AcDbLine
 10
397.4783173306239
 20
6.651343262053247
 30
0.0
 11
404.55404928991675
 21
6.616381757071591
 31
0.0
  0
LINE
  5
14D
330
17
100
AcDbEntity
  8
FoilLayer
100
AcDbLine
 10
404.55404928991675
 20
6.616381757071591
 30
0.0
 11
411.5585543051234
 21
6.596099990037411
 31
0.0
  0
LINE
  5
14E
330
17
100
AcDbEntity
  8
FoilLayer
100
AcDbLine
 10
411.5585543051234
 20
6.596099990037411
 30
0.0
 11
418.4693545131903
 21
6.5197768110225605
 31
0.0
  0
LINE
  5
14F
330
17
100
AcDbEntity
  8
FoilLayer
100
AcDbLine
 10
418.4693545131903
 20
6.5197768110225605
 30
0.0
 11
425.35126476052153
 21
6.363108052169835
 31
0.0
  0
LINE
  5
150
330
17
100
AcDbEntity
  8
FoilLayer
100
AcDbLine
 10
425.35126476052153
 20
6.363108052169835
 30
0.0
 11
432.2155576216395
 21
6.208079305313869
 31
0.0
  0
LINE
  5
151
330
17
100
AcDbEntity
  8
FoilLayer
100
AcDbLine
 10
432.2155576216395
 20
6.208079305313869
 30
0.0
 11
439.0079494461256
 21
6.088401213054178
 31
0.0
  0
LINE
  5
152
330
17
100
AcDbEntity
  8
FoilLayer
100
AcDbLine
 10
439.0079494461256
 20
6.088401213054178
 30
0.0
 11
445.70625380605725
 21
5.919019887523478
 31
0.0
  0
LINE
  5
153
330
17
100
AcDbEntity
  8
FoilLayer
100
AcDbLine
 10
445.70625380605725
 20
5.919019887523478
 30
0.0
 11
452.3758942468179
 21
5.632402754690872
 31
0.0
  0
LINE
  5
154
330
17
100
AcDbEntity
  8
FoilLayer
100
AcDbLine
 10
452.3758942468179
 20
5.632402754690872
 30
0.0
 11
459.0910469239965
 21
5.289059625692984
 31
0.0
  0
LINE
  5
155
330
17
100
AcDbEntity
  8
FoilLayer
100
AcDbLine
 10
459.0910469239965
 20
5.289059625692984
 30
0.0
 11
465.77169644086473
 21
4.948703085918541
 31
0.0
  0
LINE
  5
156
330
17
100
AcDbEntity
  8
FoilLayer
100
AcDbLine
 10
465.77169644086473
 20
4.948703085918541
 30
0.0
 11
472.28337327019017
 21
4.584473080005559
 31
0.0
  0
LINE
  5
157
330
17
100
AcDbEntity
  8
FoilLayer
100
AcDbLine
 10
472.28337327019017
 20
4.584473080005559
 30
0.0
 11
478.6645927316175
 21
4.093046315458052
 31
0.0
  0
LINE
  5
158
330
17
100
AcDbEntity
  8
FoilLayer
100
AcDbLine
 10
478.6645927316175
 20
4.093046315458052
 30
0.0
 11
485.0141668269646
 21
3.534556028583972
 31
0.0
  0
LINE
  5
159
330
17
100
AcDbEntity
  8
FoilLayer
100
AcDbLine
 10
485.0141668269646
 20
3.534556028583972
 30
0.0
 11
491.2456548062926
 21
2.951672016656483
 31
0.0
  0
LINE
  5
15A
330
17
100
AcDbEntity
  8
FoilLayer
100
AcDbLine
 10
491.2456548062926
 20
2.951672016656483
 30
0.0
 11
497.2714357292916
 21
2.3770851386001026
 31
0.0
  0
LINE
  5
15B
330
17
100
AcDbEntity
  8
FoilLayer
100
AcDbLine
 10
497.2714357292916
 20
2.3770851386001026
 30
0.0
 11
503.00773167486363
 21
1.7842511423827248
 31
0.0
  0
LINE
  5
15C
330
17
100
AcDbEntity
  8
FoilLayer
100
AcDbLine
 10
503.00773167486363
 20
1.7842511423827248
 30
0.0
 11
508.43560268361114
 21
1.1820508199165378
 31
0.0
  0
LINE
  5
15D
330
17
100
AcDbEntity
  8
FoilLayer
100
AcDbLine
 10
508.43560268361114
 20
1.1820508199165378
 30
0.0
 11
513.5276101938306
 21
0.6195345974793816
 31
0.0
  0
LINE
  5
15E
330
17
100
AcDbEntity
  8
FoilLayer
100
AcDbLine
 10
513.5276101938306
 20
0.6195345974793816
 30
0.0
 11
518.2606196037642
 21
0.06826514192842753
 31
0.0
  0
LINE
  5
15F
330
17
100
AcDbEntity
  8
FoilLayer
100
AcDbLine
 10
518.2606196037642
 20
0.06826514192842753
 30
0.0
 11
522.6213115101161
 21
-0.45906037437130137
 31
0.0
  0
LINE
  5
160
330
17
100
AcDbEntity
  8
FoilLayer
100
AcDbLine
 10
522.6213115101161
 20
-0.45906037437130137
 30
0.0
 11
525.3179959336911
 21
-0.8133343067166682
 31
0.0
  0
LINE
  5
161
330
17
100
AcDbEntity
  8
FoilLayer
100
AcDbLine
 10
525.3179959336911
 20
-0.8133343067166682
 30
0.0
 11
525.1806307895582
 21
0.8327641723254169
 31
0.0
  0
LINE
  5
162
330
17
100
AcDbEntity
  8
StringerLayer
100
AcDbLine
 10
228.04743798352433
 20
75.62751144415654
 30
0.0
 11
231.96126605441987
 21
74.80170890633656
 31
0.0
  0
LINE
  5
163
330
17
100
AcDbEntity
  8
StringerLayer
100
AcDbLine
 10
231.96126605441987
 20
74.80170890633656
 30
0.0
 11
232.78706859223985
 21
78.71553697723212
 31
0.0
  0
LINE
  5
164
330
17
100
AcDbEntity
  8
StringerLayer
100
AcDbLine
 10
232.78706859223985
 20
78.71553697723212
 30
0.0
 11
228.87324052134431
 21
79.5413395150521
 31
0.0
  0
LINE
  5
165
330
17
100
AcDbEntity
  8
StringerLayer
100
AcDbLine
 10
228.87324052134431
 20
79.5413395150521
 30
0.0
 11
228.04743798352433
 21
75.62751144415654
 31
0.0
  0
LINE
  5
166
330
17
100
AcDbEntity
  8
StringerLayer
100
AcDbLine
 10
-89.65350643250697
 20
92.45982325622236
 30
0.0
 11
-85.67646292717994
 21
92.88775427488778
 31
0.0
  0
LINE
  5
167
330
17
100
AcDbEntity
  8
StringerLayer
100
AcDbLine
 10
-85.67646292717994
 20
92.88775427488778
 30
0.0
 11
-86.10439394584536
 21
96.86479778021481
 31
0.0
  0
LINE
  5
168
330
17
100
AcDbEntity
  8
StringerLayer
100
AcDbLine
 10
-86.10439394584536
 20
96.86479778021481
 30
0.0
 11
-90.08143745117239
 21
96.4368667615494
 31
0.0
  0
LINE
  5
169
330
17
100
AcDbEntity
  8
StringerLayer
100
AcDbLine
 10
-90.08143745117239
 20
96.4368667615494
 30
0.0
 11
-89.65350643250697
 21
92.45982325622236
 31
0.0
  0
LINE
  5
16A
330
17
100
AcDbEntity
  8
StringerLayer
100
AcDbLine
 10
-230.99662148764745
 20
59.91977668356954
 30
0.0
 11
-227.27202373688053
 21
61.37832788081353
 31
0.0
  0
LINE
  5
16B
330
17
100
AcDbEntity
  8
StringerLayer
100
AcDbLine
 10
-227.27202373688053
 20
61.37832788081353
 30
0.0
 11
-228.73057493412452
 21
65.10292563158046
 31
0.0
  0
LINE
  5
16C
330
17
100
AcDbEntity
  8
StringerLayer
100
AcDbLine
 10
-228.73057493412452
 20
65.10292563158046
 30
0.0
 11
-232.45517268489144
 21
63.64437443433647
 31
0.0
  0
LINE
  5
16D
330
17
100
AcDbEntity
  8
StringerLayer
100
AcDbLine
 10
-232.45517268489144
 20
63.64437443433647
 30
0.0
 11
-230.99662148764745
 21
59.91977668356954
 31
0.0
  0
LINE
  5
16E
330
17
100
AcDbEntity
  8
StringerLayer
100
AcDbLine
 10
-299.2775490763893
 20
18.64799419328348
 30
0.0
 11
-297.9022229568635
 21
20.100054131767514
 31
0.0
  0
LINE
  5
16F
330
17
100
AcDbEntity
  8
StringerLayer
100
AcDbLine
 10
-297.9022229568635
 20
20.100054131767514
 30
0.0
 11
-300.8063428338316
 21
22.850706370819
 31
0.0
  0
LINE
  5
170
330
17
100
AcDbEntity
  8
StringerLayer
100
AcDbLine
 10
-300.8063428338316
 20
22.850706370819
 30
0.0
 11
-302.18166895335736
 21
21.398646432334967
 31
0.0
  0
LINE
  5
171
330
17
100
AcDbEntity
  8
StringerLayer
100
AcDbLine
 10
-302.18166895335736
 20
21.398646432334967
 30
0.0
 11
-299.2775490763893
 21
18.64799419328348
 31
0.0
  0
LINE
  5
172
330
17
100
AcDbEntity
  8
StringerLayer
100
AcDbLine
 10
-303.21581225492326
 20
-7.829560764757935
 30
0.0
 11
-304.95856013872816
 21
-6.848321847116796
 31
0.0
  0
LINE
  5
173
330
17
100
AcDbEntity
  8
StringerLayer
100
AcDbLine
 10
-304.95856013872816
 20
-6.848321847116796
 30
0.0
 11
-306.92103797401046
 21
-10.333817614726588
 31
0.0
  0
LINE
  5
174
330
17
100
AcDbEntity
  8
StringerLayer
100
AcDbLine
 10
-306.92103797401046
 20
-10.333817614726588
 30
0.0
 11
-305.17829009020556
 21
-11.315056532367727
 31
0.0
  0
LINE
  5
175
330
17
100
AcDbEntity
  8
StringerLayer
100
AcDbLine
 10
-305.17829009020556
 20
-11.315056532367727
 30
0.0
 11
-303.21581225492326
 21
-7.829560764757935
 31
0.0
  0
LINE
  5
176
330
17
100
AcDbEntity
  8
StringerLayer
100
AcDbLine
 10
-187.2257433487823
 20
-17.889246899968256
 30
0.0
 11
-191.22492968542142
 21
-17.969923072652534
 31
0.0
  0
LINE
  5
177
330
17
100
AcDbEntity
  8
StringerLayer
100
AcDbLine
 10
-191.22492968542142
 20
-17.969923072652534
 30
0.0
 11
-191.14425351273712
 21
-21.969109409291654
 31
0.0
  0
LINE
  5
178
330
17
100
AcDbEntity
  8
StringerLayer
100
AcDbLine
 10
-191.14425351273712
 20
-21.969109409291654
 30
0.0
 11
-187.145067176098
 21
-21.888433236607376
 31
0.0
  0
LINE
  5
179
330
17
100
AcDbEntity
  8
StringerLayer
100
AcDbLine
 10
-187.145067176098
 20
-21.888433236607376
 30
0.0
 11
-187.2257433487823
 21
-17.889246899968256
 31
0.0
  0
LINE
  5
17A
330
17
100
AcDbEntity
  8
SubLayer
100
AcDbLine
 10
-315.1906779661016
 20
0.0
 30
0.0
 11
-311.1906779661016
 21
0.0
 31
0.0
  0
LINE
  5
17B
330
17
100
AcDbEntity
  8
SubLayer
100
AcDbLine
 10
61.03813559322032
 20
0.0
 30
0.0
 11
73.44322033898305
 21
0.0
 31
0.0
  0
LINE
  5
17C
330
17
100
AcDbEntity
  8
SubLayer
100
AcDbLine
 10
-44.91832037408901
 20
41.27770516422079
 30
0.0
 11
-36.94189835627365
 21
41.89145738923534
 31
0.0
  0
LINE
  5
17D
330
17
100
AcDbEntity
  8
SubLayer
100
AcDbLine
 10
36.94189835627365
 20
47.57650571335452
 30
0.0
 11
44.91832037408901
 21
48.19025793836907
 31
0.0
  0
LINE
  5
17E
330
17
100
AcDbEntity
  8
SubLayer
100
AcDbLine
 10
-3.252816402868803
 20
87.00810344981616
 30
0.0
 11
-2.639064177854254
 21
79.0316814320008
 31
0.0
  0
LINE
  5
17F
330
17
100
AcDbEntity
  8
SubLayer
100
AcDbLine
 10
3.252816402868803
 20
2.4598596527736944
 30
0.0
 11
2.639064177854254
 21
10.43628167058906
 31
0.0
  0
LINE
  5
180
330
17
100
AcDbEntity
  8
SubLayer
100
AcDbLine
 10
-42.770776813381524
 20
39.43703771602059
 30
0.0
 11
-38.78256580447385
 21
39.743913828527866
 31
0.0
  0
LINE
  5
181
330
17
100
AcDbEntity
  8
SubLayer
100
AcDbLine
 10
-38.78256580447385
 20
39.743913828527866
 30
0.0
 11
-39.08944191698112
 21
43.73212483743554
 31
0.0
  0
LINE
  5
182
330
17
100
AcDbEntity
  8
SubLayer
100
AcDbLine
 10
-39.08944191698112
 20
43.73212483743554
 30
0.0
 11
-43.0776529258888
 21
43.42524872492827
 31
0.0
  0
LINE
  5
183
330
17
100
AcDbEntity
  8
SubLayer
100
AcDbLine
 10
-43.0776529258888
 20
43.42524872492827
 30
0.0
 11
-42.770776813381524
 21
39.43703771602059
 31
0.0
  0
LINE
  5
184
330
17
100
AcDbEntity
  8
SubLayer
100
AcDbLine
 10
39.08944191698112
 20
45.73583826515432
 30
0.0
 11
43.0776529258888
 21
46.042714377661596
 31
0.0
  0
LINE
  5
185
330
17
100
AcDbEntity
  8
SubLayer
100
AcDbLine
 10
43.0776529258888
 20
46.042714377661596
 30
0.0
 11
42.770776813381524
 21
50.03092538656927
 31
0.0
  0
LINE
  5
186
330
17
100
AcDbEntity
  8
SubLayer
100
AcDbLine
 10
42.770776813381524
 20
50.03092538656927
 30
0.0
 11
38.78256580447385
 21
49.724049274062
 31
0.0
  0
LINE
  5
187
330
17
100
AcDbEntity
  8
SubLayer
100
AcDbLine
 10
38.78256580447385
 20
49.724049274062
 30
0.0
 11
39.08944191698112
 21
45.73583826515432
 31
0.0
  0
LINE
  5
188
330
17
100
AcDbEntity
  8
SubLayer
100
AcDbLine
 10
-4.786607738561732
 20
80.872348880201
 30
0.0
 11
-0.7983967296540504
 21
81.17922499270827
 31
0.0
  0
LINE
  5
189
330
17
100
AcDbEntity
  8
SubLayer
100
AcDbLine
 10
-0.7983967296540504
 20
81.17922499270827
 30
0.0
 11
-1.1052728421613252
 21
85.16743600161595
 31
0.0
  0
LINE
  5
18A
330
17
100
AcDbEntity
  8
SubLayer
100
AcDbLine
 10
-1.1052728421613252
 20
85.16743600161595
 30
0.0
 11
-5.093483851069006
 21
84.86055988910869
 31
0.0
  0
LINE
  5
18B
330
17
100
AcDbEntity
  8
SubLayer
100
AcDbLine
 10
-5.093483851069006
 20
84.86055988910869
 30
0.0
 11
-4.786607738561732
 21
80.872348880201
 31
0.0
  0
LINE
  5
18C
330
17
100
AcDbEntity
  8
SubLayer
100
AcDbLine
 10
1.1052728421613252
 20
4.3005271009739
 30
0.0
 11
5.093483851069006
 21
4.607403213481175
 31
0.0
  0
LINE
  5
18D
330
17
100
AcDbEntity
  8
SubLayer
100
AcDbLine
 10
5.093483851069006
 20
4.607403213481175
 30
0.0
 11
4.786607738561732
 21
8.595614222388855
 31
0.0
  0
LINE
  5
18E
330
17
100
AcDbEntity
  8
SubLayer
100
AcDbLine
 10
4.786607738561732
 20
8.595614222388855
 30
0.0
 11
0.7983967296540504
 21
8.288738109881582
 31
0.0
  0
LINE
  5
18F
330
17
100
AcDbEntity
  8
SubLayer
100
AcDbLine
 10
0.7983967296540504
 20
8.288738109881582
 30
0.0
 11
1.1052728421613252
 21
4.3005271009739
 31
0.0
  0
LINE
  5
190
330
17
100
AcDbEntity
  8
SubLayer
100
AcDbLine
 10
355.93927604516904
 20
48.71254569911791
 30
0.0
 11
359.9274870540767
 21
49.01942181162518
 31
0.0
  0
LINE
  5
191
330
17
100
AcDbEntity
  8
SubLayer
100
AcDbLine
 10
-315.37400253695245
 20
-2.942195924550059
 30
0.0
 11
-311.38579152804476
 21
-2.6353198120427845
 31
0.0
  0
LINE
  5
192
330
17
100
AcDbEntity
  8
SubLayer
100
AcDbLine
 10
-182.10839957275505
 20
7.312033372056716
 30
0.0
 11
-176.12608305939352
 21
7.772347540817627
 31
0.0
  0
LINE
  5
193
330
17
100
AcDbEntity
  8
SubLayer
100
AcDbLine
 10
220.67956757651785
 20
38.304878346257496
 30
0.0
 11
226.66188408987938
 21
38.76519251501841
 31
0.0
  0
LINE
  5
194
330
17
100
AcDbEntity
  8
SubLayer
100
AcDbLine
 10
19.285584001881375
 20
22.808455859157107
 30
0.0
 11
25.2679005152429
 21
23.268770027918016
 31
0.0
  0
LINE
  5
195
330
17
100
AcDbEntity
  8
SubLayer
100
AcDbLine
 10
-176.9696977553668
 20
5.701523008236968
 30
0.0
 11
-177.27657386787408
 21
9.68973401714465
 31
0.0
  0
LINE
  5
196
330
17
100
AcDbEntity
  8
SubLayer
100
AcDbLine
 10
-177.27657386787408
 20
9.68973401714465
 30
0.0
 11
-181.26478487678176
 21
9.382857904637374
 31
0.0
  0
LINE
  5
197
330
17
100
AcDbEntity
  8
SubLayer
100
AcDbLine
 10
-181.26478487678176
 20
9.382857904637374
 30
0.0
 11
-180.9579087642745
 21
5.394646895729693
 31
0.0
  0
LINE
  5
198
330
17
100
AcDbEntity
  8
SubLayer
100
AcDbLine
 10
-180.9579087642745
 20
5.394646895729693
 30
0.0
 11
-176.9696977553668
 21
5.701523008236968
 31
0.0
  0
LINE
  5
199
330
17
100
AcDbEntity
  8
SubLayer
100
AcDbLine
 10
225.8182693939061
 20
36.694367982437754
 30
0.0
 11
225.51139328139882
 21
40.68257899134543
 31
0.0
  0
LINE
  5
19A
330
17
100
AcDbEntity
  8
SubLayer
100
AcDbLine
 10
225.51139328139882
 20
40.68257899134543
 30
0.0
 11
221.52318227249114
 21
40.375702878838155
 31
0.0
  0
LINE
  5
19B
330
17
100
AcDbEntity
  8
SubLayer
100
AcDbLine
 10
221.52318227249114
 20
40.375702878838155
 30
0.0
 11
221.8300583849984
 21
36.38749186993048
 31
0.0
  0
LINE
  5
19C
330
17
100
AcDbEntity
  8
SubLayer
100
AcDbLine
 10
221.8300583849984
 20
36.38749186993048
 30
0.0
 11
225.8182693939061
 21
36.694367982437754
 31
0.0
  0
LINE
  5
19D
330
17
100
AcDbEntity
  8
SubLayer
100
AcDbLine
 10
24.424285819269617
 20
21.197945495337358
 30
0.0
 11
24.11740970676234
 21
25.18615650424504
 31
0.0
  0
LINE
  5
19E
330
17
100
AcDbEntity
  8
SubLayer
100
AcDbLine
 10
24.11740970676234
 20
25.18615650424504
 30
0.0
 11
20.129198697854658
 21
24.879280391737765
 31
0.0
  0
LINE
  5
19F
330
17
100
AcDbEntity
  8
SubLayer
100
AcDbLine
 10
20.129198697854658
 20
24.879280391737765
 30
0.0
 11
20.436074810361934
 21
20.891069382830082
 31
0.0
  0
LINE
  5
1A0
330
17
100
AcDbEntity
  8
SubLayer
100
AcDbLine
 10
20.436074810361934
 20
20.891069382830082
 30
0.0
 11
24.424285819269617
 21
21.197945495337358
 31
0.0
  0
LINE
  5
1A1
330
17
100
AcDbEntity
  8
SubLayer
100
AcDbLine
 10
506.2615202849129
 20
6.090258041842109
 30
0.0
 11
506.5896559618077
 21
7.034888645596169
 31
0.0
  0
LINE
  5
1A2
330
17
100
AcDbEntity
  8
SubLayer
100
AcDbLine
 10
505.337945873501
 20
1.0229521335488736
 30
0.0
 11
505.41402189923156
 21
2.020054153559385
 31
0.0
  0
LINE
  5
1A3
330
17
100
AcDbEntity
  8
SubLayer
100
AcDbLine
 10
487.0867535555236
 20
11.77422671190354
 30
0.0
 11
487.3930090622383
 21
12.726176061715242
 31
0.0
  0
LINE
  5
1A4
330
17
100
AcDbEntity
  8
SubLayer
100
AcDbLine
 10
485.42685556853803
 20
2.9937797653128775
 30
0.0
 11
485.5141523449146
 21
3.989962114501148
 31
0.0
  0
LINE
  5
1A5
330
17
100
AcDbEntity
  8
SubLayer
100
AcDbLine
 10
448.68334015069263
 20
22.96531496822922
 30
0.0
 11
448.9763823103375
 21
23.921414488504528
 31
0.0
  0
LINE
  5
1A6
330
17
100
AcDbEntity
  8
SubLayer
100
AcDbLine
 10
445.5003761762091
 20
5.424662214868434
 30
0.0
 11
445.5744173129061
 21
6.421917402910399
 31
0.0
  0
LINE
  5
1A7
330
17
100
AcDbEntity
  8
SubLayer
100
AcDbLine
 10
-153.91433035037582
 20
89.84282569990671
 30
0.0
 11
-153.60745423786855
 21
85.85461469099903
 31
0.0
  0
LINE
  5
1A8
330
17
100
AcDbEntity
  8
SubLayer
100
AcDbLine
 10
-145.4616753238167
 20
-20.00923008896723
 30
0.0
 11
-145.15479921130944
 21
-23.997441097874912
 31
0.0
  0
LINE
  5
1A9
330
17
100
AcDbEntity
  8
SubLayer
100
AcDbLine
 10
-147.22892535725538
 20
2.958233821034481
 30
0.0
 11
-146.76861118849445
 21
-3.02408269232704
 31
0.0
  0
LINE
  5
1AA
330
17
100
AcDbEntity
  8
SubLayer
100
AcDbLine
 10
-152.30051837319084
 20
68.86946729435886
 30
0.0
 11
-151.8402042044299
 21
62.88715078099733
 31
0.0
  0
LINE
  5
1AB
330
17
100
AcDbEntity
  8
SubLayer
100
AcDbLine
 10
-149.7647218652231
 20
35.91385055769666
 30
0.0
 11
-149.30440769646216
 21
29.931534044335137
 31
0.0
  0
LINE
  5
1AC
330
17
100
AcDbEntity
  8
SubLayer
100
AcDbLine
 10
-148.83943572107512
 20
-2.1804679963537574
 30
0.0
 11
-144.85122471216744
 21
-1.8735918838464827
 31
0.0
  0
LINE
  5
1AD
330
17
100
AcDbEntity
  8
SubLayer
100
AcDbLine
 10
-144.85122471216744
 20
-1.8735918838464827
 30
0.0
 11
-145.1581008246747
 21
2.1146191250611985
 31
0.0
  0
LINE
  5
1AE
330
17
100
AcDbEntity
  8
SubLayer
100
AcDbLine
 10
-145.1581008246747
 20
2.1146191250611985
 30
0.0
 11
-149.1463118335824
 21
1.8077430125539238
 31
0.0
  0
LINE
  5
1AF
330
17
100
AcDbEntity
  8
SubLayer
100
AcDbLine
 10
-149.1463118335824
 20
1.8077430125539238
 30
0.0
 11
-148.83943572107512
 21
-2.1804679963537574
 31
0.0
  0
LINE
  5
1B0
330
17
100
AcDbEntity
  8
SubLayer
100
AcDbLine
 10
-153.91102873701058
 20
63.73076547697062
 30
0.0
 11
-149.9228177281029
 21
64.03764158947789
 31
0.0
  0
LINE
  5
1B1
330
17
100
AcDbEntity
  8
SubLayer
100
AcDbLine
 10
-149.9228177281029
 20
64.03764158947789
 30
0.0
 11
-150.22969384061017
 21
68.02585259838557
 31
0.0
  0
LINE
  5
1B2
330
17
100
AcDbEntity
  8
SubLayer
100
AcDbLine
 10
-150.22969384061017
 20
68.02585259838557
 30
0.0
 11
-154.21790484951785
 21
67.7189764858783
 31
0.0
  0
LINE
  5
1B3
330
17
100
AcDbEntity
  8
SubLayer
100
AcDbLine
 10
-154.21790484951785
 20
67.7189764858783
 30
0.0
 11
-153.91102873701058
 21
63.73076547697062
 31
0.0
  0
LINE
  5
1B4
330
17
100
AcDbEntity
  8
SubLayer
100
AcDbLine
 10
-151.37523222904284
 20
30.77514874030842
 30
0.0
 11
-147.38702122013515
 21
31.082024852815696
 31
0.0
  0
LINE
  5
1B5
330
17
100
AcDbEntity
  8
SubLayer
100
AcDbLine
 10
-147.38702122013515
 20
31.082024852815696
 30
0.0
 11
-147.69389733264242
 21
35.070235861723376
 31
0.0
  0
LINE
  5
1B6
330
17
100
AcDbEntity
  8
SubLayer
100
AcDbLine
 10
-147.69389733264242
 20
35.070235861723376
 30
0.0
 11
-151.6821083415501
 21
34.7633597492161
 31
0.0
  0
LINE
  5
1B7
330
17
100
AcDbEntity
  8
SubLayer
100
AcDbLine
 10
-151.6821083415501
 20
34.7633597492161
 30
0.0
 11
-151.37523222904284
 21
30.77514874030842
 31
0.0
  0
LINE
  5
1B8
330
17
100
AcDbEntity
  8
SubLayer
100
AcDbLine
 10
95.89949084585835
 20
101.86646643797951
 30
0.0
 11
96.20636695836562
 21
97.87825542907183
 31
0.0
  0
LINE
  5
1B9
330
17
100
AcDbEntity
  8
SubLayer
100
AcDbLine
 10
104.13804842803857
 20
-5.203144742630344
 30
0.0
 11
104.44492454054584
 21
-9.191355751538024
 31
0.0
  0
LINE
  5
1BA
330
17
100
AcDbEntity
  8
SubLayer
100
AcDbLine
 10
102.41361788347571
 20
17.207830245718547
 30
0.0
 11
102.87393205223661
 21
11.225513732357028
 31
0.0
  0
LINE
  5
1BB
330
17
100
AcDbEntity
  8
SubLayer
100
AcDbLine
 10
97.47048333416758
 20
81.44959695408447
 30
0.0
 11
97.93079750292848
 21
75.46728044072294
 31
0.0
  0
LINE
  5
1BC
330
17
100
AcDbEntity
  8
SubLayer
100
AcDbLine
 10
99.94205060882165
 20
49.328713599901505
 30
0.0
 11
100.40236477758255
 21
43.34639708653998
 31
0.0
  0
LINE
  5
1BD
330
17
100
AcDbEntity
  8
SubLayer
100
AcDbLine
 10
100.80310751965595
 20
12.06912842833031
 30
0.0
 11
104.79131852856364
 21
12.376004540837584
 31
0.0
  0
LINE
  5
1BE
330
17
100
AcDbEntity
  8
SubLayer
100
AcDbLine
 10
104.79131852856364
 20
12.376004540837584
 30
0.0
 11
104.48444241605637
 21
16.364215549745268
 31
0.0
  0
LINE
  5
1BF
330
17
100
AcDbEntity
  8
SubLayer
100
AcDbLine
 10
104.48444241605637
 20
16.364215549745268
 30
0.0
 11
100.49623140714868
 21
16.057339437237992
 31
0.0
  0
LINE
  5
1C0
330
17
100
AcDbEntity
  8
SubLayer
100
AcDbLine
 10
100.49623140714868
 20
16.057339437237992
 30
0.0
 11
100.80310751965595
 21
12.06912842833031
 31
0.0
  0
LINE
  5
1C1
330
17
100
AcDbEntity
  8
SubLayer
100
AcDbLine
 10
95.85997297034783
 20
76.31089513669623
 30
0.0
 11
99.84818397925551
 21
76.6177712492035
 31
0.0
  0
LINE
  5
1C2
330
17
100
AcDbEntity
  8
SubLayer
100
AcDbLine
 10
99.84818397925551
 20
76.6177712492035
 30
0.0
 11
99.54130786674824
 21
80.60598225811118
 31
0.0
  0
LINE
  5
1C3
330
17
100
AcDbEntity
  8
SubLayer
100
AcDbLine
 10
99.54130786674824
 20
80.60598225811118
 30
0.0
 11
95.55309685784056
 21
80.29910614560391
 31
0.0
  0
LINE
  5
1C4
330
17
100
AcDbEntity
  8
SubLayer
100
AcDbLine
 10
95.55309685784056
 20
80.29910614560391
 30
0.0
 11
95.85997297034783
 21
76.31089513669623
 31
0.0
  0
LINE
  5
1C5
330
17
100
AcDbEntity
  8
SubLayer
100
AcDbLine
 10
98.33154024500189
 20
44.19001178251327
 30
0.0
 11
102.31975125390957
 21
44.49688789502054
 31
0.0
  0
LINE
  5
1C6
330
17
100
AcDbEntity
  8
SubLayer
100
AcDbLine
 10
102.31975125390957
 20
44.49688789502054
 30
0.0
 11
102.0128751414023
 21
48.48509890392822
 31
0.0
  0
LINE
  5
1C7
330
17
100
AcDbEntity
  8
SubLayer
100
AcDbLine
 10
102.0128751414023
 20
48.48509890392822
 30
0.0
 11
98.02466413249462
 21
48.17822279142094
 31
0.0
  0
LINE
  5
1C8
330
17
100
AcDbEntity
  8
SubLayer
100
AcDbLine
 10
98.02466413249462
 20
48.17822279142094
 30
0.0
 11
98.33154024500189
 21
44.19001178251327
 31
0.0
  0
ENDSEC
  0
SECTION
  2
OBJECTS
  0
DICTIONARY
  5
A
330
0
100
AcDbDictionary
280
0
281
1
  3
ACAD_COLOR
350
B
  3
ACAD_GROUP
350
C
  3
ACAD_LAYOUT
350
D
  3
ACAD_MATERIAL
350
E
  3
ACAD_MLEADERSTYLE
350
F
  3
ACAD_MLINESTYLE
350
10
  3
ACAD_PLOTSETTINGS
350
11
  3
ACAD_PLOTSTYLENAME
350
12
  3
ACAD_SCALELIST
350
14
  3
ACAD_TABLESTYLE
350
15
  3
ACAD_VISUALSTYLE
350
16
  3
EZDXF_META
350
2D
  0
DICTIONARY
  5
B
330
A
100
AcDbDictionary
280
0
281
1
  0
DICTIONARY
  5
C
330
A
100
AcDbDictionary
280
0
281
1
  0
DICTIONARY
  5
D
330
A
100
AcDbDictionary
280
0
281
1
  3
Model
350
1A
  3
Layout1
350
1E
  0
DICTIONARY
  5
E
330
A
100
AcDbDictionary
280
0
281
1
  3
ByBlock
350
1F
  3
ByLayer
350
20
  3
Global
350
21
  0
DICTIONARY
  5
F
330
A
100
AcDbDictionary
280
0
281
1
  3
Standard
350
2C
  0
DICTIONARY
  5
10
330
A
100
AcDbDictionary
280
0
281
1
  3
Standard
350
22
  0
DICTIONARY
  5
11
330
A
100
AcDbDictionary
280
0
281
1
  0
ACDBDICTIONARYWDFLT
  5
12
330
A
100
AcDbDictionary
280
0
281
1
  3
Normal
350
13
100
AcDbDictionaryWithDefault
340
13
  0
ACDBPLACEHOLDER
  5
13
330
12
  0
DICTIONARY
  5
14
330
A
100
AcDbDictionary
280
0
281
1
  0
DICTIONARY
  5
15
330
A
100
AcDbDictionary
280
0
281
1
  0
DICTIONARY
  5
16
330
A
100
AcDbDictionary
280
0
281
1
  0
LAYOUT
  5
1A
330
D
100
AcDbPlotSettings
  1

  2
Adobe PDF
  4
A3
  6

 40
7.5
 41
20.0
 42
7.5
 43
20.0
 44
420.0
 45
297.0
 46
0.0
 47
0.0
 48
0.0
 49
0.0
140
0.0
141
0.0
142
1.0
143
1.0
 70
1024
 72
1
 73
0
 74
5
  7

 75
16
 76
0
 77
2
 78
300
147
1.0
148
0.0
149
0.0
100
AcDbLayout
  1
Model
 70
1
 71
0
 10
0.0
 20
0.0
 11
420.0
 21
297.0
 12
0.0
 22
0.0
 32
0.0
 14
1e+20
 24
1e+20
 34
1e+20
 15
-1e+20
 25
-1e+20
 35
-1e+20
146
0.0
 13
0.0
 23
0.0
 33
0.0
 16
1.0
 26
0.0
 36
0.0
 17
0.0
 27
1.0
 37
0.0
 76
1
330
17
  0
LAYOUT
  5
1E
330
D
100
AcDbPlotSettings
  1

  2
Adobe PDF
  4
A3
  6

 40
7.5
 41
20.0
 42
7.5
 43
20.0
 44
420.0
 45
297.0
 46
0.0
 47
0.0
 48
0.0
 49
0.0
140
0.0
141
0.0
142
1.0
143
1.0
 70
0
 72
1
 73
0
 74
5
  7

 75
16
 76
0
 77
2
 78
300
147
1.0
148
0.0
149
0.0
100
AcDbLayout
  1
Layout1
 70
1
 71
1
 10
0.0
 20
0.0
 11
420.0
 21
297.0
 12
0.0
 22
0.0
 32
0.0
 14
1e+20
 24
1e+20
 34
1e+20
 15
-1e+20
 25
-1e+20
 35
-1e+20
146
0.0
 13
0.0
 23
0.0
 33
0.0
 16
1.0
 26
0.0
 36
0.0
 17
0.0
 27
1.0
 37
0.0
 76
1
330
1B
  0
MATERIAL
  5
1F
102
{ACAD_REACTORS
330
E
102
}
330
E
100
AcDbMaterial
  1
ByBlock
  2

 70
0
 40
1.0
 71
1
 41
1.0
 91
-1023410177
 42
1.0
 72
1
  3

 73
1
 74
1
 75
1
 44
0.5
 73
0
 45
1.0
 46
1.0
 77
1
  4

 78
1
 79
1
170
1
 48
1.0
171
1
  6

172
1
173
1
174
1
140
1.0
141
1.0
175
1
  7

176
1
177
1
178
1
143
1.0
179
1
  8

270
1
271
1
272
1
145
1.0
146
1.0
273
1
  9

274
1
275
1
276
1
 42
1.0
 72
1
  3

 73
1
 74
1
 75
1
 94
63
  0
MATERIAL
  5
20
102
{ACAD_REACTORS
330
E
102
}
330
E
100
AcDbMaterial
  1
ByLayer
  2

 70
0
 40
1.0
 71
1
 41
1.0
 91
-1023410177
 42
1.0
 72
1
  3

 73
1
 74
1
 75
1
 44
0.5
 73
0
 45
1.0
 46
1.0
 77
1
  4

 78
1
 79
1
170
1
 48
1.0
171
1
  6

172
1
173
1
174
1
140
1.0
141
1.0
175
1
  7

176
1
177
1
178
1
143
1.0
179
1
  8

270
1
271
1
272
1
145
1.0
146
1.0
273
1
  9

274
1
275
1
276
1
 42
1.0
 72
1
  3

 73
1
 74
1
 75
1
 94
63
  0
MATERIAL
  5
21
102
{ACAD_REACTORS
330
E
102
}
330
E
100
AcDbMaterial
  1
Global
  2

 70
0
 40
1.0
 71
1
 41
1.0
 91
-1023410177
 42
1.0
 72
1
  3

 73
1
 74
1
 75
1
 44
0.5
 73
0
 45
1.0
 46
1.0
 77
1
  4

 78
1
 79
1
170
1
 48
1.0
171
1
  6

172
1
173
1
174
1
140
1.0
141
1.0
175
1
  7

176
1
177
1
178
1
143
1.0
179
1
  8

270
1
271
1
272
1
145
1.0
146
1.0
273
1
  9

274
1
275
1
276
1
 42
1.0
 72
1
  3

 73
1
 74
1
 75
1
 94
63
  0
MLINESTYLE
  5
22
102
{ACAD_REACTORS
330
10
102
}
330
10
100
AcDbMlineStyle
  2
Standard
 70
0
  3

 62
256
 51
90.0
 52
90.0
 71
2
 49
0.5
 62
256
  6
BYLAYER
 49
-0.5
 62
256
  6
BYLAYER
  0
MLEADERSTYLE
  5
2C
102
{ACAD_REACTORS
330
F
102
}
330
F
100
AcDbMLeaderStyle
179
2
170
2
171
1
172
0
 90
2
 40
0.0
 41
0.0
173
1
 91
-1056964608
 92
-2
290
1
 42
2.0
291
1
 43
8.0
  3
Standard
 44
4.0
300

342
29
174
1
175
1
176
0
178
1
 93
-1056964608
 45
4.0
292
0
297
0
 46
4.0
 94
-1056964608
 47
1.0
 49
1.0
140
1.0
294
1
141
0.0
177
0
142
1.0
295
0
296
0
143
3.75
271
0
272
9
273
9
  0
DICTIONARY
  5
2D
330
A
100
AcDbDictionary
281
1
  3
CREATED_BY_EZDXF
350
2E
  3
WRITTEN_BY_EZDXF
350
1CB
  0
DICTIONARYVAR
  5
2E
330
2D
100
DictionaryVariables
280
0
  1
1.0.2 @ 2024-03-22T07:41:34.088528+00:00
  0
DICTIONARYVAR
  5
1CB
330
2D
100
DictionaryVariables
280
0
  1
1.0.2 @ 2024-03-22T07:41:34.099505+00:00
  0
ENDSEC
  0
EOF
