  0
SECTION
  2
HEADER
  9
$ACADVER
  1
AC1027
  9
$ACADMAINTVER
 70
105
  9
$DWGCODEPAGE
  3
ANSI_1252
  9
$LASTSAVEDBY
  1
ezdxf
  9
$REQUIREDVERSIONS
160
0
  9
$INSBASE
 10
0.0
 20
0.0
 30
0.0
  9
$EXTMIN
 10
1e+20
 20
1e+20
 30
1e+20
  9
$EXTMAX
 10
-1e+20
 20
-1e+20
 30
-1e+20
  9
$LIMMIN
 10
0.0
 20
0.0
  9
$LIMMAX
 10
420.0
 20
297.0
  9
$ORTHOMODE
 70
0
  9
$REGENMODE
 70
1
  9
$FILLMODE
 70
1
  9
$QTEXTMODE
 70
0
  9
$MIRRTEXT
 70
1
  9
$LTSCALE
 40
1.0
  9
$ATTMODE
 70
1
  9
$TEXTSIZE
 40
2.5
  9
$TRACEWID
 40
1.0
  9
$TEXTSTYLE
  7
Standard
  9
$CLAYER
  8
0
  9
$CELTYPE
  6
ByLayer
  9
$CECOLOR
 62
256
  9
$CELTSCALE
 40
1.0
  9
$DISPSILH
 70
0
  9
$DIMSCALE
 40
1.0
  9
$DIMASZ
 40
2.5
  9
$DIMEXO
 40
0.625
  9
$DIMDLI
 40
3.75
  9
$DIMRND
 40
0.0
  9
$DIMDLE
 40
0.0
  9
$DIMEXE
 40
1.25
  9
$DIMTP
 40
0.0
  9
$DIMTM
 40
0.0
  9
$DIMTXT
 40
2.5
  9
$DIMCEN
 40
2.5
  9
$DIMTSZ
 40
0.0
  9
$DIMTOL
 70
0
  9
$DIMLIM
 70
0
  9
$DIMTIH
 70
0
  9
$DIMTOH
 70
0
  9
$DIMSE1
 70
0
  9
$DIMSE2
 70
0
  9
$DIMTAD
 70
1
  9
$DIMZIN
 70
8
  9
$DIMBLK
  1

  9
$DIMASO
 70
1
  9
$DIMSHO
 70
1
  9
$DIMPOST
  1

  9
$DIMAPOST
  1

  9
$DIMALT
 70
0
  9
$DIMALTD
 70
3
  9
$DIMALTF
 40
0.03937007874
  9
$DIMLFAC
 40
1.0
  9
$DIMTOFL
 70
1
  9
$DIMTVP
 40
0.0
  9
$DIMTIX
 70
0
  9
$DIMSOXD
 70
0
  9
$DIMSAH
 70
0
  9
$DIMBLK1
  1

  9
$DIMBLK2
  1

  9
$DIMSTYLE
  2
ISO-25
  9
$DIMCLRD
 70
0
  9
$DIMCLRE
 70
0
  9
$DIMCLRT
 70
0
  9
$DIMTFAC
 40
1.0
  9
$DIMGAP
 40
0.625
  9
$DIMJUST
 70
0
  9
$DIMSD1
 70
0
  9
$DIMSD2
 70
0
  9
$DIMTOLJ
 70
0
  9
$DIMTZIN
 70
8
  9
$DIMALTZ
 70
0
  9
$DIMALTTZ
 70
0
  9
$DIMUPT
 70
0
  9
$DIMDEC
 70
2
  9
$DIMTDEC
 70
2
  9
$DIMALTU
 70
2
  9
$DIMALTTD
 70
3
  9
$DIMTXSTY
  7
Standard
  9
$DIMAUNIT
 70
0
  9
$DIMADEC
 70
0
  9
$DIMALTRND
 40
0.0
  9
$DIMAZIN
 70
0
  9
$DIMDSEP
 70
44
  9
$DIMATFIT
 70
3
  9
$DIMFRAC
 70
0
  9
$DIMLDRBLK
  1

  9
$DIMLUNIT
 70
2
  9
$DIMLWD
 70
-2
  9
$DIMLWE
 70
-2
  9
$DIMTMOVE
 70
0
  9
$DIMFXL
 40
1.0
  9
$DIMFXLON
 70
0
  9
$DIMJOGANG
 40
0.785398163397
  9
$DIMTFILL
 70
0
  9
$DIMTFILLCLR
 70
0
  9
$DIMARCSYM
 70
0
  9
$DIMLTYPE
  6

  9
$DIMLTEX1
  6

  9
$DIMLTEX2
  6

  9
$DIMTXTDIRECTION
 70
0
  9
$LUNITS
 70
2
  9
$LUPREC
 70
4
  9
$SKETCHINC
 40
1.0
  9
$FILLETRAD
 40
10.0
  9
$AUNITS
 70
0
  9
$AUPREC
 70
2
  9
$MENU
  1
.
  9
$ELEVATION
 40
0.0
  9
$PELEVATION
 40
0.0
  9
$THICKNESS
 40
0.0
  9
$LIMCHECK
 70
0
  9
$CHAMFERA
 40
0.0
  9
$CHAMFERB
 40
0.0
  9
$CHAMFERC
 40
0.0
  9
$CHAMFERD
 40
0.0
  9
$SKPOLY
 70
0
  9
$TDCREATE
 40
2460392.6955324076
  9
$TDUCREATE
 40
2458532.153996898
  9
$TDUPDATE
 40
2460392.6955324076
  9
$TDUUPDATE
 40
2458532.1544311
  9
$TDINDWG
 40
0.0
  9
$TDUSRTIMER
 40
0.0
  9
$USRTIMER
 70
1
  9
$ANGBASE
 50
0.0
  9
$ANGDIR
 70
0
  9
$PDMODE
 70
0
  9
$PDSIZE
 40
0.0
  9
$PLINEWID
 40
0.0
  9
$SPLFRAME
 70
0
  9
$SPLINETYPE
 70
6
  9
$SPLINESEGS
 70
8
  9
$HANDSEED
  5
1CD
  9
$SURFTAB1
 70
6
  9
$SURFTAB2
 70
6
  9
$SURFTYPE
 70
6
  9
$SURFU
 70
6
  9
$SURFV
 70
6
  9
$UCSBASE
  2

  9
$UCSNAME
  2

  9
$UCSORG
 10
0.0
 20
0.0
 30
0.0
  9
$UCSXDIR
 10
1.0
 20
0.0
 30
0.0
  9
$UCSYDIR
 10
0.0
 20
1.0
 30
0.0
  9
$UCSORTHOREF
  2

  9
$UCSORTHOVIEW
 70
0
  9
$UCSORGTOP
 10
0.0
 20
0.0
 30
0.0
  9
$UCSORGBOTTOM
 10
0.0
 20
0.0
 30
0.0
  9
$UCSORGLEFT
 10
0.0
 20
0.0
 30
0.0
  9
$UCSORGRIGHT
 10
0.0
 20
0.0
 30
0.0
  9
$UCSORGFRONT
 10
0.0
 20
0.0
 30
0.0
  9
$UCSORGBACK
 10
0.0
 20
0.0
 30
0.0
  9
$PUCSBASE
  2

  9
$PUCSNAME
  2

  9
$PUCSORG
 10
0.0
 20
0.0
 30
0.0
  9
$PUCSXDIR
 10
1.0
 20
0.0
 30
0.0
  9
$PUCSYDIR
 10
0.0
 20
1.0
 30
0.0
  9
$PUCSORTHOREF
  2

  9
$PUCSORTHOVIEW
 70
0
  9
$PUCSORGTOP
 10
0.0
 20
0.0
 30
0.0
  9
$PUCSORGBOTTOM
 10
0.0
 20
0.0
 30
0.0
  9
$PUCSORGLEFT
 10
0.0
 20
0.0
 30
0.0
  9
$PUCSORGRIGHT
 10
0.0
 20
0.0
 30
0.0
  9
$PUCSORGFRONT
 10
0.0
 20
0.0
 30
0.0
  9
$PUCSORGBACK
 10
0.0
 20
0.0
 30
0.0
  9
$USERI1
 70
0
  9
$USERI2
 70
0
  9
$USERI3
 70
0
  9
$USERI4
 70
0
  9
$USERI5
 70
0
  9
$USERR1
 40
0.0
  9
$USERR2
 40
0.0
  9
$USERR3
 40
0.0
  9
$USERR4
 40
0.0
  9
$USERR5
 40
0.0
  9
$WORLDVIEW
 70
1
  9
$SHADEDGE
 70
3
  9
$SHADEDIF
 70
70
  9
$TILEMODE
 70
1
  9
$MAXACTVP
 70
64
  9
$PINSBASE
 10
0.0
 20
0.0
 30
0.0
  9
$PLIMCHECK
 70
0
  9
$PEXTMIN
 10
1e+20
 20
1e+20
 30
1e+20
  9
$PEXTMAX
 10
-1e+20
 20
-1e+20
 30
-1e+20
  9
$PLIMMIN
 10
0.0
 20
0.0
  9
$PLIMMAX
 10
420.0
 20
297.0
  9
$UNITMODE
 70
0
  9
$VISRETAIN
 70
1
  9
$PLINEGEN
 70
0
  9
$PSLTSCALE
 70
1
  9
$TREEDEPTH
 70
3020
  9
$CMLSTYLE
  2
Standard
  9
$CMLJUST
 70
0
  9
$CMLSCALE
 40
20.0
  9
$PROXYGRAPHICS
 70
1
  9
$MEASUREMENT
 70
1
  9
$CELWEIGHT
370
-1
  9
$ENDCAPS
280
0
  9
$JOINSTYLE
280
0
  9
$LWDISPLAY
290
0
  9
$INSUNITS
 70
6
  9
$HYPERLINKBASE
  1

  9
$STYLESHEET
  1

  9
$XEDIT
290
1
  9
$CEPSNTYPE
380
0
  9
$PSTYLEMODE
290
1
  9
$FINGERPRINTGUID
  2
{9F951DE3-DDBC-410F-94DD-2D36F0D4669D}
  9
$VERSIONGUID
  2
{90506339-DF29-4149-88A9-9019D754E1A1}
  9
$EXTNAMES
290
1
  9
$PSVPSCALE
 40
0.0
  9
$OLESTARTUP
290
0
  9
$SORTENTS
280
127
  9
$INDEXCTL
280
0
  9
$HIDETEXT
280
1
  9
$XCLIPFRAME
280
0
  9
$HALOGAP
280
0
  9
$OBSCOLOR
 70
257
  9
$OBSLTYPE
280
0
  9
$INTERSECTIONDISPLAY
280
0
  9
$INTERSECTIONCOLOR
 70
257
  9
$DIMASSOC
280
2
  9
$PROJECTNAME
  1

  9
$CAMERADISPLAY
290
0
  9
$LENSLENGTH
 40
50.0
  9
$CAMERAHEIGHT
 40
0.0
  9
$STEPSPERSEC
 40
24.0
  9
$STEPSIZE
 40
100.0
  9
$3DDWFPREC
 40
2.0
  9
$PSOLWIDTH
 40
0.005
  9
$PSOLHEIGHT
 40
0.08
  9
$LOFTANG1
 40
1.570796326795
  9
$LOFTANG2
 40
1.570796326795
  9
$LOFTMAG1
 40
0.0
  9
$LOFTMAG2
 40
0.0
  9
$LOFTPARAM
 70
7
  9
$LOFTNORMALS
280
1
  9
$LATITUDE
 40
37.795
  9
$LONGITUDE
 40
-122.394
  9
$NORTHDIRECTION
 40
0.0
  9
$TIMEZONE
 70
-8000
  9
$LIGHTGLYPHDISPLAY
280
1
  9
$TILEMODELIGHTSYNCH
280
1
  9
$CMATERIAL
347
20
  9
$SOLIDHIST
280
0
  9
$SHOWHIST
280
1
  9
$DWFFRAME
280
2
  9
$DGNFRAME
280
2
  9
$REALWORLDSCALE
290
1
  9
$INTERFERECOLOR
 62
256
  9
$CSHADOW
280
0
  9
$SHADOWPLANELOCATION
 40
0.0
  0
ENDSEC
  0
SECTION
  2
CLASSES
  0
CLASS
  1
ACDBDICTIONARYWDFLT
  2
AcDbDictionaryWithDefault
  3
ObjectDBX Classes
 90
0
 91
0
280
0
281
0
  0
CLASS
  1
SUN
  2
AcDbSun
  3
SCENEOE
 90
1153
 91
0
280
0
281
0
  0
CLASS
  1
VISUALSTYLE
  2
AcDbVisualStyle
  3
ObjectDBX Classes
 90
4095
 91
0
280
0
281
0
  0
CLASS
  1
MATERIAL
  2
AcDbMaterial
  3
ObjectDBX Classes
 90
1153
 91
0
280
0
281
0
  0
CLASS
  1
SCALE
  2
AcDbScale
  3
ObjectDBX Classes
 90
1153
 91
0
280
0
281
0
  0
CLASS
  1
TABLESTYLE
  2
AcDbTableStyle
  3
ObjectDBX Classes
 90
4095
 91
0
280
0
281
0
  0
CLASS
  1
MLEADERSTYLE
  2
AcDbMLeaderStyle
  3
ACDB_MLEADERSTYLE_CLASS
 90
4095
 91
0
280
0
281
0
  0
CLASS
  1
DICTIONARYVAR
  2
AcDbDictionaryVar
  3
ObjectDBX Classes
 90
0
 91
0
280
0
281
0
  0
CLASS
  1
CELLSTYLEMAP
  2
AcDbCellStyleMap
  3
ObjectDBX Classes
 90
1152
 91
0
280
0
281
0
  0
CLASS
  1
MENTALRAYRENDERSETTINGS
  2
AcDbMentalRayRenderSettings
  3
SCENEOE
 90
1024
 91
0
280
0
281
0
  0
CLASS
  1
ACDBDETAILVIEWSTYLE
  2
AcDbDetailViewStyle
  3
ObjectDBX Classes
 90
1025
 91
0
280
0
281
0
  0
CLASS
  1
ACDBSECTIONVIEWSTYLE
  2
AcDbSectionViewStyle
  3
ObjectDBX Classes
 90
1025
 91
0
280
0
281
0
  0
CLASS
  1
RASTERVARIABLES
  2
AcDbRasterVariables
  3
ISM
 90
0
 91
0
280
0
281
0
  0
CLASS
  1
LAYOUT
  2
AcDbLayout
  3
ObjectDBX Classes
 90
0
 91
0
280
0
281
0
  0
CLASS
  1
ACDBPLACEHOLDER
  2
AcDbPlaceHolder
  3
ObjectDBX Classes
 90
0
 91
0
280
0
281
0
  0
ENDSEC
  0
SECTION
  2
TABLES
  0
TABLE
  2
VPORT
  5
8
330
0
100
AcDbSymbolTable
 70
1
  0
VPORT
  5
23
330
8
100
AcDbSymbolTableRecord
100
AcDbViewportTableRecord
  2
*Active
 70
0
 10
0.0
 20
0.0
 11
1.0
 21
1.0
 12
0.0
 22
0.0
 13
0.0
 23
0.0
 14
0.5
 24
0.5
 15
0.5
 25
0.5
 16
0.0
 26
0.0
 36
1.0
 17
0.0
 27
0.0
 37
0.0
 40
1000.0
 41
1.34
 42
50.0
 43
0.0
 44
0.0
 50
0.0
 51
0.0
 71
0
 72
1000
 73
1
 74
3
 75
0
 76
0
 77
0
 78
0
281
0
 65
0
146
0.0
  0
ENDTAB
  0
TABLE
  2
LTYPE
  5
2
330
0
100
AcDbSymbolTable
 70
3
  0
LTYPE
  5
24
330
2
100
AcDbSymbolTableRecord
100
AcDbLinetypeTableRecord
  2
ByBlock
 70
0
  3

 72
65
 73
0
 40
0.0
  0
LTYPE
  5
25
330
2
100
AcDbSymbolTableRecord
100
AcDbLinetypeTableRecord
  2
ByLayer
 70
0
  3

 72
65
 73
0
 40
0.0
  0
LTYPE
  5
26
330
2
100
AcDbSymbolTableRecord
100
AcDbLinetypeTableRecord
  2
Continuous
 70
0
  3

 72
65
 73
0
 40
0.0
  0
ENDTAB
  0
TABLE
  2
LAYER
  5
1
330
0
100
AcDbSymbolTable
 70
5
  0
LAYER
  5
27
330
1
100
AcDbSymbolTableRecord
100
AcDbLayerTableRecord
  2
0
 70
0
 62
7
  6
Continuous
370
-3
390
13
347
21
  0
LAYER
  5
28
330
1
100
AcDbSymbolTableRecord
100
AcDbLayerTableRecord
  2
Defpoints
 70
0
 62
7
  6
Continuous
290
0
370
-3
390
13
347
21
  0
LAYER
  5
30
330
1
100
AcDbSymbolTableRecord
100
AcDbLayerTableRecord
  2
FoilLayer
 70
0
 62
1
  6
Continuous
370
50
390
13
347
21
  0
LAYER
  5
31
330
1
100
AcDbSymbolTableRecord
100
AcDbLayerTableRecord
  2
StringerLayer
 70
0
 62
1
  6
Continuous
370
50
390
13
347
21
  0
LAYER
  5
32
330
1
100
AcDbSymbolTableRecord
100
AcDbLayerTableRecord
  2
SubLayer
 70
0
 62
1
  6
Continuous
370
50
390
13
347
21
  0
ENDTAB
  0
TABLE
  2
STYLE
  5
5
330
0
100
AcDbSymbolTable
 70
2
  0
STYLE
  5
29
330
5
100
AcDbSymbolTableRecord
100
AcDbTextStyleTableRecord
  2
Standard
 70
0
 40
0.0
 41
1.0
 50
0.0
 71
0
 42
2.5
  3
txt
  4

  0
STYLE
  5
2F
330
5
100
AcDbSymbolTableRecord
100
AcDbTextStyleTableRecord
  2
MSゴシック
 70
0
 40
0.0
 41
1.0
 50
0.0
 71
0
 42
2.5
  3
romans
  4

  0
ENDTAB
  0
TABLE
  2
VIEW
  5
7
330
0
100
AcDbSymbolTable
 70
0
  0
ENDTAB
  0
TABLE
  2
UCS
  5
6
330
0
100
AcDbSymbolTable
 70
0
  0
ENDTAB
  0
TABLE
  2
APPID
  5
3
330
0
100
AcDbSymbolTable
 70
3
  0
APPID
  5
2A
330
3
100
AcDbSymbolTableRecord
100
AcDbRegAppTableRecord
  2
ACAD
 70
0
  0
APPID
  5
1CA
330
3
100
AcDbSymbolTableRecord
100
AcDbRegAppTableRecord
  2
HATCHBACKGROUNDCOLOR
 70
0
  0
APPID
  5
1CB
330
3
100
AcDbSymbolTableRecord
100
AcDbRegAppTableRecord
  2
EZDXF
 70
0
  0
ENDTAB
  0
TABLE
  2
DIMSTYLE
  5
4
330
0
100
AcDbSymbolTable
 70
1
100
AcDbDimStyleTable
  0
DIMSTYLE
105
2B
330
4
100
AcDbSymbolTableRecord
100
AcDbDimStyleTableRecord
  2
Standard
 70
0
 40
1.0
 41
2.5
 42
0.625
 43
3.75
 44
1.25
 45
0.0
 46
0.0
 47
0.0
 48
0.0
 49
2.5
140
2.5
141
2.5
142
0.0
143
0.03937007874
144
1.0
145
0.0
146
1.0
147
0.625
148
0.0
 69
0
 70
0
 71
0
 72
0
 73
0
 74
0
 75
0
 76
0
 77
1
 78
8
 79
3
170
0
171
3
172
1
173
0
174
0
175
0
176
0
177
0
178
0
179
2
271
2
272
2
273
2
274
3
275
0
276
0
277
2
278
44
279
0
280
0
281
0
282
0
283
0
284
8
285
0
286
0
288
0
289
3
290
0
371
-2
372
-2
  0
ENDTAB
  0
TABLE
  2
BLOCK_RECORD
  5
9
330
0
100
AcDbSymbolTable
 70
2
  0
BLOCK_RECORD
  5
17
330
9
100
AcDbSymbolTableRecord
100
AcDbBlockTableRecord
  2
*Model_Space
340
1A
 70
0
280
1
281
0
  0
BLOCK_RECORD
  5
1B
330
9
100
AcDbSymbolTableRecord
100
AcDbBlockTableRecord
  2
*Paper_Space
340
1E
 70
0
280
1
281
0
  0
ENDTAB
  0
ENDSEC
  0
SECTION
  2
BLOCKS
  0
BLOCK
  5
18
330
17
100
AcDbEntity
  8
0
100
AcDbBlockBegin
  2
*Model_Space
 70
0
 10
0.0
 20
0.0
 30
0.0
  3
*Model_Space
  1

  0
ENDBLK
  5
19
330
17
100
AcDbEntity
  8
0
100
AcDbBlockEnd
  0
BLOCK
  5
1C
330
1B
100
AcDbEntity
  8
0
100
AcDbBlockBegin
  2
*Paper_Space
 70
0
 10
0.0
 20
0.0
 30
0.0
  3
*Paper_Space
  1

  0
ENDBLK
  5
1D
330
1B
100
AcDbEntity
  8
0
100
AcDbBlockEnd
  0
ENDSEC
  0
SECTION
  2
ENTITIES
  0
LINE
  5
33
330
17
100
AcDbEntity
  8
FoilLayer
100
AcDbLine
 10
296.701180538825
 20
55.77378830170789
 30
0.0
 11
19.805084745762713
 21
-11.76353086613078
 31
0.0
  0
LINE
  5
34
330
17
100
AcDbEntity
  8
FoilLayer
100
AcDbLine
 10
495.1271186440676
 20
1.1888583193744922
 30
0.0
 11
492.6990971453998
 21
1.9659297696806421
 31
0.0
  0
LINE
  5
35
330
17
100
AcDbEntity
  8
FoilLayer
100
AcDbLine
 10
492.6990971453998
 20
1.9659297696806421
 30
0.0
 11
488.80645163069966
 21
3.1401323424645917
 31
0.0
  0
LINE
  5
36
330
17
100
AcDbEntity
  8
FoilLayer
100
AcDbLine
 10
488.80645163069966
 20
3.1401323424645917
 30
0.0
 11
484.58979528597075
 21
4.4447314497784545
 31
0.0
  0
LINE
  5
37
330
17
100
AcDbEntity
  8
FoilLayer
100
AcDbLine
 10
484.58979528597075
 20
4.4447314497784545
 30
0.0
 11
479.9851973679776
 21
5.839087102427913
 31
0.0
  0
LINE
  5
38
330
17
100
AcDbEntity
  8
FoilLayer
100
AcDbLine
 10
479.9851973679776
 20
5.839087102427913
 30
0.0
 11
474.96699051512377
 21
7.324387604190581
 31
0.0
  0
LINE
  5
39
330
17
100
AcDbEntity
  8
FoilLayer
100
AcDbLine
 10
474.96699051512377
 20
7.324387604190581
 30
0.0
 11
469.5694770964563
 21
8.920992559789537
 31
0.0
  0
LINE
  5
3A
330
17
100
AcDbEntity
  8
FoilLayer
100
AcDbLine
 10
469.5694770964563
 20
8.920992559789537
 30
0.0
 11
463.8550034501739
 21
10.62177214655911
 31
0.0
  0
LINE
  5
3B
330
17
100
AcDbEntity
  8
FoilLayer
100
AcDbLine
 10
463.8550034501739
 20
10.62177214655911
 30
0.0
 11
457.87640948425445
 21
12.391394132178315
 31
0.0
  0
LINE
  5
3C
330
17
100
AcDbEntity
  8
FoilLayer
100
AcDbLine
 10
457.87640948425445
 20
12.391394132178315
 30
0.0
 11
451.72511536932205
 21
14.209261251168549
 31
0.0
  0
LINE
  5
3D
330
17
100
AcDbEntity
  8
FoilLayer
100
AcDbLine
 10
451.72511536932205
 20
14.209261251168549
 30
0.0
 11
445.5151190477756
 21
16.0222959347965
 31
0.0
  0
LINE
  5
3E
330
17
100
AcDbEntity
  8
FoilLayer
100
AcDbLine
 10
445.5151190477756
 20
16.0222959347965
 30
0.0
 11
439.2602840636874
 21
17.804434720206544
 31
0.0
  0
LINE
  5
3F
330
17
100
AcDbEntity
  8
FoilLayer
100
AcDbLine
 10
439.2602840636874
 20
17.804434720206544
 30
0.0
 11
432.91482111149315
 21
19.6594561373101
 31
0.0
  0
LINE
  5
40
330
17
100
AcDbEntity
  8
FoilLayer
100
AcDbLine
 10
432.91482111149315
 20
19.6594561373101
 30
0.0
 11
426.4924352947617
 21
21.546640976661017
 31
0.0
  0
LINE
  5
41
330
17
100
AcDbEntity
  8
FoilLayer
100
AcDbLine
 10
426.4924352947617
 20
21.546640976661017
 30
0.0
 11
419.9638943405634
 21
23.41718956312537
 31
0.0
  0
LINE
  5
42
330
17
100
AcDbEntity
  8
FoilLayer
100
AcDbLine
 10
419.9638943405634
 20
23.41718956312537
 30
0.0
 11
413.32903980839495
 21
25.30857307582384
 31
0.0
  0
LINE
  5
43
330
17
100
AcDbEntity
  8
FoilLayer
100
AcDbLine
 10
413.32903980839495
 20
25.30857307582384
 30
0.0
 11
406.58478210843435
 21
27.20122411255177
 31
0.0
  0
LINE
  5
44
330
17
100
AcDbEntity
  8
FoilLayer
100
AcDbLine
 10
406.58478210843435
 20
27.20122411255177
 30
0.0
 11
399.7112369574697
 21
29.139268353584455
 31
0.0
  0
LINE
  5
45
330
17
100
AcDbEntity
  8
FoilLayer
100
AcDbLine
 10
399.7112369574697
 20
29.139268353584455
 30
0.0
 11
392.72844707921655
 21
31.103772158731964
 31
0.0
  0
LINE
  5
46
330
17
100
AcDbEntity
  8
FoilLayer
100
AcDbLine
 10
392.72844707921655
 20
31.103772158731964
 30
0.0
 11
385.66651616937435
 21
33.08491221676604
 31
0.0
  0
LINE
  5
47
330
17
100
AcDbEntity
  8
FoilLayer
100
AcDbLine
 10
385.66651616937435
 20
33.08491221676604
 30
0.0
 11
378.55435961986535
 21
35.077459991065176
 31
0.0
  0
LINE
  5
48
330
17
100
AcDbEntity
  8
FoilLayer
100
AcDbLine
 10
378.55435961986535
 20
35.077459991065176
 30
0.0
 11
371.4192291973223
 21
37.076186945007905
 31
0.0
  0
LINE
  5
49
330
17
100
AcDbEntity
  8
FoilLayer
100
AcDbLine
 10
371.4192291973223
 20
37.076186945007905
 30
0.0
 11
364.28108840520935
 21
39.07031912434386
 31
0.0
  0
LINE
  5
4A
330
17
100
AcDbEntity
  8
FoilLayer
100
AcDbLine
 10
364.28108840520935
 20
39.07031912434386
 30
0.0
 11
357.1454034409035
 21
41.05375656968131
 31
0.0
  0
LINE
  5
4B
330
17
100
AcDbEntity
  8
FoilLayer
100
AcDbLine
 10
357.1454034409035
 20
41.05375656968131
 30
0.0
 11
350.0130457271751
 21
43.025390197494495
 31
0.0
  0
LINE
  5
4C
330
17
100
AcDbEntity
  8
FoilLayer
100
AcDbLine
 10
350.0130457271751
 20
43.025390197494495
 30
0.0
 11
342.88639187157895
 21
44.98506156727972
 31
0.0
  0
LINE
  5
4D
330
17
100
AcDbEntity
  8
FoilLayer
100
AcDbLine
 10
342.88639187157895
 20
44.98506156727972
 30
0.0
 11
335.7734431195515
 21
46.93237457777777
 31
0.0
  0
LINE
  5
4E
330
17
100
AcDbEntity
  8
FoilLayer
100
AcDbLine
 10
335.7734431195515
 20
46.93237457777777
 30
0.0
 11
328.68814223541625
 21
48.861466930352464
 31
0.0
  0
LINE
  5
4F
330
17
100
AcDbEntity
  8
FoilLayer
100
AcDbLine
 10
328.68814223541625
 20
48.861466930352464
 30
0.0
 11
321.6316775229512
 21
50.76465426057521
 31
0.0
  0
LINE
  5
50
330
17
100
AcDbEntity
  8
FoilLayer
100
AcDbLine
 10
321.6316775229512
 20
50.76465426057521
 30
0.0
 11
314.5909776406024
 21
52.64177812794235
 31
0.0
  0
LINE
  5
51
330
17
100
AcDbEntity
  8
FoilLayer
100
AcDbLine
 10
314.5909776406024
 20
52.64177812794235
 30
0.0
 11
307.56041795048924
 21
54.49711642605327
 31
0.0
  0
LINE
  5
52
330
17
100
AcDbEntity
  8
FoilLayer
100
AcDbLine
 10
307.56041795048924
 20
54.49711642605327
 30
0.0
 11
300.54625685250716
 21
56.3299561726414
 31
0.0
  0
LINE
  5
53
330
17
100
AcDbEntity
  8
FoilLayer
100
AcDbLine
 10
300.54625685250716
 20
56.3299561726414
 30
0.0
 11
297.0762711864406
 21
57.22613364840451
 31
0.0
  0
LINE
  5
54
330
17
100
AcDbEntity
  8
FoilLayer
100
AcDbLine
 10
297.0762711864406
 20
57.22613364840451
 30
0.0
 11
296.701180538825
 21
55.77378830170789
 31
0.0
  0
LINE
  5
55
330
17
100
AcDbEntity
  8
FoilLayer
100
AcDbLine
 10
296.701180538825
 20
55.77378830170789
 30
0.0
 11
293.181687782511
 21
56.6827601975916
 31
0.0
  0
LINE
  5
56
330
17
100
AcDbEntity
  8
FoilLayer
100
AcDbLine
 10
293.181687782511
 20
56.6827601975916
 30
0.0
 11
286.20907106521923
 21
58.459013755115585
 31
0.0
  0
LINE
  5
57
330
17
100
AcDbEntity
  8
FoilLayer
100
AcDbLine
 10
286.20907106521923
 20
58.459013755115585
 30
0.0
 11
279.2484336094354
 21
60.20622877585942
 31
0.0
  0
LINE
  5
58
330
17
100
AcDbEntity
  8
FoilLayer
100
AcDbLine
 10
279.2484336094354
 20
60.20622877585942
 30
0.0
 11
272.2945304683969
 21
61.924568445489086
 31
0.0
  0
LINE
  5
59
330
17
100
AcDbEntity
  8
FoilLayer
100
AcDbLine
 10
272.2945304683969
 20
61.924568445489086
 30
0.0
 11
265.34242268618476
 21
63.61575567517294
 31
0.0
  0
LINE
  5
5A
330
17
100
AcDbEntity
  8
FoilLayer
100
AcDbLine
 10
265.34242268618476
 20
63.61575567517294
 30
0.0
 11
258.3926059646864
 21
65.28308333736649
 31
0.0
  0
LINE
  5
5B
330
17
100
AcDbEntity
  8
FoilLayer
100
AcDbLine
 10
258.3926059646864
 20
65.28308333736649
 30
0.0
 11
251.4642217140717
 21
66.92649651982903
 31
0.0
  0
LINE
  5
5C
330
17
100
AcDbEntity
  8
FoilLayer
100
AcDbLine
 10
251.4642217140717
 20
66.92649651982903
 30
0.0
 11
244.5823926726751
 21
68.53689640917905
 31
0.0
  0
LINE
  5
5D
330
17
100
AcDbEntity
  8
FoilLayer
100
AcDbLine
 10
244.5823926726751
 20
68.53689640917905
 30
0.0
 11
237.75368476078364
 21
70.10310878977755
 31
0.0
  0
LINE
  5
5E
330
17
100
AcDbEntity
  8
FoilLayer
100
AcDbLine
 10
237.75368476078364
 20
70.10310878977755
 30
0.0
 11
230.96919953507376
 21
71.6205658277613
 31
0.0
  0
LINE
  5
5F
330
17
100
AcDbEntity
  8
FoilLayer
100
AcDbLine
 10
230.96919953507376
 20
71.6205658277613
 30
0.0
 11
224.21825319895123
 21
73.0887116478179
 31
0.0
  0
LINE
  5
60
330
17
100
AcDbEntity
  8
FoilLayer
100
AcDbLine
 10
224.21825319895123
 20
73.0887116478179
 30
0.0
 11
217.4914627780244
 21
74.50806910597899
 31
0.0
  0
LINE
  5
61
330
17
100
AcDbEntity
  8
FoilLayer
100
AcDbLine
 10
217.4914627780244
 20
74.50806910597899
 30
0.0
 11
210.780454307676
 21
75.87973044832837
 31
0.0
  0
LINE
  5
62
330
17
100
AcDbEntity
  8
FoilLayer
100
AcDbLine
 10
210.780454307676
 20
75.87973044832837
 30
0.0
 11
204.08068726573538
 21
77.20526825046635
 31
0.0
  0
LINE
  5
63
330
17
100
AcDbEntity
  8
FoilLayer
100
AcDbLine
 10
204.08068726573538
 20
77.20526825046635
 30
0.0
 11
197.39279809706517
 21
78.48491074091987
 31
0.0
  0
LINE
  5
64
330
17
100
AcDbEntity
  8
FoilLayer
100
AcDbLine
 10
197.39279809706517
 20
78.48491074091987
 30
0.0
 11
190.7179342654387
 21
79.71655862206313
 31
0.0
  0
LINE
  5
65
330
17
100
AcDbEntity
  8
FoilLayer
100
AcDbLine
 10
190.7179342654387
 20
79.71655862206313
 30
0.0
 11
184.05033111892226
 21
80.89810072009932
 31
0.0
  0
LINE
  5
66
330
17
100
AcDbEntity
  8
FoilLayer
100
AcDbLine
 10
184.05033111892226
 20
80.89810072009932
 30
0.0
 11
177.38031178103682
 21
82.0304919795664
 31
0.0
  0
LINE
  5
67
330
17
100
AcDbEntity
  8
FoilLayer
100
AcDbLine
 10
177.38031178103682
 20
82.0304919795664
 30
0.0
 11
170.70262184688215
 21
83.11601522708365
 31
0.0
  0
LINE
  5
68
330
17
100
AcDbEntity
  8
FoilLayer
100
AcDbLine
 10
170.70262184688215
 20
83.11601522708365
 30
0.0
 11
164.01516433074175
 21
84.15608523071907
 31
0.0
  0
LINE
  5
69
330
17
100
AcDbEntity
  8
FoilLayer
100
AcDbLine
 10
164.01516433074175
 20
84.15608523071907
 30
0.0
 11
157.3173375190916
 21
85.1516441165577
 31
0.0
  0
LINE
  5
6A
330
17
100
AcDbEntity
  8
FoilLayer
100
AcDbLine
 10
157.3173375190916
 20
85.1516441165577
 30
0.0
 11
150.6101704687921
 21
86.10323259161103
 31
0.0
  0
LINE
  5
6B
330
17
100
AcDbEntity
  8
FoilLayer
100
AcDbLine
 10
150.6101704687921
 20
86.10323259161103
 30
0.0
 11
143.89646477736306
 21
87.01080463459967
 31
0.0
  0
LINE
  5
6C
330
17
100
AcDbEntity
  8
FoilLayer
100
AcDbLine
 10
143.89646477736306
 20
87.01080463459967
 30
0.0
 11
137.1778575547661
 21
87.87292375213674
 31
0.0
  0
LINE
  5
6D
330
17
100
AcDbEntity
  8
FoilLayer
100
AcDbLine
 10
137.1778575547661
 20
87.87292375213674
 30
0.0
 11
130.449921067562
 21
88.6883139194906
 31
0.0
  0
LINE
  5
6E
330
17
100
AcDbEntity
  8
FoilLayer
100
AcDbLine
 10
130.449921067562
 20
88.6883139194906
 30
0.0
 11
123.70603465027727
 21
89.45835767464048
 31
0.0
  0
LINE
  5
6F
330
17
100
AcDbEntity
  8
FoilLayer
100
AcDbLine
 10
123.70603465027727
 20
89.45835767464048
 30
0.0
 11
116.94379780645124
 21
90.18550310102006
 31
0.0
  0
LINE
  5
70
330
17
100
AcDbEntity
  8
FoilLayer
100
AcDbLine
 10
116.94379780645124
 20
90.18550310102006
 30
0.0
 11
110.16464699636185
 21
90.87187056917567
 31
0.0
  0
LINE
  5
71
330
17
100
AcDbEntity
  8
FoilLayer
100
AcDbLine
 10
110.16464699636185
 20
90.87187056917567
 30
0.0
 11
103.37548626678006
 21
91.51867611950529
 31
0.0
  0
LINE
  5
72
330
17
100
AcDbEntity
  8
FoilLayer
100
AcDbLine
 10
103.37548626678006
 20
91.51867611950529
 30
0.0
 11
96.5840704081927
 21
92.12494432711972
 31
0.0
  0
LINE
  5
73
330
17
100
AcDbEntity
  8
FoilLayer
100
AcDbLine
 10
96.5840704081927
 20
92.12494432711972
 30
0.0
 11
89.79458788906277
 21
92.68872030842186
 31
0.0
  0
LINE
  5
74
330
17
100
AcDbEntity
  8
FoilLayer
100
AcDbLine
 10
89.79458788906277
 20
92.68872030842186
 30
0.0
 11
83.00875015432871
 21
93.2094537458508
 31
0.0
  0
LINE
  5
75
330
17
100
AcDbEntity
  8
FoilLayer
100
AcDbLine
 10
83.00875015432871
 20
93.2094537458508
 30
0.0
 11
76.22986520374019
 21
93.68665679169834
 31
0.0
  0
LINE
  5
76
330
17
100
AcDbEntity
  8
FoilLayer
100
AcDbLine
 10
76.22986520374019
 20
93.68665679169834
 30
0.0
 11
69.46004905296809
 21
94.11898525129612
 31
0.0
  0
LINE
  5
77
330
17
100
AcDbEntity
  8
FoilLayer
100
AcDbLine
 10
69.46004905296809
 20
94.11898525129612
 30
0.0
 11
62.6988384973676
 21
94.50503158832687
 31
0.0
  0
LINE
  5
78
330
17
100
AcDbEntity
  8
FoilLayer
100
AcDbLine
 10
62.6988384973676
 20
94.50503158832687
 30
0.0
 11
55.94410157563601
 21
94.84448806358326
 31
0.0
  0
LINE
  5
79
330
17
100
AcDbEntity
  8
FoilLayer
100
AcDbLine
 10
55.94410157563601
 20
94.84448806358326
 30
0.0
 11
49.19600723287539
 21
95.13758563358994
 31
0.0
  0
LINE
  5
7A
330
17
100
AcDbEntity
  8
FoilLayer
100
AcDbLine
 10
49.19600723287539
 20
95.13758563358994
 30
0.0
 11
42.455255162155595
 21
95.38377079166148
 31
0.0
  0
LINE
  5
7B
330
17
100
AcDbEntity
  8
FoilLayer
100
AcDbLine
 10
42.455255162155595
 20
95.38377079166148
 30
0.0
 11
35.72063465279979
 21
95.58225981666264
 31
0.0
  0
LINE
  5
7C
330
17
100
AcDbEntity
  8
FoilLayer
100
AcDbLine
 10
35.72063465279979
 20
95.58225981666264
 30
0.0
 11
28.990907747806375
 21
95.73305409881777
 31
0.0
  0
LINE
  5
7D
330
17
100
AcDbEntity
  8
FoilLayer
100
AcDbLine
 10
28.990907747806375
 20
95.73305409881777
 30
0.0
 11
22.26738429555263
 21
95.8363087231755
 31
0.0
  0
LINE
  5
7E
330
17
100
AcDbEntity
  8
FoilLayer
100
AcDbLine
 10
22.26738429555263
 20
95.8363087231755
 30
0.0
 11
15.549073486013867
 21
95.8906052786569
 31
0.0
  0
LINE
  5
7F
330
17
100
AcDbEntity
  8
FoilLayer
100
AcDbLine
 10
15.549073486013867
 20
95.8906052786569
 30
0.0
 11
8.832674302057853
 21
95.89538991332677
 31
0.0
  0
LINE
  5
80
330
17
100
AcDbEntity
  8
FoilLayer
100
AcDbLine
 10
8.832674302057853
 20
95.89538991332677
 30
0.0
 11
2.1147167042080355
 21
95.85168564099666
 31
0.0
  0
LINE
  5
81
330
17
100
AcDbEntity
  8
FoilLayer
100
AcDbLine
 10
2.1147167042080355
 20
95.85168564099666
 30
0.0
 11
-4.6025349331727625
 21
95.7611541246161
 31
0.0
  0
LINE
  5
82
330
17
100
AcDbEntity
  8
FoilLayer
100
AcDbLine
 10
-4.6025349331727625
 20
95.7611541246161
 30
0.0
 11
-11.314379710493768
 21
95.62427615698613
 31
0.0
  0
LINE
  5
83
330
17
100
AcDbEntity
  8
FoilLayer
100
AcDbLine
 10
-11.314379710493768
 20
95.62427615698613
 30
0.0
 11
-18.016603560883368
 21
95.44042505546616
 31
0.0
  0
LINE
  5
84
330
17
100
AcDbEntity
  8
FoilLayer
100
AcDbLine
 10
-18.016603560883368
 20
95.44042505546616
 30
0.0
 11
-24.7066962844375
 21
95.20857587997477
 31
0.0
  0
LINE
  5
85
330
17
100
AcDbEntity
  8
FoilLayer
100
AcDbLine
 10
-24.7066962844375
 20
95.20857587997477
 30
0.0
 11
-31.38431613554377
 21
94.9277730167492
 31
0.0
  0
LINE
  5
86
330
17
100
AcDbEntity
  8
FoilLayer
100
AcDbLine
 10
-31.38431613554377
 20
94.9277730167492
 30
0.0
 11
-38.04922206205987
 21
94.59800851530063
 31
0.0
  0
LINE
  5
87
330
17
100
AcDbEntity
  8
FoilLayer
100
AcDbLine
 10
-38.04922206205987
 20
94.59800851530063
 30
0.0
 11
-44.699477523800766
 21
94.22005906555204
 31
0.0
  0
LINE
  5
88
330
17
100
AcDbEntity
  8
FoilLayer
100
AcDbLine
 10
-44.699477523800766
 20
94.22005906555204
 30
0.0
 11
-51.328658026268954
 21
93.79592705566412
 31
0.0
  0
LINE
  5
89
330
17
100
AcDbEntity
  8
FoilLayer
100
AcDbLine
 10
-51.328658026268954
 20
93.79592705566412
 30
0.0
 11
-57.9242231642485
 21
93.32638533256437
 31
0.0
  0
LINE
  5
8A
330
17
100
AcDbEntity
  8
FoilLayer
100
AcDbLine
 10
-57.9242231642485
 20
93.32638533256437
 30
0.0
 11
-64.47609003851724
 21
92.80903386489001
 31
0.0
  0
LINE
  5
8B
330
17
100
AcDbEntity
  8
FoilLayer
100
AcDbLine
 10
-64.47609003851724
 20
92.80903386489001
 30
0.0
 11
-70.97988480418462
 21
92.23942173433055
 31
0.0
  0
LINE
  5
8C
330
17
100
AcDbEntity
  8
FoilLayer
100
AcDbLine
 10
-70.97988480418462
 20
92.23942173433055
 30
0.0
 11
-77.44108018449182
 21
91.61086291934483
 31
0.0
  0
LINE
  5
8D
330
17
100
AcDbEntity
  8
FoilLayer
100
AcDbLine
 10
-77.44108018449182
 20
91.61086291934483
 30
0.0
 11
-83.8776755567066
 21
90.91835361929095
 31
0.0
  0
LINE
  5
8E
330
17
100
AcDbEntity
  8
FoilLayer
100
AcDbLine
 10
-83.8776755567066
 20
90.91835361929095
 30
0.0
 11
-90.3038936129621
 21
90.16413193078887
 31
0.0
  0
LINE
  5
8F
330
17
100
AcDbEntity
  8
FoilLayer
100
AcDbLine
 10
-90.3038936129621
 20
90.16413193078887
 30
0.0
 11
-96.7176739169131
 21
89.35331969544411
 31
0.0
  0
LINE
  5
90
330
17
100
AcDbEntity
  8
FoilLayer
100
AcDbLine
 10
-96.7176739169131
 20
89.35331969544411
 30
0.0
 11
-103.1116433805935
 21
88.48660000984385
 31
0.0
  0
LINE
  5
91
330
17
100
AcDbEntity
  8
FoilLayer
100
AcDbLine
 10
-103.1116433805935
 20
88.48660000984385
 30
0.0
 11
-109.48316044947697
 21
87.56273943242365
 31
0.0
  0
LINE
  5
92
330
17
100
AcDbEntity
  8
FoilLayer
100
AcDbLine
 10
-109.48316044947697
 20
87.56273943242365
 30
0.0
 11
-115.83048077560849
 21
86.58204358481777
 31
0.0
  0
LINE
  5
93
330
17
100
AcDbEntity
  8
FoilLayer
100
AcDbLine
 10
-115.83048077560849
 20
86.58204358481777
 30
0.0
 11
-122.14791843004406
 21
85.54584498270746
 31
0.0
  0
LINE
  5
94
330
17
100
AcDbEntity
  8
FoilLayer
100
AcDbLine
 10
-122.14791843004406
 20
85.54584498270746
 30
0.0
 11
-128.429551855086
 21
84.45400655040332
 31
0.0
  0
LINE
  5
95
330
17
100
AcDbEntity
  8
FoilLayer
100
AcDbLine
 10
-128.429551855086
 20
84.45400655040332
 30
0.0
 11
-134.67065004602247
 21
83.30607674398858
 31
0.0
  0
LINE
  5
96
330
17
100
AcDbEntity
  8
FoilLayer
100
AcDbLine
 10
-134.67065004602247
 20
83.30607674398858
 30
0.0
 11
-140.86763933758527
 21
82.1012639522428
 31
0.0
  0
LINE
  5
97
330
17
100
AcDbEntity
  8
FoilLayer
100
AcDbLine
 10
-140.86763933758527
 20
82.1012639522428
 30
0.0
 11
-147.0174890108066
 21
80.83907632451707
 31
0.0
  0
LINE
  5
98
330
17
100
AcDbEntity
  8
FoilLayer
100
AcDbLine
 10
-147.0174890108066
 20
80.83907632451707
 30
0.0
 11
-153.11671149386768
 21
79.51981522736888
 31
0.0
  0
LINE
  5
99
330
17
100
AcDbEntity
  8
FoilLayer
100
AcDbLine
 10
-153.11671149386768
 20
79.51981522736888
 30
0.0
 11
-159.15825688550035
 21
78.14366644410995
 31
0.0
  0
LINE
  5
9A
330
17
100
AcDbEntity
  8
FoilLayer
100
AcDbLine
 10
-159.15825688550035
 20
78.14366644410995
 30
0.0
 11
-165.14087072880756
 21
76.70517576159887
 31
0.0
  0
LINE
  5
9B
330
17
100
AcDbEntity
  8
FoilLayer
100
AcDbLine
 10
-165.14087072880756
 20
76.70517576159887
 30
0.0
 11
-171.07628636805026
 21
75.20049391601802
 31
0.0
  0
LINE
  5
9C
330
17
100
AcDbEntity
  8
FoilLayer
100
AcDbLine
 10
-171.07628636805026
 20
75.20049391601802
 30
0.0
 11
-176.9644376167932
 21
73.63987801127196
 31
0.0
  0
LINE
  5
9D
330
17
100
AcDbEntity
  8
FoilLayer
100
AcDbLine
 10
-176.9644376167932
 20
73.63987801127196
 30
0.0
 11
-182.77394761569883
 21
72.0391966079585
 31
0.0
  0
LINE
  5
9E
330
17
100
AcDbEntity
  8
FoilLayer
100
AcDbLine
 10
-182.77394761569883
 20
72.0391966079585
 30
0.0
 11
-188.47214864572817
 21
70.40027104431466
 31
0.0
  0
LINE
  5
9F
330
17
100
AcDbEntity
  8
FoilLayer
100
AcDbLine
 10
-188.47214864572817
 20
70.40027104431466
 30
0.0
 11
-194.0481076374257
 21
68.71530664609294
 31
0.0
  0
LINE
  5
A0
330
17
100
AcDbEntity
  8
FoilLayer
100
AcDbLine
 10
-194.0481076374257
 20
68.71530664609294
 30
0.0
 11
-199.50321772650213
 21
66.97776320717337
 31
0.0
  0
LINE
  5
A1
330
17
100
AcDbEntity
  8
FoilLayer
100
AcDbLine
 10
-199.50321772650213
 20
66.97776320717337
 30
0.0
 11
-204.8415698498834
 21
65.18416520790116
 31
0.0
  0
LINE
  5
A2
330
17
100
AcDbEntity
  8
FoilLayer
100
AcDbLine
 10
-204.8415698498834
 20
65.18416520790116
 30
0.0
 11
-210.06649616418065
 21
63.33368672133462
 31
0.0
  0
LINE
  5
A3
330
17
100
AcDbEntity
  8
FoilLayer
100
AcDbLine
 10
-210.06649616418065
 20
63.33368672133462
 30
0.0
 11
-215.17772098257137
 21
61.42834202739479
 31
0.0
  0
LINE
  5
A4
330
17
100
AcDbEntity
  8
FoilLayer
100
AcDbLine
 10
-215.17772098257137
 20
61.42834202739479
 30
0.0
 11
-220.17004539579574
 21
59.47356685891581
 31
0.0
  0
LINE
  5
A5
330
17
100
AcDbEntity
  8
FoilLayer
100
AcDbLine
 10
-220.17004539579574
 20
59.47356685891581
 30
0.0
 11
-225.032079239856
 21
57.477099797165025
 31
0.0
  0
LINE
  5
A6
330
17
100
AcDbEntity
  8
FoilLayer
100
AcDbLine
 10
-225.032079239856
 20
57.477099797165025
 30
0.0
 11
-229.7502808733696
 21
55.44477817162561
 31
0.0
  0
LINE
  5
A7
330
17
100
AcDbEntity
  8
FoilLayer
100
AcDbLine
 10
-229.7502808733696
 20
55.44477817162561
 30
0.0
 11
-234.31620435581056
 21
53.381046881750386
 31
0.0
  0
LINE
  5
A8
330
17
100
AcDbEntity
  8
FoilLayer
100
AcDbLine
 10
-234.31620435581056
 20
53.381046881750386
 30
0.0
 11
-238.72117320199055
 21
51.29757408873838
 31
0.0
  0
LINE
  5
A9
330
17
100
AcDbEntity
  8
FoilLayer
100
AcDbLine
 10
-238.72117320199055
 20
51.29757408873838
 30
0.0
 11
-242.94764561228328
 21
49.21356476859639
 31
0.0
  0
LINE
  5
AA
330
17
100
AcDbEntity
  8
FoilLayer
100
AcDbLine
 10
-242.94764561228328
 20
49.21356476859639
 30
0.0
 11
-246.97419857270594
 21
47.14548731250862
 31
0.0
  0
LINE
  5
AB
330
17
100
AcDbEntity
  8
FoilLayer
100
AcDbLine
 10
-246.97419857270594
 20
47.14548731250862
 30
0.0
 11
-250.78491109950195
 21
45.10348249039589
 31
0.0
  0
LINE
  5
AC
330
17
100
AcDbEntity
  8
FoilLayer
100
AcDbLine
 10
-250.78491109950195
 20
45.10348249039589
 30
0.0
 11
-254.37139887935
 21
43.09370241905433
 31
0.0
  0
LINE
  5
AD
330
17
100
AcDbEntity
  8
FoilLayer
100
AcDbLine
 10
-254.37139887935
 20
43.09370241905433
 30
0.0
 11
-257.73351884403843
 21
41.118888400946766
 31
0.0
  0
LINE
  5
AE
330
17
100
AcDbEntity
  8
FoilLayer
100
AcDbLine
 10
-257.73351884403843
 20
41.118888400946766
 30
0.0
 11
-260.87713583331936
 21
39.18301002635138
 31
0.0
  0
LINE
  5
AF
330
17
100
AcDbEntity
  8
FoilLayer
100
AcDbLine
 10
-260.87713583331936
 20
39.18301002635138
 30
0.0
 11
-263.809310013995
 21
37.29320440477021
 31
0.0
  0
LINE
  5
B0
330
17
100
AcDbEntity
  8
FoilLayer
100
AcDbLine
 10
-263.809310013995
 20
37.29320440477021
 30
0.0
 11
-266.5376796689739
 21
35.45628737245249
 31
0.0
  0
LINE
  5
B1
330
17
100
AcDbEntity
  8
FoilLayer
100
AcDbLine
 10
-266.5376796689739
 20
35.45628737245249
 30
0.0
 11
-269.0699757788943
 21
33.67856747176661
 31
0.0
  0
LINE
  5
B2
330
17
100
AcDbEntity
  8
FoilLayer
100
AcDbLine
 10
-269.0699757788943
 20
33.67856747176661
 30
0.0
 11
-271.41388292276616
 21
31.96311046691111
 31
0.0
  0
LINE
  5
B3
330
17
100
AcDbEntity
  8
FoilLayer
100
AcDbLine
 10
-271.41388292276616
 20
31.96311046691111
 30
0.0
 11
-273.57843235045664
 21
30.30914334156139
 31
0.0
  0
LINE
  5
B4
330
17
100
AcDbEntity
  8
FoilLayer
100
AcDbLine
 10
-273.57843235045664
 20
30.30914334156139
 30
0.0
 11
-275.5737860325663
 21
28.713467128882364
 31
0.0
  0
LINE
  5
B5
330
17
100
AcDbEntity
  8
FoilLayer
100
AcDbLine
 10
-275.5737860325663
 20
28.713467128882364
 30
0.0
 11
-277.4116033176433
 21
27.170718938585892
 31
0.0
  0
LINE
  5
B6
330
17
100
AcDbEntity
  8
FoilLayer
100
AcDbLine
 10
-277.4116033176433
 20
27.170718938585892
 30
0.0
 11
-279.10633048160025
 21
25.675016400678114
 31
0.0
  0
LINE
  5
B7
330
17
100
AcDbEntity
  8
FoilLayer
100
AcDbLine
 10
-279.10633048160025
 20
25.675016400678114
 30
0.0
 11
-280.6721395284182
 21
24.226121123273717
 31
0.0
  0
LINE
  5
B8
330
17
100
AcDbEntity
  8
FoilLayer
100
AcDbLine
 10
-280.6721395284182
 20
24.226121123273717
 30
0.0
 11
-282.1200769315062
 21
22.826314722509284
 31
0.0
  0
LINE
  5
B9
330
17
100
AcDbEntity
  8
FoilLayer
100
AcDbLine
 10
-282.1200769315062
 20
22.826314722509284
 30
0.0
 11
-283.4582265229518
 21
21.475850381089774
 31
0.0
  0
LINE
  5
BA
330
17
100
AcDbEntity
  8
FoilLayer
100
AcDbLine
 10
-283.4582265229518
 20
21.475850381089774
 30
0.0
 11
-284.69417954759666
 21
20.171519343822315
 31
0.0
  0
LINE
  5
BB
330
17
100
AcDbEntity
  8
FoilLayer
100
AcDbLine
 10
-284.69417954759666
 20
20.171519343822315
 30
0.0
 11
-285.83511746056024
 21
18.910534697947952
 31
0.0
  0
LINE
  5
BC
330
17
100
AcDbEntity
  8
FoilLayer
100
AcDbLine
 10
-285.83511746056024
 20
18.910534697947952
 30
0.0
 11
-286.8875338024355
 21
17.690183407905167
 31
0.0
  0
LINE
  5
BD
330
17
100
AcDbEntity
  8
FoilLayer
100
AcDbLine
 10
-286.8875338024355
 20
17.690183407905167
 30
0.0
 11
-287.8574915428498
 21
16.50761819579263
 31
0.0
  0
LINE
  5
BE
330
17
100
AcDbEntity
  8
FoilLayer
100
AcDbLine
 10
-287.8574915428498
 20
16.50761819579263
 30
0.0
 11
-288.7516611308251
 21
15.358756698616917
 31
0.0
  0
LINE
  5
BF
330
17
100
AcDbEntity
  8
FoilLayer
100
AcDbLine
 10
-288.7516611308251
 20
15.358756698616917
 30
0.0
 11
-289.57688867276187
 21
14.241527859075642
 31
0.0
  0
LINE
  5
C0
330
17
100
AcDbEntity
  8
FoilLayer
100
AcDbLine
 10
-289.57688867276187
 20
14.241527859075642
 30
0.0
 11
-290.3372827971704
 21
13.15840780914698
 31
0.0
  0
LINE
  5
C1
330
17
100
AcDbEntity
  8
FoilLayer
100
AcDbLine
 10
-290.3372827971704
 20
13.15840780914698
 30
0.0
 11
-291.0339719977181
 21
12.110231916543341
 31
0.0
  0
LINE
  5
C2
330
17
100
AcDbEntity
  8
FoilLayer
100
AcDbLine
 10
-291.0339719977181
 20
12.110231916543341
 30
0.0
 11
-291.6719916667249
 21
11.08579625316983
 31
0.0
  0
LINE
  5
C3
330
17
100
AcDbEntity
  8
FoilLayer
100
AcDbLine
 10
-291.6719916667249
 20
11.08579625316983
 30
0.0
 11
-292.2618215507472
 21
10.07667074515094
 31
0.0
  0
LINE
  5
C4
330
17
100
AcDbEntity
  8
FoilLayer
100
AcDbLine
 10
-292.2618215507472
 20
10.07667074515094
 30
0.0
 11
-292.80583334584605
 21
9.102278477580333
 31
0.0
  0
LINE
  5
C5
330
17
100
AcDbEntity
  8
FoilLayer
100
AcDbLine
 10
-292.80583334584605
 20
9.102278477580333
 30
0.0
 11
-293.2930314971377
 21
8.180541199786504
 31
0.0
  0
LINE
  5
C6
330
17
100
AcDbEntity
  8
FoilLayer
100
AcDbLine
 10
-293.2930314971377
 20
8.180541199786504
 30
0.0
 11
-293.72075252204013
 21
7.279546280903608
 31
0.0
  0
LINE
  5
C7
330
17
100
AcDbEntity
  8
FoilLayer
100
AcDbLine
 10
-293.72075252204013
 20
7.279546280903608
 30
0.0
 11
-294.1035839220053
 21
6.363797801070437
 31
0.0
  0
LINE
  5
C8
330
17
100
AcDbEntity
  8
FoilLayer
100
AcDbLine
 10
-294.1035839220053
 20
6.363797801070437
 30
0.0
 11
-294.4519123878461
 21
5.468754240431277
 31
0.0
  0
LINE
  5
C9
330
17
100
AcDbEntity
  8
FoilLayer
100
AcDbLine
 10
-294.4519123878461
 20
5.468754240431277
 30
0.0
 11
-294.755278431745
 21
4.636319209160535
 31
0.0
  0
LINE
  5
CA
330
17
100
AcDbEntity
  8
FoilLayer
100
AcDbLine
 10
-294.755278431745
 20
4.636319209160535
 30
0.0
 11
-295.0026496364005
 21
3.835251033920692
 31
0.0
  0
LINE
  5
CB
330
17
100
AcDbEntity
  8
FoilLayer
100
AcDbLine
 10
-295.0026496364005
 20
3.835251033920692
 30
0.0
 11
-295.19735124971874
 21
3.024017444334305
 31
0.0
  0
LINE
  5
CC
330
17
100
AcDbEntity
  8
FoilLayer
100
AcDbLine
 10
-295.19735124971874
 20
3.024017444334305
 30
0.0
 11
-295.35064926605594
 21
2.2186645590096643
 31
0.0
  0
LINE
  5
CD
330
17
100
AcDbEntity
  8
FoilLayer
100
AcDbLine
 10
-295.35064926605594
 20
2.2186645590096643
 30
0.0
 11
-295.4669470908898
 21
1.4449683971332359
 31
0.0
  0
LINE
  5
CE
330
17
100
AcDbEntity
  8
FoilLayer
100
AcDbLine
 10
-295.4669470908898
 20
1.4449683971332359
 30
0.0
 11
-295.5427217247031
 21
0.6980909284100526
 31
0.0
  0
LINE
  5
CF
330
17
100
AcDbEntity
  8
FoilLayer
100
AcDbLine
 10
-295.5427217247031
 20
0.6980909284100526
 30
0.0
 11
-295.5762711864406
 21
-0.04935421689680206
 31
0.0
  0
LINE
  5
D0
330
17
100
AcDbEntity
  8
FoilLayer
100
AcDbLine
 10
-295.5762711864406
 20
-0.04935421689680206
 30
0.0
 11
-295.56999893299457
 21
-0.7293120318189892
 31
0.0
  0
LINE
  5
D1
330
17
100
AcDbEntity
  8
FoilLayer
100
AcDbLine
 10
-295.56999893299457
 20
-0.7293120318189892
 30
0.0
 11
-295.51967497205584
 21
-1.4134987440983555
 31
0.0
  0
LINE
  5
D2
330
17
100
AcDbEntity
  8
FoilLayer
100
AcDbLine
 10
-295.51967497205584
 20
-1.4134987440983555
 30
0.0
 11
-295.41312826553104
 21
-2.095498917524399
 31
0.0
  0
LINE
  5
D3
330
17
100
AcDbEntity
  8
FoilLayer
100
AcDbLine
 10
-295.41312826553104
 20
-2.095498917524399
 30
0.0
 11
-295.2425471818249
 21
-2.7836317515554088
 31
0.0
  0
LINE
  5
D4
330
17
100
AcDbEntity
  8
FoilLayer
100
AcDbLine
 10
-295.2425471818249
 20
-2.7836317515554088
 30
0.0
 11
-295.0091308471187
 21
-3.4731361662142004
 31
0.0
  0
LINE
  5
D5
330
17
100
AcDbEntity
  8
FoilLayer
100
AcDbLine
 10
-295.0091308471187
 20
-3.4731361662142004
 30
0.0
 11
-294.71517684673523
 21
-4.157125121256192
 31
0.0
  0
LINE
  5
D6
330
17
100
AcDbEntity
  8
FoilLayer
100
AcDbLine
 10
-294.71517684673523
 20
-4.157125121256192
 30
0.0
 11
-294.36090295239194
 21
-4.830549327215366
 31
0.0
  0
LINE
  5
D7
330
17
100
AcDbEntity
  8
FoilLayer
100
AcDbLine
 10
-294.36090295239194
 20
-4.830549327215366
 30
0.0
 11
-293.94570499486343
 21
-5.488577312701857
 31
0.0
  0
LINE
  5
D8
330
17
100
AcDbEntity
  8
FoilLayer
100
AcDbLine
 10
-293.94570499486343
 20
-5.488577312701857
 30
0.0
 11
-293.4622682157048
 21
-6.133220444892334
 31
0.0
  0
LINE
  5
D9
330
17
100
AcDbEntity
  8
FoilLayer
100
AcDbLine
 10
-293.4622682157048
 20
-6.133220444892334
 30
0.0
 11
-292.9065425619632
 21
-6.766868428805811
 31
0.0
  0
LINE
  5
DA
330
17
100
AcDbEntity
  8
FoilLayer
100
AcDbLine
 10
-292.9065425619632
 20
-6.766868428805811
 30
0.0
 11
-292.28415813672035
 21
-7.387264487493553
 31
0.0
  0
LINE
  5
DB
330
17
100
AcDbEntity
  8
FoilLayer
100
AcDbLine
 10
-292.28415813672035
 20
-7.387264487493553
 30
0.0
 11
-291.5992806729437
 21
-7.992443768455237
 31
0.0
  0
LINE
  5
DC
330
17
100
AcDbEntity
  8
FoilLayer
100
AcDbLine
 10
-291.5992806729437
 20
-7.992443768455237
 30
0.0
 11
-290.85394990839154
 21
-8.580559512855281
 31
0.0
  0
LINE
  5
DD
330
17
100
AcDbEntity
  8
FoilLayer
100
AcDbLine
 10
-290.85394990839154
 20
-8.580559512855281
 30
0.0
 11
-290.0484102785312
 21
-9.149674811646468
 31
0.0
  0
LINE
  5
DE
330
17
100
AcDbEntity
  8
FoilLayer
100
AcDbLine
 10
-290.0484102785312
 20
-9.149674811646468
 30
0.0
 11
-289.17898967230747
 21
-9.698929455133188
 31
0.0
  0
LINE
  5
DF
330
17
100
AcDbEntity
  8
FoilLayer
100
AcDbLine
 10
-289.17898967230747
 20
-9.698929455133188
 30
0.0
 11
-288.24165393707403
 21
-10.22844622418664
 31
0.0
  0
LINE
  5
E0
330
17
100
AcDbEntity
  8
FoilLayer
100
AcDbLine
 10
-288.24165393707403
 20
-10.22844622418664
 30
0.0
 11
-287.2315445966135
 21
-10.739830061873565
 31
0.0
  0
LINE
  5
E1
330
17
100
AcDbEntity
  8
FoilLayer
100
AcDbLine
 10
-287.2315445966135
 20
-10.739830061873565
 30
0.0
 11
-286.1448361602716
 21
-11.236305082794514
 31
0.0
  0
LINE
  5
E2
330
17
100
AcDbEntity
  8
FoilLayer
100
AcDbLine
 10
-286.1448361602716
 20
-11.236305082794514
 30
0.0
 11
-284.98007704006324
 21
-11.72210249420575
 31
0.0
  0
LINE
  5
E3
330
17
100
AcDbEntity
  8
FoilLayer
100
AcDbLine
 10
-284.98007704006324
 20
-11.72210249420575
 30
0.0
 11
-283.7366076667715
 21
-12.201010477610957
 31
0.0
  0
LINE
  5
E4
330
17
100
AcDbEntity
  8
FoilLayer
100
AcDbLine
 10
-283.7366076667715
 20
-12.201010477610957
 30
0.0
 11
-282.4115974546883
 21
-12.675805850354156
 31
0.0
  0
LINE
  5
E5
330
17
100
AcDbEntity
  8
FoilLayer
100
AcDbLine
 10
-282.4115974546883
 20
-12.675805850354156
 30
0.0
 11
-281.00052507902507
 21
-13.148297419193572
 31
0.0
  0
LINE
  5
E6
330
17
100
AcDbEntity
  8
FoilLayer
100
AcDbLine
 10
-281.00052507902507
 20
-13.148297419193572
 30
0.0
 11
-279.49796074762287
 21
-13.61931398095362
 31
0.0
  0
LINE
  5
E7
330
17
100
AcDbEntity
  8
FoilLayer
100
AcDbLine
 10
-279.49796074762287
 20
-13.61931398095362
 30
0.0
 11
-277.8986565758232
 21
-14.08781937112653
 31
0.0
  0
LINE
  5
E8
330
17
100
AcDbEntity
  8
FoilLayer
100
AcDbLine
 10
-277.8986565758232
 20
-14.08781937112653
 30
0.0
 11
-276.1921262809171
 21
-14.550075307387251
 31
0.0
  0
LINE
  5
E9
330
17
100
AcDbEntity
  8
FoilLayer
100
AcDbLine
 10
-276.1921262809171
 20
-14.550075307387251
 30
0.0
 11
-274.36080677634357
 21
-15.002828999475039
 31
0.0
  0
LINE
  5
EA
330
17
100
AcDbEntity
  8
FoilLayer
100
AcDbLine
 10
-274.36080677634357
 20
-15.002828999475039
 30
0.0
 11
-272.3885509226088
 21
-15.447789368434858
 31
0.0
  0
LINE
  5
EB
330
17
100
AcDbEntity
  8
FoilLayer
100
AcDbLine
 10
-272.3885509226088
 20
-15.447789368434858
 30
0.0
 11
-270.2630995096344
 21
-15.88934040932351
 31
0.0
  0
LINE
  5
EC
330
17
100
AcDbEntity
  8
FoilLayer
100
AcDbLine
 10
-270.2630995096344
 20
-15.88934040932351
 30
0.0
 11
-267.9711242490564
 21
-16.330605227816854
 31
0.0
  0
LINE
  5
ED
330
17
100
AcDbEntity
  8
FoilLayer
100
AcDbLine
 10
-267.9711242490564
 20
-16.330605227816854
 30
0.0
 11
-265.4979430734237
 21
-16.772764683609903
 31
0.0
  0
LINE
  5
EE
330
17
100
AcDbEntity
  8
FoilLayer
100
AcDbLine
 10
-265.4979430734237
 20
-16.772764683609903
 30
0.0
 11
-262.8287068317306
 21
-17.2126130032468
 31
0.0
  0
LINE
  5
EF
330
17
100
AcDbEntity
  8
FoilLayer
100
AcDbLine
 10
-262.8287068317306
 20
-17.2126130032468
 30
0.0
 11
-259.9438015648117
 21
-17.641857198197364
 31
0.0
  0
LINE
  5
F0
330
17
100
AcDbEntity
  8
FoilLayer
100
AcDbLine
 10
-259.9438015648117
 20
-17.641857198197364
 30
0.0
 11
-256.8194411659631
 21
-18.052564607202484
 31
0.0
  0
LINE
  5
F1
330
17
100
AcDbEntity
  8
FoilLayer
100
AcDbLine
 10
-256.8194411659631
 20
-18.052564607202484
 30
0.0
 11
-253.42845512378875
 21
-18.43909558323514
 31
0.0
  0
LINE
  5
F2
330
17
100
AcDbEntity
  8
FoilLayer
100
AcDbLine
 10
-253.42845512378875
 20
-18.43909558323514
 30
0.0
 11
-249.740323771777
 21
-18.79989316431418
 31
0.0
  0
LINE
  5
F3
330
17
100
AcDbEntity
  8
FoilLayer
100
AcDbLine
 10
-249.740323771777
 20
-18.79989316431418
 30
0.0
 11
-245.7326794524746
 21
-19.14118462886585
 31
0.0
  0
LINE
  5
F4
330
17
100
AcDbEntity
  8
FoilLayer
100
AcDbLine
 10
-245.7326794524746
 20
-19.14118462886585
 30
0.0
 11
-241.40168911609527
 21
-19.467203882233132
 31
0.0
  0
LINE
  5
F5
330
17
100
AcDbEntity
  8
FoilLayer
100
AcDbLine
 10
-241.40168911609527
 20
-19.467203882233132
 30
0.0
 11
-236.7522226225629
 21
-19.769035284225705
 31
0.0
  0
LINE
  5
F6
330
17
100
AcDbEntity
  8
FoilLayer
100
AcDbLine
 10
-236.7522226225629
 20
-19.769035284225705
 30
0.0
 11
-231.78570785040236
 21
-20.03352923213796
 31
0.0
  0
LINE
  5
F7
330
17
100
AcDbEntity
  8
FoilLayer
100
AcDbLine
 10
-231.78570785040236
 20
-20.03352923213796
 30
0.0
 11
-226.50459948944274
 21
-20.254155791750378
 31
0.0
  0
LINE
  5
F8
330
17
100
AcDbEntity
  8
FoilLayer
100
AcDbLine
 10
-226.50459948944274
 20
-20.254155791750378
 30
0.0
 11
-220.91668525570745
 21
-20.430968085071367
 31
0.0
  0
LINE
  5
F9
330
17
100
AcDbEntity
  8
FoilLayer
100
AcDbLine
 10
-220.91668525570745
 20
-20.430968085071367
 30
0.0
 11
-215.0448673968898
 21
-20.570926600321112
 31
0.0
  0
LINE
  5
FA
330
17
100
AcDbEntity
  8
FoilLayer
100
AcDbLine
 10
-215.0448673968898
 20
-20.570926600321112
 30
0.0
 11
-208.94070309590563
 21
-20.680989316013225
 31
0.0
  0
LINE
  5
FB
330
17
100
AcDbEntity
  8
FoilLayer
100
AcDbLine
 10
-208.94070309590563
 20
-20.680989316013225
 30
0.0
 11
-202.66789092780746
 21
-20.757344845096274
 31
0.0
  0
LINE
  5
FC
330
17
100
AcDbEntity
  8
FoilLayer
100
AcDbLine
 10
-202.66789092780746
 20
-20.757344845096274
 30
0.0
 11
-196.273147495354
 21
-20.789578359286395
 31
0.0
  0
LINE
  5
FD
330
17
100
AcDbEntity
  8
FoilLayer
100
AcDbLine
 10
-196.273147495354
 20
-20.789578359286395
 30
0.0
 11
-189.77640351073057
 21
-20.76608544616685
 31
0.0
  0
LINE
  5
FE
330
17
100
AcDbEntity
  8
FoilLayer
100
AcDbLine
 10
-189.77640351073057
 20
-20.76608544616685
 30
0.0
 11
-183.161659921057
 21
-20.680866555651225
 31
0.0
  0
LINE
  5
FF
330
17
100
AcDbEntity
  8
FoilLayer
100
AcDbLine
 10
-183.161659921057
 20
-20.680866555651225
 30
0.0
 11
-176.4062147965338
 21
-20.544603733603953
 31
0.0
  0
LINE
  5
100
330
17
100
AcDbEntity
  8
FoilLayer
100
AcDbLine
 10
-176.4062147965338
 20
-20.544603733603953
 30
0.0
 11
-169.52702411081924
 21
-20.374289173257825
 31
0.0
  0
LINE
  5
101
330
17
100
AcDbEntity
  8
FoilLayer
100
AcDbLine
 10
-169.52702411081924
 20
-20.374289173257825
 30
0.0
 11
-162.55446828912062
 21
-20.17263842782431
 31
0.0
  0
LINE
  5
102
330
17
100
AcDbEntity
  8
FoilLayer
100
AcDbLine
 10
-162.55446828912062
 20
-20.17263842782431
 30
0.0
 11
-155.49193754425968
 21
-19.937679638329143
 31
0.0
  0
LINE
  5
103
330
17
100
AcDbEntity
  8
FoilLayer
100
AcDbLine
 10
-155.49193754425968
 20
-19.937679638329143
 30
0.0
 11
-148.33856575379198
 21
-19.676821929997743
 31
0.0
  0
LINE
  5
104
330
17
100
AcDbEntity
  8
FoilLayer
100
AcDbLine
 10
-148.33856575379198
 20
-19.676821929997743
 30
0.0
 11
-141.11747585374806
 21
-19.401364291835442
 31
0.0
  0
LINE
  5
105
330
17
100
AcDbEntity
  8
FoilLayer
100
AcDbLine
 10
-141.11747585374806
 20
-19.401364291835442
 30
0.0
 11
-138.69458782739946
 21
-19.305998953534463
 31
0.0
  0
LINE
  5
106
330
17
100
AcDbEntity
  8
FoilLayer
100
AcDbLine
 10
-138.69458782739946
 20
-19.305998953534463
 30
0.0
 11
-138.63559322033893
 21
-20.804838383339327
 31
0.0
  0
LINE
  5
107
330
17
100
AcDbEntity
  8
FoilLayer
100
AcDbLine
 10
-138.63559322033893
 20
-20.804838383339327
 30
0.0
 11
-133.80269838059107
 21
-20.614614713754317
 31
0.0
  0
LINE
  5
108
330
17
100
AcDbEntity
  8
FoilLayer
100
AcDbLine
 10
-133.80269838059107
 20
-20.614614713754317
 30
0.0
 11
-126.5425584006434
 21
-20.316429685825643
 31
0.0
  0
LINE
  5
109
330
17
100
AcDbEntity
  8
FoilLayer
100
AcDbLine
 10
-126.5425584006434
 20
-20.316429685825643
 30
0.0
 11
-119.28701319530242
 21
-19.9965383088926
 31
0.0
  0
LINE
  5
10A
330
17
100
AcDbEntity
  8
FoilLayer
100
AcDbLine
 10
-119.28701319530242
 20
-19.9965383088926
 30
0.0
 11
-112.01530705858596
 21
-19.649395165326325
 31
0.0
  0
LINE
  5
10B
330
17
100
AcDbEntity
  8
FoilLayer
100
AcDbLine
 10
-112.01530705858596
 20
-19.649395165326325
 30
0.0
 11
-104.70850635030402
 21
-19.280783333511206
 31
0.0
  0
LINE
  5
10C
330
17
100
AcDbEntity
  8
FoilLayer
100
AcDbLine
 10
-104.70850635030402
 20
-19.280783333511206
 30
0.0
 11
-97.37104740455968
 21
-18.899258600646043
 31
0.0
  0
LINE
  5
10D
330
17
100
AcDbEntity
  8
FoilLayer
100
AcDbLine
 10
-97.37104740455968
 20
-18.899258600646043
 30
0.0
 11
-90.0199625754988
 21
-18.50965340209311
 31
0.0
  0
LINE
  5
10E
330
17
100
AcDbEntity
  8
FoilLayer
100
AcDbLine
 10
-90.0199625754988
 20
-18.50965340209311
 30
0.0
 11
-82.67584912859982
 21
-18.11077943407482
 31
0.0
  0
LINE
  5
10F
330
17
100
AcDbEntity
  8
FoilLayer
100
AcDbLine
 10
-82.67584912859982
 20
-18.11077943407482
 30
0.0
 11
-75.3414797726773
 21
-17.69423934989603
 31
0.0
  0
LINE
  5
110
330
17
100
AcDbEntity
  8
FoilLayer
100
AcDbLine
 10
-75.3414797726773
 20
-17.69423934989603
 30
0.0
 11
-67.9941975157048
 21
-17.255042273690783
 31
0.0
  0
LINE
  5
111
330
17
100
AcDbEntity
  8
FoilLayer
100
AcDbLine
 10
-67.9941975157048
 20
-17.255042273690783
 30
0.0
 11
-60.613721973210914
 21
-16.797307658554793
 31
0.0
  0
LINE
  5
112
330
17
100
AcDbEntity
  8
FoilLayer
100
AcDbLine
 10
-60.613721973210914
 20
-16.797307658554793
 30
0.0
 11
-53.19973626418846
 21
-16.33165101823472
 31
0.0
  0
LINE
  5
113
330
17
100
AcDbEntity
  8
FoilLayer
100
AcDbLine
 10
-53.19973626418846
 20
-16.33165101823472
 30
0.0
 11
-45.76895586177571
 21
-15.870430712017734
 31
0.0
  0
LINE
  5
114
330
17
100
AcDbEntity
  8
FoilLayer
100
AcDbLine
 10
-45.76895586177571
 20
-15.870430712017734
 30
0.0
 11
-38.32066778370614
 21
-15.41332985889647
 31
0.0
  0
LINE
  5
115
330
17
100
AcDbEntity
  8
FoilLayer
100
AcDbLine
 10
-38.32066778370614
 20
-15.41332985889647
 30
0.0
 11
-30.8648537817117
 21
-14.950049826131623
 31
0.0
  0
LINE
  5
116
330
17
100
AcDbEntity
  8
FoilLayer
100
AcDbLine
 10
-30.8648537817117
 20
-14.950049826131623
 30
0.0
 11
-23.391611324312294
 21
-14.477342583397729
 31
0.0
  0
LINE
  5
117
330
17
100
AcDbEntity
  8
FoilLayer
100
AcDbLine
 10
-23.391611324312294
 20
-14.477342583397729
 30
0.0
 11
-15.900623530500582
 21
-14.000674328071792
 31
0.0
  0
LINE
  5
118
330
17
100
AcDbEntity
  8
FoilLayer
100
AcDbLine
 10
-15.900623530500582
 20
-14.000674328071792
 30
0.0
 11
-8.403694217800819
 21
-13.525352817027152
 31
0.0
  0
LINE
  5
119
330
17
100
AcDbEntity
  8
FoilLayer
100
AcDbLine
 10
-8.403694217800819
 20
-13.525352817027152
 30
0.0
 11
-0.9047051785531721
 21
-13.053596217315341
 31
0.0
  0
LINE
  5
11A
330
17
100
AcDbEntity
  8
FoilLayer
100
AcDbLine
 10
-0.9047051785531721
 20
-13.053596217315341
 30
0.0
 11
6.596185146738662
 21
-12.585879850447412
 31
0.0
  0
LINE
  5
11B
330
17
100
AcDbEntity
  8
FoilLayer
100
AcDbLine
 10
6.596185146738662
 20
-12.585879850447412
 30
0.0
 11
14.096679370771312
 21
-12.120302430379184
 31
0.0
  0
LINE
  5
11C
330
17
100
AcDbEntity
  8
FoilLayer
100
AcDbLine
 10
14.096679370771312
 20
-12.120302430379184
 30
0.0
 11
21.590360653145638
 21
-11.651952301496529
 31
0.0
  0
LINE
  5
11D
330
17
100
AcDbEntity
  8
FoilLayer
100
AcDbLine
 10
21.590360653145638
 20
-11.651952301496529
 30
0.0
 11
29.082774411490448
 21
-11.176313909444525
 31
0.0
  0
LINE
  5
11E
330
17
100
AcDbEntity
  8
FoilLayer
100
AcDbLine
 10
29.082774411490448
 20
-11.176313909444525
 30
0.0
 11
36.58128812922706
 21
-10.696556064296798
 31
0.0
  0
LINE
  5
11F
330
17
100
AcDbEntity
  8
FoilLayer
100
AcDbLine
 10
36.58128812922706
 20
-10.696556064296798
 30
0.0
 11
44.07932652545264
 21
-10.219491707711658
 31
0.0
  0
LINE
  5
120
330
17
100
AcDbEntity
  8
FoilLayer
100
AcDbLine
 10
44.07932652545264
 20
-10.219491707711658
 30
0.0
 11
51.57839478495214
 21
-9.747180566236965
 31
0.0
  0
LINE
  5
121
330
17
100
AcDbEntity
  8
FoilLayer
100
AcDbLine
 10
51.57839478495214
 20
-9.747180566236965
 30
0.0
 11
59.07968121150316
 21
-9.27851355634695
 31
0.0
  0
LINE
  5
122
330
17
100
AcDbEntity
  8
FoilLayer
100
AcDbLine
 10
59.07968121150316
 20
-9.27851355634695
 30
0.0
 11
66.57930401276553
 21
-8.808975123686682
 31
0.0
  0
LINE
  5
123
330
17
100
AcDbEntity
  8
FoilLayer
100
AcDbLine
 10
66.57930401276553
 20
-8.808975123686682
 30
0.0
 11
74.07496580143584
 21
-8.334683475915968
 31
0.0
  0
LINE
  5
124
330
17
100
AcDbEntity
  8
FoilLayer
100
AcDbLine
 10
74.07496580143584
 20
-8.334683475915968
 30
0.0
 11
81.57134057237278
 21
-7.8552425117756055
 31
0.0
  0
LINE
  5
125
330
17
100
AcDbEntity
  8
FoilLayer
100
AcDbLine
 10
81.57134057237278
 20
-7.8552425117756055
 30
0.0
 11
89.0666062597839
 21
-7.37334571982818
 31
0.0
  0
LINE
  5
126
330
17
100
AcDbEntity
  8
FoilLayer
100
AcDbLine
 10
89.0666062597839
 20
-7.37334571982818
 30
0.0
 11
96.55434602327017
 21
-6.893904755687816
 31
0.0
  0
LINE
  5
127
330
17
100
AcDbEntity
  8
FoilLayer
100
AcDbLine
 10
96.55434602327017
 20
-6.893904755687816
 30
0.0
 11
104.032817017291
 21
-6.420801411694715
 31
0.0
  0
LINE
  5
128
330
17
100
AcDbEntity
  8
FoilLayer
100
AcDbLine
 10
104.032817017291
 20
-6.420801411694715
 30
0.0
 11
111.50582181393492
 21
-5.955303211878329
 31
0.0
  0
LINE
  5
129
330
17
100
AcDbEntity
  8
FoilLayer
100
AcDbLine
 10
111.50582181393492
 20
-5.955303211878329
 30
0.0
 11
118.97763830680123
 21
-5.49677639422393
 31
0.0
  0
LINE
  5
12A
330
17
100
AcDbEntity
  8
FoilLayer
100
AcDbLine
 10
118.97763830680123
 20
-5.49677639422393
 30
0.0
 11
126.44810805538606
 21
-5.043398892939181
 31
0.0
  0
LINE
  5
12B
330
17
100
AcDbEntity
  8
FoilLayer
100
AcDbLine
 10
126.44810805538606
 20
-5.043398892939181
 30
0.0
 11
133.91105188004627
 21
-4.595487589031446
 31
0.0
  0
LINE
  5
12C
330
17
100
AcDbEntity
  8
FoilLayer
100
AcDbLine
 10
133.91105188004627
 20
-4.595487589031446
 30
0.0
 11
141.3638555124707
 21
-4.155260649552266
 31
0.0
  0
LINE
  5
12D
330
17
100
AcDbEntity
  8
FoilLayer
100
AcDbLine
 10
141.3638555124707
 20
-4.155260649552266
 30
0.0
 11
148.80992542348866
 21
-3.725490783316069
 31
0.0
  0
LINE
  5
12E
330
17
100
AcDbEntity
  8
FoilLayer
100
AcDbLine
 10
148.80992542348866
 20
-3.725490783316069
 30
0.0
 11
156.2601940078543
 21
-3.307603954855987
 31
0.0
  0
LINE
  5
12F
330
17
100
AcDbEntity
  8
FoilLayer
100
AcDbLine
 10
156.2601940078543
 20
-3.307603954855987
 30
0.0
 11
163.72797026787663
 21
-2.897876812335505
 31
0.0
  0
LINE
  5
130
330
17
100
AcDbEntity
  8
FoilLayer
100
AcDbLine
 10
163.72797026787663
 20
-2.897876812335505
 30
0.0
 11
171.2112736972599
 21
-2.4903678368665645
 31
0.0
  0
LINE
  5
131
330
17
100
AcDbEntity
  8
FoilLayer
100
AcDbLine
 10
171.2112736972599
 20
-2.4903678368665645
 30
0.0
 11
178.69774593671667
 21
-2.0803238133387194
 31
0.0
  0
LINE
  5
132
330
17
100
AcDbEntity
  8
FoilLayer
100
AcDbLine
 10
178.69774593671667
 20
-2.0803238133387194
 30
0.0
 11
186.18627790272132
 21
-1.6646551519301793
 31
0.0
  0
LINE
  5
133
330
17
100
AcDbEntity
  8
FoilLayer
100
AcDbLine
 10
186.18627790272132
 20
-1.6646551519301793
 30
0.0
 11
193.6755228509926
 21
-1.247085204477461
 31
0.0
  0
LINE
  5
134
330
17
100
AcDbEntity
  8
FoilLayer
100
AcDbLine
 10
193.6755228509926
 20
-1.247085204477461
 30
0.0
 11
201.15819251836098
 21
-0.8345853531425519
 31
0.0
  0
LINE
  5
135
330
17
100
AcDbEntity
  8
FoilLayer
100
AcDbLine
 10
201.15819251836098
 20
-0.8345853531425519
 30
0.0
 11
208.63856479842605
 21
-0.42929454472515316
 31
0.0
  0
LINE
  5
136
330
17
100
AcDbEntity
  8
FoilLayer
100
AcDbLine
 10
208.63856479842605
 20
-0.42929454472515316
 30
0.0
 11
216.12131368604645
 21
-0.030024475447653267
 31
0.0
  0
LINE
  5
137
330
17
100
AcDbEntity
  8
FoilLayer
100
AcDbLine
 10
216.12131368604645
 20
-0.030024475447653267
 30
0.0
 11
223.60231972812613
 21
0.36861183181512047
 31
0.0
  0
LINE
  5
138
330
17
100
AcDbEntity
  8
FoilLayer
100
AcDbLine
 10
223.60231972812613
 20
0.36861183181512047
 30
0.0
 11
231.07334401847407
 21
0.7710507111662512
 31
0.0
  0
LINE
  5
139
330
17
100
AcDbEntity
  8
FoilLayer
100
AcDbLine
 10
231.07334401847407
 20
0.7710507111662512
 30
0.0
 11
238.53090086600895
 21
1.1719051854805667
 31
0.0
  0
LINE
  5
13A
330
17
100
AcDbEntity
  8
FoilLayer
100
AcDbLine
 10
238.53090086600895
 20
1.1719051854805667
 30
0.0
 11
245.9683357695764
 21
1.5631740093221484
 31
0.0
  0
LINE
  5
13B
330
17
100
AcDbEntity
  8
FoilLayer
100
AcDbLine
 10
245.9683357695764
 20
1.5631740093221484
 30
0.0
 11
253.39467983788603
 21
1.9412130511063208
 31
0.0
  0
LINE
  5
13C
330
17
100
AcDbEntity
  8
FoilLayer
100
AcDbLine
 10
253.39467983788603
 20
1.9412130511063208
 30
0.0
 11
260.82403427576565
 21
2.306497632344129
 31
0.0
  0
LINE
  5
13D
330
17
100
AcDbEntity
  8
FoilLayer
100
AcDbLine
 10
260.82403427576565
 20
2.306497632344129
 30
0.0
 11
268.26099385782203
 21
2.6659199149457193
 31
0.0
  0
LINE
  5
13E
330
17
100
AcDbEntity
  8
FoilLayer
100
AcDbLine
 10
268.26099385782203
 20
2.6659199149457193
 30
0.0
 11
275.68710026537605
 21
3.0232032507476094
 31
0.0
  0
LINE
  5
13F
330
17
100
AcDbEntity
  8
FoilLayer
100
AcDbLine
 10
275.68710026537605
 20
3.0232032507476094
 30
0.0
 11
283.07842898237215
 21
3.3761294726982567
 31
0.0
  0
LINE
  5
140
330
17
100
AcDbEntity
  8
FoilLayer
100
AcDbLine
 10
283.07842898237215
 20
3.3761294726982567
 30
0.0
 11
290.4168385711385
 21
3.717172656872788
 31
0.0
  0
LINE
  5
141
330
17
100
AcDbEntity
  8
FoilLayer
100
AcDbLine
 10
290.4168385711385
 20
3.717172656872788
 30
0.0
 11
297.70407187721577
 21
4.035638069272698
 31
0.0
  0
LINE
  5
142
330
17
100
AcDbEntity
  8
FoilLayer
100
AcDbLine
 10
297.70407187721577
 20
4.035638069272698
 30
0.0
 11
304.96318199388946
 21
4.330258185868536
 31
0.0
  0
LINE
  5
143
330
17
100
AcDbEntity
  8
FoilLayer
100
AcDbLine
 10
304.96318199388946
 20
4.330258185868536
 30
0.0
 11
312.19004946806405
 21
4.611886181162488
 31
0.0
  0
LINE
  5
144
330
17
100
AcDbEntity
  8
FoilLayer
100
AcDbLine
 10
312.19004946806405
 20
4.611886181162488
 30
0.0
 11
319.3461732573448
 21
4.876640262814353
 31
0.0
  0
LINE
  5
145
330
17
100
AcDbEntity
  8
FoilLayer
100
AcDbLine
 10
319.3461732573448
 20
4.876640262814353
 30
0.0
 11
326.4293351946803
 21
5.10455692736026
 31
0.0
  0
LINE
  5
146
330
17
100
AcDbEntity
  8
FoilLayer
100
AcDbLine
 10
326.4293351946803
 20
5.10455692736026
 30
0.0
 11
333.47676879843556
 21
5.289536215408466
 31
0.0
  0
LINE
  5
147
330
17
100
AcDbEntity
  8
FoilLayer
100
AcDbLine
 10
333.47676879843556
 20
5.289536215408466
 30
0.0
 11
340.51231936441474
 21
5.439975473654095
 31
0.0
  0
LINE
  5
148
330
17
100
AcDbEntity
  8
FoilLayer
100
AcDbLine
 10
340.51231936441474
 20
5.439975473654095
 30
0.0
 11
347.52244022955284
 21
5.572194073976347
 31
0.0
  0
LINE
  5
149
330
17
100
AcDbEntity
  8
FoilLayer
100
AcDbLine
 10
347.52244022955284
 20
5.572194073976347
 30
0.0
 11
354.46989787548506
 21
5.708769788149841
 31
0.0
  0
LINE
  5
14A
330
17
100
AcDbEntity
  8
FoilLayer
100
AcDbLine
 10
354.46989787548506
 20
5.708769788149841
 30
0.0
 11
361.28379017681374
 21
5.829659892458862
 31
0.0
  0
LINE
  5
14B
330
17
100
AcDbEntity
  8
FoilLayer
100
AcDbLine
 10
361.28379017681374
 20
5.829659892458862
 30
0.0
 11
367.9656223183237
 21
5.8756868587783515
 31
0.0
  0
LINE
  5
14C
330
17
100
AcDbEntity
  8
FoilLayer
100
AcDbLine
 10
367.9656223183237
 20
5.8756868587783515
 30
0.0
 11
374.6326402727396
 21
5.844949401064131
 31
0.0
  0
LINE
  5
14D
330
17
100
AcDbEntity
  8
FoilLayer
100
AcDbLine
 10
374.6326402727396
 20
5.844949401064131
 30
0.0
 11
381.3025893764736
 21
5.811993776298369
 31
0.0
  0
LINE
  5
14E
330
17
100
AcDbEntity
  8
FoilLayer
100
AcDbLine
 10
381.3025893764736
 20
5.811993776298369
 30
0.0
 11
387.90108181304714
 21
5.792901695604742
 31
0.0
  0
LINE
  5
14F
330
17
100
AcDbEntity
  8
FoilLayer
100
AcDbLine
 10
387.90108181304714
 20
5.792901695604742
 30
0.0
 11
394.4097384840333
 21
5.72104892718516
 31
0.0
  0
LINE
  5
150
330
17
100
AcDbEntity
  8
FoilLayer
100
AcDbLine
 10
394.4097384840333
 20
5.72104892718516
 30
0.0
 11
400.8962134845039
 21
5.573382377753959
 31
0.0
  0
LINE
  5
151
330
17
100
AcDbEntity
  8
FoilLayer
100
AcDbLine
 10
400.8962134845039
 20
5.573382377753959
 30
0.0
 11
407.368111958636
 21
5.427221013107731
 31
0.0
  0
LINE
  5
152
330
17
100
AcDbEntity
  8
FoilLayer
100
AcDbLine
 10
407.368111958636
 20
5.427221013107731
 30
0.0
 11
413.76689014031905
 21
5.31449059473831
 31
0.0
  0
LINE
  5
153
330
17
100
AcDbEntity
  8
FoilLayer
100
AcDbLine
 10
413.76689014031905
 20
5.31449059473831
 30
0.0
 11
420.0727429665928
 21
5.155099448034672
 31
0.0
  0
LINE
  5
154
330
17
100
AcDbEntity
  8
FoilLayer
100
AcDbLine
 10
420.0727429665928
 20
5.155099448034672
 30
0.0
 11
426.3556219198327
 21
4.885116829761316
 31
0.0
  0
LINE
  5
155
330
17
100
AcDbEntity
  8
FoilLayer
100
AcDbLine
 10
426.3556219198327
 20
4.885116829761316
 30
0.0
 11
432.68492394065123
 21
4.5615021009917545
 31
0.0
  0
LINE
  5
156
330
17
100
AcDbEntity
  8
FoilLayer
100
AcDbLine
 10
432.68492394065123
 20
4.5615021009917545
 30
0.0
 11
438.97952749116365
 21
4.240818521540303
 31
0.0
  0
LINE
  5
157
330
17
100
AcDbEntity
  8
FoilLayer
100
AcDbLine
 10
438.97952749116365
 20
4.240818521540303
 30
0.0
 11
445.1080853938178
 21
3.8981117120771147
 31
0.0
  0
LINE
  5
158
330
17
100
AcDbEntity
  8
FoilLayer
100
AcDbLine
 10
445.1080853938178
 20
3.8981117120771147
 30
0.0
 11
451.1179713592143
 21
3.4353070008233146
 31
0.0
  0
LINE
  5
159
330
17
100
AcDbEntity
  8
FoilLayer
100
AcDbLine
 10
451.1179713592143
 20
3.4353070008233146
 30
0.0
 11
457.10028867697037
 21
2.909126088096895
 31
0.0
  0
LINE
  5
15A
330
17
100
AcDbEntity
  8
FoilLayer
100
AcDbLine
 10
457.10028867697037
 20
2.909126088096895
 30
0.0
 11
462.972885945927
 21
2.3598128618329692
 31
0.0
  0
LINE
  5
15B
330
17
100
AcDbEntity
  8
FoilLayer
100
AcDbLine
 10
462.972885945927
 20
2.3598128618329692
 30
0.0
 11
468.64901699031844
 21
1.8185801012568032
 31
0.0
  0
LINE
  5
15C
330
17
100
AcDbEntity
  8
FoilLayer
100
AcDbLine
 10
468.64901699031844
 20
1.8185801012568032
 30
0.0
 11
474.0524719278738
 21
1.2601565460311885
 31
0.0
  0
LINE
  5
15D
330
17
100
AcDbEntity
  8
FoilLayer
100
AcDbLine
 10
474.0524719278738
 20
1.2601565460311885
 30
0.0
 11
479.168595012003
 21
0.6925434415920445
 31
0.0
  0
LINE
  5
15E
330
17
100
AcDbEntity
  8
FoilLayer
100
AcDbLine
 10
479.168595012003
 20
0.6925434415920445
 30
0.0
 11
483.9654604812136
 21
0.1626391770291086
 31
0.0
  0
LINE
  5
15F
330
17
100
AcDbEntity
  8
FoilLayer
100
AcDbLine
 10
483.9654604812136
 20
0.1626391770291086
 30
0.0
 11
488.424610016827
 21
-0.35672879403900437
 31
0.0
  0
LINE
  5
160
330
17
100
AcDbEntity
  8
FoilLayer
100
AcDbLine
 10
488.424610016827
 20
-0.35672879403900437
 30
0.0
 11
492.5303580089789
 21
-0.8532021123251337
 31
0.0
  0
LINE
  5
161
330
17
100
AcDbEntity
  8
FoilLayer
100
AcDbLine
 10
492.5303580089789
 20
-0.8532021123251337
 30
0.0
 11
495.07206056903834
 21
-1.1871154738339953
 31
0.0
  0
LINE
  5
162
330
17
100
AcDbEntity
  8
FoilLayer
100
AcDbLine
 10
495.07206056903834
 20
-1.1871154738339953
 30
0.0
 11
495.1271186440676
 21
1.1888583193744922
 31
0.0
  0
LINE
  5
163
330
17
100
AcDbEntity
  8
StringerLayer
100
AcDbLine
 10
214.76353967843949
 20
70.99555030779284
 30
0.0
 11
218.67736774933502
 21
70.16974776997286
 31
0.0
  0
LINE
  5
164
330
17
100
AcDbEntity
  8
StringerLayer
100
AcDbLine
 10
218.67736774933502
 20
70.16974776997286
 30
0.0
 11
219.503170287155
 21
74.08357584086842
 31
0.0
  0
LINE
  5
165
330
17
100
AcDbEntity
  8
StringerLayer
100
AcDbLine
 10
219.503170287155
 20
74.08357584086842
 30
0.0
 11
215.58934221625947
 21
74.9093783786884
 31
0.0
  0
LINE
  5
166
330
17
100
AcDbEntity
  8
StringerLayer
100
AcDbLine
 10
215.58934221625947
 20
74.9093783786884
 30
0.0
 11
214.76353967843949
 21
70.99555030779284
 31
0.0
  0
LINE
  5
167
330
17
100
AcDbEntity
  8
StringerLayer
100
AcDbLine
 10
-84.58147245437439
 20
86.81946555923254
 30
0.0
 11
-80.604428955059
 21
87.2473966337683
 31
0.0
  0
LINE
  5
168
330
17
100
AcDbEntity
  8
StringerLayer
100
AcDbLine
 10
-80.604428955059
 20
87.2473966337683
 30
0.0
 11
-81.03236002959476
 21
91.22444013308368
 31
0.0
  0
LINE
  5
169
330
17
100
AcDbEntity
  8
StringerLayer
100
AcDbLine
 10
-81.03236002959476
 20
91.22444013308368
 30
0.0
 11
-85.00940352891014
 21
90.79650905854791
 31
0.0
  0
LINE
  5
16A
330
17
100
AcDbEntity
  8
StringerLayer
100
AcDbLine
 10
-85.00940352891014
 20
90.79650905854791
 30
0.0
 11
-84.58147245437439
 21
86.81946555923254
 31
0.0
  0
LINE
  5
16B
330
17
100
AcDbEntity
  8
StringerLayer
100
AcDbLine
 10
-217.71272314651907
 20
56.139870121837085
 30
0.0
 11
-213.9881254047378
 21
57.598421342027144
 31
0.0
  0
LINE
  5
16C
330
17
100
AcDbEntity
  8
StringerLayer
100
AcDbLine
 10
-213.9881254047378
 20
57.598421342027144
 30
0.0
 11
-215.44667662492785
 21
61.323019083808404
 31
0.0
  0
LINE
  5
16D
330
17
100
AcDbEntity
  8
StringerLayer
100
AcDbLine
 10
-215.44667662492785
 20
61.323019083808404
 30
0.0
 11
-219.17127436670913
 21
59.864467863618344
 31
0.0
  0
LINE
  5
16E
330
17
100
AcDbEntity
  8
StringerLayer
100
AcDbLine
 10
-219.17127436670913
 20
59.864467863618344
 30
0.0
 11
-217.71272314651907
 21
56.139870121837085
 31
0.0
  0
LINE
  5
16F
330
17
100
AcDbEntity
  8
StringerLayer
100
AcDbLine
 10
-281.8877185679147
 20
17.317179768500644
 30
0.0
 11
-280.51239244838894
 21
18.769239706984678
 31
0.0
  0
LINE
  5
170
330
17
100
AcDbEntity
  8
StringerLayer
100
AcDbLine
 10
-280.51239244838894
 20
18.769239706984678
 30
0.0
 11
-283.416512325357
 21
21.519891946036168
 31
0.0
  0
LINE
  5
171
330
17
100
AcDbEntity
  8
StringerLayer
100
AcDbLine
 10
-283.416512325357
 20
21.519891946036168
 30
0.0
 11
-284.7918384448828
 21
20.067832007552134
 31
0.0
  0
LINE
  5
172
330
17
100
AcDbEntity
  8
StringerLayer
100
AcDbLine
 10
-284.7918384448828
 20
20.067832007552134
 30
0.0
 11
-281.8877185679147
 21
17.317179768500644
 31
0.0
  0
LINE
  5
173
330
17
100
AcDbEntity
  8
StringerLayer
100
AcDbLine
 10
-285.5844563227199
 20
-7.132348236803865
 30
0.0
 11
-287.3272042065248
 21
-6.1511093191627255
 31
0.0
  0
LINE
  5
174
330
17
100
AcDbEntity
  8
StringerLayer
100
AcDbLine
 10
-287.3272042065248
 20
-6.1511093191627255
 30
0.0
 11
-289.2896820418071
 21
-9.636605086772517
 31
0.0
  0
LINE
  5
175
330
17
100
AcDbEntity
  8
StringerLayer
100
AcDbLine
 10
-289.2896820418071
 20
-9.636605086772517
 30
0.0
 11
-287.5469341580022
 21
-10.617844004413657
 31
0.0
  0
LINE
  5
176
330
17
100
AcDbEntity
  8
StringerLayer
100
AcDbLine
 10
-287.5469341580022
 20
-10.617844004413657
 30
0.0
 11
-285.5844563227199
 21
-7.132348236803865
 31
0.0
  0
LINE
  5
177
330
17
100
AcDbEntity
  8
StringerLayer
100
AcDbLine
 10
-176.3570992809857
 20
-16.54278332530221
 30
0.0
 11
-180.35628561762482
 21
-16.623459497986488
 31
0.0
  0
LINE
  5
178
330
17
100
AcDbEntity
  8
StringerLayer
100
AcDbLine
 10
-180.35628561762482
 20
-16.623459497986488
 30
0.0
 11
-180.27560944494053
 21
-20.622645834625608
 31
0.0
  0
LINE
  5
179
330
17
100
AcDbEntity
  8
StringerLayer
100
AcDbLine
 10
-180.27560944494053
 20
-20.622645834625608
 30
0.0
 11
-176.2764231083014
 21
-20.54196966194133
 31
0.0
  0
LINE
  5
17A
330
17
100
AcDbEntity
  8
StringerLayer
100
AcDbLine
 10
-176.2764231083014
 20
-20.54196966194133
 30
0.0
 11
-176.3570992809857
 21
-16.54278332530221
 31
0.0
  0
LINE
  5
17B
330
17
100
AcDbEntity
  8
SubLayer
100
AcDbLine
 10
-297.0762711864406
 20
0.0
 30
0.0
 11
-293.0762711864406
 21
0.0
 31
0.0
  0
LINE
  5
17C
330
17
100
AcDbEntity
  8
SubLayer
100
AcDbLine
 10
57.41525423728808
 20
0.0
 30
0.0
 11
69.33728813559321
 21
0.0
 31
0.0
  0
LINE
  5
17D
330
17
100
AcDbEntity
  8
SubLayer
100
AcDbLine
 10
-41.474092178765076
 20
38.97180560046416
 30
0.0
 11
-33.49767016094972
 21
39.58555782547871
 31
0.0
  0
LINE
  5
17E
330
17
100
AcDbEntity
  8
SubLayer
100
AcDbLine
 10
33.49767016094972
 20
44.740568317192206
 30
0.0
 11
41.474092178765076
 21
45.35432054220676
 31
0.0
  0
LINE
  5
17F
330
17
100
AcDbEntity
  8
SubLayer
100
AcDbLine
 10
-2.9840475906199697
 20
80.94422252613951
 30
0.0
 11
-2.3702953656054206
 21
72.96780050832415
 31
0.0
  0
LINE
  5
180
330
17
100
AcDbEntity
  8
SubLayer
100
AcDbLine
 10
2.9840475906199697
 20
3.381903616531403
 30
0.0
 11
2.3702953656054206
 21
11.358325634346766
 31
0.0
  0
LINE
  5
181
330
17
100
AcDbEntity
  8
SubLayer
100
AcDbLine
 10
-39.32654861805759
 20
37.13113815226396
 30
0.0
 11
-35.33833760914992
 21
37.43801426477123
 31
0.0
  0
LINE
  5
182
330
17
100
AcDbEntity
  8
SubLayer
100
AcDbLine
 10
-35.33833760914992
 20
37.43801426477123
 30
0.0
 11
-35.64521372165719
 21
41.42622527367891
 31
0.0
  0
LINE
  5
183
330
17
100
AcDbEntity
  8
SubLayer
100
AcDbLine
 10
-35.64521372165719
 20
41.42622527367891
 30
0.0
 11
-39.63342473056487
 21
41.119349161171634
 31
0.0
  0
LINE
  5
184
330
17
100
AcDbEntity
  8
SubLayer
100
AcDbLine
 10
-39.63342473056487
 20
41.119349161171634
 30
0.0
 11
-39.32654861805759
 21
37.13113815226396
 31
0.0
  0
LINE
  5
185
330
17
100
AcDbEntity
  8
SubLayer
100
AcDbLine
 10
35.64521372165719
 20
42.899900868992006
 30
0.0
 11
39.63342473056487
 21
43.20677698149928
 31
0.0
  0
LINE
  5
186
330
17
100
AcDbEntity
  8
SubLayer
100
AcDbLine
 10
39.63342473056487
 20
43.20677698149928
 30
0.0
 11
39.32654861805759
 21
47.19498799040696
 31
0.0
  0
LINE
  5
187
330
17
100
AcDbEntity
  8
SubLayer
100
AcDbLine
 10
39.32654861805759
 20
47.19498799040696
 30
0.0
 11
35.33833760914992
 21
46.88811187789968
 31
0.0
  0
LINE
  5
188
330
17
100
AcDbEntity
  8
SubLayer
100
AcDbLine
 10
35.33833760914992
 20
46.88811187789968
 30
0.0
 11
35.64521372165719
 21
42.899900868992006
 31
0.0
  0
LINE
  5
189
330
17
100
AcDbEntity
  8
SubLayer
100
AcDbLine
 10
-4.517838926312899
 20
74.80846795652435
 30
0.0
 11
-0.5296279174052172
 21
75.11534406903162
 31
0.0
  0
LINE
  5
18A
330
17
100
AcDbEntity
  8
SubLayer
100
AcDbLine
 10
-0.5296279174052172
 20
75.11534406903162
 30
0.0
 11
-0.836504029912492
 21
79.1035550779393
 31
0.0
  0
LINE
  5
18B
330
17
100
AcDbEntity
  8
SubLayer
100
AcDbLine
 10
-0.836504029912492
 20
79.1035550779393
 30
0.0
 11
-4.824715038820173
 21
78.79667896543204
 31
0.0
  0
LINE
  5
18C
330
17
100
AcDbEntity
  8
SubLayer
100
AcDbLine
 10
-4.824715038820173
 20
78.79667896543204
 30
0.0
 11
-4.517838926312899
 21
74.80846795652435
 31
0.0
  0
LINE
  5
18D
330
17
100
AcDbEntity
  8
SubLayer
100
AcDbLine
 10
0.836504029912492
 20
5.222571064731607
 30
0.0
 11
4.824715038820173
 21
5.529447177238882
 31
0.0
  0
LINE
  5
18E
330
17
100
AcDbEntity
  8
SubLayer
100
AcDbLine
 10
4.824715038820173
 20
5.529447177238882
 30
0.0
 11
4.517838926312899
 21
9.517658186146562
 31
0.0
  0
LINE
  5
18F
330
17
100
AcDbEntity
  8
SubLayer
100
AcDbLine
 10
4.517838926312899
 20
9.517658186146562
 30
0.0
 11
0.5296279174052172
 21
9.210782073639288
 31
0.0
  0
LINE
  5
190
330
17
100
AcDbEntity
  8
SubLayer
100
AcDbLine
 10
0.5296279174052172
 20
9.210782073639288
 30
0.0
 11
0.836504029912492
 21
5.222571064731607
 31
0.0
  0
LINE
  5
191
330
17
100
AcDbEntity
  8
SubLayer
100
AcDbLine
 10
336.62224157873607
 20
46.00063429146621
 30
0.0
 11
340.61045258764375
 21
46.30751040397348
 31
0.0
  0
LINE
  5
192
330
17
100
AcDbEntity
  8
SubLayer
100
AcDbLine
 10
-297.27676954380655
 20
-2.775236348530409
 30
0.0
 11
-293.28855853489887
 21
-2.4683602360231345
 31
0.0
  0
LINE
  5
193
330
17
100
AcDbEntity
  8
SubLayer
100
AcDbLine
 10
-171.49402007152497
 20
6.903218751342098
 30
0.0
 11
-165.51170355816345
 21
7.363532920103009
 31
0.0
  0
LINE
  5
194
330
17
100
AcDbEntity
  8
SubLayer
100
AcDbLine
 10
208.84538660200064
 20
36.16874113534007
 30
0.0
 11
214.82770311536217
 21
36.62905530410099
 31
0.0
  0
LINE
  5
195
330
17
100
AcDbEntity
  8
SubLayer
100
AcDbLine
 10
18.675683265237836
 20
21.535979943341083
 30
0.0
 11
24.65799977859936
 21
21.996294112101992
 31
0.0
  0
LINE
  5
196
330
17
100
AcDbEntity
  8
SubLayer
100
AcDbLine
 10
-166.35531825413673
 20
5.29270838752235
 30
0.0
 11
-166.662194366644
 21
9.280919396430031
 31
0.0
  0
LINE
  5
197
330
17
100
AcDbEntity
  8
SubLayer
100
AcDbLine
 10
-166.662194366644
 20
9.280919396430031
 30
0.0
 11
-170.65040537555168
 21
8.974043283922757
 31
0.0
  0
LINE
  5
198
330
17
100
AcDbEntity
  8
SubLayer
100
AcDbLine
 10
-170.65040537555168
 20
8.974043283922757
 30
0.0
 11
-170.34352926304442
 21
4.985832275015076
 31
0.0
  0
LINE
  5
199
330
17
100
AcDbEntity
  8
SubLayer
100
AcDbLine
 10
-170.34352926304442
 20
4.985832275015076
 30
0.0
 11
-166.35531825413673
 21
5.29270838752235
 31
0.0
  0
LINE
  5
19A
330
17
100
AcDbEntity
  8
SubLayer
100
AcDbLine
 10
213.98408841938888
 20
34.55823077152033
 30
0.0
 11
213.67721230688161
 21
38.546441780428005
 31
0.0
  0
LINE
  5
19B
330
17
100
AcDbEntity
  8
SubLayer
100
AcDbLine
 10
213.67721230688161
 20
38.546441780428005
 30
0.0
 11
209.68900129797393
 21
38.23956566792073
 31
0.0
  0
LINE
  5
19C
330
17
100
AcDbEntity
  8
SubLayer
100
AcDbLine
 10
209.68900129797393
 20
38.23956566792073
 30
0.0
 11
209.9958774104812
 21
34.25135465901305
 31
0.0
  0
LINE
  5
19D
330
17
100
AcDbEntity
  8
SubLayer
100
AcDbLine
 10
209.9958774104812
 20
34.25135465901305
 30
0.0
 11
213.98408841938888
 21
34.55823077152033
 31
0.0
  0
LINE
  5
19E
330
17
100
AcDbEntity
  8
SubLayer
100
AcDbLine
 10
23.814385082626078
 20
19.925469579521334
 30
0.0
 11
23.507508970118803
 21
23.913680588429017
 31
0.0
  0
LINE
  5
19F
330
17
100
AcDbEntity
  8
SubLayer
100
AcDbLine
 10
23.507508970118803
 20
23.913680588429017
 30
0.0
 11
19.51929796121112
 21
23.60680447592174
 31
0.0
  0
LINE
  5
1A0
330
17
100
AcDbEntity
  8
SubLayer
100
AcDbLine
 10
19.51929796121112
 20
23.60680447592174
 30
0.0
 11
19.826174073718395
 21
19.61859346701406
 31
0.0
  0
LINE
  5
1A1
330
17
100
AcDbEntity
  8
SubLayer
100
AcDbLine
 10
19.826174073718395
 20
19.61859346701406
 30
0.0
 11
23.814385082626078
 21
19.925469579521334
 31
0.0
  0
LINE
  5
1A2
330
17
100
AcDbEntity
  8
SubLayer
100
AcDbLine
 10
476.1873941441058
 20
6.44283345747843
 30
0.0
 11
476.53300679786327
 21
7.3812107235941005
 31
0.0
  0
LINE
  5
1A3
330
17
100
AcDbEntity
  8
SubLayer
100
AcDbLine
 10
475.1314310042446
 20
0.6381049802010856
 30
0.0
 11
475.18829688633394
 21
1.6364868066854215
 31
0.0
  0
LINE
  5
1A4
330
17
100
AcDbEntity
  8
SubLayer
100
AcDbLine
 10
457.0066097806305
 20
12.127352220132837
 30
0.0
 11
457.32165744109335
 21
13.076428071493984
 31
0.0
  0
LINE
  5
1A5
330
17
100
AcDbEntity
  8
SubLayer
100
AcDbLine
 10
455.20688706153135
 20
2.573761377343691
 30
0.0
 11
455.2836941912891
 21
3.570807346604075
 31
0.0
  0
LINE
  5
1A6
330
17
100
AcDbEntity
  8
SubLayer
100
AcDbLine
 10
418.59039264339583
 20
23.288960425549487
 30
0.0
 11
418.88747256797535
 21
24.24381304161746
 31
0.0
  0
LINE
  5
1A7
330
17
100
AcDbEntity
  8
SubLayer
100
AcDbLine
 10
415.2683709807362
 20
4.776793077158559
 30
0.0
 11
415.3343173542788
 21
5.774616245769402
 31
0.0
  0
LINE
  5
1A8
330
17
100
AcDbEntity
  8
SubLayer
100
AcDbLine
 10
-153.58413245095386
 20
82.98060254056566
 30
0.0
 11
-153.2772563384466
 21
78.99239153165797
 31
0.0
  0
LINE
  5
1A9
330
17
100
AcDbEntity
  8
SubLayer
100
AcDbLine
 10
-145.7311133204491
 20
-19.078489297999
 30
0.0
 11
-145.42423720794184
 21
-23.066700306906682
 31
0.0
  0
LINE
  5
1AA
330
17
100
AcDbEntity
  8
SubLayer
100
AcDbLine
 10
-147.3784361746769
 20
2.3303818219408523
 30
0.0
 11
-146.91812200591596
 21
-3.651934691420669
 31
0.0
  0
LINE
  5
1AB
330
17
100
AcDbEntity
  8
SubLayer
100
AcDbLine
 10
-152.09024765297974
 20
63.56583692507965
 30
0.0
 11
-151.6299334842188
 21
57.583520411718126
 31
0.0
  0
LINE
  5
1AC
330
17
100
AcDbEntity
  8
SubLayer
100
AcDbLine
 10
-149.73434191382833
 20
32.94810937351025
 30
0.0
 11
-149.2740277450674
 21
26.965792860148724
 31
0.0
  0
LINE
  5
1AD
330
17
100
AcDbEntity
  8
SubLayer
100
AcDbLine
 10
-148.98894653849663
 20
-2.8083199954473863
 30
0.0
 11
-145.00073552958895
 21
-2.5014438829401113
 31
0.0
  0
LINE
  5
1AE
330
17
100
AcDbEntity
  8
SubLayer
100
AcDbLine
 10
-145.00073552958895
 20
-2.5014438829401113
 30
0.0
 11
-145.30761164209622
 21
1.4867671259675697
 31
0.0
  0
LINE
  5
1AF
330
17
100
AcDbEntity
  8
SubLayer
100
AcDbLine
 10
-145.30761164209622
 20
1.4867671259675697
 30
0.0
 11
-149.2958226510039
 21
1.179891013460295
 31
0.0
  0
LINE
  5
1B0
330
17
100
AcDbEntity
  8
SubLayer
100
AcDbLine
 10
-149.2958226510039
 20
1.179891013460295
 30
0.0
 11
-148.98894653849663
 21
-2.8083199954473863
 31
0.0
  0
LINE
  5
1B1
330
17
100
AcDbEntity
  8
SubLayer
100
AcDbLine
 10
-153.70075801679948
 20
58.42713510769141
 30
0.0
 11
-149.7125470078918
 21
58.73401122019869
 31
0.0
  0
LINE
  5
1B2
330
17
100
AcDbEntity
  8
SubLayer
100
AcDbLine
 10
-149.7125470078918
 20
58.73401122019869
 30
0.0
 11
-150.01942312039907
 21
62.722222229106364
 31
0.0
  0
LINE
  5
1B3
330
17
100
AcDbEntity
  8
SubLayer
100
AcDbLine
 10
-150.01942312039907
 20
62.722222229106364
 30
0.0
 11
-154.00763412930675
 21
62.41534611659909
 31
0.0
  0
LINE
  5
1B4
330
17
100
AcDbEntity
  8
SubLayer
100
AcDbLine
 10
-154.00763412930675
 20
62.41534611659909
 30
0.0
 11
-153.70075801679948
 21
58.42713510769141
 31
0.0
  0
LINE
  5
1B5
330
17
100
AcDbEntity
  8
SubLayer
100
AcDbLine
 10
-151.34485227764807
 20
27.809407556122007
 30
0.0
 11
-147.3566412687404
 21
28.116283668629283
 31
0.0
  0
LINE
  5
1B6
330
17
100
AcDbEntity
  8
SubLayer
100
AcDbLine
 10
-147.3566412687404
 20
28.116283668629283
 30
0.0
 11
-147.66351738124766
 21
32.10449467753696
 31
0.0
  0
LINE
  5
1B7
330
17
100
AcDbEntity
  8
SubLayer
100
AcDbLine
 10
-147.66351738124766
 20
32.10449467753696
 30
0.0
 11
-151.65172839015534
 21
31.79761856502969
 31
0.0
  0
LINE
  5
1B8
330
17
100
AcDbEntity
  8
SubLayer
100
AcDbLine
 10
-151.65172839015534
 20
31.79761856502969
 30
0.0
 11
-151.34485227764807
 21
27.809407556122007
 31
0.0
  0
LINE
  5
1B9
330
17
100
AcDbEntity
  8
SubLayer
100
AcDbLine
 10
96.18038595168709
 20
95.644990264684
 30
0.0
 11
96.48726206419435
 21
91.65677925577631
 31
0.0
  0
LINE
  5
1BA
330
17
100
AcDbEntity
  8
SubLayer
100
AcDbLine
 10
103.88047728608686
 20
-4.426627491878322
 30
0.0
 11
104.18735339859413
 21
-8.414838500786002
 31
0.0
  0
LINE
  5
1BB
330
17
100
AcDbEntity
  8
SubLayer
100
AcDbLine
 10
102.2637399910801
 20
16.584748811661065
 30
0.0
 11
102.724054159841
 21
10.602432298299542
 31
0.0
  0
LINE
  5
1BC
330
17
100
AcDbEntity
  8
SubLayer
100
AcDbLine
 10
97.64368519044022
 20
76.62771946559846
 30
0.0
 11
98.10399935920113
 21
70.64540295223694
 31
0.0
  0
LINE
  5
1BD
330
17
100
AcDbEntity
  8
SubLayer
100
AcDbLine
 10
99.95371259076016
 20
46.60623413862976
 30
0.0
 11
100.41402675952106
 21
40.623917625268234
 31
0.0
  0
LINE
  5
1BE
330
17
100
AcDbEntity
  8
SubLayer
100
AcDbLine
 10
100.65322962726034
 20
11.446046994272825
 30
0.0
 11
104.64144063616803
 21
11.752923106780099
 31
0.0
  0
LINE
  5
1BF
330
17
100
AcDbEntity
  8
SubLayer
100
AcDbLine
 10
104.64144063616803
 20
11.752923106780099
 30
0.0
 11
104.33456452366076
 21
15.74113411568778
 31
0.0
  0
LINE
  5
1C0
330
17
100
AcDbEntity
  8
SubLayer
100
AcDbLine
 10
104.33456452366076
 20
15.74113411568778
 30
0.0
 11
100.34635351475308
 21
15.434258003180506
 31
0.0
  0
LINE
  5
1C1
330
17
100
AcDbEntity
  8
SubLayer
100
AcDbLine
 10
100.34635351475308
 20
15.434258003180506
 30
0.0
 11
100.65322962726034
 21
11.446046994272825
 31
0.0
  0
LINE
  5
1C2
330
17
100
AcDbEntity
  8
SubLayer
100
AcDbLine
 10
96.03317482662047
 20
71.48901764821022
 30
0.0
 11
100.02138583552815
 21
71.79589376071749
 31
0.0
  0
LINE
  5
1C3
330
17
100
AcDbEntity
  8
SubLayer
100
AcDbLine
 10
100.02138583552815
 20
71.79589376071749
 30
0.0
 11
99.71450972302088
 21
75.78410476962517
 31
0.0
  0
LINE
  5
1C4
330
17
100
AcDbEntity
  8
SubLayer
100
AcDbLine
 10
99.71450972302088
 20
75.78410476962517
 30
0.0
 11
95.7262987141132
 21
75.4772286571179
 31
0.0
  0
LINE
  5
1C5
330
17
100
AcDbEntity
  8
SubLayer
100
AcDbLine
 10
95.7262987141132
 20
75.4772286571179
 30
0.0
 11
96.03317482662047
 21
71.48901764821022
 31
0.0
  0
LINE
  5
1C6
330
17
100
AcDbEntity
  8
SubLayer
100
AcDbLine
 10
98.3432022269404
 20
41.46753232124152
 30
0.0
 11
102.33141323584809
 21
41.774408433748796
 31
0.0
  0
LINE
  5
1C7
330
17
100
AcDbEntity
  8
SubLayer
100
AcDbLine
 10
102.33141323584809
 20
41.774408433748796
 30
0.0
 11
102.02453712334082
 21
45.76261944265647
 31
0.0
  0
LINE
  5
1C8
330
17
100
AcDbEntity
  8
SubLayer
100
AcDbLine
 10
102.02453712334082
 20
45.76261944265647
 30
0.0
 11
98.03632611443314
 21
45.4557433301492
 31
0.0
  0
LINE
  5
1C9
330
17
100
AcDbEntity
  8
SubLayer
100
AcDbLine
 10
98.03632611443314
 20
45.4557433301492
 30
0.0
 11
98.3432022269404
 21
41.46753232124152
 31
0.0
  0
ENDSEC
  0
SECTION
  2
OBJECTS
  0
DICTIONARY
  5
A
330
0
100
AcDbDictionary
280
0
281
1
  3
ACAD_COLOR
350
B
  3
ACAD_GROUP
350
C
  3
ACAD_LAYOUT
350
D
  3
ACAD_MATERIAL
350
E
  3
ACAD_MLEADERSTYLE
350
F
  3
ACAD_MLINESTYLE
350
10
  3
ACAD_PLOTSETTINGS
350
11
  3
ACAD_PLOTSTYLENAME
350
12
  3
ACAD_SCALELIST
350
14
  3
ACAD_TABLESTYLE
350
15
  3
ACAD_VISUALSTYLE
350
16
  3
EZDXF_META
350
2D
  0
DICTIONARY
  5
B
330
A
100
AcDbDictionary
280
0
281
1
  0
DICTIONARY
  5
C
330
A
100
AcDbDictionary
280
0
281
1
  0
DICTIONARY
  5
D
330
A
100
AcDbDictionary
280
0
281
1
  3
Model
350
1A
  3
Layout1
350
1E
  0
DICTIONARY
  5
E
330
A
100
AcDbDictionary
280
0
281
1
  3
ByBlock
350
1F
  3
ByLayer
350
20
  3
Global
350
21
  0
DICTIONARY
  5
F
330
A
100
AcDbDictionary
280
0
281
1
  3
Standard
350
2C
  0
DICTIONARY
  5
10
330
A
100
AcDbDictionary
280
0
281
1
  3
Standard
350
22
  0
DICTIONARY
  5
11
330
A
100
AcDbDictionary
280
0
281
1
  0
ACDBDICTIONARYWDFLT
  5
12
330
A
100
AcDbDictionary
280
0
281
1
  3
Normal
350
13
100
AcDbDictionaryWithDefault
340
13
  0
ACDBPLACEHOLDER
  5
13
330
12
  0
DICTIONARY
  5
14
330
A
100
AcDbDictionary
280
0
281
1
  0
DICTIONARY
  5
15
330
A
100
AcDbDictionary
280
0
281
1
  0
DICTIONARY
  5
16
330
A
100
AcDbDictionary
280
0
281
1
  0
LAYOUT
  5
1A
330
D
100
AcDbPlotSettings
  1

  2
Adobe PDF
  4
A3
  6

 40
7.5
 41
20.0
 42
7.5
 43
20.0
 44
420.0
 45
297.0
 46
0.0
 47
0.0
 48
0.0
 49
0.0
140
0.0
141
0.0
142
1.0
143
1.0
 70
1024
 72
1
 73
0
 74
5
  7

 75
16
 76
0
 77
2
 78
300
147
1.0
148
0.0
149
0.0
100
AcDbLayout
  1
Model
 70
1
 71
0
 10
0.0
 20
0.0
 11
420.0
 21
297.0
 12
0.0
 22
0.0
 32
0.0
 14
1e+20
 24
1e+20
 34
1e+20
 15
-1e+20
 25
-1e+20
 35
-1e+20
146
0.0
 13
0.0
 23
0.0
 33
0.0
 16
1.0
 26
0.0
 36
0.0
 17
0.0
 27
1.0
 37
0.0
 76
1
330
17
  0
LAYOUT
  5
1E
330
D
100
AcDbPlotSettings
  1

  2
Adobe PDF
  4
A3
  6

 40
7.5
 41
20.0
 42
7.5
 43
20.0
 44
420.0
 45
297.0
 46
0.0
 47
0.0
 48
0.0
 49
0.0
140
0.0
141
0.0
142
1.0
143
1.0
 70
0
 72
1
 73
0
 74
5
  7

 75
16
 76
0
 77
2
 78
300
147
1.0
148
0.0
149
0.0
100
AcDbLayout
  1
Layout1
 70
1
 71
1
 10
0.0
 20
0.0
 11
420.0
 21
297.0
 12
0.0
 22
0.0
 32
0.0
 14
1e+20
 24
1e+20
 34
1e+20
 15
-1e+20
 25
-1e+20
 35
-1e+20
146
0.0
 13
0.0
 23
0.0
 33
0.0
 16
1.0
 26
0.0
 36
0.0
 17
0.0
 27
1.0
 37
0.0
 76
1
330
1B
  0
MATERIAL
  5
1F
102
{ACAD_REACTORS
330
E
102
}
330
E
100
AcDbMaterial
  1
ByBlock
  2

 70
0
 40
1.0
 71
1
 41
1.0
 91
-1023410177
 42
1.0
 72
1
  3

 73
1
 74
1
 75
1
 44
0.5
 73
0
 45
1.0
 46
1.0
 77
1
  4

 78
1
 79
1
170
1
 48
1.0
171
1
  6

172
1
173
1
174
1
140
1.0
141
1.0
175
1
  7

176
1
177
1
178
1
143
1.0
179
1
  8

270
1
271
1
272
1
145
1.0
146
1.0
273
1
  9

274
1
275
1
276
1
 42
1.0
 72
1
  3

 73
1
 74
1
 75
1
 94
63
  0
MATERIAL
  5
20
102
{ACAD_REACTORS
330
E
102
}
330
E
100
AcDbMaterial
  1
ByLayer
  2

 70
0
 40
1.0
 71
1
 41
1.0
 91
-1023410177
 42
1.0
 72
1
  3

 73
1
 74
1
 75
1
 44
0.5
 73
0
 45
1.0
 46
1.0
 77
1
  4

 78
1
 79
1
170
1
 48
1.0
171
1
  6

172
1
173
1
174
1
140
1.0
141
1.0
175
1
  7

176
1
177
1
178
1
143
1.0
179
1
  8

270
1
271
1
272
1
145
1.0
146
1.0
273
1
  9

274
1
275
1
276
1
 42
1.0
 72
1
  3

 73
1
 74
1
 75
1
 94
63
  0
MATERIAL
  5
21
102
{ACAD_REACTORS
330
E
102
}
330
E
100
AcDbMaterial
  1
Global
  2

 70
0
 40
1.0
 71
1
 41
1.0
 91
-1023410177
 42
1.0
 72
1
  3

 73
1
 74
1
 75
1
 44
0.5
 73
0
 45
1.0
 46
1.0
 77
1
  4

 78
1
 79
1
170
1
 48
1.0
171
1
  6

172
1
173
1
174
1
140
1.0
141
1.0
175
1
  7

176
1
177
1
178
1
143
1.0
179
1
  8

270
1
271
1
272
1
145
1.0
146
1.0
273
1
  9

274
1
275
1
276
1
 42
1.0
 72
1
  3

 73
1
 74
1
 75
1
 94
63
  0
MLINESTYLE
  5
22
102
{ACAD_REACTORS
330
10
102
}
330
10
100
AcDbMlineStyle
  2
Standard
 70
0
  3

 62
256
 51
90.0
 52
90.0
 71
2
 49
0.5
 62
256
  6
BYLAYER
 49
-0.5
 62
256
  6
BYLAYER
  0
MLEADERSTYLE
  5
2C
102
{ACAD_REACTORS
330
F
102
}
330
F
100
AcDbMLeaderStyle
179
2
170
2
171
1
172
0
 90
2
 40
0.0
 41
0.0
173
1
 91
-1056964608
 92
-2
290
1
 42
2.0
291
1
 43
8.0
  3
Standard
 44
4.0
300

342
29
174
1
175
1
176
0
178
1
 93
-1056964608
 45
4.0
292
0
297
0
 46
4.0
 94
-1056964608
 47
1.0
 49
1.0
140
1.0
294
1
141
0.0
177
0
142
1.0
295
0
296
0
143
3.75
271
0
272
9
273
9
  0
DICTIONARY
  5
2D
330
A
100
AcDbDictionary
281
1
  3
CREATED_BY_EZDXF
350
2E
  3
WRITTEN_BY_EZDXF
350
1CC
  0
DICTIONARYVAR
  5
2E
330
2D
100
DictionaryVariables
280
0
  1
1.0.2 @ 2024-03-22T07:41:34.213502+00:00
  0
DICTIONARYVAR
  5
1CC
330
2D
100
DictionaryVariables
280
0
  1
1.0.2 @ 2024-03-22T07:41:34.224945+00:00
  0
ENDSEC
  0
EOF
