  0
SECTION
  2
HEADER
  9
$ACADVER
  1
AC1027
  9
$ACADMAINTVER
 70
105
  9
$DWGCODEPAGE
  3
ANSI_1252
  9
$LASTSAVEDBY
  1
ezdxf
  9
$REQUIREDVERSIONS
160
0
  9
$INSBASE
 10
0.0
 20
0.0
 30
0.0
  9
$EXTMIN
 10
1e+20
 20
1e+20
 30
1e+20
  9
$EXTMAX
 10
-1e+20
 20
-1e+20
 30
-1e+20
  9
$LIMMIN
 10
0.0
 20
0.0
  9
$LIMMAX
 10
420.0
 20
297.0
  9
$ORTHOMODE
 70
0
  9
$REGENMODE
 70
1
  9
$FILLMODE
 70
1
  9
$QTEXTMODE
 70
0
  9
$MIRRTEXT
 70
1
  9
$LTSCALE
 40
1.0
  9
$ATTMODE
 70
1
  9
$TEXTSIZE
 40
2.5
  9
$TRACEWID
 40
1.0
  9
$TEXTSTYLE
  7
Standard
  9
$CLAYER
  8
0
  9
$CELTYPE
  6
ByLayer
  9
$CECOLOR
 62
256
  9
$CELTSCALE
 40
1.0
  9
$DISPSILH
 70
0
  9
$DIMSCALE
 40
1.0
  9
$DIMASZ
 40
2.5
  9
$DIMEXO
 40
0.625
  9
$DIMDLI
 40
3.75
  9
$DIMRND
 40
0.0
  9
$DIMDLE
 40
0.0
  9
$DIMEXE
 40
1.25
  9
$DIMTP
 40
0.0
  9
$DIMTM
 40
0.0
  9
$DIMTXT
 40
2.5
  9
$DIMCEN
 40
2.5
  9
$DIMTSZ
 40
0.0
  9
$DIMTOL
 70
0
  9
$DIMLIM
 70
0
  9
$DIMTIH
 70
0
  9
$DIMTOH
 70
0
  9
$DIMSE1
 70
0
  9
$DIMSE2
 70
0
  9
$DIMTAD
 70
1
  9
$DIMZIN
 70
8
  9
$DIMBLK
  1

  9
$DIMASO
 70
1
  9
$DIMSHO
 70
1
  9
$DIMPOST
  1

  9
$DIMAPOST
  1

  9
$DIMALT
 70
0
  9
$DIMALTD
 70
3
  9
$DIMALTF
 40
0.03937007874
  9
$DIMLFAC
 40
1.0
  9
$DIMTOFL
 70
1
  9
$DIMTVP
 40
0.0
  9
$DIMTIX
 70
0
  9
$DIMSOXD
 70
0
  9
$DIMSAH
 70
0
  9
$DIMBLK1
  1

  9
$DIMBLK2
  1

  9
$DIMSTYLE
  2
ISO-25
  9
$DIMCLRD
 70
0
  9
$DIMCLRE
 70
0
  9
$DIMCLRT
 70
0
  9
$DIMTFAC
 40
1.0
  9
$DIMGAP
 40
0.625
  9
$DIMJUST
 70
0
  9
$DIMSD1
 70
0
  9
$DIMSD2
 70
0
  9
$DIMTOLJ
 70
0
  9
$DIMTZIN
 70
8
  9
$DIMALTZ
 70
0
  9
$DIMALTTZ
 70
0
  9
$DIMUPT
 70
0
  9
$DIMDEC
 70
2
  9
$DIMTDEC
 70
2
  9
$DIMALTU
 70
2
  9
$DIMALTTD
 70
3
  9
$DIMTXSTY
  7
Standard
  9
$DIMAUNIT
 70
0
  9
$DIMADEC
 70
0
  9
$DIMALTRND
 40
0.0
  9
$DIMAZIN
 70
0
  9
$DIMDSEP
 70
44
  9
$DIMATFIT
 70
3
  9
$DIMFRAC
 70
0
  9
$DIMLDRBLK
  1

  9
$DIMLUNIT
 70
2
  9
$DIMLWD
 70
-2
  9
$DIMLWE
 70
-2
  9
$DIMTMOVE
 70
0
  9
$DIMFXL
 40
1.0
  9
$DIMFXLON
 70
0
  9
$DIMJOGANG
 40
0.785398163397
  9
$DIMTFILL
 70
0
  9
$DIMTFILLCLR
 70
0
  9
$DIMARCSYM
 70
0
  9
$DIMLTYPE
  6

  9
$DIMLTEX1
  6

  9
$DIMLTEX2
  6

  9
$DIMTXTDIRECTION
 70
0
  9
$LUNITS
 70
2
  9
$LUPREC
 70
4
  9
$SKETCHINC
 40
1.0
  9
$FILLETRAD
 40
10.0
  9
$AUNITS
 70
0
  9
$AUPREC
 70
2
  9
$MENU
  1
.
  9
$ELEVATION
 40
0.0
  9
$PELEVATION
 40
0.0
  9
$THICKNESS
 40
0.0
  9
$LIMCHECK
 70
0
  9
$CHAMFERA
 40
0.0
  9
$CHAMFERB
 40
0.0
  9
$CHAMFERC
 40
0.0
  9
$CHAMFERD
 40
0.0
  9
$SKPOLY
 70
0
  9
$TDCREATE
 40
2460392.6955324076
  9
$TDUCREATE
 40
2458532.153996898
  9
$TDUPDATE
 40
2460392.6955324076
  9
$TDUUPDATE
 40
2458532.1544311
  9
$TDINDWG
 40
0.0
  9
$TDUSRTIMER
 40
0.0
  9
$USRTIMER
 70
1
  9
$ANGBASE
 50
0.0
  9
$ANGDIR
 70
0
  9
$PDMODE
 70
0
  9
$PDSIZE
 40
0.0
  9
$PLINEWID
 40
0.0
  9
$SPLFRAME
 70
0
  9
$SPLINETYPE
 70
6
  9
$SPLINESEGS
 70
8
  9
$HANDSEED
  5
1CD
  9
$SURFTAB1
 70
6
  9
$SURFTAB2
 70
6
  9
$SURFTYPE
 70
6
  9
$SURFU
 70
6
  9
$SURFV
 70
6
  9
$UCSBASE
  2

  9
$UCSNAME
  2

  9
$UCSORG
 10
0.0
 20
0.0
 30
0.0
  9
$UCSXDIR
 10
1.0
 20
0.0
 30
0.0
  9
$UCSYDIR
 10
0.0
 20
1.0
 30
0.0
  9
$UCSORTHOREF
  2

  9
$UCSORTHOVIEW
 70
0
  9
$UCSORGTOP
 10
0.0
 20
0.0
 30
0.0
  9
$UCSORGBOTTOM
 10
0.0
 20
0.0
 30
0.0
  9
$UCSORGLEFT
 10
0.0
 20
0.0
 30
0.0
  9
$UCSORGRIGHT
 10
0.0
 20
0.0
 30
0.0
  9
$UCSORGFRONT
 10
0.0
 20
0.0
 30
0.0
  9
$UCSORGBACK
 10
0.0
 20
0.0
 30
0.0
  9
$PUCSBASE
  2

  9
$PUCSNAME
  2

  9
$PUCSORG
 10
0.0
 20
0.0
 30
0.0
  9
$PUCSXDIR
 10
1.0
 20
0.0
 30
0.0
  9
$PUCSYDIR
 10
0.0
 20
1.0
 30
0.0
  9
$PUCSORTHOREF
  2

  9
$PUCSORTHOVIEW
 70
0
  9
$PUCSORGTOP
 10
0.0
 20
0.0
 30
0.0
  9
$PUCSORGBOTTOM
 10
0.0
 20
0.0
 30
0.0
  9
$PUCSORGLEFT
 10
0.0
 20
0.0
 30
0.0
  9
$PUCSORGRIGHT
 10
0.0
 20
0.0
 30
0.0
  9
$PUCSORGFRONT
 10
0.0
 20
0.0
 30
0.0
  9
$PUCSORGBACK
 10
0.0
 20
0.0
 30
0.0
  9
$USERI1
 70
0
  9
$USERI2
 70
0
  9
$USERI3
 70
0
  9
$USERI4
 70
0
  9
$USERI5
 70
0
  9
$USERR1
 40
0.0
  9
$USERR2
 40
0.0
  9
$USERR3
 40
0.0
  9
$USERR4
 40
0.0
  9
$USERR5
 40
0.0
  9
$WORLDVIEW
 70
1
  9
$SHADEDGE
 70
3
  9
$SHADEDIF
 70
70
  9
$TILEMODE
 70
1
  9
$MAXACTVP
 70
64
  9
$PINSBASE
 10
0.0
 20
0.0
 30
0.0
  9
$PLIMCHECK
 70
0
  9
$PEXTMIN
 10
1e+20
 20
1e+20
 30
1e+20
  9
$PEXTMAX
 10
-1e+20
 20
-1e+20
 30
-1e+20
  9
$PLIMMIN
 10
0.0
 20
0.0
  9
$PLIMMAX
 10
420.0
 20
297.0
  9
$UNITMODE
 70
0
  9
$VISRETAIN
 70
1
  9
$PLINEGEN
 70
0
  9
$PSLTSCALE
 70
1
  9
$TREEDEPTH
 70
3020
  9
$CMLSTYLE
  2
Standard
  9
$CMLJUST
 70
0
  9
$CMLSCALE
 40
20.0
  9
$PROXYGRAPHICS
 70
1
  9
$MEASUREMENT
 70
1
  9
$CELWEIGHT
370
-1
  9
$ENDCAPS
280
0
  9
$JOINSTYLE
280
0
  9
$LWDISPLAY
290
0
  9
$INSUNITS
 70
6
  9
$HYPERLINKBASE
  1

  9
$STYLESHEET
  1

  9
$XEDIT
290
1
  9
$CEPSNTYPE
380
0
  9
$PSTYLEMODE
290
1
  9
$FINGERPRINTGUID
  2
{C0FA2928-085F-4CDA-BD5A-B014CB67954C}
  9
$VERSIONGUID
  2
{66EF3BEA-83C7-4F7C-A0EB-F5DE8D9D8D1B}
  9
$EXTNAMES
290
1
  9
$PSVPSCALE
 40
0.0
  9
$OLESTARTUP
290
0
  9
$SORTENTS
280
127
  9
$INDEXCTL
280
0
  9
$HIDETEXT
280
1
  9
$XCLIPFRAME
280
0
  9
$HALOGAP
280
0
  9
$OBSCOLOR
 70
257
  9
$OBSLTYPE
280
0
  9
$INTERSECTIONDISPLAY
280
0
  9
$INTERSECTIONCOLOR
 70
257
  9
$DIMASSOC
280
2
  9
$PROJECTNAME
  1

  9
$CAMERADISPLAY
290
0
  9
$LENSLENGTH
 40
50.0
  9
$CAMERAHEIGHT
 40
0.0
  9
$STEPSPERSEC
 40
24.0
  9
$STEPSIZE
 40
100.0
  9
$3DDWFPREC
 40
2.0
  9
$PSOLWIDTH
 40
0.005
  9
$PSOLHEIGHT
 40
0.08
  9
$LOFTANG1
 40
1.570796326795
  9
$LOFTANG2
 40
1.570796326795
  9
$LOFTMAG1
 40
0.0
  9
$LOFTMAG2
 40
0.0
  9
$LOFTPARAM
 70
7
  9
$LOFTNORMALS
280
1
  9
$LATITUDE
 40
37.795
  9
$LONGITUDE
 40
-122.394
  9
$NORTHDIRECTION
 40
0.0
  9
$TIMEZONE
 70
-8000
  9
$LIGHTGLYPHDISPLAY
280
1
  9
$TILEMODELIGHTSYNCH
280
1
  9
$CMATERIAL
347
20
  9
$SOLIDHIST
280
0
  9
$SHOWHIST
280
1
  9
$DWFFRAME
280
2
  9
$DGNFRAME
280
2
  9
$REALWORLDSCALE
290
1
  9
$INTERFERECOLOR
 62
256
  9
$CSHADOW
280
0
  9
$SHADOWPLANELOCATION
 40
0.0
  0
ENDSEC
  0
SECTION
  2
CLASSES
  0
CLASS
  1
ACDBDICTIONARYWDFLT
  2
AcDbDictionaryWithDefault
  3
ObjectDBX Classes
 90
0
 91
0
280
0
281
0
  0
CLASS
  1
SUN
  2
AcDbSun
  3
SCENEOE
 90
1153
 91
0
280
0
281
0
  0
CLASS
  1
VISUALSTYLE
  2
AcDbVisualStyle
  3
ObjectDBX Classes
 90
4095
 91
0
280
0
281
0
  0
CLASS
  1
MATERIAL
  2
AcDbMaterial
  3
ObjectDBX Classes
 90
1153
 91
0
280
0
281
0
  0
CLASS
  1
SCALE
  2
AcDbScale
  3
ObjectDBX Classes
 90
1153
 91
0
280
0
281
0
  0
CLASS
  1
TABLESTYLE
  2
AcDbTableStyle
  3
ObjectDBX Classes
 90
4095
 91
0
280
0
281
0
  0
CLASS
  1
MLEADERSTYLE
  2
AcDbMLeaderStyle
  3
ACDB_MLEADERSTYLE_CLASS
 90
4095
 91
0
280
0
281
0
  0
CLASS
  1
DICTIONARYVAR
  2
AcDbDictionaryVar
  3
ObjectDBX Classes
 90
0
 91
0
280
0
281
0
  0
CLASS
  1
CELLSTYLEMAP
  2
AcDbCellStyleMap
  3
ObjectDBX Classes
 90
1152
 91
0
280
0
281
0
  0
CLASS
  1
MENTALRAYRENDERSETTINGS
  2
AcDbMentalRayRenderSettings
  3
SCENEOE
 90
1024
 91
0
280
0
281
0
  0
CLASS
  1
ACDBDETAILVIEWSTYLE
  2
AcDbDetailViewStyle
  3
ObjectDBX Classes
 90
1025
 91
0
280
0
281
0
  0
CLASS
  1
ACDBSECTIONVIEWSTYLE
  2
AcDbSectionViewStyle
  3
ObjectDBX Classes
 90
1025
 91
0
280
0
281
0
  0
CLASS
  1
RASTERVARIABLES
  2
AcDbRasterVariables
  3
ISM
 90
0
 91
0
280
0
281
0
  0
CLASS
  1
LAYOUT
  2
AcDbLayout
  3
ObjectDBX Classes
 90
0
 91
0
280
0
281
0
  0
CLASS
  1
ACDBPLACEHOLDER
  2
AcDbPlaceHolder
  3
ObjectDBX Classes
 90
0
 91
0
280
0
281
0
  0
ENDSEC
  0
SECTION
  2
TABLES
  0
TABLE
  2
VPORT
  5
8
330
0
100
AcDbSymbolTable
 70
1
  0
VPORT
  5
23
330
8
100
AcDbSymbolTableRecord
100
AcDbViewportTableRecord
  2
*Active
 70
0
 10
0.0
 20
0.0
 11
1.0
 21
1.0
 12
0.0
 22
0.0
 13
0.0
 23
0.0
 14
0.5
 24
0.5
 15
0.5
 25
0.5
 16
0.0
 26
0.0
 36
1.0
 17
0.0
 27
0.0
 37
0.0
 40
1000.0
 41
1.34
 42
50.0
 43
0.0
 44
0.0
 50
0.0
 51
0.0
 71
0
 72
1000
 73
1
 74
3
 75
0
 76
0
 77
0
 78
0
281
0
 65
0
146
0.0
  0
ENDTAB
  0
TABLE
  2
LTYPE
  5
2
330
0
100
AcDbSymbolTable
 70
3
  0
LTYPE
  5
24
330
2
100
AcDbSymbolTableRecord
100
AcDbLinetypeTableRecord
  2
ByBlock
 70
0
  3

 72
65
 73
0
 40
0.0
  0
LTYPE
  5
25
330
2
100
AcDbSymbolTableRecord
100
AcDbLinetypeTableRecord
  2
ByLayer
 70
0
  3

 72
65
 73
0
 40
0.0
  0
LTYPE
  5
26
330
2
100
AcDbSymbolTableRecord
100
AcDbLinetypeTableRecord
  2
Continuous
 70
0
  3

 72
65
 73
0
 40
0.0
  0
ENDTAB
  0
TABLE
  2
LAYER
  5
1
330
0
100
AcDbSymbolTable
 70
5
  0
LAYER
  5
27
330
1
100
AcDbSymbolTableRecord
100
AcDbLayerTableRecord
  2
0
 70
0
 62
7
  6
Continuous
370
-3
390
13
347
21
  0
LAYER
  5
28
330
1
100
AcDbSymbolTableRecord
100
AcDbLayerTableRecord
  2
Defpoints
 70
0
 62
7
  6
Continuous
290
0
370
-3
390
13
347
21
  0
LAYER
  5
30
330
1
100
AcDbSymbolTableRecord
100
AcDbLayerTableRecord
  2
FoilLayer
 70
0
 62
1
  6
Continuous
370
50
390
13
347
21
  0
LAYER
  5
31
330
1
100
AcDbSymbolTableRecord
100
AcDbLayerTableRecord
  2
StringerLayer
 70
0
 62
1
  6
Continuous
370
50
390
13
347
21
  0
LAYER
  5
32
330
1
100
AcDbSymbolTableRecord
100
AcDbLayerTableRecord
  2
SubLayer
 70
0
 62
1
  6
Continuous
370
50
390
13
347
21
  0
ENDTAB
  0
TABLE
  2
STYLE
  5
5
330
0
100
AcDbSymbolTable
 70
2
  0
STYLE
  5
29
330
5
100
AcDbSymbolTableRecord
100
AcDbTextStyleTableRecord
  2
Standard
 70
0
 40
0.0
 41
1.0
 50
0.0
 71
0
 42
2.5
  3
txt
  4

  0
STYLE
  5
2F
330
5
100
AcDbSymbolTableRecord
100
AcDbTextStyleTableRecord
  2
MSゴシック
 70
0
 40
0.0
 41
1.0
 50
0.0
 71
0
 42
2.5
  3
romans
  4

  0
ENDTAB
  0
TABLE
  2
VIEW
  5
7
330
0
100
AcDbSymbolTable
 70
0
  0
ENDTAB
  0
TABLE
  2
UCS
  5
6
330
0
100
AcDbSymbolTable
 70
0
  0
ENDTAB
  0
TABLE
  2
APPID
  5
3
330
0
100
AcDbSymbolTable
 70
3
  0
APPID
  5
2A
330
3
100
AcDbSymbolTableRecord
100
AcDbRegAppTableRecord
  2
ACAD
 70
0
  0
APPID
  5
1CA
330
3
100
AcDbSymbolTableRecord
100
AcDbRegAppTableRecord
  2
HATCHBACKGROUNDCOLOR
 70
0
  0
APPID
  5
1CB
330
3
100
AcDbSymbolTableRecord
100
AcDbRegAppTableRecord
  2
EZDXF
 70
0
  0
ENDTAB
  0
TABLE
  2
DIMSTYLE
  5
4
330
0
100
AcDbSymbolTable
 70
1
100
AcDbDimStyleTable
  0
DIMSTYLE
105
2B
330
4
100
AcDbSymbolTableRecord
100
AcDbDimStyleTableRecord
  2
Standard
 70
0
 40
1.0
 41
2.5
 42
0.625
 43
3.75
 44
1.25
 45
0.0
 46
0.0
 47
0.0
 48
0.0
 49
2.5
140
2.5
141
2.5
142
0.0
143
0.03937007874
144
1.0
145
0.0
146
1.0
147
0.625
148
0.0
 69
0
 70
0
 71
0
 72
0
 73
0
 74
0
 75
0
 76
0
 77
1
 78
8
 79
3
170
0
171
3
172
1
173
0
174
0
175
0
176
0
177
0
178
0
179
2
271
2
272
2
273
2
274
3
275
0
276
0
277
2
278
44
279
0
280
0
281
0
282
0
283
0
284
8
285
0
286
0
288
0
289
3
290
0
371
-2
372
-2
  0
ENDTAB
  0
TABLE
  2
BLOCK_RECORD
  5
9
330
0
100
AcDbSymbolTable
 70
2
  0
BLOCK_RECORD
  5
17
330
9
100
AcDbSymbolTableRecord
100
AcDbBlockTableRecord
  2
*Model_Space
340
1A
 70
0
280
1
281
0
  0
BLOCK_RECORD
  5
1B
330
9
100
AcDbSymbolTableRecord
100
AcDbBlockTableRecord
  2
*Paper_Space
340
1E
 70
0
280
1
281
0
  0
ENDTAB
  0
ENDSEC
  0
SECTION
  2
BLOCKS
  0
BLOCK
  5
18
330
17
100
AcDbEntity
  8
0
100
AcDbBlockBegin
  2
*Model_Space
 70
0
 10
0.0
 20
0.0
 30
0.0
  3
*Model_Space
  1

  0
ENDBLK
  5
19
330
17
100
AcDbEntity
  8
0
100
AcDbBlockEnd
  0
BLOCK
  5
1C
330
1B
100
AcDbEntity
  8
0
100
AcDbBlockBegin
  2
*Paper_Space
 70
0
 10
0.0
 20
0.0
 30
0.0
  3
*Paper_Space
  1

  0
ENDBLK
  5
1D
330
1B
100
AcDbEntity
  8
0
100
AcDbBlockEnd
  0
ENDSEC
  0
SECTION
  2
ENTITIES
  0
LINE
  5
33
330
17
100
AcDbEntity
  8
FoilLayer
100
AcDbLine
 10
289.45541782696057
 20
54.37802894442973
 30
0.0
 11
19.322033898305108
 21
-11.47661547915198
 31
0.0
  0
LINE
  5
34
330
17
100
AcDbEntity
  8
FoilLayer
100
AcDbLine
 10
483.0508474576269
 20
1.1598617749995046
 30
0.0
 11
480.682045995512
 21
1.9179802631030654
 31
0.0
  0
LINE
  5
35
330
17
100
AcDbEntity
  8
FoilLayer
100
AcDbLine
 10
480.682045995512
 20
1.9179802631030654
 30
0.0
 11
476.8843430543411
 21
3.063543748745943
 31
0.0
  0
LINE
  5
36
330
17
100
AcDbEntity
  8
FoilLayer
100
AcDbLine
 10
476.8843430543411
 20
3.063543748745943
 30
0.0
 11
472.7705319863129
 21
4.336323365637516
 31
0.0
  0
LINE
  5
37
330
17
100
AcDbEntity
  8
FoilLayer
100
AcDbLine
 10
472.7705319863129
 20
4.336323365637516
 30
0.0
 11
468.2782413346123
 21
5.6966703438321105
 31
0.0
  0
LINE
  5
38
330
17
100
AcDbEntity
  8
FoilLayer
100
AcDbLine
 10
468.2782413346123
 20
5.6966703438321105
 30
0.0
 11
463.38242977085247
 21
7.145744004088371
 31
0.0
  0
LINE
  5
39
330
17
100
AcDbEntity
  8
FoilLayer
100
AcDbLine
 10
463.38242977085247
 20
7.145744004088371
 30
0.0
 11
458.116563020933
 21
8.703407375404426
 31
0.0
  0
LINE
  5
3A
330
17
100
AcDbEntity
  8
FoilLayer
100
AcDbLine
 10
458.116563020933
 20
8.703407375404426
 30
0.0
 11
452.5414667806575
 21
10.3627045332284
 31
0.0
  0
LINE
  5
3B
330
17
100
AcDbEntity
  8
FoilLayer
100
AcDbLine
 10
452.5414667806575
 20
10.3627045332284
 30
0.0
 11
446.7086921797604
 21
12.089165007003233
 31
0.0
  0
LINE
  5
3C
330
17
100
AcDbEntity
  8
FoilLayer
100
AcDbLine
 10
446.7086921797604
 20
12.089165007003233
 30
0.0
 11
440.70742962860686
 21
13.862693903579073
 31
0.0
  0
LINE
  5
3D
330
17
100
AcDbEntity
  8
FoilLayer
100
AcDbLine
 10
440.70742962860686
 20
13.862693903579073
 30
0.0
 11
434.6488966319762
 21
15.631508229069754
 31
0.0
  0
LINE
  5
3E
330
17
100
AcDbEntity
  8
FoilLayer
100
AcDbLine
 10
434.6488966319762
 20
15.631508229069754
 30
0.0
 11
428.5466185987194
 21
17.370180214835653
 31
0.0
  0
LINE
  5
3F
330
17
100
AcDbEntity
  8
FoilLayer
100
AcDbLine
 10
428.5466185987194
 20
17.370180214835653
 30
0.0
 11
422.35592303560304
 21
19.179957207131807
 31
0.0
  0
LINE
  5
40
330
17
100
AcDbEntity
  8
FoilLayer
100
AcDbLine
 10
422.35592303560304
 20
19.179957207131807
 30
0.0
 11
416.09018077537723
 21
21.02111314796197
 31
0.0
  0
LINE
  5
41
330
17
100
AcDbEntity
  8
FoilLayer
100
AcDbLine
 10
416.09018077537723
 20
21.02111314796197
 30
0.0
 11
409.720872527379
 21
22.84603859817109
 31
0.0
  0
LINE
  5
42
330
17
100
AcDbEntity
  8
FoilLayer
100
AcDbLine
 10
409.720872527379
 20
22.84603859817109
 30
0.0
 11
403.2478437155073
 21
24.691290805681795
 31
0.0
  0
LINE
  5
43
330
17
100
AcDbEntity
  8
FoilLayer
100
AcDbLine
 10
403.2478437155073
 20
24.691290805681795
 30
0.0
 11
396.6680801057896
 21
26.537779622001725
 31
0.0
  0
LINE
  5
44
330
17
100
AcDbEntity
  8
FoilLayer
100
AcDbLine
 10
396.6680801057896
 20
26.537779622001725
 30
0.0
 11
389.96218239753136
 21
28.42855449130191
 31
0.0
  0
LINE
  5
45
330
17
100
AcDbEntity
  8
FoilLayer
100
AcDbLine
 10
389.96218239753136
 20
28.42855449130191
 30
0.0
 11
383.1497044675283
 21
30.3451435694946
 31
0.0
  0
LINE
  5
46
330
17
100
AcDbEntity
  8
FoilLayer
100
AcDbLine
 10
383.1497044675283
 20
30.3451435694946
 30
0.0
 11
376.2600157749994
 21
32.27796313830833
 31
0.0
  0
LINE
  5
47
330
17
100
AcDbEntity
  8
FoilLayer
100
AcDbLine
 10
376.2600157749994
 20
32.27796313830833
 30
0.0
 11
369.3213264584052
 21
34.22191218640505
 31
0.0
  0
LINE
  5
48
330
17
100
AcDbEntity
  8
FoilLayer
100
AcDbLine
 10
369.3213264584052
 20
34.22191218640505
 30
0.0
 11
362.36022360714367
 21
36.17188970244674
 31
0.0
  0
LINE
  5
49
330
17
100
AcDbEntity
  8
FoilLayer
100
AcDbLine
 10
362.36022360714367
 20
36.17188970244674
 30
0.0
 11
355.39618380996035
 21
38.11738451155499
 31
0.0
  0
LINE
  5
4A
330
17
100
AcDbEntity
  8
FoilLayer
100
AcDbLine
 10
355.39618380996035
 20
38.11738451155499
 30
0.0
 11
348.4345399423448
 21
40.05244543383542
 31
0.0
  0
LINE
  5
4B
330
17
100
AcDbEntity
  8
FoilLayer
100
AcDbLine
 10
348.4345399423448
 20
40.05244543383542
 30
0.0
 11
341.47614217285377
 21
41.97599043657999
 31
0.0
  0
LINE
  5
4C
330
17
100
AcDbEntity
  8
FoilLayer
100
AcDbLine
 10
341.47614217285377
 20
41.97599043657999
 30
0.0
 11
334.52330914300387
 21
43.88786494368753
 31
0.0
  0
LINE
  5
4D
330
17
100
AcDbEntity
  8
FoilLayer
100
AcDbLine
 10
334.52330914300387
 20
43.88786494368753
 30
0.0
 11
327.5838469459038
 21
45.78768251490514
 31
0.0
  0
LINE
  5
4E
330
17
100
AcDbEntity
  8
FoilLayer
100
AcDbLine
 10
327.5838469459038
 20
45.78768251490514
 30
0.0
 11
320.6713582784548
 21
47.669723834490206
 31
0.0
  0
LINE
  5
4F
330
17
100
AcDbEntity
  8
FoilLayer
100
AcDbLine
 10
320.6713582784548
 20
47.669723834490206
 30
0.0
 11
313.7870024614158
 21
49.52649196153679
 31
0.0
  0
LINE
  5
50
330
17
100
AcDbEntity
  8
FoilLayer
100
AcDbLine
 10
313.7870024614158
 20
49.52649196153679
 30
0.0
 11
306.9180269664414
 21
51.35783231994375
 31
0.0
  0
LINE
  5
51
330
17
100
AcDbEntity
  8
FoilLayer
100
AcDbLine
 10
306.9180269664414
 20
51.35783231994375
 30
0.0
 11
300.0589443419408
 21
53.16791846444221
 31
0.0
  0
LINE
  5
52
330
17
100
AcDbEntity
  8
FoilLayer
100
AcDbLine
 10
300.0589443419408
 20
53.16791846444221
 30
0.0
 11
293.2158603439094
 21
54.95605480257698
 31
0.0
  0
LINE
  5
53
330
17
100
AcDbEntity
  8
FoilLayer
100
AcDbLine
 10
293.2158603439094
 20
54.95605480257698
 30
0.0
 11
289.83050847457616
 21
55.830374291126354
 31
0.0
  0
LINE
  5
54
330
17
100
AcDbEntity
  8
FoilLayer
100
AcDbLine
 10
289.83050847457616
 20
55.830374291126354
 30
0.0
 11
289.45541782696057
 21
54.37802894442973
 31
0.0
  0
LINE
  5
55
330
17
100
AcDbEntity
  8
FoilLayer
100
AcDbLine
 10
289.45541782696057
 20
54.37802894442973
 30
0.0
 11
286.0218833913467
 21
55.26480077429611
 31
0.0
  0
LINE
  5
56
330
17
100
AcDbEntity
  8
FoilLayer
100
AcDbLine
 10
286.0218833913467
 20
55.26480077429611
 30
0.0
 11
279.21945496142405
 21
56.99769959984929
 31
0.0
  0
LINE
  5
57
330
17
100
AcDbEntity
  8
FoilLayer
100
AcDbLine
 10
279.21945496142405
 20
56.99769959984929
 30
0.0
 11
272.42871982722227
 21
58.70226707428509
 31
0.0
  0
LINE
  5
58
330
17
100
AcDbEntity
  8
FoilLayer
100
AcDbLine
 10
272.42871982722227
 20
58.70226707428509
 30
0.0
 11
265.644552838457
 21
60.378664451068225
 31
0.0
  0
LINE
  5
59
330
17
100
AcDbEntity
  8
FoilLayer
100
AcDbLine
 10
265.644552838457
 20
60.378664451068225
 30
0.0
 11
258.862121310279
 21
62.028575997341775
 31
0.0
  0
LINE
  5
5A
330
17
100
AcDbEntity
  8
FoilLayer
100
AcDbLine
 10
258.862121310279
 20
62.028575997341775
 30
0.0
 11
252.08190355476415
 21
63.6552153653094
 31
0.0
  0
LINE
  5
5B
330
17
100
AcDbEntity
  8
FoilLayer
100
AcDbLine
 10
252.08190355476415
 20
63.6552153653094
 30
0.0
 11
245.3226120334017
 21
65.25851991392533
 31
0.0
  0
LINE
  5
5C
330
17
100
AcDbEntity
  8
FoilLayer
100
AcDbLine
 10
245.3226120334017
 20
65.25851991392533
 30
0.0
 11
238.6087898241467
 21
66.82960530414842
 31
0.0
  0
LINE
  5
5D
330
17
100
AcDbEntity
  8
FoilLayer
100
AcDbLine
 10
238.6087898241467
 20
66.82960530414842
 30
0.0
 11
231.9468289491724
 21
68.35757362512047
 31
0.0
  0
LINE
  5
5E
330
17
100
AcDbEntity
  8
FoilLayer
100
AcDbLine
 10
231.9468289491724
 20
68.35757362512047
 30
0.0
 11
225.32802998188572
 21
69.8379729750541
 31
0.0
  0
LINE
  5
5F
330
17
100
AcDbEntity
  8
FoilLayer
100
AcDbLine
 10
225.32802998188572
 20
69.8379729750541
 30
0.0
 11
218.74196224405773
 21
71.27026293624708
 31
0.0
  0
LINE
  5
60
330
17
100
AcDbEntity
  8
FoilLayer
100
AcDbLine
 10
218.74196224405773
 20
71.27026293624708
 30
0.0
 11
212.1794668966437
 21
72.6549547715234
 31
0.0
  0
LINE
  5
61
330
17
100
AcDbEntity
  8
FoilLayer
100
AcDbLine
 10
212.1794668966437
 20
72.6549547715234
 30
0.0
 11
205.632367059555
 21
73.99311560835045
 31
0.0
  0
LINE
  5
62
330
17
100
AcDbEntity
  8
FoilLayer
100
AcDbLine
 10
205.632367059555
 20
73.99311560835045
 30
0.0
 11
199.09623427829467
 21
75.28627937830325
 31
0.0
  0
LINE
  5
63
330
17
100
AcDbEntity
  8
FoilLayer
100
AcDbLine
 10
199.09623427829467
 20
75.28627937830325
 30
0.0
 11
192.57170113332262
 21
76.5346665811037
 31
0.0
  0
LINE
  5
64
330
17
100
AcDbEntity
  8
FoilLayer
100
AcDbLine
 10
192.57170113332262
 20
76.5346665811037
 30
0.0
 11
186.05989383419842
 21
77.73622815635883
 31
0.0
  0
LINE
  5
65
330
17
100
AcDbEntity
  8
FoilLayer
100
AcDbLine
 10
186.05989383419842
 20
77.73622815635883
 30
0.0
 11
179.55517525427166
 21
78.88890703190728
 31
0.0
  0
LINE
  5
66
330
17
100
AcDbEntity
  8
FoilLayer
100
AcDbLine
 10
179.55517525427166
 20
78.88890703190728
 30
0.0
 11
173.04809265241005
 21
79.99363689807309
 31
0.0
  0
LINE
  5
67
330
17
100
AcDbEntity
  8
FoilLayer
100
AcDbLine
 10
173.04809265241005
 20
79.99363689807309
 30
0.0
 11
166.5335210811981
 21
81.05264454763885
 31
0.0
  0
LINE
  5
68
330
17
100
AcDbEntity
  8
FoilLayer
100
AcDbLine
 10
166.5335210811981
 20
81.05264454763885
 30
0.0
 11
160.00941572435335
 21
82.06730996904982
 31
0.0
  0
LINE
  5
69
330
17
100
AcDbEntity
  8
FoilLayer
100
AcDbLine
 10
160.00941572435335
 20
82.06730996904982
 30
0.0
 11
153.475190325962
 21
83.03855210197587
 31
0.0
  0
LINE
  5
6A
330
17
100
AcDbEntity
  8
FoilLayer
100
AcDbLine
 10
153.475190325962
 20
83.03855210197587
 30
0.0
 11
146.9318507564692
 21
83.96689812801962
 31
0.0
  0
LINE
  5
6B
330
17
100
AcDbEntity
  8
FoilLayer
100
AcDbLine
 10
146.9318507564692
 20
83.96689812801962
 30
0.0
 11
140.38213871515563
 21
84.8523020259017
 31
0.0
  0
LINE
  5
6C
330
17
100
AcDbEntity
  8
FoilLayer
100
AcDbLine
 10
140.38213871515563
 20
84.8523020259017
 30
0.0
 11
133.82765460015878
 21
85.69336208185797
 31
0.0
  0
LINE
  5
6D
330
17
100
AcDbEntity
  8
FoilLayer
100
AcDbLine
 10
133.82765460015878
 20
85.69336208185797
 30
0.0
 11
127.26406535590161
 21
86.4888351185783
 31
0.0
  0
LINE
  5
6E
330
17
100
AcDbEntity
  8
FoilLayer
100
AcDbLine
 10
127.26406535590161
 20
86.4888351185783
 30
0.0
 11
120.68490296081023
 21
87.24007082662042
 31
0.0
  0
LINE
  5
6F
330
17
100
AcDbEntity
  8
FoilLayer
100
AcDbLine
 10
120.68490296081023
 20
87.24007082662042
 30
0.0
 11
114.08782488446212
 21
87.94945739117881
 31
0.0
  0
LINE
  5
70
330
17
100
AcDbEntity
  8
FoilLayer
100
AcDbLine
 10
114.08782488446212
 20
87.94945739117881
 30
0.0
 11
107.47423473971367
 21
88.61906301336568
 31
0.0
  0
LINE
  5
71
330
17
100
AcDbEntity
  8
FoilLayer
100
AcDbLine
 10
107.47423473971367
 20
88.61906301336568
 30
0.0
 11
100.85088006503332
 21
89.25007281835875
 31
0.0
  0
LINE
  5
72
330
17
100
AcDbEntity
  8
FoilLayer
100
AcDbLine
 10
100.85088006503332
 20
89.25007281835875
 30
0.0
 11
94.2253340239892
 21
89.84153456768401
 31
0.0
  0
LINE
  5
73
330
17
100
AcDbEntity
  8
FoilLayer
100
AcDbLine
 10
94.2253340239892
 20
89.84153456768401
 30
0.0
 11
87.60167688177336
 21
90.39154168277597
 31
0.0
  0
LINE
  5
74
330
17
100
AcDbEntity
  8
FoilLayer
100
AcDbLine
 10
87.60167688177336
 20
90.39154168277597
 30
0.0
 11
80.98157757489656
 21
90.89955737148256
 31
0.0
  0
LINE
  5
75
330
17
100
AcDbEntity
  8
FoilLayer
100
AcDbLine
 10
80.98157757489656
 20
90.89955737148256
 30
0.0
 11
74.36826874725904
 21
91.3651053793032
 31
0.0
  0
LINE
  5
76
330
17
100
AcDbEntity
  8
FoilLayer
100
AcDbLine
 10
74.36826874725904
 20
91.3651053793032
 30
0.0
 11
67.76381617729885
 21
91.78687435899097
 31
0.0
  0
LINE
  5
77
330
17
100
AcDbEntity
  8
FoilLayer
100
AcDbLine
 10
67.76381617729885
 20
91.78687435899097
 30
0.0
 11
61.16776245697497
 21
92.16349155385142
 31
0.0
  0
LINE
  5
78
330
17
100
AcDbEntity
  8
FoilLayer
100
AcDbLine
 10
61.16776245697497
 20
92.16349155385142
 30
0.0
 11
54.57802393001634
 21
92.49465695348222
 31
0.0
  0
LINE
  5
79
330
17
100
AcDbEntity
  8
FoilLayer
100
AcDbLine
 10
54.57802393001634
 20
92.49465695348222
 30
0.0
 11
47.99476954152499
 21
92.78059571780426
 31
0.0
  0
LINE
  5
7A
330
17
100
AcDbEntity
  8
FoilLayer
100
AcDbLine
 10
47.99476954152499
 20
92.78059571780426
 30
0.0
 11
41.418683526960706
 21
93.02076786554096
 31
0.0
  0
LINE
  5
7B
330
17
100
AcDbEntity
  8
FoilLayer
100
AcDbLine
 10
41.418683526960706
 20
93.02076786554096
 30
0.0
 11
34.848580294263
 21
93.21440899756972
 31
0.0
  0
LINE
  5
7C
330
17
100
AcDbEntity
  8
FoilLayer
100
AcDbLine
 10
34.848580294263
 20
93.21440899756972
 30
0.0
 11
28.28325086944932
 21
93.3615205041149
 31
0.0
  0
LINE
  5
7D
330
17
100
AcDbEntity
  8
FoilLayer
100
AcDbLine
 10
28.28325086944932
 20
93.3615205041149
 30
0.0
 11
21.723981914481726
 21
93.46225360582257
 31
0.0
  0
LINE
  5
7E
330
17
100
AcDbEntity
  8
FoilLayer
100
AcDbLine
 10
21.723981914481726
 20
93.46225360582257
 30
0.0
 11
15.169801941348112
 21
93.5152246712366
 31
0.0
  0
LINE
  5
7F
330
17
100
AcDbEntity
  8
FoilLayer
100
AcDbLine
 10
15.169801941348112
 20
93.5152246712366
 30
0.0
 11
8.617481424363234
 21
93.51989337383058
 31
0.0
  0
LINE
  5
80
330
17
100
AcDbEntity
  8
FoilLayer
100
AcDbLine
 10
8.617481424363234
 20
93.51989337383058
 30
0.0
 11
2.063631476503474
 21
93.47725760879969
 31
0.0
  0
LINE
  5
81
330
17
100
AcDbEntity
  8
FoilLayer
100
AcDbLine
 10
2.063631476503474
 20
93.47725760879969
 30
0.0
 11
-4.4895318328999
 21
93.38893846286689
 31
0.0
  0
LINE
  5
82
330
17
100
AcDbEntity
  8
FoilLayer
100
AcDbLine
 10
-4.4895318328999
 20
93.38893846286689
 30
0.0
 11
-11.03741580752694
 21
93.25540513562561
 31
0.0
  0
LINE
  5
83
330
17
100
AcDbEntity
  8
FoilLayer
100
AcDbLine
 10
-11.03741580752694
 20
93.25540513562561
 30
0.0
 11
-17.575906854971777
 21
93.07604640204539
 31
0.0
  0
LINE
  5
84
330
17
100
AcDbEntity
  8
FoilLayer
100
AcDbLine
 10
-17.575906854971777
 20
93.07604640204539
 30
0.0
 11
-24.102556605770815
 21
92.84986244066124
 31
0.0
  0
LINE
  5
85
330
17
100
AcDbEntity
  8
FoilLayer
100
AcDbLine
 10
-24.102556605770815
 20
92.84986244066124
 30
0.0
 11
-30.617036839720527
 21
92.5759208241256
 31
0.0
  0
LINE
  5
86
330
17
100
AcDbEntity
  8
FoilLayer
100
AcDbLine
 10
-30.617036839720527
 20
92.5759208241256
 30
0.0
 11
-37.1191161656848
 21
92.25421360194962
 31
0.0
  0
LINE
  5
87
330
17
100
AcDbEntity
  8
FoilLayer
100
AcDbLine
 10
-37.1191161656848
 20
92.25421360194962
 30
0.0
 11
-43.606910212912936
 21
91.88549814204363
 31
0.0
  0
LINE
  5
88
330
17
100
AcDbEntity
  8
FoilLayer
100
AcDbLine
 10
-43.606910212912936
 20
91.88549814204363
 30
0.0
 11
-50.074141334203404
 21
91.47172852753674
 31
0.0
  0
LINE
  5
89
330
17
100
AcDbEntity
  8
FoilLayer
100
AcDbLine
 10
-50.074141334203404
 20
91.47172852753674
 30
0.0
 11
-56.508557022328716
 21
91.01366021554506
 31
0.0
  0
LINE
  5
8A
330
17
100
AcDbEntity
  8
FoilLayer
100
AcDbLine
 10
-56.508557022328716
 20
91.01366021554506
 30
0.0
 11
-62.900310106620935
 21
90.50895307294499
 31
0.0
  0
LINE
  5
8B
330
17
100
AcDbEntity
  8
FoilLayer
100
AcDbLine
 10
-62.900310106620935
 20
90.50895307294499
 30
0.0
 11
-69.24512528445399
 21
89.95326631689812
 31
0.0
  0
LINE
  5
8C
330
17
100
AcDbEntity
  8
FoilLayer
100
AcDbLine
 10
-69.24512528445399
 20
89.95326631689812
 30
0.0
 11
-75.54835934699324
 21
89.3400762307695
 31
0.0
  0
LINE
  5
8D
330
17
100
AcDbEntity
  8
FoilLayer
100
AcDbLine
 10
-75.54835934699324
 20
89.3400762307695
 30
0.0
 11
-81.8276136380459
 21
88.66449687819438
 31
0.0
  0
LINE
  5
8E
330
17
100
AcDbEntity
  8
FoilLayer
100
AcDbLine
 10
-81.8276136380459
 20
88.66449687819438
 30
0.0
 11
-88.09677078232264
 21
87.92871032195603
 31
0.0
  0
LINE
  5
8F
330
17
100
AcDbEntity
  8
FoilLayer
100
AcDbLine
 10
-88.09677078232264
 20
87.92871032195603
 30
0.0
 11
-94.35379159769212
 21
87.13771667498031
 31
0.0
  0
LINE
  5
90
330
17
100
AcDbEntity
  8
FoilLayer
100
AcDbLine
 10
-94.35379159769212
 20
87.13771667498031
 30
0.0
 11
-100.59147496210079
 21
86.2921835762443
 31
0.0
  0
LINE
  5
91
330
17
100
AcDbEntity
  8
FoilLayer
100
AcDbLine
 10
-100.59147496210079
 20
86.2921835762443
 30
0.0
 11
-106.80725274467036
 21
85.39090656720253
 31
0.0
  0
LINE
  5
92
330
17
100
AcDbEntity
  8
FoilLayer
100
AcDbLine
 10
-106.80725274467036
 20
85.39090656720253
 30
0.0
 11
-112.99942503807489
 21
84.43418354068415
 31
0.0
  0
LINE
  5
93
330
17
100
AcDbEntity
  8
FoilLayer
100
AcDbLine
 10
-112.99942503807489
 20
84.43418354068415
 30
0.0
 11
-119.16243537085506
 21
83.42331609715026
 31
0.0
  0
LINE
  5
94
330
17
100
AcDbEntity
  8
FoilLayer
100
AcDbLine
 10
-119.16243537085506
 20
83.42331609715026
 30
0.0
 11
-125.29050516820686
 21
82.35817102531392
 31
0.0
  0
LINE
  5
95
330
17
100
AcDbEntity
  8
FoilLayer
100
AcDbLine
 10
-125.29050516820686
 20
82.35817102531392
 30
0.0
 11
-131.37901742529294
 21
81.23830837446599
 31
0.0
  0
LINE
  5
96
330
17
100
AcDbEntity
  8
FoilLayer
100
AcDbLine
 10
-131.37901742529294
 20
81.23830837446599
 30
0.0
 11
-137.4244873581033
 21
80.06295585539867
 31
0.0
  0
LINE
  5
97
330
17
100
AcDbEntity
  8
FoilLayer
100
AcDbLine
 10
-137.4244873581033
 20
80.06295585539867
 30
0.0
 11
-143.4239615357207
 21
78.83163321067059
 31
0.0
  0
LINE
  5
98
330
17
100
AcDbEntity
  8
FoilLayer
100
AcDbLine
 10
-143.4239615357207
 20
78.83163321067059
 30
0.0
 11
-149.37403160657828
 21
77.54463601023551
 31
0.0
  0
LINE
  5
99
330
17
100
AcDbEntity
  8
FoilLayer
100
AcDbLine
 10
-149.37403160657828
 20
77.54463601023551
 30
0.0
 11
-155.26779451670387
 21
76.20215196960638
 31
0.0
  0
LINE
  5
9A
330
17
100
AcDbEntity
  8
FoilLayer
100
AcDbLine
 10
-155.26779451670387
 20
76.20215196960638
 30
0.0
 11
-161.10405377523838
 21
74.79885440092524
 31
0.0
  0
LINE
  5
9B
330
17
100
AcDbEntity
  8
FoilLayer
100
AcDbLine
 10
-161.10405377523838
 20
74.79885440092524
 30
0.0
 11
-166.89432052329744
 21
73.33097132842506
 31
0.0
  0
LINE
  5
9C
330
17
100
AcDbEntity
  8
FoilLayer
100
AcDbLine
 10
-166.89432052329744
 20
73.33097132842506
 30
0.0
 11
-172.63851311683555
 21
71.80851253424855
 31
0.0
  0
LINE
  5
9D
330
17
100
AcDbEntity
  8
FoilLayer
100
AcDbLine
 10
-172.63851311683555
 20
71.80851253424855
 30
0.0
 11
-178.30593289915907
 21
70.24698332515582
 31
0.0
  0
LINE
  5
9E
330
17
100
AcDbEntity
  8
FoilLayer
100
AcDbLine
 10
-178.30593289915907
 20
70.24698332515582
 30
0.0
 11
-183.86468309953347
 21
68.64817025976112
 31
0.0
  0
LINE
  5
9F
330
17
100
AcDbEntity
  8
FoilLayer
100
AcDbLine
 10
-183.86468309953347
 20
68.64817025976112
 30
0.0
 11
-189.30412241089414
 21
67.00446415513832
 31
0.0
  0
LINE
  5
A0
330
17
100
AcDbEntity
  8
FoilLayer
100
AcDbLine
 10
-189.30412241089414
 20
67.00446415513832
 30
0.0
 11
-194.62563237574432
 21
65.30947938126863
 31
0.0
  0
LINE
  5
A1
330
17
100
AcDbEntity
  8
FoilLayer
100
AcDbLine
 10
-194.62563237574432
 20
65.30947938126863
 30
0.0
 11
-199.83321891415417
 21
63.55982157095035
 31
0.0
  0
LINE
  5
A2
330
17
100
AcDbEntity
  8
FoilLayer
100
AcDbLine
 10
-199.83321891415417
 20
63.55982157095035
 30
0.0
 11
-204.93014269128813
 21
61.75468218705317
 31
0.0
  0
LINE
  5
A3
330
17
100
AcDbEntity
  8
FoilLayer
100
AcDbLine
 10
-204.93014269128813
 20
61.75468218705317
 30
0.0
 11
-209.9161434779337
 21
59.89602334006399
 31
0.0
  0
LINE
  5
A4
330
17
100
AcDbEntity
  8
FoilLayer
100
AcDbLine
 10
-209.9161434779337
 20
59.89602334006399
 30
0.0
 11
-214.78614602571213
 21
57.98914937313097
 31
0.0
  0
LINE
  5
A5
330
17
100
AcDbEntity
  8
FoilLayer
100
AcDbLine
 10
-214.78614602571213
 20
57.98914937313097
 30
0.0
 11
-219.52901715339377
 21
56.041619172803884
 31
0.0
  0
LINE
  5
A6
330
17
100
AcDbEntity
  8
FoilLayer
100
AcDbLine
 10
-219.52901715339377
 20
56.041619172803884
 30
0.0
 11
-224.13154562601227
 21
54.05912901787357
 31
0.0
  0
LINE
  5
A7
330
17
100
AcDbEntity
  8
FoilLayer
100
AcDbLine
 10
-224.13154562601227
 20
54.05912901787357
 30
0.0
 11
-228.5855308926022
 21
52.0459982147107
 31
0.0
  0
LINE
  5
A8
330
17
100
AcDbEntity
  8
FoilLayer
100
AcDbLine
 10
-228.5855308926022
 20
52.0459982147107
 30
0.0
 11
-232.8825244677245
 21
50.01360122992208
 31
0.0
  0
LINE
  5
A9
330
17
100
AcDbEntity
  8
FoilLayer
100
AcDbLine
 10
-232.8825244677245
 20
50.01360122992208
 30
0.0
 11
-237.0053767886095
 21
47.98069090441866
 31
0.0
  0
LINE
  5
AA
330
17
100
AcDbEntity
  8
FoilLayer
100
AcDbLine
 10
-237.0053767886095
 20
47.98069090441866
 30
0.0
 11
-240.93315562039555
 21
45.963351121333005
 31
0.0
  0
LINE
  5
AB
330
17
100
AcDbEntity
  8
FoilLayer
100
AcDbLine
 10
-240.93315562039555
 20
45.963351121333005
 30
0.0
 11
-244.65031869077393
 21
43.971483057629165
 31
0.0
  0
LINE
  5
AC
330
17
100
AcDbEntity
  8
FoilLayer
100
AcDbLine
 10
-244.65031869077393
 20
43.971483057629165
 30
0.0
 11
-248.14868649975733
 21
42.011091982807166
 31
0.0
  0
LINE
  5
AD
330
17
100
AcDbEntity
  8
FoilLayer
100
AcDbLine
 10
-248.14868649975733
 20
42.011091982807166
 30
0.0
 11
-251.42814882655563
 21
40.084838046876726
 31
0.0
  0
LINE
  5
AE
330
17
100
AcDbEntity
  8
FoilLayer
100
AcDbLine
 10
-251.42814882655563
 20
40.084838046876726
 30
0.0
 11
-254.49445651104628
 21
38.19657684024145
 31
0.0
  0
LINE
  5
AF
330
17
100
AcDbEntity
  8
FoilLayer
100
AcDbLine
 10
-254.49445651104628
 20
38.19657684024145
 30
0.0
 11
-257.3545016185215
 21
36.353267709887014
 31
0.0
  0
LINE
  5
B0
330
17
100
AcDbEntity
  8
FoilLayer
100
AcDbLine
 10
-257.3545016185215
 20
36.353267709887014
 30
0.0
 11
-260.01573694056856
 21
34.561558390552676
 31
0.0
  0
LINE
  5
B1
330
17
100
AcDbEntity
  8
FoilLayer
100
AcDbLine
 10
-260.01573694056856
 20
34.561558390552676
 30
0.0
 11
-262.4856828478877
 21
32.82761830611578
 31
0.0
  0
LINE
  5
B2
330
17
100
AcDbEntity
  8
FoilLayer
100
AcDbLine
 10
-262.4856828478877
 20
32.82761830611578
 30
0.0
 11
-264.77181524175245
 21
31.15445525473693
 31
0.0
  0
LINE
  5
B3
330
17
100
AcDbEntity
  8
FoilLayer
100
AcDbLine
 10
-264.77181524175245
 20
31.15445525473693
 30
0.0
 11
-266.8829335078782
 21
29.54132713531176
 31
0.0
  0
LINE
  5
B4
330
17
100
AcDbEntity
  8
FoilLayer
100
AcDbLine
 10
-266.8829335078782
 20
29.54132713531176
 30
0.0
 11
-268.8289464985
 21
27.985121930062082
 31
0.0
  0
LINE
  5
B5
330
17
100
AcDbEntity
  8
FoilLayer
100
AcDbLine
 10
-268.8289464985
 20
27.985121930062082
 30
0.0
 11
-270.6212527149951
 21
26.480592680775622
 31
0.0
  0
LINE
  5
B6
330
17
100
AcDbEntity
  8
FoilLayer
100
AcDbLine
 10
-270.6212527149951
 20
26.480592680775622
 30
0.0
 11
-272.2740066708852
 21
25.02194783091795
 31
0.0
  0
LINE
  5
B7
330
17
100
AcDbEntity
  8
FoilLayer
100
AcDbLine
 10
-272.2740066708852
 20
25.02194783091795
 30
0.0
 11
-273.8010441671315
 21
23.608941259798687
 31
0.0
  0
LINE
  5
B8
330
17
100
AcDbEntity
  8
FoilLayer
100
AcDbLine
 10
-273.8010441671315
 20
23.608941259798687
 30
0.0
 11
-275.21310638934335
 21
22.24382946493798
 31
0.0
  0
LINE
  5
B9
330
17
100
AcDbEntity
  8
FoilLayer
100
AcDbLine
 10
-275.21310638934335
 20
22.24382946493798
 30
0.0
 11
-276.5180491698588
 21
20.926890747657236
 31
0.0
  0
LINE
  5
BA
330
17
100
AcDbEntity
  8
FoilLayer
100
AcDbLine
 10
-276.5180491698588
 20
20.926890747657236
 30
0.0
 11
-277.72328405880205
 21
19.65499170861288
 31
0.0
  0
LINE
  5
BB
330
17
100
AcDbEntity
  8
FoilLayer
100
AcDbLine
 10
-277.72328405880205
 20
19.65499170861288
 30
0.0
 11
-278.8358166809776
 21
18.425416926492755
 31
0.0
  0
LINE
  5
BC
330
17
100
AcDbEntity
  8
FoilLayer
100
AcDbLine
 10
-278.8358166809776
 20
18.425416926492755
 30
0.0
 11
-279.86198213647447
 21
17.23552292498085
 31
0.0
  0
LINE
  5
BD
330
17
100
AcDbEntity
  8
FoilLayer
100
AcDbLine
 10
-279.86198213647447
 20
17.23552292498085
 30
0.0
 11
-280.80769847859233
 21
16.082531987006906
 31
0.0
  0
LINE
  5
BE
330
17
100
AcDbEntity
  8
FoilLayer
100
AcDbLine
 10
-280.80769847859233
 20
16.082531987006906
 30
0.0
 11
-281.6795028376072
 21
14.962425508218677
 31
0.0
  0
LINE
  5
BF
330
17
100
AcDbEntity
  8
FoilLayer
100
AcDbLine
 10
-281.6795028376072
 20
14.962425508218677
 30
0.0
 11
-282.48408674179313
 21
13.873163349022366
 31
0.0
  0
LINE
  5
C0
330
17
100
AcDbEntity
  8
FoilLayer
100
AcDbLine
 10
-282.48408674179313
 20
13.873163349022366
 30
0.0
 11
-283.22540617531945
 21
12.817235167487732
 31
0.0
  0
LINE
  5
C1
330
17
100
AcDbEntity
  8
FoilLayer
100
AcDbLine
 10
-283.22540617531945
 20
12.817235167487732
 30
0.0
 11
-283.90451814096474
 21
11.795534296609027
 31
0.0
  0
LINE
  5
C2
330
17
100
AcDbEntity
  8
FoilLayer
100
AcDbLine
 10
-283.90451814096474
 20
11.795534296609027
 30
0.0
 11
-284.52645030224414
 21
10.796957282757104
 31
0.0
  0
LINE
  5
C3
330
17
100
AcDbEntity
  8
FoilLayer
100
AcDbLine
 10
-284.52645030224414
 20
10.796957282757104
 30
0.0
 11
-285.10153362621645
 21
9.813075984257718
 31
0.0
  0
LINE
  5
C4
330
17
100
AcDbEntity
  8
FoilLayer
100
AcDbLine
 10
-285.10153362621645
 20
9.813075984257718
 30
0.0
 11
-285.6318596397595
 21
8.863218808342578
 31
0.0
  0
LINE
  5
C5
330
17
100
AcDbEntity
  8
FoilLayer
100
AcDbLine
 10
-285.6318596397595
 20
8.863218808342578
 30
0.0
 11
-286.10646756761224
 21
7.965378995786962
 31
0.0
  0
LINE
  5
C6
330
17
100
AcDbEntity
  8
FoilLayer
100
AcDbLine
 10
-286.10646756761224
 20
7.965378995786962
 30
0.0
 11
-286.5230707064393
 21
7.0879008984931895
 31
0.0
  0
LINE
  5
C7
330
17
100
AcDbEntity
  8
FoilLayer
100
AcDbLine
 10
-286.5230707064393
 20
7.0879008984931895
 30
0.0
 11
-286.8962256424723
 21
6.195329172826606
 31
0.0
  0
LINE
  5
C8
330
17
100
AcDbEntity
  8
FoilLayer
100
AcDbLine
 10
-286.8962256424723
 20
6.195329172826606
 30
0.0
 11
-287.23575679595626
 21
5.322919417798734
 31
0.0
  0
LINE
  5
C9
330
17
100
AcDbEntity
  8
FoilLayer
100
AcDbLine
 10
-287.23575679595626
 20
5.322919417798734
 30
0.0
 11
-287.5311312554255
 21
4.51256558257766
 31
0.0
  0
LINE
  5
CA
330
17
100
AcDbEntity
  8
FoilLayer
100
AcDbLine
 10
-287.5311312554255
 20
4.51256558257766
 30
0.0
 11
-287.7718711453416
 21
3.7332404681662124
 31
0.0
  0
LINE
  5
CB
330
17
100
AcDbEntity
  8
FoilLayer
100
AcDbLine
 10
-287.7718711453416
 20
3.7332404681662124
 30
0.0
 11
-287.961465950718
 21
2.9434717024261463
 31
0.0
  0
LINE
  5
CC
330
17
100
AcDbEntity
  8
FoilLayer
100
AcDbLine
 10
-287.961465950718
 20
2.9434717024261463
 30
0.0
 11
-288.11078363245053
 21
2.1591952684936806
 31
0.0
  0
LINE
  5
CD
330
17
100
AcDbEntity
  8
FoilLayer
100
AcDbLine
 10
-288.11078363245053
 20
2.1591952684936806
 30
0.0
 11
-288.22402664708534
 21
1.406142744926199
 31
0.0
  0
LINE
  5
CE
330
17
100
AcDbEntity
  8
FoilLayer
100
AcDbLine
 10
-288.22402664708534
 20
1.406142744926199
 30
0.0
 11
-288.2978111135963
 21
0.6794915590388505
 31
0.0
  0
LINE
  5
CF
330
17
100
AcDbEntity
  8
FoilLayer
100
AcDbLine
 10
-288.2978111135963
 20
0.6794915590388505
 30
0.0
 11
-288.33050847457616
 21
-0.04815045550907518
 31
0.0
  0
LINE
  5
D0
330
17
100
AcDbEntity
  8
FoilLayer
100
AcDbLine
 10
-288.33050847457616
 20
-0.04815045550907518
 30
0.0
 11
-288.32450866150833
 21
-0.7085698512466395
 31
0.0
  0
LINE
  5
D1
330
17
100
AcDbEntity
  8
FoilLayer
100
AcDbLine
 10
-288.32450866150833
 20
-0.7085698512466395
 30
0.0
 11
-288.27577876661286
 21
-1.373079025848181
 31
0.0
  0
LINE
  5
D2
330
17
100
AcDbEntity
  8
FoilLayer
100
AcDbLine
 10
-288.27577876661286
 20
-1.373079025848181
 30
0.0
 11
-288.172483954816
 21
-2.0353301701506994
 31
0.0
  0
LINE
  5
D3
330
17
100
AcDbEntity
  8
FoilLayer
100
AcDbLine
 10
-288.172483954816
 20
-2.0353301701506994
 30
0.0
 11
-288.0069323910011
 21
-2.703783534303702
 31
0.0
  0
LINE
  5
D4
330
17
100
AcDbEntity
  8
FoilLayer
100
AcDbLine
 10
-288.0069323910011
 20
-2.703783534303702
 30
0.0
 11
-287.78026330311025
 21
-3.373772716191962
 31
0.0
  0
LINE
  5
D5
330
17
100
AcDbEntity
  8
FoilLayer
100
AcDbLine
 10
-287.78026330311025
 20
-3.373772716191962
 30
0.0
 11
-287.49472790363586
 21
-4.038501489030323
 31
0.0
  0
LINE
  5
D6
330
17
100
AcDbEntity
  8
FoilLayer
100
AcDbLine
 10
-287.49472790363586
 20
-4.038501489030323
 30
0.0
 11
-287.1505478286978
 21
-4.693019105617254
 31
0.0
  0
LINE
  5
D7
330
17
100
AcDbEntity
  8
FoilLayer
100
AcDbLine
 10
-287.1505478286978
 20
-4.693019105617254
 30
0.0
 11
-286.7471440276873
 21
-5.332606162236224
 31
0.0
  0
LINE
  5
D8
330
17
100
AcDbEntity
  8
FoilLayer
100
AcDbLine
 10
-286.7471440276873
 20
-5.332606162236224
 30
0.0
 11
-286.27724038618453
 21
-5.959399619146089
 31
0.0
  0
LINE
  5
D9
330
17
100
AcDbEntity
  8
FoilLayer
100
AcDbLine
 10
-286.27724038618453
 20
-5.959399619146089
 30
0.0
 11
-285.73673081740014
 21
-6.575833621994946
 31
0.0
  0
LINE
  5
DA
330
17
100
AcDbEntity
  8
FoilLayer
100
AcDbLine
 10
-285.73673081740014
 20
-6.575833621994946
 30
0.0
 11
-285.13111983133365
 21
-7.1796108176075055
 31
0.0
  0
LINE
  5
DB
330
17
100
AcDbEntity
  8
FoilLayer
100
AcDbLine
 10
-285.13111983133365
 20
-7.1796108176075055
 30
0.0
 11
-284.46450360170695
 21
-7.768735438263214
 31
0.0
  0
LINE
  5
DC
330
17
100
AcDbEntity
  8
FoilLayer
100
AcDbLine
 10
-284.46450360170695
 20
-7.768735438263214
 30
0.0
 11
-283.73890061206436
 21
-8.341354928522696
 31
0.0
  0
LINE
  5
DD
330
17
100
AcDbEntity
  8
FoilLayer
100
AcDbLine
 10
-283.73890061206436
 20
-8.341354928522696
 30
0.0
 11
-282.95457268768473
 21
-8.895547836948852
 31
0.0
  0
LINE
  5
DE
330
17
100
AcDbEntity
  8
FoilLayer
100
AcDbLine
 10
-282.95457268768473
 20
-8.895547836948852
 30
0.0
 11
-282.1078940903431
 21
-9.430490665670094
 31
0.0
  0
LINE
  5
DF
330
17
100
AcDbEntity
  8
FoilLayer
100
AcDbLine
 10
-282.1078940903431
 20
-9.430490665670094
 30
0.0
 11
-281.1948789724248
 21
-9.946313924362679
 31
0.0
  0
LINE
  5
E0
330
17
100
AcDbEntity
  8
FoilLayer
100
AcDbLine
 10
-281.1948789724248
 20
-9.946313924362679
 30
0.0
 11
-280.210717162744
 21
-10.444595505275647
 31
0.0
  0
LINE
  5
E1
330
17
100
AcDbEntity
  8
FoilLayer
100
AcDbLine
 10
-280.210717162744
 20
-10.444595505275647
 30
0.0
 11
-279.1516256790743
 21
-10.928476438355176
 31
0.0
  0
LINE
  5
E2
330
17
100
AcDbEntity
  8
FoilLayer
100
AcDbLine
 10
-279.1516256790743
 20
-10.928476438355176
 30
0.0
 11
-278.0162051028647
 21
-11.402052676769022
 31
0.0
  0
LINE
  5
E3
330
17
100
AcDbEntity
  8
FoilLayer
100
AcDbLine
 10
-278.0162051028647
 20
-11.402052676769022
 30
0.0
 11
-276.80386928854637
 21
-11.868981012334894
 31
0.0
  0
LINE
  5
E4
330
17
100
AcDbEntity
  8
FoilLayer
100
AcDbLine
 10
-276.80386928854637
 20
-11.868981012334894
 30
0.0
 11
-275.51189971808463
 21
-12.331945516736114
 31
0.0
  0
LINE
  5
E5
330
17
100
AcDbEntity
  8
FoilLayer
100
AcDbLine
 10
-275.51189971808463
 20
-12.331945516736114
 30
0.0
 11
-274.13591611738303
 21
-12.792695098491716
 31
0.0
  0
LINE
  5
E6
330
17
100
AcDbEntity
  8
FoilLayer
100
AcDbLine
 10
-274.13591611738303
 20
-12.792695098491716
 30
0.0
 11
-272.670658727994
 21
-13.252023774803355
 31
0.0
  0
LINE
  5
E7
330
17
100
AcDbEntity
  8
FoilLayer
100
AcDbLine
 10
-272.670658727994
 20
-13.252023774803355
 30
0.0
 11
-271.1110825463919
 21
-13.708899245565787
 31
0.0
  0
LINE
  5
E8
330
17
100
AcDbEntity
  8
FoilLayer
100
AcDbLine
 10
-271.1110825463919
 20
-13.708899245565787
 30
0.0
 11
-269.44695827263575
 21
-14.159677906315917
 31
0.0
  0
LINE
  5
E9
330
17
100
AcDbEntity
  8
FoilLayer
100
AcDbLine
 10
-269.44695827263575
 20
-14.159677906315917
 30
0.0
 11
-267.661031972367
 21
-14.601217102265075
 31
0.0
  0
LINE
  5
EA
330
17
100
AcDbEntity
  8
FoilLayer
100
AcDbLine
 10
-267.661031972367
 20
-14.601217102265075
 30
0.0
 11
-265.7374888447093
 21
-15.035192907036727
 31
0.0
  0
LINE
  5
EB
330
17
100
AcDbEntity
  8
FoilLayer
100
AcDbLine
 10
-265.7374888447093
 20
-15.035192907036727
 30
0.0
 11
-263.6644020182016
 21
-15.465869519209283
 31
0.0
  0
LINE
  5
EC
330
17
100
AcDbEntity
  8
FoilLayer
100
AcDbLine
 10
-263.6644020182016
 20
-15.465869519209283
 30
0.0
 11
-261.4288064583178
 21
-15.896283095401706
 31
0.0
  0
LINE
  5
ED
330
17
100
AcDbEntity
  8
FoilLayer
100
AcDbLine
 10
-261.4288064583178
 20
-15.896283095401706
 30
0.0
 11
-259.0164374530799
 21
-16.327573919082457
 31
0.0
  0
LINE
  5
EE
330
17
100
AcDbEntity
  8
FoilLayer
100
AcDbLine
 10
-259.0164374530799
 20
-16.327573919082457
 30
0.0
 11
-256.41286900355897
 21
-16.75660577604119
 31
0.0
  0
LINE
  5
EF
330
17
100
AcDbEntity
  8
FoilLayer
100
AcDbLine
 10
-256.41286900355897
 20
-16.75660577604119
 30
0.0
 11
-253.5989431500881
 21
-17.175294355484287
 31
0.0
  0
LINE
  5
F0
330
17
100
AcDbEntity
  8
FoilLayer
100
AcDbLine
 10
-253.5989431500881
 20
-17.175294355484287
 30
0.0
 11
-250.55141093791502
 21
-17.575907945084133
 31
0.0
  0
LINE
  5
F1
330
17
100
AcDbEntity
  8
FoilLayer
100
AcDbLine
 10
-250.55141093791502
 20
-17.575907945084133
 30
0.0
 11
-247.243712431243
 21
-17.952949880707276
 31
0.0
  0
LINE
  5
F2
330
17
100
AcDbEntity
  8
FoilLayer
100
AcDbLine
 10
-247.243712431243
 20
-17.952949880707276
 30
0.0
 11
-243.64599264079547
 21
-18.304905708800383
 31
0.0
  0
LINE
  5
F3
330
17
100
AcDbEntity
  8
FoilLayer
100
AcDbLine
 10
-243.64599264079547
 20
-18.304905708800383
 30
0.0
 11
-239.7364539084922
 21
-18.637844267286013
 31
0.0
  0
LINE
  5
F4
330
17
100
AcDbEntity
  8
FoilLayer
100
AcDbLine
 10
-239.7364539084922
 20
-18.637844267286013
 30
0.0
 11
-235.51147379448463
 21
-18.955885461632548
 31
0.0
  0
LINE
  5
F5
330
17
100
AcDbEntity
  8
FoilLayer
100
AcDbLine
 10
-235.51147379448463
 20
-18.955885461632548
 30
0.0
 11
-230.97583327743865
 21
-19.250330058191285
 31
0.0
  0
LINE
  5
F6
330
17
100
AcDbEntity
  8
FoilLayer
100
AcDbLine
 10
-230.97583327743865
 20
-19.250330058191285
 30
0.0
 11
-226.1308713546208
 21
-19.50835306406903
 31
0.0
  0
LINE
  5
F7
330
17
100
AcDbEntity
  8
FoilLayer
100
AcDbLine
 10
-226.1308713546208
 20
-19.50835306406903
 30
0.0
 11
-220.97894030919326
 21
-19.72358491775122
 31
0.0
  0
LINE
  5
F8
330
17
100
AcDbEntity
  8
FoilLayer
100
AcDbLine
 10
-220.97894030919326
 20
-19.72358491775122
 30
0.0
 11
-215.52760178963146
 21
-19.89607680904499
 31
0.0
  0
LINE
  5
F9
330
17
100
AcDbEntity
  8
FoilLayer
100
AcDbLine
 10
-215.52760178963146
 20
-19.89607680904499
 30
0.0
 11
-209.79921123067092
 21
-20.032617260257993
 31
0.0
  0
LINE
  5
FA
330
17
100
AcDbEntity
  8
FoilLayer
100
AcDbLine
 10
-209.79921123067092
 20
-20.032617260257993
 30
0.0
 11
-203.84414330805362
 21
-20.13999228399132
 31
0.0
  0
LINE
  5
FB
330
17
100
AcDbEntity
  8
FoilLayer
100
AcDbLine
 10
-203.84414330805362
 20
-20.13999228399132
 30
0.0
 11
-197.72458754764455
 21
-20.21448323885421
 31
0.0
  0
LINE
  5
FC
330
17
100
AcDbEntity
  8
FoilLayer
100
AcDbLine
 10
-197.72458754764455
 20
-20.21448323885421
 30
0.0
 11
-191.48613021446283
 21
-20.24593034712972
 31
0.0
  0
LINE
  5
FD
330
17
100
AcDbEntity
  8
FoilLayer
100
AcDbLine
 10
-191.48613021446283
 20
-20.24593034712972
 30
0.0
 11
-185.1481822585536
 21
-20.223013229986968
 31
0.0
  0
LINE
  5
FE
330
17
100
AcDbEntity
  8
FoilLayer
100
AcDbLine
 10
-185.1481822585536
 20
-20.223013229986968
 30
0.0
 11
-178.69504025383017
 21
-20.13987725243437
 31
0.0
  0
LINE
  5
FF
330
17
100
AcDbEntity
  8
FoilLayer
100
AcDbLine
 10
-178.69504025383017
 20
-20.13987725243437
 30
0.0
 11
-172.1045297614382
 21
-20.006941680964413
 31
0.0
  0
LINE
  5
100
330
17
100
AcDbEntity
  8
FoilLayer
100
AcDbLine
 10
-172.1045297614382
 20
-20.006941680964413
 30
0.0
 11
-165.39327634861976
 21
-19.840785217739295
 31
0.0
  0
LINE
  5
101
330
17
100
AcDbEntity
  8
FoilLayer
100
AcDbLine
 10
-165.39327634861976
 20
-19.840785217739295
 30
0.0
 11
-158.59094166171178
 21
-19.644057721127496
 31
0.0
  0
LINE
  5
102
330
17
100
AcDbEntity
  8
FoilLayer
100
AcDbLine
 10
-158.59094166171178
 20
-19.644057721127496
 30
0.0
 11
-151.70078452385005
 21
-19.414833704985096
 31
0.0
  0
LINE
  5
103
330
17
100
AcDbEntity
  8
FoilLayer
100
AcDbLine
 10
-151.70078452385005
 20
-19.414833704985096
 30
0.0
 11
-144.72194654139517
 21
-19.16034066761866
 31
0.0
  0
LINE
  5
104
330
17
100
AcDbEntity
  8
FoilLayer
100
AcDbLine
 10
-144.72194654139517
 20
-19.16034066761866
 30
0.0
 11
-137.67702509163374
 21
-18.89160322545397
 31
0.0
  0
LINE
  5
105
330
17
100
AcDbEntity
  8
FoilLayer
100
AcDbLine
 10
-137.67702509163374
 20
-18.89160322545397
 30
0.0
 11
-135.31323189519605
 21
-18.79856387101399
 31
0.0
  0
LINE
  5
106
330
17
100
AcDbEntity
  8
FoilLayer
100
AcDbLine
 10
-135.31323189519605
 20
-18.79856387101399
 30
0.0
 11
-135.25423728813553
 21
-20.297403300818853
 31
0.0
  0
LINE
  5
107
330
17
100
AcDbEntity
  8
FoilLayer
100
AcDbLine
 10
-135.25423728813553
 20
-20.297403300818853
 30
0.0
 11
-130.53921793228398
 21
-20.11181923293104
 31
0.0
  0
LINE
  5
108
330
17
100
AcDbEntity
  8
FoilLayer
100
AcDbLine
 10
-130.53921793228398
 20
-20.11181923293104
 30
0.0
 11
-123.45615453721305
 21
-19.8209070105616
 31
0.0
  0
LINE
  5
109
330
17
100
AcDbEntity
  8
FoilLayer
100
AcDbLine
 10
-123.45615453721305
 20
-19.8209070105616
 30
0.0
 11
-116.37757384907553
 21
-19.508817862334244
 31
0.0
  0
LINE
  5
10A
330
17
100
AcDbEntity
  8
FoilLayer
100
AcDbLine
 10
-116.37757384907553
 20
-19.508817862334244
 30
0.0
 11
-109.28322639862046
 21
-19.17014162470861
 31
0.0
  0
LINE
  5
10B
330
17
100
AcDbEntity
  8
FoilLayer
100
AcDbLine
 10
-109.28322639862046
 20
-19.17014162470861
 30
0.0
 11
-102.15464034176003
 21
-18.810520325376785
 31
0.0
  0
LINE
  5
10C
330
17
100
AcDbEntity
  8
FoilLayer
100
AcDbLine
 10
-102.15464034176003
 20
-18.810520325376785
 30
0.0
 11
-94.99614380932653
 21
-18.438301073801014
 31
0.0
  0
LINE
  5
10D
330
17
100
AcDbEntity
  8
FoilLayer
100
AcDbLine
 10
-94.99614380932653
 20
-18.438301073801014
 30
0.0
 11
-87.82435373219394
 21
-18.05819844106645
 31
0.0
  0
LINE
  5
10E
330
17
100
AcDbEntity
  8
FoilLayer
100
AcDbLine
 10
-87.82435373219394
 20
-18.05819844106645
 30
0.0
 11
-80.65936500351202
 21
-17.66905310641446
 31
0.0
  0
LINE
  5
10F
330
17
100
AcDbEntity
  8
FoilLayer
100
AcDbLine
 10
-80.65936500351202
 20
-17.66905310641446
 30
0.0
 11
-73.50388270505104
 21
-17.26267253648393
 31
0.0
  0
LINE
  5
110
330
17
100
AcDbEntity
  8
FoilLayer
100
AcDbLine
 10
-73.50388270505104
 20
-17.26267253648393
 30
0.0
 11
-66.33580245434612
 21
-16.834187584088568
 31
0.0
  0
LINE
  5
111
330
17
100
AcDbEntity
  8
FoilLayer
100
AcDbLine
 10
-66.33580245434612
 20
-16.834187584088568
 30
0.0
 11
-59.135338510449685
 21
-16.387617227858332
 31
0.0
  0
LINE
  5
112
330
17
100
AcDbEntity
  8
FoilLayer
100
AcDbLine
 10
-59.135338510449685
 20
-16.387617227858332
 30
0.0
 11
-51.90218172115945
 21
-15.933318066570457
 31
0.0
  0
LINE
  5
113
330
17
100
AcDbEntity
  8
FoilLayer
100
AcDbLine
 10
-51.90218172115945
 20
-15.933318066570457
 30
0.0
 11
-44.65263986514705
 21
-15.483347036114862
 31
0.0
  0
LINE
  5
114
330
17
100
AcDbEntity
  8
FoilLayer
100
AcDbLine
 10
-44.65263986514705
 20
-15.483347036114862
 30
0.0
 11
-37.3860173499572
 21
-15.037394984289238
 31
0.0
  0
LINE
  5
115
330
17
100
AcDbEntity
  8
FoilLayer
100
AcDbLine
 10
-37.3860173499572
 20
-15.037394984289238
 30
0.0
 11
-30.112052469962634
 21
-14.585414464518657
 31
0.0
  0
LINE
  5
116
330
17
100
AcDbEntity
  8
FoilLayer
100
AcDbLine
 10
-30.112052469962634
 20
-14.585414464518657
 30
0.0
 11
-22.821084218841293
 21
-14.124236666729491
 31
0.0
  0
LINE
  5
117
330
17
100
AcDbEntity
  8
FoilLayer
100
AcDbLine
 10
-22.821084218841293
 20
-14.124236666729491
 30
0.0
 11
-15.512803444390784
 21
-13.659194466411503
 31
0.0
  0
LINE
  5
118
330
17
100
AcDbEntity
  8
FoilLayer
100
AcDbLine
 10
-15.512803444390784
 20
-13.659194466411503
 30
0.0
 11
-8.198726066147117
 21
-13.195466162953318
 31
0.0
  0
LINE
  5
119
330
17
100
AcDbEntity
  8
FoilLayer
100
AcDbLine
 10
-8.198726066147117
 20
-13.195466162953318
 30
0.0
 11
-0.8826391985884356
 21
-12.735215821771064
 31
0.0
  0
LINE
  5
11A
330
17
100
AcDbEntity
  8
FoilLayer
100
AcDbLine
 10
-0.8826391985884356
 20
-12.735215821771064
 30
0.0
 11
6.435302582184022
 21
-12.278907171168207
 31
0.0
  0
LINE
  5
11B
330
17
100
AcDbEntity
  8
FoilLayer
100
AcDbLine
 10
6.435302582184022
 20
-12.278907171168207
 30
0.0
 11
13.752857922703754
 21
-11.82468529793091
 31
0.0
  0
LINE
  5
11C
330
17
100
AcDbEntity
  8
FoilLayer
100
AcDbLine
 10
13.752857922703754
 20
-11.82468529793091
 30
0.0
 11
21.063766490873775
 21
-11.367758342923443
 31
0.0
  0
LINE
  5
11D
330
17
100
AcDbEntity
  8
FoilLayer
100
AcDbLine
 10
21.063766490873775
 20
-11.367758342923443
 30
0.0
 11
28.373438450234573
 21
-10.903720887262951
 31
0.0
  0
LINE
  5
11E
330
17
100
AcDbEntity
  8
FoilLayer
100
AcDbLine
 10
28.373438450234573
 20
-10.903720887262951
 30
0.0
 11
35.68906158948977
 21
-10.435664452972487
 31
0.0
  0
LINE
  5
11F
330
17
100
AcDbEntity
  8
FoilLayer
100
AcDbLine
 10
35.68906158948977
 20
-10.435664452972487
 30
0.0
 11
43.00422100044159
 21
-9.970235812401617
 31
0.0
  0
LINE
  5
120
330
17
100
AcDbEntity
  8
FoilLayer
100
AcDbLine
 10
43.00422100044159
 20
-9.970235812401617
 30
0.0
 11
50.32038515605086
 21
-9.509444454865331
 31
0.0
  0
LINE
  5
121
330
17
100
AcDbEntity
  8
FoilLayer
100
AcDbLine
 10
50.32038515605086
 20
-9.509444454865331
 30
0.0
 11
57.638713377076215
 21
-9.05220834765556
 31
0.0
  0
LINE
  5
122
330
17
100
AcDbEntity
  8
FoilLayer
100
AcDbLine
 10
57.638713377076215
 20
-9.05220834765556
 30
0.0
 11
64.95541854903956
 21
-8.594122071889446
 31
0.0
  0
LINE
  5
123
330
17
100
AcDbEntity
  8
FoilLayer
100
AcDbLine
 10
64.95541854903956
 20
-8.594122071889446
 30
0.0
 11
72.26825931847401
 21
-8.13139851308875
 31
0.0
  0
LINE
  5
124
330
17
100
AcDbEntity
  8
FoilLayer
100
AcDbLine
 10
72.26825931847401
 20
-8.13139851308875
 30
0.0
 11
79.58179568036365
 21
-7.663651231000591
 31
0.0
  0
LINE
  5
125
330
17
100
AcDbEntity
  8
FoilLayer
100
AcDbLine
 10
79.58179568036365
 20
-7.663651231000591
 30
0.0
 11
86.89425000954526
 21
-7.1935080193445655
 31
0.0
  0
LINE
  5
126
330
17
100
AcDbEntity
  8
FoilLayer
100
AcDbLine
 10
86.89425000954526
 20
-7.1935080193445655
 30
0.0
 11
94.19936197392212
 21
-6.725760737256406
 31
0.0
  0
LINE
  5
127
330
17
100
AcDbEntity
  8
FoilLayer
100
AcDbLine
 10
94.19936197392212
 20
-6.725760737256406
 30
0.0
 11
101.49543123638148
 21
-6.264196499214356
 31
0.0
  0
LINE
  5
128
330
17
100
AcDbEntity
  8
FoilLayer
100
AcDbLine
 10
101.49543123638148
 20
-6.264196499214356
 30
0.0
 11
108.78616762335116
 21
-5.810051914027637
 31
0.0
  0
LINE
  5
129
330
17
100
AcDbEntity
  8
FoilLayer
100
AcDbLine
 10
108.78616762335116
 20
-5.810051914027637
 30
0.0
 11
116.07574468956216
 21
-5.362708677291638
 31
0.0
  0
LINE
  5
12A
330
17
100
AcDbEntity
  8
FoilLayer
100
AcDbLine
 10
116.07574468956216
 20
-5.362708677291638
 30
0.0
 11
123.36400785891323
 21
-4.920389163843103
 31
0.0
  0
LINE
  5
12B
330
17
100
AcDbEntity
  8
FoilLayer
100
AcDbLine
 10
123.36400785891323
 20
-4.920389163843103
 30
0.0
 11
130.64492866345978
 21
-4.483402525884338
 31
0.0
  0
LINE
  5
12C
330
17
100
AcDbEntity
  8
FoilLayer
100
AcDbLine
 10
130.64492866345978
 20
-4.483402525884338
 30
0.0
 11
137.91595659753239
 21
-4.0539128288314785
 31
0.0
  0
LINE
  5
12D
330
17
100
AcDbEntity
  8
FoilLayer
100
AcDbLine
 10
137.91595659753239
 20
-4.0539128288314785
 30
0.0
 11
145.18041504730598
 21
-3.6346251544547012
 31
0.0
  0
LINE
  5
12E
330
17
100
AcDbEntity
  8
FoilLayer
100
AcDbLine
 10
145.18041504730598
 20
-3.6346251544547012
 30
0.0
 11
152.44896976376026
 21
-3.2269306876643777
 31
0.0
  0
LINE
  5
12F
330
17
100
AcDbEntity
  8
FoilLayer
100
AcDbLine
 10
152.44896976376026
 20
-3.2269306876643777
 30
0.0
 11
159.73460513939187
 21
-2.8271968900834197
 31
0.0
  0
LINE
  5
130
330
17
100
AcDbEntity
  8
FoilLayer
100
AcDbLine
 10
159.73460513939187
 20
-2.8271968900834197
 30
0.0
 11
167.03538897293646
 21
-2.4296271579185995
 31
0.0
  0
LINE
  5
131
330
17
100
AcDbEntity
  8
FoilLayer
100
AcDbLine
 10
167.03538897293646
 20
-2.4296271579185995
 30
0.0
 11
174.33926432850404
 21
-2.029584208135336
 31
0.0
  0
LINE
  5
132
330
17
100
AcDbEntity
  8
FoilLayer
100
AcDbLine
 10
174.33926432850404
 20
-2.029584208135336
 30
0.0
 11
181.64514917338664
 21
-1.6240538067611505
 31
0.0
  0
LINE
  5
133
330
17
100
AcDbEntity
  8
FoilLayer
100
AcDbLine
 10
181.64514917338664
 20
-1.6240538067611505
 30
0.0
 11
188.9517296107245
 21
-1.2166684921731326
 31
0.0
  0
LINE
  5
134
330
17
100
AcDbEntity
  8
FoilLayer
100
AcDbLine
 10
188.9517296107245
 20
-1.2166684921731326
 30
0.0
 11
196.25189513986436
 21
-0.8142296128220018
 31
0.0
  0
LINE
  5
135
330
17
100
AcDbEntity
  8
FoilLayer
100
AcDbLine
 10
196.25189513986436
 20
-0.8142296128220018
 30
0.0
 11
203.5498193155376
 21
-0.41882394607332013
 31
0.0
  0
LINE
  5
136
330
17
100
AcDbEntity
  8
FoilLayer
100
AcDbLine
 10
203.5498193155376
 20
-0.41882394607332013
 30
0.0
 11
210.85006213272817
 21
-0.02929217116844221
 31
0.0
  0
LINE
  5
137
330
17
100
AcDbEntity
  8
FoilLayer
100
AcDbLine
 10
210.85006213272817
 20
-0.02929217116844221
 30
0.0
 11
218.14860461280603
 21
0.35962129933182485
 31
0.0
  0
LINE
  5
138
330
17
100
AcDbEntity
  8
FoilLayer
100
AcDbLine
 10
218.14860461280603
 20
0.35962129933182485
 30
0.0
 11
225.43740879851134
 21
0.7522445962597573
 31
0.0
  0
LINE
  5
139
330
17
100
AcDbEntity
  8
FoilLayer
100
AcDbLine
 10
225.43740879851134
 20
0.7522445962597573
 30
0.0
 11
232.71307401561842
 21
1.1433221321761626
 31
0.0
  0
LINE
  5
13A
330
17
100
AcDbEntity
  8
FoilLayer
100
AcDbLine
 10
232.71307401561842
 20
1.1433221321761626
 30
0.0
 11
239.96910806787946
 21
1.5250478139728278
 31
0.0
  0
LINE
  5
13B
330
17
100
AcDbEntity
  8
FoilLayer
100
AcDbLine
 10
239.96910806787946
 20
1.5250478139728278
 30
0.0
 11
247.21432179305953
 21
1.8938663913232396
 31
0.0
  0
LINE
  5
13C
330
17
100
AcDbEntity
  8
FoilLayer
100
AcDbLine
 10
247.21432179305953
 20
1.8938663913232396
 30
0.0
 11
254.46247246416158
 21
2.2502415925308576
 31
0.0
  0
LINE
  5
13D
330
17
100
AcDbEntity
  8
FoilLayer
100
AcDbLine
 10
254.46247246416158
 20
2.2502415925308576
 30
0.0
 11
261.71804278811896
 21
2.6008974779958236
 31
0.0
  0
LINE
  5
13E
330
17
100
AcDbEntity
  8
FoilLayer
100
AcDbLine
 10
261.71804278811896
 20
2.6008974779958236
 30
0.0
 11
268.9630246491473
 21
2.9494665860952285
 31
0.0
  0
LINE
  5
13F
330
17
100
AcDbEntity
  8
FoilLayer
100
AcDbLine
 10
268.9630246491473
 20
2.9494665860952285
 30
0.0
 11
276.1740770559728
 21
3.293784851412933
 31
0.0
  0
LINE
  5
140
330
17
100
AcDbEntity
  8
FoilLayer
100
AcDbLine
 10
276.1740770559728
 20
3.293784851412933
 30
0.0
 11
283.33350104501324
 21
3.6265099091441835
 31
0.0
  0
LINE
  5
141
330
17
100
AcDbEntity
  8
FoilLayer
100
AcDbLine
 10
283.33350104501324
 20
3.6265099091441835
 30
0.0
 11
290.4429969533812
 21
3.9372078724611685
 31
0.0
  0
LINE
  5
142
330
17
100
AcDbEntity
  8
FoilLayer
100
AcDbLine
 10
290.4429969533812
 20
3.9372078724611685
 30
0.0
 11
297.5250556037946
 21
4.22464213255467
 31
0.0
  0
LINE
  5
143
330
17
100
AcDbEntity
  8
FoilLayer
100
AcDbLine
 10
297.5250556037946
 20
4.22464213255467
 30
0.0
 11
304.5756580176235
 21
4.499401152353646
 31
0.0
  0
LINE
  5
144
330
17
100
AcDbEntity
  8
FoilLayer
100
AcDbLine
 10
304.5756580176235
 20
4.499401152353646
 30
0.0
 11
311.5572422022876
 21
4.7576978173798565
 31
0.0
  0
LINE
  5
145
330
17
100
AcDbEntity
  8
FoilLayer
100
AcDbLine
 10
311.5572422022876
 20
4.7576978173798565
 30
0.0
 11
318.46764409237096
 21
4.980055538888059
 31
0.0
  0
LINE
  5
146
330
17
100
AcDbEntity
  8
FoilLayer
100
AcDbLine
 10
318.46764409237096
 20
4.980055538888059
 30
0.0
 11
325.34318907164436
 21
5.160523136983869
 31
0.0
  0
LINE
  5
147
330
17
100
AcDbEntity
  8
FoilLayer
100
AcDbLine
 10
325.34318907164436
 20
5.160523136983869
 30
0.0
 11
332.20714084333144
 21
5.307293145028385
 31
0.0
  0
LINE
  5
148
330
17
100
AcDbEntity
  8
FoilLayer
100
AcDbLine
 10
332.20714084333144
 20
5.307293145028385
 30
0.0
 11
339.0462831507832
 21
5.436286901440338
 31
0.0
  0
LINE
  5
149
330
17
100
AcDbEntity
  8
FoilLayer
100
AcDbLine
 10
339.0462831507832
 20
5.436286901440338
 30
0.0
 11
345.82429061022935
 21
5.569531500633991
 31
0.0
  0
LINE
  5
14A
330
17
100
AcDbEntity
  8
FoilLayer
100
AcDbLine
 10
345.82429061022935
 20
5.569531500633991
 30
0.0
 11
352.4719904164036
 21
5.687473065813524
 31
0.0
  0
LINE
  5
14B
330
17
100
AcDbEntity
  8
FoilLayer
100
AcDbLine
 10
352.4719904164036
 20
5.687473065813524
 30
0.0
 11
358.99085104226697
 21
5.7323774231983915
 31
0.0
  0
LINE
  5
14C
330
17
100
AcDbEntity
  8
FoilLayer
100
AcDbLine
 10
358.99085104226697
 20
5.7323774231983915
 30
0.0
 11
365.49525880267277
 21
5.702389659574762
 31
0.0
  0
LINE
  5
14D
330
17
100
AcDbEntity
  8
FoilLayer
100
AcDbLine
 10
365.49525880267277
 20
5.702389659574762
 30
0.0
 11
372.0025262209498
 21
5.670237830534994
 31
0.0
  0
LINE
  5
14E
330
17
100
AcDbEntity
  8
FoilLayer
100
AcDbLine
 10
372.0025262209498
 20
5.670237830534994
 30
0.0
 11
378.44007981760694
 21
5.6516114103460895
 31
0.0
  0
LINE
  5
14F
330
17
100
AcDbEntity
  8
FoilLayer
100
AcDbLine
 10
378.44007981760694
 20
5.6516114103460895
 30
0.0
 11
384.7899887649105
 21
5.581511148473327
 31
0.0
  0
LINE
  5
150
330
17
100
AcDbEntity
  8
FoilLayer
100
AcDbLine
 10
384.7899887649105
 20
5.581511148473327
 30
0.0
 11
391.11825705805256
 21
5.437446222198984
 31
0.0
  0
LINE
  5
151
330
17
100
AcDbEntity
  8
FoilLayer
100
AcDbLine
 10
391.11825705805256
 20
5.437446222198984
 30
0.0
 11
397.4323043498888
 21
5.294849768885592
 31
0.0
  0
LINE
  5
152
330
17
100
AcDbEntity
  8
FoilLayer
100
AcDbLine
 10
397.4323043498888
 20
5.294849768885592
 30
0.0
 11
403.6750147710429
 21
5.184868872915424
 31
0.0
  0
LINE
  5
153
330
17
100
AcDbEntity
  8
FoilLayer
100
AcDbLine
 10
403.6750147710429
 20
5.184868872915424
 30
0.0
 11
409.82706630887094
 21
5.029365315155778
 31
0.0
  0
LINE
  5
154
330
17
100
AcDbEntity
  8
FoilLayer
100
AcDbLine
 10
409.82706630887094
 20
5.029365315155778
 30
0.0
 11
415.9567043120319
 21
4.765967638791527
 31
0.0
  0
LINE
  5
155
330
17
100
AcDbEntity
  8
FoilLayer
100
AcDbLine
 10
415.9567043120319
 20
4.765967638791527
 30
0.0
 11
422.1316331128304
 21
4.450245952187077
 31
0.0
  0
LINE
  5
156
330
17
100
AcDbEntity
  8
FoilLayer
100
AcDbLine
 10
422.1316331128304
 20
4.450245952187077
 30
0.0
 11
428.2727097474767
 21
4.137383923453954
 31
0.0
  0
LINE
  5
157
330
17
100
AcDbEntity
  8
FoilLayer
100
AcDbLine
 10
428.2727097474767
 20
4.137383923453954
 30
0.0
 11
434.2517906281149
 21
3.8030358166605995
 31
0.0
  0
LINE
  5
158
330
17
100
AcDbEntity
  8
FoilLayer
100
AcDbLine
 10
434.2517906281149
 20
3.8030358166605995
 30
0.0
 11
440.11509400898956
 21
3.3515190251934777
 31
0.0
  0
LINE
  5
159
330
17
100
AcDbEntity
  8
FoilLayer
100
AcDbLine
 10
440.11509400898956
 20
3.3515190251934777
 30
0.0
 11
445.9515011482638
 21
2.8381717932652633
 31
0.0
  0
LINE
  5
15A
330
17
100
AcDbEntity
  8
FoilLayer
100
AcDbLine
 10
445.9515011482638
 20
2.8381717932652633
 30
0.0
 11
451.68086433748965
 21
2.3022564505687506
 31
0.0
  0
LINE
  5
15B
330
17
100
AcDbEntity
  8
FoilLayer
100
AcDbLine
 10
451.68086433748965
 20
2.3022564505687506
 30
0.0
 11
457.2185531612863
 21
1.7742244890310275
 31
0.0
  0
LINE
  5
15C
330
17
100
AcDbEntity
  8
FoilLayer
100
AcDbLine
 10
457.2185531612863
 20
1.7742244890310275
 30
0.0
 11
462.4902165149988
 21
1.2294210205182328
 31
0.0
  0
LINE
  5
15D
330
17
100
AcDbEntity
  8
FoilLayer
100
AcDbLine
 10
462.4902165149988
 20
1.2294210205182328
 30
0.0
 11
467.4815561092712
 21
0.6756521381385799
 31
0.0
  0
LINE
  5
15E
330
17
100
AcDbEntity
  8
FoilLayer
100
AcDbLine
 10
467.4815561092712
 20
0.6756521381385799
 30
0.0
 11
472.16142485972057
 21
0.15867236783327668
 31
0.0
  0
LINE
  5
15F
330
17
100
AcDbEntity
  8
FoilLayer
100
AcDbLine
 10
472.16142485972057
 20
0.15867236783327668
 30
0.0
 11
476.5118146505629
 21
-0.34802809174537014
 31
0.0
  0
LINE
  5
160
330
17
100
AcDbEntity
  8
FoilLayer
100
AcDbLine
 10
476.5118146505629
 20
-0.34802809174537014
 30
0.0
 11
480.51742244778427
 21
-0.8323923047074474
 31
0.0
  0
LINE
  5
161
330
17
100
AcDbEntity
  8
FoilLayer
100
AcDbLine
 10
480.51742244778427
 20
-0.8323923047074474
 30
0.0
 11
482.9971322624764
 21
-1.1581614378868246
 31
0.0
  0
LINE
  5
162
330
17
100
AcDbEntity
  8
FoilLayer
100
AcDbLine
 10
482.9971322624764
 20
-1.1581614378868246
 30
0.0
 11
483.0508474576269
 21
1.1598617749995046
 31
0.0
  0
LINE
  5
163
330
17
100
AcDbEntity
  8
StringerLayer
100
AcDbLine
 10
209.4499803564056
 20
69.14276585324738
 30
0.0
 11
213.36380842730114
 21
68.3169633154274
 31
0.0
  0
LINE
  5
164
330
17
100
AcDbEntity
  8
StringerLayer
100
AcDbLine
 10
213.36380842730114
 20
68.3169633154274
 30
0.0
 11
214.18961096512112
 21
72.23079138632296
 31
0.0
  0
LINE
  5
165
330
17
100
AcDbEntity
  8
StringerLayer
100
AcDbLine
 10
214.18961096512112
 20
72.23079138632296
 30
0.0
 11
210.27578289422559
 21
73.05659392414294
 31
0.0
  0
LINE
  5
166
330
17
100
AcDbEntity
  8
StringerLayer
100
AcDbLine
 10
210.27578289422559
 20
73.05659392414294
 30
0.0
 11
209.4499803564056
 21
69.14276585324738
 31
0.0
  0
LINE
  5
167
330
17
100
AcDbEntity
  8
StringerLayer
100
AcDbLine
 10
-82.55265889505236
 20
84.56332248830427
 30
0.0
 11
-78.57561539573697
 21
84.99125356284003
 31
0.0
  0
LINE
  5
168
330
17
100
AcDbEntity
  8
StringerLayer
100
AcDbLine
 10
-78.57561539573697
 20
84.99125356284003
 30
0.0
 11
-79.00354647027272
 21
88.9682970621554
 31
0.0
  0
LINE
  5
169
330
17
100
AcDbEntity
  8
StringerLayer
100
AcDbLine
 10
-79.00354647027272
 20
88.9682970621554
 30
0.0
 11
-82.98058996958811
 21
88.54036598761964
 31
0.0
  0
LINE
  5
16A
330
17
100
AcDbEntity
  8
StringerLayer
100
AcDbLine
 10
-82.98058996958811
 20
88.54036598761964
 30
0.0
 11
-82.55265889505236
 21
84.56332248830427
 31
0.0
  0
LINE
  5
16B
330
17
100
AcDbEntity
  8
StringerLayer
100
AcDbLine
 10
-212.39916382448516
 20
54.627907496791195
 30
0.0
 11
-208.67456608270388
 21
56.086458716981255
 31
0.0
  0
LINE
  5
16C
330
17
100
AcDbEntity
  8
StringerLayer
100
AcDbLine
 10
-208.67456608270388
 20
56.086458716981255
 30
0.0
 11
-210.13311730289394
 21
59.811056458762515
 31
0.0
  0
LINE
  5
16D
330
17
100
AcDbEntity
  8
StringerLayer
100
AcDbLine
 10
-210.13311730289394
 20
59.811056458762515
 30
0.0
 11
-213.85771504467522
 21
58.352505238572455
 31
0.0
  0
LINE
  5
16E
330
17
100
AcDbEntity
  8
StringerLayer
100
AcDbLine
 10
-213.85771504467522
 20
58.352505238572455
 30
0.0
 11
-212.39916382448516
 21
54.627907496791195
 31
0.0
  0
LINE
  5
16F
330
17
100
AcDbEntity
  8
StringerLayer
100
AcDbLine
 10
-274.9317863645249
 20
16.784853998587508
 30
0.0
 11
-273.55646024499913
 21
18.23691393707154
 31
0.0
  0
LINE
  5
170
330
17
100
AcDbEntity
  8
StringerLayer
100
AcDbLine
 10
-273.55646024499913
 20
18.23691393707154
 30
0.0
 11
-276.4605801219672
 21
20.987566176123032
 31
0.0
  0
LINE
  5
171
330
17
100
AcDbEntity
  8
StringerLayer
100
AcDbLine
 10
-276.4605801219672
 20
20.987566176123032
 30
0.0
 11
-277.835906241493
 21
19.535506237638998
 31
0.0
  0
LINE
  5
172
330
17
100
AcDbEntity
  8
StringerLayer
100
AcDbLine
 10
-277.835906241493
 20
19.535506237638998
 30
0.0
 11
-274.9317863645249
 21
16.784853998587508
 31
0.0
  0
LINE
  5
173
330
17
100
AcDbEntity
  8
StringerLayer
100
AcDbLine
 10
-278.53191394983855
 20
-6.853463225622236
 30
0.0
 11
-280.27466183364345
 21
-5.872224307981097
 31
0.0
  0
LINE
  5
174
330
17
100
AcDbEntity
  8
StringerLayer
100
AcDbLine
 10
-280.27466183364345
 20
-5.872224307981097
 30
0.0
 11
-282.23713966892575
 21
-9.357720075590889
 31
0.0
  0
LINE
  5
175
330
17
100
AcDbEntity
  8
StringerLayer
100
AcDbLine
 10
-282.23713966892575
 20
-9.357720075590889
 30
0.0
 11
-280.49439178512085
 21
-10.338958993232028
 31
0.0
  0
LINE
  5
176
330
17
100
AcDbEntity
  8
StringerLayer
100
AcDbLine
 10
-280.49439178512085
 20
-10.338958993232028
 30
0.0
 11
-278.53191394983855
 21
-6.853463225622236
 31
0.0
  0
LINE
  5
177
330
17
100
AcDbEntity
  8
StringerLayer
100
AcDbLine
 10
-172.00964165386705
 20
-16.004197895435794
 30
0.0
 11
-176.00882799050618
 21
-16.084874068120072
 31
0.0
  0
LINE
  5
178
330
17
100
AcDbEntity
  8
StringerLayer
100
AcDbLine
 10
-176.00882799050618
 20
-16.084874068120072
 30
0.0
 11
-175.92815181782188
 21
-20.08406040475919
 31
0.0
  0
LINE
  5
179
330
17
100
AcDbEntity
  8
StringerLayer
100
AcDbLine
 10
-175.92815181782188
 20
-20.08406040475919
 30
0.0
 11
-171.92896548118276
 21
-20.00338423207491
 31
0.0
  0
LINE
  5
17A
330
17
100
AcDbEntity
  8
StringerLayer
100
AcDbLine
 10
-171.92896548118276
 20
-20.00338423207491
 30
0.0
 11
-172.00964165386705
 21
-16.004197895435794
 31
0.0
  0
LINE
  5
17B
330
17
100
AcDbEntity
  8
SubLayer
100
AcDbLine
 10
-289.83050847457616
 20
0.0
 30
0.0
 11
-285.83050847457616
 21
0.0
 31
0.0
  0
LINE
  5
17C
330
17
100
AcDbEntity
  8
SubLayer
100
AcDbLine
 10
55.96610169491521
 20
0.0
 30
0.0
 11
67.69491525423729
 21
0.0
 31
0.0
  0
LINE
  5
17D
330
17
100
AcDbEntity
  8
SubLayer
100
AcDbLine
 10
-40.0964009006355
 20
38.0494457749615
 30
0.0
 11
-32.11997888282014
 21
38.66319799997605
 31
0.0
  0
LINE
  5
17E
330
17
100
AcDbEntity
  8
SubLayer
100
AcDbLine
 10
32.11997888282014
 20
43.60619335872727
 30
0.0
 11
40.0964009006355
 21
44.21994558374182
 31
0.0
  0
LINE
  5
17F
330
17
100
AcDbEntity
  8
SubLayer
100
AcDbLine
 10
-2.8765400657204374
 20
78.51867015666885
 30
0.0
 11
-2.262787840705888
 21
70.5422481388535
 31
0.0
  0
LINE
  5
180
330
17
100
AcDbEntity
  8
SubLayer
100
AcDbLine
 10
2.8765400657204374
 20
3.7507212020344696
 30
0.0
 11
2.262787840705888
 21
11.727143219849829
 31
0.0
  0
LINE
  5
181
330
17
100
AcDbEntity
  8
SubLayer
100
AcDbLine
 10
-37.94885733992802
 20
36.2087783267613
 30
0.0
 11
-33.96064633102034
 21
36.51565443926857
 31
0.0
  0
LINE
  5
182
330
17
100
AcDbEntity
  8
SubLayer
100
AcDbLine
 10
-33.96064633102034
 20
36.51565443926857
 30
0.0
 11
-34.26752244352762
 21
40.50386544817625
 31
0.0
  0
LINE
  5
183
330
17
100
AcDbEntity
  8
SubLayer
100
AcDbLine
 10
-34.26752244352762
 20
40.50386544817625
 30
0.0
 11
-38.255733452435294
 21
40.196989335668974
 31
0.0
  0
LINE
  5
184
330
17
100
AcDbEntity
  8
SubLayer
100
AcDbLine
 10
-38.255733452435294
 20
40.196989335668974
 30
0.0
 11
-37.94885733992802
 21
36.2087783267613
 31
0.0
  0
LINE
  5
185
330
17
100
AcDbEntity
  8
SubLayer
100
AcDbLine
 10
34.26752244352762
 20
41.76552591052707
 30
0.0
 11
38.255733452435294
 21
42.07240202303434
 31
0.0
  0
LINE
  5
186
330
17
100
AcDbEntity
  8
SubLayer
100
AcDbLine
 10
38.255733452435294
 20
42.07240202303434
 30
0.0
 11
37.94885733992802
 21
46.06061303194202
 31
0.0
  0
LINE
  5
187
330
17
100
AcDbEntity
  8
SubLayer
100
AcDbLine
 10
37.94885733992802
 20
46.06061303194202
 30
0.0
 11
33.96064633102034
 21
45.75373691943474
 31
0.0
  0
LINE
  5
188
330
17
100
AcDbEntity
  8
SubLayer
100
AcDbLine
 10
33.96064633102034
 20
45.75373691943474
 30
0.0
 11
34.26752244352762
 21
41.76552591052707
 31
0.0
  0
LINE
  5
189
330
17
100
AcDbEntity
  8
SubLayer
100
AcDbLine
 10
-4.410331401413366
 20
72.3829155870537
 30
0.0
 11
-0.4221203925056849
 21
72.68979169956097
 31
0.0
  0
LINE
  5
18A
330
17
100
AcDbEntity
  8
SubLayer
100
AcDbLine
 10
-0.4221203925056849
 20
72.68979169956097
 30
0.0
 11
-0.7289965050129597
 21
76.67800270846865
 31
0.0
  0
LINE
  5
18B
330
17
100
AcDbEntity
  8
SubLayer
100
AcDbLine
 10
-0.7289965050129597
 20
76.67800270846865
 30
0.0
 11
-4.717207513920641
 21
76.37112659596139
 31
0.0
  0
LINE
  5
18C
330
17
100
AcDbEntity
  8
SubLayer
100
AcDbLine
 10
-4.717207513920641
 20
76.37112659596139
 30
0.0
 11
-4.410331401413366
 21
72.3829155870537
 31
0.0
  0
LINE
  5
18D
330
17
100
AcDbEntity
  8
SubLayer
100
AcDbLine
 10
0.7289965050129597
 20
5.591388650234672
 30
0.0
 11
4.717207513920641
 21
5.898264762741946
 31
0.0
  0
LINE
  5
18E
330
17
100
AcDbEntity
  8
SubLayer
100
AcDbLine
 10
4.717207513920641
 20
5.898264762741946
 30
0.0
 11
4.410331401413366
 21
9.886475771649627
 31
0.0
  0
LINE
  5
18F
330
17
100
AcDbEntity
  8
SubLayer
100
AcDbLine
 10
4.410331401413366
 20
9.886475771649627
 30
0.0
 11
0.4221203925056849
 21
9.579599659142353
 31
0.0
  0
LINE
  5
190
330
17
100
AcDbEntity
  8
SubLayer
100
AcDbLine
 10
0.4221203925056849
 20
9.579599659142353
 30
0.0
 11
0.7289965050129597
 21
5.591388650234672
 31
0.0
  0
LINE
  5
191
330
17
100
AcDbEntity
  8
SubLayer
100
AcDbLine
 10
328.3633062840248
 20
44.87492520981455
 30
0.0
 11
332.3515172929325
 21
45.18180132232182
 31
0.0
  0
LINE
  5
192
330
17
100
AcDbEntity
  8
SubLayer
100
AcDbLine
 10
-290.0378824623372
 20
-2.708452988706877
 30
0.0
 11
-286.04967145342954
 21
-2.4015768761996026
 31
0.0
  0
LINE
  5
193
330
17
100
AcDbEntity
  8
SubLayer
100
AcDbLine
 10
-167.35469746529174
 20
6.731503622870589
 30
0.0
 11
-161.3723809519302
 21
7.1918177916315
 31
0.0
  0
LINE
  5
194
330
17
100
AcDbEntity
  8
SubLayer
100
AcDbLine
 10
203.6860157825255
 20
35.28153054198344
 30
0.0
 11
209.668332295887
 21
35.74184471074436
 31
0.0
  0
LINE
  5
195
330
17
100
AcDbEntity
  8
SubLayer
100
AcDbLine
 10
18.165659158616876
 20
21.006517082427017
 30
0.0
 11
24.1479756719784
 21
21.466831251187926
 31
0.0
  0
LINE
  5
196
330
17
100
AcDbEntity
  8
SubLayer
100
AcDbLine
 10
-162.2159956479035
 20
5.120993259050842
 30
0.0
 11
-162.52287176041077
 21
9.109204267958523
 31
0.0
  0
LINE
  5
197
330
17
100
AcDbEntity
  8
SubLayer
100
AcDbLine
 10
-162.52287176041077
 20
9.109204267958523
 30
0.0
 11
-166.51108276931845
 21
8.802328155451248
 31
0.0
  0
LINE
  5
198
330
17
100
AcDbEntity
  8
SubLayer
100
AcDbLine
 10
-166.51108276931845
 20
8.802328155451248
 30
0.0
 11
-166.20420665681118
 21
4.814117146543566
 31
0.0
  0
LINE
  5
199
330
17
100
AcDbEntity
  8
SubLayer
100
AcDbLine
 10
-166.20420665681118
 20
4.814117146543566
 30
0.0
 11
-162.2159956479035
 21
5.120993259050842
 31
0.0
  0
LINE
  5
19A
330
17
100
AcDbEntity
  8
SubLayer
100
AcDbLine
 10
208.82471759991373
 20
33.6710201781637
 30
0.0
 11
208.51784148740646
 21
37.65923118707138
 31
0.0
  0
LINE
  5
19B
330
17
100
AcDbEntity
  8
SubLayer
100
AcDbLine
 10
208.51784148740646
 20
37.65923118707138
 30
0.0
 11
204.52963047849877
 21
37.3523550745641
 31
0.0
  0
LINE
  5
19C
330
17
100
AcDbEntity
  8
SubLayer
100
AcDbLine
 10
204.52963047849877
 20
37.3523550745641
 30
0.0
 11
204.83650659100604
 21
33.364144065656426
 31
0.0
  0
LINE
  5
19D
330
17
100
AcDbEntity
  8
SubLayer
100
AcDbLine
 10
204.83650659100604
 20
33.364144065656426
 30
0.0
 11
208.82471759991373
 21
33.6710201781637
 31
0.0
  0
LINE
  5
19E
330
17
100
AcDbEntity
  8
SubLayer
100
AcDbLine
 10
23.304360976005118
 20
19.396006718607268
 30
0.0
 11
22.997484863497842
 21
23.38421772751495
 31
0.0
  0
LINE
  5
19F
330
17
100
AcDbEntity
  8
SubLayer
100
AcDbLine
 10
22.997484863497842
 20
23.38421772751495
 30
0.0
 11
19.00927385459016
 21
23.077341615007676
 31
0.0
  0
LINE
  5
1A0
330
17
100
AcDbEntity
  8
SubLayer
100
AcDbLine
 10
19.00927385459016
 20
23.077341615007676
 30
0.0
 11
19.316149967097434
 21
19.089130606099992
 31
0.0
  0
LINE
  5
1A1
330
17
100
AcDbEntity
  8
SubLayer
100
AcDbLine
 10
19.316149967097434
 20
19.089130606099992
 30
0.0
 11
23.304360976005118
 21
19.396006718607268
 31
0.0
  0
LINE
  5
1A2
330
17
100
AcDbEntity
  8
SubLayer
100
AcDbLine
 10
464.1007106779252
 20
6.412755966689285
 30
0.0
 11
464.44482974669
 21
7.35168198428195
 31
0.0
  0
LINE
  5
1A3
330
17
100
AcDbEntity
  8
SubLayer
100
AcDbLine
 10
463.0558552291045
 20
0.6642854225607748
 30
0.0
 11
463.1140278189778
 21
1.66259196355279
 31
0.0
  0
LINE
  5
1A4
330
17
100
AcDbEntity
  8
SubLayer
100
AcDbLine
 10
444.9205809255034
 20
12.096494186682317
 30
0.0
 11
445.2348606571152
 21
13.045824608768317
 31
0.0
  0
LINE
  5
1A5
330
17
100
AcDbEntity
  8
SubLayer
100
AcDbLine
 10
443.13129942147094
 20
2.5843233227990696
 30
0.0
 11
443.2083703477617
 21
3.581348935469424
 31
0.0
  0
LINE
  5
1A6
330
17
100
AcDbEntity
  8
SubLayer
100
AcDbLine
 10
406.5005520356073
 20
23.244270892556823
 30
0.0
 11
406.7970744758225
 21
24.19929677830486
 31
0.0
  0
LINE
  5
1A7
330
17
100
AcDbEntity
  8
SubLayer
100
AcDbLine
 10
403.1871427663917
 20
4.693946644846096
 30
0.0
 11
403.25205394657024
 21
5.691837690345463
 31
0.0
  0
LINE
  5
1A8
330
17
100
AcDbEntity
  8
SubLayer
100
AcDbLine
 10
-153.4480785426162
 20
80.18405680910871
 30
0.0
 11
-153.14120243010893
 21
76.19584580020103
 31
0.0
  0
LINE
  5
1A9
330
17
100
AcDbEntity
  8
SubLayer
100
AcDbLine
 10
-145.8391821739505
 20
-18.702376596264116
 30
0.0
 11
-145.53230606144322
 21
-22.6905876051718
 31
0.0
  0
LINE
  5
1AA
330
17
100
AcDbEntity
  8
SubLayer
100
AcDbLine
 10
-147.43768047581048
 20
2.0719628370373684
 30
0.0
 11
-146.97736630704955
 21
-3.910353676324153
 31
0.0
  0
LINE
  5
1AB
330
17
100
AcDbEntity
  8
SubLayer
100
AcDbLine
 10
-152.0030182970099
 20
61.40382288026107
 30
0.0
 11
-151.54270412824897
 21
55.42150636689954
 31
0.0
  0
LINE
  5
1AC
330
17
100
AcDbEntity
  8
SubLayer
100
AcDbLine
 10
-149.72034938641016
 20
31.737892858649218
 30
0.0
 11
-149.26003521764923
 21
25.755576345287693
 31
0.0
  0
LINE
  5
1AD
330
17
100
AcDbEntity
  8
SubLayer
100
AcDbLine
 10
-149.04819083963022
 20
-3.0667389803508702
 30
0.0
 11
-145.05997983072254
 21
-2.7598628678435952
 31
0.0
  0
LINE
  5
1AE
330
17
100
AcDbEntity
  8
SubLayer
100
AcDbLine
 10
-145.05997983072254
 20
-2.7598628678435952
 30
0.0
 11
-145.3668559432298
 21
1.2283481410640857
 31
0.0
  0
LINE
  5
1AF
330
17
100
AcDbEntity
  8
SubLayer
100
AcDbLine
 10
-145.3668559432298
 20
1.2283481410640857
 30
0.0
 11
-149.3550669521375
 21
0.921472028556811
 31
0.0
  0
LINE
  5
1B0
330
17
100
AcDbEntity
  8
SubLayer
100
AcDbLine
 10
-149.3550669521375
 20
0.921472028556811
 30
0.0
 11
-149.04819083963022
 21
-3.0667389803508702
 31
0.0
  0
LINE
  5
1B1
330
17
100
AcDbEntity
  8
SubLayer
100
AcDbLine
 10
-153.61352866082964
 20
56.26512106287283
 30
0.0
 11
-149.62531765192196
 21
56.571997175380105
 31
0.0
  0
LINE
  5
1B2
330
17
100
AcDbEntity
  8
SubLayer
100
AcDbLine
 10
-149.62531765192196
 20
56.571997175380105
 30
0.0
 11
-149.93219376442923
 21
60.56020818428778
 31
0.0
  0
LINE
  5
1B3
330
17
100
AcDbEntity
  8
SubLayer
100
AcDbLine
 10
-149.93219376442923
 20
60.56020818428778
 30
0.0
 11
-153.9204047733369
 21
60.253332071780505
 31
0.0
  0
LINE
  5
1B4
330
17
100
AcDbEntity
  8
SubLayer
100
AcDbLine
 10
-153.9204047733369
 20
60.253332071780505
 30
0.0
 11
-153.61352866082964
 21
56.26512106287283
 31
0.0
  0
LINE
  5
1B5
330
17
100
AcDbEntity
  8
SubLayer
100
AcDbLine
 10
-151.3308597502299
 20
26.599191041260976
 30
0.0
 11
-147.34264874132222
 21
26.90606715376825
 31
0.0
  0
LINE
  5
1B6
330
17
100
AcDbEntity
  8
SubLayer
100
AcDbLine
 10
-147.34264874132222
 20
26.90606715376825
 30
0.0
 11
-147.6495248538295
 21
30.894278162675935
 31
0.0
  0
LINE
  5
1B7
330
17
100
AcDbEntity
  8
SubLayer
100
AcDbLine
 10
-147.6495248538295
 20
30.894278162675935
 30
0.0
 11
-151.63773586273717
 21
30.58740205016866
 31
0.0
  0
LINE
  5
1B8
330
17
100
AcDbEntity
  8
SubLayer
100
AcDbLine
 10
-151.63773586273717
 20
30.58740205016866
 30
0.0
 11
-151.3308597502299
 21
26.599191041260976
 31
0.0
  0
LINE
  5
1B9
330
17
100
AcDbEntity
  8
SubLayer
100
AcDbLine
 10
96.29375658045653
 20
93.14324006016761
 30
0.0
 11
96.6006326929638
 21
89.15502905125993
 31
0.0
  0
LINE
  5
1BA
330
17
100
AcDbEntity
  8
SubLayer
100
AcDbLine
 10
103.77762988669555
 20
-4.118373642349639
 30
0.0
 11
104.08450599920282
 21
-8.10658465125732
 31
0.0
  0
LINE
  5
1BB
330
17
100
AcDbEntity
  8
SubLayer
100
AcDbLine
 10
102.20413619732093
 20
16.33100185038073
 30
0.0
 11
102.66445036608184
 21
10.34868533701921
 31
0.0
  0
LINE
  5
1BC
330
17
100
AcDbEntity
  8
SubLayer
100
AcDbLine
 10
97.71381221357753
 20
74.68797007189109
 30
0.0
 11
98.17412638233843
 21
68.70565355852956
 31
0.0
  0
LINE
  5
1BD
330
17
100
AcDbEntity
  8
SubLayer
100
AcDbLine
 10
99.95897420544922
 20
45.50948596113591
 30
0.0
 11
100.41928837421013
 21
39.527169447774384
 31
0.0
  0
LINE
  5
1BE
330
17
100
AcDbEntity
  8
SubLayer
100
AcDbLine
 10
100.59362583350118
 20
11.192300032992494
 30
0.0
 11
104.58183684240886
 21
11.499176145499767
 31
0.0
  0
LINE
  5
1BF
330
17
100
AcDbEntity
  8
SubLayer
100
AcDbLine
 10
104.58183684240886
 20
11.499176145499767
 30
0.0
 11
104.2749607299016
 21
15.487387154407449
 31
0.0
  0
LINE
  5
1C0
330
17
100
AcDbEntity
  8
SubLayer
100
AcDbLine
 10
104.2749607299016
 20
15.487387154407449
 30
0.0
 11
100.28674972099391
 21
15.180511041900175
 31
0.0
  0
LINE
  5
1C1
330
17
100
AcDbEntity
  8
SubLayer
100
AcDbLine
 10
100.28674972099391
 20
15.180511041900175
 30
0.0
 11
100.59362583350118
 21
11.192300032992494
 31
0.0
  0
LINE
  5
1C2
330
17
100
AcDbEntity
  8
SubLayer
100
AcDbLine
 10
96.10330184975777
 20
69.54926825450285
 30
0.0
 11
100.09151285866545
 21
69.85614436701012
 31
0.0
  0
LINE
  5
1C3
330
17
100
AcDbEntity
  8
SubLayer
100
AcDbLine
 10
100.09151285866545
 20
69.85614436701012
 30
0.0
 11
99.78463674615818
 21
73.8443553759178
 31
0.0
  0
LINE
  5
1C4
330
17
100
AcDbEntity
  8
SubLayer
100
AcDbLine
 10
99.78463674615818
 20
73.8443553759178
 30
0.0
 11
95.7964257372505
 21
73.53747926341053
 31
0.0
  0
LINE
  5
1C5
330
17
100
AcDbEntity
  8
SubLayer
100
AcDbLine
 10
95.7964257372505
 20
73.53747926341053
 30
0.0
 11
96.10330184975777
 21
69.54926825450285
 31
0.0
  0
LINE
  5
1C6
330
17
100
AcDbEntity
  8
SubLayer
100
AcDbLine
 10
98.34846384162947
 20
40.37078414374767
 30
0.0
 11
102.33667485053715
 21
40.677660256254946
 31
0.0
  0
LINE
  5
1C7
330
17
100
AcDbEntity
  8
SubLayer
100
AcDbLine
 10
102.33667485053715
 20
40.677660256254946
 30
0.0
 11
102.02979873802988
 21
44.66587126516262
 31
0.0
  0
LINE
  5
1C8
330
17
100
AcDbEntity
  8
SubLayer
100
AcDbLine
 10
102.02979873802988
 20
44.66587126516262
 30
0.0
 11
98.0415877291222
 21
44.358995152655346
 31
0.0
  0
LINE
  5
1C9
330
17
100
AcDbEntity
  8
SubLayer
100
AcDbLine
 10
98.0415877291222
 20
44.358995152655346
 30
0.0
 11
98.34846384162947
 21
40.37078414374767
 31
0.0
  0
ENDSEC
  0
SECTION
  2
OBJECTS
  0
DICTIONARY
  5
A
330
0
100
AcDbDictionary
280
0
281
1
  3
ACAD_COLOR
350
B
  3
ACAD_GROUP
350
C
  3
ACAD_LAYOUT
350
D
  3
ACAD_MATERIAL
350
E
  3
ACAD_MLEADERSTYLE
350
F
  3
ACAD_MLINESTYLE
350
10
  3
ACAD_PLOTSETTINGS
350
11
  3
ACAD_PLOTSTYLENAME
350
12
  3
ACAD_SCALELIST
350
14
  3
ACAD_TABLESTYLE
350
15
  3
ACAD_VISUALSTYLE
350
16
  3
EZDXF_META
350
2D
  0
DICTIONARY
  5
B
330
A
100
AcDbDictionary
280
0
281
1
  0
DICTIONARY
  5
C
330
A
100
AcDbDictionary
280
0
281
1
  0
DICTIONARY
  5
D
330
A
100
AcDbDictionary
280
0
281
1
  3
Model
350
1A
  3
Layout1
350
1E
  0
DICTIONARY
  5
E
330
A
100
AcDbDictionary
280
0
281
1
  3
ByBlock
350
1F
  3
ByLayer
350
20
  3
Global
350
21
  0
DICTIONARY
  5
F
330
A
100
AcDbDictionary
280
0
281
1
  3
Standard
350
2C
  0
DICTIONARY
  5
10
330
A
100
AcDbDictionary
280
0
281
1
  3
Standard
350
22
  0
DICTIONARY
  5
11
330
A
100
AcDbDictionary
280
0
281
1
  0
ACDBDICTIONARYWDFLT
  5
12
330
A
100
AcDbDictionary
280
0
281
1
  3
Normal
350
13
100
AcDbDictionaryWithDefault
340
13
  0
ACDBPLACEHOLDER
  5
13
330
12
  0
DICTIONARY
  5
14
330
A
100
AcDbDictionary
280
0
281
1
  0
DICTIONARY
  5
15
330
A
100
AcDbDictionary
280
0
281
1
  0
DICTIONARY
  5
16
330
A
100
AcDbDictionary
280
0
281
1
  0
LAYOUT
  5
1A
330
D
100
AcDbPlotSettings
  1

  2
Adobe PDF
  4
A3
  6

 40
7.5
 41
20.0
 42
7.5
 43
20.0
 44
420.0
 45
297.0
 46
0.0
 47
0.0
 48
0.0
 49
0.0
140
0.0
141
0.0
142
1.0
143
1.0
 70
1024
 72
1
 73
0
 74
5
  7

 75
16
 76
0
 77
2
 78
300
147
1.0
148
0.0
149
0.0
100
AcDbLayout
  1
Model
 70
1
 71
0
 10
0.0
 20
0.0
 11
420.0
 21
297.0
 12
0.0
 22
0.0
 32
0.0
 14
1e+20
 24
1e+20
 34
1e+20
 15
-1e+20
 25
-1e+20
 35
-1e+20
146
0.0
 13
0.0
 23
0.0
 33
0.0
 16
1.0
 26
0.0
 36
0.0
 17
0.0
 27
1.0
 37
0.0
 76
1
330
17
  0
LAYOUT
  5
1E
330
D
100
AcDbPlotSettings
  1

  2
Adobe PDF
  4
A3
  6

 40
7.5
 41
20.0
 42
7.5
 43
20.0
 44
420.0
 45
297.0
 46
0.0
 47
0.0
 48
0.0
 49
0.0
140
0.0
141
0.0
142
1.0
143
1.0
 70
0
 72
1
 73
0
 74
5
  7

 75
16
 76
0
 77
2
 78
300
147
1.0
148
0.0
149
0.0
100
AcDbLayout
  1
Layout1
 70
1
 71
1
 10
0.0
 20
0.0
 11
420.0
 21
297.0
 12
0.0
 22
0.0
 32
0.0
 14
1e+20
 24
1e+20
 34
1e+20
 15
-1e+20
 25
-1e+20
 35
-1e+20
146
0.0
 13
0.0
 23
0.0
 33
0.0
 16
1.0
 26
0.0
 36
0.0
 17
0.0
 27
1.0
 37
0.0
 76
1
330
1B
  0
MATERIAL
  5
1F
102
{ACAD_REACTORS
330
E
102
}
330
E
100
AcDbMaterial
  1
ByBlock
  2

 70
0
 40
1.0
 71
1
 41
1.0
 91
-1023410177
 42
1.0
 72
1
  3

 73
1
 74
1
 75
1
 44
0.5
 73
0
 45
1.0
 46
1.0
 77
1
  4

 78
1
 79
1
170
1
 48
1.0
171
1
  6

172
1
173
1
174
1
140
1.0
141
1.0
175
1
  7

176
1
177
1
178
1
143
1.0
179
1
  8

270
1
271
1
272
1
145
1.0
146
1.0
273
1
  9

274
1
275
1
276
1
 42
1.0
 72
1
  3

 73
1
 74
1
 75
1
 94
63
  0
MATERIAL
  5
20
102
{ACAD_REACTORS
330
E
102
}
330
E
100
AcDbMaterial
  1
ByLayer
  2

 70
0
 40
1.0
 71
1
 41
1.0
 91
-1023410177
 42
1.0
 72
1
  3

 73
1
 74
1
 75
1
 44
0.5
 73
0
 45
1.0
 46
1.0
 77
1
  4

 78
1
 79
1
170
1
 48
1.0
171
1
  6

172
1
173
1
174
1
140
1.0
141
1.0
175
1
  7

176
1
177
1
178
1
143
1.0
179
1
  8

270
1
271
1
272
1
145
1.0
146
1.0
273
1
  9

274
1
275
1
276
1
 42
1.0
 72
1
  3

 73
1
 74
1
 75
1
 94
63
  0
MATERIAL
  5
21
102
{ACAD_REACTORS
330
E
102
}
330
E
100
AcDbMaterial
  1
Global
  2

 70
0
 40
1.0
 71
1
 41
1.0
 91
-1023410177
 42
1.0
 72
1
  3

 73
1
 74
1
 75
1
 44
0.5
 73
0
 45
1.0
 46
1.0
 77
1
  4

 78
1
 79
1
170
1
 48
1.0
171
1
  6

172
1
173
1
174
1
140
1.0
141
1.0
175
1
  7

176
1
177
1
178
1
143
1.0
179
1
  8

270
1
271
1
272
1
145
1.0
146
1.0
273
1
  9

274
1
275
1
276
1
 42
1.0
 72
1
  3

 73
1
 74
1
 75
1
 94
63
  0
MLINESTYLE
  5
22
102
{ACAD_REACTORS
330
10
102
}
330
10
100
AcDbMlineStyle
  2
Standard
 70
0
  3

 62
256
 51
90.0
 52
90.0
 71
2
 49
0.5
 62
256
  6
BYLAYER
 49
-0.5
 62
256
  6
BYLAYER
  0
MLEADERSTYLE
  5
2C
102
{ACAD_REACTORS
330
F
102
}
330
F
100
AcDbMLeaderStyle
179
2
170
2
171
1
172
0
 90
2
 40
0.0
 41
0.0
173
1
 91
-1056964608
 92
-2
290
1
 42
2.0
291
1
 43
8.0
  3
Standard
 44
4.0
300

342
29
174
1
175
1
176
0
178
1
 93
-1056964608
 45
4.0
292
0
297
0
 46
4.0
 94
-1056964608
 47
1.0
 49
1.0
140
1.0
294
1
141
0.0
177
0
142
1.0
295
0
296
0
143
3.75
271
0
272
9
273
9
  0
DICTIONARY
  5
2D
330
A
100
AcDbDictionary
281
1
  3
CREATED_BY_EZDXF
350
2E
  3
WRITTEN_BY_EZDXF
350
1CC
  0
DICTIONARYVAR
  5
2E
330
2D
100
DictionaryVariables
280
0
  1
1.0.2 @ 2024-03-22T07:41:34.265008+00:00
  0
DICTIONARYVAR
  5
1CC
330
2D
100
DictionaryVariables
280
0
  1
1.0.2 @ 2024-03-22T07:41:34.274989+00:00
  0
ENDSEC
  0
EOF
