  0
SECTION
  2
HEADER
  9
$ACADVER
  1
AC1027
  9
$ACADMAINTVER
 70
105
  9
$DWGCODEPAGE
  3
ANSI_1252
  9
$LASTSAVEDBY
  1
ezdxf
  9
$REQUIREDVERSIONS
160
0
  9
$INSBASE
 10
0.0
 20
0.0
 30
0.0
  9
$EXTMIN
 10
1e+20
 20
1e+20
 30
1e+20
  9
$EXTMAX
 10
-1e+20
 20
-1e+20
 30
-1e+20
  9
$LIMMIN
 10
0.0
 20
0.0
  9
$LIMMAX
 10
420.0
 20
297.0
  9
$ORTHOMODE
 70
0
  9
$REGENMODE
 70
1
  9
$FILLMODE
 70
1
  9
$QTEXTMODE
 70
0
  9
$MIRRTEXT
 70
1
  9
$LTSCALE
 40
1.0
  9
$ATTMODE
 70
1
  9
$TEXTSIZE
 40
2.5
  9
$TRACEWID
 40
1.0
  9
$TEXTSTYLE
  7
Standard
  9
$CLAYER
  8
0
  9
$CELTYPE
  6
ByLayer
  9
$CECOLOR
 62
256
  9
$CELTSCALE
 40
1.0
  9
$DISPSILH
 70
0
  9
$DIMSCALE
 40
1.0
  9
$DIMASZ
 40
2.5
  9
$DIMEXO
 40
0.625
  9
$DIMDLI
 40
3.75
  9
$DIMRND
 40
0.0
  9
$DIMDLE
 40
0.0
  9
$DIMEXE
 40
1.25
  9
$DIMTP
 40
0.0
  9
$DIMTM
 40
0.0
  9
$DIMTXT
 40
2.5
  9
$DIMCEN
 40
2.5
  9
$DIMTSZ
 40
0.0
  9
$DIMTOL
 70
0
  9
$DIMLIM
 70
0
  9
$DIMTIH
 70
0
  9
$DIMTOH
 70
0
  9
$DIMSE1
 70
0
  9
$DIMSE2
 70
0
  9
$DIMTAD
 70
1
  9
$DIMZIN
 70
8
  9
$DIMBLK
  1

  9
$DIMASO
 70
1
  9
$DIMSHO
 70
1
  9
$DIMPOST
  1

  9
$DIMAPOST
  1

  9
$DIMALT
 70
0
  9
$DIMALTD
 70
3
  9
$DIMALTF
 40
0.03937007874
  9
$DIMLFAC
 40
1.0
  9
$DIMTOFL
 70
1
  9
$DIMTVP
 40
0.0
  9
$DIMTIX
 70
0
  9
$DIMSOXD
 70
0
  9
$DIMSAH
 70
0
  9
$DIMBLK1
  1

  9
$DIMBLK2
  1

  9
$DIMSTYLE
  2
ISO-25
  9
$DIMCLRD
 70
0
  9
$DIMCLRE
 70
0
  9
$DIMCLRT
 70
0
  9
$DIMTFAC
 40
1.0
  9
$DIMGAP
 40
0.625
  9
$DIMJUST
 70
0
  9
$DIMSD1
 70
0
  9
$DIMSD2
 70
0
  9
$DIMTOLJ
 70
0
  9
$DIMTZIN
 70
8
  9
$DIMALTZ
 70
0
  9
$DIMALTTZ
 70
0
  9
$DIMUPT
 70
0
  9
$DIMDEC
 70
2
  9
$DIMTDEC
 70
2
  9
$DIMALTU
 70
2
  9
$DIMALTTD
 70
3
  9
$DIMTXSTY
  7
Standard
  9
$DIMAUNIT
 70
0
  9
$DIMADEC
 70
0
  9
$DIMALTRND
 40
0.0
  9
$DIMAZIN
 70
0
  9
$DIMDSEP
 70
44
  9
$DIMATFIT
 70
3
  9
$DIMFRAC
 70
0
  9
$DIMLDRBLK
  1

  9
$DIMLUNIT
 70
2
  9
$DIMLWD
 70
-2
  9
$DIMLWE
 70
-2
  9
$DIMTMOVE
 70
0
  9
$DIMFXL
 40
1.0
  9
$DIMFXLON
 70
0
  9
$DIMJOGANG
 40
0.785398163397
  9
$DIMTFILL
 70
0
  9
$DIMTFILLCLR
 70
0
  9
$DIMARCSYM
 70
0
  9
$DIMLTYPE
  6

  9
$DIMLTEX1
  6

  9
$DIMLTEX2
  6

  9
$DIMTXTDIRECTION
 70
0
  9
$LUNITS
 70
2
  9
$LUPREC
 70
4
  9
$SKETCHINC
 40
1.0
  9
$FILLETRAD
 40
10.0
  9
$AUNITS
 70
0
  9
$AUPREC
 70
2
  9
$MENU
  1
.
  9
$ELEVATION
 40
0.0
  9
$PELEVATION
 40
0.0
  9
$THICKNESS
 40
0.0
  9
$LIMCHECK
 70
0
  9
$CHAMFERA
 40
0.0
  9
$CHAMFERB
 40
0.0
  9
$CHAMFERC
 40
0.0
  9
$CHAMFERD
 40
0.0
  9
$SKPOLY
 70
0
  9
$TDCREATE
 40
2460392.6955324076
  9
$TDUCREATE
 40
2458532.153996898
  9
$TDUPDATE
 40
2460392.6955324076
  9
$TDUUPDATE
 40
2458532.1544311
  9
$TDINDWG
 40
0.0
  9
$TDUSRTIMER
 40
0.0
  9
$USRTIMER
 70
1
  9
$ANGBASE
 50
0.0
  9
$ANGDIR
 70
0
  9
$PDMODE
 70
0
  9
$PDSIZE
 40
0.0
  9
$PLINEWID
 40
0.0
  9
$SPLFRAME
 70
0
  9
$SPLINETYPE
 70
6
  9
$SPLINESEGS
 70
8
  9
$HANDSEED
  5
1CC
  9
$SURFTAB1
 70
6
  9
$SURFTAB2
 70
6
  9
$SURFTYPE
 70
6
  9
$SURFU
 70
6
  9
$SURFV
 70
6
  9
$UCSBASE
  2

  9
$UCSNAME
  2

  9
$UCSORG
 10
0.0
 20
0.0
 30
0.0
  9
$UCSXDIR
 10
1.0
 20
0.0
 30
0.0
  9
$UCSYDIR
 10
0.0
 20
1.0
 30
0.0
  9
$UCSORTHOREF
  2

  9
$UCSORTHOVIEW
 70
0
  9
$UCSORGTOP
 10
0.0
 20
0.0
 30
0.0
  9
$UCSORGBOTTOM
 10
0.0
 20
0.0
 30
0.0
  9
$UCSORGLEFT
 10
0.0
 20
0.0
 30
0.0
  9
$UCSORGRIGHT
 10
0.0
 20
0.0
 30
0.0
  9
$UCSORGFRONT
 10
0.0
 20
0.0
 30
0.0
  9
$UCSORGBACK
 10
0.0
 20
0.0
 30
0.0
  9
$PUCSBASE
  2

  9
$PUCSNAME
  2

  9
$PUCSORG
 10
0.0
 20
0.0
 30
0.0
  9
$PUCSXDIR
 10
1.0
 20
0.0
 30
0.0
  9
$PUCSYDIR
 10
0.0
 20
1.0
 30
0.0
  9
$PUCSORTHOREF
  2

  9
$PUCSORTHOVIEW
 70
0
  9
$PUCSORGTOP
 10
0.0
 20
0.0
 30
0.0
  9
$PUCSORGBOTTOM
 10
0.0
 20
0.0
 30
0.0
  9
$PUCSORGLEFT
 10
0.0
 20
0.0
 30
0.0
  9
$PUCSORGRIGHT
 10
0.0
 20
0.0
 30
0.0
  9
$PUCSORGFRONT
 10
0.0
 20
0.0
 30
0.0
  9
$PUCSORGBACK
 10
0.0
 20
0.0
 30
0.0
  9
$USERI1
 70
0
  9
$USERI2
 70
0
  9
$USERI3
 70
0
  9
$USERI4
 70
0
  9
$USERI5
 70
0
  9
$USERR1
 40
0.0
  9
$USERR2
 40
0.0
  9
$USERR3
 40
0.0
  9
$USERR4
 40
0.0
  9
$USERR5
 40
0.0
  9
$WORLDVIEW
 70
1
  9
$SHADEDGE
 70
3
  9
$SHADEDIF
 70
70
  9
$TILEMODE
 70
1
  9
$MAXACTVP
 70
64
  9
$PINSBASE
 10
0.0
 20
0.0
 30
0.0
  9
$PLIMCHECK
 70
0
  9
$PEXTMIN
 10
1e+20
 20
1e+20
 30
1e+20
  9
$PEXTMAX
 10
-1e+20
 20
-1e+20
 30
-1e+20
  9
$PLIMMIN
 10
0.0
 20
0.0
  9
$PLIMMAX
 10
420.0
 20
297.0
  9
$UNITMODE
 70
0
  9
$VISRETAIN
 70
1
  9
$PLINEGEN
 70
0
  9
$PSLTSCALE
 70
1
  9
$TREEDEPTH
 70
3020
  9
$CMLSTYLE
  2
Standard
  9
$CMLJUST
 70
0
  9
$CMLSCALE
 40
20.0
  9
$PROXYGRAPHICS
 70
1
  9
$MEASUREMENT
 70
1
  9
$CELWEIGHT
370
-1
  9
$ENDCAPS
280
0
  9
$JOINSTYLE
280
0
  9
$LWDISPLAY
290
0
  9
$INSUNITS
 70
6
  9
$HYPERLINKBASE
  1

  9
$STYLESHEET
  1

  9
$XEDIT
290
1
  9
$CEPSNTYPE
380
0
  9
$PSTYLEMODE
290
1
  9
$FINGERPRINTGUID
  2
{B6EF0559-E3E5-4EAA-B2E9-70D6ACD1C5A2}
  9
$VERSIONGUID
  2
{DDDE64B5-EEB1-457A-9F0E-ED7B01AECD2C}
  9
$EXTNAMES
290
1
  9
$PSVPSCALE
 40
0.0
  9
$OLESTARTUP
290
0
  9
$SORTENTS
280
127
  9
$INDEXCTL
280
0
  9
$HIDETEXT
280
1
  9
$XCLIPFRAME
280
0
  9
$HALOGAP
280
0
  9
$OBSCOLOR
 70
257
  9
$OBSLTYPE
280
0
  9
$INTERSECTIONDISPLAY
280
0
  9
$INTERSECTIONCOLOR
 70
257
  9
$DIMASSOC
280
2
  9
$PROJECTNAME
  1

  9
$CAMERADISPLAY
290
0
  9
$LENSLENGTH
 40
50.0
  9
$CAMERAHEIGHT
 40
0.0
  9
$STEPSPERSEC
 40
24.0
  9
$STEPSIZE
 40
100.0
  9
$3DDWFPREC
 40
2.0
  9
$PSOLWIDTH
 40
0.005
  9
$PSOLHEIGHT
 40
0.08
  9
$LOFTANG1
 40
1.570796326795
  9
$LOFTANG2
 40
1.570796326795
  9
$LOFTMAG1
 40
0.0
  9
$LOFTMAG2
 40
0.0
  9
$LOFTPARAM
 70
7
  9
$LOFTNORMALS
280
1
  9
$LATITUDE
 40
37.795
  9
$LONGITUDE
 40
-122.394
  9
$NORTHDIRECTION
 40
0.0
  9
$TIMEZONE
 70
-8000
  9
$LIGHTGLYPHDISPLAY
280
1
  9
$TILEMODELIGHTSYNCH
280
1
  9
$CMATERIAL
347
20
  9
$SOLIDHIST
280
0
  9
$SHOWHIST
280
1
  9
$DWFFRAME
280
2
  9
$DGNFRAME
280
2
  9
$REALWORLDSCALE
290
1
  9
$INTERFERECOLOR
 62
256
  9
$CSHADOW
280
0
  9
$SHADOWPLANELOCATION
 40
0.0
  0
ENDSEC
  0
SECTION
  2
CLASSES
  0
CLASS
  1
ACDBDICTIONARYWDFLT
  2
AcDbDictionaryWithDefault
  3
ObjectDBX Classes
 90
0
 91
0
280
0
281
0
  0
CLASS
  1
SUN
  2
AcDbSun
  3
SCENEOE
 90
1153
 91
0
280
0
281
0
  0
CLASS
  1
VISUALSTYLE
  2
AcDbVisualStyle
  3
ObjectDBX Classes
 90
4095
 91
0
280
0
281
0
  0
CLASS
  1
MATERIAL
  2
AcDbMaterial
  3
ObjectDBX Classes
 90
1153
 91
0
280
0
281
0
  0
CLASS
  1
SCALE
  2
AcDbScale
  3
ObjectDBX Classes
 90
1153
 91
0
280
0
281
0
  0
CLASS
  1
TABLESTYLE
  2
AcDbTableStyle
  3
ObjectDBX Classes
 90
4095
 91
0
280
0
281
0
  0
CLASS
  1
MLEADERSTYLE
  2
AcDbMLeaderStyle
  3
ACDB_MLEADERSTYLE_CLASS
 90
4095
 91
0
280
0
281
0
  0
CLASS
  1
DICTIONARYVAR
  2
AcDbDictionaryVar
  3
ObjectDBX Classes
 90
0
 91
0
280
0
281
0
  0
CLASS
  1
CELLSTYLEMAP
  2
AcDbCellStyleMap
  3
ObjectDBX Classes
 90
1152
 91
0
280
0
281
0
  0
CLASS
  1
MENTALRAYRENDERSETTINGS
  2
AcDbMentalRayRenderSettings
  3
SCENEOE
 90
1024
 91
0
280
0
281
0
  0
CLASS
  1
ACDBDETAILVIEWSTYLE
  2
AcDbDetailViewStyle
  3
ObjectDBX Classes
 90
1025
 91
0
280
0
281
0
  0
CLASS
  1
ACDBSECTIONVIEWSTYLE
  2
AcDbSectionViewStyle
  3
ObjectDBX Classes
 90
1025
 91
0
280
0
281
0
  0
CLASS
  1
RASTERVARIABLES
  2
AcDbRasterVariables
  3
ISM
 90
0
 91
0
280
0
281
0
  0
CLASS
  1
LAYOUT
  2
AcDbLayout
  3
ObjectDBX Classes
 90
0
 91
0
280
0
281
0
  0
CLASS
  1
ACDBPLACEHOLDER
  2
AcDbPlaceHolder
  3
ObjectDBX Classes
 90
0
 91
0
280
0
281
0
  0
ENDSEC
  0
SECTION
  2
TABLES
  0
TABLE
  2
VPORT
  5
8
330
0
100
AcDbSymbolTable
 70
1
  0
VPORT
  5
23
330
8
100
AcDbSymbolTableRecord
100
AcDbViewportTableRecord
  2
*Active
 70
0
 10
0.0
 20
0.0
 11
1.0
 21
1.0
 12
0.0
 22
0.0
 13
0.0
 23
0.0
 14
0.5
 24
0.5
 15
0.5
 25
0.5
 16
0.0
 26
0.0
 36
1.0
 17
0.0
 27
0.0
 37
0.0
 40
1000.0
 41
1.34
 42
50.0
 43
0.0
 44
0.0
 50
0.0
 51
0.0
 71
0
 72
1000
 73
1
 74
3
 75
0
 76
0
 77
0
 78
0
281
0
 65
0
146
0.0
  0
ENDTAB
  0
TABLE
  2
LTYPE
  5
2
330
0
100
AcDbSymbolTable
 70
3
  0
LTYPE
  5
24
330
2
100
AcDbSymbolTableRecord
100
AcDbLinetypeTableRecord
  2
ByBlock
 70
0
  3

 72
65
 73
0
 40
0.0
  0
LTYPE
  5
25
330
2
100
AcDbSymbolTableRecord
100
AcDbLinetypeTableRecord
  2
ByLayer
 70
0
  3

 72
65
 73
0
 40
0.0
  0
LTYPE
  5
26
330
2
100
AcDbSymbolTableRecord
100
AcDbLinetypeTableRecord
  2
Continuous
 70
0
  3

 72
65
 73
0
 40
0.0
  0
ENDTAB
  0
TABLE
  2
LAYER
  5
1
330
0
100
AcDbSymbolTable
 70
5
  0
LAYER
  5
27
330
1
100
AcDbSymbolTableRecord
100
AcDbLayerTableRecord
  2
0
 70
0
 62
7
  6
Continuous
370
-3
390
13
347
21
  0
LAYER
  5
28
330
1
100
AcDbSymbolTableRecord
100
AcDbLayerTableRecord
  2
Defpoints
 70
0
 62
7
  6
Continuous
290
0
370
-3
390
13
347
21
  0
LAYER
  5
30
330
1
100
AcDbSymbolTableRecord
100
AcDbLayerTableRecord
  2
FoilLayer
 70
0
 62
1
  6
Continuous
370
50
390
13
347
21
  0
LAYER
  5
31
330
1
100
AcDbSymbolTableRecord
100
AcDbLayerTableRecord
  2
StringerLayer
 70
0
 62
1
  6
Continuous
370
50
390
13
347
21
  0
LAYER
  5
32
330
1
100
AcDbSymbolTableRecord
100
AcDbLayerTableRecord
  2
SubLayer
 70
0
 62
1
  6
Continuous
370
50
390
13
347
21
  0
ENDTAB
  0
TABLE
  2
STYLE
  5
5
330
0
100
AcDbSymbolTable
 70
2
  0
STYLE
  5
29
330
5
100
AcDbSymbolTableRecord
100
AcDbTextStyleTableRecord
  2
Standard
 70
0
 40
0.0
 41
1.0
 50
0.0
 71
0
 42
2.5
  3
txt
  4

  0
STYLE
  5
2F
330
5
100
AcDbSymbolTableRecord
100
AcDbTextStyleTableRecord
  2
MSゴシック
 70
0
 40
0.0
 41
1.0
 50
0.0
 71
0
 42
2.5
  3
romans
  4

  0
ENDTAB
  0
TABLE
  2
VIEW
  5
7
330
0
100
AcDbSymbolTable
 70
0
  0
ENDTAB
  0
TABLE
  2
UCS
  5
6
330
0
100
AcDbSymbolTable
 70
0
  0
ENDTAB
  0
TABLE
  2
APPID
  5
3
330
0
100
AcDbSymbolTable
 70
3
  0
APPID
  5
2A
330
3
100
AcDbSymbolTableRecord
100
AcDbRegAppTableRecord
  2
ACAD
 70
0
  0
APPID
  5
1C9
330
3
100
AcDbSymbolTableRecord
100
AcDbRegAppTableRecord
  2
HATCHBACKGROUNDCOLOR
 70
0
  0
APPID
  5
1CA
330
3
100
AcDbSymbolTableRecord
100
AcDbRegAppTableRecord
  2
EZDXF
 70
0
  0
ENDTAB
  0
TABLE
  2
DIMSTYLE
  5
4
330
0
100
AcDbSymbolTable
 70
1
100
AcDbDimStyleTable
  0
DIMSTYLE
105
2B
330
4
100
AcDbSymbolTableRecord
100
AcDbDimStyleTableRecord
  2
Standard
 70
0
 40
1.0
 41
2.5
 42
0.625
 43
3.75
 44
1.25
 45
0.0
 46
0.0
 47
0.0
 48
0.0
 49
2.5
140
2.5
141
2.5
142
0.0
143
0.03937007874
144
1.0
145
0.0
146
1.0
147
0.625
148
0.0
 69
0
 70
0
 71
0
 72
0
 73
0
 74
0
 75
0
 76
0
 77
1
 78
8
 79
3
170
0
171
3
172
1
173
0
174
0
175
0
176
0
177
0
178
0
179
2
271
2
272
2
273
2
274
3
275
0
276
0
277
2
278
44
279
0
280
0
281
0
282
0
283
0
284
8
285
0
286
0
288
0
289
3
290
0
371
-2
372
-2
  0
ENDTAB
  0
TABLE
  2
BLOCK_RECORD
  5
9
330
0
100
AcDbSymbolTable
 70
2
  0
BLOCK_RECORD
  5
17
330
9
100
AcDbSymbolTableRecord
100
AcDbBlockTableRecord
  2
*Model_Space
340
1A
 70
0
280
1
281
0
  0
BLOCK_RECORD
  5
1B
330
9
100
AcDbSymbolTableRecord
100
AcDbBlockTableRecord
  2
*Paper_Space
340
1E
 70
0
280
1
281
0
  0
ENDTAB
  0
ENDSEC
  0
SECTION
  2
BLOCKS
  0
BLOCK
  5
18
330
17
100
AcDbEntity
  8
0
100
AcDbBlockBegin
  2
*Model_Space
 70
0
 10
0.0
 20
0.0
 30
0.0
  3
*Model_Space
  1

  0
ENDBLK
  5
19
330
17
100
AcDbEntity
  8
0
100
AcDbBlockEnd
  0
BLOCK
  5
1C
330
1B
100
AcDbEntity
  8
0
100
AcDbBlockBegin
  2
*Paper_Space
 70
0
 10
0.0
 20
0.0
 30
0.0
  3
*Paper_Space
  1

  0
ENDBLK
  5
1D
330
1B
100
AcDbEntity
  8
0
100
AcDbBlockEnd
  0
ENDSEC
  0
SECTION
  2
ENTITIES
  0
LINE
  5
33
330
17
100
AcDbEntity
  8
FoilLayer
100
AcDbLine
 10
462.3628341793885
 20
0.6819312704449985
 30
0.0
 11
460.1020193422014
 21
1.4055558683270566
 31
0.0
  0
LINE
  5
34
330
17
100
AcDbEntity
  8
FoilLayer
100
AcDbLine
 10
460.1020193422014
 20
1.4055558683270566
 30
0.0
 11
456.46283658725713
 21
2.503314101929642
 31
0.0
  0
LINE
  5
35
330
17
100
AcDbEntity
  8
FoilLayer
100
AcDbLine
 10
456.46283658725713
 20
2.503314101929642
 30
0.0
 11
452.5266292035391
 21
3.7211530949623257
 31
0.0
  0
LINE
  5
36
330
17
100
AcDbEntity
  8
FoilLayer
100
AcDbLine
 10
452.5266292035391
 20
3.7211530949623257
 30
0.0
 11
448.22816236152516
 21
5.022815964987725
 31
0.0
  0
LINE
  5
37
330
17
100
AcDbEntity
  8
FoilLayer
100
AcDbLine
 10
448.22816236152516
 20
5.022815964987725
 30
0.0
 11
443.5407083504249
 21
6.410219479939832
 31
0.0
  0
LINE
  5
38
330
17
100
AcDbEntity
  8
FoilLayer
100
AcDbLine
 10
443.5407083504249
 20
6.410219479939832
 30
0.0
 11
438.49814913581906
 21
7.901828293317821
 31
0.0
  0
LINE
  5
39
330
17
100
AcDbEntity
  8
FoilLayer
100
AcDbLine
 10
438.49814913581906
 20
7.901828293317821
 30
0.0
 11
433.16088669681824
 21
9.490340305316868
 31
0.0
  0
LINE
  5
3A
330
17
100
AcDbEntity
  8
FoilLayer
100
AcDbLine
 10
433.16088669681824
 20
9.490340305316868
 30
0.0
 11
427.5764461667022
 21
11.143295674851236
 31
0.0
  0
LINE
  5
3B
330
17
100
AcDbEntity
  8
FoilLayer
100
AcDbLine
 10
427.5764461667022
 20
11.143295674851236
 30
0.0
 11
421.8319201223377
 21
12.84095480444356
 31
0.0
  0
LINE
  5
3C
330
17
100
AcDbEntity
  8
FoilLayer
100
AcDbLine
 10
421.8319201223377
 20
12.84095480444356
 30
0.0
 11
416.03394759079106
 21
14.533707280008299
 31
0.0
  0
LINE
  5
3D
330
17
100
AcDbEntity
  8
FoilLayer
100
AcDbLine
 10
416.03394759079106
 20
14.533707280008299
 30
0.0
 11
410.18832410533037
 21
16.199263757538994
 31
0.0
  0
LINE
  5
3E
330
17
100
AcDbEntity
  8
FoilLayer
100
AcDbLine
 10
410.18832410533037
 20
16.199263757538994
 30
0.0
 11
404.26040549434254
 21
17.932221451618613
 31
0.0
  0
LINE
  5
3F
330
17
100
AcDbEntity
  8
FoilLayer
100
AcDbLine
 10
404.26040549434254
 20
17.932221451618613
 30
0.0
 11
398.2641523585247
 21
19.694200115438775
 31
0.0
  0
LINE
  5
40
330
17
100
AcDbEntity
  8
FoilLayer
100
AcDbLine
 10
398.2641523585247
 20
19.694200115438775
 30
0.0
 11
392.16639939574634
 21
21.44132033939432
 31
0.0
  0
LINE
  5
41
330
17
100
AcDbEntity
  8
FoilLayer
100
AcDbLine
 10
392.16639939574634
 20
21.44132033939432
 30
0.0
 11
385.9705368958074
 21
23.207565298494593
 31
0.0
  0
LINE
  5
42
330
17
100
AcDbEntity
  8
FoilLayer
100
AcDbLine
 10
385.9705368958074
 20
23.207565298494593
 30
0.0
 11
379.6701697260671
 21
24.975647030252915
 31
0.0
  0
LINE
  5
43
330
17
100
AcDbEntity
  8
FoilLayer
100
AcDbLine
 10
379.6701697260671
 20
24.975647030252915
 30
0.0
 11
373.249816375557
 21
26.785910743748286
 31
0.0
  0
LINE
  5
44
330
17
100
AcDbEntity
  8
FoilLayer
100
AcDbLine
 10
373.249816375557
 20
26.785910743748286
 30
0.0
 11
366.7274876059255
 21
28.620870809931684
 31
0.0
  0
LINE
  5
45
330
17
100
AcDbEntity
  8
FoilLayer
100
AcDbLine
 10
366.7274876059255
 20
28.620870809931684
 30
0.0
 11
360.13106437791873
 21
30.471418296927283
 31
0.0
  0
LINE
  5
46
330
17
100
AcDbEntity
  8
FoilLayer
100
AcDbLine
 10
360.13106437791873
 20
30.471418296927283
 30
0.0
 11
353.48758816988277
 21
32.33266019193335
 31
0.0
  0
LINE
  5
47
330
17
100
AcDbEntity
  8
FoilLayer
100
AcDbLine
 10
353.48758816988277
 20
32.33266019193335
 30
0.0
 11
346.8229436886403
 21
34.199592484198625
 31
0.0
  0
LINE
  5
48
330
17
100
AcDbEntity
  8
FoilLayer
100
AcDbLine
 10
346.8229436886403
 20
34.199592484198625
 30
0.0
 11
340.15574522437385
 21
36.06216121403291
 31
0.0
  0
LINE
  5
49
330
17
100
AcDbEntity
  8
FoilLayer
100
AcDbLine
 10
340.15574522437385
 20
36.06216121403291
 30
0.0
 11
333.4908908019546
 21
37.9147269086599
 31
0.0
  0
LINE
  5
4A
330
17
100
AcDbEntity
  8
FoilLayer
100
AcDbLine
 10
333.4908908019546
 20
37.9147269086599
 30
0.0
 11
326.82911765873905
 21
39.75627489757428
 31
0.0
  0
LINE
  5
4B
330
17
100
AcDbEntity
  8
FoilLayer
100
AcDbLine
 10
326.82911765873905
 20
39.75627489757428
 30
0.0
 11
320.1725723542702
 21
41.586677161629666
 31
0.0
  0
LINE
  5
4C
330
17
100
AcDbEntity
  8
FoilLayer
100
AcDbLine
 10
320.1725723542702
 20
41.586677161629666
 30
0.0
 11
313.52894899966896
 21
43.405503346669164
 31
0.0
  0
LINE
  5
4D
330
17
100
AcDbEntity
  8
FoilLayer
100
AcDbLine
 10
313.52894899966896
 20
43.405503346669164
 30
0.0
 11
306.9115795019136
 21
45.20719483262604
 31
0.0
  0
LINE
  5
4E
330
17
100
AcDbEntity
  8
FoilLayer
100
AcDbLine
 10
306.9115795019136
 20
45.20719483262604
 30
0.0
 11
300.3213669148421
 21
46.98463202613608
 31
0.0
  0
LINE
  5
4F
330
17
100
AcDbEntity
  8
FoilLayer
100
AcDbLine
 10
300.3213669148421
 20
46.98463202613608
 30
0.0
 11
293.745727092699
 21
48.73776753845179
 31
0.0
  0
LINE
  5
50
330
17
100
AcDbEntity
  8
FoilLayer
100
AcDbLine
 10
293.745727092699
 20
48.73776753845179
 30
0.0
 11
287.1795111286523
 21
50.47056863789512
 31
0.0
  0
LINE
  5
51
330
17
100
AcDbEntity
  8
FoilLayer
100
AcDbLine
 10
287.1795111286523
 20
50.47056863789512
 30
0.0
 11
280.62879874025657
 21
52.18230851617764
 31
0.0
  0
LINE
  5
52
330
17
100
AcDbEntity
  8
FoilLayer
100
AcDbLine
 10
280.62879874025657
 20
52.18230851617764
 30
0.0
 11
277.3874728057151
 21
53.01943107911769
 31
0.0
  0
LINE
  5
53
330
17
100
AcDbEntity
  8
FoilLayer
100
AcDbLine
 10
277.3874728057151
 20
53.01943107911769
 30
0.0
 11
277.1249093523842
 21
52.00278933643005
 31
0.0
  0
LINE
  5
54
330
17
100
AcDbEntity
  8
FoilLayer
100
AcDbLine
 10
277.1249093523842
 20
52.00278933643005
 30
0.0
 11
273.8376548660319
 21
52.85178210658273
 31
0.0
  0
LINE
  5
55
330
17
100
AcDbEntity
  8
FoilLayer
100
AcDbLine
 10
273.8376548660319
 20
52.85178210658273
 30
0.0
 11
267.3248451005795
 21
54.51090182685225
 31
0.0
  0
LINE
  5
56
330
17
100
AcDbEntity
  8
FoilLayer
100
AcDbLine
 10
267.3248451005795
 20
54.51090182685225
 30
0.0
 11
260.82324198731567
 21
56.1428936523077
 31
0.0
  0
LINE
  5
57
330
17
100
AcDbEntity
  8
FoilLayer
100
AcDbLine
 10
260.82324198731567
 20
56.1428936523077
 30
0.0
 11
254.32792424013826
 21
57.74791554828183
 31
0.0
  0
LINE
  5
58
330
17
100
AcDbEntity
  8
FoilLayer
100
AcDbLine
 10
254.32792424013826
 20
57.74791554828183
 30
0.0
 11
247.83424002145682
 21
59.32758601927819
 31
0.0
  0
LINE
  5
59
330
17
100
AcDbEntity
  8
FoilLayer
100
AcDbLine
 10
247.83424002145682
 20
59.32758601927819
 30
0.0
 11
241.3426380501595
 21
60.88498390408941
 31
0.0
  0
LINE
  5
5A
330
17
100
AcDbEntity
  8
FoilLayer
100
AcDbLine
 10
241.3426380501595
 20
60.88498390408941
 30
0.0
 11
234.8711008224368
 21
62.42003340914182
 31
0.0
  0
LINE
  5
5B
330
17
100
AcDbEntity
  8
FoilLayer
100
AcDbLine
 10
234.8711008224368
 20
62.42003340914182
 30
0.0
 11
228.44318497665103
 21
63.92421517804364
 31
0.0
  0
LINE
  5
5C
330
17
100
AcDbEntity
  8
FoilLayer
100
AcDbLine
 10
228.44318497665103
 20
63.92421517804364
 30
0.0
 11
222.06498660309734
 21
65.38710150280926
 31
0.0
  0
LINE
  5
5D
330
17
100
AcDbEntity
  8
FoilLayer
100
AcDbLine
 10
222.06498660309734
 20
65.38710150280926
 30
0.0
 11
215.72814495277612
 21
66.80443776956993
 31
0.0
  0
LINE
  5
5E
330
17
100
AcDbEntity
  8
FoilLayer
100
AcDbLine
 10
215.72814495277612
 20
66.80443776956993
 30
0.0
 11
209.42266009274766
 21
68.17570986567917
 31
0.0
  0
LINE
  5
5F
330
17
100
AcDbEntity
  8
FoilLayer
100
AcDbLine
 10
209.42266009274766
 20
68.17570986567917
 30
0.0
 11
203.13975460727636
 21
69.50140932516913
 31
0.0
  0
LINE
  5
60
330
17
100
AcDbEntity
  8
FoilLayer
100
AcDbLine
 10
203.13975460727636
 20
69.50140932516913
 30
0.0
 11
196.87158700573508
 21
70.78256052979152
 31
0.0
  0
LINE
  5
61
330
17
100
AcDbEntity
  8
FoilLayer
100
AcDbLine
 10
196.87158700573508
 20
70.78256052979152
 30
0.0
 11
190.61391954528153
 21
72.02063164848184
 31
0.0
  0
LINE
  5
62
330
17
100
AcDbEntity
  8
FoilLayer
100
AcDbLine
 10
190.61391954528153
 20
72.02063164848184
 30
0.0
 11
184.36737823011168
 21
73.21583002843406
 31
0.0
  0
LINE
  5
63
330
17
100
AcDbEntity
  8
FoilLayer
100
AcDbLine
 10
184.36737823011168
 20
73.21583002843406
 30
0.0
 11
178.13305310033337
 21
74.36619210068662
 31
0.0
  0
LINE
  5
64
330
17
100
AcDbEntity
  8
FoilLayer
100
AcDbLine
 10
178.13305310033337
 20
74.36619210068662
 30
0.0
 11
171.90552404600658
 21
75.46975286077345
 31
0.0
  0
LINE
  5
65
330
17
100
AcDbEntity
  8
FoilLayer
100
AcDbLine
 10
171.90552404600658
 20
75.46975286077345
 30
0.0
 11
165.67571974930837
 21
76.5274098295669
 31
0.0
  0
LINE
  5
66
330
17
100
AcDbEntity
  8
FoilLayer
100
AcDbLine
 10
165.67571974930837
 20
76.5274098295669
 30
0.0
 11
159.4387355676655
 21
77.54129444402224
 31
0.0
  0
LINE
  5
67
330
17
100
AcDbEntity
  8
FoilLayer
100
AcDbLine
 10
159.4387355676655
 20
77.54129444402224
 30
0.0
 11
153.19261546435905
 21
78.51272750620915
 31
0.0
  0
LINE
  5
68
330
17
100
AcDbEntity
  8
FoilLayer
100
AcDbLine
 10
153.19261546435905
 20
78.51272750620915
 30
0.0
 11
146.93679948853088
 21
79.44258849821378
 31
0.0
  0
LINE
  5
69
330
17
100
AcDbEntity
  8
FoilLayer
100
AcDbLine
 10
146.93679948853088
 20
79.44258849821378
 30
0.0
 11
140.67225405304248
 21
80.3313815847149
 31
0.0
  0
LINE
  5
6A
330
17
100
AcDbEntity
  8
FoilLayer
100
AcDbLine
 10
140.67225405304248
 20
80.3313815847149
 30
0.0
 11
134.4016189250833
 21
81.17906074443317
 31
0.0
  0
LINE
  5
6B
330
17
100
AcDbEntity
  8
FoilLayer
100
AcDbLine
 10
134.4016189250833
 20
81.17906074443317
 30
0.0
 11
128.12643202828326
 21
81.98428344998004
 31
0.0
  0
LINE
  5
6C
330
17
100
AcDbEntity
  8
FoilLayer
100
AcDbLine
 10
128.12643202828326
 20
81.98428344998004
 30
0.0
 11
121.84252142553208
 21
82.74586242228891
 31
0.0
  0
LINE
  5
6D
330
17
100
AcDbEntity
  8
FoilLayer
100
AcDbLine
 10
121.84252142553208
 20
82.74586242228891
 30
0.0
 11
115.54367885768215
 21
83.46509145367398
 31
0.0
  0
LINE
  5
6E
330
17
100
AcDbEntity
  8
FoilLayer
100
AcDbLine
 10
115.54367885768215
 20
83.46509145367398
 30
0.0
 11
109.2276604382701
 21
84.1442567972384
 31
0.0
  0
LINE
  5
6F
330
17
100
AcDbEntity
  8
FoilLayer
100
AcDbLine
 10
109.2276604382701
 20
84.1442567972384
 30
0.0
 11
102.8958138819088
 21
84.7853378745311
 31
0.0
  0
LINE
  5
70
330
17
100
AcDbEntity
  8
FoilLayer
100
AcDbLine
 10
102.8958138819088
 20
84.7853378745311
 30
0.0
 11
96.55462038837658
 21
85.38946720061813
 31
0.0
  0
LINE
  5
71
330
17
100
AcDbEntity
  8
FoilLayer
100
AcDbLine
 10
96.55462038837658
 20
85.38946720061813
 30
0.0
 11
90.21134403683578
 21
85.95573199460918
 31
0.0
  0
LINE
  5
72
330
17
100
AcDbEntity
  8
FoilLayer
100
AcDbLine
 10
90.21134403683578
 20
85.95573199460918
 30
0.0
 11
83.86988095708784
 21
86.48230788123821
 31
0.0
  0
LINE
  5
73
330
17
100
AcDbEntity
  8
FoilLayer
100
AcDbLine
 10
83.86988095708784
 20
86.48230788123821
 30
0.0
 11
77.53182774674002
 21
86.96868108527696
 31
0.0
  0
LINE
  5
74
330
17
100
AcDbEntity
  8
FoilLayer
100
AcDbLine
 10
77.53182774674002
 20
86.96868108527696
 30
0.0
 11
71.20028881254541
 21
87.41439508101669
 31
0.0
  0
LINE
  5
75
330
17
100
AcDbEntity
  8
FoilLayer
100
AcDbLine
 10
71.20028881254541
 20
87.41439508101669
 30
0.0
 11
64.87724444151081
 21
87.81819441945413
 31
0.0
  0
LINE
  5
76
330
17
100
AcDbEntity
  8
FoilLayer
100
AcDbLine
 10
64.87724444151081
 20
87.81819441945413
 30
0.0
 11
58.56224708999105
 21
88.17876553027035
 31
0.0
  0
LINE
  5
77
330
17
100
AcDbEntity
  8
FoilLayer
100
AcDbLine
 10
58.56224708999105
 20
88.17876553027035
 30
0.0
 11
52.25329530501443
 21
88.49582155559095
 31
0.0
  0
LINE
  5
78
330
17
100
AcDbEntity
  8
FoilLayer
100
AcDbLine
 10
52.25329530501443
 20
88.49582155559095
 30
0.0
 11
45.9505580316831
 21
88.7695777909409
 31
0.0
  0
LINE
  5
79
330
17
100
AcDbEntity
  8
FoilLayer
100
AcDbLine
 10
45.9505580316831
 20
88.7695777909409
 30
0.0
 11
39.654693200400914
 21
88.99951727196743
 31
0.0
  0
LINE
  5
7A
330
17
100
AcDbEntity
  8
FoilLayer
100
AcDbLine
 10
39.654693200400914
 20
88.99951727196743
 30
0.0
 11
33.36455796482318
 21
89.18490848086772
 31
0.0
  0
LINE
  5
7B
330
17
100
AcDbEntity
  8
FoilLayer
100
AcDbLine
 10
33.36455796482318
 20
89.18490848086772
 30
0.0
 11
27.078992672946868
 21
89.32575280786612
 31
0.0
  0
LINE
  5
7C
330
17
100
AcDbEntity
  8
FoilLayer
100
AcDbLine
 10
27.078992672946868
 20
89.32575280786612
 30
0.0
 11
20.799244529150485
 21
89.42219489734475
 31
0.0
  0
LINE
  5
7D
330
17
100
AcDbEntity
  8
FoilLayer
100
AcDbLine
 10
20.799244529150485
 20
89.42219489734475
 30
0.0
 11
14.524374926741586
 21
89.47291030422305
 31
0.0
  0
LINE
  5
7E
330
17
100
AcDbEntity
  8
FoilLayer
100
AcDbLine
 10
14.524374926741586
 20
89.47291030422305
 30
0.0
 11
8.25127600091804
 21
89.47738171889846
 31
0.0
  0
LINE
  5
7F
330
17
100
AcDbEntity
  8
FoilLayer
100
AcDbLine
 10
8.25127600091804
 20
89.47738171889846
 30
0.0
 11
1.9766969661992562
 21
89.43656429085046
 31
0.0
  0
LINE
  5
80
330
17
100
AcDbEntity
  8
FoilLayer
100
AcDbLine
 10
1.9766969661992562
 20
89.43656429085046
 30
0.0
 11
-4.2972283113829235
 21
89.35201005603048
 31
0.0
  0
LINE
  5
81
330
17
100
AcDbEntity
  8
FoilLayer
100
AcDbLine
 10
-4.2972283113829235
 20
89.35201005603048
 30
0.0
 11
-10.566091270899165
 21
89.22416848524013
 31
0.0
  0
LINE
  5
82
330
17
100
AcDbEntity
  8
FoilLayer
100
AcDbLine
 10
-10.566091270899165
 20
89.22416848524013
 30
0.0
 11
-16.825949302806407
 21
89.05245465850476
 31
0.0
  0
LINE
  5
83
330
17
100
AcDbEntity
  8
FoilLayer
100
AcDbLine
 10
-16.825949302806407
 20
89.05245465850476
 30
0.0
 11
-23.074459257864305
 21
88.83591150007506
 31
0.0
  0
LINE
  5
84
330
17
100
AcDbEntity
  8
FoilLayer
100
AcDbLine
 10
-23.074459257864305
 20
88.83591150007506
 30
0.0
 11
-29.31131593279312
 21
88.57364604018716
 31
0.0
  0
LINE
  5
85
330
17
100
AcDbEntity
  8
FoilLayer
100
AcDbLine
 10
-29.31131593279312
 20
88.57364604018716
 30
0.0
 11
-35.53630437711672
 21
88.26565032835224
 31
0.0
  0
LINE
  5
86
330
17
100
AcDbEntity
  8
FoilLayer
100
AcDbLine
 10
-35.53630437711672
 20
88.26565032835224
 30
0.0
 11
-41.747628999647645
 21
87.91264885116087
 31
0.0
  0
LINE
  5
87
330
17
100
AcDbEntity
  8
FoilLayer
100
AcDbLine
 10
-41.747628999647645
 20
87.91264885116087
 30
0.0
 11
-47.939262051214655
 21
87.51651348844274
 31
0.0
  0
LINE
  5
88
330
17
100
AcDbEntity
  8
FoilLayer
100
AcDbLine
 10
-47.939262051214655
 20
87.51651348844274
 30
0.0
 11
-54.099440956254654
 21
87.07797010412618
 31
0.0
  0
LINE
  5
89
330
17
100
AcDbEntity
  8
FoilLayer
100
AcDbLine
 10
-54.099440956254654
 20
87.07797010412618
 30
0.0
 11
-60.21871969620085
 21
86.59478049717886
 31
0.0
  0
LINE
  5
8A
330
17
100
AcDbEntity
  8
FoilLayer
100
AcDbLine
 10
-60.21871969620085
 20
86.59478049717886
 30
0.0
 11
-66.29299066315795
 21
86.06279130828501
 31
0.0
  0
LINE
  5
8B
330
17
100
AcDbEntity
  8
FoilLayer
100
AcDbLine
 10
-66.29299066315795
 20
86.06279130828501
 30
0.0
 11
-72.32741336037276
 21
85.47575502389569
 31
0.0
  0
LINE
  5
8C
330
17
100
AcDbEntity
  8
FoilLayer
100
AcDbLine
 10
-72.32741336037276
 20
85.47575502389569
 30
0.0
 11
-78.33891177646535
 21
84.8289862836967
 31
0.0
  0
LINE
  5
8D
330
17
100
AcDbEntity
  8
FoilLayer
100
AcDbLine
 10
-78.33891177646535
 20
84.8289862836967
 30
0.0
 11
-84.34078982491857
 21
84.12457179464397
 31
0.0
  0
LINE
  5
8E
330
17
100
AcDbEntity
  8
FoilLayer
100
AcDbLine
 10
-84.34078982491857
 20
84.12457179464397
 30
0.0
 11
-90.33104449305287
 21
83.36730451734891
 31
0.0
  0
LINE
  5
8F
330
17
100
AcDbEntity
  8
FoilLayer
100
AcDbLine
 10
-90.33104449305287
 20
83.36730451734891
 30
0.0
 11
-96.30276730256051
 21
82.55782578573276
 31
0.0
  0
LINE
  5
90
330
17
100
AcDbEntity
  8
FoilLayer
100
AcDbLine
 10
-96.30276730256051
 20
82.55782578573276
 30
0.0
 11
-102.25351507157836
 21
81.69498046322968
 31
0.0
  0
LINE
  5
91
330
17
100
AcDbEntity
  8
FoilLayer
100
AcDbLine
 10
-102.25351507157836
 20
81.69498046322968
 30
0.0
 11
-108.18166351981588
 21
80.77905329014095
 31
0.0
  0
LINE
  5
92
330
17
100
AcDbEntity
  8
FoilLayer
100
AcDbLine
 10
-108.18166351981588
 20
80.77905329014095
 30
0.0
 11
-114.08187648065623
 21
79.81129325681603
 31
0.0
  0
LINE
  5
93
330
17
100
AcDbEntity
  8
FoilLayer
100
AcDbLine
 10
-114.08187648065623
 20
79.81129325681603
 30
0.0
 11
-119.94861870106155
 21
78.79157372823194
 31
0.0
  0
LINE
  5
94
330
17
100
AcDbEntity
  8
FoilLayer
100
AcDbLine
 10
-119.94861870106155
 20
78.79157372823194
 30
0.0
 11
-125.7774671759812
 21
77.71947448247138
 31
0.0
  0
LINE
  5
95
330
17
100
AcDbEntity
  8
FoilLayer
100
AcDbLine
 10
-125.7774671759812
 20
77.71947448247138
 30
0.0
 11
-131.56508837547602
 21
76.59425611164632
 31
0.0
  0
LINE
  5
96
330
17
100
AcDbEntity
  8
FoilLayer
100
AcDbLine
 10
-131.56508837547602
 20
76.59425611164632
 30
0.0
 11
-137.30866039390781
 21
75.41545808710727
 31
0.0
  0
LINE
  5
97
330
17
100
AcDbEntity
  8
FoilLayer
100
AcDbLine
 10
-137.30866039390781
 20
75.41545808710727
 30
0.0
 11
-143.0049096931208
 21
74.18336611441204
 31
0.0
  0
LINE
  5
98
330
17
100
AcDbEntity
  8
FoilLayer
100
AcDbLine
 10
-143.0049096931208
 20
74.18336611441204
 30
0.0
 11
-148.64718311717294
 21
72.89817119720554
 31
0.0
  0
LINE
  5
99
330
17
100
AcDbEntity
  8
FoilLayer
100
AcDbLine
 10
-148.64718311717294
 20
72.89817119720554
 30
0.0
 11
-154.23438281916452
 21
71.55476366434029
 31
0.0
  0
LINE
  5
9A
330
17
100
AcDbEntity
  8
FoilLayer
100
AcDbLine
 10
-154.23438281916452
 20
71.55476366434029
 30
0.0
 11
-159.7776418050338
 21
70.14950306532826
 31
0.0
  0
LINE
  5
9B
330
17
100
AcDbEntity
  8
FoilLayer
100
AcDbLine
 10
-159.7776418050338
 20
70.14950306532826
 30
0.0
 11
-165.2768521256795
 21
68.69197830141924
 31
0.0
  0
LINE
  5
9C
330
17
100
AcDbEntity
  8
FoilLayer
100
AcDbLine
 10
-165.2768521256795
 20
68.69197830141924
 30
0.0
 11
-170.70246925873172
 21
67.19707651056177
 31
0.0
  0
LINE
  5
9D
330
17
100
AcDbEntity
  8
FoilLayer
100
AcDbLine
 10
-170.70246925873172
 20
67.19707651056177
 30
0.0
 11
-176.02390839811437
 21
65.66652506499453
 31
0.0
  0
LINE
  5
9E
330
17
100
AcDbEntity
  8
FoilLayer
100
AcDbLine
 10
-176.02390839811437
 20
65.66652506499453
 30
0.0
 11
-181.23102474469133
 21
64.09303044246116
 31
0.0
  0
LINE
  5
9F
330
17
100
AcDbEntity
  8
FoilLayer
100
AcDbLine
 10
-181.23102474469133
 20
64.09303044246116
 30
0.0
 11
-186.32518011217394
 21
62.4704700635009
 31
0.0
  0
LINE
  5
A0
330
17
100
AcDbEntity
  8
FoilLayer
100
AcDbLine
 10
-186.32518011217394
 20
62.4704700635009
 30
0.0
 11
-191.3102357428254
 21
60.795587662455084
 31
0.0
  0
LINE
  5
A1
330
17
100
AcDbEntity
  8
FoilLayer
100
AcDbLine
 10
-191.3102357428254
 20
60.795587662455084
 30
0.0
 11
-196.18933064092704
 21
59.06760429538121
 31
0.0
  0
LINE
  5
A2
330
17
100
AcDbEntity
  8
FoilLayer
100
AcDbLine
 10
-196.18933064092704
 20
59.06760429538121
 30
0.0
 11
-200.96223088232222
 21
57.28839329320279
 31
0.0
  0
LINE
  5
A3
330
17
100
AcDbEntity
  8
FoilLayer
100
AcDbLine
 10
-200.96223088232222
 20
57.28839329320279
 30
0.0
 11
-205.6240716590786
 21
55.4630354060936
 31
0.0
  0
LINE
  5
A4
330
17
100
AcDbEntity
  8
FoilLayer
100
AcDbLine
 10
-205.6240716590786
 20
55.4630354060936
 30
0.0
 11
-210.1641571115194
 21
53.598783724329635
 31
0.0
  0
LINE
  5
A5
330
17
100
AcDbEntity
  8
FoilLayer
100
AcDbLine
 10
-210.1641571115194
 20
53.598783724329635
 30
0.0
 11
-214.56983827524618
 21
51.701094493067465
 31
0.0
  0
LINE
  5
A6
330
17
100
AcDbEntity
  8
FoilLayer
100
AcDbLine
 10
-214.56983827524618
 20
51.701094493067465
 30
0.0
 11
-218.83333219205457
 21
49.77407329009929
 31
0.0
  0
LINE
  5
A7
330
17
100
AcDbEntity
  8
FoilLayer
100
AcDbLine
 10
-218.83333219205457
 20
49.77407329009929
 30
0.0
 11
-222.94657837607866
 21
47.828594785971525
 31
0.0
  0
LINE
  5
A8
330
17
100
AcDbEntity
  8
FoilLayer
100
AcDbLine
 10
-222.94657837607866
 20
47.828594785971525
 30
0.0
 11
-226.89309475533997
 21
45.882642398712676
 31
0.0
  0
LINE
  5
A9
330
17
100
AcDbEntity
  8
FoilLayer
100
AcDbLine
 10
-226.89309475533997
 20
45.882642398712676
 30
0.0
 11
-230.65278428049885
 21
43.95164567319203
 31
0.0
  0
LINE
  5
AA
330
17
100
AcDbEntity
  8
FoilLayer
100
AcDbLine
 10
-230.65278428049885
 20
43.95164567319203
 30
0.0
 11
-234.21074915311388
 21
42.045098058008584
 31
0.0
  0
LINE
  5
AB
330
17
100
AcDbEntity
  8
FoilLayer
100
AcDbLine
 10
-234.21074915311388
 20
42.045098058008584
 30
0.0
 11
-237.55915841518728
 21
40.168754924632154
 31
0.0
  0
LINE
  5
AC
330
17
100
AcDbEntity
  8
FoilLayer
100
AcDbLine
 10
-237.55915841518728
 20
40.168754924632154
 30
0.0
 11
-240.69795774417247
 21
38.325138321529465
 31
0.0
  0
LINE
  5
AD
330
17
100
AcDbEntity
  8
FoilLayer
100
AcDbLine
 10
-240.69795774417247
 20
38.325138321529465
 30
0.0
 11
-243.63270398016041
 21
36.51790983931751
 31
0.0
  0
LINE
  5
AE
330
17
100
AcDbEntity
  8
FoilLayer
100
AcDbLine
 10
-243.63270398016041
 20
36.51790983931751
 30
0.0
 11
-246.3700031209613
 21
34.75372631684016
 31
0.0
  0
LINE
  5
AF
330
17
100
AcDbEntity
  8
FoilLayer
100
AcDbLine
 10
-246.3700031209613
 20
34.75372631684016
 30
0.0
 11
-248.91699229749264
 21
33.03894942135473
 31
0.0
  0
LINE
  5
B0
330
17
100
AcDbEntity
  8
FoilLayer
100
AcDbLine
 10
-248.91699229749264
 20
33.03894942135473
 30
0.0
 11
-251.2808334740693
 21
31.37951183123628
 31
0.0
  0
LINE
  5
B1
330
17
100
AcDbEntity
  8
FoilLayer
100
AcDbLine
 10
-251.2808334740693
 20
31.37951183123628
 30
0.0
 11
-253.46864743638415
 21
29.778322698643358
 31
0.0
  0
LINE
  5
B2
330
17
100
AcDbEntity
  8
FoilLayer
100
AcDbLine
 10
-253.46864743638415
 20
29.778322698643358
 30
0.0
 11
-255.48883898629734
 21
28.234692538711503
 31
0.0
  0
LINE
  5
B3
330
17
100
AcDbEntity
  8
FoilLayer
100
AcDbLine
 10
-255.48883898629734
 20
28.234692538711503
 30
0.0
 11
-257.35088623877294
 21
26.745657293473176
 31
0.0
  0
LINE
  5
B4
330
17
100
AcDbEntity
  8
FoilLayer
100
AcDbLine
 10
-257.35088623877294
 20
26.745657293473176
 30
0.0
 11
-259.06574379469885
 21
25.306167294677437
 31
0.0
  0
LINE
  5
B5
330
17
100
AcDbEntity
  8
FoilLayer
100
AcDbLine
 10
-259.06574379469885
 20
25.306167294677437
 30
0.0
 11
-260.6470696596684
 21
23.910585527992744
 31
0.0
  0
LINE
  5
B6
330
17
100
AcDbEntity
  8
FoilLayer
100
AcDbLine
 10
-260.6470696596684
 20
23.910585527992744
 30
0.0
 11
-262.10812749967874
 21
22.55865272020082
 31
0.0
  0
LINE
  5
B7
330
17
100
AcDbEntity
  8
FoilLayer
100
AcDbLine
 10
-262.10812749967874
 20
22.55865272020082
 30
0.0
 11
-263.459138975487
 21
21.25258262310611
 31
0.0
  0
LINE
  5
B8
330
17
100
AcDbEntity
  8
FoilLayer
100
AcDbLine
 10
-263.459138975487
 20
21.25258262310611
 30
0.0
 11
-264.7075719198582
 21
19.992696283745715
 31
0.0
  0
LINE
  5
B9
330
17
100
AcDbEntity
  8
FoilLayer
100
AcDbLine
 10
-264.7075719198582
 20
19.992696283745715
 30
0.0
 11
-265.86053208664265
 21
18.77598853992314
 31
0.0
  0
LINE
  5
BA
330
17
100
AcDbEntity
  8
FoilLayer
100
AcDbLine
 10
-265.86053208664265
 20
18.77598853992314
 30
0.0
 11
-266.9247258806349
 21
17.59986563120934
 31
0.0
  0
LINE
  5
BB
330
17
100
AcDbEntity
  8
FoilLayer
100
AcDbLine
 10
-266.9247258806349
 20
17.59986563120934
 30
0.0
 11
-267.9062187751022
 21
16.461802454039464
 31
0.0
  0
LINE
  5
BC
330
17
100
AcDbEntity
  8
FoilLayer
100
AcDbLine
 10
-267.9062187751022
 20
16.461802454039464
 30
0.0
 11
-268.8106822134457
 21
15.35913966409439
 31
0.0
  0
LINE
  5
BD
330
17
100
AcDbEntity
  8
FoilLayer
100
AcDbLine
 10
-268.8106822134457
 20
15.35913966409439
 30
0.0
 11
-269.6444264448352
 21
14.287967165377088
 31
0.0
  0
LINE
  5
BE
330
17
100
AcDbEntity
  8
FoilLayer
100
AcDbLine
 10
-269.6444264448352
 20
14.287967165377088
 30
0.0
 11
-270.4138799469866
 21
13.246297428405382
 31
0.0
  0
LINE
  5
BF
330
17
100
AcDbEntity
  8
FoilLayer
100
AcDbLine
 10
-270.4138799469866
 20
13.246297428405382
 30
0.0
 11
-271.12273894164315
 21
12.236643128172869
 31
0.0
  0
LINE
  5
C0
330
17
100
AcDbEntity
  8
FoilLayer
100
AcDbLine
 10
-271.12273894164315
 20
12.236643128172869
 30
0.0
 11
-271.7719387707003
 21
11.259996241633088
 31
0.0
  0
LINE
  5
C1
330
17
100
AcDbEntity
  8
FoilLayer
100
AcDbLine
 10
-271.7719387707003
 20
11.259996241633088
 30
0.0
 11
-272.3664939451452
 21
10.305424298019654
 31
0.0
  0
LINE
  5
C2
330
17
100
AcDbEntity
  8
FoilLayer
100
AcDbLine
 10
-272.3664939451452
 20
10.305424298019654
 30
0.0
 11
-272.91648224587453
 21
9.364502443790306
 31
0.0
  0
LINE
  5
C3
330
17
100
AcDbEntity
  8
FoilLayer
100
AcDbLine
 10
-272.91648224587453
 20
9.364502443790306
 30
0.0
 11
-273.42351842062965
 21
8.456397967709908
 31
0.0
  0
LINE
  5
C4
330
17
100
AcDbEntity
  8
FoilLayer
100
AcDbLine
 10
-273.42351842062965
 20
8.456397967709908
 30
0.0
 11
-273.876700880525
 21
7.599225771436862
 31
0.0
  0
LINE
  5
C5
330
17
100
AcDbEntity
  8
FoilLayer
100
AcDbLine
 10
-273.876700880525
 20
7.599225771436862
 30
0.0
 11
-274.2743841079605
 21
6.7617675284263346
 31
0.0
  0
LINE
  5
C6
330
17
100
AcDbEntity
  8
FoilLayer
100
AcDbLine
 10
-274.2743841079605
 20
6.7617675284263346
 30
0.0
 11
-274.63107207905637
 21
5.9086369458151715
 31
0.0
  0
LINE
  5
C7
330
17
100
AcDbEntity
  8
FoilLayer
100
AcDbLine
 10
-274.63107207905637
 20
5.9086369458151715
 30
0.0
 11
-274.9556323676523
 21
5.074744368757388
 31
0.0
  0
LINE
  5
C8
330
17
100
AcDbEntity
  8
FoilLayer
100
AcDbLine
 10
-274.9556323676523
 20
5.074744368757388
 30
0.0
 11
-275.2374071132677
 21
4.301967305761187
 31
0.0
  0
LINE
  5
C9
330
17
100
AcDbEntity
  8
FoilLayer
100
AcDbLine
 10
-275.2374071132677
 20
4.301967305761187
 30
0.0
 11
-275.46686213423294
 21
3.55964354051348
 31
0.0
  0
LINE
  5
CA
330
17
100
AcDbEntity
  8
FoilLayer
100
AcDbLine
 10
-275.46686213423294
 20
3.55964354051348
 30
0.0
 11
-275.6477664068043
 21
2.8064026328631386
 31
0.0
  0
LINE
  5
CB
330
17
100
AcDbEntity
  8
FoilLayer
100
AcDbLine
 10
-275.6477664068043
 20
2.8064026328631386
 30
0.0
 11
-275.7903105366657
 21
2.0579931425278826
 31
0.0
  0
LINE
  5
CC
330
17
100
AcDbEntity
  8
FoilLayer
100
AcDbLine
 10
-275.7903105366657
 20
2.0579931425278826
 30
0.0
 11
-275.89835501464603
 21
1.3400710209949254
 31
0.0
  0
LINE
  5
CD
330
17
100
AcDbEntity
  8
FoilLayer
100
AcDbLine
 10
-275.89835501464603
 20
1.3400710209949254
 30
0.0
 11
-275.96875270522145
 21
0.6478400006352255
 31
0.0
  0
LINE
  5
CE
330
17
100
AcDbEntity
  8
FoilLayer
100
AcDbLine
 10
-275.96875270522145
 20
0.6478400006352255
 30
0.0
 11
-275.9999999999998
 21
-0.046101949287855735
 31
0.0
  0
LINE
  5
CF
330
17
100
AcDbEntity
  8
FoilLayer
100
AcDbLine
 10
-275.9999999999998
 20
-0.046101949287855735
 30
0.0
 11
-275.9944638135406
 21
-0.6732717544813254
 31
0.0
  0
LINE
  5
D0
330
17
100
AcDbEntity
  8
FoilLayer
100
AcDbLine
 10
-275.9944638135406
 20
-0.6732717544813254
 30
0.0
 11
-275.9484466275255
 21
-1.3042945930364804
 31
0.0
  0
LINE
  5
D1
330
17
100
AcDbEntity
  8
FoilLayer
100
AcDbLine
 10
-275.9484466275255
 20
-1.3042945930364804
 30
0.0
 11
-275.8506857418448
 21
-1.93293774040949
 31
0.0
  0
LINE
  5
D2
330
17
100
AcDbEntity
  8
FoilLayer
100
AcDbLine
 10
-275.8506857418448
 20
-1.93293774040949
 30
0.0
 11
-275.69369318556414
 21
-2.56790148038413
 31
0.0
  0
LINE
  5
D3
330
17
100
AcDbEntity
  8
FoilLayer
100
AcDbLine
 10
-275.69369318556414
 20
-2.56790148038413
 30
0.0
 11
-275.4785062545344
 21
-3.20468052931201
 31
0.0
  0
LINE
  5
D4
330
17
100
AcDbEntity
  8
FoilLayer
100
AcDbLine
 10
-275.4785062545344
 20
-3.20468052931201
 30
0.0
 11
-275.2072972459415
 21
-3.836633202871541
 31
0.0
  0
LINE
  5
D5
330
17
100
AcDbEntity
  8
FoilLayer
100
AcDbLine
 10
-275.2072972459415
 20
-3.836633202871541
 30
0.0
 11
-274.8802943725867
 21
-4.458976447809938
 31
0.0
  0
LINE
  5
D6
330
17
100
AcDbEntity
  8
FoilLayer
100
AcDbLine
 10
-274.8802943725867
 20
-4.458976447809938
 30
0.0
 11
-274.4969613291593
 21
-5.067181572847337
 31
0.0
  0
LINE
  5
D7
330
17
100
AcDbEntity
  8
FoilLayer
100
AcDbLine
 10
-274.4969613291593
 20
-5.067181572847337
 30
0.0
 11
-274.05008776401843
 21
-5.663599266560373
 31
0.0
  0
LINE
  5
D8
330
17
100
AcDbEntity
  8
FoilLayer
100
AcDbLine
 10
-274.05008776401843
 20
-5.663599266560373
 30
0.0
 11
-273.53547223454717
 21
-6.250739301632596
 31
0.0
  0
LINE
  5
D9
330
17
100
AcDbEntity
  8
FoilLayer
100
AcDbLine
 10
-273.53547223454717
 20
-6.250739301632596
 30
0.0
 11
-272.95840552216674
 21
-6.826235274117211
 31
0.0
  0
LINE
  5
DA
330
17
100
AcDbEntity
  8
FoilLayer
100
AcDbLine
 10
-272.95840552216674
 20
-6.826235274117211
 30
0.0
 11
-272.3228654278478
 21
-7.388038806182049
 31
0.0
  0
LINE
  5
DB
330
17
100
AcDbEntity
  8
FoilLayer
100
AcDbLine
 10
-272.3228654278478
 20
-7.388038806182049
 30
0.0
 11
-271.630834265683
 21
-7.934287477991804
 31
0.0
  0
LINE
  5
DC
330
17
100
AcDbEntity
  8
FoilLayer
100
AcDbLine
 10
-271.630834265683
 20
-7.934287477991804
 30
0.0
 11
-270.8826034541389
 21
-8.463086143165187
 31
0.0
  0
LINE
  5
DD
330
17
100
AcDbEntity
  8
FoilLayer
100
AcDbLine
 10
-270.8826034541389
 20
-8.463086143165187
 30
0.0
 11
-270.074626170158
 21
-8.973673778338158
 31
0.0
  0
LINE
  5
DE
330
17
100
AcDbEntity
  8
FoilLayer
100
AcDbLine
 10
-270.074626170158
 20
-8.973673778338158
 30
0.0
 11
-269.2029987694251
 21
-9.46619404571488
 31
0.0
  0
LINE
  5
DF
330
17
100
AcDbEntity
  8
FoilLayer
100
AcDbLine
 10
-269.2029987694251
 20
-9.46619404571488
 30
0.0
 11
-268.2629932840537
 21
-9.942178803696725
 31
0.0
  0
LINE
  5
E0
330
17
100
AcDbEntity
  8
FoilLayer
100
AcDbLine
 10
-268.2629932840537
 20
-9.942178803696725
 30
0.0
 11
-267.25089907072095
 21
-10.404627692554895
 31
0.0
  0
LINE
  5
E1
330
17
100
AcDbEntity
  8
FoilLayer
100
AcDbLine
 10
-267.25089907072095
 20
-10.404627692554895
 30
0.0
 11
-266.16540549043907
 21
-10.8574064962188
 31
0.0
  0
LINE
  5
E2
330
17
100
AcDbEntity
  8
FoilLayer
100
AcDbLine
 10
-266.16540549043907
 20
-10.8574064962188
 30
0.0
 11
-265.0060513466545
 21
-11.303948413531765
 31
0.0
  0
LINE
  5
E3
330
17
100
AcDbEntity
  8
FoilLayer
100
AcDbLine
 10
-265.0060513466545
 20
-11.303948413531765
 30
0.0
 11
-263.77030883298704
 21
-11.746779685842254
 31
0.0
  0
LINE
  5
E4
330
17
100
AcDbEntity
  8
FoilLayer
100
AcDbLine
 10
-263.77030883298704
 20
-11.746779685842254
 30
0.0
 11
-262.45403770897457
 21
-12.187547289578031
 31
0.0
  0
LINE
  5
E5
330
17
100
AcDbEntity
  8
FoilLayer
100
AcDbLine
 10
-262.45403770897457
 20
-12.187547289578031
 30
0.0
 11
-261.05226757178355
 21
-12.62698605556518
 31
0.0
  0
LINE
  5
E6
330
17
100
AcDbEntity
  8
FoilLayer
100
AcDbLine
 10
-261.05226757178355
 20
-12.62698605556518
 30
0.0
 11
-259.5602986717456
 21
-13.064070259962412
 31
0.0
  0
LINE
  5
E7
330
17
100
AcDbEntity
  8
FoilLayer
100
AcDbLine
 10
-259.5602986717456
 20
-13.064070259962412
 30
0.0
 11
-257.96833903047275
 21
-13.495317416773467
 31
0.0
  0
LINE
  5
E8
330
17
100
AcDbEntity
  8
FoilLayer
100
AcDbLine
 10
-257.96833903047275
 20
-13.495317416773467
 30
0.0
 11
-256.2596608171961
 21
-13.917772294174558
 31
0.0
  0
LINE
  5
E9
330
17
100
AcDbEntity
  8
FoilLayer
100
AcDbLine
 10
-256.2596608171961
 20
-13.917772294174558
 30
0.0
 11
-254.41901478231875
 21
-14.333055069218853
 31
0.0
  0
LINE
  5
EA
330
17
100
AcDbEntity
  8
FoilLayer
100
AcDbLine
 10
-254.41901478231875
 20
-14.333055069218853
 30
0.0
 11
-252.43503962050013
 21
-14.745226074628933
 31
0.0
  0
LINE
  5
EB
330
17
100
AcDbEntity
  8
FoilLayer
100
AcDbLine
 10
-252.43503962050013
 20
-14.745226074628933
 30
0.0
 11
-250.2953884635521
 21
-15.157173501642593
 31
0.0
  0
LINE
  5
EC
330
17
100
AcDbEntity
  8
FoilLayer
100
AcDbLine
 10
-250.2953884635521
 20
-15.157173501642593
 30
0.0
 11
-247.98650683600346
 21
-15.569968582956799
 31
0.0
  0
LINE
  5
ED
330
17
100
AcDbEntity
  8
FoilLayer
100
AcDbLine
 10
-247.98650683600346
 20
-15.569968582956799
 30
0.0
 11
-245.49468883982823
 21
-15.980593477112343
 31
0.0
  0
LINE
  5
EE
330
17
100
AcDbEntity
  8
FoilLayer
100
AcDbLine
 10
-245.49468883982823
 20
-15.980593477112343
 30
0.0
 11
-242.80155251450583
 21
-16.381318991569046
 31
0.0
  0
LINE
  5
EF
330
17
100
AcDbEntity
  8
FoilLayer
100
AcDbLine
 10
-242.80155251450583
 20
-16.381318991569046
 30
0.0
 11
-239.8847630059734
 21
-16.764755379724832
 31
0.0
  0
LINE
  5
F0
330
17
100
AcDbEntity
  8
FoilLayer
100
AcDbLine
 10
-239.8847630059734
 20
-16.764755379724832
 30
0.0
 11
-236.7187994281387
 21
-17.125649299212487
 31
0.0
  0
LINE
  5
F1
330
17
100
AcDbEntity
  8
FoilLayer
100
AcDbLine
 10
-236.7187994281387
 20
-17.125649299212487
 30
0.0
 11
-233.27493790912507
 21
-17.462558635382155
 31
0.0
  0
LINE
  5
F2
330
17
100
AcDbEntity
  8
FoilLayer
100
AcDbLine
 10
-233.27493790912507
 20
-17.462558635382155
 30
0.0
 11
-229.5323507897852
 21
-17.78128259933435
 31
0.0
  0
LINE
  5
F3
330
17
100
AcDbEntity
  8
FoilLayer
100
AcDbLine
 10
-229.5323507897852
 20
-17.78128259933435
 30
0.0
 11
-225.48777403665596
 21
-18.085747096750843
 31
0.0
  0
LINE
  5
F4
330
17
100
AcDbEntity
  8
FoilLayer
100
AcDbLine
 10
-225.48777403665596
 20
-18.085747096750843
 30
0.0
 11
-221.14583737433233
 21
-18.36762116476428
 31
0.0
  0
LINE
  5
F5
330
17
100
AcDbEntity
  8
FoilLayer
100
AcDbLine
 10
-221.14583737433233
 20
-18.36762116476428
 30
0.0
 11
-216.50772854601001
 21
-18.614632216653483
 31
0.0
  0
LINE
  5
F6
330
17
100
AcDbEntity
  8
FoilLayer
100
AcDbLine
 10
-216.50772854601001
 20
-18.614632216653483
 30
0.0
 11
-211.57562556385633
 21
-18.820683605857912
 31
0.0
  0
LINE
  5
F7
330
17
100
AcDbEntity
  8
FoilLayer
100
AcDbLine
 10
-211.57562556385633
 20
-18.820683605857912
 30
0.0
 11
-206.35670536490557
 21
-18.98582323405273
 31
0.0
  0
LINE
  5
F8
330
17
100
AcDbEntity
  8
FoilLayer
100
AcDbLine
 10
-206.35670536490557
 20
-18.98582323405273
 30
0.0
 11
-200.87239284254395
 21
-19.116546979799704
 31
0.0
  0
LINE
  5
F9
330
17
100
AcDbEntity
  8
FoilLayer
100
AcDbLine
 10
-200.87239284254395
 20
-19.116546979799704
 30
0.0
 11
-195.17105033574393
 21
-19.219348211954028
 31
0.0
  0
LINE
  5
FA
330
17
100
AcDbEntity
  8
FoilLayer
100
AcDbLine
 10
-195.17105033574393
 20
-19.219348211954028
 30
0.0
 11
-189.31229933929708
 21
-19.290666119459814
 31
0.0
  0
LINE
  5
FB
330
17
100
AcDbEntity
  8
FoilLayer
100
AcDbLine
 10
-189.31229933929708
 20
-19.290666119459814
 30
0.0
 11
-183.3398025610164
 21
-19.320774958020976
 31
0.0
  0
LINE
  5
FC
330
17
100
AcDbEntity
  8
FoilLayer
100
AcDbLine
 10
-183.3398025610164
 20
-19.320774958020976
 30
0.0
 11
-177.27208644344535
 21
-19.29883770420716
 31
0.0
  0
LINE
  5
FD
330
17
100
AcDbEntity
  8
FoilLayer
100
AcDbLine
 10
-177.27208644344535
 20
-19.29883770420716
 30
0.0
 11
-171.09395064468967
 21
-19.219246332924985
 31
0.0
  0
LINE
  5
FE
330
17
100
AcDbEntity
  8
FoilLayer
100
AcDbLine
 10
-171.09395064468967
 20
-19.219246332924985
 30
0.0
 11
-164.7841183859245
 21
-19.091972924718174
 31
0.0
  0
LINE
  5
FF
330
17
100
AcDbEntity
  8
FoilLayer
100
AcDbLine
 10
-164.7841183859245
 20
-19.091972924718174
 30
0.0
 11
-158.35865296382406
 21
-18.932892521505998
 31
0.0
  0
LINE
  5
100
330
17
100
AcDbEntity
  8
FoilLayer
100
AcDbLine
 10
-158.35865296382406
 20
-18.932892521505998
 30
0.0
 11
-151.84599283963
 21
-18.744543185169746
 31
0.0
  0
LINE
  5
101
330
17
100
AcDbEntity
  8
FoilLayer
100
AcDbLine
 10
-151.84599283963
 20
-18.744543185169746
 30
0.0
 11
-145.24917324350372
 21
-18.525078344732933
 31
0.0
  0
LINE
  5
102
330
17
100
AcDbEntity
  8
FoilLayer
100
AcDbLine
 10
-145.24917324350372
 20
-18.525078344732933
 30
0.0
 11
-138.5673489343338
 21
-18.28141641409635
 31
0.0
  0
LINE
  5
103
330
17
100
AcDbEntity
  8
FoilLayer
100
AcDbLine
 10
-138.5673489343338
 20
-18.28141641409635
 30
0.0
 11
-131.82222291750927
 21
-18.024115094945145
 31
0.0
  0
LINE
  5
104
330
17
100
AcDbEntity
  8
FoilLayer
100
AcDbLine
 10
-131.82222291750927
 20
-18.024115094945145
 30
0.0
 11
-129.5589946070604
 21
-17.935033993742305
 31
0.0
  0
LINE
  5
105
330
17
100
AcDbEntity
  8
FoilLayer
100
AcDbLine
 10
-129.5589946070604
 20
-17.935033993742305
 30
0.0
 11
-129.51769838211806
 21
-18.98422159460571
 31
0.0
  0
LINE
  5
106
330
17
100
AcDbEntity
  8
FoilLayer
100
AcDbLine
 10
-129.51769838211806
 20
-18.98422159460571
 30
0.0
 11
-125.00404238401543
 21
-18.8065638845046
 31
0.0
  0
LINE
  5
107
330
17
100
AcDbEntity
  8
FoilLayer
100
AcDbLine
 10
-125.00404238401543
 20
-18.8065638845046
 30
0.0
 11
-118.22367412251242
 21
-18.52808585645566
 31
0.0
  0
LINE
  5
108
330
17
100
AcDbEntity
  8
FoilLayer
100
AcDbLine
 10
-118.22367412251242
 20
-18.52808585645566
 30
0.0
 11
-111.44788074235515
 21
-18.22934935376993
 31
0.0
  0
LINE
  5
109
330
17
100
AcDbEntity
  8
FoilLayer
100
AcDbLine
 10
-111.44788074235515
 20
-18.22934935376993
 30
0.0
 11
-104.65656881861136
 21
-17.90514133933397
 31
0.0
  0
LINE
  5
10A
330
17
100
AcDbEntity
  8
FoilLayer
100
AcDbLine
 10
-104.65656881861136
 20
-17.90514133933397
 30
0.0
 11
-97.83195467417875
 21
-17.56085528416101
 31
0.0
  0
LINE
  5
10B
330
17
100
AcDbEntity
  8
FoilLayer
100
AcDbLine
 10
-97.83195467417875
 20
-17.56085528416101
 30
0.0
 11
-90.9784576332516
 21
-17.204495269934167
 31
0.0
  0
LINE
  5
10C
330
17
100
AcDbEntity
  8
FoilLayer
100
AcDbLine
 10
-90.9784576332516
 20
-17.204495269934167
 30
0.0
 11
-84.11237121447832
 21
-16.840595221396757
 31
0.0
  0
LINE
  5
10D
330
17
100
AcDbEntity
  8
FoilLayer
100
AcDbLine
 10
-84.11237121447832
 20
-16.840595221396757
 30
0.0
 11
-77.25331998604801
 21
-16.468067362476877
 31
0.0
  0
LINE
  5
10E
330
17
100
AcDbEntity
  8
FoilLayer
100
AcDbLine
 10
-77.25331998604801
 20
-16.468067362476877
 30
0.0
 11
-70.4035954669213
 21
-16.079053655642678
 31
0.0
  0
LINE
  5
10F
330
17
100
AcDbEntity
  8
FoilLayer
100
AcDbLine
 10
-70.4035954669213
 20
-16.079053655642678
 30
0.0
 11
-63.54147671415271
 21
-15.668859230272279
 31
0.0
  0
LINE
  5
110
330
17
100
AcDbEntity
  8
FoilLayer
100
AcDbLine
 10
-63.54147671415271
 20
-15.668859230272279
 30
0.0
 11
-56.647700926650174
 21
-15.241309709499241
 31
0.0
  0
LINE
  5
111
330
17
100
AcDbEntity
  8
FoilLayer
100
AcDbLine
 10
-56.647700926650174
 20
-15.241309709499241
 30
0.0
 11
-49.72193994025022
 21
-14.806317545568994
 31
0.0
  0
LINE
  5
112
330
17
100
AcDbEntity
  8
FoilLayer
100
AcDbLine
 10
-49.72193994025022
 20
-14.806317545568994
 30
0.0
 11
-42.78050882702573
 21
-14.375470716832622
 31
0.0
  0
LINE
  5
113
330
17
100
AcDbEntity
  8
FoilLayer
100
AcDbLine
 10
-42.78050882702573
 20
-14.375470716832622
 30
0.0
 11
-35.82337958767451
 21
-13.94851237453468
 31
0.0
  0
LINE
  5
114
330
17
100
AcDbEntity
  8
FoilLayer
100
AcDbLine
 10
-35.82337958767451
 20
-13.94851237453468
 30
0.0
 11
-28.859376749087147
 21
-13.515792166744662
 31
0.0
  0
LINE
  5
115
330
17
100
AcDbEntity
  8
FoilLayer
100
AcDbLine
 10
-28.859376749087147
 20
-13.515792166744662
 30
0.0
 11
-21.87876392239599
 21
-13.074245405653967
 31
0.0
  0
LINE
  5
116
330
17
100
AcDbEntity
  8
FoilLayer
100
AcDbLine
 10
-21.87876392239599
 20
-13.074245405653967
 30
0.0
 11
-14.881302711299668
 21
-12.628981358997708
 31
0.0
  0
LINE
  5
117
330
17
100
AcDbEntity
  8
FoilLayer
100
AcDbLine
 10
-14.881302711299668
 20
-12.628981358997708
 30
0.0
 11
-7.878173974496519
 21
-12.184967925342193
 31
0.0
  0
LINE
  5
118
330
17
100
AcDbEntity
  8
FoilLayer
100
AcDbLine
 10
-7.878173974496519
 20
-12.184967925342193
 30
0.0
 11
-0.8730935799407575
 21
-11.744282871071515
 31
0.0
  0
LINE
  5
119
330
17
100
AcDbEntity
  8
FoilLayer
100
AcDbLine
 10
-0.8730935799407575
 20
-11.744282871071515
 30
0.0
 11
6.13364082641823
 21
-11.307379505643846
 31
0.0
  0
LINE
  5
11A
330
17
100
AcDbEntity
  8
FoilLayer
100
AcDbLine
 10
6.13364082641823
 20
-11.307379505643846
 30
0.0
 11
13.13968833239494
 21
-10.872493867422307
 31
0.0
  0
LINE
  5
11B
330
17
100
AcDbEntity
  8
FoilLayer
100
AcDbLine
 10
13.13968833239494
 20
-10.872493867422307
 30
0.0
 11
20.139122756793427
 21
-10.435034056865401
 31
0.0
  0
LINE
  5
11C
330
17
100
AcDbEntity
  8
FoilLayer
100
AcDbLine
 10
20.139122756793427
 20
-10.435034056865401
 30
0.0
 11
27.13759043910079
 21
-9.990752733447026
 31
0.0
  0
LINE
  5
11D
330
17
100
AcDbEntity
  8
FoilLayer
100
AcDbLine
 10
27.13759043910079
 20
-9.990752733447026
 30
0.0
 11
34.14213758903878
 21
-9.542599091025345
 31
0.0
  0
LINE
  5
11E
330
17
100
AcDbEntity
  8
FoilLayer
100
AcDbLine
 10
34.14213758903878
 20
-9.542599091025345
 30
0.0
 11
41.14636931587876
 21
-9.09695338569347
 31
0.0
  0
LINE
  5
11F
330
17
100
AcDbEntity
  8
FoilLayer
100
AcDbLine
 10
41.14636931587876
 20
-9.09695338569347
 30
0.0
 11
48.15150126840905
 21
-8.655751715381687
 31
0.0
  0
LINE
  5
120
330
17
100
AcDbEntity
  8
FoilLayer
100
AcDbLine
 10
48.15150126840905
 20
-8.655751715381687
 30
0.0
 11
55.15842137806726
 21
-8.217971835876268
 31
0.0
  0
LINE
  5
121
330
17
100
AcDbEntity
  8
FoilLayer
100
AcDbLine
 10
55.15842137806726
 20
-8.217971835876268
 30
0.0
 11
62.16354720131318
 21
-7.779393104643717
 31
0.0
  0
LINE
  5
122
330
17
100
AcDbEntity
  8
FoilLayer
100
AcDbLine
 10
62.16354720131318
 20
-7.779393104643717
 30
0.0
 11
69.1649669495618
 21
-7.336374966205337
 31
0.0
  0
LINE
  5
123
330
17
100
AcDbEntity
  8
FoilLayer
100
AcDbLine
 10
69.1649669495618
 20
-7.336374966205337
 30
0.0
 11
76.16720647639283
 21
-6.8885371269881315
 31
0.0
  0
LINE
  5
124
330
17
100
AcDbEntity
  8
FoilLayer
100
AcDbLine
 10
76.16720647639283
 20
-6.8885371269881315
 30
0.0
 11
83.16867855842872
 21
-6.438388064939612
 31
0.0
  0
LINE
  5
125
330
17
100
AcDbEntity
  8
FoilLayer
100
AcDbLine
 10
83.16867855842872
 20
-6.438388064939612
 30
0.0
 11
90.1633464153557
 21
-5.990518691918508
 31
0.0
  0
LINE
  5
126
330
17
100
AcDbEntity
  8
FoilLayer
100
AcDbLine
 10
90.1633464153557
 20
-5.990518691918508
 30
0.0
 11
97.14944729364157
 21
-5.548563897801851
 31
0.0
  0
LINE
  5
127
330
17
100
AcDbEntity
  8
FoilLayer
100
AcDbLine
 10
97.14944729364157
 20
-5.548563897801851
 30
0.0
 11
104.13042064720156
 21
-5.113714838716027
 31
0.0
  0
LINE
  5
128
330
17
100
AcDbEntity
  8
FoilLayer
100
AcDbLine
 10
104.13042064720156
 20
-5.113714838716027
 30
0.0
 11
111.11017447448575
 21
-4.685384787455137
 31
0.0
  0
LINE
  5
129
330
17
100
AcDbEntity
  8
FoilLayer
100
AcDbLine
 10
111.11017447448575
 20
-4.685384787455137
 30
0.0
 11
118.0886672151102
 21
-4.261865122063123
 31
0.0
  0
LINE
  5
12A
330
17
100
AcDbEntity
  8
FoilLayer
100
AcDbLine
 10
118.0886672151102
 20
-4.261865122063123
 30
0.0
 11
125.06025451937779
 21
-3.843444278018896
 31
0.0
  0
LINE
  5
12B
330
17
100
AcDbEntity
  8
FoilLayer
100
AcDbLine
 10
125.06025451937779
 20
-3.843444278018896
 30
0.0
 11
132.02254969614063
 21
-3.4321914121714894
 31
0.0
  0
LINE
  5
12C
330
17
100
AcDbEntity
  8
FoilLayer
100
AcDbLine
 10
132.02254969614063
 20
-3.4321914121714894
 30
0.0
 11
138.9786788808393
 21
-3.0307003801858694
 31
0.0
  0
LINE
  5
12D
330
17
100
AcDbEntity
  8
FoilLayer
100
AcDbLine
 10
138.9786788808393
 20
-3.0307003801858694
 30
0.0
 11
145.93854956037484
 21
-2.6403203890130347
 31
0.0
  0
LINE
  5
12E
330
17
100
AcDbEntity
  8
FoilLayer
100
AcDbLine
 10
145.93854956037484
 20
-2.6403203890130347
 30
0.0
 11
152.91440967873228
 21
-2.2575827638015222
 31
0.0
  0
LINE
  5
12F
330
17
100
AcDbEntity
  8
FoilLayer
100
AcDbLine
 10
152.91440967873228
 20
-2.2575827638015222
 30
0.0
 11
159.9044486170941
 21
-1.8769349033723897
 31
0.0
  0
LINE
  5
130
330
17
100
AcDbEntity
  8
FoilLayer
100
AcDbLine
 10
159.9044486170941
 20
-1.8769349033723897
 30
0.0
 11
166.89725921360355
 21
-1.4939295047464807
 31
0.0
  0
LINE
  5
131
330
17
100
AcDbEntity
  8
FoilLayer
100
AcDbLine
 10
166.89725921360355
 20
-1.4939295047464807
 30
0.0
 11
173.8922121733171
 21
-1.1056581261981488
 31
0.0
  0
LINE
  5
132
330
17
100
AcDbEntity
  8
FoilLayer
100
AcDbLine
 10
173.8922121733171
 20
-1.1056581261981488
 30
0.0
 11
180.88822404154092
 21
-0.7155889449106071
 31
0.0
  0
LINE
  5
133
330
17
100
AcDbEntity
  8
FoilLayer
100
AcDbLine
 10
180.88822404154092
 20
-0.7155889449106071
 30
0.0
 11
187.8782365096473
 21
-0.33024818692225993
 31
0.0
  0
LINE
  5
134
330
17
100
AcDbEntity
  8
FoilLayer
100
AcDbLine
 10
187.8782365096473
 20
-0.33024818692225993
 30
0.0
 11
194.86604704632975
 21
0.048355195848839405
 31
0.0
  0
LINE
  5
135
330
17
100
AcDbEntity
  8
FoilLayer
100
AcDbLine
 10
194.86604704632975
 20
0.048355195848839405
 30
0.0
 11
201.8557417478081
 21
0.42131651271798554
 31
0.0
  0
LINE
  5
136
330
17
100
AcDbEntity
  8
FoilLayer
100
AcDbLine
 10
201.8557417478081
 20
0.42131651271798554
 30
0.0
 11
208.84351610456753
 21
0.7936701755496881
 31
0.0
  0
LINE
  5
137
330
17
100
AcDbEntity
  8
FoilLayer
100
AcDbLine
 10
208.84351610456753
 20
0.7936701755496881
 30
0.0
 11
215.82227803458
 21
1.1695925389392503
 31
0.0
  0
LINE
  5
138
330
17
100
AcDbEntity
  8
FoilLayer
100
AcDbLine
 10
215.82227803458
 20
1.1695925389392503
 30
0.0
 11
222.78892073298033
 21
1.544059374279351
 31
0.0
  0
LINE
  5
139
330
17
100
AcDbEntity
  8
FoilLayer
100
AcDbLine
 10
222.78892073298033
 20
1.544059374279351
 30
0.0
 11
229.7370183264374
 21
1.90958447467994
 31
0.0
  0
LINE
  5
13A
330
17
100
AcDbEntity
  8
FoilLayer
100
AcDbLine
 10
229.7370183264374
 20
1.90958447467994
 30
0.0
 11
236.6747715951169
 21
2.2627510595592435
 31
0.0
  0
LINE
  5
13B
330
17
100
AcDbEntity
  8
FoilLayer
100
AcDbLine
 10
236.6747715951169
 20
2.2627510595592435
 30
0.0
 11
243.61493396546655
 21
2.6039830138460247
 31
0.0
  0
LINE
  5
13C
330
17
100
AcDbEntity
  8
FoilLayer
100
AcDbLine
 10
243.61493396546655
 20
2.6039830138460247
 30
0.0
 11
250.5619218128096
 21
2.939725345498922
 31
0.0
  0
LINE
  5
13D
330
17
100
AcDbEntity
  8
FoilLayer
100
AcDbLine
 10
250.5619218128096
 20
2.939725345498922
 30
0.0
 11
257.4988370224089
 21
3.27347278334686
 31
0.0
  0
LINE
  5
13E
330
17
100
AcDbEntity
  8
FoilLayer
100
AcDbLine
 10
257.4988370224089
 20
3.27347278334686
 30
0.0
 11
264.4036752572712
 21
3.603169360276668
 31
0.0
  0
LINE
  5
13F
330
17
100
AcDbEntity
  8
FoilLayer
100
AcDbLine
 10
264.4036752572712
 20
3.603169360276668
 30
0.0
 11
271.25975327281503
 21
3.9217950789070706
 31
0.0
  0
LINE
  5
140
330
17
100
AcDbEntity
  8
FoilLayer
100
AcDbLine
 10
271.25975327281503
 20
3.9217950789070706
 30
0.0
 11
278.0681820627916
 21
4.219333680612204
 31
0.0
  0
LINE
  5
141
330
17
100
AcDbEntity
  8
FoilLayer
100
AcDbLine
 10
278.0681820627916
 20
4.219333680612204
 30
0.0
 11
284.8496683853075
 21
4.494568247939091
 31
0.0
  0
LINE
  5
142
330
17
100
AcDbEntity
  8
FoilLayer
100
AcDbLine
 10
284.8496683853075
 20
4.494568247939091
 30
0.0
 11
291.60119676740874
 21
4.757671604361108
 31
0.0
  0
LINE
  5
143
330
17
100
AcDbEntity
  8
FoilLayer
100
AcDbLine
 10
291.60119676740874
 20
4.757671604361108
 30
0.0
 11
298.28792234575417
 21
5.005054210482619
 31
0.0
  0
LINE
  5
144
330
17
100
AcDbEntity
  8
FoilLayer
100
AcDbLine
 10
298.28792234575417
 20
5.005054210482619
 30
0.0
 11
304.90699391775934
 21
5.218029822543503
 31
0.0
  0
LINE
  5
145
330
17
100
AcDbEntity
  8
FoilLayer
100
AcDbLine
 10
304.90699391775934
 20
5.218029822543503
 30
0.0
 11
311.49221406995525
 21
5.390871725466645
 31
0.0
  0
LINE
  5
146
330
17
100
AcDbEntity
  8
FoilLayer
100
AcDbLine
 10
311.49221406995525
 20
5.390871725466645
 30
0.0
 11
318.0652808826228
 21
5.5314203899433005
 31
0.0
  0
LINE
  5
147
330
17
100
AcDbEntity
  8
FoilLayer
100
AcDbLine
 10
318.0652808826228
 20
5.5314203899433005
 30
0.0
 11
324.6131011069731
 21
5.654919348072986
 31
0.0
  0
LINE
  5
148
330
17
100
AcDbEntity
  8
FoilLayer
100
AcDbLine
 10
324.6131011069731
 20
5.654919348072986
 30
0.0
 11
331.10360801382694
 21
5.78251132801069
 31
0.0
  0
LINE
  5
149
330
17
100
AcDbEntity
  8
FoilLayer
100
AcDbLine
 10
331.10360801382694
 20
5.78251132801069
 30
0.0
 11
337.47337183057846
 21
5.895495334137895
 31
0.0
  0
LINE
  5
14A
330
17
100
AcDbEntity
  8
FoilLayer
100
AcDbLine
 10
337.47337183057846
 20
5.895495334137895
 30
0.0
 11
343.72006930739326
 21
5.9384951802235655
 31
0.0
  0
LINE
  5
14B
330
17
100
AcDbEntity
  8
FoilLayer
100
AcDbLine
 10
343.72006930739326
 20
5.9384951802235655
 30
0.0
 11
349.9479031924691
 21
5.909782501498894
 31
0.0
  0
LINE
  5
14C
330
17
100
AcDbEntity
  8
FoilLayer
100
AcDbLine
 10
349.9479031924691
 20
5.909782501498894
 30
0.0
 11
356.1774049809202
 21
5.879002144460348
 31
0.0
  0
LINE
  5
14D
330
17
100
AcDbEntity
  8
FoilLayer
100
AcDbLine
 10
356.1774049809202
 20
5.879002144460348
 30
0.0
 11
362.3447456797195
 21
5.86114262899898
 31
0.0
  0
LINE
  5
14E
330
17
100
AcDbEntity
  8
FoilLayer
100
AcDbLine
 10
362.3447456797195
 20
5.86114262899898
 30
0.0
 11
368.4297792198586
 21
5.793935558600478
 31
0.0
  0
LINE
  5
14F
330
17
100
AcDbEntity
  8
FoilLayer
100
AcDbLine
 10
368.4297792198586
 20
5.793935558600478
 30
0.0
 11
374.4887370334544
 21
5.656001558800535
 31
0.0
  0
LINE
  5
150
330
17
100
AcDbEntity
  8
FoilLayer
100
AcDbLine
 10
374.4887370334544
 20
5.656001558800535
 30
0.0
 11
380.5319268147349
 21
5.519516605105719
 31
0.0
  0
LINE
  5
151
330
17
100
AcDbEntity
  8
FoilLayer
100
AcDbLine
 10
380.5319268147349
 20
5.519516605105719
 30
0.0
 11
386.5124924813823
 21
5.414140853045657
 31
0.0
  0
LINE
  5
152
330
17
100
AcDbEntity
  8
FoilLayer
100
AcDbLine
 10
386.5124924813823
 20
5.414140853045657
 30
0.0
 11
392.4107603145744
 21
5.2649818103551915
 31
0.0
  0
LINE
  5
153
330
17
100
AcDbEntity
  8
FoilLayer
100
AcDbLine
 10
392.4107603145744
 20
5.2649818103551915
 30
0.0
 11
398.2832789711522
 21
5.012617927979603
 31
0.0
  0
LINE
  5
154
330
17
100
AcDbEntity
  8
FoilLayer
100
AcDbLine
 10
398.2832789711522
 20
5.012617927979603
 30
0.0
 11
404.1954200740163
 21
4.710332465682688
 31
0.0
  0
LINE
  5
155
330
17
100
AcDbEntity
  8
FoilLayer
100
AcDbLine
 10
404.1954200740163
 20
4.710332465682688
 30
0.0
 11
410.0774602829141
 21
4.410661711662355
 31
0.0
  0
LINE
  5
156
330
17
100
AcDbEntity
  8
FoilLayer
100
AcDbLine
 10
410.0774602829141
 20
4.410661711662355
 30
0.0
 11
415.8115943575651
 21
4.089911624007906
 31
0.0
  0
LINE
  5
157
330
17
100
AcDbEntity
  8
FoilLayer
100
AcDbLine
 10
415.8115943575651
 20
4.089911624007906
 30
0.0
 11
421.43032721685177
 21
3.657201845734425
 31
0.0
  0
LINE
  5
158
330
17
100
AcDbEntity
  8
FoilLayer
100
AcDbLine
 10
421.43032721685177
 20
3.657201845734425
 30
0.0
 11
427.0209124013239
 21
3.1654692142404834
 31
0.0
  0
LINE
  5
159
330
17
100
AcDbEntity
  8
FoilLayer
100
AcDbLine
 10
427.0209124013239
 20
3.1654692142404834
 30
0.0
 11
432.5073318781933
 21
2.652277701922432
 31
0.0
  0
LINE
  5
15A
330
17
100
AcDbEntity
  8
FoilLayer
100
AcDbLine
 10
432.5073318781933
 20
2.652277701922432
 30
0.0
 11
437.8129703730101
 21
2.1463581381625145
 31
0.0
  0
LINE
  5
15B
330
17
100
AcDbEntity
  8
FoilLayer
100
AcDbLine
 10
437.8129703730101
 20
2.1463581381625145
 30
0.0
 11
442.8637188692944
 21
1.62437248774077
 31
0.0
  0
LINE
  5
15C
330
17
100
AcDbEntity
  8
FoilLayer
100
AcDbLine
 10
442.8637188692944
 20
1.62437248774077
 30
0.0
 11
447.64249681238334
 21
1.0941864080928143
 31
0.0
  0
LINE
  5
15D
330
17
100
AcDbEntity
  8
FoilLayer
100
AcDbLine
 10
447.64249681238334
 20
1.0941864080928143
 30
0.0
 11
452.1259161276307
 21
0.5989002303481026
 31
0.0
  0
LINE
  5
15E
330
17
100
AcDbEntity
  8
FoilLayer
100
AcDbLine
 10
452.1259161276307
 20
0.5989002303481026
 30
0.0
 11
456.293184058173
 21
0.11352405824827022
 31
0.0
  0
LINE
  5
15F
330
17
100
AcDbEntity
  8
FoilLayer
100
AcDbLine
 10
456.293184058173
 20
0.11352405824827022
 30
0.0
 11
460.1329712664067
 21
-0.35081286633131276
 31
0.0
  0
LINE
  5
160
330
17
100
AcDbEntity
  8
FoilLayer
100
AcDbLine
 10
460.1329712664067
 20
-0.35081286633131276
 30
0.0
 11
462.50718465472323
 21
-0.662722523224293
 31
0.0
  0
LINE
  5
161
330
17
100
AcDbEntity
  8
FoilLayer
100
AcDbLine
 10
462.50718465472323
 20
-0.662722523224293
 30
0.0
 11
462.3628341793885
 21
0.6819312704449985
 31
0.0
  0
LINE
  5
162
330
17
100
AcDbEntity
  8
StringerLayer
100
AcDbLine
 10
200.40760747504964
 20
65.98978178147699
 30
0.0
 11
204.32143554594518
 21
65.16397924365701
 31
0.0
  0
LINE
  5
163
330
17
100
AcDbEntity
  8
StringerLayer
100
AcDbLine
 10
204.32143554594518
 20
65.16397924365701
 30
0.0
 11
205.14723808376516
 21
69.07780731455257
 31
0.0
  0
LINE
  5
164
330
17
100
AcDbEntity
  8
StringerLayer
100
AcDbLine
 10
205.14723808376516
 20
69.07780731455257
 30
0.0
 11
201.23341001286963
 21
69.90360985237255
 31
0.0
  0
LINE
  5
165
330
17
100
AcDbEntity
  8
StringerLayer
100
AcDbLine
 10
201.23341001286963
 20
69.90360985237255
 30
0.0
 11
200.40760747504964
 21
65.98978178147699
 31
0.0
  0
LINE
  5
166
330
17
100
AcDbEntity
  8
StringerLayer
100
AcDbLine
 10
-79.10011652217094
 20
80.72392112198771
 30
0.0
 11
-75.12307302285555
 21
81.15185219652348
 31
0.0
  0
LINE
  5
167
330
17
100
AcDbEntity
  8
StringerLayer
100
AcDbLine
 10
-75.12307302285555
 20
81.15185219652348
 30
0.0
 11
-75.5510040973913
 21
85.12889569583885
 31
0.0
  0
LINE
  5
168
330
17
100
AcDbEntity
  8
StringerLayer
100
AcDbLine
 10
-75.5510040973913
 20
85.12889569583885
 30
0.0
 11
-79.52804759670668
 21
84.70096462130309
 31
0.0
  0
LINE
  5
169
330
17
100
AcDbEntity
  8
StringerLayer
100
AcDbLine
 10
-79.52804759670668
 20
84.70096462130309
 30
0.0
 11
-79.10011652217094
 21
80.72392112198771
 31
0.0
  0
LINE
  5
16A
330
17
100
AcDbEntity
  8
StringerLayer
100
AcDbLine
 10
-203.35679094312914
 20
52.05491846820431
 30
0.0
 11
-199.63219320134786
 21
53.51346968839437
 31
0.0
  0
LINE
  5
16B
330
17
100
AcDbEntity
  8
StringerLayer
100
AcDbLine
 10
-199.63219320134786
 20
53.51346968839437
 30
0.0
 11
-201.09074442153792
 21
57.23806743017563
 31
0.0
  0
LINE
  5
16C
330
17
100
AcDbEntity
  8
StringerLayer
100
AcDbLine
 10
-201.09074442153792
 20
57.23806743017563
 30
0.0
 11
-204.8153421633192
 21
55.77951620998557
 31
0.0
  0
LINE
  5
16D
330
17
100
AcDbEntity
  8
StringerLayer
100
AcDbLine
 10
-204.8153421633192
 20
55.77951620998557
 30
0.0
 11
-203.35679094312914
 21
52.05491846820431
 31
0.0
  0
LINE
  5
16E
330
17
100
AcDbEntity
  8
StringerLayer
100
AcDbLine
 10
-263.09449822893157
 20
15.878966284875682
 30
0.0
 11
-261.7191721094058
 21
17.331026223359714
 31
0.0
  0
LINE
  5
16F
330
17
100
AcDbEntity
  8
StringerLayer
100
AcDbLine
 10
-261.7191721094058
 20
17.331026223359714
 30
0.0
 11
-264.6232919863739
 21
20.081678462411205
 31
0.0
  0
LINE
  5
170
330
17
100
AcDbEntity
  8
StringerLayer
100
AcDbLine
 10
-264.6232919863739
 20
20.081678462411205
 30
0.0
 11
-265.99861810589965
 21
18.62961852392717
 31
0.0
  0
LINE
  5
171
330
17
100
AcDbEntity
  8
StringerLayer
100
AcDbLine
 10
-265.99861810589965
 20
18.62961852392717
 30
0.0
 11
-263.09449822893157
 21
15.878966284875682
 31
0.0
  0
LINE
  5
172
330
17
100
AcDbEntity
  8
StringerLayer
100
AcDbLine
 10
-266.53021903458415
 20
-6.378869434664023
 30
0.0
 11
-268.27296691838905
 21
-5.3976305170228835
 31
0.0
  0
LINE
  5
173
330
17
100
AcDbEntity
  8
StringerLayer
100
AcDbLine
 10
-268.27296691838905
 20
-5.3976305170228835
 30
0.0
 11
-270.23544475367135
 21
-8.883126284632676
 31
0.0
  0
LINE
  5
174
330
17
100
AcDbEntity
  8
StringerLayer
100
AcDbLine
 10
-270.23544475367135
 20
-8.883126284632676
 30
0.0
 11
-268.49269686986645
 21
-9.864365202273815
 31
0.0
  0
LINE
  5
175
330
17
100
AcDbEntity
  8
StringerLayer
100
AcDbLine
 10
-268.49269686986645
 20
-9.864365202273815
 30
0.0
 11
-266.53021903458415
 21
-6.378869434664023
 31
0.0
  0
LINE
  5
176
330
17
100
AcDbEntity
  8
StringerLayer
100
AcDbLine
 10
-164.6113365691212
 20
-15.087657777943809
 30
0.0
 11
-168.61052290576032
 21
-15.168333950628087
 31
0.0
  0
LINE
  5
177
330
17
100
AcDbEntity
  8
StringerLayer
100
AcDbLine
 10
-168.61052290576032
 20
-15.168333950628087
 30
0.0
 11
-168.52984673307603
 21
-19.167520287267205
 31
0.0
  0
LINE
  5
178
330
17
100
AcDbEntity
  8
StringerLayer
100
AcDbLine
 10
-168.52984673307603
 20
-19.167520287267205
 30
0.0
 11
-164.5306603964369
 21
-19.086844114582927
 31
0.0
  0
LINE
  5
179
330
17
100
AcDbEntity
  8
StringerLayer
100
AcDbLine
 10
-164.5306603964369
 20
-19.086844114582927
 30
0.0
 11
-164.6113365691212
 21
-15.087657777943809
 31
0.0
  0
LINE
  5
17A
330
17
100
AcDbEntity
  8
SubLayer
100
AcDbLine
 10
-277.4999999999998
 20
0.0
 30
0.0
 11
-273.4999999999998
 21
0.0
 31
0.0
  0
LINE
  5
17B
330
17
100
AcDbEntity
  8
SubLayer
100
AcDbLine
 10
53.5
 20
0.0
 30
0.0
 11
64.89999999999998
 21
0.0
 31
0.0
  0
LINE
  5
17C
330
17
100
AcDbEntity
  8
SubLayer
100
AcDbLine
 10
-37.80024877041955
 20
36.47609633273832
 30
0.0
 11
-29.82382675260419
 21
37.08984855775287
 31
0.0
  0
LINE
  5
17D
330
17
100
AcDbEntity
  8
SubLayer
100
AcDbLine
 10
29.82382675260419
 20
41.679485361566975
 30
0.0
 11
37.80024877041955
 21
42.293237586581526
 31
0.0
  0
LINE
  5
17E
330
17
100
AcDbEntity
  8
SubLayer
100
AcDbLine
 10
-2.6973608575545485
 20
74.43999980783232
 30
0.0
 11
-2.083608632539999
 21
66.46357779001696
 31
0.0
  0
LINE
  5
17F
330
17
100
AcDbEntity
  8
SubLayer
100
AcDbLine
 10
2.6973608575545485
 20
4.329334111487519
 30
0.0
 11
2.083608632539999
 21
12.305756129302885
 31
0.0
  0
LINE
  5
180
330
17
100
AcDbEntity
  8
SubLayer
100
AcDbLine
 10
-35.652705209712074
 20
34.63542888453812
 30
0.0
 11
-31.664494200804395
 21
34.9423049970454
 31
0.0
  0
LINE
  5
181
330
17
100
AcDbEntity
  8
SubLayer
100
AcDbLine
 10
-31.664494200804395
 20
34.9423049970454
 30
0.0
 11
-31.97137031331167
 21
38.93051600595307
 31
0.0
  0
LINE
  5
182
330
17
100
AcDbEntity
  8
SubLayer
100
AcDbLine
 10
-31.97137031331167
 20
38.93051600595307
 30
0.0
 11
-35.95958132221935
 21
38.6236398934458
 31
0.0
  0
LINE
  5
183
330
17
100
AcDbEntity
  8
SubLayer
100
AcDbLine
 10
-35.95958132221935
 20
38.6236398934458
 30
0.0
 11
-35.652705209712074
 21
34.63542888453812
 31
0.0
  0
LINE
  5
184
330
17
100
AcDbEntity
  8
SubLayer
100
AcDbLine
 10
31.97137031331167
 20
39.838817913366775
 30
0.0
 11
35.95958132221935
 21
40.14569402587405
 31
0.0
  0
LINE
  5
185
330
17
100
AcDbEntity
  8
SubLayer
100
AcDbLine
 10
35.95958132221935
 20
40.14569402587405
 30
0.0
 11
35.652705209712074
 21
44.133905034781726
 31
0.0
  0
LINE
  5
186
330
17
100
AcDbEntity
  8
SubLayer
100
AcDbLine
 10
35.652705209712074
 20
44.133905034781726
 30
0.0
 11
31.664494200804395
 21
43.82702892227445
 31
0.0
  0
LINE
  5
187
330
17
100
AcDbEntity
  8
SubLayer
100
AcDbLine
 10
31.664494200804395
 20
43.82702892227445
 30
0.0
 11
31.97137031331167
 21
39.838817913366775
 31
0.0
  0
LINE
  5
188
330
17
100
AcDbEntity
  8
SubLayer
100
AcDbLine
 10
-4.2311521932474765
 20
68.30424523821716
 30
0.0
 11
-0.2429411843397955
 21
68.61112135072443
 31
0.0
  0
LINE
  5
189
330
17
100
AcDbEntity
  8
SubLayer
100
AcDbLine
 10
-0.2429411843397955
 20
68.61112135072443
 30
0.0
 11
-0.5498172968470703
 21
72.59933235963211
 31
0.0
  0
LINE
  5
18A
330
17
100
AcDbEntity
  8
SubLayer
100
AcDbLine
 10
-0.5498172968470703
 20
72.59933235963211
 30
0.0
 11
-4.538028305754752
 21
72.29245624712485
 31
0.0
  0
LINE
  5
18B
330
17
100
AcDbEntity
  8
SubLayer
100
AcDbLine
 10
-4.538028305754752
 20
72.29245624712485
 30
0.0
 11
-4.2311521932474765
 21
68.30424523821716
 31
0.0
  0
LINE
  5
18C
330
17
100
AcDbEntity
  8
SubLayer
100
AcDbLine
 10
0.5498172968470703
 20
6.170001559687725
 30
0.0
 11
4.538028305754752
 21
6.476877672194999
 31
0.0
  0
LINE
  5
18D
330
17
100
AcDbEntity
  8
SubLayer
100
AcDbLine
 10
4.538028305754752
 20
6.476877672194999
 30
0.0
 11
4.2311521932474765
 21
10.46508868110268
 31
0.0
  0
LINE
  5
18E
330
17
100
AcDbEntity
  8
SubLayer
100
AcDbLine
 10
4.2311521932474765
 20
10.46508868110268
 30
0.0
 11
0.2429411843397955
 21
10.158212568595406
 31
0.0
  0
LINE
  5
18F
330
17
100
AcDbEntity
  8
SubLayer
100
AcDbLine
 10
0.2429411843397955
 20
10.158212568595406
 30
0.0
 11
0.5498172968470703
 21
6.170001559687725
 31
0.0
  0
LINE
  5
190
330
17
100
AcDbEntity
  8
SubLayer
100
AcDbLine
 10
312.97832318089996
 20
42.85688354850082
 30
0.0
 11
316.96653418980765
 21
43.163759661008086
 31
0.0
  0
LINE
  5
191
330
17
100
AcDbEntity
  8
SubLayer
100
AcDbLine
 10
-277.7190839518808
 20
-2.594804831117368
 30
0.0
 11
-273.7308729429731
 21
-2.2879287186100936
 31
0.0
  0
LINE
  5
192
330
17
100
AcDbEntity
  8
SubLayer
100
AcDbLine
 10
-160.5766552775516
 20
6.41881381667945
 30
0.0
 11
-154.59433876419007
 21
6.879127985440362
 31
0.0
  0
LINE
  5
193
330
17
100
AcDbEntity
  8
SubLayer
100
AcDbLine
 10
193.84178900211688
 20
33.68982684445036
 30
0.0
 11
199.8241055154784
 21
34.150141013211275
 31
0.0
  0
LINE
  5
194
330
17
100
AcDbEntity
  8
SubLayer
100
AcDbLine
 10
16.63256686228266
 20
20.054320330564906
 30
0.0
 11
22.614883375644183
 21
20.514634499325815
 31
0.0
  0
LINE
  5
195
330
17
100
AcDbEntity
  8
SubLayer
100
AcDbLine
 10
-155.43795346016336
 20
4.808303452859703
 30
0.0
 11
-155.74482957267062
 21
8.796514461767384
 31
0.0
  0
LINE
  5
196
330
17
100
AcDbEntity
  8
SubLayer
100
AcDbLine
 10
-155.74482957267062
 20
8.796514461767384
 30
0.0
 11
-159.7330405815783
 21
8.489638349260108
 31
0.0
  0
LINE
  5
197
330
17
100
AcDbEntity
  8
SubLayer
100
AcDbLine
 10
-159.7330405815783
 20
8.489638349260108
 30
0.0
 11
-159.42616446907104
 21
4.5014273403524285
 31
0.0
  0
LINE
  5
198
330
17
100
AcDbEntity
  8
SubLayer
100
AcDbLine
 10
-159.42616446907104
 20
4.5014273403524285
 30
0.0
 11
-155.43795346016336
 21
4.808303452859703
 31
0.0
  0
LINE
  5
199
330
17
100
AcDbEntity
  8
SubLayer
100
AcDbLine
 10
198.98049081950512
 20
32.07931648063062
 30
0.0
 11
198.67361470699785
 21
36.06752748953829
 31
0.0
  0
LINE
  5
19A
330
17
100
AcDbEntity
  8
SubLayer
100
AcDbLine
 10
198.67361470699785
 20
36.06752748953829
 30
0.0
 11
194.68540369809017
 21
35.76065137703102
 31
0.0
  0
LINE
  5
19B
330
17
100
AcDbEntity
  8
SubLayer
100
AcDbLine
 10
194.68540369809017
 20
35.76065137703102
 30
0.0
 11
194.99227981059744
 21
31.772440368123338
 31
0.0
  0
LINE
  5
19C
330
17
100
AcDbEntity
  8
SubLayer
100
AcDbLine
 10
194.99227981059744
 20
31.772440368123338
 30
0.0
 11
198.98049081950512
 21
32.07931648063062
 31
0.0
  0
LINE
  5
19D
330
17
100
AcDbEntity
  8
SubLayer
100
AcDbLine
 10
21.7712686796709
 20
18.443809966745157
 30
0.0
 11
21.464392567163625
 21
22.43202097565284
 31
0.0
  0
LINE
  5
19E
330
17
100
AcDbEntity
  8
SubLayer
100
AcDbLine
 10
21.464392567163625
 20
22.43202097565284
 30
0.0
 11
17.47618155825594
 21
22.125144863145564
 31
0.0
  0
LINE
  5
19F
330
17
100
AcDbEntity
  8
SubLayer
100
AcDbLine
 10
17.47618155825594
 20
22.125144863145564
 30
0.0
 11
17.783057670763217
 21
18.13693385423788
 31
0.0
  0
LINE
  5
1A0
330
17
100
AcDbEntity
  8
SubLayer
100
AcDbLine
 10
17.783057670763217
 20
18.13693385423788
 30
0.0
 11
21.7712686796709
 21
18.443809966745157
 31
0.0
  0
LINE
  5
1A1
330
17
100
AcDbEntity
  8
SubLayer
100
AcDbLine
 10
443.39363831994626
 20
5.932690324472425
 30
0.0
 11
443.7139556453535
 21
6.880000627933734
 31
0.0
  0
LINE
  5
1A2
330
17
100
AcDbEntity
  8
SubLayer
100
AcDbLine
 10
442.5272226874298
 20
1.156587619185887
 30
0.0
 11
442.60996638866766
 21
2.1531584796396004
 31
0.0
  0
LINE
  5
1A3
330
17
100
AcDbEntity
  8
SubLayer
100
AcDbLine
 10
424.2199459354613
 20
11.61395450395695
 30
0.0
 11
424.5222104318825
 21
12.567178598387656
 31
0.0
  0
LINE
  5
1A4
330
17
100
AcDbEntity
  8
SubLayer
100
AcDbLine
 10
422.61340947569903
 20
3.0512110742922687
 30
0.0
 11
422.7021404481124
 21
4.0472667025252385
 31
0.0
  0
LINE
  5
1A5
330
17
100
AcDbEntity
  8
SubLayer
100
AcDbLine
 10
385.7974471168042
 20
22.73693702233672
 30
0.0
 11
386.087639882632
 21
23.69390523427544
 31
0.0
  0
LINE
  5
1A6
330
17
100
AcDbEntity
  8
SubLayer
100
AcDbLine
 10
382.6538928834823
 20
4.98269966359074
 30
0.0
 11
382.72241205766295
 21
5.980349463254727
 31
0.0
  0
LINE
  5
1A7
330
17
100
AcDbEntity
  8
SubLayer
100
AcDbLine
 10
-153.21263008271015
 20
75.37410227063754
 30
0.0
 11
-152.90575397020288
 21
71.38589126172985
 31
0.0
  0
LINE
  5
1A8
330
17
100
AcDbEntity
  8
SubLayer
100
AcDbLine
 10
-146.0238476490096
 20
-18.052463285347244
 30
0.0
 11
-145.71697153650234
 21
-22.040674294254927
 31
0.0
  0
LINE
  5
1A9
330
17
100
AcDbEntity
  8
SubLayer
100
AcDbLine
 10
-147.53832316387656
 20
1.6299025780766332
 30
0.0
 11
-147.07800899511562
 21
-4.352413935284888
 31
0.0
  0
LINE
  5
1AA
330
17
100
AcDbEntity
  8
SubLayer
100
AcDbLine
 10
-151.85159262409687
 20
57.68584191166751
 30
0.0
 11
-151.39127845533594
 21
51.703525398305985
 31
0.0
  0
LINE
  5
1AB
330
17
100
AcDbEntity
  8
SubLayer
100
AcDbLine
 10
-149.6949578939867
 20
29.657872244872067
 30
0.0
 11
-149.23464372522577
 21
23.675555731510542
 31
0.0
  0
LINE
  5
1AC
330
17
100
AcDbEntity
  8
SubLayer
100
AcDbLine
 10
-149.1488335276963
 20
-3.5087992393116054
 30
0.0
 11
-145.1606225187886
 21
-3.2019231268043304
 31
0.0
  0
LINE
  5
1AD
330
17
100
AcDbEntity
  8
SubLayer
100
AcDbLine
 10
-145.1606225187886
 20
-3.2019231268043304
 30
0.0
 11
-145.46749863129588
 21
0.7862878821033505
 31
0.0
  0
LINE
  5
1AE
330
17
100
AcDbEntity
  8
SubLayer
100
AcDbLine
 10
-145.46749863129588
 20
0.7862878821033505
 30
0.0
 11
-149.45570964020357
 21
0.4794117695960758
 31
0.0
  0
LINE
  5
1AF
330
17
100
AcDbEntity
  8
SubLayer
100
AcDbLine
 10
-149.45570964020357
 20
0.4794117695960758
 30
0.0
 11
-149.1488335276963
 21
-3.5087992393116054
 31
0.0
  0
LINE
  5
1B0
330
17
100
AcDbEntity
  8
SubLayer
100
AcDbLine
 10
-153.4621029879166
 20
52.54714009427927
 30
0.0
 11
-149.47389197900893
 21
52.85401620678655
 31
0.0
  0
LINE
  5
1B1
330
17
100
AcDbEntity
  8
SubLayer
100
AcDbLine
 10
-149.47389197900893
 20
52.85401620678655
 30
0.0
 11
-149.7807680915162
 21
56.84222721569422
 31
0.0
  0
LINE
  5
1B2
330
17
100
AcDbEntity
  8
SubLayer
100
AcDbLine
 10
-149.7807680915162
 20
56.84222721569422
 30
0.0
 11
-153.76897910042388
 21
56.53535110318695
 31
0.0
  0
LINE
  5
1B3
330
17
100
AcDbEntity
  8
SubLayer
100
AcDbLine
 10
-153.76897910042388
 20
56.53535110318695
 30
0.0
 11
-153.4621029879166
 21
52.54714009427927
 31
0.0
  0
LINE
  5
1B4
330
17
100
AcDbEntity
  8
SubLayer
100
AcDbLine
 10
-151.30546825780644
 20
24.519170427483825
 30
0.0
 11
-147.31725724889876
 21
24.8260465399911
 31
0.0
  0
LINE
  5
1B5
330
17
100
AcDbEntity
  8
SubLayer
100
AcDbLine
 10
-147.31725724889876
 20
24.8260465399911
 30
0.0
 11
-147.62413336140602
 21
28.814257548898784
 31
0.0
  0
LINE
  5
1B6
330
17
100
AcDbEntity
  8
SubLayer
100
AcDbLine
 10
-147.62413336140602
 20
28.814257548898784
 30
0.0
 11
-151.6123443703137
 21
28.50738143639151
 31
0.0
  0
LINE
  5
1B7
330
17
100
AcDbEntity
  8
SubLayer
100
AcDbLine
 10
-151.6123443703137
 20
28.50738143639151
 30
0.0
 11
-151.30546825780644
 21
24.519170427483825
 31
0.0
  0
LINE
  5
1B8
330
17
100
AcDbEntity
  8
SubLayer
100
AcDbLine
 10
96.48699321551217
 20
88.88187714454705
 30
0.0
 11
96.79386932801944
 21
84.89366613563936
 31
0.0
  0
LINE
  5
1B9
330
17
100
AcDbEntity
  8
SubLayer
100
AcDbLine
 10
103.60260887369583
 20
-3.5938013019177797
 30
0.0
 11
103.9094849862031
 21
-7.582012310825461
 31
0.0
  0
LINE
  5
1BA
330
17
100
AcDbEntity
  8
SubLayer
100
AcDbLine
 10
102.1027667139323
 20
15.898387139602107
 30
0.0
 11
102.5630808826932
 21
9.916070626240586
 31
0.0
  0
LINE
  5
1BB
330
17
100
AcDbEntity
  8
SubLayer
100
AcDbLine
 10
97.8333973190221
 20
71.38379420748102
 30
0.0
 11
98.293711487783
 21
65.40147769411949
 31
0.0
  0
LINE
  5
1BC
330
17
100
AcDbEntity
  8
SubLayer
100
AcDbLine
 10
99.96808201647718
 20
43.641090673541555
 30
0.0
 11
100.42839618523809
 21
37.65877416018003
 31
0.0
  0
LINE
  5
1BD
330
17
100
AcDbEntity
  8
SubLayer
100
AcDbLine
 10
100.49225635011254
 20
10.759685322213869
 30
0.0
 11
104.48046735902022
 21
11.066561434721143
 31
0.0
  0
LINE
  5
1BE
330
17
100
AcDbEntity
  8
SubLayer
100
AcDbLine
 10
104.48046735902022
 20
11.066561434721143
 30
0.0
 11
104.17359124651296
 21
15.054772443628824
 31
0.0
  0
LINE
  5
1BF
330
17
100
AcDbEntity
  8
SubLayer
100
AcDbLine
 10
104.17359124651296
 20
15.054772443628824
 30
0.0
 11
100.18538023760527
 21
14.74789633112155
 31
0.0
  0
LINE
  5
1C0
330
17
100
AcDbEntity
  8
SubLayer
100
AcDbLine
 10
100.18538023760527
 20
14.74789633112155
 30
0.0
 11
100.49225635011254
 21
10.759685322213869
 31
0.0
  0
LINE
  5
1C1
330
17
100
AcDbEntity
  8
SubLayer
100
AcDbLine
 10
96.22288695520234
 20
66.24509239009278
 30
0.0
 11
100.21109796411002
 21
66.55196850260005
 31
0.0
  0
LINE
  5
1C2
330
17
100
AcDbEntity
  8
SubLayer
100
AcDbLine
 10
100.21109796411002
 20
66.55196850260005
 30
0.0
 11
99.90422185160276
 21
70.54017951150773
 31
0.0
  0
LINE
  5
1C3
330
17
100
AcDbEntity
  8
SubLayer
100
AcDbLine
 10
99.90422185160276
 20
70.54017951150773
 30
0.0
 11
95.91601084269507
 21
70.23330339900046
 31
0.0
  0
LINE
  5
1C4
330
17
100
AcDbEntity
  8
SubLayer
100
AcDbLine
 10
95.91601084269507
 20
70.23330339900046
 30
0.0
 11
96.22288695520234
 21
66.24509239009278
 31
0.0
  0
LINE
  5
1C5
330
17
100
AcDbEntity
  8
SubLayer
100
AcDbLine
 10
98.35757165265743
 20
38.50238885615332
 30
0.0
 11
102.34578266156511
 21
38.80926496866059
 31
0.0
  0
LINE
  5
1C6
330
17
100
AcDbEntity
  8
SubLayer
100
AcDbLine
 10
102.34578266156511
 20
38.80926496866059
 30
0.0
 11
102.03890654905784
 21
42.79747597756827
 31
0.0
  0
LINE
  5
1C7
330
17
100
AcDbEntity
  8
SubLayer
100
AcDbLine
 10
102.03890654905784
 20
42.79747597756827
 30
0.0
 11
98.05069554015016
 21
42.49059986506099
 31
0.0
  0
LINE
  5
1C8
330
17
100
AcDbEntity
  8
SubLayer
100
AcDbLine
 10
98.05069554015016
 20
42.49059986506099
 30
0.0
 11
98.35757165265743
 21
38.50238885615332
 31
0.0
  0
ENDSEC
  0
SECTION
  2
OBJECTS
  0
DICTIONARY
  5
A
330
0
100
AcDbDictionary
280
0
281
1
  3
ACAD_COLOR
350
B
  3
ACAD_GROUP
350
C
  3
ACAD_LAYOUT
350
D
  3
ACAD_MATERIAL
350
E
  3
ACAD_MLEADERSTYLE
350
F
  3
ACAD_MLINESTYLE
350
10
  3
ACAD_PLOTSETTINGS
350
11
  3
ACAD_PLOTSTYLENAME
350
12
  3
ACAD_SCALELIST
350
14
  3
ACAD_TABLESTYLE
350
15
  3
ACAD_VISUALSTYLE
350
16
  3
EZDXF_META
350
2D
  0
DICTIONARY
  5
B
330
A
100
AcDbDictionary
280
0
281
1
  0
DICTIONARY
  5
C
330
A
100
AcDbDictionary
280
0
281
1
  0
DICTIONARY
  5
D
330
A
100
AcDbDictionary
280
0
281
1
  3
Model
350
1A
  3
Layout1
350
1E
  0
DICTIONARY
  5
E
330
A
100
AcDbDictionary
280
0
281
1
  3
ByBlock
350
1F
  3
ByLayer
350
20
  3
Global
350
21
  0
DICTIONARY
  5
F
330
A
100
AcDbDictionary
280
0
281
1
  3
Standard
350
2C
  0
DICTIONARY
  5
10
330
A
100
AcDbDictionary
280
0
281
1
  3
Standard
350
22
  0
DICTIONARY
  5
11
330
A
100
AcDbDictionary
280
0
281
1
  0
ACDBDICTIONARYWDFLT
  5
12
330
A
100
AcDbDictionary
280
0
281
1
  3
Normal
350
13
100
AcDbDictionaryWithDefault
340
13
  0
ACDBPLACEHOLDER
  5
13
330
12
  0
DICTIONARY
  5
14
330
A
100
AcDbDictionary
280
0
281
1
  0
DICTIONARY
  5
15
330
A
100
AcDbDictionary
280
0
281
1
  0
DICTIONARY
  5
16
330
A
100
AcDbDictionary
280
0
281
1
  0
LAYOUT
  5
1A
330
D
100
AcDbPlotSettings
  1

  2
Adobe PDF
  4
A3
  6

 40
7.5
 41
20.0
 42
7.5
 43
20.0
 44
420.0
 45
297.0
 46
0.0
 47
0.0
 48
0.0
 49
0.0
140
0.0
141
0.0
142
1.0
143
1.0
 70
1024
 72
1
 73
0
 74
5
  7

 75
16
 76
0
 77
2
 78
300
147
1.0
148
0.0
149
0.0
100
AcDbLayout
  1
Model
 70
1
 71
0
 10
0.0
 20
0.0
 11
420.0
 21
297.0
 12
0.0
 22
0.0
 32
0.0
 14
1e+20
 24
1e+20
 34
1e+20
 15
-1e+20
 25
-1e+20
 35
-1e+20
146
0.0
 13
0.0
 23
0.0
 33
0.0
 16
1.0
 26
0.0
 36
0.0
 17
0.0
 27
1.0
 37
0.0
 76
1
330
17
  0
LAYOUT
  5
1E
330
D
100
AcDbPlotSettings
  1

  2
Adobe PDF
  4
A3
  6

 40
7.5
 41
20.0
 42
7.5
 43
20.0
 44
420.0
 45
297.0
 46
0.0
 47
0.0
 48
0.0
 49
0.0
140
0.0
141
0.0
142
1.0
143
1.0
 70
0
 72
1
 73
0
 74
5
  7

 75
16
 76
0
 77
2
 78
300
147
1.0
148
0.0
149
0.0
100
AcDbLayout
  1
Layout1
 70
1
 71
1
 10
0.0
 20
0.0
 11
420.0
 21
297.0
 12
0.0
 22
0.0
 32
0.0
 14
1e+20
 24
1e+20
 34
1e+20
 15
-1e+20
 25
-1e+20
 35
-1e+20
146
0.0
 13
0.0
 23
0.0
 33
0.0
 16
1.0
 26
0.0
 36
0.0
 17
0.0
 27
1.0
 37
0.0
 76
1
330
1B
  0
MATERIAL
  5
1F
102
{ACAD_REACTORS
330
E
102
}
330
E
100
AcDbMaterial
  1
ByBlock
  2

 70
0
 40
1.0
 71
1
 41
1.0
 91
-1023410177
 42
1.0
 72
1
  3

 73
1
 74
1
 75
1
 44
0.5
 73
0
 45
1.0
 46
1.0
 77
1
  4

 78
1
 79
1
170
1
 48
1.0
171
1
  6

172
1
173
1
174
1
140
1.0
141
1.0
175
1
  7

176
1
177
1
178
1
143
1.0
179
1
  8

270
1
271
1
272
1
145
1.0
146
1.0
273
1
  9

274
1
275
1
276
1
 42
1.0
 72
1
  3

 73
1
 74
1
 75
1
 94
63
  0
MATERIAL
  5
20
102
{ACAD_REACTORS
330
E
102
}
330
E
100
AcDbMaterial
  1
ByLayer
  2

 70
0
 40
1.0
 71
1
 41
1.0
 91
-1023410177
 42
1.0
 72
1
  3

 73
1
 74
1
 75
1
 44
0.5
 73
0
 45
1.0
 46
1.0
 77
1
  4

 78
1
 79
1
170
1
 48
1.0
171
1
  6

172
1
173
1
174
1
140
1.0
141
1.0
175
1
  7

176
1
177
1
178
1
143
1.0
179
1
  8

270
1
271
1
272
1
145
1.0
146
1.0
273
1
  9

274
1
275
1
276
1
 42
1.0
 72
1
  3

 73
1
 74
1
 75
1
 94
63
  0
MATERIAL
  5
21
102
{ACAD_REACTORS
330
E
102
}
330
E
100
AcDbMaterial
  1
Global
  2

 70
0
 40
1.0
 71
1
 41
1.0
 91
-1023410177
 42
1.0
 72
1
  3

 73
1
 74
1
 75
1
 44
0.5
 73
0
 45
1.0
 46
1.0
 77
1
  4

 78
1
 79
1
170
1
 48
1.0
171
1
  6

172
1
173
1
174
1
140
1.0
141
1.0
175
1
  7

176
1
177
1
178
1
143
1.0
179
1
  8

270
1
271
1
272
1
145
1.0
146
1.0
273
1
  9

274
1
275
1
276
1
 42
1.0
 72
1
  3

 73
1
 74
1
 75
1
 94
63
  0
MLINESTYLE
  5
22
102
{ACAD_REACTORS
330
10
102
}
330
10
100
AcDbMlineStyle
  2
Standard
 70
0
  3

 62
256
 51
90.0
 52
90.0
 71
2
 49
0.5
 62
256
  6
BYLAYER
 49
-0.5
 62
256
  6
BYLAYER
  0
MLEADERSTYLE
  5
2C
102
{ACAD_REACTORS
330
F
102
}
330
F
100
AcDbMLeaderStyle
179
2
170
2
171
1
172
0
 90
2
 40
0.0
 41
0.0
173
1
 91
-1056964608
 92
-2
290
1
 42
2.0
291
1
 43
8.0
  3
Standard
 44
4.0
300

342
29
174
1
175
1
176
0
178
1
 93
-1056964608
 45
4.0
292
0
297
0
 46
4.0
 94
-1056964608
 47
1.0
 49
1.0
140
1.0
294
1
141
0.0
177
0
142
1.0
295
0
296
0
143
3.75
271
0
272
9
273
9
  0
DICTIONARY
  5
2D
330
A
100
AcDbDictionary
281
1
  3
CREATED_BY_EZDXF
350
2E
  3
WRITTEN_BY_EZDXF
350
1CB
  0
DICTIONARYVAR
  5
2E
330
2D
100
DictionaryVariables
280
0
  1
1.0.2 @ 2024-03-22T07:41:34.343033+00:00
  0
DICTIONARYVAR
  5
1CB
330
2D
100
DictionaryVariables
280
0
  1
1.0.2 @ 2024-03-22T07:41:34.353051+00:00
  0
ENDSEC
  0
EOF
