  0
SECTION
  2
HEADER
  9
$ACADVER
  1
AC1027
  9
$ACADMAINTVER
 70
105
  9
$DWGCODEPAGE
  3
ANSI_1252
  9
$LASTSAVEDBY
  1
ezdxf
  9
$REQUIREDVERSIONS
160
0
  9
$INSBASE
 10
0.0
 20
0.0
 30
0.0
  9
$EXTMIN
 10
1e+20
 20
1e+20
 30
1e+20
  9
$EXTMAX
 10
-1e+20
 20
-1e+20
 30
-1e+20
  9
$LIMMIN
 10
0.0
 20
0.0
  9
$LIMMAX
 10
420.0
 20
297.0
  9
$ORTHOMODE
 70
0
  9
$REGENMODE
 70
1
  9
$FILLMODE
 70
1
  9
$QTEXTMODE
 70
0
  9
$MIRRTEXT
 70
1
  9
$LTSCALE
 40
1.0
  9
$ATTMODE
 70
1
  9
$TEXTSIZE
 40
2.5
  9
$TRACEWID
 40
1.0
  9
$TEXTSTYLE
  7
Standard
  9
$CLAYER
  8
0
  9
$CELTYPE
  6
ByLayer
  9
$CECOLOR
 62
256
  9
$CELTSCALE
 40
1.0
  9
$DISPSILH
 70
0
  9
$DIMSCALE
 40
1.0
  9
$DIMASZ
 40
2.5
  9
$DIMEXO
 40
0.625
  9
$DIMDLI
 40
3.75
  9
$DIMRND
 40
0.0
  9
$DIMDLE
 40
0.0
  9
$DIMEXE
 40
1.25
  9
$DIMTP
 40
0.0
  9
$DIMTM
 40
0.0
  9
$DIMTXT
 40
2.5
  9
$DIMCEN
 40
2.5
  9
$DIMTSZ
 40
0.0
  9
$DIMTOL
 70
0
  9
$DIMLIM
 70
0
  9
$DIMTIH
 70
0
  9
$DIMTOH
 70
0
  9
$DIMSE1
 70
0
  9
$DIMSE2
 70
0
  9
$DIMTAD
 70
1
  9
$DIMZIN
 70
8
  9
$DIMBLK
  1

  9
$DIMASO
 70
1
  9
$DIMSHO
 70
1
  9
$DIMPOST
  1

  9
$DIMAPOST
  1

  9
$DIMALT
 70
0
  9
$DIMALTD
 70
3
  9
$DIMALTF
 40
0.03937007874
  9
$DIMLFAC
 40
1.0
  9
$DIMTOFL
 70
1
  9
$DIMTVP
 40
0.0
  9
$DIMTIX
 70
0
  9
$DIMSOXD
 70
0
  9
$DIMSAH
 70
0
  9
$DIMBLK1
  1

  9
$DIMBLK2
  1

  9
$DIMSTYLE
  2
ISO-25
  9
$DIMCLRD
 70
0
  9
$DIMCLRE
 70
0
  9
$DIMCLRT
 70
0
  9
$DIMTFAC
 40
1.0
  9
$DIMGAP
 40
0.625
  9
$DIMJUST
 70
0
  9
$DIMSD1
 70
0
  9
$DIMSD2
 70
0
  9
$DIMTOLJ
 70
0
  9
$DIMTZIN
 70
8
  9
$DIMALTZ
 70
0
  9
$DIMALTTZ
 70
0
  9
$DIMUPT
 70
0
  9
$DIMDEC
 70
2
  9
$DIMTDEC
 70
2
  9
$DIMALTU
 70
2
  9
$DIMALTTD
 70
3
  9
$DIMTXSTY
  7
Standard
  9
$DIMAUNIT
 70
0
  9
$DIMADEC
 70
0
  9
$DIMALTRND
 40
0.0
  9
$DIMAZIN
 70
0
  9
$DIMDSEP
 70
44
  9
$DIMATFIT
 70
3
  9
$DIMFRAC
 70
0
  9
$DIMLDRBLK
  1

  9
$DIMLUNIT
 70
2
  9
$DIMLWD
 70
-2
  9
$DIMLWE
 70
-2
  9
$DIMTMOVE
 70
0
  9
$DIMFXL
 40
1.0
  9
$DIMFXLON
 70
0
  9
$DIMJOGANG
 40
0.785398163397
  9
$DIMTFILL
 70
0
  9
$DIMTFILLCLR
 70
0
  9
$DIMARCSYM
 70
0
  9
$DIMLTYPE
  6

  9
$DIMLTEX1
  6

  9
$DIMLTEX2
  6

  9
$DIMTXTDIRECTION
 70
0
  9
$LUNITS
 70
2
  9
$LUPREC
 70
4
  9
$SKETCHINC
 40
1.0
  9
$FILLETRAD
 40
10.0
  9
$AUNITS
 70
0
  9
$AUPREC
 70
2
  9
$MENU
  1
.
  9
$ELEVATION
 40
0.0
  9
$PELEVATION
 40
0.0
  9
$THICKNESS
 40
0.0
  9
$LIMCHECK
 70
0
  9
$CHAMFERA
 40
0.0
  9
$CHAMFERB
 40
0.0
  9
$CHAMFERC
 40
0.0
  9
$CHAMFERD
 40
0.0
  9
$SKPOLY
 70
0
  9
$TDCREATE
 40
2460392.6955324076
  9
$TDUCREATE
 40
2458532.153996898
  9
$TDUPDATE
 40
2460392.6955324076
  9
$TDUUPDATE
 40
2458532.1544311
  9
$TDINDWG
 40
0.0
  9
$TDUSRTIMER
 40
0.0
  9
$USRTIMER
 70
1
  9
$ANGBASE
 50
0.0
  9
$ANGDIR
 70
0
  9
$PDMODE
 70
0
  9
$PDSIZE
 40
0.0
  9
$PLINEWID
 40
0.0
  9
$SPLFRAME
 70
0
  9
$SPLINETYPE
 70
6
  9
$SPLINESEGS
 70
8
  9
$HANDSEED
  5
1CC
  9
$SURFTAB1
 70
6
  9
$SURFTAB2
 70
6
  9
$SURFTYPE
 70
6
  9
$SURFU
 70
6
  9
$SURFV
 70
6
  9
$UCSBASE
  2

  9
$UCSNAME
  2

  9
$UCSORG
 10
0.0
 20
0.0
 30
0.0
  9
$UCSXDIR
 10
1.0
 20
0.0
 30
0.0
  9
$UCSYDIR
 10
0.0
 20
1.0
 30
0.0
  9
$UCSORTHOREF
  2

  9
$UCSORTHOVIEW
 70
0
  9
$UCSORGTOP
 10
0.0
 20
0.0
 30
0.0
  9
$UCSORGBOTTOM
 10
0.0
 20
0.0
 30
0.0
  9
$UCSORGLEFT
 10
0.0
 20
0.0
 30
0.0
  9
$UCSORGRIGHT
 10
0.0
 20
0.0
 30
0.0
  9
$UCSORGFRONT
 10
0.0
 20
0.0
 30
0.0
  9
$UCSORGBACK
 10
0.0
 20
0.0
 30
0.0
  9
$PUCSBASE
  2

  9
$PUCSNAME
  2

  9
$PUCSORG
 10
0.0
 20
0.0
 30
0.0
  9
$PUCSXDIR
 10
1.0
 20
0.0
 30
0.0
  9
$PUCSYDIR
 10
0.0
 20
1.0
 30
0.0
  9
$PUCSORTHOREF
  2

  9
$PUCSORTHOVIEW
 70
0
  9
$PUCSORGTOP
 10
0.0
 20
0.0
 30
0.0
  9
$PUCSORGBOTTOM
 10
0.0
 20
0.0
 30
0.0
  9
$PUCSORGLEFT
 10
0.0
 20
0.0
 30
0.0
  9
$PUCSORGRIGHT
 10
0.0
 20
0.0
 30
0.0
  9
$PUCSORGFRONT
 10
0.0
 20
0.0
 30
0.0
  9
$PUCSORGBACK
 10
0.0
 20
0.0
 30
0.0
  9
$USERI1
 70
0
  9
$USERI2
 70
0
  9
$USERI3
 70
0
  9
$USERI4
 70
0
  9
$USERI5
 70
0
  9
$USERR1
 40
0.0
  9
$USERR2
 40
0.0
  9
$USERR3
 40
0.0
  9
$USERR4
 40
0.0
  9
$USERR5
 40
0.0
  9
$WORLDVIEW
 70
1
  9
$SHADEDGE
 70
3
  9
$SHADEDIF
 70
70
  9
$TILEMODE
 70
1
  9
$MAXACTVP
 70
64
  9
$PINSBASE
 10
0.0
 20
0.0
 30
0.0
  9
$PLIMCHECK
 70
0
  9
$PEXTMIN
 10
1e+20
 20
1e+20
 30
1e+20
  9
$PEXTMAX
 10
-1e+20
 20
-1e+20
 30
-1e+20
  9
$PLIMMIN
 10
0.0
 20
0.0
  9
$PLIMMAX
 10
420.0
 20
297.0
  9
$UNITMODE
 70
0
  9
$VISRETAIN
 70
1
  9
$PLINEGEN
 70
0
  9
$PSLTSCALE
 70
1
  9
$TREEDEPTH
 70
3020
  9
$CMLSTYLE
  2
Standard
  9
$CMLJUST
 70
0
  9
$CMLSCALE
 40
20.0
  9
$PROXYGRAPHICS
 70
1
  9
$MEASUREMENT
 70
1
  9
$CELWEIGHT
370
-1
  9
$ENDCAPS
280
0
  9
$JOINSTYLE
280
0
  9
$LWDISPLAY
290
0
  9
$INSUNITS
 70
6
  9
$HYPERLINKBASE
  1

  9
$STYLESHEET
  1

  9
$XEDIT
290
1
  9
$CEPSNTYPE
380
0
  9
$PSTYLEMODE
290
1
  9
$FINGERPRINTGUID
  2
{0D72FFBF-EC52-4F4C-9BE7-2027353FFB75}
  9
$VERSIONGUID
  2
{45E6FDAD-6DEF-4556-96E6-16201E61F9A1}
  9
$EXTNAMES
290
1
  9
$PSVPSCALE
 40
0.0
  9
$OLESTARTUP
290
0
  9
$SORTENTS
280
127
  9
$INDEXCTL
280
0
  9
$HIDETEXT
280
1
  9
$XCLIPFRAME
280
0
  9
$HALOGAP
280
0
  9
$OBSCOLOR
 70
257
  9
$OBSLTYPE
280
0
  9
$INTERSECTIONDISPLAY
280
0
  9
$INTERSECTIONCOLOR
 70
257
  9
$DIMASSOC
280
2
  9
$PROJECTNAME
  1

  9
$CAMERADISPLAY
290
0
  9
$LENSLENGTH
 40
50.0
  9
$CAMERAHEIGHT
 40
0.0
  9
$STEPSPERSEC
 40
24.0
  9
$STEPSIZE
 40
100.0
  9
$3DDWFPREC
 40
2.0
  9
$PSOLWIDTH
 40
0.005
  9
$PSOLHEIGHT
 40
0.08
  9
$LOFTANG1
 40
1.570796326795
  9
$LOFTANG2
 40
1.570796326795
  9
$LOFTMAG1
 40
0.0
  9
$LOFTMAG2
 40
0.0
  9
$LOFTPARAM
 70
7
  9
$LOFTNORMALS
280
1
  9
$LATITUDE
 40
37.795
  9
$LONGITUDE
 40
-122.394
  9
$NORTHDIRECTION
 40
0.0
  9
$TIMEZONE
 70
-8000
  9
$LIGHTGLYPHDISPLAY
280
1
  9
$TILEMODELIGHTSYNCH
280
1
  9
$CMATERIAL
347
20
  9
$SOLIDHIST
280
0
  9
$SHOWHIST
280
1
  9
$DWFFRAME
280
2
  9
$DGNFRAME
280
2
  9
$REALWORLDSCALE
290
1
  9
$INTERFERECOLOR
 62
256
  9
$CSHADOW
280
0
  9
$SHADOWPLANELOCATION
 40
0.0
  0
ENDSEC
  0
SECTION
  2
CLASSES
  0
CLASS
  1
ACDBDICTIONARYWDFLT
  2
AcDbDictionaryWithDefault
  3
ObjectDBX Classes
 90
0
 91
0
280
0
281
0
  0
CLASS
  1
SUN
  2
AcDbSun
  3
SCENEOE
 90
1153
 91
0
280
0
281
0
  0
CLASS
  1
VISUALSTYLE
  2
AcDbVisualStyle
  3
ObjectDBX Classes
 90
4095
 91
0
280
0
281
0
  0
CLASS
  1
MATERIAL
  2
AcDbMaterial
  3
ObjectDBX Classes
 90
1153
 91
0
280
0
281
0
  0
CLASS
  1
SCALE
  2
AcDbScale
  3
ObjectDBX Classes
 90
1153
 91
0
280
0
281
0
  0
CLASS
  1
TABLESTYLE
  2
AcDbTableStyle
  3
ObjectDBX Classes
 90
4095
 91
0
280
0
281
0
  0
CLASS
  1
MLEADERSTYLE
  2
AcDbMLeaderStyle
  3
ACDB_MLEADERSTYLE_CLASS
 90
4095
 91
0
280
0
281
0
  0
CLASS
  1
DICTIONARYVAR
  2
AcDbDictionaryVar
  3
ObjectDBX Classes
 90
0
 91
0
280
0
281
0
  0
CLASS
  1
CELLSTYLEMAP
  2
AcDbCellStyleMap
  3
ObjectDBX Classes
 90
1152
 91
0
280
0
281
0
  0
CLASS
  1
MENTALRAYRENDERSETTINGS
  2
AcDbMentalRayRenderSettings
  3
SCENEOE
 90
1024
 91
0
280
0
281
0
  0
CLASS
  1
ACDBDETAILVIEWSTYLE
  2
AcDbDetailViewStyle
  3
ObjectDBX Classes
 90
1025
 91
0
280
0
281
0
  0
CLASS
  1
ACDBSECTIONVIEWSTYLE
  2
AcDbSectionViewStyle
  3
ObjectDBX Classes
 90
1025
 91
0
280
0
281
0
  0
CLASS
  1
RASTERVARIABLES
  2
AcDbRasterVariables
  3
ISM
 90
0
 91
0
280
0
281
0
  0
CLASS
  1
LAYOUT
  2
AcDbLayout
  3
ObjectDBX Classes
 90
0
 91
0
280
0
281
0
  0
CLASS
  1
ACDBPLACEHOLDER
  2
AcDbPlaceHolder
  3
ObjectDBX Classes
 90
0
 91
0
280
0
281
0
  0
ENDSEC
  0
SECTION
  2
TABLES
  0
TABLE
  2
VPORT
  5
8
330
0
100
AcDbSymbolTable
 70
1
  0
VPORT
  5
23
330
8
100
AcDbSymbolTableRecord
100
AcDbViewportTableRecord
  2
*Active
 70
0
 10
0.0
 20
0.0
 11
1.0
 21
1.0
 12
0.0
 22
0.0
 13
0.0
 23
0.0
 14
0.5
 24
0.5
 15
0.5
 25
0.5
 16
0.0
 26
0.0
 36
1.0
 17
0.0
 27
0.0
 37
0.0
 40
1000.0
 41
1.34
 42
50.0
 43
0.0
 44
0.0
 50
0.0
 51
0.0
 71
0
 72
1000
 73
1
 74
3
 75
0
 76
0
 77
0
 78
0
281
0
 65
0
146
0.0
  0
ENDTAB
  0
TABLE
  2
LTYPE
  5
2
330
0
100
AcDbSymbolTable
 70
3
  0
LTYPE
  5
24
330
2
100
AcDbSymbolTableRecord
100
AcDbLinetypeTableRecord
  2
ByBlock
 70
0
  3

 72
65
 73
0
 40
0.0
  0
LTYPE
  5
25
330
2
100
AcDbSymbolTableRecord
100
AcDbLinetypeTableRecord
  2
ByLayer
 70
0
  3

 72
65
 73
0
 40
0.0
  0
LTYPE
  5
26
330
2
100
AcDbSymbolTableRecord
100
AcDbLinetypeTableRecord
  2
Continuous
 70
0
  3

 72
65
 73
0
 40
0.0
  0
ENDTAB
  0
TABLE
  2
LAYER
  5
1
330
0
100
AcDbSymbolTable
 70
5
  0
LAYER
  5
27
330
1
100
AcDbSymbolTableRecord
100
AcDbLayerTableRecord
  2
0
 70
0
 62
7
  6
Continuous
370
-3
390
13
347
21
  0
LAYER
  5
28
330
1
100
AcDbSymbolTableRecord
100
AcDbLayerTableRecord
  2
Defpoints
 70
0
 62
7
  6
Continuous
290
0
370
-3
390
13
347
21
  0
LAYER
  5
30
330
1
100
AcDbSymbolTableRecord
100
AcDbLayerTableRecord
  2
FoilLayer
 70
0
 62
1
  6
Continuous
370
50
390
13
347
21
  0
LAYER
  5
31
330
1
100
AcDbSymbolTableRecord
100
AcDbLayerTableRecord
  2
StringerLayer
 70
0
 62
1
  6
Continuous
370
50
390
13
347
21
  0
LAYER
  5
32
330
1
100
AcDbSymbolTableRecord
100
AcDbLayerTableRecord
  2
SubLayer
 70
0
 62
1
  6
Continuous
370
50
390
13
347
21
  0
ENDTAB
  0
TABLE
  2
STYLE
  5
5
330
0
100
AcDbSymbolTable
 70
2
  0
STYLE
  5
29
330
5
100
AcDbSymbolTableRecord
100
AcDbTextStyleTableRecord
  2
Standard
 70
0
 40
0.0
 41
1.0
 50
0.0
 71
0
 42
2.5
  3
txt
  4

  0
STYLE
  5
2F
330
5
100
AcDbSymbolTableRecord
100
AcDbTextStyleTableRecord
  2
MSゴシック
 70
0
 40
0.0
 41
1.0
 50
0.0
 71
0
 42
2.5
  3
romans
  4

  0
ENDTAB
  0
TABLE
  2
VIEW
  5
7
330
0
100
AcDbSymbolTable
 70
0
  0
ENDTAB
  0
TABLE
  2
UCS
  5
6
330
0
100
AcDbSymbolTable
 70
0
  0
ENDTAB
  0
TABLE
  2
APPID
  5
3
330
0
100
AcDbSymbolTable
 70
3
  0
APPID
  5
2A
330
3
100
AcDbSymbolTableRecord
100
AcDbRegAppTableRecord
  2
ACAD
 70
0
  0
APPID
  5
1C9
330
3
100
AcDbSymbolTableRecord
100
AcDbRegAppTableRecord
  2
HATCHBACKGROUNDCOLOR
 70
0
  0
APPID
  5
1CA
330
3
100
AcDbSymbolTableRecord
100
AcDbRegAppTableRecord
  2
EZDXF
 70
0
  0
ENDTAB
  0
TABLE
  2
DIMSTYLE
  5
4
330
0
100
AcDbSymbolTable
 70
1
100
AcDbDimStyleTable
  0
DIMSTYLE
105
2B
330
4
100
AcDbSymbolTableRecord
100
AcDbDimStyleTableRecord
  2
Standard
 70
0
 40
1.0
 41
2.5
 42
0.625
 43
3.75
 44
1.25
 45
0.0
 46
0.0
 47
0.0
 48
0.0
 49
2.5
140
2.5
141
2.5
142
0.0
143
0.03937007874
144
1.0
145
0.0
146
1.0
147
0.625
148
0.0
 69
0
 70
0
 71
0
 72
0
 73
0
 74
0
 75
0
 76
0
 77
1
 78
8
 79
3
170
0
171
3
172
1
173
0
174
0
175
0
176
0
177
0
178
0
179
2
271
2
272
2
273
2
274
3
275
0
276
0
277
2
278
44
279
0
280
0
281
0
282
0
283
0
284
8
285
0
286
0
288
0
289
3
290
0
371
-2
372
-2
  0
ENDTAB
  0
TABLE
  2
BLOCK_RECORD
  5
9
330
0
100
AcDbSymbolTable
 70
2
  0
BLOCK_RECORD
  5
17
330
9
100
AcDbSymbolTableRecord
100
AcDbBlockTableRecord
  2
*Model_Space
340
1A
 70
0
280
1
281
0
  0
BLOCK_RECORD
  5
1B
330
9
100
AcDbSymbolTableRecord
100
AcDbBlockTableRecord
  2
*Paper_Space
340
1E
 70
0
280
1
281
0
  0
ENDTAB
  0
ENDSEC
  0
SECTION
  2
BLOCKS
  0
BLOCK
  5
18
330
17
100
AcDbEntity
  8
0
100
AcDbBlockBegin
  2
*Model_Space
 70
0
 10
0.0
 20
0.0
 30
0.0
  3
*Model_Space
  1

  0
ENDBLK
  5
19
330
17
100
AcDbEntity
  8
0
100
AcDbBlockEnd
  0
BLOCK
  5
1C
330
1B
100
AcDbEntity
  8
0
100
AcDbBlockBegin
  2
*Paper_Space
 70
0
 10
0.0
 20
0.0
 30
0.0
  3
*Paper_Space
  1

  0
ENDBLK
  5
1D
330
1B
100
AcDbEntity
  8
0
100
AcDbBlockEnd
  0
ENDSEC
  0
SECTION
  2
ENTITIES
  0
LINE
  5
33
330
17
100
AcDbEntity
  8
FoilLayer
100
AcDbLine
 10
424.8628341793885
 20
0.5918893694910894
 30
0.0
 11
422.7859131399183
 21
1.2566600321124768
 31
0.0
  0
LINE
  5
34
330
17
100
AcDbEntity
  8
FoilLayer
100
AcDbLine
 10
422.7859131399183
 20
1.2566600321124768
 30
0.0
 11
419.4415520606701
 21
2.2654863635401545
 31
0.0
  0
LINE
  5
35
330
17
100
AcDbEntity
  8
FoilLayer
100
AcDbLine
 10
419.4415520606701
 20
2.2654863635401545
 30
0.0
 11
415.82470632547904
 21
3.3845174653145707
 31
0.0
  0
LINE
  5
36
330
17
100
AcDbEntity
  8
FoilLayer
100
AcDbLine
 10
415.82470632547904
 20
3.3845174653145707
 30
0.0
 11
411.8749831000224
 21
4.58057445145339
 31
0.0
  0
LINE
  5
37
330
17
100
AcDbEntity
  8
FoilLayer
100
AcDbLine
 10
411.8749831000224
 20
4.58057445145339
 30
0.0
 11
407.56759867084554
 21
5.855484090148762
 31
0.0
  0
LINE
  5
38
330
17
100
AcDbEntity
  8
FoilLayer
100
AcDbLine
 10
407.56759867084554
 20
5.855484090148762
 30
0.0
 11
402.9338370062104
 21
7.226169036647739
 31
0.0
  0
LINE
  5
39
330
17
100
AcDbEntity
  8
FoilLayer
100
AcDbLine
 10
402.9338370062104
 20
7.226169036647739
 30
0.0
 11
398.0293780914777
 21
8.685867190237294
 31
0.0
  0
LINE
  5
3A
330
17
100
AcDbEntity
  8
FoilLayer
100
AcDbLine
 10
398.0293780914777
 20
8.685867190237294
 30
0.0
 11
392.8977450632734
 21
10.204794707202302
 31
0.0
  0
LINE
  5
3B
330
17
100
AcDbEntity
  8
FoilLayer
100
AcDbLine
 10
392.8977450632734
 20
10.204794707202302
 30
0.0
 11
387.6191065064327
 21
11.764771988244659
 31
0.0
  0
LINE
  5
3C
330
17
100
AcDbEntity
  8
FoilLayer
100
AcDbLine
 10
387.6191065064327
 20
11.764771988244659
 30
0.0
 11
382.2914674575193
 21
13.320208614856831
 31
0.0
  0
LINE
  5
3D
330
17
100
AcDbEntity
  8
FoilLayer
100
AcDbLine
 10
382.2914674575193
 20
13.320208614856831
 30
0.0
 11
376.9195734516629
 21
14.850789240654324
 31
0.0
  0
LINE
  5
3E
330
17
100
AcDbEntity
  8
FoilLayer
100
AcDbLine
 10
376.9195734516629
 20
14.850789240654324
 30
0.0
 11
371.4722483113154
 21
16.44325108948601
 31
0.0
  0
LINE
  5
3F
330
17
100
AcDbEntity
  8
FoilLayer
100
AcDbLine
 10
371.4722483113154
 20
16.44325108948601
 30
0.0
 11
365.96241464043624
 21
18.062297910531203
 31
0.0
  0
LINE
  5
40
330
17
100
AcDbEntity
  8
FoilLayer
100
AcDbLine
 10
365.96241464043624
 20
18.062297910531203
 30
0.0
 11
360.3591211337524
 21
19.667746290325773
 31
0.0
  0
LINE
  5
41
330
17
100
AcDbEntity
  8
FoilLayer
100
AcDbLine
 10
360.3591211337524
 20
19.667746290325773
 30
0.0
 11
354.66577008105094
 21
21.290741407000873
 31
0.0
  0
LINE
  5
42
330
17
100
AcDbEntity
  8
FoilLayer
100
AcDbLine
 10
354.66577008105094
 20
21.290741407000873
 30
0.0
 11
348.8762003494335
 21
22.915477296439622
 31
0.0
  0
LINE
  5
43
330
17
100
AcDbEntity
  8
FoilLayer
100
AcDbLine
 10
348.8762003494335
 20
22.915477296439622
 30
0.0
 11
342.976436426275
 21
24.578957171397214
 31
0.0
  0
LINE
  5
44
330
17
100
AcDbEntity
  8
FoilLayer
100
AcDbLine
 10
342.976436426275
 20
24.578957171397214
 30
0.0
 11
336.9829710748936
 21
26.265129401247236
 31
0.0
  0
LINE
  5
45
330
17
100
AcDbEntity
  8
FoilLayer
100
AcDbLine
 10
336.9829710748936
 20
26.265129401247236
 30
0.0
 11
330.9214052585438
 21
27.96562905329545
 31
0.0
  0
LINE
  5
46
330
17
100
AcDbEntity
  8
FoilLayer
100
AcDbLine
 10
330.9214052585438
 20
27.96562905329545
 30
0.0
 11
324.8165904579803
 21
29.675959114304536
 31
0.0
  0
LINE
  5
47
330
17
100
AcDbEntity
  8
FoilLayer
100
AcDbLine
 10
324.8165904579803
 20
29.675959114304536
 30
0.0
 11
318.69234738229625
 21
31.391511573087627
 31
0.0
  0
LINE
  5
48
330
17
100
AcDbEntity
  8
FoilLayer
100
AcDbLine
 10
318.69234738229625
 20
31.391511573087627
 30
0.0
 11
312.56577832333744
 21
33.10304846905694
 31
0.0
  0
LINE
  5
49
330
17
100
AcDbEntity
  8
FoilLayer
100
AcDbLine
 10
312.56577832333744
 20
33.10304846905694
 30
0.0
 11
306.4413673064305
 21
34.80539232892794
 31
0.0
  0
LINE
  5
4A
330
17
100
AcDbEntity
  8
FoilLayer
100
AcDbLine
 10
306.4413673064305
 20
34.80539232892794
 30
0.0
 11
300.31978556900435
 21
36.49761248210293
 31
0.0
  0
LINE
  5
4B
330
17
100
AcDbEntity
  8
FoilLayer
100
AcDbLine
 10
300.31978556900435
 20
36.49761248210293
 30
0.0
 11
294.2029996708002
 21
38.17959290942234
 31
0.0
  0
LINE
  5
4C
330
17
100
AcDbEntity
  8
FoilLayer
100
AcDbLine
 10
294.2029996708002
 20
38.17959290942234
 30
0.0
 11
288.0980977236054
 21
39.850933256696266
 31
0.0
  0
LINE
  5
4D
330
17
100
AcDbEntity
  8
FoilLayer
100
AcDbLine
 10
288.0980977236054
 20
39.850933256696266
 30
0.0
 11
282.01735563555985
 21
41.50651890336956
 31
0.0
  0
LINE
  5
4E
330
17
100
AcDbEntity
  8
FoilLayer
100
AcDbLine
 10
282.01735563555985
 20
41.50651890336956
 30
0.0
 11
275.96158646060053
 21
43.139812255437825
 31
0.0
  0
LINE
  5
4F
330
17
100
AcDbEntity
  8
FoilLayer
100
AcDbLine
 10
275.96158646060053
 20
43.139812255437825
 30
0.0
 11
269.9191960518832
 21
44.75077792414037
 31
0.0
  0
LINE
  5
50
330
17
100
AcDbEntity
  8
FoilLayer
100
AcDbLine
 10
269.9191960518832
 20
44.75077792414037
 30
0.0
 11
263.88546150210686
 21
46.34305917815553
 31
0.0
  0
LINE
  5
51
330
17
100
AcDbEntity
  8
FoilLayer
100
AcDbLine
 10
263.88546150210686
 20
46.34305917815553
 30
0.0
 11
257.8659885293479
 21
47.915983209135476
 31
0.0
  0
LINE
  5
52
330
17
100
AcDbEntity
  8
FoilLayer
100
AcDbLine
 10
257.8659885293479
 20
47.915983209135476
 30
0.0
 11
254.88747280281285
 21
48.68523097042454
 31
0.0
  0
LINE
  5
53
330
17
100
AcDbEntity
  8
FoilLayer
100
AcDbLine
 10
254.88747280281285
 20
48.68523097042454
 30
0.0
 11
254.62490934270994
 21
47.668589229485875
 31
0.0
  0
LINE
  5
54
330
17
100
AcDbEntity
  8
FoilLayer
100
AcDbLine
 10
254.62490934270994
 20
47.668589229485875
 30
0.0
 11
251.60457807241647
 21
48.44864495003361
 31
0.0
  0
LINE
  5
55
330
17
100
AcDbEntity
  8
FoilLayer
100
AcDbLine
 10
251.60457807241647
 20
48.44864495003361
 30
0.0
 11
245.62024772563666
 21
49.973136818393755
 31
0.0
  0
LINE
  5
56
330
17
100
AcDbEntity
  8
FoilLayer
100
AcDbLine
 10
245.62024772563666
 20
49.973136818393755
 30
0.0
 11
239.64623603202227
 21
51.47269678952425
 31
0.0
  0
LINE
  5
57
330
17
100
AcDbEntity
  8
FoilLayer
100
AcDbLine
 10
239.64623603202227
 20
51.47269678952425
 30
0.0
 11
233.6779937050619
 21
52.94747682876442
 31
0.0
  0
LINE
  5
58
330
17
100
AcDbEntity
  8
FoilLayer
100
AcDbLine
 10
233.6779937050619
 20
52.94747682876442
 30
0.0
 11
227.71119890680194
 21
54.39897544074983
 31
0.0
  0
LINE
  5
59
330
17
100
AcDbEntity
  8
FoilLayer
100
AcDbLine
 10
227.71119890680194
 20
54.39897544074983
 30
0.0
 11
221.74624635619034
 21
55.830025464543695
 31
0.0
  0
LINE
  5
5A
330
17
100
AcDbEntity
  8
FoilLayer
100
AcDbLine
 10
221.74624635619034
 20
55.830025464543695
 30
0.0
 11
215.79978655088252
 21
57.24052710659876
 31
0.0
  0
LINE
  5
5B
330
17
100
AcDbEntity
  8
FoilLayer
100
AcDbLine
 10
215.79978655088252
 20
57.24052710659876
 30
0.0
 11
209.89357613122075
 21
58.62262700979062
 31
0.0
  0
LINE
  5
5C
330
17
100
AcDbEntity
  8
FoilLayer
100
AcDbLine
 10
209.89357613122075
 20
58.62262700979062
 30
0.0
 11
204.03317117818864
 21
59.96675546740541
 31
0.0
  0
LINE
  5
5D
330
17
100
AcDbEntity
  8
FoilLayer
100
AcDbLine
 10
204.03317117818864
 20
59.96675546740541
 30
0.0
 11
198.21082897182367
 21
61.26901785853183
 31
0.0
  0
LINE
  5
5E
330
17
100
AcDbEntity
  8
FoilLayer
100
AcDbLine
 10
198.21082897182367
 20
61.26901785853183
 30
0.0
 11
192.41733554860468
 21
62.52894807711714
 31
0.0
  0
LINE
  5
5F
330
17
100
AcDbEntity
  8
FoilLayer
100
AcDbLine
 10
192.41733554860468
 20
62.52894807711714
 30
0.0
 11
186.64460950193597
 21
63.74700165501757
 31
0.0
  0
LINE
  5
60
330
17
100
AcDbEntity
  8
FoilLayer
100
AcDbLine
 10
186.64460950193597
 20
63.74700165501757
 30
0.0
 11
180.88542134051727
 21
64.92412497407064
 31
0.0
  0
LINE
  5
61
330
17
100
AcDbEntity
  8
FoilLayer
100
AcDbLine
 10
180.88542134051727
 20
64.92412497407064
 30
0.0
 11
175.13588132112358
 21
66.06166620334382
 31
0.0
  0
LINE
  5
62
330
17
100
AcDbEntity
  8
FoilLayer
100
AcDbLine
 10
175.13588132112358
 20
66.06166620334382
 30
0.0
 11
169.39660344796397
 21
67.15980869005753
 31
0.0
  0
LINE
  5
63
330
17
100
AcDbEntity
  8
FoilLayer
100
AcDbLine
 10
169.39660344796397
 20
67.15980869005753
 30
0.0
 11
163.6686117612188
 21
68.21674486507857
 31
0.0
  0
LINE
  5
64
330
17
100
AcDbEntity
  8
FoilLayer
100
AcDbLine
 10
163.6686117612188
 20
68.21674486507857
 30
0.0
 11
157.9468821505127
 21
69.23067772375612
 31
0.0
  0
LINE
  5
65
330
17
100
AcDbEntity
  8
FoilLayer
100
AcDbLine
 10
157.9468821505127
 20
69.23067772375612
 30
0.0
 11
152.22303929725683
 21
70.20243878703506
 31
0.0
  0
LINE
  5
66
330
17
100
AcDbEntity
  8
FoilLayer
100
AcDbLine
 10
152.22303929725683
 20
70.20243878703506
 30
0.0
 11
146.49258055843603
 21
71.1339854920621
 31
0.0
  0
LINE
  5
67
330
17
100
AcDbEntity
  8
FoilLayer
100
AcDbLine
 10
146.49258055843603
 20
71.1339854920621
 30
0.0
 11
140.75371189715298
 21
72.0265306410257
 31
0.0
  0
LINE
  5
68
330
17
100
AcDbEntity
  8
FoilLayer
100
AcDbLine
 10
140.75371189715298
 20
72.0265306410257
 30
0.0
 11
135.00592136249685
 21
72.88088171609124
 31
0.0
  0
LINE
  5
69
330
17
100
AcDbEntity
  8
FoilLayer
100
AcDbLine
 10
135.00592136249685
 20
72.88088171609124
 30
0.0
 11
129.25010336740826
 21
73.69750088198369
 31
0.0
  0
LINE
  5
6A
330
17
100
AcDbEntity
  8
FoilLayer
100
AcDbLine
 10
129.25010336740826
 20
73.69750088198369
 30
0.0
 11
123.48871167928132
 21
74.47634211742366
 31
0.0
  0
LINE
  5
6B
330
17
100
AcDbEntity
  8
FoilLayer
100
AcDbLine
 10
123.48871167928132
 20
74.47634211742366
 30
0.0
 11
117.72317022187127
 21
75.21617089490385
 31
0.0
  0
LINE
  5
6C
330
17
100
AcDbEntity
  8
FoilLayer
100
AcDbLine
 10
117.72317022187127
 20
75.21617089490385
 30
0.0
 11
111.94960105774453
 21
75.91590193524546
 31
0.0
  0
LINE
  5
6D
330
17
100
AcDbEntity
  8
FoilLayer
100
AcDbLine
 10
111.94960105774453
 20
75.91590193524546
 30
0.0
 11
106.16226992723199
 21
76.57672703087485
 31
0.0
  0
LINE
  5
6E
330
17
100
AcDbEntity
  8
FoilLayer
100
AcDbLine
 10
106.16226992723199
 20
76.57672703087485
 30
0.0
 11
100.35911294367236
 21
77.2007464350998
 31
0.0
  0
LINE
  5
6F
330
17
100
AcDbEntity
  8
FoilLayer
100
AcDbLine
 10
100.35911294367236
 20
77.2007464350998
 30
0.0
 11
94.54137582179067
 21
77.78977756964743
 31
0.0
  0
LINE
  5
70
330
17
100
AcDbEntity
  8
FoilLayer
100
AcDbLine
 10
94.54137582179067
 20
77.78977756964743
 30
0.0
 11
88.71505376189987
 21
78.3448569496894
 31
0.0
  0
LINE
  5
71
330
17
100
AcDbEntity
  8
FoilLayer
100
AcDbLine
 10
88.71505376189987
 20
78.3448569496894
 30
0.0
 11
82.88684684378273
 21
78.86514379425621
 31
0.0
  0
LINE
  5
72
330
17
100
AcDbEntity
  8
FoilLayer
100
AcDbLine
 10
82.88684684378273
 20
78.86514379425621
 30
0.0
 11
77.06031519761018
 21
79.34896372791678
 31
0.0
  0
LINE
  5
73
330
17
100
AcDbEntity
  8
FoilLayer
100
AcDbLine
 10
77.06031519761018
 20
79.34896372791678
 30
0.0
 11
71.23692342113475
 21
79.79584497539668
 31
0.0
  0
LINE
  5
74
330
17
100
AcDbEntity
  8
FoilLayer
100
AcDbLine
 10
71.23692342113475
 20
79.79584497539668
 30
0.0
 11
65.419541921367
 21
80.20536701094757
 31
0.0
  0
LINE
  5
75
330
17
100
AcDbEntity
  8
FoilLayer
100
AcDbLine
 10
65.419541921367
 20
80.20536701094757
 30
0.0
 11
59.60999498548523
 21
80.57637638545397
 31
0.0
  0
LINE
  5
76
330
17
100
AcDbEntity
  8
FoilLayer
100
AcDbLine
 10
59.60999498548523
 20
80.57637638545397
 30
0.0
 11
53.80785306982449
 21
80.90766752847816
 31
0.0
  0
LINE
  5
77
330
17
100
AcDbEntity
  8
FoilLayer
100
AcDbLine
 10
53.80785306982449
 20
80.90766752847816
 30
0.0
 11
48.0112647212481
 21
81.19897758211933
 31
0.0
  0
LINE
  5
78
330
17
100
AcDbEntity
  8
FoilLayer
100
AcDbLine
 10
48.0112647212481
 20
81.19897758211933
 30
0.0
 11
42.22039888485813
 21
81.45050384192226
 31
0.0
  0
LINE
  5
79
330
17
100
AcDbEntity
  8
FoilLayer
100
AcDbLine
 10
42.22039888485813
 20
81.45050384192226
 30
0.0
 11
36.43586549111137
 21
81.66177134348796
 31
0.0
  0
LINE
  5
7A
330
17
100
AcDbEntity
  8
FoilLayer
100
AcDbLine
 10
36.43586549111137
 20
81.66177134348796
 30
0.0
 11
30.656599693577277
 21
81.83210856894762
 31
0.0
  0
LINE
  5
7B
330
17
100
AcDbEntity
  8
FoilLayer
100
AcDbLine
 10
30.656599693577277
 20
81.83210856894762
 30
0.0
 11
24.881531840153798
 21
81.96151690852561
 31
0.0
  0
LINE
  5
7C
330
17
100
AcDbEntity
  8
FoilLayer
100
AcDbLine
 10
24.881531840153798
 20
81.96151690852561
 30
0.0
 11
19.11183713529863
 21
82.05012900661723
 31
0.0
  0
LINE
  5
7D
330
17
100
AcDbEntity
  8
FoilLayer
100
AcDbLine
 10
19.11183713529863
 20
82.05012900661723
 30
0.0
 11
13.34663697225335
 21
82.09672841802312
 31
0.0
  0
LINE
  5
7E
330
17
100
AcDbEntity
  8
FoilLayer
100
AcDbLine
 10
13.34663697225335
 20
82.09672841802312
 30
0.0
 11
7.583045485971638
 21
82.10083983309453
 31
0.0
  0
LINE
  5
7F
330
17
100
AcDbEntity
  8
FoilLayer
100
AcDbLine
 10
7.583045485971638
 20
82.10083983309453
 30
0.0
 11
1.8180638906956688
 21
82.06334040139673
 31
0.0
  0
LINE
  5
80
330
17
100
AcDbEntity
  8
FoilLayer
100
AcDbLine
 10
1.8180638906956688
 20
82.06334040139673
 30
0.0
 11
-3.946323947377664
 21
81.98565615901975
 31
0.0
  0
LINE
  5
81
330
17
100
AcDbEntity
  8
FoilLayer
100
AcDbLine
 10
-3.946323947377664
 20
81.98565615901975
 30
0.0
 11
-9.706045466949547
 21
81.86820057680482
 31
0.0
  0
LINE
  5
82
330
17
100
AcDbEntity
  8
FoilLayer
100
AcDbLine
 10
-9.706045466949547
 20
81.86820057680482
 30
0.0
 11
-15.457470058133623
 21
81.71043673472448
 31
0.0
  0
LINE
  5
83
330
17
100
AcDbEntity
  8
FoilLayer
100
AcDbLine
 10
-15.457470058133623
 20
81.71043673472448
 30
0.0
 11
-21.198446571478257
 21
81.51148555694358
 31
0.0
  0
LINE
  5
84
330
17
100
AcDbEntity
  8
FoilLayer
100
AcDbLine
 10
-21.198446571478257
 20
81.51148555694358
 30
0.0
 11
-26.928711803657677
 21
81.27052607361912
 31
0.0
  0
LINE
  5
85
330
17
100
AcDbEntity
  8
FoilLayer
100
AcDbLine
 10
-26.928711803657677
 20
81.27052607361912
 30
0.0
 11
-32.648080804162646
 21
80.98755033426222
 31
0.0
  0
LINE
  5
86
330
17
100
AcDbEntity
  8
FoilLayer
100
AcDbLine
 10
-32.648080804162646
 20
80.98755033426222
 30
0.0
 11
-38.354919981627575
 21
80.6632228255295
 31
0.0
  0
LINE
  5
87
330
17
100
AcDbEntity
  8
FoilLayer
100
AcDbLine
 10
-38.354919981627575
 20
80.6632228255295
 30
0.0
 11
-44.04365758637957
 21
80.29926542741562
 31
0.0
  0
LINE
  5
88
330
17
100
AcDbEntity
  8
FoilLayer
100
AcDbLine
 10
-44.04365758637957
 20
80.29926542741562
 30
0.0
 11
-49.70342504187215
 21
79.8963500039083
 31
0.0
  0
LINE
  5
89
330
17
100
AcDbEntity
  8
FoilLayer
100
AcDbLine
 10
-49.70342504187215
 20
79.8963500039083
 30
0.0
 11
-55.32550832873335
 21
79.45242435377062
 31
0.0
  0
LINE
  5
8A
330
17
100
AcDbEntity
  8
FoilLayer
100
AcDbLine
 10
-55.32550832873335
 20
79.45242435377062
 30
0.0
 11
-60.906105838731264
 21
78.96367711731062
 31
0.0
  0
LINE
  5
8B
330
17
100
AcDbEntity
  8
FoilLayer
100
AcDbLine
 10
-60.906105838731264
 20
78.96367711731062
 30
0.0
 11
-66.45001707550867
 21
78.42436478042495
 31
0.0
  0
LINE
  5
8C
330
17
100
AcDbEntity
  8
FoilLayer
100
AcDbLine
 10
-66.45001707550867
 20
78.42436478042495
 30
0.0
 11
-71.97293002904527
 21
77.83016798239683
 31
0.0
  0
LINE
  5
8D
330
17
100
AcDbEntity
  8
FoilLayer
100
AcDbLine
 10
-71.97293002904527
 20
77.83016798239683
 30
0.0
 11
-77.48709261398551
 21
77.18299943037357
 31
0.0
  0
LINE
  5
8E
330
17
100
AcDbEntity
  8
FoilLayer
100
AcDbLine
 10
-77.48709261398551
 20
77.18299943037357
 30
0.0
 11
-82.99056781757722
 21
76.4872740853824
 31
0.0
  0
LINE
  5
8F
330
17
100
AcDbEntity
  8
FoilLayer
100
AcDbLine
 10
-82.99056781757722
 20
76.4872740853824
 30
0.0
 11
-88.47698116092528
 21
75.74358528139732
 31
0.0
  0
LINE
  5
90
330
17
100
AcDbEntity
  8
FoilLayer
100
AcDbLine
 10
-88.47698116092528
 20
75.74358528139732
 30
0.0
 11
-93.94411746191574
 21
74.95086788175351
 31
0.0
  0
LINE
  5
91
330
17
100
AcDbEntity
  8
FoilLayer
100
AcDbLine
 10
-93.94411746191574
 20
74.95086788175351
 30
0.0
 11
-99.39049044010625
 21
74.10938262677868
 31
0.0
  0
LINE
  5
92
330
17
100
AcDbEntity
  8
FoilLayer
100
AcDbLine
 10
-99.39049044010625
 20
74.10938262677868
 30
0.0
 11
-104.81116592843784
 21
73.22028250692786
 31
0.0
  0
LINE
  5
93
330
17
100
AcDbEntity
  8
FoilLayer
100
AcDbLine
 10
-104.81116592843784
 20
73.22028250692786
 30
0.0
 11
-110.2010526733842
 21
72.28345288716486
 31
0.0
  0
LINE
  5
94
330
17
100
AcDbEntity
  8
FoilLayer
100
AcDbLine
 10
-110.2010526733842
 20
72.28345288716486
 30
0.0
 11
-115.55608166950523
 21
71.29850954553281
 31
0.0
  0
LINE
  5
95
330
17
100
AcDbEntity
  8
FoilLayer
100
AcDbLine
 10
-115.55608166950523
 20
71.29850954553281
 30
0.0
 11
-120.87319538655831
 21
70.26477307407767
 31
0.0
  0
LINE
  5
96
330
17
100
AcDbEntity
  8
FoilLayer
100
AcDbLine
 10
-120.87319538655831
 20
70.26477307407767
 30
0.0
 11
-126.14981191864115
 21
69.18181894411032
 31
0.0
  0
LINE
  5
97
330
17
100
AcDbEntity
  8
FoilLayer
100
AcDbLine
 10
-126.14981191864115
 20
69.18181894411032
 30
0.0
 11
-131.38290372732735
 21
68.0499148612084
 31
0.0
  0
LINE
  5
98
330
17
100
AcDbEntity
  8
FoilLayer
100
AcDbLine
 10
-131.38290372732735
 20
68.0499148612084
 30
0.0
 11
-136.56627365617334
 21
66.86925782901025
 31
0.0
  0
LINE
  5
99
330
17
100
AcDbEntity
  8
FoilLayer
100
AcDbLine
 10
-136.56627365617334
 20
66.86925782901025
 30
0.0
 11
-141.69900385808137
 21
65.63513417593272
 31
0.0
  0
LINE
  5
9A
330
17
100
AcDbEntity
  8
FoilLayer
100
AcDbLine
 10
-141.69900385808137
 20
65.63513417593272
 30
0.0
 11
-146.7915373397487
 21
64.34414345122384
 31
0.0
  0
LINE
  5
9B
330
17
100
AcDbEntity
  8
FoilLayer
100
AcDbLine
 10
-146.7915373397487
 20
64.34414345122384
 30
0.0
 11
-151.84371815212688
 21
63.00510655697817
 31
0.0
  0
LINE
  5
9C
330
17
100
AcDbEntity
  8
FoilLayer
100
AcDbLine
 10
-151.84371815212688
 20
63.00510655697817
 30
0.0
 11
-156.82810776106925
 21
61.631782635106205
 31
0.0
  0
LINE
  5
9D
330
17
100
AcDbEntity
  8
FoilLayer
100
AcDbLine
 10
-156.82810776106925
 20
61.631782635106205
 30
0.0
 11
-161.71651538624667
 21
60.22579104980195
 31
0.0
  0
LINE
  5
9E
330
17
100
AcDbEntity
  8
FoilLayer
100
AcDbLine
 10
-161.71651538624667
 20
60.22579104980195
 30
0.0
 11
-166.49970218992638
 21
58.780414289275896
 31
0.0
  0
LINE
  5
9F
330
17
100
AcDbEntity
  8
FoilLayer
100
AcDbLine
 10
-166.49970218992638
 20
58.780414289275896
 30
0.0
 11
-171.1789940229786
 21
57.29000976200723
 31
0.0
  0
LINE
  5
A0
330
17
100
AcDbEntity
  8
FoilLayer
100
AcDbLine
 10
-171.1789940229786
 20
57.29000976200723
 30
0.0
 11
-175.7579881002978
 21
55.75157321087098
 31
0.0
  0
LINE
  5
A1
330
17
100
AcDbEntity
  8
FoilLayer
100
AcDbLine
 10
-175.7579881002978
 20
55.75157321087098
 30
0.0
 11
-180.23960143562917
 21
54.16437968892828
 31
0.0
  0
LINE
  5
A2
330
17
100
AcDbEntity
  8
FoilLayer
100
AcDbLine
 10
-180.23960143562917
 20
54.16437968892828
 30
0.0
 11
-184.62364810476328
 21
52.53014052728083
 31
0.0
  0
LINE
  5
A3
330
17
100
AcDbEntity
  8
FoilLayer
100
AcDbLine
 10
-184.62364810476328
 20
52.53014052728083
 30
0.0
 11
-188.9056472993454
 21
50.853528476551226
 31
0.0
  0
LINE
  5
A4
330
17
100
AcDbEntity
  8
FoilLayer
100
AcDbLine
 10
-188.9056472993454
 20
50.853528476551226
 30
0.0
 11
-193.07570115882095
 21
49.14123862762924
 31
0.0
  0
LINE
  5
A5
330
17
100
AcDbEntity
  8
FoilLayer
100
AcDbLine
 10
-193.07570115882095
 20
49.14123862762924
 30
0.0
 11
-197.12218671766288
 21
47.39828922615326
 31
0.0
  0
LINE
  5
A6
330
17
100
AcDbEntity
  8
FoilLayer
100
AcDbLine
 10
-197.12218671766288
 20
47.39828922615326
 30
0.0
 11
-201.03808301682866
 21
45.62839585034447
 31
0.0
  0
LINE
  5
A7
330
17
100
AcDbEntity
  8
FoilLayer
100
AcDbLine
 10
-201.03808301682866
 20
45.62839585034447
 30
0.0
 11
-204.81603756967354
 21
43.841521171752504
 31
0.0
  0
LINE
  5
A8
330
17
100
AcDbEntity
  8
FoilLayer
100
AcDbLine
 10
-204.81603756967354
 20
43.841521171752504
 30
0.0
 11
-208.44078630287927
 21
42.054244609950246
 31
0.0
  0
LINE
  5
A9
330
17
100
AcDbEntity
  8
FoilLayer
100
AcDbLine
 10
-208.44078630287927
 20
42.054244609950246
 30
0.0
 11
-211.89375616542975
 21
40.28080171112039
 31
0.0
  0
LINE
  5
AA
330
17
100
AcDbEntity
  8
FoilLayer
100
AcDbLine
 10
-211.89375616542975
 20
40.28080171112039
 30
0.0
 11
-215.16122535759007
 21
38.52994192468033
 31
0.0
  0
LINE
  5
AB
330
17
100
AcDbEntity
  8
FoilLayer
100
AcDbLine
 10
-215.16122535759007
 20
38.52994192468033
 30
0.0
 11
-218.23599892066272
 21
36.806964622601484
 31
0.0
  0
LINE
  5
AC
330
17
100
AcDbEntity
  8
FoilLayer
100
AcDbLine
 10
-218.23599892066272
 20
36.806964622601484
 30
0.0
 11
-221.11812453198903
 21
35.114139853627776
 31
0.0
  0
LINE
  5
AD
330
17
100
AcDbEntity
  8
FoilLayer
100
AcDbLine
 10
-221.11812453198903
 20
35.114139853627776
 30
0.0
 11
-223.81280503204925
 21
33.454775208765604
 31
0.0
  0
LINE
  5
AE
330
17
100
AcDbEntity
  8
FoilLayer
100
AcDbLine
 10
-223.81280503204925
 20
33.454775208765604
 30
0.0
 11
-226.32612441922785
 21
31.834975527466028
 31
0.0
  0
LINE
  5
AF
330
17
100
AcDbEntity
  8
FoilLayer
100
AcDbLine
 10
-226.32612441922785
 20
31.834975527466028
 30
0.0
 11
-228.66464382215483
 21
30.26058047961166
 31
0.0
  0
LINE
  5
B0
330
17
100
AcDbEntity
  8
FoilLayer
100
AcDbLine
 10
-228.66464382215483
 20
30.26058047961166
 30
0.0
 11
-230.8348712146278
 21
28.73709073789948
 31
0.0
  0
LINE
  5
B1
330
17
100
AcDbEntity
  8
FoilLayer
100
AcDbLine
 10
-230.8348712146278
 20
28.73709073789948
 30
0.0
 11
-232.843279374289
 21
27.26723546083932
 31
0.0
  0
LINE
  5
B2
330
17
100
AcDbEntity
  8
FoilLayer
100
AcDbLine
 10
-232.843279374289
 20
27.26723546083932
 30
0.0
 11
-234.6975531067118
 21
25.850421161410015
 31
0.0
  0
LINE
  5
B3
330
17
100
AcDbEntity
  8
FoilLayer
100
AcDbLine
 10
-234.6975531067118
 20
25.850421161410015
 30
0.0
 11
-236.4063845277248
 21
24.48395378134704
 31
0.0
  0
LINE
  5
B4
330
17
100
AcDbEntity
  8
FoilLayer
100
AcDbLine
 10
-236.4063845277248
 20
24.48395378134704
 30
0.0
 11
-237.97991823910695
 21
23.163143652003445
 31
0.0
  0
LINE
  5
B5
330
17
100
AcDbEntity
  8
FoilLayer
100
AcDbLine
 10
-237.97991823910695
 20
23.163143652003445
 30
0.0
 11
-239.43090624744812
 21
21.88263575873749
 31
0.0
  0
LINE
  5
B6
330
17
100
AcDbEntity
  8
FoilLayer
100
AcDbLine
 10
-239.43090624744812
 20
21.88263575873749
 30
0.0
 11
-240.77156821989396
 21
20.642146828357298
 31
0.0
  0
LINE
  5
B7
330
17
100
AcDbEntity
  8
FoilLayer
100
AcDbLine
 10
-240.77156821989396
 20
20.642146828357298
 30
0.0
 11
-242.0111778182443
 21
19.443812612753124
 31
0.0
  0
LINE
  5
B8
330
17
100
AcDbEntity
  8
FoilLayer
100
AcDbLine
 10
-242.0111778182443
 20
19.443812612753124
 30
0.0
 11
-243.15649487604296
 21
18.288032158876252
 31
0.0
  0
LINE
  5
B9
330
17
100
AcDbEntity
  8
FoilLayer
100
AcDbLine
 10
-243.15649487604296
 20
18.288032158876252
 30
0.0
 11
-244.2140671477541
 21
17.1720343042728
 31
0.0
  0
LINE
  5
BA
330
17
100
AcDbEntity
  8
FoilLayer
100
AcDbLine
 10
-244.2140671477541
 20
17.1720343042728
 30
0.0
 11
-245.19005503877287
 21
16.09344728826952
 31
0.0
  0
LINE
  5
BB
330
17
100
AcDbEntity
  8
FoilLayer
100
AcDbLine
 10
-245.19005503877287
 20
16.09344728826952
 30
0.0
 11
-246.09003202290762
 21
15.049962007063957
 31
0.0
  0
LINE
  5
BC
330
17
100
AcDbEntity
  8
FoilLayer
100
AcDbLine
 10
-246.09003202290762
 20
15.049962007063957
 30
0.0
 11
-246.91921954405464
 21
14.039135116099391
 31
0.0
  0
LINE
  5
BD
330
17
100
AcDbEntity
  8
FoilLayer
100
AcDbLine
 10
-246.91921954405464
 20
14.039135116099391
 30
0.0
 11
-247.68351385183902
 21
13.057254519160999
 31
0.0
  0
LINE
  5
BE
330
17
100
AcDbEntity
  8
FoilLayer
100
AcDbLine
 10
-247.68351385183902
 20
13.057254519160999
 30
0.0
 11
-248.38886342450473
 21
12.102428686660998
 31
0.0
  0
LINE
  5
BF
330
17
100
AcDbEntity
  8
FoilLayer
100
AcDbLine
 10
-248.38886342450473
 20
12.102428686660998
 30
0.0
 11
-249.03849048431644
 21
11.177212293546788
 31
0.0
  0
LINE
  5
C0
330
17
100
AcDbEntity
  8
FoilLayer
100
AcDbLine
 10
-249.03849048431644
 20
11.177212293546788
 30
0.0
 11
-249.6331083734137
 21
10.282777316573904
 31
0.0
  0
LINE
  5
C1
330
17
100
AcDbEntity
  8
FoilLayer
100
AcDbLine
 10
-249.6331083734137
 20
10.282777316573904
 30
0.0
 11
-250.17770760281016
 21
9.408503284632769
 31
0.0
  0
LINE
  5
C2
330
17
100
AcDbEntity
  8
FoilLayer
100
AcDbLine
 10
-250.17770760281016
 20
9.408503284632769
 30
0.0
 11
-250.68190395391068
 21
8.545971344174514
 31
0.0
  0
LINE
  5
C3
330
17
100
AcDbEntity
  8
FoilLayer
100
AcDbLine
 10
-250.68190395391068
 20
8.545971344174514
 30
0.0
 11
-251.1464421754135
 21
7.714054784287409
 31
0.0
  0
LINE
  5
C4
330
17
100
AcDbEntity
  8
FoilLayer
100
AcDbLine
 10
-251.1464421754135
 20
7.714054784287409
 30
0.0
 11
-251.5605286782104
 21
6.931090506605678
 31
0.0
  0
LINE
  5
C5
330
17
100
AcDbEntity
  8
FoilLayer
100
AcDbLine
 10
-251.5605286782104
 20
6.931090506605678
 30
0.0
 11
-251.9236879437263
 21
6.166658183046615
 31
0.0
  0
LINE
  5
C6
330
17
100
AcDbEntity
  8
FoilLayer
100
AcDbLine
 10
-251.9236879437263
 20
6.166658183046615
 30
0.0
 11
-252.25032794787492
 21
5.3854975212685385
 31
0.0
  0
LINE
  5
C7
330
17
100
AcDbEntity
  8
FoilLayer
100
AcDbLine
 10
-252.25032794787492
 20
5.3854975212685385
 30
0.0
 11
-252.54757026652064
 21
4.62188886689844
 31
0.0
  0
LINE
  5
C8
330
17
100
AcDbEntity
  8
FoilLayer
100
AcDbLine
 10
-252.54757026652064
 20
4.62188886689844
 30
0.0
 11
-252.8045290394336
 21
3.917679728477523
 31
0.0
  0
LINE
  5
C9
330
17
100
AcDbEntity
  8
FoilLayer
100
AcDbLine
 10
-252.8045290394336
 20
3.917679728477523
 30
0.0
 11
-253.01339208305
 21
3.242873888960097
 31
0.0
  0
LINE
  5
CA
330
17
100
AcDbEntity
  8
FoilLayer
100
AcDbLine
 10
-253.01339208305
 20
3.242873888960097
 30
0.0
 11
-253.17843837306515
 21
2.5562869079904362
 31
0.0
  0
LINE
  5
CB
330
17
100
AcDbEntity
  8
FoilLayer
100
AcDbLine
 10
-253.17843837306515
 20
2.5562869079904362
 30
0.0
 11
-253.30862251652252
 21
1.8733253456624597
 31
0.0
  0
LINE
  5
CC
330
17
100
AcDbEntity
  8
FoilLayer
100
AcDbLine
 10
-253.30862251652252
 20
1.8733253456624597
 30
0.0
 11
-253.40718100493746
 21
1.2195071536151794
 31
0.0
  0
LINE
  5
CD
330
17
100
AcDbEntity
  8
FoilLayer
100
AcDbLine
 10
-253.40718100493746
 20
1.2195071536151794
 30
0.0
 11
-253.47139870231084
 21
0.5900840641667556
 31
0.0
  0
LINE
  5
CE
330
17
100
AcDbEntity
  8
FoilLayer
100
AcDbLine
 10
-253.47139870231084
 20
0.5900840641667556
 30
0.0
 11
-253.49999999999977
 21
-0.04236395339965122
 31
0.0
  0
LINE
  5
CF
330
17
100
AcDbEntity
  8
FoilLayer
100
AcDbLine
 10
-253.49999999999977
 20
-0.04236395339965122
 30
0.0
 11
-253.49530981261
 21
-0.6088618253322474
 31
0.0
  0
LINE
  5
D0
330
17
100
AcDbEntity
  8
FoilLayer
100
AcDbLine
 10
-253.49530981261
 20
-0.6088618253322474
 30
0.0
 11
-253.45424262114994
 21
-1.1787807311017287
 31
0.0
  0
LINE
  5
D1
330
17
100
AcDbEntity
  8
FoilLayer
100
AcDbLine
 10
-253.45424262114994
 20
-1.1787807311017287
 30
0.0
 11
-253.36657972436143
 21
-1.746097945933264
 31
0.0
  0
LINE
  5
D2
330
17
100
AcDbEntity
  8
FoilLayer
100
AcDbLine
 10
-253.36657972436143
 20
-1.746097945933264
 30
0.0
 11
-253.22520515090096
 21
-2.31995175312883
 31
0.0
  0
LINE
  5
D3
330
17
100
AcDbEntity
  8
FoilLayer
100
AcDbLine
 10
-253.22520515090096
 20
-2.31995175312883
 30
0.0
 11
-253.0309701968241
 21
-2.8961308687166367
 31
0.0
  0
LINE
  5
D4
330
17
100
AcDbEntity
  8
FoilLayer
100
AcDbLine
 10
-253.0309701968241
 20
-2.8961308687166367
 30
0.0
 11
-252.78590315947497
 21
-3.4682756080648955
 31
0.0
  0
LINE
  5
D5
330
17
100
AcDbEntity
  8
FoilLayer
100
AcDbLine
 10
-252.78590315947497
 20
-3.4682756080648955
 30
0.0
 11
-252.49024425164183
 21
-4.0319089175842215
 31
0.0
  0
LINE
  5
D6
330
17
100
AcDbEntity
  8
FoilLayer
100
AcDbLine
 10
-252.49024425164183
 20
-4.0319089175842215
 30
0.0
 11
-252.14353516792806
 21
-4.582850105611952
 31
0.0
  0
LINE
  5
D7
330
17
100
AcDbEntity
  8
FoilLayer
100
AcDbLine
 10
-252.14353516792806
 20
-4.582850105611952
 30
0.0
 11
-251.73868555656082
 21
-5.12383986029572
 31
0.0
  0
LINE
  5
D8
330
17
100
AcDbEntity
  8
FoilLayer
100
AcDbLine
 10
-251.73868555656082
 20
-5.12383986029572
 30
0.0
 11
-251.27131997511466
 21
-5.657525954167276
 31
0.0
  0
LINE
  5
D9
330
17
100
AcDbEntity
  8
FoilLayer
100
AcDbLine
 10
-251.27131997511466
 20
-5.657525954167276
 30
0.0
 11
-250.74633920543968
 21
-6.1814159834184315
 31
0.0
  0
LINE
  5
DA
330
17
100
AcDbEntity
  8
FoilLayer
100
AcDbLine
 10
-250.74633920543968
 20
-6.1814159834184315
 30
0.0
 11
-250.16750504939213
 21
-6.6933655698136665
 31
0.0
  0
LINE
  5
DB
330
17
100
AcDbEntity
  8
FoilLayer
100
AcDbLine
 10
-250.16750504939213
 20
-6.6933655698136665
 30
0.0
 11
-249.5367338191935
 21
-7.191494295064304
 31
0.0
  0
LINE
  5
DC
330
17
100
AcDbEntity
  8
FoilLayer
100
AcDbLine
 10
-249.5367338191935
 20
-7.191494295064304
 30
0.0
 11
-248.8543709351947
 21
-7.673955011209433
 31
0.0
  0
LINE
  5
DD
330
17
100
AcDbEntity
  8
FoilLayer
100
AcDbLine
 10
-248.8543709351947
 20
-7.673955011209433
 30
0.0
 11
-248.1170135735319
 21
-8.14010069526855
 31
0.0
  0
LINE
  5
DE
330
17
100
AcDbEntity
  8
FoilLayer
100
AcDbLine
 10
-248.1170135735319
 20
-8.14010069526855
 30
0.0
 11
-247.32090808972484
 21
-8.59009900941942
 31
0.0
  0
LINE
  5
DF
330
17
100
AcDbEntity
  8
FoilLayer
100
AcDbLine
 10
-247.32090808972484
 20
-8.59009900941942
 30
0.0
 11
-246.46147651572218
 21
-9.025397812155816
 31
0.0
  0
LINE
  5
E0
330
17
100
AcDbEntity
  8
FoilLayer
100
AcDbLine
 10
-246.46147651572218
 20
-9.025397812155816
 30
0.0
 11
-245.53514020805568
 21
-9.448738744032738
 31
0.0
  0
LINE
  5
E1
330
17
100
AcDbEntity
  8
FoilLayer
100
AcDbLine
 10
-245.53514020805568
 20
-9.448738744032738
 30
0.0
 11
-244.54075052755954
 21
-9.863567589441598
 31
0.0
  0
LINE
  5
E2
330
17
100
AcDbEntity
  8
FoilLayer
100
AcDbLine
 10
-244.54075052755954
 20
-9.863567589441598
 30
0.0
 11
-243.47807427742927
 21
-10.27290954767452
 31
0.0
  0
LINE
  5
E3
330
17
100
AcDbEntity
  8
FoilLayer
100
AcDbLine
 10
-243.47807427742927
 20
-10.27290954767452
 30
0.0
 11
-242.34493165090194
 21
-10.67900286039676
 31
0.0
  0
LINE
  5
E4
330
17
100
AcDbEntity
  8
FoilLayer
100
AcDbLine
 10
-242.34493165090194
 20
-10.67900286039676
 30
0.0
 11
-241.1376204070336
 21
-11.083308504240696
 31
0.0
  0
LINE
  5
E5
330
17
100
AcDbEntity
  8
FoilLayer
100
AcDbLine
 10
-241.1376204070336
 20
-11.083308504240696
 30
0.0
 11
-239.8516981424099
 21
-11.486453310151202
 31
0.0
  0
LINE
  5
E6
330
17
100
AcDbEntity
  8
FoilLayer
100
AcDbLine
 10
-239.8516981424099
 20
-11.486453310151202
 30
0.0
 11
-238.4830951066695
 21
-11.887423554273788
 31
0.0
  0
LINE
  5
E7
330
17
100
AcDbEntity
  8
FoilLayer
100
AcDbLine
 10
-238.4830951066695
 20
-11.887423554273788
 30
0.0
 11
-237.02281732054664
 21
-12.283030750288802
 31
0.0
  0
LINE
  5
E8
330
17
100
AcDbEntity
  8
FoilLayer
100
AcDbLine
 10
-237.02281732054664
 20
-12.283030750288802
 30
0.0
 11
-235.45509695221637
 21
-12.670661665996247
 31
0.0
  0
LINE
  5
E9
330
17
100
AcDbEntity
  8
FoilLayer
100
AcDbLine
 10
-235.45509695221637
 20
-12.670661665996247
 30
0.0
 11
-233.76571675094658
 21
-13.051834478561503
 31
0.0
  0
LINE
  5
EA
330
17
100
AcDbEntity
  8
FoilLayer
100
AcDbLine
 10
-233.76571675094658
 20
-13.051834478561503
 30
0.0
 11
-231.94434741278462
 21
-13.430237520630737
 31
0.0
  0
LINE
  5
EB
330
17
100
AcDbEntity
  8
FoilLayer
100
AcDbLine
 10
-231.94434741278462
 20
-13.430237520630737
 30
0.0
 11
-229.97977006327412
 21
-13.808488984741283
 31
0.0
  0
LINE
  5
EC
330
17
100
AcDbEntity
  8
FoilLayer
100
AcDbLine
 10
-229.97977006327412
 20
-13.808488984741283
 30
0.0
 11
-227.85972622546214
 21
-14.187534103634725
 31
0.0
  0
LINE
  5
ED
330
17
100
AcDbEntity
  8
FoilLayer
100
AcDbLine
 10
-227.85972622546214
 20
-14.187534103634725
 30
0.0
 11
-225.57182400497953
 21
-14.564571034737028
 31
0.0
  0
LINE
  5
EE
330
17
100
AcDbEntity
  8
FoilLayer
100
AcDbLine
 10
-225.57182400497953
 20
-14.564571034737028
 30
0.0
 11
-223.0990974372064
 21
-14.932518585249491
 31
0.0
  0
LINE
  5
EF
330
17
100
AcDbEntity
  8
FoilLayer
100
AcDbLine
 10
-223.0990974372064
 20
-14.932518585249491
 30
0.0
 11
-220.42087966624507
 21
-15.28461100788364
 31
0.0
  0
LINE
  5
F0
330
17
100
AcDbEntity
  8
FoilLayer
100
AcDbLine
 10
-220.42087966624507
 20
-15.28461100788364
 30
0.0
 11
-217.5135458039177
 21
-15.616038959783861
 31
0.0
  0
LINE
  5
F1
330
17
100
AcDbEntity
  8
FoilLayer
100
AcDbLine
 10
-217.5135458039177
 20
-15.616038959783861
 30
0.0
 11
-214.3504359760772
 21
-15.925492326155098
 31
0.0
  0
LINE
  5
F2
330
17
100
AcDbEntity
  8
FoilLayer
100
AcDbLine
 10
-214.3504359760772
 20
-15.925492326155098
 30
0.0
 11
-210.91249252162928
 21
-16.218278318639058
 31
0.0
  0
LINE
  5
F3
330
17
100
AcDbEntity
  8
FoilLayer
100
AcDbLine
 10
-210.91249252162928
 20
-16.218278318639058
 30
0.0
 11
-207.19710540639147
 21
-16.49796884330692
 31
0.0
  0
LINE
  5
F4
330
17
100
AcDbEntity
  8
FoilLayer
100
AcDbLine
 10
-207.19710540639147
 20
-16.49796884330692
 30
0.0
 11
-203.20862835526225
 21
-16.756904936552132
 31
0.0
  0
LINE
  5
F5
330
17
100
AcDbEntity
  8
FoilLayer
100
AcDbLine
 10
-203.20862835526225
 20
-16.756904936552132
 30
0.0
 11
-198.947973111741
 21
-16.983822010544706
 31
0.0
  0
LINE
  5
F6
330
17
100
AcDbEntity
  8
FoilLayer
100
AcDbLine
 10
-198.947973111741
 20
-16.983822010544706
 30
0.0
 11
-194.4169996883448
 21
-17.17312141817632
 31
0.0
  0
LINE
  5
F7
330
17
100
AcDbEntity
  8
FoilLayer
100
AcDbLine
 10
-194.4169996883448
 20
-17.17312141817632
 30
0.0
 11
-189.62218302288017
 21
-17.32484506112872
 31
0.0
  0
LINE
  5
F8
330
17
100
AcDbEntity
  8
FoilLayer
100
AcDbLine
 10
-189.62218302288017
 20
-17.32484506112872
 30
0.0
 11
-184.58325001060103
 21
-17.44495481855108
 31
0.0
  0
LINE
  5
F9
330
17
100
AcDbEntity
  8
FoilLayer
100
AcDbLine
 10
-184.58325001060103
 20
-17.44495481855108
 30
0.0
 11
-179.34489099451918
 21
-17.539410059885995
 31
0.0
  0
LINE
  5
FA
330
17
100
AcDbEntity
  8
FoilLayer
100
AcDbLine
 10
-179.34489099451918
 20
-17.539410059885995
 30
0.0
 11
-173.96204147458076
 21
-17.604937973760777
 31
0.0
  0
LINE
  5
FB
330
17
100
AcDbEntity
  8
FoilLayer
100
AcDbLine
 10
-173.96204147458076
 20
-17.604937973760777
 30
0.0
 11
-168.47485416245962
 21
-17.632604815008136
 31
0.0
  0
LINE
  5
FC
330
17
100
AcDbEntity
  8
FoilLayer
100
AcDbLine
 10
-168.47485416245962
 20
-17.632604815008136
 30
0.0
 11
-162.90024150247478
 21
-17.612455559227516
 31
0.0
  0
LINE
  5
FD
330
17
100
AcDbEntity
  8
FoilLayer
100
AcDbLine
 10
-162.90024150247478
 20
-17.612455559227516
 30
0.0
 11
-157.2239211517221
 21
-17.539332180830552
 31
0.0
  0
LINE
  5
FE
330
17
100
AcDbEntity
  8
FoilLayer
100
AcDbLine
 10
-157.2239211517221
 20
-17.539332180830552
 30
0.0
 11
-151.426254329575
 21
-17.422390761258555
 31
0.0
  0
LINE
  5
FF
330
17
100
AcDbEntity
  8
FoilLayer
100
AcDbLine
 10
-151.426254329575
 20
-17.422390761258555
 30
0.0
 11
-145.52227833383614
 21
-17.276222343843195
 31
0.0
  0
LINE
  5
100
330
17
100
AcDbEntity
  8
FoilLayer
100
AcDbLine
 10
-145.52227833383614
 20
-17.276222343843195
 30
0.0
 11
-139.5381996282025
 21
-17.103160990690164
 31
0.0
  0
LINE
  5
101
330
17
100
AcDbEntity
  8
FoilLayer
100
AcDbLine
 10
-139.5381996282025
 20
-17.103160990690164
 30
0.0
 11
-133.47664544328433
 21
-16.90150413066457
 31
0.0
  0
LINE
  5
102
330
17
100
AcDbEntity
  8
FoilLayer
100
AcDbLine
 10
-133.47664544328433
 20
-16.90150413066457
 30
0.0
 11
-127.33679453794365
 21
-16.677606178287608
 31
0.0
  0
LINE
  5
103
330
17
100
AcDbEntity
  8
FoilLayer
100
AcDbLine
 10
-127.33679453794365
 20
-16.677606178287608
 30
0.0
 11
-121.13871791936478
 21
-16.44117283618163
 31
0.0
  0
LINE
  5
104
330
17
100
AcDbEntity
  8
FoilLayer
100
AcDbLine
 10
-121.13871791936478
 20
-16.44117283618163
 30
0.0
 11
-119.05899460706041
 21
-16.35931452696821
 31
0.0
  0
LINE
  5
105
330
17
100
AcDbEntity
  8
FoilLayer
100
AcDbLine
 10
-119.05899460706041
 20
-16.35931452696821
 30
0.0
 11
-119.01769838211806
 21
-17.408502127831614
 31
0.0
  0
LINE
  5
106
330
17
100
AcDbEntity
  8
FoilLayer
100
AcDbLine
 10
-119.01769838211806
 20
-17.408502127831614
 30
0.0
 11
-114.8700767813776
 21
-17.245251601948112
 31
0.0
  0
LINE
  5
107
330
17
100
AcDbEntity
  8
FoilLayer
100
AcDbLine
 10
-114.8700767813776
 20
-17.245251601948112
 30
0.0
 11
-108.63957791501826
 21
-16.9893575490568
 31
0.0
  0
LINE
  5
108
330
17
100
AcDbEntity
  8
FoilLayer
100
AcDbLine
 10
-108.63957791501826
 20
-16.9893575490568
 30
0.0
 11
-102.41330593038745
 21
-16.714849019720297
 31
0.0
  0
LINE
  5
109
330
17
100
AcDbEntity
  8
FoilLayer
100
AcDbLine
 10
-102.41330593038745
 20
-16.714849019720297
 30
0.0
 11
-96.17273940082373
 21
-16.416932976363167
 31
0.0
  0
LINE
  5
10A
330
17
100
AcDbEntity
  8
FoilLayer
100
AcDbLine
 10
-96.17273940082373
 20
-16.416932976363167
 30
0.0
 11
-89.90152864764738
 21
-16.10056489048044
 31
0.0
  0
LINE
  5
10B
330
17
100
AcDbEntity
  8
FoilLayer
100
AcDbLine
 10
-89.90152864764738
 20
-16.10056489048044
 30
0.0
 11
-83.60375699542232
 21
-15.773100844468036
 31
0.0
  0
LINE
  5
10C
330
17
100
AcDbEntity
  8
FoilLayer
100
AcDbLine
 10
-83.60375699542232
 20
-15.773100844468036
 30
0.0
 11
-77.29442796421588
 21
-15.438708763471862
 31
0.0
  0
LINE
  5
10D
330
17
100
AcDbEntity
  8
FoilLayer
100
AcDbLine
 10
-77.29442796421588
 20
-15.438708763471862
 30
0.0
 11
-70.99160612472875
 21
-15.096390871366195
 31
0.0
  0
LINE
  5
10E
330
17
100
AcDbEntity
  8
FoilLayer
100
AcDbLine
 10
-70.99160612472875
 20
-15.096390871366195
 30
0.0
 11
-64.6973729945611
 21
-14.738925129831584
 31
0.0
  0
LINE
  5
10F
330
17
100
AcDbEntity
  8
FoilLayer
100
AcDbLine
 10
-64.6973729945611
 20
-14.738925129831584
 30
0.0
 11
-58.39172362808634
 21
-14.361994667774008
 31
0.0
  0
LINE
  5
110
330
17
100
AcDbEntity
  8
FoilLayer
100
AcDbLine
 10
-58.39172362808634
 20
-14.361994667774008
 30
0.0
 11
-52.05693122649683
 21
-13.969113108915503
 31
0.0
  0
LINE
  5
111
330
17
100
AcDbEntity
  8
FoilLayer
100
AcDbLine
 10
-52.05693122649683
 20
-13.969113108915503
 30
0.0
 11
-45.692691622423354
 21
-13.569388906190497
 31
0.0
  0
LINE
  5
112
330
17
100
AcDbEntity
  8
FoilLayer
100
AcDbLine
 10
-45.692691622423354
 20
-13.569388906190497
 30
0.0
 11
-39.31405389012613
 21
-13.173474039028967
 31
0.0
  0
LINE
  5
113
330
17
100
AcDbEntity
  8
FoilLayer
100
AcDbLine
 10
-39.31405389012613
 20
-13.173474039028967
 30
0.0
 11
-32.92104403024362
 21
-12.781135658649067
 31
0.0
  0
LINE
  5
114
330
17
100
AcDbEntity
  8
FoilLayer
100
AcDbLine
 10
-32.92104403024362
 20
-12.781135658649067
 30
0.0
 11
-26.521730570497937
 21
-12.383503412262291
 31
0.0
  0
LINE
  5
115
330
17
100
AcDbEntity
  8
FoilLayer
100
AcDbLine
 10
-26.521730570497937
 20
-12.383503412262291
 30
0.0
 11
-20.10712712119647
 21
-11.97775861178944
 31
0.0
  0
LINE
  5
116
330
17
100
AcDbEntity
  8
FoilLayer
100
AcDbLine
 10
-20.10712712119647
 20
-11.97775861178944
 30
0.0
 11
-13.677019286011443
 21
-11.568596525421023
 31
0.0
  0
LINE
  5
117
330
17
100
AcDbEntity
  8
FoilLayer
100
AcDbLine
 10
-13.677019286011443
 20
-11.568596525421023
 30
0.0
 11
-7.241693924624542
 21
-11.160583052165553
 31
0.0
  0
LINE
  5
118
330
17
100
AcDbEntity
  8
FoilLayer
100
AcDbLine
 10
-7.241693924624542
 20
-11.160583052165553
 30
0.0
 11
-0.8045729053135062
 21
-10.75562795859192
 31
0.0
  0
LINE
  5
119
330
17
100
AcDbEntity
  8
FoilLayer
100
AcDbLine
 10
-0.8045729053135062
 20
-10.75562795859192
 30
0.0
 11
5.6340581259592
 21
-10.354148554197891
 31
0.0
  0
LINE
  5
11A
330
17
100
AcDbEntity
  8
FoilLayer
100
AcDbLine
 10
5.6340581259592
 20
-10.354148554197891
 30
0.0
 11
12.072032256816613
 21
-9.954524877188197
 31
0.0
  0
LINE
  5
11B
330
17
100
AcDbEntity
  8
FoilLayer
100
AcDbLine
 10
12.072032256816613
 20
-9.954524877188197
 30
0.0
 11
18.503909305528225
 21
-9.552537027612132
 31
0.0
  0
LINE
  5
11C
330
17
100
AcDbEntity
  8
FoilLayer
100
AcDbLine
 10
18.503909305528225
 20
-9.552537027612132
 30
0.0
 11
24.934915612043085
 21
-9.144279664567403
 31
0.0
  0
LINE
  5
11D
330
17
100
AcDbEntity
  8
FoilLayer
100
AcDbLine
 10
24.934915612043085
 20
-9.144279664567403
 30
0.0
 11
31.37153938669684
 21
-8.732461982176165
 31
0.0
  0
LINE
  5
11E
330
17
100
AcDbEntity
  8
FoilLayer
100
AcDbLine
 10
31.37153938669684
 20
-8.732461982176165
 30
0.0
 11
37.80788373821292
 21
-8.322948237099132
 31
0.0
  0
LINE
  5
11F
330
17
100
AcDbEntity
  8
FoilLayer
100
AcDbLine
 10
37.80788373821292
 20
-8.322948237099132
 30
0.0
 11
44.24505031550507
 21
-7.917518527438194
 31
0.0
  0
LINE
  5
120
330
17
100
AcDbEntity
  8
FoilLayer
100
AcDbLine
 10
44.24505031550507
 20
-7.917518527438194
 30
0.0
 11
50.68383704971268
 21
-7.5152346089120945
 31
0.0
  0
LINE
  5
121
330
17
100
AcDbEntity
  8
FoilLayer
100
AcDbLine
 10
50.68383704971268
 20
-7.5152346089120945
 30
0.0
 11
57.12095549816405
 21
-7.112217838536509
 31
0.0
  0
LINE
  5
122
330
17
100
AcDbEntity
  8
FoilLayer
100
AcDbLine
 10
57.12095549816405
 20
-7.112217838536509
 30
0.0
 11
63.554667870890796
 21
-6.705121660583974
 31
0.0
  0
LINE
  5
123
330
17
100
AcDbEntity
  8
FoilLayer
100
AcDbLine
 10
63.554667870890796
 20
-6.705121660583974
 30
0.0
 11
69.98914602225932
 21
-6.293595781423612
 31
0.0
  0
LINE
  5
124
330
17
100
AcDbEntity
  8
FoilLayer
100
AcDbLine
 10
69.98914602225932
 20
-6.293595781423612
 30
0.0
 11
76.42294072874034
 21
-5.879944679227336
 31
0.0
  0
LINE
  5
125
330
17
100
AcDbEntity
  8
FoilLayer
100
AcDbLine
 10
76.42294072874034
 20
-5.879944679227336
 30
0.0
 11
82.8505012094854
 21
-5.468387266263076
 31
0.0
  0
LINE
  5
126
330
17
100
AcDbEntity
  8
FoilLayer
100
AcDbLine
 10
82.8505012094854
 20
-5.468387266263076
 30
0.0
 11
89.27019671081723
 21
-5.062264432731263
 31
0.0
  0
LINE
  5
127
330
17
100
AcDbEntity
  8
FoilLayer
100
AcDbLine
 10
89.27019671081723
 20
-5.062264432731263
 30
0.0
 11
95.68517868696773
 21
-4.662671334863881
 31
0.0
  0
LINE
  5
128
330
17
100
AcDbEntity
  8
FoilLayer
100
AcDbLine
 10
95.68517868696773
 20
-4.662671334863881
 30
0.0
 11
102.09903113674346
 21
-4.269069245402233
 31
0.0
  0
LINE
  5
129
330
17
100
AcDbEntity
  8
FoilLayer
100
AcDbLine
 10
102.09903113674346
 20
-4.269069245402233
 30
0.0
 11
108.51172449974717
 21
-3.8798875422384613
 31
0.0
  0
LINE
  5
12A
330
17
100
AcDbEntity
  8
FoilLayer
100
AcDbLine
 10
108.51172449974717
 20
-3.8798875422384613
 30
0.0
 11
114.91808242576707
 21
-3.4953906608778755
 31
0.0
  0
LINE
  5
12B
330
17
100
AcDbEntity
  8
FoilLayer
100
AcDbLine
 10
114.91808242576707
 20
-3.4953906608778755
 30
0.0
 11
121.31591622343745
 21
-3.1174797583543086
 31
0.0
  0
LINE
  5
12C
330
17
100
AcDbEntity
  8
FoilLayer
100
AcDbLine
 10
121.31591622343745
 20
-3.1174797583543086
 30
0.0
 11
127.70809402848266
 21
-2.748538690563728
 31
0.0
  0
LINE
  5
12D
330
17
100
AcDbEntity
  8
FoilLayer
100
AcDbLine
 10
127.70809402848266
 20
-2.748538690563728
 30
0.0
 11
134.10369532871448
 21
-2.3898086645759316
 31
0.0
  0
LINE
  5
12E
330
17
100
AcDbEntity
  8
FoilLayer
100
AcDbLine
 10
134.10369532871448
 20
-2.3898086645759316
 30
0.0
 11
140.51396006922687
 21
-2.038103005229257
 31
0.0
  0
LINE
  5
12F
330
17
100
AcDbEntity
  8
FoilLayer
100
AcDbLine
 10
140.51396006922687
 20
-2.038103005229257
 30
0.0
 11
146.93722763103722
 21
-1.6883191108497617
 31
0.0
  0
LINE
  5
130
330
17
100
AcDbEntity
  8
FoilLayer
100
AcDbLine
 10
146.93722763103722
 20
-1.6883191108497617
 30
0.0
 11
153.36302685125912
 21
-1.33636967806229
 31
0.0
  0
LINE
  5
131
330
17
100
AcDbEntity
  8
FoilLayer
100
AcDbLine
 10
153.36302685125912
 20
-1.33636967806229
 30
0.0
 11
159.79081243485683
 21
-0.9795802648837963
 31
0.0
  0
LINE
  5
132
330
17
100
AcDbEntity
  8
FoilLayer
100
AcDbLine
 10
159.79081243485683
 20
-0.9795802648837963
 30
0.0
 11
166.21960292702414
 21
-0.6211370488076929
 31
0.0
  0
LINE
  5
133
330
17
100
AcDbEntity
  8
FoilLayer
100
AcDbLine
 10
166.21960292702414
 20
-0.6211370488076929
 30
0.0
 11
172.64289201852625
 21
-0.2670382564531834
 31
0.0
  0
LINE
  5
134
330
17
100
AcDbEntity
  8
FoilLayer
100
AcDbLine
 10
172.64289201852625
 20
-0.2670382564531834
 30
0.0
 11
179.064153178413
 21
0.08086916008347877
 31
0.0
  0
LINE
  5
135
330
17
100
AcDbEntity
  8
FoilLayer
100
AcDbLine
 10
179.064153178413
 20
0.08086916008347877
 30
0.0
 11
185.48711850328903
 21
0.42359051021633976
 31
0.0
  0
LINE
  5
136
330
17
100
AcDbEntity
  8
FoilLayer
100
AcDbLine
 10
185.48711850328903
 20
0.42359051021633976
 30
0.0
 11
191.9082954833102
 21
0.7657522062594544
 31
0.0
  0
LINE
  5
137
330
17
100
AcDbEntity
  8
FoilLayer
100
AcDbLine
 10
191.9082954833102
 20
0.7657522062594544
 30
0.0
 11
198.3212160357482
 21
1.1111946031769795
 31
0.0
  0
LINE
  5
138
330
17
100
AcDbEntity
  8
FoilLayer
100
AcDbLine
 10
198.3212160357482
 20
1.1111946031769795
 30
0.0
 11
204.72303735545205
 21
1.4553014719130435
 31
0.0
  0
LINE
  5
139
330
17
100
AcDbEntity
  8
FoilLayer
100
AcDbLine
 10
204.72303735545205
 20
1.4553014719130435
 30
0.0
 11
211.10783756853624
 21
1.7911926049109967
 31
0.0
  0
LINE
  5
13A
330
17
100
AcDbEntity
  8
FoilLayer
100
AcDbLine
 10
211.10783756853624
 20
1.7911926049109967
 30
0.0
 11
217.4831334559189
 21
2.1157272212854656
 31
0.0
  0
LINE
  5
13B
330
17
100
AcDbEntity
  8
FoilLayer
100
AcDbLine
 10
217.4831334559189
 20
2.1157272212854656
 30
0.0
 11
223.8606104452225
 21
2.4292932060048136
 31
0.0
  0
LINE
  5
13C
330
17
100
AcDbEntity
  8
FoilLayer
100
AcDbLine
 10
223.8606104452225
 20
2.4292932060048136
 30
0.0
 11
230.24433691215302
 21
2.7378135676018776
 31
0.0
  0
LINE
  5
13D
330
17
100
AcDbEntity
  8
FoilLayer
100
AcDbLine
 10
230.24433691215302
 20
2.7378135676018776
 30
0.0
 11
236.6188127404356
 21
3.044501035215783
 31
0.0
  0
LINE
  5
13E
330
17
100
AcDbEntity
  8
FoilLayer
100
AcDbLine
 10
236.6188127404356
 20
3.044501035215783
 30
0.0
 11
242.96384559108378
 21
3.3474676415485587
 31
0.0
  0
LINE
  5
13F
330
17
100
AcDbEntity
  8
FoilLayer
100
AcDbLine
 10
242.96384559108378
 20
3.3474676415485587
 30
0.0
 11
249.26412621800483
 21
3.64026338859193
 31
0.0
  0
LINE
  5
140
330
17
100
AcDbEntity
  8
FoilLayer
100
AcDbLine
 10
249.26412621800483
 20
3.64026338859193
 30
0.0
 11
255.52063361509494
 21
3.9136820168290343
 31
0.0
  0
LINE
  5
141
330
17
100
AcDbEntity
  8
FoilLayer
100
AcDbLine
 10
255.52063361509494
 20
3.9136820168290343
 30
0.0
 11
261.7523285423813
 21
4.166602608701294
 31
0.0
  0
LINE
  5
142
330
17
100
AcDbEntity
  8
FoilLayer
100
AcDbLine
 10
261.7523285423813
 20
4.166602608701294
 30
0.0
 11
267.95650752676625
 21
4.408375988593663
 31
0.0
  0
LINE
  5
143
330
17
100
AcDbEntity
  8
FoilLayer
100
AcDbLine
 10
267.95650752676625
 20
4.408375988593663
 30
0.0
 11
274.10124170110294
 21
4.635706616764972
 31
0.0
  0
LINE
  5
144
330
17
100
AcDbEntity
  8
FoilLayer
100
AcDbLine
 10
274.10124170110294
 20
4.635706616764972
 30
0.0
 11
280.18384786321997
 21
4.831420247814036
 31
0.0
  0
LINE
  5
145
330
17
100
AcDbEntity
  8
FoilLayer
100
AcDbLine
 10
280.18384786321997
 20
4.831420247814036
 30
0.0
 11
286.2353086025512
 21
4.99025216614816
 31
0.0
  0
LINE
  5
146
330
17
100
AcDbEntity
  8
FoilLayer
100
AcDbLine
 10
286.2353086025512
 20
4.99025216614816
 30
0.0
 11
292.27551600136417
 21
5.119406843158202
 31
0.0
  0
LINE
  5
147
330
17
100
AcDbEntity
  8
FoilLayer
100
AcDbLine
 10
292.27551600136417
 20
5.119406843158202
 30
0.0
 11
298.29240280974125
 21
5.232891812303276
 31
0.0
  0
LINE
  5
148
330
17
100
AcDbEntity
  8
FoilLayer
100
AcDbLine
 10
298.29240280974125
 20
5.232891812303276
 30
0.0
 11
304.25672229540123
 21
5.350139803619367
 31
0.0
  0
LINE
  5
149
330
17
100
AcDbEntity
  8
FoilLayer
100
AcDbLine
 10
304.25672229540123
 20
5.350139803619367
 30
0.0
 11
310.11041467983125
 21
5.45396781981816
 31
0.0
  0
LINE
  5
14A
330
17
100
AcDbEntity
  8
FoilLayer
100
AcDbLine
 10
310.11041467983125
 20
5.45396781981816
 30
0.0
 11
315.8510427133225
 21
5.4934816697384266
 31
0.0
  0
LINE
  5
14B
330
17
100
AcDbEntity
  8
FoilLayer
100
AcDbLine
 10
315.8510427133225
 20
5.4934816697384266
 30
0.0
 11
321.5739291538406
 21
5.467096988452958
 31
0.0
  0
LINE
  5
14C
330
17
100
AcDbEntity
  8
FoilLayer
100
AcDbLine
 10
321.5739291538406
 20
5.467096988452958
 30
0.0
 11
327.29826149797805
 21
5.438812628668816
 31
0.0
  0
LINE
  5
14D
330
17
100
AcDbEntity
  8
FoilLayer
100
AcDbLine
 10
327.29826149797805
 20
5.438812628668816
 30
0.0
 11
332.96584474651047
 21
5.4223991116168495
 31
0.0
  0
LINE
  5
14E
330
17
100
AcDbEntity
  8
FoilLayer
100
AcDbLine
 10
332.96584474651047
 20
5.4223991116168495
 30
0.0
 11
338.5579248288984
 21
5.360634035232154
 31
0.0
  0
LINE
  5
14F
330
17
100
AcDbEntity
  8
FoilLayer
100
AcDbLine
 10
338.5579248288984
 20
5.360634035232154
 30
0.0
 11
344.125609182895
 21
5.233884023129825
 31
0.0
  0
LINE
  5
150
330
17
100
AcDbEntity
  8
FoilLayer
100
AcDbLine
 10
344.125609182895
 20
5.233884023129825
 30
0.0
 11
349.6786295033619
 21
5.108469057258021
 31
0.0
  0
LINE
  5
151
330
17
100
AcDbEntity
  8
FoilLayer
100
AcDbLine
 10
349.6786295033619
 20
5.108469057258021
 30
0.0
 11
355.174563703104
 21
5.011631295806169
 31
0.0
  0
LINE
  5
152
330
17
100
AcDbEntity
  8
FoilLayer
100
AcDbLine
 10
355.174563703104
 20
5.011631295806169
 30
0.0
 11
360.59523806164896
 21
4.87454423983652
 31
0.0
  0
LINE
  5
153
330
17
100
AcDbEntity
  8
FoilLayer
100
AcDbLine
 10
360.59523806164896
 20
4.87454423983652
 30
0.0
 11
365.99190324166545
 21
4.642628334968156
 31
0.0
  0
LINE
  5
154
330
17
100
AcDbEntity
  8
FoilLayer
100
AcDbLine
 10
365.99190324166545
 20
4.642628334968156
 30
0.0
 11
371.42467487183603
 21
4.36485284571027
 31
0.0
  0
LINE
  5
155
330
17
100
AcDbEntity
  8
FoilLayer
100
AcDbLine
 10
371.42467487183603
 20
4.36485284571027
 30
0.0
 11
376.82997360514946
 21
4.089470064973167
 31
0.0
  0
LINE
  5
156
330
17
100
AcDbEntity
  8
FoilLayer
100
AcDbLine
 10
376.82997360514946
 20
4.089470064973167
 30
0.0
 11
382.09994219038254
 21
3.794675948767148
 31
0.0
  0
LINE
  5
157
330
17
100
AcDbEntity
  8
FoilLayer
100
AcDbLine
 10
382.09994219038254
 20
3.794675948767148
 30
0.0
 11
387.2634975503644
 21
3.3970181319365103
 31
0.0
  0
LINE
  5
158
330
17
100
AcDbEntity
  8
FoilLayer
100
AcDbLine
 10
387.2634975503644
 20
3.3970181319365103
 30
0.0
 11
392.400993233235
 21
2.945137456605417
 31
0.0
  0
LINE
  5
159
330
17
100
AcDbEntity
  8
FoilLayer
100
AcDbLine
 10
392.400993233235
 20
2.945137456605417
 30
0.0
 11
397.4426331993619
 21
2.4735498985230158
 31
0.0
  0
LINE
  5
15A
330
17
100
AcDbEntity
  8
FoilLayer
100
AcDbLine
 10
397.4426331993619
 20
2.4735498985230158
 30
0.0
 11
402.3183721670681
 21
2.0086222896719477
 31
0.0
  0
LINE
  5
15B
330
17
100
AcDbEntity
  8
FoilLayer
100
AcDbLine
 10
402.3183721670681
 20
2.0086222896719477
 30
0.0
 11
406.95987311352485
 21
1.5289305927268544
 31
0.0
  0
LINE
  5
15C
330
17
100
AcDbEntity
  8
FoilLayer
100
AcDbLine
 10
406.95987311352485
 20
1.5289305927268544
 30
0.0
 11
411.3511654828478
 21
1.0417344657899508
 31
0.0
  0
LINE
  5
15D
330
17
100
AcDbEntity
  8
FoilLayer
100
AcDbLine
 10
411.3511654828478
 20
1.0417344657899508
 30
0.0
 11
415.4712791977313
 21
0.5865822438978876
 31
0.0
  0
LINE
  5
15E
330
17
100
AcDbEntity
  8
FoilLayer
100
AcDbLine
 10
415.4712791977313
 20
0.5865822438978876
 30
0.0
 11
419.300819499774
 21
0.1405420285285029
 31
0.0
  0
LINE
  5
15F
330
17
100
AcDbEntity
  8
FoilLayer
100
AcDbLine
 10
419.300819499774
 20
0.1405420285285029
 30
0.0
 11
422.82964505006544
 21
-0.28619293741323465
 31
0.0
  0
LINE
  5
160
330
17
100
AcDbEntity
  8
FoilLayer
100
AcDbLine
 10
422.82964505006544
 20
-0.28619293741323465
 30
0.0
 11
425.01135465013624
 21
-0.5728126221251844
 31
0.0
  0
LINE
  5
161
330
17
100
AcDbEntity
  8
FoilLayer
100
AcDbLine
 10
425.01135465013624
 20
-0.5728126221251844
 30
0.0
 11
424.8628341793885
 21
0.5918893694910894
 31
0.0
  0
LINE
  5
162
330
17
100
AcDbEntity
  8
StringerLayer
100
AcDbLine
 10
183.90760747504964
 20
60.23639847525686
 30
0.0
 11
187.82143554594518
 21
59.410595937436874
 31
0.0
  0
LINE
  5
163
330
17
100
AcDbEntity
  8
StringerLayer
100
AcDbLine
 10
187.82143554594518
 20
59.410595937436874
 30
0.0
 11
188.64723808376516
 21
63.324424008332436
 31
0.0
  0
LINE
  5
164
330
17
100
AcDbEntity
  8
StringerLayer
100
AcDbLine
 10
188.64723808376516
 20
63.324424008332436
 30
0.0
 11
184.73341001286963
 21
64.15022654615242
 31
0.0
  0
LINE
  5
165
330
17
100
AcDbEntity
  8
StringerLayer
100
AcDbLine
 10
184.73341001286963
 20
64.15022654615242
 30
0.0
 11
183.90760747504964
 21
60.23639847525686
 31
0.0
  0
LINE
  5
166
330
17
100
AcDbEntity
  8
StringerLayer
100
AcDbLine
 10
-72.80011652217095
 20
73.71800316489467
 30
0.0
 11
-68.82307302285557
 21
74.14593423943043
 31
0.0
  0
LINE
  5
167
330
17
100
AcDbEntity
  8
StringerLayer
100
AcDbLine
 10
-68.82307302285557
 20
74.14593423943043
 30
0.0
 11
-69.25100409739132
 21
78.1229777387458
 31
0.0
  0
LINE
  5
168
330
17
100
AcDbEntity
  8
StringerLayer
100
AcDbLine
 10
-69.25100409739132
 20
78.1229777387458
 30
0.0
 11
-73.2280475967067
 21
77.69504666421004
 31
0.0
  0
LINE
  5
169
330
17
100
AcDbEntity
  8
StringerLayer
100
AcDbLine
 10
-73.2280475967067
 20
77.69504666421004
 30
0.0
 11
-72.80011652217095
 21
73.71800316489467
 31
0.0
  0
LINE
  5
16A
330
17
100
AcDbEntity
  8
StringerLayer
100
AcDbLine
 10
-186.85679094312914
 20
47.3598766325355
 30
0.0
 11
-183.13219320134786
 21
48.81842785272556
 31
0.0
  0
LINE
  5
16B
330
17
100
AcDbEntity
  8
StringerLayer
100
AcDbLine
 10
-183.13219320134786
 20
48.81842785272556
 30
0.0
 11
-184.59074442153792
 21
52.54302559450682
 31
0.0
  0
LINE
  5
16C
330
17
100
AcDbEntity
  8
StringerLayer
100
AcDbLine
 10
-184.59074442153792
 20
52.54302559450682
 30
0.0
 11
-188.3153421633192
 21
51.08447437431676
 31
0.0
  0
LINE
  5
16D
330
17
100
AcDbEntity
  8
StringerLayer
100
AcDbLine
 10
-188.3153421633192
 20
51.08447437431676
 30
0.0
 11
-186.85679094312914
 21
47.3598766325355
 31
0.0
  0
LINE
  5
16E
330
17
100
AcDbEntity
  8
StringerLayer
100
AcDbLine
 10
-241.49449822893155
 20
14.225954683566476
 30
0.0
 11
-240.11917210940578
 21
15.67801462205051
 31
0.0
  0
LINE
  5
16F
330
17
100
AcDbEntity
  8
StringerLayer
100
AcDbLine
 10
-240.11917210940578
 20
15.67801462205051
 30
0.0
 11
-243.02329198637386
 21
18.428666861102
 31
0.0
  0
LINE
  5
170
330
17
100
AcDbEntity
  8
StringerLayer
100
AcDbLine
 10
-243.02329198637386
 20
18.428666861102
 30
0.0
 11
-244.39861810589963
 21
16.976606922617965
 31
0.0
  0
LINE
  5
171
330
17
100
AcDbEntity
  8
StringerLayer
100
AcDbLine
 10
-244.39861810589963
 20
16.976606922617965
 30
0.0
 11
-241.49449822893155
 21
14.225954683566476
 31
0.0
  0
LINE
  5
172
330
17
100
AcDbEntity
  8
StringerLayer
100
AcDbLine
 10
-244.6302190345842
 20
-5.51285808415265
 30
0.0
 11
-246.3729669183891
 21
-4.53161916651151
 31
0.0
  0
LINE
  5
173
330
17
100
AcDbEntity
  8
StringerLayer
100
AcDbLine
 10
-246.3729669183891
 20
-4.53161916651151
 30
0.0
 11
-248.33544475367137
 21
-8.017114934121302
 31
0.0
  0
LINE
  5
174
330
17
100
AcDbEntity
  8
StringerLayer
100
AcDbLine
 10
-248.33544475367137
 20
-8.017114934121302
 30
0.0
 11
-246.59269686986647
 21
-8.998353851762442
 31
0.0
  0
LINE
  5
175
330
17
100
AcDbEntity
  8
StringerLayer
100
AcDbLine
 10
-246.59269686986647
 20
-8.998353851762442
 30
0.0
 11
-244.6302190345842
 21
-5.51285808415265
 31
0.0
  0
LINE
  5
176
330
17
100
AcDbEntity
  8
StringerLayer
100
AcDbLine
 10
-151.1113365691212
 20
-13.415208285200722
 30
0.0
 11
-155.11052290576032
 21
-13.495884457885
 31
0.0
  0
LINE
  5
177
330
17
100
AcDbEntity
  8
StringerLayer
100
AcDbLine
 10
-155.11052290576032
 20
-13.495884457885
 30
0.0
 11
-155.02984673307603
 21
-17.495070794524118
 31
0.0
  0
LINE
  5
178
330
17
100
AcDbEntity
  8
StringerLayer
100
AcDbLine
 10
-155.02984673307603
 20
-17.495070794524118
 30
0.0
 11
-151.0306603964369
 21
-17.41439462183984
 31
0.0
  0
LINE
  5
179
330
17
100
AcDbEntity
  8
StringerLayer
100
AcDbLine
 10
-151.0306603964369
 20
-17.41439462183984
 30
0.0
 11
-151.1113365691212
 21
-13.415208285200722
 31
0.0
  0
LINE
  5
17A
330
17
100
AcDbEntity
  8
SubLayer
100
AcDbLine
 10
-254.99999999999977
 20
0.0
 30
0.0
 11
-250.99999999999977
 21
0.0
 31
0.0
  0
LINE
  5
17B
330
17
100
AcDbEntity
  8
SubLayer
100
AcDbLine
 10
49.0
 20
0.0
 30
0.0
 11
59.799999999999955
 21
0.0
 31
0.0
  0
LINE
  5
17C
330
17
100
AcDbEntity
  8
SubLayer
100
AcDbLine
 10
-36.99165416037093
 20
33.34496292201927
 30
0.0
 11
-29.01523214255556
 21
33.958715147033814
 31
0.0
  0
LINE
  5
17D
330
17
100
AcDbEntity
  8
SubLayer
100
AcDbLine
 10
29.01523214255556
 20
38.42391602207091
 30
0.0
 11
36.99165416037093
 21
39.037668247085456
 31
0.0
  0
LINE
  5
17E
330
17
100
AcDbEntity
  8
SubLayer
100
AcDbLine
 10
-2.6613063666912082
 20
70.77807850655195
 30
0.0
 11
-2.047554141676659
 21
62.80165648873658
 31
0.0
  0
LINE
  5
17F
330
17
100
AcDbEntity
  8
SubLayer
100
AcDbLine
 10
2.6613063666912082
 20
1.604552662552777
 30
0.0
 11
2.047554141676659
 21
9.58097468036814
 31
0.0
  0
LINE
  5
180
330
17
100
AcDbEntity
  8
SubLayer
100
AcDbLine
 10
-34.844110599663445
 20
31.504295473819067
 30
0.0
 11
-30.855899590755765
 21
31.811171586326342
 31
0.0
  0
LINE
  5
181
330
17
100
AcDbEntity
  8
SubLayer
100
AcDbLine
 10
-30.855899590755765
 20
31.811171586326342
 30
0.0
 11
-31.16277570326304
 21
35.79938259523402
 31
0.0
  0
LINE
  5
182
330
17
100
AcDbEntity
  8
SubLayer
100
AcDbLine
 10
-31.16277570326304
 20
35.79938259523402
 30
0.0
 11
-35.15098671217072
 21
35.492506482726746
 31
0.0
  0
LINE
  5
183
330
17
100
AcDbEntity
  8
SubLayer
100
AcDbLine
 10
-35.15098671217072
 20
35.492506482726746
 30
0.0
 11
-34.844110599663445
 21
31.504295473819067
 31
0.0
  0
LINE
  5
184
330
17
100
AcDbEntity
  8
SubLayer
100
AcDbLine
 10
31.16277570326304
 20
36.583248573870705
 30
0.0
 11
35.15098671217072
 21
36.89012468637798
 31
0.0
  0
LINE
  5
185
330
17
100
AcDbEntity
  8
SubLayer
100
AcDbLine
 10
35.15098671217072
 20
36.89012468637798
 30
0.0
 11
34.844110599663445
 21
40.87833569528566
 31
0.0
  0
LINE
  5
186
330
17
100
AcDbEntity
  8
SubLayer
100
AcDbLine
 10
34.844110599663445
 20
40.87833569528566
 30
0.0
 11
30.855899590755765
 21
40.57145958277838
 31
0.0
  0
LINE
  5
187
330
17
100
AcDbEntity
  8
SubLayer
100
AcDbLine
 10
30.855899590755765
 20
40.57145958277838
 30
0.0
 11
31.16277570326304
 21
36.583248573870705
 31
0.0
  0
LINE
  5
188
330
17
100
AcDbEntity
  8
SubLayer
100
AcDbLine
 10
-4.195097702384136
 20
64.64232393693679
 30
0.0
 11
-0.20688669347645572
 21
64.94920004944406
 31
0.0
  0
LINE
  5
189
330
17
100
AcDbEntity
  8
SubLayer
100
AcDbLine
 10
-0.20688669347645572
 20
64.94920004944406
 30
0.0
 11
-0.5137628059837305
 21
68.93741105835174
 31
0.0
  0
LINE
  5
18A
330
17
100
AcDbEntity
  8
SubLayer
100
AcDbLine
 10
-0.5137628059837305
 20
68.93741105835174
 30
0.0
 11
-4.501973814891411
 21
68.63053494584447
 31
0.0
  0
LINE
  5
18B
330
17
100
AcDbEntity
  8
SubLayer
100
AcDbLine
 10
-4.501973814891411
 20
68.63053494584447
 30
0.0
 11
-4.195097702384136
 21
64.64232393693679
 31
0.0
  0
LINE
  5
18C
330
17
100
AcDbEntity
  8
SubLayer
100
AcDbLine
 10
0.5137628059837305
 20
3.4452201107529805
 30
0.0
 11
4.501973814891411
 21
3.7520962232602555
 31
0.0
  0
LINE
  5
18D
330
17
100
AcDbEntity
  8
SubLayer
100
AcDbLine
 10
4.501973814891411
 20
3.7520962232602555
 30
0.0
 11
4.195097702384136
 21
7.740307232167936
 31
0.0
  0
LINE
  5
18E
330
17
100
AcDbEntity
  8
SubLayer
100
AcDbLine
 10
4.195097702384136
 20
7.740307232167936
 30
0.0
 11
0.20688669347645572
 21
7.4334311196606615
 31
0.0
  0
LINE
  5
18F
330
17
100
AcDbEntity
  8
SubLayer
100
AcDbLine
 10
0.20688669347645572
 20
7.4334311196606615
 30
0.0
 11
0.5137628059837305
 21
3.4452201107529805
 31
0.0
  0
LINE
  5
190
330
17
100
AcDbEntity
  8
SubLayer
100
AcDbLine
 10
287.33215570775076
 20
39.36126061235277
 30
0.0
 11
291.32036671665844
 21
39.66813672486004
 31
0.0
  0
LINE
  5
191
330
17
100
AcDbEntity
  8
SubLayer
100
AcDbLine
 10
-255.24048794552363
 20
-2.3874290295010776
 30
0.0
 11
-251.25227693661594
 21
-2.080552916993803
 31
0.0
  0
LINE
  5
192
330
17
100
AcDbEntity
  8
SubLayer
100
AcDbLine
 10
-147.72301196709566
 20
5.885589870742874
 30
0.0
 11
-141.74069545373413
 21
6.345904039503785
 31
0.0
  0
LINE
  5
193
330
17
100
AcDbEntity
  8
SubLayer
100
AcDbLine
 10
177.82057422486898
 20
30.934803655855184
 30
0.0
 11
183.8028907382305
 21
31.395117824616094
 31
0.0
  0
LINE
  5
194
330
17
100
AcDbEntity
  8
SubLayer
100
AcDbLine
 10
15.048781128886647
 20
18.41019676329903
 30
0.0
 11
21.03109764224817
 21
18.87051093205994
 31
0.0
  0
LINE
  5
195
330
17
100
AcDbEntity
  8
SubLayer
100
AcDbLine
 10
-142.58431014970742
 20
4.275079506923126
 30
0.0
 11
-142.8911862622147
 21
8.263290515830807
 31
0.0
  0
LINE
  5
196
330
17
100
AcDbEntity
  8
SubLayer
100
AcDbLine
 10
-142.8911862622147
 20
8.263290515830807
 30
0.0
 11
-146.87939727112237
 21
7.9564144033235324
 31
0.0
  0
LINE
  5
197
330
17
100
AcDbEntity
  8
SubLayer
100
AcDbLine
 10
-146.87939727112237
 20
7.9564144033235324
 30
0.0
 11
-146.5725211586151
 21
3.9682033944158515
 31
0.0
  0
LINE
  5
198
330
17
100
AcDbEntity
  8
SubLayer
100
AcDbLine
 10
-146.5725211586151
 20
3.9682033944158515
 30
0.0
 11
-142.58431014970742
 21
4.275079506923126
 31
0.0
  0
LINE
  5
199
330
17
100
AcDbEntity
  8
SubLayer
100
AcDbLine
 10
182.95927604225722
 20
29.324293292035435
 30
0.0
 11
182.65239992974995
 21
33.31250430094312
 31
0.0
  0
LINE
  5
19A
330
17
100
AcDbEntity
  8
SubLayer
100
AcDbLine
 10
182.65239992974995
 20
33.31250430094312
 30
0.0
 11
178.66418892084226
 21
33.00562818843584
 31
0.0
  0
LINE
  5
19B
330
17
100
AcDbEntity
  8
SubLayer
100
AcDbLine
 10
178.66418892084226
 20
33.00562818843584
 30
0.0
 11
178.97106503334953
 21
29.01741717952816
 31
0.0
  0
LINE
  5
19C
330
17
100
AcDbEntity
  8
SubLayer
100
AcDbLine
 10
178.97106503334953
 20
29.01741717952816
 30
0.0
 11
182.95927604225722
 21
29.324293292035435
 31
0.0
  0
LINE
  5
19D
330
17
100
AcDbEntity
  8
SubLayer
100
AcDbLine
 10
20.187482946274887
 20
16.79968639947928
 30
0.0
 11
19.88060683376761
 21
20.787897408386964
 31
0.0
  0
LINE
  5
19E
330
17
100
AcDbEntity
  8
SubLayer
100
AcDbLine
 10
19.88060683376761
 20
20.787897408386964
 30
0.0
 11
15.89239582485993
 21
20.48102129587969
 31
0.0
  0
LINE
  5
19F
330
17
100
AcDbEntity
  8
SubLayer
100
AcDbLine
 10
15.89239582485993
 20
20.48102129587969
 30
0.0
 11
16.199271937367204
 21
16.492810286972006
 31
0.0
  0
LINE
  5
1A0
330
17
100
AcDbEntity
  8
SubLayer
100
AcDbLine
 10
16.199271937367204
 20
16.492810286972006
 30
0.0
 11
20.187482946274887
 21
16.79968639947928
 31
0.0
  0
LINE
  5
1A1
330
17
100
AcDbEntity
  8
SubLayer
100
AcDbLine
 10
405.86466163061834
 20
5.8380960837407105
 30
0.0
 11
406.18029065553867
 21
6.786978752266103
 31
0.0
  0
LINE
  5
1A2
330
17
100
AcDbEntity
  8
SubLayer
100
AcDbLine
 10
405.0313652429342
 20
1.2256456424827804
 30
0.0
 11
405.1175546471425
 21
2.2219244120057606
 31
0.0
  0
LINE
  5
1A3
330
17
100
AcDbEntity
  8
SubLayer
100
AcDbLine
 10
386.69010672351476
 20
11.515233937915797
 30
0.0
 11
386.9899127115915
 21
12.469234131581034
 31
0.0
  0
LINE
  5
1A4
330
17
100
AcDbEntity
  8
SubLayer
100
AcDbLine
 10
385.11417895568684
 20
3.061099325008388
 30
0.0
 11
385.20315688521566
 21
4.057132922863782
 31
0.0
  0
LINE
  5
1A5
330
17
100
AcDbEntity
  8
SubLayer
100
AcDbLine
 10
348.2490172087043
 20
22.57290035132979
 30
0.0
 11
348.53716339653585
 21
23.53048678316669
 31
0.0
  0
LINE
  5
1A6
330
17
100
AcDbEntity
  8
SubLayer
100
AcDbLine
 10
345.1373419485143
 20
4.711360137874671
 30
0.0
 11
345.2024707261194
 21
5.7092370051923105
 31
0.0
  0
LINE
  5
1A7
330
17
100
AcDbEntity
  8
SubLayer
100
AcDbLine
 10
-152.76351262489604
 20
66.3439486273038
 30
0.0
 11
-152.45663651238877
 21
62.35573761839612
 31
0.0
  0
LINE
  5
1A8
330
17
100
AcDbEntity
  8
SubLayer
100
AcDbLine
 10
-146.36596107374828
 20
-16.799653909492122
 30
0.0
 11
-146.059084961241
 21
-20.787864918399805
 31
0.0
  0
LINE
  5
1A9
330
17
100
AcDbEntity
  8
SubLayer
100
AcDbLine
 10
-147.72219041210465
 20
0.8261193500939807
 30
0.0
 11
-147.26187624334372
 21
-5.1561971632675405
 31
0.0
  0
LINE
  5
1AA
330
17
100
AcDbEntity
  8
SubLayer
100
AcDbLine
 10
-151.56072134279333
 20
50.71228087217154
 30
0.0
 11
-151.1004071740324
 21
44.729964358810015
 31
0.0
  0
LINE
  5
1AB
330
17
100
AcDbEntity
  8
SubLayer
100
AcDbLine
 10
-149.64145587744898
 20
25.76920011113276
 30
0.0
 11
-149.18114170868805
 21
19.786883597771237
 31
0.0
  0
LINE
  5
1AC
330
17
100
AcDbEntity
  8
SubLayer
100
AcDbLine
 10
-149.3327007759244
 20
-4.312582467294257
 30
0.0
 11
-145.3444897670167
 21
-4.005706354786983
 31
0.0
  0
LINE
  5
1AD
330
17
100
AcDbEntity
  8
SubLayer
100
AcDbLine
 10
-145.3444897670167
 20
-4.005706354786983
 30
0.0
 11
-145.65136587952398
 21
-0.017495345879301905
 31
0.0
  0
LINE
  5
1AE
330
17
100
AcDbEntity
  8
SubLayer
100
AcDbLine
 10
-145.65136587952398
 20
-0.017495345879301905
 30
0.0
 11
-149.63957688843166
 21
-0.32437145838657666
 31
0.0
  0
LINE
  5
1AF
330
17
100
AcDbEntity
  8
SubLayer
100
AcDbLine
 10
-149.63957688843166
 20
-0.32437145838657666
 30
0.0
 11
-149.3327007759244
 21
-4.312582467294257
 31
0.0
  0
LINE
  5
1B0
330
17
100
AcDbEntity
  8
SubLayer
100
AcDbLine
 10
-153.17123170661307
 20
45.5735790547833
 30
0.0
 11
-149.1830206977054
 21
45.88045516729058
 31
0.0
  0
LINE
  5
1B1
330
17
100
AcDbEntity
  8
SubLayer
100
AcDbLine
 10
-149.1830206977054
 20
45.88045516729058
 30
0.0
 11
-149.48989681021266
 21
49.86866617619825
 31
0.0
  0
LINE
  5
1B2
330
17
100
AcDbEntity
  8
SubLayer
100
AcDbLine
 10
-149.48989681021266
 20
49.86866617619825
 30
0.0
 11
-153.47810781912034
 21
49.56179006369098
 31
0.0
  0
LINE
  5
1B3
330
17
100
AcDbEntity
  8
SubLayer
100
AcDbLine
 10
-153.47810781912034
 20
49.56179006369098
 30
0.0
 11
-153.17123170661307
 21
45.5735790547833
 31
0.0
  0
LINE
  5
1B4
330
17
100
AcDbEntity
  8
SubLayer
100
AcDbLine
 10
-151.25196624126872
 20
20.63049829374452
 30
0.0
 11
-147.26375523236104
 21
20.937374406251795
 31
0.0
  0
LINE
  5
1B5
330
17
100
AcDbEntity
  8
SubLayer
100
AcDbLine
 10
-147.26375523236104
 20
20.937374406251795
 30
0.0
 11
-147.5706313448683
 21
24.92558541515948
 31
0.0
  0
LINE
  5
1B6
330
17
100
AcDbEntity
  8
SubLayer
100
AcDbLine
 10
-147.5706313448683
 20
24.92558541515948
 30
0.0
 11
-151.558842353776
 21
24.618709302652203
 31
0.0
  0
LINE
  5
1B7
330
17
100
AcDbEntity
  8
SubLayer
100
AcDbLine
 10
-151.558842353776
 20
24.618709302652203
 30
0.0
 11
-151.25196624126872
 21
20.63049829374452
 31
0.0
  0
LINE
  5
1B8
330
17
100
AcDbEntity
  8
SubLayer
100
AcDbLine
 10
96.84446086374942
 20
81.042819075686
 30
0.0
 11
97.15133697625669
 21
77.05460806677831
 31
0.0
  0
LINE
  5
1B9
330
17
100
AcDbEntity
  8
SubLayer
100
AcDbLine
 10
103.28385478147432
 20
-2.644573545187428
 30
0.0
 11
103.59073089398159
 21
-6.632784554095109
 31
0.0
  0
LINE
  5
1BA
330
17
100
AcDbEntity
  8
SubLayer
100
AcDbLine
 10
101.91925696980252
 20
15.089957731214179
 30
0.0
 11
102.37957113856342
 21
9.107641217852658
 31
0.0
  0
LINE
  5
1BB
330
17
100
AcDbEntity
  8
SubLayer
100
AcDbLine
 10
98.05562061916758
 20
65.30239330373824
 30
0.0
 11
98.51593478792849
 21
59.32007679037672
 31
0.0
  0
LINE
  5
1BC
330
17
100
AcDbEntity
  8
SubLayer
100
AcDbLine
 10
99.98743879448504
 20
40.196175517476206
 30
0.0
 11
100.44775296324595
 21
34.21385900411468
 31
0.0
  0
LINE
  5
1BD
330
17
100
AcDbEntity
  8
SubLayer
100
AcDbLine
 10
100.30874660598276
 20
9.95125591382594
 30
0.0
 11
104.29695761489045
 21
10.258132026333215
 31
0.0
  0
LINE
  5
1BE
330
17
100
AcDbEntity
  8
SubLayer
100
AcDbLine
 10
104.29695761489045
 20
10.258132026333215
 30
0.0
 11
103.99008150238318
 21
14.246343035240896
 31
0.0
  0
LINE
  5
1BF
330
17
100
AcDbEntity
  8
SubLayer
100
AcDbLine
 10
103.99008150238318
 20
14.246343035240896
 30
0.0
 11
100.0018704934755
 21
13.939466922733622
 31
0.0
  0
LINE
  5
1C0
330
17
100
AcDbEntity
  8
SubLayer
100
AcDbLine
 10
100.0018704934755
 20
13.939466922733622
 30
0.0
 11
100.30874660598276
 21
9.95125591382594
 31
0.0
  0
LINE
  5
1C1
330
17
100
AcDbEntity
  8
SubLayer
100
AcDbLine
 10
96.44511025534783
 20
60.163691486350004
 30
0.0
 11
100.43332126425551
 21
60.47056759885728
 31
0.0
  0
LINE
  5
1C2
330
17
100
AcDbEntity
  8
SubLayer
100
AcDbLine
 10
100.43332126425551
 20
60.47056759885728
 30
0.0
 11
100.12644515174824
 21
64.45877860776496
 31
0.0
  0
LINE
  5
1C3
330
17
100
AcDbEntity
  8
SubLayer
100
AcDbLine
 10
100.12644515174824
 20
64.45877860776496
 30
0.0
 11
96.13823414284056
 21
64.15190249525769
 31
0.0
  0
LINE
  5
1C4
330
17
100
AcDbEntity
  8
SubLayer
100
AcDbLine
 10
96.13823414284056
 20
64.15190249525769
 30
0.0
 11
96.44511025534783
 21
60.163691486350004
 31
0.0
  0
LINE
  5
1C5
330
17
100
AcDbEntity
  8
SubLayer
100
AcDbLine
 10
98.37692843066529
 20
35.05747370008797
 30
0.0
 11
102.36513943957297
 21
35.36434981259524
 31
0.0
  0
LINE
  5
1C6
330
17
100
AcDbEntity
  8
SubLayer
100
AcDbLine
 10
102.36513943957297
 20
35.36434981259524
 30
0.0
 11
102.0582633270657
 21
39.35256082150292
 31
0.0
  0
LINE
  5
1C7
330
17
100
AcDbEntity
  8
SubLayer
100
AcDbLine
 10
102.0582633270657
 20
39.35256082150292
 30
0.0
 11
98.07005231815802
 21
39.045684708995644
 31
0.0
  0
LINE
  5
1C8
330
17
100
AcDbEntity
  8
SubLayer
100
AcDbLine
 10
98.07005231815802
 20
39.045684708995644
 30
0.0
 11
98.37692843066529
 21
35.05747370008797
 31
0.0
  0
ENDSEC
  0
SECTION
  2
OBJECTS
  0
DICTIONARY
  5
A
330
0
100
AcDbDictionary
280
0
281
1
  3
ACAD_COLOR
350
B
  3
ACAD_GROUP
350
C
  3
ACAD_LAYOUT
350
D
  3
ACAD_MATERIAL
350
E
  3
ACAD_MLEADERSTYLE
350
F
  3
ACAD_MLINESTYLE
350
10
  3
ACAD_PLOTSETTINGS
350
11
  3
ACAD_PLOTSTYLENAME
350
12
  3
ACAD_SCALELIST
350
14
  3
ACAD_TABLESTYLE
350
15
  3
ACAD_VISUALSTYLE
350
16
  3
EZDXF_META
350
2D
  0
DICTIONARY
  5
B
330
A
100
AcDbDictionary
280
0
281
1
  0
DICTIONARY
  5
C
330
A
100
AcDbDictionary
280
0
281
1
  0
DICTIONARY
  5
D
330
A
100
AcDbDictionary
280
0
281
1
  3
Model
350
1A
  3
Layout1
350
1E
  0
DICTIONARY
  5
E
330
A
100
AcDbDictionary
280
0
281
1
  3
ByBlock
350
1F
  3
ByLayer
350
20
  3
Global
350
21
  0
DICTIONARY
  5
F
330
A
100
AcDbDictionary
280
0
281
1
  3
Standard
350
2C
  0
DICTIONARY
  5
10
330
A
100
AcDbDictionary
280
0
281
1
  3
Standard
350
22
  0
DICTIONARY
  5
11
330
A
100
AcDbDictionary
280
0
281
1
  0
ACDBDICTIONARYWDFLT
  5
12
330
A
100
AcDbDictionary
280
0
281
1
  3
Normal
350
13
100
AcDbDictionaryWithDefault
340
13
  0
ACDBPLACEHOLDER
  5
13
330
12
  0
DICTIONARY
  5
14
330
A
100
AcDbDictionary
280
0
281
1
  0
DICTIONARY
  5
15
330
A
100
AcDbDictionary
280
0
281
1
  0
DICTIONARY
  5
16
330
A
100
AcDbDictionary
280
0
281
1
  0
LAYOUT
  5
1A
330
D
100
AcDbPlotSettings
  1

  2
Adobe PDF
  4
A3
  6

 40
7.5
 41
20.0
 42
7.5
 43
20.0
 44
420.0
 45
297.0
 46
0.0
 47
0.0
 48
0.0
 49
0.0
140
0.0
141
0.0
142
1.0
143
1.0
 70
1024
 72
1
 73
0
 74
5
  7

 75
16
 76
0
 77
2
 78
300
147
1.0
148
0.0
149
0.0
100
AcDbLayout
  1
Model
 70
1
 71
0
 10
0.0
 20
0.0
 11
420.0
 21
297.0
 12
0.0
 22
0.0
 32
0.0
 14
1e+20
 24
1e+20
 34
1e+20
 15
-1e+20
 25
-1e+20
 35
-1e+20
146
0.0
 13
0.0
 23
0.0
 33
0.0
 16
1.0
 26
0.0
 36
0.0
 17
0.0
 27
1.0
 37
0.0
 76
1
330
17
  0
LAYOUT
  5
1E
330
D
100
AcDbPlotSettings
  1

  2
Adobe PDF
  4
A3
  6

 40
7.5
 41
20.0
 42
7.5
 43
20.0
 44
420.0
 45
297.0
 46
0.0
 47
0.0
 48
0.0
 49
0.0
140
0.0
141
0.0
142
1.0
143
1.0
 70
0
 72
1
 73
0
 74
5
  7

 75
16
 76
0
 77
2
 78
300
147
1.0
148
0.0
149
0.0
100
AcDbLayout
  1
Layout1
 70
1
 71
1
 10
0.0
 20
0.0
 11
420.0
 21
297.0
 12
0.0
 22
0.0
 32
0.0
 14
1e+20
 24
1e+20
 34
1e+20
 15
-1e+20
 25
-1e+20
 35
-1e+20
146
0.0
 13
0.0
 23
0.0
 33
0.0
 16
1.0
 26
0.0
 36
0.0
 17
0.0
 27
1.0
 37
0.0
 76
1
330
1B
  0
MATERIAL
  5
1F
102
{ACAD_REACTORS
330
E
102
}
330
E
100
AcDbMaterial
  1
ByBlock
  2

 70
0
 40
1.0
 71
1
 41
1.0
 91
-1023410177
 42
1.0
 72
1
  3

 73
1
 74
1
 75
1
 44
0.5
 73
0
 45
1.0
 46
1.0
 77
1
  4

 78
1
 79
1
170
1
 48
1.0
171
1
  6

172
1
173
1
174
1
140
1.0
141
1.0
175
1
  7

176
1
177
1
178
1
143
1.0
179
1
  8

270
1
271
1
272
1
145
1.0
146
1.0
273
1
  9

274
1
275
1
276
1
 42
1.0
 72
1
  3

 73
1
 74
1
 75
1
 94
63
  0
MATERIAL
  5
20
102
{ACAD_REACTORS
330
E
102
}
330
E
100
AcDbMaterial
  1
ByLayer
  2

 70
0
 40
1.0
 71
1
 41
1.0
 91
-1023410177
 42
1.0
 72
1
  3

 73
1
 74
1
 75
1
 44
0.5
 73
0
 45
1.0
 46
1.0
 77
1
  4

 78
1
 79
1
170
1
 48
1.0
171
1
  6

172
1
173
1
174
1
140
1.0
141
1.0
175
1
  7

176
1
177
1
178
1
143
1.0
179
1
  8

270
1
271
1
272
1
145
1.0
146
1.0
273
1
  9

274
1
275
1
276
1
 42
1.0
 72
1
  3

 73
1
 74
1
 75
1
 94
63
  0
MATERIAL
  5
21
102
{ACAD_REACTORS
330
E
102
}
330
E
100
AcDbMaterial
  1
Global
  2

 70
0
 40
1.0
 71
1
 41
1.0
 91
-1023410177
 42
1.0
 72
1
  3

 73
1
 74
1
 75
1
 44
0.5
 73
0
 45
1.0
 46
1.0
 77
1
  4

 78
1
 79
1
170
1
 48
1.0
171
1
  6

172
1
173
1
174
1
140
1.0
141
1.0
175
1
  7

176
1
177
1
178
1
143
1.0
179
1
  8

270
1
271
1
272
1
145
1.0
146
1.0
273
1
  9

274
1
275
1
276
1
 42
1.0
 72
1
  3

 73
1
 74
1
 75
1
 94
63
  0
MLINESTYLE
  5
22
102
{ACAD_REACTORS
330
10
102
}
330
10
100
AcDbMlineStyle
  2
Standard
 70
0
  3

 62
256
 51
90.0
 52
90.0
 71
2
 49
0.5
 62
256
  6
BYLAYER
 49
-0.5
 62
256
  6
BYLAYER
  0
MLEADERSTYLE
  5
2C
102
{ACAD_REACTORS
330
F
102
}
330
F
100
AcDbMLeaderStyle
179
2
170
2
171
1
172
0
 90
2
 40
0.0
 41
0.0
173
1
 91
-1056964608
 92
-2
290
1
 42
2.0
291
1
 43
8.0
  3
Standard
 44
4.0
300

342
29
174
1
175
1
176
0
178
1
 93
-1056964608
 45
4.0
292
0
297
0
 46
4.0
 94
-1056964608
 47
1.0
 49
1.0
140
1.0
294
1
141
0.0
177
0
142
1.0
295
0
296
0
143
3.75
271
0
272
9
273
9
  0
DICTIONARY
  5
2D
330
A
100
AcDbDictionary
281
1
  3
CREATED_BY_EZDXF
350
2E
  3
WRITTEN_BY_EZDXF
350
1CB
  0
DICTIONARYVAR
  5
2E
330
2D
100
DictionaryVariables
280
0
  1
1.0.2 @ 2024-03-22T07:41:34.527470+00:00
  0
DICTIONARYVAR
  5
1CB
330
2D
100
DictionaryVariables
280
0
  1
1.0.2 @ 2024-03-22T07:41:34.538039+00:00
  0
ENDSEC
  0
EOF
