  0
SECTION
  2
HEADER
  9
$ACADVER
  1
AC1027
  9
$ACADMAINTVER
 70
105
  9
$DWGCODEPAGE
  3
ANSI_1252
  9
$LASTSAVEDBY
  1
ezdxf
  9
$REQUIREDVERSIONS
160
0
  9
$INSBASE
 10
0.0
 20
0.0
 30
0.0
  9
$EXTMIN
 10
1e+20
 20
1e+20
 30
1e+20
  9
$EXTMAX
 10
-1e+20
 20
-1e+20
 30
-1e+20
  9
$LIMMIN
 10
0.0
 20
0.0
  9
$LIMMAX
 10
420.0
 20
297.0
  9
$ORTHOMODE
 70
0
  9
$REGENMODE
 70
1
  9
$FILLMODE
 70
1
  9
$QTEXTMODE
 70
0
  9
$MIRRTEXT
 70
1
  9
$LTSCALE
 40
1.0
  9
$ATTMODE
 70
1
  9
$TEXTSIZE
 40
2.5
  9
$TRACEWID
 40
1.0
  9
$TEXTSTYLE
  7
Standard
  9
$CLAYER
  8
0
  9
$CELTYPE
  6
ByLayer
  9
$CECOLOR
 62
256
  9
$CELTSCALE
 40
1.0
  9
$DISPSILH
 70
0
  9
$DIMSCALE
 40
1.0
  9
$DIMASZ
 40
2.5
  9
$DIMEXO
 40
0.625
  9
$DIMDLI
 40
3.75
  9
$DIMRND
 40
0.0
  9
$DIMDLE
 40
0.0
  9
$DIMEXE
 40
1.25
  9
$DIMTP
 40
0.0
  9
$DIMTM
 40
0.0
  9
$DIMTXT
 40
2.5
  9
$DIMCEN
 40
2.5
  9
$DIMTSZ
 40
0.0
  9
$DIMTOL
 70
0
  9
$DIMLIM
 70
0
  9
$DIMTIH
 70
0
  9
$DIMTOH
 70
0
  9
$DIMSE1
 70
0
  9
$DIMSE2
 70
0
  9
$DIMTAD
 70
1
  9
$DIMZIN
 70
8
  9
$DIMBLK
  1

  9
$DIMASO
 70
1
  9
$DIMSHO
 70
1
  9
$DIMPOST
  1

  9
$DIMAPOST
  1

  9
$DIMALT
 70
0
  9
$DIMALTD
 70
3
  9
$DIMALTF
 40
0.03937007874
  9
$DIMLFAC
 40
1.0
  9
$DIMTOFL
 70
1
  9
$DIMTVP
 40
0.0
  9
$DIMTIX
 70
0
  9
$DIMSOXD
 70
0
  9
$DIMSAH
 70
0
  9
$DIMBLK1
  1

  9
$DIMBLK2
  1

  9
$DIMSTYLE
  2
ISO-25
  9
$DIMCLRD
 70
0
  9
$DIMCLRE
 70
0
  9
$DIMCLRT
 70
0
  9
$DIMTFAC
 40
1.0
  9
$DIMGAP
 40
0.625
  9
$DIMJUST
 70
0
  9
$DIMSD1
 70
0
  9
$DIMSD2
 70
0
  9
$DIMTOLJ
 70
0
  9
$DIMTZIN
 70
8
  9
$DIMALTZ
 70
0
  9
$DIMALTTZ
 70
0
  9
$DIMUPT
 70
0
  9
$DIMDEC
 70
2
  9
$DIMTDEC
 70
2
  9
$DIMALTU
 70
2
  9
$DIMALTTD
 70
3
  9
$DIMTXSTY
  7
Standard
  9
$DIMAUNIT
 70
0
  9
$DIMADEC
 70
0
  9
$DIMALTRND
 40
0.0
  9
$DIMAZIN
 70
0
  9
$DIMDSEP
 70
44
  9
$DIMATFIT
 70
3
  9
$DIMFRAC
 70
0
  9
$DIMLDRBLK
  1

  9
$DIMLUNIT
 70
2
  9
$DIMLWD
 70
-2
  9
$DIMLWE
 70
-2
  9
$DIMTMOVE
 70
0
  9
$DIMFXL
 40
1.0
  9
$DIMFXLON
 70
0
  9
$DIMJOGANG
 40
0.785398163397
  9
$DIMTFILL
 70
0
  9
$DIMTFILLCLR
 70
0
  9
$DIMARCSYM
 70
0
  9
$DIMLTYPE
  6

  9
$DIMLTEX1
  6

  9
$DIMLTEX2
  6

  9
$DIMTXTDIRECTION
 70
0
  9
$LUNITS
 70
2
  9
$LUPREC
 70
4
  9
$SKETCHINC
 40
1.0
  9
$FILLETRAD
 40
10.0
  9
$AUNITS
 70
0
  9
$AUPREC
 70
2
  9
$MENU
  1
.
  9
$ELEVATION
 40
0.0
  9
$PELEVATION
 40
0.0
  9
$THICKNESS
 40
0.0
  9
$LIMCHECK
 70
0
  9
$CHAMFERA
 40
0.0
  9
$CHAMFERB
 40
0.0
  9
$CHAMFERC
 40
0.0
  9
$CHAMFERD
 40
0.0
  9
$SKPOLY
 70
0
  9
$TDCREATE
 40
2460392.6955324076
  9
$TDUCREATE
 40
2458532.153996898
  9
$TDUPDATE
 40
2460392.6955324076
  9
$TDUUPDATE
 40
2458532.1544311
  9
$TDINDWG
 40
0.0
  9
$TDUSRTIMER
 40
0.0
  9
$USRTIMER
 70
1
  9
$ANGBASE
 50
0.0
  9
$ANGDIR
 70
0
  9
$PDMODE
 70
0
  9
$PDSIZE
 40
0.0
  9
$PLINEWID
 40
0.0
  9
$SPLFRAME
 70
0
  9
$SPLINETYPE
 70
6
  9
$SPLINESEGS
 70
8
  9
$HANDSEED
  5
1CD
  9
$SURFTAB1
 70
6
  9
$SURFTAB2
 70
6
  9
$SURFTYPE
 70
6
  9
$SURFU
 70
6
  9
$SURFV
 70
6
  9
$UCSBASE
  2

  9
$UCSNAME
  2

  9
$UCSORG
 10
0.0
 20
0.0
 30
0.0
  9
$UCSXDIR
 10
1.0
 20
0.0
 30
0.0
  9
$UCSYDIR
 10
0.0
 20
1.0
 30
0.0
  9
$UCSORTHOREF
  2

  9
$UCSORTHOVIEW
 70
0
  9
$UCSORGTOP
 10
0.0
 20
0.0
 30
0.0
  9
$UCSORGBOTTOM
 10
0.0
 20
0.0
 30
0.0
  9
$UCSORGLEFT
 10
0.0
 20
0.0
 30
0.0
  9
$UCSORGRIGHT
 10
0.0
 20
0.0
 30
0.0
  9
$UCSORGFRONT
 10
0.0
 20
0.0
 30
0.0
  9
$UCSORGBACK
 10
0.0
 20
0.0
 30
0.0
  9
$PUCSBASE
  2

  9
$PUCSNAME
  2

  9
$PUCSORG
 10
0.0
 20
0.0
 30
0.0
  9
$PUCSXDIR
 10
1.0
 20
0.0
 30
0.0
  9
$PUCSYDIR
 10
0.0
 20
1.0
 30
0.0
  9
$PUCSORTHOREF
  2

  9
$PUCSORTHOVIEW
 70
0
  9
$PUCSORGTOP
 10
0.0
 20
0.0
 30
0.0
  9
$PUCSORGBOTTOM
 10
0.0
 20
0.0
 30
0.0
  9
$PUCSORGLEFT
 10
0.0
 20
0.0
 30
0.0
  9
$PUCSORGRIGHT
 10
0.0
 20
0.0
 30
0.0
  9
$PUCSORGFRONT
 10
0.0
 20
0.0
 30
0.0
  9
$PUCSORGBACK
 10
0.0
 20
0.0
 30
0.0
  9
$USERI1
 70
0
  9
$USERI2
 70
0
  9
$USERI3
 70
0
  9
$USERI4
 70
0
  9
$USERI5
 70
0
  9
$USERR1
 40
0.0
  9
$USERR2
 40
0.0
  9
$USERR3
 40
0.0
  9
$USERR4
 40
0.0
  9
$USERR5
 40
0.0
  9
$WORLDVIEW
 70
1
  9
$SHADEDGE
 70
3
  9
$SHADEDIF
 70
70
  9
$TILEMODE
 70
1
  9
$MAXACTVP
 70
64
  9
$PINSBASE
 10
0.0
 20
0.0
 30
0.0
  9
$PLIMCHECK
 70
0
  9
$PEXTMIN
 10
1e+20
 20
1e+20
 30
1e+20
  9
$PEXTMAX
 10
-1e+20
 20
-1e+20
 30
-1e+20
  9
$PLIMMIN
 10
0.0
 20
0.0
  9
$PLIMMAX
 10
420.0
 20
297.0
  9
$UNITMODE
 70
0
  9
$VISRETAIN
 70
1
  9
$PLINEGEN
 70
0
  9
$PSLTSCALE
 70
1
  9
$TREEDEPTH
 70
3020
  9
$CMLSTYLE
  2
Standard
  9
$CMLJUST
 70
0
  9
$CMLSCALE
 40
20.0
  9
$PROXYGRAPHICS
 70
1
  9
$MEASUREMENT
 70
1
  9
$CELWEIGHT
370
-1
  9
$ENDCAPS
280
0
  9
$JOINSTYLE
280
0
  9
$LWDISPLAY
290
0
  9
$INSUNITS
 70
6
  9
$HYPERLINKBASE
  1

  9
$STYLESHEET
  1

  9
$XEDIT
290
1
  9
$CEPSNTYPE
380
0
  9
$PSTYLEMODE
290
1
  9
$FINGERPRINTGUID
  2
{BB8893EF-CA7D-45EC-8B41-3F2C9FB4A20B}
  9
$VERSIONGUID
  2
{818377A4-0F08-4367-89EF-C8D7A107A743}
  9
$EXTNAMES
290
1
  9
$PSVPSCALE
 40
0.0
  9
$OLESTARTUP
290
0
  9
$SORTENTS
280
127
  9
$INDEXCTL
280
0
  9
$HIDETEXT
280
1
  9
$XCLIPFRAME
280
0
  9
$HALOGAP
280
0
  9
$OBSCOLOR
 70
257
  9
$OBSLTYPE
280
0
  9
$INTERSECTIONDISPLAY
280
0
  9
$INTERSECTIONCOLOR
 70
257
  9
$DIMASSOC
280
2
  9
$PROJECTNAME
  1

  9
$CAMERADISPLAY
290
0
  9
$LENSLENGTH
 40
50.0
  9
$CAMERAHEIGHT
 40
0.0
  9
$STEPSPERSEC
 40
24.0
  9
$STEPSIZE
 40
100.0
  9
$3DDWFPREC
 40
2.0
  9
$PSOLWIDTH
 40
0.005
  9
$PSOLHEIGHT
 40
0.08
  9
$LOFTANG1
 40
1.570796326795
  9
$LOFTANG2
 40
1.570796326795
  9
$LOFTMAG1
 40
0.0
  9
$LOFTMAG2
 40
0.0
  9
$LOFTPARAM
 70
7
  9
$LOFTNORMALS
280
1
  9
$LATITUDE
 40
37.795
  9
$LONGITUDE
 40
-122.394
  9
$NORTHDIRECTION
 40
0.0
  9
$TIMEZONE
 70
-8000
  9
$LIGHTGLYPHDISPLAY
280
1
  9
$TILEMODELIGHTSYNCH
280
1
  9
$CMATERIAL
347
20
  9
$SOLIDHIST
280
0
  9
$SHOWHIST
280
1
  9
$DWFFRAME
280
2
  9
$DGNFRAME
280
2
  9
$REALWORLDSCALE
290
1
  9
$INTERFERECOLOR
 62
256
  9
$CSHADOW
280
0
  9
$SHADOWPLANELOCATION
 40
0.0
  0
ENDSEC
  0
SECTION
  2
CLASSES
  0
CLASS
  1
ACDBDICTIONARYWDFLT
  2
AcDbDictionaryWithDefault
  3
ObjectDBX Classes
 90
0
 91
0
280
0
281
0
  0
CLASS
  1
SUN
  2
AcDbSun
  3
SCENEOE
 90
1153
 91
0
280
0
281
0
  0
CLASS
  1
VISUALSTYLE
  2
AcDbVisualStyle
  3
ObjectDBX Classes
 90
4095
 91
0
280
0
281
0
  0
CLASS
  1
MATERIAL
  2
AcDbMaterial
  3
ObjectDBX Classes
 90
1153
 91
0
280
0
281
0
  0
CLASS
  1
SCALE
  2
AcDbScale
  3
ObjectDBX Classes
 90
1153
 91
0
280
0
281
0
  0
CLASS
  1
TABLESTYLE
  2
AcDbTableStyle
  3
ObjectDBX Classes
 90
4095
 91
0
280
0
281
0
  0
CLASS
  1
MLEADERSTYLE
  2
AcDbMLeaderStyle
  3
ACDB_MLEADERSTYLE_CLASS
 90
4095
 91
0
280
0
281
0
  0
CLASS
  1
DICTIONARYVAR
  2
AcDbDictionaryVar
  3
ObjectDBX Classes
 90
0
 91
0
280
0
281
0
  0
CLASS
  1
CELLSTYLEMAP
  2
AcDbCellStyleMap
  3
ObjectDBX Classes
 90
1152
 91
0
280
0
281
0
  0
CLASS
  1
MENTALRAYRENDERSETTINGS
  2
AcDbMentalRayRenderSettings
  3
SCENEOE
 90
1024
 91
0
280
0
281
0
  0
CLASS
  1
ACDBDETAILVIEWSTYLE
  2
AcDbDetailViewStyle
  3
ObjectDBX Classes
 90
1025
 91
0
280
0
281
0
  0
CLASS
  1
ACDBSECTIONVIEWSTYLE
  2
AcDbSectionViewStyle
  3
ObjectDBX Classes
 90
1025
 91
0
280
0
281
0
  0
CLASS
  1
RASTERVARIABLES
  2
AcDbRasterVariables
  3
ISM
 90
0
 91
0
280
0
281
0
  0
CLASS
  1
LAYOUT
  2
AcDbLayout
  3
ObjectDBX Classes
 90
0
 91
0
280
0
281
0
  0
CLASS
  1
ACDBPLACEHOLDER
  2
AcDbPlaceHolder
  3
ObjectDBX Classes
 90
0
 91
0
280
0
281
0
  0
ENDSEC
  0
SECTION
  2
TABLES
  0
TABLE
  2
VPORT
  5
8
330
0
100
AcDbSymbolTable
 70
1
  0
VPORT
  5
23
330
8
100
AcDbSymbolTableRecord
100
AcDbViewportTableRecord
  2
*Active
 70
0
 10
0.0
 20
0.0
 11
1.0
 21
1.0
 12
0.0
 22
0.0
 13
0.0
 23
0.0
 14
0.5
 24
0.5
 15
0.5
 25
0.5
 16
0.0
 26
0.0
 36
1.0
 17
0.0
 27
0.0
 37
0.0
 40
1000.0
 41
1.34
 42
50.0
 43
0.0
 44
0.0
 50
0.0
 51
0.0
 71
0
 72
1000
 73
1
 74
3
 75
0
 76
0
 77
0
 78
0
281
0
 65
0
146
0.0
  0
ENDTAB
  0
TABLE
  2
LTYPE
  5
2
330
0
100
AcDbSymbolTable
 70
3
  0
LTYPE
  5
24
330
2
100
AcDbSymbolTableRecord
100
AcDbLinetypeTableRecord
  2
ByBlock
 70
0
  3

 72
65
 73
0
 40
0.0
  0
LTYPE
  5
25
330
2
100
AcDbSymbolTableRecord
100
AcDbLinetypeTableRecord
  2
ByLayer
 70
0
  3

 72
65
 73
0
 40
0.0
  0
LTYPE
  5
26
330
2
100
AcDbSymbolTableRecord
100
AcDbLinetypeTableRecord
  2
Continuous
 70
0
  3

 72
65
 73
0
 40
0.0
  0
ENDTAB
  0
TABLE
  2
LAYER
  5
1
330
0
100
AcDbSymbolTable
 70
5
  0
LAYER
  5
27
330
1
100
AcDbSymbolTableRecord
100
AcDbLayerTableRecord
  2
0
 70
0
 62
7
  6
Continuous
370
-3
390
13
347
21
  0
LAYER
  5
28
330
1
100
AcDbSymbolTableRecord
100
AcDbLayerTableRecord
  2
Defpoints
 70
0
 62
7
  6
Continuous
290
0
370
-3
390
13
347
21
  0
LAYER
  5
30
330
1
100
AcDbSymbolTableRecord
100
AcDbLayerTableRecord
  2
FoilLayer
 70
0
 62
1
  6
Continuous
370
50
390
13
347
21
  0
LAYER
  5
31
330
1
100
AcDbSymbolTableRecord
100
AcDbLayerTableRecord
  2
StringerLayer
 70
0
 62
1
  6
Continuous
370
50
390
13
347
21
  0
LAYER
  5
32
330
1
100
AcDbSymbolTableRecord
100
AcDbLayerTableRecord
  2
SubLayer
 70
0
 62
1
  6
Continuous
370
50
390
13
347
21
  0
ENDTAB
  0
TABLE
  2
STYLE
  5
5
330
0
100
AcDbSymbolTable
 70
2
  0
STYLE
  5
29
330
5
100
AcDbSymbolTableRecord
100
AcDbTextStyleTableRecord
  2
Standard
 70
0
 40
0.0
 41
1.0
 50
0.0
 71
0
 42
2.5
  3
txt
  4

  0
STYLE
  5
2F
330
5
100
AcDbSymbolTableRecord
100
AcDbTextStyleTableRecord
  2
MSゴシック
 70
0
 40
0.0
 41
1.0
 50
0.0
 71
0
 42
2.5
  3
romans
  4

  0
ENDTAB
  0
TABLE
  2
VIEW
  5
7
330
0
100
AcDbSymbolTable
 70
0
  0
ENDTAB
  0
TABLE
  2
UCS
  5
6
330
0
100
AcDbSymbolTable
 70
0
  0
ENDTAB
  0
TABLE
  2
APPID
  5
3
330
0
100
AcDbSymbolTable
 70
3
  0
APPID
  5
2A
330
3
100
AcDbSymbolTableRecord
100
AcDbRegAppTableRecord
  2
ACAD
 70
0
  0
APPID
  5
1CA
330
3
100
AcDbSymbolTableRecord
100
AcDbRegAppTableRecord
  2
HATCHBACKGROUNDCOLOR
 70
0
  0
APPID
  5
1CB
330
3
100
AcDbSymbolTableRecord
100
AcDbRegAppTableRecord
  2
EZDXF
 70
0
  0
ENDTAB
  0
TABLE
  2
DIMSTYLE
  5
4
330
0
100
AcDbSymbolTable
 70
1
100
AcDbDimStyleTable
  0
DIMSTYLE
105
2B
330
4
100
AcDbSymbolTableRecord
100
AcDbDimStyleTableRecord
  2
Standard
 70
0
 40
1.0
 41
2.5
 42
0.625
 43
3.75
 44
1.25
 45
0.0
 46
0.0
 47
0.0
 48
0.0
 49
2.5
140
2.5
141
2.5
142
0.0
143
0.03937007874
144
1.0
145
0.0
146
1.0
147
0.625
148
0.0
 69
0
 70
0
 71
0
 72
0
 73
0
 74
0
 75
0
 76
0
 77
1
 78
8
 79
3
170
0
171
3
172
1
173
0
174
0
175
0
176
0
177
0
178
0
179
2
271
2
272
2
273
2
274
3
275
0
276
0
277
2
278
44
279
0
280
0
281
0
282
0
283
0
284
8
285
0
286
0
288
0
289
3
290
0
371
-2
372
-2
  0
ENDTAB
  0
TABLE
  2
BLOCK_RECORD
  5
9
330
0
100
AcDbSymbolTable
 70
2
  0
BLOCK_RECORD
  5
17
330
9
100
AcDbSymbolTableRecord
100
AcDbBlockTableRecord
  2
*Model_Space
340
1A
 70
0
280
1
281
0
  0
BLOCK_RECORD
  5
1B
330
9
100
AcDbSymbolTableRecord
100
AcDbBlockTableRecord
  2
*Paper_Space
340
1E
 70
0
280
1
281
0
  0
ENDTAB
  0
ENDSEC
  0
SECTION
  2
BLOCKS
  0
BLOCK
  5
18
330
17
100
AcDbEntity
  8
0
100
AcDbBlockBegin
  2
*Model_Space
 70
0
 10
0.0
 20
0.0
 30
0.0
  3
*Model_Space
  1

  0
ENDBLK
  5
19
330
17
100
AcDbEntity
  8
0
100
AcDbBlockEnd
  0
BLOCK
  5
1C
330
1B
100
AcDbEntity
  8
0
100
AcDbBlockBegin
  2
*Paper_Space
 70
0
 10
0.0
 20
0.0
 30
0.0
  3
*Paper_Space
  1

  0
ENDBLK
  5
1D
330
1B
100
AcDbEntity
  8
0
100
AcDbBlockEnd
  0
ENDSEC
  0
SECTION
  2
ENTITIES
  0
LINE
  5
33
330
17
100
AcDbEntity
  8
FoilLayer
100
AcDbLine
 10
235.88590391468455
 20
42.68794817431996
 30
0.0
 11
15.75
 21
-10.894340132957876
 31
0.0
  0
LINE
  5
34
330
17
100
AcDbEntity
  8
FoilLayer
100
AcDbLine
 10
393.74999999999966
 20
0.885484383253145
 30
0.0
 11
391.7951302078999
 21
1.4879602714503364
 31
0.0
  0
LINE
  5
35
330
17
100
AcDbEntity
  8
FoilLayer
100
AcDbLine
 10
391.7951302078999
 20
1.4879602714503364
 30
0.0
 11
388.66085569863094
 21
2.403836519981415
 31
0.0
  0
LINE
  5
36
330
17
100
AcDbEntity
  8
FoilLayer
100
AcDbLine
 10
388.66085569863094
 20
2.403836519981415
 30
0.0
 11
385.26648629588476
 21
3.4203070705217633
 31
0.0
  0
LINE
  5
37
330
17
100
AcDbEntity
  8
FoilLayer
100
AcDbLine
 10
385.26648629588476
 20
3.4203070705217633
 30
0.0
 11
381.5660309929182
 21
4.5070241587588225
 31
0.0
  0
LINE
  5
38
330
17
100
AcDbEntity
  8
FoilLayer
100
AcDbLine
 10
381.5660309929182
 20
4.5070241587588225
 30
0.0
 11
377.54150289599806
 21
5.66312466579892
 31
0.0
  0
LINE
  5
39
330
17
100
AcDbEntity
  8
FoilLayer
100
AcDbLine
 10
377.54150289599806
 20
5.66312466579892
 30
0.0
 11
373.21924918186426
 21
6.904699143864242
 31
0.0
  0
LINE
  5
3A
330
17
100
AcDbEntity
  8
FoilLayer
100
AcDbLine
 10
373.21924918186426
 20
6.904699143864242
 30
0.0
 11
368.64642008263525
 21
8.227280795176586
 31
0.0
  0
LINE
  5
3B
330
17
100
AcDbEntity
  8
FoilLayer
100
AcDbLine
 10
368.64642008263525
 20
8.227280795176586
 30
0.0
 11
363.8635632859
 21
9.603772726584962
 31
0.0
  0
LINE
  5
3C
330
17
100
AcDbEntity
  8
FoilLayer
100
AcDbLine
 10
363.8635632859
 20
9.603772726584962
 30
0.0
 11
358.9389659864652
 21
11.016578652906686
 31
0.0
  0
LINE
  5
3D
330
17
100
AcDbEntity
  8
FoilLayer
100
AcDbLine
 10
358.9389659864652
 20
11.016578652906686
 30
0.0
 11
353.95730833797916
 21
12.426694420340832
 31
0.0
  0
LINE
  5
3E
330
17
100
AcDbEntity
  8
FoilLayer
100
AcDbLine
 10
353.95730833797916
 20
12.426694420340832
 30
0.0
 11
348.9315119232957
 21
13.815396019018822
 31
0.0
  0
LINE
  5
3F
330
17
100
AcDbEntity
  8
FoilLayer
100
AcDbLine
 10
348.9315119232957
 20
13.815396019018822
 30
0.0
 11
343.8321046972716
 21
15.260553153508495
 31
0.0
  0
LINE
  5
40
330
17
100
AcDbEntity
  8
FoilLayer
100
AcDbLine
 10
343.8321046972716
 20
15.260553153508495
 30
0.0
 11
338.67072301462645
 21
16.73105574281017
 31
0.0
  0
LINE
  5
41
330
17
100
AcDbEntity
  8
FoilLayer
100
AcDbLine
 10
338.67072301462645
 20
16.73105574281017
 30
0.0
 11
333.42797505087356
 21
18.190696894354975
 31
0.0
  0
LINE
  5
42
330
17
100
AcDbEntity
  8
FoilLayer
100
AcDbLine
 10
333.42797505087356
 20
18.190696894354975
 30
0.0
 11
328.10484992766465
 21
19.664891364471924
 31
0.0
  0
LINE
  5
43
330
17
100
AcDbEntity
  8
FoilLayer
100
AcDbLine
 10
328.10484992766465
 20
19.664891364471924
 30
0.0
 11
322.6997978110737
 21
21.137605302180013
 31
0.0
  0
LINE
  5
44
330
17
100
AcDbEntity
  8
FoilLayer
100
AcDbLine
 10
322.6997978110737
 20
21.137605302180013
 30
0.0
 11
317.19958841149
 21
22.641416720611964
 31
0.0
  0
LINE
  5
45
330
17
100
AcDbEntity
  8
FoilLayer
100
AcDbLine
 10
317.19958841149
 20
22.641416720611964
 30
0.0
 11
311.61995947341256
 21
24.166906913592282
 31
0.0
  0
LINE
  5
46
330
17
100
AcDbEntity
  8
FoilLayer
100
AcDbLine
 10
311.61995947341256
 20
24.166906913592282
 30
0.0
 11
305.9826275722173
 21
25.70548879314962
 31
0.0
  0
LINE
  5
47
330
17
100
AcDbEntity
  8
FoilLayer
100
AcDbLine
 10
305.9826275722173
 20
25.70548879314962
 30
0.0
 11
300.3083579624555
 21
27.25205294743896
 31
0.0
  0
LINE
  5
48
330
17
100
AcDbEntity
  8
FoilLayer
100
AcDbLine
 10
300.3083579624555
 20
27.25205294743896
 30
0.0
 11
294.6166054699934
 21
28.801439563511977
 31
0.0
  0
LINE
  5
49
330
17
100
AcDbEntity
  8
FoilLayer
100
AcDbLine
 10
294.6166054699934
 20
28.801439563511977
 30
0.0
 11
288.92159580623195
 21
30.34451344139916
 31
0.0
  0
LINE
  5
4A
330
17
100
AcDbEntity
  8
FoilLayer
100
AcDbLine
 10
288.92159580623195
 20
30.34451344139916
 30
0.0
 11
283.2273547592954
 21
31.876839284011847
 31
0.0
  0
LINE
  5
4B
330
17
100
AcDbEntity
  8
FoilLayer
100
AcDbLine
 10
283.2273547592954
 20
31.876839284011847
 30
0.0
 11
277.5354825642131
 21
33.40210267202741
 31
0.0
  0
LINE
  5
4C
330
17
100
AcDbEntity
  8
FoilLayer
100
AcDbLine
 10
277.5354825642131
 20
33.40210267202741
 30
0.0
 11
271.8481527685638
 21
34.921784137854694
 31
0.0
  0
LINE
  5
4D
330
17
100
AcDbEntity
  8
FoilLayer
100
AcDbLine
 10
271.8481527685638
 20
34.921784137854694
 30
0.0
 11
266.1706196873647
 21
36.43241230550528
 31
0.0
  0
LINE
  5
4E
330
17
100
AcDbEntity
  8
FoilLayer
100
AcDbLine
 10
266.1706196873647
 20
36.43241230550528
 30
0.0
 11
260.51242172941136
 21
37.92803984479211
 31
0.0
  0
LINE
  5
4F
330
17
100
AcDbEntity
  8
FoilLayer
100
AcDbLine
 10
260.51242172941136
 20
37.92803984479211
 30
0.0
 11
254.8741385073916
 21
39.40147199822196
 31
0.0
  0
LINE
  5
50
330
17
100
AcDbEntity
  8
FoilLayer
100
AcDbLine
 10
254.8741385073916
 20
39.40147199822196
 30
0.0
 11
249.24632611457838
 21
40.8517700452462
 31
0.0
  0
LINE
  5
51
330
17
100
AcDbEntity
  8
FoilLayer
100
AcDbLine
 10
249.24632611457838
 20
40.8517700452462
 30
0.0
 11
243.62532417084583
 21
42.283684289849006
 31
0.0
  0
LINE
  5
52
330
17
100
AcDbEntity
  8
FoilLayer
100
AcDbLine
 10
243.62532417084583
 20
42.283684289849006
 30
0.0
 11
238.0164121917627
 21
43.70110821725877
 31
0.0
  0
LINE
  5
53
330
17
100
AcDbEntity
  8
FoilLayer
100
AcDbLine
 10
238.0164121917627
 20
43.70110821725877
 30
0.0
 11
236.24999999999977
 21
44.14308873133091
 31
0.0
  0
LINE
  5
54
330
17
100
AcDbEntity
  8
FoilLayer
100
AcDbLine
 10
236.24999999999977
 20
44.14308873133091
 30
0.0
 11
235.88590391468455
 21
42.68794817431996
 31
0.0
  0
LINE
  5
55
330
17
100
AcDbEntity
  8
FoilLayer
100
AcDbLine
 10
235.88590391468455
 20
42.68794817431996
 30
0.0
 11
232.06261242775713
 21
43.64459576261374
 31
0.0
  0
LINE
  5
56
330
17
100
AcDbEntity
  8
FoilLayer
100
AcDbLine
 10
232.06261242775713
 20
43.64459576261374
 30
0.0
 11
226.48530613513634
 21
45.02141808001639
 31
0.0
  0
LINE
  5
57
330
17
100
AcDbEntity
  8
FoilLayer
100
AcDbLine
 10
226.48530613513634
 20
45.02141808001639
 30
0.0
 11
220.91676188222112
 21
46.375183213480796
 31
0.0
  0
LINE
  5
58
330
17
100
AcDbEntity
  8
FoilLayer
100
AcDbLine
 10
220.91676188222112
 20
46.375183213480796
 30
0.0
 11
215.3526820637643
 21
47.70450271707684
 31
0.0
  0
LINE
  5
59
330
17
100
AcDbEntity
  8
FoilLayer
100
AcDbLine
 10
215.3526820637643
 20
47.70450271707684
 30
0.0
 11
209.7886623393416
 21
49.010290982227154
 31
0.0
  0
LINE
  5
5A
330
17
100
AcDbEntity
  8
FoilLayer
100
AcDbLine
 10
209.7886623393416
 20
49.010290982227154
 30
0.0
 11
204.22533934810485
 21
50.29717823907739
 31
0.0
  0
LINE
  5
5B
330
17
100
AcDbEntity
  8
FoilLayer
100
AcDbLine
 10
204.22533934810485
 20
50.29717823907739
 30
0.0
 11
198.67799744283195
 21
51.56750164449303
 31
0.0
  0
LINE
  5
5C
330
17
100
AcDbEntity
  8
FoilLayer
100
AcDbLine
 10
198.67799744283195
 20
51.56750164449303
 30
0.0
 11
193.1653619327787
 21
52.81410716076208
 31
0.0
  0
LINE
  5
5D
330
17
100
AcDbEntity
  8
FoilLayer
100
AcDbLine
 10
193.1653619327787
 20
52.81410716076208
 30
0.0
 11
187.69112680786412
 21
54.02656218210974
 31
0.0
  0
LINE
  5
5E
330
17
100
AcDbEntity
  8
FoilLayer
100
AcDbLine
 10
187.69112680786412
 20
54.02656218210974
 30
0.0
 11
182.24879189869011
 21
55.20077733210389
 31
0.0
  0
LINE
  5
5F
330
17
100
AcDbEntity
  8
FoilLayer
100
AcDbLine
 10
182.24879189869011
 20
55.20077733210389
 30
0.0
 11
176.82956507347296
 21
56.335366199205694
 31
0.0
  0
LINE
  5
60
330
17
100
AcDbEntity
  8
FoilLayer
100
AcDbLine
 10
176.82956507347296
 20
56.335366199205694
 30
0.0
 11
171.42743797776313
 21
57.43306536300422
 31
0.0
  0
LINE
  5
61
330
17
100
AcDbEntity
  8
FoilLayer
100
AcDbLine
 10
171.42743797776313
 20
57.43306536300422
 30
0.0
 11
166.03678893425888
 21
58.495571833802785
 31
0.0
  0
LINE
  5
62
330
17
100
AcDbEntity
  8
FoilLayer
100
AcDbLine
 10
166.03678893425888
 20
58.495571833802785
 30
0.0
 11
160.6547525863806
 21
59.52414474630428
 31
0.0
  0
LINE
  5
63
330
17
100
AcDbEntity
  8
FoilLayer
100
AcDbLine
 10
160.6547525863806
 20
59.52414474630428
 30
0.0
 11
155.28204782024193
 21
60.51793792221394
 31
0.0
  0
LINE
  5
64
330
17
100
AcDbEntity
  8
FoilLayer
100
AcDbLine
 10
155.28204782024193
 20
60.51793792221394
 30
0.0
 11
149.91886747467277
 21
61.47356964888965
 31
0.0
  0
LINE
  5
65
330
17
100
AcDbEntity
  8
FoilLayer
100
AcDbLine
 10
149.91886747467277
 20
61.47356964888965
 30
0.0
 11
144.56075594392843
 21
62.38921643677639
 31
0.0
  0
LINE
  5
66
330
17
100
AcDbEntity
  8
FoilLayer
100
AcDbLine
 10
144.56075594392843
 20
62.38921643677639
 30
0.0
 11
139.2004992371007
 21
63.266302409115895
 31
0.0
  0
LINE
  5
67
330
17
100
AcDbEntity
  8
FoilLayer
100
AcDbLine
 10
139.2004992371007
 20
63.266302409115895
 30
0.0
 11
133.83478641912075
 21
64.10833728727052
 31
0.0
  0
LINE
  5
68
330
17
100
AcDbEntity
  8
FoilLayer
100
AcDbLine
 10
133.83478641912075
 20
64.10833728727052
 30
0.0
 11
128.46288002060004
 21
64.91736408351981
 31
0.0
  0
LINE
  5
69
330
17
100
AcDbEntity
  8
FoilLayer
100
AcDbLine
 10
128.46288002060004
 20
64.91736408351981
 30
0.0
 11
123.08439299364983
 21
65.69289888572007
 31
0.0
  0
LINE
  5
6A
330
17
100
AcDbEntity
  8
FoilLayer
100
AcDbLine
 10
123.08439299364983
 20
65.69289888572007
 30
0.0
 11
117.69969103661077
 21
66.43379483756881
 31
0.0
  0
LINE
  5
6B
330
17
100
AcDbEntity
  8
FoilLayer
100
AcDbLine
 10
117.69969103661077
 20
66.43379483756881
 30
0.0
 11
112.31055326314811
 21
67.1394479435772
 31
0.0
  0
LINE
  5
6C
330
17
100
AcDbEntity
  8
FoilLayer
100
AcDbLine
 10
112.31055326314811
 20
67.1394479435772
 30
0.0
 11
106.91800677529511
 21
67.80934736278135
 31
0.0
  0
LINE
  5
6D
330
17
100
AcDbEntity
  8
FoilLayer
100
AcDbLine
 10
106.91800677529511
 20
67.80934736278135
 30
0.0
 11
101.51922322141468
 21
68.44396136266006
 31
0.0
  0
LINE
  5
6E
330
17
100
AcDbEntity
  8
FoilLayer
100
AcDbLine
 10
101.51922322141468
 20
68.44396136266006
 30
0.0
 11
96.10959700352328
 21
69.04460944341615
 31
0.0
  0
LINE
  5
6F
330
17
100
AcDbEntity
  8
FoilLayer
100
AcDbLine
 10
96.10959700352328
 20
69.04460944341615
 30
0.0
 11
90.68765616372559
 21
69.61288594610832
 31
0.0
  0
LINE
  5
70
330
17
100
AcDbEntity
  8
FoilLayer
100
AcDbLine
 10
90.68765616372559
 20
69.61288594610832
 30
0.0
 11
85.25460936159669
 21
70.14945689690967
 31
0.0
  0
LINE
  5
71
330
17
100
AcDbEntity
  8
FoilLayer
100
AcDbLine
 10
85.25460936159669
 20
70.14945689690967
 30
0.0
 11
79.81517813133291
 21
70.65403599523795
 31
0.0
  0
LINE
  5
72
330
17
100
AcDbEntity
  8
FoilLayer
100
AcDbLine
 10
79.81517813133291
 20
70.65403599523795
 30
0.0
 11
74.37482550953717
 21
71.12601981804902
 31
0.0
  0
LINE
  5
73
330
17
100
AcDbEntity
  8
FoilLayer
100
AcDbLine
 10
74.37482550953717
 20
71.12601981804902
 30
0.0
 11
68.93672010996238
 21
71.56512841406051
 31
0.0
  0
LINE
  5
74
330
17
100
AcDbEntity
  8
FoilLayer
100
AcDbLine
 10
68.93672010996238
 20
71.56512841406051
 30
0.0
 11
63.50217136926028
 21
71.97143755975185
 31
0.0
  0
LINE
  5
75
330
17
100
AcDbEntity
  8
FoilLayer
100
AcDbLine
 10
63.50217136926028
 20
71.97143755975185
 30
0.0
 11
58.07393762702401
 21
72.34465012287681
 31
0.0
  0
LINE
  5
76
330
17
100
AcDbEntity
  8
FoilLayer
100
AcDbLine
 10
58.07393762702401
 20
72.34465012287681
 30
0.0
 11
52.65387599931182
 21
72.68299418234372
 31
0.0
  0
LINE
  5
77
330
17
100
AcDbEntity
  8
FoilLayer
100
AcDbLine
 10
52.65387599931182
 20
72.68299418234372
 30
0.0
 11
47.24222855906169
 21
72.98495076774812
 31
0.0
  0
LINE
  5
78
330
17
100
AcDbEntity
  8
FoilLayer
100
AcDbLine
 10
47.24222855906169
 20
72.98495076774812
 30
0.0
 11
41.838020392622695
 21
73.25022673609695
 31
0.0
  0
LINE
  5
79
330
17
100
AcDbEntity
  8
FoilLayer
100
AcDbLine
 10
41.838020392622695
 20
73.25022673609695
 30
0.0
 11
36.44149829502106
 21
73.47902026518582
 31
0.0
  0
LINE
  5
7A
330
17
100
AcDbEntity
  8
FoilLayer
100
AcDbLine
 10
36.44149829502106
 20
73.47902026518582
 30
0.0
 11
31.05297955128117
 21
73.67122788575583
 31
0.0
  0
LINE
  5
7B
330
17
100
AcDbEntity
  8
FoilLayer
100
AcDbLine
 10
31.05297955128117
 20
73.67122788575583
 30
0.0
 11
25.67121035235232
 21
73.82630908618121
 31
0.0
  0
LINE
  5
7C
330
17
100
AcDbEntity
  8
FoilLayer
100
AcDbLine
 10
25.67121035235232
 20
73.82630908618121
 30
0.0
 11
20.295214699467124
 21
73.94428048901763
 31
0.0
  0
LINE
  5
7D
330
17
100
AcDbEntity
  8
FoilLayer
100
AcDbLine
 10
20.295214699467124
 20
73.94428048901763
 30
0.0
 11
14.925599170133438
 21
74.02440855817495
 31
0.0
  0
LINE
  5
7E
330
17
100
AcDbEntity
  8
FoilLayer
100
AcDbLine
 10
14.925599170133438
 20
74.02440855817495
 30
0.0
 11
9.561213438608831
 21
74.06541035175206
 31
0.0
  0
LINE
  5
7F
330
17
100
AcDbEntity
  8
FoilLayer
100
AcDbLine
 10
9.561213438608831
 20
74.06541035175206
 30
0.0
 11
4.199672963208258
 21
74.06763550732735
 31
0.0
  0
LINE
  5
80
330
17
100
AcDbEntity
  8
FoilLayer
100
AcDbLine
 10
4.199672963208258
 20
74.06763550732735
 30
0.0
 11
-1.1613786319601331
 21
74.03219894406953
 31
0.0
  0
LINE
  5
81
330
17
100
AcDbEntity
  8
FoilLayer
100
AcDbLine
 10
-1.1613786319601331
 20
74.03219894406953
 30
0.0
 11
-6.520093940395185
 21
73.9602422901635
 31
0.0
  0
LINE
  5
82
330
17
100
AcDbEntity
  8
FoilLayer
100
AcDbLine
 10
-6.520093940395185
 20
73.9602422901635
 30
0.0
 11
-11.873061153582512
 21
73.85161403272217
 31
0.0
  0
LINE
  5
83
330
17
100
AcDbEntity
  8
FoilLayer
100
AcDbLine
 10
-11.873061153582512
 20
73.85161403272217
 30
0.0
 11
-17.217173584536283
 21
73.70562292828498
 31
0.0
  0
LINE
  5
84
330
17
100
AcDbEntity
  8
FoilLayer
100
AcDbLine
 10
-17.217173584536283
 20
73.70562292828498
 30
0.0
 11
-22.550660639349843
 21
73.52127643661589
 31
0.0
  0
LINE
  5
85
330
17
100
AcDbEntity
  8
FoilLayer
100
AcDbLine
 10
-22.550660639349843
 20
73.52127643661589
 30
0.0
 11
-27.873297332941377
 21
73.29791058919733
 31
0.0
  0
LINE
  5
86
330
17
100
AcDbEntity
  8
FoilLayer
100
AcDbLine
 10
-27.873297332941377
 20
73.29791058919733
 30
0.0
 11
-33.1847802722809
 21
73.03585987049776
 31
0.0
  0
LINE
  5
87
330
17
100
AcDbEntity
  8
FoilLayer
100
AcDbLine
 10
-33.1847802722809
 20
73.03585987049776
 30
0.0
 11
-38.483459825301566
 21
72.73582306127237
 31
0.0
  0
LINE
  5
88
330
17
100
AcDbEntity
  8
FoilLayer
100
AcDbLine
 10
-38.483459825301566
 20
72.73582306127237
 30
0.0
 11
-43.76474726895472
 21
72.39858485660567
 31
0.0
  0
LINE
  5
89
330
17
100
AcDbEntity
  8
FoilLayer
100
AcDbLine
 10
-43.76474726895472
 20
72.39858485660567
 30
0.0
 11
-49.01952886232428
 21
72.02507222553788
 31
0.0
  0
LINE
  5
8A
330
17
100
AcDbEntity
  8
FoilLayer
100
AcDbLine
 10
-49.01952886232428
 20
72.02507222553788
 30
0.0
 11
-54.23962777868732
 21
71.61430865669487
 31
0.0
  0
LINE
  5
8B
330
17
100
AcDbEntity
  8
FoilLayer
100
AcDbLine
 10
-54.23962777868732
 20
71.61430865669487
 30
0.0
 11
-59.42262769332231
 21
71.16122823779598
 31
0.0
  0
LINE
  5
8C
330
17
100
AcDbEntity
  8
FoilLayer
100
AcDbLine
 10
-59.42262769332231
 20
71.16122823779598
 30
0.0
 11
-64.5714063407159
 21
70.6633302468105
 31
0.0
  0
LINE
  5
8D
330
17
100
AcDbEntity
  8
FoilLayer
100
AcDbLine
 10
-64.5714063407159
 20
70.6633302468105
 30
0.0
 11
-69.69909876228917
 21
70.11478620653564
 31
0.0
  0
LINE
  5
8E
330
17
100
AcDbEntity
  8
FoilLayer
100
AcDbLine
 10
-69.69909876228917
 20
70.11478620653564
 30
0.0
 11
-74.81652877348202
 21
69.516575267105
 31
0.0
  0
LINE
  5
8F
330
17
100
AcDbEntity
  8
FoilLayer
100
AcDbLine
 10
-74.81652877348202
 20
69.516575267105
 30
0.0
 11
-79.92118300494883
 21
68.87505831747833
 31
0.0
  0
LINE
  5
90
330
17
100
AcDbEntity
  8
FoilLayer
100
AcDbLine
 10
-79.92118300494883
 20
68.87505831747833
 30
0.0
 11
-85.00702113857969
 21
68.19060829620007
 31
0.0
  0
LINE
  5
91
330
17
100
AcDbEntity
  8
FoilLayer
100
AcDbLine
 10
-85.00702113857969
 20
68.19060829620007
 30
0.0
 11
-90.07168881461675
 21
67.46100145257716
 31
0.0
  0
LINE
  5
92
330
17
100
AcDbEntity
  8
FoilLayer
100
AcDbLine
 10
-90.07168881461675
 20
67.46100145257716
 30
0.0
 11
-95.11356265664452
 21
66.68532636757347
 31
0.0
  0
LINE
  5
93
330
17
100
AcDbEntity
  8
FoilLayer
100
AcDbLine
 10
-95.11356265664452
 20
66.68532636757347
 30
0.0
 11
-100.12852021616291
 21
65.8641333144111
 31
0.0
  0
LINE
  5
94
330
17
100
AcDbEntity
  8
FoilLayer
100
AcDbLine
 10
-100.12852021616291
 20
65.8641333144111
 30
0.0
 11
-105.11216918897259
 21
64.99904362446111
 31
0.0
  0
LINE
  5
95
330
17
100
AcDbEntity
  8
FoilLayer
100
AcDbLine
 10
-105.11216918897259
 20
64.99904362446111
 30
0.0
 11
-110.06004244167927
 21
64.0922950583808
 31
0.0
  0
LINE
  5
96
330
17
100
AcDbEntity
  8
FoilLayer
100
AcDbLine
 10
-110.06004244167927
 20
64.0922950583808
 30
0.0
 11
-114.96781680032481
 21
63.14322790582053
 31
0.0
  0
LINE
  5
97
330
17
100
AcDbEntity
  8
FoilLayer
100
AcDbLine
 10
-114.96781680032481
 20
63.14322790582053
 30
0.0
 11
-119.83281817723328
 21
62.147937603346925
 31
0.0
  0
LINE
  5
98
330
17
100
AcDbEntity
  8
FoilLayer
100
AcDbLine
 10
-119.83281817723328
 20
62.147937603346925
 30
0.0
 11
-124.65155699893789
 21
61.10638674118857
 31
0.0
  0
LINE
  5
99
330
17
100
AcDbEntity
  8
FoilLayer
100
AcDbLine
 10
-124.65155699893789
 20
61.10638674118857
 30
0.0
 11
-129.41838099041695
 21
60.0188092877331
 31
0.0
  0
LINE
  5
9A
330
17
100
AcDbEntity
  8
FoilLayer
100
AcDbLine
 10
-129.41838099041695
 20
60.0188092877331
 30
0.0
 11
-134.13179787815568
 21
58.883374616586885
 31
0.0
  0
LINE
  5
9B
330
17
100
AcDbEntity
  8
FoilLayer
100
AcDbLine
 10
-134.13179787815568
 20
58.883374616586885
 30
0.0
 11
-138.79988880741632
 21
57.69918644022406
 31
0.0
  0
LINE
  5
9C
330
17
100
AcDbEntity
  8
FoilLayer
100
AcDbLine
 10
-138.79988880741632
 20
57.69918644022406
 30
0.0
 11
-143.42138186983098
 21
56.47515816933497
 31
0.0
  0
LINE
  5
9D
330
17
100
AcDbEntity
  8
FoilLayer
100
AcDbLine
 10
-143.42138186983098
 20
56.47515816933497
 30
0.0
 11
-147.97130134851625
 21
55.22308369351206
 31
0.0
  0
LINE
  5
9E
330
17
100
AcDbEntity
  8
FoilLayer
100
AcDbLine
 10
-147.97130134851625
 20
55.22308369351206
 30
0.0
 11
-152.42525466905664
 21
53.94162149994167
 31
0.0
  0
LINE
  5
9F
330
17
100
AcDbEntity
  8
FoilLayer
100
AcDbLine
 10
-152.42525466905664
 20
53.94162149994167
 30
0.0
 11
-156.77483184432924
 21
52.62535207707799
 31
0.0
  0
LINE
  5
A0
330
17
100
AcDbEntity
  8
FoilLayer
100
AcDbLine
 10
-156.77483184432924
 20
52.62535207707799
 30
0.0
 11
-161.02093825043883
 21
51.26987196273692
 31
0.0
  0
LINE
  5
A1
330
17
100
AcDbEntity
  8
FoilLayer
100
AcDbLine
 10
-161.02093825043883
 20
51.26987196273692
 30
0.0
 11
-165.1665413207133
 21
49.874016158376165
 31
0.0
  0
LINE
  5
A2
330
17
100
AcDbEntity
  8
FoilLayer
100
AcDbLine
 10
-165.1665413207133
 20
49.874016158376165
 30
0.0
 11
-169.21416893819844
 21
48.438434423511076
 31
0.0
  0
LINE
  5
A3
330
17
100
AcDbEntity
  8
FoilLayer
100
AcDbLine
 10
-169.21416893819844
 20
48.438434423511076
 30
0.0
 11
-173.16390799995528
 21
46.965438094689716
 31
0.0
  0
LINE
  5
A4
330
17
100
AcDbEntity
  8
FoilLayer
100
AcDbLine
 10
-173.16390799995528
 20
46.965438094689716
 30
0.0
 11
-177.012195640236
 21
45.45964820636103
 31
0.0
  0
LINE
  5
A5
330
17
100
AcDbEntity
  8
FoilLayer
100
AcDbLine
 10
-177.012195640236
 20
45.45964820636103
 30
0.0
 11
-180.75120108408345
 21
43.92676312283737
 31
0.0
  0
LINE
  5
A6
330
17
100
AcDbEntity
  8
FoilLayer
100
AcDbLine
 10
-180.75120108408345
 20
43.92676312283737
 30
0.0
 11
-184.3716256332341
 21
42.37130817809238
 31
0.0
  0
LINE
  5
A7
330
17
100
AcDbEntity
  8
FoilLayer
100
AcDbLine
 10
-184.3716256332341
 20
42.37130817809238
 30
0.0
 11
-187.86801277655957
 21
40.7957900390919
 31
0.0
  0
LINE
  5
A8
330
17
100
AcDbEntity
  8
FoilLayer
100
AcDbLine
 10
-187.86801277655957
 20
40.7957900390919
 30
0.0
 11
-191.235030844187
 21
39.20729069812658
 31
0.0
  0
LINE
  5
A9
330
17
100
AcDbEntity
  8
FoilLayer
100
AcDbLine
 10
-191.235030844187
 20
39.20729069812658
 30
0.0
 11
-194.4609105074095
 21
37.61944446953833
 31
0.0
  0
LINE
  5
AA
330
17
100
AcDbEntity
  8
FoilLayer
100
AcDbLine
 10
-194.4609105074095
 20
37.61944446953833
 30
0.0
 11
-197.53092599967846
 21
36.04496451519722
 31
0.0
  0
LINE
  5
AB
330
17
100
AcDbEntity
  8
FoilLayer
100
AcDbLine
 10
-197.53092599967846
 20
36.04496451519722
 30
0.0
 11
-200.4343756616763
 21
34.49146448141617
 31
0.0
  0
LINE
  5
AC
330
17
100
AcDbEntity
  8
FoilLayer
100
AcDbLine
 10
-200.4343756616763
 20
34.49146448141617
 30
0.0
 11
-203.16606388782355
 21
32.96324665971951
 31
0.0
  0
LINE
  5
AD
330
17
100
AcDbEntity
  8
FoilLayer
100
AcDbLine
 10
-203.16606388782355
 20
32.96324665971951
 30
0.0
 11
-205.72699276716875
 21
31.462134830975085
 31
0.0
  0
LINE
  5
AE
330
17
100
AcDbEntity
  8
FoilLayer
100
AcDbLine
 10
-205.72699276716875
 20
31.462134830975085
 30
0.0
 11
-208.12245180113212
 21
29.9909143718873
 31
0.0
  0
LINE
  5
AF
330
17
100
AcDbEntity
  8
FoilLayer
100
AcDbLine
 10
-208.12245180113212
 20
29.9909143718873
 30
0.0
 11
-210.3582923549183
 21
28.55477694066323
 31
0.0
  0
LINE
  5
B0
330
17
100
AcDbEntity
  8
FoilLayer
100
AcDbLine
 10
-210.3582923549183
 20
28.55477694066323
 30
0.0
 11
-212.44050620206932
 21
27.158773550622445
 31
0.0
  0
LINE
  5
B1
330
17
100
AcDbEntity
  8
FoilLayer
100
AcDbLine
 10
-212.44050620206932
 20
27.158773550622445
 30
0.0
 11
-214.37501183814373
 21
25.80715971627603
 31
0.0
  0
LINE
  5
B2
330
17
100
AcDbEntity
  8
FoilLayer
100
AcDbLine
 10
-214.37501183814373
 20
25.80715971627603
 30
0.0
 11
-216.1669700234335
 21
24.50271157201262
 31
0.0
  0
LINE
  5
B3
330
17
100
AcDbEntity
  8
FoilLayer
100
AcDbLine
 10
-216.1669700234335
 20
24.50271157201262
 30
0.0
 11
-217.82374367456308
 21
23.24355280334468
 31
0.0
  0
LINE
  5
B4
330
17
100
AcDbEntity
  8
FoilLayer
100
AcDbLine
 10
-217.82374367456308
 20
23.24355280334468
 30
0.0
 11
-219.35261812294476
 21
22.028046917940497
 31
0.0
  0
LINE
  5
B5
330
17
100
AcDbEntity
  8
FoilLayer
100
AcDbLine
 10
-219.35261812294476
 20
22.028046917940497
 30
0.0
 11
-220.76311296505807
 21
20.851221573472987
 31
0.0
  0
LINE
  5
B6
330
17
100
AcDbEntity
  8
FoilLayer
100
AcDbLine
 10
-220.76311296505807
 20
20.851221573472987
 30
0.0
 11
-222.0656570353764
 21
19.709809465162206
 31
0.0
  0
LINE
  5
B7
330
17
100
AcDbEntity
  8
FoilLayer
100
AcDbLine
 10
-222.0656570353764
 20
19.709809465162206
 30
0.0
 11
-223.27130263644003
 21
18.602233765142902
 31
0.0
  0
LINE
  5
B8
330
17
100
AcDbEntity
  8
FoilLayer
100
AcDbLine
 10
-223.27130263644003
 20
18.602233765142902
 30
0.0
 11
-224.38686523632086
 21
17.53190640438628
 31
0.0
  0
LINE
  5
B9
330
17
100
AcDbEntity
  8
FoilLayer
100
AcDbLine
 10
-224.38686523632086
 20
17.53190640438628
 30
0.0
 11
-225.4199101933867
 21
16.49592530637522
 31
0.0
  0
LINE
  5
BA
330
17
100
AcDbEntity
  8
FoilLayer
100
AcDbLine
 10
-225.4199101933867
 20
16.49592530637522
 30
0.0
 11
-226.37479571723756
 21
15.495043303540637
 31
0.0
  0
LINE
  5
BB
330
17
100
AcDbEntity
  8
FoilLayer
100
AcDbLine
 10
-226.37479571723756
 20
15.495043303540637
 30
0.0
 11
-227.25711092458639
 21
14.52607041696754
 31
0.0
  0
LINE
  5
BC
330
17
100
AcDbEntity
  8
FoilLayer
100
AcDbLine
 10
-227.25711092458639
 20
14.52607041696754
 30
0.0
 11
-228.07177231578626
 21
13.586868254569074
 31
0.0
  0
LINE
  5
BD
330
17
100
AcDbEntity
  8
FoilLayer
100
AcDbLine
 10
-228.07177231578626
 20
13.586868254569074
 30
0.0
 11
-228.82329481520028
 21
12.675603296487747
 31
0.0
  0
LINE
  5
BE
330
17
100
AcDbEntity
  8
FoilLayer
100
AcDbLine
 10
-228.82329481520028
 20
12.675603296487747
 30
0.0
 11
-229.51668841944598
 21
11.789281269505508
 31
0.0
  0
LINE
  5
BF
330
17
100
AcDbEntity
  8
FoilLayer
100
AcDbLine
 10
-229.51668841944598
 20
11.789281269505508
 30
0.0
 11
-230.1571868506361
 21
10.925706945934902
 31
0.0
  0
LINE
  5
C0
330
17
100
AcDbEntity
  8
FoilLayer
100
AcDbLine
 10
-230.1571868506361
 20
10.925706945934902
 30
0.0
 11
-230.74720912648263
 21
10.087774552562454
 31
0.0
  0
LINE
  5
C1
330
17
100
AcDbEntity
  8
FoilLayer
100
AcDbLine
 10
-230.74720912648263
 20
10.087774552562454
 30
0.0
 11
-231.28748502607945
 21
9.27655135308663
 31
0.0
  0
LINE
  5
C2
330
17
100
AcDbEntity
  8
FoilLayer
100
AcDbLine
 10
-231.28748502607945
 20
9.27655135308663
 30
0.0
 11
-231.7829232776269
 21
8.482275307627079
 31
0.0
  0
LINE
  5
C3
330
17
100
AcDbEntity
  8
FoilLayer
100
AcDbLine
 10
-231.7829232776269
 20
8.482275307627079
 30
0.0
 11
-232.24209367867186
 21
7.697234041041758
 31
0.0
  0
LINE
  5
C4
330
17
100
AcDbEntity
  8
FoilLayer
100
AcDbLine
 10
-232.24209367867186
 20
7.697234041041758
 30
0.0
 11
-232.66504847750085
 21
6.938389514707595
 31
0.0
  0
LINE
  5
C5
330
17
100
AcDbEntity
  8
FoilLayer
100
AcDbLine
 10
-232.66504847750085
 20
6.938389514707595
 30
0.0
 11
-233.04141512668195
 21
6.224325378844249
 31
0.0
  0
LINE
  5
C6
330
17
100
AcDbEntity
  8
FoilLayer
100
AcDbLine
 10
-233.04141512668195
 20
6.224325378844249
 30
0.0
 11
-233.3709341779544
 21
5.52838427604295
 31
0.0
  0
LINE
  5
C7
330
17
100
AcDbEntity
  8
FoilLayer
100
AcDbLine
 10
-233.3709341779544
 20
5.52838427604295
 30
0.0
 11
-233.665354570825
 21
4.818431308477821
 31
0.0
  0
LINE
  5
C8
330
17
100
AcDbEntity
  8
FoilLayer
100
AcDbLine
 10
-233.665354570825
 20
4.818431308477821
 30
0.0
 11
-233.93023913163373
 21
4.121406775439027
 31
0.0
  0
LINE
  5
C9
330
17
100
AcDbEntity
  8
FoilLayer
100
AcDbLine
 10
-233.93023913163373
 20
4.121406775439027
 30
0.0
 11
-234.15720425634854
 21
3.4747088117429823
 31
0.0
  0
LINE
  5
CA
330
17
100
AcDbEntity
  8
FoilLayer
100
AcDbLine
 10
-234.15720425634854
 20
3.4747088117429823
 30
0.0
 11
-234.34129121684765
 21
2.8533164578388757
 31
0.0
  0
LINE
  5
CB
330
17
100
AcDbEntity
  8
FoilLayer
100
AcDbLine
 10
-234.34129121684765
 20
2.8533164578388757
 30
0.0
 11
-234.48771832561064
 21
2.217264260912247
 31
0.0
  0
LINE
  5
CC
330
17
100
AcDbEntity
  8
FoilLayer
100
AcDbLine
 10
-234.48771832561064
 20
2.217264260912247
 30
0.0
 11
-234.60185173014926
 21
1.5969461600648014
 31
0.0
  0
LINE
  5
CD
330
17
100
AcDbEntity
  8
FoilLayer
100
AcDbLine
 10
-234.60185173014926
 20
1.5969461600648014
 30
0.0
 11
-234.6849951667042
 21
1.0086985608642671
 31
0.0
  0
LINE
  5
CE
330
17
100
AcDbEntity
  8
FoilLayer
100
AcDbLine
 10
-234.6849951667042
 20
1.0086985608642671
 30
0.0
 11
-234.73263621086943
 21
0.42315123017810685
 31
0.0
  0
LINE
  5
CF
330
17
100
AcDbEntity
  8
FoilLayer
100
AcDbLine
 10
-234.73263621086943
 20
0.42315123017810685
 30
0.0
 11
-234.74999999999977
 21
-0.1843042344197002
 31
0.0
  0
LINE
  5
D0
330
17
100
AcDbEntity
  8
FoilLayer
100
AcDbLine
 10
-234.74999999999977
 20
-0.1843042344197002
 30
0.0
 11
-234.73919985151795
 21
-0.6900649536756029
 31
0.0
  0
LINE
  5
D1
330
17
100
AcDbEntity
  8
FoilLayer
100
AcDbLine
 10
-234.73919985151795
 20
-0.6900649536756029
 30
0.0
 11
-234.69550232692538
 21
-1.2178285343304804
 31
0.0
  0
LINE
  5
D2
330
17
100
AcDbEntity
  8
FoilLayer
100
AcDbLine
 10
-234.69550232692538
 20
-1.2178285343304804
 30
0.0
 11
-234.6098178169626
 21
-1.7421076613903104
 31
0.0
  0
LINE
  5
D3
330
17
100
AcDbEntity
  8
FoilLayer
100
AcDbLine
 10
-234.6098178169626
 20
-1.7421076613903104
 30
0.0
 11
-234.47519999627332
 21
-2.2714858893269607
 31
0.0
  0
LINE
  5
D4
330
17
100
AcDbEntity
  8
FoilLayer
100
AcDbLine
 10
-234.47519999627332
 20
-2.2714858893269607
 30
0.0
 11
-234.29109656720502
 21
-2.803937771930144
 31
0.0
  0
LINE
  5
D5
330
17
100
AcDbEntity
  8
FoilLayer
100
AcDbLine
 10
-234.29109656720502
 20
-2.803937771930144
 30
0.0
 11
-234.06038391729248
 21
-3.332010228691961
 31
0.0
  0
LINE
  5
D6
330
17
100
AcDbEntity
  8
FoilLayer
100
AcDbLine
 10
-234.06038391729248
 20
-3.332010228691961
 30
0.0
 11
-233.78118729085634
 21
-3.8537619634232056
 31
0.0
  0
LINE
  5
D7
330
17
100
AcDbEntity
  8
FoilLayer
100
AcDbLine
 10
-233.78118729085634
 20
-3.8537619634232056
 30
0.0
 11
-233.45493246132895
 21
-4.365253254762078
 31
0.0
  0
LINE
  5
D8
330
17
100
AcDbEntity
  8
FoilLayer
100
AcDbLine
 10
-233.45493246132895
 20
-4.365253254762078
 30
0.0
 11
-233.07549504635614
 21
-4.869006068261838
 31
0.0
  0
LINE
  5
D9
330
17
100
AcDbEntity
  8
FoilLayer
100
AcDbLine
 10
-233.07549504635614
 20
-4.869006068261838
 30
0.0
 11
-232.64008286276183
 21
-5.366837166954638
 31
0.0
  0
LINE
  5
DA
330
17
100
AcDbEntity
  8
FoilLayer
100
AcDbLine
 10
-232.64008286276183
 20
-5.366837166954638
 30
0.0
 11
-232.15339250241175
 21
-5.855966551487439
 31
0.0
  0
LINE
  5
DB
330
17
100
AcDbEntity
  8
FoilLayer
100
AcDbLine
 10
-232.15339250241175
 20
-5.855966551487439
 30
0.0
 11
-231.61727018608778
 21
-6.33485845802365
 31
0.0
  0
LINE
  5
DC
330
17
100
AcDbEntity
  8
FoilLayer
100
AcDbLine
 10
-231.61727018608778
 20
-6.33485845802365
 30
0.0
 11
-231.0334113432324
 21
-6.801792069177564
 31
0.0
  0
LINE
  5
DD
330
17
100
AcDbEntity
  8
FoilLayer
100
AcDbLine
 10
-231.0334113432324
 20
-6.801792069177564
 30
0.0
 11
-230.40232726062018
 21
-7.255087480681281
 31
0.0
  0
LINE
  5
DE
330
17
100
AcDbEntity
  8
FoilLayer
100
AcDbLine
 10
-230.40232726062018
 20
-7.255087480681281
 30
0.0
 11
-229.72191603564653
 21
-7.693834032329466
 31
0.0
  0
LINE
  5
DF
330
17
100
AcDbEntity
  8
FoilLayer
100
AcDbLine
 10
-229.72191603564653
 20
-7.693834032329466
 30
0.0
 11
-228.9871868961404
 21
-8.118519874227552
 31
0.0
  0
LINE
  5
E0
330
17
100
AcDbEntity
  8
FoilLayer
100
AcDbLine
 10
-228.9871868961404
 20
-8.118519874227552
 30
0.0
 11
-228.19465222911091
 21
-8.530632872657895
 31
0.0
  0
LINE
  5
E1
330
17
100
AcDbEntity
  8
FoilLayer
100
AcDbLine
 10
-228.19465222911091
 20
-8.530632872657895
 30
0.0
 11
-227.3414168026461
 21
-8.932544909236098
 31
0.0
  0
LINE
  5
E2
330
17
100
AcDbEntity
  8
FoilLayer
100
AcDbLine
 10
-227.3414168026461
 20
-8.932544909236098
 30
0.0
 11
-226.42641041206642
 21
-9.327153352987802
 31
0.0
  0
LINE
  5
E3
330
17
100
AcDbEntity
  8
FoilLayer
100
AcDbLine
 10
-226.42641041206642
 20
-9.327153352987802
 30
0.0
 11
-225.44920083648145
 21
-9.71703635613333
 31
0.0
  0
LINE
  5
E4
330
17
100
AcDbEntity
  8
FoilLayer
100
AcDbLine
 10
-225.44920083648145
 20
-9.71703635613333
 30
0.0
 11
-224.40808375027768
 21
-10.104156745442976
 31
0.0
  0
LINE
  5
E5
330
17
100
AcDbEntity
  8
FoilLayer
100
AcDbLine
 10
-224.40808375027768
 20
-10.104156745442976
 30
0.0
 11
-223.3001901849429
 21
-10.489699935673661
 31
0.0
  0
LINE
  5
E6
330
17
100
AcDbEntity
  8
FoilLayer
100
AcDbLine
 10
-223.3001901849429
 20
-10.489699935673661
 30
0.0
 11
-222.12168056290204
 21
-10.873983725723605
 31
0.0
  0
LINE
  5
E7
330
17
100
AcDbEntity
  8
FoilLayer
100
AcDbLine
 10
-222.12168056290204
 20
-10.873983725723605
 30
0.0
 11
-220.86865286937325
 21
-11.2559514061787
 31
0.0
  0
LINE
  5
E8
330
17
100
AcDbEntity
  8
FoilLayer
100
AcDbLine
 10
-220.86865286937325
 20
-11.2559514061787
 30
0.0
 11
-219.53321516732012
 21
-11.632984487440678
 31
0.0
  0
LINE
  5
E9
330
17
100
AcDbEntity
  8
FoilLayer
100
AcDbLine
 10
-219.53321516732012
 20
-11.632984487440678
 30
0.0
 11
-218.10131210850307
 21
-12.003143586276082
 31
0.0
  0
LINE
  5
EA
330
17
100
AcDbEntity
  8
FoilLayer
100
AcDbLine
 10
-218.10131210850307
 20
-12.003143586276082
 30
0.0
 11
-216.56063450899748
 21
-12.367967973729744
 31
0.0
  0
LINE
  5
EB
330
17
100
AcDbEntity
  8
FoilLayer
100
AcDbLine
 10
-216.56063450899748
 20
-12.367967973729744
 30
0.0
 11
-214.9023462960172
 21
-12.730639275081922
 31
0.0
  0
LINE
  5
EC
330
17
100
AcDbEntity
  8
FoilLayer
100
AcDbLine
 10
-214.9023462960172
 20
-12.730639275081922
 30
0.0
 11
-213.11668588518273
 21
-13.09335150898122
 31
0.0
  0
LINE
  5
ED
330
17
100
AcDbEntity
  8
FoilLayer
100
AcDbLine
 10
-213.11668588518273
 20
-13.09335150898122
 30
0.0
 11
-211.19306242392332
 21
-13.456818352613354
 31
0.0
  0
LINE
  5
EE
330
17
100
AcDbEntity
  8
FoilLayer
100
AcDbLine
 10
-211.19306242392332
 20
-13.456818352613354
 30
0.0
 11
-209.12072828808576
 21
-13.818526217655972
 31
0.0
  0
LINE
  5
EF
330
17
100
AcDbEntity
  8
FoilLayer
100
AcDbLine
 10
-209.12072828808576
 20
-13.818526217655972
 30
0.0
 11
-206.88471680845205
 21
-14.172382097543629
 31
0.0
  0
LINE
  5
F0
330
17
100
AcDbEntity
  8
FoilLayer
100
AcDbLine
 10
-206.88471680845205
 20
-14.172382097543629
 30
0.0
 11
-204.4667656210484
 21
-14.512519253234029
 31
0.0
  0
LINE
  5
F1
330
17
100
AcDbEntity
  8
FoilLayer
100
AcDbLine
 10
-204.4667656210484
 20
-14.512519253234029
 30
0.0
 11
-201.8458911885083
 21
-14.834739130445206
 31
0.0
  0
LINE
  5
F2
330
17
100
AcDbEntity
  8
FoilLayer
100
AcDbLine
 10
-201.8458911885083
 20
-14.834739130445206
 30
0.0
 11
-198.99814274910602
 21
-15.138155727481116
 31
0.0
  0
LINE
  5
F3
330
17
100
AcDbEntity
  8
FoilLayer
100
AcDbLine
 10
-198.99814274910602
 20
-15.138155727481116
 30
0.0
 11
-195.90742244870367
 21
-15.428381293130057
 31
0.0
  0
LINE
  5
F4
330
17
100
AcDbEntity
  8
FoilLayer
100
AcDbLine
 10
-195.90742244870367
 20
-15.428381293130057
 30
0.0
 11
-192.57194994427198
 21
-15.70869106837504
 31
0.0
  0
LINE
  5
F5
330
17
100
AcDbEntity
  8
FoilLayer
100
AcDbLine
 10
-192.57194994427198
 20
-15.70869106837504
 30
0.0
 11
-188.99361461513394
 21
-15.971174791139255
 31
0.0
  0
LINE
  5
F6
330
17
100
AcDbEntity
  8
FoilLayer
100
AcDbLine
 10
-188.99361461513394
 20
-15.971174791139255
 30
0.0
 11
-185.17177822417028
 21
-16.20622676023567
 31
0.0
  0
LINE
  5
F7
330
17
100
AcDbEntity
  8
FoilLayer
100
AcDbLine
 10
-185.17177822417028
 20
-16.20622676023567
 30
0.0
 11
-181.10731746701202
 21
-16.40939463862701
 31
0.0
  0
LINE
  5
F8
330
17
100
AcDbEntity
  8
FoilLayer
100
AcDbLine
 10
-181.10731746701202
 20
-16.40939463862701
 30
0.0
 11
-176.80453846896185
 21
-16.580001087206565
 31
0.0
  0
LINE
  5
F9
330
17
100
AcDbEntity
  8
FoilLayer
100
AcDbLine
 10
-176.80453846896185
 20
-16.580001087206565
 30
0.0
 11
-172.27907299938647
 21
-16.722332820096117
 31
0.0
  0
LINE
  5
FA
330
17
100
AcDbEntity
  8
FoilLayer
100
AcDbLine
 10
-172.27907299938647
 20
-16.722332820096117
 30
0.0
 11
-167.56776204573663
 21
-16.841009198800474
 31
0.0
  0
LINE
  5
FB
330
17
100
AcDbEntity
  8
FoilLayer
100
AcDbLine
 10
-167.56776204573663
 20
-16.841009198800474
 30
0.0
 11
-162.71570407641556
 21
-16.933882307520506
 31
0.0
  0
LINE
  5
FC
330
17
100
AcDbEntity
  8
FoilLayer
100
AcDbLine
 10
-162.71570407641556
 20
-16.933882307520506
 30
0.0
 11
-157.7581166190228
 21
-16.996590247465345
 31
0.0
  0
LINE
  5
FD
330
17
100
AcDbEntity
  8
FoilLayer
100
AcDbLine
 10
-157.7581166190228
 20
-16.996590247465345
 30
0.0
 11
-152.7096313409662
 21
-17.019498325725156
 31
0.0
  0
LINE
  5
FE
330
17
100
AcDbEntity
  8
FoilLayer
100
AcDbLine
 10
-152.7096313409662
 20
-17.019498325725156
 30
0.0
 11
-147.5579506349659
 21
-16.995646494486355
 31
0.0
  0
LINE
  5
FF
330
17
100
AcDbEntity
  8
FoilLayer
100
AcDbLine
 10
-147.5579506349659
 20
-16.995646494486355
 30
0.0
 11
-142.28698610450803
 21
-16.931500666773484
 31
0.0
  0
LINE
  5
100
330
17
100
AcDbEntity
  8
FoilLayer
100
AcDbLine
 10
-142.28698610450803
 20
-16.931500666773484
 30
0.0
 11
-136.91065177410945
 21
-16.839340305960906
 31
0.0
  0
LINE
  5
101
330
17
100
AcDbEntity
  8
FoilLayer
100
AcDbLine
 10
-136.91065177410945
 20
-16.839340305960906
 30
0.0
 11
-131.4522399798005
 21
-16.72129182798683
 31
0.0
  0
LINE
  5
102
330
17
100
AcDbEntity
  8
FoilLayer
100
AcDbLine
 10
-131.4522399798005
 20
-16.72129182798683
 30
0.0
 11
-125.913944720469
 21
-16.575700209876047
 31
0.0
  0
LINE
  5
103
330
17
100
AcDbEntity
  8
FoilLayer
100
AcDbLine
 10
-125.913944720469
 20
-16.575700209876047
 30
0.0
 11
-120.29792848255107
 21
-16.412103364393108
 31
0.0
  0
LINE
  5
104
330
17
100
AcDbEntity
  8
FoilLayer
100
AcDbLine
 10
-120.29792848255107
 20
-16.412103364393108
 30
0.0
 11
-114.62277293504533
 21
-16.23737122812402
 31
0.0
  0
LINE
  5
105
330
17
100
AcDbEntity
  8
FoilLayer
100
AcDbLine
 10
-114.62277293504533
 20
-16.23737122812402
 30
0.0
 11
-110.29881692364809
 21
-16.096575159531827
 31
0.0
  0
LINE
  5
106
330
17
100
AcDbEntity
  8
FoilLayer
100
AcDbLine
 10
-110.29881692364809
 20
-16.096575159531827
 30
0.0
 11
-110.24999999999989
 21
-17.595780585070813
 31
0.0
  0
LINE
  5
107
330
17
100
AcDbEntity
  8
FoilLayer
100
AcDbLine
 10
-110.24999999999989
 20
-17.595780585070813
 30
0.0
 11
-108.86236438465643
 21
-17.550596582559248
 31
0.0
  0
LINE
  5
108
330
17
100
AcDbEntity
  8
FoilLayer
100
AcDbLine
 10
-108.86236438465643
 20
-17.550596582559248
 30
0.0
 11
-103.13848748899119
 21
-17.350901111225387
 31
0.0
  0
LINE
  5
109
330
17
100
AcDbEntity
  8
FoilLayer
100
AcDbLine
 10
-103.13848748899119
 20
-17.350901111225387
 30
0.0
 11
-97.40975948713523
 21
-17.13149880850898
 31
0.0
  0
LINE
  5
10A
330
17
100
AcDbEntity
  8
FoilLayer
100
AcDbLine
 10
-97.40975948713523
 20
-17.13149880850898
 30
0.0
 11
-91.66220667320411
 21
-16.888880497594158
 31
0.0
  0
LINE
  5
10B
330
17
100
AcDbEntity
  8
FoilLayer
100
AcDbLine
 10
-91.66220667320411
 20
-16.888880497594158
 30
0.0
 11
-85.88307126793012
 21
-16.629270714736013
 31
0.0
  0
LINE
  5
10C
330
17
100
AcDbEntity
  8
FoilLayer
100
AcDbLine
 10
-85.88307126793012
 20
-16.629270714736013
 30
0.0
 11
-80.07622155598992
 21
-16.360872239493393
 31
0.0
  0
LINE
  5
10D
330
17
100
AcDbEntity
  8
FoilLayer
100
AcDbLine
 10
-80.07622155598992
 20
-16.360872239493393
 30
0.0
 11
-74.25440271637552
 21
-16.084050479865077
 31
0.0
  0
LINE
  5
10E
330
17
100
AcDbEntity
  8
FoilLayer
100
AcDbLine
 10
-74.25440271637552
 20
-16.084050479865077
 30
0.0
 11
-68.43285478269127
 21
-15.79713589930491
 31
0.0
  0
LINE
  5
10F
330
17
100
AcDbEntity
  8
FoilLayer
100
AcDbLine
 10
-68.43285478269127
 20
-15.79713589930491
 30
0.0
 11
-62.614022208446215
 21
-15.494011063902265
 31
0.0
  0
LINE
  5
110
330
17
100
AcDbEntity
  8
FoilLayer
100
AcDbLine
 10
-62.614022208446215
 20
-15.494011063902265
 30
0.0
 11
-56.782066446934664
 21
-15.172464625250724
 31
0.0
  0
LINE
  5
111
330
17
100
AcDbEntity
  8
FoilLayer
100
AcDbLine
 10
-56.782066446934664
 20
-15.172464625250724
 30
0.0
 11
-50.92277438703147
 21
-14.836988581680131
 31
0.0
  0
LINE
  5
112
330
17
100
AcDbEntity
  8
FoilLayer
100
AcDbLine
 10
-50.92277438703147
 20
-14.836988581680131
 30
0.0
 11
-45.0362027299779
 21
-14.495502206543382
 31
0.0
  0
LINE
  5
113
330
17
100
AcDbEntity
  8
FoilLayer
100
AcDbLine
 10
-45.0362027299779
 20
-14.495502206543382
 30
0.0
 11
-39.13457374331935
 21
-14.156201979261409
 31
0.0
  0
LINE
  5
114
330
17
100
AcDbEntity
  8
FoilLayer
100
AcDbLine
 10
-39.13457374331935
 20
-14.156201979261409
 30
0.0
 11
-33.21762282126372
 21
-13.817468764391336
 31
0.0
  0
LINE
  5
115
330
17
100
AcDbEntity
  8
FoilLayer
100
AcDbLine
 10
-33.21762282126372
 20
-13.817468764391336
 30
0.0
 11
-27.292695924613895
 21
-13.471704595613685
 31
0.0
  0
LINE
  5
116
330
17
100
AcDbEntity
  8
FoilLayer
100
AcDbLine
 10
-27.292695924613895
 20
-13.471704595613685
 30
0.0
 11
-21.352888102220675
 21
-13.117233636244388
 31
0.0
  0
LINE
  5
117
330
17
100
AcDbEntity
  8
FoilLayer
100
AcDbLine
 10
-21.352888102220675
 20
-13.117233636244388
 30
0.0
 11
-15.39813635270491
 21
-12.758094274683764
 31
0.0
  0
LINE
  5
118
330
17
100
AcDbEntity
  8
FoilLayer
100
AcDbLine
 10
-15.39813635270491
 20
-12.758094274683764
 30
0.0
 11
-9.437052964589583
 21
-12.39903051477806
 31
0.0
  0
LINE
  5
119
330
17
100
AcDbEntity
  8
FoilLayer
100
AcDbLine
 10
-9.437052964589583
 20
-12.39903051477806
 30
0.0
 11
-3.472567502002761
 21
-12.042014299693113
 31
0.0
  0
LINE
  5
11A
330
17
100
AcDbEntity
  8
FoilLayer
100
AcDbLine
 10
-3.472567502002761
 20
-12.042014299693113
 30
0.0
 11
2.495017628435761
 21
-11.68712123108384
 31
0.0
  0
LINE
  5
11B
330
17
100
AcDbEntity
  8
FoilLayer
100
AcDbLine
 10
2.495017628435761
 20
-11.68712123108384
 30
0.0
 11
8.463919487697439
 21
-11.332612470887081
 31
0.0
  0
LINE
  5
11C
330
17
100
AcDbEntity
  8
FoilLayer
100
AcDbLine
 10
8.463919487697439
 20
-11.332612470887081
 30
0.0
 11
14.429400372073957
 21
-10.974934741321583
 31
0.0
  0
LINE
  5
11D
330
17
100
AcDbEntity
  8
FoilLayer
100
AcDbLine
 10
14.429400372073957
 20
-10.974934741321583
 30
0.0
 11
20.39518996320811
 21
-10.610849771501595
 31
0.0
  0
LINE
  5
11E
330
17
100
AcDbEntity
  8
FoilLayer
100
AcDbLine
 10
20.39518996320811
 20
-10.610849771501595
 30
0.0
 11
26.366214968945485
 21
-10.242858716177395
 31
0.0
  0
LINE
  5
11F
330
17
100
AcDbEntity
  8
FoilLayer
100
AcDbLine
 10
26.366214968945485
 20
-10.242858716177395
 30
0.0
 11
32.337328176613596
 21
-9.875705579195227
 31
0.0
  0
LINE
  5
120
330
17
100
AcDbEntity
  8
FoilLayer
100
AcDbLine
 10
32.337328176613596
 20
-9.875705579195227
 30
0.0
 11
38.30902099696942
 21
-9.510738590067836
 31
0.0
  0
LINE
  5
121
330
17
100
AcDbEntity
  8
FoilLayer
100
AcDbLine
 10
38.30902099696942
 20
-9.510738590067836
 30
0.0
 11
44.28156433594313
 21
-9.14771204341673
 31
0.0
  0
LINE
  5
122
330
17
100
AcDbEntity
  8
FoilLayer
100
AcDbLine
 10
44.28156433594313
 20
-9.14771204341673
 30
0.0
 11
50.25187742609671
 21
-8.783916879940604
 31
0.0
  0
LINE
  5
123
330
17
100
AcDbEntity
  8
FoilLayer
100
AcDbLine
 10
50.25187742609671
 20
-8.783916879940604
 30
0.0
 11
56.21854273640031
 21
-8.416486536890396
 31
0.0
  0
LINE
  5
124
330
17
100
AcDbEntity
  8
FoilLayer
100
AcDbLine
 10
56.21854273640031
 20
-8.416486536890396
 30
0.0
 11
62.185636456081795
 21
-8.044450793027963
 31
0.0
  0
LINE
  5
125
330
17
100
AcDbEntity
  8
FoilLayer
100
AcDbLine
 10
62.185636456081795
 20
-8.044450793027963
 30
0.0
 11
68.15248447038488
 21
-7.6688302706947304
 31
0.0
  0
LINE
  5
126
330
17
100
AcDbEntity
  8
FoilLayer
100
AcDbLine
 10
68.15248447038488
 20
-7.6688302706947304
 30
0.0
 11
74.1147648847031
 21
-7.292976643258826
 31
0.0
  0
LINE
  5
127
330
17
100
AcDbEntity
  8
FoilLayer
100
AcDbLine
 10
74.1147648847031
 20
-7.292976643258826
 30
0.0
 11
80.07116727035128
 21
-6.9205250902943325
 31
0.0
  0
LINE
  5
128
330
17
100
AcDbEntity
  8
FoilLayer
100
AcDbLine
 10
80.07116727035128
 20
-6.9205250902943325
 30
0.0
 11
86.02433138511384
 21
-6.553567257587374
 31
0.0
  0
LINE
  5
129
330
17
100
AcDbEntity
  8
FoilLayer
100
AcDbLine
 10
86.02433138511384
 20
-6.553567257587374
 30
0.0
 11
91.97730019560112
 21
-6.192323649964804
 31
0.0
  0
LINE
  5
12A
330
17
100
AcDbEntity
  8
FoilLayer
100
AcDbLine
 10
91.97730019560112
 20
-6.192323649964804
 30
0.0
 11
97.93000440029607
 21
-5.834816024122874
 31
0.0
  0
LINE
  5
12B
330
17
100
AcDbEntity
  8
FoilLayer
100
AcDbLine
 10
97.93000440029607
 20
-5.834816024122874
 30
0.0
 11
103.87799610183447
 21
-5.479305541998422
 31
0.0
  0
LINE
  5
12C
330
17
100
AcDbEntity
  8
FoilLayer
100
AcDbLine
 10
103.87799610183447
 20
-5.479305541998422
 30
0.0
 11
109.81934115787772
 21
-5.126371816279167
 31
0.0
  0
LINE
  5
12D
330
17
100
AcDbEntity
  8
FoilLayer
100
AcDbLine
 10
109.81934115787772
 20
-5.126371816279167
 30
0.0
 11
115.75649032207286
 21
-4.779164915920117
 31
0.0
  0
LINE
  5
12E
330
17
100
AcDbEntity
  8
FoilLayer
100
AcDbLine
 10
115.75649032207286
 20
-4.779164915920117
 30
0.0
 11
121.69736286777294
 21
-4.440746707945545
 31
0.0
  0
LINE
  5
12F
330
17
100
AcDbEntity
  8
FoilLayer
100
AcDbLine
 10
121.69736286777294
 20
-4.440746707945545
 30
0.0
 11
127.65150980404928
 21
-4.109510657188395
 31
0.0
  0
LINE
  5
130
330
17
100
AcDbEntity
  8
FoilLayer
100
AcDbLine
 10
127.65150980404928
 20
-4.109510657188395
 30
0.0
 11
133.61747579904505
 21
-3.7810277666979206
 31
0.0
  0
LINE
  5
131
330
17
100
AcDbEntity
  8
FoilLayer
100
AcDbLine
 10
133.61747579904505
 20
-3.7810277666979206
 30
0.0
 11
139.58627685610014
 21
-3.449501909596909
 31
0.0
  0
LINE
  5
132
330
17
100
AcDbEntity
  8
FoilLayer
100
AcDbLine
 10
139.58627685610014
 20
-3.449501909596909
 30
0.0
 11
145.55691755342502
 21
-3.1098992756952524
 31
0.0
  0
LINE
  5
133
330
17
100
AcDbEntity
  8
FoilLayer
100
AcDbLine
 10
145.55691755342502
 20
-3.1098992756952524
 30
0.0
 11
151.52842766978148
 21
-2.765722741670922
 31
0.0
  0
LINE
  5
134
330
17
100
AcDbEntity
  8
FoilLayer
100
AcDbLine
 10
151.52842766978148
 20
-2.765722741670922
 30
0.0
 11
157.4958048956688
 21
-2.425502694254083
 31
0.0
  0
LINE
  5
135
330
17
100
AcDbEntity
  8
FoilLayer
100
AcDbLine
 10
157.4958048956688
 20
-2.425502694254083
 30
0.0
 11
163.46222450059406
 21
-2.092905813708368
 31
0.0
  0
LINE
  5
136
330
17
100
AcDbEntity
  8
FoilLayer
100
AcDbLine
 10
163.46222450059406
 20
-2.092905813708368
 30
0.0
 11
169.43092475544267
 21
-1.7662688636255301
 31
0.0
  0
LINE
  5
137
330
17
100
AcDbEntity
  8
FoilLayer
100
AcDbLine
 10
169.43092475544267
 20
-1.7662688636255301
 30
0.0
 11
175.3988059923629
 21
-1.4395374114740422
 31
0.0
  0
LINE
  5
138
330
17
100
AcDbEntity
  8
FoilLayer
100
AcDbLine
 10
175.3988059923629
 20
-1.4395374114740422
 30
0.0
 11
181.35969407620314
 21
-1.1063042169994146
 31
0.0
  0
LINE
  5
139
330
17
100
AcDbEntity
  8
FoilLayer
100
AcDbLine
 10
181.35969407620314
 20
-1.1063042169994146
 30
0.0
 11
187.31108155207494
 21
-0.7706265690156998
 31
0.0
  0
LINE
  5
13A
330
17
100
AcDbEntity
  8
FoilLayer
100
AcDbLine
 10
187.31108155207494
 20
-0.7706265690156998
 30
0.0
 11
193.24848272178656
 21
-0.44247128569654687
 31
0.0
  0
LINE
  5
13B
330
17
100
AcDbEntity
  8
FoilLayer
100
AcDbLine
 10
193.24848272178656
 20
-0.44247128569654687
 30
0.0
 11
199.1784245282127
 21
-0.12554284813304803
 31
0.0
  0
LINE
  5
13C
330
17
100
AcDbEntity
  8
FoilLayer
100
AcDbLine
 10
199.1784245282127
 20
-0.12554284813304803
 30
0.0
 11
205.11096829159567
 21
0.1804989511219385
 31
0.0
  0
LINE
  5
13D
330
17
100
AcDbEntity
  8
FoilLayer
100
AcDbLine
 10
205.11096829159567
 20
0.1804989511219385
 30
0.0
 11
211.04926408089045
 21
0.4818408474960507
 31
0.0
  0
LINE
  5
13E
330
17
100
AcDbEntity
  8
FoilLayer
100
AcDbLine
 10
211.04926408089045
 20
0.4818408474960507
 30
0.0
 11
216.97988630221084
 21
0.7840017617984656
 31
0.0
  0
LINE
  5
13F
330
17
100
AcDbEntity
  8
FoilLayer
100
AcDbLine
 10
216.97988630221084
 20
0.7840017617984656
 30
0.0
 11
222.885534776856
 21
1.0869627936154531
 31
0.0
  0
LINE
  5
140
330
17
100
AcDbEntity
  8
FoilLayer
100
AcDbLine
 10
222.885534776856
 20
1.0869627936154531
 30
0.0
 11
228.75352732721285
 21
1.381210734702885
 31
0.0
  0
LINE
  5
141
330
17
100
AcDbEntity
  8
FoilLayer
100
AcDbLine
 10
228.75352732721285
 20
1.381210734702885
 30
0.0
 11
234.58523738334605
 21
1.6572638775061816
 31
0.0
  0
LINE
  5
142
330
17
100
AcDbEntity
  8
FoilLayer
100
AcDbLine
 10
234.58523738334605
 20
1.6572638775061816
 30
0.0
 11
240.3970579040971
 21
1.9150025194050544
 31
0.0
  0
LINE
  5
143
330
17
100
AcDbEntity
  8
FoilLayer
100
AcDbLine
 10
240.3970579040971
 20
1.9150025194050544
 30
0.0
 11
246.1860530252004
 21
2.161703319685574
 31
0.0
  0
LINE
  5
144
330
17
100
AcDbEntity
  8
FoilLayer
100
AcDbLine
 10
246.1860530252004
 20
2.161703319685574
 30
0.0
 11
251.92453364054114
 21
2.3959172466284357
 31
0.0
  0
LINE
  5
145
330
17
100
AcDbEntity
  8
FoilLayer
100
AcDbLine
 10
251.92453364054114
 20
2.3959172466284357
 30
0.0
 11
257.61059080833246
 21
2.6070600685448095
 31
0.0
  0
LINE
  5
146
330
17
100
AcDbEntity
  8
FoilLayer
100
AcDbLine
 10
257.61059080833246
 20
2.6070600685448095
 30
0.0
 11
263.27095601372673
 21
2.7893923597986667
 31
0.0
  0
LINE
  5
147
330
17
100
AcDbEntity
  8
FoilLayer
100
AcDbLine
 10
263.27095601372673
 20
2.7893923597986667
 30
0.0
 11
268.92291053501134
 21
2.9455034770710258
 31
0.0
  0
LINE
  5
148
330
17
100
AcDbEntity
  8
FoilLayer
100
AcDbLine
 10
268.92291053501134
 20
2.9455034770710258
 30
0.0
 11
274.55670805883904
 21
3.0872880807360024
 31
0.0
  0
LINE
  5
149
330
17
100
AcDbEntity
  8
FoilLayer
100
AcDbLine
 10
274.55670805883904
 20
3.0872880807360024
 30
0.0
 11
280.14566120102336
 21
3.231038327428904
 31
0.0
  0
LINE
  5
14A
330
17
100
AcDbEntity
  8
FoilLayer
100
AcDbLine
 10
280.14566120102336
 20
3.231038327428904
 30
0.0
 11
285.63897824973344
 21
3.3616905874068763
 31
0.0
  0
LINE
  5
14B
330
17
100
AcDbEntity
  8
FoilLayer
100
AcDbLine
 10
285.63897824973344
 20
3.3616905874068763
 30
0.0
 11
291.0373900209672
 21
3.4403163085239146
 31
0.0
  0
LINE
  5
14C
330
17
100
AcDbEntity
  8
FoilLayer
100
AcDbLine
 10
291.0373900209672
 20
3.4403163085239146
 30
0.0
 11
296.4246379478243
 21
3.4664429804367654
 31
0.0
  0
LINE
  5
14D
330
17
100
AcDbEntity
  8
FoilLayer
100
AcDbLine
 10
296.4246379478243
 20
3.4664429804367654
 30
0.0
 11
301.81349870998645
 21
3.49006219746143
 31
0.0
  0
LINE
  5
14E
330
17
100
AcDbEntity
  8
FoilLayer
100
AcDbLine
 10
301.81349870998645
 20
3.49006219746143
 30
0.0
 11
307.15065424032093
 21
3.521291981081396
 31
0.0
  0
LINE
  5
14F
330
17
100
AcDbEntity
  8
FoilLayer
100
AcDbLine
 10
307.15065424032093
 20
3.521291981081396
 30
0.0
 11
312.4226285438385
 21
3.512887597109434
 31
0.0
  0
LINE
  5
150
330
17
100
AcDbEntity
  8
FoilLayer
100
AcDbLine
 10
312.4226285438385
 20
3.512887597109434
 30
0.0
 11
317.6774853726545
 21
3.4484623868415842
 31
0.0
  0
LINE
  5
151
330
17
100
AcDbEntity
  8
FoilLayer
100
AcDbLine
 10
317.6774853726545
 20
3.4484623868415842
 30
0.0
 11
322.9201325342009
 21
3.3846671903647363
 31
0.0
  0
LINE
  5
152
330
17
100
AcDbEntity
  8
FoilLayer
100
AcDbLine
 10
322.9201325342009
 20
3.3846671903647363
 30
0.0
 11
328.1079810962058
 21
3.3452409273238417
 31
0.0
  0
LINE
  5
153
330
17
100
AcDbEntity
  8
FoilLayer
100
AcDbLine
 10
328.1079810962058
 20
3.3452409273238417
 30
0.0
 11
333.22609343168494
 21
3.2714474119837944
 31
0.0
  0
LINE
  5
154
330
17
100
AcDbEntity
  8
FoilLayer
100
AcDbLine
 10
333.22609343168494
 20
3.2714474119837944
 30
0.0
 11
338.323409011923
 21
3.1166089225692652
 31
0.0
  0
LINE
  5
155
330
17
100
AcDbEntity
  8
FoilLayer
100
AcDbLine
 10
338.323409011923
 20
3.1166089225692652
 30
0.0
 11
343.4481049915179
 21
2.922369370665478
 31
0.0
  0
LINE
  5
156
330
17
100
AcDbEntity
  8
FoilLayer
100
AcDbLine
 10
343.4481049915179
 20
2.922369370665478
 30
0.0
 11
348.5402103577044
 21
2.7283881244160013
 31
0.0
  0
LINE
  5
157
330
17
100
AcDbEntity
  8
FoilLayer
100
AcDbLine
 10
348.5402103577044
 20
2.7283881244160013
 30
0.0
 11
353.50335820101077
 21
2.5148953510591965
 31
0.0
  0
LINE
  5
158
330
17
100
AcDbEntity
  8
FoilLayer
100
AcDbLine
 10
353.50335820101077
 20
2.5148953510591965
 30
0.0
 11
358.36848219857507
 21
2.214555176612783
 31
0.0
  0
LINE
  5
159
330
17
100
AcDbEntity
  8
FoilLayer
100
AcDbLine
 10
358.36848219857507
 20
2.214555176612783
 30
0.0
 11
363.19746230494957
 21
1.8676821835629693
 31
0.0
  0
LINE
  5
15A
330
17
100
AcDbEntity
  8
FoilLayer
100
AcDbLine
 10
363.19746230494957
 20
1.8676821835629693
 30
0.0
 11
367.92793975510097
 21
1.5030239011931728
 31
0.0
  0
LINE
  5
15B
330
17
100
AcDbEntity
  8
FoilLayer
100
AcDbLine
 10
367.92793975510097
 20
1.5030239011931728
 30
0.0
 11
372.4942608118689
 21
1.140860473435744
 31
0.0
  0
LINE
  5
15C
330
17
100
AcDbEntity
  8
FoilLayer
100
AcDbLine
 10
372.4942608118689
 20
1.140860473435744
 30
0.0
 11
376.83862170992893
 21
0.763135705040568
 31
0.0
  0
LINE
  5
15D
330
17
100
AcDbEntity
  8
FoilLayer
100
AcDbLine
 10
376.83862170992893
 20
0.763135705040568
 30
0.0
 11
380.9481260669793
 21
0.3771892566728176
 31
0.0
  0
LINE
  5
15E
330
17
100
AcDbEntity
  8
FoilLayer
100
AcDbLine
 10
380.9481260669793
 20
0.3771892566728176
 30
0.0
 11
384.79856245303176
 21
0.016764666978553236
 31
0.0
  0
LINE
  5
15F
330
17
100
AcDbEntity
  8
FoilLayer
100
AcDbLine
 10
384.79856245303176
 20
0.016764666978553236
 30
0.0
 11
388.3763414706144
 21
-0.33880881652499684
 31
0.0
  0
LINE
  5
160
330
17
100
AcDbEntity
  8
FoilLayer
100
AcDbLine
 10
388.3763414706144
 20
-0.33880881652499684
 30
0.0
 11
391.67057018128105
 21
-0.6807551017291764
 31
0.0
  0
LINE
  5
161
330
17
100
AcDbEntity
  8
FoilLayer
100
AcDbLine
 10
391.67057018128105
 20
-0.6807551017291764
 30
0.0
 11
393.71060523764845
 21
-0.9119323621994058
 31
0.0
  0
LINE
  5
162
330
17
100
AcDbEntity
  8
FoilLayer
100
AcDbLine
 10
393.71060523764845
 20
-0.9119323621994058
 30
0.0
 11
393.74999999999966
 21
0.885484383253145
 31
0.0
  0
LINE
  5
163
330
17
100
AcDbEntity
  8
StringerLayer
100
AcDbLine
 10
170.19487117385995
 20
53.601748270619474
 30
0.0
 11
174.11476866564345
 21
52.805253666802635
 31
0.0
  0
LINE
  5
164
330
17
100
AcDbEntity
  8
StringerLayer
100
AcDbLine
 10
174.11476866564345
 20
52.805253666802635
 30
0.0
 11
174.9112632694603
 21
56.725151158586144
 31
0.0
  0
LINE
  5
165
330
17
100
AcDbEntity
  8
StringerLayer
100
AcDbLine
 10
174.9112632694603
 20
56.725151158586144
 30
0.0
 11
170.9913657776768
 21
57.52164576240298
 31
0.0
  0
LINE
  5
166
330
17
100
AcDbEntity
  8
StringerLayer
100
AcDbLine
 10
170.9913657776768
 20
57.52164576240298
 30
0.0
 11
170.19487117385995
 21
53.601748270619474
 31
0.0
  0
LINE
  5
167
330
17
100
AcDbEntity
  8
StringerLayer
100
AcDbLine
 10
-67.55353973361623
 20
66.32144016806765
 30
0.0
 11
-63.57623914120381
 21
66.74697512267849
 31
0.0
  0
LINE
  5
168
330
17
100
AcDbEntity
  8
StringerLayer
100
AcDbLine
 10
-63.57623914120381
 20
66.74697512267849
 30
0.0
 11
-64.00177409581464
 21
70.72427571509094
 31
0.0
  0
LINE
  5
169
330
17
100
AcDbEntity
  8
StringerLayer
100
AcDbLine
 10
-64.00177409581464
 20
70.72427571509094
 30
0.0
 11
-67.97907468822707
 21
70.2987407604801
 31
0.0
  0
LINE
  5
16A
330
17
100
AcDbEntity
  8
StringerLayer
100
AcDbLine
 10
-67.97907468822707
 20
70.2987407604801
 30
0.0
 11
-67.55353973361623
 21
66.32144016806765
 31
0.0
  0
LINE
  5
16B
330
17
100
AcDbEntity
  8
StringerLayer
100
AcDbLine
 10
-173.2018137264387
 20
42.68191301015136
 30
0.0
 11
-169.45402264582904
 21
44.07979069296296
 31
0.0
  0
LINE
  5
16C
330
17
100
AcDbEntity
  8
StringerLayer
100
AcDbLine
 10
-169.45402264582904
 20
44.07979069296296
 30
0.0
 11
-170.85190032864065
 21
47.82758177357261
 31
0.0
  0
LINE
  5
16D
330
17
100
AcDbEntity
  8
StringerLayer
100
AcDbLine
 10
-170.85190032864065
 20
47.82758177357261
 30
0.0
 11
-174.5996914092503
 21
46.429704090761014
 31
0.0
  0
LINE
  5
16E
330
17
100
AcDbEntity
  8
StringerLayer
100
AcDbLine
 10
-174.5996914092503
 20
46.429704090761014
 30
0.0
 11
-173.2018137264387
 21
42.68191301015136
 31
0.0
  0
LINE
  5
16F
330
17
100
AcDbEntity
  8
StringerLayer
100
AcDbLine
 10
-223.50950363218092
 20
12.703046879541336
 30
0.0
 11
-222.12935783488317
 21
14.150526612802327
 31
0.0
  0
LINE
  5
170
330
17
100
AcDbEntity
  8
StringerLayer
100
AcDbLine
 10
-222.12935783488317
 20
14.150526612802327
 30
0.0
 11
-225.02431730140515
 21
16.910818207397867
 31
0.0
  0
LINE
  5
171
330
17
100
AcDbEntity
  8
StringerLayer
100
AcDbLine
 10
-225.02431730140515
 20
16.910818207397867
 30
0.0
 11
-226.4044630987029
 21
15.463338474136878
 31
0.0
  0
LINE
  5
172
330
17
100
AcDbEntity
  8
StringerLayer
100
AcDbLine
 10
-226.4044630987029
 20
15.463338474136878
 30
0.0
 11
-223.50950363218092
 21
12.703046879541336
 31
0.0
  0
LINE
  5
173
330
17
100
AcDbEntity
  8
StringerLayer
100
AcDbLine
 10
-226.3391834652449
 20
-5.025800113206651
 30
0.0
 11
-228.072454187471
 21
-4.02791605006417
 31
0.0
  0
LINE
  5
174
330
17
100
AcDbEntity
  8
StringerLayer
100
AcDbLine
 10
-228.072454187471
 20
-4.02791605006417
 30
0.0
 11
-230.06822231375597
 21
-7.494457494516408
 31
0.0
  0
LINE
  5
175
330
17
100
AcDbEntity
  8
StringerLayer
100
AcDbLine
 10
-230.06822231375597
 20
-7.494457494516408
 30
0.0
 11
-228.33495159152986
 21
-8.49234155765889
 31
0.0
  0
LINE
  5
176
330
17
100
AcDbEntity
  8
StringerLayer
100
AcDbLine
 10
-228.33495159152986
 20
-8.49234155765889
 30
0.0
 11
-226.3391834652449
 21
-5.025800113206651
 31
0.0
  0
LINE
  5
177
330
17
100
AcDbEntity
  8
StringerLayer
100
AcDbLine
 10
-139.84457567312805
 20
-12.889038524643562
 30
0.0
 11
-143.8439879236653
 21
-12.957607105295795
 31
0.0
  0
LINE
  5
178
330
17
100
AcDbEntity
  8
StringerLayer
100
AcDbLine
 10
-143.8439879236653
 20
-12.957607105295795
 30
0.0
 11
-143.77541934301308
 21
-16.957019355833033
 31
0.0
  0
LINE
  5
179
330
17
100
AcDbEntity
  8
StringerLayer
100
AcDbLine
 10
-143.77541934301308
 20
-16.957019355833033
 30
0.0
 11
-139.77600709247582
 21
-16.8884507751808
 31
0.0
  0
LINE
  5
17A
330
17
100
AcDbEntity
  8
StringerLayer
100
AcDbLine
 10
-139.77600709247582
 20
-16.8884507751808
 30
0.0
 11
-139.84457567312805
 21
-12.889038524643562
 31
0.0
  0
LINE
  5
17B
330
17
100
AcDbEntity
  8
SubLayer
100
AcDbLine
 10
-236.24999999999977
 20
0.0
 30
0.0
 11
-232.24999999999977
 21
0.0
 31
0.0
  0
LINE
  5
17C
330
17
100
AcDbEntity
  8
SubLayer
100
AcDbLine
 10
45.25
 20
0.0
 30
0.0
 11
55.549999999999955
 21
0.0
 31
0.0
  0
LINE
  5
17D
330
17
100
AcDbEntity
  8
SubLayer
100
AcDbLine
 10
-33.81354851264761
 20
29.25037970479647
 30
0.0
 11
-25.837126494832248
 21
29.86413192981102
 31
0.0
  0
LINE
  5
17E
330
17
100
AcDbEntity
  8
SubLayer
100
AcDbLine
 10
25.837126494832248
 20
33.84024900053964
 30
0.0
 11
33.81354851264761
 21
34.45400122555419
 31
0.0
  0
LINE
  5
17F
330
17
100
AcDbEntity
  8
SubLayer
100
AcDbLine
 10
-2.4167644645369735
 20
63.260847739451606
 30
0.0
 11
-1.8030122395224242
 21
55.28442572163624
 31
0.0
  0
LINE
  5
180
330
17
100
AcDbEntity
  8
SubLayer
100
AcDbLine
 10
2.4167644645369735
 20
0.44353319089905696
 30
0.0
 11
1.8030122395224242
 21
8.41995520871442
 31
0.0
  0
LINE
  5
181
330
17
100
AcDbEntity
  8
SubLayer
100
AcDbLine
 10
-31.66600495194013
 20
27.409712256596265
 30
0.0
 11
-27.677793943032448
 21
27.71658836910354
 31
0.0
  0
LINE
  5
182
330
17
100
AcDbEntity
  8
SubLayer
100
AcDbLine
 10
-27.677793943032448
 20
27.71658836910354
 30
0.0
 11
-27.984670055539723
 21
31.704799378011224
 31
0.0
  0
LINE
  5
183
330
17
100
AcDbEntity
  8
SubLayer
100
AcDbLine
 10
-27.984670055539723
 20
31.704799378011224
 30
0.0
 11
-31.972881064447407
 21
31.397923265503948
 31
0.0
  0
LINE
  5
184
330
17
100
AcDbEntity
  8
SubLayer
100
AcDbLine
 10
-31.972881064447407
 20
31.397923265503948
 30
0.0
 11
-31.66600495194013
 21
27.409712256596265
 31
0.0
  0
LINE
  5
185
330
17
100
AcDbEntity
  8
SubLayer
100
AcDbLine
 10
27.984670055539723
 20
31.999581552339432
 30
0.0
 11
31.972881064447407
 21
32.30645766484671
 31
0.0
  0
LINE
  5
186
330
17
100
AcDbEntity
  8
SubLayer
100
AcDbLine
 10
31.972881064447407
 20
32.30645766484671
 30
0.0
 11
31.66600495194013
 21
36.29466867375439
 31
0.0
  0
LINE
  5
187
330
17
100
AcDbEntity
  8
SubLayer
100
AcDbLine
 10
31.66600495194013
 20
36.29466867375439
 30
0.0
 11
27.677793943032448
 21
35.98779256124711
 31
0.0
  0
LINE
  5
188
330
17
100
AcDbEntity
  8
SubLayer
100
AcDbLine
 10
27.677793943032448
 20
35.98779256124711
 30
0.0
 11
27.984670055539723
 21
31.999581552339432
 31
0.0
  0
LINE
  5
189
330
17
100
AcDbEntity
  8
SubLayer
100
AcDbLine
 10
-3.9505558002299024
 20
57.12509316983645
 30
0.0
 11
0.03765520867777905
 21
57.43196928234372
 31
0.0
  0
LINE
  5
18A
330
17
100
AcDbEntity
  8
SubLayer
100
AcDbLine
 10
0.03765520867777905
 20
57.43196928234372
 30
0.0
 11
-0.2692209038294957
 21
61.4201802912514
 31
0.0
  0
LINE
  5
18B
330
17
100
AcDbEntity
  8
SubLayer
100
AcDbLine
 10
-0.2692209038294957
 20
61.4201802912514
 30
0.0
 11
-4.257431912737177
 21
61.11330417874412
 31
0.0
  0
LINE
  5
18C
330
17
100
AcDbEntity
  8
SubLayer
100
AcDbLine
 10
-4.257431912737177
 20
61.11330417874412
 30
0.0
 11
-3.9505558002299024
 21
57.12509316983645
 31
0.0
  0
LINE
  5
18D
330
17
100
AcDbEntity
  8
SubLayer
100
AcDbLine
 10
0.2692209038294957
 20
2.2842006390992604
 30
0.0
 11
4.257431912737177
 21
2.5910767516065354
 31
0.0
  0
LINE
  5
18E
330
17
100
AcDbEntity
  8
SubLayer
100
AcDbLine
 10
4.257431912737177
 20
2.5910767516065354
 30
0.0
 11
3.9505558002299024
 21
6.579287760514216
 31
0.0
  0
LINE
  5
18F
330
17
100
AcDbEntity
  8
SubLayer
100
AcDbLine
 10
3.9505558002299024
 20
6.579287760514216
 30
0.0
 11
-0.03765520867777905
 21
6.272411648006941
 31
0.0
  0
LINE
  5
190
330
17
100
AcDbEntity
  8
SubLayer
100
AcDbLine
 10
-0.03765520867777905
 20
6.272411648006941
 30
0.0
 11
0.2692209038294957
 21
2.2842006390992604
 31
0.0
  0
LINE
  5
191
330
17
100
AcDbEntity
  8
SubLayer
100
AcDbLine
 10
268.76691349745596
 20
35.057601091906434
 30
0.0
 11
272.75512450636364
 21
35.3644772044137
 31
0.0
  0
LINE
  5
192
330
17
100
AcDbEntity
  8
SubLayer
100
AcDbLine
 10
-235.89987176932073
 20
-3.774391705944257
 30
0.0
 11
-231.91166076041304
 21
-3.4675155934369823
 31
0.0
  0
LINE
  5
193
330
17
100
AcDbEntity
  8
SubLayer
100
AcDbLine
 10
-135.96356746819234
 20
3.9152878254990626
 30
0.0
 11
-129.9812509548308
 21
4.375601994259974
 31
0.0
  0
LINE
  5
194
330
17
100
AcDbEntity
  8
SubLayer
100
AcDbLine
 10
166.8365036918737
 20
27.21448350420948
 30
0.0
 11
172.81882020523523
 21
27.67479767297039
 31
0.0
  0
LINE
  5
195
330
17
100
AcDbEntity
  8
SubLayer
100
AcDbLine
 10
15.436468111840698
 20
15.564885664854268
 30
0.0
 11
21.41878462520222
 21
16.02519983361518
 31
0.0
  0
LINE
  5
196
330
17
100
AcDbEntity
  8
SubLayer
100
AcDbLine
 10
-130.8248656508041
 20
2.3047774616793157
 30
0.0
 11
-131.13174176331137
 21
6.292988470586996
 31
0.0
  0
LINE
  5
197
330
17
100
AcDbEntity
  8
SubLayer
100
AcDbLine
 10
-131.13174176331137
 20
6.292988470586996
 30
0.0
 11
-135.11995277221905
 21
5.986112358079722
 31
0.0
  0
LINE
  5
198
330
17
100
AcDbEntity
  8
SubLayer
100
AcDbLine
 10
-135.11995277221905
 20
5.986112358079722
 30
0.0
 11
-134.81307665971178
 21
1.9979013491720408
 31
0.0
  0
LINE
  5
199
330
17
100
AcDbEntity
  8
SubLayer
100
AcDbLine
 10
-134.81307665971178
 20
1.9979013491720408
 30
0.0
 11
-130.8248656508041
 21
2.3047774616793157
 31
0.0
  0
LINE
  5
19A
330
17
100
AcDbEntity
  8
SubLayer
100
AcDbLine
 10
171.97520550926194
 20
25.60397314038973
 30
0.0
 11
171.66832939675467
 21
29.592184149297413
 31
0.0
  0
LINE
  5
19B
330
17
100
AcDbEntity
  8
SubLayer
100
AcDbLine
 10
171.66832939675467
 20
29.592184149297413
 30
0.0
 11
167.680118387847
 21
29.285308036790138
 31
0.0
  0
LINE
  5
19C
330
17
100
AcDbEntity
  8
SubLayer
100
AcDbLine
 10
167.680118387847
 20
29.285308036790138
 30
0.0
 11
167.98699450035426
 21
25.297097027882455
 31
0.0
  0
LINE
  5
19D
330
17
100
AcDbEntity
  8
SubLayer
100
AcDbLine
 10
167.98699450035426
 20
25.297097027882455
 30
0.0
 11
171.97520550926194
 21
25.60397314038973
 31
0.0
  0
LINE
  5
19E
330
17
100
AcDbEntity
  8
SubLayer
100
AcDbLine
 10
20.575169929228938
 20
13.95437530103452
 30
0.0
 11
20.268293816721663
 21
17.942586309942204
 31
0.0
  0
LINE
  5
19F
330
17
100
AcDbEntity
  8
SubLayer
100
AcDbLine
 10
20.268293816721663
 20
17.942586309942204
 30
0.0
 11
16.28008280781398
 21
17.63571019743493
 31
0.0
  0
LINE
  5
1A0
330
17
100
AcDbEntity
  8
SubLayer
100
AcDbLine
 10
16.28008280781398
 20
17.63571019743493
 30
0.0
 11
16.586958920321255
 21
13.647499188527247
 31
0.0
  0
LINE
  5
1A1
330
17
100
AcDbEntity
  8
SubLayer
100
AcDbLine
 10
16.586958920321255
 20
13.647499188527247
 30
0.0
 11
20.575169929228938
 21
13.95437530103452
 31
0.0
  0
LINE
  5
1A2
330
17
100
AcDbEntity
  8
SubLayer
100
AcDbLine
 10
374.6562892663931
 20
5.9722972464941915
 30
0.0
 11
374.9785749742686
 21
6.918939693513771
 31
0.0
  0
LINE
  5
1A3
330
17
100
AcDbEntity
  8
SubLayer
100
AcDbLine
 10
373.7509094500501
 20
0.5300251122311039
 30
0.0
 11
373.80237792182476
 21
1.5286997321214748
 31
0.0
  0
LINE
  5
1A4
330
17
100
AcDbEntity
  8
SubLayer
100
AcDbLine
 10
355.432481484165
 20
11.489687939145576
 30
0.0
 11
355.73165163294834
 21
12.443887720154226
 31
0.0
  0
LINE
  5
1A5
330
17
100
AcDbEntity
  8
SubLayer
100
AcDbLine
 10
353.79669423549285
 20
1.995835048086996
 30
0.0
 11
353.85906577421565
 21
2.993888048261508
 31
0.0
  0
LINE
  5
1A6
330
17
100
AcDbEntity
  8
SubLayer
100
AcDbLine
 10
316.8923948699582
 20
22.20716437326396
 30
0.0
 11
317.17597785625554
 21
23.166112072506547
 31
0.0
  0
LINE
  5
1A7
330
17
100
AcDbEntity
  8
SubLayer
100
AcDbLine
 10
313.8045965038059
 20
2.996154198447176
 30
0.0
 11
313.84829248059657
 21
3.9951990731211353
 31
0.0
  0
LINE
  5
1A8
330
17
100
AcDbEntity
  8
SubLayer
100
AcDbLine
 10
-152.42012259573303
 20
57.54207180181413
 30
0.0
 11
-152.11324648322577
 21
53.55386079290645
 31
0.0
  0
LINE
  5
1A9
330
17
100
AcDbEntity
  8
SubLayer
100
AcDbLine
 10
-146.72369369185083
 20
-16.4896287443936
 30
0.0
 11
-146.41681757934356
 21
-20.477839753301282
 31
0.0
  0
LINE
  5
1AA
330
17
100
AcDbEntity
  8
SubLayer
100
AcDbLine
 10
-147.9396985007541
 20
-0.6862358829251338
 30
0.0
 11
-147.47938433199317
 21
-6.668552396286655
 31
0.0
  0
LINE
  5
1AB
330
17
100
AcDbEntity
  8
SubLayer
100
AcDbLine
 10
-151.35755584308342
 20
43.732784444799506
 30
0.0
 11
-150.8972416743225
 21
37.75046793143798
 31
0.0
  0
LINE
  5
1AC
330
17
100
AcDbEntity
  8
SubLayer
100
AcDbLine
 10
-149.64862717191878
 20
21.523274280937187
 30
0.0
 11
-149.18831300315784
 21
15.540957767575664
 31
0.0
  0
LINE
  5
1AD
330
17
100
AcDbEntity
  8
SubLayer
100
AcDbLine
 10
-149.55020886457385
 20
-5.824937700313372
 30
0.0
 11
-145.56199785566616
 21
-5.5180615878060975
 31
0.0
  0
LINE
  5
1AE
330
17
100
AcDbEntity
  8
SubLayer
100
AcDbLine
 10
-145.56199785566616
 20
-5.5180615878060975
 30
0.0
 11
-145.86887396817343
 21
-1.5298505788984165
 31
0.0
  0
LINE
  5
1AF
330
17
100
AcDbEntity
  8
SubLayer
100
AcDbLine
 10
-145.86887396817343
 20
-1.5298505788984165
 30
0.0
 11
-149.85708497708112
 21
-1.8367266914056912
 31
0.0
  0
LINE
  5
1B0
330
17
100
AcDbEntity
  8
SubLayer
100
AcDbLine
 10
-149.85708497708112
 20
-1.8367266914056912
 30
0.0
 11
-149.55020886457385
 21
-5.824937700313372
 31
0.0
  0
LINE
  5
1B1
330
17
100
AcDbEntity
  8
SubLayer
100
AcDbLine
 10
-152.96806620690316
 20
38.59408262741127
 30
0.0
 11
-148.97985519799548
 21
38.90095873991854
 31
0.0
  0
LINE
  5
1B2
330
17
100
AcDbEntity
  8
SubLayer
100
AcDbLine
 10
-148.97985519799548
 20
38.90095873991854
 30
0.0
 11
-149.28673131050274
 21
42.88916974882622
 31
0.0
  0
LINE
  5
1B3
330
17
100
AcDbEntity
  8
SubLayer
100
AcDbLine
 10
-149.28673131050274
 20
42.88916974882622
 30
0.0
 11
-153.27494231941043
 21
42.582293636318944
 31
0.0
  0
LINE
  5
1B4
330
17
100
AcDbEntity
  8
SubLayer
100
AcDbLine
 10
-153.27494231941043
 20
42.582293636318944
 30
0.0
 11
-152.96806620690316
 21
38.59408262741127
 31
0.0
  0
LINE
  5
1B5
330
17
100
AcDbEntity
  8
SubLayer
100
AcDbLine
 10
-151.25913753573852
 20
16.384572463548945
 30
0.0
 11
-147.27092652683083
 21
16.69144857605622
 31
0.0
  0
LINE
  5
1B6
330
17
100
AcDbEntity
  8
SubLayer
100
AcDbLine
 10
-147.27092652683083
 20
16.69144857605622
 30
0.0
 11
-147.5778026393381
 21
20.679659584963904
 31
0.0
  0
LINE
  5
1B7
330
17
100
AcDbEntity
  8
SubLayer
100
AcDbLine
 10
-147.5778026393381
 20
20.679659584963904
 30
0.0
 11
-151.5660136482458
 21
20.37278347245663
 31
0.0
  0
LINE
  5
1B8
330
17
100
AcDbEntity
  8
SubLayer
100
AcDbLine
 10
-151.5660136482458
 20
20.37278347245663
 30
0.0
 11
-151.25913753573852
 21
16.384572463548945
 31
0.0
  0
LINE
  5
1B9
330
17
100
AcDbEntity
  8
SubLayer
100
AcDbLine
 10
97.17464116871375
 20
72.41261793731121
 30
0.0
 11
97.48151728122102
 21
68.42440692840353
 31
0.0
  0
LINE
  5
1BA
330
17
100
AcDbEntity
  8
SubLayer
100
AcDbLine
 10
103.01790988498654
 20
-3.5274362814496962
 30
0.0
 11
103.3247859974938
 21
-7.515647290357378
 31
0.0
  0
LINE
  5
1BB
330
17
100
AcDbEntity
  8
SubLayer
100
AcDbLine
 10
101.77253711360517
 20
12.657627314529405
 30
0.0
 11
102.23285128236607
 21
6.675310801167884
 31
0.0
  0
LINE
  5
1BC
330
17
100
AcDbEntity
  8
SubLayer
100
AcDbLine
 10
98.2665758838415
 20
58.22165984578596
 30
0.0
 11
98.7268900526024
 21
52.23934333242443
 31
0.0
  0
LINE
  5
1BD
330
17
100
AcDbEntity
  8
SubLayer
100
AcDbLine
 10
100.01955649872333
 20
35.43964358015768
 30
0.0
 11
100.47987066748424
 21
29.457327066796154
 31
0.0
  0
LINE
  5
1BE
330
17
100
AcDbEntity
  8
SubLayer
100
AcDbLine
 10
100.16202674978541
 20
7.518925497141167
 30
0.0
 11
104.1502377586931
 21
7.825801609648441
 31
0.0
  0
LINE
  5
1BF
330
17
100
AcDbEntity
  8
SubLayer
100
AcDbLine
 10
104.1502377586931
 20
7.825801609648441
 30
0.0
 11
103.84336164618583
 21
11.814012618556122
 31
0.0
  0
LINE
  5
1C0
330
17
100
AcDbEntity
  8
SubLayer
100
AcDbLine
 10
103.84336164618583
 20
11.814012618556122
 30
0.0
 11
99.85515063727814
 21
11.507136506048848
 31
0.0
  0
LINE
  5
1C1
330
17
100
AcDbEntity
  8
SubLayer
100
AcDbLine
 10
99.85515063727814
 20
11.507136506048848
 30
0.0
 11
100.16202674978541
 21
7.518925497141167
 31
0.0
  0
LINE
  5
1C2
330
17
100
AcDbEntity
  8
SubLayer
100
AcDbLine
 10
96.65606552002174
 20
53.08295802839772
 30
0.0
 11
100.64427652892942
 21
53.389834140904995
 31
0.0
  0
LINE
  5
1C3
330
17
100
AcDbEntity
  8
SubLayer
100
AcDbLine
 10
100.64427652892942
 20
53.389834140904995
 30
0.0
 11
100.33740041642216
 21
57.37804514981267
 31
0.0
  0
LINE
  5
1C4
330
17
100
AcDbEntity
  8
SubLayer
100
AcDbLine
 10
100.33740041642216
 20
57.37804514981267
 30
0.0
 11
96.34918940751447
 21
57.071169037305395
 31
0.0
  0
LINE
  5
1C5
330
17
100
AcDbEntity
  8
SubLayer
100
AcDbLine
 10
96.34918940751447
 20
57.071169037305395
 30
0.0
 11
96.65606552002174
 21
53.08295802839772
 31
0.0
  0
LINE
  5
1C6
330
17
100
AcDbEntity
  8
SubLayer
100
AcDbLine
 10
98.40904613490358
 20
30.300941762769437
 30
0.0
 11
102.39725714381126
 21
30.607817875276712
 31
0.0
  0
LINE
  5
1C7
330
17
100
AcDbEntity
  8
SubLayer
100
AcDbLine
 10
102.39725714381126
 20
30.607817875276712
 30
0.0
 11
102.09038103130399
 21
34.59602888418439
 31
0.0
  0
LINE
  5
1C8
330
17
100
AcDbEntity
  8
SubLayer
100
AcDbLine
 10
102.09038103130399
 20
34.59602888418439
 30
0.0
 11
98.10217002239631
 21
34.28915277167712
 31
0.0
  0
LINE
  5
1C9
330
17
100
AcDbEntity
  8
SubLayer
100
AcDbLine
 10
98.10217002239631
 20
34.28915277167712
 30
0.0
 11
98.40904613490358
 21
30.300941762769437
 31
0.0
  0
ENDSEC
  0
SECTION
  2
OBJECTS
  0
DICTIONARY
  5
A
330
0
100
AcDbDictionary
280
0
281
1
  3
ACAD_COLOR
350
B
  3
ACAD_GROUP
350
C
  3
ACAD_LAYOUT
350
D
  3
ACAD_MATERIAL
350
E
  3
ACAD_MLEADERSTYLE
350
F
  3
ACAD_MLINESTYLE
350
10
  3
ACAD_PLOTSETTINGS
350
11
  3
ACAD_PLOTSTYLENAME
350
12
  3
ACAD_SCALELIST
350
14
  3
ACAD_TABLESTYLE
350
15
  3
ACAD_VISUALSTYLE
350
16
  3
EZDXF_META
350
2D
  0
DICTIONARY
  5
B
330
A
100
AcDbDictionary
280
0
281
1
  0
DICTIONARY
  5
C
330
A
100
AcDbDictionary
280
0
281
1
  0
DICTIONARY
  5
D
330
A
100
AcDbDictionary
280
0
281
1
  3
Model
350
1A
  3
Layout1
350
1E
  0
DICTIONARY
  5
E
330
A
100
AcDbDictionary
280
0
281
1
  3
ByBlock
350
1F
  3
ByLayer
350
20
  3
Global
350
21
  0
DICTIONARY
  5
F
330
A
100
AcDbDictionary
280
0
281
1
  3
Standard
350
2C
  0
DICTIONARY
  5
10
330
A
100
AcDbDictionary
280
0
281
1
  3
Standard
350
22
  0
DICTIONARY
  5
11
330
A
100
AcDbDictionary
280
0
281
1
  0
ACDBDICTIONARYWDFLT
  5
12
330
A
100
AcDbDictionary
280
0
281
1
  3
Normal
350
13
100
AcDbDictionaryWithDefault
340
13
  0
ACDBPLACEHOLDER
  5
13
330
12
  0
DICTIONARY
  5
14
330
A
100
AcDbDictionary
280
0
281
1
  0
DICTIONARY
  5
15
330
A
100
AcDbDictionary
280
0
281
1
  0
DICTIONARY
  5
16
330
A
100
AcDbDictionary
280
0
281
1
  0
LAYOUT
  5
1A
330
D
100
AcDbPlotSettings
  1

  2
Adobe PDF
  4
A3
  6

 40
7.5
 41
20.0
 42
7.5
 43
20.0
 44
420.0
 45
297.0
 46
0.0
 47
0.0
 48
0.0
 49
0.0
140
0.0
141
0.0
142
1.0
143
1.0
 70
1024
 72
1
 73
0
 74
5
  7

 75
16
 76
0
 77
2
 78
300
147
1.0
148
0.0
149
0.0
100
AcDbLayout
  1
Model
 70
1
 71
0
 10
0.0
 20
0.0
 11
420.0
 21
297.0
 12
0.0
 22
0.0
 32
0.0
 14
1e+20
 24
1e+20
 34
1e+20
 15
-1e+20
 25
-1e+20
 35
-1e+20
146
0.0
 13
0.0
 23
0.0
 33
0.0
 16
1.0
 26
0.0
 36
0.0
 17
0.0
 27
1.0
 37
0.0
 76
1
330
17
  0
LAYOUT
  5
1E
330
D
100
AcDbPlotSettings
  1

  2
Adobe PDF
  4
A3
  6

 40
7.5
 41
20.0
 42
7.5
 43
20.0
 44
420.0
 45
297.0
 46
0.0
 47
0.0
 48
0.0
 49
0.0
140
0.0
141
0.0
142
1.0
143
1.0
 70
0
 72
1
 73
0
 74
5
  7

 75
16
 76
0
 77
2
 78
300
147
1.0
148
0.0
149
0.0
100
AcDbLayout
  1
Layout1
 70
1
 71
1
 10
0.0
 20
0.0
 11
420.0
 21
297.0
 12
0.0
 22
0.0
 32
0.0
 14
1e+20
 24
1e+20
 34
1e+20
 15
-1e+20
 25
-1e+20
 35
-1e+20
146
0.0
 13
0.0
 23
0.0
 33
0.0
 16
1.0
 26
0.0
 36
0.0
 17
0.0
 27
1.0
 37
0.0
 76
1
330
1B
  0
MATERIAL
  5
1F
102
{ACAD_REACTORS
330
E
102
}
330
E
100
AcDbMaterial
  1
ByBlock
  2

 70
0
 40
1.0
 71
1
 41
1.0
 91
-1023410177
 42
1.0
 72
1
  3

 73
1
 74
1
 75
1
 44
0.5
 73
0
 45
1.0
 46
1.0
 77
1
  4

 78
1
 79
1
170
1
 48
1.0
171
1
  6

172
1
173
1
174
1
140
1.0
141
1.0
175
1
  7

176
1
177
1
178
1
143
1.0
179
1
  8

270
1
271
1
272
1
145
1.0
146
1.0
273
1
  9

274
1
275
1
276
1
 42
1.0
 72
1
  3

 73
1
 74
1
 75
1
 94
63
  0
MATERIAL
  5
20
102
{ACAD_REACTORS
330
E
102
}
330
E
100
AcDbMaterial
  1
ByLayer
  2

 70
0
 40
1.0
 71
1
 41
1.0
 91
-1023410177
 42
1.0
 72
1
  3

 73
1
 74
1
 75
1
 44
0.5
 73
0
 45
1.0
 46
1.0
 77
1
  4

 78
1
 79
1
170
1
 48
1.0
171
1
  6

172
1
173
1
174
1
140
1.0
141
1.0
175
1
  7

176
1
177
1
178
1
143
1.0
179
1
  8

270
1
271
1
272
1
145
1.0
146
1.0
273
1
  9

274
1
275
1
276
1
 42
1.0
 72
1
  3

 73
1
 74
1
 75
1
 94
63
  0
MATERIAL
  5
21
102
{ACAD_REACTORS
330
E
102
}
330
E
100
AcDbMaterial
  1
Global
  2

 70
0
 40
1.0
 71
1
 41
1.0
 91
-1023410177
 42
1.0
 72
1
  3

 73
1
 74
1
 75
1
 44
0.5
 73
0
 45
1.0
 46
1.0
 77
1
  4

 78
1
 79
1
170
1
 48
1.0
171
1
  6

172
1
173
1
174
1
140
1.0
141
1.0
175
1
  7

176
1
177
1
178
1
143
1.0
179
1
  8

270
1
271
1
272
1
145
1.0
146
1.0
273
1
  9

274
1
275
1
276
1
 42
1.0
 72
1
  3

 73
1
 74
1
 75
1
 94
63
  0
MLINESTYLE
  5
22
102
{ACAD_REACTORS
330
10
102
}
330
10
100
AcDbMlineStyle
  2
Standard
 70
0
  3

 62
256
 51
90.0
 52
90.0
 71
2
 49
0.5
 62
256
  6
BYLAYER
 49
-0.5
 62
256
  6
BYLAYER
  0
MLEADERSTYLE
  5
2C
102
{ACAD_REACTORS
330
F
102
}
330
F
100
AcDbMLeaderStyle
179
2
170
2
171
1
172
0
 90
2
 40
0.0
 41
0.0
173
1
 91
-1056964608
 92
-2
290
1
 42
2.0
291
1
 43
8.0
  3
Standard
 44
4.0
300

342
29
174
1
175
1
176
0
178
1
 93
-1056964608
 45
4.0
292
0
297
0
 46
4.0
 94
-1056964608
 47
1.0
 49
1.0
140
1.0
294
1
141
0.0
177
0
142
1.0
295
0
296
0
143
3.75
271
0
272
9
273
9
  0
DICTIONARY
  5
2D
330
A
100
AcDbDictionary
281
1
  3
CREATED_BY_EZDXF
350
2E
  3
WRITTEN_BY_EZDXF
350
1CC
  0
DICTIONARYVAR
  5
2E
330
2D
100
DictionaryVariables
280
0
  1
1.0.2 @ 2024-03-22T07:41:34.653245+00:00
  0
DICTIONARYVAR
  5
1CC
330
2D
100
DictionaryVariables
280
0
  1
1.0.2 @ 2024-03-22T07:41:34.664011+00:00
  0
ENDSEC
  0
EOF
