  0
SECTION
  2
HEADER
  9
$ACADVER
  1
AC1027
  9
$ACADMAINTVER
 70
105
  9
$DWGCODEPAGE
  3
ANSI_1252
  9
$LASTSAVEDBY
  1
ezdxf
  9
$REQUIREDVERSIONS
160
0
  9
$INSBASE
 10
0.0
 20
0.0
 30
0.0
  9
$EXTMIN
 10
1e+20
 20
1e+20
 30
1e+20
  9
$EXTMAX
 10
-1e+20
 20
-1e+20
 30
-1e+20
  9
$LIMMIN
 10
0.0
 20
0.0
  9
$LIMMAX
 10
420.0
 20
297.0
  9
$ORTHOMODE
 70
0
  9
$REGENMODE
 70
1
  9
$FILLMODE
 70
1
  9
$QTEXTMODE
 70
0
  9
$MIRRTEXT
 70
1
  9
$LTSCALE
 40
1.0
  9
$ATTMODE
 70
1
  9
$TEXTSIZE
 40
2.5
  9
$TRACEWID
 40
1.0
  9
$TEXTSTYLE
  7
Standard
  9
$CLAYER
  8
0
  9
$CELTYPE
  6
ByLayer
  9
$CECOLOR
 62
256
  9
$CELTSCALE
 40
1.0
  9
$DISPSILH
 70
0
  9
$DIMSCALE
 40
1.0
  9
$DIMASZ
 40
2.5
  9
$DIMEXO
 40
0.625
  9
$DIMDLI
 40
3.75
  9
$DIMRND
 40
0.0
  9
$DIMDLE
 40
0.0
  9
$DIMEXE
 40
1.25
  9
$DIMTP
 40
0.0
  9
$DIMTM
 40
0.0
  9
$DIMTXT
 40
2.5
  9
$DIMCEN
 40
2.5
  9
$DIMTSZ
 40
0.0
  9
$DIMTOL
 70
0
  9
$DIMLIM
 70
0
  9
$DIMTIH
 70
0
  9
$DIMTOH
 70
0
  9
$DIMSE1
 70
0
  9
$DIMSE2
 70
0
  9
$DIMTAD
 70
1
  9
$DIMZIN
 70
8
  9
$DIMBLK
  1

  9
$DIMASO
 70
1
  9
$DIMSHO
 70
1
  9
$DIMPOST
  1

  9
$DIMAPOST
  1

  9
$DIMALT
 70
0
  9
$DIMALTD
 70
3
  9
$DIMALTF
 40
0.03937007874
  9
$DIMLFAC
 40
1.0
  9
$DIMTOFL
 70
1
  9
$DIMTVP
 40
0.0
  9
$DIMTIX
 70
0
  9
$DIMSOXD
 70
0
  9
$DIMSAH
 70
0
  9
$DIMBLK1
  1

  9
$DIMBLK2
  1

  9
$DIMSTYLE
  2
ISO-25
  9
$DIMCLRD
 70
0
  9
$DIMCLRE
 70
0
  9
$DIMCLRT
 70
0
  9
$DIMTFAC
 40
1.0
  9
$DIMGAP
 40
0.625
  9
$DIMJUST
 70
0
  9
$DIMSD1
 70
0
  9
$DIMSD2
 70
0
  9
$DIMTOLJ
 70
0
  9
$DIMTZIN
 70
8
  9
$DIMALTZ
 70
0
  9
$DIMALTTZ
 70
0
  9
$DIMUPT
 70
0
  9
$DIMDEC
 70
2
  9
$DIMTDEC
 70
2
  9
$DIMALTU
 70
2
  9
$DIMALTTD
 70
3
  9
$DIMTXSTY
  7
Standard
  9
$DIMAUNIT
 70
0
  9
$DIMADEC
 70
0
  9
$DIMALTRND
 40
0.0
  9
$DIMAZIN
 70
0
  9
$DIMDSEP
 70
44
  9
$DIMATFIT
 70
3
  9
$DIMFRAC
 70
0
  9
$DIMLDRBLK
  1

  9
$DIMLUNIT
 70
2
  9
$DIMLWD
 70
-2
  9
$DIMLWE
 70
-2
  9
$DIMTMOVE
 70
0
  9
$DIMFXL
 40
1.0
  9
$DIMFXLON
 70
0
  9
$DIMJOGANG
 40
0.785398163397
  9
$DIMTFILL
 70
0
  9
$DIMTFILLCLR
 70
0
  9
$DIMARCSYM
 70
0
  9
$DIMLTYPE
  6

  9
$DIMLTEX1
  6

  9
$DIMLTEX2
  6

  9
$DIMTXTDIRECTION
 70
0
  9
$LUNITS
 70
2
  9
$LUPREC
 70
4
  9
$SKETCHINC
 40
1.0
  9
$FILLETRAD
 40
10.0
  9
$AUNITS
 70
0
  9
$AUPREC
 70
2
  9
$MENU
  1
.
  9
$ELEVATION
 40
0.0
  9
$PELEVATION
 40
0.0
  9
$THICKNESS
 40
0.0
  9
$LIMCHECK
 70
0
  9
$CHAMFERA
 40
0.0
  9
$CHAMFERB
 40
0.0
  9
$CHAMFERC
 40
0.0
  9
$CHAMFERD
 40
0.0
  9
$SKPOLY
 70
0
  9
$TDCREATE
 40
2460392.6955324076
  9
$TDUCREATE
 40
2458532.153996898
  9
$TDUPDATE
 40
2460392.6955324076
  9
$TDUUPDATE
 40
2458532.1544311
  9
$TDINDWG
 40
0.0
  9
$TDUSRTIMER
 40
0.0
  9
$USRTIMER
 70
1
  9
$ANGBASE
 50
0.0
  9
$ANGDIR
 70
0
  9
$PDMODE
 70
0
  9
$PDSIZE
 40
0.0
  9
$PLINEWID
 40
0.0
  9
$SPLFRAME
 70
0
  9
$SPLINETYPE
 70
6
  9
$SPLINESEGS
 70
8
  9
$HANDSEED
  5
1CD
  9
$SURFTAB1
 70
6
  9
$SURFTAB2
 70
6
  9
$SURFTYPE
 70
6
  9
$SURFU
 70
6
  9
$SURFV
 70
6
  9
$UCSBASE
  2

  9
$UCSNAME
  2

  9
$UCSORG
 10
0.0
 20
0.0
 30
0.0
  9
$UCSXDIR
 10
1.0
 20
0.0
 30
0.0
  9
$UCSYDIR
 10
0.0
 20
1.0
 30
0.0
  9
$UCSORTHOREF
  2

  9
$UCSORTHOVIEW
 70
0
  9
$UCSORGTOP
 10
0.0
 20
0.0
 30
0.0
  9
$UCSORGBOTTOM
 10
0.0
 20
0.0
 30
0.0
  9
$UCSORGLEFT
 10
0.0
 20
0.0
 30
0.0
  9
$UCSORGRIGHT
 10
0.0
 20
0.0
 30
0.0
  9
$UCSORGFRONT
 10
0.0
 20
0.0
 30
0.0
  9
$UCSORGBACK
 10
0.0
 20
0.0
 30
0.0
  9
$PUCSBASE
  2

  9
$PUCSNAME
  2

  9
$PUCSORG
 10
0.0
 20
0.0
 30
0.0
  9
$PUCSXDIR
 10
1.0
 20
0.0
 30
0.0
  9
$PUCSYDIR
 10
0.0
 20
1.0
 30
0.0
  9
$PUCSORTHOREF
  2

  9
$PUCSORTHOVIEW
 70
0
  9
$PUCSORGTOP
 10
0.0
 20
0.0
 30
0.0
  9
$PUCSORGBOTTOM
 10
0.0
 20
0.0
 30
0.0
  9
$PUCSORGLEFT
 10
0.0
 20
0.0
 30
0.0
  9
$PUCSORGRIGHT
 10
0.0
 20
0.0
 30
0.0
  9
$PUCSORGFRONT
 10
0.0
 20
0.0
 30
0.0
  9
$PUCSORGBACK
 10
0.0
 20
0.0
 30
0.0
  9
$USERI1
 70
0
  9
$USERI2
 70
0
  9
$USERI3
 70
0
  9
$USERI4
 70
0
  9
$USERI5
 70
0
  9
$USERR1
 40
0.0
  9
$USERR2
 40
0.0
  9
$USERR3
 40
0.0
  9
$USERR4
 40
0.0
  9
$USERR5
 40
0.0
  9
$WORLDVIEW
 70
1
  9
$SHADEDGE
 70
3
  9
$SHADEDIF
 70
70
  9
$TILEMODE
 70
1
  9
$MAXACTVP
 70
64
  9
$PINSBASE
 10
0.0
 20
0.0
 30
0.0
  9
$PLIMCHECK
 70
0
  9
$PEXTMIN
 10
1e+20
 20
1e+20
 30
1e+20
  9
$PEXTMAX
 10
-1e+20
 20
-1e+20
 30
-1e+20
  9
$PLIMMIN
 10
0.0
 20
0.0
  9
$PLIMMAX
 10
420.0
 20
297.0
  9
$UNITMODE
 70
0
  9
$VISRETAIN
 70
1
  9
$PLINEGEN
 70
0
  9
$PSLTSCALE
 70
1
  9
$TREEDEPTH
 70
3020
  9
$CMLSTYLE
  2
Standard
  9
$CMLJUST
 70
0
  9
$CMLSCALE
 40
20.0
  9
$PROXYGRAPHICS
 70
1
  9
$MEASUREMENT
 70
1
  9
$CELWEIGHT
370
-1
  9
$ENDCAPS
280
0
  9
$JOINSTYLE
280
0
  9
$LWDISPLAY
290
0
  9
$INSUNITS
 70
6
  9
$HYPERLINKBASE
  1

  9
$STYLESHEET
  1

  9
$XEDIT
290
1
  9
$CEPSNTYPE
380
0
  9
$PSTYLEMODE
290
1
  9
$FINGERPRINTGUID
  2
{AB50571F-DDDA-4B9C-9EBF-DB6D4A3EDC5C}
  9
$VERSIONGUID
  2
{BFF13904-56E4-43A2-8B13-78486552E50A}
  9
$EXTNAMES
290
1
  9
$PSVPSCALE
 40
0.0
  9
$OLESTARTUP
290
0
  9
$SORTENTS
280
127
  9
$INDEXCTL
280
0
  9
$HIDETEXT
280
1
  9
$XCLIPFRAME
280
0
  9
$HALOGAP
280
0
  9
$OBSCOLOR
 70
257
  9
$OBSLTYPE
280
0
  9
$INTERSECTIONDISPLAY
280
0
  9
$INTERSECTIONCOLOR
 70
257
  9
$DIMASSOC
280
2
  9
$PROJECTNAME
  1

  9
$CAMERADISPLAY
290
0
  9
$LENSLENGTH
 40
50.0
  9
$CAMERAHEIGHT
 40
0.0
  9
$STEPSPERSEC
 40
24.0
  9
$STEPSIZE
 40
100.0
  9
$3DDWFPREC
 40
2.0
  9
$PSOLWIDTH
 40
0.005
  9
$PSOLHEIGHT
 40
0.08
  9
$LOFTANG1
 40
1.570796326795
  9
$LOFTANG2
 40
1.570796326795
  9
$LOFTMAG1
 40
0.0
  9
$LOFTMAG2
 40
0.0
  9
$LOFTPARAM
 70
7
  9
$LOFTNORMALS
280
1
  9
$LATITUDE
 40
37.795
  9
$LONGITUDE
 40
-122.394
  9
$NORTHDIRECTION
 40
0.0
  9
$TIMEZONE
 70
-8000
  9
$LIGHTGLYPHDISPLAY
280
1
  9
$TILEMODELIGHTSYNCH
280
1
  9
$CMATERIAL
347
20
  9
$SOLIDHIST
280
0
  9
$SHOWHIST
280
1
  9
$DWFFRAME
280
2
  9
$DGNFRAME
280
2
  9
$REALWORLDSCALE
290
1
  9
$INTERFERECOLOR
 62
256
  9
$CSHADOW
280
0
  9
$SHADOWPLANELOCATION
 40
0.0
  0
ENDSEC
  0
SECTION
  2
CLASSES
  0
CLASS
  1
ACDBDICTIONARYWDFLT
  2
AcDbDictionaryWithDefault
  3
ObjectDBX Classes
 90
0
 91
0
280
0
281
0
  0
CLASS
  1
SUN
  2
AcDbSun
  3
SCENEOE
 90
1153
 91
0
280
0
281
0
  0
CLASS
  1
VISUALSTYLE
  2
AcDbVisualStyle
  3
ObjectDBX Classes
 90
4095
 91
0
280
0
281
0
  0
CLASS
  1
MATERIAL
  2
AcDbMaterial
  3
ObjectDBX Classes
 90
1153
 91
0
280
0
281
0
  0
CLASS
  1
SCALE
  2
AcDbScale
  3
ObjectDBX Classes
 90
1153
 91
0
280
0
281
0
  0
CLASS
  1
TABLESTYLE
  2
AcDbTableStyle
  3
ObjectDBX Classes
 90
4095
 91
0
280
0
281
0
  0
CLASS
  1
MLEADERSTYLE
  2
AcDbMLeaderStyle
  3
ACDB_MLEADERSTYLE_CLASS
 90
4095
 91
0
280
0
281
0
  0
CLASS
  1
DICTIONARYVAR
  2
AcDbDictionaryVar
  3
ObjectDBX Classes
 90
0
 91
0
280
0
281
0
  0
CLASS
  1
CELLSTYLEMAP
  2
AcDbCellStyleMap
  3
ObjectDBX Classes
 90
1152
 91
0
280
0
281
0
  0
CLASS
  1
MENTALRAYRENDERSETTINGS
  2
AcDbMentalRayRenderSettings
  3
SCENEOE
 90
1024
 91
0
280
0
281
0
  0
CLASS
  1
ACDBDETAILVIEWSTYLE
  2
AcDbDetailViewStyle
  3
ObjectDBX Classes
 90
1025
 91
0
280
0
281
0
  0
CLASS
  1
ACDBSECTIONVIEWSTYLE
  2
AcDbSectionViewStyle
  3
ObjectDBX Classes
 90
1025
 91
0
280
0
281
0
  0
CLASS
  1
RASTERVARIABLES
  2
AcDbRasterVariables
  3
ISM
 90
0
 91
0
280
0
281
0
  0
CLASS
  1
LAYOUT
  2
AcDbLayout
  3
ObjectDBX Classes
 90
0
 91
0
280
0
281
0
  0
CLASS
  1
ACDBPLACEHOLDER
  2
AcDbPlaceHolder
  3
ObjectDBX Classes
 90
0
 91
0
280
0
281
0
  0
ENDSEC
  0
SECTION
  2
TABLES
  0
TABLE
  2
VPORT
  5
8
330
0
100
AcDbSymbolTable
 70
1
  0
VPORT
  5
23
330
8
100
AcDbSymbolTableRecord
100
AcDbViewportTableRecord
  2
*Active
 70
0
 10
0.0
 20
0.0
 11
1.0
 21
1.0
 12
0.0
 22
0.0
 13
0.0
 23
0.0
 14
0.5
 24
0.5
 15
0.5
 25
0.5
 16
0.0
 26
0.0
 36
1.0
 17
0.0
 27
0.0
 37
0.0
 40
1000.0
 41
1.34
 42
50.0
 43
0.0
 44
0.0
 50
0.0
 51
0.0
 71
0
 72
1000
 73
1
 74
3
 75
0
 76
0
 77
0
 78
0
281
0
 65
0
146
0.0
  0
ENDTAB
  0
TABLE
  2
LTYPE
  5
2
330
0
100
AcDbSymbolTable
 70
3
  0
LTYPE
  5
24
330
2
100
AcDbSymbolTableRecord
100
AcDbLinetypeTableRecord
  2
ByBlock
 70
0
  3

 72
65
 73
0
 40
0.0
  0
LTYPE
  5
25
330
2
100
AcDbSymbolTableRecord
100
AcDbLinetypeTableRecord
  2
ByLayer
 70
0
  3

 72
65
 73
0
 40
0.0
  0
LTYPE
  5
26
330
2
100
AcDbSymbolTableRecord
100
AcDbLinetypeTableRecord
  2
Continuous
 70
0
  3

 72
65
 73
0
 40
0.0
  0
ENDTAB
  0
TABLE
  2
LAYER
  5
1
330
0
100
AcDbSymbolTable
 70
5
  0
LAYER
  5
27
330
1
100
AcDbSymbolTableRecord
100
AcDbLayerTableRecord
  2
0
 70
0
 62
7
  6
Continuous
370
-3
390
13
347
21
  0
LAYER
  5
28
330
1
100
AcDbSymbolTableRecord
100
AcDbLayerTableRecord
  2
Defpoints
 70
0
 62
7
  6
Continuous
290
0
370
-3
390
13
347
21
  0
LAYER
  5
30
330
1
100
AcDbSymbolTableRecord
100
AcDbLayerTableRecord
  2
FoilLayer
 70
0
 62
1
  6
Continuous
370
50
390
13
347
21
  0
LAYER
  5
31
330
1
100
AcDbSymbolTableRecord
100
AcDbLayerTableRecord
  2
StringerLayer
 70
0
 62
1
  6
Continuous
370
50
390
13
347
21
  0
LAYER
  5
32
330
1
100
AcDbSymbolTableRecord
100
AcDbLayerTableRecord
  2
SubLayer
 70
0
 62
1
  6
Continuous
370
50
390
13
347
21
  0
ENDTAB
  0
TABLE
  2
STYLE
  5
5
330
0
100
AcDbSymbolTable
 70
2
  0
STYLE
  5
29
330
5
100
AcDbSymbolTableRecord
100
AcDbTextStyleTableRecord
  2
Standard
 70
0
 40
0.0
 41
1.0
 50
0.0
 71
0
 42
2.5
  3
txt
  4

  0
STYLE
  5
2F
330
5
100
AcDbSymbolTableRecord
100
AcDbTextStyleTableRecord
  2
MSゴシック
 70
0
 40
0.0
 41
1.0
 50
0.0
 71
0
 42
2.5
  3
romans
  4

  0
ENDTAB
  0
TABLE
  2
VIEW
  5
7
330
0
100
AcDbSymbolTable
 70
0
  0
ENDTAB
  0
TABLE
  2
UCS
  5
6
330
0
100
AcDbSymbolTable
 70
0
  0
ENDTAB
  0
TABLE
  2
APPID
  5
3
330
0
100
AcDbSymbolTable
 70
3
  0
APPID
  5
2A
330
3
100
AcDbSymbolTableRecord
100
AcDbRegAppTableRecord
  2
ACAD
 70
0
  0
APPID
  5
1CA
330
3
100
AcDbSymbolTableRecord
100
AcDbRegAppTableRecord
  2
HATCHBACKGROUNDCOLOR
 70
0
  0
APPID
  5
1CB
330
3
100
AcDbSymbolTableRecord
100
AcDbRegAppTableRecord
  2
EZDXF
 70
0
  0
ENDTAB
  0
TABLE
  2
DIMSTYLE
  5
4
330
0
100
AcDbSymbolTable
 70
1
100
AcDbDimStyleTable
  0
DIMSTYLE
105
2B
330
4
100
AcDbSymbolTableRecord
100
AcDbDimStyleTableRecord
  2
Standard
 70
0
 40
1.0
 41
2.5
 42
0.625
 43
3.75
 44
1.25
 45
0.0
 46
0.0
 47
0.0
 48
0.0
 49
2.5
140
2.5
141
2.5
142
0.0
143
0.03937007874
144
1.0
145
0.0
146
1.0
147
0.625
148
0.0
 69
0
 70
0
 71
0
 72
0
 73
0
 74
0
 75
0
 76
0
 77
1
 78
8
 79
3
170
0
171
3
172
1
173
0
174
0
175
0
176
0
177
0
178
0
179
2
271
2
272
2
273
2
274
3
275
0
276
0
277
2
278
44
279
0
280
0
281
0
282
0
283
0
284
8
285
0
286
0
288
0
289
3
290
0
371
-2
372
-2
  0
ENDTAB
  0
TABLE
  2
BLOCK_RECORD
  5
9
330
0
100
AcDbSymbolTable
 70
2
  0
BLOCK_RECORD
  5
17
330
9
100
AcDbSymbolTableRecord
100
AcDbBlockTableRecord
  2
*Model_Space
340
1A
 70
0
280
1
281
0
  0
BLOCK_RECORD
  5
1B
330
9
100
AcDbSymbolTableRecord
100
AcDbBlockTableRecord
  2
*Paper_Space
340
1E
 70
0
280
1
281
0
  0
ENDTAB
  0
ENDSEC
  0
SECTION
  2
BLOCKS
  0
BLOCK
  5
18
330
17
100
AcDbEntity
  8
0
100
AcDbBlockBegin
  2
*Model_Space
 70
0
 10
0.0
 20
0.0
 30
0.0
  3
*Model_Space
  1

  0
ENDBLK
  5
19
330
17
100
AcDbEntity
  8
0
100
AcDbBlockEnd
  0
BLOCK
  5
1C
330
1B
100
AcDbEntity
  8
0
100
AcDbBlockBegin
  2
*Paper_Space
 70
0
 10
0.0
 20
0.0
 30
0.0
  3
*Paper_Space
  1

  0
ENDBLK
  5
1D
330
1B
100
AcDbEntity
  8
0
100
AcDbBlockEnd
  0
ENDSEC
  0
SECTION
  2
ENTITIES
  0
LINE
  5
33
330
17
100
AcDbEntity
  8
FoilLayer
100
AcDbLine
 10
228.4057462244628
 20
38.6840727749489
 30
0.0
 11
15.25
 21
-13.563654494212853
 31
0.0
  0
LINE
  5
34
330
17
100
AcDbEntity
  8
FoilLayer
100
AcDbLine
 10
381.24999999999966
 20
0.7429612519182708
 30
0.0
 11
379.3107447932707
 21
1.296309963852442
 31
0.0
  0
LINE
  5
35
330
17
100
AcDbEntity
  8
FoilLayer
100
AcDbLine
 10
379.3107447932707
 20
1.296309963852442
 30
0.0
 11
376.2011345198342
 21
2.1484256195393123
 31
0.0
  0
LINE
  5
36
330
17
100
AcDbEntity
  8
FoilLayer
100
AcDbLine
 10
376.2011345198342
 20
2.1484256195393123
 30
0.0
 11
372.83499035117165
 21
3.091931322890484
 31
0.0
  0
LINE
  5
37
330
17
100
AcDbEntity
  8
FoilLayer
100
AcDbLine
 10
372.83499035117165
 20
3.091931322890484
 30
0.0
 11
369.17717400048366
 21
4.101260310020963
 31
0.0
  0
LINE
  5
38
330
17
100
AcDbEntity
  8
FoilLayer
100
AcDbLine
 10
369.17717400048366
 20
4.101260310020963
 30
0.0
 11
365.214966139996
 21
5.172075198653913
 31
0.0
  0
LINE
  5
39
330
17
100
AcDbEntity
  8
FoilLayer
100
AcDbLine
 10
365.214966139996
 20
5.172075198653913
 30
0.0
 11
360.9720729125047
 21
6.31976119005823
 31
0.0
  0
LINE
  5
3A
330
17
100
AcDbEntity
  8
FoilLayer
100
AcDbLine
 10
360.9720729125047
 20
6.31976119005823
 30
0.0
 11
356.48944018276677
 21
7.5423234544103925
 31
0.0
  0
LINE
  5
3B
330
17
100
AcDbEntity
  8
FoilLayer
100
AcDbLine
 10
356.48944018276677
 20
7.5423234544103925
 30
0.0
 11
351.80347512016044
 21
8.815464110404282
 31
0.0
  0
LINE
  5
3C
330
17
100
AcDbEntity
  8
FoilLayer
100
AcDbLine
 10
351.80347512016044
 20
8.815464110404282
 30
0.0
 11
346.97174717130565
 21
10.119789995932907
 31
0.0
  0
LINE
  5
3D
330
17
100
AcDbEntity
  8
FoilLayer
100
AcDbLine
 10
346.97174717130565
 20
10.119789995932907
 30
0.0
 11
342.06467321893274
 21
11.423743757243688
 31
0.0
  0
LINE
  5
3E
330
17
100
AcDbEntity
  8
FoilLayer
100
AcDbLine
 10
342.06467321893274
 20
11.423743757243688
 30
0.0
 11
337.09843761631976
 21
12.713074866912303
 31
0.0
  0
LINE
  5
3F
330
17
100
AcDbEntity
  8
FoilLayer
100
AcDbLine
 10
337.09843761631976
 20
12.713074866912303
 30
0.0
 11
332.0579479812543
 21
14.054155644449303
 31
0.0
  0
LINE
  5
40
330
17
100
AcDbEntity
  8
FoilLayer
100
AcDbLine
 10
332.0579479812543
 20
14.054155644449303
 30
0.0
 11
326.95589923992225
 21
15.419326889793947
 31
0.0
  0
LINE
  5
41
330
17
100
AcDbEntity
  8
FoilLayer
100
AcDbLine
 10
326.95589923992225
 20
15.419326889793947
 30
0.0
 11
321.7809812562598
 21
16.77856854924114
 31
0.0
  0
LINE
  5
42
330
17
100
AcDbEntity
  8
FoilLayer
100
AcDbLine
 10
321.7809812562598
 20
16.77856854924114
 30
0.0
 11
316.53631133314116
 21
18.147997871701442
 31
0.0
  0
LINE
  5
43
330
17
100
AcDbEntity
  8
FoilLayer
100
AcDbLine
 10
316.53631133314116
 20
18.147997871701442
 30
0.0
 11
311.222145687241
 21
19.511174287222563
 31
0.0
  0
LINE
  5
44
330
17
100
AcDbEntity
  8
FoilLayer
100
AcDbLine
 10
311.222145687241
 20
19.511174287222563
 30
0.0
 11
305.8306758103814
 21
20.89477483194601
 31
0.0
  0
LINE
  5
45
330
17
100
AcDbEntity
  8
FoilLayer
100
AcDbLine
 10
305.8306758103814
 20
20.89477483194601
 30
0.0
 11
300.3767500688941
 21
22.300599122990864
 31
0.0
  0
LINE
  5
46
330
17
100
AcDbEntity
  8
FoilLayer
100
AcDbLine
 10
300.3767500688941
 20
22.300599122990864
 30
0.0
 11
294.8770896509942
 21
23.718831621561865
 31
0.0
  0
LINE
  5
47
330
17
100
AcDbEntity
  8
FoilLayer
100
AcDbLine
 10
294.8770896509942
 20
23.718831621561865
 30
0.0
 11
289.3474823841533
 21
25.14268258578262
 31
0.0
  0
LINE
  5
48
330
17
100
AcDbEntity
  8
FoilLayer
100
AcDbLine
 10
289.3474823841533
 20
25.14268258578262
 30
0.0
 11
283.80247161485227
 21
26.56521586424838
 31
0.0
  0
LINE
  5
49
330
17
100
AcDbEntity
  8
FoilLayer
100
AcDbLine
 10
283.80247161485227
 20
26.56521586424838
 30
0.0
 11
278.2526354315136
 21
27.976487809826587
 31
0.0
  0
LINE
  5
4A
330
17
100
AcDbEntity
  8
FoilLayer
100
AcDbLine
 10
278.2526354315136
 20
27.976487809826587
 30
0.0
 11
272.70124974733324
 21
29.373008995425344
 31
0.0
  0
LINE
  5
4B
330
17
100
AcDbEntity
  8
FoilLayer
100
AcDbLine
 10
272.70124974733324
 20
29.373008995425344
 30
0.0
 11
267.1516209774929
 21
30.767193728967793
 31
0.0
  0
LINE
  5
4C
330
17
100
AcDbEntity
  8
FoilLayer
100
AcDbLine
 10
267.1516209774929
 20
30.767193728967793
 30
0.0
 11
261.60640279469357
 21
32.16358680622927
 31
0.0
  0
LINE
  5
4D
330
17
100
AcDbEntity
  8
FoilLayer
100
AcDbLine
 10
261.60640279469357
 20
32.16358680622927
 30
0.0
 11
256.068535590296
 21
33.55271431064725
 31
0.0
  0
LINE
  5
4E
330
17
100
AcDbEntity
  8
FoilLayer
100
AcDbLine
 10
256.068535590296
 20
33.55271431064725
 30
0.0
 11
250.5442539700481
 21
34.92632850545904
 31
0.0
  0
LINE
  5
4F
330
17
100
AcDbEntity
  8
FoilLayer
100
AcDbLine
 10
250.5442539700481
 20
34.92632850545904
 30
0.0
 11
245.03341152442175
 21
36.275364200702086
 31
0.0
  0
LINE
  5
50
330
17
100
AcDbEntity
  8
FoilLayer
100
AcDbLine
 10
245.03341152442175
 20
36.275364200702086
 30
0.0
 11
239.52870607819125
 21
37.597338534791746
 31
0.0
  0
LINE
  5
51
330
17
100
AcDbEntity
  8
FoilLayer
100
AcDbLine
 10
239.52870607819125
 20
37.597338534791746
 30
0.0
 11
234.0281672031213
 21
38.89946217699837
 31
0.0
  0
LINE
  5
52
330
17
100
AcDbEntity
  8
FoilLayer
100
AcDbLine
 10
234.0281672031213
 20
38.89946217699837
 30
0.0
 11
228.74999999999977
 21
40.144034876521594
 31
0.0
  0
LINE
  5
53
330
17
100
AcDbEntity
  8
FoilLayer
100
AcDbLine
 10
228.74999999999977
 20
40.144034876521594
 30
0.0
 11
228.4057462244628
 21
38.6840727749489
 31
0.0
  0
LINE
  5
54
330
17
100
AcDbEntity
  8
FoilLayer
100
AcDbLine
 10
228.4057462244628
 20
38.6840727749489
 30
0.0
 11
228.19519444099603
 21
38.733721504552086
 31
0.0
  0
LINE
  5
55
330
17
100
AcDbEntity
  8
FoilLayer
100
AcDbLine
 10
228.19519444099603
 20
38.733721504552086
 30
0.0
 11
222.72051610580132
 21
40.0169000248049
 31
0.0
  0
LINE
  5
56
330
17
100
AcDbEntity
  8
FoilLayer
100
AcDbLine
 10
222.72051610580132
 20
40.0169000248049
 30
0.0
 11
217.25579597010176
 21
41.28126541824127
 31
0.0
  0
LINE
  5
57
330
17
100
AcDbEntity
  8
FoilLayer
100
AcDbLine
 10
217.25579597010176
 20
41.28126541824127
 30
0.0
 11
211.79802138015668
 21
42.523400235479976
 31
0.0
  0
LINE
  5
58
330
17
100
AcDbEntity
  8
FoilLayer
100
AcDbLine
 10
211.79802138015668
 20
42.523400235479976
 30
0.0
 11
206.34288734142677
 21
43.73898392498185
 31
0.0
  0
LINE
  5
59
330
17
100
AcDbEntity
  8
FoilLayer
100
AcDbLine
 10
206.34288734142677
 20
43.73898392498185
 30
0.0
 11
200.8853622839331
 21
44.92794895221376
 31
0.0
  0
LINE
  5
5A
330
17
100
AcDbEntity
  8
FoilLayer
100
AcDbLine
 10
200.8853622839331
 20
44.92794895221376
 30
0.0
 11
195.4265920509627
 21
46.09865885785669
 31
0.0
  0
LINE
  5
5B
330
17
100
AcDbEntity
  8
FoilLayer
100
AcDbLine
 10
195.4265920509627
 20
46.09865885785669
 30
0.0
 11
189.98097502420546
 21
47.25814577142696
 31
0.0
  0
LINE
  5
5C
330
17
100
AcDbEntity
  8
FoilLayer
100
AcDbLine
 10
189.98097502420546
 20
47.25814577142696
 30
0.0
 11
184.56376025815848
 21
48.39976101919796
 31
0.0
  0
LINE
  5
5D
330
17
100
AcDbEntity
  8
FoilLayer
100
AcDbLine
 10
184.56376025815848
 20
48.39976101919796
 30
0.0
 11
179.17575527869377
 21
49.5103364226497
 31
0.0
  0
LINE
  5
5E
330
17
100
AcDbEntity
  8
FoilLayer
100
AcDbLine
 10
179.17575527869377
 20
49.5103364226497
 30
0.0
 11
173.81206515807997
 21
50.58496527619155
 31
0.0
  0
LINE
  5
5F
330
17
100
AcDbEntity
  8
FoilLayer
100
AcDbLine
 10
173.81206515807997
 20
50.58496527619155
 30
0.0
 11
168.46365985988234
 21
51.620416306962
 31
0.0
  0
LINE
  5
60
330
17
100
AcDbEntity
  8
FoilLayer
100
AcDbLine
 10
168.46365985988234
 20
51.620416306962
 30
0.0
 11
163.1276355587607
 21
52.62383078821497
 31
0.0
  0
LINE
  5
61
330
17
100
AcDbEntity
  8
FoilLayer
100
AcDbLine
 10
163.1276355587607
 20
52.62383078821497
 30
0.0
 11
157.80067573964766
 21
53.59844312523223
 31
0.0
  0
LINE
  5
62
330
17
100
AcDbEntity
  8
FoilLayer
100
AcDbLine
 10
157.80067573964766
 20
53.59844312523223
 30
0.0
 11
152.4814402638487
 21
54.54550318361862
 31
0.0
  0
LINE
  5
63
330
17
100
AcDbEntity
  8
FoilLayer
100
AcDbLine
 10
152.4814402638487
 20
54.54550318361862
 30
0.0
 11
147.17087047225988
 21
55.46223927048925
 31
0.0
  0
LINE
  5
64
330
17
100
AcDbEntity
  8
FoilLayer
100
AcDbLine
 10
147.17087047225988
 20
55.46223927048925
 30
0.0
 11
141.86764101119525
 21
56.34206145452706
 31
0.0
  0
LINE
  5
65
330
17
100
AcDbEntity
  8
FoilLayer
100
AcDbLine
 10
141.86764101119525
 20
56.34206145452706
 30
0.0
 11
136.56787529848833
 21
57.18287802571587
 31
0.0
  0
LINE
  5
66
330
17
100
AcDbEntity
  8
FoilLayer
100
AcDbLine
 10
136.56787529848833
 20
57.18287802571587
 30
0.0
 11
131.2656828990157
 21
57.98731842766901
 31
0.0
  0
LINE
  5
67
330
17
100
AcDbEntity
  8
FoilLayer
100
AcDbLine
 10
131.2656828990157
 20
57.98731842766901
 30
0.0
 11
125.95952560948797
 21
58.76207642471569
 31
0.0
  0
LINE
  5
68
330
17
100
AcDbEntity
  8
FoilLayer
100
AcDbLine
 10
125.95952560948797
 20
58.76207642471569
 30
0.0
 11
120.65050149076575
 21
59.51092639539182
 31
0.0
  0
LINE
  5
69
330
17
100
AcDbEntity
  8
FoilLayer
100
AcDbLine
 10
120.65050149076575
 20
59.51092639539182
 30
0.0
 11
115.33840516818196
 21
60.231014628513
 31
0.0
  0
LINE
  5
6A
330
17
100
AcDbEntity
  8
FoilLayer
100
AcDbLine
 10
115.33840516818196
 20
60.231014628513
 30
0.0
 11
110.0226732044776
 21
60.918175893449295
 31
0.0
  0
LINE
  5
6B
330
17
100
AcDbEntity
  8
FoilLayer
100
AcDbLine
 10
110.0226732044776
 20
60.918175893449295
 30
0.0
 11
104.70401766453034
 21
61.57073714446181
 31
0.0
  0
LINE
  5
6C
330
17
100
AcDbEntity
  8
FoilLayer
100
AcDbLine
 10
104.70401766453034
 20
61.57073714446181
 30
0.0
 11
99.38284279328485
 21
62.189426290107505
 31
0.0
  0
LINE
  5
6D
330
17
100
AcDbEntity
  8
FoilLayer
100
AcDbLine
 10
99.38284279328485
 20
62.189426290107505
 30
0.0
 11
94.05796735593981
 21
62.77755012070192
 31
0.0
  0
LINE
  5
6E
330
17
100
AcDbEntity
  8
FoilLayer
100
AcDbLine
 10
94.05796735593981
 20
62.77755012070192
 30
0.0
 11
88.72634689137203
 21
63.336801964646234
 31
0.0
  0
LINE
  5
6F
330
17
100
AcDbEntity
  8
FoilLayer
100
AcDbLine
 10
88.72634689137203
 20
63.336801964646234
 30
0.0
 11
83.38741991637966
 21
63.86804698826963
 31
0.0
  0
LINE
  5
70
330
17
100
AcDbEntity
  8
FoilLayer
100
AcDbLine
 10
83.38741991637966
 20
63.86804698826963
 30
0.0
 11
78.04245674097189
 21
64.36996101561164
 31
0.0
  0
LINE
  5
71
330
17
100
AcDbEntity
  8
FoilLayer
100
AcDbLine
 10
78.04245674097189
 20
64.36996101561164
 30
0.0
 11
72.69434221704205
 21
64.83985449754346
 31
0.0
  0
LINE
  5
72
330
17
100
AcDbEntity
  8
FoilLayer
100
AcDbLine
 10
72.69434221704205
 20
64.83985449754346
 30
0.0
 11
67.34687317833834
 21
65.27748277751441
 31
0.0
  0
LINE
  5
73
330
17
100
AcDbEntity
  8
FoilLayer
100
AcDbLine
 10
67.34687317833834
 20
65.27748277751441
 30
0.0
 11
62.0029055402145
 21
65.68503631241495
 31
0.0
  0
LINE
  5
74
330
17
100
AcDbEntity
  8
FoilLayer
100
AcDbLine
 10
62.0029055402145
 20
65.68503631241495
 30
0.0
 11
56.66362496143989
 21
66.06358244448991
 31
0.0
  0
LINE
  5
75
330
17
100
AcDbEntity
  8
FoilLayer
100
AcDbLine
 10
56.66362496143989
 20
66.06358244448991
 30
0.0
 11
51.331882631883104
 21
66.41301496792164
 31
0.0
  0
LINE
  5
76
330
17
100
AcDbEntity
  8
FoilLayer
100
AcDbLine
 10
51.331882631883104
 20
66.41301496792164
 30
0.0
 11
46.00978982293566
 21
66.73025499389799
 31
0.0
  0
LINE
  5
77
330
17
100
AcDbEntity
  8
FoilLayer
100
AcDbLine
 10
46.00978982293566
 20
66.73025499389799
 30
0.0
 11
40.698840034638295
 21
67.01305061119284
 31
0.0
  0
LINE
  5
78
330
17
100
AcDbEntity
  8
FoilLayer
100
AcDbLine
 10
40.698840034638295
 20
67.01305061119284
 30
0.0
 11
35.39953798572907
 21
67.26102094280346
 31
0.0
  0
LINE
  5
79
330
17
100
AcDbEntity
  8
FoilLayer
100
AcDbLine
 10
35.39953798572907
 20
67.26102094280346
 30
0.0
 11
30.11227280234357
 21
67.47438818182631
 31
0.0
  0
LINE
  5
7A
330
17
100
AcDbEntity
  8
FoilLayer
100
AcDbLine
 10
30.11227280234357
 20
67.47438818182631
 30
0.0
 11
24.83686860623368
 21
67.65370411880174
 31
0.0
  0
LINE
  5
7B
330
17
100
AcDbEntity
  8
FoilLayer
100
AcDbLine
 10
24.83686860623368
 20
67.65370411880174
 30
0.0
 11
19.571615122996576
 21
67.79860255799169
 31
0.0
  0
LINE
  5
7C
330
17
100
AcDbEntity
  8
FoilLayer
100
AcDbLine
 10
19.571615122996576
 20
67.79860255799169
 30
0.0
 11
14.315618712039196
 21
67.90912936412329
 31
0.0
  0
LINE
  5
7D
330
17
100
AcDbEntity
  8
FoilLayer
100
AcDbLine
 10
14.315618712039196
 20
67.90912936412329
 30
0.0
 11
9.068480519224693
 21
67.98291579843982
 31
0.0
  0
LINE
  5
7E
330
17
100
AcDbEntity
  8
FoilLayer
100
AcDbLine
 10
9.068480519224693
 20
67.98291579843982
 30
0.0
 11
3.8284390747021178
 21
68.01841628322528
 31
0.0
  0
LINE
  5
7F
330
17
100
AcDbEntity
  8
FoilLayer
100
AcDbLine
 10
3.8284390747021178
 20
68.01841628322528
 30
0.0
 11
-1.4062046144285603
 21
68.01749953190908
 31
0.0
  0
LINE
  5
80
330
17
100
AcDbEntity
  8
FoilLayer
100
AcDbLine
 10
-1.4062046144285603
 20
68.01749953190908
 30
0.0
 11
-6.636889747235045
 21
67.98183139930168
 31
0.0
  0
LINE
  5
81
330
17
100
AcDbEntity
  8
FoilLayer
100
AcDbLine
 10
-6.636889747235045
 20
67.98183139930168
 30
0.0
 11
-11.861833069173287
 21
67.91216975658821
 31
0.0
  0
LINE
  5
82
330
17
100
AcDbEntity
  8
FoilLayer
100
AcDbLine
 10
-11.861833069173287
 20
67.91216975658821
 30
0.0
 11
-17.07846676847595
 21
67.80733195526304
 31
0.0
  0
LINE
  5
83
330
17
100
AcDbEntity
  8
FoilLayer
100
AcDbLine
 10
-17.07846676847595
 20
67.80733195526304
 30
0.0
 11
-22.284291129125393
 21
67.6662726601312
 31
0.0
  0
LINE
  5
84
330
17
100
AcDbEntity
  8
FoilLayer
100
AcDbLine
 10
-22.284291129125393
 20
67.6662726601312
 30
0.0
 11
-27.478025707459068
 21
67.48768526191098
 31
0.0
  0
LINE
  5
85
330
17
100
AcDbEntity
  8
FoilLayer
100
AcDbLine
 10
-27.478025707459068
 20
67.48768526191098
 30
0.0
 11
-32.659470874258886
 21
67.27111431493054
 31
0.0
  0
LINE
  5
86
330
17
100
AcDbEntity
  8
FoilLayer
100
AcDbLine
 10
-32.659470874258886
 20
67.27111431493054
 30
0.0
 11
-37.82805432987615
 21
67.01754675550148
 31
0.0
  0
LINE
  5
87
330
17
100
AcDbEntity
  8
FoilLayer
100
AcDbLine
 10
-37.82805432987615
 20
67.01754675550148
 30
0.0
 11
-42.981872941052956
 21
66.72782290008644
 31
0.0
  0
LINE
  5
88
330
17
100
AcDbEntity
  8
FoilLayer
100
AcDbLine
 10
-42.981872941052956
 20
66.72782290008644
 30
0.0
 11
-48.117665148581494
 21
66.40112915739824
 31
0.0
  0
LINE
  5
89
330
17
100
AcDbEntity
  8
FoilLayer
100
AcDbLine
 10
-48.117665148581494
 20
66.40112915739824
 30
0.0
 11
-53.228551958489305
 21
66.03894512288662
 31
0.0
  0
LINE
  5
8A
330
17
100
AcDbEntity
  8
FoilLayer
100
AcDbLine
 10
-53.228551958489305
 20
66.03894512288662
 30
0.0
 11
-58.30640782411032
 21
65.64211350962232
 31
0.0
  0
LINE
  5
8B
330
17
100
AcDbEntity
  8
FoilLayer
100
AcDbLine
 10
-58.30640782411032
 20
65.64211350962232
 30
0.0
 11
-63.351166425965374
 21
65.20274344706311
 31
0.0
  0
LINE
  5
8C
330
17
100
AcDbEntity
  8
FoilLayer
100
AcDbLine
 10
-63.351166425965374
 20
65.20274344706311
 30
0.0
 11
-68.36239030959877
 21
64.72388608035749
 31
0.0
  0
LINE
  5
8D
330
17
100
AcDbEntity
  8
FoilLayer
100
AcDbLine
 10
-68.36239030959877
 20
64.72388608035749
 30
0.0
 11
-73.34992490996888
 21
64.19637822882001
 31
0.0
  0
LINE
  5
8E
330
17
100
AcDbEntity
  8
FoilLayer
100
AcDbLine
 10
-73.34992490996888
 20
64.19637822882001
 30
0.0
 11
-78.32327877272638
 21
63.619633237804216
 31
0.0
  0
LINE
  5
8F
330
17
100
AcDbEntity
  8
FoilLayer
100
AcDbLine
 10
-78.32327877272638
 20
63.619633237804216
 30
0.0
 11
-83.27870089501806
 21
63.00419712152991
 31
0.0
  0
LINE
  5
90
330
17
100
AcDbEntity
  8
FoilLayer
100
AcDbLine
 10
-83.27870089501806
 20
63.00419712152991
 30
0.0
 11
-88.21008780973074
 21
62.350085331963406
 31
0.0
  0
LINE
  5
91
330
17
100
AcDbEntity
  8
FoilLayer
100
AcDbLine
 10
-88.21008780973074
 20
62.350085331963406
 30
0.0
 11
-93.11453250801239
 21
61.65275577422859
 31
0.0
  0
LINE
  5
92
330
17
100
AcDbEntity
  8
FoilLayer
100
AcDbLine
 10
-93.11453250801239
 20
61.65275577422859
 30
0.0
 11
-97.98999501169175
 21
60.909094545064974
 31
0.0
  0
LINE
  5
93
330
17
100
AcDbEntity
  8
FoilLayer
100
AcDbLine
 10
-97.98999501169175
 20
60.909094545064974
 30
0.0
 11
-102.83346168185747
 21
60.11861419991779
 31
0.0
  0
LINE
  5
94
330
17
100
AcDbEntity
  8
FoilLayer
100
AcDbLine
 10
-102.83346168185747
 20
60.11861419991779
 30
0.0
 11
-107.64134327404253
 21
59.286221541600256
 31
0.0
  0
LINE
  5
95
330
17
100
AcDbEntity
  8
FoilLayer
100
AcDbLine
 10
-107.64134327404253
 20
59.286221541600256
 30
0.0
 11
-112.40788710043469
 21
58.41911669050288
 31
0.0
  0
LINE
  5
96
330
17
100
AcDbEntity
  8
FoilLayer
100
AcDbLine
 10
-112.40788710043469
 20
58.41911669050288
 30
0.0
 11
-117.12589435142601
 21
57.51662008818206
 31
0.0
  0
LINE
  5
97
330
17
100
AcDbEntity
  8
FoilLayer
100
AcDbLine
 10
-117.12589435142601
 20
57.51662008818206
 30
0.0
 11
-121.7923117664918
 21
56.568142652524365
 31
0.0
  0
LINE
  5
98
330
17
100
AcDbEntity
  8
FoilLayer
100
AcDbLine
 10
-121.7923117664918
 20
56.568142652524365
 30
0.0
 11
-126.40247510205165
 21
55.573087395188516
 31
0.0
  0
LINE
  5
99
330
17
100
AcDbEntity
  8
FoilLayer
100
AcDbLine
 10
-126.40247510205165
 20
55.573087395188516
 30
0.0
 11
-130.95129220037455
 21
54.531726704960946
 31
0.0
  0
LINE
  5
9A
330
17
100
AcDbEntity
  8
FoilLayer
100
AcDbLine
 10
-130.95129220037455
 20
54.531726704960946
 30
0.0
 11
-135.4359440547463
 21
53.447223153871484
 31
0.0
  0
LINE
  5
9B
330
17
100
AcDbEntity
  8
FoilLayer
100
AcDbLine
 10
-135.4359440547463
 20
53.447223153871484
 30
0.0
 11
-139.8608302122716
 21
52.32316137183092
 31
0.0
  0
LINE
  5
9C
330
17
100
AcDbEntity
  8
FoilLayer
100
AcDbLine
 10
-139.8608302122716
 20
52.32316137183092
 30
0.0
 11
-144.22254680966992
 21
51.16961130605572
 31
0.0
  0
LINE
  5
9D
330
17
100
AcDbEntity
  8
FoilLayer
100
AcDbLine
 10
-144.22254680966992
 20
51.16961130605572
 30
0.0
 11
-148.49805859818267
 21
49.99606947379821
 31
0.0
  0
LINE
  5
9E
330
17
100
AcDbEntity
  8
FoilLayer
100
AcDbLine
 10
-148.49805859818267
 20
49.99606947379821
 30
0.0
 11
-152.6673702520661
 21
48.79564835851538
 31
0.0
  0
LINE
  5
9F
330
17
100
AcDbEntity
  8
FoilLayer
100
AcDbLine
 10
-152.6673702520661
 20
48.79564835851538
 30
0.0
 11
-156.72251105958756
 21
47.56467900116673
 31
0.0
  0
LINE
  5
A0
330
17
100
AcDbEntity
  8
FoilLayer
100
AcDbLine
 10
-156.72251105958756
 20
47.56467900116673
 30
0.0
 11
-160.66369081312718
 21
46.30049395886227
 31
0.0
  0
LINE
  5
A1
330
17
100
AcDbEntity
  8
FoilLayer
100
AcDbLine
 10
-160.66369081312718
 20
46.30049395886227
 30
0.0
 11
-164.49300868858236
 21
45.00511203518514
 31
0.0
  0
LINE
  5
A2
330
17
100
AcDbEntity
  8
FoilLayer
100
AcDbLine
 10
-164.49300868858236
 20
45.00511203518514
 30
0.0
 11
-168.21251077325272
 21
43.68173838840989
 31
0.0
  0
LINE
  5
A3
330
17
100
AcDbEntity
  8
FoilLayer
100
AcDbLine
 10
-168.21251077325272
 20
43.68173838840989
 30
0.0
 11
-171.82272937006388
 21
42.33403404735188
 31
0.0
  0
LINE
  5
A4
330
17
100
AcDbEntity
  8
FoilLayer
100
AcDbLine
 10
-171.82272937006388
 20
42.33403404735188
 30
0.0
 11
-175.32132745203955
 21
40.967047952330965
 31
0.0
  0
LINE
  5
A5
330
17
100
AcDbEntity
  8
FoilLayer
100
AcDbLine
 10
-175.32132745203955
 20
40.967047952330965
 30
0.0
 11
-178.7034478955531
 21
39.58526402389903
 31
0.0
  0
LINE
  5
A6
330
17
100
AcDbEntity
  8
FoilLayer
100
AcDbLine
 10
-178.7034478955531
 20
39.58526402389903
 30
0.0
 11
-181.96283156075677
 21
38.192858473528155
 31
0.0
  0
LINE
  5
A7
330
17
100
AcDbEntity
  8
FoilLayer
100
AcDbLine
 10
-181.96283156075677
 20
38.192858473528155
 30
0.0
 11
-185.09594322410769
 21
36.79057375308338
 31
0.0
  0
LINE
  5
A8
330
17
100
AcDbEntity
  8
FoilLayer
100
AcDbLine
 10
-185.09594322410769
 20
36.79057375308338
 30
0.0
 11
-188.1005139184387
 21
35.38111284618852
 31
0.0
  0
LINE
  5
A9
330
17
100
AcDbEntity
  8
FoilLayer
100
AcDbLine
 10
-188.1005139184387
 20
35.38111284618852
 30
0.0
 11
-190.9700575621313
 21
33.97418858957219
 31
0.0
  0
LINE
  5
AA
330
17
100
AcDbEntity
  8
FoilLayer
100
AcDbLine
 10
-190.9700575621313
 20
33.97418858957219
 30
0.0
 11
-193.6952420785654
 21
32.58111760037055
 31
0.0
  0
LINE
  5
AB
330
17
100
AcDbEntity
  8
FoilLayer
100
AcDbLine
 10
-193.6952420785654
 20
32.58111760037055
 30
0.0
 11
-196.26960839139844
 21
31.208298127377574
 31
0.0
  0
LINE
  5
AC
330
17
100
AcDbEntity
  8
FoilLayer
100
AcDbLine
 10
-196.26960839139844
 20
31.208298127377574
 30
0.0
 11
-198.69099638155836
 21
29.85868923823516
 31
0.0
  0
LINE
  5
AD
330
17
100
AcDbEntity
  8
FoilLayer
100
AcDbLine
 10
-198.69099638155836
 20
29.85868923823516
 30
0.0
 11
-200.9620930802697
 21
28.533580582150872
 31
0.0
  0
LINE
  5
AE
330
17
100
AcDbEntity
  8
FoilLayer
100
AcDbLine
 10
-200.9620930802697
 20
28.533580582150872
 30
0.0
 11
-203.08877542617634
 21
27.235217623579437
 31
0.0
  0
LINE
  5
AF
330
17
100
AcDbEntity
  8
FoilLayer
100
AcDbLine
 10
-203.08877542617634
 20
27.235217623579437
 30
0.0
 11
-205.07709708769616
 21
25.967749696382963
 31
0.0
  0
LINE
  5
B0
330
17
100
AcDbEntity
  8
FoilLayer
100
AcDbLine
 10
-205.07709708769616
 20
25.967749696382963
 30
0.0
 11
-206.93261061666277
 21
24.735428699796888
 31
0.0
  0
LINE
  5
B1
330
17
100
AcDbEntity
  8
FoilLayer
100
AcDbLine
 10
-206.93261061666277
 20
24.735428699796888
 30
0.0
 11
-208.66100149243846
 21
23.54063710095628
 31
0.0
  0
LINE
  5
B2
330
17
100
AcDbEntity
  8
FoilLayer
100
AcDbLine
 10
-208.66100149243846
 20
23.54063710095628
 30
0.0
 11
-210.26559656780026
 21
22.38656409420887
 31
0.0
  0
LINE
  5
B3
330
17
100
AcDbEntity
  8
FoilLayer
100
AcDbLine
 10
-210.26559656780026
 20
22.38656409420887
 30
0.0
 11
-211.75427349990744
 21
21.268620554688685
 31
0.0
  0
LINE
  5
B4
330
17
100
AcDbEntity
  8
FoilLayer
100
AcDbLine
 10
-211.75427349990744
 20
21.268620554688685
 30
0.0
 11
-213.13249384940656
 21
20.18693343711173
 31
0.0
  0
LINE
  5
B5
330
17
100
AcDbEntity
  8
FoilLayer
100
AcDbLine
 10
-213.13249384940656
 20
20.18693343711173
 30
0.0
 11
-214.4097868280017
 21
19.13540540071337
 31
0.0
  0
LINE
  5
B6
330
17
100
AcDbEntity
  8
FoilLayer
100
AcDbLine
 10
-214.4097868280017
 20
19.13540540071337
 30
0.0
 11
-215.5929769097478
 21
18.11463119595088
 31
0.0
  0
LINE
  5
B7
330
17
100
AcDbEntity
  8
FoilLayer
100
AcDbLine
 10
-215.5929769097478
 20
18.11463119595088
 30
0.0
 11
-216.6924139541245
 21
17.120444097481837
 31
0.0
  0
LINE
  5
B8
330
17
100
AcDbEntity
  8
FoilLayer
100
AcDbLine
 10
-216.6924139541245
 20
17.120444097481837
 30
0.0
 11
-217.71110688206053
 21
16.159046171451806
 31
0.0
  0
LINE
  5
B9
330
17
100
AcDbEntity
  8
FoilLayer
100
AcDbLine
 10
-217.71110688206053
 20
16.159046171451806
 30
0.0
 11
-218.659614037164
 21
15.220667687955675
 31
0.0
  0
LINE
  5
BA
330
17
100
AcDbEntity
  8
FoilLayer
100
AcDbLine
 10
-218.659614037164
 20
15.220667687955675
 30
0.0
 11
-219.53838589111734
 21
14.312856031842283
 31
0.0
  0
LINE
  5
BB
330
17
100
AcDbEntity
  8
FoilLayer
100
AcDbLine
 10
-219.53838589111734
 20
14.312856031842283
 30
0.0
 11
-220.35274647065248
 21
13.430467383515026
 31
0.0
  0
LINE
  5
BC
330
17
100
AcDbEntity
  8
FoilLayer
100
AcDbLine
 10
-220.35274647065248
 20
13.430467383515026
 30
0.0
 11
-221.107021058928
 21
12.571374533653037
 31
0.0
  0
LINE
  5
BD
330
17
100
AcDbEntity
  8
FoilLayer
100
AcDbLine
 10
-221.107021058928
 20
12.571374533653037
 30
0.0
 11
-221.80491373958205
 21
11.734661956357087
 31
0.0
  0
LINE
  5
BE
330
17
100
AcDbEntity
  8
FoilLayer
100
AcDbLine
 10
-221.80491373958205
 20
11.734661956357087
 30
0.0
 11
-222.45019598697465
 21
10.918537503072631
 31
0.0
  0
LINE
  5
BF
330
17
100
AcDbEntity
  8
FoilLayer
100
AcDbLine
 10
-222.45019598697465
 20
10.918537503072631
 30
0.0
 11
-223.04741580546886
 21
10.120030230765929
 31
0.0
  0
LINE
  5
C0
330
17
100
AcDbEntity
  8
FoilLayer
100
AcDbLine
 10
-223.04741580546886
 20
10.120030230765929
 30
0.0
 11
-223.5980709260577
 21
9.342607161838174
 31
0.0
  0
LINE
  5
C1
330
17
100
AcDbEntity
  8
FoilLayer
100
AcDbLine
 10
-223.5980709260577
 20
9.342607161838174
 30
0.0
 11
-224.1032331155244
 21
8.58685495174797
 31
0.0
  0
LINE
  5
C2
330
17
100
AcDbEntity
  8
FoilLayer
100
AcDbLine
 10
-224.1032331155244
 20
8.58685495174797
 30
0.0
 11
-224.5676173090964
 21
7.844352102039032
 31
0.0
  0
LINE
  5
C3
330
17
100
AcDbEntity
  8
FoilLayer
100
AcDbLine
 10
-224.5676173090964
 20
7.844352102039032
 30
0.0
 11
-224.998317186734
 21
7.10884874434201
 31
0.0
  0
LINE
  5
C4
330
17
100
AcDbEntity
  8
FoilLayer
100
AcDbLine
 10
-224.998317186734
 20
7.10884874434201
 30
0.0
 11
-225.39529589798695
 21
6.393795098385816
 31
0.0
  0
LINE
  5
C5
330
17
100
AcDbEntity
  8
FoilLayer
100
AcDbLine
 10
-225.39529589798695
 20
6.393795098385816
 30
0.0
 11
-225.74886014426372
 21
5.717911121433343
 31
0.0
  0
LINE
  5
C6
330
17
100
AcDbEntity
  8
FoilLayer
100
AcDbLine
 10
-225.74886014426372
 20
5.717911121433343
 30
0.0
 11
-226.05751965454408
 21
5.061175897986958
 31
0.0
  0
LINE
  5
C7
330
17
100
AcDbEntity
  8
FoilLayer
100
AcDbLine
 10
-226.05751965454408
 20
5.061175897986958
 30
0.0
 11
-226.32817547299354
 21
4.397604492060117
 31
0.0
  0
LINE
  5
C8
330
17
100
AcDbEntity
  8
FoilLayer
100
AcDbLine
 10
-226.32817547299354
 20
4.397604492060117
 30
0.0
 11
-226.56585150060585
 21
3.740135339562775
 31
0.0
  0
LINE
  5
C9
330
17
100
AcDbEntity
  8
FoilLayer
100
AcDbLine
 10
-226.56585150060585
 20
3.740135339562775
 30
0.0
 11
-226.76692998658893
 21
3.116836748455347
 31
0.0
  0
LINE
  5
CA
330
17
100
AcDbEntity
  8
FoilLayer
100
AcDbLine
 10
-226.76692998658893
 20
3.116836748455347
 30
0.0
 11
-226.92971401415772
 21
2.511643477884563
 31
0.0
  0
LINE
  5
CB
330
17
100
AcDbEntity
  8
FoilLayer
100
AcDbLine
 10
-226.92971401415772
 20
2.511643477884563
 30
0.0
 11
-227.06045820407167
 21
1.8881305345665083
 31
0.0
  0
LINE
  5
CC
330
17
100
AcDbEntity
  8
FoilLayer
100
AcDbLine
 10
-227.06045820407167
 20
1.8881305345665083
 30
0.0
 11
-227.15984883812843
 21
1.3052156391883192
 31
0.0
  0
LINE
  5
CD
330
17
100
AcDbEntity
  8
FoilLayer
100
AcDbLine
 10
-227.15984883812843
 20
1.3052156391883192
 30
0.0
 11
-227.22677853795102
 21
0.7628904421056166
 31
0.0
  0
LINE
  5
CE
330
17
100
AcDbEntity
  8
FoilLayer
100
AcDbLine
 10
-227.22677853795102
 20
0.7628904421056166
 30
0.0
 11
-227.24999999999977
 21
0.17685660982815893
 31
0.0
  0
LINE
  5
CF
330
17
100
AcDbEntity
  8
FoilLayer
100
AcDbLine
 10
-227.24999999999977
 20
0.17685660982815893
 30
0.0
 11
-227.2502618342597
 21
-0.3809388764396107
 31
0.0
  0
LINE
  5
D0
330
17
100
AcDbEntity
  8
FoilLayer
100
AcDbLine
 10
-227.2502618342597
 20
-0.3809388764396107
 30
0.0
 11
-227.22535992756715
 21
-0.9233015665246861
 31
0.0
  0
LINE
  5
D1
330
17
100
AcDbEntity
  8
FoilLayer
100
AcDbLine
 10
-227.22535992756715
 20
-0.9233015665246861
 30
0.0
 11
-227.1703066274506
 21
-1.4475776212595277
 31
0.0
  0
LINE
  5
D2
330
17
100
AcDbEntity
  8
FoilLayer
100
AcDbLine
 10
-227.1703066274506
 20
-1.4475776212595277
 30
0.0
 11
-227.07565861891337
 21
-1.9668766628251113
 31
0.0
  0
LINE
  5
D3
330
17
100
AcDbEntity
  8
FoilLayer
100
AcDbLine
 10
-227.07565861891337
 20
-1.9668766628251113
 30
0.0
 11
-226.93434513422588
 21
-2.4882131031501715
 31
0.0
  0
LINE
  5
D4
330
17
100
AcDbEntity
  8
FoilLayer
100
AcDbLine
 10
-226.93434513422588
 20
-2.4882131031501715
 30
0.0
 11
-226.74322761148142
 21
-3.0134452475658904
 31
0.0
  0
LINE
  5
D5
330
17
100
AcDbEntity
  8
FoilLayer
100
AcDbLine
 10
-226.74322761148142
 20
-3.0134452475658904
 30
0.0
 11
-226.507203183805
 21
-3.5324415100512514
 31
0.0
  0
LINE
  5
D6
330
17
100
AcDbEntity
  8
FoilLayer
100
AcDbLine
 10
-226.507203183805
 20
-3.5324415100512514
 30
0.0
 11
-226.21988259069434
 21
-4.048112163422696
 31
0.0
  0
LINE
  5
D7
330
17
100
AcDbEntity
  8
FoilLayer
100
AcDbLine
 10
-226.21988259069434
 20
-4.048112163422696
 30
0.0
 11
-225.88649870579204
 21
-4.5563253301084305
 31
0.0
  0
LINE
  5
D8
330
17
100
AcDbEntity
  8
FoilLayer
100
AcDbLine
 10
-225.88649870579204
 20
-4.5563253301084305
 30
0.0
 11
-225.502620307455
 21
-5.058788146717198
 31
0.0
  0
LINE
  5
D9
330
17
100
AcDbEntity
  8
FoilLayer
100
AcDbLine
 10
-225.502620307455
 20
-5.058788146717198
 30
0.0
 11
-225.06873895018776
 21
-5.555501297802347
 31
0.0
  0
LINE
  5
DA
330
17
100
AcDbEntity
  8
FoilLayer
100
AcDbLine
 10
-225.06873895018776
 20
-5.555501297802347
 30
0.0
 11
-224.58961434302162
 21
-6.043230763305351
 31
0.0
  0
LINE
  5
DB
330
17
100
AcDbEntity
  8
FoilLayer
100
AcDbLine
 10
-224.58961434302162
 20
-6.043230763305351
 30
0.0
 11
-224.06367181063646
 21
-6.521780105209998
 31
0.0
  0
LINE
  5
DC
330
17
100
AcDbEntity
  8
FoilLayer
100
AcDbLine
 10
-224.06367181063646
 20
-6.521780105209998
 30
0.0
 11
-223.49225574909835
 21
-6.98977367571662
 31
0.0
  0
LINE
  5
DD
330
17
100
AcDbEntity
  8
FoilLayer
100
AcDbLine
 10
-223.49225574909835
 20
-6.98977367571662
 30
0.0
 11
-222.876135064857
 21
-7.445786201361473
 31
0.0
  0
LINE
  5
DE
330
17
100
AcDbEntity
  8
FoilLayer
100
AcDbLine
 10
-222.876135064857
 20
-7.445786201361473
 30
0.0
 11
-222.21549069087425
 21
-7.888183160875634
 31
0.0
  0
LINE
  5
DF
330
17
100
AcDbEntity
  8
FoilLayer
100
AcDbLine
 10
-222.21549069087425
 20
-7.888183160875634
 30
0.0
 11
-221.5027885153169
 21
-8.318132372481601
 31
0.0
  0
LINE
  5
E0
330
17
100
AcDbEntity
  8
FoilLayer
100
AcDbLine
 10
-221.5027885153169
 20
-8.318132372481601
 30
0.0
 11
-220.7364338861734
 21
-8.737246204555769
 31
0.0
  0
LINE
  5
E1
330
17
100
AcDbEntity
  8
FoilLayer
100
AcDbLine
 10
-220.7364338861734
 20
-8.737246204555769
 30
0.0
 11
-219.9147033316697
 21
-9.147467596094408
 31
0.0
  0
LINE
  5
E2
330
17
100
AcDbEntity
  8
FoilLayer
100
AcDbLine
 10
-219.9147033316697
 20
-9.147467596094408
 30
0.0
 11
-219.03649018999852
 21
-9.551178105922538
 31
0.0
  0
LINE
  5
E3
330
17
100
AcDbEntity
  8
FoilLayer
100
AcDbLine
 10
-219.03649018999852
 20
-9.551178105922538
 30
0.0
 11
-218.10067836032107
 21
-9.950660924857363
 31
0.0
  0
LINE
  5
E4
330
17
100
AcDbEntity
  8
FoilLayer
100
AcDbLine
 10
-218.10067836032107
 20
-9.950660924857363
 30
0.0
 11
-217.1060312293463
 21
-10.347716667338887
 31
0.0
  0
LINE
  5
E5
330
17
100
AcDbEntity
  8
FoilLayer
100
AcDbLine
 10
-217.1060312293463
 20
-10.347716667338887
 30
0.0
 11
-216.05074053803116
 21
-10.743213975725505
 31
0.0
  0
LINE
  5
E6
330
17
100
AcDbEntity
  8
FoilLayer
100
AcDbLine
 10
-216.05074053803116
 20
-10.743213975725505
 30
0.0
 11
-214.93145951310456
 21
-11.13702215532971
 31
0.0
  0
LINE
  5
E7
330
17
100
AcDbEntity
  8
FoilLayer
100
AcDbLine
 10
-214.93145951310456
 20
-11.13702215532971
 30
0.0
 11
-213.74374760550012
 21
-11.528047869114786
 31
0.0
  0
LINE
  5
E8
330
17
100
AcDbEntity
  8
FoilLayer
100
AcDbLine
 10
-213.74374760550012
 20
-11.528047869114786
 30
0.0
 11
-212.48079048893052
 21
-11.914391975431663
 31
0.0
  0
LINE
  5
E9
330
17
100
AcDbEntity
  8
FoilLayer
100
AcDbLine
 10
-212.48079048893052
 20
-11.914391975431663
 30
0.0
 11
-211.13061961305525
 21
-12.294947177340857
 31
0.0
  0
LINE
  5
EA
330
17
100
AcDbEntity
  8
FoilLayer
100
AcDbLine
 10
-211.13061961305525
 20
-12.294947177340857
 30
0.0
 11
-209.68332359659945
 21
-12.671390664352923
 31
0.0
  0
LINE
  5
EB
330
17
100
AcDbEntity
  8
FoilLayer
100
AcDbLine
 10
-209.68332359659945
 20
-12.671390664352923
 30
0.0
 11
-208.13163060993176
 21
-13.046403891018235
 31
0.0
  0
LINE
  5
EC
330
17
100
AcDbEntity
  8
FoilLayer
100
AcDbLine
 10
-208.13163060993176
 20
-13.046403891018235
 30
0.0
 11
-206.46713050249303
 21
-13.421719887077556
 31
0.0
  0
LINE
  5
ED
330
17
100
AcDbEntity
  8
FoilLayer
100
AcDbLine
 10
-206.46713050249303
 20
-13.421719887077556
 30
0.0
 11
-204.68076323910526
 21
-13.797779426584839
 31
0.0
  0
LINE
  5
EE
330
17
100
AcDbEntity
  8
FoilLayer
100
AcDbLine
 10
-204.68076323910526
 20
-13.797779426584839
 30
0.0
 11
-202.76323218598264
 21
-14.172357025568274
 31
0.0
  0
LINE
  5
EF
330
17
100
AcDbEntity
  8
FoilLayer
100
AcDbLine
 10
-202.76323218598264
 20
-14.172357025568274
 30
0.0
 11
-200.70161623810694
 21
-14.540421528306837
 31
0.0
  0
LINE
  5
F0
330
17
100
AcDbEntity
  8
FoilLayer
100
AcDbLine
 10
-200.70161623810694
 20
-14.540421528306837
 30
0.0
 11
-198.48016195237605
 21
-14.897030837865426
 31
0.0
  0
LINE
  5
F1
330
17
100
AcDbEntity
  8
FoilLayer
100
AcDbLine
 10
-198.48016195237605
 20
-14.897030837865426
 30
0.0
 11
-196.08052598910263
 21
-15.238604000013762
 31
0.0
  0
LINE
  5
F2
330
17
100
AcDbEntity
  8
FoilLayer
100
AcDbLine
 10
-196.08052598910263
 20
-15.238604000013762
 30
0.0
 11
-193.48124966830065
 21
-15.564932483557573
 31
0.0
  0
LINE
  5
F3
330
17
100
AcDbEntity
  8
FoilLayer
100
AcDbLine
 10
-193.48124966830065
 20
-15.564932483557573
 30
0.0
 11
-190.6697721002061
 21
-15.88278932982277
 31
0.0
  0
LINE
  5
F4
330
17
100
AcDbEntity
  8
FoilLayer
100
AcDbLine
 10
-190.6697721002061
 20
-15.88278932982277
 30
0.0
 11
-187.64523165834908
 21
-16.19527620980433
 31
0.0
  0
LINE
  5
F5
330
17
100
AcDbEntity
  8
FoilLayer
100
AcDbLine
 10
-187.64523165834908
 20
-16.19527620980433
 30
0.0
 11
-184.40495166454178
 21
-16.493222683787437
 31
0.0
  0
LINE
  5
F6
330
17
100
AcDbEntity
  8
FoilLayer
100
AcDbLine
 10
-184.40495166454178
 20
-16.493222683787437
 30
0.0
 11
-180.94567099663865
 21
-16.76892514145387
 31
0.0
  0
LINE
  5
F7
330
17
100
AcDbEntity
  8
FoilLayer
100
AcDbLine
 10
-180.94567099663865
 20
-16.76892514145387
 30
0.0
 11
-177.26693164480082
 21
-17.019460449154487
 31
0.0
  0
LINE
  5
F8
330
17
100
AcDbEntity
  8
FoilLayer
100
AcDbLine
 10
-177.26693164480082
 20
-17.019460449154487
 30
0.0
 11
-173.36980485867412
 21
-17.24279309342764
 31
0.0
  0
LINE
  5
F9
330
17
100
AcDbEntity
  8
FoilLayer
100
AcDbLine
 10
-173.36980485867412
 20
-17.24279309342764
 30
0.0
 11
-169.26420314463707
 21
-17.440701972962767
 31
0.0
  0
LINE
  5
FA
330
17
100
AcDbEntity
  8
FoilLayer
100
AcDbLine
 10
-169.26420314463707
 20
-17.440701972962767
 30
0.0
 11
-164.9764768204005
 21
-17.61594502780218
 31
0.0
  0
LINE
  5
FB
330
17
100
AcDbEntity
  8
FoilLayer
100
AcDbLine
 10
-164.9764768204005
 20
-17.61594502780218
 30
0.0
 11
-160.53863852476417
 21
-17.768194570533762
 31
0.0
  0
LINE
  5
FC
330
17
100
AcDbEntity
  8
FoilLayer
100
AcDbLine
 10
-160.53863852476417
 20
-17.768194570533762
 30
0.0
 11
-155.98127214874157
 21
-17.900729425188228
 31
0.0
  0
LINE
  5
FD
330
17
100
AcDbEntity
  8
FoilLayer
100
AcDbLine
 10
-155.98127214874157
 20
-17.900729425188228
 30
0.0
 11
-151.31676383165455
 21
-18.00339346544431
 31
0.0
  0
LINE
  5
FE
330
17
100
AcDbEntity
  8
FoilLayer
100
AcDbLine
 10
-151.31676383165455
 20
-18.00339346544431
 30
0.0
 11
-146.53537652464712
 21
-18.0652469442475
 31
0.0
  0
LINE
  5
FF
330
17
100
AcDbEntity
  8
FoilLayer
100
AcDbLine
 10
-146.53537652464712
 20
-18.0652469442475
 30
0.0
 11
-141.62568132189358
 21
-18.088674637374865
 31
0.0
  0
LINE
  5
100
330
17
100
AcDbEntity
  8
FoilLayer
100
AcDbLine
 10
-141.62568132189358
 20
-18.088674637374865
 30
0.0
 11
-136.60068896102317
 21
-18.08317084796795
 31
0.0
  0
LINE
  5
101
330
17
100
AcDbEntity
  8
FoilLayer
100
AcDbLine
 10
-136.60068896102317
 20
-18.08317084796795
 30
0.0
 11
-131.48093536444856
 21
-18.050716424076107
 31
0.0
  0
LINE
  5
102
330
17
100
AcDbEntity
  8
FoilLayer
100
AcDbLine
 10
-131.48093536444856
 20
-18.050716424076107
 30
0.0
 11
-126.26812425409608
 21
-17.989607384975287
 31
0.0
  0
LINE
  5
103
330
17
100
AcDbEntity
  8
FoilLayer
100
AcDbLine
 10
-126.26812425409608
 20
-17.989607384975287
 30
0.0
 11
-120.97037172494508
 21
-17.916091740524728
 31
0.0
  0
LINE
  5
104
330
17
100
AcDbEntity
  8
FoilLayer
100
AcDbLine
 10
-120.97037172494508
 20
-17.916091740524728
 30
0.0
 11
-115.60552931943464
 21
-17.83269030817283
 31
0.0
  0
LINE
  5
105
330
17
100
AcDbEntity
  8
FoilLayer
100
AcDbLine
 10
-115.60552931943464
 20
-17.83269030817283
 30
0.0
 11
-110.19418551409478
 21
-17.732389357935403
 31
0.0
  0
LINE
  5
106
330
17
100
AcDbEntity
  8
FoilLayer
100
AcDbLine
 10
-110.19418551409478
 20
-17.732389357935403
 30
0.0
 11
-106.7832802923828
 21
-17.65669343978708
 31
0.0
  0
LINE
  5
107
330
17
100
AcDbEntity
  8
FoilLayer
100
AcDbLine
 10
-106.7832802923828
 20
-17.65669343978708
 30
0.0
 11
-106.74999999999989
 21
-19.156324201721134
 31
0.0
  0
LINE
  5
108
330
17
100
AcDbEntity
  8
FoilLayer
100
AcDbLine
 10
-106.74999999999989
 20
-19.156324201721134
 30
0.0
 11
-104.71510520904705
 21
-19.11116515462832
 31
0.0
  0
LINE
  5
109
330
17
100
AcDbEntity
  8
FoilLayer
100
AcDbLine
 10
-104.71510520904705
 20
-19.11116515462832
 30
0.0
 11
-99.24813681874423
 21
-18.966494239445165
 31
0.0
  0
LINE
  5
10A
330
17
100
AcDbEntity
  8
FoilLayer
100
AcDbLine
 10
-99.24813681874423
 20
-18.966494239445165
 30
0.0
 11
-93.75137408942581
 21
-18.796354166729234
 31
0.0
  0
LINE
  5
10B
330
17
100
AcDbEntity
  8
FoilLayer
100
AcDbLine
 10
-93.75137408942581
 20
-18.796354166729234
 30
0.0
 11
-88.21691700695891
 21
-18.609919933589342
 31
0.0
  0
LINE
  5
10C
330
17
100
AcDbEntity
  8
FoilLayer
100
AcDbLine
 10
-88.21691700695891
 20
-18.609919933589342
 30
0.0
 11
-82.64917005798745
 21
-18.417842833211655
 31
0.0
  0
LINE
  5
10D
330
17
100
AcDbEntity
  8
FoilLayer
100
AcDbLine
 10
-82.64917005798745
 20
-18.417842833211655
 30
0.0
 11
-77.058924844829
 21
-18.21374185031969
 31
0.0
  0
LINE
  5
10E
330
17
100
AcDbEntity
  8
FoilLayer
100
AcDbLine
 10
-77.058924844829
 20
-18.21374185031969
 30
0.0
 11
-71.45872988414095
 21
-17.9945972883916
 31
0.0
  0
LINE
  5
10F
330
17
100
AcDbEntity
  8
FoilLayer
100
AcDbLine
 10
-71.45872988414095
 20
-17.9945972883916
 30
0.0
 11
-65.85141576013777
 21
-17.755571532595415
 31
0.0
  0
LINE
  5
110
330
17
100
AcDbEntity
  8
FoilLayer
100
AcDbLine
 10
-65.85141576013777
 20
-17.755571532595415
 30
0.0
 11
-60.22586754946022
 21
-17.497927365112997
 31
0.0
  0
LINE
  5
111
330
17
100
AcDbEntity
  8
FoilLayer
100
AcDbLine
 10
-60.22586754946022
 20
-17.497927365112997
 30
0.0
 11
-54.57203179782951
 21
-17.228369122262556
 31
0.0
  0
LINE
  5
112
330
17
100
AcDbEntity
  8
FoilLayer
100
AcDbLine
 10
-54.57203179782951
 20
-17.228369122262556
 30
0.0
 11
-48.89056124772611
 21
-16.95355233718618
 31
0.0
  0
LINE
  5
113
330
17
100
AcDbEntity
  8
FoilLayer
100
AcDbLine
 10
-48.89056124772611
 20
-16.95355233718618
 30
0.0
 11
-43.19121653437222
 21
-16.67825362074572
 31
0.0
  0
LINE
  5
114
330
17
100
AcDbEntity
  8
FoilLayer
100
AcDbLine
 10
-43.19121653437222
 20
-16.67825362074572
 30
0.0
 11
-37.47432707920646
 21
-16.3982575986046
 31
0.0
  0
LINE
  5
115
330
17
100
AcDbEntity
  8
FoilLayer
100
AcDbLine
 10
-37.47432707920646
 20
-16.3982575986046
 30
0.0
 11
-31.74585907050846
 21
-16.107354066602742
 31
0.0
  0
LINE
  5
116
330
17
100
AcDbEntity
  8
FoilLayer
100
AcDbLine
 10
-31.74585907050846
 20
-16.107354066602742
 30
0.0
 11
-26.00100539543132
 21
-15.805677233474443
 31
0.0
  0
LINE
  5
117
330
17
100
AcDbEntity
  8
FoilLayer
100
AcDbLine
 10
-26.00100539543132
 20
-15.805677233474443
 30
0.0
 11
-20.240071073825646
 21
-15.496539614798222
 31
0.0
  0
LINE
  5
118
330
17
100
AcDbEntity
  8
FoilLayer
100
AcDbLine
 10
-20.240071073825646
 20
-15.496539614798222
 30
0.0
 11
-14.469894650744095
 21
-15.185547475429793
 31
0.0
  0
LINE
  5
119
330
17
100
AcDbEntity
  8
FoilLayer
100
AcDbLine
 10
-14.469894650744095
 20
-15.185547475429793
 30
0.0
 11
-8.693007790947206
 21
-14.8750128658374
 31
0.0
  0
LINE
  5
11A
330
17
100
AcDbEntity
  8
FoilLayer
100
AcDbLine
 10
-8.693007790947206
 20
-14.8750128658374
 30
0.0
 11
-2.910044935724642
 21
-14.564423352671882
 31
0.0
  0
LINE
  5
11B
330
17
100
AcDbEntity
  8
FoilLayer
100
AcDbLine
 10
-2.910044935724642
 20
-14.564423352671882
 30
0.0
 11
2.8773529081270794
 21
-14.25165599777243
 31
0.0
  0
LINE
  5
11C
330
17
100
AcDbEntity
  8
FoilLayer
100
AcDbLine
 10
2.8773529081270794
 20
-14.25165599777243
 30
0.0
 11
8.665305888106957
 21
-13.933953421688779
 31
0.0
  0
LINE
  5
11D
330
17
100
AcDbEntity
  8
FoilLayer
100
AcDbLine
 10
8.665305888106957
 20
-13.933953421688779
 30
0.0
 11
14.456107753492404
 21
-13.608863264821371
 31
0.0
  0
LINE
  5
11E
330
17
100
AcDbEntity
  8
FoilLayer
100
AcDbLine
 10
14.456107753492404
 20
-13.608863264821371
 30
0.0
 11
20.252723297231967
 21
-13.278770782402617
 31
0.0
  0
LINE
  5
11F
330
17
100
AcDbEntity
  8
FoilLayer
100
AcDbLine
 10
20.252723297231967
 20
-13.278770782402617
 30
0.0
 11
26.050327105287806
 21
-12.946964088422977
 31
0.0
  0
LINE
  5
120
330
17
100
AcDbEntity
  8
FoilLayer
100
AcDbLine
 10
26.050327105287806
 20
-12.946964088422977
 30
0.0
 11
31.848028519695845
 21
-12.614187431318129
 31
0.0
  0
LINE
  5
121
330
17
100
AcDbEntity
  8
FoilLayer
100
AcDbLine
 10
31.848028519695845
 20
-12.614187431318129
 30
0.0
 11
37.64478437256673
 21
-12.281435175801342
 31
0.0
  0
LINE
  5
122
330
17
100
AcDbEntity
  8
FoilLayer
100
AcDbLine
 10
37.64478437256673
 20
-12.281435175801342
 30
0.0
 11
43.43762377055481
 21
-11.947792262320535
 31
0.0
  0
LINE
  5
123
330
17
100
AcDbEntity
  8
FoilLayer
100
AcDbLine
 10
43.43762377055481
 20
-11.947792262320535
 30
0.0
 11
49.22596717594354
 21
-11.610910038025377
 31
0.0
  0
LINE
  5
124
330
17
100
AcDbEntity
  8
FoilLayer
100
AcDbLine
 10
49.22596717594354
 20
-11.610910038025377
 30
0.0
 11
55.01445699086071
 21
-11.268580159196864
 31
0.0
  0
LINE
  5
125
330
17
100
AcDbEntity
  8
FoilLayer
100
AcDbLine
 10
55.01445699086071
 20
-11.268580159196864
 30
0.0
 11
60.8039411704911
 21
-10.919619148814308
 31
0.0
  0
LINE
  5
126
330
17
100
AcDbEntity
  8
FoilLayer
100
AcDbLine
 10
60.8039411704911
 20
-10.919619148814308
 30
0.0
 11
66.59174774094276
 21
-10.566198748214637
 31
0.0
  0
LINE
  5
127
330
17
100
AcDbEntity
  8
FoilLayer
100
AcDbLine
 10
66.59174774094276
 20
-10.566198748214637
 30
0.0
 11
72.37675422916493
 21
-10.212900355555245
 31
0.0
  0
LINE
  5
128
330
17
100
AcDbEntity
  8
FoilLayer
100
AcDbLine
 10
72.37675422916493
 20
-10.212900355555245
 30
0.0
 11
78.16077245307099
 21
-9.863847839217483
 31
0.0
  0
LINE
  5
129
330
17
100
AcDbEntity
  8
FoilLayer
100
AcDbLine
 10
78.16077245307099
 20
-9.863847839217483
 30
0.0
 11
83.94605345915886
 21
-9.520657804410016
 31
0.0
  0
LINE
  5
12A
330
17
100
AcDbEntity
  8
FoilLayer
100
AcDbLine
 10
83.94605345915886
 20
-9.520657804410016
 30
0.0
 11
89.73263995020767
 21
-9.18038985977218
 31
0.0
  0
LINE
  5
12B
330
17
100
AcDbEntity
  8
FoilLayer
100
AcDbLine
 10
89.73263995020767
 20
-9.18038985977218
 30
0.0
 11
95.51712790468372
 21
-8.83750484481541
 31
0.0
  0
LINE
  5
12C
330
17
100
AcDbEntity
  8
FoilLayer
100
AcDbLine
 10
95.51712790468372
 20
-8.83750484481541
 30
0.0
 11
101.29792511896648
 21
-8.49027024678777
 31
0.0
  0
LINE
  5
12D
330
17
100
AcDbEntity
  8
FoilLayer
100
AcDbLine
 10
101.29792511896648
 20
-8.49027024678777
 30
0.0
 11
107.07690441493901
 21
-8.143566383300334
 31
0.0
  0
LINE
  5
12E
330
17
100
AcDbEntity
  8
FoilLayer
100
AcDbLine
 10
107.07690441493901
 20
-8.143566383300334
 30
0.0
 11
112.86023329398245
 21
-7.804091490274295
 31
0.0
  0
LINE
  5
12F
330
17
100
AcDbEntity
  8
FoilLayer
100
AcDbLine
 10
112.86023329398245
 20
-7.804091490274295
 30
0.0
 11
118.65515902774922
 21
-7.472913137187075
 31
0.0
  0
LINE
  5
130
330
17
100
AcDbEntity
  8
FoilLayer
100
AcDbLine
 10
118.65515902774922
 20
-7.472913137187075
 30
0.0
 11
124.4605042396156
 21
-7.146316182257248
 31
0.0
  0
LINE
  5
131
330
17
100
AcDbEntity
  8
FoilLayer
100
AcDbLine
 10
124.4605042396156
 20
-7.146316182257248
 30
0.0
 11
130.2692046698396
 21
-6.814784006143227
 31
0.0
  0
LINE
  5
132
330
17
100
AcDbEntity
  8
FoilLayer
100
AcDbLine
 10
130.2692046698396
 20
-6.814784006143227
 30
0.0
 11
136.0800768414005
 21
-6.468452266873636
 31
0.0
  0
LINE
  5
133
330
17
100
AcDbEntity
  8
FoilLayer
100
AcDbLine
 10
136.0800768414005
 20
-6.468452266873636
 30
0.0
 11
141.89237650586267
 21
-6.111762053474547
 31
0.0
  0
LINE
  5
134
330
17
100
AcDbEntity
  8
FoilLayer
100
AcDbLine
 10
141.89237650586267
 20
-6.111762053474547
 30
0.0
 11
147.7027972480446
 21
-5.758756479871818
 31
0.0
  0
LINE
  5
135
330
17
100
AcDbEntity
  8
FoilLayer
100
AcDbLine
 10
147.7027972480446
 20
-5.758756479871818
 30
0.0
 11
153.5139744394562
 21
-5.416792624864134
 31
0.0
  0
LINE
  5
136
330
17
100
AcDbEntity
  8
FoilLayer
100
AcDbLine
 10
153.5139744394562
 20
-5.416792624864134
 30
0.0
 11
159.32811642381648
 21
-5.082869093120688
 31
0.0
  0
LINE
  5
137
330
17
100
AcDbEntity
  8
FoilLayer
100
AcDbLine
 10
159.32811642381648
 20
-5.082869093120688
 30
0.0
 11
165.14256342802764
 21
-4.747694979989404
 31
0.0
  0
LINE
  5
138
330
17
100
AcDbEntity
  8
FoilLayer
100
AcDbLine
 10
165.14256342802764
 20
-4.747694979989404
 30
0.0
 11
170.95206911065742
 21
-4.399490418836563
 31
0.0
  0
LINE
  5
139
330
17
100
AcDbEntity
  8
FoilLayer
100
AcDbLine
 10
170.95206911065742
 20
-4.399490418836563
 30
0.0
 11
176.75471794704373
 21
-4.041744836754082
 31
0.0
  0
LINE
  5
13A
330
17
100
AcDbEntity
  8
FoilLayer
100
AcDbLine
 10
176.75471794704373
 20
-4.041744836754082
 30
0.0
 11
182.54772815614803
 21
-3.691087916001678
 31
0.0
  0
LINE
  5
13B
330
17
100
AcDbEntity
  8
FoilLayer
100
AcDbLine
 10
182.54772815614803
 20
-3.691087916001678
 30
0.0
 11
188.33615086669806
 21
-3.352668391659033
 31
0.0
  0
LINE
  5
13C
330
17
100
AcDbEntity
  8
FoilLayer
100
AcDbLine
 10
188.33615086669806
 20
-3.352668391659033
 30
0.0
 11
194.12749566741775
 21
-3.0262300470515644
 31
0.0
  0
LINE
  5
13D
330
17
100
AcDbEntity
  8
FoilLayer
100
AcDbLine
 10
194.12749566741775
 20
-3.0262300470515644
 30
0.0
 11
199.92383669329172
 21
-2.704415803380586
 31
0.0
  0
LINE
  5
13E
330
17
100
AcDbEntity
  8
FoilLayer
100
AcDbLine
 10
199.92383669329172
 20
-2.704415803380586
 30
0.0
 11
205.71460195629504
 21
-2.3769281904867383
 31
0.0
  0
LINE
  5
13F
330
17
100
AcDbEntity
  8
FoilLayer
100
AcDbLine
 10
205.71460195629504
 20
-2.3769281904867383
 30
0.0
 11
211.48638278379127
 21
-2.040405889615396
 31
0.0
  0
LINE
  5
140
330
17
100
AcDbEntity
  8
FoilLayer
100
AcDbLine
 10
211.48638278379127
 20
-2.040405889615396
 30
0.0
 11
217.23027869653725
 21
-1.7108929449129537
 31
0.0
  0
LINE
  5
141
330
17
100
AcDbEntity
  8
FoilLayer
100
AcDbLine
 10
217.23027869653725
 20
-1.7108929449129537
 30
0.0
 11
222.947595179494
 21
-1.3994615769595267
 31
0.0
  0
LINE
  5
142
330
17
100
AcDbEntity
  8
FoilLayer
100
AcDbLine
 10
222.947595179494
 20
-1.3994615769595267
 30
0.0
 11
228.65044762113087
 21
-1.1045073813404738
 31
0.0
  0
LINE
  5
143
330
17
100
AcDbEntity
  8
FoilLayer
100
AcDbLine
 10
228.65044762113087
 20
-1.1045073813404738
 30
0.0
 11
234.336652079317
 21
-0.8216075702207655
 31
0.0
  0
LINE
  5
144
330
17
100
AcDbEntity
  8
FoilLayer
100
AcDbLine
 10
234.336652079317
 20
-0.8216075702207655
 30
0.0
 11
239.98507067839944
 21
-0.5489930284663866
 31
0.0
  0
LINE
  5
145
330
17
100
AcDbEntity
  8
FoilLayer
100
AcDbLine
 10
239.98507067839944
 20
-0.5489930284663866
 30
0.0
 11
245.59357437982027
 21
-0.2866637560773382
 31
0.0
  0
LINE
  5
146
330
17
100
AcDbEntity
  8
FoilLayer
100
AcDbLine
 10
245.59357437982027
 20
-0.2866637560773382
 30
0.0
 11
251.1824714052387
 21
-0.04189752669112781
 31
0.0
  0
LINE
  5
147
330
17
100
AcDbEntity
  8
FoilLayer
100
AcDbLine
 10
251.1824714052387
 20
-0.04189752669112781
 30
0.0
 11
256.7652375316582
 21
0.17989460754097034
 31
0.0
  0
LINE
  5
148
330
17
100
AcDbEntity
  8
FoilLayer
100
AcDbLine
 10
256.7652375316582
 20
0.17989460754097034
 30
0.0
 11
262.33442417432485
 21
0.38813165960832086
 31
0.0
  0
LINE
  5
149
330
17
100
AcDbEntity
  8
FoilLayer
100
AcDbLine
 10
262.33442417432485
 20
0.38813165960832086
 30
0.0
 11
267.86985121991705
 21
0.595368246565402
 31
0.0
  0
LINE
  5
14A
330
17
100
AcDbEntity
  8
FoilLayer
100
AcDbLine
 10
267.86985121991705
 20
0.595368246565402
 30
0.0
 11
273.3331715728056
 21
0.7887142295219755
 31
0.0
  0
LINE
  5
14B
330
17
100
AcDbEntity
  8
FoilLayer
100
AcDbLine
 10
273.3331715728056
 20
0.7887142295219755
 30
0.0
 11
278.7241900202862
 21
0.946226480419266
 31
0.0
  0
LINE
  5
14C
330
17
100
AcDbEntity
  8
FoilLayer
100
AcDbLine
 10
278.7241900202862
 20
0.946226480419266
 30
0.0
 11
284.1055942420729
 21
1.0694606004958034
 31
0.0
  0
LINE
  5
14D
330
17
100
AcDbEntity
  8
FoilLayer
100
AcDbLine
 10
284.1055942420729
 20
1.0694606004958034
 30
0.0
 11
289.48716927497605
 21
1.1888270688655682
 31
0.0
  0
LINE
  5
14E
330
17
100
AcDbEntity
  8
FoilLayer
100
AcDbLine
 10
289.48716927497605
 20
1.1888270688655682
 30
0.0
 11
294.8285975951311
 21
1.3089499864650485
 31
0.0
  0
LINE
  5
14F
330
17
100
AcDbEntity
  8
FoilLayer
100
AcDbLine
 10
294.8285975951311
 20
1.3089499864650485
 30
0.0
 11
300.1190387970446
 21
1.3951973994466886
 31
0.0
  0
LINE
  5
150
330
17
100
AcDbEntity
  8
FoilLayer
100
AcDbLine
 10
300.1190387970446
 20
1.3951973994466886
 30
0.0
 11
305.3939178861757
 21
1.4354722205320478
 31
0.0
  0
LINE
  5
151
330
17
100
AcDbEntity
  8
FoilLayer
100
AcDbLine
 10
305.3939178861757
 20
1.4354722205320478
 30
0.0
 11
310.6557787280792
 21
1.4752590098563005
 31
0.0
  0
LINE
  5
152
330
17
100
AcDbEntity
  8
FoilLayer
100
AcDbLine
 10
310.6557787280792
 20
1.4752590098563005
 30
0.0
 11
315.8710691391793
 21
1.5343474553323355
 31
0.0
  0
LINE
  5
153
330
17
100
AcDbEntity
  8
FoilLayer
100
AcDbLine
 10
315.8710691391793
 20
1.5343474553323355
 30
0.0
 11
321.0268989805853
 21
1.5654655804999247
 31
0.0
  0
LINE
  5
154
330
17
100
AcDbEntity
  8
FoilLayer
100
AcDbLine
 10
321.0268989805853
 20
1.5654655804999247
 30
0.0
 11
326.15769889304363
 21
1.5314802687358386
 31
0.0
  0
LINE
  5
155
330
17
100
AcDbEntity
  8
FoilLayer
100
AcDbLine
 10
326.15769889304363
 20
1.5314802687358386
 30
0.0
 11
331.2965391287661
 21
1.4656386837654929
 31
0.0
  0
LINE
  5
156
330
17
100
AcDbEntity
  8
FoilLayer
100
AcDbLine
 10
331.2965391287661
 20
1.4656386837654929
 30
0.0
 11
336.3941467810722
 21
1.3960331538376096
 31
0.0
  0
LINE
  5
157
330
17
100
AcDbEntity
  8
FoilLayer
100
AcDbLine
 10
336.3941467810722
 20
1.3960331538376096
 30
0.0
 11
341.3728759967695
 21
1.3036670426510977
 31
0.0
  0
LINE
  5
158
330
17
100
AcDbEntity
  8
FoilLayer
100
AcDbLine
 10
341.3728759967695
 20
1.3036670426510977
 30
0.0
 11
346.2496248755865
 21
1.143983050416887
 31
0.0
  0
LINE
  5
159
330
17
100
AcDbEntity
  8
FoilLayer
100
AcDbLine
 10
346.2496248755865
 20
1.143983050416887
 30
0.0
 11
351.0638385846148
 21
0.9467328133714653
 31
0.0
  0
LINE
  5
15A
330
17
100
AcDbEntity
  8
FoilLayer
100
AcDbLine
 10
351.0638385846148
 20
0.9467328133714653
 30
0.0
 11
355.7608941689921
 21
0.7334446325766637
 31
0.0
  0
LINE
  5
15B
330
17
100
AcDbEntity
  8
FoilLayer
100
AcDbLine
 10
355.7608941689921
 20
0.7334446325766637
 30
0.0
 11
360.2836736114782
 21
0.5149589135260727
 31
0.0
  0
LINE
  5
15C
330
17
100
AcDbEntity
  8
FoilLayer
100
AcDbLine
 10
360.2836736114782
 20
0.5149589135260727
 30
0.0
 11
364.5816351228134
 21
0.2777449756429998
 31
0.0
  0
LINE
  5
15D
330
17
100
AcDbEntity
  8
FoilLayer
100
AcDbLine
 10
364.5816351228134
 20
0.2777449756429998
 30
0.0
 11
368.6398876338867
 21
0.0308009045228558
 31
0.0
  0
LINE
  5
15E
330
17
100
AcDbEntity
  8
FoilLayer
100
AcDbLine
 10
368.6398876338867
 20
0.0308009045228558
 30
0.0
 11
372.43726886745753
 21
-0.20008082125985402
 31
0.0
  0
LINE
  5
15F
330
17
100
AcDbEntity
  8
FoilLayer
100
AcDbLine
 10
372.43726886745753
 20
-0.20008082125985402
 30
0.0
 11
375.96273100453334
 21
-0.4330976859974073
 31
0.0
  0
LINE
  5
160
330
17
100
AcDbEntity
  8
FoilLayer
100
AcDbLine
 10
375.96273100453334
 20
-0.4330976859974073
 30
0.0
 11
379.20878885797856
 21
-0.6617893692521498
 31
0.0
  0
LINE
  5
161
330
17
100
AcDbEntity
  8
FoilLayer
100
AcDbLine
 10
379.20878885797856
 20
-0.6617893692521498
 30
0.0
 11
381.22035817090944
 21
-0.81906980506291
 31
0.0
  0
LINE
  5
162
330
17
100
AcDbEntity
  8
FoilLayer
100
AcDbLine
 10
381.22035817090944
 20
-0.81906980506291
 30
0.0
 11
381.24999999999966
 21
0.7429612519182708
 31
0.0
  0
LINE
  5
163
330
17
100
AcDbEntity
  8
StringerLayer
100
AcDbLine
 10
164.7680325152104
 20
48.24524384987538
 30
0.0
 11
168.69913488396884
 21
47.506031995031535
 31
0.0
  0
LINE
  5
164
330
17
100
AcDbEntity
  8
StringerLayer
100
AcDbLine
 10
168.69913488396884
 20
47.506031995031535
 30
0.0
 11
169.43834673881267
 21
51.43713436378999
 31
0.0
  0
LINE
  5
165
330
17
100
AcDbEntity
  8
StringerLayer
100
AcDbLine
 10
169.43834673881267
 20
51.43713436378999
 30
0.0
 11
165.50724437005422
 21
52.17634621863383
 31
0.0
  0
LINE
  5
166
330
17
100
AcDbEntity
  8
StringerLayer
100
AcDbLine
 10
165.50724437005422
 20
52.17634621863383
 30
0.0
 11
164.7680325152104
 21
48.24524384987538
 31
0.0
  0
LINE
  5
167
330
17
100
AcDbEntity
  8
StringerLayer
100
AcDbLine
 10
-65.51766461311881
 20
60.97745958047369
 30
0.0
 11
-61.53580854731212
 21
61.358014794862385
 31
0.0
  0
LINE
  5
168
330
17
100
AcDbEntity
  8
StringerLayer
100
AcDbLine
 10
-61.53580854731212
 20
61.358014794862385
 30
0.0
 11
-61.916363761700815
 21
65.33987086066908
 31
0.0
  0
LINE
  5
169
330
17
100
AcDbEntity
  8
StringerLayer
100
AcDbLine
 10
-61.916363761700815
 20
65.33987086066908
 30
0.0
 11
-65.8982198275075
 21
64.95931564628039
 31
0.0
  0
LINE
  5
16A
330
17
100
AcDbEntity
  8
StringerLayer
100
AcDbLine
 10
-65.8982198275075
 20
64.95931564628039
 30
0.0
 11
-65.51766461311881
 21
60.97745958047369
 31
0.0
  0
LINE
  5
16B
330
17
100
AcDbEntity
  8
StringerLayer
100
AcDbLine
 10
-167.79037598079196
 20
39.58605844811042
 30
0.0
 11
-164.0218608658124
 21
40.927063231163245
 31
0.0
  0
LINE
  5
16C
330
17
100
AcDbEntity
  8
StringerLayer
100
AcDbLine
 10
-164.0218608658124
 20
40.927063231163245
 30
0.0
 11
-165.36286564886524
 21
44.69557834614281
 31
0.0
  0
LINE
  5
16D
330
17
100
AcDbEntity
  8
StringerLayer
100
AcDbLine
 10
-165.36286564886524
 20
44.69557834614281
 30
0.0
 11
-169.1313807638448
 21
43.354573563089986
 31
0.0
  0
LINE
  5
16E
330
17
100
AcDbEntity
  8
StringerLayer
100
AcDbLine
 10
-169.1313807638448
 20
43.354573563089986
 30
0.0
 11
-167.79037598079196
 21
39.58605844811042
 31
0.0
  0
LINE
  5
16F
330
17
100
AcDbEntity
  8
StringerLayer
100
AcDbLine
 10
-216.4415167272482
 20
11.787538666964444
 30
0.0
 11
-215.02010440937056
 21
13.194516642124588
 31
0.0
  0
LINE
  5
170
330
17
100
AcDbEntity
  8
StringerLayer
100
AcDbLine
 10
-215.02010440937056
 20
13.194516642124588
 30
0.0
 11
-217.83406035969085
 21
16.037341277879854
 31
0.0
  0
LINE
  5
171
330
17
100
AcDbEntity
  8
StringerLayer
100
AcDbLine
 10
-217.83406035969085
 20
16.037341277879854
 30
0.0
 11
-219.2554726775685
 21
14.63036330271971
 31
0.0
  0
LINE
  5
172
330
17
100
AcDbEntity
  8
StringerLayer
100
AcDbLine
 10
-219.2554726775685
 20
14.63036330271971
 30
0.0
 11
-216.4415167272482
 21
11.787538666964444
 31
0.0
  0
LINE
  5
173
330
17
100
AcDbEntity
  8
StringerLayer
100
AcDbLine
 10
-218.95936908158598
 20
-5.178417140162566
 30
0.0
 11
-220.6735186398741
 21
-4.14803308951902
 31
0.0
  0
LINE
  5
174
330
17
100
AcDbEntity
  8
StringerLayer
100
AcDbLine
 10
-220.6735186398741
 20
-4.14803308951902
 30
0.0
 11
-222.73428674116118
 21
-7.576332206095283
 31
0.0
  0
LINE
  5
175
330
17
100
AcDbEntity
  8
StringerLayer
100
AcDbLine
 10
-222.73428674116118
 20
-7.576332206095283
 30
0.0
 11
-221.02013718287307
 21
-8.60671625673883
 31
0.0
  0
LINE
  5
176
330
17
100
AcDbEntity
  8
StringerLayer
100
AcDbLine
 10
-221.02013718287307
 20
-8.60671625673883
 30
0.0
 11
-218.95936908158598
 21
-5.178417140162566
 31
0.0
  0
LINE
  5
177
330
17
100
AcDbEntity
  8
StringerLayer
100
AcDbLine
 10
-135.25604783486042
 20
-14.081669526116666
 30
0.0
 11
-139.256045417558
 21
-14.086067072450735
 31
0.0
  0
LINE
  5
178
330
17
100
AcDbEntity
  8
StringerLayer
100
AcDbLine
 10
-139.256045417558
 20
-14.086067072450735
 30
0.0
 11
-139.25164787122392
 21
-18.086064655148284
 31
0.0
  0
LINE
  5
179
330
17
100
AcDbEntity
  8
StringerLayer
100
AcDbLine
 10
-139.25164787122392
 20
-18.086064655148284
 30
0.0
 11
-135.25165028852635
 21
-18.081667108814216
 31
0.0
  0
LINE
  5
17A
330
17
100
AcDbEntity
  8
StringerLayer
100
AcDbLine
 10
-135.25165028852635
 20
-18.081667108814216
 30
0.0
 11
-135.25604783486042
 21
-14.081669526116666
 31
0.0
  0
LINE
  5
17B
330
17
100
AcDbEntity
  8
SubLayer
100
AcDbLine
 10
-228.74999999999977
 20
0.0
 30
0.0
 11
-224.74999999999977
 21
0.0
 31
0.0
  0
LINE
  5
17C
330
17
100
AcDbEntity
  8
SubLayer
100
AcDbLine
 10
43.75
 20
0.0
 30
0.0
 11
53.849999999999966
 21
0.0
 31
0.0
  0
LINE
  5
17D
330
17
100
AcDbEntity
  8
SubLayer
100
AcDbLine
 10
-32.54230625355829
 20
25.051288664024547
 30
0.0
 11
-24.565884235742924
 21
25.665040889039098
 31
0.0
  0
LINE
  5
17E
330
17
100
AcDbEntity
  8
SubLayer
100
AcDbLine
 10
24.565884235742924
 20
29.44552443804433
 30
0.0
 11
32.54230625355829
 21
30.05927666305888
 31
0.0
  0
LINE
  5
17F
330
17
100
AcDbEntity
  8
SubLayer
100
AcDbLine
 10
-2.3189477036752795
 20
57.69269767872866
 30
0.0
 11
-1.7051954786607304
 21
49.7162756609133
 31
0.0
  0
LINE
  5
180
330
17
100
AcDbEntity
  8
SubLayer
100
AcDbLine
 10
2.3189477036752795
 20
-2.5821323516452352
 30
0.0
 11
1.7051954786607304
 21
5.394289666170128
 31
0.0
  0
LINE
  5
181
330
17
100
AcDbEntity
  8
SubLayer
100
AcDbLine
 10
-30.394762692850808
 20
23.210621215824343
 30
0.0
 11
-26.406551683943125
 21
23.51749732833162
 31
0.0
  0
LINE
  5
182
330
17
100
AcDbEntity
  8
SubLayer
100
AcDbLine
 10
-26.406551683943125
 20
23.51749732833162
 30
0.0
 11
-26.7134277964504
 21
27.5057083372393
 31
0.0
  0
LINE
  5
183
330
17
100
AcDbEntity
  8
SubLayer
100
AcDbLine
 10
-26.7134277964504
 20
27.5057083372393
 30
0.0
 11
-30.701638805358083
 21
27.198832224732026
 31
0.0
  0
LINE
  5
184
330
17
100
AcDbEntity
  8
SubLayer
100
AcDbLine
 10
-30.701638805358083
 20
27.198832224732026
 30
0.0
 11
-30.394762692850808
 21
23.210621215824343
 31
0.0
  0
LINE
  5
185
330
17
100
AcDbEntity
  8
SubLayer
100
AcDbLine
 10
26.7134277964504
 20
27.604856989844127
 30
0.0
 11
30.701638805358083
 21
27.911733102351402
 31
0.0
  0
LINE
  5
186
330
17
100
AcDbEntity
  8
SubLayer
100
AcDbLine
 10
30.701638805358083
 20
27.911733102351402
 30
0.0
 11
30.394762692850808
 21
31.899944111259085
 31
0.0
  0
LINE
  5
187
330
17
100
AcDbEntity
  8
SubLayer
100
AcDbLine
 10
30.394762692850808
 20
31.899944111259085
 30
0.0
 11
26.406551683943125
 21
31.59306799875181
 31
0.0
  0
LINE
  5
188
330
17
100
AcDbEntity
  8
SubLayer
100
AcDbLine
 10
26.406551683943125
 20
31.59306799875181
 30
0.0
 11
26.7134277964504
 21
27.604856989844127
 31
0.0
  0
LINE
  5
189
330
17
100
AcDbEntity
  8
SubLayer
100
AcDbLine
 10
-3.852739039368208
 20
51.556943109113504
 30
0.0
 11
0.13547196953947305
 21
51.86381922162078
 31
0.0
  0
LINE
  5
18A
330
17
100
AcDbEntity
  8
SubLayer
100
AcDbLine
 10
0.13547196953947305
 20
51.86381922162078
 30
0.0
 11
-0.1714041429678017
 21
55.852030230528456
 31
0.0
  0
LINE
  5
18B
330
17
100
AcDbEntity
  8
SubLayer
100
AcDbLine
 10
-0.1714041429678017
 20
55.852030230528456
 30
0.0
 11
-4.159615151875483
 21
55.54515411802118
 31
0.0
  0
LINE
  5
18C
330
17
100
AcDbEntity
  8
SubLayer
100
AcDbLine
 10
-4.159615151875483
 20
55.54515411802118
 30
0.0
 11
-3.852739039368208
 21
51.556943109113504
 31
0.0
  0
LINE
  5
18D
330
17
100
AcDbEntity
  8
SubLayer
100
AcDbLine
 10
0.1714041429678017
 20
-0.7414649034450318
 30
0.0
 11
4.159615151875483
 21
-0.43458879093775704
 31
0.0
  0
LINE
  5
18E
330
17
100
AcDbEntity
  8
SubLayer
100
AcDbLine
 10
4.159615151875483
 20
-0.43458879093775704
 30
0.0
 11
3.852739039368208
 21
3.553622217969924
 31
0.0
  0
LINE
  5
18F
330
17
100
AcDbEntity
  8
SubLayer
100
AcDbLine
 10
3.852739039368208
 20
3.553622217969924
 30
0.0
 11
-0.13547196953947305
 21
3.246746105462649
 31
0.0
  0
LINE
  5
190
330
17
100
AcDbEntity
  8
SubLayer
100
AcDbLine
 10
-0.13547196953947305
 20
3.246746105462649
 30
0.0
 11
0.1714041429678017
 21
-0.7414649034450318
 31
0.0
  0
LINE
  5
191
330
17
100
AcDbEntity
  8
SubLayer
100
AcDbLine
 10
263.45626970252334
 20
31.04216222739899
 30
0.0
 11
267.444480711431
 21
31.349038339906265
 31
0.0
  0
LINE
  5
192
330
17
100
AcDbEntity
  8
SubLayer
100
AcDbLine
 10
-226.10978931751134
 20
-6.6278930109076875
 30
0.0
 11
-222.12157830860366
 21
-6.321016898400412
 31
0.0
  0
LINE
  5
193
330
17
100
AcDbEntity
  8
SubLayer
100
AcDbLine
 10
-129.19363026573134
 20
0.8293990086268299
 30
0.0
 11
-123.21131375236982
 21
1.2897131773877422
 31
0.0
  0
LINE
  5
194
330
17
100
AcDbEntity
  8
SubLayer
100
AcDbLine
 10
164.54600514628947
 20
23.43143215161084
 30
0.0
 11
170.528321659651
 21
23.891746320371748
 31
0.0
  0
LINE
  5
195
330
17
100
AcDbEntity
  8
SubLayer
100
AcDbLine
 10
17.67618744027908
 20
12.130415580118832
 30
0.0
 11
23.658503953640604
 21
12.590729748879745
 31
0.0
  0
LINE
  5
196
330
17
100
AcDbEntity
  8
SubLayer
100
AcDbLine
 10
-124.0549284483431
 20
-0.781111355192917
 30
0.0
 11
-124.36180456085037
 21
3.207099653714764
 31
0.0
  0
LINE
  5
197
330
17
100
AcDbEntity
  8
SubLayer
100
AcDbLine
 10
-124.36180456085037
 20
3.207099653714764
 30
0.0
 11
-128.35001556975806
 21
2.900223541207489
 31
0.0
  0
LINE
  5
198
330
17
100
AcDbEntity
  8
SubLayer
100
AcDbLine
 10
-128.35001556975806
 20
2.900223541207489
 30
0.0
 11
-128.0431394572508
 21
-1.087987467700192
 31
0.0
  0
LINE
  5
199
330
17
100
AcDbEntity
  8
SubLayer
100
AcDbLine
 10
-128.0431394572508
 20
-1.087987467700192
 30
0.0
 11
-124.0549284483431
 21
-0.781111355192917
 31
0.0
  0
LINE
  5
19A
330
17
100
AcDbEntity
  8
SubLayer
100
AcDbLine
 10
169.6847069636777
 20
21.82092178779109
 30
0.0
 11
169.37783085117044
 21
25.809132796698773
 31
0.0
  0
LINE
  5
19B
330
17
100
AcDbEntity
  8
SubLayer
100
AcDbLine
 10
169.37783085117044
 20
25.809132796698773
 30
0.0
 11
165.38961984226276
 21
25.502256684191497
 31
0.0
  0
LINE
  5
19C
330
17
100
AcDbEntity
  8
SubLayer
100
AcDbLine
 10
165.38961984226276
 20
25.502256684191497
 30
0.0
 11
165.69649595477003
 21
21.514045675283814
 31
0.0
  0
LINE
  5
19D
330
17
100
AcDbEntity
  8
SubLayer
100
AcDbLine
 10
165.69649595477003
 20
21.514045675283814
 30
0.0
 11
169.6847069636777
 21
21.82092178779109
 31
0.0
  0
LINE
  5
19E
330
17
100
AcDbEntity
  8
SubLayer
100
AcDbLine
 10
22.81488925766732
 20
10.519905216299087
 30
0.0
 11
22.508013145160046
 21
14.508116225206766
 31
0.0
  0
LINE
  5
19F
330
17
100
AcDbEntity
  8
SubLayer
100
AcDbLine
 10
22.508013145160046
 20
14.508116225206766
 30
0.0
 11
18.519802136252363
 21
14.201240112699491
 31
0.0
  0
LINE
  5
1A0
330
17
100
AcDbEntity
  8
SubLayer
100
AcDbLine
 10
18.519802136252363
 20
14.201240112699491
 30
0.0
 11
18.826678248759638
 21
10.213029103791811
 31
0.0
  0
LINE
  5
1A1
330
17
100
AcDbEntity
  8
SubLayer
100
AcDbLine
 10
18.826678248759638
 20
10.213029103791811
 30
0.0
 11
22.81488925766732
 21
10.519905216299087
 31
0.0
  0
LINE
  5
1A2
330
17
100
AcDbEntity
  8
SubLayer
100
AcDbLine
 10
362.020159945179
 20
5.518709097716241
 30
0.0
 11
362.31994820532486
 21
6.472714862415137
 31
0.0
  0
LINE
  5
1A3
330
17
100
AcDbEntity
  8
SubLayer
100
AcDbLine
 10
361.24388339525325
 20
-0.03854068453055698
 30
0.0
 11
361.2669498193338
 21
0.961193250114124
 31
0.0
  0
LINE
  5
1A4
330
17
100
AcDbEntity
  8
SubLayer
100
AcDbLine
 10
342.7139317590847
 20
10.73401913368469
 30
0.0
 11
342.9942811622522
 21
11.693917155426398
 31
0.0
  0
LINE
  5
1A5
330
17
100
AcDbEntity
  8
SubLayer
100
AcDbLine
 10
341.25499318726855
 20
0.8058176555082454
 30
0.0
 11
341.28763196971596
 21
1.8052848685174312
 31
0.0
  0
LINE
  5
1A6
330
17
100
AcDbEntity
  8
SubLayer
100
AcDbLine
 10
304.0124273713581
 20
20.847189939120877
 30
0.0
 11
304.2790410599426
 21
21.810993415489055
 31
0.0
  0
LINE
  5
1A7
330
17
100
AcDbEntity
  8
SubLayer
100
AcDbLine
 10
301.2535646858823
 20
0.9040037393982203
 30
0.0
 11
301.2711137744125
 21
1.9038497422865435
 31
0.0
  0
LINE
  5
1A8
330
17
100
AcDbEntity
  8
SubLayer
100
AcDbLine
 10
-152.3614630435636
 20
52.48281508410389
 30
0.0
 11
-152.05458693105632
 21
48.49460407519621
 31
0.0
  0
LINE
  5
1A9
330
17
100
AcDbEntity
  8
SubLayer
100
AcDbLine
 10
-146.97138009869096
 20
-17.567564412791512
 30
0.0
 11
-146.6645039861837
 21
-21.555775421699195
 31
0.0
  0
LINE
  5
1AA
330
17
100
AcDbEntity
  8
SubLayer
100
AcDbLine
 10
-148.12611571579234
 20
-2.560435761185513
 30
0.0
 11
-147.6658015470314
 21
-8.542752274547034
 31
0.0
  0
LINE
  5
1AB
330
17
100
AcDbEntity
  8
SubLayer
100
AcDbLine
 10
-151.3601654827159
 20
39.46979193695173
 30
0.0
 11
-150.89985131395497
 21
33.487475423590205
 31
0.0
  0
LINE
  5
1AC
330
17
100
AcDbEntity
  8
SubLayer
100
AcDbLine
 10
-149.7431405992541
 20
18.45467808788311
 30
0.0
 11
-149.28282643049317
 21
12.472361574521587
 31
0.0
  0
LINE
  5
1AD
330
17
100
AcDbEntity
  8
SubLayer
100
AcDbLine
 10
-149.73662607961208
 20
-7.699137578573751
 30
0.0
 11
-145.7484150707044
 21
-7.3922614660664765
 31
0.0
  0
LINE
  5
1AE
330
17
100
AcDbEntity
  8
SubLayer
100
AcDbLine
 10
-145.7484150707044
 20
-7.3922614660664765
 30
0.0
 11
-146.05529118321166
 21
-3.4040504571587955
 31
0.0
  0
LINE
  5
1AF
330
17
100
AcDbEntity
  8
SubLayer
100
AcDbLine
 10
-146.05529118321166
 20
-3.4040504571587955
 30
0.0
 11
-150.04350219211935
 21
-3.7109265696660705
 31
0.0
  0
LINE
  5
1B0
330
17
100
AcDbEntity
  8
SubLayer
100
AcDbLine
 10
-150.04350219211935
 20
-3.7109265696660705
 30
0.0
 11
-149.73662607961208
 21
-7.699137578573751
 31
0.0
  0
LINE
  5
1B1
330
17
100
AcDbEntity
  8
SubLayer
100
AcDbLine
 10
-152.97067584653564
 20
34.33109011956349
 30
0.0
 11
-148.98246483762796
 21
34.63796623207077
 31
0.0
  0
LINE
  5
1B2
330
17
100
AcDbEntity
  8
SubLayer
100
AcDbLine
 10
-148.98246483762796
 20
34.63796623207077
 30
0.0
 11
-149.28934095013523
 21
38.62617724097844
 31
0.0
  0
LINE
  5
1B3
330
17
100
AcDbEntity
  8
SubLayer
100
AcDbLine
 10
-149.28934095013523
 20
38.62617724097844
 30
0.0
 11
-153.2775519590429
 21
38.31930112847117
 31
0.0
  0
LINE
  5
1B4
330
17
100
AcDbEntity
  8
SubLayer
100
AcDbLine
 10
-153.2775519590429
 20
38.31930112847117
 30
0.0
 11
-152.97067584653564
 21
34.33109011956349
 31
0.0
  0
LINE
  5
1B5
330
17
100
AcDbEntity
  8
SubLayer
100
AcDbLine
 10
-151.35365096307385
 20
13.31597627049487
 30
0.0
 11
-147.36543995416616
 21
13.622852383002144
 31
0.0
  0
LINE
  5
1B6
330
17
100
AcDbEntity
  8
SubLayer
100
AcDbLine
 10
-147.36543995416616
 20
13.622852383002144
 30
0.0
 11
-147.67231606667343
 21
17.611063391909827
 31
0.0
  0
LINE
  5
1B7
330
17
100
AcDbEntity
  8
SubLayer
100
AcDbLine
 10
-147.67231606667343
 20
17.611063391909827
 30
0.0
 11
-151.66052707558111
 21
17.30418727940255
 31
0.0
  0
LINE
  5
1B8
330
17
100
AcDbEntity
  8
SubLayer
100
AcDbLine
 10
-151.66052707558111
 20
17.30418727940255
 30
0.0
 11
-151.35365096307385
 21
13.31597627049487
 31
0.0
  0
LINE
  5
1B9
330
17
100
AcDbEntity
  8
SubLayer
100
AcDbLine
 10
97.34507183594364
 20
65.90076594289474
 30
0.0
 11
97.65194794845091
 21
61.91255493398705
 31
0.0
  0
LINE
  5
1BA
330
17
100
AcDbEntity
  8
SubLayer
100
AcDbLine
 10
102.90757314875648
 20
-6.390390222926613
 30
0.0
 11
103.21444926126375
 21
-10.378601231834294
 31
0.0
  0
LINE
  5
1BB
330
17
100
AcDbEntity
  8
SubLayer
100
AcDbLine
 10
101.7183538580671
 20
9.064893762464576
 30
0.0
 11
102.178668026828
 21
3.082577249103055
 31
0.0
  0
LINE
  5
1BC
330
17
100
AcDbEntity
  8
SubLayer
100
AcDbLine
 10
98.3808530703794
 20
52.43958746195739
 30
0.0
 11
98.8411672391403
 21
46.45727094859586
 31
0.0
  0
LINE
  5
1BD
330
17
100
AcDbEntity
  8
SubLayer
100
AcDbLine
 10
100.04960346422324
 20
30.752240612210983
 30
0.0
 11
100.50991763298414
 21
24.769924098849458
 31
0.0
  0
LINE
  5
1BE
330
17
100
AcDbEntity
  8
SubLayer
100
AcDbLine
 10
100.10784349424735
 20
3.926191945076338
 30
0.0
 11
104.09605450315503
 21
4.233068057583613
 31
0.0
  0
LINE
  5
1BF
330
17
100
AcDbEntity
  8
SubLayer
100
AcDbLine
 10
104.09605450315503
 20
4.233068057583613
 30
0.0
 11
103.78917839064776
 21
8.221279066491293
 31
0.0
  0
LINE
  5
1C0
330
17
100
AcDbEntity
  8
SubLayer
100
AcDbLine
 10
103.78917839064776
 20
8.221279066491293
 30
0.0
 11
99.80096738174008
 21
7.914402953984019
 31
0.0
  0
LINE
  5
1C1
330
17
100
AcDbEntity
  8
SubLayer
100
AcDbLine
 10
99.80096738174008
 20
7.914402953984019
 30
0.0
 11
100.10784349424735
 21
3.926191945076338
 31
0.0
  0
LINE
  5
1C2
330
17
100
AcDbEntity
  8
SubLayer
100
AcDbLine
 10
96.77034270655965
 20
47.30088564456915
 30
0.0
 11
100.75855371546733
 21
47.607761757076425
 31
0.0
  0
LINE
  5
1C3
330
17
100
AcDbEntity
  8
SubLayer
100
AcDbLine
 10
100.75855371546733
 20
47.607761757076425
 30
0.0
 11
100.45167760296006
 21
51.5959727659841
 31
0.0
  0
LINE
  5
1C4
330
17
100
AcDbEntity
  8
SubLayer
100
AcDbLine
 10
100.45167760296006
 20
51.5959727659841
 30
0.0
 11
96.46346659405238
 21
51.289096653476825
 31
0.0
  0
LINE
  5
1C5
330
17
100
AcDbEntity
  8
SubLayer
100
AcDbLine
 10
96.46346659405238
 20
51.289096653476825
 30
0.0
 11
96.77034270655965
 21
47.30088564456915
 31
0.0
  0
LINE
  5
1C6
330
17
100
AcDbEntity
  8
SubLayer
100
AcDbLine
 10
98.43909310040348
 20
25.61353879482274
 30
0.0
 11
102.42730410931117
 21
25.920414907330017
 31
0.0
  0
LINE
  5
1C7
330
17
100
AcDbEntity
  8
SubLayer
100
AcDbLine
 10
102.42730410931117
 20
25.920414907330017
 30
0.0
 11
102.1204279968039
 21
29.9086259162377
 31
0.0
  0
LINE
  5
1C8
330
17
100
AcDbEntity
  8
SubLayer
100
AcDbLine
 10
102.1204279968039
 20
29.9086259162377
 30
0.0
 11
98.13221698789621
 21
29.601749803730424
 31
0.0
  0
LINE
  5
1C9
330
17
100
AcDbEntity
  8
SubLayer
100
AcDbLine
 10
98.13221698789621
 20
29.601749803730424
 30
0.0
 11
98.43909310040348
 21
25.61353879482274
 31
0.0
  0
ENDSEC
  0
SECTION
  2
OBJECTS
  0
DICTIONARY
  5
A
330
0
100
AcDbDictionary
280
0
281
1
  3
ACAD_COLOR
350
B
  3
ACAD_GROUP
350
C
  3
ACAD_LAYOUT
350
D
  3
ACAD_MATERIAL
350
E
  3
ACAD_MLEADERSTYLE
350
F
  3
ACAD_MLINESTYLE
350
10
  3
ACAD_PLOTSETTINGS
350
11
  3
ACAD_PLOTSTYLENAME
350
12
  3
ACAD_SCALELIST
350
14
  3
ACAD_TABLESTYLE
350
15
  3
ACAD_VISUALSTYLE
350
16
  3
EZDXF_META
350
2D
  0
DICTIONARY
  5
B
330
A
100
AcDbDictionary
280
0
281
1
  0
DICTIONARY
  5
C
330
A
100
AcDbDictionary
280
0
281
1
  0
DICTIONARY
  5
D
330
A
100
AcDbDictionary
280
0
281
1
  3
Model
350
1A
  3
Layout1
350
1E
  0
DICTIONARY
  5
E
330
A
100
AcDbDictionary
280
0
281
1
  3
ByBlock
350
1F
  3
ByLayer
350
20
  3
Global
350
21
  0
DICTIONARY
  5
F
330
A
100
AcDbDictionary
280
0
281
1
  3
Standard
350
2C
  0
DICTIONARY
  5
10
330
A
100
AcDbDictionary
280
0
281
1
  3
Standard
350
22
  0
DICTIONARY
  5
11
330
A
100
AcDbDictionary
280
0
281
1
  0
ACDBDICTIONARYWDFLT
  5
12
330
A
100
AcDbDictionary
280
0
281
1
  3
Normal
350
13
100
AcDbDictionaryWithDefault
340
13
  0
ACDBPLACEHOLDER
  5
13
330
12
  0
DICTIONARY
  5
14
330
A
100
AcDbDictionary
280
0
281
1
  0
DICTIONARY
  5
15
330
A
100
AcDbDictionary
280
0
281
1
  0
DICTIONARY
  5
16
330
A
100
AcDbDictionary
280
0
281
1
  0
LAYOUT
  5
1A
330
D
100
AcDbPlotSettings
  1

  2
Adobe PDF
  4
A3
  6

 40
7.5
 41
20.0
 42
7.5
 43
20.0
 44
420.0
 45
297.0
 46
0.0
 47
0.0
 48
0.0
 49
0.0
140
0.0
141
0.0
142
1.0
143
1.0
 70
1024
 72
1
 73
0
 74
5
  7

 75
16
 76
0
 77
2
 78
300
147
1.0
148
0.0
149
0.0
100
AcDbLayout
  1
Model
 70
1
 71
0
 10
0.0
 20
0.0
 11
420.0
 21
297.0
 12
0.0
 22
0.0
 32
0.0
 14
1e+20
 24
1e+20
 34
1e+20
 15
-1e+20
 25
-1e+20
 35
-1e+20
146
0.0
 13
0.0
 23
0.0
 33
0.0
 16
1.0
 26
0.0
 36
0.0
 17
0.0
 27
1.0
 37
0.0
 76
1
330
17
  0
LAYOUT
  5
1E
330
D
100
AcDbPlotSettings
  1

  2
Adobe PDF
  4
A3
  6

 40
7.5
 41
20.0
 42
7.5
 43
20.0
 44
420.0
 45
297.0
 46
0.0
 47
0.0
 48
0.0
 49
0.0
140
0.0
141
0.0
142
1.0
143
1.0
 70
0
 72
1
 73
0
 74
5
  7

 75
16
 76
0
 77
2
 78
300
147
1.0
148
0.0
149
0.0
100
AcDbLayout
  1
Layout1
 70
1
 71
1
 10
0.0
 20
0.0
 11
420.0
 21
297.0
 12
0.0
 22
0.0
 32
0.0
 14
1e+20
 24
1e+20
 34
1e+20
 15
-1e+20
 25
-1e+20
 35
-1e+20
146
0.0
 13
0.0
 23
0.0
 33
0.0
 16
1.0
 26
0.0
 36
0.0
 17
0.0
 27
1.0
 37
0.0
 76
1
330
1B
  0
MATERIAL
  5
1F
102
{ACAD_REACTORS
330
E
102
}
330
E
100
AcDbMaterial
  1
ByBlock
  2

 70
0
 40
1.0
 71
1
 41
1.0
 91
-1023410177
 42
1.0
 72
1
  3

 73
1
 74
1
 75
1
 44
0.5
 73
0
 45
1.0
 46
1.0
 77
1
  4

 78
1
 79
1
170
1
 48
1.0
171
1
  6

172
1
173
1
174
1
140
1.0
141
1.0
175
1
  7

176
1
177
1
178
1
143
1.0
179
1
  8

270
1
271
1
272
1
145
1.0
146
1.0
273
1
  9

274
1
275
1
276
1
 42
1.0
 72
1
  3

 73
1
 74
1
 75
1
 94
63
  0
MATERIAL
  5
20
102
{ACAD_REACTORS
330
E
102
}
330
E
100
AcDbMaterial
  1
ByLayer
  2

 70
0
 40
1.0
 71
1
 41
1.0
 91
-1023410177
 42
1.0
 72
1
  3

 73
1
 74
1
 75
1
 44
0.5
 73
0
 45
1.0
 46
1.0
 77
1
  4

 78
1
 79
1
170
1
 48
1.0
171
1
  6

172
1
173
1
174
1
140
1.0
141
1.0
175
1
  7

176
1
177
1
178
1
143
1.0
179
1
  8

270
1
271
1
272
1
145
1.0
146
1.0
273
1
  9

274
1
275
1
276
1
 42
1.0
 72
1
  3

 73
1
 74
1
 75
1
 94
63
  0
MATERIAL
  5
21
102
{ACAD_REACTORS
330
E
102
}
330
E
100
AcDbMaterial
  1
Global
  2

 70
0
 40
1.0
 71
1
 41
1.0
 91
-1023410177
 42
1.0
 72
1
  3

 73
1
 74
1
 75
1
 44
0.5
 73
0
 45
1.0
 46
1.0
 77
1
  4

 78
1
 79
1
170
1
 48
1.0
171
1
  6

172
1
173
1
174
1
140
1.0
141
1.0
175
1
  7

176
1
177
1
178
1
143
1.0
179
1
  8

270
1
271
1
272
1
145
1.0
146
1.0
273
1
  9

274
1
275
1
276
1
 42
1.0
 72
1
  3

 73
1
 74
1
 75
1
 94
63
  0
MLINESTYLE
  5
22
102
{ACAD_REACTORS
330
10
102
}
330
10
100
AcDbMlineStyle
  2
Standard
 70
0
  3

 62
256
 51
90.0
 52
90.0
 71
2
 49
0.5
 62
256
  6
BYLAYER
 49
-0.5
 62
256
  6
BYLAYER
  0
MLEADERSTYLE
  5
2C
102
{ACAD_REACTORS
330
F
102
}
330
F
100
AcDbMLeaderStyle
179
2
170
2
171
1
172
0
 90
2
 40
0.0
 41
0.0
173
1
 91
-1056964608
 92
-2
290
1
 42
2.0
291
1
 43
8.0
  3
Standard
 44
4.0
300

342
29
174
1
175
1
176
0
178
1
 93
-1056964608
 45
4.0
292
0
297
0
 46
4.0
 94
-1056964608
 47
1.0
 49
1.0
140
1.0
294
1
141
0.0
177
0
142
1.0
295
0
296
0
143
3.75
271
0
272
9
273
9
  0
DICTIONARY
  5
2D
330
A
100
AcDbDictionary
281
1
  3
CREATED_BY_EZDXF
350
2E
  3
WRITTEN_BY_EZDXF
350
1CC
  0
DICTIONARYVAR
  5
2E
330
2D
100
DictionaryVariables
280
0
  1
1.0.2 @ 2024-03-22T07:41:34.705040+00:00
  0
DICTIONARYVAR
  5
1CC
330
2D
100
DictionaryVariables
280
0
  1
1.0.2 @ 2024-03-22T07:41:34.715020+00:00
  0
ENDSEC
  0
EOF
