  0
SECTION
  2
HEADER
  9
$ACADVER
  1
AC1027
  9
$ACADMAINTVER
 70
105
  9
$DWGCODEPAGE
  3
ANSI_1252
  9
$LASTSAVEDBY
  1
ezdxf
  9
$REQUIREDVERSIONS
160
0
  9
$INSBASE
 10
0.0
 20
0.0
 30
0.0
  9
$EXTMIN
 10
1e+20
 20
1e+20
 30
1e+20
  9
$EXTMAX
 10
-1e+20
 20
-1e+20
 30
-1e+20
  9
$LIMMIN
 10
0.0
 20
0.0
  9
$LIMMAX
 10
420.0
 20
297.0
  9
$ORTHOMODE
 70
0
  9
$REGENMODE
 70
1
  9
$FILLMODE
 70
1
  9
$QTEXTMODE
 70
0
  9
$MIRRTEXT
 70
1
  9
$LTSCALE
 40
1.0
  9
$ATTMODE
 70
1
  9
$TEXTSIZE
 40
2.5
  9
$TRACEWID
 40
1.0
  9
$TEXTSTYLE
  7
Standard
  9
$CLAYER
  8
0
  9
$CELTYPE
  6
ByLayer
  9
$CECOLOR
 62
256
  9
$CELTSCALE
 40
1.0
  9
$DISPSILH
 70
0
  9
$DIMSCALE
 40
1.0
  9
$DIMASZ
 40
2.5
  9
$DIMEXO
 40
0.625
  9
$DIMDLI
 40
3.75
  9
$DIMRND
 40
0.0
  9
$DIMDLE
 40
0.0
  9
$DIMEXE
 40
1.25
  9
$DIMTP
 40
0.0
  9
$DIMTM
 40
0.0
  9
$DIMTXT
 40
2.5
  9
$DIMCEN
 40
2.5
  9
$DIMTSZ
 40
0.0
  9
$DIMTOL
 70
0
  9
$DIMLIM
 70
0
  9
$DIMTIH
 70
0
  9
$DIMTOH
 70
0
  9
$DIMSE1
 70
0
  9
$DIMSE2
 70
0
  9
$DIMTAD
 70
1
  9
$DIMZIN
 70
8
  9
$DIMBLK
  1

  9
$DIMASO
 70
1
  9
$DIMSHO
 70
1
  9
$DIMPOST
  1

  9
$DIMAPOST
  1

  9
$DIMALT
 70
0
  9
$DIMALTD
 70
3
  9
$DIMALTF
 40
0.03937007874
  9
$DIMLFAC
 40
1.0
  9
$DIMTOFL
 70
1
  9
$DIMTVP
 40
0.0
  9
$DIMTIX
 70
0
  9
$DIMSOXD
 70
0
  9
$DIMSAH
 70
0
  9
$DIMBLK1
  1

  9
$DIMBLK2
  1

  9
$DIMSTYLE
  2
ISO-25
  9
$DIMCLRD
 70
0
  9
$DIMCLRE
 70
0
  9
$DIMCLRT
 70
0
  9
$DIMTFAC
 40
1.0
  9
$DIMGAP
 40
0.625
  9
$DIMJUST
 70
0
  9
$DIMSD1
 70
0
  9
$DIMSD2
 70
0
  9
$DIMTOLJ
 70
0
  9
$DIMTZIN
 70
8
  9
$DIMALTZ
 70
0
  9
$DIMALTTZ
 70
0
  9
$DIMUPT
 70
0
  9
$DIMDEC
 70
2
  9
$DIMTDEC
 70
2
  9
$DIMALTU
 70
2
  9
$DIMALTTD
 70
3
  9
$DIMTXSTY
  7
Standard
  9
$DIMAUNIT
 70
0
  9
$DIMADEC
 70
0
  9
$DIMALTRND
 40
0.0
  9
$DIMAZIN
 70
0
  9
$DIMDSEP
 70
44
  9
$DIMATFIT
 70
3
  9
$DIMFRAC
 70
0
  9
$DIMLDRBLK
  1

  9
$DIMLUNIT
 70
2
  9
$DIMLWD
 70
-2
  9
$DIMLWE
 70
-2
  9
$DIMTMOVE
 70
0
  9
$DIMFXL
 40
1.0
  9
$DIMFXLON
 70
0
  9
$DIMJOGANG
 40
0.785398163397
  9
$DIMTFILL
 70
0
  9
$DIMTFILLCLR
 70
0
  9
$DIMARCSYM
 70
0
  9
$DIMLTYPE
  6

  9
$DIMLTEX1
  6

  9
$DIMLTEX2
  6

  9
$DIMTXTDIRECTION
 70
0
  9
$LUNITS
 70
2
  9
$LUPREC
 70
4
  9
$SKETCHINC
 40
1.0
  9
$FILLETRAD
 40
10.0
  9
$AUNITS
 70
0
  9
$AUPREC
 70
2
  9
$MENU
  1
.
  9
$ELEVATION
 40
0.0
  9
$PELEVATION
 40
0.0
  9
$THICKNESS
 40
0.0
  9
$LIMCHECK
 70
0
  9
$CHAMFERA
 40
0.0
  9
$CHAMFERB
 40
0.0
  9
$CHAMFERC
 40
0.0
  9
$CHAMFERD
 40
0.0
  9
$SKPOLY
 70
0
  9
$TDCREATE
 40
2460392.6955324076
  9
$TDUCREATE
 40
2458532.153996898
  9
$TDUPDATE
 40
2460392.6955324076
  9
$TDUUPDATE
 40
2458532.1544311
  9
$TDINDWG
 40
0.0
  9
$TDUSRTIMER
 40
0.0
  9
$USRTIMER
 70
1
  9
$ANGBASE
 50
0.0
  9
$ANGDIR
 70
0
  9
$PDMODE
 70
0
  9
$PDSIZE
 40
0.0
  9
$PLINEWID
 40
0.0
  9
$SPLFRAME
 70
0
  9
$SPLINETYPE
 70
6
  9
$SPLINESEGS
 70
8
  9
$HANDSEED
  5
1CC
  9
$SURFTAB1
 70
6
  9
$SURFTAB2
 70
6
  9
$SURFTYPE
 70
6
  9
$SURFU
 70
6
  9
$SURFV
 70
6
  9
$UCSBASE
  2

  9
$UCSNAME
  2

  9
$UCSORG
 10
0.0
 20
0.0
 30
0.0
  9
$UCSXDIR
 10
1.0
 20
0.0
 30
0.0
  9
$UCSYDIR
 10
0.0
 20
1.0
 30
0.0
  9
$UCSORTHOREF
  2

  9
$UCSORTHOVIEW
 70
0
  9
$UCSORGTOP
 10
0.0
 20
0.0
 30
0.0
  9
$UCSORGBOTTOM
 10
0.0
 20
0.0
 30
0.0
  9
$UCSORGLEFT
 10
0.0
 20
0.0
 30
0.0
  9
$UCSORGRIGHT
 10
0.0
 20
0.0
 30
0.0
  9
$UCSORGFRONT
 10
0.0
 20
0.0
 30
0.0
  9
$UCSORGBACK
 10
0.0
 20
0.0
 30
0.0
  9
$PUCSBASE
  2

  9
$PUCSNAME
  2

  9
$PUCSORG
 10
0.0
 20
0.0
 30
0.0
  9
$PUCSXDIR
 10
1.0
 20
0.0
 30
0.0
  9
$PUCSYDIR
 10
0.0
 20
1.0
 30
0.0
  9
$PUCSORTHOREF
  2

  9
$PUCSORTHOVIEW
 70
0
  9
$PUCSORGTOP
 10
0.0
 20
0.0
 30
0.0
  9
$PUCSORGBOTTOM
 10
0.0
 20
0.0
 30
0.0
  9
$PUCSORGLEFT
 10
0.0
 20
0.0
 30
0.0
  9
$PUCSORGRIGHT
 10
0.0
 20
0.0
 30
0.0
  9
$PUCSORGFRONT
 10
0.0
 20
0.0
 30
0.0
  9
$PUCSORGBACK
 10
0.0
 20
0.0
 30
0.0
  9
$USERI1
 70
0
  9
$USERI2
 70
0
  9
$USERI3
 70
0
  9
$USERI4
 70
0
  9
$USERI5
 70
0
  9
$USERR1
 40
0.0
  9
$USERR2
 40
0.0
  9
$USERR3
 40
0.0
  9
$USERR4
 40
0.0
  9
$USERR5
 40
0.0
  9
$WORLDVIEW
 70
1
  9
$SHADEDGE
 70
3
  9
$SHADEDIF
 70
70
  9
$TILEMODE
 70
1
  9
$MAXACTVP
 70
64
  9
$PINSBASE
 10
0.0
 20
0.0
 30
0.0
  9
$PLIMCHECK
 70
0
  9
$PEXTMIN
 10
1e+20
 20
1e+20
 30
1e+20
  9
$PEXTMAX
 10
-1e+20
 20
-1e+20
 30
-1e+20
  9
$PLIMMIN
 10
0.0
 20
0.0
  9
$PLIMMAX
 10
420.0
 20
297.0
  9
$UNITMODE
 70
0
  9
$VISRETAIN
 70
1
  9
$PLINEGEN
 70
0
  9
$PSLTSCALE
 70
1
  9
$TREEDEPTH
 70
3020
  9
$CMLSTYLE
  2
Standard
  9
$CMLJUST
 70
0
  9
$CMLSCALE
 40
20.0
  9
$PROXYGRAPHICS
 70
1
  9
$MEASUREMENT
 70
1
  9
$CELWEIGHT
370
-1
  9
$ENDCAPS
280
0
  9
$JOINSTYLE
280
0
  9
$LWDISPLAY
290
0
  9
$INSUNITS
 70
6
  9
$HYPERLINKBASE
  1

  9
$STYLESHEET
  1

  9
$XEDIT
290
1
  9
$CEPSNTYPE
380
0
  9
$PSTYLEMODE
290
1
  9
$FINGERPRINTGUID
  2
{BDC9DC86-B59C-4629-89DF-9B26F58EF5BF}
  9
$VERSIONGUID
  2
{3F627A30-5BDF-4381-B76E-F23DD6F21697}
  9
$EXTNAMES
290
1
  9
$PSVPSCALE
 40
0.0
  9
$OLESTARTUP
290
0
  9
$SORTENTS
280
127
  9
$INDEXCTL
280
0
  9
$HIDETEXT
280
1
  9
$XCLIPFRAME
280
0
  9
$HALOGAP
280
0
  9
$OBSCOLOR
 70
257
  9
$OBSLTYPE
280
0
  9
$INTERSECTIONDISPLAY
280
0
  9
$INTERSECTIONCOLOR
 70
257
  9
$DIMASSOC
280
2
  9
$PROJECTNAME
  1

  9
$CAMERADISPLAY
290
0
  9
$LENSLENGTH
 40
50.0
  9
$CAMERAHEIGHT
 40
0.0
  9
$STEPSPERSEC
 40
24.0
  9
$STEPSIZE
 40
100.0
  9
$3DDWFPREC
 40
2.0
  9
$PSOLWIDTH
 40
0.005
  9
$PSOLHEIGHT
 40
0.08
  9
$LOFTANG1
 40
1.570796326795
  9
$LOFTANG2
 40
1.570796326795
  9
$LOFTMAG1
 40
0.0
  9
$LOFTMAG2
 40
0.0
  9
$LOFTPARAM
 70
7
  9
$LOFTNORMALS
280
1
  9
$LATITUDE
 40
37.795
  9
$LONGITUDE
 40
-122.394
  9
$NORTHDIRECTION
 40
0.0
  9
$TIMEZONE
 70
-8000
  9
$LIGHTGLYPHDISPLAY
280
1
  9
$TILEMODELIGHTSYNCH
280
1
  9
$CMATERIAL
347
20
  9
$SOLIDHIST
280
0
  9
$SHOWHIST
280
1
  9
$DWFFRAME
280
2
  9
$DGNFRAME
280
2
  9
$REALWORLDSCALE
290
1
  9
$INTERFERECOLOR
 62
256
  9
$CSHADOW
280
0
  9
$SHADOWPLANELOCATION
 40
0.0
  0
ENDSEC
  0
SECTION
  2
CLASSES
  0
CLASS
  1
ACDBDICTIONARYWDFLT
  2
AcDbDictionaryWithDefault
  3
ObjectDBX Classes
 90
0
 91
0
280
0
281
0
  0
CLASS
  1
SUN
  2
AcDbSun
  3
SCENEOE
 90
1153
 91
0
280
0
281
0
  0
CLASS
  1
VISUALSTYLE
  2
AcDbVisualStyle
  3
ObjectDBX Classes
 90
4095
 91
0
280
0
281
0
  0
CLASS
  1
MATERIAL
  2
AcDbMaterial
  3
ObjectDBX Classes
 90
1153
 91
0
280
0
281
0
  0
CLASS
  1
SCALE
  2
AcDbScale
  3
ObjectDBX Classes
 90
1153
 91
0
280
0
281
0
  0
CLASS
  1
TABLESTYLE
  2
AcDbTableStyle
  3
ObjectDBX Classes
 90
4095
 91
0
280
0
281
0
  0
CLASS
  1
MLEADERSTYLE
  2
AcDbMLeaderStyle
  3
ACDB_MLEADERSTYLE_CLASS
 90
4095
 91
0
280
0
281
0
  0
CLASS
  1
DICTIONARYVAR
  2
AcDbDictionaryVar
  3
ObjectDBX Classes
 90
0
 91
0
280
0
281
0
  0
CLASS
  1
CELLSTYLEMAP
  2
AcDbCellStyleMap
  3
ObjectDBX Classes
 90
1152
 91
0
280
0
281
0
  0
CLASS
  1
MENTALRAYRENDERSETTINGS
  2
AcDbMentalRayRenderSettings
  3
SCENEOE
 90
1024
 91
0
280
0
281
0
  0
CLASS
  1
ACDBDETAILVIEWSTYLE
  2
AcDbDetailViewStyle
  3
ObjectDBX Classes
 90
1025
 91
0
280
0
281
0
  0
CLASS
  1
ACDBSECTIONVIEWSTYLE
  2
AcDbSectionViewStyle
  3
ObjectDBX Classes
 90
1025
 91
0
280
0
281
0
  0
CLASS
  1
RASTERVARIABLES
  2
AcDbRasterVariables
  3
ISM
 90
0
 91
0
280
0
281
0
  0
CLASS
  1
LAYOUT
  2
AcDbLayout
  3
ObjectDBX Classes
 90
0
 91
0
280
0
281
0
  0
CLASS
  1
ACDBPLACEHOLDER
  2
AcDbPlaceHolder
  3
ObjectDBX Classes
 90
0
 91
0
280
0
281
0
  0
ENDSEC
  0
SECTION
  2
TABLES
  0
TABLE
  2
VPORT
  5
8
330
0
100
AcDbSymbolTable
 70
1
  0
VPORT
  5
23
330
8
100
AcDbSymbolTableRecord
100
AcDbViewportTableRecord
  2
*Active
 70
0
 10
0.0
 20
0.0
 11
1.0
 21
1.0
 12
0.0
 22
0.0
 13
0.0
 23
0.0
 14
0.5
 24
0.5
 15
0.5
 25
0.5
 16
0.0
 26
0.0
 36
1.0
 17
0.0
 27
0.0
 37
0.0
 40
1000.0
 41
1.34
 42
50.0
 43
0.0
 44
0.0
 50
0.0
 51
0.0
 71
0
 72
1000
 73
1
 74
3
 75
0
 76
0
 77
0
 78
0
281
0
 65
0
146
0.0
  0
ENDTAB
  0
TABLE
  2
LTYPE
  5
2
330
0
100
AcDbSymbolTable
 70
3
  0
LTYPE
  5
24
330
2
100
AcDbSymbolTableRecord
100
AcDbLinetypeTableRecord
  2
ByBlock
 70
0
  3

 72
65
 73
0
 40
0.0
  0
LTYPE
  5
25
330
2
100
AcDbSymbolTableRecord
100
AcDbLinetypeTableRecord
  2
ByLayer
 70
0
  3

 72
65
 73
0
 40
0.0
  0
LTYPE
  5
26
330
2
100
AcDbSymbolTableRecord
100
AcDbLinetypeTableRecord
  2
Continuous
 70
0
  3

 72
65
 73
0
 40
0.0
  0
ENDTAB
  0
TABLE
  2
LAYER
  5
1
330
0
100
AcDbSymbolTable
 70
5
  0
LAYER
  5
27
330
1
100
AcDbSymbolTableRecord
100
AcDbLayerTableRecord
  2
0
 70
0
 62
7
  6
Continuous
370
-3
390
13
347
21
  0
LAYER
  5
28
330
1
100
AcDbSymbolTableRecord
100
AcDbLayerTableRecord
  2
Defpoints
 70
0
 62
7
  6
Continuous
290
0
370
-3
390
13
347
21
  0
LAYER
  5
30
330
1
100
AcDbSymbolTableRecord
100
AcDbLayerTableRecord
  2
FoilLayer
 70
0
 62
1
  6
Continuous
370
50
390
13
347
21
  0
LAYER
  5
31
330
1
100
AcDbSymbolTableRecord
100
AcDbLayerTableRecord
  2
StringerLayer
 70
0
 62
1
  6
Continuous
370
50
390
13
347
21
  0
LAYER
  5
32
330
1
100
AcDbSymbolTableRecord
100
AcDbLayerTableRecord
  2
SubLayer
 70
0
 62
1
  6
Continuous
370
50
390
13
347
21
  0
ENDTAB
  0
TABLE
  2
STYLE
  5
5
330
0
100
AcDbSymbolTable
 70
2
  0
STYLE
  5
29
330
5
100
AcDbSymbolTableRecord
100
AcDbTextStyleTableRecord
  2
Standard
 70
0
 40
0.0
 41
1.0
 50
0.0
 71
0
 42
2.5
  3
txt
  4

  0
STYLE
  5
2F
330
5
100
AcDbSymbolTableRecord
100
AcDbTextStyleTableRecord
  2
MSゴシック
 70
0
 40
0.0
 41
1.0
 50
0.0
 71
0
 42
2.5
  3
romans
  4

  0
ENDTAB
  0
TABLE
  2
VIEW
  5
7
330
0
100
AcDbSymbolTable
 70
0
  0
ENDTAB
  0
TABLE
  2
UCS
  5
6
330
0
100
AcDbSymbolTable
 70
0
  0
ENDTAB
  0
TABLE
  2
APPID
  5
3
330
0
100
AcDbSymbolTable
 70
3
  0
APPID
  5
2A
330
3
100
AcDbSymbolTableRecord
100
AcDbRegAppTableRecord
  2
ACAD
 70
0
  0
APPID
  5
1C9
330
3
100
AcDbSymbolTableRecord
100
AcDbRegAppTableRecord
  2
HATCHBACKGROUNDCOLOR
 70
0
  0
APPID
  5
1CA
330
3
100
AcDbSymbolTableRecord
100
AcDbRegAppTableRecord
  2
EZDXF
 70
0
  0
ENDTAB
  0
TABLE
  2
DIMSTYLE
  5
4
330
0
100
AcDbSymbolTable
 70
1
100
AcDbDimStyleTable
  0
DIMSTYLE
105
2B
330
4
100
AcDbSymbolTableRecord
100
AcDbDimStyleTableRecord
  2
Standard
 70
0
 40
1.0
 41
2.5
 42
0.625
 43
3.75
 44
1.25
 45
0.0
 46
0.0
 47
0.0
 48
0.0
 49
2.5
140
2.5
141
2.5
142
0.0
143
0.03937007874
144
1.0
145
0.0
146
1.0
147
0.625
148
0.0
 69
0
 70
0
 71
0
 72
0
 73
0
 74
0
 75
0
 76
0
 77
1
 78
8
 79
3
170
0
171
3
172
1
173
0
174
0
175
0
176
0
177
0
178
0
179
2
271
2
272
2
273
2
274
3
275
0
276
0
277
2
278
44
279
0
280
0
281
0
282
0
283
0
284
8
285
0
286
0
288
0
289
3
290
0
371
-2
372
-2
  0
ENDTAB
  0
TABLE
  2
BLOCK_RECORD
  5
9
330
0
100
AcDbSymbolTable
 70
2
  0
BLOCK_RECORD
  5
17
330
9
100
AcDbSymbolTableRecord
100
AcDbBlockTableRecord
  2
*Model_Space
340
1A
 70
0
280
1
281
0
  0
BLOCK_RECORD
  5
1B
330
9
100
AcDbSymbolTableRecord
100
AcDbBlockTableRecord
  2
*Paper_Space
340
1E
 70
0
280
1
281
0
  0
ENDTAB
  0
ENDSEC
  0
SECTION
  2
BLOCKS
  0
BLOCK
  5
18
330
17
100
AcDbEntity
  8
0
100
AcDbBlockBegin
  2
*Model_Space
 70
0
 10
0.0
 20
0.0
 30
0.0
  3
*Model_Space
  1

  0
ENDBLK
  5
19
330
17
100
AcDbEntity
  8
0
100
AcDbBlockEnd
  0
BLOCK
  5
1C
330
1B
100
AcDbEntity
  8
0
100
AcDbBlockBegin
  2
*Paper_Space
 70
0
 10
0.0
 20
0.0
 30
0.0
  3
*Paper_Space
  1

  0
ENDBLK
  5
1D
330
1B
100
AcDbEntity
  8
0
100
AcDbBlockEnd
  0
ENDSEC
  0
SECTION
  2
ENTITIES
  0
LINE
  5
33
330
17
100
AcDbEntity
  8
FoilLayer
100
AcDbLine
 10
362.3896106552796
 20
0.14526015127716774
 30
0.0
 11
360.48154251605615
 21
0.6280849338659695
 31
0.0
  0
LINE
  5
34
330
17
100
AcDbEntity
  8
FoilLayer
100
AcDbLine
 10
360.48154251605615
 20
0.6280849338659695
 30
0.0
 11
357.4163272562149
 21
1.389268524467568
 31
0.0
  0
LINE
  5
35
330
17
100
AcDbEntity
  8
FoilLayer
100
AcDbLine
 10
357.4163272562149
 20
1.389268524467568
 30
0.0
 11
354.1035433667089
 21
2.2280075804218367
 31
0.0
  0
LINE
  5
36
330
17
100
AcDbEntity
  8
FoilLayer
100
AcDbLine
 10
354.1035433667089
 20
2.2280075804218367
 30
0.0
 11
350.52112029198724
 21
3.125963189383485
 31
0.0
  0
LINE
  5
37
330
17
100
AcDbEntity
  8
FoilLayer
100
AcDbLine
 10
350.52112029198724
 20
3.125963189383485
 30
0.0
 11
346.660508017065
 21
4.074796210595824
 31
0.0
  0
LINE
  5
38
330
17
100
AcDbEntity
  8
FoilLayer
100
AcDbLine
 10
346.660508017065
 20
4.074796210595824
 30
0.0
 11
342.5429879258329
 21
5.088529991650016
 31
0.0
  0
LINE
  5
39
330
17
100
AcDbEntity
  8
FoilLayer
100
AcDbLine
 10
342.5429879258329
 20
5.088529991650016
 30
0.0
 11
338.20289560871436
 21
6.1680662374562445
 31
0.0
  0
LINE
  5
3A
330
17
100
AcDbEntity
  8
FoilLayer
100
AcDbLine
 10
338.20289560871436
 20
6.1680662374562445
 30
0.0
 11
333.6704962417423
 21
7.293139255052245
 31
0.0
  0
LINE
  5
3B
330
17
100
AcDbEntity
  8
FoilLayer
100
AcDbLine
 10
333.6704962417423
 20
7.293139255052245
 30
0.0
 11
328.98805471148046
 21
8.442025751020786
 31
0.0
  0
LINE
  5
3C
330
17
100
AcDbEntity
  8
FoilLayer
100
AcDbLine
 10
328.98805471148046
 20
8.442025751020786
 30
0.0
 11
324.20550921606446
 21
9.593705098116208
 31
0.0
  0
LINE
  5
3D
330
17
100
AcDbEntity
  8
FoilLayer
100
AcDbLine
 10
324.20550921606446
 20
9.593705098116208
 30
0.0
 11
319.33891728123024
 21
10.741241515334696
 31
0.0
  0
LINE
  5
3E
330
17
100
AcDbEntity
  8
FoilLayer
100
AcDbLine
 10
319.33891728123024
 20
10.741241515334696
 30
0.0
 11
314.3991463823103
 21
11.933427652657786
 31
0.0
  0
LINE
  5
3F
330
17
100
AcDbEntity
  8
FoilLayer
100
AcDbLine
 10
314.3991463823103
 20
11.933427652657786
 30
0.0
 11
309.40039518313677
 21
13.147449913876487
 31
0.0
  0
LINE
  5
40
330
17
100
AcDbEntity
  8
FoilLayer
100
AcDbLine
 10
309.40039518313677
 20
13.147449913876487
 30
0.0
 11
304.3403967169702
 21
14.362475613872125
 31
0.0
  0
LINE
  5
41
330
17
100
AcDbEntity
  8
FoilLayer
100
AcDbLine
 10
304.3403967169702
 20
14.362475613872125
 30
0.0
 11
299.2268900321784
 21
15.581316812795171
 31
0.0
  0
LINE
  5
42
330
17
100
AcDbEntity
  8
FoilLayer
100
AcDbLine
 10
299.2268900321784
 20
15.581316812795171
 30
0.0
 11
294.0598325852063
 21
16.78769426998278
 31
0.0
  0
LINE
  5
43
330
17
100
AcDbEntity
  8
FoilLayer
100
AcDbLine
 10
294.0598325852063
 20
16.78769426998278
 30
0.0
 11
288.8388085093992
 21
18.000053791198262
 31
0.0
  0
LINE
  5
44
330
17
100
AcDbEntity
  8
FoilLayer
100
AcDbLine
 10
288.8388085093992
 20
18.000053791198262
 30
0.0
 11
283.57973922841813
 21
19.235130314583614
 31
0.0
  0
LINE
  5
45
330
17
100
AcDbEntity
  8
FoilLayer
100
AcDbLine
 10
283.57973922841813
 20
19.235130314583614
 30
0.0
 11
278.29219535707796
 21
20.48149241357903
 31
0.0
  0
LINE
  5
46
330
17
100
AcDbEntity
  8
FoilLayer
100
AcDbLine
 10
278.29219535707796
 20
20.48149241357903
 30
0.0
 11
272.98506613316306
 21
21.730048621489146
 31
0.0
  0
LINE
  5
47
330
17
100
AcDbEntity
  8
FoilLayer
100
AcDbLine
 10
272.98506613316306
 20
21.730048621489146
 30
0.0
 11
267.66622524337436
 21
22.971401177572826
 31
0.0
  0
LINE
  5
48
330
17
100
AcDbEntity
  8
FoilLayer
100
AcDbLine
 10
267.66622524337436
 20
22.971401177572826
 30
0.0
 11
262.34054248272207
 21
24.194679252117524
 31
0.0
  0
LINE
  5
49
330
17
100
AcDbEntity
  8
FoilLayer
100
AcDbLine
 10
262.34054248272207
 20
24.194679252117524
 30
0.0
 11
257.0081029714196
 21
25.398194822106223
 31
0.0
  0
LINE
  5
4A
330
17
100
AcDbEntity
  8
FoilLayer
100
AcDbLine
 10
257.0081029714196
 20
25.398194822106223
 30
0.0
 11
251.6758239279384
 21
26.60608004594214
 31
0.0
  0
LINE
  5
4B
330
17
100
AcDbEntity
  8
FoilLayer
100
AcDbLine
 10
251.6758239279384
 20
26.60608004594214
 30
0.0
 11
246.3491478694788
 21
27.826605892986827
 31
0.0
  0
LINE
  5
4C
330
17
100
AcDbEntity
  8
FoilLayer
100
AcDbLine
 10
246.3491478694788
 20
27.826605892986827
 30
0.0
 11
241.027281495584
 21
29.04216790835553
 31
0.0
  0
LINE
  5
4D
330
17
100
AcDbEntity
  8
FoilLayer
100
AcDbLine
 10
241.027281495584
 20
29.04216790835553
 30
0.0
 11
235.7119466659219
 21
30.24136496992066
 31
0.0
  0
LINE
  5
4E
330
17
100
AcDbEntity
  8
FoilLayer
100
AcDbLine
 10
235.7119466659219
 20
30.24136496992066
 30
0.0
 11
230.4015033127341
 21
31.412704052632066
 31
0.0
  0
LINE
  5
4F
330
17
100
AcDbEntity
  8
FoilLayer
100
AcDbLine
 10
230.4015033127341
 20
31.412704052632066
 30
0.0
 11
225.09035081255902
 21
32.551856229045185
 31
0.0
  0
LINE
  5
50
330
17
100
AcDbEntity
  8
FoilLayer
100
AcDbLine
 10
225.09035081255902
 20
32.551856229045185
 30
0.0
 11
219.77768023599194
 21
33.669638584937445
 31
0.0
  0
LINE
  5
51
330
17
100
AcDbEntity
  8
FoilLayer
100
AcDbLine
 10
219.77768023599194
 20
33.669638584937445
 30
0.0
 11
217.40705158988433
 21
34.17008862156797
 31
0.0
  0
LINE
  5
52
330
17
100
AcDbEntity
  8
FoilLayer
100
AcDbLine
 10
217.40705158988433
 20
34.17008862156797
 30
0.0
 11
217.19017196628167
 21
33.14273122082275
 31
0.0
  0
LINE
  5
53
330
17
100
AcDbEntity
  8
FoilLayer
100
AcDbLine
 10
217.19017196628167
 20
33.14273122082275
 30
0.0
 11
214.25490825974745
 21
33.76237820503831
 31
0.0
  0
LINE
  5
54
330
17
100
AcDbEntity
  8
FoilLayer
100
AcDbLine
 10
214.25490825974745
 20
33.76237820503831
 30
0.0
 11
208.9607078699813
 21
34.8810312348869
 31
0.0
  0
LINE
  5
55
330
17
100
AcDbEntity
  8
FoilLayer
100
AcDbLine
 10
208.9607078699813
 20
34.8810312348869
 30
0.0
 11
203.6731230695643
 21
35.9850929084225
 31
0.0
  0
LINE
  5
56
330
17
100
AcDbEntity
  8
FoilLayer
100
AcDbLine
 10
203.6731230695643
 20
35.9850929084225
 30
0.0
 11
198.39003777282645
 21
37.068176982232565
 31
0.0
  0
LINE
  5
57
330
17
100
AcDbEntity
  8
FoilLayer
100
AcDbLine
 10
198.39003777282645
 20
37.068176982232565
 30
0.0
 11
193.10710051893338
 21
38.121918011950704
 31
0.0
  0
LINE
  5
58
330
17
100
AcDbEntity
  8
FoilLayer
100
AcDbLine
 10
193.10710051893338
 20
38.121918011950704
 30
0.0
 11
187.81828905174305
 21
39.144844188052
 31
0.0
  0
LINE
  5
59
330
17
100
AcDbEntity
  8
FoilLayer
100
AcDbLine
 10
187.81828905174305
 20
39.144844188052
 30
0.0
 11
182.5253988369138
 21
40.150442629521216
 31
0.0
  0
LINE
  5
5A
330
17
100
AcDbEntity
  8
FoilLayer
100
AcDbLine
 10
182.5253988369138
 20
40.150442629521216
 30
0.0
 11
177.2416706501597
 21
41.15225559313215
 31
0.0
  0
LINE
  5
5B
330
17
100
AcDbEntity
  8
FoilLayer
100
AcDbLine
 10
177.2416706501597
 20
41.15225559313215
 30
0.0
 11
171.9776020600784
 21
42.14437875345331
 31
0.0
  0
LINE
  5
5C
330
17
100
AcDbEntity
  8
FoilLayer
100
AcDbLine
 10
171.9776020600784
 20
42.14437875345331
 30
0.0
 11
166.72996565796635
 21
43.10988168867062
 31
0.0
  0
LINE
  5
5D
330
17
100
AcDbEntity
  8
FoilLayer
100
AcDbLine
 10
166.72996565796635
 20
43.10988168867062
 30
0.0
 11
161.49613312308966
 21
44.042761271581035
 31
0.0
  0
LINE
  5
5E
330
17
100
AcDbEntity
  8
FoilLayer
100
AcDbLine
 10
161.49613312308966
 20
44.042761271581035
 30
0.0
 11
156.26663706487525
 21
44.93717797530684
 31
0.0
  0
LINE
  5
5F
330
17
100
AcDbEntity
  8
FoilLayer
100
AcDbLine
 10
156.26663706487525
 20
44.93717797530684
 30
0.0
 11
151.04294309421337
 21
45.806362189528386
 31
0.0
  0
LINE
  5
60
330
17
100
AcDbEntity
  8
FoilLayer
100
AcDbLine
 10
151.04294309421337
 20
45.806362189528386
 30
0.0
 11
145.824955813216
 21
46.655681067277705
 31
0.0
  0
LINE
  5
61
330
17
100
AcDbEntity
  8
FoilLayer
100
AcDbLine
 10
145.824955813216
 20
46.655681067277705
 30
0.0
 11
140.61347545225024
 21
47.486388579865775
 31
0.0
  0
LINE
  5
62
330
17
100
AcDbEntity
  8
FoilLayer
100
AcDbLine
 10
140.61347545225024
 20
47.486388579865775
 30
0.0
 11
135.40977044080554
 21
48.293076609097156
 31
0.0
  0
LINE
  5
63
330
17
100
AcDbEntity
  8
FoilLayer
100
AcDbLine
 10
135.40977044080554
 20
48.293076609097156
 30
0.0
 11
130.21037666443934
 21
49.06471922312115
 31
0.0
  0
LINE
  5
64
330
17
100
AcDbEntity
  8
FoilLayer
100
AcDbLine
 10
130.21037666443934
 20
49.06471922312115
 30
0.0
 11
125.01221014037142
 21
49.79884706786295
 31
0.0
  0
LINE
  5
65
330
17
100
AcDbEntity
  8
FoilLayer
100
AcDbLine
 10
125.01221014037142
 20
49.79884706786295
 30
0.0
 11
119.81118797152013
 21
50.49972952972551
 31
0.0
  0
LINE
  5
66
330
17
100
AcDbEntity
  8
FoilLayer
100
AcDbLine
 10
119.81118797152013
 20
50.49972952972551
 30
0.0
 11
114.6082448686856
 21
51.17845104400094
 31
0.0
  0
LINE
  5
67
330
17
100
AcDbEntity
  8
FoilLayer
100
AcDbLine
 10
114.6082448686856
 20
51.17845104400094
 30
0.0
 11
109.40708045712287
 21
51.8411945029099
 31
0.0
  0
LINE
  5
68
330
17
100
AcDbEntity
  8
FoilLayer
100
AcDbLine
 10
109.40708045712287
 20
51.8411945029099
 30
0.0
 11
104.2077533854829
 21
52.48184420867688
 31
0.0
  0
LINE
  5
69
330
17
100
AcDbEntity
  8
FoilLayer
100
AcDbLine
 10
104.2077533854829
 20
52.48184420867688
 30
0.0
 11
99.00838575103595
 21
53.09206957632253
 31
0.0
  0
LINE
  5
6A
330
17
100
AcDbEntity
  8
FoilLayer
100
AcDbLine
 10
99.00838575103595
 20
53.09206957632253
 30
0.0
 11
93.80817386617647
 21
53.668713746438804
 31
0.0
  0
LINE
  5
6B
330
17
100
AcDbEntity
  8
FoilLayer
100
AcDbLine
 10
93.80817386617647
 20
53.668713746438804
 30
0.0
 11
88.60663259967956
 21
54.21420269244445
 31
0.0
  0
LINE
  5
6C
330
17
100
AcDbEntity
  8
FoilLayer
100
AcDbLine
 10
88.60663259967956
 20
54.21420269244445
 30
0.0
 11
83.40490225386785
 21
54.73576642061555
 31
0.0
  0
LINE
  5
6D
330
17
100
AcDbEntity
  8
FoilLayer
100
AcDbLine
 10
83.40490225386785
 20
54.73576642061555
 30
0.0
 11
78.20212108936957
 21
55.23561377989767
 31
0.0
  0
LINE
  5
6E
330
17
100
AcDbEntity
  8
FoilLayer
100
AcDbLine
 10
78.20212108936957
 20
55.23561377989767
 30
0.0
 11
72.99901139669353
 21
55.71360224996757
 31
0.0
  0
LINE
  5
6F
330
17
100
AcDbEntity
  8
FoilLayer
100
AcDbLine
 10
72.99901139669353
 20
55.71360224996757
 30
0.0
 11
67.79693546125807
 21
56.165664237758186
 31
0.0
  0
LINE
  5
70
330
17
100
AcDbEntity
  8
FoilLayer
100
AcDbLine
 10
67.79693546125807
 20
56.165664237758186
 30
0.0
 11
62.596178123987585
 21
56.585793255402706
 31
0.0
  0
LINE
  5
71
330
17
100
AcDbEntity
  8
FoilLayer
100
AcDbLine
 10
62.596178123987585
 20
56.585793255402706
 30
0.0
 11
57.39817536952373
 21
56.974233921730224
 31
0.0
  0
LINE
  5
72
330
17
100
AcDbEntity
  8
FoilLayer
100
AcDbLine
 10
57.39817536952373
 20
56.974233921730224
 30
0.0
 11
52.20537005150098
 21
57.33658501777368
 31
0.0
  0
LINE
  5
73
330
17
100
AcDbEntity
  8
FoilLayer
100
AcDbLine
 10
52.20537005150098
 20
57.33658501777368
 30
0.0
 11
47.01878910229104
 21
57.67528180202485
 31
0.0
  0
LINE
  5
74
330
17
100
AcDbEntity
  8
FoilLayer
100
AcDbLine
 10
47.01878910229104
 20
57.67528180202485
 30
0.0
 11
41.84143585601677
 21
57.99048441697254
 31
0.0
  0
LINE
  5
75
330
17
100
AcDbEntity
  8
FoilLayer
100
AcDbLine
 10
41.84143585601677
 20
57.99048441697254
 30
0.0
 11
36.67575359218611
 21
58.27731912052239
 31
0.0
  0
LINE
  5
76
330
17
100
AcDbEntity
  8
FoilLayer
100
AcDbLine
 10
36.67575359218611
 20
58.27731912052239
 30
0.0
 11
31.52494244032249
 21
58.53252966418917
 31
0.0
  0
LINE
  5
77
330
17
100
AcDbEntity
  8
FoilLayer
100
AcDbLine
 10
31.52494244032249
 20
58.53252966418917
 30
0.0
 11
26.391543768650422
 21
58.75561562441998
 31
0.0
  0
LINE
  5
78
330
17
100
AcDbEntity
  8
FoilLayer
100
AcDbLine
 10
26.391543768650422
 20
58.75561562441998
 30
0.0
 11
21.276125745416465
 21
58.94683094000395
 31
0.0
  0
LINE
  5
79
330
17
100
AcDbEntity
  8
FoilLayer
100
AcDbLine
 10
21.276125745416465
 20
58.94683094000395
 30
0.0
 11
16.177843903254143
 21
59.10763074567742
 31
0.0
  0
LINE
  5
7A
330
17
100
AcDbEntity
  8
FoilLayer
100
AcDbLine
 10
16.177843903254143
 20
59.10763074567742
 30
0.0
 11
11.094366937341903
 21
59.237891086429684
 31
0.0
  0
LINE
  5
7B
330
17
100
AcDbEntity
  8
FoilLayer
100
AcDbLine
 10
11.094366937341903
 20
59.237891086429684
 30
0.0
 11
6.024962877046391
 21
59.337698569316174
 31
0.0
  0
LINE
  5
7C
330
17
100
AcDbEntity
  8
FoilLayer
100
AcDbLine
 10
6.024962877046391
 20
59.337698569316174
 30
0.0
 11
0.9678138884256953
 21
59.40243500927137
 31
0.0
  0
LINE
  5
7D
330
17
100
AcDbEntity
  8
FoilLayer
100
AcDbLine
 10
0.9678138884256953
 20
59.40243500927137
 30
0.0
 11
-4.079727929232803
 21
59.430196970197855
 31
0.0
  0
LINE
  5
7E
330
17
100
AcDbEntity
  8
FoilLayer
100
AcDbLine
 10
-4.079727929232803
 20
59.430196970197855
 30
0.0
 11
-9.118385559996312
 21
59.424944358394576
 31
0.0
  0
LINE
  5
7F
330
17
100
AcDbEntity
  8
FoilLayer
100
AcDbLine
 10
-9.118385559996312
 20
59.424944358394576
 30
0.0
 11
-14.148301262367198
 21
59.389097745857185
 31
0.0
  0
LINE
  5
80
330
17
100
AcDbEntity
  8
FoilLayer
100
AcDbLine
 10
-14.148301262367198
 20
59.389097745857185
 30
0.0
 11
-19.167766184213036
 21
59.3228820512204
 31
0.0
  0
LINE
  5
81
330
17
100
AcDbEntity
  8
FoilLayer
100
AcDbLine
 10
-19.167766184213036
 20
59.3228820512204
 30
0.0
 11
-24.175405005184103
 21
59.223695202619275
 31
0.0
  0
LINE
  5
82
330
17
100
AcDbEntity
  8
FoilLayer
100
AcDbLine
 10
-24.175405005184103
 20
59.223695202619275
 30
0.0
 11
-29.16956647924283
 21
59.09000721556364
 31
0.0
  0
LINE
  5
83
330
17
100
AcDbEntity
  8
FoilLayer
100
AcDbLine
 10
-29.16956647924283
 20
59.09000721556364
 30
0.0
 11
-34.14966758907954
 21
58.9200826521891
 31
0.0
  0
LINE
  5
84
330
17
100
AcDbEntity
  8
FoilLayer
100
AcDbLine
 10
-34.14966758907954
 20
58.9200826521891
 30
0.0
 11
-39.11555967056174
 21
58.713755127573585
 31
0.0
  0
LINE
  5
85
330
17
100
AcDbEntity
  8
FoilLayer
100
AcDbLine
 10
-39.11555967056174
 20
58.713755127573585
 30
0.0
 11
-44.06628675655162
 21
58.47290908901557
 31
0.0
  0
LINE
  5
86
330
17
100
AcDbEntity
  8
FoilLayer
100
AcDbLine
 10
-44.06628675655162
 20
58.47290908901557
 30
0.0
 11
-48.99955197284075
 21
58.19857948235868
 31
0.0
  0
LINE
  5
87
330
17
100
AcDbEntity
  8
FoilLayer
100
AcDbLine
 10
-48.99955197284075
 20
58.19857948235868
 30
0.0
 11
-53.91400757165121
 21
57.88774569365428
 31
0.0
  0
LINE
  5
88
330
17
100
AcDbEntity
  8
FoilLayer
100
AcDbLine
 10
-53.91400757165121
 20
57.88774569365428
 30
0.0
 11
-58.80591946516299
 21
57.542642134436406
 31
0.0
  0
LINE
  5
89
330
17
100
AcDbEntity
  8
FoilLayer
100
AcDbLine
 10
-58.80591946516299
 20
57.542642134436406
 30
0.0
 11
-63.66712127586095
 21
57.16662979244814
 31
0.0
  0
LINE
  5
8A
330
17
100
AcDbEntity
  8
FoilLayer
100
AcDbLine
 10
-63.66712127586095
 20
57.16662979244814
 30
0.0
 11
-68.50104096916661
 21
56.74793129495476
 31
0.0
  0
LINE
  5
8B
330
17
100
AcDbEntity
  8
FoilLayer
100
AcDbLine
 10
-68.50104096916661
 20
56.74793129495476
 30
0.0
 11
-73.3023882358851
 21
56.297270805867576
 31
0.0
  0
LINE
  5
8C
330
17
100
AcDbEntity
  8
FoilLayer
100
AcDbLine
 10
-73.3023882358851
 20
56.297270805867576
 30
0.0
 11
-78.07649547649388
 21
55.80091272941065
 31
0.0
  0
LINE
  5
8D
330
17
100
AcDbEntity
  8
FoilLayer
100
AcDbLine
 10
-78.07649547649388
 20
55.80091272941065
 30
0.0
 11
-82.83121039419348
 21
55.25609502279549
 31
0.0
  0
LINE
  5
8E
330
17
100
AcDbEntity
  8
FoilLayer
100
AcDbLine
 10
-82.83121039419348
 20
55.25609502279549
 30
0.0
 11
-87.56093335427016
 21
54.67911360752762
 31
0.0
  0
LINE
  5
8F
330
17
100
AcDbEntity
  8
FoilLayer
100
AcDbLine
 10
-87.56093335427016
 20
54.67911360752762
 30
0.0
 11
-92.25941779467239
 21
54.06949604095264
 31
0.0
  0
LINE
  5
90
330
17
100
AcDbEntity
  8
FoilLayer
100
AcDbLine
 10
-92.25941779467239
 20
54.06949604095264
 30
0.0
 11
-96.92300221809508
 21
53.41952036981682
 31
0.0
  0
LINE
  5
91
330
17
100
AcDbEntity
  8
FoilLayer
100
AcDbLine
 10
-96.92300221809508
 20
53.41952036981682
 30
0.0
 11
-101.5491259383754
 21
52.72304396301647
 31
0.0
  0
LINE
  5
92
330
17
100
AcDbEntity
  8
FoilLayer
100
AcDbLine
 10
-101.5491259383754
 20
52.72304396301647
 30
0.0
 11
-106.13649237183164
 21
51.97812226452555
 31
0.0
  0
LINE
  5
93
330
17
100
AcDbEntity
  8
FoilLayer
100
AcDbLine
 10
-106.13649237183164
 20
51.97812226452555
 30
0.0
 11
-110.68271032952167
 21
51.19416348721699
 31
0.0
  0
LINE
  5
94
330
17
100
AcDbEntity
  8
FoilLayer
100
AcDbLine
 10
-110.68271032952167
 20
51.19416348721699
 30
0.0
 11
-115.1800556695583
 21
50.385226373237934
 31
0.0
  0
LINE
  5
95
330
17
100
AcDbEntity
  8
FoilLayer
100
AcDbLine
 10
-115.1800556695583
 20
50.385226373237934
 30
0.0
 11
-119.61707432214114
 21
49.550653051321675
 31
0.0
  0
LINE
  5
96
330
17
100
AcDbEntity
  8
FoilLayer
100
AcDbLine
 10
-119.61707432214114
 20
49.550653051321675
 30
0.0
 11
-123.99045718848097
 21
48.67063866581461
 31
0.0
  0
LINE
  5
97
330
17
100
AcDbEntity
  8
FoilLayer
100
AcDbLine
 10
-123.99045718848097
 20
48.67063866581461
 30
0.0
 11
-128.2939717524775
 21
47.74381405000702
 31
0.0
  0
LINE
  5
98
330
17
100
AcDbEntity
  8
FoilLayer
100
AcDbLine
 10
-128.2939717524775
 20
47.74381405000702
 30
0.0
 11
-132.52356523627404
 21
46.77043937464114
 31
0.0
  0
LINE
  5
99
330
17
100
AcDbEntity
  8
FoilLayer
100
AcDbLine
 10
-132.52356523627404
 20
46.77043937464114
 30
0.0
 11
-136.6745869410044
 21
45.76055296536504
 31
0.0
  0
LINE
  5
9A
330
17
100
AcDbEntity
  8
FoilLayer
100
AcDbLine
 10
-136.6745869410044
 20
45.76055296536504
 30
0.0
 11
-140.74621995009915
 21
44.723941814709185
 31
0.0
  0
LINE
  5
9B
330
17
100
AcDbEntity
  8
FoilLayer
100
AcDbLine
 10
-140.74621995009915
 20
44.723941814709185
 30
0.0
 11
-144.731947710859
 21
43.67227995811445
 31
0.0
  0
LINE
  5
9C
330
17
100
AcDbEntity
  8
FoilLayer
100
AcDbLine
 10
-144.731947710859
 20
43.67227995811445
 30
0.0
 11
-148.6111849822626
 21
42.61194528248849
 31
0.0
  0
LINE
  5
9D
330
17
100
AcDbEntity
  8
FoilLayer
100
AcDbLine
 10
-148.6111849822626
 20
42.61194528248849
 30
0.0
 11
-152.37053141164654
 21
41.52830868396888
 31
0.0
  0
LINE
  5
9E
330
17
100
AcDbEntity
  8
FoilLayer
100
AcDbLine
 10
-152.37053141164654
 20
41.52830868396888
 30
0.0
 11
-156.00264890527998
 21
40.420133674115945
 31
0.0
  0
LINE
  5
9F
330
17
100
AcDbEntity
  8
FoilLayer
100
AcDbLine
 10
-156.00264890527998
 20
40.420133674115945
 30
0.0
 11
-159.50696053641047
 21
39.28709569391145
 31
0.0
  0
LINE
  5
A0
330
17
100
AcDbEntity
  8
FoilLayer
100
AcDbLine
 10
-159.50696053641047
 20
39.28709569391145
 30
0.0
 11
-162.88436863129726
 21
38.135588612367904
 31
0.0
  0
LINE
  5
A1
330
17
100
AcDbEntity
  8
FoilLayer
100
AcDbLine
 10
-162.88436863129726
 20
38.135588612367904
 30
0.0
 11
-166.1362020612576
 21
36.97234356310524
 31
0.0
  0
LINE
  5
A2
330
17
100
AcDbEntity
  8
FoilLayer
100
AcDbLine
 10
-166.1362020612576
 20
36.97234356310524
 30
0.0
 11
-169.26357335368374
 21
35.802878891286696
 31
0.0
  0
LINE
  5
A3
330
17
100
AcDbEntity
  8
FoilLayer
100
AcDbLine
 10
-169.26357335368374
 20
35.802878891286696
 30
0.0
 11
-172.26572809634294
 21
34.632857094005224
 31
0.0
  0
LINE
  5
A4
330
17
100
AcDbEntity
  8
FoilLayer
100
AcDbLine
 10
-172.26572809634294
 20
34.632857094005224
 30
0.0
 11
-175.14204380897567
 21
33.46502137272834
 31
0.0
  0
LINE
  5
A5
330
17
100
AcDbEntity
  8
FoilLayer
100
AcDbLine
 10
-175.14204380897567
 20
33.46502137272834
 30
0.0
 11
-177.8901706741155
 21
32.30317214668103
 31
0.0
  0
LINE
  5
A6
330
17
100
AcDbEntity
  8
FoilLayer
100
AcDbLine
 10
-177.8901706741155
 20
32.30317214668103
 30
0.0
 11
-180.50890945111036
 21
31.145766413115915
 31
0.0
  0
LINE
  5
A7
330
17
100
AcDbEntity
  8
FoilLayer
100
AcDbLine
 10
-180.50890945111036
 20
31.145766413115915
 30
0.0
 11
-183.00053637186127
 21
29.989345972193018
 31
0.0
  0
LINE
  5
A8
330
17
100
AcDbEntity
  8
FoilLayer
100
AcDbLine
 10
-183.00053637186127
 20
29.989345972193018
 30
0.0
 11
-185.36637202330917
 21
28.837945877858274
 31
0.0
  0
LINE
  5
A9
330
17
100
AcDbEntity
  8
FoilLayer
100
AcDbLine
 10
-185.36637202330917
 20
28.837945877858274
 30
0.0
 11
-187.6044946881491
 21
27.700928030824254
 31
0.0
  0
LINE
  5
AA
330
17
100
AcDbEntity
  8
FoilLayer
100
AcDbLine
 10
-187.6044946881491
 20
27.700928030824254
 30
0.0
 11
-189.71421522152713
 21
26.58303568592301
 31
0.0
  0
LINE
  5
AB
330
17
100
AcDbEntity
  8
FoilLayer
100
AcDbLine
 10
-189.71421522152713
 20
26.58303568592301
 30
0.0
 11
-191.69765377460172
 21
25.48531159585923
 31
0.0
  0
LINE
  5
AC
330
17
100
AcDbEntity
  8
FoilLayer
100
AcDbLine
 10
-191.69765377460172
 20
25.48531159585923
 30
0.0
 11
-193.55980102633112
 21
24.408301400578367
 31
0.0
  0
LINE
  5
AD
330
17
100
AcDbEntity
  8
FoilLayer
100
AcDbLine
 10
-193.55980102633112
 20
24.408301400578367
 30
0.0
 11
-195.30725502708856
 21
23.35353014556913
 31
0.0
  0
LINE
  5
AE
330
17
100
AcDbEntity
  8
FoilLayer
100
AcDbLine
 10
-195.30725502708856
 20
23.35353014556913
 30
0.0
 11
-196.94629342517183
 21
22.323708867609064
 31
0.0
  0
LINE
  5
AF
330
17
100
AcDbEntity
  8
FoilLayer
100
AcDbLine
 10
-196.94629342517183
 20
22.323708867609064
 30
0.0
 11
-198.48159132502514
 21
21.32212157067264
 31
0.0
  0
LINE
  5
B0
330
17
100
AcDbEntity
  8
FoilLayer
100
AcDbLine
 10
-198.48159132502514
 20
21.32212157067264
 30
0.0
 11
-199.91871328636503
 21
20.34842135209015
 31
0.0
  0
LINE
  5
B1
330
17
100
AcDbEntity
  8
FoilLayer
100
AcDbLine
 10
-199.91871328636503
 20
20.34842135209015
 30
0.0
 11
-201.25796415528407
 21
19.40666084081578
 31
0.0
  0
LINE
  5
B2
330
17
100
AcDbEntity
  8
FoilLayer
100
AcDbLine
 10
-201.25796415528407
 20
19.40666084081578
 30
0.0
 11
-202.5086223374421
 21
18.488064004608663
 31
0.0
  0
LINE
  5
B3
330
17
100
AcDbEntity
  8
FoilLayer
100
AcDbLine
 10
-202.5086223374421
 20
18.488064004608663
 30
0.0
 11
-203.67319522765476
 21
17.595463056959495
 31
0.0
  0
LINE
  5
B4
330
17
100
AcDbEntity
  8
FoilLayer
100
AcDbLine
 10
-203.67319522765476
 20
17.595463056959495
 30
0.0
 11
-204.76177384565253
 21
16.720819621145505
 31
0.0
  0
LINE
  5
B5
330
17
100
AcDbEntity
  8
FoilLayer
100
AcDbLine
 10
-204.76177384565253
 20
16.720819621145505
 30
0.0
 11
-205.7752031930966
 21
15.870765936707834
 31
0.0
  0
LINE
  5
B6
330
17
100
AcDbEntity
  8
FoilLayer
100
AcDbLine
 10
-205.7752031930966
 20
15.870765936707834
 30
0.0
 11
-206.72348869903507
 21
15.037103723205407
 31
0.0
  0
LINE
  5
B7
330
17
100
AcDbEntity
  8
FoilLayer
100
AcDbLine
 10
-206.72348869903507
 20
15.037103723205407
 30
0.0
 11
-207.60339986534242
 21
14.230641894755125
 31
0.0
  0
LINE
  5
B8
330
17
100
AcDbEntity
  8
FoilLayer
100
AcDbLine
 10
-207.60339986534242
 20
14.230641894755125
 30
0.0
 11
-208.43133412998378
 21
13.430750022764219
 31
0.0
  0
LINE
  5
B9
330
17
100
AcDbEntity
  8
FoilLayer
100
AcDbLine
 10
-208.43133412998378
 20
13.430750022764219
 30
0.0
 11
-209.20101495297536
 21
12.655425993637628
 31
0.0
  0
LINE
  5
BA
330
17
100
AcDbEntity
  8
FoilLayer
100
AcDbLine
 10
-209.20101495297536
 20
12.655425993637628
 30
0.0
 11
-209.91779972415858
 21
11.896506781974502
 31
0.0
  0
LINE
  5
BB
330
17
100
AcDbEntity
  8
FoilLayer
100
AcDbLine
 10
-209.91779972415858
 20
11.896506781974502
 30
0.0
 11
-210.58530511131931
 21
11.151767924653493
 31
0.0
  0
LINE
  5
BC
330
17
100
AcDbEntity
  8
FoilLayer
100
AcDbLine
 10
-210.58530511131931
 20
11.151767924653493
 30
0.0
 11
-211.20601319734695
 21
10.421643710238236
 31
0.0
  0
LINE
  5
BD
330
17
100
AcDbEntity
  8
FoilLayer
100
AcDbLine
 10
-211.20601319734695
 20
10.421643710238236
 30
0.0
 11
-211.78177771990633
 21
9.706233234950965
 31
0.0
  0
LINE
  5
BE
330
17
100
AcDbEntity
  8
FoilLayer
100
AcDbLine
 10
-211.78177771990633
 20
9.706233234950965
 30
0.0
 11
-212.31639665501848
 21
9.001286330123845
 31
0.0
  0
LINE
  5
BF
330
17
100
AcDbEntity
  8
FoilLayer
100
AcDbLine
 10
-212.31639665501848
 20
9.001286330123845
 30
0.0
 11
-212.81011674178708
 21
8.311004195212906
 31
0.0
  0
LINE
  5
C0
330
17
100
AcDbEntity
  8
FoilLayer
100
AcDbLine
 10
-212.81011674178708
 20
8.311004195212906
 30
0.0
 11
-213.26455813742874
 21
7.635168002523356
 31
0.0
  0
LINE
  5
C1
330
17
100
AcDbEntity
  8
FoilLayer
100
AcDbLine
 10
-213.26455813742874
 20
7.635168002523356
 30
0.0
 11
-213.68397837351154
 21
6.967478601312634
 31
0.0
  0
LINE
  5
C2
330
17
100
AcDbEntity
  8
FoilLayer
100
AcDbLine
 10
-213.68397837351154
 20
6.967478601312634
 30
0.0
 11
-214.07325325731543
 21
6.304032329299636
 31
0.0
  0
LINE
  5
C3
330
17
100
AcDbEntity
  8
FoilLayer
100
AcDbLine
 10
-214.07325325731543
 20
6.304032329299636
 30
0.0
 11
-214.43256318151361
 21
5.652787159641456
 31
0.0
  0
LINE
  5
C4
330
17
100
AcDbEntity
  8
FoilLayer
100
AcDbLine
 10
-214.43256318151361
 20
5.652787159641456
 30
0.0
 11
-214.7531808936939
 21
5.032515032071717
 31
0.0
  0
LINE
  5
C5
330
17
100
AcDbEntity
  8
FoilLayer
100
AcDbLine
 10
-214.7531808936939
 20
5.032515032071717
 30
0.0
 11
-215.0315111896239
 21
4.433613783884911
 31
0.0
  0
LINE
  5
C6
330
17
100
AcDbEntity
  8
FoilLayer
100
AcDbLine
 10
-215.0315111896239
 20
4.433613783884911
 30
0.0
 11
-215.26808322041703
 21
3.8394630586410186
 31
0.0
  0
LINE
  5
C7
330
17
100
AcDbEntity
  8
FoilLayer
100
AcDbLine
 10
-215.26808322041703
 20
3.8394630586410186
 30
0.0
 11
-215.46772503154665
 21
3.241540426236584
 31
0.0
  0
LINE
  5
C8
330
17
100
AcDbEntity
  8
FoilLayer
100
AcDbLine
 10
-215.46772503154665
 20
3.241540426236584
 30
0.0
 11
-215.63246937725654
 21
2.652868974350507
 31
0.0
  0
LINE
  5
C9
330
17
100
AcDbEntity
  8
FoilLayer
100
AcDbLine
 10
-215.63246937725654
 20
2.652868974350507
 30
0.0
 11
-215.76517780974353
 21
2.0705149767378734
 31
0.0
  0
LINE
  5
CA
330
17
100
AcDbEntity
  8
FoilLayer
100
AcDbLine
 10
-215.76517780974353
 20
2.0705149767378734
 30
0.0
 11
-215.87343706722362
 21
1.4667627112572934
 31
0.0
  0
LINE
  5
CB
330
17
100
AcDbEntity
  8
FoilLayer
100
AcDbLine
 10
-215.87343706722362
 20
1.4667627112572934
 30
0.0
 11
-215.95285977405078
 21
0.9383547844030019
 31
0.0
  0
LINE
  5
CC
330
17
100
AcDbEntity
  8
FoilLayer
100
AcDbLine
 10
-215.95285977405078
 20
0.9383547844030019
 30
0.0
 11
-215.99999999999974
 21
0.4320811667784322
 31
0.0
  0
LINE
  5
CD
330
17
100
AcDbEntity
  8
FoilLayer
100
AcDbLine
 10
-215.99999999999974
 20
0.4320811667784322
 30
0.0
 11
-215.98810948569036
 21
-0.11236573193935499
 31
0.0
  0
LINE
  5
CE
330
17
100
AcDbEntity
  8
FoilLayer
100
AcDbLine
 10
-215.98810948569036
 20
-0.11236573193935499
 30
0.0
 11
-215.96320656296314
 21
-0.6658810870255546
 31
0.0
  0
LINE
  5
CF
330
17
100
AcDbEntity
  8
FoilLayer
100
AcDbLine
 10
-215.96320656296314
 20
-0.6658810870255546
 30
0.0
 11
-215.91937232848107
 21
-1.2014931353377103
 31
0.0
  0
LINE
  5
D0
330
17
100
AcDbEntity
  8
FoilLayer
100
AcDbLine
 10
-215.91937232848107
 20
-1.2014931353377103
 30
0.0
 11
-215.84860202029682
 21
-1.7188434866369824
 31
0.0
  0
LINE
  5
D1
330
17
100
AcDbEntity
  8
FoilLayer
100
AcDbLine
 10
-215.84860202029682
 20
-1.7188434866369824
 30
0.0
 11
-215.74191028543402
 21
-2.2289449475108953
 31
0.0
  0
LINE
  5
D2
330
17
100
AcDbEntity
  8
FoilLayer
100
AcDbLine
 10
-215.74191028543402
 20
-2.2289449475108953
 30
0.0
 11
-215.59211185923124
 21
-2.7367435006479344
 31
0.0
  0
LINE
  5
D3
330
17
100
AcDbEntity
  8
FoilLayer
100
AcDbLine
 10
-215.59211185923124
 20
-2.7367435006479344
 30
0.0
 11
-215.3921571078939
 21
-3.2496798993784113
 31
0.0
  0
LINE
  5
D4
330
17
100
AcDbEntity
  8
FoilLayer
100
AcDbLine
 10
-215.3921571078939
 20
-3.2496798993784113
 30
0.0
 11
-215.15026455407803
 21
-3.7533862679777865
 31
0.0
  0
LINE
  5
D5
330
17
100
AcDbEntity
  8
FoilLayer
100
AcDbLine
 10
-215.15026455407803
 20
-3.7533862679777865
 30
0.0
 11
-214.85267754731834
 21
-4.258430445340872
 31
0.0
  0
LINE
  5
D6
330
17
100
AcDbEntity
  8
FoilLayer
100
AcDbLine
 10
-214.85267754731834
 20
-4.258430445340872
 30
0.0
 11
-214.51062244920064
 21
-4.759919977875076
 31
0.0
  0
LINE
  5
D7
330
17
100
AcDbEntity
  8
FoilLayer
100
AcDbLine
 10
-214.51062244920064
 20
-4.759919977875076
 30
0.0
 11
-214.1220055077361
 21
-5.258655884509355
 31
0.0
  0
LINE
  5
D8
330
17
100
AcDbEntity
  8
FoilLayer
100
AcDbLine
 10
-214.1220055077361
 20
-5.258655884509355
 30
0.0
 11
-213.69197879237933
 21
-5.75197044507318
 31
0.0
  0
LINE
  5
D9
330
17
100
AcDbEntity
  8
FoilLayer
100
AcDbLine
 10
-213.69197879237933
 20
-5.75197044507318
 30
0.0
 11
-213.22530235414908
 21
-6.2358445756913765
 31
0.0
  0
LINE
  5
DA
330
17
100
AcDbEntity
  8
FoilLayer
100
AcDbLine
 10
-213.22530235414908
 20
-6.2358445756913765
 30
0.0
 11
-212.71556699719355
 21
-6.712086984766926
 31
0.0
  0
LINE
  5
DB
330
17
100
AcDbEntity
  8
FoilLayer
100
AcDbLine
 10
-212.71556699719355
 20
-6.712086984766926
 30
0.0
 11
-212.16359825692862
 21
-7.1798451983938225
 31
0.0
  0
LINE
  5
DC
330
17
100
AcDbEntity
  8
FoilLayer
100
AcDbLine
 10
-212.16359825692862
 20
-7.1798451983938225
 30
0.0
 11
-211.57054405073777
 21
-7.638037076358446
 31
0.0
  0
LINE
  5
DD
330
17
100
AcDbEntity
  8
FoilLayer
100
AcDbLine
 10
-211.57054405073777
 20
-7.638037076358446
 30
0.0
 11
-210.939703198968
 21
-8.083849890411475
 31
0.0
  0
LINE
  5
DE
330
17
100
AcDbEntity
  8
FoilLayer
100
AcDbLine
 10
-210.939703198968
 20
-8.083849890411475
 30
0.0
 11
-210.2600419614263
 21
-8.519632102807872
 31
0.0
  0
LINE
  5
DF
330
17
100
AcDbEntity
  8
FoilLayer
100
AcDbLine
 10
-210.2600419614263
 20
-8.519632102807872
 30
0.0
 11
-209.53258643927123
 21
-8.947027496710968
 31
0.0
  0
LINE
  5
E0
330
17
100
AcDbEntity
  8
FoilLayer
100
AcDbLine
 10
-209.53258643927123
 20
-8.947027496710968
 30
0.0
 11
-208.7573097053401
 21
-9.367257688934219
 31
0.0
  0
LINE
  5
E1
330
17
100
AcDbEntity
  8
FoilLayer
100
AcDbLine
 10
-208.7573097053401
 20
-9.367257688934219
 30
0.0
 11
-207.93310026084404
 21
-9.781977821173605
 31
0.0
  0
LINE
  5
E2
330
17
100
AcDbEntity
  8
FoilLayer
100
AcDbLine
 10
-207.93310026084404
 20
-9.781977821173605
 30
0.0
 11
-207.05786661992988
 21
-10.193159050283235
 31
0.0
  0
LINE
  5
E3
330
17
100
AcDbEntity
  8
FoilLayer
100
AcDbLine
 10
-207.05786661992988
 20
-10.193159050283235
 30
0.0
 11
-206.13102517166655
 21
-10.602369318312116
 31
0.0
  0
LINE
  5
E4
330
17
100
AcDbEntity
  8
FoilLayer
100
AcDbLine
 10
-206.13102517166655
 20
-10.602369318312116
 30
0.0
 11
-205.1522986326861
 21
-11.009966437812329
 31
0.0
  0
LINE
  5
E5
330
17
100
AcDbEntity
  8
FoilLayer
100
AcDbLine
 10
-205.1522986326861
 20
-11.009966437812329
 30
0.0
 11
-204.1190591727733
 21
-11.415206328721187
 31
0.0
  0
LINE
  5
E6
330
17
100
AcDbEntity
  8
FoilLayer
100
AcDbLine
 10
-204.1190591727733
 20
-11.415206328721187
 30
0.0
 11
-203.02598408570682
 21
-11.817108238294242
 31
0.0
  0
LINE
  5
E7
330
17
100
AcDbEntity
  8
FoilLayer
100
AcDbLine
 10
-203.02598408570682
 20
-11.817108238294242
 30
0.0
 11
-201.8677157224662
 21
-12.21478644189822
 31
0.0
  0
LINE
  5
E8
330
17
100
AcDbEntity
  8
FoilLayer
100
AcDbLine
 10
-201.8677157224662
 20
-12.21478644189822
 30
0.0
 11
-200.63526181169405
 21
-12.608232789447918
 31
0.0
  0
LINE
  5
E9
330
17
100
AcDbEntity
  8
FoilLayer
100
AcDbLine
 10
-200.63526181169405
 20
-12.608232789447918
 30
0.0
 11
-199.32219896515215
 21
-12.99922119653732
 31
0.0
  0
LINE
  5
EA
330
17
100
AcDbEntity
  8
FoilLayer
100
AcDbLine
 10
-199.32219896515215
 20
-12.99922119653732
 30
0.0
 11
-197.92349132975963
 21
-13.389720064917293
 31
0.0
  0
LINE
  5
EB
330
17
100
AcDbEntity
  8
FoilLayer
100
AcDbLine
 10
-197.92349132975963
 20
-13.389720064917293
 30
0.0
 11
-196.4326118522129
 21
-13.78083905687382
 31
0.0
  0
LINE
  5
EC
330
17
100
AcDbEntity
  8
FoilLayer
100
AcDbLine
 10
-196.4326118522129
 20
-13.78083905687382
 30
0.0
 11
-194.84261060285567
 21
-14.172667009540937
 31
0.0
  0
LINE
  5
ED
330
17
100
AcDbEntity
  8
FoilLayer
100
AcDbLine
 10
-194.84261060285567
 20
-14.172667009540937
 30
0.0
 11
-193.14615301754162
 21
-14.563415345231288
 31
0.0
  0
LINE
  5
EE
330
17
100
AcDbEntity
  8
FoilLayer
100
AcDbLine
 10
-193.14615301754162
 20
-14.563415345231288
 30
0.0
 11
-191.33322198557244
 21
-14.949517203690844
 31
0.0
  0
LINE
  5
EF
330
17
100
AcDbEntity
  8
FoilLayer
100
AcDbLine
 10
-191.33322198557244
 20
-14.949517203690844
 30
0.0
 11
-189.39163938080347
 21
-15.327310033495761
 31
0.0
  0
LINE
  5
F0
330
17
100
AcDbEntity
  8
FoilLayer
100
AcDbLine
 10
-189.39163938080347
 20
-15.327310033495761
 30
0.0
 11
-187.3067352050623
 21
-15.69411387216701
 31
0.0
  0
LINE
  5
F1
330
17
100
AcDbEntity
  8
FoilLayer
100
AcDbLine
 10
-187.3067352050623
 20
-15.69411387216701
 30
0.0
 11
-185.06034187004582
 21
-16.05077236321533
 31
0.0
  0
LINE
  5
F2
330
17
100
AcDbEntity
  8
FoilLayer
100
AcDbLine
 10
-185.06034187004582
 20
-16.05077236321533
 30
0.0
 11
-182.64519481796398
 21
-16.40550528214698
 31
0.0
  0
LINE
  5
F3
330
17
100
AcDbEntity
  8
FoilLayer
100
AcDbLine
 10
-182.64519481796398
 20
-16.40550528214698
 30
0.0
 11
-180.0622056927009
 21
-16.760976052813305
 31
0.0
  0
LINE
  5
F4
330
17
100
AcDbEntity
  8
FoilLayer
100
AcDbLine
 10
-180.0622056927009
 20
-16.760976052813305
 30
0.0
 11
-177.3017692473597
 21
-17.10652883672918
 31
0.0
  0
LINE
  5
F5
330
17
100
AcDbEntity
  8
FoilLayer
100
AcDbLine
 10
-177.3017692473597
 20
-17.10652883672918
 30
0.0
 11
-174.3569499505771
 21
-17.437141337488352
 31
0.0
  0
LINE
  5
F6
330
17
100
AcDbEntity
  8
FoilLayer
100
AcDbLine
 10
-174.3569499505771
 20
-17.437141337488352
 30
0.0
 11
-171.2258530600365
 21
-17.75190375957599
 31
0.0
  0
LINE
  5
F7
330
17
100
AcDbEntity
  8
FoilLayer
100
AcDbLine
 10
-171.2258530600365
 20
-17.75190375957599
 30
0.0
 11
-167.90512282063273
 21
-18.04692565957668
 31
0.0
  0
LINE
  5
F8
330
17
100
AcDbEntity
  8
FoilLayer
100
AcDbLine
 10
-167.90512282063273
 20
-18.04692565957668
 30
0.0
 11
-164.39659944491396
 21
-18.320565412383417
 31
0.0
  0
LINE
  5
F9
330
17
100
AcDbEntity
  8
FoilLayer
100
AcDbLine
 10
-164.39659944491396
 20
-18.320565412383417
 30
0.0
 11
-160.71162431466712
 21
-18.573083110962127
 31
0.0
  0
LINE
  5
FA
330
17
100
AcDbEntity
  8
FoilLayer
100
AcDbLine
 10
-160.71162431466712
 20
-18.573083110962127
 30
0.0
 11
-156.8633633398528
 21
-18.806803226143543
 31
0.0
  0
LINE
  5
FB
330
17
100
AcDbEntity
  8
FoilLayer
100
AcDbLine
 10
-156.8633633398528
 20
-18.806803226143543
 30
0.0
 11
-152.87692659465074
 21
-19.03527800145803
 31
0.0
  0
LINE
  5
FC
330
17
100
AcDbEntity
  8
FoilLayer
100
AcDbLine
 10
-152.87692659465074
 20
-19.03527800145803
 30
0.0
 11
-148.76172167290787
 21
-19.247592887841385
 31
0.0
  0
LINE
  5
FD
330
17
100
AcDbEntity
  8
FoilLayer
100
AcDbLine
 10
-148.76172167290787
 20
-19.247592887841385
 30
0.0
 11
-144.51136591461227
 21
-19.427417046010476
 31
0.0
  0
LINE
  5
FE
330
17
100
AcDbEntity
  8
FoilLayer
100
AcDbLine
 10
-144.51136591461227
 20
-19.427417046010476
 30
0.0
 11
-140.12078885081786
 21
-19.571551358813768
 31
0.0
  0
LINE
  5
FF
330
17
100
AcDbEntity
  8
FoilLayer
100
AcDbLine
 10
-140.12078885081786
 20
-19.571551358813768
 30
0.0
 11
-135.60158505347428
 21
-19.685633091828425
 31
0.0
  0
LINE
  5
100
330
17
100
AcDbEntity
  8
FoilLayer
100
AcDbLine
 10
-135.60158505347428
 20
-19.685633091828425
 30
0.0
 11
-130.97038662210545
 21
-19.771418299252908
 31
0.0
  0
LINE
  5
101
330
17
100
AcDbEntity
  8
FoilLayer
100
AcDbLine
 10
-130.97038662210545
 20
-19.771418299252908
 30
0.0
 11
-126.227735570795
 21
-19.82726738527334
 31
0.0
  0
LINE
  5
102
330
17
100
AcDbEntity
  8
FoilLayer
100
AcDbLine
 10
-126.227735570795
 20
-19.82726738527334
 30
0.0
 11
-121.39075232353959
 21
-19.878434758382294
 31
0.0
  0
LINE
  5
103
330
17
100
AcDbEntity
  8
FoilLayer
100
AcDbLine
 10
-121.39075232353959
 20
-19.878434758382294
 30
0.0
 11
-116.47637452152308
 21
-19.92137981815456
 31
0.0
  0
LINE
  5
104
330
17
100
AcDbEntity
  8
FoilLayer
100
AcDbLine
 10
-116.47637452152308
 20
-19.92137981815456
 30
0.0
 11
-111.49698338218329
 21
-19.939528943679317
 31
0.0
  0
LINE
  5
105
330
17
100
AcDbEntity
  8
FoilLayer
100
AcDbLine
 10
-111.49698338218329
 20
-19.939528943679317
 30
0.0
 11
-106.46544198902215
 21
-19.92807723174056
 31
0.0
  0
LINE
  5
106
330
17
100
AcDbEntity
  8
FoilLayer
100
AcDbLine
 10
-106.46544198902215
 20
-19.92807723174056
 30
0.0
 11
-101.51206516358053
 21
-19.8882337398158
 31
0.0
  0
LINE
  5
107
330
17
100
AcDbEntity
  8
FoilLayer
100
AcDbLine
 10
-101.51206516358053
 20
-19.8882337398158
 30
0.0
 11
-101.50361954907407
 21
-20.938199773359557
 31
0.0
  0
LINE
  5
108
330
17
100
AcDbEntity
  8
FoilLayer
100
AcDbLine
 10
-101.50361954907407
 20
-20.938199773359557
 30
0.0
 11
-101.37565924973639
 21
-20.937177261067728
 31
0.0
  0
LINE
  5
109
330
17
100
AcDbEntity
  8
FoilLayer
100
AcDbLine
 10
-101.37565924973639
 20
-20.937177261067728
 30
0.0
 11
-96.24830314884406
 21
-20.867823857231844
 31
0.0
  0
LINE
  5
10A
330
17
100
AcDbEntity
  8
FoilLayer
100
AcDbLine
 10
-96.24830314884406
 20
-20.867823857231844
 30
0.0
 11
-91.07374102849954
 21
-20.783185717731023
 31
0.0
  0
LINE
  5
10B
330
17
100
AcDbEntity
  8
FoilLayer
100
AcDbLine
 10
-91.07374102849954
 20
-20.783185717731023
 30
0.0
 11
-85.85967487603156
 21
-20.697295998862632
 31
0.0
  0
LINE
  5
10C
330
17
100
AcDbEntity
  8
FoilLayer
100
AcDbLine
 10
-85.85967487603156
 20
-20.697295998862632
 30
0.0
 11
-80.61321662181564
 21
-20.594471613473882
 31
0.0
  0
LINE
  5
10D
330
17
100
AcDbEntity
  8
FoilLayer
100
AcDbLine
 10
-80.61321662181564
 20
-20.594471613473882
 30
0.0
 11
-75.34298316131546
 21
-20.469840603347258
 31
0.0
  0
LINE
  5
10E
330
17
100
AcDbEntity
  8
FoilLayer
100
AcDbLine
 10
-75.34298316131546
 20
-20.469840603347258
 30
0.0
 11
-70.05153606195614
 21
-20.32032969064599
 31
0.0
  0
LINE
  5
10F
330
17
100
AcDbEntity
  8
FoilLayer
100
AcDbLine
 10
-70.05153606195614
 20
-20.32032969064599
 30
0.0
 11
-64.73402387151236
 21
-20.151978747978024
 31
0.0
  0
LINE
  5
110
330
17
100
AcDbEntity
  8
FoilLayer
100
AcDbLine
 10
-64.73402387151236
 20
-20.151978747978024
 30
0.0
 11
-59.38661114479541
 21
-19.974531377015367
 31
0.0
  0
LINE
  5
111
330
17
100
AcDbEntity
  8
FoilLayer
100
AcDbLine
 10
-59.38661114479541
 20
-19.974531377015367
 30
0.0
 11
-54.01119498035601
 21
-19.792885129344487
 31
0.0
  0
LINE
  5
112
330
17
100
AcDbEntity
  8
FoilLayer
100
AcDbLine
 10
-54.01119498035601
 20
-19.792885129344487
 30
0.0
 11
-48.614731752379356
 21
-19.607097524949012
 31
0.0
  0
LINE
  5
113
330
17
100
AcDbEntity
  8
FoilLayer
100
AcDbLine
 10
-48.614731752379356
 20
-19.607097524949012
 30
0.0
 11
-43.19808192302531
 21
-19.409377057892357
 31
0.0
  0
LINE
  5
114
330
17
100
AcDbEntity
  8
FoilLayer
100
AcDbLine
 10
-43.19808192302531
 20
-19.409377057892357
 30
0.0
 11
-37.76469267227401
 21
-19.195432739983733
 31
0.0
  0
LINE
  5
115
330
17
100
AcDbEntity
  8
FoilLayer
100
AcDbLine
 10
-37.76469267227401
 20
-19.195432739983733
 30
0.0
 11
-32.31271175061471
 21
-18.967897988454347
 31
0.0
  0
LINE
  5
116
330
17
100
AcDbEntity
  8
FoilLayer
100
AcDbLine
 10
-32.31271175061471
 20
-18.967897988454347
 30
0.0
 11
-26.842600334132726
 21
-18.729052924351567
 31
0.0
  0
LINE
  5
117
330
17
100
AcDbEntity
  8
FoilLayer
100
AcDbLine
 10
-26.842600334132726
 20
-18.729052924351567
 30
0.0
 11
-21.359043380877864
 21
-18.485685504669704
 31
0.0
  0
LINE
  5
118
330
17
100
AcDbEntity
  8
FoilLayer
100
AcDbLine
 10
-21.359043380877864
 20
-18.485685504669704
 30
0.0
 11
-15.864345053963433
 21
-18.240583002544867
 31
0.0
  0
LINE
  5
119
330
17
100
AcDbEntity
  8
FoilLayer
100
AcDbLine
 10
-15.864345053963433
 20
-18.240583002544867
 30
0.0
 11
-10.359704200215162
 21
-17.9924280690628
 31
0.0
  0
LINE
  5
11A
330
17
100
AcDbEntity
  8
FoilLayer
100
AcDbLine
 10
-10.359704200215162
 20
-17.9924280690628
 30
0.0
 11
-4.846482250164513
 21
-17.738572717172673
 31
0.0
  0
LINE
  5
11B
330
17
100
AcDbEntity
  8
FoilLayer
100
AcDbLine
 10
-4.846482250164513
 20
-17.738572717172673
 30
0.0
 11
0.6726761049417576
 21
-17.47736847561886
 31
0.0
  0
LINE
  5
11C
330
17
100
AcDbEntity
  8
FoilLayer
100
AcDbLine
 10
0.6726761049417576
 20
-17.47736847561886
 30
0.0
 11
6.198362312281432
 21
-17.207443974349385
 31
0.0
  0
LINE
  5
11D
330
17
100
AcDbEntity
  8
FoilLayer
100
AcDbLine
 10
6.198362312281432
 20
-17.207443974349385
 30
0.0
 11
11.730723372999392
 21
-16.93101925099511
 31
0.0
  0
LINE
  5
11E
330
17
100
AcDbEntity
  8
FoilLayer
100
AcDbLine
 10
11.730723372999392
 20
-16.93101925099511
 30
0.0
 11
17.265292922507967
 21
-16.649363954844837
 31
0.0
  0
LINE
  5
11F
330
17
100
AcDbEntity
  8
FoilLayer
100
AcDbLine
 10
17.265292922507967
 20
-16.649363954844837
 30
0.0
 11
22.79950079975103
 21
-16.362373463810112
 31
0.0
  0
LINE
  5
120
330
17
100
AcDbEntity
  8
FoilLayer
100
AcDbLine
 10
22.79950079975103
 20
-16.362373463810112
 30
0.0
 11
28.330401187129524
 21
-16.072755269318886
 31
0.0
  0
LINE
  5
121
330
17
100
AcDbEntity
  8
FoilLayer
100
AcDbLine
 10
28.330401187129524
 20
-16.072755269318886
 30
0.0
 11
33.85494235235603
 21
-15.782088306730753
 31
0.0
  0
LINE
  5
122
330
17
100
AcDbEntity
  8
FoilLayer
100
AcDbLine
 10
33.85494235235603
 20
-15.782088306730753
 30
0.0
 11
39.37353966998566
 21
-15.488757601260883
 31
0.0
  0
LINE
  5
123
330
17
100
AcDbEntity
  8
FoilLayer
100
AcDbLine
 10
39.37353966998566
 20
-15.488757601260883
 30
0.0
 11
44.89156417204177
 21
-15.188856723390229
 31
0.0
  0
LINE
  5
124
330
17
100
AcDbEntity
  8
FoilLayer
100
AcDbLine
 10
44.89156417204177
 20
-15.188856723390229
 30
0.0
 11
50.41233422055981
 21
-14.878143150794342
 31
0.0
  0
LINE
  5
125
330
17
100
AcDbEntity
  8
FoilLayer
100
AcDbLine
 10
50.41233422055981
 20
-14.878143150794342
 30
0.0
 11
55.935896743420386
 21
-14.557124764462033
 31
0.0
  0
LINE
  5
126
330
17
100
AcDbEntity
  8
FoilLayer
100
AcDbLine
 10
55.935896743420386
 20
-14.557124764462033
 30
0.0
 11
61.46148433815617
 21
-14.231665101372586
 31
0.0
  0
LINE
  5
127
330
17
100
AcDbEntity
  8
FoilLayer
100
AcDbLine
 10
61.46148433815617
 20
-14.231665101372586
 30
0.0
 11
66.98948656322406
 21
-13.908694491257503
 31
0.0
  0
LINE
  5
128
330
17
100
AcDbEntity
  8
FoilLayer
100
AcDbLine
 10
66.98948656322406
 20
-13.908694491257503
 30
0.0
 11
72.52041606479602
 21
-13.591787897881856
 31
0.0
  0
LINE
  5
129
330
17
100
AcDbEntity
  8
FoilLayer
100
AcDbLine
 10
72.52041606479602
 20
-13.591787897881856
 30
0.0
 11
78.05393428614141
 21
-13.276718525199225
 31
0.0
  0
LINE
  5
12A
330
17
100
AcDbEntity
  8
FoilLayer
100
AcDbLine
 10
78.05393428614141
 20
-13.276718525199225
 30
0.0
 11
83.5885697658176
 21
-12.952695723495372
 31
0.0
  0
LINE
  5
12B
330
17
100
AcDbEntity
  8
FoilLayer
100
AcDbLine
 10
83.5885697658176
 20
-12.952695723495372
 30
0.0
 11
89.12420313817083
 21
-12.614740820451427
 31
0.0
  0
LINE
  5
12C
330
17
100
AcDbEntity
  8
FoilLayer
100
AcDbLine
 10
89.12420313817083
 20
-12.614740820451427
 30
0.0
 11
94.6622731065398
 21
-12.270079265897467
 31
0.0
  0
LINE
  5
12D
330
17
100
AcDbEntity
  8
FoilLayer
100
AcDbLine
 10
94.6622731065398
 20
-12.270079265897467
 30
0.0
 11
100.20594253672996
 21
-11.930440374465938
 31
0.0
  0
LINE
  5
12E
330
17
100
AcDbEntity
  8
FoilLayer
100
AcDbLine
 10
100.20594253672996
 20
-11.930440374465938
 30
0.0
 11
105.75862141326266
 21
-11.600618655293836
 31
0.0
  0
LINE
  5
12F
330
17
100
AcDbEntity
  8
FoilLayer
100
AcDbLine
 10
105.75862141326266
 20
-11.600618655293836
 30
0.0
 11
111.31854781289647
 21
-11.277955303666337
 31
0.0
  0
LINE
  5
130
330
17
100
AcDbEntity
  8
FoilLayer
100
AcDbLine
 10
111.31854781289647
 20
-11.277955303666337
 30
0.0
 11
116.88120273643071
 21
-10.947846599619774
 31
0.0
  0
LINE
  5
131
330
17
100
AcDbEntity
  8
FoilLayer
100
AcDbLine
 10
116.88120273643071
 20
-10.947846599619774
 30
0.0
 11
122.44693942520465
 21
-10.593689983968895
 31
0.0
  0
LINE
  5
132
330
17
100
AcDbEntity
  8
FoilLayer
100
AcDbLine
 10
122.44693942520465
 20
-10.593689983968895
 30
0.0
 11
128.01659819623185
 21
-10.22111416577421
 31
0.0
  0
LINE
  5
133
330
17
100
AcDbEntity
  8
FoilLayer
100
AcDbLine
 10
128.01659819623185
 20
-10.22111416577421
 30
0.0
 11
133.58850491371962
 21
-9.851768136041343
 31
0.0
  0
LINE
  5
134
330
17
100
AcDbEntity
  8
FoilLayer
100
AcDbLine
 10
133.58850491371962
 20
-9.851768136041343
 30
0.0
 11
139.16314715221532
 21
-9.498168250563898
 31
0.0
  0
LINE
  5
135
330
17
100
AcDbEntity
  8
FoilLayer
100
AcDbLine
 10
139.16314715221532
 20
-9.498168250563898
 30
0.0
 11
144.74057582381195
 21
-9.15551908306001
 31
0.0
  0
LINE
  5
136
330
17
100
AcDbEntity
  8
FoilLayer
100
AcDbLine
 10
144.74057582381195
 20
-9.15551908306001
 30
0.0
 11
150.31830523464524
 21
-8.810127621318475
 31
0.0
  0
LINE
  5
137
330
17
100
AcDbEntity
  8
FoilLayer
100
AcDbLine
 10
150.31830523464524
 20
-8.810127621318475
 30
0.0
 11
155.89415616321727
 21
-8.442733599558897
 31
0.0
  0
LINE
  5
138
330
17
100
AcDbEntity
  8
FoilLayer
100
AcDbLine
 10
155.89415616321727
 20
-8.442733599558897
 30
0.0
 11
161.4688912685916
 21
-8.055895823795662
 31
0.0
  0
LINE
  5
139
330
17
100
AcDbEntity
  8
FoilLayer
100
AcDbLine
 10
161.4688912685916
 20
-8.055895823795662
 30
0.0
 11
167.04061868874513
 21
-7.675481075937259
 31
0.0
  0
LINE
  5
13A
330
17
100
AcDbEntity
  8
FoilLayer
100
AcDbLine
 10
167.04061868874513
 20
-7.675481075937259
 30
0.0
 11
172.61175258616495
 21
-7.308652820653898
 31
0.0
  0
LINE
  5
13B
330
17
100
AcDbEntity
  8
FoilLayer
100
AcDbLine
 10
172.61175258616495
 20
-7.308652820653898
 30
0.0
 11
178.18552358001202
 21
-6.9553166882585336
 31
0.0
  0
LINE
  5
13C
330
17
100
AcDbEntity
  8
FoilLayer
100
AcDbLine
 10
178.18552358001202
 20
-6.9553166882585336
 30
0.0
 11
183.76184160893754
 21
-6.6065695911284
 31
0.0
  0
LINE
  5
13D
330
17
100
AcDbEntity
  8
FoilLayer
100
AcDbLine
 10
183.76184160893754
 20
-6.6065695911284
 30
0.0
 11
189.33481570196298
 21
-6.245516568126414
 31
0.0
  0
LINE
  5
13E
330
17
100
AcDbEntity
  8
FoilLayer
100
AcDbLine
 10
189.33481570196298
 20
-6.245516568126414
 30
0.0
 11
194.89913774663145
 21
-5.8639597721479095
 31
0.0
  0
LINE
  5
13F
330
17
100
AcDbEntity
  8
FoilLayer
100
AcDbLine
 10
194.89913774663145
 20
-5.8639597721479095
 30
0.0
 11
200.45025525667282
 21
-5.486960792707096
 31
0.0
  0
LINE
  5
140
330
17
100
AcDbEntity
  8
FoilLayer
100
AcDbLine
 10
200.45025525667282
 20
-5.486960792707096
 30
0.0
 11
205.98801487996198
 21
-5.127837177230055
 31
0.0
  0
LINE
  5
141
330
17
100
AcDbEntity
  8
FoilLayer
100
AcDbLine
 10
205.98801487996198
 20
-5.127837177230055
 30
0.0
 11
211.51882053416043
 21
-4.782593080357255
 31
0.0
  0
LINE
  5
142
330
17
100
AcDbEntity
  8
FoilLayer
100
AcDbLine
 10
211.51882053416043
 20
-4.782593080357255
 30
0.0
 11
217.0410172934173
 21
-4.4507944538235735
 31
0.0
  0
LINE
  5
143
330
17
100
AcDbEntity
  8
FoilLayer
100
AcDbLine
 10
217.0410172934173
 20
-4.4507944538235735
 30
0.0
 11
222.54195438732975
 21
-4.126271632490609
 31
0.0
  0
LINE
  5
144
330
17
100
AcDbEntity
  8
FoilLayer
100
AcDbLine
 10
222.54195438732975
 20
-4.126271632490609
 30
0.0
 11
228.02122845152482
 21
-3.79428688502513
 31
0.0
  0
LINE
  5
145
330
17
100
AcDbEntity
  8
FoilLayer
100
AcDbLine
 10
228.02122845152482
 20
-3.79428688502513
 30
0.0
 11
233.49076466366884
 21
-3.4641814368647905
 31
0.0
  0
LINE
  5
146
330
17
100
AcDbEntity
  8
FoilLayer
100
AcDbLine
 10
233.49076466366884
 20
-3.4641814368647905
 30
0.0
 11
238.9568369774441
 21
-3.1525071731005863
 31
0.0
  0
LINE
  5
147
330
17
100
AcDbEntity
  8
FoilLayer
100
AcDbLine
 10
238.9568369774441
 20
-3.1525071731005863
 30
0.0
 11
244.4150551319249
 21
-2.853305752708857
 31
0.0
  0
LINE
  5
148
330
17
100
AcDbEntity
  8
FoilLayer
100
AcDbLine
 10
244.4150551319249
 20
-2.853305752708857
 30
0.0
 11
249.85568146569844
 21
-2.5591592058364983
 31
0.0
  0
LINE
  5
149
330
17
100
AcDbEntity
  8
FoilLayer
100
AcDbLine
 10
249.85568146569844
 20
-2.5591592058364983
 30
0.0
 11
255.25685727563334
 21
-2.27995146425439
 31
0.0
  0
LINE
  5
14A
330
17
100
AcDbEntity
  8
FoilLayer
100
AcDbLine
 10
255.25685727563334
 20
-2.27995146425439
 30
0.0
 11
260.6170161760506
 21
-2.0140853042673963
 31
0.0
  0
LINE
  5
14B
330
17
100
AcDbEntity
  8
FoilLayer
100
AcDbLine
 10
260.6170161760506
 20
-2.0140853042673963
 30
0.0
 11
265.96949069308175
 21
-1.7572108636561206
 31
0.0
  0
LINE
  5
14C
330
17
100
AcDbEntity
  8
FoilLayer
100
AcDbLine
 10
265.96949069308175
 20
-1.7572108636561206
 30
0.0
 11
271.32030958974383
 21
-1.5060601157041436
 31
0.0
  0
LINE
  5
14D
330
17
100
AcDbEntity
  8
FoilLayer
100
AcDbLine
 10
271.32030958974383
 20
-1.5060601157041436
 30
0.0
 11
276.6485298554891
 21
-1.2635618070215786
 31
0.0
  0
LINE
  5
14E
330
17
100
AcDbEntity
  8
FoilLayer
100
AcDbLine
 10
276.6485298554891
 20
-1.2635618070215786
 30
0.0
 11
281.9461688389249
 21
-1.046840007443596
 31
0.0
  0
LINE
  5
14F
330
17
100
AcDbEntity
  8
FoilLayer
100
AcDbLine
 10
281.9461688389249
 20
-1.046840007443596
 30
0.0
 11
287.22791972428206
 21
-0.8621284568609894
 31
0.0
  0
LINE
  5
150
330
17
100
AcDbEntity
  8
FoilLayer
100
AcDbLine
 10
287.22791972428206
 20
-0.8621284568609894
 30
0.0
 11
292.49430243243523
 21
-0.6794930960850003
 31
0.0
  0
LINE
  5
151
330
17
100
AcDbEntity
  8
FoilLayer
100
AcDbLine
 10
292.49430243243523
 20
-0.6794930960850003
 30
0.0
 11
297.72831828361996
 21
-0.48453562476202167
 31
0.0
  0
LINE
  5
152
330
17
100
AcDbEntity
  8
FoilLayer
100
AcDbLine
 10
297.72831828361996
 20
-0.48453562476202167
 30
0.0
 11
302.9194396440879
 21
-0.3085480934741102
 31
0.0
  0
LINE
  5
153
330
17
100
AcDbEntity
  8
FoilLayer
100
AcDbLine
 10
302.9194396440879
 20
-0.3085480934741102
 30
0.0
 11
308.07796527037465
 21
-0.17545587343173003
 31
0.0
  0
LINE
  5
154
330
17
100
AcDbEntity
  8
FoilLayer
100
AcDbLine
 10
308.07796527037465
 20
-0.17545587343173003
 30
0.0
 11
313.2166887365005
 21
-0.06370244541255304
 31
0.0
  0
LINE
  5
155
330
17
100
AcDbEntity
  8
FoilLayer
100
AcDbLine
 10
313.2166887365005
 20
-0.06370244541255304
 30
0.0
 11
318.30395004361696
 21
0.038771975907995415
 31
0.0
  0
LINE
  5
156
330
17
100
AcDbEntity
  8
FoilLayer
100
AcDbLine
 10
318.30395004361696
 20
0.038771975907995415
 30
0.0
 11
323.288011826756
 21
0.11408883439403839
 31
0.0
  0
LINE
  5
157
330
17
100
AcDbEntity
  8
FoilLayer
100
AcDbLine
 10
323.288011826756
 20
0.11408883439403839
 30
0.0
 11
328.16377486055626
 21
0.1492961959568268
 31
0.0
  0
LINE
  5
158
330
17
100
AcDbEntity
  8
FoilLayer
100
AcDbLine
 10
328.16377486055626
 20
0.1492961959568268
 30
0.0
 11
332.9397998334946
 21
0.15945934237044163
 31
0.0
  0
LINE
  5
159
330
17
100
AcDbEntity
  8
FoilLayer
100
AcDbLine
 10
332.9397998334946
 20
0.15945934237044163
 30
0.0
 11
337.57369336085844
 21
0.15605624853325994
 31
0.0
  0
LINE
  5
15A
330
17
100
AcDbEntity
  8
FoilLayer
100
AcDbLine
 10
337.57369336085844
 20
0.15605624853325994
 30
0.0
 11
342.0209747393908
 21
0.13683866125370092
 31
0.0
  0
LINE
  5
15B
330
17
100
AcDbEntity
  8
FoilLayer
100
AcDbLine
 10
342.0209747393908
 20
0.13683866125370092
 30
0.0
 11
346.2394329546004
 21
0.09459293193727442
 31
0.0
  0
LINE
  5
15C
330
17
100
AcDbEntity
  8
FoilLayer
100
AcDbLine
 10
346.2394329546004
 20
0.09459293193727442
 30
0.0
 11
350.21089539024285
 21
0.040590437702052784
 31
0.0
  0
LINE
  5
15D
330
17
100
AcDbEntity
  8
FoilLayer
100
AcDbLine
 10
350.21089539024285
 20
0.040590437702052784
 30
0.0
 11
353.9219795572267
 21
-0.010508475442599308
 31
0.0
  0
LINE
  5
15E
330
17
100
AcDbEntity
  8
FoilLayer
100
AcDbLine
 10
353.9219795572267
 20
-0.010508475442599308
 30
0.0
 11
357.3631360303807
 21
-0.07338886166535485
 31
0.0
  0
LINE
  5
15F
330
17
100
AcDbEntity
  8
FoilLayer
100
AcDbLine
 10
357.3631360303807
 20
-0.07338886166535485
 30
0.0
 11
360.5321654730121
 21
-0.1448277119042286
 31
0.0
  0
LINE
  5
160
330
17
100
AcDbEntity
  8
FoilLayer
100
AcDbLine
 10
360.5321654730121
 20
-0.1448277119042286
 30
0.0
 11
362.49644919431364
 21
-0.19943239568305127
 31
0.0
  0
LINE
  5
161
330
17
100
AcDbEntity
  8
FoilLayer
100
AcDbLine
 10
362.49644919431364
 20
-0.19943239568305127
 30
0.0
 11
362.3896106552796
 21
0.14526015127716774
 31
0.0
  0
LINE
  5
162
330
17
100
AcDbEntity
  8
StringerLayer
100
AcDbLine
 10
156.60142244946024
 20
40.8218232101412
 30
0.0
 11
160.54417280984615
 21
40.14749421352548
 31
0.0
  0
LINE
  5
163
330
17
100
AcDbEntity
  8
StringerLayer
100
AcDbLine
 10
160.54417280984615
 20
40.14749421352548
 30
0.0
 11
161.21850180646186
 21
44.0902445739114
 31
0.0
  0
LINE
  5
164
330
17
100
AcDbEntity
  8
StringerLayer
100
AcDbLine
 10
161.21850180646186
 20
44.0902445739114
 30
0.0
 11
157.27575144607596
 21
44.76457357052711
 31
0.0
  0
LINE
  5
165
330
17
100
AcDbEntity
  8
StringerLayer
100
AcDbLine
 10
157.27575144607596
 20
44.76457357052711
 30
0.0
 11
156.60142244946024
 21
40.8218232101412
 31
0.0
  0
LINE
  5
166
330
17
100
AcDbEntity
  8
StringerLayer
100
AcDbLine
 10
-62.46981414315466
 20
53.24724097678774
 30
0.0
 11
-58.48173067374508
 21
53.555770134278674
 31
0.0
  0
LINE
  5
167
330
17
100
AcDbEntity
  8
StringerLayer
100
AcDbLine
 10
-58.48173067374508
 20
53.555770134278674
 30
0.0
 11
-58.79025983123602
 21
57.54385360368825
 31
0.0
  0
LINE
  5
168
330
17
100
AcDbEntity
  8
StringerLayer
100
AcDbLine
 10
-58.79025983123602
 20
57.54385360368825
 30
0.0
 11
-62.778343300645595
 21
57.23532444619731
 31
0.0
  0
LINE
  5
169
330
17
100
AcDbEntity
  8
StringerLayer
100
AcDbLine
 10
-62.778343300645595
 20
57.23532444619731
 30
0.0
 11
-62.46981414315466
 21
53.24724097678774
 31
0.0
  0
LINE
  5
16A
330
17
100
AcDbEntity
  8
StringerLayer
100
AcDbLine
 10
-159.71065041307196
 20
35.017073413302874
 30
0.0
 11
-155.9047096462849
 21
36.247851573536586
 31
0.0
  0
LINE
  5
16B
330
17
100
AcDbEntity
  8
StringerLayer
100
AcDbLine
 10
-155.9047096462849
 20
36.247851573536586
 30
0.0
 11
-157.13548780651863
 21
40.05379234032365
 31
0.0
  0
LINE
  5
16C
330
17
100
AcDbEntity
  8
StringerLayer
100
AcDbLine
 10
-157.13548780651863
 20
40.05379234032365
 30
0.0
 11
-160.94142857330567
 21
38.82301418008994
 31
0.0
  0
LINE
  5
16D
330
17
100
AcDbEntity
  8
StringerLayer
100
AcDbLine
 10
-160.94142857330567
 20
38.82301418008994
 30
0.0
 11
-159.71065041307196
 21
35.017073413302874
 31
0.0
  0
LINE
  5
16E
330
17
100
AcDbEntity
  8
StringerLayer
100
AcDbLine
 10
-205.69631984958588
 20
10.51076322810635
 30
0.0
 11
-204.25835714730184
 21
11.900821955944858
 31
0.0
  0
LINE
  5
16F
330
17
100
AcDbEntity
  8
StringerLayer
100
AcDbLine
 10
-204.25835714730184
 20
11.900821955944858
 30
0.0
 11
-207.03847460297885
 21
14.776747360512916
 31
0.0
  0
LINE
  5
170
330
17
100
AcDbEntity
  8
StringerLayer
100
AcDbLine
 10
-207.03847460297885
 20
14.776747360512916
 30
0.0
 11
-208.4764373052629
 21
13.386688632674408
 31
0.0
  0
LINE
  5
171
330
17
100
AcDbEntity
  8
StringerLayer
100
AcDbLine
 10
-208.4764373052629
 20
13.386688632674408
 30
0.0
 11
-205.69631984958588
 21
10.51076322810635
 31
0.0
  0
LINE
  5
172
330
17
100
AcDbEntity
  8
StringerLayer
100
AcDbLine
 10
-207.8951896152715
 20
-5.282585021707814
 30
0.0
 11
-209.58032627260562
 21
-4.205406092231016
 31
0.0
  0
LINE
  5
173
330
17
100
AcDbEntity
  8
StringerLayer
100
AcDbLine
 10
-209.58032627260562
 20
-4.205406092231016
 30
0.0
 11
-211.73468413155922
 21
-7.575679406899259
 31
0.0
  0
LINE
  5
174
330
17
100
AcDbEntity
  8
StringerLayer
100
AcDbLine
 10
-211.73468413155922
 20
-7.575679406899259
 30
0.0
 11
-210.0495474742251
 21
-8.652858336376058
 31
0.0
  0
LINE
  5
175
330
17
100
AcDbEntity
  8
StringerLayer
100
AcDbLine
 10
-210.0495474742251
 20
-8.652858336376058
 30
0.0
 11
-207.8951896152715
 21
-5.282585021707814
 31
0.0
  0
LINE
  5
176
330
17
100
AcDbEntity
  8
StringerLayer
100
AcDbLine
 10
-128.4353768098861
 20
-15.800992480749217
 30
0.0
 11
-132.4350995046524
 21
-15.753892958763346
 31
0.0
  0
LINE
  5
177
330
17
100
AcDbEntity
  8
StringerLayer
100
AcDbLine
 10
-132.4350995046524
 20
-15.753892958763346
 30
0.0
 11
-132.48219902663828
 21
-19.75361565352966
 31
0.0
  0
LINE
  5
178
330
17
100
AcDbEntity
  8
StringerLayer
100
AcDbLine
 10
-132.48219902663828
 20
-19.75361565352966
 30
0.0
 11
-128.48247633187196
 21
-19.80071517551553
 31
0.0
  0
LINE
  5
179
330
17
100
AcDbEntity
  8
StringerLayer
100
AcDbLine
 10
-128.48247633187196
 20
-19.80071517551553
 30
0.0
 11
-128.4353768098861
 21
-15.800992480749217
 31
0.0
  0
LINE
  5
17A
330
17
100
AcDbEntity
  8
SubLayer
100
AcDbLine
 10
-217.49999999999974
 20
0.0
 30
0.0
 11
-213.49999999999974
 21
0.0
 31
0.0
  0
LINE
  5
17B
330
17
100
AcDbEntity
  8
SubLayer
100
AcDbLine
 10
41.49999999999997
 20
0.0
 30
0.0
 11
51.299999999999926
 21
0.0
 31
0.0
  0
LINE
  5
17C
330
17
100
AcDbEntity
  8
SubLayer
100
AcDbLine
 10
-30.635442864924293
 20
19.1167647589718
 30
0.0
 11
-22.65902084710893
 21
19.730516983986348
 31
0.0
  0
LINE
  5
17D
330
17
100
AcDbEntity
  8
SubLayer
100
AcDbLine
 10
22.65902084710893
 20
23.217550250406504
 30
0.0
 11
30.635442864924293
 21
23.83130247542105
 31
0.0
  0
LINE
  5
17E
330
17
100
AcDbEntity
  8
SubLayer
100
AcDbLine
 10
-2.1722225623827383
 20
49.70458524374938
 30
0.0
 11
-1.5584703373681892
 21
41.72816322593402
 31
0.0
  0
LINE
  5
17F
330
17
100
AcDbEntity
  8
SubLayer
100
AcDbLine
 10
2.1722225623827383
 20
-6.75651800935653
 30
0.0
 11
1.5584703373681892
 21
1.2199040084588333
 31
0.0
  0
LINE
  5
180
330
17
100
AcDbEntity
  8
SubLayer
100
AcDbLine
 10
-28.487899304216814
 20
17.276097310771593
 30
0.0
 11
-24.49968829530913
 21
17.58297342327887
 31
0.0
  0
LINE
  5
181
330
17
100
AcDbEntity
  8
SubLayer
100
AcDbLine
 10
-24.49968829530913
 20
17.58297342327887
 30
0.0
 11
-24.806564407816406
 21
21.571184432186552
 31
0.0
  0
LINE
  5
182
330
17
100
AcDbEntity
  8
SubLayer
100
AcDbLine
 10
-24.806564407816406
 20
21.571184432186552
 30
0.0
 11
-28.79477541672409
 21
21.264308319679277
 31
0.0
  0
LINE
  5
183
330
17
100
AcDbEntity
  8
SubLayer
100
AcDbLine
 10
-28.79477541672409
 20
21.264308319679277
 30
0.0
 11
-28.487899304216814
 21
17.276097310771593
 31
0.0
  0
LINE
  5
184
330
17
100
AcDbEntity
  8
SubLayer
100
AcDbLine
 10
24.806564407816406
 20
21.3768828022063
 30
0.0
 11
28.79477541672409
 21
21.683758914713575
 31
0.0
  0
LINE
  5
185
330
17
100
AcDbEntity
  8
SubLayer
100
AcDbLine
 10
28.79477541672409
 20
21.683758914713575
 30
0.0
 11
28.487899304216814
 21
25.67196992362126
 31
0.0
  0
LINE
  5
186
330
17
100
AcDbEntity
  8
SubLayer
100
AcDbLine
 10
28.487899304216814
 20
25.67196992362126
 30
0.0
 11
24.49968829530913
 21
25.365093811113983
 31
0.0
  0
LINE
  5
187
330
17
100
AcDbEntity
  8
SubLayer
100
AcDbLine
 10
24.49968829530913
 20
25.365093811113983
 30
0.0
 11
24.806564407816406
 21
21.3768828022063
 31
0.0
  0
LINE
  5
188
330
17
100
AcDbEntity
  8
SubLayer
100
AcDbLine
 10
-3.7060138980756667
 20
43.56883067413422
 30
0.0
 11
0.28219711083201426
 21
43.875706786641494
 31
0.0
  0
LINE
  5
189
330
17
100
AcDbEntity
  8
SubLayer
100
AcDbLine
 10
0.28219711083201426
 20
43.875706786641494
 30
0.0
 11
-0.024679001675260492
 21
47.86391779554917
 31
0.0
  0
LINE
  5
18A
330
17
100
AcDbEntity
  8
SubLayer
100
AcDbLine
 10
-0.024679001675260492
 20
47.86391779554917
 30
0.0
 11
-4.012890010582941
 21
47.557041683041895
 31
0.0
  0
LINE
  5
18B
330
17
100
AcDbEntity
  8
SubLayer
100
AcDbLine
 10
-4.012890010582941
 20
47.557041683041895
 30
0.0
 11
-3.7060138980756667
 21
43.56883067413422
 31
0.0
  0
LINE
  5
18C
330
17
100
AcDbEntity
  8
SubLayer
100
AcDbLine
 10
0.024679001675260492
 20
-4.915850561156326
 30
0.0
 11
4.012890010582941
 21
-4.608974448649051
 31
0.0
  0
LINE
  5
18D
330
17
100
AcDbEntity
  8
SubLayer
100
AcDbLine
 10
4.012890010582941
 20
-4.608974448649051
 30
0.0
 11
3.7060138980756667
 21
-0.6207634397413702
 31
0.0
  0
LINE
  5
18E
330
17
100
AcDbEntity
  8
SubLayer
100
AcDbLine
 10
3.7060138980756667
 20
-0.6207634397413702
 30
0.0
 11
-0.28219711083201426
 21
-0.9276395522486449
 31
0.0
  0
LINE
  5
18F
330
17
100
AcDbEntity
  8
SubLayer
100
AcDbLine
 10
-0.28219711083201426
 20
-0.9276395522486449
 30
0.0
 11
0.024679001675260492
 21
-4.915850561156326
 31
0.0
  0
LINE
  5
190
330
17
100
AcDbEntity
  8
SubLayer
100
AcDbLine
 10
254.7568438289028
 20
25.303008045866004
 30
0.0
 11
258.74505483781047
 21
25.60988415837328
 31
0.0
  0
LINE
  5
191
330
17
100
AcDbEntity
  8
SubLayer
100
AcDbLine
 10
-208.97763945274636
 20
-10.37941576450775
 30
0.0
 11
-204.98942844383868
 21
-10.072539652000474
 31
0.0
  0
LINE
  5
192
330
17
100
AcDbEntity
  8
SubLayer
100
AcDbLine
 10
-117.22779554864347
 20
-3.3196500305598176
 30
0.0
 11
-111.24547903528195
 21
-2.8593358617989053
 31
0.0
  0
LINE
  5
193
330
17
100
AcDbEntity
  8
SubLayer
100
AcDbLine
 10
161.01289442034604
 20
18.089804255664436
 30
0.0
 11
166.99521093370757
 21
18.550118424425346
 31
0.0
  0
LINE
  5
194
330
17
100
AcDbEntity
  8
SubLayer
100
AcDbLine
 10
21.892549435851294
 20
7.38507711255231
 30
0.0
 11
27.87486594921282
 21
7.845391281313221
 31
0.0
  0
LINE
  5
195
330
17
100
AcDbEntity
  8
SubLayer
100
AcDbLine
 10
-112.08909373125523
 20
-4.930160394379564
 30
0.0
 11
-112.3959698437625
 21
-0.9419493854718834
 31
0.0
  0
LINE
  5
196
330
17
100
AcDbEntity
  8
SubLayer
100
AcDbLine
 10
-112.3959698437625
 20
-0.9419493854718834
 30
0.0
 11
-116.38418085267018
 21
-1.2488254979791584
 31
0.0
  0
LINE
  5
197
330
17
100
AcDbEntity
  8
SubLayer
100
AcDbLine
 10
-116.38418085267018
 20
-1.2488254979791584
 30
0.0
 11
-116.07730474016292
 21
-5.23703650688684
 31
0.0
  0
LINE
  5
198
330
17
100
AcDbEntity
  8
SubLayer
100
AcDbLine
 10
-116.07730474016292
 20
-5.23703650688684
 30
0.0
 11
-112.08909373125523
 21
-4.930160394379564
 31
0.0
  0
LINE
  5
199
330
17
100
AcDbEntity
  8
SubLayer
100
AcDbLine
 10
166.15159623773428
 20
16.479293891844687
 30
0.0
 11
165.844720125227
 21
20.46750490075237
 31
0.0
  0
LINE
  5
19A
330
17
100
AcDbEntity
  8
SubLayer
100
AcDbLine
 10
165.844720125227
 20
20.46750490075237
 30
0.0
 11
161.85650911631933
 21
20.160628788245095
 31
0.0
  0
LINE
  5
19B
330
17
100
AcDbEntity
  8
SubLayer
100
AcDbLine
 10
161.85650911631933
 20
20.160628788245095
 30
0.0
 11
162.1633852288266
 21
16.17241777933741
 31
0.0
  0
LINE
  5
19C
330
17
100
AcDbEntity
  8
SubLayer
100
AcDbLine
 10
162.1633852288266
 20
16.17241777933741
 30
0.0
 11
166.15159623773428
 21
16.479293891844687
 31
0.0
  0
LINE
  5
19D
330
17
100
AcDbEntity
  8
SubLayer
100
AcDbLine
 10
27.031251253239535
 20
5.774566748732562
 30
0.0
 11
26.72437514073226
 21
9.762777757640244
 31
0.0
  0
LINE
  5
19E
330
17
100
AcDbEntity
  8
SubLayer
100
AcDbLine
 10
26.72437514073226
 20
9.762777757640244
 30
0.0
 11
22.73616413182458
 21
9.455901645132968
 31
0.0
  0
LINE
  5
19F
330
17
100
AcDbEntity
  8
SubLayer
100
AcDbLine
 10
22.73616413182458
 20
9.455901645132968
 30
0.0
 11
23.043040244331856
 21
5.467690636225287
 31
0.0
  0
LINE
  5
1A0
330
17
100
AcDbEntity
  8
SubLayer
100
AcDbLine
 10
23.043040244331856
 20
5.467690636225287
 30
0.0
 11
27.031251253239535
 21
5.774566748732562
 31
0.0
  0
LINE
  5
1A1
330
17
100
AcDbEntity
  8
SubLayer
100
AcDbLine
 10
342.9976119156873
 20
4.46168944380971
 30
0.0
 11
343.24491986875074
 21
5.430626374859174
 31
0.0
  0
LINE
  5
1A2
330
17
100
AcDbEntity
  8
SubLayer
100
AcDbLine
 10
342.49713554902627
 20
-0.367952009743903
 30
0.0
 11
342.50373740393394
 21
0.6320261977745298
 31
0.0
  0
LINE
  5
1A3
330
17
100
AcDbEntity
  8
SubLayer
100
AcDbLine
 10
323.5759148013823
 20
9.228498812712479
 30
0.0
 11
323.81875313679404
 21
10.198565585081488
 31
0.0
  0
LINE
  5
1A4
330
17
100
AcDbEntity
  8
SubLayer
100
AcDbLine
 10
322.49886513765966
 20
-0.3978154556292459
 30
0.0
 11
322.50141971124276
 21
0.602181281442335
 31
0.0
  0
LINE
  5
1A5
330
17
100
AcDbEntity
  8
SubLayer
100
AcDbLine
 10
284.65925444380895
 20
18.468024885961093
 30
0.0
 11
284.89617681571696
 21
19.439553470043663
 31
0.0
  0
LINE
  5
1A6
330
17
100
AcDbEntity
  8
SubLayer
100
AcDbLine
 10
282.5130242194784
 20
-1.5271994442407115
 30
0.0
 11
282.50018370978654
 21
-0.5272818869836875
 31
0.0
  0
LINE
  5
1A7
330
17
100
AcDbEntity
  8
SubLayer
100
AcDbLine
 10
-152.26575765562984
 20
45.157763518720344
 30
0.0
 11
-151.95888154312257
 21
41.16955250981266
 31
0.0
  0
LINE
  5
1A8
330
17
100
AcDbEntity
  8
SubLayer
100
AcDbLine
 10
-147.34283506411566
 20
-18.821325355496697
 30
0.0
 11
-147.0359589516084
 21
-22.80953636440438
 31
0.0
  0
LINE
  5
1A9
330
17
100
AcDbEntity
  8
SubLayer
100
AcDbLine
 10
-148.40413861054535
 20
-5.028454828426371
 30
0.0
 11
-147.94382444178441
 21
-11.010771341787892
 31
0.0
  0
LINE
  5
1AA
330
17
100
AcDbEntity
  8
SubLayer
100
AcDbLine
 10
-151.35789216545385
 20
33.35899849610386
 30
0.0
 11
-150.89757799669292
 21
27.376681982742333
 31
0.0
  0
LINE
  5
1AB
330
17
100
AcDbEntity
  8
SubLayer
100
AcDbLine
 10
-149.88101538799958
 20
14.165271833838743
 30
0.0
 11
-149.42070121923865
 21
8.182955320477221
 31
0.0
  0
LINE
  5
1AC
330
17
100
AcDbEntity
  8
SubLayer
100
AcDbLine
 10
-150.0146489743651
 20
-10.16715664581461
 30
0.0
 11
-146.0264379654574
 21
-9.860280533307336
 31
0.0
  0
LINE
  5
1AD
330
17
100
AcDbEntity
  8
SubLayer
100
AcDbLine
 10
-146.0264379654574
 20
-9.860280533307336
 30
0.0
 11
-146.33331407796467
 21
-5.872069524399654
 31
0.0
  0
LINE
  5
1AE
330
17
100
AcDbEntity
  8
SubLayer
100
AcDbLine
 10
-146.33331407796467
 20
-5.872069524399654
 30
0.0
 11
-150.32152508687236
 21
-6.178945636906929
 31
0.0
  0
LINE
  5
1AF
330
17
100
AcDbEntity
  8
SubLayer
100
AcDbLine
 10
-150.32152508687236
 20
-6.178945636906929
 30
0.0
 11
-150.0146489743651
 21
-10.16715664581461
 31
0.0
  0
LINE
  5
1B0
330
17
100
AcDbEntity
  8
SubLayer
100
AcDbLine
 10
-152.9684025292736
 20
28.220296678715616
 30
0.0
 11
-148.9801915203659
 21
28.527172791222892
 31
0.0
  0
LINE
  5
1B1
330
17
100
AcDbEntity
  8
SubLayer
100
AcDbLine
 10
-148.9801915203659
 20
28.527172791222892
 30
0.0
 11
-149.28706763287317
 21
32.51538380013057
 31
0.0
  0
LINE
  5
1B2
330
17
100
AcDbEntity
  8
SubLayer
100
AcDbLine
 10
-149.28706763287317
 20
32.51538380013057
 30
0.0
 11
-153.27527864178086
 21
32.208507687623296
 31
0.0
  0
LINE
  5
1B3
330
17
100
AcDbEntity
  8
SubLayer
100
AcDbLine
 10
-153.27527864178086
 20
32.208507687623296
 30
0.0
 11
-152.9684025292736
 21
28.220296678715616
 31
0.0
  0
LINE
  5
1B4
330
17
100
AcDbEntity
  8
SubLayer
100
AcDbLine
 10
-151.49152575181932
 20
9.026570016450504
 30
0.0
 11
-147.50331474291164
 21
9.333446128957778
 31
0.0
  0
LINE
  5
1B5
330
17
100
AcDbEntity
  8
SubLayer
100
AcDbLine
 10
-147.50331474291164
 20
9.333446128957778
 30
0.0
 11
-147.8101908554189
 21
13.32165713786546
 31
0.0
  0
LINE
  5
1B6
330
17
100
AcDbEntity
  8
SubLayer
100
AcDbLine
 10
-147.8101908554189
 20
13.32165713786546
 30
0.0
 11
-151.7984018643266
 21
13.014781025358186
 31
0.0
  0
LINE
  5
1B7
330
17
100
AcDbEntity
  8
SubLayer
100
AcDbLine
 10
-151.7984018643266
 20
13.014781025358186
 30
0.0
 11
-151.49152575181932
 21
9.026570016450504
 31
0.0
  0
LINE
  5
1B8
330
17
100
AcDbEntity
  8
SubLayer
100
AcDbLine
 10
97.58229828587649
 20
56.73648403518962
 30
0.0
 11
97.88917439838376
 21
52.748273026281936
 31
0.0
  0
LINE
  5
1B9
330
17
100
AcDbEntity
  8
SubLayer
100
AcDbLine
 10
102.73491881747684
 20
-10.22779598307068
 30
0.0
 11
103.0417949299841
 21
-14.21600699197836
 31
0.0
  0
LINE
  5
1BA
330
17
100
AcDbEntity
  8
SubLayer
100
AcDbLine
 10
101.62767568302996
 20
4.162112772808301
 30
0.0
 11
102.08798985179087
 21
-1.8202037405532199
 31
0.0
  0
LINE
  5
1BB
330
17
100
AcDbEntity
  8
SubLayer
100
AcDbLine
 10
98.53610336406975
 20
44.34068078376448
 30
0.0
 11
98.99641753283065
 21
38.35836427040296
 31
0.0
  0
LINE
  5
1BC
330
17
100
AcDbEntity
  8
SubLayer
100
AcDbLine
 10
100.08188952354985
 20
24.25139677828639
 30
0.0
 11
100.54220369231075
 21
18.269080264924867
 31
0.0
  0
LINE
  5
1BD
330
17
100
AcDbEntity
  8
SubLayer
100
AcDbLine
 10
100.0171653192102
 20
-0.9765890445799372
 30
0.0
 11
104.00537632811789
 21
-0.6697129320726625
 31
0.0
  0
LINE
  5
1BE
330
17
100
AcDbEntity
  8
SubLayer
100
AcDbLine
 10
104.00537632811789
 20
-0.6697129320726625
 30
0.0
 11
103.69850021561062
 21
3.3184980768350187
 31
0.0
  0
LINE
  5
1BF
330
17
100
AcDbEntity
  8
SubLayer
100
AcDbLine
 10
103.69850021561062
 20
3.3184980768350187
 30
0.0
 11
99.71028920670294
 21
3.0116219643277438
 31
0.0
  0
LINE
  5
1C0
330
17
100
AcDbEntity
  8
SubLayer
100
AcDbLine
 10
99.71028920670294
 20
3.0116219643277438
 30
0.0
 11
100.0171653192102
 21
-0.9765890445799372
 31
0.0
  0
LINE
  5
1C1
330
17
100
AcDbEntity
  8
SubLayer
100
AcDbLine
 10
96.92559300024999
 20
39.201978966376245
 30
0.0
 11
100.91380400915767
 21
39.50885507888352
 31
0.0
  0
LINE
  5
1C2
330
17
100
AcDbEntity
  8
SubLayer
100
AcDbLine
 10
100.91380400915767
 20
39.50885507888352
 30
0.0
 11
100.6069278966504
 21
43.4970660877912
 31
0.0
  0
LINE
  5
1C3
330
17
100
AcDbEntity
  8
SubLayer
100
AcDbLine
 10
100.6069278966504
 20
43.4970660877912
 30
0.0
 11
96.61871688774272
 21
43.19018997528392
 31
0.0
  0
LINE
  5
1C4
330
17
100
AcDbEntity
  8
SubLayer
100
AcDbLine
 10
96.61871688774272
 20
43.19018997528392
 30
0.0
 11
96.92559300024999
 21
39.201978966376245
 31
0.0
  0
LINE
  5
1C5
330
17
100
AcDbEntity
  8
SubLayer
100
AcDbLine
 10
98.47137915973009
 20
19.11269496089815
 30
0.0
 11
102.45959016863777
 21
19.419571073405425
 31
0.0
  0
LINE
  5
1C6
330
17
100
AcDbEntity
  8
SubLayer
100
AcDbLine
 10
102.45959016863777
 20
19.419571073405425
 30
0.0
 11
102.1527140561305
 21
23.40778208231311
 31
0.0
  0
LINE
  5
1C7
330
17
100
AcDbEntity
  8
SubLayer
100
AcDbLine
 10
102.1527140561305
 20
23.40778208231311
 30
0.0
 11
98.16450304722282
 21
23.100905969805833
 31
0.0
  0
LINE
  5
1C8
330
17
100
AcDbEntity
  8
SubLayer
100
AcDbLine
 10
98.16450304722282
 20
23.100905969805833
 30
0.0
 11
98.47137915973009
 21
19.11269496089815
 31
0.0
  0
ENDSEC
  0
SECTION
  2
OBJECTS
  0
DICTIONARY
  5
A
330
0
100
AcDbDictionary
280
0
281
1
  3
ACAD_COLOR
350
B
  3
ACAD_GROUP
350
C
  3
ACAD_LAYOUT
350
D
  3
ACAD_MATERIAL
350
E
  3
ACAD_MLEADERSTYLE
350
F
  3
ACAD_MLINESTYLE
350
10
  3
ACAD_PLOTSETTINGS
350
11
  3
ACAD_PLOTSTYLENAME
350
12
  3
ACAD_SCALELIST
350
14
  3
ACAD_TABLESTYLE
350
15
  3
ACAD_VISUALSTYLE
350
16
  3
EZDXF_META
350
2D
  0
DICTIONARY
  5
B
330
A
100
AcDbDictionary
280
0
281
1
  0
DICTIONARY
  5
C
330
A
100
AcDbDictionary
280
0
281
1
  0
DICTIONARY
  5
D
330
A
100
AcDbDictionary
280
0
281
1
  3
Model
350
1A
  3
Layout1
350
1E
  0
DICTIONARY
  5
E
330
A
100
AcDbDictionary
280
0
281
1
  3
ByBlock
350
1F
  3
ByLayer
350
20
  3
Global
350
21
  0
DICTIONARY
  5
F
330
A
100
AcDbDictionary
280
0
281
1
  3
Standard
350
2C
  0
DICTIONARY
  5
10
330
A
100
AcDbDictionary
280
0
281
1
  3
Standard
350
22
  0
DICTIONARY
  5
11
330
A
100
AcDbDictionary
280
0
281
1
  0
ACDBDICTIONARYWDFLT
  5
12
330
A
100
AcDbDictionary
280
0
281
1
  3
Normal
350
13
100
AcDbDictionaryWithDefault
340
13
  0
ACDBPLACEHOLDER
  5
13
330
12
  0
DICTIONARY
  5
14
330
A
100
AcDbDictionary
280
0
281
1
  0
DICTIONARY
  5
15
330
A
100
AcDbDictionary
280
0
281
1
  0
DICTIONARY
  5
16
330
A
100
AcDbDictionary
280
0
281
1
  0
LAYOUT
  5
1A
330
D
100
AcDbPlotSettings
  1

  2
Adobe PDF
  4
A3
  6

 40
7.5
 41
20.0
 42
7.5
 43
20.0
 44
420.0
 45
297.0
 46
0.0
 47
0.0
 48
0.0
 49
0.0
140
0.0
141
0.0
142
1.0
143
1.0
 70
1024
 72
1
 73
0
 74
5
  7

 75
16
 76
0
 77
2
 78
300
147
1.0
148
0.0
149
0.0
100
AcDbLayout
  1
Model
 70
1
 71
0
 10
0.0
 20
0.0
 11
420.0
 21
297.0
 12
0.0
 22
0.0
 32
0.0
 14
1e+20
 24
1e+20
 34
1e+20
 15
-1e+20
 25
-1e+20
 35
-1e+20
146
0.0
 13
0.0
 23
0.0
 33
0.0
 16
1.0
 26
0.0
 36
0.0
 17
0.0
 27
1.0
 37
0.0
 76
1
330
17
  0
LAYOUT
  5
1E
330
D
100
AcDbPlotSettings
  1

  2
Adobe PDF
  4
A3
  6

 40
7.5
 41
20.0
 42
7.5
 43
20.0
 44
420.0
 45
297.0
 46
0.0
 47
0.0
 48
0.0
 49
0.0
140
0.0
141
0.0
142
1.0
143
1.0
 70
0
 72
1
 73
0
 74
5
  7

 75
16
 76
0
 77
2
 78
300
147
1.0
148
0.0
149
0.0
100
AcDbLayout
  1
Layout1
 70
1
 71
1
 10
0.0
 20
0.0
 11
420.0
 21
297.0
 12
0.0
 22
0.0
 32
0.0
 14
1e+20
 24
1e+20
 34
1e+20
 15
-1e+20
 25
-1e+20
 35
-1e+20
146
0.0
 13
0.0
 23
0.0
 33
0.0
 16
1.0
 26
0.0
 36
0.0
 17
0.0
 27
1.0
 37
0.0
 76
1
330
1B
  0
MATERIAL
  5
1F
102
{ACAD_REACTORS
330
E
102
}
330
E
100
AcDbMaterial
  1
ByBlock
  2

 70
0
 40
1.0
 71
1
 41
1.0
 91
-1023410177
 42
1.0
 72
1
  3

 73
1
 74
1
 75
1
 44
0.5
 73
0
 45
1.0
 46
1.0
 77
1
  4

 78
1
 79
1
170
1
 48
1.0
171
1
  6

172
1
173
1
174
1
140
1.0
141
1.0
175
1
  7

176
1
177
1
178
1
143
1.0
179
1
  8

270
1
271
1
272
1
145
1.0
146
1.0
273
1
  9

274
1
275
1
276
1
 42
1.0
 72
1
  3

 73
1
 74
1
 75
1
 94
63
  0
MATERIAL
  5
20
102
{ACAD_REACTORS
330
E
102
}
330
E
100
AcDbMaterial
  1
ByLayer
  2

 70
0
 40
1.0
 71
1
 41
1.0
 91
-1023410177
 42
1.0
 72
1
  3

 73
1
 74
1
 75
1
 44
0.5
 73
0
 45
1.0
 46
1.0
 77
1
  4

 78
1
 79
1
170
1
 48
1.0
171
1
  6

172
1
173
1
174
1
140
1.0
141
1.0
175
1
  7

176
1
177
1
178
1
143
1.0
179
1
  8

270
1
271
1
272
1
145
1.0
146
1.0
273
1
  9

274
1
275
1
276
1
 42
1.0
 72
1
  3

 73
1
 74
1
 75
1
 94
63
  0
MATERIAL
  5
21
102
{ACAD_REACTORS
330
E
102
}
330
E
100
AcDbMaterial
  1
Global
  2

 70
0
 40
1.0
 71
1
 41
1.0
 91
-1023410177
 42
1.0
 72
1
  3

 73
1
 74
1
 75
1
 44
0.5
 73
0
 45
1.0
 46
1.0
 77
1
  4

 78
1
 79
1
170
1
 48
1.0
171
1
  6

172
1
173
1
174
1
140
1.0
141
1.0
175
1
  7

176
1
177
1
178
1
143
1.0
179
1
  8

270
1
271
1
272
1
145
1.0
146
1.0
273
1
  9

274
1
275
1
276
1
 42
1.0
 72
1
  3

 73
1
 74
1
 75
1
 94
63
  0
MLINESTYLE
  5
22
102
{ACAD_REACTORS
330
10
102
}
330
10
100
AcDbMlineStyle
  2
Standard
 70
0
  3

 62
256
 51
90.0
 52
90.0
 71
2
 49
0.5
 62
256
  6
BYLAYER
 49
-0.5
 62
256
  6
BYLAYER
  0
MLEADERSTYLE
  5
2C
102
{ACAD_REACTORS
330
F
102
}
330
F
100
AcDbMLeaderStyle
179
2
170
2
171
1
172
0
 90
2
 40
0.0
 41
0.0
173
1
 91
-1056964608
 92
-2
290
1
 42
2.0
291
1
 43
8.0
  3
Standard
 44
4.0
300

342
29
174
1
175
1
176
0
178
1
 93
-1056964608
 45
4.0
292
0
297
0
 46
4.0
 94
-1056964608
 47
1.0
 49
1.0
140
1.0
294
1
141
0.0
177
0
142
1.0
295
0
296
0
143
3.75
271
0
272
9
273
9
  0
DICTIONARY
  5
2D
330
A
100
AcDbDictionary
281
1
  3
CREATED_BY_EZDXF
350
2E
  3
WRITTEN_BY_EZDXF
350
1CB
  0
DICTIONARYVAR
  5
2E
330
2D
100
DictionaryVariables
280
0
  1
1.0.2 @ 2024-03-22T07:41:34.781430+00:00
  0
DICTIONARYVAR
  5
1CB
330
2D
100
DictionaryVariables
280
0
  1
1.0.2 @ 2024-03-22T07:41:34.791943+00:00
  0
ENDSEC
  0
EOF
