  0
SECTION
  2
HEADER
  9
$ACADVER
  1
AC1027
  9
$ACADMAINTVER
 70
105
  9
$DWGCODEPAGE
  3
ANSI_1252
  9
$LASTSAVEDBY
  1
ezdxf
  9
$REQUIREDVERSIONS
160
0
  9
$INSBASE
 10
0.0
 20
0.0
 30
0.0
  9
$EXTMIN
 10
1e+20
 20
1e+20
 30
1e+20
  9
$EXTMAX
 10
-1e+20
 20
-1e+20
 30
-1e+20
  9
$LIMMIN
 10
0.0
 20
0.0
  9
$LIMMAX
 10
420.0
 20
297.0
  9
$ORTHOMODE
 70
0
  9
$REGENMODE
 70
1
  9
$FILLMODE
 70
1
  9
$QTEXTMODE
 70
0
  9
$MIRRTEXT
 70
1
  9
$LTSCALE
 40
1.0
  9
$ATTMODE
 70
1
  9
$TEXTSIZE
 40
2.5
  9
$TRACEWID
 40
1.0
  9
$TEXTSTYLE
  7
Standard
  9
$CLAYER
  8
0
  9
$CELTYPE
  6
ByLayer
  9
$CECOLOR
 62
256
  9
$CELTSCALE
 40
1.0
  9
$DISPSILH
 70
0
  9
$DIMSCALE
 40
1.0
  9
$DIMASZ
 40
2.5
  9
$DIMEXO
 40
0.625
  9
$DIMDLI
 40
3.75
  9
$DIMRND
 40
0.0
  9
$DIMDLE
 40
0.0
  9
$DIMEXE
 40
1.25
  9
$DIMTP
 40
0.0
  9
$DIMTM
 40
0.0
  9
$DIMTXT
 40
2.5
  9
$DIMCEN
 40
2.5
  9
$DIMTSZ
 40
0.0
  9
$DIMTOL
 70
0
  9
$DIMLIM
 70
0
  9
$DIMTIH
 70
0
  9
$DIMTOH
 70
0
  9
$DIMSE1
 70
0
  9
$DIMSE2
 70
0
  9
$DIMTAD
 70
1
  9
$DIMZIN
 70
8
  9
$DIMBLK
  1

  9
$DIMASO
 70
1
  9
$DIMSHO
 70
1
  9
$DIMPOST
  1

  9
$DIMAPOST
  1

  9
$DIMALT
 70
0
  9
$DIMALTD
 70
3
  9
$DIMALTF
 40
0.03937007874
  9
$DIMLFAC
 40
1.0
  9
$DIMTOFL
 70
1
  9
$DIMTVP
 40
0.0
  9
$DIMTIX
 70
0
  9
$DIMSOXD
 70
0
  9
$DIMSAH
 70
0
  9
$DIMBLK1
  1

  9
$DIMBLK2
  1

  9
$DIMSTYLE
  2
ISO-25
  9
$DIMCLRD
 70
0
  9
$DIMCLRE
 70
0
  9
$DIMCLRT
 70
0
  9
$DIMTFAC
 40
1.0
  9
$DIMGAP
 40
0.625
  9
$DIMJUST
 70
0
  9
$DIMSD1
 70
0
  9
$DIMSD2
 70
0
  9
$DIMTOLJ
 70
0
  9
$DIMTZIN
 70
8
  9
$DIMALTZ
 70
0
  9
$DIMALTTZ
 70
0
  9
$DIMUPT
 70
0
  9
$DIMDEC
 70
2
  9
$DIMTDEC
 70
2
  9
$DIMALTU
 70
2
  9
$DIMALTTD
 70
3
  9
$DIMTXSTY
  7
Standard
  9
$DIMAUNIT
 70
0
  9
$DIMADEC
 70
0
  9
$DIMALTRND
 40
0.0
  9
$DIMAZIN
 70
0
  9
$DIMDSEP
 70
44
  9
$DIMATFIT
 70
3
  9
$DIMFRAC
 70
0
  9
$DIMLDRBLK
  1

  9
$DIMLUNIT
 70
2
  9
$DIMLWD
 70
-2
  9
$DIMLWE
 70
-2
  9
$DIMTMOVE
 70
0
  9
$DIMFXL
 40
1.0
  9
$DIMFXLON
 70
0
  9
$DIMJOGANG
 40
0.785398163397
  9
$DIMTFILL
 70
0
  9
$DIMTFILLCLR
 70
0
  9
$DIMARCSYM
 70
0
  9
$DIMLTYPE
  6

  9
$DIMLTEX1
  6

  9
$DIMLTEX2
  6

  9
$DIMTXTDIRECTION
 70
0
  9
$LUNITS
 70
2
  9
$LUPREC
 70
4
  9
$SKETCHINC
 40
1.0
  9
$FILLETRAD
 40
10.0
  9
$AUNITS
 70
0
  9
$AUPREC
 70
2
  9
$MENU
  1
.
  9
$ELEVATION
 40
0.0
  9
$PELEVATION
 40
0.0
  9
$THICKNESS
 40
0.0
  9
$LIMCHECK
 70
0
  9
$CHAMFERA
 40
0.0
  9
$CHAMFERB
 40
0.0
  9
$CHAMFERC
 40
0.0
  9
$CHAMFERD
 40
0.0
  9
$SKPOLY
 70
0
  9
$TDCREATE
 40
2460392.6955439816
  9
$TDUCREATE
 40
2458532.153996898
  9
$TDUPDATE
 40
2460392.6955439816
  9
$TDUUPDATE
 40
2458532.1544311
  9
$TDINDWG
 40
0.0
  9
$TDUSRTIMER
 40
0.0
  9
$USRTIMER
 70
1
  9
$ANGBASE
 50
0.0
  9
$ANGDIR
 70
0
  9
$PDMODE
 70
0
  9
$PDSIZE
 40
0.0
  9
$PLINEWID
 40
0.0
  9
$SPLFRAME
 70
0
  9
$SPLINETYPE
 70
6
  9
$SPLINESEGS
 70
8
  9
$HANDSEED
  5
1CD
  9
$SURFTAB1
 70
6
  9
$SURFTAB2
 70
6
  9
$SURFTYPE
 70
6
  9
$SURFU
 70
6
  9
$SURFV
 70
6
  9
$UCSBASE
  2

  9
$UCSNAME
  2

  9
$UCSORG
 10
0.0
 20
0.0
 30
0.0
  9
$UCSXDIR
 10
1.0
 20
0.0
 30
0.0
  9
$UCSYDIR
 10
0.0
 20
1.0
 30
0.0
  9
$UCSORTHOREF
  2

  9
$UCSORTHOVIEW
 70
0
  9
$UCSORGTOP
 10
0.0
 20
0.0
 30
0.0
  9
$UCSORGBOTTOM
 10
0.0
 20
0.0
 30
0.0
  9
$UCSORGLEFT
 10
0.0
 20
0.0
 30
0.0
  9
$UCSORGRIGHT
 10
0.0
 20
0.0
 30
0.0
  9
$UCSORGFRONT
 10
0.0
 20
0.0
 30
0.0
  9
$UCSORGBACK
 10
0.0
 20
0.0
 30
0.0
  9
$PUCSBASE
  2

  9
$PUCSNAME
  2

  9
$PUCSORG
 10
0.0
 20
0.0
 30
0.0
  9
$PUCSXDIR
 10
1.0
 20
0.0
 30
0.0
  9
$PUCSYDIR
 10
0.0
 20
1.0
 30
0.0
  9
$PUCSORTHOREF
  2

  9
$PUCSORTHOVIEW
 70
0
  9
$PUCSORGTOP
 10
0.0
 20
0.0
 30
0.0
  9
$PUCSORGBOTTOM
 10
0.0
 20
0.0
 30
0.0
  9
$PUCSORGLEFT
 10
0.0
 20
0.0
 30
0.0
  9
$PUCSORGRIGHT
 10
0.0
 20
0.0
 30
0.0
  9
$PUCSORGFRONT
 10
0.0
 20
0.0
 30
0.0
  9
$PUCSORGBACK
 10
0.0
 20
0.0
 30
0.0
  9
$USERI1
 70
0
  9
$USERI2
 70
0
  9
$USERI3
 70
0
  9
$USERI4
 70
0
  9
$USERI5
 70
0
  9
$USERR1
 40
0.0
  9
$USERR2
 40
0.0
  9
$USERR3
 40
0.0
  9
$USERR4
 40
0.0
  9
$USERR5
 40
0.0
  9
$WORLDVIEW
 70
1
  9
$SHADEDGE
 70
3
  9
$SHADEDIF
 70
70
  9
$TILEMODE
 70
1
  9
$MAXACTVP
 70
64
  9
$PINSBASE
 10
0.0
 20
0.0
 30
0.0
  9
$PLIMCHECK
 70
0
  9
$PEXTMIN
 10
1e+20
 20
1e+20
 30
1e+20
  9
$PEXTMAX
 10
-1e+20
 20
-1e+20
 30
-1e+20
  9
$PLIMMIN
 10
0.0
 20
0.0
  9
$PLIMMAX
 10
420.0
 20
297.0
  9
$UNITMODE
 70
0
  9
$VISRETAIN
 70
1
  9
$PLINEGEN
 70
0
  9
$PSLTSCALE
 70
1
  9
$TREEDEPTH
 70
3020
  9
$CMLSTYLE
  2
Standard
  9
$CMLJUST
 70
0
  9
$CMLSCALE
 40
20.0
  9
$PROXYGRAPHICS
 70
1
  9
$MEASUREMENT
 70
1
  9
$CELWEIGHT
370
-1
  9
$ENDCAPS
280
0
  9
$JOINSTYLE
280
0
  9
$LWDISPLAY
290
0
  9
$INSUNITS
 70
6
  9
$HYPERLINKBASE
  1

  9
$STYLESHEET
  1

  9
$XEDIT
290
1
  9
$CEPSNTYPE
380
0
  9
$PSTYLEMODE
290
1
  9
$FINGERPRINTGUID
  2
{92C91EC6-9536-40A6-A809-8A3CECF008D5}
  9
$VERSIONGUID
  2
{0606C66B-9FF2-4F49-867E-4120267D4BC8}
  9
$EXTNAMES
290
1
  9
$PSVPSCALE
 40
0.0
  9
$OLESTARTUP
290
0
  9
$SORTENTS
280
127
  9
$INDEXCTL
280
0
  9
$HIDETEXT
280
1
  9
$XCLIPFRAME
280
0
  9
$HALOGAP
280
0
  9
$OBSCOLOR
 70
257
  9
$OBSLTYPE
280
0
  9
$INTERSECTIONDISPLAY
280
0
  9
$INTERSECTIONCOLOR
 70
257
  9
$DIMASSOC
280
2
  9
$PROJECTNAME
  1

  9
$CAMERADISPLAY
290
0
  9
$LENSLENGTH
 40
50.0
  9
$CAMERAHEIGHT
 40
0.0
  9
$STEPSPERSEC
 40
24.0
  9
$STEPSIZE
 40
100.0
  9
$3DDWFPREC
 40
2.0
  9
$PSOLWIDTH
 40
0.005
  9
$PSOLHEIGHT
 40
0.08
  9
$LOFTANG1
 40
1.570796326795
  9
$LOFTANG2
 40
1.570796326795
  9
$LOFTMAG1
 40
0.0
  9
$LOFTMAG2
 40
0.0
  9
$LOFTPARAM
 70
7
  9
$LOFTNORMALS
280
1
  9
$LATITUDE
 40
37.795
  9
$LONGITUDE
 40
-122.394
  9
$NORTHDIRECTION
 40
0.0
  9
$TIMEZONE
 70
-8000
  9
$LIGHTGLYPHDISPLAY
280
1
  9
$TILEMODELIGHTSYNCH
280
1
  9
$CMATERIAL
347
20
  9
$SOLIDHIST
280
0
  9
$SHOWHIST
280
1
  9
$DWFFRAME
280
2
  9
$DGNFRAME
280
2
  9
$REALWORLDSCALE
290
1
  9
$INTERFERECOLOR
 62
256
  9
$CSHADOW
280
0
  9
$SHADOWPLANELOCATION
 40
0.0
  0
ENDSEC
  0
SECTION
  2
CLASSES
  0
CLASS
  1
ACDBDICTIONARYWDFLT
  2
AcDbDictionaryWithDefault
  3
ObjectDBX Classes
 90
0
 91
0
280
0
281
0
  0
CLASS
  1
SUN
  2
AcDbSun
  3
SCENEOE
 90
1153
 91
0
280
0
281
0
  0
CLASS
  1
VISUALSTYLE
  2
AcDbVisualStyle
  3
ObjectDBX Classes
 90
4095
 91
0
280
0
281
0
  0
CLASS
  1
MATERIAL
  2
AcDbMaterial
  3
ObjectDBX Classes
 90
1153
 91
0
280
0
281
0
  0
CLASS
  1
SCALE
  2
AcDbScale
  3
ObjectDBX Classes
 90
1153
 91
0
280
0
281
0
  0
CLASS
  1
TABLESTYLE
  2
AcDbTableStyle
  3
ObjectDBX Classes
 90
4095
 91
0
280
0
281
0
  0
CLASS
  1
MLEADERSTYLE
  2
AcDbMLeaderStyle
  3
ACDB_MLEADERSTYLE_CLASS
 90
4095
 91
0
280
0
281
0
  0
CLASS
  1
DICTIONARYVAR
  2
AcDbDictionaryVar
  3
ObjectDBX Classes
 90
0
 91
0
280
0
281
0
  0
CLASS
  1
CELLSTYLEMAP
  2
AcDbCellStyleMap
  3
ObjectDBX Classes
 90
1152
 91
0
280
0
281
0
  0
CLASS
  1
MENTALRAYRENDERSETTINGS
  2
AcDbMentalRayRenderSettings
  3
SCENEOE
 90
1024
 91
0
280
0
281
0
  0
CLASS
  1
ACDBDETAILVIEWSTYLE
  2
AcDbDetailViewStyle
  3
ObjectDBX Classes
 90
1025
 91
0
280
0
281
0
  0
CLASS
  1
ACDBSECTIONVIEWSTYLE
  2
AcDbSectionViewStyle
  3
ObjectDBX Classes
 90
1025
 91
0
280
0
281
0
  0
CLASS
  1
RASTERVARIABLES
  2
AcDbRasterVariables
  3
ISM
 90
0
 91
0
280
0
281
0
  0
CLASS
  1
LAYOUT
  2
AcDbLayout
  3
ObjectDBX Classes
 90
0
 91
0
280
0
281
0
  0
CLASS
  1
ACDBPLACEHOLDER
  2
AcDbPlaceHolder
  3
ObjectDBX Classes
 90
0
 91
0
280
0
281
0
  0
ENDSEC
  0
SECTION
  2
TABLES
  0
TABLE
  2
VPORT
  5
8
330
0
100
AcDbSymbolTable
 70
1
  0
VPORT
  5
23
330
8
100
AcDbSymbolTableRecord
100
AcDbViewportTableRecord
  2
*Active
 70
0
 10
0.0
 20
0.0
 11
1.0
 21
1.0
 12
0.0
 22
0.0
 13
0.0
 23
0.0
 14
0.5
 24
0.5
 15
0.5
 25
0.5
 16
0.0
 26
0.0
 36
1.0
 17
0.0
 27
0.0
 37
0.0
 40
1000.0
 41
1.34
 42
50.0
 43
0.0
 44
0.0
 50
0.0
 51
0.0
 71
0
 72
1000
 73
1
 74
3
 75
0
 76
0
 77
0
 78
0
281
0
 65
0
146
0.0
  0
ENDTAB
  0
TABLE
  2
LTYPE
  5
2
330
0
100
AcDbSymbolTable
 70
3
  0
LTYPE
  5
24
330
2
100
AcDbSymbolTableRecord
100
AcDbLinetypeTableRecord
  2
ByBlock
 70
0
  3

 72
65
 73
0
 40
0.0
  0
LTYPE
  5
25
330
2
100
AcDbSymbolTableRecord
100
AcDbLinetypeTableRecord
  2
ByLayer
 70
0
  3

 72
65
 73
0
 40
0.0
  0
LTYPE
  5
26
330
2
100
AcDbSymbolTableRecord
100
AcDbLinetypeTableRecord
  2
Continuous
 70
0
  3

 72
65
 73
0
 40
0.0
  0
ENDTAB
  0
TABLE
  2
LAYER
  5
1
330
0
100
AcDbSymbolTable
 70
5
  0
LAYER
  5
27
330
1
100
AcDbSymbolTableRecord
100
AcDbLayerTableRecord
  2
0
 70
0
 62
7
  6
Continuous
370
-3
390
13
347
21
  0
LAYER
  5
28
330
1
100
AcDbSymbolTableRecord
100
AcDbLayerTableRecord
  2
Defpoints
 70
0
 62
7
  6
Continuous
290
0
370
-3
390
13
347
21
  0
LAYER
  5
30
330
1
100
AcDbSymbolTableRecord
100
AcDbLayerTableRecord
  2
FoilLayer
 70
0
 62
1
  6
Continuous
370
50
390
13
347
21
  0
LAYER
  5
31
330
1
100
AcDbSymbolTableRecord
100
AcDbLayerTableRecord
  2
StringerLayer
 70
0
 62
1
  6
Continuous
370
50
390
13
347
21
  0
LAYER
  5
32
330
1
100
AcDbSymbolTableRecord
100
AcDbLayerTableRecord
  2
SubLayer
 70
0
 62
1
  6
Continuous
370
50
390
13
347
21
  0
ENDTAB
  0
TABLE
  2
STYLE
  5
5
330
0
100
AcDbSymbolTable
 70
2
  0
STYLE
  5
29
330
5
100
AcDbSymbolTableRecord
100
AcDbTextStyleTableRecord
  2
Standard
 70
0
 40
0.0
 41
1.0
 50
0.0
 71
0
 42
2.5
  3
txt
  4

  0
STYLE
  5
2F
330
5
100
AcDbSymbolTableRecord
100
AcDbTextStyleTableRecord
  2
MSゴシック
 70
0
 40
0.0
 41
1.0
 50
0.0
 71
0
 42
2.5
  3
romans
  4

  0
ENDTAB
  0
TABLE
  2
VIEW
  5
7
330
0
100
AcDbSymbolTable
 70
0
  0
ENDTAB
  0
TABLE
  2
UCS
  5
6
330
0
100
AcDbSymbolTable
 70
0
  0
ENDTAB
  0
TABLE
  2
APPID
  5
3
330
0
100
AcDbSymbolTable
 70
3
  0
APPID
  5
2A
330
3
100
AcDbSymbolTableRecord
100
AcDbRegAppTableRecord
  2
ACAD
 70
0
  0
APPID
  5
1CA
330
3
100
AcDbSymbolTableRecord
100
AcDbRegAppTableRecord
  2
HATCHBACKGROUNDCOLOR
 70
0
  0
APPID
  5
1CB
330
3
100
AcDbSymbolTableRecord
100
AcDbRegAppTableRecord
  2
EZDXF
 70
0
  0
ENDTAB
  0
TABLE
  2
DIMSTYLE
  5
4
330
0
100
AcDbSymbolTable
 70
1
100
AcDbDimStyleTable
  0
DIMSTYLE
105
2B
330
4
100
AcDbSymbolTableRecord
100
AcDbDimStyleTableRecord
  2
Standard
 70
0
 40
1.0
 41
2.5
 42
0.625
 43
3.75
 44
1.25
 45
0.0
 46
0.0
 47
0.0
 48
0.0
 49
2.5
140
2.5
141
2.5
142
0.0
143
0.03937007874
144
1.0
145
0.0
146
1.0
147
0.625
148
0.0
 69
0
 70
0
 71
0
 72
0
 73
0
 74
0
 75
0
 76
0
 77
1
 78
8
 79
3
170
0
171
3
172
1
173
0
174
0
175
0
176
0
177
0
178
0
179
2
271
2
272
2
273
2
274
3
275
0
276
0
277
2
278
44
279
0
280
0
281
0
282
0
283
0
284
8
285
0
286
0
288
0
289
3
290
0
371
-2
372
-2
  0
ENDTAB
  0
TABLE
  2
BLOCK_RECORD
  5
9
330
0
100
AcDbSymbolTable
 70
2
  0
BLOCK_RECORD
  5
17
330
9
100
AcDbSymbolTableRecord
100
AcDbBlockTableRecord
  2
*Model_Space
340
1A
 70
0
280
1
281
0
  0
BLOCK_RECORD
  5
1B
330
9
100
AcDbSymbolTableRecord
100
AcDbBlockTableRecord
  2
*Paper_Space
340
1E
 70
0
280
1
281
0
  0
ENDTAB
  0
ENDSEC
  0
SECTION
  2
BLOCKS
  0
BLOCK
  5
18
330
17
100
AcDbEntity
  8
0
100
AcDbBlockBegin
  2
*Model_Space
 70
0
 10
0.0
 20
0.0
 30
0.0
  3
*Model_Space
  1

  0
ENDBLK
  5
19
330
17
100
AcDbEntity
  8
0
100
AcDbBlockEnd
  0
BLOCK
  5
1C
330
1B
100
AcDbEntity
  8
0
100
AcDbBlockBegin
  2
*Paper_Space
 70
0
 10
0.0
 20
0.0
 30
0.0
  3
*Paper_Space
  1

  0
ENDBLK
  5
1D
330
1B
100
AcDbEntity
  8
0
100
AcDbBlockEnd
  0
ENDSEC
  0
SECTION
  2
ENTITIES
  0
LINE
  5
33
330
17
100
AcDbEntity
  8
FoilLayer
100
AcDbLine
 10
177.6298469401987
 20
23.141635305731587
 30
0.0
 11
11.859374999999972
 21
-18.91803791684061
 31
0.0
  0
LINE
  5
34
330
17
100
AcDbEntity
  8
FoilLayer
100
AcDbLine
 10
296.48428012416446
 20
0.36456039563148074
 30
0.0
 11
294.85009130580283
 21
0.7131342130810734
 31
0.0
  0
LINE
  5
35
330
17
100
AcDbEntity
  8
FoilLayer
100
AcDbLine
 10
294.85009130580283
 20
0.7131342130810734
 30
0.0
 11
292.22867198731285
 21
1.281250712506267
 31
0.0
  0
LINE
  5
36
330
17
100
AcDbEntity
  8
FoilLayer
100
AcDbLine
 10
292.22867198731285
 20
1.281250712506267
 30
0.0
 11
289.39501542613516
 21
1.904063130755546
 31
0.0
  0
LINE
  5
37
330
17
100
AcDbEntity
  8
FoilLayer
100
AcDbLine
 10
289.39501542613516
 20
1.904063130755546
 30
0.0
 11
286.34736641932386
 21
2.5720838843381766
 31
0.0
  0
LINE
  5
38
330
17
100
AcDbEntity
  8
FoilLayer
100
AcDbLine
 10
286.34736641932386
 20
2.5720838843381766
 30
0.0
 11
283.08861867984376
 21
3.272409859706758
 31
0.0
  0
LINE
  5
39
330
17
100
AcDbEntity
  8
FoilLayer
100
AcDbLine
 10
283.08861867984376
 20
3.272409859706758
 30
0.0
 11
279.63229201416914
 21
4.016473594967627
 31
0.0
  0
LINE
  5
3A
330
17
100
AcDbEntity
  8
FoilLayer
100
AcDbLine
 10
279.63229201416914
 20
4.016473594967627
 30
0.0
 11
275.99740902719884
 21
4.809066319783604
 31
0.0
  0
LINE
  5
3B
330
17
100
AcDbEntity
  8
FoilLayer
100
AcDbLine
 10
275.99740902719884
 20
4.809066319783604
 30
0.0
 11
272.2045103371904
 21
5.636573351845483
 31
0.0
  0
LINE
  5
3C
330
17
100
AcDbEntity
  8
FoilLayer
100
AcDbLine
 10
272.2045103371904
 20
5.636573351845483
 30
0.0
 11
268.27508532075024
 21
6.477505314546753
 31
0.0
  0
LINE
  5
3D
330
17
100
AcDbEntity
  8
FoilLayer
100
AcDbLine
 10
268.27508532075024
 20
6.477505314546753
 30
0.0
 11
264.2323785574307
 21
7.324224703177371
 31
0.0
  0
LINE
  5
3E
330
17
100
AcDbEntity
  8
FoilLayer
100
AcDbLine
 10
264.2323785574307
 20
7.324224703177371
 30
0.0
 11
260.09897049593974
 21
8.176209700645348
 31
0.0
  0
LINE
  5
3F
330
17
100
AcDbEntity
  8
FoilLayer
100
AcDbLine
 10
260.09897049593974
 20
8.176209700645348
 30
0.0
 11
255.89971860502314
 21
9.060499919899275
 31
0.0
  0
LINE
  5
40
330
17
100
AcDbEntity
  8
FoilLayer
100
AcDbLine
 10
255.89971860502314
 20
9.060499919899275
 30
0.0
 11
251.64837988074245
 21
9.962294730693607
 31
0.0
  0
LINE
  5
41
330
17
100
AcDbEntity
  8
FoilLayer
100
AcDbLine
 10
251.64837988074245
 20
9.962294730693607
 30
0.0
 11
247.35648173703876
 21
10.871964235785251
 31
0.0
  0
LINE
  5
42
330
17
100
AcDbEntity
  8
FoilLayer
100
AcDbLine
 10
247.35648173703876
 20
10.871964235785251
 30
0.0
 11
243.03232580946658
 21
11.778929779582034
 31
0.0
  0
LINE
  5
43
330
17
100
AcDbEntity
  8
FoilLayer
100
AcDbLine
 10
243.03232580946658
 20
11.778929779582034
 30
0.0
 11
238.68089307935858
 21
12.667916352663875
 31
0.0
  0
LINE
  5
44
330
17
100
AcDbEntity
  8
FoilLayer
100
AcDbLine
 10
238.68089307935858
 20
12.667916352663875
 30
0.0
 11
234.30972617558982
 21
13.546419145988454
 31
0.0
  0
LINE
  5
45
330
17
100
AcDbEntity
  8
FoilLayer
100
AcDbLine
 10
234.30972617558982
 20
13.546419145988454
 30
0.0
 11
229.92930887791758
 21
14.44555743340538
 31
0.0
  0
LINE
  5
46
330
17
100
AcDbEntity
  8
FoilLayer
100
AcDbLine
 10
229.92930887791758
 20
14.44555743340538
 30
0.0
 11
225.54092201011318
 21
15.353614049303594
 31
0.0
  0
LINE
  5
47
330
17
100
AcDbEntity
  8
FoilLayer
100
AcDbLine
 10
225.54092201011318
 20
15.353614049303594
 30
0.0
 11
221.14508738926847
 21
16.26029496559566
 31
0.0
  0
LINE
  5
48
330
17
100
AcDbEntity
  8
FoilLayer
100
AcDbLine
 10
221.14508738926847
 20
16.26029496559566
 30
0.0
 11
216.741425512044
 21
17.154926650854488
 31
0.0
  0
LINE
  5
49
330
17
100
AcDbEntity
  8
FoilLayer
100
AcDbLine
 10
216.741425512044
 20
17.154926650854488
 30
0.0
 11
212.32946199926513
 21
18.026788135735554
 31
0.0
  0
LINE
  5
4A
330
17
100
AcDbEntity
  8
FoilLayer
100
AcDbLine
 10
212.32946199926513
 20
18.026788135735554
 30
0.0
 11
207.910050733446
 21
18.875357603146863
 31
0.0
  0
LINE
  5
4B
330
17
100
AcDbEntity
  8
FoilLayer
100
AcDbLine
 10
207.910050733446
 20
18.875357603146863
 30
0.0
 11
203.49054459179192
 21
19.734363412397986
 31
0.0
  0
LINE
  5
4C
330
17
100
AcDbEntity
  8
FoilLayer
100
AcDbLine
 10
203.49054459179192
 20
19.734363412397986
 30
0.0
 11
199.07450141811202
 21
20.615807356604687
 31
0.0
  0
LINE
  5
4D
330
17
100
AcDbEntity
  8
FoilLayer
100
AcDbLine
 10
199.07450141811202
 20
20.615807356604687
 30
0.0
 11
194.6583633685972
 21
21.49568584953543
 31
0.0
  0
LINE
  5
4E
330
17
100
AcDbEntity
  8
FoilLayer
100
AcDbLine
 10
194.6583633685972
 20
21.49568584953543
 30
0.0
 11
190.23880978902574
 21
22.360811150138073
 31
0.0
  0
LINE
  5
4F
330
17
100
AcDbEntity
  8
FoilLayer
100
AcDbLine
 10
190.23880978902574
 20
22.360811150138073
 30
0.0
 11
185.81380084894707
 21
23.198422458617582
 31
0.0
  0
LINE
  5
50
330
17
100
AcDbEntity
  8
FoilLayer
100
AcDbLine
 10
185.81380084894707
 20
23.198422458617582
 30
0.0
 11
181.3826724175169
 21
24.002305407787535
 31
0.0
  0
LINE
  5
51
330
17
100
AcDbEntity
  8
FoilLayer
100
AcDbLine
 10
181.3826724175169
 20
24.002305407787535
 30
0.0
 11
177.89062499999957
 21
24.618792983004557
 31
0.0
  0
LINE
  5
52
330
17
100
AcDbEntity
  8
FoilLayer
100
AcDbLine
 10
177.89062499999957
 20
24.618792983004557
 30
0.0
 11
177.6298469401987
 21
23.141635305731587
 31
0.0
  0
LINE
  5
53
330
17
100
AcDbEntity
  8
FoilLayer
100
AcDbLine
 10
177.6298469401987
 20
23.141635305731587
 30
0.0
 11
176.6833238738191
 21
23.308740696843618
 31
0.0
  0
LINE
  5
54
330
17
100
AcDbEntity
  8
FoilLayer
100
AcDbLine
 10
176.6833238738191
 20
23.308740696843618
 30
0.0
 11
172.24819553277663
 21
24.104346420539365
 31
0.0
  0
LINE
  5
55
330
17
100
AcDbEntity
  8
FoilLayer
100
AcDbLine
 10
172.24819553277663
 20
24.104346420539365
 30
0.0
 11
167.8217486751599
 21
24.908575351681424
 31
0.0
  0
LINE
  5
56
330
17
100
AcDbEntity
  8
FoilLayer
100
AcDbLine
 10
167.8217486751599
 20
24.908575351681424
 30
0.0
 11
163.39806007032914
 21
25.704428754438855
 31
0.0
  0
LINE
  5
57
330
17
100
AcDbEntity
  8
FoilLayer
100
AcDbLine
 10
163.39806007032914
 20
25.704428754438855
 30
0.0
 11
158.9763921565103
 21
26.483258354995577
 31
0.0
  0
LINE
  5
58
330
17
100
AcDbEntity
  8
FoilLayer
100
AcDbLine
 10
158.9763921565103
 20
26.483258354995577
 30
0.0
 11
154.55248513059107
 21
27.2336217475339
 31
0.0
  0
LINE
  5
59
330
17
100
AcDbEntity
  8
FoilLayer
100
AcDbLine
 10
154.55248513059107
 20
27.2336217475339
 30
0.0
 11
150.1189755351934
 21
27.952836506810407
 31
0.0
  0
LINE
  5
5A
330
17
100
AcDbEntity
  8
FoilLayer
100
AcDbLine
 10
150.1189755351934
 20
27.952836506810407
 30
0.0
 11
145.67790492924686
 21
28.65797793376486
 31
0.0
  0
LINE
  5
5B
330
17
100
AcDbEntity
  8
FoilLayer
100
AcDbLine
 10
145.67790492924686
 20
28.65797793376486
 30
0.0
 11
141.24077087248222
 21
29.36753232150712
 31
0.0
  0
LINE
  5
5C
330
17
100
AcDbEntity
  8
FoilLayer
100
AcDbLine
 10
141.24077087248222
 20
29.36753232150712
 30
0.0
 11
136.81262704666582
 21
30.077057879638154
 31
0.0
  0
LINE
  5
5D
330
17
100
AcDbEntity
  8
FoilLayer
100
AcDbLine
 10
136.81262704666582
 20
30.077057879638154
 30
0.0
 11
132.38586319493172
 21
30.76793380923715
 31
0.0
  0
LINE
  5
5E
330
17
100
AcDbEntity
  8
FoilLayer
100
AcDbLine
 10
132.38586319493172
 20
30.76793380923715
 30
0.0
 11
127.96070320171546
 21
31.433799437687554
 31
0.0
  0
LINE
  5
5F
330
17
100
AcDbEntity
  8
FoilLayer
100
AcDbLine
 10
127.96070320171546
 20
31.433799437687554
 30
0.0
 11
123.52707609153745
 21
32.0669125439257
 31
0.0
  0
LINE
  5
60
330
17
100
AcDbEntity
  8
FoilLayer
100
AcDbLine
 10
123.52707609153745
 20
32.0669125439257
 30
0.0
 11
119.09136116692682
 21
32.68509873419282
 31
0.0
  0
LINE
  5
61
330
17
100
AcDbEntity
  8
FoilLayer
100
AcDbLine
 10
119.09136116692682
 20
32.68509873419282
 30
0.0
 11
114.65709222410001
 21
33.295245454458346
 31
0.0
  0
LINE
  5
62
330
17
100
AcDbEntity
  8
FoilLayer
100
AcDbLine
 10
114.65709222410001
 20
33.295245454458346
 30
0.0
 11
110.22759264179311
 21
33.89843273385148
 31
0.0
  0
LINE
  5
63
330
17
100
AcDbEntity
  8
FoilLayer
100
AcDbLine
 10
110.22759264179311
 20
33.89843273385148
 30
0.0
 11
105.80466368156769
 21
34.48719294498505
 31
0.0
  0
LINE
  5
64
330
17
100
AcDbEntity
  8
FoilLayer
100
AcDbLine
 10
105.80466368156769
 20
34.48719294498505
 30
0.0
 11
101.38249278384907
 21
35.04734263566116
 31
0.0
  0
LINE
  5
65
330
17
100
AcDbEntity
  8
FoilLayer
100
AcDbLine
 10
101.38249278384907
 20
35.04734263566116
 30
0.0
 11
96.95884740279413
 21
35.57635540568768
 31
0.0
  0
LINE
  5
66
330
17
100
AcDbEntity
  8
FoilLayer
100
AcDbLine
 10
96.95884740279413
 20
35.57635540568768
 30
0.0
 11
92.53158361910059
 21
36.07966964530678
 31
0.0
  0
LINE
  5
67
330
17
100
AcDbEntity
  8
FoilLayer
100
AcDbLine
 10
92.53158361910059
 20
36.07966964530678
 30
0.0
 11
88.10435790119593
 21
36.571494342365455
 31
0.0
  0
LINE
  5
68
330
17
100
AcDbEntity
  8
FoilLayer
100
AcDbLine
 10
88.10435790119593
 20
36.571494342365455
 30
0.0
 11
83.68392462032497
 21
37.059683216665405
 31
0.0
  0
LINE
  5
69
330
17
100
AcDbEntity
  8
FoilLayer
100
AcDbLine
 10
83.68392462032497
 20
37.059683216665405
 30
0.0
 11
79.27076688797624
 21
37.53551226248133
 31
0.0
  0
LINE
  5
6A
330
17
100
AcDbEntity
  8
FoilLayer
100
AcDbLine
 10
79.27076688797624
 20
37.53551226248133
 30
0.0
 11
74.86152461290294
 21
37.987420210228315
 31
0.0
  0
LINE
  5
6B
330
17
100
AcDbEntity
  8
FoilLayer
100
AcDbLine
 10
74.86152461290294
 20
37.987420210228315
 30
0.0
 11
70.45351426815765
 21
38.41113149342455
 31
0.0
  0
LINE
  5
6C
330
17
100
AcDbEntity
  8
FoilLayer
100
AcDbLine
 10
70.45351426815765
 20
38.41113149342455
 30
0.0
 11
66.04505214113126
 21
38.810529316655185
 31
0.0
  0
LINE
  5
6D
330
17
100
AcDbEntity
  8
FoilLayer
100
AcDbLine
 10
66.04505214113126
 20
38.810529316655185
 30
0.0
 11
61.639947853738306
 21
39.19597292542358
 31
0.0
  0
LINE
  5
6E
330
17
100
AcDbEntity
  8
FoilLayer
100
AcDbLine
 10
61.639947853738306
 20
39.19597292542358
 30
0.0
 11
57.23989064279721
 21
39.56991704189507
 31
0.0
  0
LINE
  5
6F
330
17
100
AcDbEntity
  8
FoilLayer
100
AcDbLine
 10
57.23989064279721
 20
39.56991704189507
 30
0.0
 11
52.84710526117908
 21
39.9311795175379
 31
0.0
  0
LINE
  5
70
330
17
100
AcDbEntity
  8
FoilLayer
100
AcDbLine
 10
52.84710526117908
 20
39.9311795175379
 30
0.0
 11
48.46300491835643
 21
40.27336637770863
 31
0.0
  0
LINE
  5
71
330
17
100
AcDbEntity
  8
FoilLayer
100
AcDbLine
 10
48.46300491835643
 20
40.27336637770863
 30
0.0
 11
44.08465383070126
 21
40.58782416949029
 31
0.0
  0
LINE
  5
72
330
17
100
AcDbEntity
  8
FoilLayer
100
AcDbLine
 10
44.08465383070126
 20
40.58782416949029
 30
0.0
 11
39.71044505260659
 21
40.87528239644981
 31
0.0
  0
LINE
  5
73
330
17
100
AcDbEntity
  8
FoilLayer
100
AcDbLine
 10
39.71044505260659
 20
40.87528239644981
 30
0.0
 11
35.342337589658655
 21
41.14414551592342
 31
0.0
  0
LINE
  5
74
330
17
100
AcDbEntity
  8
FoilLayer
100
AcDbLine
 10
35.342337589658655
 20
41.14414551592342
 30
0.0
 11
30.981217796165907
 21
41.39794979140842
 31
0.0
  0
LINE
  5
75
330
17
100
AcDbEntity
  8
FoilLayer
100
AcDbLine
 10
30.981217796165907
 20
41.39794979140842
 30
0.0
 11
26.63019955603798
 21
41.637099868501544
 31
0.0
  0
LINE
  5
76
330
17
100
AcDbEntity
  8
FoilLayer
100
AcDbLine
 10
26.63019955603798
 20
41.637099868501544
 30
0.0
 11
22.291642573328858
 21
41.855492108307814
 31
0.0
  0
LINE
  5
77
330
17
100
AcDbEntity
  8
FoilLayer
100
AcDbLine
 10
22.291642573328858
 20
41.855492108307814
 30
0.0
 11
17.96994219331117
 21
42.049253804345184
 31
0.0
  0
LINE
  5
78
330
17
100
AcDbEntity
  8
FoilLayer
100
AcDbLine
 10
17.96994219331117
 20
42.049253804345184
 30
0.0
 11
13.66939070396083
 21
42.21782632779391
 31
0.0
  0
LINE
  5
79
330
17
100
AcDbEntity
  8
FoilLayer
100
AcDbLine
 10
13.66939070396083
 20
42.21782632779391
 30
0.0
 11
9.390560205239893
 21
42.36146532351532
 31
0.0
  0
LINE
  5
7A
330
17
100
AcDbEntity
  8
FoilLayer
100
AcDbLine
 10
9.390560205239893
 20
42.36146532351532
 30
0.0
 11
5.132129878987513
 21
42.48237311307286
 31
0.0
  0
LINE
  5
7B
330
17
100
AcDbEntity
  8
FoilLayer
100
AcDbLine
 10
5.132129878987513
 20
42.48237311307286
 30
0.0
 11
0.8914269968562394
 21
42.580693055028306
 31
0.0
  0
LINE
  5
7C
330
17
100
AcDbEntity
  8
FoilLayer
100
AcDbLine
 10
0.8914269968562394
 20
42.580693055028306
 30
0.0
 11
-3.3316579933761545
 21
42.65654040580649
 31
0.0
  0
LINE
  5
7D
330
17
100
AcDbEntity
  8
FoilLayer
100
AcDbLine
 10
-3.3316579933761545
 20
42.65654040580649
 30
0.0
 11
-7.540426734202953
 21
42.703563891552086
 31
0.0
  0
LINE
  5
7E
330
17
100
AcDbEntity
  8
FoilLayer
100
AcDbLine
 10
-7.540426734202953
 20
42.703563891552086
 30
0.0
 11
-11.73852908973575
 21
42.71973266920356
 31
0.0
  0
LINE
  5
7F
330
17
100
AcDbEntity
  8
FoilLayer
100
AcDbLine
 10
-11.73852908973575
 20
42.71973266920356
 30
0.0
 11
-15.925424634011193
 21
42.710663589507476
 31
0.0
  0
LINE
  5
80
330
17
100
AcDbEntity
  8
FoilLayer
100
AcDbLine
 10
-15.925424634011193
 20
42.710663589507476
 30
0.0
 11
-20.0997062664635
 21
42.6792493044143
 31
0.0
  0
LINE
  5
81
330
17
100
AcDbEntity
  8
FoilLayer
100
AcDbLine
 10
-20.0997062664635
 20
42.6792493044143
 30
0.0
 11
-24.25977550862777
 21
42.62513656233204
 31
0.0
  0
LINE
  5
82
330
17
100
AcDbEntity
  8
FoilLayer
100
AcDbLine
 10
-24.25977550862777
 20
42.62513656233204
 30
0.0
 11
-28.405782265287343
 21
42.544586990023966
 31
0.0
  0
LINE
  5
83
330
17
100
AcDbEntity
  8
FoilLayer
100
AcDbLine
 10
-28.405782265287343
 20
42.544586990023966
 30
0.0
 11
-32.537162677696216
 21
42.435767153250225
 31
0.0
  0
LINE
  5
84
330
17
100
AcDbEntity
  8
FoilLayer
100
AcDbLine
 10
-32.537162677696216
 20
42.435767153250225
 30
0.0
 11
-36.65425235935547
 21
42.296717790918656
 31
0.0
  0
LINE
  5
85
330
17
100
AcDbEntity
  8
FoilLayer
100
AcDbLine
 10
-36.65425235935547
 20
42.296717790918656
 30
0.0
 11
-40.75710610524027
 21
42.127587301707614
 31
0.0
  0
LINE
  5
86
330
17
100
AcDbEntity
  8
FoilLayer
100
AcDbLine
 10
-40.75710610524027
 20
42.127587301707614
 30
0.0
 11
-44.8443980500345
 21
41.9309508209433
 31
0.0
  0
LINE
  5
87
330
17
100
AcDbEntity
  8
FoilLayer
100
AcDbLine
 10
-44.8443980500345
 20
41.9309508209433
 30
0.0
 11
-48.913366039767595
 21
41.70793208565609
 31
0.0
  0
LINE
  5
88
330
17
100
AcDbEntity
  8
FoilLayer
100
AcDbLine
 10
-48.913366039767595
 20
41.70793208565609
 30
0.0
 11
-52.96528051081124
 21
41.45358632490187
 31
0.0
  0
LINE
  5
89
330
17
100
AcDbEntity
  8
FoilLayer
100
AcDbLine
 10
-52.96528051081124
 20
41.45358632490187
 30
0.0
 11
-57.000304754270886
 21
41.17062870976534
 31
0.0
  0
LINE
  5
8A
330
17
100
AcDbEntity
  8
FoilLayer
100
AcDbLine
 10
-57.000304754270886
 20
41.17062870976534
 30
0.0
 11
-61.01018028806378
 21
40.86468245119768
 31
0.0
  0
LINE
  5
8B
330
17
100
AcDbEntity
  8
FoilLayer
100
AcDbLine
 10
-61.01018028806378
 20
40.86468245119768
 30
0.0
 11
-65.00331888109959
 21
40.52131322746742
 31
0.0
  0
LINE
  5
8C
330
17
100
AcDbEntity
  8
FoilLayer
100
AcDbLine
 10
-65.00331888109959
 20
40.52131322746742
 30
0.0
 11
-68.96808315991218
 21
40.157989049645465
 31
0.0
  0
LINE
  5
8D
330
17
100
AcDbEntity
  8
FoilLayer
100
AcDbLine
 10
-68.96808315991218
 20
40.157989049645465
 30
0.0
 11
-72.90513487852499
 21
39.757950544628905
 31
0.0
  0
LINE
  5
8E
330
17
100
AcDbEntity
  8
FoilLayer
100
AcDbLine
 10
-72.90513487852499
 20
39.757950544628905
 30
0.0
 11
-76.82100708871818
 21
39.3163835309825
 31
0.0
  0
LINE
  5
8F
330
17
100
AcDbEntity
  8
FoilLayer
100
AcDbLine
 10
-76.82100708871818
 20
39.3163835309825
 30
0.0
 11
-80.70766895541234
 21
38.853574646695606
 31
0.0
  0
LINE
  5
90
330
17
100
AcDbEntity
  8
FoilLayer
100
AcDbLine
 10
-80.70766895541234
 20
38.853574646695606
 30
0.0
 11
-84.55896657985683
 21
38.3686750598804
 31
0.0
  0
LINE
  5
91
330
17
100
AcDbEntity
  8
FoilLayer
100
AcDbLine
 10
-84.55896657985683
 20
38.3686750598804
 30
0.0
 11
-88.37098861724854
 21
37.8516699164418
 31
0.0
  0
LINE
  5
92
330
17
100
AcDbEntity
  8
FoilLayer
100
AcDbLine
 10
-88.37098861724854
 20
37.8516699164418
 30
0.0
 11
-92.14131069635077
 21
37.29404044593169
 31
0.0
  0
LINE
  5
93
330
17
100
AcDbEntity
  8
FoilLayer
100
AcDbLine
 10
-92.14131069635077
 20
37.29404044593169
 30
0.0
 11
-95.87163633848566
 21
36.69241350276561
 31
0.0
  0
LINE
  5
94
330
17
100
AcDbEntity
  8
FoilLayer
100
AcDbLine
 10
-95.87163633848566
 20
36.69241350276561
 30
0.0
 11
-99.56150836594003
 21
36.0595644830564
 31
0.0
  0
LINE
  5
95
330
17
100
AcDbEntity
  8
FoilLayer
100
AcDbLine
 10
-99.56150836594003
 20
36.0595644830564
 30
0.0
 11
-103.20076254940747
 21
35.415084333346535
 31
0.0
  0
LINE
  5
96
330
17
100
AcDbEntity
  8
FoilLayer
100
AcDbLine
 10
-103.20076254940747
 20
35.415084333346535
 30
0.0
 11
-106.77324782819703
 21
34.75874057709042
 31
0.0
  0
LINE
  5
97
330
17
100
AcDbEntity
  8
FoilLayer
100
AcDbLine
 10
-106.77324782819703
 20
34.75874057709042
 30
0.0
 11
-110.2774004334604
 21
34.063488294576715
 31
0.0
  0
LINE
  5
98
330
17
100
AcDbEntity
  8
FoilLayer
100
AcDbLine
 10
-110.2774004334604
 20
34.063488294576715
 30
0.0
 11
-113.70636547502924
 21
33.327311943967324
 31
0.0
  0
LINE
  5
99
330
17
100
AcDbEntity
  8
FoilLayer
100
AcDbLine
 10
-113.70636547502924
 20
33.327311943967324
 30
0.0
 11
-117.05887414351638
 21
32.550131480462284
 31
0.0
  0
LINE
  5
9A
330
17
100
AcDbEntity
  8
FoilLayer
100
AcDbLine
 10
-117.05887414351638
 20
32.550131480462284
 30
0.0
 11
-120.32893110060135
 21
31.747790896127682
 31
0.0
  0
LINE
  5
9B
330
17
100
AcDbEntity
  8
FoilLayer
100
AcDbLine
 10
-120.32893110060135
 20
31.747790896127682
 30
0.0
 11
-123.51003579131401
 21
30.93532993650872
 31
0.0
  0
LINE
  5
9C
330
17
100
AcDbEntity
  8
FoilLayer
100
AcDbLine
 10
-123.51003579131401
 20
30.93532993650872
 30
0.0
 11
-126.59233993396873
 21
30.12482560682119
 31
0.0
  0
LINE
  5
9D
330
17
100
AcDbEntity
  8
FoilLayer
100
AcDbLine
 10
-126.59233993396873
 20
30.12482560682119
 30
0.0
 11
-129.55864526575516
 21
29.319119171470074
 31
0.0
  0
LINE
  5
9E
330
17
100
AcDbEntity
  8
FoilLayer
100
AcDbLine
 10
-129.55864526575516
 20
29.319119171470074
 30
0.0
 11
-132.40608492037305
 21
28.49694792206951
 31
0.0
  0
LINE
  5
9F
330
17
100
AcDbEntity
  8
FoilLayer
100
AcDbLine
 10
-132.40608492037305
 20
28.49694792206951
 30
0.0
 11
-135.12899599675097
 21
27.659742217129253
 31
0.0
  0
LINE
  5
A0
330
17
100
AcDbEntity
  8
FoilLayer
100
AcDbLine
 10
-135.12899599675097
 20
27.659742217129253
 30
0.0
 11
-137.72690047167603
 21
26.809354296301436
 31
0.0
  0
LINE
  5
A1
330
17
100
AcDbEntity
  8
FoilLayer
100
AcDbLine
 10
-137.72690047167603
 20
26.809354296301436
 30
0.0
 11
-140.19940441483928
 21
25.95583162039122
 31
0.0
  0
LINE
  5
A2
330
17
100
AcDbEntity
  8
FoilLayer
100
AcDbLine
 10
-140.19940441483928
 20
25.95583162039122
 30
0.0
 11
-142.5467481222315
 21
25.10873240105353
 31
0.0
  0
LINE
  5
A3
330
17
100
AcDbEntity
  8
FoilLayer
100
AcDbLine
 10
-142.5467481222315
 20
25.10873240105353
 30
0.0
 11
-144.7704000906113
 21
24.274812836493005
 31
0.0
  0
LINE
  5
A4
330
17
100
AcDbEntity
  8
FoilLayer
100
AcDbLine
 10
-144.7704000906113
 20
24.274812836493005
 30
0.0
 11
-146.87084755047152
 21
23.45982399580226
 31
0.0
  0
LINE
  5
A5
330
17
100
AcDbEntity
  8
FoilLayer
100
AcDbLine
 10
-146.87084755047152
 20
23.45982399580226
 30
0.0
 11
-148.8523096878847
 21
22.66420021642361
 31
0.0
  0
LINE
  5
A6
330
17
100
AcDbEntity
  8
FoilLayer
100
AcDbLine
 10
-148.8523096878847
 20
22.66420021642361
 30
0.0
 11
-150.71551446172643
 21
21.89137216258251
 31
0.0
  0
LINE
  5
A7
330
17
100
AcDbEntity
  8
FoilLayer
100
AcDbLine
 10
-150.71551446172643
 20
21.89137216258251
 30
0.0
 11
-152.46064386186848
 21
21.13817692168472
 31
0.0
  0
LINE
  5
A8
330
17
100
AcDbEntity
  8
FoilLayer
100
AcDbLine
 10
-152.46064386186848
 20
21.13817692168472
 30
0.0
 11
-154.0957139785969
 21
20.394754218065444
 31
0.0
  0
LINE
  5
A9
330
17
100
AcDbEntity
  8
FoilLayer
100
AcDbLine
 10
-154.0957139785969
 20
20.394754218065444
 30
0.0
 11
-155.6318176358076
 21
19.657887544949524
 31
0.0
  0
LINE
  5
AA
330
17
100
AcDbEntity
  8
FoilLayer
100
AcDbLine
 10
-155.6318176358076
 20
19.657887544949524
 30
0.0
 11
-157.0745118365426
 21
18.933862242077513
 31
0.0
  0
LINE
  5
AB
330
17
100
AcDbEntity
  8
FoilLayer
100
AcDbLine
 10
-157.0745118365426
 20
18.933862242077513
 30
0.0
 11
-158.42865789778932
 21
18.225333636976664
 31
0.0
  0
LINE
  5
AC
330
17
100
AcDbEntity
  8
FoilLayer
100
AcDbLine
 10
-158.42865789778932
 20
18.225333636976664
 30
0.0
 11
-159.70087685192686
 21
17.531032651557908
 31
0.0
  0
LINE
  5
AD
330
17
100
AcDbEntity
  8
FoilLayer
100
AcDbLine
 10
-159.70087685192686
 20
17.531032651557908
 30
0.0
 11
-160.89798650836278
 21
16.85059516806162
 31
0.0
  0
LINE
  5
AE
330
17
100
AcDbEntity
  8
FoilLayer
100
AcDbLine
 10
-160.89798650836278
 20
16.85059516806162
 30
0.0
 11
-162.0263331868164
 21
16.184669881986505
 31
0.0
  0
LINE
  5
AF
330
17
100
AcDbEntity
  8
FoilLayer
100
AcDbLine
 10
-162.0263331868164
 20
16.184669881986505
 30
0.0
 11
-163.09150219140838
 21
15.53418704603199
 31
0.0
  0
LINE
  5
B0
330
17
100
AcDbEntity
  8
FoilLayer
100
AcDbLine
 10
-163.09150219140838
 20
15.53418704603199
 30
0.0
 11
-164.09562279254297
 21
14.901622710409416
 31
0.0
  0
LINE
  5
B1
330
17
100
AcDbEntity
  8
FoilLayer
100
AcDbLine
 10
-164.09562279254297
 20
14.901622710409416
 30
0.0
 11
-165.04425900643236
 21
14.283357996503373
 31
0.0
  0
LINE
  5
B2
330
17
100
AcDbEntity
  8
FoilLayer
100
AcDbLine
 10
-165.04425900643236
 20
14.283357996503373
 30
0.0
 11
-165.93246985482784
 21
13.68514737165681
 31
0.0
  0
LINE
  5
B3
330
17
100
AcDbEntity
  8
FoilLayer
100
AcDbLine
 10
-165.93246985482784
 20
13.68514737165681
 30
0.0
 11
-166.77274523967168
 21
13.093169954423342
 31
0.0
  0
LINE
  5
B4
330
17
100
AcDbEntity
  8
FoilLayer
100
AcDbLine
 10
-166.77274523967168
 20
13.093169954423342
 30
0.0
 11
-167.56247146134396
 21
12.513843967426139
 31
0.0
  0
LINE
  5
B5
330
17
100
AcDbEntity
  8
FoilLayer
100
AcDbLine
 10
-167.56247146134396
 20
12.513843967426139
 30
0.0
 11
-168.31354651436368
 21
11.936393696880533
 31
0.0
  0
LINE
  5
B6
330
17
100
AcDbEntity
  8
FoilLayer
100
AcDbLine
 10
-168.31354651436368
 20
11.936393696880533
 30
0.0
 11
-169.01678423099753
 21
11.375512622928497
 31
0.0
  0
LINE
  5
B7
330
17
100
AcDbEntity
  8
FoilLayer
100
AcDbLine
 10
-169.01678423099753
 20
11.375512622928497
 30
0.0
 11
-169.68332362495028
 21
10.817885892905993
 31
0.0
  0
LINE
  5
B8
330
17
100
AcDbEntity
  8
FoilLayer
100
AcDbLine
 10
-169.68332362495028
 20
10.817885892905993
 30
0.0
 11
-170.2997584774427
 21
10.281052654143187
 31
0.0
  0
LINE
  5
B9
330
17
100
AcDbEntity
  8
FoilLayer
100
AcDbLine
 10
-170.2997584774427
 20
10.281052654143187
 30
0.0
 11
-170.89341737951236
 21
9.73007978490873
 31
0.0
  0
LINE
  5
BA
330
17
100
AcDbEntity
  8
FoilLayer
100
AcDbLine
 10
-170.89341737951236
 20
9.73007978490873
 30
0.0
 11
-171.44644815672734
 21
9.196029501849456
 31
0.0
  0
LINE
  5
BB
330
17
100
AcDbEntity
  8
FoilLayer
100
AcDbLine
 10
-171.44644815672734
 20
9.196029501849456
 30
0.0
 11
-171.96526118008634
 21
8.667265135944945
 31
0.0
  0
LINE
  5
BC
330
17
100
AcDbEntity
  8
FoilLayer
100
AcDbLine
 10
-171.96526118008634
 20
8.667265135944945
 30
0.0
 11
-172.45278966647493
 21
8.141243851200635
 31
0.0
  0
LINE
  5
BD
330
17
100
AcDbEntity
  8
FoilLayer
100
AcDbLine
 10
-172.45278966647493
 20
8.141243851200635
 30
0.0
 11
-172.9095822843522
 21
7.620075738149609
 31
0.0
  0
LINE
  5
BE
330
17
100
AcDbEntity
  8
FoilLayer
100
AcDbLine
 10
-172.9095822843522
 20
7.620075738149609
 30
0.0
 11
-173.33456776763177
 21
7.106657413814739
 31
0.0
  0
LINE
  5
BF
330
17
100
AcDbEntity
  8
FoilLayer
100
AcDbLine
 10
-173.33456776763177
 20
7.106657413814739
 30
0.0
 11
-173.73122385253805
 21
6.594930947685526
 31
0.0
  0
LINE
  5
C0
330
17
100
AcDbEntity
  8
FoilLayer
100
AcDbLine
 10
-173.73122385253805
 20
6.594930947685526
 30
0.0
 11
-174.09837099342352
 21
6.08942845420397
 31
0.0
  0
LINE
  5
C1
330
17
100
AcDbEntity
  8
FoilLayer
100
AcDbLine
 10
-174.09837099342352
 20
6.08942845420397
 30
0.0
 11
-174.4381655406422
 21
5.588834634846616
 31
0.0
  0
LINE
  5
C2
330
17
100
AcDbEntity
  8
FoilLayer
100
AcDbLine
 10
-174.4381655406422
 20
5.588834634846616
 30
0.0
 11
-174.75359754860006
 21
5.090177973751929
 31
0.0
  0
LINE
  5
C3
330
17
100
AcDbEntity
  8
FoilLayer
100
AcDbLine
 10
-174.75359754860006
 20
5.090177973751929
 30
0.0
 11
-175.0463133643437
 21
4.593079981548112
 31
0.0
  0
LINE
  5
C4
330
17
100
AcDbEntity
  8
FoilLayer
100
AcDbLine
 10
-175.0463133643437
 20
4.593079981548112
 30
0.0
 11
-175.3173231886534
 21
4.09768070951852
 31
0.0
  0
LINE
  5
C5
330
17
100
AcDbEntity
  8
FoilLayer
100
AcDbLine
 10
-175.3173231886534
 20
4.09768070951852
 30
0.0
 11
-175.55905620673198
 21
3.622310508546083
 31
0.0
  0
LINE
  5
C6
330
17
100
AcDbEntity
  8
FoilLayer
100
AcDbLine
 10
-175.55905620673198
 20
3.622310508546083
 30
0.0
 11
-175.76523930597475
 21
3.172963587755701
 31
0.0
  0
LINE
  5
C7
330
17
100
AcDbEntity
  8
FoilLayer
100
AcDbLine
 10
-175.76523930597475
 20
3.172963587755701
 30
0.0
 11
-175.93138155877074
 21
2.745424440438513
 31
0.0
  0
LINE
  5
C8
330
17
100
AcDbEntity
  8
FoilLayer
100
AcDbLine
 10
-175.93138155877074
 20
2.745424440438513
 30
0.0
 11
-176.0639636323812
 21
2.3018466607904586
 31
0.0
  0
LINE
  5
C9
330
17
100
AcDbEntity
  8
FoilLayer
100
AcDbLine
 10
-176.0639636323812
 20
2.3018466607904586
 30
0.0
 11
-176.1685561542591
 21
1.8326984390480183
 31
0.0
  0
LINE
  5
CA
330
17
100
AcDbEntity
  8
FoilLayer
100
AcDbLine
 10
-176.1685561542591
 20
1.8326984390480183
 30
0.0
 11
-176.25187694595672
 21
1.3512427705896655
 31
0.0
  0
LINE
  5
CB
330
17
100
AcDbEntity
  8
FoilLayer
100
AcDbLine
 10
-176.25187694595672
 20
1.3512427705896655
 30
0.0
 11
-176.32187150598222
 21
0.8499663164896804
 31
0.0
  0
LINE
  5
CC
330
17
100
AcDbEntity
  8
FoilLayer
100
AcDbLine
 10
-176.32187150598222
 20
0.8499663164896804
 30
0.0
 11
-176.37061823889616
 21
0.4600879890163669
 31
0.0
  0
LINE
  5
CD
330
17
100
AcDbEntity
  8
FoilLayer
100
AcDbLine
 10
-176.37061823889616
 20
0.4600879890163669
 30
0.0
 11
-176.39062499999957
 21
0.0
 31
0.0
  0
LINE
  5
CE
330
17
100
AcDbEntity
  8
FoilLayer
100
AcDbLine
 10
-176.39062499999957
 20
0.0
 30
0.0
 11
-176.34767534149617
 21
-0.3515941424512455
 31
0.0
  0
LINE
  5
CF
330
17
100
AcDbEntity
  8
FoilLayer
100
AcDbLine
 10
-176.34767534149617
 20
-0.3515941424512455
 30
0.0
 11
-176.2989633151915
 21
-0.8234298192028093
 31
0.0
  0
LINE
  5
D0
330
17
100
AcDbEntity
  8
FoilLayer
100
AcDbLine
 10
-176.2989633151915
 20
-0.8234298192028093
 30
0.0
 11
-176.2421911546933
 21
-1.2738268603757805
 31
0.0
  0
LINE
  5
D1
330
17
100
AcDbEntity
  8
FoilLayer
100
AcDbLine
 10
-176.2421911546933
 20
-1.2738268603757805
 30
0.0
 11
-176.16643095124306
 21
-1.7056689992172689
 31
0.0
  0
LINE
  5
D2
330
17
100
AcDbEntity
  8
FoilLayer
100
AcDbLine
 10
-176.16643095124306
 20
-1.7056689992172689
 30
0.0
 11
-176.06493553416422
 21
-2.1266807862935386
 31
0.0
  0
LINE
  5
D3
330
17
100
AcDbEntity
  8
FoilLayer
100
AcDbLine
 10
-176.06493553416422
 20
-2.1266807862935386
 30
0.0
 11
-175.9314052374796
 21
-2.540331756007973
 31
0.0
  0
LINE
  5
D4
330
17
100
AcDbEntity
  8
FoilLayer
100
AcDbLine
 10
-175.9314052374796
 20
-2.540331756007973
 30
0.0
 11
-175.7541034482159
 21
-2.961757594169377
 31
0.0
  0
LINE
  5
D5
330
17
100
AcDbEntity
  8
FoilLayer
100
AcDbLine
 10
-175.7541034482159
 20
-2.961757594169377
 30
0.0
 11
-175.5457893878317
 21
-3.3705200842147653
 31
0.0
  0
LINE
  5
D6
330
17
100
AcDbEntity
  8
FoilLayer
100
AcDbLine
 10
-175.5457893878317
 20
-3.3705200842147653
 30
0.0
 11
-175.28142265696718
 21
-3.7907095592064715
 31
0.0
  0
LINE
  5
D7
330
17
100
AcDbEntity
  8
FoilLayer
100
AcDbLine
 10
-175.28142265696718
 20
-3.7907095592064715
 30
0.0
 11
-174.97978163318098
 21
-4.213092828645557
 31
0.0
  0
LINE
  5
D8
330
17
100
AcDbEntity
  8
FoilLayer
100
AcDbLine
 10
-174.97978163318098
 20
-4.213092828645557
 30
0.0
 11
-174.64082020480024
 21
-4.638188407050009
 31
0.0
  0
LINE
  5
D9
330
17
100
AcDbEntity
  8
FoilLayer
100
AcDbLine
 10
-174.64082020480024
 20
-4.638188407050009
 30
0.0
 11
-174.27502889360605
 21
-5.059304918703233
 31
0.0
  0
LINE
  5
DA
330
17
100
AcDbEntity
  8
FoilLayer
100
AcDbLine
 10
-174.27502889360605
 20
-5.059304918703233
 30
0.0
 11
-173.8873667705918
 21
-5.470970885065171
 31
0.0
  0
LINE
  5
DB
330
17
100
AcDbEntity
  8
FoilLayer
100
AcDbLine
 10
-173.8873667705918
 20
-5.470970885065171
 30
0.0
 11
-173.46587122306522
 21
-5.878331458605638
 31
0.0
  0
LINE
  5
DC
330
17
100
AcDbEntity
  8
FoilLayer
100
AcDbLine
 10
-173.46587122306522
 20
-5.878331458605638
 30
0.0
 11
-173.01055467871575
 21
-6.281261932909841
 31
0.0
  0
LINE
  5
DD
330
17
100
AcDbEntity
  8
FoilLayer
100
AcDbLine
 10
-173.01055467871575
 20
-6.281261932909841
 30
0.0
 11
-172.52290672491742
 21
-6.679014264344396
 31
0.0
  0
LINE
  5
DE
330
17
100
AcDbEntity
  8
FoilLayer
100
AcDbLine
 10
-172.52290672491742
 20
-6.679014264344396
 30
0.0
 11
-172.01001685165394
 21
-7.06685494547356
 31
0.0
  0
LINE
  5
DF
330
17
100
AcDbEntity
  8
FoilLayer
100
AcDbLine
 10
-172.01001685165394
 20
-7.06685494547356
 30
0.0
 11
-171.45683716331567
 21
-7.449677760154915
 31
0.0
  0
LINE
  5
E0
330
17
100
AcDbEntity
  8
FoilLayer
100
AcDbLine
 10
-171.45683716331567
 20
-7.449677760154915
 30
0.0
 11
-170.86744759962193
 21
-7.828303114221131
 31
0.0
  0
LINE
  5
E1
330
17
100
AcDbEntity
  8
FoilLayer
100
AcDbLine
 10
-170.86744759962193
 20
-7.828303114221131
 30
0.0
 11
-170.2438965919211
 21
-8.20265601340849
 31
0.0
  0
LINE
  5
E2
330
17
100
AcDbEntity
  8
FoilLayer
100
AcDbLine
 10
-170.2438965919211
 20
-8.20265601340849
 30
0.0
 11
-169.58527571904915
 21
-8.573364371158204
 31
0.0
  0
LINE
  5
E3
330
17
100
AcDbEntity
  8
FoilLayer
100
AcDbLine
 10
-169.58527571904915
 20
-8.573364371158204
 30
0.0
 11
-168.88848695825564
 21
-8.942062533308215
 31
0.0
  0
LINE
  5
E4
330
17
100
AcDbEntity
  8
FoilLayer
100
AcDbLine
 10
-168.88848695825564
 20
-8.942062533308215
 30
0.0
 11
-168.15388743152326
 21
-9.309738502512538
 31
0.0
  0
LINE
  5
E5
330
17
100
AcDbEntity
  8
FoilLayer
100
AcDbLine
 10
-168.15388743152326
 20
-9.309738502512538
 30
0.0
 11
-167.38332673556292
 21
-9.675837115537337
 31
0.0
  0
LINE
  5
E6
330
17
100
AcDbEntity
  8
FoilLayer
100
AcDbLine
 10
-167.38332673556292
 20
-9.675837115537337
 30
0.0
 11
-166.5754323820401
 21
-10.039025384185663
 31
0.0
  0
LINE
  5
E7
330
17
100
AcDbEntity
  8
FoilLayer
100
AcDbLine
 10
-166.5754323820401
 20
-10.039025384185663
 30
0.0
 11
-165.72403740727592
 21
-10.399016685433072
 31
0.0
  0
LINE
  5
E8
330
17
100
AcDbEntity
  8
FoilLayer
100
AcDbLine
 10
-165.72403740727592
 20
-10.399016685433072
 30
0.0
 11
-164.8258115039894
 21
-10.75614095771989
 31
0.0
  0
LINE
  5
E9
330
17
100
AcDbEntity
  8
FoilLayer
100
AcDbLine
 10
-164.8258115039894
 20
-10.75614095771989
 30
0.0
 11
-163.8758196139906
 21
-11.111510350779163
 31
0.0
  0
LINE
  5
EA
330
17
100
AcDbEntity
  8
FoilLayer
100
AcDbLine
 10
-163.8758196139906
 20
-11.111510350779163
 30
0.0
 11
-162.87242717493166
 21
-11.466527321821275
 31
0.0
  0
LINE
  5
EB
330
17
100
AcDbEntity
  8
FoilLayer
100
AcDbLine
 10
-162.87242717493166
 20
-11.466527321821275
 30
0.0
 11
-161.81383355901306
 21
-11.822055893402936
 31
0.0
  0
LINE
  5
EC
330
17
100
AcDbEntity
  8
FoilLayer
100
AcDbLine
 10
-161.81383355901306
 20
-11.822055893402936
 30
0.0
 11
-160.69635672375676
 21
-12.178420344769833
 31
0.0
  0
LINE
  5
ED
330
17
100
AcDbEntity
  8
FoilLayer
100
AcDbLine
 10
-160.69635672375676
 20
-12.178420344769833
 30
0.0
 11
-159.5161757939128
 21
-12.53535069872947
 31
0.0
  0
LINE
  5
EE
330
17
100
AcDbEntity
  8
FoilLayer
100
AcDbLine
 10
-159.5161757939128
 20
-12.53535069872947
 30
0.0
 11
-158.26887219408866
 21
-12.891793101988842
 31
0.0
  0
LINE
  5
EF
330
17
100
AcDbEntity
  8
FoilLayer
100
AcDbLine
 10
-158.26887219408866
 20
-12.891793101988842
 30
0.0
 11
-156.94878034576467
 21
-13.246115692038156
 31
0.0
  0
LINE
  5
F0
330
17
100
AcDbEntity
  8
FoilLayer
100
AcDbLine
 10
-156.94878034576467
 20
-13.246115692038156
 30
0.0
 11
-155.54900804573123
 21
-13.59643404566897
 31
0.0
  0
LINE
  5
F1
330
17
100
AcDbEntity
  8
FoilLayer
100
AcDbLine
 10
-155.54900804573123
 20
-13.59643404566897
 30
0.0
 11
-154.06014475558447
 21
-13.941500128767478
 31
0.0
  0
LINE
  5
F2
330
17
100
AcDbEntity
  8
FoilLayer
100
AcDbLine
 10
-154.06014475558447
 20
-13.941500128767478
 30
0.0
 11
-152.46842968143216
 21
-14.283594760751523
 31
0.0
  0
LINE
  5
F3
330
17
100
AcDbEntity
  8
FoilLayer
100
AcDbLine
 10
-152.46842968143216
 20
-14.283594760751523
 30
0.0
 11
-150.77460273576943
 21
-14.630839180705754
 31
0.0
  0
LINE
  5
F4
330
17
100
AcDbEntity
  8
FoilLayer
100
AcDbLine
 10
-150.77460273576943
 20
-14.630839180705754
 30
0.0
 11
-148.9838676028385
 21
-14.984290450252546
 31
0.0
  0
LINE
  5
F5
330
17
100
AcDbEntity
  8
FoilLayer
100
AcDbLine
 10
-148.9838676028385
 20
-14.984290450252546
 30
0.0
 11
-147.07828995307509
 21
-15.333957385296676
 31
0.0
  0
LINE
  5
F6
330
17
100
AcDbEntity
  8
FoilLayer
100
AcDbLine
 10
-147.07828995307509
 20
-15.333957385296676
 30
0.0
 11
-145.04752505001989
 21
-15.678370569604885
 31
0.0
  0
LINE
  5
F7
330
17
100
AcDbEntity
  8
FoilLayer
100
AcDbLine
 10
-145.04752505001989
 20
-15.678370569604885
 30
0.0
 11
-142.88986960386345
 21
-16.018404920441718
 31
0.0
  0
LINE
  5
F8
330
17
100
AcDbEntity
  8
FoilLayer
100
AcDbLine
 10
-142.88986960386345
 20
-16.018404920441718
 30
0.0
 11
-140.5978202320845
 21
-16.348797287239282
 31
0.0
  0
LINE
  5
F9
330
17
100
AcDbEntity
  8
FoilLayer
100
AcDbLine
 10
-140.5978202320845
 20
-16.348797287239282
 30
0.0
 11
-138.16410254735817
 21
-16.66475513876757
 31
0.0
  0
LINE
  5
FA
330
17
100
AcDbEntity
  8
FoilLayer
100
AcDbLine
 10
-138.16410254735817
 20
-16.66475513876757
 30
0.0
 11
-135.58165035451012
 21
-16.964227190961914
 31
0.0
  0
LINE
  5
FB
330
17
100
AcDbEntity
  8
FoilLayer
100
AcDbLine
 10
-135.58165035451012
 20
-16.964227190961914
 30
0.0
 11
-132.83987982150379
 21
-17.252464586911017
 31
0.0
  0
LINE
  5
FC
330
17
100
AcDbEntity
  8
FoilLayer
100
AcDbLine
 10
-132.83987982150379
 20
-17.252464586911017
 30
0.0
 11
-129.95933424309482
 21
-17.550956136805265
 31
0.0
  0
LINE
  5
FD
330
17
100
AcDbEntity
  8
FoilLayer
100
AcDbLine
 10
-129.95933424309482
 20
-17.550956136805265
 30
0.0
 11
-126.94584456558377
 21
-17.84920244690391
 31
0.0
  0
LINE
  5
FE
330
17
100
AcDbEntity
  8
FoilLayer
100
AcDbLine
 10
-126.94584456558377
 20
-17.84920244690391
 30
0.0
 11
-123.79611207764188
 21
-18.127642698756866
 31
0.0
  0
LINE
  5
FF
330
17
100
AcDbEntity
  8
FoilLayer
100
AcDbLine
 10
-123.79611207764188
 20
-18.127642698756866
 30
0.0
 11
-120.51160312504052
 21
-18.377878501465464
 31
0.0
  0
LINE
  5
100
330
17
100
AcDbEntity
  8
FoilLayer
100
AcDbLine
 10
-120.51160312504052
 20
-18.377878501465464
 30
0.0
 11
-117.10077509147357
 21
-18.60087810485359
 31
0.0
  0
LINE
  5
101
330
17
100
AcDbEntity
  8
FoilLayer
100
AcDbLine
 10
-117.10077509147357
 20
-18.60087810485359
 30
0.0
 11
-113.57420100095166
 21
-18.79789401263119
 31
0.0
  0
LINE
  5
102
330
17
100
AcDbEntity
  8
FoilLayer
100
AcDbLine
 10
-113.57420100095166
 20
-18.79789401263119
 30
0.0
 11
-109.92869073166706
 21
-18.967902727029482
 31
0.0
  0
LINE
  5
103
330
17
100
AcDbEntity
  8
FoilLayer
100
AcDbLine
 10
-109.92869073166706
 20
-18.967902727029482
 30
0.0
 11
-106.19209582793327
 21
-19.14169236878475
 31
0.0
  0
LINE
  5
104
330
17
100
AcDbEntity
  8
FoilLayer
100
AcDbLine
 10
-106.19209582793327
 20
-19.14169236878475
 30
0.0
 11
-102.37920987584324
 21
-19.309779346238624
 31
0.0
  0
LINE
  5
105
330
17
100
AcDbEntity
  8
FoilLayer
100
AcDbLine
 10
-102.37920987584324
 20
-19.309779346238624
 30
0.0
 11
-98.49066869090153
 21
-19.448095871030432
 31
0.0
  0
LINE
  5
106
330
17
100
AcDbEntity
  8
FoilLayer
100
AcDbLine
 10
-98.49066869090153
 20
-19.448095871030432
 30
0.0
 11
-94.5310981997001
 21
-19.551194097793392
 31
0.0
  0
LINE
  5
107
330
17
100
AcDbEntity
  8
FoilLayer
100
AcDbLine
 10
-94.5310981997001
 20
-19.551194097793392
 30
0.0
 11
-90.50858125312878
 21
-19.62300566972965
 31
0.0
  0
LINE
  5
108
330
17
100
AcDbEntity
  8
FoilLayer
100
AcDbLine
 10
-90.50858125312878
 20
-19.62300566972965
 30
0.0
 11
-86.42543616953076
 21
-19.666985359657918
 31
0.0
  0
LINE
  5
109
330
17
100
AcDbEntity
  8
FoilLayer
100
AcDbLine
 10
-86.42543616953076
 20
-19.666985359657918
 30
0.0
 11
-83.00409971709854
 21
-19.69327405563518
 31
0.0
  0
LINE
  5
10A
330
17
100
AcDbEntity
  8
FoilLayer
100
AcDbLine
 10
-83.00409971709854
 20
-19.69327405563518
 30
0.0
 11
-83.0156249999998
 21
-21.19322977759968
 31
0.0
  0
LINE
  5
10B
330
17
100
AcDbEntity
  8
FoilLayer
100
AcDbLine
 10
-83.0156249999998
 20
-21.19322977759968
 30
0.0
 11
-82.30051736955264
 21
-21.19872448627543
 31
0.0
  0
LINE
  5
10C
330
17
100
AcDbEntity
  8
FoilLayer
100
AcDbLine
 10
-82.30051736955264
 20
-21.19872448627543
 30
0.0
 11
-78.12062014895712
 21
-21.23392342102606
 31
0.0
  0
LINE
  5
10D
330
17
100
AcDbEntity
  8
FoilLayer
100
AcDbLine
 10
-78.12062014895712
 20
-21.23392342102606
 30
0.0
 11
-73.90144433270994
 21
-21.24924586836359
 31
0.0
  0
LINE
  5
10E
330
17
100
AcDbEntity
  8
FoilLayer
100
AcDbLine
 10
-73.90144433270994
 20
-21.24924586836359
 30
0.0
 11
-69.64673751628996
 21
-21.23852489901906
 31
0.0
  0
LINE
  5
10F
330
17
100
AcDbEntity
  8
FoilLayer
100
AcDbLine
 10
-69.64673751628996
 20
-21.23852489901906
 30
0.0
 11
-65.35996266767131
 21
-21.200954068395752
 31
0.0
  0
LINE
  5
110
330
17
100
AcDbEntity
  8
FoilLayer
100
AcDbLine
 10
-65.35996266767131
 20
-21.200954068395752
 30
0.0
 11
-61.04396606190119
 21
-21.146779966663658
 31
0.0
  0
LINE
  5
111
330
17
100
AcDbEntity
  8
FoilLayer
100
AcDbLine
 10
-61.04396606190119
 20
-21.146779966663658
 30
0.0
 11
-56.70102471901737
 21
-21.087624883598927
 31
0.0
  0
LINE
  5
112
330
17
100
AcDbEntity
  8
FoilLayer
100
AcDbLine
 10
-56.70102471901737
 20
-21.087624883598927
 30
0.0
 11
-52.3332733453053
 21
-21.025908152991697
 31
0.0
  0
LINE
  5
113
330
17
100
AcDbEntity
  8
FoilLayer
100
AcDbLine
 10
-52.3332733453053
 20
-21.025908152991697
 30
0.0
 11
-47.942656895380566
 21
-20.95674366934424
 31
0.0
  0
LINE
  5
114
330
17
100
AcDbEntity
  8
FoilLayer
100
AcDbLine
 10
-47.942656895380566
 20
-20.95674366934424
 30
0.0
 11
-43.531025448023826
 21
-20.869647652899296
 31
0.0
  0
LINE
  5
115
330
17
100
AcDbEntity
  8
FoilLayer
100
AcDbLine
 10
-43.531025448023826
 20
-20.869647652899296
 30
0.0
 11
-39.099897016593644
 21
-20.76291233862853
 31
0.0
  0
LINE
  5
116
330
17
100
AcDbEntity
  8
FoilLayer
100
AcDbLine
 10
-39.099897016593644
 20
-20.76291233862853
 30
0.0
 11
-34.650647300696136
 21
-20.641423832029677
 31
0.0
  0
LINE
  5
117
330
17
100
AcDbEntity
  8
FoilLayer
100
AcDbLine
 10
-34.650647300696136
 20
-20.641423832029677
 30
0.0
 11
-30.18450968618515
 21
-20.506130891451797
 31
0.0
  0
LINE
  5
118
330
17
100
AcDbEntity
  8
FoilLayer
100
AcDbLine
 10
-30.18450968618515
 20
-20.506130891451797
 30
0.0
 11
-25.70271755891443
 21
-20.36414920451295
 31
0.0
  0
LINE
  5
119
330
17
100
AcDbEntity
  8
FoilLayer
100
AcDbLine
 10
-25.70271755891443
 20
-20.36414920451295
 30
0.0
 11
-21.2064094289029
 21
-20.218372484177813
 31
0.0
  0
LINE
  5
11A
330
17
100
AcDbEntity
  8
FoilLayer
100
AcDbLine
 10
-21.2064094289029
 20
-20.218372484177813
 30
0.0
 11
-16.697008433674142
 21
-20.066808337913322
 31
0.0
  0
LINE
  5
11B
330
17
100
AcDbEntity
  8
FoilLayer
100
AcDbLine
 10
-16.697008433674142
 20
-20.066808337913322
 30
0.0
 11
-12.175558207412195
 21
-19.90661049067227
 31
0.0
  0
LINE
  5
11C
330
17
100
AcDbEntity
  8
FoilLayer
100
AcDbLine
 10
-12.175558207412195
 20
-19.90661049067227
 30
0.0
 11
-7.6431498222183905
 21
-19.737494314949924
 31
0.0
  0
LINE
  5
11D
330
17
100
AcDbEntity
  8
FoilLayer
100
AcDbLine
 10
-7.6431498222183905
 20
-19.737494314949924
 30
0.0
 11
-3.1015859189560615
 21
-19.559412372828838
 31
0.0
  0
LINE
  5
11E
330
17
100
AcDbEntity
  8
FoilLayer
100
AcDbLine
 10
-3.1015859189560615
 20
-19.559412372828838
 30
0.0
 11
1.4465244169148832
 21
-19.374119867254787
 31
0.0
  0
LINE
  5
11F
330
17
100
AcDbEntity
  8
FoilLayer
100
AcDbLine
 10
1.4465244169148832
 20
-19.374119867254787
 30
0.0
 11
5.997860531172648
 21
-19.18062060196125
 31
0.0
  0
LINE
  5
120
330
17
100
AcDbEntity
  8
FoilLayer
100
AcDbLine
 10
5.997860531172648
 20
-19.18062060196125
 30
0.0
 11
10.548010697494107
 21
-18.97796581859916
 31
0.0
  0
LINE
  5
121
330
17
100
AcDbEntity
  8
FoilLayer
100
AcDbLine
 10
10.548010697494107
 20
-18.97796581859916
 30
0.0
 11
15.092610627473505
 21
-18.77028261598698
 31
0.0
  0
LINE
  5
122
330
17
100
AcDbEntity
  8
FoilLayer
100
AcDbLine
 10
15.092610627473505
 20
-18.77028261598698
 30
0.0
 11
19.629383301073005
 21
-18.56150834127336
 31
0.0
  0
LINE
  5
123
330
17
100
AcDbEntity
  8
FoilLayer
100
AcDbLine
 10
19.629383301073005
 20
-18.56150834127336
 30
0.0
 11
24.160036483321022
 21
-18.35097886361396
 31
0.0
  0
LINE
  5
124
330
17
100
AcDbEntity
  8
FoilLayer
100
AcDbLine
 10
24.160036483321022
 20
-18.35097886361396
 30
0.0
 11
28.690072972642128
 21
-18.13352345000632
 31
0.0
  0
LINE
  5
125
330
17
100
AcDbEntity
  8
FoilLayer
100
AcDbLine
 10
28.690072972642128
 20
-18.13352345000632
 30
0.0
 11
33.22423656078169
 21
-17.902311040337114
 31
0.0
  0
LINE
  5
126
330
17
100
AcDbEntity
  8
FoilLayer
100
AcDbLine
 10
33.22423656078169
 20
-17.902311040337114
 30
0.0
 11
37.764567078190225
 21
-17.65610824875255
 31
0.0
  0
LINE
  5
127
330
17
100
AcDbEntity
  8
FoilLayer
100
AcDbLine
 10
37.764567078190225
 20
-17.65610824875255
 30
0.0
 11
42.3105901456932
 21
-17.401366632026317
 31
0.0
  0
LINE
  5
128
330
17
100
AcDbEntity
  8
FoilLayer
100
AcDbLine
 10
42.3105901456932
 20
-17.401366632026317
 30
0.0
 11
46.861689070363724
 21
-17.14700451863973
 31
0.0
  0
LINE
  5
129
330
17
100
AcDbEntity
  8
FoilLayer
100
AcDbLine
 10
46.861689070363724
 20
-17.14700451863973
 30
0.0
 11
51.41772153844943
 21
-16.8980977657603
 31
0.0
  0
LINE
  5
12A
330
17
100
AcDbEntity
  8
FoilLayer
100
AcDbLine
 10
51.41772153844943
 20
-16.8980977657603
 30
0.0
 11
55.979019615372465
 21
-16.649570516220503
 31
0.0
  0
LINE
  5
12B
330
17
100
AcDbEntity
  8
FoilLayer
100
AcDbLine
 10
55.979019615372465
 20
-16.649570516220503
 30
0.0
 11
60.545393549463114
 21
-16.386622139774794
 31
0.0
  0
LINE
  5
12C
330
17
100
AcDbEntity
  8
FoilLayer
100
AcDbLine
 10
60.545393549463114
 20
-16.386622139774794
 30
0.0
 11
65.11636896154675
 21
-16.101662569630577
 31
0.0
  0
LINE
  5
12D
330
17
100
AcDbEntity
  8
FoilLayer
100
AcDbLine
 10
65.11636896154675
 20
-16.101662569630577
 30
0.0
 11
69.69204072745825
 21
-15.803467820516785
 31
0.0
  0
LINE
  5
12E
330
17
100
AcDbEntity
  8
FoilLayer
100
AcDbLine
 10
69.69204072745825
 20
-15.803467820516785
 30
0.0
 11
74.27312041595948
 21
-15.507407777688409
 31
0.0
  0
LINE
  5
12F
330
17
100
AcDbEntity
  8
FoilLayer
100
AcDbLine
 10
74.27312041595948
 20
-15.507407777688409
 30
0.0
 11
78.85979777872026
 21
-15.221452011277664
 31
0.0
  0
LINE
  5
130
330
17
100
AcDbEntity
  8
FoilLayer
100
AcDbLine
 10
78.85979777872026
 20
-15.221452011277664
 30
0.0
 11
83.45178818823595
 21
-14.944272259595847
 31
0.0
  0
LINE
  5
131
330
17
100
AcDbEntity
  8
FoilLayer
100
AcDbLine
 10
83.45178818823595
 20
-14.944272259595847
 30
0.0
 11
88.04804801032228
 21
-14.65784211401057
 31
0.0
  0
LINE
  5
132
330
17
100
AcDbEntity
  8
FoilLayer
100
AcDbLine
 10
88.04804801032228
 20
-14.65784211401057
 30
0.0
 11
92.64705923162106
 21
-14.34090938750258
 31
0.0
  0
LINE
  5
133
330
17
100
AcDbEntity
  8
FoilLayer
100
AcDbLine
 10
92.64705923162106
 20
-14.34090938750258
 30
0.0
 11
97.24877441421464
 21
-13.99978332309321
 31
0.0
  0
LINE
  5
134
330
17
100
AcDbEntity
  8
FoilLayer
100
AcDbLine
 10
97.24877441421464
 20
-13.99978332309321
 30
0.0
 11
101.85480644729651
 21
-13.661124030391438
 31
0.0
  0
LINE
  5
135
330
17
100
AcDbEntity
  8
FoilLayer
100
AcDbLine
 10
101.85480644729651
 20
-13.661124030391438
 30
0.0
 11
106.46600921338089
 21
-13.341012963414048
 31
0.0
  0
LINE
  5
136
330
17
100
AcDbEntity
  8
FoilLayer
100
AcDbLine
 10
106.46600921338089
 20
-13.341012963414048
 30
0.0
 11
111.08157626787093
 21
-13.03333063080952
 31
0.0
  0
LINE
  5
137
330
17
100
AcDbEntity
  8
FoilLayer
100
AcDbLine
 10
111.08157626787093
 20
-13.03333063080952
 30
0.0
 11
115.70036910074785
 21
-12.721521199386524
 31
0.0
  0
LINE
  5
138
330
17
100
AcDbEntity
  8
FoilLayer
100
AcDbLine
 10
115.70036910074785
 20
-12.721521199386524
 30
0.0
 11
120.32030044364362
 21
-12.381249017491324
 31
0.0
  0
LINE
  5
139
330
17
100
AcDbEntity
  8
FoilLayer
100
AcDbLine
 10
120.32030044364362
 20
-12.381249017491324
 30
0.0
 11
124.94127542072349
 21
-12.014032098482438
 31
0.0
  0
LINE
  5
13A
330
17
100
AcDbEntity
  8
FoilLayer
100
AcDbLine
 10
124.94127542072349
 20
-12.014032098482438
 30
0.0
 11
129.56538130035514
 21
-11.651796160806189
 31
0.0
  0
LINE
  5
13B
330
17
100
AcDbEntity
  8
FoilLayer
100
AcDbLine
 10
129.56538130035514
 20
-11.651796160806189
 30
0.0
 11
134.19309246171335
 21
-11.302795402099513
 31
0.0
  0
LINE
  5
13C
330
17
100
AcDbEntity
  8
FoilLayer
100
AcDbLine
 10
134.19309246171335
 20
-11.302795402099513
 30
0.0
 11
138.82417171521078
 21
-10.967029822362411
 31
0.0
  0
LINE
  5
13D
330
17
100
AcDbEntity
  8
FoilLayer
100
AcDbLine
 10
138.82417171521078
 20
-10.967029822362411
 30
0.0
 11
143.4575754266634
 21
-10.635059276021602
 31
0.0
  0
LINE
  5
13E
330
17
100
AcDbEntity
  8
FoilLayer
100
AcDbLine
 10
143.4575754266634
 20
-10.635059276021602
 30
0.0
 11
148.09169070687793
 21
-10.285394386470577
 31
0.0
  0
LINE
  5
13F
330
17
100
AcDbEntity
  8
FoilLayer
100
AcDbLine
 10
148.09169070687793
 20
-10.285394386470577
 30
0.0
 11
152.72518929416552
 21
-9.906223112263365
 31
0.0
  0
LINE
  5
140
330
17
100
AcDbEntity
  8
FoilLayer
100
AcDbLine
 10
152.72518929416552
 20
-9.906223112263365
 30
0.0
 11
157.36034820856392
 21
-9.528617289332123
 31
0.0
  0
LINE
  5
141
330
17
100
AcDbEntity
  8
FoilLayer
100
AcDbLine
 10
157.36034820856392
 20
-9.528617289332123
 30
0.0
 11
161.99811620842226
 21
-9.16633391373842
 31
0.0
  0
LINE
  5
142
330
17
100
AcDbEntity
  8
FoilLayer
100
AcDbLine
 10
161.99811620842226
 20
-9.16633391373842
 30
0.0
 11
166.63768684914388
 21
-8.813443245800542
 31
0.0
  0
LINE
  5
143
330
17
100
AcDbEntity
  8
FoilLayer
100
AcDbLine
 10
166.63768684914388
 20
-8.813443245800542
 30
0.0
 11
171.27915500656374
 21
-8.473645443079878
 31
0.0
  0
LINE
  5
144
330
17
100
AcDbEntity
  8
FoilLayer
100
AcDbLine
 10
171.27915500656374
 20
-8.473645443079878
 30
0.0
 11
175.92152448441507
 21
-8.136931104993705
 31
0.0
  0
LINE
  5
145
330
17
100
AcDbEntity
  8
FoilLayer
100
AcDbLine
 10
175.92152448441507
 20
-8.136931104993705
 30
0.0
 11
180.56237594890794
 21
-7.775406736079259
 31
0.0
  0
LINE
  5
146
330
17
100
AcDbEntity
  8
FoilLayer
100
AcDbLine
 10
180.56237594890794
 20
-7.775406736079259
 30
0.0
 11
185.20232609296923
 21
-7.399413802341444
 31
0.0
  0
LINE
  5
147
330
17
100
AcDbEntity
  8
FoilLayer
100
AcDbLine
 10
185.20232609296923
 20
-7.399413802341444
 30
0.0
 11
189.84298780579232
 21
-7.034711092957602
 31
0.0
  0
LINE
  5
148
330
17
100
AcDbEntity
  8
FoilLayer
100
AcDbLine
 10
189.84298780579232
 20
-7.034711092957602
 30
0.0
 11
194.48398158403748
 21
-6.6796857187343095
 31
0.0
  0
LINE
  5
149
330
17
100
AcDbEntity
  8
FoilLayer
100
AcDbLine
 10
194.48398158403748
 20
-6.6796857187343095
 30
0.0
 11
199.12502280020018
 21
-6.333341483405039
 31
0.0
  0
LINE
  5
14A
330
17
100
AcDbEntity
  8
FoilLayer
100
AcDbLine
 10
199.12502280020018
 20
-6.333341483405039
 30
0.0
 11
203.7657793888582
 21
-6.0010863095595095
 31
0.0
  0
LINE
  5
14B
330
17
100
AcDbEntity
  8
FoilLayer
100
AcDbLine
 10
203.7657793888582
 20
-6.0010863095595095
 30
0.0
 11
208.40364226455145
 21
-5.657113970102924
 31
0.0
  0
LINE
  5
14C
330
17
100
AcDbEntity
  8
FoilLayer
100
AcDbLine
 10
208.40364226455145
 20
-5.657113970102924
 30
0.0
 11
213.0372831655914
 21
-5.294735718674311
 31
0.0
  0
LINE
  5
14D
330
17
100
AcDbEntity
  8
FoilLayer
100
AcDbLine
 10
213.0372831655914
 20
-5.294735718674311
 30
0.0
 11
217.66727134698735
 21
-4.9392834031939366
 31
0.0
  0
LINE
  5
14E
330
17
100
AcDbEntity
  8
FoilLayer
100
AcDbLine
 10
217.66727134698735
 20
-4.9392834031939366
 30
0.0
 11
222.29303755373
 21
-4.601240803419059
 31
0.0
  0
LINE
  5
14F
330
17
100
AcDbEntity
  8
FoilLayer
100
AcDbLine
 10
222.29303755373
 20
-4.601240803419059
 30
0.0
 11
226.91216245202904
 21
-4.277287265127923
 31
0.0
  0
LINE
  5
150
330
17
100
AcDbEntity
  8
FoilLayer
100
AcDbLine
 10
226.91216245202904
 20
-4.277287265127923
 30
0.0
 11
231.52194208058975
 21
-3.9665689058063625
 31
0.0
  0
LINE
  5
151
330
17
100
AcDbEntity
  8
FoilLayer
100
AcDbLine
 10
231.52194208058975
 20
-3.9665689058063625
 30
0.0
 11
236.11834421642854
 21
-3.6592186386240115
 31
0.0
  0
LINE
  5
152
330
17
100
AcDbEntity
  8
FoilLayer
100
AcDbLine
 10
236.11834421642854
 20
-3.6592186386240115
 30
0.0
 11
240.696198126543
 21
-3.348547717219904
 31
0.0
  0
LINE
  5
153
330
17
100
AcDbEntity
  8
FoilLayer
100
AcDbLine
 10
240.696198126543
 20
-3.348547717219904
 30
0.0
 11
245.24976382292115
 21
-3.045182235103662
 31
0.0
  0
LINE
  5
154
330
17
100
AcDbEntity
  8
FoilLayer
100
AcDbLine
 10
245.24976382292115
 20
-3.045182235103662
 30
0.0
 11
249.77054991833873
 21
-2.7560481282235223
 31
0.0
  0
LINE
  5
155
330
17
100
AcDbEntity
  8
FoilLayer
100
AcDbLine
 10
249.77054991833873
 20
-2.7560481282235223
 30
0.0
 11
254.2473136263594
 21
-2.4745515260534234
 31
0.0
  0
LINE
  5
156
330
17
100
AcDbEntity
  8
FoilLayer
100
AcDbLine
 10
254.2473136263594
 20
-2.4745515260534234
 30
0.0
 11
258.6656812579945
 21
-2.206906795779798
 31
0.0
  0
LINE
  5
157
330
17
100
AcDbEntity
  8
FoilLayer
100
AcDbLine
 10
258.6656812579945
 20
-2.206906795779798
 30
0.0
 11
263.00791103211645
 21
-1.9674876263911079
 31
0.0
  0
LINE
  5
158
330
17
100
AcDbEntity
  8
FoilLayer
100
AcDbLine
 10
263.00791103211645
 20
-1.9674876263911079
 30
0.0
 11
267.2516122516872
 21
-1.7347572033633853
 31
0.0
  0
LINE
  5
159
330
17
100
AcDbEntity
  8
FoilLayer
100
AcDbLine
 10
267.2516122516872
 20
-1.7347572033633853
 30
0.0
 11
271.3717376962911
 21
-1.5108502329820468
 31
0.0
  0
LINE
  5
15A
330
17
100
AcDbEntity
  8
FoilLayer
100
AcDbLine
 10
271.3717376962911
 20
-1.5108502329820468
 30
0.0
 11
275.3414849425668
 21
-1.296193656504174
 31
0.0
  0
LINE
  5
15B
330
17
100
AcDbEntity
  8
FoilLayer
100
AcDbLine
 10
275.3414849425668
 20
-1.296193656504174
 30
0.0
 11
279.1340041292357
 21
-1.1062996729371193
 31
0.0
  0
LINE
  5
15C
330
17
100
AcDbEntity
  8
FoilLayer
100
AcDbLine
 10
279.1340041292357
 20
-1.1062996729371193
 30
0.0
 11
282.7247698529741
 21
-0.9409310926936134
 31
0.0
  0
LINE
  5
15D
330
17
100
AcDbEntity
  8
FoilLayer
100
AcDbLine
 10
282.7247698529741
 20
-0.9409310926936134
 30
0.0
 11
286.0956608293146
 21
-0.7879438089055165
 31
0.0
  0
LINE
  5
15E
330
17
100
AcDbEntity
  8
FoilLayer
100
AcDbLine
 10
286.0956608293146
 20
-0.7879438089055165
 30
0.0
 11
289.2364304680875
 21
-0.6460095598841255
 31
0.0
  0
LINE
  5
15F
330
17
100
AcDbEntity
  8
FoilLayer
100
AcDbLine
 10
289.2364304680875
 20
-0.6460095598841255
 30
0.0
 11
292.14423249424533
 21
-0.524331301615453
 31
0.0
  0
LINE
  5
160
330
17
100
AcDbEntity
  8
FoilLayer
100
AcDbLine
 10
292.14423249424533
 20
-0.524331301615453
 30
0.0
 11
294.8215811174132
 21
-0.42343085119148954
 31
0.0
  0
LINE
  5
161
330
17
100
AcDbEntity
  8
FoilLayer
100
AcDbLine
 10
294.8215811174132
 20
-0.42343085119148954
 30
0.0
 11
296.4843749999993
 21
-0.36456039563148074
 31
0.0
  0
LINE
  5
162
330
17
100
AcDbEntity
  8
FoilLayer
100
AcDbLine
 10
296.4843749999993
 20
-0.36456039563148074
 30
0.0
 11
296.48428012416446
 21
0.36456039563148074
 31
0.0
  0
LINE
  5
163
330
17
100
AcDbEntity
  8
StringerLayer
100
AcDbLine
 10
127.65705163151175
 20
27.434420204120034
 30
0.0
 11
131.612527969251
 21
26.83926733167034
 31
0.0
  0
LINE
  5
164
330
17
100
AcDbEntity
  8
StringerLayer
100
AcDbLine
 10
131.612527969251
 20
26.83926733167034
 30
0.0
 11
132.2076808417007
 21
30.79474366940956
 31
0.0
  0
LINE
  5
165
330
17
100
AcDbEntity
  8
StringerLayer
100
AcDbLine
 10
132.2076808417007
 20
30.79474366940956
 30
0.0
 11
128.25220450396145
 21
31.389896541859255
 31
0.0
  0
LINE
  5
166
330
17
100
AcDbEntity
  8
StringerLayer
100
AcDbLine
 10
128.25220450396145
 20
31.389896541859255
 30
0.0
 11
127.65705163151175
 21
27.434420204120034
 31
0.0
  0
LINE
  5
167
330
17
100
AcDbEntity
  8
StringerLayer
100
AcDbLine
 10
-51.46082429308278
 20
37.54012303371334
 30
0.0
 11
-47.46868414630025
 21
37.79075632848307
 31
0.0
  0
LINE
  5
168
330
17
100
AcDbEntity
  8
StringerLayer
100
AcDbLine
 10
-47.46868414630025
 20
37.79075632848307
 30
0.0
 11
-47.719317441069975
 21
41.7828964752656
 31
0.0
  0
LINE
  5
169
330
17
100
AcDbEntity
  8
StringerLayer
100
AcDbLine
 10
-47.719317441069975
 20
41.7828964752656
 30
0.0
 11
-51.71145758785251
 21
41.532263180495875
 31
0.0
  0
LINE
  5
16A
330
17
100
AcDbEntity
  8
StringerLayer
100
AcDbLine
 10
-51.71145758785251
 20
41.532263180495875
 30
0.0
 11
-51.46082429308278
 21
37.54012303371334
 31
0.0
  0
LINE
  5
16B
330
17
100
AcDbEntity
  8
StringerLayer
100
AcDbLine
 10
-130.84844724920956
 20
24.78310167664999
 30
0.0
 11
-127.00552170369484
 21
25.893022057411798
 31
0.0
  0
LINE
  5
16C
330
17
100
AcDbEntity
  8
StringerLayer
100
AcDbLine
 10
-127.00552170369484
 20
25.893022057411798
 30
0.0
 11
-128.11544208445665
 21
29.73594760292651
 31
0.0
  0
LINE
  5
16D
330
17
100
AcDbEntity
  8
StringerLayer
100
AcDbLine
 10
-128.11544208445665
 20
29.73594760292651
 30
0.0
 11
-131.95836762997138
 21
28.626027222164705
 31
0.0
  0
LINE
  5
16E
330
17
100
AcDbEntity
  8
StringerLayer
100
AcDbLine
 10
-131.95836762997138
 20
28.626027222164705
 30
0.0
 11
-130.84844724920956
 21
24.78310167664999
 31
0.0
  0
LINE
  5
16F
330
17
100
AcDbEntity
  8
StringerLayer
100
AcDbLine
 10
-167.91279154596862
 20
7.054240461597077
 30
0.0
 11
-166.40572171110097
 21
8.369056233038824
 31
0.0
  0
LINE
  5
170
330
17
100
AcDbEntity
  8
StringerLayer
100
AcDbLine
 10
-166.40572171110097
 20
8.369056233038824
 30
0.0
 11
-169.03535325398445
 21
11.383195902774148
 31
0.0
  0
LINE
  5
171
330
17
100
AcDbEntity
  8
StringerLayer
100
AcDbLine
 10
-169.03535325398445
 20
11.383195902774148
 30
0.0
 11
-170.5424230888521
 21
10.0683801313324
 31
0.0
  0
LINE
  5
172
330
17
100
AcDbEntity
  8
StringerLayer
100
AcDbLine
 10
-170.5424230888521
 20
10.0683801313324
 30
0.0
 11
-167.91279154596862
 21
7.054240461597077
 31
0.0
  0
LINE
  5
173
330
17
100
AcDbEntity
  8
StringerLayer
100
AcDbLine
 10
-169.0394684309269
 20
-4.2948913493892995
 30
0.0
 11
-170.63712400425555
 21
-3.0917717921499004
 31
0.0
  0
LINE
  5
174
330
17
100
AcDbEntity
  8
StringerLayer
100
AcDbLine
 10
-170.63712400425555
 20
-3.0917717921499004
 30
0.0
 11
-173.04336311873436
 21
-6.287082938807186
 31
0.0
  0
LINE
  5
175
330
17
100
AcDbEntity
  8
StringerLayer
100
AcDbLine
 10
-173.04336311873436
 20
-6.287082938807186
 30
0.0
 11
-171.4457075454057
 21
-7.490202496046584
 31
0.0
  0
LINE
  5
176
330
17
100
AcDbEntity
  8
StringerLayer
100
AcDbLine
 10
-171.4457075454057
 20
-7.490202496046584
 30
0.0
 11
-169.0394684309269
 21
-4.2948913493892995
 31
0.0
  0
LINE
  5
177
330
17
100
AcDbEntity
  8
StringerLayer
100
AcDbLine
 10
-104.4810114417404
 20
-15.216944864171733
 30
0.0
 11
-108.47669227843701
 21
-15.031109853327347
 31
0.0
  0
LINE
  5
178
330
17
100
AcDbEntity
  8
StringerLayer
100
AcDbLine
 10
-108.47669227843701
 20
-15.031109853327347
 30
0.0
 11
-108.6625272892814
 21
-19.02679069002395
 31
0.0
  0
LINE
  5
179
330
17
100
AcDbEntity
  8
StringerLayer
100
AcDbLine
 10
-108.6625272892814
 20
-19.02679069002395
 30
0.0
 11
-104.66684645258479
 21
-19.212625700868337
 31
0.0
  0
LINE
  5
17A
330
17
100
AcDbEntity
  8
StringerLayer
100
AcDbLine
 10
-104.66684645258479
 20
-19.212625700868337
 30
0.0
 11
-104.4810114417404
 21
-15.216944864171733
 31
0.0
  0
LINE
  5
17B
330
17
100
AcDbEntity
  8
SubLayer
100
AcDbLine
 10
-177.89062499999957
 20
0.0
 30
0.0
 11
-173.89062499999957
 21
0.0
 31
0.0
  0
LINE
  5
17C
330
17
100
AcDbEntity
  8
SubLayer
100
AcDbLine
 10
33.578124999999915
 20
0.0
 30
0.0
 11
42.32187499999992
 21
0.0
 31
0.0
  0
LINE
  5
17D
330
17
100
AcDbEntity
  8
SubLayer
100
AcDbLine
 10
-24.95332057614363
 20
11.00645250743533
 30
0.0
 11
-16.964583172572002
 21
11.430804598010678
 31
0.0
  0
LINE
  5
17E
330
17
100
AcDbEntity
  8
SubLayer
100
AcDbLine
 10
16.964583172572002
 20
13.233080970695493
 30
0.0
 11
24.95332057614363
 21
13.65743306127084
 31
0.0
  0
LINE
  5
17F
330
17
100
AcDbEntity
  8
SubLayer
100
AcDbLine
 10
-1.1975481216092867
 20
34.87665903331987
 30
0.0
 11
-0.7731960310339395
 21
26.887921629748234
 31
0.0
  0
LINE
  5
180
330
17
100
AcDbEntity
  8
SubLayer
100
AcDbLine
 10
1.1975481216092867
 20
-10.212773464613694
 30
0.0
 11
0.7731960310339395
 21
-2.2240360610420655
 31
0.0
  0
LINE
  5
181
330
17
100
AcDbEntity
  8
SubLayer
100
AcDbLine
 10
-22.850048202606885
 20
9.11535617918626
 30
0.0
 11
-18.855679500821072
 21
9.327532224473934
 31
0.0
  0
LINE
  5
182
330
17
100
AcDbEntity
  8
SubLayer
100
AcDbLine
 10
-18.855679500821072
 20
9.327532224473934
 30
0.0
 11
-19.067855546108746
 21
13.321900926259747
 31
0.0
  0
LINE
  5
183
330
17
100
AcDbEntity
  8
SubLayer
100
AcDbLine
 10
-19.067855546108746
 20
13.321900926259747
 30
0.0
 11
-23.06222424789456
 21
13.109724880972074
 31
0.0
  0
LINE
  5
184
330
17
100
AcDbEntity
  8
SubLayer
100
AcDbLine
 10
-23.06222424789456
 20
13.109724880972074
 30
0.0
 11
-22.850048202606885
 21
9.11535617918626
 31
0.0
  0
LINE
  5
185
330
17
100
AcDbEntity
  8
SubLayer
100
AcDbLine
 10
19.067855546108746
 20
11.341984642446423
 30
0.0
 11
23.06222424789456
 21
11.554160687734097
 31
0.0
  0
LINE
  5
186
330
17
100
AcDbEntity
  8
SubLayer
100
AcDbLine
 10
23.06222424789456
 20
11.554160687734097
 30
0.0
 11
22.850048202606885
 21
15.54852938951991
 31
0.0
  0
LINE
  5
187
330
17
100
AcDbEntity
  8
SubLayer
100
AcDbLine
 10
22.850048202606885
 20
15.54852938951991
 30
0.0
 11
18.855679500821072
 21
15.336353344232236
 31
0.0
  0
LINE
  5
188
330
17
100
AcDbEntity
  8
SubLayer
100
AcDbLine
 10
18.855679500821072
 20
15.336353344232236
 30
0.0
 11
19.067855546108746
 21
11.341984642446423
 31
0.0
  0
LINE
  5
189
330
17
100
AcDbEntity
  8
SubLayer
100
AcDbLine
 10
-2.8764684045706828
 20
28.779017957997308
 30
0.0
 11
1.1179002972151302
 21
28.99119400328498
 31
0.0
  0
LINE
  5
18A
330
17
100
AcDbEntity
  8
SubLayer
100
AcDbLine
 10
1.1179002972151302
 20
28.99119400328498
 30
0.0
 11
0.9057242519274566
 21
32.98556270507079
 31
0.0
  0
LINE
  5
18B
330
17
100
AcDbEntity
  8
SubLayer
100
AcDbLine
 10
0.9057242519274566
 20
32.98556270507079
 30
0.0
 11
-3.0886444498583563
 21
32.77338665978312
 31
0.0
  0
LINE
  5
18C
330
17
100
AcDbEntity
  8
SubLayer
100
AcDbLine
 10
-3.0886444498583563
 20
32.77338665978312
 30
0.0
 11
-2.8764684045706828
 21
28.779017957997308
 31
0.0
  0
LINE
  5
18D
330
17
100
AcDbEntity
  8
SubLayer
100
AcDbLine
 10
-0.9057242519274566
 20
-8.321677136364624
 30
0.0
 11
3.0886444498583563
 21
-8.10950109107695
 31
0.0
  0
LINE
  5
18E
330
17
100
AcDbEntity
  8
SubLayer
100
AcDbLine
 10
3.0886444498583563
 20
-8.10950109107695
 30
0.0
 11
2.8764684045706828
 21
-4.115132389291136
 31
0.0
  0
LINE
  5
18F
330
17
100
AcDbEntity
  8
SubLayer
100
AcDbLine
 10
2.8764684045706828
 20
-4.115132389291136
 30
0.0
 11
-1.1179002972151302
 21
-4.32730843457881
 31
0.0
  0
LINE
  5
190
330
17
100
AcDbEntity
  8
SubLayer
100
AcDbLine
 10
-1.1179002972151302
 20
-4.32730843457881
 30
0.0
 11
-0.9057242519274566
 21
-8.321677136364624
 31
0.0
  0
LINE
  5
191
330
17
100
AcDbEntity
  8
SubLayer
100
AcDbLine
 10
238.09593703182586
 20
12.273313701004392
 30
0.0
 11
242.09030573361164
 21
12.485489746292066
 31
0.0
  0
LINE
  5
192
330
17
100
AcDbEntity
  8
SubLayer
100
AcDbLine
 10
-170.15748718386016
 20
-9.412615538954983
 30
0.0
 11
-166.16311848207437
 21
-9.200439493667309
 31
0.0
  0
LINE
  5
193
330
17
100
AcDbEntity
  8
SubLayer
100
AcDbLine
 10
-89.5053945161694
 20
-5.128473702285026
 30
0.0
 11
-83.51384146349069
 21
-4.810209634353516
 31
0.0
  0
LINE
  5
194
330
17
100
AcDbEntity
  8
SubLayer
100
AcDbLine
 10
155.4466600132422
 20
7.883083841690598
 30
0.0
 11
161.43821306592093
 21
8.20134790962211
 31
0.0
  0
LINE
  5
195
330
17
100
AcDbEntity
  8
SubLayer
100
AcDbLine
 10
32.97063274853638
 20
1.3773050697027862
 30
0.0
 11
38.96218580121511
 21
1.695569137634297
 31
0.0
  0
LINE
  5
196
330
17
100
AcDbEntity
  8
SubLayer
100
AcDbLine
 10
-84.40634561629331
 20
-6.860437996568341
 30
0.0
 11
-84.61852166158098
 21
-2.8660692947825277
 31
0.0
  0
LINE
  5
197
330
17
100
AcDbEntity
  8
SubLayer
100
AcDbLine
 10
-84.61852166158098
 20
-2.8660692947825277
 30
0.0
 11
-88.61289036336679
 21
-3.0782453400702012
 31
0.0
  0
LINE
  5
198
330
17
100
AcDbEntity
  8
SubLayer
100
AcDbLine
 10
-88.61289036336679
 20
-3.0782453400702012
 30
0.0
 11
-88.40071431807911
 21
-7.072614041856014
 31
0.0
  0
LINE
  5
199
330
17
100
AcDbEntity
  8
SubLayer
100
AcDbLine
 10
-88.40071431807911
 20
-7.072614041856014
 30
0.0
 11
-84.40634561629331
 21
-6.860437996568341
 31
0.0
  0
LINE
  5
19A
330
17
100
AcDbEntity
  8
SubLayer
100
AcDbLine
 10
160.54570891311832
 20
6.1511195474072835
 30
0.0
 11
160.33353286783063
 21
10.145488249193097
 31
0.0
  0
LINE
  5
19B
330
17
100
AcDbEntity
  8
SubLayer
100
AcDbLine
 10
160.33353286783063
 20
10.145488249193097
 30
0.0
 11
156.3391641660448
 21
9.933312203905423
 31
0.0
  0
LINE
  5
19C
330
17
100
AcDbEntity
  8
SubLayer
100
AcDbLine
 10
156.3391641660448
 20
9.933312203905423
 30
0.0
 11
156.5513402113325
 21
5.93894350211961
 31
0.0
  0
LINE
  5
19D
330
17
100
AcDbEntity
  8
SubLayer
100
AcDbLine
 10
156.5513402113325
 20
5.93894350211961
 30
0.0
 11
160.54570891311832
 21
6.1511195474072835
 31
0.0
  0
LINE
  5
19E
330
17
100
AcDbEntity
  8
SubLayer
100
AcDbLine
 10
38.069681648412484
 20
-0.35465922458052823
 30
0.0
 11
37.857505603124814
 21
3.639709477205285
 31
0.0
  0
LINE
  5
19F
330
17
100
AcDbEntity
  8
SubLayer
100
AcDbLine
 10
37.857505603124814
 20
3.639709477205285
 30
0.0
 11
33.863136901339004
 21
3.4275334319176114
 31
0.0
  0
LINE
  5
1A0
330
17
100
AcDbEntity
  8
SubLayer
100
AcDbLine
 10
33.863136901339004
 20
3.4275334319176114
 30
0.0
 11
34.075312946626674
 21
-0.5668352698682018
 31
0.0
  0
LINE
  5
1A1
330
17
100
AcDbEntity
  8
SubLayer
100
AcDbLine
 10
34.075312946626674
 20
-0.5668352698682018
 30
0.0
 11
38.069681648412484
 21
-0.35465922458052823
 31
0.0
  0
LINE
  5
1A2
330
17
100
AcDbEntity
  8
SubLayer
100
AcDbLine
 10
276.9027673623612
 20
4.099974068504274
 30
0.0
 11
277.13210001352087
 21
5.073322174328739
 31
0.0
  0
LINE
  5
1A3
330
17
100
AcDbEntity
  8
SubLayer
100
AcDbLine
 10
276.55360711897873
 20
-1.7360930331287583
 30
0.0
 11
276.49175456321956
 21
-0.7380077354983126
 31
0.0
  0
LINE
  5
1A4
330
17
100
AcDbEntity
  8
SubLayer
100
AcDbLine
 10
257.3404141158095
 20
8.246188607966113
 30
0.0
 11
257.5587672515219
 21
9.222058429266367
 31
0.0
  0
LINE
  5
1A5
330
17
100
AcDbEntity
  8
SubLayer
100
AcDbLine
 10
256.5817672716725
 20
-2.834056288361074
 30
0.0
 11
256.523394549809
 21
-1.8357614294430071
 31
0.0
  0
LINE
  5
1A6
330
17
100
AcDbEntity
  8
SubLayer
100
AcDbLine
 10
218.17221973605487
 20
16.3540728682391
 30
0.0
 11
218.38275557078933
 21
17.331659008838827
 31
0.0
  0
LINE
  5
1A7
330
17
100
AcDbEntity
  8
SubLayer
100
AcDbLine
 10
216.67327410370262
 20
-5.517017493972529
 30
0.0
 11
216.61054907442946
 21
-4.518986647403806
 31
0.0
  0
LINE
  5
1A8
330
17
100
AcDbEntity
  8
SubLayer
100
AcDbLine
 10
-150.9096585668488
 20
25.475825133668437
 30
0.0
 11
-150.69748252156114
 21
21.48145643188262
 31
0.0
  0
LINE
  5
1A9
330
17
100
AcDbEntity
  8
SubLayer
100
AcDbLine
 10
-148.7825514902682
 20
-14.568515972421197
 30
0.0
 11
-148.57037544498053
 21
-18.562884674207012
 31
0.0
  0
LINE
  5
1AA
330
17
100
AcDbEntity
  8
SubLayer
100
AcDbLine
 10
-149.26101691690624
 20
-5.561055575756819
 30
0.0
 11
-148.94275284897472
 21
-11.55260862843554
 31
0.0
  0
LINE
  5
1AB
330
17
100
AcDbEntity
  8
SubLayer
100
AcDbLine
 10
-150.5372811628546
 20
18.46554908789696
 30
0.0
 11
-150.2190170949231
 21
12.473996035218242
 31
0.0
  0
LINE
  5
1AC
330
17
100
AcDbEntity
  8
SubLayer
100
AcDbLine
 10
-149.89914903988043
 20
6.452246756070072
 30
0.0
 11
-149.5808849719489
 21
0.4606937033913523
 31
0.0
  0
LINE
  5
1AD
330
17
100
AcDbEntity
  8
SubLayer
100
AcDbLine
 10
-150.99298121118954
 20
-10.660104475632922
 30
0.0
 11
-146.99861250940373
 21
-10.447928430345248
 31
0.0
  0
LINE
  5
1AE
330
17
100
AcDbEntity
  8
SubLayer
100
AcDbLine
 10
-146.99861250940373
 20
-10.447928430345248
 30
0.0
 11
-147.21078855469142
 21
-6.453559728559435
 31
0.0
  0
LINE
  5
1AF
330
17
100
AcDbEntity
  8
SubLayer
100
AcDbLine
 10
-147.21078855469142
 20
-6.453559728559435
 30
0.0
 11
-151.20515725647724
 21
-6.665735773847109
 31
0.0
  0
LINE
  5
1B0
330
17
100
AcDbEntity
  8
SubLayer
100
AcDbLine
 10
-151.20515725647724
 20
-6.665735773847109
 30
0.0
 11
-150.99298121118954
 21
-10.660104475632922
 31
0.0
  0
LINE
  5
1B1
330
17
100
AcDbEntity
  8
SubLayer
100
AcDbLine
 10
-152.2692454571379
 20
13.366500188020858
 30
0.0
 11
-148.2748767553521
 21
13.578676233308531
 31
0.0
  0
LINE
  5
1B2
330
17
100
AcDbEntity
  8
SubLayer
100
AcDbLine
 10
-148.2748767553521
 20
13.578676233308531
 30
0.0
 11
-148.4870528006398
 21
17.573044935094345
 31
0.0
  0
LINE
  5
1B3
330
17
100
AcDbEntity
  8
SubLayer
100
AcDbLine
 10
-148.4870528006398
 20
17.573044935094345
 30
0.0
 11
-152.4814215024256
 21
17.36086888980667
 31
0.0
  0
LINE
  5
1B4
330
17
100
AcDbEntity
  8
SubLayer
100
AcDbLine
 10
-152.4814215024256
 20
17.36086888980667
 30
0.0
 11
-152.2692454571379
 21
13.366500188020858
 31
0.0
  0
LINE
  5
1B5
330
17
100
AcDbEntity
  8
SubLayer
100
AcDbLine
 10
-151.63111333416373
 20
1.3531978561939688
 30
0.0
 11
-147.6367446323779
 21
1.5653739014816423
 31
0.0
  0
LINE
  5
1B6
330
17
100
AcDbEntity
  8
SubLayer
100
AcDbLine
 10
-147.6367446323779
 20
1.5653739014816423
 30
0.0
 11
-147.8489206776656
 21
5.5597426032674555
 31
0.0
  0
LINE
  5
1B7
330
17
100
AcDbEntity
  8
SubLayer
100
AcDbLine
 10
-147.8489206776656
 20
5.5597426032674555
 30
0.0
 11
-151.84328937945142
 21
5.347566557979782
 31
0.0
  0
LINE
  5
1B8
330
17
100
AcDbEntity
  8
SubLayer
100
AcDbLine
 10
-151.84328937945142
 20
5.347566557979782
 30
0.0
 11
-151.63111333416373
 21
1.3531978561939688
 31
0.0
  0
LINE
  5
1B9
330
17
100
AcDbEntity
  8
SubLayer
100
AcDbLine
 10
98.73186943811896
 20
38.8594937147284
 30
0.0
 11
98.94404548340663
 21
34.865125012942585
 31
0.0
  0
LINE
  5
1BA
330
17
100
AcDbEntity
  8
SubLayer
100
AcDbLine
 10
101.41690915532307
 20
-11.688336012753767
 30
0.0
 11
101.62908520061073
 21
-15.68270471453958
 31
0.0
  0
LINE
  5
1BB
330
17
100
AcDbEntity
  8
SubLayer
100
AcDbLine
 10
100.82685720056033
 20
-0.5801778918108811
 30
0.0
 11
101.14512126849185
 21
-6.571730944489601
 31
0.0
  0
LINE
  5
1BC
330
17
100
AcDbEntity
  8
SubLayer
100
AcDbLine
 10
99.21583337023787
 20
29.74851994467842
 30
0.0
 11
99.5340974381694
 21
23.756966891999703
 31
0.0
  0
LINE
  5
1BD
330
17
100
AcDbEntity
  8
SubLayer
100
AcDbLine
 10
100.0213452853991
 20
14.584171026433769
 30
0.0
 11
100.33960935333062
 21
8.59261797375505
 31
0.0
  0
LINE
  5
1BE
330
17
100
AcDbEntity
  8
SubLayer
100
AcDbLine
 10
99.09489290627701
 20
-5.679226791686984
 30
0.0
 11
103.08926160806283
 21
-5.467050746399311
 31
0.0
  0
LINE
  5
1BF
330
17
100
AcDbEntity
  8
SubLayer
100
AcDbLine
 10
103.08926160806283
 20
-5.467050746399311
 30
0.0
 11
102.87708556277516
 21
-1.4726820446134976
 31
0.0
  0
LINE
  5
1C0
330
17
100
AcDbEntity
  8
SubLayer
100
AcDbLine
 10
102.87708556277516
 20
-1.4726820446134976
 30
0.0
 11
98.88271686098935
 21
-1.6848580899011711
 31
0.0
  0
LINE
  5
1C1
330
17
100
AcDbEntity
  8
SubLayer
100
AcDbLine
 10
98.88271686098935
 20
-1.6848580899011711
 30
0.0
 11
99.09489290627701
 21
-5.679226791686984
 31
0.0
  0
LINE
  5
1C2
330
17
100
AcDbEntity
  8
SubLayer
100
AcDbLine
 10
97.48386907595457
 20
24.64947104480232
 30
0.0
 11
101.47823777774038
 21
24.861647090089992
 31
0.0
  0
LINE
  5
1C3
330
17
100
AcDbEntity
  8
SubLayer
100
AcDbLine
 10
101.47823777774038
 20
24.861647090089992
 30
0.0
 11
101.2660617324527
 21
28.856015791875805
 31
0.0
  0
LINE
  5
1C4
330
17
100
AcDbEntity
  8
SubLayer
100
AcDbLine
 10
101.2660617324527
 20
28.856015791875805
 30
0.0
 11
97.2716930306669
 21
28.64383974658813
 31
0.0
  0
LINE
  5
1C5
330
17
100
AcDbEntity
  8
SubLayer
100
AcDbLine
 10
97.2716930306669
 20
28.64383974658813
 30
0.0
 11
97.48386907595457
 21
24.64947104480232
 31
0.0
  0
LINE
  5
1C6
330
17
100
AcDbEntity
  8
SubLayer
100
AcDbLine
 10
98.28938099111579
 20
9.485122126557666
 30
0.0
 11
102.2837496929016
 21
9.69729817184534
 31
0.0
  0
LINE
  5
1C7
330
17
100
AcDbEntity
  8
SubLayer
100
AcDbLine
 10
102.2837496929016
 20
9.69729817184534
 30
0.0
 11
102.07157364761392
 21
13.691666873631153
 31
0.0
  0
LINE
  5
1C8
330
17
100
AcDbEntity
  8
SubLayer
100
AcDbLine
 10
102.07157364761392
 20
13.691666873631153
 30
0.0
 11
98.07720494582811
 21
13.47949082834348
 31
0.0
  0
LINE
  5
1C9
330
17
100
AcDbEntity
  8
SubLayer
100
AcDbLine
 10
98.07720494582811
 20
13.47949082834348
 30
0.0
 11
98.28938099111579
 21
9.485122126557666
 31
0.0
  0
ENDSEC
  0
SECTION
  2
OBJECTS
  0
DICTIONARY
  5
A
330
0
100
AcDbDictionary
280
0
281
1
  3
ACAD_COLOR
350
B
  3
ACAD_GROUP
350
C
  3
ACAD_LAYOUT
350
D
  3
ACAD_MATERIAL
350
E
  3
ACAD_MLEADERSTYLE
350
F
  3
ACAD_MLINESTYLE
350
10
  3
ACAD_PLOTSETTINGS
350
11
  3
ACAD_PLOTSTYLENAME
350
12
  3
ACAD_SCALELIST
350
14
  3
ACAD_TABLESTYLE
350
15
  3
ACAD_VISUALSTYLE
350
16
  3
EZDXF_META
350
2D
  0
DICTIONARY
  5
B
330
A
100
AcDbDictionary
280
0
281
1
  0
DICTIONARY
  5
C
330
A
100
AcDbDictionary
280
0
281
1
  0
DICTIONARY
  5
D
330
A
100
AcDbDictionary
280
0
281
1
  3
Model
350
1A
  3
Layout1
350
1E
  0
DICTIONARY
  5
E
330
A
100
AcDbDictionary
280
0
281
1
  3
ByBlock
350
1F
  3
ByLayer
350
20
  3
Global
350
21
  0
DICTIONARY
  5
F
330
A
100
AcDbDictionary
280
0
281
1
  3
Standard
350
2C
  0
DICTIONARY
  5
10
330
A
100
AcDbDictionary
280
0
281
1
  3
Standard
350
22
  0
DICTIONARY
  5
11
330
A
100
AcDbDictionary
280
0
281
1
  0
ACDBDICTIONARYWDFLT
  5
12
330
A
100
AcDbDictionary
280
0
281
1
  3
Normal
350
13
100
AcDbDictionaryWithDefault
340
13
  0
ACDBPLACEHOLDER
  5
13
330
12
  0
DICTIONARY
  5
14
330
A
100
AcDbDictionary
280
0
281
1
  0
DICTIONARY
  5
15
330
A
100
AcDbDictionary
280
0
281
1
  0
DICTIONARY
  5
16
330
A
100
AcDbDictionary
280
0
281
1
  0
LAYOUT
  5
1A
330
D
100
AcDbPlotSettings
  1

  2
Adobe PDF
  4
A3
  6

 40
7.5
 41
20.0
 42
7.5
 43
20.0
 44
420.0
 45
297.0
 46
0.0
 47
0.0
 48
0.0
 49
0.0
140
0.0
141
0.0
142
1.0
143
1.0
 70
1024
 72
1
 73
0
 74
5
  7

 75
16
 76
0
 77
2
 78
300
147
1.0
148
0.0
149
0.0
100
AcDbLayout
  1
Model
 70
1
 71
0
 10
0.0
 20
0.0
 11
420.0
 21
297.0
 12
0.0
 22
0.0
 32
0.0
 14
1e+20
 24
1e+20
 34
1e+20
 15
-1e+20
 25
-1e+20
 35
-1e+20
146
0.0
 13
0.0
 23
0.0
 33
0.0
 16
1.0
 26
0.0
 36
0.0
 17
0.0
 27
1.0
 37
0.0
 76
1
330
17
  0
LAYOUT
  5
1E
330
D
100
AcDbPlotSettings
  1

  2
Adobe PDF
  4
A3
  6

 40
7.5
 41
20.0
 42
7.5
 43
20.0
 44
420.0
 45
297.0
 46
0.0
 47
0.0
 48
0.0
 49
0.0
140
0.0
141
0.0
142
1.0
143
1.0
 70
0
 72
1
 73
0
 74
5
  7

 75
16
 76
0
 77
2
 78
300
147
1.0
148
0.0
149
0.0
100
AcDbLayout
  1
Layout1
 70
1
 71
1
 10
0.0
 20
0.0
 11
420.0
 21
297.0
 12
0.0
 22
0.0
 32
0.0
 14
1e+20
 24
1e+20
 34
1e+20
 15
-1e+20
 25
-1e+20
 35
-1e+20
146
0.0
 13
0.0
 23
0.0
 33
0.0
 16
1.0
 26
0.0
 36
0.0
 17
0.0
 27
1.0
 37
0.0
 76
1
330
1B
  0
MATERIAL
  5
1F
102
{ACAD_REACTORS
330
E
102
}
330
E
100
AcDbMaterial
  1
ByBlock
  2

 70
0
 40
1.0
 71
1
 41
1.0
 91
-1023410177
 42
1.0
 72
1
  3

 73
1
 74
1
 75
1
 44
0.5
 73
0
 45
1.0
 46
1.0
 77
1
  4

 78
1
 79
1
170
1
 48
1.0
171
1
  6

172
1
173
1
174
1
140
1.0
141
1.0
175
1
  7

176
1
177
1
178
1
143
1.0
179
1
  8

270
1
271
1
272
1
145
1.0
146
1.0
273
1
  9

274
1
275
1
276
1
 42
1.0
 72
1
  3

 73
1
 74
1
 75
1
 94
63
  0
MATERIAL
  5
20
102
{ACAD_REACTORS
330
E
102
}
330
E
100
AcDbMaterial
  1
ByLayer
  2

 70
0
 40
1.0
 71
1
 41
1.0
 91
-1023410177
 42
1.0
 72
1
  3

 73
1
 74
1
 75
1
 44
0.5
 73
0
 45
1.0
 46
1.0
 77
1
  4

 78
1
 79
1
170
1
 48
1.0
171
1
  6

172
1
173
1
174
1
140
1.0
141
1.0
175
1
  7

176
1
177
1
178
1
143
1.0
179
1
  8

270
1
271
1
272
1
145
1.0
146
1.0
273
1
  9

274
1
275
1
276
1
 42
1.0
 72
1
  3

 73
1
 74
1
 75
1
 94
63
  0
MATERIAL
  5
21
102
{ACAD_REACTORS
330
E
102
}
330
E
100
AcDbMaterial
  1
Global
  2

 70
0
 40
1.0
 71
1
 41
1.0
 91
-1023410177
 42
1.0
 72
1
  3

 73
1
 74
1
 75
1
 44
0.5
 73
0
 45
1.0
 46
1.0
 77
1
  4

 78
1
 79
1
170
1
 48
1.0
171
1
  6

172
1
173
1
174
1
140
1.0
141
1.0
175
1
  7

176
1
177
1
178
1
143
1.0
179
1
  8

270
1
271
1
272
1
145
1.0
146
1.0
273
1
  9

274
1
275
1
276
1
 42
1.0
 72
1
  3

 73
1
 74
1
 75
1
 94
63
  0
MLINESTYLE
  5
22
102
{ACAD_REACTORS
330
10
102
}
330
10
100
AcDbMlineStyle
  2
Standard
 70
0
  3

 62
256
 51
90.0
 52
90.0
 71
2
 49
0.5
 62
256
  6
BYLAYER
 49
-0.5
 62
256
  6
BYLAYER
  0
MLEADERSTYLE
  5
2C
102
{ACAD_REACTORS
330
F
102
}
330
F
100
AcDbMLeaderStyle
179
2
170
2
171
1
172
0
 90
2
 40
0.0
 41
0.0
173
1
 91
-1056964608
 92
-2
290
1
 42
2.0
291
1
 43
8.0
  3
Standard
 44
4.0
300

342
29
174
1
175
1
176
0
178
1
 93
-1056964608
 45
4.0
292
0
297
0
 46
4.0
 94
-1056964608
 47
1.0
 49
1.0
140
1.0
294
1
141
0.0
177
0
142
1.0
295
0
296
0
143
3.75
271
0
272
9
273
9
  0
DICTIONARY
  5
2D
330
A
100
AcDbDictionary
281
1
  3
CREATED_BY_EZDXF
350
2E
  3
WRITTEN_BY_EZDXF
350
1CC
  0
DICTIONARYVAR
  5
2E
330
2D
100
DictionaryVariables
280
0
  1
1.0.2 @ 2024-03-22T07:41:35.016362+00:00
  0
DICTIONARYVAR
  5
1CC
330
2D
100
DictionaryVariables
280
0
  1
1.0.2 @ 2024-03-22T07:41:35.025845+00:00
  0
ENDSEC
  0
EOF
