  0
SECTION
  2
HEADER
  9
$ACADVER
  1
AC1027
  9
$ACADMAINTVER
 70
105
  9
$DWGCODEPAGE
  3
ANSI_1252
  9
$LASTSAVEDBY
  1
ezdxf
  9
$REQUIREDVERSIONS
160
0
  9
$INSBASE
 10
0.0
 20
0.0
 30
0.0
  9
$EXTMIN
 10
1e+20
 20
1e+20
 30
1e+20
  9
$EXTMAX
 10
-1e+20
 20
-1e+20
 30
-1e+20
  9
$LIMMIN
 10
0.0
 20
0.0
  9
$LIMMAX
 10
420.0
 20
297.0
  9
$ORTHOMODE
 70
0
  9
$REGENMODE
 70
1
  9
$FILLMODE
 70
1
  9
$QTEXTMODE
 70
0
  9
$MIRRTEXT
 70
1
  9
$LTSCALE
 40
1.0
  9
$ATTMODE
 70
1
  9
$TEXTSIZE
 40
2.5
  9
$TRACEWID
 40
1.0
  9
$TEXTSTYLE
  7
Standard
  9
$CLAYER
  8
0
  9
$CELTYPE
  6
ByLayer
  9
$CECOLOR
 62
256
  9
$CELTSCALE
 40
1.0
  9
$DISPSILH
 70
0
  9
$DIMSCALE
 40
1.0
  9
$DIMASZ
 40
2.5
  9
$DIMEXO
 40
0.625
  9
$DIMDLI
 40
3.75
  9
$DIMRND
 40
0.0
  9
$DIMDLE
 40
0.0
  9
$DIMEXE
 40
1.25
  9
$DIMTP
 40
0.0
  9
$DIMTM
 40
0.0
  9
$DIMTXT
 40
2.5
  9
$DIMCEN
 40
2.5
  9
$DIMTSZ
 40
0.0
  9
$DIMTOL
 70
0
  9
$DIMLIM
 70
0
  9
$DIMTIH
 70
0
  9
$DIMTOH
 70
0
  9
$DIMSE1
 70
0
  9
$DIMSE2
 70
0
  9
$DIMTAD
 70
1
  9
$DIMZIN
 70
8
  9
$DIMBLK
  1

  9
$DIMASO
 70
1
  9
$DIMSHO
 70
1
  9
$DIMPOST
  1

  9
$DIMAPOST
  1

  9
$DIMALT
 70
0
  9
$DIMALTD
 70
3
  9
$DIMALTF
 40
0.03937007874
  9
$DIMLFAC
 40
1.0
  9
$DIMTOFL
 70
1
  9
$DIMTVP
 40
0.0
  9
$DIMTIX
 70
0
  9
$DIMSOXD
 70
0
  9
$DIMSAH
 70
0
  9
$DIMBLK1
  1

  9
$DIMBLK2
  1

  9
$DIMSTYLE
  2
ISO-25
  9
$DIMCLRD
 70
0
  9
$DIMCLRE
 70
0
  9
$DIMCLRT
 70
0
  9
$DIMTFAC
 40
1.0
  9
$DIMGAP
 40
0.625
  9
$DIMJUST
 70
0
  9
$DIMSD1
 70
0
  9
$DIMSD2
 70
0
  9
$DIMTOLJ
 70
0
  9
$DIMTZIN
 70
8
  9
$DIMALTZ
 70
0
  9
$DIMALTTZ
 70
0
  9
$DIMUPT
 70
0
  9
$DIMDEC
 70
2
  9
$DIMTDEC
 70
2
  9
$DIMALTU
 70
2
  9
$DIMALTTD
 70
3
  9
$DIMTXSTY
  7
Standard
  9
$DIMAUNIT
 70
0
  9
$DIMADEC
 70
0
  9
$DIMALTRND
 40
0.0
  9
$DIMAZIN
 70
0
  9
$DIMDSEP
 70
44
  9
$DIMATFIT
 70
3
  9
$DIMFRAC
 70
0
  9
$DIMLDRBLK
  1

  9
$DIMLUNIT
 70
2
  9
$DIMLWD
 70
-2
  9
$DIMLWE
 70
-2
  9
$DIMTMOVE
 70
0
  9
$DIMFXL
 40
1.0
  9
$DIMFXLON
 70
0
  9
$DIMJOGANG
 40
0.785398163397
  9
$DIMTFILL
 70
0
  9
$DIMTFILLCLR
 70
0
  9
$DIMARCSYM
 70
0
  9
$DIMLTYPE
  6

  9
$DIMLTEX1
  6

  9
$DIMLTEX2
  6

  9
$DIMTXTDIRECTION
 70
0
  9
$LUNITS
 70
2
  9
$LUPREC
 70
4
  9
$SKETCHINC
 40
1.0
  9
$FILLETRAD
 40
10.0
  9
$AUNITS
 70
0
  9
$AUPREC
 70
2
  9
$MENU
  1
.
  9
$ELEVATION
 40
0.0
  9
$PELEVATION
 40
0.0
  9
$THICKNESS
 40
0.0
  9
$LIMCHECK
 70
0
  9
$CHAMFERA
 40
0.0
  9
$CHAMFERB
 40
0.0
  9
$CHAMFERC
 40
0.0
  9
$CHAMFERD
 40
0.0
  9
$SKPOLY
 70
0
  9
$TDCREATE
 40
2460392.6955439816
  9
$TDUCREATE
 40
2458532.153996898
  9
$TDUPDATE
 40
2460392.6955439816
  9
$TDUUPDATE
 40
2458532.1544311
  9
$TDINDWG
 40
0.0
  9
$TDUSRTIMER
 40
0.0
  9
$USRTIMER
 70
1
  9
$ANGBASE
 50
0.0
  9
$ANGDIR
 70
0
  9
$PDMODE
 70
0
  9
$PDSIZE
 40
0.0
  9
$PLINEWID
 40
0.0
  9
$SPLFRAME
 70
0
  9
$SPLINETYPE
 70
6
  9
$SPLINESEGS
 70
8
  9
$HANDSEED
  5
1CC
  9
$SURFTAB1
 70
6
  9
$SURFTAB2
 70
6
  9
$SURFTYPE
 70
6
  9
$SURFU
 70
6
  9
$SURFV
 70
6
  9
$UCSBASE
  2

  9
$UCSNAME
  2

  9
$UCSORG
 10
0.0
 20
0.0
 30
0.0
  9
$UCSXDIR
 10
1.0
 20
0.0
 30
0.0
  9
$UCSYDIR
 10
0.0
 20
1.0
 30
0.0
  9
$UCSORTHOREF
  2

  9
$UCSORTHOVIEW
 70
0
  9
$UCSORGTOP
 10
0.0
 20
0.0
 30
0.0
  9
$UCSORGBOTTOM
 10
0.0
 20
0.0
 30
0.0
  9
$UCSORGLEFT
 10
0.0
 20
0.0
 30
0.0
  9
$UCSORGRIGHT
 10
0.0
 20
0.0
 30
0.0
  9
$UCSORGFRONT
 10
0.0
 20
0.0
 30
0.0
  9
$UCSORGBACK
 10
0.0
 20
0.0
 30
0.0
  9
$PUCSBASE
  2

  9
$PUCSNAME
  2

  9
$PUCSORG
 10
0.0
 20
0.0
 30
0.0
  9
$PUCSXDIR
 10
1.0
 20
0.0
 30
0.0
  9
$PUCSYDIR
 10
0.0
 20
1.0
 30
0.0
  9
$PUCSORTHOREF
  2

  9
$PUCSORTHOVIEW
 70
0
  9
$PUCSORGTOP
 10
0.0
 20
0.0
 30
0.0
  9
$PUCSORGBOTTOM
 10
0.0
 20
0.0
 30
0.0
  9
$PUCSORGLEFT
 10
0.0
 20
0.0
 30
0.0
  9
$PUCSORGRIGHT
 10
0.0
 20
0.0
 30
0.0
  9
$PUCSORGFRONT
 10
0.0
 20
0.0
 30
0.0
  9
$PUCSORGBACK
 10
0.0
 20
0.0
 30
0.0
  9
$USERI1
 70
0
  9
$USERI2
 70
0
  9
$USERI3
 70
0
  9
$USERI4
 70
0
  9
$USERI5
 70
0
  9
$USERR1
 40
0.0
  9
$USERR2
 40
0.0
  9
$USERR3
 40
0.0
  9
$USERR4
 40
0.0
  9
$USERR5
 40
0.0
  9
$WORLDVIEW
 70
1
  9
$SHADEDGE
 70
3
  9
$SHADEDIF
 70
70
  9
$TILEMODE
 70
1
  9
$MAXACTVP
 70
64
  9
$PINSBASE
 10
0.0
 20
0.0
 30
0.0
  9
$PLIMCHECK
 70
0
  9
$PEXTMIN
 10
1e+20
 20
1e+20
 30
1e+20
  9
$PEXTMAX
 10
-1e+20
 20
-1e+20
 30
-1e+20
  9
$PLIMMIN
 10
0.0
 20
0.0
  9
$PLIMMAX
 10
420.0
 20
297.0
  9
$UNITMODE
 70
0
  9
$VISRETAIN
 70
1
  9
$PLINEGEN
 70
0
  9
$PSLTSCALE
 70
1
  9
$TREEDEPTH
 70
3020
  9
$CMLSTYLE
  2
Standard
  9
$CMLJUST
 70
0
  9
$CMLSCALE
 40
20.0
  9
$PROXYGRAPHICS
 70
1
  9
$MEASUREMENT
 70
1
  9
$CELWEIGHT
370
-1
  9
$ENDCAPS
280
0
  9
$JOINSTYLE
280
0
  9
$LWDISPLAY
290
0
  9
$INSUNITS
 70
6
  9
$HYPERLINKBASE
  1

  9
$STYLESHEET
  1

  9
$XEDIT
290
1
  9
$CEPSNTYPE
380
0
  9
$PSTYLEMODE
290
1
  9
$FINGERPRINTGUID
  2
{EC267C12-86EA-466A-86EB-E2ED0F4DA557}
  9
$VERSIONGUID
  2
{1622830B-A748-4950-836C-50CE1C7EBB7B}
  9
$EXTNAMES
290
1
  9
$PSVPSCALE
 40
0.0
  9
$OLESTARTUP
290
0
  9
$SORTENTS
280
127
  9
$INDEXCTL
280
0
  9
$HIDETEXT
280
1
  9
$XCLIPFRAME
280
0
  9
$HALOGAP
280
0
  9
$OBSCOLOR
 70
257
  9
$OBSLTYPE
280
0
  9
$INTERSECTIONDISPLAY
280
0
  9
$INTERSECTIONCOLOR
 70
257
  9
$DIMASSOC
280
2
  9
$PROJECTNAME
  1

  9
$CAMERADISPLAY
290
0
  9
$LENSLENGTH
 40
50.0
  9
$CAMERAHEIGHT
 40
0.0
  9
$STEPSPERSEC
 40
24.0
  9
$STEPSIZE
 40
100.0
  9
$3DDWFPREC
 40
2.0
  9
$PSOLWIDTH
 40
0.005
  9
$PSOLHEIGHT
 40
0.08
  9
$LOFTANG1
 40
1.570796326795
  9
$LOFTANG2
 40
1.570796326795
  9
$LOFTMAG1
 40
0.0
  9
$LOFTMAG2
 40
0.0
  9
$LOFTPARAM
 70
7
  9
$LOFTNORMALS
280
1
  9
$LATITUDE
 40
37.795
  9
$LONGITUDE
 40
-122.394
  9
$NORTHDIRECTION
 40
0.0
  9
$TIMEZONE
 70
-8000
  9
$LIGHTGLYPHDISPLAY
280
1
  9
$TILEMODELIGHTSYNCH
280
1
  9
$CMATERIAL
347
20
  9
$SOLIDHIST
280
0
  9
$SHOWHIST
280
1
  9
$DWFFRAME
280
2
  9
$DGNFRAME
280
2
  9
$REALWORLDSCALE
290
1
  9
$INTERFERECOLOR
 62
256
  9
$CSHADOW
280
0
  9
$SHADOWPLANELOCATION
 40
0.0
  0
ENDSEC
  0
SECTION
  2
CLASSES
  0
CLASS
  1
ACDBDICTIONARYWDFLT
  2
AcDbDictionaryWithDefault
  3
ObjectDBX Classes
 90
0
 91
0
280
0
281
0
  0
CLASS
  1
SUN
  2
AcDbSun
  3
SCENEOE
 90
1153
 91
0
280
0
281
0
  0
CLASS
  1
VISUALSTYLE
  2
AcDbVisualStyle
  3
ObjectDBX Classes
 90
4095
 91
0
280
0
281
0
  0
CLASS
  1
MATERIAL
  2
AcDbMaterial
  3
ObjectDBX Classes
 90
1153
 91
0
280
0
281
0
  0
CLASS
  1
SCALE
  2
AcDbScale
  3
ObjectDBX Classes
 90
1153
 91
0
280
0
281
0
  0
CLASS
  1
TABLESTYLE
  2
AcDbTableStyle
  3
ObjectDBX Classes
 90
4095
 91
0
280
0
281
0
  0
CLASS
  1
MLEADERSTYLE
  2
AcDbMLeaderStyle
  3
ACDB_MLEADERSTYLE_CLASS
 90
4095
 91
0
280
0
281
0
  0
CLASS
  1
DICTIONARYVAR
  2
AcDbDictionaryVar
  3
ObjectDBX Classes
 90
0
 91
0
280
0
281
0
  0
CLASS
  1
CELLSTYLEMAP
  2
AcDbCellStyleMap
  3
ObjectDBX Classes
 90
1152
 91
0
280
0
281
0
  0
CLASS
  1
MENTALRAYRENDERSETTINGS
  2
AcDbMentalRayRenderSettings
  3
SCENEOE
 90
1024
 91
0
280
0
281
0
  0
CLASS
  1
ACDBDETAILVIEWSTYLE
  2
AcDbDetailViewStyle
  3
ObjectDBX Classes
 90
1025
 91
0
280
0
281
0
  0
CLASS
  1
ACDBSECTIONVIEWSTYLE
  2
AcDbSectionViewStyle
  3
ObjectDBX Classes
 90
1025
 91
0
280
0
281
0
  0
CLASS
  1
RASTERVARIABLES
  2
AcDbRasterVariables
  3
ISM
 90
0
 91
0
280
0
281
0
  0
CLASS
  1
LAYOUT
  2
AcDbLayout
  3
ObjectDBX Classes
 90
0
 91
0
280
0
281
0
  0
CLASS
  1
ACDBPLACEHOLDER
  2
AcDbPlaceHolder
  3
ObjectDBX Classes
 90
0
 91
0
280
0
281
0
  0
ENDSEC
  0
SECTION
  2
TABLES
  0
TABLE
  2
VPORT
  5
8
330
0
100
AcDbSymbolTable
 70
1
  0
VPORT
  5
23
330
8
100
AcDbSymbolTableRecord
100
AcDbViewportTableRecord
  2
*Active
 70
0
 10
0.0
 20
0.0
 11
1.0
 21
1.0
 12
0.0
 22
0.0
 13
0.0
 23
0.0
 14
0.5
 24
0.5
 15
0.5
 25
0.5
 16
0.0
 26
0.0
 36
1.0
 17
0.0
 27
0.0
 37
0.0
 40
1000.0
 41
1.34
 42
50.0
 43
0.0
 44
0.0
 50
0.0
 51
0.0
 71
0
 72
1000
 73
1
 74
3
 75
0
 76
0
 77
0
 78
0
281
0
 65
0
146
0.0
  0
ENDTAB
  0
TABLE
  2
LTYPE
  5
2
330
0
100
AcDbSymbolTable
 70
3
  0
LTYPE
  5
24
330
2
100
AcDbSymbolTableRecord
100
AcDbLinetypeTableRecord
  2
ByBlock
 70
0
  3

 72
65
 73
0
 40
0.0
  0
LTYPE
  5
25
330
2
100
AcDbSymbolTableRecord
100
AcDbLinetypeTableRecord
  2
ByLayer
 70
0
  3

 72
65
 73
0
 40
0.0
  0
LTYPE
  5
26
330
2
100
AcDbSymbolTableRecord
100
AcDbLinetypeTableRecord
  2
Continuous
 70
0
  3

 72
65
 73
0
 40
0.0
  0
ENDTAB
  0
TABLE
  2
LAYER
  5
1
330
0
100
AcDbSymbolTable
 70
5
  0
LAYER
  5
27
330
1
100
AcDbSymbolTableRecord
100
AcDbLayerTableRecord
  2
0
 70
0
 62
7
  6
Continuous
370
-3
390
13
347
21
  0
LAYER
  5
28
330
1
100
AcDbSymbolTableRecord
100
AcDbLayerTableRecord
  2
Defpoints
 70
0
 62
7
  6
Continuous
290
0
370
-3
390
13
347
21
  0
LAYER
  5
30
330
1
100
AcDbSymbolTableRecord
100
AcDbLayerTableRecord
  2
FoilLayer
 70
0
 62
1
  6
Continuous
370
50
390
13
347
21
  0
LAYER
  5
31
330
1
100
AcDbSymbolTableRecord
100
AcDbLayerTableRecord
  2
StringerLayer
 70
0
 62
1
  6
Continuous
370
50
390
13
347
21
  0
LAYER
  5
32
330
1
100
AcDbSymbolTableRecord
100
AcDbLayerTableRecord
  2
SubLayer
 70
0
 62
1
  6
Continuous
370
50
390
13
347
21
  0
ENDTAB
  0
TABLE
  2
STYLE
  5
5
330
0
100
AcDbSymbolTable
 70
2
  0
STYLE
  5
29
330
5
100
AcDbSymbolTableRecord
100
AcDbTextStyleTableRecord
  2
Standard
 70
0
 40
0.0
 41
1.0
 50
0.0
 71
0
 42
2.5
  3
txt
  4

  0
STYLE
  5
2F
330
5
100
AcDbSymbolTableRecord
100
AcDbTextStyleTableRecord
  2
MSゴシック
 70
0
 40
0.0
 41
1.0
 50
0.0
 71
0
 42
2.5
  3
romans
  4

  0
ENDTAB
  0
TABLE
  2
VIEW
  5
7
330
0
100
AcDbSymbolTable
 70
0
  0
ENDTAB
  0
TABLE
  2
UCS
  5
6
330
0
100
AcDbSymbolTable
 70
0
  0
ENDTAB
  0
TABLE
  2
APPID
  5
3
330
0
100
AcDbSymbolTable
 70
3
  0
APPID
  5
2A
330
3
100
AcDbSymbolTableRecord
100
AcDbRegAppTableRecord
  2
ACAD
 70
0
  0
APPID
  5
1C9
330
3
100
AcDbSymbolTableRecord
100
AcDbRegAppTableRecord
  2
HATCHBACKGROUNDCOLOR
 70
0
  0
APPID
  5
1CA
330
3
100
AcDbSymbolTableRecord
100
AcDbRegAppTableRecord
  2
EZDXF
 70
0
  0
ENDTAB
  0
TABLE
  2
DIMSTYLE
  5
4
330
0
100
AcDbSymbolTable
 70
1
100
AcDbDimStyleTable
  0
DIMSTYLE
105
2B
330
4
100
AcDbSymbolTableRecord
100
AcDbDimStyleTableRecord
  2
Standard
 70
0
 40
1.0
 41
2.5
 42
0.625
 43
3.75
 44
1.25
 45
0.0
 46
0.0
 47
0.0
 48
0.0
 49
2.5
140
2.5
141
2.5
142
0.0
143
0.03937007874
144
1.0
145
0.0
146
1.0
147
0.625
148
0.0
 69
0
 70
0
 71
0
 72
0
 73
0
 74
0
 75
0
 76
0
 77
1
 78
8
 79
3
170
0
171
3
172
1
173
0
174
0
175
0
176
0
177
0
178
0
179
2
271
2
272
2
273
2
274
3
275
0
276
0
277
2
278
44
279
0
280
0
281
0
282
0
283
0
284
8
285
0
286
0
288
0
289
3
290
0
371
-2
372
-2
  0
ENDTAB
  0
TABLE
  2
BLOCK_RECORD
  5
9
330
0
100
AcDbSymbolTable
 70
2
  0
BLOCK_RECORD
  5
17
330
9
100
AcDbSymbolTableRecord
100
AcDbBlockTableRecord
  2
*Model_Space
340
1A
 70
0
280
1
281
0
  0
BLOCK_RECORD
  5
1B
330
9
100
AcDbSymbolTableRecord
100
AcDbBlockTableRecord
  2
*Paper_Space
340
1E
 70
0
280
1
281
0
  0
ENDTAB
  0
ENDSEC
  0
SECTION
  2
BLOCKS
  0
BLOCK
  5
18
330
17
100
AcDbEntity
  8
0
100
AcDbBlockBegin
  2
*Model_Space
 70
0
 10
0.0
 20
0.0
 30
0.0
  3
*Model_Space
  1

  0
ENDBLK
  5
19
330
17
100
AcDbEntity
  8
0
100
AcDbBlockEnd
  0
BLOCK
  5
1C
330
1B
100
AcDbEntity
  8
0
100
AcDbBlockBegin
  2
*Paper_Space
 70
0
 10
0.0
 20
0.0
 30
0.0
  3
*Paper_Space
  1

  0
ENDBLK
  5
1D
330
1B
100
AcDbEntity
  8
0
100
AcDbBlockEnd
  0
ENDSEC
  0
SECTION
  2
ENTITIES
  0
LINE
  5
33
330
17
100
AcDbEntity
  8
FoilLayer
100
AcDbLine
 10
288.1872841227686
 20
-0.08562595145343871
 30
0.0
 11
286.5968718302807
 21
0.25361275559146035
 31
0.0
  0
LINE
  5
34
330
17
100
AcDbEntity
  8
FoilLayer
100
AcDbLine
 10
286.5968718302807
 20
0.25361275559146035
 30
0.0
 11
284.0466934968323
 21
0.8062918178107727
 31
0.0
  0
LINE
  5
35
330
17
100
AcDbEntity
  8
FoilLayer
100
AcDbLine
 10
284.0466934968323
 20
0.8062918178107727
 30
0.0
 11
281.2916896479942
 21
1.4118171471740706
 31
0.0
  0
LINE
  5
36
330
17
100
AcDbEntity
  8
FoilLayer
100
AcDbLine
 10
281.2916896479942
 20
1.4118171471740706
 30
0.0
 11
278.33016282450177
 21
2.060964452369502
 31
0.0
  0
LINE
  5
37
330
17
100
AcDbEntity
  8
FoilLayer
100
AcDbLine
 10
278.33016282450177
 20
2.060964452369502
 30
0.0
 11
275.16142273841524
 21
2.741947229305368
 31
0.0
  0
LINE
  5
38
330
17
100
AcDbEntity
  8
FoilLayer
100
AcDbLine
 10
275.16142273841524
 20
2.741947229305368
 30
0.0
 11
271.7995595705037
 21
3.4656768707793293
 31
0.0
  0
LINE
  5
39
330
17
100
AcDbEntity
  8
FoilLayer
100
AcDbLine
 10
271.7995595705037
 20
3.4656768707793293
 30
0.0
 11
268.26519571160924
 21
4.236351223326536
 31
0.0
  0
LINE
  5
3A
330
17
100
AcDbEntity
  8
FoilLayer
100
AcDbLine
 10
268.26519571160924
 20
4.236351223326536
 30
0.0
 11
264.5789886188656
 21
5.040584703535338
 31
0.0
  0
LINE
  5
3B
330
17
100
AcDbEntity
  8
FoilLayer
100
AcDbLine
 10
264.5789886188656
 20
5.040584703535338
 30
0.0
 11
260.7602064369599
 21
5.8578425066633875
 31
0.0
  0
LINE
  5
3C
330
17
100
AcDbEntity
  8
FoilLayer
100
AcDbLine
 10
260.7602064369599
 20
5.8578425066633875
 30
0.0
 11
256.830756284624
 21
6.680843344975877
 31
0.0
  0
LINE
  5
3D
330
17
100
AcDbEntity
  8
FoilLayer
100
AcDbLine
 10
256.830756284624
 20
6.680843344975877
 30
0.0
 11
252.80982775969602
 21
7.509648071308033
 31
0.0
  0
LINE
  5
3E
330
17
100
AcDbEntity
  8
FoilLayer
100
AcDbLine
 10
252.80982775969602
 20
7.509648071308033
 30
0.0
 11
248.7261127703814
 21
8.369608704357843
 31
0.0
  0
LINE
  5
3F
330
17
100
AcDbEntity
  8
FoilLayer
100
AcDbLine
 10
248.7261127703814
 20
8.369608704357843
 30
0.0
 11
244.59247155243986
 21
9.246437502909172
 31
0.0
  0
LINE
  5
40
330
17
100
AcDbEntity
  8
FoilLayer
100
AcDbLine
 10
244.59247155243986
 20
9.246437502909172
 30
0.0
 11
240.42025176478387
 21
10.130742159644715
 31
0.0
  0
LINE
  5
41
330
17
100
AcDbEntity
  8
FoilLayer
100
AcDbLine
 10
240.42025176478387
 20
10.130742159644715
 30
0.0
 11
236.21803791382035
 21
11.012137361330641
 31
0.0
  0
LINE
  5
42
330
17
100
AcDbEntity
  8
FoilLayer
100
AcDbLine
 10
236.21803791382035
 20
11.012137361330641
 30
0.0
 11
231.98840734646853
 21
11.876242400741374
 31
0.0
  0
LINE
  5
43
330
17
100
AcDbEntity
  8
FoilLayer
100
AcDbLine
 10
231.98840734646853
 20
11.876242400741374
 30
0.0
 11
227.73636642607698
 21
12.730807533642006
 31
0.0
  0
LINE
  5
44
330
17
100
AcDbEntity
  8
FoilLayer
100
AcDbLine
 10
227.73636642607698
 20
12.730807533642006
 30
0.0
 11
223.47644484722213
 21
13.605213071352036
 31
0.0
  0
LINE
  5
45
330
17
100
AcDbEntity
  8
FoilLayer
100
AcDbLine
 10
223.47644484722213
 20
13.605213071352036
 30
0.0
 11
219.2097562465674
 21
14.488087653027828
 31
0.0
  0
LINE
  5
46
330
17
100
AcDbEntity
  8
FoilLayer
100
AcDbLine
 10
219.2097562465674
 20
14.488087653027828
 30
0.0
 11
214.93685838322222
 21
15.369413781114924
 31
0.0
  0
LINE
  5
47
330
17
100
AcDbEntity
  8
FoilLayer
100
AcDbLine
 10
214.93685838322222
 20
15.369413781114924
 30
0.0
 11
210.65738837884874
 21
16.23882162488115
 31
0.0
  0
LINE
  5
48
330
17
100
AcDbEntity
  8
FoilLayer
100
AcDbLine
 10
210.65738837884874
 20
16.23882162488115
 30
0.0
 11
206.3698795070008
 21
17.08609593507196
 31
0.0
  0
LINE
  5
49
330
17
100
AcDbEntity
  8
FoilLayer
100
AcDbLine
 10
206.3698795070008
 20
17.08609593507196
 30
0.0
 11
202.07174038696337
 21
17.911381167312502
 31
0.0
  0
LINE
  5
4A
330
17
100
AcDbEntity
  8
FoilLayer
100
AcDbLine
 10
202.07174038696337
 20
17.911381167312502
 30
0.0
 11
197.7722887305939
 21
18.747058173303262
 31
0.0
  0
LINE
  5
4B
330
17
100
AcDbEntity
  8
FoilLayer
100
AcDbLine
 10
197.7722887305939
 20
18.747058173303262
 30
0.0
 11
193.47858084316783
 21
19.604083973855563
 31
0.0
  0
LINE
  5
4C
330
17
100
AcDbEntity
  8
FoilLayer
100
AcDbLine
 10
193.47858084316783
 20
19.604083973855563
 30
0.0
 11
189.18611224016456
 21
20.459324957788613
 31
0.0
  0
LINE
  5
4D
330
17
100
AcDbEntity
  8
FoilLayer
100
AcDbLine
 10
189.18611224016456
 20
20.459324957788613
 30
0.0
 11
184.89159099276173
 21
21.29998413856681
 31
0.0
  0
LINE
  5
4E
330
17
100
AcDbEntity
  8
FoilLayer
100
AcDbLine
 10
184.89159099276173
 20
21.29998413856681
 30
0.0
 11
180.59238096326612
 21
22.11379619942282
 31
0.0
  0
LINE
  5
4F
330
17
100
AcDbEntity
  8
FoilLayer
100
AcDbLine
 10
180.59238096326612
 20
22.11379619942282
 30
0.0
 11
176.28594608683898
 21
22.895062698066063
 31
0.0
  0
LINE
  5
50
330
17
100
AcDbEntity
  8
FoilLayer
100
AcDbLine
 10
176.28594608683898
 20
22.895062698066063
 30
0.0
 11
172.89051658205926
 21
23.49449330479882
 31
0.0
  0
LINE
  5
51
330
17
100
AcDbEntity
  8
FoilLayer
100
AcDbLine
 10
172.89051658205926
 20
23.49449330479882
 30
0.0
 11
172.70797194019866
 21
22.46048293070774
 31
0.0
  0
LINE
  5
52
330
17
100
AcDbEntity
  8
FoilLayer
100
AcDbLine
 10
172.70797194019866
 20
22.46048293070774
 30
0.0
 11
171.78752454078494
 21
22.62298491219271
 31
0.0
  0
LINE
  5
53
330
17
100
AcDbEntity
  8
FoilLayer
100
AcDbLine
 10
171.78752454078494
 20
22.62298491219271
 30
0.0
 11
167.47501627879922
 21
23.3965942548203
 31
0.0
  0
LINE
  5
54
330
17
100
AcDbEntity
  8
FoilLayer
100
AcDbLine
 10
167.47501627879922
 20
23.3965942548203
 30
0.0
 11
163.17111074954613
 21
24.178559052537988
 31
0.0
  0
LINE
  5
55
330
17
100
AcDbEntity
  8
FoilLayer
100
AcDbLine
 10
163.17111074954613
 20
24.178559052537988
 30
0.0
 11
158.86996609810217
 21
24.95236619878836
 31
0.0
  0
LINE
  5
56
330
17
100
AcDbEntity
  8
FoilLayer
100
AcDbLine
 10
158.86996609810217
 20
24.95236619878836
 30
0.0
 11
154.57089595064366
 21
25.709602359322812
 31
0.0
  0
LINE
  5
57
330
17
100
AcDbEntity
  8
FoilLayer
100
AcDbLine
 10
154.57089595064366
 20
25.709602359322812
 30
0.0
 11
150.2696838169395
 21
26.43915588123427
 31
0.0
  0
LINE
  5
58
330
17
100
AcDbEntity
  8
FoilLayer
100
AcDbLine
 10
150.2696838169395
 20
26.43915588123427
 30
0.0
 11
145.9589780522155
 21
27.138449340203337
 31
0.0
  0
LINE
  5
59
330
17
100
AcDbEntity
  8
FoilLayer
100
AcDbLine
 10
145.9589780522155
 20
27.138449340203337
 30
0.0
 11
141.6407375271737
 21
27.82408815803483
 31
0.0
  0
LINE
  5
5A
330
17
100
AcDbEntity
  8
FoilLayer
100
AcDbLine
 10
141.6407375271737
 20
27.82408815803483
 30
0.0
 11
137.32635742564383
 21
28.51401262303377
 31
0.0
  0
LINE
  5
5B
330
17
100
AcDbEntity
  8
FoilLayer
100
AcDbLine
 10
137.32635742564383
 20
28.51401262303377
 30
0.0
 11
133.0208979919501
 21
29.203880695678933
 31
0.0
  0
LINE
  5
5C
330
17
100
AcDbEntity
  8
FoilLayer
100
AcDbLine
 10
133.0208979919501
 20
29.203880695678933
 30
0.0
 11
128.7168382148588
 21
29.875607082537293
 31
0.0
  0
LINE
  5
5D
330
17
100
AcDbEntity
  8
FoilLayer
100
AcDbLine
 10
128.7168382148588
 20
29.875607082537293
 30
0.0
 11
124.41442168193811
 21
30.523004360190868
 31
0.0
  0
LINE
  5
5E
330
17
100
AcDbEntity
  8
FoilLayer
100
AcDbLine
 10
124.41442168193811
 20
30.523004360190868
 30
0.0
 11
120.10360233996846
 21
31.13858099960811
 31
0.0
  0
LINE
  5
5F
330
17
100
AcDbEntity
  8
FoilLayer
100
AcDbLine
 10
120.10360233996846
 20
31.13858099960811
 30
0.0
 11
115.79068599598531
 21
31.739653351773452
 31
0.0
  0
LINE
  5
60
330
17
100
AcDbEntity
  8
FoilLayer
100
AcDbLine
 10
115.79068599598531
 20
31.739653351773452
 30
0.0
 11
111.47916182081246
 21
32.33291067341227
 31
0.0
  0
LINE
  5
61
330
17
100
AcDbEntity
  8
FoilLayer
100
AcDbLine
 10
111.47916182081246
 20
32.33291067341227
 30
0.0
 11
107.172341380582
 21
32.91939230579571
 31
0.0
  0
LINE
  5
62
330
17
100
AcDbEntity
  8
FoilLayer
100
AcDbLine
 10
107.172341380582
 20
32.91939230579571
 30
0.0
 11
102.8720469370403
 21
33.49182881078066
 31
0.0
  0
LINE
  5
63
330
17
100
AcDbEntity
  8
FoilLayer
100
AcDbLine
 10
102.8720469370403
 20
33.49182881078066
 30
0.0
 11
98.57251580605163
 21
34.03644492726132
 31
0.0
  0
LINE
  5
64
330
17
100
AcDbEntity
  8
FoilLayer
100
AcDbLine
 10
98.57251580605163
 20
34.03644492726132
 30
0.0
 11
94.27150362916893
 21
34.550793005738555
 31
0.0
  0
LINE
  5
65
330
17
100
AcDbEntity
  8
FoilLayer
100
AcDbLine
 10
94.27150362916893
 20
34.550793005738555
 30
0.0
 11
89.96683892434726
 21
35.040169685207125
 31
0.0
  0
LINE
  5
66
330
17
100
AcDbEntity
  8
FoilLayer
100
AcDbLine
 10
89.96683892434726
 20
35.040169685207125
 30
0.0
 11
85.6621322221099
 21
35.51838363749125
 31
0.0
  0
LINE
  5
67
330
17
100
AcDbEntity
  8
FoilLayer
100
AcDbLine
 10
85.6621322221099
 20
35.51838363749125
 30
0.0
 11
81.36411033095919
 21
35.993053642825146
 31
0.0
  0
LINE
  5
68
330
17
100
AcDbEntity
  8
FoilLayer
100
AcDbLine
 10
81.36411033095919
 20
35.993053642825146
 30
0.0
 11
77.0732734250337
 21
36.45569457258566
 31
0.0
  0
LINE
  5
69
330
17
100
AcDbEntity
  8
FoilLayer
100
AcDbLine
 10
77.0732734250337
 20
36.45569457258566
 30
0.0
 11
72.78628635080625
 21
36.89507328507537
 31
0.0
  0
LINE
  5
6A
330
17
100
AcDbEntity
  8
FoilLayer
100
AcDbLine
 10
72.78628635080625
 20
36.89507328507537
 30
0.0
 11
68.50046295630611
 21
37.307040214921294
 31
0.0
  0
LINE
  5
6B
330
17
100
AcDbEntity
  8
FoilLayer
100
AcDbLine
 10
68.50046295630611
 20
37.307040214921294
 30
0.0
 11
64.21410115376256
 21
37.69537619080767
 31
0.0
  0
LINE
  5
6C
330
17
100
AcDbEntity
  8
FoilLayer
100
AcDbLine
 10
64.21410115376256
 20
37.69537619080767
 30
0.0
 11
59.930980377324516
 21
38.070146455650644
 31
0.0
  0
LINE
  5
6D
330
17
100
AcDbEntity
  8
FoilLayer
100
AcDbLine
 10
59.930980377324516
 20
38.070146455650644
 30
0.0
 11
55.652776738694826
 21
38.43373485599183
 31
0.0
  0
LINE
  5
6E
330
17
100
AcDbEntity
  8
FoilLayer
100
AcDbLine
 10
55.652776738694826
 20
38.43373485599183
 30
0.0
 11
51.381703178140754
 21
38.78498811855358
 31
0.0
  0
LINE
  5
6F
330
17
100
AcDbEntity
  8
FoilLayer
100
AcDbLine
 10
51.381703178140754
 20
38.78498811855358
 30
0.0
 11
47.119158467507646
 21
39.11768814524018
 31
0.0
  0
LINE
  5
70
330
17
100
AcDbEntity
  8
FoilLayer
100
AcDbLine
 10
47.119158467507646
 20
39.11768814524018
 30
0.0
 11
42.862198948098296
 21
39.42342823530606
 31
0.0
  0
LINE
  5
71
330
17
100
AcDbEntity
  8
FoilLayer
100
AcDbLine
 10
42.862198948098296
 20
39.42342823530606
 30
0.0
 11
38.60918748654001
 21
39.702922142179574
 31
0.0
  0
LINE
  5
72
330
17
100
AcDbEntity
  8
FoilLayer
100
AcDbLine
 10
38.60918748654001
 20
39.702922142179574
 30
0.0
 11
34.362075213349726
 21
39.9643380711179
 31
0.0
  0
LINE
  5
73
330
17
100
AcDbEntity
  8
FoilLayer
100
AcDbLine
 10
34.362075213349726
 20
39.9643380711179
 30
0.0
 11
30.121752420370598
 21
40.21111253474056
 31
0.0
  0
LINE
  5
74
330
17
100
AcDbEntity
  8
FoilLayer
100
AcDbLine
 10
30.121752420370598
 20
40.21111253474056
 30
0.0
 11
25.891309366304313
 21
40.44363574101721
 31
0.0
  0
LINE
  5
75
330
17
100
AcDbEntity
  8
FoilLayer
100
AcDbLine
 10
25.891309366304313
 20
40.44363574101721
 30
0.0
 11
21.673019129442565
 21
40.65597467755442
 31
0.0
  0
LINE
  5
76
330
17
100
AcDbEntity
  8
FoilLayer
100
AcDbLine
 10
21.673019129442565
 20
40.65597467755442
 30
0.0
 11
17.47112480371814
 21
40.84436557632877
 31
0.0
  0
LINE
  5
77
330
17
100
AcDbEntity
  8
FoilLayer
100
AcDbLine
 10
17.47112480371814
 20
40.84436557632877
 30
0.0
 11
13.289793988509729
 21
41.00826555865913
 31
0.0
  0
LINE
  5
78
330
17
100
AcDbEntity
  8
FoilLayer
100
AcDbLine
 10
13.289793988509729
 20
41.00826555865913
 30
0.0
 11
9.129564658479097
 21
41.14792370684909
 31
0.0
  0
LINE
  5
79
330
17
100
AcDbEntity
  8
FoilLayer
100
AcDbLine
 10
9.129564658479097
 20
41.14792370684909
 30
0.0
 11
4.989172433461988
 21
41.265480654419214
 31
0.0
  0
LINE
  5
7A
330
17
100
AcDbEntity
  8
FoilLayer
100
AcDbLine
 10
4.989172433461988
 20
41.265480654419214
 30
0.0
 11
0.8660180857578439
 21
41.36107582239665
 31
0.0
  0
LINE
  5
7B
330
17
100
AcDbEntity
  8
FoilLayer
100
AcDbLine
 10
0.8660180857578439
 20
41.36107582239665
 30
0.0
 11
-3.239940998766599
 21
41.434820529671576
 31
0.0
  0
LINE
  5
7C
330
17
100
AcDbEntity
  8
FoilLayer
100
AcDbLine
 10
-3.239940998766599
 20
41.434820529671576
 30
0.0
 11
-7.331957899677207
 21
41.48054069144792
 31
0.0
  0
LINE
  5
7D
330
17
100
AcDbEntity
  8
FoilLayer
100
AcDbLine
 10
-7.331957899677207
 20
41.48054069144792
 30
0.0
 11
-11.413657543366128
 21
41.49626190266081
 31
0.0
  0
LINE
  5
7E
330
17
100
AcDbEntity
  8
FoilLayer
100
AcDbLine
 10
-11.413657543366128
 20
41.49626190266081
 30
0.0
 11
-15.484487691266082
 21
41.48744482518235
 31
0.0
  0
LINE
  5
7F
330
17
100
AcDbEntity
  8
FoilLayer
100
AcDbLine
 10
-15.484487691266082
 20
41.48744482518235
 30
0.0
 11
-19.543047805369014
 21
41.45690204775843
 31
0.0
  0
LINE
  5
80
330
17
100
AcDbEntity
  8
FoilLayer
100
AcDbLine
 10
-19.543047805369014
 20
41.45690204775843
 30
0.0
 11
-23.58774990730248
 21
41.404290818889486
 31
0.0
  0
LINE
  5
81
330
17
100
AcDbEntity
  8
FoilLayer
100
AcDbLine
 10
-23.58774990730248
 20
41.404290818889486
 30
0.0
 11
-27.618758339476784
 21
41.32597645375124
 31
0.0
  0
LINE
  5
82
330
17
100
AcDbEntity
  8
FoilLayer
100
AcDbLine
 10
-27.618758339476784
 20
41.32597645375124
 30
0.0
 11
-31.635523680773048
 21
41.22017670605429
 31
0.0
  0
LINE
  5
83
330
17
100
AcDbEntity
  8
FoilLayer
100
AcDbLine
 10
-31.635523680773048
 20
41.22017670605429
 30
0.0
 11
-35.63839335729622
 21
41.08498612768002
 31
0.0
  0
LINE
  5
84
330
17
100
AcDbEntity
  8
FoilLayer
100
AcDbLine
 10
-35.63839335729622
 20
41.08498612768002
 30
0.0
 11
-39.627444476717926
 21
40.92054786726058
 31
0.0
  0
LINE
  5
85
330
17
100
AcDbEntity
  8
FoilLayer
100
AcDbLine
 10
-39.627444476717926
 20
40.92054786726058
 30
0.0
 11
-43.60137217390675
 21
40.729366184498495
 31
0.0
  0
LINE
  5
86
330
17
100
AcDbEntity
  8
FoilLayer
100
AcDbLine
 10
-43.60137217390675
 20
40.729366184498495
 30
0.0
 11
-47.557431357542384
 21
40.512537253681565
 31
0.0
  0
LINE
  5
87
330
17
100
AcDbEntity
  8
FoilLayer
100
AcDbLine
 10
-47.557431357542384
 20
40.512537253681565
 30
0.0
 11
-51.49693446436602
 21
40.26524886753224
 31
0.0
  0
LINE
  5
88
330
17
100
AcDbEntity
  8
FoilLayer
100
AcDbLine
 10
-51.49693446436602
 20
40.26524886753224
 30
0.0
 11
-55.420063160644844
 21
39.99013875895377
 31
0.0
  0
LINE
  5
89
330
17
100
AcDbEntity
  8
FoilLayer
100
AcDbLine
 10
-55.420063160644844
 20
39.99013875895377
 30
0.0
 11
-59.31859571461952
 21
39.692689700161466
 31
0.0
  0
LINE
  5
8A
330
17
100
AcDbEntity
  8
FoilLayer
100
AcDbLine
 10
-59.31859571461952
 20
39.692689700161466
 30
0.0
 11
-63.201020020869606
 21
39.35884143521564
 31
0.0
  0
LINE
  5
8B
330
17
100
AcDbEntity
  8
FoilLayer
100
AcDbLine
 10
-63.201020020869606
 20
39.35884143521564
 30
0.0
 11
-67.05567901825572
 21
39.00560915870242
 31
0.0
  0
LINE
  5
8C
330
17
100
AcDbEntity
  8
FoilLayer
100
AcDbLine
 10
-67.05567901825572
 20
39.00560915870242
 30
0.0
 11
-70.88334602428306
 21
38.61668762651522
 31
0.0
  0
LINE
  5
8D
330
17
100
AcDbEntity
  8
FoilLayer
100
AcDbLine
 10
-70.88334602428306
 20
38.61668762651522
 30
0.0
 11
-74.69061709128619
 21
38.18736765814281
 31
0.0
  0
LINE
  5
8E
330
17
100
AcDbEntity
  8
FoilLayer
100
AcDbLine
 10
-74.69061709128619
 20
38.18736765814281
 30
0.0
 11
-78.46946532172035
 21
37.73739776183901
 31
0.0
  0
LINE
  5
8F
330
17
100
AcDbEntity
  8
FoilLayer
100
AcDbLine
 10
-78.46946532172035
 20
37.73739776183901
 30
0.0
 11
-82.21381162999326
 21
37.2659658560394
 31
0.0
  0
LINE
  5
90
330
17
100
AcDbEntity
  8
FoilLayer
100
AcDbLine
 10
-82.21381162999326
 20
37.2659658560394
 30
0.0
 11
-85.91986804738751
 21
36.763335339097516
 31
0.0
  0
LINE
  5
91
330
17
100
AcDbEntity
  8
FoilLayer
100
AcDbLine
 10
-85.91986804738751
 20
36.763335339097516
 30
0.0
 11
-89.58533751628677
 21
36.22121713008651
 31
0.0
  0
LINE
  5
92
330
17
100
AcDbEntity
  8
FoilLayer
100
AcDbLine
 10
-89.58533751628677
 20
36.22121713008651
 30
0.0
 11
-93.21204562158734
 21
35.63630370899942
 31
0.0
  0
LINE
  5
93
330
17
100
AcDbEntity
  8
FoilLayer
100
AcDbLine
 10
-93.21204562158734
 20
35.63630370899942
 30
0.0
 11
-96.79960474868818
 21
35.02100296871507
 31
0.0
  0
LINE
  5
94
330
17
100
AcDbEntity
  8
FoilLayer
100
AcDbLine
 10
-96.79960474868818
 20
35.02100296871507
 30
0.0
 11
-100.33790448125644
 21
34.39440185134069
 31
0.0
  0
LINE
  5
95
330
17
100
AcDbEntity
  8
FoilLayer
100
AcDbLine
 10
-100.33790448125644
 20
34.39440185134069
 30
0.0
 11
-103.81096832263736
 21
33.75632825586199
 31
0.0
  0
LINE
  5
96
330
17
100
AcDbEntity
  8
FoilLayer
100
AcDbLine
 10
-103.81096832263736
 20
33.75632825586199
 30
0.0
 11
-107.21753306912757
 21
33.080443393781586
 31
0.0
  0
LINE
  5
97
330
17
100
AcDbEntity
  8
FoilLayer
100
AcDbLine
 10
-107.21753306912757
 20
33.080443393781586
 30
0.0
 11
-110.5509656450107
 21
32.36478291121183
 31
0.0
  0
LINE
  5
98
330
17
100
AcDbEntity
  8
FoilLayer
100
AcDbLine
 10
-110.5509656450107
 20
32.36478291121183
 30
0.0
 11
-113.81020068018988
 21
31.609228700517814
 31
0.0
  0
LINE
  5
99
330
17
100
AcDbEntity
  8
FoilLayer
100
AcDbLine
 10
-113.81020068018988
 20
31.609228700517814
 30
0.0
 11
-116.98940165024217
 21
30.82918243737324
 31
0.0
  0
LINE
  5
9A
330
17
100
AcDbEntity
  8
FoilLayer
100
AcDbLine
 10
-116.98940165024217
 20
30.82918243737324
 30
0.0
 11
-120.08220713124223
 21
30.039274362452026
 31
0.0
  0
LINE
  5
9B
330
17
100
AcDbEntity
  8
FoilLayer
100
AcDbLine
 10
-120.08220713124223
 20
30.039274362452026
 30
0.0
 11
-123.07890401573262
 21
29.251282232139488
 31
0.0
  0
LINE
  5
9C
330
17
100
AcDbEntity
  8
FoilLayer
100
AcDbLine
 10
-123.07890401573262
 20
29.251282232139488
 30
0.0
 11
-125.96250274470096
 21
28.46804599452611
 31
0.0
  0
LINE
  5
9D
330
17
100
AcDbEntity
  8
FoilLayer
100
AcDbLine
 10
-125.96250274470096
 20
28.46804599452611
 30
0.0
 11
-128.73047507500638
 21
27.668826634602176
 31
0.0
  0
LINE
  5
9E
330
17
100
AcDbEntity
  8
FoilLayer
100
AcDbLine
 10
-128.73047507500638
 20
27.668826634602176
 30
0.0
 11
-131.3773352946368
 21
26.85501119799628
 31
0.0
  0
LINE
  5
9F
330
17
100
AcDbEntity
  8
FoilLayer
100
AcDbLine
 10
-131.3773352946368
 20
26.85501119799628
 30
0.0
 11
-133.90273006897647
 21
26.028363986086703
 31
0.0
  0
LINE
  5
A0
330
17
100
AcDbEntity
  8
FoilLayer
100
AcDbLine
 10
-133.90273006897647
 20
26.028363986086703
 30
0.0
 11
-136.30627990534356
 21
25.19864895718378
 31
0.0
  0
LINE
  5
A1
330
17
100
AcDbEntity
  8
FoilLayer
100
AcDbLine
 10
-136.30627990534356
 20
25.19864895718378
 30
0.0
 11
-138.5881922869401
 21
24.375165758167068
 31
0.0
  0
LINE
  5
A2
330
17
100
AcDbEntity
  8
FoilLayer
100
AcDbLine
 10
-138.5881922869401
 20
24.375165758167068
 30
0.0
 11
-140.74988058072174
 21
23.56448683729979
 31
0.0
  0
LINE
  5
A3
330
17
100
AcDbEntity
  8
FoilLayer
100
AcDbLine
 10
-140.74988058072174
 20
23.56448683729979
 30
0.0
 11
-142.79176115451122
 21
22.77222544493501
 31
0.0
  0
LINE
  5
A4
330
17
100
AcDbEntity
  8
FoilLayer
100
AcDbLine
 10
-142.79176115451122
 20
22.77222544493501
 30
0.0
 11
-144.71796261813049
 21
21.99879361084548
 31
0.0
  0
LINE
  5
A5
330
17
100
AcDbEntity
  8
FoilLayer
100
AcDbLine
 10
-144.71796261813049
 20
21.99879361084548
 30
0.0
 11
-146.52906855850244
 21
21.247579997211453
 31
0.0
  0
LINE
  5
A6
330
17
100
AcDbEntity
  8
FoilLayer
100
AcDbLine
 10
-146.52906855850244
 20
21.247579997211453
 30
0.0
 11
-148.2251809022944
 21
20.515549005059054
 31
0.0
  0
LINE
  5
A7
330
17
100
AcDbEntity
  8
FoilLayer
100
AcDbLine
 10
-148.2251809022944
 20
20.515549005059054
 30
0.0
 11
-149.81424092663403
 21
19.7930556106177
 31
0.0
  0
LINE
  5
A8
330
17
100
AcDbEntity
  8
FoilLayer
100
AcDbLine
 10
-149.81424092663403
 20
19.7930556106177
 30
0.0
 11
-151.307178703985
 21
19.076902994785478
 31
0.0
  0
LINE
  5
A9
330
17
100
AcDbEntity
  8
FoilLayer
100
AcDbLine
 10
-151.307178703985
 20
19.076902994785478
 30
0.0
 11
-152.70933073544887
 21
18.373230808520894
 31
0.0
  0
LINE
  5
AA
330
17
100
AcDbEntity
  8
FoilLayer
100
AcDbLine
 10
-152.70933073544887
 20
18.373230808520894
 30
0.0
 11
-154.02536933634997
 21
17.684648441446942
 31
0.0
  0
LINE
  5
AB
330
17
100
AcDbEntity
  8
FoilLayer
100
AcDbLine
 10
-154.02536933634997
 20
17.684648441446942
 30
0.0
 11
-155.2617619752159
 21
17.0099065031478
 31
0.0
  0
LINE
  5
AC
330
17
100
AcDbEntity
  8
FoilLayer
100
AcDbLine
 10
-155.2617619752159
 20
17.0099065031478
 30
0.0
 11
-156.4251650225337
 21
16.348634313306096
 31
0.0
  0
LINE
  5
AD
330
17
100
AcDbEntity
  8
FoilLayer
100
AcDbLine
 10
-156.4251650225337
 20
16.348634313306096
 30
0.0
 11
-157.52175679654414
 21
15.701455629701083
 31
0.0
  0
LINE
  5
AE
330
17
100
AcDbEntity
  8
FoilLayer
100
AcDbLine
 10
-157.52175679654414
 20
15.701455629701083
 30
0.0
 11
-158.55696247495885
 21
15.069275767312737
 31
0.0
  0
LINE
  5
AF
330
17
100
AcDbEntity
  8
FoilLayer
100
AcDbLine
 10
-158.55696247495885
 20
15.069275767312737
 30
0.0
 11
-159.53276170029903
 21
14.454558964769612
 31
0.0
  0
LINE
  5
B0
330
17
100
AcDbEntity
  8
FoilLayer
100
AcDbLine
 10
-159.53276170029903
 20
14.454558964769612
 30
0.0
 11
-160.45462268013267
 21
13.85375065345875
 31
0.0
  0
LINE
  5
B1
330
17
100
AcDbEntity
  8
FoilLayer
100
AcDbLine
 10
-160.45462268013267
 20
13.85375065345875
 30
0.0
 11
-161.31754143095768
 21
13.27258561611336
 31
0.0
  0
LINE
  5
B2
330
17
100
AcDbEntity
  8
FoilLayer
100
AcDbLine
 10
-161.31754143095768
 20
13.27258561611336
 30
0.0
 11
-162.13391860549726
 21
12.697454284625445
 31
0.0
  0
LINE
  5
B3
330
17
100
AcDbEntity
  8
FoilLayer
100
AcDbLine
 10
-162.13391860549726
 20
12.697454284625445
 30
0.0
 11
-162.9010512533461
 21
12.134715818598428
 31
0.0
  0
LINE
  5
B4
330
17
100
AcDbEntity
  8
FoilLayer
100
AcDbLine
 10
-162.9010512533461
 20
12.134715818598428
 30
0.0
 11
-163.63075730581863
 21
11.573703442706293
 31
0.0
  0
LINE
  5
B5
330
17
100
AcDbEntity
  8
FoilLayer
100
AcDbLine
 10
-163.63075730581863
 20
11.573703442706293
 30
0.0
 11
-164.31378890713867
 21
11.028953135705008
 31
0.0
  0
LINE
  5
B6
330
17
100
AcDbEntity
  8
FoilLayer
100
AcDbLine
 10
-164.31378890713867
 20
11.028953135705008
 30
0.0
 11
-164.96124438315292
 21
10.487303608781891
 31
0.0
  0
LINE
  5
B7
330
17
100
AcDbEntity
  8
FoilLayer
100
AcDbLine
 10
-164.96124438315292
 20
10.487303608781891
 30
0.0
 11
-165.55966370210865
 21
9.966187695831552
 31
0.0
  0
LINE
  5
B8
330
17
100
AcDbEntity
  8
FoilLayer
100
AcDbLine
 10
-165.55966370210865
 20
9.966187695831552
 30
0.0
 11
-166.13629014179264
 21
9.431034528310471
 31
0.0
  0
LINE
  5
B9
330
17
100
AcDbEntity
  8
FoilLayer
100
AcDbLine
 10
-166.13629014179264
 20
9.431034528310471
 30
0.0
 11
-166.67322296484565
 21
8.912551944746951
 31
0.0
  0
LINE
  5
BA
330
17
100
AcDbEntity
  8
FoilLayer
100
AcDbLine
 10
-166.67322296484565
 20
8.912551944746951
 30
0.0
 11
-167.17686729222012
 21
8.399272590110538
 31
0.0
  0
LINE
  5
BB
330
17
100
AcDbEntity
  8
FoilLayer
100
AcDbLine
 10
-167.17686729222012
 20
8.399272590110538
 30
0.0
 11
-167.65013402810527
 21
7.888664128499075
 31
0.0
  0
LINE
  5
BC
330
17
100
AcDbEntity
  8
FoilLayer
100
AcDbLine
 10
-167.65013402810527
 20
7.888664128499075
 30
0.0
 11
-168.09352196552138
 21
7.3828169627723845
 31
0.0
  0
LINE
  5
BD
330
17
100
AcDbEntity
  8
FoilLayer
100
AcDbLine
 10
-168.09352196552138
 20
7.3828169627723845
 30
0.0
 11
-168.5059191505239
 21
6.884642147580396
 31
0.0
  0
LINE
  5
BE
330
17
100
AcDbEntity
  8
FoilLayer
100
AcDbLine
 10
-168.5059191505239
 20
6.884642147580396
 30
0.0
 11
-168.89082169449904
 21
6.38811456520136
 31
0.0
  0
LINE
  5
BF
330
17
100
AcDbEntity
  8
FoilLayer
100
AcDbLine
 10
-168.89082169449904
 20
6.38811456520136
 30
0.0
 11
-169.24705136431075
 21
5.897682329338069
 31
0.0
  0
LINE
  5
C0
330
17
100
AcDbEntity
  8
FoilLayer
100
AcDbLine
 10
-169.24705136431075
 20
5.897682329338069
 30
0.0
 11
-169.57671069733954
 21
5.412061641744275
 31
0.0
  0
LINE
  5
C1
330
17
100
AcDbEntity
  8
FoilLayer
100
AcDbLine
 10
-169.57671069733954
 20
5.412061641744275
 30
0.0
 11
-169.8827280599485
 21
4.9283308619973445
 31
0.0
  0
LINE
  5
C2
330
17
100
AcDbEntity
  8
FoilLayer
100
AcDbLine
 10
-169.8827280599485
 20
4.9283308619973445
 30
0.0
 11
-170.16669861123384
 21
4.4461285633756304
 31
0.0
  0
LINE
  5
C3
330
17
100
AcDbEntity
  8
FoilLayer
100
AcDbLine
 10
-170.16669861123384
 20
4.4461285633756304
 30
0.0
 11
-170.4296023642101
 21
3.96559348465094
 31
0.0
  0
LINE
  5
C4
330
17
100
AcDbEntity
  8
FoilLayer
100
AcDbLine
 10
-170.4296023642101
 20
3.96559348465094
 30
0.0
 11
-170.66386587905708
 21
3.5050100388019487
 31
0.0
  0
LINE
  5
C5
330
17
100
AcDbEntity
  8
FoilLayer
100
AcDbLine
 10
-170.66386587905708
 20
3.5050100388019487
 30
0.0
 11
-170.8633394192557
 21
3.0705233737818176
 31
0.0
  0
LINE
  5
C6
330
17
100
AcDbEntity
  8
FoilLayer
100
AcDbLine
 10
-170.8633394192557
 20
3.0705233737818176
 30
0.0
 11
-171.02386543512884
 21
2.6578694199543325
 31
0.0
  0
LINE
  5
C7
330
17
100
AcDbEntity
  8
FoilLayer
100
AcDbLine
 10
-171.02386543512884
 20
2.6578694199543325
 30
0.0
 11
-171.15209128290448
 21
2.2292634595582874
 31
0.0
  0
LINE
  5
C8
330
17
100
AcDbEntity
  8
FoilLayer
100
AcDbLine
 10
-171.15209128290448
 20
2.2292634595582874
 30
0.0
 11
-171.25342221358042
 21
1.7749781186091982
 31
0.0
  0
LINE
  5
C9
330
17
100
AcDbEntity
  8
FoilLayer
100
AcDbLine
 10
-171.25342221358042
 20
1.7749781186091982
 30
0.0
 11
-171.33423479570575
 21
1.3081517038882782
 31
0.0
  0
LINE
  5
CA
330
17
100
AcDbEntity
  8
FoilLayer
100
AcDbLine
 10
-171.33423479570575
 20
1.3081517038882782
 30
0.0
 11
-171.40216871259736
 21
0.8217236929567384
 31
0.0
  0
LINE
  5
CB
330
17
100
AcDbEntity
  8
FoilLayer
100
AcDbLine
 10
-171.40216871259736
 20
0.8217236929567384
 30
0.0
 11
-171.44933124407058
 21
0.44566742461540004
 31
0.0
  0
LINE
  5
CC
330
17
100
AcDbEntity
  8
FoilLayer
100
AcDbLine
 10
-171.44933124407058
 20
0.44566742461540004
 30
0.0
 11
-171.46874999999955
 21
0.0
 31
0.0
  0
LINE
  5
CD
330
17
100
AcDbEntity
  8
FoilLayer
100
AcDbLine
 10
-171.46874999999955
 20
0.0
 30
0.0
 11
-171.42721260392423
 21
-0.337560768955776
 31
0.0
  0
LINE
  5
CE
330
17
100
AcDbEntity
  8
FoilLayer
100
AcDbLine
 10
-171.42721260392423
 20
-0.337560768955776
 30
0.0
 11
-171.3799732155786
 21
-0.7952777589646791
 31
0.0
  0
LINE
  5
CF
330
17
100
AcDbEntity
  8
FoilLayer
100
AcDbLine
 10
-171.3799732155786
 20
-0.7952777589646791
 30
0.0
 11
-171.32510157180494
 21
-1.2311085469546224
 31
0.0
  0
LINE
  5
D0
330
17
100
AcDbEntity
  8
FoilLayer
100
AcDbLine
 10
-171.32510157180494
 20
-1.2311085469546224
 30
0.0
 11
-171.25201757940536
 21
-1.6483332446626286
 31
0.0
  0
LINE
  5
D1
330
17
100
AcDbEntity
  8
FoilLayer
100
AcDbLine
 10
-171.25201757940536
 20
-1.6483332446626286
 30
0.0
 11
-171.1542339449902
 21
-2.054618652146758
 31
0.0
  0
LINE
  5
D2
330
17
100
AcDbEntity
  8
FoilLayer
100
AcDbLine
 10
-171.1542339449902
 20
-2.054618652146758
 30
0.0
 11
-171.02563475419933
 21
-2.4535970552426054
 31
0.0
  0
LINE
  5
D3
330
17
100
AcDbEntity
  8
FoilLayer
100
AcDbLine
 10
-171.02563475419933
 20
-2.4535970552426054
 30
0.0
 11
-170.8545831449372
 21
-2.8605445784948387
 31
0.0
  0
LINE
  5
D4
330
17
100
AcDbEntity
  8
FoilLayer
100
AcDbLine
 10
-170.8545831449372
 20
-2.8605445784948387
 30
0.0
 11
-170.65377402559648
 21
-3.2549888800401683
 31
0.0
  0
LINE
  5
D5
330
17
100
AcDbEntity
  8
FoilLayer
100
AcDbLine
 10
-170.65377402559648
 20
-3.2549888800401683
 30
0.0
 11
-170.39805805835869
 21
-3.6615794228612706
 31
0.0
  0
LINE
  5
D6
330
17
100
AcDbEntity
  8
FoilLayer
100
AcDbLine
 10
-170.39805805835869
 20
-3.6615794228612706
 30
0.0
 11
-170.106057431908
 21
-4.070572449466219
 31
0.0
  0
LINE
  5
D7
330
17
100
AcDbEntity
  8
FoilLayer
100
AcDbLine
 10
-170.106057431908
 20
-4.070572449466219
 30
0.0
 11
-169.77758953337027
 21
-4.482573100135308
 31
0.0
  0
LINE
  5
D8
330
17
100
AcDbEntity
  8
FoilLayer
100
AcDbLine
 10
-169.77758953337027
 20
-4.482573100135308
 30
0.0
 11
-169.42305825876443
 21
-4.8907849982279314
 31
0.0
  0
LINE
  5
D9
330
17
100
AcDbEntity
  8
FoilLayer
100
AcDbLine
 10
-169.42305825876443
 20
-4.8907849982279314
 30
0.0
 11
-169.0474843671266
 21
-5.289688102276681
 31
0.0
  0
LINE
  5
DA
330
17
100
AcDbEntity
  8
FoilLayer
100
AcDbLine
 10
-169.0474843671266
 20
-5.289688102276681
 30
0.0
 11
-168.63897743389984
 21
-5.684556190883281
 31
0.0
  0
LINE
  5
DB
330
17
100
AcDbEntity
  8
FoilLayer
100
AcDbLine
 10
-168.63897743389984
 20
-5.684556190883281
 30
0.0
 11
-168.197522324031
 21
-6.075268495167588
 31
0.0
  0
LINE
  5
DC
330
17
100
AcDbEntity
  8
FoilLayer
100
AcDbLine
 10
-168.197522324031
 20
-6.075268495167588
 30
0.0
 11
-167.72457974964001
 21
-6.461066471403817
 31
0.0
  0
LINE
  5
DD
330
17
100
AcDbEntity
  8
FoilLayer
100
AcDbLine
 10
-167.72457974964001
 20
-6.461066471403817
 30
0.0
 11
-167.2272733260109
 21
-6.837171986763522
 31
0.0
  0
LINE
  5
DE
330
17
100
AcDbEntity
  8
FoilLayer
100
AcDbLine
 10
-167.2272733260109
 20
-6.837171986763522
 30
0.0
 11
-166.69057484520724
 21
-7.208620576351698
 31
0.0
  0
LINE
  5
DF
330
17
100
AcDbEntity
  8
FoilLayer
100
AcDbLine
 10
-166.69057484520724
 20
-7.208620576351698
 30
0.0
 11
-166.1185563718791
 21
-7.576110582426851
 31
0.0
  0
LINE
  5
E0
330
17
100
AcDbEntity
  8
FoilLayer
100
AcDbLine
 10
-166.1185563718791
 20
-7.576110582426851
 30
0.0
 11
-165.51325846230552
 21
-7.939525010355663
 31
0.0
  0
LINE
  5
E1
330
17
100
AcDbEntity
  8
FoilLayer
100
AcDbLine
 10
-165.51325846230552
 20
-7.939525010355663
 30
0.0
 11
-164.87380025806507
 21
-8.299464210836792
 31
0.0
  0
LINE
  5
E2
330
17
100
AcDbEntity
  8
FoilLayer
100
AcDbLine
 10
-164.87380025806507
 20
-8.299464210836792
 30
0.0
 11
-164.1971217992422
 21
-8.65753365445408
 31
0.0
  0
LINE
  5
E3
330
17
100
AcDbEntity
  8
FoilLayer
100
AcDbLine
 10
-164.1971217992422
 20
-8.65753365445408
 30
0.0
 11
-163.48361302060843
 21
-9.014663593353337
 31
0.0
  0
LINE
  5
E4
330
17
100
AcDbEntity
  8
FoilLayer
100
AcDbLine
 10
-163.48361302060843
 20
-9.014663593353337
 30
0.0
 11
-162.73516683175575
 21
-9.370266051511972
 31
0.0
  0
LINE
  5
E5
330
17
100
AcDbEntity
  8
FoilLayer
100
AcDbLine
 10
-162.73516683175575
 20
-9.370266051511972
 30
0.0
 11
-161.9504776824387
 21
-9.723034290964042
 31
0.0
  0
LINE
  5
E6
330
17
100
AcDbEntity
  8
FoilLayer
100
AcDbLine
 10
-161.9504776824387
 20
-9.723034290964042
 30
0.0
 11
-161.12346654725232
 21
-10.072726314077801
 31
0.0
  0
LINE
  5
E7
330
17
100
AcDbEntity
  8
FoilLayer
100
AcDbLine
 10
-161.12346654725232
 20
-10.072726314077801
 30
0.0
 11
-160.25088186960858
 21
-10.419665496735831
 31
0.0
  0
LINE
  5
E8
330
17
100
AcDbEntity
  8
FoilLayer
100
AcDbLine
 10
-160.25088186960858
 20
-10.419665496735831
 30
0.0
 11
-159.32786996703365
 21
-10.764949551044124
 31
0.0
  0
LINE
  5
E9
330
17
100
AcDbEntity
  8
FoilLayer
100
AcDbLine
 10
-159.32786996703365
 20
-10.764949551044124
 30
0.0
 11
-158.352868465315
 21
-11.109927121239508
 31
0.0
  0
LINE
  5
EA
330
17
100
AcDbEntity
  8
FoilLayer
100
AcDbLine
 10
-158.352868465315
 20
-11.109927121239508
 30
0.0
 11
-157.32416729994998
 21
-11.455421542020643
 31
0.0
  0
LINE
  5
EB
330
17
100
AcDbEntity
  8
FoilLayer
100
AcDbLine
 10
-157.32416729994998
 20
-11.455421542020643
 30
0.0
 11
-156.2382038670116
 21
-11.80174134249461
 31
0.0
  0
LINE
  5
EC
330
17
100
AcDbEntity
  8
FoilLayer
100
AcDbLine
 10
-156.2382038670116
 20
-11.80174134249461
 30
0.0
 11
-155.0912872298934
 21
-12.14861654546892
 31
0.0
  0
LINE
  5
ED
330
17
100
AcDbEntity
  8
FoilLayer
100
AcDbLine
 10
-155.0912872298934
 20
-12.14861654546892
 30
0.0
 11
-153.87913925193877
 21
-12.495018235370015
 31
0.0
  0
LINE
  5
EE
330
17
100
AcDbEntity
  8
FoilLayer
100
AcDbLine
 10
-153.87913925193877
 20
-12.495018235370015
 30
0.0
 11
-152.59625448103705
 21
-12.839360487592357
 31
0.0
  0
LINE
  5
EF
330
17
100
AcDbEntity
  8
FoilLayer
100
AcDbLine
 10
-152.59625448103705
 20
-12.839360487592357
 30
0.0
 11
-151.23591527801486
 21
-13.179816629435706
 31
0.0
  0
LINE
  5
F0
330
17
100
AcDbEntity
  8
FoilLayer
100
AcDbLine
 10
-151.23591527801486
 20
-13.179816629435706
 30
0.0
 11
-149.78889223106222
 21
-13.515191127248263
 31
0.0
  0
LINE
  5
F1
330
17
100
AcDbEntity
  8
FoilLayer
100
AcDbLine
 10
-149.78889223106222
 20
-13.515191127248263
 30
0.0
 11
-148.2416017353462
 21
-13.847739862728417
 31
0.0
  0
LINE
  5
F2
330
17
100
AcDbEntity
  8
FoilLayer
100
AcDbLine
 10
-148.2416017353462
 20
-13.847739862728417
 30
0.0
 11
-146.59493989475257
 21
-14.185316322108154
 31
0.0
  0
LINE
  5
F3
330
17
100
AcDbEntity
  8
FoilLayer
100
AcDbLine
 10
-146.59493989475257
 20
-14.185316322108154
 30
0.0
 11
-144.85429676261506
 21
-14.528884380179127
 31
0.0
  0
LINE
  5
F4
330
17
100
AcDbEntity
  8
FoilLayer
100
AcDbLine
 10
-144.85429676261506
 20
-14.528884380179127
 30
0.0
 11
-143.00199264415875
 21
-14.86877966673275
 31
0.0
  0
LINE
  5
F5
330
17
100
AcDbEntity
  8
FoilLayer
100
AcDbLine
 10
-143.00199264415875
 20
-14.86877966673275
 30
0.0
 11
-141.02789411476763
 21
-15.203585266494217
 31
0.0
  0
LINE
  5
F6
330
17
100
AcDbEntity
  8
FoilLayer
100
AcDbLine
 10
-141.02789411476763
 20
-15.203585266494217
 30
0.0
 11
-138.9304763862031
 21
-15.534130158823816
 31
0.0
  0
LINE
  5
F7
330
17
100
AcDbEntity
  8
FoilLayer
100
AcDbLine
 10
-138.9304763862031
 20
-15.534130158823816
 30
0.0
 11
-136.7024211400725
 21
-15.855302131981912
 31
0.0
  0
LINE
  5
F8
330
17
100
AcDbEntity
  8
FoilLayer
100
AcDbLine
 10
-136.7024211400725
 20
-15.855302131981912
 30
0.0
 11
-134.33660099034444
 21
-16.162449093474372
 31
0.0
  0
LINE
  5
F9
330
17
100
AcDbEntity
  8
FoilLayer
100
AcDbLine
 10
-134.33660099034444
 20
-16.162449093474372
 30
0.0
 11
-131.82604030514165
 21
-16.453586697325566
 31
0.0
  0
LINE
  5
FA
330
17
100
AcDbEntity
  8
FoilLayer
100
AcDbLine
 10
-131.82604030514165
 20
-16.453586697325566
 30
0.0
 11
-129.1601906902394
 21
-16.7338427105385
 31
0.0
  0
LINE
  5
FB
330
17
100
AcDbEntity
  8
FoilLayer
100
AcDbLine
 10
-129.1601906902394
 20
-16.7338427105385
 30
0.0
 11
-126.359535064862
 21
-17.024056250086257
 31
0.0
  0
LINE
  5
FC
330
17
100
AcDbEntity
  8
FoilLayer
100
AcDbLine
 10
-126.359535064862
 20
-17.024056250086257
 30
0.0
 11
-123.42985581238271
 21
-17.314010112211363
 31
0.0
  0
LINE
  5
FD
330
17
100
AcDbEntity
  8
FoilLayer
100
AcDbLine
 10
-123.42985581238271
 20
-17.314010112211363
 30
0.0
 11
-120.36777153324508
 21
-17.58470523340717
 31
0.0
  0
LINE
  5
FE
330
17
100
AcDbEntity
  8
FoilLayer
100
AcDbLine
 10
-120.36777153324508
 20
-17.58470523340717
 30
0.0
 11
-117.17458319676513
 21
-17.82798603741178
 31
0.0
  0
LINE
  5
FF
330
17
100
AcDbEntity
  8
FoilLayer
100
AcDbLine
 10
-117.17458319676513
 20
-17.82798603741178
 30
0.0
 11
-113.85851849711551
 21
-18.044791898794973
 31
0.0
  0
LINE
  5
100
330
17
100
AcDbEntity
  8
FoilLayer
100
AcDbLine
 10
-113.85851849711551
 20
-18.044791898794973
 30
0.0
 11
-110.42989845608925
 21
-18.236337258431746
 31
0.0
  0
LINE
  5
101
330
17
100
AcDbEntity
  8
FoilLayer
100
AcDbLine
 10
-110.42989845608925
 20
-18.236337258431746
 30
0.0
 11
-106.88525732445306
 21
-18.401641931434483
 31
0.0
  0
LINE
  5
102
330
17
100
AcDbEntity
  8
FoilLayer
100
AcDbLine
 10
-106.88525732445306
 20
-18.401641931434483
 30
0.0
 11
-103.25214739388703
 21
-18.57061859333552
 31
0.0
  0
LINE
  5
103
330
17
100
AcDbEntity
  8
FoilLayer
100
AcDbLine
 10
-103.25214739388703
 20
-18.57061859333552
 30
0.0
 11
-99.54510893575495
 21
-18.734040904740336
 31
0.0
  0
LINE
  5
104
330
17
100
AcDbEntity
  8
FoilLayer
100
AcDbLine
 10
-99.54510893575495
 20
-18.734040904740336
 30
0.0
 11
-95.7645507010632
 21
-18.868518333248097
 31
0.0
  0
LINE
  5
105
330
17
100
AcDbEntity
  8
FoilLayer
100
AcDbLine
 10
-95.7645507010632
 20
-18.868518333248097
 30
0.0
 11
-91.91487286441713
 21
-18.968756597343386
 31
0.0
  0
LINE
  5
106
330
17
100
AcDbEntity
  8
FoilLayer
100
AcDbLine
 10
-91.91487286441713
 20
-18.968756597343386
 30
0.0
 11
-88.0039443373239
 21
-19.03857708925814
 31
0.0
  0
LINE
  5
107
330
17
100
AcDbEntity
  8
FoilLayer
100
AcDbLine
 10
-88.0039443373239
 20
-19.03857708925814
 30
0.0
 11
-84.03389968650968
 21
-19.081338768467912
 31
0.0
  0
LINE
  5
108
330
17
100
AcDbEntity
  8
FoilLayer
100
AcDbLine
 10
-84.03389968650968
 20
-19.081338768467912
 30
0.0
 11
-80.70722471709851
 21
-19.106900109219374
 31
0.0
  0
LINE
  5
109
330
17
100
AcDbEntity
  8
FoilLayer
100
AcDbLine
 10
-80.70722471709851
 20
-19.106900109219374
 30
0.0
 11
-80.7152924151294
 21
-20.156869114594524
 31
0.0
  0
LINE
  5
10A
330
17
100
AcDbEntity
  8
FoilLayer
100
AcDbLine
 10
-80.7152924151294
 20
-20.156869114594524
 30
0.0
 11
-80.01963863856771
 21
-20.16221446699398
 31
0.0
  0
LINE
  5
10B
330
17
100
AcDbEntity
  8
FoilLayer
100
AcDbLine
 10
-80.01963863856771
 20
-20.16221446699398
 30
0.0
 11
-75.95754584780857
 21
-20.196426530946418
 31
0.0
  0
LINE
  5
10C
330
17
100
AcDbEntity
  8
FoilLayer
100
AcDbLine
 10
-75.95754584780857
 20
-20.196426530946418
 30
0.0
 11
-71.8578742414843
 21
-20.211323498229905
 31
0.0
  0
LINE
  5
10D
330
17
100
AcDbEntity
  8
FoilLayer
100
AcDbLine
 10
-71.8578742414843
 20
-20.211323498229905
 30
0.0
 11
-67.7236964943134
 21
-20.200915010055343
 31
0.0
  0
LINE
  5
10E
330
17
100
AcDbEntity
  8
FoilLayer
100
AcDbLine
 10
-67.7236964943134
 20
-20.200915010055343
 30
0.0
 11
-63.55723217881253
 21
-20.164401851215086
 31
0.0
  0
LINE
  5
10F
330
17
100
AcDbEntity
  8
FoilLayer
100
AcDbLine
 10
-63.55723217881253
 20
-20.164401851215086
 30
0.0
 11
-59.361131443258884
 21
-20.111732931527147
 31
0.0
  0
LINE
  5
110
330
17
100
AcDbEntity
  8
FoilLayer
100
AcDbLine
 10
-59.361131443258884
 20
-20.111732931527147
 30
0.0
 11
-55.13857956976787
 21
-20.05421772837511
 31
0.0
  0
LINE
  5
111
330
17
100
AcDbEntity
  8
FoilLayer
100
AcDbLine
 10
-55.13857956976787
 20
-20.05421772837511
 30
0.0
 11
-50.892405044795055
 21
-19.994219482134632
 31
0.0
  0
LINE
  5
112
330
17
100
AcDbEntity
  8
FoilLayer
100
AcDbLine
 10
-50.892405044795055
 20
-19.994219482134632
 30
0.0
 11
-46.62506255304909
 21
-19.927000487370666
 31
0.0
  0
LINE
  5
113
330
17
100
AcDbEntity
  8
FoilLayer
100
AcDbLine
 10
-46.62506255304909
 20
-19.927000487370666
 30
0.0
 11
-42.33744600789976
 21
-19.84235706278614
 31
0.0
  0
LINE
  5
114
330
17
100
AcDbEntity
  8
FoilLayer
100
AcDbLine
 10
-42.33744600789976
 20
-19.84235706278614
 30
0.0
 11
-38.03036453149977
 21
-19.7386120710336
 31
0.0
  0
LINE
  5
115
330
17
100
AcDbEntity
  8
FoilLayer
100
AcDbLine
 10
-38.03036453149977
 20
-19.7386120710336
 30
0.0
 11
-33.70555936177499
 21
-19.620523577312888
 31
0.0
  0
LINE
  5
116
330
17
100
AcDbEntity
  8
FoilLayer
100
AcDbLine
 10
-33.70555936177499
 20
-19.620523577312888
 30
0.0
 11
-29.36361385209699
 21
-19.488993226645597
 31
0.0
  0
LINE
  5
117
330
17
100
AcDbEntity
  8
FoilLayer
100
AcDbLine
 10
-29.36361385209699
 20
-19.488993226645597
 30
0.0
 11
-25.00615715545385
 21
-19.350950568482
 31
0.0
  0
LINE
  5
118
330
17
100
AcDbEntity
  8
FoilLayer
100
AcDbLine
 10
-25.00615715545385
 20
-19.350950568482
 30
0.0
 11
-20.634787108836946
 21
-19.209224836655064
 31
0.0
  0
LINE
  5
119
330
17
100
AcDbEntity
  8
FoilLayer
100
AcDbLine
 10
-20.634787108836946
 20
-19.209224836655064
 30
0.0
 11
-16.25096965586448
 21
-19.061882385651973
 31
0.0
  0
LINE
  5
11A
330
17
100
AcDbEntity
  8
FoilLayer
100
AcDbLine
 10
-16.25096965586448
 20
-19.061882385651973
 30
0.0
 11
-11.855464072966782
 21
-18.906147632292257
 31
0.0
  0
LINE
  5
11B
330
17
100
AcDbEntity
  8
FoilLayer
100
AcDbLine
 10
-11.855464072966782
 20
-18.906147632292257
 30
0.0
 11
-7.449310939101139
 21
-18.741743184329025
 31
0.0
  0
LINE
  5
11C
330
17
100
AcDbEntity
  8
FoilLayer
100
AcDbLine
 10
-7.449310939101139
 20
-18.741743184329025
 30
0.0
 11
-3.0340893399305457
 21
-18.568615849557677
 31
0.0
  0
LINE
  5
11D
330
17
100
AcDbEntity
  8
FoilLayer
100
AcDbLine
 10
-3.0340893399305457
 20
-18.568615849557677
 30
0.0
 11
1.387387596916625
 21
-18.388483164454666
 31
0.0
  0
LINE
  5
11E
330
17
100
AcDbEntity
  8
FoilLayer
100
AcDbLine
 10
1.387387596916625
 20
-18.388483164454666
 30
0.0
 11
5.811889549485215
 21
-18.200377149906437
 31
0.0
  0
LINE
  5
11F
330
17
100
AcDbEntity
  8
FoilLayer
100
AcDbLine
 10
5.811889549485215
 20
-18.200377149906437
 30
0.0
 11
10.235625440351498
 21
-18.003352913243823
 31
0.0
  0
LINE
  5
120
330
17
100
AcDbEntity
  8
FoilLayer
100
AcDbLine
 10
10.235625440351498
 20
-18.003352913243823
 30
0.0
 11
14.654342200794645
 21
-17.801422455461577
 31
0.0
  0
LINE
  5
121
330
17
100
AcDbEntity
  8
FoilLayer
100
AcDbLine
 10
14.654342200794645
 20
-17.801422455461577
 30
0.0
 11
19.065389864797908
 21
-17.598433869214553
 31
0.0
  0
LINE
  5
122
330
17
100
AcDbEntity
  8
FoilLayer
100
AcDbLine
 10
19.065389864797908
 20
-17.598433869214553
 30
0.0
 11
23.470000463337215
 21
-17.393761841408416
 31
0.0
  0
LINE
  5
123
330
17
100
AcDbEntity
  8
FoilLayer
100
AcDbLine
 10
23.470000463337215
 20
-17.393761841408416
 30
0.0
 11
27.873359234185813
 21
-17.1823893448512
 31
0.0
  0
LINE
  5
124
330
17
100
AcDbEntity
  8
FoilLayer
100
AcDbLine
 10
27.873359234185813
 20
-17.1823893448512
 30
0.0
 11
32.28062312240911
 21
-16.95765032300046
 31
0.0
  0
LINE
  5
125
330
17
100
AcDbEntity
  8
FoilLayer
100
AcDbLine
 10
32.28062312240911
 20
-16.95765032300046
 30
0.0
 11
36.6945208646348
 21
-16.71830417653875
 31
0.0
  0
LINE
  5
126
330
17
100
AcDbEntity
  8
FoilLayer
100
AcDbLine
 10
36.6945208646348
 20
-16.71830417653875
 30
0.0
 11
41.11482997886574
 21
-16.470607090140085
 31
0.0
  0
LINE
  5
127
330
17
100
AcDbEntity
  8
FoilLayer
100
AcDbLine
 10
41.11482997886574
 20
-16.470607090140085
 30
0.0
 11
45.54057264802955
 21
-16.223251525190697
 31
0.0
  0
LINE
  5
128
330
17
100
AcDbEntity
  8
FoilLayer
100
AcDbLine
 10
45.54057264802955
 20
-16.223251525190697
 30
0.0
 11
49.9706144099641
 21
-15.981227945250659
 31
0.0
  0
LINE
  5
129
330
17
100
AcDbEntity
  8
FoilLayer
100
AcDbLine
 10
49.9706144099641
 20
-15.981227945250659
 30
0.0
 11
54.40432320862354
 21
-15.739654683780179
 31
0.0
  0
LINE
  5
12A
330
17
100
AcDbEntity
  8
FoilLayer
100
AcDbLine
 10
54.40432320862354
 20
-15.739654683780179
 30
0.0
 11
58.84222542495101
 21
-15.484109239336288
 31
0.0
  0
LINE
  5
12B
330
17
100
AcDbEntity
  8
FoilLayer
100
AcDbLine
 10
58.84222542495101
 20
-15.484109239336288
 30
0.0
 11
63.28546604798544
 21
-15.207114583671292
 31
0.0
  0
LINE
  5
12C
330
17
100
AcDbEntity
  8
FoilLayer
100
AcDbLine
 10
63.28546604798544
 20
-15.207114583671292
 30
0.0
 11
67.73478097619108
 21
-14.91715452642463
 31
0.0
  0
LINE
  5
12D
330
17
100
AcDbEntity
  8
FoilLayer
100
AcDbLine
 10
67.73478097619108
 20
-14.91715452642463
 30
0.0
 11
72.19013207196349
 21
-14.629221071652982
 31
0.0
  0
LINE
  5
12E
330
17
100
AcDbEntity
  8
FoilLayer
100
AcDbLine
 10
72.19013207196349
 20
-14.629221071652982
 30
0.0
 11
76.65079278319769
 21
-14.351122676073807
 31
0.0
  0
LINE
  5
12F
330
17
100
AcDbEntity
  8
FoilLayer
100
AcDbLine
 10
76.65079278319769
 20
-14.351122676073807
 30
0.0
 11
81.11485658593315
 21
-14.08166563165879
 31
0.0
  0
LINE
  5
130
330
17
100
AcDbEntity
  8
FoilLayer
100
AcDbLine
 10
81.11485658593315
 20
-14.08166563165879
 30
0.0
 11
85.58099843022393
 21
-13.803353911833032
 31
0.0
  0
LINE
  5
131
330
17
100
AcDbEntity
  8
FoilLayer
100
AcDbLine
 10
85.58099843022393
 20
-13.803353911833032
 30
0.0
 11
90.05043455354524
 21
-13.49535670002248
 31
0.0
  0
LINE
  5
132
330
17
100
AcDbEntity
  8
FoilLayer
100
AcDbLine
 10
90.05043455354524
 20
-13.49535670002248
 30
0.0
 11
94.52509960532609
 21
-13.163648968850136
 31
0.0
  0
LINE
  5
133
330
17
100
AcDbEntity
  8
FoilLayer
100
AcDbLine
 10
94.52509960532609
 20
-13.163648968850136
 30
0.0
 11
99.00552514167373
 21
-12.834228678218015
 31
0.0
  0
LINE
  5
134
330
17
100
AcDbEntity
  8
FoilLayer
100
AcDbLine
 10
99.00552514167373
 20
-12.834228678218015
 30
0.0
 11
103.49037794286846
 21
-12.52289056371161
 31
0.0
  0
LINE
  5
135
330
17
100
AcDbEntity
  8
FoilLayer
100
AcDbLine
 10
103.49037794286846
 20
-12.52289056371161
 30
0.0
 11
107.97786297496856
 21
-12.223746578603118
 31
0.0
  0
LINE
  5
136
330
17
100
AcDbEntity
  8
FoilLayer
100
AcDbLine
 10
107.97786297496856
 20
-12.223746578603118
 30
0.0
 11
112.46611876586064
 21
-11.920757983012532
 31
0.0
  0
LINE
  5
137
330
17
100
AcDbEntity
  8
FoilLayer
100
AcDbLine
 10
112.46611876586064
 20
-11.920757983012532
 30
0.0
 11
116.95563232107071
 21
-11.590099011477674
 31
0.0
  0
LINE
  5
138
330
17
100
AcDbEntity
  8
FoilLayer
100
AcDbLine
 10
116.95563232107071
 20
-11.590099011477674
 30
0.0
 11
121.44925846202995
 21
-11.2330024599535
 31
0.0
  0
LINE
  5
139
330
17
100
AcDbEntity
  8
FoilLayer
100
AcDbLine
 10
121.44925846202995
 20
-11.2330024599535
 30
0.0
 11
125.94672754072025
 21
-10.880688700015579
 31
0.0
  0
LINE
  5
13A
330
17
100
AcDbEntity
  8
FoilLayer
100
AcDbLine
 10
125.94672754072025
 20
-10.880688700015579
 30
0.0
 11
130.4476993179967
 21
-10.541247938155294
 31
0.0
  0
LINE
  5
13B
330
17
100
AcDbEntity
  8
FoilLayer
100
AcDbLine
 10
130.4476993179967
 20
-10.541247938155294
 30
0.0
 11
134.95102790856322
 21
-10.214744785093956
 31
0.0
  0
LINE
  5
13C
330
17
100
AcDbEntity
  8
FoilLayer
100
AcDbLine
 10
134.95102790856322
 20
-10.214744785093956
 30
0.0
 11
139.45453521635454
 21
-9.892084191113456
 31
0.0
  0
LINE
  5
13D
330
17
100
AcDbEntity
  8
FoilLayer
100
AcDbLine
 10
139.45453521635454
 20
-9.892084191113456
 30
0.0
 11
143.95759015984095
 21
-9.552317461286961
 31
0.0
  0
LINE
  5
13E
330
17
100
AcDbEntity
  8
FoilLayer
100
AcDbLine
 10
143.95759015984095
 20
-9.552317461286961
 30
0.0
 11
148.46305271451655
 21
-9.18362373957676
 31
0.0
  0
LINE
  5
13F
330
17
100
AcDbEntity
  8
FoilLayer
100
AcDbLine
 10
148.46305271451655
 20
-9.18362373957676
 30
0.0
 11
152.97145919392722
 21
-8.816346375890967
 31
0.0
  0
LINE
  5
140
330
17
100
AcDbEntity
  8
FoilLayer
100
AcDbLine
 10
152.97145919392722
 20
-8.816346375890967
 30
0.0
 11
157.4818259930774
 21
-8.46401600018599
 31
0.0
  0
LINE
  5
141
330
17
100
AcDbEntity
  8
FoilLayer
100
AcDbLine
 10
157.4818259930774
 20
-8.46401600018599
 30
0.0
 11
161.9943017896565
 21
-8.120794116065072
 31
0.0
  0
LINE
  5
142
330
17
100
AcDbEntity
  8
FoilLayer
100
AcDbLine
 10
161.9943017896565
 20
-8.120794116065072
 30
0.0
 11
166.50765275008405
 21
-7.790375763425528
 31
0.0
  0
LINE
  5
143
330
17
100
AcDbEntity
  8
FoilLayer
100
AcDbLine
 10
166.50765275008405
 20
-7.790375763425528
 30
0.0
 11
171.019181212984
 21
-7.463157848267546
 31
0.0
  0
LINE
  5
144
330
17
100
AcDbEntity
  8
FoilLayer
100
AcDbLine
 10
171.019181212984
 20
-7.463157848267546
 30
0.0
 11
175.5302328999485
 21
-7.111747127120536
 31
0.0
  0
LINE
  5
145
330
17
100
AcDbEntity
  8
FoilLayer
100
AcDbLine
 10
175.5302328999485
 20
-7.111747127120536
 30
0.0
 11
180.04289493731807
 21
-6.746070169029918
 31
0.0
  0
LINE
  5
146
330
17
100
AcDbEntity
  8
FoilLayer
100
AcDbLine
 10
180.04289493731807
 20
-6.746070169029918
 30
0.0
 11
184.55609133624296
 21
-6.391385744146885
 31
0.0
  0
LINE
  5
147
330
17
100
AcDbEntity
  8
FoilLayer
100
AcDbLine
 10
184.55609133624296
 20
-6.391385744146885
 30
0.0
 11
189.06951309441655
 21
-6.046120117965094
 31
0.0
  0
LINE
  5
148
330
17
100
AcDbEntity
  8
FoilLayer
100
AcDbLine
 10
189.06951309441655
 20
-6.046120117965094
 30
0.0
 11
193.58349930318104
 21
-5.709259592774615
 31
0.0
  0
LINE
  5
149
330
17
100
AcDbEntity
  8
FoilLayer
100
AcDbLine
 10
193.58349930318104
 20
-5.709259592774615
 30
0.0
 11
198.0947076820545
 21
-5.386280904202427
 31
0.0
  0
LINE
  5
14A
330
17
100
AcDbEntity
  8
FoilLayer
100
AcDbLine
 10
198.0947076820545
 20
-5.386280904202427
 30
0.0
 11
202.60244804232389
 21
-5.051962887813555
 31
0.0
  0
LINE
  5
14B
330
17
100
AcDbEntity
  8
FoilLayer
100
AcDbLine
 10
202.60244804232389
 20
-5.051962887813555
 30
0.0
 11
207.1085250550476
 21
-4.69956134912156
 31
0.0
  0
LINE
  5
14C
330
17
100
AcDbEntity
  8
FoilLayer
100
AcDbLine
 10
207.1085250550476
 20
-4.69956134912156
 30
0.0
 11
211.6120590015766
 21
-4.353820191400013
 31
0.0
  0
LINE
  5
14D
330
17
100
AcDbEntity
  8
FoilLayer
100
AcDbLine
 10
211.6120590015766
 20
-4.353820191400013
 30
0.0
 11
216.1111547422111
 21
-4.025036376247114
 31
0.0
  0
LINE
  5
14E
330
17
100
AcDbEntity
  8
FoilLayer
100
AcDbLine
 10
216.1111547422111
 20
-4.025036376247114
 30
0.0
 11
220.603697123271
 21
-3.709962125944799
 31
0.0
  0
LINE
  5
14F
330
17
100
AcDbEntity
  8
FoilLayer
100
AcDbLine
 10
220.603697123271
 20
-3.709962125944799
 30
0.0
 11
225.0861732850231
 21
-3.4078246152038583
 31
0.0
  0
LINE
  5
150
330
17
100
AcDbEntity
  8
FoilLayer
100
AcDbLine
 10
225.0861732850231
 20
-3.4078246152038583
 30
0.0
 11
229.55495693762282
 21
-3.1090081084142356
 31
0.0
  0
LINE
  5
151
330
17
100
AcDbEntity
  8
FoilLayer
100
AcDbLine
 10
229.55495693762282
 20
-3.1090081084142356
 30
0.0
 11
234.0067061475894
 21
-2.8068954860031012
 31
0.0
  0
LINE
  5
152
330
17
100
AcDbEntity
  8
FoilLayer
100
AcDbLine
 10
234.0067061475894
 20
-2.8068954860031012
 30
0.0
 11
238.43547544764863
 21
-2.5118457177661466
 31
0.0
  0
LINE
  5
153
330
17
100
AcDbEntity
  8
FoilLayer
100
AcDbLine
 10
238.43547544764863
 20
-2.5118457177661466
 30
0.0
 11
242.8316622964045
 21
-2.23068081451546
 31
0.0
  0
LINE
  5
154
330
17
100
AcDbEntity
  8
FoilLayer
100
AcDbLine
 10
242.8316622964045
 20
-2.23068081451546
 30
0.0
 11
247.1855938824309
 21
-1.956909020767292
 31
0.0
  0
LINE
  5
155
330
17
100
AcDbEntity
  8
FoilLayer
100
AcDbLine
 10
247.1855938824309
 20
-1.956909020767292
 30
0.0
 11
251.48414908773543
 21
-1.6965286071121324
 31
0.0
  0
LINE
  5
156
330
17
100
AcDbEntity
  8
FoilLayer
100
AcDbLine
 10
251.48414908773543
 20
-1.6965286071121324
 30
0.0
 11
255.70637071577949
 21
-1.463726391999025
 31
0.0
  0
LINE
  5
157
330
17
100
AcDbEntity
  8
FoilLayer
100
AcDbLine
 10
255.70637071577949
 20
-1.463726391999025
 30
0.0
 11
259.8328797879104
 21
-1.237423003095894
 31
0.0
  0
LINE
  5
158
330
17
100
AcDbEntity
  8
FoilLayer
100
AcDbLine
 10
259.8328797879104
 20
-1.237423003095894
 30
0.0
 11
263.8391313447518
 21
-1.019704491205741
 31
0.0
  0
LINE
  5
159
330
17
100
AcDbEntity
  8
FoilLayer
100
AcDbLine
 10
263.8391313447518
 20
-1.019704491205741
 30
0.0
 11
267.7008374796065
 21
-0.8108936236921985
 31
0.0
  0
LINE
  5
15A
330
17
100
AcDbEntity
  8
FoilLayer
100
AcDbLine
 10
267.7008374796065
 20
-0.8108936236921985
 30
0.0
 11
271.39022662714615
 21
-0.6261670486136066
 31
0.0
  0
LINE
  5
15B
330
17
100
AcDbEntity
  8
FoilLayer
100
AcDbLine
 10
271.39022662714615
 20
-0.6261670486136066
 30
0.0
 11
274.8819432224333
 21
-0.4653601623110001
 31
0.0
  0
LINE
  5
15C
330
17
100
AcDbEntity
  8
FoilLayer
100
AcDbLine
 10
274.8819432224333
 20
-0.4653601623110001
 30
0.0
 11
278.1596554311726
 21
-0.31660178865158983
 31
0.0
  0
LINE
  5
15D
330
17
100
AcDbEntity
  8
FoilLayer
100
AcDbLine
 10
278.1596554311726
 20
-0.31660178865158983
 30
0.0
 11
281.21502749922695
 21
-0.17852924514458135
 31
0.0
  0
LINE
  5
15E
330
17
100
AcDbEntity
  8
FoilLayer
100
AcDbLine
 10
281.21502749922695
 20
-0.17852924514458135
 30
0.0
 11
284.0442435013647
 21
-0.06014333620393342
 31
0.0
  0
LINE
  5
15F
330
17
100
AcDbEntity
  8
FoilLayer
100
AcDbLine
 10
284.0442435013647
 20
-0.06014333620393342
 30
0.0
 11
286.6485402043673
 21
0.038002858416168295
 31
0.0
  0
LINE
  5
160
330
17
100
AcDbEntity
  8
FoilLayer
100
AcDbLine
 10
286.6485402043673
 20
0.038002858416168295
 30
0.0
 11
288.26532793209924
 21
0.09524448714250094
 31
0.0
  0
LINE
  5
161
330
17
100
AcDbEntity
  8
FoilLayer
100
AcDbLine
 10
288.26532793209924
 20
0.09524448714250094
 30
0.0
 11
288.1872841227686
 21
-0.08562595145343871
 31
0.0
  0
LINE
  5
162
330
17
100
AcDbEntity
  8
StringerLayer
100
AcDbLine
 10
124.04767661365088
 20
26.533118371438484
 30
0.0
 11
128.0031529493225
 21
25.937965485247204
 31
0.0
  0
LINE
  5
163
330
17
100
AcDbEntity
  8
StringerLayer
100
AcDbLine
 10
128.0031529493225
 20
25.937965485247204
 30
0.0
 11
128.59830583551377
 21
29.893441820918824
 31
0.0
  0
LINE
  5
164
330
17
100
AcDbEntity
  8
StringerLayer
100
AcDbLine
 10
128.59830583551377
 20
29.893441820918824
 30
0.0
 11
124.64282949984215
 21
30.488594707110103
 31
0.0
  0
LINE
  5
165
330
17
100
AcDbEntity
  8
StringerLayer
100
AcDbLine
 10
124.64282949984215
 20
30.488594707110103
 30
0.0
 11
124.04767661365088
 21
26.533118371438484
 31
0.0
  0
LINE
  5
166
330
17
100
AcDbEntity
  8
StringerLayer
100
AcDbLine
 10
-50.08269933281963
 20
36.34612135891744
 30
0.0
 11
-46.09055918426323
 21
36.59675462543268
 31
0.0
  0
LINE
  5
167
330
17
100
AcDbEntity
  8
StringerLayer
100
AcDbLine
 10
-46.09055918426323
 20
36.59675462543268
 30
0.0
 11
-46.34119245077846
 21
40.58889477398908
 31
0.0
  0
LINE
  5
168
330
17
100
AcDbEntity
  8
StringerLayer
100
AcDbLine
 10
-46.34119245077846
 20
40.58889477398908
 30
0.0
 11
-50.33333259933486
 21
40.338261507473845
 31
0.0
  0
LINE
  5
169
330
17
100
AcDbEntity
  8
StringerLayer
100
AcDbLine
 10
-50.33333259933486
 20
40.338261507473845
 30
0.0
 11
-50.08269933281963
 21
36.34612135891744
 31
0.0
  0
LINE
  5
16A
330
17
100
AcDbEntity
  8
StringerLayer
100
AcDbLine
 10
-127.23907226835657
 20
23.93585032836214
 30
0.0
 11
-123.39614671920222
 21
25.045770696522336
 31
0.0
  0
LINE
  5
16B
330
17
100
AcDbEntity
  8
StringerLayer
100
AcDbLine
 10
-123.39614671920222
 20
25.045770696522336
 30
0.0
 11
-124.50606708736241
 21
28.88869624567667
 31
0.0
  0
LINE
  5
16C
330
17
100
AcDbEntity
  8
StringerLayer
100
AcDbLine
 10
-124.50606708736241
 20
28.88869624567667
 30
0.0
 11
-128.34899263651675
 21
27.778775877516473
 31
0.0
  0
LINE
  5
16D
330
17
100
AcDbEntity
  8
StringerLayer
100
AcDbLine
 10
-128.34899263651675
 20
27.778775877516473
 30
0.0
 11
-127.23907226835657
 21
23.93585032836214
 31
0.0
  0
LINE
  5
16E
330
17
100
AcDbEntity
  8
StringerLayer
100
AcDbLine
 10
-163.18779155081197
 20
6.726206337159031
 30
0.0
 11
-161.6807217146181
 21
8.041022107080686
 31
0.0
  0
LINE
  5
16F
330
17
100
AcDbEntity
  8
StringerLayer
100
AcDbLine
 10
-161.6807217146181
 20
8.041022107080686
 30
0.0
 11
-164.3103532544614
 21
11.055161779468365
 31
0.0
  0
LINE
  5
170
330
17
100
AcDbEntity
  8
StringerLayer
100
AcDbLine
 10
-164.3103532544614
 20
11.055161779468365
 30
0.0
 11
-165.81742309065527
 21
9.74034600954671
 31
0.0
  0
LINE
  5
171
330
17
100
AcDbEntity
  8
StringerLayer
100
AcDbLine
 10
-165.81742309065527
 20
9.74034600954671
 30
0.0
 11
-163.18779155081197
 21
6.726206337159031
 31
0.0
  0
LINE
  5
172
330
17
100
AcDbEntity
  8
StringerLayer
100
AcDbLine
 10
-164.24884343307605
 20
-4.071143557409315
 30
0.0
 11
-165.8464990070866
 21
-2.86802400107542
 31
0.0
  0
LINE
  5
173
330
17
100
AcDbEntity
  8
StringerLayer
100
AcDbLine
 10
-165.8464990070866
 20
-2.86802400107542
 30
0.0
 11
-168.2527381197544
 21
-6.0633351490964875
 31
0.0
  0
LINE
  5
174
330
17
100
AcDbEntity
  8
StringerLayer
100
AcDbLine
 10
-168.2527381197544
 20
-6.0633351490964875
 30
0.0
 11
-166.65508254574385
 21
-7.266454705430383
 31
0.0
  0
LINE
  5
175
330
17
100
AcDbEntity
  8
StringerLayer
100
AcDbLine
 10
-166.65508254574385
 20
-7.266454705430383
 30
0.0
 11
-164.24884343307605
 21
-4.071143557409315
 31
0.0
  0
LINE
  5
176
330
17
100
AcDbEntity
  8
StringerLayer
100
AcDbLine
 10
-101.52788644174039
 20
-14.646483917276665
 30
0.0
 11
-105.523567278437
 21
-14.46064890643228
 31
0.0
  0
LINE
  5
177
330
17
100
AcDbEntity
  8
StringerLayer
100
AcDbLine
 10
-105.523567278437
 20
-14.46064890643228
 30
0.0
 11
-105.70940228928139
 21
-18.456329743128883
 31
0.0
  0
LINE
  5
178
330
17
100
AcDbEntity
  8
StringerLayer
100
AcDbLine
 10
-105.70940228928139
 20
-18.456329743128883
 30
0.0
 11
-101.71372145258478
 21
-18.64216475397327
 31
0.0
  0
LINE
  5
179
330
17
100
AcDbEntity
  8
StringerLayer
100
AcDbLine
 10
-101.71372145258478
 20
-18.64216475397327
 30
0.0
 11
-101.52788644174039
 21
-14.646483917276665
 31
0.0
  0
LINE
  5
17A
330
17
100
AcDbEntity
  8
SubLayer
100
AcDbLine
 10
-172.96874999999955
 20
0.0
 30
0.0
 11
-168.96874999999955
 21
0.0
 31
0.0
  0
LINE
  5
17B
330
17
100
AcDbEntity
  8
SubLayer
100
AcDbLine
 10
32.593749999999915
 20
0.0
 30
0.0
 11
41.206249999999926
 21
0.0
 31
0.0
  0
LINE
  5
17C
330
17
100
AcDbEntity
  8
SubLayer
100
AcDbLine
 10
-24.3225734265809
 20
10.814467772360032
 30
0.0
 11
-16.331912369020728
 21
11.20090775889266
 31
0.0
  0
LINE
  5
17D
330
17
100
AcDbEntity
  8
SubLayer
100
AcDbLine
 10
16.331912369020728
 20
12.780577813841395
 30
0.0
 11
24.3225734265809
 21
13.167017800374023
 31
0.0
  0
LINE
  5
17E
330
17
100
AcDbEntity
  8
SubLayer
100
AcDbLine
 10
-1.059763358067408
 20
33.90413190409353
 30
0.0
 11
-0.6733233715347814
 21
25.913470846533357
 31
0.0
  0
LINE
  5
17F
330
17
100
AcDbEntity
  8
SubLayer
100
AcDbLine
 10
1.059763358067408
 20
-9.922646331359475
 30
0.0
 11
0.6733233715347814
 21
-1.9319852737993006
 31
0.0
  0
LINE
  5
180
330
17
100
AcDbEntity
  8
SubLayer
100
AcDbLine
 10
-22.228298165557703
 20
8.913412504603148
 30
0.0
 11
-18.232967636777616
 21
9.10663249786946
 31
0.0
  0
LINE
  5
181
330
17
100
AcDbEntity
  8
SubLayer
100
AcDbLine
 10
-18.232967636777616
 20
9.10663249786946
 30
0.0
 11
-18.426187630043927
 21
13.101963026649546
 31
0.0
  0
LINE
  5
182
330
17
100
AcDbEntity
  8
SubLayer
100
AcDbLine
 10
-18.426187630043927
 20
13.101963026649546
 30
0.0
 11
-22.421518158824014
 21
12.908743033383233
 31
0.0
  0
LINE
  5
183
330
17
100
AcDbEntity
  8
SubLayer
100
AcDbLine
 10
-22.421518158824014
 20
12.908743033383233
 30
0.0
 11
-22.228298165557703
 21
8.913412504603148
 31
0.0
  0
LINE
  5
184
330
17
100
AcDbEntity
  8
SubLayer
100
AcDbLine
 10
18.426187630043927
 20
10.879522546084509
 30
0.0
 11
22.421518158824014
 21
11.072742539350822
 31
0.0
  0
LINE
  5
185
330
17
100
AcDbEntity
  8
SubLayer
100
AcDbLine
 10
22.421518158824014
 20
11.072742539350822
 30
0.0
 11
22.228298165557703
 21
15.068073068130907
 31
0.0
  0
LINE
  5
186
330
17
100
AcDbEntity
  8
SubLayer
100
AcDbLine
 10
22.228298165557703
 20
15.068073068130907
 30
0.0
 11
18.232967636777616
 21
14.874853074864594
 31
0.0
  0
LINE
  5
187
330
17
100
AcDbEntity
  8
SubLayer
100
AcDbLine
 10
18.232967636777616
 20
14.874853074864594
 30
0.0
 11
18.426187630043927
 21
10.879522546084509
 31
0.0
  0
LINE
  5
188
330
17
100
AcDbEntity
  8
SubLayer
100
AcDbLine
 10
-2.7675986325579816
 20
27.814526114290246
 30
0.0
 11
1.2277318962221053
 21
28.007746107556557
 31
0.0
  0
LINE
  5
189
330
17
100
AcDbEntity
  8
SubLayer
100
AcDbLine
 10
1.2277318962221053
 20
28.007746107556557
 30
0.0
 11
1.0345119029557919
 21
32.003076636336644
 31
0.0
  0
LINE
  5
18A
330
17
100
AcDbEntity
  8
SubLayer
100
AcDbLine
 10
1.0345119029557919
 20
32.003076636336644
 30
0.0
 11
-2.960818625824295
 21
31.809856643070333
 31
0.0
  0
LINE
  5
18B
330
17
100
AcDbEntity
  8
SubLayer
100
AcDbLine
 10
-2.960818625824295
 20
31.809856643070333
 30
0.0
 11
-2.7675986325579816
 21
27.814526114290246
 31
0.0
  0
LINE
  5
18C
330
17
100
AcDbEntity
  8
SubLayer
100
AcDbLine
 10
-1.0345119029557919
 20
-8.021591063602589
 30
0.0
 11
2.960818625824295
 21
-7.828371070336274
 31
0.0
  0
LINE
  5
18D
330
17
100
AcDbEntity
  8
SubLayer
100
AcDbLine
 10
2.960818625824295
 20
-7.828371070336274
 30
0.0
 11
2.7675986325579816
 21
-3.833040541556188
 31
0.0
  0
LINE
  5
18E
330
17
100
AcDbEntity
  8
SubLayer
100
AcDbLine
 10
2.7675986325579816
 20
-3.833040541556188
 30
0.0
 11
-1.2277318962221053
 21
-4.026260534822502
 31
0.0
  0
LINE
  5
18F
330
17
100
AcDbEntity
  8
SubLayer
100
AcDbLine
 10
-1.2277318962221053
 20
-4.026260534822502
 30
0.0
 11
-1.0345119029557919
 21
-8.021591063602589
 31
0.0
  0
LINE
  5
190
330
17
100
AcDbEntity
  8
SubLayer
100
AcDbLine
 10
234.03037543364428
 20
10.954343414709582
 30
0.0
 11
238.02570596242435
 21
11.147563407975897
 31
0.0
  0
LINE
  5
191
330
17
100
AcDbEntity
  8
SubLayer
100
AcDbLine
 10
-166.8060507175722
 20
-8.430688938415484
 30
0.0
 11
-162.81072018879212
 21
-8.23746894514917
 31
0.0
  0
LINE
  5
192
330
17
100
AcDbEntity
  8
SubLayer
100
AcDbLine
 10
-87.63759811952394
 20
-4.601987466107049
 30
0.0
 11
-81.6446023263538
 21
-4.312157476207579
 31
0.0
  0
LINE
  5
193
330
17
100
AcDbEntity
  8
SubLayer
100
AcDbLine
 10
152.86425757120597
 20
7.029031945767991
 30
0.0
 11
158.85725336437608
 21
7.318861935667461
 31
0.0
  0
LINE
  5
194
330
17
100
AcDbEntity
  8
SubLayer
100
AcDbLine
 10
32.61332972584102
 20
1.2135222398304715
 30
0.0
 11
38.60632551901114
 21
1.503352229729941
 31
0.0
  0
LINE
  5
195
330
17
100
AcDbEntity
  8
SubLayer
100
AcDbLine
 10
-82.54682496191568
 20
-6.358127738914201
 30
0.0
 11
-82.74004495518199
 21
-2.3627972101341146
 31
0.0
  0
LINE
  5
196
330
17
100
AcDbEntity
  8
SubLayer
100
AcDbLine
 10
-82.74004495518199
 20
-2.3627972101341146
 30
0.0
 11
-86.73537548396207
 21
-2.556017203400428
 31
0.0
  0
LINE
  5
197
330
17
100
AcDbEntity
  8
SubLayer
100
AcDbLine
 10
-86.73537548396207
 20
-2.556017203400428
 30
0.0
 11
-86.54215549069576
 21
-6.551347732180513
 31
0.0
  0
LINE
  5
198
330
17
100
AcDbEntity
  8
SubLayer
100
AcDbLine
 10
-86.54215549069576
 20
-6.551347732180513
 30
0.0
 11
-82.54682496191568
 21
-6.358127738914201
 31
0.0
  0
LINE
  5
199
330
17
100
AcDbEntity
  8
SubLayer
100
AcDbLine
 10
157.95503072881422
 20
5.2728916729608395
 30
0.0
 11
157.7618107355479
 21
9.268222201740926
 31
0.0
  0
LINE
  5
19A
330
17
100
AcDbEntity
  8
SubLayer
100
AcDbLine
 10
157.7618107355479
 20
9.268222201740926
 30
0.0
 11
153.76648020676782
 21
9.075002208474613
 31
0.0
  0
LINE
  5
19B
330
17
100
AcDbEntity
  8
SubLayer
100
AcDbLine
 10
153.76648020676782
 20
9.075002208474613
 30
0.0
 11
153.95970020003415
 21
5.079671679694526
 31
0.0
  0
LINE
  5
19C
330
17
100
AcDbEntity
  8
SubLayer
100
AcDbLine
 10
153.95970020003415
 20
5.079671679694526
 30
0.0
 11
157.95503072881422
 21
5.2728916729608395
 31
0.0
  0
LINE
  5
19D
330
17
100
AcDbEntity
  8
SubLayer
100
AcDbLine
 10
37.70410288344928
 20
-0.5426180329766803
 30
0.0
 11
37.51088289018297
 21
3.452712495803406
 31
0.0
  0
LINE
  5
19E
330
17
100
AcDbEntity
  8
SubLayer
100
AcDbLine
 10
37.51088289018297
 20
3.452712495803406
 30
0.0
 11
33.51555236140288
 21
3.2594925025370927
 31
0.0
  0
LINE
  5
19F
330
17
100
AcDbEntity
  8
SubLayer
100
AcDbLine
 10
33.51555236140288
 20
3.2594925025370927
 30
0.0
 11
33.70877235466919
 21
-0.7358380262429933
 31
0.0
  0
LINE
  5
1A0
330
17
100
AcDbEntity
  8
SubLayer
100
AcDbLine
 10
33.70877235466919
 20
-0.7358380262429933
 30
0.0
 11
37.70410288344928
 21
-0.5426180329766803
 31
0.0
  0
LINE
  5
1A1
330
17
100
AcDbEntity
  8
SubLayer
100
AcDbLine
 10
268.61064649803126
 20
3.6492864808760195
 30
0.0
 11
268.81756976851165
 21
4.627643654986633
 31
0.0
  0
LINE
  5
1A2
330
17
100
AcDbEntity
  8
SubLayer
100
AcDbLine
 10
268.3160406096079
 20
-1.28068685146862
 30
0.0
 11
268.27698718267544
 21
-0.28144972753615316
 31
0.0
  0
LINE
  5
1A3
330
17
100
AcDbEntity
  8
SubLayer
100
AcDbLine
 10
249.04427396497243
 20
7.791643597063242
 30
0.0
 11
249.25129426310372
 21
8.769980244726838
 31
0.0
  0
LINE
  5
1A4
330
17
100
AcDbEntity
  8
SubLayer
100
AcDbLine
 10
248.34943053463414
 20
-2.387283100160126
 30
0.0
 11
248.3022345177844
 21
-1.3883974530545526
 31
0.0
  0
LINE
  5
1A5
330
17
100
AcDbEntity
  8
SubLayer
100
AcDbLine
 10
209.87245708933605
 20
15.884297102759774
 30
0.0
 11
210.0771285000275
 21
16.86312784075566
 31
0.0
  0
LINE
  5
1A6
330
17
100
AcDbEntity
  8
SubLayer
100
AcDbLine
 10
208.4423291429126
 20
-5.098543617202044
 30
0.0
 11
208.3848370028924
 21
-4.100197658209924
 31
0.0
  0
LINE
  5
1A7
330
17
100
AcDbEntity
  8
SubLayer
100
AcDbLine
 10
-150.7111406803629
 20
23.070452247765907
 30
0.0
 11
-150.51792068709656
 21
19.07512171898582
 31
0.0
  0
LINE
  5
1A8
330
17
100
AcDbEntity
  8
SubLayer
100
AcDbLine
 10
-148.95454336550185
 20
-13.251807991444302
 30
0.0
 11
-148.76132337223552
 21
-17.24713852022439
 31
0.0
  0
LINE
  5
1A9
330
17
100
AcDbEntity
  8
SubLayer
100
AcDbLine
 10
-149.35416782679064
 20
-4.98852331140724
 30
0.0
 11
-149.06433783689116
 21
-10.98151910457737
 31
0.0
  0
LINE
  5
1AA
330
17
100
AcDbEntity
  8
SubLayer
100
AcDbLine
 10
-150.40812621570726
 20
16.804832832118887
 30
0.0
 11
-150.11829622580777
 21
10.811837038948756
 31
0.0
  0
LINE
  5
1AB
330
17
100
AcDbEntity
  8
SubLayer
100
AcDbLine
 10
-149.88114702124895
 20
5.908154760355823
 30
0.0
 11
-149.59131703134946
 21
-0.08484103281430588
 31
0.0
  0
LINE
  5
1AC
330
17
100
AcDbEntity
  8
SubLayer
100
AcDbLine
 10
-151.11030809959777
 20
-10.079296469015503
 30
0.0
 11
-147.1149775708177
 21
-9.88607647574919
 31
0.0
  0
LINE
  5
1AD
330
17
100
AcDbEntity
  8
SubLayer
100
AcDbLine
 10
-147.1149775708177
 20
-9.88607647574919
 30
0.0
 11
-147.30819756408403
 21
-5.890745946969105
 31
0.0
  0
LINE
  5
1AE
330
17
100
AcDbEntity
  8
SubLayer
100
AcDbLine
 10
-147.30819756408403
 20
-5.890745946969105
 30
0.0
 11
-151.3035280928641
 21
-6.0839659402354185
 31
0.0
  0
LINE
  5
1AF
330
17
100
AcDbEntity
  8
SubLayer
100
AcDbLine
 10
-151.3035280928641
 20
-6.0839659402354185
 30
0.0
 11
-151.11030809959777
 21
-10.079296469015503
 31
0.0
  0
LINE
  5
1B0
330
17
100
AcDbEntity
  8
SubLayer
100
AcDbLine
 10
-152.1642664885144
 20
11.714059674510622
 30
0.0
 11
-148.1689359597343
 21
11.907279667776935
 31
0.0
  0
LINE
  5
1B1
330
17
100
AcDbEntity
  8
SubLayer
100
AcDbLine
 10
-148.1689359597343
 20
11.907279667776935
 30
0.0
 11
-148.36215595300064
 21
15.90261019655702
 31
0.0
  0
LINE
  5
1B2
330
17
100
AcDbEntity
  8
SubLayer
100
AcDbLine
 10
-148.36215595300064
 20
15.90261019655702
 30
0.0
 11
-152.3574864817807
 21
15.709390203290708
 31
0.0
  0
LINE
  5
1B3
330
17
100
AcDbEntity
  8
SubLayer
100
AcDbLine
 10
-152.3574864817807
 20
15.709390203290708
 30
0.0
 11
-152.1642664885144
 21
11.714059674510622
 31
0.0
  0
LINE
  5
1B4
330
17
100
AcDbEntity
  8
SubLayer
100
AcDbLine
 10
-151.63728729405608
 20
0.8173816027475587
 30
0.0
 11
-147.641956765276
 21
1.0106015960138721
 31
0.0
  0
LINE
  5
1B5
330
17
100
AcDbEntity
  8
SubLayer
100
AcDbLine
 10
-147.641956765276
 20
1.0106015960138721
 30
0.0
 11
-147.83517675854233
 21
5.005932124793959
 31
0.0
  0
LINE
  5
1B6
330
17
100
AcDbEntity
  8
SubLayer
100
AcDbLine
 10
-147.83517675854233
 20
5.005932124793959
 30
0.0
 11
-151.8305072873224
 21
4.812712131527645
 31
0.0
  0
LINE
  5
1B7
330
17
100
AcDbEntity
  8
SubLayer
100
AcDbLine
 10
-151.8305072873224
 20
4.812712131527645
 30
0.0
 11
-151.63728729405608
 21
0.8173816027475587
 31
0.0
  0
LINE
  5
1B8
330
17
100
AcDbEntity
  8
SubLayer
100
AcDbLine
 10
98.88347760056851
 20
37.49443454829936
 30
0.0
 11
99.07669759383484
 21
33.49910401951927
 31
0.0
  0
LINE
  5
1B9
330
17
100
AcDbEntity
  8
SubLayer
100
AcDbLine
 10
101.23484120807616
 20
-11.126179946751954
 30
0.0
 11
101.42806120134249
 21
-15.121510475532041
 31
0.0
  0
LINE
  5
1BA
330
17
100
AcDbEntity
  8
SubLayer
100
AcDbLine
 10
100.71626348825808
 20
-0.40322441554666977
 30
0.0
 11
101.00609347815754
 21
-6.396220208716799
 31
0.0
  0
LINE
  5
1BB
330
17
100
AcDbEntity
  8
SubLayer
100
AcDbLine
 10
99.30544532375349
 20
28.76914428148412
 30
0.0
 11
99.59527531365295
 21
22.77614848831399
 31
0.0
  0
LINE
  5
1BC
330
17
100
AcDbEntity
  8
SubLayer
100
AcDbLine
 10
100.01085440600578
 20
14.182959932968725
 30
0.0
 11
100.30068439590524
 21
8.189964139798594
 31
0.0
  0
LINE
  5
1BD
330
17
100
AcDbEntity
  8
SubLayer
100
AcDbLine
 10
98.96012321545092
 20
-5.493997573154934
 30
0.0
 11
102.95545374423101
 21
-5.300777579888621
 31
0.0
  0
LINE
  5
1BE
330
17
100
AcDbEntity
  8
SubLayer
100
AcDbLine
 10
102.95545374423101
 20
-5.300777579888621
 30
0.0
 11
102.7622337509647
 21
-1.3054470511085343
 31
0.0
  0
LINE
  5
1BF
330
17
100
AcDbEntity
  8
SubLayer
100
AcDbLine
 10
102.7622337509647
 20
-1.3054470511085343
 30
0.0
 11
98.76690322218461
 21
-1.4986670443748478
 31
0.0
  0
LINE
  5
1C0
330
17
100
AcDbEntity
  8
SubLayer
100
AcDbLine
 10
98.76690322218461
 20
-1.4986670443748478
 30
0.0
 11
98.96012321545092
 21
-5.493997573154934
 31
0.0
  0
LINE
  5
1C1
330
17
100
AcDbEntity
  8
SubLayer
100
AcDbLine
 10
97.54930505094633
 20
23.678371123875856
 30
0.0
 11
101.54463557972642
 21
23.871591117142167
 31
0.0
  0
LINE
  5
1C2
330
17
100
AcDbEntity
  8
SubLayer
100
AcDbLine
 10
101.54463557972642
 20
23.871591117142167
 30
0.0
 11
101.3514155864601
 21
27.866921645922254
 31
0.0
  0
LINE
  5
1C3
330
17
100
AcDbEntity
  8
SubLayer
100
AcDbLine
 10
101.3514155864601
 20
27.866921645922254
 30
0.0
 11
97.35608505768002
 21
27.673701652655943
 31
0.0
  0
LINE
  5
1C4
330
17
100
AcDbEntity
  8
SubLayer
100
AcDbLine
 10
97.35608505768002
 20
27.673701652655943
 30
0.0
 11
97.54930505094633
 21
23.678371123875856
 31
0.0
  0
LINE
  5
1C5
330
17
100
AcDbEntity
  8
SubLayer
100
AcDbLine
 10
98.25471413319862
 20
9.09218677536046
 30
0.0
 11
102.2500446619787
 21
9.285406768626773
 31
0.0
  0
LINE
  5
1C6
330
17
100
AcDbEntity
  8
SubLayer
100
AcDbLine
 10
102.2500446619787
 20
9.285406768626773
 30
0.0
 11
102.0568246687124
 21
13.280737297406858
 31
0.0
  0
LINE
  5
1C7
330
17
100
AcDbEntity
  8
SubLayer
100
AcDbLine
 10
102.0568246687124
 20
13.280737297406858
 30
0.0
 11
98.06149413993231
 21
13.087517304140546
 31
0.0
  0
LINE
  5
1C8
330
17
100
AcDbEntity
  8
SubLayer
100
AcDbLine
 10
98.06149413993231
 20
13.087517304140546
 30
0.0
 11
98.25471413319862
 21
9.09218677536046
 31
0.0
  0
ENDSEC
  0
SECTION
  2
OBJECTS
  0
DICTIONARY
  5
A
330
0
100
AcDbDictionary
280
0
281
1
  3
ACAD_COLOR
350
B
  3
ACAD_GROUP
350
C
  3
ACAD_LAYOUT
350
D
  3
ACAD_MATERIAL
350
E
  3
ACAD_MLEADERSTYLE
350
F
  3
ACAD_MLINESTYLE
350
10
  3
ACAD_PLOTSETTINGS
350
11
  3
ACAD_PLOTSTYLENAME
350
12
  3
ACAD_SCALELIST
350
14
  3
ACAD_TABLESTYLE
350
15
  3
ACAD_VISUALSTYLE
350
16
  3
EZDXF_META
350
2D
  0
DICTIONARY
  5
B
330
A
100
AcDbDictionary
280
0
281
1
  0
DICTIONARY
  5
C
330
A
100
AcDbDictionary
280
0
281
1
  0
DICTIONARY
  5
D
330
A
100
AcDbDictionary
280
0
281
1
  3
Model
350
1A
  3
Layout1
350
1E
  0
DICTIONARY
  5
E
330
A
100
AcDbDictionary
280
0
281
1
  3
ByBlock
350
1F
  3
ByLayer
350
20
  3
Global
350
21
  0
DICTIONARY
  5
F
330
A
100
AcDbDictionary
280
0
281
1
  3
Standard
350
2C
  0
DICTIONARY
  5
10
330
A
100
AcDbDictionary
280
0
281
1
  3
Standard
350
22
  0
DICTIONARY
  5
11
330
A
100
AcDbDictionary
280
0
281
1
  0
ACDBDICTIONARYWDFLT
  5
12
330
A
100
AcDbDictionary
280
0
281
1
  3
Normal
350
13
100
AcDbDictionaryWithDefault
340
13
  0
ACDBPLACEHOLDER
  5
13
330
12
  0
DICTIONARY
  5
14
330
A
100
AcDbDictionary
280
0
281
1
  0
DICTIONARY
  5
15
330
A
100
AcDbDictionary
280
0
281
1
  0
DICTIONARY
  5
16
330
A
100
AcDbDictionary
280
0
281
1
  0
LAYOUT
  5
1A
330
D
100
AcDbPlotSettings
  1

  2
Adobe PDF
  4
A3
  6

 40
7.5
 41
20.0
 42
7.5
 43
20.0
 44
420.0
 45
297.0
 46
0.0
 47
0.0
 48
0.0
 49
0.0
140
0.0
141
0.0
142
1.0
143
1.0
 70
1024
 72
1
 73
0
 74
5
  7

 75
16
 76
0
 77
2
 78
300
147
1.0
148
0.0
149
0.0
100
AcDbLayout
  1
Model
 70
1
 71
0
 10
0.0
 20
0.0
 11
420.0
 21
297.0
 12
0.0
 22
0.0
 32
0.0
 14
1e+20
 24
1e+20
 34
1e+20
 15
-1e+20
 25
-1e+20
 35
-1e+20
146
0.0
 13
0.0
 23
0.0
 33
0.0
 16
1.0
 26
0.0
 36
0.0
 17
0.0
 27
1.0
 37
0.0
 76
1
330
17
  0
LAYOUT
  5
1E
330
D
100
AcDbPlotSettings
  1

  2
Adobe PDF
  4
A3
  6

 40
7.5
 41
20.0
 42
7.5
 43
20.0
 44
420.0
 45
297.0
 46
0.0
 47
0.0
 48
0.0
 49
0.0
140
0.0
141
0.0
142
1.0
143
1.0
 70
0
 72
1
 73
0
 74
5
  7

 75
16
 76
0
 77
2
 78
300
147
1.0
148
0.0
149
0.0
100
AcDbLayout
  1
Layout1
 70
1
 71
1
 10
0.0
 20
0.0
 11
420.0
 21
297.0
 12
0.0
 22
0.0
 32
0.0
 14
1e+20
 24
1e+20
 34
1e+20
 15
-1e+20
 25
-1e+20
 35
-1e+20
146
0.0
 13
0.0
 23
0.0
 33
0.0
 16
1.0
 26
0.0
 36
0.0
 17
0.0
 27
1.0
 37
0.0
 76
1
330
1B
  0
MATERIAL
  5
1F
102
{ACAD_REACTORS
330
E
102
}
330
E
100
AcDbMaterial
  1
ByBlock
  2

 70
0
 40
1.0
 71
1
 41
1.0
 91
-1023410177
 42
1.0
 72
1
  3

 73
1
 74
1
 75
1
 44
0.5
 73
0
 45
1.0
 46
1.0
 77
1
  4

 78
1
 79
1
170
1
 48
1.0
171
1
  6

172
1
173
1
174
1
140
1.0
141
1.0
175
1
  7

176
1
177
1
178
1
143
1.0
179
1
  8

270
1
271
1
272
1
145
1.0
146
1.0
273
1
  9

274
1
275
1
276
1
 42
1.0
 72
1
  3

 73
1
 74
1
 75
1
 94
63
  0
MATERIAL
  5
20
102
{ACAD_REACTORS
330
E
102
}
330
E
100
AcDbMaterial
  1
ByLayer
  2

 70
0
 40
1.0
 71
1
 41
1.0
 91
-1023410177
 42
1.0
 72
1
  3

 73
1
 74
1
 75
1
 44
0.5
 73
0
 45
1.0
 46
1.0
 77
1
  4

 78
1
 79
1
170
1
 48
1.0
171
1
  6

172
1
173
1
174
1
140
1.0
141
1.0
175
1
  7

176
1
177
1
178
1
143
1.0
179
1
  8

270
1
271
1
272
1
145
1.0
146
1.0
273
1
  9

274
1
275
1
276
1
 42
1.0
 72
1
  3

 73
1
 74
1
 75
1
 94
63
  0
MATERIAL
  5
21
102
{ACAD_REACTORS
330
E
102
}
330
E
100
AcDbMaterial
  1
Global
  2

 70
0
 40
1.0
 71
1
 41
1.0
 91
-1023410177
 42
1.0
 72
1
  3

 73
1
 74
1
 75
1
 44
0.5
 73
0
 45
1.0
 46
1.0
 77
1
  4

 78
1
 79
1
170
1
 48
1.0
171
1
  6

172
1
173
1
174
1
140
1.0
141
1.0
175
1
  7

176
1
177
1
178
1
143
1.0
179
1
  8

270
1
271
1
272
1
145
1.0
146
1.0
273
1
  9

274
1
275
1
276
1
 42
1.0
 72
1
  3

 73
1
 74
1
 75
1
 94
63
  0
MLINESTYLE
  5
22
102
{ACAD_REACTORS
330
10
102
}
330
10
100
AcDbMlineStyle
  2
Standard
 70
0
  3

 62
256
 51
90.0
 52
90.0
 71
2
 49
0.5
 62
256
  6
BYLAYER
 49
-0.5
 62
256
  6
BYLAYER
  0
MLEADERSTYLE
  5
2C
102
{ACAD_REACTORS
330
F
102
}
330
F
100
AcDbMLeaderStyle
179
2
170
2
171
1
172
0
 90
2
 40
0.0
 41
0.0
173
1
 91
-1056964608
 92
-2
290
1
 42
2.0
291
1
 43
8.0
  3
Standard
 44
4.0
300

342
29
174
1
175
1
176
0
178
1
 93
-1056964608
 45
4.0
292
0
297
0
 46
4.0
 94
-1056964608
 47
1.0
 49
1.0
140
1.0
294
1
141
0.0
177
0
142
1.0
295
0
296
0
143
3.75
271
0
272
9
273
9
  0
DICTIONARY
  5
2D
330
A
100
AcDbDictionary
281
1
  3
CREATED_BY_EZDXF
350
2E
  3
WRITTEN_BY_EZDXF
350
1CB
  0
DICTIONARYVAR
  5
2E
330
2D
100
DictionaryVariables
280
0
  1
1.0.2 @ 2024-03-22T07:41:35.040942+00:00
  0
DICTIONARYVAR
  5
1CB
330
2D
100
DictionaryVariables
280
0
  1
1.0.2 @ 2024-03-22T07:41:35.051455+00:00
  0
ENDSEC
  0
EOF
