  0
SECTION
  2
HEADER
  9
$ACADVER
  1
AC1027
  9
$ACADMAINTVER
 70
105
  9
$DWGCODEPAGE
  3
ANSI_1252
  9
$LASTSAVEDBY
  1
ezdxf
  9
$REQUIREDVERSIONS
160
0
  9
$INSBASE
 10
0.0
 20
0.0
 30
0.0
  9
$EXTMIN
 10
1e+20
 20
1e+20
 30
1e+20
  9
$EXTMAX
 10
-1e+20
 20
-1e+20
 30
-1e+20
  9
$LIMMIN
 10
0.0
 20
0.0
  9
$LIMMAX
 10
420.0
 20
297.0
  9
$ORTHOMODE
 70
0
  9
$REGENMODE
 70
1
  9
$FILLMODE
 70
1
  9
$QTEXTMODE
 70
0
  9
$MIRRTEXT
 70
1
  9
$LTSCALE
 40
1.0
  9
$ATTMODE
 70
1
  9
$TEXTSIZE
 40
2.5
  9
$TRACEWID
 40
1.0
  9
$TEXTSTYLE
  7
Standard
  9
$CLAYER
  8
0
  9
$CELTYPE
  6
ByLayer
  9
$CECOLOR
 62
256
  9
$CELTSCALE
 40
1.0
  9
$DISPSILH
 70
0
  9
$DIMSCALE
 40
1.0
  9
$DIMASZ
 40
2.5
  9
$DIMEXO
 40
0.625
  9
$DIMDLI
 40
3.75
  9
$DIMRND
 40
0.0
  9
$DIMDLE
 40
0.0
  9
$DIMEXE
 40
1.25
  9
$DIMTP
 40
0.0
  9
$DIMTM
 40
0.0
  9
$DIMTXT
 40
2.5
  9
$DIMCEN
 40
2.5
  9
$DIMTSZ
 40
0.0
  9
$DIMTOL
 70
0
  9
$DIMLIM
 70
0
  9
$DIMTIH
 70
0
  9
$DIMTOH
 70
0
  9
$DIMSE1
 70
0
  9
$DIMSE2
 70
0
  9
$DIMTAD
 70
1
  9
$DIMZIN
 70
8
  9
$DIMBLK
  1

  9
$DIMASO
 70
1
  9
$DIMSHO
 70
1
  9
$DIMPOST
  1

  9
$DIMAPOST
  1

  9
$DIMALT
 70
0
  9
$DIMALTD
 70
3
  9
$DIMALTF
 40
0.03937007874
  9
$DIMLFAC
 40
1.0
  9
$DIMTOFL
 70
1
  9
$DIMTVP
 40
0.0
  9
$DIMTIX
 70
0
  9
$DIMSOXD
 70
0
  9
$DIMSAH
 70
0
  9
$DIMBLK1
  1

  9
$DIMBLK2
  1

  9
$DIMSTYLE
  2
ISO-25
  9
$DIMCLRD
 70
0
  9
$DIMCLRE
 70
0
  9
$DIMCLRT
 70
0
  9
$DIMTFAC
 40
1.0
  9
$DIMGAP
 40
0.625
  9
$DIMJUST
 70
0
  9
$DIMSD1
 70
0
  9
$DIMSD2
 70
0
  9
$DIMTOLJ
 70
0
  9
$DIMTZIN
 70
8
  9
$DIMALTZ
 70
0
  9
$DIMALTTZ
 70
0
  9
$DIMUPT
 70
0
  9
$DIMDEC
 70
2
  9
$DIMTDEC
 70
2
  9
$DIMALTU
 70
2
  9
$DIMALTTD
 70
3
  9
$DIMTXSTY
  7
Standard
  9
$DIMAUNIT
 70
0
  9
$DIMADEC
 70
0
  9
$DIMALTRND
 40
0.0
  9
$DIMAZIN
 70
0
  9
$DIMDSEP
 70
44
  9
$DIMATFIT
 70
3
  9
$DIMFRAC
 70
0
  9
$DIMLDRBLK
  1

  9
$DIMLUNIT
 70
2
  9
$DIMLWD
 70
-2
  9
$DIMLWE
 70
-2
  9
$DIMTMOVE
 70
0
  9
$DIMFXL
 40
1.0
  9
$DIMFXLON
 70
0
  9
$DIMJOGANG
 40
0.785398163397
  9
$DIMTFILL
 70
0
  9
$DIMTFILLCLR
 70
0
  9
$DIMARCSYM
 70
0
  9
$DIMLTYPE
  6

  9
$DIMLTEX1
  6

  9
$DIMLTEX2
  6

  9
$DIMTXTDIRECTION
 70
0
  9
$LUNITS
 70
2
  9
$LUPREC
 70
4
  9
$SKETCHINC
 40
1.0
  9
$FILLETRAD
 40
10.0
  9
$AUNITS
 70
0
  9
$AUPREC
 70
2
  9
$MENU
  1
.
  9
$ELEVATION
 40
0.0
  9
$PELEVATION
 40
0.0
  9
$THICKNESS
 40
0.0
  9
$LIMCHECK
 70
0
  9
$CHAMFERA
 40
0.0
  9
$CHAMFERB
 40
0.0
  9
$CHAMFERC
 40
0.0
  9
$CHAMFERD
 40
0.0
  9
$SKPOLY
 70
0
  9
$TDCREATE
 40
2460392.6955439816
  9
$TDUCREATE
 40
2458532.153996898
  9
$TDUPDATE
 40
2460392.6955439816
  9
$TDUUPDATE
 40
2458532.1544311
  9
$TDINDWG
 40
0.0
  9
$TDUSRTIMER
 40
0.0
  9
$USRTIMER
 70
1
  9
$ANGBASE
 50
0.0
  9
$ANGDIR
 70
0
  9
$PDMODE
 70
0
  9
$PDSIZE
 40
0.0
  9
$PLINEWID
 40
0.0
  9
$SPLFRAME
 70
0
  9
$SPLINETYPE
 70
6
  9
$SPLINESEGS
 70
8
  9
$HANDSEED
  5
1CD
  9
$SURFTAB1
 70
6
  9
$SURFTAB2
 70
6
  9
$SURFTYPE
 70
6
  9
$SURFU
 70
6
  9
$SURFV
 70
6
  9
$UCSBASE
  2

  9
$UCSNAME
  2

  9
$UCSORG
 10
0.0
 20
0.0
 30
0.0
  9
$UCSXDIR
 10
1.0
 20
0.0
 30
0.0
  9
$UCSYDIR
 10
0.0
 20
1.0
 30
0.0
  9
$UCSORTHOREF
  2

  9
$UCSORTHOVIEW
 70
0
  9
$UCSORGTOP
 10
0.0
 20
0.0
 30
0.0
  9
$UCSORGBOTTOM
 10
0.0
 20
0.0
 30
0.0
  9
$UCSORGLEFT
 10
0.0
 20
0.0
 30
0.0
  9
$UCSORGRIGHT
 10
0.0
 20
0.0
 30
0.0
  9
$UCSORGFRONT
 10
0.0
 20
0.0
 30
0.0
  9
$UCSORGBACK
 10
0.0
 20
0.0
 30
0.0
  9
$PUCSBASE
  2

  9
$PUCSNAME
  2

  9
$PUCSORG
 10
0.0
 20
0.0
 30
0.0
  9
$PUCSXDIR
 10
1.0
 20
0.0
 30
0.0
  9
$PUCSYDIR
 10
0.0
 20
1.0
 30
0.0
  9
$PUCSORTHOREF
  2

  9
$PUCSORTHOVIEW
 70
0
  9
$PUCSORGTOP
 10
0.0
 20
0.0
 30
0.0
  9
$PUCSORGBOTTOM
 10
0.0
 20
0.0
 30
0.0
  9
$PUCSORGLEFT
 10
0.0
 20
0.0
 30
0.0
  9
$PUCSORGRIGHT
 10
0.0
 20
0.0
 30
0.0
  9
$PUCSORGFRONT
 10
0.0
 20
0.0
 30
0.0
  9
$PUCSORGBACK
 10
0.0
 20
0.0
 30
0.0
  9
$USERI1
 70
0
  9
$USERI2
 70
0
  9
$USERI3
 70
0
  9
$USERI4
 70
0
  9
$USERI5
 70
0
  9
$USERR1
 40
0.0
  9
$USERR2
 40
0.0
  9
$USERR3
 40
0.0
  9
$USERR4
 40
0.0
  9
$USERR5
 40
0.0
  9
$WORLDVIEW
 70
1
  9
$SHADEDGE
 70
3
  9
$SHADEDIF
 70
70
  9
$TILEMODE
 70
1
  9
$MAXACTVP
 70
64
  9
$PINSBASE
 10
0.0
 20
0.0
 30
0.0
  9
$PLIMCHECK
 70
0
  9
$PEXTMIN
 10
1e+20
 20
1e+20
 30
1e+20
  9
$PEXTMAX
 10
-1e+20
 20
-1e+20
 30
-1e+20
  9
$PLIMMIN
 10
0.0
 20
0.0
  9
$PLIMMAX
 10
420.0
 20
297.0
  9
$UNITMODE
 70
0
  9
$VISRETAIN
 70
1
  9
$PLINEGEN
 70
0
  9
$PSLTSCALE
 70
1
  9
$TREEDEPTH
 70
3020
  9
$CMLSTYLE
  2
Standard
  9
$CMLJUST
 70
0
  9
$CMLSCALE
 40
20.0
  9
$PROXYGRAPHICS
 70
1
  9
$MEASUREMENT
 70
1
  9
$CELWEIGHT
370
-1
  9
$ENDCAPS
280
0
  9
$JOINSTYLE
280
0
  9
$LWDISPLAY
290
0
  9
$INSUNITS
 70
6
  9
$HYPERLINKBASE
  1

  9
$STYLESHEET
  1

  9
$XEDIT
290
1
  9
$CEPSNTYPE
380
0
  9
$PSTYLEMODE
290
1
  9
$FINGERPRINTGUID
  2
{211ED24E-8D32-4DEF-A0A7-138FF2E7B722}
  9
$VERSIONGUID
  2
{A0FE32F7-61A0-4AE5-AF1F-BB1B9EBA720E}
  9
$EXTNAMES
290
1
  9
$PSVPSCALE
 40
0.0
  9
$OLESTARTUP
290
0
  9
$SORTENTS
280
127
  9
$INDEXCTL
280
0
  9
$HIDETEXT
280
1
  9
$XCLIPFRAME
280
0
  9
$HALOGAP
280
0
  9
$OBSCOLOR
 70
257
  9
$OBSLTYPE
280
0
  9
$INTERSECTIONDISPLAY
280
0
  9
$INTERSECTIONCOLOR
 70
257
  9
$DIMASSOC
280
2
  9
$PROJECTNAME
  1

  9
$CAMERADISPLAY
290
0
  9
$LENSLENGTH
 40
50.0
  9
$CAMERAHEIGHT
 40
0.0
  9
$STEPSPERSEC
 40
24.0
  9
$STEPSIZE
 40
100.0
  9
$3DDWFPREC
 40
2.0
  9
$PSOLWIDTH
 40
0.005
  9
$PSOLHEIGHT
 40
0.08
  9
$LOFTANG1
 40
1.570796326795
  9
$LOFTANG2
 40
1.570796326795
  9
$LOFTMAG1
 40
0.0
  9
$LOFTMAG2
 40
0.0
  9
$LOFTPARAM
 70
7
  9
$LOFTNORMALS
280
1
  9
$LATITUDE
 40
37.795
  9
$LONGITUDE
 40
-122.394
  9
$NORTHDIRECTION
 40
0.0
  9
$TIMEZONE
 70
-8000
  9
$LIGHTGLYPHDISPLAY
280
1
  9
$TILEMODELIGHTSYNCH
280
1
  9
$CMATERIAL
347
20
  9
$SOLIDHIST
280
0
  9
$SHOWHIST
280
1
  9
$DWFFRAME
280
2
  9
$DGNFRAME
280
2
  9
$REALWORLDSCALE
290
1
  9
$INTERFERECOLOR
 62
256
  9
$CSHADOW
280
0
  9
$SHADOWPLANELOCATION
 40
0.0
  0
ENDSEC
  0
SECTION
  2
CLASSES
  0
CLASS
  1
ACDBDICTIONARYWDFLT
  2
AcDbDictionaryWithDefault
  3
ObjectDBX Classes
 90
0
 91
0
280
0
281
0
  0
CLASS
  1
SUN
  2
AcDbSun
  3
SCENEOE
 90
1153
 91
0
280
0
281
0
  0
CLASS
  1
VISUALSTYLE
  2
AcDbVisualStyle
  3
ObjectDBX Classes
 90
4095
 91
0
280
0
281
0
  0
CLASS
  1
MATERIAL
  2
AcDbMaterial
  3
ObjectDBX Classes
 90
1153
 91
0
280
0
281
0
  0
CLASS
  1
SCALE
  2
AcDbScale
  3
ObjectDBX Classes
 90
1153
 91
0
280
0
281
0
  0
CLASS
  1
TABLESTYLE
  2
AcDbTableStyle
  3
ObjectDBX Classes
 90
4095
 91
0
280
0
281
0
  0
CLASS
  1
MLEADERSTYLE
  2
AcDbMLeaderStyle
  3
ACDB_MLEADERSTYLE_CLASS
 90
4095
 91
0
280
0
281
0
  0
CLASS
  1
DICTIONARYVAR
  2
AcDbDictionaryVar
  3
ObjectDBX Classes
 90
0
 91
0
280
0
281
0
  0
CLASS
  1
CELLSTYLEMAP
  2
AcDbCellStyleMap
  3
ObjectDBX Classes
 90
1152
 91
0
280
0
281
0
  0
CLASS
  1
MENTALRAYRENDERSETTINGS
  2
AcDbMentalRayRenderSettings
  3
SCENEOE
 90
1024
 91
0
280
0
281
0
  0
CLASS
  1
ACDBDETAILVIEWSTYLE
  2
AcDbDetailViewStyle
  3
ObjectDBX Classes
 90
1025
 91
0
280
0
281
0
  0
CLASS
  1
ACDBSECTIONVIEWSTYLE
  2
AcDbSectionViewStyle
  3
ObjectDBX Classes
 90
1025
 91
0
280
0
281
0
  0
CLASS
  1
RASTERVARIABLES
  2
AcDbRasterVariables
  3
ISM
 90
0
 91
0
280
0
281
0
  0
CLASS
  1
LAYOUT
  2
AcDbLayout
  3
ObjectDBX Classes
 90
0
 91
0
280
0
281
0
  0
CLASS
  1
ACDBPLACEHOLDER
  2
AcDbPlaceHolder
  3
ObjectDBX Classes
 90
0
 91
0
280
0
281
0
  0
ENDSEC
  0
SECTION
  2
TABLES
  0
TABLE
  2
VPORT
  5
8
330
0
100
AcDbSymbolTable
 70
1
  0
VPORT
  5
23
330
8
100
AcDbSymbolTableRecord
100
AcDbViewportTableRecord
  2
*Active
 70
0
 10
0.0
 20
0.0
 11
1.0
 21
1.0
 12
0.0
 22
0.0
 13
0.0
 23
0.0
 14
0.5
 24
0.5
 15
0.5
 25
0.5
 16
0.0
 26
0.0
 36
1.0
 17
0.0
 27
0.0
 37
0.0
 40
1000.0
 41
1.34
 42
50.0
 43
0.0
 44
0.0
 50
0.0
 51
0.0
 71
0
 72
1000
 73
1
 74
3
 75
0
 76
0
 77
0
 78
0
281
0
 65
0
146
0.0
  0
ENDTAB
  0
TABLE
  2
LTYPE
  5
2
330
0
100
AcDbSymbolTable
 70
3
  0
LTYPE
  5
24
330
2
100
AcDbSymbolTableRecord
100
AcDbLinetypeTableRecord
  2
ByBlock
 70
0
  3

 72
65
 73
0
 40
0.0
  0
LTYPE
  5
25
330
2
100
AcDbSymbolTableRecord
100
AcDbLinetypeTableRecord
  2
ByLayer
 70
0
  3

 72
65
 73
0
 40
0.0
  0
LTYPE
  5
26
330
2
100
AcDbSymbolTableRecord
100
AcDbLinetypeTableRecord
  2
Continuous
 70
0
  3

 72
65
 73
0
 40
0.0
  0
ENDTAB
  0
TABLE
  2
LAYER
  5
1
330
0
100
AcDbSymbolTable
 70
5
  0
LAYER
  5
27
330
1
100
AcDbSymbolTableRecord
100
AcDbLayerTableRecord
  2
0
 70
0
 62
7
  6
Continuous
370
-3
390
13
347
21
  0
LAYER
  5
28
330
1
100
AcDbSymbolTableRecord
100
AcDbLayerTableRecord
  2
Defpoints
 70
0
 62
7
  6
Continuous
290
0
370
-3
390
13
347
21
  0
LAYER
  5
30
330
1
100
AcDbSymbolTableRecord
100
AcDbLayerTableRecord
  2
FoilLayer
 70
0
 62
1
  6
Continuous
370
50
390
13
347
21
  0
LAYER
  5
31
330
1
100
AcDbSymbolTableRecord
100
AcDbLayerTableRecord
  2
StringerLayer
 70
0
 62
1
  6
Continuous
370
50
390
13
347
21
  0
LAYER
  5
32
330
1
100
AcDbSymbolTableRecord
100
AcDbLayerTableRecord
  2
SubLayer
 70
0
 62
1
  6
Continuous
370
50
390
13
347
21
  0
ENDTAB
  0
TABLE
  2
STYLE
  5
5
330
0
100
AcDbSymbolTable
 70
2
  0
STYLE
  5
29
330
5
100
AcDbSymbolTableRecord
100
AcDbTextStyleTableRecord
  2
Standard
 70
0
 40
0.0
 41
1.0
 50
0.0
 71
0
 42
2.5
  3
txt
  4

  0
STYLE
  5
2F
330
5
100
AcDbSymbolTableRecord
100
AcDbTextStyleTableRecord
  2
MSゴシック
 70
0
 40
0.0
 41
1.0
 50
0.0
 71
0
 42
2.5
  3
romans
  4

  0
ENDTAB
  0
TABLE
  2
VIEW
  5
7
330
0
100
AcDbSymbolTable
 70
0
  0
ENDTAB
  0
TABLE
  2
UCS
  5
6
330
0
100
AcDbSymbolTable
 70
0
  0
ENDTAB
  0
TABLE
  2
APPID
  5
3
330
0
100
AcDbSymbolTable
 70
3
  0
APPID
  5
2A
330
3
100
AcDbSymbolTableRecord
100
AcDbRegAppTableRecord
  2
ACAD
 70
0
  0
APPID
  5
1CA
330
3
100
AcDbSymbolTableRecord
100
AcDbRegAppTableRecord
  2
HATCHBACKGROUNDCOLOR
 70
0
  0
APPID
  5
1CB
330
3
100
AcDbSymbolTableRecord
100
AcDbRegAppTableRecord
  2
EZDXF
 70
0
  0
ENDTAB
  0
TABLE
  2
DIMSTYLE
  5
4
330
0
100
AcDbSymbolTable
 70
1
100
AcDbDimStyleTable
  0
DIMSTYLE
105
2B
330
4
100
AcDbSymbolTableRecord
100
AcDbDimStyleTableRecord
  2
Standard
 70
0
 40
1.0
 41
2.5
 42
0.625
 43
3.75
 44
1.25
 45
0.0
 46
0.0
 47
0.0
 48
0.0
 49
2.5
140
2.5
141
2.5
142
0.0
143
0.03937007874
144
1.0
145
0.0
146
1.0
147
0.625
148
0.0
 69
0
 70
0
 71
0
 72
0
 73
0
 74
0
 75
0
 76
0
 77
1
 78
8
 79
3
170
0
171
3
172
1
173
0
174
0
175
0
176
0
177
0
178
0
179
2
271
2
272
2
273
2
274
3
275
0
276
0
277
2
278
44
279
0
280
0
281
0
282
0
283
0
284
8
285
0
286
0
288
0
289
3
290
0
371
-2
372
-2
  0
ENDTAB
  0
TABLE
  2
BLOCK_RECORD
  5
9
330
0
100
AcDbSymbolTable
 70
2
  0
BLOCK_RECORD
  5
17
330
9
100
AcDbSymbolTableRecord
100
AcDbBlockTableRecord
  2
*Model_Space
340
1A
 70
0
280
1
281
0
  0
BLOCK_RECORD
  5
1B
330
9
100
AcDbSymbolTableRecord
100
AcDbBlockTableRecord
  2
*Paper_Space
340
1E
 70
0
280
1
281
0
  0
ENDTAB
  0
ENDSEC
  0
SECTION
  2
BLOCKS
  0
BLOCK
  5
18
330
17
100
AcDbEntity
  8
0
100
AcDbBlockBegin
  2
*Model_Space
 70
0
 10
0.0
 20
0.0
 30
0.0
  3
*Model_Space
  1

  0
ENDBLK
  5
19
330
17
100
AcDbEntity
  8
0
100
AcDbBlockEnd
  0
BLOCK
  5
1C
330
1B
100
AcDbEntity
  8
0
100
AcDbBlockBegin
  2
*Paper_Space
 70
0
 10
0.0
 20
0.0
 30
0.0
  3
*Paper_Space
  1

  0
ENDBLK
  5
1D
330
1B
100
AcDbEntity
  8
0
100
AcDbBlockEnd
  0
ENDSEC
  0
SECTION
  2
ENTITIES
  0
LINE
  5
33
330
17
100
AcDbEntity
  8
FoilLayer
100
AcDbLine
 10
167.78609693510936
 20
21.77933055658235
 30
0.0
 11
11.203124999999972
 21
-17.87118996887314
 31
0.0
  0
LINE
  5
34
330
17
100
AcDbEntity
  8
FoilLayer
100
AcDbLine
 10
280.0780353742105
 20
0.3443870931064184
 30
0.0
 11
278.53427597662784
 21
0.6736722408157173
 31
0.0
  0
LINE
  5
35
330
17
100
AcDbEntity
  8
FoilLayer
100
AcDbLine
 10
278.53427597662784
 20
0.6736722408157173
 30
0.0
 11
276.05791543465506
 21
1.2103514635928763
 31
0.0
  0
LINE
  5
36
330
17
100
AcDbEntity
  8
FoilLayer
100
AcDbLine
 10
276.05791543465506
 20
1.2103514635928763
 30
0.0
 11
273.38106200334494
 21
1.7986999535595862
 31
0.0
  0
LINE
  5
37
330
17
100
AcDbEntity
  8
FoilLayer
100
AcDbLine
 10
273.38106200334494
 20
1.7986999535595862
 30
0.0
 11
270.5020576056062
 21
2.429755131845154
 31
0.0
  0
LINE
  5
38
330
17
100
AcDbEntity
  8
FoilLayer
100
AcDbLine
 10
270.5020576056062
 20
2.429755131845154
 30
0.0
 11
267.4236358279946
 21
3.091327891185434
 31
0.0
  0
LINE
  5
39
330
17
100
AcDbEntity
  8
FoilLayer
100
AcDbLine
 10
267.4236358279946
 20
3.091327891185434
 30
0.0
 11
264.15856834540074
 21
3.794218139119614
 31
0.0
  0
LINE
  5
3A
330
17
100
AcDbEntity
  8
FoilLayer
100
AcDbLine
 10
264.15856834540074
 20
3.794218139119614
 30
0.0
 11
260.72482512846045
 21
4.542951977977394
 31
0.0
  0
LINE
  5
3B
330
17
100
AcDbEntity
  8
FoilLayer
100
AcDbLine
 10
260.72482512846045
 20
4.542951977977394
 30
0.0
 11
257.14181016042875
 21
5.324668107079328
 31
0.0
  0
LINE
  5
3C
330
17
100
AcDbEntity
  8
FoilLayer
100
AcDbLine
 10
257.14181016042875
 20
5.324668107079328
 30
0.0
 11
253.4298236824477
 21
6.119066285283294
 31
0.0
  0
LINE
  5
3D
330
17
100
AcDbEntity
  8
FoilLayer
100
AcDbLine
 10
253.4298236824477
 20
6.119066285283294
 30
0.0
 11
249.61082401275064
 21
6.9189316365983835
 31
0.0
  0
LINE
  5
3E
330
17
100
AcDbEntity
  8
FoilLayer
100
AcDbLine
 10
249.61082401275064
 20
6.9189316365983835
 30
0.0
 11
245.7061420890497
 21
7.723771219186709
 31
0.0
  0
LINE
  5
3F
330
17
100
AcDbEntity
  8
FoilLayer
100
AcDbLine
 10
245.7061420890497
 20
7.723771219186709
 30
0.0
 11
241.73925986798616
 21
8.559128382829746
 31
0.0
  0
LINE
  5
40
330
17
100
AcDbEntity
  8
FoilLayer
100
AcDbLine
 10
241.73925986798616
 20
8.559128382829746
 30
0.0
 11
237.72317308892258
 21
9.411021504489215
 31
0.0
  0
LINE
  5
41
330
17
100
AcDbEntity
  8
FoilLayer
100
AcDbLine
 10
237.72317308892258
 20
9.411021504489215
 30
0.0
 11
233.66877128518672
 21
10.270353566611359
 31
0.0
  0
LINE
  5
42
330
17
100
AcDbEntity
  8
FoilLayer
100
AcDbLine
 10
233.66877128518672
 20
10.270353566611359
 30
0.0
 11
229.58389671329041
 21
11.127131293755356
 31
0.0
  0
LINE
  5
43
330
17
100
AcDbEntity
  8
FoilLayer
100
AcDbLine
 10
229.58389671329041
 20
11.127131293755356
 30
0.0
 11
225.473254727141
 21
11.966924933939387
 31
0.0
  0
LINE
  5
44
330
17
100
AcDbEntity
  8
FoilLayer
100
AcDbLine
 10
225.473254727141
 20
11.966924933939387
 30
0.0
 11
221.34397057694048
 21
12.7968149244713
 31
0.0
  0
LINE
  5
45
330
17
100
AcDbEntity
  8
FoilLayer
100
AcDbLine
 10
221.34397057694048
 20
12.7968149244713
 30
0.0
 11
217.20594791234106
 21
13.646198524046975
 31
0.0
  0
LINE
  5
46
330
17
100
AcDbEntity
  8
FoilLayer
100
AcDbLine
 10
217.20594791234106
 20
13.646198524046975
 30
0.0
 11
213.0603966814902
 21
14.504006947761098
 31
0.0
  0
LINE
  5
47
330
17
100
AcDbEntity
  8
FoilLayer
100
AcDbLine
 10
213.0603966814902
 20
14.504006947761098
 30
0.0
 11
208.90780982622584
 21
15.360515797538977
 31
0.0
  0
LINE
  5
48
330
17
100
AcDbEntity
  8
FoilLayer
100
AcDbLine
 10
208.90780982622584
 20
15.360515797538977
 30
0.0
 11
204.74782884339328
 21
16.20564217215107
 31
0.0
  0
LINE
  5
49
330
17
100
AcDbEntity
  8
FoilLayer
100
AcDbLine
 10
204.74782884339328
 20
16.20564217215107
 30
0.0
 11
200.58000560404878
 21
17.029258357473502
 31
0.0
  0
LINE
  5
4A
330
17
100
AcDbEntity
  8
FoilLayer
100
AcDbLine
 10
200.58000560404878
 20
17.029258357473502
 30
0.0
 11
196.40514674029077
 21
17.830871411668376
 31
0.0
  0
LINE
  5
4B
330
17
100
AcDbEntity
  8
FoilLayer
100
AcDbLine
 10
196.40514674029077
 20
17.830871411668376
 30
0.0
 11
192.23019825074408
 21
18.642343302621015
 31
0.0
  0
LINE
  5
4C
330
17
100
AcDbEntity
  8
FoilLayer
100
AcDbLine
 10
192.23019825074408
 20
18.642343302621015
 30
0.0
 11
188.0585211024852
 21
19.475011692602838
 31
0.0
  0
LINE
  5
4D
330
17
100
AcDbEntity
  8
FoilLayer
100
AcDbLine
 10
188.0585211024852
 20
19.475011692602838
 30
0.0
 11
183.88675432843758
 21
20.30620125707101
 31
0.0
  0
LINE
  5
4E
330
17
100
AcDbEntity
  8
FoilLayer
100
AcDbLine
 10
183.88675432843758
 20
20.30620125707101
 30
0.0
 11
179.71176102599657
 21
21.123454011395246
 31
0.0
  0
LINE
  5
4F
330
17
100
AcDbEntity
  8
FoilLayer
100
AcDbLine
 10
179.71176102599657
 20
21.123454011395246
 30
0.0
 11
175.53161424070487
 21
21.91471528699447
 31
0.0
  0
LINE
  5
50
330
17
100
AcDbEntity
  8
FoilLayer
100
AcDbLine
 10
175.53161424070487
 20
21.91471528699447
 30
0.0
 11
171.34568659204155
 21
22.674114594708374
 31
0.0
  0
LINE
  5
51
330
17
100
AcDbEntity
  8
FoilLayer
100
AcDbLine
 10
171.34568659204155
 20
22.674114594708374
 30
0.0
 11
168.04687499999955
 21
23.256488232956855
 31
0.0
  0
LINE
  5
52
330
17
100
AcDbEntity
  8
FoilLayer
100
AcDbLine
 10
168.04687499999955
 20
23.256488232956855
 30
0.0
 11
167.78609693510936
 21
21.77933055658235
 31
0.0
  0
LINE
  5
53
330
17
100
AcDbEntity
  8
FoilLayer
100
AcDbLine
 10
167.78609693510936
 20
21.77933055658235
 30
0.0
 11
166.89172520775077
 21
21.9372291275418
 31
0.0
  0
LINE
  5
54
330
17
100
AcDbEntity
  8
FoilLayer
100
AcDbLine
 10
166.89172520775077
 20
21.9372291275418
 30
0.0
 11
162.7018370248217
 21
22.68884208910124
 31
0.0
  0
LINE
  5
55
330
17
100
AcDbEntity
  8
FoilLayer
100
AcDbLine
 10
162.7018370248217
 20
22.68884208910124
 30
0.0
 11
158.52047282393232
 21
23.448542753394552
 31
0.0
  0
LINE
  5
56
330
17
100
AcDbEntity
  8
FoilLayer
100
AcDbLine
 10
158.52047282393232
 20
23.448542753394552
 30
0.0
 11
154.34187212587517
 21
24.200303643137868
 31
0.0
  0
LINE
  5
57
330
17
100
AcDbEntity
  8
FoilLayer
100
AcDbLine
 10
154.34187212587517
 20
24.200303643137868
 30
0.0
 11
150.165399744777
 21
24.935946363650046
 31
0.0
  0
LINE
  5
58
330
17
100
AcDbEntity
  8
FoilLayer
100
AcDbLine
 10
150.165399744777
 20
24.935946363650046
 30
0.0
 11
145.98688250328792
 21
25.644690014934643
 31
0.0
  0
LINE
  5
59
330
17
100
AcDbEntity
  8
FoilLayer
100
AcDbLine
 10
145.98688250328792
 20
25.644690014934643
 30
0.0
 11
141.79898056923764
 21
26.324062173596268
 31
0.0
  0
LINE
  5
5A
330
17
100
AcDbEntity
  8
FoilLayer
100
AcDbLine
 10
141.79898056923764
 20
26.324062173596268
 30
0.0
 11
137.60357012510053
 21
26.9901983823048
 31
0.0
  0
LINE
  5
5B
330
17
100
AcDbEntity
  8
FoilLayer
100
AcDbLine
 10
137.60357012510053
 20
26.9901983823048
 30
0.0
 11
133.41194397880548
 21
27.66049292456042
 31
0.0
  0
LINE
  5
5C
330
17
100
AcDbEntity
  8
FoilLayer
100
AcDbLine
 10
133.41194397880548
 20
27.66049292456042
 30
0.0
 11
129.22916893723442
 21
28.33070351171971
 31
0.0
  0
LINE
  5
5D
330
17
100
AcDbEntity
  8
FoilLayer
100
AcDbLine
 10
129.22916893723442
 20
28.33070351171971
 30
0.0
 11
125.04781323993899
 21
28.98328035506209
 31
0.0
  0
LINE
  5
5E
330
17
100
AcDbEntity
  8
FoilLayer
100
AcDbLine
 10
125.04781323993899
 20
28.98328035506209
 30
0.0
 11
120.86814015699053
 21
29.612209283432456
 31
0.0
  0
LINE
  5
5F
330
17
100
AcDbEntity
  8
FoilLayer
100
AcDbLine
 10
120.86814015699053
 20
29.612209283432456
 30
0.0
 11
116.68012858839938
 21
30.210249455290516
 31
0.0
  0
LINE
  5
60
330
17
100
AcDbEntity
  8
FoilLayer
100
AcDbLine
 10
116.68012858839938
 20
30.210249455290516
 30
0.0
 11
112.49001082504378
 21
30.79420796935408
 31
0.0
  0
LINE
  5
61
330
17
100
AcDbEntity
  8
FoilLayer
100
AcDbLine
 10
112.49001082504378
 20
30.79420796935408
 30
0.0
 11
108.30123141752489
 21
31.37057589236619
 31
0.0
  0
LINE
  5
62
330
17
100
AcDbEntity
  8
FoilLayer
100
AcDbLine
 10
108.30123141752489
 20
31.37057589236619
 30
0.0
 11
104.11709011937086
 21
31.940351877739946
 31
0.0
  0
LINE
  5
63
330
17
100
AcDbEntity
  8
FoilLayer
100
AcDbLine
 10
104.11709011937086
 20
31.940351877739946
 30
0.0
 11
99.93943019251293
 21
32.49646467657628
 31
0.0
  0
LINE
  5
64
330
17
100
AcDbEntity
  8
FoilLayer
100
AcDbLine
 10
99.93943019251293
 20
32.49646467657628
 30
0.0
 11
95.76253882825421
 21
33.02554721886148
 31
0.0
  0
LINE
  5
65
330
17
100
AcDbEntity
  8
FoilLayer
100
AcDbLine
 10
95.76253882825421
 20
33.02554721886148
 30
0.0
 11
91.5841598555437
 21
33.52523060578943
 31
0.0
  0
LINE
  5
66
330
17
100
AcDbEntity
  8
FoilLayer
100
AcDbLine
 10
91.5841598555437
 20
33.52523060578943
 30
0.0
 11
87.4020942295939
 21
34.00066972510747
 31
0.0
  0
LINE
  5
67
330
17
100
AcDbEntity
  8
FoilLayer
100
AcDbLine
 10
87.4020942295939
 20
34.00066972510747
 30
0.0
 11
83.21990654302391
 21
34.46527293261704
 31
0.0
  0
LINE
  5
68
330
17
100
AcDbEntity
  8
FoilLayer
100
AcDbLine
 10
83.21990654302391
 20
34.46527293261704
 30
0.0
 11
79.04429604159341
 21
34.92642406898489
 31
0.0
  0
LINE
  5
69
330
17
100
AcDbEntity
  8
FoilLayer
100
AcDbLine
 10
79.04429604159341
 20
34.92642406898489
 30
0.0
 11
74.8757799620912
 21
35.37587688268998
 31
0.0
  0
LINE
  5
6A
330
17
100
AcDbEntity
  8
FoilLayer
100
AcDbLine
 10
74.8757799620912
 20
35.37587688268998
 30
0.0
 11
70.7110480887095
 21
35.802726359922424
 31
0.0
  0
LINE
  5
6B
330
17
100
AcDbEntity
  8
FoilLayer
100
AcDbLine
 10
70.7110480887095
 20
35.802726359922424
 30
0.0
 11
66.54741164445451
 21
36.20294893641804
 31
0.0
  0
LINE
  5
6C
330
17
100
AcDbEntity
  8
FoilLayer
100
AcDbLine
 10
66.54741164445451
 20
36.20294893641804
 30
0.0
 11
62.38315016639385
 21
36.58022306496016
 31
0.0
  0
LINE
  5
6D
330
17
100
AcDbEntity
  8
FoilLayer
100
AcDbLine
 10
62.38315016639385
 20
36.58022306496016
 30
0.0
 11
58.2220129009107
 21
36.944319985877705
 31
0.0
  0
LINE
  5
6E
330
17
100
AcDbEntity
  8
FoilLayer
100
AcDbLine
 10
58.2220129009107
 20
36.944319985877705
 30
0.0
 11
54.065662834592445
 21
37.29755267008859
 31
0.0
  0
LINE
  5
6F
330
17
100
AcDbEntity
  8
FoilLayer
100
AcDbLine
 10
54.065662834592445
 20
37.29755267008859
 30
0.0
 11
49.9163010951024
 21
37.638796719569264
 31
0.0
  0
LINE
  5
70
330
17
100
AcDbEntity
  8
FoilLayer
100
AcDbLine
 10
49.9163010951024
 20
37.638796719569264
 30
0.0
 11
45.77531201665886
 21
37.962009912771734
 31
0.0
  0
LINE
  5
71
330
17
100
AcDbEntity
  8
FoilLayer
100
AcDbLine
 10
45.77531201665886
 20
37.962009912771734
 30
0.0
 11
41.63974406549528
 21
38.259032301121835
 31
0.0
  0
LINE
  5
72
330
17
100
AcDbEntity
  8
FoilLayer
100
AcDbLine
 10
41.63974406549528
 20
38.259032301121835
 30
0.0
 11
37.5079299204734
 21
38.53056188790933
 31
0.0
  0
LINE
  5
73
330
17
100
AcDbEntity
  8
FoilLayer
100
AcDbLine
 10
37.5079299204734
 20
38.53056188790933
 30
0.0
 11
33.3818128370408
 21
38.78453062631238
 31
0.0
  0
LINE
  5
74
330
17
100
AcDbEntity
  8
FoilLayer
100
AcDbLine
 10
33.3818128370408
 20
38.78453062631238
 30
0.0
 11
29.26228704457526
 21
39.02427527807269
 31
0.0
  0
LINE
  5
75
330
17
100
AcDbEntity
  8
FoilLayer
100
AcDbLine
 10
29.26228704457526
 20
39.02427527807269
 30
0.0
 11
25.152419176570618
 21
39.250171613532885
 31
0.0
  0
LINE
  5
76
330
17
100
AcDbEntity
  8
FoilLayer
100
AcDbLine
 10
25.152419176570618
 20
39.250171613532885
 30
0.0
 11
21.054395685556216
 21
39.45645724680102
 31
0.0
  0
LINE
  5
77
330
17
100
AcDbEntity
  8
FoilLayer
100
AcDbLine
 10
21.054395685556216
 20
39.45645724680102
 30
0.0
 11
16.972307414125083
 21
39.63947734831236
 31
0.0
  0
LINE
  5
78
330
17
100
AcDbEntity
  8
FoilLayer
100
AcDbLine
 10
16.972307414125083
 20
39.63947734831236
 30
0.0
 11
12.9101972730586
 21
39.798704789524365
 31
0.0
  0
LINE
  5
79
330
17
100
AcDbEntity
  8
FoilLayer
100
AcDbLine
 10
12.9101972730586
 20
39.798704789524365
 30
0.0
 11
8.868569111718244
 21
39.93438209018286
 31
0.0
  0
LINE
  5
7A
330
17
100
AcDbEntity
  8
FoilLayer
100
AcDbLine
 10
8.868569111718244
 20
39.93438209018286
 30
0.0
 11
4.846214987936435
 21
40.048588195765575
 31
0.0
  0
LINE
  5
7B
330
17
100
AcDbEntity
  8
FoilLayer
100
AcDbLine
 10
4.846214987936435
 20
40.048588195765575
 30
0.0
 11
0.8406091746593916
 21
40.141458589765
 31
0.0
  0
LINE
  5
7C
330
17
100
AcDbEntity
  8
FoilLayer
100
AcDbLine
 10
0.8406091746593916
 20
40.141458589765
 30
0.0
 11
-3.1482240041570435
 21
40.21310065353666
 31
0.0
  0
LINE
  5
7D
330
17
100
AcDbEntity
  8
FoilLayer
100
AcDbLine
 10
-3.1482240041570435
 20
40.21310065353666
 30
0.0
 11
-7.123489065151489
 21
40.257517491343755
 31
0.0
  0
LINE
  5
7E
330
17
100
AcDbEntity
  8
FoilLayer
100
AcDbLine
 10
-7.123489065151489
 20
40.257517491343755
 30
0.0
 11
-11.088785996996563
 21
40.27279113611806
 31
0.0
  0
LINE
  5
7F
330
17
100
AcDbEntity
  8
FoilLayer
100
AcDbLine
 10
-11.088785996996563
 20
40.27279113611806
 30
0.0
 11
-15.043550748521
 21
40.26422606085721
 31
0.0
  0
LINE
  5
80
330
17
100
AcDbEntity
  8
FoilLayer
100
AcDbLine
 10
-15.043550748521
 20
40.26422606085721
 30
0.0
 11
-18.986389344274585
 21
40.23455479110257
 31
0.0
  0
LINE
  5
81
330
17
100
AcDbEntity
  8
FoilLayer
100
AcDbLine
 10
-18.986389344274585
 20
40.23455479110257
 30
0.0
 11
-22.915724305977193
 21
40.18344507544694
 31
0.0
  0
LINE
  5
82
330
17
100
AcDbEntity
  8
FoilLayer
100
AcDbLine
 10
-22.915724305977193
 20
40.18344507544694
 30
0.0
 11
-26.831734413666254
 21
40.10736591747851
 31
0.0
  0
LINE
  5
83
330
17
100
AcDbEntity
  8
FoilLayer
100
AcDbLine
 10
-26.831734413666254
 20
40.10736591747851
 30
0.0
 11
-30.73388468384988
 21
40.004586258858346
 31
0.0
  0
LINE
  5
84
330
17
100
AcDbEntity
  8
FoilLayer
100
AcDbLine
 10
-30.73388468384988
 20
40.004586258858346
 30
0.0
 11
-34.622534355237036
 21
39.873254464441374
 31
0.0
  0
LINE
  5
85
330
17
100
AcDbEntity
  8
FoilLayer
100
AcDbLine
 10
-34.622534355237036
 20
39.873254464441374
 30
0.0
 11
-38.49778284819561
 21
39.713508432813555
 31
0.0
  0
LINE
  5
86
330
17
100
AcDbEntity
  8
FoilLayer
100
AcDbLine
 10
-38.49778284819561
 20
39.713508432813555
 30
0.0
 11
-42.35834629777908
 21
39.52778154805369
 31
0.0
  0
LINE
  5
87
330
17
100
AcDbEntity
  8
FoilLayer
100
AcDbLine
 10
-42.35834629777908
 20
39.52778154805369
 30
0.0
 11
-46.2014966753172
 21
39.31714242170704
 31
0.0
  0
LINE
  5
88
330
17
100
AcDbEntity
  8
FoilLayer
100
AcDbLine
 10
-46.2014966753172
 20
39.31714242170704
 30
0.0
 11
-50.028588417920815
 21
39.076911410162616
 31
0.0
  0
LINE
  5
89
330
17
100
AcDbEntity
  8
FoilLayer
100
AcDbLine
 10
-50.028588417920815
 20
39.076911410162616
 30
0.0
 11
-53.83982156701883
 21
38.80964880814219
 31
0.0
  0
LINE
  5
8A
330
17
100
AcDbEntity
  8
FoilLayer
100
AcDbLine
 10
-53.83982156701883
 20
38.80964880814219
 30
0.0
 11
-57.62701114117529
 21
38.52069694912525
 31
0.0
  0
LINE
  5
8B
330
17
100
AcDbEntity
  8
FoilLayer
100
AcDbLine
 10
-57.62701114117529
 20
38.52069694912525
 30
0.0
 11
-61.39872116063965
 21
38.19636964296386
 31
0.0
  0
LINE
  5
8C
330
17
100
AcDbEntity
  8
FoilLayer
100
AcDbLine
 10
-61.39872116063965
 20
38.19636964296386
 30
0.0
 11
-65.14327487659929
 21
37.853229267759374
 31
0.0
  0
LINE
  5
8D
330
17
100
AcDbEntity
  8
FoilLayer
100
AcDbLine
 10
-65.14327487659929
 20
37.853229267759374
 30
0.0
 11
-68.86155717004115
 21
37.47542470840154
 31
0.0
  0
LINE
  5
8E
330
17
100
AcDbEntity
  8
FoilLayer
100
AcDbLine
 10
-68.86155717004115
 20
37.47542470840154
 30
0.0
 11
-72.56022709385422
 21
37.058351785303124
 31
0.0
  0
LINE
  5
8F
330
17
100
AcDbEntity
  8
FoilLayer
100
AcDbLine
 10
-72.56022709385422
 20
37.058351785303124
 30
0.0
 11
-76.23126168802838
 21
36.62122087698242
 31
0.0
  0
LINE
  5
90
330
17
100
AcDbEntity
  8
FoilLayer
100
AcDbLine
 10
-76.23126168802838
 20
36.62122087698242
 30
0.0
 11
-79.8686566801297
 21
36.1632566521984
 31
0.0
  0
LINE
  5
91
330
17
100
AcDbEntity
  8
FoilLayer
100
AcDbLine
 10
-79.8686566801297
 20
36.1632566521984
 30
0.0
 11
-83.4687474775265
 21
35.67500076175323
 31
0.0
  0
LINE
  5
92
330
17
100
AcDbEntity
  8
FoilLayer
100
AcDbLine
 10
-83.4687474775265
 20
35.67500076175323
 30
0.0
 11
-87.0293643362228
 21
35.148393814241324
 31
0.0
  0
LINE
  5
93
330
17
100
AcDbEntity
  8
FoilLayer
100
AcDbLine
 10
-87.0293643362228
 20
35.148393814241324
 30
0.0
 11
-90.55245490468903
 21
34.58019391523323
 31
0.0
  0
LINE
  5
94
330
17
100
AcDbEntity
  8
FoilLayer
100
AcDbLine
 10
-90.55245490468903
 20
34.58019391523323
 30
0.0
 11
-94.03770113143635
 21
33.98244145437374
 31
0.0
  0
LINE
  5
95
330
17
100
AcDbEntity
  8
FoilLayer
100
AcDbLine
 10
-94.03770113143635
 20
33.98244145437374
 30
0.0
 11
-97.47504641310546
 21
33.37371936933484
 31
0.0
  0
LINE
  5
96
330
17
100
AcDbEntity
  8
FoilLayer
100
AcDbLine
 10
-97.47504641310546
 20
33.37371936933484
 30
0.0
 11
-100.84868881707771
 21
32.753915934633554
 31
0.0
  0
LINE
  5
97
330
17
100
AcDbEntity
  8
FoilLayer
100
AcDbLine
 10
-100.84868881707771
 20
32.753915934633554
 30
0.0
 11
-104.15766570479477
 21
32.09739849298645
 31
0.0
  0
LINE
  5
98
330
17
100
AcDbEntity
  8
FoilLayer
100
AcDbLine
 10
-104.15766570479477
 20
32.09739849298645
 30
0.0
 11
-107.39556581499221
 21
31.402253878456342
 31
0.0
  0
LINE
  5
99
330
17
100
AcDbEntity
  8
FoilLayer
100
AcDbLine
 10
-107.39556581499221
 20
31.402253878456342
 30
0.0
 11
-110.56152721686341
 21
30.66832592057335
 31
0.0
  0
LINE
  5
9A
330
17
100
AcDbEntity
  8
FoilLayer
100
AcDbLine
 10
-110.56152721686341
 20
30.66832592057335
 30
0.0
 11
-113.64987219988302
 21
29.9105739786188
 31
0.0
  0
LINE
  5
9B
330
17
100
AcDbEntity
  8
FoilLayer
100
AcDbLine
 10
-113.64987219988302
 20
29.9105739786188
 30
0.0
 11
-116.65437846634998
 21
29.14321878966298
 31
0.0
  0
LINE
  5
9C
330
17
100
AcDbEntity
  8
FoilLayer
100
AcDbLine
 10
-116.65437846634998
 20
29.14321878966298
 30
0.0
 11
-119.56546809749653
 21
28.37773885745779
 31
0.0
  0
LINE
  5
9D
330
17
100
AcDbEntity
  8
FoilLayer
100
AcDbLine
 10
-119.56546809749653
 20
28.37773885745779
 30
0.0
 11
-122.36636022364678
 21
27.616972817582152
 31
0.0
  0
LINE
  5
9E
330
17
100
AcDbEntity
  8
FoilLayer
100
AcDbLine
 10
-122.36636022364678
 20
27.616972817582152
 30
0.0
 11
-125.05486522963976
 21
26.840705347134843
 31
0.0
  0
LINE
  5
9F
330
17
100
AcDbEntity
  8
FoilLayer
100
AcDbLine
 10
-125.05486522963976
 20
26.840705347134843
 30
0.0
 11
-127.6256745925226
 21
26.050280178863307
 31
0.0
  0
LINE
  5
A0
330
17
100
AcDbEntity
  8
FoilLayer
100
AcDbLine
 10
-127.6256745925226
 20
26.050280178863307
 30
0.0
 11
-130.07855966627693
 21
25.24737367587197
 31
0.0
  0
LINE
  5
A1
330
17
100
AcDbEntity
  8
FoilLayer
100
AcDbLine
 10
-130.07855966627693
 20
25.24737367587197
 30
0.0
 11
-132.4131553958479
 21
24.44146629397634
 31
0.0
  0
LINE
  5
A2
330
17
100
AcDbEntity
  8
FoilLayer
100
AcDbLine
 10
-132.4131553958479
 20
24.44146629397634
 30
0.0
 11
-134.62963645164876
 21
23.64159911528061
 31
0.0
  0
LINE
  5
A3
330
17
100
AcDbEntity
  8
FoilLayer
100
AcDbLine
 10
-134.62963645164876
 20
23.64159911528061
 30
0.0
 11
-136.72936107515008
 21
22.854160836430978
 31
0.0
  0
LINE
  5
A4
330
17
100
AcDbEntity
  8
FoilLayer
100
AcDbLine
 10
-136.72936107515008
 20
22.854160836430978
 30
0.0
 11
-138.71267475855092
 21
22.08462689406776
 31
0.0
  0
LINE
  5
A5
330
17
100
AcDbEntity
  8
FoilLayer
100
AcDbLine
 10
-138.71267475855092
 20
22.08462689406776
 30
0.0
 11
-140.5836155483763
 21
21.333387005267344
 31
0.0
  0
LINE
  5
A6
330
17
100
AcDbEntity
  8
FoilLayer
100
AcDbLine
 10
-140.5836155483763
 20
21.333387005267344
 30
0.0
 11
-142.3426226552785
 21
20.603787831840393
 31
0.0
  0
LINE
  5
A7
330
17
100
AcDbEntity
  8
FoilLayer
100
AcDbLine
 10
-142.3426226552785
 20
20.603787831840393
 30
0.0
 11
-143.98971794272035
 21
19.892921088433383
 31
0.0
  0
LINE
  5
A8
330
17
100
AcDbEntity
  8
FoilLayer
100
AcDbLine
 10
-143.98971794272035
 20
19.892921088433383
 30
0.0
 11
-145.53276787467115
 21
19.191357003169948
 31
0.0
  0
LINE
  5
A9
330
17
100
AcDbEntity
  8
FoilLayer
100
AcDbLine
 10
-145.53276787467115
 20
19.191357003169948
 30
0.0
 11
-146.9825397721624
 21
18.49591844462143
 31
0.0
  0
LINE
  5
AA
330
17
100
AcDbEntity
  8
FoilLayer
100
AcDbLine
 10
-146.9825397721624
 20
18.49591844462143
 30
0.0
 11
-148.3441496343552
 21
17.812599374964275
 31
0.0
  0
LINE
  5
AB
330
17
100
AcDbEntity
  8
FoilLayer
100
AcDbLine
 10
-148.3441496343552
 20
17.812599374964275
 30
0.0
 11
-149.62208077491061
 21
17.143963245917217
 31
0.0
  0
LINE
  5
AC
330
17
100
AcDbEntity
  8
FoilLayer
100
AcDbLine
 10
-149.62208077491061
 20
17.143963245917217
 30
0.0
 11
-150.822647098505
 21
16.488780354737692
 31
0.0
  0
LINE
  5
AD
330
17
100
AcDbEntity
  8
FoilLayer
100
AcDbLine
 10
-150.822647098505
 20
16.488780354737692
 30
0.0
 11
-151.9523435367046
 21
15.846673458550573
 31
0.0
  0
LINE
  5
AE
330
17
100
AcDbEntity
  8
FoilLayer
100
AcDbLine
 10
-151.9523435367046
 20
15.846673458550573
 30
0.0
 11
-153.0171804062719
 21
15.218241377415659
 31
0.0
  0
LINE
  5
AF
330
17
100
AcDbEntity
  8
FoilLayer
100
AcDbLine
 10
-153.0171804062719
 20
15.218241377415659
 30
0.0
 11
-154.02242275850935
 21
14.604364488593482
 31
0.0
  0
LINE
  5
B0
330
17
100
AcDbEntity
  8
FoilLayer
100
AcDbLine
 10
-154.02242275850935
 20
14.604364488593482
 30
0.0
 11
-154.96990060962145
 21
14.00749521810864
 31
0.0
  0
LINE
  5
B1
330
17
100
AcDbEntity
  8
FoilLayer
100
AcDbLine
 10
-154.96990060962145
 20
14.00749521810864
 30
0.0
 11
-155.864986353833
 21
13.42414331041413
 31
0.0
  0
LINE
  5
B2
330
17
100
AcDbEntity
  8
FoilLayer
100
AcDbLine
 10
-155.864986353833
 20
13.42414331041413
 30
0.0
 11
-156.70261300708754
 21
12.860023860569909
 31
0.0
  0
LINE
  5
B3
330
17
100
AcDbEntity
  8
FoilLayer
100
AcDbLine
 10
-156.70261300708754
 20
12.860023860569909
 30
0.0
 11
-157.4950919713229
 21
12.301738614827551
 31
0.0
  0
LINE
  5
B4
330
17
100
AcDbEntity
  8
FoilLayer
100
AcDbLine
 10
-157.4950919713229
 20
12.301738614827551
 30
0.0
 11
-158.23963104534826
 21
11.755587669770716
 31
0.0
  0
LINE
  5
B5
330
17
100
AcDbEntity
  8
FoilLayer
100
AcDbLine
 10
-158.23963104534826
 20
11.755587669770716
 30
0.0
 11
-158.9479680972736
 21
11.211013188532055
 31
0.0
  0
LINE
  5
B6
330
17
100
AcDbEntity
  8
FoilLayer
100
AcDbLine
 10
-158.9479680972736
 20
11.211013188532055
 30
0.0
 11
-159.61079358327981
 21
10.682393648481519
 31
0.0
  0
LINE
  5
B7
330
17
100
AcDbEntity
  8
FoilLayer
100
AcDbLine
 10
-159.61079358327981
 20
10.682393648481519
 30
0.0
 11
-160.23916514135558
 21
10.15672132465779
 31
0.0
  0
LINE
  5
B8
330
17
100
AcDbEntity
  8
FoilLayer
100
AcDbLine
 10
-160.23916514135558
 20
10.15672132465779
 30
0.0
 11
-160.81956892677462
 21
9.651322737519918
 31
0.0
  0
LINE
  5
B9
330
17
100
AcDbEntity
  8
FoilLayer
100
AcDbLine
 10
-160.81956892677462
 20
9.651322737519918
 30
0.0
 11
-161.37916290407296
 21
9.131989271712213
 31
0.0
  0
LINE
  5
BA
330
17
100
AcDbEntity
  8
FoilLayer
100
AcDbLine
 10
-161.37916290407296
 20
9.131989271712213
 30
0.0
 11
-161.89999777296396
 21
8.629074387644447
 31
0.0
  0
LINE
  5
BB
330
17
100
AcDbEntity
  8
FoilLayer
100
AcDbLine
 10
-161.89999777296396
 20
8.629074387644447
 30
0.0
 11
-162.3884734043539
 21
8.131280044276135
 31
0.0
  0
LINE
  5
BC
330
17
100
AcDbEntity
  8
FoilLayer
100
AcDbLine
 10
-162.3884734043539
 20
8.131280044276135
 30
0.0
 11
-162.84747838973564
 21
7.636084405797513
 31
0.0
  0
LINE
  5
BD
330
17
100
AcDbEntity
  8
FoilLayer
100
AcDbLine
 10
-162.84747838973564
 20
7.636084405797513
 30
0.0
 11
-163.27746164669057
 21
7.14555818739516
 31
0.0
  0
LINE
  5
BE
330
17
100
AcDbEntity
  8
FoilLayer
100
AcDbLine
 10
-163.27746164669057
 20
7.14555818739516
 30
0.0
 11
-163.67727053341608
 21
6.6626268813460525
 31
0.0
  0
LINE
  5
BF
330
17
100
AcDbEntity
  8
FoilLayer
100
AcDbLine
 10
-163.67727053341608
 20
6.6626268813460525
 30
0.0
 11
-164.05041953646005
 21
6.181298182717193
 31
0.0
  0
LINE
  5
C0
330
17
100
AcDbEntity
  8
FoilLayer
100
AcDbLine
 10
-164.05041953646005
 20
6.181298182717193
 30
0.0
 11
-164.395731735198
 21
5.70593620447217
 31
0.0
  0
LINE
  5
C1
330
17
100
AcDbEntity
  8
FoilLayer
100
AcDbLine
 10
-164.395731735198
 20
5.70593620447217
 30
0.0
 11
-164.7152558540369
 21
5.235288648641935
 31
0.0
  0
LINE
  5
C2
330
17
100
AcDbEntity
  8
FoilLayer
100
AcDbLine
 10
-164.7152558540369
 20
5.235288648641935
 30
0.0
 11
-165.011858571297
 21
4.76648375024276
 31
0.0
  0
LINE
  5
C3
330
17
100
AcDbEntity
  8
FoilLayer
100
AcDbLine
 10
-165.011858571297
 20
4.76648375024276
 30
0.0
 11
-165.28708385812402
 21
4.299177145203151
 31
0.0
  0
LINE
  5
C4
330
17
100
AcDbEntity
  8
FoilLayer
100
AcDbLine
 10
-165.28708385812402
 20
4.299177145203151
 30
0.0
 11
-165.54188153976685
 21
3.833506259783361
 31
0.0
  0
LINE
  5
C5
330
17
100
AcDbEntity
  8
FoilLayer
100
AcDbLine
 10
-165.54188153976685
 20
3.833506259783361
 30
0.0
 11
-165.7686755513822
 21
3.3877095690578143
 31
0.0
  0
LINE
  5
C6
330
17
100
AcDbEntity
  8
FoilLayer
100
AcDbLine
 10
-165.7686755513822
 20
3.3877095690578143
 30
0.0
 11
-165.9614395325367
 21
2.968083159807934
 31
0.0
  0
LINE
  5
C7
330
17
100
AcDbEntity
  8
FoilLayer
100
AcDbLine
 10
-165.9614395325367
 20
2.968083159807934
 30
0.0
 11
-166.11634931150147
 21
2.57031439942023
 31
0.0
  0
LINE
  5
C8
330
17
100
AcDbEntity
  8
FoilLayer
100
AcDbLine
 10
-166.11634931150147
 20
2.57031439942023
 30
0.0
 11
-166.24021893342783
 21
2.156680258326116
 31
0.0
  0
LINE
  5
C9
330
17
100
AcDbEntity
  8
FoilLayer
100
AcDbLine
 10
-166.24021893342783
 20
2.156680258326116
 30
0.0
 11
-166.33828827290012
 21
1.717257798179752
 31
0.0
  0
LINE
  5
CA
330
17
100
AcDbEntity
  8
FoilLayer
100
AcDbLine
 10
-166.33828827290012
 20
1.717257798179752
 30
0.0
 11
-166.41659264545484
 21
1.265060637186891
 31
0.0
  0
LINE
  5
CB
330
17
100
AcDbEntity
  8
FoilLayer
100
AcDbLine
 10
-166.41659264545484
 20
1.265060637186891
 30
0.0
 11
-166.48246591921276
 21
0.7934810694216512
 31
0.0
  0
LINE
  5
CC
330
17
100
AcDbEntity
  8
FoilLayer
100
AcDbLine
 10
-166.48246591921276
 20
0.7934810694216512
 30
0.0
 11
-166.52804424924503
 21
0.43124686021429526
 31
0.0
  0
LINE
  5
CD
330
17
100
AcDbEntity
  8
FoilLayer
100
AcDbLine
 10
-166.52804424924503
 20
0.43124686021429526
 30
0.0
 11
-166.54687499999955
 21
0.0
 31
0.0
  0
LINE
  5
CE
330
17
100
AcDbEntity
  8
FoilLayer
100
AcDbLine
 10
-166.54687499999955
 20
0.0
 30
0.0
 11
-166.50674986635204
 21
-0.3235273954629806
 31
0.0
  0
LINE
  5
CF
330
17
100
AcDbEntity
  8
FoilLayer
100
AcDbLine
 10
-166.50674986635204
 20
-0.3235273954629806
 30
0.0
 11
-166.46098311596572
 21
-0.7671256987265489
 31
0.0
  0
LINE
  5
D0
330
17
100
AcDbEntity
  8
FoilLayer
100
AcDbLine
 10
-166.46098311596572
 20
-0.7671256987265489
 30
0.0
 11
-166.4080119889166
 21
-1.1883902335334637
 31
0.0
  0
LINE
  5
D1
330
17
100
AcDbEntity
  8
FoilLayer
100
AcDbLine
 10
-166.4080119889166
 20
-1.1883902335334637
 30
0.0
 11
-166.3376042075677
 21
-1.5909974901079882
 31
0.0
  0
LINE
  5
D2
330
17
100
AcDbEntity
  8
FoilLayer
100
AcDbLine
 10
-166.3376042075677
 20
-1.5909974901079882
 30
0.0
 11
-166.24353235581623
 21
-1.982556517999977
 31
0.0
  0
LINE
  5
D3
330
17
100
AcDbEntity
  8
FoilLayer
100
AcDbLine
 10
-166.24353235581623
 20
-1.982556517999977
 30
0.0
 11
-166.11986427091907
 21
-2.366862354477238
 31
0.0
  0
LINE
  5
D4
330
17
100
AcDbEntity
  8
FoilLayer
100
AcDbLine
 10
-166.11986427091907
 20
-2.366862354477238
 30
0.0
 11
-165.95506284165853
 21
-2.7593315628203
 31
0.0
  0
LINE
  5
D5
330
17
100
AcDbEntity
  8
FoilLayer
100
AcDbLine
 10
-165.95506284165853
 20
-2.7593315628203
 30
0.0
 11
-165.7617586634643
 21
-3.139457675703651
 31
0.0
  0
LINE
  5
D6
330
17
100
AcDbEntity
  8
FoilLayer
100
AcDbLine
 10
-165.7617586634643
 20
-3.139457675703651
 30
0.0
 11
-165.51469345975022
 21
-3.5324492865160706
 31
0.0
  0
LINE
  5
D7
330
17
100
AcDbEntity
  8
FoilLayer
100
AcDbLine
 10
-165.51469345975022
 20
-3.5324492865160706
 30
0.0
 11
-165.23233323063502
 21
-3.928052070286882
 31
0.0
  0
LINE
  5
D8
330
17
100
AcDbEntity
  8
FoilLayer
100
AcDbLine
 10
-165.23233323063502
 20
-3.928052070286882
 30
0.0
 11
-164.91435886194037
 21
-4.326957793220607
 31
0.0
  0
LINE
  5
D9
330
17
100
AcDbEntity
  8
FoilLayer
100
AcDbLine
 10
-164.91435886194037
 20
-4.326957793220607
 30
0.0
 11
-164.57108762392284
 21
-4.72226507775263
 31
0.0
  0
LINE
  5
DA
330
17
100
AcDbEntity
  8
FoilLayer
100
AcDbLine
 10
-164.57108762392284
 20
-4.72226507775263
 30
0.0
 11
-164.20760196366146
 21
-5.108405319488193
 31
0.0
  0
LINE
  5
DB
330
17
100
AcDbEntity
  8
FoilLayer
100
AcDbLine
 10
-164.20760196366146
 20
-5.108405319488193
 30
0.0
 11
-163.8120836447345
 21
-5.490780923160925
 31
0.0
  0
LINE
  5
DC
330
17
100
AcDbEntity
  8
FoilLayer
100
AcDbLine
 10
-163.8120836447345
 20
-5.490780923160925
 30
0.0
 11
-163.38448996934628
 21
-5.869275057425336
 31
0.0
  0
LINE
  5
DD
330
17
100
AcDbEntity
  8
FoilLayer
100
AcDbLine
 10
-163.38448996934628
 20
-5.869275057425336
 30
0.0
 11
-162.9262527743626
 21
-6.243118678463238
 31
0.0
  0
LINE
  5
DE
330
17
100
AcDbEntity
  8
FoilLayer
100
AcDbLine
 10
-162.9262527743626
 20
-6.243118678463238
 30
0.0
 11
-162.4445298011106
 21
-6.607489027540896
 31
0.0
  0
LINE
  5
DF
330
17
100
AcDbEntity
  8
FoilLayer
100
AcDbLine
 10
-162.4445298011106
 20
-6.607489027540896
 30
0.0
 11
-161.92431252709883
 21
-6.967563392548478
 31
0.0
  0
LINE
  5
E0
330
17
100
AcDbEntity
  8
FoilLayer
100
AcDbLine
 10
-161.92431252709883
 20
-6.967563392548478
 30
0.0
 11
-161.3696651441363
 21
-7.32391805063257
 31
0.0
  0
LINE
  5
E1
330
17
100
AcDbEntity
  8
FoilLayer
100
AcDbLine
 10
-161.3696651441363
 20
-7.32391805063257
 30
0.0
 11
-160.78262033269
 21
-7.676394007302834
 31
0.0
  0
LINE
  5
E2
330
17
100
AcDbEntity
  8
FoilLayer
100
AcDbLine
 10
-160.78262033269
 20
-7.676394007302834
 30
0.0
 11
-160.162324797081
 21
-8.02556405051538
 31
0.0
  0
LINE
  5
E3
330
17
100
AcDbEntity
  8
FoilLayer
100
AcDbLine
 10
-160.162324797081
 20
-8.02556405051538
 30
0.0
 11
-159.50575664022884
 21
-8.373004775599945
 31
0.0
  0
LINE
  5
E4
330
17
100
AcDbEntity
  8
FoilLayer
100
AcDbLine
 10
-159.50575664022884
 20
-8.373004775599945
 30
0.0
 11
-158.8133386096936
 21
-8.719588684194134
 31
0.0
  0
LINE
  5
E5
330
17
100
AcDbEntity
  8
FoilLayer
100
AcDbLine
 10
-158.8133386096936
 20
-8.719588684194134
 30
0.0
 11
-158.0870069279486
 21
-9.064694987486607
 31
0.0
  0
LINE
  5
E6
330
17
100
AcDbEntity
  8
FoilLayer
100
AcDbLine
 10
-158.0870069279486
 20
-9.064694987486607
 30
0.0
 11
-157.32552298283736
 21
-9.407043197742421
 31
0.0
  0
LINE
  5
E7
330
17
100
AcDbEntity
  8
FoilLayer
100
AcDbLine
 10
-157.32552298283736
 20
-9.407043197742421
 30
0.0
 11
-156.52289568722875
 21
-9.746435942722533
 31
0.0
  0
LINE
  5
E8
330
17
100
AcDbEntity
  8
FoilLayer
100
AcDbLine
 10
-156.52289568722875
 20
-9.746435942722533
 30
0.0
 11
-155.6759522352278
 21
-10.083190035751773
 31
0.0
  0
LINE
  5
E9
330
17
100
AcDbEntity
  8
FoilLayer
100
AcDbLine
 10
-155.6759522352278
 20
-10.083190035751773
 30
0.0
 11
-154.77992032007677
 21
-10.418388751309084
 31
0.0
  0
LINE
  5
EA
330
17
100
AcDbEntity
  8
FoilLayer
100
AcDbLine
 10
-154.77992032007677
 20
-10.418388751309084
 30
0.0
 11
-153.83330975569837
 21
-10.753326920657742
 31
0.0
  0
LINE
  5
EB
330
17
100
AcDbEntity
  8
FoilLayer
100
AcDbLine
 10
-153.83330975569837
 20
-10.753326920657742
 30
0.0
 11
-152.8345010408869
 21
-11.08878719063835
 31
0.0
  0
LINE
  5
EC
330
17
100
AcDbEntity
  8
FoilLayer
100
AcDbLine
 10
-152.8345010408869
 20
-11.08878719063835
 30
0.0
 11
-151.78005101026648
 21
-11.42506234021939
 31
0.0
  0
LINE
  5
ED
330
17
100
AcDbEntity
  8
FoilLayer
100
AcDbLine
 10
-151.78005101026648
 20
-11.42506234021939
 30
0.0
 11
-150.66639866587406
 21
-11.76188239220837
 31
0.0
  0
LINE
  5
EE
330
17
100
AcDbEntity
  8
FoilLayer
100
AcDbLine
 10
-150.66639866587406
 20
-11.76188239220837
 30
0.0
 11
-149.48940630978888
 21
-12.098243368751186
 31
0.0
  0
LINE
  5
EF
330
17
100
AcDbEntity
  8
FoilLayer
100
AcDbLine
 10
-149.48940630978888
 20
-12.098243368751186
 30
0.0
 11
-148.24372861630945
 21
-12.432605283146556
 31
0.0
  0
LINE
  5
F0
330
17
100
AcDbEntity
  8
FoilLayer
100
AcDbLine
 10
-148.24372861630945
 20
-12.432605283146556
 30
0.0
 11
-146.9228225102985
 21
-12.76319921320244
 31
0.0
  0
LINE
  5
F1
330
17
100
AcDbEntity
  8
FoilLayer
100
AcDbLine
 10
-146.9228225102985
 20
-12.76319921320244
 30
0.0
 11
-145.51763970654002
 21
-13.088882125729048
 31
0.0
  0
LINE
  5
F2
330
17
100
AcDbEntity
  8
FoilLayer
100
AcDbLine
 10
-145.51763970654002
 20
-13.088882125729048
 30
0.0
 11
-144.0147737892603
 21
-13.411884964705314
 31
0.0
  0
LINE
  5
F3
330
17
100
AcDbEntity
  8
FoilLayer
100
AcDbLine
 10
-144.0147737892603
 20
-13.411884964705314
 30
0.0
 11
-142.41527705121956
 21
-13.739793464007
 31
0.0
  0
LINE
  5
F4
330
17
100
AcDbEntity
  8
FoilLayer
100
AcDbLine
 10
-142.41527705121956
 20
-13.739793464007
 30
0.0
 11
-140.72472592239168
 21
-14.07347831010571
 31
0.0
  0
LINE
  5
F5
330
17
100
AcDbEntity
  8
FoilLayer
100
AcDbLine
 10
-140.72472592239168
 20
-14.07347831010571
 30
0.0
 11
-138.92569533268878
 21
-14.403601948601786
 31
0.0
  0
LINE
  5
F6
330
17
100
AcDbEntity
  8
FoilLayer
100
AcDbLine
 10
-138.92569533268878
 20
-14.403601948601786
 30
0.0
 11
-137.00826317951538
 21
-14.728799963383546
 31
0.0
  0
LINE
  5
F7
330
17
100
AcDbEntity
  8
FoilLayer
100
AcDbLine
 10
-137.00826317951538
 20
-14.728799963383546
 30
0.0
 11
-134.9710831685428
 21
-15.049855397205912
 31
0.0
  0
LINE
  5
F8
330
17
100
AcDbEntity
  8
FoilLayer
100
AcDbLine
 10
-134.9710831685428
 20
-15.049855397205912
 30
0.0
 11
-132.80702204806047
 21
-15.361806976724544
 31
0.0
  0
LINE
  5
F9
330
17
100
AcDbEntity
  8
FoilLayer
100
AcDbLine
 10
-132.80702204806047
 20
-15.361806976724544
 30
0.0
 11
-130.50909943333073
 21
-15.660143048181167
 31
0.0
  0
LINE
  5
FA
330
17
100
AcDbEntity
  8
FoilLayer
100
AcDbLine
 10
-130.50909943333073
 20
-15.660143048181167
 30
0.0
 11
-128.07043025577323
 21
-15.942946203689221
 31
0.0
  0
LINE
  5
FB
330
17
100
AcDbEntity
  8
FoilLayer
100
AcDbLine
 10
-128.07043025577323
 20
-15.942946203689221
 30
0.0
 11
-125.48050155897505
 21
-16.215220834165986
 31
0.0
  0
LINE
  5
FC
330
17
100
AcDbEntity
  8
FoilLayer
100
AcDbLine
 10
-125.48050155897505
 20
-16.215220834165986
 30
0.0
 11
-122.75973588662924
 21
-16.497156363367253
 31
0.0
  0
LINE
  5
FD
330
17
100
AcDbEntity
  8
FoilLayer
100
AcDbLine
 10
-122.75973588662924
 20
-16.497156363367253
 30
0.0
 11
-119.91386705918168
 21
-16.778817777518814
 31
0.0
  0
LINE
  5
FE
330
17
100
AcDbEntity
  8
FoilLayer
100
AcDbLine
 10
-119.91386705918168
 20
-16.778817777518814
 30
0.0
 11
-116.93943098884829
 21
-17.04176776805747
 31
0.0
  0
LINE
  5
FF
330
17
100
AcDbEntity
  8
FoilLayer
100
AcDbLine
 10
-116.93943098884829
 20
-17.04176776805747
 30
0.0
 11
-113.83756326848977
 21
-17.278093573358092
 31
0.0
  0
LINE
  5
100
330
17
100
AcDbEntity
  8
FoilLayer
100
AcDbLine
 10
-113.83756326848977
 20
-17.278093573358092
 30
0.0
 11
-110.61626190275749
 21
-17.488705692736357
 31
0.0
  0
LINE
  5
101
330
17
100
AcDbEntity
  8
FoilLayer
100
AcDbLine
 10
-110.61626190275749
 20
-17.488705692736357
 30
0.0
 11
-107.28559591122686
 21
-17.67478050423231
 31
0.0
  0
LINE
  5
102
330
17
100
AcDbEntity
  8
FoilLayer
100
AcDbLine
 10
-107.28559591122686
 20
-17.67478050423231
 30
0.0
 11
-103.84182391723908
 21
-17.835381135839476
 31
0.0
  0
LINE
  5
103
330
17
100
AcDbEntity
  8
FoilLayer
100
AcDbLine
 10
-103.84182391723908
 20
-17.835381135839476
 30
0.0
 11
-100.31219895984083
 21
-17.999544817886296
 31
0.0
  0
LINE
  5
104
330
17
100
AcDbEntity
  8
FoilLayer
100
AcDbLine
 10
-100.31219895984083
 20
-17.999544817886296
 30
0.0
 11
-96.71100799566669
 21
-18.158302463242048
 31
0.0
  0
LINE
  5
105
330
17
100
AcDbEntity
  8
FoilLayer
100
AcDbLine
 10
-96.71100799566669
 20
-18.158302463242048
 30
0.0
 11
-93.0384327112249
 21
-18.288940795465763
 31
0.0
  0
LINE
  5
106
330
17
100
AcDbEntity
  8
FoilLayer
100
AcDbLine
 10
-93.0384327112249
 20
-18.288940795465763
 30
0.0
 11
-89.29864752913419
 21
-18.38631909689338
 31
0.0
  0
LINE
  5
107
330
17
100
AcDbEntity
  8
FoilLayer
100
AcDbLine
 10
-89.29864752913419
 20
-18.38631909689338
 30
0.0
 11
-85.49930742151906
 21
-18.45414850878663
 31
0.0
  0
LINE
  5
108
330
17
100
AcDbEntity
  8
FoilLayer
100
AcDbLine
 10
-85.49930742151906
 20
-18.45414850878663
 30
0.0
 11
-81.64236320348864
 21
-18.495692177277906
 31
0.0
  0
LINE
  5
109
330
17
100
AcDbEntity
  8
FoilLayer
100
AcDbLine
 10
-81.64236320348864
 20
-18.495692177277906
 30
0.0
 11
-78.41034971176992
 21
-18.52052616284451
 31
0.0
  0
LINE
  5
10A
330
17
100
AcDbEntity
  8
FoilLayer
100
AcDbLine
 10
-78.41034971176992
 20
-18.52052616284451
 30
0.0
 11
-78.42187499999979
 21
-20.020481884768067
 31
0.0
  0
LINE
  5
10B
330
17
100
AcDbEntity
  8
FoilLayer
100
AcDbLine
 10
-78.42187499999979
 20
-20.020481884768067
 30
0.0
 11
-77.74633854277896
 21
-20.025672538418284
 31
0.0
  0
LINE
  5
10C
330
17
100
AcDbEntity
  8
FoilLayer
100
AcDbLine
 10
-77.74633854277896
 20
-20.025672538418284
 30
0.0
 11
-73.79773998261165
 21
-20.058923706028562
 31
0.0
  0
LINE
  5
10D
330
17
100
AcDbEntity
  8
FoilLayer
100
AcDbLine
 10
-73.79773998261165
 20
-20.058923706028562
 30
0.0
 11
-69.81203634591967
 21
-20.07339827090473
 31
0.0
  0
LINE
  5
10E
330
17
100
AcDbEntity
  8
FoilLayer
100
AcDbLine
 10
-69.81203634591967
 20
-20.07339827090473
 30
0.0
 11
-65.79276785135691
 21
-20.063270556780843
 31
0.0
  0
LINE
  5
10F
330
17
100
AcDbEntity
  8
FoilLayer
100
AcDbLine
 10
-65.79276785135691
 20
-20.063270556780843
 30
0.0
 11
-61.74320584021123
 21
-20.027778744452895
 31
0.0
  0
LINE
  5
110
330
17
100
AcDbEntity
  8
FoilLayer
100
AcDbLine
 10
-61.74320584021123
 20
-20.027778744452895
 30
0.0
 11
-57.6660390861438
 21
-19.976602419101233
 31
0.0
  0
LINE
  5
111
330
17
100
AcDbEntity
  8
FoilLayer
100
AcDbLine
 10
-57.6660390861438
 20
-19.976602419101233
 30
0.0
 11
-53.563418608083595
 21
-19.92072073984246
 31
0.0
  0
LINE
  5
112
330
17
100
AcDbEntity
  8
FoilLayer
100
AcDbLine
 10
-53.563418608083595
 20
-19.92072073984246
 30
0.0
 11
-49.437360986276545
 21
-19.862419164288593
 31
0.0
  0
LINE
  5
113
330
17
100
AcDbEntity
  8
FoilLayer
100
AcDbLine
 10
-49.437360986276545
 20
-19.862419164288593
 30
0.0
 11
-45.289703549391135
 21
-19.797081964321233
 31
0.0
  0
LINE
  5
114
330
17
100
AcDbEntity
  8
FoilLayer
100
AcDbLine
 10
-45.289703549391135
 20
-19.797081964321233
 30
0.0
 11
-41.122194000307076
 21
-19.71480549028826
 31
0.0
  0
LINE
  5
115
330
17
100
AcDbEntity
  8
FoilLayer
100
AcDbLine
 10
-41.122194000307076
 20
-19.71480549028826
 30
0.0
 11
-36.93626635164381
 21
-19.613976477992953
 31
0.0
  0
LINE
  5
116
330
17
100
AcDbEntity
  8
FoilLayer
100
AcDbLine
 10
-36.93626635164381
 20
-19.613976477992953
 30
0.0
 11
-32.73322017733747
 21
-19.499210655553718
 31
0.0
  0
LINE
  5
117
330
17
100
AcDbEntity
  8
FoilLayer
100
AcDbLine
 10
-32.73322017733747
 20
-19.499210655553718
 30
0.0
 11
-28.51422061264131
 21
-19.371404280857618
 31
0.0
  0
LINE
  5
118
330
17
100
AcDbEntity
  8
FoilLayer
100
AcDbLine
 10
-28.51422061264131
 20
-19.371404280857618
 30
0.0
 11
-24.280432792808483
 21
-19.23727928805768
 31
0.0
  0
LINE
  5
119
330
17
100
AcDbEntity
  8
FoilLayer
100
AcDbLine
 10
-24.280432792808483
 20
-19.23727928805768
 30
0.0
 11
-20.032932227303547
 21
-19.099569263709466
 31
0.0
  0
LINE
  5
11A
330
17
100
AcDbEntity
  8
FoilLayer
100
AcDbLine
 10
-20.032932227303547
 20
-19.099569263709466
 30
0.0
 11
-15.773063302956984
 21
-18.956392066250128
 31
0.0
  0
LINE
  5
11B
330
17
100
AcDbEntity
  8
FoilLayer
100
AcDbLine
 10
-15.773063302956984
 20
-18.956392066250128
 30
0.0
 11
-11.501811903444718
 21
-18.80505892201846
 31
0.0
  0
LINE
  5
11C
330
17
100
AcDbEntity
  8
FoilLayer
100
AcDbLine
 10
-11.501811903444718
 20
-18.80505892201846
 30
0.0
 11
-7.220208725336732
 21
-18.645300953648338
 31
0.0
  0
LINE
  5
11D
330
17
100
AcDbEntity
  8
FoilLayer
100
AcDbLine
 10
-7.220208725336732
 20
-18.645300953648338
 30
0.0
 11
-2.9299566586186074
 21
-18.47707334824542
 31
0.0
  0
LINE
  5
11E
330
17
100
AcDbEntity
  8
FoilLayer
100
AcDbLine
 10
-2.9299566586186074
 20
-18.47707334824542
 30
0.0
 11
1.3664795875203595
 21
-18.302034182900762
 31
0.0
  0
LINE
  5
11F
330
17
100
AcDbEntity
  8
FoilLayer
100
AcDbLine
 10
1.3664795875203595
 20
-18.302034182900762
 30
0.0
 11
5.665963110475332
 21
-18.119242386832955
 31
0.0
  0
LINE
  5
120
330
17
100
AcDbEntity
  8
FoilLayer
100
AcDbLine
 10
5.665963110475332
 20
-18.119242386832955
 30
0.0
 11
9.964326311071488
 21
-17.92780170215493
 31
0.0
  0
LINE
  5
121
330
17
100
AcDbEntity
  8
FoilLayer
100
AcDbLine
 10
9.964326311071488
 20
-17.92780170215493
 30
0.0
 11
14.257446403028325
 21
-17.73161085067544
 31
0.0
  0
LINE
  5
122
330
17
100
AcDbEntity
  8
FoilLayer
100
AcDbLine
 10
14.257446403028325
 20
-17.73161085067544
 30
0.0
 11
18.543172367416787
 21
-17.534389302625815
 31
0.0
  0
LINE
  5
123
330
17
100
AcDbEntity
  8
FoilLayer
100
AcDbLine
 10
18.543172367416787
 20
-17.534389302625815
 30
0.0
 11
22.82311746843365
 21
-17.335509677485117
 31
0.0
  0
LINE
  5
124
330
17
100
AcDbEntity
  8
FoilLayer
100
AcDbLine
 10
22.82311746843365
 20
-17.335509677485117
 30
0.0
 11
27.10248000182395
 21
-17.13008736976881
 31
0.0
  0
LINE
  5
125
330
17
100
AcDbEntity
  8
FoilLayer
100
AcDbLine
 10
27.10248000182395
 20
-17.13008736976881
 30
0.0
 11
31.385741257023
 21
-16.911669322689995
 31
0.0
  0
LINE
  5
126
330
17
100
AcDbEntity
  8
FoilLayer
100
AcDbLine
 10
31.385741257023
 20
-16.911669322689995
 30
0.0
 11
35.674828188487965
 21
-16.679090400995484
 31
0.0
  0
LINE
  5
127
330
17
100
AcDbEntity
  8
FoilLayer
100
AcDbLine
 10
35.674828188487965
 20
-16.679090400995484
 30
0.0
 11
39.96929266727534
 21
-16.438445158317347
 31
0.0
  0
LINE
  5
128
330
17
100
AcDbEntity
  8
FoilLayer
100
AcDbLine
 10
39.96929266727534
 20
-16.438445158317347
 30
0.0
 11
44.26855212575859
 21
-16.198158418794044
 31
0.0
  0
LINE
  5
129
330
17
100
AcDbEntity
  8
FoilLayer
100
AcDbLine
 10
44.26855212575859
 20
-16.198158418794044
 30
0.0
 11
48.57247212525456
 21
-15.963025162121385
 31
0.0
  0
LINE
  5
12A
330
17
100
AcDbEntity
  8
FoilLayer
100
AcDbLine
 10
48.57247212525456
 20
-15.963025162121385
 30
0.0
 11
52.88136635602376
 21
-15.728250408603554
 31
0.0
  0
LINE
  5
12B
330
17
100
AcDbEntity
  8
FoilLayer
100
AcDbLine
 10
52.88136635602376
 20
-15.728250408603554
 30
0.0
 11
57.19505556648883
 21
-15.479852535202268
 31
0.0
  0
LINE
  5
12C
330
17
100
AcDbEntity
  8
FoilLayer
100
AcDbLine
 10
57.19505556648883
 20
-15.479852535202268
 30
0.0
 11
61.51309162770619
 21
-15.210661478820974
 31
0.0
  0
LINE
  5
12D
330
17
100
AcDbEntity
  8
FoilLayer
100
AcDbLine
 10
61.51309162770619
 20
-15.210661478820974
 30
0.0
 11
65.83556416546446
 21
-14.92896762491506
 31
0.0
  0
LINE
  5
12E
330
17
100
AcDbEntity
  8
FoilLayer
100
AcDbLine
 10
65.83556416546446
 20
-14.92896762491506
 30
0.0
 11
70.16314537317908
 21
-14.649290351255052
 31
0.0
  0
LINE
  5
12F
330
17
100
AcDbEntity
  8
FoilLayer
100
AcDbLine
 10
70.16314537317908
 20
-14.649290351255052
 30
0.0
 11
74.49601450242741
 21
-14.379158224092333
 31
0.0
  0
LINE
  5
130
330
17
100
AcDbEntity
  8
FoilLayer
100
AcDbLine
 10
74.49601450242741
 20
-14.379158224092333
 30
0.0
 11
78.83390267584338
 21
-14.117316482385004
 31
0.0
  0
LINE
  5
131
330
17
100
AcDbEntity
  8
FoilLayer
100
AcDbLine
 10
78.83390267584338
 20
-14.117316482385004
 30
0.0
 11
83.17582400975104
 21
-13.846736226278754
 31
0.0
  0
LINE
  5
132
330
17
100
AcDbEntity
  8
FoilLayer
100
AcDbLine
 10
83.17582400975104
 20
-13.846736226278754
 30
0.0
 11
87.52034449153132
 21
-13.547341279103222
 31
0.0
  0
LINE
  5
133
330
17
100
AcDbEntity
  8
FoilLayer
100
AcDbLine
 10
87.52034449153132
 20
-13.547341279103222
 30
0.0
 11
91.86741930828964
 21
-13.225091755807416
 31
0.0
  0
LINE
  5
134
330
17
100
AcDbEntity
  8
FoilLayer
100
AcDbLine
 10
91.86741930828964
 20
-13.225091755807416
 30
0.0
 11
96.21857209843421
 21
-12.905172503017994
 31
0.0
  0
LINE
  5
135
330
17
100
AcDbEntity
  8
FoilLayer
100
AcDbLine
 10
96.21857209843421
 20
-12.905172503017994
 30
0.0
 11
100.57460949406328
 21
-12.602775091920774
 31
0.0
  0
LINE
  5
136
330
17
100
AcDbEntity
  8
FoilLayer
100
AcDbLine
 10
100.57460949406328
 20
-12.602775091920774
 30
0.0
 11
104.93476967597286
 21
-12.312118659144165
 31
0.0
  0
LINE
  5
137
330
17
100
AcDbEntity
  8
FoilLayer
100
AcDbLine
 10
104.93476967597286
 20
-12.312118659144165
 30
0.0
 11
109.2979771346985
 21
-12.017563504558806
 31
0.0
  0
LINE
  5
138
330
17
100
AcDbEntity
  8
FoilLayer
100
AcDbLine
 10
109.2979771346985
 20
-12.017563504558806
 30
0.0
 11
113.66226010288858
 21
-11.696120613361366
 31
0.0
  0
LINE
  5
139
330
17
100
AcDbEntity
  8
FoilLayer
100
AcDbLine
 10
113.66226010288858
 20
-11.696120613361366
 30
0.0
 11
118.02752895475453
 21
-11.349223998171153
 31
0.0
  0
LINE
  5
13A
330
17
100
AcDbEntity
  8
FoilLayer
100
AcDbLine
 10
118.02752895475453
 20
-11.349223998171153
 30
0.0
 11
122.39575545764768
 21
-11.007032736888055
 31
0.0
  0
LINE
  5
13B
330
17
100
AcDbEntity
  8
FoilLayer
100
AcDbLine
 10
122.39575545764768
 20
-11.007032736888055
 30
0.0
 11
126.76738774051177
 21
-10.677344273129576
 31
0.0
  0
LINE
  5
13C
330
17
100
AcDbEntity
  8
FoilLayer
100
AcDbLine
 10
126.76738774051177
 20
-10.677344273129576
 30
0.0
 11
131.14220173887492
 21
-10.360158606895713
 31
0.0
  0
LINE
  5
13D
330
17
100
AcDbEntity
  8
FoilLayer
100
AcDbLine
 10
131.14220173887492
 20
-10.360158606895713
 30
0.0
 11
135.51921156906138
 21
-10.046557972210127
 31
0.0
  0
LINE
  5
13E
330
17
100
AcDbEntity
  8
FoilLayer
100
AcDbLine
 10
135.51921156906138
 20
-10.046557972210127
 30
0.0
 11
139.89689359266328
 21
-9.716242127930698
 31
0.0
  0
LINE
  5
13F
330
17
100
AcDbEntity
  8
FoilLayer
100
AcDbLine
 10
139.89689359266328
 20
-9.716242127930698
 30
0.0
 11
144.2739930486385
 21
-9.358052663363413
 31
0.0
  0
LINE
  5
140
330
17
100
AcDbEntity
  8
FoilLayer
100
AcDbLine
 10
144.2739930486385
 20
-9.358052663363413
 30
0.0
 11
148.65266095591602
 21
-9.001342024309789
 31
0.0
  0
LINE
  5
141
330
17
100
AcDbEntity
  8
FoilLayer
100
AcDbLine
 10
148.65266095591602
 20
-9.001342024309789
 30
0.0
 11
153.03379357238305
 21
-8.659105950132338
 31
0.0
  0
LINE
  5
142
330
17
100
AcDbEntity
  8
FoilLayer
100
AcDbLine
 10
153.03379357238305
 20
-8.659105950132338
 30
0.0
 11
157.41662907883546
 21
-8.325742829036873
 31
0.0
  0
LINE
  5
143
330
17
100
AcDbEntity
  8
FoilLayer
100
AcDbLine
 10
157.41662907883546
 20
-8.325742829036873
 30
0.0
 11
161.8012571010621
 21
-8.004748066782966
 31
0.0
  0
LINE
  5
144
330
17
100
AcDbEntity
  8
FoilLayer
100
AcDbLine
 10
161.8012571010621
 20
-8.004748066782966
 30
0.0
 11
166.18673656828133
 21
-7.686666142662034
 31
0.0
  0
LINE
  5
145
330
17
100
AcDbEntity
  8
FoilLayer
100
AcDbLine
 10
166.18673656828133
 20
-7.686666142662034
 30
0.0
 11
170.57078202288136
 21
-7.345147074794238
 31
0.0
  0
LINE
  5
146
330
17
100
AcDbEntity
  8
FoilLayer
100
AcDbLine
 10
170.57078202288136
 20
-7.345147074794238
 30
0.0
 11
174.95397603248864
 21
-6.989960074148634
 31
0.0
  0
LINE
  5
147
330
17
100
AcDbEntity
  8
FoilLayer
100
AcDbLine
 10
174.95397603248864
 20
-6.989960074148634
 30
0.0
 11
179.33784223551123
 21
-6.645438542359155
 31
0.0
  0
LINE
  5
148
330
17
100
AcDbEntity
  8
FoilLayer
100
AcDbLine
 10
179.33784223551123
 20
-6.645438542359155
 30
0.0
 11
183.7220221287942
 21
-6.310058841017784
 31
0.0
  0
LINE
  5
149
330
17
100
AcDbEntity
  8
FoilLayer
100
AcDbLine
 10
183.7220221287942
 20
-6.310058841017784
 30
0.0
 11
188.1062468349716
 21
-5.982879899343098
 31
0.0
  0
LINE
  5
14A
330
17
100
AcDbEntity
  8
FoilLayer
100
AcDbLine
 10
188.1062468349716
 20
-5.982879899343098
 30
0.0
 11
192.49020266378295
 21
-5.669010387291393
 31
0.0
  0
LINE
  5
14B
330
17
100
AcDbEntity
  8
FoilLayer
100
AcDbLine
 10
192.49020266378295
 20
-5.669010387291393
 30
0.0
 11
196.87142490603867
 21
-5.3440720903343815
 31
0.0
  0
LINE
  5
14C
330
17
100
AcDbEntity
  8
FoilLayer
100
AcDbLine
 10
196.87142490603867
 20
-5.3440720903343815
 30
0.0
 11
201.2486588006969
 21
-5.001746390368221
 31
0.0
  0
LINE
  5
14D
330
17
100
AcDbEntity
  8
FoilLayer
100
AcDbLine
 10
201.2486588006969
 20
-5.001746390368221
 30
0.0
 11
205.6224421024899
 21
-4.66596337297767
 31
0.0
  0
LINE
  5
14E
330
17
100
AcDbEntity
  8
FoilLayer
100
AcDbLine
 10
205.6224421024899
 20
-4.66596337297767
 30
0.0
 11
209.99223705668555
 21
-4.346626687814841
 31
0.0
  0
LINE
  5
14F
330
17
100
AcDbEntity
  8
FoilLayer
100
AcDbLine
 10
209.99223705668555
 20
-4.346626687814841
 30
0.0
 11
214.35575820567158
 21
-4.040599432274993
 31
0.0
  0
LINE
  5
150
330
17
100
AcDbEntity
  8
FoilLayer
100
AcDbLine
 10
214.35575820567158
 20
-4.040599432274993
 30
0.0
 11
218.71045121447008
 21
-3.7470749742597635
 31
0.0
  0
LINE
  5
151
330
17
100
AcDbEntity
  8
FoilLayer
100
AcDbLine
 10
218.71045121447008
 20
-3.7470749742597635
 30
0.0
 11
223.05250698706084
 21
-3.45673223174363
 31
0.0
  0
LINE
  5
152
330
17
100
AcDbEntity
  8
FoilLayer
100
AcDbLine
 10
223.05250698706084
 20
-3.45673223174363
 30
0.0
 11
227.3770409179595
 21
-3.1632525866227534
 31
0.0
  0
LINE
  5
153
330
17
100
AcDbEntity
  8
FoilLayer
100
AcDbLine
 10
227.3770409179595
 20
-3.1632525866227534
 30
0.0
 11
231.67863064694916
 21
-2.8766741272323118
 31
0.0
  0
LINE
  5
154
330
17
100
AcDbEntity
  8
FoilLayer
100
AcDbLine
 10
231.67863064694916
 20
-2.8766741272323118
 30
0.0
 11
235.94925466594043
 21
-2.6035395361479114
 31
0.0
  0
LINE
  5
155
330
17
100
AcDbEntity
  8
FoilLayer
100
AcDbLine
 10
235.94925466594043
 20
-2.6035395361479114
 30
0.0
 11
240.17829231897178
 21
-2.337619821054419
 31
0.0
  0
LINE
  5
156
330
17
100
AcDbEntity
  8
FoilLayer
100
AcDbLine
 10
240.17829231897178
 20
-2.337619821054419
 30
0.0
 11
244.35216529905398
 21
-2.0847854711121405
 31
0.0
  0
LINE
  5
157
330
17
100
AcDbEntity
  8
FoilLayer
100
AcDbLine
 10
244.35216529905398
 20
-2.0847854711121405
 30
0.0
 11
248.4541135836988
 21
-1.8586147933101762
 31
0.0
  0
LINE
  5
158
330
17
100
AcDbEntity
  8
FoilLayer
100
AcDbLine
 10
248.4541135836988
 20
-1.8586147933101762
 30
0.0
 11
252.46298548677157
 21
-1.6387627336120512
 31
0.0
  0
LINE
  5
159
330
17
100
AcDbEntity
  8
FoilLayer
100
AcDbLine
 10
252.46298548677157
 20
-1.6387627336120512
 30
0.0
 11
256.35511980005356
 21
-1.427245872263672
 31
0.0
  0
LINE
  5
15A
330
17
100
AcDbEntity
  8
FoilLayer
100
AcDbLine
 10
256.35511980005356
 20
-1.427245872263672
 30
0.0
 11
260.10519723823495
 21
-1.2244675253142194
 31
0.0
  0
LINE
  5
15B
330
17
100
AcDbEntity
  8
FoilLayer
100
AcDbLine
 10
260.10519723823495
 20
-1.2244675253142194
 30
0.0
 11
263.68785370311184
 21
-1.0450815092172783
 31
0.0
  0
LINE
  5
15C
330
17
100
AcDbEntity
  8
FoilLayer
100
AcDbLine
 10
263.68785370311184
 20
-1.0450815092172783
 30
0.0
 11
267.0799209283034
 21
-0.8888637595010811
 31
0.0
  0
LINE
  5
15D
330
17
100
AcDbEntity
  8
FoilLayer
100
AcDbLine
 10
267.0799209283034
 20
-0.8888637595010811
 30
0.0
 11
270.26428038816664
 21
-0.7443421752111398
 31
0.0
  0
LINE
  5
15E
330
17
100
AcDbEntity
  8
FoilLayer
100
AcDbLine
 10
270.26428038816664
 20
-0.7443421752111398
 30
0.0
 11
273.23125249752127
 21
-0.610261995305557
 31
0.0
  0
LINE
  5
15F
330
17
100
AcDbEntity
  8
FoilLayer
100
AcDbLine
 10
273.23125249752127
 20
-0.610261995305557
 30
0.0
 11
275.9781484827059
 21
-0.49531692128890603
 31
0.0
  0
LINE
  5
160
330
17
100
AcDbEntity
  8
FoilLayer
100
AcDbLine
 10
275.9781484827059
 20
-0.49531692128890603
 30
0.0
 11
278.5073434271214
 21
-0.3999998949990749
 31
0.0
  0
LINE
  5
161
330
17
100
AcDbEntity
  8
FoilLayer
100
AcDbLine
 10
278.5073434271214
 20
-0.3999998949990749
 30
0.0
 11
280.0781249999992
 21
-0.3443870931064184
 31
0.0
  0
LINE
  5
162
330
17
100
AcDbEntity
  8
FoilLayer
100
AcDbLine
 10
280.0781249999992
 20
-0.3443870931064184
 30
0.0
 11
280.0780353742105
 21
0.3443870931064184
 31
0.0
  0
LINE
  5
163
330
17
100
AcDbEntity
  8
StringerLayer
100
AcDbLine
 10
120.43830161365082
 20
25.6318165290432
 30
0.0
 11
124.39377794932244
 21
25.03666364285192
 31
0.0
  0
LINE
  5
164
330
17
100
AcDbEntity
  8
StringerLayer
100
AcDbLine
 10
124.39377794932244
 20
25.03666364285192
 30
0.0
 11
124.98893083551371
 21
28.99213997852354
 31
0.0
  0
LINE
  5
165
330
17
100
AcDbEntity
  8
StringerLayer
100
AcDbLine
 10
124.98893083551371
 20
28.99213997852354
 30
0.0
 11
121.0334544998421
 21
29.58729286471482
 31
0.0
  0
LINE
  5
166
330
17
100
AcDbEntity
  8
StringerLayer
100
AcDbLine
 10
121.0334544998421
 20
29.58729286471482
 30
0.0
 11
120.43830161365082
 21
25.6318165290432
 31
0.0
  0
LINE
  5
167
330
17
100
AcDbEntity
  8
StringerLayer
100
AcDbLine
 10
-48.70457429308277
 20
35.15211966074519
 30
0.0
 11
-44.71243414630024
 21
35.40275295551492
 31
0.0
  0
LINE
  5
168
330
17
100
AcDbEntity
  8
StringerLayer
100
AcDbLine
 10
-44.71243414630024
 20
35.40275295551492
 30
0.0
 11
-44.96306744106997
 21
39.39489310229745
 31
0.0
  0
LINE
  5
169
330
17
100
AcDbEntity
  8
StringerLayer
100
AcDbLine
 10
-44.96306744106997
 20
39.39489310229745
 30
0.0
 11
-48.9552075878525
 21
39.144259807527725
 31
0.0
  0
LINE
  5
16A
330
17
100
AcDbEntity
  8
StringerLayer
100
AcDbLine
 10
-48.9552075878525
 20
39.144259807527725
 30
0.0
 11
-48.70457429308277
 21
35.15211966074519
 31
0.0
  0
LINE
  5
16B
330
17
100
AcDbEntity
  8
StringerLayer
100
AcDbLine
 10
-123.62969724920953
 20
23.088598977481638
 30
0.0
 11
-119.78677170369482
 21
24.198519358243445
 31
0.0
  0
LINE
  5
16C
330
17
100
AcDbEntity
  8
StringerLayer
100
AcDbLine
 10
-119.78677170369482
 20
24.198519358243445
 30
0.0
 11
-120.89669208445663
 21
28.04144490375816
 31
0.0
  0
LINE
  5
16D
330
17
100
AcDbEntity
  8
StringerLayer
100
AcDbLine
 10
-120.89669208445663
 20
28.04144490375816
 30
0.0
 11
-124.73961762997133
 21
26.93152452299635
 31
0.0
  0
LINE
  5
16E
330
17
100
AcDbEntity
  8
StringerLayer
100
AcDbLine
 10
-124.73961762997133
 20
26.93152452299635
 30
0.0
 11
-123.62969724920953
 21
23.088598977481638
 31
0.0
  0
LINE
  5
16F
330
17
100
AcDbEntity
  8
StringerLayer
100
AcDbLine
 10
-158.4627915459686
 20
6.398172218494874
 30
0.0
 11
-156.95572171110095
 21
7.712987989936622
 31
0.0
  0
LINE
  5
170
330
17
100
AcDbEntity
  8
StringerLayer
100
AcDbLine
 10
-156.95572171110095
 20
7.712987989936622
 30
0.0
 11
-159.58535325398444
 21
10.727127659671945
 31
0.0
  0
LINE
  5
171
330
17
100
AcDbEntity
  8
StringerLayer
100
AcDbLine
 10
-159.58535325398444
 20
10.727127659671945
 30
0.0
 11
-161.0924230888521
 21
9.412311888230198
 31
0.0
  0
LINE
  5
172
330
17
100
AcDbEntity
  8
StringerLayer
100
AcDbLine
 10
-161.0924230888521
 20
9.412311888230198
 30
0.0
 11
-158.4627915459686
 21
6.398172218494874
 31
0.0
  0
LINE
  5
173
330
17
100
AcDbEntity
  8
StringerLayer
100
AcDbLine
 10
-159.45821843307604
 20
-3.847395767757284
 30
0.0
 11
-161.0558740070866
 21
-2.6442762114233886
 31
0.0
  0
LINE
  5
174
330
17
100
AcDbEntity
  8
StringerLayer
100
AcDbLine
 10
-161.0558740070866
 20
-2.6442762114233886
 30
0.0
 11
-163.4621131197544
 21
-5.839587359444456
 31
0.0
  0
LINE
  5
175
330
17
100
AcDbEntity
  8
StringerLayer
100
AcDbLine
 10
-163.4621131197544
 20
-5.839587359444456
 30
0.0
 11
-161.86445754574385
 21
-7.042706915778352
 31
0.0
  0
LINE
  5
176
330
17
100
AcDbEntity
  8
StringerLayer
100
AcDbLine
 10
-161.86445754574385
 20
-7.042706915778352
 30
0.0
 11
-159.45821843307604
 21
-3.847395767757284
 31
0.0
  0
LINE
  5
177
330
17
100
AcDbEntity
  8
StringerLayer
100
AcDbLine
 10
-98.57476144174039
 20
-14.076022970381597
 30
0.0
 11
-102.570442278437
 21
-13.890187959537212
 31
0.0
  0
LINE
  5
178
330
17
100
AcDbEntity
  8
StringerLayer
100
AcDbLine
 10
-102.570442278437
 20
-13.890187959537212
 30
0.0
 11
-102.75627728928139
 21
-17.885868796233815
 31
0.0
  0
LINE
  5
179
330
17
100
AcDbEntity
  8
StringerLayer
100
AcDbLine
 10
-102.75627728928139
 20
-17.885868796233815
 30
0.0
 11
-98.76059645258478
 21
-18.0717038070782
 31
0.0
  0
LINE
  5
17A
330
17
100
AcDbEntity
  8
StringerLayer
100
AcDbLine
 10
-98.76059645258478
 20
-18.0717038070782
 30
0.0
 11
-98.57476144174039
 21
-14.076022970381597
 31
0.0
  0
LINE
  5
17B
330
17
100
AcDbEntity
  8
SubLayer
100
AcDbLine
 10
-168.04687499999955
 20
0.0
 30
0.0
 11
-164.04687499999955
 21
0.0
 31
0.0
  0
LINE
  5
17C
330
17
100
AcDbEntity
  8
SubLayer
100
AcDbLine
 10
31.609374999999886
 20
0.0
 30
0.0
 11
40.090624999999875
 21
0.0
 31
0.0
  0
LINE
  5
17D
330
17
100
AcDbEntity
  8
SubLayer
100
AcDbLine
 10
-23.690986383285047
 20
10.616466587416596
 30
0.0
 11
-15.698581589969805
 21
10.964985768799144
 31
0.0
  0
LINE
  5
17E
330
17
100
AcDbEntity
  8
SubLayer
100
AcDbLine
 10
15.698581589969805
 20
12.334099807962803
 30
0.0
 11
23.690986383285047
 21
12.68261898934535
 31
0.0
  0
LINE
  5
17F
330
17
100
AcDbEntity
  8
SubLayer
100
AcDbLine
 10
-0.9279976677775393
 20
32.93081912648147
 30
0.0
 11
-0.5794784863949914
 21
24.93841433316623
 31
0.0
  0
LINE
  5
180
330
17
100
AcDbEntity
  8
SubLayer
100
AcDbLine
 10
0.9279976677775393
 20
-9.63173354971952
 30
0.0
 11
0.5794784863949914
 21
-1.6393287564042804
 31
0.0
  0
LINE
  5
181
330
17
100
AcDbEntity
  8
SubLayer
100
AcDbLine
 10
-21.6057553896106
 20
8.705495184433424
 30
0.0
 11
-17.60955299295298
 21
8.879754775124697
 31
0.0
  0
LINE
  5
182
330
17
100
AcDbEntity
  8
SubLayer
100
AcDbLine
 10
-17.60955299295298
 20
8.879754775124697
 30
0.0
 11
-17.783812583644256
 21
12.875957171782318
 31
0.0
  0
LINE
  5
183
330
17
100
AcDbEntity
  8
SubLayer
100
AcDbLine
 10
-17.783812583644256
 20
12.875957171782318
 30
0.0
 11
-21.780014980301875
 21
12.701697581091045
 31
0.0
  0
LINE
  5
184
330
17
100
AcDbEntity
  8
SubLayer
100
AcDbLine
 10
-21.780014980301875
 20
12.701697581091045
 30
0.0
 11
-21.6057553896106
 21
8.705495184433424
 31
0.0
  0
LINE
  5
185
330
17
100
AcDbEntity
  8
SubLayer
100
AcDbLine
 10
17.783812583644256
 20
10.423128404979629
 30
0.0
 11
21.780014980301875
 21
10.597387995670902
 31
0.0
  0
LINE
  5
186
330
17
100
AcDbEntity
  8
SubLayer
100
AcDbLine
 10
21.780014980301875
 20
10.597387995670902
 30
0.0
 11
21.6057553896106
 21
14.593590392328522
 31
0.0
  0
LINE
  5
187
330
17
100
AcDbEntity
  8
SubLayer
100
AcDbLine
 10
21.6057553896106
 20
14.593590392328522
 30
0.0
 11
17.60955299295298
 21
14.41933080163725
 31
0.0
  0
LINE
  5
188
330
17
100
AcDbEntity
  8
SubLayer
100
AcDbLine
 10
17.60955299295298
 20
14.41933080163725
 30
0.0
 11
17.783812583644256
 21
10.423128404979629
 31
0.0
  0
LINE
  5
189
330
17
100
AcDbEntity
  8
SubLayer
100
AcDbLine
 10
-2.6647094800694386
 20
26.8493857361494
 30
0.0
 11
1.331492916588182
 21
27.023645326840676
 31
0.0
  0
LINE
  5
18A
330
17
100
AcDbEntity
  8
SubLayer
100
AcDbLine
 10
1.331492916588182
 20
27.023645326840676
 30
0.0
 11
1.1572333258969079
 21
31.019847723498295
 31
0.0
  0
LINE
  5
18B
330
17
100
AcDbEntity
  8
SubLayer
100
AcDbLine
 10
1.1572333258969079
 20
31.019847723498295
 30
0.0
 11
-2.8389690707607125
 21
30.84558813280702
 31
0.0
  0
LINE
  5
18C
330
17
100
AcDbEntity
  8
SubLayer
100
AcDbLine
 10
-2.8389690707607125
 20
30.84558813280702
 30
0.0
 11
-2.6647094800694386
 21
26.8493857361494
 31
0.0
  0
LINE
  5
18D
330
17
100
AcDbEntity
  8
SubLayer
100
AcDbLine
 10
-1.1572333258969079
 20
-7.720762146736348
 30
0.0
 11
2.8389690707607125
 21
-7.546502556045073
 31
0.0
  0
LINE
  5
18E
330
17
100
AcDbEntity
  8
SubLayer
100
AcDbLine
 10
2.8389690707607125
 20
-7.546502556045073
 30
0.0
 11
2.6647094800694386
 21
-3.550300159387453
 31
0.0
  0
LINE
  5
18F
330
17
100
AcDbEntity
  8
SubLayer
100
AcDbLine
 10
2.6647094800694386
 20
-3.550300159387453
 30
0.0
 11
-1.331492916588182
 21
-3.7245597500787273
 31
0.0
  0
LINE
  5
190
330
17
100
AcDbEntity
  8
SubLayer
100
AcDbLine
 10
-1.331492916588182
 20
-3.7245597500787273
 30
0.0
 11
-1.1572333258969079
 21
-7.720762146736348
 31
0.0
  0
LINE
  5
191
330
17
100
AcDbEntity
  8
SubLayer
100
AcDbLine
 10
233.3700192610759
 20
9.823046043246572
 30
0.0
 11
237.36622165773352
 21
9.997305633937847
 31
0.0
  0
LINE
  5
192
330
17
100
AcDbEntity
  8
SubLayer
100
AcDbLine
 10
-163.26501962043335
 20
-7.472739472301514
 30
0.0
 11
-159.26881722377573
 21
-7.298479881610239
 31
0.0
  0
LINE
  5
193
330
17
100
AcDbEntity
  8
SubLayer
100
AcDbLine
 10
-84.93706244329591
 20
-4.057147266864716
 30
0.0
 11
-78.94275884830948
 21
-3.7957578808278045
 31
0.0
  0
LINE
  5
194
330
17
100
AcDbEntity
  8
SubLayer
100
AcDbLine
 10
153.04396088560966
 20
6.3203240424641365
 30
0.0
 11
159.0382644805961
 21
6.581713428501049
 31
0.0
  0
LINE
  5
195
330
17
100
AcDbEntity
  8
SubLayer
100
AcDbLine
 10
34.05344922115687
 20
1.1315883877997106
 30
0.0
 11
40.0477528161433
 21
1.3929777738366222
 31
0.0
  0
LINE
  5
196
330
17
100
AcDbEntity
  8
SubLayer
100
AcDbLine
 10
-79.85467965212825
 20
-5.837423976829433
 30
0.0
 11
-80.02893924281952
 21
-1.8412215801718128
 31
0.0
  0
LINE
  5
197
330
17
100
AcDbEntity
  8
SubLayer
100
AcDbLine
 10
-80.02893924281952
 20
-1.8412215801718128
 30
0.0
 11
-84.02514163947714
 21
-2.015481170863087
 31
0.0
  0
LINE
  5
198
330
17
100
AcDbEntity
  8
SubLayer
100
AcDbLine
 10
-84.02514163947714
 20
-2.015481170863087
 30
0.0
 11
-83.85088204878588
 21
-6.011683567520707
 31
0.0
  0
LINE
  5
199
330
17
100
AcDbEntity
  8
SubLayer
100
AcDbLine
 10
-83.85088204878588
 20
-6.011683567520707
 30
0.0
 11
-79.85467965212825
 21
-5.837423976829433
 31
0.0
  0
LINE
  5
19A
330
17
100
AcDbEntity
  8
SubLayer
100
AcDbLine
 10
158.12634367677734
 20
4.5400473324994195
 30
0.0
 11
157.95208408608605
 21
8.53624972915704
 31
0.0
  0
LINE
  5
19B
330
17
100
AcDbEntity
  8
SubLayer
100
AcDbLine
 10
157.95208408608605
 20
8.53624972915704
 30
0.0
 11
153.95588168942842
 21
8.361990138465766
 31
0.0
  0
LINE
  5
19C
330
17
100
AcDbEntity
  8
SubLayer
100
AcDbLine
 10
153.95588168942842
 20
8.361990138465766
 30
0.0
 11
154.13014128011972
 21
4.365787741808145
 31
0.0
  0
LINE
  5
19D
330
17
100
AcDbEntity
  8
SubLayer
100
AcDbLine
 10
154.13014128011972
 20
4.365787741808145
 30
0.0
 11
158.12634367677734
 21
4.5400473324994195
 31
0.0
  0
LINE
  5
19E
330
17
100
AcDbEntity
  8
SubLayer
100
AcDbLine
 10
39.135832012324535
 20
-0.6486883221650066
 30
0.0
 11
38.96157242163326
 21
3.3475140744926137
 31
0.0
  0
LINE
  5
19F
330
17
100
AcDbEntity
  8
SubLayer
100
AcDbLine
 10
38.96157242163326
 20
3.3475140744926137
 30
0.0
 11
34.965370024975634
 21
3.1732544838013395
 31
0.0
  0
LINE
  5
1A0
330
17
100
AcDbEntity
  8
SubLayer
100
AcDbLine
 10
34.965370024975634
 20
3.1732544838013395
 30
0.0
 11
35.13962961566691
 21
-0.8229479128562809
 31
0.0
  0
LINE
  5
1A1
330
17
100
AcDbEntity
  8
SubLayer
100
AcDbLine
 10
35.13962961566691
 20
-0.8229479128562809
 30
0.0
 11
39.135832012324535
 21
-0.6486883221650066
 31
0.0
  0
LINE
  5
1A2
330
17
100
AcDbEntity
  8
SubLayer
100
AcDbLine
 10
260.49272056245326
 20
4.081892125431546
 30
0.0
 11
260.72115418160007
 21
5.055451615983351
 31
0.0
  0
LINE
  5
1A3
330
17
100
AcDbEntity
  8
SubLayer
100
AcDbLine
 10
260.146210025828
 20
-1.7230089267803308
 30
0.0
 11
260.0850127212638
 21
-0.7248832383452148
 31
0.0
  0
LINE
  5
1A4
330
17
100
AcDbEntity
  8
SubLayer
100
AcDbLine
 10
240.92864607301658
 20
8.219978789822179
 30
0.0
 11
241.14634575720004
 21
9.19599459272007
 31
0.0
  0
LINE
  5
1A5
330
17
100
AcDbEntity
  8
SubLayer
100
AcDbLine
 10
240.17585111925865
 20
-2.8387562309053505
 30
0.0
 11
240.11736081315235
 21
-1.8404682543717308
 31
0.0
  0
LINE
  5
1A6
330
17
100
AcDbEntity
  8
SubLayer
100
AcDbLine
 10
201.7522060332709
 20
16.28801375790529
 30
0.0
 11
201.96191724311666
 21
17.26577712828947
 31
0.0
  0
LINE
  5
1A7
330
17
100
AcDbEntity
  8
SubLayer
100
AcDbLine
 10
200.27137833837517
 20
-5.5796495474485805
 30
0.0
 11
200.20787009878163
 21
-4.581668233242885
 31
0.0
  0
LINE
  5
1A8
330
17
100
AcDbEntity
  8
SubLayer
100
AcDbLine
 10
-150.52438255738068
 20
20.406009650032672
 30
0.0
 11
-150.35012296668938
 21
16.40980725337505
 31
0.0
  0
LINE
  5
1A9
330
17
100
AcDbEntity
  8
SubLayer
100
AcDbLine
 10
-149.1210730144966
 20
-11.775340806947328
 30
0.0
 11
-148.9468134238053
 21
-15.771543203604947
 31
0.0
  0
LINE
  5
1AA
330
17
100
AcDbEntity
  8
SubLayer
100
AcDbLine
 10
-149.44529982074621
 20
-4.340020116386924
 30
0.0
 11
-149.1839104347093
 21
-10.334323711373354
 31
0.0
  0
LINE
  5
1AB
330
17
100
AcDbEntity
  8
SubLayer
100
AcDbLine
 10
-150.28728554647668
 20
14.968790157801077
 30
0.0
 11
-150.02589616043977
 21
8.974486562814647
 31
0.0
  0
LINE
  5
1AC
330
17
100
AcDbEntity
  8
SubLayer
100
AcDbLine
 10
-149.86629268361145
 20
5.314385020707077
 30
0.0
 11
-149.60490329757454
 21
-0.6799185742793536
 31
0.0
  0
LINE
  5
1AD
330
17
100
AcDbEntity
  8
SubLayer
100
AcDbLine
 10
-151.22557653071092
 20
-9.422402907554586
 30
0.0
 11
-147.2293741340533
 21
-9.248143316863313
 31
0.0
  0
LINE
  5
1AE
330
17
100
AcDbEntity
  8
SubLayer
100
AcDbLine
 10
-147.2293741340533
 20
-9.248143316863313
 30
0.0
 11
-147.4036337247446
 21
-5.251940920205692
 31
0.0
  0
LINE
  5
1AF
330
17
100
AcDbEntity
  8
SubLayer
100
AcDbLine
 10
-147.4036337247446
 20
-5.251940920205692
 30
0.0
 11
-151.39983612140222
 21
-5.426200510896966
 31
0.0
  0
LINE
  5
1B0
330
17
100
AcDbEntity
  8
SubLayer
100
AcDbLine
 10
-151.39983612140222
 20
-5.426200510896966
 30
0.0
 11
-151.22557653071092
 21
-9.422402907554586
 31
0.0
  0
LINE
  5
1B1
330
17
100
AcDbEntity
  8
SubLayer
100
AcDbLine
 10
-152.0675622564414
 20
9.886407366633415
 30
0.0
 11
-148.07135985978377
 21
10.060666957324688
 31
0.0
  0
LINE
  5
1B2
330
17
100
AcDbEntity
  8
SubLayer
100
AcDbLine
 10
-148.07135985978377
 20
10.060666957324688
 30
0.0
 11
-148.24561945047506
 21
14.056869353982309
 31
0.0
  0
LINE
  5
1B3
330
17
100
AcDbEntity
  8
SubLayer
100
AcDbLine
 10
-148.24561945047506
 20
14.056869353982309
 30
0.0
 11
-152.24182184713268
 21
13.882609763291036
 31
0.0
  0
LINE
  5
1B4
330
17
100
AcDbEntity
  8
SubLayer
100
AcDbLine
 10
-152.24182184713268
 20
13.882609763291036
 30
0.0
 11
-152.0675622564414
 21
9.886407366633415
 31
0.0
  0
LINE
  5
1B5
330
17
100
AcDbEntity
  8
SubLayer
100
AcDbLine
 10
-151.64656939357616
 20
0.23200222953941418
 30
0.0
 11
-147.65036699691854
 21
0.40626182023068824
 31
0.0
  0
LINE
  5
1B6
330
17
100
AcDbEntity
  8
SubLayer
100
AcDbLine
 10
-147.65036699691854
 20
0.40626182023068824
 30
0.0
 11
-147.82462658760983
 21
4.402464216888308
 31
0.0
  0
LINE
  5
1B7
330
17
100
AcDbEntity
  8
SubLayer
100
AcDbLine
 10
-147.82462658760983
 20
4.402464216888308
 30
0.0
 11
-151.82082898426745
 21
4.2282046261970345
 31
0.0
  0
LINE
  5
1B8
330
17
100
AcDbEntity
  8
SubLayer
100
AcDbLine
 10
-151.82082898426745
 20
4.2282046261970345
 30
0.0
 11
-151.64656939357616
 21
0.23200222953941418
 31
0.0
  0
LINE
  5
1B9
330
17
100
AcDbEntity
  8
SubLayer
100
AcDbLine
 10
99.02836062898646
 20
36.110910455203054
 30
0.0
 11
99.20262021967773
 21
32.11470805854543
 31
0.0
  0
LINE
  5
1BA
330
17
100
AcDbEntity
  8
SubLayer
100
AcDbLine
 10
101.06377906771603
 20
-10.566256699761029
 30
0.0
 11
101.23803865840729
 21
-14.562459096418648
 31
0.0
  0
LINE
  5
1BB
330
17
100
AcDbEntity
  8
SubLayer
100
AcDbLine
 10
100.6131304822973
 20
-0.23177266960380738
 30
0.0
 11
100.8745198683342
 21
-6.226076264590238
 31
0.0
  0
LINE
  5
1BC
330
17
100
AcDbEntity
  8
SubLayer
100
AcDbLine
 10
99.39187941905956
 20
27.774527623374645
 30
0.0
 11
99.65326880509647
 21
21.78022402838821
 31
0.0
  0
LINE
  5
1BD
330
17
100
AcDbEntity
  8
SubLayer
100
AcDbLine
 10
100.00250495067843
 20
13.771377476885418
 30
0.0
 11
100.26389433671534
 21
7.777073881898987
 31
0.0
  0
LINE
  5
1BE
330
17
100
AcDbEntity
  8
SubLayer
100
AcDbLine
 10
98.83285377233257
 20
-5.31415546077147
 30
0.0
 11
102.82905616899019
 21
-5.1398958700801956
 31
0.0
  0
LINE
  5
1BF
330
17
100
AcDbEntity
  8
SubLayer
100
AcDbLine
 10
102.82905616899019
 20
-5.1398958700801956
 30
0.0
 11
102.65479657829893
 21
-1.1436934734225752
 31
0.0
  0
LINE
  5
1C0
330
17
100
AcDbEntity
  8
SubLayer
100
AcDbLine
 10
102.65479657829893
 20
-1.1436934734225752
 30
0.0
 11
98.6585941816413
 21
-1.3179530641138493
 31
0.0
  0
LINE
  5
1C1
330
17
100
AcDbEntity
  8
SubLayer
100
AcDbLine
 10
98.6585941816413
 20
-1.3179530641138493
 30
0.0
 11
98.83285377233257
 21
-5.31415546077147
 31
0.0
  0
LINE
  5
1C2
330
17
100
AcDbEntity
  8
SubLayer
100
AcDbLine
 10
97.61160270909484
 20
22.69214483220698
 30
0.0
 11
101.60780510575246
 21
22.866404422898256
 31
0.0
  0
LINE
  5
1C3
330
17
100
AcDbEntity
  8
SubLayer
100
AcDbLine
 10
101.60780510575246
 20
22.866404422898256
 30
0.0
 11
101.4335455150612
 21
26.862606819555875
 31
0.0
  0
LINE
  5
1C4
330
17
100
AcDbEntity
  8
SubLayer
100
AcDbLine
 10
101.4335455150612
 20
26.862606819555875
 30
0.0
 11
97.43734311840358
 21
26.6883472288646
 31
0.0
  0
LINE
  5
1C5
330
17
100
AcDbEntity
  8
SubLayer
100
AcDbLine
 10
97.43734311840358
 20
26.6883472288646
 30
0.0
 11
97.61160270909484
 21
22.69214483220698
 31
0.0
  0
LINE
  5
1C6
330
17
100
AcDbEntity
  8
SubLayer
100
AcDbLine
 10
98.2222282407137
 20
8.688994685717756
 30
0.0
 11
102.21843063737133
 21
8.863254276409029
 31
0.0
  0
LINE
  5
1C7
330
17
100
AcDbEntity
  8
SubLayer
100
AcDbLine
 10
102.21843063737133
 20
8.863254276409029
 30
0.0
 11
102.04417104668006
 21
12.85945667306665
 31
0.0
  0
LINE
  5
1C8
330
17
100
AcDbEntity
  8
SubLayer
100
AcDbLine
 10
102.04417104668006
 20
12.85945667306665
 30
0.0
 11
98.04796865002244
 21
12.685197082375376
 31
0.0
  0
LINE
  5
1C9
330
17
100
AcDbEntity
  8
SubLayer
100
AcDbLine
 10
98.04796865002244
 20
12.685197082375376
 30
0.0
 11
98.2222282407137
 21
8.688994685717756
 31
0.0
  0
ENDSEC
  0
SECTION
  2
OBJECTS
  0
DICTIONARY
  5
A
330
0
100
AcDbDictionary
280
0
281
1
  3
ACAD_COLOR
350
B
  3
ACAD_GROUP
350
C
  3
ACAD_LAYOUT
350
D
  3
ACAD_MATERIAL
350
E
  3
ACAD_MLEADERSTYLE
350
F
  3
ACAD_MLINESTYLE
350
10
  3
ACAD_PLOTSETTINGS
350
11
  3
ACAD_PLOTSTYLENAME
350
12
  3
ACAD_SCALELIST
350
14
  3
ACAD_TABLESTYLE
350
15
  3
ACAD_VISUALSTYLE
350
16
  3
EZDXF_META
350
2D
  0
DICTIONARY
  5
B
330
A
100
AcDbDictionary
280
0
281
1
  0
DICTIONARY
  5
C
330
A
100
AcDbDictionary
280
0
281
1
  0
DICTIONARY
  5
D
330
A
100
AcDbDictionary
280
0
281
1
  3
Model
350
1A
  3
Layout1
350
1E
  0
DICTIONARY
  5
E
330
A
100
AcDbDictionary
280
0
281
1
  3
ByBlock
350
1F
  3
ByLayer
350
20
  3
Global
350
21
  0
DICTIONARY
  5
F
330
A
100
AcDbDictionary
280
0
281
1
  3
Standard
350
2C
  0
DICTIONARY
  5
10
330
A
100
AcDbDictionary
280
0
281
1
  3
Standard
350
22
  0
DICTIONARY
  5
11
330
A
100
AcDbDictionary
280
0
281
1
  0
ACDBDICTIONARYWDFLT
  5
12
330
A
100
AcDbDictionary
280
0
281
1
  3
Normal
350
13
100
AcDbDictionaryWithDefault
340
13
  0
ACDBPLACEHOLDER
  5
13
330
12
  0
DICTIONARY
  5
14
330
A
100
AcDbDictionary
280
0
281
1
  0
DICTIONARY
  5
15
330
A
100
AcDbDictionary
280
0
281
1
  0
DICTIONARY
  5
16
330
A
100
AcDbDictionary
280
0
281
1
  0
LAYOUT
  5
1A
330
D
100
AcDbPlotSettings
  1

  2
Adobe PDF
  4
A3
  6

 40
7.5
 41
20.0
 42
7.5
 43
20.0
 44
420.0
 45
297.0
 46
0.0
 47
0.0
 48
0.0
 49
0.0
140
0.0
141
0.0
142
1.0
143
1.0
 70
1024
 72
1
 73
0
 74
5
  7

 75
16
 76
0
 77
2
 78
300
147
1.0
148
0.0
149
0.0
100
AcDbLayout
  1
Model
 70
1
 71
0
 10
0.0
 20
0.0
 11
420.0
 21
297.0
 12
0.0
 22
0.0
 32
0.0
 14
1e+20
 24
1e+20
 34
1e+20
 15
-1e+20
 25
-1e+20
 35
-1e+20
146
0.0
 13
0.0
 23
0.0
 33
0.0
 16
1.0
 26
0.0
 36
0.0
 17
0.0
 27
1.0
 37
0.0
 76
1
330
17
  0
LAYOUT
  5
1E
330
D
100
AcDbPlotSettings
  1

  2
Adobe PDF
  4
A3
  6

 40
7.5
 41
20.0
 42
7.5
 43
20.0
 44
420.0
 45
297.0
 46
0.0
 47
0.0
 48
0.0
 49
0.0
140
0.0
141
0.0
142
1.0
143
1.0
 70
0
 72
1
 73
0
 74
5
  7

 75
16
 76
0
 77
2
 78
300
147
1.0
148
0.0
149
0.0
100
AcDbLayout
  1
Layout1
 70
1
 71
1
 10
0.0
 20
0.0
 11
420.0
 21
297.0
 12
0.0
 22
0.0
 32
0.0
 14
1e+20
 24
1e+20
 34
1e+20
 15
-1e+20
 25
-1e+20
 35
-1e+20
146
0.0
 13
0.0
 23
0.0
 33
0.0
 16
1.0
 26
0.0
 36
0.0
 17
0.0
 27
1.0
 37
0.0
 76
1
330
1B
  0
MATERIAL
  5
1F
102
{ACAD_REACTORS
330
E
102
}
330
E
100
AcDbMaterial
  1
ByBlock
  2

 70
0
 40
1.0
 71
1
 41
1.0
 91
-1023410177
 42
1.0
 72
1
  3

 73
1
 74
1
 75
1
 44
0.5
 73
0
 45
1.0
 46
1.0
 77
1
  4

 78
1
 79
1
170
1
 48
1.0
171
1
  6

172
1
173
1
174
1
140
1.0
141
1.0
175
1
  7

176
1
177
1
178
1
143
1.0
179
1
  8

270
1
271
1
272
1
145
1.0
146
1.0
273
1
  9

274
1
275
1
276
1
 42
1.0
 72
1
  3

 73
1
 74
1
 75
1
 94
63
  0
MATERIAL
  5
20
102
{ACAD_REACTORS
330
E
102
}
330
E
100
AcDbMaterial
  1
ByLayer
  2

 70
0
 40
1.0
 71
1
 41
1.0
 91
-1023410177
 42
1.0
 72
1
  3

 73
1
 74
1
 75
1
 44
0.5
 73
0
 45
1.0
 46
1.0
 77
1
  4

 78
1
 79
1
170
1
 48
1.0
171
1
  6

172
1
173
1
174
1
140
1.0
141
1.0
175
1
  7

176
1
177
1
178
1
143
1.0
179
1
  8

270
1
271
1
272
1
145
1.0
146
1.0
273
1
  9

274
1
275
1
276
1
 42
1.0
 72
1
  3

 73
1
 74
1
 75
1
 94
63
  0
MATERIAL
  5
21
102
{ACAD_REACTORS
330
E
102
}
330
E
100
AcDbMaterial
  1
Global
  2

 70
0
 40
1.0
 71
1
 41
1.0
 91
-1023410177
 42
1.0
 72
1
  3

 73
1
 74
1
 75
1
 44
0.5
 73
0
 45
1.0
 46
1.0
 77
1
  4

 78
1
 79
1
170
1
 48
1.0
171
1
  6

172
1
173
1
174
1
140
1.0
141
1.0
175
1
  7

176
1
177
1
178
1
143
1.0
179
1
  8

270
1
271
1
272
1
145
1.0
146
1.0
273
1
  9

274
1
275
1
276
1
 42
1.0
 72
1
  3

 73
1
 74
1
 75
1
 94
63
  0
MLINESTYLE
  5
22
102
{ACAD_REACTORS
330
10
102
}
330
10
100
AcDbMlineStyle
  2
Standard
 70
0
  3

 62
256
 51
90.0
 52
90.0
 71
2
 49
0.5
 62
256
  6
BYLAYER
 49
-0.5
 62
256
  6
BYLAYER
  0
MLEADERSTYLE
  5
2C
102
{ACAD_REACTORS
330
F
102
}
330
F
100
AcDbMLeaderStyle
179
2
170
2
171
1
172
0
 90
2
 40
0.0
 41
0.0
173
1
 91
-1056964608
 92
-2
290
1
 42
2.0
291
1
 43
8.0
  3
Standard
 44
4.0
300

342
29
174
1
175
1
176
0
178
1
 93
-1056964608
 45
4.0
292
0
297
0
 46
4.0
 94
-1056964608
 47
1.0
 49
1.0
140
1.0
294
1
141
0.0
177
0
142
1.0
295
0
296
0
143
3.75
271
0
272
9
273
9
  0
DICTIONARY
  5
2D
330
A
100
AcDbDictionary
281
1
  3
CREATED_BY_EZDXF
350
2E
  3
WRITTEN_BY_EZDXF
350
1CC
  0
DICTIONARYVAR
  5
2E
330
2D
100
DictionaryVariables
280
0
  1
1.0.2 @ 2024-03-22T07:41:35.066425+00:00
  0
DICTIONARYVAR
  5
1CC
330
2D
100
DictionaryVariables
280
0
  1
1.0.2 @ 2024-03-22T07:41:35.075911+00:00
  0
ENDSEC
  0
EOF
