  0
SECTION
  2
HEADER
  9
$ACADVER
  1
AC1027
  9
$ACADMAINTVER
 70
105
  9
$DWGCODEPAGE
  3
ANSI_1252
  9
$LASTSAVEDBY
  1
ezdxf
  9
$REQUIREDVERSIONS
160
0
  9
$INSBASE
 10
0.0
 20
0.0
 30
0.0
  9
$EXTMIN
 10
1e+20
 20
1e+20
 30
1e+20
  9
$EXTMAX
 10
-1e+20
 20
-1e+20
 30
-1e+20
  9
$LIMMIN
 10
0.0
 20
0.0
  9
$LIMMAX
 10
420.0
 20
297.0
  9
$ORTHOMODE
 70
0
  9
$REGENMODE
 70
1
  9
$FILLMODE
 70
1
  9
$QTEXTMODE
 70
0
  9
$MIRRTEXT
 70
1
  9
$LTSCALE
 40
1.0
  9
$ATTMODE
 70
1
  9
$TEXTSIZE
 40
2.5
  9
$TRACEWID
 40
1.0
  9
$TEXTSTYLE
  7
Standard
  9
$CLAYER
  8
0
  9
$CELTYPE
  6
ByLayer
  9
$CECOLOR
 62
256
  9
$CELTSCALE
 40
1.0
  9
$DISPSILH
 70
0
  9
$DIMSCALE
 40
1.0
  9
$DIMASZ
 40
2.5
  9
$DIMEXO
 40
0.625
  9
$DIMDLI
 40
3.75
  9
$DIMRND
 40
0.0
  9
$DIMDLE
 40
0.0
  9
$DIMEXE
 40
1.25
  9
$DIMTP
 40
0.0
  9
$DIMTM
 40
0.0
  9
$DIMTXT
 40
2.5
  9
$DIMCEN
 40
2.5
  9
$DIMTSZ
 40
0.0
  9
$DIMTOL
 70
0
  9
$DIMLIM
 70
0
  9
$DIMTIH
 70
0
  9
$DIMTOH
 70
0
  9
$DIMSE1
 70
0
  9
$DIMSE2
 70
0
  9
$DIMTAD
 70
1
  9
$DIMZIN
 70
8
  9
$DIMBLK
  1

  9
$DIMASO
 70
1
  9
$DIMSHO
 70
1
  9
$DIMPOST
  1

  9
$DIMAPOST
  1

  9
$DIMALT
 70
0
  9
$DIMALTD
 70
3
  9
$DIMALTF
 40
0.03937007874
  9
$DIMLFAC
 40
1.0
  9
$DIMTOFL
 70
1
  9
$DIMTVP
 40
0.0
  9
$DIMTIX
 70
0
  9
$DIMSOXD
 70
0
  9
$DIMSAH
 70
0
  9
$DIMBLK1
  1

  9
$DIMBLK2
  1

  9
$DIMSTYLE
  2
ISO-25
  9
$DIMCLRD
 70
0
  9
$DIMCLRE
 70
0
  9
$DIMCLRT
 70
0
  9
$DIMTFAC
 40
1.0
  9
$DIMGAP
 40
0.625
  9
$DIMJUST
 70
0
  9
$DIMSD1
 70
0
  9
$DIMSD2
 70
0
  9
$DIMTOLJ
 70
0
  9
$DIMTZIN
 70
8
  9
$DIMALTZ
 70
0
  9
$DIMALTTZ
 70
0
  9
$DIMUPT
 70
0
  9
$DIMDEC
 70
2
  9
$DIMTDEC
 70
2
  9
$DIMALTU
 70
2
  9
$DIMALTTD
 70
3
  9
$DIMTXSTY
  7
Standard
  9
$DIMAUNIT
 70
0
  9
$DIMADEC
 70
0
  9
$DIMALTRND
 40
0.0
  9
$DIMAZIN
 70
0
  9
$DIMDSEP
 70
44
  9
$DIMATFIT
 70
3
  9
$DIMFRAC
 70
0
  9
$DIMLDRBLK
  1

  9
$DIMLUNIT
 70
2
  9
$DIMLWD
 70
-2
  9
$DIMLWE
 70
-2
  9
$DIMTMOVE
 70
0
  9
$DIMFXL
 40
1.0
  9
$DIMFXLON
 70
0
  9
$DIMJOGANG
 40
0.785398163397
  9
$DIMTFILL
 70
0
  9
$DIMTFILLCLR
 70
0
  9
$DIMARCSYM
 70
0
  9
$DIMLTYPE
  6

  9
$DIMLTEX1
  6

  9
$DIMLTEX2
  6

  9
$DIMTXTDIRECTION
 70
0
  9
$LUNITS
 70
2
  9
$LUPREC
 70
4
  9
$SKETCHINC
 40
1.0
  9
$FILLETRAD
 40
10.0
  9
$AUNITS
 70
0
  9
$AUPREC
 70
2
  9
$MENU
  1
.
  9
$ELEVATION
 40
0.0
  9
$PELEVATION
 40
0.0
  9
$THICKNESS
 40
0.0
  9
$LIMCHECK
 70
0
  9
$CHAMFERA
 40
0.0
  9
$CHAMFERB
 40
0.0
  9
$CHAMFERC
 40
0.0
  9
$CHAMFERD
 40
0.0
  9
$SKPOLY
 70
0
  9
$TDCREATE
 40
2460392.6955439816
  9
$TDUCREATE
 40
2458532.153996898
  9
$TDUPDATE
 40
2460392.6955439816
  9
$TDUUPDATE
 40
2458532.1544311
  9
$TDINDWG
 40
0.0
  9
$TDUSRTIMER
 40
0.0
  9
$USRTIMER
 70
1
  9
$ANGBASE
 50
0.0
  9
$ANGDIR
 70
0
  9
$PDMODE
 70
0
  9
$PDSIZE
 40
0.0
  9
$PLINEWID
 40
0.0
  9
$SPLFRAME
 70
0
  9
$SPLINETYPE
 70
6
  9
$SPLINESEGS
 70
8
  9
$HANDSEED
  5
1AA
  9
$SURFTAB1
 70
6
  9
$SURFTAB2
 70
6
  9
$SURFTYPE
 70
6
  9
$SURFU
 70
6
  9
$SURFV
 70
6
  9
$UCSBASE
  2

  9
$UCSNAME
  2

  9
$UCSORG
 10
0.0
 20
0.0
 30
0.0
  9
$UCSXDIR
 10
1.0
 20
0.0
 30
0.0
  9
$UCSYDIR
 10
0.0
 20
1.0
 30
0.0
  9
$UCSORTHOREF
  2

  9
$UCSORTHOVIEW
 70
0
  9
$UCSORGTOP
 10
0.0
 20
0.0
 30
0.0
  9
$UCSORGBOTTOM
 10
0.0
 20
0.0
 30
0.0
  9
$UCSORGLEFT
 10
0.0
 20
0.0
 30
0.0
  9
$UCSORGRIGHT
 10
0.0
 20
0.0
 30
0.0
  9
$UCSORGFRONT
 10
0.0
 20
0.0
 30
0.0
  9
$UCSORGBACK
 10
0.0
 20
0.0
 30
0.0
  9
$PUCSBASE
  2

  9
$PUCSNAME
  2

  9
$PUCSORG
 10
0.0
 20
0.0
 30
0.0
  9
$PUCSXDIR
 10
1.0
 20
0.0
 30
0.0
  9
$PUCSYDIR
 10
0.0
 20
1.0
 30
0.0
  9
$PUCSORTHOREF
  2

  9
$PUCSORTHOVIEW
 70
0
  9
$PUCSORGTOP
 10
0.0
 20
0.0
 30
0.0
  9
$PUCSORGBOTTOM
 10
0.0
 20
0.0
 30
0.0
  9
$PUCSORGLEFT
 10
0.0
 20
0.0
 30
0.0
  9
$PUCSORGRIGHT
 10
0.0
 20
0.0
 30
0.0
  9
$PUCSORGFRONT
 10
0.0
 20
0.0
 30
0.0
  9
$PUCSORGBACK
 10
0.0
 20
0.0
 30
0.0
  9
$USERI1
 70
0
  9
$USERI2
 70
0
  9
$USERI3
 70
0
  9
$USERI4
 70
0
  9
$USERI5
 70
0
  9
$USERR1
 40
0.0
  9
$USERR2
 40
0.0
  9
$USERR3
 40
0.0
  9
$USERR4
 40
0.0
  9
$USERR5
 40
0.0
  9
$WORLDVIEW
 70
1
  9
$SHADEDGE
 70
3
  9
$SHADEDIF
 70
70
  9
$TILEMODE
 70
1
  9
$MAXACTVP
 70
64
  9
$PINSBASE
 10
0.0
 20
0.0
 30
0.0
  9
$PLIMCHECK
 70
0
  9
$PEXTMIN
 10
1e+20
 20
1e+20
 30
1e+20
  9
$PEXTMAX
 10
-1e+20
 20
-1e+20
 30
-1e+20
  9
$PLIMMIN
 10
0.0
 20
0.0
  9
$PLIMMAX
 10
420.0
 20
297.0
  9
$UNITMODE
 70
0
  9
$VISRETAIN
 70
1
  9
$PLINEGEN
 70
0
  9
$PSLTSCALE
 70
1
  9
$TREEDEPTH
 70
3020
  9
$CMLSTYLE
  2
Standard
  9
$CMLJUST
 70
0
  9
$CMLSCALE
 40
20.0
  9
$PROXYGRAPHICS
 70
1
  9
$MEASUREMENT
 70
1
  9
$CELWEIGHT
370
-1
  9
$ENDCAPS
280
0
  9
$JOINSTYLE
280
0
  9
$LWDISPLAY
290
0
  9
$INSUNITS
 70
6
  9
$HYPERLINKBASE
  1

  9
$STYLESHEET
  1

  9
$XEDIT
290
1
  9
$CEPSNTYPE
380
0
  9
$PSTYLEMODE
290
1
  9
$FINGERPRINTGUID
  2
{F372F31F-9108-407A-AC7E-B3855C76C9DD}
  9
$VERSIONGUID
  2
{402146F0-CA52-4EDD-9E18-1314AF5CB27E}
  9
$EXTNAMES
290
1
  9
$PSVPSCALE
 40
0.0
  9
$OLESTARTUP
290
0
  9
$SORTENTS
280
127
  9
$INDEXCTL
280
0
  9
$HIDETEXT
280
1
  9
$XCLIPFRAME
280
0
  9
$HALOGAP
280
0
  9
$OBSCOLOR
 70
257
  9
$OBSLTYPE
280
0
  9
$INTERSECTIONDISPLAY
280
0
  9
$INTERSECTIONCOLOR
 70
257
  9
$DIMASSOC
280
2
  9
$PROJECTNAME
  1

  9
$CAMERADISPLAY
290
0
  9
$LENSLENGTH
 40
50.0
  9
$CAMERAHEIGHT
 40
0.0
  9
$STEPSPERSEC
 40
24.0
  9
$STEPSIZE
 40
100.0
  9
$3DDWFPREC
 40
2.0
  9
$PSOLWIDTH
 40
0.005
  9
$PSOLHEIGHT
 40
0.08
  9
$LOFTANG1
 40
1.570796326795
  9
$LOFTANG2
 40
1.570796326795
  9
$LOFTMAG1
 40
0.0
  9
$LOFTMAG2
 40
0.0
  9
$LOFTPARAM
 70
7
  9
$LOFTNORMALS
280
1
  9
$LATITUDE
 40
37.795
  9
$LONGITUDE
 40
-122.394
  9
$NORTHDIRECTION
 40
0.0
  9
$TIMEZONE
 70
-8000
  9
$LIGHTGLYPHDISPLAY
280
1
  9
$TILEMODELIGHTSYNCH
280
1
  9
$CMATERIAL
347
20
  9
$SOLIDHIST
280
0
  9
$SHOWHIST
280
1
  9
$DWFFRAME
280
2
  9
$DGNFRAME
280
2
  9
$REALWORLDSCALE
290
1
  9
$INTERFERECOLOR
 62
256
  9
$CSHADOW
280
0
  9
$SHADOWPLANELOCATION
 40
0.0
  0
ENDSEC
  0
SECTION
  2
CLASSES
  0
CLASS
  1
ACDBDICTIONARYWDFLT
  2
AcDbDictionaryWithDefault
  3
ObjectDBX Classes
 90
0
 91
0
280
0
281
0
  0
CLASS
  1
SUN
  2
AcDbSun
  3
SCENEOE
 90
1153
 91
0
280
0
281
0
  0
CLASS
  1
VISUALSTYLE
  2
AcDbVisualStyle
  3
ObjectDBX Classes
 90
4095
 91
0
280
0
281
0
  0
CLASS
  1
MATERIAL
  2
AcDbMaterial
  3
ObjectDBX Classes
 90
1153
 91
0
280
0
281
0
  0
CLASS
  1
SCALE
  2
AcDbScale
  3
ObjectDBX Classes
 90
1153
 91
0
280
0
281
0
  0
CLASS
  1
TABLESTYLE
  2
AcDbTableStyle
  3
ObjectDBX Classes
 90
4095
 91
0
280
0
281
0
  0
CLASS
  1
MLEADERSTYLE
  2
AcDbMLeaderStyle
  3
ACDB_MLEADERSTYLE_CLASS
 90
4095
 91
0
280
0
281
0
  0
CLASS
  1
DICTIONARYVAR
  2
AcDbDictionaryVar
  3
ObjectDBX Classes
 90
0
 91
0
280
0
281
0
  0
CLASS
  1
CELLSTYLEMAP
  2
AcDbCellStyleMap
  3
ObjectDBX Classes
 90
1152
 91
0
280
0
281
0
  0
CLASS
  1
MENTALRAYRENDERSETTINGS
  2
AcDbMentalRayRenderSettings
  3
SCENEOE
 90
1024
 91
0
280
0
281
0
  0
CLASS
  1
ACDBDETAILVIEWSTYLE
  2
AcDbDetailViewStyle
  3
ObjectDBX Classes
 90
1025
 91
0
280
0
281
0
  0
CLASS
  1
ACDBSECTIONVIEWSTYLE
  2
AcDbSectionViewStyle
  3
ObjectDBX Classes
 90
1025
 91
0
280
0
281
0
  0
CLASS
  1
RASTERVARIABLES
  2
AcDbRasterVariables
  3
ISM
 90
0
 91
0
280
0
281
0
  0
CLASS
  1
LAYOUT
  2
AcDbLayout
  3
ObjectDBX Classes
 90
0
 91
0
280
0
281
0
  0
CLASS
  1
ACDBPLACEHOLDER
  2
AcDbPlaceHolder
  3
ObjectDBX Classes
 90
0
 91
0
280
0
281
0
  0
ENDSEC
  0
SECTION
  2
TABLES
  0
TABLE
  2
VPORT
  5
8
330
0
100
AcDbSymbolTable
 70
1
  0
VPORT
  5
23
330
8
100
AcDbSymbolTableRecord
100
AcDbViewportTableRecord
  2
*Active
 70
0
 10
0.0
 20
0.0
 11
1.0
 21
1.0
 12
0.0
 22
0.0
 13
0.0
 23
0.0
 14
0.5
 24
0.5
 15
0.5
 25
0.5
 16
0.0
 26
0.0
 36
1.0
 17
0.0
 27
0.0
 37
0.0
 40
1000.0
 41
1.34
 42
50.0
 43
0.0
 44
0.0
 50
0.0
 51
0.0
 71
0
 72
1000
 73
1
 74
3
 75
0
 76
0
 77
0
 78
0
281
0
 65
0
146
0.0
  0
ENDTAB
  0
TABLE
  2
LTYPE
  5
2
330
0
100
AcDbSymbolTable
 70
3
  0
LTYPE
  5
24
330
2
100
AcDbSymbolTableRecord
100
AcDbLinetypeTableRecord
  2
ByBlock
 70
0
  3

 72
65
 73
0
 40
0.0
  0
LTYPE
  5
25
330
2
100
AcDbSymbolTableRecord
100
AcDbLinetypeTableRecord
  2
ByLayer
 70
0
  3

 72
65
 73
0
 40
0.0
  0
LTYPE
  5
26
330
2
100
AcDbSymbolTableRecord
100
AcDbLinetypeTableRecord
  2
Continuous
 70
0
  3

 72
65
 73
0
 40
0.0
  0
ENDTAB
  0
TABLE
  2
LAYER
  5
1
330
0
100
AcDbSymbolTable
 70
5
  0
LAYER
  5
27
330
1
100
AcDbSymbolTableRecord
100
AcDbLayerTableRecord
  2
0
 70
0
 62
7
  6
Continuous
370
-3
390
13
347
21
  0
LAYER
  5
28
330
1
100
AcDbSymbolTableRecord
100
AcDbLayerTableRecord
  2
Defpoints
 70
0
 62
7
  6
Continuous
290
0
370
-3
390
13
347
21
  0
LAYER
  5
30
330
1
100
AcDbSymbolTableRecord
100
AcDbLayerTableRecord
  2
FoilLayer
 70
0
 62
1
  6
Continuous
370
50
390
13
347
21
  0
LAYER
  5
31
330
1
100
AcDbSymbolTableRecord
100
AcDbLayerTableRecord
  2
StringerLayer
 70
0
 62
1
  6
Continuous
370
50
390
13
347
21
  0
LAYER
  5
32
330
1
100
AcDbSymbolTableRecord
100
AcDbLayerTableRecord
  2
SubLayer
 70
0
 62
1
  6
Continuous
370
50
390
13
347
21
  0
ENDTAB
  0
TABLE
  2
STYLE
  5
5
330
0
100
AcDbSymbolTable
 70
2
  0
STYLE
  5
29
330
5
100
AcDbSymbolTableRecord
100
AcDbTextStyleTableRecord
  2
Standard
 70
0
 40
0.0
 41
1.0
 50
0.0
 71
0
 42
2.5
  3
txt
  4

  0
STYLE
  5
2F
330
5
100
AcDbSymbolTableRecord
100
AcDbTextStyleTableRecord
  2
MSゴシック
 70
0
 40
0.0
 41
1.0
 50
0.0
 71
0
 42
2.5
  3
romans
  4

  0
ENDTAB
  0
TABLE
  2
VIEW
  5
7
330
0
100
AcDbSymbolTable
 70
0
  0
ENDTAB
  0
TABLE
  2
UCS
  5
6
330
0
100
AcDbSymbolTable
 70
0
  0
ENDTAB
  0
TABLE
  2
APPID
  5
3
330
0
100
AcDbSymbolTable
 70
3
  0
APPID
  5
2A
330
3
100
AcDbSymbolTableRecord
100
AcDbRegAppTableRecord
  2
ACAD
 70
0
  0
APPID
  5
1A7
330
3
100
AcDbSymbolTableRecord
100
AcDbRegAppTableRecord
  2
HATCHBACKGROUNDCOLOR
 70
0
  0
APPID
  5
1A8
330
3
100
AcDbSymbolTableRecord
100
AcDbRegAppTableRecord
  2
EZDXF
 70
0
  0
ENDTAB
  0
TABLE
  2
DIMSTYLE
  5
4
330
0
100
AcDbSymbolTable
 70
1
100
AcDbDimStyleTable
  0
DIMSTYLE
105
2B
330
4
100
AcDbSymbolTableRecord
100
AcDbDimStyleTableRecord
  2
Standard
 70
0
 40
1.0
 41
2.5
 42
0.625
 43
3.75
 44
1.25
 45
0.0
 46
0.0
 47
0.0
 48
0.0
 49
2.5
140
2.5
141
2.5
142
0.0
143
0.03937007874
144
1.0
145
0.0
146
1.0
147
0.625
148
0.0
 69
0
 70
0
 71
0
 72
0
 73
0
 74
0
 75
0
 76
0
 77
1
 78
8
 79
3
170
0
171
3
172
1
173
0
174
0
175
0
176
0
177
0
178
0
179
2
271
2
272
2
273
2
274
3
275
0
276
0
277
2
278
44
279
0
280
0
281
0
282
0
283
0
284
8
285
0
286
0
288
0
289
3
290
0
371
-2
372
-2
  0
ENDTAB
  0
TABLE
  2
BLOCK_RECORD
  5
9
330
0
100
AcDbSymbolTable
 70
2
  0
BLOCK_RECORD
  5
17
330
9
100
AcDbSymbolTableRecord
100
AcDbBlockTableRecord
  2
*Model_Space
340
1A
 70
0
280
1
281
0
  0
BLOCK_RECORD
  5
1B
330
9
100
AcDbSymbolTableRecord
100
AcDbBlockTableRecord
  2
*Paper_Space
340
1E
 70
0
280
1
281
0
  0
ENDTAB
  0
ENDSEC
  0
SECTION
  2
BLOCKS
  0
BLOCK
  5
18
330
17
100
AcDbEntity
  8
0
100
AcDbBlockBegin
  2
*Model_Space
 70
0
 10
0.0
 20
0.0
 30
0.0
  3
*Model_Space
  1

  0
ENDBLK
  5
19
330
17
100
AcDbEntity
  8
0
100
AcDbBlockEnd
  0
BLOCK
  5
1C
330
1B
100
AcDbEntity
  8
0
100
AcDbBlockBegin
  2
*Paper_Space
 70
0
 10
0.0
 20
0.0
 30
0.0
  3
*Paper_Space
  1

  0
ENDBLK
  5
1D
330
1B
100
AcDbEntity
  8
0
100
AcDbBlockEnd
  0
ENDSEC
  0
SECTION
  2
ENTITIES
  0
LINE
  5
33
330
17
100
AcDbEntity
  8
FoilLayer
100
AcDbLine
 10
255.37479462286072
 20
-0.12597255650356348
 30
0.0
 11
253.96524117193061
 21
0.17468881106074796
 31
0.0
  0
LINE
  5
34
330
17
100
AcDbEntity
  8
FoilLayer
100
AcDbLine
 10
253.96524117193061
 20
0.17468881106074796
 30
0.0
 11
251.70518039151668
 21
0.6644933199839906
 31
0.0
  0
LINE
  5
35
330
17
100
AcDbEntity
  8
FoilLayer
100
AcDbLine
 10
251.70518039151668
 20
0.6644933199839906
 30
0.0
 11
249.26378280241366
 21
1.2010907927821504
 31
0.0
  0
LINE
  5
36
330
17
100
AcDbEntity
  8
FoilLayer
100
AcDbLine
 10
249.26378280241366
 20
1.2010907927821504
 30
0.0
 11
246.63954519706638
 21
1.7763069473834556
 31
0.0
  0
LINE
  5
37
330
17
100
AcDbEntity
  8
FoilLayer
100
AcDbLine
 10
246.63954519706638
 20
1.7763069473834556
 30
0.0
 11
243.8314570347168
 21
2.3797832922627196
 31
0.0
  0
LINE
  5
38
330
17
100
AcDbEntity
  8
FoilLayer
100
AcDbLine
 10
243.8314570347168
 20
2.3797832922627196
 30
0.0
 11
240.8521122329669
 21
3.021165959083303
 31
0.0
  0
LINE
  5
39
330
17
100
AcDbEntity
  8
FoilLayer
100
AcDbLine
 10
240.8521122329669
 20
3.021165959083303
 30
0.0
 11
237.72002791413237
 21
3.704122539714116
 31
0.0
  0
LINE
  5
3A
330
17
100
AcDbEntity
  8
FoilLayer
100
AcDbLine
 10
237.72002791413237
 20
3.704122539714116
 30
0.0
 11
234.45358826534223
 21
4.416774214003026
 31
0.0
  0
LINE
  5
3B
330
17
100
AcDbEntity
  8
FoilLayer
100
AcDbLine
 10
234.45358826534223
 20
4.416774214003026
 30
0.0
 11
231.06968316035486
 21
5.140964448136467
 31
0.0
  0
LINE
  5
3C
330
17
100
AcDbEntity
  8
FoilLayer
100
AcDbLine
 10
231.06968316035486
 20
5.140964448136467
 30
0.0
 11
227.58764719526377
 21
5.870257211817899
 31
0.0
  0
LINE
  5
3D
330
17
100
AcDbEntity
  8
FoilLayer
100
AcDbLine
 10
227.58764719526377
 20
5.870257211817899
 30
0.0
 11
224.02417094591587
 21
6.604771108390752
 31
0.0
  0
LINE
  5
3E
330
17
100
AcDbEntity
  8
FoilLayer
100
AcDbLine
 10
224.02417094591587
 20
6.604771108390752
 30
0.0
 11
220.40519529630743
 21
7.366865630218782
 31
0.0
  0
LINE
  5
3F
330
17
100
AcDbEntity
  8
FoilLayer
100
AcDbLine
 10
220.40519529630743
 20
7.366865630218782
 30
0.0
 11
216.74205796880014
 21
8.143891050500383
 31
0.0
  0
LINE
  5
40
330
17
100
AcDbEntity
  8
FoilLayer
100
AcDbLine
 10
216.74205796880014
 20
8.143891050500383
 30
0.0
 11
213.0448308610797
 21
8.927520821296929
 31
0.0
  0
LINE
  5
41
330
17
100
AcDbEntity
  8
FoilLayer
100
AcDbLine
 10
213.0448308610797
 20
8.927520821296929
 30
0.0
 11
209.3211797214681
 21
9.70854038967728
 31
0.0
  0
LINE
  5
42
330
17
100
AcDbEntity
  8
FoilLayer
100
AcDbLine
 10
209.3211797214681
 20
9.70854038967728
 30
0.0
 11
205.5731306420333
 21
10.474259563292394
 31
0.0
  0
LINE
  5
43
330
17
100
AcDbEntity
  8
FoilLayer
100
AcDbLine
 10
205.5731306420333
 20
10.474259563292394
 30
0.0
 11
201.80485522877822
 21
11.231599090607695
 31
0.0
  0
LINE
  5
44
330
17
100
AcDbEntity
  8
FoilLayer
100
AcDbLine
 10
201.80485522877822
 20
11.231599090607695
 30
0.0
 11
198.02972291606895
 21
12.006495252635219
 31
0.0
  0
LINE
  5
45
330
17
100
AcDbEntity
  8
FoilLayer
100
AcDbLine
 10
198.02972291606895
 20
12.006495252635219
 30
0.0
 11
194.24870558932142
 21
12.788873449942828
 31
0.0
  0
LINE
  5
46
330
17
100
AcDbEntity
  8
FoilLayer
100
AcDbLine
 10
194.24870558932142
 20
12.788873449942828
 30
0.0
 11
190.46230325713694
 21
13.569855445001552
 31
0.0
  0
LINE
  5
47
330
17
100
AcDbEntity
  8
FoilLayer
100
AcDbLine
 10
190.46230325713694
 20
13.569855445001552
 30
0.0
 11
186.67019504079244
 21
14.340252667623455
 31
0.0
  0
LINE
  5
48
330
17
100
AcDbEntity
  8
FoilLayer
100
AcDbLine
 10
186.67019504079244
 20
14.340252667623455
 30
0.0
 11
182.87096671732516
 21
15.091036378402473
 31
0.0
  0
LINE
  5
49
330
17
100
AcDbEntity
  8
FoilLayer
100
AcDbLine
 10
182.87096671732516
 20
15.091036378402473
 30
0.0
 11
179.06193240065292
 21
15.822408784355519
 31
0.0
  0
LINE
  5
4A
330
17
100
AcDbEntity
  8
FoilLayer
100
AcDbLine
 10
179.06193240065292
 20
15.822408784355519
 30
0.0
 11
175.25159604849816
 21
16.563017953749313
 31
0.0
  0
LINE
  5
4B
330
17
100
AcDbEntity
  8
FoilLayer
100
AcDbLine
 10
175.25159604849816
 20
16.563017953749313
 30
0.0
 11
171.4466202119141
 21
17.32249264585186
 31
0.0
  0
LINE
  5
4C
330
17
100
AcDbEntity
  8
FoilLayer
100
AcDbLine
 10
171.4466202119141
 20
17.32249264585186
 30
0.0
 11
167.64289415984527
 21
18.080355772859768
 31
0.0
  0
LINE
  5
4D
330
17
100
AcDbEntity
  8
FoilLayer
100
AcDbLine
 10
167.64289415984527
 20
18.080355772859768
 30
0.0
 11
163.83749346670336
 21
18.82526986108115
 31
0.0
  0
LINE
  5
4E
330
17
100
AcDbEntity
  8
FoilLayer
100
AcDbLine
 10
163.83749346670336
 20
18.82526986108115
 30
0.0
 11
160.02800774678164
 21
19.546381856176577
 31
0.0
  0
LINE
  5
4F
330
17
100
AcDbEntity
  8
FoilLayer
100
AcDbLine
 10
160.02800774678164
 20
19.546381856176577
 30
0.0
 11
156.21197443588827
 21
20.23868107190773
 31
0.0
  0
LINE
  5
50
330
17
100
AcDbEntity
  8
FoilLayer
100
AcDbLine
 10
156.21197443588827
 20
20.23868107190773
 30
0.0
 11
153.20301658205912
 21
20.769883804703426
 31
0.0
  0
LINE
  5
51
330
17
100
AcDbEntity
  8
FoilLayer
100
AcDbLine
 10
153.20301658205912
 20
20.769883804703426
 30
0.0
 11
153.02047194019852
 21
19.735873430612347
 31
0.0
  0
LINE
  5
52
330
17
100
AcDbEntity
  8
FoilLayer
100
AcDbLine
 10
153.02047194019852
 20
19.735873430612347
 30
0.0
 11
152.20432720864827
 21
19.87996177358907
 31
0.0
  0
LINE
  5
53
330
17
100
AcDbEntity
  8
FoilLayer
100
AcDbLine
 10
152.20432720864827
 20
19.87996177358907
 30
0.0
 11
148.3822992628893
 21
20.565585591944046
 31
0.0
  0
LINE
  5
54
330
17
100
AcDbEntity
  8
FoilLayer
100
AcDbLine
 10
148.3822992628893
 20
20.565585591944046
 30
0.0
 11
144.568559047091
 21
21.258493855964236
 31
0.0
  0
LINE
  5
55
330
17
100
AcDbEntity
  8
FoilLayer
100
AcDbLine
 10
144.568559047091
 20
21.258493855964236
 30
0.0
 11
140.7575902091942
 21
21.944115976186378
 31
0.0
  0
LINE
  5
56
330
17
100
AcDbEntity
  8
FoilLayer
100
AcDbLine
 10
140.7575902091942
 20
21.944115976186378
 30
0.0
 11
136.948911127177
 21
22.61497837663174
 31
0.0
  0
LINE
  5
57
330
17
100
AcDbEntity
  8
FoilLayer
100
AcDbLine
 10
136.948911127177
 20
22.61497837663174
 30
0.0
 11
133.13847856233312
 21
23.26129241603575
 31
0.0
  0
LINE
  5
58
330
17
100
AcDbEntity
  8
FoilLayer
100
AcDbLine
 10
133.13847856233312
 20
23.26129241603575
 30
0.0
 11
129.318988120304
 21
23.880900673775045
 31
0.0
  0
LINE
  5
59
330
17
100
AcDbEntity
  8
FoilLayer
100
AcDbLine
 10
129.318988120304
 20
23.880900673775045
 30
0.0
 11
125.49206791888102
 21
24.4885290551147
 31
0.0
  0
LINE
  5
5A
330
17
100
AcDbEntity
  8
FoilLayer
100
AcDbLine
 10
125.49206791888102
 20
24.4885290551147
 30
0.0
 11
121.6687036382904
 21
25.099933829140358
 31
0.0
  0
LINE
  5
5B
330
17
100
AcDbEntity
  8
FoilLayer
100
AcDbLine
 10
121.6687036382904
 20
25.099933829140358
 30
0.0
 11
117.85398177308727
 21
25.711171959842027
 31
0.0
  0
LINE
  5
5C
330
17
100
AcDbEntity
  8
FoilLayer
100
AcDbLine
 10
117.85398177308727
 20
25.711171959842027
 30
0.0
 11
114.04073831517954
 21
26.306300172636462
 31
0.0
  0
LINE
  5
5D
330
17
100
AcDbEntity
  8
FoilLayer
100
AcDbLine
 10
114.04073831517954
 20
26.306300172636462
 30
0.0
 11
110.22929559765836
 21
26.879824050942386
 31
0.0
  0
LINE
  5
5E
330
17
100
AcDbEntity
  8
FoilLayer
100
AcDbLine
 10
110.22929559765836
 20
26.879824050942386
 30
0.0
 11
106.4097073336923
 21
27.42525482233772
 31
0.0
  0
LINE
  5
5F
330
17
100
AcDbEntity
  8
FoilLayer
100
AcDbLine
 10
106.4097073336923
 20
27.42525482233772
 30
0.0
 11
102.58798531740044
 21
27.957871821383034
 31
0.0
  0
LINE
  5
60
330
17
100
AcDbEntity
  8
FoilLayer
100
AcDbLine
 10
102.58798531740044
 20
27.957871821383034
 30
0.0
 11
98.76744020766216
 21
28.483571549227946
 31
0.0
  0
LINE
  5
61
330
17
100
AcDbEntity
  8
FoilLayer
100
AcDbLine
 10
98.76744020766216
 20
28.483571549227946
 30
0.0
 11
94.95133633573747
 21
29.003230593572617
 31
0.0
  0
LINE
  5
62
330
17
100
AcDbEntity
  8
FoilLayer
100
AcDbLine
 10
94.95133633573747
 20
29.003230593572617
 30
0.0
 11
91.14157996413417
 21
29.51037227330405
 31
0.0
  0
LINE
  5
63
330
17
100
AcDbEntity
  8
FoilLayer
100
AcDbLine
 10
91.14157996413417
 20
29.51037227330405
 30
0.0
 11
87.33260788964512
 21
29.99285409428579
 31
0.0
  0
LINE
  5
64
330
17
100
AcDbEntity
  8
FoilLayer
100
AcDbLine
 10
87.33260788964512
 20
29.99285409428579
 30
0.0
 11
83.52212853466804
 21
30.448543405942047
 31
0.0
  0
LINE
  5
65
330
17
100
AcDbEntity
  8
FoilLayer
100
AcDbLine
 10
83.52212853466804
 20
30.448543405942047
 30
0.0
 11
79.70786014533391
 21
30.8821698448085
 31
0.0
  0
LINE
  5
66
330
17
100
AcDbEntity
  8
FoilLayer
100
AcDbLine
 10
79.70786014533391
 20
30.8821698448085
 30
0.0
 11
75.89322950576593
 21
31.3059408179944
 31
0.0
  0
LINE
  5
67
330
17
100
AcDbEntity
  8
FoilLayer
100
AcDbLine
 10
75.89322950576593
 20
31.3059408179944
 30
0.0
 11
72.08485317349613
 21
31.726535347464115
 31
0.0
  0
LINE
  5
68
330
17
100
AcDbEntity
  8
FoilLayer
100
AcDbLine
 10
72.08485317349613
 20
31.726535347464115
 30
0.0
 11
68.28329957326375
 21
32.13642381300294
 31
0.0
  0
LINE
  5
69
330
17
100
AcDbEntity
  8
FoilLayer
100
AcDbLine
 10
68.28329957326375
 20
32.13642381300294
 30
0.0
 11
64.48533330241935
 21
32.525685584463574
 31
0.0
  0
LINE
  5
6A
330
17
100
AcDbEntity
  8
FoilLayer
100
AcDbLine
 10
64.48533330241935
 20
32.525685584463574
 30
0.0
 11
60.68825770889987
 21
32.890675100908254
 31
0.0
  0
LINE
  5
6B
330
17
100
AcDbEntity
  8
FoilLayer
100
AcDbLine
 10
60.68825770889987
 20
32.890675100908254
 30
0.0
 11
56.89029720428775
 21
33.234763687417605
 31
0.0
  0
LINE
  5
6C
330
17
100
AcDbEntity
  8
FoilLayer
100
AcDbLine
 10
56.89029720428775
 20
33.234763687417605
 30
0.0
 11
53.09511047166927
 21
33.566840576558874
 31
0.0
  0
LINE
  5
6D
330
17
100
AcDbEntity
  8
FoilLayer
100
AcDbLine
 10
53.09511047166927
 20
33.566840576558874
 30
0.0
 11
49.30432112228536
 21
33.88900611237885
 31
0.0
  0
LINE
  5
6E
330
17
100
AcDbEntity
  8
FoilLayer
100
AcDbLine
 10
49.30432112228536
 20
33.88900611237885
 30
0.0
 11
45.52009484598739
 21
34.2002225226163
 31
0.0
  0
LINE
  5
6F
330
17
100
AcDbEntity
  8
FoilLayer
100
AcDbLine
 10
45.52009484598739
 20
34.2002225226163
 30
0.0
 11
41.74377266411253
 21
34.49497521536637
 31
0.0
  0
LINE
  5
70
330
17
100
AcDbEntity
  8
FoilLayer
100
AcDbLine
 10
41.74377266411253
 20
34.49497521536637
 30
0.0
 11
37.97237941768637
 21
34.765844498569145
 31
0.0
  0
LINE
  5
71
330
17
100
AcDbEntity
  8
FoilLayer
100
AcDbLine
 10
37.97237941768637
 20
34.765844498569145
 30
0.0
 11
34.204157222273636
 21
35.013481125098586
 31
0.0
  0
LINE
  5
72
330
17
100
AcDbEntity
  8
FoilLayer
100
AcDbLine
 10
34.204157222273636
 20
35.013481125098586
 30
0.0
 11
30.44102570811404
 21
35.245108291895804
 31
0.0
  0
LINE
  5
73
330
17
100
AcDbEntity
  8
FoilLayer
100
AcDbLine
 10
30.44102570811404
 20
35.245108291895804
 30
0.0
 11
26.68389091718933
 21
35.463763508069086
 31
0.0
  0
LINE
  5
74
330
17
100
AcDbEntity
  8
FoilLayer
100
AcDbLine
 10
26.68389091718933
 20
35.463763508069086
 30
0.0
 11
22.93574860736959
 21
35.669779231079886
 31
0.0
  0
LINE
  5
75
330
17
100
AcDbEntity
  8
FoilLayer
100
AcDbLine
 10
22.93574860736959
 20
35.669779231079886
 30
0.0
 11
19.19852535389731
 21
35.857904954540814
 31
0.0
  0
LINE
  5
76
330
17
100
AcDbEntity
  8
FoilLayer
100
AcDbLine
 10
19.19852535389731
 20
35.857904954540814
 30
0.0
 11
15.475855245345997
 21
36.02481266426311
 31
0.0
  0
LINE
  5
77
330
17
100
AcDbEntity
  8
FoilLayer
100
AcDbLine
 10
15.475855245345997
 20
36.02481266426311
 30
0.0
 11
11.771407126705327
 21
36.170022482120025
 31
0.0
  0
LINE
  5
78
330
17
100
AcDbEntity
  8
FoilLayer
100
AcDbLine
 10
11.771407126705327
 20
36.170022482120025
 30
0.0
 11
8.085582471435828
 21
36.29375724018414
 31
0.0
  0
LINE
  5
79
330
17
100
AcDbEntity
  8
FoilLayer
100
AcDbLine
 10
8.085582471435828
 20
36.29375724018414
 30
0.0
 11
4.417342651359888
 21
36.397910819804636
 31
0.0
  0
LINE
  5
7A
330
17
100
AcDbEntity
  8
FoilLayer
100
AcDbLine
 10
4.417342651359888
 20
36.397910819804636
 30
0.0
 11
0.7643824413641482
 21
36.48260689187003
 31
0.0
  0
LINE
  5
7B
330
17
100
AcDbEntity
  8
FoilLayer
100
AcDbLine
 10
0.7643824413641482
 20
36.48260689187003
 30
0.0
 11
-2.873073020328377
 21
36.5479410251319
 31
0.0
  0
LINE
  5
7C
330
17
100
AcDbEntity
  8
FoilLayer
100
AcDbLine
 10
-2.873073020328377
 20
36.5479410251319
 30
0.0
 11
-6.498082561574222
 21
36.58844789103124
 31
0.0
  0
LINE
  5
7D
330
17
100
AcDbEntity
  8
FoilLayer
100
AcDbLine
 10
-6.498082561574222
 20
36.58844789103124
 30
0.0
 11
-10.114171357887699
 21
36.60237883648979
 31
0.0
  0
LINE
  5
7E
330
17
100
AcDbEntity
  8
FoilLayer
100
AcDbLine
 10
-10.114171357887699
 20
36.60237883648979
 30
0.0
 11
-13.720739920285695
 21
36.59456976788181
 31
0.0
  0
LINE
  5
7F
330
17
100
AcDbEntity
  8
FoilLayer
100
AcDbLine
 10
-13.720739920285695
 20
36.59456976788181
 30
0.0
 11
-17.316413960991184
 21
36.56751302113497
 31
0.0
  0
LINE
  5
80
330
17
100
AcDbEntity
  8
FoilLayer
100
AcDbLine
 10
-17.316413960991184
 20
36.56751302113497
 30
0.0
 11
-20.8996475020013
 21
36.52090784511928
 31
0.0
  0
LINE
  5
81
330
17
100
AcDbEntity
  8
FoilLayer
100
AcDbLine
 10
-20.8996475020013
 20
36.52090784511928
 30
0.0
 11
-24.47066263623458
 21
36.45153430866032
 31
0.0
  0
LINE
  5
82
330
17
100
AcDbEntity
  8
FoilLayer
100
AcDbLine
 10
-24.47066263623458
 20
36.45153430866032
 30
0.0
 11
-28.028967693080332
 21
36.35781491727051
 31
0.0
  0
LINE
  5
83
330
17
100
AcDbEntity
  8
FoilLayer
100
AcDbLine
 10
-28.028967693080332
 20
36.35781491727051
 30
0.0
 11
-31.574957349059332
 21
36.23805947472543
 31
0.0
  0
LINE
  5
84
330
17
100
AcDbEntity
  8
FoilLayer
100
AcDbLine
 10
-31.574957349059332
 20
36.23805947472543
 30
0.0
 11
-35.10879796262854
 21
36.092390129472456
 31
0.0
  0
LINE
  5
85
330
17
100
AcDbEntity
  8
FoilLayer
100
AcDbLine
 10
-35.10879796262854
 20
36.092390129472456
 30
0.0
 11
-38.62926866939591
 21
35.923027638719255
 31
0.0
  0
LINE
  5
86
330
17
100
AcDbEntity
  8
FoilLayer
100
AcDbLine
 10
-38.62926866939591
 20
35.923027638719255
 30
0.0
 11
-42.13369262864154
 21
35.73095792578344
 31
0.0
  0
LINE
  5
87
330
17
100
AcDbEntity
  8
FoilLayer
100
AcDbLine
 10
-42.13369262864154
 20
35.73095792578344
 30
0.0
 11
-45.62355027858514
 21
35.511899038053706
 31
0.0
  0
LINE
  5
88
330
17
100
AcDbEntity
  8
FoilLayer
100
AcDbLine
 10
-45.62355027858514
 20
35.511899038053706
 30
0.0
 11
-49.099096786140706
 21
35.26817895570746
 31
0.0
  0
LINE
  5
89
330
17
100
AcDbEntity
  8
FoilLayer
100
AcDbLine
 10
-49.099096786140706
 20
35.26817895570746
 30
0.0
 11
-52.552257420842494
 21
35.004718696016596
 31
0.0
  0
LINE
  5
8A
330
17
100
AcDbEntity
  8
FoilLayer
100
AcDbLine
 10
-52.552257420842494
 20
35.004718696016596
 30
0.0
 11
-55.99182457994968
 21
34.708954266208515
 31
0.0
  0
LINE
  5
8B
330
17
100
AcDbEntity
  8
FoilLayer
100
AcDbLine
 10
-55.99182457994968
 20
34.708954266208515
 30
0.0
 11
-59.40606245162988
 21
34.396089594930224
 31
0.0
  0
LINE
  5
8C
330
17
100
AcDbEntity
  8
FoilLayer
100
AcDbLine
 10
-59.40606245162988
 20
34.396089594930224
 30
0.0
 11
-62.79619060731534
 21
34.05163595406047
 31
0.0
  0
LINE
  5
8D
330
17
100
AcDbEntity
  8
FoilLayer
100
AcDbLine
 10
-62.79619060731534
 20
34.05163595406047
 30
0.0
 11
-66.16905710155822
 21
33.671304166784054
 31
0.0
  0
LINE
  5
8E
330
17
100
AcDbEntity
  8
FoilLayer
100
AcDbLine
 10
-66.16905710155822
 20
33.671304166784054
 30
0.0
 11
-69.51665078695238
 21
33.272690222412635
 31
0.0
  0
LINE
  5
8F
330
17
100
AcDbEntity
  8
FoilLayer
100
AcDbLine
 10
-69.51665078695238
 20
33.272690222412635
 30
0.0
 11
-72.83319183053895
 21
32.85512904067539
 31
0.0
  0
LINE
  5
90
330
17
100
AcDbEntity
  8
FoilLayer
100
AcDbLine
 10
-72.83319183053895
 20
32.85512904067539
 30
0.0
 11
-76.11538576794338
 21
32.40999702972036
 31
0.0
  0
LINE
  5
91
330
17
100
AcDbEntity
  8
FoilLayer
100
AcDbLine
 10
-76.11538576794338
 20
32.40999702972036
 30
0.0
 11
-79.36144479603077
 21
31.92992386670576
 31
0.0
  0
LINE
  5
92
330
17
100
AcDbEntity
  8
FoilLayer
100
AcDbLine
 10
-79.36144479603077
 20
31.92992386670576
 30
0.0
 11
-82.57368275399402
 21
31.41186453393465
 31
0.0
  0
LINE
  5
93
330
17
100
AcDbEntity
  8
FoilLayer
100
AcDbLine
 10
-82.57368275399402
 20
31.41186453393465
 30
0.0
 11
-85.75199027968077
 21
30.866756911349732
 31
0.0
  0
LINE
  5
94
330
17
100
AcDbEntity
  8
FoilLayer
100
AcDbLine
 10
-85.75199027968077
 20
30.866756911349732
 30
0.0
 11
-88.88647221372246
 21
30.311671922385585
 31
0.0
  0
LINE
  5
95
330
17
100
AcDbEntity
  8
FoilLayer
100
AcDbLine
 10
-88.88647221372246
 20
30.311671922385585
 30
0.0
 11
-91.96185030039868
 21
29.746678970948246
 31
0.0
  0
LINE
  5
96
330
17
100
AcDbEntity
  8
FoilLayer
100
AcDbLine
 10
-91.96185030039868
 20
29.746678970948246
 30
0.0
 11
-94.97806361179627
 21
29.148263790601042
 31
0.0
  0
LINE
  5
97
330
17
100
AcDbEntity
  8
FoilLayer
100
AcDbLine
 10
-94.97806361179627
 20
29.148263790601042
 30
0.0
 11
-97.92936632986313
 21
28.514666779047598
 31
0.0
  0
LINE
  5
98
330
17
100
AcDbEntity
  8
FoilLayer
100
AcDbLine
 10
-97.92936632986313
 20
28.514666779047598
 30
0.0
 11
-100.81550682200228
 21
27.845617581937784
 31
0.0
  0
LINE
  5
99
330
17
100
AcDbEntity
  8
FoilLayer
100
AcDbLine
 10
-100.81550682200228
 20
27.845617581937784
 30
0.0
 11
-103.63128384880542
 21
27.154748602355465
 31
0.0
  0
LINE
  5
9A
330
17
100
AcDbEntity
  8
FoilLayer
100
AcDbLine
 10
-103.63128384880542
 20
27.154748602355465
 30
0.0
 11
-106.37089247167313
 21
26.455052071295835
 31
0.0
  0
LINE
  5
9B
330
17
100
AcDbEntity
  8
FoilLayer
100
AcDbLine
 10
-106.37089247167313
 20
26.455052071295835
 30
0.0
 11
-109.0251603427882
 21
25.75710873341267
 31
0.0
  0
LINE
  5
9C
330
17
100
AcDbEntity
  8
FoilLayer
100
AcDbLine
 10
-109.0251603427882
 20
25.75710873341267
 30
0.0
 11
-111.57793266048412
 21
25.06375328675026
 31
0.0
  0
LINE
  5
9D
330
17
100
AcDbEntity
  8
FoilLayer
100
AcDbLine
 10
-111.57793266048412
 20
25.06375328675026
 30
0.0
 11
-114.02803569353972
 21
24.356341484732834
 31
0.0
  0
LINE
  5
9E
330
17
100
AcDbEntity
  8
FoilLayer
100
AcDbLine
 10
-114.02803569353972
 20
24.356341484732834
 30
0.0
 11
-116.37069248617996
 21
23.63608712146438
 31
0.0
  0
LINE
  5
9F
330
17
100
AcDbEntity
  8
FoilLayer
100
AcDbLine
 10
-116.37069248617996
 20
23.63608712146438
 30
0.0
 11
-118.60604845817818
 21
22.90440274522776
 31
0.0
  0
LINE
  5
A0
330
17
100
AcDbEntity
  8
FoilLayer
100
AcDbLine
 10
-118.60604845817818
 20
22.90440274522776
 30
0.0
 11
-120.73378186736073
 21
22.169918304354013
 31
0.0
  0
LINE
  5
A1
330
17
100
AcDbEntity
  8
FoilLayer
100
AcDbLine
 10
-120.73378186736073
 20
22.169918304354013
 30
0.0
 11
-122.7539689457746
 21
21.440899186621216
 31
0.0
  0
LINE
  5
A2
330
17
100
AcDbEntity
  8
FoilLayer
100
AcDbLine
 10
-122.7539689457746
 20
21.440899186621216
 30
0.0
 11
-124.66780255843503
 21
20.723182833824538
 31
0.0
  0
LINE
  5
A3
330
17
100
AcDbEntity
  8
FoilLayer
100
AcDbLine
 10
-124.66780255843503
 20
20.723182833824538
 30
0.0
 11
-126.47541557066995
 21
20.021831241466
 31
0.0
  0
LINE
  5
A4
330
17
100
AcDbEntity
  8
FoilLayer
100
AcDbLine
 10
-126.47541557066995
 20
20.021831241466
 30
0.0
 11
-128.18057433911352
 21
19.33716718853294
 31
0.0
  0
LINE
  5
A5
330
17
100
AcDbEntity
  8
FoilLayer
100
AcDbLine
 10
-128.18057433911352
 20
19.33716718853294
 30
0.0
 11
-129.78328494560654
 21
18.67241133572721
 31
0.0
  0
LINE
  5
A6
330
17
100
AcDbEntity
  8
FoilLayer
100
AcDbLine
 10
-129.78328494560654
 20
18.67241133572721
 30
0.0
 11
-131.2833290639981
 21
18.02503733855637
 31
0.0
  0
LINE
  5
A7
330
17
100
AcDbEntity
  8
FoilLayer
100
AcDbLine
 10
-131.2833290639981
 20
18.02503733855637
 30
0.0
 11
-132.68834871878246
 21
17.3862611808267
 31
0.0
  0
LINE
  5
A8
330
17
100
AcDbEntity
  8
FoilLayer
100
AcDbLine
 10
-132.68834871878246
 20
17.3862611808267
 30
0.0
 11
-134.00862297669445
 21
16.75296479412929
 31
0.0
  0
LINE
  5
A9
330
17
100
AcDbEntity
  8
FoilLayer
100
AcDbLine
 10
-134.00862297669445
 20
16.75296479412929
 30
0.0
 11
-135.248606331074
 21
16.130705074294415
 31
0.0
  0
LINE
  5
AA
330
17
100
AcDbEntity
  8
FoilLayer
100
AcDbLine
 10
-135.248606331074
 20
16.130705074294415
 30
0.0
 11
-136.41221509059247
 21
15.521907659328045
 31
0.0
  0
LINE
  5
AB
330
17
100
AcDbEntity
  8
FoilLayer
100
AcDbLine
 10
-136.41221509059247
 20
15.521907659328045
 30
0.0
 11
-137.50530246837212
 21
14.925401909507363
 31
0.0
  0
LINE
  5
AC
330
17
100
AcDbEntity
  8
FoilLayer
100
AcDbLine
 10
-137.50530246837212
 20
14.925401909507363
 30
0.0
 11
-138.53387907921726
 21
14.340790894283993
 31
0.0
  0
LINE
  5
AD
330
17
100
AcDbEntity
  8
FoilLayer
100
AcDbLine
 10
-138.53387907921726
 20
14.340790894283993
 30
0.0
 11
-139.50345123379913
 21
13.768598621570929
 31
0.0
  0
LINE
  5
AE
330
17
100
AcDbEntity
  8
FoilLayer
100
AcDbLine
 10
-139.50345123379913
 20
13.768598621570929
 30
0.0
 11
-140.4188036091607
 21
13.209630652435711
 31
0.0
  0
LINE
  5
AF
330
17
100
AcDbEntity
  8
FoilLayer
100
AcDbLine
 10
-140.4188036091607
 20
13.209630652435711
 30
0.0
 11
-141.28131733758852
 21
12.666303978125717
 31
0.0
  0
LINE
  5
B0
330
17
100
AcDbEntity
  8
FoilLayer
100
AcDbLine
 10
-141.28131733758852
 20
12.666303978125717
 30
0.0
 11
-142.09607737493386
 21
12.135321281280262
 31
0.0
  0
LINE
  5
B1
330
17
100
AcDbEntity
  8
FoilLayer
100
AcDbLine
 10
-142.09607737493386
 20
12.135321281280262
 30
0.0
 11
-142.85782773547703
 21
11.622338593939553
 31
0.0
  0
LINE
  5
B2
330
17
100
AcDbEntity
  8
FoilLayer
100
AcDbLine
 10
-142.85782773547703
 20
11.622338593939553
 30
0.0
 11
-143.5786120687996
 21
11.114591605433857
 31
0.0
  0
LINE
  5
B3
330
17
100
AcDbEntity
  8
FoilLayer
100
AcDbLine
 10
-143.5786120687996
 20
11.114591605433857
 30
0.0
 11
-144.25537042135466
 21
10.618203223287576
 31
0.0
  0
LINE
  5
B4
330
17
100
AcDbEntity
  8
FoilLayer
100
AcDbLine
 10
-144.25537042135466
 20
10.618203223287576
 30
0.0
 11
-144.89960047163837
 21
10.122942426009335
 31
0.0
  0
LINE
  5
B5
330
17
100
AcDbEntity
  8
FoilLayer
100
AcDbLine
 10
-144.89960047163837
 20
10.122942426009335
 30
0.0
 11
-145.50180761170313
 21
9.642715186811047
 31
0.0
  0
LINE
  5
B6
330
17
100
AcDbEntity
  8
FoilLayer
100
AcDbLine
 10
-145.50180761170313
 20
9.642715186811047
 30
0.0
 11
-146.07292741596348
 21
9.16497447228548
 31
0.0
  0
LINE
  5
B7
330
17
100
AcDbEntity
  8
FoilLayer
100
AcDbLine
 10
-146.07292741596348
 20
9.16497447228548
 30
0.0
 11
-146.59928460077242
 21
8.70672786258501
 31
0.0
  0
LINE
  5
B8
330
17
100
AcDbEntity
  8
FoilLayer
100
AcDbLine
 10
-146.59928460077242
 20
8.70672786258501
 30
0.0
 11
-147.10778119091376
 21
8.23485350191743
 31
0.0
  0
LINE
  5
B9
330
17
100
AcDbEntity
  8
FoilLayer
100
AcDbLine
 10
-147.10778119091376
 20
8.23485350191743
 30
0.0
 11
-147.58032219731874
 21
7.778641716336932
 31
0.0
  0
LINE
  5
BA
330
17
100
AcDbEntity
  8
FoilLayer
100
AcDbLine
 10
-147.58032219731874
 20
7.778641716336932
 30
0.0
 11
-148.02329174075513
 21
7.327302406772918
 31
0.0
  0
LINE
  5
BB
330
17
100
AcDbEntity
  8
FoilLayer
100
AcDbLine
 10
-148.02329174075513
 20
7.327302406772918
 30
0.0
 11
-148.4395114742463
 21
6.878345238127572
 31
0.0
  0
LINE
  5
BC
330
17
100
AcDbEntity
  8
FoilLayer
100
AcDbLine
 10
-148.4395114742463
 20
6.878345238127572
 30
0.0
 11
-148.829280690198
 21
6.433781861263484
 31
0.0
  0
LINE
  5
BD
330
17
100
AcDbEntity
  8
FoilLayer
100
AcDbLine
 10
-148.829280690198
 20
6.433781861263484
 30
0.0
 11
-149.19132468209244
 21
5.996581082643018
 31
0.0
  0
LINE
  5
BE
330
17
100
AcDbEntity
  8
FoilLayer
100
AcDbLine
 10
-149.19132468209244
 20
5.996581082643018
 30
0.0
 11
-149.52921306234293
 21
5.56084903526469
 31
0.0
  0
LINE
  5
BF
330
17
100
AcDbEntity
  8
FoilLayer
100
AcDbLine
 10
-149.52921306234293
 20
5.56084903526469
 30
0.0
 11
-149.8417728478597
 21
5.130697829874469
 31
0.0
  0
LINE
  5
C0
330
17
100
AcDbEntity
  8
FoilLayer
100
AcDbLine
 10
-149.8417728478597
 20
5.130697829874469
 30
0.0
 11
-150.1308913243312
 21
4.704969669014193
 31
0.0
  0
LINE
  5
C1
330
17
100
AcDbEntity
  8
FoilLayer
100
AcDbLine
 10
-150.1308913243312
 20
4.704969669014193
 30
0.0
 11
-150.39925010534236
 21
4.280942414979006
 31
0.0
  0
LINE
  5
C2
330
17
100
AcDbEntity
  8
FoilLayer
100
AcDbLine
 10
-150.39925010534236
 20
4.280942414979006
 30
0.0
 11
-150.6482395987944
 21
3.8583228906857063
 31
0.0
  0
LINE
  5
C3
330
17
100
AcDbEntity
  8
FoilLayer
100
AcDbLine
 10
-150.6482395987944
 20
3.8583228906857063
 30
0.0
 11
-150.87871906643696
 21
3.437244585180621
 31
0.0
  0
LINE
  5
C4
330
17
100
AcDbEntity
  8
FoilLayer
100
AcDbLine
 10
-150.87871906643696
 20
3.437244585180621
 30
0.0
 11
-151.08310456840383
 21
3.035808159722601
 31
0.0
  0
LINE
  5
C5
330
17
100
AcDbEntity
  8
FoilLayer
100
AcDbLine
 10
-151.08310456840383
 20
3.035808159722601
 30
0.0
 11
-151.25573987237956
 21
2.6607625178862824
 31
0.0
  0
LINE
  5
C6
330
17
100
AcDbEntity
  8
FoilLayer
100
AcDbLine
 10
-151.25573987237956
 20
2.6607625178862824
 30
0.0
 11
-151.39380094057566
 21
2.307649337967687
 31
0.0
  0
LINE
  5
C7
330
17
100
AcDbEntity
  8
FoilLayer
100
AcDbLine
 10
-151.39380094057566
 20
2.307649337967687
 30
0.0
 11
-151.50460188499764
 21
1.9389306546296017
 31
0.0
  0
LINE
  5
C8
330
17
100
AcDbEntity
  8
FoilLayer
100
AcDbLine
 10
-151.50460188499764
 20
1.9389306546296017
 30
0.0
 11
-151.59288645086394
 21
1.544096836863291
 31
0.0
  0
LINE
  5
C9
330
17
100
AcDbEntity
  8
FoilLayer
100
AcDbLine
 10
-151.59288645086394
 20
1.544096836863291
 30
0.0
 11
-151.66366619470193
 21
1.135787437082729
 31
0.0
  0
LINE
  5
CA
330
17
100
AcDbEntity
  8
FoilLayer
100
AcDbLine
 10
-151.66366619470193
 20
1.135787437082729
 30
0.0
 11
-151.72335753905887
 21
0.7087531988163891
 31
0.0
  0
LINE
  5
CB
330
17
100
AcDbEntity
  8
FoilLayer
100
AcDbLine
 10
-151.72335753905887
 20
0.7087531988163891
 30
0.0
 11
-151.7641832647682
 21
0.38798516701153274
 31
0.0
  0
LINE
  5
CC
330
17
100
AcDbEntity
  8
FoilLayer
100
AcDbLine
 10
-151.7641832647682
 20
0.38798516701153274
 30
0.0
 11
-151.7812499999994
 21
0.0
 31
0.0
  0
LINE
  5
CD
330
17
100
AcDbEntity
  8
FoilLayer
100
AcDbLine
 10
-151.7812499999994
 20
0.0
 30
0.0
 11
-151.7453616536357
 21
-0.28142727498102865
 31
0.0
  0
LINE
  5
CE
330
17
100
AcDbEntity
  8
FoilLayer
100
AcDbLine
 10
-151.7453616536357
 20
-0.28142727498102865
 30
0.0
 11
-151.70401281712694
 21
-0.6826695180121578
 31
0.0
  0
LINE
  5
CF
330
17
100
AcDbEntity
  8
FoilLayer
100
AcDbLine
 10
-151.70401281712694
 20
-0.6826695180121578
 30
0.0
 11
-151.65674324025147
 21
-1.0602352932699883
 31
0.0
  0
LINE
  5
D0
330
17
100
AcDbEntity
  8
FoilLayer
100
AcDbLine
 10
-151.65674324025147
 20
-1.0602352932699883
 30
0.0
 11
-151.59436409205452
 21
-1.4189902264440666
 31
0.0
  0
LINE
  5
D1
330
17
100
AcDbEntity
  8
FoilLayer
100
AcDbLine
 10
-151.59436409205452
 20
-1.4189902264440666
 30
0.0
 11
-151.51142758829414
 21
-1.7663701155596336
 31
0.0
  0
LINE
  5
D2
330
17
100
AcDbEntity
  8
FoilLayer
100
AcDbLine
 10
-151.51142758829414
 20
-1.7663701155596336
 30
0.0
 11
-151.40255282107816
 21
-2.106658252181136
 31
0.0
  0
LINE
  5
D3
330
17
100
AcDbEntity
  8
FoilLayer
100
AcDbLine
 10
-151.40255282107816
 20
-2.106658252181136
 30
0.0
 11
-151.25650193182238
 21
-2.4556925157966836
 31
0.0
  0
LINE
  5
D4
330
17
100
AcDbEntity
  8
FoilLayer
100
AcDbLine
 10
-151.25650193182238
 20
-2.4556925157966836
 30
0.0
 11
-151.0857125766556
 21
-2.792864063341778
 31
0.0
  0
LINE
  5
D5
330
17
100
AcDbEntity
  8
FoilLayer
100
AcDbLine
 10
-151.0857125766556
 20
-2.792864063341778
 30
0.0
 11
-150.86459966392468
 21
-3.145058877480468
 31
0.0
  0
LINE
  5
D6
330
17
100
AcDbEntity
  8
FoilLayer
100
AcDbLine
 10
-150.86459966392468
 20
-3.145058877480468
 30
0.0
 11
-150.61116062681597
 21
-3.5004909327488676
 31
0.0
  0
LINE
  5
D7
330
17
100
AcDbEntity
  8
FoilLayer
100
AcDbLine
 10
-150.61116062681597
 20
-3.5004909327488676
 30
0.0
 11
-150.32466684765052
 21
-3.8601118724765002
 31
0.0
  0
LINE
  5
D8
330
17
100
AcDbEntity
  8
FoilLayer
100
AcDbLine
 10
-150.32466684765052
 20
-3.8601118724765002
 30
0.0
 11
-150.01517571939794
 21
-4.216705316326726
 31
0.0
  0
LINE
  5
D9
330
17
100
AcDbEntity
  8
FoilLayer
100
AcDbLine
 10
-150.01517571939794
 20
-4.216705316326726
 30
0.0
 11
-149.68795475326587
 21
-4.564556971122722
 31
0.0
  0
LINE
  5
DA
330
17
100
AcDbEntity
  8
FoilLayer
100
AcDbLine
 10
-149.68795475326587
 20
-4.564556971122722
 30
0.0
 11
-149.33140227723834
 21
-4.909455119993852
 31
0.0
  0
LINE
  5
DB
330
17
100
AcDbEntity
  8
FoilLayer
100
AcDbLine
 10
-149.33140227723834
 20
-4.909455119993852
 30
0.0
 11
-148.94539290529198
 21
-5.251294744198573
 31
0.0
  0
LINE
  5
DC
330
17
100
AcDbEntity
  8
FoilLayer
100
AcDbLine
 10
-148.94539290529198
 20
-5.251294744198573
 30
0.0
 11
-148.53127184853034
 21
-5.589275299641499
 31
0.0
  0
LINE
  5
DD
330
17
100
AcDbEntity
  8
FoilLayer
100
AcDbLine
 10
-148.53127184853034
 20
-5.589275299641499
 30
0.0
 11
-148.0962992241814
 21
-5.91844015141078
 31
0.0
  0
LINE
  5
DE
330
17
100
AcDbEntity
  8
FoilLayer
100
AcDbLine
 10
-148.0962992241814
 20
-5.91844015141078
 30
0.0
 11
-147.62552557197856
 21
-6.2443918416484046
 31
0.0
  0
LINE
  5
DF
330
17
100
AcDbEntity
  8
FoilLayer
100
AcDbLine
 10
-147.62552557197856
 20
-6.2443918416484046
 30
0.0
 11
-147.12299146090774
 21
-6.567340455249724
 31
0.0
  0
LINE
  5
E0
330
17
100
AcDbEntity
  8
FoilLayer
100
AcDbLine
 10
-147.12299146090774
 20
-6.567340455249724
 30
0.0
 11
-146.5907059438432
 21
-6.887000998144346
 31
0.0
  0
LINE
  5
E1
330
17
100
AcDbEntity
  8
FoilLayer
100
AcDbLine
 10
-146.5907059438432
 20
-6.887000998144346
 30
0.0
 11
-146.0278984141287
 21
-7.203863569551141
 31
0.0
  0
LINE
  5
E2
330
17
100
AcDbEntity
  8
FoilLayer
100
AcDbLine
 10
-146.0278984141287
 20
-7.203863569551141
 30
0.0
 11
-145.4316611631885
 21
-7.519418139037535
 31
0.0
  0
LINE
  5
E3
330
17
100
AcDbEntity
  8
FoilLayer
100
AcDbLine
 10
-145.4316611631885
 20
-7.519418139037535
 30
0.0
 11
-144.80251537694903
 21
-7.834363956716524
 31
0.0
  0
LINE
  5
E4
330
17
100
AcDbEntity
  8
FoilLayer
100
AcDbLine
 10
-144.80251537694903
 20
-7.834363956716524
 30
0.0
 11
-144.14252721652701
 21
-8.14798179541051
 31
0.0
  0
LINE
  5
E5
330
17
100
AcDbEntity
  8
FoilLayer
100
AcDbLine
 10
-144.14252721652701
 20
-8.14798179541051
 30
0.0
 11
-143.45065888403315
 21
-8.459069918077551
 31
0.0
  0
LINE
  5
E6
330
17
100
AcDbEntity
  8
FoilLayer
100
AcDbLine
 10
-143.45065888403315
 20
-8.459069918077551
 30
0.0
 11
-142.7211831071579
 21
-8.76756482865672
 31
0.0
  0
LINE
  5
E7
330
17
100
AcDbEntity
  8
FoilLayer
100
AcDbLine
 10
-142.7211831071579
 20
-8.76756482865672
 30
0.0
 11
-141.95116333208534
 21
-9.073763652799595
 31
0.0
  0
LINE
  5
E8
330
17
100
AcDbEntity
  8
FoilLayer
100
AcDbLine
 10
-141.95116333208534
 20
-9.073763652799595
 30
0.0
 11
-141.13607137920596
 21
-9.378706352103961
 31
0.0
  0
LINE
  5
E9
330
17
100
AcDbEntity
  8
FoilLayer
100
AcDbLine
 10
-141.13607137920596
 20
-9.378706352103961
 30
0.0
 11
-140.2746336268483
 21
-9.683526318912437
 31
0.0
  0
LINE
  5
EA
330
17
100
AcDbEntity
  8
FoilLayer
100
AcDbLine
 10
-140.2746336268483
 20
-9.683526318912437
 30
0.0
 11
-139.36550226369752
 21
-9.988884136491464
 31
0.0
  0
LINE
  5
EB
330
17
100
AcDbEntity
  8
FoilLayer
100
AcDbLine
 10
-139.36550226369752
 20
-9.988884136491464
 30
0.0
 11
-138.40559244003092
 21
-10.295025333393719
 31
0.0
  0
LINE
  5
EC
330
17
100
AcDbEntity
  8
FoilLayer
100
AcDbLine
 10
-138.40559244003092
 20
-10.295025333393719
 30
0.0
 11
-137.39173297381583
 21
-10.601679932426714
 31
0.0
  0
LINE
  5
ED
330
17
100
AcDbEntity
  8
FoilLayer
100
AcDbLine
 10
-137.39173297381583
 20
-10.601679932426714
 30
0.0
 11
-136.32020748333906
 21
-10.907918768894698
 31
0.0
  0
LINE
  5
EE
330
17
100
AcDbEntity
  8
FoilLayer
100
AcDbLine
 10
-136.32020748333906
 20
-10.907918768894698
 30
0.0
 11
-135.18615102212647
 21
-11.212339669809147
 31
0.0
  0
LINE
  5
EF
330
17
100
AcDbEntity
  8
FoilLayer
100
AcDbLine
 10
-135.18615102212647
 20
-11.212339669809147
 30
0.0
 11
-133.9835442071493
 21
-11.513346964502642
 31
0.0
  0
LINE
  5
F0
330
17
100
AcDbEntity
  8
FoilLayer
100
AcDbLine
 10
-133.9835442071493
 20
-11.513346964502642
 30
0.0
 11
-132.70388213297323
 21
-11.809955121171397
 31
0.0
  0
LINE
  5
F1
330
17
100
AcDbEntity
  8
FoilLayer
100
AcDbLine
 10
-132.70388213297323
 20
-11.809955121171397
 30
0.0
 11
-131.33428995100238
 21
-12.104320270635995
 31
0.0
  0
LINE
  5
F2
330
17
100
AcDbEntity
  8
FoilLayer
100
AcDbLine
 10
-131.33428995100238
 20
-12.104320270635995
 30
0.0
 11
-129.87628852062036
 21
-12.403224889703534
 31
0.0
  0
LINE
  5
F3
330
17
100
AcDbEntity
  8
FoilLayer
100
AcDbLine
 10
-129.87628852062036
 20
-12.403224889703534
 30
0.0
 11
-128.33601340172137
 21
-12.707260099885447
 31
0.0
  0
LINE
  5
F4
330
17
100
AcDbEntity
  8
FoilLayer
100
AcDbLine
 10
-128.33601340172137
 20
-12.707260099885447
 30
0.0
 11
-126.6968034059397
 21
-13.008068792910004
 31
0.0
  0
LINE
  5
F5
330
17
100
AcDbEntity
  8
FoilLayer
100
AcDbLine
 10
-126.6968034059397
 20
-13.008068792910004
 30
0.0
 11
-124.94937037119024
 21
-13.304444054456132
 31
0.0
  0
LINE
  5
F6
330
17
100
AcDbEntity
  8
FoilLayer
100
AcDbLine
 10
-124.94937037119024
 20
-13.304444054456132
 30
0.0
 11
-123.09290351297807
 21
-13.597031112724451
 31
0.0
  0
LINE
  5
F7
330
17
100
AcDbEntity
  8
FoilLayer
100
AcDbLine
 10
-123.09290351297807
 20
-13.597031112724451
 30
0.0
 11
-121.12082477202432
 21
-13.881321510952432
 31
0.0
  0
LINE
  5
F8
330
17
100
AcDbEntity
  8
FoilLayer
100
AcDbLine
 10
-121.12082477202432
 20
-13.881321510952432
 30
0.0
 11
-119.02659476228953
 21
-14.15322491230156
 31
0.0
  0
LINE
  5
F9
330
17
100
AcDbEntity
  8
FoilLayer
100
AcDbLine
 10
-119.02659476228953
 20
-14.15322491230156
 30
0.0
 11
-116.80360010504684
 21
-14.41102472305571
 31
0.0
  0
LINE
  5
FA
330
17
100
AcDbEntity
  8
FoilLayer
100
AcDbLine
 10
-116.80360010504684
 20
-14.41102472305571
 30
0.0
 11
-114.44143416518187
 21
-14.659355205048438
 31
0.0
  0
LINE
  5
FB
330
17
100
AcDbEntity
  8
FoilLayer
100
AcDbLine
 10
-114.44143416518187
 20
-14.659355205048438
 30
0.0
 11
-111.96033835193083
 21
-14.91645670321023
 31
0.0
  0
LINE
  5
FC
330
17
100
AcDbEntity
  8
FoilLayer
100
AcDbLine
 10
-111.96033835193083
 20
-14.91645670321023
 30
0.0
 11
-109.3659007995785
 21
-15.173240773441167
 31
0.0
  0
LINE
  5
FD
330
17
100
AcDbEntity
  8
FoilLayer
100
AcDbLine
 10
-109.3659007995785
 20
-15.173240773441167
 30
0.0
 11
-106.6544093556578
 21
-15.412955372008371
 31
0.0
  0
LINE
  5
FE
330
17
100
AcDbEntity
  8
FoilLayer
100
AcDbLine
 10
-106.6544093556578
 20
-15.412955372008371
 30
0.0
 11
-103.82650348366357
 21
-15.628416181197029
 31
0.0
  0
LINE
  5
FF
330
17
100
AcDbEntity
  8
FoilLayer
100
AcDbLine
 10
-103.82650348366357
 20
-15.628416181197029
 30
0.0
 11
-100.8894921196833
 21
-15.820447074560501
 31
0.0
  0
LINE
  5
100
330
17
100
AcDbEntity
  8
FoilLayer
100
AcDbLine
 10
-100.8894921196833
 20
-15.820447074560501
 30
0.0
 11
-97.85268827663958
 21
-15.990110241633984
 31
0.0
  0
LINE
  5
101
330
17
100
AcDbEntity
  8
FoilLayer
100
AcDbLine
 10
-97.85268827663958
 20
-15.990110241633984
 30
0.0
 11
-94.71152369559704
 21
-16.136598749054457
 31
0.0
  0
LINE
  5
102
330
17
100
AcDbEntity
  8
FoilLayer
100
AcDbLine
 10
-94.71152369559704
 20
-16.136598749054457
 30
0.0
 11
-91.49235365770208
 21
-16.28632349153861
 31
0.0
  0
LINE
  5
103
330
17
100
AcDbEntity
  8
FoilLayer
100
AcDbLine
 10
-91.49235365770208
 20
-16.28632349153861
 30
0.0
 11
-88.20870517540178
 21
-16.431087138747177
 31
0.0
  0
LINE
  5
104
330
17
100
AcDbEntity
  8
FoilLayer
100
AcDbLine
 10
-88.20870517540178
 20
-16.431087138747177
 30
0.0
 11
-84.86007874170988
 21
-16.550208182118748
 31
0.0
  0
LINE
  5
105
330
17
100
AcDbEntity
  8
FoilLayer
100
AcDbLine
 10
-84.86007874170988
 20
-16.550208182118748
 30
0.0
 11
-81.44997152328526
 21
-16.639006595543357
 31
0.0
  0
LINE
  5
106
330
17
100
AcDbEntity
  8
FoilLayer
100
AcDbLine
 10
-81.44997152328526
 20
-16.639006595543357
 30
0.0
 11
-77.98539667410441
 21
-16.70086276737209
 31
0.0
  0
LINE
  5
107
330
17
100
AcDbEntity
  8
FoilLayer
100
AcDbLine
 10
-77.98539667410441
 20
-16.70086276737209
 30
0.0
 11
-74.46775375442542
 21
-16.738752403707885
 31
0.0
  0
LINE
  5
108
330
17
100
AcDbEntity
  8
FoilLayer
100
AcDbLine
 10
-74.46775375442542
 20
-16.738752403707885
 30
0.0
 11
-71.51972471176985
 21
-16.761404323597088
 31
0.0
  0
LINE
  5
109
330
17
100
AcDbEntity
  8
FoilLayer
100
AcDbLine
 10
-71.51972471176985
 20
-16.761404323597088
 30
0.0
 11
-71.52779241353076
 21
-17.811373328943574
 31
0.0
  0
LINE
  5
10A
330
17
100
AcDbEntity
  8
FoilLayer
100
AcDbLine
 10
-71.52779241353076
 20
-17.811373328943574
 30
0.0
 11
-70.9112809850203
 21
-17.81611057127968
 31
0.0
  0
LINE
  5
10B
330
17
100
AcDbEntity
  8
FoilLayer
100
AcDbLine
 10
-70.9112809850203
 20
-17.81611057127968
 30
0.0
 11
-67.31178551511759
 21
-17.846427100951416
 31
0.0
  0
LINE
  5
10C
330
17
100
AcDbEntity
  8
FoilLayer
100
AcDbLine
 10
-67.31178551511759
 20
-17.846427100951416
 30
0.0
 11
-63.679058267903685
 21
-17.85962830331217
 31
0.0
  0
LINE
  5
10D
330
17
100
AcDbEntity
  8
FoilLayer
100
AcDbLine
 10
-63.679058267903685
 20
-17.85962830331217
 30
0.0
 11
-60.01575716444725
 21
-17.850406325578902
 31
0.0
  0
LINE
  5
10E
330
17
100
AcDbEntity
  8
FoilLayer
100
AcDbLine
 10
-60.01575716444725
 20
-17.850406325578902
 30
0.0
 11
-56.32371852389231
 21
-17.818051203329368
 31
0.0
  0
LINE
  5
10F
330
17
100
AcDbEntity
  8
FoilLayer
100
AcDbLine
 10
-56.32371852389231
 20
-17.818051203329368
 30
0.0
 11
-52.605277491744076
 21
-17.77137783640229
 31
0.0
  0
LINE
  5
110
330
17
100
AcDbEntity
  8
FoilLayer
100
AcDbLine
 10
-52.605277491744076
 20
-17.77137783640229
 30
0.0
 11
-48.86336734790028
 21
-17.720409440862163
 31
0.0
  0
LINE
  5
111
330
17
100
AcDbEntity
  8
FoilLayer
100
AcDbLine
 10
-48.86336734790028
 20
-17.720409440862163
 30
0.0
 11
-45.1005803267375
 21
-17.667241504728413
 31
0.0
  0
LINE
  5
112
330
17
100
AcDbEntity
  8
FoilLayer
100
AcDbLine
 10
-45.1005803267375
 20
-17.667241504728413
 30
0.0
 11
-41.31915586107017
 21
-17.607677077324638
 31
0.0
  0
LINE
  5
113
330
17
100
AcDbEntity
  8
FoilLayer
100
AcDbLine
 10
-41.31915586107017
 20
-17.607677077324638
 30
0.0
 11
-37.51978311246627
 21
-17.53267273756406
 31
0.0
  0
LINE
  5
114
330
17
100
AcDbEntity
  8
FoilLayer
100
AcDbLine
 10
-37.51978311246627
 20
-17.53267273756406
 30
0.0
 11
-33.70310320160006
 21
-17.440740349762436
 31
0.0
  0
LINE
  5
115
330
17
100
AcDbEntity
  8
FoilLayer
100
AcDbLine
 10
-33.70310320160006
 20
-17.440740349762436
 30
0.0
 11
-29.870705115057604
 21
-17.336097224360962
 31
0.0
  0
LINE
  5
116
330
17
100
AcDbEntity
  8
FoilLayer
100
AcDbLine
 10
-29.870705115057604
 20
-17.336097224360962
 30
0.0
 11
-26.023035705009278
 21
-17.219540005457233
 31
0.0
  0
LINE
  5
117
330
17
100
AcDbEntity
  8
FoilLayer
100
AcDbLine
 10
-26.023035705009278
 20
-17.219540005457233
 30
0.0
 11
-22.161587623241957
 21
-17.09721073557145
 31
0.0
  0
LINE
  5
118
330
17
100
AcDbEntity
  8
FoilLayer
100
AcDbLine
 10
-22.161587623241957
 20
-17.09721073557145
 30
0.0
 11
-18.28783270563818
 21
-16.971618395718366
 31
0.0
  0
LINE
  5
119
330
17
100
AcDbEntity
  8
FoilLayer
100
AcDbLine
 10
-18.28783270563818
 20
-16.971618395718366
 30
0.0
 11
-14.403079394430193
 21
-16.841049842325575
 31
0.0
  0
LINE
  5
11A
330
17
100
AcDbEntity
  8
FoilLayer
100
AcDbLine
 10
-14.403079394430193
 20
-16.841049842325575
 30
0.0
 11
-10.50797146503183
 21
-16.70304449498463
 31
0.0
  0
LINE
  5
11B
330
17
100
AcDbEntity
  8
FoilLayer
100
AcDbLine
 10
-10.50797146503183
 20
-16.70304449498463
 30
0.0
 11
-6.603428745337851
 21
-16.55735646172585
 31
0.0
  0
LINE
  5
11C
330
17
100
AcDbEntity
  8
FoilLayer
100
AcDbLine
 10
-6.603428745337851
 20
-16.55735646172585
 30
0.0
 11
-2.6908308192555523
 21
-16.40393780039083
 31
0.0
  0
LINE
  5
11D
330
17
100
AcDbEntity
  8
FoilLayer
100
AcDbLine
 10
-2.6908308192555523
 20
-16.40393780039083
 30
0.0
 11
1.2272979381276343
 21
-16.244311795746604
 31
0.0
  0
LINE
  5
11E
330
17
100
AcDbEntity
  8
FoilLayer
100
AcDbLine
 10
1.2272979381276343
 20
-16.244311795746604
 30
0.0
 11
5.148094708090582
 21
-16.077620719649833
 31
0.0
  0
LINE
  5
11F
330
17
100
AcDbEntity
  8
FoilLayer
100
AcDbLine
 10
5.148094708090582
 20
-16.077620719649833
 30
0.0
 11
9.06825666750629
 21
-15.903024680355356
 31
0.0
  0
LINE
  5
120
330
17
100
AcDbEntity
  8
FoilLayer
100
AcDbLine
 10
9.06825666750629
 20
-15.903024680355356
 30
0.0
 11
12.984013751904286
 21
-15.72407892483849
 31
0.0
  0
LINE
  5
121
330
17
100
AcDbEntity
  8
FoilLayer
100
AcDbLine
 10
12.984013751904286
 20
-15.72407892483849
 30
0.0
 11
16.892967996688668
 21
-15.544195791956481
 31
0.0
  0
LINE
  5
122
330
17
100
AcDbEntity
  8
FoilLayer
100
AcDbLine
 10
16.892967996688668
 20
-15.544195791956481
 30
0.0
 11
20.796162434359104
 21
-15.362823469112486
 31
0.0
  0
LINE
  5
123
330
17
100
AcDbEntity
  8
FoilLayer
100
AcDbLine
 10
20.796162434359104
 20
-15.362823469112486
 30
0.0
 11
24.698173293345718
 21
-15.175517184335568
 31
0.0
  0
LINE
  5
124
330
17
100
AcDbEntity
  8
FoilLayer
100
AcDbLine
 10
24.698173293345718
 20
-15.175517184335568
 30
0.0
 11
28.603632514095892
 21
-14.976366887749371
 31
0.0
  0
LINE
  5
125
330
17
100
AcDbEntity
  8
FoilLayer
100
AcDbLine
 10
28.603632514095892
 20
-14.976366887749371
 30
0.0
 11
32.5150430852303
 21
-14.764268481024615
 31
0.0
  0
LINE
  5
126
330
17
100
AcDbEntity
  8
FoilLayer
100
AcDbLine
 10
32.5150430852303
 20
-14.764268481024615
 30
0.0
 11
36.43223502123442
 21
-14.5447641427666
 31
0.0
  0
LINE
  5
127
330
17
100
AcDbEntity
  8
FoilLayer
100
AcDbLine
 10
36.43223502123442
 20
-14.5447641427666
 30
0.0
 11
40.35429875881928
 21
-14.325559325499327
 31
0.0
  0
LINE
  5
128
330
17
100
AcDbEntity
  8
FoilLayer
100
AcDbLine
 10
40.35429875881928
 20
-14.325559325499327
 30
0.0
 11
44.28011558357437
 21
-14.111082737972819
 31
0.0
  0
LINE
  5
129
330
17
100
AcDbEntity
  8
FoilLayer
100
AcDbLine
 10
44.28011558357437
 20
-14.111082737972819
 30
0.0
 11
48.2090166899261
 21
-13.89701446854627
 31
0.0
  0
LINE
  5
12A
330
17
100
AcDbEntity
  8
FoilLayer
100
AcDbLine
 10
48.2090166899261
 20
-13.89701446854627
 30
0.0
 11
52.14154945900245
 21
-13.670570030191234
 31
0.0
  0
LINE
  5
12B
330
17
100
AcDbEntity
  8
FoilLayer
100
AcDbLine
 10
52.14154945900245
 20
-13.670570030191234
 30
0.0
 11
56.07891138030428
 21
-13.42511240205208
 31
0.0
  0
LINE
  5
12C
330
17
100
AcDbEntity
  8
FoilLayer
100
AcDbLine
 10
56.07891138030428
 20
-13.42511240205208
 30
0.0
 11
60.0218278522035
 21
-13.168154135221174
 31
0.0
  0
LINE
  5
12D
330
17
100
AcDbEntity
  8
FoilLayer
100
AcDbLine
 10
60.0218278522035
 20
-13.168154135221174
 30
0.0
 11
63.97018198640268
 21
-12.912986218786264
 31
0.0
  0
LINE
  5
12E
330
17
100
AcDbEntity
  8
FoilLayer
100
AcDbLine
 10
63.97018198640268
 20
-12.912986218786264
 30
0.0
 11
67.92322623061196
 21
-12.666535101703138
 31
0.0
  0
LINE
  5
12F
330
17
100
AcDbEntity
  8
FoilLayer
100
AcDbLine
 10
67.92322623061196
 20
-12.666535101703138
 30
0.0
 11
71.87908556114803
 21
-12.427754077237099
 31
0.0
  0
LINE
  5
130
330
17
100
AcDbEntity
  8
FoilLayer
100
AcDbLine
 10
71.87908556114803
 20
-12.427754077237099
 30
0.0
 11
75.83655042908143
 21
-12.181142136369395
 31
0.0
  0
LINE
  5
131
330
17
100
AcDbEntity
  8
FoilLayer
100
AcDbLine
 10
75.83655042908143
 20
-12.181142136369395
 30
0.0
 11
79.79700507336574
 21
-11.90822048322376
 31
0.0
  0
LINE
  5
132
330
17
100
AcDbEntity
  8
FoilLayer
100
AcDbLine
 10
79.79700507336574
 20
-11.90822048322376
 30
0.0
 11
83.76238939347616
 21
-11.614265834278541
 31
0.0
  0
LINE
  5
133
330
17
100
AcDbEntity
  8
FoilLayer
100
AcDbLine
 10
83.76238939347616
 20
-11.614265834278541
 30
0.0
 11
87.73305644394907
 21
-11.322325623471121
 31
0.0
  0
LINE
  5
134
330
17
100
AcDbEntity
  8
FoilLayer
100
AcDbLine
 10
87.73305644394907
 20
-11.322325623471121
 30
0.0
 11
91.70757850423325
 21
-11.046414820725058
 31
0.0
  0
LINE
  5
135
330
17
100
AcDbEntity
  8
FoilLayer
100
AcDbLine
 10
91.70757850423325
 20
-11.046414820725058
 30
0.0
 11
95.68424979117248
 21
-10.781322635272407
 31
0.0
  0
LINE
  5
136
330
17
100
AcDbEntity
  8
FoilLayer
100
AcDbLine
 10
95.68424979117248
 20
-10.781322635272407
 30
0.0
 11
99.66133483376191
 21
-10.512842593357092
 31
0.0
  0
LINE
  5
137
330
17
100
AcDbEntity
  8
FoilLayer
100
AcDbLine
 10
99.66133483376191
 20
-10.512842593357092
 30
0.0
 11
103.63955163956061
 21
-10.219842203217752
 31
0.0
  0
LINE
  5
138
330
17
100
AcDbEntity
  8
FoilLayer
100
AcDbLine
 10
103.63955163956061
 20
-10.219842203217752
 30
0.0
 11
107.621765530092
 21
-9.903386259330924
 31
0.0
  0
LINE
  5
139
330
17
100
AcDbEntity
  8
FoilLayer
100
AcDbLine
 10
107.621765530092
 20
-9.903386259330924
 30
0.0
 11
111.6074758553053
 21
-9.59116185217931
 31
0.0
  0
LINE
  5
13A
330
17
100
AcDbEntity
  8
FoilLayer
100
AcDbLine
 10
111.6074758553053
 20
-9.59116185217931
 30
0.0
 11
115.5962898755935
 21
-9.290345680215415
 31
0.0
  0
LINE
  5
13B
330
17
100
AcDbEntity
  8
FoilLayer
100
AcDbLine
 10
115.5962898755935
 20
-9.290345680215415
 30
0.0
 11
119.58708795589146
 21
-9.001002354160555
 31
0.0
  0
LINE
  5
13C
330
17
100
AcDbEntity
  8
FoilLayer
100
AcDbLine
 10
119.58708795589146
 20
-9.001002354160555
 30
0.0
 11
123.57780750115049
 21
-8.7150815834905
 31
0.0
  0
LINE
  5
13D
330
17
100
AcDbEntity
  8
FoilLayer
100
AcDbLine
 10
123.57780750115049
 20
-8.7150815834905
 30
0.0
 11
127.56799593141156
 21
-8.414012944207201
 31
0.0
  0
LINE
  5
13E
330
17
100
AcDbEntity
  8
FoilLayer
100
AcDbLine
 10
127.56799593141156
 20
-8.414012944207201
 30
0.0
 11
131.56066022346246
 21
-8.08728284177685
 31
0.0
  0
LINE
  5
13F
330
17
100
AcDbEntity
  8
FoilLayer
100
AcDbLine
 10
131.56066022346246
 20
-8.08728284177685
 30
0.0
 11
135.55608468863144
 21
-7.761795845846295
 31
0.0
  0
LINE
  5
140
330
17
100
AcDbEntity
  8
FoilLayer
100
AcDbLine
 10
135.55608468863144
 20
-7.761795845846295
 30
0.0
 11
139.55318072099882
 21
-7.4495600729738225
 31
0.0
  0
LINE
  5
141
330
17
100
AcDbEntity
  8
FoilLayer
100
AcDbLine
 10
139.55318072099882
 20
-7.4495600729738225
 30
0.0
 11
143.55218624903964
 21
-7.145393282537729
 31
0.0
  0
LINE
  5
142
330
17
100
AcDbEntity
  8
FoilLayer
100
AcDbLine
 10
143.55218624903964
 20
-7.145393282537729
 30
0.0
 11
147.5518569394773
 21
-6.852581010802936
 31
0.0
  0
LINE
  5
143
330
17
100
AcDbEntity
  8
FoilLayer
100
AcDbLine
 10
147.5518569394773
 20
-6.852581010802936
 30
0.0
 11
151.54960538071654
 21
-6.562627923604202
 31
0.0
  0
LINE
  5
144
330
17
100
AcDbEntity
  8
FoilLayer
100
AcDbLine
 10
151.54960538071654
 20
-6.562627923604202
 30
0.0
 11
155.54704504789518
 21
-6.25122780455049
 31
0.0
  0
LINE
  5
145
330
17
100
AcDbEntity
  8
FoilLayer
100
AcDbLine
 10
155.54704504789518
 20
-6.25122780455049
 30
0.0
 11
159.54619481635686
 21
-5.927162712644295
 31
0.0
  0
LINE
  5
146
330
17
100
AcDbEntity
  8
FoilLayer
100
AcDbLine
 10
159.54619481635686
 20
-5.927162712644295
 30
0.0
 11
163.54580019568075
 21
-5.612840642949989
 31
0.0
  0
LINE
  5
147
330
17
100
AcDbEntity
  8
FoilLayer
100
AcDbLine
 10
163.54580019568075
 20
-5.612840642949989
 30
0.0
 11
167.54559418392998
 21
-5.30686636253204
 31
0.0
  0
LINE
  5
148
330
17
100
AcDbEntity
  8
FoilLayer
100
AcDbLine
 10
167.54559418392998
 20
-5.30686636253204
 30
0.0
 11
171.54594737272387
 21
-5.00833642465073
 31
0.0
  0
LINE
  5
149
330
17
100
AcDbEntity
  8
FoilLayer
100
AcDbLine
 10
171.54594737272387
 20
-5.00833642465073
 30
0.0
 11
175.54355423190398
 21
-4.722129059666189
 31
0.0
  0
LINE
  5
14A
330
17
100
AcDbEntity
  8
FoilLayer
100
AcDbLine
 10
175.54355423190398
 20
-4.722129059666189
 30
0.0
 11
179.53801332529824
 21
-4.425879128276466
 31
0.0
  0
LINE
  5
14B
330
17
100
AcDbEntity
  8
FoilLayer
100
AcDbLine
 10
179.53801332529824
 20
-4.425879128276466
 30
0.0
 11
183.53127632525857
 21
-4.113582692509378
 31
0.0
  0
LINE
  5
14C
330
17
100
AcDbEntity
  8
FoilLayer
100
AcDbLine
 10
183.53127632525857
 20
-4.113582692509378
 30
0.0
 11
187.5224005125817
 21
-3.807180130967477
 31
0.0
  0
LINE
  5
14D
330
17
100
AcDbEntity
  8
FoilLayer
100
AcDbLine
 10
187.5224005125817
 20
-3.807180130967477
 30
0.0
 11
191.50955374812216
 21
-3.515808145038676
 31
0.0
  0
LINE
  5
14E
330
17
100
AcDbEntity
  8
FoilLayer
100
AcDbLine
 10
191.50955374812216
 20
-3.515808145038676
 30
0.0
 11
195.49088863055604
 21
-3.236586460238937
 31
0.0
  0
LINE
  5
14F
330
17
100
AcDbEntity
  8
FoilLayer
100
AcDbLine
 10
195.49088863055604
 20
-3.236586460238937
 30
0.0
 11
199.46319155278368
 21
-2.9688367521106596
 31
0.0
  0
LINE
  5
150
330
17
100
AcDbEntity
  8
FoilLayer
100
AcDbLine
 10
199.46319155278368
 20
-2.9688367521106596
 30
0.0
 11
203.4232824788874
 21
-2.7040352946534716
 31
0.0
  0
LINE
  5
151
330
17
100
AcDbEntity
  8
FoilLayer
100
AcDbLine
 10
203.4232824788874
 20
-2.7040352946534716
 30
0.0
 11
207.3683917304223
 21
-2.4363052248087995
 31
0.0
  0
LINE
  5
152
330
17
100
AcDbEntity
  8
FoilLayer
100
AcDbLine
 10
207.3683917304223
 20
-2.4363052248087995
 30
0.0
 11
211.2932090957045
 21
-2.174829502023446
 31
0.0
  0
LINE
  5
153
330
17
100
AcDbEntity
  8
FoilLayer
100
AcDbLine
 10
211.2932090957045
 20
-2.174829502023446
 30
0.0
 11
215.18907179160786
 21
-1.9256636303642372
 31
0.0
  0
LINE
  5
154
330
17
100
AcDbEntity
  8
FoilLayer
100
AcDbLine
 10
215.18907179160786
 20
-1.9256636303642372
 30
0.0
 11
219.04755126765568
 21
-1.6830456107692817
 31
0.0
  0
LINE
  5
155
330
17
100
AcDbEntity
  8
FoilLayer
100
AcDbLine
 10
219.04755126765568
 20
-1.6830456107692817
 30
0.0
 11
222.85711716985432
 21
-1.4522859577768163
 31
0.0
  0
LINE
  5
156
330
17
100
AcDbEntity
  8
FoilLayer
100
AcDbLine
 10
222.85711716985432
 20
-1.4522859577768163
 30
0.0
 11
226.59877581894418
 21
-1.2459807258371611
 31
0.0
  0
LINE
  5
157
330
17
100
AcDbEntity
  8
FoilLayer
100
AcDbLine
 10
226.59877581894418
 20
-1.2459807258371611
 30
0.0
 11
230.2556262580791
 21
-1.045434063593225
 31
0.0
  0
LINE
  5
158
330
17
100
AcDbEntity
  8
FoilLayer
100
AcDbLine
 10
230.2556262580791
 20
-1.045434063593225
 30
0.0
 11
233.8058955522766
 21
-0.852495769768991
 31
0.0
  0
LINE
  5
159
330
17
100
AcDbEntity
  8
FoilLayer
100
AcDbLine
 10
233.8058955522766
 20
-0.852495769768991
 30
0.0
 11
237.22826207094263
 21
-0.6674413613122884
 31
0.0
  0
LINE
  5
15A
330
17
100
AcDbEntity
  8
FoilLayer
100
AcDbLine
 10
237.22826207094263
 20
-0.6674413613122884
 30
0.0
 11
240.4979257748984
 21
-0.5037307211739244
 31
0.0
  0
LINE
  5
15B
330
17
100
AcDbEntity
  8
FoilLayer
100
AcDbLine
 10
240.4979257748984
 20
-0.5037307211739244
 30
0.0
 11
243.59224537309197
 21
-0.3612254959259351
 31
0.0
  0
LINE
  5
15C
330
17
100
AcDbEntity
  8
FoilLayer
100
AcDbLine
 10
243.59224537309197
 20
-0.3612254959259351
 30
0.0
 11
246.49689454887655
 21
-0.2293985212628361
 31
0.0
  0
LINE
  5
15D
330
17
100
AcDbEntity
  8
FoilLayer
100
AcDbLine
 10
246.49689454887655
 20
-0.2293985212628361
 30
0.0
 11
249.20467155809442
 21
-0.10703411598744417
 31
0.0
  0
LINE
  5
15E
330
17
100
AcDbEntity
  8
FoilLayer
100
AcDbLine
 10
249.20467155809442
 20
-0.10703411598744417
 30
0.0
 11
251.71207547826097
 21
-0.00211457555177863
 31
0.0
  0
LINE
  5
15F
330
17
100
AcDbEntity
  8
FoilLayer
100
AcDbLine
 10
251.71207547826097
 20
-0.00211457555177863
 30
0.0
 11
254.02006482378366
 21
0.08486477080099764
 31
0.0
  0
LINE
  5
160
330
17
100
AcDbEntity
  8
FoilLayer
100
AcDbLine
 10
254.02006482378366
 20
0.08486477080099764
 30
0.0
 11
255.45282793209898
 21
0.13559109219262572
 31
0.0
  0
LINE
  5
161
330
17
100
AcDbEntity
  8
FoilLayer
100
AcDbLine
 10
255.45282793209898
 20
0.13559109219262572
 30
0.0
 11
255.37479462286072
 21
-0.12597255650356348
 31
0.0
  0
LINE
  5
162
330
17
100
AcDbEntity
  8
StringerLayer
100
AcDbLine
 10
109.61017661365074
 20
22.927911001857325
 30
0.0
 11
113.56565294932236
 21
22.332758115666046
 31
0.0
  0
LINE
  5
163
330
17
100
AcDbEntity
  8
StringerLayer
100
AcDbLine
 10
113.56565294932236
 20
22.332758115666046
 30
0.0
 11
114.16080583551363
 21
26.288234451337665
 31
0.0
  0
LINE
  5
164
330
17
100
AcDbEntity
  8
StringerLayer
100
AcDbLine
 10
114.16080583551363
 20
26.288234451337665
 30
0.0
 11
110.20532949984201
 21
26.883387337528944
 31
0.0
  0
LINE
  5
165
330
17
100
AcDbEntity
  8
StringerLayer
100
AcDbLine
 10
110.20532949984201
 20
26.883387337528944
 30
0.0
 11
109.61017661365074
 21
22.927911001857325
 31
0.0
  0
LINE
  5
166
330
17
100
AcDbEntity
  8
StringerLayer
100
AcDbLine
 10
-44.5701993328196
 20
31.570114612981126
 30
0.0
 11
-40.578059184263196
 21
31.820747879496363
 31
0.0
  0
LINE
  5
167
330
17
100
AcDbEntity
  8
StringerLayer
100
AcDbLine
 10
-40.578059184263196
 20
31.820747879496363
 30
0.0
 11
-40.828692450778426
 21
35.81288802805276
 31
0.0
  0
LINE
  5
168
330
17
100
AcDbEntity
  8
StringerLayer
100
AcDbLine
 10
-40.828692450778426
 20
35.81288802805276
 30
0.0
 11
-44.82083259933483
 21
35.562254761537524
 31
0.0
  0
LINE
  5
169
330
17
100
AcDbEntity
  8
StringerLayer
100
AcDbLine
 10
-44.82083259933483
 20
35.562254761537524
 30
0.0
 11
-44.5701993328196
 21
31.570114612981126
 31
0.0
  0
LINE
  5
16A
330
17
100
AcDbEntity
  8
StringerLayer
100
AcDbLine
 10
-112.80157226835647
 20
20.546844930025422
 30
0.0
 11
-108.95864671920214
 21
21.65676529818562
 31
0.0
  0
LINE
  5
16B
330
17
100
AcDbEntity
  8
StringerLayer
100
AcDbLine
 10
-108.95864671920214
 20
21.65676529818562
 30
0.0
 11
-110.06856708736233
 21
25.499690847339952
 31
0.0
  0
LINE
  5
16C
330
17
100
AcDbEntity
  8
StringerLayer
100
AcDbLine
 10
-110.06856708736233
 20
25.499690847339952
 30
0.0
 11
-113.91149263651666
 21
24.389770479179756
 31
0.0
  0
LINE
  5
16D
330
17
100
AcDbEntity
  8
StringerLayer
100
AcDbLine
 10
-113.91149263651666
 20
24.389770479179756
 30
0.0
 11
-112.80157226835647
 21
20.546844930025422
 31
0.0
  0
LINE
  5
16E
330
17
100
AcDbEntity
  8
StringerLayer
100
AcDbLine
 10
-144.28779154596845
 20
5.414069853841564
 30
0.0
 11
-142.7807217111008
 21
6.728885625283311
 31
0.0
  0
LINE
  5
16F
330
17
100
AcDbEntity
  8
StringerLayer
100
AcDbLine
 10
-142.7807217111008
 20
6.728885625283311
 30
0.0
 11
-145.41035325398428
 21
9.743025295018635
 31
0.0
  0
LINE
  5
170
330
17
100
AcDbEntity
  8
StringerLayer
100
AcDbLine
 10
-145.41035325398428
 20
9.743025295018635
 30
0.0
 11
-146.91742308885193
 21
8.428209523576887
 31
0.0
  0
LINE
  5
171
330
17
100
AcDbEntity
  8
StringerLayer
100
AcDbLine
 10
-146.91742308885193
 20
8.428209523576887
 30
0.0
 11
-144.28779154596845
 21
5.414069853841564
 31
0.0
  0
LINE
  5
172
330
17
100
AcDbEntity
  8
StringerLayer
100
AcDbLine
 10
-145.0863434330759
 20
-3.176152398801187
 30
0.0
 11
-146.68399900708647
 21
-1.9730328424672914
 31
0.0
  0
LINE
  5
173
330
17
100
AcDbEntity
  8
StringerLayer
100
AcDbLine
 10
-146.68399900708647
 20
-1.9730328424672914
 30
0.0
 11
-149.09023811975428
 21
-5.168343990488359
 31
0.0
  0
LINE
  5
174
330
17
100
AcDbEntity
  8
StringerLayer
100
AcDbLine
 10
-149.09023811975428
 20
-5.168343990488359
 30
0.0
 11
-147.49258254574372
 21
-6.3714635468222545
 31
0.0
  0
LINE
  5
175
330
17
100
AcDbEntity
  8
StringerLayer
100
AcDbLine
 10
-147.49258254574372
 20
-6.3714635468222545
 30
0.0
 11
-145.0863434330759
 21
-3.176152398801187
 31
0.0
  0
LINE
  5
176
330
17
100
AcDbEntity
  8
StringerLayer
100
AcDbLine
 10
-89.7153864417403
 20
-12.36464012969638
 30
0.0
 11
-93.71106727843691
 21
-12.178805118851994
 31
0.0
  0
LINE
  5
177
330
17
100
AcDbEntity
  8
StringerLayer
100
AcDbLine
 10
-93.71106727843691
 20
-12.178805118851994
 30
0.0
 11
-93.8969022892813
 21
-16.174485955548597
 31
0.0
  0
LINE
  5
178
330
17
100
AcDbEntity
  8
StringerLayer
100
AcDbLine
 10
-93.8969022892813
 20
-16.174485955548597
 30
0.0
 11
-89.90122145258469
 21
-16.360320966392983
 31
0.0
  0
LINE
  5
179
330
17
100
AcDbEntity
  8
StringerLayer
100
AcDbLine
 10
-89.90122145258469
 20
-16.360320966392983
 30
0.0
 11
-89.7153864417403
 21
-12.36464012969638
 31
0.0
  0
LINE
  5
17A
330
17
100
AcDbEntity
  8
SubLayer
100
AcDbLine
 10
-153.2812499999994
 20
0.0
 30
0.0
 11
-149.2812499999994
 21
0.0
 31
0.0
  0
LINE
  5
17B
330
17
100
AcDbEntity
  8
SubLayer
100
AcDbLine
 10
28.656249999999886
 20
0.0
 30
0.0
 11
36.743749999999864
 21
0.0
 31
0.0
  0
LINE
  5
17C
330
17
100
AcDbEntity
  8
SubLayer
100
AcDbLine
 10
0.0
 20
10.6259427944228
 30
0.0
 11
7.996556118819384
 21
10.860655892847833
 31
0.0
  0
LINE
  5
17D
330
17
100
AcDbEntity
  8
SubLayer
100
AcDbLine
 10
-7.996556118819384
 20
10.391229695997767
 30
0.0
 11
0.0
 21
10.6259427944228
 31
0.0
  0
LINE
  5
17E
330
17
100
AcDbEntity
  8
SubLayer
100
AcDbLine
 10
0.08801741190938742
 20
7.627234249865531
 30
0.0
 11
0.3227305103344206
 21
-0.3693218689538522
 31
0.0
  0
LINE
  5
17F
330
17
100
AcDbEntity
  8
SubLayer
100
AcDbLine
 10
-0.08801741190938742
 20
13.624651338980069
 30
0.0
 11
-0.3227305103344206
 21
21.62120745779945
 31
0.0
  0
LINE
  5
180
330
17
100
AcDbEntity
  8
SubLayer
100
AcDbLine
 10
2.0578173043111043
 20
8.685482039324212
 30
0.0
 11
6.056095363720797
 21
8.802838588536728
 31
0.0
  0
LINE
  5
181
330
17
100
AcDbEntity
  8
SubLayer
100
AcDbLine
 10
6.056095363720797
 20
8.802838588536728
 30
0.0
 11
5.93873881450828
 21
12.80111664794642
 31
0.0
  0
LINE
  5
182
330
17
100
AcDbEntity
  8
SubLayer
100
AcDbLine
 10
5.93873881450828
 20
12.80111664794642
 30
0.0
 11
1.9404607550985875
 21
12.683760098733904
 31
0.0
  0
LINE
  5
183
330
17
100
AcDbEntity
  8
SubLayer
100
AcDbLine
 10
1.9404607550985875
 20
12.683760098733904
 30
0.0
 11
2.0578173043111043
 21
8.685482039324212
 31
0.0
  0
LINE
  5
184
330
17
100
AcDbEntity
  8
SubLayer
100
AcDbLine
 10
-5.93873881450828
 20
8.450768940899179
 30
0.0
 11
-1.9404607550985875
 21
8.568125490111695
 31
0.0
  0
LINE
  5
185
330
17
100
AcDbEntity
  8
SubLayer
100
AcDbLine
 10
-1.9404607550985875
 20
8.568125490111695
 30
0.0
 11
-2.0578173043111043
 21
12.566403549521388
 31
0.0
  0
LINE
  5
186
330
17
100
AcDbEntity
  8
SubLayer
100
AcDbLine
 10
-2.0578173043111043
 20
12.566403549521388
 30
0.0
 11
-6.056095363720797
 21
12.449047000308871
 31
0.0
  0
LINE
  5
187
330
17
100
AcDbEntity
  8
SubLayer
100
AcDbLine
 10
-6.056095363720797
 20
12.449047000308871
 30
0.0
 11
-5.93873881450828
 21
8.450768940899179
 31
0.0
  0
LINE
  5
188
330
17
100
AcDbEntity
  8
SubLayer
100
AcDbLine
 10
-1.7350867939766839
 20
1.5711388861447348
 30
0.0
 11
2.2631912654330084
 21
1.6884954353572514
 31
0.0
  0
LINE
  5
189
330
17
100
AcDbEntity
  8
SubLayer
100
AcDbLine
 10
2.2631912654330084
 20
1.6884954353572514
 30
0.0
 11
2.1458347162204916
 21
5.6867734947669435
 31
0.0
  0
LINE
  5
18A
330
17
100
AcDbEntity
  8
SubLayer
100
AcDbLine
 10
2.1458347162204916
 20
5.6867734947669435
 30
0.0
 11
-1.8524433431892002
 21
5.569416945554427
 31
0.0
  0
LINE
  5
18B
330
17
100
AcDbEntity
  8
SubLayer
100
AcDbLine
 10
-1.8524433431892002
 20
5.569416945554427
 30
0.0
 11
-1.7350867939766839
 21
1.5711388861447348
 31
0.0
  0
LINE
  5
18C
330
17
100
AcDbEntity
  8
SubLayer
100
AcDbLine
 10
-2.1458347162204916
 20
15.565112094078653
 30
0.0
 11
1.8524433431892002
 21
15.68246864329117
 31
0.0
  0
LINE
  5
18D
330
17
100
AcDbEntity
  8
SubLayer
100
AcDbLine
 10
1.8524433431892002
 20
15.68246864329117
 30
0.0
 11
1.7350867939766839
 21
19.680746702700862
 31
0.0
  0
LINE
  5
18E
330
17
100
AcDbEntity
  8
SubLayer
100
AcDbLine
 10
1.7350867939766839
 20
19.680746702700862
 30
0.0
 11
-2.2631912654330084
 21
19.563390153488346
 31
0.0
  0
LINE
  5
18F
330
17
100
AcDbEntity
  8
SubLayer
100
AcDbLine
 10
-2.2631912654330084
 20
19.563390153488346
 30
0.0
 11
-2.1458347162204916
 21
15.565112094078653
 31
0.0
  0
LINE
  5
190
330
17
100
AcDbEntity
  8
SubLayer
100
AcDbLine
 10
223.51807147762574
 20
6.238343257456387
 30
0.0
 11
227.51634953703544
 21
6.355699806668904
 31
0.0
  0
LINE
  5
191
330
17
100
AcDbEntity
  8
SubLayer
100
AcDbLine
 10
-151.53522914627928
 20
-4.770136012363229
 30
0.0
 11
-147.53695108686958
 21
-4.652779463150712
 31
0.0
  0
LINE
  5
192
330
17
100
AcDbEntity
  8
SubLayer
100
AcDbLine
 10
-77.5241385363507
 20
-2.5977792957024346
 30
0.0
 11
-71.52672144723616
 21
-2.42174447188366
 31
0.0
  0
LINE
  5
193
330
17
100
AcDbEntity
  8
SubLayer
100
AcDbLine
 10
147.50784183799232
 20
4.007308266189335
 30
0.0
 11
153.50525892710687
 21
4.183343090008109
 31
0.0
  0
LINE
  5
194
330
17
100
AcDbEntity
  8
SubLayer
100
AcDbLine
 10
34.99185165082081
 20
0.7047644852434504
 30
0.0
 11
40.98926873993535
 21
0.8807993090622247
 31
0.0
  0
LINE
  5
195
330
17
100
AcDbEntity
  8
SubLayer
100
AcDbLine
 10
-72.46761268748233
 20
-4.450222638891635
 30
0.0
 11
-72.58496923669485
 21
-0.45194457948194344
 31
0.0
  0
LINE
  5
196
330
17
100
AcDbEntity
  8
SubLayer
100
AcDbLine
 10
-72.58496923669485
 20
-0.45194457948194344
 30
0.0
 11
-76.58324729610453
 21
-0.5693011286944596
 31
0.0
  0
LINE
  5
197
330
17
100
AcDbEntity
  8
SubLayer
100
AcDbLine
 10
-76.58324729610453
 20
-0.5693011286944596
 30
0.0
 11
-76.46589074689201
 21
-4.567579188104151
 31
0.0
  0
LINE
  5
198
330
17
100
AcDbEntity
  8
SubLayer
100
AcDbLine
 10
-76.46589074689201
 20
-4.567579188104151
 30
0.0
 11
-72.46761268748233
 21
-4.450222638891635
 31
0.0
  0
LINE
  5
199
330
17
100
AcDbEntity
  8
SubLayer
100
AcDbLine
 10
152.5643676868607
 20
2.154864923000134
 30
0.0
 11
152.4470111376482
 21
6.153142982409825
 31
0.0
  0
LINE
  5
19A
330
17
100
AcDbEntity
  8
SubLayer
100
AcDbLine
 10
152.4470111376482
 20
6.153142982409825
 30
0.0
 11
148.4487330782385
 21
6.03578643319731
 31
0.0
  0
LINE
  5
19B
330
17
100
AcDbEntity
  8
SubLayer
100
AcDbLine
 10
148.4487330782385
 20
6.03578643319731
 30
0.0
 11
148.566089627451
 21
2.037508373787618
 31
0.0
  0
LINE
  5
19C
330
17
100
AcDbEntity
  8
SubLayer
100
AcDbLine
 10
148.566089627451
 20
2.037508373787618
 30
0.0
 11
152.5643676868607
 21
2.154864923000134
 31
0.0
  0
LINE
  5
19D
330
17
100
AcDbEntity
  8
SubLayer
100
AcDbLine
 10
40.04837749968918
 20
-1.1476788579457502
 30
0.0
 11
39.931020950476665
 21
2.8505992014639414
 31
0.0
  0
LINE
  5
19E
330
17
100
AcDbEntity
  8
SubLayer
100
AcDbLine
 10
39.931020950476665
 20
2.8505992014639414
 30
0.0
 11
35.93274289106698
 21
2.733242652251425
 31
0.0
  0
LINE
  5
19F
330
17
100
AcDbEntity
  8
SubLayer
100
AcDbLine
 10
35.93274289106698
 20
2.733242652251425
 30
0.0
 11
36.050099440279496
 21
-1.2650354071582663
 31
0.0
  0
LINE
  5
1A0
330
17
100
AcDbEntity
  8
SubLayer
100
AcDbLine
 10
36.050099440279496
 20
-1.2650354071582663
 30
0.0
 11
40.04837749968918
 21
-1.1476788579457502
 31
0.0
  0
LINE
  5
1A1
330
17
100
AcDbEntity
  8
SubLayer
100
AcDbLine
 10
235.79147765308988
 20
3.613137404200235
 30
0.0
 11
235.99660296525303
 21
4.591873122517481
 31
0.0
  0
LINE
  5
1A2
330
17
100
AcDbEntity
  8
SubLayer
100
AcDbLine
 10
235.5023273278734
 20
-1.2614331660563904
 30
0.0
 11
235.46423749173607
 21
-0.26215884717141497
 31
0.0
  0
LINE
  5
1A3
330
17
100
AcDbEntity
  8
SubLayer
100
AcDbLine
 10
216.2221419367185
 20
7.742980836548885
 30
0.0
 11
216.42794886554364
 21
8.721573452527334
 31
0.0
  0
LINE
  5
1A4
330
17
100
AcDbEntity
  8
SubLayer
100
AcDbLine
 10
215.5379680781882
 20
-2.404655314237856
 30
0.0
 11
215.49033750379775
 21
-1.405790294135921
 31
0.0
  0
LINE
  5
1A5
330
17
100
AcDbEntity
  8
SubLayer
100
AcDbLine
 10
177.0246639727977
 20
15.70906845343894
 30
0.0
 11
177.2271478718894
 21
16.688354045392906
 31
0.0
  0
LINE
  5
1A6
330
17
100
AcDbEntity
  8
SubLayer
100
AcDbLine
 10
175.63743880084866
 20
-5.216482705903174
 30
0.0
 11
175.5784718913584
 21
-4.218222768018674
 31
0.0
  0
ENDSEC
  0
SECTION
  2
OBJECTS
  0
DICTIONARY
  5
A
330
0
100
AcDbDictionary
280
0
281
1
  3
ACAD_COLOR
350
B
  3
ACAD_GROUP
350
C
  3
ACAD_LAYOUT
350
D
  3
ACAD_MATERIAL
350
E
  3
ACAD_MLEADERSTYLE
350
F
  3
ACAD_MLINESTYLE
350
10
  3
ACAD_PLOTSETTINGS
350
11
  3
ACAD_PLOTSTYLENAME
350
12
  3
ACAD_SCALELIST
350
14
  3
ACAD_TABLESTYLE
350
15
  3
ACAD_VISUALSTYLE
350
16
  3
EZDXF_META
350
2D
  0
DICTIONARY
  5
B
330
A
100
AcDbDictionary
280
0
281
1
  0
DICTIONARY
  5
C
330
A
100
AcDbDictionary
280
0
281
1
  0
DICTIONARY
  5
D
330
A
100
AcDbDictionary
280
0
281
1
  3
Model
350
1A
  3
Layout1
350
1E
  0
DICTIONARY
  5
E
330
A
100
AcDbDictionary
280
0
281
1
  3
ByBlock
350
1F
  3
ByLayer
350
20
  3
Global
350
21
  0
DICTIONARY
  5
F
330
A
100
AcDbDictionary
280
0
281
1
  3
Standard
350
2C
  0
DICTIONARY
  5
10
330
A
100
AcDbDictionary
280
0
281
1
  3
Standard
350
22
  0
DICTIONARY
  5
11
330
A
100
AcDbDictionary
280
0
281
1
  0
ACDBDICTIONARYWDFLT
  5
12
330
A
100
AcDbDictionary
280
0
281
1
  3
Normal
350
13
100
AcDbDictionaryWithDefault
340
13
  0
ACDBPLACEHOLDER
  5
13
330
12
  0
DICTIONARY
  5
14
330
A
100
AcDbDictionary
280
0
281
1
  0
DICTIONARY
  5
15
330
A
100
AcDbDictionary
280
0
281
1
  0
DICTIONARY
  5
16
330
A
100
AcDbDictionary
280
0
281
1
  0
LAYOUT
  5
1A
330
D
100
AcDbPlotSettings
  1

  2
Adobe PDF
  4
A3
  6

 40
7.5
 41
20.0
 42
7.5
 43
20.0
 44
420.0
 45
297.0
 46
0.0
 47
0.0
 48
0.0
 49
0.0
140
0.0
141
0.0
142
1.0
143
1.0
 70
1024
 72
1
 73
0
 74
5
  7

 75
16
 76
0
 77
2
 78
300
147
1.0
148
0.0
149
0.0
100
AcDbLayout
  1
Model
 70
1
 71
0
 10
0.0
 20
0.0
 11
420.0
 21
297.0
 12
0.0
 22
0.0
 32
0.0
 14
1e+20
 24
1e+20
 34
1e+20
 15
-1e+20
 25
-1e+20
 35
-1e+20
146
0.0
 13
0.0
 23
0.0
 33
0.0
 16
1.0
 26
0.0
 36
0.0
 17
0.0
 27
1.0
 37
0.0
 76
1
330
17
  0
LAYOUT
  5
1E
330
D
100
AcDbPlotSettings
  1

  2
Adobe PDF
  4
A3
  6

 40
7.5
 41
20.0
 42
7.5
 43
20.0
 44
420.0
 45
297.0
 46
0.0
 47
0.0
 48
0.0
 49
0.0
140
0.0
141
0.0
142
1.0
143
1.0
 70
0
 72
1
 73
0
 74
5
  7

 75
16
 76
0
 77
2
 78
300
147
1.0
148
0.0
149
0.0
100
AcDbLayout
  1
Layout1
 70
1
 71
1
 10
0.0
 20
0.0
 11
420.0
 21
297.0
 12
0.0
 22
0.0
 32
0.0
 14
1e+20
 24
1e+20
 34
1e+20
 15
-1e+20
 25
-1e+20
 35
-1e+20
146
0.0
 13
0.0
 23
0.0
 33
0.0
 16
1.0
 26
0.0
 36
0.0
 17
0.0
 27
1.0
 37
0.0
 76
1
330
1B
  0
MATERIAL
  5
1F
102
{ACAD_REACTORS
330
E
102
}
330
E
100
AcDbMaterial
  1
ByBlock
  2

 70
0
 40
1.0
 71
1
 41
1.0
 91
-1023410177
 42
1.0
 72
1
  3

 73
1
 74
1
 75
1
 44
0.5
 73
0
 45
1.0
 46
1.0
 77
1
  4

 78
1
 79
1
170
1
 48
1.0
171
1
  6

172
1
173
1
174
1
140
1.0
141
1.0
175
1
  7

176
1
177
1
178
1
143
1.0
179
1
  8

270
1
271
1
272
1
145
1.0
146
1.0
273
1
  9

274
1
275
1
276
1
 42
1.0
 72
1
  3

 73
1
 74
1
 75
1
 94
63
  0
MATERIAL
  5
20
102
{ACAD_REACTORS
330
E
102
}
330
E
100
AcDbMaterial
  1
ByLayer
  2

 70
0
 40
1.0
 71
1
 41
1.0
 91
-1023410177
 42
1.0
 72
1
  3

 73
1
 74
1
 75
1
 44
0.5
 73
0
 45
1.0
 46
1.0
 77
1
  4

 78
1
 79
1
170
1
 48
1.0
171
1
  6

172
1
173
1
174
1
140
1.0
141
1.0
175
1
  7

176
1
177
1
178
1
143
1.0
179
1
  8

270
1
271
1
272
1
145
1.0
146
1.0
273
1
  9

274
1
275
1
276
1
 42
1.0
 72
1
  3

 73
1
 74
1
 75
1
 94
63
  0
MATERIAL
  5
21
102
{ACAD_REACTORS
330
E
102
}
330
E
100
AcDbMaterial
  1
Global
  2

 70
0
 40
1.0
 71
1
 41
1.0
 91
-1023410177
 42
1.0
 72
1
  3

 73
1
 74
1
 75
1
 44
0.5
 73
0
 45
1.0
 46
1.0
 77
1
  4

 78
1
 79
1
170
1
 48
1.0
171
1
  6

172
1
173
1
174
1
140
1.0
141
1.0
175
1
  7

176
1
177
1
178
1
143
1.0
179
1
  8

270
1
271
1
272
1
145
1.0
146
1.0
273
1
  9

274
1
275
1
276
1
 42
1.0
 72
1
  3

 73
1
 74
1
 75
1
 94
63
  0
MLINESTYLE
  5
22
102
{ACAD_REACTORS
330
10
102
}
330
10
100
AcDbMlineStyle
  2
Standard
 70
0
  3

 62
256
 51
90.0
 52
90.0
 71
2
 49
0.5
 62
256
  6
BYLAYER
 49
-0.5
 62
256
  6
BYLAYER
  0
MLEADERSTYLE
  5
2C
102
{ACAD_REACTORS
330
F
102
}
330
F
100
AcDbMLeaderStyle
179
2
170
2
171
1
172
0
 90
2
 40
0.0
 41
0.0
173
1
 91
-1056964608
 92
-2
290
1
 42
2.0
291
1
 43
8.0
  3
Standard
 44
4.0
300

342
29
174
1
175
1
176
0
178
1
 93
-1056964608
 45
4.0
292
0
297
0
 46
4.0
 94
-1056964608
 47
1.0
 49
1.0
140
1.0
294
1
141
0.0
177
0
142
1.0
295
0
296
0
143
3.75
271
0
272
9
273
9
  0
DICTIONARY
  5
2D
330
A
100
AcDbDictionary
281
1
  3
CREATED_BY_EZDXF
350
2E
  3
WRITTEN_BY_EZDXF
350
1A9
  0
DICTIONARYVAR
  5
2E
330
2D
100
DictionaryVariables
280
0
  1
1.0.2 @ 2024-03-22T07:41:35.143429+00:00
  0
DICTIONARYVAR
  5
1A9
330
2D
100
DictionaryVariables
280
0
  1
1.0.2 @ 2024-03-22T07:41:35.152435+00:00
  0
ENDSEC
  0
EOF
