  0
SECTION
  2
HEADER
  9
$ACADVER
  1
AC1027
  9
$ACADMAINTVER
 70
105
  9
$DWGCODEPAGE
  3
ANSI_1252
  9
$LASTSAVEDBY
  1
ezdxf
  9
$REQUIREDVERSIONS
160
0
  9
$INSBASE
 10
0.0
 20
0.0
 30
0.0
  9
$EXTMIN
 10
1e+20
 20
1e+20
 30
1e+20
  9
$EXTMAX
 10
-1e+20
 20
-1e+20
 30
-1e+20
  9
$LIMMIN
 10
0.0
 20
0.0
  9
$LIMMAX
 10
420.0
 20
297.0
  9
$ORTHOMODE
 70
0
  9
$REGENMODE
 70
1
  9
$FILLMODE
 70
1
  9
$QTEXTMODE
 70
0
  9
$MIRRTEXT
 70
1
  9
$LTSCALE
 40
1.0
  9
$ATTMODE
 70
1
  9
$TEXTSIZE
 40
2.5
  9
$TRACEWID
 40
1.0
  9
$TEXTSTYLE
  7
Standard
  9
$CLAYER
  8
0
  9
$CELTYPE
  6
ByLayer
  9
$CECOLOR
 62
256
  9
$CELTSCALE
 40
1.0
  9
$DISPSILH
 70
0
  9
$DIMSCALE
 40
1.0
  9
$DIMASZ
 40
2.5
  9
$DIMEXO
 40
0.625
  9
$DIMDLI
 40
3.75
  9
$DIMRND
 40
0.0
  9
$DIMDLE
 40
0.0
  9
$DIMEXE
 40
1.25
  9
$DIMTP
 40
0.0
  9
$DIMTM
 40
0.0
  9
$DIMTXT
 40
2.5
  9
$DIMCEN
 40
2.5
  9
$DIMTSZ
 40
0.0
  9
$DIMTOL
 70
0
  9
$DIMLIM
 70
0
  9
$DIMTIH
 70
0
  9
$DIMTOH
 70
0
  9
$DIMSE1
 70
0
  9
$DIMSE2
 70
0
  9
$DIMTAD
 70
1
  9
$DIMZIN
 70
8
  9
$DIMBLK
  1

  9
$DIMASO
 70
1
  9
$DIMSHO
 70
1
  9
$DIMPOST
  1

  9
$DIMAPOST
  1

  9
$DIMALT
 70
0
  9
$DIMALTD
 70
3
  9
$DIMALTF
 40
0.03937007874
  9
$DIMLFAC
 40
1.0
  9
$DIMTOFL
 70
1
  9
$DIMTVP
 40
0.0
  9
$DIMTIX
 70
0
  9
$DIMSOXD
 70
0
  9
$DIMSAH
 70
0
  9
$DIMBLK1
  1

  9
$DIMBLK2
  1

  9
$DIMSTYLE
  2
ISO-25
  9
$DIMCLRD
 70
0
  9
$DIMCLRE
 70
0
  9
$DIMCLRT
 70
0
  9
$DIMTFAC
 40
1.0
  9
$DIMGAP
 40
0.625
  9
$DIMJUST
 70
0
  9
$DIMSD1
 70
0
  9
$DIMSD2
 70
0
  9
$DIMTOLJ
 70
0
  9
$DIMTZIN
 70
8
  9
$DIMALTZ
 70
0
  9
$DIMALTTZ
 70
0
  9
$DIMUPT
 70
0
  9
$DIMDEC
 70
2
  9
$DIMTDEC
 70
2
  9
$DIMALTU
 70
2
  9
$DIMALTTD
 70
3
  9
$DIMTXSTY
  7
Standard
  9
$DIMAUNIT
 70
0
  9
$DIMADEC
 70
0
  9
$DIMALTRND
 40
0.0
  9
$DIMAZIN
 70
0
  9
$DIMDSEP
 70
44
  9
$DIMATFIT
 70
3
  9
$DIMFRAC
 70
0
  9
$DIMLDRBLK
  1

  9
$DIMLUNIT
 70
2
  9
$DIMLWD
 70
-2
  9
$DIMLWE
 70
-2
  9
$DIMTMOVE
 70
0
  9
$DIMFXL
 40
1.0
  9
$DIMFXLON
 70
0
  9
$DIMJOGANG
 40
0.785398163397
  9
$DIMTFILL
 70
0
  9
$DIMTFILLCLR
 70
0
  9
$DIMARCSYM
 70
0
  9
$DIMLTYPE
  6

  9
$DIMLTEX1
  6

  9
$DIMLTEX2
  6

  9
$DIMTXTDIRECTION
 70
0
  9
$LUNITS
 70
2
  9
$LUPREC
 70
4
  9
$SKETCHINC
 40
1.0
  9
$FILLETRAD
 40
10.0
  9
$AUNITS
 70
0
  9
$AUPREC
 70
2
  9
$MENU
  1
.
  9
$ELEVATION
 40
0.0
  9
$PELEVATION
 40
0.0
  9
$THICKNESS
 40
0.0
  9
$LIMCHECK
 70
0
  9
$CHAMFERA
 40
0.0
  9
$CHAMFERB
 40
0.0
  9
$CHAMFERC
 40
0.0
  9
$CHAMFERD
 40
0.0
  9
$SKPOLY
 70
0
  9
$TDCREATE
 40
2460392.6955439816
  9
$TDUCREATE
 40
2458532.153996898
  9
$TDUPDATE
 40
2460392.6955439816
  9
$TDUUPDATE
 40
2458532.1544311
  9
$TDINDWG
 40
0.0
  9
$TDUSRTIMER
 40
0.0
  9
$USRTIMER
 70
1
  9
$ANGBASE
 50
0.0
  9
$ANGDIR
 70
0
  9
$PDMODE
 70
0
  9
$PDSIZE
 40
0.0
  9
$PLINEWID
 40
0.0
  9
$SPLFRAME
 70
0
  9
$SPLINETYPE
 70
6
  9
$SPLINESEGS
 70
8
  9
$HANDSEED
  5
1AA
  9
$SURFTAB1
 70
6
  9
$SURFTAB2
 70
6
  9
$SURFTYPE
 70
6
  9
$SURFU
 70
6
  9
$SURFV
 70
6
  9
$UCSBASE
  2

  9
$UCSNAME
  2

  9
$UCSORG
 10
0.0
 20
0.0
 30
0.0
  9
$UCSXDIR
 10
1.0
 20
0.0
 30
0.0
  9
$UCSYDIR
 10
0.0
 20
1.0
 30
0.0
  9
$UCSORTHOREF
  2

  9
$UCSORTHOVIEW
 70
0
  9
$UCSORGTOP
 10
0.0
 20
0.0
 30
0.0
  9
$UCSORGBOTTOM
 10
0.0
 20
0.0
 30
0.0
  9
$UCSORGLEFT
 10
0.0
 20
0.0
 30
0.0
  9
$UCSORGRIGHT
 10
0.0
 20
0.0
 30
0.0
  9
$UCSORGFRONT
 10
0.0
 20
0.0
 30
0.0
  9
$UCSORGBACK
 10
0.0
 20
0.0
 30
0.0
  9
$PUCSBASE
  2

  9
$PUCSNAME
  2

  9
$PUCSORG
 10
0.0
 20
0.0
 30
0.0
  9
$PUCSXDIR
 10
1.0
 20
0.0
 30
0.0
  9
$PUCSYDIR
 10
0.0
 20
1.0
 30
0.0
  9
$PUCSORTHOREF
  2

  9
$PUCSORTHOVIEW
 70
0
  9
$PUCSORGTOP
 10
0.0
 20
0.0
 30
0.0
  9
$PUCSORGBOTTOM
 10
0.0
 20
0.0
 30
0.0
  9
$PUCSORGLEFT
 10
0.0
 20
0.0
 30
0.0
  9
$PUCSORGRIGHT
 10
0.0
 20
0.0
 30
0.0
  9
$PUCSORGFRONT
 10
0.0
 20
0.0
 30
0.0
  9
$PUCSORGBACK
 10
0.0
 20
0.0
 30
0.0
  9
$USERI1
 70
0
  9
$USERI2
 70
0
  9
$USERI3
 70
0
  9
$USERI4
 70
0
  9
$USERI5
 70
0
  9
$USERR1
 40
0.0
  9
$USERR2
 40
0.0
  9
$USERR3
 40
0.0
  9
$USERR4
 40
0.0
  9
$USERR5
 40
0.0
  9
$WORLDVIEW
 70
1
  9
$SHADEDGE
 70
3
  9
$SHADEDIF
 70
70
  9
$TILEMODE
 70
1
  9
$MAXACTVP
 70
64
  9
$PINSBASE
 10
0.0
 20
0.0
 30
0.0
  9
$PLIMCHECK
 70
0
  9
$PEXTMIN
 10
1e+20
 20
1e+20
 30
1e+20
  9
$PEXTMAX
 10
-1e+20
 20
-1e+20
 30
-1e+20
  9
$PLIMMIN
 10
0.0
 20
0.0
  9
$PLIMMAX
 10
420.0
 20
297.0
  9
$UNITMODE
 70
0
  9
$VISRETAIN
 70
1
  9
$PLINEGEN
 70
0
  9
$PSLTSCALE
 70
1
  9
$TREEDEPTH
 70
3020
  9
$CMLSTYLE
  2
Standard
  9
$CMLJUST
 70
0
  9
$CMLSCALE
 40
20.0
  9
$PROXYGRAPHICS
 70
1
  9
$MEASUREMENT
 70
1
  9
$CELWEIGHT
370
-1
  9
$ENDCAPS
280
0
  9
$JOINSTYLE
280
0
  9
$LWDISPLAY
290
0
  9
$INSUNITS
 70
6
  9
$HYPERLINKBASE
  1

  9
$STYLESHEET
  1

  9
$XEDIT
290
1
  9
$CEPSNTYPE
380
0
  9
$PSTYLEMODE
290
1
  9
$FINGERPRINTGUID
  2
{59FEE82A-6138-43FE-A46F-6959D1381532}
  9
$VERSIONGUID
  2
{482FFE2B-7A9D-4CF7-A1D2-11236CEDF2E4}
  9
$EXTNAMES
290
1
  9
$PSVPSCALE
 40
0.0
  9
$OLESTARTUP
290
0
  9
$SORTENTS
280
127
  9
$INDEXCTL
280
0
  9
$HIDETEXT
280
1
  9
$XCLIPFRAME
280
0
  9
$HALOGAP
280
0
  9
$OBSCOLOR
 70
257
  9
$OBSLTYPE
280
0
  9
$INTERSECTIONDISPLAY
280
0
  9
$INTERSECTIONCOLOR
 70
257
  9
$DIMASSOC
280
2
  9
$PROJECTNAME
  1

  9
$CAMERADISPLAY
290
0
  9
$LENSLENGTH
 40
50.0
  9
$CAMERAHEIGHT
 40
0.0
  9
$STEPSPERSEC
 40
24.0
  9
$STEPSIZE
 40
100.0
  9
$3DDWFPREC
 40
2.0
  9
$PSOLWIDTH
 40
0.005
  9
$PSOLHEIGHT
 40
0.08
  9
$LOFTANG1
 40
1.570796326795
  9
$LOFTANG2
 40
1.570796326795
  9
$LOFTMAG1
 40
0.0
  9
$LOFTMAG2
 40
0.0
  9
$LOFTPARAM
 70
7
  9
$LOFTNORMALS
280
1
  9
$LATITUDE
 40
37.795
  9
$LONGITUDE
 40
-122.394
  9
$NORTHDIRECTION
 40
0.0
  9
$TIMEZONE
 70
-8000
  9
$LIGHTGLYPHDISPLAY
280
1
  9
$TILEMODELIGHTSYNCH
280
1
  9
$CMATERIAL
347
20
  9
$SOLIDHIST
280
0
  9
$SHOWHIST
280
1
  9
$DWFFRAME
280
2
  9
$DGNFRAME
280
2
  9
$REALWORLDSCALE
290
1
  9
$INTERFERECOLOR
 62
256
  9
$CSHADOW
280
0
  9
$SHADOWPLANELOCATION
 40
0.0
  0
ENDSEC
  0
SECTION
  2
CLASSES
  0
CLASS
  1
ACDBDICTIONARYWDFLT
  2
AcDbDictionaryWithDefault
  3
ObjectDBX Classes
 90
0
 91
0
280
0
281
0
  0
CLASS
  1
SUN
  2
AcDbSun
  3
SCENEOE
 90
1153
 91
0
280
0
281
0
  0
CLASS
  1
VISUALSTYLE
  2
AcDbVisualStyle
  3
ObjectDBX Classes
 90
4095
 91
0
280
0
281
0
  0
CLASS
  1
MATERIAL
  2
AcDbMaterial
  3
ObjectDBX Classes
 90
1153
 91
0
280
0
281
0
  0
CLASS
  1
SCALE
  2
AcDbScale
  3
ObjectDBX Classes
 90
1153
 91
0
280
0
281
0
  0
CLASS
  1
TABLESTYLE
  2
AcDbTableStyle
  3
ObjectDBX Classes
 90
4095
 91
0
280
0
281
0
  0
CLASS
  1
MLEADERSTYLE
  2
AcDbMLeaderStyle
  3
ACDB_MLEADERSTYLE_CLASS
 90
4095
 91
0
280
0
281
0
  0
CLASS
  1
DICTIONARYVAR
  2
AcDbDictionaryVar
  3
ObjectDBX Classes
 90
0
 91
0
280
0
281
0
  0
CLASS
  1
CELLSTYLEMAP
  2
AcDbCellStyleMap
  3
ObjectDBX Classes
 90
1152
 91
0
280
0
281
0
  0
CLASS
  1
MENTALRAYRENDERSETTINGS
  2
AcDbMentalRayRenderSettings
  3
SCENEOE
 90
1024
 91
0
280
0
281
0
  0
CLASS
  1
ACDBDETAILVIEWSTYLE
  2
AcDbDetailViewStyle
  3
ObjectDBX Classes
 90
1025
 91
0
280
0
281
0
  0
CLASS
  1
ACDBSECTIONVIEWSTYLE
  2
AcDbSectionViewStyle
  3
ObjectDBX Classes
 90
1025
 91
0
280
0
281
0
  0
CLASS
  1
RASTERVARIABLES
  2
AcDbRasterVariables
  3
ISM
 90
0
 91
0
280
0
281
0
  0
CLASS
  1
LAYOUT
  2
AcDbLayout
  3
ObjectDBX Classes
 90
0
 91
0
280
0
281
0
  0
CLASS
  1
ACDBPLACEHOLDER
  2
AcDbPlaceHolder
  3
ObjectDBX Classes
 90
0
 91
0
280
0
281
0
  0
ENDSEC
  0
SECTION
  2
TABLES
  0
TABLE
  2
VPORT
  5
8
330
0
100
AcDbSymbolTable
 70
1
  0
VPORT
  5
23
330
8
100
AcDbSymbolTableRecord
100
AcDbViewportTableRecord
  2
*Active
 70
0
 10
0.0
 20
0.0
 11
1.0
 21
1.0
 12
0.0
 22
0.0
 13
0.0
 23
0.0
 14
0.5
 24
0.5
 15
0.5
 25
0.5
 16
0.0
 26
0.0
 36
1.0
 17
0.0
 27
0.0
 37
0.0
 40
1000.0
 41
1.34
 42
50.0
 43
0.0
 44
0.0
 50
0.0
 51
0.0
 71
0
 72
1000
 73
1
 74
3
 75
0
 76
0
 77
0
 78
0
281
0
 65
0
146
0.0
  0
ENDTAB
  0
TABLE
  2
LTYPE
  5
2
330
0
100
AcDbSymbolTable
 70
3
  0
LTYPE
  5
24
330
2
100
AcDbSymbolTableRecord
100
AcDbLinetypeTableRecord
  2
ByBlock
 70
0
  3

 72
65
 73
0
 40
0.0
  0
LTYPE
  5
25
330
2
100
AcDbSymbolTableRecord
100
AcDbLinetypeTableRecord
  2
ByLayer
 70
0
  3

 72
65
 73
0
 40
0.0
  0
LTYPE
  5
26
330
2
100
AcDbSymbolTableRecord
100
AcDbLinetypeTableRecord
  2
Continuous
 70
0
  3

 72
65
 73
0
 40
0.0
  0
ENDTAB
  0
TABLE
  2
LAYER
  5
1
330
0
100
AcDbSymbolTable
 70
5
  0
LAYER
  5
27
330
1
100
AcDbSymbolTableRecord
100
AcDbLayerTableRecord
  2
0
 70
0
 62
7
  6
Continuous
370
-3
390
13
347
21
  0
LAYER
  5
28
330
1
100
AcDbSymbolTableRecord
100
AcDbLayerTableRecord
  2
Defpoints
 70
0
 62
7
  6
Continuous
290
0
370
-3
390
13
347
21
  0
LAYER
  5
30
330
1
100
AcDbSymbolTableRecord
100
AcDbLayerTableRecord
  2
FoilLayer
 70
0
 62
1
  6
Continuous
370
50
390
13
347
21
  0
LAYER
  5
31
330
1
100
AcDbSymbolTableRecord
100
AcDbLayerTableRecord
  2
StringerLayer
 70
0
 62
1
  6
Continuous
370
50
390
13
347
21
  0
LAYER
  5
32
330
1
100
AcDbSymbolTableRecord
100
AcDbLayerTableRecord
  2
SubLayer
 70
0
 62
1
  6
Continuous
370
50
390
13
347
21
  0
ENDTAB
  0
TABLE
  2
STYLE
  5
5
330
0
100
AcDbSymbolTable
 70
2
  0
STYLE
  5
29
330
5
100
AcDbSymbolTableRecord
100
AcDbTextStyleTableRecord
  2
Standard
 70
0
 40
0.0
 41
1.0
 50
0.0
 71
0
 42
2.5
  3
txt
  4

  0
STYLE
  5
2F
330
5
100
AcDbSymbolTableRecord
100
AcDbTextStyleTableRecord
  2
MSゴシック
 70
0
 40
0.0
 41
1.0
 50
0.0
 71
0
 42
2.5
  3
romans
  4

  0
ENDTAB
  0
TABLE
  2
VIEW
  5
7
330
0
100
AcDbSymbolTable
 70
0
  0
ENDTAB
  0
TABLE
  2
UCS
  5
6
330
0
100
AcDbSymbolTable
 70
0
  0
ENDTAB
  0
TABLE
  2
APPID
  5
3
330
0
100
AcDbSymbolTable
 70
3
  0
APPID
  5
2A
330
3
100
AcDbSymbolTableRecord
100
AcDbRegAppTableRecord
  2
ACAD
 70
0
  0
APPID
  5
1A7
330
3
100
AcDbSymbolTableRecord
100
AcDbRegAppTableRecord
  2
HATCHBACKGROUNDCOLOR
 70
0
  0
APPID
  5
1A8
330
3
100
AcDbSymbolTableRecord
100
AcDbRegAppTableRecord
  2
EZDXF
 70
0
  0
ENDTAB
  0
TABLE
  2
DIMSTYLE
  5
4
330
0
100
AcDbSymbolTable
 70
1
100
AcDbDimStyleTable
  0
DIMSTYLE
105
2B
330
4
100
AcDbSymbolTableRecord
100
AcDbDimStyleTableRecord
  2
Standard
 70
0
 40
1.0
 41
2.5
 42
0.625
 43
3.75
 44
1.25
 45
0.0
 46
0.0
 47
0.0
 48
0.0
 49
2.5
140
2.5
141
2.5
142
0.0
143
0.03937007874
144
1.0
145
0.0
146
1.0
147
0.625
148
0.0
 69
0
 70
0
 71
0
 72
0
 73
0
 74
0
 75
0
 76
0
 77
1
 78
8
 79
3
170
0
171
3
172
1
173
0
174
0
175
0
176
0
177
0
178
0
179
2
271
2
272
2
273
2
274
3
275
0
276
0
277
2
278
44
279
0
280
0
281
0
282
0
283
0
284
8
285
0
286
0
288
0
289
3
290
0
371
-2
372
-2
  0
ENDTAB
  0
TABLE
  2
BLOCK_RECORD
  5
9
330
0
100
AcDbSymbolTable
 70
2
  0
BLOCK_RECORD
  5
17
330
9
100
AcDbSymbolTableRecord
100
AcDbBlockTableRecord
  2
*Model_Space
340
1A
 70
0
280
1
281
0
  0
BLOCK_RECORD
  5
1B
330
9
100
AcDbSymbolTableRecord
100
AcDbBlockTableRecord
  2
*Paper_Space
340
1E
 70
0
280
1
281
0
  0
ENDTAB
  0
ENDSEC
  0
SECTION
  2
BLOCKS
  0
BLOCK
  5
18
330
17
100
AcDbEntity
  8
0
100
AcDbBlockBegin
  2
*Model_Space
 70
0
 10
0.0
 20
0.0
 30
0.0
  3
*Model_Space
  1

  0
ENDBLK
  5
19
330
17
100
AcDbEntity
  8
0
100
AcDbBlockEnd
  0
BLOCK
  5
1C
330
1B
100
AcDbEntity
  8
0
100
AcDbBlockBegin
  2
*Paper_Space
 70
0
 10
0.0
 20
0.0
 30
0.0
  3
*Paper_Space
  1

  0
ENDBLK
  5
1D
330
1B
100
AcDbEntity
  8
0
100
AcDbBlockEnd
  0
ENDSEC
  0
SECTION
  2
ENTITIES
  0
LINE
  5
33
330
17
100
AcDbEntity
  8
FoilLayer
100
AcDbLine
 10
249.9060463728762
 20
-0.1326969906785841
 30
0.0
 11
248.52663606220577
 21
0.1615348203056295
 31
0.0
  0
LINE
  5
34
330
17
100
AcDbEntity
  8
FoilLayer
100
AcDbLine
 10
248.52663606220577
 20
0.1615348203056295
 30
0.0
 11
246.31492820729758
 21
0.6408602370128611
 31
0.0
  0
LINE
  5
35
330
17
100
AcDbEntity
  8
FoilLayer
100
AcDbLine
 10
246.31492820729758
 20
0.6408602370128611
 30
0.0
 11
243.92579832815042
 21
1.1659697337168313
 31
0.0
  0
LINE
  5
36
330
17
100
AcDbEntity
  8
FoilLayer
100
AcDbLine
 10
243.92579832815042
 20
1.1659697337168313
 30
0.0
 11
241.357775592494
 21
1.728864029885783
 31
0.0
  0
LINE
  5
37
330
17
100
AcDbEntity
  8
FoilLayer
100
AcDbLine
 10
241.357775592494
 20
1.728864029885783
 30
0.0
 11
238.60979608410057
 21
2.3194226360889463
 31
0.0
  0
LINE
  5
38
330
17
100
AcDbEntity
  8
FoilLayer
100
AcDbLine
 10
238.60979608410057
 20
2.3194226360889463
 30
0.0
 11
235.69420434337755
 21
2.9470808071339674
 31
0.0
  0
LINE
  5
39
330
17
100
AcDbEntity
  8
FoilLayer
100
AcDbLine
 10
235.69420434337755
 20
2.9470808071339674
 30
0.0
 11
232.62916661455304
 21
3.6154177591120487
 31
0.0
  0
LINE
  5
3A
330
17
100
AcDbEntity
  8
FoilLayer
100
AcDbLine
 10
232.62916661455304
 20
3.6154177591120487
 30
0.0
 11
229.43268820642183
 21
4.3128057990809765
 31
0.0
  0
LINE
  5
3B
330
17
100
AcDbEntity
  8
FoilLayer
100
AcDbLine
 10
229.43268820642183
 20
4.3128057990809765
 30
0.0
 11
226.12126261425416
 21
5.021484771715317
 31
0.0
  0
LINE
  5
3C
330
17
100
AcDbEntity
  8
FoilLayer
100
AcDbLine
 10
226.12126261425416
 20
5.021484771715317
 30
0.0
 11
222.71379568037057
 21
5.73515952295824
 31
0.0
  0
LINE
  5
3D
330
17
100
AcDbEntity
  8
FoilLayer
100
AcDbLine
 10
222.71379568037057
 20
5.73515952295824
 30
0.0
 11
219.22656147695264
 21
6.453958281237876
 31
0.0
  0
LINE
  5
3E
330
17
100
AcDbEntity
  8
FoilLayer
100
AcDbLine
 10
219.22656147695264
 20
6.453958281237876
 30
0.0
 11
215.68504238396187
 21
7.1997417845289435
 31
0.0
  0
LINE
  5
3F
330
17
100
AcDbEntity
  8
FoilLayer
100
AcDbLine
 10
215.68504238396187
 20
7.1997417845289435
 30
0.0
 11
212.10032237152697
 21
7.960133308432256
 31
0.0
  0
LINE
  5
40
330
17
100
AcDbEntity
  8
FoilLayer
100
AcDbLine
 10
212.10032237152697
 20
7.960133308432256
 30
0.0
 11
208.4822607104625
 21
8.726983931572303
 31
0.0
  0
LINE
  5
41
330
17
100
AcDbEntity
  8
FoilLayer
100
AcDbLine
 10
208.4822607104625
 20
8.726983931572303
 30
0.0
 11
204.8383700227428
 21
9.491274227735058
 31
0.0
  0
LINE
  5
42
330
17
100
AcDbEntity
  8
FoilLayer
100
AcDbLine
 10
204.8383700227428
 20
9.491274227735058
 30
0.0
 11
201.17058452462757
 21
10.240595757050903
 31
0.0
  0
LINE
  5
43
330
17
100
AcDbEntity
  8
FoilLayer
100
AcDbLine
 10
201.17058452462757
 20
10.240595757050903
 30
0.0
 11
197.48293669589523
 21
10.98173101676865
 31
0.0
  0
LINE
  5
44
330
17
100
AcDbEntity
  8
FoilLayer
100
AcDbLine
 10
197.48293669589523
 20
10.98173101676865
 30
0.0
 11
193.78860259421023
 21
11.740042282849089
 31
0.0
  0
LINE
  5
45
330
17
100
AcDbEntity
  8
FoilLayer
100
AcDbLine
 10
193.78860259421023
 20
11.740042282849089
 30
0.0
 11
190.08853047978053
 21
12.505671082762001
 31
0.0
  0
LINE
  5
46
330
17
100
AcDbEntity
  8
FoilLayer
100
AcDbLine
 10
190.08853047978053
 20
12.505671082762001
 30
0.0
 11
186.38321073612283
 21
13.269929055649332
 31
0.0
  0
LINE
  5
47
330
17
100
AcDbEntity
  8
FoilLayer
100
AcDbLine
 10
186.38321073612283
 20
13.269929055649332
 30
0.0
 11
182.67232948457567
 21
14.023824508055656
 31
0.0
  0
LINE
  5
48
330
17
100
AcDbEntity
  8
FoilLayer
100
AcDbLine
 10
182.67232948457567
 20
14.023824508055656
 30
0.0
 11
178.95448125225315
 21
14.75852645231513
 31
0.0
  0
LINE
  5
49
330
17
100
AcDbEntity
  8
FoilLayer
100
AcDbLine
 10
178.95448125225315
 20
14.75852645231513
 30
0.0
 11
175.2269644029346
 21
15.474246720529365
 31
0.0
  0
LINE
  5
4A
330
17
100
AcDbEntity
  8
FoilLayer
100
AcDbLine
 10
175.2269644029346
 20
15.474246720529365
 30
0.0
 11
171.49814726814898
 21
16.199011250490333
 31
0.0
  0
LINE
  5
4B
330
17
100
AcDbEntity
  8
FoilLayer
100
AcDbLine
 10
171.49814726814898
 20
16.199011250490333
 30
0.0
 11
167.77462677337192
 21
16.94222742451792
 31
0.0
  0
LINE
  5
4C
330
17
100
AcDbEntity
  8
FoilLayer
100
AcDbLine
 10
167.77462677337192
 20
16.94222742451792
 30
0.0
 11
164.0523578131255
 21
17.683860908704972
 31
0.0
  0
LINE
  5
4D
330
17
100
AcDbEntity
  8
FoilLayer
100
AcDbLine
 10
164.0523578131255
 20
17.683860908704972
 30
0.0
 11
160.32847721236035
 21
18.412817481500216
 31
0.0
  0
LINE
  5
4E
330
17
100
AcDbEntity
  8
FoilLayer
100
AcDbLine
 10
160.32847721236035
 20
18.412817481500216
 30
0.0
 11
156.60061221070103
 21
19.11847946563555
 31
0.0
  0
LINE
  5
4F
330
17
100
AcDbEntity
  8
FoilLayer
100
AcDbLine
 10
156.60061221070103
 20
19.11847946563555
 30
0.0
 11
152.86631249406324
 21
19.795950800881354
 31
0.0
  0
LINE
  5
50
330
17
100
AcDbEntity
  8
FoilLayer
100
AcDbLine
 10
152.86631249406324
 20
19.795950800881354
 30
0.0
 11
149.92176658205918
 21
20.31578222135421
 31
0.0
  0
LINE
  5
51
330
17
100
AcDbEntity
  8
FoilLayer
100
AcDbLine
 10
149.92176658205918
 20
20.31578222135421
 30
0.0
 11
149.73922194019858
 21
19.28177184726313
 31
0.0
  0
LINE
  5
52
330
17
100
AcDbEntity
  8
FoilLayer
100
AcDbLine
 10
149.73922194019858
 20
19.28177184726313
 30
0.0
 11
148.9404609866256
 21
19.422791250488476
 31
0.0
  0
LINE
  5
53
330
17
100
AcDbEntity
  8
FoilLayer
100
AcDbLine
 10
148.9404609866256
 20
19.422791250488476
 30
0.0
 11
145.20017976023772
 21
20.093750814798018
 31
0.0
  0
LINE
  5
54
330
17
100
AcDbEntity
  8
FoilLayer
100
AcDbLine
 10
145.20017976023772
 20
20.093750814798018
 30
0.0
 11
141.46813376334856
 21
20.771816323201957
 31
0.0
  0
LINE
  5
55
330
17
100
AcDbEntity
  8
FoilLayer
100
AcDbLine
 10
141.46813376334856
 20
20.771816323201957
 30
0.0
 11
137.7388608943763
 21
21.442740939086065
 31
0.0
  0
LINE
  5
56
330
17
100
AcDbEntity
  8
FoilLayer
100
AcDbLine
 10
137.7388608943763
 20
21.442740939086065
 30
0.0
 11
134.01191365659938
 21
22.099207712849907
 31
0.0
  0
LINE
  5
57
330
17
100
AcDbEntity
  8
FoilLayer
100
AcDbLine
 10
134.01191365659938
 20
22.099207712849907
 30
0.0
 11
130.28327768656547
 21
22.731648505169346
 31
0.0
  0
LINE
  5
58
330
17
100
AcDbEntity
  8
FoilLayer
100
AcDbLine
 10
130.28327768656547
 20
22.731648505169346
 30
0.0
 11
126.54565646498551
 21
23.337975896037012
 31
0.0
  0
LINE
  5
59
330
17
100
AcDbEntity
  8
FoilLayer
100
AcDbLine
 10
126.54565646498551
 20
23.337975896037012
 30
0.0
 11
122.80062298416564
 21
23.93260253796136
 31
0.0
  0
LINE
  5
5A
330
17
100
AcDbEntity
  8
FoilLayer
100
AcDbLine
 10
122.80062298416564
 20
23.93260253796136
 30
0.0
 11
119.05909467373155
 21
24.530920696824804
 31
0.0
  0
LINE
  5
5B
330
17
100
AcDbEntity
  8
FoilLayer
100
AcDbLine
 10
119.05909467373155
 20
24.530920696824804
 30
0.0
 11
115.32616240327687
 21
25.129053837202562
 31
0.0
  0
LINE
  5
5C
330
17
100
AcDbEntity
  8
FoilLayer
100
AcDbLine
 10
115.32616240327687
 20
25.129053837202562
 30
0.0
 11
111.5947216652331
 21
25.711415687653005
 31
0.0
  0
LINE
  5
5D
330
17
100
AcDbEntity
  8
FoilLayer
100
AcDbLine
 10
111.5947216652331
 20
25.711415687653005
 30
0.0
 11
107.8651079178068
 21
26.272627332611275
 31
0.0
  0
LINE
  5
5E
330
17
100
AcDbEntity
  8
FoilLayer
100
AcDbLine
 10
107.8651079178068
 20
26.272627332611275
 30
0.0
 11
104.127391499313
 21
26.806367126126005
 31
0.0
  0
LINE
  5
5F
330
17
100
AcDbEntity
  8
FoilLayer
100
AcDbLine
 10
104.127391499313
 20
26.806367126126005
 30
0.0
 11
100.38753520343946
 21
27.327574899770138
 31
0.0
  0
LINE
  5
60
330
17
100
AcDbEntity
  8
FoilLayer
100
AcDbLine
 10
100.38753520343946
 20
27.327574899770138
 30
0.0
 11
96.64881993880383
 21
27.84201502853058
 31
0.0
  0
LINE
  5
61
330
17
100
AcDbEntity
  8
FoilLayer
100
AcDbLine
 10
96.64881993880383
 20
27.84201502853058
 30
0.0
 11
92.9145021615968
 21
28.350536974868785
 31
0.0
  0
LINE
  5
62
330
17
100
AcDbEntity
  8
FoilLayer
100
AcDbLine
 10
92.9145021615968
 20
28.350536974868785
 30
0.0
 11
89.18650213444931
 21
28.846796183834478
 31
0.0
  0
LINE
  5
63
330
17
100
AcDbEntity
  8
FoilLayer
100
AcDbLine
 10
89.18650213444931
 20
28.846796183834478
 30
0.0
 11
85.4592899044469
 21
29.31892228868591
 31
0.0
  0
LINE
  5
64
330
17
100
AcDbEntity
  8
FoilLayer
100
AcDbLine
 10
85.4592899044469
 20
29.31892228868591
 30
0.0
 11
81.73056601891795
 21
29.764835139309312
 31
0.0
  0
LINE
  5
65
330
17
100
AcDbEntity
  8
FoilLayer
100
AcDbLine
 10
81.73056601891795
 20
29.764835139309312
 30
0.0
 11
77.99803034883175
 21
30.189169871408748
 31
0.0
  0
LINE
  5
66
330
17
100
AcDbEntity
  8
FoilLayer
100
AcDbLine
 10
77.99803034883175
 20
30.189169871408748
 30
0.0
 11
74.26507905304197
 21
30.603867014744946
 31
0.0
  0
LINE
  5
67
330
17
100
AcDbEntity
  8
FoilLayer
100
AcDbLine
 10
74.26507905304197
 20
30.603867014744946
 30
0.0
 11
70.538310313919
 21
31.01544896490396
 31
0.0
  0
LINE
  5
68
330
17
100
AcDbEntity
  8
FoilLayer
100
AcDbLine
 10
70.538310313919
 20
31.01544896490396
 30
0.0
 11
66.81830393130213
 21
31.416545353072504
 31
0.0
  0
LINE
  5
69
330
17
100
AcDbEntity
  8
FoilLayer
100
AcDbLine
 10
66.81830393130213
 20
31.416545353072504
 30
0.0
 11
63.10184112768823
 21
31.797454301028292
 31
0.0
  0
LINE
  5
6A
330
17
100
AcDbEntity
  8
FoilLayer
100
AcDbLine
 10
63.10184112768823
 20
31.797454301028292
 30
0.0
 11
59.38622350099885
 21
32.15461424857277
 31
0.0
  0
LINE
  5
6B
330
17
100
AcDbEntity
  8
FoilLayer
100
AcDbLine
 10
59.38622350099885
 20
32.15461424857277
 30
0.0
 11
55.669663212708656
 21
32.491328270185946
 31
0.0
  0
LINE
  5
6C
330
17
100
AcDbEntity
  8
FoilLayer
100
AcDbLine
 10
55.669663212708656
 20
32.491328270185946
 30
0.0
 11
51.955798820726784
 21
32.81628959671027
 31
0.0
  0
LINE
  5
6D
330
17
100
AcDbEntity
  8
FoilLayer
100
AcDbLine
 10
51.955798820726784
 20
32.81628959671027
 30
0.0
 11
48.24624518621715
 21
33.13155132177671
 31
0.0
  0
LINE
  5
6E
330
17
100
AcDbEntity
  8
FoilLayer
100
AcDbLine
 10
48.24624518621715
 20
33.13155132177671
 30
0.0
 11
44.543160123961854
 21
33.436094923293446
 31
0.0
  0
LINE
  5
6F
330
17
100
AcDbEntity
  8
FoilLayer
100
AcDbLine
 10
44.543160123961854
 20
33.436094923293446
 30
0.0
 11
40.84787503021337
 21
33.72452306038741
 31
0.0
  0
LINE
  5
70
330
17
100
AcDbEntity
  8
FoilLayer
100
AcDbLine
 10
40.84787503021337
 20
33.72452306038741
 30
0.0
 11
37.15740949595107
 21
33.98958054244634
 31
0.0
  0
LINE
  5
71
330
17
100
AcDbEntity
  8
FoilLayer
100
AcDbLine
 10
37.15740949595107
 20
33.98958054244634
 30
0.0
 11
33.46998551156261
 21
34.231907622251775
 31
0.0
  0
LINE
  5
72
330
17
100
AcDbEntity
  8
FoilLayer
100
AcDbLine
 10
33.46998551156261
 20
34.231907622251775
 30
0.0
 11
29.787517457241478
 21
34.458569995358815
 31
0.0
  0
LINE
  5
73
330
17
100
AcDbEntity
  8
FoilLayer
100
AcDbLine
 10
29.787517457241478
 20
34.458569995358815
 30
0.0
 11
26.110913999992476
 21
34.67253867029053
 31
0.0
  0
LINE
  5
74
330
17
100
AcDbEntity
  8
FoilLayer
100
AcDbLine
 10
26.110913999992476
 20
34.67253867029053
 30
0.0
 11
22.443155147547174
 21
34.87413647942369
 31
0.0
  0
LINE
  5
75
330
17
100
AcDbEntity
  8
FoilLayer
100
AcDbLine
 10
22.443155147547174
 20
34.87413647942369
 30
0.0
 11
18.786109724639772
 21
35.058226667371905
 31
0.0
  0
LINE
  5
76
330
17
100
AcDbEntity
  8
FoilLayer
100
AcDbLine
 10
18.786109724639772
 20
35.058226667371905
 30
0.0
 11
15.143310318950654
 21
35.22155384558552
 31
0.0
  0
LINE
  5
77
330
17
100
AcDbEntity
  8
FoilLayer
100
AcDbLine
 10
15.143310318950654
 20
35.22155384558552
 30
0.0
 11
11.518342649737946
 21
35.3636486360302
 31
0.0
  0
LINE
  5
78
330
17
100
AcDbEntity
  8
FoilLayer
100
AcDbLine
 10
11.518342649737946
 20
35.3636486360302
 30
0.0
 11
7.911585440261973
 21
35.48472949574001
 31
0.0
  0
LINE
  5
79
330
17
100
AcDbEntity
  8
FoilLayer
100
AcDbLine
 10
7.911585440261973
 20
35.48472949574001
 30
0.0
 11
4.3220376876762145
 21
35.586649180702224
 31
0.0
  0
LINE
  5
7A
330
17
100
AcDbEntity
  8
FoilLayer
100
AcDbLine
 10
4.3220376876762145
 20
35.586649180702224
 30
0.0
 11
0.7474431672985418
 21
35.669528736782276
 31
0.0
  0
LINE
  5
7B
330
17
100
AcDbEntity
  8
FoilLayer
100
AcDbLine
 10
0.7474431672985418
 20
35.669528736782276
 30
0.0
 11
-2.81192835725534
 21
35.73346110770864
 31
0.0
  0
LINE
  5
7C
330
17
100
AcDbEntity
  8
FoilLayer
100
AcDbLine
 10
-2.81192835725534
 20
35.73346110770864
 30
0.0
 11
-6.359103338557077
 21
35.773099090961814
 31
0.0
  0
LINE
  5
7D
330
17
100
AcDbEntity
  8
FoilLayer
100
AcDbLine
 10
-6.359103338557077
 20
35.773099090961814
 30
0.0
 11
-9.897590326974637
 21
35.78673165879464
 31
0.0
  0
LINE
  5
7E
330
17
100
AcDbEntity
  8
FoilLayer
100
AcDbLine
 10
-9.897590326974637
 20
35.78673165879464
 30
0.0
 11
-13.42678195845565
 21
35.77909059166507
 31
0.0
  0
LINE
  5
7F
330
17
100
AcDbEntity
  8
FoilLayer
100
AcDbLine
 10
-13.42678195845565
 20
35.77909059166507
 30
0.0
 11
-16.945308320261546
 21
35.75261485003108
 31
0.0
  0
LINE
  5
80
330
17
100
AcDbEntity
  8
FoilLayer
100
AcDbLine
 10
-16.945308320261546
 20
35.75261485003108
 30
0.0
 11
-20.45163043445112
 21
35.70701068282427
 31
0.0
  0
LINE
  5
81
330
17
100
AcDbEntity
  8
FoilLayer
100
AcDbLine
 10
-20.45163043445112
 20
35.70701068282427
 30
0.0
 11
-23.94598001902756
 21
35.639127284478526
 31
0.0
  0
LINE
  5
82
330
17
100
AcDbEntity
  8
FoilLayer
100
AcDbLine
 10
-23.94598001902756
 20
35.639127284478526
 30
0.0
 11
-27.427875028464882
 21
35.547421285806564
 31
0.0
  0
LINE
  5
83
330
17
100
AcDbEntity
  8
FoilLayer
100
AcDbLine
 10
-27.427875028464882
 20
35.547421285806564
 30
0.0
 11
-30.897718014353188
 21
35.43023836589969
 31
0.0
  0
LINE
  5
84
330
17
100
AcDbEntity
  8
FoilLayer
100
AcDbLine
 10
-30.897718014353188
 20
35.43023836589969
 30
0.0
 11
-34.35569021028034
 21
35.28769717317445
 31
0.0
  0
LINE
  5
85
330
17
100
AcDbEntity
  8
FoilLayer
100
AcDbLine
 10
-34.35569021028034
 20
35.28769717317445
 30
0.0
 11
-37.80058475197744
 21
35.121971214422736
 31
0.0
  0
LINE
  5
86
330
17
100
AcDbEntity
  8
FoilLayer
100
AcDbLine
 10
-37.80058475197744
 20
35.121971214422736
 30
0.0
 11
-41.22973617382475
 21
34.934028037800445
 31
0.0
  0
LINE
  5
87
330
17
100
AcDbEntity
  8
FoilLayer
100
AcDbLine
 10
-41.22973617382475
 20
34.934028037800445
 30
0.0
 11
-44.64465291428834
 21
34.71967406647397
 31
0.0
  0
LINE
  5
88
330
17
100
AcDbEntity
  8
FoilLayer
100
AcDbLine
 10
-44.64465291428834
 20
34.71967406647397
 30
0.0
 11
-48.045602390390044
 21
34.481185655166435
 31
0.0
  0
LINE
  5
89
330
17
100
AcDbEntity
  8
FoilLayer
100
AcDbLine
 10
-48.045602390390044
 20
34.481185655166435
 30
0.0
 11
-51.42453437187967
 21
34.223390195325806
 31
0.0
  0
LINE
  5
8A
330
17
100
AcDbEntity
  8
FoilLayer
100
AcDbLine
 10
-51.42453437187967
 20
34.223390195325806
 30
0.0
 11
-54.79029200646305
 21
33.93397307137402
 31
0.0
  0
LINE
  5
8B
330
17
100
AcDbEntity
  8
FoilLayer
100
AcDbLine
 10
-54.79029200646305
 20
33.93397307137402
 30
0.0
 11
-58.13112635719227
 21
33.62783633430154
 31
0.0
  0
LINE
  5
8C
330
17
100
AcDbEntity
  8
FoilLayer
100
AcDbLine
 10
-58.13112635719227
 20
33.62783633430154
 30
0.0
 11
-61.44833137115407
 21
33.29079400865137
 31
0.0
  0
LINE
  5
8D
330
17
100
AcDbEntity
  8
FoilLayer
100
AcDbLine
 10
-61.44833137115407
 20
33.29079400865137
 30
0.0
 11
-64.74879710327025
 21
32.91862691822428
 31
0.0
  0
LINE
  5
8E
330
17
100
AcDbEntity
  8
FoilLayer
100
AcDbLine
 10
-64.74879710327025
 20
32.91862691822428
 30
0.0
 11
-68.02451503115776
 21
32.528572299174925
 31
0.0
  0
LINE
  5
8F
330
17
100
AcDbEntity
  8
FoilLayer
100
AcDbLine
 10
-68.02451503115776
 20
32.528572299174925
 30
0.0
 11
-71.2697551972966
 21
32.11998957144807
 31
0.0
  0
LINE
  5
90
330
17
100
AcDbEntity
  8
FoilLayer
100
AcDbLine
 10
-71.2697551972966
 20
32.11998957144807
 30
0.0
 11
-74.48130538803606
 21
31.68444064482419
 31
0.0
  0
LINE
  5
91
330
17
100
AcDbEntity
  8
FoilLayer
100
AcDbLine
 10
-74.48130538803606
 20
31.68444064482419
 30
0.0
 11
-77.65746267598813
 21
31.214708322808985
 31
0.0
  0
LINE
  5
92
330
17
100
AcDbEntity
  8
FoilLayer
100
AcDbLine
 10
-77.65746267598813
 20
31.214708322808985
 30
0.0
 11
-80.80062227606184
 21
30.70779133809054
 31
0.0
  0
LINE
  5
93
330
17
100
AcDbEntity
  8
FoilLayer
100
AcDbLine
 10
-80.80062227606184
 20
30.70779133809054
 30
0.0
 11
-83.91072120151291
 21
30.174382568455528
 31
0.0
  0
LINE
  5
94
330
17
100
AcDbEntity
  8
FoilLayer
100
AcDbLine
 10
-83.91072120151291
 20
30.174382568455528
 30
0.0
 11
-86.9779001682885
 21
29.631216934381705
 31
0.0
  0
LINE
  5
95
330
17
100
AcDbEntity
  8
FoilLayer
100
AcDbLine
 10
-86.9779001682885
 20
29.631216934381705
 30
0.0
 11
-89.98699729669228
 21
29.078404090129307
 31
0.0
  0
LINE
  5
96
330
17
100
AcDbEntity
  8
FoilLayer
100
AcDbLine
 10
-89.98699729669228
 20
29.078404090129307
 30
0.0
 11
-92.93815203557443
 21
28.49290052340431
 31
0.0
  0
LINE
  5
97
330
17
100
AcDbEntity
  8
FoilLayer
100
AcDbLine
 10
-92.93815203557443
 20
28.49290052340431
 30
0.0
 11
-95.82576644318416
 21
27.872980757210616
 31
0.0
  0
LINE
  5
98
330
17
100
AcDbEntity
  8
FoilLayer
100
AcDbLine
 10
-95.82576644318416
 20
27.872980757210616
 30
0.0
 11
-98.649724513118
 21
27.21834906197482
 31
0.0
  0
LINE
  5
99
330
17
100
AcDbEntity
  8
FoilLayer
100
AcDbLine
 10
-98.649724513118
 20
27.21834906197482
 30
0.0
 11
-101.40493088189936
 21
26.542342963185853
 31
0.0
  0
LINE
  5
9A
330
17
100
AcDbEntity
  8
FoilLayer
100
AcDbLine
 10
-101.40493088189936
 20
26.542342963185853
 30
0.0
 11
-104.085673361745
 21
25.85768168943649
 31
0.0
  0
LINE
  5
9B
330
17
100
AcDbEntity
  8
FoilLayer
100
AcDbLine
 10
-104.085673361745
 20
25.85768168943649
 30
0.0
 11
-106.68286973063084
 21
25.174746483624887
 31
0.0
  0
LINE
  5
9C
330
17
100
AcDbEntity
  8
FoilLayer
100
AcDbLine
 10
-106.68286973063084
 20
25.174746483624887
 30
0.0
 11
-109.1805043131147
 21
24.49637116878763
 31
0.0
  0
LINE
  5
9D
330
17
100
AcDbEntity
  8
FoilLayer
100
AcDbLine
 10
-109.1805043131147
 20
24.49637116878763
 30
0.0
 11
-111.57762912996202
 21
23.80426062642129
 31
0.0
  0
LINE
  5
9E
330
17
100
AcDbEntity
  8
FoilLayer
100
AcDbLine
 10
-111.57762912996202
 20
23.80426062642129
 30
0.0
 11
-113.86958535143721
 21
23.099599775375747
 31
0.0
  0
LINE
  5
9F
330
17
100
AcDbEntity
  8
FoilLayer
100
AcDbLine
 10
-113.86958535143721
 20
23.099599775375747
 30
0.0
 11
-116.05660152304519
 21
22.383742538417952
 31
0.0
  0
LINE
  5
A0
330
17
100
AcDbEntity
  8
FoilLayer
100
AcDbLine
 10
-116.05660152304519
 20
22.383742538417952
 30
0.0
 11
-118.13836552769698
 21
21.665129862215732
 31
0.0
  0
LINE
  5
A1
330
17
100
AcDbEntity
  8
FoilLayer
100
AcDbLine
 10
-118.13836552769698
 20
21.665129862215732
 30
0.0
 11
-120.11493172224709
 21
20.951854758030255
 31
0.0
  0
LINE
  5
A2
330
17
100
AcDbEntity
  8
FoilLayer
100
AcDbLine
 10
-120.11493172224709
 20
20.951854758030255
 30
0.0
 11
-121.9874562213873
 21
20.249632166578674
 31
0.0
  0
LINE
  5
A3
330
17
100
AcDbEntity
  8
FoilLayer
100
AcDbLine
 10
-121.9874562213873
 20
20.249632166578674
 30
0.0
 11
-123.7560246400298
 21
19.56343220755451
 31
0.0
  0
LINE
  5
A4
330
17
100
AcDbEntity
  8
FoilLayer
100
AcDbLine
 10
-123.7560246400298
 20
19.56343220755451
 30
0.0
 11
-125.42434295927742
 21
18.893562784814197
 31
0.0
  0
LINE
  5
A5
330
17
100
AcDbEntity
  8
FoilLayer
100
AcDbLine
 10
-125.42434295927742
 20
18.893562784814197
 30
0.0
 11
-126.99232101012394
 21
18.24321655881318
 31
0.0
  0
LINE
  5
A6
330
17
100
AcDbEntity
  8
FoilLayer
100
AcDbLine
 10
-126.99232101012394
 20
18.24321655881318
 30
0.0
 11
-128.4596870909488
 21
17.609952060805934
 31
0.0
  0
LINE
  5
A7
330
17
100
AcDbEntity
  8
FoilLayer
100
AcDbLine
 10
-128.4596870909488
 20
17.609952060805934
 30
0.0
 11
-129.8340333508073
 21
16.98512877586154
 31
0.0
  0
LINE
  5
A8
330
17
100
AcDbEntity
  8
FoilLayer
100
AcDbLine
 10
-129.8340333508073
 20
16.98512877586154
 30
0.0
 11
-131.12553035547944
 21
16.365641760686607
 31
0.0
  0
LINE
  5
A9
330
17
100
AcDbEntity
  8
FoilLayer
100
AcDbLine
 10
-131.12553035547944
 20
16.365641760686607
 30
0.0
 11
-132.33848559701158
 21
15.756950785256683
 31
0.0
  0
LINE
  5
AA
330
17
100
AcDbEntity
  8
FoilLayer
100
AcDbLine
 10
-132.33848559701158
 20
15.756950785256683
 30
0.0
 11
-133.4766893829663
 21
15.161450862308238
 31
0.0
  0
LINE
  5
AB
330
17
100
AcDbEntity
  8
FoilLayer
100
AcDbLine
 10
-133.4766893829663
 20
15.161450862308238
 30
0.0
 11
-134.54589255231528
 21
14.577984476238706
 31
0.0
  0
LINE
  5
AC
330
17
100
AcDbEntity
  8
FoilLayer
100
AcDbLine
 10
-134.54589255231528
 20
14.577984476238706
 30
0.0
 11
-135.5519980886646
 21
14.006150324446985
 31
0.0
  0
LINE
  5
AD
330
17
100
AcDbEntity
  8
FoilLayer
100
AcDbLine
 10
-135.5519980886646
 20
14.006150324446985
 30
0.0
 11
-136.500400306951
 21
13.446455786713988
 31
0.0
  0
LINE
  5
AE
330
17
100
AcDbEntity
  8
FoilLayer
100
AcDbLine
 10
-136.500400306951
 20
13.446455786713988
 30
0.0
 11
-137.39577713152775
 21
12.899689799956215
 31
0.0
  0
LINE
  5
AF
330
17
100
AcDbEntity
  8
FoilLayer
100
AcDbLine
 10
-137.39577713152775
 20
12.899689799956215
 30
0.0
 11
-138.2394099438035
 21
12.368261480351741
 31
0.0
  0
LINE
  5
B0
330
17
100
AcDbEntity
  8
FoilLayer
100
AcDbLine
 10
-138.2394099438035
 20
12.368261480351741
 30
0.0
 11
-139.03631982406745
 21
11.848916385917189
 31
0.0
  0
LINE
  5
B1
330
17
100
AcDbEntity
  8
FoilLayer
100
AcDbLine
 10
-139.03631982406745
 20
11.848916385917189
 30
0.0
 11
-139.7812087862303
 21
11.347297423577258
 31
0.0
  0
LINE
  5
B2
330
17
100
AcDbEntity
  8
FoilLayer
100
AcDbLine
 10
-139.7812087862303
 20
11.347297423577258
 30
0.0
 11
-140.48606097935007
 21
10.850781158901933
 31
0.0
  0
LINE
  5
B3
330
17
100
AcDbEntity
  8
FoilLayer
100
AcDbLine
 10
-140.48606097935007
 20
10.850781158901933
 30
0.0
 11
-141.14775694935614
 21
10.365451124069109
 31
0.0
  0
LINE
  5
B4
330
17
100
AcDbEntity
  8
FoilLayer
100
AcDbLine
 10
-141.14775694935614
 20
10.365451124069109
 30
0.0
 11
-141.77774099927504
 21
9.881148923226515
 31
0.0
  0
LINE
  5
B5
330
17
100
AcDbEntity
  8
FoilLayer
100
AcDbLine
 10
-141.77774099927504
 20
9.881148923226515
 30
0.0
 11
-142.3664773957973
 21
9.411675528662059
 31
0.0
  0
LINE
  5
B6
330
17
100
AcDbEntity
  8
FoilLayer
100
AcDbLine
 10
-142.3664773957973
 20
9.411675528662059
 30
0.0
 11
-142.92487458809865
 21
8.944586282869418
 31
0.0
  0
LINE
  5
B7
330
17
100
AcDbEntity
  8
FoilLayer
100
AcDbLine
 10
-142.92487458809865
 20
8.944586282869418
 30
0.0
 11
-143.43922141721646
 21
8.496817890377258
 31
0.0
  0
LINE
  5
B8
330
17
100
AcDbEntity
  8
FoilLayer
100
AcDbLine
 10
-143.43922141721646
 20
8.496817890377258
 30
0.0
 11
-143.936363032434
 21
8.035489997518596
 31
0.0
  0
LINE
  5
B9
330
17
100
AcDbEntity
  8
FoilLayer
100
AcDbLine
 10
-143.936363032434
 20
8.035489997518596
 30
0.0
 11
-144.39817206939767
 21
7.589656678268601
 31
0.0
  0
LINE
  5
BA
330
17
100
AcDbEntity
  8
FoilLayer
100
AcDbLine
 10
-144.39817206939767
 20
7.589656678268601
 30
0.0
 11
-144.83102914884438
 21
7.148640709549986
 31
0.0
  0
LINE
  5
BB
330
17
100
AcDbEntity
  8
FoilLayer
100
AcDbLine
 10
-144.83102914884438
 20
7.148640709549986
 30
0.0
 11
-145.2377410486666
 21
6.709958756326536
 31
0.0
  0
LINE
  5
BC
330
17
100
AcDbEntity
  8
FoilLayer
100
AcDbLine
 10
-145.2377410486666
 20
6.709958756326536
 30
0.0
 11
-145.61857381097752
 21
6.275609344345338
 31
0.0
  0
LINE
  5
BD
330
17
100
AcDbEntity
  8
FoilLayer
100
AcDbLine
 10
-145.61857381097752
 20
6.275609344345338
 30
0.0
 11
-145.97222560402062
 21
5.8485709051534585
 31
0.0
  0
LINE
  5
BE
330
17
100
AcDbEntity
  8
FoilLayer
100
AcDbLine
 10
-145.97222560402062
 20
5.8485709051534585
 30
0.0
 11
-146.302278290317
 21
5.422971446941916
 31
0.0
  0
LINE
  5
BF
330
17
100
AcDbEntity
  8
FoilLayer
100
AcDbLine
 10
-146.302278290317
 20
5.422971446941916
 30
0.0
 11
-146.6075597617846
 21
5.002867079963872
 31
0.0
  0
LINE
  5
C0
330
17
100
AcDbEntity
  8
FoilLayer
100
AcDbLine
 10
-146.6075597617846
 20
5.002867079963872
 30
0.0
 11
-146.88992142879619
 21
4.587121006945969
 31
0.0
  0
LINE
  5
C1
330
17
100
AcDbEntity
  8
FoilLayer
100
AcDbLine
 10
-146.88992142879619
 20
4.587121006945969
 30
0.0
 11
-147.15200377957476
 21
4.173044340475952
 31
0.0
  0
LINE
  5
C2
330
17
100
AcDbEntity
  8
FoilLayer
100
AcDbLine
 10
-147.15200377957476
 20
4.173044340475952
 30
0.0
 11
-147.39516309672123
 21
3.760355278570722
 31
0.0
  0
LINE
  5
C3
330
17
100
AcDbEntity
  8
FoilLayer
100
AcDbLine
 10
-147.39516309672123
 20
3.760355278570722
 30
0.0
 11
-147.62023851680817
 21
3.349186435268903
 31
0.0
  0
LINE
  5
C4
330
17
100
AcDbEntity
  8
FoilLayer
100
AcDbLine
 10
-147.62023851680817
 20
3.349186435268903
 30
0.0
 11
-147.81964434995396
 21
2.9576078465598465
 31
0.0
  0
LINE
  5
C5
330
17
100
AcDbEntity
  8
FoilLayer
100
AcDbLine
 10
-147.81964434995396
 20
2.9576078465598465
 30
0.0
 11
-147.98780661456695
 21
2.592469041903695
 31
0.0
  0
LINE
  5
C6
330
17
100
AcDbEntity
  8
FoilLayer
100
AcDbLine
 10
-147.98780661456695
 20
2.592469041903695
 30
0.0
 11
-148.12212352481447
 21
2.2492793243115674
 31
0.0
  0
LINE
  5
C7
330
17
100
AcDbEntity
  8
FoilLayer
100
AcDbLine
 10
-148.12212352481447
 20
2.2492793243115674
 30
0.0
 11
-148.23002031867992
 21
1.8905418538081555
 31
0.0
  0
LINE
  5
C8
330
17
100
AcDbEntity
  8
FoilLayer
100
AcDbLine
 10
-148.23002031867992
 20
1.8905418538081555
 30
0.0
 11
-148.31613049041155
 21
1.505616623237412
 31
0.0
  0
LINE
  5
C9
330
17
100
AcDbEntity
  8
FoilLayer
100
AcDbLine
 10
-148.31613049041155
 20
1.505616623237412
 30
0.0
 11
-148.3852380945347
 21
1.107060059281805
 31
0.0
  0
LINE
  5
CA
330
17
100
AcDbEntity
  8
FoilLayer
100
AcDbLine
 10
-148.3852380945347
 20
1.107060059281805
 30
0.0
 11
-148.44355567680256
 21
0.6899247831263314
 31
0.0
  0
LINE
  5
CB
330
17
100
AcDbEntity
  8
FoilLayer
100
AcDbLine
 10
-148.44355567680256
 20
0.6899247831263314
 30
0.0
 11
-148.4833252682179
 21
0.3783714574107504
 31
0.0
  0
LINE
  5
CC
330
17
100
AcDbEntity
  8
FoilLayer
100
AcDbLine
 10
-148.4833252682179
 20
0.3783714574107504
 30
0.0
 11
-148.49999999999946
 21
0.0
 31
0.0
  0
LINE
  5
CD
330
17
100
AcDbEntity
  8
FoilLayer
100
AcDbLine
 10
-148.49999999999946
 20
0.0
 30
0.0
 11
-148.46505316192096
 21
-0.2720716926527957
 31
0.0
  0
LINE
  5
CE
330
17
100
AcDbEntity
  8
FoilLayer
100
AcDbLine
 10
-148.46505316192096
 20
-0.2720716926527957
 30
0.0
 11
-148.42468608405176
 21
-0.6639014778534048
 31
0.0
  0
LINE
  5
CF
330
17
100
AcDbEntity
  8
FoilLayer
100
AcDbLine
 10
-148.42468608405176
 20
-0.6639014778534048
 30
0.0
 11
-148.37868351832597
 21
-1.0317564176558833
 31
0.0
  0
LINE
  5
D0
330
17
100
AcDbEntity
  8
FoilLayer
100
AcDbLine
 10
-148.37868351832597
 20
-1.0317564176558833
 30
0.0
 11
-148.31808851082948
 21
-1.3807663900743072
 31
0.0
  0
LINE
  5
D1
330
17
100
AcDbEntity
  8
FoilLayer
100
AcDbLine
 10
-148.31808851082948
 20
-1.3807663900743072
 30
0.0
 11
-148.23762652884488
 21
-1.7183286927951142
 31
0.0
  0
LINE
  5
D2
330
17
100
AcDbEntity
  8
FoilLayer
100
AcDbLine
 10
-148.23762652884488
 20
-1.7183286927951142
 30
0.0
 11
-148.13203916555807
 21
-2.048835118337559
 31
0.0
  0
LINE
  5
D3
330
17
100
AcDbEntity
  8
FoilLayer
100
AcDbLine
 10
-148.13203916555807
 20
-2.048835118337559
 30
0.0
 11
-147.99015506297
 21
-2.38821717201366
 31
0.0
  0
LINE
  5
D4
330
17
100
AcDbEntity
  8
FoilLayer
100
AcDbLine
 10
-147.99015506297
 20
-2.38821717201366
 30
0.0
 11
-147.8243690018322
 21
-2.7158432605587146
 31
0.0
  0
LINE
  5
D5
330
17
100
AcDbEntity
  8
FoilLayer
100
AcDbLine
 10
-147.8243690018322
 20
-2.7158432605587146
 30
0.0
 11
-147.60902326471955
 21
-3.058972120101556
 31
0.0
  0
LINE
  5
D6
330
17
100
AcDbEntity
  8
FoilLayer
100
AcDbLine
 10
-147.60902326471955
 20
-3.058972120101556
 30
0.0
 11
-147.36201115930072
 21
-3.4054773466293122
 31
0.0
  0
LINE
  5
D7
330
17
100
AcDbEntity
  8
FoilLayer
100
AcDbLine
 10
-147.36201115930072
 20
-3.4054773466293122
 30
0.0
 11
-147.0825130666973
 21
-3.7563683345333687
 31
0.0
  0
LINE
  5
D8
330
17
100
AcDbEntity
  8
FoilLayer
100
AcDbLine
 10
-147.0825130666973
 20
-3.7563683345333687
 30
0.0
 11
-146.7805286295036
 21
-4.104358702676528
 31
0.0
  0
LINE
  5
D9
330
17
100
AcDbEntity
  8
FoilLayer
100
AcDbLine
 10
-146.7805286295036
 20
-4.104358702676528
 30
0.0
 11
-146.46136648428916
 21
-4.443701782597065
 31
0.0
  0
LINE
  5
DA
330
17
100
AcDbEntity
  8
FoilLayer
100
AcDbLine
 10
-146.46136648428916
 20
-4.443701782597065
 30
0.0
 11
-146.11347308446148
 21
-4.780271608178951
 31
0.0
  0
LINE
  5
DB
330
17
100
AcDbEntity
  8
FoilLayer
100
AcDbLine
 10
-146.11347308446148
 20
-4.780271608178951
 30
0.0
 11
-145.73670466883556
 21
-5.113965785703741
 31
0.0
  0
LINE
  5
DC
330
17
100
AcDbEntity
  8
FoilLayer
100
AcDbLine
 10
-145.73670466883556
 20
-5.113965785703741
 30
0.0
 11
-145.33238719834546
 21
-5.44397677101445
 31
0.0
  0
LINE
  5
DD
330
17
100
AcDbEntity
  8
FoilLayer
100
AcDbLine
 10
-145.33238719834546
 20
-5.44397677101445
 30
0.0
 11
-144.90780354041945
 21
-5.7653181789374255
 31
0.0
  0
LINE
  5
DE
330
17
100
AcDbEntity
  8
FoilLayer
100
AcDbLine
 10
-144.90780354041945
 20
-5.7653181789374255
 30
0.0
 11
-144.44801735990634
 21
-6.083687052446263
 31
0.0
  0
LINE
  5
DF
330
17
100
AcDbEntity
  8
FoilLayer
100
AcDbLine
 10
-144.44801735990634
 20
-6.083687052446263
 30
0.0
 11
-143.9570639757459
 21
-6.399212100720207
 31
0.0
  0
LINE
  5
E0
330
17
100
AcDbEntity
  8
FoilLayer
100
AcDbLine
 10
-143.9570639757459
 20
-6.399212100720207
 30
0.0
 11
-143.43694719076623
 21
-6.711580329442466
 31
0.0
  0
LINE
  5
E1
330
17
100
AcDbEntity
  8
FoilLayer
100
AcDbLine
 10
-143.43694719076623
 20
-6.711580329442466
 30
0.0
 11
-142.8869147734727
 21
-7.021263462670204
 31
0.0
  0
LINE
  5
E2
330
17
100
AcDbEntity
  8
FoilLayer
100
AcDbLine
 10
-142.8869147734727
 20
-7.021263462670204
 30
0.0
 11
-142.30408439051294
 21
-7.32973221980145
 31
0.0
  0
LINE
  5
E3
330
17
100
AcDbEntity
  8
FoilLayer
100
AcDbLine
 10
-142.30408439051294
 20
-7.32973221980145
 30
0.0
 11
-141.68899910300587
 21
-7.637647350610395
 31
0.0
  0
LINE
  5
E4
330
17
100
AcDbEntity
  8
FoilLayer
100
AcDbLine
 10
-141.68899910300587
 20
-7.637647350610395
 30
0.0
 11
-141.04375394732227
 21
-7.9442677527269385
 31
0.0
  0
LINE
  5
E5
330
17
100
AcDbEntity
  8
FoilLayer
100
AcDbLine
 10
-141.04375394732227
 20
-7.9442677527269385
 30
0.0
 11
-140.36735575096563
 21
-8.248409189263143
 31
0.0
  0
LINE
  5
E6
330
17
100
AcDbEntity
  8
FoilLayer
100
AcDbLine
 10
-140.36735575096563
 20
-8.248409189263143
 30
0.0
 11
-139.65413586714226
 21
-8.550037914419878
 31
0.0
  0
LINE
  5
E7
330
17
100
AcDbEntity
  8
FoilLayer
100
AcDbLine
 10
-139.65413586714226
 20
-8.550037914419878
 30
0.0
 11
-138.9012102424982
 21
-8.849446678810228
 31
0.0
  0
LINE
  5
E8
330
17
100
AcDbEntity
  8
FoilLayer
100
AcDbLine
 10
-138.9012102424982
 20
-8.849446678810228
 30
0.0
 11
-138.10410494790142
 21
-9.147665818947274
 31
0.0
  0
LINE
  5
E9
330
17
100
AcDbEntity
  8
FoilLayer
100
AcDbLine
 10
-138.10410494790142
 20
-9.147665818947274
 30
0.0
 11
-137.2615944871039
 21
-9.44579285185793
 31
0.0
  0
LINE
  5
EA
330
17
100
AcDbEntity
  8
FoilLayer
100
AcDbLine
 10
-137.2615944871039
 20
-9.44579285185793
 30
0.0
 11
-136.3723914243222
 21
-9.74446123556994
 31
0.0
  0
LINE
  5
EB
330
17
100
AcDbEntity
  8
FoilLayer
100
AcDbLine
 10
-136.3723914243222
 20
-9.74446123556994
 30
0.0
 11
-135.43349053553422
 21
-10.043905998543577
 31
0.0
  0
LINE
  5
EC
330
17
100
AcDbEntity
  8
FoilLayer
100
AcDbLine
 10
-135.43349053553422
 20
-10.043905998543577
 30
0.0
 11
-134.44180726446962
 21
-10.343857163586353
 31
0.0
  0
LINE
  5
ED
330
17
100
AcDbEntity
  8
FoilLayer
100
AcDbLine
 10
-134.44180726446962
 20
-10.343857163586353
 30
0.0
 11
-133.3937188552392
 21
-10.643402191148818
 31
0.0
  0
LINE
  5
EE
330
17
100
AcDbEntity
  8
FoilLayer
100
AcDbLine
 10
-133.3937188552392
 20
-10.643402191148818
 30
0.0
 11
-132.28446711230814
 21
-10.941169533511953
 31
0.0
  0
LINE
  5
EF
330
17
100
AcDbEntity
  8
FoilLayer
100
AcDbLine
 10
-132.28446711230814
 20
-10.941169533511953
 30
0.0
 11
-131.1081490286718
 21
-11.235602020347137
 31
0.0
  0
LINE
  5
F0
330
17
100
AcDbEntity
  8
FoilLayer
100
AcDbLine
 10
-131.1081490286718
 20
-11.235602020347137
 30
0.0
 11
-129.8563804499585
 21
-11.525749120158594
 31
0.0
  0
LINE
  5
F1
330
17
100
AcDbEntity
  8
FoilLayer
100
AcDbLine
 10
-129.8563804499585
 20
-11.525749120158594
 30
0.0
 11
-128.51640465361183
 21
-11.813750338620599
 31
0.0
  0
LINE
  5
F2
330
17
100
AcDbEntity
  8
FoilLayer
100
AcDbLine
 10
-128.51640465361183
 20
-11.813750338620599
 30
0.0
 11
-127.08984662493174
 21
-12.10620965096944
 31
0.0
  0
LINE
  5
F3
330
17
100
AcDbEntity
  8
FoilLayer
100
AcDbLine
 10
-127.08984662493174
 20
-12.10620965096944
 30
0.0
 11
-125.58296617490583
 21
-12.403656053169842
 31
0.0
  0
LINE
  5
F4
330
17
100
AcDbEntity
  8
FoilLayer
100
AcDbLine
 10
-125.58296617490583
 20
-12.403656053169842
 30
0.0
 11
-123.9792718666622
 21
-12.697950313867395
 31
0.0
  0
LINE
  5
F5
330
17
100
AcDbEntity
  8
FoilLayer
100
AcDbLine
 10
-123.9792718666622
 20
-12.697950313867395
 30
0.0
 11
-122.26961641435547
 21
-12.987920519049027
 31
0.0
  0
LINE
  5
F6
330
17
100
AcDbEntity
  8
FoilLayer
100
AcDbLine
 10
-122.26961641435547
 20
-12.987920519049027
 30
0.0
 11
-120.45330803453791
 21
-13.274181271645856
 31
0.0
  0
LINE
  5
F7
330
17
100
AcDbEntity
  8
FoilLayer
100
AcDbLine
 10
-120.45330803453791
 20
-13.274181271645856
 30
0.0
 11
-118.52389204401635
 21
-13.552324740780861
 31
0.0
  0
LINE
  5
F8
330
17
100
AcDbEntity
  8
FoilLayer
100
AcDbLine
 10
-118.52389204401635
 20
-13.552324740780861
 30
0.0
 11
-116.47492705761377
 21
-13.818354215439433
 31
0.0
  0
LINE
  5
F9
330
17
100
AcDbEntity
  8
FoilLayer
100
AcDbLine
 10
-116.47492705761377
 20
-13.818354215439433
 30
0.0
 11
-114.29986007213459
 21
-14.070597727298154
 31
0.0
  0
LINE
  5
FA
330
17
100
AcDbEntity
  8
FoilLayer
100
AcDbLine
 10
-114.29986007213459
 20
-14.070597727298154
 30
0.0
 11
-111.98830808029453
 21
-14.313607287195063
 31
0.0
  0
LINE
  5
FB
330
17
100
AcDbEntity
  8
FoilLayer
100
AcDbLine
 10
-111.98830808029453
 20
-14.313607287195063
 30
0.0
 11
-109.56047223310902
 21
-14.565190112064233
 31
0.0
  0
LINE
  5
FC
330
17
100
AcDbEntity
  8
FoilLayer
100
AcDbLine
 10
-109.56047223310902
 20
-14.565190112064233
 30
0.0
 11
-107.02190829744453
 21
-14.816445883646145
 31
0.0
  0
LINE
  5
FD
330
17
100
AcDbEntity
  8
FoilLayer
100
AcDbLine
 10
-107.02190829744453
 20
-14.816445883646145
 30
0.0
 11
-104.36884899272665
 21
-15.050997061775247
 31
0.0
  0
LINE
  5
FE
330
17
100
AcDbEntity
  8
FoilLayer
100
AcDbLine
 10
-104.36884899272665
 20
-15.050997061775247
 30
0.0
 11
-101.60182353148002
 21
-15.261821205161244
 31
0.0
  0
LINE
  5
FF
330
17
100
AcDbEntity
  8
FoilLayer
100
AcDbLine
 10
-101.60182353148002
 20
-15.261821205161244
 30
0.0
 11
-98.72798772344464
 21
-15.449722937188103
 31
0.0
  0
LINE
  5
100
330
17
100
AcDbEntity
  8
FoilLayer
100
AcDbLine
 10
-98.72798772344464
 20
-15.449722937188103
 30
0.0
 11
-95.75648658006469
 21
-15.6157390721677
 31
0.0
  0
LINE
  5
101
330
17
100
AcDbEntity
  8
FoilLayer
100
AcDbLine
 10
-95.75648658006469
 20
-15.6157390721677
 30
0.0
 11
-92.68256809078775
 21
-15.759091551991132
 31
0.0
  0
LINE
  5
102
330
17
100
AcDbEntity
  8
FoilLayer
100
AcDbLine
 10
-92.68256809078775
 20
-15.759091551991132
 30
0.0
 11
-89.53238803500463
 21
-15.905607641239135
 31
0.0
  0
LINE
  5
103
330
17
100
AcDbEntity
  8
FoilLayer
100
AcDbLine
 10
-89.53238803500463
 20
-15.905607641239135
 30
0.0
 11
-86.3193045486763
 21
-16.04726151108166
 31
0.0
  0
LINE
  5
104
330
17
100
AcDbEntity
  8
FoilLayer
100
AcDbLine
 10
-86.3193045486763
 20
-16.04726151108166
 30
0.0
 11
-83.04266674848436
 21
-16.163823156930533
 31
0.0
  0
LINE
  5
105
330
17
100
AcDbEntity
  8
FoilLayer
100
AcDbLine
 10
-83.04266674848436
 20
-16.163823156930533
 30
0.0
 11
-79.70582129976331
 21
-16.25071492857669
 31
0.0
  0
LINE
  5
106
330
17
100
AcDbEntity
  8
FoilLayer
100
AcDbLine
 10
-79.70582129976331
 20
-16.25071492857669
 30
0.0
 11
-76.31563873023453
 21
-16.311243713724426
 31
0.0
  0
LINE
  5
107
330
17
100
AcDbEntity
  8
FoilLayer
100
AcDbLine
 10
-76.31563873023453
 20
-16.311243713724426
 30
0.0
 11
-72.87339609907806
 21
-16.348321342914556
 31
0.0
  0
LINE
  5
108
330
17
100
AcDbEntity
  8
FoilLayer
100
AcDbLine
 10
-72.87339609907806
 20
-16.348321342914556
 30
0.0
 11
-69.98847471709848
 21
-16.37048835927895
 31
0.0
  0
LINE
  5
109
330
17
100
AcDbEntity
  8
FoilLayer
100
AcDbLine
 10
-69.98847471709848
 20
-16.37048835927895
 30
0.0
 11
-69.99654241512937
 21
-17.4204573646541
 31
0.0
  0
LINE
  5
10A
330
17
100
AcDbEntity
  8
FoilLayer
100
AcDbLine
 10
-69.99654241512937
 20
-17.4204573646541
 30
0.0
 11
-69.39322137609577
 21
-17.425093255327308
 31
0.0
  0
LINE
  5
10B
330
17
100
AcDbEntity
  8
FoilLayer
100
AcDbLine
 10
-69.39322137609577
 20
-17.425093255327308
 30
0.0
 11
-65.87082545966912
 21
-17.454760529285593
 31
0.0
  0
LINE
  5
10C
330
17
100
AcDbEntity
  8
FoilLayer
100
AcDbLine
 10
-65.87082545966912
 20
-17.454760529285593
 30
0.0
 11
-62.315922272306935
 21
-17.467679104159227
 31
0.0
  0
LINE
  5
10D
330
17
100
AcDbEntity
  8
FoilLayer
100
AcDbLine
 10
-62.315922272306935
 20
-17.467679104159227
 30
0.0
 11
-58.73110060946959
 21
-17.458654878166175
 31
0.0
  0
LINE
  5
10E
330
17
100
AcDbEntity
  8
FoilLayer
100
AcDbLine
 10
-58.73110060946959
 20
-17.458654878166175
 30
0.0
 11
-55.118132914738965
 21
-17.42699276201509
 31
0.0
  0
LINE
  5
10F
330
17
100
AcDbEntity
  8
FoilLayer
100
AcDbLine
 10
-55.118132914738965
 20
-17.42699276201509
 30
0.0
 11
-51.47930183315829
 21
-17.381318653881493
 31
0.0
  0
LINE
  5
110
330
17
100
AcDbEntity
  8
FoilLayer
100
AcDbLine
 10
-51.47930183315829
 20
-17.381318653881493
 30
0.0
 11
-47.81749864425569
 21
-17.331441392943347
 31
0.0
  0
LINE
  5
111
330
17
100
AcDbEntity
  8
FoilLayer
100
AcDbLine
 10
-47.81749864425569
 20
-17.331441392943347
 30
0.0
 11
-44.13527620706125
 21
-17.279411841827386
 31
0.0
  0
LINE
  5
112
330
17
100
AcDbEntity
  8
FoilLayer
100
AcDbLine
 10
-44.13527620706125
 20
-17.279411841827386
 30
0.0
 11
-40.4348380790737
 21
-17.221123175650312
 31
0.0
  0
LINE
  5
113
330
17
100
AcDbEntity
  8
FoilLayer
100
AcDbLine
 10
-40.4348380790737
 20
-17.221123175650312
 30
0.0
 11
-36.71683929656071
 21
-17.147725350027056
 31
0.0
  0
LINE
  5
114
330
17
100
AcDbEntity
  8
FoilLayer
100
AcDbLine
 10
-36.71683929656071
 20
-17.147725350027056
 30
0.0
 11
-32.9818929799501
 21
-17.057761729550588
 31
0.0
  0
LINE
  5
115
330
17
100
AcDbEntity
  8
FoilLayer
100
AcDbLine
 10
-32.9818929799501
 20
-17.057761729550588
 30
0.0
 11
-29.231562740604716
 21
-16.955359498868987
 31
0.0
  0
LINE
  5
116
330
17
100
AcDbEntity
  8
FoilLayer
100
AcDbLine
 10
-29.231562740604716
 20
-16.955359498868987
 30
0.0
 11
-25.46627268049467
 21
-16.84129780192585
 31
0.0
  0
LINE
  5
117
330
17
100
AcDbEntity
  8
FoilLayer
100
AcDbLine
 10
-25.46627268049467
 20
-16.84129780192585
 30
0.0
 11
-21.68749270120665
 21
-16.721587430086373
 31
0.0
  0
LINE
  5
118
330
17
100
AcDbEntity
  8
FoilLayer
100
AcDbLine
 10
-21.68749270120665
 20
-16.721587430086373
 30
0.0
 11
-17.896673638438415
 21
-16.598683988895594
 31
0.0
  0
LINE
  5
119
330
17
100
AcDbEntity
  8
FoilLayer
100
AcDbLine
 10
-17.896673638438415
 20
-16.598683988895594
 30
0.0
 11
-14.095097684191131
 21
-16.470911085104518
 31
0.0
  0
LINE
  5
11A
330
17
100
AcDbEntity
  8
FoilLayer
100
AcDbLine
 10
-14.095097684191131
 20
-16.470911085104518
 30
0.0
 11
-10.283389363709347
 21
-16.335860638766704
 31
0.0
  0
LINE
  5
11B
330
17
100
AcDbEntity
  8
FoilLayer
100
AcDbLine
 10
-10.283389363709347
 20
-16.335860638766704
 30
0.0
 11
-6.462448379710622
 21
-16.193292007958664
 31
0.0
  0
LINE
  5
11C
330
17
100
AcDbEntity
  8
FoilLayer
100
AcDbLine
 10
-6.462448379710622
 20
-16.193292007958664
 30
0.0
 11
-2.6336210658097343
 21
-16.043158125529697
 31
0.0
  0
LINE
  5
11D
330
17
100
AcDbEntity
  8
FoilLayer
100
AcDbLine
 10
-2.6336210658097343
 20
-16.043158125529697
 30
0.0
 11
1.2006163283294597
 21
-15.886949900961937
 31
0.0
  0
LINE
  5
11E
330
17
100
AcDbEntity
  8
FoilLayer
100
AcDbLine
 10
1.2006163283294597
 20
-15.886949900961937
 30
0.0
 11
5.037462234524838
 21
-15.723827981273741
 31
0.0
  0
LINE
  5
11F
330
17
100
AcDbEntity
  8
FoilLayer
100
AcDbLine
 10
5.037462234524838
 20
-15.723827981273741
 30
0.0
 11
8.873695205365436
 21
-15.552969974873955
 31
0.0
  0
LINE
  5
120
330
17
100
AcDbEntity
  8
FoilLayer
100
AcDbLine
 10
8.873695205365436
 20
-15.552969974873955
 30
0.0
 11
12.705625677089245
 21
-15.377855003067983
 31
0.0
  0
LINE
  5
121
330
17
100
AcDbEntity
  8
FoilLayer
100
AcDbLine
 10
12.705625677089245
 20
-15.377855003067983
 30
0.0
 11
16.530897685469938
 21
-15.201822779073973
 31
0.0
  0
LINE
  5
122
330
17
100
AcDbEntity
  8
FoilLayer
100
AcDbLine
 10
16.530897685469938
 20
-15.201822779073973
 30
0.0
 11
20.35052276273001
 21
-15.024333740402879
 31
0.0
  0
LINE
  5
123
330
17
100
AcDbEntity
  8
FoilLayer
100
AcDbLine
 10
20.35052276273001
 20
-15.024333740402879
 30
0.0
 11
24.168975636406344
 21
-14.841038490923072
 31
0.0
  0
LINE
  5
124
330
17
100
AcDbEntity
  8
FoilLayer
100
AcDbLine
 10
24.168975636406344
 20
-14.841038490923072
 30
0.0
 11
27.990800746176348
 21
-14.646152981867006
 31
0.0
  0
LINE
  5
125
330
17
100
AcDbEntity
  8
FoilLayer
100
AcDbLine
 10
27.990800746176348
 20
-14.646152981867006
 30
0.0
 11
31.818463455329578
 21
-14.4385958651056
 31
0.0
  0
LINE
  5
126
330
17
100
AcDbEntity
  8
FoilLayer
100
AcDbLine
 10
31.818463455329578
 20
-14.4385958651056
 30
0.0
 11
35.651802528428505
 21
-14.223790318196949
 31
0.0
  0
LINE
  5
127
330
17
100
AcDbEntity
  8
FoilLayer
100
AcDbLine
 10
35.651802528428505
 20
-14.223790318196949
 30
0.0
 11
39.489919777284285
 21
-14.00927729221744
 31
0.0
  0
LINE
  5
128
330
17
100
AcDbEntity
  8
FoilLayer
100
AcDbLine
 10
39.489919777284285
 20
-14.00927729221744
 30
0.0
 11
43.331699112509455
 21
-13.799391870093187
 31
0.0
  0
LINE
  5
129
330
17
100
AcDbEntity
  8
FoilLayer
100
AcDbLine
 10
43.331699112509455
 20
-13.799391870093187
 30
0.0
 11
47.17646560347657
 21
-13.589907766007295
 31
0.0
  0
LINE
  5
12A
330
17
100
AcDbEntity
  8
FoilLayer
100
AcDbLine
 10
47.17646560347657
 20
-13.589907766007295
 30
0.0
 11
51.02477013134438
 21
-13.368313495333734
 31
0.0
  0
LINE
  5
12B
330
17
100
AcDbEntity
  8
FoilLayer
100
AcDbLine
 10
51.02477013134438
 20
-13.368313495333734
 30
0.0
 11
54.87781893569081
 21
-13.128112038448885
 31
0.0
  0
LINE
  5
12C
330
17
100
AcDbEntity
  8
FoilLayer
100
AcDbLine
 10
54.87781893569081
 20
-13.128112038448885
 30
0.0
 11
58.736335664872286
 21
-12.876654070020606
 31
0.0
  0
LINE
  5
12D
330
17
100
AcDbEntity
  8
FoilLayer
100
AcDbLine
 10
58.736335664872286
 20
-12.876654070020606
 30
0.0
 11
62.600190305475905
 21
-12.626947076641818
 31
0.0
  0
LINE
  5
12E
330
17
100
AcDbEntity
  8
FoilLayer
100
AcDbLine
 10
62.600190305475905
 20
-12.626947076641818
 30
0.0
 11
66.46863180518105
 21
-12.385770505974701
 31
0.0
  0
LINE
  5
12F
330
17
100
AcDbEntity
  8
FoilLayer
100
AcDbLine
 10
66.46863180518105
 20
-12.385770505974701
 30
0.0
 11
70.33979039035057
 21
-12.152102151500157
 31
0.0
  0
LINE
  5
130
330
17
100
AcDbEntity
  8
FoilLayer
100
AcDbLine
 10
70.33979039035057
 20
-12.152102151500157
 30
0.0
 11
74.21247576222439
 21
-11.910773507125462
 31
0.0
  0
LINE
  5
131
330
17
100
AcDbEntity
  8
FoilLayer
100
AcDbLine
 10
74.21247576222439
 20
-11.910773507125462
 30
0.0
 11
78.08810016000254
 21
-11.643697780423981
 31
0.0
  0
LINE
  5
132
330
17
100
AcDbEntity
  8
FoilLayer
100
AcDbLine
 10
78.08810016000254
 20
-11.643697780423981
 30
0.0
 11
81.96860435816788
 21
-11.356035311849949
 31
0.0
  0
LINE
  5
133
330
17
100
AcDbEntity
  8
FoilLayer
100
AcDbLine
 10
81.96860435816788
 20
-11.356035311849949
 30
0.0
 11
85.85431166099502
 21
-11.070341781013312
 31
0.0
  0
LINE
  5
134
330
17
100
AcDbEntity
  8
FoilLayer
100
AcDbLine
 10
85.85431166099502
 20
-11.070341781013312
 30
0.0
 11
89.74377859779415
 21
-10.800335530227308
 31
0.0
  0
LINE
  5
135
330
17
100
AcDbEntity
  8
FoilLayer
100
AcDbLine
 10
89.74377859779415
 20
-10.800335530227308
 30
0.0
 11
93.63531426053984
 21
-10.540918644717294
 31
0.0
  0
LINE
  5
136
330
17
100
AcDbEntity
  8
FoilLayer
100
AcDbLine
 10
93.63531426053984
 20
-10.540918644717294
 30
0.0
 11
97.52720417841218
 21
-10.278190028414526
 31
0.0
  0
LINE
  5
137
330
17
100
AcDbEntity
  8
FoilLayer
100
AcDbLine
 10
97.52720417841218
 20
-10.278190028414526
 30
0.0
 11
101.42020485930897
 21
-9.991466068507771
 31
0.0
  0
LINE
  5
138
330
17
100
AcDbEntity
  8
FoilLayer
100
AcDbLine
 10
101.42020485930897
 20
-9.991466068507771
 30
0.0
 11
105.31718337476914
 21
-9.681783559227167
 31
0.0
  0
LINE
  5
139
330
17
100
AcDbEntity
  8
FoilLayer
100
AcDbLine
 10
105.31718337476914
 20
-9.681783559227167
 30
0.0
 11
109.2176005744029
 21
-9.376240710873269
 31
0.0
  0
LINE
  5
13A
330
17
100
AcDbEntity
  8
FoilLayer
100
AcDbLine
 10
109.2176005744029
 20
-9.376240710873269
 30
0.0
 11
113.12105496852635
 21
-9.081861970558775
 31
0.0
  0
LINE
  5
13B
330
17
100
AcDbEntity
  8
FoilLayer
100
AcDbLine
 10
113.12105496852635
 20
-9.081861970558775
 30
0.0
 11
117.02643129711296
 21
-8.798711949004993
 31
0.0
  0
LINE
  5
13C
330
17
100
AcDbEntity
  8
FoilLayer
100
AcDbLine
 10
117.02643129711296
 20
-8.798711949004993
 30
0.0
 11
120.93168621528324
 21
-8.518914482220012
 31
0.0
  0
LINE
  5
13D
330
17
100
AcDbEntity
  8
FoilLayer
100
AcDbLine
 10
120.93168621528324
 20
-8.518914482220012
 30
0.0
 11
124.8363968933401
 21
-8.224295524693913
 31
0.0
  0
LINE
  5
13E
330
17
100
AcDbEntity
  8
FoilLayer
100
AcDbLine
 10
124.8363968933401
 20
-8.224295524693913
 30
0.0
 11
128.74359480828687
 21
-7.9045593588102046
 31
0.0
  0
LINE
  5
13F
330
17
100
AcDbEntity
  8
FoilLayer
100
AcDbLine
 10
128.74359480828687
 20
-7.9045593588102046
 30
0.0
 11
132.6535222710822
 21
-7.586037424172187
 31
0.0
  0
LINE
  5
140
330
17
100
AcDbEntity
  8
FoilLayer
100
AcDbLine
 10
132.6535222710822
 20
-7.586037424172187
 30
0.0
 11
136.5650731756525
 21
-7.280484085105133
 31
0.0
  0
LINE
  5
141
330
17
100
AcDbEntity
  8
FoilLayer
100
AcDbLine
 10
136.5650731756525
 20
-7.280484085105133
 30
0.0
 11
140.47850032560356
 21
-6.982826476949843
 31
0.0
  0
LINE
  5
142
330
17
100
AcDbEntity
  8
FoilLayer
100
AcDbLine
 10
140.47850032560356
 20
-6.982826476949843
 30
0.0
 11
144.39255763764348
 21
-6.696281885370635
 31
0.0
  0
LINE
  5
143
330
17
100
AcDbEntity
  8
FoilLayer
100
AcDbLine
 10
144.39255763764348
 20
-6.696281885370635
 30
0.0
 11
148.30467607533868
 21
-6.412539602826982
 31
0.0
  0
LINE
  5
144
330
17
100
AcDbEntity
  8
FoilLayer
100
AcDbLine
 10
148.30467607533868
 20
-6.412539602826982
 30
0.0
 11
152.21651373921978
 21
-6.107807917455487
 31
0.0
  0
LINE
  5
145
330
17
100
AcDbEntity
  8
FoilLayer
100
AcDbLine
 10
152.21651373921978
 20
-6.107807917455487
 30
0.0
 11
156.13007812953006
 21
-5.790678136580028
 31
0.0
  0
LINE
  5
146
330
17
100
AcDbEntity
  8
FoilLayer
100
AcDbLine
 10
156.13007812953006
 20
-5.790678136580028
 30
0.0
 11
160.04408500558716
 21
-5.483083126083843
 31
0.0
  0
LINE
  5
147
330
17
100
AcDbEntity
  8
FoilLayer
100
AcDbLine
 10
160.04408500558716
 20
-5.483083126083843
 30
0.0
 11
163.95827436551568
 21
-5.183657403293202
 31
0.0
  0
LINE
  5
148
330
17
100
AcDbEntity
  8
FoilLayer
100
AcDbLine
 10
163.95827436551568
 20
-5.183657403293202
 30
0.0
 11
167.87302205098112
 21
-4.891515896630085
 31
0.0
  0
LINE
  5
149
330
17
100
AcDbEntity
  8
FoilLayer
100
AcDbLine
 10
167.87302205098112
 20
-4.891515896630085
 30
0.0
 11
171.785028656879
 21
-4.61143708557682
 31
0.0
  0
LINE
  5
14A
330
17
100
AcDbEntity
  8
FoilLayer
100
AcDbLine
 10
171.785028656879
 20
-4.61143708557682
 30
0.0
 11
175.69394087246073
 21
-4.321531835020287
 31
0.0
  0
LINE
  5
14B
330
17
100
AcDbEntity
  8
FoilLayer
100
AcDbLine
 10
175.69394087246073
 20
-4.321531835020287
 30
0.0
 11
179.60173487029388
 21
-4.015919583074016
 31
0.0
  0
LINE
  5
14C
330
17
100
AcDbEntity
  8
FoilLayer
100
AcDbLine
 10
179.60173487029388
 20
-4.015919583074016
 30
0.0
 11
183.50745743108266
 21
-3.7160734542287233
 31
0.0
  0
LINE
  5
14D
330
17
100
AcDbEntity
  8
FoilLayer
100
AcDbLine
 10
183.50745743108266
 20
-3.7160734542287233
 30
0.0
 11
187.40928691577412
 21
-3.430936773170605
 31
0.0
  0
LINE
  5
14E
330
17
100
AcDbEntity
  8
FoilLayer
100
AcDbLine
 10
187.40928691577412
 20
-3.430936773170605
 30
0.0
 11
191.305420548437
 21
-3.157690515954629
 31
0.0
  0
LINE
  5
14F
330
17
100
AcDbEntity
  8
FoilLayer
100
AcDbLine
 10
191.305420548437
 20
-3.157690515954629
 30
0.0
 11
195.19269459741056
 21
-2.8956721082617953
 31
0.0
  0
LINE
  5
150
330
17
100
AcDbEntity
  8
FoilLayer
100
AcDbLine
 10
195.19269459741056
 20
-2.8956721082617953
 30
0.0
 11
199.06800340243163
 21
-2.6365398256933457
 31
0.0
  0
LINE
  5
151
330
17
100
AcDbEntity
  8
FoilLayer
100
AcDbLine
 10
199.06800340243163
 20
-2.6365398256933457
 30
0.0
 11
202.9286726608946
 21
-2.374540181276418
 31
0.0
  0
LINE
  5
152
330
17
100
AcDbEntity
  8
FoilLayer
100
AcDbLine
 10
202.9286726608946
 20
-2.374540181276418
 30
0.0
 11
206.76949803704727
 21
-2.118660132732997
 31
0.0
  0
LINE
  5
153
330
17
100
AcDbEntity
  8
FoilLayer
100
AcDbLine
 10
206.76949803704727
 20
-2.118660132732997
 30
0.0
 11
210.58197337414188
 21
-1.8748274330057015
 31
0.0
  0
LINE
  5
154
330
17
100
AcDbEntity
  8
FoilLayer
100
AcDbLine
 10
210.58197337414188
 20
-1.8748274330057015
 30
0.0
 11
214.35787749852656
 21
-1.637401709102948
 31
0.0
  0
LINE
  5
155
330
17
100
AcDbEntity
  8
FoilLayer
100
AcDbLine
 10
214.35787749852656
 20
-1.637401709102948
 30
0.0
 11
218.08594518354093
 21
-1.4115788495542647
 31
0.0
  0
LINE
  5
156
330
17
100
AcDbEntity
  8
FoilLayer
100
AcDbLine
 10
218.08594518354093
 20
-1.4115788495542647
 30
0.0
 11
221.74751000280511
 21
-1.2096897814768515
 31
0.0
  0
LINE
  5
157
330
17
100
AcDbEntity
  8
FoilLayer
100
AcDbLine
 10
221.74751000280511
 20
-1.2096897814768515
 30
0.0
 11
225.32608400310735
 21
-1.0134359070094474
 31
0.0
  0
LINE
  5
158
330
17
100
AcDbEntity
  8
FoilLayer
100
AcDbLine
 10
225.32608400310735
 20
-1.0134359070094474
 30
0.0
 11
228.8003562535309
 21
-0.8246276495295335
 31
0.0
  0
LINE
  5
159
330
17
100
AcDbEntity
  8
FoilLayer
100
AcDbLine
 10
228.8003562535309
 20
-0.8246276495295335
 30
0.0
 11
232.14949950283213
 21
-0.6435326509156373
 31
0.0
  0
LINE
  5
15A
330
17
100
AcDbEntity
  8
FoilLayer
100
AcDbLine
 10
232.14949950283213
 20
-0.6435326509156373
 30
0.0
 11
235.34920896619062
 21
-0.4833246666006445
 31
0.0
  0
LINE
  5
15B
330
17
100
AcDbEntity
  8
FoilLayer
100
AcDbLine
 10
235.34920896619062
 20
-0.4833246666006445
 30
0.0
 11
238.3772957315352
 21
-0.3438697181950915
 31
0.0
  0
LINE
  5
15C
330
17
100
AcDbEntity
  8
FoilLayer
100
AcDbLine
 10
238.3772957315352
 20
-0.3438697181950915
 30
0.0
 11
241.21976773516073
 21
-0.2148646433647109
 31
0.0
  0
LINE
  5
15D
330
17
100
AcDbEntity
  8
FoilLayer
100
AcDbLine
 10
241.21976773516073
 20
-0.2148646433647109
 30
0.0
 11
243.8696122345725
 21
-0.09511826112792165
 31
0.0
  0
LINE
  5
15E
330
17
100
AcDbEntity
  8
FoilLayer
100
AcDbLine
 10
243.8696122345725
 20
-0.09511826112792165
 30
0.0
 11
246.32338080774795
 21
0.007556884557070154
 31
0.0
  0
LINE
  5
15F
330
17
100
AcDbEntity
  8
FoilLayer
100
AcDbLine
 10
246.32338080774795
 20
0.007556884557070154
 30
0.0
 11
248.58198559368654
 21
0.09267508953180231
 31
0.0
  0
LINE
  5
160
330
17
100
AcDbEntity
  8
FoilLayer
100
AcDbLine
 10
248.58198559368654
 20
0.09267508953180231
 30
0.0
 11
249.9840779320991
 21
0.14231552636764633
 31
0.0
  0
LINE
  5
161
330
17
100
AcDbEntity
  8
FoilLayer
100
AcDbLine
 10
249.9840779320991
 20
0.14231552636764633
 30
0.0
 11
249.9060463728762
 21
-0.1326969906785841
 31
0.0
  0
LINE
  5
162
330
17
100
AcDbEntity
  8
StringerLayer
100
AcDbLine
 10
107.2039266136508
 20
22.327043106927146
 30
0.0
 11
111.15940294932241
 21
21.731890220735867
 31
0.0
  0
LINE
  5
163
330
17
100
AcDbEntity
  8
StringerLayer
100
AcDbLine
 10
111.15940294932241
 20
21.731890220735867
 30
0.0
 11
111.75455583551368
 21
25.687366556407486
 31
0.0
  0
LINE
  5
164
330
17
100
AcDbEntity
  8
StringerLayer
100
AcDbLine
 10
111.75455583551368
 20
25.687366556407486
 30
0.0
 11
107.79907949984207
 21
26.282519442598765
 31
0.0
  0
LINE
  5
165
330
17
100
AcDbEntity
  8
StringerLayer
100
AcDbLine
 10
107.79907949984207
 20
26.282519442598765
 30
0.0
 11
107.2039266136508
 21
22.327043106927146
 31
0.0
  0
LINE
  5
166
330
17
100
AcDbEntity
  8
StringerLayer
100
AcDbLine
 10
-43.65144933281961
 20
30.774113488658426
 30
0.0
 11
-39.65930918426321
 21
31.024746755173663
 31
0.0
  0
LINE
  5
167
330
17
100
AcDbEntity
  8
StringerLayer
100
AcDbLine
 10
-39.65930918426321
 20
31.024746755173663
 30
0.0
 11
-39.90994245077844
 21
35.01688690373006
 31
0.0
  0
LINE
  5
168
330
17
100
AcDbEntity
  8
StringerLayer
100
AcDbLine
 10
-39.90994245077844
 20
35.01688690373006
 30
0.0
 11
-43.90208259933484
 21
34.766253637214824
 31
0.0
  0
LINE
  5
169
330
17
100
AcDbEntity
  8
StringerLayer
100
AcDbLine
 10
-43.90208259933484
 20
34.766253637214824
 30
0.0
 11
-43.65144933281961
 21
30.774113488658426
 31
0.0
  0
LINE
  5
16A
330
17
100
AcDbEntity
  8
StringerLayer
100
AcDbLine
 10
-110.39532224920947
 20
19.982010695672987
 30
0.0
 11
-106.55239670369477
 21
21.091931076434793
 31
0.0
  0
LINE
  5
16B
330
17
100
AcDbEntity
  8
StringerLayer
100
AcDbLine
 10
-106.55239670369477
 20
21.091931076434793
 30
0.0
 11
-107.66231708445657
 21
24.934856621949507
 31
0.0
  0
LINE
  5
16C
330
17
100
AcDbEntity
  8
StringerLayer
100
AcDbLine
 10
-107.66231708445657
 20
24.934856621949507
 30
0.0
 11
-111.50524262997128
 21
23.8249362411877
 31
0.0
  0
LINE
  5
16D
330
17
100
AcDbEntity
  8
StringerLayer
100
AcDbLine
 10
-111.50524262997128
 20
23.8249362411877
 30
0.0
 11
-110.39532224920947
 21
19.982010695672987
 31
0.0
  0
LINE
  5
16E
330
17
100
AcDbEntity
  8
StringerLayer
100
AcDbLine
 10
-141.1377915459685
 20
5.195380439474169
 30
0.0
 11
-139.63072171110085
 21
6.510196210915916
 31
0.0
  0
LINE
  5
16F
330
17
100
AcDbEntity
  8
StringerLayer
100
AcDbLine
 10
-139.63072171110085
 20
6.510196210915916
 30
0.0
 11
-142.26035325398433
 21
9.52433588065124
 31
0.0
  0
LINE
  5
170
330
17
100
AcDbEntity
  8
StringerLayer
100
AcDbLine
 10
-142.26035325398433
 20
9.52433588065124
 30
0.0
 11
-143.76742308885198
 21
8.209520109209492
 31
0.0
  0
LINE
  5
171
330
17
100
AcDbEntity
  8
StringerLayer
100
AcDbLine
 10
-143.76742308885198
 20
8.209520109209492
 30
0.0
 11
-141.1377915459685
 21
5.195380439474169
 31
0.0
  0
LINE
  5
172
330
17
100
AcDbEntity
  8
StringerLayer
100
AcDbLine
 10
-141.89259343522517
 20
-3.026987203371883
 30
0.0
 11
-143.49024900991762
 21
-1.823867647943489
 31
0.0
  0
LINE
  5
173
330
17
100
AcDbEntity
  8
StringerLayer
100
AcDbLine
 10
-143.49024900991762
 20
-1.823867647943489
 30
0.0
 11
-145.8964881207744
 21
-5.01917879732834
 31
0.0
  0
LINE
  5
174
330
17
100
AcDbEntity
  8
StringerLayer
100
AcDbLine
 10
-145.8964881207744
 20
-5.01917879732834
 30
0.0
 11
-144.29883254608194
 21
-6.222298352756734
 31
0.0
  0
LINE
  5
175
330
17
100
AcDbEntity
  8
StringerLayer
100
AcDbLine
 10
-144.29883254608194
 20
-6.222298352756734
 30
0.0
 11
-141.89259343522517
 21
-3.026987203371883
 31
0.0
  0
LINE
  5
176
330
17
100
AcDbEntity
  8
StringerLayer
100
AcDbLine
 10
-87.74663644174034
 20
-11.984332831766345
 30
0.0
 11
-91.74231727843694
 21
-11.798497820921956
 31
0.0
  0
LINE
  5
177
330
17
100
AcDbEntity
  8
StringerLayer
100
AcDbLine
 10
-91.74231727843694
 20
-11.798497820921956
 30
0.0
 11
-91.92815228928133
 21
-15.79417865761856
 31
0.0
  0
LINE
  5
178
330
17
100
AcDbEntity
  8
StringerLayer
100
AcDbLine
 10
-91.92815228928133
 20
-15.79417865761856
 30
0.0
 11
-87.93247145258472
 21
-15.980013668462949
 31
0.0
  0
LINE
  5
179
330
17
100
AcDbEntity
  8
StringerLayer
100
AcDbLine
 10
-87.93247145258472
 20
-15.980013668462949
 30
0.0
 11
-87.74663644174034
 21
-11.984332831766345
 31
0.0
  0
LINE
  5
17A
330
17
100
AcDbEntity
  8
SubLayer
100
AcDbLine
 10
-149.99999999999946
 20
0.0
 30
0.0
 11
-145.99999999999946
 21
0.0
 31
0.0
  0
LINE
  5
17B
330
17
100
AcDbEntity
  8
SubLayer
100
AcDbLine
 10
27.999999999999915
 20
0.0
 30
0.0
 11
35.999999999999886
 21
0.0
 31
0.0
  0
LINE
  5
17C
330
17
100
AcDbEntity
  8
SubLayer
100
AcDbLine
 10
0.0
 20
10.398476129098768
 30
0.0
 11
7.997258599804458
 21
10.607891715561749
 31
0.0
  0
LINE
  5
17D
330
17
100
AcDbEntity
  8
SubLayer
100
AcDbLine
 10
-7.997258599804458
 20
10.189060542635787
 30
0.0
 11
0.0
 21
10.398476129098768
 31
0.0
  0
LINE
  5
17E
330
17
100
AcDbEntity
  8
SubLayer
100
AcDbLine
 10
0.07853084492361778
 20
7.399504154172096
 30
0.0
 11
0.28794643138659853
 21
-0.5977544456323614
 31
0.0
  0
LINE
  5
17F
330
17
100
AcDbEntity
  8
SubLayer
100
AcDbLine
 10
-0.07853084492361778
 20
13.39744810402544
 30
0.0
 11
-0.28794643138659853
 21
21.394706703829897
 31
0.0
  0
LINE
  5
180
330
17
100
AcDbEntity
  8
SubLayer
100
AcDbLine
 10
2.0516685465668596
 20
8.4515153757634
 30
0.0
 11
6.050297846469088
 21
8.556223168994888
 31
0.0
  0
LINE
  5
181
330
17
100
AcDbEntity
  8
SubLayer
100
AcDbLine
 10
6.050297846469088
 20
8.556223168994888
 30
0.0
 11
5.9455900532375985
 21
12.554852468897117
 31
0.0
  0
LINE
  5
182
330
17
100
AcDbEntity
  8
SubLayer
100
AcDbLine
 10
5.9455900532375985
 20
12.554852468897117
 30
0.0
 11
1.9469607533353694
 21
12.450144675665628
 31
0.0
  0
LINE
  5
183
330
17
100
AcDbEntity
  8
SubLayer
100
AcDbLine
 10
1.9469607533353694
 20
12.450144675665628
 30
0.0
 11
2.0516685465668596
 21
8.4515153757634
 31
0.0
  0
LINE
  5
184
330
17
100
AcDbEntity
  8
SubLayer
100
AcDbLine
 10
-5.9455900532375985
 20
8.242099789300418
 30
0.0
 11
-1.9469607533353694
 21
8.346807582531907
 31
0.0
  0
LINE
  5
185
330
17
100
AcDbEntity
  8
SubLayer
100
AcDbLine
 10
-1.9469607533353694
 20
8.346807582531907
 30
0.0
 11
-2.0516685465668596
 21
12.345436882434136
 31
0.0
  0
LINE
  5
186
330
17
100
AcDbEntity
  8
SubLayer
100
AcDbLine
 10
-2.0516685465668596
 20
12.345436882434136
 30
0.0
 11
-6.050297846469088
 21
12.240729089202647
 31
0.0
  0
LINE
  5
187
330
17
100
AcDbEntity
  8
SubLayer
100
AcDbLine
 10
-6.050297846469088
 20
12.240729089202647
 30
0.0
 11
-5.9455900532375985
 21
8.242099789300418
 31
0.0
  0
LINE
  5
188
330
17
100
AcDbEntity
  8
SubLayer
100
AcDbLine
 10
-1.7637221151802613
 20
1.3492063077030076
 30
0.0
 11
2.2349071847219677
 21
1.4539141009344978
 31
0.0
  0
LINE
  5
189
330
17
100
AcDbEntity
  8
SubLayer
100
AcDbLine
 10
2.2349071847219677
 20
1.4539141009344978
 30
0.0
 11
2.1301993914904775
 21
5.452543400836727
 31
0.0
  0
LINE
  5
18A
330
17
100
AcDbEntity
  8
SubLayer
100
AcDbLine
 10
2.1301993914904775
 20
5.452543400836727
 30
0.0
 11
-1.8684299084117515
 21
5.347835607605237
 31
0.0
  0
LINE
  5
18B
330
17
100
AcDbEntity
  8
SubLayer
100
AcDbLine
 10
-1.8684299084117515
 20
5.347835607605237
 30
0.0
 11
-1.7637221151802613
 21
1.3492063077030076
 31
0.0
  0
LINE
  5
18C
330
17
100
AcDbEntity
  8
SubLayer
100
AcDbLine
 10
-2.1301993914904775
 20
15.344408857360811
 30
0.0
 11
1.8684299084117515
 21
15.4491166505923
 31
0.0
  0
LINE
  5
18D
330
17
100
AcDbEntity
  8
SubLayer
100
AcDbLine
 10
1.8684299084117515
 20
15.4491166505923
 30
0.0
 11
1.7637221151802613
 21
19.44774595049453
 31
0.0
  0
LINE
  5
18E
330
17
100
AcDbEntity
  8
SubLayer
100
AcDbLine
 10
1.7637221151802613
 20
19.44774595049453
 30
0.0
 11
-2.2349071847219677
 21
19.343038157263038
 31
0.0
  0
LINE
  5
18F
330
17
100
AcDbEntity
  8
SubLayer
100
AcDbLine
 10
-2.2349071847219677
 20
19.343038157263038
 30
0.0
 11
-2.1301993914904775
 21
15.344408857360811
 31
0.0
  0
LINE
  5
190
330
17
100
AcDbEntity
  8
SubLayer
100
AcDbLine
 10
221.64221559982317
 20
5.488496847743728
 30
0.0
 11
225.6408448997254
 21
5.593204640975219
 31
0.0
  0
LINE
  5
191
330
17
100
AcDbEntity
  8
SubLayer
100
AcDbLine
 10
-148.7296939433507
 20
-4.210032926983663
 30
0.0
 11
-144.73106464344846
 21
-4.105325133752173
 31
0.0
  0
LINE
  5
192
330
17
100
AcDbEntity
  8
SubLayer
100
AcDbLine
 10
-75.65496935969149
 20
-2.2965039203460575
 30
0.0
 11
-69.65702540983814
 21
-2.1394422304988217
 31
0.0
  0
LINE
  5
193
330
17
100
AcDbEntity
  8
SubLayer
100
AcDbLine
 10
146.56817636621287
 20
3.5226139444903772
 30
0.0
 11
152.5661203160662
 21
3.679675634337613
 31
0.0
  0
LINE
  5
194
330
17
100
AcDbEntity
  8
SubLayer
100
AcDbLine
 10
35.45660350326068
 20
0.6130550120721601
 30
0.0
 11
41.45454745311403
 21
0.7701167019193955
 31
0.0
  0
LINE
  5
195
330
17
100
AcDbEntity
  8
SubLayer
100
AcDbLine
 10
-70.60432883819796
 20
-4.164933828757809
 30
0.0
 11
-70.70903663142944
 21
-0.16630452885558
 31
0.0
  0
LINE
  5
196
330
17
100
AcDbEntity
  8
SubLayer
100
AcDbLine
 10
-70.70903663142944
 20
-0.16630452885558
 30
0.0
 11
-74.70766593133168
 21
-0.27101232208707016
 31
0.0
  0
LINE
  5
197
330
17
100
AcDbEntity
  8
SubLayer
100
AcDbLine
 10
-74.70766593133168
 20
-0.27101232208707016
 30
0.0
 11
-74.60295813810019
 21
-4.269641621989299
 31
0.0
  0
LINE
  5
198
330
17
100
AcDbEntity
  8
SubLayer
100
AcDbLine
 10
-74.60295813810019
 20
-4.269641621989299
 30
0.0
 11
-70.60432883819796
 21
-4.164933828757809
 31
0.0
  0
LINE
  5
199
330
17
100
AcDbEntity
  8
SubLayer
100
AcDbLine
 10
151.6188168877064
 20
1.6541840360786257
 30
0.0
 11
151.5141090944749
 21
5.652813335980855
 31
0.0
  0
LINE
  5
19A
330
17
100
AcDbEntity
  8
SubLayer
100
AcDbLine
 10
151.5141090944749
 20
5.652813335980855
 30
0.0
 11
147.51547979457266
 21
5.548105542749365
 31
0.0
  0
LINE
  5
19B
330
17
100
AcDbEntity
  8
SubLayer
100
AcDbLine
 10
147.51547979457266
 20
5.548105542749365
 30
0.0
 11
147.62018758780417
 21
1.5494762428471356
 31
0.0
  0
LINE
  5
19C
330
17
100
AcDbEntity
  8
SubLayer
100
AcDbLine
 10
147.62018758780417
 20
1.5494762428471356
 30
0.0
 11
151.6188168877064
 21
1.6541840360786257
 31
0.0
  0
LINE
  5
19D
330
17
100
AcDbEntity
  8
SubLayer
100
AcDbLine
 10
40.507244024754215
 20
-1.2553748963395917
 30
0.0
 11
40.402536231522724
 21
2.7432544035626374
 31
0.0
  0
LINE
  5
19E
330
17
100
AcDbEntity
  8
SubLayer
100
AcDbLine
 10
40.402536231522724
 20
2.7432544035626374
 30
0.0
 11
36.4039069316205
 21
2.6385466103311472
 31
0.0
  0
LINE
  5
19F
330
17
100
AcDbEntity
  8
SubLayer
100
AcDbLine
 10
36.4039069316205
 20
2.6385466103311472
 30
0.0
 11
36.50861472485199
 21
-1.3600826895710818
 31
0.0
  0
LINE
  5
1A0
330
17
100
AcDbEntity
  8
SubLayer
100
AcDbLine
 10
36.50861472485199
 20
-1.3600826895710818
 30
0.0
 11
40.507244024754215
 21
-1.2553748963395917
 31
0.0
  0
LINE
  5
1A1
330
17
100
AcDbEntity
  8
SubLayer
100
AcDbLine
 10
230.3216234275686
 20
3.6071203282389934
 30
0.0
 11
230.52644944956856
 21
4.585918724596318
 31
0.0
  0
LINE
  5
1A2
330
17
100
AcDbEntity
  8
SubLayer
100
AcDbLine
 10
230.03339871240627
 20
-1.2586203607177255
 30
0.0
 11
229.99544965266944
 21
-0.25934068571923447
 31
0.0
  0
LINE
  5
1A3
330
17
100
AcDbEntity
  8
SubLayer
100
AcDbLine
 10
210.75178862852985
 20
7.734849360266098
 30
0.0
 11
210.9573928035854
 21
8.713484595274382
 31
0.0
  0
LINE
  5
1A4
330
17
100
AcDbEntity
  8
SubLayer
100
AcDbLine
 10
210.0694553525931
 20
-2.4085627541758896
 30
0.0
 11
210.02172703175964
 21
-1.409702399876844
 31
0.0
  0
LINE
  5
1A5
330
17
100
AcDbEntity
  8
SubLayer
100
AcDbLine
 10
171.55001675464885
 20
15.679606172819733
 30
0.0
 11
171.75213284287676
 21
16.658967743885004
 31
0.0
  0
LINE
  5
1A6
330
17
100
AcDbEntity
  8
SubLayer
100
AcDbLine
 10
170.16946793333466
 20
-5.228344368373896
 30
0.0
 11
170.11035269590218
 21
-4.2300932032339285
 31
0.0
  0
ENDSEC
  0
SECTION
  2
OBJECTS
  0
DICTIONARY
  5
A
330
0
100
AcDbDictionary
280
0
281
1
  3
ACAD_COLOR
350
B
  3
ACAD_GROUP
350
C
  3
ACAD_LAYOUT
350
D
  3
ACAD_MATERIAL
350
E
  3
ACAD_MLEADERSTYLE
350
F
  3
ACAD_MLINESTYLE
350
10
  3
ACAD_PLOTSETTINGS
350
11
  3
ACAD_PLOTSTYLENAME
350
12
  3
ACAD_SCALELIST
350
14
  3
ACAD_TABLESTYLE
350
15
  3
ACAD_VISUALSTYLE
350
16
  3
EZDXF_META
350
2D
  0
DICTIONARY
  5
B
330
A
100
AcDbDictionary
280
0
281
1
  0
DICTIONARY
  5
C
330
A
100
AcDbDictionary
280
0
281
1
  0
DICTIONARY
  5
D
330
A
100
AcDbDictionary
280
0
281
1
  3
Model
350
1A
  3
Layout1
350
1E
  0
DICTIONARY
  5
E
330
A
100
AcDbDictionary
280
0
281
1
  3
ByBlock
350
1F
  3
ByLayer
350
20
  3
Global
350
21
  0
DICTIONARY
  5
F
330
A
100
AcDbDictionary
280
0
281
1
  3
Standard
350
2C
  0
DICTIONARY
  5
10
330
A
100
AcDbDictionary
280
0
281
1
  3
Standard
350
22
  0
DICTIONARY
  5
11
330
A
100
AcDbDictionary
280
0
281
1
  0
ACDBDICTIONARYWDFLT
  5
12
330
A
100
AcDbDictionary
280
0
281
1
  3
Normal
350
13
100
AcDbDictionaryWithDefault
340
13
  0
ACDBPLACEHOLDER
  5
13
330
12
  0
DICTIONARY
  5
14
330
A
100
AcDbDictionary
280
0
281
1
  0
DICTIONARY
  5
15
330
A
100
AcDbDictionary
280
0
281
1
  0
DICTIONARY
  5
16
330
A
100
AcDbDictionary
280
0
281
1
  0
LAYOUT
  5
1A
330
D
100
AcDbPlotSettings
  1

  2
Adobe PDF
  4
A3
  6

 40
7.5
 41
20.0
 42
7.5
 43
20.0
 44
420.0
 45
297.0
 46
0.0
 47
0.0
 48
0.0
 49
0.0
140
0.0
141
0.0
142
1.0
143
1.0
 70
1024
 72
1
 73
0
 74
5
  7

 75
16
 76
0
 77
2
 78
300
147
1.0
148
0.0
149
0.0
100
AcDbLayout
  1
Model
 70
1
 71
0
 10
0.0
 20
0.0
 11
420.0
 21
297.0
 12
0.0
 22
0.0
 32
0.0
 14
1e+20
 24
1e+20
 34
1e+20
 15
-1e+20
 25
-1e+20
 35
-1e+20
146
0.0
 13
0.0
 23
0.0
 33
0.0
 16
1.0
 26
0.0
 36
0.0
 17
0.0
 27
1.0
 37
0.0
 76
1
330
17
  0
LAYOUT
  5
1E
330
D
100
AcDbPlotSettings
  1

  2
Adobe PDF
  4
A3
  6

 40
7.5
 41
20.0
 42
7.5
 43
20.0
 44
420.0
 45
297.0
 46
0.0
 47
0.0
 48
0.0
 49
0.0
140
0.0
141
0.0
142
1.0
143
1.0
 70
0
 72
1
 73
0
 74
5
  7

 75
16
 76
0
 77
2
 78
300
147
1.0
148
0.0
149
0.0
100
AcDbLayout
  1
Layout1
 70
1
 71
1
 10
0.0
 20
0.0
 11
420.0
 21
297.0
 12
0.0
 22
0.0
 32
0.0
 14
1e+20
 24
1e+20
 34
1e+20
 15
-1e+20
 25
-1e+20
 35
-1e+20
146
0.0
 13
0.0
 23
0.0
 33
0.0
 16
1.0
 26
0.0
 36
0.0
 17
0.0
 27
1.0
 37
0.0
 76
1
330
1B
  0
MATERIAL
  5
1F
102
{ACAD_REACTORS
330
E
102
}
330
E
100
AcDbMaterial
  1
ByBlock
  2

 70
0
 40
1.0
 71
1
 41
1.0
 91
-1023410177
 42
1.0
 72
1
  3

 73
1
 74
1
 75
1
 44
0.5
 73
0
 45
1.0
 46
1.0
 77
1
  4

 78
1
 79
1
170
1
 48
1.0
171
1
  6

172
1
173
1
174
1
140
1.0
141
1.0
175
1
  7

176
1
177
1
178
1
143
1.0
179
1
  8

270
1
271
1
272
1
145
1.0
146
1.0
273
1
  9

274
1
275
1
276
1
 42
1.0
 72
1
  3

 73
1
 74
1
 75
1
 94
63
  0
MATERIAL
  5
20
102
{ACAD_REACTORS
330
E
102
}
330
E
100
AcDbMaterial
  1
ByLayer
  2

 70
0
 40
1.0
 71
1
 41
1.0
 91
-1023410177
 42
1.0
 72
1
  3

 73
1
 74
1
 75
1
 44
0.5
 73
0
 45
1.0
 46
1.0
 77
1
  4

 78
1
 79
1
170
1
 48
1.0
171
1
  6

172
1
173
1
174
1
140
1.0
141
1.0
175
1
  7

176
1
177
1
178
1
143
1.0
179
1
  8

270
1
271
1
272
1
145
1.0
146
1.0
273
1
  9

274
1
275
1
276
1
 42
1.0
 72
1
  3

 73
1
 74
1
 75
1
 94
63
  0
MATERIAL
  5
21
102
{ACAD_REACTORS
330
E
102
}
330
E
100
AcDbMaterial
  1
Global
  2

 70
0
 40
1.0
 71
1
 41
1.0
 91
-1023410177
 42
1.0
 72
1
  3

 73
1
 74
1
 75
1
 44
0.5
 73
0
 45
1.0
 46
1.0
 77
1
  4

 78
1
 79
1
170
1
 48
1.0
171
1
  6

172
1
173
1
174
1
140
1.0
141
1.0
175
1
  7

176
1
177
1
178
1
143
1.0
179
1
  8

270
1
271
1
272
1
145
1.0
146
1.0
273
1
  9

274
1
275
1
276
1
 42
1.0
 72
1
  3

 73
1
 74
1
 75
1
 94
63
  0
MLINESTYLE
  5
22
102
{ACAD_REACTORS
330
10
102
}
330
10
100
AcDbMlineStyle
  2
Standard
 70
0
  3

 62
256
 51
90.0
 52
90.0
 71
2
 49
0.5
 62
256
  6
BYLAYER
 49
-0.5
 62
256
  6
BYLAYER
  0
MLEADERSTYLE
  5
2C
102
{ACAD_REACTORS
330
F
102
}
330
F
100
AcDbMLeaderStyle
179
2
170
2
171
1
172
0
 90
2
 40
0.0
 41
0.0
173
1
 91
-1056964608
 92
-2
290
1
 42
2.0
291
1
 43
8.0
  3
Standard
 44
4.0
300

342
29
174
1
175
1
176
0
178
1
 93
-1056964608
 45
4.0
292
0
297
0
 46
4.0
 94
-1056964608
 47
1.0
 49
1.0
140
1.0
294
1
141
0.0
177
0
142
1.0
295
0
296
0
143
3.75
271
0
272
9
273
9
  0
DICTIONARY
  5
2D
330
A
100
AcDbDictionary
281
1
  3
CREATED_BY_EZDXF
350
2E
  3
WRITTEN_BY_EZDXF
350
1A9
  0
DICTIONARYVAR
  5
2E
330
2D
100
DictionaryVariables
280
0
  1
1.0.2 @ 2024-03-22T07:41:35.166353+00:00
  0
DICTIONARYVAR
  5
1A9
330
2D
100
DictionaryVariables
280
0
  1
1.0.2 @ 2024-03-22T07:41:35.206466+00:00
  0
ENDSEC
  0
EOF
