  0
SECTION
  2
HEADER
  9
$ACADVER
  1
AC1027
  9
$ACADMAINTVER
 70
105
  9
$DWGCODEPAGE
  3
ANSI_1252
  9
$LASTSAVEDBY
  1
ezdxf
  9
$REQUIREDVERSIONS
160
0
  9
$INSBASE
 10
0.0
 20
0.0
 30
0.0
  9
$EXTMIN
 10
1e+20
 20
1e+20
 30
1e+20
  9
$EXTMAX
 10
-1e+20
 20
-1e+20
 30
-1e+20
  9
$LIMMIN
 10
0.0
 20
0.0
  9
$LIMMAX
 10
420.0
 20
297.0
  9
$ORTHOMODE
 70
0
  9
$REGENMODE
 70
1
  9
$FILLMODE
 70
1
  9
$QTEXTMODE
 70
0
  9
$MIRRTEXT
 70
1
  9
$LTSCALE
 40
1.0
  9
$ATTMODE
 70
1
  9
$TEXTSIZE
 40
2.5
  9
$TRACEWID
 40
1.0
  9
$TEXTSTYLE
  7
Standard
  9
$CLAYER
  8
0
  9
$CELTYPE
  6
ByLayer
  9
$CECOLOR
 62
256
  9
$CELTSCALE
 40
1.0
  9
$DISPSILH
 70
0
  9
$DIMSCALE
 40
1.0
  9
$DIMASZ
 40
2.5
  9
$DIMEXO
 40
0.625
  9
$DIMDLI
 40
3.75
  9
$DIMRND
 40
0.0
  9
$DIMDLE
 40
0.0
  9
$DIMEXE
 40
1.25
  9
$DIMTP
 40
0.0
  9
$DIMTM
 40
0.0
  9
$DIMTXT
 40
2.5
  9
$DIMCEN
 40
2.5
  9
$DIMTSZ
 40
0.0
  9
$DIMTOL
 70
0
  9
$DIMLIM
 70
0
  9
$DIMTIH
 70
0
  9
$DIMTOH
 70
0
  9
$DIMSE1
 70
0
  9
$DIMSE2
 70
0
  9
$DIMTAD
 70
1
  9
$DIMZIN
 70
8
  9
$DIMBLK
  1

  9
$DIMASO
 70
1
  9
$DIMSHO
 70
1
  9
$DIMPOST
  1

  9
$DIMAPOST
  1

  9
$DIMALT
 70
0
  9
$DIMALTD
 70
3
  9
$DIMALTF
 40
0.03937007874
  9
$DIMLFAC
 40
1.0
  9
$DIMTOFL
 70
1
  9
$DIMTVP
 40
0.0
  9
$DIMTIX
 70
0
  9
$DIMSOXD
 70
0
  9
$DIMSAH
 70
0
  9
$DIMBLK1
  1

  9
$DIMBLK2
  1

  9
$DIMSTYLE
  2
ISO-25
  9
$DIMCLRD
 70
0
  9
$DIMCLRE
 70
0
  9
$DIMCLRT
 70
0
  9
$DIMTFAC
 40
1.0
  9
$DIMGAP
 40
0.625
  9
$DIMJUST
 70
0
  9
$DIMSD1
 70
0
  9
$DIMSD2
 70
0
  9
$DIMTOLJ
 70
0
  9
$DIMTZIN
 70
8
  9
$DIMALTZ
 70
0
  9
$DIMALTTZ
 70
0
  9
$DIMUPT
 70
0
  9
$DIMDEC
 70
2
  9
$DIMTDEC
 70
2
  9
$DIMALTU
 70
2
  9
$DIMALTTD
 70
3
  9
$DIMTXSTY
  7
Standard
  9
$DIMAUNIT
 70
0
  9
$DIMADEC
 70
0
  9
$DIMALTRND
 40
0.0
  9
$DIMAZIN
 70
0
  9
$DIMDSEP
 70
44
  9
$DIMATFIT
 70
3
  9
$DIMFRAC
 70
0
  9
$DIMLDRBLK
  1

  9
$DIMLUNIT
 70
2
  9
$DIMLWD
 70
-2
  9
$DIMLWE
 70
-2
  9
$DIMTMOVE
 70
0
  9
$DIMFXL
 40
1.0
  9
$DIMFXLON
 70
0
  9
$DIMJOGANG
 40
0.785398163397
  9
$DIMTFILL
 70
0
  9
$DIMTFILLCLR
 70
0
  9
$DIMARCSYM
 70
0
  9
$DIMLTYPE
  6

  9
$DIMLTEX1
  6

  9
$DIMLTEX2
  6

  9
$DIMTXTDIRECTION
 70
0
  9
$LUNITS
 70
2
  9
$LUPREC
 70
4
  9
$SKETCHINC
 40
1.0
  9
$FILLETRAD
 40
10.0
  9
$AUNITS
 70
0
  9
$AUPREC
 70
2
  9
$MENU
  1
.
  9
$ELEVATION
 40
0.0
  9
$PELEVATION
 40
0.0
  9
$THICKNESS
 40
0.0
  9
$LIMCHECK
 70
0
  9
$CHAMFERA
 40
0.0
  9
$CHAMFERB
 40
0.0
  9
$CHAMFERC
 40
0.0
  9
$CHAMFERD
 40
0.0
  9
$SKPOLY
 70
0
  9
$TDCREATE
 40
2460392.695520833
  9
$TDUCREATE
 40
2458532.153996898
  9
$TDUPDATE
 40
2460392.695520833
  9
$TDUUPDATE
 40
2458532.1544311
  9
$TDINDWG
 40
0.0
  9
$TDUSRTIMER
 40
0.0
  9
$USRTIMER
 70
1
  9
$ANGBASE
 50
0.0
  9
$ANGDIR
 70
0
  9
$PDMODE
 70
0
  9
$PDSIZE
 40
0.0
  9
$PLINEWID
 40
0.0
  9
$SPLFRAME
 70
0
  9
$SPLINETYPE
 70
6
  9
$SPLINESEGS
 70
8
  9
$HANDSEED
  5
1CC
  9
$SURFTAB1
 70
6
  9
$SURFTAB2
 70
6
  9
$SURFTYPE
 70
6
  9
$SURFU
 70
6
  9
$SURFV
 70
6
  9
$UCSBASE
  2

  9
$UCSNAME
  2

  9
$UCSORG
 10
0.0
 20
0.0
 30
0.0
  9
$UCSXDIR
 10
1.0
 20
0.0
 30
0.0
  9
$UCSYDIR
 10
0.0
 20
1.0
 30
0.0
  9
$UCSORTHOREF
  2

  9
$UCSORTHOVIEW
 70
0
  9
$UCSORGTOP
 10
0.0
 20
0.0
 30
0.0
  9
$UCSORGBOTTOM
 10
0.0
 20
0.0
 30
0.0
  9
$UCSORGLEFT
 10
0.0
 20
0.0
 30
0.0
  9
$UCSORGRIGHT
 10
0.0
 20
0.0
 30
0.0
  9
$UCSORGFRONT
 10
0.0
 20
0.0
 30
0.0
  9
$UCSORGBACK
 10
0.0
 20
0.0
 30
0.0
  9
$PUCSBASE
  2

  9
$PUCSNAME
  2

  9
$PUCSORG
 10
0.0
 20
0.0
 30
0.0
  9
$PUCSXDIR
 10
1.0
 20
0.0
 30
0.0
  9
$PUCSYDIR
 10
0.0
 20
1.0
 30
0.0
  9
$PUCSORTHOREF
  2

  9
$PUCSORTHOVIEW
 70
0
  9
$PUCSORGTOP
 10
0.0
 20
0.0
 30
0.0
  9
$PUCSORGBOTTOM
 10
0.0
 20
0.0
 30
0.0
  9
$PUCSORGLEFT
 10
0.0
 20
0.0
 30
0.0
  9
$PUCSORGRIGHT
 10
0.0
 20
0.0
 30
0.0
  9
$PUCSORGFRONT
 10
0.0
 20
0.0
 30
0.0
  9
$PUCSORGBACK
 10
0.0
 20
0.0
 30
0.0
  9
$USERI1
 70
0
  9
$USERI2
 70
0
  9
$USERI3
 70
0
  9
$USERI4
 70
0
  9
$USERI5
 70
0
  9
$USERR1
 40
0.0
  9
$USERR2
 40
0.0
  9
$USERR3
 40
0.0
  9
$USERR4
 40
0.0
  9
$USERR5
 40
0.0
  9
$WORLDVIEW
 70
1
  9
$SHADEDGE
 70
3
  9
$SHADEDIF
 70
70
  9
$TILEMODE
 70
1
  9
$MAXACTVP
 70
64
  9
$PINSBASE
 10
0.0
 20
0.0
 30
0.0
  9
$PLIMCHECK
 70
0
  9
$PEXTMIN
 10
1e+20
 20
1e+20
 30
1e+20
  9
$PEXTMAX
 10
-1e+20
 20
-1e+20
 30
-1e+20
  9
$PLIMMIN
 10
0.0
 20
0.0
  9
$PLIMMAX
 10
420.0
 20
297.0
  9
$UNITMODE
 70
0
  9
$VISRETAIN
 70
1
  9
$PLINEGEN
 70
0
  9
$PSLTSCALE
 70
1
  9
$TREEDEPTH
 70
3020
  9
$CMLSTYLE
  2
Standard
  9
$CMLJUST
 70
0
  9
$CMLSCALE
 40
20.0
  9
$PROXYGRAPHICS
 70
1
  9
$MEASUREMENT
 70
1
  9
$CELWEIGHT
370
-1
  9
$ENDCAPS
280
0
  9
$JOINSTYLE
280
0
  9
$LWDISPLAY
290
0
  9
$INSUNITS
 70
6
  9
$HYPERLINKBASE
  1

  9
$STYLESHEET
  1

  9
$XEDIT
290
1
  9
$CEPSNTYPE
380
0
  9
$PSTYLEMODE
290
1
  9
$FINGERPRINTGUID
  2
{656DB7B1-E4EC-455C-AA94-3566081ECD27}
  9
$VERSIONGUID
  2
{C0FF1B88-0AD7-4203-BBA8-FB4B4B5D3F7E}
  9
$EXTNAMES
290
1
  9
$PSVPSCALE
 40
0.0
  9
$OLESTARTUP
290
0
  9
$SORTENTS
280
127
  9
$INDEXCTL
280
0
  9
$HIDETEXT
280
1
  9
$XCLIPFRAME
280
0
  9
$HALOGAP
280
0
  9
$OBSCOLOR
 70
257
  9
$OBSLTYPE
280
0
  9
$INTERSECTIONDISPLAY
280
0
  9
$INTERSECTIONCOLOR
 70
257
  9
$DIMASSOC
280
2
  9
$PROJECTNAME
  1

  9
$CAMERADISPLAY
290
0
  9
$LENSLENGTH
 40
50.0
  9
$CAMERAHEIGHT
 40
0.0
  9
$STEPSPERSEC
 40
24.0
  9
$STEPSIZE
 40
100.0
  9
$3DDWFPREC
 40
2.0
  9
$PSOLWIDTH
 40
0.005
  9
$PSOLHEIGHT
 40
0.08
  9
$LOFTANG1
 40
1.570796326795
  9
$LOFTANG2
 40
1.570796326795
  9
$LOFTMAG1
 40
0.0
  9
$LOFTMAG2
 40
0.0
  9
$LOFTPARAM
 70
7
  9
$LOFTNORMALS
280
1
  9
$LATITUDE
 40
37.795
  9
$LONGITUDE
 40
-122.394
  9
$NORTHDIRECTION
 40
0.0
  9
$TIMEZONE
 70
-8000
  9
$LIGHTGLYPHDISPLAY
280
1
  9
$TILEMODELIGHTSYNCH
280
1
  9
$CMATERIAL
347
20
  9
$SOLIDHIST
280
0
  9
$SHOWHIST
280
1
  9
$DWFFRAME
280
2
  9
$DGNFRAME
280
2
  9
$REALWORLDSCALE
290
1
  9
$INTERFERECOLOR
 62
256
  9
$CSHADOW
280
0
  9
$SHADOWPLANELOCATION
 40
0.0
  0
ENDSEC
  0
SECTION
  2
CLASSES
  0
CLASS
  1
ACDBDICTIONARYWDFLT
  2
AcDbDictionaryWithDefault
  3
ObjectDBX Classes
 90
0
 91
0
280
0
281
0
  0
CLASS
  1
SUN
  2
AcDbSun
  3
SCENEOE
 90
1153
 91
0
280
0
281
0
  0
CLASS
  1
VISUALSTYLE
  2
AcDbVisualStyle
  3
ObjectDBX Classes
 90
4095
 91
0
280
0
281
0
  0
CLASS
  1
MATERIAL
  2
AcDbMaterial
  3
ObjectDBX Classes
 90
1153
 91
0
280
0
281
0
  0
CLASS
  1
SCALE
  2
AcDbScale
  3
ObjectDBX Classes
 90
1153
 91
0
280
0
281
0
  0
CLASS
  1
TABLESTYLE
  2
AcDbTableStyle
  3
ObjectDBX Classes
 90
4095
 91
0
280
0
281
0
  0
CLASS
  1
MLEADERSTYLE
  2
AcDbMLeaderStyle
  3
ACDB_MLEADERSTYLE_CLASS
 90
4095
 91
0
280
0
281
0
  0
CLASS
  1
DICTIONARYVAR
  2
AcDbDictionaryVar
  3
ObjectDBX Classes
 90
0
 91
0
280
0
281
0
  0
CLASS
  1
CELLSTYLEMAP
  2
AcDbCellStyleMap
  3
ObjectDBX Classes
 90
1152
 91
0
280
0
281
0
  0
CLASS
  1
MENTALRAYRENDERSETTINGS
  2
AcDbMentalRayRenderSettings
  3
SCENEOE
 90
1024
 91
0
280
0
281
0
  0
CLASS
  1
ACDBDETAILVIEWSTYLE
  2
AcDbDetailViewStyle
  3
ObjectDBX Classes
 90
1025
 91
0
280
0
281
0
  0
CLASS
  1
ACDBSECTIONVIEWSTYLE
  2
AcDbSectionViewStyle
  3
ObjectDBX Classes
 90
1025
 91
0
280
0
281
0
  0
CLASS
  1
RASTERVARIABLES
  2
AcDbRasterVariables
  3
ISM
 90
0
 91
0
280
0
281
0
  0
CLASS
  1
LAYOUT
  2
AcDbLayout
  3
ObjectDBX Classes
 90
0
 91
0
280
0
281
0
  0
CLASS
  1
ACDBPLACEHOLDER
  2
AcDbPlaceHolder
  3
ObjectDBX Classes
 90
0
 91
0
280
0
281
0
  0
ENDSEC
  0
SECTION
  2
TABLES
  0
TABLE
  2
VPORT
  5
8
330
0
100
AcDbSymbolTable
 70
1
  0
VPORT
  5
23
330
8
100
AcDbSymbolTableRecord
100
AcDbViewportTableRecord
  2
*Active
 70
0
 10
0.0
 20
0.0
 11
1.0
 21
1.0
 12
0.0
 22
0.0
 13
0.0
 23
0.0
 14
0.5
 24
0.5
 15
0.5
 25
0.5
 16
0.0
 26
0.0
 36
1.0
 17
0.0
 27
0.0
 37
0.0
 40
1000.0
 41
1.34
 42
50.0
 43
0.0
 44
0.0
 50
0.0
 51
0.0
 71
0
 72
1000
 73
1
 74
3
 75
0
 76
0
 77
0
 78
0
281
0
 65
0
146
0.0
  0
ENDTAB
  0
TABLE
  2
LTYPE
  5
2
330
0
100
AcDbSymbolTable
 70
3
  0
LTYPE
  5
24
330
2
100
AcDbSymbolTableRecord
100
AcDbLinetypeTableRecord
  2
ByBlock
 70
0
  3

 72
65
 73
0
 40
0.0
  0
LTYPE
  5
25
330
2
100
AcDbSymbolTableRecord
100
AcDbLinetypeTableRecord
  2
ByLayer
 70
0
  3

 72
65
 73
0
 40
0.0
  0
LTYPE
  5
26
330
2
100
AcDbSymbolTableRecord
100
AcDbLinetypeTableRecord
  2
Continuous
 70
0
  3

 72
65
 73
0
 40
0.0
  0
ENDTAB
  0
TABLE
  2
LAYER
  5
1
330
0
100
AcDbSymbolTable
 70
5
  0
LAYER
  5
27
330
1
100
AcDbSymbolTableRecord
100
AcDbLayerTableRecord
  2
0
 70
0
 62
7
  6
Continuous
370
-3
390
13
347
21
  0
LAYER
  5
28
330
1
100
AcDbSymbolTableRecord
100
AcDbLayerTableRecord
  2
Defpoints
 70
0
 62
7
  6
Continuous
290
0
370
-3
390
13
347
21
  0
LAYER
  5
30
330
1
100
AcDbSymbolTableRecord
100
AcDbLayerTableRecord
  2
FoilLayer
 70
0
 62
1
  6
Continuous
370
50
390
13
347
21
  0
LAYER
  5
31
330
1
100
AcDbSymbolTableRecord
100
AcDbLayerTableRecord
  2
StringerLayer
 70
0
 62
1
  6
Continuous
370
50
390
13
347
21
  0
LAYER
  5
32
330
1
100
AcDbSymbolTableRecord
100
AcDbLayerTableRecord
  2
SubLayer
 70
0
 62
1
  6
Continuous
370
50
390
13
347
21
  0
ENDTAB
  0
TABLE
  2
STYLE
  5
5
330
0
100
AcDbSymbolTable
 70
2
  0
STYLE
  5
29
330
5
100
AcDbSymbolTableRecord
100
AcDbTextStyleTableRecord
  2
Standard
 70
0
 40
0.0
 41
1.0
 50
0.0
 71
0
 42
2.5
  3
txt
  4

  0
STYLE
  5
2F
330
5
100
AcDbSymbolTableRecord
100
AcDbTextStyleTableRecord
  2
MSゴシック
 70
0
 40
0.0
 41
1.0
 50
0.0
 71
0
 42
2.5
  3
romans
  4

  0
ENDTAB
  0
TABLE
  2
VIEW
  5
7
330
0
100
AcDbSymbolTable
 70
0
  0
ENDTAB
  0
TABLE
  2
UCS
  5
6
330
0
100
AcDbSymbolTable
 70
0
  0
ENDTAB
  0
TABLE
  2
APPID
  5
3
330
0
100
AcDbSymbolTable
 70
3
  0
APPID
  5
2A
330
3
100
AcDbSymbolTableRecord
100
AcDbRegAppTableRecord
  2
ACAD
 70
0
  0
APPID
  5
1C9
330
3
100
AcDbSymbolTableRecord
100
AcDbRegAppTableRecord
  2
HATCHBACKGROUNDCOLOR
 70
0
  0
APPID
  5
1CA
330
3
100
AcDbSymbolTableRecord
100
AcDbRegAppTableRecord
  2
EZDXF
 70
0
  0
ENDTAB
  0
TABLE
  2
DIMSTYLE
  5
4
330
0
100
AcDbSymbolTable
 70
1
100
AcDbDimStyleTable
  0
DIMSTYLE
105
2B
330
4
100
AcDbSymbolTableRecord
100
AcDbDimStyleTableRecord
  2
Standard
 70
0
 40
1.0
 41
2.5
 42
0.625
 43
3.75
 44
1.25
 45
0.0
 46
0.0
 47
0.0
 48
0.0
 49
2.5
140
2.5
141
2.5
142
0.0
143
0.03937007874
144
1.0
145
0.0
146
1.0
147
0.625
148
0.0
 69
0
 70
0
 71
0
 72
0
 73
0
 74
0
 75
0
 76
0
 77
1
 78
8
 79
3
170
0
171
3
172
1
173
0
174
0
175
0
176
0
177
0
178
0
179
2
271
2
272
2
273
2
274
3
275
0
276
0
277
2
278
44
279
0
280
0
281
0
282
0
283
0
284
8
285
0
286
0
288
0
289
3
290
0
371
-2
372
-2
  0
ENDTAB
  0
TABLE
  2
BLOCK_RECORD
  5
9
330
0
100
AcDbSymbolTable
 70
2
  0
BLOCK_RECORD
  5
17
330
9
100
AcDbSymbolTableRecord
100
AcDbBlockTableRecord
  2
*Model_Space
340
1A
 70
0
280
1
281
0
  0
BLOCK_RECORD
  5
1B
330
9
100
AcDbSymbolTableRecord
100
AcDbBlockTableRecord
  2
*Paper_Space
340
1E
 70
0
280
1
281
0
  0
ENDTAB
  0
ENDSEC
  0
SECTION
  2
BLOCKS
  0
BLOCK
  5
18
330
17
100
AcDbEntity
  8
0
100
AcDbBlockBegin
  2
*Model_Space
 70
0
 10
0.0
 20
0.0
 30
0.0
  3
*Model_Space
  1

  0
ENDBLK
  5
19
330
17
100
AcDbEntity
  8
0
100
AcDbBlockEnd
  0
BLOCK
  5
1C
330
1B
100
AcDbEntity
  8
0
100
AcDbBlockBegin
  2
*Paper_Space
 70
0
 10
0.0
 20
0.0
 30
0.0
  3
*Paper_Space
  1

  0
ENDBLK
  5
1D
330
1B
100
AcDbEntity
  8
0
100
AcDbBlockEnd
  0
ENDSEC
  0
SECTION
  2
ENTITIES
  0
LINE
  5
33
330
17
100
AcDbEntity
  8
FoilLayer
100
AcDbLine
 10
666.3102025862845
 20
1.1716328415672868
 30
0.0
 11
663.0492635867299
 21
2.215340244795385
 31
0.0
  0
LINE
  5
34
330
17
100
AcDbEntity
  8
FoilLayer
100
AcDbLine
 10
663.0492635867299
 20
2.215340244795385
 30
0.0
 11
657.8066647003709
 21
3.796763209763932
 31
0.0
  0
LINE
  5
35
330
17
100
AcDbEntity
  8
FoilLayer
100
AcDbLine
 10
657.8066647003709
 20
3.796763209763932
 30
0.0
 11
652.1335781748617
 21
5.551978453613629
 31
0.0
  0
LINE
  5
36
330
17
100
AcDbEntity
  8
FoilLayer
100
AcDbLine
 10
652.1335781748617
 20
5.551978453613629
 30
0.0
 11
645.938435525082
 21
7.427989112629941
 31
0.0
  0
LINE
  5
37
330
17
100
AcDbEntity
  8
FoilLayer
100
AcDbLine
 10
645.938435525082
 20
7.427989112629941
 30
0.0
 11
639.1839364193083
 21
9.427201428274815
 31
0.0
  0
LINE
  5
38
330
17
100
AcDbEntity
  8
FoilLayer
100
AcDbLine
 10
639.1839364193083
 20
9.427201428274815
 30
0.0
 11
631.9180922815624
 21
11.57646636045906
 31
0.0
  0
LINE
  5
39
330
17
100
AcDbEntity
  8
FoilLayer
100
AcDbLine
 10
631.9180922815624
 20
11.57646636045906
 30
0.0
 11
624.2269861159821
 21
13.865544970239354
 31
0.0
  0
LINE
  5
3A
330
17
100
AcDbEntity
  8
FoilLayer
100
AcDbLine
 10
624.2269861159821
 20
13.865544970239354
 30
0.0
 11
616.1799083088625
 21
16.24742374431255
 31
0.0
  0
LINE
  5
3B
330
17
100
AcDbEntity
  8
FoilLayer
100
AcDbLine
 10
616.1799083088625
 20
16.24742374431255
 30
0.0
 11
607.9016082095462
 21
18.693878892336436
 31
0.0
  0
LINE
  5
3C
330
17
100
AcDbEntity
  8
FoilLayer
100
AcDbLine
 10
607.9016082095462
 20
18.693878892336436
 30
0.0
 11
599.5456816496477
 21
21.133436862208445
 31
0.0
  0
LINE
  5
3D
330
17
100
AcDbEntity
  8
FoilLayer
100
AcDbLine
 10
599.5456816496477
 20
21.133436862208445
 30
0.0
 11
591.1236346817524
 21
23.533072532454618
 31
0.0
  0
LINE
  5
3E
330
17
100
AcDbEntity
  8
FoilLayer
100
AcDbLine
 10
591.1236346817524
 20
23.533072532454618
 30
0.0
 11
582.5819621037886
 21
26.030130438655586
 31
0.0
  0
LINE
  5
3F
330
17
100
AcDbEntity
  8
FoilLayer
100
AcDbLine
 10
582.5819621037886
 20
26.030130438655586
 30
0.0
 11
573.9402697726906
 21
28.569457721076482
 31
0.0
  0
LINE
  5
40
330
17
100
AcDbEntity
  8
FoilLayer
100
AcDbLine
 10
573.9402697726906
 20
28.569457721076482
 30
0.0
 11
565.1533513469417
 21
31.087073939591697
 31
0.0
  0
LINE
  5
41
330
17
100
AcDbEntity
  8
FoilLayer
100
AcDbLine
 10
565.1533513469417
 20
31.087073939591697
 30
0.0
 11
556.2245318532555
 21
33.632396989074486
 31
0.0
  0
LINE
  5
42
330
17
100
AcDbEntity
  8
FoilLayer
100
AcDbLine
 10
556.2245318532555
 20
33.632396989074486
 30
0.0
 11
547.1461435302375
 21
36.18007891550228
 31
0.0
  0
LINE
  5
43
330
17
100
AcDbEntity
  8
FoilLayer
100
AcDbLine
 10
547.1461435302375
 20
36.18007891550228
 30
0.0
 11
537.8945143439108
 21
38.78864069904131
 31
0.0
  0
LINE
  5
44
330
17
100
AcDbEntity
  8
FoilLayer
100
AcDbLine
 10
537.8945143439108
 20
38.78864069904131
 30
0.0
 11
528.4959108448708
 21
41.43279776944364
 31
0.0
  0
LINE
  5
45
330
17
100
AcDbEntity
  8
FoilLayer
100
AcDbLine
 10
528.4959108448708
 20
41.43279776944364
 30
0.0
 11
518.9906139759472
 21
44.09939488470054
 31
0.0
  0
LINE
  5
46
330
17
100
AcDbEntity
  8
FoilLayer
100
AcDbLine
 10
518.9906139759472
 20
44.09939488470054
 30
0.0
 11
509.41757572584424
 21
46.781385350967284
 31
0.0
  0
LINE
  5
47
330
17
100
AcDbEntity
  8
FoilLayer
100
AcDbLine
 10
509.41757572584424
 20
46.781385350967284
 30
0.0
 11
499.81390605647675
 21
49.47161147445146
 31
0.0
  0
LINE
  5
48
330
17
100
AcDbEntity
  8
FoilLayer
100
AcDbLine
 10
499.81390605647675
 20
49.47161147445146
 30
0.0
 11
490.20644240544937
 21
52.155581406007585
 31
0.0
  0
LINE
  5
49
330
17
100
AcDbEntity
  8
FoilLayer
100
AcDbLine
 10
490.20644240544937
 20
52.155581406007585
 30
0.0
 11
480.60233437410386
 21
54.82514304404429
 31
0.0
  0
LINE
  5
4A
330
17
100
AcDbEntity
  8
FoilLayer
100
AcDbLine
 10
480.60233437410386
 20
54.82514304404429
 30
0.0
 11
471.0026781467702
 21
57.47882487645355
 31
0.0
  0
LINE
  5
4B
330
17
100
AcDbEntity
  8
FoilLayer
100
AcDbLine
 10
471.0026781467702
 20
57.47882487645355
 30
0.0
 11
461.4105992292831
 21
60.11643362100286
 31
0.0
  0
LINE
  5
4C
330
17
100
AcDbEntity
  8
FoilLayer
100
AcDbLine
 10
461.4105992292831
 20
60.11643362100286
 30
0.0
 11
451.8370875186116
 21
62.737375765820076
 31
0.0
  0
LINE
  5
4D
330
17
100
AcDbEntity
  8
FoilLayer
100
AcDbLine
 10
451.8370875186116
 20
62.737375765820076
 30
0.0
 11
442.3012180704337
 21
65.3336779574287
 31
0.0
  0
LINE
  5
4E
330
17
100
AcDbEntity
  8
FoilLayer
100
AcDbLine
 10
442.3012180704337
 20
65.3336779574287
 30
0.0
 11
432.80438341748163
 21
67.895055341229
 31
0.0
  0
LINE
  5
4F
330
17
100
AcDbEntity
  8
FoilLayer
100
AcDbLine
 10
432.80438341748163
 20
67.895055341229
 30
0.0
 11
423.32861521230734
 21
70.42139526464597
 31
0.0
  0
LINE
  5
50
330
17
100
AcDbEntity
  8
FoilLayer
100
AcDbLine
 10
423.32861521230734
 20
70.42139526464597
 30
0.0
 11
413.86644769117913
 21
72.9184271039023
 31
0.0
  0
LINE
  5
51
330
17
100
AcDbEntity
  8
FoilLayer
100
AcDbLine
 10
413.86644769117913
 20
72.9184271039023
 30
0.0
 11
404.42653848089344
 21
75.38513036224427
 31
0.0
  0
LINE
  5
52
330
17
100
AcDbEntity
  8
FoilLayer
100
AcDbLine
 10
404.42653848089344
 20
75.38513036224427
 30
0.0
 11
399.7558938554447
 21
76.5913965873627
 31
0.0
  0
LINE
  5
53
330
17
100
AcDbEntity
  8
FoilLayer
100
AcDbLine
 10
399.7558938554447
 20
76.5913965873627
 30
0.0
 11
399.4933303953419
 21
75.57475484642401
 31
0.0
  0
LINE
  5
54
330
17
100
AcDbEntity
  8
FoilLayer
100
AcDbLine
 10
399.4933303953419
 20
75.57475484642401
 30
0.0
 11
394.75438830499377
 21
76.79866839658682
 31
0.0
  0
LINE
  5
55
330
17
100
AcDbEntity
  8
FoilLayer
100
AcDbLine
 10
394.75438830499377
 20
76.79866839658682
 30
0.0
 11
385.367392237187
 21
79.18997467743114
 31
0.0
  0
LINE
  5
56
330
17
100
AcDbEntity
  8
FoilLayer
100
AcDbLine
 10
385.367392237187
 20
79.18997467743114
 30
0.0
 11
375.9964322607392
 21
81.54220992599579
 31
0.0
  0
LINE
  5
57
330
17
100
AcDbEntity
  8
FoilLayer
100
AcDbLine
 10
375.9964322607392
 20
81.54220992599579
 30
0.0
 11
366.634564002086
 21
83.85556472222613
 31
0.0
  0
LINE
  5
58
330
17
100
AcDbEntity
  8
FoilLayer
100
AcDbLine
 10
366.634564002086
 20
83.85556472222613
 30
0.0
 11
357.2753408204567
 21
86.13231021829215
 31
0.0
  0
LINE
  5
59
330
17
100
AcDbEntity
  8
FoilLayer
100
AcDbLine
 10
357.2753408204567
 20
86.13231021829215
 30
0.0
 11
347.9195051577112
 21
88.37686313670653
 31
0.0
  0
LINE
  5
5A
330
17
100
AcDbEntity
  8
FoilLayer
100
AcDbLine
 10
347.9195051577112
 20
88.37686313670653
 30
0.0
 11
338.59228370282017
 21
90.58927821244629
 31
0.0
  0
LINE
  5
5B
330
17
100
AcDbEntity
  8
FoilLayer
100
AcDbLine
 10
338.59228370282017
 20
90.58927821244629
 30
0.0
 11
329.32702255706147
 21
92.75741398784079
 31
0.0
  0
LINE
  5
5C
330
17
100
AcDbEntity
  8
FoilLayer
100
AcDbLine
 10
329.32702255706147
 20
92.75741398784079
 30
0.0
 11
320.1327546496053
 21
94.86617644424794
 31
0.0
  0
LINE
  5
5D
330
17
100
AcDbEntity
  8
FoilLayer
100
AcDbLine
 10
320.1327546496053
 20
94.86617644424794
 30
0.0
 11
310.9977581825176
 21
96.90935307521579
 31
0.0
  0
LINE
  5
5E
330
17
100
AcDbEntity
  8
FoilLayer
100
AcDbLine
 10
310.9977581825176
 20
96.90935307521579
 30
0.0
 11
301.9077584907185
 21
98.88616871575344
 31
0.0
  0
LINE
  5
5F
330
17
100
AcDbEntity
  8
FoilLayer
100
AcDbLine
 10
301.9077584907185
 20
98.88616871575344
 30
0.0
 11
292.85019289947854
 21
100.79731068915139
 31
0.0
  0
LINE
  5
60
330
17
100
AcDbEntity
  8
FoilLayer
100
AcDbLine
 10
292.85019289947854
 20
100.79731068915139
 30
0.0
 11
283.8138915007793
 21
102.644227587221
 31
0.0
  0
LINE
  5
61
330
17
100
AcDbEntity
  8
FoilLayer
100
AcDbLine
 10
283.8138915007793
 20
102.644227587221
 30
0.0
 11
274.79272392228097
 21
104.42904020975881
 31
0.0
  0
LINE
  5
62
330
17
100
AcDbEntity
  8
FoilLayer
100
AcDbLine
 10
274.79272392228097
 20
104.42904020975881
 30
0.0
 11
265.7873814312661
 21
106.15208643013104
 31
0.0
  0
LINE
  5
63
330
17
100
AcDbEntity
  8
FoilLayer
100
AcDbLine
 10
265.7873814312661
 20
106.15208643013104
 30
0.0
 11
256.799313014816
 21
107.81055425925673
 31
0.0
  0
LINE
  5
64
330
17
100
AcDbEntity
  8
FoilLayer
100
AcDbLine
 10
256.799313014816
 20
107.81055425925673
 30
0.0
 11
247.8209448811491
 21
109.40156500946438
 31
0.0
  0
LINE
  5
65
330
17
100
AcDbEntity
  8
FoilLayer
100
AcDbLine
 10
247.8209448811491
 20
109.40156500946438
 30
0.0
 11
238.83942045344816
 21
110.92637514859987
 31
0.0
  0
LINE
  5
66
330
17
100
AcDbEntity
  8
FoilLayer
100
AcDbLine
 10
238.83942045344816
 20
110.92637514859987
 30
0.0
 11
229.84764877575583
 21
112.38806242836701
 31
0.0
  0
LINE
  5
67
330
17
100
AcDbEntity
  8
FoilLayer
100
AcDbLine
 10
229.84764877575583
 20
112.38806242836701
 30
0.0
 11
220.8427927596905
 21
113.78853501861043
 31
0.0
  0
LINE
  5
68
330
17
100
AcDbEntity
  8
FoilLayer
100
AcDbLine
 10
220.8427927596905
 20
113.78853501861043
 30
0.0
 11
211.82403140204963
 21
115.12906397993292
 31
0.0
  0
LINE
  5
69
330
17
100
AcDbEntity
  8
FoilLayer
100
AcDbLine
 10
211.82403140204963
 20
115.12906397993292
 30
0.0
 11
202.7927226942113
 21
116.41038189781464
 31
0.0
  0
LINE
  5
6A
330
17
100
AcDbEntity
  8
FoilLayer
100
AcDbLine
 10
202.7927226942113
 20
116.41038189781464
 30
0.0
 11
193.75251798119973
 21
117.6324427509762
 31
0.0
  0
LINE
  5
6B
330
17
100
AcDbEntity
  8
FoilLayer
100
AcDbLine
 10
193.75251798119973
 20
117.6324427509762
 30
0.0
 11
184.70557518596274
 21
118.79331664425413
 31
0.0
  0
LINE
  5
6C
330
17
100
AcDbEntity
  8
FoilLayer
100
AcDbLine
 10
184.70557518596274
 20
118.79331664425413
 30
0.0
 11
175.6461234257805
 21
119.89126156234994
 31
0.0
  0
LINE
  5
6D
330
17
100
AcDbEntity
  8
FoilLayer
100
AcDbLine
 10
175.6461234257805
 20
119.89126156234994
 30
0.0
 11
166.56537654960437
 21
120.9281260338097
 31
0.0
  0
LINE
  5
6E
330
17
100
AcDbEntity
  8
FoilLayer
100
AcDbLine
 10
166.56537654960437
 20
120.9281260338097
 30
0.0
 11
157.460111724679
 21
121.90720788957123
 31
0.0
  0
LINE
  5
6F
330
17
100
AcDbEntity
  8
FoilLayer
100
AcDbLine
 10
157.460111724679
 20
121.90720788957123
 30
0.0
 11
148.33223140184964
 21
122.83136760284584
 31
0.0
  0
LINE
  5
70
330
17
100
AcDbEntity
  8
FoilLayer
100
AcDbLine
 10
148.33223140184964
 20
122.83136760284584
 30
0.0
 11
139.19085993588158
 21
123.70225979338846
 31
0.0
  0
LINE
  5
71
330
17
100
AcDbEntity
  8
FoilLayer
100
AcDbLine
 10
139.19085993588158
 20
123.70225979338846
 30
0.0
 11
130.04632877098413
 21
124.51858010179214
 31
0.0
  0
LINE
  5
72
330
17
100
AcDbEntity
  8
FoilLayer
100
AcDbLine
 10
130.04632877098413
 20
124.51858010179214
 30
0.0
 11
120.90436140336988
 21
125.2776883642145
 31
0.0
  0
LINE
  5
73
330
17
100
AcDbEntity
  8
FoilLayer
100
AcDbLine
 10
120.90436140336988
 20
125.2776883642145
 30
0.0
 11
111.76727232459308
 21
125.97884238462593
 31
0.0
  0
LINE
  5
74
330
17
100
AcDbEntity
  8
FoilLayer
100
AcDbLine
 10
111.76727232459308
 20
125.97884238462593
 30
0.0
 11
102.63943857158597
 21
126.6213898480594
 31
0.0
  0
LINE
  5
75
330
17
100
AcDbEntity
  8
FoilLayer
100
AcDbLine
 10
102.63943857158597
 20
126.6213898480594
 30
0.0
 11
93.52368885147462
 21
127.20352056927966
 31
0.0
  0
LINE
  5
76
330
17
100
AcDbEntity
  8
FoilLayer
100
AcDbLine
 10
93.52368885147462
 20
127.20352056927966
 30
0.0
 11
84.41947770474894
 21
127.72333361126
 31
0.0
  0
LINE
  5
77
330
17
100
AcDbEntity
  8
FoilLayer
100
AcDbLine
 10
84.41947770474894
 20
127.72333361126
 30
0.0
 11
75.32398795356835
 21
128.18041158675254
 31
0.0
  0
LINE
  5
78
330
17
100
AcDbEntity
  8
FoilLayer
100
AcDbLine
 10
75.32398795356835
 20
128.18041158675254
 30
0.0
 11
66.23738850060118
 21
128.5750676883358
 31
0.0
  0
LINE
  5
79
330
17
100
AcDbEntity
  8
FoilLayer
100
AcDbLine
 10
66.23738850060118
 20
128.5750676883358
 30
0.0
 11
57.160598286010554
 21
128.90655653211905
 31
0.0
  0
LINE
  5
7A
330
17
100
AcDbEntity
  8
FoilLayer
100
AcDbLine
 10
57.160598286010554
 20
128.90655653211905
 30
0.0
 11
48.092050317213136
 21
129.17382028253851
 31
0.0
  0
LINE
  5
7B
330
17
100
AcDbEntity
  8
FoilLayer
100
AcDbLine
 10
48.092050317213136
 20
129.17382028253851
 30
0.0
 11
39.030095469095215
 21
129.3768603302682
 31
0.0
  0
LINE
  5
7C
330
17
100
AcDbEntity
  8
FoilLayer
100
AcDbLine
 10
39.030095469095215
 20
129.3768603302682
 30
0.0
 11
29.976372481939677
 21
129.51588658358554
 31
0.0
  0
LINE
  5
7D
330
17
100
AcDbEntity
  8
FoilLayer
100
AcDbLine
 10
29.976372481939677
 20
129.51588658358554
 30
0.0
 11
20.929616433607464
 21
129.5889872291701
 31
0.0
  0
LINE
  5
7E
330
17
100
AcDbEntity
  8
FoilLayer
100
AcDbLine
 10
20.929616433607464
 20
129.5889872291701
 30
0.0
 11
11.8855121348372
 21
129.59541653642867
 31
0.0
  0
LINE
  5
7F
330
17
100
AcDbEntity
  8
FoilLayer
100
AcDbLine
 10
11.8855121348372
 20
129.59541653642867
 30
0.0
 11
2.839438254025879
 21
129.53655386507253
 31
0.0
  0
LINE
  5
80
330
17
100
AcDbEntity
  8
FoilLayer
100
AcDbLine
 10
2.839438254025879
 20
129.53655386507253
 30
0.0
 11
-6.205655554218254
 21
129.41463651345725
 31
0.0
  0
LINE
  5
81
330
17
100
AcDbEntity
  8
FoilLayer
100
AcDbLine
 10
-6.205655554218254
 20
129.41463651345725
 30
0.0
 11
-15.24353338384725
 21
129.23030974105853
 31
0.0
  0
LINE
  5
82
330
17
100
AcDbEntity
  8
FoilLayer
100
AcDbLine
 10
-15.24353338384725
 20
129.23030974105853
 30
0.0
 11
-24.268555721202574
 21
128.98272757730987
 31
0.0
  0
LINE
  5
83
330
17
100
AcDbEntity
  8
FoilLayer
100
AcDbLine
 10
-24.268555721202574
 20
128.98272757730987
 30
0.0
 11
-33.27733527154288
 21
128.67050873464976
 31
0.0
  0
LINE
  5
84
330
17
100
AcDbEntity
  8
FoilLayer
100
AcDbLine
 10
-33.27733527154288
 20
128.67050873464976
 30
0.0
 11
-42.26933841073304
 21
128.29236866433087
 31
0.0
  0
LINE
  5
85
330
17
100
AcDbEntity
  8
FoilLayer
100
AcDbLine
 10
-42.26933841073304
 20
128.29236866433087
 30
0.0
 11
-51.244186966867005
 21
127.84829941901727
 31
0.0
  0
LINE
  5
86
330
17
100
AcDbEntity
  8
FoilLayer
100
AcDbLine
 10
-51.244186966867005
 20
127.84829941901727
 30
0.0
 11
-60.199204360809574
 21
127.3393517975772
 31
0.0
  0
LINE
  5
87
330
17
100
AcDbEntity
  8
FoilLayer
100
AcDbLine
 10
-60.199204360809574
 20
127.3393517975772
 30
0.0
 11
-69.12588284603453
 21
126.7682134679614
 31
0.0
  0
LINE
  5
88
330
17
100
AcDbEntity
  8
FoilLayer
100
AcDbLine
 10
-69.12588284603453
 20
126.7682134679614
 30
0.0
 11
-78.00759768359814
 21
126.13590398250426
 31
0.0
  0
LINE
  5
89
330
17
100
AcDbEntity
  8
FoilLayer
100
AcDbLine
 10
-78.00759768359814
 20
126.13590398250426
 30
0.0
 11
-86.830921870147
 21
125.43917355782027
 31
0.0
  0
LINE
  5
8A
330
17
100
AcDbEntity
  8
FoilLayer
100
AcDbLine
 10
-86.830921870147
 20
125.43917355782027
 30
0.0
 11
-95.59008356793481
 21
124.67200883814581
 31
0.0
  0
LINE
  5
8B
330
17
100
AcDbEntity
  8
FoilLayer
100
AcDbLine
 10
-95.59008356793481
 20
124.67200883814581
 30
0.0
 11
-104.29220017279158
 21
123.82542126031554
 31
0.0
  0
LINE
  5
8C
330
17
100
AcDbEntity
  8
FoilLayer
100
AcDbLine
 10
-104.29220017279158
 20
123.82542126031554
 30
0.0
 11
-112.9609177712062
 21
122.89273493988904
 31
0.0
  0
LINE
  5
8D
330
17
100
AcDbEntity
  8
FoilLayer
100
AcDbLine
 10
-112.9609177712062
 20
122.89273493988904
 30
0.0
 11
-121.61528342823891
 21
121.87698289857079
 31
0.0
  0
LINE
  5
8E
330
17
100
AcDbEntity
  8
FoilLayer
100
AcDbLine
 10
-121.61528342823891
 20
121.87698289857079
 30
0.0
 11
-130.25293518423643
 21
120.78501388418448
 31
0.0
  0
LINE
  5
8F
330
17
100
AcDbEntity
  8
FoilLayer
100
AcDbLine
 10
-130.25293518423643
 20
120.78501388418448
 30
0.0
 11
-138.86406035355935
 21
119.6177302829958
 31
0.0
  0
LINE
  5
90
330
17
100
AcDbEntity
  8
FoilLayer
100
AcDbLine
 10
-138.86406035355935
 20
119.6177302829958
 30
0.0
 11
-147.4449757557086
 21
118.37348748529308
 31
0.0
  0
LINE
  5
91
330
17
100
AcDbEntity
  8
FoilLayer
100
AcDbLine
 10
-147.4449757557086
 20
118.37348748529308
 30
0.0
 11
-155.9933065849034
 21
117.05270075754987
 31
0.0
  0
LINE
  5
92
330
17
100
AcDbEntity
  8
FoilLayer
100
AcDbLine
 10
-155.9933065849034
 20
117.05270075754987
 30
0.0
 11
-164.5015303611424
 21
115.65714119480442
 31
0.0
  0
LINE
  5
93
330
17
100
AcDbEntity
  8
FoilLayer
100
AcDbLine
 10
-164.5015303611424
 20
115.65714119480442
 30
0.0
 11
-172.9616970972018
 21
114.18661689894768
 31
0.0
  0
LINE
  5
94
330
17
100
AcDbEntity
  8
FoilLayer
100
AcDbLine
 10
-172.9616970972018
 20
114.18661689894768
 30
0.0
 11
-181.36745852699087
 21
112.64051185880402
 31
0.0
  0
LINE
  5
95
330
17
100
AcDbEntity
  8
FoilLayer
100
AcDbLine
 10
-181.36745852699087
 20
112.64051185880402
 30
0.0
 11
-189.71398006959006
 21
111.01776035105489
 31
0.0
  0
LINE
  5
96
330
17
100
AcDbEntity
  8
FoilLayer
100
AcDbLine
 10
-189.71398006959006
 20
111.01776035105489
 30
0.0
 11
-197.99713455763907
 21
109.31770605779246
 31
0.0
  0
LINE
  5
97
330
17
100
AcDbEntity
  8
FoilLayer
100
AcDbLine
 10
-197.99713455763907
 20
109.31770605779246
 30
0.0
 11
-206.21231055971688
 21
107.54073257920373
 31
0.0
  0
LINE
  5
98
330
17
100
AcDbEntity
  8
FoilLayer
100
AcDbLine
 10
-206.21231055971688
 20
107.54073257920373
 30
0.0
 11
-214.35037492260952
 21
105.68699828739055
 31
0.0
  0
LINE
  5
99
330
17
100
AcDbEntity
  8
FoilLayer
100
AcDbLine
 10
-214.35037492260952
 20
105.68699828739055
 30
0.0
 11
-222.40925085312566
 21
103.74923982936394
 31
0.0
  0
LINE
  5
9A
330
17
100
AcDbEntity
  8
FoilLayer
100
AcDbLine
 10
-222.40925085312566
 20
103.74923982936394
 30
0.0
 11
-230.40382398465465
 21
101.7225114929138
 31
0.0
  0
LINE
  5
9B
330
17
100
AcDbEntity
  8
FoilLayer
100
AcDbLine
 10
-230.40382398465465
 20
101.7225114929138
 30
0.0
 11
-238.33424742043965
 21
99.62057901680062
 31
0.0
  0
LINE
  5
9C
330
17
100
AcDbEntity
  8
FoilLayer
100
AcDbLine
 10
-238.33424742043965
 20
99.62057901680062
 30
0.0
 11
-246.15952296649917
 21
97.46446426906688
 31
0.0
  0
LINE
  5
9D
330
17
100
AcDbEntity
  8
FoilLayer
100
AcDbLine
 10
-246.15952296649917
 20
97.46446426906688
 30
0.0
 11
-253.83604583107922
 21
95.2564819897262
 31
0.0
  0
LINE
  5
9E
330
17
100
AcDbEntity
  8
FoilLayer
100
AcDbLine
 10
-253.83604583107922
 20
95.2564819897262
 30
0.0
 11
-261.3487438520426
 21
92.98620602838912
 31
0.0
  0
LINE
  5
9F
330
17
100
AcDbEntity
  8
FoilLayer
100
AcDbLine
 10
-261.3487438520426
 20
92.98620602838912
 30
0.0
 11
-268.69917463235913
 21
90.64490328215074
 31
0.0
  0
LINE
  5
A0
330
17
100
AcDbEntity
  8
FoilLayer
100
AcDbLine
 10
-268.69917463235913
 20
90.64490328215074
 30
0.0
 11
-275.8926352021862
 21
88.22794696054413
 31
0.0
  0
LINE
  5
A1
330
17
100
AcDbEntity
  8
FoilLayer
100
AcDbLine
 10
-275.8926352021862
 20
88.22794696054413
 30
0.0
 11
-282.9334719328982
 21
85.73426443573933
 31
0.0
  0
LINE
  5
A2
330
17
100
AcDbEntity
  8
FoilLayer
100
AcDbLine
 10
-282.9334719328982
 20
85.73426443573933
 30
0.0
 11
-289.82118983938915
 21
83.16661009369189
 31
0.0
  0
LINE
  5
A3
330
17
100
AcDbEntity
  8
FoilLayer
100
AcDbLine
 10
-289.82118983938915
 20
83.16661009369189
 30
0.0
 11
-296.5488357292221
 21
80.53228361592974
 31
0.0
  0
LINE
  5
A4
330
17
100
AcDbEntity
  8
FoilLayer
100
AcDbLine
 10
-296.5488357292221
 20
80.53228361592974
 30
0.0
 11
-303.1013737046271
 21
77.84157284317858
 31
0.0
  0
LINE
  5
A5
330
17
100
AcDbEntity
  8
FoilLayer
100
AcDbLine
 10
-303.1013737046271
 20
77.84157284317858
 30
0.0
 11
-309.4605748084248
 21
75.10231612379009
 31
0.0
  0
LINE
  5
A6
330
17
100
AcDbEntity
  8
FoilLayer
100
AcDbLine
 10
-309.4605748084248
 20
75.10231612379009
 30
0.0
 11
-315.6145119169677
 21
72.32074006771325
 31
0.0
  0
LINE
  5
A7
330
17
100
AcDbEntity
  8
FoilLayer
100
AcDbLine
 10
-315.6145119169677
 20
72.32074006771325
 30
0.0
 11
-321.551273982172
 21
69.512679358323
 31
0.0
  0
LINE
  5
A8
330
17
100
AcDbEntity
  8
FoilLayer
100
AcDbLine
 10
-321.551273982172
 20
69.512679358323
 30
0.0
 11
-327.24775475244985
 21
66.70375318355457
 31
0.0
  0
LINE
  5
A9
330
17
100
AcDbEntity
  8
FoilLayer
100
AcDbLine
 10
-327.24775475244985
 20
66.70375318355457
 30
0.0
 11
-332.67556877326035
 21
63.91588476124944
 31
0.0
  0
LINE
  5
AA
330
17
100
AcDbEntity
  8
FoilLayer
100
AcDbLine
 10
-332.67556877326035
 20
63.91588476124944
 30
0.0
 11
-337.81342242701567
 21
61.1626138708465
 31
0.0
  0
LINE
  5
AB
330
17
100
AcDbEntity
  8
FoilLayer
100
AcDbLine
 10
-337.81342242701567
 20
61.1626138708465
 30
0.0
 11
-342.65002584154917
 21
58.452175865500735
 31
0.0
  0
LINE
  5
AC
330
17
100
AcDbEntity
  8
FoilLayer
100
AcDbLine
 10
-342.65002584154917
 20
58.452175865500735
 30
0.0
 11
-347.1847699507846
 21
55.78846332239832
 31
0.0
  0
LINE
  5
AD
330
17
100
AcDbEntity
  8
FoilLayer
100
AcDbLine
 10
-347.1847699507846
 20
55.78846332239832
 30
0.0
 11
-351.42513685585294
 21
53.17706309319633
 31
0.0
  0
LINE
  5
AE
330
17
100
AcDbEntity
  8
FoilLayer
100
AcDbLine
 10
-351.42513685585294
 20
53.17706309319633
 30
0.0
 11
-355.38057149881007
 21
50.62763411869951
 31
0.0
  0
LINE
  5
AF
330
17
100
AcDbEntity
  8
FoilLayer
100
AcDbLine
 10
-355.38057149881007
 20
50.62763411869951
 30
0.0
 11
-359.0613436387065
 21
48.14937701041074
 31
0.0
  0
LINE
  5
B0
330
17
100
AcDbEntity
  8
FoilLayer
100
AcDbLine
 10
-359.0613436387065
 20
48.14937701041074
 30
0.0
 11
-362.4781720780498
 21
45.750573917804864
 31
0.0
  0
LINE
  5
B1
330
17
100
AcDbEntity
  8
FoilLayer
100
AcDbLine
 10
-362.4781720780498
 20
45.750573917804864
 30
0.0
 11
-365.6417018118551
 21
43.435112937289254
 31
0.0
  0
LINE
  5
B2
330
17
100
AcDbEntity
  8
FoilLayer
100
AcDbLine
 10
-365.6417018118551
 20
43.435112937289254
 30
0.0
 11
-368.5642534165937
 21
41.201782487468826
 31
0.0
  0
LINE
  5
B3
330
17
100
AcDbEntity
  8
FoilLayer
100
AcDbLine
 10
-368.5642534165937
 20
41.201782487468826
 30
0.0
 11
-371.25957975499983
 21
39.04615007872061
 31
0.0
  0
LINE
  5
B4
330
17
100
AcDbEntity
  8
FoilLayer
100
AcDbLine
 10
-371.25957975499983
 20
39.04615007872061
 30
0.0
 11
-373.74304067598837
 21
36.96120815834304
 31
0.0
  0
LINE
  5
B5
330
17
100
AcDbEntity
  8
FoilLayer
100
AcDbLine
 10
-373.74304067598837
 20
36.96120815834304
 30
0.0
 11
-376.0332215485849
 21
34.93978602940075
 31
0.0
  0
LINE
  5
B6
330
17
100
AcDbEntity
  8
FoilLayer
100
AcDbLine
 10
-376.0332215485849
 20
34.93978602940075
 30
0.0
 11
-378.1490639316169
 21
32.98175494091321
 31
0.0
  0
LINE
  5
B7
330
17
100
AcDbEntity
  8
FoilLayer
100
AcDbLine
 10
-378.1490639316169
 20
32.98175494091321
 30
0.0
 11
-380.1059452692636
 21
31.089752854850456
 31
0.0
  0
LINE
  5
B8
330
17
100
AcDbEntity
  8
FoilLayer
100
AcDbLine
 10
-380.1059452692636
 20
31.089752854850456
 30
0.0
 11
-381.91518391253794
 21
29.263676611983165
 31
0.0
  0
LINE
  5
B9
330
17
100
AcDbEntity
  8
FoilLayer
100
AcDbLine
 10
-381.91518391253794
 20
29.263676611983165
 30
0.0
 11
-383.58692035077377
 21
27.4992484180215
 31
0.0
  0
LINE
  5
BA
330
17
100
AcDbEntity
  8
FoilLayer
100
AcDbLine
 10
-383.58692035077377
 20
27.4992484180215
 30
0.0
 11
-385.13083045918336
 21
25.792667145443485
 31
0.0
  0
LINE
  5
BB
330
17
100
AcDbEntity
  8
FoilLayer
100
AcDbLine
 10
-385.13083045918336
 20
25.792667145443485
 30
0.0
 11
-386.5556554975642
 21
24.14023295513435
 31
0.0
  0
LINE
  5
BC
330
17
100
AcDbEntity
  8
FoilLayer
100
AcDbLine
 10
-386.5556554975642
 20
24.14023295513435
 30
0.0
 11
-387.86951427627974
 21
22.538111765639545
 31
0.0
  0
LINE
  5
BD
330
17
100
AcDbEntity
  8
FoilLayer
100
AcDbLine
 10
-387.86951427627974
 20
22.538111765639545
 30
0.0
 11
-389.0809686178288
 21
20.981316644041847
 31
0.0
  0
LINE
  5
BE
330
17
100
AcDbEntity
  8
FoilLayer
100
AcDbLine
 10
-389.0809686178288
 20
20.981316644041847
 30
0.0
 11
-390.1990575253968
 21
19.467337953681874
 31
0.0
  0
LINE
  5
BF
330
17
100
AcDbEntity
  8
FoilLayer
100
AcDbLine
 10
-390.1990575253968
 20
19.467337953681874
 30
0.0
 11
-391.23005511306934
 21
17.99845994806912
 31
0.0
  0
LINE
  5
C0
330
17
100
AcDbEntity
  8
FoilLayer
100
AcDbLine
 10
-391.23005511306934
 20
17.99845994806912
 30
0.0
 11
-392.17610408927663
 21
16.574695658621636
 31
0.0
  0
LINE
  5
C1
330
17
100
AcDbEntity
  8
FoilLayer
100
AcDbLine
 10
-392.17610408927663
 20
16.574695658621636
 30
0.0
 11
-393.0423494911781
 21
15.183415774334305
 31
0.0
  0
LINE
  5
C2
330
17
100
AcDbEntity
  8
FoilLayer
100
AcDbLine
 10
-393.0423494911781
 20
15.183415774334305
 30
0.0
 11
-393.84138172848543
 21
13.816162810121806
 31
0.0
  0
LINE
  5
C3
330
17
100
AcDbEntity
  8
FoilLayer
100
AcDbLine
 10
-393.84138172848543
 20
13.816162810121806
 30
0.0
 11
-394.5795471226826
 21
12.493703000358591
 31
0.0
  0
LINE
  5
C4
330
17
100
AcDbEntity
  8
FoilLayer
100
AcDbLine
 10
-394.5795471226826
 20
12.493703000358591
 30
0.0
 11
-395.24535671710913
 21
11.23294387961011
 31
0.0
  0
LINE
  5
C5
330
17
100
AcDbEntity
  8
FoilLayer
100
AcDbLine
 10
-395.24535671710913
 20
11.23294387961011
 30
0.0
 11
-395.83080184326974
 21
9.998327126105522
 31
0.0
  0
LINE
  5
C6
330
17
100
AcDbEntity
  8
FoilLayer
100
AcDbLine
 10
-395.83080184326974
 20
9.998327126105522
 30
0.0
 11
-396.35090858191006
 21
8.753781184740543
 31
0.0
  0
LINE
  5
C7
330
17
100
AcDbEntity
  8
FoilLayer
100
AcDbLine
 10
-396.35090858191006
 20
8.753781184740543
 30
0.0
 11
-396.82404028603565
 21
7.537642712345881
 31
0.0
  0
LINE
  5
C8
330
17
100
AcDbEntity
  8
FoilLayer
100
AcDbLine
 10
-396.82404028603565
 20
7.537642712345881
 30
0.0
 11
-397.2407790937694
 21
6.391952375198668
 31
0.0
  0
LINE
  5
C9
330
17
100
AcDbEntity
  8
FoilLayer
100
AcDbLine
 10
-397.2407790937694
 20
6.391952375198668
 30
0.0
 11
-397.58222557049965
 21
5.282425855944536
 31
0.0
  0
LINE
  5
CA
330
17
100
AcDbEntity
  8
FoilLayer
100
AcDbLine
 10
-397.58222557049965
 20
5.282425855944536
 30
0.0
 11
-397.8493750113467
 21
4.166681136579329
 31
0.0
  0
LINE
  5
CB
330
17
100
AcDbEntity
  8
FoilLayer
100
AcDbLine
 10
-397.8493750113467
 20
4.166681136579329
 30
0.0
 11
-398.05914011990086
 21
3.0623267746029947
 31
0.0
  0
LINE
  5
CC
330
17
100
AcDbEntity
  8
FoilLayer
100
AcDbLine
 10
-398.05914011990086
 20
3.0623267746029947
 30
0.0
 11
-398.21877506744744
 21
1.9957692470952992
 31
0.0
  0
LINE
  5
CD
330
17
100
AcDbEntity
  8
FoilLayer
100
AcDbLine
 10
-398.21877506744744
 20
1.9957692470952992
 30
0.0
 11
-398.3227832473671
 21
0.9619512340602377
 31
0.0
  0
LINE
  5
CE
330
17
100
AcDbEntity
  8
FoilLayer
100
AcDbLine
 10
-398.3227832473671
 20
0.9619512340602377
 30
0.0
 11
-398.3684210526317
 21
-0.06643140060966986
 31
0.0
  0
LINE
  5
CF
330
17
100
AcDbEntity
  8
FoilLayer
100
AcDbLine
 10
-398.3684210526317
 20
-0.06643140060966986
 30
0.0
 11
-398.35828381860205
 21
-1.02357136915175
 31
0.0
  0
LINE
  5
D0
330
17
100
AcDbEntity
  8
FoilLayer
100
AcDbLine
 10
-398.35828381860205
 20
-1.02357136915175
 30
0.0
 11
-398.28534560956854
 21
-1.9869138421553076
 31
0.0
  0
LINE
  5
D1
330
17
100
AcDbEntity
  8
FoilLayer
100
AcDbLine
 10
-398.28534560956854
 20
-1.9869138421553076
 30
0.0
 11
-398.1326658369403
 21
-2.9490839910300988
 31
0.0
  0
LINE
  5
D2
330
17
100
AcDbEntity
  8
FoilLayer
100
AcDbLine
 10
-398.1326658369403
 20
-2.9490839910300988
 30
0.0
 11
-397.8907333740602
 21
-3.9163999971029857
 31
0.0
  0
LINE
  5
D3
330
17
100
AcDbEntity
  8
FoilLayer
100
AcDbLine
 10
-397.8907333740602
 20
-3.9163999971029857
 30
0.0
 11
-397.56159709471376
 21
-4.882757630795623
 31
0.0
  0
LINE
  5
D4
330
17
100
AcDbEntity
  8
FoilLayer
100
AcDbLine
 10
-397.56159709471376
 20
-4.882757630795623
 30
0.0
 11
-397.1482124531795
 21
-5.839981525243499
 31
0.0
  0
LINE
  5
D5
330
17
100
AcDbEntity
  8
FoilLayer
100
AcDbLine
 10
-397.1482124531795
 20
-5.839981525243499
 30
0.0
 11
-396.6507423987784
 21
-6.781624419212965
 31
0.0
  0
LINE
  5
D6
330
17
100
AcDbEntity
  8
FoilLayer
100
AcDbLine
 10
-396.6507423987784
 20
-6.781624419212965
 30
0.0
 11
-396.0682264165575
 21
-7.701264991145058
 31
0.0
  0
LINE
  5
D7
330
17
100
AcDbEntity
  8
FoilLayer
100
AcDbLine
 10
-396.0682264165575
 20
-7.701264991145058
 30
0.0
 11
-395.3928015238757
 21
-8.599132879578669
 31
0.0
  0
LINE
  5
D8
330
17
100
AcDbEntity
  8
FoilLayer
100
AcDbLine
 10
-395.3928015238757
 20
-8.599132879578669
 30
0.0
 11
-394.62121259334225
 21
-9.476987331233953
 31
0.0
  0
LINE
  5
D9
330
17
100
AcDbEntity
  8
FoilLayer
100
AcDbLine
 10
-394.62121259334225
 20
-9.476987331233953
 30
0.0
 11
-393.760871455244
 21
-10.333147205987778
 31
0.0
  0
LINE
  5
DA
330
17
100
AcDbEntity
  8
FoilLayer
100
AcDbLine
 10
-393.760871455244
 20
-10.333147205987778
 30
0.0
 11
-392.81693064753426
 21
-11.16608622927726
 31
0.0
  0
LINE
  5
DB
330
17
100
AcDbEntity
  8
FoilLayer
100
AcDbLine
 10
-392.81693064753426
 20
-11.16608622927726
 30
0.0
 11
-391.7917314308017
 21
-11.974039876369437
 31
0.0
  0
LINE
  5
DC
330
17
100
AcDbEntity
  8
FoilLayer
100
AcDbLine
 10
-391.7917314308017
 20
-11.974039876369437
 30
0.0
 11
-390.68527153962543
 21
-12.754851948538601
 31
0.0
  0
LINE
  5
DD
330
17
100
AcDbEntity
  8
FoilLayer
100
AcDbLine
 10
-390.68527153962543
 20
-12.754851948538601
 30
0.0
 11
-389.4932209939146
 21
-13.507141423102706
 31
0.0
  0
LINE
  5
DE
330
17
100
AcDbEntity
  8
FoilLayer
100
AcDbLine
 10
-389.4932209939146
 20
-13.507141423102706
 30
0.0
 11
-388.21086036077764
 21
-14.230921436093707
 31
0.0
  0
LINE
  5
DF
330
17
100
AcDbEntity
  8
FoilLayer
100
AcDbLine
 10
-388.21086036077764
 20
-14.230921436093707
 30
0.0
 11
-386.832645883752
 21
-14.928180687515718
 31
0.0
  0
LINE
  5
E0
330
17
100
AcDbEntity
  8
FoilLayer
100
AcDbLine
 10
-386.832645883752
 20
-14.928180687515718
 30
0.0
 11
-385.3541490255673
 21
-15.603321973991195
 31
0.0
  0
LINE
  5
E1
330
17
100
AcDbEntity
  8
FoilLayer
100
AcDbLine
 10
-385.3541490255673
 20
-15.603321973991195
 30
0.0
 11
-383.7731780955737
 21
-16.26249528746325
 31
0.0
  0
LINE
  5
E2
330
17
100
AcDbEntity
  8
FoilLayer
100
AcDbLine
 10
-383.7731780955737
 20
-16.26249528746325
 30
0.0
 11
-382.08803189858145
 21
-16.911352771702774
 31
0.0
  0
LINE
  5
E3
330
17
100
AcDbEntity
  8
FoilLayer
100
AcDbLine
 10
-382.08803189858145
 20
-16.911352771702774
 30
0.0
 11
-380.29428999871334
 21
-17.553986982124766
 31
0.0
  0
LINE
  5
E4
330
17
100
AcDbEntity
  8
FoilLayer
100
AcDbLine
 10
-380.29428999871334
 20
-17.553986982124766
 30
0.0
 11
-378.38543005286436
 21
-18.19305647299163
 31
0.0
  0
LINE
  5
E5
330
17
100
AcDbEntity
  8
FoilLayer
100
AcDbLine
 10
-378.38543005286436
 20
-18.19305647299163
 30
0.0
 11
-376.35361008241233
 21
-18.829883442904386
 31
0.0
  0
LINE
  5
E6
330
17
100
AcDbEntity
  8
FoilLayer
100
AcDbLine
 10
-376.35361008241233
 20
-18.829883442904386
 30
0.0
 11
-374.19070402327196
 21
-19.463376905584248
 31
0.0
  0
LINE
  5
E7
330
17
100
AcDbEntity
  8
FoilLayer
100
AcDbLine
 10
-374.19070402327196
 20
-19.463376905584248
 30
0.0
 11
-371.8825799090186
 21
-20.088455427479566
 31
0.0
  0
LINE
  5
E8
330
17
100
AcDbEntity
  8
FoilLayer
100
AcDbLine
 10
-371.8825799090186
 20
-20.088455427479566
 30
0.0
 11
-369.4072888523321
 21
-20.700303781316123
 31
0.0
  0
LINE
  5
E9
330
17
100
AcDbEntity
  8
FoilLayer
100
AcDbLine
 10
-369.4072888523321
 20
-20.700303781316123
 30
0.0
 11
-366.7439689880273
 21
-21.301096878057088
 31
0.0
  0
LINE
  5
EA
330
17
100
AcDbEntity
  8
FoilLayer
100
AcDbLine
 10
-366.7439689880273
 20
-21.301096878057088
 30
0.0
 11
-363.87564638298437
 21
-21.896918206796393
 31
0.0
  0
LINE
  5
EB
330
17
100
AcDbEntity
  8
FoilLayer
100
AcDbLine
 10
-363.87564638298437
 20
-21.896918206796393
 30
0.0
 11
-360.7838394313399
 21
-22.49212437965651
 31
0.0
  0
LINE
  5
EC
330
17
100
AcDbEntity
  8
FoilLayer
100
AcDbLine
 10
-360.7838394313399
 20
-22.49212437965651
 30
0.0
 11
-357.447945244211
 21
-23.088471891550544
 31
0.0
  0
LINE
  5
ED
330
17
100
AcDbEntity
  8
FoilLayer
100
AcDbLine
 10
-357.447945244211
 20
-23.088471891550544
 30
0.0
 11
-353.8471116258477
 21
-23.681768163714942
 31
0.0
  0
LINE
  5
EE
330
17
100
AcDbEntity
  8
FoilLayer
100
AcDbLine
 10
-353.8471116258477
 20
-23.681768163714942
 30
0.0
 11
-349.9552555664854
 21
-24.26075979786839
 31
0.0
  0
LINE
  5
EF
330
17
100
AcDbEntity
  8
FoilLayer
100
AcDbLine
 10
-349.9552555664854
 20
-24.26075979786839
 30
0.0
 11
-345.7409706430926
 21
-24.814663366931327
 31
0.0
  0
LINE
  5
F0
330
17
100
AcDbEntity
  8
FoilLayer
100
AcDbLine
 10
-345.7409706430926
 20
-24.814663366931327
 30
0.0
 11
-341.1684244019726
 21
-25.335810794350653
 31
0.0
  0
LINE
  5
F1
330
17
100
AcDbEntity
  8
FoilLayer
100
AcDbLine
 10
-341.1684244019726
 20
-25.335810794350653
 30
0.0
 11
-336.19766772043835
 21
-25.822042071529342
 31
0.0
  0
LINE
  5
F2
330
17
100
AcDbEntity
  8
FoilLayer
100
AcDbLine
 10
-336.19766772043835
 20
-25.822042071529342
 30
0.0
 11
-330.7982466341422
 21
-26.281832196098232
 31
0.0
  0
LINE
  5
F3
330
17
100
AcDbEntity
  8
FoilLayer
100
AcDbLine
 10
-330.7982466341422
 20
-26.281832196098232
 30
0.0
 11
-324.96334027142814
 21
-26.721032334779206
 31
0.0
  0
LINE
  5
F4
330
17
100
AcDbEntity
  8
FoilLayer
100
AcDbLine
 10
-324.96334027142814
 20
-26.721032334779206
 30
0.0
 11
-318.69907940787164
 21
-27.127656791883005
 31
0.0
  0
LINE
  5
F5
330
17
100
AcDbEntity
  8
FoilLayer
100
AcDbLine
 10
-318.69907940787164
 20
-27.127656791883005
 30
0.0
 11
-312.0081528376488
 21
-27.483950881455602
 31
0.0
  0
LINE
  5
F6
330
17
100
AcDbEntity
  8
FoilLayer
100
AcDbLine
 10
-312.0081528376488
 20
-27.483950881455602
 30
0.0
 11
-304.8944680447088
 21
-27.781109538863088
 31
0.0
  0
LINE
  5
F7
330
17
100
AcDbEntity
  8
FoilLayer
100
AcDbLine
 10
-304.8944680447088
 20
-27.781109538863088
 30
0.0
 11
-297.369019856623
 21
-28.01921329732368
 31
0.0
  0
LINE
  5
F8
330
17
100
AcDbEntity
  8
FoilLayer
100
AcDbLine
 10
-297.369019856623
 20
-28.01921329732368
 30
0.0
 11
-289.4624678934616
 21
-28.20766224273083
 31
0.0
  0
LINE
  5
F9
330
17
100
AcDbEntity
  8
FoilLayer
100
AcDbLine
 10
-289.4624678934616
 20
-28.20766224273083
 30
0.0
 11
-281.2431449985453
 21
-28.35585395127142
 31
0.0
  0
LINE
  5
FA
330
17
100
AcDbEntity
  8
FoilLayer
100
AcDbLine
 10
-281.2431449985453
 20
-28.35585395127142
 30
0.0
 11
-272.79615790178974
 21
-28.458661297823035
 31
0.0
  0
LINE
  5
FB
330
17
100
AcDbEntity
  8
FoilLayer
100
AcDbLine
 10
-272.79615790178974
 20
-28.458661297823035
 30
0.0
 11
-264.1842587636937
 21
-28.502051174406635
 31
0.0
  0
LINE
  5
FC
330
17
100
AcDbEntity
  8
FoilLayer
100
AcDbLine
 10
-264.1842587636937
 20
-28.502051174406635
 30
0.0
 11
-255.434751911882
 21
-28.47038972076312
 31
0.0
  0
LINE
  5
FD
330
17
100
AcDbEntity
  8
FoilLayer
100
AcDbLine
 10
-255.434751911882
 20
-28.47038972076312
 30
0.0
 11
-246.5274443783731
 21
-28.355621546070168
 31
0.0
  0
LINE
  5
FE
330
17
100
AcDbEntity
  8
FoilLayer
100
AcDbLine
 10
-246.5274443783731
 20
-28.355621546070168
 30
0.0
 11
-237.43215097308888
 21
-28.172156620726657
 31
0.0
  0
LINE
  5
FF
330
17
100
AcDbEntity
  8
FoilLayer
100
AcDbLine
 10
-237.43215097308888
 20
-28.172156620726657
 30
0.0
 11
-228.1705149865655
 21
-27.942853136865132
 31
0.0
  0
LINE
  5
100
330
17
100
AcDbEntity
  8
FoilLayer
100
AcDbLine
 10
-228.1705149865655
 20
-27.942853136865132
 30
0.0
 11
-218.78311381406027
 21
-27.671358628830674
 31
0.0
  0
LINE
  5
101
330
17
100
AcDbEntity
  8
FoilLayer
100
AcDbLine
 10
-218.78311381406027
 20
-27.671358628830674
 30
0.0
 11
-209.27520163066217
 21
-27.355043368613533
 31
0.0
  0
LINE
  5
102
330
17
100
AcDbEntity
  8
FoilLayer
100
AcDbLine
 10
-209.27520163066217
 20
-27.355043368613533
 30
0.0
 11
-199.64580266908752
 21
-27.003893135161448
 31
0.0
  0
LINE
  5
103
330
17
100
AcDbEntity
  8
FoilLayer
100
AcDbLine
 10
-199.64580266908752
 20
-27.003893135161448
 30
0.0
 11
-189.9254957144357
 21
-26.633099309273057
 31
0.0
  0
LINE
  5
104
330
17
100
AcDbEntity
  8
FoilLayer
100
AcDbLine
 10
-189.9254957144357
 20
-26.633099309273057
 30
0.0
 11
-186.66425776495532
 21
-26.504736356899688
 31
0.0
  0
LINE
  5
105
330
17
100
AcDbEntity
  8
FoilLayer
100
AcDbLine
 10
-186.66425776495532
 20
-26.504736356899688
 30
0.0
 11
-186.62296154001297
 21
-27.553923957763093
 31
0.0
  0
LINE
  5
106
330
17
100
AcDbEntity
  8
FoilLayer
100
AcDbLine
 10
-186.62296154001297
 20
-27.553923957763093
 30
0.0
 11
-180.1185921527477
 21
-27.297911386127634
 31
0.0
  0
LINE
  5
107
330
17
100
AcDbEntity
  8
FoilLayer
100
AcDbLine
 10
-180.1185921527477
 20
-27.297911386127634
 30
0.0
 11
-170.34770612818266
 21
-26.896608230028438
 31
0.0
  0
LINE
  5
108
330
17
100
AcDbEntity
  8
FoilLayer
100
AcDbLine
 10
-170.34770612818266
 20
-26.896608230028438
 30
0.0
 11
-160.5832876144604
 21
-26.46610555649602
 31
0.0
  0
LINE
  5
109
330
17
100
AcDbEntity
  8
FoilLayer
100
AcDbLine
 10
-160.5832876144604
 20
-26.46610555649602
 30
0.0
 11
-150.79669372236887
 21
-25.99890612040325
 31
0.0
  0
LINE
  5
10A
330
17
100
AcDbEntity
  8
FoilLayer
100
AcDbLine
 10
-150.79669372236887
 20
-25.99890612040325
 30
0.0
 11
-140.9623418360162
 21
-25.50278549540622
 31
0.0
  0
LINE
  5
10B
330
17
100
AcDbEntity
  8
FoilLayer
100
AcDbLine
 10
-140.9623418360162
 20
-25.50278549540622
 30
0.0
 11
-131.08647864600755
 21
-24.98927196983771
 31
0.0
  0
LINE
  5
10C
330
17
100
AcDbEntity
  8
FoilLayer
100
AcDbLine
 10
-131.08647864600755
 20
-24.98927196983771
 30
0.0
 11
-121.19241345274776
 21
-24.46488999256726
 31
0.0
  0
LINE
  5
10D
330
17
100
AcDbEntity
  8
FoilLayer
100
AcDbLine
 10
-121.19241345274776
 20
-24.46488999256726
 30
0.0
 11
-111.30825502561953
 21
-23.928062314377183
 31
0.0
  0
LINE
  5
10E
330
17
100
AcDbEntity
  8
FoilLayer
100
AcDbLine
 10
-111.30825502561953
 20
-23.928062314377183
 30
0.0
 11
-101.43743698759044
 21
-23.36747195417204
 31
0.0
  0
LINE
  5
10F
330
17
100
AcDbEntity
  8
FoilLayer
100
AcDbLine
 10
-101.43743698759044
 20
-23.36747195417204
 30
0.0
 11
-91.54890577440193
 21
-22.77636825411763
 31
0.0
  0
LINE
  5
110
330
17
100
AcDbEntity
  8
FoilLayer
100
AcDbLine
 10
-91.54890577440193
 20
-22.77636825411763
 30
0.0
 11
-81.6150449091457
 21
-22.160273677536352
 31
0.0
  0
LINE
  5
111
330
17
100
AcDbEntity
  8
FoilLayer
100
AcDbLine
 10
-81.6150449091457
 20
-22.160273677536352
 30
0.0
 11
-71.63539570387002
 21
-21.533473303592412
 31
0.0
  0
LINE
  5
112
330
17
100
AcDbEntity
  8
FoilLayer
100
AcDbLine
 10
-71.63539570387002
 20
-21.533473303592412
 30
0.0
 11
-61.633158483848035
 21
-20.912645631203386
 31
0.0
  0
LINE
  5
113
330
17
100
AcDbEntity
  8
FoilLayer
100
AcDbLine
 10
-61.633158483848035
 20
-20.912645631203386
 30
0.0
 11
-51.60801156747942
 21
-20.297403285540916
 31
0.0
  0
LINE
  5
114
330
17
100
AcDbEntity
  8
FoilLayer
100
AcDbLine
 10
-51.60801156747942
 20
-20.297403285540916
 30
0.0
 11
-41.57289105369523
 21
-19.673853813929497
 31
0.0
  0
LINE
  5
115
330
17
100
AcDbEntity
  8
FoilLayer
100
AcDbLine
 10
-41.57289105369523
 20
-19.673853813929497
 30
0.0
 11
-31.513981612335783
 21
-19.037594635392953
 31
0.0
  0
LINE
  5
116
330
17
100
AcDbEntity
  8
FoilLayer
100
AcDbLine
 10
-31.513981612335783
 20
-19.037594635392953
 30
0.0
 11
-21.430914321721843
 21
-18.39598659418895
 31
0.0
  0
LINE
  5
117
330
17
100
AcDbEntity
  8
FoilLayer
100
AcDbLine
 10
-21.430914321721843
 20
-18.39598659418895
 30
0.0
 11
-11.33973214126138
 21
-17.756183902317776
 31
0.0
  0
LINE
  5
118
330
17
100
AcDbEntity
  8
FoilLayer
100
AcDbLine
 10
-11.33973214126138
 20
-17.756183902317776
 30
0.0
 11
-1.2457498805451905
 21
-17.121178009118452
 31
0.0
  0
LINE
  5
119
330
17
100
AcDbEntity
  8
FoilLayer
100
AcDbLine
 10
-1.2457498805451905
 20
-17.121178009118452
 30
0.0
 11
8.850669547418136
 21
-16.491618013557147
 31
0.0
  0
LINE
  5
11A
330
17
100
AcDbEntity
  8
FoilLayer
100
AcDbLine
 10
8.850669547418136
 20
-16.491618013557147
 30
0.0
 11
18.946238918873462
 21
-15.864956796765727
 31
0.0
  0
LINE
  5
11B
330
17
100
AcDbEntity
  8
FoilLayer
100
AcDbLine
 10
18.946238918873462
 20
-15.864956796765727
 30
0.0
 11
29.03238889525329
 21
-15.234579303681429
 31
0.0
  0
LINE
  5
11C
330
17
100
AcDbEntity
  8
FoilLayer
100
AcDbLine
 10
29.03238889525329
 20
-15.234579303681429
 30
0.0
 11
39.117050024853086
 21
-14.594378195774818
 31
0.0
  0
LINE
  5
11D
330
17
100
AcDbEntity
  8
FoilLayer
100
AcDbLine
 10
39.117050024853086
 20
-14.594378195774818
 30
0.0
 11
49.210303250898676
 21
-13.94860792862616
 31
0.0
  0
LINE
  5
11E
330
17
100
AcDbEntity
  8
FoilLayer
100
AcDbLine
 10
49.210303250898676
 20
-13.94860792862616
 30
0.0
 11
59.30304526458781
 21
-13.306455071031097
 31
0.0
  0
LINE
  5
11F
330
17
100
AcDbEntity
  8
FoilLayer
100
AcDbLine
 10
59.30304526458781
 20
-13.306455071031097
 30
0.0
 11
69.397111714027
 21
-12.670704141039291
 31
0.0
  0
LINE
  5
120
330
17
100
AcDbEntity
  8
FoilLayer
100
AcDbLine
 10
69.397111714027
 20
-12.670704141039291
 30
0.0
 11
79.49388000379963
 21
-12.03987605283427
 31
0.0
  0
LINE
  5
121
330
17
100
AcDbEntity
  8
FoilLayer
100
AcDbLine
 10
79.49388000379963
 20
-12.03987605283427
 30
0.0
 11
89.58816874475582
 21
-11.407890165928535
 31
0.0
  0
LINE
  5
122
330
17
100
AcDbEntity
  8
FoilLayer
100
AcDbLine
 10
89.58816874475582
 20
-11.407890165928535
 30
0.0
 11
99.67711983356207
 21
-10.769506979233816
 31
0.0
  0
LINE
  5
123
330
17
100
AcDbEntity
  8
FoilLayer
100
AcDbLine
 10
99.67711983356207
 20
-10.769506979233816
 30
0.0
 11
109.76718438523545
 21
-10.124183041436305
 31
0.0
  0
LINE
  5
124
330
17
100
AcDbEntity
  8
FoilLayer
100
AcDbLine
 10
109.76718438523545
 20
-10.124183041436305
 30
0.0
 11
119.85602464931924
 21
-9.47553630304936
 31
0.0
  0
LINE
  5
125
330
17
100
AcDbEntity
  8
FoilLayer
100
AcDbLine
 10
119.85602464931924
 20
-9.47553630304936
 30
0.0
 11
129.9349606932932
 21
-8.830180831422922
 31
0.0
  0
LINE
  5
126
330
17
100
AcDbEntity
  8
FoilLayer
100
AcDbLine
 10
129.9349606932932
 20
-8.830180831422922
 30
0.0
 11
140.00151186689686
 21
-8.193350462220847
 31
0.0
  0
LINE
  5
127
330
17
100
AcDbEntity
  8
FoilLayer
100
AcDbLine
 10
140.00151186689686
 20
-8.193350462220847
 30
0.0
 11
150.06068393970156
 21
-7.566758456157526
 31
0.0
  0
LINE
  5
128
330
17
100
AcDbEntity
  8
FoilLayer
100
AcDbLine
 10
150.06068393970156
 20
-7.566758456157526
 30
0.0
 11
160.11814701308447
 21
-6.949557033707776
 31
0.0
  0
LINE
  5
129
330
17
100
AcDbEntity
  8
FoilLayer
100
AcDbLine
 10
160.11814701308447
 20
-6.949557033707776
 30
0.0
 11
170.17379426357581
 21
-6.339287047425326
 31
0.0
  0
LINE
  5
12A
330
17
100
AcDbEntity
  8
FoilLayer
100
AcDbLine
 10
170.17379426357581
 20
-6.339287047425326
 30
0.0
 11
180.2194360811202
 21
-5.736367458961297
 31
0.0
  0
LINE
  5
12B
330
17
100
AcDbEntity
  8
FoilLayer
100
AcDbLine
 10
180.2194360811202
 20
-5.736367458961297
 30
0.0
 11
190.2516089336492
 21
-5.143781108370195
 31
0.0
  0
LINE
  5
12C
330
17
100
AcDbEntity
  8
FoilLayer
100
AcDbLine
 10
190.2516089336492
 20
-5.143781108370195
 30
0.0
 11
200.27484211275566
 21
-4.565263955334991
 31
0.0
  0
LINE
  5
12D
330
17
100
AcDbEntity
  8
FoilLayer
100
AcDbLine
 10
200.27484211275566
 20
-4.565263955334991
 30
0.0
 11
210.30354625887855
 21
-4.00275257454816
 31
0.0
  0
LINE
  5
12E
330
17
100
AcDbEntity
  8
FoilLayer
100
AcDbLine
 10
210.30354625887855
 20
-4.00275257454816
 30
0.0
 11
220.3554514146391
 21
-3.4512446086682327
 31
0.0
  0
LINE
  5
12F
330
17
100
AcDbEntity
  8
FoilLayer
100
AcDbLine
 10
220.3554514146391
 20
-3.4512446086682327
 30
0.0
 11
230.42793117284236
 21
-2.9027400907761596
 31
0.0
  0
LINE
  5
130
330
17
100
AcDbEntity
  8
FoilLayer
100
AcDbLine
 10
230.42793117284236
 20
-2.9027400907761596
 30
0.0
 11
240.50448785091532
 21
-2.350833825309625
 31
0.0
  0
LINE
  5
131
330
17
100
AcDbEntity
  8
FoilLayer
100
AcDbLine
 10
240.50448785091532
 20
-2.350833825309625
 30
0.0
 11
250.58403531221222
 21
-1.7913447403694724
 31
0.0
  0
LINE
  5
132
330
17
100
AcDbEntity
  8
FoilLayer
100
AcDbLine
 10
250.58403531221222
 20
-1.7913447403694724
 30
0.0
 11
260.6649353661061
 21
-1.2292746956457563
 31
0.0
  0
LINE
  5
133
330
17
100
AcDbEntity
  8
FoilLayer
100
AcDbLine
 10
260.6649353661061
 20
-1.2292746956457563
 30
0.0
 11
270.7371276017094
 21
-0.6740214929821502
 31
0.0
  0
LINE
  5
134
330
17
100
AcDbEntity
  8
FoilLayer
100
AcDbLine
 10
270.7371276017094
 20
-0.6740214929821502
 30
0.0
 11
280.80617159116514
 21
-0.1284751359522583
 31
0.0
  0
LINE
  5
135
330
17
100
AcDbEntity
  8
FoilLayer
100
AcDbLine
 10
280.80617159116514
 20
-0.1284751359522583
 30
0.0
 11
290.878078691651
 21
0.40894915790060893
 31
0.0
  0
LINE
  5
136
330
17
100
AcDbEntity
  8
FoilLayer
100
AcDbLine
 10
290.878078691651
 20
0.40894915790060893
 30
0.0
 11
300.947347553511
 21
0.9455047453737669
 31
0.0
  0
LINE
  5
137
330
17
100
AcDbEntity
  8
FoilLayer
100
AcDbLine
 10
300.947347553511
 20
0.9455047453737669
 30
0.0
 11
311.003492414142
 21
1.4871953474682245
 31
0.0
  0
LINE
  5
138
330
17
100
AcDbEntity
  8
FoilLayer
100
AcDbLine
 10
311.003492414142
 20
1.4871953474682245
 30
0.0
 11
321.0419706809414
 21
2.026777790657515
 31
0.0
  0
LINE
  5
139
330
17
100
AcDbEntity
  8
FoilLayer
100
AcDbLine
 10
321.0419706809414
 20
2.026777790657515
 30
0.0
 11
331.05361543071297
 21
2.5534700821901803
 31
0.0
  0
LINE
  5
13A
330
17
100
AcDbEntity
  8
FoilLayer
100
AcDbLine
 10
331.05361543071297
 20
2.5534700821901803
 30
0.0
 11
341.0503474397789
 21
3.062354390517002
 31
0.0
  0
LINE
  5
13B
330
17
100
AcDbEntity
  8
FoilLayer
100
AcDbLine
 10
341.0503474397789
 20
3.062354390517002
 30
0.0
 11
351.0507285492506
 21
3.554050389824545
 31
0.0
  0
LINE
  5
13C
330
17
100
AcDbEntity
  8
FoilLayer
100
AcDbLine
 10
351.0507285492506
 20
3.554050389824545
 30
0.0
 11
361.0610677637493
 21
4.037842032307411
 31
0.0
  0
LINE
  5
13D
330
17
100
AcDbEntity
  8
FoilLayer
100
AcDbLine
 10
361.0610677637493
 20
4.037842032307411
 30
0.0
 11
371.05686381910596
 21
4.518757729322896
 31
0.0
  0
LINE
  5
13E
330
17
100
AcDbEntity
  8
FoilLayer
100
AcDbLine
 10
371.05686381910596
 20
4.518757729322896
 30
0.0
 11
381.00625765212635
 21
4.993827830543097
 31
0.0
  0
LINE
  5
13F
330
17
100
AcDbEntity
  8
FoilLayer
100
AcDbLine
 10
381.00625765212635
 20
4.993827830543097
 30
0.0
 11
390.8850933956668
 21
5.452932342033215
 31
0.0
  0
LINE
  5
140
330
17
100
AcDbEntity
  8
FoilLayer
100
AcDbLine
 10
390.8850933956668
 20
5.452932342033215
 30
0.0
 11
400.6951999362301
 21
5.8816497468013775
 31
0.0
  0
LINE
  5
141
330
17
100
AcDbEntity
  8
FoilLayer
100
AcDbLine
 10
400.6951999362301
 20
5.8816497468013775
 30
0.0
 11
410.4667798117483
 21
6.278241022741147
 31
0.0
  0
LINE
  5
142
330
17
100
AcDbEntity
  8
FoilLayer
100
AcDbLine
 10
410.4667798117483
 20
6.278241022741147
 30
0.0
 11
420.19512070882945
 21
6.657349514715411
 31
0.0
  0
LINE
  5
143
330
17
100
AcDbEntity
  8
FoilLayer
100
AcDbLine
 10
420.19512070882945
 20
6.657349514715411
 30
0.0
 11
429.8295188342089
 21
7.013786737718949
 31
0.0
  0
LINE
  5
144
330
17
100
AcDbEntity
  8
FoilLayer
100
AcDbLine
 10
429.8295188342089
 20
7.013786737718949
 30
0.0
 11
439.3662093020963
 21
7.320643299142368
 31
0.0
  0
LINE
  5
145
330
17
100
AcDbEntity
  8
FoilLayer
100
AcDbLine
 10
439.3662093020963
 20
7.320643299142368
 30
0.0
 11
448.8543315242579
 21
7.569679855093497
 31
0.0
  0
LINE
  5
146
330
17
100
AcDbEntity
  8
FoilLayer
100
AcDbLine
 10
448.8543315242579
 20
7.569679855093497
 30
0.0
 11
458.3254056754332
 21
7.772195819827175
 31
0.0
  0
LINE
  5
147
330
17
100
AcDbEntity
  8
FoilLayer
100
AcDbLine
 10
458.3254056754332
 20
7.772195819827175
 30
0.0
 11
467.7607585129713
 21
7.950156823311769
 31
0.0
  0
LINE
  5
148
330
17
100
AcDbEntity
  8
FoilLayer
100
AcDbLine
 10
467.7607585129713
 20
7.950156823311769
 30
0.0
 11
477.11298648245827
 21
8.134005583472277
 31
0.0
  0
LINE
  5
149
330
17
100
AcDbEntity
  8
FoilLayer
100
AcDbLine
 10
477.11298648245827
 20
8.134005583472277
 30
0.0
 11
486.2894545802561
 21
8.296785324297858
 31
0.0
  0
LINE
  5
14A
330
17
100
AcDbEntity
  8
FoilLayer
100
AcDbLine
 10
486.2894545802561
 20
8.296785324297858
 30
0.0
 11
495.2884595558485
 21
8.35874409689713
 31
0.0
  0
LINE
  5
14B
330
17
100
AcDbEntity
  8
FoilLayer
100
AcDbLine
 10
495.2884595558485
 20
8.35874409689713
 30
0.0
 11
504.2624988411511
 21
8.317370379468024
 31
0.0
  0
LINE
  5
14C
330
17
100
AcDbEntity
  8
FoilLayer
100
AcDbLine
 10
504.2624988411511
 20
8.317370379468024
 30
0.0
 11
513.2394133969218
 21
8.273015300519567
 31
0.0
  0
LINE
  5
14D
330
17
100
AcDbEntity
  8
FoilLayer
100
AcDbLine
 10
513.2394133969218
 20
8.273015300519567
 30
0.0
 11
522.1247332112072
 21
8.247291583182504
 31
0.0
  0
LINE
  5
14E
330
17
100
AcDbEntity
  8
FoilLayer
100
AcDbLine
 10
522.1247332112072
 20
8.247291583182504
 30
0.0
 11
530.8907416970108
 21
8.15048770323523
 31
0.0
  0
LINE
  5
14F
330
17
100
AcDbEntity
  8
FoilLayer
100
AcDbLine
 10
530.8907416970108
 20
8.15048770323523
 30
0.0
 11
539.6215376242162
 21
7.951728507185107
 31
0.0
  0
LINE
  5
150
330
17
100
AcDbEntity
  8
FoilLayer
100
AcDbLine
 10
539.6215376242162
 20
7.951728507185107
 30
0.0
 11
548.3305613151847
 21
7.755038356558114
 31
0.0
  0
LINE
  5
151
330
17
100
AcDbEntity
  8
FoilLayer
100
AcDbLine
 10
548.3305613151847
 20
7.755038356558114
 30
0.0
 11
556.9468419772825
 21
7.6032279187341
 31
0.0
  0
LINE
  5
152
330
17
100
AcDbEntity
  8
FoilLayer
100
AcDbLine
 10
556.9468419772825
 20
7.6032279187341
 30
0.0
 11
565.4425480059242
 21
7.388414211421661
 31
0.0
  0
LINE
  5
153
330
17
100
AcDbEntity
  8
FoilLayer
100
AcDbLine
 10
565.4425480059242
 20
7.388414211421661
 30
0.0
 11
573.9030417104661
 21
7.024842030322569
 31
0.0
  0
LINE
  5
154
330
17
100
AcDbEntity
  8
FoilLayer
100
AcDbLine
 10
573.9030417104661
 20
7.024842030322569
 30
0.0
 11
582.4222799455234
 21
6.589256714655492
 31
0.0
  0
LINE
  5
155
330
17
100
AcDbEntity
  8
FoilLayer
100
AcDbLine
 10
582.4222799455234
 20
6.589256714655492
 30
0.0
 11
590.8971246707573
 21
6.157493474357947
 31
0.0
  0
LINE
  5
156
330
17
100
AcDbEntity
  8
FoilLayer
100
AcDbLine
 10
590.8971246707573
 20
6.157493474357947
 30
0.0
 11
599.1556675473081
 21
5.695579331472895
 31
0.0
  0
LINE
  5
157
330
17
100
AcDbEntity
  8
FoilLayer
100
AcDbLine
 10
599.1556675473081
 20
5.695579331472895
 30
0.0
 11
607.249927157595
 21
5.072236078653081
 31
0.0
  0
LINE
  5
158
330
17
100
AcDbEntity
  8
FoilLayer
100
AcDbLine
 10
607.249927157595
 20
5.072236078653081
 30
0.0
 11
615.3046833154922
 21
4.363764738220673
 31
0.0
  0
LINE
  5
159
330
17
100
AcDbEntity
  8
FoilLayer
100
AcDbLine
 10
615.3046833154922
 20
4.363764738220673
 30
0.0
 11
623.210079078856
 21
3.6243061063753994
 31
0.0
  0
LINE
  5
15A
330
17
100
AcDbEntity
  8
FoilLayer
100
AcDbLine
 10
623.210079078856
 20
3.6243061063753994
 30
0.0
 11
630.8537676386088
 21
2.8954478399409913
 31
0.0
  0
LINE
  5
15B
330
17
100
AcDbEntity
  8
FoilLayer
100
AcDbLine
 10
630.8537676386088
 20
2.8954478399409913
 30
0.0
 11
638.1302484238097
 21
2.143442442459213
 31
0.0
  0
LINE
  5
15C
330
17
100
AcDbEntity
  8
FoilLayer
100
AcDbLine
 10
638.1302484238097
 20
2.143442442459213
 30
0.0
 11
645.0164040487348
 21
1.3794513568468594
 31
0.0
  0
LINE
  5
15D
330
17
100
AcDbEntity
  8
FoilLayer
100
AcDbLine
 10
645.0164040487348
 20
1.3794513568468594
 30
0.0
 11
651.4756959276715
 21
0.6658927875537836
 31
0.0
  0
LINE
  5
15E
330
17
100
AcDbEntity
  8
FoilLayer
100
AcDbLine
 10
651.4756959276715
 20
0.6658927875537836
 30
0.0
 11
657.4797281537979
 21
-0.033415780853842614
 31
0.0
  0
LINE
  5
15F
330
17
100
AcDbEntity
  8
FoilLayer
100
AcDbLine
 10
657.4797281537979
 20
-0.033415780853842614
 30
0.0
 11
663.0107103443099
 21
-0.702254585872192
 31
0.0
  0
LINE
  5
160
330
17
100
AcDbEntity
  8
FoilLayer
100
AcDbLine
 10
663.0107103443099
 20
-0.702254585872192
 30
0.0
 11
666.431874159977
 21
-1.1517061967385782
 31
0.0
  0
LINE
  5
161
330
17
100
AcDbEntity
  8
FoilLayer
100
AcDbLine
 10
666.431874159977
 20
-1.1517061967385782
 30
0.0
 11
666.3102025862845
 21
1.1716328415672868
 31
0.0
  0
LINE
  5
162
330
17
100
AcDbEntity
  8
StringerLayer
100
AcDbLine
 10
290.144449580313
 20
97.2801120433761
 30
0.0
 11
294.0582776512085
 21
96.45430950555613
 31
0.0
  0
LINE
  5
163
330
17
100
AcDbEntity
  8
StringerLayer
100
AcDbLine
 10
294.0582776512085
 20
96.45430950555613
 30
0.0
 11
294.8840801890285
 21
100.36813757645169
 31
0.0
  0
LINE
  5
164
330
17
100
AcDbEntity
  8
StringerLayer
100
AcDbLine
 10
294.8840801890285
 20
100.36813757645169
 30
0.0
 11
290.970252118133
 21
101.19394011427167
 31
0.0
  0
LINE
  5
165
330
17
100
AcDbEntity
  8
StringerLayer
100
AcDbLine
 10
290.970252118133
 20
101.19394011427167
 30
0.0
 11
290.144449580313
 21
97.2801120433761
 31
0.0
  0
LINE
  5
166
330
17
100
AcDbEntity
  8
StringerLayer
100
AcDbLine
 10
-113.36327441690793
 20
118.82628194126579
 30
0.0
 11
-109.38623091759254
 21
119.25421301580155
 31
0.0
  0
LINE
  5
167
330
17
100
AcDbEntity
  8
StringerLayer
100
AcDbLine
 10
-109.38623091759254
 20
119.25421301580155
 30
0.0
 11
-109.81416199212829
 21
123.23125651511693
 31
0.0
  0
LINE
  5
168
330
17
100
AcDbEntity
  8
StringerLayer
100
AcDbLine
 10
-109.81416199212829
 20
123.23125651511693
 30
0.0
 11
-113.79120549144368
 21
122.80332544058116
 31
0.0
  0
LINE
  5
169
330
17
100
AcDbEntity
  8
StringerLayer
100
AcDbLine
 10
-113.79120549144368
 20
122.80332544058116
 30
0.0
 11
-113.36327441690793
 21
118.82628194126579
 31
0.0
  0
LINE
  5
16A
330
17
100
AcDbEntity
  8
StringerLayer
100
AcDbLine
 10
-293.09363308443625
 20
77.58935652095947
 30
0.0
 11
-289.3690353336693
 21
79.04790771820346
 31
0.0
  0
LINE
  5
16B
330
17
100
AcDbEntity
  8
StringerLayer
100
AcDbLine
 10
-289.3690353336693
 20
79.04790771820346
 30
0.0
 11
-290.82758653091327
 21
82.7725054689704
 31
0.0
  0
LINE
  5
16C
330
17
100
AcDbEntity
  8
StringerLayer
100
AcDbLine
 10
-290.82758653091327
 20
82.7725054689704
 30
0.0
 11
-294.55218428168024
 21
81.3139542717264
 31
0.0
  0
LINE
  5
16D
330
17
100
AcDbEntity
  8
StringerLayer
100
AcDbLine
 10
-294.55218428168024
 20
81.3139542717264
 30
0.0
 11
-293.09363308443625
 21
77.58935652095947
 31
0.0
  0
LINE
  5
16E
330
17
100
AcDbEntity
  8
StringerLayer
100
AcDbLine
 10
-380.56818243945816
 20
24.86902937971523
 30
0.0
 11
-379.1928563199324
 21
26.321089318199263
 31
0.0
  0
LINE
  5
16F
330
17
100
AcDbEntity
  8
StringerLayer
100
AcDbLine
 10
-379.1928563199324
 20
26.321089318199263
 30
0.0
 11
-382.09697619690047
 21
29.07174155725075
 31
0.0
  0
LINE
  5
170
330
17
100
AcDbEntity
  8
StringerLayer
100
AcDbLine
 10
-382.09697619690047
 20
29.07174155725075
 30
0.0
 11
-383.47230231642624
 21
27.619681618766716
 31
0.0
  0
LINE
  5
171
330
17
100
AcDbEntity
  8
StringerLayer
100
AcDbLine
 10
-383.47230231642624
 20
27.619681618766716
 30
0.0
 11
-380.56818243945816
 21
24.86902937971523
 31
0.0
  0
LINE
  5
172
330
17
100
AcDbEntity
  8
StringerLayer
100
AcDbLine
 10
-385.63548219828164
 20
-11.088755722104036
 30
0.0
 11
-387.37823008340996
 21
-10.107516806813468
 31
0.0
  0
LINE
  5
173
330
17
100
AcDbEntity
  8
StringerLayer
100
AcDbLine
 10
-387.37823008340996
 20
-10.107516806813468
 30
0.0
 11
-389.3407079139911
 21
-13.5930125770702
 31
0.0
  0
LINE
  5
174
330
17
100
AcDbEntity
  8
StringerLayer
100
AcDbLine
 10
-389.3407079139911
 20
-13.5930125770702
 30
0.0
 11
-387.59796002886276
 21
-14.574251492360768
 31
0.0
  0
LINE
  5
175
330
17
100
AcDbEntity
  8
StringerLayer
100
AcDbLine
 10
-387.59796002886276
 20
-14.574251492360768
 30
0.0
 11
-385.63548219828164
 21
-11.088755722104036
 31
0.0
  0
LINE
  5
176
330
17
100
AcDbEntity
  8
StringerLayer
100
AcDbLine
 10
-238.03238920070035
 20
-24.183435720932557
 30
0.0
 11
-242.03157553733948
 21
-24.264111893616835
 31
0.0
  0
LINE
  5
177
330
17
100
AcDbEntity
  8
StringerLayer
100
AcDbLine
 10
-242.03157553733948
 20
-24.264111893616835
 30
0.0
 11
-241.95089936465519
 21
-28.263298230255952
 31
0.0
  0
LINE
  5
178
330
17
100
AcDbEntity
  8
StringerLayer
100
AcDbLine
 10
-241.95089936465519
 20
-28.263298230255952
 30
0.0
 11
-237.95171302801606
 21
-28.182622057571674
 31
0.0
  0
LINE
  5
179
330
17
100
AcDbEntity
  8
StringerLayer
100
AcDbLine
 10
-237.95171302801606
 20
-28.182622057571674
 30
0.0
 11
-238.03238920070035
 21
-24.183435720932557
 31
0.0
  0
LINE
  5
17A
330
17
100
AcDbEntity
  8
SubLayer
100
AcDbLine
 10
-399.8684210526317
 20
0.0
 30
0.0
 11
-395.8684210526317
 21
0.0
 31
0.0
  0
LINE
  5
17B
330
17
100
AcDbEntity
  8
SubLayer
100
AcDbLine
 10
77.9736842105263
 20
0.0
 30
0.0
 11
92.63684210526316
 21
0.0
 31
0.0
  0
LINE
  5
17C
330
17
100
AcDbEntity
  8
SubLayer
100
AcDbLine
 10
-58.53631899895354
 20
52.24789226962107
 30
0.0
 11
-50.55989698113818
 21
52.86164449463561
 31
0.0
  0
LINE
  5
17D
330
17
100
AcDbEntity
  8
SubLayer
100
AcDbLine
 10
50.55989698113818
 20
60.642388592521
 30
0.0
 11
58.53631899895354
 21
61.256140817535545
 31
0.0
  0
LINE
  5
17E
330
17
100
AcDbEntity
  8
SubLayer
100
AcDbLine
 10
-4.26212560758541
 20
112.14328219354485
 30
0.0
 11
-3.64837338257086
 21
104.16686017572948
 31
0.0
  0
LINE
  5
17F
330
17
100
AcDbEntity
  8
SubLayer
100
AcDbLine
 10
4.26212560758541
 20
1.3607508936117583
 30
0.0
 11
3.64837338257086
 21
9.337172911427125
 31
0.0
  0
LINE
  5
180
330
17
100
AcDbEntity
  8
SubLayer
100
AcDbLine
 10
-56.388775438246064
 20
50.40722482142087
 30
0.0
 11
-52.40056442933839
 21
50.714100933928144
 31
0.0
  0
LINE
  5
181
330
17
100
AcDbEntity
  8
SubLayer
100
AcDbLine
 10
-52.40056442933839
 20
50.714100933928144
 30
0.0
 11
-52.70744054184566
 21
54.70231194283582
 31
0.0
  0
LINE
  5
182
330
17
100
AcDbEntity
  8
SubLayer
100
AcDbLine
 10
-52.70744054184566
 20
54.70231194283582
 30
0.0
 11
-56.69565155075334
 21
54.395435830328545
 31
0.0
  0
LINE
  5
183
330
17
100
AcDbEntity
  8
SubLayer
100
AcDbLine
 10
-56.69565155075334
 20
54.395435830328545
 30
0.0
 11
-56.388775438246064
 21
50.40722482142087
 31
0.0
  0
LINE
  5
184
330
17
100
AcDbEntity
  8
SubLayer
100
AcDbLine
 10
52.70744054184566
 20
58.801721144320794
 30
0.0
 11
56.69565155075334
 21
59.10859725682807
 31
0.0
  0
LINE
  5
185
330
17
100
AcDbEntity
  8
SubLayer
100
AcDbLine
 10
56.69565155075334
 20
59.10859725682807
 30
0.0
 11
56.388775438246064
 21
63.096808265735746
 31
0.0
  0
LINE
  5
186
330
17
100
AcDbEntity
  8
SubLayer
100
AcDbLine
 10
56.388775438246064
 20
63.096808265735746
 30
0.0
 11
52.40056442933839
 21
62.78993215322847
 31
0.0
  0
LINE
  5
187
330
17
100
AcDbEntity
  8
SubLayer
100
AcDbLine
 10
52.40056442933839
 20
62.78993215322847
 30
0.0
 11
52.70744054184566
 21
58.801721144320794
 31
0.0
  0
LINE
  5
188
330
17
100
AcDbEntity
  8
SubLayer
100
AcDbLine
 10
-5.795916943278338
 20
106.00752762392969
 30
0.0
 11
-1.8077059343706572
 21
106.31440373643696
 31
0.0
  0
LINE
  5
189
330
17
100
AcDbEntity
  8
SubLayer
100
AcDbLine
 10
-1.8077059343706572
 20
106.31440373643696
 30
0.0
 11
-2.114582046877932
 21
110.30261474534464
 31
0.0
  0
LINE
  5
18A
330
17
100
AcDbEntity
  8
SubLayer
100
AcDbLine
 10
-2.114582046877932
 20
110.30261474534464
 30
0.0
 11
-6.102793055785613
 21
109.99573863283737
 31
0.0
  0
LINE
  5
18B
330
17
100
AcDbEntity
  8
SubLayer
100
AcDbLine
 10
-6.102793055785613
 20
109.99573863283737
 30
0.0
 11
-5.795916943278338
 21
106.00752762392969
 31
0.0
  0
LINE
  5
18C
330
17
100
AcDbEntity
  8
SubLayer
100
AcDbLine
 10
2.114582046877932
 20
3.2014183418119635
 30
0.0
 11
6.102793055785613
 21
3.5082944543192385
 31
0.0
  0
LINE
  5
18D
330
17
100
AcDbEntity
  8
SubLayer
100
AcDbLine
 10
6.102793055785613
 20
3.5082944543192385
 30
0.0
 11
5.795916943278338
 21
7.496505463226919
 31
0.0
  0
LINE
  5
18E
330
17
100
AcDbEntity
  8
SubLayer
100
AcDbLine
 10
5.795916943278338
 20
7.496505463226919
 30
0.0
 11
1.8077059343706572
 21
7.1896293507196445
 31
0.0
  0
LINE
  5
18F
330
17
100
AcDbEntity
  8
SubLayer
100
AcDbLine
 10
1.8077059343706572
 20
7.1896293507196445
 30
0.0
 11
2.114582046877932
 21
3.2014183418119635
 31
0.0
  0
LINE
  5
190
330
17
100
AcDbEntity
  8
SubLayer
100
AcDbLine
 10
452.45747965511225
 20
61.86816618686953
 30
0.0
 11
456.44569066401993
 21
62.1750422993768
 31
0.0
  0
LINE
  5
191
330
17
100
AcDbEntity
  8
SubLayer
100
AcDbLine
 10
-399.9716650667178
 20
-3.7226818238986428
 30
0.0
 11
-395.9834540578101
 21
-3.4158057113913682
 31
0.0
  0
LINE
  5
192
330
17
100
AcDbEntity
  8
SubLayer
100
AcDbLine
 10
-230.4828888745787
 20
9.318768750128173
 30
0.0
 11
-224.50057236121717
 21
9.779082918889086
 31
0.0
  0
LINE
  5
193
330
17
100
AcDbEntity
  8
SubLayer
100
AcDbLine
 10
280.9745979585194
 20
48.67327755658908
 30
0.0
 11
286.9569144718809
 21
49.133591725349994
 31
0.0
  0
LINE
  5
194
330
17
100
AcDbEntity
  8
SubLayer
100
AcDbLine
 10
25.245854541970317
 20
28.996023153358625
 30
0.0
 11
31.228171055331842
 21
29.456337322119534
 31
0.0
  0
LINE
  5
195
330
17
100
AcDbEntity
  8
SubLayer
100
AcDbLine
 10
-225.34418705719045
 20
7.708258386308427
 30
0.0
 11
-225.65106316969772
 21
11.696469395216107
 31
0.0
  0
LINE
  5
196
330
17
100
AcDbEntity
  8
SubLayer
100
AcDbLine
 10
-225.65106316969772
 20
11.696469395216107
 30
0.0
 11
-229.6392741786054
 21
11.389593282708834
 31
0.0
  0
LINE
  5
197
330
17
100
AcDbEntity
  8
SubLayer
100
AcDbLine
 10
-229.6392741786054
 20
11.389593282708834
 30
0.0
 11
-229.33239806609814
 21
7.401382273801152
 31
0.0
  0
LINE
  5
198
330
17
100
AcDbEntity
  8
SubLayer
100
AcDbLine
 10
-229.33239806609814
 20
7.401382273801152
 30
0.0
 11
-225.34418705719045
 21
7.708258386308427
 31
0.0
  0
LINE
  5
199
330
17
100
AcDbEntity
  8
SubLayer
100
AcDbLine
 10
286.11329977590765
 20
47.062767192769336
 30
0.0
 11
285.8064236634003
 21
51.05097820167701
 31
0.0
  0
LINE
  5
19A
330
17
100
AcDbEntity
  8
SubLayer
100
AcDbLine
 10
285.8064236634003
 20
51.05097820167701
 30
0.0
 11
281.81821265449264
 21
50.744102089169736
 31
0.0
  0
LINE
  5
19B
330
17
100
AcDbEntity
  8
SubLayer
100
AcDbLine
 10
281.81821265449264
 20
50.744102089169736
 30
0.0
 11
282.12508876699997
 21
46.75589108026206
 31
0.0
  0
LINE
  5
19C
330
17
100
AcDbEntity
  8
SubLayer
100
AcDbLine
 10
282.12508876699997
 20
46.75589108026206
 30
0.0
 11
286.11329977590765
 21
47.062767192769336
 31
0.0
  0
LINE
  5
19D
330
17
100
AcDbEntity
  8
SubLayer
100
AcDbLine
 10
30.38455635935856
 20
27.385512789538875
 30
0.0
 11
30.077680246851283
 21
31.37372379844656
 31
0.0
  0
LINE
  5
19E
330
17
100
AcDbEntity
  8
SubLayer
100
AcDbLine
 10
30.077680246851283
 20
31.37372379844656
 30
0.0
 11
26.0894692379436
 21
31.066847685939283
 31
0.0
  0
LINE
  5
19F
330
17
100
AcDbEntity
  8
SubLayer
100
AcDbLine
 10
26.0894692379436
 20
31.066847685939283
 30
0.0
 11
26.396345350450876
 21
27.0786366770316
 31
0.0
  0
LINE
  5
1A0
330
17
100
AcDbEntity
  8
SubLayer
100
AcDbLine
 10
26.396345350450876
 20
27.0786366770316
 30
0.0
 11
30.38455635935856
 21
27.385512789538875
 31
0.0
  0
LINE
  5
1A1
330
17
100
AcDbEntity
  8
SubLayer
100
AcDbLine
 10
647.5042608182594
 20
6.432291821689718
 30
0.0
 11
647.8493544108876
 21
7.370860099614587
 31
0.0
  0
LINE
  5
1A2
330
17
100
AcDbEntity
  8
SubLayer
100
AcDbLine
 10
646.4545687640403
 20
0.7181423462588141
 30
0.0
 11
646.5154312269034
 21
1.7162885082081825
 31
0.0
  0
LINE
  5
1A3
330
17
100
AcDbEntity
  8
SubLayer
100
AcDbLine
 10
628.3259869852677
 20
12.124150262602308
 30
0.0
 11
628.6409560179868
 21
13.073252210987183
 31
0.0
  0
LINE
  5
1A4
330
17
100
AcDbEntity
  8
SubLayer
100
AcDbLine
 10
626.542686999504
 20
2.804298442115436
 30
0.0
 11
626.6252518413653
 21
3.800884136819324
 31
0.0
  0
LINE
  5
1A5
330
17
100
AcDbEntity
  8
SubLayer
100
AcDbLine
 10
589.9324284347467
 20
23.360466105767543
 30
0.0
 11
590.2304004125399
 21
24.315040723306687
 31
0.0
  0
LINE
  5
1A6
330
17
100
AcDbEntity
  8
SubLayer
100
AcDbLine
 10
586.661750112836
 20
5.872830242145129
 30
0.0
 11
586.7413907318012
 21
6.869653883423188
 31
0.0
  0
LINE
  5
1A7
330
17
100
AcDbEntity
  8
SubLayer
100
AcDbLine
 10
-155.3628205051573
 20
120.68567026891094
 30
0.0
 11
-155.05594439265002
 21
116.69745926000326
 31
0.0
  0
LINE
  5
1A8
330
17
100
AcDbEntity
  8
SubLayer
100
AcDbLine
 10
-144.22094686444677
 20
-24.115900471420332
 30
0.0
 11
-143.9140707519395
 21
-28.104111480328015
 31
0.0
  0
LINE
  5
1A9
330
17
100
AcDbEntity
  8
SubLayer
100
AcDbLine
 10
-146.52604062071572
 20
5.84146642887284
 30
0.0
 11
-146.0657264519548
 21
-0.1408500844886813
 31
0.0
  0
LINE
  5
1AA
330
17
100
AcDbEntity
  8
SubLayer
100
AcDbLine
 10
-153.21116480514203
 20
92.7224088730716
 30
0.0
 11
-152.7508506363811
 21
86.74009235971008
 31
0.0
  0
LINE
  5
1AB
330
17
100
AcDbEntity
  8
SubLayer
100
AcDbLine
 10
-149.86860271292886
 20
49.281937650972225
 30
0.0
 11
-149.40828854416793
 21
43.2996211376107
 31
0.0
  0
LINE
  5
1AC
330
17
100
AcDbEntity
  8
SubLayer
100
AcDbLine
 10
-148.13655098453546
 20
0.7027646114846013
 30
0.0
 11
-144.14833997562778
 21
1.009640723991876
 31
0.0
  0
LINE
  5
1AD
330
17
100
AcDbEntity
  8
SubLayer
100
AcDbLine
 10
-144.14833997562778
 20
1.009640723991876
 30
0.0
 11
-144.45521608813505
 21
4.997851732899557
 31
0.0
  0
LINE
  5
1AE
330
17
100
AcDbEntity
  8
SubLayer
100
AcDbLine
 10
-144.45521608813505
 20
4.997851732899557
 30
0.0
 11
-148.44342709704273
 21
4.690975620392282
 31
0.0
  0
LINE
  5
1AF
330
17
100
AcDbEntity
  8
SubLayer
100
AcDbLine
 10
-148.44342709704273
 20
4.690975620392282
 30
0.0
 11
-148.13655098453546
 21
0.7027646114846013
 31
0.0
  0
LINE
  5
1B0
330
17
100
AcDbEntity
  8
SubLayer
100
AcDbLine
 10
-154.82167516896178
 20
87.58370705568336
 30
0.0
 11
-150.8334641600541
 21
87.89058316819063
 31
0.0
  0
LINE
  5
1B1
330
17
100
AcDbEntity
  8
SubLayer
100
AcDbLine
 10
-150.8334641600541
 20
87.89058316819063
 30
0.0
 11
-151.14034027256136
 21
91.87879417709831
 31
0.0
  0
LINE
  5
1B2
330
17
100
AcDbEntity
  8
SubLayer
100
AcDbLine
 10
-151.14034027256136
 20
91.87879417709831
 30
0.0
 11
-155.12855128146904
 21
91.57191806459105
 31
0.0
  0
LINE
  5
1B3
330
17
100
AcDbEntity
  8
SubLayer
100
AcDbLine
 10
-155.12855128146904
 20
91.57191806459105
 30
0.0
 11
-154.82167516896178
 21
87.58370705568336
 31
0.0
  0
LINE
  5
1B4
330
17
100
AcDbEntity
  8
SubLayer
100
AcDbLine
 10
-151.4791130767486
 20
44.14323583358399
 30
0.0
 11
-147.49090206784092
 21
44.45011194609126
 31
0.0
  0
LINE
  5
1B5
330
17
100
AcDbEntity
  8
SubLayer
100
AcDbLine
 10
-147.49090206784092
 20
44.45011194609126
 30
0.0
 11
-147.7977781803482
 21
48.43832295499894
 31
0.0
  0
LINE
  5
1B6
330
17
100
AcDbEntity
  8
SubLayer
100
AcDbLine
 10
-147.7977781803482
 20
48.43832295499894
 30
0.0
 11
-151.78598918925587
 21
48.13144684249166
 31
0.0
  0
LINE
  5
1B7
330
17
100
AcDbEntity
  8
SubLayer
100
AcDbLine
 10
-151.78598918925587
 20
48.13144684249166
 30
0.0
 11
-151.4791130767486
 21
44.14323583358399
 31
0.0
  0
LINE
  5
1B8
330
17
100
AcDbEntity
  8
SubLayer
100
AcDbLine
 10
94.61165857061276
 20
130.62137552514457
 30
0.0
 11
94.91853468312003
 21
126.63316451623689
 31
0.0
  0
LINE
  5
1B9
330
17
100
AcDbEntity
  8
SubLayer
100
AcDbLine
 10
105.34371097353635
 20
-8.854092903501284
 30
0.0
 11
105.65058708604361
 21
-12.842303912408964
 31
0.0
  0
LINE
  5
1BA
330
17
100
AcDbEntity
  8
SubLayer
100
AcDbLine
 10
103.12058146482481
 20
20.03805353445481
 30
0.0
 11
103.58089563358571
 21
14.055737021093288
 31
0.0
  0
LINE
  5
1BB
330
17
100
AcDbEntity
  8
SubLayer
100
AcDbLine
 10
96.68135002307066
 20
103.72333459164233
 30
0.0
 11
97.14166419183157
 21
97.7410180782808
 31
0.0
  0
LINE
  5
1BC
330
17
100
AcDbEntity
  8
SubLayer
100
AcDbLine
 10
99.90096574394774
 20
61.880694063048566
 30
0.0
 11
100.36127991270864
 21
55.89837754968704
 31
0.0
  0
LINE
  5
1BD
330
17
100
AcDbEntity
  8
SubLayer
100
AcDbLine
 10
101.51007110100505
 20
14.89935171706657
 30
0.0
 11
105.49828210991274
 21
15.206227829573844
 31
0.0
  0
LINE
  5
1BE
330
17
100
AcDbEntity
  8
SubLayer
100
AcDbLine
 10
105.49828210991274
 20
15.206227829573844
 30
0.0
 11
105.19140599740547
 21
19.194438838481528
 31
0.0
  0
LINE
  5
1BF
330
17
100
AcDbEntity
  8
SubLayer
100
AcDbLine
 10
105.19140599740547
 20
19.194438838481528
 30
0.0
 11
101.20319498849778
 21
18.887562725974252
 31
0.0
  0
LINE
  5
1C0
330
17
100
AcDbEntity
  8
SubLayer
100
AcDbLine
 10
101.20319498849778
 20
18.887562725974252
 30
0.0
 11
101.51007110100505
 21
14.89935171706657
 31
0.0
  0
LINE
  5
1C1
330
17
100
AcDbEntity
  8
SubLayer
100
AcDbLine
 10
95.07083965925091
 20
98.58463277425409
 30
0.0
 11
99.05905066815859
 21
98.89150888676136
 31
0.0
  0
LINE
  5
1C2
330
17
100
AcDbEntity
  8
SubLayer
100
AcDbLine
 10
99.05905066815859
 20
98.89150888676136
 30
0.0
 11
98.75217455565132
 21
102.87971989566904
 31
0.0
  0
LINE
  5
1C3
330
17
100
AcDbEntity
  8
SubLayer
100
AcDbLine
 10
98.75217455565132
 20
102.87971989566904
 30
0.0
 11
94.76396354674364
 21
102.57284378316177
 31
0.0
  0
LINE
  5
1C4
330
17
100
AcDbEntity
  8
SubLayer
100
AcDbLine
 10
94.76396354674364
 20
102.57284378316177
 30
0.0
 11
95.07083965925091
 21
98.58463277425409
 31
0.0
  0
LINE
  5
1C5
330
17
100
AcDbEntity
  8
SubLayer
100
AcDbLine
 10
98.29045538012798
 20
56.74199224566033
 30
0.0
 11
102.27866638903566
 21
57.0488683581676
 31
0.0
  0
LINE
  5
1C6
330
17
100
AcDbEntity
  8
SubLayer
100
AcDbLine
 10
102.27866638903566
 20
57.0488683581676
 30
0.0
 11
101.9717902765284
 21
61.03707936707528
 31
0.0
  0
LINE
  5
1C7
330
17
100
AcDbEntity
  8
SubLayer
100
AcDbLine
 10
101.9717902765284
 20
61.03707936707528
 30
0.0
 11
97.98357926762071
 21
60.730203254568
 31
0.0
  0
LINE
  5
1C8
330
17
100
AcDbEntity
  8
SubLayer
100
AcDbLine
 10
97.98357926762071
 20
60.730203254568
 30
0.0
 11
98.29045538012798
 21
56.74199224566033
 31
0.0
  0
ENDSEC
  0
SECTION
  2
OBJECTS
  0
DICTIONARY
  5
A
330
0
100
AcDbDictionary
280
0
281
1
  3
ACAD_COLOR
350
B
  3
ACAD_GROUP
350
C
  3
ACAD_LAYOUT
350
D
  3
ACAD_MATERIAL
350
E
  3
ACAD_MLEADERSTYLE
350
F
  3
ACAD_MLINESTYLE
350
10
  3
ACAD_PLOTSETTINGS
350
11
  3
ACAD_PLOTSTYLENAME
350
12
  3
ACAD_SCALELIST
350
14
  3
ACAD_TABLESTYLE
350
15
  3
ACAD_VISUALSTYLE
350
16
  3
EZDXF_META
350
2D
  0
DICTIONARY
  5
B
330
A
100
AcDbDictionary
280
0
281
1
  0
DICTIONARY
  5
C
330
A
100
AcDbDictionary
280
0
281
1
  0
DICTIONARY
  5
D
330
A
100
AcDbDictionary
280
0
281
1
  3
Model
350
1A
  3
Layout1
350
1E
  0
DICTIONARY
  5
E
330
A
100
AcDbDictionary
280
0
281
1
  3
ByBlock
350
1F
  3
ByLayer
350
20
  3
Global
350
21
  0
DICTIONARY
  5
F
330
A
100
AcDbDictionary
280
0
281
1
  3
Standard
350
2C
  0
DICTIONARY
  5
10
330
A
100
AcDbDictionary
280
0
281
1
  3
Standard
350
22
  0
DICTIONARY
  5
11
330
A
100
AcDbDictionary
280
0
281
1
  0
ACDBDICTIONARYWDFLT
  5
12
330
A
100
AcDbDictionary
280
0
281
1
  3
Normal
350
13
100
AcDbDictionaryWithDefault
340
13
  0
ACDBPLACEHOLDER
  5
13
330
12
  0
DICTIONARY
  5
14
330
A
100
AcDbDictionary
280
0
281
1
  0
DICTIONARY
  5
15
330
A
100
AcDbDictionary
280
0
281
1
  0
DICTIONARY
  5
16
330
A
100
AcDbDictionary
280
0
281
1
  0
LAYOUT
  5
1A
330
D
100
AcDbPlotSettings
  1

  2
Adobe PDF
  4
A3
  6

 40
7.5
 41
20.0
 42
7.5
 43
20.0
 44
420.0
 45
297.0
 46
0.0
 47
0.0
 48
0.0
 49
0.0
140
0.0
141
0.0
142
1.0
143
1.0
 70
1024
 72
1
 73
0
 74
5
  7

 75
16
 76
0
 77
2
 78
300
147
1.0
148
0.0
149
0.0
100
AcDbLayout
  1
Model
 70
1
 71
0
 10
0.0
 20
0.0
 11
420.0
 21
297.0
 12
0.0
 22
0.0
 32
0.0
 14
1e+20
 24
1e+20
 34
1e+20
 15
-1e+20
 25
-1e+20
 35
-1e+20
146
0.0
 13
0.0
 23
0.0
 33
0.0
 16
1.0
 26
0.0
 36
0.0
 17
0.0
 27
1.0
 37
0.0
 76
1
330
17
  0
LAYOUT
  5
1E
330
D
100
AcDbPlotSettings
  1

  2
Adobe PDF
  4
A3
  6

 40
7.5
 41
20.0
 42
7.5
 43
20.0
 44
420.0
 45
297.0
 46
0.0
 47
0.0
 48
0.0
 49
0.0
140
0.0
141
0.0
142
1.0
143
1.0
 70
0
 72
1
 73
0
 74
5
  7

 75
16
 76
0
 77
2
 78
300
147
1.0
148
0.0
149
0.0
100
AcDbLayout
  1
Layout1
 70
1
 71
1
 10
0.0
 20
0.0
 11
420.0
 21
297.0
 12
0.0
 22
0.0
 32
0.0
 14
1e+20
 24
1e+20
 34
1e+20
 15
-1e+20
 25
-1e+20
 35
-1e+20
146
0.0
 13
0.0
 23
0.0
 33
0.0
 16
1.0
 26
0.0
 36
0.0
 17
0.0
 27
1.0
 37
0.0
 76
1
330
1B
  0
MATERIAL
  5
1F
102
{ACAD_REACTORS
330
E
102
}
330
E
100
AcDbMaterial
  1
ByBlock
  2

 70
0
 40
1.0
 71
1
 41
1.0
 91
-1023410177
 42
1.0
 72
1
  3

 73
1
 74
1
 75
1
 44
0.5
 73
0
 45
1.0
 46
1.0
 77
1
  4

 78
1
 79
1
170
1
 48
1.0
171
1
  6

172
1
173
1
174
1
140
1.0
141
1.0
175
1
  7

176
1
177
1
178
1
143
1.0
179
1
  8

270
1
271
1
272
1
145
1.0
146
1.0
273
1
  9

274
1
275
1
276
1
 42
1.0
 72
1
  3

 73
1
 74
1
 75
1
 94
63
  0
MATERIAL
  5
20
102
{ACAD_REACTORS
330
E
102
}
330
E
100
AcDbMaterial
  1
ByLayer
  2

 70
0
 40
1.0
 71
1
 41
1.0
 91
-1023410177
 42
1.0
 72
1
  3

 73
1
 74
1
 75
1
 44
0.5
 73
0
 45
1.0
 46
1.0
 77
1
  4

 78
1
 79
1
170
1
 48
1.0
171
1
  6

172
1
173
1
174
1
140
1.0
141
1.0
175
1
  7

176
1
177
1
178
1
143
1.0
179
1
  8

270
1
271
1
272
1
145
1.0
146
1.0
273
1
  9

274
1
275
1
276
1
 42
1.0
 72
1
  3

 73
1
 74
1
 75
1
 94
63
  0
MATERIAL
  5
21
102
{ACAD_REACTORS
330
E
102
}
330
E
100
AcDbMaterial
  1
Global
  2

 70
0
 40
1.0
 71
1
 41
1.0
 91
-1023410177
 42
1.0
 72
1
  3

 73
1
 74
1
 75
1
 44
0.5
 73
0
 45
1.0
 46
1.0
 77
1
  4

 78
1
 79
1
170
1
 48
1.0
171
1
  6

172
1
173
1
174
1
140
1.0
141
1.0
175
1
  7

176
1
177
1
178
1
143
1.0
179
1
  8

270
1
271
1
272
1
145
1.0
146
1.0
273
1
  9

274
1
275
1
276
1
 42
1.0
 72
1
  3

 73
1
 74
1
 75
1
 94
63
  0
MLINESTYLE
  5
22
102
{ACAD_REACTORS
330
10
102
}
330
10
100
AcDbMlineStyle
  2
Standard
 70
0
  3

 62
256
 51
90.0
 52
90.0
 71
2
 49
0.5
 62
256
  6
BYLAYER
 49
-0.5
 62
256
  6
BYLAYER
  0
MLEADERSTYLE
  5
2C
102
{ACAD_REACTORS
330
F
102
}
330
F
100
AcDbMLeaderStyle
179
2
170
2
171
1
172
0
 90
2
 40
0.0
 41
0.0
173
1
 91
-1056964608
 92
-2
290
1
 42
2.0
291
1
 43
8.0
  3
Standard
 44
4.0
300

342
29
174
1
175
1
176
0
178
1
 93
-1056964608
 45
4.0
292
0
297
0
 46
4.0
 94
-1056964608
 47
1.0
 49
1.0
140
1.0
294
1
141
0.0
177
0
142
1.0
295
0
296
0
143
3.75
271
0
272
9
273
9
  0
DICTIONARY
  5
2D
330
A
100
AcDbDictionary
281
1
  3
CREATED_BY_EZDXF
350
2E
  3
WRITTEN_BY_EZDXF
350
1CB
  0
DICTIONARYVAR
  5
2E
330
2D
100
DictionaryVariables
280
0
  1
1.0.2 @ 2024-03-22T07:41:33.347523+00:00
  0
DICTIONARYVAR
  5
1CB
330
2D
100
DictionaryVariables
280
0
  1
1.0.2 @ 2024-03-22T07:41:33.357476+00:00
  0
ENDSEC
  0
EOF
