  0
SECTION
  2
HEADER
  9
$ACADVER
  1
AC1021
  9
$ACADMAINTVER
 70
25
  9
$DWGCODEPAGE
  3
ANSI_1252
  9
$LASTSAVEDBY
  1
ezdxf
  9
$INSBASE
 10
0.0
 20
0.0
 30
0.0
  9
$EXTMIN
 10
1e+20
 20
1e+20
 30
1e+20
  9
$EXTMAX
 10
-1e+20
 20
-1e+20
 30
-1e+20
  9
$LIMMIN
 10
0.0
 20
0.0
  9
$LIMMAX
 10
420.0
 20
297.0
  9
$ORTHOMODE
 70
0
  9
$REGENMODE
 70
1
  9
$FILLMODE
 70
1
  9
$QTEXTMODE
 70
0
  9
$MIRRTEXT
 70
1
  9
$LTSCALE
 40
1.0
  9
$ATTMODE
 70
1
  9
$TEXTSIZE
 40
2.5
  9
$TRACEWID
 40
1.0
  9
$TEXTSTYLE
  7
OpenSans
  9
$CLAYER
  8
0
  9
$CELTYPE
  6
ByLayer
  9
$CECOLOR
 62
256
  9
$CELTSCALE
 40
1.0
  9
$DISPSILH
 70
0
  9
$DIMSCALE
 40
1.0
  9
$DIMASZ
 40
0.175
  9
$DIMEXO
 40
0.125
  9
$DIMDLI
 40
3.75
  9
$DIMRND
 40
0.0
  9
$DIMDLE
 40
0.0
  9
$DIMEXE
 40
0.375
  9
$DIMTP
 40
0.0
  9
$DIMTM
 40
0.0
  9
$DIMTXT
 40
0.25
  9
$DIMCEN
 40
2.5
  9
$DIMTSZ
 40
0.0
  9
$DIMTOL
 70
0
  9
$DIMLIM
 70
0
  9
$DIMTIH
 70
0
  9
$DIMTOH
 70
0
  9
$DIMSE1
 70
0
  9
$DIMSE2
 70
0
  9
$DIMTAD
 70
1
  9
$DIMZIN
 70
12
  9
$DIMBLK
  1
ARCHTICK
  9
$DIMASO
 70
1
  9
$DIMSHO
 70
1
  9
$DIMPOST
  1

  9
$DIMAPOST
  1

  9
$DIMALT
 70
0
  9
$DIMALTD
 70
3
  9
$DIMALTF
 40
0.03937007874
  9
$DIMLFAC
 40
100.0
  9
$DIMTOFL
 70
1
  9
$DIMTVP
 40
0.0
  9
$DIMTIX
 70
0
  9
$DIMSOXD
 70
0
  9
$DIMSAH
 70
0
  9
$DIMBLK1
  1

  9
$DIMBLK2
  1

  9
$DIMSTYLE
  2
EZDXF
  9
$DIMCLRD
 70
0
  9
$DIMCLRE
 70
0
  9
$DIMCLRT
 70
0
  9
$DIMTFAC
 40
0.5
  9
$DIMGAP
 40
0.1
  9
$DIMJUST
 70
0
  9
$DIMSD1
 70
0
  9
$DIMSD2
 70
0
  9
$DIMTOLJ
 70
0
  9
$DIMTZIN
 70
8
  9
$DIMALTZ
 70
0
  9
$DIMALTTZ
 70
0
  9
$DIMUPT
 70
1
  9
$DIMDEC
 70
2
  9
$DIMTDEC
 70
2
  9
$DIMALTU
 70
2
  9
$DIMALTTD
 70
3
  9
$DIMTXSTY
  7
OpenSansCondensed-Light
  9
$DIMAUNIT
 70
0
  9
$DIMADEC
 70
2
  9
$DIMALTRND
 40
0.0
  9
$DIMAZIN
 70
3
  9
$DIMDSEP
 70
46
  9
$DIMATFIT
 70
3
  9
$DIMFRAC
 70
0
  9
$DIMLDRBLK
  1

  9
$DIMLUNIT
 70
2
  9
$DIMLWD
 70
-2
  9
$DIMLWE
 70
-2
  9
$DIMTMOVE
 70
2
  9
$DIMFXL
 40
1.0
  9
$DIMFXLON
 70
0
  9
$DIMJOGANG
 40
0.785398163397
  9
$DIMTFILL
 70
0
  9
$DIMTFILLCLR
 70
0
  9
$DIMARCSYM
 70
0
  9
$DIMLTYPE
  6

  9
$DIMLTEX1
  6

  9
$DIMLTEX2
  6

  9
$LUNITS
 70
2
  9
$LUPREC
 70
4
  9
$SKETCHINC
 40
1.0
  9
$FILLETRAD
 40
10.0
  9
$AUNITS
 70
0
  9
$AUPREC
 70
2
  9
$MENU
  1
.
  9
$ELEVATION
 40
0.0
  9
$PELEVATION
 40
0.0
  9
$THICKNESS
 40
0.0
  9
$LIMCHECK
 70
0
  9
$CHAMFERA
 40
0.0
  9
$CHAMFERB
 40
0.0
  9
$CHAMFERC
 40
0.0
  9
$CHAMFERD
 40
0.0
  9
$SKPOLY
 70
0
  9
$TDCREATE
 40
2460396.2144675925
  9
$TDUCREATE
 40
2458532.153996898
  9
$TDUPDATE
 40
2460396.2144675925
  9
$TDUUPDATE
 40
2458532.1544311
  9
$TDINDWG
 40
0.0
  9
$TDUSRTIMER
 40
0.0
  9
$USRTIMER
 70
1
  9
$ANGBASE
 50
0.0
  9
$ANGDIR
 70
0
  9
$PDMODE
 70
0
  9
$PDSIZE
 40
0.0
  9
$PLINEWID
 40
0.0
  9
$SPLFRAME
 70
0
  9
$SPLINETYPE
 70
6
  9
$SPLINESEGS
 70
8
  9
$HANDSEED
  5
BB
  9
$SURFTAB1
 70
6
  9
$SURFTAB2
 70
6
  9
$SURFTYPE
 70
6
  9
$SURFU
 70
6
  9
$SURFV
 70
6
  9
$UCSBASE
  2

  9
$UCSNAME
  2

  9
$UCSORG
 10
0.0
 20
0.0
 30
0.0
  9
$UCSXDIR
 10
1.0
 20
0.0
 30
0.0
  9
$UCSYDIR
 10
0.0
 20
1.0
 30
0.0
  9
$UCSORTHOREF
  2

  9
$UCSORTHOVIEW
 70
0
  9
$UCSORGTOP
 10
0.0
 20
0.0
 30
0.0
  9
$UCSORGBOTTOM
 10
0.0
 20
0.0
 30
0.0
  9
$UCSORGLEFT
 10
0.0
 20
0.0
 30
0.0
  9
$UCSORGRIGHT
 10
0.0
 20
0.0
 30
0.0
  9
$UCSORGFRONT
 10
0.0
 20
0.0
 30
0.0
  9
$UCSORGBACK
 10
0.0
 20
0.0
 30
0.0
  9
$PUCSBASE
  2

  9
$PUCSNAME
  2

  9
$PUCSORG
 10
0.0
 20
0.0
 30
0.0
  9
$PUCSXDIR
 10
1.0
 20
0.0
 30
0.0
  9
$PUCSYDIR
 10
0.0
 20
1.0
 30
0.0
  9
$PUCSORTHOREF
  2

  9
$PUCSORTHOVIEW
 70
0
  9
$PUCSORGTOP
 10
0.0
 20
0.0
 30
0.0
  9
$PUCSORGBOTTOM
 10
0.0
 20
0.0
 30
0.0
  9
$PUCSORGLEFT
 10
0.0
 20
0.0
 30
0.0
  9
$PUCSORGRIGHT
 10
0.0
 20
0.0
 30
0.0
  9
$PUCSORGFRONT
 10
0.0
 20
0.0
 30
0.0
  9
$PUCSORGBACK
 10
0.0
 20
0.0
 30
0.0
  9
$USERI1
 70
0
  9
$USERI2
 70
0
  9
$USERI3
 70
0
  9
$USERI4
 70
0
  9
$USERI5
 70
0
  9
$USERR1
 40
0.0
  9
$USERR2
 40
0.0
  9
$USERR3
 40
0.0
  9
$USERR4
 40
0.0
  9
$USERR5
 40
0.0
  9
$WORLDVIEW
 70
1
  9
$SHADEDGE
 70
3
  9
$SHADEDIF
 70
70
  9
$TILEMODE
 70
1
  9
$MAXACTVP
 70
64
  9
$PINSBASE
 10
0.0
 20
0.0
 30
0.0
  9
$PLIMCHECK
 70
0
  9
$PEXTMIN
 10
1e+20
 20
1e+20
 30
1e+20
  9
$PEXTMAX
 10
-1e+20
 20
-1e+20
 30
-1e+20
  9
$PLIMMIN
 10
0.0
 20
0.0
  9
$PLIMMAX
 10
420.0
 20
297.0
  9
$UNITMODE
 70
0
  9
$VISRETAIN
 70
1
  9
$PLINEGEN
 70
0
  9
$PSLTSCALE
 70
1
  9
$TREEDEPTH
 70
3020
  9
$CMLSTYLE
  2
Standard
  9
$CMLJUST
 70
0
  9
$CMLSCALE
 40
20.0
  9
$PROXYGRAPHICS
 70
1
  9
$MEASUREMENT
 70
1
  9
$CELWEIGHT
370
-1
  9
$ENDCAPS
280
0
  9
$JOINSTYLE
280
0
  9
$LWDISPLAY
290
0
  9
$INSUNITS
 70
6
  9
$HYPERLINKBASE
  1

  9
$STYLESHEET
  1

  9
$XEDIT
290
1
  9
$CEPSNTYPE
380
0
  9
$PSTYLEMODE
290
1
  9
$FINGERPRINTGUID
  2
{8EE205D9-4309-4838-BE87-E37984D33E80}
  9
$VERSIONGUID
  2
{7EF1CA30-069D-405B-AFE4-4F06B7830D61}
  9
$EXTNAMES
290
1
  9
$PSVPSCALE
 40
0.0
  9
$OLESTARTUP
290
0
  9
$SORTENTS
280
127
  9
$INDEXCTL
280
0
  9
$HIDETEXT
280
1
  9
$XCLIPFRAME
290
0
  9
$HALOGAP
280
0
  9
$OBSCOLOR
 70
257
  9
$OBSLTYPE
280
0
  9
$INTERSECTIONDISPLAY
280
0
  9
$INTERSECTIONCOLOR
 70
257
  9
$DIMASSOC
280
2
  9
$PROJECTNAME
  1

  9
$CAMERADISPLAY
290
0
  9
$LENSLENGTH
 40
50.0
  9
$CAMERAHEIGHT
 40
0.0
  9
$STEPSPERSEC
 40
24.0
  9
$STEPSIZE
 40
100.0
  9
$3DDWFPREC
 40
2.0
  9
$PSOLWIDTH
 40
0.005
  9
$PSOLHEIGHT
 40
0.08
  9
$LOFTANG1
 40
1.570796326795
  9
$LOFTANG2
 40
1.570796326795
  9
$LOFTMAG1
 40
0.0
  9
$LOFTMAG2
 40
0.0
  9
$LOFTPARAM
 70
7
  9
$LOFTNORMALS
280
1
  9
$LATITUDE
 40
37.795
  9
$LONGITUDE
 40
-122.394
  9
$NORTHDIRECTION
 40
0.0
  9
$TIMEZONE
 70
-8000
  9
$LIGHTGLYPHDISPLAY
280
1
  9
$TILEMODELIGHTSYNCH
280
1
  9
$CMATERIAL
347
20
  9
$SOLIDHIST
280
0
  9
$SHOWHIST
280
1
  9
$DWFFRAME
280
2
  9
$DGNFRAME
280
2
  9
$REALWORLDSCALE
290
1
  9
$INTERFERECOLOR
 62
256
  9
$CSHADOW
280
0
  9
$SHADOWPLANELOCATION
 40
0.0
  0
ENDSEC
  0
SECTION
  2
CLASSES
  0
CLASS
  1
ACDBDICTIONARYWDFLT
  2
AcDbDictionaryWithDefault
  3
ObjectDBX Classes
 90
0
 91
0
280
0
281
0
  0
CLASS
  1
SUN
  2
AcDbSun
  3
SCENEOE
 90
1153
 91
0
280
0
281
0
  0
CLASS
  1
VISUALSTYLE
  2
AcDbVisualStyle
  3
ObjectDBX Classes
 90
4095
 91
0
280
0
281
0
  0
CLASS
  1
MATERIAL
  2
AcDbMaterial
  3
ObjectDBX Classes
 90
1153
 91
0
280
0
281
0
  0
CLASS
  1
SCALE
  2
AcDbScale
  3
ObjectDBX Classes
 90
1153
 91
0
280
0
281
0
  0
CLASS
  1
TABLESTYLE
  2
AcDbTableStyle
  3
ObjectDBX Classes
 90
4095
 91
0
280
0
281
0
  0
CLASS
  1
MLEADERSTYLE
  2
AcDbMLeaderStyle
  3
ACDB_MLEADERSTYLE_CLASS
 90
4095
 91
0
280
0
281
0
  0
CLASS
  1
DICTIONARYVAR
  2
AcDbDictionaryVar
  3
ObjectDBX Classes
 90
0
 91
0
280
0
281
0
  0
CLASS
  1
CELLSTYLEMAP
  2
AcDbCellStyleMap
  3
ObjectDBX Classes
 90
1152
 91
0
280
0
281
0
  0
CLASS
  1
MENTALRAYRENDERSETTINGS
  2
AcDbMentalRayRenderSettings
  3
SCENEOE
 90
1024
 91
0
280
0
281
0
  0
CLASS
  1
ACDBDETAILVIEWSTYLE
  2
AcDbDetailViewStyle
  3
ObjectDBX Classes
 90
1025
 91
0
280
0
281
0
  0
CLASS
  1
ACDBSECTIONVIEWSTYLE
  2
AcDbSectionViewStyle
  3
ObjectDBX Classes
 90
1025
 91
0
280
0
281
0
  0
CLASS
  1
RASTERVARIABLES
  2
AcDbRasterVariables
  3
ISM
 90
0
 91
0
280
0
281
0
  0
CLASS
  1
ACDBPLACEHOLDER
  2
AcDbPlaceHolder
  3
ObjectDBX Classes
 90
0
 91
0
280
0
281
0
  0
CLASS
  1
LAYOUT
  2
AcDbLayout
  3
ObjectDBX Classes
 90
0
 91
0
280
0
281
0
  0
ENDSEC
  0
SECTION
  2
TABLES
  0
TABLE
  2
VPORT
  5
8
330
0
100
AcDbSymbolTable
 70
1
  0
VPORT
  5
23
330
8
100
AcDbSymbolTableRecord
100
AcDbViewportTableRecord
  2
*Active
 70
0
 10
0.0
 20
0.0
 11
1.0
 21
1.0
 12
0.0
 22
0.0
 13
0.0
 23
0.0
 14
0.5
 24
0.5
 15
0.5
 25
0.5
 16
0.0
 26
0.0
 36
1.0
 17
0.0
 27
0.0
 37
0.0
 40
1000.0
 41
1.34
 42
50.0
 43
0.0
 44
0.0
 50
0.0
 51
0.0
 71
0
 72
1000
 73
1
 74
3
 75
0
 76
0
 77
0
 78
0
281
0
 65
0
146
0.0
  0
ENDTAB
  0
TABLE
  2
LTYPE
  5
2
330
0
100
AcDbSymbolTable
 70
21
  0
LTYPE
  5
24
330
2
100
AcDbSymbolTableRecord
100
AcDbLinetypeTableRecord
  2
ByBlock
 70
0
  3

 72
65
 73
0
 40
0.0
  0
LTYPE
  5
25
330
2
100
AcDbSymbolTableRecord
100
AcDbLinetypeTableRecord
  2
ByLayer
 70
0
  3

 72
65
 73
0
 40
0.0
  0
LTYPE
  5
26
330
2
100
AcDbSymbolTableRecord
100
AcDbLinetypeTableRecord
  2
Continuous
 70
0
  3

 72
65
 73
0
 40
0.0
  0
LTYPE
  5
2F
330
2
100
AcDbSymbolTableRecord
100
AcDbLinetypeTableRecord
  2
CENTER
 70
0
  3
Center ____ _ ____ _ ____ _ ____ _ ____ _ ____
 72
65
 73
4
 40
5.08
 49
3.175
 74
0
 49
-0.635
 74
0
 49
0.635
 74
0
 49
-0.635
 74
0
  0
LTYPE
  5
30
330
2
100
AcDbSymbolTableRecord
100
AcDbLinetypeTableRecord
  2
CENTERX2
 70
0
  3
Center (2x) ________  __  ________  __  ________
 72
65
 73
4
 40
8.89
 49
6.35
 74
0
 49
-0.635
 74
0
 49
1.27
 74
0
 49
-0.635
 74
0
  0
LTYPE
  5
31
330
2
100
AcDbSymbolTableRecord
100
AcDbLinetypeTableRecord
  2
CENTER2
 70
0
  3
Center (.5x) ____ _ ____ _ ____ _ ____ _ ____
 72
65
 73
4
 40
2.54
 49
1.587
 74
0
 49
-0.318
 74
0
 49
0.318
 74
0
 49
-0.318
 74
0
  0
LTYPE
  5
32
330
2
100
AcDbSymbolTableRecord
100
AcDbLinetypeTableRecord
  2
DASHED
 70
0
  3
Dashed __ __ __ __ __ __ __ __ __ __ __ __ __ _
 72
65
 73
2
 40
1.524
 49
1.27
 74
0
 49
-0.254
 74
0
  0
LTYPE
  5
33
330
2
100
AcDbSymbolTableRecord
100
AcDbLinetypeTableRecord
  2
DASHEDX2
 70
0
  3
Dashed (2x) ____  ____  ____  ____  ____  ____
 72
65
 73
2
 40
3.048
 49
2.54
 74
0
 49
-0.508
 74
0
  0
LTYPE
  5
34
330
2
100
AcDbSymbolTableRecord
100
AcDbLinetypeTableRecord
  2
DASHED2
 70
0
  3
Dashed (.5x) _ _ _ _ _ _ _ _ _ _ _ _ _ _
 72
65
 73
2
 40
0.762
 49
0.635
 74
0
 49
-0.127
 74
0
  0
LTYPE
  5
35
330
2
100
AcDbSymbolTableRecord
100
AcDbLinetypeTableRecord
  2
PHANTOM
 70
0
  3
Phantom ______  __  __  ______  __  __  ______
 72
65
 73
6
 40
6.35
 49
3.175
 74
0
 49
-0.635
 74
0
 49
0.635
 74
0
 49
-0.635
 74
0
 49
0.635
 74
0
 49
-0.635
 74
0
  0
LTYPE
  5
36
330
2
100
AcDbSymbolTableRecord
100
AcDbLinetypeTableRecord
  2
PHANTOMX2
 70
0
  3
Phantom (2x)____________    ____    ____    ____________
 72
65
 73
6
 40
10.795
 49
6.35
 74
0
 49
-0.635
 74
0
 49
1.27
 74
0
 49
-0.635
 74
0
 49
1.27
 74
0
 49
-0.635
 74
0
  0
LTYPE
  5
37
330
2
100
AcDbSymbolTableRecord
100
AcDbLinetypeTableRecord
  2
PHANTOM2
 70
0
  3
Phantom (.5x) ___ _ _ ___ _ _ ___ _ _ ___ _ _ ___
 72
65
 73
6
 40
3.175
 49
1.587
 74
0
 49
-0.318
 74
0
 49
0.318
 74
0
 49
-0.318
 74
0
 49
0.318
 74
0
 49
-0.318
 74
0
  0
LTYPE
  5
38
330
2
100
AcDbSymbolTableRecord
100
AcDbLinetypeTableRecord
  2
DASHDOT
 70
0
  3
Dash dot __ . __ . __ . __ . __ . __ . __ . __
 72
65
 73
4
 40
3.556
 49
2.54
 74
0
 49
-0.508
 74
0
 49
0.0
 74
0
 49
-0.508
 74
0
  0
LTYPE
  5
39
330
2
100
AcDbSymbolTableRecord
100
AcDbLinetypeTableRecord
  2
DASHDOTX2
 70
0
  3
Dash dot (2x) ____  .  ____  .  ____  .  ____
 72
65
 73
4
 40
6.096
 49
5.08
 74
0
 49
-0.508
 74
0
 49
0.0
 74
0
 49
-0.508
 74
0
  0
LTYPE
  5
3A
330
2
100
AcDbSymbolTableRecord
100
AcDbLinetypeTableRecord
  2
DASHDOT2
 70
0
  3
Dash dot (.5x) _ . _ . _ . _ . _ . _ . _ . _
 72
65
 73
4
 40
1.778
 49
1.27
 74
0
 49
-0.254
 74
0
 49
0.0
 74
0
 49
-0.254
 74
0
  0
LTYPE
  5
3B
330
2
100
AcDbSymbolTableRecord
100
AcDbLinetypeTableRecord
  2
DOT
 70
0
  3
Dot .  .  .  .  .  .  .  .  .  .  .  .  .  .  .  .
 72
65
 73
2
 40
0.508
 49
0.0
 74
0
 49
-0.508
 74
0
  0
LTYPE
  5
3C
330
2
100
AcDbSymbolTableRecord
100
AcDbLinetypeTableRecord
  2
DOTX2
 70
0
  3
Dot (2x) .    .    .    .    .    .    .    . 
 72
65
 73
2
 40
1.016
 49
0.0
 74
0
 49
-1.016
 74
0
  0
LTYPE
  5
3D
330
2
100
AcDbSymbolTableRecord
100
AcDbLinetypeTableRecord
  2
DOT2
 70
0
  3
Dot (.5) . . . . . . . . . . . . . . . . . . . 
 72
65
 73
2
 40
0.254
 49
0.0
 74
0
 49
-0.254
 74
0
  0
LTYPE
  5
3E
330
2
100
AcDbSymbolTableRecord
100
AcDbLinetypeTableRecord
  2
DIVIDE
 70
0
  3
Divide __ . . __ . . __ . . __ . . __ . . __
 72
65
 73
6
 40
4.064
 49
2.54
 74
0
 49
-0.508
 74
0
 49
0.0
 74
0
 49
-0.508
 74
0
 49
0.0
 74
0
 49
-0.508
 74
0
  0
LTYPE
  5
3F
330
2
100
AcDbSymbolTableRecord
100
AcDbLinetypeTableRecord
  2
DIVIDEX2
 70
0
  3
Divide (2x) ____  . .  ____  . .  ____  . .  ____
 72
65
 73
6
 40
6.604
 49
5.08
 74
0
 49
-0.508
 74
0
 49
0.0
 74
0
 49
-0.508
 74
0
 49
0.0
 74
0
 49
-0.508
 74
0
  0
LTYPE
  5
40
330
2
100
AcDbSymbolTableRecord
100
AcDbLinetypeTableRecord
  2
DIVIDE2
 70
0
  3
Divide(.5x) _ . _ . _ . _ . _ . _ . _ . _
 72
65
 73
6
 40
2.032
 49
1.27
 74
0
 49
-0.254
 74
0
 49
0.0
 74
0
 49
-0.254
 74
0
 49
0.0
 74
0
 49
-0.254
 74
0
  0
ENDTAB
  0
TABLE
  2
LAYER
  5
1
330
0
100
AcDbSymbolTable
 70
3
  0
LAYER
  5
27
330
1
100
AcDbSymbolTableRecord
100
AcDbLayerTableRecord
  2
0
 70
0
 62
7
  6
Continuous
370
-3
390
13
347
21
  0
LAYER
  5
28
330
1
100
AcDbSymbolTableRecord
100
AcDbLayerTableRecord
  2
Defpoints
 70
0
 62
7
  6
Continuous
290
0
370
-3
390
13
347
21
  0
LAYER
  5
8A
330
1
100
AcDbSymbolTableRecord
100
AcDbLayerTableRecord
  2
Layer
 70
0
 62
1
  6
Continuous
370
50
390
13
347
21
  0
ENDTAB
  0
TABLE
  2
STYLE
  5
5
330
0
100
AcDbSymbolTable
 70
26
  0
STYLE
  5
29
330
5
100
AcDbSymbolTableRecord
100
AcDbTextStyleTableRecord
  2
Standard
 70
0
 40
0.0
 41
1.0
 50
0.0
 71
0
 42
2.5
  3
txt
  4

  0
STYLE
  5
41
330
5
100
AcDbSymbolTableRecord
100
AcDbTextStyleTableRecord
  2
OpenSans-Light
 70
0
 40
0.0
 41
1.0
 50
0.0
 71
0
 42
2.5
  3
OpenSans-Light.ttf
  4

  0
STYLE
  5
42
330
5
100
AcDbSymbolTableRecord
100
AcDbTextStyleTableRecord
  2
OpenSans-Light-Italic
 70
0
 40
0.0
 41
1.0
 50
0.0
 71
0
 42
2.5
  3
OpenSans-LightItalic.ttf
  4

  0
STYLE
  5
43
330
5
100
AcDbSymbolTableRecord
100
AcDbTextStyleTableRecord
  2
OpenSans
 70
0
 40
0.0
 41
1.0
 50
0.0
 71
0
 42
2.5
  3
OpenSans-Regular.ttf
  4

  0
STYLE
  5
44
330
5
100
AcDbSymbolTableRecord
100
AcDbTextStyleTableRecord
  2
OpenSans-Italic
 70
0
 40
0.0
 41
1.0
 50
0.0
 71
0
 42
2.5
  3
OpenSans-Italic.ttf
  4

  0
STYLE
  5
45
330
5
100
AcDbSymbolTableRecord
100
AcDbTextStyleTableRecord
  2
OpenSans-SemiBold
 70
0
 40
0.0
 41
1.0
 50
0.0
 71
0
 42
2.5
  3
OpenSans-SemiBold.ttf
  4

  0
STYLE
  5
46
330
5
100
AcDbSymbolTableRecord
100
AcDbTextStyleTableRecord
  2
OpenSans-SemiBoldItalic
 70
0
 40
0.0
 41
1.0
 50
0.0
 71
0
 42
2.5
  3
OpenSans-SemiBoldItalic.ttf
  4

  0
STYLE
  5
47
330
5
100
AcDbSymbolTableRecord
100
AcDbTextStyleTableRecord
  2
OpenSans-Bold
 70
0
 40
0.0
 41
1.0
 50
0.0
 71
0
 42
2.5
  3
OpenSans-Bold.ttf
  4

  0
STYLE
  5
48
330
5
100
AcDbSymbolTableRecord
100
AcDbTextStyleTableRecord
  2
OpenSans-BoldItalic
 70
0
 40
0.0
 41
1.0
 50
0.0
 71
0
 42
2.5
  3
OpenSans-BoldItalic.ttf
  4

  0
STYLE
  5
49
330
5
100
AcDbSymbolTableRecord
100
AcDbTextStyleTableRecord
  2
OpenSans-ExtraBold
 70
0
 40
0.0
 41
1.0
 50
0.0
 71
0
 42
2.5
  3
OpenSans-ExtraBold.ttf
  4

  0
STYLE
  5
4A
330
5
100
AcDbSymbolTableRecord
100
AcDbTextStyleTableRecord
  2
OpenSans-ExtraBoldItalic
 70
0
 40
0.0
 41
1.0
 50
0.0
 71
0
 42
2.5
  3
OpenSans-ExtraBoldItalic.ttf
  4

  0
STYLE
  5
4B
330
5
100
AcDbSymbolTableRecord
100
AcDbTextStyleTableRecord
  2
OpenSansCondensed-Bold
 70
0
 40
0.0
 41
1.0
 50
0.0
 71
0
 42
2.5
  3
OpenSansCondensed-Bold.ttf
  4

  0
STYLE
  5
4C
330
5
100
AcDbSymbolTableRecord
100
AcDbTextStyleTableRecord
  2
OpenSansCondensed-Light
 70
0
 40
0.0
 41
1.0
 50
0.0
 71
0
 42
2.5
  3
OpenSansCondensed-Light.ttf
  4

  0
STYLE
  5
4D
330
5
100
AcDbSymbolTableRecord
100
AcDbTextStyleTableRecord
  2
OpenSansCondensed-Italic
 70
0
 40
0.0
 41
1.0
 50
0.0
 71
0
 42
2.5
  3
OpenSansCondensed-LightItalic.ttf
  4

  0
STYLE
  5
4E
330
5
100
AcDbSymbolTableRecord
100
AcDbTextStyleTableRecord
  2
LiberationSans
 70
0
 40
0.0
 41
1.0
 50
0.0
 71
0
 42
2.5
  3
LiberationSans-Regular.ttf
  4

  0
STYLE
  5
4F
330
5
100
AcDbSymbolTableRecord
100
AcDbTextStyleTableRecord
  2
LiberationSans-Bold
 70
0
 40
0.0
 41
1.0
 50
0.0
 71
0
 42
2.5
  3
LiberationSans-Bold.ttf
  4

  0
STYLE
  5
50
330
5
100
AcDbSymbolTableRecord
100
AcDbTextStyleTableRecord
  2
LiberationSans-BoldItalic
 70
0
 40
0.0
 41
1.0
 50
0.0
 71
0
 42
2.5
  3
LiberationSans-BoldItalic.ttf
  4

  0
STYLE
  5
51
330
5
100
AcDbSymbolTableRecord
100
AcDbTextStyleTableRecord
  2
LiberationSans-Italic
 70
0
 40
0.0
 41
1.0
 50
0.0
 71
0
 42
2.5
  3
LiberationSans-Italic.ttf
  4

  0
STYLE
  5
52
330
5
100
AcDbSymbolTableRecord
100
AcDbTextStyleTableRecord
  2
LiberationSerif
 70
0
 40
0.0
 41
1.0
 50
0.0
 71
0
 42
2.5
  3
LiberationSerif-Regular.ttf
  4

  0
STYLE
  5
53
330
5
100
AcDbSymbolTableRecord
100
AcDbTextStyleTableRecord
  2
LiberationSerif-Bold
 70
0
 40
0.0
 41
1.0
 50
0.0
 71
0
 42
2.5
  3
LiberationSerif-Bold.ttf
  4

  0
STYLE
  5
54
330
5
100
AcDbSymbolTableRecord
100
AcDbTextStyleTableRecord
  2
LiberationSerif-BoldItalic
 70
0
 40
0.0
 41
1.0
 50
0.0
 71
0
 42
2.5
  3
LiberationSerif-BoldItalic.ttf
  4

  0
STYLE
  5
55
330
5
100
AcDbSymbolTableRecord
100
AcDbTextStyleTableRecord
  2
LiberationSerif-Italic
 70
0
 40
0.0
 41
1.0
 50
0.0
 71
0
 42
2.5
  3
LiberationSerif-Italic.ttf
  4

  0
STYLE
  5
56
330
5
100
AcDbSymbolTableRecord
100
AcDbTextStyleTableRecord
  2
LiberationMono
 70
0
 40
0.0
 41
1.0
 50
0.0
 71
0
 42
2.5
  3
LiberationMono-Regular.ttf
  4

  0
STYLE
  5
57
330
5
100
AcDbSymbolTableRecord
100
AcDbTextStyleTableRecord
  2
LiberationMono-Bold
 70
0
 40
0.0
 41
1.0
 50
0.0
 71
0
 42
2.5
  3
LiberationMono-Bold.ttf
  4

  0
STYLE
  5
58
330
5
100
AcDbSymbolTableRecord
100
AcDbTextStyleTableRecord
  2
LiberationMono-BoldItalic
 70
0
 40
0.0
 41
1.0
 50
0.0
 71
0
 42
2.5
  3
LiberationMono-BoldItalic.ttf
  4

  0
STYLE
  5
59
330
5
100
AcDbSymbolTableRecord
100
AcDbTextStyleTableRecord
  2
LiberationMono-Italic
 70
0
 40
0.0
 41
1.0
 50
0.0
 71
0
 42
2.5
  3
LiberationMono-Italic.ttf
  4

  0
ENDTAB
  0
TABLE
  2
VIEW
  5
7
330
0
100
AcDbSymbolTable
 70
0
  0
ENDTAB
  0
TABLE
  2
UCS
  5
6
330
0
100
AcDbSymbolTable
 70
0
  0
ENDTAB
  0
TABLE
  2
APPID
  5
3
330
0
100
AcDbSymbolTable
 70
3
  0
APPID
  5
2A
330
3
100
AcDbSymbolTableRecord
100
AcDbRegAppTableRecord
  2
ACAD
 70
0
  0
APPID
  5
B8
330
3
100
AcDbSymbolTableRecord
100
AcDbRegAppTableRecord
  2
HATCHBACKGROUNDCOLOR
 70
0
  0
APPID
  5
B9
330
3
100
AcDbSymbolTableRecord
100
AcDbRegAppTableRecord
  2
EZDXF
 70
0
  0
ENDTAB
  0
TABLE
  2
DIMSTYLE
  5
4
330
0
100
AcDbSymbolTable
 70
12
100
AcDbDimStyleTable
  0
DIMSTYLE
105
2B
330
4
100
AcDbSymbolTableRecord
100
AcDbDimStyleTableRecord
  2
Standard
 70
0
 40
1.0
 41
2.5
 42
0.625
 43
3.75
 44
1.25
 45
0.0
 46
0.0
 47
0.0
 48
0.0
 49
2.5
140
2.5
141
2.5
142
0.0
143
0.03937007874
144
1.0
145
0.0
146
1.0
147
0.625
148
0.0
 69
0
 70
0
 71
0
 72
0
 73
0
 74
0
 75
0
 76
0
 77
1
 78
8
 79
3
170
0
171
3
172
1
173
0
174
0
175
0
176
0
177
0
178
0
179
2
271
2
272
2
273
2
274
3
275
0
276
0
277
2
278
44
279
0
280
0
281
0
282
0
283
0
284
8
285
0
286
0
288
0
289
3
290
0
371
-2
372
-2
  0
DIMSTYLE
105
73
330
4
100
AcDbSymbolTableRecord
100
AcDbDimStyleTableRecord
  2
EZDXF
 70
0
 40
1.0
 41
0.175
 42
0.125
 43
3.75
 44
0.375
 45
0.0
 46
0.0
 47
0.0
 48
0.0
 49
2.5
140
0.25
141
2.5
142
0.0
143
0.03937007874
144
100.0
145
0.0
146
0.5
147
0.1
148
0.0
 69
0
 70
0
 71
0
 72
0
 73
0
 74
0
 75
0
 76
0
 77
1
 78
12
 79
3
170
0
171
3
172
1
173
0
174
0
175
0
176
0
177
0
178
0
179
2
271
2
272
2
273
2
274
3
275
0
276
0
277
2
278
46
279
2
280
0
281
0
282
0
283
0
284
8
285
0
286
0
288
1
289
3
290
0
340
4C
342
74
371
-2
372
-2
  0
DIMSTYLE
105
7C
330
4
100
AcDbSymbolTableRecord
100
AcDbDimStyleTableRecord
  2
EZ_M_100_H25_CM
 70
0
 40
1.0
 41
0.25
 42
0.125
 43
3.75
 44
0.375
 45
0.0
 46
0.0
 47
0.0
 48
0.0
 49
2.5
140
0.25
141
2.5
142
0.125
143
0.03937007874
144
100.0
145
0.0
146
0.5
147
0.1
148
0.0
 69
0
 70
0
 71
0
 72
0
 73
0
 74
0
 75
0
 76
0
 77
1
 78
12
 79
3
170
0
171
3
172
1
173
0
174
0
175
0
176
0
177
0
178
0
179
2
271
2
272
2
273
2
274
3
275
0
276
0
277
2
278
46
279
2
280
0
281
0
282
0
283
0
284
8
285
0
286
0
288
1
289
3
290
0
340
4C
371
-2
372
-2
  0
DIMSTYLE
105
7D
330
4
100
AcDbSymbolTableRecord
100
AcDbDimStyleTableRecord
  2
EZ_M_50_H25_CM
 70
0
 40
1.0
 41
0.125
 42
0.0625
 43
3.75
 44
0.1875
 45
0.0
 46
0.0
 47
0.0
 48
0.0
 49
2.5
140
0.125
141
2.5
142
0.0625
143
0.03937007874
144
100.0
145
0.0
146
0.5
147
0.05
148
0.0
 69
0
 70
0
 71
0
 72
0
 73
0
 74
0
 75
0
 76
0
 77
1
 78
12
 79
3
170
0
171
3
172
1
173
0
174
0
175
0
176
0
177
0
178
0
179
2
271
2
272
2
273
2
274
3
275
0
276
0
277
2
278
46
279
2
280
0
281
0
282
0
283
0
284
8
285
0
286
0
288
1
289
3
290
0
340
4C
371
-2
372
-2
  0
DIMSTYLE
105
7E
330
4
100
AcDbSymbolTableRecord
100
AcDbDimStyleTableRecord
  2
EZ_M_25_H25_CM
 70
0
 40
1.0
 41
0.0625
 42
0.03125
 43
3.75
 44
0.09375
 45
0.0
 46
0.0
 47
0.0
 48
0.0
 49
2.5
140
0.0625
141
2.5
142
0.03125
143
0.03937007874
144
100.0
145
0.0
146
0.5
147
0.025
148
0.0
 69
0
 70
0
 71
0
 72
0
 73
0
 74
0
 75
0
 76
0
 77
1
 78
12
 79
3
170
0
171
3
172
1
173
0
174
0
175
0
176
0
177
0
178
0
179
2
271
2
272
2
273
2
274
3
275
0
276
0
277
2
278
46
279
2
280
0
281
0
282
0
283
0
284
8
285
0
286
0
288
1
289
3
290
0
340
4C
371
-2
372
-2
  0
DIMSTYLE
105
7F
330
4
100
AcDbSymbolTableRecord
100
AcDbDimStyleTableRecord
  2
EZ_M_20_H25_CM
 70
0
 40
1.0
 41
0.05
 42
0.025
 43
3.75
 44
0.07500000000000001
 45
0.0
 46
0.0
 47
0.0
 48
0.0
 49
2.5
140
0.05
141
2.5
142
0.025
143
0.03937007874
144
100.0
145
0.0
146
0.5
147
0.020000000000000004
148
0.0
 69
0
 70
0
 71
0
 72
0
 73
0
 74
0
 75
0
 76
0
 77
1
 78
12
 79
3
170
0
171
3
172
1
173
0
174
0
175
0
176
0
177
0
178
0
179
2
271
2
272
2
273
2
274
3
275
0
276
0
277
2
278
46
279
2
280
0
281
0
282
0
283
0
284
8
285
0
286
0
288
1
289
3
290
0
340
4C
371
-2
372
-2
  0
DIMSTYLE
105
80
330
4
100
AcDbSymbolTableRecord
100
AcDbDimStyleTableRecord
  2
EZ_M_10_H25_CM
 70
0
 40
1.0
 41
0.025
 42
0.0125
 43
3.75
 44
0.037500000000000006
 45
0.0
 46
0.0
 47
0.0
 48
0.0
 49
2.5
140
0.025
141
2.5
142
0.0125
143
0.03937007874
144
100.0
145
0.0
146
0.5
147
0.010000000000000002
148
0.0
 69
0
 70
0
 71
0
 72
0
 73
0
 74
0
 75
0
 76
0
 77
1
 78
12
 79
3
170
0
171
3
172
1
173
0
174
0
175
0
176
0
177
0
178
0
179
2
271
2
272
2
273
2
274
3
275
0
276
0
277
2
278
46
279
2
280
0
281
0
282
0
283
0
284
8
285
0
286
0
288
1
289
3
290
0
340
4C
371
-2
372
-2
  0
DIMSTYLE
105
81
330
4
100
AcDbSymbolTableRecord
100
AcDbDimStyleTableRecord
  2
EZ_M_5_H25_CM
 70
0
 40
1.0
 41
0.0125
 42
0.00625
 43
3.75
 44
0.018750000000000003
 45
0.0
 46
0.0
 47
0.0
 48
0.0
 49
2.5
140
0.0125
141
2.5
142
0.00625
143
0.03937007874
144
100.0
145
0.0
146
0.5
147
0.005000000000000001
148
0.0
 69
0
 70
0
 71
0
 72
0
 73
0
 74
0
 75
0
 76
0
 77
1
 78
12
 79
3
170
0
171
3
172
1
173
0
174
0
175
0
176
0
177
0
178
0
179
2
271
2
272
2
273
2
274
3
275
0
276
0
277
2
278
46
279
2
280
0
281
0
282
0
283
0
284
8
285
0
286
0
288
1
289
3
290
0
340
4C
371
-2
372
-2
  0
DIMSTYLE
105
82
330
4
100
AcDbSymbolTableRecord
100
AcDbDimStyleTableRecord
  2
EZ_M_1_H25_CM
 70
0
 40
1.0
 41
0.0025
 42
0.00125
 43
3.75
 44
0.00375
 45
0.0
 46
0.0
 47
0.0
 48
0.0
 49
2.5
140
0.0025
141
2.5
142
0.00125
143
0.03937007874
144
100.0
145
0.0
146
0.5
147
0.001
148
0.0
 69
0
 70
0
 71
0
 72
0
 73
0
 74
0
 75
0
 76
0
 77
1
 78
12
 79
3
170
0
171
3
172
1
173
0
174
0
175
0
176
0
177
0
178
0
179
2
271
2
272
2
273
2
274
3
275
0
276
0
277
2
278
46
279
2
280
0
281
0
282
0
283
0
284
8
285
0
286
0
288
1
289
3
290
0
340
4C
371
-2
372
-2
  0
DIMSTYLE
105
83
330
4
100
AcDbSymbolTableRecord
100
AcDbDimStyleTableRecord
  2
EZ_RADIUS
 70
0
 40
1.0
 41
0.25
 42
0.125
 43
3.75
 44
0.375
 45
0.0
 46
0.0
 47
0.0
 48
0.0
 49
2.5
140
0.25
141
0.0
142
0.0
143
0.03937007874
144
100.0
145
0.0
146
0.5
147
0.1
148
0.0
 69
0
 70
0
 71
0
 72
0
 73
0
 74
0
 75
0
 76
0
 77
1
 78
12
 79
3
170
0
171
3
172
0
173
0
174
0
175
0
176
0
177
0
178
0
179
2
271
2
272
2
273
2
274
3
275
0
276
0
277
2
278
46
279
1
280
0
281
0
282
0
283
0
284
8
285
0
286
0
288
1
289
3
290
0
340
4C
342
84
371
-2
372
-2
  0
DIMSTYLE
105
88
330
4
100
AcDbSymbolTableRecord
100
AcDbDimStyleTableRecord
  2
EZ_RADIUS_INSIDE
 70
0
 40
1.0
 41
0.25
 42
0.125
 43
3.75
 44
0.375
 45
0.0
 46
0.0
 47
0.0
 48
0.0
 49
2.5
140
0.25
141
0.0
142
0.0
143
0.03937007874
144
100.0
145
0.0
146
0.5
147
0.1
148
0.0
 69
0
 70
0
 71
0
 72
0
 73
0
 74
0
 75
0
 76
0
 77
0
 78
12
 79
3
170
0
171
3
172
0
173
0
174
1
175
0
176
0
177
0
178
0
179
2
271
2
272
2
273
2
274
3
275
0
276
0
277
2
278
46
279
0
280
0
281
0
282
0
283
0
284
8
285
0
286
0
288
1
289
0
290
0
340
4C
342
84
371
-2
372
-2
  0
DIMSTYLE
105
89
330
4
100
AcDbSymbolTableRecord
100
AcDbDimStyleTableRecord
  2
EZ_CURVED
 70
0
 40
1.0
 41
0.25
 42
0.125
 43
3.75
 44
0.375
 45
0.0
 46
0.0
 47
0.0
 48
0.0
 49
2.5
140
0.25
141
2.5
142
0.0
143
0.03937007874
144
100.0
145
0.0
146
0.5
147
0.1
148
0.0
 69
0
 70
0
 71
0
 72
0
 73
0
 74
0
 75
0
 76
0
 77
1
 78
12
 79
2
 90
2
170
0
171
3
172
1
173
0
174
0
175
0
176
0
177
0
178
0
179
2
271
2
272
2
273
2
274
3
275
0
276
0
277
2
278
46
279
2
280
0
281
0
282
0
283
0
284
8
285
0
286
0
288
1
289
3
290
0
340
4C
371
-2
372
-2
  0
ENDTAB
  0
TABLE
  2
BLOCK_RECORD
  5
9
330
0
100
AcDbSymbolTable
 70
5
  0
BLOCK_RECORD
  5
17
330
9
100
AcDbSymbolTableRecord
100
AcDbBlockTableRecord
  2
*Model_Space
340
1A
 70
0
280
1
281
0
  0
BLOCK_RECORD
  5
1B
330
9
100
AcDbSymbolTableRecord
100
AcDbBlockTableRecord
  2
*Paper_Space
340
1E
 70
0
280
1
281
0
  0
BLOCK_RECORD
  5
74
330
9
100
AcDbSymbolTableRecord
100
AcDbBlockTableRecord
  2
_ARCHTICK
340
0
 70
0
280
1
281
0
  0
BLOCK_RECORD
  5
78
330
9
100
AcDbSymbolTableRecord
100
AcDbBlockTableRecord
  2
_CLOSEDFILLED
340
0
 70
0
280
1
281
0
  0
BLOCK_RECORD
  5
84
330
9
100
AcDbSymbolTableRecord
100
AcDbBlockTableRecord
  2
_CLOSEDBLANK
340
0
 70
0
280
1
281
0
  0
ENDTAB
  0
ENDSEC
  0
SECTION
  2
BLOCKS
  0
BLOCK
  5
18
330
17
100
AcDbEntity
  8
0
100
AcDbBlockBegin
  2
*Model_Space
 70
0
 10
0.0
 20
0.0
 30
0.0
  3
*Model_Space
  1

  0
ENDBLK
  5
19
330
17
100
AcDbEntity
  8
0
100
AcDbBlockEnd
  0
BLOCK
  5
1C
330
1B
100
AcDbEntity
  8
0
100
AcDbBlockBegin
  2
*Paper_Space
 70
0
 10
0.0
 20
0.0
 30
0.0
  3
*Paper_Space
  1

  0
ENDBLK
  5
1D
330
1B
100
AcDbEntity
  8
0
100
AcDbBlockEnd
  0
BLOCK
  5
75
330
74
100
AcDbEntity
  8
0
100
AcDbBlockBegin
  2
_ARCHTICK
 70
0
 10
0.0
 20
0.0
 30
0.0
  3
_ARCHTICK
  1

  0
LWPOLYLINE
  5
77
330
74
100
AcDbEntity
  8
0
  6
BYBLOCK
 62
0
100
AcDbPolyline
 90
2
 70
0
 43
0.15
 10
-0.5
 20
-0.5000000000000001
 10
0.5000000000000001
 20
0.5
  0
ENDBLK
  5
76
330
74
100
AcDbEntity
  8
0
100
AcDbBlockEnd
  0
BLOCK
  5
79
330
78
100
AcDbEntity
  8
0
100
AcDbBlockBegin
  2
_CLOSEDFILLED
 70
0
 10
0.0
 20
0.0
 30
0.0
  3
_CLOSEDFILLED
  1

  0
SOLID
  5
7B
330
78
100
AcDbEntity
  8
0
  6
BYBLOCK
 62
0
100
AcDbTrace
 10
-1.0
 20
0.1643989837240255
 30
0.0
 11
0.0
 21
0.0
 31
0.0
 12
-1.0
 22
-0.1643989837240255
 32
0.0
 13
-1.0
 23
-0.1643989837240255
 33
0.0
  0
ENDBLK
  5
7A
330
78
100
AcDbEntity
  8
0
100
AcDbBlockEnd
  0
BLOCK
  5
85
330
84
100
AcDbEntity
  8
0
100
AcDbBlockBegin
  2
_CLOSEDBLANK
 70
0
 10
0.0
 20
0.0
 30
0.0
  3
_CLOSEDBLANK
  1

  0
LWPOLYLINE
  5
87
330
84
100
AcDbEntity
  8
0
  6
BYBLOCK
 62
0
100
AcDbPolyline
 90
3
 70
1
 10
-1.0
 20
0.1643989837240255
 10
0.0
 20
0.0
 10
-1.0
 20
-0.1643989837240255
  0
ENDBLK
  5
86
330
84
100
AcDbEntity
  8
0
100
AcDbBlockEnd
  0
ENDSEC
  0
SECTION
  2
ENTITIES
  0
LWPOLYLINE
  5
8B
330
17
100
AcDbEntity
  8
Layer
100
AcDbPolyline
 90
303
 70
1
 10
957.9154879001097
 20
-96.32147618068294
 10
955.050136624006
 20
-95.15517564023317
 10
950.4354576197858
 20
-93.36656787591599
 10
945.4454494341262
 20
-91.3917171775159
 10
939.993409463757
 20
-89.27182510659941
 10
934.0456355645325
 20
-87.0020394730389
 10
927.6474244357548
 20
-84.56156076256113
 10
920.8758374254852
 20
-81.96566131406014
 10
913.7898796867637
 20
-79.2614429119579
 10
906.5001635815948
 20
-76.48304763509218
 10
899.1401512627016
 20
-73.70553302256513
 10
891.717249507266
 20
-70.9592051811787
 10
884.1935308949563
 20
-68.1168796986019
 10
876.5829466467559
 20
-65.22965510134804
 10
868.8397761030618
 20
-62.35184215394359
 10
860.9707738194809
 20
-59.43926543689446
 10
852.96694352858
 20
-56.514113116140145
 10
844.8113025240975
 20
-53.522117948442386
 10
836.525699395095
 20
-50.48786025883744
 10
828.1454962425962
 20
-47.42597874905914
 10
819.7053065976515
 20
-44.345524938809746
 10
811.2381137684939
 20
-41.25553623704123
 10
802.7670926886224
 20
-38.17093063033836
 10
794.298101024574
 20
-35.0995424421802
 10
785.8320172983898
 20
-32.04277102421552
 10
777.3716375636396
 20
-29.001004787640063
 10
768.9268442078269
 20
-25.97554793957937
 10
760.5143016384648
 20
-22.9749179416558
 10
752.134532116734
 20
-20.00847176637555
 10
743.7713016127617
 20
-17.075052671842354
 10
735.4182899414409
 20
-14.168983883962378
 10
727.0832496064813
 20
-11.291792796559049
 10
722.958225760711
 20
-9.881002437935548
 10
722.6184403738633
 20
-10.874504270286529
 10
718.4335494920568
 20
-9.44323027296185
 10
710.1413244255414
 20
-6.637768636975663
 10
701.8608644080176
 20
-3.868631381686252
 10
693.585893806151
 20
-1.1351547736175323
 10
685.310706281455
 20
1.5651722619706607
 10
677.0362565556767
 20
4.236284008563876
 10
668.785426314701
 20
6.876433539223176
 10
660.5875494292081
 20
9.47232896501127
 10
652.4496658419205
 20
12.009761924124186
 10
644.3607129157604
 20
14.483970378766113
 10
636.3077453954595
 20
16.89525530356888
 10
628.2794726543407
 20
19.24511305899397
 10
620.2659023591597
 20
21.535631571679247
 10
612.2616626715469
 20
23.76914538117461
 10
604.267445127453
 20
25.94589897485866
 10
596.2843866203265
 20
28.063252202926147
 10
588.3054122480136
 20
30.119150470026216
 10
580.3189780752756
 20
32.11562898715547
 10
572.3189129373025
 20
34.055950937943464
 10
564.3027966156969
 20
35.94203107565154
 10
556.2699804561355
 20
37.77507060750783
 10
548.2217463444721
 20
39.55563359435643
 10
540.1614141137488
 20
41.2834184316501
 10
532.0908070150412
 20
42.956534510721525
 10
524.0045523255966
 20
44.57382306465929
 10
515.8948266201942
 20
46.13756507671957
 10
507.7589521491694
 20
47.65095506969745
 10
499.59884999059904
 20
49.116436229276424
 10
491.42290308549195
 20
50.534858338299294
 10
483.24035991562323
 20
51.90432507164497
 10
475.0561711999858
 20
53.22206486128884
 10
466.87236805607773
 20
54.487249085714154
 10
458.6928702168764
 20
55.69898365562627
 10
450.5201065070288
 20
56.85544113631296
 10
442.35343212919054
 20
57.954949867748624
 10
434.19026509560297
 20
58.99733107918283
 10
426.03079551895325
 20
59.98285337772097
 10
417.87580613675726
 20
60.910781000899384
 10
409.7237942566441
 20
61.7802715492892
 10
401.57326921398084
 20
62.59144111761661
 10
393.42575669611995
 20
63.34436225161595
 10
385.2799653383544
 20
64.03740213500174
 10
377.13191954403226
 20
64.67019079290002
 10
368.97753699195215
 20
65.24429196438565
 10
360.8196579292994
 20
65.76151485290264
 10
352.66397164172406
 20
66.2220070982966
 10
344.51551024428153
 20
66.62461537530957
 10
336.377227924468
 20
66.96786081806063
 10
328.2494960025999
 20
67.25055003146375
 10
320.13263969804376
 20
67.47265001726232
 10
312.02912421938174
 20
67.63492206130286
 10
303.9468410491712
 20
67.73919722303987
 10
295.9009122962755
 20
67.78524183981271
 10
287.9032521298568
 20
67.76919887918987
 10
279.9586770193622
 20
67.68525333012477
 10
272.06008106557954
 20
67.5258014814275
 10
264.18553171273163
 20
67.28646323573194
 10
256.31804887882345
 20
66.97128861529828
 10
248.46035082476683
 20
66.58628896429946
 10
240.6213735189807
 20
66.13159940324947
 10
232.80428607439393
 20
65.60548101334727
 10
225.01124965030476
 20
65.00814282249597
 10
217.24920223052996
 20
64.34066261651444
 10
209.52529998973782
 20
63.602317879387435
 10
201.84522620758358
 20
62.79211523540291
 10
194.2132566154737
 20
61.90875974624627
 10
186.63305127324082
 20
60.9513732886091
 10
179.10881553973115
 20
59.919986131404926
 10
171.64889088773432
 20
58.814125567010215
 10
164.254535732268
 20
57.627089312446174
 10
156.9117371598394
 20
56.355407010468646
 10
149.62137969126113
 20
55.01149946468133
 10
142.4222136913836
 20
53.61153382984488
 10
135.35379592309505
 20
52.15460267851584
 10
128.42888466367617
 20
50.63025551955867
 10
121.6453812933139
 20
49.030718394086264
 10
114.99813274808261
 20
47.35217966801534
 10
108.48310887913149
 20
45.59396628728133
 10
102.1009114041247
 20
43.758516555973316
 10
95.85832459993526
 20
41.85192975461278
 10
89.76969512123623
 20
39.88246292543709
 10
83.85199224612569
 20
37.85592044751529
 10
78.11623488779685
 20
35.77703040077894
 10
72.57418664745933
 20
33.6592045059308
 10
67.24858962326789
 20
31.523979091977075
 10
62.16667172507795
 20
29.38919871961523
 10
57.348599242506396
 20
27.265615064523804
 10
52.80511608443908
 20
25.15987883534083
 10
48.53692111986766
 20
23.07540801026264
 10
44.53754020277256
 20
21.017696798282397
 10
40.79911507557506
 20
18.996090351078823
 10
37.31302596504338
 20
17.019584199082217
 10
34.07027975277754
 20
15.096435825363889
 10
31.061642645507504
 20
13.230946520633651
 10
28.27597795616407
 20
11.42292272693076
 10
25.700609257490953
 20
9.669357469365234
 10
23.32111303560265
 20
7.964949915045844
 10
21.11999074274098
 20
6.304338404365952
 10
19.080124140611645
 20
4.688669806557314
 10
17.187990058460628
 20
3.121496624926838
 10
15.433513294589318
 20
1.6036244437220928
 10
13.80723743341889
 20
0.13189190862845504
 10
12.30018382291314
 20
-1.2964416172044142
 10
10.904220561185355
 20
-2.6840906282918313
 10
9.611754432038538
 20
-4.03394570790869
 10
8.414598307635345
 20
-5.350038880017064
 10
7.30437851803066
 20
-6.634078185129184
 10
6.275828596854467
 20
-7.883295330683668
 10
5.327215389132789
 20
-9.097235083213292
 10
4.4525219882226
 20
-10.287565848552827
 10
3.639334962001442
 20
-11.461804656742867
 10
2.884365047225856
 20
-12.599375174962274
 10
2.2002094102094816
 20
-13.683908330865885
 10
1.5902344221661906
 20
-14.749957549960293
 10
1.0368711746112922
 20
-15.832132996416119
 10
0.5276466856076922
 20
-16.89210576410604
 10
0.07556129276167667
 20
-17.888762704682243
 10
-0.3060209731905843
 20
-18.85637520838967
 10
-0.62218936879691
 20
-19.836739877669885
 10
-0.8863927437779466
 20
-20.811748000839245
 10
-1.1027918985788006
 20
-21.75483163832279
 10
-1.2670248887843627
 20
-22.67131634480915
 10
-1.3788421525238732
 20
-23.588637049523864
 10
-1.435646509563128
 20
-24.440147717447772
 10
-1.4372534431062718
 20
-25.301385303601393
 10
-1.3680145855955743
 20
-26.16651752790198
 10
-1.219623485103341
 20
-27.043271818944383
 10
-0.9933760280130173
 20
-27.925930570989223
 10
-0.6913831691766177
 20
-28.806615615743816
 10
-0.3133733721547287
 20
-29.67940649540705
 10
0.14192498903730666
 20
-30.538557775614105
 10
0.68207826765439
 20
-31.385551049322952
 10
1.3104756740716539
 20
-32.222648299175056
 10
2.020537871297279
 20
-33.047441000108726
 10
2.8076255838917064
 20
-33.85787669741991
 10
3.6696547481842003
 20
-34.651994410099526
 10
4.606694649273209
 20
-35.4277192448555
 10
5.622907906683793
 20
-36.18418196907182
 10
6.72274006420696
 20
-36.92177899749849
 10
7.911321169186635
 20
-37.642755535510176
 10
9.192537662131258
 20
-38.351383819703756
 10
10.567881781073481
 20
-39.05322629872598
 10
12.038280771983636
 20
-39.75332321463042
 10
13.607272351802692
 20
-40.4555573455096
 10
15.280433086117
 20
-41.16270509953604
 10
17.064594081244707
 20
-41.87643292594845
 10
18.966865122046556
 20
-42.596214268654656
 10
21.000326810121578
 20
-43.31846355174807
 10
23.185550619184028
 20
-44.040520931563165
 10
25.54142339916092
 20
-44.76584602268296
 10
28.082691096336077
 20
-45.50103673946796
 10
30.82555825876034
 20
-46.25124623724668
 10
33.788238525776194
 20
-47.019421503063505
 10
36.98957493669667
 20
-47.80317802334342
 10
40.45393697701837
 20
-48.594215961205954
 10
44.21053916812781
 20
-49.38503847144613
 10
48.29240478201643
 20
-50.1712575311015
 10
52.735993475730936
 20
-50.95373862104133
 10
57.568065124628674
 20
-51.74219678514653
 10
62.79390267113763
 20
-52.5422996706587
 10
68.40869546644933
 20
-53.342808863616575
 10
74.41146319690506
 20
-54.12757107022553
 10
80.799462402078
 20
-54.88839845983657
 10
87.56292251695885
 20
-55.62460970623237
 10
94.67351910451384
 20
-56.34253711485017
 10
102.06873235295348
 20
-57.045879283313404
 10
109.67205381064707
 20
-57.72410101364534
 10
117.42787518135023
 20
-58.360207631258355
 10
125.3128089296782
 20
-58.93823263221615
 10
133.34598182480886
 20
-59.4523405502694
 10
141.5536980768465
 20
-59.917608035938215
 10
149.9145428497925
 20
-60.35311026183631
 10
158.39161191387865
 20
-60.759315940093366
 10
166.98054526956452
 20
-61.13349912926592
 10
175.681582791047
 20
-61.48472599567461
 10
184.46596550468902
 20
-61.82455826807204
 10
187.41352679602582
 20
-61.9350096566948
 10
187.37420865770025
 20
-62.9842732479809
 10
193.25289227533642
 20
-63.20456067953828
 10
202.08501098338647
 20
-63.52041045840101
 10
210.91329916692146
 20
-63.8095000790657
 10
219.76415434289228
 20
-64.0670618569653
 10
228.66009901031128
 20
-64.30187593755305
 10
237.5946785292536
 20
-64.52389633256537
 10
246.5463998515109
 20
-64.73738507442438
 10
255.49000679918396
 20
-64.9389712969109
 10
264.42321878614865
 20
-65.11822019416033
 10
273.374539544179
 20
-65.2712028857903
 10
282.3685018012195
 20
-65.40481058866852
 10
291.40453153310716
 20
-65.53194711246248
 10
300.4604992061131
 20
-65.66603169872855
 10
309.5366600271811
 20
-65.8067366386143
 10
318.6223688247337
 20
-65.94064746552847
 10
327.7304265786182
 20
-66.06475559920716
 10
336.86064980392405
 20
-66.18571927347308
 10
345.9980714158832
 20
-66.30887253004926
 10
355.1376862265113
 20
-66.43654231509888
 10
364.2791077850175
 20
-66.56928814957699
 10
373.41953182297647
 20
-66.70458665250477
 10
382.5517018080775
 20
-66.83588305111515
 10
391.6832322801236
 20
-66.95822458937862
 10
400.8229279091841
 20
-67.07614404195196
 10
409.9619244766773
 20
-67.19728782868194
 10
419.101664641853
 20
-67.32429207453548
 10
428.24347070698883
 20
-67.45591917596992
 10
437.3830995860492
 20
-67.58633075928347
 10
446.5183617411758
 20
-67.71060774059599
 10
455.6551232894994
 20
-67.82870790270725
 10
464.7910379323866
 20
-67.94372937434824
 10
473.917821576669
 20
-68.06103015154437
 10
483.0328630537135
 20
-68.18515424177201
 10
492.14054335907764
 20
-68.31799237356671
 10
501.24602204821485
 20
-68.45917361542904
 10
510.3493836319808
 20
-68.60647480366111
 10
519.4432318104027
 20
-68.7597058501452
 10
528.5242441509637
 20
-68.92131454728786
 10
537.5962375207295
 20
-69.09498131809116
 10
546.6720335490959
 20
-69.28344974958569
 10
555.7679376660936
 20
-69.48344112587745
 10
564.8821417239544
 20
-69.68756471438316
 10
574.0002371527007
 20
-69.88890531604642
 10
583.1215743373864
 20
-70.0836209606201
 10
592.2443471437954
 20
-70.27610552488564
 10
601.358814537328
 20
-70.47412923185047
 10
610.4697666691254
 20
-70.68068128579564
 10
619.5827032106904
 20
-70.89474979863084
 10
628.6931740656421
 20
-71.1094175135904
 10
637.792205103484
 20
-71.31854887631012
 10
646.875215219651
 20
-71.52835601715321
 10
655.9331764131065
 20
-71.74791849128421
 10
664.9764667040661
 20
-71.98249371205098
 10
674.0218145881792
 20
-72.23280912201307
 10
683.075560721499
 20
-72.49093674599854
 10
692.1160090845561
 20
-72.75064768490361
 10
701.1142790639917
 20
-73.01240990758282
 10
710.0479277246313
 20
-73.28366855153345
 10
718.9175533303753
 20
-73.5775441767218
 10
727.7501708132812
 20
-73.89769493572305
 10
736.5426294113518
 20
-74.23060196792913
 10
745.2489884826946
 20
-74.5774297748385
 10
753.8639147156978
 20
-74.96216295819659
 10
762.431021747477
 20
-75.39562850527365
 10
770.9794401704825
 20
-75.86982618744052
 10
779.4938245841765
 20
-76.36366513870625
 10
787.9338317393152
 20
-76.84644205280384
 10
796.2143892039253
 20
-77.33604317053499
 10
804.3280740021479
 20
-77.9041957848878
 10
812.4116156438747
 20
-78.56369256041303
 10
820.4974387841316
 20
-79.22606684443308
 10
828.5024587985056
 20
-79.86533859130913
 10
836.3951944245972
 20
-80.56040533770154
 10
844.2486180924133
 20
-81.34485302143139
 10
852.0823603204637
 20
-82.1259067156647
 10
859.8361886758742
 20
-82.86014284736271
 10
867.477431167581
 20
-83.64284261148725
 10
875.0762192302542
 20
-84.55710417943567
 10
882.7225904878328
 20
-85.5402843884801
 10
890.3294451767325
 20
-86.51697144891769
 10
897.7399894108084
 20
-87.50593168196193
 10
904.9908724257504
 20
-88.6289080197922
 10
912.200028422225
 20
-89.8258185741023
 10
919.2722893904546
 20
-91.04026882131501
 10
926.1097249915513
 20
-92.22706847645024
 10
932.6146517476211
 20
-93.40926483777459
 10
938.7666902575796
 20
-94.57513500169523
 10
944.537856017057
 20
-95.66601671018707
 10
949.8997152582534
 20
-96.71248090861029
 10
954.8376776779695
 20
-97.69874301027244
 10
957.889283468665
 20
-98.34094441534688
  0
LWPOLYLINE
  5
8C
330
17
100
AcDbEntity
  8
Layer
100
AcDbPolyline
 90
5
 70
0
 10
629.1426605283331
 20
14.824612832628732
 10
625.30372224663
 20
15.94824661161269
 10
626.4273560256139
 20
19.787184893315878
 10
630.266294307317
 20
18.66355111433192
 10
629.1426605283331
 20
14.824612832628732
  0
LWPOLYLINE
  5
8D
330
17
100
AcDbEntity
  8
Layer
100
AcDbPolyline
 90
5
 70
0
 10
267.3570766468256
 20
63.380968858968245
 10
263.35892402396337
 20
63.2594139154245
 10
263.2373690804196
 20
67.25756653828672
 10
267.23552170328185
 20
67.37912148183047
 10
267.3570766468256
 20
63.380968858968245
  0
LWPOLYLINE
  5
8E
330
17
100
AcDbEntity
  8
Layer
100
AcDbPolyline
 90
5
 70
0
 10
102.51934026711449
 20
39.70388668556342
 10
98.69382119844836
 20
38.535381719689596
 10
97.52531623257455
 20
42.360900788355735
 10
101.35083530124068
 20
43.52940575422956
 10
102.51934026711449
 20
39.70388668556342
  0
LWPOLYLINE
  5
8F
330
17
100
AcDbEntity
  8
Layer
100
AcDbPolyline
 90
5
 70
0
 10
18.012280798763857
 20
-1.4574721961754593
 10
16.529607478818757
 20
-2.799738870991975
 10
13.845074129185729
 20
0.16560776889821938
 10
15.327747449130825
 20
1.507874443714735
 10
18.012280798763857
 20
-1.4574721961754593
  0
LWPOLYLINE
  5
90
330
17
100
AcDbEntity
  8
Layer
100
AcDbPolyline
 90
5
 70
0
 10
7.89848077185843
 20
-32.89395346516599
 10
9.560812649722102
 20
-34.006002352507835
 10
7.336714875038412
 20
-37.33066610823518
 10
5.674382997174739
 20
-36.218617220893336
 10
7.89848077185843
 20
-32.89395346516599
  0
LWPOLYLINE
  5
91
330
17
100
AcDbEntity
  8
Layer
100
AcDbPolyline
 90
5
 70
0
 10
137.5104375448455
 20
-55.68198020345747
 10
141.50402668602118
 20
-55.90835549248848
 10
141.27765139699017
 20
-59.901944633664144
 10
137.2840622558145
 20
-59.67556934463313
 10
137.5104375448455
 20
-55.68198020345747
  0
LINE
  5
92
330
17
100
AcDbEntity
  8
Layer
100
AcDbLine
 10
939.7227505105391
 20
-89.1685364116999
 30
0.0
 11
939.518297445204
 21
-89.62482463648234
 31
0.0
  0
LINE
  5
93
330
17
100
AcDbEntity
  8
Layer
100
AcDbLine
 10
938.2551056163994
 20
-93.96974897571293
 30
0.0
 11
938.183053076199
 21
-94.46453017124351
 31
0.0
  0
LINE
  5
94
330
17
100
AcDbEntity
  8
Layer
100
AcDbLine
 10
921.0257099456305
 20
-82.02311520068973
 30
0.0
 11
920.8341661496789
 21
-82.48497121097046
 31
0.0
  0
LINE
  5
95
330
17
100
AcDbEntity
  8
Layer
100
AcDbLine
 10
918.576446774973
 20
-90.41347792597288
 30
0.0
 11
918.4959510394254
 21
-90.90695582472688
 31
0.0
  0
LINE
  5
96
330
17
100
AcDbEntity
  8
Layer
100
AcDbLine
 10
883.5948025261739
 20
-67.88974033360105
 30
0.0
 11
883.410697052115
 21
-68.3546114710376
 31
0.0
  0
LINE
  5
97
330
17
100
AcDbEntity
  8
Layer
100
AcDbLine
 10
879.0014758971214
 20
-84.55787823649375
 30
0.0
 11
878.9246341113455
 21
-85.05193829353011
 31
0.0
  0
LWPOLYLINE
  5
98
330
17
100
AcDbEntity
  8
Layer
100
AcDbPolyline
 90
300
 70
1
 10
411.90192894736845
 20
0.0
 10
411.8907747651914
 20
1.0622844668000744
 10
411.8573171440331
 20
2.1240998586841386
 10
411.8015708578372
 20
3.1849773078664594
 10
411.7235605225943
 20
4.244448360730397
 10
411.6233205854724
 20
5.302045184684334
 10
411.5008953096059
 20
6.357300774743378
 10
411.35633875455017
 20
7.409749159745618
 10
411.1897147524105
 20
8.458925608111867
 10
411.00109687965556
 20
9.504366833058048
 10
410.7905684246282
 20
10.545611197169599
 10
410.5582223507675
 20
11.58219891624755
 10
410.3041612555589
 20
12.613672262336294
 10
410.02849732522986
 20
13.639575765843361
 10
409.73135228521176
 20
14.659456416661957
 10
409.41285734638944
 20
15.6728638642075
 10
409.07315314716175
 20
16.679350616279734
 10
408.71238969134004
 20
17.678472236662703
 10
408.3307262819105
 20
18.669787541375268
 10
407.92833145069045
 20
19.652858793485535
 10
407.50538288390953
 20
20.62725189640315
 10
407.06206734374825
 20
21.59253658556416
 10
406.59858058586946
 20
22.5482866184237
 10
406.1151272729776
 20
23.494079962672718
 10
405.6119208844459
 20
24.42949898259556
 10
405.0891836220498
 20
25.354130623486164
 10
404.5471463118486
 20
26.26756659404134
 10
403.98604830225963
 20
27.169403546650774
 10
403.40613735836826
 20
28.05924325550393
 10
402.8076695525222
 20
28.936692792435394
 10
402.19090915125696
 20
29.801364700430863
 10
401.55612849860324
 20
30.652877164717296
 10
400.9036078958274
 20
31.490854181361488
 10
400.2336354776585
 20
32.31492572330292
 10
399.54650708505574
 20
33.124727903747235
 10
398.84252613457403
 20
33.91990313684841
 10
398.1220034843832
 20
34.7001002956086
 10
397.3852572970019
 20
35.464974866925935
 10
396.63261289880637
 20
36.21418910372183
 10
395.86440263637496
 20
36.947412174080554
 10
395.08096572973363
 20
37.664320307335316
 10
394.28264812256566
 20
38.364596937036254
 10
393.4698023294528
 20
39.047932840737275
 10
392.6427872802148
 20
39.71402627654
 10
391.8019681614159
 20
40.362583116334484
 10
390.947716255109
 20
40.99331697567788
 10
390.0804087748878
 20
41.605949340253794
 10
389.20042869931973
 20
42.200209688856326
 10
388.3081646028338
 20
42.77583561284465
 10
387.4040104841368
 20
43.332572932015275
 10
386.48836559223446
 20
43.870175806840834
 10
385.56163425013466
 20
44.38840684702595
 10
384.62422567630944
 20
44.887037216332075
 10
383.676553803996
 20
45.36584673362513
 10
382.719037098415
 20
45.82462397010135
 10
381.75209837198844
 20
46.26316634264817
 10
380.77616459763755
 20
46.68128020329937
 10
379.7916667202433
 20
47.07878092474447
 10
378.79903946635375
 20
47.45549298185499
 10
377.79872115222054
 20
47.81125002919136
 10
376.791153490251
 20
48.14589497445647
 10
375.7767813939606
 20
48.459280047863125
 10
374.7560527815113
 20
48.751266867385056
 10
373.72941837792365
 20
49.021726499862524
 10
372.6973315160493
 20
49.27053951793559
 10
371.66024793639207
 20
49.497596052779826
 10
370.61862558586563
 20
49.702795842621356
 10
369.5729244155771
 20
49.8860482770096
 10
368.5236061777256
 20
50.047272436828294
 10
367.4711342217054
 20
50.18639713002711
 10
366.4159732895041
 20
50.30336092305805
 10
365.3585893104853
 20
50.398112168002775
 10
364.2994491956475
 20
50.47060902537888
 10
363.23902063144953
 20
50.52081948261501
 10
362.17777187329295
 20
50.548721368186726
 10
361.11617153875403
 20
50.55430236140685
 10
360.05468840065527
 20
50.53755999786587
 10
358.9937911800684
 20
50.49850167052021
 10
357.9339483393406
 20
50.4371446264277
 10
356.87562787523456
 20
50.353515959131734
 10
355.8192971122742
 20
50.24765259669754
 10
354.7654224963877
 20
50.11960128540581
 10
353.7144693889375
 20
49.9694185691108
 10
352.6669018612304
 20
49.797170764272224
 10
351.6231824895963
 20
49.60293393067172
 10
350.5837721511279
 20
49.38679383782701
 10
349.54912982017004
 20
49.148845927118515
 10
348.51971236564975
 20
48.88919526964508
 10
347.4959743493356
 20
48.607956519827596
 10
346.4783678251162
 20
48.30525386478079
 10
345.4673421393859
 20
47.981220969475686
 10
344.46334373262596
 20
47.63600091771696
 10
343.4668159422691
 20
47.26974614896114
 10
342.4781988069341
 20
46.882618391003604
 10
341.4979288721172
 20
46.474788588564174
 10
340.526438997426
 20
46.04643682780273
 10
339.5641581654405
 20
45.597752256798245
 10
338.6115112922869
 20
45.128933002026265
 10
337.6689190400062
 20
44.640186080871906
 10
336.7367976308019
 20
44.131727310216775
 10
335.81555866324817
 20
43.60378121114027
 10
334.905608930539
 20
43.05658090977748
 10
334.0073502408603
 20
42.490368034377155
 10
333.12117923996243
 20
41.90539260860553
 10
332.2474872360126
 20
41.301912941142895
 10
331.38666002680435
 20
40.680195511621754
 10
330.5390777294
 20
40.04051485295693
 10
329.70511461228165
 20
39.38315343011954
 10
328.88513893008485
 20
38.708401515408426
 10
328.0795127609875
 20
38.01655706027409
 10
327.28859184682665
 20
37.30792556375171
 10
326.5127254360126
 20
36.58281993756133
 10
325.7522561293109
 20
35.841560367934946
 10
325.0075197285593
 20
35.08447417423118
 10
324.27884508838713
 20
34.311895664400346
 10
323.5665539710026
 20
33.524165987363396
 10
322.8709609041111
 20
32.72163298237021
 10
322.19237304202943
 20
31.904651025403602
 10
321.5310900300543
 20
31.07358087269674
 10
320.88740387214807
 20
30.228789501433507
 10
320.26159880199754
 20
29.370649947701587
 10
319.6539511575044
 20
28.499541141770315
 10
319.0647292587627
 20
27.615847740765663
 10
318.4941932895755
 20
26.71995995881653
 10
317.94259518256564
 20
25.812273394747162
 10
317.410178507929
 20
24.893188857391845
 10
316.8971783658809
 20
23.963112188608957
 10
316.40382128284267
 20
23.02245408407272
 10
315.93032511141354
 20
22.07162991192149
 10
315.4768989341733
 20
21.111059529342896
 10
315.0437429713574
 20
20.14116709717673
 10
314.63104849244525
 20
19.162380892617445
 10
314.2389977317008
 20
18.175133120099044
 10
313.86776380770334
 20
17.179859720445663
 10
313.5175106469031
 20
16.177000178372527
 10
313.1883929112358
 20
15.166997328421765
 10
312.8805559298285
 20
14.15029715941917
 10
312.5941356348262
 20
13.127348617538102
 10
312.3292585013682
 20
12.098603408057475
 10
312.08604149173993
 20
11.064515795901439
 10
311.86459200372605
 20
10.025542405048785
 10
311.6650078231864
 20
8.98214201690058
 10
311.48737708087657
 20
7.934775367695329
 10
311.3317782135319
 20
6.883904945060748
 10
311.1982799292319
 20
5.829994783792262
 10
311.08694117706074
 20
4.773510260948305
 10
310.9978111210771
 20
3.714917890352911
 10
310.93092911860464
 20
2.654685116596368
 10
310.8863247028528
 20
1.5932801086247488
 10
310.8640175698759
 20
0.5311715530098269
 10
310.8640175698759
 20
-0.5311715530098144
 10
310.8863247028528
 20
-1.5932801086247361
 10
310.93092911860464
 20
-2.654685116596355
 10
310.9978111210771
 20
-3.714917890352921
 10
311.08694117706074
 20
-4.773510260948314
 10
311.1982799292319
 20
-5.829994783792249
 10
311.3317782135319
 20
-6.8839049450607375
 10
311.48737708087657
 20
-7.934775367695318
 10
311.6650078231864
 20
-8.98214201690057
 10
311.86459200372605
 20
-10.025542405048775
 10
312.08604149173993
 20
-11.06451579590145
 10
312.3292585013682
 20
-12.098603408057487
 10
312.5941356348262
 20
-13.127348617538091
 10
312.8805559298285
 20
-14.150297159419162
 10
313.1883929112358
 20
-15.166997328421752
 10
313.5175106469031
 20
-16.177000178372516
 10
313.86776380770334
 20
-17.179859720445652
 10
314.2389977317008
 20
-18.17513312009903
 10
314.63104849244525
 20
-19.162380892617456
 10
315.04374297135746
 20
-20.14116709717674
 10
315.4768989341733
 20
-21.11105952934289
 10
315.93032511141354
 20
-22.071629911921477
 10
316.40382128284267
 20
-23.022454084072706
 10
316.8971783658809
 20
-23.963112188608946
 10
317.410178507929
 20
-24.893188857391838
 10
317.94259518256564
 20
-25.812273394747173
 10
318.4941932895755
 20
-26.719959958816542
 10
319.0647292587627
 20
-27.615847740765652
 10
319.6539511575044
 20
-28.499541141770305
 10
320.2615988019975
 20
-29.370649947701583
 10
320.88740387214807
 20
-30.228789501433493
 10
321.5310900300543
 20
-31.073580872696734
 10
322.19237304202943
 20
-31.9046510254036
 10
322.8709609041111
 20
-32.721632982370224
 10
323.5665539710026
 20
-33.5241659873634
 10
324.27884508838713
 20
-34.31189566440034
 10
325.0075197285593
 20
-35.084474174231175
 10
325.7522561293109
 20
-35.84156036793493
 10
326.5127254360126
 20
-36.58281993756132
 10
327.28859184682665
 20
-37.307925563751695
 10
328.0795127609875
 20
-38.01655706027409
 10
328.8851389300848
 20
-38.70840151540841
 10
329.70511461228165
 20
-39.38315343011953
 10
330.5390777294
 20
-40.04051485295692
 10
331.38666002680435
 20
-40.68019551162175
 10
332.2474872360126
 20
-41.30191294114288
 10
333.12117923996243
 20
-41.905392608605524
 10
334.0073502408603
 20
-42.490368034377155
 10
334.905608930539
 20
-43.05658090977748
 10
335.81555866324817
 20
-43.60378121114028
 10
336.73679763080196
 20
-44.131727310216775
 10
337.6689190400062
 20
-44.64018608087191
 10
338.61151129228693
 20
-45.12893300202627
 10
339.5641581654406
 20
-45.597752256798245
 10
340.526438997426
 20
-46.04643682780272
 10
341.4979288721172
 20
-46.47478858856417
 10
342.4781988069341
 20
-46.8826183910036
 10
343.4668159422691
 20
-47.26974614896113
 10
344.46334373262596
 20
-47.636000917716956
 10
345.4673421393859
 20
-47.98122096947568
 10
346.4783678251162
 20
-48.30525386478078
 10
347.4959743493356
 20
-48.607956519827596
 10
348.51971236564975
 20
-48.88919526964508
 10
349.54912982017004
 20
-49.148845927118515
 10
350.5837721511279
 20
-49.38679383782701
 10
351.6231824895963
 20
-49.60293393067172
 10
352.6669018612304
 20
-49.797170764272224
 10
353.7144693889375
 20
-49.9694185691108
 10
354.7654224963877
 20
-50.11960128540581
 10
355.8192971122742
 20
-50.24765259669754
 10
356.8756278752345
 20
-50.35351595913173
 10
357.9339483393406
 20
-50.4371446264277
 10
358.99379118006834
 20
-50.49850167052021
 10
360.0546884006552
 20
-50.53755999786587
 10
361.11617153875403
 20
-50.55430236140685
 10
362.17777187329295
 20
-50.54872136818673
 10
363.23902063144953
 20
-50.52081948261501
 10
364.2994491956475
 20
-50.47060902537888
 10
365.3585893104853
 20
-50.398112168002775
 10
366.4159732895041
 20
-50.30336092305805
 10
367.4711342217055
 20
-50.18639713002711
 10
368.5236061777256
 20
-50.047272436828294
 10
369.5729244155771
 20
-49.8860482770096
 10
370.61862558586563
 20
-49.702795842621356
 10
371.66024793639207
 20
-49.49759605277983
 10
372.6973315160493
 20
-49.270539517935596
 10
373.7294183779236
 20
-49.02172649986253
 10
374.7560527815113
 20
-48.75126686738506
 10
375.7767813939606
 20
-48.45928004786313
 10
376.791153490251
 20
-48.145894974456475
 10
377.7987211522205
 20
-47.81125002919136
 10
378.79903946635375
 20
-47.45549298185499
 10
379.7916667202433
 20
-47.07878092474447
 10
380.77616459763755
 20
-46.68128020329937
 10
381.75209837198844
 20
-46.26316634264817
 10
382.719037098415
 20
-45.82462397010134
 10
383.676553803996
 20
-45.365846733625126
 10
384.6242256763095
 20
-44.88703721633207
 10
385.56163425013466
 20
-44.38840684702594
 10
386.4883655922344
 20
-43.870175806840855
 10
387.40401048413673
 20
-43.33257293201529
 10
388.3081646028338
 20
-42.77583561284467
 10
389.20042869931973
 20
-42.20020968885634
 10
390.08040877488776
 20
-41.6059493402538
 10
390.947716255109
 20
-40.99331697567789
 10
391.8019681614159
 20
-40.362583116334484
 10
392.64278728021475
 20
-39.714026276540004
 10
393.4698023294528
 20
-39.047932840737275
 10
394.28264812256566
 20
-38.364596937036254
 10
395.08096572973363
 20
-37.664320307335316
 10
395.86440263637496
 20
-36.947412174080554
 10
396.63261289880637
 20
-36.21418910372183
 10
397.3852572970019
 20
-35.46497486692592
 10
398.1220034843832
 20
-34.700100295608586
 10
398.84252613457403
 20
-33.919903136848426
 10
399.54650708505574
 20
-33.12472790374726
 10
400.2336354776584
 20
-32.314925723302935
 10
400.9036078958274
 20
-31.4908541813615
 10
401.55612849860324
 20
-30.6528771647173
 10
402.19090915125696
 20
-29.801364700430874
 10
402.8076695525222
 20
-28.9366927924354
 10
403.40613735836826
 20
-28.05924325550393
 10
403.98604830225963
 20
-27.169403546650774
 10
404.5471463118486
 20
-26.26756659404134
 10
405.0891836220498
 20
-25.354130623486157
 10
405.6119208844459
 20
-24.429498982595558
 10
406.1151272729776
 20
-23.494079962672703
 10
406.59858058586946
 20
-22.548286618423685
 10
407.06206734374825
 20
-21.592536585564144
 10
407.5053828839095
 20
-20.627251896403177
 10
407.92833145069045
 20
-19.652858793485553
 10
408.3307262819105
 20
-18.669787541375285
 10
408.71238969134004
 20
-17.678472236662717
 10
409.07315314716175
 20
-16.67935061627975
 10
409.41285734638944
 20
-15.67286386420751
 10
409.73135228521176
 20
-14.659456416661966
 10
410.0284973252298
 20
-13.639575765843366
 10
410.3041612555589
 20
-12.613672262336298
 10
410.5582223507675
 20
-11.58219891624755
 10
410.7905684246282
 20
-10.545611197169597
 10
411.00109687965556
 20
-9.504366833058043
 10
411.1897147524105
 20
-8.458925608111858
 10
411.35633875455017
 20
-7.4097491597456075
 10
411.5008953096059
 20
-6.357300774743364
 10
411.6233205854724
 20
-5.302045184684362
 10
411.7235605225943
 20
-4.244448360730421
 10
411.8015708578372
 20
-3.184977307866481
 10
411.8573171440331
 20
-2.124099858684157
 10
411.8907747651914
 20
-1.06228446680009
 10
411.90192894736845
 20
-1.2382403786178887e-14
  0
LINE
  5
99
330
17
100
AcDbEntity
  8
Layer
100
AcDbLine
 10
688.1071971529539
 20
-4.001234825349104e-14
 30
0.0
 11
692.1071971529539
 21
-4.050220697314998e-14
 31
0.0
  0
LINE
  5
9A
330
17
100
AcDbEntity
  8
Layer
100
AcDbLine
 10
15.668076534721251
 20
4.2337693415166916e-14
 30
0.0
 11
11.668076534721251
 21
4.2827552134825856e-14
 31
0.0
  0
LINE
  5
9B
330
17
100
AcDbEntity
  8
Layer
100
AcDbLine
 10
154.45590065836777
 20
2.5341086957801964e-14
 30
0.0
 11
143.45590065836777
 21
2.668819843686405e-14
 31
0.0
  0
LWPOLYLINE
  5
9C
330
17
100
AcDbEntity
  8
Layer
100
AcDbPolyline
 90
5
 70
0
 10
143.95590065836777
 20
-4.999999999999973
 10
143.95590065836777
 20
5.000000000000027
 10
153.95590065836777
 20
5.000000000000026
 10
153.95590065836777
 20
-4.999999999999974
 10
143.95590065836777
 20
-4.999999999999973
  0
LINE
  5
9D
330
17
100
AcDbEntity
  8
Layer
100
AcDbLine
 10
357.3876368438375
 20
4.891168413068934e-16
 30
0.0
 11
346.3876368438375
 21
1.8362283203689816e-15
 31
0.0
  0
LWPOLYLINE
  5
9E
330
17
100
AcDbEntity
  8
Layer
100
AcDbPolyline
 90
5
 70
0
 10
346.8876368438375
 20
-4.999999999999998
 10
346.8876368438375
 20
5.000000000000002
 10
356.8876368438375
 20
5.000000000000001
 10
356.8876368438375
 20
-4.999999999999999
 10
346.8876368438375
 20
-4.999999999999998
  0
LINE
  5
9F
330
17
100
AcDbEntity
  8
Layer
100
AcDbLine
 10
560.3193730293074
 20
-2.4362853275188176e-14
 30
0.0
 11
549.3193730293074
 21
-2.301574179612609e-14
 31
0.0
  0
LWPOLYLINE
  5
A0
330
17
100
AcDbEntity
  8
Layer
100
AcDbPolyline
 90
5
 70
0
 10
549.8193730293074
 20
-5.000000000000023
 10
549.8193730293074
 20
4.999999999999977
 10
559.8193730293074
 20
4.999999999999976
 10
559.8193730293074
 20
-5.000000000000024
 10
549.8193730293074
 20
-5.000000000000023
  0
LINE
  5
A1
330
17
100
AcDbEntity
  8
Layer
100
AcDbLine
 10
0.6225350765810163
 20
-23.68241970590645
 30
0.0
 11
-3.365675932326667
 21
-23.375543593399176
 31
0.0
  0
LINE
  5
A2
330
17
100
AcDbEntity
  8
Layer
100
AcDbLine
 10
609.8426849376544
 20
-70.55935546304198
 30
0.0
 11
613.8308959465621
 21
-70.86623157554925
 31
0.0
  0
LINE
  5
A3
330
17
100
AcDbEntity
  8
Layer
100
AcDbLine
 10
948.0101585706801
 20
-96.57992444826532
 30
0.0
 11
951.9983695795878
 21
-96.88680056077258
 31
0.0
  0
LINE
  5
A4
330
17
100
AcDbEntity
  8
Layer
100
AcDbLine
 10
361.38157894736844
 20
50.55499999999999
 30
0.0
 11
361.38157894736844
 21
51.05499999999999
 31
0.0
  0
LINE
  5
A5
330
17
100
AcDbEntity
  8
Layer
100
AcDbLine
 10
361.38157894736844
 20
-50.55499999999999
 30
0.0
 11
361.38157894736844
 21
-51.05499999999999
 31
0.0
  0
LINE
  5
A6
330
17
100
AcDbEntity
  8
Layer
100
AcDbLine
 10
411.90192894736845
 20
0.0
 30
0.0
 11
412.40192894736845
 21
0.0
 31
0.0
  0
LINE
  5
A7
330
17
100
AcDbEntity
  8
Layer
100
AcDbLine
 10
310.86122894736843
 20
0.0
 30
0.0
 11
310.36122894736843
 21
0.0
 31
0.0
  0
LINE
  5
A8
330
17
100
AcDbEntity
  8
Layer
100
AcDbLine
 10
211.38157894736844
 20
61.779763651780534
 30
0.0
 11
211.38157894736844
 21
65.77976365178054
 31
0.0
  0
LINE
  5
A9
330
17
100
AcDbEntity
  8
Layer
100
AcDbLine
 10
211.38157894736844
 20
-61.823127120793124
 30
0.0
 11
211.38157894736844
 21
-65.82312712079312
 31
0.0
  0
LINE
  5
AA
330
17
100
AcDbEntity
  8
Layer
100
AcDbLine
 10
211.38157894736844
 20
-32.802548966278394
 30
0.0
 11
211.38157894736844
 21
-43.802548966278394
 31
0.0
  0
LWPOLYLINE
  5
AB
330
17
100
AcDbEntity
  8
Layer
100
AcDbPolyline
 90
5
 70
0
 10
216.38157894736844
 20
-43.302548966278394
 10
206.38157894736844
 20
-43.302548966278394
 10
206.38157894736844
 20
-33.302548966278394
 10
216.38157894736844
 20
-33.302548966278394
 10
216.38157894736844
 20
-43.302548966278394
  0
LINE
  5
AC
330
17
100
AcDbEntity
  8
Layer
100
AcDbLine
 10
211.38157894736844
 20
5.478318265493705
 30
0.0
 11
211.38157894736844
 21
-5.521681734506295
 31
0.0
  0
LWPOLYLINE
  5
AD
330
17
100
AcDbEntity
  8
Layer
100
AcDbPolyline
 90
5
 70
0
 10
216.38157894736844
 20
-5.021681734506295
 10
206.38157894736844
 20
-5.021681734506295
 10
206.38157894736844
 20
4.978318265493705
 10
216.38157894736844
 20
4.978318265493705
 10
216.38157894736844
 20
-5.021681734506295
  0
LINE
  5
AE
330
17
100
AcDbEntity
  8
Layer
100
AcDbLine
 10
211.38157894736844
 20
43.759185497265804
 30
0.0
 11
211.38157894736844
 21
32.759185497265804
 31
0.0
  0
LWPOLYLINE
  5
AF
330
17
100
AcDbEntity
  8
Layer
100
AcDbPolyline
 90
5
 70
0
 10
216.38157894736844
 20
33.259185497265804
 10
206.38157894736844
 20
33.259185497265804
 10
206.38157894736844
 20
43.259185497265804
 10
216.38157894736844
 20
43.259185497265804
 10
216.38157894736844
 20
33.259185497265804
  0
LINE
  5
B0
330
17
100
AcDbEntity
  8
Layer
100
AcDbLine
 10
461.38157894736844
 20
53.300670534061844
 30
0.0
 11
461.38157894736844
 21
57.300670534061844
 31
0.0
  0
LINE
  5
B1
330
17
100
AcDbEntity
  8
Layer
100
AcDbLine
 10
461.38157894736844
 20
-65.90080417142269
 30
0.0
 11
461.38157894736844
 21
-69.90080417142269
 31
0.0
  0
LINE
  5
B2
330
17
100
AcDbEntity
  8
Layer
100
AcDbLine
 10
461.38157894736844
 20
-37.76050923032579
 30
0.0
 11
461.38157894736844
 21
-48.76050923032579
 31
0.0
  0
LWPOLYLINE
  5
B3
330
17
100
AcDbEntity
  8
Layer
100
AcDbPolyline
 90
5
 70
0
 10
466.38157894736844
 20
-48.26050923032579
 10
456.38157894736844
 20
-48.26050923032579
 10
456.38157894736844
 20
-38.26050923032579
 10
466.38157894736844
 20
-38.26050923032579
 10
466.38157894736844
 20
-48.26050923032579
  0
LINE
  5
B4
330
17
100
AcDbEntity
  8
Layer
100
AcDbLine
 10
461.38157894736844
 20
-0.8000668186804241
 30
0.0
 11
461.38157894736844
 21
-11.800066818680424
 31
0.0
  0
LWPOLYLINE
  5
B5
330
17
100
AcDbEntity
  8
Layer
100
AcDbPolyline
 90
5
 70
0
 10
466.38157894736844
 20
-11.300066818680424
 10
456.38157894736844
 20
-11.300066818680424
 10
456.38157894736844
 20
-1.300066818680424
 10
466.38157894736844
 20
-1.300066818680424
 10
466.38157894736844
 20
-11.300066818680424
  0
LINE
  5
B6
330
17
100
AcDbEntity
  8
Layer
100
AcDbLine
 10
461.38157894736844
 20
36.16037559296494
 30
0.0
 11
461.38157894736844
 21
25.16037559296494
 31
0.0
  0
LWPOLYLINE
  5
B7
330
17
100
AcDbEntity
  8
Layer
100
AcDbPolyline
 90
5
 70
0
 10
466.38157894736844
 20
25.66037559296494
 10
456.38157894736844
 20
25.66037559296494
 10
456.38157894736844
 20
35.66037559296494
 10
466.38157894736844
 20
35.66037559296494
 10
466.38157894736844
 20
25.66037559296494
  0
ENDSEC
  0
SECTION
  2
OBJECTS
  0
DICTIONARY
  5
A
330
0
100
AcDbDictionary
280
0
281
1
  3
ACAD_COLOR
350
B
  3
ACAD_GROUP
350
C
  3
ACAD_LAYOUT
350
D
  3
ACAD_MATERIAL
350
E
  3
ACAD_MLEADERSTYLE
350
F
  3
ACAD_MLINESTYLE
350
10
  3
ACAD_PLOTSETTINGS
350
11
  3
ACAD_PLOTSTYLENAME
350
12
  3
ACAD_SCALELIST
350
14
  3
ACAD_TABLESTYLE
350
15
  3
ACAD_VISUALSTYLE
350
16
  3
EZDXF_META
350
2D
  0
DICTIONARY
  5
B
330
A
100
AcDbDictionary
280
0
281
1
  0
DICTIONARY
  5
C
330
A
100
AcDbDictionary
280
0
281
1
  0
DICTIONARY
  5
D
330
A
100
AcDbDictionary
280
0
281
1
  3
Model
350
1A
  3
Layout1
350
1E
  0
DICTIONARY
  5
E
330
A
100
AcDbDictionary
280
0
281
1
  3
ByBlock
350
1F
  3
ByLayer
350
20
  3
Global
350
21
  0
DICTIONARY
  5
F
330
A
100
AcDbDictionary
280
0
281
1
  3
Standard
350
2C
  0
DICTIONARY
  5
10
330
A
100
AcDbDictionary
280
0
281
1
  3
Standard
350
22
  0
DICTIONARY
  5
11
330
A
100
AcDbDictionary
280
0
281
1
  0
ACDBDICTIONARYWDFLT
  5
12
330
A
100
AcDbDictionary
280
0
281
1
  3
Normal
350
13
100
AcDbDictionaryWithDefault
340
13
  0
ACDBPLACEHOLDER
  5
13
330
12
  0
DICTIONARY
  5
14
330
A
100
AcDbDictionary
280
0
281
1
  0
DICTIONARY
  5
15
330
A
100
AcDbDictionary
280
0
281
1
  0
DICTIONARY
  5
16
330
A
100
AcDbDictionary
280
0
281
1
  3
2dWireframe
350
5A
  3
Basic
350
5B
  3
Brighten
350
5C
  3
ColorChange
350
5D
  3
Conceptual
350
5E
  3
Dim
350
5F
  3
EdgeColorOff
350
60
  3
Facepattern
350
61
  3
Flat
350
62
  3
FlatWithEdges
350
63
  3
Gouraud
350
64
  3
GouraudWithEdges
350
65
  3
Hidden
350
66
  3
JitterOff
350
67
  3
Linepattern
350
68
  3
Modeling
350
69
  3
OverhangOff
350
6A
  3
Realistic
350
6B
  3
Shaded
350
6C
  3
Shaded with edges
350
6D
  3
Shades of Gray
350
6E
  3
Sketchy
350
6F
  3
Thicken
350
70
  3
Wireframe
350
71
  3
X-Ray
350
72
  0
LAYOUT
  5
1A
330
D
100
AcDbPlotSettings
  1

  2
Adobe PDF
  4
A3
  6

 40
7.5
 41
20.0
 42
7.5
 43
20.0
 44
420.0
 45
297.0
 46
0.0
 47
0.0
 48
0.0
 49
0.0
140
0.0
141
0.0
142
1.0
143
1.0
 70
1024
 72
1
 73
0
 74
5
  7

 75
16
 76
0
 77
2
 78
300
147
1.0
148
0.0
149
0.0
100
AcDbLayout
  1
Model
 70
1
 71
0
 10
0.0
 20
0.0
 11
420.0
 21
297.0
 12
0.0
 22
0.0
 32
0.0
 14
1e+20
 24
1e+20
 34
1e+20
 15
-1e+20
 25
-1e+20
 35
-1e+20
146
0.0
 13
0.0
 23
0.0
 33
0.0
 16
1.0
 26
0.0
 36
0.0
 17
0.0
 27
1.0
 37
0.0
 76
1
330
17
  0
LAYOUT
  5
1E
330
D
100
AcDbPlotSettings
  1

  2
Adobe PDF
  4
A3
  6

 40
7.5
 41
20.0
 42
7.5
 43
20.0
 44
420.0
 45
297.0
 46
0.0
 47
0.0
 48
0.0
 49
0.0
140
0.0
141
0.0
142
1.0
143
1.0
 70
0
 72
1
 73
0
 74
5
  7

 75
16
 76
0
 77
2
 78
300
147
1.0
148
0.0
149
0.0
100
AcDbLayout
  1
Layout1
 70
1
 71
1
 10
0.0
 20
0.0
 11
420.0
 21
297.0
 12
0.0
 22
0.0
 32
0.0
 14
1e+20
 24
1e+20
 34
1e+20
 15
-1e+20
 25
-1e+20
 35
-1e+20
146
0.0
 13
0.0
 23
0.0
 33
0.0
 16
1.0
 26
0.0
 36
0.0
 17
0.0
 27
1.0
 37
0.0
 76
1
330
1B
  0
MATERIAL
  5
1F
102
{ACAD_REACTORS
330
E
102
}
330
E
100
AcDbMaterial
  1
ByBlock
  2

 70
0
 40
1.0
 71
1
 41
1.0
 91
-1023410177
 42
1.0
 72
1
  3

 73
1
 74
1
 75
1
 44
0.5
 73
0
 45
1.0
 46
1.0
 77
1
  4

 78
1
 79
1
170
1
 48
1.0
171
1
  6

172
1
173
1
174
1
140
1.0
141
1.0
175
1
  7

176
1
177
1
178
1
143
1.0
179
1
  8

270
1
271
1
272
1
145
1.0
146
1.0
273
1
  9

274
1
275
1
276
1
 42
1.0
 72
1
  3

 73
1
 74
1
 75
1
 94
63
  0
MATERIAL
  5
20
102
{ACAD_REACTORS
330
E
102
}
330
E
100
AcDbMaterial
  1
ByLayer
  2

 70
0
 40
1.0
 71
1
 41
1.0
 91
-1023410177
 42
1.0
 72
1
  3

 73
1
 74
1
 75
1
 44
0.5
 73
0
 45
1.0
 46
1.0
 77
1
  4

 78
1
 79
1
170
1
 48
1.0
171
1
  6

172
1
173
1
174
1
140
1.0
141
1.0
175
1
  7

176
1
177
1
178
1
143
1.0
179
1
  8

270
1
271
1
272
1
145
1.0
146
1.0
273
1
  9

274
1
275
1
276
1
 42
1.0
 72
1
  3

 73
1
 74
1
 75
1
 94
63
  0
MATERIAL
  5
21
102
{ACAD_REACTORS
330
E
102
}
330
E
100
AcDbMaterial
  1
Global
  2

 70
0
 40
1.0
 71
1
 41
1.0
 91
-1023410177
 42
1.0
 72
1
  3

 73
1
 74
1
 75
1
 44
0.5
 73
0
 45
1.0
 46
1.0
 77
1
  4

 78
1
 79
1
170
1
 48
1.0
171
1
  6

172
1
173
1
174
1
140
1.0
141
1.0
175
1
  7

176
1
177
1
178
1
143
1.0
179
1
  8

270
1
271
1
272
1
145
1.0
146
1.0
273
1
  9

274
1
275
1
276
1
 42
1.0
 72
1
  3

 73
1
 74
1
 75
1
 94
63
  0
MLINESTYLE
  5
22
102
{ACAD_REACTORS
330
10
102
}
330
10
100
AcDbMlineStyle
  2
Standard
 70
0
  3

 62
256
 51
90.0
 52
90.0
 71
2
 49
0.5
 62
256
  6
BYLAYER
 49
-0.5
 62
256
  6
BYLAYER
  0
MLEADERSTYLE
  5
2C
102
{ACAD_REACTORS
330
F
102
}
330
F
100
AcDbMLeaderStyle
179
2
170
2
171
1
172
0
 90
2
 40
0.0
 41
0.0
173
1
 91
-1056964608
 92
-2
290
1
 42
2.0
291
1
 43
8.0
  3
Standard
 44
4.0
300

342
29
174
1
175
1
176
0
178
1
 93
-1056964608
 45
4.0
292
0
297
0
 46
4.0
 94
-1056964608
 47
1.0
 49
1.0
140
1.0
294
1
141
0.0
177
0
142
1.0
295
0
296
0
143
3.75
271
0
272
9
273
9
  0
DICTIONARY
  5
2D
330
A
100
AcDbDictionary
281
1
  3
CREATED_BY_EZDXF
350
2E
  3
WRITTEN_BY_EZDXF
350
BA
  0
DICTIONARYVAR
  5
2E
330
2D
100
DictionaryVariables
280
0
  1
1.1.0 @ 2024-03-25T20:08:50.315852+00:00
  0
VISUALSTYLE
  5
5A
102
{ACAD_REACTORS
330
16
102
}
330
16
100
AcDbVisualStyle
  2
2dWireframe
 70
4
 90
0
 40
0.6
 62
7
290
0
291
0
  0
VISUALSTYLE
  5
5B
102
{ACAD_REACTORS
330
16
102
}
330
16
100
AcDbVisualStyle
  2
Basic
 70
7
 90
1
 40
0.6
 62
7
290
0
291
1
  0
VISUALSTYLE
  5
5C
102
{ACAD_REACTORS
330
16
102
}
330
16
100
AcDbVisualStyle
  2
Brighten
 70
12
 90
2
 40
0.6
 62
7
290
0
291
1
  0
VISUALSTYLE
  5
5D
102
{ACAD_REACTORS
330
16
102
}
330
16
100
AcDbVisualStyle
  2
ColorChange
 70
16
 90
2
 40
0.6
 62
8
290
0
291
1
  0
VISUALSTYLE
  5
5E
102
{ACAD_REACTORS
330
16
102
}
330
16
100
AcDbVisualStyle
  2
Conceptual
 70
9
 90
3
 40
0.6
 62
7
290
0
291
0
  0
VISUALSTYLE
  5
5F
102
{ACAD_REACTORS
330
16
102
}
330
16
100
AcDbVisualStyle
  2
Dim
 70
11
 90
2
 40
0.6
 62
7
290
0
291
1
  0
VISUALSTYLE
  5
60
102
{ACAD_REACTORS
330
16
102
}
330
16
100
AcDbVisualStyle
  2
EdgeColorOff
 70
22
 90
2
 40
0.6
 62
7
290
0
291
1
  0
VISUALSTYLE
  5
61
102
{ACAD_REACTORS
330
16
102
}
330
16
100
AcDbVisualStyle
  2
Facepattern
 70
15
 90
2
 40
0.6
 62
7
290
0
291
1
  0
VISUALSTYLE
  5
62
102
{ACAD_REACTORS
330
16
102
}
330
16
100
AcDbVisualStyle
  2
Flat
 70
0
 90
2
 40
0.6
 62
7
290
0
291
1
  0
VISUALSTYLE
  5
63
102
{ACAD_REACTORS
330
16
102
}
330
16
100
AcDbVisualStyle
  2
FlatWithEdges
 70
1
 90
2
 40
0.6
 62
7
290
0
291
1
  0
VISUALSTYLE
  5
64
102
{ACAD_REACTORS
330
16
102
}
330
16
100
AcDbVisualStyle
  2
Gouraud
 70
2
 90
2
 40
0.6
 62
7
290
0
291
1
  0
VISUALSTYLE
  5
65
102
{ACAD_REACTORS
330
16
102
}
330
16
100
AcDbVisualStyle
  2
GouraudWithEdges
 70
3
 90
2
 40
0.6
 62
7
290
0
291
1
  0
VISUALSTYLE
  5
66
102
{ACAD_REACTORS
330
16
102
}
330
16
100
AcDbVisualStyle
  2
Hidden
 70
6
 90
1
 40
0.6
 62
7
290
0
291
0
  0
VISUALSTYLE
  5
67
102
{ACAD_REACTORS
330
16
102
}
330
16
100
AcDbVisualStyle
  2
JitterOff
 70
20
 90
2
 40
0.6
 62
7
290
0
291
1
  0
VISUALSTYLE
  5
68
102
{ACAD_REACTORS
330
16
102
}
330
16
100
AcDbVisualStyle
  2
Linepattern
 70
14
 90
2
 40
0.6
 62
7
290
0
291
1
  0
VISUALSTYLE
  5
69
102
{ACAD_REACTORS
330
16
102
}
330
16
100
AcDbVisualStyle
  2
Modeling
 70
10
 90
2
 40
0.6
 62
7
290
0
291
0
  0
VISUALSTYLE
  5
6A
102
{ACAD_REACTORS
330
16
102
}
330
16
100
AcDbVisualStyle
  2
OverhangOff
 70
21
 90
2
 40
0.6
 62
7
290
0
291
1
  0
VISUALSTYLE
  5
6B
102
{ACAD_REACTORS
330
16
102
}
330
16
100
AcDbVisualStyle
  2
Realistic
 70
8
 90
2
 40
0.6
 62
7
290
0
291
0
  0
VISUALSTYLE
  5
6C
102
{ACAD_REACTORS
330
16
102
}
330
16
100
AcDbVisualStyle
  2
Shaded
 70
27
 90
2
 40
0.6
 62
7
290
0
291
0
  0
VISUALSTYLE
  5
6D
102
{ACAD_REACTORS
330
16
102
}
330
16
100
AcDbVisualStyle
  2
Shaded with edges
 70
26
 90
2
 40
0.6
 62
7
290
0
291
0
  0
VISUALSTYLE
  5
6E
102
{ACAD_REACTORS
330
16
102
}
330
16
100
AcDbVisualStyle
  2
Shades of Gray
 70
23
 90
2
 40
0.6
 62
7
290
0
291
0
  0
VISUALSTYLE
  5
6F
102
{ACAD_REACTORS
330
16
102
}
330
16
100
AcDbVisualStyle
  2
Sketchy
 70
24
 90
1
 40
0.6
 62
7
290
0
291
0
  0
VISUALSTYLE
  5
70
102
{ACAD_REACTORS
330
16
102
}
330
16
100
AcDbVisualStyle
  2
Thicken
 70
13
 90
2
 40
0.6
 62
7
290
0
291
1
  0
VISUALSTYLE
  5
71
102
{ACAD_REACTORS
330
16
102
}
330
16
100
AcDbVisualStyle
  2
Wireframe
 70
5
 90
0
 40
0.6
 62
7
290
0
291
0
  0
VISUALSTYLE
  5
72
102
{ACAD_REACTORS
330
16
102
}
330
16
100
AcDbVisualStyle
  2
X-Ray
 70
25
 90
2
 40
0.5
 62
7
290
0
291
0
  0
DICTIONARYVAR
  5
BA
330
2D
100
DictionaryVariables
280
0
  1
1.1.0 @ 2024-03-25T20:08:50.379453+00:00
  0
ENDSEC
  0
EOF
