  0
SECTION
  2
HEADER
  9
$ACADVER
  1
AC1021
  9
$ACADMAINTVER
 70
25
  9
$DWGCODEPAGE
  3
ANSI_1252
  9
$LASTSAVEDBY
  1
ezdxf
  9
$INSBASE
 10
0.0
 20
0.0
 30
0.0
  9
$EXTMIN
 10
1e+20
 20
1e+20
 30
1e+20
  9
$EXTMAX
 10
-1e+20
 20
-1e+20
 30
-1e+20
  9
$LIMMIN
 10
0.0
 20
0.0
  9
$LIMMAX
 10
420.0
 20
297.0
  9
$ORTHOMODE
 70
0
  9
$REGENMODE
 70
1
  9
$FILLMODE
 70
1
  9
$QTEXTMODE
 70
0
  9
$MIRRTEXT
 70
1
  9
$LTSCALE
 40
1.0
  9
$ATTMODE
 70
1
  9
$TEXTSIZE
 40
2.5
  9
$TRACEWID
 40
1.0
  9
$TEXTSTYLE
  7
OpenSans
  9
$CLAYER
  8
0
  9
$CELTYPE
  6
ByLayer
  9
$CECOLOR
 62
256
  9
$CELTSCALE
 40
1.0
  9
$DISPSILH
 70
0
  9
$DIMSCALE
 40
1.0
  9
$DIMASZ
 40
0.175
  9
$DIMEXO
 40
0.125
  9
$DIMDLI
 40
3.75
  9
$DIMRND
 40
0.0
  9
$DIMDLE
 40
0.0
  9
$DIMEXE
 40
0.375
  9
$DIMTP
 40
0.0
  9
$DIMTM
 40
0.0
  9
$DIMTXT
 40
0.25
  9
$DIMCEN
 40
2.5
  9
$DIMTSZ
 40
0.0
  9
$DIMTOL
 70
0
  9
$DIMLIM
 70
0
  9
$DIMTIH
 70
0
  9
$DIMTOH
 70
0
  9
$DIMSE1
 70
0
  9
$DIMSE2
 70
0
  9
$DIMTAD
 70
1
  9
$DIMZIN
 70
12
  9
$DIMBLK
  1
ARCHTICK
  9
$DIMASO
 70
1
  9
$DIMSHO
 70
1
  9
$DIMPOST
  1

  9
$DIMAPOST
  1

  9
$DIMALT
 70
0
  9
$DIMALTD
 70
3
  9
$DIMALTF
 40
0.03937007874
  9
$DIMLFAC
 40
100.0
  9
$DIMTOFL
 70
1
  9
$DIMTVP
 40
0.0
  9
$DIMTIX
 70
0
  9
$DIMSOXD
 70
0
  9
$DIMSAH
 70
0
  9
$DIMBLK1
  1

  9
$DIMBLK2
  1

  9
$DIMSTYLE
  2
EZDXF
  9
$DIMCLRD
 70
0
  9
$DIMCLRE
 70
0
  9
$DIMCLRT
 70
0
  9
$DIMTFAC
 40
0.5
  9
$DIMGAP
 40
0.1
  9
$DIMJUST
 70
0
  9
$DIMSD1
 70
0
  9
$DIMSD2
 70
0
  9
$DIMTOLJ
 70
0
  9
$DIMTZIN
 70
8
  9
$DIMALTZ
 70
0
  9
$DIMALTTZ
 70
0
  9
$DIMUPT
 70
1
  9
$DIMDEC
 70
2
  9
$DIMTDEC
 70
2
  9
$DIMALTU
 70
2
  9
$DIMALTTD
 70
3
  9
$DIMTXSTY
  7
OpenSansCondensed-Light
  9
$DIMAUNIT
 70
0
  9
$DIMADEC
 70
2
  9
$DIMALTRND
 40
0.0
  9
$DIMAZIN
 70
3
  9
$DIMDSEP
 70
46
  9
$DIMATFIT
 70
3
  9
$DIMFRAC
 70
0
  9
$DIMLDRBLK
  1

  9
$DIMLUNIT
 70
2
  9
$DIMLWD
 70
-2
  9
$DIMLWE
 70
-2
  9
$DIMTMOVE
 70
2
  9
$DIMFXL
 40
1.0
  9
$DIMFXLON
 70
0
  9
$DIMJOGANG
 40
0.785398163397
  9
$DIMTFILL
 70
0
  9
$DIMTFILLCLR
 70
0
  9
$DIMARCSYM
 70
0
  9
$DIMLTYPE
  6

  9
$DIMLTEX1
  6

  9
$DIMLTEX2
  6

  9
$LUNITS
 70
2
  9
$LUPREC
 70
4
  9
$SKETCHINC
 40
1.0
  9
$FILLETRAD
 40
10.0
  9
$AUNITS
 70
0
  9
$AUPREC
 70
2
  9
$MENU
  1
.
  9
$ELEVATION
 40
0.0
  9
$PELEVATION
 40
0.0
  9
$THICKNESS
 40
0.0
  9
$LIMCHECK
 70
0
  9
$CHAMFERA
 40
0.0
  9
$CHAMFERB
 40
0.0
  9
$CHAMFERC
 40
0.0
  9
$CHAMFERD
 40
0.0
  9
$SKPOLY
 70
0
  9
$TDCREATE
 40
2460396.2144560185
  9
$TDUCREATE
 40
2458532.153996898
  9
$TDUPDATE
 40
2460396.2144560185
  9
$TDUUPDATE
 40
2458532.1544311
  9
$TDINDWG
 40
0.0
  9
$TDUSRTIMER
 40
0.0
  9
$USRTIMER
 70
1
  9
$ANGBASE
 50
0.0
  9
$ANGDIR
 70
0
  9
$PDMODE
 70
0
  9
$PDSIZE
 40
0.0
  9
$PLINEWID
 40
0.0
  9
$SPLFRAME
 70
0
  9
$SPLINETYPE
 70
6
  9
$SPLINESEGS
 70
8
  9
$HANDSEED
  5
BB
  9
$SURFTAB1
 70
6
  9
$SURFTAB2
 70
6
  9
$SURFTYPE
 70
6
  9
$SURFU
 70
6
  9
$SURFV
 70
6
  9
$UCSBASE
  2

  9
$UCSNAME
  2

  9
$UCSORG
 10
0.0
 20
0.0
 30
0.0
  9
$UCSXDIR
 10
1.0
 20
0.0
 30
0.0
  9
$UCSYDIR
 10
0.0
 20
1.0
 30
0.0
  9
$UCSORTHOREF
  2

  9
$UCSORTHOVIEW
 70
0
  9
$UCSORGTOP
 10
0.0
 20
0.0
 30
0.0
  9
$UCSORGBOTTOM
 10
0.0
 20
0.0
 30
0.0
  9
$UCSORGLEFT
 10
0.0
 20
0.0
 30
0.0
  9
$UCSORGRIGHT
 10
0.0
 20
0.0
 30
0.0
  9
$UCSORGFRONT
 10
0.0
 20
0.0
 30
0.0
  9
$UCSORGBACK
 10
0.0
 20
0.0
 30
0.0
  9
$PUCSBASE
  2

  9
$PUCSNAME
  2

  9
$PUCSORG
 10
0.0
 20
0.0
 30
0.0
  9
$PUCSXDIR
 10
1.0
 20
0.0
 30
0.0
  9
$PUCSYDIR
 10
0.0
 20
1.0
 30
0.0
  9
$PUCSORTHOREF
  2

  9
$PUCSORTHOVIEW
 70
0
  9
$PUCSORGTOP
 10
0.0
 20
0.0
 30
0.0
  9
$PUCSORGBOTTOM
 10
0.0
 20
0.0
 30
0.0
  9
$PUCSORGLEFT
 10
0.0
 20
0.0
 30
0.0
  9
$PUCSORGRIGHT
 10
0.0
 20
0.0
 30
0.0
  9
$PUCSORGFRONT
 10
0.0
 20
0.0
 30
0.0
  9
$PUCSORGBACK
 10
0.0
 20
0.0
 30
0.0
  9
$USERI1
 70
0
  9
$USERI2
 70
0
  9
$USERI3
 70
0
  9
$USERI4
 70
0
  9
$USERI5
 70
0
  9
$USERR1
 40
0.0
  9
$USERR2
 40
0.0
  9
$USERR3
 40
0.0
  9
$USERR4
 40
0.0
  9
$USERR5
 40
0.0
  9
$WORLDVIEW
 70
1
  9
$SHADEDGE
 70
3
  9
$SHADEDIF
 70
70
  9
$TILEMODE
 70
1
  9
$MAXACTVP
 70
64
  9
$PINSBASE
 10
0.0
 20
0.0
 30
0.0
  9
$PLIMCHECK
 70
0
  9
$PEXTMIN
 10
1e+20
 20
1e+20
 30
1e+20
  9
$PEXTMAX
 10
-1e+20
 20
-1e+20
 30
-1e+20
  9
$PLIMMIN
 10
0.0
 20
0.0
  9
$PLIMMAX
 10
420.0
 20
297.0
  9
$UNITMODE
 70
0
  9
$VISRETAIN
 70
1
  9
$PLINEGEN
 70
0
  9
$PSLTSCALE
 70
1
  9
$TREEDEPTH
 70
3020
  9
$CMLSTYLE
  2
Standard
  9
$CMLJUST
 70
0
  9
$CMLSCALE
 40
20.0
  9
$PROXYGRAPHICS
 70
1
  9
$MEASUREMENT
 70
1
  9
$CELWEIGHT
370
-1
  9
$ENDCAPS
280
0
  9
$JOINSTYLE
280
0
  9
$LWDISPLAY
290
0
  9
$INSUNITS
 70
6
  9
$HYPERLINKBASE
  1

  9
$STYLESHEET
  1

  9
$XEDIT
290
1
  9
$CEPSNTYPE
380
0
  9
$PSTYLEMODE
290
1
  9
$FINGERPRINTGUID
  2
{281DDDC3-3CC7-42DF-8A72-BB68476F0617}
  9
$VERSIONGUID
  2
{947F8DA1-6BB9-4840-863B-4127AE1544C5}
  9
$EXTNAMES
290
1
  9
$PSVPSCALE
 40
0.0
  9
$OLESTARTUP
290
0
  9
$SORTENTS
280
127
  9
$INDEXCTL
280
0
  9
$HIDETEXT
280
1
  9
$XCLIPFRAME
290
0
  9
$HALOGAP
280
0
  9
$OBSCOLOR
 70
257
  9
$OBSLTYPE
280
0
  9
$INTERSECTIONDISPLAY
280
0
  9
$INTERSECTIONCOLOR
 70
257
  9
$DIMASSOC
280
2
  9
$PROJECTNAME
  1

  9
$CAMERADISPLAY
290
0
  9
$LENSLENGTH
 40
50.0
  9
$CAMERAHEIGHT
 40
0.0
  9
$STEPSPERSEC
 40
24.0
  9
$STEPSIZE
 40
100.0
  9
$3DDWFPREC
 40
2.0
  9
$PSOLWIDTH
 40
0.005
  9
$PSOLHEIGHT
 40
0.08
  9
$LOFTANG1
 40
1.570796326795
  9
$LOFTANG2
 40
1.570796326795
  9
$LOFTMAG1
 40
0.0
  9
$LOFTMAG2
 40
0.0
  9
$LOFTPARAM
 70
7
  9
$LOFTNORMALS
280
1
  9
$LATITUDE
 40
37.795
  9
$LONGITUDE
 40
-122.394
  9
$NORTHDIRECTION
 40
0.0
  9
$TIMEZONE
 70
-8000
  9
$LIGHTGLYPHDISPLAY
280
1
  9
$TILEMODELIGHTSYNCH
280
1
  9
$CMATERIAL
347
20
  9
$SOLIDHIST
280
0
  9
$SHOWHIST
280
1
  9
$DWFFRAME
280
2
  9
$DGNFRAME
280
2
  9
$REALWORLDSCALE
290
1
  9
$INTERFERECOLOR
 62
256
  9
$CSHADOW
280
0
  9
$SHADOWPLANELOCATION
 40
0.0
  0
ENDSEC
  0
SECTION
  2
CLASSES
  0
CLASS
  1
ACDBDICTIONARYWDFLT
  2
AcDbDictionaryWithDefault
  3
ObjectDBX Classes
 90
0
 91
0
280
0
281
0
  0
CLASS
  1
SUN
  2
AcDbSun
  3
SCENEOE
 90
1153
 91
0
280
0
281
0
  0
CLASS
  1
VISUALSTYLE
  2
AcDbVisualStyle
  3
ObjectDBX Classes
 90
4095
 91
0
280
0
281
0
  0
CLASS
  1
MATERIAL
  2
AcDbMaterial
  3
ObjectDBX Classes
 90
1153
 91
0
280
0
281
0
  0
CLASS
  1
SCALE
  2
AcDbScale
  3
ObjectDBX Classes
 90
1153
 91
0
280
0
281
0
  0
CLASS
  1
TABLESTYLE
  2
AcDbTableStyle
  3
ObjectDBX Classes
 90
4095
 91
0
280
0
281
0
  0
CLASS
  1
MLEADERSTYLE
  2
AcDbMLeaderStyle
  3
ACDB_MLEADERSTYLE_CLASS
 90
4095
 91
0
280
0
281
0
  0
CLASS
  1
DICTIONARYVAR
  2
AcDbDictionaryVar
  3
ObjectDBX Classes
 90
0
 91
0
280
0
281
0
  0
CLASS
  1
CELLSTYLEMAP
  2
AcDbCellStyleMap
  3
ObjectDBX Classes
 90
1152
 91
0
280
0
281
0
  0
CLASS
  1
MENTALRAYRENDERSETTINGS
  2
AcDbMentalRayRenderSettings
  3
SCENEOE
 90
1024
 91
0
280
0
281
0
  0
CLASS
  1
ACDBDETAILVIEWSTYLE
  2
AcDbDetailViewStyle
  3
ObjectDBX Classes
 90
1025
 91
0
280
0
281
0
  0
CLASS
  1
ACDBSECTIONVIEWSTYLE
  2
AcDbSectionViewStyle
  3
ObjectDBX Classes
 90
1025
 91
0
280
0
281
0
  0
CLASS
  1
RASTERVARIABLES
  2
AcDbRasterVariables
  3
ISM
 90
0
 91
0
280
0
281
0
  0
CLASS
  1
ACDBPLACEHOLDER
  2
AcDbPlaceHolder
  3
ObjectDBX Classes
 90
0
 91
0
280
0
281
0
  0
CLASS
  1
LAYOUT
  2
AcDbLayout
  3
ObjectDBX Classes
 90
0
 91
0
280
0
281
0
  0
ENDSEC
  0
SECTION
  2
TABLES
  0
TABLE
  2
VPORT
  5
8
330
0
100
AcDbSymbolTable
 70
1
  0
VPORT
  5
23
330
8
100
AcDbSymbolTableRecord
100
AcDbViewportTableRecord
  2
*Active
 70
0
 10
0.0
 20
0.0
 11
1.0
 21
1.0
 12
0.0
 22
0.0
 13
0.0
 23
0.0
 14
0.5
 24
0.5
 15
0.5
 25
0.5
 16
0.0
 26
0.0
 36
1.0
 17
0.0
 27
0.0
 37
0.0
 40
1000.0
 41
1.34
 42
50.0
 43
0.0
 44
0.0
 50
0.0
 51
0.0
 71
0
 72
1000
 73
1
 74
3
 75
0
 76
0
 77
0
 78
0
281
0
 65
0
146
0.0
  0
ENDTAB
  0
TABLE
  2
LTYPE
  5
2
330
0
100
AcDbSymbolTable
 70
21
  0
LTYPE
  5
24
330
2
100
AcDbSymbolTableRecord
100
AcDbLinetypeTableRecord
  2
ByBlock
 70
0
  3

 72
65
 73
0
 40
0.0
  0
LTYPE
  5
25
330
2
100
AcDbSymbolTableRecord
100
AcDbLinetypeTableRecord
  2
ByLayer
 70
0
  3

 72
65
 73
0
 40
0.0
  0
LTYPE
  5
26
330
2
100
AcDbSymbolTableRecord
100
AcDbLinetypeTableRecord
  2
Continuous
 70
0
  3

 72
65
 73
0
 40
0.0
  0
LTYPE
  5
2F
330
2
100
AcDbSymbolTableRecord
100
AcDbLinetypeTableRecord
  2
CENTER
 70
0
  3
Center ____ _ ____ _ ____ _ ____ _ ____ _ ____
 72
65
 73
4
 40
5.08
 49
3.175
 74
0
 49
-0.635
 74
0
 49
0.635
 74
0
 49
-0.635
 74
0
  0
LTYPE
  5
30
330
2
100
AcDbSymbolTableRecord
100
AcDbLinetypeTableRecord
  2
CENTERX2
 70
0
  3
Center (2x) ________  __  ________  __  ________
 72
65
 73
4
 40
8.89
 49
6.35
 74
0
 49
-0.635
 74
0
 49
1.27
 74
0
 49
-0.635
 74
0
  0
LTYPE
  5
31
330
2
100
AcDbSymbolTableRecord
100
AcDbLinetypeTableRecord
  2
CENTER2
 70
0
  3
Center (.5x) ____ _ ____ _ ____ _ ____ _ ____
 72
65
 73
4
 40
2.54
 49
1.587
 74
0
 49
-0.318
 74
0
 49
0.318
 74
0
 49
-0.318
 74
0
  0
LTYPE
  5
32
330
2
100
AcDbSymbolTableRecord
100
AcDbLinetypeTableRecord
  2
DASHED
 70
0
  3
Dashed __ __ __ __ __ __ __ __ __ __ __ __ __ _
 72
65
 73
2
 40
1.524
 49
1.27
 74
0
 49
-0.254
 74
0
  0
LTYPE
  5
33
330
2
100
AcDbSymbolTableRecord
100
AcDbLinetypeTableRecord
  2
DASHEDX2
 70
0
  3
Dashed (2x) ____  ____  ____  ____  ____  ____
 72
65
 73
2
 40
3.048
 49
2.54
 74
0
 49
-0.508
 74
0
  0
LTYPE
  5
34
330
2
100
AcDbSymbolTableRecord
100
AcDbLinetypeTableRecord
  2
DASHED2
 70
0
  3
Dashed (.5x) _ _ _ _ _ _ _ _ _ _ _ _ _ _
 72
65
 73
2
 40
0.762
 49
0.635
 74
0
 49
-0.127
 74
0
  0
LTYPE
  5
35
330
2
100
AcDbSymbolTableRecord
100
AcDbLinetypeTableRecord
  2
PHANTOM
 70
0
  3
Phantom ______  __  __  ______  __  __  ______
 72
65
 73
6
 40
6.35
 49
3.175
 74
0
 49
-0.635
 74
0
 49
0.635
 74
0
 49
-0.635
 74
0
 49
0.635
 74
0
 49
-0.635
 74
0
  0
LTYPE
  5
36
330
2
100
AcDbSymbolTableRecord
100
AcDbLinetypeTableRecord
  2
PHANTOMX2
 70
0
  3
Phantom (2x)____________    ____    ____    ____________
 72
65
 73
6
 40
10.795
 49
6.35
 74
0
 49
-0.635
 74
0
 49
1.27
 74
0
 49
-0.635
 74
0
 49
1.27
 74
0
 49
-0.635
 74
0
  0
LTYPE
  5
37
330
2
100
AcDbSymbolTableRecord
100
AcDbLinetypeTableRecord
  2
PHANTOM2
 70
0
  3
Phantom (.5x) ___ _ _ ___ _ _ ___ _ _ ___ _ _ ___
 72
65
 73
6
 40
3.175
 49
1.587
 74
0
 49
-0.318
 74
0
 49
0.318
 74
0
 49
-0.318
 74
0
 49
0.318
 74
0
 49
-0.318
 74
0
  0
LTYPE
  5
38
330
2
100
AcDbSymbolTableRecord
100
AcDbLinetypeTableRecord
  2
DASHDOT
 70
0
  3
Dash dot __ . __ . __ . __ . __ . __ . __ . __
 72
65
 73
4
 40
3.556
 49
2.54
 74
0
 49
-0.508
 74
0
 49
0.0
 74
0
 49
-0.508
 74
0
  0
LTYPE
  5
39
330
2
100
AcDbSymbolTableRecord
100
AcDbLinetypeTableRecord
  2
DASHDOTX2
 70
0
  3
Dash dot (2x) ____  .  ____  .  ____  .  ____
 72
65
 73
4
 40
6.096
 49
5.08
 74
0
 49
-0.508
 74
0
 49
0.0
 74
0
 49
-0.508
 74
0
  0
LTYPE
  5
3A
330
2
100
AcDbSymbolTableRecord
100
AcDbLinetypeTableRecord
  2
DASHDOT2
 70
0
  3
Dash dot (.5x) _ . _ . _ . _ . _ . _ . _ . _
 72
65
 73
4
 40
1.778
 49
1.27
 74
0
 49
-0.254
 74
0
 49
0.0
 74
0
 49
-0.254
 74
0
  0
LTYPE
  5
3B
330
2
100
AcDbSymbolTableRecord
100
AcDbLinetypeTableRecord
  2
DOT
 70
0
  3
Dot .  .  .  .  .  .  .  .  .  .  .  .  .  .  .  .
 72
65
 73
2
 40
0.508
 49
0.0
 74
0
 49
-0.508
 74
0
  0
LTYPE
  5
3C
330
2
100
AcDbSymbolTableRecord
100
AcDbLinetypeTableRecord
  2
DOTX2
 70
0
  3
Dot (2x) .    .    .    .    .    .    .    . 
 72
65
 73
2
 40
1.016
 49
0.0
 74
0
 49
-1.016
 74
0
  0
LTYPE
  5
3D
330
2
100
AcDbSymbolTableRecord
100
AcDbLinetypeTableRecord
  2
DOT2
 70
0
  3
Dot (.5) . . . . . . . . . . . . . . . . . . . 
 72
65
 73
2
 40
0.254
 49
0.0
 74
0
 49
-0.254
 74
0
  0
LTYPE
  5
3E
330
2
100
AcDbSymbolTableRecord
100
AcDbLinetypeTableRecord
  2
DIVIDE
 70
0
  3
Divide __ . . __ . . __ . . __ . . __ . . __
 72
65
 73
6
 40
4.064
 49
2.54
 74
0
 49
-0.508
 74
0
 49
0.0
 74
0
 49
-0.508
 74
0
 49
0.0
 74
0
 49
-0.508
 74
0
  0
LTYPE
  5
3F
330
2
100
AcDbSymbolTableRecord
100
AcDbLinetypeTableRecord
  2
DIVIDEX2
 70
0
  3
Divide (2x) ____  . .  ____  . .  ____  . .  ____
 72
65
 73
6
 40
6.604
 49
5.08
 74
0
 49
-0.508
 74
0
 49
0.0
 74
0
 49
-0.508
 74
0
 49
0.0
 74
0
 49
-0.508
 74
0
  0
LTYPE
  5
40
330
2
100
AcDbSymbolTableRecord
100
AcDbLinetypeTableRecord
  2
DIVIDE2
 70
0
  3
Divide(.5x) _ . _ . _ . _ . _ . _ . _ . _
 72
65
 73
6
 40
2.032
 49
1.27
 74
0
 49
-0.254
 74
0
 49
0.0
 74
0
 49
-0.254
 74
0
 49
0.0
 74
0
 49
-0.254
 74
0
  0
ENDTAB
  0
TABLE
  2
LAYER
  5
1
330
0
100
AcDbSymbolTable
 70
3
  0
LAYER
  5
27
330
1
100
AcDbSymbolTableRecord
100
AcDbLayerTableRecord
  2
0
 70
0
 62
7
  6
Continuous
370
-3
390
13
347
21
  0
LAYER
  5
28
330
1
100
AcDbSymbolTableRecord
100
AcDbLayerTableRecord
  2
Defpoints
 70
0
 62
7
  6
Continuous
290
0
370
-3
390
13
347
21
  0
LAYER
  5
8A
330
1
100
AcDbSymbolTableRecord
100
AcDbLayerTableRecord
  2
Layer
 70
0
 62
1
  6
Continuous
370
50
390
13
347
21
  0
ENDTAB
  0
TABLE
  2
STYLE
  5
5
330
0
100
AcDbSymbolTable
 70
26
  0
STYLE
  5
29
330
5
100
AcDbSymbolTableRecord
100
AcDbTextStyleTableRecord
  2
Standard
 70
0
 40
0.0
 41
1.0
 50
0.0
 71
0
 42
2.5
  3
txt
  4

  0
STYLE
  5
41
330
5
100
AcDbSymbolTableRecord
100
AcDbTextStyleTableRecord
  2
OpenSans-Light
 70
0
 40
0.0
 41
1.0
 50
0.0
 71
0
 42
2.5
  3
OpenSans-Light.ttf
  4

  0
STYLE
  5
42
330
5
100
AcDbSymbolTableRecord
100
AcDbTextStyleTableRecord
  2
OpenSans-Light-Italic
 70
0
 40
0.0
 41
1.0
 50
0.0
 71
0
 42
2.5
  3
OpenSans-LightItalic.ttf
  4

  0
STYLE
  5
43
330
5
100
AcDbSymbolTableRecord
100
AcDbTextStyleTableRecord
  2
OpenSans
 70
0
 40
0.0
 41
1.0
 50
0.0
 71
0
 42
2.5
  3
OpenSans-Regular.ttf
  4

  0
STYLE
  5
44
330
5
100
AcDbSymbolTableRecord
100
AcDbTextStyleTableRecord
  2
OpenSans-Italic
 70
0
 40
0.0
 41
1.0
 50
0.0
 71
0
 42
2.5
  3
OpenSans-Italic.ttf
  4

  0
STYLE
  5
45
330
5
100
AcDbSymbolTableRecord
100
AcDbTextStyleTableRecord
  2
OpenSans-SemiBold
 70
0
 40
0.0
 41
1.0
 50
0.0
 71
0
 42
2.5
  3
OpenSans-SemiBold.ttf
  4

  0
STYLE
  5
46
330
5
100
AcDbSymbolTableRecord
100
AcDbTextStyleTableRecord
  2
OpenSans-SemiBoldItalic
 70
0
 40
0.0
 41
1.0
 50
0.0
 71
0
 42
2.5
  3
OpenSans-SemiBoldItalic.ttf
  4

  0
STYLE
  5
47
330
5
100
AcDbSymbolTableRecord
100
AcDbTextStyleTableRecord
  2
OpenSans-Bold
 70
0
 40
0.0
 41
1.0
 50
0.0
 71
0
 42
2.5
  3
OpenSans-Bold.ttf
  4

  0
STYLE
  5
48
330
5
100
AcDbSymbolTableRecord
100
AcDbTextStyleTableRecord
  2
OpenSans-BoldItalic
 70
0
 40
0.0
 41
1.0
 50
0.0
 71
0
 42
2.5
  3
OpenSans-BoldItalic.ttf
  4

  0
STYLE
  5
49
330
5
100
AcDbSymbolTableRecord
100
AcDbTextStyleTableRecord
  2
OpenSans-ExtraBold
 70
0
 40
0.0
 41
1.0
 50
0.0
 71
0
 42
2.5
  3
OpenSans-ExtraBold.ttf
  4

  0
STYLE
  5
4A
330
5
100
AcDbSymbolTableRecord
100
AcDbTextStyleTableRecord
  2
OpenSans-ExtraBoldItalic
 70
0
 40
0.0
 41
1.0
 50
0.0
 71
0
 42
2.5
  3
OpenSans-ExtraBoldItalic.ttf
  4

  0
STYLE
  5
4B
330
5
100
AcDbSymbolTableRecord
100
AcDbTextStyleTableRecord
  2
OpenSansCondensed-Bold
 70
0
 40
0.0
 41
1.0
 50
0.0
 71
0
 42
2.5
  3
OpenSansCondensed-Bold.ttf
  4

  0
STYLE
  5
4C
330
5
100
AcDbSymbolTableRecord
100
AcDbTextStyleTableRecord
  2
OpenSansCondensed-Light
 70
0
 40
0.0
 41
1.0
 50
0.0
 71
0
 42
2.5
  3
OpenSansCondensed-Light.ttf
  4

  0
STYLE
  5
4D
330
5
100
AcDbSymbolTableRecord
100
AcDbTextStyleTableRecord
  2
OpenSansCondensed-Italic
 70
0
 40
0.0
 41
1.0
 50
0.0
 71
0
 42
2.5
  3
OpenSansCondensed-LightItalic.ttf
  4

  0
STYLE
  5
4E
330
5
100
AcDbSymbolTableRecord
100
AcDbTextStyleTableRecord
  2
LiberationSans
 70
0
 40
0.0
 41
1.0
 50
0.0
 71
0
 42
2.5
  3
LiberationSans-Regular.ttf
  4

  0
STYLE
  5
4F
330
5
100
AcDbSymbolTableRecord
100
AcDbTextStyleTableRecord
  2
LiberationSans-Bold
 70
0
 40
0.0
 41
1.0
 50
0.0
 71
0
 42
2.5
  3
LiberationSans-Bold.ttf
  4

  0
STYLE
  5
50
330
5
100
AcDbSymbolTableRecord
100
AcDbTextStyleTableRecord
  2
LiberationSans-BoldItalic
 70
0
 40
0.0
 41
1.0
 50
0.0
 71
0
 42
2.5
  3
LiberationSans-BoldItalic.ttf
  4

  0
STYLE
  5
51
330
5
100
AcDbSymbolTableRecord
100
AcDbTextStyleTableRecord
  2
LiberationSans-Italic
 70
0
 40
0.0
 41
1.0
 50
0.0
 71
0
 42
2.5
  3
LiberationSans-Italic.ttf
  4

  0
STYLE
  5
52
330
5
100
AcDbSymbolTableRecord
100
AcDbTextStyleTableRecord
  2
LiberationSerif
 70
0
 40
0.0
 41
1.0
 50
0.0
 71
0
 42
2.5
  3
LiberationSerif-Regular.ttf
  4

  0
STYLE
  5
53
330
5
100
AcDbSymbolTableRecord
100
AcDbTextStyleTableRecord
  2
LiberationSerif-Bold
 70
0
 40
0.0
 41
1.0
 50
0.0
 71
0
 42
2.5
  3
LiberationSerif-Bold.ttf
  4

  0
STYLE
  5
54
330
5
100
AcDbSymbolTableRecord
100
AcDbTextStyleTableRecord
  2
LiberationSerif-BoldItalic
 70
0
 40
0.0
 41
1.0
 50
0.0
 71
0
 42
2.5
  3
LiberationSerif-BoldItalic.ttf
  4

  0
STYLE
  5
55
330
5
100
AcDbSymbolTableRecord
100
AcDbTextStyleTableRecord
  2
LiberationSerif-Italic
 70
0
 40
0.0
 41
1.0
 50
0.0
 71
0
 42
2.5
  3
LiberationSerif-Italic.ttf
  4

  0
STYLE
  5
56
330
5
100
AcDbSymbolTableRecord
100
AcDbTextStyleTableRecord
  2
LiberationMono
 70
0
 40
0.0
 41
1.0
 50
0.0
 71
0
 42
2.5
  3
LiberationMono-Regular.ttf
  4

  0
STYLE
  5
57
330
5
100
AcDbSymbolTableRecord
100
AcDbTextStyleTableRecord
  2
LiberationMono-Bold
 70
0
 40
0.0
 41
1.0
 50
0.0
 71
0
 42
2.5
  3
LiberationMono-Bold.ttf
  4

  0
STYLE
  5
58
330
5
100
AcDbSymbolTableRecord
100
AcDbTextStyleTableRecord
  2
LiberationMono-BoldItalic
 70
0
 40
0.0
 41
1.0
 50
0.0
 71
0
 42
2.5
  3
LiberationMono-BoldItalic.ttf
  4

  0
STYLE
  5
59
330
5
100
AcDbSymbolTableRecord
100
AcDbTextStyleTableRecord
  2
LiberationMono-Italic
 70
0
 40
0.0
 41
1.0
 50
0.0
 71
0
 42
2.5
  3
LiberationMono-Italic.ttf
  4

  0
ENDTAB
  0
TABLE
  2
VIEW
  5
7
330
0
100
AcDbSymbolTable
 70
0
  0
ENDTAB
  0
TABLE
  2
UCS
  5
6
330
0
100
AcDbSymbolTable
 70
0
  0
ENDTAB
  0
TABLE
  2
APPID
  5
3
330
0
100
AcDbSymbolTable
 70
3
  0
APPID
  5
2A
330
3
100
AcDbSymbolTableRecord
100
AcDbRegAppTableRecord
  2
ACAD
 70
0
  0
APPID
  5
B8
330
3
100
AcDbSymbolTableRecord
100
AcDbRegAppTableRecord
  2
HATCHBACKGROUNDCOLOR
 70
0
  0
APPID
  5
B9
330
3
100
AcDbSymbolTableRecord
100
AcDbRegAppTableRecord
  2
EZDXF
 70
0
  0
ENDTAB
  0
TABLE
  2
DIMSTYLE
  5
4
330
0
100
AcDbSymbolTable
 70
12
100
AcDbDimStyleTable
  0
DIMSTYLE
105
2B
330
4
100
AcDbSymbolTableRecord
100
AcDbDimStyleTableRecord
  2
Standard
 70
0
 40
1.0
 41
2.5
 42
0.625
 43
3.75
 44
1.25
 45
0.0
 46
0.0
 47
0.0
 48
0.0
 49
2.5
140
2.5
141
2.5
142
0.0
143
0.03937007874
144
1.0
145
0.0
146
1.0
147
0.625
148
0.0
 69
0
 70
0
 71
0
 72
0
 73
0
 74
0
 75
0
 76
0
 77
1
 78
8
 79
3
170
0
171
3
172
1
173
0
174
0
175
0
176
0
177
0
178
0
179
2
271
2
272
2
273
2
274
3
275
0
276
0
277
2
278
44
279
0
280
0
281
0
282
0
283
0
284
8
285
0
286
0
288
0
289
3
290
0
371
-2
372
-2
  0
DIMSTYLE
105
73
330
4
100
AcDbSymbolTableRecord
100
AcDbDimStyleTableRecord
  2
EZDXF
 70
0
 40
1.0
 41
0.175
 42
0.125
 43
3.75
 44
0.375
 45
0.0
 46
0.0
 47
0.0
 48
0.0
 49
2.5
140
0.25
141
2.5
142
0.0
143
0.03937007874
144
100.0
145
0.0
146
0.5
147
0.1
148
0.0
 69
0
 70
0
 71
0
 72
0
 73
0
 74
0
 75
0
 76
0
 77
1
 78
12
 79
3
170
0
171
3
172
1
173
0
174
0
175
0
176
0
177
0
178
0
179
2
271
2
272
2
273
2
274
3
275
0
276
0
277
2
278
46
279
2
280
0
281
0
282
0
283
0
284
8
285
0
286
0
288
1
289
3
290
0
340
4C
342
74
371
-2
372
-2
  0
DIMSTYLE
105
7C
330
4
100
AcDbSymbolTableRecord
100
AcDbDimStyleTableRecord
  2
EZ_M_100_H25_CM
 70
0
 40
1.0
 41
0.25
 42
0.125
 43
3.75
 44
0.375
 45
0.0
 46
0.0
 47
0.0
 48
0.0
 49
2.5
140
0.25
141
2.5
142
0.125
143
0.03937007874
144
100.0
145
0.0
146
0.5
147
0.1
148
0.0
 69
0
 70
0
 71
0
 72
0
 73
0
 74
0
 75
0
 76
0
 77
1
 78
12
 79
3
170
0
171
3
172
1
173
0
174
0
175
0
176
0
177
0
178
0
179
2
271
2
272
2
273
2
274
3
275
0
276
0
277
2
278
46
279
2
280
0
281
0
282
0
283
0
284
8
285
0
286
0
288
1
289
3
290
0
340
4C
371
-2
372
-2
  0
DIMSTYLE
105
7D
330
4
100
AcDbSymbolTableRecord
100
AcDbDimStyleTableRecord
  2
EZ_M_50_H25_CM
 70
0
 40
1.0
 41
0.125
 42
0.0625
 43
3.75
 44
0.1875
 45
0.0
 46
0.0
 47
0.0
 48
0.0
 49
2.5
140
0.125
141
2.5
142
0.0625
143
0.03937007874
144
100.0
145
0.0
146
0.5
147
0.05
148
0.0
 69
0
 70
0
 71
0
 72
0
 73
0
 74
0
 75
0
 76
0
 77
1
 78
12
 79
3
170
0
171
3
172
1
173
0
174
0
175
0
176
0
177
0
178
0
179
2
271
2
272
2
273
2
274
3
275
0
276
0
277
2
278
46
279
2
280
0
281
0
282
0
283
0
284
8
285
0
286
0
288
1
289
3
290
0
340
4C
371
-2
372
-2
  0
DIMSTYLE
105
7E
330
4
100
AcDbSymbolTableRecord
100
AcDbDimStyleTableRecord
  2
EZ_M_25_H25_CM
 70
0
 40
1.0
 41
0.0625
 42
0.03125
 43
3.75
 44
0.09375
 45
0.0
 46
0.0
 47
0.0
 48
0.0
 49
2.5
140
0.0625
141
2.5
142
0.03125
143
0.03937007874
144
100.0
145
0.0
146
0.5
147
0.025
148
0.0
 69
0
 70
0
 71
0
 72
0
 73
0
 74
0
 75
0
 76
0
 77
1
 78
12
 79
3
170
0
171
3
172
1
173
0
174
0
175
0
176
0
177
0
178
0
179
2
271
2
272
2
273
2
274
3
275
0
276
0
277
2
278
46
279
2
280
0
281
0
282
0
283
0
284
8
285
0
286
0
288
1
289
3
290
0
340
4C
371
-2
372
-2
  0
DIMSTYLE
105
7F
330
4
100
AcDbSymbolTableRecord
100
AcDbDimStyleTableRecord
  2
EZ_M_20_H25_CM
 70
0
 40
1.0
 41
0.05
 42
0.025
 43
3.75
 44
0.07500000000000001
 45
0.0
 46
0.0
 47
0.0
 48
0.0
 49
2.5
140
0.05
141
2.5
142
0.025
143
0.03937007874
144
100.0
145
0.0
146
0.5
147
0.020000000000000004
148
0.0
 69
0
 70
0
 71
0
 72
0
 73
0
 74
0
 75
0
 76
0
 77
1
 78
12
 79
3
170
0
171
3
172
1
173
0
174
0
175
0
176
0
177
0
178
0
179
2
271
2
272
2
273
2
274
3
275
0
276
0
277
2
278
46
279
2
280
0
281
0
282
0
283
0
284
8
285
0
286
0
288
1
289
3
290
0
340
4C
371
-2
372
-2
  0
DIMSTYLE
105
80
330
4
100
AcDbSymbolTableRecord
100
AcDbDimStyleTableRecord
  2
EZ_M_10_H25_CM
 70
0
 40
1.0
 41
0.025
 42
0.0125
 43
3.75
 44
0.037500000000000006
 45
0.0
 46
0.0
 47
0.0
 48
0.0
 49
2.5
140
0.025
141
2.5
142
0.0125
143
0.03937007874
144
100.0
145
0.0
146
0.5
147
0.010000000000000002
148
0.0
 69
0
 70
0
 71
0
 72
0
 73
0
 74
0
 75
0
 76
0
 77
1
 78
12
 79
3
170
0
171
3
172
1
173
0
174
0
175
0
176
0
177
0
178
0
179
2
271
2
272
2
273
2
274
3
275
0
276
0
277
2
278
46
279
2
280
0
281
0
282
0
283
0
284
8
285
0
286
0
288
1
289
3
290
0
340
4C
371
-2
372
-2
  0
DIMSTYLE
105
81
330
4
100
AcDbSymbolTableRecord
100
AcDbDimStyleTableRecord
  2
EZ_M_5_H25_CM
 70
0
 40
1.0
 41
0.0125
 42
0.00625
 43
3.75
 44
0.018750000000000003
 45
0.0
 46
0.0
 47
0.0
 48
0.0
 49
2.5
140
0.0125
141
2.5
142
0.00625
143
0.03937007874
144
100.0
145
0.0
146
0.5
147
0.005000000000000001
148
0.0
 69
0
 70
0
 71
0
 72
0
 73
0
 74
0
 75
0
 76
0
 77
1
 78
12
 79
3
170
0
171
3
172
1
173
0
174
0
175
0
176
0
177
0
178
0
179
2
271
2
272
2
273
2
274
3
275
0
276
0
277
2
278
46
279
2
280
0
281
0
282
0
283
0
284
8
285
0
286
0
288
1
289
3
290
0
340
4C
371
-2
372
-2
  0
DIMSTYLE
105
82
330
4
100
AcDbSymbolTableRecord
100
AcDbDimStyleTableRecord
  2
EZ_M_1_H25_CM
 70
0
 40
1.0
 41
0.0025
 42
0.00125
 43
3.75
 44
0.00375
 45
0.0
 46
0.0
 47
0.0
 48
0.0
 49
2.5
140
0.0025
141
2.5
142
0.00125
143
0.03937007874
144
100.0
145
0.0
146
0.5
147
0.001
148
0.0
 69
0
 70
0
 71
0
 72
0
 73
0
 74
0
 75
0
 76
0
 77
1
 78
12
 79
3
170
0
171
3
172
1
173
0
174
0
175
0
176
0
177
0
178
0
179
2
271
2
272
2
273
2
274
3
275
0
276
0
277
2
278
46
279
2
280
0
281
0
282
0
283
0
284
8
285
0
286
0
288
1
289
3
290
0
340
4C
371
-2
372
-2
  0
DIMSTYLE
105
83
330
4
100
AcDbSymbolTableRecord
100
AcDbDimStyleTableRecord
  2
EZ_RADIUS
 70
0
 40
1.0
 41
0.25
 42
0.125
 43
3.75
 44
0.375
 45
0.0
 46
0.0
 47
0.0
 48
0.0
 49
2.5
140
0.25
141
0.0
142
0.0
143
0.03937007874
144
100.0
145
0.0
146
0.5
147
0.1
148
0.0
 69
0
 70
0
 71
0
 72
0
 73
0
 74
0
 75
0
 76
0
 77
1
 78
12
 79
3
170
0
171
3
172
0
173
0
174
0
175
0
176
0
177
0
178
0
179
2
271
2
272
2
273
2
274
3
275
0
276
0
277
2
278
46
279
1
280
0
281
0
282
0
283
0
284
8
285
0
286
0
288
1
289
3
290
0
340
4C
342
84
371
-2
372
-2
  0
DIMSTYLE
105
88
330
4
100
AcDbSymbolTableRecord
100
AcDbDimStyleTableRecord
  2
EZ_RADIUS_INSIDE
 70
0
 40
1.0
 41
0.25
 42
0.125
 43
3.75
 44
0.375
 45
0.0
 46
0.0
 47
0.0
 48
0.0
 49
2.5
140
0.25
141
0.0
142
0.0
143
0.03937007874
144
100.0
145
0.0
146
0.5
147
0.1
148
0.0
 69
0
 70
0
 71
0
 72
0
 73
0
 74
0
 75
0
 76
0
 77
0
 78
12
 79
3
170
0
171
3
172
0
173
0
174
1
175
0
176
0
177
0
178
0
179
2
271
2
272
2
273
2
274
3
275
0
276
0
277
2
278
46
279
0
280
0
281
0
282
0
283
0
284
8
285
0
286
0
288
1
289
0
290
0
340
4C
342
84
371
-2
372
-2
  0
DIMSTYLE
105
89
330
4
100
AcDbSymbolTableRecord
100
AcDbDimStyleTableRecord
  2
EZ_CURVED
 70
0
 40
1.0
 41
0.25
 42
0.125
 43
3.75
 44
0.375
 45
0.0
 46
0.0
 47
0.0
 48
0.0
 49
2.5
140
0.25
141
2.5
142
0.0
143
0.03937007874
144
100.0
145
0.0
146
0.5
147
0.1
148
0.0
 69
0
 70
0
 71
0
 72
0
 73
0
 74
0
 75
0
 76
0
 77
1
 78
12
 79
2
 90
2
170
0
171
3
172
1
173
0
174
0
175
0
176
0
177
0
178
0
179
2
271
2
272
2
273
2
274
3
275
0
276
0
277
2
278
46
279
2
280
0
281
0
282
0
283
0
284
8
285
0
286
0
288
1
289
3
290
0
340
4C
371
-2
372
-2
  0
ENDTAB
  0
TABLE
  2
BLOCK_RECORD
  5
9
330
0
100
AcDbSymbolTable
 70
5
  0
BLOCK_RECORD
  5
17
330
9
100
AcDbSymbolTableRecord
100
AcDbBlockTableRecord
  2
*Model_Space
340
1A
 70
0
280
1
281
0
  0
BLOCK_RECORD
  5
1B
330
9
100
AcDbSymbolTableRecord
100
AcDbBlockTableRecord
  2
*Paper_Space
340
1E
 70
0
280
1
281
0
  0
BLOCK_RECORD
  5
74
330
9
100
AcDbSymbolTableRecord
100
AcDbBlockTableRecord
  2
_ARCHTICK
340
0
 70
0
280
1
281
0
  0
BLOCK_RECORD
  5
78
330
9
100
AcDbSymbolTableRecord
100
AcDbBlockTableRecord
  2
_CLOSEDFILLED
340
0
 70
0
280
1
281
0
  0
BLOCK_RECORD
  5
84
330
9
100
AcDbSymbolTableRecord
100
AcDbBlockTableRecord
  2
_CLOSEDBLANK
340
0
 70
0
280
1
281
0
  0
ENDTAB
  0
ENDSEC
  0
SECTION
  2
BLOCKS
  0
BLOCK
  5
18
330
17
100
AcDbEntity
  8
0
100
AcDbBlockBegin
  2
*Model_Space
 70
0
 10
0.0
 20
0.0
 30
0.0
  3
*Model_Space
  1

  0
ENDBLK
  5
19
330
17
100
AcDbEntity
  8
0
100
AcDbBlockEnd
  0
BLOCK
  5
1C
330
1B
100
AcDbEntity
  8
0
100
AcDbBlockBegin
  2
*Paper_Space
 70
0
 10
0.0
 20
0.0
 30
0.0
  3
*Paper_Space
  1

  0
ENDBLK
  5
1D
330
1B
100
AcDbEntity
  8
0
100
AcDbBlockEnd
  0
BLOCK
  5
75
330
74
100
AcDbEntity
  8
0
100
AcDbBlockBegin
  2
_ARCHTICK
 70
0
 10
0.0
 20
0.0
 30
0.0
  3
_ARCHTICK
  1

  0
LWPOLYLINE
  5
77
330
74
100
AcDbEntity
  8
0
  6
BYBLOCK
 62
0
100
AcDbPolyline
 90
2
 70
0
 43
0.15
 10
-0.5
 20
-0.5000000000000001
 10
0.5000000000000001
 20
0.5
  0
ENDBLK
  5
76
330
74
100
AcDbEntity
  8
0
100
AcDbBlockEnd
  0
BLOCK
  5
79
330
78
100
AcDbEntity
  8
0
100
AcDbBlockBegin
  2
_CLOSEDFILLED
 70
0
 10
0.0
 20
0.0
 30
0.0
  3
_CLOSEDFILLED
  1

  0
SOLID
  5
7B
330
78
100
AcDbEntity
  8
0
  6
BYBLOCK
 62
0
100
AcDbTrace
 10
-1.0
 20
0.1643989837240255
 30
0.0
 11
0.0
 21
0.0
 31
0.0
 12
-1.0
 22
-0.1643989837240255
 32
0.0
 13
-1.0
 23
-0.1643989837240255
 33
0.0
  0
ENDBLK
  5
7A
330
78
100
AcDbEntity
  8
0
100
AcDbBlockEnd
  0
BLOCK
  5
85
330
84
100
AcDbEntity
  8
0
100
AcDbBlockBegin
  2
_CLOSEDBLANK
 70
0
 10
0.0
 20
0.0
 30
0.0
  3
_CLOSEDBLANK
  1

  0
LWPOLYLINE
  5
87
330
84
100
AcDbEntity
  8
0
  6
BYBLOCK
 62
0
100
AcDbPolyline
 90
3
 70
1
 10
-1.0
 20
0.1643989837240255
 10
0.0
 20
0.0
 10
-1.0
 20
-0.1643989837240255
  0
ENDBLK
  5
86
330
84
100
AcDbEntity
  8
0
100
AcDbBlockEnd
  0
ENDSEC
  0
SECTION
  2
ENTITIES
  0
LWPOLYLINE
  5
8B
330
17
100
AcDbEntity
  8
Layer
100
AcDbPolyline
 90
303
 70
1
 10
1005.5319525867105
 20
-101.08790196519605
 10
1002.5238457786954
 20
-99.86349821884359
 10
997.6799665160553
 20
-97.9860551128321
 10
992.4418316913469
 20
-95.91300599889902
 10
986.7186964932546
 20
-93.6877056677351
 10
980.4753170750192
 20
-91.30511124727342
 10
973.7591522965912
 20
-88.74335506058146
 10
966.6509886386771
 20
-86.01842840621916
 10
959.2128525348049
 20
-83.17980796061985
 10
951.5607715686823
 20
-80.2633014239543
 10
943.8348334384648
 20
-77.3476945726087
 10
936.0431597191849
 20
-74.46492890700038
 10
928.1455441874745
 20
-71.48135192054305
 10
920.15657533444
 20
-68.45058023872177
 10
912.0285440502339
 20
-65.42973065670446
 10
903.7683691404676
 20
-62.372368278299476
 10
895.3667773404442
 20
-59.301846451263586
 10
886.8057919963351
 20
-56.16114583263986
 10
878.1083820424631
 20
-52.97608101992229
 10
869.3116786508876
 20
-49.7620224870528
 10
860.4520141051205
 20
-46.528471043836824
 10
851.5639901834497
 20
-43.284905673018756
 10
842.6719352359485
 20
-40.046986404873216
 10
833.7820081353493
 20
-36.822940618626475
 10
824.8951347883655
 20
-33.61423856274158
 10
816.0142537742597
 20
-30.42128922242053
 10
807.1497279539382
 20
-27.24545779333171
 10
798.3190350061741
 20
-24.095679783226487
 10
789.5227331776155
 20
-20.981780884482003
 10
780.7437997787636
 20
-17.902553280716784
 10
771.9755954079628
 20
-14.852036237350125
 10
763.2262465176102
 20
-11.831829155393116
 10
758.8962105693938
 20
-10.350923057237909
 10
758.5564251957817
 20
-11.34442489411558
 10
754.1633137352287
 20
-9.841937833316457
 10
745.4587203000799
 20
-6.8969624228838
 10
736.7664641818465
 20
-3.990113553841144
 10
728.0799740427726
 20
-1.1206999358712963
 10
719.3932882488417
 20
1.7139052222041562
 10
710.707419565153
 20
4.51782868633977
 10
702.0463112756569
 20
7.289261058580909
 10
693.4406890706199
 20
10.014270152835735
 10
684.8979701301035
 20
12.677931661966506
 10
676.4065779091037
 20
15.275234873683779
 10
667.9529386416061
 20
17.80649069487848
 10
659.5252099646848
 20
20.2732667615581
 10
651.1129172358869
 20
22.677750559168082
 10
642.7104189952556
 20
25.02239344602666
 10
634.3184177992206
 20
27.307458276036343
 10
625.9380935165821
 20
29.53017669834559
 10
617.5620457834959
 20
31.68838465899085
 10
609.1781807656916
 20
33.78421252127799
 10
600.780018005588
 20
35.821086572769204
 10
592.365014964246
 20
37.80101744404453
 10
583.9324891938415
 20
39.725266586111
 10
575.4837824565639
 20
41.59442707796104
 10
567.0223626213879
 20
43.40818592430317
 10
558.5501370571087
 20
45.16455957869824
 10
550.0614928021566
 20
46.86232609796422
 10
541.5482354249871
 20
48.50387667437824
 10
533.0075553060996
 20
50.09256488996888
 10
524.4414646255375
 20
51.630956618404426
 10
515.8587390069688
 20
53.11994828525805
 10
507.26907140599917
 20
54.55755172150058
 10
498.6776707752867
 20
55.94085539846251
 10
490.0866707179847
 20
57.268989183404464
 10
481.500175001164
 20
58.54101600462469
 10
472.9207303621041
 20
59.75501769288823
 10
464.34767106342196
 20
60.90923773415157
 10
455.77829426376866
 20
62.003487442337665
 10
447.2127911781617
 20
63.03804975060994
 10
438.65198017483453
 20
64.01215252948914
 10
430.0942928073983
 20
64.92491040278347
 10
421.5381667809297
 20
65.77644497686954
 10
412.98518582190025
 20
66.56683393886667
 10
404.4340041980955
 20
67.29436219057503
 10
395.88046705271154
 20
67.95863992505637
 10
387.32029627649865
 20
68.56130839359147
 10
378.7564592167694
 20
69.1042678959462
 10
370.1949147835833
 20
69.58767414725395
 10
361.6409404707874
 20
70.01031651238054
 10
353.09763850039957
 20
70.37064228767287
 10
344.56540921088464
 20
70.66739820170933
 10
336.0446016983723
 20
70.90054941901656
 10
327.5378137804003
 20
71.0708950579969
 10
319.0533090524128
 20
71.18035763622602
 10
310.60692445781046
 20
71.22869172015628
 10
302.2111453680366
 20
71.21184741333337
 10
293.87101085125244
 20
71.12371876999731
 10
285.5790976218435
 20
70.956322995936
 10
277.31246698733844
 20
70.70506439060331
 10
269.05330905953065
 20
70.37419613151845
 10
260.8044177771428
 20
69.97002636819532
 10
252.57515705452835
 20
69.49269572150999
 10
244.36887195636675
 20
68.94037967952373
 10
236.18783494484111
 20
68.31329792035291
 10
228.03930983149058
 20
67.61258001675384
 10
219.93080543219398
 20
66.83746671119715
 10
211.86828456775365
 20
65.98691429669641
 10
203.85623896136508
 20
65.05956317901571
 10
195.89851748230728
 20
64.0544918849962
 10
187.9995223812159
 20
62.97172994443152
 10
180.1679576902399
 20
61.81077194864995
 10
172.40520083371484
 20
60.5645894180959
 10
164.69667503485695
 20
59.22956323740525
 10
157.04327364440792
 20
57.81872839486977
 10
149.48549225535584
 20
56.3490208389312
 10
142.0647996102831
 20
54.81947248859257
 10
134.79463979016015
 20
53.21911893491474
 10
127.67285612758886
 20
51.53980639545754
 10
120.69407001050524
 20
49.777538838833664
 10
113.8540712950196
 20
47.93161382820894
 10
107.15350982258809
 20
46.00459566264754
 10
100.59950047880295
 20
44.00288483027702
 10
94.20705921247452
 20
41.935133611165504
 10
87.99399871037224
 20
39.80743215231174
 10
81.97196823929613
 20
37.624772266263506
 10
76.15335074346171
 20
35.40124816901209
 10
70.5619437071361
 20
33.15943903435122
 10
65.22626107765677
 20
30.918046377745885
 10
60.16745070006408
 20
28.688342009505217
 10
55.39679058854745
 20
26.4773006128071
 10
50.915076225714756
 20
24.288534484122668
 10
46.71557339889773
 20
22.127841257410726
 10
42.79004219962508
 20
20.005037384367753
 10
39.12943638838141
 20
17.929569125668703
 10
35.72426878924847
 20
15.910077841103291
 10
32.56480089416908
 20
13.951047765844416
 10
29.639317094660328
 20
12.05225302949213
 10
26.934498857315532
 20
10.210519901366935
 10
24.435255949037582
 20
8.420310632271532
 10
22.12335147397772
 20
6.676094604971687
 10
19.98083775437169
 20
4.979101727011605
 10
17.99344188414682
 20
3.333004632063713
 10
16.15052039958732
 20
1.7385901883780044
 10
14.442158444905203
 20
0.19254497336178064
 10
12.858929215567002
 20
-1.3080149005379782
 10
11.392296002806575
 20
-2.7659457101768514
 10
10.03429421101572
 20
-4.184282393273533
 10
8.776395087392586
 20
-5.567189206836093
 10
7.609837054684874
 20
-6.916421201550441
 10
6.528973821558225
 20
-8.22921448429825
 10
5.531884521689392
 20
-9.505243486787862
 10
4.612514039969767
 20
-10.756423463419209
 10
3.758080874678285
 20
-11.99024792644669
 10
2.964621341159841
 20
-13.18585327148102
 10
2.2448049666713246
 20
-14.327053728206202
 10
1.6028804462296193
 20
-15.449109495488964
 10
1.0211947493965
 20
-16.586725140812117
 10
0.4859238481624857
 20
-17.70096342000007
 10
0.00988845394914506
 20
-18.75067334509391
 10
-0.3922176625055158
 20
-19.770761826729416
 10
-0.7250892435167202
 20
-20.80320473596655
 10
-1.0031379171829826
 20
-21.829545472687126
 10
-1.2310126694289352
 20
-22.823068050095237
 10
-1.4040106699946477
 20
-23.78916268162289
 10
-1.5216997912779107
 20
-24.755263933285388
 10
-1.5815464108688957
 20
-25.655114776878637
 10
-1.5829557216625858
 20
-26.565287695353206
 10
-1.5094355842196592
 20
-27.47984720642805
 10
-1.3523566513816263
 20
-28.406194919441884
 10
-1.1131448407400057
 20
-29.33836784563049
 10
-0.7940084457727608
 20
-30.26825455648519
 10
-0.3946476397235301
 20
-31.189691786105662
 10
0.08629259469176986
 20
-32.09666190643618
 10
0.6564980016001414
 20
-32.99034346137868
 10
1.3192277573465958
 20
-33.87287794460584
 10
2.0675844107055354
 20
-34.74193322964339
 10
2.896750894447507
 20
-35.59552003946888
 10
3.804589513692406
 20
-36.43168767725426
 10
4.7912154712596475
 20
-37.24832635387642
 10
5.860912976562076
 20
-38.04448492365933
 10
7.018248426980904
 20
-38.820549886026434
 10
8.268466109469443
 20
-39.578842487373734
 10
9.615541722230319
 20
-40.323848388216724
 10
11.061070716782751
 20
-41.061474232859496
 10
12.606136816349931
 20
-41.79709895018469
 10
14.254537071045775
 20
-42.534855846927755
 10
16.012185256457258
 20
-43.277696190559304
 10
17.88632609595635
 20
-44.02740472168186
 10
19.884571521320538
 20
-44.78348391505097
 10
22.0206552607782
 20
-45.542163072446584
 10
24.315933788741688
 20
-46.30056894603916
 10
26.7901090692593
 20
-47.06230553166529
 10
29.458725627784872
 20
-47.83433001580907
 10
32.33886924371927
 20
-48.62207952402103
 10
35.44977731627
 20
-49.42868069351777
 10
38.811351914944964
 20
-50.25165756812458
 10
42.449129192352984
 20
-51.082281289506575
 10
46.39368943203124
 20
-51.9126605250362
 10
50.67959210822238
 20
-52.73816998775616
 10
55.34494768304398
 20
-53.5596965012937
 10
60.41789463053419
 20
-54.38745508424005
 10
65.90421472740326
 20
-55.227435180970616
 10
71.79891881227638
 20
-56.06784663563091
 10
78.1008686357572
 20
-56.89171699278378
 10
84.80709814152675
 20
-57.69044259301084
 10
91.90727768087032
 20
-58.46330389457405
 10
99.37169868949064
 20
-59.21695422282639
 10
107.13488613730755
 20
-59.95529230644096
 10
115.11661965953982
 20
-60.667266757247255
 10
123.25854588115754
 20
-61.335037599738975
 10
131.53604671108303
 20
-61.94183751087354
 10
139.96900710570424
 20
-62.48152909178613
 10
148.5849849741059
 20
-62.96993875299721
 10
157.3616702621041
 20
-63.42710075977604
 10
166.2603698156647
 20
-63.853509497312224
 10
175.2764077299065
 20
-64.24629942954972
 10
184.4100084407613
 20
-64.61498707573315
 10
193.63106190170944
 20
-64.97171232009921
 10
196.72511586235902
 20
-65.08765310051044
 10
196.68579772403342
 20
-66.13691669179653
 10
202.85668785632618
 20
-66.36815372274079
 10
212.12782681623676
 20
-66.69970342108995
 10
221.39495896065887
 20
-67.00316320289566
 10
230.6857586699772
 20
-67.27352737906516
 10
240.0238629291257
 20
-67.52001251475984
 10
249.4025099945472
 20
-67.75306778297569
 10
258.799157703165
 20
-67.97716751232464
 10
268.18731379703746
 20
-68.18877367102336
 10
277.5645695016934
 20
-68.37693240530697
 10
286.96081744870105
 20
-68.53751907637678
 10
296.4017937492325
 20
-68.67776728493979
 10
305.8868942431249
 20
-68.81122220769413
 10
315.39292447607255
 20
-68.95197051066265
 10
324.92018410296635
 20
-69.09966869057249
 10
334.45747402543026
 20
-69.2402351871222
 10
344.01820720757274
 20
-69.3705115610089
 10
353.6021939123017
 20
-69.49748701516265
 10
363.1937309085967
 20
-69.62676079087413
 10
372.7875687277787
 20
-69.76077553945643
 10
382.3833091628951
 20
-69.90011869908207
 10
391.97801828132253
 20
-70.04214162448612
 10
401.56407552628434
 20
-70.17996370808854
 10
411.1494506573378
 20
-70.308385719805
 10
420.7433777546158
 20
-70.43216562063162
 10
430.3365646451362
 20
-70.55933001294532
 10
439.930535166322
 20
-70.69264616230625
 10
449.5266883949479
 20
-70.83081512188483
 10
459.12056819696926
 20
-70.96770831815259
 10
468.70986455402544
 20
-71.09816201909126
 10
478.30072716627103
 20
-71.22213180989569
 10
487.8906874088872
 20
-71.34286973009011
 10
497.47105160365106
 20
-71.46600008465295
 10
507.0390855194463
 20
-71.59629278958717
 10
516.5993934896644
 20
-71.73573261635235
 10
526.1573958783497
 20
-71.88393027256932
 10
535.7131760968499
 20
-72.03855202654215
 10
545.2589638979108
 20
-72.19939823098153
 10
554.7912689739634
 20
-72.36903826253769
 10
564.3141006717206
 20
-72.55133548162058
 10
573.8409330052652
 20
-72.74917013879276
 10
583.3888909337142
 20
-72.95910080706975
 10
592.9560744837343
 20
-73.1733694163343
 10
602.5273521769342
 20
-73.38471692520557
 10
612.1020218737216
 20
-73.58910998047543
 10
621.6781789890468
 20
-73.79116065396342
 10
631.2456108208495
 20
-73.99902559492227
 10
640.8093554683435
 20
-74.21584278409652
 10
650.3751998604739
 20
-74.44055038226388
 10
659.9384705687418
 20
-74.66588730162428
 10
669.4897174026798
 20
-74.88541235395174
 10
679.0241241561475
 20
-75.1056462260849
 10
688.5322245866798
 20
-75.33611991856455
 10
698.0249242023015
 20
-75.58235239950443
 10
707.5198037160967
 20
-75.84510786426658
 10
717.0235127221457
 20
-76.1160641937121
 10
726.513259813646
 20
-76.38868243285862
 10
735.9587119323198
 20
-76.66345329253991
 10
745.3362976801126
 20
-76.9481914242266
 10
754.6466707738293
 20
-77.2566701442488
 10
763.9182298940598
 20
-77.59273093684273
 10
773.1476263002085
 20
-77.94218161103025
 10
782.2865805242632
 20
-78.30624208311653
 10
791.3295329490095
 20
-78.71009005530455
 10
800.3223133341776
 20
-79.16509291540001
 10
809.295528602366
 20
-79.66285484784324
 10
818.2330924610642
 20
-80.18123843117917
 10
827.0925219666333
 20
-80.68800668525093
 10
835.7843777832938
 20
-81.20192515327555
 10
844.3010531866958
 20
-81.79829529810624
 10
852.786336390036
 20
-82.4905682089337
 10
861.2740674915406
 20
-83.185865933535
 10
869.6767524016459
 20
-83.8568940003632
 10
877.9614929562671
 20
-84.58648077081045
 10
886.2052328105688
 20
-85.40991560695484
 10
894.4284195416384
 20
-86.22979811232338
 10
902.5674398106562
 20
-87.00050870610852
 10
910.5880563031533
 20
-87.82206460397649
 10
918.5643205634105
 20
-88.78174213941463
 10
926.5907176160786
 20
-89.81378655151362
 10
934.5755200910049
 20
-90.83900018676454
 10
942.3539008226654
 20
-91.8770443813762
 10
949.9649098127618
 20
-93.05579368525864
 10
957.5322360069738
 20
-94.3121696174634
 10
964.9559460160368
 20
-95.58697073649265
 10
972.1330252625789
 20
-96.83272291793449
 10
978.9610791650097
 20
-98.07364331704154
 10
985.4188819937805
 20
-99.29745874257976
 10
991.4767423038556
 20
-100.44253184806867
 10
997.1049876372521
 20
-101.54098591054135
 10
1002.2881394919972
 20
-102.57621863448219
 10
1005.491408923847
 20
-103.25033720387219
  0
LWPOLYLINE
  5
8C
330
17
100
AcDbEntity
  8
Layer
100
AcDbPolyline
 90
5
 70
0
 10
660.3921990825964
 20
15.85165393432785
 10
656.5532608008933
 20
16.975287713311808
 10
657.6768945798773
 20
20.814225995014993
 10
661.5158328615804
 20
19.690592216031035
 10
660.3921990825964
 20
15.85165393432785
  0
LWPOLYLINE
  5
8D
330
17
100
AcDbEntity
  8
Layer
100
AcDbPolyline
 90
5
 70
0
 10
280.5369611188136
 20
66.80117981646171
 10
276.5388084959514
 20
66.67962487291797
 10
276.41725355240766
 20
70.67777749578019
 10
280.4154061752699
 20
70.79933243932393
 10
280.5369611188136
 20
66.80117981646171
  0
LWPOLYLINE
  5
8E
330
17
100
AcDbEntity
  8
Layer
100
AcDbPolyline
 90
5
 70
0
 10
107.43959677330132
 20
41.90954194820999
 10
103.61407770463519
 20
40.74103698233617
 10
102.44557273876138
 20
44.56655605100231
 10
106.27109180742751
 20
45.73506101687613
 10
107.43959677330132
 20
41.90954194820999
  0
LWPOLYLINE
  5
8F
330
17
100
AcDbEntity
  8
Layer
100
AcDbPolyline
 90
5
 70
0
 10
18.6871872330933
 20
-1.3606202602059663
 10
17.2045139131482
 20
-2.702886935022482
 10
14.519980563515173
 20
0.2624597048677124
 10
16.00265388346027
 20
1.604726379684228
 10
18.6871872330933
 20
-1.3606202602059663
  0
LWPOLYLINE
  5
90
330
17
100
AcDbEntity
  8
Layer
100
AcDbPolyline
 90
5
 70
0
 10
8.180352756545407
 20
-34.78360203788024
 10
9.842684635908984
 20
-35.89565092297998
 10
7.6185868657095135
 20
-39.22031468170714
 10
5.956254986345938
 20
-38.1082657966074
 10
8.180352756545407
 20
-34.78360203788024
  0
LWPOLYLINE
  5
91
330
17
100
AcDbEntity
  8
Layer
100
AcDbPolyline
 90
5
 70
0
 10
144.4284238443892
 20
-58.727888513372896
 10
148.42201298556486
 20
-58.95426380240391
 10
148.19563769653385
 20
-62.94785294357957
 10
144.20204855535818
 20
-62.72147765454856
 10
144.4284238443892
 20
-58.727888513372896
  0
LINE
  5
92
330
17
100
AcDbEntity
  8
Layer
100
AcDbLine
 10
987.3645179886202
 20
-93.93881746883127
 30
0.0
 11
987.1583670548018
 21
-94.39434111529307
 31
0.0
  0
LINE
  5
93
330
17
100
AcDbEntity
  8
Layer
100
AcDbLine
 10
985.8552712090238
 20
-98.87161753196061
 30
0.0
 11
985.7848188064373
 21
-99.36662910654223
 31
0.0
  0
LINE
  5
94
330
17
100
AcDbEntity
  8
Layer
100
AcDbLine
 10
968.6660301601418
 20
-86.79089800817779
 30
0.0
 11
968.4736069385341
 21
-87.25238831553659
 31
0.0
  0
LINE
  5
95
330
17
100
AcDbEntity
  8
Layer
100
AcDbLine
 10
966.180304906213
 20
-95.29204296206905
 30
0.0
 11
966.1003161274189
 21
-95.7856032879331
 31
0.0
  0
LINE
  5
96
330
17
100
AcDbEntity
  8
Layer
100
AcDbLine
 10
931.236956061648
 20
-72.64923167949195
 30
0.0
 11
931.0523592904284
 21
-73.11390794535377
 31
0.0
  0
LINE
  5
97
330
17
100
AcDbEntity
  8
Layer
100
AcDbLine
 10
926.6256227520569
 20
-89.31434825612214
 30
0.0
 11
926.5482704074315
 21
-89.80832863506542
 31
0.0
  0
LWPOLYLINE
  5
98
330
17
100
AcDbEntity
  8
Layer
100
AcDbPolyline
 90
300
 70
1
 10
434.15065526315794
 20
0.0
 10
434.1385543067797
 20
1.1505367615396713
 10
434.1022567810869
 20
2.3005654784343785
 10
434.04177871404494
 20
3.449578330377371
 10
433.95714681106574
 20
4.597067945639262
 10
433.84839844321516
 20
5.742527625109104
 10
433.715581630711
 20
6.885451566038447
 10
433.5587550217188
 20
8.025335085389603
 10
433.3779878664542
 20
9.161674842689454
 10
433.17335998660417
 20
10.293969062290445
 10
432.9449617400799
 20
11.421717754940587
 10
432.69289398111744
 20
12.544422938564626
 10
432.41726801574316
 20
13.661588858158913
 10
432.11820555262415
 20
14.772722204702863
 10
431.79583864932516
 20
15.877332332990317
 10
431.4503096539957
 20
16.974931478284674
 10
431.0817711425131
 20
18.065034971702044
 10
430.69038585110917
 20
19.1471614542274
 10
430.27632660451076
 20
20.22083308926917
 10
429.8397762396248
 20
21.2855757736584
 10
429.38092752480316
 20
22.340919346999396
 10
428.89998307472104
 20
23.386397799279315
 10
428.3971552609086
 20
24.421549476645033
 10
427.87266611797315
 20
25.445917285256545
 10
427.3267472455553
 20
26.459048893126695
 10
426.7596397060608
 20
27.460496929858273
 10
426.1715939182144
 20
28.44981918419016
 10
425.5628695464818
 20
29.426578799265418
 10
424.93373538640935
 20
30.390344465534916
 10
424.28446924593123
 20
31.340690611211553
 10
423.6153578226975
 20
32.277197590190724
 10
422.9266965774764
 20
33.19945186735428
 10
422.21878960368724
 20
34.10704620117591
 10
421.49194949312124
 20
34.99957982354765
 10
420.7464971979098
 20
35.876658616747704
 10
419.9827618888012
 20
36.73789528747176
 10
419.2010808098079
 20
37.58290953785083
 10
418.40179912928915
 20
38.411328233380075
 10
417.5852697875344
 20
39.22278556768448
 10
416.7518533409147
 20
40.016923224048675
 10
415.9019178026712
 20
40.79339053363951
 10
415.0358384804111
 20
41.5518446303515
 10
414.1539978103817
 20
42.291950602206896
 10
413.25678518859837
 20
43.013381639243356
 10
412.3445967988971
 20
43.715819177824045
 10
411.41783543799176
 20
44.39895304130635
 10
410.4769103376098
 20
45.06248157700715
 10
409.52223698378754
 20
45.706111789404176
 10
408.5542369334028
 20
46.32955946951457
 10
407.5733376280276
 20
46.93254932039356
 10
406.5799722051817
 20
47.51481507869786
 10
405.5745793070714
 20
48.07609963226003
 10
404.55760288689766
 20
48.61615513362205
 10
403.5294920128185
 20
49.13474310947769
 10
402.4907006696534
 20
49.63163456597566
 10
401.44168755841633
 20
50.10661008983682
 10
400.3829158937663
 20
50.559459945240974
 10
399.31485319946484
 20
50.98998416644019
 10
398.23797110193044
 20
51.39799264605816
 10
397.15274512198204
 20
51.78330521903616
 10
396.0596544648619
 20
52.145751742188985
 10
394.9591818086326
 20
52.485172169335286
 10
393.8518130910394
 20
52.801416621969516
 10
392.7380372949344
 20
53.09434545544403
 10
391.61834623235495
 20
53.36382932063225
 10
390.49323432735383
 20
53.60974922104559
 10
389.3631983976751
 20
53.83199656537895
 10
388.22873743537343
 20
54.0304732154616
 10
387.0903523864734
 20
54.205091529592195
 10
385.9485459297658
 20
54.35577440123894
 10
384.80382225483874
 20
54.482455293087604
 10
383.6566868394417
 20
54.585078266422556
 10
382.50764622628105
 20
54.66359800582772
 10
381.3572077993447
 20
54.717979839196616
 10
380.2058795598558
 20
54.74819975304251
 10
379.05416990195374
 20
54.754244403102206
 10
377.9025873882014
 20
54.73611112022838
 10
376.7516405250187
 20
54.693807911568285
 10
375.6018375381397
 20
54.627353457027965
 10
374.45368614819523
 20
54.5367771010238
 10
373.30769334651734
 20
54.42211883952476
 10
372.16436517126624
 20
54.28342930239136
 10
371.02420648397805
 20
54.12076973101893
 10
369.88772074663234
 20
53.93421195129514
 10
368.7554097993373
 20
53.72383834188369
 10
367.6277736387315
 20
53.48974179784825
 10
366.50531019719915
 20
53.232025689632565
 10
365.3885151229974
 20
52.95080381741503
 10
364.27788156139195
 20
52.646200360857684
 10
363.17389993689795
 20
52.31834982427202
 10
362.0770577367225
 20
51.96739697722562
 10
360.9878392955038
 20
51.593496790616015
 10
359.90672558144274
 20
51.196814368239885
 10
358.83419398392084
 20
50.7775248738879
 10
357.77071810269865
 20
50.33581345399726
 10
356.7167675387871
 20
49.871875155896326
 10
355.6728076870854
 20
49.38591484167715
 10
354.6392995308754
 20
48.878147097734114
 10
353.6166994382644
 20
48.34879614000874
 10
352.60545896066594
 20
47.79809571498209
 10
351.6060246334073
 20
47.22628899645902
 10
350.6188377785523
 20
46.633628478189415
 10
349.64433431002544
 20
46.020375862374074
 10
348.68294454112515
 20
45.38680194410436
 10
347.7350929945091
 20
44.73318649178675
 10
346.8011982147372
 20
44.05981812360497
 10
345.8816725834539
 20
43.366994180074315
 10
344.9769221372924
 20
42.65502059274445
 10
344.0873463885798
 20
41.92421174910866
 10
343.2133381489243
 20
41.174890353779205
 10
342.3552833557602
 20
40.407387285990005
 10
341.5135609019288
 20
39.62204145348968
 10
340.6885424683704
 20
38.819199642889494
 10
339.88059235999987
 20
37.99921636653207
 10
339.09006734484046
 20
37.162453705948785
 10
338.3173164964847
 20
36.30928115197474
 10
337.56268103995336
 20
35.44007544159195
 10
336.8264942010202
 20
34.55522039157303
 10
336.1090810590688
 20
33.65510672899832
 10
335.41075840354654
 20
32.74013191872202
 10
334.7318345940796
 20
31.810699987862733
 10
334.0726094243098
 20
30.867221347396573
 10
333.4333739895141
 20
29.910112610931144
 10
332.8144105580653
 20
28.93979641074076
 10
332.2159924467902
 20
27.956701211143923
 10
331.6383839002806
 20
26.96126111930552
 10
331.08183997421025
 20
25.953915693547295
 10
330.5466064227096
 20
24.935109749251346
 10
330.0329195898475
 20
23.905293162442117
 10
329.5410063052685
 20
22.86492067113382
 10
329.0710837840312
 20
21.814451674530947
 10
328.623359530692
 20
20.754350030170475
 10
328.19803124767736
 20
19.685083849095502
 10
327.7952867479835
 20
18.607125289150478
 10
327.4153038722437
 20
17.52095034648972
 10
327.0582504101991
 20
16.427038645390837
 10
326.72428402660694
 20
15.32587322646616
 10
326.4135521916207
 20
14.217940333365618
 10
326.1261921156713
 20
13.103729198065219
 10
325.86233068887867
 20
11.983731824835987
 10
325.62208442502094
 20
10.85844277298875
 10
325.40555941008506
 20
9.72835893849058
 10
325.21285125542215
 20
8.593979334549655
 10
325.0440450555284
 20
7.455804871264985
 10
324.8992153504695
 20
6.314338134438637
 10
324.77842609296613
 20
5.170083163647996
 10
324.6817306201541
 20
4.023545229676069
 10
324.60917163003205
 20
2.875230611398163
 10
324.5607811626074
 20
1.725646372223284
 10
324.53658058574837
 20
0.5753001361893596
 10
324.53658058574837
 20
-0.5753001361893461
 10
324.5607811626074
 20
-1.7256463722232704
 10
324.60917163003205
 20
-2.875230611398149
 10
324.6817306201541
 20
-4.023545229676079
 10
324.77842609296613
 20
-5.170083163648006
 10
324.8992153504695
 20
-6.314338134438624
 10
325.0440450555284
 20
-7.455804871264973
 10
325.21285125542215
 20
-8.593979334549642
 10
325.40555941008506
 20
-9.728358938490569
 10
325.62208442502094
 20
-10.85844277298874
 10
325.86233068887867
 20
-11.983731824836
 10
326.1261921156713
 20
-13.103729198065231
 10
326.4135521916207
 20
-14.217940333365606
 10
326.72428402660694
 20
-15.32587322646615
 10
327.0582504101991
 20
-16.427038645390823
 10
327.4153038722437
 20
-17.52095034648971
 10
327.7952867479835
 20
-18.607125289150467
 10
328.19803124767736
 20
-19.68508384909549
 10
328.623359530692
 20
-20.754350030170485
 10
329.0710837840312
 20
-21.814451674530954
 10
329.5410063052685
 20
-22.864920671133813
 10
330.0329195898475
 20
-23.905293162442106
 10
330.5466064227096
 20
-24.935109749251335
 10
331.08183997421025
 20
-25.953915693547284
 10
331.6383839002806
 20
-26.96126111930551
 10
332.2159924467902
 20
-27.956701211143933
 10
332.8144105580653
 20
-28.939796410740772
 10
333.4333739895141
 20
-29.91011261093113
 10
334.0726094243098
 20
-30.86722134739656
 10
334.7318345940796
 20
-31.810699987862726
 10
335.41075840354654
 20
-32.74013191872201
 10
336.1090810590687
 20
-33.65510672899832
 10
336.8264942010202
 20
-34.55522039157302
 10
337.56268103995336
 20
-35.440075441591965
 10
338.31731649648475
 20
-36.309281151974744
 10
339.09006734484046
 20
-37.162453705948785
 10
339.88059235999987
 20
-37.99921636653206
 10
340.6885424683703
 20
-38.81919964288947
 10
341.5135609019288
 20
-39.62204145348967
 10
342.3552833557602
 20
-40.40738728599
 10
343.2133381489243
 20
-41.174890353779205
 10
344.0873463885798
 20
-41.92421174910865
 10
344.9769221372924
 20
-42.655020592744435
 10
345.8816725834539
 20
-43.3669941800743
 10
346.80119821473716
 20
-44.05981812360496
 10
347.7350929945091
 20
-44.73318649178674
 10
348.68294454112515
 20
-45.38680194410435
 10
349.64433431002544
 20
-46.020375862374074
 10
350.6188377785523
 20
-46.633628478189415
 10
351.60602463340734
 20
-47.226288996459026
 10
352.60545896066594
 20
-47.79809571498209
 10
353.6166994382644
 20
-48.34879614000874
 10
354.6392995308754
 20
-48.87814709773412
 10
355.6728076870854
 20
-49.38591484167715
 10
356.71676753878705
 20
-49.87187515589631
 10
357.7707181026986
 20
-50.33581345399725
 10
358.83419398392084
 20
-50.777524873887884
 10
359.90672558144274
 20
-51.19681436823988
 10
360.9878392955038
 20
-51.59349679061601
 10
362.0770577367225
 20
-51.96739697722561
 10
363.17389993689795
 20
-52.31834982427201
 10
364.27788156139195
 20
-52.646200360857684
 10
365.3885151229974
 20
-52.95080381741503
 10
366.50531019719915
 20
-53.232025689632565
 10
367.6277736387315
 20
-53.48974179784825
 10
368.7554097993374
 20
-53.72383834188369
 10
369.88772074663234
 20
-53.93421195129514
 10
371.02420648397805
 20
-54.12076973101893
 10
372.16436517126624
 20
-54.28342930239136
 10
373.30769334651734
 20
-54.42211883952476
 10
374.45368614819523
 20
-54.536777101023795
 10
375.60183753813965
 20
-54.627353457027965
 10
376.7516405250186
 20
-54.693807911568285
 10
377.9025873882014
 20
-54.73611112022838
 10
379.0541699019537
 20
-54.754244403102206
 10
380.20587955985576
 20
-54.74819975304252
 10
381.3572077993447
 20
-54.717979839196616
 10
382.50764622628105
 20
-54.66359800582772
 10
383.6566868394417
 20
-54.585078266422556
 10
384.80382225483874
 20
-54.482455293087604
 10
385.9485459297658
 20
-54.35577440123894
 10
387.0903523864734
 20
-54.205091529592195
 10
388.22873743537343
 20
-54.0304732154616
 10
389.3631983976751
 20
-53.831996565378944
 10
390.49323432735383
 20
-53.60974922104559
 10
391.61834623235495
 20
-53.363829320632256
 10
392.7380372949343
 20
-53.09434545544403
 10
393.8518130910394
 20
-52.80141662196952
 10
394.95918180863254
 20
-52.48517216933529
 10
396.0596544648619
 20
-52.14575174218899
 10
397.15274512198204
 20
-51.78330521903616
 10
398.23797110193044
 20
-51.39799264605816
 10
399.31485319946484
 20
-50.98998416644019
 10
400.3829158937663
 20
-50.559459945240974
 10
401.44168755841633
 20
-50.10661008983682
 10
402.4907006696534
 20
-49.63163456597565
 10
403.5294920128185
 20
-49.13474310947768
 10
404.55760288689766
 20
-48.616155133622044
 10
405.5745793070714
 20
-48.076099632260025
 10
406.57997220518166
 20
-47.51481507869787
 10
407.5733376280276
 20
-46.932549320393576
 10
408.5542369334028
 20
-46.32955946951459
 10
409.52223698378754
 20
-45.7061117894042
 10
410.4769103376098
 20
-45.06248157700716
 10
411.4178354379917
 20
-44.398953041306356
 10
412.3445967988971
 20
-43.71581917782405
 10
413.25678518859837
 20
-43.01338163924336
 10
414.1539978103817
 20
-42.291950602206896
 10
415.0358384804111
 20
-41.5518446303515
 10
415.9019178026712
 20
-40.79339053363951
 10
416.7518533409147
 20
-40.016923224048675
 10
417.5852697875344
 20
-39.22278556768448
 10
418.40179912928915
 20
-38.41132823338006
 10
419.20108080980793
 20
-37.58290953785082
 10
419.9827618888012
 20
-36.73789528747178
 10
420.7464971979098
 20
-35.87665861674772
 10
421.4919494931212
 20
-34.99957982354767
 10
422.21878960368724
 20
-34.107046201175926
 10
422.9266965774764
 20
-33.199451867354284
 10
423.6153578226975
 20
-32.27719759019074
 10
424.28446924593123
 20
-31.34069061121156
 10
424.93373538640935
 20
-30.390344465534916
 10
425.5628695464818
 20
-29.426578799265418
 10
426.1715939182144
 20
-28.44981918419016
 10
426.7596397060608
 20
-27.460496929858266
 10
427.3267472455553
 20
-26.459048893126692
 10
427.87266611797315
 20
-25.445917285256535
 10
428.3971552609086
 20
-24.42154947664502
 10
428.8999830747211
 20
-23.386397799279294
 10
429.38092752480316
 20
-22.340919346999424
 10
429.8397762396248
 20
-21.285575773658422
 10
430.27632660451076
 20
-20.22083308926919
 10
430.69038585110917
 20
-19.14716145422742
 10
431.0817711425131
 20
-18.065034971702058
 10
431.4503096539957
 20
-16.974931478284685
 10
431.79583864932516
 20
-15.877332332990326
 10
432.11820555262415
 20
-14.77272220470287
 10
432.41726801574316
 20
-13.661588858158916
 10
432.69289398111744
 20
-12.544422938564626
 10
432.9449617400799
 20
-11.421717754940586
 10
433.17335998660417
 20
-10.29396906229044
 10
433.3779878664542
 20
-9.161674842689445
 10
433.5587550217188
 20
-8.02533508538959
 10
433.715581630711
 20
-6.885451566038432
 10
433.84839844321516
 20
-5.742527625109133
 10
433.95714681106574
 20
-4.597067945639289
 10
434.04177871404494
 20
-3.4495783303773946
 10
434.1022567810869
 20
-2.3005654784343985
 10
434.1385543067797
 20
-1.150536761539688
 10
434.15065526315794
 20
-1.3411107097462664e-14
  0
LINE
  5
99
330
17
100
AcDbEntity
  8
Layer
100
AcDbLine
 10
722.6455739520023
 20
-4.204254940659769e-14
 30
0.0
 11
726.6455739520023
 21
-4.253240812625663e-14
 31
0.0
  0
LINE
  5
9A
330
17
100
AcDbEntity
  8
Layer
100
AcDbLine
 10
16.239005718319106
 20
4.446730486180696e-14
 30
0.0
 11
12.239005718319106
 21
4.49571635814659e-14
 31
0.0
  0
LINE
  5
9B
330
17
100
AcDbEntity
  8
Layer
100
AcDbLine
 10
161.82031936505575
 20
2.6638735884492668e-14
 30
0.0
 11
150.82031936505575
 21
2.7985847363554755e-14
 31
0.0
  0
LWPOLYLINE
  5
9C
330
17
100
AcDbEntity
  8
Layer
100
AcDbPolyline
 90
5
 70
0
 10
151.32031936505575
 20
-4.9999999999999725
 10
151.32031936505575
 20
5.0000000000000275
 10
161.32031936505575
 20
5.000000000000027
 10
161.32031936505575
 20
-4.999999999999973
 10
151.32031936505575
 20
-4.9999999999999725
  0
LINE
  5
9D
330
17
100
AcDbEntity
  8
Layer
100
AcDbLine
 10
374.94228983516075
 20
5.388219880735904e-16
 30
0.0
 11
363.94228983516075
 21
1.885933467135679e-15
 31
0.0
  0
LWPOLYLINE
  5
9E
330
17
100
AcDbEntity
  8
Layer
100
AcDbPolyline
 90
5
 70
0
 10
364.44228983516075
 20
-4.999999999999998
 10
364.44228983516075
 20
5.000000000000002
 10
374.44228983516075
 20
5.000000000000001
 10
374.44228983516075
 20
-4.999999999999999
 10
364.44228983516075
 20
-4.999999999999998
  0
LINE
  5
9F
330
17
100
AcDbEntity
  8
Layer
100
AcDbLine
 10
588.0642603052656
 20
-2.5561091908345488e-14
 30
0.0
 11
577.0642603052656
 21
-2.4213980429283402e-14
 31
0.0
  0
LWPOLYLINE
  5
A0
330
17
100
AcDbEntity
  8
Layer
100
AcDbPolyline
 90
5
 70
0
 10
577.5642603052656
 20
-5.000000000000024
 10
577.5642603052656
 20
4.999999999999976
 10
587.5642603052656
 20
4.999999999999974
 10
587.5642603052656
 20
-5.000000000000026
 10
577.5642603052656
 20
-5.000000000000024
  0
LINE
  5
A1
330
17
100
AcDbEntity
  8
Layer
100
AcDbLine
 10
0.48003407037663237
 20
-24.84608137211671
 30
0.0
 11
-3.508176938531051
 21
-24.539205259609435
 31
0.0
  0
LINE
  5
A2
330
17
100
AcDbEntity
  8
Layer
100
AcDbLine
 10
640.6692395398752
 20
-74.10595608907875
 30
0.0
 11
644.6574505487829
 21
-74.41283220158601
 31
0.0
  0
LINE
  5
A3
330
17
100
AcDbEntity
  8
Layer
100
AcDbLine
 10
995.0364991823232
 20
-101.37303067365926
 30
0.0
 11
999.0247101912308
 21
-101.67990678616653
 31
0.0
  0
LINE
  5
A4
330
17
100
AcDbEntity
  8
Layer
100
AcDbLine
 10
379.3421052631579
 20
54.754999999999995
 30
0.0
 11
379.3421052631579
 21
55.254999999999995
 31
0.0
  0
LINE
  5
A5
330
17
100
AcDbEntity
  8
Layer
100
AcDbLine
 10
379.3421052631579
 20
-54.754999999999995
 30
0.0
 11
379.3421052631579
 21
-55.254999999999995
 31
0.0
  0
LINE
  5
A6
330
17
100
AcDbEntity
  8
Layer
100
AcDbLine
 10
434.15065526315794
 20
0.0
 30
0.0
 11
434.65065526315794
 21
0.0
 31
0.0
  0
LINE
  5
A7
330
17
100
AcDbEntity
  8
Layer
100
AcDbLine
 10
324.5335552631579
 20
0.0
 30
0.0
 11
324.0335552631579
 21
0.0
 31
0.0
  0
LINE
  5
A8
330
17
100
AcDbEntity
  8
Layer
100
AcDbLine
 10
229.34210526315792
 20
65.72461158946147
 30
0.0
 11
229.34210526315792
 21
69.72461158946147
 31
0.0
  0
LINE
  5
A9
330
17
100
AcDbEntity
  8
Layer
100
AcDbLine
 10
229.34210526315792
 20
-65.23442678947569
 30
0.0
 11
229.34210526315792
 21
-69.23442678947569
 31
0.0
  0
LINE
  5
AA
330
17
100
AcDbEntity
  8
Layer
100
AcDbLine
 10
229.34210526315792
 20
-34.742619113688264
 30
0.0
 11
229.34210526315792
 21
-45.742619113688264
 31
0.0
  0
LWPOLYLINE
  5
AB
330
17
100
AcDbEntity
  8
Layer
100
AcDbPolyline
 90
5
 70
0
 10
234.34210526315792
 20
-45.242619113688264
 10
224.34210526315792
 20
-45.242619113688264
 10
224.34210526315792
 20
-35.242619113688264
 10
234.34210526315792
 20
-35.242619113688264
 10
234.34210526315792
 20
-45.242619113688264
  0
LINE
  5
AC
330
17
100
AcDbEntity
  8
Layer
100
AcDbLine
 10
229.34210526315792
 20
5.745092399992892
 30
0.0
 11
229.34210526315792
 21
-5.254907600007108
 31
0.0
  0
LWPOLYLINE
  5
AD
330
17
100
AcDbEntity
  8
Layer
100
AcDbPolyline
 90
5
 70
0
 10
234.34210526315792
 20
-4.754907600007108
 10
224.34210526315792
 20
-4.754907600007108
 10
224.34210526315792
 20
5.245092399992892
 10
234.34210526315792
 20
5.245092399992892
 10
234.34210526315792
 20
-4.754907600007108
  0
LINE
  5
AE
330
17
100
AcDbEntity
  8
Layer
100
AcDbLine
 10
229.34210526315792
 20
46.23280391367404
 30
0.0
 11
229.34210526315792
 21
35.23280391367404
 31
0.0
  0
LWPOLYLINE
  5
AF
330
17
100
AcDbEntity
  8
Layer
100
AcDbPolyline
 90
5
 70
0
 10
234.34210526315792
 20
35.73280391367404
 10
224.34210526315792
 20
35.73280391367404
 10
224.34210526315792
 20
45.73280391367404
 10
234.34210526315792
 20
45.73280391367404
 10
234.34210526315792
 20
35.73280391367404
  0
LINE
  5
B0
330
17
100
AcDbEntity
  8
Layer
100
AcDbLine
 10
479.3421052631579
 20
56.84638545632581
 30
0.0
 11
479.3421052631579
 21
60.84638545632581
 31
0.0
  0
LINE
  5
B1
330
17
100
AcDbEntity
  8
Layer
100
AcDbLine
 10
479.3421052631579
 20
-69.23524279496478
 30
0.0
 11
479.3421052631579
 21
-73.23524279496478
 31
0.0
  0
LINE
  5
B2
330
17
100
AcDbEntity
  8
Layer
100
AcDbLine
 10
479.3421052631579
 20
-39.718917144706666
 30
0.0
 11
479.3421052631579
 21
-50.718917144706666
 31
0.0
  0
LWPOLYLINE
  5
B3
330
17
100
AcDbEntity
  8
Layer
100
AcDbPolyline
 90
5
 70
0
 10
484.3421052631579
 20
-50.218917144706666
 10
474.3421052631579
 20
-50.218917144706666
 10
474.3421052631579
 20
-40.218917144706666
 10
484.3421052631579
 20
-40.218917144706666
 10
484.3421052631579
 20
-50.218917144706666
  0
LINE
  5
B4
330
17
100
AcDbEntity
  8
Layer
100
AcDbLine
 10
479.3421052631579
 20
-0.6944286693194819
 30
0.0
 11
479.3421052631579
 21
-11.694428669319482
 31
0.0
  0
LWPOLYLINE
  5
B5
330
17
100
AcDbEntity
  8
Layer
100
AcDbPolyline
 90
5
 70
0
 10
484.3421052631579
 20
-11.194428669319482
 10
474.3421052631579
 20
-11.194428669319482
 10
474.3421052631579
 20
-1.1944286693194819
 10
484.3421052631579
 20
-1.1944286693194819
 10
484.3421052631579
 20
-11.194428669319482
  0
LINE
  5
B6
330
17
100
AcDbEntity
  8
Layer
100
AcDbLine
 10
479.3421052631579
 20
38.330059806067695
 30
0.0
 11
479.3421052631579
 21
27.330059806067695
 31
0.0
  0
LWPOLYLINE
  5
B7
330
17
100
AcDbEntity
  8
Layer
100
AcDbPolyline
 90
5
 70
0
 10
484.3421052631579
 20
27.830059806067695
 10
474.3421052631579
 20
27.830059806067695
 10
474.3421052631579
 20
37.830059806067695
 10
484.3421052631579
 20
37.830059806067695
 10
484.3421052631579
 20
27.830059806067695
  0
ENDSEC
  0
SECTION
  2
OBJECTS
  0
DICTIONARY
  5
A
330
0
100
AcDbDictionary
280
0
281
1
  3
ACAD_COLOR
350
B
  3
ACAD_GROUP
350
C
  3
ACAD_LAYOUT
350
D
  3
ACAD_MATERIAL
350
E
  3
ACAD_MLEADERSTYLE
350
F
  3
ACAD_MLINESTYLE
350
10
  3
ACAD_PLOTSETTINGS
350
11
  3
ACAD_PLOTSTYLENAME
350
12
  3
ACAD_SCALELIST
350
14
  3
ACAD_TABLESTYLE
350
15
  3
ACAD_VISUALSTYLE
350
16
  3
EZDXF_META
350
2D
  0
DICTIONARY
  5
B
330
A
100
AcDbDictionary
280
0
281
1
  0
DICTIONARY
  5
C
330
A
100
AcDbDictionary
280
0
281
1
  0
DICTIONARY
  5
D
330
A
100
AcDbDictionary
280
0
281
1
  3
Model
350
1A
  3
Layout1
350
1E
  0
DICTIONARY
  5
E
330
A
100
AcDbDictionary
280
0
281
1
  3
ByBlock
350
1F
  3
ByLayer
350
20
  3
Global
350
21
  0
DICTIONARY
  5
F
330
A
100
AcDbDictionary
280
0
281
1
  3
Standard
350
2C
  0
DICTIONARY
  5
10
330
A
100
AcDbDictionary
280
0
281
1
  3
Standard
350
22
  0
DICTIONARY
  5
11
330
A
100
AcDbDictionary
280
0
281
1
  0
ACDBDICTIONARYWDFLT
  5
12
330
A
100
AcDbDictionary
280
0
281
1
  3
Normal
350
13
100
AcDbDictionaryWithDefault
340
13
  0
ACDBPLACEHOLDER
  5
13
330
12
  0
DICTIONARY
  5
14
330
A
100
AcDbDictionary
280
0
281
1
  0
DICTIONARY
  5
15
330
A
100
AcDbDictionary
280
0
281
1
  0
DICTIONARY
  5
16
330
A
100
AcDbDictionary
280
0
281
1
  3
2dWireframe
350
5A
  3
Basic
350
5B
  3
Brighten
350
5C
  3
ColorChange
350
5D
  3
Conceptual
350
5E
  3
Dim
350
5F
  3
EdgeColorOff
350
60
  3
Facepattern
350
61
  3
Flat
350
62
  3
FlatWithEdges
350
63
  3
Gouraud
350
64
  3
GouraudWithEdges
350
65
  3
Hidden
350
66
  3
JitterOff
350
67
  3
Linepattern
350
68
  3
Modeling
350
69
  3
OverhangOff
350
6A
  3
Realistic
350
6B
  3
Shaded
350
6C
  3
Shaded with edges
350
6D
  3
Shades of Gray
350
6E
  3
Sketchy
350
6F
  3
Thicken
350
70
  3
Wireframe
350
71
  3
X-Ray
350
72
  0
LAYOUT
  5
1A
330
D
100
AcDbPlotSettings
  1

  2
Adobe PDF
  4
A3
  6

 40
7.5
 41
20.0
 42
7.5
 43
20.0
 44
420.0
 45
297.0
 46
0.0
 47
0.0
 48
0.0
 49
0.0
140
0.0
141
0.0
142
1.0
143
1.0
 70
1024
 72
1
 73
0
 74
5
  7

 75
16
 76
0
 77
2
 78
300
147
1.0
148
0.0
149
0.0
100
AcDbLayout
  1
Model
 70
1
 71
0
 10
0.0
 20
0.0
 11
420.0
 21
297.0
 12
0.0
 22
0.0
 32
0.0
 14
1e+20
 24
1e+20
 34
1e+20
 15
-1e+20
 25
-1e+20
 35
-1e+20
146
0.0
 13
0.0
 23
0.0
 33
0.0
 16
1.0
 26
0.0
 36
0.0
 17
0.0
 27
1.0
 37
0.0
 76
1
330
17
  0
LAYOUT
  5
1E
330
D
100
AcDbPlotSettings
  1

  2
Adobe PDF
  4
A3
  6

 40
7.5
 41
20.0
 42
7.5
 43
20.0
 44
420.0
 45
297.0
 46
0.0
 47
0.0
 48
0.0
 49
0.0
140
0.0
141
0.0
142
1.0
143
1.0
 70
0
 72
1
 73
0
 74
5
  7

 75
16
 76
0
 77
2
 78
300
147
1.0
148
0.0
149
0.0
100
AcDbLayout
  1
Layout1
 70
1
 71
1
 10
0.0
 20
0.0
 11
420.0
 21
297.0
 12
0.0
 22
0.0
 32
0.0
 14
1e+20
 24
1e+20
 34
1e+20
 15
-1e+20
 25
-1e+20
 35
-1e+20
146
0.0
 13
0.0
 23
0.0
 33
0.0
 16
1.0
 26
0.0
 36
0.0
 17
0.0
 27
1.0
 37
0.0
 76
1
330
1B
  0
MATERIAL
  5
1F
102
{ACAD_REACTORS
330
E
102
}
330
E
100
AcDbMaterial
  1
ByBlock
  2

 70
0
 40
1.0
 71
1
 41
1.0
 91
-1023410177
 42
1.0
 72
1
  3

 73
1
 74
1
 75
1
 44
0.5
 73
0
 45
1.0
 46
1.0
 77
1
  4

 78
1
 79
1
170
1
 48
1.0
171
1
  6

172
1
173
1
174
1
140
1.0
141
1.0
175
1
  7

176
1
177
1
178
1
143
1.0
179
1
  8

270
1
271
1
272
1
145
1.0
146
1.0
273
1
  9

274
1
275
1
276
1
 42
1.0
 72
1
  3

 73
1
 74
1
 75
1
 94
63
  0
MATERIAL
  5
20
102
{ACAD_REACTORS
330
E
102
}
330
E
100
AcDbMaterial
  1
ByLayer
  2

 70
0
 40
1.0
 71
1
 41
1.0
 91
-1023410177
 42
1.0
 72
1
  3

 73
1
 74
1
 75
1
 44
0.5
 73
0
 45
1.0
 46
1.0
 77
1
  4

 78
1
 79
1
170
1
 48
1.0
171
1
  6

172
1
173
1
174
1
140
1.0
141
1.0
175
1
  7

176
1
177
1
178
1
143
1.0
179
1
  8

270
1
271
1
272
1
145
1.0
146
1.0
273
1
  9

274
1
275
1
276
1
 42
1.0
 72
1
  3

 73
1
 74
1
 75
1
 94
63
  0
MATERIAL
  5
21
102
{ACAD_REACTORS
330
E
102
}
330
E
100
AcDbMaterial
  1
Global
  2

 70
0
 40
1.0
 71
1
 41
1.0
 91
-1023410177
 42
1.0
 72
1
  3

 73
1
 74
1
 75
1
 44
0.5
 73
0
 45
1.0
 46
1.0
 77
1
  4

 78
1
 79
1
170
1
 48
1.0
171
1
  6

172
1
173
1
174
1
140
1.0
141
1.0
175
1
  7

176
1
177
1
178
1
143
1.0
179
1
  8

270
1
271
1
272
1
145
1.0
146
1.0
273
1
  9

274
1
275
1
276
1
 42
1.0
 72
1
  3

 73
1
 74
1
 75
1
 94
63
  0
MLINESTYLE
  5
22
102
{ACAD_REACTORS
330
10
102
}
330
10
100
AcDbMlineStyle
  2
Standard
 70
0
  3

 62
256
 51
90.0
 52
90.0
 71
2
 49
0.5
 62
256
  6
BYLAYER
 49
-0.5
 62
256
  6
BYLAYER
  0
MLEADERSTYLE
  5
2C
102
{ACAD_REACTORS
330
F
102
}
330
F
100
AcDbMLeaderStyle
179
2
170
2
171
1
172
0
 90
2
 40
0.0
 41
0.0
173
1
 91
-1056964608
 92
-2
290
1
 42
2.0
291
1
 43
8.0
  3
Standard
 44
4.0
300

342
29
174
1
175
1
176
0
178
1
 93
-1056964608
 45
4.0
292
0
297
0
 46
4.0
 94
-1056964608
 47
1.0
 49
1.0
140
1.0
294
1
141
0.0
177
0
142
1.0
295
0
296
0
143
3.75
271
0
272
9
273
9
  0
DICTIONARY
  5
2D
330
A
100
AcDbDictionary
281
1
  3
CREATED_BY_EZDXF
350
2E
  3
WRITTEN_BY_EZDXF
350
BA
  0
DICTIONARYVAR
  5
2E
330
2D
100
DictionaryVariables
280
0
  1
1.1.0 @ 2024-03-25T20:08:49.599280+00:00
  0
VISUALSTYLE
  5
5A
102
{ACAD_REACTORS
330
16
102
}
330
16
100
AcDbVisualStyle
  2
2dWireframe
 70
4
 90
0
 40
0.6
 62
7
290
0
291
0
  0
VISUALSTYLE
  5
5B
102
{ACAD_REACTORS
330
16
102
}
330
16
100
AcDbVisualStyle
  2
Basic
 70
7
 90
1
 40
0.6
 62
7
290
0
291
1
  0
VISUALSTYLE
  5
5C
102
{ACAD_REACTORS
330
16
102
}
330
16
100
AcDbVisualStyle
  2
Brighten
 70
12
 90
2
 40
0.6
 62
7
290
0
291
1
  0
VISUALSTYLE
  5
5D
102
{ACAD_REACTORS
330
16
102
}
330
16
100
AcDbVisualStyle
  2
ColorChange
 70
16
 90
2
 40
0.6
 62
8
290
0
291
1
  0
VISUALSTYLE
  5
5E
102
{ACAD_REACTORS
330
16
102
}
330
16
100
AcDbVisualStyle
  2
Conceptual
 70
9
 90
3
 40
0.6
 62
7
290
0
291
0
  0
VISUALSTYLE
  5
5F
102
{ACAD_REACTORS
330
16
102
}
330
16
100
AcDbVisualStyle
  2
Dim
 70
11
 90
2
 40
0.6
 62
7
290
0
291
1
  0
VISUALSTYLE
  5
60
102
{ACAD_REACTORS
330
16
102
}
330
16
100
AcDbVisualStyle
  2
EdgeColorOff
 70
22
 90
2
 40
0.6
 62
7
290
0
291
1
  0
VISUALSTYLE
  5
61
102
{ACAD_REACTORS
330
16
102
}
330
16
100
AcDbVisualStyle
  2
Facepattern
 70
15
 90
2
 40
0.6
 62
7
290
0
291
1
  0
VISUALSTYLE
  5
62
102
{ACAD_REACTORS
330
16
102
}
330
16
100
AcDbVisualStyle
  2
Flat
 70
0
 90
2
 40
0.6
 62
7
290
0
291
1
  0
VISUALSTYLE
  5
63
102
{ACAD_REACTORS
330
16
102
}
330
16
100
AcDbVisualStyle
  2
FlatWithEdges
 70
1
 90
2
 40
0.6
 62
7
290
0
291
1
  0
VISUALSTYLE
  5
64
102
{ACAD_REACTORS
330
16
102
}
330
16
100
AcDbVisualStyle
  2
Gouraud
 70
2
 90
2
 40
0.6
 62
7
290
0
291
1
  0
VISUALSTYLE
  5
65
102
{ACAD_REACTORS
330
16
102
}
330
16
100
AcDbVisualStyle
  2
GouraudWithEdges
 70
3
 90
2
 40
0.6
 62
7
290
0
291
1
  0
VISUALSTYLE
  5
66
102
{ACAD_REACTORS
330
16
102
}
330
16
100
AcDbVisualStyle
  2
Hidden
 70
6
 90
1
 40
0.6
 62
7
290
0
291
0
  0
VISUALSTYLE
  5
67
102
{ACAD_REACTORS
330
16
102
}
330
16
100
AcDbVisualStyle
  2
JitterOff
 70
20
 90
2
 40
0.6
 62
7
290
0
291
1
  0
VISUALSTYLE
  5
68
102
{ACAD_REACTORS
330
16
102
}
330
16
100
AcDbVisualStyle
  2
Linepattern
 70
14
 90
2
 40
0.6
 62
7
290
0
291
1
  0
VISUALSTYLE
  5
69
102
{ACAD_REACTORS
330
16
102
}
330
16
100
AcDbVisualStyle
  2
Modeling
 70
10
 90
2
 40
0.6
 62
7
290
0
291
0
  0
VISUALSTYLE
  5
6A
102
{ACAD_REACTORS
330
16
102
}
330
16
100
AcDbVisualStyle
  2
OverhangOff
 70
21
 90
2
 40
0.6
 62
7
290
0
291
1
  0
VISUALSTYLE
  5
6B
102
{ACAD_REACTORS
330
16
102
}
330
16
100
AcDbVisualStyle
  2
Realistic
 70
8
 90
2
 40
0.6
 62
7
290
0
291
0
  0
VISUALSTYLE
  5
6C
102
{ACAD_REACTORS
330
16
102
}
330
16
100
AcDbVisualStyle
  2
Shaded
 70
27
 90
2
 40
0.6
 62
7
290
0
291
0
  0
VISUALSTYLE
  5
6D
102
{ACAD_REACTORS
330
16
102
}
330
16
100
AcDbVisualStyle
  2
Shaded with edges
 70
26
 90
2
 40
0.6
 62
7
290
0
291
0
  0
VISUALSTYLE
  5
6E
102
{ACAD_REACTORS
330
16
102
}
330
16
100
AcDbVisualStyle
  2
Shades of Gray
 70
23
 90
2
 40
0.6
 62
7
290
0
291
0
  0
VISUALSTYLE
  5
6F
102
{ACAD_REACTORS
330
16
102
}
330
16
100
AcDbVisualStyle
  2
Sketchy
 70
24
 90
1
 40
0.6
 62
7
290
0
291
0
  0
VISUALSTYLE
  5
70
102
{ACAD_REACTORS
330
16
102
}
330
16
100
AcDbVisualStyle
  2
Thicken
 70
13
 90
2
 40
0.6
 62
7
290
0
291
1
  0
VISUALSTYLE
  5
71
102
{ACAD_REACTORS
330
16
102
}
330
16
100
AcDbVisualStyle
  2
Wireframe
 70
5
 90
0
 40
0.6
 62
7
290
0
291
0
  0
VISUALSTYLE
  5
72
102
{ACAD_REACTORS
330
16
102
}
330
16
100
AcDbVisualStyle
  2
X-Ray
 70
25
 90
2
 40
0.5
 62
7
290
0
291
0
  0
DICTIONARYVAR
  5
BA
330
2D
100
DictionaryVariables
280
0
  1
1.1.0 @ 2024-03-25T20:08:49.634382+00:00
  0
ENDSEC
  0
EOF
