  0
SECTION
  2
HEADER
  9
$ACADVER
  1
AC1021
  9
$ACADMAINTVER
 70
25
  9
$DWGCODEPAGE
  3
ANSI_1252
  9
$LASTSAVEDBY
  1
ezdxf
  9
$INSBASE
 10
0.0
 20
0.0
 30
0.0
  9
$EXTMIN
 10
1e+20
 20
1e+20
 30
1e+20
  9
$EXTMAX
 10
-1e+20
 20
-1e+20
 30
-1e+20
  9
$LIMMIN
 10
0.0
 20
0.0
  9
$LIMMAX
 10
420.0
 20
297.0
  9
$ORTHOMODE
 70
0
  9
$REGENMODE
 70
1
  9
$FILLMODE
 70
1
  9
$QTEXTMODE
 70
0
  9
$MIRRTEXT
 70
1
  9
$LTSCALE
 40
1.0
  9
$ATTMODE
 70
1
  9
$TEXTSIZE
 40
2.5
  9
$TRACEWID
 40
1.0
  9
$TEXTSTYLE
  7
OpenSans
  9
$CLAYER
  8
0
  9
$CELTYPE
  6
ByLayer
  9
$CECOLOR
 62
256
  9
$CELTSCALE
 40
1.0
  9
$DISPSILH
 70
0
  9
$DIMSCALE
 40
1.0
  9
$DIMASZ
 40
0.175
  9
$DIMEXO
 40
0.125
  9
$DIMDLI
 40
3.75
  9
$DIMRND
 40
0.0
  9
$DIMDLE
 40
0.0
  9
$DIMEXE
 40
0.375
  9
$DIMTP
 40
0.0
  9
$DIMTM
 40
0.0
  9
$DIMTXT
 40
0.25
  9
$DIMCEN
 40
2.5
  9
$DIMTSZ
 40
0.0
  9
$DIMTOL
 70
0
  9
$DIMLIM
 70
0
  9
$DIMTIH
 70
0
  9
$DIMTOH
 70
0
  9
$DIMSE1
 70
0
  9
$DIMSE2
 70
0
  9
$DIMTAD
 70
1
  9
$DIMZIN
 70
12
  9
$DIMBLK
  1
ARCHTICK
  9
$DIMASO
 70
1
  9
$DIMSHO
 70
1
  9
$DIMPOST
  1

  9
$DIMAPOST
  1

  9
$DIMALT
 70
0
  9
$DIMALTD
 70
3
  9
$DIMALTF
 40
0.03937007874
  9
$DIMLFAC
 40
100.0
  9
$DIMTOFL
 70
1
  9
$DIMTVP
 40
0.0
  9
$DIMTIX
 70
0
  9
$DIMSOXD
 70
0
  9
$DIMSAH
 70
0
  9
$DIMBLK1
  1

  9
$DIMBLK2
  1

  9
$DIMSTYLE
  2
EZDXF
  9
$DIMCLRD
 70
0
  9
$DIMCLRE
 70
0
  9
$DIMCLRT
 70
0
  9
$DIMTFAC
 40
0.5
  9
$DIMGAP
 40
0.1
  9
$DIMJUST
 70
0
  9
$DIMSD1
 70
0
  9
$DIMSD2
 70
0
  9
$DIMTOLJ
 70
0
  9
$DIMTZIN
 70
8
  9
$DIMALTZ
 70
0
  9
$DIMALTTZ
 70
0
  9
$DIMUPT
 70
1
  9
$DIMDEC
 70
2
  9
$DIMTDEC
 70
2
  9
$DIMALTU
 70
2
  9
$DIMALTTD
 70
3
  9
$DIMTXSTY
  7
OpenSansCondensed-Light
  9
$DIMAUNIT
 70
0
  9
$DIMADEC
 70
2
  9
$DIMALTRND
 40
0.0
  9
$DIMAZIN
 70
3
  9
$DIMDSEP
 70
46
  9
$DIMATFIT
 70
3
  9
$DIMFRAC
 70
0
  9
$DIMLDRBLK
  1

  9
$DIMLUNIT
 70
2
  9
$DIMLWD
 70
-2
  9
$DIMLWE
 70
-2
  9
$DIMTMOVE
 70
2
  9
$DIMFXL
 40
1.0
  9
$DIMFXLON
 70
0
  9
$DIMJOGANG
 40
0.785398163397
  9
$DIMTFILL
 70
0
  9
$DIMTFILLCLR
 70
0
  9
$DIMARCSYM
 70
0
  9
$DIMLTYPE
  6

  9
$DIMLTEX1
  6

  9
$DIMLTEX2
  6

  9
$LUNITS
 70
2
  9
$LUPREC
 70
4
  9
$SKETCHINC
 40
1.0
  9
$FILLETRAD
 40
10.0
  9
$AUNITS
 70
0
  9
$AUPREC
 70
2
  9
$MENU
  1
.
  9
$ELEVATION
 40
0.0
  9
$PELEVATION
 40
0.0
  9
$THICKNESS
 40
0.0
  9
$LIMCHECK
 70
0
  9
$CHAMFERA
 40
0.0
  9
$CHAMFERB
 40
0.0
  9
$CHAMFERC
 40
0.0
  9
$CHAMFERD
 40
0.0
  9
$SKPOLY
 70
0
  9
$TDCREATE
 40
2460396.2144560185
  9
$TDUCREATE
 40
2458532.153996898
  9
$TDUPDATE
 40
2460396.2144560185
  9
$TDUUPDATE
 40
2458532.1544311
  9
$TDINDWG
 40
0.0
  9
$TDUSRTIMER
 40
0.0
  9
$USRTIMER
 70
1
  9
$ANGBASE
 50
0.0
  9
$ANGDIR
 70
0
  9
$PDMODE
 70
0
  9
$PDSIZE
 40
0.0
  9
$PLINEWID
 40
0.0
  9
$SPLFRAME
 70
0
  9
$SPLINETYPE
 70
6
  9
$SPLINESEGS
 70
8
  9
$HANDSEED
  5
BB
  9
$SURFTAB1
 70
6
  9
$SURFTAB2
 70
6
  9
$SURFTYPE
 70
6
  9
$SURFU
 70
6
  9
$SURFV
 70
6
  9
$UCSBASE
  2

  9
$UCSNAME
  2

  9
$UCSORG
 10
0.0
 20
0.0
 30
0.0
  9
$UCSXDIR
 10
1.0
 20
0.0
 30
0.0
  9
$UCSYDIR
 10
0.0
 20
1.0
 30
0.0
  9
$UCSORTHOREF
  2

  9
$UCSORTHOVIEW
 70
0
  9
$UCSORGTOP
 10
0.0
 20
0.0
 30
0.0
  9
$UCSORGBOTTOM
 10
0.0
 20
0.0
 30
0.0
  9
$UCSORGLEFT
 10
0.0
 20
0.0
 30
0.0
  9
$UCSORGRIGHT
 10
0.0
 20
0.0
 30
0.0
  9
$UCSORGFRONT
 10
0.0
 20
0.0
 30
0.0
  9
$UCSORGBACK
 10
0.0
 20
0.0
 30
0.0
  9
$PUCSBASE
  2

  9
$PUCSNAME
  2

  9
$PUCSORG
 10
0.0
 20
0.0
 30
0.0
  9
$PUCSXDIR
 10
1.0
 20
0.0
 30
0.0
  9
$PUCSYDIR
 10
0.0
 20
1.0
 30
0.0
  9
$PUCSORTHOREF
  2

  9
$PUCSORTHOVIEW
 70
0
  9
$PUCSORGTOP
 10
0.0
 20
0.0
 30
0.0
  9
$PUCSORGBOTTOM
 10
0.0
 20
0.0
 30
0.0
  9
$PUCSORGLEFT
 10
0.0
 20
0.0
 30
0.0
  9
$PUCSORGRIGHT
 10
0.0
 20
0.0
 30
0.0
  9
$PUCSORGFRONT
 10
0.0
 20
0.0
 30
0.0
  9
$PUCSORGBACK
 10
0.0
 20
0.0
 30
0.0
  9
$USERI1
 70
0
  9
$USERI2
 70
0
  9
$USERI3
 70
0
  9
$USERI4
 70
0
  9
$USERI5
 70
0
  9
$USERR1
 40
0.0
  9
$USERR2
 40
0.0
  9
$USERR3
 40
0.0
  9
$USERR4
 40
0.0
  9
$USERR5
 40
0.0
  9
$WORLDVIEW
 70
1
  9
$SHADEDGE
 70
3
  9
$SHADEDIF
 70
70
  9
$TILEMODE
 70
1
  9
$MAXACTVP
 70
64
  9
$PINSBASE
 10
0.0
 20
0.0
 30
0.0
  9
$PLIMCHECK
 70
0
  9
$PEXTMIN
 10
1e+20
 20
1e+20
 30
1e+20
  9
$PEXTMAX
 10
-1e+20
 20
-1e+20
 30
-1e+20
  9
$PLIMMIN
 10
0.0
 20
0.0
  9
$PLIMMAX
 10
420.0
 20
297.0
  9
$UNITMODE
 70
0
  9
$VISRETAIN
 70
1
  9
$PLINEGEN
 70
0
  9
$PSLTSCALE
 70
1
  9
$TREEDEPTH
 70
3020
  9
$CMLSTYLE
  2
Standard
  9
$CMLJUST
 70
0
  9
$CMLSCALE
 40
20.0
  9
$PROXYGRAPHICS
 70
1
  9
$MEASUREMENT
 70
1
  9
$CELWEIGHT
370
-1
  9
$ENDCAPS
280
0
  9
$JOINSTYLE
280
0
  9
$LWDISPLAY
290
0
  9
$INSUNITS
 70
6
  9
$HYPERLINKBASE
  1

  9
$STYLESHEET
  1

  9
$XEDIT
290
1
  9
$CEPSNTYPE
380
0
  9
$PSTYLEMODE
290
1
  9
$FINGERPRINTGUID
  2
{CAF74207-06D5-408C-87F2-6FB5C43052AC}
  9
$VERSIONGUID
  2
{82A43736-852E-4A94-919E-9A22F4CEAE82}
  9
$EXTNAMES
290
1
  9
$PSVPSCALE
 40
0.0
  9
$OLESTARTUP
290
0
  9
$SORTENTS
280
127
  9
$INDEXCTL
280
0
  9
$HIDETEXT
280
1
  9
$XCLIPFRAME
290
0
  9
$HALOGAP
280
0
  9
$OBSCOLOR
 70
257
  9
$OBSLTYPE
280
0
  9
$INTERSECTIONDISPLAY
280
0
  9
$INTERSECTIONCOLOR
 70
257
  9
$DIMASSOC
280
2
  9
$PROJECTNAME
  1

  9
$CAMERADISPLAY
290
0
  9
$LENSLENGTH
 40
50.0
  9
$CAMERAHEIGHT
 40
0.0
  9
$STEPSPERSEC
 40
24.0
  9
$STEPSIZE
 40
100.0
  9
$3DDWFPREC
 40
2.0
  9
$PSOLWIDTH
 40
0.005
  9
$PSOLHEIGHT
 40
0.08
  9
$LOFTANG1
 40
1.570796326795
  9
$LOFTANG2
 40
1.570796326795
  9
$LOFTMAG1
 40
0.0
  9
$LOFTMAG2
 40
0.0
  9
$LOFTPARAM
 70
7
  9
$LOFTNORMALS
280
1
  9
$LATITUDE
 40
37.795
  9
$LONGITUDE
 40
-122.394
  9
$NORTHDIRECTION
 40
0.0
  9
$TIMEZONE
 70
-8000
  9
$LIGHTGLYPHDISPLAY
280
1
  9
$TILEMODELIGHTSYNCH
280
1
  9
$CMATERIAL
347
20
  9
$SOLIDHIST
280
0
  9
$SHOWHIST
280
1
  9
$DWFFRAME
280
2
  9
$DGNFRAME
280
2
  9
$REALWORLDSCALE
290
1
  9
$INTERFERECOLOR
 62
256
  9
$CSHADOW
280
0
  9
$SHADOWPLANELOCATION
 40
0.0
  0
ENDSEC
  0
SECTION
  2
CLASSES
  0
CLASS
  1
ACDBDICTIONARYWDFLT
  2
AcDbDictionaryWithDefault
  3
ObjectDBX Classes
 90
0
 91
0
280
0
281
0
  0
CLASS
  1
SUN
  2
AcDbSun
  3
SCENEOE
 90
1153
 91
0
280
0
281
0
  0
CLASS
  1
VISUALSTYLE
  2
AcDbVisualStyle
  3
ObjectDBX Classes
 90
4095
 91
0
280
0
281
0
  0
CLASS
  1
MATERIAL
  2
AcDbMaterial
  3
ObjectDBX Classes
 90
1153
 91
0
280
0
281
0
  0
CLASS
  1
SCALE
  2
AcDbScale
  3
ObjectDBX Classes
 90
1153
 91
0
280
0
281
0
  0
CLASS
  1
TABLESTYLE
  2
AcDbTableStyle
  3
ObjectDBX Classes
 90
4095
 91
0
280
0
281
0
  0
CLASS
  1
MLEADERSTYLE
  2
AcDbMLeaderStyle
  3
ACDB_MLEADERSTYLE_CLASS
 90
4095
 91
0
280
0
281
0
  0
CLASS
  1
DICTIONARYVAR
  2
AcDbDictionaryVar
  3
ObjectDBX Classes
 90
0
 91
0
280
0
281
0
  0
CLASS
  1
CELLSTYLEMAP
  2
AcDbCellStyleMap
  3
ObjectDBX Classes
 90
1152
 91
0
280
0
281
0
  0
CLASS
  1
MENTALRAYRENDERSETTINGS
  2
AcDbMentalRayRenderSettings
  3
SCENEOE
 90
1024
 91
0
280
0
281
0
  0
CLASS
  1
ACDBDETAILVIEWSTYLE
  2
AcDbDetailViewStyle
  3
ObjectDBX Classes
 90
1025
 91
0
280
0
281
0
  0
CLASS
  1
ACDBSECTIONVIEWSTYLE
  2
AcDbSectionViewStyle
  3
ObjectDBX Classes
 90
1025
 91
0
280
0
281
0
  0
CLASS
  1
RASTERVARIABLES
  2
AcDbRasterVariables
  3
ISM
 90
0
 91
0
280
0
281
0
  0
CLASS
  1
ACDBPLACEHOLDER
  2
AcDbPlaceHolder
  3
ObjectDBX Classes
 90
0
 91
0
280
0
281
0
  0
CLASS
  1
LAYOUT
  2
AcDbLayout
  3
ObjectDBX Classes
 90
0
 91
0
280
0
281
0
  0
ENDSEC
  0
SECTION
  2
TABLES
  0
TABLE
  2
VPORT
  5
8
330
0
100
AcDbSymbolTable
 70
1
  0
VPORT
  5
23
330
8
100
AcDbSymbolTableRecord
100
AcDbViewportTableRecord
  2
*Active
 70
0
 10
0.0
 20
0.0
 11
1.0
 21
1.0
 12
0.0
 22
0.0
 13
0.0
 23
0.0
 14
0.5
 24
0.5
 15
0.5
 25
0.5
 16
0.0
 26
0.0
 36
1.0
 17
0.0
 27
0.0
 37
0.0
 40
1000.0
 41
1.34
 42
50.0
 43
0.0
 44
0.0
 50
0.0
 51
0.0
 71
0
 72
1000
 73
1
 74
3
 75
0
 76
0
 77
0
 78
0
281
0
 65
0
146
0.0
  0
ENDTAB
  0
TABLE
  2
LTYPE
  5
2
330
0
100
AcDbSymbolTable
 70
21
  0
LTYPE
  5
24
330
2
100
AcDbSymbolTableRecord
100
AcDbLinetypeTableRecord
  2
ByBlock
 70
0
  3

 72
65
 73
0
 40
0.0
  0
LTYPE
  5
25
330
2
100
AcDbSymbolTableRecord
100
AcDbLinetypeTableRecord
  2
ByLayer
 70
0
  3

 72
65
 73
0
 40
0.0
  0
LTYPE
  5
26
330
2
100
AcDbSymbolTableRecord
100
AcDbLinetypeTableRecord
  2
Continuous
 70
0
  3

 72
65
 73
0
 40
0.0
  0
LTYPE
  5
2F
330
2
100
AcDbSymbolTableRecord
100
AcDbLinetypeTableRecord
  2
CENTER
 70
0
  3
Center ____ _ ____ _ ____ _ ____ _ ____ _ ____
 72
65
 73
4
 40
5.08
 49
3.175
 74
0
 49
-0.635
 74
0
 49
0.635
 74
0
 49
-0.635
 74
0
  0
LTYPE
  5
30
330
2
100
AcDbSymbolTableRecord
100
AcDbLinetypeTableRecord
  2
CENTERX2
 70
0
  3
Center (2x) ________  __  ________  __  ________
 72
65
 73
4
 40
8.89
 49
6.35
 74
0
 49
-0.635
 74
0
 49
1.27
 74
0
 49
-0.635
 74
0
  0
LTYPE
  5
31
330
2
100
AcDbSymbolTableRecord
100
AcDbLinetypeTableRecord
  2
CENTER2
 70
0
  3
Center (.5x) ____ _ ____ _ ____ _ ____ _ ____
 72
65
 73
4
 40
2.54
 49
1.587
 74
0
 49
-0.318
 74
0
 49
0.318
 74
0
 49
-0.318
 74
0
  0
LTYPE
  5
32
330
2
100
AcDbSymbolTableRecord
100
AcDbLinetypeTableRecord
  2
DASHED
 70
0
  3
Dashed __ __ __ __ __ __ __ __ __ __ __ __ __ _
 72
65
 73
2
 40
1.524
 49
1.27
 74
0
 49
-0.254
 74
0
  0
LTYPE
  5
33
330
2
100
AcDbSymbolTableRecord
100
AcDbLinetypeTableRecord
  2
DASHEDX2
 70
0
  3
Dashed (2x) ____  ____  ____  ____  ____  ____
 72
65
 73
2
 40
3.048
 49
2.54
 74
0
 49
-0.508
 74
0
  0
LTYPE
  5
34
330
2
100
AcDbSymbolTableRecord
100
AcDbLinetypeTableRecord
  2
DASHED2
 70
0
  3
Dashed (.5x) _ _ _ _ _ _ _ _ _ _ _ _ _ _
 72
65
 73
2
 40
0.762
 49
0.635
 74
0
 49
-0.127
 74
0
  0
LTYPE
  5
35
330
2
100
AcDbSymbolTableRecord
100
AcDbLinetypeTableRecord
  2
PHANTOM
 70
0
  3
Phantom ______  __  __  ______  __  __  ______
 72
65
 73
6
 40
6.35
 49
3.175
 74
0
 49
-0.635
 74
0
 49
0.635
 74
0
 49
-0.635
 74
0
 49
0.635
 74
0
 49
-0.635
 74
0
  0
LTYPE
  5
36
330
2
100
AcDbSymbolTableRecord
100
AcDbLinetypeTableRecord
  2
PHANTOMX2
 70
0
  3
Phantom (2x)____________    ____    ____    ____________
 72
65
 73
6
 40
10.795
 49
6.35
 74
0
 49
-0.635
 74
0
 49
1.27
 74
0
 49
-0.635
 74
0
 49
1.27
 74
0
 49
-0.635
 74
0
  0
LTYPE
  5
37
330
2
100
AcDbSymbolTableRecord
100
AcDbLinetypeTableRecord
  2
PHANTOM2
 70
0
  3
Phantom (.5x) ___ _ _ ___ _ _ ___ _ _ ___ _ _ ___
 72
65
 73
6
 40
3.175
 49
1.587
 74
0
 49
-0.318
 74
0
 49
0.318
 74
0
 49
-0.318
 74
0
 49
0.318
 74
0
 49
-0.318
 74
0
  0
LTYPE
  5
38
330
2
100
AcDbSymbolTableRecord
100
AcDbLinetypeTableRecord
  2
DASHDOT
 70
0
  3
Dash dot __ . __ . __ . __ . __ . __ . __ . __
 72
65
 73
4
 40
3.556
 49
2.54
 74
0
 49
-0.508
 74
0
 49
0.0
 74
0
 49
-0.508
 74
0
  0
LTYPE
  5
39
330
2
100
AcDbSymbolTableRecord
100
AcDbLinetypeTableRecord
  2
DASHDOTX2
 70
0
  3
Dash dot (2x) ____  .  ____  .  ____  .  ____
 72
65
 73
4
 40
6.096
 49
5.08
 74
0
 49
-0.508
 74
0
 49
0.0
 74
0
 49
-0.508
 74
0
  0
LTYPE
  5
3A
330
2
100
AcDbSymbolTableRecord
100
AcDbLinetypeTableRecord
  2
DASHDOT2
 70
0
  3
Dash dot (.5x) _ . _ . _ . _ . _ . _ . _ . _
 72
65
 73
4
 40
1.778
 49
1.27
 74
0
 49
-0.254
 74
0
 49
0.0
 74
0
 49
-0.254
 74
0
  0
LTYPE
  5
3B
330
2
100
AcDbSymbolTableRecord
100
AcDbLinetypeTableRecord
  2
DOT
 70
0
  3
Dot .  .  .  .  .  .  .  .  .  .  .  .  .  .  .  .
 72
65
 73
2
 40
0.508
 49
0.0
 74
0
 49
-0.508
 74
0
  0
LTYPE
  5
3C
330
2
100
AcDbSymbolTableRecord
100
AcDbLinetypeTableRecord
  2
DOTX2
 70
0
  3
Dot (2x) .    .    .    .    .    .    .    . 
 72
65
 73
2
 40
1.016
 49
0.0
 74
0
 49
-1.016
 74
0
  0
LTYPE
  5
3D
330
2
100
AcDbSymbolTableRecord
100
AcDbLinetypeTableRecord
  2
DOT2
 70
0
  3
Dot (.5) . . . . . . . . . . . . . . . . . . . 
 72
65
 73
2
 40
0.254
 49
0.0
 74
0
 49
-0.254
 74
0
  0
LTYPE
  5
3E
330
2
100
AcDbSymbolTableRecord
100
AcDbLinetypeTableRecord
  2
DIVIDE
 70
0
  3
Divide __ . . __ . . __ . . __ . . __ . . __
 72
65
 73
6
 40
4.064
 49
2.54
 74
0
 49
-0.508
 74
0
 49
0.0
 74
0
 49
-0.508
 74
0
 49
0.0
 74
0
 49
-0.508
 74
0
  0
LTYPE
  5
3F
330
2
100
AcDbSymbolTableRecord
100
AcDbLinetypeTableRecord
  2
DIVIDEX2
 70
0
  3
Divide (2x) ____  . .  ____  . .  ____  . .  ____
 72
65
 73
6
 40
6.604
 49
5.08
 74
0
 49
-0.508
 74
0
 49
0.0
 74
0
 49
-0.508
 74
0
 49
0.0
 74
0
 49
-0.508
 74
0
  0
LTYPE
  5
40
330
2
100
AcDbSymbolTableRecord
100
AcDbLinetypeTableRecord
  2
DIVIDE2
 70
0
  3
Divide(.5x) _ . _ . _ . _ . _ . _ . _ . _
 72
65
 73
6
 40
2.032
 49
1.27
 74
0
 49
-0.254
 74
0
 49
0.0
 74
0
 49
-0.254
 74
0
 49
0.0
 74
0
 49
-0.254
 74
0
  0
ENDTAB
  0
TABLE
  2
LAYER
  5
1
330
0
100
AcDbSymbolTable
 70
3
  0
LAYER
  5
27
330
1
100
AcDbSymbolTableRecord
100
AcDbLayerTableRecord
  2
0
 70
0
 62
7
  6
Continuous
370
-3
390
13
347
21
  0
LAYER
  5
28
330
1
100
AcDbSymbolTableRecord
100
AcDbLayerTableRecord
  2
Defpoints
 70
0
 62
7
  6
Continuous
290
0
370
-3
390
13
347
21
  0
LAYER
  5
8A
330
1
100
AcDbSymbolTableRecord
100
AcDbLayerTableRecord
  2
Layer
 70
0
 62
1
  6
Continuous
370
50
390
13
347
21
  0
ENDTAB
  0
TABLE
  2
STYLE
  5
5
330
0
100
AcDbSymbolTable
 70
26
  0
STYLE
  5
29
330
5
100
AcDbSymbolTableRecord
100
AcDbTextStyleTableRecord
  2
Standard
 70
0
 40
0.0
 41
1.0
 50
0.0
 71
0
 42
2.5
  3
txt
  4

  0
STYLE
  5
41
330
5
100
AcDbSymbolTableRecord
100
AcDbTextStyleTableRecord
  2
OpenSans-Light
 70
0
 40
0.0
 41
1.0
 50
0.0
 71
0
 42
2.5
  3
OpenSans-Light.ttf
  4

  0
STYLE
  5
42
330
5
100
AcDbSymbolTableRecord
100
AcDbTextStyleTableRecord
  2
OpenSans-Light-Italic
 70
0
 40
0.0
 41
1.0
 50
0.0
 71
0
 42
2.5
  3
OpenSans-LightItalic.ttf
  4

  0
STYLE
  5
43
330
5
100
AcDbSymbolTableRecord
100
AcDbTextStyleTableRecord
  2
OpenSans
 70
0
 40
0.0
 41
1.0
 50
0.0
 71
0
 42
2.5
  3
OpenSans-Regular.ttf
  4

  0
STYLE
  5
44
330
5
100
AcDbSymbolTableRecord
100
AcDbTextStyleTableRecord
  2
OpenSans-Italic
 70
0
 40
0.0
 41
1.0
 50
0.0
 71
0
 42
2.5
  3
OpenSans-Italic.ttf
  4

  0
STYLE
  5
45
330
5
100
AcDbSymbolTableRecord
100
AcDbTextStyleTableRecord
  2
OpenSans-SemiBold
 70
0
 40
0.0
 41
1.0
 50
0.0
 71
0
 42
2.5
  3
OpenSans-SemiBold.ttf
  4

  0
STYLE
  5
46
330
5
100
AcDbSymbolTableRecord
100
AcDbTextStyleTableRecord
  2
OpenSans-SemiBoldItalic
 70
0
 40
0.0
 41
1.0
 50
0.0
 71
0
 42
2.5
  3
OpenSans-SemiBoldItalic.ttf
  4

  0
STYLE
  5
47
330
5
100
AcDbSymbolTableRecord
100
AcDbTextStyleTableRecord
  2
OpenSans-Bold
 70
0
 40
0.0
 41
1.0
 50
0.0
 71
0
 42
2.5
  3
OpenSans-Bold.ttf
  4

  0
STYLE
  5
48
330
5
100
AcDbSymbolTableRecord
100
AcDbTextStyleTableRecord
  2
OpenSans-BoldItalic
 70
0
 40
0.0
 41
1.0
 50
0.0
 71
0
 42
2.5
  3
OpenSans-BoldItalic.ttf
  4

  0
STYLE
  5
49
330
5
100
AcDbSymbolTableRecord
100
AcDbTextStyleTableRecord
  2
OpenSans-ExtraBold
 70
0
 40
0.0
 41
1.0
 50
0.0
 71
0
 42
2.5
  3
OpenSans-ExtraBold.ttf
  4

  0
STYLE
  5
4A
330
5
100
AcDbSymbolTableRecord
100
AcDbTextStyleTableRecord
  2
OpenSans-ExtraBoldItalic
 70
0
 40
0.0
 41
1.0
 50
0.0
 71
0
 42
2.5
  3
OpenSans-ExtraBoldItalic.ttf
  4

  0
STYLE
  5
4B
330
5
100
AcDbSymbolTableRecord
100
AcDbTextStyleTableRecord
  2
OpenSansCondensed-Bold
 70
0
 40
0.0
 41
1.0
 50
0.0
 71
0
 42
2.5
  3
OpenSansCondensed-Bold.ttf
  4

  0
STYLE
  5
4C
330
5
100
AcDbSymbolTableRecord
100
AcDbTextStyleTableRecord
  2
OpenSansCondensed-Light
 70
0
 40
0.0
 41
1.0
 50
0.0
 71
0
 42
2.5
  3
OpenSansCondensed-Light.ttf
  4

  0
STYLE
  5
4D
330
5
100
AcDbSymbolTableRecord
100
AcDbTextStyleTableRecord
  2
OpenSansCondensed-Italic
 70
0
 40
0.0
 41
1.0
 50
0.0
 71
0
 42
2.5
  3
OpenSansCondensed-LightItalic.ttf
  4

  0
STYLE
  5
4E
330
5
100
AcDbSymbolTableRecord
100
AcDbTextStyleTableRecord
  2
LiberationSans
 70
0
 40
0.0
 41
1.0
 50
0.0
 71
0
 42
2.5
  3
LiberationSans-Regular.ttf
  4

  0
STYLE
  5
4F
330
5
100
AcDbSymbolTableRecord
100
AcDbTextStyleTableRecord
  2
LiberationSans-Bold
 70
0
 40
0.0
 41
1.0
 50
0.0
 71
0
 42
2.5
  3
LiberationSans-Bold.ttf
  4

  0
STYLE
  5
50
330
5
100
AcDbSymbolTableRecord
100
AcDbTextStyleTableRecord
  2
LiberationSans-BoldItalic
 70
0
 40
0.0
 41
1.0
 50
0.0
 71
0
 42
2.5
  3
LiberationSans-BoldItalic.ttf
  4

  0
STYLE
  5
51
330
5
100
AcDbSymbolTableRecord
100
AcDbTextStyleTableRecord
  2
LiberationSans-Italic
 70
0
 40
0.0
 41
1.0
 50
0.0
 71
0
 42
2.5
  3
LiberationSans-Italic.ttf
  4

  0
STYLE
  5
52
330
5
100
AcDbSymbolTableRecord
100
AcDbTextStyleTableRecord
  2
LiberationSerif
 70
0
 40
0.0
 41
1.0
 50
0.0
 71
0
 42
2.5
  3
LiberationSerif-Regular.ttf
  4

  0
STYLE
  5
53
330
5
100
AcDbSymbolTableRecord
100
AcDbTextStyleTableRecord
  2
LiberationSerif-Bold
 70
0
 40
0.0
 41
1.0
 50
0.0
 71
0
 42
2.5
  3
LiberationSerif-Bold.ttf
  4

  0
STYLE
  5
54
330
5
100
AcDbSymbolTableRecord
100
AcDbTextStyleTableRecord
  2
LiberationSerif-BoldItalic
 70
0
 40
0.0
 41
1.0
 50
0.0
 71
0
 42
2.5
  3
LiberationSerif-BoldItalic.ttf
  4

  0
STYLE
  5
55
330
5
100
AcDbSymbolTableRecord
100
AcDbTextStyleTableRecord
  2
LiberationSerif-Italic
 70
0
 40
0.0
 41
1.0
 50
0.0
 71
0
 42
2.5
  3
LiberationSerif-Italic.ttf
  4

  0
STYLE
  5
56
330
5
100
AcDbSymbolTableRecord
100
AcDbTextStyleTableRecord
  2
LiberationMono
 70
0
 40
0.0
 41
1.0
 50
0.0
 71
0
 42
2.5
  3
LiberationMono-Regular.ttf
  4

  0
STYLE
  5
57
330
5
100
AcDbSymbolTableRecord
100
AcDbTextStyleTableRecord
  2
LiberationMono-Bold
 70
0
 40
0.0
 41
1.0
 50
0.0
 71
0
 42
2.5
  3
LiberationMono-Bold.ttf
  4

  0
STYLE
  5
58
330
5
100
AcDbSymbolTableRecord
100
AcDbTextStyleTableRecord
  2
LiberationMono-BoldItalic
 70
0
 40
0.0
 41
1.0
 50
0.0
 71
0
 42
2.5
  3
LiberationMono-BoldItalic.ttf
  4

  0
STYLE
  5
59
330
5
100
AcDbSymbolTableRecord
100
AcDbTextStyleTableRecord
  2
LiberationMono-Italic
 70
0
 40
0.0
 41
1.0
 50
0.0
 71
0
 42
2.5
  3
LiberationMono-Italic.ttf
  4

  0
ENDTAB
  0
TABLE
  2
VIEW
  5
7
330
0
100
AcDbSymbolTable
 70
0
  0
ENDTAB
  0
TABLE
  2
UCS
  5
6
330
0
100
AcDbSymbolTable
 70
0
  0
ENDTAB
  0
TABLE
  2
APPID
  5
3
330
0
100
AcDbSymbolTable
 70
3
  0
APPID
  5
2A
330
3
100
AcDbSymbolTableRecord
100
AcDbRegAppTableRecord
  2
ACAD
 70
0
  0
APPID
  5
B8
330
3
100
AcDbSymbolTableRecord
100
AcDbRegAppTableRecord
  2
HATCHBACKGROUNDCOLOR
 70
0
  0
APPID
  5
B9
330
3
100
AcDbSymbolTableRecord
100
AcDbRegAppTableRecord
  2
EZDXF
 70
0
  0
ENDTAB
  0
TABLE
  2
DIMSTYLE
  5
4
330
0
100
AcDbSymbolTable
 70
12
100
AcDbDimStyleTable
  0
DIMSTYLE
105
2B
330
4
100
AcDbSymbolTableRecord
100
AcDbDimStyleTableRecord
  2
Standard
 70
0
 40
1.0
 41
2.5
 42
0.625
 43
3.75
 44
1.25
 45
0.0
 46
0.0
 47
0.0
 48
0.0
 49
2.5
140
2.5
141
2.5
142
0.0
143
0.03937007874
144
1.0
145
0.0
146
1.0
147
0.625
148
0.0
 69
0
 70
0
 71
0
 72
0
 73
0
 74
0
 75
0
 76
0
 77
1
 78
8
 79
3
170
0
171
3
172
1
173
0
174
0
175
0
176
0
177
0
178
0
179
2
271
2
272
2
273
2
274
3
275
0
276
0
277
2
278
44
279
0
280
0
281
0
282
0
283
0
284
8
285
0
286
0
288
0
289
3
290
0
371
-2
372
-2
  0
DIMSTYLE
105
73
330
4
100
AcDbSymbolTableRecord
100
AcDbDimStyleTableRecord
  2
EZDXF
 70
0
 40
1.0
 41
0.175
 42
0.125
 43
3.75
 44
0.375
 45
0.0
 46
0.0
 47
0.0
 48
0.0
 49
2.5
140
0.25
141
2.5
142
0.0
143
0.03937007874
144
100.0
145
0.0
146
0.5
147
0.1
148
0.0
 69
0
 70
0
 71
0
 72
0
 73
0
 74
0
 75
0
 76
0
 77
1
 78
12
 79
3
170
0
171
3
172
1
173
0
174
0
175
0
176
0
177
0
178
0
179
2
271
2
272
2
273
2
274
3
275
0
276
0
277
2
278
46
279
2
280
0
281
0
282
0
283
0
284
8
285
0
286
0
288
1
289
3
290
0
340
4C
342
74
371
-2
372
-2
  0
DIMSTYLE
105
7C
330
4
100
AcDbSymbolTableRecord
100
AcDbDimStyleTableRecord
  2
EZ_M_100_H25_CM
 70
0
 40
1.0
 41
0.25
 42
0.125
 43
3.75
 44
0.375
 45
0.0
 46
0.0
 47
0.0
 48
0.0
 49
2.5
140
0.25
141
2.5
142
0.125
143
0.03937007874
144
100.0
145
0.0
146
0.5
147
0.1
148
0.0
 69
0
 70
0
 71
0
 72
0
 73
0
 74
0
 75
0
 76
0
 77
1
 78
12
 79
3
170
0
171
3
172
1
173
0
174
0
175
0
176
0
177
0
178
0
179
2
271
2
272
2
273
2
274
3
275
0
276
0
277
2
278
46
279
2
280
0
281
0
282
0
283
0
284
8
285
0
286
0
288
1
289
3
290
0
340
4C
371
-2
372
-2
  0
DIMSTYLE
105
7D
330
4
100
AcDbSymbolTableRecord
100
AcDbDimStyleTableRecord
  2
EZ_M_50_H25_CM
 70
0
 40
1.0
 41
0.125
 42
0.0625
 43
3.75
 44
0.1875
 45
0.0
 46
0.0
 47
0.0
 48
0.0
 49
2.5
140
0.125
141
2.5
142
0.0625
143
0.03937007874
144
100.0
145
0.0
146
0.5
147
0.05
148
0.0
 69
0
 70
0
 71
0
 72
0
 73
0
 74
0
 75
0
 76
0
 77
1
 78
12
 79
3
170
0
171
3
172
1
173
0
174
0
175
0
176
0
177
0
178
0
179
2
271
2
272
2
273
2
274
3
275
0
276
0
277
2
278
46
279
2
280
0
281
0
282
0
283
0
284
8
285
0
286
0
288
1
289
3
290
0
340
4C
371
-2
372
-2
  0
DIMSTYLE
105
7E
330
4
100
AcDbSymbolTableRecord
100
AcDbDimStyleTableRecord
  2
EZ_M_25_H25_CM
 70
0
 40
1.0
 41
0.0625
 42
0.03125
 43
3.75
 44
0.09375
 45
0.0
 46
0.0
 47
0.0
 48
0.0
 49
2.5
140
0.0625
141
2.5
142
0.03125
143
0.03937007874
144
100.0
145
0.0
146
0.5
147
0.025
148
0.0
 69
0
 70
0
 71
0
 72
0
 73
0
 74
0
 75
0
 76
0
 77
1
 78
12
 79
3
170
0
171
3
172
1
173
0
174
0
175
0
176
0
177
0
178
0
179
2
271
2
272
2
273
2
274
3
275
0
276
0
277
2
278
46
279
2
280
0
281
0
282
0
283
0
284
8
285
0
286
0
288
1
289
3
290
0
340
4C
371
-2
372
-2
  0
DIMSTYLE
105
7F
330
4
100
AcDbSymbolTableRecord
100
AcDbDimStyleTableRecord
  2
EZ_M_20_H25_CM
 70
0
 40
1.0
 41
0.05
 42
0.025
 43
3.75
 44
0.07500000000000001
 45
0.0
 46
0.0
 47
0.0
 48
0.0
 49
2.5
140
0.05
141
2.5
142
0.025
143
0.03937007874
144
100.0
145
0.0
146
0.5
147
0.020000000000000004
148
0.0
 69
0
 70
0
 71
0
 72
0
 73
0
 74
0
 75
0
 76
0
 77
1
 78
12
 79
3
170
0
171
3
172
1
173
0
174
0
175
0
176
0
177
0
178
0
179
2
271
2
272
2
273
2
274
3
275
0
276
0
277
2
278
46
279
2
280
0
281
0
282
0
283
0
284
8
285
0
286
0
288
1
289
3
290
0
340
4C
371
-2
372
-2
  0
DIMSTYLE
105
80
330
4
100
AcDbSymbolTableRecord
100
AcDbDimStyleTableRecord
  2
EZ_M_10_H25_CM
 70
0
 40
1.0
 41
0.025
 42
0.0125
 43
3.75
 44
0.037500000000000006
 45
0.0
 46
0.0
 47
0.0
 48
0.0
 49
2.5
140
0.025
141
2.5
142
0.0125
143
0.03937007874
144
100.0
145
0.0
146
0.5
147
0.010000000000000002
148
0.0
 69
0
 70
0
 71
0
 72
0
 73
0
 74
0
 75
0
 76
0
 77
1
 78
12
 79
3
170
0
171
3
172
1
173
0
174
0
175
0
176
0
177
0
178
0
179
2
271
2
272
2
273
2
274
3
275
0
276
0
277
2
278
46
279
2
280
0
281
0
282
0
283
0
284
8
285
0
286
0
288
1
289
3
290
0
340
4C
371
-2
372
-2
  0
DIMSTYLE
105
81
330
4
100
AcDbSymbolTableRecord
100
AcDbDimStyleTableRecord
  2
EZ_M_5_H25_CM
 70
0
 40
1.0
 41
0.0125
 42
0.00625
 43
3.75
 44
0.018750000000000003
 45
0.0
 46
0.0
 47
0.0
 48
0.0
 49
2.5
140
0.0125
141
2.5
142
0.00625
143
0.03937007874
144
100.0
145
0.0
146
0.5
147
0.005000000000000001
148
0.0
 69
0
 70
0
 71
0
 72
0
 73
0
 74
0
 75
0
 76
0
 77
1
 78
12
 79
3
170
0
171
3
172
1
173
0
174
0
175
0
176
0
177
0
178
0
179
2
271
2
272
2
273
2
274
3
275
0
276
0
277
2
278
46
279
2
280
0
281
0
282
0
283
0
284
8
285
0
286
0
288
1
289
3
290
0
340
4C
371
-2
372
-2
  0
DIMSTYLE
105
82
330
4
100
AcDbSymbolTableRecord
100
AcDbDimStyleTableRecord
  2
EZ_M_1_H25_CM
 70
0
 40
1.0
 41
0.0025
 42
0.00125
 43
3.75
 44
0.00375
 45
0.0
 46
0.0
 47
0.0
 48
0.0
 49
2.5
140
0.0025
141
2.5
142
0.00125
143
0.03937007874
144
100.0
145
0.0
146
0.5
147
0.001
148
0.0
 69
0
 70
0
 71
0
 72
0
 73
0
 74
0
 75
0
 76
0
 77
1
 78
12
 79
3
170
0
171
3
172
1
173
0
174
0
175
0
176
0
177
0
178
0
179
2
271
2
272
2
273
2
274
3
275
0
276
0
277
2
278
46
279
2
280
0
281
0
282
0
283
0
284
8
285
0
286
0
288
1
289
3
290
0
340
4C
371
-2
372
-2
  0
DIMSTYLE
105
83
330
4
100
AcDbSymbolTableRecord
100
AcDbDimStyleTableRecord
  2
EZ_RADIUS
 70
0
 40
1.0
 41
0.25
 42
0.125
 43
3.75
 44
0.375
 45
0.0
 46
0.0
 47
0.0
 48
0.0
 49
2.5
140
0.25
141
0.0
142
0.0
143
0.03937007874
144
100.0
145
0.0
146
0.5
147
0.1
148
0.0
 69
0
 70
0
 71
0
 72
0
 73
0
 74
0
 75
0
 76
0
 77
1
 78
12
 79
3
170
0
171
3
172
0
173
0
174
0
175
0
176
0
177
0
178
0
179
2
271
2
272
2
273
2
274
3
275
0
276
0
277
2
278
46
279
1
280
0
281
0
282
0
283
0
284
8
285
0
286
0
288
1
289
3
290
0
340
4C
342
84
371
-2
372
-2
  0
DIMSTYLE
105
88
330
4
100
AcDbSymbolTableRecord
100
AcDbDimStyleTableRecord
  2
EZ_RADIUS_INSIDE
 70
0
 40
1.0
 41
0.25
 42
0.125
 43
3.75
 44
0.375
 45
0.0
 46
0.0
 47
0.0
 48
0.0
 49
2.5
140
0.25
141
0.0
142
0.0
143
0.03937007874
144
100.0
145
0.0
146
0.5
147
0.1
148
0.0
 69
0
 70
0
 71
0
 72
0
 73
0
 74
0
 75
0
 76
0
 77
0
 78
12
 79
3
170
0
171
3
172
0
173
0
174
1
175
0
176
0
177
0
178
0
179
2
271
2
272
2
273
2
274
3
275
0
276
0
277
2
278
46
279
0
280
0
281
0
282
0
283
0
284
8
285
0
286
0
288
1
289
0
290
0
340
4C
342
84
371
-2
372
-2
  0
DIMSTYLE
105
89
330
4
100
AcDbSymbolTableRecord
100
AcDbDimStyleTableRecord
  2
EZ_CURVED
 70
0
 40
1.0
 41
0.25
 42
0.125
 43
3.75
 44
0.375
 45
0.0
 46
0.0
 47
0.0
 48
0.0
 49
2.5
140
0.25
141
2.5
142
0.0
143
0.03937007874
144
100.0
145
0.0
146
0.5
147
0.1
148
0.0
 69
0
 70
0
 71
0
 72
0
 73
0
 74
0
 75
0
 76
0
 77
1
 78
12
 79
2
 90
2
170
0
171
3
172
1
173
0
174
0
175
0
176
0
177
0
178
0
179
2
271
2
272
2
273
2
274
3
275
0
276
0
277
2
278
46
279
2
280
0
281
0
282
0
283
0
284
8
285
0
286
0
288
1
289
3
290
0
340
4C
371
-2
372
-2
  0
ENDTAB
  0
TABLE
  2
BLOCK_RECORD
  5
9
330
0
100
AcDbSymbolTable
 70
5
  0
BLOCK_RECORD
  5
17
330
9
100
AcDbSymbolTableRecord
100
AcDbBlockTableRecord
  2
*Model_Space
340
1A
 70
0
280
1
281
0
  0
BLOCK_RECORD
  5
1B
330
9
100
AcDbSymbolTableRecord
100
AcDbBlockTableRecord
  2
*Paper_Space
340
1E
 70
0
280
1
281
0
  0
BLOCK_RECORD
  5
74
330
9
100
AcDbSymbolTableRecord
100
AcDbBlockTableRecord
  2
_ARCHTICK
340
0
 70
0
280
1
281
0
  0
BLOCK_RECORD
  5
78
330
9
100
AcDbSymbolTableRecord
100
AcDbBlockTableRecord
  2
_CLOSEDFILLED
340
0
 70
0
280
1
281
0
  0
BLOCK_RECORD
  5
84
330
9
100
AcDbSymbolTableRecord
100
AcDbBlockTableRecord
  2
_CLOSEDBLANK
340
0
 70
0
280
1
281
0
  0
ENDTAB
  0
ENDSEC
  0
SECTION
  2
BLOCKS
  0
BLOCK
  5
18
330
17
100
AcDbEntity
  8
0
100
AcDbBlockBegin
  2
*Model_Space
 70
0
 10
0.0
 20
0.0
 30
0.0
  3
*Model_Space
  1

  0
ENDBLK
  5
19
330
17
100
AcDbEntity
  8
0
100
AcDbBlockEnd
  0
BLOCK
  5
1C
330
1B
100
AcDbEntity
  8
0
100
AcDbBlockBegin
  2
*Paper_Space
 70
0
 10
0.0
 20
0.0
 30
0.0
  3
*Paper_Space
  1

  0
ENDBLK
  5
1D
330
1B
100
AcDbEntity
  8
0
100
AcDbBlockEnd
  0
BLOCK
  5
75
330
74
100
AcDbEntity
  8
0
100
AcDbBlockBegin
  2
_ARCHTICK
 70
0
 10
0.0
 20
0.0
 30
0.0
  3
_ARCHTICK
  1

  0
LWPOLYLINE
  5
77
330
74
100
AcDbEntity
  8
0
  6
BYBLOCK
 62
0
100
AcDbPolyline
 90
2
 70
0
 43
0.15
 10
-0.5
 20
-0.5000000000000001
 10
0.5000000000000001
 20
0.5
  0
ENDBLK
  5
76
330
74
100
AcDbEntity
  8
0
100
AcDbBlockEnd
  0
BLOCK
  5
79
330
78
100
AcDbEntity
  8
0
100
AcDbBlockBegin
  2
_CLOSEDFILLED
 70
0
 10
0.0
 20
0.0
 30
0.0
  3
_CLOSEDFILLED
  1

  0
SOLID
  5
7B
330
78
100
AcDbEntity
  8
0
  6
BYBLOCK
 62
0
100
AcDbTrace
 10
-1.0
 20
0.1643989837240255
 30
0.0
 11
0.0
 21
0.0
 31
0.0
 12
-1.0
 22
-0.1643989837240255
 32
0.0
 13
-1.0
 23
-0.1643989837240255
 33
0.0
  0
ENDBLK
  5
7A
330
78
100
AcDbEntity
  8
0
100
AcDbBlockEnd
  0
BLOCK
  5
85
330
84
100
AcDbEntity
  8
0
100
AcDbBlockBegin
  2
_CLOSEDBLANK
 70
0
 10
0.0
 20
0.0
 30
0.0
  3
_CLOSEDBLANK
  1

  0
LWPOLYLINE
  5
87
330
84
100
AcDbEntity
  8
0
  6
BYBLOCK
 62
0
100
AcDbPolyline
 90
3
 70
1
 10
-1.0
 20
0.1643989837240255
 10
0.0
 20
0.0
 10
-1.0
 20
-0.1643989837240255
  0
ENDBLK
  5
86
330
84
100
AcDbEntity
  8
0
100
AcDbBlockEnd
  0
ENDSEC
  0
SECTION
  2
ENTITIES
  0
LWPOLYLINE
  5
8B
330
17
100
AcDbEntity
  8
Layer
100
AcDbPolyline
 90
303
 70
1
 10
991.927248390539
 20
-99.72606602676376
 10
988.9599288773557
 20
-98.51826319638349
 10
984.1815354028356
 20
-96.66620161657038
 10
979.0142939035698
 20
-94.62120919278958
 10
973.3686144848266
 20
-92.42602550741063
 10
967.2096937863089
 20
-90.07566216892072
 10
960.584372907781
 20
-87.54855668971854
 10
953.5723740063365
 20
-84.86049495131658
 10
946.2348602925076
 20
-82.0602750895736
 10
938.6863121438003
 20
-79.18322891285085
 10
931.0649242453896
 20
-76.307076986882
 10
923.378613944351
 20
-73.46329355676562
 10
915.5878261038979
 20
-70.52007414284559
 10
907.7069671379588
 20
-67.53031591375785
 10
899.6888960653278
 20
-64.55033394162994
 10
891.540484763043
 20
-61.53433889504092
 10
883.2525391084831
 20
-58.505351212656905
 10
874.8073664328388
 20
-55.407137865726305
 10
866.2276155717866
 20
-52.26516080246949
 10
857.5499122485187
 20
-49.094581419054634
 10
848.8100976744151
 20
-45.90477215668624
 10
840.0423112077481
 20
-42.705085834168045
 10
831.2705516509982
 20
-39.51097046929184
 10
822.5008918179849
 20
-36.33054113964183
 10
813.7342440769439
 20
-33.165247837448426
 10
804.9735062855111
 20
-30.015493669626114
 10
796.2289040264777
 20
-26.882626406545334
 10
787.5176826154
 20
-23.7754621142063
 10
778.840390019376
 20
-20.703692565728804
 10
770.1802288741915
 20
-17.666124535324105
 10
761.5306509889565
 20
-14.65687842209648
 10
752.8996759715734
 20
-11.677533052869101
 10
748.6282149057184
 20
-10.216660021765811
 10
748.2884295188708
 20
-11.21016185411679
 10
743.9548096657511
 20
-9.72802138750085
 10
735.3680357644976
 20
-6.82290705548149
 10
726.7934356750384
 20
-3.955404361796908
 10
718.224522546595
 20
-1.1248298895130917
 10
709.6554076867313
 20
1.6714100907088585
 10
701.0870872767313
 20
4.437387349832373
 10
692.5432012868124
 20
7.171310338764411
 10
684.0540777445024
 20
9.859429813457307
 10
675.6270260477656
 20
12.487026022582981
 10
667.2506164824342
 20
15.049159303707313
 10
658.911454856993
 20
17.54613772593287
 10
650.5978564474435
 20
19.979508560825497
 10
642.299484413965
 20
22.351430848456978
 10
634.0107743313389
 20
24.66432257035463
 10
625.7324256072872
 20
26.91844133284272
 10
617.4656058319376
 20
29.11105541394003
 10
609.203007630501
 20
31.240032033572376
 10
600.9326942827157
 20
33.30747436867155
 10
592.6482737003635
 20
35.316762105676126
 10
584.3472382932321
 20
37.26987848164652
 10
576.0289152687827
 20
39.16806773508152
 10
567.6946292816806
 20
41.011914654074
 10
559.3478059049196
 20
42.80110949783086
 10
550.990328473661
 20
44.53369527356203
 10
542.6166526659966
 20
46.208468088448534
 10
534.2186900521891
 20
47.82778764647577
 10
525.7936686898338
 20
49.39496208417702
 10
517.3435747298407
 20
50.9125222215107
 10
508.87707160083255
 20
52.381351157555535
 10
500.4037252658918
 20
53.79948696439897
 10
491.92867089662934
 20
55.164058102127186
 10
483.45401281458277
 20
56.47420629835009
 10
474.9838022056533
 20
57.7290067620537
 10
466.5205521177969
 20
58.92656724815244
 10
458.0636027964987
 20
60.06515548660787
 10
449.6102859300071
 20
61.14458562429343
 10
441.1607924183879
 20
62.16513650121309
 10
432.7159304496697
 20
63.12604637846351
 10
424.2741503643257
 20
64.02644215892796
 10
415.83391033323005
 20
64.86644387422584
 10
407.39677750024873
 20
65.64612774250934
 10
398.96142166674093
 20
66.36380217469693
 10
390.5237391930889
 20
67.01908303015458
 10
382.0795079094854
 20
67.61358941381839
 10
373.6316588489208
 20
68.14919559793375
 10
365.1860738859092
 20
68.62605499040897
 10
356.74796040607146
 20
69.04297333036027
 10
348.3203783358477
 20
69.39841901064081
 10
339.9037197228033
 20
69.69115586735344
 10
331.49832684113557
 20
69.92114958994392
 10
323.10675962010936
 20
70.08918848751289
 10
314.73717533720094
 20
70.19716894674426
 10
306.40520669737197
 20
70.24484889720098
 10
298.1231758714138
 20
70.22823354643525
 10
289.89605832785526
 20
70.14130007289086
 10
281.716521462911
 20
69.97617399179072
 10
273.5619140517365
 20
69.72832120349722
 10
265.4146632936143
 20
69.40193684116983
 10
257.2775415050354
 20
69.00324425279649
 10
249.1597903300862
 20
68.53238248772128
 10
241.0647045615174
 20
67.98755148918758
 10
232.9945248606879
 20
67.36896789239377
 10
224.9564219455018
 20
66.6777464738283
 10
216.95780387720652
 20
65.91313847353722
 10
209.00455360770508
 20
65.07411456489827
 10
201.1011011482533
 20
64.15933362679587
 10
193.25124142257403
 20
63.16788657174274
 10
185.45932042650603
 20
62.099803140709625
 10
177.73393860380975
 20
60.954587268181456
 10
170.07643937615862
 20
59.725303673624545
 10
162.47240707056622
 20
58.40837574399479
 10
154.92273251493742
 20
57.0166629862445
 10
147.4674126656495
 20
55.56688169347795
 10
140.1473699853722
 20
54.058081114284924
 10
132.97585261116475
 20
52.47944367338443
 10
125.95072046065314
 20
50.822924109351455
 10
119.06665936409877
 20
49.08457907574271
 10
112.31951060476592
 20
47.263714530801046
 10
105.7099102744557
 20
45.362858775026325
 10
99.24487879912652
 20
43.388326237230096
 10
92.9392409006922
 20
41.34865627238595
 10
86.81056829201611
 20
39.24985737951274
 10
80.87033013886781
 20
37.09684601898219
 10
75.13073243031818
 20
34.90352140813172
 10
69.61527110619181
 20
32.692164762768364
 10
64.35209269120566
 20
30.48123276113713
 10
59.36206456933331
 20
28.281848596653383
 10
54.656312158802166
 20
26.100894390673876
 10
50.23560333832984
 20
23.94192692016266
 10
46.093278200004875
 20
21.8106571262312
 10
42.22120587846791
 20
19.71676680342805
 10
38.6104619817134
 20
17.66957343235827
 10
35.2517004931139
 20
15.67760869374917
 10
32.1353271088372
 20
13.745304552927053
 10
29.24979162651863
 20
11.87244437161744
 10
26.581958971651318
 20
10.055902063652159
 10
24.116929402341896
 20
8.290207570207036
 10
21.836676979338677
 20
6.569878547655748
 10
19.723491006068514
 20
4.896121177055523
 10
17.763312791093597
 20
3.2725737728817417
 10
15.94566122673075
 20
1.7000285470477339
 10
14.260752441623367
 20
0.17521552629510911
 10
12.699287674808716
 20
-1.3047082481569645
 10
11.252845876629067
 20
-2.7425585439239937
 10
9.913568559879366
 20
-4.141329054597868
 10
8.673024578890534
 20
-5.505146256316377
 10
7.522563187069352
 20
-6.835751768287233
 10
6.456646614500073
 20
-8.130380440408382
 10
5.473407626673236
 20
-9.388669657195136
 10
4.566802025184927
 20
-10.62246414488596
 10
3.724153471056354
 20
-11.839264135102752
 10
2.941690971464425
 20
-13.018288101047105
 10
2.232063379110741
 20
-14.143297900394698
 10
1.599267296497203
 20
-15.249351796766495
 10
1.0256737280293464
 20
-16.371127385270416
 10
0.4978446588611405
 20
-17.469861232601787
 10
0.02865212218131319
 20
-18.50441316211916
 10
-0.36759003698699644
 20
-19.50950850720378
 10
-0.6956892793110114
 20
-20.527071919310373
 10
-0.9697821533529805
 20
-21.538746195016312
 10
-1.194378163471697
 20
-22.5178576467317
 10
-1.3648718753630646
 20
-23.469778013961832
 10
-1.4808833230624714
 20
-24.421941966496394
 10
-1.5398607247815335
 20
-25.30798133132697
 10
-1.5413264992178597
 20
-26.20417272628127
 10
-1.4690295846127128
 20
-27.104610155420616
 10
-1.3144328895877493
 20
-28.016788319299753
 10
-1.0789251799608905
 20
-28.934814338590133
 10
-0.7646869381738384
 20
-29.850643430559096
 10
-0.37142642041817453
 20
-30.758181703048926
 10
0.1021875645047885
 20
-31.65148929762988
 10
0.6638066490442043
 20
-32.531831343648484
 10
1.3167271621251757
 20
-33.40138376019706
 10
2.0541425423031114
 20
-34.25779259263349
 10
2.8712865200029682
 20
-35.09905051316919
 10
3.766036723547188
 20
-35.92320388663864
 10
4.738495236406379
 20
-36.72815289415617
 10
5.7929115280253995
 20
-37.51296979377721
 10
6.933817466188259
 20
-38.27804391787561
 10
8.16642469796011
 20
-39.0256747868413
 10
9.494683419344824
 20
-39.760287082927306
 10
10.920159592294397
 20
-40.48768910882136
 10
12.443892232245275
 20
-41.21316302574061
 10
14.06960429411913
 20
-41.94077056080829
 10
15.803113207788613
 20
-42.673413021695524
 10
17.65154552032442
 20
-43.41284135147232
 10
19.62236969295651
 20
-44.15854973036631
 10
21.72913284630482
 20
-44.906820352247024
 10
23.992967168868063
 20
-45.65484094190317
 10
26.433341734945486
 20
-46.406174243384626
 10
29.065572904513772
 20
-47.16767479399734
 10
31.90649467658818
 20
-47.94469858494266
 10
34.975051947557574
 20
-48.740320924816565
 10
38.290844206874
 20
-49.552091983901406
 10
41.879074273685944
 20
-50.3714054814207
 10
45.76993221377313
 20
-51.19048279543905
 10
49.99753858644931
 20
-52.004766428711996
 10
54.59953219524027
 20
-52.81513710693589
 10
59.60365762884692
 20
-53.63166699878478
 10
65.01555413989882
 20
-54.46025360659579
 10
70.83028357061153
 20
-55.28926441505539
 10
77.04675279608517
 20
-56.10196101491
 10
83.66205935882715
 20
-56.88985855496107
 10
90.66603334832422
 20
-57.65224841219072
 10
98.02936166521152
 20
-58.39569219197605
 10
105.6874136274921
 20
-59.12403144269023
 10
113.56102941699902
 20
-59.82636225907529
 10
121.59263996692687
 20
-60.4850861801731
 10
129.7579787735388
 20
-61.08366468840002
 10
138.07671416830556
 20
-61.6160466513528
 10
146.57604586060324
 20
-62.09784426240894
 10
155.2339195728722
 20
-62.548817760364706
 10
164.01215327229727
 20
-62.9694541952497
 10
172.90616131266597
 20
-63.356927915182936
 10
181.91617254084295
 20
-63.720626767145006
 10
191.01246293113218
 20
-64.07252544809147
 10
194.0646618434067
 20
-64.18689783084884
 10
194.0253437050811
 20
-65.23616142213494
 10
200.1127462617577
 20
-65.46426999611153
 10
209.25845086399383
 20
-65.79133400317885
 10
218.40019901959104
 20
-66.09068802465855
 10
227.5653002908101
 20
-66.35739437275093
 10
236.77707323803588
 20
-66.6005449212722
 10
246.0288438616062
 20
-66.83044736857275
 10
255.29836974554962
 20
-67.0515153872103
 10
264.55951179765077
 20
-67.26025870699124
 10
273.80989786868065
 20
-67.4458717735508
 10
283.0790237616948
 20
-67.60428587906638
 10
292.39228176408596
 20
-67.74263680029087
 10
301.749076325977
 20
-67.8742864661994
 10
311.1265172560842
 20
-68.01313085011006
 10
320.52489150988487
 20
-68.15883096144158
 10
329.9331582538027
 20
-68.29749583809543
 10
339.36455559930005
 20
-68.426009857637
 10
348.8188955956224
 20
-68.55126766039422
 10
358.28068533925
 20
-68.67879271635275
 10
367.744745155988
 20
-68.81099461821142
 10
377.210680198356
 20
-68.94845282780334
 10
386.675593578938
 20
-69.08855448963432
 10
396.1319687496538
 20
-69.22451209181042
 10
405.5876739781338
 20
-69.35119682539748
 10
415.05182065592106
 20
-69.47330231243744
 10
424.5152388827194
 20
-69.59874653172723
 10
433.979429302188
 20
-69.73025928008603
 10
443.4457690555311
 20
-69.86655913733773
 10
452.90986287956355
 20
-70.00160044418999
 10
462.3694351789256
 20
-70.13028936809263
 10
471.8305546300506
 20
-70.25258212212758
 10
481.2907875584585
 20
-70.37168677130673
 10
490.7415573102276
 20
-70.49315153233623
 10
500.18016481495124
 20
-70.62168177592571
 10
509.6111505952111
 20
-70.75923540412789
 10
519.0398604983111
 20
-70.90542837052925
 10
528.4663782497446
 20
-71.05795853429044
 10
537.8830404443372
 20
-71.21662897931401
 10
547.2864047388207
 20
-71.38397434389489
 10
556.6804254857232
 20
-71.5638057206122
 10
566.0783903035027
 20
-71.75896431330503
 10
575.4971900001084
 20
-71.96605518387197
 10
584.9349508380831
 20
-72.17742521577685
 10
594.376747884296
 20
-72.38591360830296
 10
603.8218940061972
 20
-72.5875416890882
 10
613.2685127475465
 20
-72.78685918851264
 10
622.7065261684148
 20
-72.99191234833035
 10
632.1409015257098
 20
-73.20579664172486
 10
641.5773436748295
 20
-73.42746450122607
 10
651.0112429963849
 20
-73.64975307647077
 10
660.4332853171953
 20
-73.866308503197
 10
669.8387216028628
 20
-74.0835633092473
 10
679.2182108228017
 20
-74.31091951077018
 10
688.5825077742343
 20
-74.55382134594632
 10
697.948949679549
 20
-74.81302250933702
 10
707.3240978648182
 20
-75.0803134943654
 10
716.685473891049
 20
-75.34924393344292
 10
726.0031596842261
 20
-75.62029803969503
 10
735.2539062642608
 20
-75.90118488917142
 10
744.4383515042712
 20
-76.20549129638395
 10
753.5844987281231
 20
-76.53700636509426
 10
762.6890557605352
 20
-76.88173028442993
 10
771.7044113695293
 20
-77.24086713789426
 10
780.6250705966349
 20
-77.63925374184514
 10
789.4962300236917
 20
-78.08810308393535
 10
798.348074764685
 20
-78.57913237344246
 10
807.1647302105249
 20
-79.09050320475835
 10
815.9043247588281
 20
-79.59041679026605
 10
824.4786667606172
 20
-80.09738744392112
 10
832.8802019911108
 20
-80.6856954371867
 10
841.2507018911328
 20
-81.36860373792781
 10
849.6236021465666
 20
-82.05449476522017
 10
857.9126685150343
 20
-82.71644959777632
 10
866.0854076615044
 20
-83.43617350420793
 10
874.2176286053816
 20
-84.24846915394815
 10
882.3295454784459
 20
-85.05725771327808
 10
890.3585109150044
 20
-85.81754703218117
 10
898.2707348358472
 20
-86.62800117755101
 10
906.1391487539372
 20
-87.57470272227779
 10
914.0569670080083
 20
-88.59278593350405
 10
921.9337844012127
 20
-89.60413483309402
 10
929.6070689907065
 20
-90.62815503868642
 10
937.1151848450445
 20
-91.79096920941109
 10
944.5801766970455
 20
-93.03035503364596
 10
951.9034726944419
 20
-94.2879130464419
 10
958.9835108994282
 20
-95.516821648939
 10
965.7192427600417
 20
-96.74096375153673
 10
972.089684354866
 20
-97.94822338804133
 10
978.0656319362076
 20
-99.07781323724707
 10
983.617766957545
 20
-100.16141305284816
 10
988.7308646879894
 20
-101.18265417042227
 10
991.8908016509379
 20
-101.84765355000783
  0
LWPOLYLINE
  5
8C
330
17
100
AcDbEntity
  8
Layer
100
AcDbPolyline
 90
5
 70
0
 10
651.4637595751233
 20
15.558213624651437
 10
647.6248212781329
 20
16.68184735140602
 10
648.7484550048875
 20
20.520785648396426
 10
652.5873933018779
 20
19.397151921641843
 10
651.4637595751233
 20
15.558213624651437
  0
LWPOLYLINE
  5
8D
330
17
100
AcDbEntity
  8
Layer
100
AcDbPolyline
 90
5
 70
0
 10
276.7712798411028
 20
65.82397668574929
 10
272.7731272182406
 20
65.70242174220554
 10
272.65157227469683
 20
69.70057436506777
 10
276.64972489755905
 20
69.82212930861151
 10
276.7712798411028
 20
65.82397668574929
  0
LWPOLYLINE
  5
8E
330
17
100
AcDbEntity
  8
Layer
100
AcDbPolyline
 90
5
 70
0
 10
106.03380925771785
 20
41.279354773675465
 10
102.20829020344928
 20
40.110849760666014
 10
101.03978519043983
 20
43.93636881493457
 10
104.8653042447084
 20
45.10487382794402
 10
106.03380925771785
 20
41.279354773675465
  0
LWPOLYLINE
  5
8F
330
17
100
AcDbEntity
  8
Layer
100
AcDbPolyline
 90
5
 70
0
 10
18.494356823284864
 20
-1.3882922419115398
 10
17.011683503339764
 20
-2.7305589167280555
 10
14.327150153706736
 20
0.23478772316213892
 10
15.809823473651832
 20
1.5770543979786544
 10
18.494356823284864
 20
-1.3882922419115398
  0
LWPOLYLINE
  5
90
330
17
100
AcDbEntity
  8
Layer
100
AcDbPolyline
 90
5
 70
0
 10
8.099817908717512
 20
-34.24370244782167
 10
9.762149786581183
 20
-35.35575133516351
 10
7.538052011897493
 20
-38.680415090890854
 10
5.87572013403382
 20
-37.56836620354901
 10
8.099817908717512
 20
-34.24370244782167
  0
LWPOLYLINE
  5
91
330
17
100
AcDbEntity
  8
Layer
100
AcDbPolyline
 90
5
 70
0
 10
142.45185633023382
 20
-57.85762899625423
 10
146.4454454714095
 20
-58.08400428528524
 10
146.2190701823785
 20
-62.0775934264609
 10
142.2254810412028
 20
-61.85121813742989
 10
142.45185633023382
 20
-57.85762899625423
  0
LINE
  5
92
330
17
100
AcDbEntity
  8
Layer
100
AcDbLine
 10
973.7527066718073
 20
-92.57537031429827
 30
0.0
 11
973.5470288240022
 21
-93.03110776384813
 31
0.0
  0
LINE
  5
93
330
17
100
AcDbEntity
  8
Layer
100
AcDbLine
 10
972.2550870346524
 20
-97.47113851939348
 30
0.0
 11
972.18417921122
 21
-97.96608506254344
 31
0.0
  0
LINE
  5
94
330
17
100
AcDbEntity
  8
Layer
100
AcDbLine
 10
955.0545025053473
 20
-85.42867143930278
 30
0.0
 11
954.8623304802936
 21
-85.89026640546551
 31
0.0
  0
LINE
  5
95
330
17
100
AcDbEntity
  8
Layer
100
AcDbLine
 10
952.5792650363371
 20
-93.89776686294941
 30
0.0
 11
952.4991264051409
 21
-94.39130287965943
 31
0.0
  0
LINE
  5
96
330
17
100
AcDbEntity
  8
Layer
100
AcDbLine
 10
917.6248103355883
 20
-71.28961012037925
 30
0.0
 11
917.4403553909374
 21
-71.75434270304787
 31
0.0
  0
LINE
  5
97
330
17
100
AcDbEntity
  8
Layer
100
AcDbLine
 10
913.0187285064478
 20
-87.95535739144736
 30
0.0
 11
912.9415220264634
 21
-88.44936058925929
 31
0.0
  0
LWPOLYLINE
  5
98
330
17
100
AcDbEntity
  8
Layer
100
AcDbPolyline
 90
300
 70
1
 10
427.79387631578953
 20
0.0
 10
427.782045866326
 20
1.1253218201855006
 10
427.7465597419287
 20
2.25014672993431
 10
427.6874336122713
 20
3.373978038231396
 10
427.6046935857882
 20
4.496319492808158
 10
427.4983761981458
 20
5.616675499273455
 10
427.3685283961096
 20
6.734551339954142
 10
427.2152075168135
 20
7.8494533923484635
 10
427.03848126244173
 20
8.960889347095858
 10
426.8384276703332
 20
10.068368425366902
 10
426.6151350785223
 20
11.171401595577448
 10
426.3687020867318
 20
12.269501789331176
 10
426.0992375128334
 20
13.362184116495307
 10
425.80686034479726
 20
14.448966079314433
 10
425.49169968814994
 20
15.529367785467928
 10
425.15389470896537
 20
16.60291215997691
 10
424.79359457241276
 20
17.669125155867096
 10
424.4109583768895
 20
18.727535963494628
 10
424.00615508376785
 20
19.77767721844234
 10
423.5793634427865
 20
20.819085207894723
 10
423.1307719131193
 20
21.85130007540047
 10
422.66057858015745
 20
22.873866023932127
 10
422.1689910680403
 20
23.88633151715322
 10
421.65622644797446
 20
24.88824947880402
 10
421.1225111423812
 20
25.879177490117797
 10
420.56808082491483
 20
26.858677985180524
 10
419.99318031639564
 20
27.826318444147642
 10
419.39806347670407
 20
28.78167158423266
 10
418.78299309268334
 20
29.724315548383206
 10
418.1482407621001
 20
30.653834091561222
 10
417.4940867737145
 20
31.56981676454505
 10
416.8208199835127
 20
32.471859095172285
 10
416.1287376871559
 20
33.35956276694322
 10
415.4181454887033
 20
34.2325357949063
 10
414.68935716566585
 20
35.09039269874757
 10
413.94269453045064
 20
35.93275467300794
 10
413.178487288258
 20
36.75924975435305
 10
412.3970728914928
 20
37.569512985821746
 10
411.598796390755
 20
38.36318657798086
 10
410.7840102824748
 20
39.139920066914925
 10
409.95307435326055
 20
39.89937046898117
 10
409.10635552102667
 20
40.64120243226143
 10
408.2442276729735
 20
41.365088384644146
 10
407.3670715004888
 20
42.070708678470965
 10
406.4752743310454
 20
42.757751731684166
 10
405.56922995716815
 20
43.4259141654125
 10
404.64933846254644
 20
44.07490093793476
 10
403.7160060453682
 20
44.70442547496194
 10
402.7696448389546
 20
45.31420979618031
 10
401.81067272977316
 20
45.90398463799976
 10
400.8395131729111
 20
46.47348957245299
 10
399.85659500508956
 20
47.02247312219315
 10
398.86235225530106
 20
47.5506928715392
 10
397.85722395315497
 20
48.057915573519814
 10
396.8416539350139
 20
48.54391725286871
 10
395.8160906480084
 20
49.008483304925775
 10
394.78098695201527
 20
49.45140859040051
 10
393.7367999196873
 20
49.872497525955694
 10
392.6839906346229
 20
50.27156417057153
 10
391.6230239877645
 20
50.64843230765193
 10
390.554368472116
 20
51.002935522836836
 10
389.4784959758692
 20
51.3349172774861
 10
388.3958815740314
 20
51.64423097780253
 10
387.3070033186456
 20
51.930740039563595
 10
386.21234202769625
 20
52.1943179484332
 10
385.11238107279337
 20
52.4348483158268
 10
384.00760616572956
 20
52.65222493030535
 10
382.8985051440031
 20
52.84635180447531
 10
381.78556775540267
 20
53.017143217373935
 10
380.66928544174857
 20
53.16452375232127
 10
379.550151121886
 20
53.28842833022202
 10
378.42865897402567
 20
53.38880223830262
 10
377.30530421752866
 20
53.46560115427091
 10
376.1805828942318
 20
53.518791165887585
 10
375.0549916494093
 20
53.54834878594086
 10
373.9290275124681
 20
53.55426096261782
 10
372.803187677474
 20
53.53652508526766
 10
371.67796928360434
 20
53.49514898555455
 10
370.5538691956257
 20
53.430150933999315
 10
369.4313837844922
 20
53.34155963191178
 10
368.3110087081622
 20
53.22941419871698
 10
367.19323869272955
 20
53.0937641546812
 10
366.0785673139665
 20
52.93466939904518
 10
364.96748677937467
 20
52.7522001835743
 10
363.86048771083995
 20
52.54643708153741
 10
362.7580589279877
 20
52.31747095212789
 10
361.66068723233377
 20
52.06540290034283
 10
360.5688571923267
 20
51.790344232337894
 10
359.4830509293759
 20
51.492416406277655
 10
358.40374790496037
 20
51.171750978703095
 10
357.3314247089121
 20
50.828489546439926
 10
356.2665548489673
 20
50.46278368407343
 10
355.2096085416789
 20
50.07479487701738
 10
354.1610525047818
 20
49.66469445020667
 10
353.121349751104
 20
49.23266349244495
 10
352.0909593841125
 20
48.77889277644101
 10
351.0703363951869
 20
48.30358267456889
 10
350.0599314627073
 20
47.80694307038901
 10
349.0601907530478
 20
47.28919326596964
 10
348.07155572356197
 20
46.75056188504914
 10
347.0944629276476
 20
46.191286772082236
 10
346.1293438219771
 20
45.61161488721457
 10
345.17662457597834
 20
45.0118021972321
 10
344.23672588365014
 20
44.39211356253327
 10
343.3100627777959
 20
43.75282262017422
 10
342.3970444467564
 20
43.09421166303834
 10
341.4980740537243
 20
42.41657151518363
 10
340.6135485587179
 20
41.72020140342304
 10
339.7438585432956
 20
41.00540882519431
 10
338.88938803808526
 20
40.27250941277774
 10
338.0505143532078
 20
39.52182679392192
 10
337.22760791166706
 20
38.75369244893872
 10
336.421032085782
 20
37.96844556433105
 10
335.63114303673115
 20
37.16643288301753
 10
334.85828955728243
 20
36.34800855122066
 10
334.10281291777557
 20
35.51353396208578
 10
333.36504671542707
 20
34.66337759610003
 10
332.6453167270229
 20
33.79791485838176
 10
331.94394076506467
 20
32.917527912912156
 10
331.2612285374327
 20
32.022605513782445
 10
330.59748151062763
 20
31.11354283353098
 10
329.9529927766512
 20
30.190741288646212
 10
329.32804692358513
 20
29.254608362312432
 10
328.7229199099254
 20
28.305557424476696
 10
328.13787894272605
 20
27.344007549316274
 10
327.5731823596087
 20
26.370383330187327
 10
327.0290795146876
 20
25.38511469213634
 10
326.50581066846195
 20
24.38863670205745
 10
326.00360688172356
 20
23.38138937657908
 10
325.5226899135271
 20
22.363817487764983
 10
325.0632721232673
 20
21.336370366715457
 10
324.6255563769073
 20
20.299501705155322
 10
324.2097359573984
 20
19.253669355096513
 10
323.81599447933206
 20
18.19933512666339
 10
323.44450580786076
 20
17.13696458417052
 10
323.0954339819239
 20
16.06702684054253
 10
322.76893314181314
 20
14.98999435016702
 10
322.465147461108
 20
13.906342700272042
 10
322.1842110830133
 20
12.816550400920148
 10
321.9262480611248
 20
11.721098673711829
 10
321.69137230465105
 20
10.620471239291618
 10
321.4796875281141
 20
9.51515410375058
 10
321.29128720555207
 20
8.405635344019847
 10
321.12625452924374
 20
7.292404892349488
 10
320.98466237297305
 20
6.175954319968245
 10
320.8665732598504
 20
5.056776620019512
 10
320.77203933470355
 20
3.935365989869452
 10
320.70110234105283
 20
2.812217612883364
 10
320.6537936026775
 20
1.6878274397665596
 10
320.63013400978485
 20
0.5626919695666359
 10
320.63013400978485
 20
-0.5626919695666227
 10
320.6537936026775
 20
-1.6878274397665463
 10
320.70110234105283
 20
-2.8122176128833507
 10
320.77203933470355
 20
-3.935365989869463
 10
320.8665732598504
 20
-5.056776620019523
 10
320.98466237297305
 20
-6.175954319968231
 10
321.12625452924374
 20
-7.292404892349476
 10
321.29128720555207
 20
-8.405635344019835
 10
321.4796875281141
 20
-9.515154103750568
 10
321.69137230465105
 20
-10.620471239291605
 10
321.9262480611248
 20
-11.721098673711841
 10
322.1842110830133
 20
-12.81655040092016
 10
322.465147461108
 20
-13.90634270027203
 10
322.76893314181314
 20
-14.989994350167011
 10
323.0954339819239
 20
-16.067026840542518
 10
323.44450580786076
 20
-17.13696458417051
 10
323.81599447933206
 20
-18.199335126663374
 10
324.2097359573984
 20
-19.253669355096502
 10
324.6255563769073
 20
-20.299501705155333
 10
325.0632721232673
 20
-21.336370366715464
 10
325.5226899135271
 20
-22.363817487764976
 10
326.00360688172356
 20
-23.38138937657907
 10
326.50581066846195
 20
-24.38863670205744
 10
327.0290795146876
 20
-25.38511469213633
 10
327.5731823596087
 20
-26.370383330187316
 10
328.13787894272605
 20
-27.344007549316288
 10
328.7229199099254
 20
-28.305557424476707
 10
329.32804692358513
 20
-29.25460836231242
 10
329.9529927766512
 20
-30.1907412886462
 10
330.59748151062763
 20
-31.11354283353097
 10
331.2612285374327
 20
-32.02260551378243
 10
331.94394076506467
 20
-32.91752791291215
 10
332.6453167270229
 20
-33.79791485838176
 10
333.36504671542707
 20
-34.663377596100034
 10
334.10281291777557
 20
-35.51353396208579
 10
334.85828955728243
 20
-36.34800855122065
 10
335.63114303673115
 20
-37.16643288301752
 10
336.421032085782
 20
-37.968445564331034
 10
337.22760791166706
 20
-38.753692448938715
 10
338.0505143532078
 20
-39.52182679392191
 10
338.88938803808526
 20
-40.27250941277774
 10
339.7438585432956
 20
-41.005408825194294
 10
340.6135485587179
 20
-41.72020140342303
 10
341.4980740537243
 20
-42.41657151518362
 10
342.3970444467564
 20
-43.09421166303833
 10
343.31006277779585
 20
-43.75282262017421
 10
344.23672588365014
 20
-44.392113562533254
 10
345.17662457597834
 20
-45.01180219723209
 10
346.1293438219771
 20
-45.61161488721457
 10
347.0944629276476
 20
-46.19128677208224
 10
348.07155572356197
 20
-46.75056188504914
 10
349.06019075304783
 20
-47.289193265969644
 10
350.0599314627073
 20
-47.80694307038902
 10
351.0703363951869
 20
-48.30358267456889
 10
352.0909593841125
 20
-48.778892776441
 10
353.12134975110393
 20
-49.232663492444935
 10
354.1610525047818
 20
-49.66469445020666
 10
355.20960854167885
 20
-50.07479487701738
 10
356.2665548489673
 20
-50.46278368407342
 10
357.3314247089121
 20
-50.82848954643992
 10
358.40374790496037
 20
-51.17175097870309
 10
359.4830509293759
 20
-51.492416406277655
 10
360.5688571923267
 20
-51.790344232337894
 10
361.66068723233377
 20
-52.06540290034283
 10
362.7580589279877
 20
-52.31747095212789
 10
363.86048771083995
 20
-52.54643708153741
 10
364.96748677937467
 20
-52.7522001835743
 10
366.0785673139665
 20
-52.93466939904518
 10
367.19323869272955
 20
-53.0937641546812
 10
368.3110087081622
 20
-53.22941419871698
 10
369.4313837844922
 20
-53.34155963191178
 10
370.5538691956257
 20
-53.430150933999315
 10
371.67796928360434
 20
-53.49514898555455
 10
372.803187677474
 20
-53.53652508526766
 10
373.9290275124681
 20
-53.55426096261782
 10
375.0549916494093
 20
-53.54834878594087
 10
376.1805828942318
 20
-53.518791165887585
 10
377.30530421752866
 20
-53.46560115427091
 10
378.42865897402567
 20
-53.38880223830262
 10
379.550151121886
 20
-53.28842833022202
 10
380.6692854417486
 20
-53.16452375232127
 10
381.78556775540267
 20
-53.017143217373935
 10
382.8985051440031
 20
-52.84635180447531
 10
384.0076061657296
 20
-52.652224930305344
 10
385.11238107279337
 20
-52.434848315826805
 10
386.2123420276962
 20
-52.19431794843321
 10
387.30700331864557
 20
-51.9307400395636
 10
388.39588157403136
 20
-51.644230977802536
 10
389.4784959758692
 20
-51.334917277486106
 10
390.554368472116
 20
-51.00293552283684
 10
391.6230239877645
 20
-50.64843230765193
 10
392.6839906346229
 20
-50.27156417057153
 10
393.7367999196873
 20
-49.872497525955694
 10
394.78098695201527
 20
-49.45140859040051
 10
395.8160906480084
 20
-49.008483304925775
 10
396.8416539350139
 20
-48.5439172528687
 10
397.85722395315497
 20
-48.05791557351981
 10
398.86235225530106
 20
-47.55069287153919
 10
399.85659500508956
 20
-47.02247312219314
 10
400.8395131729111
 20
-46.473489572453005
 10
401.8106727297731
 20
-45.903984637999784
 10
402.76964483895455
 20
-45.31420979618033
 10
403.7160060453682
 20
-44.70442547496195
 10
404.6493384625464
 20
-44.07490093793477
 10
405.56922995716815
 20
-43.42591416541251
 10
406.4752743310454
 20
-42.75775173168417
 10
407.3670715004888
 20
-42.07070867847097
 10
408.2442276729735
 20
-41.365088384644146
 10
409.10635552102667
 20
-40.64120243226143
 10
409.95307435326055
 20
-39.89937046898117
 10
410.7840102824748
 20
-39.139920066914925
 10
411.598796390755
 20
-38.36318657798086
 10
412.3970728914928
 20
-37.56951298582174
 10
413.178487288258
 20
-36.759249754353036
 10
413.9426945304506
 20
-35.93275467300796
 10
414.6893571656658
 20
-35.090392698747586
 10
415.4181454887033
 20
-34.23253579490631
 10
416.1287376871559
 20
-33.35956276694323
 10
416.8208199835127
 20
-32.471859095172285
 10
417.4940867737145
 20
-31.56981676454506
 10
418.1482407621001
 20
-30.65383409156123
 10
418.78299309268334
 20
-29.724315548383206
 10
419.39806347670407
 20
-28.78167158423266
 10
419.99318031639564
 20
-27.826318444147642
 10
420.56808082491483
 20
-26.85867798518052
 10
421.1225111423812
 20
-25.879177490117794
 10
421.65622644797446
 20
-24.88824947880401
 10
422.1689910680403
 20
-23.88633151715321
 10
422.66057858015745
 20
-22.87386602393211
 10
423.13077191311925
 20
-21.851300075400495
 10
423.5793634427865
 20
-20.819085207894744
 10
424.00615508376785
 20
-19.777677218442356
 10
424.4109583768895
 20
-18.727535963494645
 10
424.79359457241276
 20
-17.669125155867114
 10
425.15389470896537
 20
-16.60291215997692
 10
425.49169968814994
 20
-15.529367785467937
 10
425.80686034479726
 20
-14.448966079314438
 10
426.0992375128334
 20
-13.36218411649531
 10
426.3687020867318
 20
-12.269501789331176
 10
426.6151350785223
 20
-11.171401595577445
 10
426.8384276703332
 20
-10.068368425366897
 10
427.03848126244173
 20
-8.960889347095849
 10
427.2152075168135
 20
-7.849453392348452
 10
427.3685283961096
 20
-6.734551339954127
 10
427.4983761981458
 20
-5.616675499273484
 10
427.6046935857882
 20
-4.496319492808183
 10
427.6874336122713
 20
-3.373978038231419
 10
427.7465597419287
 20
-2.2501467299343294
 10
427.782045866326
 20
-1.125321820185517
 10
427.79387631578953
 20
-1.3117191865667299e-14
  0
LINE
  5
99
330
17
100
AcDbEntity
  8
Layer
100
AcDbLine
 10
712.7774662891846
 20
-4.1462491933553236e-14
 30
0.0
 11
716.7774662891846
 21
-4.195235065321218e-14
 31
0.0
  0
LINE
  5
9A
330
17
100
AcDbEntity
  8
Layer
100
AcDbLine
 10
16.07588287223632
 20
4.3858844475692607e-14
 30
0.0
 11
12.07588287223632
 21
4.434870319535155e-14
 31
0.0
  0
LINE
  5
9B
330
17
100
AcDbEntity
  8
Layer
100
AcDbLine
 10
159.71619955562602
 20
2.6267979070210074e-14
 30
0.0
 11
148.71619955562602
 21
2.761509054927216e-14
 31
0.0
  0
LWPOLYLINE
  5
9C
330
17
100
AcDbEntity
  8
Layer
100
AcDbPolyline
 90
5
 70
0
 10
149.21619955562602
 20
-4.9999999999999725
 10
149.21619955562602
 20
5.0000000000000275
 10
159.21619955562602
 20
5.000000000000027
 10
159.21619955562602
 20
-4.999999999999973
 10
149.21619955562602
 20
-4.9999999999999725
  0
LINE
  5
9D
330
17
100
AcDbEntity
  8
Layer
100
AcDbLine
 10
369.9266745807105
 20
5.24620531538641e-16
 30
0.0
 11
358.9266745807105
 21
1.871732010600729e-15
 31
0.0
  0
LWPOLYLINE
  5
9E
330
17
100
AcDbEntity
  8
Layer
100
AcDbPolyline
 90
5
 70
0
 10
359.4266745807105
 20
-4.999999999999998
 10
359.4266745807105
 20
5.000000000000002
 10
369.4266745807105
 20
5.000000000000001
 10
369.4266745807105
 20
-4.999999999999999
 10
359.4266745807105
 20
-4.999999999999998
  0
LINE
  5
9F
330
17
100
AcDbEntity
  8
Layer
100
AcDbLine
 10
580.137149605795
 20
-2.5218738007132797e-14
 30
0.0
 11
569.137149605795
 21
-2.387162652807071e-14
 31
0.0
  0
LWPOLYLINE
  5
A0
330
17
100
AcDbEntity
  8
Layer
100
AcDbPolyline
 90
5
 70
0
 10
569.637149605795
 20
-5.000000000000024
 10
569.637149605795
 20
4.999999999999976
 10
579.637149605795
 20
4.999999999999975
 10
579.637149605795
 20
-5.000000000000025
 10
569.637149605795
 20
-5.000000000000024
  0
LINE
  5
A1
330
17
100
AcDbEntity
  8
Layer
100
AcDbLine
 10
0.5207486404773931
 20
-24.51360661010379
 30
0.0
 11
-3.46746236843029
 21
-24.206730497596514
 31
0.0
  0
LINE
  5
A2
330
17
100
AcDbEntity
  8
Layer
100
AcDbLine
 10
631.8616525106772
 20
-73.09264162449743
 30
0.0
 11
635.8498635195849
 21
-73.3995177370047
 31
0.0
  0
LINE
  5
A3
330
17
100
AcDbEntity
  8
Layer
100
AcDbLine
 10
981.6015546581284
 20
-100.00366045473737
 30
0.0
 11
985.5897656670361
 21
-100.31053656724464
 31
0.0
  0
LINE
  5
A4
330
17
100
AcDbEntity
  8
Layer
100
AcDbLine
 10
374.21052631578954
 20
53.55499999999999
 30
0.0
 11
374.21052631578954
 21
54.05499999999999
 31
0.0
  0
LINE
  5
A5
330
17
100
AcDbEntity
  8
Layer
100
AcDbLine
 10
374.21052631578954
 20
-53.55499999999999
 30
0.0
 11
374.21052631578954
 21
-54.05499999999999
 31
0.0
  0
LINE
  5
A6
330
17
100
AcDbEntity
  8
Layer
100
AcDbLine
 10
427.79387631578953
 20
0.0
 30
0.0
 11
428.29387631578953
 21
0.0
 31
0.0
  0
LINE
  5
A7
330
17
100
AcDbEntity
  8
Layer
100
AcDbLine
 10
320.62717631578954
 20
0.0
 30
0.0
 11
320.12717631578954
 21
0.0
 31
0.0
  0
LINE
  5
A8
330
17
100
AcDbEntity
  8
Layer
100
AcDbLine
 10
224.21052631578954
 20
64.60644443627749
 30
0.0
 11
224.21052631578954
 21
68.60644443627749
 31
0.0
  0
LINE
  5
A9
330
17
100
AcDbEntity
  8
Layer
100
AcDbLine
 10
224.21052631578954
 20
-64.2597697542033
 30
0.0
 11
224.21052631578954
 21
-68.2597697542033
 31
0.0
  0
LINE
  5
AA
330
17
100
AcDbEntity
  8
Layer
100
AcDbLine
 10
224.21052631578954
 20
-34.18652691610715
 30
0.0
 11
224.21052631578954
 21
-45.18652691610715
 31
0.0
  0
LWPOLYLINE
  5
AB
330
17
100
AcDbEntity
  8
Layer
100
AcDbPolyline
 90
5
 70
0
 10
229.21052631578954
 20
-44.68652691610715
 10
219.21052631578954
 20
-44.68652691610715
 10
219.21052631578954
 20
-34.68652691610715
 10
229.21052631578954
 20
-34.68652691610715
 10
229.21052631578954
 20
-44.68652691610715
  0
LINE
  5
AC
330
17
100
AcDbEntity
  8
Layer
100
AcDbLine
 10
224.21052631578954
 20
5.67333734103709
 30
0.0
 11
224.21052631578954
 21
-5.32666265896291
 31
0.0
  0
LWPOLYLINE
  5
AD
330
17
100
AcDbEntity
  8
Layer
100
AcDbPolyline
 90
5
 70
0
 10
229.21052631578954
 20
-4.82666265896291
 10
219.21052631578954
 20
-4.82666265896291
 10
219.21052631578954
 20
5.17333734103709
 10
229.21052631578954
 20
5.17333734103709
 10
229.21052631578954
 20
-4.82666265896291
  0
LINE
  5
AE
330
17
100
AcDbEntity
  8
Layer
100
AcDbLine
 10
224.21052631578954
 20
45.533201598181336
 30
0.0
 11
224.21052631578954
 21
34.533201598181336
 31
0.0
  0
LWPOLYLINE
  5
AF
330
17
100
AcDbEntity
  8
Layer
100
AcDbPolyline
 90
5
 70
0
 10
229.21052631578954
 20
35.033201598181336
 10
219.21052631578954
 20
35.033201598181336
 10
219.21052631578954
 20
45.033201598181336
 10
229.21052631578954
 20
45.033201598181336
 10
229.21052631578954
 20
35.033201598181336
  0
LINE
  5
B0
330
17
100
AcDbEntity
  8
Layer
100
AcDbLine
 10
474.21052631578954
 20
55.83842626885552
 30
0.0
 11
474.21052631578954
 21
59.83842626885552
 31
0.0
  0
LINE
  5
B1
330
17
100
AcDbEntity
  8
Layer
100
AcDbLine
 10
474.21052631578954
 20
-68.28254604530277
 30
0.0
 11
474.21052631578954
 21
-72.28254604530277
 31
0.0
  0
LINE
  5
B2
330
17
100
AcDbEntity
  8
Layer
100
AcDbLine
 10
474.21052631578954
 20
-39.15835158247111
 30
0.0
 11
474.21052631578954
 21
-50.15835158247111
 31
0.0
  0
LWPOLYLINE
  5
B3
330
17
100
AcDbEntity
  8
Layer
100
AcDbPolyline
 90
5
 70
0
 10
479.21052631578954
 20
-49.65835158247111
 10
469.21052631578954
 20
-49.65835158247111
 10
469.21052631578954
 20
-39.65835158247111
 10
479.21052631578954
 20
-39.65835158247111
 10
479.21052631578954
 20
-49.65835158247111
  0
LINE
  5
B4
330
17
100
AcDbEntity
  8
Layer
100
AcDbLine
 10
474.21052631578954
 20
-0.7220598882236224
 30
0.0
 11
474.21052631578954
 21
-11.722059888223622
 31
0.0
  0
LWPOLYLINE
  5
B5
330
17
100
AcDbEntity
  8
Layer
100
AcDbPolyline
 90
5
 70
0
 10
479.21052631578954
 20
-11.222059888223622
 10
469.21052631578954
 20
-11.222059888223622
 10
469.21052631578954
 20
-1.2220598882236224
 10
479.21052631578954
 20
-1.2220598882236224
 10
479.21052631578954
 20
-11.222059888223622
  0
LINE
  5
B6
330
17
100
AcDbEntity
  8
Layer
100
AcDbLine
 10
474.21052631578954
 20
37.71423180602386
 30
0.0
 11
474.21052631578954
 21
26.71423180602386
 31
0.0
  0
LWPOLYLINE
  5
B7
330
17
100
AcDbEntity
  8
Layer
100
AcDbPolyline
 90
5
 70
0
 10
479.21052631578954
 20
27.21423180602386
 10
469.21052631578954
 20
27.21423180602386
 10
469.21052631578954
 20
37.21423180602386
 10
479.21052631578954
 20
37.21423180602386
 10
479.21052631578954
 20
27.21423180602386
  0
ENDSEC
  0
SECTION
  2
OBJECTS
  0
DICTIONARY
  5
A
330
0
100
AcDbDictionary
280
0
281
1
  3
ACAD_COLOR
350
B
  3
ACAD_GROUP
350
C
  3
ACAD_LAYOUT
350
D
  3
ACAD_MATERIAL
350
E
  3
ACAD_MLEADERSTYLE
350
F
  3
ACAD_MLINESTYLE
350
10
  3
ACAD_PLOTSETTINGS
350
11
  3
ACAD_PLOTSTYLENAME
350
12
  3
ACAD_SCALELIST
350
14
  3
ACAD_TABLESTYLE
350
15
  3
ACAD_VISUALSTYLE
350
16
  3
EZDXF_META
350
2D
  0
DICTIONARY
  5
B
330
A
100
AcDbDictionary
280
0
281
1
  0
DICTIONARY
  5
C
330
A
100
AcDbDictionary
280
0
281
1
  0
DICTIONARY
  5
D
330
A
100
AcDbDictionary
280
0
281
1
  3
Model
350
1A
  3
Layout1
350
1E
  0
DICTIONARY
  5
E
330
A
100
AcDbDictionary
280
0
281
1
  3
ByBlock
350
1F
  3
ByLayer
350
20
  3
Global
350
21
  0
DICTIONARY
  5
F
330
A
100
AcDbDictionary
280
0
281
1
  3
Standard
350
2C
  0
DICTIONARY
  5
10
330
A
100
AcDbDictionary
280
0
281
1
  3
Standard
350
22
  0
DICTIONARY
  5
11
330
A
100
AcDbDictionary
280
0
281
1
  0
ACDBDICTIONARYWDFLT
  5
12
330
A
100
AcDbDictionary
280
0
281
1
  3
Normal
350
13
100
AcDbDictionaryWithDefault
340
13
  0
ACDBPLACEHOLDER
  5
13
330
12
  0
DICTIONARY
  5
14
330
A
100
AcDbDictionary
280
0
281
1
  0
DICTIONARY
  5
15
330
A
100
AcDbDictionary
280
0
281
1
  0
DICTIONARY
  5
16
330
A
100
AcDbDictionary
280
0
281
1
  3
2dWireframe
350
5A
  3
Basic
350
5B
  3
Brighten
350
5C
  3
ColorChange
350
5D
  3
Conceptual
350
5E
  3
Dim
350
5F
  3
EdgeColorOff
350
60
  3
Facepattern
350
61
  3
Flat
350
62
  3
FlatWithEdges
350
63
  3
Gouraud
350
64
  3
GouraudWithEdges
350
65
  3
Hidden
350
66
  3
JitterOff
350
67
  3
Linepattern
350
68
  3
Modeling
350
69
  3
OverhangOff
350
6A
  3
Realistic
350
6B
  3
Shaded
350
6C
  3
Shaded with edges
350
6D
  3
Shades of Gray
350
6E
  3
Sketchy
350
6F
  3
Thicken
350
70
  3
Wireframe
350
71
  3
X-Ray
350
72
  0
LAYOUT
  5
1A
330
D
100
AcDbPlotSettings
  1

  2
Adobe PDF
  4
A3
  6

 40
7.5
 41
20.0
 42
7.5
 43
20.0
 44
420.0
 45
297.0
 46
0.0
 47
0.0
 48
0.0
 49
0.0
140
0.0
141
0.0
142
1.0
143
1.0
 70
1024
 72
1
 73
0
 74
5
  7

 75
16
 76
0
 77
2
 78
300
147
1.0
148
0.0
149
0.0
100
AcDbLayout
  1
Model
 70
1
 71
0
 10
0.0
 20
0.0
 11
420.0
 21
297.0
 12
0.0
 22
0.0
 32
0.0
 14
1e+20
 24
1e+20
 34
1e+20
 15
-1e+20
 25
-1e+20
 35
-1e+20
146
0.0
 13
0.0
 23
0.0
 33
0.0
 16
1.0
 26
0.0
 36
0.0
 17
0.0
 27
1.0
 37
0.0
 76
1
330
17
  0
LAYOUT
  5
1E
330
D
100
AcDbPlotSettings
  1

  2
Adobe PDF
  4
A3
  6

 40
7.5
 41
20.0
 42
7.5
 43
20.0
 44
420.0
 45
297.0
 46
0.0
 47
0.0
 48
0.0
 49
0.0
140
0.0
141
0.0
142
1.0
143
1.0
 70
0
 72
1
 73
0
 74
5
  7

 75
16
 76
0
 77
2
 78
300
147
1.0
148
0.0
149
0.0
100
AcDbLayout
  1
Layout1
 70
1
 71
1
 10
0.0
 20
0.0
 11
420.0
 21
297.0
 12
0.0
 22
0.0
 32
0.0
 14
1e+20
 24
1e+20
 34
1e+20
 15
-1e+20
 25
-1e+20
 35
-1e+20
146
0.0
 13
0.0
 23
0.0
 33
0.0
 16
1.0
 26
0.0
 36
0.0
 17
0.0
 27
1.0
 37
0.0
 76
1
330
1B
  0
MATERIAL
  5
1F
102
{ACAD_REACTORS
330
E
102
}
330
E
100
AcDbMaterial
  1
ByBlock
  2

 70
0
 40
1.0
 71
1
 41
1.0
 91
-1023410177
 42
1.0
 72
1
  3

 73
1
 74
1
 75
1
 44
0.5
 73
0
 45
1.0
 46
1.0
 77
1
  4

 78
1
 79
1
170
1
 48
1.0
171
1
  6

172
1
173
1
174
1
140
1.0
141
1.0
175
1
  7

176
1
177
1
178
1
143
1.0
179
1
  8

270
1
271
1
272
1
145
1.0
146
1.0
273
1
  9

274
1
275
1
276
1
 42
1.0
 72
1
  3

 73
1
 74
1
 75
1
 94
63
  0
MATERIAL
  5
20
102
{ACAD_REACTORS
330
E
102
}
330
E
100
AcDbMaterial
  1
ByLayer
  2

 70
0
 40
1.0
 71
1
 41
1.0
 91
-1023410177
 42
1.0
 72
1
  3

 73
1
 74
1
 75
1
 44
0.5
 73
0
 45
1.0
 46
1.0
 77
1
  4

 78
1
 79
1
170
1
 48
1.0
171
1
  6

172
1
173
1
174
1
140
1.0
141
1.0
175
1
  7

176
1
177
1
178
1
143
1.0
179
1
  8

270
1
271
1
272
1
145
1.0
146
1.0
273
1
  9

274
1
275
1
276
1
 42
1.0
 72
1
  3

 73
1
 74
1
 75
1
 94
63
  0
MATERIAL
  5
21
102
{ACAD_REACTORS
330
E
102
}
330
E
100
AcDbMaterial
  1
Global
  2

 70
0
 40
1.0
 71
1
 41
1.0
 91
-1023410177
 42
1.0
 72
1
  3

 73
1
 74
1
 75
1
 44
0.5
 73
0
 45
1.0
 46
1.0
 77
1
  4

 78
1
 79
1
170
1
 48
1.0
171
1
  6

172
1
173
1
174
1
140
1.0
141
1.0
175
1
  7

176
1
177
1
178
1
143
1.0
179
1
  8

270
1
271
1
272
1
145
1.0
146
1.0
273
1
  9

274
1
275
1
276
1
 42
1.0
 72
1
  3

 73
1
 74
1
 75
1
 94
63
  0
MLINESTYLE
  5
22
102
{ACAD_REACTORS
330
10
102
}
330
10
100
AcDbMlineStyle
  2
Standard
 70
0
  3

 62
256
 51
90.0
 52
90.0
 71
2
 49
0.5
 62
256
  6
BYLAYER
 49
-0.5
 62
256
  6
BYLAYER
  0
MLEADERSTYLE
  5
2C
102
{ACAD_REACTORS
330
F
102
}
330
F
100
AcDbMLeaderStyle
179
2
170
2
171
1
172
0
 90
2
 40
0.0
 41
0.0
173
1
 91
-1056964608
 92
-2
290
1
 42
2.0
291
1
 43
8.0
  3
Standard
 44
4.0
300

342
29
174
1
175
1
176
0
178
1
 93
-1056964608
 45
4.0
292
0
297
0
 46
4.0
 94
-1056964608
 47
1.0
 49
1.0
140
1.0
294
1
141
0.0
177
0
142
1.0
295
0
296
0
143
3.75
271
0
272
9
273
9
  0
DICTIONARY
  5
2D
330
A
100
AcDbDictionary
281
1
  3
CREATED_BY_EZDXF
350
2E
  3
WRITTEN_BY_EZDXF
350
BA
  0
DICTIONARYVAR
  5
2E
330
2D
100
DictionaryVariables
280
0
  1
1.1.0 @ 2024-03-25T20:08:49.775531+00:00
  0
VISUALSTYLE
  5
5A
102
{ACAD_REACTORS
330
16
102
}
330
16
100
AcDbVisualStyle
  2
2dWireframe
 70
4
 90
0
 40
0.6
 62
7
290
0
291
0
  0
VISUALSTYLE
  5
5B
102
{ACAD_REACTORS
330
16
102
}
330
16
100
AcDbVisualStyle
  2
Basic
 70
7
 90
1
 40
0.6
 62
7
290
0
291
1
  0
VISUALSTYLE
  5
5C
102
{ACAD_REACTORS
330
16
102
}
330
16
100
AcDbVisualStyle
  2
Brighten
 70
12
 90
2
 40
0.6
 62
7
290
0
291
1
  0
VISUALSTYLE
  5
5D
102
{ACAD_REACTORS
330
16
102
}
330
16
100
AcDbVisualStyle
  2
ColorChange
 70
16
 90
2
 40
0.6
 62
8
290
0
291
1
  0
VISUALSTYLE
  5
5E
102
{ACAD_REACTORS
330
16
102
}
330
16
100
AcDbVisualStyle
  2
Conceptual
 70
9
 90
3
 40
0.6
 62
7
290
0
291
0
  0
VISUALSTYLE
  5
5F
102
{ACAD_REACTORS
330
16
102
}
330
16
100
AcDbVisualStyle
  2
Dim
 70
11
 90
2
 40
0.6
 62
7
290
0
291
1
  0
VISUALSTYLE
  5
60
102
{ACAD_REACTORS
330
16
102
}
330
16
100
AcDbVisualStyle
  2
EdgeColorOff
 70
22
 90
2
 40
0.6
 62
7
290
0
291
1
  0
VISUALSTYLE
  5
61
102
{ACAD_REACTORS
330
16
102
}
330
16
100
AcDbVisualStyle
  2
Facepattern
 70
15
 90
2
 40
0.6
 62
7
290
0
291
1
  0
VISUALSTYLE
  5
62
102
{ACAD_REACTORS
330
16
102
}
330
16
100
AcDbVisualStyle
  2
Flat
 70
0
 90
2
 40
0.6
 62
7
290
0
291
1
  0
VISUALSTYLE
  5
63
102
{ACAD_REACTORS
330
16
102
}
330
16
100
AcDbVisualStyle
  2
FlatWithEdges
 70
1
 90
2
 40
0.6
 62
7
290
0
291
1
  0
VISUALSTYLE
  5
64
102
{ACAD_REACTORS
330
16
102
}
330
16
100
AcDbVisualStyle
  2
Gouraud
 70
2
 90
2
 40
0.6
 62
7
290
0
291
1
  0
VISUALSTYLE
  5
65
102
{ACAD_REACTORS
330
16
102
}
330
16
100
AcDbVisualStyle
  2
GouraudWithEdges
 70
3
 90
2
 40
0.6
 62
7
290
0
291
1
  0
VISUALSTYLE
  5
66
102
{ACAD_REACTORS
330
16
102
}
330
16
100
AcDbVisualStyle
  2
Hidden
 70
6
 90
1
 40
0.6
 62
7
290
0
291
0
  0
VISUALSTYLE
  5
67
102
{ACAD_REACTORS
330
16
102
}
330
16
100
AcDbVisualStyle
  2
JitterOff
 70
20
 90
2
 40
0.6
 62
7
290
0
291
1
  0
VISUALSTYLE
  5
68
102
{ACAD_REACTORS
330
16
102
}
330
16
100
AcDbVisualStyle
  2
Linepattern
 70
14
 90
2
 40
0.6
 62
7
290
0
291
1
  0
VISUALSTYLE
  5
69
102
{ACAD_REACTORS
330
16
102
}
330
16
100
AcDbVisualStyle
  2
Modeling
 70
10
 90
2
 40
0.6
 62
7
290
0
291
0
  0
VISUALSTYLE
  5
6A
102
{ACAD_REACTORS
330
16
102
}
330
16
100
AcDbVisualStyle
  2
OverhangOff
 70
21
 90
2
 40
0.6
 62
7
290
0
291
1
  0
VISUALSTYLE
  5
6B
102
{ACAD_REACTORS
330
16
102
}
330
16
100
AcDbVisualStyle
  2
Realistic
 70
8
 90
2
 40
0.6
 62
7
290
0
291
0
  0
VISUALSTYLE
  5
6C
102
{ACAD_REACTORS
330
16
102
}
330
16
100
AcDbVisualStyle
  2
Shaded
 70
27
 90
2
 40
0.6
 62
7
290
0
291
0
  0
VISUALSTYLE
  5
6D
102
{ACAD_REACTORS
330
16
102
}
330
16
100
AcDbVisualStyle
  2
Shaded with edges
 70
26
 90
2
 40
0.6
 62
7
290
0
291
0
  0
VISUALSTYLE
  5
6E
102
{ACAD_REACTORS
330
16
102
}
330
16
100
AcDbVisualStyle
  2
Shades of Gray
 70
23
 90
2
 40
0.6
 62
7
290
0
291
0
  0
VISUALSTYLE
  5
6F
102
{ACAD_REACTORS
330
16
102
}
330
16
100
AcDbVisualStyle
  2
Sketchy
 70
24
 90
1
 40
0.6
 62
7
290
0
291
0
  0
VISUALSTYLE
  5
70
102
{ACAD_REACTORS
330
16
102
}
330
16
100
AcDbVisualStyle
  2
Thicken
 70
13
 90
2
 40
0.6
 62
7
290
0
291
1
  0
VISUALSTYLE
  5
71
102
{ACAD_REACTORS
330
16
102
}
330
16
100
AcDbVisualStyle
  2
Wireframe
 70
5
 90
0
 40
0.6
 62
7
290
0
291
0
  0
VISUALSTYLE
  5
72
102
{ACAD_REACTORS
330
16
102
}
330
16
100
AcDbVisualStyle
  2
X-Ray
 70
25
 90
2
 40
0.5
 62
7
290
0
291
0
  0
DICTIONARYVAR
  5
BA
330
2D
100
DictionaryVariables
280
0
  1
1.1.0 @ 2024-03-25T20:08:49.831243+00:00
  0
ENDSEC
  0
EOF
