  0
SECTION
  2
HEADER
  9
$ACADVER
  1
AC1021
  9
$ACADMAINTVER
 70
25
  9
$DWGCODEPAGE
  3
ANSI_1252
  9
$LASTSAVEDBY
  1
ezdxf
  9
$INSBASE
 10
0.0
 20
0.0
 30
0.0
  9
$EXTMIN
 10
1e+20
 20
1e+20
 30
1e+20
  9
$EXTMAX
 10
-1e+20
 20
-1e+20
 30
-1e+20
  9
$LIMMIN
 10
0.0
 20
0.0
  9
$LIMMAX
 10
420.0
 20
297.0
  9
$ORTHOMODE
 70
0
  9
$REGENMODE
 70
1
  9
$FILLMODE
 70
1
  9
$QTEXTMODE
 70
0
  9
$MIRRTEXT
 70
1
  9
$LTSCALE
 40
1.0
  9
$ATTMODE
 70
1
  9
$TEXTSIZE
 40
2.5
  9
$TRACEWID
 40
1.0
  9
$TEXTSTYLE
  7
OpenSans
  9
$CLAYER
  8
0
  9
$CELTYPE
  6
ByLayer
  9
$CECOLOR
 62
256
  9
$CELTSCALE
 40
1.0
  9
$DISPSILH
 70
0
  9
$DIMSCALE
 40
1.0
  9
$DIMASZ
 40
0.175
  9
$DIMEXO
 40
0.125
  9
$DIMDLI
 40
3.75
  9
$DIMRND
 40
0.0
  9
$DIMDLE
 40
0.0
  9
$DIMEXE
 40
0.375
  9
$DIMTP
 40
0.0
  9
$DIMTM
 40
0.0
  9
$DIMTXT
 40
0.25
  9
$DIMCEN
 40
2.5
  9
$DIMTSZ
 40
0.0
  9
$DIMTOL
 70
0
  9
$DIMLIM
 70
0
  9
$DIMTIH
 70
0
  9
$DIMTOH
 70
0
  9
$DIMSE1
 70
0
  9
$DIMSE2
 70
0
  9
$DIMTAD
 70
1
  9
$DIMZIN
 70
12
  9
$DIMBLK
  1
ARCHTICK
  9
$DIMASO
 70
1
  9
$DIMSHO
 70
1
  9
$DIMPOST
  1

  9
$DIMAPOST
  1

  9
$DIMALT
 70
0
  9
$DIMALTD
 70
3
  9
$DIMALTF
 40
0.03937007874
  9
$DIMLFAC
 40
100.0
  9
$DIMTOFL
 70
1
  9
$DIMTVP
 40
0.0
  9
$DIMTIX
 70
0
  9
$DIMSOXD
 70
0
  9
$DIMSAH
 70
0
  9
$DIMBLK1
  1

  9
$DIMBLK2
  1

  9
$DIMSTYLE
  2
EZDXF
  9
$DIMCLRD
 70
0
  9
$DIMCLRE
 70
0
  9
$DIMCLRT
 70
0
  9
$DIMTFAC
 40
0.5
  9
$DIMGAP
 40
0.1
  9
$DIMJUST
 70
0
  9
$DIMSD1
 70
0
  9
$DIMSD2
 70
0
  9
$DIMTOLJ
 70
0
  9
$DIMTZIN
 70
8
  9
$DIMALTZ
 70
0
  9
$DIMALTTZ
 70
0
  9
$DIMUPT
 70
1
  9
$DIMDEC
 70
2
  9
$DIMTDEC
 70
2
  9
$DIMALTU
 70
2
  9
$DIMALTTD
 70
3
  9
$DIMTXSTY
  7
OpenSansCondensed-Light
  9
$DIMAUNIT
 70
0
  9
$DIMADEC
 70
2
  9
$DIMALTRND
 40
0.0
  9
$DIMAZIN
 70
3
  9
$DIMDSEP
 70
46
  9
$DIMATFIT
 70
3
  9
$DIMFRAC
 70
0
  9
$DIMLDRBLK
  1

  9
$DIMLUNIT
 70
2
  9
$DIMLWD
 70
-2
  9
$DIMLWE
 70
-2
  9
$DIMTMOVE
 70
2
  9
$DIMFXL
 40
1.0
  9
$DIMFXLON
 70
0
  9
$DIMJOGANG
 40
0.785398163397
  9
$DIMTFILL
 70
0
  9
$DIMTFILLCLR
 70
0
  9
$DIMARCSYM
 70
0
  9
$DIMLTYPE
  6

  9
$DIMLTEX1
  6

  9
$DIMLTEX2
  6

  9
$LUNITS
 70
2
  9
$LUPREC
 70
4
  9
$SKETCHINC
 40
1.0
  9
$FILLETRAD
 40
10.0
  9
$AUNITS
 70
0
  9
$AUPREC
 70
2
  9
$MENU
  1
.
  9
$ELEVATION
 40
0.0
  9
$PELEVATION
 40
0.0
  9
$THICKNESS
 40
0.0
  9
$LIMCHECK
 70
0
  9
$CHAMFERA
 40
0.0
  9
$CHAMFERB
 40
0.0
  9
$CHAMFERC
 40
0.0
  9
$CHAMFERD
 40
0.0
  9
$SKPOLY
 70
0
  9
$TDCREATE
 40
2460396.2144675925
  9
$TDUCREATE
 40
2458532.153996898
  9
$TDUPDATE
 40
2460396.2144675925
  9
$TDUUPDATE
 40
2458532.1544311
  9
$TDINDWG
 40
0.0
  9
$TDUSRTIMER
 40
0.0
  9
$USRTIMER
 70
1
  9
$ANGBASE
 50
0.0
  9
$ANGDIR
 70
0
  9
$PDMODE
 70
0
  9
$PDSIZE
 40
0.0
  9
$PLINEWID
 40
0.0
  9
$SPLFRAME
 70
0
  9
$SPLINETYPE
 70
6
  9
$SPLINESEGS
 70
8
  9
$HANDSEED
  5
BB
  9
$SURFTAB1
 70
6
  9
$SURFTAB2
 70
6
  9
$SURFTYPE
 70
6
  9
$SURFU
 70
6
  9
$SURFV
 70
6
  9
$UCSBASE
  2

  9
$UCSNAME
  2

  9
$UCSORG
 10
0.0
 20
0.0
 30
0.0
  9
$UCSXDIR
 10
1.0
 20
0.0
 30
0.0
  9
$UCSYDIR
 10
0.0
 20
1.0
 30
0.0
  9
$UCSORTHOREF
  2

  9
$UCSORTHOVIEW
 70
0
  9
$UCSORGTOP
 10
0.0
 20
0.0
 30
0.0
  9
$UCSORGBOTTOM
 10
0.0
 20
0.0
 30
0.0
  9
$UCSORGLEFT
 10
0.0
 20
0.0
 30
0.0
  9
$UCSORGRIGHT
 10
0.0
 20
0.0
 30
0.0
  9
$UCSORGFRONT
 10
0.0
 20
0.0
 30
0.0
  9
$UCSORGBACK
 10
0.0
 20
0.0
 30
0.0
  9
$PUCSBASE
  2

  9
$PUCSNAME
  2

  9
$PUCSORG
 10
0.0
 20
0.0
 30
0.0
  9
$PUCSXDIR
 10
1.0
 20
0.0
 30
0.0
  9
$PUCSYDIR
 10
0.0
 20
1.0
 30
0.0
  9
$PUCSORTHOREF
  2

  9
$PUCSORTHOVIEW
 70
0
  9
$PUCSORGTOP
 10
0.0
 20
0.0
 30
0.0
  9
$PUCSORGBOTTOM
 10
0.0
 20
0.0
 30
0.0
  9
$PUCSORGLEFT
 10
0.0
 20
0.0
 30
0.0
  9
$PUCSORGRIGHT
 10
0.0
 20
0.0
 30
0.0
  9
$PUCSORGFRONT
 10
0.0
 20
0.0
 30
0.0
  9
$PUCSORGBACK
 10
0.0
 20
0.0
 30
0.0
  9
$USERI1
 70
0
  9
$USERI2
 70
0
  9
$USERI3
 70
0
  9
$USERI4
 70
0
  9
$USERI5
 70
0
  9
$USERR1
 40
0.0
  9
$USERR2
 40
0.0
  9
$USERR3
 40
0.0
  9
$USERR4
 40
0.0
  9
$USERR5
 40
0.0
  9
$WORLDVIEW
 70
1
  9
$SHADEDGE
 70
3
  9
$SHADEDIF
 70
70
  9
$TILEMODE
 70
1
  9
$MAXACTVP
 70
64
  9
$PINSBASE
 10
0.0
 20
0.0
 30
0.0
  9
$PLIMCHECK
 70
0
  9
$PEXTMIN
 10
1e+20
 20
1e+20
 30
1e+20
  9
$PEXTMAX
 10
-1e+20
 20
-1e+20
 30
-1e+20
  9
$PLIMMIN
 10
0.0
 20
0.0
  9
$PLIMMAX
 10
420.0
 20
297.0
  9
$UNITMODE
 70
0
  9
$VISRETAIN
 70
1
  9
$PLINEGEN
 70
0
  9
$PSLTSCALE
 70
1
  9
$TREEDEPTH
 70
3020
  9
$CMLSTYLE
  2
Standard
  9
$CMLJUST
 70
0
  9
$CMLSCALE
 40
20.0
  9
$PROXYGRAPHICS
 70
1
  9
$MEASUREMENT
 70
1
  9
$CELWEIGHT
370
-1
  9
$ENDCAPS
280
0
  9
$JOINSTYLE
280
0
  9
$LWDISPLAY
290
0
  9
$INSUNITS
 70
6
  9
$HYPERLINKBASE
  1

  9
$STYLESHEET
  1

  9
$XEDIT
290
1
  9
$CEPSNTYPE
380
0
  9
$PSTYLEMODE
290
1
  9
$FINGERPRINTGUID
  2
{F5F53DD3-5CC3-4B8B-A764-613B03130F5D}
  9
$VERSIONGUID
  2
{36067EBC-EF80-41D8-8BF9-DD1FE5A0E68C}
  9
$EXTNAMES
290
1
  9
$PSVPSCALE
 40
0.0
  9
$OLESTARTUP
290
0
  9
$SORTENTS
280
127
  9
$INDEXCTL
280
0
  9
$HIDETEXT
280
1
  9
$XCLIPFRAME
290
0
  9
$HALOGAP
280
0
  9
$OBSCOLOR
 70
257
  9
$OBSLTYPE
280
0
  9
$INTERSECTIONDISPLAY
280
0
  9
$INTERSECTIONCOLOR
 70
257
  9
$DIMASSOC
280
2
  9
$PROJECTNAME
  1

  9
$CAMERADISPLAY
290
0
  9
$LENSLENGTH
 40
50.0
  9
$CAMERAHEIGHT
 40
0.0
  9
$STEPSPERSEC
 40
24.0
  9
$STEPSIZE
 40
100.0
  9
$3DDWFPREC
 40
2.0
  9
$PSOLWIDTH
 40
0.005
  9
$PSOLHEIGHT
 40
0.08
  9
$LOFTANG1
 40
1.570796326795
  9
$LOFTANG2
 40
1.570796326795
  9
$LOFTMAG1
 40
0.0
  9
$LOFTMAG2
 40
0.0
  9
$LOFTPARAM
 70
7
  9
$LOFTNORMALS
280
1
  9
$LATITUDE
 40
37.795
  9
$LONGITUDE
 40
-122.394
  9
$NORTHDIRECTION
 40
0.0
  9
$TIMEZONE
 70
-8000
  9
$LIGHTGLYPHDISPLAY
280
1
  9
$TILEMODELIGHTSYNCH
280
1
  9
$CMATERIAL
347
20
  9
$SOLIDHIST
280
0
  9
$SHOWHIST
280
1
  9
$DWFFRAME
280
2
  9
$DGNFRAME
280
2
  9
$REALWORLDSCALE
290
1
  9
$INTERFERECOLOR
 62
256
  9
$CSHADOW
280
0
  9
$SHADOWPLANELOCATION
 40
0.0
  0
ENDSEC
  0
SECTION
  2
CLASSES
  0
CLASS
  1
ACDBDICTIONARYWDFLT
  2
AcDbDictionaryWithDefault
  3
ObjectDBX Classes
 90
0
 91
0
280
0
281
0
  0
CLASS
  1
SUN
  2
AcDbSun
  3
SCENEOE
 90
1153
 91
0
280
0
281
0
  0
CLASS
  1
VISUALSTYLE
  2
AcDbVisualStyle
  3
ObjectDBX Classes
 90
4095
 91
0
280
0
281
0
  0
CLASS
  1
MATERIAL
  2
AcDbMaterial
  3
ObjectDBX Classes
 90
1153
 91
0
280
0
281
0
  0
CLASS
  1
SCALE
  2
AcDbScale
  3
ObjectDBX Classes
 90
1153
 91
0
280
0
281
0
  0
CLASS
  1
TABLESTYLE
  2
AcDbTableStyle
  3
ObjectDBX Classes
 90
4095
 91
0
280
0
281
0
  0
CLASS
  1
MLEADERSTYLE
  2
AcDbMLeaderStyle
  3
ACDB_MLEADERSTYLE_CLASS
 90
4095
 91
0
280
0
281
0
  0
CLASS
  1
DICTIONARYVAR
  2
AcDbDictionaryVar
  3
ObjectDBX Classes
 90
0
 91
0
280
0
281
0
  0
CLASS
  1
CELLSTYLEMAP
  2
AcDbCellStyleMap
  3
ObjectDBX Classes
 90
1152
 91
0
280
0
281
0
  0
CLASS
  1
MENTALRAYRENDERSETTINGS
  2
AcDbMentalRayRenderSettings
  3
SCENEOE
 90
1024
 91
0
280
0
281
0
  0
CLASS
  1
ACDBDETAILVIEWSTYLE
  2
AcDbDetailViewStyle
  3
ObjectDBX Classes
 90
1025
 91
0
280
0
281
0
  0
CLASS
  1
ACDBSECTIONVIEWSTYLE
  2
AcDbSectionViewStyle
  3
ObjectDBX Classes
 90
1025
 91
0
280
0
281
0
  0
CLASS
  1
RASTERVARIABLES
  2
AcDbRasterVariables
  3
ISM
 90
0
 91
0
280
0
281
0
  0
CLASS
  1
ACDBPLACEHOLDER
  2
AcDbPlaceHolder
  3
ObjectDBX Classes
 90
0
 91
0
280
0
281
0
  0
CLASS
  1
LAYOUT
  2
AcDbLayout
  3
ObjectDBX Classes
 90
0
 91
0
280
0
281
0
  0
ENDSEC
  0
SECTION
  2
TABLES
  0
TABLE
  2
VPORT
  5
8
330
0
100
AcDbSymbolTable
 70
1
  0
VPORT
  5
23
330
8
100
AcDbSymbolTableRecord
100
AcDbViewportTableRecord
  2
*Active
 70
0
 10
0.0
 20
0.0
 11
1.0
 21
1.0
 12
0.0
 22
0.0
 13
0.0
 23
0.0
 14
0.5
 24
0.5
 15
0.5
 25
0.5
 16
0.0
 26
0.0
 36
1.0
 17
0.0
 27
0.0
 37
0.0
 40
1000.0
 41
1.34
 42
50.0
 43
0.0
 44
0.0
 50
0.0
 51
0.0
 71
0
 72
1000
 73
1
 74
3
 75
0
 76
0
 77
0
 78
0
281
0
 65
0
146
0.0
  0
ENDTAB
  0
TABLE
  2
LTYPE
  5
2
330
0
100
AcDbSymbolTable
 70
21
  0
LTYPE
  5
24
330
2
100
AcDbSymbolTableRecord
100
AcDbLinetypeTableRecord
  2
ByBlock
 70
0
  3

 72
65
 73
0
 40
0.0
  0
LTYPE
  5
25
330
2
100
AcDbSymbolTableRecord
100
AcDbLinetypeTableRecord
  2
ByLayer
 70
0
  3

 72
65
 73
0
 40
0.0
  0
LTYPE
  5
26
330
2
100
AcDbSymbolTableRecord
100
AcDbLinetypeTableRecord
  2
Continuous
 70
0
  3

 72
65
 73
0
 40
0.0
  0
LTYPE
  5
2F
330
2
100
AcDbSymbolTableRecord
100
AcDbLinetypeTableRecord
  2
CENTER
 70
0
  3
Center ____ _ ____ _ ____ _ ____ _ ____ _ ____
 72
65
 73
4
 40
5.08
 49
3.175
 74
0
 49
-0.635
 74
0
 49
0.635
 74
0
 49
-0.635
 74
0
  0
LTYPE
  5
30
330
2
100
AcDbSymbolTableRecord
100
AcDbLinetypeTableRecord
  2
CENTERX2
 70
0
  3
Center (2x) ________  __  ________  __  ________
 72
65
 73
4
 40
8.89
 49
6.35
 74
0
 49
-0.635
 74
0
 49
1.27
 74
0
 49
-0.635
 74
0
  0
LTYPE
  5
31
330
2
100
AcDbSymbolTableRecord
100
AcDbLinetypeTableRecord
  2
CENTER2
 70
0
  3
Center (.5x) ____ _ ____ _ ____ _ ____ _ ____
 72
65
 73
4
 40
2.54
 49
1.587
 74
0
 49
-0.318
 74
0
 49
0.318
 74
0
 49
-0.318
 74
0
  0
LTYPE
  5
32
330
2
100
AcDbSymbolTableRecord
100
AcDbLinetypeTableRecord
  2
DASHED
 70
0
  3
Dashed __ __ __ __ __ __ __ __ __ __ __ __ __ _
 72
65
 73
2
 40
1.524
 49
1.27
 74
0
 49
-0.254
 74
0
  0
LTYPE
  5
33
330
2
100
AcDbSymbolTableRecord
100
AcDbLinetypeTableRecord
  2
DASHEDX2
 70
0
  3
Dashed (2x) ____  ____  ____  ____  ____  ____
 72
65
 73
2
 40
3.048
 49
2.54
 74
0
 49
-0.508
 74
0
  0
LTYPE
  5
34
330
2
100
AcDbSymbolTableRecord
100
AcDbLinetypeTableRecord
  2
DASHED2
 70
0
  3
Dashed (.5x) _ _ _ _ _ _ _ _ _ _ _ _ _ _
 72
65
 73
2
 40
0.762
 49
0.635
 74
0
 49
-0.127
 74
0
  0
LTYPE
  5
35
330
2
100
AcDbSymbolTableRecord
100
AcDbLinetypeTableRecord
  2
PHANTOM
 70
0
  3
Phantom ______  __  __  ______  __  __  ______
 72
65
 73
6
 40
6.35
 49
3.175
 74
0
 49
-0.635
 74
0
 49
0.635
 74
0
 49
-0.635
 74
0
 49
0.635
 74
0
 49
-0.635
 74
0
  0
LTYPE
  5
36
330
2
100
AcDbSymbolTableRecord
100
AcDbLinetypeTableRecord
  2
PHANTOMX2
 70
0
  3
Phantom (2x)____________    ____    ____    ____________
 72
65
 73
6
 40
10.795
 49
6.35
 74
0
 49
-0.635
 74
0
 49
1.27
 74
0
 49
-0.635
 74
0
 49
1.27
 74
0
 49
-0.635
 74
0
  0
LTYPE
  5
37
330
2
100
AcDbSymbolTableRecord
100
AcDbLinetypeTableRecord
  2
PHANTOM2
 70
0
  3
Phantom (.5x) ___ _ _ ___ _ _ ___ _ _ ___ _ _ ___
 72
65
 73
6
 40
3.175
 49
1.587
 74
0
 49
-0.318
 74
0
 49
0.318
 74
0
 49
-0.318
 74
0
 49
0.318
 74
0
 49
-0.318
 74
0
  0
LTYPE
  5
38
330
2
100
AcDbSymbolTableRecord
100
AcDbLinetypeTableRecord
  2
DASHDOT
 70
0
  3
Dash dot __ . __ . __ . __ . __ . __ . __ . __
 72
65
 73
4
 40
3.556
 49
2.54
 74
0
 49
-0.508
 74
0
 49
0.0
 74
0
 49
-0.508
 74
0
  0
LTYPE
  5
39
330
2
100
AcDbSymbolTableRecord
100
AcDbLinetypeTableRecord
  2
DASHDOTX2
 70
0
  3
Dash dot (2x) ____  .  ____  .  ____  .  ____
 72
65
 73
4
 40
6.096
 49
5.08
 74
0
 49
-0.508
 74
0
 49
0.0
 74
0
 49
-0.508
 74
0
  0
LTYPE
  5
3A
330
2
100
AcDbSymbolTableRecord
100
AcDbLinetypeTableRecord
  2
DASHDOT2
 70
0
  3
Dash dot (.5x) _ . _ . _ . _ . _ . _ . _ . _
 72
65
 73
4
 40
1.778
 49
1.27
 74
0
 49
-0.254
 74
0
 49
0.0
 74
0
 49
-0.254
 74
0
  0
LTYPE
  5
3B
330
2
100
AcDbSymbolTableRecord
100
AcDbLinetypeTableRecord
  2
DOT
 70
0
  3
Dot .  .  .  .  .  .  .  .  .  .  .  .  .  .  .  .
 72
65
 73
2
 40
0.508
 49
0.0
 74
0
 49
-0.508
 74
0
  0
LTYPE
  5
3C
330
2
100
AcDbSymbolTableRecord
100
AcDbLinetypeTableRecord
  2
DOTX2
 70
0
  3
Dot (2x) .    .    .    .    .    .    .    . 
 72
65
 73
2
 40
1.016
 49
0.0
 74
0
 49
-1.016
 74
0
  0
LTYPE
  5
3D
330
2
100
AcDbSymbolTableRecord
100
AcDbLinetypeTableRecord
  2
DOT2
 70
0
  3
Dot (.5) . . . . . . . . . . . . . . . . . . . 
 72
65
 73
2
 40
0.254
 49
0.0
 74
0
 49
-0.254
 74
0
  0
LTYPE
  5
3E
330
2
100
AcDbSymbolTableRecord
100
AcDbLinetypeTableRecord
  2
DIVIDE
 70
0
  3
Divide __ . . __ . . __ . . __ . . __ . . __
 72
65
 73
6
 40
4.064
 49
2.54
 74
0
 49
-0.508
 74
0
 49
0.0
 74
0
 49
-0.508
 74
0
 49
0.0
 74
0
 49
-0.508
 74
0
  0
LTYPE
  5
3F
330
2
100
AcDbSymbolTableRecord
100
AcDbLinetypeTableRecord
  2
DIVIDEX2
 70
0
  3
Divide (2x) ____  . .  ____  . .  ____  . .  ____
 72
65
 73
6
 40
6.604
 49
5.08
 74
0
 49
-0.508
 74
0
 49
0.0
 74
0
 49
-0.508
 74
0
 49
0.0
 74
0
 49
-0.508
 74
0
  0
LTYPE
  5
40
330
2
100
AcDbSymbolTableRecord
100
AcDbLinetypeTableRecord
  2
DIVIDE2
 70
0
  3
Divide(.5x) _ . _ . _ . _ . _ . _ . _ . _
 72
65
 73
6
 40
2.032
 49
1.27
 74
0
 49
-0.254
 74
0
 49
0.0
 74
0
 49
-0.254
 74
0
 49
0.0
 74
0
 49
-0.254
 74
0
  0
ENDTAB
  0
TABLE
  2
LAYER
  5
1
330
0
100
AcDbSymbolTable
 70
3
  0
LAYER
  5
27
330
1
100
AcDbSymbolTableRecord
100
AcDbLayerTableRecord
  2
0
 70
0
 62
7
  6
Continuous
370
-3
390
13
347
21
  0
LAYER
  5
28
330
1
100
AcDbSymbolTableRecord
100
AcDbLayerTableRecord
  2
Defpoints
 70
0
 62
7
  6
Continuous
290
0
370
-3
390
13
347
21
  0
LAYER
  5
8A
330
1
100
AcDbSymbolTableRecord
100
AcDbLayerTableRecord
  2
Layer
 70
0
 62
1
  6
Continuous
370
50
390
13
347
21
  0
ENDTAB
  0
TABLE
  2
STYLE
  5
5
330
0
100
AcDbSymbolTable
 70
26
  0
STYLE
  5
29
330
5
100
AcDbSymbolTableRecord
100
AcDbTextStyleTableRecord
  2
Standard
 70
0
 40
0.0
 41
1.0
 50
0.0
 71
0
 42
2.5
  3
txt
  4

  0
STYLE
  5
41
330
5
100
AcDbSymbolTableRecord
100
AcDbTextStyleTableRecord
  2
OpenSans-Light
 70
0
 40
0.0
 41
1.0
 50
0.0
 71
0
 42
2.5
  3
OpenSans-Light.ttf
  4

  0
STYLE
  5
42
330
5
100
AcDbSymbolTableRecord
100
AcDbTextStyleTableRecord
  2
OpenSans-Light-Italic
 70
0
 40
0.0
 41
1.0
 50
0.0
 71
0
 42
2.5
  3
OpenSans-LightItalic.ttf
  4

  0
STYLE
  5
43
330
5
100
AcDbSymbolTableRecord
100
AcDbTextStyleTableRecord
  2
OpenSans
 70
0
 40
0.0
 41
1.0
 50
0.0
 71
0
 42
2.5
  3
OpenSans-Regular.ttf
  4

  0
STYLE
  5
44
330
5
100
AcDbSymbolTableRecord
100
AcDbTextStyleTableRecord
  2
OpenSans-Italic
 70
0
 40
0.0
 41
1.0
 50
0.0
 71
0
 42
2.5
  3
OpenSans-Italic.ttf
  4

  0
STYLE
  5
45
330
5
100
AcDbSymbolTableRecord
100
AcDbTextStyleTableRecord
  2
OpenSans-SemiBold
 70
0
 40
0.0
 41
1.0
 50
0.0
 71
0
 42
2.5
  3
OpenSans-SemiBold.ttf
  4

  0
STYLE
  5
46
330
5
100
AcDbSymbolTableRecord
100
AcDbTextStyleTableRecord
  2
OpenSans-SemiBoldItalic
 70
0
 40
0.0
 41
1.0
 50
0.0
 71
0
 42
2.5
  3
OpenSans-SemiBoldItalic.ttf
  4

  0
STYLE
  5
47
330
5
100
AcDbSymbolTableRecord
100
AcDbTextStyleTableRecord
  2
OpenSans-Bold
 70
0
 40
0.0
 41
1.0
 50
0.0
 71
0
 42
2.5
  3
OpenSans-Bold.ttf
  4

  0
STYLE
  5
48
330
5
100
AcDbSymbolTableRecord
100
AcDbTextStyleTableRecord
  2
OpenSans-BoldItalic
 70
0
 40
0.0
 41
1.0
 50
0.0
 71
0
 42
2.5
  3
OpenSans-BoldItalic.ttf
  4

  0
STYLE
  5
49
330
5
100
AcDbSymbolTableRecord
100
AcDbTextStyleTableRecord
  2
OpenSans-ExtraBold
 70
0
 40
0.0
 41
1.0
 50
0.0
 71
0
 42
2.5
  3
OpenSans-ExtraBold.ttf
  4

  0
STYLE
  5
4A
330
5
100
AcDbSymbolTableRecord
100
AcDbTextStyleTableRecord
  2
OpenSans-ExtraBoldItalic
 70
0
 40
0.0
 41
1.0
 50
0.0
 71
0
 42
2.5
  3
OpenSans-ExtraBoldItalic.ttf
  4

  0
STYLE
  5
4B
330
5
100
AcDbSymbolTableRecord
100
AcDbTextStyleTableRecord
  2
OpenSansCondensed-Bold
 70
0
 40
0.0
 41
1.0
 50
0.0
 71
0
 42
2.5
  3
OpenSansCondensed-Bold.ttf
  4

  0
STYLE
  5
4C
330
5
100
AcDbSymbolTableRecord
100
AcDbTextStyleTableRecord
  2
OpenSansCondensed-Light
 70
0
 40
0.0
 41
1.0
 50
0.0
 71
0
 42
2.5
  3
OpenSansCondensed-Light.ttf
  4

  0
STYLE
  5
4D
330
5
100
AcDbSymbolTableRecord
100
AcDbTextStyleTableRecord
  2
OpenSansCondensed-Italic
 70
0
 40
0.0
 41
1.0
 50
0.0
 71
0
 42
2.5
  3
OpenSansCondensed-LightItalic.ttf
  4

  0
STYLE
  5
4E
330
5
100
AcDbSymbolTableRecord
100
AcDbTextStyleTableRecord
  2
LiberationSans
 70
0
 40
0.0
 41
1.0
 50
0.0
 71
0
 42
2.5
  3
LiberationSans-Regular.ttf
  4

  0
STYLE
  5
4F
330
5
100
AcDbSymbolTableRecord
100
AcDbTextStyleTableRecord
  2
LiberationSans-Bold
 70
0
 40
0.0
 41
1.0
 50
0.0
 71
0
 42
2.5
  3
LiberationSans-Bold.ttf
  4

  0
STYLE
  5
50
330
5
100
AcDbSymbolTableRecord
100
AcDbTextStyleTableRecord
  2
LiberationSans-BoldItalic
 70
0
 40
0.0
 41
1.0
 50
0.0
 71
0
 42
2.5
  3
LiberationSans-BoldItalic.ttf
  4

  0
STYLE
  5
51
330
5
100
AcDbSymbolTableRecord
100
AcDbTextStyleTableRecord
  2
LiberationSans-Italic
 70
0
 40
0.0
 41
1.0
 50
0.0
 71
0
 42
2.5
  3
LiberationSans-Italic.ttf
  4

  0
STYLE
  5
52
330
5
100
AcDbSymbolTableRecord
100
AcDbTextStyleTableRecord
  2
LiberationSerif
 70
0
 40
0.0
 41
1.0
 50
0.0
 71
0
 42
2.5
  3
LiberationSerif-Regular.ttf
  4

  0
STYLE
  5
53
330
5
100
AcDbSymbolTableRecord
100
AcDbTextStyleTableRecord
  2
LiberationSerif-Bold
 70
0
 40
0.0
 41
1.0
 50
0.0
 71
0
 42
2.5
  3
LiberationSerif-Bold.ttf
  4

  0
STYLE
  5
54
330
5
100
AcDbSymbolTableRecord
100
AcDbTextStyleTableRecord
  2
LiberationSerif-BoldItalic
 70
0
 40
0.0
 41
1.0
 50
0.0
 71
0
 42
2.5
  3
LiberationSerif-BoldItalic.ttf
  4

  0
STYLE
  5
55
330
5
100
AcDbSymbolTableRecord
100
AcDbTextStyleTableRecord
  2
LiberationSerif-Italic
 70
0
 40
0.0
 41
1.0
 50
0.0
 71
0
 42
2.5
  3
LiberationSerif-Italic.ttf
  4

  0
STYLE
  5
56
330
5
100
AcDbSymbolTableRecord
100
AcDbTextStyleTableRecord
  2
LiberationMono
 70
0
 40
0.0
 41
1.0
 50
0.0
 71
0
 42
2.5
  3
LiberationMono-Regular.ttf
  4

  0
STYLE
  5
57
330
5
100
AcDbSymbolTableRecord
100
AcDbTextStyleTableRecord
  2
LiberationMono-Bold
 70
0
 40
0.0
 41
1.0
 50
0.0
 71
0
 42
2.5
  3
LiberationMono-Bold.ttf
  4

  0
STYLE
  5
58
330
5
100
AcDbSymbolTableRecord
100
AcDbTextStyleTableRecord
  2
LiberationMono-BoldItalic
 70
0
 40
0.0
 41
1.0
 50
0.0
 71
0
 42
2.5
  3
LiberationMono-BoldItalic.ttf
  4

  0
STYLE
  5
59
330
5
100
AcDbSymbolTableRecord
100
AcDbTextStyleTableRecord
  2
LiberationMono-Italic
 70
0
 40
0.0
 41
1.0
 50
0.0
 71
0
 42
2.5
  3
LiberationMono-Italic.ttf
  4

  0
ENDTAB
  0
TABLE
  2
VIEW
  5
7
330
0
100
AcDbSymbolTable
 70
0
  0
ENDTAB
  0
TABLE
  2
UCS
  5
6
330
0
100
AcDbSymbolTable
 70
0
  0
ENDTAB
  0
TABLE
  2
APPID
  5
3
330
0
100
AcDbSymbolTable
 70
3
  0
APPID
  5
2A
330
3
100
AcDbSymbolTableRecord
100
AcDbRegAppTableRecord
  2
ACAD
 70
0
  0
APPID
  5
B8
330
3
100
AcDbSymbolTableRecord
100
AcDbRegAppTableRecord
  2
HATCHBACKGROUNDCOLOR
 70
0
  0
APPID
  5
B9
330
3
100
AcDbSymbolTableRecord
100
AcDbRegAppTableRecord
  2
EZDXF
 70
0
  0
ENDTAB
  0
TABLE
  2
DIMSTYLE
  5
4
330
0
100
AcDbSymbolTable
 70
12
100
AcDbDimStyleTable
  0
DIMSTYLE
105
2B
330
4
100
AcDbSymbolTableRecord
100
AcDbDimStyleTableRecord
  2
Standard
 70
0
 40
1.0
 41
2.5
 42
0.625
 43
3.75
 44
1.25
 45
0.0
 46
0.0
 47
0.0
 48
0.0
 49
2.5
140
2.5
141
2.5
142
0.0
143
0.03937007874
144
1.0
145
0.0
146
1.0
147
0.625
148
0.0
 69
0
 70
0
 71
0
 72
0
 73
0
 74
0
 75
0
 76
0
 77
1
 78
8
 79
3
170
0
171
3
172
1
173
0
174
0
175
0
176
0
177
0
178
0
179
2
271
2
272
2
273
2
274
3
275
0
276
0
277
2
278
44
279
0
280
0
281
0
282
0
283
0
284
8
285
0
286
0
288
0
289
3
290
0
371
-2
372
-2
  0
DIMSTYLE
105
73
330
4
100
AcDbSymbolTableRecord
100
AcDbDimStyleTableRecord
  2
EZDXF
 70
0
 40
1.0
 41
0.175
 42
0.125
 43
3.75
 44
0.375
 45
0.0
 46
0.0
 47
0.0
 48
0.0
 49
2.5
140
0.25
141
2.5
142
0.0
143
0.03937007874
144
100.0
145
0.0
146
0.5
147
0.1
148
0.0
 69
0
 70
0
 71
0
 72
0
 73
0
 74
0
 75
0
 76
0
 77
1
 78
12
 79
3
170
0
171
3
172
1
173
0
174
0
175
0
176
0
177
0
178
0
179
2
271
2
272
2
273
2
274
3
275
0
276
0
277
2
278
46
279
2
280
0
281
0
282
0
283
0
284
8
285
0
286
0
288
1
289
3
290
0
340
4C
342
74
371
-2
372
-2
  0
DIMSTYLE
105
7C
330
4
100
AcDbSymbolTableRecord
100
AcDbDimStyleTableRecord
  2
EZ_M_100_H25_CM
 70
0
 40
1.0
 41
0.25
 42
0.125
 43
3.75
 44
0.375
 45
0.0
 46
0.0
 47
0.0
 48
0.0
 49
2.5
140
0.25
141
2.5
142
0.125
143
0.03937007874
144
100.0
145
0.0
146
0.5
147
0.1
148
0.0
 69
0
 70
0
 71
0
 72
0
 73
0
 74
0
 75
0
 76
0
 77
1
 78
12
 79
3
170
0
171
3
172
1
173
0
174
0
175
0
176
0
177
0
178
0
179
2
271
2
272
2
273
2
274
3
275
0
276
0
277
2
278
46
279
2
280
0
281
0
282
0
283
0
284
8
285
0
286
0
288
1
289
3
290
0
340
4C
371
-2
372
-2
  0
DIMSTYLE
105
7D
330
4
100
AcDbSymbolTableRecord
100
AcDbDimStyleTableRecord
  2
EZ_M_50_H25_CM
 70
0
 40
1.0
 41
0.125
 42
0.0625
 43
3.75
 44
0.1875
 45
0.0
 46
0.0
 47
0.0
 48
0.0
 49
2.5
140
0.125
141
2.5
142
0.0625
143
0.03937007874
144
100.0
145
0.0
146
0.5
147
0.05
148
0.0
 69
0
 70
0
 71
0
 72
0
 73
0
 74
0
 75
0
 76
0
 77
1
 78
12
 79
3
170
0
171
3
172
1
173
0
174
0
175
0
176
0
177
0
178
0
179
2
271
2
272
2
273
2
274
3
275
0
276
0
277
2
278
46
279
2
280
0
281
0
282
0
283
0
284
8
285
0
286
0
288
1
289
3
290
0
340
4C
371
-2
372
-2
  0
DIMSTYLE
105
7E
330
4
100
AcDbSymbolTableRecord
100
AcDbDimStyleTableRecord
  2
EZ_M_25_H25_CM
 70
0
 40
1.0
 41
0.0625
 42
0.03125
 43
3.75
 44
0.09375
 45
0.0
 46
0.0
 47
0.0
 48
0.0
 49
2.5
140
0.0625
141
2.5
142
0.03125
143
0.03937007874
144
100.0
145
0.0
146
0.5
147
0.025
148
0.0
 69
0
 70
0
 71
0
 72
0
 73
0
 74
0
 75
0
 76
0
 77
1
 78
12
 79
3
170
0
171
3
172
1
173
0
174
0
175
0
176
0
177
0
178
0
179
2
271
2
272
2
273
2
274
3
275
0
276
0
277
2
278
46
279
2
280
0
281
0
282
0
283
0
284
8
285
0
286
0
288
1
289
3
290
0
340
4C
371
-2
372
-2
  0
DIMSTYLE
105
7F
330
4
100
AcDbSymbolTableRecord
100
AcDbDimStyleTableRecord
  2
EZ_M_20_H25_CM
 70
0
 40
1.0
 41
0.05
 42
0.025
 43
3.75
 44
0.07500000000000001
 45
0.0
 46
0.0
 47
0.0
 48
0.0
 49
2.5
140
0.05
141
2.5
142
0.025
143
0.03937007874
144
100.0
145
0.0
146
0.5
147
0.020000000000000004
148
0.0
 69
0
 70
0
 71
0
 72
0
 73
0
 74
0
 75
0
 76
0
 77
1
 78
12
 79
3
170
0
171
3
172
1
173
0
174
0
175
0
176
0
177
0
178
0
179
2
271
2
272
2
273
2
274
3
275
0
276
0
277
2
278
46
279
2
280
0
281
0
282
0
283
0
284
8
285
0
286
0
288
1
289
3
290
0
340
4C
371
-2
372
-2
  0
DIMSTYLE
105
80
330
4
100
AcDbSymbolTableRecord
100
AcDbDimStyleTableRecord
  2
EZ_M_10_H25_CM
 70
0
 40
1.0
 41
0.025
 42
0.0125
 43
3.75
 44
0.037500000000000006
 45
0.0
 46
0.0
 47
0.0
 48
0.0
 49
2.5
140
0.025
141
2.5
142
0.0125
143
0.03937007874
144
100.0
145
0.0
146
0.5
147
0.010000000000000002
148
0.0
 69
0
 70
0
 71
0
 72
0
 73
0
 74
0
 75
0
 76
0
 77
1
 78
12
 79
3
170
0
171
3
172
1
173
0
174
0
175
0
176
0
177
0
178
0
179
2
271
2
272
2
273
2
274
3
275
0
276
0
277
2
278
46
279
2
280
0
281
0
282
0
283
0
284
8
285
0
286
0
288
1
289
3
290
0
340
4C
371
-2
372
-2
  0
DIMSTYLE
105
81
330
4
100
AcDbSymbolTableRecord
100
AcDbDimStyleTableRecord
  2
EZ_M_5_H25_CM
 70
0
 40
1.0
 41
0.0125
 42
0.00625
 43
3.75
 44
0.018750000000000003
 45
0.0
 46
0.0
 47
0.0
 48
0.0
 49
2.5
140
0.0125
141
2.5
142
0.00625
143
0.03937007874
144
100.0
145
0.0
146
0.5
147
0.005000000000000001
148
0.0
 69
0
 70
0
 71
0
 72
0
 73
0
 74
0
 75
0
 76
0
 77
1
 78
12
 79
3
170
0
171
3
172
1
173
0
174
0
175
0
176
0
177
0
178
0
179
2
271
2
272
2
273
2
274
3
275
0
276
0
277
2
278
46
279
2
280
0
281
0
282
0
283
0
284
8
285
0
286
0
288
1
289
3
290
0
340
4C
371
-2
372
-2
  0
DIMSTYLE
105
82
330
4
100
AcDbSymbolTableRecord
100
AcDbDimStyleTableRecord
  2
EZ_M_1_H25_CM
 70
0
 40
1.0
 41
0.0025
 42
0.00125
 43
3.75
 44
0.00375
 45
0.0
 46
0.0
 47
0.0
 48
0.0
 49
2.5
140
0.0025
141
2.5
142
0.00125
143
0.03937007874
144
100.0
145
0.0
146
0.5
147
0.001
148
0.0
 69
0
 70
0
 71
0
 72
0
 73
0
 74
0
 75
0
 76
0
 77
1
 78
12
 79
3
170
0
171
3
172
1
173
0
174
0
175
0
176
0
177
0
178
0
179
2
271
2
272
2
273
2
274
3
275
0
276
0
277
2
278
46
279
2
280
0
281
0
282
0
283
0
284
8
285
0
286
0
288
1
289
3
290
0
340
4C
371
-2
372
-2
  0
DIMSTYLE
105
83
330
4
100
AcDbSymbolTableRecord
100
AcDbDimStyleTableRecord
  2
EZ_RADIUS
 70
0
 40
1.0
 41
0.25
 42
0.125
 43
3.75
 44
0.375
 45
0.0
 46
0.0
 47
0.0
 48
0.0
 49
2.5
140
0.25
141
0.0
142
0.0
143
0.03937007874
144
100.0
145
0.0
146
0.5
147
0.1
148
0.0
 69
0
 70
0
 71
0
 72
0
 73
0
 74
0
 75
0
 76
0
 77
1
 78
12
 79
3
170
0
171
3
172
0
173
0
174
0
175
0
176
0
177
0
178
0
179
2
271
2
272
2
273
2
274
3
275
0
276
0
277
2
278
46
279
1
280
0
281
0
282
0
283
0
284
8
285
0
286
0
288
1
289
3
290
0
340
4C
342
84
371
-2
372
-2
  0
DIMSTYLE
105
88
330
4
100
AcDbSymbolTableRecord
100
AcDbDimStyleTableRecord
  2
EZ_RADIUS_INSIDE
 70
0
 40
1.0
 41
0.25
 42
0.125
 43
3.75
 44
0.375
 45
0.0
 46
0.0
 47
0.0
 48
0.0
 49
2.5
140
0.25
141
0.0
142
0.0
143
0.03937007874
144
100.0
145
0.0
146
0.5
147
0.1
148
0.0
 69
0
 70
0
 71
0
 72
0
 73
0
 74
0
 75
0
 76
0
 77
0
 78
12
 79
3
170
0
171
3
172
0
173
0
174
1
175
0
176
0
177
0
178
0
179
2
271
2
272
2
273
2
274
3
275
0
276
0
277
2
278
46
279
0
280
0
281
0
282
0
283
0
284
8
285
0
286
0
288
1
289
0
290
0
340
4C
342
84
371
-2
372
-2
  0
DIMSTYLE
105
89
330
4
100
AcDbSymbolTableRecord
100
AcDbDimStyleTableRecord
  2
EZ_CURVED
 70
0
 40
1.0
 41
0.25
 42
0.125
 43
3.75
 44
0.375
 45
0.0
 46
0.0
 47
0.0
 48
0.0
 49
2.5
140
0.25
141
2.5
142
0.0
143
0.03937007874
144
100.0
145
0.0
146
0.5
147
0.1
148
0.0
 69
0
 70
0
 71
0
 72
0
 73
0
 74
0
 75
0
 76
0
 77
1
 78
12
 79
2
 90
2
170
0
171
3
172
1
173
0
174
0
175
0
176
0
177
0
178
0
179
2
271
2
272
2
273
2
274
3
275
0
276
0
277
2
278
46
279
2
280
0
281
0
282
0
283
0
284
8
285
0
286
0
288
1
289
3
290
0
340
4C
371
-2
372
-2
  0
ENDTAB
  0
TABLE
  2
BLOCK_RECORD
  5
9
330
0
100
AcDbSymbolTable
 70
5
  0
BLOCK_RECORD
  5
17
330
9
100
AcDbSymbolTableRecord
100
AcDbBlockTableRecord
  2
*Model_Space
340
1A
 70
0
280
1
281
0
  0
BLOCK_RECORD
  5
1B
330
9
100
AcDbSymbolTableRecord
100
AcDbBlockTableRecord
  2
*Paper_Space
340
1E
 70
0
280
1
281
0
  0
BLOCK_RECORD
  5
74
330
9
100
AcDbSymbolTableRecord
100
AcDbBlockTableRecord
  2
_ARCHTICK
340
0
 70
0
280
1
281
0
  0
BLOCK_RECORD
  5
78
330
9
100
AcDbSymbolTableRecord
100
AcDbBlockTableRecord
  2
_CLOSEDFILLED
340
0
 70
0
280
1
281
0
  0
BLOCK_RECORD
  5
84
330
9
100
AcDbSymbolTableRecord
100
AcDbBlockTableRecord
  2
_CLOSEDBLANK
340
0
 70
0
280
1
281
0
  0
ENDTAB
  0
ENDSEC
  0
SECTION
  2
BLOCKS
  0
BLOCK
  5
18
330
17
100
AcDbEntity
  8
0
100
AcDbBlockBegin
  2
*Model_Space
 70
0
 10
0.0
 20
0.0
 30
0.0
  3
*Model_Space
  1

  0
ENDBLK
  5
19
330
17
100
AcDbEntity
  8
0
100
AcDbBlockEnd
  0
BLOCK
  5
1C
330
1B
100
AcDbEntity
  8
0
100
AcDbBlockBegin
  2
*Paper_Space
 70
0
 10
0.0
 20
0.0
 30
0.0
  3
*Paper_Space
  1

  0
ENDBLK
  5
1D
330
1B
100
AcDbEntity
  8
0
100
AcDbBlockEnd
  0
BLOCK
  5
75
330
74
100
AcDbEntity
  8
0
100
AcDbBlockBegin
  2
_ARCHTICK
 70
0
 10
0.0
 20
0.0
 30
0.0
  3
_ARCHTICK
  1

  0
LWPOLYLINE
  5
77
330
74
100
AcDbEntity
  8
0
  6
BYBLOCK
 62
0
100
AcDbPolyline
 90
2
 70
0
 43
0.15
 10
-0.5
 20
-0.5000000000000001
 10
0.5000000000000001
 20
0.5
  0
ENDBLK
  5
76
330
74
100
AcDbEntity
  8
0
100
AcDbBlockEnd
  0
BLOCK
  5
79
330
78
100
AcDbEntity
  8
0
100
AcDbBlockBegin
  2
_CLOSEDFILLED
 70
0
 10
0.0
 20
0.0
 30
0.0
  3
_CLOSEDFILLED
  1

  0
SOLID
  5
7B
330
78
100
AcDbEntity
  8
0
  6
BYBLOCK
 62
0
100
AcDbTrace
 10
-1.0
 20
0.1643989837240255
 30
0.0
 11
0.0
 21
0.0
 31
0.0
 12
-1.0
 22
-0.1643989837240255
 32
0.0
 13
-1.0
 23
-0.1643989837240255
 33
0.0
  0
ENDBLK
  5
7A
330
78
100
AcDbEntity
  8
0
100
AcDbBlockEnd
  0
BLOCK
  5
85
330
84
100
AcDbEntity
  8
0
100
AcDbBlockBegin
  2
_CLOSEDBLANK
 70
0
 10
0.0
 20
0.0
 30
0.0
  3
_CLOSEDBLANK
  1

  0
LWPOLYLINE
  5
87
330
84
100
AcDbEntity
  8
0
  6
BYBLOCK
 62
0
100
AcDbPolyline
 90
3
 70
1
 10
-1.0
 20
0.1643989837240255
 10
0.0
 20
0.0
 10
-1.0
 20
-0.1643989837240255
  0
ENDBLK
  5
86
330
84
100
AcDbEntity
  8
0
100
AcDbBlockEnd
  0
ENDSEC
  0
SECTION
  2
ENTITIES
  0
LWPOLYLINE
  5
8B
330
17
100
AcDbEntity
  8
Layer
100
AcDbPolyline
 90
303
 70
1
 10
944.3107837039381
 20
-94.95964024225064
 10
941.4862197226662
 20
-93.80994061777308
 10
936.9370265065659
 20
-92.04671437965425
 10
932.0179116463487
 20
-90.09992037140644
 10
926.643327455329
 20
-88.01014494627493
 10
920.7800122758222
 20
-85.77259039468619
 10
914.4726450469445
 20
-83.36676239169819
 10
907.7972227931448
 20
-80.80772785915758
 10
900.8118874444663
 20
-78.14191004091164
 10
893.6257041567128
 20
-75.40297512398872
 10
886.3702420696266
 20
-72.66491543683841
 10
879.0527037324323
 20
-69.95756983094394
 10
871.6358128113798
 20
-67.15560192090446
 10
864.1333384502748
 20
-64.30939077638412
 10
856.5001281181555
 20
-61.472445438869066
 10
848.742889442056
 20
-58.60123605363589
 10
840.852705296619
 20
-55.717617877533456
 10
832.812876960601
 20
-52.76810998152882
 10
824.6449329244185
 20
-49.77694004138464
 10
816.3837298402273
 20
-46.75853768106095
 10
808.063390166946
 20
-43.721826051659164
 10
799.7164347927923
 20
-40.6757163981905
 10
791.365709103672
 20
-37.63491469475698
 10
783.0169847072095
 20
-34.60714296319556
 10
774.6711265869683
 20
-31.59378029892235
 10
766.3308900748912
 20
-28.595209234845647
 10
758.0060202803666
 20
-25.612716552792985
 10
749.7129492476907
 20
-22.654700272635598
 10
741.4521889556775
 20
-19.73038344663426
 10
733.2077307053664
 20
-16.838623925467413
 10
724.9733455224347
 20
-13.973826068708725
 10
716.7566790604446
 20
-11.137496694035027
 10
712.6902301083808
 20
-9.746739406343478
 10
712.3504447347686
 20
-10.740241243221151
 10
708.2250454225791
 20
-9.329313827146235
 10
700.050639889959
 20
-6.563713269573341
 10
691.8878359012094
 20
-3.8339221896419984
 10
683.7304423099737
 20
-1.1392847272593276
 10
675.5728257193447
 20
1.5226771304753701
 10
667.4159242672549
 20
4.155842672056486
 10
659.2823163258564
 20
6.758482819406685
 10
651.2009381030905
 20
9.31748862563285
 10
643.1787217595825
 20
11.818856284740654
 10
635.2047514890908
 20
14.257894808789635
 10
627.2662616108462
 20
16.634902334623263
 10
619.3521191370995
 20
18.95135485826135
 10
611.4524695372376
 20
21.20931186096815
 10
603.5620180076301
 20
23.411074505502604
 10
595.6814529355195
 20
25.55688203166504
 10
587.8118989356822
 20
27.644130918520588
 10
579.9463740950187
 20
29.670797844607755
 10
572.0734915922995
 20
31.638890834549038
 10
564.187168632078
 20
33.551626470850415
 10
556.2850199446829
 20
35.41089211325355
 10
548.3664065310767
 20
37.21787175647835
 10
540.4325931695887
 20
38.9731211704694
 10
532.4868573972807
 20
40.67634200517778
 10
524.5309984315934
 20
42.325670205585325
 10
516.5597121894367
 20
43.91996505514359
 10
508.56528124739623
 20
45.461476048817104
 10
500.54506553290366
 20
46.9533522639056
 10
492.50096009490244
 20
48.398001832382704
 10
484.4412356793557
 20
49.7962612105968
 10
476.37501377551587
 20
51.146260314543376
 10
468.3071713213284
 20
52.44526756495352
 10
460.2397101526758
 20
53.69246620065978
 10
452.1764974213656
 20
54.88697441305529
 10
444.1199282627216
 20
56.02699069157719
 10
436.0693638622674
 20
57.11086762020494
 10
428.0222567618414
 20
58.13842926113858
 10
419.97879675917943
 20
59.10994012832413
 10
411.9397564115923
 20
60.024674849873755
 10
403.9036518135715
 20
60.8818033054337
 10
395.8690127662812
 20
61.68144001497293
 10
387.83734837446843
 20
62.42365605525861
 10
379.8073828069998
 20
63.10684211912366
 10
371.7751916844096
 20
63.7306338979982
 10
363.73674862493897
 20
64.29657298461257
 10
355.6948575614508
 20
64.80644255489018
 10
347.65513074405004
 20
65.26038794145164
 10
339.6225301795656
 20
65.6572721932893
 10
331.59996775991607
 20
65.99563754102856
 10
323.58780651451866
 20
66.27430769710786
 10
315.58636484080705
 20
66.49325018818969
 10
307.59807005909073
 20
66.65321549081885
 10
299.6307073339594
 20
66.75600853355813
 10
291.69919453583697
 20
66.8013990168574
 10
283.81528263323406
 20
66.78558501229173
 10
275.983724495965
 20
66.70283463301833
 10
268.19750490664705
 20
66.5456524772822
 10
260.43497877712963
 20
66.30972004862585
 10
252.67940311290715
 20
65.99902932494967
 10
244.9334745526594
 20
65.61950684890066
 10
237.20600679453855
 20
65.17128616946074
 10
229.50011867954458
 20
64.65265282301117
 10
221.81793956615152
 20
64.06381279453684
 10
214.1663143445412
 20
63.4058290735889
 10
206.55229843475036
 20
62.677989641727514
 10
198.98149524753498
 20
61.879315503604786
 10
191.45811880236192
 20
61.00853019402642
 10
183.98577521350757
 20
60.06476797535565
 10
176.5686135850212
 20
59.048059327683056
 10
169.21487180130416
 20
57.95794088654173
 10
161.92577427471178
 20
56.787803567974834
 10
154.68746919554866
 20
55.5342195170582
 10
147.5008385617906
 20
54.20943405605606
 10
140.40413410167722
 20
52.829394684391644
 10
133.43636629818417
 20
51.39321130420822
 10
126.61009748468075
 20
49.89058025802837
 10
119.92324562637819
 20
48.313836107980194
 10
113.37072210167614
 20
46.6592199049244
 10
106.9485481888778
 20
44.92606698987345
 10
100.65731185599236
 20
43.11677966835211
 10
94.50370292025877
 20
41.23737116156587
 10
88.50187680945379
 20
39.29598558665754
 10
82.66856182776962
 20
37.29834567471631
 10
77.01459678736848
 20
35.24910415349763
 10
71.55156832635839
 20
33.16147774185972
 10
66.30191703009837
 20
31.056704823660557
 10
61.29250333862689
 20
28.95238510300647
 10
56.54321311177557
 20
26.85912165167198
 10
52.0646376546938
 20
24.783472613207614
 10
47.85744823248268
 20
22.728800446302635
 10
43.915245003879704
 20
20.700512667102878
 10
40.23027875441795
 20
18.70781977013914
 10
36.794051558375315
 20
16.75958850577179
 10
33.597711456643026
 20
14.863966678009774
 10
30.632168860175625
 20
13.025203307716295
 10
27.886452488022314
 20
11.243114069056082
 10
25.348069371826796
 20
9.514739631650466
 10
23.002786488906963
 20
7.834846852981362
 10
20.833316248101937
 20
6.198122347050028
 10
18.822777394428897
 20
4.605689258358021
 10
16.957860965407463
 20
3.0610657657448708
 10
15.228654121732745
 20
1.5650628023918294
 10
13.625831430137168
 20
0.1145624615617906
 10
12.140542282154911
 20
-1.2931349648233932
 10
10.764770435007904
 20
-2.66070346203897
 10
9.491028780902127
 20
-3.990992369233021
 10
8.311227799133235
 20
-5.287995929497341
 10
7.217104650415251
 20
-6.553408751865972
 10
6.2035013897962585
 20
-7.78446128679379
 10
5.268738494116633
 20
-8.98066125362056
 10
4.40680997343776
 20
-10.153606530019573
 10
3.605407558379511
 20
-11.310820865398924
 10
2.8614346775304966
 20
-12.431810004528348
 10
2.187467822648898
 20
-13.500152503054373
 10
1.586621272433831
 20
-14.550199851237814
 10
1.0413501532439682
 20
-15.616535240874407
 10
0.539567496306347
 20
-16.66100357670775
 10
0.0943249609938448
 20
-17.64250252170748
 10
-0.28139334767212176
 20
-18.59512188886403
 10
-0.5927894045971129
 20
-19.56060706103585
 10
-0.8530369799480013
 20
-20.520948723168416
 10
-1.0661573926216192
 20
-21.449621234959242
 10
-1.2278860941528364
 20
-22.351931677148084
 10
-1.338025684308434
 20
-23.255315082734857
 10
-1.3939608234757088
 20
-24.093014271896095
 10
-1.3956242206616025
 20
-24.940270334529444
 10
-1.3276085859887417
 20
-25.79128047689453
 10
-1.1816997233275401
 20
-26.653865218733436
 10
-0.9591563672339021
 20
-27.522377063948866
 10
-0.6620616615777521
 20
-28.38900448981772
 10
-0.2901521528493163
 20
-29.24789641235031
 10
0.15781995885026845
 20
-30.0933851668078
 10
0.689386915098396
 20
-30.927038931592744
 10
1.307975078850177
 20
-31.751154114766265
 10
2.0070960028949685
 20
-32.56330036309883
 10
2.7821612094472243
 20
-33.361407171120206
 10
3.6311019580389825
 20
-34.14351061948389
 10
4.55397441441994
 20
-34.90754578513525
 10
5.554906458147116
 20
-35.652666839189685
 10
6.638309103414372
 20
-36.379273029347665
 10
7.809279757677359
 20
-37.08958783497774
 10
9.07167935924582
 20
-37.787822514414344
 10
10.426970656585127
 20
-38.479441174687835
 10
11.876036187879038
 20
-39.169387290186336
 10
13.422339574876048
 20
-39.86147205939013
 10
15.071361037448412
 20
-40.55842193067227
 10
16.829813505612776
 20
-41.2618695557389
 10
18.70466329368253
 20
-41.97128008397
 10
20.7088043956482
 20
-42.68312083154851
 10
22.86258399931046
 20
-43.39479292742718
 10
25.18465606484716
 20
-44.1097147344023
 10
27.689538378021666
 20
-44.83438151901169
 10
30.393183691629247
 20
-45.573865298168286
 10
33.31351315706377
 20
-46.331061734362294
 10
36.46906722862576
 20
-47.10361243912023
 10
39.88388205835133
 20
-47.883340153120066
 10
43.5867819498697
 20
-48.66286074184898
 10
47.61035126024336
 20
-49.437853972057304
 10
51.99057798792711
 20
-50.20917922668351
 10
56.753828122941286
 20
-50.986408699691246
 10
61.9052420836332
 20
-51.77511809628387
 10
67.44006022478447
 20
-52.56422664304106
 10
73.35734735723304
 20
-53.33781509235174
 10
79.6544236193784
 20
-54.08781442178678
 10
86.32167818441275
 20
-54.813554223849046
 10
93.33118208023484
 20
-55.52127508399983
 10
100.62125984313809
 20
-56.21461841956267
 10
108.1164635681063
 20
-56.88319651547336
 10
115.76196926711958
 20
-57.510256211692464
 10
123.53474099213398
 20
-58.080059809742586
 10
131.45368888741018
 20
-58.58685810983605
 10
139.5447589633438
 20
-59.04551354534994
 10
147.78679216056065
 20
-59.47482726242496
 10
156.14339537051129
 20
-59.87526063803084
 10
164.61029885232395
 20
-60.244127614899135
 10
173.18774689112863
 20
-60.59036568708644
 10
181.84736653411176
 20
-60.925371396064286
 10
184.75307277707353
 20
-61.034254387033194
 10
184.71375463874793
 20
-62.08351797831929
 10
190.50895068076792
 20
-62.30067695290899
 10
199.21563503114356
 20
-62.61204104048989
 10
207.91853922585364
 20
-62.89702490082858
 10
216.64369596372518
 20
-63.15092885065106
 10
225.41330931922147
 20
-63.38240834406541
 10
234.22101239631257
 20
-63.60127591816242
 10
243.0456118938954
 20
-63.81173294931003
 10
251.86220479979724
 20
-64.01045633287879
 10
260.6685471531359
 20
-64.18715956240415
 10
269.49274585717274
 20
-64.33796968847989
 10
278.358989816073
 20
-64.4696801040196
 10
287.26671361595925
 20
-64.59501137096771
 10
296.1940919861248
 20
-64.72719203817594
 10
305.1413674340996
 20
-64.86589890948339
 10
314.0980530531061
 20
-64.99790811650169
 10
323.0767749703455
 20
-65.12025389583525
 10
332.0773514872448
 20
-65.23949991870465
 10
341.08502584653655
 20
-65.36090445552787
 10
350.09486265472066
 20
-65.48676139385388
 10
359.1064788196822
 20
-65.61762227828646
 10
368.1171071205919
 20
-65.75099951765297
 10
377.11959503144703
 20
-65.88043143483704
 10
386.12145560091955
 20
-66.00103569497108
 10
395.13137081048933
 20
-66.11728073375777
 10
404.14059871426053
 20
-66.23670434746383
 10
413.150558777719
 20
-66.36190519231526
 10
422.16255136757206
 20
-66.49166319142282
 10
431.1723942686434
 20
-66.62022288532087
 10
440.17793236607594
 20
-66.74273508959733
 10
449.18495075327894
 20
-66.85915821493914
 10
458.19113808195783
 20
-66.97254641556484
 10
467.1883272832455
 20
-67.08818159922765
 10
476.17394234921846
 20
-67.21054322811055
 10
485.1523004646244
 20
-67.34149516134225
 10
494.1284866681764
 20
-67.48067171338896
 10
503.1025857848754
 20
-67.62588131140939
 10
512.067308356829
 20
-67.77693659847768
 10
521.0193799158209
 20
-67.93625062864506
 10
529.9625623347321
 20
-68.10745155708275
 10
538.9094908473332
 20
-68.29324392409796
 10
547.8762367324879
 20
-68.49039550267966
 10
556.8610180783031
 20
-68.6916205138257
 10
565.8496328600626
 20
-68.8901019991438
 10
574.8414464699617
 20
-69.08205266923497
 10
583.834680902295
 20
-69.27180405943484
 10
592.8197298848934
 20
-69.46701598525854
 10
601.8013127264917
 20
-69.67063514342398
 10
610.784847025021
 20
-69.88166391759245
 10
619.7659464933101
 20
-70.09328328843746
 10
628.7357730179995
 20
-70.29944502555537
 10
637.6898126663663
 20
-70.50627310031558
 10
646.6191626492284
 20
-70.72271808348984
 10
655.5340502759989
 20
-70.95396265849286
 10
664.4509605516314
 20
-71.2007237670835
 10
673.3761458641713
 20
-71.45518604665182
 10
682.288223161959
 20
-71.7112091854879
 10
691.1587268158981
 20
-71.96925465473794
 10
699.9655363087797
 20
-72.23666201647826
 10
708.709234060817
 20
-72.52636532885695
 10
717.4164396473444
 20
-72.84197036397458
 10
726.0840588716783
 20
-73.1701506413288
 10
734.6668193279608
 20
-73.51205482961622
 10
743.1594523633231
 20
-73.89132664473718
 10
751.6049384369912
 20
-74.31863867380898
 10
760.0319863328016
 20
-74.78610371303976
 10
768.4254623336371
 20
-75.27292991228542
 10
776.7456345315101
 20
-75.74885215781897
 10
784.9086781812488
 20
-76.23150546118057
 10
792.9072228065629
 20
-76.79159592396825
 10
800.8759811449718
 20
-77.44172808940714
 10
808.846973439158
 20
-78.09469567611825
 10
816.738374911894
 20
-78.72489418872225
 10
824.5191091298344
 20
-79.410098071099
 10
832.261013887226
 20
-80.1834065684247
 10
839.9834862572711
 20
-80.95336631661937
 10
847.6272597802222
 20
-81.67718117343536
 10
855.1601097002747
 20
-82.44877918506175
 10
862.6510474207812
 20
-83.35006476229884
 10
870.1888398797623
 20
-84.31928377047052
 10
877.6877094869405
 20
-85.28210609524716
 10
884.9931575788494
 20
-86.25704233927215
 10
892.141147458033
 20
-87.36408354394467
 10
899.2479691122967
 20
-88.54400399028485
 10
906.2198160688597
 20
-89.74121113126427
 10
912.9602106284005
 20
-90.91116720745474
 10
919.372815342653
 20
-92.07658527226974
 10
925.4374926186651
 20
-93.2258996471568
 10
931.1267456494211
 20
-94.3012980993678
 10
936.412494578595
 20
-95.33290805092675
 10
941.2804028739615
 20
-96.3051785462125
 10
944.2886761957559
 20
-96.93826076148251
  0
LWPOLYLINE
  5
8C
330
17
100
AcDbEntity
  8
Layer
100
AcDbPolyline
 90
5
 70
0
 10
620.2142209414009
 20
14.531172517857536
 10
616.3752826596977
 20
15.654806296841494
 10
617.4989164386817
 20
19.493744578544682
 10
621.3378547203848
 20
18.370110799560724
 10
620.2142209414009
 20
14.531172517857536
  0
LWPOLYLINE
  5
8D
330
17
100
AcDbEntity
  8
Layer
100
AcDbPolyline
 90
5
 70
0
 10
263.59139536911476
 20
62.403765728255834
 10
259.59324274625254
 20
62.28221078471209
 10
259.4716878027088
 20
66.28036340757431
 10
263.469840425571
 20
66.40191835111806
 10
263.59139536911476
 20
62.403765728255834
  0
LWPOLYLINE
  5
8E
330
17
100
AcDbEntity
  8
Layer
100
AcDbPolyline
 90
5
 70
0
 10
101.11355269391821
 20
39.073699467664404
 10
97.28803362525208
 20
37.90519450179058
 10
96.11952865937828
 20
41.73071357045672
 10
99.9450477280444
 20
42.899218536330544
 10
101.11355269391821
 20
39.073699467664404
  0
LWPOLYLINE
  5
8F
330
17
100
AcDbEntity
  8
Layer
100
AcDbPolyline
 90
5
 70
0
 10
17.81945038895542
 20
-1.4851441778810328
 10
16.33677706901032
 20
-2.8274108526975485
 10
13.652243719377292
 20
0.13793578719264588
 10
15.134917039322389
 20
1.4802024620091614
 10
17.81945038895542
 20
-1.4851441778810328
  0
LWPOLYLINE
  5
90
330
17
100
AcDbEntity
  8
Layer
100
AcDbPolyline
 90
5
 70
0
 10
7.817945917114797
 20
-32.35405387210373
 10
9.48027779497847
 20
-33.46610275944557
 10
7.25618002029478
 20
-36.79076651517291
 10
5.593848142431106
 20
-35.67871762783107
 10
7.817945917114797
 20
-32.35405387210373
  0
LWPOLYLINE
  5
91
330
17
100
AcDbEntity
  8
Layer
100
AcDbPolyline
 90
5
 70
0
 10
135.5338700306902
 20
-54.811720686338795
 10
139.52745917186587
 20
-55.03809597536981
 10
139.30108388283486
 20
-59.03168511654547
 10
135.30749474165918
 20
-58.805309827514456
 10
135.5338700306902
 20
-54.811720686338795
  0
LINE
  5
92
330
17
100
AcDbEntity
  8
Layer
100
AcDbLine
 10
926.1105109451237
 20
-87.80681185380554
 30
0.0
 11
925.9065716227824
 21
-88.263329928807
 31
0.0
  0
LINE
  5
93
330
17
100
AcDbEntity
  8
Layer
100
AcDbLine
 10
924.655155267074
 20
-92.56918350109405
 30
0.0
 11
924.5826445398293
 21
-93.06389775643186
 31
0.0
  0
LINE
  5
94
330
17
100
AcDbEntity
  8
Layer
100
AcDbLine
 10
907.4140229338113
 20
-80.66148706154803
 30
0.0
 11
907.222737620936
 21
-81.12345018678442
 31
0.0
  0
LINE
  5
95
330
17
100
AcDbEntity
  8
Layer
100
AcDbLine
 10
904.9752526904263
 20
-89.02019261822782
 30
0.0
 11
904.8946194953865
 21
-89.51364807503994
 31
0.0
  0
LINE
  5
96
330
17
100
AcDbEntity
  8
Layer
100
AcDbLine
 10
869.9832702068945
 20
-66.52867739556855
 30
0.0
 11
869.7992975179702
 21
-66.99360109869619
 31
0.0
  0
LINE
  5
97
330
17
100
AcDbEntity
  8
Layer
100
AcDbLine
 10
865.3945675618829
 20
-83.1988857137658
 30
0.0
 11
865.3178716667574
 21
-83.69296843929958
 31
0.0
  0
LWPOLYLINE
  5
98
330
17
100
AcDbEntity
  8
Layer
100
AcDbPolyline
 90
300
 70
1
 10
405.54515000000004
 20
0.0
 10
405.5342663247376
 20
1.037069525445904
 10
405.50162010487486
 20
2.07368111018407
 10
405.4472257560635
 20
3.1093770157204843
 10
405.37110729731677
 20
4.143699907899292
 10
405.27329834040313
 20
5.1761930588486855
 10
405.1538420750045
 20
6.206400548659072
 10
405.0127912496449
 20
7.2338674667044796
 10
404.85020814839805
 20
8.258140112518271
 10
404.6661645633846
 20
9.278766196134505
 10
404.4607417630706
 20
10.29529503780646
 10
404.23403045638184
 20
11.307277767014101
 10
403.9861307526491
 20
12.314267520672688
 10
403.7171521174029
 20
13.31581964045493
 10
403.4272133240366
 20
14.311491869139568
 10
403.1164424013591
 20
15.300844545899736
 10
402.7849765770614
 20
16.283440800444787
 10
402.4329622171203
 20
17.25884674592993
 10
402.06055476116757
 20
18.22663167054844
 10
401.6679186538521
 20
19.186368227721857
 10
401.2552272722257
 20
20.137632624804223
 10
400.82266284918467
 20
21.080004810216973
 10
400.37041639300116
 20
22.013068658931886
 10
399.8986876029789
 20
22.936412156220193
 10
399.4076847812719
 20
23.849627579586663
 10
398.89762474090384
 20
24.752311678808415
 10
398.3687327100299
 20
25.644065853998818
 10
397.8212422324819
 20
26.524496331618018
 10
397.2553950646423
 20
27.393214338352216
 10
396.67144106869114
 20
28.24983627278506
 10
396.069638102274
 20
29.093983874785188
 10
395.4502519046395
 20
29.925284392535296
 10
394.81355597929604
 20
30.743370747128793
 10
394.15983147324056
 20
31.547881694661566
 10
393.48936705281176
 20
32.3384619857471
 10
392.8024587762235
 20
33.114762522384595
 10
392.0994099628333
 20
33.87644051211081
 10
391.38053105920557
 20
34.623159619367605
 10
390.646139502027
 20
35.354590114018215
 10
389.8965595779351
 20
36.070409016946805
 10
389.1321222803229
 20
36.770300242676974
 10
388.3531651631813
 20
37.45395473894618
 10
387.56003219204456
 20
38.121070623174525
 10
386.75307359210524
 20
38.77135331576761
 10
385.93264569356415
 20
39.404515670194606
 10
385.09911077428546
 20
40.02027809978403
 10
384.2528368998244
 20
40.6183687011814
 10
383.3941977609004
 20
41.19852337441408
 10
382.5235725083856
 20
41.76048593951039
 10
381.6413455858823
 20
42.304008249621475
 10
380.74790655996384
 20
42.82885030059597
 10
379.84364994815274
 20
43.334780336959064
 10
378.92897504471284
 20
43.82157495424922
 10
378.00428574433244
 20
44.289019197667265
 10
377.0699903637755
 20
44.7369066569944
 10
376.1265014615805
 20
45.16503955773712
 10
375.1742356558865
 20
45.57322884845891
 10
374.2136134404658
 20
45.96129428425998
 10
373.24505899904614
 20
46.32906450636837
 10
372.269000018003
 20
46.67637711780713
 10
371.2858674975051
 20
47.00307875510432
 10
370.29609556119726
 20
47.30902515601393
 10
369.30012126450333
 20
47.59408122321807
 10
368.2983844016349
 20
47.85812108398209
 10
367.2913273113906
 20
48.10102814573654
 10
366.2793946818316
 20
48.322695147561035
 10
365.2630333539201
 20
48.52302420754776
 10
364.24269212420677
 20
48.701926866023314
 10
363.21882154665485
 20
48.85932412461003
 10
362.1918737336882
 20
48.995146481109444
 10
361.16230215655145
 20
49.109333960192465
 10
360.13056144506925
 20
49.201836139882836
 10
359.09710718689513
 20
49.27261217382206
 10
358.06239572633666
 20
49.32163080930597
 10
357.02688396284645
 20
49.34887040108507
 10
355.99102914926846
 20
49.35431892092246
 10
354.9552886899278
 20
49.337973962905146
 10
353.92011993865407
 20
49.29984274450648
 10
352.8859799968266
 20
49.23994210339905
 10
351.8533255115315
 20
49.15829849001971
 10
350.8226124739191
 20
49.054947955889766
 10
349.794296017851
 20
48.92993613769565
 10
348.7688302189259
 20
48.78331823713705
 10
347.7466678939727
 20
48.615158996551386
 10
346.72826040109885
 20
48.42553267032544
 10
345.71405744038407
 20
48.21452299210665
 10
344.70450685530466
 20
47.98222313782878
 10
343.70005443497905
 20
47.72873568456795
 10
342.70114371731955
 20
47.45417256524757
 10
341.7082157931786
 20
47.15865501921186
 10
340.7217091115755
 20
46.842313538689986
 10
339.74205928608944
 20
46.50528781117438
 10
338.7696989025052
 20
46.14772665773864
 10
337.80505732779505
 20
45.76978796732238
 10
336.8485605205226
 20
45.37163862701186
 10
335.90063084275147
 20
44.953454448347415
 10
334.961686873542
 20
44.51542008968999
 10
334.0321432241188
 20
44.05772897468116
 10
333.1124103547896
 20
43.58058320683281
 10
332.202894393698
 20
43.08419348028382
 10
331.30399695748844
 20
42.56877898676349
 10
330.41611497396383
 20
42.03456731880264
 10
329.5396405068132
 20
41.48179436923518
 10
328.6749605824874
 20
40.91070422703444
 10
327.82245701929935
 20
40.32154906953036
 10
326.9825062588236
 20
39.714589051055114
 10
326.15547919967037
 20
39.09009218806625
 10
325.3417410337072
 20
38.44833424079813
 10
324.54165108480055
 20
37.78959859149407
 10
323.7555626501484
 20
37.11417611927262
 10
322.98382284427424
 20
36.42236507168362
 10
322.2267724457509
 20
35.714470933010375
 10
321.4847457467226
 20
34.99080628937651
 10
320.7580704052906
 20
34.25169069071664
 10
320.0470673008291
 20
33.49745050967221
 10
319.3520503922934
 20
32.72841879747444
 10
318.6733265795848
 20
31.944935136878286
 10
318.01119556803206
 20
31.147345492212338
 10
317.36594973605025
 20
30.336002056610575
 10
316.7378740060343
 20
29.51126309649393
 10
316.1272457185455
 20
28.67349279336983
 10
315.5343345098458
 20
27.823061083019955
 10
314.95940219283375
 20
26.96034349214695
 10
314.4027026414356
 20
26.085720972552462
 10
313.86448167850153
 20
25.199579732919513
 10
313.34497696725714
 20
24.302311068273653
 10
312.84441790635833
 20
23.394311187198003
 10
312.363025528595
 20
22.475981036878824
 10
311.90101240328954
 20
21.547726126058453
 10
311.4585825424318
 20
20.60995634597406
 10
311.0359313105935
 20
19.66308578936124
 10
310.63324533866046
 20
18.707532567602293
 10
310.2507024414218
 20
17.743718626100055
 10
309.8884715390519
 20
16.772069557958574
 10
309.54671258252006
 20
15.793014416053328
 10
309.2255764829606
 20
14.806985523573458
 10
308.9252050450347
 20
13.81441828312003
 10
308.64573090431355
 20
12.815750984444525
 10
308.3872774687102
 20
11.811424610912406
 10
308.14995886398606
 20
10.801882644777281
 10
307.9338798833561
 20
9.787570871351653
 10
307.7391359412154
 20
8.76893718216058
 10
307.5658130310064
 20
7.746431377165521
 10
307.41398768724724
 20
6.720504966145252
 10
307.28372695173545
 20
5.691610969321869
 10
307.17508834394494
 20
4.660203717319821
 10
307.0881198356266
 20
3.6267386505462946
 10
307.0228598296255
 20
2.591672118081569
 10
306.979337142923
 20
1.5554611761680244
 10
306.9575709939124
 20
0.5185633863871033
 10
306.9575709939124
 20
-0.5185633863870911
 10
306.979337142923
 20
-1.555461176168012
 10
307.0228598296255
 20
-2.5916721180815565
 10
307.0881198356266
 20
-3.626738650546304
 10
307.17508834394494
 20
-4.660203717319831
 10
307.28372695173545
 20
-5.691610969321856
 10
307.41398768724724
 20
-6.720504966145241
 10
307.5658130310064
 20
-7.746431377165511
 10
307.73913594121535
 20
-8.768937182160569
 10
307.9338798833561
 20
-9.787570871351642
 10
308.14995886398606
 20
-10.801882644777292
 10
308.3872774687102
 20
-11.811424610912416
 10
308.64573090431355
 20
-12.815750984444515
 10
308.9252050450347
 20
-13.814418283120022
 10
309.2255764829606
 20
-14.806985523573447
 10
309.54671258252006
 20
-15.793014416053317
 10
309.8884715390519
 20
-16.772069557958563
 10
310.25070244142177
 20
-17.743718626100044
 10
310.63324533866046
 20
-18.707532567602303
 10
311.0359313105935
 20
-19.663085789361247
 10
311.4585825424318
 20
-20.60995634597405
 10
311.90101240328954
 20
-21.547726126058443
 10
312.363025528595
 20
-22.475981036878814
 10
312.84441790635833
 20
-23.394311187197992
 10
313.34497696725714
 20
-24.302311068273642
 10
313.86448167850153
 20
-25.199579732919528
 10
314.4027026414356
 20
-26.085720972552473
 10
314.95940219283375
 20
-26.96034349214694
 10
315.5343345098458
 20
-27.823061083019944
 10
316.1272457185455
 20
-28.673492793369824
 10
316.7378740060343
 20
-29.511263096493916
 10
317.36594973605025
 20
-30.336002056610567
 10
318.01119556803206
 20
-31.14734549221233
 10
318.6733265795848
 20
-31.944935136878296
 10
319.3520503922934
 20
-32.72841879747445
 10
320.0470673008291
 20
-33.49745050967221
 10
320.7580704052906
 20
-34.251690690716636
 10
321.4847457467225
 20
-34.99080628937649
 10
322.2267724457509
 20
-35.71447093301036
 10
322.98382284427424
 20
-36.42236507168361
 10
323.7555626501484
 20
-37.11417611927262
 10
324.54165108480055
 20
-37.789598591494055
 10
325.3417410337072
 20
-38.448334240798125
 10
326.15547919967037
 20
-39.09009218806624
 10
326.9825062588236
 20
-39.714589051055114
 10
327.82245701929935
 20
-40.32154906953035
 10
328.6749605824874
 20
-40.91070422703443
 10
329.53964050681316
 20
-41.481794369235175
 10
330.41611497396383
 20
-42.03456731880264
 10
331.30399695748844
 20
-42.56877898676349
 10
332.202894393698
 20
-43.08419348028382
 10
333.1124103547896
 20
-43.58058320683282
 10
334.03214322411884
 20
-44.05772897468117
 10
334.9616868735421
 20
-44.51542008968999
 10
335.9006308427514
 20
-44.95345444834741
 10
336.8485605205226
 20
-45.37163862701185
 10
337.805057327795
 20
-45.769787967322365
 10
338.7696989025052
 20
-46.14772665773864
 10
339.74205928608944
 20
-46.50528781117437
 10
340.7217091115755
 20
-46.84231353868998
 10
341.7082157931786
 20
-47.15865501921185
 10
342.70114371731955
 20
-47.45417256524757
 10
343.70005443497905
 20
-47.72873568456795
 10
344.70450685530466
 20
-47.98222313782878
 10
345.71405744038407
 20
-48.21452299210665
 10
346.7282604010989
 20
-48.42553267032544
 10
347.7466678939727
 20
-48.615158996551386
 10
348.768830218926
 20
-48.78331823713705
 10
349.794296017851
 20
-48.92993613769565
 10
350.8226124739191
 20
-49.054947955889766
 10
351.85332551153147
 20
-49.15829849001971
 10
352.88597999682656
 20
-49.23994210339905
 10
353.920119938654
 20
-49.29984274450648
 10
354.9552886899278
 20
-49.337973962905146
 10
355.99102914926846
 20
-49.35431892092246
 10
357.02688396284645
 20
-49.34887040108507
 10
358.06239572633666
 20
-49.32163080930597
 10
359.09710718689513
 20
-49.27261217382206
 10
360.13056144506925
 20
-49.201836139882836
 10
361.16230215655145
 20
-49.109333960192465
 10
362.1918737336882
 20
-48.995146481109444
 10
363.21882154665485
 20
-48.85932412461003
 10
364.24269212420677
 20
-48.701926866023314
 10
365.2630333539201
 20
-48.523024207547756
 10
366.27939468183155
 20
-48.32269514756104
 10
367.29132731139055
 20
-48.10102814573654
 10
368.2983844016349
 20
-47.8581210839821
 10
369.30012126450333
 20
-47.59408122321807
 10
370.29609556119726
 20
-47.30902515601394
 10
371.2858674975051
 20
-47.003078755104326
 10
372.26900001800294
 20
-46.67637711780713
 10
373.24505899904614
 20
-46.32906450636837
 10
374.2136134404658
 20
-45.96129428425998
 10
375.1742356558865
 20
-45.57322884845891
 10
376.1265014615805
 20
-45.16503955773712
 10
377.0699903637755
 20
-44.73690665699439
 10
378.0042857443325
 20
-44.28901919766726
 10
378.92897504471284
 20
-43.821574954249215
 10
379.84364994815274
 20
-43.33478033695906
 10
380.74790655996384
 20
-42.82885030059599
 10
381.6413455858823
 20
-42.30400824962149
 10
382.52357250838554
 20
-41.76048593951041
 10
383.3941977609004
 20
-41.198523374414094
 10
384.2528368998244
 20
-40.61836870118141
 10
385.0991107742854
 20
-40.020278099784036
 10
385.93264569356415
 20
-39.40451567019461
 10
386.75307359210524
 20
-38.77135331576761
 10
387.56003219204456
 20
-38.121070623174525
 10
388.3531651631813
 20
-37.45395473894618
 10
389.1321222803229
 20
-36.770300242676974
 10
389.8965595779351
 20
-36.070409016946805
 10
390.646139502027
 20
-35.354590114018215
 10
391.3805310592056
 20
-34.6231596193676
 10
392.0994099628333
 20
-33.876440512110804
 10
392.80245877622343
 20
-33.11476252238461
 10
393.48936705281176
 20
-32.33846198574712
 10
394.15983147324056
 20
-31.547881694661584
 10
394.81355597929604
 20
-30.743370747128804
 10
395.4502519046395
 20
-29.925284392535303
 10
396.069638102274
 20
-29.0939838747852
 10
396.67144106869114
 20
-28.249836272785068
 10
397.2553950646423
 20
-27.393214338352216
 10
397.8212422324819
 20
-26.524496331618018
 10
398.3687327100299
 20
-25.644065853998818
 10
398.89762474090384
 20
-24.75231167880841
 10
399.4076847812719
 20
-23.849627579586663
 10
399.8986876029789
 20
-22.936412156220182
 10
400.37041639300116
 20
-22.013068658931875
 10
400.82266284918467
 20
-21.080004810216955
 10
401.2552272722256
 20
-20.137632624804247
 10
401.6679186538521
 20
-19.186368227721875
 10
402.06055476116757
 20
-18.226631670548453
 10
402.4329622171203
 20
-17.258846745929947
 10
402.7849765770614
 20
-16.2834408004448
 10
403.1164424013591
 20
-15.300844545899746
 10
403.4272133240366
 20
-14.311491869139576
 10
403.7171521174029
 20
-13.315819640454936
 10
403.9861307526491
 20
-12.314267520672692
 10
404.23403045638184
 20
-11.307277767014101
 10
404.4607417630706
 20
-10.295295037806456
 10
404.6661645633846
 20
-9.2787661961345
 10
404.85020814839805
 20
-8.258140112518262
 10
405.0127912496449
 20
-7.233867466704469
 10
405.1538420750045
 20
-6.206400548659059
 10
405.2732983404031
 20
-5.176193058848712
 10
405.37110729731677
 20
-4.143699907899316
 10
405.4472257560635
 20
-3.1093770157205056
 10
405.50162010487486
 20
-2.0736811101840877
 10
405.5342663247376
 20
-1.037069525445919
 10
405.54515000000004
 20
-1.2088488554383521e-14
  0
LINE
  5
99
330
17
100
AcDbEntity
  8
Layer
100
AcDbLine
 10
678.239089507327
 20
-3.9432290782551854e-14
 30
0.0
 11
682.239089507327
 21
-3.9922149502210795e-14
 31
0.0
  0
LINE
  5
9A
330
17
100
AcDbEntity
  8
Layer
100
AcDbLine
 10
15.504954331312888
 20
4.1729232950347645e-14
 30
0.0
 11
11.504954331312888
 21
4.2219091670006585e-14
 31
0.0
  0
LINE
  5
9B
330
17
100
AcDbEntity
  8
Layer
100
AcDbLine
 10
152.3517813665157
 20
2.4970330080134388e-14
 30
0.0
 11
141.3517813665157
 21
2.6317441559196474e-14
 31
0.0
  0
LWPOLYLINE
  5
9C
330
17
100
AcDbEntity
  8
Layer
100
AcDbPolyline
 90
5
 70
0
 10
141.8517813665157
 20
-4.999999999999973
 10
141.8517813665157
 20
5.000000000000027
 10
151.8517813665157
 20
5.000000000000025
 10
151.8517813665157
 20
-4.999999999999975
 10
141.8517813665157
 20
-4.999999999999973
  0
LINE
  5
9D
330
17
100
AcDbEntity
  8
Layer
100
AcDbLine
 10
352.37202191931993
 20
4.749153443668508e-16
 30
0.0
 11
341.37202191931993
 21
1.8220268234289397e-15
 31
0.0
  0
LWPOLYLINE
  5
9E
330
17
100
AcDbEntity
  8
Layer
100
AcDbPolyline
 90
5
 70
0
 10
341.87202191931993
 20
-4.999999999999998
 10
341.87202191931993
 20
5.000000000000002
 10
351.87202191931993
 20
5.000000000000001
 10
351.87202191931993
 20
-4.999999999999999
 10
341.87202191931993
 20
-4.999999999999998
  0
LINE
  5
9F
330
17
100
AcDbEntity
  8
Layer
100
AcDbLine
 10
552.3922624721242
 20
-2.4020499391400678e-14
 30
0.0
 11
541.3922624721242
 21
-2.267338791233859e-14
 31
0.0
  0
LWPOLYLINE
  5
A0
330
17
100
AcDbEntity
  8
Layer
100
AcDbPolyline
 90
5
 70
0
 10
541.8922624721242
 20
-5.000000000000023
 10
541.8922624721242
 20
4.999999999999977
 10
551.8922624721242
 20
4.999999999999976
 10
551.8922624721242
 20
-5.000000000000024
 10
541.8922624721242
 20
-5.000000000000023
  0
LINE
  5
A1
330
17
100
AcDbEntity
  8
Layer
100
AcDbLine
 10
0.6632496556653109
 20
-23.349944944584767
 30
0.0
 11
-3.3249613532423723
 21
-23.04306883207749
 31
0.0
  0
LINE
  5
A2
330
17
100
AcDbEntity
  8
Layer
100
AcDbLine
 10
601.0350979084309
 20
-69.54604099845868
 30
0.0
 11
605.0233089173386
 21
-69.85291711096595
 31
0.0
  0
LINE
  5
A3
330
17
100
AcDbEntity
  8
Layer
100
AcDbLine
 10
934.573271467759
 20
-95.21040475605668
 30
0.0
 11
938.5614824766667
 21
-95.51728086856394
 31
0.0
  0
LINE
  5
A4
330
17
100
AcDbEntity
  8
Layer
100
AcDbLine
 10
356.25000000000006
 20
49.35499999999999
 30
0.0
 11
356.25000000000006
 21
49.85499999999999
 31
0.0
  0
LINE
  5
A5
330
17
100
AcDbEntity
  8
Layer
100
AcDbLine
 10
356.25000000000006
 20
-49.35499999999999
 30
0.0
 11
356.25000000000006
 21
-49.85499999999999
 31
0.0
  0
LINE
  5
A6
330
17
100
AcDbEntity
  8
Layer
100
AcDbLine
 10
405.54515000000004
 20
0.0
 30
0.0
 11
406.04515000000004
 21
0.0
 31
0.0
  0
LINE
  5
A7
330
17
100
AcDbEntity
  8
Layer
100
AcDbLine
 10
306.9548500000001
 20
0.0
 30
0.0
 11
306.4548500000001
 21
0.0
 31
0.0
  0
LINE
  5
A8
330
17
100
AcDbEntity
  8
Layer
100
AcDbLine
 10
206.25000000000006
 20
60.64609897757212
 30
0.0
 11
206.25000000000006
 21
64.64609897757212
 31
0.0
  0
LINE
  5
A9
330
17
100
AcDbEntity
  8
Layer
100
AcDbLine
 10
206.25000000000006
 20
-60.842387191499405
 30
0.0
 11
206.25000000000006
 21
-64.8423871914994
 31
0.0
  0
LINE
  5
AA
330
17
100
AcDbEntity
  8
Layer
100
AcDbLine
 10
206.25000000000006
 20
-32.2446899576851
 30
0.0
 11
206.25000000000006
 21
-43.2446899576851
 31
0.0
  0
LWPOLYLINE
  5
AB
330
17
100
AcDbEntity
  8
Layer
100
AcDbPolyline
 90
5
 70
0
 10
211.25000000000006
 20
-42.7446899576851
 10
201.25000000000006
 20
-42.7446899576851
 10
201.25000000000006
 20
-32.7446899576851
 10
211.25000000000006
 20
-32.7446899576851
 10
211.25000000000006
 20
-42.7446899576851
  0
LINE
  5
AC
330
17
100
AcDbEntity
  8
Layer
100
AcDbLine
 10
206.25000000000006
 20
5.401855893036359
 30
0.0
 11
206.25000000000006
 21
-5.598144106963641
 31
0.0
  0
LWPOLYLINE
  5
AD
330
17
100
AcDbEntity
  8
Layer
100
AcDbPolyline
 90
5
 70
0
 10
211.25000000000006
 20
-5.098144106963641
 10
201.25000000000006
 20
-5.098144106963641
 10
201.25000000000006
 20
4.901855893036359
 10
211.25000000000006
 20
4.901855893036359
 10
211.25000000000006
 20
-5.098144106963641
  0
LINE
  5
AE
330
17
100
AcDbEntity
  8
Layer
100
AcDbLine
 10
206.25000000000006
 20
43.04840174375782
 30
0.0
 11
206.25000000000006
 21
32.04840174375782
 31
0.0
  0
LWPOLYLINE
  5
AF
330
17
100
AcDbEntity
  8
Layer
100
AcDbPolyline
 90
5
 70
0
 10
211.25000000000006
 20
32.54840174375782
 10
201.25000000000006
 20
32.54840174375782
 10
201.25000000000006
 20
42.54840174375782
 10
211.25000000000006
 20
42.54840174375782
 10
211.25000000000006
 20
32.54840174375782
  0
LINE
  5
B0
330
17
100
AcDbEntity
  8
Layer
100
AcDbLine
 10
456.25000000000006
 20
52.283513677795426
 30
0.0
 11
456.25000000000006
 21
56.283513677795426
 31
0.0
  0
LINE
  5
B1
330
17
100
AcDbEntity
  8
Layer
100
AcDbLine
 10
456.25000000000006
 20
-64.9481074219878
 30
0.0
 11
456.25000000000006
 21
-68.9481074219878
 31
0.0
  0
LINE
  5
B2
330
17
100
AcDbEntity
  8
Layer
100
AcDbLine
 10
456.25000000000006
 20
-37.20178320203115
 30
0.0
 11
456.25000000000006
 21
-48.20178320203115
 31
0.0
  0
LWPOLYLINE
  5
B3
330
17
100
AcDbEntity
  8
Layer
100
AcDbPolyline
 90
5
 70
0
 10
461.25000000000006
 20
-47.70178320203115
 10
451.25000000000006
 20
-47.70178320203115
 10
451.25000000000006
 20
-37.70178320203115
 10
461.25000000000006
 20
-37.70178320203115
 10
461.25000000000006
 20
-47.70178320203115
  0
LINE
  5
B4
330
17
100
AcDbEntity
  8
Layer
100
AcDbLine
 10
456.25000000000006
 20
-0.8322968720961867
 30
0.0
 11
456.25000000000006
 21
-11.832296872096187
 31
0.0
  0
LWPOLYLINE
  5
B5
330
17
100
AcDbEntity
  8
Layer
100
AcDbPolyline
 90
5
 70
0
 10
461.25000000000006
 20
-11.332296872096187
 10
451.25000000000006
 20
-11.332296872096187
 10
451.25000000000006
 20
-1.3322968720961867
 10
461.25000000000006
 20
-1.3322968720961867
 10
461.25000000000006
 20
-11.332296872096187
  0
LINE
  5
B6
330
17
100
AcDbEntity
  8
Layer
100
AcDbLine
 10
456.25000000000006
 20
35.537189457838785
 30
0.0
 11
456.25000000000006
 21
24.537189457838785
 31
0.0
  0
LWPOLYLINE
  5
B7
330
17
100
AcDbEntity
  8
Layer
100
AcDbPolyline
 90
5
 70
0
 10
461.25000000000006
 20
25.037189457838785
 10
451.25000000000006
 20
25.037189457838785
 10
451.25000000000006
 20
35.037189457838785
 10
461.25000000000006
 20
35.037189457838785
 10
461.25000000000006
 20
25.037189457838785
  0
ENDSEC
  0
SECTION
  2
OBJECTS
  0
DICTIONARY
  5
A
330
0
100
AcDbDictionary
280
0
281
1
  3
ACAD_COLOR
350
B
  3
ACAD_GROUP
350
C
  3
ACAD_LAYOUT
350
D
  3
ACAD_MATERIAL
350
E
  3
ACAD_MLEADERSTYLE
350
F
  3
ACAD_MLINESTYLE
350
10
  3
ACAD_PLOTSETTINGS
350
11
  3
ACAD_PLOTSTYLENAME
350
12
  3
ACAD_SCALELIST
350
14
  3
ACAD_TABLESTYLE
350
15
  3
ACAD_VISUALSTYLE
350
16
  3
EZDXF_META
350
2D
  0
DICTIONARY
  5
B
330
A
100
AcDbDictionary
280
0
281
1
  0
DICTIONARY
  5
C
330
A
100
AcDbDictionary
280
0
281
1
  0
DICTIONARY
  5
D
330
A
100
AcDbDictionary
280
0
281
1
  3
Model
350
1A
  3
Layout1
350
1E
  0
DICTIONARY
  5
E
330
A
100
AcDbDictionary
280
0
281
1
  3
ByBlock
350
1F
  3
ByLayer
350
20
  3
Global
350
21
  0
DICTIONARY
  5
F
330
A
100
AcDbDictionary
280
0
281
1
  3
Standard
350
2C
  0
DICTIONARY
  5
10
330
A
100
AcDbDictionary
280
0
281
1
  3
Standard
350
22
  0
DICTIONARY
  5
11
330
A
100
AcDbDictionary
280
0
281
1
  0
ACDBDICTIONARYWDFLT
  5
12
330
A
100
AcDbDictionary
280
0
281
1
  3
Normal
350
13
100
AcDbDictionaryWithDefault
340
13
  0
ACDBPLACEHOLDER
  5
13
330
12
  0
DICTIONARY
  5
14
330
A
100
AcDbDictionary
280
0
281
1
  0
DICTIONARY
  5
15
330
A
100
AcDbDictionary
280
0
281
1
  0
DICTIONARY
  5
16
330
A
100
AcDbDictionary
280
0
281
1
  3
2dWireframe
350
5A
  3
Basic
350
5B
  3
Brighten
350
5C
  3
ColorChange
350
5D
  3
Conceptual
350
5E
  3
Dim
350
5F
  3
EdgeColorOff
350
60
  3
Facepattern
350
61
  3
Flat
350
62
  3
FlatWithEdges
350
63
  3
Gouraud
350
64
  3
GouraudWithEdges
350
65
  3
Hidden
350
66
  3
JitterOff
350
67
  3
Linepattern
350
68
  3
Modeling
350
69
  3
OverhangOff
350
6A
  3
Realistic
350
6B
  3
Shaded
350
6C
  3
Shaded with edges
350
6D
  3
Shades of Gray
350
6E
  3
Sketchy
350
6F
  3
Thicken
350
70
  3
Wireframe
350
71
  3
X-Ray
350
72
  0
LAYOUT
  5
1A
330
D
100
AcDbPlotSettings
  1

  2
Adobe PDF
  4
A3
  6

 40
7.5
 41
20.0
 42
7.5
 43
20.0
 44
420.0
 45
297.0
 46
0.0
 47
0.0
 48
0.0
 49
0.0
140
0.0
141
0.0
142
1.0
143
1.0
 70
1024
 72
1
 73
0
 74
5
  7

 75
16
 76
0
 77
2
 78
300
147
1.0
148
0.0
149
0.0
100
AcDbLayout
  1
Model
 70
1
 71
0
 10
0.0
 20
0.0
 11
420.0
 21
297.0
 12
0.0
 22
0.0
 32
0.0
 14
1e+20
 24
1e+20
 34
1e+20
 15
-1e+20
 25
-1e+20
 35
-1e+20
146
0.0
 13
0.0
 23
0.0
 33
0.0
 16
1.0
 26
0.0
 36
0.0
 17
0.0
 27
1.0
 37
0.0
 76
1
330
17
  0
LAYOUT
  5
1E
330
D
100
AcDbPlotSettings
  1

  2
Adobe PDF
  4
A3
  6

 40
7.5
 41
20.0
 42
7.5
 43
20.0
 44
420.0
 45
297.0
 46
0.0
 47
0.0
 48
0.0
 49
0.0
140
0.0
141
0.0
142
1.0
143
1.0
 70
0
 72
1
 73
0
 74
5
  7

 75
16
 76
0
 77
2
 78
300
147
1.0
148
0.0
149
0.0
100
AcDbLayout
  1
Layout1
 70
1
 71
1
 10
0.0
 20
0.0
 11
420.0
 21
297.0
 12
0.0
 22
0.0
 32
0.0
 14
1e+20
 24
1e+20
 34
1e+20
 15
-1e+20
 25
-1e+20
 35
-1e+20
146
0.0
 13
0.0
 23
0.0
 33
0.0
 16
1.0
 26
0.0
 36
0.0
 17
0.0
 27
1.0
 37
0.0
 76
1
330
1B
  0
MATERIAL
  5
1F
102
{ACAD_REACTORS
330
E
102
}
330
E
100
AcDbMaterial
  1
ByBlock
  2

 70
0
 40
1.0
 71
1
 41
1.0
 91
-1023410177
 42
1.0
 72
1
  3

 73
1
 74
1
 75
1
 44
0.5
 73
0
 45
1.0
 46
1.0
 77
1
  4

 78
1
 79
1
170
1
 48
1.0
171
1
  6

172
1
173
1
174
1
140
1.0
141
1.0
175
1
  7

176
1
177
1
178
1
143
1.0
179
1
  8

270
1
271
1
272
1
145
1.0
146
1.0
273
1
  9

274
1
275
1
276
1
 42
1.0
 72
1
  3

 73
1
 74
1
 75
1
 94
63
  0
MATERIAL
  5
20
102
{ACAD_REACTORS
330
E
102
}
330
E
100
AcDbMaterial
  1
ByLayer
  2

 70
0
 40
1.0
 71
1
 41
1.0
 91
-1023410177
 42
1.0
 72
1
  3

 73
1
 74
1
 75
1
 44
0.5
 73
0
 45
1.0
 46
1.0
 77
1
  4

 78
1
 79
1
170
1
 48
1.0
171
1
  6

172
1
173
1
174
1
140
1.0
141
1.0
175
1
  7

176
1
177
1
178
1
143
1.0
179
1
  8

270
1
271
1
272
1
145
1.0
146
1.0
273
1
  9

274
1
275
1
276
1
 42
1.0
 72
1
  3

 73
1
 74
1
 75
1
 94
63
  0
MATERIAL
  5
21
102
{ACAD_REACTORS
330
E
102
}
330
E
100
AcDbMaterial
  1
Global
  2

 70
0
 40
1.0
 71
1
 41
1.0
 91
-1023410177
 42
1.0
 72
1
  3

 73
1
 74
1
 75
1
 44
0.5
 73
0
 45
1.0
 46
1.0
 77
1
  4

 78
1
 79
1
170
1
 48
1.0
171
1
  6

172
1
173
1
174
1
140
1.0
141
1.0
175
1
  7

176
1
177
1
178
1
143
1.0
179
1
  8

270
1
271
1
272
1
145
1.0
146
1.0
273
1
  9

274
1
275
1
276
1
 42
1.0
 72
1
  3

 73
1
 74
1
 75
1
 94
63
  0
MLINESTYLE
  5
22
102
{ACAD_REACTORS
330
10
102
}
330
10
100
AcDbMlineStyle
  2
Standard
 70
0
  3

 62
256
 51
90.0
 52
90.0
 71
2
 49
0.5
 62
256
  6
BYLAYER
 49
-0.5
 62
256
  6
BYLAYER
  0
MLEADERSTYLE
  5
2C
102
{ACAD_REACTORS
330
F
102
}
330
F
100
AcDbMLeaderStyle
179
2
170
2
171
1
172
0
 90
2
 40
0.0
 41
0.0
173
1
 91
-1056964608
 92
-2
290
1
 42
2.0
291
1
 43
8.0
  3
Standard
 44
4.0
300

342
29
174
1
175
1
176
0
178
1
 93
-1056964608
 45
4.0
292
0
297
0
 46
4.0
 94
-1056964608
 47
1.0
 49
1.0
140
1.0
294
1
141
0.0
177
0
142
1.0
295
0
296
0
143
3.75
271
0
272
9
273
9
  0
DICTIONARY
  5
2D
330
A
100
AcDbDictionary
281
1
  3
CREATED_BY_EZDXF
350
2E
  3
WRITTEN_BY_EZDXF
350
BA
  0
DICTIONARYVAR
  5
2E
330
2D
100
DictionaryVariables
280
0
  1
1.1.0 @ 2024-03-25T20:08:50.533951+00:00
  0
VISUALSTYLE
  5
5A
102
{ACAD_REACTORS
330
16
102
}
330
16
100
AcDbVisualStyle
  2
2dWireframe
 70
4
 90
0
 40
0.6
 62
7
290
0
291
0
  0
VISUALSTYLE
  5
5B
102
{ACAD_REACTORS
330
16
102
}
330
16
100
AcDbVisualStyle
  2
Basic
 70
7
 90
1
 40
0.6
 62
7
290
0
291
1
  0
VISUALSTYLE
  5
5C
102
{ACAD_REACTORS
330
16
102
}
330
16
100
AcDbVisualStyle
  2
Brighten
 70
12
 90
2
 40
0.6
 62
7
290
0
291
1
  0
VISUALSTYLE
  5
5D
102
{ACAD_REACTORS
330
16
102
}
330
16
100
AcDbVisualStyle
  2
ColorChange
 70
16
 90
2
 40
0.6
 62
8
290
0
291
1
  0
VISUALSTYLE
  5
5E
102
{ACAD_REACTORS
330
16
102
}
330
16
100
AcDbVisualStyle
  2
Conceptual
 70
9
 90
3
 40
0.6
 62
7
290
0
291
0
  0
VISUALSTYLE
  5
5F
102
{ACAD_REACTORS
330
16
102
}
330
16
100
AcDbVisualStyle
  2
Dim
 70
11
 90
2
 40
0.6
 62
7
290
0
291
1
  0
VISUALSTYLE
  5
60
102
{ACAD_REACTORS
330
16
102
}
330
16
100
AcDbVisualStyle
  2
EdgeColorOff
 70
22
 90
2
 40
0.6
 62
7
290
0
291
1
  0
VISUALSTYLE
  5
61
102
{ACAD_REACTORS
330
16
102
}
330
16
100
AcDbVisualStyle
  2
Facepattern
 70
15
 90
2
 40
0.6
 62
7
290
0
291
1
  0
VISUALSTYLE
  5
62
102
{ACAD_REACTORS
330
16
102
}
330
16
100
AcDbVisualStyle
  2
Flat
 70
0
 90
2
 40
0.6
 62
7
290
0
291
1
  0
VISUALSTYLE
  5
63
102
{ACAD_REACTORS
330
16
102
}
330
16
100
AcDbVisualStyle
  2
FlatWithEdges
 70
1
 90
2
 40
0.6
 62
7
290
0
291
1
  0
VISUALSTYLE
  5
64
102
{ACAD_REACTORS
330
16
102
}
330
16
100
AcDbVisualStyle
  2
Gouraud
 70
2
 90
2
 40
0.6
 62
7
290
0
291
1
  0
VISUALSTYLE
  5
65
102
{ACAD_REACTORS
330
16
102
}
330
16
100
AcDbVisualStyle
  2
GouraudWithEdges
 70
3
 90
2
 40
0.6
 62
7
290
0
291
1
  0
VISUALSTYLE
  5
66
102
{ACAD_REACTORS
330
16
102
}
330
16
100
AcDbVisualStyle
  2
Hidden
 70
6
 90
1
 40
0.6
 62
7
290
0
291
0
  0
VISUALSTYLE
  5
67
102
{ACAD_REACTORS
330
16
102
}
330
16
100
AcDbVisualStyle
  2
JitterOff
 70
20
 90
2
 40
0.6
 62
7
290
0
291
1
  0
VISUALSTYLE
  5
68
102
{ACAD_REACTORS
330
16
102
}
330
16
100
AcDbVisualStyle
  2
Linepattern
 70
14
 90
2
 40
0.6
 62
7
290
0
291
1
  0
VISUALSTYLE
  5
69
102
{ACAD_REACTORS
330
16
102
}
330
16
100
AcDbVisualStyle
  2
Modeling
 70
10
 90
2
 40
0.6
 62
7
290
0
291
0
  0
VISUALSTYLE
  5
6A
102
{ACAD_REACTORS
330
16
102
}
330
16
100
AcDbVisualStyle
  2
OverhangOff
 70
21
 90
2
 40
0.6
 62
7
290
0
291
1
  0
VISUALSTYLE
  5
6B
102
{ACAD_REACTORS
330
16
102
}
330
16
100
AcDbVisualStyle
  2
Realistic
 70
8
 90
2
 40
0.6
 62
7
290
0
291
0
  0
VISUALSTYLE
  5
6C
102
{ACAD_REACTORS
330
16
102
}
330
16
100
AcDbVisualStyle
  2
Shaded
 70
27
 90
2
 40
0.6
 62
7
290
0
291
0
  0
VISUALSTYLE
  5
6D
102
{ACAD_REACTORS
330
16
102
}
330
16
100
AcDbVisualStyle
  2
Shaded with edges
 70
26
 90
2
 40
0.6
 62
7
290
0
291
0
  0
VISUALSTYLE
  5
6E
102
{ACAD_REACTORS
330
16
102
}
330
16
100
AcDbVisualStyle
  2
Shades of Gray
 70
23
 90
2
 40
0.6
 62
7
290
0
291
0
  0
VISUALSTYLE
  5
6F
102
{ACAD_REACTORS
330
16
102
}
330
16
100
AcDbVisualStyle
  2
Sketchy
 70
24
 90
1
 40
0.6
 62
7
290
0
291
0
  0
VISUALSTYLE
  5
70
102
{ACAD_REACTORS
330
16
102
}
330
16
100
AcDbVisualStyle
  2
Thicken
 70
13
 90
2
 40
0.6
 62
7
290
0
291
1
  0
VISUALSTYLE
  5
71
102
{ACAD_REACTORS
330
16
102
}
330
16
100
AcDbVisualStyle
  2
Wireframe
 70
5
 90
0
 40
0.6
 62
7
290
0
291
0
  0
VISUALSTYLE
  5
72
102
{ACAD_REACTORS
330
16
102
}
330
16
100
AcDbVisualStyle
  2
X-Ray
 70
25
 90
2
 40
0.5
 62
7
290
0
291
0
  0
DICTIONARYVAR
  5
BA
330
2D
100
DictionaryVariables
280
0
  1
1.1.0 @ 2024-03-25T20:08:50.576327+00:00
  0
ENDSEC
  0
EOF
