  0
SECTION
  2
HEADER
  9
$ACADVER
  1
AC1021
  9
$ACADMAINTVER
 70
25
  9
$DWGCODEPAGE
  3
ANSI_1252
  9
$LASTSAVEDBY
  1
ezdxf
  9
$INSBASE
 10
0.0
 20
0.0
 30
0.0
  9
$EXTMIN
 10
1e+20
 20
1e+20
 30
1e+20
  9
$EXTMAX
 10
-1e+20
 20
-1e+20
 30
-1e+20
  9
$LIMMIN
 10
0.0
 20
0.0
  9
$LIMMAX
 10
420.0
 20
297.0
  9
$ORTHOMODE
 70
0
  9
$REGENMODE
 70
1
  9
$FILLMODE
 70
1
  9
$QTEXTMODE
 70
0
  9
$MIRRTEXT
 70
1
  9
$LTSCALE
 40
1.0
  9
$ATTMODE
 70
1
  9
$TEXTSIZE
 40
2.5
  9
$TRACEWID
 40
1.0
  9
$TEXTSTYLE
  7
OpenSans
  9
$CLAYER
  8
0
  9
$CELTYPE
  6
ByLayer
  9
$CECOLOR
 62
256
  9
$CELTSCALE
 40
1.0
  9
$DISPSILH
 70
0
  9
$DIMSCALE
 40
1.0
  9
$DIMASZ
 40
0.175
  9
$DIMEXO
 40
0.125
  9
$DIMDLI
 40
3.75
  9
$DIMRND
 40
0.0
  9
$DIMDLE
 40
0.0
  9
$DIMEXE
 40
0.375
  9
$DIMTP
 40
0.0
  9
$DIMTM
 40
0.0
  9
$DIMTXT
 40
0.25
  9
$DIMCEN
 40
2.5
  9
$DIMTSZ
 40
0.0
  9
$DIMTOL
 70
0
  9
$DIMLIM
 70
0
  9
$DIMTIH
 70
0
  9
$DIMTOH
 70
0
  9
$DIMSE1
 70
0
  9
$DIMSE2
 70
0
  9
$DIMTAD
 70
1
  9
$DIMZIN
 70
12
  9
$DIMBLK
  1
ARCHTICK
  9
$DIMASO
 70
1
  9
$DIMSHO
 70
1
  9
$DIMPOST
  1

  9
$DIMAPOST
  1

  9
$DIMALT
 70
0
  9
$DIMALTD
 70
3
  9
$DIMALTF
 40
0.03937007874
  9
$DIMLFAC
 40
100.0
  9
$DIMTOFL
 70
1
  9
$DIMTVP
 40
0.0
  9
$DIMTIX
 70
0
  9
$DIMSOXD
 70
0
  9
$DIMSAH
 70
0
  9
$DIMBLK1
  1

  9
$DIMBLK2
  1

  9
$DIMSTYLE
  2
EZDXF
  9
$DIMCLRD
 70
0
  9
$DIMCLRE
 70
0
  9
$DIMCLRT
 70
0
  9
$DIMTFAC
 40
0.5
  9
$DIMGAP
 40
0.1
  9
$DIMJUST
 70
0
  9
$DIMSD1
 70
0
  9
$DIMSD2
 70
0
  9
$DIMTOLJ
 70
0
  9
$DIMTZIN
 70
8
  9
$DIMALTZ
 70
0
  9
$DIMALTTZ
 70
0
  9
$DIMUPT
 70
1
  9
$DIMDEC
 70
2
  9
$DIMTDEC
 70
2
  9
$DIMALTU
 70
2
  9
$DIMALTTD
 70
3
  9
$DIMTXSTY
  7
OpenSansCondensed-Light
  9
$DIMAUNIT
 70
0
  9
$DIMADEC
 70
2
  9
$DIMALTRND
 40
0.0
  9
$DIMAZIN
 70
3
  9
$DIMDSEP
 70
46
  9
$DIMATFIT
 70
3
  9
$DIMFRAC
 70
0
  9
$DIMLDRBLK
  1

  9
$DIMLUNIT
 70
2
  9
$DIMLWD
 70
-2
  9
$DIMLWE
 70
-2
  9
$DIMTMOVE
 70
2
  9
$DIMFXL
 40
1.0
  9
$DIMFXLON
 70
0
  9
$DIMJOGANG
 40
0.785398163397
  9
$DIMTFILL
 70
0
  9
$DIMTFILLCLR
 70
0
  9
$DIMARCSYM
 70
0
  9
$DIMLTYPE
  6

  9
$DIMLTEX1
  6

  9
$DIMLTEX2
  6

  9
$LUNITS
 70
2
  9
$LUPREC
 70
4
  9
$SKETCHINC
 40
1.0
  9
$FILLETRAD
 40
10.0
  9
$AUNITS
 70
0
  9
$AUPREC
 70
2
  9
$MENU
  1
.
  9
$ELEVATION
 40
0.0
  9
$PELEVATION
 40
0.0
  9
$THICKNESS
 40
0.0
  9
$LIMCHECK
 70
0
  9
$CHAMFERA
 40
0.0
  9
$CHAMFERB
 40
0.0
  9
$CHAMFERC
 40
0.0
  9
$CHAMFERD
 40
0.0
  9
$SKPOLY
 70
0
  9
$TDCREATE
 40
2460396.2144444445
  9
$TDUCREATE
 40
2458532.153996898
  9
$TDUPDATE
 40
2460396.2144444445
  9
$TDUUPDATE
 40
2458532.1544311
  9
$TDINDWG
 40
0.0
  9
$TDUSRTIMER
 40
0.0
  9
$USRTIMER
 70
1
  9
$ANGBASE
 50
0.0
  9
$ANGDIR
 70
0
  9
$PDMODE
 70
0
  9
$PDSIZE
 40
0.0
  9
$PLINEWID
 40
0.0
  9
$SPLFRAME
 70
0
  9
$SPLINETYPE
 70
6
  9
$SPLINESEGS
 70
8
  9
$HANDSEED
  5
BB
  9
$SURFTAB1
 70
6
  9
$SURFTAB2
 70
6
  9
$SURFTYPE
 70
6
  9
$SURFU
 70
6
  9
$SURFV
 70
6
  9
$UCSBASE
  2

  9
$UCSNAME
  2

  9
$UCSORG
 10
0.0
 20
0.0
 30
0.0
  9
$UCSXDIR
 10
1.0
 20
0.0
 30
0.0
  9
$UCSYDIR
 10
0.0
 20
1.0
 30
0.0
  9
$UCSORTHOREF
  2

  9
$UCSORTHOVIEW
 70
0
  9
$UCSORGTOP
 10
0.0
 20
0.0
 30
0.0
  9
$UCSORGBOTTOM
 10
0.0
 20
0.0
 30
0.0
  9
$UCSORGLEFT
 10
0.0
 20
0.0
 30
0.0
  9
$UCSORGRIGHT
 10
0.0
 20
0.0
 30
0.0
  9
$UCSORGFRONT
 10
0.0
 20
0.0
 30
0.0
  9
$UCSORGBACK
 10
0.0
 20
0.0
 30
0.0
  9
$PUCSBASE
  2

  9
$PUCSNAME
  2

  9
$PUCSORG
 10
0.0
 20
0.0
 30
0.0
  9
$PUCSXDIR
 10
1.0
 20
0.0
 30
0.0
  9
$PUCSYDIR
 10
0.0
 20
1.0
 30
0.0
  9
$PUCSORTHOREF
  2

  9
$PUCSORTHOVIEW
 70
0
  9
$PUCSORGTOP
 10
0.0
 20
0.0
 30
0.0
  9
$PUCSORGBOTTOM
 10
0.0
 20
0.0
 30
0.0
  9
$PUCSORGLEFT
 10
0.0
 20
0.0
 30
0.0
  9
$PUCSORGRIGHT
 10
0.0
 20
0.0
 30
0.0
  9
$PUCSORGFRONT
 10
0.0
 20
0.0
 30
0.0
  9
$PUCSORGBACK
 10
0.0
 20
0.0
 30
0.0
  9
$USERI1
 70
0
  9
$USERI2
 70
0
  9
$USERI3
 70
0
  9
$USERI4
 70
0
  9
$USERI5
 70
0
  9
$USERR1
 40
0.0
  9
$USERR2
 40
0.0
  9
$USERR3
 40
0.0
  9
$USERR4
 40
0.0
  9
$USERR5
 40
0.0
  9
$WORLDVIEW
 70
1
  9
$SHADEDGE
 70
3
  9
$SHADEDIF
 70
70
  9
$TILEMODE
 70
1
  9
$MAXACTVP
 70
64
  9
$PINSBASE
 10
0.0
 20
0.0
 30
0.0
  9
$PLIMCHECK
 70
0
  9
$PEXTMIN
 10
1e+20
 20
1e+20
 30
1e+20
  9
$PEXTMAX
 10
-1e+20
 20
-1e+20
 30
-1e+20
  9
$PLIMMIN
 10
0.0
 20
0.0
  9
$PLIMMAX
 10
420.0
 20
297.0
  9
$UNITMODE
 70
0
  9
$VISRETAIN
 70
1
  9
$PLINEGEN
 70
0
  9
$PSLTSCALE
 70
1
  9
$TREEDEPTH
 70
3020
  9
$CMLSTYLE
  2
Standard
  9
$CMLJUST
 70
0
  9
$CMLSCALE
 40
20.0
  9
$PROXYGRAPHICS
 70
1
  9
$MEASUREMENT
 70
1
  9
$CELWEIGHT
370
-1
  9
$ENDCAPS
280
0
  9
$JOINSTYLE
280
0
  9
$LWDISPLAY
290
0
  9
$INSUNITS
 70
6
  9
$HYPERLINKBASE
  1

  9
$STYLESHEET
  1

  9
$XEDIT
290
1
  9
$CEPSNTYPE
380
0
  9
$PSTYLEMODE
290
1
  9
$FINGERPRINTGUID
  2
{A9ABFA88-B546-4F13-BDEA-2A38E5F7DDB1}
  9
$VERSIONGUID
  2
{03260192-D4A6-4128-AE27-2B4FF648597F}
  9
$EXTNAMES
290
1
  9
$PSVPSCALE
 40
0.0
  9
$OLESTARTUP
290
0
  9
$SORTENTS
280
127
  9
$INDEXCTL
280
0
  9
$HIDETEXT
280
1
  9
$XCLIPFRAME
290
0
  9
$HALOGAP
280
0
  9
$OBSCOLOR
 70
257
  9
$OBSLTYPE
280
0
  9
$INTERSECTIONDISPLAY
280
0
  9
$INTERSECTIONCOLOR
 70
257
  9
$DIMASSOC
280
2
  9
$PROJECTNAME
  1

  9
$CAMERADISPLAY
290
0
  9
$LENSLENGTH
 40
50.0
  9
$CAMERAHEIGHT
 40
0.0
  9
$STEPSPERSEC
 40
24.0
  9
$STEPSIZE
 40
100.0
  9
$3DDWFPREC
 40
2.0
  9
$PSOLWIDTH
 40
0.005
  9
$PSOLHEIGHT
 40
0.08
  9
$LOFTANG1
 40
1.570796326795
  9
$LOFTANG2
 40
1.570796326795
  9
$LOFTMAG1
 40
0.0
  9
$LOFTMAG2
 40
0.0
  9
$LOFTPARAM
 70
7
  9
$LOFTNORMALS
280
1
  9
$LATITUDE
 40
37.795
  9
$LONGITUDE
 40
-122.394
  9
$NORTHDIRECTION
 40
0.0
  9
$TIMEZONE
 70
-8000
  9
$LIGHTGLYPHDISPLAY
280
1
  9
$TILEMODELIGHTSYNCH
280
1
  9
$CMATERIAL
347
20
  9
$SOLIDHIST
280
0
  9
$SHOWHIST
280
1
  9
$DWFFRAME
280
2
  9
$DGNFRAME
280
2
  9
$REALWORLDSCALE
290
1
  9
$INTERFERECOLOR
 62
256
  9
$CSHADOW
280
0
  9
$SHADOWPLANELOCATION
 40
0.0
  0
ENDSEC
  0
SECTION
  2
CLASSES
  0
CLASS
  1
ACDBDICTIONARYWDFLT
  2
AcDbDictionaryWithDefault
  3
ObjectDBX Classes
 90
0
 91
0
280
0
281
0
  0
CLASS
  1
SUN
  2
AcDbSun
  3
SCENEOE
 90
1153
 91
0
280
0
281
0
  0
CLASS
  1
VISUALSTYLE
  2
AcDbVisualStyle
  3
ObjectDBX Classes
 90
4095
 91
0
280
0
281
0
  0
CLASS
  1
MATERIAL
  2
AcDbMaterial
  3
ObjectDBX Classes
 90
1153
 91
0
280
0
281
0
  0
CLASS
  1
SCALE
  2
AcDbScale
  3
ObjectDBX Classes
 90
1153
 91
0
280
0
281
0
  0
CLASS
  1
TABLESTYLE
  2
AcDbTableStyle
  3
ObjectDBX Classes
 90
4095
 91
0
280
0
281
0
  0
CLASS
  1
MLEADERSTYLE
  2
AcDbMLeaderStyle
  3
ACDB_MLEADERSTYLE_CLASS
 90
4095
 91
0
280
0
281
0
  0
CLASS
  1
DICTIONARYVAR
  2
AcDbDictionaryVar
  3
ObjectDBX Classes
 90
0
 91
0
280
0
281
0
  0
CLASS
  1
CELLSTYLEMAP
  2
AcDbCellStyleMap
  3
ObjectDBX Classes
 90
1152
 91
0
280
0
281
0
  0
CLASS
  1
MENTALRAYRENDERSETTINGS
  2
AcDbMentalRayRenderSettings
  3
SCENEOE
 90
1024
 91
0
280
0
281
0
  0
CLASS
  1
ACDBDETAILVIEWSTYLE
  2
AcDbDetailViewStyle
  3
ObjectDBX Classes
 90
1025
 91
0
280
0
281
0
  0
CLASS
  1
ACDBSECTIONVIEWSTYLE
  2
AcDbSectionViewStyle
  3
ObjectDBX Classes
 90
1025
 91
0
280
0
281
0
  0
CLASS
  1
RASTERVARIABLES
  2
AcDbRasterVariables
  3
ISM
 90
0
 91
0
280
0
281
0
  0
CLASS
  1
ACDBPLACEHOLDER
  2
AcDbPlaceHolder
  3
ObjectDBX Classes
 90
0
 91
0
280
0
281
0
  0
CLASS
  1
LAYOUT
  2
AcDbLayout
  3
ObjectDBX Classes
 90
0
 91
0
280
0
281
0
  0
ENDSEC
  0
SECTION
  2
TABLES
  0
TABLE
  2
VPORT
  5
8
330
0
100
AcDbSymbolTable
 70
1
  0
VPORT
  5
23
330
8
100
AcDbSymbolTableRecord
100
AcDbViewportTableRecord
  2
*Active
 70
0
 10
0.0
 20
0.0
 11
1.0
 21
1.0
 12
0.0
 22
0.0
 13
0.0
 23
0.0
 14
0.5
 24
0.5
 15
0.5
 25
0.5
 16
0.0
 26
0.0
 36
1.0
 17
0.0
 27
0.0
 37
0.0
 40
1000.0
 41
1.34
 42
50.0
 43
0.0
 44
0.0
 50
0.0
 51
0.0
 71
0
 72
1000
 73
1
 74
3
 75
0
 76
0
 77
0
 78
0
281
0
 65
0
146
0.0
  0
ENDTAB
  0
TABLE
  2
LTYPE
  5
2
330
0
100
AcDbSymbolTable
 70
21
  0
LTYPE
  5
24
330
2
100
AcDbSymbolTableRecord
100
AcDbLinetypeTableRecord
  2
ByBlock
 70
0
  3

 72
65
 73
0
 40
0.0
  0
LTYPE
  5
25
330
2
100
AcDbSymbolTableRecord
100
AcDbLinetypeTableRecord
  2
ByLayer
 70
0
  3

 72
65
 73
0
 40
0.0
  0
LTYPE
  5
26
330
2
100
AcDbSymbolTableRecord
100
AcDbLinetypeTableRecord
  2
Continuous
 70
0
  3

 72
65
 73
0
 40
0.0
  0
LTYPE
  5
2F
330
2
100
AcDbSymbolTableRecord
100
AcDbLinetypeTableRecord
  2
CENTER
 70
0
  3
Center ____ _ ____ _ ____ _ ____ _ ____ _ ____
 72
65
 73
4
 40
5.08
 49
3.175
 74
0
 49
-0.635
 74
0
 49
0.635
 74
0
 49
-0.635
 74
0
  0
LTYPE
  5
30
330
2
100
AcDbSymbolTableRecord
100
AcDbLinetypeTableRecord
  2
CENTERX2
 70
0
  3
Center (2x) ________  __  ________  __  ________
 72
65
 73
4
 40
8.89
 49
6.35
 74
0
 49
-0.635
 74
0
 49
1.27
 74
0
 49
-0.635
 74
0
  0
LTYPE
  5
31
330
2
100
AcDbSymbolTableRecord
100
AcDbLinetypeTableRecord
  2
CENTER2
 70
0
  3
Center (.5x) ____ _ ____ _ ____ _ ____ _ ____
 72
65
 73
4
 40
2.54
 49
1.587
 74
0
 49
-0.318
 74
0
 49
0.318
 74
0
 49
-0.318
 74
0
  0
LTYPE
  5
32
330
2
100
AcDbSymbolTableRecord
100
AcDbLinetypeTableRecord
  2
DASHED
 70
0
  3
Dashed __ __ __ __ __ __ __ __ __ __ __ __ __ _
 72
65
 73
2
 40
1.524
 49
1.27
 74
0
 49
-0.254
 74
0
  0
LTYPE
  5
33
330
2
100
AcDbSymbolTableRecord
100
AcDbLinetypeTableRecord
  2
DASHEDX2
 70
0
  3
Dashed (2x) ____  ____  ____  ____  ____  ____
 72
65
 73
2
 40
3.048
 49
2.54
 74
0
 49
-0.508
 74
0
  0
LTYPE
  5
34
330
2
100
AcDbSymbolTableRecord
100
AcDbLinetypeTableRecord
  2
DASHED2
 70
0
  3
Dashed (.5x) _ _ _ _ _ _ _ _ _ _ _ _ _ _
 72
65
 73
2
 40
0.762
 49
0.635
 74
0
 49
-0.127
 74
0
  0
LTYPE
  5
35
330
2
100
AcDbSymbolTableRecord
100
AcDbLinetypeTableRecord
  2
PHANTOM
 70
0
  3
Phantom ______  __  __  ______  __  __  ______
 72
65
 73
6
 40
6.35
 49
3.175
 74
0
 49
-0.635
 74
0
 49
0.635
 74
0
 49
-0.635
 74
0
 49
0.635
 74
0
 49
-0.635
 74
0
  0
LTYPE
  5
36
330
2
100
AcDbSymbolTableRecord
100
AcDbLinetypeTableRecord
  2
PHANTOMX2
 70
0
  3
Phantom (2x)____________    ____    ____    ____________
 72
65
 73
6
 40
10.795
 49
6.35
 74
0
 49
-0.635
 74
0
 49
1.27
 74
0
 49
-0.635
 74
0
 49
1.27
 74
0
 49
-0.635
 74
0
  0
LTYPE
  5
37
330
2
100
AcDbSymbolTableRecord
100
AcDbLinetypeTableRecord
  2
PHANTOM2
 70
0
  3
Phantom (.5x) ___ _ _ ___ _ _ ___ _ _ ___ _ _ ___
 72
65
 73
6
 40
3.175
 49
1.587
 74
0
 49
-0.318
 74
0
 49
0.318
 74
0
 49
-0.318
 74
0
 49
0.318
 74
0
 49
-0.318
 74
0
  0
LTYPE
  5
38
330
2
100
AcDbSymbolTableRecord
100
AcDbLinetypeTableRecord
  2
DASHDOT
 70
0
  3
Dash dot __ . __ . __ . __ . __ . __ . __ . __
 72
65
 73
4
 40
3.556
 49
2.54
 74
0
 49
-0.508
 74
0
 49
0.0
 74
0
 49
-0.508
 74
0
  0
LTYPE
  5
39
330
2
100
AcDbSymbolTableRecord
100
AcDbLinetypeTableRecord
  2
DASHDOTX2
 70
0
  3
Dash dot (2x) ____  .  ____  .  ____  .  ____
 72
65
 73
4
 40
6.096
 49
5.08
 74
0
 49
-0.508
 74
0
 49
0.0
 74
0
 49
-0.508
 74
0
  0
LTYPE
  5
3A
330
2
100
AcDbSymbolTableRecord
100
AcDbLinetypeTableRecord
  2
DASHDOT2
 70
0
  3
Dash dot (.5x) _ . _ . _ . _ . _ . _ . _ . _
 72
65
 73
4
 40
1.778
 49
1.27
 74
0
 49
-0.254
 74
0
 49
0.0
 74
0
 49
-0.254
 74
0
  0
LTYPE
  5
3B
330
2
100
AcDbSymbolTableRecord
100
AcDbLinetypeTableRecord
  2
DOT
 70
0
  3
Dot .  .  .  .  .  .  .  .  .  .  .  .  .  .  .  .
 72
65
 73
2
 40
0.508
 49
0.0
 74
0
 49
-0.508
 74
0
  0
LTYPE
  5
3C
330
2
100
AcDbSymbolTableRecord
100
AcDbLinetypeTableRecord
  2
DOTX2
 70
0
  3
Dot (2x) .    .    .    .    .    .    .    . 
 72
65
 73
2
 40
1.016
 49
0.0
 74
0
 49
-1.016
 74
0
  0
LTYPE
  5
3D
330
2
100
AcDbSymbolTableRecord
100
AcDbLinetypeTableRecord
  2
DOT2
 70
0
  3
Dot (.5) . . . . . . . . . . . . . . . . . . . 
 72
65
 73
2
 40
0.254
 49
0.0
 74
0
 49
-0.254
 74
0
  0
LTYPE
  5
3E
330
2
100
AcDbSymbolTableRecord
100
AcDbLinetypeTableRecord
  2
DIVIDE
 70
0
  3
Divide __ . . __ . . __ . . __ . . __ . . __
 72
65
 73
6
 40
4.064
 49
2.54
 74
0
 49
-0.508
 74
0
 49
0.0
 74
0
 49
-0.508
 74
0
 49
0.0
 74
0
 49
-0.508
 74
0
  0
LTYPE
  5
3F
330
2
100
AcDbSymbolTableRecord
100
AcDbLinetypeTableRecord
  2
DIVIDEX2
 70
0
  3
Divide (2x) ____  . .  ____  . .  ____  . .  ____
 72
65
 73
6
 40
6.604
 49
5.08
 74
0
 49
-0.508
 74
0
 49
0.0
 74
0
 49
-0.508
 74
0
 49
0.0
 74
0
 49
-0.508
 74
0
  0
LTYPE
  5
40
330
2
100
AcDbSymbolTableRecord
100
AcDbLinetypeTableRecord
  2
DIVIDE2
 70
0
  3
Divide(.5x) _ . _ . _ . _ . _ . _ . _ . _
 72
65
 73
6
 40
2.032
 49
1.27
 74
0
 49
-0.254
 74
0
 49
0.0
 74
0
 49
-0.254
 74
0
 49
0.0
 74
0
 49
-0.254
 74
0
  0
ENDTAB
  0
TABLE
  2
LAYER
  5
1
330
0
100
AcDbSymbolTable
 70
3
  0
LAYER
  5
27
330
1
100
AcDbSymbolTableRecord
100
AcDbLayerTableRecord
  2
0
 70
0
 62
7
  6
Continuous
370
-3
390
13
347
21
  0
LAYER
  5
28
330
1
100
AcDbSymbolTableRecord
100
AcDbLayerTableRecord
  2
Defpoints
 70
0
 62
7
  6
Continuous
290
0
370
-3
390
13
347
21
  0
LAYER
  5
8A
330
1
100
AcDbSymbolTableRecord
100
AcDbLayerTableRecord
  2
Layer
 70
0
 62
1
  6
Continuous
370
50
390
13
347
21
  0
ENDTAB
  0
TABLE
  2
STYLE
  5
5
330
0
100
AcDbSymbolTable
 70
26
  0
STYLE
  5
29
330
5
100
AcDbSymbolTableRecord
100
AcDbTextStyleTableRecord
  2
Standard
 70
0
 40
0.0
 41
1.0
 50
0.0
 71
0
 42
2.5
  3
txt
  4

  0
STYLE
  5
41
330
5
100
AcDbSymbolTableRecord
100
AcDbTextStyleTableRecord
  2
OpenSans-Light
 70
0
 40
0.0
 41
1.0
 50
0.0
 71
0
 42
2.5
  3
OpenSans-Light.ttf
  4

  0
STYLE
  5
42
330
5
100
AcDbSymbolTableRecord
100
AcDbTextStyleTableRecord
  2
OpenSans-Light-Italic
 70
0
 40
0.0
 41
1.0
 50
0.0
 71
0
 42
2.5
  3
OpenSans-LightItalic.ttf
  4

  0
STYLE
  5
43
330
5
100
AcDbSymbolTableRecord
100
AcDbTextStyleTableRecord
  2
OpenSans
 70
0
 40
0.0
 41
1.0
 50
0.0
 71
0
 42
2.5
  3
OpenSans-Regular.ttf
  4

  0
STYLE
  5
44
330
5
100
AcDbSymbolTableRecord
100
AcDbTextStyleTableRecord
  2
OpenSans-Italic
 70
0
 40
0.0
 41
1.0
 50
0.0
 71
0
 42
2.5
  3
OpenSans-Italic.ttf
  4

  0
STYLE
  5
45
330
5
100
AcDbSymbolTableRecord
100
AcDbTextStyleTableRecord
  2
OpenSans-SemiBold
 70
0
 40
0.0
 41
1.0
 50
0.0
 71
0
 42
2.5
  3
OpenSans-SemiBold.ttf
  4

  0
STYLE
  5
46
330
5
100
AcDbSymbolTableRecord
100
AcDbTextStyleTableRecord
  2
OpenSans-SemiBoldItalic
 70
0
 40
0.0
 41
1.0
 50
0.0
 71
0
 42
2.5
  3
OpenSans-SemiBoldItalic.ttf
  4

  0
STYLE
  5
47
330
5
100
AcDbSymbolTableRecord
100
AcDbTextStyleTableRecord
  2
OpenSans-Bold
 70
0
 40
0.0
 41
1.0
 50
0.0
 71
0
 42
2.5
  3
OpenSans-Bold.ttf
  4

  0
STYLE
  5
48
330
5
100
AcDbSymbolTableRecord
100
AcDbTextStyleTableRecord
  2
OpenSans-BoldItalic
 70
0
 40
0.0
 41
1.0
 50
0.0
 71
0
 42
2.5
  3
OpenSans-BoldItalic.ttf
  4

  0
STYLE
  5
49
330
5
100
AcDbSymbolTableRecord
100
AcDbTextStyleTableRecord
  2
OpenSans-ExtraBold
 70
0
 40
0.0
 41
1.0
 50
0.0
 71
0
 42
2.5
  3
OpenSans-ExtraBold.ttf
  4

  0
STYLE
  5
4A
330
5
100
AcDbSymbolTableRecord
100
AcDbTextStyleTableRecord
  2
OpenSans-ExtraBoldItalic
 70
0
 40
0.0
 41
1.0
 50
0.0
 71
0
 42
2.5
  3
OpenSans-ExtraBoldItalic.ttf
  4

  0
STYLE
  5
4B
330
5
100
AcDbSymbolTableRecord
100
AcDbTextStyleTableRecord
  2
OpenSansCondensed-Bold
 70
0
 40
0.0
 41
1.0
 50
0.0
 71
0
 42
2.5
  3
OpenSansCondensed-Bold.ttf
  4

  0
STYLE
  5
4C
330
5
100
AcDbSymbolTableRecord
100
AcDbTextStyleTableRecord
  2
OpenSansCondensed-Light
 70
0
 40
0.0
 41
1.0
 50
0.0
 71
0
 42
2.5
  3
OpenSansCondensed-Light.ttf
  4

  0
STYLE
  5
4D
330
5
100
AcDbSymbolTableRecord
100
AcDbTextStyleTableRecord
  2
OpenSansCondensed-Italic
 70
0
 40
0.0
 41
1.0
 50
0.0
 71
0
 42
2.5
  3
OpenSansCondensed-LightItalic.ttf
  4

  0
STYLE
  5
4E
330
5
100
AcDbSymbolTableRecord
100
AcDbTextStyleTableRecord
  2
LiberationSans
 70
0
 40
0.0
 41
1.0
 50
0.0
 71
0
 42
2.5
  3
LiberationSans-Regular.ttf
  4

  0
STYLE
  5
4F
330
5
100
AcDbSymbolTableRecord
100
AcDbTextStyleTableRecord
  2
LiberationSans-Bold
 70
0
 40
0.0
 41
1.0
 50
0.0
 71
0
 42
2.5
  3
LiberationSans-Bold.ttf
  4

  0
STYLE
  5
50
330
5
100
AcDbSymbolTableRecord
100
AcDbTextStyleTableRecord
  2
LiberationSans-BoldItalic
 70
0
 40
0.0
 41
1.0
 50
0.0
 71
0
 42
2.5
  3
LiberationSans-BoldItalic.ttf
  4

  0
STYLE
  5
51
330
5
100
AcDbSymbolTableRecord
100
AcDbTextStyleTableRecord
  2
LiberationSans-Italic
 70
0
 40
0.0
 41
1.0
 50
0.0
 71
0
 42
2.5
  3
LiberationSans-Italic.ttf
  4

  0
STYLE
  5
52
330
5
100
AcDbSymbolTableRecord
100
AcDbTextStyleTableRecord
  2
LiberationSerif
 70
0
 40
0.0
 41
1.0
 50
0.0
 71
0
 42
2.5
  3
LiberationSerif-Regular.ttf
  4

  0
STYLE
  5
53
330
5
100
AcDbSymbolTableRecord
100
AcDbTextStyleTableRecord
  2
LiberationSerif-Bold
 70
0
 40
0.0
 41
1.0
 50
0.0
 71
0
 42
2.5
  3
LiberationSerif-Bold.ttf
  4

  0
STYLE
  5
54
330
5
100
AcDbSymbolTableRecord
100
AcDbTextStyleTableRecord
  2
LiberationSerif-BoldItalic
 70
0
 40
0.0
 41
1.0
 50
0.0
 71
0
 42
2.5
  3
LiberationSerif-BoldItalic.ttf
  4

  0
STYLE
  5
55
330
5
100
AcDbSymbolTableRecord
100
AcDbTextStyleTableRecord
  2
LiberationSerif-Italic
 70
0
 40
0.0
 41
1.0
 50
0.0
 71
0
 42
2.5
  3
LiberationSerif-Italic.ttf
  4

  0
STYLE
  5
56
330
5
100
AcDbSymbolTableRecord
100
AcDbTextStyleTableRecord
  2
LiberationMono
 70
0
 40
0.0
 41
1.0
 50
0.0
 71
0
 42
2.5
  3
LiberationMono-Regular.ttf
  4

  0
STYLE
  5
57
330
5
100
AcDbSymbolTableRecord
100
AcDbTextStyleTableRecord
  2
LiberationMono-Bold
 70
0
 40
0.0
 41
1.0
 50
0.0
 71
0
 42
2.5
  3
LiberationMono-Bold.ttf
  4

  0
STYLE
  5
58
330
5
100
AcDbSymbolTableRecord
100
AcDbTextStyleTableRecord
  2
LiberationMono-BoldItalic
 70
0
 40
0.0
 41
1.0
 50
0.0
 71
0
 42
2.5
  3
LiberationMono-BoldItalic.ttf
  4

  0
STYLE
  5
59
330
5
100
AcDbSymbolTableRecord
100
AcDbTextStyleTableRecord
  2
LiberationMono-Italic
 70
0
 40
0.0
 41
1.0
 50
0.0
 71
0
 42
2.5
  3
LiberationMono-Italic.ttf
  4

  0
ENDTAB
  0
TABLE
  2
VIEW
  5
7
330
0
100
AcDbSymbolTable
 70
0
  0
ENDTAB
  0
TABLE
  2
UCS
  5
6
330
0
100
AcDbSymbolTable
 70
0
  0
ENDTAB
  0
TABLE
  2
APPID
  5
3
330
0
100
AcDbSymbolTable
 70
3
  0
APPID
  5
2A
330
3
100
AcDbSymbolTableRecord
100
AcDbRegAppTableRecord
  2
ACAD
 70
0
  0
APPID
  5
B8
330
3
100
AcDbSymbolTableRecord
100
AcDbRegAppTableRecord
  2
HATCHBACKGROUNDCOLOR
 70
0
  0
APPID
  5
B9
330
3
100
AcDbSymbolTableRecord
100
AcDbRegAppTableRecord
  2
EZDXF
 70
0
  0
ENDTAB
  0
TABLE
  2
DIMSTYLE
  5
4
330
0
100
AcDbSymbolTable
 70
12
100
AcDbDimStyleTable
  0
DIMSTYLE
105
2B
330
4
100
AcDbSymbolTableRecord
100
AcDbDimStyleTableRecord
  2
Standard
 70
0
 40
1.0
 41
2.5
 42
0.625
 43
3.75
 44
1.25
 45
0.0
 46
0.0
 47
0.0
 48
0.0
 49
2.5
140
2.5
141
2.5
142
0.0
143
0.03937007874
144
1.0
145
0.0
146
1.0
147
0.625
148
0.0
 69
0
 70
0
 71
0
 72
0
 73
0
 74
0
 75
0
 76
0
 77
1
 78
8
 79
3
170
0
171
3
172
1
173
0
174
0
175
0
176
0
177
0
178
0
179
2
271
2
272
2
273
2
274
3
275
0
276
0
277
2
278
44
279
0
280
0
281
0
282
0
283
0
284
8
285
0
286
0
288
0
289
3
290
0
371
-2
372
-2
  0
DIMSTYLE
105
73
330
4
100
AcDbSymbolTableRecord
100
AcDbDimStyleTableRecord
  2
EZDXF
 70
0
 40
1.0
 41
0.175
 42
0.125
 43
3.75
 44
0.375
 45
0.0
 46
0.0
 47
0.0
 48
0.0
 49
2.5
140
0.25
141
2.5
142
0.0
143
0.03937007874
144
100.0
145
0.0
146
0.5
147
0.1
148
0.0
 69
0
 70
0
 71
0
 72
0
 73
0
 74
0
 75
0
 76
0
 77
1
 78
12
 79
3
170
0
171
3
172
1
173
0
174
0
175
0
176
0
177
0
178
0
179
2
271
2
272
2
273
2
274
3
275
0
276
0
277
2
278
46
279
2
280
0
281
0
282
0
283
0
284
8
285
0
286
0
288
1
289
3
290
0
340
4C
342
74
371
-2
372
-2
  0
DIMSTYLE
105
7C
330
4
100
AcDbSymbolTableRecord
100
AcDbDimStyleTableRecord
  2
EZ_M_100_H25_CM
 70
0
 40
1.0
 41
0.25
 42
0.125
 43
3.75
 44
0.375
 45
0.0
 46
0.0
 47
0.0
 48
0.0
 49
2.5
140
0.25
141
2.5
142
0.125
143
0.03937007874
144
100.0
145
0.0
146
0.5
147
0.1
148
0.0
 69
0
 70
0
 71
0
 72
0
 73
0
 74
0
 75
0
 76
0
 77
1
 78
12
 79
3
170
0
171
3
172
1
173
0
174
0
175
0
176
0
177
0
178
0
179
2
271
2
272
2
273
2
274
3
275
0
276
0
277
2
278
46
279
2
280
0
281
0
282
0
283
0
284
8
285
0
286
0
288
1
289
3
290
0
340
4C
371
-2
372
-2
  0
DIMSTYLE
105
7D
330
4
100
AcDbSymbolTableRecord
100
AcDbDimStyleTableRecord
  2
EZ_M_50_H25_CM
 70
0
 40
1.0
 41
0.125
 42
0.0625
 43
3.75
 44
0.1875
 45
0.0
 46
0.0
 47
0.0
 48
0.0
 49
2.5
140
0.125
141
2.5
142
0.0625
143
0.03937007874
144
100.0
145
0.0
146
0.5
147
0.05
148
0.0
 69
0
 70
0
 71
0
 72
0
 73
0
 74
0
 75
0
 76
0
 77
1
 78
12
 79
3
170
0
171
3
172
1
173
0
174
0
175
0
176
0
177
0
178
0
179
2
271
2
272
2
273
2
274
3
275
0
276
0
277
2
278
46
279
2
280
0
281
0
282
0
283
0
284
8
285
0
286
0
288
1
289
3
290
0
340
4C
371
-2
372
-2
  0
DIMSTYLE
105
7E
330
4
100
AcDbSymbolTableRecord
100
AcDbDimStyleTableRecord
  2
EZ_M_25_H25_CM
 70
0
 40
1.0
 41
0.0625
 42
0.03125
 43
3.75
 44
0.09375
 45
0.0
 46
0.0
 47
0.0
 48
0.0
 49
2.5
140
0.0625
141
2.5
142
0.03125
143
0.03937007874
144
100.0
145
0.0
146
0.5
147
0.025
148
0.0
 69
0
 70
0
 71
0
 72
0
 73
0
 74
0
 75
0
 76
0
 77
1
 78
12
 79
3
170
0
171
3
172
1
173
0
174
0
175
0
176
0
177
0
178
0
179
2
271
2
272
2
273
2
274
3
275
0
276
0
277
2
278
46
279
2
280
0
281
0
282
0
283
0
284
8
285
0
286
0
288
1
289
3
290
0
340
4C
371
-2
372
-2
  0
DIMSTYLE
105
7F
330
4
100
AcDbSymbolTableRecord
100
AcDbDimStyleTableRecord
  2
EZ_M_20_H25_CM
 70
0
 40
1.0
 41
0.05
 42
0.025
 43
3.75
 44
0.07500000000000001
 45
0.0
 46
0.0
 47
0.0
 48
0.0
 49
2.5
140
0.05
141
2.5
142
0.025
143
0.03937007874
144
100.0
145
0.0
146
0.5
147
0.020000000000000004
148
0.0
 69
0
 70
0
 71
0
 72
0
 73
0
 74
0
 75
0
 76
0
 77
1
 78
12
 79
3
170
0
171
3
172
1
173
0
174
0
175
0
176
0
177
0
178
0
179
2
271
2
272
2
273
2
274
3
275
0
276
0
277
2
278
46
279
2
280
0
281
0
282
0
283
0
284
8
285
0
286
0
288
1
289
3
290
0
340
4C
371
-2
372
-2
  0
DIMSTYLE
105
80
330
4
100
AcDbSymbolTableRecord
100
AcDbDimStyleTableRecord
  2
EZ_M_10_H25_CM
 70
0
 40
1.0
 41
0.025
 42
0.0125
 43
3.75
 44
0.037500000000000006
 45
0.0
 46
0.0
 47
0.0
 48
0.0
 49
2.5
140
0.025
141
2.5
142
0.0125
143
0.03937007874
144
100.0
145
0.0
146
0.5
147
0.010000000000000002
148
0.0
 69
0
 70
0
 71
0
 72
0
 73
0
 74
0
 75
0
 76
0
 77
1
 78
12
 79
3
170
0
171
3
172
1
173
0
174
0
175
0
176
0
177
0
178
0
179
2
271
2
272
2
273
2
274
3
275
0
276
0
277
2
278
46
279
2
280
0
281
0
282
0
283
0
284
8
285
0
286
0
288
1
289
3
290
0
340
4C
371
-2
372
-2
  0
DIMSTYLE
105
81
330
4
100
AcDbSymbolTableRecord
100
AcDbDimStyleTableRecord
  2
EZ_M_5_H25_CM
 70
0
 40
1.0
 41
0.0125
 42
0.00625
 43
3.75
 44
0.018750000000000003
 45
0.0
 46
0.0
 47
0.0
 48
0.0
 49
2.5
140
0.0125
141
2.5
142
0.00625
143
0.03937007874
144
100.0
145
0.0
146
0.5
147
0.005000000000000001
148
0.0
 69
0
 70
0
 71
0
 72
0
 73
0
 74
0
 75
0
 76
0
 77
1
 78
12
 79
3
170
0
171
3
172
1
173
0
174
0
175
0
176
0
177
0
178
0
179
2
271
2
272
2
273
2
274
3
275
0
276
0
277
2
278
46
279
2
280
0
281
0
282
0
283
0
284
8
285
0
286
0
288
1
289
3
290
0
340
4C
371
-2
372
-2
  0
DIMSTYLE
105
82
330
4
100
AcDbSymbolTableRecord
100
AcDbDimStyleTableRecord
  2
EZ_M_1_H25_CM
 70
0
 40
1.0
 41
0.0025
 42
0.00125
 43
3.75
 44
0.00375
 45
0.0
 46
0.0
 47
0.0
 48
0.0
 49
2.5
140
0.0025
141
2.5
142
0.00125
143
0.03937007874
144
100.0
145
0.0
146
0.5
147
0.001
148
0.0
 69
0
 70
0
 71
0
 72
0
 73
0
 74
0
 75
0
 76
0
 77
1
 78
12
 79
3
170
0
171
3
172
1
173
0
174
0
175
0
176
0
177
0
178
0
179
2
271
2
272
2
273
2
274
3
275
0
276
0
277
2
278
46
279
2
280
0
281
0
282
0
283
0
284
8
285
0
286
0
288
1
289
3
290
0
340
4C
371
-2
372
-2
  0
DIMSTYLE
105
83
330
4
100
AcDbSymbolTableRecord
100
AcDbDimStyleTableRecord
  2
EZ_RADIUS
 70
0
 40
1.0
 41
0.25
 42
0.125
 43
3.75
 44
0.375
 45
0.0
 46
0.0
 47
0.0
 48
0.0
 49
2.5
140
0.25
141
0.0
142
0.0
143
0.03937007874
144
100.0
145
0.0
146
0.5
147
0.1
148
0.0
 69
0
 70
0
 71
0
 72
0
 73
0
 74
0
 75
0
 76
0
 77
1
 78
12
 79
3
170
0
171
3
172
0
173
0
174
0
175
0
176
0
177
0
178
0
179
2
271
2
272
2
273
2
274
3
275
0
276
0
277
2
278
46
279
1
280
0
281
0
282
0
283
0
284
8
285
0
286
0
288
1
289
3
290
0
340
4C
342
84
371
-2
372
-2
  0
DIMSTYLE
105
88
330
4
100
AcDbSymbolTableRecord
100
AcDbDimStyleTableRecord
  2
EZ_RADIUS_INSIDE
 70
0
 40
1.0
 41
0.25
 42
0.125
 43
3.75
 44
0.375
 45
0.0
 46
0.0
 47
0.0
 48
0.0
 49
2.5
140
0.25
141
0.0
142
0.0
143
0.03937007874
144
100.0
145
0.0
146
0.5
147
0.1
148
0.0
 69
0
 70
0
 71
0
 72
0
 73
0
 74
0
 75
0
 76
0
 77
0
 78
12
 79
3
170
0
171
3
172
0
173
0
174
1
175
0
176
0
177
0
178
0
179
2
271
2
272
2
273
2
274
3
275
0
276
0
277
2
278
46
279
0
280
0
281
0
282
0
283
0
284
8
285
0
286
0
288
1
289
0
290
0
340
4C
342
84
371
-2
372
-2
  0
DIMSTYLE
105
89
330
4
100
AcDbSymbolTableRecord
100
AcDbDimStyleTableRecord
  2
EZ_CURVED
 70
0
 40
1.0
 41
0.25
 42
0.125
 43
3.75
 44
0.375
 45
0.0
 46
0.0
 47
0.0
 48
0.0
 49
2.5
140
0.25
141
2.5
142
0.0
143
0.03937007874
144
100.0
145
0.0
146
0.5
147
0.1
148
0.0
 69
0
 70
0
 71
0
 72
0
 73
0
 74
0
 75
0
 76
0
 77
1
 78
12
 79
2
 90
2
170
0
171
3
172
1
173
0
174
0
175
0
176
0
177
0
178
0
179
2
271
2
272
2
273
2
274
3
275
0
276
0
277
2
278
46
279
2
280
0
281
0
282
0
283
0
284
8
285
0
286
0
288
1
289
3
290
0
340
4C
371
-2
372
-2
  0
ENDTAB
  0
TABLE
  2
BLOCK_RECORD
  5
9
330
0
100
AcDbSymbolTable
 70
5
  0
BLOCK_RECORD
  5
17
330
9
100
AcDbSymbolTableRecord
100
AcDbBlockTableRecord
  2
*Model_Space
340
1A
 70
0
280
1
281
0
  0
BLOCK_RECORD
  5
1B
330
9
100
AcDbSymbolTableRecord
100
AcDbBlockTableRecord
  2
*Paper_Space
340
1E
 70
0
280
1
281
0
  0
BLOCK_RECORD
  5
74
330
9
100
AcDbSymbolTableRecord
100
AcDbBlockTableRecord
  2
_ARCHTICK
340
0
 70
0
280
1
281
0
  0
BLOCK_RECORD
  5
78
330
9
100
AcDbSymbolTableRecord
100
AcDbBlockTableRecord
  2
_CLOSEDFILLED
340
0
 70
0
280
1
281
0
  0
BLOCK_RECORD
  5
84
330
9
100
AcDbSymbolTableRecord
100
AcDbBlockTableRecord
  2
_CLOSEDBLANK
340
0
 70
0
280
1
281
0
  0
ENDTAB
  0
ENDSEC
  0
SECTION
  2
BLOCKS
  0
BLOCK
  5
18
330
17
100
AcDbEntity
  8
0
100
AcDbBlockBegin
  2
*Model_Space
 70
0
 10
0.0
 20
0.0
 30
0.0
  3
*Model_Space
  1

  0
ENDBLK
  5
19
330
17
100
AcDbEntity
  8
0
100
AcDbBlockEnd
  0
BLOCK
  5
1C
330
1B
100
AcDbEntity
  8
0
100
AcDbBlockBegin
  2
*Paper_Space
 70
0
 10
0.0
 20
0.0
 30
0.0
  3
*Paper_Space
  1

  0
ENDBLK
  5
1D
330
1B
100
AcDbEntity
  8
0
100
AcDbBlockEnd
  0
BLOCK
  5
75
330
74
100
AcDbEntity
  8
0
100
AcDbBlockBegin
  2
_ARCHTICK
 70
0
 10
0.0
 20
0.0
 30
0.0
  3
_ARCHTICK
  1

  0
LWPOLYLINE
  5
77
330
74
100
AcDbEntity
  8
0
  6
BYBLOCK
 62
0
100
AcDbPolyline
 90
2
 70
0
 43
0.15
 10
-0.5
 20
-0.5000000000000001
 10
0.5000000000000001
 20
0.5
  0
ENDBLK
  5
76
330
74
100
AcDbEntity
  8
0
100
AcDbBlockEnd
  0
BLOCK
  5
79
330
78
100
AcDbEntity
  8
0
100
AcDbBlockBegin
  2
_CLOSEDFILLED
 70
0
 10
0.0
 20
0.0
 30
0.0
  3
_CLOSEDFILLED
  1

  0
SOLID
  5
7B
330
78
100
AcDbEntity
  8
0
  6
BYBLOCK
 62
0
100
AcDbTrace
 10
-1.0
 20
0.1643989837240255
 30
0.0
 11
0.0
 21
0.0
 31
0.0
 12
-1.0
 22
-0.1643989837240255
 32
0.0
 13
-1.0
 23
-0.1643989837240255
 33
0.0
  0
ENDBLK
  5
7A
330
78
100
AcDbEntity
  8
0
100
AcDbBlockEnd
  0
BLOCK
  5
85
330
84
100
AcDbEntity
  8
0
100
AcDbBlockBegin
  2
_CLOSEDBLANK
 70
0
 10
0.0
 20
0.0
 30
0.0
  3
_CLOSEDBLANK
  1

  0
LWPOLYLINE
  5
87
330
84
100
AcDbEntity
  8
0
  6
BYBLOCK
 62
0
100
AcDbPolyline
 90
3
 70
1
 10
-1.0
 20
0.1643989837240255
 10
0.0
 20
0.0
 10
-1.0
 20
-0.1643989837240255
  0
ENDBLK
  5
86
330
84
100
AcDbEntity
  8
0
100
AcDbBlockEnd
  0
ENDSEC
  0
SECTION
  2
ENTITIES
  0
LWPOLYLINE
  5
8B
330
17
100
AcDbEntity
  8
Layer
100
AcDbPolyline
 90
303
 70
1
 10
1053.1484172595435
 20
-105.85432774410557
 10
1049.9975549202338
 20
-104.5718207923568
 10
1044.9244753987577
 20
-102.60554234437906
 10
1039.43821393526
 20
-100.43429481510779
 10
1033.4439835100486
 20
-98.10358622402292
 10
1026.9049985724569
 20
-95.6081830165307
 10
1019.8708801444
 20
-92.92514935360768
 10
1012.4261398518684
 20
-90.07119549837815
 10
1004.6358253835331
 20
-87.09817300954361
 10
996.6213795557696
 20
-84.04355521281641
 10
988.5295156142276
 20
-80.98985612265228
 10
980.3690699311037
 20
-77.97065263282208
 10
972.0975574799925
 20
-74.84582414248418
 10
963.7302040221239
 20
-71.67150537609548
 10
955.2173119974057
 20
-68.50761915946535
 10
946.5659644614543
 20
-65.30547111970449
 10
937.7666111523083
 20
-62.089579786387034
 10
928.8002814685726
 20
-58.80017371683736
 10
919.6910646898309
 20
-55.464301781007144
 10
910.4778610591788
 20
-52.098066225046495
 10
901.1987216125892
 20
-48.71141714886391
 10
891.8898665984052
 20
-45.314275108996306
 10
882.5767777832745
 20
-41.923042179408085
 10
873.2659152461246
 20
-38.54633879507276
 10
863.9582522783408
 20
-35.18570610126766
 10
854.6568699848797
 20
-31.841573657200996
 10
845.3726117000491
 20
-28.51536764708405
 10
836.1237683710735
 20
-25.216441623802545
 10
826.9109342413137
 20
-21.95509000357656
 10
817.7162979447652
 20
-18.73005388959124
 10
808.5329008744845
 20
-15.535088590737887
 10
799.3692434287389
 20
-12.3718655142272
 10
794.8341953667314
 20
-10.820843672660251
 10
794.4944099798838
 20
-11.814345505011229
 10
789.8930779784006
 20
-10.240645393671082
 10
780.776116174618
 20
-7.156156208791967
 10
771.6720639556752
 20
-4.11159572599605
 10
762.5740542793936
 20
-1.106245098125064
 10
753.475870216228
 20
1.8626381824376304
 10
744.3785825746293
 20
4.79937336411566
 10
735.3071962366128
 20
7.702088577938611
 10
726.2938287120314
 20
10.556211340660177
 10
717.3462744182864
 20
13.346101399808816
 10
708.4524429024468
 20
16.066499368601445
 10
699.5981318877529
 20
18.71772608618808
 10
690.7709472750287
 20
21.301420464122224
 10
681.9599321126141
 20
23.819869546656896
 10
673.1591753189643
 20
26.27564151087868
 10
664.3693904709882
 20
28.669017577213996
 10
655.5918004128373
 20
30.997101193765022
 10
646.8186793189782
 20
33.257618847955435
 10
638.0373834561076
 20
35.45279605540051
 10
629.2411230738733
 20
37.5862222075949
 10
620.427233312795
 20
39.66000381243748
 10
611.5949979315476
 20
41.675462564714145
 10
602.7458185686555
 20
43.63322056156562
 10
593.8833111290265
 20
45.53295341695623
 10
585.0094670991763
 20
47.37258464667492
 10
576.1184332787166
 20
49.15082913126913
 10
567.2016442297797
 20
50.8701882720369
 10
558.2561584630297
 20
52.53417471024028
 10
549.2840792604757
 20
54.14547700753242
 10
540.2945749284455
 20
55.70503823221675
 10
531.297782896375
 20
57.21077837135615
 10
522.2991703505876
 20
58.659645935636156
 10
513.3009733798915
 20
60.05072928109476
 10
504.30747978545156
 20
61.383048353623074
 10
495.3213542171793
 20
62.65459424946346
 10
486.34190997656185
 20
63.863525603247595
 10
477.36632343193423
 20
65.00964380549249
 10
468.3947868585214
 20
66.09324612109222
 10
459.4281542129118
 20
67.11352405807885
 10
450.46479135815235
 20
68.0695492562777
 10
441.50306436909943
 20
68.9614488341615
 10
432.5446149689186
 20
69.78930562431053
 10
423.58804305783656
 20
70.55132224614829
 10
414.62901456139076
 20
71.24708905721272
 10
405.66305556104504
 20
71.8783248227973
 10
396.6932605042392
 20
72.44702093898977
 10
387.72585790416804
 20
72.9533411972623
 10
378.76637069729315
 20
73.39601764945151
 10
369.818049076331
 20
73.77342375728509
 10
360.881322397913
 20
74.08424637253643
 10
351.9565636987006
 20
74.32844882077075
 10
343.04650334141877
 20
74.50686805469091
 10
334.15977705565433
 20
74.62151804941212
 10
325.3129366193454
 20
74.67214160049981
 10
316.5190386062163
 20
74.65449594747685
 10
307.78334468314256
 20
74.56218420986984
 10
299.09811417810744
 20
74.38684451044446
 10
290.4394022619452
 20
74.12366554547467
 10
281.7885692402376
 20
73.7771036477386
 10
273.1484847295188
 20
73.35376377209114
 10
264.5289405900759
 20
72.8537920397705
 10
255.9334578383395
 20
72.27527834570014
 10
247.36442023937738
 20
71.61845301820982
 10
238.82941743245112
 20
70.88449741699323
 10
230.33631087465008
 20
70.07261554300682
 10
221.89134292792366
 20
69.18171335798988
 10
213.4992213072564
 20
68.21036661178513
 10
205.16398369137372
 20
67.15761048138324
 10
196.8902292227007
 20
66.02347375745806
 10
188.6870244927454
 20
64.80741833028964
 10
180.55586593516162
 20
63.50208952374558
 10
172.48161290987449
 20
62.103719464341815
 10
164.46516759755468
 20
60.62595732505819
 10
156.54877081932807
 20
59.086507848017476
 10
148.77580329747116
 20
57.484342298669254
 10
141.16039491664407
 20
55.80798235027078
 10
133.7003309618638
 20
54.04889439682878
 10
126.3900072729279
 20
52.202898009651946
 10
119.22503371090772
 20
50.269261369136515
 10
112.20610824105142
 20
48.250674769321726
 10
105.34067635767065
 20
46.15383990594124
 10
98.64442330371293
 20
43.98780429689391
 10
92.13600517461879
 20
41.75894385710815
 10
85.82770159079547
 20
39.472514131748056
 10
79.73251483946405
 20
37.14329183209335
 10
73.8752977832296
 20
34.794898973459006
 10
68.28585042265911
 20
32.446894032536726
 10
62.98630215762182
 20
30.111068954486605
 10
57.9884650926557
 20
27.79472239027334
 10
53.293231331561856
 20
25.501660957982665
 10
48.893606595023016
 20
23.237985716539033
 10
44.780969323675095
 20
21.013984417656648
 10
40.94584681171938
 20
18.839554052255167
 10
37.3782578257194
 20
16.72371985684267
 10
34.06795913718764
 20
14.671149007391767
 10
31.002656233156586
 20
12.681583332053483
 10
28.168388457140054
 20
10.75168233336861
 10
25.549398862472515
 20
8.875671349497196
 10
23.126712205214517
 20
7.047850805577403
 10
20.88155136601131
 20
5.269533645709096
 10
18.798893709832896
 20
3.544512639200573
 10
16.86752750458544
 20
1.8735559330338911
 10
15.077079456391402
 20
0.25319803809508146
 10
13.417674608220864
 20
-1.319588183871553
 10
11.880371444427738
 20
-2.847800792061889
 10
10.456833989993072
 20
-4.3346190786383945
 10
9.138191867149885
 20
-5.784339533655143
 10
7.9152955913390315
 20
-7.19876421797172
 10
6.782119046261926
 20
-8.575133637912836
 10
5.736553654245938
 20
-9.913251890362435
 10
4.772506091716934
 20
-11.22528107828561
 10
3.876826787355128
 20
-12.51869119615053
 10
3.0448776350936555
 20
-13.772331367999778
 10
2.2894005231331676
 20
-14.97019912554654
 10
1.6155264702929912
 20
-16.148261441017645
 10
1.0055183241818213
 20
-17.341317285208135
 10
0.444201010717336
 20
-18.509821075894113
 10
-0.05578438486338655
 20
-19.612583985505605
 10
-0.4784143518203905
 20
-20.685148445069178
 10
-0.8279891182365873
 20
-21.769669594263224
 10
-1.1198830905879618
 20
-22.847342944535026
 10
-1.359233440279013
 20
-23.891304461867698
 10
-1.5409964512049328
 20
-24.907009018436636
 10
-1.6645574300319481
 20
-25.921890817046933
 10
-1.7274463121747203
 20
-26.87008183630951
 10
-1.7286580002187861
 20
-27.829190087105026
 10
-1.6508565828436303
 20
-28.793176884954132
 10
-1.4850898176598548
 20
-29.769118019939402
 10
-1.2329136534669942
 20
-30.75080512027176
 10
-0.896633722368847
 20
-31.72989349722658
 10
-0.47592190729238837
 20
-32.69997707680429
 10
0.030660200346346755
 20
-33.654766037258256
 10
0.6309177355459497
 20
-34.59513587343442
 10
1.3279798406215377
 20
-35.52310759003663
 10
2.1146309501137353
 20
-36.43642545917804
 10
2.985876205003251
 20
-37.33316338151786
 10
3.9395242792005547
 20
-38.21138094440902
 10
4.9757362932460865
 20
-39.06893346289733
 10
6.09891804644036
 20
-39.90478787824686
 10
7.313756789754734
 20
-40.719320774554376
 10
8.625611049752195
 20
-41.514929439237285
 10
10.038545782329322
 20
-42.296312956729686
 10
11.554259652492078
 20
-43.069722166993024
 10
13.173992860716112
 20
-43.84087468573896
 10
14.901801790288857
 20
-44.61415434834593
 10
16.7439374267974
 20
-45.392687281582575
 10
18.708058110667935
 20
-46.17837651741529
 10
20.802277920594577
 20
-46.9707535614473
 10
23.04098371143482
 20
-47.76586259314511
 10
25.446316958299292
 20
-48.560616960515134
 10
28.038794739357627
 20
-49.358765040647626
 10
30.83476015923361
 20
-50.16762329215019
 10
33.852180228678094
 20
-50.9929128107954
 10
37.11131610676375
 20
-51.83793988397205
 10
40.6331288931932
 20
-52.70013711290576
 10
44.44432140768754
 20
-53.5703466178072
 10
48.576839695934666
 20
-54.44028257862628
 10
53.06677943442833
 20
-55.30508244441085
 10
57.953901890357145
 20
-56.165654381546055
 10
63.26772413643977
 20
-57.032713383333586
 10
69.01452678366883
 20
-57.91257069128254
 10
75.18914215810344
 20
-58.79288440764524
 10
81.79027407460939
 20
-59.65586291534204
 10
88.81473388097538
 20
-60.49248672618512
 10
96.25163284478174
 20
-61.30199808291572
 10
104.06987827446733
 20
-62.09137133080261
 10
112.2010399216615
 20
-62.8647053295685
 10
120.56118550843252
 20
-63.610432500849186
 10
129.08921658096477
 20
-64.30986756821962
 10
137.75928449248784
 20
-64.94544238953095
 10
146.59203238659956
 20
-65.51071763330286
 10
155.61627187136526
 20
-66.02226947005622
 10
164.80879767441562
 20
-66.50109125771576
 10
174.12912771745061
 20
-66.9477030545311
 10
183.5722701902485
 20
-67.35909972983352
 10
193.13843409047558
 20
-67.74524815579173
 10
202.7961582987298
 20
-68.11886637212639
 10
206.03670492869213
 20
-68.24029654432606
 10
205.99738679036653
 20
-69.28956013561216
 10
212.4604834373159
 20
-69.53174676594331
 10
222.17064264908697
 20
-69.87899638377888
 10
231.87661875439622
 20
-70.19682632672563
 10
241.607362997062
 20
-70.47999290116503
 10
251.38762684794008
 20
-70.73814909196663
 10
261.2103414598407
 20
-70.98223923338603
 10
271.0519155548192
 20
-71.21694995022492
 10
280.8846207948909
 20
-71.4385760451358
 10
290.70592021723814
 20
-71.6356446164536
 10
300.5470953532231
 20
-71.80383526696326
 10
310.43508569724554
 20
-71.95072398121106
 10
320.36925695314267
 20
-72.0904973029258
 10
330.3253497460318
 20
-72.23790932259675
 10
340.3037081787515
 20
-72.39260074253066
 10
350.29257922612686
 20
-72.53982290871595
 10
360.30598783652715
 20
-72.67626752281065
 10
370.3437380206792
 20
-72.80925475685223
 10
380.38939040131015
 20
-72.944649051699
 10
390.437451229046
 20
-73.08500876381399
 10
400.4875105415688
 20
-73.23094924859893
 10
410.53650473966854
 20
-73.37969659646747
 10
420.576449244491
 20
-73.52404436506191
 10
430.6156690345519
 20
-73.65854685023139
 10
440.6638276000474
 20
-73.78818719931128
 10
450.711204813595
 20
-73.92137219720871
 10
460.7594056907908
 20
-74.061000250077
 10
470.8099060829068
 20
-74.20571106779974
 10
480.8580368078893
 20
-74.34908587702172
 10
490.901367366875
 20
-74.48571629758655
 10
500.9463310430426
 20
-74.61555571708412
 10
510.99033688538765
 20
-74.74201008583199
 10
521.0242816306331
 20
-74.87097001776154
 10
531.045307985179
 20
-75.00743133740232
 10
541.058243620251
 20
-75.153472859138
 10
551.0687697084844
 20
-75.30868692970961
 10
561.0769685617189
 20
-75.4706292494232
 10
571.0746959854189
 20
-75.63909061181785
 10
581.0582937969631
 20
-75.81676197778752
 10
591.0319638227115
 20
-76.00768964515001
 10
601.0098324614346
 20
-76.21489052799983
 10
611.0098442013345
 20
-76.43476048826204
 10
621.0300072435141
 20
-76.65917411828543
 10
631.0544672011675
 20
-76.88052853436471
 10
641.0824694100565
 20
-77.09459900033075
 10
651.1120108342983
 20
-77.30621578304121
 10
661.1324071043707
 20
-77.52392195799406
 10
671.1489442675615
 20
-77.75100428239739
 10
681.1676965102793
 20
-77.98635096589744
 10
691.1837670717915
 20
-78.22235708965701
 10
701.1872297018256
 20
-78.4522758315922
 10
711.1730330926439
 20
-78.6829364350166
 10
721.1312727601534
 20
-78.92432134584232
 10
731.0733817005366
 20
-79.18221108695788
 10
741.0177928440141
 20
-79.45740660652008
 10
750.9714647227922
 20
-79.74119164142569
 10
760.9105105427359
 20
-80.02671718081363
 10
770.8031448006477
 20
-80.314496677497
 10
780.6246676355936
 20
-80.61271429691975
 10
790.3757882172831
 20
-80.9357961117758
 10
800.0862889748382
 20
-81.28776693796239
 10
809.7526231890653
 20
-81.65376125413138
 10
819.3241725658315
 20
-82.03505439139455
 10
828.7951511823212
 20
-82.4580171524125
 10
838.2136049208779
 20
-82.93455732552638
 10
847.6116170342493
 20
-83.45588350824593
 10
856.9723603379514
 20
-83.99881172365207
 10
866.251212193951
 20
-84.529571317698
 10
875.354366362662
 20
-85.06780713601609
 10
884.2740323712435
 20
-85.69239481132468
 10
893.1610571361969
 20
-86.41744385745436
 10
902.0506961989493
 20
-87.14566502263692
 10
910.851046004786
 20
-87.84844940941726
 10
919.5277914879368
 20
-88.6125562039194
 10
928.1618475287244
 20
-89.47497819247829
 10
936.774478762813
 20
-90.33368950898208
 10
945.298690945438
 20
-91.14087456485431
 10
953.6986814387255
 20
-92.00128659646573
 10
962.0524218965666
 20
-93.00638009939358
 10
970.4588447443243
 20
-94.08728871454714
 10
978.8215950052772
 20
-95.16102892461137
 10
986.9678122345224
 20
-96.24815708079046
 10
994.9389471997731
 20
-97.48267935072504
 10
1002.8644435917222
 20
-98.79852066082448
 10
1010.6396026416189
 20
-100.13367265167027
 10
1018.1563255386648
 20
-101.438377360338
 10
1025.307506587926
 20
-102.73802179735608
 10
1032.0710737354614
 20
-104.01978248450021
 10
1038.4156285964355
 20
-105.2190469870786
 10
1044.3102600221894
 20
-106.36949091365861
 10
1049.7386013125608
 20
-107.45369426006744
 10
1053.0935343855647
 20
-108.159729993773
  0
LWPOLYLINE
  5
8C
330
17
100
AcDbEntity
  8
Layer
100
AcDbPolyline
 90
5
 70
0
 10
691.6417376368598
 20
16.878695036026954
 10
687.8027993551567
 20
18.002328815010912
 10
688.9264331341407
 20
21.8412670967141
 10
692.7653714158438
 20
20.71763331773014
 10
691.6417376368598
 20
16.878695036026954
  0
LWPOLYLINE
  5
8D
330
17
100
AcDbEntity
  8
Layer
100
AcDbPolyline
 90
5
 70
0
 10
293.7168455144259
 20
70.2213907435237
 10
289.71869288985613
 20
70.09983585614683
 10
289.59713800247926
 20
74.09798848071668
 10
293.59529062704905
 20
74.21954336809355
 10
293.7168455144259
 20
70.2213907435237
  0
LWPOLYLINE
  5
8E
330
17
100
AcDbEntity
  8
Layer
100
AcDbPolyline
 90
5
 70
0
 10
112.3598532794882
 20
44.11519721085653
 10
108.53433421082208
 20
42.94669224498271
 10
107.36582924494827
 20
46.772211313648846
 10
111.1913483136144
 20
47.94071627952267
 10
112.3598532794882
 20
44.11519721085653
  0
LWPOLYLINE
  5
8F
330
17
100
AcDbEntity
  8
Layer
100
AcDbPolyline
 90
5
 70
0
 10
19.36209366742263
 20
-1.2637683242364837
 10
17.87942034747753
 20
-2.606034999052999
 10
15.194886997844502
 20
0.3593116408371948
 10
16.6775603177896
 20
1.7015783156537103
 10
19.36209366742263
 20
-1.2637683242364837
  0
LWPOLYLINE
  5
90
330
17
100
AcDbEntity
  8
Layer
100
AcDbPolyline
 90
5
 70
0
 10
8.462224755063914
 20
-36.67325061660187
 10
10.124556632927586
 20
-37.78529950394371
 10
7.900458858243896
 20
-41.109963259671055
 10
6.238126980380223
 20
-39.99791437232921
 10
8.462224755063914
 20
-36.67325061660187
  0
LWPOLYLINE
  5
91
330
17
100
AcDbEntity
  8
Layer
100
AcDbPolyline
 90
5
 70
0
 10
151.3464101439328
 20
-61.77379682328833
 10
155.33999928510846
 20
-62.00017211231934
 10
155.11362399607745
 20
-65.993761253495
 10
151.12003485490177
 20
-65.76738596446398
 10
151.3464101439328
 20
-61.77379682328833
  0
LINE
  5
92
330
17
100
AcDbEntity
  8
Layer
100
AcDbLine
 10
1035.0059557943607
 20
-98.7109206045584
 30
0.0
 11
1034.7981506303047
 21
-99.16569199085234
 31
0.0
  0
LINE
  5
93
330
17
100
AcDbEntity
  8
Layer
100
AcDbLine
 10
1033.4560073603639
 20
-103.77331470220624
 30
0.0
 11
1033.3871495416072
 21
-104.2685506063934
 31
0.0
  0
LINE
  5
94
330
17
100
AcDbEntity
  8
Layer
100
AcDbLine
 10
1016.306421153042
 20
-91.55870793584612
 30
0.0
 11
1016.1131191746624
 21
-92.01983085346633
 31
0.0
  0
LINE
  5
95
330
17
100
AcDbEntity
  8
Layer
100
AcDbLine
 10
1013.7839675566881
 20
-100.17201346888561
 30
0.0
 11
1013.7045033202205
 21
-100.66565851861532
 31
0.0
  0
LINE
  5
96
330
17
100
AcDbEntity
  8
Layer
100
AcDbLine
 10
978.8794899365605
 20
-77.40791612809
 30
0.0
 11
978.6943969052006
 21
-77.8723949432603
 31
0.0
  0
LINE
  5
97
330
17
100
AcDbEntity
  8
Layer
100
AcDbLine
 10
974.2501173597752
 20
-94.07017408816233
 30
0.0
 11
974.1722502741043
 21
-94.56407358904193
 31
0.0
  0
LWPOLYLINE
  5
98
330
17
100
AcDbEntity
  8
Layer
100
AcDbPolyline
 90
300
 70
1
 10
456.3993815789473
 20
0.0
 10
456.38633384836805
 20
1.238789056279268
 10
456.3471964181407
 20
2.4770310981846184
 10
456.2819865702527
 20
3.7141793528882823
 10
456.1907330995371
 20
4.949687530548126
 10
456.0734763009578
 20
6.183010065533873
 10
455.93026795181606
 20
7.413602357333515
 10
455.76117128888734
 20
8.640921011033585
 10
455.5662609804978
 20
9.864424077267039
 10
455.34562309355266
 20
11.08357129152284
 10
455.09935505553153
 20
12.297824312711576
 10
454.8275656114674
 20
13.506646960881701
 10
454.53037477592744
 20
14.70950545398153
 10
454.20791378001843
 20
15.905868643562364
 10
453.86032501343846
 20
17.095208249318677
 10
453.4877619616019
 20
18.276999092361848
 10
453.09038913786435
 20
19.450719327124354
 10
452.6683820108783
 20
20.6158506717921
 10
452.2219269271109
 20
21.77187863716307
 10
451.75122102855914
 20
22.918292753831267
 10
451.2564721656967
 20
24.054586797595643
 10
450.7378988056938
 20
25.180259012994462
 10
450.1957299359477
 20
26.294812334866364
 10
449.63020496296866
 20
27.397754607840373
 10
449.04157360666454
 20
28.488598803657823
 10
448.4300957900717
 20
29.566863236230375
 10
447.79604152458006
 20
30.632071774338982
 10
447.1396907907039
 20
31.683754051880058
 10
446.46133341445034
 20
32.7214456755659
 10
445.76126893934014
 20
33.74468842998771
 10
445.03980649413796
 20
34.75303047995058
 10
444.2972646563495
 20
35.74602656999126
 10
443.533971311547
 20
36.72323822099034
 10
442.75026350858394
 20
37.68423392379238
 10
441.9464873107638
 20
38.628589329748166
 10
441.1229976430283
 20
39.555887438095105
 10
440.28015813523257
 20
40.46571878009306
 10
439.41834096157635
 20
41.35768159983421
 10
438.5379266762624
 20
42.23138203164712
 10
437.6393040454543
 20
43.086434274016796
 10
436.7228698756088
 20
43.9224607599437
 10
435.7890288382564
 20
44.739092323666746
 10
434.83819329131063
 20
45.53596836367651
 10
433.8707830969819
 20
46.3127370019467
 10
432.88722543637823
 20
47.069055239313606
 10
431.8879546208744
 20
47.80458910693481
 10
430.8734119003318
 20
48.5190138137605
 10
429.8440452682553
 20
49.212013889952026
 10
428.80030926397177
 20
49.88328332618448
 10
427.7426647719184
 20
50.53252570877184
 10
426.67157881812886
 20
51.15945435055487
 10
425.5875243640082
 20
51.76379241749411
 10
424.4909800974858
 20
52.34527305091202
 10
423.3824302216409
 20
52.90363948533023
 10
422.2623642408917
 20
53.43864516184996
 10
421.1312767448441
 20
53.95005383702547
 10
419.98966718989504
 20
54.43763968718256
 10
418.83803967868624
 20
54.9011874081359
 10
417.67690273750713
 20
55.34049231026131
 10
416.50676909174354
 20
55.755360408880954
 10
415.32815543947277
 20
56.145608509921495
 10
414.14158222330445
 20
56.51106429080745
 10
412.94757340056736
 20
56.85156637655397
 10
411.746656211945
 20
57.16696441102552
 10
410.53936094866054
 20
57.4571191233289
 10
409.3262207183156
 20
57.72190238931134
 10
408.1077712094845
 20
57.96119728813653
 10
406.8845504551697
 20
58.17489815391358
 10
405.65709859522116
 20
58.36291062235609
 10
404.4259576378261
 20
58.52515167245076
 10
403.19167122017325
 20
58.66154966311715
 10
401.95478436839807
 20
58.77204436484232
 10
400.7158432569145
 20
58.85658698627656
 10
399.47539496723977
 20
58.91514019577822
 10
398.23398724641856
 20
58.94767813789829
 10
396.99216826515334
 20
58.95418644479756
 10
395.7504863757476
 20
58.93466224259089
 10
394.5094898699689
 20
58.889114152616344
 10
393.2697267369387
 20
58.81756228762823
 10
392.0317444211559
 20
58.72003824291586
 10
390.7960895807604
 20
58.596585082351965
 10
389.5633078461447
 20
58.44725731937691
 10
388.3339435790185
 20
58.272120892927056
 10
387.10853963203425
 20
58.07125313831805
 10
385.88763710907836
 20
57.84474275309566
 10
384.6717751263351
 20
57.59268975786947
 10
383.4614905742282
 20
57.31520545214661
 10
382.257317880345
 20
57.012412365184964
 10
381.05978877344825
 20
56.684444201887764
 10
379.86943204867964
 20
56.33144578376325
 10
378.68677333405907
 20
55.95357298497555
 10
377.5123348583816
 20
55.55099266351505
 10
376.34663522061635
 20
55.12388258751862
 10
375.1901891609076
 20
54.67243135677218
 10
374.04350733328
 20
54.19683831943034
 10
372.90709608014816
 20
53.697313483989916
 10
371.7814572087302
 20
53.17407742655604
 10
370.6670877694638
 20
52.62736119344196
 10
369.56447983652254
 20
52.057406199145554
 10
368.47412029052987
 20
51.4644641197474
 10
367.3964906035664
 20
50.848796781777764
 10
366.3320666265655
 20
50.21067604660135
 10
365.28131837919057
 20
49.55038369037099
 10
364.2447098422879
 20
48.86821127960319
 10
363.2226987530056
 20
48.164460042430605
 10
362.21573640266996
 20
47.43944073558818
 10
361.2242674375078
 20
46.69347350719169
 10
360.24872966230305
 20
45.92688775536935
 10
359.28955384707484
 20
45.14002198280889
 10
358.34716353686116
 20
44.33322364728432
 10
357.4219748646937
 20
43.5068490082283
 10
356.51439636784494
 20
42.661262969418026
 10
355.6248288074297
 20
41.79683891784403
 10
354.75366499144036
 20
40.913958558832945
 10
353.90128960129374
 20
40.013011747497224
 10
353.0680790219668
 20
39.09439631658608
 10
352.2544011757956
 20
38.158517900813685
 10
351.46061536001093
 20
37.205789757742444
 10
350.68707208808314
 20
36.2366325852999
 10
349.9341129349449
 20
35.25147433601053
 10
349.20207038616167
 20
34.25075002802388
 10
348.4912676911151
 20
33.23490155302282
 10
347.80201872026544
 20
32.20437748109662
 10
347.134627826555
 20
31.15963286266499
 10
346.4893897110147
 20
30.101129027540676
 10
345.86658929263217
 20
29.029333381219192
 10
345.2665015825395
 20
27.94471919848563
 10
344.6893915625765
 20
26.84776541442997
 10
344.13551406828145
 20
25.738956412962743
 10
343.6051136763637
 20
24.618781812924745
 10
343.09842459670494
 20
23.487736251885156
 10
342.61567056893887
 20
22.3463191677235
 10
342.1570647636539
 20
21.19503457809196
 10
341.7228096882636
 20
20.03439085785529
 10
341.3130970975844
 20
18.86490051460691
 10
340.92810790916235
 20
17.687079962359906
 10
340.5680121233853
 20
16.501449293513147
 10
340.23296874841515
 20
15.308532049193133
 10
339.9231257299743
 20
14.10885498807296
 10
339.63861988601735
 20
12.902947853770533
 10
339.37957684631584
 20
11.691343140928716
 10
339.14611099698374
 20
10.474575860080579
 10
338.93832542996773
 20
9.253183301403979
 10
338.7563118975248
 20
8.02770479746922
 10
338.60015077170704
 20
6.798681485085012
 10
338.46991100887146
 20
5.5666560663476865
 10
338.365650119231
 20
4.332172568999226
 10
338.28741414145935
 20
3.0957761061999576
 10
338.2352376223619
 20
1.858012635821819
 10
338.2091436016207
 20
0.6194287193688922
 10
338.2091436016207
 20
-0.6194287193688777
 10
338.2352376223619
 20
-1.8580126358218043
 10
338.28741414145935
 20
-3.095776106199943
 10
338.365650119231
 20
-4.332172568999238
 10
338.46991100887146
 20
-5.566656066347698
 10
338.60015077170704
 20
-6.798681485084998
 10
338.7563118975248
 20
-8.027704797469207
 10
338.93832542996773
 20
-9.253183301403965
 10
339.14611099698374
 20
-10.474575860080567
 10
339.37957684631584
 20
-11.691343140928701
 10
339.63861988601735
 20
-12.902947853770547
 10
339.9231257299743
 20
-14.108854988072972
 10
340.23296874841515
 20
-15.308532049193118
 10
340.5680121233853
 20
-16.501449293513136
 10
340.92810790916235
 20
-17.687079962359896
 10
341.3130970975844
 20
-18.864900514606898
 10
341.7228096882636
 20
-20.034390857855275
 10
342.1570647636539
 20
-21.19503457809195
 10
342.61567056893887
 20
-22.34631916772351
 10
343.09842459670494
 20
-23.487736251885167
 10
343.6051136763637
 20
-24.618781812924734
 10
344.13551406828145
 20
-25.73895641296273
 10
344.6893915625765
 20
-26.847765414429958
 10
345.2665015825395
 20
-27.94471919848562
 10
345.86658929263217
 20
-29.029333381219182
 10
346.4893897110147
 20
-30.10112902754069
 10
347.134627826555
 20
-31.159632862665003
 10
347.80201872026544
 20
-32.20437748109661
 10
348.4912676911151
 20
-33.23490155302281
 10
349.20207038616167
 20
-34.25075002802387
 10
349.9341129349449
 20
-35.25147433601052
 10
350.68707208808314
 20
-36.236632585299894
 10
351.46061536001093
 20
-37.205789757742444
 10
352.2544011757956
 20
-38.1585179008137
 10
353.0680790219668
 20
-39.09439631658608
 10
353.90128960129374
 20
-40.01301174749722
 10
354.75366499144036
 20
-40.91395855883294
 10
355.6248288074297
 20
-41.796838917844006
 10
356.51439636784494
 20
-42.66126296941801
 10
357.4219748646937
 20
-43.506849008228286
 10
358.34716353686116
 20
-44.33322364728432
 10
359.2895538470748
 20
-45.14002198280888
 10
360.24872966230305
 20
-45.926887755369336
 10
361.22426743750776
 20
-46.693473507191676
 10
362.21573640266996
 20
-47.43944073558817
 10
363.22269875300555
 20
-48.16446004243059
 10
364.2447098422878
 20
-48.86821127960317
 10
365.28131837919057
 20
-49.550383690370985
 10
366.3320666265655
 20
-50.21067604660135
 10
367.3964906035664
 20
-50.84879678177777
 10
368.47412029052987
 20
-51.4644641197474
 10
369.56447983652254
 20
-52.05740619914556
 10
370.6670877694639
 20
-52.62736119344197
 10
371.7814572087303
 20
-53.17407742655604
 10
372.9070960801481
 20
-53.6973134839899
 10
374.04350733327993
 20
-54.19683831943033
 10
375.19018916090755
 20
-54.672431356772165
 10
376.34663522061635
 20
-55.123882587518615
 10
377.5123348583816
 20
-55.550992663515046
 10
378.68677333405907
 20
-55.953572984975544
 10
379.86943204867964
 20
-56.33144578376324
 10
381.05978877344825
 20
-56.684444201887764
 10
382.257317880345
 20
-57.012412365184964
 10
383.4614905742282
 20
-57.31520545214661
 10
384.6717751263351
 20
-57.59268975786947
 10
385.88763710907836
 20
-57.84474275309566
 10
387.10853963203425
 20
-58.07125313831805
 10
388.3339435790185
 20
-58.272120892927056
 10
389.5633078461447
 20
-58.44725731937691
 10
390.7960895807604
 20
-58.596585082351965
 10
392.03174442115585
 20
-58.720038242915855
 10
393.2697267369387
 20
-58.81756228762823
 10
394.5094898699689
 20
-58.889114152616344
 10
395.7504863757476
 20
-58.93466224259089
 10
396.99216826515334
 20
-58.95418644479756
 10
398.23398724641856
 20
-58.9476781378983
 10
399.47539496723977
 20
-58.91514019577822
 10
400.71584325691447
 20
-58.85658698627656
 10
401.95478436839807
 20
-58.77204436484232
 10
403.19167122017325
 20
-58.66154966311715
 10
404.4259576378261
 20
-58.52515167245076
 10
405.65709859522116
 20
-58.36291062235609
 10
406.8845504551697
 20
-58.17489815391358
 10
408.10777120948455
 20
-57.961197288136525
 10
409.32622071831554
 20
-57.721902389311346
 10
410.53936094866054
 20
-57.45711912332891
 10
411.746656211945
 20
-57.166964411025525
 10
412.94757340056736
 20
-56.851566376553976
 10
414.14158222330445
 20
-56.511064290807454
 10
415.32815543947277
 20
-56.1456085099215
 10
416.5067690917435
 20
-55.755360408880954
 10
417.67690273750713
 20
-55.34049231026131
 10
418.83803967868624
 20
-54.9011874081359
 10
419.98966718989504
 20
-54.43763968718256
 10
421.1312767448441
 20
-53.95005383702547
 10
422.2623642408917
 20
-53.438645161849955
 10
423.3824302216409
 20
-52.903639485330224
 10
424.4909800974858
 20
-52.34527305091202
 10
425.5875243640082
 20
-51.7637924174941
 10
426.67157881812886
 20
-51.15945435055489
 10
427.7426647719184
 20
-50.532525708771864
 10
428.80030926397177
 20
-49.883283326184504
 10
429.8440452682553
 20
-49.21201388995205
 10
430.87341190033175
 20
-48.519013813760516
 10
431.8879546208744
 20
-47.80458910693482
 10
432.88722543637823
 20
-47.06905523931361
 10
433.8707830969819
 20
-46.31273700194671
 10
434.83819329131063
 20
-45.53596836367651
 10
435.7890288382564
 20
-44.739092323666746
 10
436.7228698756088
 20
-43.9224607599437
 10
437.6393040454543
 20
-43.086434274016796
 10
438.5379266762624
 20
-42.23138203164712
 10
439.41834096157635
 20
-41.357681599834194
 10
440.28015813523257
 20
-40.46571878009305
 10
441.12299764302827
 20
-39.55588743809513
 10
441.94648731076376
 20
-38.62858932974818
 10
442.75026350858394
 20
-37.6842339237924
 10
443.533971311547
 20
-36.723238220990346
 10
444.2972646563495
 20
-35.746026569991265
 10
445.03980649413796
 20
-34.753030479950596
 10
445.76126893934014
 20
-33.74468842998772
 10
446.46133341445034
 20
-32.7214456755659
 10
447.1396907907039
 20
-31.683754051880058
 10
447.79604152458006
 20
-30.632071774338982
 10
448.4300957900717
 20
-29.566863236230372
 10
449.04157360666454
 20
-28.48859880365782
 10
449.63020496296866
 20
-27.39775460784036
 10
450.1957299359477
 20
-26.29481233486635
 10
450.7378988056938
 20
-25.180259012994444
 10
451.2564721656967
 20
-24.05458679759567
 10
451.75122102855914
 20
-22.918292753831288
 10
452.2219269271109
 20
-21.771878637163088
 10
452.6683820108783
 20
-20.615850671792117
 10
453.09038913786435
 20
-19.450719327124368
 10
453.4877619616019
 20
-18.27699909236186
 10
453.86032501343846
 20
-17.095208249318684
 10
454.2079137800184
 20
-15.90586864356237
 10
454.5303747759274
 20
-14.709505453981533
 10
454.8275656114674
 20
-13.506646960881701
 10
455.09935505553153
 20
-12.297824312711573
 10
455.34562309355266
 20
-11.083571291522835
 10
455.5662609804978
 20
-9.864424077267028
 10
455.76117128888734
 20
-8.640921011033573
 10
455.93026795181606
 20
-7.413602357333499
 10
456.0734763009578
 20
-6.183010065533904
 10
456.1907330995371
 20
-4.949687530548156
 10
456.2819865702527
 20
-3.7141793528883076
 10
456.3471964181407
 20
-2.4770310981846397
 10
456.38633384836805
 20
-1.238789056279286
 10
456.3993815789473
 20
-1.443981040874644e-14
  0
LINE
  5
99
330
17
100
AcDbEntity
  8
Layer
100
AcDbLine
 10
757.1839508059393
 20
-4.4072750566426255e-14
 30
0.0
 11
761.1839508059393
 21
-4.4562609286085196e-14
 31
0.0
  0
LINE
  5
9A
330
17
100
AcDbEntity
  8
Layer
100
AcDbLine
 10
16.809936950884946
 20
4.6596916057520795e-14
 30
0.0
 11
12.809936950884946
 21
4.7086774777179735e-14
 31
0.0
  0
LINE
  5
9B
330
17
100
AcDbEntity
  8
Layer
100
AcDbLine
 10
169.18473972189582
 20
2.793638460909802e-14
 30
0.0
 11
158.18473972189582
 21
2.928349608816011e-14
 31
0.0
  0
LWPOLYLINE
  5
9C
330
17
100
AcDbEntity
  8
Layer
100
AcDbPolyline
 90
5
 70
0
 10
158.68473972189582
 20
-4.999999999999971
 10
158.68473972189582
 20
5.000000000000029
 10
168.68473972189582
 20
5.000000000000028
 10
168.68473972189582
 20
-4.999999999999972
 10
158.68473972189582
 20
-4.999999999999971
  0
LINE
  5
9D
330
17
100
AcDbEntity
  8
Layer
100
AcDbLine
 10
392.49694387841214
 20
5.885270060162253e-16
 30
0.0
 11
381.49694387841214
 21
1.9356384850783137e-15
 31
0.0
  0
LWPOLYLINE
  5
9E
330
17
100
AcDbEntity
  8
Layer
100
AcDbPolyline
 90
5
 70
0
 10
381.99694387841214
 20
-4.999999999999998
 10
381.99694387841214
 20
5.000000000000002
 10
391.99694387841214
 20
5.000000000000001
 10
391.99694387841214
 20
-4.999999999999999
 10
381.99694387841214
 20
-4.999999999999998
  0
LINE
  5
9F
330
17
100
AcDbEntity
  8
Layer
100
AcDbLine
 10
615.8091480349285
 20
-2.6759330597065575e-14
 30
0.0
 11
604.8091480349285
 21
-2.5412219118003488e-14
 31
0.0
  0
LWPOLYLINE
  5
A0
330
17
100
AcDbEntity
  8
Layer
100
AcDbPolyline
 90
5
 70
0
 10
605.3091480349285
 20
-5.000000000000026
 10
605.3091480349285
 20
4.999999999999974
 10
615.3091480349285
 20
4.999999999999973
 10
615.3091480349285
 20
-5.000000000000027
 10
605.3091480349285
 20
-5.000000000000026
  0
LINE
  5
A1
330
17
100
AcDbEntity
  8
Layer
100
AcDbLine
 10
0.3375330926824063
 20
-26.00974304052073
 30
0.0
 11
-3.650677916225277
 21
-25.702866928013453
 31
0.0
  0
LINE
  5
A2
330
17
100
AcDbEntity
  8
Layer
100
AcDbLine
 10
671.4957941420076
 20
-77.65255671510876
 30
0.0
 11
675.4840051509153
 21
-77.95943282761603
 31
0.0
  0
LINE
  5
A3
330
17
100
AcDbEntity
  8
Layer
100
AcDbLine
 10
1042.0588049467071
 20
-106.16582643447683
 30
0.0
 11
1046.0470159556148
 21
-106.4727025469841
 31
0.0
  0
LINE
  5
A4
330
17
100
AcDbEntity
  8
Layer
100
AcDbLine
 10
397.30263157894734
 20
58.95499999999999
 30
0.0
 11
397.30263157894734
 21
59.45499999999999
 31
0.0
  0
LINE
  5
A5
330
17
100
AcDbEntity
  8
Layer
100
AcDbLine
 10
397.30263157894734
 20
-58.95499999999999
 30
0.0
 11
397.30263157894734
 21
-59.45499999999999
 31
0.0
  0
LINE
  5
A6
330
17
100
AcDbEntity
  8
Layer
100
AcDbLine
 10
456.3993815789473
 20
0.0
 30
0.0
 11
456.8993815789473
 21
0.0
 31
0.0
  0
LINE
  5
A7
330
17
100
AcDbEntity
  8
Layer
100
AcDbLine
 10
338.20588157894736
 20
0.0
 30
0.0
 11
337.70588157894736
 21
0.0
 31
0.0
  0
LINE
  5
A8
330
17
100
AcDbEntity
  8
Layer
100
AcDbLine
 10
247.30263157894734
 20
69.61313958897726
 30
0.0
 11
247.30263157894734
 21
73.61313958897726
 31
0.0
  0
LINE
  5
A9
330
17
100
AcDbEntity
  8
Layer
100
AcDbLine
 10
247.30263157894734
 20
-68.6303230829586
 30
0.0
 11
247.30263157894734
 21
-72.6303230829586
 31
0.0
  0
LINE
  5
AA
330
17
100
AcDbEntity
  8
Layer
100
AcDbLine
 10
247.30263157894734
 20
-36.68163054857143
 30
0.0
 11
247.30263157894734
 21
-47.68163054857143
 31
0.0
  0
LWPOLYLINE
  5
AB
330
17
100
AcDbEntity
  8
Layer
100
AcDbPolyline
 90
5
 70
0
 10
252.30263157894734
 20
-47.18163054857143
 10
242.30263157894734
 20
-47.18163054857143
 10
242.30263157894734
 20
-37.18163054857143
 10
252.30263157894734
 20
-37.18163054857143
 10
252.30263157894734
 20
-47.18163054857143
  0
LINE
  5
AC
330
17
100
AcDbEntity
  8
Layer
100
AcDbLine
 10
247.30263157894734
 20
5.991408253009332
 30
0.0
 11
247.30263157894734
 21
-5.008591746990668
 31
0.0
  0
LWPOLYLINE
  5
AD
330
17
100
AcDbEntity
  8
Layer
100
AcDbPolyline
 90
5
 70
0
 10
252.30263157894734
 20
-4.508591746990668
 10
242.30263157894734
 20
-4.508591746990668
 10
242.30263157894734
 20
5.491408253009332
 10
252.30263157894734
 20
5.491408253009332
 10
252.30263157894734
 20
-4.508591746990668
  0
LINE
  5
AE
330
17
100
AcDbEntity
  8
Layer
100
AcDbLine
 10
247.30263157894734
 20
48.66444705459009
 30
0.0
 11
247.30263157894734
 21
37.66444705459009
 31
0.0
  0
LWPOLYLINE
  5
AF
330
17
100
AcDbEntity
  8
Layer
100
AcDbPolyline
 90
5
 70
0
 10
252.30263157894734
 20
38.16444705459009
 10
242.30263157894734
 20
38.16444705459009
 10
242.30263157894734
 20
48.16444705459009
 10
252.30263157894734
 20
48.16444705459009
 10
252.30263157894734
 20
38.16444705459009
  0
LINE
  5
B0
330
17
100
AcDbEntity
  8
Layer
100
AcDbLine
 10
497.30263157894734
 20
60.37424149023065
 30
0.0
 11
497.30263157894734
 21
64.37424149023065
 31
0.0
  0
LINE
  5
B1
330
17
100
AcDbEntity
  8
Layer
100
AcDbLine
 10
497.30263157894734
 20
-72.56845790384223
 30
0.0
 11
497.30263157894734
 21
-76.56845790384223
 31
0.0
  0
LINE
  5
B2
330
17
100
AcDbEntity
  8
Layer
100
AcDbLine
 10
497.30263157894734
 20
-41.67991802502765
 30
0.0
 11
497.30263157894734
 21
-52.67991802502765
 31
0.0
  0
LWPOLYLINE
  5
B3
330
17
100
AcDbEntity
  8
Layer
100
AcDbPolyline
 90
5
 70
0
 10
502.30263157894734
 20
-52.17991802502765
 10
492.30263157894734
 20
-52.17991802502765
 10
492.30263157894734
 20
-42.17991802502765
 10
502.30263157894734
 20
-42.17991802502765
 10
502.30263157894734
 20
-52.17991802502765
  0
LINE
  5
B4
330
17
100
AcDbEntity
  8
Layer
100
AcDbLine
 10
497.30263157894734
 20
-0.5971082068057889
 30
0.0
 11
497.30263157894734
 21
-11.597108206805789
 31
0.0
  0
LWPOLYLINE
  5
B5
330
17
100
AcDbEntity
  8
Layer
100
AcDbPolyline
 90
5
 70
0
 10
502.30263157894734
 20
-11.097108206805789
 10
492.30263157894734
 20
-11.097108206805789
 10
492.30263157894734
 20
-1.097108206805789
 10
502.30263157894734
 20
-1.097108206805789
 10
502.30263157894734
 20
-11.097108206805789
  0
LINE
  5
B6
330
17
100
AcDbEntity
  8
Layer
100
AcDbLine
 10
497.30263157894734
 20
40.485701611416076
 30
0.0
 11
497.30263157894734
 21
29.485701611416076
 31
0.0
  0
LWPOLYLINE
  5
B7
330
17
100
AcDbEntity
  8
Layer
100
AcDbPolyline
 90
5
 70
0
 10
502.30263157894734
 20
29.985701611416076
 10
492.30263157894734
 20
29.985701611416076
 10
492.30263157894734
 20
39.985701611416076
 10
502.30263157894734
 20
39.985701611416076
 10
502.30263157894734
 20
29.985701611416076
  0
ENDSEC
  0
SECTION
  2
OBJECTS
  0
DICTIONARY
  5
A
330
0
100
AcDbDictionary
280
0
281
1
  3
ACAD_COLOR
350
B
  3
ACAD_GROUP
350
C
  3
ACAD_LAYOUT
350
D
  3
ACAD_MATERIAL
350
E
  3
ACAD_MLEADERSTYLE
350
F
  3
ACAD_MLINESTYLE
350
10
  3
ACAD_PLOTSETTINGS
350
11
  3
ACAD_PLOTSTYLENAME
350
12
  3
ACAD_SCALELIST
350
14
  3
ACAD_TABLESTYLE
350
15
  3
ACAD_VISUALSTYLE
350
16
  3
EZDXF_META
350
2D
  0
DICTIONARY
  5
B
330
A
100
AcDbDictionary
280
0
281
1
  0
DICTIONARY
  5
C
330
A
100
AcDbDictionary
280
0
281
1
  0
DICTIONARY
  5
D
330
A
100
AcDbDictionary
280
0
281
1
  3
Model
350
1A
  3
Layout1
350
1E
  0
DICTIONARY
  5
E
330
A
100
AcDbDictionary
280
0
281
1
  3
ByBlock
350
1F
  3
ByLayer
350
20
  3
Global
350
21
  0
DICTIONARY
  5
F
330
A
100
AcDbDictionary
280
0
281
1
  3
Standard
350
2C
  0
DICTIONARY
  5
10
330
A
100
AcDbDictionary
280
0
281
1
  3
Standard
350
22
  0
DICTIONARY
  5
11
330
A
100
AcDbDictionary
280
0
281
1
  0
ACDBDICTIONARYWDFLT
  5
12
330
A
100
AcDbDictionary
280
0
281
1
  3
Normal
350
13
100
AcDbDictionaryWithDefault
340
13
  0
ACDBPLACEHOLDER
  5
13
330
12
  0
DICTIONARY
  5
14
330
A
100
AcDbDictionary
280
0
281
1
  0
DICTIONARY
  5
15
330
A
100
AcDbDictionary
280
0
281
1
  0
DICTIONARY
  5
16
330
A
100
AcDbDictionary
280
0
281
1
  3
2dWireframe
350
5A
  3
Basic
350
5B
  3
Brighten
350
5C
  3
ColorChange
350
5D
  3
Conceptual
350
5E
  3
Dim
350
5F
  3
EdgeColorOff
350
60
  3
Facepattern
350
61
  3
Flat
350
62
  3
FlatWithEdges
350
63
  3
Gouraud
350
64
  3
GouraudWithEdges
350
65
  3
Hidden
350
66
  3
JitterOff
350
67
  3
Linepattern
350
68
  3
Modeling
350
69
  3
OverhangOff
350
6A
  3
Realistic
350
6B
  3
Shaded
350
6C
  3
Shaded with edges
350
6D
  3
Shades of Gray
350
6E
  3
Sketchy
350
6F
  3
Thicken
350
70
  3
Wireframe
350
71
  3
X-Ray
350
72
  0
LAYOUT
  5
1A
330
D
100
AcDbPlotSettings
  1

  2
Adobe PDF
  4
A3
  6

 40
7.5
 41
20.0
 42
7.5
 43
20.0
 44
420.0
 45
297.0
 46
0.0
 47
0.0
 48
0.0
 49
0.0
140
0.0
141
0.0
142
1.0
143
1.0
 70
1024
 72
1
 73
0
 74
5
  7

 75
16
 76
0
 77
2
 78
300
147
1.0
148
0.0
149
0.0
100
AcDbLayout
  1
Model
 70
1
 71
0
 10
0.0
 20
0.0
 11
420.0
 21
297.0
 12
0.0
 22
0.0
 32
0.0
 14
1e+20
 24
1e+20
 34
1e+20
 15
-1e+20
 25
-1e+20
 35
-1e+20
146
0.0
 13
0.0
 23
0.0
 33
0.0
 16
1.0
 26
0.0
 36
0.0
 17
0.0
 27
1.0
 37
0.0
 76
1
330
17
  0
LAYOUT
  5
1E
330
D
100
AcDbPlotSettings
  1

  2
Adobe PDF
  4
A3
  6

 40
7.5
 41
20.0
 42
7.5
 43
20.0
 44
420.0
 45
297.0
 46
0.0
 47
0.0
 48
0.0
 49
0.0
140
0.0
141
0.0
142
1.0
143
1.0
 70
0
 72
1
 73
0
 74
5
  7

 75
16
 76
0
 77
2
 78
300
147
1.0
148
0.0
149
0.0
100
AcDbLayout
  1
Layout1
 70
1
 71
1
 10
0.0
 20
0.0
 11
420.0
 21
297.0
 12
0.0
 22
0.0
 32
0.0
 14
1e+20
 24
1e+20
 34
1e+20
 15
-1e+20
 25
-1e+20
 35
-1e+20
146
0.0
 13
0.0
 23
0.0
 33
0.0
 16
1.0
 26
0.0
 36
0.0
 17
0.0
 27
1.0
 37
0.0
 76
1
330
1B
  0
MATERIAL
  5
1F
102
{ACAD_REACTORS
330
E
102
}
330
E
100
AcDbMaterial
  1
ByBlock
  2

 70
0
 40
1.0
 71
1
 41
1.0
 91
-1023410177
 42
1.0
 72
1
  3

 73
1
 74
1
 75
1
 44
0.5
 73
0
 45
1.0
 46
1.0
 77
1
  4

 78
1
 79
1
170
1
 48
1.0
171
1
  6

172
1
173
1
174
1
140
1.0
141
1.0
175
1
  7

176
1
177
1
178
1
143
1.0
179
1
  8

270
1
271
1
272
1
145
1.0
146
1.0
273
1
  9

274
1
275
1
276
1
 42
1.0
 72
1
  3

 73
1
 74
1
 75
1
 94
63
  0
MATERIAL
  5
20
102
{ACAD_REACTORS
330
E
102
}
330
E
100
AcDbMaterial
  1
ByLayer
  2

 70
0
 40
1.0
 71
1
 41
1.0
 91
-1023410177
 42
1.0
 72
1
  3

 73
1
 74
1
 75
1
 44
0.5
 73
0
 45
1.0
 46
1.0
 77
1
  4

 78
1
 79
1
170
1
 48
1.0
171
1
  6

172
1
173
1
174
1
140
1.0
141
1.0
175
1
  7

176
1
177
1
178
1
143
1.0
179
1
  8

270
1
271
1
272
1
145
1.0
146
1.0
273
1
  9

274
1
275
1
276
1
 42
1.0
 72
1
  3

 73
1
 74
1
 75
1
 94
63
  0
MATERIAL
  5
21
102
{ACAD_REACTORS
330
E
102
}
330
E
100
AcDbMaterial
  1
Global
  2

 70
0
 40
1.0
 71
1
 41
1.0
 91
-1023410177
 42
1.0
 72
1
  3

 73
1
 74
1
 75
1
 44
0.5
 73
0
 45
1.0
 46
1.0
 77
1
  4

 78
1
 79
1
170
1
 48
1.0
171
1
  6

172
1
173
1
174
1
140
1.0
141
1.0
175
1
  7

176
1
177
1
178
1
143
1.0
179
1
  8

270
1
271
1
272
1
145
1.0
146
1.0
273
1
  9

274
1
275
1
276
1
 42
1.0
 72
1
  3

 73
1
 74
1
 75
1
 94
63
  0
MLINESTYLE
  5
22
102
{ACAD_REACTORS
330
10
102
}
330
10
100
AcDbMlineStyle
  2
Standard
 70
0
  3

 62
256
 51
90.0
 52
90.0
 71
2
 49
0.5
 62
256
  6
BYLAYER
 49
-0.5
 62
256
  6
BYLAYER
  0
MLEADERSTYLE
  5
2C
102
{ACAD_REACTORS
330
F
102
}
330
F
100
AcDbMLeaderStyle
179
2
170
2
171
1
172
0
 90
2
 40
0.0
 41
0.0
173
1
 91
-1056964608
 92
-2
290
1
 42
2.0
291
1
 43
8.0
  3
Standard
 44
4.0
300

342
29
174
1
175
1
176
0
178
1
 93
-1056964608
 45
4.0
292
0
297
0
 46
4.0
 94
-1056964608
 47
1.0
 49
1.0
140
1.0
294
1
141
0.0
177
0
142
1.0
295
0
296
0
143
3.75
271
0
272
9
273
9
  0
DICTIONARY
  5
2D
330
A
100
AcDbDictionary
281
1
  3
CREATED_BY_EZDXF
350
2E
  3
WRITTEN_BY_EZDXF
350
BA
  0
DICTIONARYVAR
  5
2E
330
2D
100
DictionaryVariables
280
0
  1
1.1.0 @ 2024-03-25T20:08:48.750129+00:00
  0
VISUALSTYLE
  5
5A
102
{ACAD_REACTORS
330
16
102
}
330
16
100
AcDbVisualStyle
  2
2dWireframe
 70
4
 90
0
 40
0.6
 62
7
290
0
291
0
  0
VISUALSTYLE
  5
5B
102
{ACAD_REACTORS
330
16
102
}
330
16
100
AcDbVisualStyle
  2
Basic
 70
7
 90
1
 40
0.6
 62
7
290
0
291
1
  0
VISUALSTYLE
  5
5C
102
{ACAD_REACTORS
330
16
102
}
330
16
100
AcDbVisualStyle
  2
Brighten
 70
12
 90
2
 40
0.6
 62
7
290
0
291
1
  0
VISUALSTYLE
  5
5D
102
{ACAD_REACTORS
330
16
102
}
330
16
100
AcDbVisualStyle
  2
ColorChange
 70
16
 90
2
 40
0.6
 62
8
290
0
291
1
  0
VISUALSTYLE
  5
5E
102
{ACAD_REACTORS
330
16
102
}
330
16
100
AcDbVisualStyle
  2
Conceptual
 70
9
 90
3
 40
0.6
 62
7
290
0
291
0
  0
VISUALSTYLE
  5
5F
102
{ACAD_REACTORS
330
16
102
}
330
16
100
AcDbVisualStyle
  2
Dim
 70
11
 90
2
 40
0.6
 62
7
290
0
291
1
  0
VISUALSTYLE
  5
60
102
{ACAD_REACTORS
330
16
102
}
330
16
100
AcDbVisualStyle
  2
EdgeColorOff
 70
22
 90
2
 40
0.6
 62
7
290
0
291
1
  0
VISUALSTYLE
  5
61
102
{ACAD_REACTORS
330
16
102
}
330
16
100
AcDbVisualStyle
  2
Facepattern
 70
15
 90
2
 40
0.6
 62
7
290
0
291
1
  0
VISUALSTYLE
  5
62
102
{ACAD_REACTORS
330
16
102
}
330
16
100
AcDbVisualStyle
  2
Flat
 70
0
 90
2
 40
0.6
 62
7
290
0
291
1
  0
VISUALSTYLE
  5
63
102
{ACAD_REACTORS
330
16
102
}
330
16
100
AcDbVisualStyle
  2
FlatWithEdges
 70
1
 90
2
 40
0.6
 62
7
290
0
291
1
  0
VISUALSTYLE
  5
64
102
{ACAD_REACTORS
330
16
102
}
330
16
100
AcDbVisualStyle
  2
Gouraud
 70
2
 90
2
 40
0.6
 62
7
290
0
291
1
  0
VISUALSTYLE
  5
65
102
{ACAD_REACTORS
330
16
102
}
330
16
100
AcDbVisualStyle
  2
GouraudWithEdges
 70
3
 90
2
 40
0.6
 62
7
290
0
291
1
  0
VISUALSTYLE
  5
66
102
{ACAD_REACTORS
330
16
102
}
330
16
100
AcDbVisualStyle
  2
Hidden
 70
6
 90
1
 40
0.6
 62
7
290
0
291
0
  0
VISUALSTYLE
  5
67
102
{ACAD_REACTORS
330
16
102
}
330
16
100
AcDbVisualStyle
  2
JitterOff
 70
20
 90
2
 40
0.6
 62
7
290
0
291
1
  0
VISUALSTYLE
  5
68
102
{ACAD_REACTORS
330
16
102
}
330
16
100
AcDbVisualStyle
  2
Linepattern
 70
14
 90
2
 40
0.6
 62
7
290
0
291
1
  0
VISUALSTYLE
  5
69
102
{ACAD_REACTORS
330
16
102
}
330
16
100
AcDbVisualStyle
  2
Modeling
 70
10
 90
2
 40
0.6
 62
7
290
0
291
0
  0
VISUALSTYLE
  5
6A
102
{ACAD_REACTORS
330
16
102
}
330
16
100
AcDbVisualStyle
  2
OverhangOff
 70
21
 90
2
 40
0.6
 62
7
290
0
291
1
  0
VISUALSTYLE
  5
6B
102
{ACAD_REACTORS
330
16
102
}
330
16
100
AcDbVisualStyle
  2
Realistic
 70
8
 90
2
 40
0.6
 62
7
290
0
291
0
  0
VISUALSTYLE
  5
6C
102
{ACAD_REACTORS
330
16
102
}
330
16
100
AcDbVisualStyle
  2
Shaded
 70
27
 90
2
 40
0.6
 62
7
290
0
291
0
  0
VISUALSTYLE
  5
6D
102
{ACAD_REACTORS
330
16
102
}
330
16
100
AcDbVisualStyle
  2
Shaded with edges
 70
26
 90
2
 40
0.6
 62
7
290
0
291
0
  0
VISUALSTYLE
  5
6E
102
{ACAD_REACTORS
330
16
102
}
330
16
100
AcDbVisualStyle
  2
Shades of Gray
 70
23
 90
2
 40
0.6
 62
7
290
0
291
0
  0
VISUALSTYLE
  5
6F
102
{ACAD_REACTORS
330
16
102
}
330
16
100
AcDbVisualStyle
  2
Sketchy
 70
24
 90
1
 40
0.6
 62
7
290
0
291
0
  0
VISUALSTYLE
  5
70
102
{ACAD_REACTORS
330
16
102
}
330
16
100
AcDbVisualStyle
  2
Thicken
 70
13
 90
2
 40
0.6
 62
7
290
0
291
1
  0
VISUALSTYLE
  5
71
102
{ACAD_REACTORS
330
16
102
}
330
16
100
AcDbVisualStyle
  2
Wireframe
 70
5
 90
0
 40
0.6
 62
7
290
0
291
0
  0
VISUALSTYLE
  5
72
102
{ACAD_REACTORS
330
16
102
}
330
16
100
AcDbVisualStyle
  2
X-Ray
 70
25
 90
2
 40
0.5
 62
7
290
0
291
0
  0
DICTIONARYVAR
  5
BA
330
2D
100
DictionaryVariables
280
0
  1
1.1.0 @ 2024-03-25T20:08:48.770652+00:00
  0
ENDSEC
  0
EOF
