  0
SECTION
  2
HEADER
  9
$ACADVER
  1
AC1021
  9
$ACADMAINTVER
 70
25
  9
$DWGCODEPAGE
  3
ANSI_1252
  9
$LASTSAVEDBY
  1
ezdxf
  9
$INSBASE
 10
0.0
 20
0.0
 30
0.0
  9
$EXTMIN
 10
1e+20
 20
1e+20
 30
1e+20
  9
$EXTMAX
 10
-1e+20
 20
-1e+20
 30
-1e+20
  9
$LIMMIN
 10
0.0
 20
0.0
  9
$LIMMAX
 10
420.0
 20
297.0
  9
$ORTHOMODE
 70
0
  9
$REGENMODE
 70
1
  9
$FILLMODE
 70
1
  9
$QTEXTMODE
 70
0
  9
$MIRRTEXT
 70
1
  9
$LTSCALE
 40
1.0
  9
$ATTMODE
 70
1
  9
$TEXTSIZE
 40
2.5
  9
$TRACEWID
 40
1.0
  9
$TEXTSTYLE
  7
OpenSans
  9
$CLAYER
  8
0
  9
$CELTYPE
  6
ByLayer
  9
$CECOLOR
 62
256
  9
$CELTSCALE
 40
1.0
  9
$DISPSILH
 70
0
  9
$DIMSCALE
 40
1.0
  9
$DIMASZ
 40
0.175
  9
$DIMEXO
 40
0.125
  9
$DIMDLI
 40
3.75
  9
$DIMRND
 40
0.0
  9
$DIMDLE
 40
0.0
  9
$DIMEXE
 40
0.375
  9
$DIMTP
 40
0.0
  9
$DIMTM
 40
0.0
  9
$DIMTXT
 40
0.25
  9
$DIMCEN
 40
2.5
  9
$DIMTSZ
 40
0.0
  9
$DIMTOL
 70
0
  9
$DIMLIM
 70
0
  9
$DIMTIH
 70
0
  9
$DIMTOH
 70
0
  9
$DIMSE1
 70
0
  9
$DIMSE2
 70
0
  9
$DIMTAD
 70
1
  9
$DIMZIN
 70
12
  9
$DIMBLK
  1
ARCHTICK
  9
$DIMASO
 70
1
  9
$DIMSHO
 70
1
  9
$DIMPOST
  1

  9
$DIMAPOST
  1

  9
$DIMALT
 70
0
  9
$DIMALTD
 70
3
  9
$DIMALTF
 40
0.03937007874
  9
$DIMLFAC
 40
100.0
  9
$DIMTOFL
 70
1
  9
$DIMTVP
 40
0.0
  9
$DIMTIX
 70
0
  9
$DIMSOXD
 70
0
  9
$DIMSAH
 70
0
  9
$DIMBLK1
  1

  9
$DIMBLK2
  1

  9
$DIMSTYLE
  2
EZDXF
  9
$DIMCLRD
 70
0
  9
$DIMCLRE
 70
0
  9
$DIMCLRT
 70
0
  9
$DIMTFAC
 40
0.5
  9
$DIMGAP
 40
0.1
  9
$DIMJUST
 70
0
  9
$DIMSD1
 70
0
  9
$DIMSD2
 70
0
  9
$DIMTOLJ
 70
0
  9
$DIMTZIN
 70
8
  9
$DIMALTZ
 70
0
  9
$DIMALTTZ
 70
0
  9
$DIMUPT
 70
1
  9
$DIMDEC
 70
2
  9
$DIMTDEC
 70
2
  9
$DIMALTU
 70
2
  9
$DIMALTTD
 70
3
  9
$DIMTXSTY
  7
OpenSansCondensed-Light
  9
$DIMAUNIT
 70
0
  9
$DIMADEC
 70
2
  9
$DIMALTRND
 40
0.0
  9
$DIMAZIN
 70
3
  9
$DIMDSEP
 70
46
  9
$DIMATFIT
 70
3
  9
$DIMFRAC
 70
0
  9
$DIMLDRBLK
  1

  9
$DIMLUNIT
 70
2
  9
$DIMLWD
 70
-2
  9
$DIMLWE
 70
-2
  9
$DIMTMOVE
 70
2
  9
$DIMFXL
 40
1.0
  9
$DIMFXLON
 70
0
  9
$DIMJOGANG
 40
0.785398163397
  9
$DIMTFILL
 70
0
  9
$DIMTFILLCLR
 70
0
  9
$DIMARCSYM
 70
0
  9
$DIMLTYPE
  6

  9
$DIMLTEX1
  6

  9
$DIMLTEX2
  6

  9
$LUNITS
 70
2
  9
$LUPREC
 70
4
  9
$SKETCHINC
 40
1.0
  9
$FILLETRAD
 40
10.0
  9
$AUNITS
 70
0
  9
$AUPREC
 70
2
  9
$MENU
  1
.
  9
$ELEVATION
 40
0.0
  9
$PELEVATION
 40
0.0
  9
$THICKNESS
 40
0.0
  9
$LIMCHECK
 70
0
  9
$CHAMFERA
 40
0.0
  9
$CHAMFERB
 40
0.0
  9
$CHAMFERC
 40
0.0
  9
$CHAMFERD
 40
0.0
  9
$SKPOLY
 70
0
  9
$TDCREATE
 40
2460396.440138889
  9
$TDUCREATE
 40
2458532.153996898
  9
$TDUPDATE
 40
2460396.440138889
  9
$TDUUPDATE
 40
2458532.1544311
  9
$TDINDWG
 40
0.0
  9
$TDUSRTIMER
 40
0.0
  9
$USRTIMER
 70
1
  9
$ANGBASE
 50
0.0
  9
$ANGDIR
 70
0
  9
$PDMODE
 70
0
  9
$PDSIZE
 40
0.0
  9
$PLINEWID
 40
0.0
  9
$SPLFRAME
 70
0
  9
$SPLINETYPE
 70
6
  9
$SPLINESEGS
 70
8
  9
$HANDSEED
  5
BB
  9
$SURFTAB1
 70
6
  9
$SURFTAB2
 70
6
  9
$SURFTYPE
 70
6
  9
$SURFU
 70
6
  9
$SURFV
 70
6
  9
$UCSBASE
  2

  9
$UCSNAME
  2

  9
$UCSORG
 10
0.0
 20
0.0
 30
0.0
  9
$UCSXDIR
 10
1.0
 20
0.0
 30
0.0
  9
$UCSYDIR
 10
0.0
 20
1.0
 30
0.0
  9
$UCSORTHOREF
  2

  9
$UCSORTHOVIEW
 70
0
  9
$UCSORGTOP
 10
0.0
 20
0.0
 30
0.0
  9
$UCSORGBOTTOM
 10
0.0
 20
0.0
 30
0.0
  9
$UCSORGLEFT
 10
0.0
 20
0.0
 30
0.0
  9
$UCSORGRIGHT
 10
0.0
 20
0.0
 30
0.0
  9
$UCSORGFRONT
 10
0.0
 20
0.0
 30
0.0
  9
$UCSORGBACK
 10
0.0
 20
0.0
 30
0.0
  9
$PUCSBASE
  2

  9
$PUCSNAME
  2

  9
$PUCSORG
 10
0.0
 20
0.0
 30
0.0
  9
$PUCSXDIR
 10
1.0
 20
0.0
 30
0.0
  9
$PUCSYDIR
 10
0.0
 20
1.0
 30
0.0
  9
$PUCSORTHOREF
  2

  9
$PUCSORTHOVIEW
 70
0
  9
$PUCSORGTOP
 10
0.0
 20
0.0
 30
0.0
  9
$PUCSORGBOTTOM
 10
0.0
 20
0.0
 30
0.0
  9
$PUCSORGLEFT
 10
0.0
 20
0.0
 30
0.0
  9
$PUCSORGRIGHT
 10
0.0
 20
0.0
 30
0.0
  9
$PUCSORGFRONT
 10
0.0
 20
0.0
 30
0.0
  9
$PUCSORGBACK
 10
0.0
 20
0.0
 30
0.0
  9
$USERI1
 70
0
  9
$USERI2
 70
0
  9
$USERI3
 70
0
  9
$USERI4
 70
0
  9
$USERI5
 70
0
  9
$USERR1
 40
0.0
  9
$USERR2
 40
0.0
  9
$USERR3
 40
0.0
  9
$USERR4
 40
0.0
  9
$USERR5
 40
0.0
  9
$WORLDVIEW
 70
1
  9
$SHADEDGE
 70
3
  9
$SHADEDIF
 70
70
  9
$TILEMODE
 70
1
  9
$MAXACTVP
 70
64
  9
$PINSBASE
 10
0.0
 20
0.0
 30
0.0
  9
$PLIMCHECK
 70
0
  9
$PEXTMIN
 10
1e+20
 20
1e+20
 30
1e+20
  9
$PEXTMAX
 10
-1e+20
 20
-1e+20
 30
-1e+20
  9
$PLIMMIN
 10
0.0
 20
0.0
  9
$PLIMMAX
 10
420.0
 20
297.0
  9
$UNITMODE
 70
0
  9
$VISRETAIN
 70
1
  9
$PLINEGEN
 70
0
  9
$PSLTSCALE
 70
1
  9
$TREEDEPTH
 70
3020
  9
$CMLSTYLE
  2
Standard
  9
$CMLJUST
 70
0
  9
$CMLSCALE
 40
20.0
  9
$PROXYGRAPHICS
 70
1
  9
$MEASUREMENT
 70
1
  9
$CELWEIGHT
370
-1
  9
$ENDCAPS
280
0
  9
$JOINSTYLE
280
0
  9
$LWDISPLAY
290
0
  9
$INSUNITS
 70
6
  9
$HYPERLINKBASE
  1

  9
$STYLESHEET
  1

  9
$XEDIT
290
1
  9
$CEPSNTYPE
380
0
  9
$PSTYLEMODE
290
1
  9
$FINGERPRINTGUID
  2
{028C3728-F854-40F2-A7C1-BA37C8823420}
  9
$VERSIONGUID
  2
{520C1D69-9BCD-4017-9FAB-975D4C7585B6}
  9
$EXTNAMES
290
1
  9
$PSVPSCALE
 40
0.0
  9
$OLESTARTUP
290
0
  9
$SORTENTS
280
127
  9
$INDEXCTL
280
0
  9
$HIDETEXT
280
1
  9
$XCLIPFRAME
290
0
  9
$HALOGAP
280
0
  9
$OBSCOLOR
 70
257
  9
$OBSLTYPE
280
0
  9
$INTERSECTIONDISPLAY
280
0
  9
$INTERSECTIONCOLOR
 70
257
  9
$DIMASSOC
280
2
  9
$PROJECTNAME
  1

  9
$CAMERADISPLAY
290
0
  9
$LENSLENGTH
 40
50.0
  9
$CAMERAHEIGHT
 40
0.0
  9
$STEPSPERSEC
 40
24.0
  9
$STEPSIZE
 40
100.0
  9
$3DDWFPREC
 40
2.0
  9
$PSOLWIDTH
 40
0.005
  9
$PSOLHEIGHT
 40
0.08
  9
$LOFTANG1
 40
1.570796326795
  9
$LOFTANG2
 40
1.570796326795
  9
$LOFTMAG1
 40
0.0
  9
$LOFTMAG2
 40
0.0
  9
$LOFTPARAM
 70
7
  9
$LOFTNORMALS
280
1
  9
$LATITUDE
 40
37.795
  9
$LONGITUDE
 40
-122.394
  9
$NORTHDIRECTION
 40
0.0
  9
$TIMEZONE
 70
-8000
  9
$LIGHTGLYPHDISPLAY
280
1
  9
$TILEMODELIGHTSYNCH
280
1
  9
$CMATERIAL
347
20
  9
$SOLIDHIST
280
0
  9
$SHOWHIST
280
1
  9
$DWFFRAME
280
2
  9
$DGNFRAME
280
2
  9
$REALWORLDSCALE
290
1
  9
$INTERFERECOLOR
 62
256
  9
$CSHADOW
280
0
  9
$SHADOWPLANELOCATION
 40
0.0
  0
ENDSEC
  0
SECTION
  2
CLASSES
  0
CLASS
  1
ACDBDICTIONARYWDFLT
  2
AcDbDictionaryWithDefault
  3
ObjectDBX Classes
 90
0
 91
0
280
0
281
0
  0
CLASS
  1
SUN
  2
AcDbSun
  3
SCENEOE
 90
1153
 91
0
280
0
281
0
  0
CLASS
  1
VISUALSTYLE
  2
AcDbVisualStyle
  3
ObjectDBX Classes
 90
4095
 91
0
280
0
281
0
  0
CLASS
  1
MATERIAL
  2
AcDbMaterial
  3
ObjectDBX Classes
 90
1153
 91
0
280
0
281
0
  0
CLASS
  1
SCALE
  2
AcDbScale
  3
ObjectDBX Classes
 90
1153
 91
0
280
0
281
0
  0
CLASS
  1
TABLESTYLE
  2
AcDbTableStyle
  3
ObjectDBX Classes
 90
4095
 91
0
280
0
281
0
  0
CLASS
  1
MLEADERSTYLE
  2
AcDbMLeaderStyle
  3
ACDB_MLEADERSTYLE_CLASS
 90
4095
 91
0
280
0
281
0
  0
CLASS
  1
DICTIONARYVAR
  2
AcDbDictionaryVar
  3
ObjectDBX Classes
 90
0
 91
0
280
0
281
0
  0
CLASS
  1
CELLSTYLEMAP
  2
AcDbCellStyleMap
  3
ObjectDBX Classes
 90
1152
 91
0
280
0
281
0
  0
CLASS
  1
MENTALRAYRENDERSETTINGS
  2
AcDbMentalRayRenderSettings
  3
SCENEOE
 90
1024
 91
0
280
0
281
0
  0
CLASS
  1
ACDBDETAILVIEWSTYLE
  2
AcDbDetailViewStyle
  3
ObjectDBX Classes
 90
1025
 91
0
280
0
281
0
  0
CLASS
  1
ACDBSECTIONVIEWSTYLE
  2
AcDbSectionViewStyle
  3
ObjectDBX Classes
 90
1025
 91
0
280
0
281
0
  0
CLASS
  1
RASTERVARIABLES
  2
AcDbRasterVariables
  3
ISM
 90
0
 91
0
280
0
281
0
  0
CLASS
  1
LAYOUT
  2
AcDbLayout
  3
ObjectDBX Classes
 90
0
 91
0
280
0
281
0
  0
CLASS
  1
ACDBPLACEHOLDER
  2
AcDbPlaceHolder
  3
ObjectDBX Classes
 90
0
 91
0
280
0
281
0
  0
ENDSEC
  0
SECTION
  2
TABLES
  0
TABLE
  2
VPORT
  5
8
330
0
100
AcDbSymbolTable
 70
1
  0
VPORT
  5
23
330
8
100
AcDbSymbolTableRecord
100
AcDbViewportTableRecord
  2
*Active
 70
0
 10
0.0
 20
0.0
 11
1.0
 21
1.0
 12
0.0
 22
0.0
 13
0.0
 23
0.0
 14
0.5
 24
0.5
 15
0.5
 25
0.5
 16
0.0
 26
0.0
 36
1.0
 17
0.0
 27
0.0
 37
0.0
 40
1000.0
 41
1.34
 42
50.0
 43
0.0
 44
0.0
 50
0.0
 51
0.0
 71
0
 72
1000
 73
1
 74
3
 75
0
 76
0
 77
0
 78
0
281
0
 65
0
146
0.0
  0
ENDTAB
  0
TABLE
  2
LTYPE
  5
2
330
0
100
AcDbSymbolTable
 70
21
  0
LTYPE
  5
24
330
2
100
AcDbSymbolTableRecord
100
AcDbLinetypeTableRecord
  2
ByBlock
 70
0
  3

 72
65
 73
0
 40
0.0
  0
LTYPE
  5
25
330
2
100
AcDbSymbolTableRecord
100
AcDbLinetypeTableRecord
  2
ByLayer
 70
0
  3

 72
65
 73
0
 40
0.0
  0
LTYPE
  5
26
330
2
100
AcDbSymbolTableRecord
100
AcDbLinetypeTableRecord
  2
Continuous
 70
0
  3

 72
65
 73
0
 40
0.0
  0
LTYPE
  5
2F
330
2
100
AcDbSymbolTableRecord
100
AcDbLinetypeTableRecord
  2
CENTER
 70
0
  3
Center ____ _ ____ _ ____ _ ____ _ ____ _ ____
 72
65
 73
4
 40
5.08
 49
3.175
 74
0
 49
-0.635
 74
0
 49
0.635
 74
0
 49
-0.635
 74
0
  0
LTYPE
  5
30
330
2
100
AcDbSymbolTableRecord
100
AcDbLinetypeTableRecord
  2
CENTERX2
 70
0
  3
Center (2x) ________  __  ________  __  ________
 72
65
 73
4
 40
8.89
 49
6.35
 74
0
 49
-0.635
 74
0
 49
1.27
 74
0
 49
-0.635
 74
0
  0
LTYPE
  5
31
330
2
100
AcDbSymbolTableRecord
100
AcDbLinetypeTableRecord
  2
CENTER2
 70
0
  3
Center (.5x) ____ _ ____ _ ____ _ ____ _ ____
 72
65
 73
4
 40
2.54
 49
1.587
 74
0
 49
-0.318
 74
0
 49
0.318
 74
0
 49
-0.318
 74
0
  0
LTYPE
  5
32
330
2
100
AcDbSymbolTableRecord
100
AcDbLinetypeTableRecord
  2
DASHED
 70
0
  3
Dashed __ __ __ __ __ __ __ __ __ __ __ __ __ _
 72
65
 73
2
 40
1.524
 49
1.27
 74
0
 49
-0.254
 74
0
  0
LTYPE
  5
33
330
2
100
AcDbSymbolTableRecord
100
AcDbLinetypeTableRecord
  2
DASHEDX2
 70
0
  3
Dashed (2x) ____  ____  ____  ____  ____  ____
 72
65
 73
2
 40
3.048
 49
2.54
 74
0
 49
-0.508
 74
0
  0
LTYPE
  5
34
330
2
100
AcDbSymbolTableRecord
100
AcDbLinetypeTableRecord
  2
DASHED2
 70
0
  3
Dashed (.5x) _ _ _ _ _ _ _ _ _ _ _ _ _ _
 72
65
 73
2
 40
0.762
 49
0.635
 74
0
 49
-0.127
 74
0
  0
LTYPE
  5
35
330
2
100
AcDbSymbolTableRecord
100
AcDbLinetypeTableRecord
  2
PHANTOM
 70
0
  3
Phantom ______  __  __  ______  __  __  ______
 72
65
 73
6
 40
6.35
 49
3.175
 74
0
 49
-0.635
 74
0
 49
0.635
 74
0
 49
-0.635
 74
0
 49
0.635
 74
0
 49
-0.635
 74
0
  0
LTYPE
  5
36
330
2
100
AcDbSymbolTableRecord
100
AcDbLinetypeTableRecord
  2
PHANTOMX2
 70
0
  3
Phantom (2x)____________    ____    ____    ____________
 72
65
 73
6
 40
10.795
 49
6.35
 74
0
 49
-0.635
 74
0
 49
1.27
 74
0
 49
-0.635
 74
0
 49
1.27
 74
0
 49
-0.635
 74
0
  0
LTYPE
  5
37
330
2
100
AcDbSymbolTableRecord
100
AcDbLinetypeTableRecord
  2
PHANTOM2
 70
0
  3
Phantom (.5x) ___ _ _ ___ _ _ ___ _ _ ___ _ _ ___
 72
65
 73
6
 40
3.175
 49
1.587
 74
0
 49
-0.318
 74
0
 49
0.318
 74
0
 49
-0.318
 74
0
 49
0.318
 74
0
 49
-0.318
 74
0
  0
LTYPE
  5
38
330
2
100
AcDbSymbolTableRecord
100
AcDbLinetypeTableRecord
  2
DASHDOT
 70
0
  3
Dash dot __ . __ . __ . __ . __ . __ . __ . __
 72
65
 73
4
 40
3.556
 49
2.54
 74
0
 49
-0.508
 74
0
 49
0.0
 74
0
 49
-0.508
 74
0
  0
LTYPE
  5
39
330
2
100
AcDbSymbolTableRecord
100
AcDbLinetypeTableRecord
  2
DASHDOTX2
 70
0
  3
Dash dot (2x) ____  .  ____  .  ____  .  ____
 72
65
 73
4
 40
6.096
 49
5.08
 74
0
 49
-0.508
 74
0
 49
0.0
 74
0
 49
-0.508
 74
0
  0
LTYPE
  5
3A
330
2
100
AcDbSymbolTableRecord
100
AcDbLinetypeTableRecord
  2
DASHDOT2
 70
0
  3
Dash dot (.5x) _ . _ . _ . _ . _ . _ . _ . _
 72
65
 73
4
 40
1.778
 49
1.27
 74
0
 49
-0.254
 74
0
 49
0.0
 74
0
 49
-0.254
 74
0
  0
LTYPE
  5
3B
330
2
100
AcDbSymbolTableRecord
100
AcDbLinetypeTableRecord
  2
DOT
 70
0
  3
Dot .  .  .  .  .  .  .  .  .  .  .  .  .  .  .  .
 72
65
 73
2
 40
0.508
 49
0.0
 74
0
 49
-0.508
 74
0
  0
LTYPE
  5
3C
330
2
100
AcDbSymbolTableRecord
100
AcDbLinetypeTableRecord
  2
DOTX2
 70
0
  3
Dot (2x) .    .    .    .    .    .    .    . 
 72
65
 73
2
 40
1.016
 49
0.0
 74
0
 49
-1.016
 74
0
  0
LTYPE
  5
3D
330
2
100
AcDbSymbolTableRecord
100
AcDbLinetypeTableRecord
  2
DOT2
 70
0
  3
Dot (.5) . . . . . . . . . . . . . . . . . . . 
 72
65
 73
2
 40
0.254
 49
0.0
 74
0
 49
-0.254
 74
0
  0
LTYPE
  5
3E
330
2
100
AcDbSymbolTableRecord
100
AcDbLinetypeTableRecord
  2
DIVIDE
 70
0
  3
Divide __ . . __ . . __ . . __ . . __ . . __
 72
65
 73
6
 40
4.064
 49
2.54
 74
0
 49
-0.508
 74
0
 49
0.0
 74
0
 49
-0.508
 74
0
 49
0.0
 74
0
 49
-0.508
 74
0
  0
LTYPE
  5
3F
330
2
100
AcDbSymbolTableRecord
100
AcDbLinetypeTableRecord
  2
DIVIDEX2
 70
0
  3
Divide (2x) ____  . .  ____  . .  ____  . .  ____
 72
65
 73
6
 40
6.604
 49
5.08
 74
0
 49
-0.508
 74
0
 49
0.0
 74
0
 49
-0.508
 74
0
 49
0.0
 74
0
 49
-0.508
 74
0
  0
LTYPE
  5
40
330
2
100
AcDbSymbolTableRecord
100
AcDbLinetypeTableRecord
  2
DIVIDE2
 70
0
  3
Divide(.5x) _ . _ . _ . _ . _ . _ . _ . _
 72
65
 73
6
 40
2.032
 49
1.27
 74
0
 49
-0.254
 74
0
 49
0.0
 74
0
 49
-0.254
 74
0
 49
0.0
 74
0
 49
-0.254
 74
0
  0
ENDTAB
  0
TABLE
  2
LAYER
  5
1
330
0
100
AcDbSymbolTable
 70
3
  0
LAYER
  5
27
330
1
100
AcDbSymbolTableRecord
100
AcDbLayerTableRecord
  2
0
 70
0
 62
7
  6
Continuous
370
-3
390
13
347
21
  0
LAYER
  5
28
330
1
100
AcDbSymbolTableRecord
100
AcDbLayerTableRecord
  2
Defpoints
 70
0
 62
7
  6
Continuous
290
0
370
-3
390
13
347
21
  0
LAYER
  5
8A
330
1
100
AcDbSymbolTableRecord
100
AcDbLayerTableRecord
  2
Layer
 70
0
 62
1
  6
Continuous
370
50
390
13
347
21
  0
ENDTAB
  0
TABLE
  2
STYLE
  5
5
330
0
100
AcDbSymbolTable
 70
26
  0
STYLE
  5
29
330
5
100
AcDbSymbolTableRecord
100
AcDbTextStyleTableRecord
  2
Standard
 70
0
 40
0.0
 41
1.0
 50
0.0
 71
0
 42
2.5
  3
txt
  4

  0
STYLE
  5
41
330
5
100
AcDbSymbolTableRecord
100
AcDbTextStyleTableRecord
  2
OpenSans-Light
 70
0
 40
0.0
 41
1.0
 50
0.0
 71
0
 42
2.5
  3
OpenSans-Light.ttf
  4

  0
STYLE
  5
42
330
5
100
AcDbSymbolTableRecord
100
AcDbTextStyleTableRecord
  2
OpenSans-Light-Italic
 70
0
 40
0.0
 41
1.0
 50
0.0
 71
0
 42
2.5
  3
OpenSans-LightItalic.ttf
  4

  0
STYLE
  5
43
330
5
100
AcDbSymbolTableRecord
100
AcDbTextStyleTableRecord
  2
OpenSans
 70
0
 40
0.0
 41
1.0
 50
0.0
 71
0
 42
2.5
  3
OpenSans-Regular.ttf
  4

  0
STYLE
  5
44
330
5
100
AcDbSymbolTableRecord
100
AcDbTextStyleTableRecord
  2
OpenSans-Italic
 70
0
 40
0.0
 41
1.0
 50
0.0
 71
0
 42
2.5
  3
OpenSans-Italic.ttf
  4

  0
STYLE
  5
45
330
5
100
AcDbSymbolTableRecord
100
AcDbTextStyleTableRecord
  2
OpenSans-SemiBold
 70
0
 40
0.0
 41
1.0
 50
0.0
 71
0
 42
2.5
  3
OpenSans-SemiBold.ttf
  4

  0
STYLE
  5
46
330
5
100
AcDbSymbolTableRecord
100
AcDbTextStyleTableRecord
  2
OpenSans-SemiBoldItalic
 70
0
 40
0.0
 41
1.0
 50
0.0
 71
0
 42
2.5
  3
OpenSans-SemiBoldItalic.ttf
  4

  0
STYLE
  5
47
330
5
100
AcDbSymbolTableRecord
100
AcDbTextStyleTableRecord
  2
OpenSans-Bold
 70
0
 40
0.0
 41
1.0
 50
0.0
 71
0
 42
2.5
  3
OpenSans-Bold.ttf
  4

  0
STYLE
  5
48
330
5
100
AcDbSymbolTableRecord
100
AcDbTextStyleTableRecord
  2
OpenSans-BoldItalic
 70
0
 40
0.0
 41
1.0
 50
0.0
 71
0
 42
2.5
  3
OpenSans-BoldItalic.ttf
  4

  0
STYLE
  5
49
330
5
100
AcDbSymbolTableRecord
100
AcDbTextStyleTableRecord
  2
OpenSans-ExtraBold
 70
0
 40
0.0
 41
1.0
 50
0.0
 71
0
 42
2.5
  3
OpenSans-ExtraBold.ttf
  4

  0
STYLE
  5
4A
330
5
100
AcDbSymbolTableRecord
100
AcDbTextStyleTableRecord
  2
OpenSans-ExtraBoldItalic
 70
0
 40
0.0
 41
1.0
 50
0.0
 71
0
 42
2.5
  3
OpenSans-ExtraBoldItalic.ttf
  4

  0
STYLE
  5
4B
330
5
100
AcDbSymbolTableRecord
100
AcDbTextStyleTableRecord
  2
OpenSansCondensed-Bold
 70
0
 40
0.0
 41
1.0
 50
0.0
 71
0
 42
2.5
  3
OpenSansCondensed-Bold.ttf
  4

  0
STYLE
  5
4C
330
5
100
AcDbSymbolTableRecord
100
AcDbTextStyleTableRecord
  2
OpenSansCondensed-Light
 70
0
 40
0.0
 41
1.0
 50
0.0
 71
0
 42
2.5
  3
OpenSansCondensed-Light.ttf
  4

  0
STYLE
  5
4D
330
5
100
AcDbSymbolTableRecord
100
AcDbTextStyleTableRecord
  2
OpenSansCondensed-Italic
 70
0
 40
0.0
 41
1.0
 50
0.0
 71
0
 42
2.5
  3
OpenSansCondensed-LightItalic.ttf
  4

  0
STYLE
  5
4E
330
5
100
AcDbSymbolTableRecord
100
AcDbTextStyleTableRecord
  2
LiberationSans
 70
0
 40
0.0
 41
1.0
 50
0.0
 71
0
 42
2.5
  3
LiberationSans-Regular.ttf
  4

  0
STYLE
  5
4F
330
5
100
AcDbSymbolTableRecord
100
AcDbTextStyleTableRecord
  2
LiberationSans-Bold
 70
0
 40
0.0
 41
1.0
 50
0.0
 71
0
 42
2.5
  3
LiberationSans-Bold.ttf
  4

  0
STYLE
  5
50
330
5
100
AcDbSymbolTableRecord
100
AcDbTextStyleTableRecord
  2
LiberationSans-BoldItalic
 70
0
 40
0.0
 41
1.0
 50
0.0
 71
0
 42
2.5
  3
LiberationSans-BoldItalic.ttf
  4

  0
STYLE
  5
51
330
5
100
AcDbSymbolTableRecord
100
AcDbTextStyleTableRecord
  2
LiberationSans-Italic
 70
0
 40
0.0
 41
1.0
 50
0.0
 71
0
 42
2.5
  3
LiberationSans-Italic.ttf
  4

  0
STYLE
  5
52
330
5
100
AcDbSymbolTableRecord
100
AcDbTextStyleTableRecord
  2
LiberationSerif
 70
0
 40
0.0
 41
1.0
 50
0.0
 71
0
 42
2.5
  3
LiberationSerif-Regular.ttf
  4

  0
STYLE
  5
53
330
5
100
AcDbSymbolTableRecord
100
AcDbTextStyleTableRecord
  2
LiberationSerif-Bold
 70
0
 40
0.0
 41
1.0
 50
0.0
 71
0
 42
2.5
  3
LiberationSerif-Bold.ttf
  4

  0
STYLE
  5
54
330
5
100
AcDbSymbolTableRecord
100
AcDbTextStyleTableRecord
  2
LiberationSerif-BoldItalic
 70
0
 40
0.0
 41
1.0
 50
0.0
 71
0
 42
2.5
  3
LiberationSerif-BoldItalic.ttf
  4

  0
STYLE
  5
55
330
5
100
AcDbSymbolTableRecord
100
AcDbTextStyleTableRecord
  2
LiberationSerif-Italic
 70
0
 40
0.0
 41
1.0
 50
0.0
 71
0
 42
2.5
  3
LiberationSerif-Italic.ttf
  4

  0
STYLE
  5
56
330
5
100
AcDbSymbolTableRecord
100
AcDbTextStyleTableRecord
  2
LiberationMono
 70
0
 40
0.0
 41
1.0
 50
0.0
 71
0
 42
2.5
  3
LiberationMono-Regular.ttf
  4

  0
STYLE
  5
57
330
5
100
AcDbSymbolTableRecord
100
AcDbTextStyleTableRecord
  2
LiberationMono-Bold
 70
0
 40
0.0
 41
1.0
 50
0.0
 71
0
 42
2.5
  3
LiberationMono-Bold.ttf
  4

  0
STYLE
  5
58
330
5
100
AcDbSymbolTableRecord
100
AcDbTextStyleTableRecord
  2
LiberationMono-BoldItalic
 70
0
 40
0.0
 41
1.0
 50
0.0
 71
0
 42
2.5
  3
LiberationMono-BoldItalic.ttf
  4

  0
STYLE
  5
59
330
5
100
AcDbSymbolTableRecord
100
AcDbTextStyleTableRecord
  2
LiberationMono-Italic
 70
0
 40
0.0
 41
1.0
 50
0.0
 71
0
 42
2.5
  3
LiberationMono-Italic.ttf
  4

  0
ENDTAB
  0
TABLE
  2
VIEW
  5
7
330
0
100
AcDbSymbolTable
 70
0
  0
ENDTAB
  0
TABLE
  2
UCS
  5
6
330
0
100
AcDbSymbolTable
 70
0
  0
ENDTAB
  0
TABLE
  2
APPID
  5
3
330
0
100
AcDbSymbolTable
 70
3
  0
APPID
  5
2A
330
3
100
AcDbSymbolTableRecord
100
AcDbRegAppTableRecord
  2
ACAD
 70
0
  0
APPID
  5
B8
330
3
100
AcDbSymbolTableRecord
100
AcDbRegAppTableRecord
  2
HATCHBACKGROUNDCOLOR
 70
0
  0
APPID
  5
B9
330
3
100
AcDbSymbolTableRecord
100
AcDbRegAppTableRecord
  2
EZDXF
 70
0
  0
ENDTAB
  0
TABLE
  2
DIMSTYLE
  5
4
330
0
100
AcDbSymbolTable
 70
12
100
AcDbDimStyleTable
  0
DIMSTYLE
105
2B
330
4
100
AcDbSymbolTableRecord
100
AcDbDimStyleTableRecord
  2
Standard
 70
0
 40
1.0
 41
2.5
 42
0.625
 43
3.75
 44
1.25
 45
0.0
 46
0.0
 47
0.0
 48
0.0
 49
2.5
140
2.5
141
2.5
142
0.0
143
0.03937007874
144
1.0
145
0.0
146
1.0
147
0.625
148
0.0
 69
0
 70
0
 71
0
 72
0
 73
0
 74
0
 75
0
 76
0
 77
1
 78
8
 79
3
170
0
171
3
172
1
173
0
174
0
175
0
176
0
177
0
178
0
179
2
271
2
272
2
273
2
274
3
275
0
276
0
277
2
278
44
279
0
280
0
281
0
282
0
283
0
284
8
285
0
286
0
288
0
289
3
290
0
371
-2
372
-2
  0
DIMSTYLE
105
73
330
4
100
AcDbSymbolTableRecord
100
AcDbDimStyleTableRecord
  2
EZDXF
 70
0
 40
1.0
 41
0.175
 42
0.125
 43
3.75
 44
0.375
 45
0.0
 46
0.0
 47
0.0
 48
0.0
 49
2.5
140
0.25
141
2.5
142
0.0
143
0.03937007874
144
100.0
145
0.0
146
0.5
147
0.1
148
0.0
 69
0
 70
0
 71
0
 72
0
 73
0
 74
0
 75
0
 76
0
 77
1
 78
12
 79
3
170
0
171
3
172
1
173
0
174
0
175
0
176
0
177
0
178
0
179
2
271
2
272
2
273
2
274
3
275
0
276
0
277
2
278
46
279
2
280
0
281
0
282
0
283
0
284
8
285
0
286
0
288
1
289
3
290
0
340
4C
342
74
371
-2
372
-2
  0
DIMSTYLE
105
7C
330
4
100
AcDbSymbolTableRecord
100
AcDbDimStyleTableRecord
  2
EZ_M_100_H25_CM
 70
0
 40
1.0
 41
0.25
 42
0.125
 43
3.75
 44
0.375
 45
0.0
 46
0.0
 47
0.0
 48
0.0
 49
2.5
140
0.25
141
2.5
142
0.125
143
0.03937007874
144
100.0
145
0.0
146
0.5
147
0.1
148
0.0
 69
0
 70
0
 71
0
 72
0
 73
0
 74
0
 75
0
 76
0
 77
1
 78
12
 79
3
170
0
171
3
172
1
173
0
174
0
175
0
176
0
177
0
178
0
179
2
271
2
272
2
273
2
274
3
275
0
276
0
277
2
278
46
279
2
280
0
281
0
282
0
283
0
284
8
285
0
286
0
288
1
289
3
290
0
340
4C
371
-2
372
-2
  0
DIMSTYLE
105
7D
330
4
100
AcDbSymbolTableRecord
100
AcDbDimStyleTableRecord
  2
EZ_M_50_H25_CM
 70
0
 40
1.0
 41
0.125
 42
0.0625
 43
3.75
 44
0.1875
 45
0.0
 46
0.0
 47
0.0
 48
0.0
 49
2.5
140
0.125
141
2.5
142
0.0625
143
0.03937007874
144
100.0
145
0.0
146
0.5
147
0.05
148
0.0
 69
0
 70
0
 71
0
 72
0
 73
0
 74
0
 75
0
 76
0
 77
1
 78
12
 79
3
170
0
171
3
172
1
173
0
174
0
175
0
176
0
177
0
178
0
179
2
271
2
272
2
273
2
274
3
275
0
276
0
277
2
278
46
279
2
280
0
281
0
282
0
283
0
284
8
285
0
286
0
288
1
289
3
290
0
340
4C
371
-2
372
-2
  0
DIMSTYLE
105
7E
330
4
100
AcDbSymbolTableRecord
100
AcDbDimStyleTableRecord
  2
EZ_M_25_H25_CM
 70
0
 40
1.0
 41
0.0625
 42
0.03125
 43
3.75
 44
0.09375
 45
0.0
 46
0.0
 47
0.0
 48
0.0
 49
2.5
140
0.0625
141
2.5
142
0.03125
143
0.03937007874
144
100.0
145
0.0
146
0.5
147
0.025
148
0.0
 69
0
 70
0
 71
0
 72
0
 73
0
 74
0
 75
0
 76
0
 77
1
 78
12
 79
3
170
0
171
3
172
1
173
0
174
0
175
0
176
0
177
0
178
0
179
2
271
2
272
2
273
2
274
3
275
0
276
0
277
2
278
46
279
2
280
0
281
0
282
0
283
0
284
8
285
0
286
0
288
1
289
3
290
0
340
4C
371
-2
372
-2
  0
DIMSTYLE
105
7F
330
4
100
AcDbSymbolTableRecord
100
AcDbDimStyleTableRecord
  2
EZ_M_20_H25_CM
 70
0
 40
1.0
 41
0.05
 42
0.025
 43
3.75
 44
0.07500000000000001
 45
0.0
 46
0.0
 47
0.0
 48
0.0
 49
2.5
140
0.05
141
2.5
142
0.025
143
0.03937007874
144
100.0
145
0.0
146
0.5
147
0.020000000000000004
148
0.0
 69
0
 70
0
 71
0
 72
0
 73
0
 74
0
 75
0
 76
0
 77
1
 78
12
 79
3
170
0
171
3
172
1
173
0
174
0
175
0
176
0
177
0
178
0
179
2
271
2
272
2
273
2
274
3
275
0
276
0
277
2
278
46
279
2
280
0
281
0
282
0
283
0
284
8
285
0
286
0
288
1
289
3
290
0
340
4C
371
-2
372
-2
  0
DIMSTYLE
105
80
330
4
100
AcDbSymbolTableRecord
100
AcDbDimStyleTableRecord
  2
EZ_M_10_H25_CM
 70
0
 40
1.0
 41
0.025
 42
0.0125
 43
3.75
 44
0.037500000000000006
 45
0.0
 46
0.0
 47
0.0
 48
0.0
 49
2.5
140
0.025
141
2.5
142
0.0125
143
0.03937007874
144
100.0
145
0.0
146
0.5
147
0.010000000000000002
148
0.0
 69
0
 70
0
 71
0
 72
0
 73
0
 74
0
 75
0
 76
0
 77
1
 78
12
 79
3
170
0
171
3
172
1
173
0
174
0
175
0
176
0
177
0
178
0
179
2
271
2
272
2
273
2
274
3
275
0
276
0
277
2
278
46
279
2
280
0
281
0
282
0
283
0
284
8
285
0
286
0
288
1
289
3
290
0
340
4C
371
-2
372
-2
  0
DIMSTYLE
105
81
330
4
100
AcDbSymbolTableRecord
100
AcDbDimStyleTableRecord
  2
EZ_M_5_H25_CM
 70
0
 40
1.0
 41
0.0125
 42
0.00625
 43
3.75
 44
0.018750000000000003
 45
0.0
 46
0.0
 47
0.0
 48
0.0
 49
2.5
140
0.0125
141
2.5
142
0.00625
143
0.03937007874
144
100.0
145
0.0
146
0.5
147
0.005000000000000001
148
0.0
 69
0
 70
0
 71
0
 72
0
 73
0
 74
0
 75
0
 76
0
 77
1
 78
12
 79
3
170
0
171
3
172
1
173
0
174
0
175
0
176
0
177
0
178
0
179
2
271
2
272
2
273
2
274
3
275
0
276
0
277
2
278
46
279
2
280
0
281
0
282
0
283
0
284
8
285
0
286
0
288
1
289
3
290
0
340
4C
371
-2
372
-2
  0
DIMSTYLE
105
82
330
4
100
AcDbSymbolTableRecord
100
AcDbDimStyleTableRecord
  2
EZ_M_1_H25_CM
 70
0
 40
1.0
 41
0.0025
 42
0.00125
 43
3.75
 44
0.00375
 45
0.0
 46
0.0
 47
0.0
 48
0.0
 49
2.5
140
0.0025
141
2.5
142
0.00125
143
0.03937007874
144
100.0
145
0.0
146
0.5
147
0.001
148
0.0
 69
0
 70
0
 71
0
 72
0
 73
0
 74
0
 75
0
 76
0
 77
1
 78
12
 79
3
170
0
171
3
172
1
173
0
174
0
175
0
176
0
177
0
178
0
179
2
271
2
272
2
273
2
274
3
275
0
276
0
277
2
278
46
279
2
280
0
281
0
282
0
283
0
284
8
285
0
286
0
288
1
289
3
290
0
340
4C
371
-2
372
-2
  0
DIMSTYLE
105
83
330
4
100
AcDbSymbolTableRecord
100
AcDbDimStyleTableRecord
  2
EZ_RADIUS
 70
0
 40
1.0
 41
0.25
 42
0.125
 43
3.75
 44
0.375
 45
0.0
 46
0.0
 47
0.0
 48
0.0
 49
2.5
140
0.25
141
0.0
142
0.0
143
0.03937007874
144
100.0
145
0.0
146
0.5
147
0.1
148
0.0
 69
0
 70
0
 71
0
 72
0
 73
0
 74
0
 75
0
 76
0
 77
1
 78
12
 79
3
170
0
171
3
172
0
173
0
174
0
175
0
176
0
177
0
178
0
179
2
271
2
272
2
273
2
274
3
275
0
276
0
277
2
278
46
279
1
280
0
281
0
282
0
283
0
284
8
285
0
286
0
288
1
289
3
290
0
340
4C
342
84
371
-2
372
-2
  0
DIMSTYLE
105
88
330
4
100
AcDbSymbolTableRecord
100
AcDbDimStyleTableRecord
  2
EZ_RADIUS_INSIDE
 70
0
 40
1.0
 41
0.25
 42
0.125
 43
3.75
 44
0.375
 45
0.0
 46
0.0
 47
0.0
 48
0.0
 49
2.5
140
0.25
141
0.0
142
0.0
143
0.03937007874
144
100.0
145
0.0
146
0.5
147
0.1
148
0.0
 69
0
 70
0
 71
0
 72
0
 73
0
 74
0
 75
0
 76
0
 77
0
 78
12
 79
3
170
0
171
3
172
0
173
0
174
1
175
0
176
0
177
0
178
0
179
2
271
2
272
2
273
2
274
3
275
0
276
0
277
2
278
46
279
0
280
0
281
0
282
0
283
0
284
8
285
0
286
0
288
1
289
0
290
0
340
4C
342
84
371
-2
372
-2
  0
DIMSTYLE
105
89
330
4
100
AcDbSymbolTableRecord
100
AcDbDimStyleTableRecord
  2
EZ_CURVED
 70
0
 40
1.0
 41
0.25
 42
0.125
 43
3.75
 44
0.375
 45
0.0
 46
0.0
 47
0.0
 48
0.0
 49
2.5
140
0.25
141
2.5
142
0.0
143
0.03937007874
144
100.0
145
0.0
146
0.5
147
0.1
148
0.0
 69
0
 70
0
 71
0
 72
0
 73
0
 74
0
 75
0
 76
0
 77
1
 78
12
 79
2
 90
2
170
0
171
3
172
1
173
0
174
0
175
0
176
0
177
0
178
0
179
2
271
2
272
2
273
2
274
3
275
0
276
0
277
2
278
46
279
2
280
0
281
0
282
0
283
0
284
8
285
0
286
0
288
1
289
3
290
0
340
4C
371
-2
372
-2
  0
ENDTAB
  0
TABLE
  2
BLOCK_RECORD
  5
9
330
0
100
AcDbSymbolTable
 70
5
  0
BLOCK_RECORD
  5
17
330
9
100
AcDbSymbolTableRecord
100
AcDbBlockTableRecord
  2
*Model_Space
340
1A
 70
0
280
1
281
0
  0
BLOCK_RECORD
  5
1B
330
9
100
AcDbSymbolTableRecord
100
AcDbBlockTableRecord
  2
*Paper_Space
340
1E
 70
0
280
1
281
0
  0
BLOCK_RECORD
  5
74
330
9
100
AcDbSymbolTableRecord
100
AcDbBlockTableRecord
  2
_ARCHTICK
340
0
 70
0
280
1
281
0
  0
BLOCK_RECORD
  5
78
330
9
100
AcDbSymbolTableRecord
100
AcDbBlockTableRecord
  2
_CLOSEDFILLED
340
0
 70
0
280
1
281
0
  0
BLOCK_RECORD
  5
84
330
9
100
AcDbSymbolTableRecord
100
AcDbBlockTableRecord
  2
_CLOSEDBLANK
340
0
 70
0
280
1
281
0
  0
ENDTAB
  0
ENDSEC
  0
SECTION
  2
BLOCKS
  0
BLOCK
  5
18
330
17
100
AcDbEntity
  8
0
100
AcDbBlockBegin
  2
*Model_Space
 70
0
 10
0.0
 20
0.0
 30
0.0
  3
*Model_Space
  1

  0
ENDBLK
  5
19
330
17
100
AcDbEntity
  8
0
100
AcDbBlockEnd
  0
BLOCK
  5
1C
330
1B
100
AcDbEntity
  8
0
100
AcDbBlockBegin
  2
*Paper_Space
 70
0
 10
0.0
 20
0.0
 30
0.0
  3
*Paper_Space
  1

  0
ENDBLK
  5
1D
330
1B
100
AcDbEntity
  8
0
100
AcDbBlockEnd
  0
BLOCK
  5
75
330
74
100
AcDbEntity
  8
0
100
AcDbBlockBegin
  2
_ARCHTICK
 70
0
 10
0.0
 20
0.0
 30
0.0
  3
_ARCHTICK
  1

  0
LWPOLYLINE
  5
77
330
74
100
AcDbEntity
  8
0
  6
BYBLOCK
 62
0
100
AcDbPolyline
 90
2
 70
0
 43
0.15
 10
-0.5
 20
-0.5000000000000001
 10
0.5000000000000001
 20
0.5
  0
ENDBLK
  5
76
330
74
100
AcDbEntity
  8
0
100
AcDbBlockEnd
  0
BLOCK
  5
79
330
78
100
AcDbEntity
  8
0
100
AcDbBlockBegin
  2
_CLOSEDFILLED
 70
0
 10
0.0
 20
0.0
 30
0.0
  3
_CLOSEDFILLED
  1

  0
SOLID
  5
7B
330
78
100
AcDbEntity
  8
0
  6
BYBLOCK
 62
0
100
AcDbTrace
 10
-1.0
 20
0.1643989837240255
 30
0.0
 11
0.0
 21
0.0
 31
0.0
 12
-1.0
 22
-0.1643989837240255
 32
0.0
 13
-1.0
 23
-0.1643989837240255
 33
0.0
  0
ENDBLK
  5
7A
330
78
100
AcDbEntity
  8
0
100
AcDbBlockEnd
  0
BLOCK
  5
85
330
84
100
AcDbEntity
  8
0
100
AcDbBlockBegin
  2
_CLOSEDBLANK
 70
0
 10
0.0
 20
0.0
 30
0.0
  3
_CLOSEDBLANK
  1

  0
LWPOLYLINE
  5
87
330
84
100
AcDbEntity
  8
0
  6
BYBLOCK
 62
0
100
AcDbPolyline
 90
3
 70
1
 10
-1.0
 20
0.1643989837240255
 10
0.0
 20
0.0
 10
-1.0
 20
-0.1643989837240255
  0
ENDBLK
  5
86
330
84
100
AcDbEntity
  8
0
100
AcDbBlockEnd
  0
ENDSEC
  0
SECTION
  2
ENTITIES
  0
LWPOLYLINE
  5
8B
330
17
100
AcDbEntity
  8
Layer
100
AcDbPolyline
 90
303
 70
1
 10
1012.3343046847965
 20
-1.7688199344122353
 10
1009.3058042293655
 20
-0.5361157300736608
 10
1004.4291820726651
 20
1.3540181390370236
 10
999.1556005852356
 20
3.4410955980462603
 10
993.3937374974685
 20
5.681454252102668
 10
987.1081287193745
 20
8.08016421355022
 10
980.3465419909965
 20
10.65924575398705
 10
973.1902959548474
 20
13.402604866329554
 10
965.7018486559537
 20
16.260425603857
 10
957.9980012811234
 20
19.19666232049397
 10
950.2197880350022
 20
22.131996634527923
 10
942.3754326066019
 20
25.034253417882226
 10
934.4244032292627
 20
28.03800919060822
 10
926.3813794326804
 20
31.089287598796275
 10
918.198368042687
 20
34.130570985758254
 10
909.8823113291801
 20
37.208617030071224
 10
901.4238964564247
 20
40.29990592943307
 10
892.8050047780835
 20
43.46185018390334
 10
884.0487652778013
 20
46.6684588713513
 10
875.192561852072
 20
49.904256978948084
 10
866.2729723204732
 20
53.15967951258788
 10
857.3248296713004
 20
56.42518440755587
 10
848.3726270284236
 20
59.68500562733609
 10
839.4225662940314
 20
62.9308596418812
 10
830.4755801440763
 20
66.16126607461183
 10
821.534627518634
 20
69.37581300118227
 10
812.6101399176682
 20
72.5731265132751
 10
803.7197112015612
 20
75.7442113822634
 10
794.8639047581438
 20
78.87917495564733
 10
786.0255852310495
 20
81.97923234658685
 10
777.1980676174659
 20
85.05038485502305
 10
768.3895317906286
 20
88.09102279334486
 10
764.0302083983952
 20
89.58194542599604
 10
763.6904230247832
 20
88.58844358911837
 10
759.2675657699676
 20
90.10110394377574
 10
750.504062567871
 20
93.06600989341503
 10
741.7529784352506
 20
95.99253185013673
 10
733.0076997908612
 20
98.88136504094959
 10
724.2622285298969
 20
101.73515278795179
 10
715.517585709364
 20
104.55804935459346
 10
706.7978662700791
 20
107.34823641848915
 10
698.1339947336787
 20
110.09169032252494
 10
689.5334421712726
 20
112.77338448165827
 10
680.9845586224385
 20
115.38827265867204
 10
672.4736805339129
 20
117.93666717935128
 10
663.9888867233053
 20
120.4201458619244
 10
655.519633646848
 20
122.84091041452363
 10
647.060241327214
 20
125.20142888386266
 10
638.6114138951875
 20
127.50196674763315
 10
630.1743373589043
 20
129.73973734054837
 10
621.7415648599936
 20
131.91256097170006
 10
613.3009240071797
 20
134.02258159758122
 10
604.8458901582002
 20
136.07324880631572
 10
596.3739032997531
 20
138.0665869252435
 10
587.884276156371
 20
140.00386601162575
 10
579.3783590440055
 20
141.88568328990453
 10
570.8596409796219
 20
143.71172413753933
 10
562.3300413488328
 20
145.47999173126635
 10
553.7839128702367
 20
147.1892551027221
 10
545.213008111386
 20
148.84192118832948
 10
536.6144986142325
 20
150.44136629286479
 10
527.9904095733858
 20
151.9901738168513
 10
519.3495727100369
 20
153.4892468491093
 10
510.7017444760529
 20
154.9365841000514
 10
502.0521707146154
 20
156.32925404663018
 10
493.40299966968564
 20
157.66638062593165
 10
484.7583613989194
 20
158.94702062591017
 10
476.1208194842577
 20
160.16924291525612
 10
467.48970519688356
 20
161.33127885792342
 10
458.86229843064945
 20
162.43293835135978
 10
450.2387905580486
 20
163.47450637530835
 10
441.62000503741706
 20
164.45520560500196
 10
433.0043640289347
 20
165.3741445247112
 10
424.3902950047796
 20
166.2314455281914
 10
415.779389982726
 20
167.02718703704534
 10
407.17029546377285
 20
167.7596421985141
 10
398.55883098252286
 20
168.42841837250728
 10
389.94069046000527
 20
169.03516788347804
 10
381.3188594006936
 20
169.58180404495243
 10
372.69933523242025
 20
170.0684837256764
 10
364.0874305031454
 20
170.49398810339068
 10
355.4862685826755
 20
170.8567539261889
 10
346.8962539549253
 20
171.15551936888727
 10
338.3177391269906
 20
171.39024933355287
 10
329.75334086054585
 20
171.5617483432389
 10
321.2113759100188
 20
171.6719519809669
 10
312.7077833380298
 20
171.7206131316339
 10
304.25513011634797
 20
171.70365434678246
 10
295.85848711295097
 20
171.61492811855055
 10
287.5103857013098
 20
171.44639749800865
 10
279.1877434551394
 20
171.19343598415637
 10
270.87263194248874
 20
170.86032577669278
 10
262.5678559131965
 20
170.4534174258947
 10
254.28284041674942
 20
169.97285233840438
 10
246.02095565379145
 20
169.4167937746918
 10
237.78448998691772
 20
168.7854629343325
 10
229.58075377448495
 20
168.0799967882166
 10
221.4173062096877
 20
167.2996308300271
 10
213.30015004777792
 20
166.44331416259547
 10
205.23380786792097
 20
165.50967795512565
 10
197.22215551217394
 20
164.4977945416229
 10
189.26962335857093
 20
163.40769334629246
 10
181.38496723345494
 20
162.2388642888842
 10
173.56958156249297
 20
160.98423229033156
 10
165.80880901700232
 20
159.6401569841105
 10
158.1035442091432
 20
158.21976109918242
 10
150.49453205020905
 20
156.7400904116578
 10
143.02351442273854
 20
155.2001681757464
 10
135.70403337965786
 20
153.5889565656799
 10
128.5339239610568
 20
151.8982475385106
 10
121.50777533370848
 20
150.12401872037913
 10
114.62135164014649
 20
148.26556347691286
 10
107.87530959665429
 20
146.32546410645813
 10
101.27681131864125
 20
144.3101641268005
 10
94.84096836836574
 20
142.22837228055528
 10
88.58571391955036
 20
140.08621953871122
 10
82.52278728951035
 20
137.88873538990418
 10
76.66465990003348
 20
135.65011154945228
 10
71.03528000372086
 20
133.39307616850948
 10
65.6633452708823
 20
131.13645318605026
 10
60.570143765429464
 20
128.89158871593114
 10
55.76702980342003
 20
126.66550372387371
 10
51.254812669407215
 20
124.46183826610266
 10
47.02672099834422
 20
122.28643332300048
 10
43.07446036020366
 20
120.14917267483759
 10
39.38892359171547
 20
118.0595669723239
 10
35.9605529373157
 20
116.02631241478035
 10
32.779537786834965
 20
114.0539193723031
 10
29.834079828731262
 20
112.14215735842947
 10
27.110768800147582
 20
110.28782882022432
 10
24.594419222385397
 20
108.48536216330376
 10
22.26668872129727
 20
106.72920263362964
 10
20.109511127463122
 20
105.02059200111124
 10
18.108506430673344
 20
103.36322006165469
 10
16.252949986015665
 20
101.75787100904313
 10
14.532861446546121
 20
100.2012096968951
 10
12.938749985946117
 20
98.69033177327151
 10
11.462021065895328
 20
97.22236070669672
 10
10.094657036583953
 20
95.79424093738864
 10
8.82808034164367
 20
94.40178931790405
 10
7.653473988492578
 20
93.04324408181795
 10
6.565137425087357
 20
91.72136849375681
 10
5.56112296919747
 20
90.43646959841577
 10
4.635370047362187
 20
89.17659687731417
 10
3.775044576489279
 20
87.93426017788133
 10
2.9760865260075207
 20
86.73036414330201
 10
2.251175760451588
 20
85.58106835788803
 10
1.604687021095799
 20
84.4510116551498
 10
1.0189552600801903
 20
83.30547598141702
 10
0.4799634428131867
 20
82.18348548630078
 10
0.0005066198331178384
 20
81.1261965634187
 10
-0.40453147526471867
 20
80.09861151350776
 10
-0.7397892256195178
 20
79.05872885570535
 10
-1.0198157990980121
 20
78.02505488847746
 10
-1.2493299224075258
 20
77.02432674822298
 10
-1.423580067310354
 20
76.05114498454688
 10
-1.5421080253856303
 20
75.0780750833201
 10
-1.6023892539125768
 20
74.17131850034552
 10
-1.603770332884892
 20
73.25415482011081
 10
-1.5296385840230187
 20
72.33253426806823
 10
-1.371318532278508
 20
71.39910178048704
 10
-1.130254671129535
 20
70.45985540084934
 10
-0.8086691995721935
 20
69.52293988055175
 10
-0.4062582493762079
 20
68.59455317236596
 10
0.07834510978528897
 20
67.68075178916067
 10
0.6528436778781384
 20
66.78040047975621
 10
1.3204780549572774
 20
65.89137496318976
 10
2.0743053449066338
 20
65.01599645185166
 10
2.909483081669748
 20
64.15624519738127
 10
3.823865908764958
 20
63.31407042743791
 10
4.817575588686282
 20
62.49158691626346
 10
5.894913700830443
 20
61.689757511399584
 10
7.060463907377141
 20
60.90819712989815
 10
8.319486815224138
 20
60.14457366236005
 10
9.675970873673009
 20
59.39437095913857
 10
11.131526279026957
 20
58.65163320512143
 10
12.687259108402202
 20
57.91093308759327
 10
14.347003459508983
 20
57.1681015100125
 10
16.116721280791523
 20
56.42016222500879
 10
18.003716383772257
 20
55.665313593213355
 10
20.01567243550255
 20
54.9040489926067
 10
22.166416468014802
 20
54.14016556745362
 10
24.477417098678472
 20
53.37656705189285
 10
26.96849273641618
 20
52.60962882419437
 10
29.655301989420423
 20
51.832342373285066
 10
32.55505652728482
 20
51.039230006439766
 10
35.68714000062624
 20
50.227139422131614
 10
39.07160576898042
 20
49.39855963976382
 10
42.734156651686476
 20
48.562280806450474
 10
46.705568041160234
 20
47.726250610165216
 10
51.020618869109
 20
46.89512823272173
 10
55.717655426945896
 20
46.06802380152738
 10
60.82501313137783
 20
45.234650873032294
 10
66.34854502115553
 20
44.38897403184196
 10
72.28323643310875
 20
43.54286225408133
 10
78.6279265555932
 20
42.71340501827932
 10
85.37961753287652
 20
41.909265387964254
 10
92.52789984714337
 20
41.131168364234284
 10
100.04286720163014
 20
40.37241476174843
 10
107.8586223922153
 20
39.62907726168368
 10
115.89441478081017
 20
38.91228099366675
 10
124.09149883827286
 20
38.23998669047807
 10
132.42508067985514
 20
37.629076077889685
 10
140.91515357440358
 20
37.08572968799718
 10
149.58945453085727
 20
36.59401400170864
 10
158.42554560672
 20
36.13375774051828
 10
167.38447808734838
 20
35.7044628516565
 10
176.4615309385268
 20
35.30901481326687
 10
185.6569263907205
 20
34.93783276997276
 10
194.9403613869981
 20
34.578694243896905
 10
198.0553428718352
 20
34.46196926465876
 10
198.0160247335096
 20
33.412705673372656
 10
204.22865865361047
 20
33.179904413944556
 10
213.56251479235823
 20
32.846111869954484
 10
222.89233893119277
 20
32.540599207985764
 10
232.24598785956076
 20
32.268406117777715
 10
241.6472577746706
 20
32.02025368849634
 10
251.0893430610177
 20
31.785622009822816
 10
260.54955168197284
 20
31.560006425118175
 10
270.00121479673084
 20
31.34696884696058
 10
279.4419053181998
 20
31.157537278814928
 10
288.9017142922043
 20
30.995864324967997
 10
298.40654974180586
 20
30.85466747273574
 10
307.9558032016989
 20
30.72030992155848
 10
317.52612808606676
 20
30.578609659061044
 10
327.1178303995071
 20
30.42991244486207
 10
336.7196319112441
 20
30.288395138364407
 10
346.34503301170906
 20
30.157237587305133
 10
355.99384307064133
 20
30.029403307453123
 10
365.6502536932701
 20
29.89925517186518
 10
375.30898051367404
 20
29.76433399992105
 10
384.96962364556276
 20
29.624048365272657
 10
394.62923063251486
 20
29.481064808087964
 10
404.2801289145996
 20
29.34231048377241
 10
413.93033899693984
 20
29.213019832991222
 10
423.58915630396314
 20
29.08840272527128
 10
433.2472275263446
 20
28.9603782464456
 10
442.9060880983889
 20
28.826160396583646
 10
452.5671480646563
 20
28.687056885841614
 10
462.2259208556721
 20
28.549237744866105
 10
471.88007924157534
 20
28.41790165540941
 10
481.53581343438134
 20
28.293093346220246
 10
491.19063733410167
 20
28.171538790518184
 10
500.8357987503628
 20
28.04757563918868
 10
510.4685458716938
 20
27.916401703582096
 10
520.0935149368911
 20
27.776018777535413
 10
529.7161635683689
 20
27.626818776410644
 10
539.3365750204027
 20
27.471151227331973
 10
548.9469256246977
 20
27.30921714318471
 10
558.5437010915348
 20
27.138429778140917
 10
568.1309382647194
 20
26.9548996378752
 10
577.7222043561467
 20
26.755726948463376
 10
587.3347414005171
 20
26.544376381331347
 10
596.9666363065601
 20
26.328658483386974
 10
606.6026543232533
 20
26.11588141634313
 10
616.2420858074837
 20
25.910105873830958
 10
625.8830121097972
 20
25.706688613311172
 10
635.5151531470668
 20
25.497417781781763
 10
645.1435824396605
 20
25.27913414471763
 10
654.7741279532994
 20
25.05290667721711
 10
664.4020843548954
 20
24.826045585799534
 10
674.0179334454222
 20
24.605035720670884
 10
683.6168254327899
 20
24.38331231549627
 10
693.1892314685192
 20
24.15127987754083
 10
702.7461324163351
 20
23.903382073716514
 10
712.3052307343706
 20
23.638849458268638
 10
721.8732201508096
 20
23.366060456614505
 10
731.4271527749445
 20
23.091598317433522
 10
740.9364880563667
 20
22.814969081037646
 10
750.3774933880384
 20
22.528305308245805
 10
759.7508304086085
 20
22.21774043181877
 10
769.0850954770281
 20
21.879406777283037
 10
778.3769115700452
 20
21.527592725669592
 10
787.57766510163
 20
21.161070444272326
 10
796.681764125197
 20
20.754491787965748
 10
805.7353549894203
 20
20.296412168867647
 10
814.7692555212066
 20
19.79528391495637
 10
823.7672735863337
 20
19.273393955610416
 10
832.6866205705358
 20
18.763198367256635
 10
841.437233294632
 20
18.245805992047224
 10
850.0114787844884
 20
17.645404771433988
 10
858.5541536394875
 20
16.948449555563343
 10
867.0993001640275
 20
16.24844848230758
 10
875.5587943449516
 20
15.57288379834337
 10
883.8995356036486
 20
14.838365595888263
 10
892.1990349131624
 20
14.009361166541808
 10
900.4778565732347
 20
13.183931688153947
 10
908.6719042584823
 20
12.408010456927798
 10
916.7467170368068
 20
11.580903682810757
 10
924.776906468147
 20
10.61473815201694
 10
932.8575929201138
 20
9.575713139481593
 10
940.896387935901
 20
8.543567136400185
 10
948.7273167386452
 20
7.498510947278902
 10
956.3897722966208
 20
6.3117940768176055
 10
964.0082656619379
 20
5.046923090627871
 10
971.4821826768343
 20
3.763500418481982
 10
978.7077824441544
 20
2.5093264475677444
 10
985.5819973674938
 20
1.2600169002060255
 10
992.0834808132377
 20
0.02792358015101115
 10
998.1822974876977
 20
-1.1248911534830341
 10
1003.8485979770812
 20
-2.2307723393831225
 10
1009.0667768940014
 20
-3.273000866512163
 10
1012.2917125603014
 20
-3.951679030804385
  0
LWPOLYLINE
  5
8C
330
17
100
AcDbEntity
  8
Layer
100
AcDbPolyline
 90
5
 70
0
 10
664.8564188760628
 20
115.99837409171342
 10
661.0174805943597
 20
117.12200787069737
 10
662.1411143733436
 20
120.96094615240055
 10
665.9800526550467
 20
119.8373123734166
 10
664.8564188760628
 20
115.99837409171342
  0
LWPOLYLINE
  5
8D
330
17
100
AcDbEntity
  8
Layer
100
AcDbPolyline
 90
5
 70
0
 10
262.0682781622067
 20
166.41771087087088
 10
258.07499198544343
 20
166.18605269494972
 10
257.84333380952233
 20
170.17933887171304
 10
261.8366199862856
 20
170.4109970476342
 10
262.0682781622067
 20
166.41771087087088
  0
LWPOLYLINE
  5
8E
330
17
100
AcDbEntity
  8
Layer
100
AcDbPolyline
 90
5
 70
0
 10
108.14249061751224
 20
142.22463560052398
 10
104.31697156324367
 20
141.05613058751453
 10
103.14846655023422
 20
144.8816496417831
 10
106.97398560450279
 20
146.05015465479255
 10
108.14249061751224
 20
142.22463560052398
  0
LWPOLYLINE
  5
8F
330
17
100
AcDbEntity
  8
Layer
100
AcDbPolyline
 90
5
 70
0
 10
24.635596650807255
 20
102.22696580429721
 10
23.067965756861557
 20
100.98497813111078
 10
19.962996573895513
 20
104.90405536597501
 10
21.53062746784121
 20
106.14604303916144
 10
24.635596650807255
 20
102.22696580429721
  0
LWPOLYLINE
  5
90
330
17
100
AcDbEntity
  8
Layer
100
AcDbPolyline
 90
5
 70
0
 10
46.176954820873256
 20
52.94725514822051
 10
48.13408249482007
 20
52.53536770258575
 10
47.10436388073318
 20
47.642548517718716
 10
45.14723620678637
 20
48.05443596335348
 10
46.176954820873256
 20
52.94725514822051
  0
LWPOLYLINE
  5
91
330
17
100
AcDbEntity
  8
Layer
100
AcDbPolyline
 90
5
 70
0
 10
145.4167076014668
 20
40.83698172806775
 10
149.4102967426425
 20
40.61060643903674
 10
149.18392145361148
 20
36.617017297861075
 10
145.1903323124358
 20
36.84339258689209
 10
145.4167076014668
 20
40.83698172806775
  0
LINE
  5
92
330
17
100
AcDbEntity
  8
Layer
100
AcDbLine
 10
994.1704284783009
 20
5.379457079672548
 30
0.0
 11
993.9640410758352
 21
4.924040522986829
 31
0.0
  0
LINE
  5
93
330
17
100
AcDbEntity
  8
Layer
100
AcDbLine
 10
992.6553677954194
 20
0.42814195321437865
 30
0.0
 11
992.5851431326298
 21
-0.0669019809329825
 31
0.0
  0
LINE
  5
94
330
17
100
AcDbEntity
  8
Layer
100
AcDbLine
 10
975.4717961633926
 20
12.52798787366227
 30
0.0
 11
975.279247363972
 21
12.066549947347482
 31
0.0
  0
LINE
  5
95
330
17
100
AcDbEntity
  8
Layer
100
AcDbLine
 10
972.9808259706836
 20
4.010818785624579
 30
0.0
 11
972.9009121208983
 21
3.517246322239032
 31
0.0
  0
LINE
  5
96
330
17
100
AcDbEntity
  8
Layer
100
AcDbLine
 10
938.043030098903
 20
26.6709570979569
 30
0.0
 11
937.8583624207126
 21
26.20630900678283
 31
0.0
  0
LINE
  5
97
330
17
100
AcDbEntity
  8
Layer
100
AcDbLine
 10
933.4291213167483
 20
10.006241404128374
 30
0.0
 11
933.3516954740144
 21
9.51227253984952
 31
0.0
  0
LWPOLYLINE
  5
98
330
17
100
AcDbEntity
  8
Layer
100
AcDbPolyline
 90
300
 70
1
 10
437.32904473684215
 20
100.0
 10
437.31680852700663
 20
101.16314423221675
 10
437.28010530066604
 20
102.32577485268442
 10
437.2189512649318
 20
103.48737847645036
 10
437.13337342370454
 20
104.64744217205481
 10
437.02340956574983
 20
105.80545368802693
 10
436.8891082480117
 20
106.96090167908059
 10
436.73052877417143
 20
108.11327593191017
 10
436.54774116846045
 20
109.26206759048625
 10
436.34082614473965
 20
110.40676938075221
 10
436.1098750708587
 20
111.54687583462216
 10
435.8549899283103
 20
112.68188351318135
 10
435.57628326719805
 20
113.81129122899071
 10
435.27387815653765
 20
114.93460026739707
 10
434.9479081299128
 20
116.0513146067515
 10
434.5985171265109
 20
117.16094113743856
 10
434.22585942756325
 20
118.26298987961951
 10
433.83009958821907
 20
119.3569741995938
 10
433.4114123648822
 20
120.44241102468258
 10
432.96998263804403
 20
121.51882105654023
 10
432.5060053306451
 20
122.58572898279886
 10
432.0196853220029
 20
123.6426636869529
 10
431.5112373573428
 20
124.68915845639094
 10
430.9808859529725
 20
125.7247511884828
 10
430.42886529714235
 20
126.74898459463114
 10
429.8554191466338
 20
127.76140640219714
 10
429.2608007191238
 20
128.7615695542114
 10
428.6452725813707
 20
129.7490324067818
 10
428.00910653327236
 20
130.72335892411076
 10
427.3525834878468
 20
131.68411887103673
 10
426.675993347189
 20
132.63088800301355
 10
425.97963487445827
 20
133.56324825344527
 10
425.2638155619529
 20
134.48078791829226
 10
424.5288514953302
 20
135.3831018378683
 10
423.7750672140318
 20
136.26979157574777
 10
423.00279556797653
 20
137.14046559470367
 10
422.2123775705829
 20
137.99473942959972
 10
421.40416224818733
 20
138.83223585715922
 10
420.5785064859241
 20
139.65258506253628
 10
419.73577487013466
 20
140.45542480261554
 10
418.8763395273766
 20
141.24040056596868
 10
418.00057996010327
 20
142.00716572939655
 10
417.1088828790859
 20
142.75538171098827
 10
416.2016420326532
 20
143.48471811962955
 10
415.279258032823
 20
144.19485290089398
 10
414.34213817840356
 20
144.88547247925328
 10
413.3906962751415
 20
145.55627189654334
 10
412.42535245299723
 20
146.2069549466253
 10
411.446532980627
 20
146.8372343061817
 10
410.4546700771549
 20
147.44683166159047
 10
409.450201721317
 20
148.0354778318203
 10
408.43357145806243
 20
148.60291288729346
 10
407.405228202696
 20
149.14888626466347
 10
406.36562604265026
 20
149.67315687745662
 10
405.3152240369731
 20
150.17549322252913
 10
404.2544860136203
 20
150.65567348229234
 10
403.1838803646418
 20
151.1134856226612
 10
402.1038798393536
 20
151.54872748668242
 10
401.0149613355843
 20
151.96120688380145
 10
399.9176056890908
 20
152.35074167472828
 10
398.81229746123495
 20
152.71715985186506
 10
397.69952472501427
 20
153.06029961525988
 10
396.5797788495434
 20
153.380009444053
 10
395.45355428307874
 20
153.67614816338423
 10
394.32134833468433
 20
153.94858500673178
 10
393.1836609546341
 20
154.19719967365498
 10
392.0409945136479
 20
154.42188238291573
 10
390.89385358105864
 20
154.62253392095474
 10
389.74274470200885
 20
154.79906568570132
 10
388.58817617377446
 20
154.95139972569777
 10
387.4306578213151
 20
155.0794687745204
 10
386.2707007721498
 20
155.18321628048253
 10
385.1088172306573
 20
155.26259643160614
 10
383.94552025190114
 20
155.31757417585112
 10
382.78132351507907
 20
155.34812523659332
 10
381.61674109669656
 20
155.35423612334438
 10
380.4522872435652
 20
155.33590413770872
 10
379.28847614572584
 20
155.29313737457514
 10
378.1258217093967
 20
155.22595471854228
 10
376.9648373300468
 20
155.1343858355798
 10
375.80603566569494
 20
155.01847115992865
 10
374.6499284105346
 20
154.87826187624643
 10
373.4970260689838
 20
154.7138198970058
 10
372.3478377302612
 20
154.52521783515556
 10
371.2028708435861
 20
154.3125389720568
 10
370.0626309941035
 20
154.0758772207084
 10
368.9276216796319
 20
153.81533708427742
 10
367.7983440883328
 20
153.53103360995357
 10
366.6752968774
 20
153.2230923381477
 10
365.55897595286683
 20
152.89164924705648
 10
364.4498742506278
 20
152.53685069261846
 10
363.3484815187721
 20
152.1588533438873
 10
362.2552841013247
 20
151.75782411385114
 10
361.17076472349044
 20
151.3339400857285
 10
360.09540227849595
 20
150.8873884347734
 10
359.0296716161244
 20
150.41836634562398
 10
357.97404333303473
 20
149.92708092523128
 10
356.9289835649595
 20
149.41374911140667
 10
355.8949537808727
 20
148.87859757702827
 10
354.87241057921796
 20
148.32186262994855
 10
353.8618054862872
 20
147.7437901086474
 10
352.8635847568399
 20
147.14463527367684
 10
351.8781891770491
 20
146.52466269494505
 10
350.9060538698627
 20
145.8841461348899
 10
349.9476081028658
 20
145.22336842759302
 10
349.0032750987276
 20
144.54262135388828
 10
348.0734718483188
 20
143.84220551251966
 10
347.15860892657963
 20
143.12243018740514
 10
346.259090311222
 20
142.38361321106584
 10
345.3753132043439
 20
141.62608082427994
 10
344.50766785703644
 20
140.85016753202405
 10
343.6565373970597
 20
140.05621595576514
 10
342.82229765966457
 20
139.2445766821687
 10
342.00531702163426
 20
138.41560810828935
 10
341.20595623861954
 20
137.56967628331284
 10
340.4245682858393
 20
136.7071547469192
 10
339.66149820221653
 20
135.8284243643379
 10
338.9170829380189
 20
134.93387315816867
 10
338.19165120607084
 20
134.0238961370414
 10
337.4855233366035
 20
133.0988951211918
 10
336.79901113580564
 20
132.15927856502861
 10
336.1324177481392
 20
131.20546137677175
 10
335.48603752247857
 20
130.2378647352405
 10
334.86015588213525
 20
129.2569159038728
 10
334.2550491988223
 20
128.26304804205773
 10
333.6709846706166
 20
127.25670001386462
 10
333.1082202039716
 20
126.23831619425277
 10
332.56700429983346
 20
125.20834627284829
 10
332.0475759439095
 20
124.16724505537363
 10
331.5501645011393
 20
123.11547226281823
 10
331.0749896144132
 20
122.0534923284387
 10
330.62226110758445
 20
120.98177419267805
 10
330.1921788928169
 20
119.90079109609499
 10
329.78493288230925
 20
118.81102037039402
 10
329.4007029044353
 20
117.71294322764932
 10
329.03965862433677
 20
116.60704454781498
 10
328.7019594690039
 20
115.49381266461573
 10
328.38775455687704
 20
114.37373914991241
 10
328.0971826320003
 20
113.24731859663775
 10
327.83037200275567
 20
112.11504840039807
 10
327.587440485206
 20
110.97742853983732
 10
327.36849535107064
 20
109.83496135586059
 10
327.17363328035725
 20
108.68815132981456
 10
327.00294031867077
 20
107.53750486072273
 10
326.8564918392177
 20
106.38353004167384
 10
326.73435250952406
 20
105.22673643546224
 10
326.6365762628794
 20
104.06763484957938
 10
326.5632062745217
 20
102.90673711065556
 10
326.51427494257234
 20
101.74455583845165
 10
326.4898038737301
 20
100.58160421950072
 10
326.4898038737301
 20
99.4183957804993
 10
326.51427494257234
 20
98.25544416154837
 10
326.5632062745217
 20
97.09326288934446
 10
326.6365762628794
 20
95.93236515042061
 10
326.73435250952406
 20
94.77326356453776
 10
326.8564918392177
 20
93.61646995832618
 10
327.00294031867077
 20
92.46249513927728
 10
327.17363328035725
 20
91.31184867018546
 10
327.36849535107064
 20
90.16503864413943
 10
327.587440485206
 20
89.0225714601627
 10
327.83037200275567
 20
87.88495159960192
 10
328.0971826320003
 20
86.75268140336223
 10
328.38775455687704
 20
85.6262608500876
 10
328.70195946900384
 20
84.50618733538428
 10
329.0396586243367
 20
83.39295545218502
 10
329.40070290443526
 20
82.2870567723507
 10
329.78493288230925
 20
81.188979629606
 10
330.1921788928169
 20
80.09920890390501
 10
330.62226110758445
 20
79.01822580732194
 10
331.0749896144132
 20
77.9465076715613
 10
331.5501645011393
 20
76.88452773718177
 10
332.0475759439095
 20
75.83275494462637
 10
332.56700429983346
 20
74.79165372715173
 10
333.1082202039716
 20
73.76168380574724
 10
333.6709846706165
 20
72.7432999861354
 10
334.2550491988223
 20
71.73695195794224
 10
334.8601558821353
 20
70.74308409612719
 10
335.48603752247857
 20
69.76213526475952
 10
336.1324177481391
 20
68.79453862322826
 10
336.79901113580564
 20
67.8407214349714
 10
337.4855233366035
 20
66.90110487880821
 10
338.19165120607084
 20
65.97610386295861
 10
338.9170829380189
 20
65.06612684183135
 10
339.66149820221653
 20
64.17157563566208
 10
340.4245682858393
 20
63.292845253080785
 10
341.20595623861954
 20
62.43032371668716
 10
342.00531702163426
 20
61.58439189171067
 10
342.82229765966457
 20
60.75542331783131
 10
343.6565373970597
 20
59.94378404423485
 10
344.50766785703644
 20
59.14983246797597
 10
345.3753132043439
 20
58.37391917572007
 10
346.259090311222
 20
57.61638678893418
 10
347.15860892657963
 20
56.87756981259487
 10
348.0734718483188
 20
56.157794487480366
 10
349.0032750987276
 20
55.45737864611173
 10
349.9476081028658
 20
54.776631572407
 10
350.9060538698627
 20
54.115853865110104
 10
351.8781891770491
 20
53.47533730505494
 10
352.8635847568399
 20
52.85536472632317
 10
353.8618054862872
 20
52.25620989135258
 10
354.87241057921796
 20
51.678137370051445
 10
355.89495378087275
 20
51.12140242297172
 10
356.9289835649595
 20
50.586250888593334
 10
357.97404333303473
 20
50.072919074768734
 10
359.0296716161244
 20
49.581633654376034
 10
360.09540227849595
 20
49.1126115652266
 10
361.1707647234904
 20
48.66605991427151
 10
362.2552841013247
 20
48.24217588614888
 10
363.3484815187721
 20
47.841146656112706
 10
364.4498742506278
 20
47.46314930738154
 10
365.5589759528668
 20
47.10835075294353
 10
366.6752968774
 20
46.77690766185231
 10
367.7983440883328
 20
46.46896639004642
 10
368.9276216796319
 20
46.184662915722576
 10
370.0626309941035
 20
45.92412277929159
 10
371.2028708435861
 20
45.68746102794317
 10
372.34783773026123
 20
45.47478216484445
 10
373.49702606898387
 20
45.286180102994194
 10
374.6499284105346
 20
45.121738123753566
 10
375.80603566569494
 20
44.98152884007136
 10
376.96483733004675
 20
44.8656141644202
 10
378.1258217093967
 20
44.77404528145772
 10
379.28847614572584
 20
44.706862625424854
 10
380.4522872435652
 20
44.66409586229126
 10
381.6167410966965
 20
44.64576387665561
 10
382.78132351507907
 20
44.65187476340666
 10
383.94552025190114
 20
44.68242582414887
 10
385.1088172306573
 20
44.73740356839387
 10
386.2707007721498
 20
44.81678371951748
 10
387.4306578213151
 20
44.92053122547961
 10
388.58817617377446
 20
45.04860027430223
 10
389.74274470200885
 20
45.20093431429868
 10
390.89385358105864
 20
45.37746607904527
 10
392.0409945136479
 20
45.57811761708427
 10
393.1836609546341
 20
45.80280032634502
 10
394.32134833468433
 20
46.05141499326823
 10
395.4535542830787
 20
46.32385183661576
 10
396.5797788495434
 20
46.61999055594699
 10
397.69952472501427
 20
46.939700384740114
 10
398.8122974612349
 20
47.282840148134945
 10
399.9176056890908
 20
47.64925832527173
 10
401.0149613355843
 20
48.03879311619854
 10
402.1038798393536
 20
48.45127251331757
 10
403.1838803646418
 20
48.886514377338806
 10
404.2544860136203
 20
49.344326517707664
 10
405.3152240369732
 20
49.82450677747088
 10
406.36562604265026
 20
50.32684312254339
 10
407.405228202696
 20
50.85111373533653
 10
408.43357145806243
 20
51.39708711270654
 10
409.450201721317
 20
51.9645221681797
 10
410.45467007715484
 20
52.55316833840953
 10
411.44653298062696
 20
53.16276569381828
 10
412.42535245299723
 20
53.793045053374684
 10
413.3906962751415
 20
54.44372810345665
 10
414.34213817840356
 20
55.11452752074672
 10
415.279258032823
 20
55.805147099106016
 10
416.2016420326532
 20
56.51528188037045
 10
417.1088828790859
 20
57.24461828901173
 10
418.00057996010327
 20
57.99283427060347
 10
418.8763395273766
 20
58.75959943403132
 10
419.73577487013466
 20
59.544575197384454
 10
420.5785064859241
 20
60.34741493746372
 10
421.40416224818733
 20
61.16776414284078
 10
422.2123775705829
 20
62.005260570400296
 10
423.0027955679765
 20
62.85953440529632
 10
423.77506721403176
 20
63.73020842425222
 10
424.5288514953302
 20
64.61689816213166
 10
425.2638155619529
 20
65.51921208170774
 10
425.97963487445827
 20
66.43675174655472
 10
426.675993347189
 20
67.36911199698643
 10
427.3525834878468
 20
68.31588112896327
 10
428.00910653327236
 20
69.27664107588923
 10
428.6452725813707
 20
70.2509675932182
 10
429.2608007191238
 20
71.23843044578858
 10
429.8554191466338
 20
72.23859359780286
 10
430.42886529714235
 20
73.25101540536886
 10
430.9808859529725
 20
74.2752488115172
 10
431.5112373573428
 20
75.31084154360907
 10
432.0196853220029
 20
76.35733631304711
 10
432.50600533064505
 20
77.41427101720112
 10
432.96998263804403
 20
78.48117894345974
 10
433.4114123648822
 20
79.5575889753174
 10
433.83009958821907
 20
80.64302580040619
 10
434.22585942756325
 20
81.73701012038046
 10
434.5985171265109
 20
82.83905886256143
 10
434.9479081299128
 20
83.94868539324848
 10
435.27387815653765
 20
85.06539973260291
 10
435.57628326719805
 20
86.18870877100929
 10
435.8549899283103
 20
87.31811648681865
 10
436.1098750708587
 20
88.45312416537784
 10
436.34082614473965
 20
89.59323061924779
 10
436.54774116846045
 20
90.73793240951376
 10
436.73052877417143
 20
91.88672406808985
 10
436.8891082480117
 20
93.03909832091942
 10
437.02340956574983
 20
94.19454631197304
 10
437.1333734237045
 20
95.35255782794516
 10
437.2189512649318
 20
96.51262152354961
 10
437.28010530066604
 20
97.67422514731557
 10
437.31680852700663
 20
98.83685576778322
 10
437.32904473684215
 20
99.99999999999999
  0
LINE
  5
99
330
17
100
AcDbEntity
  8
Layer
100
AcDbLine
 10
727.5796277850991
 20
99.99999999999996
 30
0.0
 11
731.5796277850991
 21
99.99999999999996
 31
0.0
  0
LINE
  5
9A
330
17
100
AcDbEntity
  8
Layer
100
AcDbLine
 10
16.320567204377994
 20
100.00000000000004
 30
0.0
 11
12.320567204377994
 21
100.00000000000004
 31
0.0
  0
LINE
  5
9B
330
17
100
AcDbEntity
  8
Layer
100
AcDbLine
 10
162.87237932052224
 20
100.00000000000003
 30
0.0
 11
151.87237932052224
 21
100.00000000000003
 31
0.0
  0
LWPOLYLINE
  5
9C
330
17
100
AcDbEntity
  8
Layer
100
AcDbPolyline
 90
5
 70
0
 10
152.37237932052224
 20
95.00000000000003
 10
152.37237932052224
 20
105.00000000000003
 10
162.37237932052224
 20
105.00000000000003
 10
162.37237932052224
 20
95.00000000000003
 10
152.37237932052224
 20
95.00000000000003
  0
LINE
  5
9D
330
17
100
AcDbEntity
  8
Layer
100
AcDbLine
 10
377.45009749473854
 20
100.0
 30
0.0
 11
366.45009749473854
 21
100.0
 31
0.0
  0
LWPOLYLINE
  5
9E
330
17
100
AcDbEntity
  8
Layer
100
AcDbPolyline
 90
5
 70
0
 10
366.95009749473854
 20
95.0
 10
366.95009749473854
 20
105.0
 10
376.95009749473854
 20
105.0
 10
376.95009749473854
 20
95.0
 10
366.95009749473854
 20
95.0
  0
LINE
  5
9F
330
17
100
AcDbEntity
  8
Layer
100
AcDbLine
 10
592.0278156689549
 20
99.99999999999997
 30
0.0
 11
581.0278156689549
 21
99.99999999999997
 31
0.0
  0
LWPOLYLINE
  5
A0
330
17
100
AcDbEntity
  8
Layer
100
AcDbPolyline
 90
5
 70
0
 10
581.5278156689549
 20
94.99999999999997
 10
581.5278156689549
 20
104.99999999999997
 10
591.5278156689549
 20
104.99999999999997
 10
591.5278156689549
 20
94.99999999999997
 10
581.5278156689549
 20
94.99999999999997
  0
LINE
  5
A1
330
17
100
AcDbEntity
  8
Layer
100
AcDbLine
 10
0.4596767862017259
 20
74.98768124680944
 30
0.0
 11
-3.5285342227059573
 21
75.29455735931673
 31
0.0
  0
LINE
  5
A2
330
17
100
AcDbEntity
  8
Layer
100
AcDbLine
 10
645.0730330544687
 20
25.38738667863099
 30
0.0
 11
649.0612440633764
 21
25.08051056612372
 31
0.0
  0
LINE
  5
A3
330
17
100
AcDbEntity
  8
Layer
100
AcDbLine
 10
1001.7539714409556
 20
-2.0577157828535917
 30
0.0
 11
1005.7421824498633
 21
-2.36459189536086
 31
0.0
  0
LINE
  5
A4
330
17
100
AcDbEntity
  8
Layer
100
AcDbLine
 10
381.90789473684214
 20
155.355
 30
0.0
 11
381.90789473684214
 21
155.855
 31
0.0
  0
LINE
  5
A5
330
17
100
AcDbEntity
  8
Layer
100
AcDbLine
 10
381.90789473684214
 20
44.64500000000001
 30
0.0
 11
381.90789473684214
 21
44.14500000000001
 31
0.0
  0
LINE
  5
A6
330
17
100
AcDbEntity
  8
Layer
100
AcDbLine
 10
437.32904473684215
 20
100.0
 30
0.0
 11
437.82904473684215
 21
100.0
 31
0.0
  0
LINE
  5
A7
330
17
100
AcDbEntity
  8
Layer
100
AcDbLine
 10
326.4867447368421
 20
100.0
 30
0.0
 11
325.9867447368421
 21
100.0
 31
0.0
  0
LINE
  5
A8
330
17
100
AcDbEntity
  8
Layer
100
AcDbLine
 10
121.90789473684214
 20
148.2250560615151
 30
0.0
 11
121.90789473684214
 21
152.2250560615151
 31
0.0
  0
LINE
  5
A9
330
17
100
AcDbEntity
  8
Layer
100
AcDbLine
 10
121.90789473684214
 20
40.41907776573364
 30
0.0
 11
121.90789473684214
 21
36.41907776573364
 31
0.0
  0
LINE
  5
AA
330
17
100
AcDbEntity
  8
Layer
100
AcDbLine
 10
121.90789473684214
 20
66.28027342488993
 30
0.0
 11
121.90789473684214
 21
55.28027342488993
 31
0.0
  0
LWPOLYLINE
  5
AB
330
17
100
AcDbEntity
  8
Layer
100
AcDbPolyline
 90
5
 70
0
 10
126.90789473684214
 20
55.78027342488993
 10
116.90789473684214
 20
55.78027342488993
 10
116.90789473684214
 20
65.78027342488993
 10
126.90789473684214
 20
65.78027342488993
 10
126.90789473684214
 20
55.78027342488993
  0
LINE
  5
AC
330
17
100
AcDbEntity
  8
Layer
100
AcDbLine
 10
121.90789473684214
 20
99.82206691362435
 30
0.0
 11
121.90789473684214
 21
88.82206691362435
 31
0.0
  0
LWPOLYLINE
  5
AD
330
17
100
AcDbEntity
  8
Layer
100
AcDbPolyline
 90
5
 70
0
 10
126.90789473684214
 20
89.32206691362435
 10
116.90789473684214
 20
89.32206691362435
 10
116.90789473684214
 20
99.32206691362435
 10
126.90789473684214
 20
99.32206691362435
 10
126.90789473684214
 20
89.32206691362435
  0
LINE
  5
AE
330
17
100
AcDbEntity
  8
Layer
100
AcDbLine
 10
121.90789473684214
 20
133.3638604023588
 30
0.0
 11
121.90789473684214
 21
122.3638604023588
 31
0.0
  0
LWPOLYLINE
  5
AF
330
17
100
AcDbEntity
  8
Layer
100
AcDbPolyline
 90
5
 70
0
 10
126.90789473684214
 20
122.8638604023588
 10
116.90789473684214
 20
122.8638604023588
 10
116.90789473684214
 20
132.8638604023588
 10
126.90789473684214
 20
132.8638604023588
 10
126.90789473684214
 20
122.8638604023588
  0
LINE
  5
B0
330
17
100
AcDbEntity
  8
Layer
100
AcDbLine
 10
611.9078947368421
 20
132.36044416519627
 30
0.0
 11
611.9078947368421
 21
136.36044416519627
 31
0.0
  0
LINE
  5
B1
330
17
100
AcDbEntity
  8
Layer
100
AcDbLine
 10
611.9078947368421
 20
28.002629019036334
 30
0.0
 11
611.9078947368421
 21
24.002629019036334
 31
0.0
  0
LINE
  5
B2
330
17
100
AcDbEntity
  8
Layer
100
AcDbLine
 10
611.9078947368421
 20
53.174192048268324
 30
0.0
 11
611.9078947368421
 21
42.174192048268324
 31
0.0
  0
LWPOLYLINE
  5
B3
330
17
100
AcDbEntity
  8
Layer
100
AcDbPolyline
 90
5
 70
0
 10
616.9078947368421
 20
42.674192048268324
 10
606.9078947368421
 20
42.674192048268324
 10
606.9078947368421
 20
52.674192048268324
 10
616.9078947368421
 20
52.674192048268324
 10
616.9078947368421
 20
42.674192048268324
  0
LINE
  5
B4
330
17
100
AcDbEntity
  8
Layer
100
AcDbLine
 10
611.9078947368421
 20
85.68153659211632
 30
0.0
 11
611.9078947368421
 21
74.68153659211632
 31
0.0
  0
LWPOLYLINE
  5
B5
330
17
100
AcDbEntity
  8
Layer
100
AcDbPolyline
 90
5
 70
0
 10
616.9078947368421
 20
75.18153659211632
 10
606.9078947368421
 20
75.18153659211632
 10
606.9078947368421
 20
85.18153659211632
 10
616.9078947368421
 20
85.18153659211632
 10
616.9078947368421
 20
75.18153659211632
  0
LINE
  5
B6
330
17
100
AcDbEntity
  8
Layer
100
AcDbLine
 10
611.9078947368421
 20
118.1888811359643
 30
0.0
 11
611.9078947368421
 21
107.1888811359643
 31
0.0
  0
LWPOLYLINE
  5
B7
330
17
100
AcDbEntity
  8
Layer
100
AcDbPolyline
 90
5
 70
0
 10
616.9078947368421
 20
107.6888811359643
 10
606.9078947368421
 20
107.6888811359643
 10
606.9078947368421
 20
117.6888811359643
 10
616.9078947368421
 20
117.6888811359643
 10
616.9078947368421
 20
107.6888811359643
  0
ENDSEC
  0
SECTION
  2
OBJECTS
  0
DICTIONARY
  5
A
330
0
100
AcDbDictionary
280
0
281
1
  3
ACAD_COLOR
350
B
  3
ACAD_GROUP
350
C
  3
ACAD_LAYOUT
350
D
  3
ACAD_MATERIAL
350
E
  3
ACAD_MLEADERSTYLE
350
F
  3
ACAD_MLINESTYLE
350
10
  3
ACAD_PLOTSETTINGS
350
11
  3
ACAD_PLOTSTYLENAME
350
12
  3
ACAD_SCALELIST
350
14
  3
ACAD_TABLESTYLE
350
15
  3
ACAD_VISUALSTYLE
350
16
  3
EZDXF_META
350
2D
  0
DICTIONARY
  5
B
330
A
100
AcDbDictionary
280
0
281
1
  0
DICTIONARY
  5
C
330
A
100
AcDbDictionary
280
0
281
1
  0
DICTIONARY
  5
D
330
A
100
AcDbDictionary
280
0
281
1
  3
Model
350
1A
  3
Layout1
350
1E
  0
DICTIONARY
  5
E
330
A
100
AcDbDictionary
280
0
281
1
  3
ByBlock
350
1F
  3
ByLayer
350
20
  3
Global
350
21
  0
DICTIONARY
  5
F
330
A
100
AcDbDictionary
280
0
281
1
  3
Standard
350
2C
  0
DICTIONARY
  5
10
330
A
100
AcDbDictionary
280
0
281
1
  3
Standard
350
22
  0
DICTIONARY
  5
11
330
A
100
AcDbDictionary
280
0
281
1
  0
ACDBDICTIONARYWDFLT
  5
12
330
A
100
AcDbDictionary
280
0
281
1
  3
Normal
350
13
100
AcDbDictionaryWithDefault
340
13
  0
ACDBPLACEHOLDER
  5
13
330
12
  0
DICTIONARY
  5
14
330
A
100
AcDbDictionary
280
0
281
1
  0
DICTIONARY
  5
15
330
A
100
AcDbDictionary
280
0
281
1
  0
DICTIONARY
  5
16
330
A
100
AcDbDictionary
280
0
281
1
  3
2dWireframe
350
5A
  3
Basic
350
5B
  3
Brighten
350
5C
  3
ColorChange
350
5D
  3
Conceptual
350
5E
  3
Dim
350
5F
  3
EdgeColorOff
350
60
  3
Facepattern
350
61
  3
Flat
350
62
  3
FlatWithEdges
350
63
  3
Gouraud
350
64
  3
GouraudWithEdges
350
65
  3
Hidden
350
66
  3
JitterOff
350
67
  3
Linepattern
350
68
  3
Modeling
350
69
  3
OverhangOff
350
6A
  3
Realistic
350
6B
  3
Shaded
350
6C
  3
Shaded with edges
350
6D
  3
Shades of Gray
350
6E
  3
Sketchy
350
6F
  3
Thicken
350
70
  3
Wireframe
350
71
  3
X-Ray
350
72
  0
LAYOUT
  5
1A
330
D
100
AcDbPlotSettings
  1

  2
Adobe PDF
  4
A3
  6

 40
7.5
 41
20.0
 42
7.5
 43
20.0
 44
420.0
 45
297.0
 46
0.0
 47
0.0
 48
0.0
 49
0.0
140
0.0
141
0.0
142
1.0
143
1.0
 70
1024
 72
1
 73
0
 74
5
  7

 75
16
 76
0
 77
2
 78
300
147
1.0
148
0.0
149
0.0
100
AcDbLayout
  1
Model
 70
1
 71
0
 10
0.0
 20
0.0
 11
420.0
 21
297.0
 12
0.0
 22
0.0
 32
0.0
 14
1e+20
 24
1e+20
 34
1e+20
 15
-1e+20
 25
-1e+20
 35
-1e+20
146
0.0
 13
0.0
 23
0.0
 33
0.0
 16
1.0
 26
0.0
 36
0.0
 17
0.0
 27
1.0
 37
0.0
 76
1
330
17
  0
LAYOUT
  5
1E
330
D
100
AcDbPlotSettings
  1

  2
Adobe PDF
  4
A3
  6

 40
7.5
 41
20.0
 42
7.5
 43
20.0
 44
420.0
 45
297.0
 46
0.0
 47
0.0
 48
0.0
 49
0.0
140
0.0
141
0.0
142
1.0
143
1.0
 70
0
 72
1
 73
0
 74
5
  7

 75
16
 76
0
 77
2
 78
300
147
1.0
148
0.0
149
0.0
100
AcDbLayout
  1
Layout1
 70
1
 71
1
 10
0.0
 20
0.0
 11
420.0
 21
297.0
 12
0.0
 22
0.0
 32
0.0
 14
1e+20
 24
1e+20
 34
1e+20
 15
-1e+20
 25
-1e+20
 35
-1e+20
146
0.0
 13
0.0
 23
0.0
 33
0.0
 16
1.0
 26
0.0
 36
0.0
 17
0.0
 27
1.0
 37
0.0
 76
1
330
1B
  0
MATERIAL
  5
1F
102
{ACAD_REACTORS
330
E
102
}
330
E
100
AcDbMaterial
  1
ByBlock
  2

 70
0
 40
1.0
 71
1
 41
1.0
 91
-1023410177
 42
1.0
 72
1
  3

 73
1
 74
1
 75
1
 44
0.5
 73
0
 45
1.0
 46
1.0
 77
1
  4

 78
1
 79
1
170
1
 48
1.0
171
1
  6

172
1
173
1
174
1
140
1.0
141
1.0
175
1
  7

176
1
177
1
178
1
143
1.0
179
1
  8

270
1
271
1
272
1
145
1.0
146
1.0
273
1
  9

274
1
275
1
276
1
 42
1.0
 72
1
  3

 73
1
 74
1
 75
1
 94
63
  0
MATERIAL
  5
20
102
{ACAD_REACTORS
330
E
102
}
330
E
100
AcDbMaterial
  1
ByLayer
  2

 70
0
 40
1.0
 71
1
 41
1.0
 91
-1023410177
 42
1.0
 72
1
  3

 73
1
 74
1
 75
1
 44
0.5
 73
0
 45
1.0
 46
1.0
 77
1
  4

 78
1
 79
1
170
1
 48
1.0
171
1
  6

172
1
173
1
174
1
140
1.0
141
1.0
175
1
  7

176
1
177
1
178
1
143
1.0
179
1
  8

270
1
271
1
272
1
145
1.0
146
1.0
273
1
  9

274
1
275
1
276
1
 42
1.0
 72
1
  3

 73
1
 74
1
 75
1
 94
63
  0
MATERIAL
  5
21
102
{ACAD_REACTORS
330
E
102
}
330
E
100
AcDbMaterial
  1
Global
  2

 70
0
 40
1.0
 71
1
 41
1.0
 91
-1023410177
 42
1.0
 72
1
  3

 73
1
 74
1
 75
1
 44
0.5
 73
0
 45
1.0
 46
1.0
 77
1
  4

 78
1
 79
1
170
1
 48
1.0
171
1
  6

172
1
173
1
174
1
140
1.0
141
1.0
175
1
  7

176
1
177
1
178
1
143
1.0
179
1
  8

270
1
271
1
272
1
145
1.0
146
1.0
273
1
  9

274
1
275
1
276
1
 42
1.0
 72
1
  3

 73
1
 74
1
 75
1
 94
63
  0
MLINESTYLE
  5
22
102
{ACAD_REACTORS
330
10
102
}
330
10
100
AcDbMlineStyle
  2
Standard
 70
0
  3

 62
256
 51
90.0
 52
90.0
 71
2
 49
0.5
 62
256
  6
BYLAYER
 49
-0.5
 62
256
  6
BYLAYER
  0
MLEADERSTYLE
  5
2C
102
{ACAD_REACTORS
330
F
102
}
330
F
100
AcDbMLeaderStyle
179
2
170
2
171
1
172
0
 90
2
 40
0.0
 41
0.0
173
1
 91
-1056964608
 92
-2
290
1
 42
2.0
291
1
 43
8.0
  3
Standard
 44
4.0
300

342
29
174
1
175
1
176
0
178
1
 93
-1056964608
 45
4.0
292
0
297
0
 46
4.0
 94
-1056964608
 47
1.0
 49
1.0
140
1.0
294
1
141
0.0
177
0
142
1.0
295
0
296
0
143
3.75
271
0
272
9
273
9
  0
DICTIONARY
  5
2D
330
A
100
AcDbDictionary
281
1
  3
CREATED_BY_EZDXF
350
2E
  3
WRITTEN_BY_EZDXF
350
BA
  0
DICTIONARYVAR
  5
2E
330
2D
100
DictionaryVariables
280
0
  1
1.1.0 @ 2024-03-26T01:33:48.188015+00:00
  0
VISUALSTYLE
  5
5A
102
{ACAD_REACTORS
330
16
102
}
330
16
100
AcDbVisualStyle
  2
2dWireframe
 70
4
 90
0
 40
0.6
 62
7
290
0
291
0
  0
VISUALSTYLE
  5
5B
102
{ACAD_REACTORS
330
16
102
}
330
16
100
AcDbVisualStyle
  2
Basic
 70
7
 90
1
 40
0.6
 62
7
290
0
291
1
  0
VISUALSTYLE
  5
5C
102
{ACAD_REACTORS
330
16
102
}
330
16
100
AcDbVisualStyle
  2
Brighten
 70
12
 90
2
 40
0.6
 62
7
290
0
291
1
  0
VISUALSTYLE
  5
5D
102
{ACAD_REACTORS
330
16
102
}
330
16
100
AcDbVisualStyle
  2
ColorChange
 70
16
 90
2
 40
0.6
 62
8
290
0
291
1
  0
VISUALSTYLE
  5
5E
102
{ACAD_REACTORS
330
16
102
}
330
16
100
AcDbVisualStyle
  2
Conceptual
 70
9
 90
3
 40
0.6
 62
7
290
0
291
0
  0
VISUALSTYLE
  5
5F
102
{ACAD_REACTORS
330
16
102
}
330
16
100
AcDbVisualStyle
  2
Dim
 70
11
 90
2
 40
0.6
 62
7
290
0
291
1
  0
VISUALSTYLE
  5
60
102
{ACAD_REACTORS
330
16
102
}
330
16
100
AcDbVisualStyle
  2
EdgeColorOff
 70
22
 90
2
 40
0.6
 62
7
290
0
291
1
  0
VISUALSTYLE
  5
61
102
{ACAD_REACTORS
330
16
102
}
330
16
100
AcDbVisualStyle
  2
Facepattern
 70
15
 90
2
 40
0.6
 62
7
290
0
291
1
  0
VISUALSTYLE
  5
62
102
{ACAD_REACTORS
330
16
102
}
330
16
100
AcDbVisualStyle
  2
Flat
 70
0
 90
2
 40
0.6
 62
7
290
0
291
1
  0
VISUALSTYLE
  5
63
102
{ACAD_REACTORS
330
16
102
}
330
16
100
AcDbVisualStyle
  2
FlatWithEdges
 70
1
 90
2
 40
0.6
 62
7
290
0
291
1
  0
VISUALSTYLE
  5
64
102
{ACAD_REACTORS
330
16
102
}
330
16
100
AcDbVisualStyle
  2
Gouraud
 70
2
 90
2
 40
0.6
 62
7
290
0
291
1
  0
VISUALSTYLE
  5
65
102
{ACAD_REACTORS
330
16
102
}
330
16
100
AcDbVisualStyle
  2
GouraudWithEdges
 70
3
 90
2
 40
0.6
 62
7
290
0
291
1
  0
VISUALSTYLE
  5
66
102
{ACAD_REACTORS
330
16
102
}
330
16
100
AcDbVisualStyle
  2
Hidden
 70
6
 90
1
 40
0.6
 62
7
290
0
291
0
  0
VISUALSTYLE
  5
67
102
{ACAD_REACTORS
330
16
102
}
330
16
100
AcDbVisualStyle
  2
JitterOff
 70
20
 90
2
 40
0.6
 62
7
290
0
291
1
  0
VISUALSTYLE
  5
68
102
{ACAD_REACTORS
330
16
102
}
330
16
100
AcDbVisualStyle
  2
Linepattern
 70
14
 90
2
 40
0.6
 62
7
290
0
291
1
  0
VISUALSTYLE
  5
69
102
{ACAD_REACTORS
330
16
102
}
330
16
100
AcDbVisualStyle
  2
Modeling
 70
10
 90
2
 40
0.6
 62
7
290
0
291
0
  0
VISUALSTYLE
  5
6A
102
{ACAD_REACTORS
330
16
102
}
330
16
100
AcDbVisualStyle
  2
OverhangOff
 70
21
 90
2
 40
0.6
 62
7
290
0
291
1
  0
VISUALSTYLE
  5
6B
102
{ACAD_REACTORS
330
16
102
}
330
16
100
AcDbVisualStyle
  2
Realistic
 70
8
 90
2
 40
0.6
 62
7
290
0
291
0
  0
VISUALSTYLE
  5
6C
102
{ACAD_REACTORS
330
16
102
}
330
16
100
AcDbVisualStyle
  2
Shaded
 70
27
 90
2
 40
0.6
 62
7
290
0
291
0
  0
VISUALSTYLE
  5
6D
102
{ACAD_REACTORS
330
16
102
}
330
16
100
AcDbVisualStyle
  2
Shaded with edges
 70
26
 90
2
 40
0.6
 62
7
290
0
291
0
  0
VISUALSTYLE
  5
6E
102
{ACAD_REACTORS
330
16
102
}
330
16
100
AcDbVisualStyle
  2
Shades of Gray
 70
23
 90
2
 40
0.6
 62
7
290
0
291
0
  0
VISUALSTYLE
  5
6F
102
{ACAD_REACTORS
330
16
102
}
330
16
100
AcDbVisualStyle
  2
Sketchy
 70
24
 90
1
 40
0.6
 62
7
290
0
291
0
  0
VISUALSTYLE
  5
70
102
{ACAD_REACTORS
330
16
102
}
330
16
100
AcDbVisualStyle
  2
Thicken
 70
13
 90
2
 40
0.6
 62
7
290
0
291
1
  0
VISUALSTYLE
  5
71
102
{ACAD_REACTORS
330
16
102
}
330
16
100
AcDbVisualStyle
  2
Wireframe
 70
5
 90
0
 40
0.6
 62
7
290
0
291
0
  0
VISUALSTYLE
  5
72
102
{ACAD_REACTORS
330
16
102
}
330
16
100
AcDbVisualStyle
  2
X-Ray
 70
25
 90
2
 40
0.5
 62
7
290
0
291
0
  0
DICTIONARYVAR
  5
BA
330
2D
100
DictionaryVariables
280
0
  1
1.1.0 @ 2024-03-26T01:33:48.213434+00:00
  0
ENDSEC
  0
EOF
