  0
SECTION
  2
HEADER
  9
$ACADVER
  1
AC1021
  9
$ACADMAINTVER
 70
25
  9
$DWGCODEPAGE
  3
ANSI_1252
  9
$LASTSAVEDBY
  1
ezdxf
  9
$INSBASE
 10
0.0
 20
0.0
 30
0.0
  9
$EXTMIN
 10
1e+20
 20
1e+20
 30
1e+20
  9
$EXTMAX
 10
-1e+20
 20
-1e+20
 30
-1e+20
  9
$LIMMIN
 10
0.0
 20
0.0
  9
$LIMMAX
 10
420.0
 20
297.0
  9
$ORTHOMODE
 70
0
  9
$REGENMODE
 70
1
  9
$FILLMODE
 70
1
  9
$QTEXTMODE
 70
0
  9
$MIRRTEXT
 70
1
  9
$LTSCALE
 40
1.0
  9
$ATTMODE
 70
1
  9
$TEXTSIZE
 40
2.5
  9
$TRACEWID
 40
1.0
  9
$TEXTSTYLE
  7
OpenSans
  9
$CLAYER
  8
0
  9
$CELTYPE
  6
ByLayer
  9
$CECOLOR
 62
256
  9
$CELTSCALE
 40
1.0
  9
$DISPSILH
 70
0
  9
$DIMSCALE
 40
1.0
  9
$DIMASZ
 40
0.175
  9
$DIMEXO
 40
0.125
  9
$DIMDLI
 40
3.75
  9
$DIMRND
 40
0.0
  9
$DIMDLE
 40
0.0
  9
$DIMEXE
 40
0.375
  9
$DIMTP
 40
0.0
  9
$DIMTM
 40
0.0
  9
$DIMTXT
 40
0.25
  9
$DIMCEN
 40
2.5
  9
$DIMTSZ
 40
0.0
  9
$DIMTOL
 70
0
  9
$DIMLIM
 70
0
  9
$DIMTIH
 70
0
  9
$DIMTOH
 70
0
  9
$DIMSE1
 70
0
  9
$DIMSE2
 70
0
  9
$DIMTAD
 70
1
  9
$DIMZIN
 70
12
  9
$DIMBLK
  1
ARCHTICK
  9
$DIMASO
 70
1
  9
$DIMSHO
 70
1
  9
$DIMPOST
  1

  9
$DIMAPOST
  1

  9
$DIMALT
 70
0
  9
$DIMALTD
 70
3
  9
$DIMALTF
 40
0.03937007874
  9
$DIMLFAC
 40
100.0
  9
$DIMTOFL
 70
1
  9
$DIMTVP
 40
0.0
  9
$DIMTIX
 70
0
  9
$DIMSOXD
 70
0
  9
$DIMSAH
 70
0
  9
$DIMBLK1
  1

  9
$DIMBLK2
  1

  9
$DIMSTYLE
  2
EZDXF
  9
$DIMCLRD
 70
0
  9
$DIMCLRE
 70
0
  9
$DIMCLRT
 70
0
  9
$DIMTFAC
 40
0.5
  9
$DIMGAP
 40
0.1
  9
$DIMJUST
 70
0
  9
$DIMSD1
 70
0
  9
$DIMSD2
 70
0
  9
$DIMTOLJ
 70
0
  9
$DIMTZIN
 70
8
  9
$DIMALTZ
 70
0
  9
$DIMALTTZ
 70
0
  9
$DIMUPT
 70
1
  9
$DIMDEC
 70
2
  9
$DIMTDEC
 70
2
  9
$DIMALTU
 70
2
  9
$DIMALTTD
 70
3
  9
$DIMTXSTY
  7
OpenSansCondensed-Light
  9
$DIMAUNIT
 70
0
  9
$DIMADEC
 70
2
  9
$DIMALTRND
 40
0.0
  9
$DIMAZIN
 70
3
  9
$DIMDSEP
 70
46
  9
$DIMATFIT
 70
3
  9
$DIMFRAC
 70
0
  9
$DIMLDRBLK
  1

  9
$DIMLUNIT
 70
2
  9
$DIMLWD
 70
-2
  9
$DIMLWE
 70
-2
  9
$DIMTMOVE
 70
2
  9
$DIMFXL
 40
1.0
  9
$DIMFXLON
 70
0
  9
$DIMJOGANG
 40
0.785398163397
  9
$DIMTFILL
 70
0
  9
$DIMTFILLCLR
 70
0
  9
$DIMARCSYM
 70
0
  9
$DIMLTYPE
  6

  9
$DIMLTEX1
  6

  9
$DIMLTEX2
  6

  9
$LUNITS
 70
2
  9
$LUPREC
 70
4
  9
$SKETCHINC
 40
1.0
  9
$FILLETRAD
 40
10.0
  9
$AUNITS
 70
0
  9
$AUPREC
 70
2
  9
$MENU
  1
.
  9
$ELEVATION
 40
0.0
  9
$PELEVATION
 40
0.0
  9
$THICKNESS
 40
0.0
  9
$LIMCHECK
 70
0
  9
$CHAMFERA
 40
0.0
  9
$CHAMFERB
 40
0.0
  9
$CHAMFERC
 40
0.0
  9
$CHAMFERD
 40
0.0
  9
$SKPOLY
 70
0
  9
$TDCREATE
 40
2460396.440150463
  9
$TDUCREATE
 40
2458532.153996898
  9
$TDUPDATE
 40
2460396.440150463
  9
$TDUUPDATE
 40
2458532.1544311
  9
$TDINDWG
 40
0.0
  9
$TDUSRTIMER
 40
0.0
  9
$USRTIMER
 70
1
  9
$ANGBASE
 50
0.0
  9
$ANGDIR
 70
0
  9
$PDMODE
 70
0
  9
$PDSIZE
 40
0.0
  9
$PLINEWID
 40
0.0
  9
$SPLFRAME
 70
0
  9
$SPLINETYPE
 70
6
  9
$SPLINESEGS
 70
8
  9
$HANDSEED
  5
BB
  9
$SURFTAB1
 70
6
  9
$SURFTAB2
 70
6
  9
$SURFTYPE
 70
6
  9
$SURFU
 70
6
  9
$SURFV
 70
6
  9
$UCSBASE
  2

  9
$UCSNAME
  2

  9
$UCSORG
 10
0.0
 20
0.0
 30
0.0
  9
$UCSXDIR
 10
1.0
 20
0.0
 30
0.0
  9
$UCSYDIR
 10
0.0
 20
1.0
 30
0.0
  9
$UCSORTHOREF
  2

  9
$UCSORTHOVIEW
 70
0
  9
$UCSORGTOP
 10
0.0
 20
0.0
 30
0.0
  9
$UCSORGBOTTOM
 10
0.0
 20
0.0
 30
0.0
  9
$UCSORGLEFT
 10
0.0
 20
0.0
 30
0.0
  9
$UCSORGRIGHT
 10
0.0
 20
0.0
 30
0.0
  9
$UCSORGFRONT
 10
0.0
 20
0.0
 30
0.0
  9
$UCSORGBACK
 10
0.0
 20
0.0
 30
0.0
  9
$PUCSBASE
  2

  9
$PUCSNAME
  2

  9
$PUCSORG
 10
0.0
 20
0.0
 30
0.0
  9
$PUCSXDIR
 10
1.0
 20
0.0
 30
0.0
  9
$PUCSYDIR
 10
0.0
 20
1.0
 30
0.0
  9
$PUCSORTHOREF
  2

  9
$PUCSORTHOVIEW
 70
0
  9
$PUCSORGTOP
 10
0.0
 20
0.0
 30
0.0
  9
$PUCSORGBOTTOM
 10
0.0
 20
0.0
 30
0.0
  9
$PUCSORGLEFT
 10
0.0
 20
0.0
 30
0.0
  9
$PUCSORGRIGHT
 10
0.0
 20
0.0
 30
0.0
  9
$PUCSORGFRONT
 10
0.0
 20
0.0
 30
0.0
  9
$PUCSORGBACK
 10
0.0
 20
0.0
 30
0.0
  9
$USERI1
 70
0
  9
$USERI2
 70
0
  9
$USERI3
 70
0
  9
$USERI4
 70
0
  9
$USERI5
 70
0
  9
$USERR1
 40
0.0
  9
$USERR2
 40
0.0
  9
$USERR3
 40
0.0
  9
$USERR4
 40
0.0
  9
$USERR5
 40
0.0
  9
$WORLDVIEW
 70
1
  9
$SHADEDGE
 70
3
  9
$SHADEDIF
 70
70
  9
$TILEMODE
 70
1
  9
$MAXACTVP
 70
64
  9
$PINSBASE
 10
0.0
 20
0.0
 30
0.0
  9
$PLIMCHECK
 70
0
  9
$PEXTMIN
 10
1e+20
 20
1e+20
 30
1e+20
  9
$PEXTMAX
 10
-1e+20
 20
-1e+20
 30
-1e+20
  9
$PLIMMIN
 10
0.0
 20
0.0
  9
$PLIMMAX
 10
420.0
 20
297.0
  9
$UNITMODE
 70
0
  9
$VISRETAIN
 70
1
  9
$PLINEGEN
 70
0
  9
$PSLTSCALE
 70
1
  9
$TREEDEPTH
 70
3020
  9
$CMLSTYLE
  2
Standard
  9
$CMLJUST
 70
0
  9
$CMLSCALE
 40
20.0
  9
$PROXYGRAPHICS
 70
1
  9
$MEASUREMENT
 70
1
  9
$CELWEIGHT
370
-1
  9
$ENDCAPS
280
0
  9
$JOINSTYLE
280
0
  9
$LWDISPLAY
290
0
  9
$INSUNITS
 70
6
  9
$HYPERLINKBASE
  1

  9
$STYLESHEET
  1

  9
$XEDIT
290
1
  9
$CEPSNTYPE
380
0
  9
$PSTYLEMODE
290
1
  9
$FINGERPRINTGUID
  2
{6874DE9D-956F-47C5-AA59-88A8D4327B3D}
  9
$VERSIONGUID
  2
{71D6B909-CDEB-45C6-9BDE-ED023C975106}
  9
$EXTNAMES
290
1
  9
$PSVPSCALE
 40
0.0
  9
$OLESTARTUP
290
0
  9
$SORTENTS
280
127
  9
$INDEXCTL
280
0
  9
$HIDETEXT
280
1
  9
$XCLIPFRAME
290
0
  9
$HALOGAP
280
0
  9
$OBSCOLOR
 70
257
  9
$OBSLTYPE
280
0
  9
$INTERSECTIONDISPLAY
280
0
  9
$INTERSECTIONCOLOR
 70
257
  9
$DIMASSOC
280
2
  9
$PROJECTNAME
  1

  9
$CAMERADISPLAY
290
0
  9
$LENSLENGTH
 40
50.0
  9
$CAMERAHEIGHT
 40
0.0
  9
$STEPSPERSEC
 40
24.0
  9
$STEPSIZE
 40
100.0
  9
$3DDWFPREC
 40
2.0
  9
$PSOLWIDTH
 40
0.005
  9
$PSOLHEIGHT
 40
0.08
  9
$LOFTANG1
 40
1.570796326795
  9
$LOFTANG2
 40
1.570796326795
  9
$LOFTMAG1
 40
0.0
  9
$LOFTMAG2
 40
0.0
  9
$LOFTPARAM
 70
7
  9
$LOFTNORMALS
280
1
  9
$LATITUDE
 40
37.795
  9
$LONGITUDE
 40
-122.394
  9
$NORTHDIRECTION
 40
0.0
  9
$TIMEZONE
 70
-8000
  9
$LIGHTGLYPHDISPLAY
280
1
  9
$TILEMODELIGHTSYNCH
280
1
  9
$CMATERIAL
347
20
  9
$SOLIDHIST
280
0
  9
$SHOWHIST
280
1
  9
$DWFFRAME
280
2
  9
$DGNFRAME
280
2
  9
$REALWORLDSCALE
290
1
  9
$INTERFERECOLOR
 62
256
  9
$CSHADOW
280
0
  9
$SHADOWPLANELOCATION
 40
0.0
  0
ENDSEC
  0
SECTION
  2
CLASSES
  0
CLASS
  1
ACDBDICTIONARYWDFLT
  2
AcDbDictionaryWithDefault
  3
ObjectDBX Classes
 90
0
 91
0
280
0
281
0
  0
CLASS
  1
SUN
  2
AcDbSun
  3
SCENEOE
 90
1153
 91
0
280
0
281
0
  0
CLASS
  1
VISUALSTYLE
  2
AcDbVisualStyle
  3
ObjectDBX Classes
 90
4095
 91
0
280
0
281
0
  0
CLASS
  1
MATERIAL
  2
AcDbMaterial
  3
ObjectDBX Classes
 90
1153
 91
0
280
0
281
0
  0
CLASS
  1
SCALE
  2
AcDbScale
  3
ObjectDBX Classes
 90
1153
 91
0
280
0
281
0
  0
CLASS
  1
TABLESTYLE
  2
AcDbTableStyle
  3
ObjectDBX Classes
 90
4095
 91
0
280
0
281
0
  0
CLASS
  1
MLEADERSTYLE
  2
AcDbMLeaderStyle
  3
ACDB_MLEADERSTYLE_CLASS
 90
4095
 91
0
280
0
281
0
  0
CLASS
  1
DICTIONARYVAR
  2
AcDbDictionaryVar
  3
ObjectDBX Classes
 90
0
 91
0
280
0
281
0
  0
CLASS
  1
CELLSTYLEMAP
  2
AcDbCellStyleMap
  3
ObjectDBX Classes
 90
1152
 91
0
280
0
281
0
  0
CLASS
  1
MENTALRAYRENDERSETTINGS
  2
AcDbMentalRayRenderSettings
  3
SCENEOE
 90
1024
 91
0
280
0
281
0
  0
CLASS
  1
ACDBDETAILVIEWSTYLE
  2
AcDbDetailViewStyle
  3
ObjectDBX Classes
 90
1025
 91
0
280
0
281
0
  0
CLASS
  1
ACDBSECTIONVIEWSTYLE
  2
AcDbSectionViewStyle
  3
ObjectDBX Classes
 90
1025
 91
0
280
0
281
0
  0
CLASS
  1
RASTERVARIABLES
  2
AcDbRasterVariables
  3
ISM
 90
0
 91
0
280
0
281
0
  0
CLASS
  1
LAYOUT
  2
AcDbLayout
  3
ObjectDBX Classes
 90
0
 91
0
280
0
281
0
  0
CLASS
  1
ACDBPLACEHOLDER
  2
AcDbPlaceHolder
  3
ObjectDBX Classes
 90
0
 91
0
280
0
281
0
  0
ENDSEC
  0
SECTION
  2
TABLES
  0
TABLE
  2
VPORT
  5
8
330
0
100
AcDbSymbolTable
 70
1
  0
VPORT
  5
23
330
8
100
AcDbSymbolTableRecord
100
AcDbViewportTableRecord
  2
*Active
 70
0
 10
0.0
 20
0.0
 11
1.0
 21
1.0
 12
0.0
 22
0.0
 13
0.0
 23
0.0
 14
0.5
 24
0.5
 15
0.5
 25
0.5
 16
0.0
 26
0.0
 36
1.0
 17
0.0
 27
0.0
 37
0.0
 40
1000.0
 41
1.34
 42
50.0
 43
0.0
 44
0.0
 50
0.0
 51
0.0
 71
0
 72
1000
 73
1
 74
3
 75
0
 76
0
 77
0
 78
0
281
0
 65
0
146
0.0
  0
ENDTAB
  0
TABLE
  2
LTYPE
  5
2
330
0
100
AcDbSymbolTable
 70
21
  0
LTYPE
  5
24
330
2
100
AcDbSymbolTableRecord
100
AcDbLinetypeTableRecord
  2
ByBlock
 70
0
  3

 72
65
 73
0
 40
0.0
  0
LTYPE
  5
25
330
2
100
AcDbSymbolTableRecord
100
AcDbLinetypeTableRecord
  2
ByLayer
 70
0
  3

 72
65
 73
0
 40
0.0
  0
LTYPE
  5
26
330
2
100
AcDbSymbolTableRecord
100
AcDbLinetypeTableRecord
  2
Continuous
 70
0
  3

 72
65
 73
0
 40
0.0
  0
LTYPE
  5
2F
330
2
100
AcDbSymbolTableRecord
100
AcDbLinetypeTableRecord
  2
CENTER
 70
0
  3
Center ____ _ ____ _ ____ _ ____ _ ____ _ ____
 72
65
 73
4
 40
5.08
 49
3.175
 74
0
 49
-0.635
 74
0
 49
0.635
 74
0
 49
-0.635
 74
0
  0
LTYPE
  5
30
330
2
100
AcDbSymbolTableRecord
100
AcDbLinetypeTableRecord
  2
CENTERX2
 70
0
  3
Center (2x) ________  __  ________  __  ________
 72
65
 73
4
 40
8.89
 49
6.35
 74
0
 49
-0.635
 74
0
 49
1.27
 74
0
 49
-0.635
 74
0
  0
LTYPE
  5
31
330
2
100
AcDbSymbolTableRecord
100
AcDbLinetypeTableRecord
  2
CENTER2
 70
0
  3
Center (.5x) ____ _ ____ _ ____ _ ____ _ ____
 72
65
 73
4
 40
2.54
 49
1.587
 74
0
 49
-0.318
 74
0
 49
0.318
 74
0
 49
-0.318
 74
0
  0
LTYPE
  5
32
330
2
100
AcDbSymbolTableRecord
100
AcDbLinetypeTableRecord
  2
DASHED
 70
0
  3
Dashed __ __ __ __ __ __ __ __ __ __ __ __ __ _
 72
65
 73
2
 40
1.524
 49
1.27
 74
0
 49
-0.254
 74
0
  0
LTYPE
  5
33
330
2
100
AcDbSymbolTableRecord
100
AcDbLinetypeTableRecord
  2
DASHEDX2
 70
0
  3
Dashed (2x) ____  ____  ____  ____  ____  ____
 72
65
 73
2
 40
3.048
 49
2.54
 74
0
 49
-0.508
 74
0
  0
LTYPE
  5
34
330
2
100
AcDbSymbolTableRecord
100
AcDbLinetypeTableRecord
  2
DASHED2
 70
0
  3
Dashed (.5x) _ _ _ _ _ _ _ _ _ _ _ _ _ _
 72
65
 73
2
 40
0.762
 49
0.635
 74
0
 49
-0.127
 74
0
  0
LTYPE
  5
35
330
2
100
AcDbSymbolTableRecord
100
AcDbLinetypeTableRecord
  2
PHANTOM
 70
0
  3
Phantom ______  __  __  ______  __  __  ______
 72
65
 73
6
 40
6.35
 49
3.175
 74
0
 49
-0.635
 74
0
 49
0.635
 74
0
 49
-0.635
 74
0
 49
0.635
 74
0
 49
-0.635
 74
0
  0
LTYPE
  5
36
330
2
100
AcDbSymbolTableRecord
100
AcDbLinetypeTableRecord
  2
PHANTOMX2
 70
0
  3
Phantom (2x)____________    ____    ____    ____________
 72
65
 73
6
 40
10.795
 49
6.35
 74
0
 49
-0.635
 74
0
 49
1.27
 74
0
 49
-0.635
 74
0
 49
1.27
 74
0
 49
-0.635
 74
0
  0
LTYPE
  5
37
330
2
100
AcDbSymbolTableRecord
100
AcDbLinetypeTableRecord
  2
PHANTOM2
 70
0
  3
Phantom (.5x) ___ _ _ ___ _ _ ___ _ _ ___ _ _ ___
 72
65
 73
6
 40
3.175
 49
1.587
 74
0
 49
-0.318
 74
0
 49
0.318
 74
0
 49
-0.318
 74
0
 49
0.318
 74
0
 49
-0.318
 74
0
  0
LTYPE
  5
38
330
2
100
AcDbSymbolTableRecord
100
AcDbLinetypeTableRecord
  2
DASHDOT
 70
0
  3
Dash dot __ . __ . __ . __ . __ . __ . __ . __
 72
65
 73
4
 40
3.556
 49
2.54
 74
0
 49
-0.508
 74
0
 49
0.0
 74
0
 49
-0.508
 74
0
  0
LTYPE
  5
39
330
2
100
AcDbSymbolTableRecord
100
AcDbLinetypeTableRecord
  2
DASHDOTX2
 70
0
  3
Dash dot (2x) ____  .  ____  .  ____  .  ____
 72
65
 73
4
 40
6.096
 49
5.08
 74
0
 49
-0.508
 74
0
 49
0.0
 74
0
 49
-0.508
 74
0
  0
LTYPE
  5
3A
330
2
100
AcDbSymbolTableRecord
100
AcDbLinetypeTableRecord
  2
DASHDOT2
 70
0
  3
Dash dot (.5x) _ . _ . _ . _ . _ . _ . _ . _
 72
65
 73
4
 40
1.778
 49
1.27
 74
0
 49
-0.254
 74
0
 49
0.0
 74
0
 49
-0.254
 74
0
  0
LTYPE
  5
3B
330
2
100
AcDbSymbolTableRecord
100
AcDbLinetypeTableRecord
  2
DOT
 70
0
  3
Dot .  .  .  .  .  .  .  .  .  .  .  .  .  .  .  .
 72
65
 73
2
 40
0.508
 49
0.0
 74
0
 49
-0.508
 74
0
  0
LTYPE
  5
3C
330
2
100
AcDbSymbolTableRecord
100
AcDbLinetypeTableRecord
  2
DOTX2
 70
0
  3
Dot (2x) .    .    .    .    .    .    .    . 
 72
65
 73
2
 40
1.016
 49
0.0
 74
0
 49
-1.016
 74
0
  0
LTYPE
  5
3D
330
2
100
AcDbSymbolTableRecord
100
AcDbLinetypeTableRecord
  2
DOT2
 70
0
  3
Dot (.5) . . . . . . . . . . . . . . . . . . . 
 72
65
 73
2
 40
0.254
 49
0.0
 74
0
 49
-0.254
 74
0
  0
LTYPE
  5
3E
330
2
100
AcDbSymbolTableRecord
100
AcDbLinetypeTableRecord
  2
DIVIDE
 70
0
  3
Divide __ . . __ . . __ . . __ . . __ . . __
 72
65
 73
6
 40
4.064
 49
2.54
 74
0
 49
-0.508
 74
0
 49
0.0
 74
0
 49
-0.508
 74
0
 49
0.0
 74
0
 49
-0.508
 74
0
  0
LTYPE
  5
3F
330
2
100
AcDbSymbolTableRecord
100
AcDbLinetypeTableRecord
  2
DIVIDEX2
 70
0
  3
Divide (2x) ____  . .  ____  . .  ____  . .  ____
 72
65
 73
6
 40
6.604
 49
5.08
 74
0
 49
-0.508
 74
0
 49
0.0
 74
0
 49
-0.508
 74
0
 49
0.0
 74
0
 49
-0.508
 74
0
  0
LTYPE
  5
40
330
2
100
AcDbSymbolTableRecord
100
AcDbLinetypeTableRecord
  2
DIVIDE2
 70
0
  3
Divide(.5x) _ . _ . _ . _ . _ . _ . _ . _
 72
65
 73
6
 40
2.032
 49
1.27
 74
0
 49
-0.254
 74
0
 49
0.0
 74
0
 49
-0.254
 74
0
 49
0.0
 74
0
 49
-0.254
 74
0
  0
ENDTAB
  0
TABLE
  2
LAYER
  5
1
330
0
100
AcDbSymbolTable
 70
3
  0
LAYER
  5
27
330
1
100
AcDbSymbolTableRecord
100
AcDbLayerTableRecord
  2
0
 70
0
 62
7
  6
Continuous
370
-3
390
13
347
21
  0
LAYER
  5
28
330
1
100
AcDbSymbolTableRecord
100
AcDbLayerTableRecord
  2
Defpoints
 70
0
 62
7
  6
Continuous
290
0
370
-3
390
13
347
21
  0
LAYER
  5
8A
330
1
100
AcDbSymbolTableRecord
100
AcDbLayerTableRecord
  2
Layer
 70
0
 62
1
  6
Continuous
370
50
390
13
347
21
  0
ENDTAB
  0
TABLE
  2
STYLE
  5
5
330
0
100
AcDbSymbolTable
 70
26
  0
STYLE
  5
29
330
5
100
AcDbSymbolTableRecord
100
AcDbTextStyleTableRecord
  2
Standard
 70
0
 40
0.0
 41
1.0
 50
0.0
 71
0
 42
2.5
  3
txt
  4

  0
STYLE
  5
41
330
5
100
AcDbSymbolTableRecord
100
AcDbTextStyleTableRecord
  2
OpenSans-Light
 70
0
 40
0.0
 41
1.0
 50
0.0
 71
0
 42
2.5
  3
OpenSans-Light.ttf
  4

  0
STYLE
  5
42
330
5
100
AcDbSymbolTableRecord
100
AcDbTextStyleTableRecord
  2
OpenSans-Light-Italic
 70
0
 40
0.0
 41
1.0
 50
0.0
 71
0
 42
2.5
  3
OpenSans-LightItalic.ttf
  4

  0
STYLE
  5
43
330
5
100
AcDbSymbolTableRecord
100
AcDbTextStyleTableRecord
  2
OpenSans
 70
0
 40
0.0
 41
1.0
 50
0.0
 71
0
 42
2.5
  3
OpenSans-Regular.ttf
  4

  0
STYLE
  5
44
330
5
100
AcDbSymbolTableRecord
100
AcDbTextStyleTableRecord
  2
OpenSans-Italic
 70
0
 40
0.0
 41
1.0
 50
0.0
 71
0
 42
2.5
  3
OpenSans-Italic.ttf
  4

  0
STYLE
  5
45
330
5
100
AcDbSymbolTableRecord
100
AcDbTextStyleTableRecord
  2
OpenSans-SemiBold
 70
0
 40
0.0
 41
1.0
 50
0.0
 71
0
 42
2.5
  3
OpenSans-SemiBold.ttf
  4

  0
STYLE
  5
46
330
5
100
AcDbSymbolTableRecord
100
AcDbTextStyleTableRecord
  2
OpenSans-SemiBoldItalic
 70
0
 40
0.0
 41
1.0
 50
0.0
 71
0
 42
2.5
  3
OpenSans-SemiBoldItalic.ttf
  4

  0
STYLE
  5
47
330
5
100
AcDbSymbolTableRecord
100
AcDbTextStyleTableRecord
  2
OpenSans-Bold
 70
0
 40
0.0
 41
1.0
 50
0.0
 71
0
 42
2.5
  3
OpenSans-Bold.ttf
  4

  0
STYLE
  5
48
330
5
100
AcDbSymbolTableRecord
100
AcDbTextStyleTableRecord
  2
OpenSans-BoldItalic
 70
0
 40
0.0
 41
1.0
 50
0.0
 71
0
 42
2.5
  3
OpenSans-BoldItalic.ttf
  4

  0
STYLE
  5
49
330
5
100
AcDbSymbolTableRecord
100
AcDbTextStyleTableRecord
  2
OpenSans-ExtraBold
 70
0
 40
0.0
 41
1.0
 50
0.0
 71
0
 42
2.5
  3
OpenSans-ExtraBold.ttf
  4

  0
STYLE
  5
4A
330
5
100
AcDbSymbolTableRecord
100
AcDbTextStyleTableRecord
  2
OpenSans-ExtraBoldItalic
 70
0
 40
0.0
 41
1.0
 50
0.0
 71
0
 42
2.5
  3
OpenSans-ExtraBoldItalic.ttf
  4

  0
STYLE
  5
4B
330
5
100
AcDbSymbolTableRecord
100
AcDbTextStyleTableRecord
  2
OpenSansCondensed-Bold
 70
0
 40
0.0
 41
1.0
 50
0.0
 71
0
 42
2.5
  3
OpenSansCondensed-Bold.ttf
  4

  0
STYLE
  5
4C
330
5
100
AcDbSymbolTableRecord
100
AcDbTextStyleTableRecord
  2
OpenSansCondensed-Light
 70
0
 40
0.0
 41
1.0
 50
0.0
 71
0
 42
2.5
  3
OpenSansCondensed-Light.ttf
  4

  0
STYLE
  5
4D
330
5
100
AcDbSymbolTableRecord
100
AcDbTextStyleTableRecord
  2
OpenSansCondensed-Italic
 70
0
 40
0.0
 41
1.0
 50
0.0
 71
0
 42
2.5
  3
OpenSansCondensed-LightItalic.ttf
  4

  0
STYLE
  5
4E
330
5
100
AcDbSymbolTableRecord
100
AcDbTextStyleTableRecord
  2
LiberationSans
 70
0
 40
0.0
 41
1.0
 50
0.0
 71
0
 42
2.5
  3
LiberationSans-Regular.ttf
  4

  0
STYLE
  5
4F
330
5
100
AcDbSymbolTableRecord
100
AcDbTextStyleTableRecord
  2
LiberationSans-Bold
 70
0
 40
0.0
 41
1.0
 50
0.0
 71
0
 42
2.5
  3
LiberationSans-Bold.ttf
  4

  0
STYLE
  5
50
330
5
100
AcDbSymbolTableRecord
100
AcDbTextStyleTableRecord
  2
LiberationSans-BoldItalic
 70
0
 40
0.0
 41
1.0
 50
0.0
 71
0
 42
2.5
  3
LiberationSans-BoldItalic.ttf
  4

  0
STYLE
  5
51
330
5
100
AcDbSymbolTableRecord
100
AcDbTextStyleTableRecord
  2
LiberationSans-Italic
 70
0
 40
0.0
 41
1.0
 50
0.0
 71
0
 42
2.5
  3
LiberationSans-Italic.ttf
  4

  0
STYLE
  5
52
330
5
100
AcDbSymbolTableRecord
100
AcDbTextStyleTableRecord
  2
LiberationSerif
 70
0
 40
0.0
 41
1.0
 50
0.0
 71
0
 42
2.5
  3
LiberationSerif-Regular.ttf
  4

  0
STYLE
  5
53
330
5
100
AcDbSymbolTableRecord
100
AcDbTextStyleTableRecord
  2
LiberationSerif-Bold
 70
0
 40
0.0
 41
1.0
 50
0.0
 71
0
 42
2.5
  3
LiberationSerif-Bold.ttf
  4

  0
STYLE
  5
54
330
5
100
AcDbSymbolTableRecord
100
AcDbTextStyleTableRecord
  2
LiberationSerif-BoldItalic
 70
0
 40
0.0
 41
1.0
 50
0.0
 71
0
 42
2.5
  3
LiberationSerif-BoldItalic.ttf
  4

  0
STYLE
  5
55
330
5
100
AcDbSymbolTableRecord
100
AcDbTextStyleTableRecord
  2
LiberationSerif-Italic
 70
0
 40
0.0
 41
1.0
 50
0.0
 71
0
 42
2.5
  3
LiberationSerif-Italic.ttf
  4

  0
STYLE
  5
56
330
5
100
AcDbSymbolTableRecord
100
AcDbTextStyleTableRecord
  2
LiberationMono
 70
0
 40
0.0
 41
1.0
 50
0.0
 71
0
 42
2.5
  3
LiberationMono-Regular.ttf
  4

  0
STYLE
  5
57
330
5
100
AcDbSymbolTableRecord
100
AcDbTextStyleTableRecord
  2
LiberationMono-Bold
 70
0
 40
0.0
 41
1.0
 50
0.0
 71
0
 42
2.5
  3
LiberationMono-Bold.ttf
  4

  0
STYLE
  5
58
330
5
100
AcDbSymbolTableRecord
100
AcDbTextStyleTableRecord
  2
LiberationMono-BoldItalic
 70
0
 40
0.0
 41
1.0
 50
0.0
 71
0
 42
2.5
  3
LiberationMono-BoldItalic.ttf
  4

  0
STYLE
  5
59
330
5
100
AcDbSymbolTableRecord
100
AcDbTextStyleTableRecord
  2
LiberationMono-Italic
 70
0
 40
0.0
 41
1.0
 50
0.0
 71
0
 42
2.5
  3
LiberationMono-Italic.ttf
  4

  0
ENDTAB
  0
TABLE
  2
VIEW
  5
7
330
0
100
AcDbSymbolTable
 70
0
  0
ENDTAB
  0
TABLE
  2
UCS
  5
6
330
0
100
AcDbSymbolTable
 70
0
  0
ENDTAB
  0
TABLE
  2
APPID
  5
3
330
0
100
AcDbSymbolTable
 70
3
  0
APPID
  5
2A
330
3
100
AcDbSymbolTableRecord
100
AcDbRegAppTableRecord
  2
ACAD
 70
0
  0
APPID
  5
B8
330
3
100
AcDbSymbolTableRecord
100
AcDbRegAppTableRecord
  2
HATCHBACKGROUNDCOLOR
 70
0
  0
APPID
  5
B9
330
3
100
AcDbSymbolTableRecord
100
AcDbRegAppTableRecord
  2
EZDXF
 70
0
  0
ENDTAB
  0
TABLE
  2
DIMSTYLE
  5
4
330
0
100
AcDbSymbolTable
 70
12
100
AcDbDimStyleTable
  0
DIMSTYLE
105
2B
330
4
100
AcDbSymbolTableRecord
100
AcDbDimStyleTableRecord
  2
Standard
 70
0
 40
1.0
 41
2.5
 42
0.625
 43
3.75
 44
1.25
 45
0.0
 46
0.0
 47
0.0
 48
0.0
 49
2.5
140
2.5
141
2.5
142
0.0
143
0.03937007874
144
1.0
145
0.0
146
1.0
147
0.625
148
0.0
 69
0
 70
0
 71
0
 72
0
 73
0
 74
0
 75
0
 76
0
 77
1
 78
8
 79
3
170
0
171
3
172
1
173
0
174
0
175
0
176
0
177
0
178
0
179
2
271
2
272
2
273
2
274
3
275
0
276
0
277
2
278
44
279
0
280
0
281
0
282
0
283
0
284
8
285
0
286
0
288
0
289
3
290
0
371
-2
372
-2
  0
DIMSTYLE
105
73
330
4
100
AcDbSymbolTableRecord
100
AcDbDimStyleTableRecord
  2
EZDXF
 70
0
 40
1.0
 41
0.175
 42
0.125
 43
3.75
 44
0.375
 45
0.0
 46
0.0
 47
0.0
 48
0.0
 49
2.5
140
0.25
141
2.5
142
0.0
143
0.03937007874
144
100.0
145
0.0
146
0.5
147
0.1
148
0.0
 69
0
 70
0
 71
0
 72
0
 73
0
 74
0
 75
0
 76
0
 77
1
 78
12
 79
3
170
0
171
3
172
1
173
0
174
0
175
0
176
0
177
0
178
0
179
2
271
2
272
2
273
2
274
3
275
0
276
0
277
2
278
46
279
2
280
0
281
0
282
0
283
0
284
8
285
0
286
0
288
1
289
3
290
0
340
4C
342
74
371
-2
372
-2
  0
DIMSTYLE
105
7C
330
4
100
AcDbSymbolTableRecord
100
AcDbDimStyleTableRecord
  2
EZ_M_100_H25_CM
 70
0
 40
1.0
 41
0.25
 42
0.125
 43
3.75
 44
0.375
 45
0.0
 46
0.0
 47
0.0
 48
0.0
 49
2.5
140
0.25
141
2.5
142
0.125
143
0.03937007874
144
100.0
145
0.0
146
0.5
147
0.1
148
0.0
 69
0
 70
0
 71
0
 72
0
 73
0
 74
0
 75
0
 76
0
 77
1
 78
12
 79
3
170
0
171
3
172
1
173
0
174
0
175
0
176
0
177
0
178
0
179
2
271
2
272
2
273
2
274
3
275
0
276
0
277
2
278
46
279
2
280
0
281
0
282
0
283
0
284
8
285
0
286
0
288
1
289
3
290
0
340
4C
371
-2
372
-2
  0
DIMSTYLE
105
7D
330
4
100
AcDbSymbolTableRecord
100
AcDbDimStyleTableRecord
  2
EZ_M_50_H25_CM
 70
0
 40
1.0
 41
0.125
 42
0.0625
 43
3.75
 44
0.1875
 45
0.0
 46
0.0
 47
0.0
 48
0.0
 49
2.5
140
0.125
141
2.5
142
0.0625
143
0.03937007874
144
100.0
145
0.0
146
0.5
147
0.05
148
0.0
 69
0
 70
0
 71
0
 72
0
 73
0
 74
0
 75
0
 76
0
 77
1
 78
12
 79
3
170
0
171
3
172
1
173
0
174
0
175
0
176
0
177
0
178
0
179
2
271
2
272
2
273
2
274
3
275
0
276
0
277
2
278
46
279
2
280
0
281
0
282
0
283
0
284
8
285
0
286
0
288
1
289
3
290
0
340
4C
371
-2
372
-2
  0
DIMSTYLE
105
7E
330
4
100
AcDbSymbolTableRecord
100
AcDbDimStyleTableRecord
  2
EZ_M_25_H25_CM
 70
0
 40
1.0
 41
0.0625
 42
0.03125
 43
3.75
 44
0.09375
 45
0.0
 46
0.0
 47
0.0
 48
0.0
 49
2.5
140
0.0625
141
2.5
142
0.03125
143
0.03937007874
144
100.0
145
0.0
146
0.5
147
0.025
148
0.0
 69
0
 70
0
 71
0
 72
0
 73
0
 74
0
 75
0
 76
0
 77
1
 78
12
 79
3
170
0
171
3
172
1
173
0
174
0
175
0
176
0
177
0
178
0
179
2
271
2
272
2
273
2
274
3
275
0
276
0
277
2
278
46
279
2
280
0
281
0
282
0
283
0
284
8
285
0
286
0
288
1
289
3
290
0
340
4C
371
-2
372
-2
  0
DIMSTYLE
105
7F
330
4
100
AcDbSymbolTableRecord
100
AcDbDimStyleTableRecord
  2
EZ_M_20_H25_CM
 70
0
 40
1.0
 41
0.05
 42
0.025
 43
3.75
 44
0.07500000000000001
 45
0.0
 46
0.0
 47
0.0
 48
0.0
 49
2.5
140
0.05
141
2.5
142
0.025
143
0.03937007874
144
100.0
145
0.0
146
0.5
147
0.020000000000000004
148
0.0
 69
0
 70
0
 71
0
 72
0
 73
0
 74
0
 75
0
 76
0
 77
1
 78
12
 79
3
170
0
171
3
172
1
173
0
174
0
175
0
176
0
177
0
178
0
179
2
271
2
272
2
273
2
274
3
275
0
276
0
277
2
278
46
279
2
280
0
281
0
282
0
283
0
284
8
285
0
286
0
288
1
289
3
290
0
340
4C
371
-2
372
-2
  0
DIMSTYLE
105
80
330
4
100
AcDbSymbolTableRecord
100
AcDbDimStyleTableRecord
  2
EZ_M_10_H25_CM
 70
0
 40
1.0
 41
0.025
 42
0.0125
 43
3.75
 44
0.037500000000000006
 45
0.0
 46
0.0
 47
0.0
 48
0.0
 49
2.5
140
0.025
141
2.5
142
0.0125
143
0.03937007874
144
100.0
145
0.0
146
0.5
147
0.010000000000000002
148
0.0
 69
0
 70
0
 71
0
 72
0
 73
0
 74
0
 75
0
 76
0
 77
1
 78
12
 79
3
170
0
171
3
172
1
173
0
174
0
175
0
176
0
177
0
178
0
179
2
271
2
272
2
273
2
274
3
275
0
276
0
277
2
278
46
279
2
280
0
281
0
282
0
283
0
284
8
285
0
286
0
288
1
289
3
290
0
340
4C
371
-2
372
-2
  0
DIMSTYLE
105
81
330
4
100
AcDbSymbolTableRecord
100
AcDbDimStyleTableRecord
  2
EZ_M_5_H25_CM
 70
0
 40
1.0
 41
0.0125
 42
0.00625
 43
3.75
 44
0.018750000000000003
 45
0.0
 46
0.0
 47
0.0
 48
0.0
 49
2.5
140
0.0125
141
2.5
142
0.00625
143
0.03937007874
144
100.0
145
0.0
146
0.5
147
0.005000000000000001
148
0.0
 69
0
 70
0
 71
0
 72
0
 73
0
 74
0
 75
0
 76
0
 77
1
 78
12
 79
3
170
0
171
3
172
1
173
0
174
0
175
0
176
0
177
0
178
0
179
2
271
2
272
2
273
2
274
3
275
0
276
0
277
2
278
46
279
2
280
0
281
0
282
0
283
0
284
8
285
0
286
0
288
1
289
3
290
0
340
4C
371
-2
372
-2
  0
DIMSTYLE
105
82
330
4
100
AcDbSymbolTableRecord
100
AcDbDimStyleTableRecord
  2
EZ_M_1_H25_CM
 70
0
 40
1.0
 41
0.0025
 42
0.00125
 43
3.75
 44
0.00375
 45
0.0
 46
0.0
 47
0.0
 48
0.0
 49
2.5
140
0.0025
141
2.5
142
0.00125
143
0.03937007874
144
100.0
145
0.0
146
0.5
147
0.001
148
0.0
 69
0
 70
0
 71
0
 72
0
 73
0
 74
0
 75
0
 76
0
 77
1
 78
12
 79
3
170
0
171
3
172
1
173
0
174
0
175
0
176
0
177
0
178
0
179
2
271
2
272
2
273
2
274
3
275
0
276
0
277
2
278
46
279
2
280
0
281
0
282
0
283
0
284
8
285
0
286
0
288
1
289
3
290
0
340
4C
371
-2
372
-2
  0
DIMSTYLE
105
83
330
4
100
AcDbSymbolTableRecord
100
AcDbDimStyleTableRecord
  2
EZ_RADIUS
 70
0
 40
1.0
 41
0.25
 42
0.125
 43
3.75
 44
0.375
 45
0.0
 46
0.0
 47
0.0
 48
0.0
 49
2.5
140
0.25
141
0.0
142
0.0
143
0.03937007874
144
100.0
145
0.0
146
0.5
147
0.1
148
0.0
 69
0
 70
0
 71
0
 72
0
 73
0
 74
0
 75
0
 76
0
 77
1
 78
12
 79
3
170
0
171
3
172
0
173
0
174
0
175
0
176
0
177
0
178
0
179
2
271
2
272
2
273
2
274
3
275
0
276
0
277
2
278
46
279
1
280
0
281
0
282
0
283
0
284
8
285
0
286
0
288
1
289
3
290
0
340
4C
342
84
371
-2
372
-2
  0
DIMSTYLE
105
88
330
4
100
AcDbSymbolTableRecord
100
AcDbDimStyleTableRecord
  2
EZ_RADIUS_INSIDE
 70
0
 40
1.0
 41
0.25
 42
0.125
 43
3.75
 44
0.375
 45
0.0
 46
0.0
 47
0.0
 48
0.0
 49
2.5
140
0.25
141
0.0
142
0.0
143
0.03937007874
144
100.0
145
0.0
146
0.5
147
0.1
148
0.0
 69
0
 70
0
 71
0
 72
0
 73
0
 74
0
 75
0
 76
0
 77
0
 78
12
 79
3
170
0
171
3
172
0
173
0
174
1
175
0
176
0
177
0
178
0
179
2
271
2
272
2
273
2
274
3
275
0
276
0
277
2
278
46
279
0
280
0
281
0
282
0
283
0
284
8
285
0
286
0
288
1
289
0
290
0
340
4C
342
84
371
-2
372
-2
  0
DIMSTYLE
105
89
330
4
100
AcDbSymbolTableRecord
100
AcDbDimStyleTableRecord
  2
EZ_CURVED
 70
0
 40
1.0
 41
0.25
 42
0.125
 43
3.75
 44
0.375
 45
0.0
 46
0.0
 47
0.0
 48
0.0
 49
2.5
140
0.25
141
2.5
142
0.0
143
0.03937007874
144
100.0
145
0.0
146
0.5
147
0.1
148
0.0
 69
0
 70
0
 71
0
 72
0
 73
0
 74
0
 75
0
 76
0
 77
1
 78
12
 79
2
 90
2
170
0
171
3
172
1
173
0
174
0
175
0
176
0
177
0
178
0
179
2
271
2
272
2
273
2
274
3
275
0
276
0
277
2
278
46
279
2
280
0
281
0
282
0
283
0
284
8
285
0
286
0
288
1
289
3
290
0
340
4C
371
-2
372
-2
  0
ENDTAB
  0
TABLE
  2
BLOCK_RECORD
  5
9
330
0
100
AcDbSymbolTable
 70
5
  0
BLOCK_RECORD
  5
17
330
9
100
AcDbSymbolTableRecord
100
AcDbBlockTableRecord
  2
*Model_Space
340
1A
 70
0
280
1
281
0
  0
BLOCK_RECORD
  5
1B
330
9
100
AcDbSymbolTableRecord
100
AcDbBlockTableRecord
  2
*Paper_Space
340
1E
 70
0
280
1
281
0
  0
BLOCK_RECORD
  5
74
330
9
100
AcDbSymbolTableRecord
100
AcDbBlockTableRecord
  2
_ARCHTICK
340
0
 70
0
280
1
281
0
  0
BLOCK_RECORD
  5
78
330
9
100
AcDbSymbolTableRecord
100
AcDbBlockTableRecord
  2
_CLOSEDFILLED
340
0
 70
0
280
1
281
0
  0
BLOCK_RECORD
  5
84
330
9
100
AcDbSymbolTableRecord
100
AcDbBlockTableRecord
  2
_CLOSEDBLANK
340
0
 70
0
280
1
281
0
  0
ENDTAB
  0
ENDSEC
  0
SECTION
  2
BLOCKS
  0
BLOCK
  5
18
330
17
100
AcDbEntity
  8
0
100
AcDbBlockBegin
  2
*Model_Space
 70
0
 10
0.0
 20
0.0
 30
0.0
  3
*Model_Space
  1

  0
ENDBLK
  5
19
330
17
100
AcDbEntity
  8
0
100
AcDbBlockEnd
  0
BLOCK
  5
1C
330
1B
100
AcDbEntity
  8
0
100
AcDbBlockBegin
  2
*Paper_Space
 70
0
 10
0.0
 20
0.0
 30
0.0
  3
*Paper_Space
  1

  0
ENDBLK
  5
1D
330
1B
100
AcDbEntity
  8
0
100
AcDbBlockEnd
  0
BLOCK
  5
75
330
74
100
AcDbEntity
  8
0
100
AcDbBlockBegin
  2
_ARCHTICK
 70
0
 10
0.0
 20
0.0
 30
0.0
  3
_ARCHTICK
  1

  0
LWPOLYLINE
  5
77
330
74
100
AcDbEntity
  8
0
  6
BYBLOCK
 62
0
100
AcDbPolyline
 90
2
 70
0
 43
0.15
 10
-0.5
 20
-0.5000000000000001
 10
0.5000000000000001
 20
0.5
  0
ENDBLK
  5
76
330
74
100
AcDbEntity
  8
0
100
AcDbBlockEnd
  0
BLOCK
  5
79
330
78
100
AcDbEntity
  8
0
100
AcDbBlockBegin
  2
_CLOSEDFILLED
 70
0
 10
0.0
 20
0.0
 30
0.0
  3
_CLOSEDFILLED
  1

  0
SOLID
  5
7B
330
78
100
AcDbEntity
  8
0
  6
BYBLOCK
 62
0
100
AcDbTrace
 10
-1.0
 20
0.1643989837240255
 30
0.0
 11
0.0
 21
0.0
 31
0.0
 12
-1.0
 22
-0.1643989837240255
 32
0.0
 13
-1.0
 23
-0.1643989837240255
 33
0.0
  0
ENDBLK
  5
7A
330
78
100
AcDbEntity
  8
0
100
AcDbBlockEnd
  0
BLOCK
  5
85
330
84
100
AcDbEntity
  8
0
100
AcDbBlockBegin
  2
_CLOSEDBLANK
 70
0
 10
0.0
 20
0.0
 30
0.0
  3
_CLOSEDBLANK
  1

  0
LWPOLYLINE
  5
87
330
84
100
AcDbEntity
  8
0
  6
BYBLOCK
 62
0
100
AcDbPolyline
 90
3
 70
1
 10
-1.0
 20
0.1643989837240255
 10
0.0
 20
0.0
 10
-1.0
 20
-0.1643989837240255
  0
ENDBLK
  5
86
330
84
100
AcDbEntity
  8
0
100
AcDbBlockEnd
  0
ENDSEC
  0
SECTION
  2
ENTITIES
  0
LWPOLYLINE
  5
8B
330
17
100
AcDbEntity
  8
Layer
100
AcDbPolyline
 90
303
 70
1
 10
816.2456412054249
 20
17.859728043905022
 10
813.8050202080977
 20
18.85315828986981
 10
809.8722642673908
 20
20.377460643826637
 10
805.6204894458888
 20
22.060148650901695
 10
800.9750196315356
 20
23.866427097457503
 10
795.9067395968739
 20
25.800580851476937
 10
790.454513120985
 20
27.88023139921515
 10
784.6843184313477
 20
30.09224547121606
 10
778.6461716825518
 20
32.39658712852004
 10
772.4345737158033
 20
34.7640698960458
 10
766.1632741765327
 20
37.13072859047193
 10
759.8375531531606
 20
39.47112277491661
 10
753.426263185013
 20
41.8931928052699
 10
746.9414594690568
 20
44.35333207399333
 10
740.3433374388549
 20
46.80557839794731
 10
733.638162968774
 20
49.28738473792464
 10
726.8177639200526
 20
51.78002961025219
 10
719.8681148127816
 20
54.32959213154186
 10
712.8077309449075
 20
56.91516422199126
 10
705.6667110330509
 20
59.5242843671098
 10
698.4745549261463
 20
62.149237788272124
 10
691.25943061474
 20
64.78230085930919
 10
684.0410813548563
 20
67.41076334291921
 10
676.8244686558783
 20
70.02796034615147
 10
669.6103300596355
 20
72.63270345155567
 10
662.4010375732419
 20
75.22466546029868
 10
655.2050440662025
 20
77.80272362008536
 10
648.036594278474
 20
80.35960425190918
 10
640.8961033978815
 20
82.8873449347636
 10
633.7696838592001
 20
85.38695044446123
 10
626.651965205544
 20
87.86325271275442
 10
619.5495873522169
 20
90.31493858559917
 10
616.0345213040041
 20
91.5171186156197
 10
615.6947359237743
 20
90.52361678100537
 10
612.1293487059831
 20
91.74301568887549
 10
605.0640136132988
 20
94.13339201736771
 10
598.0087409705184
 20
96.49280579489904
 10
590.9581348752905
 20
98.8218387860475
 10
583.9072485896997
 20
101.12265777011561
 10
576.8568641337404
 20
103.39862435447705
 10
569.8267046968372
 20
105.64817747771818
 10
562.8419631688408
 20
107.85993028102766
 10
555.9085571253186
 20
110.02180450332081
 10
549.0169529225274
 20
112.12977797015839
 10
542.156075268071
 20
114.1841221054352
 10
535.316275076498
 20
116.18612120860107
 10
528.488994994503
 20
118.13756699612574
 10
521.669665369456
 20
120.04044644506985
 10
514.8589449488693
 20
121.8949493982127
 10
508.0578427647136
 20
123.69881713311234
 10
501.2602522376212
 20
125.45032071876511
 10
494.4562655074403
 20
127.15121226633718
 10
487.64063162592345
 20
128.80426968804477
 10
480.81129430619325
 20
130.41112248025024
 10
473.9677054373019
 20
131.97279261119434
 10
467.1109687593437
 20
133.48975780610908
 10
460.2439636646849
 20
134.96175035051016
 10
453.36826313499137
 20
136.38715614680643
 10
446.4792092128065
 20
137.76500439190588
 10
439.57008230137103
 20
139.0972481720819
 10
432.6385969938697
 20
140.38660877261867
 10
425.686403319244
 20
141.63516435445226
 10
418.7207158979949
 20
142.84362592766064
 10
411.74946080084095
 20
144.0103704237043
 10
404.7768204427017
 20
145.13304268941098
 10
397.80452102286824
 20
146.2109376086225
 10
390.8359347308991
 20
147.24328897451232
 10
383.87313957445787
 20
148.2285393082755
 10
376.91555305759215
 20
149.16526940995004
 10
369.960952759548
 20
150.05333000914456
 10
363.00952551332915
 20
150.8929470896732
 10
356.06194804693644
 20
151.6834930892412
 10
349.11691330120595
 20
152.42425347409505
 10
342.1731437279606
 20
153.11532794054335
 10
335.23199233493256
 20
153.7567737375271
 10
328.2923295131531
 20
154.3472028562296
 10
321.35071300582337
 20
154.88630432669294
 10
314.40364300585685
 20
155.37541127149427
 10
307.45358160856074
 20
155.81606186173516
 10
300.50541590544935
 20
156.20837971143783
 10
293.5634479536865
 20
156.55138200530178
 10
286.63019150429074
 20
156.8438095616654
 10
279.70593154196666
 20
157.08464713120242
 10
272.79092224726196
 20
157.27386718179537
 10
265.88723428685967
 20
157.41211843880507
 10
259.0016520225775
 20
157.5009598529085
 10
252.14717076743207
 20
157.54019278251934
 10
245.33400523347316
 20
157.52653400967813
 10
238.56630960818418
 20
157.4550341204909
 10
231.83792228931566
 20
157.3192172622509
 10
225.12990420731717
 20
157.11534480624502
 10
218.42774414300374
 20
156.84686234148546
 10
211.73393519853198
 20
156.5188981485363
 10
205.05614010552608
 20
156.13157098307929
 10
198.3970044803105
 20
155.68339658542723
 10
191.75835833070636
 20
155.17455229666865
 10
185.1461702287149
 20
154.60596182466787
 10
178.56654716094383
 20
153.97701196779713
 10
172.02434070835525
 20
153.28685909736933
 10
165.52318397750227
 20
152.53440064118774
 10
159.0661752770352
 20
151.71888745163994
 10
152.65693416780374
 20
150.8403519966896
 10
146.30272342578164
 20
149.8984188617927
 10
140.00444738611196
 20
148.88735627321194
 10
133.74977075724473
 20
147.80413646305104
 10
127.53955178893904
 20
146.65935289533317
 10
121.40734839414142
 20
145.46688538820865
 10
115.38702875990967
 20
144.2260069723945
 10
109.4893107410733
 20
142.92779617947713
 10
103.71226842262868
 20
141.56560911230108
 10
98.05141979782374
 20
140.13618276083488
 10
92.50327024411632
 20
138.63893149145758
 10
87.06827829990908
 20
137.07591874446018
 10
81.75224461438029
 20
135.45234764181913
 10
76.5675245219106
 20
133.77529929753865
 10
71.52857795956498
 20
132.04972786256266
 10
66.64454843653021
 20
130.2795767670947
 10
61.9253568258417
 20
128.47622713748393
 10
57.390605266494305
 20
126.65811262386232
 10
53.06369532014327
 20
124.84052811224343
 10
48.96187300241934
 20
123.03267779145003
 10
45.09429311393683
 20
121.24024846222738
 10
41.46136707613471
 20
119.46607996156828
 10
38.057394500611224
 20
117.71476373996317
 10
34.87565262827121
 20
115.9942427240054
 10
31.908790520379114
 20
114.31217141880796
 10
29.149284992377773
 20
112.67566518661901
 10
26.58940389264484
 20
111.08848101662979
 10
24.21973295740463
 20
109.5505214877586
 10
22.02950617170245
 20
108.05927576163661
 10
20.00628366342721
 20
106.61014788543827
 10
18.13476363660328
 20
105.1982788852665
 10
16.400295637662907
 20
103.82456858300097
 10
14.791587101816049
 20
102.49221204394776
 10
13.300253563682531
 20
101.20207055936123
 10
11.91820255960971
 20
99.95143520234235
 10
10.6377887954867
 20
98.73799154129259
 10
9.45208476225514
 20
97.55944691650818
 10
8.354602182199983
 20
96.41334023212075
 10
7.338170339700355
 20
95.29603288765051
 10
6.395569677555159
 20
94.20595670857787
 10
5.522663795323865
 20
93.14589307681108
 10
4.718278022126185
 20
92.1166830092993
 10
3.9765091302213023
 20
91.10739253101053
 10
3.2860387785222542
 20
90.1104346411243
 10
2.6455842613626146
 20
89.14553097400226
 10
2.0675274547388085
 20
88.22959596734873
 10
1.5526096152395326
 20
87.33017900766218
 10
1.0835121163086683
 20
86.41295080200732
 10
0.6517816465593569
 20
85.51443031249133
 10
0.2709529722534967
 20
84.6756181055126
 10
-0.04956615569835776
 20
83.86413360914788
 10
-0.31603876370405715
 20
83.03871358597549
 10
-0.5390492161246243
 20
82.21643170027794
 10
-0.7213058502346144
 20
81.42341541730266
 10
-0.8594609347793494
 20
80.65453155689744
 10
-0.9538080825933548
 20
79.8823441092034
 10
-1.0015610144135394
 20
79.17465649327202
 10
-1.0037559207263484
 20
78.45901268593921
 10
-0.9472548478311182
 20
77.74093791716405
 10
-0.8247120308226954
 20
77.01173537191362
 10
-0.6370364834980364
 20
76.27639258511425
 10
-0.3860495561488051
 20
75.54209372294174
 10
-0.07156388246488632
 20
74.81403683363368
 10
0.30744405539502395
 20
74.0971575132203
 10
0.7581853956019131
 20
73.38907252865774
 10
1.284436229438711
 20
72.68716141513138
 10
1.8805636823408918
 20
71.9940600009318
 10
2.5424574500088397
 20
71.31200870878055
 10
3.2681930338560505
 20
70.6429991174717
 10
4.057703103284894
 20
69.98900229723802
 10
4.914788520161949
 20
69.3506437706527
 10
5.84353526127353
 20
68.72749762260679
 10
6.8487334850598245
 20
68.11754488711387
 10
7.9340040700243435
 20
67.51714831242998
 10
9.100532170527686
 20
66.92176951052136
 10
10.348779477011362
 20
66.32737590992612
 10
11.681512131055968
 20
65.73083011242555
 10
13.103303421558564
 20
65.12987595615508
 10
14.619753849729761
 20
64.52319893567304
 10
16.236479198782774
 20
63.911411980467136
 10
17.96461686957599
 20
63.29754988532365
 10
19.822402779639674
 20
62.68363756782953
 10
21.82629862841202
 20
62.06664498057348
 10
23.98867441189742
 20
61.44104312437922
 10
26.323112803946685
 20
60.80252372289043
 10
28.844781524593998
 20
60.1486742891355
 10
31.5693727667325
 20
59.48160727155962
 10
34.517784910012494
 20
58.808346071625884
 10
37.71516902180764
 20
58.13521384445028
 10
41.18997782190962
 20
57.465892698476054
 10
44.97375944562856
 20
56.79958065240833
 10
49.08917212270353
 20
56.12805020120476
 10
53.54001464975815
 20
55.44659111751837
 10
58.32200749359754
 20
54.764800257291775
 10
63.43464023541796
 20
54.09639372153192
 10
68.87583168835971
 20
53.4483221554225
 10
74.63747468899808
 20
52.82115318528745
 10
80.69536289471341
 20
52.209509613183386
 10
86.99576894239826
 20
51.61028827702179
 10
93.47322816896093
 20
51.03248859117813
 10
100.08029951386621
 20
50.49059026714166
 10
106.79725662568103
 20
49.998177189291305
 10
113.64097049364423
 20
49.56018650545575
 10
120.63401528734721
 20
49.16377227218256
 10
127.75763964914708
 20
48.79271283633641
 10
134.9802618071308
 20
48.4466158689985
 10
142.29846165222355
 20
48.12779198578968
 10
149.71252499098424
 20
47.82851492309155
 10
157.1977125998642
 20
47.53894309662941
 10
159.7094247759837
 20
47.44482390104612
 10
159.6701066376581
 20
46.395560309760015
 10
164.67940920386494
 20
46.2078504346575
 10
172.2053424950366
 20
45.938711498386695
 10
179.72796976756186
 20
45.692376385836496
 10
187.269889578345
 20
45.472904663806425
 10
194.85030857649832
 20
45.27281463504915
 10
202.46368582547268
 20
45.083625505552476
 10
210.0916496331604
 20
44.90170687249662
 10
217.71262144181523
 20
44.7299322464067
 10
225.32470205489284
 20
44.577192147217296
 10
232.95226291038583
 20
44.44683302935748
 10
240.61625639657058
 20
44.332982346000385
 10
248.31619815075956
 20
44.22464450073006
 10
256.0331270209146
 20
44.11038599205846
 10
263.7671659719904
 20
43.990487536821924
 10
271.5093178886324
 20
43.87637884565397
 10
279.2705629594724
 20
43.770622633960606
 10
287.0507363020618
 20
43.667545376518895
 10
294.8370610354899
 20
43.56260206081628
 10
302.62525875859444
 20
43.45380998996494
 10
310.41497799866335
 20
43.340692703092515
 10
318.2038002741553
 20
43.225400891252
 10
325.98555210149595
 20
43.11351989440413
 10
333.76679116304035
 20
43.00926915199431
 10
341.555044535944
 20
42.9087858701041
 10
349.34272126360935
 20
42.805554758657124
 10
357.1310224816989
 20
42.69732986587248
 10
364.9210420708447
 20
42.58516628501811
 10
372.7091708114471
 20
42.47403897909898
 10
380.49357762263224
 20
42.36813914796497
 10
388.2792848973311
 20
42.267502470440114
 10
396.06431028562093
 20
42.16948873751498
 10
403.8415883017294
 20
42.06953228308136
 10
411.60887391837804
 20
41.96376122904178
 10
419.36988364851834
 20
41.85056464603805
 10
427.1290010829374
 20
41.730258837757596
 10
434.88631400377835
 20
41.60473800287676
 10
442.6355386895507
 20
41.47416378879679
 10
450.3738521743201
 20
41.33645014397698
 10
458.1044986544857
 20
41.18846092593882
 10
465.8383587655515
 20
41.02785915285308
 10
473.5892996521303
 20
40.85743943798282
 10
481.3557863682598
 20
40.683499600939534
 10
489.1255611614347
 20
40.511931831412795
 10
496.89813068961513
 20
40.346008691672296
 10
504.6719817319778
 20
40.18198548496512
 10
512.4387765725354
 20
40.01324169452481
 10
520.2025676602142
 20
39.83723075999713
 10
527.968000010108
 20
39.654815953457245
 10
535.731287990001
 20
39.47189155589071
 10
543.484873856072
 20
39.2936837911973
 10
551.2248759848594
 20
39.11489855492258
 10
558.9435702434919
 20
38.92779944490058
 10
566.6497652556002
 20
38.72790723288878
 10
574.3576539755223
 20
38.514603824300494
 10
582.0726578981928
 20
38.29464452607758
 10
589.7763400313836
 20
38.07333575034197
 10
597.4441411169621
 20
37.85027719081022
 10
605.0569756534958
 20
37.61912309838943
 10
612.6152769210373
 20
37.36869501219165
 10
620.1419428832462
 20
37.0958802331884
 10
627.6344118098244
 20
36.81219431050215
 10
635.0537016002181
 20
36.516637614327664
 10
642.3951522536149
 20
36.188775289000745
 10
649.6957839367199
 20
35.81938816214277
 10
656.9803348229489
 20
35.41529950100666
 10
664.2356638344274
 20
34.994486430294
 10
671.4277938009321
 20
34.58308922652374
 10
678.484644825674
 20
34.165837774202856
 10
685.3993406264783
 20
33.68163875118066
 10
692.287609460381
 20
33.119658456437264
 10
699.177664715935
 20
32.55523892001361
 10
705.9995409336209
 20
32.01044947057015
 10
712.7259724568385
 20
31.41808767188725
 10
719.4181164146672
 20
30.749635661964348
 10
726.0931723899284
 20
30.08410654010474
 10
732.7009669163267
 20
29.45839025519001
 10
739.2134851970774
 20
28.791296354432546
 10
745.6891954463397
 20
28.01215765194894
 10
752.2049032562066
 20
27.174359595929957
 10
758.6872770484798
 20
26.342050167466326
 10
765.0034237760523
 20
25.49912591916376
 10
771.1828498477703
 20
24.542086880624097
 10
777.3263677854625
 20
23.522099393238037
 10
783.3529876700128
 20
22.487206759435153
 10
789.1799059321509
 20
21.47580432078658
 10
794.7234557026659
 20
20.468325370422576
 10
799.9657756004605
 20
19.474855580701814
 10
804.8839596591899
 20
18.54520564267817
 10
809.4532594971049
 20
17.653423151874676
 10
813.6617274047298
 20
16.812859824719666
 10
816.2620992592103
 20
16.265619265747333
  0
LWPOLYLINE
  5
8C
330
17
100
AcDbEntity
  8
Layer
100
AcDbPolyline
 90
5
 70
0
 10
536.1681533825325
 20
111.7689312236621
 10
532.3292151008294
 20
112.89256500264605
 10
533.4528488798134
 20
116.73150328434923
 10
537.2917871615165
 20
115.60786950536527
 10
536.1681533825325
 20
111.7689312236621
  0
LWPOLYLINE
  5
8D
330
17
100
AcDbEntity
  8
Layer
100
AcDbPolyline
 90
5
 70
0
 10
211.76265775874197
 20
152.5138393025139
 10
207.76937158197865
 20
152.28218112659275
 10
207.5377134060575
 20
156.27546730335607
 10
211.5309995828208
 20
156.50712547927722
 10
211.76265775874197
 20
152.5138393025139
  0
LWPOLYLINE
  5
8E
330
17
100
AcDbEntity
  8
Layer
100
AcDbPolyline
 90
5
 70
0
 10
87.88045460488567
 20
133.14155907656874
 10
84.0549355506171
 20
131.9730540635593
 10
82.88643053760765
 20
135.79857311782786
 10
86.71194959187622
 20
136.9670781308373
 10
87.88045460488567
 20
133.14155907656874
  0
LWPOLYLINE
  5
8F
330
17
100
AcDbEntity
  8
Layer
100
AcDbPolyline
 90
5
 70
0
 10
20.79802161320361
 20
100.92924690427917
 10
19.23039071688158
 20
99.68725923409214
 10
16.125421541414035
 20
103.60633647489722
 10
17.693052437736064
 20
104.84832414508425
 10
20.79802161320361
 20
100.92924690427917
  0
LWPOLYLINE
  5
90
330
17
100
AcDbEntity
  8
Layer
100
AcDbPolyline
 90
5
 70
0
 10
37.30373347106994
 20
63.33155774722171
 10
39.260861145016754
 20
62.91967030158695
 10
38.231142530929866
 20
58.02685111671991
 10
36.27401485698305
 20
58.43873856235467
 10
37.30373347106994
 20
63.33155774722171
  0
LWPOLYLINE
  5
91
330
17
100
AcDbEntity
  8
Layer
100
AcDbPolyline
 90
5
 70
0
 10
116.92784988440398
 20
53.38029197806406
 10
120.92143902557963
 20
53.153916689033046
 10
120.69506373654862
 20
49.160327547857385
 10
116.70147459537297
 20
49.3867028368884
 10
116.92784988440398
 20
53.38029197806406
  0
LINE
  5
92
330
17
100
AcDbEntity
  8
Layer
100
AcDbLine
 10
797.974968385304
 20
25.011304716781183
 30
0.0
 11
797.7758770849039
 21
24.552651629900723
 31
0.0
  0
LINE
  5
93
330
17
100
AcDbEntity
  8
Layer
100
AcDbLine
 10
796.6352157591998
 20
20.614650123283752
 30
0.0
 11
796.5583954926893
 21
20.1205867198088
 31
0.0
  0
LINE
  5
94
330
17
100
AcDbEntity
  8
Layer
100
AcDbLine
 10
779.28276660249
 20
32.15364301770751
 30
0.0
 11
779.0939435034677
 21
31.690668032124492
 31
0.0
  0
LINE
  5
95
330
17
100
AcDbEntity
  8
Layer
100
AcDbLine
 10
776.9428188742382
 20
24.092623084554745
 30
0.0
 11
776.8609242577788
 21
23.599375406612964
 31
0.0
  0
LINE
  5
96
330
17
100
AcDbEntity
  8
Layer
100
AcDbLine
 10
741.8406585388047
 20
46.249086695259244
 30
0.0
 11
741.6581504936572
 21
45.78358609004329
 31
0.0
  0
LINE
  5
97
330
17
100
AcDbEntity
  8
Layer
100
AcDbLine
 10
737.2927714556574
 20
29.490081352397752
 30
0.0
 11
737.2180970691595
 21
28.995689062812687
 31
0.0
  0
LWPOLYLINE
  5
98
330
17
100
AcDbEntity
  8
Layer
100
AcDbPolyline
 90
300
 70
1
 10
352.6142486959345
 20
100.0
 10
352.60438633585716
 20
100.94551339048425
 10
352.57480361056554
 20
101.89060926887255
 10
352.5255135829584
 20
102.83487030743053
 10
352.4565380181244
 20
103.77787954706562
 10
352.3679073737311
 20
104.71922058144438
 10
352.2596607865762
 20
105.65847774086583
 10
352.1318460553052
 20
106.59523627580958
 10
351.9845196193053
 20
107.52908254007741
 10
351.81774653378324
 20
108.45960417344787
 10
351.63160044103876
 20
109.38639028376292
 10
351.4261635379462
 20
110.30903162836631
 10
351.20152653965863
 20
111.22712079481371
 10
350.9577886395507
 20
112.14025238077448
 10
350.6950574654177
 20
113.04802317304595
 10
350.41344903194977
 20
113.95003232560104
 10
350.1130876895037
 20
114.84588153659058
 10
349.7941060691927
 20
115.73517522422219
 10
349.4566450243206
 20
116.61752070143805
 10
349.10085356818496
 20
117.49252834931445
 10
348.7268888082768
 20
118.35981178910657
 10
348.3349158769066
 20
119.21898805286241
 10
347.92510785828637
 20
120.06967775253072
 10
347.4976457121005
 20
120.91150524748798
 10
347.05271819359933
 20
121.74409881041086
 10
346.59052177024967
 20
122.56709079142044
 10
346.1112605349808
 20
123.38011778042605
 10
345.61514611606236
 20
124.18282076759701
 10
345.10239758365566
 20
124.97484530189118
 10
344.5732413530781
 20
125.75584164757063
 10
344.02791108482484
 20
126.52546493863505
 10
343.4666475813905
 20
127.28337533110489
 10
342.88969868093807
 20
128.02923815308688
 10
342.2973191478602
 20
128.7627240525557
 10
341.6897705602826
 20
129.48350914278666
 10
341.0673211945583
 20
130.19127514537485
 10
340.4302459068045
 20
130.8857095307779
 10
339.7788260115339
 20
131.56650565632037
 10
339.1133491574341
 20
132.2333629015984
 10
338.43410920034984
 20
132.88598680122533
 10
337.74140607352484
 20
133.5240891748591
 10
337.03554565515947
 20
134.14738825445494
 10
336.3168396333437
 20
134.7556088086858
 10
335.58560536842447
 20
135.34848226447704
 10
334.8421657528679
 20
135.9257468256007
 10
334.0868490686797
 20
136.48714758827725
 10
333.31998884244456
 20
137.0324366537339
 10
332.54192369805025
 20
137.56137323766995
 10
331.7529972071613
 20
138.07372377658004
 10
330.9535577375067
 20
138.56926203088943
 10
330.1439582990513
 20
139.04776918485507
 10
329.3245563881158
 20
139.50903394318823
 10
328.49571382951706
 20
139.95285262435678
 10
327.65779661679613
 20
140.37902925052512
 10
326.8111747506057
 20
140.7873756340925
 10
325.9562220753286
 20
141.17771146079136
 10
325.09331611399824
 20
141.549864369309
 10
324.2228379015954
 20
141.9036700273976
 10
323.3451718167937
 20
142.23897220443857
 10
322.46070541222895
 20
142.55562284042963
 10
321.56982924336654
 20
142.85348211136406
 10
320.67293669604356
 20
143.13241849097287
 10
319.7704238127603
 20
143.3923088088032
 10
318.8626891177993
 20
143.6330383046069
 10
317.95013344124794
 20
143.85450067901547
 10
317.0331597420036
 20
144.05659814047877
 10
316.11217292983804
 20
144.23924144844707
 10
315.18757968660054
 20
144.40234995277723
 10
314.2597882866391
 20
144.5458516293454
 10
313.3292084165175
 20
144.669683111851
 10
312.3962509941094
 20
144.77378971979726
 10
311.4613279871488
 20
144.85812548263692
 10
310.52485223131646
 20
144.9226531600712
 10
309.5872372479432
 20
144.9673442584943
 10
308.64889706141076
 20
144.99217904357528
 10
307.7102460163302
 20
144.99714654897213
 10
306.7716985945789
 20
144.9822445811743
 10
305.83366923227703
 20
144.94747972047136
 10
304.8965721367845
 20
144.89286731804702
 10
303.9608211037983
 20
144.81843148920083
 10
303.0268293346321
 20
144.7242051026994
 10
302.09500925375823
 20
144.6102297662623
 10
301.1657723266926
 20
144.4765558081897
 10
300.2395288783031
 20
144.32324225513833
 10
299.3166879116217
 20
144.1503568060573
 10
298.39765692724035
 20
143.95797580229396
 10
297.4828417433699
 20
143.7461841938839
 10
296.57264631664236
 20
143.51507550203914
 10
295.6674725637353
 20
143.26475177785204
 10
294.7677201838963
 20
142.99532355723235
 10
293.8737864824471
 20
142.70690981209754
 10
292.9860661953451
 20
142.39963789783826
 10
292.10495131487875
 20
142.07364349708186
 10
291.2308309165748
 20
141.72907055977853
 10
290.3640909873937
 20
141.36607123963728
 10
289.5051142552884
 20
140.98480582693907
 10
288.6542800202027
 20
140.58544267775704
 10
287.8119639865828
 20
140.16815813961534
 10
286.9785380974769
 20
139.73313647361903
 10
286.1543703702959
 20
139.28056977308938
 10
285.3398247343068
 20
138.81065787874113
 10
284.5352608699319
 20
138.32360829043824
 10
283.74103404992456
 20
137.8196360755679
 10
282.95749498248995
 20
137.29896377407277
 10
282.1849896564228
 20
136.76182130018373
 10
281.42385918832804
 20
136.20844584089602
 10
280.6744396719938
 20
135.63908175123436
 10
279.9370620299815
 20
135.0539804463524
 10
279.2120518674998
 20
134.4534002905152
 10
278.4997293286265
 20
133.83760648301248
 10
277.80040895494216
 20
133.2068709410544
 10
277.1143995466371
 20
132.5614721797003
 10
276.4420040261541
 20
131.9016951888745
 10
275.78351930442625
 20
131.22783130752268
 10
275.1392361497696
 20
130.54017809496477
 10
274.5094390594879
 20
129.83903919950126
 10
273.89440613424676
 20
129.12472422433046
 10
273.29440895527205
 20
128.39754859083666
 10
272.70971246442735
 20
127.65783339930877
 10
272.1405748472232
 20
126.90590528715153
 10
271.5872474188095
 20
126.14209628465161
 10
271.04997451300176
 20
125.36674366836247
 10
270.52899337439044
 20
124.58018981217235
 10
270.02453405358
 20
123.78278203612176
 10
269.5368193056055
 20
122.97487245303665
 10
269.0660644915699
 20
122.15681781304536
 10
268.61247748354674
 20
121.3289793460477
 10
268.1762585727898
 20
120.4917226022061
 10
267.75760038129
 20
119.6454172905289
 10
267.356687776719
 20
118.79043711561727
 10
266.9736977907969
 20
117.92715961264777
 10
266.60879954111977
 20
117.05596598066347
 10
266.2621541564824
 20
116.17724091424718
 10
265.93391470572817
 20
115.29137243365105
 10
265.6242261301582
 20
114.39875171345793
 10
265.33322517952945
 20
113.49977290984954
 10
265.0610403516696
 20
112.59483298655829
 10
264.8077918357364
 20
111.68433153957919
 10
264.57359145914523
 20
110.76867062071958
 10
264.35854263818936
 20
109.84825456006429
 10
264.16274033237426
 20
108.92348978743499
 10
263.98627100248615
 20
107.99478465292204
 10
263.82921257241327
 20
107.06254924656871
 10
263.6916343947369
 20
106.127195217287
 10
263.57359722010744
 20
105.18913559108489
 10
263.47515317041825
 20
104.24878458868591
 10
263.3963457157904
 20
103.30655744262073
 10
263.3372096553773
 20
102.3628702138723
 10
263.2977711019985
 20
101.4181396081549
 10
263.2780474706089
 20
100.47278279190881
 10
263.2780474706089
 20
99.5272172080912
 10
263.2977711019985
 20
98.58186039184511
 10
263.3372096553773
 20
97.63712978612772
 10
263.3963457157904
 20
96.69344255737927
 10
263.47515317041825
 20
95.75121541131408
 10
263.57359722010744
 20
94.81086440891511
 10
263.6916343947369
 20
93.87280478271302
 10
263.82921257241327
 20
92.93745075343129
 10
263.98627100248615
 20
92.00521534707798
 10
264.16274033237426
 20
91.07651021256501
 10
264.35854263818936
 20
90.1517454399357
 10
264.57359145914523
 20
89.23132937928042
 10
264.8077918357364
 20
88.31566846042082
 10
265.0610403516696
 20
87.40516701344173
 10
265.33322517952945
 20
86.50022709015047
 10
265.6242261301582
 20
85.60124828654209
 10
265.93391470572817
 20
84.70862756634897
 10
266.2621541564824
 20
83.82275908575284
 10
266.60879954111977
 20
82.94403401933651
 10
266.9736977907969
 20
82.07284038735222
 10
267.356687776719
 20
81.20956288438275
 10
267.75760038129
 20
80.35458270947112
 10
268.1762585727898
 20
79.5082773977939
 10
268.61247748354674
 20
78.6710206539523
 10
269.0660644915699
 20
77.84318218695464
 10
269.5368193056055
 20
77.02512754696333
 10
270.02453405358
 20
76.21721796387823
 10
270.52899337439044
 20
75.41981018782766
 10
271.04997451300176
 20
74.63325633163754
 10
271.5872474188095
 20
73.85790371534839
 10
272.1405748472232
 20
73.09409471284849
 10
272.70971246442735
 20
72.34216660069124
 10
273.29440895527205
 20
71.60245140916334
 10
273.89440613424676
 20
70.87527577566954
 10
274.50943905948793
 20
70.16096080049874
 10
275.1392361497696
 20
69.45982190503523
 10
275.78351930442625
 20
68.77216869247732
 10
276.4420040261541
 20
68.0983048111255
 10
277.1143995466371
 20
67.4385278202997
 10
277.80040895494216
 20
66.79312905894561
 10
278.4997293286265
 20
66.16239351698752
 10
279.2120518674998
 20
65.54659970948482
 10
279.93706202998146
 20
64.9460195536476
 10
280.6744396719938
 20
64.36091824876567
 10
281.42385918832804
 20
63.79155415910398
 10
282.1849896564227
 20
63.23817869981628
 10
282.95749498248995
 20
62.701036225927226
 10
283.74103404992456
 20
62.180363924432115
 10
284.53526086993196
 20
61.67639170956177
 10
285.3398247343068
 20
61.18934212125886
 10
286.1543703702959
 20
60.71943022691061
 10
286.9785380974769
 20
60.26686352638097
 10
287.8119639865828
 20
59.83184186038464
 10
288.6542800202027
 20
59.414557322242956
 10
289.5051142552884
 20
59.01519417306095
 10
290.36409098739364
 20
58.63392876036272
 10
291.23083091657475
 20
58.27092944022148
 10
292.1049513148787
 20
57.92635650291815
 10
292.9860661953451
 20
57.60036210216173
 10
293.8737864824471
 20
57.29309018790247
 10
294.76772018389624
 20
57.004676442767654
 10
295.6674725637353
 20
56.735248222147945
 10
296.57264631664236
 20
56.48492449796086
 10
297.4828417433699
 20
56.25381580611611
 10
298.39765692724035
 20
56.04202419770603
 10
299.3166879116217
 20
55.84964319394271
 10
300.2395288783031
 20
55.676757744861675
 10
301.1657723266926
 20
55.523444191810306
 10
302.09500925375823
 20
55.389770233737686
 10
303.0268293346321
 20
55.27579489730063
 10
303.9608211037983
 20
55.18156851079916
 10
304.8965721367845
 20
55.107132681952976
 10
305.83366923227703
 20
55.05252027952864
 10
306.7716985945789
 20
55.01775541882567
 10
307.7102460163302
 20
55.00285345102788
 10
308.64889706141076
 20
55.00782095642473
 10
309.5872372479432
 20
55.03265574150569
 10
310.52485223131646
 20
55.0773468399288
 10
311.4613279871488
 20
55.141874517363085
 10
312.3962509941094
 20
55.22621028020273
 10
313.3292084165175
 20
55.330316888149014
 10
314.2597882866391
 20
55.454148370654586
 10
315.18757968660054
 20
55.597650047222764
 10
316.11217292983804
 20
55.76075855155293
 10
317.0331597420036
 20
55.94340185952123
 10
317.9501334412479
 20
56.14549932098453
 10
318.8626891177992
 20
56.366961695393094
 10
319.77042381276027
 20
56.6076911911968
 10
320.67293669604356
 20
56.86758150902713
 10
321.56982924336654
 20
57.146517888635934
 10
322.46070541222895
 20
57.44437715957036
 10
323.3451718167937
 20
57.76102779556143
 10
324.2228379015954
 20
58.09632997260239
 10
325.09331611399824
 20
58.45013563069099
 10
325.9562220753286
 20
58.82228853920864
 10
326.8111747506057
 20
59.212624365907494
 10
327.65779661679613
 20
59.62097074947488
 10
328.4957138295171
 20
60.04714737564322
 10
329.3245563881158
 20
60.49096605681177
 10
330.14395829905123
 20
60.95223081514491
 10
330.9535577375067
 20
61.43073796911054
 10
331.75299720716123
 20
61.92627622341996
 10
332.54192369805025
 20
62.438626762330045
 10
333.3199888424445
 20
62.967563346266076
 10
334.0868490686797
 20
63.512852411722754
 10
334.8421657528679
 20
64.07425317439927
 10
335.58560536842447
 20
64.65151773552296
 10
336.3168396333437
 20
65.24439119131421
 10
337.03554565515947
 20
65.85261174554506
 10
337.74140607352484
 20
66.47591082514089
 10
338.43410920034984
 20
67.11401319877469
 10
339.1133491574341
 20
67.76663709840159
 10
339.7788260115339
 20
68.43349434367964
 10
340.4302459068045
 20
69.11429046922211
 10
341.06732119455825
 20
69.80872485462515
 10
341.68977056028257
 20
70.51649085721331
 10
342.2973191478602
 20
71.23727594744429
 10
342.88969868093807
 20
71.97076184691312
 10
343.4666475813905
 20
72.71662466889511
 10
344.0279110848248
 20
73.47453506136495
 10
344.5732413530781
 20
74.24415835242937
 10
345.10239758365566
 20
75.02515469810882
 10
345.61514611606236
 20
75.81717923240299
 10
346.1112605349808
 20
76.61988221957395
 10
346.59052177024967
 20
77.43290920857957
 10
347.05271819359933
 20
78.25590118958914
 10
347.4976457121005
 20
79.08849475251202
 10
347.92510785828637
 20
79.93032224746929
 10
348.3349158769066
 20
80.78101194713759
 10
348.7268888082768
 20
81.6401882108934
 10
349.10085356818496
 20
82.50747165068553
 10
349.4566450243206
 20
83.38247929856193
 10
349.7941060691927
 20
84.2648247757778
 10
350.1130876895037
 20
85.1541184634094
 10
350.41344903194977
 20
86.04996767439896
 10
350.6950574654177
 20
86.95197682695405
 10
350.9577886395507
 20
87.85974761922552
 10
351.20152653965863
 20
88.77287920518629
 10
351.4261635379462
 20
89.69096837163369
 10
351.63160044103876
 20
90.6136097162371
 10
351.81774653378324
 20
91.54039582655213
 10
351.9845196193053
 20
92.47091745992259
 10
352.1318460553052
 20
93.40476372419042
 10
352.2596607865762
 20
94.34152225913418
 10
352.3679073737311
 20
95.28077941855561
 10
352.4565380181244
 20
96.22212045293436
 10
352.5255135829584
 20
97.16512969256944
 10
352.57480361056554
 20
98.10939073112743
 10
352.60438633585716
 20
99.05448660951573
 10
352.6142486959345
 20
99.99999999999999
  0
LINE
  5
99
330
17
100
AcDbEntity
  8
Layer
100
AcDbLine
 10
585.3476462609344
 20
99.99999999999997
 30
0.0
 11
589.3476462609344
 21
99.99999999999997
 31
0.0
  0
LINE
  5
9A
330
17
100
AcDbEntity
  8
Layer
100
AcDbLine
 10
13.971870502858508
 20
100.00000000000004
 30
0.0
 11
9.971870502858508
 21
100.00000000000004
 31
0.0
  0
LINE
  5
9B
330
17
100
AcDbEntity
  8
Layer
100
AcDbLine
 10
132.54702565447366
 20
100.00000000000003
 30
0.0
 11
121.54702565447366
 21
100.00000000000003
 31
0.0
  0
LWPOLYLINE
  5
9C
330
17
100
AcDbEntity
  8
Layer
100
AcDbPolyline
 90
5
 70
0
 10
122.04702565447366
 20
95.00000000000003
 10
122.04702565447366
 20
105.00000000000003
 10
132.04702565447366
 20
105.00000000000003
 10
132.04702565447366
 20
95.00000000000003
 10
122.04702565447366
 20
95.00000000000003
  0
LINE
  5
9D
330
17
100
AcDbEntity
  8
Layer
100
AcDbLine
 10
305.15975838189644
 20
100.0
 30
0.0
 11
294.15975838189644
 21
100.0
 31
0.0
  0
LWPOLYLINE
  5
9E
330
17
100
AcDbEntity
  8
Layer
100
AcDbPolyline
 90
5
 70
0
 10
294.65975838189644
 20
95.0
 10
294.65975838189644
 20
105.0
 10
304.65975838189644
 20
105.0
 10
304.65975838189644
 20
95.0
 10
294.65975838189644
 20
95.0
  0
LINE
  5
9F
330
17
100
AcDbEntity
  8
Layer
100
AcDbLine
 10
477.7724911093192
 20
99.99999999999999
 30
0.0
 11
466.7724911093192
 21
99.99999999999999
 31
0.0
  0
LWPOLYLINE
  5
A0
330
17
100
AcDbEntity
  8
Layer
100
AcDbPolyline
 90
5
 70
0
 10
467.2724911093192
 20
94.99999999999999
 10
467.2724911093192
 20
104.99999999999999
 10
477.2724911093192
 20
104.99999999999999
 10
477.2724911093192
 20
94.99999999999999
 10
467.2724911093192
 20
94.99999999999999
  0
LINE
  5
A1
330
17
100
AcDbEntity
  8
Layer
100
AcDbLine
 10
1.046508304910219
 20
79.77973923700534
 30
0.0
 11
-2.941702703997464
 21
80.08661534951261
 31
0.0
  0
LINE
  5
A2
330
17
100
AcDbEntity
  8
Layer
100
AcDbLine
 10
518.1278873780451
 20
39.99249550655768
 30
0.0
 11
522.1160983869528
 21
39.6856193940504
 31
0.0
  0
LINE
  5
A3
330
17
100
AcDbEntity
  8
Layer
100
AcDbLine
 10
808.0878379369067
 20
17.68129326285387
 30
0.0
 11
812.0760489458144
 21
17.374417150346602
 31
0.0
  0
LINE
  5
A4
330
17
100
AcDbEntity
  8
Layer
100
AcDbLine
 10
307.9449152542372
 20
144.99776749999998
 30
0.0
 11
307.9449152542372
 21
145.49776749999998
 31
0.0
  0
LINE
  5
A5
330
17
100
AcDbEntity
  8
Layer
100
AcDbLine
 10
307.9449152542372
 20
55.00223250000002
 30
0.0
 11
307.9449152542372
 21
54.50223250000002
 31
0.0
  0
LINE
  5
A6
330
17
100
AcDbEntity
  8
Layer
100
AcDbLine
 10
352.6142486959345
 20
100.0
 30
0.0
 11
353.1142486959345
 21
100.0
 31
0.0
  0
LINE
  5
A7
330
17
100
AcDbEntity
  8
Layer
100
AcDbLine
 10
263.2755818125398
 20
100.0
 30
0.0
 11
262.7755818125398
 21
100.0
 31
0.0
  0
LINE
  5
A8
330
17
100
AcDbEntity
  8
Layer
100
AcDbLine
 10
87.94491525423717
 20
135.32802486497877
 30
0.0
 11
87.94491525423717
 21
139.32802486497877
 31
0.0
  0
LINE
  5
A9
330
17
100
AcDbEntity
  8
Layer
100
AcDbLine
 10
87.94491525423717
 20
53.52562291339414
 30
0.0
 11
87.94491525423717
 21
49.52562291339414
 31
0.0
  0
LINE
  5
AA
330
17
100
AcDbEntity
  8
Layer
100
AcDbLine
 10
87.94491525423717
 20
74.18610330371106
 30
0.0
 11
87.94491525423717
 21
63.186103303711064
 31
0.0
  0
LWPOLYLINE
  5
AB
330
17
100
AcDbEntity
  8
Layer
100
AcDbPolyline
 90
5
 70
0
 10
92.94491525423717
 20
63.686103303711064
 10
82.94491525423717
 20
63.686103303711064
 10
82.94491525423717
 20
73.68610330371106
 10
92.94491525423717
 20
73.68610330371106
 10
92.94491525423717
 20
63.686103303711064
  0
LINE
  5
AC
330
17
100
AcDbEntity
  8
Layer
100
AcDbLine
 10
87.94491525423717
 20
99.92682388918645
 30
0.0
 11
87.94491525423717
 21
88.92682388918645
 31
0.0
  0
LWPOLYLINE
  5
AD
330
17
100
AcDbEntity
  8
Layer
100
AcDbPolyline
 90
5
 70
0
 10
92.94491525423717
 20
89.42682388918645
 10
82.94491525423717
 20
89.42682388918645
 10
82.94491525423717
 20
99.42682388918645
 10
92.94491525423717
 20
99.42682388918645
 10
92.94491525423717
 20
89.42682388918645
  0
LINE
  5
AE
330
17
100
AcDbEntity
  8
Layer
100
AcDbLine
 10
87.94491525423717
 20
125.66754447466184
 30
0.0
 11
87.94491525423717
 21
114.66754447466184
 31
0.0
  0
LWPOLYLINE
  5
AF
330
17
100
AcDbEntity
  8
Layer
100
AcDbPolyline
 90
5
 70
0
 10
92.94491525423717
 20
115.16754447466184
 10
82.94491525423717
 20
115.16754447466184
 10
82.94491525423717
 20
125.16754447466184
 10
92.94491525423717
 20
125.16754447466184
 10
92.94491525423717
 20
115.16754447466184
  0
LINE
  5
B0
330
17
100
AcDbEntity
  8
Layer
100
AcDbLine
 10
507.9449152542372
 20
121.72791464034376
 30
0.0
 11
507.9449152542372
 21
125.72791464034376
 31
0.0
  0
LINE
  5
B1
330
17
100
AcDbEntity
  8
Layer
100
AcDbLine
 10
507.9449152542372
 20
42.11087671748214
 30
0.0
 11
507.9449152542372
 21
38.11087671748214
 31
0.0
  0
LINE
  5
B2
330
17
100
AcDbEntity
  8
Layer
100
AcDbLine
 10
507.9449152542372
 20
62.33428430205446
 30
0.0
 11
507.9449152542372
 21
51.33428430205446
 31
0.0
  0
LWPOLYLINE
  5
B3
330
17
100
AcDbEntity
  8
Layer
100
AcDbPolyline
 90
5
 70
0
 10
512.9449152542372
 20
51.83428430205446
 10
502.9449152542372
 20
51.83428430205446
 10
502.9449152542372
 20
61.83428430205446
 10
512.9449152542372
 20
61.83428430205446
 10
512.9449152542372
 20
51.83428430205446
  0
LINE
  5
B4
330
17
100
AcDbEntity
  8
Layer
100
AcDbLine
 10
507.9449152542372
 20
87.41939567891295
 30
0.0
 11
507.9449152542372
 21
76.41939567891295
 31
0.0
  0
LWPOLYLINE
  5
B5
330
17
100
AcDbEntity
  8
Layer
100
AcDbPolyline
 90
5
 70
0
 10
512.9449152542372
 20
76.91939567891295
 10
502.9449152542372
 20
76.91939567891295
 10
502.9449152542372
 20
86.91939567891295
 10
512.9449152542372
 20
86.91939567891295
 10
512.9449152542372
 20
76.91939567891295
  0
LINE
  5
B6
330
17
100
AcDbEntity
  8
Layer
100
AcDbLine
 10
507.9449152542372
 20
112.50450705577144
 30
0.0
 11
507.9449152542372
 21
101.50450705577144
 31
0.0
  0
LWPOLYLINE
  5
B7
330
17
100
AcDbEntity
  8
Layer
100
AcDbPolyline
 90
5
 70
0
 10
512.9449152542372
 20
102.00450705577144
 10
502.9449152542372
 20
102.00450705577144
 10
502.9449152542372
 20
112.00450705577144
 10
512.9449152542372
 20
112.00450705577144
 10
512.9449152542372
 20
102.00450705577144
  0
ENDSEC
  0
SECTION
  2
OBJECTS
  0
DICTIONARY
  5
A
330
0
100
AcDbDictionary
280
0
281
1
  3
ACAD_COLOR
350
B
  3
ACAD_GROUP
350
C
  3
ACAD_LAYOUT
350
D
  3
ACAD_MATERIAL
350
E
  3
ACAD_MLEADERSTYLE
350
F
  3
ACAD_MLINESTYLE
350
10
  3
ACAD_PLOTSETTINGS
350
11
  3
ACAD_PLOTSTYLENAME
350
12
  3
ACAD_SCALELIST
350
14
  3
ACAD_TABLESTYLE
350
15
  3
ACAD_VISUALSTYLE
350
16
  3
EZDXF_META
350
2D
  0
DICTIONARY
  5
B
330
A
100
AcDbDictionary
280
0
281
1
  0
DICTIONARY
  5
C
330
A
100
AcDbDictionary
280
0
281
1
  0
DICTIONARY
  5
D
330
A
100
AcDbDictionary
280
0
281
1
  3
Model
350
1A
  3
Layout1
350
1E
  0
DICTIONARY
  5
E
330
A
100
AcDbDictionary
280
0
281
1
  3
ByBlock
350
1F
  3
ByLayer
350
20
  3
Global
350
21
  0
DICTIONARY
  5
F
330
A
100
AcDbDictionary
280
0
281
1
  3
Standard
350
2C
  0
DICTIONARY
  5
10
330
A
100
AcDbDictionary
280
0
281
1
  3
Standard
350
22
  0
DICTIONARY
  5
11
330
A
100
AcDbDictionary
280
0
281
1
  0
ACDBDICTIONARYWDFLT
  5
12
330
A
100
AcDbDictionary
280
0
281
1
  3
Normal
350
13
100
AcDbDictionaryWithDefault
340
13
  0
ACDBPLACEHOLDER
  5
13
330
12
  0
DICTIONARY
  5
14
330
A
100
AcDbDictionary
280
0
281
1
  0
DICTIONARY
  5
15
330
A
100
AcDbDictionary
280
0
281
1
  0
DICTIONARY
  5
16
330
A
100
AcDbDictionary
280
0
281
1
  3
2dWireframe
350
5A
  3
Basic
350
5B
  3
Brighten
350
5C
  3
ColorChange
350
5D
  3
Conceptual
350
5E
  3
Dim
350
5F
  3
EdgeColorOff
350
60
  3
Facepattern
350
61
  3
Flat
350
62
  3
FlatWithEdges
350
63
  3
Gouraud
350
64
  3
GouraudWithEdges
350
65
  3
Hidden
350
66
  3
JitterOff
350
67
  3
Linepattern
350
68
  3
Modeling
350
69
  3
OverhangOff
350
6A
  3
Realistic
350
6B
  3
Shaded
350
6C
  3
Shaded with edges
350
6D
  3
Shades of Gray
350
6E
  3
Sketchy
350
6F
  3
Thicken
350
70
  3
Wireframe
350
71
  3
X-Ray
350
72
  0
LAYOUT
  5
1A
330
D
100
AcDbPlotSettings
  1

  2
Adobe PDF
  4
A3
  6

 40
7.5
 41
20.0
 42
7.5
 43
20.0
 44
420.0
 45
297.0
 46
0.0
 47
0.0
 48
0.0
 49
0.0
140
0.0
141
0.0
142
1.0
143
1.0
 70
1024
 72
1
 73
0
 74
5
  7

 75
16
 76
0
 77
2
 78
300
147
1.0
148
0.0
149
0.0
100
AcDbLayout
  1
Model
 70
1
 71
0
 10
0.0
 20
0.0
 11
420.0
 21
297.0
 12
0.0
 22
0.0
 32
0.0
 14
1e+20
 24
1e+20
 34
1e+20
 15
-1e+20
 25
-1e+20
 35
-1e+20
146
0.0
 13
0.0
 23
0.0
 33
0.0
 16
1.0
 26
0.0
 36
0.0
 17
0.0
 27
1.0
 37
0.0
 76
1
330
17
  0
LAYOUT
  5
1E
330
D
100
AcDbPlotSettings
  1

  2
Adobe PDF
  4
A3
  6

 40
7.5
 41
20.0
 42
7.5
 43
20.0
 44
420.0
 45
297.0
 46
0.0
 47
0.0
 48
0.0
 49
0.0
140
0.0
141
0.0
142
1.0
143
1.0
 70
0
 72
1
 73
0
 74
5
  7

 75
16
 76
0
 77
2
 78
300
147
1.0
148
0.0
149
0.0
100
AcDbLayout
  1
Layout1
 70
1
 71
1
 10
0.0
 20
0.0
 11
420.0
 21
297.0
 12
0.0
 22
0.0
 32
0.0
 14
1e+20
 24
1e+20
 34
1e+20
 15
-1e+20
 25
-1e+20
 35
-1e+20
146
0.0
 13
0.0
 23
0.0
 33
0.0
 16
1.0
 26
0.0
 36
0.0
 17
0.0
 27
1.0
 37
0.0
 76
1
330
1B
  0
MATERIAL
  5
1F
102
{ACAD_REACTORS
330
E
102
}
330
E
100
AcDbMaterial
  1
ByBlock
  2

 70
0
 40
1.0
 71
1
 41
1.0
 91
-1023410177
 42
1.0
 72
1
  3

 73
1
 74
1
 75
1
 44
0.5
 73
0
 45
1.0
 46
1.0
 77
1
  4

 78
1
 79
1
170
1
 48
1.0
171
1
  6

172
1
173
1
174
1
140
1.0
141
1.0
175
1
  7

176
1
177
1
178
1
143
1.0
179
1
  8

270
1
271
1
272
1
145
1.0
146
1.0
273
1
  9

274
1
275
1
276
1
 42
1.0
 72
1
  3

 73
1
 74
1
 75
1
 94
63
  0
MATERIAL
  5
20
102
{ACAD_REACTORS
330
E
102
}
330
E
100
AcDbMaterial
  1
ByLayer
  2

 70
0
 40
1.0
 71
1
 41
1.0
 91
-1023410177
 42
1.0
 72
1
  3

 73
1
 74
1
 75
1
 44
0.5
 73
0
 45
1.0
 46
1.0
 77
1
  4

 78
1
 79
1
170
1
 48
1.0
171
1
  6

172
1
173
1
174
1
140
1.0
141
1.0
175
1
  7

176
1
177
1
178
1
143
1.0
179
1
  8

270
1
271
1
272
1
145
1.0
146
1.0
273
1
  9

274
1
275
1
276
1
 42
1.0
 72
1
  3

 73
1
 74
1
 75
1
 94
63
  0
MATERIAL
  5
21
102
{ACAD_REACTORS
330
E
102
}
330
E
100
AcDbMaterial
  1
Global
  2

 70
0
 40
1.0
 71
1
 41
1.0
 91
-1023410177
 42
1.0
 72
1
  3

 73
1
 74
1
 75
1
 44
0.5
 73
0
 45
1.0
 46
1.0
 77
1
  4

 78
1
 79
1
170
1
 48
1.0
171
1
  6

172
1
173
1
174
1
140
1.0
141
1.0
175
1
  7

176
1
177
1
178
1
143
1.0
179
1
  8

270
1
271
1
272
1
145
1.0
146
1.0
273
1
  9

274
1
275
1
276
1
 42
1.0
 72
1
  3

 73
1
 74
1
 75
1
 94
63
  0
MLINESTYLE
  5
22
102
{ACAD_REACTORS
330
10
102
}
330
10
100
AcDbMlineStyle
  2
Standard
 70
0
  3

 62
256
 51
90.0
 52
90.0
 71
2
 49
0.5
 62
256
  6
BYLAYER
 49
-0.5
 62
256
  6
BYLAYER
  0
MLEADERSTYLE
  5
2C
102
{ACAD_REACTORS
330
F
102
}
330
F
100
AcDbMLeaderStyle
179
2
170
2
171
1
172
0
 90
2
 40
0.0
 41
0.0
173
1
 91
-1056964608
 92
-2
290
1
 42
2.0
291
1
 43
8.0
  3
Standard
 44
4.0
300

342
29
174
1
175
1
176
0
178
1
 93
-1056964608
 45
4.0
292
0
297
0
 46
4.0
 94
-1056964608
 47
1.0
 49
1.0
140
1.0
294
1
141
0.0
177
0
142
1.0
295
0
296
0
143
3.75
271
0
272
9
273
9
  0
DICTIONARY
  5
2D
330
A
100
AcDbDictionary
281
1
  3
CREATED_BY_EZDXF
350
2E
  3
WRITTEN_BY_EZDXF
350
BA
  0
DICTIONARYVAR
  5
2E
330
2D
100
DictionaryVariables
280
0
  1
1.1.0 @ 2024-03-26T01:33:49.205997+00:00
  0
VISUALSTYLE
  5
5A
102
{ACAD_REACTORS
330
16
102
}
330
16
100
AcDbVisualStyle
  2
2dWireframe
 70
4
 90
0
 40
0.6
 62
7
290
0
291
0
  0
VISUALSTYLE
  5
5B
102
{ACAD_REACTORS
330
16
102
}
330
16
100
AcDbVisualStyle
  2
Basic
 70
7
 90
1
 40
0.6
 62
7
290
0
291
1
  0
VISUALSTYLE
  5
5C
102
{ACAD_REACTORS
330
16
102
}
330
16
100
AcDbVisualStyle
  2
Brighten
 70
12
 90
2
 40
0.6
 62
7
290
0
291
1
  0
VISUALSTYLE
  5
5D
102
{ACAD_REACTORS
330
16
102
}
330
16
100
AcDbVisualStyle
  2
ColorChange
 70
16
 90
2
 40
0.6
 62
8
290
0
291
1
  0
VISUALSTYLE
  5
5E
102
{ACAD_REACTORS
330
16
102
}
330
16
100
AcDbVisualStyle
  2
Conceptual
 70
9
 90
3
 40
0.6
 62
7
290
0
291
0
  0
VISUALSTYLE
  5
5F
102
{ACAD_REACTORS
330
16
102
}
330
16
100
AcDbVisualStyle
  2
Dim
 70
11
 90
2
 40
0.6
 62
7
290
0
291
1
  0
VISUALSTYLE
  5
60
102
{ACAD_REACTORS
330
16
102
}
330
16
100
AcDbVisualStyle
  2
EdgeColorOff
 70
22
 90
2
 40
0.6
 62
7
290
0
291
1
  0
VISUALSTYLE
  5
61
102
{ACAD_REACTORS
330
16
102
}
330
16
100
AcDbVisualStyle
  2
Facepattern
 70
15
 90
2
 40
0.6
 62
7
290
0
291
1
  0
VISUALSTYLE
  5
62
102
{ACAD_REACTORS
330
16
102
}
330
16
100
AcDbVisualStyle
  2
Flat
 70
0
 90
2
 40
0.6
 62
7
290
0
291
1
  0
VISUALSTYLE
  5
63
102
{ACAD_REACTORS
330
16
102
}
330
16
100
AcDbVisualStyle
  2
FlatWithEdges
 70
1
 90
2
 40
0.6
 62
7
290
0
291
1
  0
VISUALSTYLE
  5
64
102
{ACAD_REACTORS
330
16
102
}
330
16
100
AcDbVisualStyle
  2
Gouraud
 70
2
 90
2
 40
0.6
 62
7
290
0
291
1
  0
VISUALSTYLE
  5
65
102
{ACAD_REACTORS
330
16
102
}
330
16
100
AcDbVisualStyle
  2
GouraudWithEdges
 70
3
 90
2
 40
0.6
 62
7
290
0
291
1
  0
VISUALSTYLE
  5
66
102
{ACAD_REACTORS
330
16
102
}
330
16
100
AcDbVisualStyle
  2
Hidden
 70
6
 90
1
 40
0.6
 62
7
290
0
291
0
  0
VISUALSTYLE
  5
67
102
{ACAD_REACTORS
330
16
102
}
330
16
100
AcDbVisualStyle
  2
JitterOff
 70
20
 90
2
 40
0.6
 62
7
290
0
291
1
  0
VISUALSTYLE
  5
68
102
{ACAD_REACTORS
330
16
102
}
330
16
100
AcDbVisualStyle
  2
Linepattern
 70
14
 90
2
 40
0.6
 62
7
290
0
291
1
  0
VISUALSTYLE
  5
69
102
{ACAD_REACTORS
330
16
102
}
330
16
100
AcDbVisualStyle
  2
Modeling
 70
10
 90
2
 40
0.6
 62
7
290
0
291
0
  0
VISUALSTYLE
  5
6A
102
{ACAD_REACTORS
330
16
102
}
330
16
100
AcDbVisualStyle
  2
OverhangOff
 70
21
 90
2
 40
0.6
 62
7
290
0
291
1
  0
VISUALSTYLE
  5
6B
102
{ACAD_REACTORS
330
16
102
}
330
16
100
AcDbVisualStyle
  2
Realistic
 70
8
 90
2
 40
0.6
 62
7
290
0
291
0
  0
VISUALSTYLE
  5
6C
102
{ACAD_REACTORS
330
16
102
}
330
16
100
AcDbVisualStyle
  2
Shaded
 70
27
 90
2
 40
0.6
 62
7
290
0
291
0
  0
VISUALSTYLE
  5
6D
102
{ACAD_REACTORS
330
16
102
}
330
16
100
AcDbVisualStyle
  2
Shaded with edges
 70
26
 90
2
 40
0.6
 62
7
290
0
291
0
  0
VISUALSTYLE
  5
6E
102
{ACAD_REACTORS
330
16
102
}
330
16
100
AcDbVisualStyle
  2
Shades of Gray
 70
23
 90
2
 40
0.6
 62
7
290
0
291
0
  0
VISUALSTYLE
  5
6F
102
{ACAD_REACTORS
330
16
102
}
330
16
100
AcDbVisualStyle
  2
Sketchy
 70
24
 90
1
 40
0.6
 62
7
290
0
291
0
  0
VISUALSTYLE
  5
70
102
{ACAD_REACTORS
330
16
102
}
330
16
100
AcDbVisualStyle
  2
Thicken
 70
13
 90
2
 40
0.6
 62
7
290
0
291
1
  0
VISUALSTYLE
  5
71
102
{ACAD_REACTORS
330
16
102
}
330
16
100
AcDbVisualStyle
  2
Wireframe
 70
5
 90
0
 40
0.6
 62
7
290
0
291
0
  0
VISUALSTYLE
  5
72
102
{ACAD_REACTORS
330
16
102
}
330
16
100
AcDbVisualStyle
  2
X-Ray
 70
25
 90
2
 40
0.5
 62
7
290
0
291
0
  0
DICTIONARYVAR
  5
BA
330
2D
100
DictionaryVariables
280
0
  1
1.1.0 @ 2024-03-26T01:33:49.222678+00:00
  0
ENDSEC
  0
EOF
