  0
SECTION
  2
HEADER
  9
$ACADVER
  1
AC1021
  9
$ACADMAINTVER
 70
25
  9
$DWGCODEPAGE
  3
ANSI_1252
  9
$LASTSAVEDBY
  1
ezdxf
  9
$INSBASE
 10
0.0
 20
0.0
 30
0.0
  9
$EXTMIN
 10
1e+20
 20
1e+20
 30
1e+20
  9
$EXTMAX
 10
-1e+20
 20
-1e+20
 30
-1e+20
  9
$LIMMIN
 10
0.0
 20
0.0
  9
$LIMMAX
 10
420.0
 20
297.0
  9
$ORTHOMODE
 70
0
  9
$REGENMODE
 70
1
  9
$FILLMODE
 70
1
  9
$QTEXTMODE
 70
0
  9
$MIRRTEXT
 70
1
  9
$LTSCALE
 40
1.0
  9
$ATTMODE
 70
1
  9
$TEXTSIZE
 40
2.5
  9
$TRACEWID
 40
1.0
  9
$TEXTSTYLE
  7
OpenSans
  9
$CLAYER
  8
0
  9
$CELTYPE
  6
ByLayer
  9
$CECOLOR
 62
256
  9
$CELTSCALE
 40
1.0
  9
$DISPSILH
 70
0
  9
$DIMSCALE
 40
1.0
  9
$DIMASZ
 40
0.175
  9
$DIMEXO
 40
0.125
  9
$DIMDLI
 40
3.75
  9
$DIMRND
 40
0.0
  9
$DIMDLE
 40
0.0
  9
$DIMEXE
 40
0.375
  9
$DIMTP
 40
0.0
  9
$DIMTM
 40
0.0
  9
$DIMTXT
 40
0.25
  9
$DIMCEN
 40
2.5
  9
$DIMTSZ
 40
0.0
  9
$DIMTOL
 70
0
  9
$DIMLIM
 70
0
  9
$DIMTIH
 70
0
  9
$DIMTOH
 70
0
  9
$DIMSE1
 70
0
  9
$DIMSE2
 70
0
  9
$DIMTAD
 70
1
  9
$DIMZIN
 70
12
  9
$DIMBLK
  1
ARCHTICK
  9
$DIMASO
 70
1
  9
$DIMSHO
 70
1
  9
$DIMPOST
  1

  9
$DIMAPOST
  1

  9
$DIMALT
 70
0
  9
$DIMALTD
 70
3
  9
$DIMALTF
 40
0.03937007874
  9
$DIMLFAC
 40
100.0
  9
$DIMTOFL
 70
1
  9
$DIMTVP
 40
0.0
  9
$DIMTIX
 70
0
  9
$DIMSOXD
 70
0
  9
$DIMSAH
 70
0
  9
$DIMBLK1
  1

  9
$DIMBLK2
  1

  9
$DIMSTYLE
  2
EZDXF
  9
$DIMCLRD
 70
0
  9
$DIMCLRE
 70
0
  9
$DIMCLRT
 70
0
  9
$DIMTFAC
 40
0.5
  9
$DIMGAP
 40
0.1
  9
$DIMJUST
 70
0
  9
$DIMSD1
 70
0
  9
$DIMSD2
 70
0
  9
$DIMTOLJ
 70
0
  9
$DIMTZIN
 70
8
  9
$DIMALTZ
 70
0
  9
$DIMALTTZ
 70
0
  9
$DIMUPT
 70
1
  9
$DIMDEC
 70
2
  9
$DIMTDEC
 70
2
  9
$DIMALTU
 70
2
  9
$DIMALTTD
 70
3
  9
$DIMTXSTY
  7
OpenSansCondensed-Light
  9
$DIMAUNIT
 70
0
  9
$DIMADEC
 70
2
  9
$DIMALTRND
 40
0.0
  9
$DIMAZIN
 70
3
  9
$DIMDSEP
 70
46
  9
$DIMATFIT
 70
3
  9
$DIMFRAC
 70
0
  9
$DIMLDRBLK
  1

  9
$DIMLUNIT
 70
2
  9
$DIMLWD
 70
-2
  9
$DIMLWE
 70
-2
  9
$DIMTMOVE
 70
2
  9
$DIMFXL
 40
1.0
  9
$DIMFXLON
 70
0
  9
$DIMJOGANG
 40
0.785398163397
  9
$DIMTFILL
 70
0
  9
$DIMTFILLCLR
 70
0
  9
$DIMARCSYM
 70
0
  9
$DIMLTYPE
  6

  9
$DIMLTEX1
  6

  9
$DIMLTEX2
  6

  9
$LUNITS
 70
2
  9
$LUPREC
 70
4
  9
$SKETCHINC
 40
1.0
  9
$FILLETRAD
 40
10.0
  9
$AUNITS
 70
0
  9
$AUPREC
 70
2
  9
$MENU
  1
.
  9
$ELEVATION
 40
0.0
  9
$PELEVATION
 40
0.0
  9
$THICKNESS
 40
0.0
  9
$LIMCHECK
 70
0
  9
$CHAMFERA
 40
0.0
  9
$CHAMFERB
 40
0.0
  9
$CHAMFERC
 40
0.0
  9
$CHAMFERD
 40
0.0
  9
$SKPOLY
 70
0
  9
$TDCREATE
 40
2460396.440162037
  9
$TDUCREATE
 40
2458532.153996898
  9
$TDUPDATE
 40
2460396.440162037
  9
$TDUUPDATE
 40
2458532.1544311
  9
$TDINDWG
 40
0.0
  9
$TDUSRTIMER
 40
0.0
  9
$USRTIMER
 70
1
  9
$ANGBASE
 50
0.0
  9
$ANGDIR
 70
0
  9
$PDMODE
 70
0
  9
$PDSIZE
 40
0.0
  9
$PLINEWID
 40
0.0
  9
$SPLFRAME
 70
0
  9
$SPLINETYPE
 70
6
  9
$SPLINESEGS
 70
8
  9
$HANDSEED
  5
BB
  9
$SURFTAB1
 70
6
  9
$SURFTAB2
 70
6
  9
$SURFTYPE
 70
6
  9
$SURFU
 70
6
  9
$SURFV
 70
6
  9
$UCSBASE
  2

  9
$UCSNAME
  2

  9
$UCSORG
 10
0.0
 20
0.0
 30
0.0
  9
$UCSXDIR
 10
1.0
 20
0.0
 30
0.0
  9
$UCSYDIR
 10
0.0
 20
1.0
 30
0.0
  9
$UCSORTHOREF
  2

  9
$UCSORTHOVIEW
 70
0
  9
$UCSORGTOP
 10
0.0
 20
0.0
 30
0.0
  9
$UCSORGBOTTOM
 10
0.0
 20
0.0
 30
0.0
  9
$UCSORGLEFT
 10
0.0
 20
0.0
 30
0.0
  9
$UCSORGRIGHT
 10
0.0
 20
0.0
 30
0.0
  9
$UCSORGFRONT
 10
0.0
 20
0.0
 30
0.0
  9
$UCSORGBACK
 10
0.0
 20
0.0
 30
0.0
  9
$PUCSBASE
  2

  9
$PUCSNAME
  2

  9
$PUCSORG
 10
0.0
 20
0.0
 30
0.0
  9
$PUCSXDIR
 10
1.0
 20
0.0
 30
0.0
  9
$PUCSYDIR
 10
0.0
 20
1.0
 30
0.0
  9
$PUCSORTHOREF
  2

  9
$PUCSORTHOVIEW
 70
0
  9
$PUCSORGTOP
 10
0.0
 20
0.0
 30
0.0
  9
$PUCSORGBOTTOM
 10
0.0
 20
0.0
 30
0.0
  9
$PUCSORGLEFT
 10
0.0
 20
0.0
 30
0.0
  9
$PUCSORGRIGHT
 10
0.0
 20
0.0
 30
0.0
  9
$PUCSORGFRONT
 10
0.0
 20
0.0
 30
0.0
  9
$PUCSORGBACK
 10
0.0
 20
0.0
 30
0.0
  9
$USERI1
 70
0
  9
$USERI2
 70
0
  9
$USERI3
 70
0
  9
$USERI4
 70
0
  9
$USERI5
 70
0
  9
$USERR1
 40
0.0
  9
$USERR2
 40
0.0
  9
$USERR3
 40
0.0
  9
$USERR4
 40
0.0
  9
$USERR5
 40
0.0
  9
$WORLDVIEW
 70
1
  9
$SHADEDGE
 70
3
  9
$SHADEDIF
 70
70
  9
$TILEMODE
 70
1
  9
$MAXACTVP
 70
64
  9
$PINSBASE
 10
0.0
 20
0.0
 30
0.0
  9
$PLIMCHECK
 70
0
  9
$PEXTMIN
 10
1e+20
 20
1e+20
 30
1e+20
  9
$PEXTMAX
 10
-1e+20
 20
-1e+20
 30
-1e+20
  9
$PLIMMIN
 10
0.0
 20
0.0
  9
$PLIMMAX
 10
420.0
 20
297.0
  9
$UNITMODE
 70
0
  9
$VISRETAIN
 70
1
  9
$PLINEGEN
 70
0
  9
$PSLTSCALE
 70
1
  9
$TREEDEPTH
 70
3020
  9
$CMLSTYLE
  2
Standard
  9
$CMLJUST
 70
0
  9
$CMLSCALE
 40
20.0
  9
$PROXYGRAPHICS
 70
1
  9
$MEASUREMENT
 70
1
  9
$CELWEIGHT
370
-1
  9
$ENDCAPS
280
0
  9
$JOINSTYLE
280
0
  9
$LWDISPLAY
290
0
  9
$INSUNITS
 70
6
  9
$HYPERLINKBASE
  1

  9
$STYLESHEET
  1

  9
$XEDIT
290
1
  9
$CEPSNTYPE
380
0
  9
$PSTYLEMODE
290
1
  9
$FINGERPRINTGUID
  2
{86832A07-0B37-4A5A-884C-902962202E64}
  9
$VERSIONGUID
  2
{6281AE5E-55AA-42D8-8AC7-282F8B7822FA}
  9
$EXTNAMES
290
1
  9
$PSVPSCALE
 40
0.0
  9
$OLESTARTUP
290
0
  9
$SORTENTS
280
127
  9
$INDEXCTL
280
0
  9
$HIDETEXT
280
1
  9
$XCLIPFRAME
290
0
  9
$HALOGAP
280
0
  9
$OBSCOLOR
 70
257
  9
$OBSLTYPE
280
0
  9
$INTERSECTIONDISPLAY
280
0
  9
$INTERSECTIONCOLOR
 70
257
  9
$DIMASSOC
280
2
  9
$PROJECTNAME
  1

  9
$CAMERADISPLAY
290
0
  9
$LENSLENGTH
 40
50.0
  9
$CAMERAHEIGHT
 40
0.0
  9
$STEPSPERSEC
 40
24.0
  9
$STEPSIZE
 40
100.0
  9
$3DDWFPREC
 40
2.0
  9
$PSOLWIDTH
 40
0.005
  9
$PSOLHEIGHT
 40
0.08
  9
$LOFTANG1
 40
1.570796326795
  9
$LOFTANG2
 40
1.570796326795
  9
$LOFTMAG1
 40
0.0
  9
$LOFTMAG2
 40
0.0
  9
$LOFTPARAM
 70
7
  9
$LOFTNORMALS
280
1
  9
$LATITUDE
 40
37.795
  9
$LONGITUDE
 40
-122.394
  9
$NORTHDIRECTION
 40
0.0
  9
$TIMEZONE
 70
-8000
  9
$LIGHTGLYPHDISPLAY
280
1
  9
$TILEMODELIGHTSYNCH
280
1
  9
$CMATERIAL
347
20
  9
$SOLIDHIST
280
0
  9
$SHOWHIST
280
1
  9
$DWFFRAME
280
2
  9
$DGNFRAME
280
2
  9
$REALWORLDSCALE
290
1
  9
$INTERFERECOLOR
 62
256
  9
$CSHADOW
280
0
  9
$SHADOWPLANELOCATION
 40
0.0
  0
ENDSEC
  0
SECTION
  2
CLASSES
  0
CLASS
  1
ACDBDICTIONARYWDFLT
  2
AcDbDictionaryWithDefault
  3
ObjectDBX Classes
 90
0
 91
0
280
0
281
0
  0
CLASS
  1
SUN
  2
AcDbSun
  3
SCENEOE
 90
1153
 91
0
280
0
281
0
  0
CLASS
  1
VISUALSTYLE
  2
AcDbVisualStyle
  3
ObjectDBX Classes
 90
4095
 91
0
280
0
281
0
  0
CLASS
  1
MATERIAL
  2
AcDbMaterial
  3
ObjectDBX Classes
 90
1153
 91
0
280
0
281
0
  0
CLASS
  1
SCALE
  2
AcDbScale
  3
ObjectDBX Classes
 90
1153
 91
0
280
0
281
0
  0
CLASS
  1
TABLESTYLE
  2
AcDbTableStyle
  3
ObjectDBX Classes
 90
4095
 91
0
280
0
281
0
  0
CLASS
  1
MLEADERSTYLE
  2
AcDbMLeaderStyle
  3
ACDB_MLEADERSTYLE_CLASS
 90
4095
 91
0
280
0
281
0
  0
CLASS
  1
DICTIONARYVAR
  2
AcDbDictionaryVar
  3
ObjectDBX Classes
 90
0
 91
0
280
0
281
0
  0
CLASS
  1
CELLSTYLEMAP
  2
AcDbCellStyleMap
  3
ObjectDBX Classes
 90
1152
 91
0
280
0
281
0
  0
CLASS
  1
MENTALRAYRENDERSETTINGS
  2
AcDbMentalRayRenderSettings
  3
SCENEOE
 90
1024
 91
0
280
0
281
0
  0
CLASS
  1
ACDBDETAILVIEWSTYLE
  2
AcDbDetailViewStyle
  3
ObjectDBX Classes
 90
1025
 91
0
280
0
281
0
  0
CLASS
  1
ACDBSECTIONVIEWSTYLE
  2
AcDbSectionViewStyle
  3
ObjectDBX Classes
 90
1025
 91
0
280
0
281
0
  0
CLASS
  1
RASTERVARIABLES
  2
AcDbRasterVariables
  3
ISM
 90
0
 91
0
280
0
281
0
  0
CLASS
  1
LAYOUT
  2
AcDbLayout
  3
ObjectDBX Classes
 90
0
 91
0
280
0
281
0
  0
CLASS
  1
ACDBPLACEHOLDER
  2
AcDbPlaceHolder
  3
ObjectDBX Classes
 90
0
 91
0
280
0
281
0
  0
ENDSEC
  0
SECTION
  2
TABLES
  0
TABLE
  2
VPORT
  5
8
330
0
100
AcDbSymbolTable
 70
1
  0
VPORT
  5
23
330
8
100
AcDbSymbolTableRecord
100
AcDbViewportTableRecord
  2
*Active
 70
0
 10
0.0
 20
0.0
 11
1.0
 21
1.0
 12
0.0
 22
0.0
 13
0.0
 23
0.0
 14
0.5
 24
0.5
 15
0.5
 25
0.5
 16
0.0
 26
0.0
 36
1.0
 17
0.0
 27
0.0
 37
0.0
 40
1000.0
 41
1.34
 42
50.0
 43
0.0
 44
0.0
 50
0.0
 51
0.0
 71
0
 72
1000
 73
1
 74
3
 75
0
 76
0
 77
0
 78
0
281
0
 65
0
146
0.0
  0
ENDTAB
  0
TABLE
  2
LTYPE
  5
2
330
0
100
AcDbSymbolTable
 70
21
  0
LTYPE
  5
24
330
2
100
AcDbSymbolTableRecord
100
AcDbLinetypeTableRecord
  2
ByBlock
 70
0
  3

 72
65
 73
0
 40
0.0
  0
LTYPE
  5
25
330
2
100
AcDbSymbolTableRecord
100
AcDbLinetypeTableRecord
  2
ByLayer
 70
0
  3

 72
65
 73
0
 40
0.0
  0
LTYPE
  5
26
330
2
100
AcDbSymbolTableRecord
100
AcDbLinetypeTableRecord
  2
Continuous
 70
0
  3

 72
65
 73
0
 40
0.0
  0
LTYPE
  5
2F
330
2
100
AcDbSymbolTableRecord
100
AcDbLinetypeTableRecord
  2
CENTER
 70
0
  3
Center ____ _ ____ _ ____ _ ____ _ ____ _ ____
 72
65
 73
4
 40
5.08
 49
3.175
 74
0
 49
-0.635
 74
0
 49
0.635
 74
0
 49
-0.635
 74
0
  0
LTYPE
  5
30
330
2
100
AcDbSymbolTableRecord
100
AcDbLinetypeTableRecord
  2
CENTERX2
 70
0
  3
Center (2x) ________  __  ________  __  ________
 72
65
 73
4
 40
8.89
 49
6.35
 74
0
 49
-0.635
 74
0
 49
1.27
 74
0
 49
-0.635
 74
0
  0
LTYPE
  5
31
330
2
100
AcDbSymbolTableRecord
100
AcDbLinetypeTableRecord
  2
CENTER2
 70
0
  3
Center (.5x) ____ _ ____ _ ____ _ ____ _ ____
 72
65
 73
4
 40
2.54
 49
1.587
 74
0
 49
-0.318
 74
0
 49
0.318
 74
0
 49
-0.318
 74
0
  0
LTYPE
  5
32
330
2
100
AcDbSymbolTableRecord
100
AcDbLinetypeTableRecord
  2
DASHED
 70
0
  3
Dashed __ __ __ __ __ __ __ __ __ __ __ __ __ _
 72
65
 73
2
 40
1.524
 49
1.27
 74
0
 49
-0.254
 74
0
  0
LTYPE
  5
33
330
2
100
AcDbSymbolTableRecord
100
AcDbLinetypeTableRecord
  2
DASHEDX2
 70
0
  3
Dashed (2x) ____  ____  ____  ____  ____  ____
 72
65
 73
2
 40
3.048
 49
2.54
 74
0
 49
-0.508
 74
0
  0
LTYPE
  5
34
330
2
100
AcDbSymbolTableRecord
100
AcDbLinetypeTableRecord
  2
DASHED2
 70
0
  3
Dashed (.5x) _ _ _ _ _ _ _ _ _ _ _ _ _ _
 72
65
 73
2
 40
0.762
 49
0.635
 74
0
 49
-0.127
 74
0
  0
LTYPE
  5
35
330
2
100
AcDbSymbolTableRecord
100
AcDbLinetypeTableRecord
  2
PHANTOM
 70
0
  3
Phantom ______  __  __  ______  __  __  ______
 72
65
 73
6
 40
6.35
 49
3.175
 74
0
 49
-0.635
 74
0
 49
0.635
 74
0
 49
-0.635
 74
0
 49
0.635
 74
0
 49
-0.635
 74
0
  0
LTYPE
  5
36
330
2
100
AcDbSymbolTableRecord
100
AcDbLinetypeTableRecord
  2
PHANTOMX2
 70
0
  3
Phantom (2x)____________    ____    ____    ____________
 72
65
 73
6
 40
10.795
 49
6.35
 74
0
 49
-0.635
 74
0
 49
1.27
 74
0
 49
-0.635
 74
0
 49
1.27
 74
0
 49
-0.635
 74
0
  0
LTYPE
  5
37
330
2
100
AcDbSymbolTableRecord
100
AcDbLinetypeTableRecord
  2
PHANTOM2
 70
0
  3
Phantom (.5x) ___ _ _ ___ _ _ ___ _ _ ___ _ _ ___
 72
65
 73
6
 40
3.175
 49
1.587
 74
0
 49
-0.318
 74
0
 49
0.318
 74
0
 49
-0.318
 74
0
 49
0.318
 74
0
 49
-0.318
 74
0
  0
LTYPE
  5
38
330
2
100
AcDbSymbolTableRecord
100
AcDbLinetypeTableRecord
  2
DASHDOT
 70
0
  3
Dash dot __ . __ . __ . __ . __ . __ . __ . __
 72
65
 73
4
 40
3.556
 49
2.54
 74
0
 49
-0.508
 74
0
 49
0.0
 74
0
 49
-0.508
 74
0
  0
LTYPE
  5
39
330
2
100
AcDbSymbolTableRecord
100
AcDbLinetypeTableRecord
  2
DASHDOTX2
 70
0
  3
Dash dot (2x) ____  .  ____  .  ____  .  ____
 72
65
 73
4
 40
6.096
 49
5.08
 74
0
 49
-0.508
 74
0
 49
0.0
 74
0
 49
-0.508
 74
0
  0
LTYPE
  5
3A
330
2
100
AcDbSymbolTableRecord
100
AcDbLinetypeTableRecord
  2
DASHDOT2
 70
0
  3
Dash dot (.5x) _ . _ . _ . _ . _ . _ . _ . _
 72
65
 73
4
 40
1.778
 49
1.27
 74
0
 49
-0.254
 74
0
 49
0.0
 74
0
 49
-0.254
 74
0
  0
LTYPE
  5
3B
330
2
100
AcDbSymbolTableRecord
100
AcDbLinetypeTableRecord
  2
DOT
 70
0
  3
Dot .  .  .  .  .  .  .  .  .  .  .  .  .  .  .  .
 72
65
 73
2
 40
0.508
 49
0.0
 74
0
 49
-0.508
 74
0
  0
LTYPE
  5
3C
330
2
100
AcDbSymbolTableRecord
100
AcDbLinetypeTableRecord
  2
DOTX2
 70
0
  3
Dot (2x) .    .    .    .    .    .    .    . 
 72
65
 73
2
 40
1.016
 49
0.0
 74
0
 49
-1.016
 74
0
  0
LTYPE
  5
3D
330
2
100
AcDbSymbolTableRecord
100
AcDbLinetypeTableRecord
  2
DOT2
 70
0
  3
Dot (.5) . . . . . . . . . . . . . . . . . . . 
 72
65
 73
2
 40
0.254
 49
0.0
 74
0
 49
-0.254
 74
0
  0
LTYPE
  5
3E
330
2
100
AcDbSymbolTableRecord
100
AcDbLinetypeTableRecord
  2
DIVIDE
 70
0
  3
Divide __ . . __ . . __ . . __ . . __ . . __
 72
65
 73
6
 40
4.064
 49
2.54
 74
0
 49
-0.508
 74
0
 49
0.0
 74
0
 49
-0.508
 74
0
 49
0.0
 74
0
 49
-0.508
 74
0
  0
LTYPE
  5
3F
330
2
100
AcDbSymbolTableRecord
100
AcDbLinetypeTableRecord
  2
DIVIDEX2
 70
0
  3
Divide (2x) ____  . .  ____  . .  ____  . .  ____
 72
65
 73
6
 40
6.604
 49
5.08
 74
0
 49
-0.508
 74
0
 49
0.0
 74
0
 49
-0.508
 74
0
 49
0.0
 74
0
 49
-0.508
 74
0
  0
LTYPE
  5
40
330
2
100
AcDbSymbolTableRecord
100
AcDbLinetypeTableRecord
  2
DIVIDE2
 70
0
  3
Divide(.5x) _ . _ . _ . _ . _ . _ . _ . _
 72
65
 73
6
 40
2.032
 49
1.27
 74
0
 49
-0.254
 74
0
 49
0.0
 74
0
 49
-0.254
 74
0
 49
0.0
 74
0
 49
-0.254
 74
0
  0
ENDTAB
  0
TABLE
  2
LAYER
  5
1
330
0
100
AcDbSymbolTable
 70
3
  0
LAYER
  5
27
330
1
100
AcDbSymbolTableRecord
100
AcDbLayerTableRecord
  2
0
 70
0
 62
7
  6
Continuous
370
-3
390
13
347
21
  0
LAYER
  5
28
330
1
100
AcDbSymbolTableRecord
100
AcDbLayerTableRecord
  2
Defpoints
 70
0
 62
7
  6
Continuous
290
0
370
-3
390
13
347
21
  0
LAYER
  5
8A
330
1
100
AcDbSymbolTableRecord
100
AcDbLayerTableRecord
  2
Layer
 70
0
 62
1
  6
Continuous
370
50
390
13
347
21
  0
ENDTAB
  0
TABLE
  2
STYLE
  5
5
330
0
100
AcDbSymbolTable
 70
26
  0
STYLE
  5
29
330
5
100
AcDbSymbolTableRecord
100
AcDbTextStyleTableRecord
  2
Standard
 70
0
 40
0.0
 41
1.0
 50
0.0
 71
0
 42
2.5
  3
txt
  4

  0
STYLE
  5
41
330
5
100
AcDbSymbolTableRecord
100
AcDbTextStyleTableRecord
  2
OpenSans-Light
 70
0
 40
0.0
 41
1.0
 50
0.0
 71
0
 42
2.5
  3
OpenSans-Light.ttf
  4

  0
STYLE
  5
42
330
5
100
AcDbSymbolTableRecord
100
AcDbTextStyleTableRecord
  2
OpenSans-Light-Italic
 70
0
 40
0.0
 41
1.0
 50
0.0
 71
0
 42
2.5
  3
OpenSans-LightItalic.ttf
  4

  0
STYLE
  5
43
330
5
100
AcDbSymbolTableRecord
100
AcDbTextStyleTableRecord
  2
OpenSans
 70
0
 40
0.0
 41
1.0
 50
0.0
 71
0
 42
2.5
  3
OpenSans-Regular.ttf
  4

  0
STYLE
  5
44
330
5
100
AcDbSymbolTableRecord
100
AcDbTextStyleTableRecord
  2
OpenSans-Italic
 70
0
 40
0.0
 41
1.0
 50
0.0
 71
0
 42
2.5
  3
OpenSans-Italic.ttf
  4

  0
STYLE
  5
45
330
5
100
AcDbSymbolTableRecord
100
AcDbTextStyleTableRecord
  2
OpenSans-SemiBold
 70
0
 40
0.0
 41
1.0
 50
0.0
 71
0
 42
2.5
  3
OpenSans-SemiBold.ttf
  4

  0
STYLE
  5
46
330
5
100
AcDbSymbolTableRecord
100
AcDbTextStyleTableRecord
  2
OpenSans-SemiBoldItalic
 70
0
 40
0.0
 41
1.0
 50
0.0
 71
0
 42
2.5
  3
OpenSans-SemiBoldItalic.ttf
  4

  0
STYLE
  5
47
330
5
100
AcDbSymbolTableRecord
100
AcDbTextStyleTableRecord
  2
OpenSans-Bold
 70
0
 40
0.0
 41
1.0
 50
0.0
 71
0
 42
2.5
  3
OpenSans-Bold.ttf
  4

  0
STYLE
  5
48
330
5
100
AcDbSymbolTableRecord
100
AcDbTextStyleTableRecord
  2
OpenSans-BoldItalic
 70
0
 40
0.0
 41
1.0
 50
0.0
 71
0
 42
2.5
  3
OpenSans-BoldItalic.ttf
  4

  0
STYLE
  5
49
330
5
100
AcDbSymbolTableRecord
100
AcDbTextStyleTableRecord
  2
OpenSans-ExtraBold
 70
0
 40
0.0
 41
1.0
 50
0.0
 71
0
 42
2.5
  3
OpenSans-ExtraBold.ttf
  4

  0
STYLE
  5
4A
330
5
100
AcDbSymbolTableRecord
100
AcDbTextStyleTableRecord
  2
OpenSans-ExtraBoldItalic
 70
0
 40
0.0
 41
1.0
 50
0.0
 71
0
 42
2.5
  3
OpenSans-ExtraBoldItalic.ttf
  4

  0
STYLE
  5
4B
330
5
100
AcDbSymbolTableRecord
100
AcDbTextStyleTableRecord
  2
OpenSansCondensed-Bold
 70
0
 40
0.0
 41
1.0
 50
0.0
 71
0
 42
2.5
  3
OpenSansCondensed-Bold.ttf
  4

  0
STYLE
  5
4C
330
5
100
AcDbSymbolTableRecord
100
AcDbTextStyleTableRecord
  2
OpenSansCondensed-Light
 70
0
 40
0.0
 41
1.0
 50
0.0
 71
0
 42
2.5
  3
OpenSansCondensed-Light.ttf
  4

  0
STYLE
  5
4D
330
5
100
AcDbSymbolTableRecord
100
AcDbTextStyleTableRecord
  2
OpenSansCondensed-Italic
 70
0
 40
0.0
 41
1.0
 50
0.0
 71
0
 42
2.5
  3
OpenSansCondensed-LightItalic.ttf
  4

  0
STYLE
  5
4E
330
5
100
AcDbSymbolTableRecord
100
AcDbTextStyleTableRecord
  2
LiberationSans
 70
0
 40
0.0
 41
1.0
 50
0.0
 71
0
 42
2.5
  3
LiberationSans-Regular.ttf
  4

  0
STYLE
  5
4F
330
5
100
AcDbSymbolTableRecord
100
AcDbTextStyleTableRecord
  2
LiberationSans-Bold
 70
0
 40
0.0
 41
1.0
 50
0.0
 71
0
 42
2.5
  3
LiberationSans-Bold.ttf
  4

  0
STYLE
  5
50
330
5
100
AcDbSymbolTableRecord
100
AcDbTextStyleTableRecord
  2
LiberationSans-BoldItalic
 70
0
 40
0.0
 41
1.0
 50
0.0
 71
0
 42
2.5
  3
LiberationSans-BoldItalic.ttf
  4

  0
STYLE
  5
51
330
5
100
AcDbSymbolTableRecord
100
AcDbTextStyleTableRecord
  2
LiberationSans-Italic
 70
0
 40
0.0
 41
1.0
 50
0.0
 71
0
 42
2.5
  3
LiberationSans-Italic.ttf
  4

  0
STYLE
  5
52
330
5
100
AcDbSymbolTableRecord
100
AcDbTextStyleTableRecord
  2
LiberationSerif
 70
0
 40
0.0
 41
1.0
 50
0.0
 71
0
 42
2.5
  3
LiberationSerif-Regular.ttf
  4

  0
STYLE
  5
53
330
5
100
AcDbSymbolTableRecord
100
AcDbTextStyleTableRecord
  2
LiberationSerif-Bold
 70
0
 40
0.0
 41
1.0
 50
0.0
 71
0
 42
2.5
  3
LiberationSerif-Bold.ttf
  4

  0
STYLE
  5
54
330
5
100
AcDbSymbolTableRecord
100
AcDbTextStyleTableRecord
  2
LiberationSerif-BoldItalic
 70
0
 40
0.0
 41
1.0
 50
0.0
 71
0
 42
2.5
  3
LiberationSerif-BoldItalic.ttf
  4

  0
STYLE
  5
55
330
5
100
AcDbSymbolTableRecord
100
AcDbTextStyleTableRecord
  2
LiberationSerif-Italic
 70
0
 40
0.0
 41
1.0
 50
0.0
 71
0
 42
2.5
  3
LiberationSerif-Italic.ttf
  4

  0
STYLE
  5
56
330
5
100
AcDbSymbolTableRecord
100
AcDbTextStyleTableRecord
  2
LiberationMono
 70
0
 40
0.0
 41
1.0
 50
0.0
 71
0
 42
2.5
  3
LiberationMono-Regular.ttf
  4

  0
STYLE
  5
57
330
5
100
AcDbSymbolTableRecord
100
AcDbTextStyleTableRecord
  2
LiberationMono-Bold
 70
0
 40
0.0
 41
1.0
 50
0.0
 71
0
 42
2.5
  3
LiberationMono-Bold.ttf
  4

  0
STYLE
  5
58
330
5
100
AcDbSymbolTableRecord
100
AcDbTextStyleTableRecord
  2
LiberationMono-BoldItalic
 70
0
 40
0.0
 41
1.0
 50
0.0
 71
0
 42
2.5
  3
LiberationMono-BoldItalic.ttf
  4

  0
STYLE
  5
59
330
5
100
AcDbSymbolTableRecord
100
AcDbTextStyleTableRecord
  2
LiberationMono-Italic
 70
0
 40
0.0
 41
1.0
 50
0.0
 71
0
 42
2.5
  3
LiberationMono-Italic.ttf
  4

  0
ENDTAB
  0
TABLE
  2
VIEW
  5
7
330
0
100
AcDbSymbolTable
 70
0
  0
ENDTAB
  0
TABLE
  2
UCS
  5
6
330
0
100
AcDbSymbolTable
 70
0
  0
ENDTAB
  0
TABLE
  2
APPID
  5
3
330
0
100
AcDbSymbolTable
 70
3
  0
APPID
  5
2A
330
3
100
AcDbSymbolTableRecord
100
AcDbRegAppTableRecord
  2
ACAD
 70
0
  0
APPID
  5
B8
330
3
100
AcDbSymbolTableRecord
100
AcDbRegAppTableRecord
  2
HATCHBACKGROUNDCOLOR
 70
0
  0
APPID
  5
B9
330
3
100
AcDbSymbolTableRecord
100
AcDbRegAppTableRecord
  2
EZDXF
 70
0
  0
ENDTAB
  0
TABLE
  2
DIMSTYLE
  5
4
330
0
100
AcDbSymbolTable
 70
12
100
AcDbDimStyleTable
  0
DIMSTYLE
105
2B
330
4
100
AcDbSymbolTableRecord
100
AcDbDimStyleTableRecord
  2
Standard
 70
0
 40
1.0
 41
2.5
 42
0.625
 43
3.75
 44
1.25
 45
0.0
 46
0.0
 47
0.0
 48
0.0
 49
2.5
140
2.5
141
2.5
142
0.0
143
0.03937007874
144
1.0
145
0.0
146
1.0
147
0.625
148
0.0
 69
0
 70
0
 71
0
 72
0
 73
0
 74
0
 75
0
 76
0
 77
1
 78
8
 79
3
170
0
171
3
172
1
173
0
174
0
175
0
176
0
177
0
178
0
179
2
271
2
272
2
273
2
274
3
275
0
276
0
277
2
278
44
279
0
280
0
281
0
282
0
283
0
284
8
285
0
286
0
288
0
289
3
290
0
371
-2
372
-2
  0
DIMSTYLE
105
73
330
4
100
AcDbSymbolTableRecord
100
AcDbDimStyleTableRecord
  2
EZDXF
 70
0
 40
1.0
 41
0.175
 42
0.125
 43
3.75
 44
0.375
 45
0.0
 46
0.0
 47
0.0
 48
0.0
 49
2.5
140
0.25
141
2.5
142
0.0
143
0.03937007874
144
100.0
145
0.0
146
0.5
147
0.1
148
0.0
 69
0
 70
0
 71
0
 72
0
 73
0
 74
0
 75
0
 76
0
 77
1
 78
12
 79
3
170
0
171
3
172
1
173
0
174
0
175
0
176
0
177
0
178
0
179
2
271
2
272
2
273
2
274
3
275
0
276
0
277
2
278
46
279
2
280
0
281
0
282
0
283
0
284
8
285
0
286
0
288
1
289
3
290
0
340
4C
342
74
371
-2
372
-2
  0
DIMSTYLE
105
7C
330
4
100
AcDbSymbolTableRecord
100
AcDbDimStyleTableRecord
  2
EZ_M_100_H25_CM
 70
0
 40
1.0
 41
0.25
 42
0.125
 43
3.75
 44
0.375
 45
0.0
 46
0.0
 47
0.0
 48
0.0
 49
2.5
140
0.25
141
2.5
142
0.125
143
0.03937007874
144
100.0
145
0.0
146
0.5
147
0.1
148
0.0
 69
0
 70
0
 71
0
 72
0
 73
0
 74
0
 75
0
 76
0
 77
1
 78
12
 79
3
170
0
171
3
172
1
173
0
174
0
175
0
176
0
177
0
178
0
179
2
271
2
272
2
273
2
274
3
275
0
276
0
277
2
278
46
279
2
280
0
281
0
282
0
283
0
284
8
285
0
286
0
288
1
289
3
290
0
340
4C
371
-2
372
-2
  0
DIMSTYLE
105
7D
330
4
100
AcDbSymbolTableRecord
100
AcDbDimStyleTableRecord
  2
EZ_M_50_H25_CM
 70
0
 40
1.0
 41
0.125
 42
0.0625
 43
3.75
 44
0.1875
 45
0.0
 46
0.0
 47
0.0
 48
0.0
 49
2.5
140
0.125
141
2.5
142
0.0625
143
0.03937007874
144
100.0
145
0.0
146
0.5
147
0.05
148
0.0
 69
0
 70
0
 71
0
 72
0
 73
0
 74
0
 75
0
 76
0
 77
1
 78
12
 79
3
170
0
171
3
172
1
173
0
174
0
175
0
176
0
177
0
178
0
179
2
271
2
272
2
273
2
274
3
275
0
276
0
277
2
278
46
279
2
280
0
281
0
282
0
283
0
284
8
285
0
286
0
288
1
289
3
290
0
340
4C
371
-2
372
-2
  0
DIMSTYLE
105
7E
330
4
100
AcDbSymbolTableRecord
100
AcDbDimStyleTableRecord
  2
EZ_M_25_H25_CM
 70
0
 40
1.0
 41
0.0625
 42
0.03125
 43
3.75
 44
0.09375
 45
0.0
 46
0.0
 47
0.0
 48
0.0
 49
2.5
140
0.0625
141
2.5
142
0.03125
143
0.03937007874
144
100.0
145
0.0
146
0.5
147
0.025
148
0.0
 69
0
 70
0
 71
0
 72
0
 73
0
 74
0
 75
0
 76
0
 77
1
 78
12
 79
3
170
0
171
3
172
1
173
0
174
0
175
0
176
0
177
0
178
0
179
2
271
2
272
2
273
2
274
3
275
0
276
0
277
2
278
46
279
2
280
0
281
0
282
0
283
0
284
8
285
0
286
0
288
1
289
3
290
0
340
4C
371
-2
372
-2
  0
DIMSTYLE
105
7F
330
4
100
AcDbSymbolTableRecord
100
AcDbDimStyleTableRecord
  2
EZ_M_20_H25_CM
 70
0
 40
1.0
 41
0.05
 42
0.025
 43
3.75
 44
0.07500000000000001
 45
0.0
 46
0.0
 47
0.0
 48
0.0
 49
2.5
140
0.05
141
2.5
142
0.025
143
0.03937007874
144
100.0
145
0.0
146
0.5
147
0.020000000000000004
148
0.0
 69
0
 70
0
 71
0
 72
0
 73
0
 74
0
 75
0
 76
0
 77
1
 78
12
 79
3
170
0
171
3
172
1
173
0
174
0
175
0
176
0
177
0
178
0
179
2
271
2
272
2
273
2
274
3
275
0
276
0
277
2
278
46
279
2
280
0
281
0
282
0
283
0
284
8
285
0
286
0
288
1
289
3
290
0
340
4C
371
-2
372
-2
  0
DIMSTYLE
105
80
330
4
100
AcDbSymbolTableRecord
100
AcDbDimStyleTableRecord
  2
EZ_M_10_H25_CM
 70
0
 40
1.0
 41
0.025
 42
0.0125
 43
3.75
 44
0.037500000000000006
 45
0.0
 46
0.0
 47
0.0
 48
0.0
 49
2.5
140
0.025
141
2.5
142
0.0125
143
0.03937007874
144
100.0
145
0.0
146
0.5
147
0.010000000000000002
148
0.0
 69
0
 70
0
 71
0
 72
0
 73
0
 74
0
 75
0
 76
0
 77
1
 78
12
 79
3
170
0
171
3
172
1
173
0
174
0
175
0
176
0
177
0
178
0
179
2
271
2
272
2
273
2
274
3
275
0
276
0
277
2
278
46
279
2
280
0
281
0
282
0
283
0
284
8
285
0
286
0
288
1
289
3
290
0
340
4C
371
-2
372
-2
  0
DIMSTYLE
105
81
330
4
100
AcDbSymbolTableRecord
100
AcDbDimStyleTableRecord
  2
EZ_M_5_H25_CM
 70
0
 40
1.0
 41
0.0125
 42
0.00625
 43
3.75
 44
0.018750000000000003
 45
0.0
 46
0.0
 47
0.0
 48
0.0
 49
2.5
140
0.0125
141
2.5
142
0.00625
143
0.03937007874
144
100.0
145
0.0
146
0.5
147
0.005000000000000001
148
0.0
 69
0
 70
0
 71
0
 72
0
 73
0
 74
0
 75
0
 76
0
 77
1
 78
12
 79
3
170
0
171
3
172
1
173
0
174
0
175
0
176
0
177
0
178
0
179
2
271
2
272
2
273
2
274
3
275
0
276
0
277
2
278
46
279
2
280
0
281
0
282
0
283
0
284
8
285
0
286
0
288
1
289
3
290
0
340
4C
371
-2
372
-2
  0
DIMSTYLE
105
82
330
4
100
AcDbSymbolTableRecord
100
AcDbDimStyleTableRecord
  2
EZ_M_1_H25_CM
 70
0
 40
1.0
 41
0.0025
 42
0.00125
 43
3.75
 44
0.00375
 45
0.0
 46
0.0
 47
0.0
 48
0.0
 49
2.5
140
0.0025
141
2.5
142
0.00125
143
0.03937007874
144
100.0
145
0.0
146
0.5
147
0.001
148
0.0
 69
0
 70
0
 71
0
 72
0
 73
0
 74
0
 75
0
 76
0
 77
1
 78
12
 79
3
170
0
171
3
172
1
173
0
174
0
175
0
176
0
177
0
178
0
179
2
271
2
272
2
273
2
274
3
275
0
276
0
277
2
278
46
279
2
280
0
281
0
282
0
283
0
284
8
285
0
286
0
288
1
289
3
290
0
340
4C
371
-2
372
-2
  0
DIMSTYLE
105
83
330
4
100
AcDbSymbolTableRecord
100
AcDbDimStyleTableRecord
  2
EZ_RADIUS
 70
0
 40
1.0
 41
0.25
 42
0.125
 43
3.75
 44
0.375
 45
0.0
 46
0.0
 47
0.0
 48
0.0
 49
2.5
140
0.25
141
0.0
142
0.0
143
0.03937007874
144
100.0
145
0.0
146
0.5
147
0.1
148
0.0
 69
0
 70
0
 71
0
 72
0
 73
0
 74
0
 75
0
 76
0
 77
1
 78
12
 79
3
170
0
171
3
172
0
173
0
174
0
175
0
176
0
177
0
178
0
179
2
271
2
272
2
273
2
274
3
275
0
276
0
277
2
278
46
279
1
280
0
281
0
282
0
283
0
284
8
285
0
286
0
288
1
289
3
290
0
340
4C
342
84
371
-2
372
-2
  0
DIMSTYLE
105
88
330
4
100
AcDbSymbolTableRecord
100
AcDbDimStyleTableRecord
  2
EZ_RADIUS_INSIDE
 70
0
 40
1.0
 41
0.25
 42
0.125
 43
3.75
 44
0.375
 45
0.0
 46
0.0
 47
0.0
 48
0.0
 49
2.5
140
0.25
141
0.0
142
0.0
143
0.03937007874
144
100.0
145
0.0
146
0.5
147
0.1
148
0.0
 69
0
 70
0
 71
0
 72
0
 73
0
 74
0
 75
0
 76
0
 77
0
 78
12
 79
3
170
0
171
3
172
0
173
0
174
1
175
0
176
0
177
0
178
0
179
2
271
2
272
2
273
2
274
3
275
0
276
0
277
2
278
46
279
0
280
0
281
0
282
0
283
0
284
8
285
0
286
0
288
1
289
0
290
0
340
4C
342
84
371
-2
372
-2
  0
DIMSTYLE
105
89
330
4
100
AcDbSymbolTableRecord
100
AcDbDimStyleTableRecord
  2
EZ_CURVED
 70
0
 40
1.0
 41
0.25
 42
0.125
 43
3.75
 44
0.375
 45
0.0
 46
0.0
 47
0.0
 48
0.0
 49
2.5
140
0.25
141
2.5
142
0.0
143
0.03937007874
144
100.0
145
0.0
146
0.5
147
0.1
148
0.0
 69
0
 70
0
 71
0
 72
0
 73
0
 74
0
 75
0
 76
0
 77
1
 78
12
 79
2
 90
2
170
0
171
3
172
1
173
0
174
0
175
0
176
0
177
0
178
0
179
2
271
2
272
2
273
2
274
3
275
0
276
0
277
2
278
46
279
2
280
0
281
0
282
0
283
0
284
8
285
0
286
0
288
1
289
3
290
0
340
4C
371
-2
372
-2
  0
ENDTAB
  0
TABLE
  2
BLOCK_RECORD
  5
9
330
0
100
AcDbSymbolTable
 70
5
  0
BLOCK_RECORD
  5
17
330
9
100
AcDbSymbolTableRecord
100
AcDbBlockTableRecord
  2
*Model_Space
340
1A
 70
0
280
1
281
0
  0
BLOCK_RECORD
  5
1B
330
9
100
AcDbSymbolTableRecord
100
AcDbBlockTableRecord
  2
*Paper_Space
340
1E
 70
0
280
1
281
0
  0
BLOCK_RECORD
  5
74
330
9
100
AcDbSymbolTableRecord
100
AcDbBlockTableRecord
  2
_ARCHTICK
340
0
 70
0
280
1
281
0
  0
BLOCK_RECORD
  5
78
330
9
100
AcDbSymbolTableRecord
100
AcDbBlockTableRecord
  2
_CLOSEDFILLED
340
0
 70
0
280
1
281
0
  0
BLOCK_RECORD
  5
84
330
9
100
AcDbSymbolTableRecord
100
AcDbBlockTableRecord
  2
_CLOSEDBLANK
340
0
 70
0
280
1
281
0
  0
ENDTAB
  0
ENDSEC
  0
SECTION
  2
BLOCKS
  0
BLOCK
  5
18
330
17
100
AcDbEntity
  8
0
100
AcDbBlockBegin
  2
*Model_Space
 70
0
 10
0.0
 20
0.0
 30
0.0
  3
*Model_Space
  1

  0
ENDBLK
  5
19
330
17
100
AcDbEntity
  8
0
100
AcDbBlockEnd
  0
BLOCK
  5
1C
330
1B
100
AcDbEntity
  8
0
100
AcDbBlockBegin
  2
*Paper_Space
 70
0
 10
0.0
 20
0.0
 30
0.0
  3
*Paper_Space
  1

  0
ENDBLK
  5
1D
330
1B
100
AcDbEntity
  8
0
100
AcDbBlockEnd
  0
BLOCK
  5
75
330
74
100
AcDbEntity
  8
0
100
AcDbBlockBegin
  2
_ARCHTICK
 70
0
 10
0.0
 20
0.0
 30
0.0
  3
_ARCHTICK
  1

  0
LWPOLYLINE
  5
77
330
74
100
AcDbEntity
  8
0
  6
BYBLOCK
 62
0
100
AcDbPolyline
 90
2
 70
0
 43
0.15
 10
-0.5
 20
-0.5000000000000001
 10
0.5000000000000001
 20
0.5
  0
ENDBLK
  5
76
330
74
100
AcDbEntity
  8
0
100
AcDbBlockEnd
  0
BLOCK
  5
79
330
78
100
AcDbEntity
  8
0
100
AcDbBlockBegin
  2
_CLOSEDFILLED
 70
0
 10
0.0
 20
0.0
 30
0.0
  3
_CLOSEDFILLED
  1

  0
SOLID
  5
7B
330
78
100
AcDbEntity
  8
0
  6
BYBLOCK
 62
0
100
AcDbTrace
 10
-1.0
 20
0.1643989837240255
 30
0.0
 11
0.0
 21
0.0
 31
0.0
 12
-1.0
 22
-0.1643989837240255
 32
0.0
 13
-1.0
 23
-0.1643989837240255
 33
0.0
  0
ENDBLK
  5
7A
330
78
100
AcDbEntity
  8
0
100
AcDbBlockEnd
  0
BLOCK
  5
85
330
84
100
AcDbEntity
  8
0
100
AcDbBlockBegin
  2
_CLOSEDBLANK
 70
0
 10
0.0
 20
0.0
 30
0.0
  3
_CLOSEDBLANK
  1

  0
LWPOLYLINE
  5
87
330
84
100
AcDbEntity
  8
0
  6
BYBLOCK
 62
0
100
AcDbPolyline
 90
3
 70
1
 10
-1.0
 20
0.1643989837240255
 10
0.0
 20
0.0
 10
-1.0
 20
-0.1643989837240255
  0
ENDBLK
  5
86
330
84
100
AcDbEntity
  8
0
100
AcDbBlockEnd
  0
ENDSEC
  0
SECTION
  2
ENTITIES
  0
LWPOLYLINE
  5
8B
330
17
100
AcDbEntity
  8
Layer
100
AcDbPolyline
 90
303
 70
1
 10
512.0280038591951
 20
65.04117369920567
 10
510.2861524545013
 20
65.53725844930554
 10
507.4936853250299
 20
66.34243812314728
 10
504.47738209407225
 20
67.22173893513366
 10
501.2346643516712
 20
68.16503707054224
 10
497.7642741782825
 20
69.15917281761662
 10
494.08258165110686
 20
70.215247019136
 10
490.21258095350026
 20
71.33644855784169
 10
486.176149333868
 20
72.50637663379374
 10
481.9933432151156
 20
73.70071425198911
 10
477.6880402765636
 20
74.9097069258541
 10
473.28188024198266
 20
76.13189911601759
 10
468.80814112323117
 20
77.39345654736283
 10
464.28010204368707
 20
78.6775222317823
 10
459.70965450195155
 20
79.97281281179507
 10
455.10550306049436
 20
81.26715925030696
 10
450.4696883924367
 20
82.54431630241052
 10
445.8086154124587
 20
83.812451470365
 10
441.14014610255254
 20
85.10325957525785
 10
436.46468103257257
 20
86.40401674746309
 10
431.7820839895284
 20
87.70355009359476
 10
427.09117416057643
 20
88.9903619045819
 10
422.3896689492102
 20
90.25317840885498
 10
417.6750829606334
 20
91.49225403882622
 10
412.9599534922308
 20
92.74293928868023
 10
408.2525399629633
 20
94.01699058388431
 10
403.54622074911117
 20
95.2890056041663
 10
398.83638590497674
 20
96.5450062374151
 10
394.11926015592553
 20
97.77153834350145
 10
389.3918103508092
 20
98.96240568522781
 10
385.66337405107674
 20
99.88289846486357
 10
385.41170193144796
 20
98.86350592800571
 10
384.40143917800503
 20
99.11292992634606
 10
379.6672701686656
 20
100.29559166501812
 10
374.9426326667244
 20
101.48705877741885
 10
370.22013207326233
 20
102.66933220098156
 10
365.49825025241955
 20
103.83313995058705
 10
360.77177112696785
 20
104.96637074003236
 10
356.0331109659861
 20
106.06653152899327
 10
351.2857973852205
 20
107.15191141938969
 10
346.5429617695852
 20
108.24179525088753
 10
341.8093078794775
 20
109.33111415753604
 10
337.07561517016177
 20
110.40021644932206
 10
332.3415853624306
 20
111.44222619089557
 10
327.596524368106
 20
112.44935066316603
 10
322.848318630221
 20
113.44045555863356
 10
318.10113070856954
 20
114.42275928749625
 10
313.3583926599715
 20
115.39723532880095
 10
308.62129659937995
 20
116.35572283679429
 10
303.88285759676234
 20
117.28324964857121
 10
299.14069772059133
 20
118.17720712982934
 10
294.3931547569097
 20
119.04358427372946
 10
289.64505076878356
 20
119.89750094831543
 10
284.9037829273639
 20
120.74703649901348
 10
280.16914726279845
 20
121.5827426147679
 10
275.43687290901056
 20
122.39233305585145
 10
270.70397730334366
 20
123.17134473533552
 10
265.96911736025504
 20
123.92406802638894
 10
261.2369404477871
 20
124.66145643027525
 10
256.5093506528395
 20
125.38605500180284
 10
251.78851771939162
 20
126.09644583364184
 10
247.0754293702982
 20
126.785625036385
 10
242.3665482810506
 20
127.44441602140354
 10
237.66041374193577
 20
128.07369576600294
 10
232.95961679004216
 20
128.68242351196494
 10
228.26528793876616
 20
129.27436727556378
 10
223.5806348638575
 20
129.84975981497465
 10
218.90782629923746
 20
130.40182441393713
 10
214.25142092630747
 20
130.92604473817917
 10
209.61603378637835
 20
131.42150245179707
 10
205.00235634531293
 20
131.88842690311756
 10
200.40906240467638
 20
132.3293002891475
 10
195.8332757204739
 20
132.74447200947372
 10
191.27469517474117
 20
133.13408971865044
 10
186.729418346368
 20
133.4915180038731
 10
182.19358102287083
 20
133.81481218683956
 10
177.6680963144283
 20
134.11000994486824
 10
173.1545984733487
 20
134.38014107008703
 10
168.6546879120834
 20
134.62471206002832
 10
164.16798594132385
 20
134.83968981313166
 10
159.69496472552203
 20
135.02305099563083
 10
155.23518214420122
 20
135.1726998967937
 10
150.7886613525578
 20
135.28879947712528
 10
146.35697555861003
 20
135.3740377810833
 10
141.94301287092674
 20
135.42942929551467
 10
137.54527214629653
 20
135.4497206214482
 10
133.16384369259413
 20
135.43785984569107
 10
128.8074838107691
 20
135.39931498389478
 10
124.46698140705104
 20
135.3191150995067
 10
120.15515472226707
 20
135.21526534708886
 10
115.870458682312
 20
135.06970699176244
 10
111.60621864511296
 20
134.87774912149274
 10
107.37193196898525
 20
134.66070228200317
 10
103.17389804946869
 20
134.41718059657342
 10
99.01565899215657
 20
134.1360710742492
 10
94.89939549642997
 20
133.8079979890816
 10
90.82353316316383
 20
133.42948934166515
 10
86.78966968898405
 20
133.01434683530877
 10
82.80952661102731
 20
132.58293121424845
 10
78.89971311293081
 20
132.13370837699347
 10
75.06072774331909
 20
131.63741522717424
 10
71.29992792924622
 20
131.09138180169128
 10
67.61919083976392
 20
130.49551578914014
 10
64.02612840744726
 20
129.86651400485164
 10
60.52873699969547
 20
129.220142617643
 10
57.13811984644542
 20
128.56865740805492
 10
53.87225227733765
 20
127.91369838943808
 10
50.73347258163622
 20
127.23222234189794
 10
47.72806616685446
 20
126.5253694370242
 10
44.85702548575779
 20
125.79519362805999
 10
42.12151972237157
 20
125.05253880445642
 10
39.52190590016727
 20
124.3077382564944
 10
37.05704529662955
 20
123.56819277621764
 10
34.7266542191891
 20
122.84009998334011
 10
32.52628568517454
 20
122.12426204966268
 10
30.455020420640494
 20
121.42430567085808
 10
28.51219880266038
 20
120.73672241374146
 10
26.68889239173157
 20
120.05158423754617
 10
24.97332603671768
 20
119.3664018561701
 10
23.359747412989833
 20
118.68830067187855
 10
21.842928337114756
 20
118.02043257544719
 10
20.415713796644525
 20
117.36194870320097
 10
19.070795033869672
 20
116.71299649810246
 10
17.80138589619503
 20
116.07475854051043
 10
16.60150201727808
 20
115.44864555352697
 10
15.468740001467438
 20
114.83733673381909
 10
14.397005277714612
 20
114.2374224217708
 10
13.391430048537586
 20
113.6543834013683
 10
12.438313402264043
 20
113.07465556852334
 10
11.540439540577694
 20
112.50466163025442
 10
10.684951077652755
 20
111.9341405292316
 10
9.881848702786385
 20
111.37761855746197
 10
9.118970381664298
 20
110.82210870600086
 10
8.410731925086054
 20
110.28453787316248
 10
7.727188794198526
 20
109.73082288450166
 10
7.0881679267397715
 20
109.19182553437687
 10
6.4864409837239805
 20
108.6558608869953
 10
5.918841469742546
 20
108.12056220537559
 10
5.384818554089009
 20
107.58814069467846
 10
4.885511184777442
 20
107.06137936179499
 10
4.41709046302887
 20
106.53436595874663
 10
3.9810589409155455
 20
106.01179417724944
 10
3.5750092629345716
 20
105.4924132891851
 10
3.195563591660516
 20
104.9733227565807
 10
2.8408971940462777
 20
104.45421492516775
 10
2.509921481974885
 20
103.93530748795267
 10
2.211424319916148
 20
103.43451816214288
 10
1.952406586058629
 20
102.95692901391904
 10
1.7380731999830346
 20
102.49811014627207
 10
1.559899354122848
 20
102.02051841168988
 10
1.4112304372088431
 20
101.51563695587649
 10
1.2852595357279313
 20
100.99759261270839
 10
1.172547113540844
 20
100.45812974384981
 10
1.090159493540483
 20
100.03135985146997
 10
1.0345860011103412
 20
99.5306139515923
 10
1.0551883127387214
 20
99.13463759107643
 10
1.0736167904717888
 20
98.6180368514953
 10
1.1027194048778597
 20
98.12085814856144
 10
1.154326439769477
 20
97.640605606146
 10
1.2354165019269203
 20
97.16889309989328
 10
1.3526244997721903
 20
96.70228535143019
 10
1.516969456555728
 20
96.22529185204104
 10
1.7168961919053913
 20
95.75907347807043
 10
1.975554988420697
 20
95.27960595686932
 10
2.2742604302784173
 20
94.79586776473849
 10
2.6126325540470248
 20
94.30762528938523
 10
2.9803741335149994
 20
93.82196346866401
 10
3.373080148311516
 20
93.34451710280408
 10
3.8025821233050863
 20
92.86971860132273
 10
4.2687943393044065
 20
92.3977105710235
 10
4.770192341215733
 20
91.92931393929261
 10
5.300114177354544
 20
91.46958782938225
 10
5.873332077005472
 20
91.01305783473849
 10
6.485671963949443
 20
90.55881602372588
 10
7.135063042538718
 20
90.10695085795047
 10
7.822446387797925
 20
89.65668668906672
 10
8.550911196998896
 20
89.20609040957275
 10
9.320121273846041
 20
88.75402079182624
 10
10.128391570036428
 20
88.3010491795855
 10
10.977386770415364
 20
87.84847830541541
 10
11.87355137373217
 20
87.39629522438679
 10
12.820420350817557
 20
86.9439112385177
 10
13.823083452080454
 20
86.48982518312847
 10
14.883282435759128
 20
86.03235220819438
 10
16.003018612205807
 20
85.57036908874146
 10
17.18629819846643
 20
85.10323341088926
 10
18.437340516042582
 20
84.63093135437677
 10
19.761050403119413
 20
84.15426353171114
 10
21.163678919368436
 20
83.67458227552325
 10
22.65276355569162
 20
83.19344185721118
 10
24.23833021851297
 20
82.71157519532103
 10
25.93448049280923
 20
82.22567077780641
 10
27.740343436487365
 20
81.72684256531078
 10
29.651195120542525
 20
81.21406931911265
 10
31.686429302142813
 20
80.6970403094617
 10
33.857109220087665
 20
80.17664041635189
 10
36.16540049043641
 20
79.65170863503413
 10
38.619727861411405
 20
79.12740602414685
 10
41.228139905247644
 20
78.60841573984125
 10
43.998109354874714
 20
78.09649128338343
 10
46.939924102520166
 20
77.5853051611723
 10
50.03133036938527
 20
77.05286633754089
 10
53.26712810723623
 20
76.5108970374207
 10
56.65178992838173
 20
75.98039007479304
 10
60.18397161207682
 20
75.47058360385032
 10
63.854476470303666
 20
74.98104026786488
 10
67.6519092074173
 20
74.51115838540147
 10
71.57870528498003
 20
74.06192984537408
 10
75.60393325368285
 20
73.60194933430778
 10
79.7127645052746
 20
73.14249501044515
 10
83.90564029796488
 20
72.70969591203553
 10
88.17766682555171
 20
72.30980385598133
 10
92.51985251144183
 20
71.93915286072117
 10
96.92908260262196
 20
71.59420217478333
 10
100.6240996158591
 20
71.31660023095766
 10
100.54543613772651
 20
70.26955101663769
 10
101.31807767187809
 20
70.21150331507165
 10
105.82996066983438
 20
69.86918094076991
 10
110.38512154738696
 20
69.54550506255366
 10
114.98052954520271
 20
69.24736797895557
 10
119.61364748280013
 20
68.97583119345406
 10
124.28077155778288
 20
68.7200362954938
 10
128.9776251611149
 20
68.46764723334809
 10
133.70097354970676
 20
68.21624508531777
 10
138.4485078265961
 20
67.97127592322536
 10
143.219896078432
 20
67.74415184877346
 10
148.01428889816702
 20
67.53680049083334
 10
152.82944071957735
 20
67.34406237008199
 10
157.6645656174757
 20
67.16498153240647
 10
162.51738293652534
 20
66.99197713978396
 10
167.38596092766105
 20
66.82202277031553
 10
172.26882469534715
 20
66.6573768765889
 10
177.16530929529154
 20
66.50118187904053
 10
182.07427680090504
 20
66.35382407429736
 10
186.99395658207092
 20
66.21548138844602
 10
191.921125207149
 20
66.08445497390238
 10
196.8522655114039
 20
65.96206258573835
 10
201.7831784608252
 20
65.84963954036175
 10
206.7088381660487
 20
65.74304571764578
 10
211.62606112563068
 20
65.63820213745603
 10
216.53631215252352
 20
65.5357104620073
 10
221.44574826980374
 20
65.44075763607832
 10
226.36053772219867
 20
65.36036678798098
 10
231.2837209239048
 20
65.29571320079785
 10
236.21455474560247
 20
65.23986095814047
 10
241.15134451016604
 20
65.18322285666844
 10
246.09256920357203
 20
65.12033660428162
 10
251.0380009568318
 20
65.05667333450707
 10
255.989224130909
 20
65.00822321236151
 10
260.947888091899
 20
64.9832109694328
 10
265.91410166163064
 20
64.97215274666021
 10
270.88678269958655
 20
64.9583905879153
 10
275.86464278270853
 20
64.93330115542659
 10
280.84583844670993
 20
64.89835246185108
 10
285.83024324145987
 20
64.87308830414068
 10
290.82046215403966
 20
64.88056853435452
 10
295.8179714186119
 20
64.91400527364377
 10
300.82153259946256
 20
64.94446782390312
 10
305.8287278362838
 20
64.95450478203395
 10
310.83811864981965
 20
64.95079331103742
 10
315.8489239535846
 20
64.95129762003344
 10
320.8631826685363
 20
64.98245948992357
 10
325.88363846778094
 20
65.0426900043428
 10
330.90791548952427
 20
65.09731679463762
 10
335.93512111561233
 20
65.1373758828003
 10
340.9640815190285
 20
65.16288163456014
 10
345.99319023277997
 20
65.18410515385709
 10
351.02320832583365
 20
65.22437503976724
 10
356.0577255413046
 20
65.29660722987046
 10
361.09525644508983
 20
65.3670430623738
 10
366.1339120464063
 20
65.42072256455711
 10
371.1741884321509
 20
65.46412178730967
 10
376.2145889938141
 20
65.49322775353914
 10
381.25303251793025
 20
65.51891590860794
 10
386.29264443791067
 20
65.57152501633293
 10
391.3348306816132
 20
65.63986410681066
 10
396.37680532883553
 20
65.69594763608596
 10
401.41833601672494
 20
65.7415474791958
 10
406.45980522897423
 20
65.7777643535471
 10
411.49743300420755
 20
65.79876402456304
 10
416.53213090564714
 20
65.83262595008216
 10
421.5660562051742
 20
65.88670615171006
 10
426.5965413740294
 20
65.93357449811042
 10
431.6208621675571
 20
65.96193139920746
 10
436.6368842149476
 20
65.97554420934961
 10
441.64086236542994
 20
65.97553466870217
 10
446.6294534286735
 20
65.97286017197723
 10
451.5992468871659
 20
65.97512468030882
 10
456.54290115000657
 20
65.97126190599948
 10
461.4493874320618
 20
65.95440951858205
 10
466.3082990496912
 20
65.93250689076876
 10
471.1045077713249
 20
65.89987255852648
 10
475.81408368032993
 20
65.84230615832206
 10
480.416797223174
 20
65.78468742052019
 10
484.88523708063883
 20
65.72653646172452
 10
489.1921858906115
 20
65.6693170399306
 10
493.3058340258885
 20
65.59824156915674
 10
497.19818803545166
 20
65.51538826490142
 10
500.8518408517631
 20
65.43517564524248
 10
504.2574456822845
 20
65.35974685030715
 10
507.41020711833283
 20
65.27938307040378
 10
510.3115956685711
 20
65.19337296795513
 10
512.1126187126565
 20
65.13587469657259
  0
LWPOLYLINE
  5
8C
330
17
100
AcDbEntity
  8
Layer
100
AcDbPolyline
 90
5
 70
0
 10
335.8630804442698
 20
106.57135362173707
 10
331.956585703197
 20
107.43117850970566
 10
332.81641059116555
 20
111.3376732507785
 10
336.7229053322384
 20
110.47784836280991
 10
335.8630804442698
 20
106.57135362173707
  0
LWPOLYLINE
  5
8D
330
17
100
AcDbEntity
  8
Layer
100
AcDbPolyline
 90
5
 70
0
 10
132.8288604488674
 20
131.43473345433588
 10
128.82901757599038
 20
131.3992793671989
 10
128.79356348885338
 20
135.3991222400759
 10
132.7934063617304
 20
135.4345763272129
 10
132.8288604488674
 20
131.43473345433588
  0
LWPOLYLINE
  5
8E
330
17
100
AcDbEntity
  8
Layer
100
AcDbPolyline
 90
5
 70
0
 10
56.148799837646486
 20
124.31488210062896
 10
52.23992898743783
 20
123.46592469510789
 10
51.39097158191675
 20
127.37479554531653
 10
55.29984243212541
 20
128.2237529508376
 10
56.148799837646486
 20
124.31488210062896
  0
LWPOLYLINE
  5
8F
330
17
100
AcDbEntity
  8
Layer
100
AcDbPolyline
 90
5
 70
0
 10
15.121409445971132
 20
108.85553238931224
 10
13.433291419384659
 20
107.78303179336193
 10
10.752039929508861
 20
112.0033268598281
 10
12.440157956095334
 20
113.07582745577842
 10
15.121409445971132
 20
108.85553238931224
  0
LWPOLYLINE
  5
90
330
17
100
AcDbEntity
  8
Layer
100
AcDbPolyline
 90
5
 70
0
 10
24.870386112320894
 20
87.7316007960476
 10
26.793068293157567
 20
87.18088014862904
 10
25.41626667461116
 20
82.37417469653734
 10
23.493584493774485
 20
82.9248953439559
 10
24.870386112320894
 20
87.7316007960476
  0
LWPOLYLINE
  5
91
330
17
100
AcDbEntity
  8
Layer
100
AcDbPolyline
 90
5
 70
0
 10
73.56164363686786
 20
77.86136501782774
 10
77.53577989825133
 20
77.40722739996609
 10
77.08164228038969
 20
73.43309113858261
 10
73.10750601900621
 20
73.88722875644426
 10
73.56164363686786
 20
77.86136501782774
  0
LINE
  5
92
330
17
100
AcDbEntity
  8
Layer
100
AcDbLine
 10
492.89039495390193
 20
70.56064270863996
 30
0.0
 11
492.753379632716
 21
70.07978222808418
 31
0.0
  0
LINE
  5
93
330
17
100
AcDbEntity
  8
Layer
100
AcDbLine
 10
492.1455330422227
 20
66.11834054442735
 30
0.0
 11
492.1320707492805
 21
65.61852181061604
 31
0.0
  0
LINE
  5
94
330
17
100
AcDbEntity
  8
Layer
100
AcDbLine
 10
473.65251147862364
 20
76.02909245459402
 30
0.0
 11
473.51564819820203
 21
75.548188677865
 31
0.0
  0
LINE
  5
95
330
17
100
AcDbEntity
  8
Layer
100
AcDbLine
 10
472.14305368535327
 20
66.38719964251715
 30
0.0
 11
472.1329627947211
 21
65.88730147896158
 31
0.0
  0
LINE
  5
96
330
17
100
AcDbEntity
  8
Layer
100
AcDbLine
 10
435.1230613548569
 20
86.77634848837336
 30
0.0
 11
434.9874593653668
 21
86.29508753998223
 31
0.0
  0
LINE
  5
97
330
17
100
AcDbEntity
  8
Layer
100
AcDbLine
 10
432.1352123457744
 20
66.46328181759013
 30
0.0
 11
432.12969183306984
 21
65.9633122945795
 31
0.0
  0
LWPOLYLINE
  5
98
330
17
100
AcDbEntity
  8
Layer
100
AcDbPolyline
 90
300
 70
1
 10
220.55724999999953
 20
100.0
 10
220.55108985192214
 20
100.59862372019913
 10
220.53261212783792
 20
101.19698310501538
 10
220.50182498698967
 20
101.7948139357889
 10
220.45874202411213
 20
102.39185222725443
 10
220.4033822634288
 20
102.98783434410981
 10
220.33577015025162
 20
103.5824971174298
 10
220.25593554018636
 20
104.17557796087415
 10
220.16391368594944
 20
104.76681498663828
 10
220.0597452218011
 20
105.35594712109564
 10
219.94347614560274
 20
105.94271422008039
 10
219.81515779850523
 20
106.52685718375977
 10
219.67484684227836
 20
107.10811807104535
 10
219.5226052342905
 20
107.68624021349244
 10
219.3585002001499
 20
108.26096832863774
 10
219.18260420401998
 20
108.83204863272488
 10
218.99499491662093
 20
109.39922895276811
 10
218.7957551809326
 20
109.9622588379049
 10
218.58497297561348
 20
110.52088966998791
 10
218.36274137615166
 20
111.07487477336778
 10
218.12915851376542
 20
111.62396952381818
 10
217.88432753207115
 20
112.16793145655495
 10
217.62835654153807
 20
112.70652037330177
 10
217.36135857174975
 20
113.2394984483549
 10
217.08345152149334
 20
113.7666303336003
 10
216.79475810669882
 20
114.28768326243686
 10
216.4954058062511
 20
114.80242715255943
 10
216.185526805699
 20
115.31063470755676
 10
215.8652579388857
 20
115.8120815172792
 10
215.5347406275268
 20
116.30654615693186
 10
215.19412081876257
 20
116.79381028484963
 10
214.84354892071173
 20
117.27365873891067
 10
214.4831797360555
 20
117.74587963154595
 10
214.11317239368094
 20
118.21026444330283
 10
213.73369027841437
 20
118.66660811492143
 10
213.344900958875
 20
119.11470913788294
 10
212.9469761134815
 20
119.55436964339019
 10
212.54009145464354
 20
119.98539548974088
 10
212.1244266511722
 20
120.40759634805516
 10
211.70016524894322
 20
120.82078578631942
 10
211.2674945898484
 20
121.22478135170948
 10
210.82660572907065
 20
121.61940465115663
 10
210.37769335071934
 20
122.00448143012089
 10
209.92095568186332
 20
122.37984164953704
 10
209.4565944049995
 20
122.74531956089902
 10
208.98481456899543
 20
123.10075377944979
 10
208.50582449854554
 20
123.44598735544432
 10
208.01983570218084
 20
123.78086784345416
 10
207.52706277887262
 20
124.10524736968308
 10
207.02772332327174
 20
124.41898269726397
 10
206.5220378296248
 20
124.72193528950817
 10
206.01022959441013
 20
125.0139713710794
 10
205.49252461773645
 20
125.29496198706521
 10
204.96915150354744
 20
125.56478305991976
 10
204.44034135867682
 20
125.82331544425307
 10
203.9063276907979
 20
126.0704449794422
 10
203.36734630531333
 20
126.3060625400414
 10
202.82363520123002
 20
126.53006408396878
 10
202.2754344660654
 20
126.74235069844849
 10
201.7229861698317
 20
126.94282864368765
 10
201.1665342581444
 20
127.13140939426935
 10
200.606324444503
 20
127.30800967824288
 10
200.04260410179066
 20
127.47255151389436
 10
199.4756221530413
 20
127.62496224418119
 10
198.90562896152232
 20
127.76517456881541
 10
198.33287622018113
 20
127.89312657398162
 10
197.75761684050465
 20
128.00876175967633
 10
197.18010484084076
 20
128.11202906465678
 10
196.60059523423084
 20
128.2028828889882
 10
196.01934391580335
 20
128.2812831141794
 10
195.43660754977762
 20
128.347195120898
 10
194.85264345612813
 20
128.4005898042573
 10
194.26770949695944
 20
128.4414435866683
 10
193.6820639626413
 20
128.46973842825074
 10
193.09596545775514
 20
128.48546183479908
 10
192.50967278690132
 20
128.4886068632997
 10
191.92344484041845
 20
128.4791721249965
 10
191.33754048006477
 20
128.4571617860043
 10
190.7522184247119
 20
128.4225855654692
 10
190.16773713610203
 20
128.37545873127684
 10
189.58435470471832
 20
128.3158020933105
 10
189.00232873581965
 20
128.24364199426213
 10
188.42191623568917
 20
128.15901029800008
 10
187.84337349814763
 20
128.0619443754989
 10
187.26695599138128
 20
127.95248708833752
 10
186.69291824513436
 20
127.83068676977253
 10
186.1215137383157
 20
127.69659720339583
 10
185.5529947870699
 20
127.55027759938514
 10
184.98761243336133
 20
127.39179256835851
 10
184.42561633412123
 20
127.22121209284415
 10
183.8672546510062
 20
127.038611496378
 10
183.31277394081695
 20
126.844071410243
 10
182.76241904662584
 20
126.63767773786472
 10
182.21643298966103
 20
126.41952161687861
 10
181.67505686199516
 20
126.18969937888639
 10
181.1385297200858
 20
125.94831250691858
 10
180.60708847921504
 20
125.69546759062253
 10
180.08096780887408
 20
125.4312762791954
 10
179.56040002914008
 20
125.15585523208301
 10
179.04561500808998
 20
124.86932606746637
 10
178.53684006029732
 20
124.57181530855844
 10
178.0342998464564
 20
124.26345432773509
 10
177.5382162741786
 20
123.94437928852473
 10
177.0488084000041
 20
123.61473108548235
 10
176.56629233267273
 20
123.27465528197442
 10
176.09088113769647
 20
122.92430204590227
 10
175.62278474327564
 20
122.56382608339209
 10
175.16220984760054
 20
122.19338657048112
 10
174.70935982757942
 20
121.81314708282994
 10
174.26443464903286
 20
121.42327552349215
 10
173.82763077839456
 20
121.02394404877302
 10
173.39914109595725
 20
120.61532899221011
 10
172.97915481070223
 20
120.19761078670945
 10
172.56785737674994
 20
119.77097388487132
 10
172.16543041146875
 20
119.33560667754128
 10
171.77205161527775
 20
118.89170141062196
 10
171.38789469317928
 20
118.43945410018283
 10
171.01312927805563
 20
117.97906444590487
 10
170.64792085576408
 20
117.51073574289893
 10
170.2924306920629
 20
117.03467479193625
 10
169.94681576140087
 20
116.55109180813112
 10
169.61122867760196
 20
116.06020032811577
 10
169.28581762647516
 20
115.56221711574861
 10
168.97072630038
 20
115.05736206639743
 10
168.6660938347759
 20
114.54585810983978
 10
168.37205474678387
 20
114.02793111182345
 10
168.08873887578767
 20
113.5038097743305
 10
167.81627132610026
 20
112.97372553458898
 10
167.5547724117213
 20
112.43791246287667
 10
167.3043576032099
 20
111.89660715916227
 10
167.065137476696
 20
111.35004864862954
 10
166.8372176650532
 20
110.7984782761305
 10
166.62069881125407
 20
110.24213959961429
 10
166.41567652392922
 20
109.68127828257889
 10
166.22224133514908
 20
109.11614198559299
 10
166.04047866044766
 20
108.54698025693614
 10
165.8704687611052
 20
107.97404442240514
 10
165.71228670870735
 20
107.39758747433572
 10
165.5660023519954
 20
106.81786395988821
 10
165.4316802860232
 20
106.23512986864672
 10
165.30937982363378
 20
105.64964251958133
 10
165.19915496926842
 20
105.06166044742321
 10
165.10105439511986
 20
104.47144328850305
 10
165.01512141964
 20
103.87925166610296
 10
164.9413939884117
 20
103.28534707537251
 10
164.87990465739307
 20
102.68999176785988
 10
164.83068057854172
 20
102.09344863570891
 10
164.7937434878251
 20
101.49598109557341
 10
164.76910969562272
 20
100.89785297229967
 10
164.75679007952368
 20
100.29932838242898
 10
164.75679007952368
 20
99.70067161757103
 10
164.76910969562272
 20
99.10214702770033
 10
164.7937434878251
 20
98.5040189044266
 10
164.83068057854172
 20
97.90655136429109
 10
164.87990465739307
 20
97.31000823214012
 10
164.9413939884117
 20
96.7146529246275
 10
165.01512141964
 20
96.12074833389704
 10
165.10105439511986
 20
95.52855671149696
 10
165.19915496926842
 20
94.9383395525768
 10
165.30937982363378
 20
94.35035748041868
 10
165.4316802860232
 20
93.76487013135326
 10
165.5660023519954
 20
93.18213604011179
 10
165.71228670870735
 20
92.60241252566429
 10
165.8704687611052
 20
92.02595557759487
 10
166.04047866044766
 20
91.45301974306386
 10
166.22224133514908
 20
90.88385801440701
 10
166.41567652392922
 20
90.31872171742113
 10
166.62069881125407
 20
89.75786040038572
 10
166.8372176650532
 20
89.2015217238695
 10
167.065137476696
 20
88.64995135137045
 10
167.3043576032099
 20
88.10339284083774
 10
167.5547724117213
 20
87.56208753712335
 10
167.81627132610026
 20
87.02627446541102
 10
168.08873887578767
 20
86.4961902256695
 10
168.37205474678387
 20
85.97206888817655
 10
168.6660938347759
 20
85.45414189016022
 10
168.97072630038
 20
84.94263793360255
 10
169.28581762647516
 20
84.43778288425139
 10
169.61122867760196
 20
83.93979967188424
 10
169.94681576140087
 20
83.4489081918689
 10
170.2924306920629
 20
82.96532520806376
 10
170.64792085576408
 20
82.48926425710107
 10
171.01312927805563
 20
82.02093555409513
 10
171.38789469317928
 20
81.56054589981717
 10
171.77205161527777
 20
81.10829858937802
 10
172.16543041146875
 20
80.66439332245874
 10
172.56785737674994
 20
80.22902611512868
 10
172.9791548107022
 20
79.80238921329055
 10
173.39914109595725
 20
79.38467100778989
 10
173.82763077839456
 20
78.976055951227
 10
174.26443464903286
 20
78.57672447650785
 10
174.70935982757942
 20
78.18685291717006
 10
175.16220984760054
 20
77.80661342951889
 10
175.62278474327562
 20
77.43617391660791
 10
176.09088113769647
 20
77.07569795409773
 10
176.56629233267273
 20
76.72534471802558
 10
177.04880840000408
 20
76.38526891451767
 10
177.5382162741786
 20
76.05562071147527
 10
178.0342998464564
 20
75.73654567226491
 10
178.53684006029732
 20
75.42818469144154
 10
179.04561500809
 20
75.13067393253363
 10
179.56040002914008
 20
74.84414476791699
 10
180.08096780887408
 20
74.5687237208046
 10
180.60708847921504
 20
74.30453240937747
 10
181.1385297200858
 20
74.05168749308143
 10
181.67505686199516
 20
73.81030062111361
 10
182.21643298966103
 20
73.58047838312139
 10
182.76241904662584
 20
73.3623222621353
 10
183.31277394081692
 20
73.155928589757
 10
183.8672546510062
 20
72.961388503622
 10
184.42561633412123
 20
72.77878790715585
 10
184.98761243336133
 20
72.60820743164149
 10
185.5529947870699
 20
72.44972240061486
 10
186.1215137383157
 20
72.30340279660417
 10
186.69291824513436
 20
72.16931323022747
 10
187.26695599138128
 20
72.04751291166248
 10
187.84337349814763
 20
71.93805562450108
 10
188.42191623568917
 20
71.84098970199992
 10
189.00232873581967
 20
71.75635800573787
 10
189.58435470471832
 20
71.68419790668949
 10
190.167737136102
 20
71.62454126872316
 10
190.7522184247119
 20
71.57741443453081
 10
191.33754048006477
 20
71.54283821399571
 10
191.92344484041845
 20
71.52082787500352
 10
192.5096727869013
 20
71.5113931367003
 10
193.09596545775514
 20
71.5145381652009
 10
193.6820639626413
 20
71.53026157174928
 10
194.26770949695944
 20
71.55855641333171
 10
194.85264345612813
 20
71.5994101957427
 10
195.43660754977762
 20
71.65280487910202
 10
196.01934391580338
 20
71.71871688582061
 10
196.60059523423087
 20
71.79711711101181
 10
197.18010484084076
 20
71.88797093534323
 10
197.75761684050465
 20
71.99123824032368
 10
198.3328762201811
 20
72.10687342601837
 10
198.9056289615223
 20
72.23482543118457
 10
199.4756221530413
 20
72.37503775581881
 10
200.04260410179063
 20
72.52744848610564
 10
200.606324444503
 20
72.69199032175712
 10
201.1665342581444
 20
72.86859060573065
 10
201.7229861698317
 20
73.05717135631235
 10
202.2754344660654
 20
73.25764930155151
 10
202.82363520123002
 20
73.46993591603122
 10
203.36734630531333
 20
73.6939374599586
 10
203.9063276907979
 20
73.9295550205578
 10
204.44034135867682
 20
74.17668455574693
 10
204.96915150354747
 20
74.43521694008024
 10
205.49252461773645
 20
74.7050380129348
 10
206.01022959441013
 20
74.98602862892061
 10
206.52203782962476
 20
75.27806471049182
 10
207.02772332327174
 20
75.58101730273602
 10
207.52706277887262
 20
75.8947526303169
 10
208.0198357021808
 20
76.21913215654584
 10
208.50582449854554
 20
76.55401264455568
 10
208.98481456899543
 20
76.8992462205502
 10
209.4565944049995
 20
77.25468043910098
 10
209.92095568186332
 20
77.62015835046296
 10
210.37769335071934
 20
77.99551856987911
 10
210.82660572907065
 20
78.38059534884337
 10
211.2674945898484
 20
78.77521864829052
 10
211.70016524894322
 20
79.17921421368058
 10
212.1244266511722
 20
79.59240365194484
 10
212.54009145464354
 20
80.01460451025912
 10
212.9469761134815
 20
80.44563035660983
 10
213.344900958875
 20
80.88529086211705
 10
213.73369027841437
 20
81.33339188507856
 10
214.11317239368094
 20
81.78973555669717
 10
214.4831797360555
 20
82.25412036845405
 10
214.84354892071173
 20
82.72634126108933
 10
215.19412081876254
 20
83.20618971515037
 10
215.5347406275268
 20
83.69345384306814
 10
215.8652579388857
 20
84.1879184827208
 10
216.185526805699
 20
84.68936529244324
 10
216.4954058062511
 20
85.19757284744057
 10
216.79475810669882
 20
85.71231673756314
 10
217.08345152149334
 20
86.2333696663997
 10
217.36135857174975
 20
86.76050155164512
 10
217.62835654153807
 20
87.29347962669823
 10
217.88432753207115
 20
87.83206854344505
 10
218.12915851376542
 20
88.37603047618181
 10
218.36274137615166
 20
88.92512522663222
 10
218.58497297561348
 20
89.47911033001208
 10
218.7957551809326
 20
90.03774116209509
 10
218.9949949166209
 20
90.60077104723187
 10
219.18260420401998
 20
91.16795136727511
 10
219.3585002001499
 20
91.73903167136224
 10
219.5226052342905
 20
92.31375978650755
 10
219.67484684227836
 20
92.89188192895465
 10
219.81515779850523
 20
93.47314281624023
 10
219.94347614560274
 20
94.05728577991961
 10
220.0597452218011
 20
94.64405287890436
 10
220.16391368594944
 20
95.23318501336172
 10
220.25593554018636
 20
95.82442203912586
 10
220.33577015025162
 20
96.4175028825702
 10
220.4033822634288
 20
97.01216565589017
 10
220.45874202411213
 20
97.60814777274555
 10
220.50182498698967
 20
98.20518606421109
 10
220.53261212783792
 20
98.80301689498461
 10
220.55108985192214
 20
99.40137627980086
 10
220.55724999999953
 20
100.0
  0
LINE
  5
99
330
17
100
AcDbEntity
  8
Layer
100
AcDbLine
 10
378.8505171227095
 20
99.99999999999997
 30
0.0
 11
382.8505171227095
 21
99.99999999999997
 31
0.0
  0
LINE
  5
9A
330
17
100
AcDbEntity
  8
Layer
100
AcDbLine
 10
3.0866791326054965
 20
100.00000000000003
 30
0.0
 11
-0.9133208673945035
 21
100.00000000000003
 31
0.0
  0
LINE
  5
9B
330
17
100
AcDbEntity
  8
Layer
100
AcDbLine
 10
82.53944673062631
 20
100.00000000000001
 30
0.0
 11
71.53944673062631
 21
100.00000000000001
 31
0.0
  0
LWPOLYLINE
  5
9C
330
17
100
AcDbEntity
  8
Layer
100
AcDbPolyline
 90
5
 70
0
 10
72.03944673062631
 20
95.00000000000001
 10
72.03944673062631
 20
105.00000000000001
 10
82.03944673062631
 20
105.00000000000001
 10
82.03944673062631
 20
95.00000000000001
 10
72.03944673062631
 20
95.00000000000001
  0
LINE
  5
9D
330
17
100
AcDbEntity
  8
Layer
100
AcDbLine
 10
196.46859812765751
 20
100.0
 30
0.0
 11
185.46859812765751
 21
100.0
 31
0.0
  0
LWPOLYLINE
  5
9E
330
17
100
AcDbEntity
  8
Layer
100
AcDbPolyline
 90
5
 70
0
 10
185.96859812765751
 20
95.0
 10
185.96859812765751
 20
105.0
 10
195.96859812765751
 20
105.0
 10
195.96859812765751
 20
95.0
 10
185.96859812765751
 20
95.0
  0
LINE
  5
9F
330
17
100
AcDbEntity
  8
Layer
100
AcDbLine
 10
310.3977495246887
 20
99.99999999999999
 30
0.0
 11
299.3977495246887
 21
99.99999999999999
 31
0.0
  0
LWPOLYLINE
  5
A0
330
17
100
AcDbEntity
  8
Layer
100
AcDbPolyline
 90
5
 70
0
 10
299.8977495246887
 20
94.99999999999999
 10
299.8977495246887
 20
104.99999999999999
 10
309.8977495246887
 20
104.99999999999999
 10
309.8977495246887
 20
94.99999999999999
 10
299.8977495246887
 20
94.99999999999999
  0
LINE
  5
A1
330
17
100
AcDbEntity
  8
Layer
100
AcDbLine
 10
509.8237799127729
 20
65.23513386806044
 30
0.0
 11
513.8147236055657
 21
64.96612003764008
 31
0.0
  0
LINE
  5
A2
330
17
100
AcDbEntity
  8
Layer
100
AcDbLine
 10
3.030057847506498
 20
99.39610703638223
 30
0.0
 11
-0.9608858452862705
 21
99.66512086680261
 31
0.0
  0
LINE
  5
A3
330
17
100
AcDbEntity
  8
Layer
100
AcDbLine
 10
512.557320449501
 20
65.05087664295287
 30
0.0
 11
508.5663767567083
 21
65.31989047337325
 31
0.0
  0
LINE
  5
A4
330
17
100
AcDbEntity
  8
Layer
100
AcDbLine
 10
192.6562499999996
 20
128.48899999999992
 30
0.0
 11
192.6562499999996
 21
128.98899999999992
 31
0.0
  0
LINE
  5
A5
330
17
100
AcDbEntity
  8
Layer
100
AcDbLine
 10
192.6562499999996
 20
71.51100000000008
 30
0.0
 11
192.6562499999996
 21
71.01100000000008
 31
0.0
  0
LINE
  5
A6
330
17
100
AcDbEntity
  8
Layer
100
AcDbLine
 10
220.55724999999953
 20
100.0
 30
0.0
 11
221.05724999999953
 21
100.0
 31
0.0
  0
LINE
  5
A7
330
17
100
AcDbEntity
  8
Layer
100
AcDbLine
 10
164.75524999999968
 20
100.0
 30
0.0
 11
164.25524999999968
 21
100.0
 31
0.0
  0
LINE
  5
A8
330
17
100
AcDbEntity
  8
Layer
100
AcDbLine
 10
27.656249999999602
 20
118.4150851957421
 30
0.0
 11
27.656249999999602
 21
122.4150851957421
 31
0.0
  0
LINE
  5
A9
330
17
100
AcDbEntity
  8
Layer
100
AcDbLine
 10
27.656249999999602
 20
83.75007144807437
 30
0.0
 11
27.656249999999602
 21
79.75007144807437
 31
0.0
  0
LINE
  5
AA
330
17
100
AcDbEntity
  8
Layer
100
AcDbLine
 10
27.656249999999602
 20
94.9830741976079
 30
0.0
 11
27.656249999999602
 21
83.98307419760792
 31
0.0
  0
LWPOLYLINE
  5
AB
330
17
100
AcDbEntity
  8
Layer
100
AcDbPolyline
 90
5
 70
0
 10
32.6562499999996
 20
84.4830741976079
 10
22.656249999999602
 20
84.4830741976079
 10
22.656249999999602
 20
94.4830741976079
 10
32.6562499999996
 20
94.4830741976079
 10
32.6562499999996
 20
84.4830741976079
  0
LINE
  5
AC
330
17
100
AcDbEntity
  8
Layer
100
AcDbLine
 10
27.656249999999602
 20
106.58257832190823
 30
0.0
 11
27.656249999999602
 21
95.58257832190823
 31
0.0
  0
LWPOLYLINE
  5
AD
330
17
100
AcDbEntity
  8
Layer
100
AcDbPolyline
 90
5
 70
0
 10
32.6562499999996
 20
96.08257832190823
 10
22.656249999999602
 20
96.08257832190823
 10
22.656249999999602
 20
106.08257832190823
 10
32.6562499999996
 20
106.08257832190823
 10
32.6562499999996
 20
96.08257832190823
  0
LINE
  5
AE
330
17
100
AcDbEntity
  8
Layer
100
AcDbLine
 10
27.656249999999602
 20
118.18208244620855
 30
0.0
 11
27.656249999999602
 21
107.18208244620855
 31
0.0
  0
LWPOLYLINE
  5
AF
330
17
100
AcDbEntity
  8
Layer
100
AcDbPolyline
 90
5
 70
0
 10
32.6562499999996
 20
107.68208244620855
 10
22.656249999999602
 20
107.68208244620855
 10
22.656249999999602
 20
117.68208244620855
 10
32.6562499999996
 20
117.68208244620855
 10
32.6562499999996
 20
107.68208244620855
  0
LINE
  5
B0
330
17
100
AcDbEntity
  8
Layer
100
AcDbLine
 10
322.6562499999996
 20
111.48019903093292
 30
0.0
 11
322.6562499999996
 21
115.48019903093292
 31
0.0
  0
LINE
  5
B1
330
17
100
AcDbEntity
  8
Layer
100
AcDbLine
 10
322.6562499999996
 20
67.00397095662717
 30
0.0
 11
322.6562499999996
 21
63.003970956627164
 31
0.0
  0
LINE
  5
B2
330
17
100
AcDbEntity
  8
Layer
100
AcDbLine
 10
322.6562499999996
 20
80.19921657148832
 30
0.0
 11
322.6562499999996
 21
69.19921657148832
 31
0.0
  0
LWPOLYLINE
  5
B3
330
17
100
AcDbEntity
  8
Layer
100
AcDbPolyline
 90
5
 70
0
 10
327.6562499999996
 20
69.69921657148832
 10
317.6562499999996
 20
69.69921657148832
 10
317.6562499999996
 20
79.69921657148832
 10
327.6562499999996
 20
79.69921657148832
 10
327.6562499999996
 20
69.69921657148832
  0
LINE
  5
B4
330
17
100
AcDbEntity
  8
Layer
100
AcDbLine
 10
322.6562499999996
 20
94.74208499378004
 30
0.0
 11
322.6562499999996
 21
83.74208499378005
 31
0.0
  0
LWPOLYLINE
  5
B5
330
17
100
AcDbEntity
  8
Layer
100
AcDbPolyline
 90
5
 70
0
 10
327.6562499999996
 20
84.24208499378004
 10
317.6562499999996
 20
84.24208499378004
 10
317.6562499999996
 20
94.24208499378004
 10
327.6562499999996
 20
94.24208499378004
 10
327.6562499999996
 20
84.24208499378004
  0
LINE
  5
B6
330
17
100
AcDbEntity
  8
Layer
100
AcDbLine
 10
322.6562499999996
 20
109.28495341607177
 30
0.0
 11
322.6562499999996
 21
98.28495341607177
 31
0.0
  0
LWPOLYLINE
  5
B7
330
17
100
AcDbEntity
  8
Layer
100
AcDbPolyline
 90
5
 70
0
 10
327.6562499999996
 20
98.78495341607177
 10
317.6562499999996
 20
98.78495341607177
 10
317.6562499999996
 20
108.78495341607177
 10
327.6562499999996
 20
108.78495341607177
 10
327.6562499999996
 20
98.78495341607177
  0
ENDSEC
  0
SECTION
  2
OBJECTS
  0
DICTIONARY
  5
A
330
0
100
AcDbDictionary
280
0
281
1
  3
ACAD_COLOR
350
B
  3
ACAD_GROUP
350
C
  3
ACAD_LAYOUT
350
D
  3
ACAD_MATERIAL
350
E
  3
ACAD_MLEADERSTYLE
350
F
  3
ACAD_MLINESTYLE
350
10
  3
ACAD_PLOTSETTINGS
350
11
  3
ACAD_PLOTSTYLENAME
350
12
  3
ACAD_SCALELIST
350
14
  3
ACAD_TABLESTYLE
350
15
  3
ACAD_VISUALSTYLE
350
16
  3
EZDXF_META
350
2D
  0
DICTIONARY
  5
B
330
A
100
AcDbDictionary
280
0
281
1
  0
DICTIONARY
  5
C
330
A
100
AcDbDictionary
280
0
281
1
  0
DICTIONARY
  5
D
330
A
100
AcDbDictionary
280
0
281
1
  3
Model
350
1A
  3
Layout1
350
1E
  0
DICTIONARY
  5
E
330
A
100
AcDbDictionary
280
0
281
1
  3
ByBlock
350
1F
  3
ByLayer
350
20
  3
Global
350
21
  0
DICTIONARY
  5
F
330
A
100
AcDbDictionary
280
0
281
1
  3
Standard
350
2C
  0
DICTIONARY
  5
10
330
A
100
AcDbDictionary
280
0
281
1
  3
Standard
350
22
  0
DICTIONARY
  5
11
330
A
100
AcDbDictionary
280
0
281
1
  0
ACDBDICTIONARYWDFLT
  5
12
330
A
100
AcDbDictionary
280
0
281
1
  3
Normal
350
13
100
AcDbDictionaryWithDefault
340
13
  0
ACDBPLACEHOLDER
  5
13
330
12
  0
DICTIONARY
  5
14
330
A
100
AcDbDictionary
280
0
281
1
  0
DICTIONARY
  5
15
330
A
100
AcDbDictionary
280
0
281
1
  0
DICTIONARY
  5
16
330
A
100
AcDbDictionary
280
0
281
1
  3
2dWireframe
350
5A
  3
Basic
350
5B
  3
Brighten
350
5C
  3
ColorChange
350
5D
  3
Conceptual
350
5E
  3
Dim
350
5F
  3
EdgeColorOff
350
60
  3
Facepattern
350
61
  3
Flat
350
62
  3
FlatWithEdges
350
63
  3
Gouraud
350
64
  3
GouraudWithEdges
350
65
  3
Hidden
350
66
  3
JitterOff
350
67
  3
Linepattern
350
68
  3
Modeling
350
69
  3
OverhangOff
350
6A
  3
Realistic
350
6B
  3
Shaded
350
6C
  3
Shaded with edges
350
6D
  3
Shades of Gray
350
6E
  3
Sketchy
350
6F
  3
Thicken
350
70
  3
Wireframe
350
71
  3
X-Ray
350
72
  0
LAYOUT
  5
1A
330
D
100
AcDbPlotSettings
  1

  2
Adobe PDF
  4
A3
  6

 40
7.5
 41
20.0
 42
7.5
 43
20.0
 44
420.0
 45
297.0
 46
0.0
 47
0.0
 48
0.0
 49
0.0
140
0.0
141
0.0
142
1.0
143
1.0
 70
1024
 72
1
 73
0
 74
5
  7

 75
16
 76
0
 77
2
 78
300
147
1.0
148
0.0
149
0.0
100
AcDbLayout
  1
Model
 70
1
 71
0
 10
0.0
 20
0.0
 11
420.0
 21
297.0
 12
0.0
 22
0.0
 32
0.0
 14
1e+20
 24
1e+20
 34
1e+20
 15
-1e+20
 25
-1e+20
 35
-1e+20
146
0.0
 13
0.0
 23
0.0
 33
0.0
 16
1.0
 26
0.0
 36
0.0
 17
0.0
 27
1.0
 37
0.0
 76
1
330
17
  0
LAYOUT
  5
1E
330
D
100
AcDbPlotSettings
  1

  2
Adobe PDF
  4
A3
  6

 40
7.5
 41
20.0
 42
7.5
 43
20.0
 44
420.0
 45
297.0
 46
0.0
 47
0.0
 48
0.0
 49
0.0
140
0.0
141
0.0
142
1.0
143
1.0
 70
0
 72
1
 73
0
 74
5
  7

 75
16
 76
0
 77
2
 78
300
147
1.0
148
0.0
149
0.0
100
AcDbLayout
  1
Layout1
 70
1
 71
1
 10
0.0
 20
0.0
 11
420.0
 21
297.0
 12
0.0
 22
0.0
 32
0.0
 14
1e+20
 24
1e+20
 34
1e+20
 15
-1e+20
 25
-1e+20
 35
-1e+20
146
0.0
 13
0.0
 23
0.0
 33
0.0
 16
1.0
 26
0.0
 36
0.0
 17
0.0
 27
1.0
 37
0.0
 76
1
330
1B
  0
MATERIAL
  5
1F
102
{ACAD_REACTORS
330
E
102
}
330
E
100
AcDbMaterial
  1
ByBlock
  2

 70
0
 40
1.0
 71
1
 41
1.0
 91
-1023410177
 42
1.0
 72
1
  3

 73
1
 74
1
 75
1
 44
0.5
 73
0
 45
1.0
 46
1.0
 77
1
  4

 78
1
 79
1
170
1
 48
1.0
171
1
  6

172
1
173
1
174
1
140
1.0
141
1.0
175
1
  7

176
1
177
1
178
1
143
1.0
179
1
  8

270
1
271
1
272
1
145
1.0
146
1.0
273
1
  9

274
1
275
1
276
1
 42
1.0
 72
1
  3

 73
1
 74
1
 75
1
 94
63
  0
MATERIAL
  5
20
102
{ACAD_REACTORS
330
E
102
}
330
E
100
AcDbMaterial
  1
ByLayer
  2

 70
0
 40
1.0
 71
1
 41
1.0
 91
-1023410177
 42
1.0
 72
1
  3

 73
1
 74
1
 75
1
 44
0.5
 73
0
 45
1.0
 46
1.0
 77
1
  4

 78
1
 79
1
170
1
 48
1.0
171
1
  6

172
1
173
1
174
1
140
1.0
141
1.0
175
1
  7

176
1
177
1
178
1
143
1.0
179
1
  8

270
1
271
1
272
1
145
1.0
146
1.0
273
1
  9

274
1
275
1
276
1
 42
1.0
 72
1
  3

 73
1
 74
1
 75
1
 94
63
  0
MATERIAL
  5
21
102
{ACAD_REACTORS
330
E
102
}
330
E
100
AcDbMaterial
  1
Global
  2

 70
0
 40
1.0
 71
1
 41
1.0
 91
-1023410177
 42
1.0
 72
1
  3

 73
1
 74
1
 75
1
 44
0.5
 73
0
 45
1.0
 46
1.0
 77
1
  4

 78
1
 79
1
170
1
 48
1.0
171
1
  6

172
1
173
1
174
1
140
1.0
141
1.0
175
1
  7

176
1
177
1
178
1
143
1.0
179
1
  8

270
1
271
1
272
1
145
1.0
146
1.0
273
1
  9

274
1
275
1
276
1
 42
1.0
 72
1
  3

 73
1
 74
1
 75
1
 94
63
  0
MLINESTYLE
  5
22
102
{ACAD_REACTORS
330
10
102
}
330
10
100
AcDbMlineStyle
  2
Standard
 70
0
  3

 62
256
 51
90.0
 52
90.0
 71
2
 49
0.5
 62
256
  6
BYLAYER
 49
-0.5
 62
256
  6
BYLAYER
  0
MLEADERSTYLE
  5
2C
102
{ACAD_REACTORS
330
F
102
}
330
F
100
AcDbMLeaderStyle
179
2
170
2
171
1
172
0
 90
2
 40
0.0
 41
0.0
173
1
 91
-1056964608
 92
-2
290
1
 42
2.0
291
1
 43
8.0
  3
Standard
 44
4.0
300

342
29
174
1
175
1
176
0
178
1
 93
-1056964608
 45
4.0
292
0
297
0
 46
4.0
 94
-1056964608
 47
1.0
 49
1.0
140
1.0
294
1
141
0.0
177
0
142
1.0
295
0
296
0
143
3.75
271
0
272
9
273
9
  0
DICTIONARY
  5
2D
330
A
100
AcDbDictionary
281
1
  3
CREATED_BY_EZDXF
350
2E
  3
WRITTEN_BY_EZDXF
350
BA
  0
DICTIONARYVAR
  5
2E
330
2D
100
DictionaryVariables
280
0
  1
1.1.0 @ 2024-03-26T01:33:50.243599+00:00
  0
VISUALSTYLE
  5
5A
102
{ACAD_REACTORS
330
16
102
}
330
16
100
AcDbVisualStyle
  2
2dWireframe
 70
4
 90
0
 40
0.6
 62
7
290
0
291
0
  0
VISUALSTYLE
  5
5B
102
{ACAD_REACTORS
330
16
102
}
330
16
100
AcDbVisualStyle
  2
Basic
 70
7
 90
1
 40
0.6
 62
7
290
0
291
1
  0
VISUALSTYLE
  5
5C
102
{ACAD_REACTORS
330
16
102
}
330
16
100
AcDbVisualStyle
  2
Brighten
 70
12
 90
2
 40
0.6
 62
7
290
0
291
1
  0
VISUALSTYLE
  5
5D
102
{ACAD_REACTORS
330
16
102
}
330
16
100
AcDbVisualStyle
  2
ColorChange
 70
16
 90
2
 40
0.6
 62
8
290
0
291
1
  0
VISUALSTYLE
  5
5E
102
{ACAD_REACTORS
330
16
102
}
330
16
100
AcDbVisualStyle
  2
Conceptual
 70
9
 90
3
 40
0.6
 62
7
290
0
291
0
  0
VISUALSTYLE
  5
5F
102
{ACAD_REACTORS
330
16
102
}
330
16
100
AcDbVisualStyle
  2
Dim
 70
11
 90
2
 40
0.6
 62
7
290
0
291
1
  0
VISUALSTYLE
  5
60
102
{ACAD_REACTORS
330
16
102
}
330
16
100
AcDbVisualStyle
  2
EdgeColorOff
 70
22
 90
2
 40
0.6
 62
7
290
0
291
1
  0
VISUALSTYLE
  5
61
102
{ACAD_REACTORS
330
16
102
}
330
16
100
AcDbVisualStyle
  2
Facepattern
 70
15
 90
2
 40
0.6
 62
7
290
0
291
1
  0
VISUALSTYLE
  5
62
102
{ACAD_REACTORS
330
16
102
}
330
16
100
AcDbVisualStyle
  2
Flat
 70
0
 90
2
 40
0.6
 62
7
290
0
291
1
  0
VISUALSTYLE
  5
63
102
{ACAD_REACTORS
330
16
102
}
330
16
100
AcDbVisualStyle
  2
FlatWithEdges
 70
1
 90
2
 40
0.6
 62
7
290
0
291
1
  0
VISUALSTYLE
  5
64
102
{ACAD_REACTORS
330
16
102
}
330
16
100
AcDbVisualStyle
  2
Gouraud
 70
2
 90
2
 40
0.6
 62
7
290
0
291
1
  0
VISUALSTYLE
  5
65
102
{ACAD_REACTORS
330
16
102
}
330
16
100
AcDbVisualStyle
  2
GouraudWithEdges
 70
3
 90
2
 40
0.6
 62
7
290
0
291
1
  0
VISUALSTYLE
  5
66
102
{ACAD_REACTORS
330
16
102
}
330
16
100
AcDbVisualStyle
  2
Hidden
 70
6
 90
1
 40
0.6
 62
7
290
0
291
0
  0
VISUALSTYLE
  5
67
102
{ACAD_REACTORS
330
16
102
}
330
16
100
AcDbVisualStyle
  2
JitterOff
 70
20
 90
2
 40
0.6
 62
7
290
0
291
1
  0
VISUALSTYLE
  5
68
102
{ACAD_REACTORS
330
16
102
}
330
16
100
AcDbVisualStyle
  2
Linepattern
 70
14
 90
2
 40
0.6
 62
7
290
0
291
1
  0
VISUALSTYLE
  5
69
102
{ACAD_REACTORS
330
16
102
}
330
16
100
AcDbVisualStyle
  2
Modeling
 70
10
 90
2
 40
0.6
 62
7
290
0
291
0
  0
VISUALSTYLE
  5
6A
102
{ACAD_REACTORS
330
16
102
}
330
16
100
AcDbVisualStyle
  2
OverhangOff
 70
21
 90
2
 40
0.6
 62
7
290
0
291
1
  0
VISUALSTYLE
  5
6B
102
{ACAD_REACTORS
330
16
102
}
330
16
100
AcDbVisualStyle
  2
Realistic
 70
8
 90
2
 40
0.6
 62
7
290
0
291
0
  0
VISUALSTYLE
  5
6C
102
{ACAD_REACTORS
330
16
102
}
330
16
100
AcDbVisualStyle
  2
Shaded
 70
27
 90
2
 40
0.6
 62
7
290
0
291
0
  0
VISUALSTYLE
  5
6D
102
{ACAD_REACTORS
330
16
102
}
330
16
100
AcDbVisualStyle
  2
Shaded with edges
 70
26
 90
2
 40
0.6
 62
7
290
0
291
0
  0
VISUALSTYLE
  5
6E
102
{ACAD_REACTORS
330
16
102
}
330
16
100
AcDbVisualStyle
  2
Shades of Gray
 70
23
 90
2
 40
0.6
 62
7
290
0
291
0
  0
VISUALSTYLE
  5
6F
102
{ACAD_REACTORS
330
16
102
}
330
16
100
AcDbVisualStyle
  2
Sketchy
 70
24
 90
1
 40
0.6
 62
7
290
0
291
0
  0
VISUALSTYLE
  5
70
102
{ACAD_REACTORS
330
16
102
}
330
16
100
AcDbVisualStyle
  2
Thicken
 70
13
 90
2
 40
0.6
 62
7
290
0
291
1
  0
VISUALSTYLE
  5
71
102
{ACAD_REACTORS
330
16
102
}
330
16
100
AcDbVisualStyle
  2
Wireframe
 70
5
 90
0
 40
0.6
 62
7
290
0
291
0
  0
VISUALSTYLE
  5
72
102
{ACAD_REACTORS
330
16
102
}
330
16
100
AcDbVisualStyle
  2
X-Ray
 70
25
 90
2
 40
0.5
 62
7
290
0
291
0
  0
DICTIONARYVAR
  5
BA
330
2D
100
DictionaryVariables
280
0
  1
1.1.0 @ 2024-03-26T01:33:50.263715+00:00
  0
ENDSEC
  0
EOF
