  0
SECTION
  2
HEADER
  9
$ACADVER
  1
AC1021
  9
$ACADMAINTVER
 70
25
  9
$DWGCODEPAGE
  3
ANSI_1252
  9
$LASTSAVEDBY
  1
ezdxf
  9
$INSBASE
 10
0.0
 20
0.0
 30
0.0
  9
$EXTMIN
 10
1e+20
 20
1e+20
 30
1e+20
  9
$EXTMAX
 10
-1e+20
 20
-1e+20
 30
-1e+20
  9
$LIMMIN
 10
0.0
 20
0.0
  9
$LIMMAX
 10
420.0
 20
297.0
  9
$ORTHOMODE
 70
0
  9
$REGENMODE
 70
1
  9
$FILLMODE
 70
1
  9
$QTEXTMODE
 70
0
  9
$MIRRTEXT
 70
1
  9
$LTSCALE
 40
1.0
  9
$ATTMODE
 70
1
  9
$TEXTSIZE
 40
2.5
  9
$TRACEWID
 40
1.0
  9
$TEXTSTYLE
  7
OpenSans
  9
$CLAYER
  8
0
  9
$CELTYPE
  6
ByLayer
  9
$CECOLOR
 62
256
  9
$CELTSCALE
 40
1.0
  9
$DISPSILH
 70
0
  9
$DIMSCALE
 40
1.0
  9
$DIMASZ
 40
0.175
  9
$DIMEXO
 40
0.125
  9
$DIMDLI
 40
3.75
  9
$DIMRND
 40
0.0
  9
$DIMDLE
 40
0.0
  9
$DIMEXE
 40
0.375
  9
$DIMTP
 40
0.0
  9
$DIMTM
 40
0.0
  9
$DIMTXT
 40
0.25
  9
$DIMCEN
 40
2.5
  9
$DIMTSZ
 40
0.0
  9
$DIMTOL
 70
0
  9
$DIMLIM
 70
0
  9
$DIMTIH
 70
0
  9
$DIMTOH
 70
0
  9
$DIMSE1
 70
0
  9
$DIMSE2
 70
0
  9
$DIMTAD
 70
1
  9
$DIMZIN
 70
12
  9
$DIMBLK
  1
ARCHTICK
  9
$DIMASO
 70
1
  9
$DIMSHO
 70
1
  9
$DIMPOST
  1

  9
$DIMAPOST
  1

  9
$DIMALT
 70
0
  9
$DIMALTD
 70
3
  9
$DIMALTF
 40
0.03937007874
  9
$DIMLFAC
 40
100.0
  9
$DIMTOFL
 70
1
  9
$DIMTVP
 40
0.0
  9
$DIMTIX
 70
0
  9
$DIMSOXD
 70
0
  9
$DIMSAH
 70
0
  9
$DIMBLK1
  1

  9
$DIMBLK2
  1

  9
$DIMSTYLE
  2
EZDXF
  9
$DIMCLRD
 70
0
  9
$DIMCLRE
 70
0
  9
$DIMCLRT
 70
0
  9
$DIMTFAC
 40
0.5
  9
$DIMGAP
 40
0.1
  9
$DIMJUST
 70
0
  9
$DIMSD1
 70
0
  9
$DIMSD2
 70
0
  9
$DIMTOLJ
 70
0
  9
$DIMTZIN
 70
8
  9
$DIMALTZ
 70
0
  9
$DIMALTTZ
 70
0
  9
$DIMUPT
 70
1
  9
$DIMDEC
 70
2
  9
$DIMTDEC
 70
2
  9
$DIMALTU
 70
2
  9
$DIMALTTD
 70
3
  9
$DIMTXSTY
  7
OpenSansCondensed-Light
  9
$DIMAUNIT
 70
0
  9
$DIMADEC
 70
2
  9
$DIMALTRND
 40
0.0
  9
$DIMAZIN
 70
3
  9
$DIMDSEP
 70
46
  9
$DIMATFIT
 70
3
  9
$DIMFRAC
 70
0
  9
$DIMLDRBLK
  1

  9
$DIMLUNIT
 70
2
  9
$DIMLWD
 70
-2
  9
$DIMLWE
 70
-2
  9
$DIMTMOVE
 70
2
  9
$DIMFXL
 40
1.0
  9
$DIMFXLON
 70
0
  9
$DIMJOGANG
 40
0.785398163397
  9
$DIMTFILL
 70
0
  9
$DIMTFILLCLR
 70
0
  9
$DIMARCSYM
 70
0
  9
$DIMLTYPE
  6

  9
$DIMLTEX1
  6

  9
$DIMLTEX2
  6

  9
$LUNITS
 70
2
  9
$LUPREC
 70
4
  9
$SKETCHINC
 40
1.0
  9
$FILLETRAD
 40
10.0
  9
$AUNITS
 70
0
  9
$AUPREC
 70
2
  9
$MENU
  1
.
  9
$ELEVATION
 40
0.0
  9
$PELEVATION
 40
0.0
  9
$THICKNESS
 40
0.0
  9
$LIMCHECK
 70
0
  9
$CHAMFERA
 40
0.0
  9
$CHAMFERB
 40
0.0
  9
$CHAMFERC
 40
0.0
  9
$CHAMFERD
 40
0.0
  9
$SKPOLY
 70
0
  9
$TDCREATE
 40
2460396.440150463
  9
$TDUCREATE
 40
2458532.153996898
  9
$TDUPDATE
 40
2460396.440150463
  9
$TDUUPDATE
 40
2458532.1544311
  9
$TDINDWG
 40
0.0
  9
$TDUSRTIMER
 40
0.0
  9
$USRTIMER
 70
1
  9
$ANGBASE
 50
0.0
  9
$ANGDIR
 70
0
  9
$PDMODE
 70
0
  9
$PDSIZE
 40
0.0
  9
$PLINEWID
 40
0.0
  9
$SPLFRAME
 70
0
  9
$SPLINETYPE
 70
6
  9
$SPLINESEGS
 70
8
  9
$HANDSEED
  5
BB
  9
$SURFTAB1
 70
6
  9
$SURFTAB2
 70
6
  9
$SURFTYPE
 70
6
  9
$SURFU
 70
6
  9
$SURFV
 70
6
  9
$UCSBASE
  2

  9
$UCSNAME
  2

  9
$UCSORG
 10
0.0
 20
0.0
 30
0.0
  9
$UCSXDIR
 10
1.0
 20
0.0
 30
0.0
  9
$UCSYDIR
 10
0.0
 20
1.0
 30
0.0
  9
$UCSORTHOREF
  2

  9
$UCSORTHOVIEW
 70
0
  9
$UCSORGTOP
 10
0.0
 20
0.0
 30
0.0
  9
$UCSORGBOTTOM
 10
0.0
 20
0.0
 30
0.0
  9
$UCSORGLEFT
 10
0.0
 20
0.0
 30
0.0
  9
$UCSORGRIGHT
 10
0.0
 20
0.0
 30
0.0
  9
$UCSORGFRONT
 10
0.0
 20
0.0
 30
0.0
  9
$UCSORGBACK
 10
0.0
 20
0.0
 30
0.0
  9
$PUCSBASE
  2

  9
$PUCSNAME
  2

  9
$PUCSORG
 10
0.0
 20
0.0
 30
0.0
  9
$PUCSXDIR
 10
1.0
 20
0.0
 30
0.0
  9
$PUCSYDIR
 10
0.0
 20
1.0
 30
0.0
  9
$PUCSORTHOREF
  2

  9
$PUCSORTHOVIEW
 70
0
  9
$PUCSORGTOP
 10
0.0
 20
0.0
 30
0.0
  9
$PUCSORGBOTTOM
 10
0.0
 20
0.0
 30
0.0
  9
$PUCSORGLEFT
 10
0.0
 20
0.0
 30
0.0
  9
$PUCSORGRIGHT
 10
0.0
 20
0.0
 30
0.0
  9
$PUCSORGFRONT
 10
0.0
 20
0.0
 30
0.0
  9
$PUCSORGBACK
 10
0.0
 20
0.0
 30
0.0
  9
$USERI1
 70
0
  9
$USERI2
 70
0
  9
$USERI3
 70
0
  9
$USERI4
 70
0
  9
$USERI5
 70
0
  9
$USERR1
 40
0.0
  9
$USERR2
 40
0.0
  9
$USERR3
 40
0.0
  9
$USERR4
 40
0.0
  9
$USERR5
 40
0.0
  9
$WORLDVIEW
 70
1
  9
$SHADEDGE
 70
3
  9
$SHADEDIF
 70
70
  9
$TILEMODE
 70
1
  9
$MAXACTVP
 70
64
  9
$PINSBASE
 10
0.0
 20
0.0
 30
0.0
  9
$PLIMCHECK
 70
0
  9
$PEXTMIN
 10
1e+20
 20
1e+20
 30
1e+20
  9
$PEXTMAX
 10
-1e+20
 20
-1e+20
 30
-1e+20
  9
$PLIMMIN
 10
0.0
 20
0.0
  9
$PLIMMAX
 10
420.0
 20
297.0
  9
$UNITMODE
 70
0
  9
$VISRETAIN
 70
1
  9
$PLINEGEN
 70
0
  9
$PSLTSCALE
 70
1
  9
$TREEDEPTH
 70
3020
  9
$CMLSTYLE
  2
Standard
  9
$CMLJUST
 70
0
  9
$CMLSCALE
 40
20.0
  9
$PROXYGRAPHICS
 70
1
  9
$MEASUREMENT
 70
1
  9
$CELWEIGHT
370
-1
  9
$ENDCAPS
280
0
  9
$JOINSTYLE
280
0
  9
$LWDISPLAY
290
0
  9
$INSUNITS
 70
6
  9
$HYPERLINKBASE
  1

  9
$STYLESHEET
  1

  9
$XEDIT
290
1
  9
$CEPSNTYPE
380
0
  9
$PSTYLEMODE
290
1
  9
$FINGERPRINTGUID
  2
{D334E8D1-50DC-4FC0-9997-C6162D5559C7}
  9
$VERSIONGUID
  2
{2674F33D-9259-4BA0-9F63-978B050AE6A0}
  9
$EXTNAMES
290
1
  9
$PSVPSCALE
 40
0.0
  9
$OLESTARTUP
290
0
  9
$SORTENTS
280
127
  9
$INDEXCTL
280
0
  9
$HIDETEXT
280
1
  9
$XCLIPFRAME
290
0
  9
$HALOGAP
280
0
  9
$OBSCOLOR
 70
257
  9
$OBSLTYPE
280
0
  9
$INTERSECTIONDISPLAY
280
0
  9
$INTERSECTIONCOLOR
 70
257
  9
$DIMASSOC
280
2
  9
$PROJECTNAME
  1

  9
$CAMERADISPLAY
290
0
  9
$LENSLENGTH
 40
50.0
  9
$CAMERAHEIGHT
 40
0.0
  9
$STEPSPERSEC
 40
24.0
  9
$STEPSIZE
 40
100.0
  9
$3DDWFPREC
 40
2.0
  9
$PSOLWIDTH
 40
0.005
  9
$PSOLHEIGHT
 40
0.08
  9
$LOFTANG1
 40
1.570796326795
  9
$LOFTANG2
 40
1.570796326795
  9
$LOFTMAG1
 40
0.0
  9
$LOFTMAG2
 40
0.0
  9
$LOFTPARAM
 70
7
  9
$LOFTNORMALS
280
1
  9
$LATITUDE
 40
37.795
  9
$LONGITUDE
 40
-122.394
  9
$NORTHDIRECTION
 40
0.0
  9
$TIMEZONE
 70
-8000
  9
$LIGHTGLYPHDISPLAY
280
1
  9
$TILEMODELIGHTSYNCH
280
1
  9
$CMATERIAL
347
20
  9
$SOLIDHIST
280
0
  9
$SHOWHIST
280
1
  9
$DWFFRAME
280
2
  9
$DGNFRAME
280
2
  9
$REALWORLDSCALE
290
1
  9
$INTERFERECOLOR
 62
256
  9
$CSHADOW
280
0
  9
$SHADOWPLANELOCATION
 40
0.0
  0
ENDSEC
  0
SECTION
  2
CLASSES
  0
CLASS
  1
ACDBDICTIONARYWDFLT
  2
AcDbDictionaryWithDefault
  3
ObjectDBX Classes
 90
0
 91
0
280
0
281
0
  0
CLASS
  1
SUN
  2
AcDbSun
  3
SCENEOE
 90
1153
 91
0
280
0
281
0
  0
CLASS
  1
VISUALSTYLE
  2
AcDbVisualStyle
  3
ObjectDBX Classes
 90
4095
 91
0
280
0
281
0
  0
CLASS
  1
MATERIAL
  2
AcDbMaterial
  3
ObjectDBX Classes
 90
1153
 91
0
280
0
281
0
  0
CLASS
  1
SCALE
  2
AcDbScale
  3
ObjectDBX Classes
 90
1153
 91
0
280
0
281
0
  0
CLASS
  1
TABLESTYLE
  2
AcDbTableStyle
  3
ObjectDBX Classes
 90
4095
 91
0
280
0
281
0
  0
CLASS
  1
MLEADERSTYLE
  2
AcDbMLeaderStyle
  3
ACDB_MLEADERSTYLE_CLASS
 90
4095
 91
0
280
0
281
0
  0
CLASS
  1
DICTIONARYVAR
  2
AcDbDictionaryVar
  3
ObjectDBX Classes
 90
0
 91
0
280
0
281
0
  0
CLASS
  1
CELLSTYLEMAP
  2
AcDbCellStyleMap
  3
ObjectDBX Classes
 90
1152
 91
0
280
0
281
0
  0
CLASS
  1
MENTALRAYRENDERSETTINGS
  2
AcDbMentalRayRenderSettings
  3
SCENEOE
 90
1024
 91
0
280
0
281
0
  0
CLASS
  1
ACDBDETAILVIEWSTYLE
  2
AcDbDetailViewStyle
  3
ObjectDBX Classes
 90
1025
 91
0
280
0
281
0
  0
CLASS
  1
ACDBSECTIONVIEWSTYLE
  2
AcDbSectionViewStyle
  3
ObjectDBX Classes
 90
1025
 91
0
280
0
281
0
  0
CLASS
  1
RASTERVARIABLES
  2
AcDbRasterVariables
  3
ISM
 90
0
 91
0
280
0
281
0
  0
CLASS
  1
LAYOUT
  2
AcDbLayout
  3
ObjectDBX Classes
 90
0
 91
0
280
0
281
0
  0
CLASS
  1
ACDBPLACEHOLDER
  2
AcDbPlaceHolder
  3
ObjectDBX Classes
 90
0
 91
0
280
0
281
0
  0
ENDSEC
  0
SECTION
  2
TABLES
  0
TABLE
  2
VPORT
  5
8
330
0
100
AcDbSymbolTable
 70
1
  0
VPORT
  5
23
330
8
100
AcDbSymbolTableRecord
100
AcDbViewportTableRecord
  2
*Active
 70
0
 10
0.0
 20
0.0
 11
1.0
 21
1.0
 12
0.0
 22
0.0
 13
0.0
 23
0.0
 14
0.5
 24
0.5
 15
0.5
 25
0.5
 16
0.0
 26
0.0
 36
1.0
 17
0.0
 27
0.0
 37
0.0
 40
1000.0
 41
1.34
 42
50.0
 43
0.0
 44
0.0
 50
0.0
 51
0.0
 71
0
 72
1000
 73
1
 74
3
 75
0
 76
0
 77
0
 78
0
281
0
 65
0
146
0.0
  0
ENDTAB
  0
TABLE
  2
LTYPE
  5
2
330
0
100
AcDbSymbolTable
 70
21
  0
LTYPE
  5
24
330
2
100
AcDbSymbolTableRecord
100
AcDbLinetypeTableRecord
  2
ByBlock
 70
0
  3

 72
65
 73
0
 40
0.0
  0
LTYPE
  5
25
330
2
100
AcDbSymbolTableRecord
100
AcDbLinetypeTableRecord
  2
ByLayer
 70
0
  3

 72
65
 73
0
 40
0.0
  0
LTYPE
  5
26
330
2
100
AcDbSymbolTableRecord
100
AcDbLinetypeTableRecord
  2
Continuous
 70
0
  3

 72
65
 73
0
 40
0.0
  0
LTYPE
  5
2F
330
2
100
AcDbSymbolTableRecord
100
AcDbLinetypeTableRecord
  2
CENTER
 70
0
  3
Center ____ _ ____ _ ____ _ ____ _ ____ _ ____
 72
65
 73
4
 40
5.08
 49
3.175
 74
0
 49
-0.635
 74
0
 49
0.635
 74
0
 49
-0.635
 74
0
  0
LTYPE
  5
30
330
2
100
AcDbSymbolTableRecord
100
AcDbLinetypeTableRecord
  2
CENTERX2
 70
0
  3
Center (2x) ________  __  ________  __  ________
 72
65
 73
4
 40
8.89
 49
6.35
 74
0
 49
-0.635
 74
0
 49
1.27
 74
0
 49
-0.635
 74
0
  0
LTYPE
  5
31
330
2
100
AcDbSymbolTableRecord
100
AcDbLinetypeTableRecord
  2
CENTER2
 70
0
  3
Center (.5x) ____ _ ____ _ ____ _ ____ _ ____
 72
65
 73
4
 40
2.54
 49
1.587
 74
0
 49
-0.318
 74
0
 49
0.318
 74
0
 49
-0.318
 74
0
  0
LTYPE
  5
32
330
2
100
AcDbSymbolTableRecord
100
AcDbLinetypeTableRecord
  2
DASHED
 70
0
  3
Dashed __ __ __ __ __ __ __ __ __ __ __ __ __ _
 72
65
 73
2
 40
1.524
 49
1.27
 74
0
 49
-0.254
 74
0
  0
LTYPE
  5
33
330
2
100
AcDbSymbolTableRecord
100
AcDbLinetypeTableRecord
  2
DASHEDX2
 70
0
  3
Dashed (2x) ____  ____  ____  ____  ____  ____
 72
65
 73
2
 40
3.048
 49
2.54
 74
0
 49
-0.508
 74
0
  0
LTYPE
  5
34
330
2
100
AcDbSymbolTableRecord
100
AcDbLinetypeTableRecord
  2
DASHED2
 70
0
  3
Dashed (.5x) _ _ _ _ _ _ _ _ _ _ _ _ _ _
 72
65
 73
2
 40
0.762
 49
0.635
 74
0
 49
-0.127
 74
0
  0
LTYPE
  5
35
330
2
100
AcDbSymbolTableRecord
100
AcDbLinetypeTableRecord
  2
PHANTOM
 70
0
  3
Phantom ______  __  __  ______  __  __  ______
 72
65
 73
6
 40
6.35
 49
3.175
 74
0
 49
-0.635
 74
0
 49
0.635
 74
0
 49
-0.635
 74
0
 49
0.635
 74
0
 49
-0.635
 74
0
  0
LTYPE
  5
36
330
2
100
AcDbSymbolTableRecord
100
AcDbLinetypeTableRecord
  2
PHANTOMX2
 70
0
  3
Phantom (2x)____________    ____    ____    ____________
 72
65
 73
6
 40
10.795
 49
6.35
 74
0
 49
-0.635
 74
0
 49
1.27
 74
0
 49
-0.635
 74
0
 49
1.27
 74
0
 49
-0.635
 74
0
  0
LTYPE
  5
37
330
2
100
AcDbSymbolTableRecord
100
AcDbLinetypeTableRecord
  2
PHANTOM2
 70
0
  3
Phantom (.5x) ___ _ _ ___ _ _ ___ _ _ ___ _ _ ___
 72
65
 73
6
 40
3.175
 49
1.587
 74
0
 49
-0.318
 74
0
 49
0.318
 74
0
 49
-0.318
 74
0
 49
0.318
 74
0
 49
-0.318
 74
0
  0
LTYPE
  5
38
330
2
100
AcDbSymbolTableRecord
100
AcDbLinetypeTableRecord
  2
DASHDOT
 70
0
  3
Dash dot __ . __ . __ . __ . __ . __ . __ . __
 72
65
 73
4
 40
3.556
 49
2.54
 74
0
 49
-0.508
 74
0
 49
0.0
 74
0
 49
-0.508
 74
0
  0
LTYPE
  5
39
330
2
100
AcDbSymbolTableRecord
100
AcDbLinetypeTableRecord
  2
DASHDOTX2
 70
0
  3
Dash dot (2x) ____  .  ____  .  ____  .  ____
 72
65
 73
4
 40
6.096
 49
5.08
 74
0
 49
-0.508
 74
0
 49
0.0
 74
0
 49
-0.508
 74
0
  0
LTYPE
  5
3A
330
2
100
AcDbSymbolTableRecord
100
AcDbLinetypeTableRecord
  2
DASHDOT2
 70
0
  3
Dash dot (.5x) _ . _ . _ . _ . _ . _ . _ . _
 72
65
 73
4
 40
1.778
 49
1.27
 74
0
 49
-0.254
 74
0
 49
0.0
 74
0
 49
-0.254
 74
0
  0
LTYPE
  5
3B
330
2
100
AcDbSymbolTableRecord
100
AcDbLinetypeTableRecord
  2
DOT
 70
0
  3
Dot .  .  .  .  .  .  .  .  .  .  .  .  .  .  .  .
 72
65
 73
2
 40
0.508
 49
0.0
 74
0
 49
-0.508
 74
0
  0
LTYPE
  5
3C
330
2
100
AcDbSymbolTableRecord
100
AcDbLinetypeTableRecord
  2
DOTX2
 70
0
  3
Dot (2x) .    .    .    .    .    .    .    . 
 72
65
 73
2
 40
1.016
 49
0.0
 74
0
 49
-1.016
 74
0
  0
LTYPE
  5
3D
330
2
100
AcDbSymbolTableRecord
100
AcDbLinetypeTableRecord
  2
DOT2
 70
0
  3
Dot (.5) . . . . . . . . . . . . . . . . . . . 
 72
65
 73
2
 40
0.254
 49
0.0
 74
0
 49
-0.254
 74
0
  0
LTYPE
  5
3E
330
2
100
AcDbSymbolTableRecord
100
AcDbLinetypeTableRecord
  2
DIVIDE
 70
0
  3
Divide __ . . __ . . __ . . __ . . __ . . __
 72
65
 73
6
 40
4.064
 49
2.54
 74
0
 49
-0.508
 74
0
 49
0.0
 74
0
 49
-0.508
 74
0
 49
0.0
 74
0
 49
-0.508
 74
0
  0
LTYPE
  5
3F
330
2
100
AcDbSymbolTableRecord
100
AcDbLinetypeTableRecord
  2
DIVIDEX2
 70
0
  3
Divide (2x) ____  . .  ____  . .  ____  . .  ____
 72
65
 73
6
 40
6.604
 49
5.08
 74
0
 49
-0.508
 74
0
 49
0.0
 74
0
 49
-0.508
 74
0
 49
0.0
 74
0
 49
-0.508
 74
0
  0
LTYPE
  5
40
330
2
100
AcDbSymbolTableRecord
100
AcDbLinetypeTableRecord
  2
DIVIDE2
 70
0
  3
Divide(.5x) _ . _ . _ . _ . _ . _ . _ . _
 72
65
 73
6
 40
2.032
 49
1.27
 74
0
 49
-0.254
 74
0
 49
0.0
 74
0
 49
-0.254
 74
0
 49
0.0
 74
0
 49
-0.254
 74
0
  0
ENDTAB
  0
TABLE
  2
LAYER
  5
1
330
0
100
AcDbSymbolTable
 70
3
  0
LAYER
  5
27
330
1
100
AcDbSymbolTableRecord
100
AcDbLayerTableRecord
  2
0
 70
0
 62
7
  6
Continuous
370
-3
390
13
347
21
  0
LAYER
  5
28
330
1
100
AcDbSymbolTableRecord
100
AcDbLayerTableRecord
  2
Defpoints
 70
0
 62
7
  6
Continuous
290
0
370
-3
390
13
347
21
  0
LAYER
  5
8A
330
1
100
AcDbSymbolTableRecord
100
AcDbLayerTableRecord
  2
Layer
 70
0
 62
1
  6
Continuous
370
50
390
13
347
21
  0
ENDTAB
  0
TABLE
  2
STYLE
  5
5
330
0
100
AcDbSymbolTable
 70
26
  0
STYLE
  5
29
330
5
100
AcDbSymbolTableRecord
100
AcDbTextStyleTableRecord
  2
Standard
 70
0
 40
0.0
 41
1.0
 50
0.0
 71
0
 42
2.5
  3
txt
  4

  0
STYLE
  5
41
330
5
100
AcDbSymbolTableRecord
100
AcDbTextStyleTableRecord
  2
OpenSans-Light
 70
0
 40
0.0
 41
1.0
 50
0.0
 71
0
 42
2.5
  3
OpenSans-Light.ttf
  4

  0
STYLE
  5
42
330
5
100
AcDbSymbolTableRecord
100
AcDbTextStyleTableRecord
  2
OpenSans-Light-Italic
 70
0
 40
0.0
 41
1.0
 50
0.0
 71
0
 42
2.5
  3
OpenSans-LightItalic.ttf
  4

  0
STYLE
  5
43
330
5
100
AcDbSymbolTableRecord
100
AcDbTextStyleTableRecord
  2
OpenSans
 70
0
 40
0.0
 41
1.0
 50
0.0
 71
0
 42
2.5
  3
OpenSans-Regular.ttf
  4

  0
STYLE
  5
44
330
5
100
AcDbSymbolTableRecord
100
AcDbTextStyleTableRecord
  2
OpenSans-Italic
 70
0
 40
0.0
 41
1.0
 50
0.0
 71
0
 42
2.5
  3
OpenSans-Italic.ttf
  4

  0
STYLE
  5
45
330
5
100
AcDbSymbolTableRecord
100
AcDbTextStyleTableRecord
  2
OpenSans-SemiBold
 70
0
 40
0.0
 41
1.0
 50
0.0
 71
0
 42
2.5
  3
OpenSans-SemiBold.ttf
  4

  0
STYLE
  5
46
330
5
100
AcDbSymbolTableRecord
100
AcDbTextStyleTableRecord
  2
OpenSans-SemiBoldItalic
 70
0
 40
0.0
 41
1.0
 50
0.0
 71
0
 42
2.5
  3
OpenSans-SemiBoldItalic.ttf
  4

  0
STYLE
  5
47
330
5
100
AcDbSymbolTableRecord
100
AcDbTextStyleTableRecord
  2
OpenSans-Bold
 70
0
 40
0.0
 41
1.0
 50
0.0
 71
0
 42
2.5
  3
OpenSans-Bold.ttf
  4

  0
STYLE
  5
48
330
5
100
AcDbSymbolTableRecord
100
AcDbTextStyleTableRecord
  2
OpenSans-BoldItalic
 70
0
 40
0.0
 41
1.0
 50
0.0
 71
0
 42
2.5
  3
OpenSans-BoldItalic.ttf
  4

  0
STYLE
  5
49
330
5
100
AcDbSymbolTableRecord
100
AcDbTextStyleTableRecord
  2
OpenSans-ExtraBold
 70
0
 40
0.0
 41
1.0
 50
0.0
 71
0
 42
2.5
  3
OpenSans-ExtraBold.ttf
  4

  0
STYLE
  5
4A
330
5
100
AcDbSymbolTableRecord
100
AcDbTextStyleTableRecord
  2
OpenSans-ExtraBoldItalic
 70
0
 40
0.0
 41
1.0
 50
0.0
 71
0
 42
2.5
  3
OpenSans-ExtraBoldItalic.ttf
  4

  0
STYLE
  5
4B
330
5
100
AcDbSymbolTableRecord
100
AcDbTextStyleTableRecord
  2
OpenSansCondensed-Bold
 70
0
 40
0.0
 41
1.0
 50
0.0
 71
0
 42
2.5
  3
OpenSansCondensed-Bold.ttf
  4

  0
STYLE
  5
4C
330
5
100
AcDbSymbolTableRecord
100
AcDbTextStyleTableRecord
  2
OpenSansCondensed-Light
 70
0
 40
0.0
 41
1.0
 50
0.0
 71
0
 42
2.5
  3
OpenSansCondensed-Light.ttf
  4

  0
STYLE
  5
4D
330
5
100
AcDbSymbolTableRecord
100
AcDbTextStyleTableRecord
  2
OpenSansCondensed-Italic
 70
0
 40
0.0
 41
1.0
 50
0.0
 71
0
 42
2.5
  3
OpenSansCondensed-LightItalic.ttf
  4

  0
STYLE
  5
4E
330
5
100
AcDbSymbolTableRecord
100
AcDbTextStyleTableRecord
  2
LiberationSans
 70
0
 40
0.0
 41
1.0
 50
0.0
 71
0
 42
2.5
  3
LiberationSans-Regular.ttf
  4

  0
STYLE
  5
4F
330
5
100
AcDbSymbolTableRecord
100
AcDbTextStyleTableRecord
  2
LiberationSans-Bold
 70
0
 40
0.0
 41
1.0
 50
0.0
 71
0
 42
2.5
  3
LiberationSans-Bold.ttf
  4

  0
STYLE
  5
50
330
5
100
AcDbSymbolTableRecord
100
AcDbTextStyleTableRecord
  2
LiberationSans-BoldItalic
 70
0
 40
0.0
 41
1.0
 50
0.0
 71
0
 42
2.5
  3
LiberationSans-BoldItalic.ttf
  4

  0
STYLE
  5
51
330
5
100
AcDbSymbolTableRecord
100
AcDbTextStyleTableRecord
  2
LiberationSans-Italic
 70
0
 40
0.0
 41
1.0
 50
0.0
 71
0
 42
2.5
  3
LiberationSans-Italic.ttf
  4

  0
STYLE
  5
52
330
5
100
AcDbSymbolTableRecord
100
AcDbTextStyleTableRecord
  2
LiberationSerif
 70
0
 40
0.0
 41
1.0
 50
0.0
 71
0
 42
2.5
  3
LiberationSerif-Regular.ttf
  4

  0
STYLE
  5
53
330
5
100
AcDbSymbolTableRecord
100
AcDbTextStyleTableRecord
  2
LiberationSerif-Bold
 70
0
 40
0.0
 41
1.0
 50
0.0
 71
0
 42
2.5
  3
LiberationSerif-Bold.ttf
  4

  0
STYLE
  5
54
330
5
100
AcDbSymbolTableRecord
100
AcDbTextStyleTableRecord
  2
LiberationSerif-BoldItalic
 70
0
 40
0.0
 41
1.0
 50
0.0
 71
0
 42
2.5
  3
LiberationSerif-BoldItalic.ttf
  4

  0
STYLE
  5
55
330
5
100
AcDbSymbolTableRecord
100
AcDbTextStyleTableRecord
  2
LiberationSerif-Italic
 70
0
 40
0.0
 41
1.0
 50
0.0
 71
0
 42
2.5
  3
LiberationSerif-Italic.ttf
  4

  0
STYLE
  5
56
330
5
100
AcDbSymbolTableRecord
100
AcDbTextStyleTableRecord
  2
LiberationMono
 70
0
 40
0.0
 41
1.0
 50
0.0
 71
0
 42
2.5
  3
LiberationMono-Regular.ttf
  4

  0
STYLE
  5
57
330
5
100
AcDbSymbolTableRecord
100
AcDbTextStyleTableRecord
  2
LiberationMono-Bold
 70
0
 40
0.0
 41
1.0
 50
0.0
 71
0
 42
2.5
  3
LiberationMono-Bold.ttf
  4

  0
STYLE
  5
58
330
5
100
AcDbSymbolTableRecord
100
AcDbTextStyleTableRecord
  2
LiberationMono-BoldItalic
 70
0
 40
0.0
 41
1.0
 50
0.0
 71
0
 42
2.5
  3
LiberationMono-BoldItalic.ttf
  4

  0
STYLE
  5
59
330
5
100
AcDbSymbolTableRecord
100
AcDbTextStyleTableRecord
  2
LiberationMono-Italic
 70
0
 40
0.0
 41
1.0
 50
0.0
 71
0
 42
2.5
  3
LiberationMono-Italic.ttf
  4

  0
ENDTAB
  0
TABLE
  2
VIEW
  5
7
330
0
100
AcDbSymbolTable
 70
0
  0
ENDTAB
  0
TABLE
  2
UCS
  5
6
330
0
100
AcDbSymbolTable
 70
0
  0
ENDTAB
  0
TABLE
  2
APPID
  5
3
330
0
100
AcDbSymbolTable
 70
3
  0
APPID
  5
2A
330
3
100
AcDbSymbolTableRecord
100
AcDbRegAppTableRecord
  2
ACAD
 70
0
  0
APPID
  5
B8
330
3
100
AcDbSymbolTableRecord
100
AcDbRegAppTableRecord
  2
HATCHBACKGROUNDCOLOR
 70
0
  0
APPID
  5
B9
330
3
100
AcDbSymbolTableRecord
100
AcDbRegAppTableRecord
  2
EZDXF
 70
0
  0
ENDTAB
  0
TABLE
  2
DIMSTYLE
  5
4
330
0
100
AcDbSymbolTable
 70
12
100
AcDbDimStyleTable
  0
DIMSTYLE
105
2B
330
4
100
AcDbSymbolTableRecord
100
AcDbDimStyleTableRecord
  2
Standard
 70
0
 40
1.0
 41
2.5
 42
0.625
 43
3.75
 44
1.25
 45
0.0
 46
0.0
 47
0.0
 48
0.0
 49
2.5
140
2.5
141
2.5
142
0.0
143
0.03937007874
144
1.0
145
0.0
146
1.0
147
0.625
148
0.0
 69
0
 70
0
 71
0
 72
0
 73
0
 74
0
 75
0
 76
0
 77
1
 78
8
 79
3
170
0
171
3
172
1
173
0
174
0
175
0
176
0
177
0
178
0
179
2
271
2
272
2
273
2
274
3
275
0
276
0
277
2
278
44
279
0
280
0
281
0
282
0
283
0
284
8
285
0
286
0
288
0
289
3
290
0
371
-2
372
-2
  0
DIMSTYLE
105
73
330
4
100
AcDbSymbolTableRecord
100
AcDbDimStyleTableRecord
  2
EZDXF
 70
0
 40
1.0
 41
0.175
 42
0.125
 43
3.75
 44
0.375
 45
0.0
 46
0.0
 47
0.0
 48
0.0
 49
2.5
140
0.25
141
2.5
142
0.0
143
0.03937007874
144
100.0
145
0.0
146
0.5
147
0.1
148
0.0
 69
0
 70
0
 71
0
 72
0
 73
0
 74
0
 75
0
 76
0
 77
1
 78
12
 79
3
170
0
171
3
172
1
173
0
174
0
175
0
176
0
177
0
178
0
179
2
271
2
272
2
273
2
274
3
275
0
276
0
277
2
278
46
279
2
280
0
281
0
282
0
283
0
284
8
285
0
286
0
288
1
289
3
290
0
340
4C
342
74
371
-2
372
-2
  0
DIMSTYLE
105
7C
330
4
100
AcDbSymbolTableRecord
100
AcDbDimStyleTableRecord
  2
EZ_M_100_H25_CM
 70
0
 40
1.0
 41
0.25
 42
0.125
 43
3.75
 44
0.375
 45
0.0
 46
0.0
 47
0.0
 48
0.0
 49
2.5
140
0.25
141
2.5
142
0.125
143
0.03937007874
144
100.0
145
0.0
146
0.5
147
0.1
148
0.0
 69
0
 70
0
 71
0
 72
0
 73
0
 74
0
 75
0
 76
0
 77
1
 78
12
 79
3
170
0
171
3
172
1
173
0
174
0
175
0
176
0
177
0
178
0
179
2
271
2
272
2
273
2
274
3
275
0
276
0
277
2
278
46
279
2
280
0
281
0
282
0
283
0
284
8
285
0
286
0
288
1
289
3
290
0
340
4C
371
-2
372
-2
  0
DIMSTYLE
105
7D
330
4
100
AcDbSymbolTableRecord
100
AcDbDimStyleTableRecord
  2
EZ_M_50_H25_CM
 70
0
 40
1.0
 41
0.125
 42
0.0625
 43
3.75
 44
0.1875
 45
0.0
 46
0.0
 47
0.0
 48
0.0
 49
2.5
140
0.125
141
2.5
142
0.0625
143
0.03937007874
144
100.0
145
0.0
146
0.5
147
0.05
148
0.0
 69
0
 70
0
 71
0
 72
0
 73
0
 74
0
 75
0
 76
0
 77
1
 78
12
 79
3
170
0
171
3
172
1
173
0
174
0
175
0
176
0
177
0
178
0
179
2
271
2
272
2
273
2
274
3
275
0
276
0
277
2
278
46
279
2
280
0
281
0
282
0
283
0
284
8
285
0
286
0
288
1
289
3
290
0
340
4C
371
-2
372
-2
  0
DIMSTYLE
105
7E
330
4
100
AcDbSymbolTableRecord
100
AcDbDimStyleTableRecord
  2
EZ_M_25_H25_CM
 70
0
 40
1.0
 41
0.0625
 42
0.03125
 43
3.75
 44
0.09375
 45
0.0
 46
0.0
 47
0.0
 48
0.0
 49
2.5
140
0.0625
141
2.5
142
0.03125
143
0.03937007874
144
100.0
145
0.0
146
0.5
147
0.025
148
0.0
 69
0
 70
0
 71
0
 72
0
 73
0
 74
0
 75
0
 76
0
 77
1
 78
12
 79
3
170
0
171
3
172
1
173
0
174
0
175
0
176
0
177
0
178
0
179
2
271
2
272
2
273
2
274
3
275
0
276
0
277
2
278
46
279
2
280
0
281
0
282
0
283
0
284
8
285
0
286
0
288
1
289
3
290
0
340
4C
371
-2
372
-2
  0
DIMSTYLE
105
7F
330
4
100
AcDbSymbolTableRecord
100
AcDbDimStyleTableRecord
  2
EZ_M_20_H25_CM
 70
0
 40
1.0
 41
0.05
 42
0.025
 43
3.75
 44
0.07500000000000001
 45
0.0
 46
0.0
 47
0.0
 48
0.0
 49
2.5
140
0.05
141
2.5
142
0.025
143
0.03937007874
144
100.0
145
0.0
146
0.5
147
0.020000000000000004
148
0.0
 69
0
 70
0
 71
0
 72
0
 73
0
 74
0
 75
0
 76
0
 77
1
 78
12
 79
3
170
0
171
3
172
1
173
0
174
0
175
0
176
0
177
0
178
0
179
2
271
2
272
2
273
2
274
3
275
0
276
0
277
2
278
46
279
2
280
0
281
0
282
0
283
0
284
8
285
0
286
0
288
1
289
3
290
0
340
4C
371
-2
372
-2
  0
DIMSTYLE
105
80
330
4
100
AcDbSymbolTableRecord
100
AcDbDimStyleTableRecord
  2
EZ_M_10_H25_CM
 70
0
 40
1.0
 41
0.025
 42
0.0125
 43
3.75
 44
0.037500000000000006
 45
0.0
 46
0.0
 47
0.0
 48
0.0
 49
2.5
140
0.025
141
2.5
142
0.0125
143
0.03937007874
144
100.0
145
0.0
146
0.5
147
0.010000000000000002
148
0.0
 69
0
 70
0
 71
0
 72
0
 73
0
 74
0
 75
0
 76
0
 77
1
 78
12
 79
3
170
0
171
3
172
1
173
0
174
0
175
0
176
0
177
0
178
0
179
2
271
2
272
2
273
2
274
3
275
0
276
0
277
2
278
46
279
2
280
0
281
0
282
0
283
0
284
8
285
0
286
0
288
1
289
3
290
0
340
4C
371
-2
372
-2
  0
DIMSTYLE
105
81
330
4
100
AcDbSymbolTableRecord
100
AcDbDimStyleTableRecord
  2
EZ_M_5_H25_CM
 70
0
 40
1.0
 41
0.0125
 42
0.00625
 43
3.75
 44
0.018750000000000003
 45
0.0
 46
0.0
 47
0.0
 48
0.0
 49
2.5
140
0.0125
141
2.5
142
0.00625
143
0.03937007874
144
100.0
145
0.0
146
0.5
147
0.005000000000000001
148
0.0
 69
0
 70
0
 71
0
 72
0
 73
0
 74
0
 75
0
 76
0
 77
1
 78
12
 79
3
170
0
171
3
172
1
173
0
174
0
175
0
176
0
177
0
178
0
179
2
271
2
272
2
273
2
274
3
275
0
276
0
277
2
278
46
279
2
280
0
281
0
282
0
283
0
284
8
285
0
286
0
288
1
289
3
290
0
340
4C
371
-2
372
-2
  0
DIMSTYLE
105
82
330
4
100
AcDbSymbolTableRecord
100
AcDbDimStyleTableRecord
  2
EZ_M_1_H25_CM
 70
0
 40
1.0
 41
0.0025
 42
0.00125
 43
3.75
 44
0.00375
 45
0.0
 46
0.0
 47
0.0
 48
0.0
 49
2.5
140
0.0025
141
2.5
142
0.00125
143
0.03937007874
144
100.0
145
0.0
146
0.5
147
0.001
148
0.0
 69
0
 70
0
 71
0
 72
0
 73
0
 74
0
 75
0
 76
0
 77
1
 78
12
 79
3
170
0
171
3
172
1
173
0
174
0
175
0
176
0
177
0
178
0
179
2
271
2
272
2
273
2
274
3
275
0
276
0
277
2
278
46
279
2
280
0
281
0
282
0
283
0
284
8
285
0
286
0
288
1
289
3
290
0
340
4C
371
-2
372
-2
  0
DIMSTYLE
105
83
330
4
100
AcDbSymbolTableRecord
100
AcDbDimStyleTableRecord
  2
EZ_RADIUS
 70
0
 40
1.0
 41
0.25
 42
0.125
 43
3.75
 44
0.375
 45
0.0
 46
0.0
 47
0.0
 48
0.0
 49
2.5
140
0.25
141
0.0
142
0.0
143
0.03937007874
144
100.0
145
0.0
146
0.5
147
0.1
148
0.0
 69
0
 70
0
 71
0
 72
0
 73
0
 74
0
 75
0
 76
0
 77
1
 78
12
 79
3
170
0
171
3
172
0
173
0
174
0
175
0
176
0
177
0
178
0
179
2
271
2
272
2
273
2
274
3
275
0
276
0
277
2
278
46
279
1
280
0
281
0
282
0
283
0
284
8
285
0
286
0
288
1
289
3
290
0
340
4C
342
84
371
-2
372
-2
  0
DIMSTYLE
105
88
330
4
100
AcDbSymbolTableRecord
100
AcDbDimStyleTableRecord
  2
EZ_RADIUS_INSIDE
 70
0
 40
1.0
 41
0.25
 42
0.125
 43
3.75
 44
0.375
 45
0.0
 46
0.0
 47
0.0
 48
0.0
 49
2.5
140
0.25
141
0.0
142
0.0
143
0.03937007874
144
100.0
145
0.0
146
0.5
147
0.1
148
0.0
 69
0
 70
0
 71
0
 72
0
 73
0
 74
0
 75
0
 76
0
 77
0
 78
12
 79
3
170
0
171
3
172
0
173
0
174
1
175
0
176
0
177
0
178
0
179
2
271
2
272
2
273
2
274
3
275
0
276
0
277
2
278
46
279
0
280
0
281
0
282
0
283
0
284
8
285
0
286
0
288
1
289
0
290
0
340
4C
342
84
371
-2
372
-2
  0
DIMSTYLE
105
89
330
4
100
AcDbSymbolTableRecord
100
AcDbDimStyleTableRecord
  2
EZ_CURVED
 70
0
 40
1.0
 41
0.25
 42
0.125
 43
3.75
 44
0.375
 45
0.0
 46
0.0
 47
0.0
 48
0.0
 49
2.5
140
0.25
141
2.5
142
0.0
143
0.03937007874
144
100.0
145
0.0
146
0.5
147
0.1
148
0.0
 69
0
 70
0
 71
0
 72
0
 73
0
 74
0
 75
0
 76
0
 77
1
 78
12
 79
2
 90
2
170
0
171
3
172
1
173
0
174
0
175
0
176
0
177
0
178
0
179
2
271
2
272
2
273
2
274
3
275
0
276
0
277
2
278
46
279
2
280
0
281
0
282
0
283
0
284
8
285
0
286
0
288
1
289
3
290
0
340
4C
371
-2
372
-2
  0
ENDTAB
  0
TABLE
  2
BLOCK_RECORD
  5
9
330
0
100
AcDbSymbolTable
 70
5
  0
BLOCK_RECORD
  5
17
330
9
100
AcDbSymbolTableRecord
100
AcDbBlockTableRecord
  2
*Model_Space
340
1A
 70
0
280
1
281
0
  0
BLOCK_RECORD
  5
1B
330
9
100
AcDbSymbolTableRecord
100
AcDbBlockTableRecord
  2
*Paper_Space
340
1E
 70
0
280
1
281
0
  0
BLOCK_RECORD
  5
74
330
9
100
AcDbSymbolTableRecord
100
AcDbBlockTableRecord
  2
_ARCHTICK
340
0
 70
0
280
1
281
0
  0
BLOCK_RECORD
  5
78
330
9
100
AcDbSymbolTableRecord
100
AcDbBlockTableRecord
  2
_CLOSEDFILLED
340
0
 70
0
280
1
281
0
  0
BLOCK_RECORD
  5
84
330
9
100
AcDbSymbolTableRecord
100
AcDbBlockTableRecord
  2
_CLOSEDBLANK
340
0
 70
0
280
1
281
0
  0
ENDTAB
  0
ENDSEC
  0
SECTION
  2
BLOCKS
  0
BLOCK
  5
18
330
17
100
AcDbEntity
  8
0
100
AcDbBlockBegin
  2
*Model_Space
 70
0
 10
0.0
 20
0.0
 30
0.0
  3
*Model_Space
  1

  0
ENDBLK
  5
19
330
17
100
AcDbEntity
  8
0
100
AcDbBlockEnd
  0
BLOCK
  5
1C
330
1B
100
AcDbEntity
  8
0
100
AcDbBlockBegin
  2
*Paper_Space
 70
0
 10
0.0
 20
0.0
 30
0.0
  3
*Paper_Space
  1

  0
ENDBLK
  5
1D
330
1B
100
AcDbEntity
  8
0
100
AcDbBlockEnd
  0
BLOCK
  5
75
330
74
100
AcDbEntity
  8
0
100
AcDbBlockBegin
  2
_ARCHTICK
 70
0
 10
0.0
 20
0.0
 30
0.0
  3
_ARCHTICK
  1

  0
LWPOLYLINE
  5
77
330
74
100
AcDbEntity
  8
0
  6
BYBLOCK
 62
0
100
AcDbPolyline
 90
2
 70
0
 43
0.15
 10
-0.5
 20
-0.5000000000000001
 10
0.5000000000000001
 20
0.5
  0
ENDBLK
  5
76
330
74
100
AcDbEntity
  8
0
100
AcDbBlockEnd
  0
BLOCK
  5
79
330
78
100
AcDbEntity
  8
0
100
AcDbBlockBegin
  2
_CLOSEDFILLED
 70
0
 10
0.0
 20
0.0
 30
0.0
  3
_CLOSEDFILLED
  1

  0
SOLID
  5
7B
330
78
100
AcDbEntity
  8
0
  6
BYBLOCK
 62
0
100
AcDbTrace
 10
-1.0
 20
0.1643989837240255
 30
0.0
 11
0.0
 21
0.0
 31
0.0
 12
-1.0
 22
-0.1643989837240255
 32
0.0
 13
-1.0
 23
-0.1643989837240255
 33
0.0
  0
ENDBLK
  5
7A
330
78
100
AcDbEntity
  8
0
100
AcDbBlockEnd
  0
BLOCK
  5
85
330
84
100
AcDbEntity
  8
0
100
AcDbBlockBegin
  2
_CLOSEDBLANK
 70
0
 10
0.0
 20
0.0
 30
0.0
  3
_CLOSEDBLANK
  1

  0
LWPOLYLINE
  5
87
330
84
100
AcDbEntity
  8
0
  6
BYBLOCK
 62
0
100
AcDbPolyline
 90
3
 70
1
 10
-1.0
 20
0.1643989837240255
 10
0.0
 20
0.0
 10
-1.0
 20
-0.1643989837240255
  0
ENDBLK
  5
86
330
84
100
AcDbEntity
  8
0
100
AcDbBlockEnd
  0
ENDSEC
  0
SECTION
  2
ENTITIES
  0
LWPOLYLINE
  5
8B
330
17
100
AcDbEntity
  8
Layer
100
AcDbPolyline
 90
303
 70
1
 10
596.8404565116772
 20
46.08373561508346
 10
594.9600731305372
 20
46.75850967382581
 10
591.9345000635974
 20
47.81544859776146
 10
588.6654703650906
 20
48.977275178762476
 10
585.1182563759103
 20
50.22418477122757
 10
581.2792937814212
 20
51.55200500372969
 10
577.1735605923803
 20
52.97349799670498
 10
572.840919005678
 20
54.48421551074643
 10
568.3131481333171
 20
56.05890708714413
 10
563.6413445849826
 20
57.67324970869407
 10
558.8864170929555
 20
59.29458396665752
 10
554.0597801786655
 20
60.91126923500917
 10
549.1645084869331
 20
62.58236814384081
 10
544.212174026944
 20
64.28080165562189
 10
539.1899842353929
 20
65.98129411001986
 10
534.1052010112585
 20
67.69441244342724
 10
528.9546878978215
 20
69.40449176549606
 10
523.7360093301454
 20
71.13539164477527
 10
518.4654024521665
 20
72.89268750863317
 10
513.1561538953131
 20
74.66498488449733
 10
507.8210804328389
 20
76.44368252805059
 10
502.4719922565301
 20
78.22001039840254
 10
497.1164796542095
 20
79.98314376863459
 10
491.7557516563299
 20
81.7303083097845
 10
486.39598266416215
 20
83.47743825101742
 10
481.04187527045565
 20
85.22984762684843
 10
475.69404787855456
 20
86.97519576232138
 10
470.3565728441947
 20
88.70377417350281
 10
465.0278029377387
 20
90.40583459748932
 10
459.7002726412433
 20
92.0789544803621
 10
454.37272887740977
 20
93.73179525735407
 10
450.1825682473632
 20
95.03009986281721
 10
449.8718054336774
 20
94.02714100342659
 10
448.74391696014953
 20
94.37661330533392
 10
443.4384552750762
 20
96.01565469028753
 10
438.14043697037954
 20
97.6367018389042
 10
432.84682030466604
 20
99.23553127135447
 10
427.5528636316305
 20
100.80677489711243
 10
422.2531854346018
 20
102.3503002104477
 10
416.94993664944707
 20
103.87610673257896
 10
411.65777736731667
 20
105.3923673175597
 10
406.38978022577203
 20
106.89165850480563
 10
401.1442601606943
 20
108.35959913142155
 10
395.91670309206944
 20
109.7912315270915
 10
390.6976544998873
 20
111.18314847462571
 10
385.486418652467
 20
112.544671137939
 10
380.28109532207577
 20
113.87992612844369
 10
375.0811750214716
 20
115.1902054214499
 10
369.8874231976655
 20
116.47175527076408
 10
364.6971663449516
 20
117.71663825068788
 10
359.5066425591597
 20
118.92291619814472
 10
354.3108485263509
 20
120.09418193806198
 10
349.1097269871889
 20
121.23867308859778
 10
343.90561050723386
 20
122.36082649853417
 10
338.69807777587977
 20
123.45668273199098
 10
333.4856898644621
 20
124.52073379209742
 10
328.26847426070344
 20
125.55078732568897
 10
323.04663348438464
 20
126.54814681758327
 10
317.8201385554922
 20
127.51748760990262
 10
312.58684404072085
 20
128.46085158698264
 10
307.34666734040763
 20
129.37876445272784
 10
302.1007313852852
 20
130.26886216366364
 10
296.85073375659346
 20
131.12716905425816
 10
291.59965139495114
 20
131.95338072672823
 10
286.35044526303824
 20
132.7506455828335
 10
281.10435927305315
 20
133.52041173225456
 10
275.8642838838591
 20
134.26244199945504
 10
270.63215726219727
 20
134.97287702806887
 10
265.40985899102833
 20
135.64896512293654
 10
260.19856106613275
 20
136.2901925244986
 10
254.99873344098359
 20
136.89675710294077
 10
249.81003539387052
 20
137.46955114974693
 10
244.63052504141922
 20
138.00844036910155
 10
239.45936466180862
 20
138.51354926143486
 10
234.29543179260918
 20
138.98180920267393
 10
229.13654342178555
 20
139.41171354764333
 10
223.98153569590835
 20
139.8059502977136
 10
218.82956301404323
 20
140.1665172064138
 10
213.6824197648582
 20
140.49385242217573
 10
208.54213178893795
 20
140.78612234801753
 10
203.41080811098453
 20
141.0419480300713
 10
198.28937697718735
 20
141.25979855230787
 10
193.17799491420507
 20
141.43930489388597
 10
188.07746210625533
 20
141.581706250808
 10
182.98987476690974
 20
141.68775155918263
 10
177.91771781037392
 20
141.7556702947295
 10
172.86691068553577
 20
141.7867532144022
 10
167.84568409903656
 20
141.78208228578129
 10
162.85223044068425
 20
141.73253613016252
 10
157.88905161905072
 20
141.6436352395587
 10
152.9470628810419
 20
141.50530225213703
 10
148.0172748671099
 20
141.3168900223174
 10
143.10500445065497
 20
141.09055953486262
 10
138.21636643722843
 20
140.82568619543352
 10
133.3540871065042
 20
140.51640179913028
 10
128.52006816692943
 20
140.15838755092398
 10
123.71667519688243
 20
139.75047208895748
 10
118.94758377256193
 20
139.29885591537146
 10
114.2199128614804
 20
138.81258389117158
 10
109.54220983627025
 20
138.29031716552828
 10
104.91658923659509
 20
137.71808307716117
 10
100.34818225259355
 20
137.09462086492545
 10
95.84176858851475
 20
136.4198412747227
 10
91.40121371815567
 20
135.69899973207328
 10
87.02434446893912
 20
134.9380016921361
 10
82.71641505986852
 20
134.14709624749977
 10
78.50016141688312
 20
133.33297177243134
 10
74.3925967800717
 20
132.48474607110313
 10
70.40123720663345
 20
131.59900007589604
 10
66.52602806815906
 20
130.67388128790884
 10
62.76555964517658
 20
129.71303949172278
 10
59.11837050706285
 20
128.72102178058736
 10
55.58405580919106
 20
127.70217458525187
 10
52.16478814591059
 20
126.6616032351383
 10
48.86427278249542
 20
125.60292750171305
 10
45.68767023233946
 20
124.52979220648355
 10
42.63764566175979
 20
123.4419224768392
 10
39.714992794229005
 20
122.33985450969892
 10
36.924173230450236
 20
121.23106387615591
 10
34.27275440616674
 20
120.12564612144003
 10
31.765624973524098
 20
119.02906585385793
 10
29.40365805715618
 20
117.9435705346173
 10
27.183458185969357
 20
116.87045839806925
 10
25.09905645920699
 20
115.81218732606757
 10
23.144611636210016
 20
114.77287034274741
 10
21.315145299045753
 20
113.75679853375978
 10
19.605175133380925
 20
112.7658618414615
 10
18.01260961443697
 20
111.80367230448984
 10
16.528765314681408
 20
110.8649167962221
 10
15.14922193325171
 20
109.9509561443118
 10
13.86385759055156
 20
109.05584297011683
 10
12.667963881760215
 20
108.18251521428807
 10
11.551017754844963
 20
107.32627986143589
 10
10.512600248429948
 20
106.49486678356404
 10
9.539421766099906
 20
105.67595544298865
 10
8.63398289104839
 20
104.88037398367703
 10
7.790555120277787
 20
104.10240921874943
 10
7.004921496754861
 20
103.3402354790081
 10
6.2737579148306395
 20
102.59364470326074
 10
5.593842251817705
 20
101.8617070406249
 10
4.960668238359233
 20
101.14137837321927
 10
4.373461630030249
 20
100.43645763989338
 10
3.8310017668846967
 20
99.74736965489438
 10
3.3281236480598864
 20
99.06675921356796
 10
2.858069823645849
 20
98.38964132455077
 10
2.421746143728029
 20
97.72763166889477
 10
2.029927893685624
 20
97.09871415263517
 10
1.683491561174833
 20
96.48616047019303
 10
1.376041467232227
 20
95.86751515144574
 10
1.1031627433139022
 20
95.2489847745381
 10
0.868154750737915
 20
94.65356798786425
 10
0.6702590781320907
 20
94.06964352803737
 10
0.5001730115526186
 20
93.46385098343362
 10
0.36468411439241777
 20
92.90808119334075
 10
0.2652157734760294
 20
92.39490890529449
 10
0.20767106925458734
 20
91.79069058516026
 10
0.17485500270544208
 20
91.25904609979273
 10
0.16471322706155433
 20
90.71787511889066
 10
0.18494385745202635
 20
90.19258014839937
 10
0.24388156859581045
 20
89.67005516522202
 10
0.3481410041813149
 20
89.14348406329026
 10
0.5018615681931919
 20
88.60878560679708
 10
0.6999763219991735
 20
88.07790254550747
 10
0.9508143393162243
 20
87.544760496102
 10
1.2475309339096157
 20
87.01422442393898
 10
1.5936354654399452
 20
86.48465476940068
 10
1.987123691675663
 20
85.9571034204766
 10
2.423506171457859
 20
85.43540877193544
 10
2.90596240684755
 20
84.91885301850563
 10
3.433417705032525
 20
84.40872440723263
 10
4.005078512480111
 20
83.90639362590726
 10
4.619842921211642
 20
83.41396754858413
 10
5.286308840384578
 20
82.9292391797092
 10
6.005040208243173
 20
82.45051759533862
 10
6.777051209097976
 20
81.97600724586094
 10
7.603289318960265
 20
81.50349552325304
 10
8.485032623578917
 20
81.03071542233039
 10
9.423158459367869
 20
80.55587267365404
 10
10.418898587401003
 20
80.07816722561809
 10
11.475374633430619
 20
79.59770265895654
 10
12.59738080216934
 20
79.11519165725525
 10
13.791324846378842
 20
78.63169876847374
 10
15.068185073504424
 20
78.14710246989611
 10
16.436537317499614
 20
77.65901303824891
 10
17.902687299612495
 20
77.16449883708177
 10
19.474259246325033
 20
76.6614525454851
 10
21.159536528235293
 20
76.14892016641477
 10
22.96726733851372
 20
75.62831559536207
 10
24.909694684181716
 20
75.10323590648528
 10
27.001657660891652
 20
74.57705352430166
 10
29.2604378535072
 20
74.05172593626588
 10
31.706266202553337
 20
73.52556039303603
 10
34.34934876478758
 20
72.99045302820703
 10
37.18978396036445
 20
72.4434043622839
 10
40.23327403990686
 20
71.89372850988869
 10
43.484846017658526
 20
71.34784621805271
 10
46.945682233776296
 20
70.80788511513447
 10
50.61644860903675
 20
70.27648012419584
 10
54.48996591439129
 20
69.75358989139208
 10
58.544898023306075
 20
69.23896675362299
 10
62.75564616463859
 20
68.73401473686576
 10
67.0932114382156
 20
68.23407776817687
 10
71.54708310197765
 20
67.75040670332511
 10
76.12677152377995
 20
67.29512287224281
 10
80.8414411822479
 20
66.86706871089928
 10
85.67795594509127
 20
66.45906544889777
 10
90.61702173807507
 20
66.07068523507414
 10
95.65739949206105
 20
65.70373059082732
 10
100.78652832265092
 20
65.33971680341769
 10
105.98690354132178
 20
64.97955055679641
 10
111.24154230641572
 20
64.63489988884466
 10
116.53423690430631
 20
64.31098064013212
 10
116.91116214477212
 20
64.28970568556991
 10
116.85199072133615
 20
63.241374276783276
 10
121.8035105698117
 20
62.96188830410938
 10
127.16980068389935
 20
62.68483204083942
 10
132.5787496261875
 20
62.420515389571186
 10
138.02302233979432
 20
62.15760880785803
 10
143.49401750830194
 20
61.9064022941478
 10
148.980765894045
 20
61.67140700761294
 10
154.48120927151024
 20
61.45704013578796
 10
160.0043465652932
 20
61.25970411493817
 10
165.55744844729142
 20
61.07105991793478
 10
171.13885077665898
 20
60.885158647707485
 10
176.73909528397394
 20
60.6995454175771
 10
182.35796876599122
 20
60.51969865634942
 10
187.99116452750158
 20
60.351535214866466
 10
193.64253877188287
 20
60.19376699139073
 10
199.31160186152144
 20
60.04347073995525
 10
204.9916535047499
 20
59.8951188003971
 10
210.67991871481036
 20
59.746432431067035
 10
216.37554652993595
 20
59.598265220454266
 10
222.07713316758182
 20
59.4530351705772
 10
227.78144747696925
 20
59.31337590616067
 10
233.4906008712567
 20
59.18122583888464
 10
239.2064284406737
 20
59.05410877287464
 10
244.9239217663876
 20
58.92980191450605
 10
250.64159025792796
 20
58.80796753216275
 10
256.35751447329005
 20
58.687157055902375
 10
262.0686427543662
 20
58.567657079357026
 10
267.7749245537539
 20
58.451575708518206
 10
273.4814984108365
 20
58.34132319297659
 10
279.1903893140623
 20
58.23899908462086
 10
284.89986791832246
 20
58.143140535164086
 10
290.60853582288826
 20
58.04881321026045
 10
296.3171956382084
 20
57.95083835816458
 10
302.0270841180711
 20
57.84680703881009
 10
307.73823355359167
 20
57.74010438878688
 10
313.4486730609631
 20
57.63826878890543
 10
319.15788132567735
 20
57.54422219417342
 10
324.8672444312058
 20
57.4521550589394
 10
330.58095198169303
 20
57.35326566653414
 10
336.30446832229956
 20
57.24475821419423
 10
342.03637101933646
 20
57.13008859574719
 10
347.77135441467584
 20
57.02097381277994
 10
353.5104195293461
 20
56.929607326598
 10
359.25346771886643
 20
56.85115848744333
 10
364.9961655651475
 20
56.76921802871044
 10
370.73918278847435
 20
56.6745362354319
 10
376.4839284413325
 20
56.57061903330169
 10
382.22850704047227
 20
56.46845069018203
 10
387.9706164331169
 20
56.38266117622622
 10
393.70967887705007
 20
56.31015467410406
 10
399.44115535941376
 20
56.23136403451495
 10
405.1684634326567
 20
56.14014629719399
 10
410.8972627071738
 20
56.036246644634176
 10
416.6293021527315
 20
55.927439648516284
 10
422.3569484411237
 20
55.82694653727853
 10
428.07098700388326
 20
55.740577012250306
 10
433.7623550717658
 20
55.64979672908168
 10
439.4303303365591
 20
55.54273836762393
 10
445.0850296225042
 20
55.4210501512315
 10
450.7247816884235
 20
55.28792695242122
 10
456.331816474373
 20
55.14804357973303
 10
461.905424064496
 20
55.006567785333495
 10
467.462248516029
 20
54.854189698047996
 10
473.0117190929484
 20
54.680868835117685
 10
478.54789298240235
 20
54.495313597208614
 10
484.056374730274
 20
54.30950611331585
 10
489.50427149159543
 20
54.11410334508994
 10
494.88869052382347
 20
53.89539697388064
 10
500.26057073201315
 20
53.65194599599924
 10
505.63133615905485
 20
53.40404713396068
 10
510.9698033890726
 20
53.156184090394554
 10
516.2627716036574
 20
52.880626769858566
 10
521.5344160343363
 20
52.56536585595818
 10
526.791048810655
 20
52.25020753145812
 10
532.0100660915938
 20
51.954932248596286
 10
537.1757257704155
 20
51.63880057509711
 10
542.3075157172466
 20
51.26759887574848
 10
547.4340058975943
 20
50.868478148076456
 10
552.5165829354953
 20
50.467033939198856
 10
557.4868313014972
 20
50.04981100480054
 10
562.346996827847
 20
49.58291972755815
 10
567.1283136216513
 20
49.08875413767638
 10
571.7825348902979
 20
48.58913490744583
 10
576.2591315647385
 20
48.09423864802435
 10
580.5081630419471
 20
47.59658350880679
 10
584.5130760421728
 20
47.1073345507219
 10
588.2603478692367
 20
46.649382509441786
 10
591.7363292417765
 20
46.206834734812546
 10
594.9370454229983
 20
45.78528212021945
 10
596.9182210853626
 20
45.51051360282067
  0
LWPOLYLINE
  5
8C
330
17
100
AcDbEntity
  8
Layer
100
AcDbPolyline
 90
5
 70
0
 10
391.96736524026835
 20
106.70469261597748
 10
388.10245325444646
 20
107.73544735976989
 10
389.13320799823884
 20
111.60035934559176
 10
392.99811998406074
 20
110.56960460179934
 10
391.96736524026835
 20
106.70469261597748
  0
LWPOLYLINE
  5
8D
330
17
100
AcDbEntity
  8
Layer
100
AcDbPolyline
 90
5
 70
0
 10
155.2409182586796
 20
137.56789997638867
 10
151.24248614132873
 20
137.45591514287548
 10
151.13050130781554
 20
141.45434726022637
 10
155.12893342516642
 20
141.56633209373956
 10
155.2409182586796
 20
137.56789997638867
  0
LWPOLYLINE
  5
8E
330
17
100
AcDbEntity
  8
Layer
100
AcDbPolyline
 90
5
 70
0
 10
65.27368741485941
 20
126.24998595613881
 10
61.41396313797764
 20
125.19997238172682
 10
60.36394956356565
 20
129.0596966586086
 10
64.22367384044742
 20
130.1097102330206
 10
65.27368741485941
 20
126.24998595613881
  0
LWPOLYLINE
  5
8F
330
17
100
AcDbEntity
  8
Layer
100
AcDbPolyline
 90
5
 70
0
 10
16.753883228460538
 20
104.97500397771583
 10
15.139041299614524
 20
103.79505247666128
 10
12.189162546978151
 20
107.83215729877631
 10
13.804004475824167
 20
109.01210879983086
 10
16.753883228460538
 20
104.97500397771583
  0
LWPOLYLINE
  5
90
330
17
100
AcDbEntity
  8
Layer
100
AcDbPolyline
 90
5
 70
0
 10
27.840629644525702
 20
79.51534811204804
 10
29.78868021711394
 20
79.06246957795899
 10
28.656483881891322
 20
74.1923431464884
 10
26.708433309303086
 20
74.64522168057745
 10
27.840629644525702
 20
79.51534811204804
  0
LWPOLYLINE
  5
91
330
17
100
AcDbEntity
  8
Layer
100
AcDbPolyline
 90
5
 70
0
 10
85.33424514568274
 20
70.49843722387607
 10
89.3219370751339
 20
70.18488806379102
 10
89.00838791504886
 20
66.19719613433986
 10
85.0206959855977
 20
66.51074529442491
 10
85.33424514568274
 20
70.49843722387607
  0
LINE
  5
92
330
17
100
AcDbEntity
  8
Layer
100
AcDbLine
 10
578.1365592202226
 20
52.640087193154336
 30
0.0
 11
577.9662134435437
 21
52.169999630707046
 31
0.0
  0
LINE
  5
93
330
17
100
AcDbEntity
  8
Layer
100
AcDbLine
 10
577.1129516586499
 20
48.49764046390534
 30
0.0
 11
577.0585931159223
 21
48.00060409820104
 31
0.0
  0
LINE
  5
94
330
17
100
AcDbEntity
  8
Layer
100
AcDbLine
 10
559.2335641221784
 20
59.17621383967383
 30
0.0
 11
559.0666897219439
 21
58.70488281529037
 31
0.0
  0
LINE
  5
95
330
17
100
AcDbEntity
  8
Layer
100
AcDbLine
 10
557.219650959839
 20
50.57386834120529
 30
0.0
 11
557.1665204945689
 21
50.076699201314064
 31
0.0
  0
LINE
  5
96
330
17
100
AcDbEntity
  8
Layer
100
AcDbLine
 10
521.3221777938893
 20
71.9401976705169
 30
0.0
 11
521.158965690498
 21
71.4675859807476
 31
0.0
  0
LINE
  5
97
330
17
100
AcDbEntity
  8
Layer
100
AcDbLine
 10
517.2902327662587
 20
53.319880790300985
 30
0.0
 11
517.2465106722474
 21
52.82179608014089
 31
0.0
  0
LWPOLYLINE
  5
98
330
17
100
AcDbEntity
  8
Layer
100
AcDbPolyline
 90
300
 70
1
 10
258.00099999999975
 20
100.0
 10
257.9937138437077
 20
100.70578722095436
 10
257.97185859219337
 20
101.41126278614067
 10
257.9354438961204
 20
102.11611517740928
 10
257.8844858351934
 20
102.82003315178663
 10
257.8190069110577
 20
103.52270587891132
 10
257.73903603736284
 20
104.2238230782881
 10
257.64460852699534
 20
104.92307515629898
 10
257.5357660764856
 20
105.62015334291107
 10
257.41255674759566
 20
106.3147498280207
 10
257.2750349460967
 20
107.00655789737374
 10
257.12326139774484
 20
107.69527206800194
 10
256.95730312146645
 20
108.38058822311568
 10
256.77723339976444
 20
109.06220374639327
 10
256.58313174635873
 20
109.73981765560791
 10
256.3750838710753
 20
110.41313073553289
 10
256.153181641999
 20
111.08184567006664
 10
255.91752304490748
 20
111.7456671735192
 10
255.66821214000313
 20
112.40430212100193
 10
255.40535901596317
 20
113.0574596778634
 10
255.12907974132756
 20
113.70485142811363
 10
254.8394963132464
 20
114.34619150178051
 10
254.5367366036094
 20
114.98119670114197
 10
254.2209343025813
 20
115.60958662577812
 10
253.8922288595681
 20
116.2310837963881
 10
253.5507654216399
 20
116.84541377731729
 10
253.1966947694384
 20
117.45230529774014
 10
252.83017325059606
 20
118.05149037144598
 10
252.4513627106976
 20
118.64270441517397
 10
252.06043042181352
 20
119.22568636544577
 10
251.65754900863735
 20
119.80017879384374
 10
251.24289637225962
 20
120.36592802068415
 10
250.81665561161157
 20
120.92268422703489
 10
250.37901494261396
 20
121.47020156502859
 10
249.93016761506613
 20
122.008238266422
 10
249.47031182731234
 20
122.53655674935416
 10
248.99965063872298
 20
123.05492372325577
 10
248.51839188002936
 20
123.56311029186378
 10
248.02674806155122
 20
124.06089205429554
 10
247.52493627935854
 20
124.54804920413787
 10
247.0131781194077
 20
125.02436662650744
 10
246.49169955969563
 20
125.48963399303943
 10
245.96073087047404
 20
125.94364585476258
 10
245.4205065125687
 20
126.3862017328197
 10
244.8712650338481
 20
126.81710620699351
 10
244.3132489638875
 20
127.23616900199866
 10
243.74670470687462
 20
127.64320507150197
 10
243.17188243280447
 20
128.03803467983371
 10
242.5890359670113
 20
128.4204834813537
 10
241.99842267808674
 20
128.79038259743763
 10
241.40030336423263
 20
129.14756869104883
 10
240.79494213810028
 20
129.49188403886365
 10
240.1826063101655
 20
129.82317660091732
 10
239.56356627069198
 20
130.14130008774072
 10
238.93809537033442
 20
130.4461140249576
 10
238.30646979943475
 20
130.73748381531414
 10
237.66896846606403
 20
131.01528079811334
 10
237.02587287286474
 20
131.27938230602788
 10
236.37746699274692
 20
131.52967171926664
 10
235.7240371434939
 20
131.76603851707063
 10
235.06587186133223
 20
131.988378326516
 10
234.40326177352247
 20
132.19659296860195
 10
233.73649947002616
 20
132.39059050160407
 10
233.0658793743064
 20
132.570285261673
 10
232.39169761331868
 20
132.7355979006614
 10
231.71425188674974
 20
132.8864554211615
 10
231.03384133556148
 20
133.02279120873914
 10
230.35076640989902
 20
133.14454506134848
 10
229.66532873642018
 20
133.25166321591578
 10
228.97783098510567
 20
133.3440983720795
 10
228.2885767356087
 20
133.42180971307673
 10
227.59787034320246
 20
133.48476292376705
 10
226.9060168043857
 20
133.53293020578477
 10
226.2133216222047
 20
133.5662902898141
 10
225.5200906713517
 20
133.58482844498113
 10
224.82663006309943
 20
133.58853648535836
 10
224.1332460101307
 20
133.57741277357954
 10
223.44024469132378
 20
133.55146222156267
 10
222.74793211655228
 20
133.51069628834097
 10
222.0566139915598
 20
133.45513297500293
 10
221.36659558296896
 20
133.38479681674357
 10
220.67818158348416
 20
133.29971887203033
 10
219.99167597734794
 20
133.19993670888854
 10
219.30738190611004
 20
133.08549438831247
 10
218.62560153476866
 20
132.95644244480923
 10
217.9466359183429
 20
132.81283786408403
 10
217.2707848689353
 20
132.65474405787717
 10
216.59834682334326
 20
132.48223083596292
 10
215.92961871127787
 20
132.29537437532363
 10
215.26489582424793
 20
132.0942571865121
 10
214.60447168516762
 20
131.87896807721722
 10
213.94863791874508
 20
131.649602113049
 10
213.2976841227091
 20
131.40626057556034
 10
212.65189773993086
 20
131.14905091752382
 10
212.0115639314974
 20
130.87808671548373
 10
211.3769654507924
 20
130.59348761960368
 10
210.74838251864026
 20
130.29537930083262
 10
210.12609269956846
 20
129.98389339541208
 10
209.51037077924298
 20
129.65916744674917
 10
208.9014886431305
 20
129.32134484468142
 10
208.29971515644164
 20
128.9705747621598
 10
207.70531604540747
 20
128.60701208937817
 10
207.11855377994246
 20
128.23081736537813
 10
206.53968745774495
 20
127.84215670715952
 10
205.96897268988707
 20
127.44120173632768
 10
205.40666148794406
 20
127.02812950331047
 10
204.853002152713
 20
126.6031224091775
 10
204.30823916457015
 20
126.16636812509708
 10
203.77261307551538
 20
125.71805950946596
 10
203.24636040295113
 20
125.25839452274838
 10
202.729713525243
 20
124.78757614006238
 10
202.22290057910797
 20
124.3058122615517
 10
201.72614535887567
 20
123.81331562058283
 10
201.23966721766715
 20
123.31030368980811
 10
200.76368097053464
 20
122.79699858513581
 10
200.2983967996053
 20
122.27362696765003
 10
199.84402016127075
 20
121.74041994352352
 10
199.40075169546327
 20
121.19761296196776
 10
198.9687871370588
 20
120.64544571126514
 10
198.54831722944604
 20
120.08416201292945
 10
198.1395276402995
 20
119.51400971404108
 10
197.74259887959386
 20
118.93524057780479
 10
197.35770621989582
 20
118.34811017237813
 10
196.98501961896872
 20
117.75287775801972
 10
196.624703644724
 20
117.14980617260728
 10
196.2769174025526
 20
116.53916171557577
 10
195.94181446506846
 20
115.92121403032706
 10
195.61954280429524
 20
115.29623598516304
 10
195.31024472632598
 20
114.66450355279457
 10
195.01405680848487
 20
114.02629568847982
 10
194.73110983901836
 20
113.38189420684537
 10
194.4615287593429
 20
112.73158365744489
 10
194.2054326088743
 20
112.07565119911
 10
193.96293447246313
 20
111.41438647314902
 10
193.73414143045989
 20
110.7480814754496
 10
193.51915451143108
 20
110.07703042754144
 10
193.31806864754807
 20
109.4015296466765
 10
193.13097263266755
 20
108.72187741498341
 10
192.95794908312268
 20
108.03837384775476
 10
192.79907440124217
 20
107.3513207609244
 10
192.654418741613
 20
106.66102153779414
 10
192.52404598010227
 20
105.96778099506821
 10
192.4080136856513
 20
105.27190524825474
 10
192.30637309485488
 20
104.57370157649382
 10
192.21916908933662
 20
103.87347828687169
 10
192.14644017593042
 20
103.17154457828093
 10
192.08821846967712
 20
102.46821040488703
 10
192.04452967964312
 20
101.7637863392613
 10
192.01539309756822
 20
101.05858343524076
 10
192.00082158934686
 20
100.35291309057556
 10
192.00082158934686
 20
99.64708690942446
 10
192.01539309756822
 20
98.94141656475925
 10
192.04452967964312
 20
98.2362136607387
 10
192.08821846967712
 20
97.53178959511297
 10
192.14644017593042
 20
96.82845542171907
 10
192.21916908933662
 20
96.12652171312833
 10
192.30637309485488
 20
95.42629842350618
 10
192.4080136856513
 20
94.72809475174527
 10
192.52404598010224
 20
94.0322190049318
 10
192.654418741613
 20
93.33897846220586
 10
192.79907440124217
 20
92.64867923907559
 10
192.95794908312268
 20
91.96162615224523
 10
193.13097263266755
 20
91.27812258501659
 10
193.31806864754807
 20
90.59847035332352
 10
193.51915451143108
 20
89.92296957245856
 10
193.73414143045989
 20
89.25191852455042
 10
193.96293447246313
 20
88.58561352685099
 10
194.2054326088743
 20
87.92434880089002
 10
194.4615287593429
 20
87.2684163425551
 10
194.73110983901836
 20
86.61810579315461
 10
195.01405680848487
 20
85.97370431152018
 10
195.31024472632598
 20
85.33549644720543
 10
195.61954280429524
 20
84.70376401483696
 10
195.94181446506846
 20
84.07878596967294
 10
196.2769174025526
 20
83.46083828442423
 10
196.62470364472404
 20
82.85019382739272
 10
196.98501961896872
 20
82.24712224198026
 10
197.3577062198958
 20
81.65188982762189
 10
197.74259887959386
 20
81.06475942219521
 10
198.1395276402995
 20
80.48599028595892
 10
198.54831722944604
 20
79.91583798707056
 10
198.96878713705877
 20
79.35455428873486
 10
199.40075169546327
 20
78.80238703803225
 10
199.84402016127075
 20
78.25958005647648
 10
200.2983967996053
 20
77.72637303234997
 10
200.76368097053464
 20
77.20300141486419
 10
201.23966721766715
 20
76.68969631019189
 10
201.72614535887567
 20
76.18668437941719
 10
202.22290057910794
 20
75.69418773844832
 10
202.729713525243
 20
75.21242385993762
 10
203.24636040295113
 20
74.74160547725162
 10
203.77261307551538
 20
74.28194049053405
 10
204.30823916457013
 20
73.83363187490292
 10
204.85300215271297
 20
73.39687759082251
 10
205.40666148794406
 20
72.97187049668953
 10
205.96897268988707
 20
72.55879826367232
 10
206.53968745774495
 20
72.1578432928405
 10
207.11855377994246
 20
71.76918263462186
 10
207.70531604540747
 20
71.39298791062183
 10
208.29971515644164
 20
71.0294252378402
 10
208.9014886431305
 20
70.67865515531858
 10
209.51037077924298
 20
70.34083255325083
 10
210.1260926995685
 20
70.01610660458792
 10
210.74838251864026
 20
69.70462069916736
 10
211.37696545079237
 20
69.40651238039634
 10
212.0115639314974
 20
69.12191328451628
 10
212.65189773993083
 20
68.85094908247618
 10
213.29768412270906
 20
68.59373942443966
 10
213.94863791874508
 20
68.350397886951
 10
214.60447168516762
 20
68.12103192278279
 10
215.26489582424793
 20
67.9057428134879
 10
215.92961871127787
 20
67.70462562467637
 10
216.59834682334326
 20
67.51776916403708
 10
217.2707848689353
 20
67.34525594212282
 10
217.9466359183429
 20
67.18716213591595
 10
218.62560153476866
 20
67.04355755519079
 10
219.30738190611004
 20
66.91450561168753
 10
219.99167597734794
 20
66.80006329111146
 10
220.67818158348416
 20
66.70028112796967
 10
221.36659558296893
 20
66.61520318325643
 10
222.05661399155977
 20
66.54486702499707
 10
222.74793211655225
 20
66.48930371165903
 10
223.44024469132376
 20
66.44853777843733
 10
224.13324601013068
 20
66.42258722642046
 10
224.8266300630994
 20
66.41146351464164
 10
225.5200906713517
 20
66.41517155501887
 10
226.2133216222047
 20
66.43370971018588
 10
226.9060168043857
 20
66.46706979421523
 10
227.59787034320246
 20
66.51523707623296
 10
228.28857673560867
 20
66.57819028692327
 10
228.9778309851057
 20
66.65590162792051
 10
229.66532873642018
 20
66.74833678408422
 10
230.35076640989902
 20
66.85545493865152
 10
231.0338413355615
 20
66.97720879126089
 10
231.7142518867497
 20
67.11354457883851
 10
232.39169761331868
 20
67.26440209933861
 10
233.06587937430638
 20
67.42971473832696
 10
233.73649947002616
 20
67.60940949839592
 10
234.40326177352247
 20
67.80340703139804
 10
235.06587186133223
 20
68.011621673484
 10
235.72403714349386
 20
68.23396148292936
 10
236.37746699274692
 20
68.47032828073337
 10
237.02587287286474
 20
68.72061769397212
 10
237.66896846606403
 20
68.98471920188666
 10
238.30646979943475
 20
69.26251618468585
 10
238.93809537033442
 20
69.55388597504239
 10
239.56356627069198
 20
69.85869991225928
 10
240.1826063101655
 20
70.17682339908268
 10
240.79494213810028
 20
70.50811596113635
 10
241.40030336423263
 20
70.85243130895114
 10
241.9984226780867
 20
71.20961740256237
 10
242.5890359670113
 20
71.57951651864627
 10
243.17188243280444
 20
71.96196532016629
 10
243.7467047068746
 20
72.35679492849802
 10
244.3132489638875
 20
72.76383099800134
 10
244.8712650338481
 20
73.18289379300649
 10
245.42050651256866
 20
73.6137982671803
 10
245.96073087047404
 20
74.05635414523742
 10
246.49169955969563
 20
74.51036600696057
 10
247.0131781194077
 20
74.97563337349256
 10
247.52493627935854
 20
75.45195079586213
 10
248.02674806155125
 20
75.93910794570446
 10
248.51839188002936
 20
76.43688970813622
 10
248.999650638723
 20
76.94507627674425
 10
249.47031182731232
 20
77.46344325064584
 10
249.93016761506613
 20
77.99176173357799
 10
250.37901494261394
 20
78.52979843497141
 10
250.81665561161157
 20
79.0773157729651
 10
251.24289637225962
 20
79.63407197931583
 10
251.65754900863735
 20
80.19982120615624
 10
252.06043042181352
 20
80.77431363455423
 10
252.4513627106976
 20
81.35729558482603
 10
252.83017325059606
 20
81.94850962855402
 10
253.1966947694384
 20
82.54769470225986
 10
253.5507654216399
 20
83.15458622268272
 10
253.8922288595681
 20
83.7689162036119
 10
254.2209343025813
 20
84.3904133742219
 10
254.5367366036094
 20
85.01880329885803
 10
254.8394963132464
 20
85.6538084982195
 10
255.12907974132756
 20
86.29514857188636
 10
255.40535901596317
 20
86.94254032213658
 10
255.66821214000313
 20
87.59569787899805
 10
255.91752304490748
 20
88.2543328264808
 10
256.153181641999
 20
88.91815432993334
 10
256.3750838710753
 20
89.58686926446711
 10
256.58313174635873
 20
90.26018234439209
 10
256.77723339976444
 20
90.93779625360672
 10
256.95730312146645
 20
91.61941177688432
 10
257.12326139774484
 20
92.30472793199806
 10
257.2750349460967
 20
92.99344210262626
 10
257.41255674759566
 20
93.6852501719793
 10
257.5357660764856
 20
94.37984665708893
 10
257.64460852699534
 20
95.07692484370102
 10
257.73903603736284
 20
95.77617692171191
 10
257.8190069110577
 20
96.47729412108866
 10
257.8844858351934
 20
97.17996684821335
 10
257.9354438961204
 20
97.8838848225907
 10
257.97185859219337
 20
98.58873721385932
 10
257.9937138437077
 20
99.29421277904564
 10
258.00099999999975
 20
99.99999999999999
  0
LINE
  5
99
330
17
100
AcDbEntity
  8
Layer
100
AcDbLine
 10
428.27111259072853
 20
99.99999999999997
 30
0.0
 11
432.27111259072853
 21
99.99999999999997
 31
0.0
  0
LINE
  5
9A
330
17
100
AcDbEntity
  8
Layer
100
AcDbLine
 10
6.029875967880457
 20
100.00000000000003
 30
0.0
 11
2.029875967880457
 21
100.00000000000003
 31
0.0
  0
LINE
  5
9B
330
17
100
AcDbEntity
  8
Layer
100
AcDbLine
 10
94.77812329245006
 20
100.00000000000001
 30
0.0
 11
83.77812329245006
 21
100.00000000000001
 31
0.0
  0
LWPOLYLINE
  5
9C
330
17
100
AcDbEntity
  8
Layer
100
AcDbPolyline
 90
5
 70
0
 10
84.27812329245006
 20
95.00000000000001
 10
84.27812329245006
 20
105.00000000000001
 10
94.27812329245006
 20
105.00000000000001
 10
94.27812329245006
 20
95.00000000000001
 10
84.27812329245006
 20
95.00000000000001
  0
LINE
  5
9D
330
17
100
AcDbEntity
  8
Layer
100
AcDbLine
 10
222.6504942793045
 20
100.0
 30
0.0
 11
211.6504942793045
 21
100.0
 31
0.0
  0
LWPOLYLINE
  5
9E
330
17
100
AcDbEntity
  8
Layer
100
AcDbPolyline
 90
5
 70
0
 10
212.1504942793045
 20
95.0
 10
212.1504942793045
 20
105.0
 10
222.1504942793045
 20
105.0
 10
222.1504942793045
 20
95.0
 10
212.1504942793045
 20
95.0
  0
LINE
  5
9F
330
17
100
AcDbEntity
  8
Layer
100
AcDbLine
 10
350.522865266159
 20
99.99999999999999
 30
0.0
 11
339.522865266159
 21
99.99999999999999
 31
0.0
  0
LWPOLYLINE
  5
A0
330
17
100
AcDbEntity
  8
Layer
100
AcDbPolyline
 90
5
 70
0
 10
340.022865266159
 20
94.99999999999999
 10
340.022865266159
 20
104.99999999999999
 10
350.022865266159
 20
104.99999999999999
 10
350.022865266159
 20
94.99999999999999
 10
340.022865266159
 20
94.99999999999999
  0
LINE
  5
A1
330
17
100
AcDbEntity
  8
Layer
100
AcDbLine
 10
2.198804770976153
 20
91.5891071324221
 30
0.0
 11
-1.78940623793153
 21
91.89598324492937
 31
0.0
  0
LINE
  5
A2
330
17
100
AcDbEntity
  8
Layer
100
AcDbLine
 10
486.9963087616125
 20
54.2859722066139
 30
0.0
 11
490.9845197705202
 21
53.979096094106616
 31
0.0
  0
LINE
  5
A3
330
17
100
AcDbEntity
  8
Layer
100
AcDbLine
 10
589.3484957402798
 20
46.41040063417751
 30
0.0
 11
593.3367067491874
 21
46.10352452167023
 31
0.0
  0
LINE
  5
A4
330
17
100
AcDbEntity
  8
Layer
100
AcDbLine
 10
224.99999999999977
 20
133.58899999999994
 30
0.0
 11
224.99999999999977
 21
134.08899999999994
 31
0.0
  0
LINE
  5
A5
330
17
100
AcDbEntity
  8
Layer
100
AcDbLine
 10
224.99999999999977
 20
66.41100000000006
 30
0.0
 11
224.99999999999977
 21
65.91100000000006
 31
0.0
  0
LINE
  5
A6
330
17
100
AcDbEntity
  8
Layer
100
AcDbLine
 10
258.00099999999975
 20
100.0
 30
0.0
 11
258.50099999999975
 21
100.0
 31
0.0
  0
LINE
  5
A7
330
17
100
AcDbEntity
  8
Layer
100
AcDbLine
 10
191.99899999999982
 20
100.0
 30
0.0
 11
191.49899999999982
 21
100.0
 31
0.0
  0
LINE
  5
A8
330
17
100
AcDbEntity
  8
Layer
100
AcDbLine
 10
59.99999999999977
 20
126.96082071574901
 30
0.0
 11
59.99999999999977
 21
130.960820715749
 31
0.0
  0
LINE
  5
A9
330
17
100
AcDbEntity
  8
Layer
100
AcDbLine
 10
59.99999999999977
 20
71.06447123571097
 30
0.0
 11
59.99999999999977
 21
67.06447123571097
 31
0.0
  0
LINE
  5
AA
330
17
100
AcDbEntity
  8
Layer
100
AcDbLine
 10
59.99999999999977
 20
86.54374113171858
 30
0.0
 11
59.99999999999977
 21
75.54374113171858
 31
0.0
  0
LWPOLYLINE
  5
AB
330
17
100
AcDbEntity
  8
Layer
100
AcDbPolyline
 90
5
 70
0
 10
64.99999999999977
 20
76.04374113171858
 10
54.99999999999977
 20
76.04374113171858
 10
54.99999999999977
 20
86.04374113171858
 10
64.99999999999977
 20
86.04374113171858
 10
64.99999999999977
 20
76.04374113171858
  0
LINE
  5
AC
330
17
100
AcDbEntity
  8
Layer
100
AcDbLine
 10
59.99999999999977
 20
104.51264597572998
 30
0.0
 11
59.99999999999977
 21
93.51264597572998
 31
0.0
  0
LWPOLYLINE
  5
AD
330
17
100
AcDbEntity
  8
Layer
100
AcDbPolyline
 90
5
 70
0
 10
64.99999999999977
 20
94.01264597572998
 10
54.99999999999977
 20
94.01264597572998
 10
54.99999999999977
 20
104.01264597572998
 10
64.99999999999977
 20
104.01264597572998
 10
64.99999999999977
 20
94.01264597572998
  0
LINE
  5
AE
330
17
100
AcDbEntity
  8
Layer
100
AcDbLine
 10
59.99999999999977
 20
122.4815508197414
 30
0.0
 11
59.99999999999977
 21
111.4815508197414
 31
0.0
  0
LWPOLYLINE
  5
AF
330
17
100
AcDbEntity
  8
Layer
100
AcDbPolyline
 90
5
 70
0
 10
64.99999999999977
 20
111.9815508197414
 10
54.99999999999977
 20
111.9815508197414
 10
54.99999999999977
 20
121.9815508197414
 10
64.99999999999977
 20
121.9815508197414
 10
64.99999999999977
 20
111.9815508197414
  0
LINE
  5
B0
330
17
100
AcDbEntity
  8
Layer
100
AcDbLine
 10
354.9999999999998
 20
117.93882945380233
 30
0.0
 11
354.9999999999998
 21
121.93882945380233
 31
0.0
  0
LINE
  5
B1
330
17
100
AcDbEntity
  8
Layer
100
AcDbLine
 10
354.9999999999998
 20
58.90925996838438
 30
0.0
 11
354.9999999999998
 21
54.90925996838438
 31
0.0
  0
LINE
  5
B2
330
17
100
AcDbEntity
  8
Layer
100
AcDbLine
 10
354.9999999999998
 20
75.01517386546797
 30
0.0
 11
354.9999999999998
 21
64.01517386546797
 31
0.0
  0
LWPOLYLINE
  5
B3
330
17
100
AcDbEntity
  8
Layer
100
AcDbPolyline
 90
5
 70
0
 10
359.9999999999998
 20
64.51517386546797
 10
349.9999999999998
 20
64.51517386546797
 10
349.9999999999998
 20
74.51517386546797
 10
359.9999999999998
 20
74.51517386546797
 10
359.9999999999998
 20
64.51517386546797
  0
LINE
  5
B4
330
17
100
AcDbEntity
  8
Layer
100
AcDbLine
 10
354.9999999999998
 20
93.92404471109336
 30
0.0
 11
354.9999999999998
 21
82.92404471109336
 31
0.0
  0
LWPOLYLINE
  5
B5
330
17
100
AcDbEntity
  8
Layer
100
AcDbPolyline
 90
5
 70
0
 10
359.9999999999998
 20
83.42404471109336
 10
349.9999999999998
 20
83.42404471109336
 10
349.9999999999998
 20
93.42404471109336
 10
359.9999999999998
 20
93.42404471109336
 10
359.9999999999998
 20
83.42404471109336
  0
LINE
  5
B6
330
17
100
AcDbEntity
  8
Layer
100
AcDbLine
 10
354.9999999999998
 20
112.83291555671873
 30
0.0
 11
354.9999999999998
 21
101.83291555671873
 31
0.0
  0
LWPOLYLINE
  5
B7
330
17
100
AcDbEntity
  8
Layer
100
AcDbPolyline
 90
5
 70
0
 10
359.9999999999998
 20
102.33291555671873
 10
349.9999999999998
 20
102.33291555671873
 10
349.9999999999998
 20
112.33291555671873
 10
359.9999999999998
 20
112.33291555671873
 10
359.9999999999998
 20
102.33291555671873
  0
ENDSEC
  0
SECTION
  2
OBJECTS
  0
DICTIONARY
  5
A
330
0
100
AcDbDictionary
280
0
281
1
  3
ACAD_COLOR
350
B
  3
ACAD_GROUP
350
C
  3
ACAD_LAYOUT
350
D
  3
ACAD_MATERIAL
350
E
  3
ACAD_MLEADERSTYLE
350
F
  3
ACAD_MLINESTYLE
350
10
  3
ACAD_PLOTSETTINGS
350
11
  3
ACAD_PLOTSTYLENAME
350
12
  3
ACAD_SCALELIST
350
14
  3
ACAD_TABLESTYLE
350
15
  3
ACAD_VISUALSTYLE
350
16
  3
EZDXF_META
350
2D
  0
DICTIONARY
  5
B
330
A
100
AcDbDictionary
280
0
281
1
  0
DICTIONARY
  5
C
330
A
100
AcDbDictionary
280
0
281
1
  0
DICTIONARY
  5
D
330
A
100
AcDbDictionary
280
0
281
1
  3
Model
350
1A
  3
Layout1
350
1E
  0
DICTIONARY
  5
E
330
A
100
AcDbDictionary
280
0
281
1
  3
ByBlock
350
1F
  3
ByLayer
350
20
  3
Global
350
21
  0
DICTIONARY
  5
F
330
A
100
AcDbDictionary
280
0
281
1
  3
Standard
350
2C
  0
DICTIONARY
  5
10
330
A
100
AcDbDictionary
280
0
281
1
  3
Standard
350
22
  0
DICTIONARY
  5
11
330
A
100
AcDbDictionary
280
0
281
1
  0
ACDBDICTIONARYWDFLT
  5
12
330
A
100
AcDbDictionary
280
0
281
1
  3
Normal
350
13
100
AcDbDictionaryWithDefault
340
13
  0
ACDBPLACEHOLDER
  5
13
330
12
  0
DICTIONARY
  5
14
330
A
100
AcDbDictionary
280
0
281
1
  0
DICTIONARY
  5
15
330
A
100
AcDbDictionary
280
0
281
1
  0
DICTIONARY
  5
16
330
A
100
AcDbDictionary
280
0
281
1
  3
2dWireframe
350
5A
  3
Basic
350
5B
  3
Brighten
350
5C
  3
ColorChange
350
5D
  3
Conceptual
350
5E
  3
Dim
350
5F
  3
EdgeColorOff
350
60
  3
Facepattern
350
61
  3
Flat
350
62
  3
FlatWithEdges
350
63
  3
Gouraud
350
64
  3
GouraudWithEdges
350
65
  3
Hidden
350
66
  3
JitterOff
350
67
  3
Linepattern
350
68
  3
Modeling
350
69
  3
OverhangOff
350
6A
  3
Realistic
350
6B
  3
Shaded
350
6C
  3
Shaded with edges
350
6D
  3
Shades of Gray
350
6E
  3
Sketchy
350
6F
  3
Thicken
350
70
  3
Wireframe
350
71
  3
X-Ray
350
72
  0
LAYOUT
  5
1A
330
D
100
AcDbPlotSettings
  1

  2
Adobe PDF
  4
A3
  6

 40
7.5
 41
20.0
 42
7.5
 43
20.0
 44
420.0
 45
297.0
 46
0.0
 47
0.0
 48
0.0
 49
0.0
140
0.0
141
0.0
142
1.0
143
1.0
 70
1024
 72
1
 73
0
 74
5
  7

 75
16
 76
0
 77
2
 78
300
147
1.0
148
0.0
149
0.0
100
AcDbLayout
  1
Model
 70
1
 71
0
 10
0.0
 20
0.0
 11
420.0
 21
297.0
 12
0.0
 22
0.0
 32
0.0
 14
1e+20
 24
1e+20
 34
1e+20
 15
-1e+20
 25
-1e+20
 35
-1e+20
146
0.0
 13
0.0
 23
0.0
 33
0.0
 16
1.0
 26
0.0
 36
0.0
 17
0.0
 27
1.0
 37
0.0
 76
1
330
17
  0
LAYOUT
  5
1E
330
D
100
AcDbPlotSettings
  1

  2
Adobe PDF
  4
A3
  6

 40
7.5
 41
20.0
 42
7.5
 43
20.0
 44
420.0
 45
297.0
 46
0.0
 47
0.0
 48
0.0
 49
0.0
140
0.0
141
0.0
142
1.0
143
1.0
 70
0
 72
1
 73
0
 74
5
  7

 75
16
 76
0
 77
2
 78
300
147
1.0
148
0.0
149
0.0
100
AcDbLayout
  1
Layout1
 70
1
 71
1
 10
0.0
 20
0.0
 11
420.0
 21
297.0
 12
0.0
 22
0.0
 32
0.0
 14
1e+20
 24
1e+20
 34
1e+20
 15
-1e+20
 25
-1e+20
 35
-1e+20
146
0.0
 13
0.0
 23
0.0
 33
0.0
 16
1.0
 26
0.0
 36
0.0
 17
0.0
 27
1.0
 37
0.0
 76
1
330
1B
  0
MATERIAL
  5
1F
102
{ACAD_REACTORS
330
E
102
}
330
E
100
AcDbMaterial
  1
ByBlock
  2

 70
0
 40
1.0
 71
1
 41
1.0
 91
-1023410177
 42
1.0
 72
1
  3

 73
1
 74
1
 75
1
 44
0.5
 73
0
 45
1.0
 46
1.0
 77
1
  4

 78
1
 79
1
170
1
 48
1.0
171
1
  6

172
1
173
1
174
1
140
1.0
141
1.0
175
1
  7

176
1
177
1
178
1
143
1.0
179
1
  8

270
1
271
1
272
1
145
1.0
146
1.0
273
1
  9

274
1
275
1
276
1
 42
1.0
 72
1
  3

 73
1
 74
1
 75
1
 94
63
  0
MATERIAL
  5
20
102
{ACAD_REACTORS
330
E
102
}
330
E
100
AcDbMaterial
  1
ByLayer
  2

 70
0
 40
1.0
 71
1
 41
1.0
 91
-1023410177
 42
1.0
 72
1
  3

 73
1
 74
1
 75
1
 44
0.5
 73
0
 45
1.0
 46
1.0
 77
1
  4

 78
1
 79
1
170
1
 48
1.0
171
1
  6

172
1
173
1
174
1
140
1.0
141
1.0
175
1
  7

176
1
177
1
178
1
143
1.0
179
1
  8

270
1
271
1
272
1
145
1.0
146
1.0
273
1
  9

274
1
275
1
276
1
 42
1.0
 72
1
  3

 73
1
 74
1
 75
1
 94
63
  0
MATERIAL
  5
21
102
{ACAD_REACTORS
330
E
102
}
330
E
100
AcDbMaterial
  1
Global
  2

 70
0
 40
1.0
 71
1
 41
1.0
 91
-1023410177
 42
1.0
 72
1
  3

 73
1
 74
1
 75
1
 44
0.5
 73
0
 45
1.0
 46
1.0
 77
1
  4

 78
1
 79
1
170
1
 48
1.0
171
1
  6

172
1
173
1
174
1
140
1.0
141
1.0
175
1
  7

176
1
177
1
178
1
143
1.0
179
1
  8

270
1
271
1
272
1
145
1.0
146
1.0
273
1
  9

274
1
275
1
276
1
 42
1.0
 72
1
  3

 73
1
 74
1
 75
1
 94
63
  0
MLINESTYLE
  5
22
102
{ACAD_REACTORS
330
10
102
}
330
10
100
AcDbMlineStyle
  2
Standard
 70
0
  3

 62
256
 51
90.0
 52
90.0
 71
2
 49
0.5
 62
256
  6
BYLAYER
 49
-0.5
 62
256
  6
BYLAYER
  0
MLEADERSTYLE
  5
2C
102
{ACAD_REACTORS
330
F
102
}
330
F
100
AcDbMLeaderStyle
179
2
170
2
171
1
172
0
 90
2
 40
0.0
 41
0.0
173
1
 91
-1056964608
 92
-2
290
1
 42
2.0
291
1
 43
8.0
  3
Standard
 44
4.0
300

342
29
174
1
175
1
176
0
178
1
 93
-1056964608
 45
4.0
292
0
297
0
 46
4.0
 94
-1056964608
 47
1.0
 49
1.0
140
1.0
294
1
141
0.0
177
0
142
1.0
295
0
296
0
143
3.75
271
0
272
9
273
9
  0
DICTIONARY
  5
2D
330
A
100
AcDbDictionary
281
1
  3
CREATED_BY_EZDXF
350
2E
  3
WRITTEN_BY_EZDXF
350
BA
  0
DICTIONARYVAR
  5
2E
330
2D
100
DictionaryVariables
280
0
  1
1.1.0 @ 2024-03-26T01:33:49.972464+00:00
  0
VISUALSTYLE
  5
5A
102
{ACAD_REACTORS
330
16
102
}
330
16
100
AcDbVisualStyle
  2
2dWireframe
 70
4
 90
0
 40
0.6
 62
7
290
0
291
0
  0
VISUALSTYLE
  5
5B
102
{ACAD_REACTORS
330
16
102
}
330
16
100
AcDbVisualStyle
  2
Basic
 70
7
 90
1
 40
0.6
 62
7
290
0
291
1
  0
VISUALSTYLE
  5
5C
102
{ACAD_REACTORS
330
16
102
}
330
16
100
AcDbVisualStyle
  2
Brighten
 70
12
 90
2
 40
0.6
 62
7
290
0
291
1
  0
VISUALSTYLE
  5
5D
102
{ACAD_REACTORS
330
16
102
}
330
16
100
AcDbVisualStyle
  2
ColorChange
 70
16
 90
2
 40
0.6
 62
8
290
0
291
1
  0
VISUALSTYLE
  5
5E
102
{ACAD_REACTORS
330
16
102
}
330
16
100
AcDbVisualStyle
  2
Conceptual
 70
9
 90
3
 40
0.6
 62
7
290
0
291
0
  0
VISUALSTYLE
  5
5F
102
{ACAD_REACTORS
330
16
102
}
330
16
100
AcDbVisualStyle
  2
Dim
 70
11
 90
2
 40
0.6
 62
7
290
0
291
1
  0
VISUALSTYLE
  5
60
102
{ACAD_REACTORS
330
16
102
}
330
16
100
AcDbVisualStyle
  2
EdgeColorOff
 70
22
 90
2
 40
0.6
 62
7
290
0
291
1
  0
VISUALSTYLE
  5
61
102
{ACAD_REACTORS
330
16
102
}
330
16
100
AcDbVisualStyle
  2
Facepattern
 70
15
 90
2
 40
0.6
 62
7
290
0
291
1
  0
VISUALSTYLE
  5
62
102
{ACAD_REACTORS
330
16
102
}
330
16
100
AcDbVisualStyle
  2
Flat
 70
0
 90
2
 40
0.6
 62
7
290
0
291
1
  0
VISUALSTYLE
  5
63
102
{ACAD_REACTORS
330
16
102
}
330
16
100
AcDbVisualStyle
  2
FlatWithEdges
 70
1
 90
2
 40
0.6
 62
7
290
0
291
1
  0
VISUALSTYLE
  5
64
102
{ACAD_REACTORS
330
16
102
}
330
16
100
AcDbVisualStyle
  2
Gouraud
 70
2
 90
2
 40
0.6
 62
7
290
0
291
1
  0
VISUALSTYLE
  5
65
102
{ACAD_REACTORS
330
16
102
}
330
16
100
AcDbVisualStyle
  2
GouraudWithEdges
 70
3
 90
2
 40
0.6
 62
7
290
0
291
1
  0
VISUALSTYLE
  5
66
102
{ACAD_REACTORS
330
16
102
}
330
16
100
AcDbVisualStyle
  2
Hidden
 70
6
 90
1
 40
0.6
 62
7
290
0
291
0
  0
VISUALSTYLE
  5
67
102
{ACAD_REACTORS
330
16
102
}
330
16
100
AcDbVisualStyle
  2
JitterOff
 70
20
 90
2
 40
0.6
 62
7
290
0
291
1
  0
VISUALSTYLE
  5
68
102
{ACAD_REACTORS
330
16
102
}
330
16
100
AcDbVisualStyle
  2
Linepattern
 70
14
 90
2
 40
0.6
 62
7
290
0
291
1
  0
VISUALSTYLE
  5
69
102
{ACAD_REACTORS
330
16
102
}
330
16
100
AcDbVisualStyle
  2
Modeling
 70
10
 90
2
 40
0.6
 62
7
290
0
291
0
  0
VISUALSTYLE
  5
6A
102
{ACAD_REACTORS
330
16
102
}
330
16
100
AcDbVisualStyle
  2
OverhangOff
 70
21
 90
2
 40
0.6
 62
7
290
0
291
1
  0
VISUALSTYLE
  5
6B
102
{ACAD_REACTORS
330
16
102
}
330
16
100
AcDbVisualStyle
  2
Realistic
 70
8
 90
2
 40
0.6
 62
7
290
0
291
0
  0
VISUALSTYLE
  5
6C
102
{ACAD_REACTORS
330
16
102
}
330
16
100
AcDbVisualStyle
  2
Shaded
 70
27
 90
2
 40
0.6
 62
7
290
0
291
0
  0
VISUALSTYLE
  5
6D
102
{ACAD_REACTORS
330
16
102
}
330
16
100
AcDbVisualStyle
  2
Shaded with edges
 70
26
 90
2
 40
0.6
 62
7
290
0
291
0
  0
VISUALSTYLE
  5
6E
102
{ACAD_REACTORS
330
16
102
}
330
16
100
AcDbVisualStyle
  2
Shades of Gray
 70
23
 90
2
 40
0.6
 62
7
290
0
291
0
  0
VISUALSTYLE
  5
6F
102
{ACAD_REACTORS
330
16
102
}
330
16
100
AcDbVisualStyle
  2
Sketchy
 70
24
 90
1
 40
0.6
 62
7
290
0
291
0
  0
VISUALSTYLE
  5
70
102
{ACAD_REACTORS
330
16
102
}
330
16
100
AcDbVisualStyle
  2
Thicken
 70
13
 90
2
 40
0.6
 62
7
290
0
291
1
  0
VISUALSTYLE
  5
71
102
{ACAD_REACTORS
330
16
102
}
330
16
100
AcDbVisualStyle
  2
Wireframe
 70
5
 90
0
 40
0.6
 62
7
290
0
291
0
  0
VISUALSTYLE
  5
72
102
{ACAD_REACTORS
330
16
102
}
330
16
100
AcDbVisualStyle
  2
X-Ray
 70
25
 90
2
 40
0.5
 62
7
290
0
291
0
  0
DICTIONARYVAR
  5
BA
330
2D
100
DictionaryVariables
280
0
  1
1.1.0 @ 2024-03-26T01:33:49.989376+00:00
  0
ENDSEC
  0
EOF
