  0
SECTION
  2
HEADER
  9
$ACADVER
  1
AC1021
  9
$ACADMAINTVER
 70
25
  9
$DWGCODEPAGE
  3
ANSI_1252
  9
$LASTSAVEDBY
  1
ezdxf
  9
$INSBASE
 10
0.0
 20
0.0
 30
0.0
  9
$EXTMIN
 10
1e+20
 20
1e+20
 30
1e+20
  9
$EXTMAX
 10
-1e+20
 20
-1e+20
 30
-1e+20
  9
$LIMMIN
 10
0.0
 20
0.0
  9
$LIMMAX
 10
420.0
 20
297.0
  9
$ORTHOMODE
 70
0
  9
$REGENMODE
 70
1
  9
$FILLMODE
 70
1
  9
$QTEXTMODE
 70
0
  9
$MIRRTEXT
 70
1
  9
$LTSCALE
 40
1.0
  9
$ATTMODE
 70
1
  9
$TEXTSIZE
 40
2.5
  9
$TRACEWID
 40
1.0
  9
$TEXTSTYLE
  7
OpenSans
  9
$CLAYER
  8
0
  9
$CELTYPE
  6
ByLayer
  9
$CECOLOR
 62
256
  9
$CELTSCALE
 40
1.0
  9
$DISPSILH
 70
0
  9
$DIMSCALE
 40
1.0
  9
$DIMASZ
 40
0.175
  9
$DIMEXO
 40
0.125
  9
$DIMDLI
 40
3.75
  9
$DIMRND
 40
0.0
  9
$DIMDLE
 40
0.0
  9
$DIMEXE
 40
0.375
  9
$DIMTP
 40
0.0
  9
$DIMTM
 40
0.0
  9
$DIMTXT
 40
0.25
  9
$DIMCEN
 40
2.5
  9
$DIMTSZ
 40
0.0
  9
$DIMTOL
 70
0
  9
$DIMLIM
 70
0
  9
$DIMTIH
 70
0
  9
$DIMTOH
 70
0
  9
$DIMSE1
 70
0
  9
$DIMSE2
 70
0
  9
$DIMTAD
 70
1
  9
$DIMZIN
 70
12
  9
$DIMBLK
  1
ARCHTICK
  9
$DIMASO
 70
1
  9
$DIMSHO
 70
1
  9
$DIMPOST
  1

  9
$DIMAPOST
  1

  9
$DIMALT
 70
0
  9
$DIMALTD
 70
3
  9
$DIMALTF
 40
0.03937007874
  9
$DIMLFAC
 40
100.0
  9
$DIMTOFL
 70
1
  9
$DIMTVP
 40
0.0
  9
$DIMTIX
 70
0
  9
$DIMSOXD
 70
0
  9
$DIMSAH
 70
0
  9
$DIMBLK1
  1

  9
$DIMBLK2
  1

  9
$DIMSTYLE
  2
EZDXF
  9
$DIMCLRD
 70
0
  9
$DIMCLRE
 70
0
  9
$DIMCLRT
 70
0
  9
$DIMTFAC
 40
0.5
  9
$DIMGAP
 40
0.1
  9
$DIMJUST
 70
0
  9
$DIMSD1
 70
0
  9
$DIMSD2
 70
0
  9
$DIMTOLJ
 70
0
  9
$DIMTZIN
 70
8
  9
$DIMALTZ
 70
0
  9
$DIMALTTZ
 70
0
  9
$DIMUPT
 70
1
  9
$DIMDEC
 70
2
  9
$DIMTDEC
 70
2
  9
$DIMALTU
 70
2
  9
$DIMALTTD
 70
3
  9
$DIMTXSTY
  7
OpenSansCondensed-Light
  9
$DIMAUNIT
 70
0
  9
$DIMADEC
 70
2
  9
$DIMALTRND
 40
0.0
  9
$DIMAZIN
 70
3
  9
$DIMDSEP
 70
46
  9
$DIMATFIT
 70
3
  9
$DIMFRAC
 70
0
  9
$DIMLDRBLK
  1

  9
$DIMLUNIT
 70
2
  9
$DIMLWD
 70
-2
  9
$DIMLWE
 70
-2
  9
$DIMTMOVE
 70
2
  9
$DIMFXL
 40
1.0
  9
$DIMFXLON
 70
0
  9
$DIMJOGANG
 40
0.785398163397
  9
$DIMTFILL
 70
0
  9
$DIMTFILLCLR
 70
0
  9
$DIMARCSYM
 70
0
  9
$DIMLTYPE
  6

  9
$DIMLTEX1
  6

  9
$DIMLTEX2
  6

  9
$LUNITS
 70
2
  9
$LUPREC
 70
4
  9
$SKETCHINC
 40
1.0
  9
$FILLETRAD
 40
10.0
  9
$AUNITS
 70
0
  9
$AUPREC
 70
2
  9
$MENU
  1
.
  9
$ELEVATION
 40
0.0
  9
$PELEVATION
 40
0.0
  9
$THICKNESS
 40
0.0
  9
$LIMCHECK
 70
0
  9
$CHAMFERA
 40
0.0
  9
$CHAMFERB
 40
0.0
  9
$CHAMFERC
 40
0.0
  9
$CHAMFERD
 40
0.0
  9
$SKPOLY
 70
0
  9
$TDCREATE
 40
2460396.440138889
  9
$TDUCREATE
 40
2458532.153996898
  9
$TDUPDATE
 40
2460396.440138889
  9
$TDUUPDATE
 40
2458532.1544311
  9
$TDINDWG
 40
0.0
  9
$TDUSRTIMER
 40
0.0
  9
$USRTIMER
 70
1
  9
$ANGBASE
 50
0.0
  9
$ANGDIR
 70
0
  9
$PDMODE
 70
0
  9
$PDSIZE
 40
0.0
  9
$PLINEWID
 40
0.0
  9
$SPLFRAME
 70
0
  9
$SPLINETYPE
 70
6
  9
$SPLINESEGS
 70
8
  9
$HANDSEED
  5
BB
  9
$SURFTAB1
 70
6
  9
$SURFTAB2
 70
6
  9
$SURFTYPE
 70
6
  9
$SURFU
 70
6
  9
$SURFV
 70
6
  9
$UCSBASE
  2

  9
$UCSNAME
  2

  9
$UCSORG
 10
0.0
 20
0.0
 30
0.0
  9
$UCSXDIR
 10
1.0
 20
0.0
 30
0.0
  9
$UCSYDIR
 10
0.0
 20
1.0
 30
0.0
  9
$UCSORTHOREF
  2

  9
$UCSORTHOVIEW
 70
0
  9
$UCSORGTOP
 10
0.0
 20
0.0
 30
0.0
  9
$UCSORGBOTTOM
 10
0.0
 20
0.0
 30
0.0
  9
$UCSORGLEFT
 10
0.0
 20
0.0
 30
0.0
  9
$UCSORGRIGHT
 10
0.0
 20
0.0
 30
0.0
  9
$UCSORGFRONT
 10
0.0
 20
0.0
 30
0.0
  9
$UCSORGBACK
 10
0.0
 20
0.0
 30
0.0
  9
$PUCSBASE
  2

  9
$PUCSNAME
  2

  9
$PUCSORG
 10
0.0
 20
0.0
 30
0.0
  9
$PUCSXDIR
 10
1.0
 20
0.0
 30
0.0
  9
$PUCSYDIR
 10
0.0
 20
1.0
 30
0.0
  9
$PUCSORTHOREF
  2

  9
$PUCSORTHOVIEW
 70
0
  9
$PUCSORGTOP
 10
0.0
 20
0.0
 30
0.0
  9
$PUCSORGBOTTOM
 10
0.0
 20
0.0
 30
0.0
  9
$PUCSORGLEFT
 10
0.0
 20
0.0
 30
0.0
  9
$PUCSORGRIGHT
 10
0.0
 20
0.0
 30
0.0
  9
$PUCSORGFRONT
 10
0.0
 20
0.0
 30
0.0
  9
$PUCSORGBACK
 10
0.0
 20
0.0
 30
0.0
  9
$USERI1
 70
0
  9
$USERI2
 70
0
  9
$USERI3
 70
0
  9
$USERI4
 70
0
  9
$USERI5
 70
0
  9
$USERR1
 40
0.0
  9
$USERR2
 40
0.0
  9
$USERR3
 40
0.0
  9
$USERR4
 40
0.0
  9
$USERR5
 40
0.0
  9
$WORLDVIEW
 70
1
  9
$SHADEDGE
 70
3
  9
$SHADEDIF
 70
70
  9
$TILEMODE
 70
1
  9
$MAXACTVP
 70
64
  9
$PINSBASE
 10
0.0
 20
0.0
 30
0.0
  9
$PLIMCHECK
 70
0
  9
$PEXTMIN
 10
1e+20
 20
1e+20
 30
1e+20
  9
$PEXTMAX
 10
-1e+20
 20
-1e+20
 30
-1e+20
  9
$PLIMMIN
 10
0.0
 20
0.0
  9
$PLIMMAX
 10
420.0
 20
297.0
  9
$UNITMODE
 70
0
  9
$VISRETAIN
 70
1
  9
$PLINEGEN
 70
0
  9
$PSLTSCALE
 70
1
  9
$TREEDEPTH
 70
3020
  9
$CMLSTYLE
  2
Standard
  9
$CMLJUST
 70
0
  9
$CMLSCALE
 40
20.0
  9
$PROXYGRAPHICS
 70
1
  9
$MEASUREMENT
 70
1
  9
$CELWEIGHT
370
-1
  9
$ENDCAPS
280
0
  9
$JOINSTYLE
280
0
  9
$LWDISPLAY
290
0
  9
$INSUNITS
 70
6
  9
$HYPERLINKBASE
  1

  9
$STYLESHEET
  1

  9
$XEDIT
290
1
  9
$CEPSNTYPE
380
0
  9
$PSTYLEMODE
290
1
  9
$FINGERPRINTGUID
  2
{17DEF822-D485-4950-89EA-2EE55656480F}
  9
$VERSIONGUID
  2
{D8FC8F75-2594-4CA9-BC40-5F67665C5E7F}
  9
$EXTNAMES
290
1
  9
$PSVPSCALE
 40
0.0
  9
$OLESTARTUP
290
0
  9
$SORTENTS
280
127
  9
$INDEXCTL
280
0
  9
$HIDETEXT
280
1
  9
$XCLIPFRAME
290
0
  9
$HALOGAP
280
0
  9
$OBSCOLOR
 70
257
  9
$OBSLTYPE
280
0
  9
$INTERSECTIONDISPLAY
280
0
  9
$INTERSECTIONCOLOR
 70
257
  9
$DIMASSOC
280
2
  9
$PROJECTNAME
  1

  9
$CAMERADISPLAY
290
0
  9
$LENSLENGTH
 40
50.0
  9
$CAMERAHEIGHT
 40
0.0
  9
$STEPSPERSEC
 40
24.0
  9
$STEPSIZE
 40
100.0
  9
$3DDWFPREC
 40
2.0
  9
$PSOLWIDTH
 40
0.005
  9
$PSOLHEIGHT
 40
0.08
  9
$LOFTANG1
 40
1.570796326795
  9
$LOFTANG2
 40
1.570796326795
  9
$LOFTMAG1
 40
0.0
  9
$LOFTMAG2
 40
0.0
  9
$LOFTPARAM
 70
7
  9
$LOFTNORMALS
280
1
  9
$LATITUDE
 40
37.795
  9
$LONGITUDE
 40
-122.394
  9
$NORTHDIRECTION
 40
0.0
  9
$TIMEZONE
 70
-8000
  9
$LIGHTGLYPHDISPLAY
280
1
  9
$TILEMODELIGHTSYNCH
280
1
  9
$CMATERIAL
347
20
  9
$SOLIDHIST
280
0
  9
$SHOWHIST
280
1
  9
$DWFFRAME
280
2
  9
$DGNFRAME
280
2
  9
$REALWORLDSCALE
290
1
  9
$INTERFERECOLOR
 62
256
  9
$CSHADOW
280
0
  9
$SHADOWPLANELOCATION
 40
0.0
  0
ENDSEC
  0
SECTION
  2
CLASSES
  0
CLASS
  1
ACDBDICTIONARYWDFLT
  2
AcDbDictionaryWithDefault
  3
ObjectDBX Classes
 90
0
 91
0
280
0
281
0
  0
CLASS
  1
SUN
  2
AcDbSun
  3
SCENEOE
 90
1153
 91
0
280
0
281
0
  0
CLASS
  1
VISUALSTYLE
  2
AcDbVisualStyle
  3
ObjectDBX Classes
 90
4095
 91
0
280
0
281
0
  0
CLASS
  1
MATERIAL
  2
AcDbMaterial
  3
ObjectDBX Classes
 90
1153
 91
0
280
0
281
0
  0
CLASS
  1
SCALE
  2
AcDbScale
  3
ObjectDBX Classes
 90
1153
 91
0
280
0
281
0
  0
CLASS
  1
TABLESTYLE
  2
AcDbTableStyle
  3
ObjectDBX Classes
 90
4095
 91
0
280
0
281
0
  0
CLASS
  1
MLEADERSTYLE
  2
AcDbMLeaderStyle
  3
ACDB_MLEADERSTYLE_CLASS
 90
4095
 91
0
280
0
281
0
  0
CLASS
  1
DICTIONARYVAR
  2
AcDbDictionaryVar
  3
ObjectDBX Classes
 90
0
 91
0
280
0
281
0
  0
CLASS
  1
CELLSTYLEMAP
  2
AcDbCellStyleMap
  3
ObjectDBX Classes
 90
1152
 91
0
280
0
281
0
  0
CLASS
  1
MENTALRAYRENDERSETTINGS
  2
AcDbMentalRayRenderSettings
  3
SCENEOE
 90
1024
 91
0
280
0
281
0
  0
CLASS
  1
ACDBDETAILVIEWSTYLE
  2
AcDbDetailViewStyle
  3
ObjectDBX Classes
 90
1025
 91
0
280
0
281
0
  0
CLASS
  1
ACDBSECTIONVIEWSTYLE
  2
AcDbSectionViewStyle
  3
ObjectDBX Classes
 90
1025
 91
0
280
0
281
0
  0
CLASS
  1
RASTERVARIABLES
  2
AcDbRasterVariables
  3
ISM
 90
0
 91
0
280
0
281
0
  0
CLASS
  1
LAYOUT
  2
AcDbLayout
  3
ObjectDBX Classes
 90
0
 91
0
280
0
281
0
  0
CLASS
  1
ACDBPLACEHOLDER
  2
AcDbPlaceHolder
  3
ObjectDBX Classes
 90
0
 91
0
280
0
281
0
  0
ENDSEC
  0
SECTION
  2
TABLES
  0
TABLE
  2
VPORT
  5
8
330
0
100
AcDbSymbolTable
 70
1
  0
VPORT
  5
23
330
8
100
AcDbSymbolTableRecord
100
AcDbViewportTableRecord
  2
*Active
 70
0
 10
0.0
 20
0.0
 11
1.0
 21
1.0
 12
0.0
 22
0.0
 13
0.0
 23
0.0
 14
0.5
 24
0.5
 15
0.5
 25
0.5
 16
0.0
 26
0.0
 36
1.0
 17
0.0
 27
0.0
 37
0.0
 40
1000.0
 41
1.34
 42
50.0
 43
0.0
 44
0.0
 50
0.0
 51
0.0
 71
0
 72
1000
 73
1
 74
3
 75
0
 76
0
 77
0
 78
0
281
0
 65
0
146
0.0
  0
ENDTAB
  0
TABLE
  2
LTYPE
  5
2
330
0
100
AcDbSymbolTable
 70
21
  0
LTYPE
  5
24
330
2
100
AcDbSymbolTableRecord
100
AcDbLinetypeTableRecord
  2
ByBlock
 70
0
  3

 72
65
 73
0
 40
0.0
  0
LTYPE
  5
25
330
2
100
AcDbSymbolTableRecord
100
AcDbLinetypeTableRecord
  2
ByLayer
 70
0
  3

 72
65
 73
0
 40
0.0
  0
LTYPE
  5
26
330
2
100
AcDbSymbolTableRecord
100
AcDbLinetypeTableRecord
  2
Continuous
 70
0
  3

 72
65
 73
0
 40
0.0
  0
LTYPE
  5
2F
330
2
100
AcDbSymbolTableRecord
100
AcDbLinetypeTableRecord
  2
CENTER
 70
0
  3
Center ____ _ ____ _ ____ _ ____ _ ____ _ ____
 72
65
 73
4
 40
5.08
 49
3.175
 74
0
 49
-0.635
 74
0
 49
0.635
 74
0
 49
-0.635
 74
0
  0
LTYPE
  5
30
330
2
100
AcDbSymbolTableRecord
100
AcDbLinetypeTableRecord
  2
CENTERX2
 70
0
  3
Center (2x) ________  __  ________  __  ________
 72
65
 73
4
 40
8.89
 49
6.35
 74
0
 49
-0.635
 74
0
 49
1.27
 74
0
 49
-0.635
 74
0
  0
LTYPE
  5
31
330
2
100
AcDbSymbolTableRecord
100
AcDbLinetypeTableRecord
  2
CENTER2
 70
0
  3
Center (.5x) ____ _ ____ _ ____ _ ____ _ ____
 72
65
 73
4
 40
2.54
 49
1.587
 74
0
 49
-0.318
 74
0
 49
0.318
 74
0
 49
-0.318
 74
0
  0
LTYPE
  5
32
330
2
100
AcDbSymbolTableRecord
100
AcDbLinetypeTableRecord
  2
DASHED
 70
0
  3
Dashed __ __ __ __ __ __ __ __ __ __ __ __ __ _
 72
65
 73
2
 40
1.524
 49
1.27
 74
0
 49
-0.254
 74
0
  0
LTYPE
  5
33
330
2
100
AcDbSymbolTableRecord
100
AcDbLinetypeTableRecord
  2
DASHEDX2
 70
0
  3
Dashed (2x) ____  ____  ____  ____  ____  ____
 72
65
 73
2
 40
3.048
 49
2.54
 74
0
 49
-0.508
 74
0
  0
LTYPE
  5
34
330
2
100
AcDbSymbolTableRecord
100
AcDbLinetypeTableRecord
  2
DASHED2
 70
0
  3
Dashed (.5x) _ _ _ _ _ _ _ _ _ _ _ _ _ _
 72
65
 73
2
 40
0.762
 49
0.635
 74
0
 49
-0.127
 74
0
  0
LTYPE
  5
35
330
2
100
AcDbSymbolTableRecord
100
AcDbLinetypeTableRecord
  2
PHANTOM
 70
0
  3
Phantom ______  __  __  ______  __  __  ______
 72
65
 73
6
 40
6.35
 49
3.175
 74
0
 49
-0.635
 74
0
 49
0.635
 74
0
 49
-0.635
 74
0
 49
0.635
 74
0
 49
-0.635
 74
0
  0
LTYPE
  5
36
330
2
100
AcDbSymbolTableRecord
100
AcDbLinetypeTableRecord
  2
PHANTOMX2
 70
0
  3
Phantom (2x)____________    ____    ____    ____________
 72
65
 73
6
 40
10.795
 49
6.35
 74
0
 49
-0.635
 74
0
 49
1.27
 74
0
 49
-0.635
 74
0
 49
1.27
 74
0
 49
-0.635
 74
0
  0
LTYPE
  5
37
330
2
100
AcDbSymbolTableRecord
100
AcDbLinetypeTableRecord
  2
PHANTOM2
 70
0
  3
Phantom (.5x) ___ _ _ ___ _ _ ___ _ _ ___ _ _ ___
 72
65
 73
6
 40
3.175
 49
1.587
 74
0
 49
-0.318
 74
0
 49
0.318
 74
0
 49
-0.318
 74
0
 49
0.318
 74
0
 49
-0.318
 74
0
  0
LTYPE
  5
38
330
2
100
AcDbSymbolTableRecord
100
AcDbLinetypeTableRecord
  2
DASHDOT
 70
0
  3
Dash dot __ . __ . __ . __ . __ . __ . __ . __
 72
65
 73
4
 40
3.556
 49
2.54
 74
0
 49
-0.508
 74
0
 49
0.0
 74
0
 49
-0.508
 74
0
  0
LTYPE
  5
39
330
2
100
AcDbSymbolTableRecord
100
AcDbLinetypeTableRecord
  2
DASHDOTX2
 70
0
  3
Dash dot (2x) ____  .  ____  .  ____  .  ____
 72
65
 73
4
 40
6.096
 49
5.08
 74
0
 49
-0.508
 74
0
 49
0.0
 74
0
 49
-0.508
 74
0
  0
LTYPE
  5
3A
330
2
100
AcDbSymbolTableRecord
100
AcDbLinetypeTableRecord
  2
DASHDOT2
 70
0
  3
Dash dot (.5x) _ . _ . _ . _ . _ . _ . _ . _
 72
65
 73
4
 40
1.778
 49
1.27
 74
0
 49
-0.254
 74
0
 49
0.0
 74
0
 49
-0.254
 74
0
  0
LTYPE
  5
3B
330
2
100
AcDbSymbolTableRecord
100
AcDbLinetypeTableRecord
  2
DOT
 70
0
  3
Dot .  .  .  .  .  .  .  .  .  .  .  .  .  .  .  .
 72
65
 73
2
 40
0.508
 49
0.0
 74
0
 49
-0.508
 74
0
  0
LTYPE
  5
3C
330
2
100
AcDbSymbolTableRecord
100
AcDbLinetypeTableRecord
  2
DOTX2
 70
0
  3
Dot (2x) .    .    .    .    .    .    .    . 
 72
65
 73
2
 40
1.016
 49
0.0
 74
0
 49
-1.016
 74
0
  0
LTYPE
  5
3D
330
2
100
AcDbSymbolTableRecord
100
AcDbLinetypeTableRecord
  2
DOT2
 70
0
  3
Dot (.5) . . . . . . . . . . . . . . . . . . . 
 72
65
 73
2
 40
0.254
 49
0.0
 74
0
 49
-0.254
 74
0
  0
LTYPE
  5
3E
330
2
100
AcDbSymbolTableRecord
100
AcDbLinetypeTableRecord
  2
DIVIDE
 70
0
  3
Divide __ . . __ . . __ . . __ . . __ . . __
 72
65
 73
6
 40
4.064
 49
2.54
 74
0
 49
-0.508
 74
0
 49
0.0
 74
0
 49
-0.508
 74
0
 49
0.0
 74
0
 49
-0.508
 74
0
  0
LTYPE
  5
3F
330
2
100
AcDbSymbolTableRecord
100
AcDbLinetypeTableRecord
  2
DIVIDEX2
 70
0
  3
Divide (2x) ____  . .  ____  . .  ____  . .  ____
 72
65
 73
6
 40
6.604
 49
5.08
 74
0
 49
-0.508
 74
0
 49
0.0
 74
0
 49
-0.508
 74
0
 49
0.0
 74
0
 49
-0.508
 74
0
  0
LTYPE
  5
40
330
2
100
AcDbSymbolTableRecord
100
AcDbLinetypeTableRecord
  2
DIVIDE2
 70
0
  3
Divide(.5x) _ . _ . _ . _ . _ . _ . _ . _
 72
65
 73
6
 40
2.032
 49
1.27
 74
0
 49
-0.254
 74
0
 49
0.0
 74
0
 49
-0.254
 74
0
 49
0.0
 74
0
 49
-0.254
 74
0
  0
ENDTAB
  0
TABLE
  2
LAYER
  5
1
330
0
100
AcDbSymbolTable
 70
3
  0
LAYER
  5
27
330
1
100
AcDbSymbolTableRecord
100
AcDbLayerTableRecord
  2
0
 70
0
 62
7
  6
Continuous
370
-3
390
13
347
21
  0
LAYER
  5
28
330
1
100
AcDbSymbolTableRecord
100
AcDbLayerTableRecord
  2
Defpoints
 70
0
 62
7
  6
Continuous
290
0
370
-3
390
13
347
21
  0
LAYER
  5
8A
330
1
100
AcDbSymbolTableRecord
100
AcDbLayerTableRecord
  2
Layer
 70
0
 62
1
  6
Continuous
370
50
390
13
347
21
  0
ENDTAB
  0
TABLE
  2
STYLE
  5
5
330
0
100
AcDbSymbolTable
 70
26
  0
STYLE
  5
29
330
5
100
AcDbSymbolTableRecord
100
AcDbTextStyleTableRecord
  2
Standard
 70
0
 40
0.0
 41
1.0
 50
0.0
 71
0
 42
2.5
  3
txt
  4

  0
STYLE
  5
41
330
5
100
AcDbSymbolTableRecord
100
AcDbTextStyleTableRecord
  2
OpenSans-Light
 70
0
 40
0.0
 41
1.0
 50
0.0
 71
0
 42
2.5
  3
OpenSans-Light.ttf
  4

  0
STYLE
  5
42
330
5
100
AcDbSymbolTableRecord
100
AcDbTextStyleTableRecord
  2
OpenSans-Light-Italic
 70
0
 40
0.0
 41
1.0
 50
0.0
 71
0
 42
2.5
  3
OpenSans-LightItalic.ttf
  4

  0
STYLE
  5
43
330
5
100
AcDbSymbolTableRecord
100
AcDbTextStyleTableRecord
  2
OpenSans
 70
0
 40
0.0
 41
1.0
 50
0.0
 71
0
 42
2.5
  3
OpenSans-Regular.ttf
  4

  0
STYLE
  5
44
330
5
100
AcDbSymbolTableRecord
100
AcDbTextStyleTableRecord
  2
OpenSans-Italic
 70
0
 40
0.0
 41
1.0
 50
0.0
 71
0
 42
2.5
  3
OpenSans-Italic.ttf
  4

  0
STYLE
  5
45
330
5
100
AcDbSymbolTableRecord
100
AcDbTextStyleTableRecord
  2
OpenSans-SemiBold
 70
0
 40
0.0
 41
1.0
 50
0.0
 71
0
 42
2.5
  3
OpenSans-SemiBold.ttf
  4

  0
STYLE
  5
46
330
5
100
AcDbSymbolTableRecord
100
AcDbTextStyleTableRecord
  2
OpenSans-SemiBoldItalic
 70
0
 40
0.0
 41
1.0
 50
0.0
 71
0
 42
2.5
  3
OpenSans-SemiBoldItalic.ttf
  4

  0
STYLE
  5
47
330
5
100
AcDbSymbolTableRecord
100
AcDbTextStyleTableRecord
  2
OpenSans-Bold
 70
0
 40
0.0
 41
1.0
 50
0.0
 71
0
 42
2.5
  3
OpenSans-Bold.ttf
  4

  0
STYLE
  5
48
330
5
100
AcDbSymbolTableRecord
100
AcDbTextStyleTableRecord
  2
OpenSans-BoldItalic
 70
0
 40
0.0
 41
1.0
 50
0.0
 71
0
 42
2.5
  3
OpenSans-BoldItalic.ttf
  4

  0
STYLE
  5
49
330
5
100
AcDbSymbolTableRecord
100
AcDbTextStyleTableRecord
  2
OpenSans-ExtraBold
 70
0
 40
0.0
 41
1.0
 50
0.0
 71
0
 42
2.5
  3
OpenSans-ExtraBold.ttf
  4

  0
STYLE
  5
4A
330
5
100
AcDbSymbolTableRecord
100
AcDbTextStyleTableRecord
  2
OpenSans-ExtraBoldItalic
 70
0
 40
0.0
 41
1.0
 50
0.0
 71
0
 42
2.5
  3
OpenSans-ExtraBoldItalic.ttf
  4

  0
STYLE
  5
4B
330
5
100
AcDbSymbolTableRecord
100
AcDbTextStyleTableRecord
  2
OpenSansCondensed-Bold
 70
0
 40
0.0
 41
1.0
 50
0.0
 71
0
 42
2.5
  3
OpenSansCondensed-Bold.ttf
  4

  0
STYLE
  5
4C
330
5
100
AcDbSymbolTableRecord
100
AcDbTextStyleTableRecord
  2
OpenSansCondensed-Light
 70
0
 40
0.0
 41
1.0
 50
0.0
 71
0
 42
2.5
  3
OpenSansCondensed-Light.ttf
  4

  0
STYLE
  5
4D
330
5
100
AcDbSymbolTableRecord
100
AcDbTextStyleTableRecord
  2
OpenSansCondensed-Italic
 70
0
 40
0.0
 41
1.0
 50
0.0
 71
0
 42
2.5
  3
OpenSansCondensed-LightItalic.ttf
  4

  0
STYLE
  5
4E
330
5
100
AcDbSymbolTableRecord
100
AcDbTextStyleTableRecord
  2
LiberationSans
 70
0
 40
0.0
 41
1.0
 50
0.0
 71
0
 42
2.5
  3
LiberationSans-Regular.ttf
  4

  0
STYLE
  5
4F
330
5
100
AcDbSymbolTableRecord
100
AcDbTextStyleTableRecord
  2
LiberationSans-Bold
 70
0
 40
0.0
 41
1.0
 50
0.0
 71
0
 42
2.5
  3
LiberationSans-Bold.ttf
  4

  0
STYLE
  5
50
330
5
100
AcDbSymbolTableRecord
100
AcDbTextStyleTableRecord
  2
LiberationSans-BoldItalic
 70
0
 40
0.0
 41
1.0
 50
0.0
 71
0
 42
2.5
  3
LiberationSans-BoldItalic.ttf
  4

  0
STYLE
  5
51
330
5
100
AcDbSymbolTableRecord
100
AcDbTextStyleTableRecord
  2
LiberationSans-Italic
 70
0
 40
0.0
 41
1.0
 50
0.0
 71
0
 42
2.5
  3
LiberationSans-Italic.ttf
  4

  0
STYLE
  5
52
330
5
100
AcDbSymbolTableRecord
100
AcDbTextStyleTableRecord
  2
LiberationSerif
 70
0
 40
0.0
 41
1.0
 50
0.0
 71
0
 42
2.5
  3
LiberationSerif-Regular.ttf
  4

  0
STYLE
  5
53
330
5
100
AcDbSymbolTableRecord
100
AcDbTextStyleTableRecord
  2
LiberationSerif-Bold
 70
0
 40
0.0
 41
1.0
 50
0.0
 71
0
 42
2.5
  3
LiberationSerif-Bold.ttf
  4

  0
STYLE
  5
54
330
5
100
AcDbSymbolTableRecord
100
AcDbTextStyleTableRecord
  2
LiberationSerif-BoldItalic
 70
0
 40
0.0
 41
1.0
 50
0.0
 71
0
 42
2.5
  3
LiberationSerif-BoldItalic.ttf
  4

  0
STYLE
  5
55
330
5
100
AcDbSymbolTableRecord
100
AcDbTextStyleTableRecord
  2
LiberationSerif-Italic
 70
0
 40
0.0
 41
1.0
 50
0.0
 71
0
 42
2.5
  3
LiberationSerif-Italic.ttf
  4

  0
STYLE
  5
56
330
5
100
AcDbSymbolTableRecord
100
AcDbTextStyleTableRecord
  2
LiberationMono
 70
0
 40
0.0
 41
1.0
 50
0.0
 71
0
 42
2.5
  3
LiberationMono-Regular.ttf
  4

  0
STYLE
  5
57
330
5
100
AcDbSymbolTableRecord
100
AcDbTextStyleTableRecord
  2
LiberationMono-Bold
 70
0
 40
0.0
 41
1.0
 50
0.0
 71
0
 42
2.5
  3
LiberationMono-Bold.ttf
  4

  0
STYLE
  5
58
330
5
100
AcDbSymbolTableRecord
100
AcDbTextStyleTableRecord
  2
LiberationMono-BoldItalic
 70
0
 40
0.0
 41
1.0
 50
0.0
 71
0
 42
2.5
  3
LiberationMono-BoldItalic.ttf
  4

  0
STYLE
  5
59
330
5
100
AcDbSymbolTableRecord
100
AcDbTextStyleTableRecord
  2
LiberationMono-Italic
 70
0
 40
0.0
 41
1.0
 50
0.0
 71
0
 42
2.5
  3
LiberationMono-Italic.ttf
  4

  0
ENDTAB
  0
TABLE
  2
VIEW
  5
7
330
0
100
AcDbSymbolTable
 70
0
  0
ENDTAB
  0
TABLE
  2
UCS
  5
6
330
0
100
AcDbSymbolTable
 70
0
  0
ENDTAB
  0
TABLE
  2
APPID
  5
3
330
0
100
AcDbSymbolTable
 70
3
  0
APPID
  5
2A
330
3
100
AcDbSymbolTableRecord
100
AcDbRegAppTableRecord
  2
ACAD
 70
0
  0
APPID
  5
B8
330
3
100
AcDbSymbolTableRecord
100
AcDbRegAppTableRecord
  2
HATCHBACKGROUNDCOLOR
 70
0
  0
APPID
  5
B9
330
3
100
AcDbSymbolTableRecord
100
AcDbRegAppTableRecord
  2
EZDXF
 70
0
  0
ENDTAB
  0
TABLE
  2
DIMSTYLE
  5
4
330
0
100
AcDbSymbolTable
 70
12
100
AcDbDimStyleTable
  0
DIMSTYLE
105
2B
330
4
100
AcDbSymbolTableRecord
100
AcDbDimStyleTableRecord
  2
Standard
 70
0
 40
1.0
 41
2.5
 42
0.625
 43
3.75
 44
1.25
 45
0.0
 46
0.0
 47
0.0
 48
0.0
 49
2.5
140
2.5
141
2.5
142
0.0
143
0.03937007874
144
1.0
145
0.0
146
1.0
147
0.625
148
0.0
 69
0
 70
0
 71
0
 72
0
 73
0
 74
0
 75
0
 76
0
 77
1
 78
8
 79
3
170
0
171
3
172
1
173
0
174
0
175
0
176
0
177
0
178
0
179
2
271
2
272
2
273
2
274
3
275
0
276
0
277
2
278
44
279
0
280
0
281
0
282
0
283
0
284
8
285
0
286
0
288
0
289
3
290
0
371
-2
372
-2
  0
DIMSTYLE
105
73
330
4
100
AcDbSymbolTableRecord
100
AcDbDimStyleTableRecord
  2
EZDXF
 70
0
 40
1.0
 41
0.175
 42
0.125
 43
3.75
 44
0.375
 45
0.0
 46
0.0
 47
0.0
 48
0.0
 49
2.5
140
0.25
141
2.5
142
0.0
143
0.03937007874
144
100.0
145
0.0
146
0.5
147
0.1
148
0.0
 69
0
 70
0
 71
0
 72
0
 73
0
 74
0
 75
0
 76
0
 77
1
 78
12
 79
3
170
0
171
3
172
1
173
0
174
0
175
0
176
0
177
0
178
0
179
2
271
2
272
2
273
2
274
3
275
0
276
0
277
2
278
46
279
2
280
0
281
0
282
0
283
0
284
8
285
0
286
0
288
1
289
3
290
0
340
4C
342
74
371
-2
372
-2
  0
DIMSTYLE
105
7C
330
4
100
AcDbSymbolTableRecord
100
AcDbDimStyleTableRecord
  2
EZ_M_100_H25_CM
 70
0
 40
1.0
 41
0.25
 42
0.125
 43
3.75
 44
0.375
 45
0.0
 46
0.0
 47
0.0
 48
0.0
 49
2.5
140
0.25
141
2.5
142
0.125
143
0.03937007874
144
100.0
145
0.0
146
0.5
147
0.1
148
0.0
 69
0
 70
0
 71
0
 72
0
 73
0
 74
0
 75
0
 76
0
 77
1
 78
12
 79
3
170
0
171
3
172
1
173
0
174
0
175
0
176
0
177
0
178
0
179
2
271
2
272
2
273
2
274
3
275
0
276
0
277
2
278
46
279
2
280
0
281
0
282
0
283
0
284
8
285
0
286
0
288
1
289
3
290
0
340
4C
371
-2
372
-2
  0
DIMSTYLE
105
7D
330
4
100
AcDbSymbolTableRecord
100
AcDbDimStyleTableRecord
  2
EZ_M_50_H25_CM
 70
0
 40
1.0
 41
0.125
 42
0.0625
 43
3.75
 44
0.1875
 45
0.0
 46
0.0
 47
0.0
 48
0.0
 49
2.5
140
0.125
141
2.5
142
0.0625
143
0.03937007874
144
100.0
145
0.0
146
0.5
147
0.05
148
0.0
 69
0
 70
0
 71
0
 72
0
 73
0
 74
0
 75
0
 76
0
 77
1
 78
12
 79
3
170
0
171
3
172
1
173
0
174
0
175
0
176
0
177
0
178
0
179
2
271
2
272
2
273
2
274
3
275
0
276
0
277
2
278
46
279
2
280
0
281
0
282
0
283
0
284
8
285
0
286
0
288
1
289
3
290
0
340
4C
371
-2
372
-2
  0
DIMSTYLE
105
7E
330
4
100
AcDbSymbolTableRecord
100
AcDbDimStyleTableRecord
  2
EZ_M_25_H25_CM
 70
0
 40
1.0
 41
0.0625
 42
0.03125
 43
3.75
 44
0.09375
 45
0.0
 46
0.0
 47
0.0
 48
0.0
 49
2.5
140
0.0625
141
2.5
142
0.03125
143
0.03937007874
144
100.0
145
0.0
146
0.5
147
0.025
148
0.0
 69
0
 70
0
 71
0
 72
0
 73
0
 74
0
 75
0
 76
0
 77
1
 78
12
 79
3
170
0
171
3
172
1
173
0
174
0
175
0
176
0
177
0
178
0
179
2
271
2
272
2
273
2
274
3
275
0
276
0
277
2
278
46
279
2
280
0
281
0
282
0
283
0
284
8
285
0
286
0
288
1
289
3
290
0
340
4C
371
-2
372
-2
  0
DIMSTYLE
105
7F
330
4
100
AcDbSymbolTableRecord
100
AcDbDimStyleTableRecord
  2
EZ_M_20_H25_CM
 70
0
 40
1.0
 41
0.05
 42
0.025
 43
3.75
 44
0.07500000000000001
 45
0.0
 46
0.0
 47
0.0
 48
0.0
 49
2.5
140
0.05
141
2.5
142
0.025
143
0.03937007874
144
100.0
145
0.0
146
0.5
147
0.020000000000000004
148
0.0
 69
0
 70
0
 71
0
 72
0
 73
0
 74
0
 75
0
 76
0
 77
1
 78
12
 79
3
170
0
171
3
172
1
173
0
174
0
175
0
176
0
177
0
178
0
179
2
271
2
272
2
273
2
274
3
275
0
276
0
277
2
278
46
279
2
280
0
281
0
282
0
283
0
284
8
285
0
286
0
288
1
289
3
290
0
340
4C
371
-2
372
-2
  0
DIMSTYLE
105
80
330
4
100
AcDbSymbolTableRecord
100
AcDbDimStyleTableRecord
  2
EZ_M_10_H25_CM
 70
0
 40
1.0
 41
0.025
 42
0.0125
 43
3.75
 44
0.037500000000000006
 45
0.0
 46
0.0
 47
0.0
 48
0.0
 49
2.5
140
0.025
141
2.5
142
0.0125
143
0.03937007874
144
100.0
145
0.0
146
0.5
147
0.010000000000000002
148
0.0
 69
0
 70
0
 71
0
 72
0
 73
0
 74
0
 75
0
 76
0
 77
1
 78
12
 79
3
170
0
171
3
172
1
173
0
174
0
175
0
176
0
177
0
178
0
179
2
271
2
272
2
273
2
274
3
275
0
276
0
277
2
278
46
279
2
280
0
281
0
282
0
283
0
284
8
285
0
286
0
288
1
289
3
290
0
340
4C
371
-2
372
-2
  0
DIMSTYLE
105
81
330
4
100
AcDbSymbolTableRecord
100
AcDbDimStyleTableRecord
  2
EZ_M_5_H25_CM
 70
0
 40
1.0
 41
0.0125
 42
0.00625
 43
3.75
 44
0.018750000000000003
 45
0.0
 46
0.0
 47
0.0
 48
0.0
 49
2.5
140
0.0125
141
2.5
142
0.00625
143
0.03937007874
144
100.0
145
0.0
146
0.5
147
0.005000000000000001
148
0.0
 69
0
 70
0
 71
0
 72
0
 73
0
 74
0
 75
0
 76
0
 77
1
 78
12
 79
3
170
0
171
3
172
1
173
0
174
0
175
0
176
0
177
0
178
0
179
2
271
2
272
2
273
2
274
3
275
0
276
0
277
2
278
46
279
2
280
0
281
0
282
0
283
0
284
8
285
0
286
0
288
1
289
3
290
0
340
4C
371
-2
372
-2
  0
DIMSTYLE
105
82
330
4
100
AcDbSymbolTableRecord
100
AcDbDimStyleTableRecord
  2
EZ_M_1_H25_CM
 70
0
 40
1.0
 41
0.0025
 42
0.00125
 43
3.75
 44
0.00375
 45
0.0
 46
0.0
 47
0.0
 48
0.0
 49
2.5
140
0.0025
141
2.5
142
0.00125
143
0.03937007874
144
100.0
145
0.0
146
0.5
147
0.001
148
0.0
 69
0
 70
0
 71
0
 72
0
 73
0
 74
0
 75
0
 76
0
 77
1
 78
12
 79
3
170
0
171
3
172
1
173
0
174
0
175
0
176
0
177
0
178
0
179
2
271
2
272
2
273
2
274
3
275
0
276
0
277
2
278
46
279
2
280
0
281
0
282
0
283
0
284
8
285
0
286
0
288
1
289
3
290
0
340
4C
371
-2
372
-2
  0
DIMSTYLE
105
83
330
4
100
AcDbSymbolTableRecord
100
AcDbDimStyleTableRecord
  2
EZ_RADIUS
 70
0
 40
1.0
 41
0.25
 42
0.125
 43
3.75
 44
0.375
 45
0.0
 46
0.0
 47
0.0
 48
0.0
 49
2.5
140
0.25
141
0.0
142
0.0
143
0.03937007874
144
100.0
145
0.0
146
0.5
147
0.1
148
0.0
 69
0
 70
0
 71
0
 72
0
 73
0
 74
0
 75
0
 76
0
 77
1
 78
12
 79
3
170
0
171
3
172
0
173
0
174
0
175
0
176
0
177
0
178
0
179
2
271
2
272
2
273
2
274
3
275
0
276
0
277
2
278
46
279
1
280
0
281
0
282
0
283
0
284
8
285
0
286
0
288
1
289
3
290
0
340
4C
342
84
371
-2
372
-2
  0
DIMSTYLE
105
88
330
4
100
AcDbSymbolTableRecord
100
AcDbDimStyleTableRecord
  2
EZ_RADIUS_INSIDE
 70
0
 40
1.0
 41
0.25
 42
0.125
 43
3.75
 44
0.375
 45
0.0
 46
0.0
 47
0.0
 48
0.0
 49
2.5
140
0.25
141
0.0
142
0.0
143
0.03937007874
144
100.0
145
0.0
146
0.5
147
0.1
148
0.0
 69
0
 70
0
 71
0
 72
0
 73
0
 74
0
 75
0
 76
0
 77
0
 78
12
 79
3
170
0
171
3
172
0
173
0
174
1
175
0
176
0
177
0
178
0
179
2
271
2
272
2
273
2
274
3
275
0
276
0
277
2
278
46
279
0
280
0
281
0
282
0
283
0
284
8
285
0
286
0
288
1
289
0
290
0
340
4C
342
84
371
-2
372
-2
  0
DIMSTYLE
105
89
330
4
100
AcDbSymbolTableRecord
100
AcDbDimStyleTableRecord
  2
EZ_CURVED
 70
0
 40
1.0
 41
0.25
 42
0.125
 43
3.75
 44
0.375
 45
0.0
 46
0.0
 47
0.0
 48
0.0
 49
2.5
140
0.25
141
2.5
142
0.0
143
0.03937007874
144
100.0
145
0.0
146
0.5
147
0.1
148
0.0
 69
0
 70
0
 71
0
 72
0
 73
0
 74
0
 75
0
 76
0
 77
1
 78
12
 79
2
 90
2
170
0
171
3
172
1
173
0
174
0
175
0
176
0
177
0
178
0
179
2
271
2
272
2
273
2
274
3
275
0
276
0
277
2
278
46
279
2
280
0
281
0
282
0
283
0
284
8
285
0
286
0
288
1
289
3
290
0
340
4C
371
-2
372
-2
  0
ENDTAB
  0
TABLE
  2
BLOCK_RECORD
  5
9
330
0
100
AcDbSymbolTable
 70
5
  0
BLOCK_RECORD
  5
17
330
9
100
AcDbSymbolTableRecord
100
AcDbBlockTableRecord
  2
*Model_Space
340
1A
 70
0
280
1
281
0
  0
BLOCK_RECORD
  5
1B
330
9
100
AcDbSymbolTableRecord
100
AcDbBlockTableRecord
  2
*Paper_Space
340
1E
 70
0
280
1
281
0
  0
BLOCK_RECORD
  5
74
330
9
100
AcDbSymbolTableRecord
100
AcDbBlockTableRecord
  2
_ARCHTICK
340
0
 70
0
280
1
281
0
  0
BLOCK_RECORD
  5
78
330
9
100
AcDbSymbolTableRecord
100
AcDbBlockTableRecord
  2
_CLOSEDFILLED
340
0
 70
0
280
1
281
0
  0
BLOCK_RECORD
  5
84
330
9
100
AcDbSymbolTableRecord
100
AcDbBlockTableRecord
  2
_CLOSEDBLANK
340
0
 70
0
280
1
281
0
  0
ENDTAB
  0
ENDSEC
  0
SECTION
  2
BLOCKS
  0
BLOCK
  5
18
330
17
100
AcDbEntity
  8
0
100
AcDbBlockBegin
  2
*Model_Space
 70
0
 10
0.0
 20
0.0
 30
0.0
  3
*Model_Space
  1

  0
ENDBLK
  5
19
330
17
100
AcDbEntity
  8
0
100
AcDbBlockEnd
  0
BLOCK
  5
1C
330
1B
100
AcDbEntity
  8
0
100
AcDbBlockBegin
  2
*Paper_Space
 70
0
 10
0.0
 20
0.0
 30
0.0
  3
*Paper_Space
  1

  0
ENDBLK
  5
1D
330
1B
100
AcDbEntity
  8
0
100
AcDbBlockEnd
  0
BLOCK
  5
75
330
74
100
AcDbEntity
  8
0
100
AcDbBlockBegin
  2
_ARCHTICK
 70
0
 10
0.0
 20
0.0
 30
0.0
  3
_ARCHTICK
  1

  0
LWPOLYLINE
  5
77
330
74
100
AcDbEntity
  8
0
  6
BYBLOCK
 62
0
100
AcDbPolyline
 90
2
 70
0
 43
0.15
 10
-0.5
 20
-0.5000000000000001
 10
0.5000000000000001
 20
0.5
  0
ENDBLK
  5
76
330
74
100
AcDbEntity
  8
0
100
AcDbBlockEnd
  0
BLOCK
  5
79
330
78
100
AcDbEntity
  8
0
100
AcDbBlockBegin
  2
_CLOSEDFILLED
 70
0
 10
0.0
 20
0.0
 30
0.0
  3
_CLOSEDFILLED
  1

  0
SOLID
  5
7B
330
78
100
AcDbEntity
  8
0
  6
BYBLOCK
 62
0
100
AcDbTrace
 10
-1.0
 20
0.1643989837240255
 30
0.0
 11
0.0
 21
0.0
 31
0.0
 12
-1.0
 22
-0.1643989837240255
 32
0.0
 13
-1.0
 23
-0.1643989837240255
 33
0.0
  0
ENDBLK
  5
7A
330
78
100
AcDbEntity
  8
0
100
AcDbBlockEnd
  0
BLOCK
  5
85
330
84
100
AcDbEntity
  8
0
100
AcDbBlockBegin
  2
_CLOSEDBLANK
 70
0
 10
0.0
 20
0.0
 30
0.0
  3
_CLOSEDBLANK
  1

  0
LWPOLYLINE
  5
87
330
84
100
AcDbEntity
  8
0
  6
BYBLOCK
 62
0
100
AcDbPolyline
 90
3
 70
1
 10
-1.0
 20
0.1643989837240255
 10
0.0
 20
0.0
 10
-1.0
 20
-0.1643989837240255
  0
ENDBLK
  5
86
330
84
100
AcDbEntity
  8
0
100
AcDbBlockEnd
  0
ENDSEC
  0
SECTION
  2
ENTITIES
  0
LWPOLYLINE
  5
8B
330
17
100
AcDbEntity
  8
Layer
100
AcDbPolyline
 90
303
 70
1
 10
957.9154879001097
 20
3.678523819317064
 10
955.050136624006
 20
4.844824359766832
 10
950.4354576197858
 20
6.63343212408401
 10
945.4454494341262
 20
8.6082828224841
 10
939.993409463757
 20
10.728174893400592
 10
934.0456355645325
 20
12.997960526961094
 10
927.6474244357548
 20
15.438439237438871
 10
920.8758374254852
 20
18.034338685939858
 10
913.7898796867637
 20
20.7385570880421
 10
906.5001635815948
 20
23.516952364907823
 10
899.1401512627016
 20
26.294466977434865
 10
891.717249507266
 20
29.040794818821297
 10
884.1935308949563
 20
31.883120301398094
 10
876.5829466467559
 20
34.770344898651956
 10
868.8397761030618
 20
37.64815784605641
 10
860.9707738194809
 20
40.56073456310554
 10
852.96694352858
 20
43.485886883859855
 10
844.8113025240975
 20
46.477882051557614
 10
836.525699395095
 20
49.51213974116256
 10
828.1454962425962
 20
52.57402125094086
 10
819.7053065976515
 20
55.654475061190254
 10
811.2381137684939
 20
58.74446376295877
 10
802.7670926886224
 20
61.82906936966164
 10
794.298101024574
 20
64.9004575578198
 10
785.8320172983898
 20
67.95722897578449
 10
777.3716375636396
 20
70.99899521235994
 10
768.9268442078269
 20
74.02445206042063
 10
760.5143016384648
 20
77.0250820583442
 10
752.134532116734
 20
79.99152823362445
 10
743.7713016127617
 20
82.92494732815764
 10
735.4182899414409
 20
85.83101611603762
 10
727.0832496064813
 20
88.70820720344095
 10
722.958225760711
 20
90.11899756206445
 10
722.6184403738633
 20
89.12549572971346
 10
718.4335494920568
 20
90.55676972703814
 10
710.1413244255414
 20
93.36223136302434
 10
701.8608644080176
 20
96.13136861831374
 10
693.585893806151
 20
98.86484522638247
 10
685.310706281455
 20
101.56517226197066
 10
677.0362565556767
 20
104.23628400856387
 10
668.785426314701
 20
106.87643353922317
 10
660.5875494292081
 20
109.47232896501127
 10
652.4496658419205
 20
112.00976192412419
 10
644.3607129157604
 20
114.48397037876612
 10
636.3077453954595
 20
116.89525530356889
 10
628.2794726543407
 20
119.24511305899397
 10
620.2659023591597
 20
121.53563157167925
 10
612.2616626715469
 20
123.76914538117461
 10
604.267445127453
 20
125.94589897485866
 10
596.2843866203265
 20
128.06325220292615
 10
588.3054122480136
 20
130.11915047002623
 10
580.3189780752756
 20
132.11562898715547
 10
572.3189129373025
 20
134.05595093794346
 10
564.3027966156969
 20
135.94203107565153
 10
556.2699804561355
 20
137.7750706075078
 10
548.2217463444721
 20
139.55563359435644
 10
540.1614141137488
 20
141.2834184316501
 10
532.0908070150412
 20
142.95653451072153
 10
524.0045523255966
 20
144.57382306465928
 10
515.8948266201942
 20
146.13756507671957
 10
507.7589521491694
 20
147.65095506969746
 10
499.59884999059904
 20
149.11643622927642
 10
491.42290308549195
 20
150.5348583382993
 10
483.24035991562323
 20
151.90432507164496
 10
475.0561711999858
 20
153.22206486128886
 10
466.87236805607773
 20
154.48724908571415
 10
458.6928702168764
 20
155.69898365562628
 10
450.5201065070288
 20
156.85544113631295
 10
442.35343212919054
 20
157.9549498677486
 10
434.19026509560297
 20
158.99733107918283
 10
426.03079551895325
 20
159.98285337772097
 10
417.87580613675726
 20
160.9107810008994
 10
409.7237942566441
 20
161.7802715492892
 10
401.57326921398084
 20
162.59144111761663
 10
393.42575669611995
 20
163.34436225161596
 10
385.2799653383544
 20
164.03740213500174
 10
377.13191954403226
 20
164.67019079290003
 10
368.97753699195215
 20
165.24429196438564
 10
360.8196579292994
 20
165.76151485290262
 10
352.66397164172406
 20
166.22200709829661
 10
344.51551024428153
 20
166.6246153753096
 10
336.377227924468
 20
166.96786081806061
 10
328.2494960025999
 20
167.25055003146375
 10
320.13263969804376
 20
167.4726500172623
 10
312.02912421938174
 20
167.63492206130286
 10
303.9468410491712
 20
167.73919722303987
 10
295.9009122962755
 20
167.78524183981273
 10
287.9032521298568
 20
167.76919887918987
 10
279.9586770193622
 20
167.68525333012477
 10
272.06008106557954
 20
167.5258014814275
 10
264.18553171273163
 20
167.28646323573196
 10
256.31804887882345
 20
166.97128861529828
 10
248.46035082476683
 20
166.58628896429946
 10
240.6213735189807
 20
166.13159940324948
 10
232.80428607439393
 20
165.6054810133473
 10
225.01124965030476
 20
165.00814282249598
 10
217.24920223052996
 20
164.34066261651444
 10
209.52529998973782
 20
163.60231787938744
 10
201.84522620758358
 20
162.79211523540292
 10
194.2132566154737
 20
161.90875974624626
 10
186.63305127324082
 20
160.9513732886091
 10
179.10881553973115
 20
159.91998613140493
 10
171.64889088773432
 20
158.81412556701022
 10
164.254535732268
 20
157.62708931244617
 10
156.9117371598394
 20
156.35540701046864
 10
149.62137969126113
 20
155.01149946468132
 10
142.4222136913836
 20
153.6115338298449
 10
135.35379592309505
 20
152.15460267851586
 10
128.42888466367617
 20
150.63025551955866
 10
121.6453812933139
 20
149.03071839408625
 10
114.99813274808261
 20
147.35217966801534
 10
108.48310887913149
 20
145.59396628728132
 10
102.1009114041247
 20
143.7585165559733
 10
95.85832459993526
 20
141.8519297546128
 10
89.76969512123623
 20
139.8824629254371
 10
83.85199224612569
 20
137.8559204475153
 10
78.11623488779685
 20
135.77703040077893
 10
72.57418664745933
 20
133.6592045059308
 10
67.24858962326789
 20
131.52397909197708
 10
62.16667172507795
 20
129.38919871961522
 10
57.348599242506396
 20
127.2656150645238
 10
52.80511608443908
 20
125.15987883534083
 10
48.53692111986766
 20
123.07540801026263
 10
44.53754020277256
 20
121.0176967982824
 10
40.79911507557506
 20
118.99609035107882
 10
37.31302596504338
 20
117.01958419908222
 10
34.07027975277754
 20
115.09643582536388
 10
31.061642645507504
 20
113.23094652063365
 10
28.27597795616407
 20
111.42292272693076
 10
25.700609257490953
 20
109.66935746936524
 10
23.32111303560265
 20
107.96494991504585
 10
21.11999074274098
 20
106.30433840436595
 10
19.080124140611645
 20
104.68866980655731
 10
17.187990058460628
 20
103.12149662492683
 10
15.433513294589318
 20
101.6036244437221
 10
13.80723743341889
 20
100.13189190862846
 10
12.30018382291314
 20
98.70355838279559
 10
10.904220561185355
 20
97.31590937170817
 10
9.611754432038538
 20
95.96605429209131
 10
8.414598307635345
 20
94.64996111998293
 10
7.30437851803066
 20
93.36592181487082
 10
6.275828596854467
 20
92.11670466931633
 10
5.327215389132789
 20
90.90276491678671
 10
4.4525219882226
 20
89.71243415144717
 10
3.639334962001442
 20
88.53819534325713
 10
2.884365047225856
 20
87.40062482503772
 10
2.2002094102094816
 20
86.31609166913411
 10
1.5902344221661906
 20
85.2500424500397
 10
1.0368711746112922
 20
84.16786700358388
 10
0.5276466856076922
 20
83.10789423589395
 10
0.07556129276167667
 20
82.11123729531775
 10
-0.3060209731905843
 20
81.14362479161034
 10
-0.62218936879691
 20
80.16326012233012
 10
-0.8863927437779466
 20
79.18825199916076
 10
-1.1027918985788006
 20
78.2451683616772
 10
-1.2670248887843627
 20
77.32868365519084
 10
-1.3788421525238732
 20
76.41136295047613
 10
-1.435646509563128
 20
75.55985228255223
 10
-1.4372534431062718
 20
74.69861469639861
 10
-1.3680145855955743
 20
73.83348247209801
 10
-1.219623485103341
 20
72.95672818105561
 10
-0.9933760280130173
 20
72.07406942901078
 10
-0.6913831691766177
 20
71.19338438425618
 10
-0.3133733721547287
 20
70.32059350459295
 10
0.14192498903730666
 20
69.46144222438589
 10
0.68207826765439
 20
68.61444895067704
 10
1.3104756740716539
 20
67.77735170082494
 10
2.020537871297279
 20
66.95255899989127
 10
2.8076255838917064
 20
66.14212330258009
 10
3.6696547481842003
 20
65.34800558990048
 10
4.606694649273209
 20
64.5722807551445
 10
5.622907906683793
 20
63.81581803092818
 10
6.72274006420696
 20
63.07822100250151
 10
7.911321169186635
 20
62.357244464489824
 10
9.192537662131258
 20
61.648616180296244
 10
10.567881781073481
 20
60.94677370127402
 10
12.038280771983636
 20
60.24667678536958
 10
13.607272351802692
 20
59.5444426544904
 10
15.280433086117
 20
58.83729490046396
 10
17.064594081244707
 20
58.12356707405155
 10
18.966865122046556
 20
57.403785731345344
 10
21.000326810121578
 20
56.68153644825193
 10
23.185550619184028
 20
55.959479068436835
 10
25.54142339916092
 20
55.23415397731704
 10
28.082691096336077
 20
54.49896326053204
 10
30.82555825876034
 20
53.74875376275332
 10
33.788238525776194
 20
52.980578496936495
 10
36.98957493669667
 20
52.19682197665658
 10
40.45393697701837
 20
51.405784038794046
 10
44.21053916812781
 20
50.61496152855387
 10
48.29240478201643
 20
49.8287424688985
 10
52.735993475730936
 20
49.04626137895867
 10
57.568065124628674
 20
48.25780321485347
 10
62.79390267113763
 20
47.4577003293413
 10
68.40869546644933
 20
46.657191136383425
 10
74.41146319690506
 20
45.87242892977447
 10
80.799462402078
 20
45.11160154016343
 10
87.56292251695885
 20
44.37539029376763
 10
94.67351910451384
 20
43.65746288514983
 10
102.06873235295348
 20
42.954120716686596
 10
109.67205381064707
 20
42.27589898635466
 10
117.42787518135023
 20
41.639792368741645
 10
125.3128089296782
 20
41.06176736778385
 10
133.34598182480886
 20
40.5476594497306
 10
141.5536980768465
 20
40.082391964061785
 10
149.9145428497925
 20
39.64688973816369
 10
158.39161191387865
 20
39.240684059906634
 10
166.98054526956452
 20
38.86650087073408
 10
175.681582791047
 20
38.51527400432539
 10
184.46596550468902
 20
38.17544173192796
 10
187.41352679602582
 20
38.0649903433052
 10
187.37420865770025
 20
37.0157267520191
 10
193.25289227533642
 20
36.79543932046172
 10
202.08501098338647
 20
36.47958954159899
 10
210.91329916692146
 20
36.1904999209343
 10
219.76415434289228
 20
35.932938143034704
 10
228.66009901031128
 20
35.69812406244695
 10
237.5946785292536
 20
35.47610366743463
 10
246.5463998515109
 20
35.26261492557562
 10
255.49000679918396
 20
35.06102870308909
 10
264.42321878614865
 20
34.88177980583967
 10
273.374539544179
 20
34.7287971142097
 10
282.3685018012195
 20
34.595189411331475
 10
291.40453153310716
 20
34.468052887537524
 10
300.4604992061131
 20
34.333968301271454
 10
309.5366600271811
 20
34.1932633613857
 10
318.6223688247337
 20
34.05935253447153
 10
327.7304265786182
 20
33.93524440079284
 10
336.86064980392405
 20
33.81428072652692
 10
345.9980714158832
 20
33.69112746995074
 10
355.1376862265113
 20
33.563457684901124
 10
364.2791077850175
 20
33.43071185042301
 10
373.41953182297647
 20
33.29541334749523
 10
382.5517018080775
 20
33.16411694888485
 10
391.6832322801236
 20
33.04177541062138
 10
400.8229279091841
 20
32.92385595804804
 10
409.9619244766773
 20
32.80271217131806
 10
419.101664641853
 20
32.67570792546452
 10
428.24347070698883
 20
32.544080824030075
 10
437.3830995860492
 20
32.41366924071653
 10
446.5183617411758
 20
32.28939225940401
 10
455.6551232894994
 20
32.17129209729275
 10
464.7910379323866
 20
32.05627062565176
 10
473.917821576669
 20
31.938969848455628
 10
483.0328630537135
 20
31.81484575822799
 10
492.14054335907764
 20
31.68200762643329
 10
501.24602204821485
 20
31.540826384570963
 10
510.3493836319808
 20
31.393525196338885
 10
519.4432318104027
 20
31.240294149854805
 10
528.5242441509637
 20
31.078685452712136
 10
537.5962375207295
 20
30.905018681908842
 10
546.6720335490959
 20
30.716550250414315
 10
555.7679376660936
 20
30.516558874122552
 10
564.8821417239544
 20
30.312435285616843
 10
574.0002371527007
 20
30.11109468395358
 10
583.1215743373864
 20
29.916379039379905
 10
592.2443471437954
 20
29.723894475114363
 10
601.358814537328
 20
29.52587076814953
 10
610.4697666691254
 20
29.319318714204357
 10
619.5827032106904
 20
29.10525020136916
 10
628.6931740656421
 20
28.8905824864096
 10
637.792205103484
 20
28.681451123689882
 10
646.875215219651
 20
28.471643982846786
 10
655.9331764131065
 20
28.25208150871579
 10
664.9764667040661
 20
28.01750628794902
 10
674.0218145881792
 20
27.767190877986934
 10
683.075560721499
 20
27.50906325400146
 10
692.1160090845561
 20
27.249352315096388
 10
701.1142790639917
 20
26.98759009241718
 10
710.0479277246313
 20
26.716331448466548
 10
718.9175533303753
 20
26.4224558232782
 10
727.7501708132812
 20
26.102305064276948
 10
736.5426294113518
 20
25.769398032070868
 10
745.2489884826946
 20
25.422570225161493
 10
753.8639147156978
 20
25.037837041803414
 10
762.431021747477
 20
24.60437149472635
 10
770.9794401704825
 20
24.130173812559477
 10
779.4938245841765
 20
23.636334861293747
 10
787.9338317393152
 20
23.153557947196163
 10
796.2143892039253
 20
22.663956829465008
 10
804.3280740021479
 20
22.095804215112196
 10
812.4116156438747
 20
21.43630743958697
 10
820.4974387841316
 20
20.773933155566922
 10
828.5024587985056
 20
20.134661408690874
 10
836.3951944245972
 20
19.43959466229846
 10
844.2486180924133
 20
18.65514697856861
 10
852.0823603204637
 20
17.874093284335302
 10
859.8361886758742
 20
17.13985715263729
 10
867.477431167581
 20
16.357157388512746
 10
875.0762192302542
 20
15.442895820564331
 10
882.7225904878328
 20
14.459715611519897
 10
890.3294451767325
 20
13.483028551082313
 10
897.7399894108084
 20
12.494068318038074
 10
904.9908724257504
 20
11.371091980207794
 10
912.200028422225
 20
10.1741814258977
 10
919.2722893904546
 20
8.95973117868499
 10
926.1097249915513
 20
7.772931523549758
 10
932.6146517476211
 20
6.590735162225414
 10
938.7666902575796
 20
5.42486499830477
 10
944.537856017057
 20
4.3339832898129345
 10
949.8997152582534
 20
3.2875190913897114
 10
954.8376776779695
 20
2.3012569897275625
 10
957.889283468665
 20
1.6590555846531174
  0
LWPOLYLINE
  5
8C
330
17
100
AcDbEntity
  8
Layer
100
AcDbPolyline
 90
5
 70
0
 10
629.1426605283331
 20
114.82461283262873
 10
625.30372224663
 20
115.94824661161269
 10
626.4273560256139
 20
119.78718489331587
 10
630.266294307317
 20
118.66355111433191
 10
629.1426605283331
 20
114.82461283262873
  0
LWPOLYLINE
  5
8D
330
17
100
AcDbEntity
  8
Layer
100
AcDbPolyline
 90
5
 70
0
 10
248.10738768486613
 20
162.55908777463642
 10
244.11410150487018
 20
162.32742965443921
 10
243.88244338467297
 20
166.32071583443516
 10
247.87572956466892
 20
166.55237395463237
 10
248.10738768486613
 20
162.55908777463642
  0
LWPOLYLINE
  5
8E
330
17
100
AcDbEntity
  8
Layer
100
AcDbPolyline
 90
5
 70
0
 10
102.51934026711449
 20
139.70388668556342
 10
98.69382119844836
 20
138.5353817196896
 10
97.52531623257455
 20
142.36090078835576
 10
101.35083530124068
 20
143.52940575422957
 10
102.51934026711449
 20
139.70388668556342
  0
LWPOLYLINE
  5
8F
330
17
100
AcDbEntity
  8
Layer
100
AcDbPolyline
 90
5
 70
0
 10
23.570587135736556
 20
101.8668209325686
 10
22.00295624179086
 20
100.62483325938217
 10
18.897987058824814
 20
104.5439104942464
 10
20.46561795277051
 20
105.78589816743283
 10
23.570587135736556
 20
101.8668209325686
  0
LWPOLYLINE
  5
90
330
17
100
AcDbEntity
  8
Layer
100
AcDbPolyline
 90
5
 70
0
 10
43.71444529145975
 20
55.8291222092638
 10
45.67157296396807
 20
55.41723475679392
 10
44.64185433279335
 20
50.52441557552309
 10
42.68472666028503
 20
50.93630302799298
 10
43.71444529145975
 20
55.8291222092638
  0
LWPOLYLINE
  5
91
330
17
100
AcDbEntity
  8
Layer
100
AcDbPolyline
 90
5
 70
0
 10
137.5104375448455
 20
44.31801979654253
 10
141.50402668602118
 20
44.09164450751152
 10
141.27765139699017
 20
40.098055366335856
 10
137.2840622558145
 20
40.32443065536687
 10
137.5104375448455
 20
44.31801979654253
  0
LINE
  5
92
330
17
100
AcDbEntity
  8
Layer
100
AcDbLine
 10
939.7227505105391
 20
10.831463588300096
 30
0.0
 11
939.518297445204
 21
10.375175363517656
 31
0.0
  0
LINE
  5
93
330
17
100
AcDbEntity
  8
Layer
100
AcDbLine
 10
938.2551056163994
 20
6.030251024287068
 30
0.0
 11
938.183053076199
 21
5.53546982875649
 31
0.0
  0
LINE
  5
94
330
17
100
AcDbEntity
  8
Layer
100
AcDbLine
 10
921.0257099456305
 20
17.97688479931027
 30
0.0
 11
920.8341661496789
 21
17.515028789029543
 31
0.0
  0
LINE
  5
95
330
17
100
AcDbEntity
  8
Layer
100
AcDbLine
 10
918.576446774973
 20
9.586522074027116
 30
0.0
 11
918.4959510394254
 21
9.093044175273121
 31
0.0
  0
LINE
  5
96
330
17
100
AcDbEntity
  8
Layer
100
AcDbLine
 10
883.5948025261739
 20
32.110259666398946
 30
0.0
 11
883.410697052115
 21
31.6453885289624
 31
0.0
  0
LINE
  5
97
330
17
100
AcDbEntity
  8
Layer
100
AcDbLine
 10
879.0014758971214
 20
15.44212176350625
 30
0.0
 11
878.9246341113455
 21
14.948061706469886
 31
0.0
  0
LWPOLYLINE
  5
98
330
17
100
AcDbEntity
  8
Layer
100
AcDbPolyline
 90
300
 70
1
 10
411.90192894736845
 20
100.0
 10
411.8907747651914
 20
101.06228446680008
 10
411.8573171440331
 20
102.12409985868413
 10
411.8015708578372
 20
103.18497730786646
 10
411.7235605225943
 20
104.2444483607304
 10
411.6233205854724
 20
105.30204518468433
 10
411.5008953096059
 20
106.35730077474338
 10
411.35633875455017
 20
107.40974915974562
 10
411.1897147524105
 20
108.45892560811187
 10
411.00109687965556
 20
109.50436683305804
 10
410.7905684246282
 20
110.54561119716959
 10
410.5582223507675
 20
111.58219891624755
 10
410.3041612555589
 20
112.6136722623363
 10
410.02849732522986
 20
113.63957576584336
 10
409.73135228521176
 20
114.65945641666195
 10
409.41285734638944
 20
115.6728638642075
 10
409.07315314716175
 20
116.67935061627973
 10
408.71238969134004
 20
117.6784722366627
 10
408.3307262819105
 20
118.66978754137527
 10
407.92833145069045
 20
119.65285879348554
 10
407.50538288390953
 20
120.62725189640315
 10
407.06206734374825
 20
121.59253658556416
 10
406.59858058586946
 20
122.5482866184237
 10
406.1151272729776
 20
123.49407996267271
 10
405.6119208844459
 20
124.42949898259556
 10
405.0891836220498
 20
125.35413062348616
 10
404.5471463118486
 20
126.26756659404134
 10
403.98604830225963
 20
127.16940354665077
 10
403.40613735836826
 20
128.05924325550393
 10
402.8076695525222
 20
128.9366927924354
 10
402.19090915125696
 20
129.80136470043087
 10
401.55612849860324
 20
130.6528771647173
 10
400.9036078958274
 20
131.4908541813615
 10
400.2336354776585
 20
132.3149257233029
 10
399.54650708505574
 20
133.12472790374724
 10
398.84252613457403
 20
133.9199031368484
 10
398.1220034843832
 20
134.7001002956086
 10
397.3852572970019
 20
135.46497486692593
 10
396.63261289880637
 20
136.21418910372182
 10
395.86440263637496
 20
136.94741217408057
 10
395.08096572973363
 20
137.66432030733532
 10
394.28264812256566
 20
138.36459693703625
 10
393.4698023294528
 20
139.04793284073727
 10
392.6427872802148
 20
139.71402627653998
 10
391.8019681614159
 20
140.3625831163345
 10
390.947716255109
 20
140.99331697567789
 10
390.0804087748878
 20
141.6059493402538
 10
389.20042869931973
 20
142.20020968885632
 10
388.3081646028338
 20
142.77583561284465
 10
387.4040104841368
 20
143.33257293201527
 10
386.48836559223446
 20
143.87017580684085
 10
385.56163425013466
 20
144.38840684702595
 10
384.62422567630944
 20
144.8870372163321
 10
383.676553803996
 20
145.36584673362512
 10
382.719037098415
 20
145.82462397010136
 10
381.75209837198844
 20
146.26316634264816
 10
380.77616459763755
 20
146.68128020329937
 10
379.7916667202433
 20
147.07878092474448
 10
378.79903946635375
 20
147.455492981855
 10
377.79872115222054
 20
147.81125002919137
 10
376.791153490251
 20
148.14589497445647
 10
375.7767813939606
 20
148.45928004786313
 10
374.7560527815113
 20
148.75126686738506
 10
373.72941837792365
 20
149.02172649986252
 10
372.6973315160493
 20
149.2705395179356
 10
371.66024793639207
 20
149.49759605277984
 10
370.61862558586563
 20
149.70279584262136
 10
369.5729244155771
 20
149.8860482770096
 10
368.5236061777256
 20
150.04727243682828
 10
367.4711342217054
 20
150.1863971300271
 10
366.4159732895041
 20
150.30336092305805
 10
365.3585893104853
 20
150.39811216800277
 10
364.2994491956475
 20
150.47060902537888
 10
363.23902063144953
 20
150.52081948261502
 10
362.17777187329295
 20
150.54872136818673
 10
361.11617153875403
 20
150.55430236140685
 10
360.05468840065527
 20
150.53755999786586
 10
358.9937911800684
 20
150.49850167052023
 10
357.9339483393406
 20
150.4371446264277
 10
356.87562787523456
 20
150.35351595913173
 10
355.8192971122742
 20
150.24765259669755
 10
354.7654224963877
 20
150.1196012854058
 10
353.7144693889375
 20
149.96941856911081
 10
352.6669018612304
 20
149.7971707642722
 10
351.6231824895963
 20
149.60293393067172
 10
350.5837721511279
 20
149.386793837827
 10
349.54912982017004
 20
149.14884592711851
 10
348.51971236564975
 20
148.88919526964509
 10
347.4959743493356
 20
148.6079565198276
 10
346.4783678251162
 20
148.30525386478078
 10
345.4673421393859
 20
147.9812209694757
 10
344.46334373262596
 20
147.63600091771696
 10
343.4668159422691
 20
147.26974614896113
 10
342.4781988069341
 20
146.8826183910036
 10
341.4979288721172
 20
146.47478858856417
 10
340.526438997426
 20
146.04643682780272
 10
339.5641581654405
 20
145.59775225679823
 10
338.6115112922869
 20
145.12893300202626
 10
337.6689190400062
 20
144.6401860808719
 10
336.7367976308019
 20
144.13172731021677
 10
335.81555866324817
 20
143.60378121114027
 10
334.905608930539
 20
143.0565809097775
 10
334.0073502408603
 20
142.49036803437716
 10
333.12117923996243
 20
141.90539260860552
 10
332.2474872360126
 20
141.3019129411429
 10
331.38666002680435
 20
140.68019551162175
 10
330.5390777294
 20
140.04051485295693
 10
329.70511461228165
 20
139.38315343011953
 10
328.88513893008485
 20
138.7084015154084
 10
328.0795127609875
 20
138.0165570602741
 10
327.28859184682665
 20
137.30792556375172
 10
326.5127254360126
 20
136.58281993756134
 10
325.7522561293109
 20
135.84156036793496
 10
325.0075197285593
 20
135.0844741742312
 10
324.27884508838713
 20
134.31189566440034
 10
323.5665539710026
 20
133.5241659873634
 10
322.8709609041111
 20
132.7216329823702
 10
322.19237304202943
 20
131.9046510254036
 10
321.5310900300543
 20
131.07358087269674
 10
320.88740387214807
 20
130.2287895014335
 10
320.26159880199754
 20
129.3706499477016
 10
319.6539511575044
 20
128.49954114177032
 10
319.0647292587627
 20
127.61584774076566
 10
318.4941932895755
 20
126.71995995881653
 10
317.94259518256564
 20
125.81227339474717
 10
317.410178507929
 20
124.89318885739185
 10
316.8971783658809
 20
123.96311218860896
 10
316.40382128284267
 20
123.02245408407272
 10
315.93032511141354
 20
122.07162991192149
 10
315.4768989341733
 20
121.1110595293429
 10
315.0437429713574
 20
120.14116709717673
 10
314.63104849244525
 20
119.16238089261745
 10
314.2389977317008
 20
118.17513312009905
 10
313.86776380770334
 20
117.17985972044566
 10
313.5175106469031
 20
116.17700017837252
 10
313.1883929112358
 20
115.16699732842176
 10
312.8805559298285
 20
114.15029715941917
 10
312.5941356348262
 20
113.1273486175381
 10
312.3292585013682
 20
112.09860340805747
 10
312.08604149173993
 20
111.06451579590144
 10
311.86459200372605
 20
110.02554240504878
 10
311.6650078231864
 20
108.98214201690058
 10
311.48737708087657
 20
107.93477536769532
 10
311.3317782135319
 20
106.88390494506075
 10
311.1982799292319
 20
105.82999478379226
 10
311.08694117706074
 20
104.7735102609483
 10
310.9978111210771
 20
103.71491789035291
 10
310.93092911860464
 20
102.65468511659637
 10
310.8863247028528
 20
101.59328010862475
 10
310.8640175698759
 20
100.53117155300983
 10
310.8640175698759
 20
99.46882844699019
 10
310.8863247028528
 20
98.40671989137526
 10
310.93092911860464
 20
97.34531488340365
 10
310.9978111210771
 20
96.28508210964708
 10
311.08694117706074
 20
95.22648973905169
 10
311.1982799292319
 20
94.17000521620776
 10
311.3317782135319
 20
93.11609505493927
 10
311.48737708087657
 20
92.06522463230468
 10
311.6650078231864
 20
91.01785798309943
 10
311.86459200372605
 20
89.97445759495122
 10
312.08604149173993
 20
88.93548420409854
 10
312.3292585013682
 20
87.90139659194251
 10
312.5941356348262
 20
86.87265138246191
 10
312.8805559298285
 20
85.84970284058083
 10
313.1883929112358
 20
84.83300267157824
 10
313.5175106469031
 20
83.82299982162749
 10
313.86776380770334
 20
82.82014027955435
 10
314.2389977317008
 20
81.82486687990097
 10
314.63104849244525
 20
80.83761910738255
 10
315.04374297135746
 20
79.85883290282325
 10
315.4768989341733
 20
78.8889404706571
 10
315.93032511141354
 20
77.92837008807852
 10
316.40382128284267
 20
76.9775459159273
 10
316.8971783658809
 20
76.03688781139105
 10
317.410178507929
 20
75.10681114260817
 10
317.94259518256564
 20
74.18772660525283
 10
318.4941932895755
 20
73.28004004118345
 10
319.0647292587627
 20
72.38415225923436
 10
319.6539511575044
 20
71.50045885822969
 10
320.2615988019975
 20
70.62935005229842
 10
320.88740387214807
 20
69.7712104985665
 10
321.5310900300543
 20
68.92641912730326
 10
322.19237304202943
 20
68.0953489745964
 10
322.8709609041111
 20
67.27836701762978
 10
323.5665539710026
 20
66.4758340126366
 10
324.27884508838713
 20
65.68810433559966
 10
325.0075197285593
 20
64.91552582576882
 10
325.7522561293109
 20
64.15843963206507
 10
326.5127254360126
 20
63.41718006243868
 10
327.28859184682665
 20
62.692074436248305
 10
328.0795127609875
 20
61.98344293972591
 10
328.8851389300848
 20
61.29159848459159
 10
329.70511461228165
 20
60.61684656988047
 10
330.5390777294
 20
59.95948514704308
 10
331.38666002680435
 20
59.31980448837825
 10
332.2474872360126
 20
58.69808705885712
 10
333.12117923996243
 20
58.094607391394476
 10
334.0073502408603
 20
57.509631965622845
 10
334.905608930539
 20
56.94341909022252
 10
335.81555866324817
 20
56.39621878885972
 10
336.73679763080196
 20
55.868272689783225
 10
337.6689190400062
 20
55.35981391912809
 10
338.61151129228693
 20
54.87106699797373
 10
339.5641581654406
 20
54.402247743201755
 10
340.526438997426
 20
53.95356317219728
 10
341.4979288721172
 20
53.52521141143583
 10
342.4781988069341
 20
53.1173816089964
 10
343.4668159422691
 20
52.73025385103887
 10
344.46334373262596
 20
52.363999082283044
 10
345.4673421393859
 20
52.01877903052432
 10
346.4783678251162
 20
51.69474613521922
 10
347.4959743493356
 20
51.392043480172404
 10
348.51971236564975
 20
51.11080473035492
 10
349.54912982017004
 20
50.851154072881485
 10
350.5837721511279
 20
50.61320616217299
 10
351.6231824895963
 20
50.39706606932828
 10
352.6669018612304
 20
50.202829235727776
 10
353.7144693889375
 20
50.0305814308892
 10
354.7654224963877
 20
49.88039871459419
 10
355.8192971122742
 20
49.75234740330246
 10
356.8756278752345
 20
49.64648404086827
 10
357.9339483393406
 20
49.5628553735723
 10
358.99379118006834
 20
49.50149832947979
 10
360.0546884006552
 20
49.46244000213413
 10
361.11617153875403
 20
49.44569763859315
 10
362.17777187329295
 20
49.45127863181327
 10
363.23902063144953
 20
49.47918051738499
 10
364.2994491956475
 20
49.52939097462112
 10
365.3585893104853
 20
49.601887831997225
 10
366.4159732895041
 20
49.69663907694195
 10
367.4711342217055
 20
49.81360286997289
 10
368.5236061777256
 20
49.952727563171706
 10
369.5729244155771
 20
50.1139517229904
 10
370.61862558586563
 20
50.297204157378644
 10
371.66024793639207
 20
50.50240394722017
 10
372.6973315160493
 20
50.729460482064404
 10
373.7294183779236
 20
50.97827350013747
 10
374.7560527815113
 20
51.24873313261494
 10
375.7767813939606
 20
51.54071995213687
 10
376.791153490251
 20
51.854105025543525
 10
377.7987211522205
 20
52.18874997080864
 10
378.79903946635375
 20
52.54450701814501
 10
379.7916667202433
 20
52.92121907525553
 10
380.77616459763755
 20
53.31871979670063
 10
381.75209837198844
 20
53.73683365735183
 10
382.719037098415
 20
54.17537602989866
 10
383.676553803996
 20
54.634153266374874
 10
384.6242256763095
 20
55.11296278366793
 10
385.56163425013466
 20
55.61159315297406
 10
386.4883655922344
 20
56.129824193159145
 10
387.40401048413673
 20
56.66742706798471
 10
388.3081646028338
 20
57.22416438715533
 10
389.20042869931973
 20
57.79979031114366
 10
390.08040877488776
 20
58.3940506597462
 10
390.947716255109
 20
59.00668302432211
 10
391.8019681614159
 20
59.637416883665516
 10
392.64278728021475
 20
60.285973723459996
 10
393.4698023294528
 20
60.952067159262725
 10
394.28264812256566
 20
61.635403062963746
 10
395.08096572973363
 20
62.335679692664684
 10
395.86440263637496
 20
63.052587825919446
 10
396.63261289880637
 20
63.78581089627817
 10
397.3852572970019
 20
64.53502513307407
 10
398.1220034843832
 20
65.29989970439141
 10
398.84252613457403
 20
66.08009686315157
 10
399.54650708505574
 20
66.87527209625274
 10
400.2336354776584
 20
67.68507427669707
 10
400.9036078958274
 20
68.5091458186385
 10
401.55612849860324
 20
69.3471228352827
 10
402.19090915125696
 20
70.19863529956913
 10
402.8076695525222
 20
71.0633072075646
 10
403.40613735836826
 20
71.94075674449607
 10
403.98604830225963
 20
72.83059645334923
 10
404.5471463118486
 20
73.73243340595866
 10
405.0891836220498
 20
74.64586937651384
 10
405.6119208844459
 20
75.57050101740444
 10
406.1151272729776
 20
76.5059200373273
 10
406.59858058586946
 20
77.45171338157631
 10
407.06206734374825
 20
78.40746341443585
 10
407.5053828839095
 20
79.37274810359682
 10
407.92833145069045
 20
80.34714120651445
 10
408.3307262819105
 20
81.33021245862471
 10
408.71238969134004
 20
82.32152776333729
 10
409.07315314716175
 20
83.32064938372025
 10
409.41285734638944
 20
84.32713613579249
 10
409.73135228521176
 20
85.34054358333803
 10
410.0284973252298
 20
86.36042423415664
 10
410.3041612555589
 20
87.3863277376637
 10
410.5582223507675
 20
88.41780108375245
 10
410.7905684246282
 20
89.45438880283041
 10
411.00109687965556
 20
90.49563316694196
 10
411.1897147524105
 20
91.54107439188815
 10
411.35633875455017
 20
92.5902508402544
 10
411.5008953096059
 20
93.64269922525664
 10
411.6233205854724
 20
94.69795481531564
 10
411.7235605225943
 20
95.75555163926958
 10
411.8015708578372
 20
96.81502269213352
 10
411.8573171440331
 20
97.87590014131584
 10
411.8907747651914
 20
98.9377155331999
 10
411.90192894736845
 20
99.99999999999999
  0
LINE
  5
99
330
17
100
AcDbEntity
  8
Layer
100
AcDbLine
 10
688.1071971529539
 20
99.99999999999996
 30
0.0
 11
692.1071971529539
 21
99.99999999999996
 31
0.0
  0
LINE
  5
9A
330
17
100
AcDbEntity
  8
Layer
100
AcDbLine
 10
15.668076534721251
 20
100.00000000000004
 30
0.0
 11
11.668076534721251
 21
100.00000000000004
 31
0.0
  0
LINE
  5
9B
330
17
100
AcDbEntity
  8
Layer
100
AcDbLine
 10
154.45590065836777
 20
100.00000000000003
 30
0.0
 11
143.45590065836777
 21
100.00000000000003
 31
0.0
  0
LWPOLYLINE
  5
9C
330
17
100
AcDbEntity
  8
Layer
100
AcDbPolyline
 90
5
 70
0
 10
143.95590065836777
 20
95.00000000000003
 10
143.95590065836777
 20
105.00000000000003
 10
153.95590065836777
 20
105.00000000000003
 10
153.95590065836777
 20
95.00000000000003
 10
143.95590065836777
 20
95.00000000000003
  0
LINE
  5
9D
330
17
100
AcDbEntity
  8
Layer
100
AcDbLine
 10
357.3876368438375
 20
100.0
 30
0.0
 11
346.3876368438375
 21
100.0
 31
0.0
  0
LWPOLYLINE
  5
9E
330
17
100
AcDbEntity
  8
Layer
100
AcDbPolyline
 90
5
 70
0
 10
346.8876368438375
 20
95.0
 10
346.8876368438375
 20
105.0
 10
356.8876368438375
 20
105.0
 10
356.8876368438375
 20
95.0
 10
346.8876368438375
 20
95.0
  0
LINE
  5
9F
330
17
100
AcDbEntity
  8
Layer
100
AcDbLine
 10
560.3193730293074
 20
99.99999999999997
 30
0.0
 11
549.3193730293074
 21
99.99999999999997
 31
0.0
  0
LWPOLYLINE
  5
A0
330
17
100
AcDbEntity
  8
Layer
100
AcDbPolyline
 90
5
 70
0
 10
549.8193730293074
 20
94.99999999999997
 10
549.8193730293074
 20
104.99999999999997
 10
559.8193730293074
 20
104.99999999999997
 10
559.8193730293074
 20
94.99999999999997
 10
549.8193730293074
 20
94.99999999999997
  0
LINE
  5
A1
330
17
100
AcDbEntity
  8
Layer
100
AcDbLine
 10
0.6225350765810163
 20
76.31758029409355
 30
0.0
 11
-3.365675932326667
 21
76.62445640660083
 31
0.0
  0
LINE
  5
A2
330
17
100
AcDbEntity
  8
Layer
100
AcDbLine
 10
609.8426849376544
 20
29.44064453695802
 30
0.0
 11
613.8308959465621
 21
29.13376842445075
 31
0.0
  0
LINE
  5
A3
330
17
100
AcDbEntity
  8
Layer
100
AcDbLine
 10
948.0101585706801
 20
3.4200755517346835
 30
0.0
 11
951.9983695795878
 21
3.113199439227415
 31
0.0
  0
LINE
  5
A4
330
17
100
AcDbEntity
  8
Layer
100
AcDbLine
 10
361.38157894736844
 20
150.555
 30
0.0
 11
361.38157894736844
 21
151.055
 31
0.0
  0
LINE
  5
A5
330
17
100
AcDbEntity
  8
Layer
100
AcDbLine
 10
361.38157894736844
 20
49.44500000000001
 30
0.0
 11
361.38157894736844
 21
48.94500000000001
 31
0.0
  0
LINE
  5
A6
330
17
100
AcDbEntity
  8
Layer
100
AcDbLine
 10
411.90192894736845
 20
100.0
 30
0.0
 11
412.40192894736845
 21
100.0
 31
0.0
  0
LINE
  5
A7
330
17
100
AcDbEntity
  8
Layer
100
AcDbLine
 10
310.86122894736843
 20
100.0
 30
0.0
 11
310.36122894736843
 21
100.0
 31
0.0
  0
LINE
  5
A8
330
17
100
AcDbEntity
  8
Layer
100
AcDbLine
 10
101.38157894736844
 20
141.53882080950467
 30
0.0
 11
101.38157894736844
 21
145.53882080950467
 31
0.0
  0
LINE
  5
A9
330
17
100
AcDbEntity
  8
Layer
100
AcDbLine
 10
101.38157894736844
 20
45.01947433802443
 30
0.0
 11
101.38157894736844
 21
41.01947433802443
 31
0.0
  0
LINE
  5
AA
330
17
100
AcDbEntity
  8
Layer
100
AcDbLine
 10
101.38157894736844
 20
68.62334363232048
 30
0.0
 11
101.38157894736844
 21
57.62334363232048
 31
0.0
  0
LWPOLYLINE
  5
AB
330
17
100
AcDbEntity
  8
Layer
100
AcDbPolyline
 90
5
 70
0
 10
106.38157894736844
 20
58.12334363232048
 10
96.38157894736844
 20
58.12334363232048
 10
96.38157894736844
 20
68.12334363232048
 10
106.38157894736844
 20
68.12334363232048
 10
106.38157894736844
 20
58.12334363232048
  0
LINE
  5
AC
330
17
100
AcDbEntity
  8
Layer
100
AcDbLine
 10
101.38157894736844
 20
98.77914757376455
 30
0.0
 11
101.38157894736844
 21
87.77914757376455
 31
0.0
  0
LWPOLYLINE
  5
AD
330
17
100
AcDbEntity
  8
Layer
100
AcDbPolyline
 90
5
 70
0
 10
106.38157894736844
 20
88.27914757376455
 10
96.38157894736844
 20
88.27914757376455
 10
96.38157894736844
 20
98.27914757376455
 10
106.38157894736844
 20
98.27914757376455
 10
106.38157894736844
 20
88.27914757376455
  0
LINE
  5
AE
330
17
100
AcDbEntity
  8
Layer
100
AcDbLine
 10
101.38157894736844
 20
128.9349515152086
 30
0.0
 11
101.38157894736844
 21
117.93495151520861
 31
0.0
  0
LWPOLYLINE
  5
AF
330
17
100
AcDbEntity
  8
Layer
100
AcDbPolyline
 90
5
 70
0
 10
106.38157894736844
 20
118.43495151520861
 10
96.38157894736844
 20
118.43495151520861
 10
96.38157894736844
 20
128.4349515152086
 10
106.38157894736844
 20
128.4349515152086
 10
106.38157894736844
 20
118.43495151520861
  0
LINE
  5
B0
330
17
100
AcDbEntity
  8
Layer
100
AcDbLine
 10
591.3815789473684
 20
127.32653158300985
 30
0.0
 11
591.3815789473684
 21
131.32653158300985
 31
0.0
  0
LINE
  5
B1
330
17
100
AcDbEntity
  8
Layer
100
AcDbLine
 10
591.3815789473684
 20
31.742098322110834
 30
0.0
 11
591.3815789473684
 21
27.742098322110834
 31
0.0
  0
LINE
  5
B2
330
17
100
AcDbEntity
  8
Layer
100
AcDbLine
 10
591.3815789473684
 20
55.15898497429064
 30
0.0
 11
591.3815789473684
 21
44.15898497429064
 31
0.0
  0
LWPOLYLINE
  5
B3
330
17
100
AcDbEntity
  8
Layer
100
AcDbPolyline
 90
5
 70
0
 10
596.3815789473684
 20
44.65898497429064
 10
586.3815789473684
 20
44.65898497429064
 10
586.3815789473684
 20
54.65898497429064
 10
596.3815789473684
 20
54.65898497429064
 10
596.3815789473684
 20
44.65898497429064
  0
LINE
  5
B4
330
17
100
AcDbEntity
  8
Layer
100
AcDbLine
 10
591.3815789473684
 20
85.03431495256035
 30
0.0
 11
591.3815789473684
 21
74.03431495256035
 31
0.0
  0
LWPOLYLINE
  5
B5
330
17
100
AcDbEntity
  8
Layer
100
AcDbPolyline
 90
5
 70
0
 10
596.3815789473684
 20
74.53431495256035
 10
586.3815789473684
 20
74.53431495256035
 10
586.3815789473684
 20
84.53431495256035
 10
596.3815789473684
 20
84.53431495256035
 10
596.3815789473684
 20
74.53431495256035
  0
LINE
  5
B6
330
17
100
AcDbEntity
  8
Layer
100
AcDbLine
 10
591.3815789473684
 20
114.90964493083005
 30
0.0
 11
591.3815789473684
 21
103.90964493083005
 31
0.0
  0
LWPOLYLINE
  5
B7
330
17
100
AcDbEntity
  8
Layer
100
AcDbPolyline
 90
5
 70
0
 10
596.3815789473684
 20
104.40964493083005
 10
586.3815789473684
 20
104.40964493083005
 10
586.3815789473684
 20
114.40964493083005
 10
596.3815789473684
 20
114.40964493083005
 10
596.3815789473684
 20
104.40964493083005
  0
ENDSEC
  0
SECTION
  2
OBJECTS
  0
DICTIONARY
  5
A
330
0
100
AcDbDictionary
280
0
281
1
  3
ACAD_COLOR
350
B
  3
ACAD_GROUP
350
C
  3
ACAD_LAYOUT
350
D
  3
ACAD_MATERIAL
350
E
  3
ACAD_MLEADERSTYLE
350
F
  3
ACAD_MLINESTYLE
350
10
  3
ACAD_PLOTSETTINGS
350
11
  3
ACAD_PLOTSTYLENAME
350
12
  3
ACAD_SCALELIST
350
14
  3
ACAD_TABLESTYLE
350
15
  3
ACAD_VISUALSTYLE
350
16
  3
EZDXF_META
350
2D
  0
DICTIONARY
  5
B
330
A
100
AcDbDictionary
280
0
281
1
  0
DICTIONARY
  5
C
330
A
100
AcDbDictionary
280
0
281
1
  0
DICTIONARY
  5
D
330
A
100
AcDbDictionary
280
0
281
1
  3
Model
350
1A
  3
Layout1
350
1E
  0
DICTIONARY
  5
E
330
A
100
AcDbDictionary
280
0
281
1
  3
ByBlock
350
1F
  3
ByLayer
350
20
  3
Global
350
21
  0
DICTIONARY
  5
F
330
A
100
AcDbDictionary
280
0
281
1
  3
Standard
350
2C
  0
DICTIONARY
  5
10
330
A
100
AcDbDictionary
280
0
281
1
  3
Standard
350
22
  0
DICTIONARY
  5
11
330
A
100
AcDbDictionary
280
0
281
1
  0
ACDBDICTIONARYWDFLT
  5
12
330
A
100
AcDbDictionary
280
0
281
1
  3
Normal
350
13
100
AcDbDictionaryWithDefault
340
13
  0
ACDBPLACEHOLDER
  5
13
330
12
  0
DICTIONARY
  5
14
330
A
100
AcDbDictionary
280
0
281
1
  0
DICTIONARY
  5
15
330
A
100
AcDbDictionary
280
0
281
1
  0
DICTIONARY
  5
16
330
A
100
AcDbDictionary
280
0
281
1
  3
2dWireframe
350
5A
  3
Basic
350
5B
  3
Brighten
350
5C
  3
ColorChange
350
5D
  3
Conceptual
350
5E
  3
Dim
350
5F
  3
EdgeColorOff
350
60
  3
Facepattern
350
61
  3
Flat
350
62
  3
FlatWithEdges
350
63
  3
Gouraud
350
64
  3
GouraudWithEdges
350
65
  3
Hidden
350
66
  3
JitterOff
350
67
  3
Linepattern
350
68
  3
Modeling
350
69
  3
OverhangOff
350
6A
  3
Realistic
350
6B
  3
Shaded
350
6C
  3
Shaded with edges
350
6D
  3
Shades of Gray
350
6E
  3
Sketchy
350
6F
  3
Thicken
350
70
  3
Wireframe
350
71
  3
X-Ray
350
72
  0
LAYOUT
  5
1A
330
D
100
AcDbPlotSettings
  1

  2
Adobe PDF
  4
A3
  6

 40
7.5
 41
20.0
 42
7.5
 43
20.0
 44
420.0
 45
297.0
 46
0.0
 47
0.0
 48
0.0
 49
0.0
140
0.0
141
0.0
142
1.0
143
1.0
 70
1024
 72
1
 73
0
 74
5
  7

 75
16
 76
0
 77
2
 78
300
147
1.0
148
0.0
149
0.0
100
AcDbLayout
  1
Model
 70
1
 71
0
 10
0.0
 20
0.0
 11
420.0
 21
297.0
 12
0.0
 22
0.0
 32
0.0
 14
1e+20
 24
1e+20
 34
1e+20
 15
-1e+20
 25
-1e+20
 35
-1e+20
146
0.0
 13
0.0
 23
0.0
 33
0.0
 16
1.0
 26
0.0
 36
0.0
 17
0.0
 27
1.0
 37
0.0
 76
1
330
17
  0
LAYOUT
  5
1E
330
D
100
AcDbPlotSettings
  1

  2
Adobe PDF
  4
A3
  6

 40
7.5
 41
20.0
 42
7.5
 43
20.0
 44
420.0
 45
297.0
 46
0.0
 47
0.0
 48
0.0
 49
0.0
140
0.0
141
0.0
142
1.0
143
1.0
 70
0
 72
1
 73
0
 74
5
  7

 75
16
 76
0
 77
2
 78
300
147
1.0
148
0.0
149
0.0
100
AcDbLayout
  1
Layout1
 70
1
 71
1
 10
0.0
 20
0.0
 11
420.0
 21
297.0
 12
0.0
 22
0.0
 32
0.0
 14
1e+20
 24
1e+20
 34
1e+20
 15
-1e+20
 25
-1e+20
 35
-1e+20
146
0.0
 13
0.0
 23
0.0
 33
0.0
 16
1.0
 26
0.0
 36
0.0
 17
0.0
 27
1.0
 37
0.0
 76
1
330
1B
  0
MATERIAL
  5
1F
102
{ACAD_REACTORS
330
E
102
}
330
E
100
AcDbMaterial
  1
ByBlock
  2

 70
0
 40
1.0
 71
1
 41
1.0
 91
-1023410177
 42
1.0
 72
1
  3

 73
1
 74
1
 75
1
 44
0.5
 73
0
 45
1.0
 46
1.0
 77
1
  4

 78
1
 79
1
170
1
 48
1.0
171
1
  6

172
1
173
1
174
1
140
1.0
141
1.0
175
1
  7

176
1
177
1
178
1
143
1.0
179
1
  8

270
1
271
1
272
1
145
1.0
146
1.0
273
1
  9

274
1
275
1
276
1
 42
1.0
 72
1
  3

 73
1
 74
1
 75
1
 94
63
  0
MATERIAL
  5
20
102
{ACAD_REACTORS
330
E
102
}
330
E
100
AcDbMaterial
  1
ByLayer
  2

 70
0
 40
1.0
 71
1
 41
1.0
 91
-1023410177
 42
1.0
 72
1
  3

 73
1
 74
1
 75
1
 44
0.5
 73
0
 45
1.0
 46
1.0
 77
1
  4

 78
1
 79
1
170
1
 48
1.0
171
1
  6

172
1
173
1
174
1
140
1.0
141
1.0
175
1
  7

176
1
177
1
178
1
143
1.0
179
1
  8

270
1
271
1
272
1
145
1.0
146
1.0
273
1
  9

274
1
275
1
276
1
 42
1.0
 72
1
  3

 73
1
 74
1
 75
1
 94
63
  0
MATERIAL
  5
21
102
{ACAD_REACTORS
330
E
102
}
330
E
100
AcDbMaterial
  1
Global
  2

 70
0
 40
1.0
 71
1
 41
1.0
 91
-1023410177
 42
1.0
 72
1
  3

 73
1
 74
1
 75
1
 44
0.5
 73
0
 45
1.0
 46
1.0
 77
1
  4

 78
1
 79
1
170
1
 48
1.0
171
1
  6

172
1
173
1
174
1
140
1.0
141
1.0
175
1
  7

176
1
177
1
178
1
143
1.0
179
1
  8

270
1
271
1
272
1
145
1.0
146
1.0
273
1
  9

274
1
275
1
276
1
 42
1.0
 72
1
  3

 73
1
 74
1
 75
1
 94
63
  0
MLINESTYLE
  5
22
102
{ACAD_REACTORS
330
10
102
}
330
10
100
AcDbMlineStyle
  2
Standard
 70
0
  3

 62
256
 51
90.0
 52
90.0
 71
2
 49
0.5
 62
256
  6
BYLAYER
 49
-0.5
 62
256
  6
BYLAYER
  0
MLEADERSTYLE
  5
2C
102
{ACAD_REACTORS
330
F
102
}
330
F
100
AcDbMLeaderStyle
179
2
170
2
171
1
172
0
 90
2
 40
0.0
 41
0.0
173
1
 91
-1056964608
 92
-2
290
1
 42
2.0
291
1
 43
8.0
  3
Standard
 44
4.0
300

342
29
174
1
175
1
176
0
178
1
 93
-1056964608
 45
4.0
292
0
297
0
 46
4.0
 94
-1056964608
 47
1.0
 49
1.0
140
1.0
294
1
141
0.0
177
0
142
1.0
295
0
296
0
143
3.75
271
0
272
9
273
9
  0
DICTIONARY
  5
2D
330
A
100
AcDbDictionary
281
1
  3
CREATED_BY_EZDXF
350
2E
  3
WRITTEN_BY_EZDXF
350
BA
  0
DICTIONARYVAR
  5
2E
330
2D
100
DictionaryVariables
280
0
  1
1.1.0 @ 2024-03-26T01:33:48.550512+00:00
  0
VISUALSTYLE
  5
5A
102
{ACAD_REACTORS
330
16
102
}
330
16
100
AcDbVisualStyle
  2
2dWireframe
 70
4
 90
0
 40
0.6
 62
7
290
0
291
0
  0
VISUALSTYLE
  5
5B
102
{ACAD_REACTORS
330
16
102
}
330
16
100
AcDbVisualStyle
  2
Basic
 70
7
 90
1
 40
0.6
 62
7
290
0
291
1
  0
VISUALSTYLE
  5
5C
102
{ACAD_REACTORS
330
16
102
}
330
16
100
AcDbVisualStyle
  2
Brighten
 70
12
 90
2
 40
0.6
 62
7
290
0
291
1
  0
VISUALSTYLE
  5
5D
102
{ACAD_REACTORS
330
16
102
}
330
16
100
AcDbVisualStyle
  2
ColorChange
 70
16
 90
2
 40
0.6
 62
8
290
0
291
1
  0
VISUALSTYLE
  5
5E
102
{ACAD_REACTORS
330
16
102
}
330
16
100
AcDbVisualStyle
  2
Conceptual
 70
9
 90
3
 40
0.6
 62
7
290
0
291
0
  0
VISUALSTYLE
  5
5F
102
{ACAD_REACTORS
330
16
102
}
330
16
100
AcDbVisualStyle
  2
Dim
 70
11
 90
2
 40
0.6
 62
7
290
0
291
1
  0
VISUALSTYLE
  5
60
102
{ACAD_REACTORS
330
16
102
}
330
16
100
AcDbVisualStyle
  2
EdgeColorOff
 70
22
 90
2
 40
0.6
 62
7
290
0
291
1
  0
VISUALSTYLE
  5
61
102
{ACAD_REACTORS
330
16
102
}
330
16
100
AcDbVisualStyle
  2
Facepattern
 70
15
 90
2
 40
0.6
 62
7
290
0
291
1
  0
VISUALSTYLE
  5
62
102
{ACAD_REACTORS
330
16
102
}
330
16
100
AcDbVisualStyle
  2
Flat
 70
0
 90
2
 40
0.6
 62
7
290
0
291
1
  0
VISUALSTYLE
  5
63
102
{ACAD_REACTORS
330
16
102
}
330
16
100
AcDbVisualStyle
  2
FlatWithEdges
 70
1
 90
2
 40
0.6
 62
7
290
0
291
1
  0
VISUALSTYLE
  5
64
102
{ACAD_REACTORS
330
16
102
}
330
16
100
AcDbVisualStyle
  2
Gouraud
 70
2
 90
2
 40
0.6
 62
7
290
0
291
1
  0
VISUALSTYLE
  5
65
102
{ACAD_REACTORS
330
16
102
}
330
16
100
AcDbVisualStyle
  2
GouraudWithEdges
 70
3
 90
2
 40
0.6
 62
7
290
0
291
1
  0
VISUALSTYLE
  5
66
102
{ACAD_REACTORS
330
16
102
}
330
16
100
AcDbVisualStyle
  2
Hidden
 70
6
 90
1
 40
0.6
 62
7
290
0
291
0
  0
VISUALSTYLE
  5
67
102
{ACAD_REACTORS
330
16
102
}
330
16
100
AcDbVisualStyle
  2
JitterOff
 70
20
 90
2
 40
0.6
 62
7
290
0
291
1
  0
VISUALSTYLE
  5
68
102
{ACAD_REACTORS
330
16
102
}
330
16
100
AcDbVisualStyle
  2
Linepattern
 70
14
 90
2
 40
0.6
 62
7
290
0
291
1
  0
VISUALSTYLE
  5
69
102
{ACAD_REACTORS
330
16
102
}
330
16
100
AcDbVisualStyle
  2
Modeling
 70
10
 90
2
 40
0.6
 62
7
290
0
291
0
  0
VISUALSTYLE
  5
6A
102
{ACAD_REACTORS
330
16
102
}
330
16
100
AcDbVisualStyle
  2
OverhangOff
 70
21
 90
2
 40
0.6
 62
7
290
0
291
1
  0
VISUALSTYLE
  5
6B
102
{ACAD_REACTORS
330
16
102
}
330
16
100
AcDbVisualStyle
  2
Realistic
 70
8
 90
2
 40
0.6
 62
7
290
0
291
0
  0
VISUALSTYLE
  5
6C
102
{ACAD_REACTORS
330
16
102
}
330
16
100
AcDbVisualStyle
  2
Shaded
 70
27
 90
2
 40
0.6
 62
7
290
0
291
0
  0
VISUALSTYLE
  5
6D
102
{ACAD_REACTORS
330
16
102
}
330
16
100
AcDbVisualStyle
  2
Shaded with edges
 70
26
 90
2
 40
0.6
 62
7
290
0
291
0
  0
VISUALSTYLE
  5
6E
102
{ACAD_REACTORS
330
16
102
}
330
16
100
AcDbVisualStyle
  2
Shades of Gray
 70
23
 90
2
 40
0.6
 62
7
290
0
291
0
  0
VISUALSTYLE
  5
6F
102
{ACAD_REACTORS
330
16
102
}
330
16
100
AcDbVisualStyle
  2
Sketchy
 70
24
 90
1
 40
0.6
 62
7
290
0
291
0
  0
VISUALSTYLE
  5
70
102
{ACAD_REACTORS
330
16
102
}
330
16
100
AcDbVisualStyle
  2
Thicken
 70
13
 90
2
 40
0.6
 62
7
290
0
291
1
  0
VISUALSTYLE
  5
71
102
{ACAD_REACTORS
330
16
102
}
330
16
100
AcDbVisualStyle
  2
Wireframe
 70
5
 90
0
 40
0.6
 62
7
290
0
291
0
  0
VISUALSTYLE
  5
72
102
{ACAD_REACTORS
330
16
102
}
330
16
100
AcDbVisualStyle
  2
X-Ray
 70
25
 90
2
 40
0.5
 62
7
290
0
291
0
  0
DICTIONARYVAR
  5
BA
330
2D
100
DictionaryVariables
280
0
  1
1.1.0 @ 2024-03-26T01:33:48.573647+00:00
  0
ENDSEC
  0
EOF
