  0
SECTION
  2
HEADER
  9
$ACADVER
  1
AC1021
  9
$ACADMAINTVER
 70
25
  9
$DWGCODEPAGE
  3
ANSI_1252
  9
$LASTSAVEDBY
  1
ezdxf
  9
$INSBASE
 10
0.0
 20
0.0
 30
0.0
  9
$EXTMIN
 10
1e+20
 20
1e+20
 30
1e+20
  9
$EXTMAX
 10
-1e+20
 20
-1e+20
 30
-1e+20
  9
$LIMMIN
 10
0.0
 20
0.0
  9
$LIMMAX
 10
420.0
 20
297.0
  9
$ORTHOMODE
 70
0
  9
$REGENMODE
 70
1
  9
$FILLMODE
 70
1
  9
$QTEXTMODE
 70
0
  9
$MIRRTEXT
 70
1
  9
$LTSCALE
 40
1.0
  9
$ATTMODE
 70
1
  9
$TEXTSIZE
 40
2.5
  9
$TRACEWID
 40
1.0
  9
$TEXTSTYLE
  7
OpenSans
  9
$CLAYER
  8
0
  9
$CELTYPE
  6
ByLayer
  9
$CECOLOR
 62
256
  9
$CELTSCALE
 40
1.0
  9
$DISPSILH
 70
0
  9
$DIMSCALE
 40
1.0
  9
$DIMASZ
 40
0.175
  9
$DIMEXO
 40
0.125
  9
$DIMDLI
 40
3.75
  9
$DIMRND
 40
0.0
  9
$DIMDLE
 40
0.0
  9
$DIMEXE
 40
0.375
  9
$DIMTP
 40
0.0
  9
$DIMTM
 40
0.0
  9
$DIMTXT
 40
0.25
  9
$DIMCEN
 40
2.5
  9
$DIMTSZ
 40
0.0
  9
$DIMTOL
 70
0
  9
$DIMLIM
 70
0
  9
$DIMTIH
 70
0
  9
$DIMTOH
 70
0
  9
$DIMSE1
 70
0
  9
$DIMSE2
 70
0
  9
$DIMTAD
 70
1
  9
$DIMZIN
 70
12
  9
$DIMBLK
  1
ARCHTICK
  9
$DIMASO
 70
1
  9
$DIMSHO
 70
1
  9
$DIMPOST
  1

  9
$DIMAPOST
  1

  9
$DIMALT
 70
0
  9
$DIMALTD
 70
3
  9
$DIMALTF
 40
0.03937007874
  9
$DIMLFAC
 40
100.0
  9
$DIMTOFL
 70
1
  9
$DIMTVP
 40
0.0
  9
$DIMTIX
 70
0
  9
$DIMSOXD
 70
0
  9
$DIMSAH
 70
0
  9
$DIMBLK1
  1

  9
$DIMBLK2
  1

  9
$DIMSTYLE
  2
EZDXF
  9
$DIMCLRD
 70
0
  9
$DIMCLRE
 70
0
  9
$DIMCLRT
 70
0
  9
$DIMTFAC
 40
0.5
  9
$DIMGAP
 40
0.1
  9
$DIMJUST
 70
0
  9
$DIMSD1
 70
0
  9
$DIMSD2
 70
0
  9
$DIMTOLJ
 70
0
  9
$DIMTZIN
 70
8
  9
$DIMALTZ
 70
0
  9
$DIMALTTZ
 70
0
  9
$DIMUPT
 70
1
  9
$DIMDEC
 70
2
  9
$DIMTDEC
 70
2
  9
$DIMALTU
 70
2
  9
$DIMALTTD
 70
3
  9
$DIMTXSTY
  7
OpenSansCondensed-Light
  9
$DIMAUNIT
 70
0
  9
$DIMADEC
 70
2
  9
$DIMALTRND
 40
0.0
  9
$DIMAZIN
 70
3
  9
$DIMDSEP
 70
46
  9
$DIMATFIT
 70
3
  9
$DIMFRAC
 70
0
  9
$DIMLDRBLK
  1

  9
$DIMLUNIT
 70
2
  9
$DIMLWD
 70
-2
  9
$DIMLWE
 70
-2
  9
$DIMTMOVE
 70
2
  9
$DIMFXL
 40
1.0
  9
$DIMFXLON
 70
0
  9
$DIMJOGANG
 40
0.785398163397
  9
$DIMTFILL
 70
0
  9
$DIMTFILLCLR
 70
0
  9
$DIMARCSYM
 70
0
  9
$DIMLTYPE
  6

  9
$DIMLTEX1
  6

  9
$DIMLTEX2
  6

  9
$LUNITS
 70
2
  9
$LUPREC
 70
4
  9
$SKETCHINC
 40
1.0
  9
$FILLETRAD
 40
10.0
  9
$AUNITS
 70
0
  9
$AUPREC
 70
2
  9
$MENU
  1
.
  9
$ELEVATION
 40
0.0
  9
$PELEVATION
 40
0.0
  9
$THICKNESS
 40
0.0
  9
$LIMCHECK
 70
0
  9
$CHAMFERA
 40
0.0
  9
$CHAMFERB
 40
0.0
  9
$CHAMFERC
 40
0.0
  9
$CHAMFERD
 40
0.0
  9
$SKPOLY
 70
0
  9
$TDCREATE
 40
2460396.440162037
  9
$TDUCREATE
 40
2458532.153996898
  9
$TDUPDATE
 40
2460396.440162037
  9
$TDUUPDATE
 40
2458532.1544311
  9
$TDINDWG
 40
0.0
  9
$TDUSRTIMER
 40
0.0
  9
$USRTIMER
 70
1
  9
$ANGBASE
 50
0.0
  9
$ANGDIR
 70
0
  9
$PDMODE
 70
0
  9
$PDSIZE
 40
0.0
  9
$PLINEWID
 40
0.0
  9
$SPLFRAME
 70
0
  9
$SPLINETYPE
 70
6
  9
$SPLINESEGS
 70
8
  9
$HANDSEED
  5
B4
  9
$SURFTAB1
 70
6
  9
$SURFTAB2
 70
6
  9
$SURFTYPE
 70
6
  9
$SURFU
 70
6
  9
$SURFV
 70
6
  9
$UCSBASE
  2

  9
$UCSNAME
  2

  9
$UCSORG
 10
0.0
 20
0.0
 30
0.0
  9
$UCSXDIR
 10
1.0
 20
0.0
 30
0.0
  9
$UCSYDIR
 10
0.0
 20
1.0
 30
0.0
  9
$UCSORTHOREF
  2

  9
$UCSORTHOVIEW
 70
0
  9
$UCSORGTOP
 10
0.0
 20
0.0
 30
0.0
  9
$UCSORGBOTTOM
 10
0.0
 20
0.0
 30
0.0
  9
$UCSORGLEFT
 10
0.0
 20
0.0
 30
0.0
  9
$UCSORGRIGHT
 10
0.0
 20
0.0
 30
0.0
  9
$UCSORGFRONT
 10
0.0
 20
0.0
 30
0.0
  9
$UCSORGBACK
 10
0.0
 20
0.0
 30
0.0
  9
$PUCSBASE
  2

  9
$PUCSNAME
  2

  9
$PUCSORG
 10
0.0
 20
0.0
 30
0.0
  9
$PUCSXDIR
 10
1.0
 20
0.0
 30
0.0
  9
$PUCSYDIR
 10
0.0
 20
1.0
 30
0.0
  9
$PUCSORTHOREF
  2

  9
$PUCSORTHOVIEW
 70
0
  9
$PUCSORGTOP
 10
0.0
 20
0.0
 30
0.0
  9
$PUCSORGBOTTOM
 10
0.0
 20
0.0
 30
0.0
  9
$PUCSORGLEFT
 10
0.0
 20
0.0
 30
0.0
  9
$PUCSORGRIGHT
 10
0.0
 20
0.0
 30
0.0
  9
$PUCSORGFRONT
 10
0.0
 20
0.0
 30
0.0
  9
$PUCSORGBACK
 10
0.0
 20
0.0
 30
0.0
  9
$USERI1
 70
0
  9
$USERI2
 70
0
  9
$USERI3
 70
0
  9
$USERI4
 70
0
  9
$USERI5
 70
0
  9
$USERR1
 40
0.0
  9
$USERR2
 40
0.0
  9
$USERR3
 40
0.0
  9
$USERR4
 40
0.0
  9
$USERR5
 40
0.0
  9
$WORLDVIEW
 70
1
  9
$SHADEDGE
 70
3
  9
$SHADEDIF
 70
70
  9
$TILEMODE
 70
1
  9
$MAXACTVP
 70
64
  9
$PINSBASE
 10
0.0
 20
0.0
 30
0.0
  9
$PLIMCHECK
 70
0
  9
$PEXTMIN
 10
1e+20
 20
1e+20
 30
1e+20
  9
$PEXTMAX
 10
-1e+20
 20
-1e+20
 30
-1e+20
  9
$PLIMMIN
 10
0.0
 20
0.0
  9
$PLIMMAX
 10
420.0
 20
297.0
  9
$UNITMODE
 70
0
  9
$VISRETAIN
 70
1
  9
$PLINEGEN
 70
0
  9
$PSLTSCALE
 70
1
  9
$TREEDEPTH
 70
3020
  9
$CMLSTYLE
  2
Standard
  9
$CMLJUST
 70
0
  9
$CMLSCALE
 40
20.0
  9
$PROXYGRAPHICS
 70
1
  9
$MEASUREMENT
 70
1
  9
$CELWEIGHT
370
-1
  9
$ENDCAPS
280
0
  9
$JOINSTYLE
280
0
  9
$LWDISPLAY
290
0
  9
$INSUNITS
 70
6
  9
$HYPERLINKBASE
  1

  9
$STYLESHEET
  1

  9
$XEDIT
290
1
  9
$CEPSNTYPE
380
0
  9
$PSTYLEMODE
290
1
  9
$FINGERPRINTGUID
  2
{73F4FDB9-860D-4699-8EA9-CDAC30F3C3A9}
  9
$VERSIONGUID
  2
{1C919656-7D4D-41E8-9399-3C822979695F}
  9
$EXTNAMES
290
1
  9
$PSVPSCALE
 40
0.0
  9
$OLESTARTUP
290
0
  9
$SORTENTS
280
127
  9
$INDEXCTL
280
0
  9
$HIDETEXT
280
1
  9
$XCLIPFRAME
290
0
  9
$HALOGAP
280
0
  9
$OBSCOLOR
 70
257
  9
$OBSLTYPE
280
0
  9
$INTERSECTIONDISPLAY
280
0
  9
$INTERSECTIONCOLOR
 70
257
  9
$DIMASSOC
280
2
  9
$PROJECTNAME
  1

  9
$CAMERADISPLAY
290
0
  9
$LENSLENGTH
 40
50.0
  9
$CAMERAHEIGHT
 40
0.0
  9
$STEPSPERSEC
 40
24.0
  9
$STEPSIZE
 40
100.0
  9
$3DDWFPREC
 40
2.0
  9
$PSOLWIDTH
 40
0.005
  9
$PSOLHEIGHT
 40
0.08
  9
$LOFTANG1
 40
1.570796326795
  9
$LOFTANG2
 40
1.570796326795
  9
$LOFTMAG1
 40
0.0
  9
$LOFTMAG2
 40
0.0
  9
$LOFTPARAM
 70
7
  9
$LOFTNORMALS
280
1
  9
$LATITUDE
 40
37.795
  9
$LONGITUDE
 40
-122.394
  9
$NORTHDIRECTION
 40
0.0
  9
$TIMEZONE
 70
-8000
  9
$LIGHTGLYPHDISPLAY
280
1
  9
$TILEMODELIGHTSYNCH
280
1
  9
$CMATERIAL
347
20
  9
$SOLIDHIST
280
0
  9
$SHOWHIST
280
1
  9
$DWFFRAME
280
2
  9
$DGNFRAME
280
2
  9
$REALWORLDSCALE
290
1
  9
$INTERFERECOLOR
 62
256
  9
$CSHADOW
280
0
  9
$SHADOWPLANELOCATION
 40
0.0
  0
ENDSEC
  0
SECTION
  2
CLASSES
  0
CLASS
  1
ACDBDICTIONARYWDFLT
  2
AcDbDictionaryWithDefault
  3
ObjectDBX Classes
 90
0
 91
0
280
0
281
0
  0
CLASS
  1
SUN
  2
AcDbSun
  3
SCENEOE
 90
1153
 91
0
280
0
281
0
  0
CLASS
  1
VISUALSTYLE
  2
AcDbVisualStyle
  3
ObjectDBX Classes
 90
4095
 91
0
280
0
281
0
  0
CLASS
  1
MATERIAL
  2
AcDbMaterial
  3
ObjectDBX Classes
 90
1153
 91
0
280
0
281
0
  0
CLASS
  1
SCALE
  2
AcDbScale
  3
ObjectDBX Classes
 90
1153
 91
0
280
0
281
0
  0
CLASS
  1
TABLESTYLE
  2
AcDbTableStyle
  3
ObjectDBX Classes
 90
4095
 91
0
280
0
281
0
  0
CLASS
  1
MLEADERSTYLE
  2
AcDbMLeaderStyle
  3
ACDB_MLEADERSTYLE_CLASS
 90
4095
 91
0
280
0
281
0
  0
CLASS
  1
DICTIONARYVAR
  2
AcDbDictionaryVar
  3
ObjectDBX Classes
 90
0
 91
0
280
0
281
0
  0
CLASS
  1
CELLSTYLEMAP
  2
AcDbCellStyleMap
  3
ObjectDBX Classes
 90
1152
 91
0
280
0
281
0
  0
CLASS
  1
MENTALRAYRENDERSETTINGS
  2
AcDbMentalRayRenderSettings
  3
SCENEOE
 90
1024
 91
0
280
0
281
0
  0
CLASS
  1
ACDBDETAILVIEWSTYLE
  2
AcDbDetailViewStyle
  3
ObjectDBX Classes
 90
1025
 91
0
280
0
281
0
  0
CLASS
  1
ACDBSECTIONVIEWSTYLE
  2
AcDbSectionViewStyle
  3
ObjectDBX Classes
 90
1025
 91
0
280
0
281
0
  0
CLASS
  1
RASTERVARIABLES
  2
AcDbRasterVariables
  3
ISM
 90
0
 91
0
280
0
281
0
  0
CLASS
  1
LAYOUT
  2
AcDbLayout
  3
ObjectDBX Classes
 90
0
 91
0
280
0
281
0
  0
CLASS
  1
ACDBPLACEHOLDER
  2
AcDbPlaceHolder
  3
ObjectDBX Classes
 90
0
 91
0
280
0
281
0
  0
ENDSEC
  0
SECTION
  2
TABLES
  0
TABLE
  2
VPORT
  5
8
330
0
100
AcDbSymbolTable
 70
1
  0
VPORT
  5
23
330
8
100
AcDbSymbolTableRecord
100
AcDbViewportTableRecord
  2
*Active
 70
0
 10
0.0
 20
0.0
 11
1.0
 21
1.0
 12
0.0
 22
0.0
 13
0.0
 23
0.0
 14
0.5
 24
0.5
 15
0.5
 25
0.5
 16
0.0
 26
0.0
 36
1.0
 17
0.0
 27
0.0
 37
0.0
 40
1000.0
 41
1.34
 42
50.0
 43
0.0
 44
0.0
 50
0.0
 51
0.0
 71
0
 72
1000
 73
1
 74
3
 75
0
 76
0
 77
0
 78
0
281
0
 65
0
146
0.0
  0
ENDTAB
  0
TABLE
  2
LTYPE
  5
2
330
0
100
AcDbSymbolTable
 70
21
  0
LTYPE
  5
24
330
2
100
AcDbSymbolTableRecord
100
AcDbLinetypeTableRecord
  2
ByBlock
 70
0
  3

 72
65
 73
0
 40
0.0
  0
LTYPE
  5
25
330
2
100
AcDbSymbolTableRecord
100
AcDbLinetypeTableRecord
  2
ByLayer
 70
0
  3

 72
65
 73
0
 40
0.0
  0
LTYPE
  5
26
330
2
100
AcDbSymbolTableRecord
100
AcDbLinetypeTableRecord
  2
Continuous
 70
0
  3

 72
65
 73
0
 40
0.0
  0
LTYPE
  5
2F
330
2
100
AcDbSymbolTableRecord
100
AcDbLinetypeTableRecord
  2
CENTER
 70
0
  3
Center ____ _ ____ _ ____ _ ____ _ ____ _ ____
 72
65
 73
4
 40
5.08
 49
3.175
 74
0
 49
-0.635
 74
0
 49
0.635
 74
0
 49
-0.635
 74
0
  0
LTYPE
  5
30
330
2
100
AcDbSymbolTableRecord
100
AcDbLinetypeTableRecord
  2
CENTERX2
 70
0
  3
Center (2x) ________  __  ________  __  ________
 72
65
 73
4
 40
8.89
 49
6.35
 74
0
 49
-0.635
 74
0
 49
1.27
 74
0
 49
-0.635
 74
0
  0
LTYPE
  5
31
330
2
100
AcDbSymbolTableRecord
100
AcDbLinetypeTableRecord
  2
CENTER2
 70
0
  3
Center (.5x) ____ _ ____ _ ____ _ ____ _ ____
 72
65
 73
4
 40
2.54
 49
1.587
 74
0
 49
-0.318
 74
0
 49
0.318
 74
0
 49
-0.318
 74
0
  0
LTYPE
  5
32
330
2
100
AcDbSymbolTableRecord
100
AcDbLinetypeTableRecord
  2
DASHED
 70
0
  3
Dashed __ __ __ __ __ __ __ __ __ __ __ __ __ _
 72
65
 73
2
 40
1.524
 49
1.27
 74
0
 49
-0.254
 74
0
  0
LTYPE
  5
33
330
2
100
AcDbSymbolTableRecord
100
AcDbLinetypeTableRecord
  2
DASHEDX2
 70
0
  3
Dashed (2x) ____  ____  ____  ____  ____  ____
 72
65
 73
2
 40
3.048
 49
2.54
 74
0
 49
-0.508
 74
0
  0
LTYPE
  5
34
330
2
100
AcDbSymbolTableRecord
100
AcDbLinetypeTableRecord
  2
DASHED2
 70
0
  3
Dashed (.5x) _ _ _ _ _ _ _ _ _ _ _ _ _ _
 72
65
 73
2
 40
0.762
 49
0.635
 74
0
 49
-0.127
 74
0
  0
LTYPE
  5
35
330
2
100
AcDbSymbolTableRecord
100
AcDbLinetypeTableRecord
  2
PHANTOM
 70
0
  3
Phantom ______  __  __  ______  __  __  ______
 72
65
 73
6
 40
6.35
 49
3.175
 74
0
 49
-0.635
 74
0
 49
0.635
 74
0
 49
-0.635
 74
0
 49
0.635
 74
0
 49
-0.635
 74
0
  0
LTYPE
  5
36
330
2
100
AcDbSymbolTableRecord
100
AcDbLinetypeTableRecord
  2
PHANTOMX2
 70
0
  3
Phantom (2x)____________    ____    ____    ____________
 72
65
 73
6
 40
10.795
 49
6.35
 74
0
 49
-0.635
 74
0
 49
1.27
 74
0
 49
-0.635
 74
0
 49
1.27
 74
0
 49
-0.635
 74
0
  0
LTYPE
  5
37
330
2
100
AcDbSymbolTableRecord
100
AcDbLinetypeTableRecord
  2
PHANTOM2
 70
0
  3
Phantom (.5x) ___ _ _ ___ _ _ ___ _ _ ___ _ _ ___
 72
65
 73
6
 40
3.175
 49
1.587
 74
0
 49
-0.318
 74
0
 49
0.318
 74
0
 49
-0.318
 74
0
 49
0.318
 74
0
 49
-0.318
 74
0
  0
LTYPE
  5
38
330
2
100
AcDbSymbolTableRecord
100
AcDbLinetypeTableRecord
  2
DASHDOT
 70
0
  3
Dash dot __ . __ . __ . __ . __ . __ . __ . __
 72
65
 73
4
 40
3.556
 49
2.54
 74
0
 49
-0.508
 74
0
 49
0.0
 74
0
 49
-0.508
 74
0
  0
LTYPE
  5
39
330
2
100
AcDbSymbolTableRecord
100
AcDbLinetypeTableRecord
  2
DASHDOTX2
 70
0
  3
Dash dot (2x) ____  .  ____  .  ____  .  ____
 72
65
 73
4
 40
6.096
 49
5.08
 74
0
 49
-0.508
 74
0
 49
0.0
 74
0
 49
-0.508
 74
0
  0
LTYPE
  5
3A
330
2
100
AcDbSymbolTableRecord
100
AcDbLinetypeTableRecord
  2
DASHDOT2
 70
0
  3
Dash dot (.5x) _ . _ . _ . _ . _ . _ . _ . _
 72
65
 73
4
 40
1.778
 49
1.27
 74
0
 49
-0.254
 74
0
 49
0.0
 74
0
 49
-0.254
 74
0
  0
LTYPE
  5
3B
330
2
100
AcDbSymbolTableRecord
100
AcDbLinetypeTableRecord
  2
DOT
 70
0
  3
Dot .  .  .  .  .  .  .  .  .  .  .  .  .  .  .  .
 72
65
 73
2
 40
0.508
 49
0.0
 74
0
 49
-0.508
 74
0
  0
LTYPE
  5
3C
330
2
100
AcDbSymbolTableRecord
100
AcDbLinetypeTableRecord
  2
DOTX2
 70
0
  3
Dot (2x) .    .    .    .    .    .    .    . 
 72
65
 73
2
 40
1.016
 49
0.0
 74
0
 49
-1.016
 74
0
  0
LTYPE
  5
3D
330
2
100
AcDbSymbolTableRecord
100
AcDbLinetypeTableRecord
  2
DOT2
 70
0
  3
Dot (.5) . . . . . . . . . . . . . . . . . . . 
 72
65
 73
2
 40
0.254
 49
0.0
 74
0
 49
-0.254
 74
0
  0
LTYPE
  5
3E
330
2
100
AcDbSymbolTableRecord
100
AcDbLinetypeTableRecord
  2
DIVIDE
 70
0
  3
Divide __ . . __ . . __ . . __ . . __ . . __
 72
65
 73
6
 40
4.064
 49
2.54
 74
0
 49
-0.508
 74
0
 49
0.0
 74
0
 49
-0.508
 74
0
 49
0.0
 74
0
 49
-0.508
 74
0
  0
LTYPE
  5
3F
330
2
100
AcDbSymbolTableRecord
100
AcDbLinetypeTableRecord
  2
DIVIDEX2
 70
0
  3
Divide (2x) ____  . .  ____  . .  ____  . .  ____
 72
65
 73
6
 40
6.604
 49
5.08
 74
0
 49
-0.508
 74
0
 49
0.0
 74
0
 49
-0.508
 74
0
 49
0.0
 74
0
 49
-0.508
 74
0
  0
LTYPE
  5
40
330
2
100
AcDbSymbolTableRecord
100
AcDbLinetypeTableRecord
  2
DIVIDE2
 70
0
  3
Divide(.5x) _ . _ . _ . _ . _ . _ . _ . _
 72
65
 73
6
 40
2.032
 49
1.27
 74
0
 49
-0.254
 74
0
 49
0.0
 74
0
 49
-0.254
 74
0
 49
0.0
 74
0
 49
-0.254
 74
0
  0
ENDTAB
  0
TABLE
  2
LAYER
  5
1
330
0
100
AcDbSymbolTable
 70
3
  0
LAYER
  5
27
330
1
100
AcDbSymbolTableRecord
100
AcDbLayerTableRecord
  2
0
 70
0
 62
7
  6
Continuous
370
-3
390
13
347
21
  0
LAYER
  5
28
330
1
100
AcDbSymbolTableRecord
100
AcDbLayerTableRecord
  2
Defpoints
 70
0
 62
7
  6
Continuous
290
0
370
-3
390
13
347
21
  0
LAYER
  5
8A
330
1
100
AcDbSymbolTableRecord
100
AcDbLayerTableRecord
  2
Layer
 70
0
 62
1
  6
Continuous
370
50
390
13
347
21
  0
ENDTAB
  0
TABLE
  2
STYLE
  5
5
330
0
100
AcDbSymbolTable
 70
26
  0
STYLE
  5
29
330
5
100
AcDbSymbolTableRecord
100
AcDbTextStyleTableRecord
  2
Standard
 70
0
 40
0.0
 41
1.0
 50
0.0
 71
0
 42
2.5
  3
txt
  4

  0
STYLE
  5
41
330
5
100
AcDbSymbolTableRecord
100
AcDbTextStyleTableRecord
  2
OpenSans-Light
 70
0
 40
0.0
 41
1.0
 50
0.0
 71
0
 42
2.5
  3
OpenSans-Light.ttf
  4

  0
STYLE
  5
42
330
5
100
AcDbSymbolTableRecord
100
AcDbTextStyleTableRecord
  2
OpenSans-Light-Italic
 70
0
 40
0.0
 41
1.0
 50
0.0
 71
0
 42
2.5
  3
OpenSans-LightItalic.ttf
  4

  0
STYLE
  5
43
330
5
100
AcDbSymbolTableRecord
100
AcDbTextStyleTableRecord
  2
OpenSans
 70
0
 40
0.0
 41
1.0
 50
0.0
 71
0
 42
2.5
  3
OpenSans-Regular.ttf
  4

  0
STYLE
  5
44
330
5
100
AcDbSymbolTableRecord
100
AcDbTextStyleTableRecord
  2
OpenSans-Italic
 70
0
 40
0.0
 41
1.0
 50
0.0
 71
0
 42
2.5
  3
OpenSans-Italic.ttf
  4

  0
STYLE
  5
45
330
5
100
AcDbSymbolTableRecord
100
AcDbTextStyleTableRecord
  2
OpenSans-SemiBold
 70
0
 40
0.0
 41
1.0
 50
0.0
 71
0
 42
2.5
  3
OpenSans-SemiBold.ttf
  4

  0
STYLE
  5
46
330
5
100
AcDbSymbolTableRecord
100
AcDbTextStyleTableRecord
  2
OpenSans-SemiBoldItalic
 70
0
 40
0.0
 41
1.0
 50
0.0
 71
0
 42
2.5
  3
OpenSans-SemiBoldItalic.ttf
  4

  0
STYLE
  5
47
330
5
100
AcDbSymbolTableRecord
100
AcDbTextStyleTableRecord
  2
OpenSans-Bold
 70
0
 40
0.0
 41
1.0
 50
0.0
 71
0
 42
2.5
  3
OpenSans-Bold.ttf
  4

  0
STYLE
  5
48
330
5
100
AcDbSymbolTableRecord
100
AcDbTextStyleTableRecord
  2
OpenSans-BoldItalic
 70
0
 40
0.0
 41
1.0
 50
0.0
 71
0
 42
2.5
  3
OpenSans-BoldItalic.ttf
  4

  0
STYLE
  5
49
330
5
100
AcDbSymbolTableRecord
100
AcDbTextStyleTableRecord
  2
OpenSans-ExtraBold
 70
0
 40
0.0
 41
1.0
 50
0.0
 71
0
 42
2.5
  3
OpenSans-ExtraBold.ttf
  4

  0
STYLE
  5
4A
330
5
100
AcDbSymbolTableRecord
100
AcDbTextStyleTableRecord
  2
OpenSans-ExtraBoldItalic
 70
0
 40
0.0
 41
1.0
 50
0.0
 71
0
 42
2.5
  3
OpenSans-ExtraBoldItalic.ttf
  4

  0
STYLE
  5
4B
330
5
100
AcDbSymbolTableRecord
100
AcDbTextStyleTableRecord
  2
OpenSansCondensed-Bold
 70
0
 40
0.0
 41
1.0
 50
0.0
 71
0
 42
2.5
  3
OpenSansCondensed-Bold.ttf
  4

  0
STYLE
  5
4C
330
5
100
AcDbSymbolTableRecord
100
AcDbTextStyleTableRecord
  2
OpenSansCondensed-Light
 70
0
 40
0.0
 41
1.0
 50
0.0
 71
0
 42
2.5
  3
OpenSansCondensed-Light.ttf
  4

  0
STYLE
  5
4D
330
5
100
AcDbSymbolTableRecord
100
AcDbTextStyleTableRecord
  2
OpenSansCondensed-Italic
 70
0
 40
0.0
 41
1.0
 50
0.0
 71
0
 42
2.5
  3
OpenSansCondensed-LightItalic.ttf
  4

  0
STYLE
  5
4E
330
5
100
AcDbSymbolTableRecord
100
AcDbTextStyleTableRecord
  2
LiberationSans
 70
0
 40
0.0
 41
1.0
 50
0.0
 71
0
 42
2.5
  3
LiberationSans-Regular.ttf
  4

  0
STYLE
  5
4F
330
5
100
AcDbSymbolTableRecord
100
AcDbTextStyleTableRecord
  2
LiberationSans-Bold
 70
0
 40
0.0
 41
1.0
 50
0.0
 71
0
 42
2.5
  3
LiberationSans-Bold.ttf
  4

  0
STYLE
  5
50
330
5
100
AcDbSymbolTableRecord
100
AcDbTextStyleTableRecord
  2
LiberationSans-BoldItalic
 70
0
 40
0.0
 41
1.0
 50
0.0
 71
0
 42
2.5
  3
LiberationSans-BoldItalic.ttf
  4

  0
STYLE
  5
51
330
5
100
AcDbSymbolTableRecord
100
AcDbTextStyleTableRecord
  2
LiberationSans-Italic
 70
0
 40
0.0
 41
1.0
 50
0.0
 71
0
 42
2.5
  3
LiberationSans-Italic.ttf
  4

  0
STYLE
  5
52
330
5
100
AcDbSymbolTableRecord
100
AcDbTextStyleTableRecord
  2
LiberationSerif
 70
0
 40
0.0
 41
1.0
 50
0.0
 71
0
 42
2.5
  3
LiberationSerif-Regular.ttf
  4

  0
STYLE
  5
53
330
5
100
AcDbSymbolTableRecord
100
AcDbTextStyleTableRecord
  2
LiberationSerif-Bold
 70
0
 40
0.0
 41
1.0
 50
0.0
 71
0
 42
2.5
  3
LiberationSerif-Bold.ttf
  4

  0
STYLE
  5
54
330
5
100
AcDbSymbolTableRecord
100
AcDbTextStyleTableRecord
  2
LiberationSerif-BoldItalic
 70
0
 40
0.0
 41
1.0
 50
0.0
 71
0
 42
2.5
  3
LiberationSerif-BoldItalic.ttf
  4

  0
STYLE
  5
55
330
5
100
AcDbSymbolTableRecord
100
AcDbTextStyleTableRecord
  2
LiberationSerif-Italic
 70
0
 40
0.0
 41
1.0
 50
0.0
 71
0
 42
2.5
  3
LiberationSerif-Italic.ttf
  4

  0
STYLE
  5
56
330
5
100
AcDbSymbolTableRecord
100
AcDbTextStyleTableRecord
  2
LiberationMono
 70
0
 40
0.0
 41
1.0
 50
0.0
 71
0
 42
2.5
  3
LiberationMono-Regular.ttf
  4

  0
STYLE
  5
57
330
5
100
AcDbSymbolTableRecord
100
AcDbTextStyleTableRecord
  2
LiberationMono-Bold
 70
0
 40
0.0
 41
1.0
 50
0.0
 71
0
 42
2.5
  3
LiberationMono-Bold.ttf
  4

  0
STYLE
  5
58
330
5
100
AcDbSymbolTableRecord
100
AcDbTextStyleTableRecord
  2
LiberationMono-BoldItalic
 70
0
 40
0.0
 41
1.0
 50
0.0
 71
0
 42
2.5
  3
LiberationMono-BoldItalic.ttf
  4

  0
STYLE
  5
59
330
5
100
AcDbSymbolTableRecord
100
AcDbTextStyleTableRecord
  2
LiberationMono-Italic
 70
0
 40
0.0
 41
1.0
 50
0.0
 71
0
 42
2.5
  3
LiberationMono-Italic.ttf
  4

  0
ENDTAB
  0
TABLE
  2
VIEW
  5
7
330
0
100
AcDbSymbolTable
 70
0
  0
ENDTAB
  0
TABLE
  2
UCS
  5
6
330
0
100
AcDbSymbolTable
 70
0
  0
ENDTAB
  0
TABLE
  2
APPID
  5
3
330
0
100
AcDbSymbolTable
 70
3
  0
APPID
  5
2A
330
3
100
AcDbSymbolTableRecord
100
AcDbRegAppTableRecord
  2
ACAD
 70
0
  0
APPID
  5
B1
330
3
100
AcDbSymbolTableRecord
100
AcDbRegAppTableRecord
  2
HATCHBACKGROUNDCOLOR
 70
0
  0
APPID
  5
B2
330
3
100
AcDbSymbolTableRecord
100
AcDbRegAppTableRecord
  2
EZDXF
 70
0
  0
ENDTAB
  0
TABLE
  2
DIMSTYLE
  5
4
330
0
100
AcDbSymbolTable
 70
12
100
AcDbDimStyleTable
  0
DIMSTYLE
105
2B
330
4
100
AcDbSymbolTableRecord
100
AcDbDimStyleTableRecord
  2
Standard
 70
0
 40
1.0
 41
2.5
 42
0.625
 43
3.75
 44
1.25
 45
0.0
 46
0.0
 47
0.0
 48
0.0
 49
2.5
140
2.5
141
2.5
142
0.0
143
0.03937007874
144
1.0
145
0.0
146
1.0
147
0.625
148
0.0
 69
0
 70
0
 71
0
 72
0
 73
0
 74
0
 75
0
 76
0
 77
1
 78
8
 79
3
170
0
171
3
172
1
173
0
174
0
175
0
176
0
177
0
178
0
179
2
271
2
272
2
273
2
274
3
275
0
276
0
277
2
278
44
279
0
280
0
281
0
282
0
283
0
284
8
285
0
286
0
288
0
289
3
290
0
371
-2
372
-2
  0
DIMSTYLE
105
73
330
4
100
AcDbSymbolTableRecord
100
AcDbDimStyleTableRecord
  2
EZDXF
 70
0
 40
1.0
 41
0.175
 42
0.125
 43
3.75
 44
0.375
 45
0.0
 46
0.0
 47
0.0
 48
0.0
 49
2.5
140
0.25
141
2.5
142
0.0
143
0.03937007874
144
100.0
145
0.0
146
0.5
147
0.1
148
0.0
 69
0
 70
0
 71
0
 72
0
 73
0
 74
0
 75
0
 76
0
 77
1
 78
12
 79
3
170
0
171
3
172
1
173
0
174
0
175
0
176
0
177
0
178
0
179
2
271
2
272
2
273
2
274
3
275
0
276
0
277
2
278
46
279
2
280
0
281
0
282
0
283
0
284
8
285
0
286
0
288
1
289
3
290
0
340
4C
342
74
371
-2
372
-2
  0
DIMSTYLE
105
7C
330
4
100
AcDbSymbolTableRecord
100
AcDbDimStyleTableRecord
  2
EZ_M_100_H25_CM
 70
0
 40
1.0
 41
0.25
 42
0.125
 43
3.75
 44
0.375
 45
0.0
 46
0.0
 47
0.0
 48
0.0
 49
2.5
140
0.25
141
2.5
142
0.125
143
0.03937007874
144
100.0
145
0.0
146
0.5
147
0.1
148
0.0
 69
0
 70
0
 71
0
 72
0
 73
0
 74
0
 75
0
 76
0
 77
1
 78
12
 79
3
170
0
171
3
172
1
173
0
174
0
175
0
176
0
177
0
178
0
179
2
271
2
272
2
273
2
274
3
275
0
276
0
277
2
278
46
279
2
280
0
281
0
282
0
283
0
284
8
285
0
286
0
288
1
289
3
290
0
340
4C
371
-2
372
-2
  0
DIMSTYLE
105
7D
330
4
100
AcDbSymbolTableRecord
100
AcDbDimStyleTableRecord
  2
EZ_M_50_H25_CM
 70
0
 40
1.0
 41
0.125
 42
0.0625
 43
3.75
 44
0.1875
 45
0.0
 46
0.0
 47
0.0
 48
0.0
 49
2.5
140
0.125
141
2.5
142
0.0625
143
0.03937007874
144
100.0
145
0.0
146
0.5
147
0.05
148
0.0
 69
0
 70
0
 71
0
 72
0
 73
0
 74
0
 75
0
 76
0
 77
1
 78
12
 79
3
170
0
171
3
172
1
173
0
174
0
175
0
176
0
177
0
178
0
179
2
271
2
272
2
273
2
274
3
275
0
276
0
277
2
278
46
279
2
280
0
281
0
282
0
283
0
284
8
285
0
286
0
288
1
289
3
290
0
340
4C
371
-2
372
-2
  0
DIMSTYLE
105
7E
330
4
100
AcDbSymbolTableRecord
100
AcDbDimStyleTableRecord
  2
EZ_M_25_H25_CM
 70
0
 40
1.0
 41
0.0625
 42
0.03125
 43
3.75
 44
0.09375
 45
0.0
 46
0.0
 47
0.0
 48
0.0
 49
2.5
140
0.0625
141
2.5
142
0.03125
143
0.03937007874
144
100.0
145
0.0
146
0.5
147
0.025
148
0.0
 69
0
 70
0
 71
0
 72
0
 73
0
 74
0
 75
0
 76
0
 77
1
 78
12
 79
3
170
0
171
3
172
1
173
0
174
0
175
0
176
0
177
0
178
0
179
2
271
2
272
2
273
2
274
3
275
0
276
0
277
2
278
46
279
2
280
0
281
0
282
0
283
0
284
8
285
0
286
0
288
1
289
3
290
0
340
4C
371
-2
372
-2
  0
DIMSTYLE
105
7F
330
4
100
AcDbSymbolTableRecord
100
AcDbDimStyleTableRecord
  2
EZ_M_20_H25_CM
 70
0
 40
1.0
 41
0.05
 42
0.025
 43
3.75
 44
0.07500000000000001
 45
0.0
 46
0.0
 47
0.0
 48
0.0
 49
2.5
140
0.05
141
2.5
142
0.025
143
0.03937007874
144
100.0
145
0.0
146
0.5
147
0.020000000000000004
148
0.0
 69
0
 70
0
 71
0
 72
0
 73
0
 74
0
 75
0
 76
0
 77
1
 78
12
 79
3
170
0
171
3
172
1
173
0
174
0
175
0
176
0
177
0
178
0
179
2
271
2
272
2
273
2
274
3
275
0
276
0
277
2
278
46
279
2
280
0
281
0
282
0
283
0
284
8
285
0
286
0
288
1
289
3
290
0
340
4C
371
-2
372
-2
  0
DIMSTYLE
105
80
330
4
100
AcDbSymbolTableRecord
100
AcDbDimStyleTableRecord
  2
EZ_M_10_H25_CM
 70
0
 40
1.0
 41
0.025
 42
0.0125
 43
3.75
 44
0.037500000000000006
 45
0.0
 46
0.0
 47
0.0
 48
0.0
 49
2.5
140
0.025
141
2.5
142
0.0125
143
0.03937007874
144
100.0
145
0.0
146
0.5
147
0.010000000000000002
148
0.0
 69
0
 70
0
 71
0
 72
0
 73
0
 74
0
 75
0
 76
0
 77
1
 78
12
 79
3
170
0
171
3
172
1
173
0
174
0
175
0
176
0
177
0
178
0
179
2
271
2
272
2
273
2
274
3
275
0
276
0
277
2
278
46
279
2
280
0
281
0
282
0
283
0
284
8
285
0
286
0
288
1
289
3
290
0
340
4C
371
-2
372
-2
  0
DIMSTYLE
105
81
330
4
100
AcDbSymbolTableRecord
100
AcDbDimStyleTableRecord
  2
EZ_M_5_H25_CM
 70
0
 40
1.0
 41
0.0125
 42
0.00625
 43
3.75
 44
0.018750000000000003
 45
0.0
 46
0.0
 47
0.0
 48
0.0
 49
2.5
140
0.0125
141
2.5
142
0.00625
143
0.03937007874
144
100.0
145
0.0
146
0.5
147
0.005000000000000001
148
0.0
 69
0
 70
0
 71
0
 72
0
 73
0
 74
0
 75
0
 76
0
 77
1
 78
12
 79
3
170
0
171
3
172
1
173
0
174
0
175
0
176
0
177
0
178
0
179
2
271
2
272
2
273
2
274
3
275
0
276
0
277
2
278
46
279
2
280
0
281
0
282
0
283
0
284
8
285
0
286
0
288
1
289
3
290
0
340
4C
371
-2
372
-2
  0
DIMSTYLE
105
82
330
4
100
AcDbSymbolTableRecord
100
AcDbDimStyleTableRecord
  2
EZ_M_1_H25_CM
 70
0
 40
1.0
 41
0.0025
 42
0.00125
 43
3.75
 44
0.00375
 45
0.0
 46
0.0
 47
0.0
 48
0.0
 49
2.5
140
0.0025
141
2.5
142
0.00125
143
0.03937007874
144
100.0
145
0.0
146
0.5
147
0.001
148
0.0
 69
0
 70
0
 71
0
 72
0
 73
0
 74
0
 75
0
 76
0
 77
1
 78
12
 79
3
170
0
171
3
172
1
173
0
174
0
175
0
176
0
177
0
178
0
179
2
271
2
272
2
273
2
274
3
275
0
276
0
277
2
278
46
279
2
280
0
281
0
282
0
283
0
284
8
285
0
286
0
288
1
289
3
290
0
340
4C
371
-2
372
-2
  0
DIMSTYLE
105
83
330
4
100
AcDbSymbolTableRecord
100
AcDbDimStyleTableRecord
  2
EZ_RADIUS
 70
0
 40
1.0
 41
0.25
 42
0.125
 43
3.75
 44
0.375
 45
0.0
 46
0.0
 47
0.0
 48
0.0
 49
2.5
140
0.25
141
0.0
142
0.0
143
0.03937007874
144
100.0
145
0.0
146
0.5
147
0.1
148
0.0
 69
0
 70
0
 71
0
 72
0
 73
0
 74
0
 75
0
 76
0
 77
1
 78
12
 79
3
170
0
171
3
172
0
173
0
174
0
175
0
176
0
177
0
178
0
179
2
271
2
272
2
273
2
274
3
275
0
276
0
277
2
278
46
279
1
280
0
281
0
282
0
283
0
284
8
285
0
286
0
288
1
289
3
290
0
340
4C
342
84
371
-2
372
-2
  0
DIMSTYLE
105
88
330
4
100
AcDbSymbolTableRecord
100
AcDbDimStyleTableRecord
  2
EZ_RADIUS_INSIDE
 70
0
 40
1.0
 41
0.25
 42
0.125
 43
3.75
 44
0.375
 45
0.0
 46
0.0
 47
0.0
 48
0.0
 49
2.5
140
0.25
141
0.0
142
0.0
143
0.03937007874
144
100.0
145
0.0
146
0.5
147
0.1
148
0.0
 69
0
 70
0
 71
0
 72
0
 73
0
 74
0
 75
0
 76
0
 77
0
 78
12
 79
3
170
0
171
3
172
0
173
0
174
1
175
0
176
0
177
0
178
0
179
2
271
2
272
2
273
2
274
3
275
0
276
0
277
2
278
46
279
0
280
0
281
0
282
0
283
0
284
8
285
0
286
0
288
1
289
0
290
0
340
4C
342
84
371
-2
372
-2
  0
DIMSTYLE
105
89
330
4
100
AcDbSymbolTableRecord
100
AcDbDimStyleTableRecord
  2
EZ_CURVED
 70
0
 40
1.0
 41
0.25
 42
0.125
 43
3.75
 44
0.375
 45
0.0
 46
0.0
 47
0.0
 48
0.0
 49
2.5
140
0.25
141
2.5
142
0.0
143
0.03937007874
144
100.0
145
0.0
146
0.5
147
0.1
148
0.0
 69
0
 70
0
 71
0
 72
0
 73
0
 74
0
 75
0
 76
0
 77
1
 78
12
 79
2
 90
2
170
0
171
3
172
1
173
0
174
0
175
0
176
0
177
0
178
0
179
2
271
2
272
2
273
2
274
3
275
0
276
0
277
2
278
46
279
2
280
0
281
0
282
0
283
0
284
8
285
0
286
0
288
1
289
3
290
0
340
4C
371
-2
372
-2
  0
ENDTAB
  0
TABLE
  2
BLOCK_RECORD
  5
9
330
0
100
AcDbSymbolTable
 70
5
  0
BLOCK_RECORD
  5
17
330
9
100
AcDbSymbolTableRecord
100
AcDbBlockTableRecord
  2
*Model_Space
340
1A
 70
0
280
1
281
0
  0
BLOCK_RECORD
  5
1B
330
9
100
AcDbSymbolTableRecord
100
AcDbBlockTableRecord
  2
*Paper_Space
340
1E
 70
0
280
1
281
0
  0
BLOCK_RECORD
  5
74
330
9
100
AcDbSymbolTableRecord
100
AcDbBlockTableRecord
  2
_ARCHTICK
340
0
 70
0
280
1
281
0
  0
BLOCK_RECORD
  5
78
330
9
100
AcDbSymbolTableRecord
100
AcDbBlockTableRecord
  2
_CLOSEDFILLED
340
0
 70
0
280
1
281
0
  0
BLOCK_RECORD
  5
84
330
9
100
AcDbSymbolTableRecord
100
AcDbBlockTableRecord
  2
_CLOSEDBLANK
340
0
 70
0
280
1
281
0
  0
ENDTAB
  0
ENDSEC
  0
SECTION
  2
BLOCKS
  0
BLOCK
  5
18
330
17
100
AcDbEntity
  8
0
100
AcDbBlockBegin
  2
*Model_Space
 70
0
 10
0.0
 20
0.0
 30
0.0
  3
*Model_Space
  1

  0
ENDBLK
  5
19
330
17
100
AcDbEntity
  8
0
100
AcDbBlockEnd
  0
BLOCK
  5
1C
330
1B
100
AcDbEntity
  8
0
100
AcDbBlockBegin
  2
*Paper_Space
 70
0
 10
0.0
 20
0.0
 30
0.0
  3
*Paper_Space
  1

  0
ENDBLK
  5
1D
330
1B
100
AcDbEntity
  8
0
100
AcDbBlockEnd
  0
BLOCK
  5
75
330
74
100
AcDbEntity
  8
0
100
AcDbBlockBegin
  2
_ARCHTICK
 70
0
 10
0.0
 20
0.0
 30
0.0
  3
_ARCHTICK
  1

  0
LWPOLYLINE
  5
77
330
74
100
AcDbEntity
  8
0
  6
BYBLOCK
 62
0
100
AcDbPolyline
 90
2
 70
0
 43
0.15
 10
-0.5
 20
-0.5000000000000001
 10
0.5000000000000001
 20
0.5
  0
ENDBLK
  5
76
330
74
100
AcDbEntity
  8
0
100
AcDbBlockEnd
  0
BLOCK
  5
79
330
78
100
AcDbEntity
  8
0
100
AcDbBlockBegin
  2
_CLOSEDFILLED
 70
0
 10
0.0
 20
0.0
 30
0.0
  3
_CLOSEDFILLED
  1

  0
SOLID
  5
7B
330
78
100
AcDbEntity
  8
0
  6
BYBLOCK
 62
0
100
AcDbTrace
 10
-1.0
 20
0.1643989837240255
 30
0.0
 11
0.0
 21
0.0
 31
0.0
 12
-1.0
 22
-0.1643989837240255
 32
0.0
 13
-1.0
 23
-0.1643989837240255
 33
0.0
  0
ENDBLK
  5
7A
330
78
100
AcDbEntity
  8
0
100
AcDbBlockEnd
  0
BLOCK
  5
85
330
84
100
AcDbEntity
  8
0
100
AcDbBlockBegin
  2
_CLOSEDBLANK
 70
0
 10
0.0
 20
0.0
 30
0.0
  3
_CLOSEDBLANK
  1

  0
LWPOLYLINE
  5
87
330
84
100
AcDbEntity
  8
0
  6
BYBLOCK
 62
0
100
AcDbPolyline
 90
3
 70
1
 10
-1.0
 20
0.1643989837240255
 10
0.0
 20
0.0
 10
-1.0
 20
-0.1643989837240255
  0
ENDBLK
  5
86
330
84
100
AcDbEntity
  8
0
100
AcDbBlockEnd
  0
ENDSEC
  0
SECTION
  2
ENTITIES
  0
LWPOLYLINE
  5
8B
330
17
100
AcDbEntity
  8
Layer
100
AcDbPolyline
 90
212
 70
1
 10
427.4830372544434
 20
95.45868835192505
 10
427.4830372544434
 20
95.45868835192505
 10
423.77429852199367
 20
96.51359619564155
 10
418.6395587414288
 20
97.97797193629947
 10
413.50937088566366
 20
99.42870253000255
 10
408.3813526838436
 20
100.85864849891777
 10
403.2504029872788
 20
102.25855472253076
 10
398.1100287558671
 20
103.62699435746825
 10
392.9633622684365
 20
104.97883833735712
 10
387.8244598047085
 20
106.32862018355108
 10
382.7018971468891
 20
107.67000315175287
 10
377.5898058319682
 20
108.98529298068765
 10
372.4857946054175
 20
110.26832055663766
 10
367.37974650894625
 20
111.51318053599097
 10
362.27565781352166
 20
112.73473101196656
 10
357.17490357993137
 20
113.93891495914536
 10
352.0790507917059
 20
115.12687471371216
 10
346.9889942394028
 20
116.29230277857037
 10
341.899654098438
 20
117.42315052549924
 10
336.807999694574
 20
118.51705552018774
 10
331.7108795749115
 20
119.57904603253941
 10
326.61095294032157
 20
120.62139853273229
 10
321.51326541549145
 20
121.65067932884426
 10
316.4174146484478
 20
122.6597734093124
 10
311.3203741219269
 20
123.6392634401249
 10
306.2205832704118
 20
124.58563990317217
 10
301.11750057670946
 20
125.50190285576281
 10
296.0136433290961
 20
126.39633134299679
 10
290.9090174590905
 20
127.27130026426556
 10
285.80471332027906
 20
128.12626881213865
 10
280.7017424815483
 20
128.95622714386053
 10
275.59902597975673
 20
129.7542026047516
 10
270.49727779483555
 20
130.52053634354746
 10
265.39932193631324
 20
131.2616860597154
 10
260.30635619145016
 20
131.98042728879105
 10
255.2214478767605
 20
132.6767682110928
 10
250.14671379319822
 20
133.34510215934282
 10
245.08559285228816
 20
133.98158837401598
 10
240.04120599111178
 20
134.58544806274455
 10
235.0141902786192
 20
135.15689638013941
 10
230.0036335375037
 20
135.69774363719185
 10
225.00701820745633
 20
136.20813505928956
 10
220.0236860888619
 20
136.6882209249357
 10
215.05096904092005
 20
137.13287714802837
 10
210.08578585482365
 20
137.54032179129146
 10
205.12807964609135
 20
137.9151797650044
 10
200.178322165823
 20
138.26007562025876
 10
195.2382029188228
 20
138.57493820938356
 10
190.30848302052024
 20
138.85665874619383
 10
185.39041454737296
 20
139.1034567981284
 10
180.48421380286138
 20
139.31344309981827
 10
175.59000280789553
 20
139.4865316681903
 10
170.70902284003083
 20
139.62479533347076
 10
165.84378252338422
 20
139.72913941988637
 10
160.9947257291815
 20
139.79581335876622
 10
156.1647747426756
 20
139.8270658119995
 10
151.36243486179393
 20
139.82639879771403
 10
146.58213911762934
 20
139.7812230323885
 10
141.8317489845592
 20
139.70407945289907
 10
137.10617346473202
 20
139.5801699397304
 10
132.39779275383898
 20
139.40662968426707
 10
127.71418880320728
 20
139.2010004403051
 10
123.0616025127737
 20
138.96217799942315
 10
118.44324780195485
 20
138.6811868484966
 10
113.86128015486278
 20
138.35076141488696
 10
109.31622292540052
 20
137.96845063849543
 10
104.81089188745392
 20
137.5448645282612
 10
100.35489711088181
 20
137.0955003009234
 10
95.96100918190484
 20
136.6187363760867
 10
91.63079084985729
 20
136.0917254289838
 10
87.37080270346256
 20
135.51234942728556
 10
83.18470449104555
 20
134.88056463210145
 10
79.07863250288307
 20
134.2081008787185
 10
75.05595193344098
 20
133.50644975899365
 10
71.12510749436476
 20
132.78717173077487
 10
67.30635403284705
 20
132.0541515206216
 10
63.6095477800952
 20
131.28952401304548
 10
60.041765766034075
 20
130.4922660790166
 10
56.603801900602036
 20
129.66270273422666
 10
53.29571777942968
 20
128.80859623530114
 10
50.11702397788014
 20
127.93783126160984
 10
47.06690755927062
 20
127.05658062193228
 10
44.14611583318546
 20
126.17066473978791
 10
41.35408404464383
 20
125.28231585733946
 10
38.69233062977426
 20
124.39514825204219
 10
36.161276291722515
 20
123.50692406914028
 10
33.756726670877384
 20
122.61254445368228
 10
31.4749377996811
 20
121.7144878284321
 10
29.31621757987088
 20
120.82150394432557
 10
27.27982582923906
 20
119.93790152447608
 10
25.362325903536288
 20
119.06437340259252
 10
23.558061276805773
 20
118.20166922644844
 10
21.860362645212405
 20
117.3516180491216
 10
20.263094672953343
 20
116.51696580100871
 10
18.762195757298798
 20
115.70106596708244
 10
17.351985113426338
 20
114.90310836196316
 10
16.033605996494686
 20
114.12743965053205
 10
14.796341063206427
 20
113.36462657231161
 10
13.639045261572079
 20
112.61853186795152
 10
12.550616758432795
 20
111.88121227711746
 10
11.53307868823535
 20
111.16127707494275
 10
10.575605804247516
 20
110.44992956926254
 10
9.684641087499813
 20
109.75919648268601
 10
8.83957246810337
 20
109.06614091005174
 10
8.050842439489628
 20
108.39160984942792
 10
7.31225816268352
 20
107.72684831050415
 10
6.6202224836229675
 20
107.06983645521966
 10
5.972739432527533
 20
106.42160963009407
 10
5.368676679630937
 20
105.78301372653007
 10
4.804055145799055
 20
105.14962904796937
 10
4.279349032551494
 20
104.52584513206835
 10
3.7927112559065677
 20
103.91129071176381
 10
3.3396701311310153
 20
103.30073510600646
 10
2.9158670043100017
 20
102.69142613419302
 10
2.5214181772598465
 20
102.08943376510251
 10
2.1661583287158237
 20
101.5128055293524
 10
1.8539808103865312
 20
100.95522638549447
 10
1.5851908514902107
 20
100.40316259388709
 10
1.353668772588236
 20
99.84122492702626
 10
1.15654044546082
 20
99.2774251397816
 10
0.9896200938395339
 20
98.71344108562884
 10
0.843075934031873
 20
98.12605292580999
 10
0.7307858577449622
 20
97.62249311030466
 10
0.6505492592214637
 20
97.11422492510852
 10
0.6335765225937848
 20
96.60057428402405
 10
0.6241748885169045
 20
96.04889955013907
 10
0.6328973950940338
 20
95.51377598688408
 10
0.6688414209967846
 20
94.99490355055461
 10
0.7399765424461862
 20
94.4813564357765
 10
0.8531554686815355
 20
93.9682683661021
 10
1.0159979564531056
 20
93.44578899645177
 10
1.2203530241482383
 20
92.93041457152508
 10
1.4815117697434346
 20
92.40772758298093
 10
1.7866357081846331
 20
91.88399215531022
 10
2.137046340264675
 20
91.35853134518987
 10
2.5263952405287
 20
90.83539095492782
 10
2.95028510501092
 20
90.31922745614003
 10
3.416446084159759
 20
89.80695997491517
 10
3.9242771629593562
 20
89.29931333279796
 10
4.472585377397962
 20
88.79736016425947
 10
5.057371100750203
 20
88.30464330399204
 10
5.690504743149603
 20
87.81745996230288
 10
6.370025827066399
 20
87.33433996989777
 10
7.095343080886153
 20
86.85436371726792
 10
7.86744578231847
 20
86.37602625949317
 10
8.688583223240641
 20
85.89724889201871
 10
9.559018920979497
 20
85.41651381607345
 10
10.478524572760477
 20
84.93366025790881
 10
11.4495582444533
 20
84.44943580145687
 10
12.477805884206418
 20
83.96430325784941
 10
13.568211977202992
 20
83.47844747644021
 10
14.728772366847295
 20
82.99093347707503
 10
15.964626617921851
 20
82.49958627913067
 10
17.279947680612338
 20
82.00234079176212
 10
18.68058456503016
 20
81.49782439406289
 10
20.172814647156827
 20
80.98556688660516
 10
21.763481861256054
 20
80.46668650040706
 10
23.461892330786526
 20
79.943590119815
 10
25.279300636038073
 20
79.41868752350645
 10
27.22937262230687
 20
78.89331930369683
 10
29.32915778838202
 20
78.36495827239047
 10
31.583465425793662
 20
77.82459669356412
 10
33.990481939337
 20
77.26991473138928
 10
36.56297350821501
 20
76.71098467465379
 10
39.30933171368366
 20
76.15134475115877
 10
42.23178364990861
 20
75.59114988476891
 10
45.33537253749142
 20
75.03448485224982
 10
48.62102070074249
 20
74.48397177405563
 10
52.082269402117475
 20
73.94059243306684
 10
55.71182360352077
 20
73.40169841230946
 10
59.484772042724586
 20
72.85252204388189
 10
63.39348499507261
 20
72.30484741259968
 10
67.44472592164553
 20
71.77617487881703
 10
71.64197702847406
 20
71.27116522470749
 10
75.97382337070695
 20
70.78624469512091
 10
80.42479130679664
 20
70.3209196975657
 10
84.99496199598877
 20
69.8767648265601
 10
89.66210006205519
 20
69.42744507768661
 10
94.40999030525862
 20
68.97966294410256
 10
99.23046311713176
 20
68.55360131949158
 10
104.11289890246012
 20
68.1552864843333
 10
109.04882985498168
 20
67.78399354178913
 10
111.20337470981534
 20
67.63460536002134
 10
111.09961935828902
 20
66.1381980534936
 10
113.94132247311087
 20
65.94116485620614
 10
118.987087934629
 20
65.60590649145463
 10
124.07588787150534
 20
65.2672510472591
 10
129.20197844909652
 20
64.94424404619645
 10
134.35820122227727
 20
64.64289616490593
 10
139.54124627302434
 20
64.36596047586856
 10
144.75302439310653
 20
64.10572618153796
 10
149.99517262181735
 20
63.85137055827412
 10
155.26563693691045
 20
63.59871234870758
 10
160.55929917384373
 20
63.34959180939265
 10
165.87544297765817
 20
63.11297707492625
 10
171.21092764980236
 20
62.89278020981743
 10
176.56646923218892
 20
62.68552727067519
 10
181.94094978212644
 20
62.48932043251813
 10
187.33024729949608
 20
62.29732472958572
 10
192.73234801567838
 20
62.10677365673962
 10
198.14614499824242
 20
61.91933031715854
 10
203.57048368882158
 20
61.737896379883395
 10
209.00316766834644
 20
61.563944357021796
 10
214.44395650465873
 20
61.398510398921054
 10
219.8920820038826
 20
61.23948682056231
 10
225.34329552772394
 20
61.08656593481632
 10
230.79424819970015
 20
60.94035988607953
 10
236.2412876513886
 20
60.797908093014655
 10
241.68148945797472
 20
60.657091552334016
 10
247.11589853804517
 20
60.519230560106976
 10
253.57668504751973
 20
60.36584227489037
 10
427.4830372544434
 20
95.45868835192505
  0
LWPOLYLINE
  5
8C
330
17
100
AcDbEntity
  8
Layer
100
AcDbPolyline
 90
5
 70
0
 10
372.52390098997705
 20
106.14187077751701
 10
368.6377265535858
 20
107.0893137836862
 10
369.58516955975495
 20
110.97548822007748
 10
373.4713439961462
 20
110.0280452139083
 10
372.52390098997705
 20
106.14187077751701
  0
LWPOLYLINE
  5
8D
330
17
100
AcDbEntity
  8
Layer
100
AcDbPolyline
 90
5
 70
0
 10
147.55354940688372
 20
135.7964850167498
 10
143.5540777614332
 20
135.73147303910523
 10
143.48906578378862
 20
139.73094468455574
 10
147.48853742923913
 20
139.79595666220033
 10
147.55354940688372
 20
135.7964850167498
  0
LWPOLYLINE
  5
8E
330
17
100
AcDbEntity
  8
Layer
100
AcDbPolyline
 90
5
 70
0
 10
62.21651621111687
 20
126.90229333176964
 10
58.32816284683824
 20
125.96383282940258
 10
57.389702344471175
 20
129.85218619368123
 10
61.278055708749804
 20
130.79064669604827
 10
62.21651621111687
 20
126.90229333176964
  0
LWPOLYLINE
  5
8F
330
17
100
AcDbEntity
  8
Layer
100
AcDbPolyline
 90
5
 70
0
 10
16.291796371493835
 20
108.37626399755666
 10
14.636224195428499
 20
107.25417631388916
 10
11.831004986259755
 20
111.3931067540525
 10
13.486577162325089
 20
112.51519443772
 10
16.291796371493835
 20
108.37626399755666
  0
LWPOLYLINE
  5
90
330
17
100
AcDbEntity
  8
Layer
100
AcDbPolyline
 90
5
 70
0
 10
26.954175261800653
 20
84.14577687972536
 10
28.885373224168116
 20
83.62570531719982
 10
27.585194317854278
 20
78.79771041128114
 10
25.653996355486814
 20
79.31778197380669
 10
26.954175261800653
 20
84.14577687972536
  0
LWPOLYLINE
  5
91
330
17
100
AcDbEntity
  8
Layer
100
AcDbPolyline
 90
5
 70
0
 10
81.24560163999051
 20
74.25999448776523
 10
85.22684437135241
 20
73.87307548593415
 10
84.83992536952134
 20
69.89183275457225
 10
80.85868263815944
 20
70.27875175640332
 10
81.24560163999051
 20
74.25999448776523
  0
LWPOLYLINE
  5
92
330
17
100
AcDbEntity
  8
Layer
100
AcDbPolyline
 90
300
 70
1
 10
244.83849999999967
 20
100.0
 10
244.83163609678817
 20
100.66560090817114
 10
244.8110474180601
 20
101.33090790571869
 10
244.7767430551964
 20
101.99562721180163
 10
244.72873815603796
 20
102.65946530508705
 10
244.6670539181969
 20
103.32212905336075
 10
244.59171757969617
 20
103.98332584296624
 10
244.50276240694203
 20
104.64276370801467
 10
244.40022768003456
 20
105.30015145930878
 10
244.28415867542273
 20
105.9551988129238
 10
244.15460664591149
 20
106.60761651838872
 10
244.01162879803002
 20
107.25711648641114
 10
243.85528826677097
 20
107.90341191608931
 10
243.68565408771175
 20
108.54621742155547
 10
243.50280116653045
 20
109.1852491579941
 10
243.30681024592957
 20
109.82022494697988
 10
243.09776786998225
 20
110.4508644010797
 10
242.87576634591693
 20
111.07688904766383
 10
242.64090370335705
 20
111.69802245187168
 10
242.3932836510339
 20
112.31399033867754
 10
242.1330155309918
 20
112.92452071400282
 10
241.8602142703057
 20
113.52934398482093
 10
241.57500033033267
 20
114.12819307820189
 10
241.2774996535195
 20
114.7208035592444
 10
240.9678436077901
 20
115.30691374784269
 10
240.64616892853704
 20
115.88626483423712
 10
240.3126176582432
 20
116.45860099329738
 10
239.9673370837597
 20
117.02366949748752
 10
239.61047967126817
 20
117.58122082846343
 10
239.24220299895603
 20
118.13100878725305
 10
238.86266968743433
 20
118.67279060297095
 10
238.4720473279292
 20
119.20632704001909
 10
238.07050840827807
 20
119.73138250372654
 10
237.6582302367641
 20
120.24772514438142
 10
237.23539486382174
 20
120.75512695960929
 10
236.80218900164837
 20
121.25336389505244
 10
236.35880394175746
 20
121.74221594330618
 10
235.9054354705097
 20
122.2214672410677
 10
235.44228378265913
 20
122.69090616445538
 10
234.96955339295283
 20
123.15032542245595
 10
234.48745304582303
 20
123.5995221484582
 10
233.9961956232113
 20
124.03829798983338
 10
233.49599805056604
 20
124.46645919552194
 10
232.9870812010542
 20
124.8838167015887
 10
232.4696697980299
 20
125.29018621470807
 10
231.943992315803
 20
125.68538829354283
 10
231.41028087875125
 20
126.06924842798036
 10
230.86877115882064
 20
126.44159711619137
 10
230.31970227145933
 20
126.80226993947723
 10
229.76331667003114
 20
127.1511076348725
 10
229.19986003875474
 20
127.48795616547109
 10
228.6295811842165
 20
127.81266678844456
 10
228.05273192550465
 20
128.1250961207228
 10
227.4695669830128
 20
128.42510620230786
 10
226.88034386596286
 20
128.7125645571934
 10
226.28532275869597
 20
128.98734425186217
 10
225.68476640578257
 20
129.24932395133635
 10
225.07893999600176
 20
129.49838797275572
 10
224.4681110452414
 20
129.73442633645982
 10
223.8525492783706
 20
129.957334814552
 10
223.23252651013684
 20
130.1670149769235
 10
222.60831652514022
 20
130.3633742347173
 10
221.98019495693788
 20
130.54632588121294
 10
221.348439166332
 20
130.7157891301136
 10
220.71332811889508
 20
130.87168915121913
 10
220.07514226178654
 20
131.01395710346904
 10
219.4341633999152
 20
131.14253016534056
 10
218.79067457150222
 20
131.2573515625891
 10
218.1449599230992
 20
131.35837059331794
 10
217.49730458411736
 20
131.44554265036695
 10
216.84799454092206
 20
131.5188292410097
 10
216.19731651054963
 20
131.5781980039509
 10
215.54555781410087
 20
131.62362272361608
 10
214.89300624986845
 20
131.65508334172785
 10
214.23994996625305
 20
131.67256596616286
 10
213.58667733452518
 20
131.67606287708637
 10
212.93347682148865
 20
131.6655725303609
 10
212.2806368621017
 20
131.6410995582283
 10
211.62844573211217
 20
131.60265476726406
 10
210.97719142076318
 20
131.55025513360565
 10
210.327161503625
 20
131.48392379545618
 10
209.67864301561
 20
131.40369004286725
 10
209.03192232422592
 20
131.30958930480537
 10
208.38728500312416
 20
131.2016631335074
 10
207.74501570599844
 20
131.07995918613233
 10
207.10539804088972
 20
130.94453120371722
 10
206.46871444495298
 20
130.7954389874467
 10
205.8352460597408
 20
130.63274837224625
 10
205.20527260705921
 20
130.4565311977117
 10
204.57907226545046
 20
130.26686527638662
 10
203.95692154735713
 20
130.0638343594025
 10
203.33909517702207
 20
129.84752809949674
 10
202.7258659691779
 20
129.61804201142448
 10
202.1175047085797
 20
129.37547742978188
 10
201.5142800304341
 20
129.1199414642597
 10
200.91645830177745
 20
128.85154695234675
 10
200.32430350385584
 20
128.57041240950383
 10
199.7380771155581
 20
128.2766619768308
 10
199.15803799795444
 20
127.97042536624936
 10
198.58444227999036
 20
127.65183780322577
 10
198.01754324538754
 20
127.32103996705928
 10
197.45759122080085
 20
126.97817792876202
 10
196.90483346528106
 20
126.62340308655811
 10
196.35951406109217
 20
126.25687209903057
 10
195.82187380593174
 20
125.87874681594522
 10
195.29215010660127
 20
125.4891942067824
 10
194.77057687417403
 20
125.08838628700796
 10
194.2573844207066
 20
124.67650004211609
 10
193.75279935753943
 20
124.25371734947745
 10
193.2570444952318
 20
123.82022489802729
 10
192.77033874517488
 20
123.37621410582886
 10
192.29289702292647
 20
122.9218810355486
 10
191.82493015331067
 20
122.45742630788031
 10
191.36664477732324
 20
121.98305501295681
 10
190.91824326088496
 20
121.49897661978787
 10
190.4799236054825
 20
121.0054048837645
 10
190.05187936073648
 20
120.50255775227075
 10
189.63429953893544
 20
119.99065726844418
 10
189.22736853157332
 20
119.4699294731278
 10
188.8312660279274
 20
118.940604305057
 10
188.44616693571254
 20
118.40291549932485
 10
188.0722413038469
 20
117.85710048417141
 10
187.7096542473631
 20
117.30340027614206
 10
187.358565874498
 20
116.74205937366136
 10
187.0191312159935
 20
116.17332564906947
 10
186.6915001566394
 20
115.59745023916865
 10
186.3758173690882
 20
115.01468743432835
 10
186.07222224997216
 20
114.42529456619776
 10
185.78084885834926
 20
113.82953189407536
 10
185.5018258565068
 20
113.22766248998573
 10
185.23527645314752
 20
112.61995212251443
 10
184.9813183489843
 20
112.00666913945199
 10
184.74006368476677
 20
111.3880843492991
 10
184.51161899176296
 20
110.76447090168521
 10
184.29608514471838
 20
110.13610416675337
 10
184.09355731731233
 20
109.50326161356446
 10
183.90412494013205
 20
108.86622268757473
 10
183.72787166118252
 20
108.22526868724053
 10
183.56487530894998
 20
107.5806826398048
 10
183.41520785803507
 20
106.93274917632027
 10
183.27893539737084
 20
106.28175440596434
 10
183.15611810103962
 20
105.62798578970133
 10
183.04681020170204
 20
104.97173201334785
 10
182.95105996664932
 20
104.31328286009725
 10
182.8689096764898
 20
103.6529290825595
 10
182.80039560647896
 20
102.99096227437303
 10
182.74554801050138
 20
102.32767474144524
 10
182.7043911077114
 20
101.66335937287835
 10
182.67694307183868
 20
100.99830951163786
 10
182.66321602316322
 20
100.33281882502058
 10
182.66321602316322
 20
99.66718117497942
 10
182.67694307183868
 20
99.00169048836216
 10
182.7043911077114
 20
98.33664062712167
 10
182.74554801050138
 20
97.67232525855476
 10
182.80039560647896
 20
97.00903772562697
 10
182.8689096764898
 20
96.34707091744052
 10
182.95105996664932
 20
95.68671713990275
 10
183.04681020170204
 20
95.02826798665215
 10
183.1561181010396
 20
94.37201421029867
 10
183.27893539737084
 20
93.71824559403566
 10
183.4152078580351
 20
93.06725082367973
 10
183.56487530894998
 20
92.4193173601952
 10
183.72787166118252
 20
91.77473131275949
 10
183.90412494013205
 20
91.13377731242528
 10
184.09355731731233
 20
90.49673838643555
 10
184.29608514471838
 20
89.86389583324664
 10
184.51161899176296
 20
89.2355290983148
 10
184.74006368476677
 20
88.61191565070091
 10
184.9813183489843
 20
87.993330860548
 10
185.23527645314752
 20
87.38004787748555
 10
185.5018258565068
 20
86.77233751001427
 10
185.78084885834926
 20
86.17046810592466
 10
186.07222224997216
 20
85.57470543380224
 10
186.3758173690882
 20
84.98531256567165
 10
186.69150015663936
 20
84.40254976083135
 10
187.01913121599353
 20
83.82667435093053
 10
187.358565874498
 20
83.25794062633864
 10
187.7096542473631
 20
82.69659972385794
 10
188.0722413038469
 20
82.14289951582859
 10
188.44616693571254
 20
81.59708450067515
 10
188.8312660279274
 20
81.059395694943
 10
189.22736853157332
 20
80.5300705268722
 10
189.63429953893544
 20
80.00934273155583
 10
190.05187936073648
 20
79.49744224772924
 10
190.47992360548253
 20
78.99459511623549
 10
190.91824326088496
 20
78.50102338021215
 10
191.36664477732322
 20
78.01694498704319
 10
191.82493015331065
 20
77.5425736921197
 10
192.29289702292647
 20
77.0781189644514
 10
192.77033874517488
 20
76.62378589417114
 10
193.2570444952318
 20
76.17977510197271
 10
193.75279935753943
 20
75.74628265052256
 10
194.25738442070656
 20
75.32349995788391
 10
194.77057687417403
 20
74.91161371299205
 10
195.29215010660124
 20
74.51080579321761
 10
195.82187380593172
 20
74.1212531840548
 10
196.35951406109214
 20
73.74312790096943
 10
196.90483346528106
 20
73.37659691344189
 10
197.45759122080088
 20
73.02182207123798
 10
198.01754324538757
 20
72.67896003294071
 10
198.58444227999036
 20
72.34816219677423
 10
199.15803799795444
 20
72.02957463375064
 10
199.73807711555813
 20
71.72333802316918
 10
200.32430350385584
 20
71.42958759049615
 10
200.91645830177745
 20
71.14845304765325
 10
201.5142800304341
 20
70.88005853574029
 10
202.1175047085797
 20
70.62452257021813
 10
202.7258659691779
 20
70.38195798857552
 10
203.33909517702205
 20
70.15247190050324
 10
203.95692154735713
 20
69.9361656405975
 10
204.57907226545046
 20
69.73313472361339
 10
205.20527260705921
 20
69.54346880228829
 10
205.8352460597408
 20
69.36725162775375
 10
206.46871444495298
 20
69.20456101255333
 10
207.10539804088972
 20
69.05546879628278
 10
207.74501570599844
 20
68.92004081386767
 10
208.38728500312416
 20
68.7983368664926
 10
209.03192232422595
 20
68.69041069519463
 10
209.67864301561002
 20
68.59630995713275
 10
210.32716150362498
 20
68.51607620454384
 10
210.97719142076315
 20
68.44974486639435
 10
211.62844573211217
 20
68.39734523273596
 10
212.2806368621017
 20
68.35890044177172
 10
212.93347682148863
 20
68.33442746963911
 10
213.58667733452515
 20
68.32393712291363
 10
214.23994996625302
 20
68.32743403383714
 10
214.89300624986845
 20
68.34491665827215
 10
215.54555781410087
 20
68.37637727638392
 10
216.19731651054963
 20
68.42180199604911
 10
216.84799454092206
 20
68.4811707589903
 10
217.49730458411736
 20
68.55445734963305
 10
218.1449599230992
 20
68.64162940668206
 10
218.79067457150222
 20
68.7426484374109
 10
219.4341633999152
 20
68.85746983465944
 10
220.0751422617865
 20
68.98604289653096
 10
220.71332811889508
 20
69.12831084878086
 10
221.348439166332
 20
69.28421086988641
 10
221.98019495693788
 20
69.45367411878706
 10
222.6083165251402
 20
69.6366257652827
 10
223.23252651013684
 20
69.8329850230765
 10
223.8525492783706
 20
70.04266518544799
 10
224.4681110452414
 20
70.26557366354018
 10
225.07893999600176
 20
70.50161202724428
 10
225.68476640578257
 20
70.75067604866364
 10
226.28532275869597
 20
71.01265574813783
 10
226.88034386596286
 20
71.2874354428066
 10
227.4695669830128
 20
71.57489379769214
 10
228.05273192550465
 20
71.87490387927723
 10
228.6295811842165
 20
72.18733321155544
 10
229.1998600387547
 20
72.5120438345289
 10
229.76331667003114
 20
72.84889236512748
 10
230.31970227145933
 20
73.19773006052276
 10
230.8687711588206
 20
73.55840288380861
 10
231.41028087875125
 20
73.93075157201964
 10
231.943992315803
 20
74.31461170645716
 10
232.46966979802988
 20
74.70981378529191
 10
232.9870812010542
 20
75.1161832984113
 10
233.49599805056604
 20
75.53354080447806
 10
233.9961956232113
 20
75.96170201016662
 10
234.48745304582303
 20
76.4004778515418
 10
234.96955339295283
 20
76.84967457754405
 10
235.44228378265913
 20
77.30909383554462
 10
235.9054354705097
 20
77.77853275893231
 10
236.3588039417575
 20
78.25778405669384
 10
236.80218900164834
 20
78.74663610494754
 10
237.23539486382174
 20
79.2448730403907
 10
237.6582302367641
 20
79.75227485561857
 10
238.07050840827807
 20
80.26861749627345
 10
238.4720473279292
 20
80.7936729599809
 10
238.86266968743433
 20
81.32720939702904
 10
239.24220299895603
 20
81.86899121274695
 10
239.61047967126817
 20
82.41877917153657
 10
239.9673370837597
 20
82.97633050251248
 10
240.3126176582432
 20
83.54139900670262
 10
240.64616892853704
 20
84.11373516576288
 10
240.9678436077901
 20
84.69308625215731
 10
241.2774996535195
 20
85.2791964407556
 10
241.57500033033267
 20
85.87180692179811
 10
241.8602142703057
 20
86.47065601517909
 10
242.1330155309918
 20
87.07547928599715
 10
242.3932836510339
 20
87.68600966132244
 10
242.64090370335705
 20
88.30197754812832
 10
242.87576634591693
 20
88.92311095233616
 10
243.09776786998225
 20
89.5491355989203
 10
243.30681024592957
 20
90.17977505302011
 10
243.50280116653045
 20
90.81475084200589
 10
243.68565408771175
 20
91.45378257844453
 10
243.85528826677094
 20
92.09658808391069
 10
244.01162879803002
 20
92.74288351358886
 10
244.15460664591149
 20
93.39238348161128
 10
244.28415867542273
 20
94.0448011870762
 10
244.40022768003456
 20
94.69984854069124
 10
244.50276240694203
 20
95.35723629198534
 10
244.59171757969617
 20
96.01667415703378
 10
244.6670539181969
 20
96.67787094663923
 10
244.72873815603796
 20
97.34053469491293
 10
244.7767430551964
 20
98.00437278819835
 10
244.8110474180601
 20
98.66909209428131
 10
244.83163609678817
 20
99.33439909182884
 10
244.83849999999967
 20
99.99999999999999
  0
LINE
  5
93
330
17
100
AcDbEntity
  8
Layer
100
AcDbLine
 10
409.46060548579123
 20
99.99999999999997
 30
0.0
 11
413.46060548579123
 21
99.99999999999997
 31
0.0
  0
LINE
  5
94
330
17
100
AcDbEntity
  8
Layer
100
AcDbLine
 10
3.419085165082521
 20
100.00000000000003
 30
0.0
 11
-0.5809148349174791
 21
100.00000000000003
 31
0.0
  0
LINE
  5
95
330
17
100
AcDbEntity
  8
Layer
100
AcDbLine
 10
88.92738922922427
 20
100.00000000000001
 30
0.0
 11
77.92738922922427
 21
100.00000000000001
 31
0.0
  0
LWPOLYLINE
  5
96
330
17
100
AcDbEntity
  8
Layer
100
AcDbPolyline
 90
5
 70
0
 10
78.42738922922427
 20
95.00000000000001
 10
78.42738922922427
 20
105.00000000000001
 10
88.42738922922427
 20
105.00000000000001
 10
88.42738922922427
 20
95.00000000000001
 10
78.42738922922427
 20
95.00000000000001
  0
LINE
  5
97
330
17
100
AcDbEntity
  8
Layer
100
AcDbLine
 10
211.9398453254369
 20
100.0
 30
0.0
 11
200.9398453254369
 21
100.0
 31
0.0
  0
LWPOLYLINE
  5
98
330
17
100
AcDbEntity
  8
Layer
100
AcDbPolyline
 90
5
 70
0
 10
201.4398453254369
 20
95.0
 10
201.4398453254369
 20
105.0
 10
211.4398453254369
 20
105.0
 10
211.4398453254369
 20
95.0
 10
201.4398453254369
 20
95.0
  0
LINE
  5
99
330
17
100
AcDbEntity
  8
Layer
100
AcDbLine
 10
334.9523014216495
 20
99.99999999999999
 30
0.0
 11
323.9523014216495
 21
99.99999999999999
 31
0.0
  0
LWPOLYLINE
  5
9A
330
17
100
AcDbEntity
  8
Layer
100
AcDbPolyline
 90
5
 70
0
 10
324.4523014216495
 20
94.99999999999999
 10
324.4523014216495
 20
104.99999999999999
 10
334.4523014216495
 20
104.99999999999999
 10
334.4523014216495
 20
94.99999999999999
 10
324.4523014216495
 20
94.99999999999999
  0
LINE
  5
9B
330
17
100
AcDbEntity
  8
Layer
100
AcDbLine
 10
2.6341271339739762
 20
96.6421862882126
 30
0.0
 11
-1.354083874933707
 21
96.94906240071988
 31
0.0
  0
LINE
  5
9C
330
17
100
AcDbEntity
  8
Layer
100
AcDbLine
 10
312.45479964528806
 20
72.8027847765303
 30
0.0
 11
316.44301065419575
 21
72.49590866402302
 31
0.0
  0
LINE
  5
9D
330
17
100
AcDbEntity
  8
Layer
100
AcDbLine
 10
213.74999999999974
 20
131.67649999999992
 30
0.0
 11
213.74999999999974
 21
132.17649999999992
 31
0.0
  0
LINE
  5
9E
330
17
100
AcDbEntity
  8
Layer
100
AcDbLine
 10
213.74999999999974
 20
68.32350000000007
 30
0.0
 11
213.74999999999974
 21
67.82350000000007
 31
0.0
  0
LINE
  5
9F
330
17
100
AcDbEntity
  8
Layer
100
AcDbLine
 10
244.83849999999967
 20
100.0
 30
0.0
 11
245.33849999999967
 21
100.0
 31
0.0
  0
LINE
  5
A0
330
17
100
AcDbEntity
  8
Layer
100
AcDbLine
 10
182.66149999999982
 20
100.0
 30
0.0
 11
182.16149999999982
 21
100.0
 31
0.0
  0
LINE
  5
A1
330
17
100
AcDbEntity
  8
Layer
100
AcDbLine
 10
48.749999999999744
 20
125.54286576205988
 30
0.0
 11
48.749999999999744
 21
129.54286576205988
 31
0.0
  0
LINE
  5
A2
330
17
100
AcDbEntity
  8
Layer
100
AcDbLine
 10
48.749999999999744
 20
76.46372339184497
 30
0.0
 11
48.749999999999744
 21
72.46372339184497
 31
0.0
  0
LINE
  5
A3
330
17
100
AcDbEntity
  8
Layer
100
AcDbLine
 10
48.749999999999744
 20
90.57955186588795
 30
0.0
 11
48.749999999999744
 21
79.57955186588795
 31
0.0
  0
LWPOLYLINE
  5
A4
330
17
100
AcDbEntity
  8
Layer
100
AcDbPolyline
 90
5
 70
0
 10
53.749999999999744
 20
80.07955186588795
 10
43.749999999999744
 20
80.07955186588795
 10
43.749999999999744
 20
90.07955186588795
 10
53.749999999999744
 20
90.07955186588795
 10
53.749999999999744
 20
80.07955186588795
  0
LINE
  5
A5
330
17
100
AcDbEntity
  8
Layer
100
AcDbLine
 10
48.749999999999744
 20
106.50329457695243
 30
0.0
 11
48.749999999999744
 21
95.50329457695243
 31
0.0
  0
LWPOLYLINE
  5
A6
330
17
100
AcDbEntity
  8
Layer
100
AcDbPolyline
 90
5
 70
0
 10
53.749999999999744
 20
96.00329457695243
 10
43.749999999999744
 20
96.00329457695243
 10
43.749999999999744
 20
106.00329457695243
 10
53.749999999999744
 20
106.00329457695243
 10
53.749999999999744
 20
96.00329457695243
  0
LINE
  5
A7
330
17
100
AcDbEntity
  8
Layer
100
AcDbLine
 10
48.749999999999744
 20
122.42703728801689
 30
0.0
 11
48.749999999999744
 21
111.42703728801689
 31
0.0
  0
LWPOLYLINE
  5
A8
330
17
100
AcDbEntity
  8
Layer
100
AcDbPolyline
 90
5
 70
0
 10
53.749999999999744
 20
111.92703728801689
 10
43.749999999999744
 20
111.92703728801689
 10
43.749999999999744
 20
121.92703728801689
 10
53.749999999999744
 20
121.92703728801689
 10
53.749999999999744
 20
111.92703728801689
  0
LINE
  5
A9
330
17
100
AcDbEntity
  8
Layer
100
AcDbLine
 10
343.7499999999998
 20
115.01200498681189
 30
0.0
 11
343.7499999999998
 21
119.01200498681189
 31
0.0
  0
LINE
  5
AA
330
17
100
AcDbEntity
  8
Layer
100
AcDbLine
 10
343.7499999999998
 20
80.56206237683422
 30
0.0
 11
343.7499999999998
 21
76.56206237683422
 31
0.0
  0
LINE
  5
AB
330
17
100
AcDbEntity
  8
Layer
100
AcDbLine
 10
343.7499999999998
 20
91.75205089882975
 30
0.0
 11
343.7499999999998
 21
80.75205089882975
 31
0.0
  0
LWPOLYLINE
  5
AC
330
17
100
AcDbEntity
  8
Layer
100
AcDbPolyline
 90
5
 70
0
 10
348.7499999999998
 20
81.25205089882975
 10
338.7499999999998
 20
81.25205089882975
 10
338.7499999999998
 20
91.25205089882975
 10
348.7499999999998
 20
91.25205089882975
 10
348.7499999999998
 20
81.25205089882975
  0
LINE
  5
AD
330
17
100
AcDbEntity
  8
Layer
100
AcDbLine
 10
343.7499999999998
 20
103.28703368182306
 30
0.0
 11
343.7499999999998
 21
92.28703368182306
 31
0.0
  0
LWPOLYLINE
  5
AE
330
17
100
AcDbEntity
  8
Layer
100
AcDbPolyline
 90
5
 70
0
 10
348.7499999999998
 20
92.78703368182306
 10
338.7499999999998
 20
92.78703368182306
 10
338.7499999999998
 20
102.78703368182306
 10
348.7499999999998
 20
102.78703368182306
 10
348.7499999999998
 20
92.78703368182306
  0
LINE
  5
AF
330
17
100
AcDbEntity
  8
Layer
100
AcDbLine
 10
343.7499999999998
 20
114.82201646481636
 30
0.0
 11
343.7499999999998
 21
103.82201646481636
 31
0.0
  0
LWPOLYLINE
  5
B0
330
17
100
AcDbEntity
  8
Layer
100
AcDbPolyline
 90
5
 70
0
 10
348.7499999999998
 20
104.32201646481636
 10
338.7499999999998
 20
104.32201646481636
 10
338.7499999999998
 20
114.32201646481636
 10
348.7499999999998
 20
114.32201646481636
 10
348.7499999999998
 20
104.32201646481636
  0
ENDSEC
  0
SECTION
  2
OBJECTS
  0
DICTIONARY
  5
A
330
0
100
AcDbDictionary
280
0
281
1
  3
ACAD_COLOR
350
B
  3
ACAD_GROUP
350
C
  3
ACAD_LAYOUT
350
D
  3
ACAD_MATERIAL
350
E
  3
ACAD_MLEADERSTYLE
350
F
  3
ACAD_MLINESTYLE
350
10
  3
ACAD_PLOTSETTINGS
350
11
  3
ACAD_PLOTSTYLENAME
350
12
  3
ACAD_SCALELIST
350
14
  3
ACAD_TABLESTYLE
350
15
  3
ACAD_VISUALSTYLE
350
16
  3
EZDXF_META
350
2D
  0
DICTIONARY
  5
B
330
A
100
AcDbDictionary
280
0
281
1
  0
DICTIONARY
  5
C
330
A
100
AcDbDictionary
280
0
281
1
  0
DICTIONARY
  5
D
330
A
100
AcDbDictionary
280
0
281
1
  3
Model
350
1A
  3
Layout1
350
1E
  0
DICTIONARY
  5
E
330
A
100
AcDbDictionary
280
0
281
1
  3
ByBlock
350
1F
  3
ByLayer
350
20
  3
Global
350
21
  0
DICTIONARY
  5
F
330
A
100
AcDbDictionary
280
0
281
1
  3
Standard
350
2C
  0
DICTIONARY
  5
10
330
A
100
AcDbDictionary
280
0
281
1
  3
Standard
350
22
  0
DICTIONARY
  5
11
330
A
100
AcDbDictionary
280
0
281
1
  0
ACDBDICTIONARYWDFLT
  5
12
330
A
100
AcDbDictionary
280
0
281
1
  3
Normal
350
13
100
AcDbDictionaryWithDefault
340
13
  0
ACDBPLACEHOLDER
  5
13
330
12
  0
DICTIONARY
  5
14
330
A
100
AcDbDictionary
280
0
281
1
  0
DICTIONARY
  5
15
330
A
100
AcDbDictionary
280
0
281
1
  0
DICTIONARY
  5
16
330
A
100
AcDbDictionary
280
0
281
1
  3
2dWireframe
350
5A
  3
Basic
350
5B
  3
Brighten
350
5C
  3
ColorChange
350
5D
  3
Conceptual
350
5E
  3
Dim
350
5F
  3
EdgeColorOff
350
60
  3
Facepattern
350
61
  3
Flat
350
62
  3
FlatWithEdges
350
63
  3
Gouraud
350
64
  3
GouraudWithEdges
350
65
  3
Hidden
350
66
  3
JitterOff
350
67
  3
Linepattern
350
68
  3
Modeling
350
69
  3
OverhangOff
350
6A
  3
Realistic
350
6B
  3
Shaded
350
6C
  3
Shaded with edges
350
6D
  3
Shades of Gray
350
6E
  3
Sketchy
350
6F
  3
Thicken
350
70
  3
Wireframe
350
71
  3
X-Ray
350
72
  0
LAYOUT
  5
1A
330
D
100
AcDbPlotSettings
  1

  2
Adobe PDF
  4
A3
  6

 40
7.5
 41
20.0
 42
7.5
 43
20.0
 44
420.0
 45
297.0
 46
0.0
 47
0.0
 48
0.0
 49
0.0
140
0.0
141
0.0
142
1.0
143
1.0
 70
1024
 72
1
 73
0
 74
5
  7

 75
16
 76
0
 77
2
 78
300
147
1.0
148
0.0
149
0.0
100
AcDbLayout
  1
Model
 70
1
 71
0
 10
0.0
 20
0.0
 11
420.0
 21
297.0
 12
0.0
 22
0.0
 32
0.0
 14
1e+20
 24
1e+20
 34
1e+20
 15
-1e+20
 25
-1e+20
 35
-1e+20
146
0.0
 13
0.0
 23
0.0
 33
0.0
 16
1.0
 26
0.0
 36
0.0
 17
0.0
 27
1.0
 37
0.0
 76
1
330
17
  0
LAYOUT
  5
1E
330
D
100
AcDbPlotSettings
  1

  2
Adobe PDF
  4
A3
  6

 40
7.5
 41
20.0
 42
7.5
 43
20.0
 44
420.0
 45
297.0
 46
0.0
 47
0.0
 48
0.0
 49
0.0
140
0.0
141
0.0
142
1.0
143
1.0
 70
0
 72
1
 73
0
 74
5
  7

 75
16
 76
0
 77
2
 78
300
147
1.0
148
0.0
149
0.0
100
AcDbLayout
  1
Layout1
 70
1
 71
1
 10
0.0
 20
0.0
 11
420.0
 21
297.0
 12
0.0
 22
0.0
 32
0.0
 14
1e+20
 24
1e+20
 34
1e+20
 15
-1e+20
 25
-1e+20
 35
-1e+20
146
0.0
 13
0.0
 23
0.0
 33
0.0
 16
1.0
 26
0.0
 36
0.0
 17
0.0
 27
1.0
 37
0.0
 76
1
330
1B
  0
MATERIAL
  5
1F
102
{ACAD_REACTORS
330
E
102
}
330
E
100
AcDbMaterial
  1
ByBlock
  2

 70
0
 40
1.0
 71
1
 41
1.0
 91
-1023410177
 42
1.0
 72
1
  3

 73
1
 74
1
 75
1
 44
0.5
 73
0
 45
1.0
 46
1.0
 77
1
  4

 78
1
 79
1
170
1
 48
1.0
171
1
  6

172
1
173
1
174
1
140
1.0
141
1.0
175
1
  7

176
1
177
1
178
1
143
1.0
179
1
  8

270
1
271
1
272
1
145
1.0
146
1.0
273
1
  9

274
1
275
1
276
1
 42
1.0
 72
1
  3

 73
1
 74
1
 75
1
 94
63
  0
MATERIAL
  5
20
102
{ACAD_REACTORS
330
E
102
}
330
E
100
AcDbMaterial
  1
ByLayer
  2

 70
0
 40
1.0
 71
1
 41
1.0
 91
-1023410177
 42
1.0
 72
1
  3

 73
1
 74
1
 75
1
 44
0.5
 73
0
 45
1.0
 46
1.0
 77
1
  4

 78
1
 79
1
170
1
 48
1.0
171
1
  6

172
1
173
1
174
1
140
1.0
141
1.0
175
1
  7

176
1
177
1
178
1
143
1.0
179
1
  8

270
1
271
1
272
1
145
1.0
146
1.0
273
1
  9

274
1
275
1
276
1
 42
1.0
 72
1
  3

 73
1
 74
1
 75
1
 94
63
  0
MATERIAL
  5
21
102
{ACAD_REACTORS
330
E
102
}
330
E
100
AcDbMaterial
  1
Global
  2

 70
0
 40
1.0
 71
1
 41
1.0
 91
-1023410177
 42
1.0
 72
1
  3

 73
1
 74
1
 75
1
 44
0.5
 73
0
 45
1.0
 46
1.0
 77
1
  4

 78
1
 79
1
170
1
 48
1.0
171
1
  6

172
1
173
1
174
1
140
1.0
141
1.0
175
1
  7

176
1
177
1
178
1
143
1.0
179
1
  8

270
1
271
1
272
1
145
1.0
146
1.0
273
1
  9

274
1
275
1
276
1
 42
1.0
 72
1
  3

 73
1
 74
1
 75
1
 94
63
  0
MLINESTYLE
  5
22
102
{ACAD_REACTORS
330
10
102
}
330
10
100
AcDbMlineStyle
  2
Standard
 70
0
  3

 62
256
 51
90.0
 52
90.0
 71
2
 49
0.5
 62
256
  6
BYLAYER
 49
-0.5
 62
256
  6
BYLAYER
  0
MLEADERSTYLE
  5
2C
102
{ACAD_REACTORS
330
F
102
}
330
F
100
AcDbMLeaderStyle
179
2
170
2
171
1
172
0
 90
2
 40
0.0
 41
0.0
173
1
 91
-1056964608
 92
-2
290
1
 42
2.0
291
1
 43
8.0
  3
Standard
 44
4.0
300

342
29
174
1
175
1
176
0
178
1
 93
-1056964608
 45
4.0
292
0
297
0
 46
4.0
 94
-1056964608
 47
1.0
 49
1.0
140
1.0
294
1
141
0.0
177
0
142
1.0
295
0
296
0
143
3.75
271
0
272
9
273
9
  0
DICTIONARY
  5
2D
330
A
100
AcDbDictionary
281
1
  3
CREATED_BY_EZDXF
350
2E
  3
WRITTEN_BY_EZDXF
350
B3
  0
DICTIONARYVAR
  5
2E
330
2D
100
DictionaryVariables
280
0
  1
1.1.0 @ 2024-03-26T01:33:50.072164+00:00
  0
VISUALSTYLE
  5
5A
102
{ACAD_REACTORS
330
16
102
}
330
16
100
AcDbVisualStyle
  2
2dWireframe
 70
4
 90
0
 40
0.6
 62
7
290
0
291
0
  0
VISUALSTYLE
  5
5B
102
{ACAD_REACTORS
330
16
102
}
330
16
100
AcDbVisualStyle
  2
Basic
 70
7
 90
1
 40
0.6
 62
7
290
0
291
1
  0
VISUALSTYLE
  5
5C
102
{ACAD_REACTORS
330
16
102
}
330
16
100
AcDbVisualStyle
  2
Brighten
 70
12
 90
2
 40
0.6
 62
7
290
0
291
1
  0
VISUALSTYLE
  5
5D
102
{ACAD_REACTORS
330
16
102
}
330
16
100
AcDbVisualStyle
  2
ColorChange
 70
16
 90
2
 40
0.6
 62
8
290
0
291
1
  0
VISUALSTYLE
  5
5E
102
{ACAD_REACTORS
330
16
102
}
330
16
100
AcDbVisualStyle
  2
Conceptual
 70
9
 90
3
 40
0.6
 62
7
290
0
291
0
  0
VISUALSTYLE
  5
5F
102
{ACAD_REACTORS
330
16
102
}
330
16
100
AcDbVisualStyle
  2
Dim
 70
11
 90
2
 40
0.6
 62
7
290
0
291
1
  0
VISUALSTYLE
  5
60
102
{ACAD_REACTORS
330
16
102
}
330
16
100
AcDbVisualStyle
  2
EdgeColorOff
 70
22
 90
2
 40
0.6
 62
7
290
0
291
1
  0
VISUALSTYLE
  5
61
102
{ACAD_REACTORS
330
16
102
}
330
16
100
AcDbVisualStyle
  2
Facepattern
 70
15
 90
2
 40
0.6
 62
7
290
0
291
1
  0
VISUALSTYLE
  5
62
102
{ACAD_REACTORS
330
16
102
}
330
16
100
AcDbVisualStyle
  2
Flat
 70
0
 90
2
 40
0.6
 62
7
290
0
291
1
  0
VISUALSTYLE
  5
63
102
{ACAD_REACTORS
330
16
102
}
330
16
100
AcDbVisualStyle
  2
FlatWithEdges
 70
1
 90
2
 40
0.6
 62
7
290
0
291
1
  0
VISUALSTYLE
  5
64
102
{ACAD_REACTORS
330
16
102
}
330
16
100
AcDbVisualStyle
  2
Gouraud
 70
2
 90
2
 40
0.6
 62
7
290
0
291
1
  0
VISUALSTYLE
  5
65
102
{ACAD_REACTORS
330
16
102
}
330
16
100
AcDbVisualStyle
  2
GouraudWithEdges
 70
3
 90
2
 40
0.6
 62
7
290
0
291
1
  0
VISUALSTYLE
  5
66
102
{ACAD_REACTORS
330
16
102
}
330
16
100
AcDbVisualStyle
  2
Hidden
 70
6
 90
1
 40
0.6
 62
7
290
0
291
0
  0
VISUALSTYLE
  5
67
102
{ACAD_REACTORS
330
16
102
}
330
16
100
AcDbVisualStyle
  2
JitterOff
 70
20
 90
2
 40
0.6
 62
7
290
0
291
1
  0
VISUALSTYLE
  5
68
102
{ACAD_REACTORS
330
16
102
}
330
16
100
AcDbVisualStyle
  2
Linepattern
 70
14
 90
2
 40
0.6
 62
7
290
0
291
1
  0
VISUALSTYLE
  5
69
102
{ACAD_REACTORS
330
16
102
}
330
16
100
AcDbVisualStyle
  2
Modeling
 70
10
 90
2
 40
0.6
 62
7
290
0
291
0
  0
VISUALSTYLE
  5
6A
102
{ACAD_REACTORS
330
16
102
}
330
16
100
AcDbVisualStyle
  2
OverhangOff
 70
21
 90
2
 40
0.6
 62
7
290
0
291
1
  0
VISUALSTYLE
  5
6B
102
{ACAD_REACTORS
330
16
102
}
330
16
100
AcDbVisualStyle
  2
Realistic
 70
8
 90
2
 40
0.6
 62
7
290
0
291
0
  0
VISUALSTYLE
  5
6C
102
{ACAD_REACTORS
330
16
102
}
330
16
100
AcDbVisualStyle
  2
Shaded
 70
27
 90
2
 40
0.6
 62
7
290
0
291
0
  0
VISUALSTYLE
  5
6D
102
{ACAD_REACTORS
330
16
102
}
330
16
100
AcDbVisualStyle
  2
Shaded with edges
 70
26
 90
2
 40
0.6
 62
7
290
0
291
0
  0
VISUALSTYLE
  5
6E
102
{ACAD_REACTORS
330
16
102
}
330
16
100
AcDbVisualStyle
  2
Shades of Gray
 70
23
 90
2
 40
0.6
 62
7
290
0
291
0
  0
VISUALSTYLE
  5
6F
102
{ACAD_REACTORS
330
16
102
}
330
16
100
AcDbVisualStyle
  2
Sketchy
 70
24
 90
1
 40
0.6
 62
7
290
0
291
0
  0
VISUALSTYLE
  5
70
102
{ACAD_REACTORS
330
16
102
}
330
16
100
AcDbVisualStyle
  2
Thicken
 70
13
 90
2
 40
0.6
 62
7
290
0
291
1
  0
VISUALSTYLE
  5
71
102
{ACAD_REACTORS
330
16
102
}
330
16
100
AcDbVisualStyle
  2
Wireframe
 70
5
 90
0
 40
0.6
 62
7
290
0
291
0
  0
VISUALSTYLE
  5
72
102
{ACAD_REACTORS
330
16
102
}
330
16
100
AcDbVisualStyle
  2
X-Ray
 70
25
 90
2
 40
0.5
 62
7
290
0
291
0
  0
DICTIONARYVAR
  5
B3
330
2D
100
DictionaryVariables
280
0
  1
1.1.0 @ 2024-03-26T01:33:50.083261+00:00
  0
ENDSEC
  0
EOF
