  0
SECTION
  2
HEADER
  9
$ACADVER
  1
AC1021
  9
$ACADMAINTVER
 70
25
  9
$DWGCODEPAGE
  3
ANSI_1252
  9
$LASTSAVEDBY
  1
ezdxf
  9
$INSBASE
 10
0.0
 20
0.0
 30
0.0
  9
$EXTMIN
 10
1e+20
 20
1e+20
 30
1e+20
  9
$EXTMAX
 10
-1e+20
 20
-1e+20
 30
-1e+20
  9
$LIMMIN
 10
0.0
 20
0.0
  9
$LIMMAX
 10
420.0
 20
297.0
  9
$ORTHOMODE
 70
0
  9
$REGENMODE
 70
1
  9
$FILLMODE
 70
1
  9
$QTEXTMODE
 70
0
  9
$MIRRTEXT
 70
1
  9
$LTSCALE
 40
1.0
  9
$ATTMODE
 70
1
  9
$TEXTSIZE
 40
2.5
  9
$TRACEWID
 40
1.0
  9
$TEXTSTYLE
  7
OpenSans
  9
$CLAYER
  8
0
  9
$CELTYPE
  6
ByLayer
  9
$CECOLOR
 62
256
  9
$CELTSCALE
 40
1.0
  9
$DISPSILH
 70
0
  9
$DIMSCALE
 40
1.0
  9
$DIMASZ
 40
0.175
  9
$DIMEXO
 40
0.125
  9
$DIMDLI
 40
3.75
  9
$DIMRND
 40
0.0
  9
$DIMDLE
 40
0.0
  9
$DIMEXE
 40
0.375
  9
$DIMTP
 40
0.0
  9
$DIMTM
 40
0.0
  9
$DIMTXT
 40
0.25
  9
$DIMCEN
 40
2.5
  9
$DIMTSZ
 40
0.0
  9
$DIMTOL
 70
0
  9
$DIMLIM
 70
0
  9
$DIMTIH
 70
0
  9
$DIMTOH
 70
0
  9
$DIMSE1
 70
0
  9
$DIMSE2
 70
0
  9
$DIMTAD
 70
1
  9
$DIMZIN
 70
12
  9
$DIMBLK
  1
ARCHTICK
  9
$DIMASO
 70
1
  9
$DIMSHO
 70
1
  9
$DIMPOST
  1

  9
$DIMAPOST
  1

  9
$DIMALT
 70
0
  9
$DIMALTD
 70
3
  9
$DIMALTF
 40
0.03937007874
  9
$DIMLFAC
 40
100.0
  9
$DIMTOFL
 70
1
  9
$DIMTVP
 40
0.0
  9
$DIMTIX
 70
0
  9
$DIMSOXD
 70
0
  9
$DIMSAH
 70
0
  9
$DIMBLK1
  1

  9
$DIMBLK2
  1

  9
$DIMSTYLE
  2
EZDXF
  9
$DIMCLRD
 70
0
  9
$DIMCLRE
 70
0
  9
$DIMCLRT
 70
0
  9
$DIMTFAC
 40
0.5
  9
$DIMGAP
 40
0.1
  9
$DIMJUST
 70
0
  9
$DIMSD1
 70
0
  9
$DIMSD2
 70
0
  9
$DIMTOLJ
 70
0
  9
$DIMTZIN
 70
8
  9
$DIMALTZ
 70
0
  9
$DIMALTTZ
 70
0
  9
$DIMUPT
 70
1
  9
$DIMDEC
 70
2
  9
$DIMTDEC
 70
2
  9
$DIMALTU
 70
2
  9
$DIMALTTD
 70
3
  9
$DIMTXSTY
  7
OpenSansCondensed-Light
  9
$DIMAUNIT
 70
0
  9
$DIMADEC
 70
2
  9
$DIMALTRND
 40
0.0
  9
$DIMAZIN
 70
3
  9
$DIMDSEP
 70
46
  9
$DIMATFIT
 70
3
  9
$DIMFRAC
 70
0
  9
$DIMLDRBLK
  1

  9
$DIMLUNIT
 70
2
  9
$DIMLWD
 70
-2
  9
$DIMLWE
 70
-2
  9
$DIMTMOVE
 70
2
  9
$DIMFXL
 40
1.0
  9
$DIMFXLON
 70
0
  9
$DIMJOGANG
 40
0.785398163397
  9
$DIMTFILL
 70
0
  9
$DIMTFILLCLR
 70
0
  9
$DIMARCSYM
 70
0
  9
$DIMLTYPE
  6

  9
$DIMLTEX1
  6

  9
$DIMLTEX2
  6

  9
$LUNITS
 70
2
  9
$LUPREC
 70
4
  9
$SKETCHINC
 40
1.0
  9
$FILLETRAD
 40
10.0
  9
$AUNITS
 70
0
  9
$AUPREC
 70
2
  9
$MENU
  1
.
  9
$ELEVATION
 40
0.0
  9
$PELEVATION
 40
0.0
  9
$THICKNESS
 40
0.0
  9
$LIMCHECK
 70
0
  9
$CHAMFERA
 40
0.0
  9
$CHAMFERB
 40
0.0
  9
$CHAMFERC
 40
0.0
  9
$CHAMFERD
 40
0.0
  9
$SKPOLY
 70
0
  9
$TDCREATE
 40
2460396.440150463
  9
$TDUCREATE
 40
2458532.153996898
  9
$TDUPDATE
 40
2460396.440150463
  9
$TDUUPDATE
 40
2458532.1544311
  9
$TDINDWG
 40
0.0
  9
$TDUSRTIMER
 40
0.0
  9
$USRTIMER
 70
1
  9
$ANGBASE
 50
0.0
  9
$ANGDIR
 70
0
  9
$PDMODE
 70
0
  9
$PDSIZE
 40
0.0
  9
$PLINEWID
 40
0.0
  9
$SPLFRAME
 70
0
  9
$SPLINETYPE
 70
6
  9
$SPLINESEGS
 70
8
  9
$HANDSEED
  5
B4
  9
$SURFTAB1
 70
6
  9
$SURFTAB2
 70
6
  9
$SURFTYPE
 70
6
  9
$SURFU
 70
6
  9
$SURFV
 70
6
  9
$UCSBASE
  2

  9
$UCSNAME
  2

  9
$UCSORG
 10
0.0
 20
0.0
 30
0.0
  9
$UCSXDIR
 10
1.0
 20
0.0
 30
0.0
  9
$UCSYDIR
 10
0.0
 20
1.0
 30
0.0
  9
$UCSORTHOREF
  2

  9
$UCSORTHOVIEW
 70
0
  9
$UCSORGTOP
 10
0.0
 20
0.0
 30
0.0
  9
$UCSORGBOTTOM
 10
0.0
 20
0.0
 30
0.0
  9
$UCSORGLEFT
 10
0.0
 20
0.0
 30
0.0
  9
$UCSORGRIGHT
 10
0.0
 20
0.0
 30
0.0
  9
$UCSORGFRONT
 10
0.0
 20
0.0
 30
0.0
  9
$UCSORGBACK
 10
0.0
 20
0.0
 30
0.0
  9
$PUCSBASE
  2

  9
$PUCSNAME
  2

  9
$PUCSORG
 10
0.0
 20
0.0
 30
0.0
  9
$PUCSXDIR
 10
1.0
 20
0.0
 30
0.0
  9
$PUCSYDIR
 10
0.0
 20
1.0
 30
0.0
  9
$PUCSORTHOREF
  2

  9
$PUCSORTHOVIEW
 70
0
  9
$PUCSORGTOP
 10
0.0
 20
0.0
 30
0.0
  9
$PUCSORGBOTTOM
 10
0.0
 20
0.0
 30
0.0
  9
$PUCSORGLEFT
 10
0.0
 20
0.0
 30
0.0
  9
$PUCSORGRIGHT
 10
0.0
 20
0.0
 30
0.0
  9
$PUCSORGFRONT
 10
0.0
 20
0.0
 30
0.0
  9
$PUCSORGBACK
 10
0.0
 20
0.0
 30
0.0
  9
$USERI1
 70
0
  9
$USERI2
 70
0
  9
$USERI3
 70
0
  9
$USERI4
 70
0
  9
$USERI5
 70
0
  9
$USERR1
 40
0.0
  9
$USERR2
 40
0.0
  9
$USERR3
 40
0.0
  9
$USERR4
 40
0.0
  9
$USERR5
 40
0.0
  9
$WORLDVIEW
 70
1
  9
$SHADEDGE
 70
3
  9
$SHADEDIF
 70
70
  9
$TILEMODE
 70
1
  9
$MAXACTVP
 70
64
  9
$PINSBASE
 10
0.0
 20
0.0
 30
0.0
  9
$PLIMCHECK
 70
0
  9
$PEXTMIN
 10
1e+20
 20
1e+20
 30
1e+20
  9
$PEXTMAX
 10
-1e+20
 20
-1e+20
 30
-1e+20
  9
$PLIMMIN
 10
0.0
 20
0.0
  9
$PLIMMAX
 10
420.0
 20
297.0
  9
$UNITMODE
 70
0
  9
$VISRETAIN
 70
1
  9
$PLINEGEN
 70
0
  9
$PSLTSCALE
 70
1
  9
$TREEDEPTH
 70
3020
  9
$CMLSTYLE
  2
Standard
  9
$CMLJUST
 70
0
  9
$CMLSCALE
 40
20.0
  9
$PROXYGRAPHICS
 70
1
  9
$MEASUREMENT
 70
1
  9
$CELWEIGHT
370
-1
  9
$ENDCAPS
280
0
  9
$JOINSTYLE
280
0
  9
$LWDISPLAY
290
0
  9
$INSUNITS
 70
6
  9
$HYPERLINKBASE
  1

  9
$STYLESHEET
  1

  9
$XEDIT
290
1
  9
$CEPSNTYPE
380
0
  9
$PSTYLEMODE
290
1
  9
$FINGERPRINTGUID
  2
{400728F3-AC28-454E-8155-D837C0AC3B6E}
  9
$VERSIONGUID
  2
{93DBE9EC-481F-41B8-9E0E-9F83220D9C80}
  9
$EXTNAMES
290
1
  9
$PSVPSCALE
 40
0.0
  9
$OLESTARTUP
290
0
  9
$SORTENTS
280
127
  9
$INDEXCTL
280
0
  9
$HIDETEXT
280
1
  9
$XCLIPFRAME
290
0
  9
$HALOGAP
280
0
  9
$OBSCOLOR
 70
257
  9
$OBSLTYPE
280
0
  9
$INTERSECTIONDISPLAY
280
0
  9
$INTERSECTIONCOLOR
 70
257
  9
$DIMASSOC
280
2
  9
$PROJECTNAME
  1

  9
$CAMERADISPLAY
290
0
  9
$LENSLENGTH
 40
50.0
  9
$CAMERAHEIGHT
 40
0.0
  9
$STEPSPERSEC
 40
24.0
  9
$STEPSIZE
 40
100.0
  9
$3DDWFPREC
 40
2.0
  9
$PSOLWIDTH
 40
0.005
  9
$PSOLHEIGHT
 40
0.08
  9
$LOFTANG1
 40
1.570796326795
  9
$LOFTANG2
 40
1.570796326795
  9
$LOFTMAG1
 40
0.0
  9
$LOFTMAG2
 40
0.0
  9
$LOFTPARAM
 70
7
  9
$LOFTNORMALS
280
1
  9
$LATITUDE
 40
37.795
  9
$LONGITUDE
 40
-122.394
  9
$NORTHDIRECTION
 40
0.0
  9
$TIMEZONE
 70
-8000
  9
$LIGHTGLYPHDISPLAY
280
1
  9
$TILEMODELIGHTSYNCH
280
1
  9
$CMATERIAL
347
20
  9
$SOLIDHIST
280
0
  9
$SHOWHIST
280
1
  9
$DWFFRAME
280
2
  9
$DGNFRAME
280
2
  9
$REALWORLDSCALE
290
1
  9
$INTERFERECOLOR
 62
256
  9
$CSHADOW
280
0
  9
$SHADOWPLANELOCATION
 40
0.0
  0
ENDSEC
  0
SECTION
  2
CLASSES
  0
CLASS
  1
ACDBDICTIONARYWDFLT
  2
AcDbDictionaryWithDefault
  3
ObjectDBX Classes
 90
0
 91
0
280
0
281
0
  0
CLASS
  1
SUN
  2
AcDbSun
  3
SCENEOE
 90
1153
 91
0
280
0
281
0
  0
CLASS
  1
VISUALSTYLE
  2
AcDbVisualStyle
  3
ObjectDBX Classes
 90
4095
 91
0
280
0
281
0
  0
CLASS
  1
MATERIAL
  2
AcDbMaterial
  3
ObjectDBX Classes
 90
1153
 91
0
280
0
281
0
  0
CLASS
  1
SCALE
  2
AcDbScale
  3
ObjectDBX Classes
 90
1153
 91
0
280
0
281
0
  0
CLASS
  1
TABLESTYLE
  2
AcDbTableStyle
  3
ObjectDBX Classes
 90
4095
 91
0
280
0
281
0
  0
CLASS
  1
MLEADERSTYLE
  2
AcDbMLeaderStyle
  3
ACDB_MLEADERSTYLE_CLASS
 90
4095
 91
0
280
0
281
0
  0
CLASS
  1
DICTIONARYVAR
  2
AcDbDictionaryVar
  3
ObjectDBX Classes
 90
0
 91
0
280
0
281
0
  0
CLASS
  1
CELLSTYLEMAP
  2
AcDbCellStyleMap
  3
ObjectDBX Classes
 90
1152
 91
0
280
0
281
0
  0
CLASS
  1
MENTALRAYRENDERSETTINGS
  2
AcDbMentalRayRenderSettings
  3
SCENEOE
 90
1024
 91
0
280
0
281
0
  0
CLASS
  1
ACDBDETAILVIEWSTYLE
  2
AcDbDetailViewStyle
  3
ObjectDBX Classes
 90
1025
 91
0
280
0
281
0
  0
CLASS
  1
ACDBSECTIONVIEWSTYLE
  2
AcDbSectionViewStyle
  3
ObjectDBX Classes
 90
1025
 91
0
280
0
281
0
  0
CLASS
  1
RASTERVARIABLES
  2
AcDbRasterVariables
  3
ISM
 90
0
 91
0
280
0
281
0
  0
CLASS
  1
LAYOUT
  2
AcDbLayout
  3
ObjectDBX Classes
 90
0
 91
0
280
0
281
0
  0
CLASS
  1
ACDBPLACEHOLDER
  2
AcDbPlaceHolder
  3
ObjectDBX Classes
 90
0
 91
0
280
0
281
0
  0
ENDSEC
  0
SECTION
  2
TABLES
  0
TABLE
  2
VPORT
  5
8
330
0
100
AcDbSymbolTable
 70
1
  0
VPORT
  5
23
330
8
100
AcDbSymbolTableRecord
100
AcDbViewportTableRecord
  2
*Active
 70
0
 10
0.0
 20
0.0
 11
1.0
 21
1.0
 12
0.0
 22
0.0
 13
0.0
 23
0.0
 14
0.5
 24
0.5
 15
0.5
 25
0.5
 16
0.0
 26
0.0
 36
1.0
 17
0.0
 27
0.0
 37
0.0
 40
1000.0
 41
1.34
 42
50.0
 43
0.0
 44
0.0
 50
0.0
 51
0.0
 71
0
 72
1000
 73
1
 74
3
 75
0
 76
0
 77
0
 78
0
281
0
 65
0
146
0.0
  0
ENDTAB
  0
TABLE
  2
LTYPE
  5
2
330
0
100
AcDbSymbolTable
 70
21
  0
LTYPE
  5
24
330
2
100
AcDbSymbolTableRecord
100
AcDbLinetypeTableRecord
  2
ByBlock
 70
0
  3

 72
65
 73
0
 40
0.0
  0
LTYPE
  5
25
330
2
100
AcDbSymbolTableRecord
100
AcDbLinetypeTableRecord
  2
ByLayer
 70
0
  3

 72
65
 73
0
 40
0.0
  0
LTYPE
  5
26
330
2
100
AcDbSymbolTableRecord
100
AcDbLinetypeTableRecord
  2
Continuous
 70
0
  3

 72
65
 73
0
 40
0.0
  0
LTYPE
  5
2F
330
2
100
AcDbSymbolTableRecord
100
AcDbLinetypeTableRecord
  2
CENTER
 70
0
  3
Center ____ _ ____ _ ____ _ ____ _ ____ _ ____
 72
65
 73
4
 40
5.08
 49
3.175
 74
0
 49
-0.635
 74
0
 49
0.635
 74
0
 49
-0.635
 74
0
  0
LTYPE
  5
30
330
2
100
AcDbSymbolTableRecord
100
AcDbLinetypeTableRecord
  2
CENTERX2
 70
0
  3
Center (2x) ________  __  ________  __  ________
 72
65
 73
4
 40
8.89
 49
6.35
 74
0
 49
-0.635
 74
0
 49
1.27
 74
0
 49
-0.635
 74
0
  0
LTYPE
  5
31
330
2
100
AcDbSymbolTableRecord
100
AcDbLinetypeTableRecord
  2
CENTER2
 70
0
  3
Center (.5x) ____ _ ____ _ ____ _ ____ _ ____
 72
65
 73
4
 40
2.54
 49
1.587
 74
0
 49
-0.318
 74
0
 49
0.318
 74
0
 49
-0.318
 74
0
  0
LTYPE
  5
32
330
2
100
AcDbSymbolTableRecord
100
AcDbLinetypeTableRecord
  2
DASHED
 70
0
  3
Dashed __ __ __ __ __ __ __ __ __ __ __ __ __ _
 72
65
 73
2
 40
1.524
 49
1.27
 74
0
 49
-0.254
 74
0
  0
LTYPE
  5
33
330
2
100
AcDbSymbolTableRecord
100
AcDbLinetypeTableRecord
  2
DASHEDX2
 70
0
  3
Dashed (2x) ____  ____  ____  ____  ____  ____
 72
65
 73
2
 40
3.048
 49
2.54
 74
0
 49
-0.508
 74
0
  0
LTYPE
  5
34
330
2
100
AcDbSymbolTableRecord
100
AcDbLinetypeTableRecord
  2
DASHED2
 70
0
  3
Dashed (.5x) _ _ _ _ _ _ _ _ _ _ _ _ _ _
 72
65
 73
2
 40
0.762
 49
0.635
 74
0
 49
-0.127
 74
0
  0
LTYPE
  5
35
330
2
100
AcDbSymbolTableRecord
100
AcDbLinetypeTableRecord
  2
PHANTOM
 70
0
  3
Phantom ______  __  __  ______  __  __  ______
 72
65
 73
6
 40
6.35
 49
3.175
 74
0
 49
-0.635
 74
0
 49
0.635
 74
0
 49
-0.635
 74
0
 49
0.635
 74
0
 49
-0.635
 74
0
  0
LTYPE
  5
36
330
2
100
AcDbSymbolTableRecord
100
AcDbLinetypeTableRecord
  2
PHANTOMX2
 70
0
  3
Phantom (2x)____________    ____    ____    ____________
 72
65
 73
6
 40
10.795
 49
6.35
 74
0
 49
-0.635
 74
0
 49
1.27
 74
0
 49
-0.635
 74
0
 49
1.27
 74
0
 49
-0.635
 74
0
  0
LTYPE
  5
37
330
2
100
AcDbSymbolTableRecord
100
AcDbLinetypeTableRecord
  2
PHANTOM2
 70
0
  3
Phantom (.5x) ___ _ _ ___ _ _ ___ _ _ ___ _ _ ___
 72
65
 73
6
 40
3.175
 49
1.587
 74
0
 49
-0.318
 74
0
 49
0.318
 74
0
 49
-0.318
 74
0
 49
0.318
 74
0
 49
-0.318
 74
0
  0
LTYPE
  5
38
330
2
100
AcDbSymbolTableRecord
100
AcDbLinetypeTableRecord
  2
DASHDOT
 70
0
  3
Dash dot __ . __ . __ . __ . __ . __ . __ . __
 72
65
 73
4
 40
3.556
 49
2.54
 74
0
 49
-0.508
 74
0
 49
0.0
 74
0
 49
-0.508
 74
0
  0
LTYPE
  5
39
330
2
100
AcDbSymbolTableRecord
100
AcDbLinetypeTableRecord
  2
DASHDOTX2
 70
0
  3
Dash dot (2x) ____  .  ____  .  ____  .  ____
 72
65
 73
4
 40
6.096
 49
5.08
 74
0
 49
-0.508
 74
0
 49
0.0
 74
0
 49
-0.508
 74
0
  0
LTYPE
  5
3A
330
2
100
AcDbSymbolTableRecord
100
AcDbLinetypeTableRecord
  2
DASHDOT2
 70
0
  3
Dash dot (.5x) _ . _ . _ . _ . _ . _ . _ . _
 72
65
 73
4
 40
1.778
 49
1.27
 74
0
 49
-0.254
 74
0
 49
0.0
 74
0
 49
-0.254
 74
0
  0
LTYPE
  5
3B
330
2
100
AcDbSymbolTableRecord
100
AcDbLinetypeTableRecord
  2
DOT
 70
0
  3
Dot .  .  .  .  .  .  .  .  .  .  .  .  .  .  .  .
 72
65
 73
2
 40
0.508
 49
0.0
 74
0
 49
-0.508
 74
0
  0
LTYPE
  5
3C
330
2
100
AcDbSymbolTableRecord
100
AcDbLinetypeTableRecord
  2
DOTX2
 70
0
  3
Dot (2x) .    .    .    .    .    .    .    . 
 72
65
 73
2
 40
1.016
 49
0.0
 74
0
 49
-1.016
 74
0
  0
LTYPE
  5
3D
330
2
100
AcDbSymbolTableRecord
100
AcDbLinetypeTableRecord
  2
DOT2
 70
0
  3
Dot (.5) . . . . . . . . . . . . . . . . . . . 
 72
65
 73
2
 40
0.254
 49
0.0
 74
0
 49
-0.254
 74
0
  0
LTYPE
  5
3E
330
2
100
AcDbSymbolTableRecord
100
AcDbLinetypeTableRecord
  2
DIVIDE
 70
0
  3
Divide __ . . __ . . __ . . __ . . __ . . __
 72
65
 73
6
 40
4.064
 49
2.54
 74
0
 49
-0.508
 74
0
 49
0.0
 74
0
 49
-0.508
 74
0
 49
0.0
 74
0
 49
-0.508
 74
0
  0
LTYPE
  5
3F
330
2
100
AcDbSymbolTableRecord
100
AcDbLinetypeTableRecord
  2
DIVIDEX2
 70
0
  3
Divide (2x) ____  . .  ____  . .  ____  . .  ____
 72
65
 73
6
 40
6.604
 49
5.08
 74
0
 49
-0.508
 74
0
 49
0.0
 74
0
 49
-0.508
 74
0
 49
0.0
 74
0
 49
-0.508
 74
0
  0
LTYPE
  5
40
330
2
100
AcDbSymbolTableRecord
100
AcDbLinetypeTableRecord
  2
DIVIDE2
 70
0
  3
Divide(.5x) _ . _ . _ . _ . _ . _ . _ . _
 72
65
 73
6
 40
2.032
 49
1.27
 74
0
 49
-0.254
 74
0
 49
0.0
 74
0
 49
-0.254
 74
0
 49
0.0
 74
0
 49
-0.254
 74
0
  0
ENDTAB
  0
TABLE
  2
LAYER
  5
1
330
0
100
AcDbSymbolTable
 70
3
  0
LAYER
  5
27
330
1
100
AcDbSymbolTableRecord
100
AcDbLayerTableRecord
  2
0
 70
0
 62
7
  6
Continuous
370
-3
390
13
347
21
  0
LAYER
  5
28
330
1
100
AcDbSymbolTableRecord
100
AcDbLayerTableRecord
  2
Defpoints
 70
0
 62
7
  6
Continuous
290
0
370
-3
390
13
347
21
  0
LAYER
  5
8A
330
1
100
AcDbSymbolTableRecord
100
AcDbLayerTableRecord
  2
Layer
 70
0
 62
1
  6
Continuous
370
50
390
13
347
21
  0
ENDTAB
  0
TABLE
  2
STYLE
  5
5
330
0
100
AcDbSymbolTable
 70
26
  0
STYLE
  5
29
330
5
100
AcDbSymbolTableRecord
100
AcDbTextStyleTableRecord
  2
Standard
 70
0
 40
0.0
 41
1.0
 50
0.0
 71
0
 42
2.5
  3
txt
  4

  0
STYLE
  5
41
330
5
100
AcDbSymbolTableRecord
100
AcDbTextStyleTableRecord
  2
OpenSans-Light
 70
0
 40
0.0
 41
1.0
 50
0.0
 71
0
 42
2.5
  3
OpenSans-Light.ttf
  4

  0
STYLE
  5
42
330
5
100
AcDbSymbolTableRecord
100
AcDbTextStyleTableRecord
  2
OpenSans-Light-Italic
 70
0
 40
0.0
 41
1.0
 50
0.0
 71
0
 42
2.5
  3
OpenSans-LightItalic.ttf
  4

  0
STYLE
  5
43
330
5
100
AcDbSymbolTableRecord
100
AcDbTextStyleTableRecord
  2
OpenSans
 70
0
 40
0.0
 41
1.0
 50
0.0
 71
0
 42
2.5
  3
OpenSans-Regular.ttf
  4

  0
STYLE
  5
44
330
5
100
AcDbSymbolTableRecord
100
AcDbTextStyleTableRecord
  2
OpenSans-Italic
 70
0
 40
0.0
 41
1.0
 50
0.0
 71
0
 42
2.5
  3
OpenSans-Italic.ttf
  4

  0
STYLE
  5
45
330
5
100
AcDbSymbolTableRecord
100
AcDbTextStyleTableRecord
  2
OpenSans-SemiBold
 70
0
 40
0.0
 41
1.0
 50
0.0
 71
0
 42
2.5
  3
OpenSans-SemiBold.ttf
  4

  0
STYLE
  5
46
330
5
100
AcDbSymbolTableRecord
100
AcDbTextStyleTableRecord
  2
OpenSans-SemiBoldItalic
 70
0
 40
0.0
 41
1.0
 50
0.0
 71
0
 42
2.5
  3
OpenSans-SemiBoldItalic.ttf
  4

  0
STYLE
  5
47
330
5
100
AcDbSymbolTableRecord
100
AcDbTextStyleTableRecord
  2
OpenSans-Bold
 70
0
 40
0.0
 41
1.0
 50
0.0
 71
0
 42
2.5
  3
OpenSans-Bold.ttf
  4

  0
STYLE
  5
48
330
5
100
AcDbSymbolTableRecord
100
AcDbTextStyleTableRecord
  2
OpenSans-BoldItalic
 70
0
 40
0.0
 41
1.0
 50
0.0
 71
0
 42
2.5
  3
OpenSans-BoldItalic.ttf
  4

  0
STYLE
  5
49
330
5
100
AcDbSymbolTableRecord
100
AcDbTextStyleTableRecord
  2
OpenSans-ExtraBold
 70
0
 40
0.0
 41
1.0
 50
0.0
 71
0
 42
2.5
  3
OpenSans-ExtraBold.ttf
  4

  0
STYLE
  5
4A
330
5
100
AcDbSymbolTableRecord
100
AcDbTextStyleTableRecord
  2
OpenSans-ExtraBoldItalic
 70
0
 40
0.0
 41
1.0
 50
0.0
 71
0
 42
2.5
  3
OpenSans-ExtraBoldItalic.ttf
  4

  0
STYLE
  5
4B
330
5
100
AcDbSymbolTableRecord
100
AcDbTextStyleTableRecord
  2
OpenSansCondensed-Bold
 70
0
 40
0.0
 41
1.0
 50
0.0
 71
0
 42
2.5
  3
OpenSansCondensed-Bold.ttf
  4

  0
STYLE
  5
4C
330
5
100
AcDbSymbolTableRecord
100
AcDbTextStyleTableRecord
  2
OpenSansCondensed-Light
 70
0
 40
0.0
 41
1.0
 50
0.0
 71
0
 42
2.5
  3
OpenSansCondensed-Light.ttf
  4

  0
STYLE
  5
4D
330
5
100
AcDbSymbolTableRecord
100
AcDbTextStyleTableRecord
  2
OpenSansCondensed-Italic
 70
0
 40
0.0
 41
1.0
 50
0.0
 71
0
 42
2.5
  3
OpenSansCondensed-LightItalic.ttf
  4

  0
STYLE
  5
4E
330
5
100
AcDbSymbolTableRecord
100
AcDbTextStyleTableRecord
  2
LiberationSans
 70
0
 40
0.0
 41
1.0
 50
0.0
 71
0
 42
2.5
  3
LiberationSans-Regular.ttf
  4

  0
STYLE
  5
4F
330
5
100
AcDbSymbolTableRecord
100
AcDbTextStyleTableRecord
  2
LiberationSans-Bold
 70
0
 40
0.0
 41
1.0
 50
0.0
 71
0
 42
2.5
  3
LiberationSans-Bold.ttf
  4

  0
STYLE
  5
50
330
5
100
AcDbSymbolTableRecord
100
AcDbTextStyleTableRecord
  2
LiberationSans-BoldItalic
 70
0
 40
0.0
 41
1.0
 50
0.0
 71
0
 42
2.5
  3
LiberationSans-BoldItalic.ttf
  4

  0
STYLE
  5
51
330
5
100
AcDbSymbolTableRecord
100
AcDbTextStyleTableRecord
  2
LiberationSans-Italic
 70
0
 40
0.0
 41
1.0
 50
0.0
 71
0
 42
2.5
  3
LiberationSans-Italic.ttf
  4

  0
STYLE
  5
52
330
5
100
AcDbSymbolTableRecord
100
AcDbTextStyleTableRecord
  2
LiberationSerif
 70
0
 40
0.0
 41
1.0
 50
0.0
 71
0
 42
2.5
  3
LiberationSerif-Regular.ttf
  4

  0
STYLE
  5
53
330
5
100
AcDbSymbolTableRecord
100
AcDbTextStyleTableRecord
  2
LiberationSerif-Bold
 70
0
 40
0.0
 41
1.0
 50
0.0
 71
0
 42
2.5
  3
LiberationSerif-Bold.ttf
  4

  0
STYLE
  5
54
330
5
100
AcDbSymbolTableRecord
100
AcDbTextStyleTableRecord
  2
LiberationSerif-BoldItalic
 70
0
 40
0.0
 41
1.0
 50
0.0
 71
0
 42
2.5
  3
LiberationSerif-BoldItalic.ttf
  4

  0
STYLE
  5
55
330
5
100
AcDbSymbolTableRecord
100
AcDbTextStyleTableRecord
  2
LiberationSerif-Italic
 70
0
 40
0.0
 41
1.0
 50
0.0
 71
0
 42
2.5
  3
LiberationSerif-Italic.ttf
  4

  0
STYLE
  5
56
330
5
100
AcDbSymbolTableRecord
100
AcDbTextStyleTableRecord
  2
LiberationMono
 70
0
 40
0.0
 41
1.0
 50
0.0
 71
0
 42
2.5
  3
LiberationMono-Regular.ttf
  4

  0
STYLE
  5
57
330
5
100
AcDbSymbolTableRecord
100
AcDbTextStyleTableRecord
  2
LiberationMono-Bold
 70
0
 40
0.0
 41
1.0
 50
0.0
 71
0
 42
2.5
  3
LiberationMono-Bold.ttf
  4

  0
STYLE
  5
58
330
5
100
AcDbSymbolTableRecord
100
AcDbTextStyleTableRecord
  2
LiberationMono-BoldItalic
 70
0
 40
0.0
 41
1.0
 50
0.0
 71
0
 42
2.5
  3
LiberationMono-BoldItalic.ttf
  4

  0
STYLE
  5
59
330
5
100
AcDbSymbolTableRecord
100
AcDbTextStyleTableRecord
  2
LiberationMono-Italic
 70
0
 40
0.0
 41
1.0
 50
0.0
 71
0
 42
2.5
  3
LiberationMono-Italic.ttf
  4

  0
ENDTAB
  0
TABLE
  2
VIEW
  5
7
330
0
100
AcDbSymbolTable
 70
0
  0
ENDTAB
  0
TABLE
  2
UCS
  5
6
330
0
100
AcDbSymbolTable
 70
0
  0
ENDTAB
  0
TABLE
  2
APPID
  5
3
330
0
100
AcDbSymbolTable
 70
3
  0
APPID
  5
2A
330
3
100
AcDbSymbolTableRecord
100
AcDbRegAppTableRecord
  2
ACAD
 70
0
  0
APPID
  5
B1
330
3
100
AcDbSymbolTableRecord
100
AcDbRegAppTableRecord
  2
HATCHBACKGROUNDCOLOR
 70
0
  0
APPID
  5
B2
330
3
100
AcDbSymbolTableRecord
100
AcDbRegAppTableRecord
  2
EZDXF
 70
0
  0
ENDTAB
  0
TABLE
  2
DIMSTYLE
  5
4
330
0
100
AcDbSymbolTable
 70
12
100
AcDbDimStyleTable
  0
DIMSTYLE
105
2B
330
4
100
AcDbSymbolTableRecord
100
AcDbDimStyleTableRecord
  2
Standard
 70
0
 40
1.0
 41
2.5
 42
0.625
 43
3.75
 44
1.25
 45
0.0
 46
0.0
 47
0.0
 48
0.0
 49
2.5
140
2.5
141
2.5
142
0.0
143
0.03937007874
144
1.0
145
0.0
146
1.0
147
0.625
148
0.0
 69
0
 70
0
 71
0
 72
0
 73
0
 74
0
 75
0
 76
0
 77
1
 78
8
 79
3
170
0
171
3
172
1
173
0
174
0
175
0
176
0
177
0
178
0
179
2
271
2
272
2
273
2
274
3
275
0
276
0
277
2
278
44
279
0
280
0
281
0
282
0
283
0
284
8
285
0
286
0
288
0
289
3
290
0
371
-2
372
-2
  0
DIMSTYLE
105
73
330
4
100
AcDbSymbolTableRecord
100
AcDbDimStyleTableRecord
  2
EZDXF
 70
0
 40
1.0
 41
0.175
 42
0.125
 43
3.75
 44
0.375
 45
0.0
 46
0.0
 47
0.0
 48
0.0
 49
2.5
140
0.25
141
2.5
142
0.0
143
0.03937007874
144
100.0
145
0.0
146
0.5
147
0.1
148
0.0
 69
0
 70
0
 71
0
 72
0
 73
0
 74
0
 75
0
 76
0
 77
1
 78
12
 79
3
170
0
171
3
172
1
173
0
174
0
175
0
176
0
177
0
178
0
179
2
271
2
272
2
273
2
274
3
275
0
276
0
277
2
278
46
279
2
280
0
281
0
282
0
283
0
284
8
285
0
286
0
288
1
289
3
290
0
340
4C
342
74
371
-2
372
-2
  0
DIMSTYLE
105
7C
330
4
100
AcDbSymbolTableRecord
100
AcDbDimStyleTableRecord
  2
EZ_M_100_H25_CM
 70
0
 40
1.0
 41
0.25
 42
0.125
 43
3.75
 44
0.375
 45
0.0
 46
0.0
 47
0.0
 48
0.0
 49
2.5
140
0.25
141
2.5
142
0.125
143
0.03937007874
144
100.0
145
0.0
146
0.5
147
0.1
148
0.0
 69
0
 70
0
 71
0
 72
0
 73
0
 74
0
 75
0
 76
0
 77
1
 78
12
 79
3
170
0
171
3
172
1
173
0
174
0
175
0
176
0
177
0
178
0
179
2
271
2
272
2
273
2
274
3
275
0
276
0
277
2
278
46
279
2
280
0
281
0
282
0
283
0
284
8
285
0
286
0
288
1
289
3
290
0
340
4C
371
-2
372
-2
  0
DIMSTYLE
105
7D
330
4
100
AcDbSymbolTableRecord
100
AcDbDimStyleTableRecord
  2
EZ_M_50_H25_CM
 70
0
 40
1.0
 41
0.125
 42
0.0625
 43
3.75
 44
0.1875
 45
0.0
 46
0.0
 47
0.0
 48
0.0
 49
2.5
140
0.125
141
2.5
142
0.0625
143
0.03937007874
144
100.0
145
0.0
146
0.5
147
0.05
148
0.0
 69
0
 70
0
 71
0
 72
0
 73
0
 74
0
 75
0
 76
0
 77
1
 78
12
 79
3
170
0
171
3
172
1
173
0
174
0
175
0
176
0
177
0
178
0
179
2
271
2
272
2
273
2
274
3
275
0
276
0
277
2
278
46
279
2
280
0
281
0
282
0
283
0
284
8
285
0
286
0
288
1
289
3
290
0
340
4C
371
-2
372
-2
  0
DIMSTYLE
105
7E
330
4
100
AcDbSymbolTableRecord
100
AcDbDimStyleTableRecord
  2
EZ_M_25_H25_CM
 70
0
 40
1.0
 41
0.0625
 42
0.03125
 43
3.75
 44
0.09375
 45
0.0
 46
0.0
 47
0.0
 48
0.0
 49
2.5
140
0.0625
141
2.5
142
0.03125
143
0.03937007874
144
100.0
145
0.0
146
0.5
147
0.025
148
0.0
 69
0
 70
0
 71
0
 72
0
 73
0
 74
0
 75
0
 76
0
 77
1
 78
12
 79
3
170
0
171
3
172
1
173
0
174
0
175
0
176
0
177
0
178
0
179
2
271
2
272
2
273
2
274
3
275
0
276
0
277
2
278
46
279
2
280
0
281
0
282
0
283
0
284
8
285
0
286
0
288
1
289
3
290
0
340
4C
371
-2
372
-2
  0
DIMSTYLE
105
7F
330
4
100
AcDbSymbolTableRecord
100
AcDbDimStyleTableRecord
  2
EZ_M_20_H25_CM
 70
0
 40
1.0
 41
0.05
 42
0.025
 43
3.75
 44
0.07500000000000001
 45
0.0
 46
0.0
 47
0.0
 48
0.0
 49
2.5
140
0.05
141
2.5
142
0.025
143
0.03937007874
144
100.0
145
0.0
146
0.5
147
0.020000000000000004
148
0.0
 69
0
 70
0
 71
0
 72
0
 73
0
 74
0
 75
0
 76
0
 77
1
 78
12
 79
3
170
0
171
3
172
1
173
0
174
0
175
0
176
0
177
0
178
0
179
2
271
2
272
2
273
2
274
3
275
0
276
0
277
2
278
46
279
2
280
0
281
0
282
0
283
0
284
8
285
0
286
0
288
1
289
3
290
0
340
4C
371
-2
372
-2
  0
DIMSTYLE
105
80
330
4
100
AcDbSymbolTableRecord
100
AcDbDimStyleTableRecord
  2
EZ_M_10_H25_CM
 70
0
 40
1.0
 41
0.025
 42
0.0125
 43
3.75
 44
0.037500000000000006
 45
0.0
 46
0.0
 47
0.0
 48
0.0
 49
2.5
140
0.025
141
2.5
142
0.0125
143
0.03937007874
144
100.0
145
0.0
146
0.5
147
0.010000000000000002
148
0.0
 69
0
 70
0
 71
0
 72
0
 73
0
 74
0
 75
0
 76
0
 77
1
 78
12
 79
3
170
0
171
3
172
1
173
0
174
0
175
0
176
0
177
0
178
0
179
2
271
2
272
2
273
2
274
3
275
0
276
0
277
2
278
46
279
2
280
0
281
0
282
0
283
0
284
8
285
0
286
0
288
1
289
3
290
0
340
4C
371
-2
372
-2
  0
DIMSTYLE
105
81
330
4
100
AcDbSymbolTableRecord
100
AcDbDimStyleTableRecord
  2
EZ_M_5_H25_CM
 70
0
 40
1.0
 41
0.0125
 42
0.00625
 43
3.75
 44
0.018750000000000003
 45
0.0
 46
0.0
 47
0.0
 48
0.0
 49
2.5
140
0.0125
141
2.5
142
0.00625
143
0.03937007874
144
100.0
145
0.0
146
0.5
147
0.005000000000000001
148
0.0
 69
0
 70
0
 71
0
 72
0
 73
0
 74
0
 75
0
 76
0
 77
1
 78
12
 79
3
170
0
171
3
172
1
173
0
174
0
175
0
176
0
177
0
178
0
179
2
271
2
272
2
273
2
274
3
275
0
276
0
277
2
278
46
279
2
280
0
281
0
282
0
283
0
284
8
285
0
286
0
288
1
289
3
290
0
340
4C
371
-2
372
-2
  0
DIMSTYLE
105
82
330
4
100
AcDbSymbolTableRecord
100
AcDbDimStyleTableRecord
  2
EZ_M_1_H25_CM
 70
0
 40
1.0
 41
0.0025
 42
0.00125
 43
3.75
 44
0.00375
 45
0.0
 46
0.0
 47
0.0
 48
0.0
 49
2.5
140
0.0025
141
2.5
142
0.00125
143
0.03937007874
144
100.0
145
0.0
146
0.5
147
0.001
148
0.0
 69
0
 70
0
 71
0
 72
0
 73
0
 74
0
 75
0
 76
0
 77
1
 78
12
 79
3
170
0
171
3
172
1
173
0
174
0
175
0
176
0
177
0
178
0
179
2
271
2
272
2
273
2
274
3
275
0
276
0
277
2
278
46
279
2
280
0
281
0
282
0
283
0
284
8
285
0
286
0
288
1
289
3
290
0
340
4C
371
-2
372
-2
  0
DIMSTYLE
105
83
330
4
100
AcDbSymbolTableRecord
100
AcDbDimStyleTableRecord
  2
EZ_RADIUS
 70
0
 40
1.0
 41
0.25
 42
0.125
 43
3.75
 44
0.375
 45
0.0
 46
0.0
 47
0.0
 48
0.0
 49
2.5
140
0.25
141
0.0
142
0.0
143
0.03937007874
144
100.0
145
0.0
146
0.5
147
0.1
148
0.0
 69
0
 70
0
 71
0
 72
0
 73
0
 74
0
 75
0
 76
0
 77
1
 78
12
 79
3
170
0
171
3
172
0
173
0
174
0
175
0
176
0
177
0
178
0
179
2
271
2
272
2
273
2
274
3
275
0
276
0
277
2
278
46
279
1
280
0
281
0
282
0
283
0
284
8
285
0
286
0
288
1
289
3
290
0
340
4C
342
84
371
-2
372
-2
  0
DIMSTYLE
105
88
330
4
100
AcDbSymbolTableRecord
100
AcDbDimStyleTableRecord
  2
EZ_RADIUS_INSIDE
 70
0
 40
1.0
 41
0.25
 42
0.125
 43
3.75
 44
0.375
 45
0.0
 46
0.0
 47
0.0
 48
0.0
 49
2.5
140
0.25
141
0.0
142
0.0
143
0.03937007874
144
100.0
145
0.0
146
0.5
147
0.1
148
0.0
 69
0
 70
0
 71
0
 72
0
 73
0
 74
0
 75
0
 76
0
 77
0
 78
12
 79
3
170
0
171
3
172
0
173
0
174
1
175
0
176
0
177
0
178
0
179
2
271
2
272
2
273
2
274
3
275
0
276
0
277
2
278
46
279
0
280
0
281
0
282
0
283
0
284
8
285
0
286
0
288
1
289
0
290
0
340
4C
342
84
371
-2
372
-2
  0
DIMSTYLE
105
89
330
4
100
AcDbSymbolTableRecord
100
AcDbDimStyleTableRecord
  2
EZ_CURVED
 70
0
 40
1.0
 41
0.25
 42
0.125
 43
3.75
 44
0.375
 45
0.0
 46
0.0
 47
0.0
 48
0.0
 49
2.5
140
0.25
141
2.5
142
0.0
143
0.03937007874
144
100.0
145
0.0
146
0.5
147
0.1
148
0.0
 69
0
 70
0
 71
0
 72
0
 73
0
 74
0
 75
0
 76
0
 77
1
 78
12
 79
2
 90
2
170
0
171
3
172
1
173
0
174
0
175
0
176
0
177
0
178
0
179
2
271
2
272
2
273
2
274
3
275
0
276
0
277
2
278
46
279
2
280
0
281
0
282
0
283
0
284
8
285
0
286
0
288
1
289
3
290
0
340
4C
371
-2
372
-2
  0
ENDTAB
  0
TABLE
  2
BLOCK_RECORD
  5
9
330
0
100
AcDbSymbolTable
 70
5
  0
BLOCK_RECORD
  5
17
330
9
100
AcDbSymbolTableRecord
100
AcDbBlockTableRecord
  2
*Model_Space
340
1A
 70
0
280
1
281
0
  0
BLOCK_RECORD
  5
1B
330
9
100
AcDbSymbolTableRecord
100
AcDbBlockTableRecord
  2
*Paper_Space
340
1E
 70
0
280
1
281
0
  0
BLOCK_RECORD
  5
74
330
9
100
AcDbSymbolTableRecord
100
AcDbBlockTableRecord
  2
_ARCHTICK
340
0
 70
0
280
1
281
0
  0
BLOCK_RECORD
  5
78
330
9
100
AcDbSymbolTableRecord
100
AcDbBlockTableRecord
  2
_CLOSEDFILLED
340
0
 70
0
280
1
281
0
  0
BLOCK_RECORD
  5
84
330
9
100
AcDbSymbolTableRecord
100
AcDbBlockTableRecord
  2
_CLOSEDBLANK
340
0
 70
0
280
1
281
0
  0
ENDTAB
  0
ENDSEC
  0
SECTION
  2
BLOCKS
  0
BLOCK
  5
18
330
17
100
AcDbEntity
  8
0
100
AcDbBlockBegin
  2
*Model_Space
 70
0
 10
0.0
 20
0.0
 30
0.0
  3
*Model_Space
  1

  0
ENDBLK
  5
19
330
17
100
AcDbEntity
  8
0
100
AcDbBlockEnd
  0
BLOCK
  5
1C
330
1B
100
AcDbEntity
  8
0
100
AcDbBlockBegin
  2
*Paper_Space
 70
0
 10
0.0
 20
0.0
 30
0.0
  3
*Paper_Space
  1

  0
ENDBLK
  5
1D
330
1B
100
AcDbEntity
  8
0
100
AcDbBlockEnd
  0
BLOCK
  5
75
330
74
100
AcDbEntity
  8
0
100
AcDbBlockBegin
  2
_ARCHTICK
 70
0
 10
0.0
 20
0.0
 30
0.0
  3
_ARCHTICK
  1

  0
LWPOLYLINE
  5
77
330
74
100
AcDbEntity
  8
0
  6
BYBLOCK
 62
0
100
AcDbPolyline
 90
2
 70
0
 43
0.15
 10
-0.5
 20
-0.5000000000000001
 10
0.5000000000000001
 20
0.5
  0
ENDBLK
  5
76
330
74
100
AcDbEntity
  8
0
100
AcDbBlockEnd
  0
BLOCK
  5
79
330
78
100
AcDbEntity
  8
0
100
AcDbBlockBegin
  2
_CLOSEDFILLED
 70
0
 10
0.0
 20
0.0
 30
0.0
  3
_CLOSEDFILLED
  1

  0
SOLID
  5
7B
330
78
100
AcDbEntity
  8
0
  6
BYBLOCK
 62
0
100
AcDbTrace
 10
-1.0
 20
0.1643989837240255
 30
0.0
 11
0.0
 21
0.0
 31
0.0
 12
-1.0
 22
-0.1643989837240255
 32
0.0
 13
-1.0
 23
-0.1643989837240255
 33
0.0
  0
ENDBLK
  5
7A
330
78
100
AcDbEntity
  8
0
100
AcDbBlockEnd
  0
BLOCK
  5
85
330
84
100
AcDbEntity
  8
0
100
AcDbBlockBegin
  2
_CLOSEDBLANK
 70
0
 10
0.0
 20
0.0
 30
0.0
  3
_CLOSEDBLANK
  1

  0
LWPOLYLINE
  5
87
330
84
100
AcDbEntity
  8
0
  6
BYBLOCK
 62
0
100
AcDbPolyline
 90
3
 70
1
 10
-1.0
 20
0.1643989837240255
 10
0.0
 20
0.0
 10
-1.0
 20
-0.1643989837240255
  0
ENDBLK
  5
86
330
84
100
AcDbEntity
  8
0
100
AcDbBlockEnd
  0
ENDSEC
  0
SECTION
  2
ENTITIES
  0
LWPOLYLINE
  5
8B
330
17
100
AcDbEntity
  8
Layer
100
AcDbPolyline
 90
208
 70
1
 10
502.2514566461771
 20
92.00698698459206
 10
502.2514566461771
 20
92.00698698459206
 10
499.3433467701888
 20
93.0015919103115
 10
493.57971015237905
 20
94.95157348199261
 10
487.82432954067065
 20
96.87628127518981
 10
482.0727424555437
 20
98.77621007057658
 10
476.32080806385335
 20
100.65316136295651
 10
470.56912513493114
 20
102.50988917121278
 10
464.8340657848829
 20
104.34502962931536
 10
459.1364294302215
 20
106.14921706604368
 10
453.48094283434443
 20
107.91263320493906
 10
447.85969460492925
 20
109.63204083850171
 10
442.2635934026033
 20
111.3076800469671
 10
436.6847317843182
 20
112.94061013557871
 10
431.11607487329326
 20
114.53230854949491
 10
425.5539041151781
 20
116.08439351098296
 10
419.99884346980093
 20
117.59699688631862
 10
414.45176631141896
 20
119.06826463760689
 10
408.9075934260443
 20
120.49681335527609
 10
403.3581527867898
 20
121.88409478890961
 10
397.79916977133166
 20
123.23237199033076
 10
392.2289742147028
 20
124.54297180572536
 10
386.6471246798717
 20
125.81672603541367
 10
381.05453589889817
 20
127.05402080478088
 10
375.4536199680068
 20
128.2546243558213
 10
369.84568433950574
 20
129.41721596202913
 10
364.22682940339314
 20
130.54102424505317
 10
358.5915066962994
 20
131.62765440096635
 10
352.9378470770036
 20
132.67932562231877
 10
347.2672129983397
 20
133.69772878824966
 10
341.5855795230293
 20
134.68342767453026
 10
335.899469677933
 20
135.63508913077212
 10
330.21225072726094
 20
136.55079980916895
 10
324.5253253599888
 20
137.42998562954716
 10
318.84148483629906
 20
138.2720160650645
 10
313.16243495612724
 20
139.0756200531372
 10
307.4876593236839
 20
139.83964624738775
 10
301.8153170094879
 20
140.56397667654105
 10
296.1455913668838
 20
141.24879210220402
 10
290.47904665052454
 20
141.8935797596567
 10
284.81458336300847
 20
142.49776077731335
 10
279.151150067195
 20
143.06141745318658
 10
273.48991656221415
 20
143.58459080671594
 10
267.82992485774366
 20
144.0661525634644
 10
262.1682985567459
 20
144.50585435616097
 10
256.5021558845132
 20
144.90478462925543
 10
250.8335577270109
 20
145.2641939955585
 10
245.16654006856544
 20
145.58418057831636
 10
239.50463039383885
 20
145.8639424688743
 10
233.84987516216205
 20
146.10245356483392
 10
228.2024677583926
 20
146.29888762490285
 10
222.5625869927327
 20
146.4532229163957
 10
216.9318849331358
 20
146.5659887409152
 10
211.31597131500834
 20
146.63845534877757
 10
205.72558497609373
 20
146.67046125484882
 10
200.16913754849065
 20
146.65933204345274
 10
194.6500805556836
 20
146.6010366768403
 10
189.16325427002675
 20
146.49029593092473
 10
183.69289563327416
 20
146.32405175860856
 10
178.22711282569605
 20
146.10510846089326
 10
172.7681600618456
 20
145.83765741074023
 10
167.32234920210618
 20
145.5218000011684
 10
161.8917704464726
 20
145.15632215921036
 10
156.47790245963125
 20
144.74136760706546
 10
151.08568529277136
 20
144.27769657988156
 10
145.72011277116044
 20
143.76481185576304
 10
140.38515406500215
 20
143.20202868373508
 10
135.08376047253543
 20
142.58844858706655
 10
129.81843429896497
 20
141.9234592580157
 10
124.59217358864845
 20
141.2070954976815
 10
119.41109664819464
 20
140.43908511695565
 10
114.27573214317638
 20
139.61472602725337
 10
109.17552469544586
 20
138.73146003650578
 10
104.1113046721315
 20
137.79794184690948
 10
99.11112096809566
 20
136.82562447941282
 10
94.20280628077694
 20
135.81397241452893
 10
89.39491367773084
 20
134.75568644739852
 10
84.68570044138582
 20
133.64532163842506
 10
80.0713965675128
 20
132.48019706014037
 10
75.54907560368585
 20
131.25981982752742
 10
71.11904416998391
 20
129.98585565740328
 10
66.7860593294017
 20
128.66255687587432
 10
62.56036366918056
 20
127.29575696531191
 10
58.453754797700554
 20
125.88950801289045
 10
54.47338642475691
 20
124.4469209398955
 10
50.627224380498404
 20
122.97722248076917
 10
46.931539354474864
 20
121.49555441041493
 10
43.40567327739683
 20
120.01450648624261
 10
40.06377382143802
 20
118.54164105024218
 10
36.91330978452203
 20
117.08162222186637
 10
33.954387613684105
 20
115.6366764452748
 10
31.182127857301452
 20
114.21043736758341
 10
28.591012490741036
 20
112.80936019091159
 10
26.175036778853467
 20
111.43967662908715
 10
23.92823708958224
 20
110.10729027830249
 10
21.844474480563576
 20
108.81538064157552
 10
19.916162137204452
 20
107.56395229840652
 10
18.134560942082913
 20
106.3510207984098
 10
16.489335610364236
 20
105.17273804458505
 10
14.967515047853027
 20
104.02477840326502
 10
13.557067049458709
 20
102.90777957981875
 10
12.249065674785157
 20
101.82455741460231
 10
11.036920277128843
 20
100.77603229517268
 10
9.913985516832838
 20
99.75997531389008
 10
8.874030755870876
 20
98.77452423004975
 10
7.911406315501409
 20
97.81783394052398
 10
7.020796228232285
 20
96.88789902361697
 10
6.1961081642435545
 20
95.98149828954037
 10
5.431347051514024
 20
95.09721195951985
 10
4.72357546075898
 20
94.23783530356837
 10
4.072211257632063
 20
93.40461864419999
 10
3.471471824762091
 20
92.58740721843007
 10
2.9112006842686924
 20
91.7785397882542
 10
2.392244036070821
 20
90.99683117511974
 10
1.926755338838575
 20
90.25977443545429
 10
1.5126906702168412
 20
89.5371499841606
 10
1.1329969467312537
 20
88.79492652620613
 10
0.7834856229090121
 20
88.06770271928812
 10
0.4782584802056249
 20
87.39635968377617
 10
0.2225257591027514
 20
86.75052295684849
 10
0.008779093765156176
 20
86.08949518746773
 10
-0.17052673542656294
 20
85.42925188148078
 10
-0.31655903995931567
 20
84.79545317232584
 10
-0.4270461424619896
 20
84.18316998422456
 10
-0.5028579500540502
 20
83.5649651607941
 10
-0.5410075543035475
 20
83.00987007554592
 10
-0.5438262844865562
 20
82.44869749417347
 10
-0.500839670949091
 20
81.88664687444845
 10
-0.40572121277759265
 20
81.313992907252
 10
-0.25896946206060534
 20
80.73494854164625
 10
-0.062098505973978035
 20
80.15596162501515
 10
0.1849897190915044
 20
79.58146374865699
 10
0.48305549502390477
 20
79.01553129030589
 10
0.8389330858770165
 20
78.45482440042542
 10
1.2568090539903665
 20
77.89634227339756
 10
1.7320546955854468
 20
77.342961901873
 10
2.261120931745097
 20
76.79712313680017
 10
2.8422525596833452
 20
76.26085001926695
 10
3.4752373012685496
 20
75.73600346760242
 10
4.163492203474078
 20
75.22295043378348
 10
4.910721751813327
 20
74.7212337035849
 10
5.721355491408843
 20
74.22907434514768
 10
6.598732546359173
 20
73.7435088091999
 10
7.543712263207624
 20
73.26108520947741
 10
8.556262390045617
 20
72.7788400869002
 10
9.63833044699345
 20
72.29442687197763
 10
10.793425272382734
 20
71.80614137069455
 10
12.025841727298683
 20
71.3130424808565
 10
13.339610495587152
 20
70.81583477271599
 10
14.743807299501725
 20
70.31696867407359
 10
16.25419008255011
 20
69.81779546563985
 10
17.884647531964532
 20
69.31574085657135
 10
19.645028807073317
 20
68.80640994335259
 10
21.546134858984374
 20
68.2863908392493
 10
23.59990176648472
 20
67.75383814829344
 10
25.818678742946588
 20
67.21057566825107
 10
28.21968141485692
 20
66.66227253540667
 10
30.823749637818906
 20
66.11400664836992
 10
33.654486891654756
 20
65.56871115915469
 10
36.73823031440435
 20
65.02565145786878
 10
40.093286396108596
 20
64.4781782796248
 10
43.72187929315743
 20
63.92259719477047
 10
47.62029297225712
 20
63.366763408735046
 10
51.78851556086656
 20
62.82180722414274
 10
56.225168527216766
 20
62.29336666446286
 10
60.92390953385356
 20
61.78188872337921
 10
65.86490142960145
 20
61.2830095472458
 10
71.0037454115299
 20
60.794257715644605
 10
76.28669398996405
 20
60.323003216353314
 10
81.6749713297846
 20
59.88105745019433
 10
87.15273550084407
 20
59.47947640394689
 10
92.73446416832942
 20
59.122244132877185
 10
98.43877402551959
 20
58.798881415918075
 10
104.24973959627755
 20
58.496194110145794
 10
110.14142609853164
 20
58.21387092724871
 10
116.11141062263204
 20
57.95378183291389
 10
122.16002770818324
 20
57.709622165563616
 10
128.26680298229996
 20
57.47337536963306
 10
130.3160905431256
 20
57.39658420758131
 10
130.2599217740891
 20
55.89763622002973
 10
134.3476019186806
 20
55.74446215388131
 10
140.4890610463558
 20
55.52483580765918
 10
146.62805403766697
 20
55.32381146554352
 10
152.78244294922035
 20
55.14471857546016
 10
158.96781833682115
 20
54.98145205731615
 10
165.17988412438115
 20
54.827085094809384
 10
171.40396423248026
 20
54.6786478742085
 10
177.62276712381873
 20
54.53847887642711
 10
183.83449957020278
 20
54.41383906824542
 10
190.05859090611608
 20
54.30746691630131
 10
196.3118752727533
 20
54.214572809304165
 10
202.5939310972812
 20
54.126184656814246
 10
208.88986119404655
 20
54.032965850636174
 10
215.20028734587447
 20
53.93513733909055
 10
221.5174606646894
 20
53.84203110341954
 10
227.84994220504436
 20
53.75574352336691
 10
234.19764450510615
 20
53.67164466845252
 10
240.55026960685976
 20
53.58602465901027
 10
246.9044002649818
 20
53.497264894426806
 10
253.2598720335351
 20
53.40497484027507
 10
259.6148710052147
 20
53.31090682052472
 10
265.9643048711784
 20
53.219618941460276
 10
272.3131427933367
 20
53.13455913150783
 10
278.66739179378544
 20
53.052577256492306
 10
285.021065213715
 20
52.968354938821
 10
291.37529865548265
 20
52.880057651294706
 10
298.0155012039161
 20
52.784486406996244
 10
502.2514566461771
 20
92.00698698459206
  0
LWPOLYLINE
  5
8C
330
17
100
AcDbEntity
  8
Layer
100
AcDbPolyline
 90
5
 70
0
 10
437.52461093186076
 20
108.52693223100113
 10
433.6856726501575
 20
109.65056600998508
 10
434.8093064291415
 20
113.48950429168826
 10
438.6482447108447
 20
112.3658705127043
 10
437.52461093186076
 20
108.52693223100113
  0
LWPOLYLINE
  5
8D
330
17
100
AcDbEntity
  8
Layer
100
AcDbPolyline
 90
5
 70
0
 10
173.20184117810322
 20
141.8560909831781
 10
169.2085550013399
 20
141.62443280725694
 10
168.97689682541875
 20
145.61771898402026
 10
172.97018300218207
 20
145.8493771599414
 10
173.20184117810322
 20
141.8560909831781
  0
LWPOLYLINE
  5
8E
330
17
100
AcDbEntity
  8
Layer
100
AcDbPolyline
 90
5
 70
0
 10
72.3489762250167
 20
126.17909949233591
 10
68.52345716354937
 20
125.01059450289428
 10
67.35495217410774
 20
128.8361135643616
 10
71.18047123557507
 20
130.00461855380325
 10
72.3489762250167
 20
126.17909949233591
  0
LWPOLYLINE
  5
8F
330
17
100
AcDbEntity
  8
Layer
100
AcDbPolyline
 90
5
 70
0
 10
17.85640145977822
 20
99.93450516926345
 10
16.28877056345619
 20
98.69251749907642
 10
13.183801387988641
 20
102.6115947398815
 10
14.751432284310674
 20
103.85358241006853
 10
17.85640145977822
 20
99.93450516926345
  0
LWPOLYLINE
  5
90
330
17
100
AcDbEntity
  8
Layer
100
AcDbPolyline
 90
5
 70
0
 10
30.502134424059214
 20
71.29144740891637
 10
32.45926209656754
 20
70.87955995644647
 10
31.42954346539282
 20
65.98674077517565
 10
29.47241579288449
 20
66.39862822764555
 10
30.502134424059214
 20
71.29144740891637
  0
LWPOLYLINE
  5
91
330
17
100
AcDbEntity
  8
Layer
100
AcDbPolyline
 90
5
 70
0
 10
95.09025781797332
 20
62.995127894705284
 10
99.08384695914897
 20
62.76875260567427
 10
98.85747167011796
 20
58.77516346449861
 10
94.86388252894231
 20
59.00153875352962
 10
95.09025781797332
 20
62.995127894705284
  0
LWPOLYLINE
  5
92
330
17
100
AcDbEntity
  8
Layer
100
AcDbPolyline
 90
300
 70
1
 10
288.7134999999997
 20
100.0
 10
288.70522858652
 20
100.79955528411519
 10
288.6804179985042
 20
101.5987575071253
 10
288.63907919160954
 20
102.39725376382712
 10
288.5812304198894
 20
103.1946914607523
 10
288.50689722773285
 20
103.99071847186264
 10
288.416112438585
 20
104.78498329403911
 10
288.30891614045305
 20
105.57713520229572
 10
288.1853556682046
 20
106.36682440464975
 10
288.04548558266566
 20
107.15370219658011
 10
287.8893676465287
 20
107.9374211150054
 10
287.7170707970793
 20
108.71763509171384
 10
287.52867111575586
 20
109.49399960617721
 10
287.32425179455396
 20
110.2661718376815
 10
287.10390309929124
 20
111.03381081670679
 10
286.86772232974846
 20
111.79657757548988
 10
286.61581377670467
 20
112.55413529770284
 10
286.3482886758853
 20
113.30614946718168
 10
286.06526515884394
 20
114.0522880156392
 10
285.76686820079806
 20
114.79222146929708
 10
285.45322956544425
 20
115.52562309437214
 10
285.12448774677455
 20
116.25216904135286
 10
284.7807879079216
 20
116.97153848800214
 10
284.4222818170587
 20
117.68341378102343
 10
284.0491277803833
 20
118.38748057632745
 10
283.6614905722132
 20
119.08342797783766
 10
283.2595413622271
 20
119.77094867477328
 10
282.8434576398808
 20
120.44973907734904
 10
282.41342313603286
 20
121.1194994508319
 10
281.96962774181424
 20
121.77993404789544
 10
281.51226742477763
 20
122.4307512392136
 10
281.0415441423638
 20
123.07166364223596
 10
280.557665752723
 20
123.70238824808773
 10
280.0608459229302
 20
124.3226465465386
 10
279.55130403463625
 20
124.932164648985
 10
279.0292650871948
 20
125.53067340939147
 10
278.49495959830915
 20
126.11790854313814
 10
277.94862350224173
 20
126.69361074372131
 10
277.3904980456327
 20
127.25752579725585
 10
276.82082968097177
 20
127.809404694729
 10
276.23986995777193
 20
128.34900374195564
 10
275.64787541149235
 20
128.8760846671869
 10
275.0451074502592
 20
129.39041472632405
 10
274.43183223943566
 20
129.89176680569201
 10
273.80832058409044
 20
130.37991952232616
 10
273.1748478094179
 20
130.8546573217289
 10
272.53169363916237
 20
131.31577057305242
 10
271.8791420720999
 20
131.7630556616658
 10
271.2174812566325
 20
132.1963150790655
 10
270.54700336354966
 20
132.61535751008955
 10
269.8680044570143
 20
133.01999791739695
 10
269.180784363829
 20
133.41005762317488
 10
268.48564654104075
 20
133.78536438803792
 10
267.78289794194325
 20
134.14575248708405
 10
267.07284888053465
 20
134.49106278307406
 10
266.3558128944918
 20
134.8211427967021
 10
265.6321066067207
 20
135.1358467739263
 10
264.90204958554494
 20
135.43503575032958
 10
264.16596420359303
 20
135.7185776124825
 10
263.42417549544814
 20
135.98634715628074
 10
262.6770110141214
 20
136.23822614223178
 10
261.92480068641436
 20
136.47410334766613
 10
261.16787666723206
 20
136.69387461585006
 10
260.4065731929132
 20
136.89744290197837
 10
259.6412264336403
 20
137.08471831602657
 10
258.87217434499706
 20
137.25561816244385
 10
258.09975651873606
 20
137.41006697666904
 10
257.3243140328248
 20
137.54799655845375
 10
256.54618930083564
 20
137.66934600197743
 10
255.76572592074504
 20
137.77406172274203
 10
254.98326852321068
 20
137.86209748123315
 10
254.1991626193923
 20
137.93341440333805
 10
253.4137544483835
 20
137.98798099751167
 10
252.62739082432245
 20
138.02577316868206
 10
251.84041898324855
 20
138.0467742288904
 10
251.05318642977258
 20
138.05097490465968
 10
250.2660407836287
 20
138.0383733410897
 10
249.47932962617523
 20
138.00897510267623
 10
248.6934003469124
 20
137.96279317085376
 10
247.90859999008515
 20
137.89984793826326
 10
247.12527510143804
 20
137.8201671997475
 10
246.3437715751904
 20
137.7237861400775
 10
245.5644345012992
 20
137.61074731841592
 10
244.78760801307698
 20
137.4811006495243
 10
244.01363513523245
 20
137.33490338172194
 10
243.24285763240022
 20
137.1722200716066
 10
242.47561585822726
 20
136.99312255554838
 10
241.7122486050823
 20
136.7976899179685
 10
240.9530929544547
 20
136.5860084564181
 10
240.19848412810862
 20
136.35817164347154
 10
239.4487553400587
 20
136.11428008545153
 10
238.70423764943203
 20
135.85444147800425
 10
237.96525981428172
 20
135.57877055854402
 10
237.23214814641676
 20
135.2873890555884
 10
236.50522636731168
 20
134.98042563500638
 10
235.78481546516048
 20
134.65801584320312
 10
235.07123355313715
 20
134.32030204726647
 10
234.36479572892588
 20
133.96743337210168
 10
233.66581393558283
 20
133.59956563458206
 10
232.9745968237908
 20
133.21686127474456
 10
232.29144961556776
 20
132.81948928406098
 10
231.6166739694895
 20
132.40762513081586
 10
230.95056784748564
 20
131.98145068262488
 10
230.29342538326802
 20
131.54115412612703
 10
229.64553675244946
 20
131.0869298838868
 10
229.00718804441055
 20
130.61897852854264
 10
228.37866113597053
 20
130.1375066942397
 10
227.76023356691837
 20
129.64272698538605
 10
227.15217841745917
 20
129.13485788277245
 10
226.55476418762944
 20
128.61412364709756
 10
225.96825467873524
 20
128.0807542199406
 10
225.39290887686468
 20
127.53498512222556
 10
224.8289808385273
 20
126.97705735022204
 10
224.27671957846954
 20
126.40721726912781
 10
223.73636895971708
 20
125.82571650428105
 10
223.20816758589172
 20
125.23281183004958
 10
222.69234869585063
 20
124.62876505644661
 10
222.18914006069474
 20
124.01384291352278
 10
221.69876388319148
 20
123.38831693358557
 10
221.22143669965612
 20
122.7524633312985
 10
220.75736928433562
 20
122.1065628817123
 10
220.30676655633658
 20
121.4509007962827
 10
219.8698274891387
 20
120.78576659692895
 10
219.4467450227337
 20
120.11145398818923
 10
219.03770597842848
 20
119.42826072752884
 10
218.6428909763501
 20
118.73648849385906
 10
218.262474355689
 20
118.03644275432406
 10
217.89662409771563
 20
117.32843262941533
 10
217.5455017516049
 20
116.61277075647274
 10
217.20926236310027
 20
115.88977315163268
 10
216.88805440605023
 20
115.15975907028424
 10
216.58201971684625
 20
114.42305086609498
 10
216.29129343179181
 20
113.67997384866874
 10
216.01600392743015
 20
112.93085613989788
 10
215.75627276385666
 20
112.1760285290741
 10
215.51221463104145
 20
111.41582432682108
 10
215.28393729818544
 20
110.65057921791391
 10
215.07154156613254
 20
109.88063111305016
 10
214.8751212228589
 20
109.10631999963799
 10
214.69476300205858
 20
108.32798779166735
 10
214.53054654484464
 20
107.54597817873037
 10
214.3825443645817
 20
106.76063647425758
 10
214.25082181486613
 20
105.97230946303745
 10
214.1354370606677
 20
105.18134524808582
 10
214.03644105264573
 20
104.38809309693346
 10
213.95387750465045
 20
103.59290328739935
 10
213.8877828744204
 20
102.79612695291789
 10
213.83818634748368
 20
101.99811592748821
 10
213.80510982427037
 20
101.1992225903142
 10
213.788567910442
 20
100.39979971020381
 10
213.788567910442
 20
99.6002002897962
 10
213.80510982427037
 20
98.80077740968581
 10
213.83818634748368
 20
98.0018840725118
 10
213.8877828744204
 20
97.20387304708211
 10
213.95387750465045
 20
96.40709671260065
 10
214.03644105264573
 20
95.61190690306655
 10
214.1354370606677
 20
94.81865475191418
 10
214.25082181486613
 20
94.02769053696255
 10
214.3825443645817
 20
93.23936352574243
 10
214.53054654484464
 20
92.45402182126965
 10
214.69476300205858
 20
91.67201220833263
 10
214.8751212228589
 20
90.893680000362
 10
215.07154156613254
 20
90.11936888694986
 10
215.28393729818544
 20
89.3494207820861
 10
215.51221463104145
 20
88.58417567317892
 10
215.75627276385666
 20
87.8239714709259
 10
216.01600392743015
 20
87.06914386010213
 10
216.29129343179181
 20
86.32002615133128
 10
216.58201971684625
 20
85.576949133905
 10
216.88805440605026
 20
84.84024092971576
 10
217.20926236310027
 20
84.11022684836732
 10
217.5455017516049
 20
83.38722924352726
 10
217.89662409771563
 20
82.67156737058468
 10
218.262474355689
 20
81.96355724567596
 10
218.6428909763501
 20
81.26351150614096
 10
219.03770597842848
 20
80.57173927247115
 10
219.4467450227337
 20
79.88854601181077
 10
219.8698274891387
 20
79.21423340307105
 10
220.30676655633658
 20
78.5490992037173
 10
220.75736928433562
 20
77.8934371182877
 10
221.2214366996561
 20
77.24753666870151
 10
221.69876388319148
 20
76.61168306641443
 10
222.18914006069474
 20
75.98615708647723
 10
222.69234869585063
 20
75.37123494355338
 10
223.20816758589174
 20
74.76718816995042
 10
223.73636895971708
 20
74.17428349571897
 10
224.2767195784695
 20
73.5927827308722
 10
224.82898083852726
 20
73.02294264977797
 10
225.39290887686465
 20
72.46501487777445
 10
225.9682546787352
 20
71.91924578005943
 10
226.55476418762944
 20
71.38587635290243
 10
227.15217841745917
 20
70.86514211722755
 10
227.76023356691837
 20
70.35727301461395
 10
228.3786611359705
 20
69.8624933057603
 10
229.00718804441055
 20
69.38102147145736
 10
229.64553675244943
 20
68.91307011611322
 10
230.293425383268
 20
68.45884587387299
 10
230.95056784748564
 20
68.01854931737513
 10
231.6166739694895
 20
67.59237486918414
 10
232.29144961556776
 20
67.18051071593902
 10
232.9745968237908
 20
66.78313872525544
 10
233.66581393558283
 20
66.40043436541795
 10
234.3647957289259
 20
66.03256662789832
 10
235.07123355313715
 20
65.67969795273353
 10
235.78481546516045
 20
65.34198415679688
 10
236.50522636731165
 20
65.01957436499363
 10
237.23214814641673
 20
64.71261094441161
 10
237.96525981428172
 20
64.42122944145599
 10
238.704237649432
 20
64.14555852199575
 10
239.44875534005868
 20
63.88571991454848
 10
240.19848412810862
 20
63.641828356528464
 10
240.9530929544547
 20
63.41399154358189
 10
241.7122486050823
 20
63.2023100820315
 10
242.47561585822726
 20
63.00687744445163
 10
243.24285763240022
 20
62.82777992839339
 10
244.01363513523245
 20
62.66509661827806
 10
244.78760801307698
 20
62.51889935047568
 10
245.5644345012992
 20
62.38925268158407
 10
246.3437715751904
 20
62.27621385992252
 10
247.12527510143804
 20
62.17983280025251
 10
247.90859999008515
 20
62.10015206173675
 10
248.69340034691237
 20
62.03720682914625
 10
249.4793296261752
 20
61.991024897323754
 10
250.2660407836287
 20
61.96162665891028
 10
251.05318642977258
 20
61.94902509534032
 10
251.84041898324853
 20
61.95322577110958
 10
252.62739082432245
 20
61.97422683131792
 10
253.4137544483835
 20
62.01201900248834
 10
254.1991626193923
 20
62.066585596661945
 10
254.98326852321068
 20
62.137902518766865
 10
255.76572592074504
 20
62.22593827725795
 10
256.54618930083564
 20
62.330653998022555
 10
257.3243140328248
 20
62.45200344154627
 10
258.09975651873606
 20
62.58993302333094
 10
258.87217434499706
 20
62.74438183755613
 10
259.6412264336403
 20
62.91528168397342
 10
260.4065731929132
 20
63.10255709802163
 10
261.16787666723206
 20
63.30612538414993
 10
261.92480068641436
 20
63.52589665233386
 10
262.6770110141214
 20
63.761773857768205
 10
263.4241754954481
 20
64.01365284371926
 10
264.16596420359303
 20
64.2814223875175
 10
264.90204958554494
 20
64.56496424967042
 10
265.6321066067207
 20
64.86415322607371
 10
266.3558128944918
 20
65.1788572032979
 10
267.07284888053465
 20
65.50893721692594
 10
267.78289794194325
 20
65.85424751291595
 10
268.48564654104075
 20
66.21463561196208
 10
269.180784363829
 20
66.58994237682512
 10
269.8680044570143
 20
66.98000208260305
 10
270.54700336354966
 20
67.38464248991045
 10
271.2174812566325
 20
67.80368492093449
 10
271.8791420720999
 20
68.23694433833418
 10
272.53169363916237
 20
68.68422942694757
 10
273.1748478094179
 20
69.14534267827108
 10
273.80832058409044
 20
69.62008047767382
 10
274.43183223943566
 20
70.10823319430799
 10
275.0451074502592
 20
70.60958527367595
 10
275.64787541149235
 20
71.12391533281311
 10
276.23986995777193
 20
71.65099625804434
 10
276.82082968097177
 20
72.190595305271
 10
277.3904980456327
 20
72.74247420274415
 10
277.94862350224173
 20
73.3063892562787
 10
278.49495959830915
 20
73.88209145686187
 10
279.0292650871948
 20
74.46932659060852
 10
279.5513040346362
 20
75.06783535101499
 10
280.0608459229302
 20
75.67735345346138
 10
280.557665752723
 20
76.29761175191226
 10
281.0415441423638
 20
76.92833635776404
 10
281.5122674247776
 20
77.5692487607864
 10
281.96962774181424
 20
78.22006595210456
 10
282.41342313603286
 20
78.8805005491681
 10
282.8434576398808
 20
79.55026092265096
 10
283.2595413622271
 20
80.22905132522672
 10
283.6614905722132
 20
80.91657202216236
 10
284.0491277803833
 20
81.61251942367255
 10
284.4222818170587
 20
82.31658621897657
 10
284.7807879079216
 20
83.02846151199788
 10
285.12448774677455
 20
83.74783095864716
 10
285.45322956544425
 20
84.47437690562785
 10
285.76686820079806
 20
85.20777853070291
 10
286.06526515884394
 20
85.94771198436078
 10
286.3482886758853
 20
86.6938505328183
 10
286.61581377670467
 20
87.44586470229714
 10
286.86772232974846
 20
88.20342242451011
 10
287.10390309929124
 20
88.96618918329321
 10
287.32425179455396
 20
89.7338281623185
 10
287.52867111575586
 20
90.50600039382279
 10
287.7170707970793
 20
91.28236490828616
 10
287.8893676465287
 20
92.0625788849946
 10
288.04548558266566
 20
92.84629780341989
 10
288.1853556682046
 20
93.63317559535025
 10
288.30891614045305
 20
94.42286479770429
 10
288.416112438585
 20
95.21501670596089
 10
288.50689722773285
 20
96.00928152813734
 10
288.5812304198894
 20
96.80530853924768
 10
288.63907919160954
 20
97.60274623617286
 10
288.6804179985042
 20
98.40124249287469
 10
288.70522858652
 20
99.20044471588481
 10
288.7134999999997
 20
99.99999999999999
  0
LINE
  5
93
330
17
100
AcDbEntity
  8
Layer
100
AcDbLine
 10
476.3224270308268
 20
99.99999999999997
 30
0.0
 11
480.3224270308268
 21
99.99999999999997
 31
0.0
  0
LINE
  5
94
330
17
100
AcDbEntity
  8
Layer
100
AcDbLine
 10
12.17925810324013
 20
100.00000000000003
 30
0.0
 11
8.17925810324013
 21
100.00000000000003
 31
0.0
  0
LINE
  5
95
330
17
100
AcDbEntity
  8
Layer
100
AcDbLine
 10
109.30789188875747
 20
100.00000000000001
 30
0.0
 11
98.30789188875747
 21
100.00000000000001
 31
0.0
  0
LWPOLYLINE
  5
96
330
17
100
AcDbEntity
  8
Layer
100
AcDbPolyline
 90
5
 70
0
 10
98.80789188875747
 20
95.00000000000001
 10
98.80789188875747
 20
105.00000000000001
 10
108.80789188875747
 20
105.00000000000001
 10
108.80789188875747
 20
95.00000000000001
 10
98.80789188875747
 20
95.00000000000001
  0
LINE
  5
97
330
17
100
AcDbEntity
  8
Layer
100
AcDbLine
 10
249.7508425670335
 20
100.0
 30
0.0
 11
238.7508425670335
 21
100.0
 31
0.0
  0
LWPOLYLINE
  5
98
330
17
100
AcDbEntity
  8
Layer
100
AcDbPolyline
 90
5
 70
0
 10
239.2508425670335
 20
95.0
 10
239.2508425670335
 20
105.0
 10
249.2508425670335
 20
105.0
 10
249.2508425670335
 20
95.0
 10
239.2508425670335
 20
95.0
  0
LINE
  5
99
330
17
100
AcDbEntity
  8
Layer
100
AcDbLine
 10
390.1937932453095
 20
99.99999999999999
 30
0.0
 11
379.1937932453095
 21
99.99999999999999
 31
0.0
  0
LWPOLYLINE
  5
9A
330
17
100
AcDbEntity
  8
Layer
100
AcDbPolyline
 90
5
 70
0
 10
379.6937932453095
 20
94.99999999999999
 10
379.6937932453095
 20
104.99999999999999
 10
389.6937932453095
 20
104.99999999999999
 10
389.6937932453095
 20
94.99999999999999
 10
379.6937932453095
 20
94.99999999999999
  0
LINE
  5
9B
330
17
100
AcDbEntity
  8
Layer
100
AcDbLine
 10
1.4963334787321685
 20
83.4530001026549
 30
0.0
 11
-2.4918775301755147
 21
83.75987621516217
 31
0.0
  0
LINE
  5
9C
330
17
100
AcDbEntity
  8
Layer
100
AcDbLine
 10
325.21423826778323
 20
58.54426484547185
 30
0.0
 11
329.2024492766909
 21
58.23738873296457
 31
0.0
  0
LINE
  5
9D
330
17
100
AcDbEntity
  8
Layer
100
AcDbLine
 10
251.24999999999974
 20
138.05149999999995
 30
0.0
 11
251.24999999999974
 21
138.55149999999995
 31
0.0
  0
LINE
  5
9E
330
17
100
AcDbEntity
  8
Layer
100
AcDbLine
 10
251.24999999999974
 20
61.94850000000005
 30
0.0
 11
251.24999999999974
 21
61.44850000000005
 31
0.0
  0
LINE
  5
9F
330
17
100
AcDbEntity
  8
Layer
100
AcDbLine
 10
288.7134999999997
 20
100.0
 30
0.0
 11
289.2134999999997
 21
100.0
 31
0.0
  0
LINE
  5
A0
330
17
100
AcDbEntity
  8
Layer
100
AcDbLine
 10
213.7864999999998
 20
100.0
 30
0.0
 11
213.2864999999998
 21
100.0
 31
0.0
  0
LINE
  5
A1
330
17
100
AcDbEntity
  8
Layer
100
AcDbLine
 10
86.24999999999974
 20
132.01416099510828
 30
0.0
 11
86.24999999999974
 21
136.01416099510828
 31
0.0
  0
LINE
  5
A2
330
17
100
AcDbEntity
  8
Layer
100
AcDbLine
 10
86.24999999999974
 20
61.54565695783584
 30
0.0
 11
86.24999999999974
 21
57.54565695783584
 31
0.0
  0
LINE
  5
A3
330
17
100
AcDbEntity
  8
Layer
100
AcDbLine
 10
86.24999999999974
 20
79.93935776529032
 30
0.0
 11
86.24999999999974
 21
68.93935776529032
 31
0.0
  0
LWPOLYLINE
  5
A4
330
17
100
AcDbEntity
  8
Layer
100
AcDbPolyline
 90
5
 70
0
 10
91.24999999999974
 20
69.43935776529032
 10
81.24999999999974
 20
69.43935776529032
 10
81.24999999999974
 20
79.43935776529032
 10
91.24999999999974
 20
79.43935776529032
 10
91.24999999999974
 20
69.43935776529032
  0
LINE
  5
A5
330
17
100
AcDbEntity
  8
Layer
100
AcDbLine
 10
86.24999999999974
 20
102.27990897647206
 30
0.0
 11
86.24999999999974
 21
91.27990897647206
 31
0.0
  0
LWPOLYLINE
  5
A6
330
17
100
AcDbEntity
  8
Layer
100
AcDbPolyline
 90
5
 70
0
 10
91.24999999999974
 20
91.77990897647206
 10
81.24999999999974
 20
91.77990897647206
 10
81.24999999999974
 20
101.77990897647206
 10
91.24999999999974
 20
101.77990897647206
 10
91.24999999999974
 20
91.77990897647206
  0
LINE
  5
A7
330
17
100
AcDbEntity
  8
Layer
100
AcDbLine
 10
86.24999999999974
 20
124.62046018765379
 30
0.0
 11
86.24999999999974
 21
113.62046018765379
 31
0.0
  0
LWPOLYLINE
  5
A8
330
17
100
AcDbEntity
  8
Layer
100
AcDbPolyline
 90
5
 70
0
 10
91.24999999999974
 20
114.12046018765379
 10
81.24999999999974
 20
114.12046018765379
 10
81.24999999999974
 20
124.12046018765379
 10
91.24999999999974
 20
124.12046018765379
 10
91.24999999999974
 20
114.12046018765379
  0
LINE
  5
A9
330
17
100
AcDbEntity
  8
Layer
100
AcDbLine
 10
381.2499999999998
 20
125.01077666161862
 30
0.0
 11
381.2499999999998
 21
129.01077666161862
 31
0.0
  0
LINE
  5
AA
330
17
100
AcDbEntity
  8
Layer
100
AcDbLine
 10
381.2499999999998
 20
70.76925838329126
 30
0.0
 11
381.2499999999998
 21
66.76925838329126
 31
0.0
  0
LINE
  5
AB
330
17
100
AcDbEntity
  8
Layer
100
AcDbLine
 10
381.2499999999998
 20
85.91756203895673
 30
0.0
 11
381.2499999999998
 21
74.91756203895673
 31
0.0
  0
LWPOLYLINE
  5
AC
330
17
100
AcDbEntity
  8
Layer
100
AcDbPolyline
 90
5
 70
0
 10
386.2499999999998
 20
75.41756203895673
 10
376.2499999999998
 20
75.41756203895673
 10
376.2499999999998
 20
85.41756203895673
 10
386.2499999999998
 20
85.41756203895673
 10
386.2499999999998
 20
75.41756203895673
  0
LINE
  5
AD
330
17
100
AcDbEntity
  8
Layer
100
AcDbLine
 10
381.2499999999998
 20
103.39001752245494
 30
0.0
 11
381.2499999999998
 21
92.39001752245494
 31
0.0
  0
LWPOLYLINE
  5
AE
330
17
100
AcDbEntity
  8
Layer
100
AcDbPolyline
 90
5
 70
0
 10
386.2499999999998
 20
92.89001752245494
 10
376.2499999999998
 20
92.89001752245494
 10
376.2499999999998
 20
102.89001752245494
 10
386.2499999999998
 20
102.89001752245494
 10
386.2499999999998
 20
92.89001752245494
  0
LINE
  5
AF
330
17
100
AcDbEntity
  8
Layer
100
AcDbLine
 10
381.2499999999998
 20
120.86247300595315
 30
0.0
 11
381.2499999999998
 21
109.86247300595315
 31
0.0
  0
LWPOLYLINE
  5
B0
330
17
100
AcDbEntity
  8
Layer
100
AcDbPolyline
 90
5
 70
0
 10
386.2499999999998
 20
110.36247300595315
 10
376.2499999999998
 20
110.36247300595315
 10
376.2499999999998
 20
120.36247300595315
 10
386.2499999999998
 20
120.36247300595315
 10
386.2499999999998
 20
110.36247300595315
  0
ENDSEC
  0
SECTION
  2
OBJECTS
  0
DICTIONARY
  5
A
330
0
100
AcDbDictionary
280
0
281
1
  3
ACAD_COLOR
350
B
  3
ACAD_GROUP
350
C
  3
ACAD_LAYOUT
350
D
  3
ACAD_MATERIAL
350
E
  3
ACAD_MLEADERSTYLE
350
F
  3
ACAD_MLINESTYLE
350
10
  3
ACAD_PLOTSETTINGS
350
11
  3
ACAD_PLOTSTYLENAME
350
12
  3
ACAD_SCALELIST
350
14
  3
ACAD_TABLESTYLE
350
15
  3
ACAD_VISUALSTYLE
350
16
  3
EZDXF_META
350
2D
  0
DICTIONARY
  5
B
330
A
100
AcDbDictionary
280
0
281
1
  0
DICTIONARY
  5
C
330
A
100
AcDbDictionary
280
0
281
1
  0
DICTIONARY
  5
D
330
A
100
AcDbDictionary
280
0
281
1
  3
Model
350
1A
  3
Layout1
350
1E
  0
DICTIONARY
  5
E
330
A
100
AcDbDictionary
280
0
281
1
  3
ByBlock
350
1F
  3
ByLayer
350
20
  3
Global
350
21
  0
DICTIONARY
  5
F
330
A
100
AcDbDictionary
280
0
281
1
  3
Standard
350
2C
  0
DICTIONARY
  5
10
330
A
100
AcDbDictionary
280
0
281
1
  3
Standard
350
22
  0
DICTIONARY
  5
11
330
A
100
AcDbDictionary
280
0
281
1
  0
ACDBDICTIONARYWDFLT
  5
12
330
A
100
AcDbDictionary
280
0
281
1
  3
Normal
350
13
100
AcDbDictionaryWithDefault
340
13
  0
ACDBPLACEHOLDER
  5
13
330
12
  0
DICTIONARY
  5
14
330
A
100
AcDbDictionary
280
0
281
1
  0
DICTIONARY
  5
15
330
A
100
AcDbDictionary
280
0
281
1
  0
DICTIONARY
  5
16
330
A
100
AcDbDictionary
280
0
281
1
  3
2dWireframe
350
5A
  3
Basic
350
5B
  3
Brighten
350
5C
  3
ColorChange
350
5D
  3
Conceptual
350
5E
  3
Dim
350
5F
  3
EdgeColorOff
350
60
  3
Facepattern
350
61
  3
Flat
350
62
  3
FlatWithEdges
350
63
  3
Gouraud
350
64
  3
GouraudWithEdges
350
65
  3
Hidden
350
66
  3
JitterOff
350
67
  3
Linepattern
350
68
  3
Modeling
350
69
  3
OverhangOff
350
6A
  3
Realistic
350
6B
  3
Shaded
350
6C
  3
Shaded with edges
350
6D
  3
Shades of Gray
350
6E
  3
Sketchy
350
6F
  3
Thicken
350
70
  3
Wireframe
350
71
  3
X-Ray
350
72
  0
LAYOUT
  5
1A
330
D
100
AcDbPlotSettings
  1

  2
Adobe PDF
  4
A3
  6

 40
7.5
 41
20.0
 42
7.5
 43
20.0
 44
420.0
 45
297.0
 46
0.0
 47
0.0
 48
0.0
 49
0.0
140
0.0
141
0.0
142
1.0
143
1.0
 70
1024
 72
1
 73
0
 74
5
  7

 75
16
 76
0
 77
2
 78
300
147
1.0
148
0.0
149
0.0
100
AcDbLayout
  1
Model
 70
1
 71
0
 10
0.0
 20
0.0
 11
420.0
 21
297.0
 12
0.0
 22
0.0
 32
0.0
 14
1e+20
 24
1e+20
 34
1e+20
 15
-1e+20
 25
-1e+20
 35
-1e+20
146
0.0
 13
0.0
 23
0.0
 33
0.0
 16
1.0
 26
0.0
 36
0.0
 17
0.0
 27
1.0
 37
0.0
 76
1
330
17
  0
LAYOUT
  5
1E
330
D
100
AcDbPlotSettings
  1

  2
Adobe PDF
  4
A3
  6

 40
7.5
 41
20.0
 42
7.5
 43
20.0
 44
420.0
 45
297.0
 46
0.0
 47
0.0
 48
0.0
 49
0.0
140
0.0
141
0.0
142
1.0
143
1.0
 70
0
 72
1
 73
0
 74
5
  7

 75
16
 76
0
 77
2
 78
300
147
1.0
148
0.0
149
0.0
100
AcDbLayout
  1
Layout1
 70
1
 71
1
 10
0.0
 20
0.0
 11
420.0
 21
297.0
 12
0.0
 22
0.0
 32
0.0
 14
1e+20
 24
1e+20
 34
1e+20
 15
-1e+20
 25
-1e+20
 35
-1e+20
146
0.0
 13
0.0
 23
0.0
 33
0.0
 16
1.0
 26
0.0
 36
0.0
 17
0.0
 27
1.0
 37
0.0
 76
1
330
1B
  0
MATERIAL
  5
1F
102
{ACAD_REACTORS
330
E
102
}
330
E
100
AcDbMaterial
  1
ByBlock
  2

 70
0
 40
1.0
 71
1
 41
1.0
 91
-1023410177
 42
1.0
 72
1
  3

 73
1
 74
1
 75
1
 44
0.5
 73
0
 45
1.0
 46
1.0
 77
1
  4

 78
1
 79
1
170
1
 48
1.0
171
1
  6

172
1
173
1
174
1
140
1.0
141
1.0
175
1
  7

176
1
177
1
178
1
143
1.0
179
1
  8

270
1
271
1
272
1
145
1.0
146
1.0
273
1
  9

274
1
275
1
276
1
 42
1.0
 72
1
  3

 73
1
 74
1
 75
1
 94
63
  0
MATERIAL
  5
20
102
{ACAD_REACTORS
330
E
102
}
330
E
100
AcDbMaterial
  1
ByLayer
  2

 70
0
 40
1.0
 71
1
 41
1.0
 91
-1023410177
 42
1.0
 72
1
  3

 73
1
 74
1
 75
1
 44
0.5
 73
0
 45
1.0
 46
1.0
 77
1
  4

 78
1
 79
1
170
1
 48
1.0
171
1
  6

172
1
173
1
174
1
140
1.0
141
1.0
175
1
  7

176
1
177
1
178
1
143
1.0
179
1
  8

270
1
271
1
272
1
145
1.0
146
1.0
273
1
  9

274
1
275
1
276
1
 42
1.0
 72
1
  3

 73
1
 74
1
 75
1
 94
63
  0
MATERIAL
  5
21
102
{ACAD_REACTORS
330
E
102
}
330
E
100
AcDbMaterial
  1
Global
  2

 70
0
 40
1.0
 71
1
 41
1.0
 91
-1023410177
 42
1.0
 72
1
  3

 73
1
 74
1
 75
1
 44
0.5
 73
0
 45
1.0
 46
1.0
 77
1
  4

 78
1
 79
1
170
1
 48
1.0
171
1
  6

172
1
173
1
174
1
140
1.0
141
1.0
175
1
  7

176
1
177
1
178
1
143
1.0
179
1
  8

270
1
271
1
272
1
145
1.0
146
1.0
273
1
  9

274
1
275
1
276
1
 42
1.0
 72
1
  3

 73
1
 74
1
 75
1
 94
63
  0
MLINESTYLE
  5
22
102
{ACAD_REACTORS
330
10
102
}
330
10
100
AcDbMlineStyle
  2
Standard
 70
0
  3

 62
256
 51
90.0
 52
90.0
 71
2
 49
0.5
 62
256
  6
BYLAYER
 49
-0.5
 62
256
  6
BYLAYER
  0
MLEADERSTYLE
  5
2C
102
{ACAD_REACTORS
330
F
102
}
330
F
100
AcDbMLeaderStyle
179
2
170
2
171
1
172
0
 90
2
 40
0.0
 41
0.0
173
1
 91
-1056964608
 92
-2
290
1
 42
2.0
291
1
 43
8.0
  3
Standard
 44
4.0
300

342
29
174
1
175
1
176
0
178
1
 93
-1056964608
 45
4.0
292
0
297
0
 46
4.0
 94
-1056964608
 47
1.0
 49
1.0
140
1.0
294
1
141
0.0
177
0
142
1.0
295
0
296
0
143
3.75
271
0
272
9
273
9
  0
DICTIONARY
  5
2D
330
A
100
AcDbDictionary
281
1
  3
CREATED_BY_EZDXF
350
2E
  3
WRITTEN_BY_EZDXF
350
B3
  0
DICTIONARYVAR
  5
2E
330
2D
100
DictionaryVariables
280
0
  1
1.1.0 @ 2024-03-26T01:33:49.746874+00:00
  0
VISUALSTYLE
  5
5A
102
{ACAD_REACTORS
330
16
102
}
330
16
100
AcDbVisualStyle
  2
2dWireframe
 70
4
 90
0
 40
0.6
 62
7
290
0
291
0
  0
VISUALSTYLE
  5
5B
102
{ACAD_REACTORS
330
16
102
}
330
16
100
AcDbVisualStyle
  2
Basic
 70
7
 90
1
 40
0.6
 62
7
290
0
291
1
  0
VISUALSTYLE
  5
5C
102
{ACAD_REACTORS
330
16
102
}
330
16
100
AcDbVisualStyle
  2
Brighten
 70
12
 90
2
 40
0.6
 62
7
290
0
291
1
  0
VISUALSTYLE
  5
5D
102
{ACAD_REACTORS
330
16
102
}
330
16
100
AcDbVisualStyle
  2
ColorChange
 70
16
 90
2
 40
0.6
 62
8
290
0
291
1
  0
VISUALSTYLE
  5
5E
102
{ACAD_REACTORS
330
16
102
}
330
16
100
AcDbVisualStyle
  2
Conceptual
 70
9
 90
3
 40
0.6
 62
7
290
0
291
0
  0
VISUALSTYLE
  5
5F
102
{ACAD_REACTORS
330
16
102
}
330
16
100
AcDbVisualStyle
  2
Dim
 70
11
 90
2
 40
0.6
 62
7
290
0
291
1
  0
VISUALSTYLE
  5
60
102
{ACAD_REACTORS
330
16
102
}
330
16
100
AcDbVisualStyle
  2
EdgeColorOff
 70
22
 90
2
 40
0.6
 62
7
290
0
291
1
  0
VISUALSTYLE
  5
61
102
{ACAD_REACTORS
330
16
102
}
330
16
100
AcDbVisualStyle
  2
Facepattern
 70
15
 90
2
 40
0.6
 62
7
290
0
291
1
  0
VISUALSTYLE
  5
62
102
{ACAD_REACTORS
330
16
102
}
330
16
100
AcDbVisualStyle
  2
Flat
 70
0
 90
2
 40
0.6
 62
7
290
0
291
1
  0
VISUALSTYLE
  5
63
102
{ACAD_REACTORS
330
16
102
}
330
16
100
AcDbVisualStyle
  2
FlatWithEdges
 70
1
 90
2
 40
0.6
 62
7
290
0
291
1
  0
VISUALSTYLE
  5
64
102
{ACAD_REACTORS
330
16
102
}
330
16
100
AcDbVisualStyle
  2
Gouraud
 70
2
 90
2
 40
0.6
 62
7
290
0
291
1
  0
VISUALSTYLE
  5
65
102
{ACAD_REACTORS
330
16
102
}
330
16
100
AcDbVisualStyle
  2
GouraudWithEdges
 70
3
 90
2
 40
0.6
 62
7
290
0
291
1
  0
VISUALSTYLE
  5
66
102
{ACAD_REACTORS
330
16
102
}
330
16
100
AcDbVisualStyle
  2
Hidden
 70
6
 90
1
 40
0.6
 62
7
290
0
291
0
  0
VISUALSTYLE
  5
67
102
{ACAD_REACTORS
330
16
102
}
330
16
100
AcDbVisualStyle
  2
JitterOff
 70
20
 90
2
 40
0.6
 62
7
290
0
291
1
  0
VISUALSTYLE
  5
68
102
{ACAD_REACTORS
330
16
102
}
330
16
100
AcDbVisualStyle
  2
Linepattern
 70
14
 90
2
 40
0.6
 62
7
290
0
291
1
  0
VISUALSTYLE
  5
69
102
{ACAD_REACTORS
330
16
102
}
330
16
100
AcDbVisualStyle
  2
Modeling
 70
10
 90
2
 40
0.6
 62
7
290
0
291
0
  0
VISUALSTYLE
  5
6A
102
{ACAD_REACTORS
330
16
102
}
330
16
100
AcDbVisualStyle
  2
OverhangOff
 70
21
 90
2
 40
0.6
 62
7
290
0
291
1
  0
VISUALSTYLE
  5
6B
102
{ACAD_REACTORS
330
16
102
}
330
16
100
AcDbVisualStyle
  2
Realistic
 70
8
 90
2
 40
0.6
 62
7
290
0
291
0
  0
VISUALSTYLE
  5
6C
102
{ACAD_REACTORS
330
16
102
}
330
16
100
AcDbVisualStyle
  2
Shaded
 70
27
 90
2
 40
0.6
 62
7
290
0
291
0
  0
VISUALSTYLE
  5
6D
102
{ACAD_REACTORS
330
16
102
}
330
16
100
AcDbVisualStyle
  2
Shaded with edges
 70
26
 90
2
 40
0.6
 62
7
290
0
291
0
  0
VISUALSTYLE
  5
6E
102
{ACAD_REACTORS
330
16
102
}
330
16
100
AcDbVisualStyle
  2
Shades of Gray
 70
23
 90
2
 40
0.6
 62
7
290
0
291
0
  0
VISUALSTYLE
  5
6F
102
{ACAD_REACTORS
330
16
102
}
330
16
100
AcDbVisualStyle
  2
Sketchy
 70
24
 90
1
 40
0.6
 62
7
290
0
291
0
  0
VISUALSTYLE
  5
70
102
{ACAD_REACTORS
330
16
102
}
330
16
100
AcDbVisualStyle
  2
Thicken
 70
13
 90
2
 40
0.6
 62
7
290
0
291
1
  0
VISUALSTYLE
  5
71
102
{ACAD_REACTORS
330
16
102
}
330
16
100
AcDbVisualStyle
  2
Wireframe
 70
5
 90
0
 40
0.6
 62
7
290
0
291
0
  0
VISUALSTYLE
  5
72
102
{ACAD_REACTORS
330
16
102
}
330
16
100
AcDbVisualStyle
  2
X-Ray
 70
25
 90
2
 40
0.5
 62
7
290
0
291
0
  0
DICTIONARYVAR
  5
B3
330
2D
100
DictionaryVariables
280
0
  1
1.1.0 @ 2024-03-26T01:33:49.759493+00:00
  0
ENDSEC
  0
EOF
