  0
SECTION
  2
HEADER
  9
$ACADVER
  1
AC1021
  9
$ACADMAINTVER
 70
25
  9
$DWGCODEPAGE
  3
ANSI_1252
  9
$LASTSAVEDBY
  1
ezdxf
  9
$INSBASE
 10
0.0
 20
0.0
 30
0.0
  9
$EXTMIN
 10
1e+20
 20
1e+20
 30
1e+20
  9
$EXTMAX
 10
-1e+20
 20
-1e+20
 30
-1e+20
  9
$LIMMIN
 10
0.0
 20
0.0
  9
$LIMMAX
 10
420.0
 20
297.0
  9
$ORTHOMODE
 70
0
  9
$REGENMODE
 70
1
  9
$FILLMODE
 70
1
  9
$QTEXTMODE
 70
0
  9
$MIRRTEXT
 70
1
  9
$LTSCALE
 40
1.0
  9
$ATTMODE
 70
1
  9
$TEXTSIZE
 40
2.5
  9
$TRACEWID
 40
1.0
  9
$TEXTSTYLE
  7
OpenSans
  9
$CLAYER
  8
0
  9
$CELTYPE
  6
ByLayer
  9
$CECOLOR
 62
256
  9
$CELTSCALE
 40
1.0
  9
$DISPSILH
 70
0
  9
$DIMSCALE
 40
1.0
  9
$DIMASZ
 40
0.175
  9
$DIMEXO
 40
0.125
  9
$DIMDLI
 40
3.75
  9
$DIMRND
 40
0.0
  9
$DIMDLE
 40
0.0
  9
$DIMEXE
 40
0.375
  9
$DIMTP
 40
0.0
  9
$DIMTM
 40
0.0
  9
$DIMTXT
 40
0.25
  9
$DIMCEN
 40
2.5
  9
$DIMTSZ
 40
0.0
  9
$DIMTOL
 70
0
  9
$DIMLIM
 70
0
  9
$DIMTIH
 70
0
  9
$DIMTOH
 70
0
  9
$DIMSE1
 70
0
  9
$DIMSE2
 70
0
  9
$DIMTAD
 70
1
  9
$DIMZIN
 70
12
  9
$DIMBLK
  1
ARCHTICK
  9
$DIMASO
 70
1
  9
$DIMSHO
 70
1
  9
$DIMPOST
  1

  9
$DIMAPOST
  1

  9
$DIMALT
 70
0
  9
$DIMALTD
 70
3
  9
$DIMALTF
 40
0.03937007874
  9
$DIMLFAC
 40
100.0
  9
$DIMTOFL
 70
1
  9
$DIMTVP
 40
0.0
  9
$DIMTIX
 70
0
  9
$DIMSOXD
 70
0
  9
$DIMSAH
 70
0
  9
$DIMBLK1
  1

  9
$DIMBLK2
  1

  9
$DIMSTYLE
  2
EZDXF
  9
$DIMCLRD
 70
0
  9
$DIMCLRE
 70
0
  9
$DIMCLRT
 70
0
  9
$DIMTFAC
 40
0.5
  9
$DIMGAP
 40
0.1
  9
$DIMJUST
 70
0
  9
$DIMSD1
 70
0
  9
$DIMSD2
 70
0
  9
$DIMTOLJ
 70
0
  9
$DIMTZIN
 70
8
  9
$DIMALTZ
 70
0
  9
$DIMALTTZ
 70
0
  9
$DIMUPT
 70
1
  9
$DIMDEC
 70
2
  9
$DIMTDEC
 70
2
  9
$DIMALTU
 70
2
  9
$DIMALTTD
 70
3
  9
$DIMTXSTY
  7
OpenSansCondensed-Light
  9
$DIMAUNIT
 70
0
  9
$DIMADEC
 70
2
  9
$DIMALTRND
 40
0.0
  9
$DIMAZIN
 70
3
  9
$DIMDSEP
 70
46
  9
$DIMATFIT
 70
3
  9
$DIMFRAC
 70
0
  9
$DIMLDRBLK
  1

  9
$DIMLUNIT
 70
2
  9
$DIMLWD
 70
-2
  9
$DIMLWE
 70
-2
  9
$DIMTMOVE
 70
2
  9
$DIMFXL
 40
1.0
  9
$DIMFXLON
 70
0
  9
$DIMJOGANG
 40
0.785398163397
  9
$DIMTFILL
 70
0
  9
$DIMTFILLCLR
 70
0
  9
$DIMARCSYM
 70
0
  9
$DIMLTYPE
  6

  9
$DIMLTEX1
  6

  9
$DIMLTEX2
  6

  9
$LUNITS
 70
2
  9
$LUPREC
 70
4
  9
$SKETCHINC
 40
1.0
  9
$FILLETRAD
 40
10.0
  9
$AUNITS
 70
0
  9
$AUPREC
 70
2
  9
$MENU
  1
.
  9
$ELEVATION
 40
0.0
  9
$PELEVATION
 40
0.0
  9
$THICKNESS
 40
0.0
  9
$LIMCHECK
 70
0
  9
$CHAMFERA
 40
0.0
  9
$CHAMFERB
 40
0.0
  9
$CHAMFERC
 40
0.0
  9
$CHAMFERD
 40
0.0
  9
$SKPOLY
 70
0
  9
$TDCREATE
 40
2460396.440138889
  9
$TDUCREATE
 40
2458532.153996898
  9
$TDUPDATE
 40
2460396.440138889
  9
$TDUUPDATE
 40
2458532.1544311
  9
$TDINDWG
 40
0.0
  9
$TDUSRTIMER
 40
0.0
  9
$USRTIMER
 70
1
  9
$ANGBASE
 50
0.0
  9
$ANGDIR
 70
0
  9
$PDMODE
 70
0
  9
$PDSIZE
 40
0.0
  9
$PLINEWID
 40
0.0
  9
$SPLFRAME
 70
0
  9
$SPLINETYPE
 70
6
  9
$SPLINESEGS
 70
8
  9
$HANDSEED
  5
BB
  9
$SURFTAB1
 70
6
  9
$SURFTAB2
 70
6
  9
$SURFTYPE
 70
6
  9
$SURFU
 70
6
  9
$SURFV
 70
6
  9
$UCSBASE
  2

  9
$UCSNAME
  2

  9
$UCSORG
 10
0.0
 20
0.0
 30
0.0
  9
$UCSXDIR
 10
1.0
 20
0.0
 30
0.0
  9
$UCSYDIR
 10
0.0
 20
1.0
 30
0.0
  9
$UCSORTHOREF
  2

  9
$UCSORTHOVIEW
 70
0
  9
$UCSORGTOP
 10
0.0
 20
0.0
 30
0.0
  9
$UCSORGBOTTOM
 10
0.0
 20
0.0
 30
0.0
  9
$UCSORGLEFT
 10
0.0
 20
0.0
 30
0.0
  9
$UCSORGRIGHT
 10
0.0
 20
0.0
 30
0.0
  9
$UCSORGFRONT
 10
0.0
 20
0.0
 30
0.0
  9
$UCSORGBACK
 10
0.0
 20
0.0
 30
0.0
  9
$PUCSBASE
  2

  9
$PUCSNAME
  2

  9
$PUCSORG
 10
0.0
 20
0.0
 30
0.0
  9
$PUCSXDIR
 10
1.0
 20
0.0
 30
0.0
  9
$PUCSYDIR
 10
0.0
 20
1.0
 30
0.0
  9
$PUCSORTHOREF
  2

  9
$PUCSORTHOVIEW
 70
0
  9
$PUCSORGTOP
 10
0.0
 20
0.0
 30
0.0
  9
$PUCSORGBOTTOM
 10
0.0
 20
0.0
 30
0.0
  9
$PUCSORGLEFT
 10
0.0
 20
0.0
 30
0.0
  9
$PUCSORGRIGHT
 10
0.0
 20
0.0
 30
0.0
  9
$PUCSORGFRONT
 10
0.0
 20
0.0
 30
0.0
  9
$PUCSORGBACK
 10
0.0
 20
0.0
 30
0.0
  9
$USERI1
 70
0
  9
$USERI2
 70
0
  9
$USERI3
 70
0
  9
$USERI4
 70
0
  9
$USERI5
 70
0
  9
$USERR1
 40
0.0
  9
$USERR2
 40
0.0
  9
$USERR3
 40
0.0
  9
$USERR4
 40
0.0
  9
$USERR5
 40
0.0
  9
$WORLDVIEW
 70
1
  9
$SHADEDGE
 70
3
  9
$SHADEDIF
 70
70
  9
$TILEMODE
 70
1
  9
$MAXACTVP
 70
64
  9
$PINSBASE
 10
0.0
 20
0.0
 30
0.0
  9
$PLIMCHECK
 70
0
  9
$PEXTMIN
 10
1e+20
 20
1e+20
 30
1e+20
  9
$PEXTMAX
 10
-1e+20
 20
-1e+20
 30
-1e+20
  9
$PLIMMIN
 10
0.0
 20
0.0
  9
$PLIMMAX
 10
420.0
 20
297.0
  9
$UNITMODE
 70
0
  9
$VISRETAIN
 70
1
  9
$PLINEGEN
 70
0
  9
$PSLTSCALE
 70
1
  9
$TREEDEPTH
 70
3020
  9
$CMLSTYLE
  2
Standard
  9
$CMLJUST
 70
0
  9
$CMLSCALE
 40
20.0
  9
$PROXYGRAPHICS
 70
1
  9
$MEASUREMENT
 70
1
  9
$CELWEIGHT
370
-1
  9
$ENDCAPS
280
0
  9
$JOINSTYLE
280
0
  9
$LWDISPLAY
290
0
  9
$INSUNITS
 70
6
  9
$HYPERLINKBASE
  1

  9
$STYLESHEET
  1

  9
$XEDIT
290
1
  9
$CEPSNTYPE
380
0
  9
$PSTYLEMODE
290
1
  9
$FINGERPRINTGUID
  2
{CF5FE288-4F3B-4B70-9563-E680E3AE3700}
  9
$VERSIONGUID
  2
{A181A03A-0C6A-4E7F-9AA9-B07FFCBA5FDA}
  9
$EXTNAMES
290
1
  9
$PSVPSCALE
 40
0.0
  9
$OLESTARTUP
290
0
  9
$SORTENTS
280
127
  9
$INDEXCTL
280
0
  9
$HIDETEXT
280
1
  9
$XCLIPFRAME
290
0
  9
$HALOGAP
280
0
  9
$OBSCOLOR
 70
257
  9
$OBSLTYPE
280
0
  9
$INTERSECTIONDISPLAY
280
0
  9
$INTERSECTIONCOLOR
 70
257
  9
$DIMASSOC
280
2
  9
$PROJECTNAME
  1

  9
$CAMERADISPLAY
290
0
  9
$LENSLENGTH
 40
50.0
  9
$CAMERAHEIGHT
 40
0.0
  9
$STEPSPERSEC
 40
24.0
  9
$STEPSIZE
 40
100.0
  9
$3DDWFPREC
 40
2.0
  9
$PSOLWIDTH
 40
0.005
  9
$PSOLHEIGHT
 40
0.08
  9
$LOFTANG1
 40
1.570796326795
  9
$LOFTANG2
 40
1.570796326795
  9
$LOFTMAG1
 40
0.0
  9
$LOFTMAG2
 40
0.0
  9
$LOFTPARAM
 70
7
  9
$LOFTNORMALS
280
1
  9
$LATITUDE
 40
37.795
  9
$LONGITUDE
 40
-122.394
  9
$NORTHDIRECTION
 40
0.0
  9
$TIMEZONE
 70
-8000
  9
$LIGHTGLYPHDISPLAY
280
1
  9
$TILEMODELIGHTSYNCH
280
1
  9
$CMATERIAL
347
20
  9
$SOLIDHIST
280
0
  9
$SHOWHIST
280
1
  9
$DWFFRAME
280
2
  9
$DGNFRAME
280
2
  9
$REALWORLDSCALE
290
1
  9
$INTERFERECOLOR
 62
256
  9
$CSHADOW
280
0
  9
$SHADOWPLANELOCATION
 40
0.0
  0
ENDSEC
  0
SECTION
  2
CLASSES
  0
CLASS
  1
ACDBDICTIONARYWDFLT
  2
AcDbDictionaryWithDefault
  3
ObjectDBX Classes
 90
0
 91
0
280
0
281
0
  0
CLASS
  1
SUN
  2
AcDbSun
  3
SCENEOE
 90
1153
 91
0
280
0
281
0
  0
CLASS
  1
VISUALSTYLE
  2
AcDbVisualStyle
  3
ObjectDBX Classes
 90
4095
 91
0
280
0
281
0
  0
CLASS
  1
MATERIAL
  2
AcDbMaterial
  3
ObjectDBX Classes
 90
1153
 91
0
280
0
281
0
  0
CLASS
  1
SCALE
  2
AcDbScale
  3
ObjectDBX Classes
 90
1153
 91
0
280
0
281
0
  0
CLASS
  1
TABLESTYLE
  2
AcDbTableStyle
  3
ObjectDBX Classes
 90
4095
 91
0
280
0
281
0
  0
CLASS
  1
MLEADERSTYLE
  2
AcDbMLeaderStyle
  3
ACDB_MLEADERSTYLE_CLASS
 90
4095
 91
0
280
0
281
0
  0
CLASS
  1
DICTIONARYVAR
  2
AcDbDictionaryVar
  3
ObjectDBX Classes
 90
0
 91
0
280
0
281
0
  0
CLASS
  1
CELLSTYLEMAP
  2
AcDbCellStyleMap
  3
ObjectDBX Classes
 90
1152
 91
0
280
0
281
0
  0
CLASS
  1
MENTALRAYRENDERSETTINGS
  2
AcDbMentalRayRenderSettings
  3
SCENEOE
 90
1024
 91
0
280
0
281
0
  0
CLASS
  1
ACDBDETAILVIEWSTYLE
  2
AcDbDetailViewStyle
  3
ObjectDBX Classes
 90
1025
 91
0
280
0
281
0
  0
CLASS
  1
ACDBSECTIONVIEWSTYLE
  2
AcDbSectionViewStyle
  3
ObjectDBX Classes
 90
1025
 91
0
280
0
281
0
  0
CLASS
  1
RASTERVARIABLES
  2
AcDbRasterVariables
  3
ISM
 90
0
 91
0
280
0
281
0
  0
CLASS
  1
LAYOUT
  2
AcDbLayout
  3
ObjectDBX Classes
 90
0
 91
0
280
0
281
0
  0
CLASS
  1
ACDBPLACEHOLDER
  2
AcDbPlaceHolder
  3
ObjectDBX Classes
 90
0
 91
0
280
0
281
0
  0
ENDSEC
  0
SECTION
  2
TABLES
  0
TABLE
  2
VPORT
  5
8
330
0
100
AcDbSymbolTable
 70
1
  0
VPORT
  5
23
330
8
100
AcDbSymbolTableRecord
100
AcDbViewportTableRecord
  2
*Active
 70
0
 10
0.0
 20
0.0
 11
1.0
 21
1.0
 12
0.0
 22
0.0
 13
0.0
 23
0.0
 14
0.5
 24
0.5
 15
0.5
 25
0.5
 16
0.0
 26
0.0
 36
1.0
 17
0.0
 27
0.0
 37
0.0
 40
1000.0
 41
1.34
 42
50.0
 43
0.0
 44
0.0
 50
0.0
 51
0.0
 71
0
 72
1000
 73
1
 74
3
 75
0
 76
0
 77
0
 78
0
281
0
 65
0
146
0.0
  0
ENDTAB
  0
TABLE
  2
LTYPE
  5
2
330
0
100
AcDbSymbolTable
 70
21
  0
LTYPE
  5
24
330
2
100
AcDbSymbolTableRecord
100
AcDbLinetypeTableRecord
  2
ByBlock
 70
0
  3

 72
65
 73
0
 40
0.0
  0
LTYPE
  5
25
330
2
100
AcDbSymbolTableRecord
100
AcDbLinetypeTableRecord
  2
ByLayer
 70
0
  3

 72
65
 73
0
 40
0.0
  0
LTYPE
  5
26
330
2
100
AcDbSymbolTableRecord
100
AcDbLinetypeTableRecord
  2
Continuous
 70
0
  3

 72
65
 73
0
 40
0.0
  0
LTYPE
  5
2F
330
2
100
AcDbSymbolTableRecord
100
AcDbLinetypeTableRecord
  2
CENTER
 70
0
  3
Center ____ _ ____ _ ____ _ ____ _ ____ _ ____
 72
65
 73
4
 40
5.08
 49
3.175
 74
0
 49
-0.635
 74
0
 49
0.635
 74
0
 49
-0.635
 74
0
  0
LTYPE
  5
30
330
2
100
AcDbSymbolTableRecord
100
AcDbLinetypeTableRecord
  2
CENTERX2
 70
0
  3
Center (2x) ________  __  ________  __  ________
 72
65
 73
4
 40
8.89
 49
6.35
 74
0
 49
-0.635
 74
0
 49
1.27
 74
0
 49
-0.635
 74
0
  0
LTYPE
  5
31
330
2
100
AcDbSymbolTableRecord
100
AcDbLinetypeTableRecord
  2
CENTER2
 70
0
  3
Center (.5x) ____ _ ____ _ ____ _ ____ _ ____
 72
65
 73
4
 40
2.54
 49
1.587
 74
0
 49
-0.318
 74
0
 49
0.318
 74
0
 49
-0.318
 74
0
  0
LTYPE
  5
32
330
2
100
AcDbSymbolTableRecord
100
AcDbLinetypeTableRecord
  2
DASHED
 70
0
  3
Dashed __ __ __ __ __ __ __ __ __ __ __ __ __ _
 72
65
 73
2
 40
1.524
 49
1.27
 74
0
 49
-0.254
 74
0
  0
LTYPE
  5
33
330
2
100
AcDbSymbolTableRecord
100
AcDbLinetypeTableRecord
  2
DASHEDX2
 70
0
  3
Dashed (2x) ____  ____  ____  ____  ____  ____
 72
65
 73
2
 40
3.048
 49
2.54
 74
0
 49
-0.508
 74
0
  0
LTYPE
  5
34
330
2
100
AcDbSymbolTableRecord
100
AcDbLinetypeTableRecord
  2
DASHED2
 70
0
  3
Dashed (.5x) _ _ _ _ _ _ _ _ _ _ _ _ _ _
 72
65
 73
2
 40
0.762
 49
0.635
 74
0
 49
-0.127
 74
0
  0
LTYPE
  5
35
330
2
100
AcDbSymbolTableRecord
100
AcDbLinetypeTableRecord
  2
PHANTOM
 70
0
  3
Phantom ______  __  __  ______  __  __  ______
 72
65
 73
6
 40
6.35
 49
3.175
 74
0
 49
-0.635
 74
0
 49
0.635
 74
0
 49
-0.635
 74
0
 49
0.635
 74
0
 49
-0.635
 74
0
  0
LTYPE
  5
36
330
2
100
AcDbSymbolTableRecord
100
AcDbLinetypeTableRecord
  2
PHANTOMX2
 70
0
  3
Phantom (2x)____________    ____    ____    ____________
 72
65
 73
6
 40
10.795
 49
6.35
 74
0
 49
-0.635
 74
0
 49
1.27
 74
0
 49
-0.635
 74
0
 49
1.27
 74
0
 49
-0.635
 74
0
  0
LTYPE
  5
37
330
2
100
AcDbSymbolTableRecord
100
AcDbLinetypeTableRecord
  2
PHANTOM2
 70
0
  3
Phantom (.5x) ___ _ _ ___ _ _ ___ _ _ ___ _ _ ___
 72
65
 73
6
 40
3.175
 49
1.587
 74
0
 49
-0.318
 74
0
 49
0.318
 74
0
 49
-0.318
 74
0
 49
0.318
 74
0
 49
-0.318
 74
0
  0
LTYPE
  5
38
330
2
100
AcDbSymbolTableRecord
100
AcDbLinetypeTableRecord
  2
DASHDOT
 70
0
  3
Dash dot __ . __ . __ . __ . __ . __ . __ . __
 72
65
 73
4
 40
3.556
 49
2.54
 74
0
 49
-0.508
 74
0
 49
0.0
 74
0
 49
-0.508
 74
0
  0
LTYPE
  5
39
330
2
100
AcDbSymbolTableRecord
100
AcDbLinetypeTableRecord
  2
DASHDOTX2
 70
0
  3
Dash dot (2x) ____  .  ____  .  ____  .  ____
 72
65
 73
4
 40
6.096
 49
5.08
 74
0
 49
-0.508
 74
0
 49
0.0
 74
0
 49
-0.508
 74
0
  0
LTYPE
  5
3A
330
2
100
AcDbSymbolTableRecord
100
AcDbLinetypeTableRecord
  2
DASHDOT2
 70
0
  3
Dash dot (.5x) _ . _ . _ . _ . _ . _ . _ . _
 72
65
 73
4
 40
1.778
 49
1.27
 74
0
 49
-0.254
 74
0
 49
0.0
 74
0
 49
-0.254
 74
0
  0
LTYPE
  5
3B
330
2
100
AcDbSymbolTableRecord
100
AcDbLinetypeTableRecord
  2
DOT
 70
0
  3
Dot .  .  .  .  .  .  .  .  .  .  .  .  .  .  .  .
 72
65
 73
2
 40
0.508
 49
0.0
 74
0
 49
-0.508
 74
0
  0
LTYPE
  5
3C
330
2
100
AcDbSymbolTableRecord
100
AcDbLinetypeTableRecord
  2
DOTX2
 70
0
  3
Dot (2x) .    .    .    .    .    .    .    . 
 72
65
 73
2
 40
1.016
 49
0.0
 74
0
 49
-1.016
 74
0
  0
LTYPE
  5
3D
330
2
100
AcDbSymbolTableRecord
100
AcDbLinetypeTableRecord
  2
DOT2
 70
0
  3
Dot (.5) . . . . . . . . . . . . . . . . . . . 
 72
65
 73
2
 40
0.254
 49
0.0
 74
0
 49
-0.254
 74
0
  0
LTYPE
  5
3E
330
2
100
AcDbSymbolTableRecord
100
AcDbLinetypeTableRecord
  2
DIVIDE
 70
0
  3
Divide __ . . __ . . __ . . __ . . __ . . __
 72
65
 73
6
 40
4.064
 49
2.54
 74
0
 49
-0.508
 74
0
 49
0.0
 74
0
 49
-0.508
 74
0
 49
0.0
 74
0
 49
-0.508
 74
0
  0
LTYPE
  5
3F
330
2
100
AcDbSymbolTableRecord
100
AcDbLinetypeTableRecord
  2
DIVIDEX2
 70
0
  3
Divide (2x) ____  . .  ____  . .  ____  . .  ____
 72
65
 73
6
 40
6.604
 49
5.08
 74
0
 49
-0.508
 74
0
 49
0.0
 74
0
 49
-0.508
 74
0
 49
0.0
 74
0
 49
-0.508
 74
0
  0
LTYPE
  5
40
330
2
100
AcDbSymbolTableRecord
100
AcDbLinetypeTableRecord
  2
DIVIDE2
 70
0
  3
Divide(.5x) _ . _ . _ . _ . _ . _ . _ . _
 72
65
 73
6
 40
2.032
 49
1.27
 74
0
 49
-0.254
 74
0
 49
0.0
 74
0
 49
-0.254
 74
0
 49
0.0
 74
0
 49
-0.254
 74
0
  0
ENDTAB
  0
TABLE
  2
LAYER
  5
1
330
0
100
AcDbSymbolTable
 70
3
  0
LAYER
  5
27
330
1
100
AcDbSymbolTableRecord
100
AcDbLayerTableRecord
  2
0
 70
0
 62
7
  6
Continuous
370
-3
390
13
347
21
  0
LAYER
  5
28
330
1
100
AcDbSymbolTableRecord
100
AcDbLayerTableRecord
  2
Defpoints
 70
0
 62
7
  6
Continuous
290
0
370
-3
390
13
347
21
  0
LAYER
  5
8A
330
1
100
AcDbSymbolTableRecord
100
AcDbLayerTableRecord
  2
Layer
 70
0
 62
1
  6
Continuous
370
50
390
13
347
21
  0
ENDTAB
  0
TABLE
  2
STYLE
  5
5
330
0
100
AcDbSymbolTable
 70
26
  0
STYLE
  5
29
330
5
100
AcDbSymbolTableRecord
100
AcDbTextStyleTableRecord
  2
Standard
 70
0
 40
0.0
 41
1.0
 50
0.0
 71
0
 42
2.5
  3
txt
  4

  0
STYLE
  5
41
330
5
100
AcDbSymbolTableRecord
100
AcDbTextStyleTableRecord
  2
OpenSans-Light
 70
0
 40
0.0
 41
1.0
 50
0.0
 71
0
 42
2.5
  3
OpenSans-Light.ttf
  4

  0
STYLE
  5
42
330
5
100
AcDbSymbolTableRecord
100
AcDbTextStyleTableRecord
  2
OpenSans-Light-Italic
 70
0
 40
0.0
 41
1.0
 50
0.0
 71
0
 42
2.5
  3
OpenSans-LightItalic.ttf
  4

  0
STYLE
  5
43
330
5
100
AcDbSymbolTableRecord
100
AcDbTextStyleTableRecord
  2
OpenSans
 70
0
 40
0.0
 41
1.0
 50
0.0
 71
0
 42
2.5
  3
OpenSans-Regular.ttf
  4

  0
STYLE
  5
44
330
5
100
AcDbSymbolTableRecord
100
AcDbTextStyleTableRecord
  2
OpenSans-Italic
 70
0
 40
0.0
 41
1.0
 50
0.0
 71
0
 42
2.5
  3
OpenSans-Italic.ttf
  4

  0
STYLE
  5
45
330
5
100
AcDbSymbolTableRecord
100
AcDbTextStyleTableRecord
  2
OpenSans-SemiBold
 70
0
 40
0.0
 41
1.0
 50
0.0
 71
0
 42
2.5
  3
OpenSans-SemiBold.ttf
  4

  0
STYLE
  5
46
330
5
100
AcDbSymbolTableRecord
100
AcDbTextStyleTableRecord
  2
OpenSans-SemiBoldItalic
 70
0
 40
0.0
 41
1.0
 50
0.0
 71
0
 42
2.5
  3
OpenSans-SemiBoldItalic.ttf
  4

  0
STYLE
  5
47
330
5
100
AcDbSymbolTableRecord
100
AcDbTextStyleTableRecord
  2
OpenSans-Bold
 70
0
 40
0.0
 41
1.0
 50
0.0
 71
0
 42
2.5
  3
OpenSans-Bold.ttf
  4

  0
STYLE
  5
48
330
5
100
AcDbSymbolTableRecord
100
AcDbTextStyleTableRecord
  2
OpenSans-BoldItalic
 70
0
 40
0.0
 41
1.0
 50
0.0
 71
0
 42
2.5
  3
OpenSans-BoldItalic.ttf
  4

  0
STYLE
  5
49
330
5
100
AcDbSymbolTableRecord
100
AcDbTextStyleTableRecord
  2
OpenSans-ExtraBold
 70
0
 40
0.0
 41
1.0
 50
0.0
 71
0
 42
2.5
  3
OpenSans-ExtraBold.ttf
  4

  0
STYLE
  5
4A
330
5
100
AcDbSymbolTableRecord
100
AcDbTextStyleTableRecord
  2
OpenSans-ExtraBoldItalic
 70
0
 40
0.0
 41
1.0
 50
0.0
 71
0
 42
2.5
  3
OpenSans-ExtraBoldItalic.ttf
  4

  0
STYLE
  5
4B
330
5
100
AcDbSymbolTableRecord
100
AcDbTextStyleTableRecord
  2
OpenSansCondensed-Bold
 70
0
 40
0.0
 41
1.0
 50
0.0
 71
0
 42
2.5
  3
OpenSansCondensed-Bold.ttf
  4

  0
STYLE
  5
4C
330
5
100
AcDbSymbolTableRecord
100
AcDbTextStyleTableRecord
  2
OpenSansCondensed-Light
 70
0
 40
0.0
 41
1.0
 50
0.0
 71
0
 42
2.5
  3
OpenSansCondensed-Light.ttf
  4

  0
STYLE
  5
4D
330
5
100
AcDbSymbolTableRecord
100
AcDbTextStyleTableRecord
  2
OpenSansCondensed-Italic
 70
0
 40
0.0
 41
1.0
 50
0.0
 71
0
 42
2.5
  3
OpenSansCondensed-LightItalic.ttf
  4

  0
STYLE
  5
4E
330
5
100
AcDbSymbolTableRecord
100
AcDbTextStyleTableRecord
  2
LiberationSans
 70
0
 40
0.0
 41
1.0
 50
0.0
 71
0
 42
2.5
  3
LiberationSans-Regular.ttf
  4

  0
STYLE
  5
4F
330
5
100
AcDbSymbolTableRecord
100
AcDbTextStyleTableRecord
  2
LiberationSans-Bold
 70
0
 40
0.0
 41
1.0
 50
0.0
 71
0
 42
2.5
  3
LiberationSans-Bold.ttf
  4

  0
STYLE
  5
50
330
5
100
AcDbSymbolTableRecord
100
AcDbTextStyleTableRecord
  2
LiberationSans-BoldItalic
 70
0
 40
0.0
 41
1.0
 50
0.0
 71
0
 42
2.5
  3
LiberationSans-BoldItalic.ttf
  4

  0
STYLE
  5
51
330
5
100
AcDbSymbolTableRecord
100
AcDbTextStyleTableRecord
  2
LiberationSans-Italic
 70
0
 40
0.0
 41
1.0
 50
0.0
 71
0
 42
2.5
  3
LiberationSans-Italic.ttf
  4

  0
STYLE
  5
52
330
5
100
AcDbSymbolTableRecord
100
AcDbTextStyleTableRecord
  2
LiberationSerif
 70
0
 40
0.0
 41
1.0
 50
0.0
 71
0
 42
2.5
  3
LiberationSerif-Regular.ttf
  4

  0
STYLE
  5
53
330
5
100
AcDbSymbolTableRecord
100
AcDbTextStyleTableRecord
  2
LiberationSerif-Bold
 70
0
 40
0.0
 41
1.0
 50
0.0
 71
0
 42
2.5
  3
LiberationSerif-Bold.ttf
  4

  0
STYLE
  5
54
330
5
100
AcDbSymbolTableRecord
100
AcDbTextStyleTableRecord
  2
LiberationSerif-BoldItalic
 70
0
 40
0.0
 41
1.0
 50
0.0
 71
0
 42
2.5
  3
LiberationSerif-BoldItalic.ttf
  4

  0
STYLE
  5
55
330
5
100
AcDbSymbolTableRecord
100
AcDbTextStyleTableRecord
  2
LiberationSerif-Italic
 70
0
 40
0.0
 41
1.0
 50
0.0
 71
0
 42
2.5
  3
LiberationSerif-Italic.ttf
  4

  0
STYLE
  5
56
330
5
100
AcDbSymbolTableRecord
100
AcDbTextStyleTableRecord
  2
LiberationMono
 70
0
 40
0.0
 41
1.0
 50
0.0
 71
0
 42
2.5
  3
LiberationMono-Regular.ttf
  4

  0
STYLE
  5
57
330
5
100
AcDbSymbolTableRecord
100
AcDbTextStyleTableRecord
  2
LiberationMono-Bold
 70
0
 40
0.0
 41
1.0
 50
0.0
 71
0
 42
2.5
  3
LiberationMono-Bold.ttf
  4

  0
STYLE
  5
58
330
5
100
AcDbSymbolTableRecord
100
AcDbTextStyleTableRecord
  2
LiberationMono-BoldItalic
 70
0
 40
0.0
 41
1.0
 50
0.0
 71
0
 42
2.5
  3
LiberationMono-BoldItalic.ttf
  4

  0
STYLE
  5
59
330
5
100
AcDbSymbolTableRecord
100
AcDbTextStyleTableRecord
  2
LiberationMono-Italic
 70
0
 40
0.0
 41
1.0
 50
0.0
 71
0
 42
2.5
  3
LiberationMono-Italic.ttf
  4

  0
ENDTAB
  0
TABLE
  2
VIEW
  5
7
330
0
100
AcDbSymbolTable
 70
0
  0
ENDTAB
  0
TABLE
  2
UCS
  5
6
330
0
100
AcDbSymbolTable
 70
0
  0
ENDTAB
  0
TABLE
  2
APPID
  5
3
330
0
100
AcDbSymbolTable
 70
3
  0
APPID
  5
2A
330
3
100
AcDbSymbolTableRecord
100
AcDbRegAppTableRecord
  2
ACAD
 70
0
  0
APPID
  5
B8
330
3
100
AcDbSymbolTableRecord
100
AcDbRegAppTableRecord
  2
HATCHBACKGROUNDCOLOR
 70
0
  0
APPID
  5
B9
330
3
100
AcDbSymbolTableRecord
100
AcDbRegAppTableRecord
  2
EZDXF
 70
0
  0
ENDTAB
  0
TABLE
  2
DIMSTYLE
  5
4
330
0
100
AcDbSymbolTable
 70
12
100
AcDbDimStyleTable
  0
DIMSTYLE
105
2B
330
4
100
AcDbSymbolTableRecord
100
AcDbDimStyleTableRecord
  2
Standard
 70
0
 40
1.0
 41
2.5
 42
0.625
 43
3.75
 44
1.25
 45
0.0
 46
0.0
 47
0.0
 48
0.0
 49
2.5
140
2.5
141
2.5
142
0.0
143
0.03937007874
144
1.0
145
0.0
146
1.0
147
0.625
148
0.0
 69
0
 70
0
 71
0
 72
0
 73
0
 74
0
 75
0
 76
0
 77
1
 78
8
 79
3
170
0
171
3
172
1
173
0
174
0
175
0
176
0
177
0
178
0
179
2
271
2
272
2
273
2
274
3
275
0
276
0
277
2
278
44
279
0
280
0
281
0
282
0
283
0
284
8
285
0
286
0
288
0
289
3
290
0
371
-2
372
-2
  0
DIMSTYLE
105
73
330
4
100
AcDbSymbolTableRecord
100
AcDbDimStyleTableRecord
  2
EZDXF
 70
0
 40
1.0
 41
0.175
 42
0.125
 43
3.75
 44
0.375
 45
0.0
 46
0.0
 47
0.0
 48
0.0
 49
2.5
140
0.25
141
2.5
142
0.0
143
0.03937007874
144
100.0
145
0.0
146
0.5
147
0.1
148
0.0
 69
0
 70
0
 71
0
 72
0
 73
0
 74
0
 75
0
 76
0
 77
1
 78
12
 79
3
170
0
171
3
172
1
173
0
174
0
175
0
176
0
177
0
178
0
179
2
271
2
272
2
273
2
274
3
275
0
276
0
277
2
278
46
279
2
280
0
281
0
282
0
283
0
284
8
285
0
286
0
288
1
289
3
290
0
340
4C
342
74
371
-2
372
-2
  0
DIMSTYLE
105
7C
330
4
100
AcDbSymbolTableRecord
100
AcDbDimStyleTableRecord
  2
EZ_M_100_H25_CM
 70
0
 40
1.0
 41
0.25
 42
0.125
 43
3.75
 44
0.375
 45
0.0
 46
0.0
 47
0.0
 48
0.0
 49
2.5
140
0.25
141
2.5
142
0.125
143
0.03937007874
144
100.0
145
0.0
146
0.5
147
0.1
148
0.0
 69
0
 70
0
 71
0
 72
0
 73
0
 74
0
 75
0
 76
0
 77
1
 78
12
 79
3
170
0
171
3
172
1
173
0
174
0
175
0
176
0
177
0
178
0
179
2
271
2
272
2
273
2
274
3
275
0
276
0
277
2
278
46
279
2
280
0
281
0
282
0
283
0
284
8
285
0
286
0
288
1
289
3
290
0
340
4C
371
-2
372
-2
  0
DIMSTYLE
105
7D
330
4
100
AcDbSymbolTableRecord
100
AcDbDimStyleTableRecord
  2
EZ_M_50_H25_CM
 70
0
 40
1.0
 41
0.125
 42
0.0625
 43
3.75
 44
0.1875
 45
0.0
 46
0.0
 47
0.0
 48
0.0
 49
2.5
140
0.125
141
2.5
142
0.0625
143
0.03937007874
144
100.0
145
0.0
146
0.5
147
0.05
148
0.0
 69
0
 70
0
 71
0
 72
0
 73
0
 74
0
 75
0
 76
0
 77
1
 78
12
 79
3
170
0
171
3
172
1
173
0
174
0
175
0
176
0
177
0
178
0
179
2
271
2
272
2
273
2
274
3
275
0
276
0
277
2
278
46
279
2
280
0
281
0
282
0
283
0
284
8
285
0
286
0
288
1
289
3
290
0
340
4C
371
-2
372
-2
  0
DIMSTYLE
105
7E
330
4
100
AcDbSymbolTableRecord
100
AcDbDimStyleTableRecord
  2
EZ_M_25_H25_CM
 70
0
 40
1.0
 41
0.0625
 42
0.03125
 43
3.75
 44
0.09375
 45
0.0
 46
0.0
 47
0.0
 48
0.0
 49
2.5
140
0.0625
141
2.5
142
0.03125
143
0.03937007874
144
100.0
145
0.0
146
0.5
147
0.025
148
0.0
 69
0
 70
0
 71
0
 72
0
 73
0
 74
0
 75
0
 76
0
 77
1
 78
12
 79
3
170
0
171
3
172
1
173
0
174
0
175
0
176
0
177
0
178
0
179
2
271
2
272
2
273
2
274
3
275
0
276
0
277
2
278
46
279
2
280
0
281
0
282
0
283
0
284
8
285
0
286
0
288
1
289
3
290
0
340
4C
371
-2
372
-2
  0
DIMSTYLE
105
7F
330
4
100
AcDbSymbolTableRecord
100
AcDbDimStyleTableRecord
  2
EZ_M_20_H25_CM
 70
0
 40
1.0
 41
0.05
 42
0.025
 43
3.75
 44
0.07500000000000001
 45
0.0
 46
0.0
 47
0.0
 48
0.0
 49
2.5
140
0.05
141
2.5
142
0.025
143
0.03937007874
144
100.0
145
0.0
146
0.5
147
0.020000000000000004
148
0.0
 69
0
 70
0
 71
0
 72
0
 73
0
 74
0
 75
0
 76
0
 77
1
 78
12
 79
3
170
0
171
3
172
1
173
0
174
0
175
0
176
0
177
0
178
0
179
2
271
2
272
2
273
2
274
3
275
0
276
0
277
2
278
46
279
2
280
0
281
0
282
0
283
0
284
8
285
0
286
0
288
1
289
3
290
0
340
4C
371
-2
372
-2
  0
DIMSTYLE
105
80
330
4
100
AcDbSymbolTableRecord
100
AcDbDimStyleTableRecord
  2
EZ_M_10_H25_CM
 70
0
 40
1.0
 41
0.025
 42
0.0125
 43
3.75
 44
0.037500000000000006
 45
0.0
 46
0.0
 47
0.0
 48
0.0
 49
2.5
140
0.025
141
2.5
142
0.0125
143
0.03937007874
144
100.0
145
0.0
146
0.5
147
0.010000000000000002
148
0.0
 69
0
 70
0
 71
0
 72
0
 73
0
 74
0
 75
0
 76
0
 77
1
 78
12
 79
3
170
0
171
3
172
1
173
0
174
0
175
0
176
0
177
0
178
0
179
2
271
2
272
2
273
2
274
3
275
0
276
0
277
2
278
46
279
2
280
0
281
0
282
0
283
0
284
8
285
0
286
0
288
1
289
3
290
0
340
4C
371
-2
372
-2
  0
DIMSTYLE
105
81
330
4
100
AcDbSymbolTableRecord
100
AcDbDimStyleTableRecord
  2
EZ_M_5_H25_CM
 70
0
 40
1.0
 41
0.0125
 42
0.00625
 43
3.75
 44
0.018750000000000003
 45
0.0
 46
0.0
 47
0.0
 48
0.0
 49
2.5
140
0.0125
141
2.5
142
0.00625
143
0.03937007874
144
100.0
145
0.0
146
0.5
147
0.005000000000000001
148
0.0
 69
0
 70
0
 71
0
 72
0
 73
0
 74
0
 75
0
 76
0
 77
1
 78
12
 79
3
170
0
171
3
172
1
173
0
174
0
175
0
176
0
177
0
178
0
179
2
271
2
272
2
273
2
274
3
275
0
276
0
277
2
278
46
279
2
280
0
281
0
282
0
283
0
284
8
285
0
286
0
288
1
289
3
290
0
340
4C
371
-2
372
-2
  0
DIMSTYLE
105
82
330
4
100
AcDbSymbolTableRecord
100
AcDbDimStyleTableRecord
  2
EZ_M_1_H25_CM
 70
0
 40
1.0
 41
0.0025
 42
0.00125
 43
3.75
 44
0.00375
 45
0.0
 46
0.0
 47
0.0
 48
0.0
 49
2.5
140
0.0025
141
2.5
142
0.00125
143
0.03937007874
144
100.0
145
0.0
146
0.5
147
0.001
148
0.0
 69
0
 70
0
 71
0
 72
0
 73
0
 74
0
 75
0
 76
0
 77
1
 78
12
 79
3
170
0
171
3
172
1
173
0
174
0
175
0
176
0
177
0
178
0
179
2
271
2
272
2
273
2
274
3
275
0
276
0
277
2
278
46
279
2
280
0
281
0
282
0
283
0
284
8
285
0
286
0
288
1
289
3
290
0
340
4C
371
-2
372
-2
  0
DIMSTYLE
105
83
330
4
100
AcDbSymbolTableRecord
100
AcDbDimStyleTableRecord
  2
EZ_RADIUS
 70
0
 40
1.0
 41
0.25
 42
0.125
 43
3.75
 44
0.375
 45
0.0
 46
0.0
 47
0.0
 48
0.0
 49
2.5
140
0.25
141
0.0
142
0.0
143
0.03937007874
144
100.0
145
0.0
146
0.5
147
0.1
148
0.0
 69
0
 70
0
 71
0
 72
0
 73
0
 74
0
 75
0
 76
0
 77
1
 78
12
 79
3
170
0
171
3
172
0
173
0
174
0
175
0
176
0
177
0
178
0
179
2
271
2
272
2
273
2
274
3
275
0
276
0
277
2
278
46
279
1
280
0
281
0
282
0
283
0
284
8
285
0
286
0
288
1
289
3
290
0
340
4C
342
84
371
-2
372
-2
  0
DIMSTYLE
105
88
330
4
100
AcDbSymbolTableRecord
100
AcDbDimStyleTableRecord
  2
EZ_RADIUS_INSIDE
 70
0
 40
1.0
 41
0.25
 42
0.125
 43
3.75
 44
0.375
 45
0.0
 46
0.0
 47
0.0
 48
0.0
 49
2.5
140
0.25
141
0.0
142
0.0
143
0.03937007874
144
100.0
145
0.0
146
0.5
147
0.1
148
0.0
 69
0
 70
0
 71
0
 72
0
 73
0
 74
0
 75
0
 76
0
 77
0
 78
12
 79
3
170
0
171
3
172
0
173
0
174
1
175
0
176
0
177
0
178
0
179
2
271
2
272
2
273
2
274
3
275
0
276
0
277
2
278
46
279
0
280
0
281
0
282
0
283
0
284
8
285
0
286
0
288
1
289
0
290
0
340
4C
342
84
371
-2
372
-2
  0
DIMSTYLE
105
89
330
4
100
AcDbSymbolTableRecord
100
AcDbDimStyleTableRecord
  2
EZ_CURVED
 70
0
 40
1.0
 41
0.25
 42
0.125
 43
3.75
 44
0.375
 45
0.0
 46
0.0
 47
0.0
 48
0.0
 49
2.5
140
0.25
141
2.5
142
0.0
143
0.03937007874
144
100.0
145
0.0
146
0.5
147
0.1
148
0.0
 69
0
 70
0
 71
0
 72
0
 73
0
 74
0
 75
0
 76
0
 77
1
 78
12
 79
2
 90
2
170
0
171
3
172
1
173
0
174
0
175
0
176
0
177
0
178
0
179
2
271
2
272
2
273
2
274
3
275
0
276
0
277
2
278
46
279
2
280
0
281
0
282
0
283
0
284
8
285
0
286
0
288
1
289
3
290
0
340
4C
371
-2
372
-2
  0
ENDTAB
  0
TABLE
  2
BLOCK_RECORD
  5
9
330
0
100
AcDbSymbolTable
 70
5
  0
BLOCK_RECORD
  5
17
330
9
100
AcDbSymbolTableRecord
100
AcDbBlockTableRecord
  2
*Model_Space
340
1A
 70
0
280
1
281
0
  0
BLOCK_RECORD
  5
1B
330
9
100
AcDbSymbolTableRecord
100
AcDbBlockTableRecord
  2
*Paper_Space
340
1E
 70
0
280
1
281
0
  0
BLOCK_RECORD
  5
74
330
9
100
AcDbSymbolTableRecord
100
AcDbBlockTableRecord
  2
_ARCHTICK
340
0
 70
0
280
1
281
0
  0
BLOCK_RECORD
  5
78
330
9
100
AcDbSymbolTableRecord
100
AcDbBlockTableRecord
  2
_CLOSEDFILLED
340
0
 70
0
280
1
281
0
  0
BLOCK_RECORD
  5
84
330
9
100
AcDbSymbolTableRecord
100
AcDbBlockTableRecord
  2
_CLOSEDBLANK
340
0
 70
0
280
1
281
0
  0
ENDTAB
  0
ENDSEC
  0
SECTION
  2
BLOCKS
  0
BLOCK
  5
18
330
17
100
AcDbEntity
  8
0
100
AcDbBlockBegin
  2
*Model_Space
 70
0
 10
0.0
 20
0.0
 30
0.0
  3
*Model_Space
  1

  0
ENDBLK
  5
19
330
17
100
AcDbEntity
  8
0
100
AcDbBlockEnd
  0
BLOCK
  5
1C
330
1B
100
AcDbEntity
  8
0
100
AcDbBlockBegin
  2
*Paper_Space
 70
0
 10
0.0
 20
0.0
 30
0.0
  3
*Paper_Space
  1

  0
ENDBLK
  5
1D
330
1B
100
AcDbEntity
  8
0
100
AcDbBlockEnd
  0
BLOCK
  5
75
330
74
100
AcDbEntity
  8
0
100
AcDbBlockBegin
  2
_ARCHTICK
 70
0
 10
0.0
 20
0.0
 30
0.0
  3
_ARCHTICK
  1

  0
LWPOLYLINE
  5
77
330
74
100
AcDbEntity
  8
0
  6
BYBLOCK
 62
0
100
AcDbPolyline
 90
2
 70
0
 43
0.15
 10
-0.5
 20
-0.5000000000000001
 10
0.5000000000000001
 20
0.5
  0
ENDBLK
  5
76
330
74
100
AcDbEntity
  8
0
100
AcDbBlockEnd
  0
BLOCK
  5
79
330
78
100
AcDbEntity
  8
0
100
AcDbBlockBegin
  2
_CLOSEDFILLED
 70
0
 10
0.0
 20
0.0
 30
0.0
  3
_CLOSEDFILLED
  1

  0
SOLID
  5
7B
330
78
100
AcDbEntity
  8
0
  6
BYBLOCK
 62
0
100
AcDbTrace
 10
-1.0
 20
0.1643989837240255
 30
0.0
 11
0.0
 21
0.0
 31
0.0
 12
-1.0
 22
-0.1643989837240255
 32
0.0
 13
-1.0
 23
-0.1643989837240255
 33
0.0
  0
ENDBLK
  5
7A
330
78
100
AcDbEntity
  8
0
100
AcDbBlockEnd
  0
BLOCK
  5
85
330
84
100
AcDbEntity
  8
0
100
AcDbBlockBegin
  2
_CLOSEDBLANK
 70
0
 10
0.0
 20
0.0
 30
0.0
  3
_CLOSEDBLANK
  1

  0
LWPOLYLINE
  5
87
330
84
100
AcDbEntity
  8
0
  6
BYBLOCK
 62
0
100
AcDbPolyline
 90
3
 70
1
 10
-1.0
 20
0.1643989837240255
 10
0.0
 20
0.0
 10
-1.0
 20
-0.1643989837240255
  0
ENDBLK
  5
86
330
84
100
AcDbEntity
  8
0
100
AcDbBlockEnd
  0
ENDSEC
  0
SECTION
  2
ENTITIES
  0
LWPOLYLINE
  5
8B
330
17
100
AcDbEntity
  8
Layer
100
AcDbPolyline
 90
303
 70
1
 10
964.7178399981955
 20
2.9976058501009106
 10
961.8320950746757
 20
4.172206848536774
 10
957.1846731763956
 20
5.973505375953138
 10
952.1592183280147
 20
7.96238441942937
 10
946.6684504679707
 20
10.097334813238348
 10
940.6784472088876
 20
12.383235987784744
 10
934.2348141301599
 20
14.8410400520074
 10
927.4151447416554
 20
17.45537195848857
 10
920.2788758079123
 20
20.178790652518956
 10
912.9373932940358
 20
22.976916109356083
 10
905.525105859239
 20
25.77415818457149
 10
898.049522394683
 20
28.539977143703922
 10
890.4723899367444
 20
31.402481412549363
 10
882.8077507449964
 20
34.31021273617
 10
875.0096000955148
 20
37.20845948851913
 10
867.0847160081931
 20
40.141719871476255
 10
859.0240626445604
 20
43.08763926455651
 10
850.8105153058457
 20
46.10087806810083
 10
842.4660826304332
 20
49.156679632436145
 10
834.0263794437806
 20
52.24030071694177
 10
825.526264813004
 20
55.34262561761496
 10
816.9989532563446
 20
58.45455384353342
 10
808.4677844810974
 20
61.56106140187095
 10
799.938659183256
 20
64.65425781832747
 10
791.4124626541005
 20
67.7327336131379
 10
782.8920113080139
 20
70.79609743596274
 10
774.3872561715569
 20
73.84303636702745
 10
765.9149778338517
 20
76.8649732238341
 10
757.4757036972624
 20
79.8524840737538
 10
749.0530870650475
 20
82.80673295546129
 10
740.6407621509438
 20
85.7334372084108
 10
732.2465348794997
 20
88.63105915217895
 10
728.0922235953849
 20
90.05186604335839
 10
727.7524382217728
 20
89.05836420648072
 10
723.5378015267956
 20
90.49981150413035
 10
715.1866666933324
 20
93.32520367932317
 10
706.8473786614217
 20
96.11401402229163
 10
698.5136195542398
 20
98.86691020320335
 10
690.1796465625102
 20
101.5864198277183
 10
681.8464226998875
 20
104.27650467681757
 10
673.5369813091231
 20
106.93540889913143
 10
665.2808550922668
 20
109.54974913470048
 10
657.0851378830895
 20
112.10521474381594
 10
648.938693629095
 20
114.59700816375435
 10
640.8284872877662
 20
117.02543178804167
 10
632.7431494129611
 20
119.39199215936027
 10
624.6726187701207
 20
121.69879142703479
 10
616.6114850035051
 20
123.94818081901062
 10
608.5604412234197
 20
126.14040744645548
 10
600.5206304626486
 20
128.27281284512893
 10
592.484931324511
 20
130.34332678273543
 10
584.4417213167635
 20
132.35399806345868
 10
576.3847850899147
 20
134.30811317149
 10
568.3116849512038
 20
136.20760055685054
 10
560.221767418665
 20
138.05367003302254
 10
552.1163229319137
 20
139.84688980629994
 10
543.9986924719828
 20
141.58695664488624
 10
535.8707113067651
 20
143.27196666328962
 10
527.7269723936765
 20
144.90075206941714
 10
519.5595993065931
 20
146.47560959067079
 10
511.36589545730226
 20
147.99975647259333
 10
503.1477949384473
 20
149.47565342772327
 10
494.91373678855996
 20
150.90415690215053
 10
486.67303298567685
 20
152.28335745019575
 10
478.4306711393144
 20
153.6104635094565
 10
470.18869700777867
 20
154.88464052824133
 10
461.9510566146317
 20
156.10498827691174
 10
453.72019562918234
 20
157.26966635868087
 10
445.49546626265214
 20
158.37699099152044
 10
437.2742692624837
 20
159.42678198820494
 10
429.05679489884017
 20
160.4193100024194
 10
420.8438309993397
 20
161.35383407641223
 10
412.6338654781804
 20
162.22950567121694
 10
404.4253974378306
 20
163.04644166893846
 10
396.2199608569456
 20
163.8047153497946
 10
388.01625660403164
 20
164.50268214294078
 10
379.8102834738436
 20
165.13996924035092
 10
371.59793117545877
 20
165.71815145427217
 10
363.3820581132236
 20
166.23905100190882
 10
355.16839209056104
 20
166.70281667671907
 10
346.9620002766395
 20
167.10828696631972
 10
338.7658580067438
 20
167.45397245657665
 10
330.58034074664056
 20
167.73867119864167
 10
322.4057771266621
 20
167.96234993179863
 10
314.2446512995272
 20
168.12577534654486
 10
306.10490790677716
 20
168.23079156778073
 10
298.0017711764948
 20
168.27716325129035
 10
289.94723687816816
 20
168.26100581263893
 10
281.94615328106073
 20
168.17646267867798
 10
273.9913691450458
 20
168.0158759835001
 10
266.0608081805325
 20
167.774834829285
 10
258.1373717617816
 20
167.4574182604726
 10
250.2237889608205
 20
167.06968002199886
 10
242.32905688120178
 20
166.61175602014382
 10
234.4563697718186
 20
166.0818951085153
 10
226.60790469238137
 20
165.4803078364755
 10
218.7906461735243
 20
164.8080793879772
 10
211.01180076723153
 20
164.0644819982174
 10
203.27709168760782
 20
163.248515101302
 10
195.5908255220296
 20
162.3588745223562
 10
187.95668930310745
 20
161.3946759452358
 10
180.37891651708608
 20
160.35594953326586
 10
172.86590043094938
 20
159.24221790724445
 10
165.4189164610461
 20
158.04673218468184
 10
158.02387114198473
 20
156.76600075717386
 10
150.68165025599635
 20
155.41253216899395
 10
143.43125348623676
 20
154.00260340257148
 10
136.31251073555046
 20
152.53529836566966
 10
129.33827825317388
 20
151.00009315032383
 10
122.50644912678172
 20
149.3891595371393
 10
115.81183807128582
 20
147.69865954956083
 10
109.25038922425838
 20
145.92791593598525
 10
102.82271117819096
 20
144.0793849997839
 10
96.5356354397735
 20
142.15920905113623
 10
90.40360427712744
 20
140.17570159482688
 10
84.44370745530375
 20
138.13470783391477
 10
78.66705393801107
 20
136.04099352441958
 10
73.0854958040311
 20
133.908067886371
 10
67.7219259198526
 20
131.75761622613533
 10
62.60375591830348
 20
129.6076055279196
 10
57.75129230787172
 20
127.46886177094972
 10
53.17535529931166
 20
125.34808194640743
 10
48.87665756356006
 20
123.24871179224264
 10
44.84868780221905
 20
121.17628886387216
 10
41.0835332361537
 20
119.14022564154867
 10
37.572513168377384
 20
117.14958204573742
 10
34.30656390084488
 20
115.21267039904095
 10
31.276379538173387
 20
113.33381812709233
 10
28.470740690235004
 20
111.5128270558681
 10
25.876879200323003
 20
109.74666638822262
 10
23.480276308950522
 20
108.03000144607807
 10
21.26332799006053
 20
106.35744643302391
 10
19.20879751370296
 20
104.73016008065696
 10
17.30305460498721
 20
103.15171205451782
 10
15.535942881017604
 20
101.62290526438721
 10
13.897940435059809
 20
100.14055663216179
 10
12.380004593292313
 20
98.70190505660507
 10
10.973945624274108
 20
97.30421578858173
 10
9.672117257606715
 20
95.94457762275347
 10
8.466283561886371
 20
94.61893964472307
 10
7.348015451838421
 20
93.32558709823921
 10
6.3119922003835995
 20
92.06728764737139
 10
5.356453836640924
 20
90.84447800199034
 10
4.47537799561502
 20
89.64545449218055
 10
3.6562986638124357
 20
88.46270344758516
 10
2.8958302320735925
 20
87.31684223982076
 10
2.206580203989688
 20
86.22421375522835
 10
1.5920409970324272
 20
85.15016360067847
 10
1.034631685294869
 20
84.06006812581302
 10
0.5216862802583933
 20
82.99234314219481
 10
0.06617945864564945
 20
81.98810720383037
 10
-0.31833478594990083
 20
81.01299813184751
 10
-0.6368893508997076
 20
80.02519371400201
 10
-0.9030706256929761
 20
79.04285236032534
 10
-1.1211091515573344
 20
78.09256315999542
 10
-1.2865942861001258
 20
77.16899132136031
 10
-1.3992503866315928
 20
76.24470196708162
 10
-1.456489352606809
 20
75.3862855597764
 10
-1.4580680543286348
 20
74.51805721186264
 10
-1.3882175853990475
 20
73.6458639465943
 10
-1.2385853660002226
 20
72.76202488098454
 10
-1.0104858584025465
 20
71.8722926754906
 10
-0.7060439229761073
 20
70.98457882129313
 10
-0.3249839818074065
 20
70.10483846306458
 10
0.13397750413076892
 20
69.23885591998274
 10
0.6784239439323301
 20
68.38519289181194
 10
1.3117259716823355
 20
67.54160460862055
 10
2.027258805498491
 20
66.71048868138632
 10
2.820357771114004
 20
65.89388853943024
 10
3.6889311432567524
 20
65.09376369459265
 10
4.633054766699843
 20
64.31219402528437
 10
5.656908630952103
 20
63.5500604659871
 10
6.764955544603254
 20
62.80696801842608
 10
7.962341874941444
 20
62.0806606142236
 10
9.252966813574005
 20
61.36683552765153
 10
10.63833734331763
 20
60.65988113925494
 10
12.119403064035964
 20
59.95470882314755
 10
13.699738740265957
 20
59.247400011430656
 10
15.384969110451323
 20
58.53515331603206
 10
17.18198436906067
 20
57.81628538894678
 10
19.097966036228513
 20
57.09131863900302
 10
21.14608801735818
 20
56.36386508815214
 10
23.34703392912087
 20
55.63661506636883
 10
25.719807066317912
 20
54.906088333176704
 10
28.27926745797157
 20
54.16563564962617
 10
31.04174554232594
 20
53.41006329321413
 10
34.025601210132436
 20
52.636398612585886
 10
37.24982879073218
 20
51.84703918454499
 10
40.73896443635192
 20
51.0503461347511
 10
44.522417777256805
 20
50.253872663755295
 10
48.633431542903
 20
49.462040689376416
 10
53.10870121963279
 20
48.673981681779765
 10
57.975183625472255
 20
47.87990917212582
 10
63.238232964889846
 20
47.07410954215389
 10
68.89301308728182
 20
46.26790002609567
 10
74.93852111674113
 20
45.47755094083758
 10
81.37198179342784
 20
44.711309521138546
 10
88.18354468323196
 20
43.969862552575954
 10
95.3446876166534
 20
43.24683186972465
 10
102.79246860786122
 20
42.53849028481123
 10
110.44984893191744
 20
41.85544673726868
 10
118.26082813846557
 20
41.21481665895871
 10
126.20184289845031
 20
40.63268095654709
 10
134.29212829350814
 20
40.114918229513925
 10
142.55816763359783
 20
39.64634471876764
 10
150.97841819440842
 20
39.207748238458024
 10
159.51572018556237
 20
38.79865640887538
 10
168.16566847818478
 20
38.421815113550686
 10
176.92850074100613
 20
38.06809385003132
 10
185.77526498997761
 20
37.72584829592408
 10
188.74375380550197
 20
37.614612708474404
 10
188.7044356671764
 20
36.565349117188305
 10
194.62486307262068
 20
36.34349745714709
 10
203.51969895950793
 20
36.02540483264344
 10
212.41067913745533
 20
35.73426233181574
 10
221.32438353247582
 20
35.47487163987759
 10
230.2834938558562
 20
35.23839026570312
 10
239.2815115957241
 20
35.014793460233165
 10
248.29679383031856
 20
34.79978886301845
 10
257.3039077988773
 20
34.59677122107303
 10
266.300554602655
 20
34.41624948996157
 10
275.31543638768215
 20
34.26218051555449
 10
284.3732577937928
 20
34.12762416900702
 10
293.4734404916811
 20
33.99958501679015
 10
302.59370281610734
 20
33.86454847099516
 10
311.7343063237218
 20
33.72284449682026
 10
320.8845267105475
 20
33.587982859958146
 10
330.05725238275454
 20
33.46299354910688
 10
339.2522989622637
 20
33.3411710491427
 10
348.4545942005565
 20
33.217143432690065
 10
357.6590980124066
 20
33.08856722427862
 10
366.8654222676852
 20
32.95487891477775
 10
376.0707441741687
 20
32.81861978006933
 10
385.2677551963927
 20
32.68639114074581
 10
394.4641206197256
 20
32.56318096341762
 10
403.6687064585314
 20
32.44442430395095
 10
412.8725873578857
 20
32.322420430709
 10
422.07721757391994
 20
32.194514484354414
 10
431.2839303766973
 20
32.06195283175653
 10
440.48845224475195
 20
31.930615303735223
 10
449.6885764287257
 20
31.805455933904696
 10
458.8902095576095
 20
31.686517253408695
 10
468.0909878576009
 20
31.570679146260076
 10
477.2825687233806
 20
31.452545572297254
 10
486.462323405961
 20
31.327540251397252
 10
495.6346648063043
 20
31.193759020321053
 10
504.80478973823404
 20
31.051575433550923
 10
513.9727825555335
 20
30.90322845021302
 10
523.1311935371896
 20
30.748909524021045
 10
532.276676268535
 20
30.58615349339074
 10
541.4130751137282
 20
30.41125380140464
 10
550.5533048999773
 20
30.22144733767044
 10
559.7137881328965
 20
30.02003606252366
 10
568.8927035467801
 20
29.814463185338113
 10
578.0755392990196
 20
29.61169302550229
 10
587.2616382711485
 20
29.41559489368629
 10
596.4491802645455
 20
29.221743742388966
 10
605.6283568635454
 20
29.022314144853553
 10
614.8039936404423
 20
28.81429564301851
 10
623.9816313035125
 20
28.598707260850247
 10
633.1567878517956
 20
28.382515373833414
 10
642.3204211462262
 20
28.171899198312516
 10
651.4679164962931
 20
27.960602524427983
 10
660.5901832950454
 20
27.739481304818597
 10
669.6976749180997
 20
27.503240761169963
 10
678.8072416064531
 20
27.251148200522152
 10
687.9252681501628
 20
26.991187904328086
 10
697.0299020458547
 20
26.72963306538854
 10
706.0920551880387
 20
26.466012465994737
 10
715.0891234325571
 20
26.192828180938974
 10
724.0217129651544
 20
25.896866399345768
 10
732.9170363962495
 20
25.574442778402712
 10
741.7719146811883
 20
25.239172368770724
 10
750.5400730600613
 20
24.889882752550363
 10
759.2161458918852
 20
24.50241888507371
 10
767.8440634027199
 20
24.065876578994022
 10
776.4531670893228
 20
23.588312575359097
 10
785.028005709446
 20
23.090967248083345
 10
793.5279303432176
 20
22.604762999703723
 10
801.8672447152637
 20
22.111687974787785
 10
810.0384995999403
 20
21.539504284652438
 10
818.1794328933263
 20
20.87532520408402
 10
826.3226714566187
 20
20.208247571409515
 10
834.3845007418112
 20
19.56443920739744
 10
842.3332370719785
 20
18.86444102899719
 10
850.2424201950068
 20
18.074423752065258
 10
858.1317973520601
 20
17.287823084812644
 10
865.9406531237
 20
16.548376315673607
 10
873.6360919012341
 20
15.760125675300003
 10
881.2888051349909
 20
14.839376111995918
 10
888.9894657918677
 20
13.84921530251512
 10
896.6503130216284
 20
12.865595874247063
 10
904.1134053267879
 20
11.8696236466932
 10
911.415734909609
 20
10.738679742284035
 10
918.6760580771889
 20
9.533274133988982
 10
925.7985260512518
 20
8.310202333659618
 10
932.6844821731265
 20
7.1149808890520205
 10
939.2355699501052
 20
5.9243953794729975
 10
945.4312890770368
 20
4.750247321035573
 10
951.2434112009112
 20
3.651623984396238
 10
956.6433255981552
 20
2.59773266253346
 10
961.6163150799734
 20
1.6044747576976164
 10
964.6895871051195
 20
0.9577137577209385
  0
LWPOLYLINE
  5
8C
330
17
100
AcDbEntity
  8
Layer
100
AcDbPolyline
 90
5
 70
0
 10
633.6068803217994
 20
114.97133299001429
 10
629.7679420400963
 20
116.09496676899825
 10
630.8915758190802
 20
119.93390505070143
 10
634.7305141007834
 20
118.81027127171747
 10
633.6068803217994
 20
114.97133299001429
  0
LWPOLYLINE
  5
8D
330
17
100
AcDbEntity
  8
Layer
100
AcDbPolyline
 90
5
 70
0
 10
249.85249898515818
 20
163.0414156576274
 10
245.85921280516223
 20
162.8097575374302
 10
245.62755468496502
 20
166.80304371742614
 10
249.62084086496097
 20
167.03470183762334
 10
249.85249898515818
 20
163.0414156576274
  0
LWPOLYLINE
  5
8E
330
17
100
AcDbEntity
  8
Layer
100
AcDbPolyline
 90
5
 70
0
 10
103.2222340537126
 20
140.01898029451291
 10
99.39671498504647
 20
138.8504753286391
 10
98.22821001917266
 20
142.67599439730526
 10
102.05372908783879
 20
143.84449936317907
 10
103.2222340537126
 20
140.01898029451291
  0
LWPOLYLINE
  5
8F
330
17
100
AcDbEntity
  8
Layer
100
AcDbPolyline
 90
5
 70
0
 10
23.70371331656053
 20
101.91183903231187
 10
22.136082420238502
 20
100.66985136212485
 10
19.031113244770957
 20
104.58892860292993
 10
20.598744141092986
 20
105.83091627311696
 10
23.70371331656053
 20
101.91183903231187
  0
LWPOLYLINE
  5
90
330
17
100
AcDbEntity
  8
Layer
100
AcDbPolyline
 90
5
 70
0
 10
44.022258985503065
 20
55.46888882647621
 10
45.979386658011386
 20
55.057001374006326
 10
44.94966802683667
 20
50.1641821927355
 10
42.99254035432835
 20
50.576069645205386
 10
44.022258985503065
 20
55.46888882647621
  0
LWPOLYLINE
  5
91
330
17
100
AcDbEntity
  8
Layer
100
AcDbPolyline
 90
5
 70
0
 10
138.49872130192315
 20
43.882890037983174
 10
142.49231044309883
 20
43.65651474895216
 10
142.26593515406782
 20
39.6629256077765
 10
138.27234601289214
 20
39.88930089680751
 10
138.49872130192315
 20
43.882890037983174
  0
LINE
  5
92
330
17
100
AcDbEntity
  8
Layer
100
AcDbLine
 10
946.5288738426035
 20
10.150599954852794
 30
0.0
 11
946.3241639998321
 21
9.694426873366737
 31
0.0
  0
LINE
  5
93
330
17
100
AcDbEntity
  8
Layer
100
AcDbLine
 10
945.0550838346215
 20
5.329967546581571
 30
0.0
 11
944.9832604136368
 21
4.835153039722641
 31
0.0
  0
LINE
  5
94
330
17
100
AcDbEntity
  8
Layer
100
AcDbLine
 10
927.8314653139786
 20
17.295774756110518
 30
0.0
 11
927.6397958451263
 21
16.833970885717605
 31
0.0
  0
LINE
  5
95
330
17
100
AcDbEntity
  8
Layer
100
AcDbLine
 10
925.3770446907316
 20
8.88987925602396
 30
0.0
 11
925.2966176873515
 21
8.396390150645445
 31
0.0
  0
LINE
  5
96
330
17
100
AcDbEntity
  8
Layer
100
AcDbLine
 10
890.4005697264744
 20
31.42972781904635
 30
0.0
 11
890.2163978653082
 21
30.96488297874521
 31
0.0
  0
LINE
  5
97
330
17
100
AcDbEntity
  8
Layer
100
AcDbLine
 10
885.8049284530858
 20
14.762625692912707
 30
0.0
 11
885.7280137247564
 21
14.268576986238955
 31
0.0
  0
LWPOLYLINE
  5
98
330
17
100
AcDbEntity
  8
Layer
100
AcDbPolyline
 90
300
 70
1
 10
415.0803184210526
 20
100.0
 10
415.06902898541824
 20
101.07489193747716
 10
415.03516566361213
 20
102.14930923293417
 10
414.978743408724
 20
103.22277745393944
 10
414.89978713523305
 20
104.29482258714594
 10
414.798331708007
 20
105.36497124760216
 10
414.6744219269066
 20
106.43275088778553
 10
414.5281125070028
 20
107.49769000626618
 10
414.3594680544167
 20
108.55931835590866
 10
414.16856303779105
 20
109.61716715151982
 10
413.955481755407
 20
110.67076927685117
 10
413.7203182979603
 20
111.71965949086427
 10
413.4631765070137
 20
112.7633746331681
 10
413.18416992914325
 20
113.80145382853757
 10
412.88342176579937
 20
114.83343869042315
 10
412.5610648189046
 20
115.85887352336138
 10
412.2172414322119
 20
116.87730552419721
 10
411.8521034284499
 20
117.88828498202909
 10
411.4658120422819
 20
118.89136547678868
 10
411.0585378491096
 20
119.88610407636737
 10
410.63046068975143
 20
120.87206153220262
 10
410.18176959103005
 20
121.84880247323775
 10
409.7126626823036
 20
122.8158955981696
 10
409.2233471079769
 20
123.77291386589897
 10
408.7140389360329
 20
124.71943468410001
 10
408.1849630626227
 20
125.65504009582503
 10
407.636353112758
 20
126.5793169640626
 10
407.0684513371485
 20
127.49185715416715
 10
406.4815085052312
 20
128.3922577140798
 10
405.8757837944377
 20
129.28012105226057
 10
405.25154467574845
 20
130.1550551132537
 10
404.6090667955851
 20
131.0166735508083
 10
403.94863385409303
 20
131.86459589847783
 10
403.27053747986736
 20
132.6984477376236
 10
402.5750771011777
 20
133.5178608627473
 10
401.86255981374933
 20
134.32247344408032
 10
401.13330024515807
 20
135.11193018735747
 10
400.3876204159
 20
135.88588249070511
 10
399.62584959719607
 20
136.64398859857363
 10
398.8483241655949
 20
137.38591375264744
 10
398.05538745443897
 20
138.11133033966448
 10
397.2473896022578
 20
138.81991803608128
 10
396.4246873981569
 20
139.51136394951865
 10
395.58764412426956
 20
140.1853627569262
 10
394.73662939534177
 20
140.84161683940442
 10
393.8720189955208
 20
141.4798364136248
 10
392.99419471241947
 20
142.09973965978998
 10
392.10354416852937
 20
142.70105284607746
 10
391.20046065005795
 20
143.2835104495118
 10
390.285342933264
 20
143.84685527321216
 10
389.35859510836974
 20
144.39083855996327
 10
388.42062640112556
 20
144.91522010205938
 10
387.4718509921077
 20
145.4197683473735
 10
386.5126878338277
 20
145.90426050160409
 10
385.5435604657347
 20
146.36848262665484
 10
384.5648968271924
 20
146.8122297351037
 10
383.57712906851305
 20
147.2353058807196
 10
382.58069336013205
 20
147.6375242449867
 10
381.5760297000075
 20
148.0187072195983
 10
380.56358171932925
 20
148.37868648488347
 10
379.543796486624
 20
148.71730308413254
 10
378.5171243103423
 20
149.0344074937877
 10
377.48401854001526
 20
149.32985968946855
 10
376.44493536606797
 20
149.60352920780275
 10
375.4003336183786
 20
149.85529520403512
 10
374.35067456367227
 20
150.08504650538922
 10
373.29642170183837
 20
150.29268166015817
 10
372.23804056126227
 20
150.47810898250276
 10
371.175998493261
 20
150.64124659293742
 10
370.110764465714
 20
150.78202245448594
 10
369.04280885598047
 20
150.90037440449083
 10
367.9726032431933
 20
150.99625018206274
 10
366.9006202000237
 20
151.06960745115728
 10
365.82733308400594
 20
151.12041381926952
 10
364.7532158285162
 20
151.14864685173757
 10
363.6787427334968
 20
151.15429408164903
 10
362.6043882560189
 20
151.13735301534624
 10
361.5306268007755
 20
151.09783113352708
 10
360.4579325105976
 20
151.03574588794203
 10
359.386779057086
 20
150.95112469368775
 10
358.31763943145177
 20
150.84400491710142
 10
357.250985735656
 20
150.7144338592609
 10
356.1872889739432
 20
150.5624687350977
 10
355.12701884485915
 20
150.38817664813263
 10
354.07064353384493
 20
150.19163456084485
 10
353.0186295064998
 20
149.97292926068718
 10
351.9714413026027
 20
149.73215732176337
 10
350.92954133098505
 20
149.46942506218363
 10
349.8933896653436
 20
149.1848484971176
 10
348.863443841085
 20
148.87855328756524
 10
347.8401586532911
 20
148.55067468486854
 10
346.82398595589416
 20
148.20135747098826
 10
345.815374462151
 20
147.8307558945724
 10
344.81476954650356
 20
147.43903360284423
 10
343.8226130479145
 20
147.02636356934033
 10
342.83934307476324
 20
146.5929280175304
 10
341.86539381138977
 20
146.13891834035238
 10
340.90119532637095
 20
145.66453501569882
 10
339.94717338261444
 20
145.16998751789146
 10
339.00374924935386
 20
144.65549422518325
 10
338.071339516128
 20
144.12128232332867
 10
337.15035590882655
 20
143.56758770526488
 10
336.24120510788384
 20
142.99465486694814
 10
335.34428856869994
 20
142.40273679939108
 10
334.46000234436923
 20
141.79209487694916
 10
333.58873691079475
 20
141.16299874190508
 10
332.7308769942648
 20
140.5157261854023
 10
331.88680140156885
 20
139.85056302478023
 10
331.0568828527269
 20
139.1678029773656
 10
330.241487816407
 20
138.46774753077483
 10
329.4409763481028
 20
137.75070580978576
 10
328.6557019311434
 20
137.01699443983682
 10
327.88601132060506
 20
136.2669374072142
 10
327.1322443901936
 20
135.50086591598847
 10
326.39473398216614
 20
134.71911824176442
 10
325.6738057603571
 20
133.9220395823079
 10
324.9697780663742
 20
133.10998190511617
 10
324.282961779028
 20
132.28330379199923
 10
323.6136601770563
 20
131.44237028073982
 10
322.96216880520495
 20
130.5875527039033
 10
322.32877534372346
 20
129.71922852486748
 10
321.71375948133374
 20
128.83778117114548
 10
321.1173927917271
 20
127.94359986507502
 10
320.5399386136454
 20
127.03707945194856
 10
319.98165193459766
 20
126.11862022566098
 10
319.4427792782649
 20
125.18862775195095
 10
318.9235585956422
 20
124.24751268931443
 10
318.42421915996647
 20
123.29569060766967
 10
317.94498146547545
 20
122.33358180485301
 10
317.486057130044
 20
121.36161112102732
 10
317.04764880173934
 20
120.38020775108447
 10
316.62995006933755
 20
119.38980505512502
 10
316.23314537684024
 20
118.39084036709853
 10
315.857409942029
 20
117.38375480168921
 10
315.50290967909456
 20
116.36899305953213
 10
315.16980112537334
 20
115.34700323084591
 10
314.85823137222536
 20
114.31823659756874
 10
314.5683380000825
 20
113.2831474340849
 10
314.3002490176971
 20
112.24219280663002
 10
314.0540828056168
 20
111.19583237146352
 10
313.829948063911
 20
110.14452817189735
 10
313.62794376417185
 20
109.08874443427058
 10
313.4481591058116
 20
108.02894736296024
 10
313.2906734766742
 20
106.9656049345185
 10
313.15555641798005
 20
105.89918669102745
 10
313.0428675936186
 20
104.83016353276254
 10
312.95265676380234
 20
103.75900751025623
 10
312.8849637630942
 20
102.68619161585377
 10
312.8398184828177
 20
101.6121895748531
 10
312.8172408578576
 20
100.53747563632119
 10
312.8172408578576
 20
99.46252436367882
 10
312.8398184828177
 20
98.3878104251469
 10
312.8849637630942
 20
97.31380838414624
 10
312.95265676380234
 20
96.24099248974377
 10
313.0428675936186
 20
95.16983646723745
 10
313.15555641798005
 20
94.10081330897255
 10
313.2906734766742
 20
93.03439506548152
 10
313.4481591058116
 20
91.97105263703978
 10
313.62794376417185
 20
90.91125556572943
 10
313.829948063911
 20
89.85547182810265
 10
314.0540828056168
 20
88.80416762853648
 10
314.3002490176971
 20
87.75780719336998
 10
314.5683380000825
 20
86.71685256591512
 10
314.85823137222536
 20
85.68176340243127
 10
315.16980112537334
 20
84.6529967691541
 10
315.50290967909456
 20
83.63100694046788
 10
315.857409942029
 20
82.6162451983108
 10
316.23314537684024
 20
81.60915963290148
 10
316.62995006933755
 20
80.61019494487496
 10
317.04764880173934
 20
79.61979224891552
 10
317.486057130044
 20
78.63838887897269
 10
317.94498146547545
 20
77.666418195147
 10
318.42421915996647
 20
76.70430939233034
 10
318.9235585956422
 20
75.75248731068558
 10
319.4427792782649
 20
74.81137224804907
 10
319.98165193459766
 20
73.881379774339
 10
320.5399386136454
 20
72.96292054805143
 10
321.1173927917271
 20
72.056400134925
 10
321.71375948133374
 20
71.16221882885452
 10
322.32877534372346
 20
70.28077147513254
 10
322.96216880520495
 20
69.41244729609672
 10
323.6136601770563
 20
68.55762971926018
 10
324.282961779028
 20
67.71669620800077
 10
324.96977806637426
 20
66.89001809488381
 10
325.6738057603571
 20
66.07796041769211
 10
326.39473398216614
 20
65.2808817582356
 10
327.1322443901936
 20
64.49913408401156
 10
327.88601132060506
 20
63.73306259278585
 10
328.6557019311434
 20
62.9830055601632
 10
329.4409763481028
 20
62.249294190214265
 10
330.241487816407
 20
61.532252469225185
 10
331.0568828527269
 20
60.83219702263441
 10
331.88680140156885
 20
60.14943697521977
 10
332.7308769942648
 20
59.48427381459774
 10
333.5887369107947
 20
58.837001258094936
 10
334.4600023443692
 20
58.20790512305085
 10
335.3442885686999
 20
57.59726320060893
 10
336.24120510788384
 20
57.00534513305186
 10
337.15035590882655
 20
56.4324122947351
 10
338.071339516128
 20
55.87871767667133
 10
339.00374924935386
 20
55.34450577481675
 10
339.94717338261444
 20
54.830012482108536
 10
340.90119532637095
 20
54.33546498430118
 10
341.86539381138977
 20
53.861081659647624
 10
342.83934307476324
 20
53.407071982469624
 10
343.8226130479145
 20
52.97363643065968
 10
344.81476954650356
 20
52.56096639715579
 10
345.81537446215094
 20
52.169244105427616
 10
346.82398595589416
 20
51.79864252901175
 10
347.8401586532911
 20
51.449325315131475
 10
348.863443841085
 20
51.12144671243476
 10
349.8933896653436
 20
50.815151502882394
 10
350.92954133098505
 20
50.530574937816354
 10
351.9714413026027
 20
50.267842678236626
 10
353.0186295064998
 20
50.02707073931281
 10
354.070643533845
 20
49.808365439155146
 10
355.12701884485915
 20
49.61182335186736
 10
356.1872889739432
 20
49.43753126490232
 10
357.250985735656
 20
49.28556614073911
 10
358.31763943145177
 20
49.15599508289857
 10
359.386779057086
 20
49.04887530631226
 10
360.4579325105975
 20
48.96425411205797
 10
361.5306268007755
 20
48.90216886647292
 10
362.6043882560189
 20
48.86264698465377
 10
363.6787427334968
 20
48.84570591835096
 10
364.75321582851615
 20
48.85135314826244
 10
365.82733308400594
 20
48.87958618073048
 10
366.9006202000237
 20
48.93039254884272
 10
367.9726032431933
 20
49.003749817937255
 10
369.04280885598047
 20
49.09962559550915
 10
370.11076446571406
 20
49.21797754551405
 10
371.175998493261
 20
49.35875340706257
 10
372.23804056126227
 20
49.52189101749725
 10
373.29642170183837
 20
49.70731833984185
 10
374.35067456367227
 20
49.91495349461077
 10
375.4003336183786
 20
50.144704795964884
 10
376.44493536606797
 20
50.396470792197256
 10
377.48401854001526
 20
50.670140310531444
 10
378.5171243103423
 20
50.965592506212275
 10
379.54379648662393
 20
51.282696915867454
 10
380.56358171932925
 20
51.621313515116526
 10
381.5760297000075
 20
51.9812927804017
 10
382.58069336013205
 20
52.362475755013286
 10
383.57712906851305
 20
52.7646941192804
 10
384.5648968271924
 20
53.18777026489631
 10
385.54356046573474
 20
53.63151737334518
 10
386.5126878338277
 20
54.095739498395936
 10
387.47185099210776
 20
54.58023165262651
 10
388.42062640112556
 20
55.08477989794062
 10
389.3585951083697
 20
55.609161440036715
 10
390.28534293326396
 20
56.15314472678781
 10
391.2004606500579
 20
56.7164895504882
 10
392.10354416852937
 20
57.29894715392253
 10
392.99419471241947
 20
57.900260340210004
 10
393.87201899552076
 20
58.52016358637518
 10
394.73662939534177
 20
59.15838316059558
 10
395.5876441242695
 20
59.814637243073804
 10
396.4246873981569
 20
60.488636050481354
 10
397.2473896022578
 20
61.18008196391871
 10
398.05538745443897
 20
61.888669660335516
 10
398.8483241655949
 20
62.61408624735257
 10
399.62584959719607
 20
63.356011401426365
 10
400.3876204159001
 20
64.11411750929491
 10
401.13330024515807
 20
64.88806981264253
 10
401.8625598137493
 20
65.67752655591966
 10
402.5750771011777
 20
66.48213913725269
 10
403.27053747986736
 20
67.30155226237639
 10
403.94863385409303
 20
68.13540410152216
 10
404.6090667955851
 20
68.98332644919171
 10
405.25154467574845
 20
69.84494488674629
 10
405.8757837944377
 20
70.71987894773943
 10
406.4815085052312
 20
71.60774228592021
 10
407.0684513371485
 20
72.50814284583285
 10
407.636353112758
 20
73.4206830359374
 10
408.1849630626227
 20
74.34495990417497
 10
408.7140389360329
 20
75.28056531589999
 10
409.2233471079769
 20
76.22708613410103
 10
409.7126626823036
 20
77.18410440183041
 10
410.18176959103005
 20
78.15119752676226
 10
410.63046068975143
 20
79.12793846779736
 10
411.0585378491096
 20
80.11389592363261
 10
411.46581204228187
 20
81.1086345232113
 10
411.8521034284499
 20
82.1117150179709
 10
412.2172414322119
 20
83.12269447580277
 10
412.5610648189046
 20
84.1411264766386
 10
412.88342176579937
 20
85.16656130957684
 10
413.18416992914325
 20
86.19854617146243
 10
413.4631765070137
 20
87.2366253668319
 10
413.7203182979603
 20
88.28034050913573
 10
413.955481755407
 20
89.32923072314884
 10
414.16856303779105
 20
90.38283284848019
 10
414.3594680544167
 20
91.44068164409134
 10
414.5281125070028
 20
92.50230999373382
 10
414.6744219269066
 20
93.56724911221448
 10
414.798331708007
 20
94.63502875239782
 10
414.899787135233
 20
95.70517741285403
 10
414.978743408724
 20
96.77722254606053
 10
415.03516566361213
 20
97.85069076706581
 10
415.06902898541824
 20
98.92510806252282
 10
415.0803184210526
 20
99.99999999999999
  0
LINE
  5
99
330
17
100
AcDbEntity
  8
Layer
100
AcDbLine
 10
693.0412509777204
 20
99.99999999999996
 30
0.0
 11
697.0412509777204
 21
99.99999999999996
 31
0.0
  0
LINE
  5
9A
330
17
100
AcDbEntity
  8
Layer
100
AcDbLine
 10
15.749637709520528
 20
100.00000000000004
 30
0.0
 11
11.749637709520528
 21
100.00000000000004
 31
0.0
  0
LINE
  5
9B
330
17
100
AcDbEntity
  8
Layer
100
AcDbLine
 10
155.50796036316052
 20
100.00000000000003
 30
0.0
 11
144.50796036316052
 21
100.00000000000003
 31
0.0
  0
LWPOLYLINE
  5
9C
330
17
100
AcDbEntity
  8
Layer
100
AcDbPolyline
 90
5
 70
0
 10
145.00796036316052
 20
95.00000000000003
 10
145.00796036316052
 20
105.00000000000003
 10
155.00796036316052
 20
105.00000000000003
 10
155.00796036316052
 20
95.00000000000003
 10
145.00796036316052
 20
95.00000000000003
  0
LINE
  5
9D
330
17
100
AcDbEntity
  8
Layer
100
AcDbLine
 10
359.8954443436205
 20
100.0
 30
0.0
 11
348.8954443436205
 21
100.0
 31
0.0
  0
LWPOLYLINE
  5
9E
330
17
100
AcDbEntity
  8
Layer
100
AcDbPolyline
 90
5
 70
0
 10
349.3954443436205
 20
95.0
 10
349.3954443436205
 20
105.0
 10
359.3954443436205
 20
105.0
 10
359.3954443436205
 20
95.0
 10
349.3954443436205
 20
95.0
  0
LINE
  5
9F
330
17
100
AcDbEntity
  8
Layer
100
AcDbLine
 10
564.2829283240806
 20
99.99999999999997
 30
0.0
 11
553.2829283240806
 21
99.99999999999997
 31
0.0
  0
LWPOLYLINE
  5
A0
330
17
100
AcDbEntity
  8
Layer
100
AcDbPolyline
 90
5
 70
0
 10
553.7829283240806
 20
94.99999999999997
 10
553.7829283240806
 20
104.99999999999997
 10
563.7829283240806
 20
104.99999999999997
 10
563.7829283240806
 20
94.99999999999997
 10
553.7829283240806
 20
94.99999999999997
  0
LINE
  5
A1
330
17
100
AcDbEntity
  8
Layer
100
AcDbLine
 10
0.6021777880621357
 20
76.15134291335397
 30
0.0
 11
-3.3860332208455475
 21
76.45821902586124
 31
0.0
  0
LINE
  5
A2
330
17
100
AcDbEntity
  8
Layer
100
AcDbLine
 10
614.2464784522626
 20
28.93398730466666
 30
0.0
 11
618.2346894611703
 21
28.62711119215939
 31
0.0
  0
LINE
  5
A3
330
17
100
AcDbEntity
  8
Layer
100
AcDbLine
 10
954.7286020998888
 20
2.7353157073425365
 30
0.0
 11
958.7168131087965
 21
2.428439594835268
 31
0.0
  0
LINE
  5
A4
330
17
100
AcDbEntity
  8
Layer
100
AcDbLine
 10
363.9473684210526
 20
151.155
 30
0.0
 11
363.9473684210526
 21
151.655
 31
0.0
  0
LINE
  5
A5
330
17
100
AcDbEntity
  8
Layer
100
AcDbLine
 10
363.9473684210526
 20
48.845000000000006
 30
0.0
 11
363.9473684210526
 21
48.345000000000006
 31
0.0
  0
LINE
  5
A6
330
17
100
AcDbEntity
  8
Layer
100
AcDbLine
 10
415.0803184210526
 20
100.0
 30
0.0
 11
415.5803184210526
 21
100.0
 31
0.0
  0
LINE
  5
A7
330
17
100
AcDbEntity
  8
Layer
100
AcDbLine
 10
312.8144184210526
 20
100.0
 30
0.0
 11
312.3144184210526
 21
100.0
 31
0.0
  0
LINE
  5
A8
330
17
100
AcDbEntity
  8
Layer
100
AcDbLine
 10
103.9473684210526
 20
142.40282430261655
 30
0.0
 11
103.9473684210526
 21
146.40282430261655
 31
0.0
  0
LINE
  5
A9
330
17
100
AcDbEntity
  8
Layer
100
AcDbLine
 10
103.9473684210526
 20
44.43547243378713
 30
0.0
 11
103.9473684210526
 21
40.43547243378713
 31
0.0
  0
LINE
  5
AA
330
17
100
AcDbEntity
  8
Layer
100
AcDbLine
 10
103.9473684210526
 20
68.328942807553
 30
0.0
 11
103.9473684210526
 21
57.32894280755301
 31
0.0
  0
LWPOLYLINE
  5
AB
330
17
100
AcDbEntity
  8
Layer
100
AcDbPolyline
 90
5
 70
0
 10
108.9473684210526
 20
57.82894280755301
 10
98.9473684210526
 20
57.82894280755301
 10
98.9473684210526
 20
67.828942807553
 10
108.9473684210526
 20
67.828942807553
 10
108.9473684210526
 20
57.82894280755301
  0
LINE
  5
AC
330
17
100
AcDbEntity
  8
Layer
100
AcDbLine
 10
103.9473684210526
 20
98.91914836820183
 30
0.0
 11
103.9473684210526
 21
87.91914836820183
 31
0.0
  0
LWPOLYLINE
  5
AD
330
17
100
AcDbEntity
  8
Layer
100
AcDbPolyline
 90
5
 70
0
 10
108.9473684210526
 20
88.41914836820183
 10
98.9473684210526
 20
88.41914836820183
 10
98.9473684210526
 20
98.41914836820183
 10
108.9473684210526
 20
98.41914836820183
 10
108.9473684210526
 20
88.41914836820183
  0
LINE
  5
AE
330
17
100
AcDbEntity
  8
Layer
100
AcDbLine
 10
103.9473684210526
 20
129.50935392885066
 30
0.0
 11
103.9473684210526
 21
118.50935392885066
 31
0.0
  0
LWPOLYLINE
  5
AF
330
17
100
AcDbEntity
  8
Layer
100
AcDbPolyline
 90
5
 70
0
 10
108.9473684210526
 20
119.00935392885066
 10
98.9473684210526
 20
119.00935392885066
 10
98.9473684210526
 20
129.00935392885066
 10
108.9473684210526
 20
129.00935392885066
 10
108.9473684210526
 20
119.00935392885066
  0
LINE
  5
B0
330
17
100
AcDbEntity
  8
Layer
100
AcDbLine
 10
593.9473684210526
 20
127.96650874373105
 30
0.0
 11
593.9473684210526
 21
131.96650874373105
 31
0.0
  0
LINE
  5
B1
330
17
100
AcDbEntity
  8
Layer
100
AcDbLine
 10
593.9473684210526
 20
31.274530342606838
 30
0.0
 11
593.9473684210526
 21
27.274530342606838
 31
0.0
  0
LINE
  5
B2
330
17
100
AcDbEntity
  8
Layer
100
AcDbLine
 10
593.9473684210526
 20
54.91292602283168
 30
0.0
 11
593.9473684210526
 21
43.91292602283168
 31
0.0
  0
LWPOLYLINE
  5
B3
330
17
100
AcDbEntity
  8
Layer
100
AcDbPolyline
 90
5
 70
0
 10
598.9473684210526
 20
44.41292602283168
 10
588.9473684210526
 20
44.41292602283168
 10
588.9473684210526
 20
54.41292602283168
 10
598.9473684210526
 20
54.41292602283168
 10
598.9473684210526
 20
44.41292602283168
  0
LINE
  5
B4
330
17
100
AcDbEntity
  8
Layer
100
AcDbLine
 10
593.9473684210526
 20
85.12051954316894
 30
0.0
 11
593.9473684210526
 21
74.12051954316894
 31
0.0
  0
LWPOLYLINE
  5
B5
330
17
100
AcDbEntity
  8
Layer
100
AcDbPolyline
 90
5
 70
0
 10
598.9473684210526
 20
74.62051954316894
 10
588.9473684210526
 20
74.62051954316894
 10
588.9473684210526
 20
84.62051954316894
 10
598.9473684210526
 20
84.62051954316894
 10
598.9473684210526
 20
74.62051954316894
  0
LINE
  5
B6
330
17
100
AcDbEntity
  8
Layer
100
AcDbLine
 10
593.9473684210526
 20
115.32811306350621
 30
0.0
 11
593.9473684210526
 21
104.32811306350621
 31
0.0
  0
LWPOLYLINE
  5
B7
330
17
100
AcDbEntity
  8
Layer
100
AcDbPolyline
 90
5
 70
0
 10
598.9473684210526
 20
104.82811306350621
 10
588.9473684210526
 20
104.82811306350621
 10
588.9473684210526
 20
114.82811306350621
 10
598.9473684210526
 20
114.82811306350621
 10
598.9473684210526
 20
104.82811306350621
  0
ENDSEC
  0
SECTION
  2
OBJECTS
  0
DICTIONARY
  5
A
330
0
100
AcDbDictionary
280
0
281
1
  3
ACAD_COLOR
350
B
  3
ACAD_GROUP
350
C
  3
ACAD_LAYOUT
350
D
  3
ACAD_MATERIAL
350
E
  3
ACAD_MLEADERSTYLE
350
F
  3
ACAD_MLINESTYLE
350
10
  3
ACAD_PLOTSETTINGS
350
11
  3
ACAD_PLOTSTYLENAME
350
12
  3
ACAD_SCALELIST
350
14
  3
ACAD_TABLESTYLE
350
15
  3
ACAD_VISUALSTYLE
350
16
  3
EZDXF_META
350
2D
  0
DICTIONARY
  5
B
330
A
100
AcDbDictionary
280
0
281
1
  0
DICTIONARY
  5
C
330
A
100
AcDbDictionary
280
0
281
1
  0
DICTIONARY
  5
D
330
A
100
AcDbDictionary
280
0
281
1
  3
Model
350
1A
  3
Layout1
350
1E
  0
DICTIONARY
  5
E
330
A
100
AcDbDictionary
280
0
281
1
  3
ByBlock
350
1F
  3
ByLayer
350
20
  3
Global
350
21
  0
DICTIONARY
  5
F
330
A
100
AcDbDictionary
280
0
281
1
  3
Standard
350
2C
  0
DICTIONARY
  5
10
330
A
100
AcDbDictionary
280
0
281
1
  3
Standard
350
22
  0
DICTIONARY
  5
11
330
A
100
AcDbDictionary
280
0
281
1
  0
ACDBDICTIONARYWDFLT
  5
12
330
A
100
AcDbDictionary
280
0
281
1
  3
Normal
350
13
100
AcDbDictionaryWithDefault
340
13
  0
ACDBPLACEHOLDER
  5
13
330
12
  0
DICTIONARY
  5
14
330
A
100
AcDbDictionary
280
0
281
1
  0
DICTIONARY
  5
15
330
A
100
AcDbDictionary
280
0
281
1
  0
DICTIONARY
  5
16
330
A
100
AcDbDictionary
280
0
281
1
  3
2dWireframe
350
5A
  3
Basic
350
5B
  3
Brighten
350
5C
  3
ColorChange
350
5D
  3
Conceptual
350
5E
  3
Dim
350
5F
  3
EdgeColorOff
350
60
  3
Facepattern
350
61
  3
Flat
350
62
  3
FlatWithEdges
350
63
  3
Gouraud
350
64
  3
GouraudWithEdges
350
65
  3
Hidden
350
66
  3
JitterOff
350
67
  3
Linepattern
350
68
  3
Modeling
350
69
  3
OverhangOff
350
6A
  3
Realistic
350
6B
  3
Shaded
350
6C
  3
Shaded with edges
350
6D
  3
Shades of Gray
350
6E
  3
Sketchy
350
6F
  3
Thicken
350
70
  3
Wireframe
350
71
  3
X-Ray
350
72
  0
LAYOUT
  5
1A
330
D
100
AcDbPlotSettings
  1

  2
Adobe PDF
  4
A3
  6

 40
7.5
 41
20.0
 42
7.5
 43
20.0
 44
420.0
 45
297.0
 46
0.0
 47
0.0
 48
0.0
 49
0.0
140
0.0
141
0.0
142
1.0
143
1.0
 70
1024
 72
1
 73
0
 74
5
  7

 75
16
 76
0
 77
2
 78
300
147
1.0
148
0.0
149
0.0
100
AcDbLayout
  1
Model
 70
1
 71
0
 10
0.0
 20
0.0
 11
420.0
 21
297.0
 12
0.0
 22
0.0
 32
0.0
 14
1e+20
 24
1e+20
 34
1e+20
 15
-1e+20
 25
-1e+20
 35
-1e+20
146
0.0
 13
0.0
 23
0.0
 33
0.0
 16
1.0
 26
0.0
 36
0.0
 17
0.0
 27
1.0
 37
0.0
 76
1
330
17
  0
LAYOUT
  5
1E
330
D
100
AcDbPlotSettings
  1

  2
Adobe PDF
  4
A3
  6

 40
7.5
 41
20.0
 42
7.5
 43
20.0
 44
420.0
 45
297.0
 46
0.0
 47
0.0
 48
0.0
 49
0.0
140
0.0
141
0.0
142
1.0
143
1.0
 70
0
 72
1
 73
0
 74
5
  7

 75
16
 76
0
 77
2
 78
300
147
1.0
148
0.0
149
0.0
100
AcDbLayout
  1
Layout1
 70
1
 71
1
 10
0.0
 20
0.0
 11
420.0
 21
297.0
 12
0.0
 22
0.0
 32
0.0
 14
1e+20
 24
1e+20
 34
1e+20
 15
-1e+20
 25
-1e+20
 35
-1e+20
146
0.0
 13
0.0
 23
0.0
 33
0.0
 16
1.0
 26
0.0
 36
0.0
 17
0.0
 27
1.0
 37
0.0
 76
1
330
1B
  0
MATERIAL
  5
1F
102
{ACAD_REACTORS
330
E
102
}
330
E
100
AcDbMaterial
  1
ByBlock
  2

 70
0
 40
1.0
 71
1
 41
1.0
 91
-1023410177
 42
1.0
 72
1
  3

 73
1
 74
1
 75
1
 44
0.5
 73
0
 45
1.0
 46
1.0
 77
1
  4

 78
1
 79
1
170
1
 48
1.0
171
1
  6

172
1
173
1
174
1
140
1.0
141
1.0
175
1
  7

176
1
177
1
178
1
143
1.0
179
1
  8

270
1
271
1
272
1
145
1.0
146
1.0
273
1
  9

274
1
275
1
276
1
 42
1.0
 72
1
  3

 73
1
 74
1
 75
1
 94
63
  0
MATERIAL
  5
20
102
{ACAD_REACTORS
330
E
102
}
330
E
100
AcDbMaterial
  1
ByLayer
  2

 70
0
 40
1.0
 71
1
 41
1.0
 91
-1023410177
 42
1.0
 72
1
  3

 73
1
 74
1
 75
1
 44
0.5
 73
0
 45
1.0
 46
1.0
 77
1
  4

 78
1
 79
1
170
1
 48
1.0
171
1
  6

172
1
173
1
174
1
140
1.0
141
1.0
175
1
  7

176
1
177
1
178
1
143
1.0
179
1
  8

270
1
271
1
272
1
145
1.0
146
1.0
273
1
  9

274
1
275
1
276
1
 42
1.0
 72
1
  3

 73
1
 74
1
 75
1
 94
63
  0
MATERIAL
  5
21
102
{ACAD_REACTORS
330
E
102
}
330
E
100
AcDbMaterial
  1
Global
  2

 70
0
 40
1.0
 71
1
 41
1.0
 91
-1023410177
 42
1.0
 72
1
  3

 73
1
 74
1
 75
1
 44
0.5
 73
0
 45
1.0
 46
1.0
 77
1
  4

 78
1
 79
1
170
1
 48
1.0
171
1
  6

172
1
173
1
174
1
140
1.0
141
1.0
175
1
  7

176
1
177
1
178
1
143
1.0
179
1
  8

270
1
271
1
272
1
145
1.0
146
1.0
273
1
  9

274
1
275
1
276
1
 42
1.0
 72
1
  3

 73
1
 74
1
 75
1
 94
63
  0
MLINESTYLE
  5
22
102
{ACAD_REACTORS
330
10
102
}
330
10
100
AcDbMlineStyle
  2
Standard
 70
0
  3

 62
256
 51
90.0
 52
90.0
 71
2
 49
0.5
 62
256
  6
BYLAYER
 49
-0.5
 62
256
  6
BYLAYER
  0
MLEADERSTYLE
  5
2C
102
{ACAD_REACTORS
330
F
102
}
330
F
100
AcDbMLeaderStyle
179
2
170
2
171
1
172
0
 90
2
 40
0.0
 41
0.0
173
1
 91
-1056964608
 92
-2
290
1
 42
2.0
291
1
 43
8.0
  3
Standard
 44
4.0
300

342
29
174
1
175
1
176
0
178
1
 93
-1056964608
 45
4.0
292
0
297
0
 46
4.0
 94
-1056964608
 47
1.0
 49
1.0
140
1.0
294
1
141
0.0
177
0
142
1.0
295
0
296
0
143
3.75
271
0
272
9
273
9
  0
DICTIONARY
  5
2D
330
A
100
AcDbDictionary
281
1
  3
CREATED_BY_EZDXF
350
2E
  3
WRITTEN_BY_EZDXF
350
BA
  0
DICTIONARYVAR
  5
2E
330
2D
100
DictionaryVariables
280
0
  1
1.1.0 @ 2024-03-26T01:33:48.508536+00:00
  0
VISUALSTYLE
  5
5A
102
{ACAD_REACTORS
330
16
102
}
330
16
100
AcDbVisualStyle
  2
2dWireframe
 70
4
 90
0
 40
0.6
 62
7
290
0
291
0
  0
VISUALSTYLE
  5
5B
102
{ACAD_REACTORS
330
16
102
}
330
16
100
AcDbVisualStyle
  2
Basic
 70
7
 90
1
 40
0.6
 62
7
290
0
291
1
  0
VISUALSTYLE
  5
5C
102
{ACAD_REACTORS
330
16
102
}
330
16
100
AcDbVisualStyle
  2
Brighten
 70
12
 90
2
 40
0.6
 62
7
290
0
291
1
  0
VISUALSTYLE
  5
5D
102
{ACAD_REACTORS
330
16
102
}
330
16
100
AcDbVisualStyle
  2
ColorChange
 70
16
 90
2
 40
0.6
 62
8
290
0
291
1
  0
VISUALSTYLE
  5
5E
102
{ACAD_REACTORS
330
16
102
}
330
16
100
AcDbVisualStyle
  2
Conceptual
 70
9
 90
3
 40
0.6
 62
7
290
0
291
0
  0
VISUALSTYLE
  5
5F
102
{ACAD_REACTORS
330
16
102
}
330
16
100
AcDbVisualStyle
  2
Dim
 70
11
 90
2
 40
0.6
 62
7
290
0
291
1
  0
VISUALSTYLE
  5
60
102
{ACAD_REACTORS
330
16
102
}
330
16
100
AcDbVisualStyle
  2
EdgeColorOff
 70
22
 90
2
 40
0.6
 62
7
290
0
291
1
  0
VISUALSTYLE
  5
61
102
{ACAD_REACTORS
330
16
102
}
330
16
100
AcDbVisualStyle
  2
Facepattern
 70
15
 90
2
 40
0.6
 62
7
290
0
291
1
  0
VISUALSTYLE
  5
62
102
{ACAD_REACTORS
330
16
102
}
330
16
100
AcDbVisualStyle
  2
Flat
 70
0
 90
2
 40
0.6
 62
7
290
0
291
1
  0
VISUALSTYLE
  5
63
102
{ACAD_REACTORS
330
16
102
}
330
16
100
AcDbVisualStyle
  2
FlatWithEdges
 70
1
 90
2
 40
0.6
 62
7
290
0
291
1
  0
VISUALSTYLE
  5
64
102
{ACAD_REACTORS
330
16
102
}
330
16
100
AcDbVisualStyle
  2
Gouraud
 70
2
 90
2
 40
0.6
 62
7
290
0
291
1
  0
VISUALSTYLE
  5
65
102
{ACAD_REACTORS
330
16
102
}
330
16
100
AcDbVisualStyle
  2
GouraudWithEdges
 70
3
 90
2
 40
0.6
 62
7
290
0
291
1
  0
VISUALSTYLE
  5
66
102
{ACAD_REACTORS
330
16
102
}
330
16
100
AcDbVisualStyle
  2
Hidden
 70
6
 90
1
 40
0.6
 62
7
290
0
291
0
  0
VISUALSTYLE
  5
67
102
{ACAD_REACTORS
330
16
102
}
330
16
100
AcDbVisualStyle
  2
JitterOff
 70
20
 90
2
 40
0.6
 62
7
290
0
291
1
  0
VISUALSTYLE
  5
68
102
{ACAD_REACTORS
330
16
102
}
330
16
100
AcDbVisualStyle
  2
Linepattern
 70
14
 90
2
 40
0.6
 62
7
290
0
291
1
  0
VISUALSTYLE
  5
69
102
{ACAD_REACTORS
330
16
102
}
330
16
100
AcDbVisualStyle
  2
Modeling
 70
10
 90
2
 40
0.6
 62
7
290
0
291
0
  0
VISUALSTYLE
  5
6A
102
{ACAD_REACTORS
330
16
102
}
330
16
100
AcDbVisualStyle
  2
OverhangOff
 70
21
 90
2
 40
0.6
 62
7
290
0
291
1
  0
VISUALSTYLE
  5
6B
102
{ACAD_REACTORS
330
16
102
}
330
16
100
AcDbVisualStyle
  2
Realistic
 70
8
 90
2
 40
0.6
 62
7
290
0
291
0
  0
VISUALSTYLE
  5
6C
102
{ACAD_REACTORS
330
16
102
}
330
16
100
AcDbVisualStyle
  2
Shaded
 70
27
 90
2
 40
0.6
 62
7
290
0
291
0
  0
VISUALSTYLE
  5
6D
102
{ACAD_REACTORS
330
16
102
}
330
16
100
AcDbVisualStyle
  2
Shaded with edges
 70
26
 90
2
 40
0.6
 62
7
290
0
291
0
  0
VISUALSTYLE
  5
6E
102
{ACAD_REACTORS
330
16
102
}
330
16
100
AcDbVisualStyle
  2
Shades of Gray
 70
23
 90
2
 40
0.6
 62
7
290
0
291
0
  0
VISUALSTYLE
  5
6F
102
{ACAD_REACTORS
330
16
102
}
330
16
100
AcDbVisualStyle
  2
Sketchy
 70
24
 90
1
 40
0.6
 62
7
290
0
291
0
  0
VISUALSTYLE
  5
70
102
{ACAD_REACTORS
330
16
102
}
330
16
100
AcDbVisualStyle
  2
Thicken
 70
13
 90
2
 40
0.6
 62
7
290
0
291
1
  0
VISUALSTYLE
  5
71
102
{ACAD_REACTORS
330
16
102
}
330
16
100
AcDbVisualStyle
  2
Wireframe
 70
5
 90
0
 40
0.6
 62
7
290
0
291
0
  0
VISUALSTYLE
  5
72
102
{ACAD_REACTORS
330
16
102
}
330
16
100
AcDbVisualStyle
  2
X-Ray
 70
25
 90
2
 40
0.5
 62
7
290
0
291
0
  0
DICTIONARYVAR
  5
BA
330
2D
100
DictionaryVariables
280
0
  1
1.1.0 @ 2024-03-26T01:33:48.528337+00:00
  0
ENDSEC
  0
EOF
