  0
SECTION
  2
HEADER
  9
$ACADVER
  1
AC1021
  9
$ACADMAINTVER
 70
25
  9
$DWGCODEPAGE
  3
ANSI_1252
  9
$LASTSAVEDBY
  1
ezdxf
  9
$INSBASE
 10
0.0
 20
0.0
 30
0.0
  9
$EXTMIN
 10
1e+20
 20
1e+20
 30
1e+20
  9
$EXTMAX
 10
-1e+20
 20
-1e+20
 30
-1e+20
  9
$LIMMIN
 10
0.0
 20
0.0
  9
$LIMMAX
 10
420.0
 20
297.0
  9
$ORTHOMODE
 70
0
  9
$REGENMODE
 70
1
  9
$FILLMODE
 70
1
  9
$QTEXTMODE
 70
0
  9
$MIRRTEXT
 70
1
  9
$LTSCALE
 40
1.0
  9
$ATTMODE
 70
1
  9
$TEXTSIZE
 40
2.5
  9
$TRACEWID
 40
1.0
  9
$TEXTSTYLE
  7
OpenSans
  9
$CLAYER
  8
0
  9
$CELTYPE
  6
ByLayer
  9
$CECOLOR
 62
256
  9
$CELTSCALE
 40
1.0
  9
$DISPSILH
 70
0
  9
$DIMSCALE
 40
1.0
  9
$DIMASZ
 40
0.175
  9
$DIMEXO
 40
0.125
  9
$DIMDLI
 40
3.75
  9
$DIMRND
 40
0.0
  9
$DIMDLE
 40
0.0
  9
$DIMEXE
 40
0.375
  9
$DIMTP
 40
0.0
  9
$DIMTM
 40
0.0
  9
$DIMTXT
 40
0.25
  9
$DIMCEN
 40
2.5
  9
$DIMTSZ
 40
0.0
  9
$DIMTOL
 70
0
  9
$DIMLIM
 70
0
  9
$DIMTIH
 70
0
  9
$DIMTOH
 70
0
  9
$DIMSE1
 70
0
  9
$DIMSE2
 70
0
  9
$DIMTAD
 70
1
  9
$DIMZIN
 70
12
  9
$DIMBLK
  1
ARCHTICK
  9
$DIMASO
 70
1
  9
$DIMSHO
 70
1
  9
$DIMPOST
  1

  9
$DIMAPOST
  1

  9
$DIMALT
 70
0
  9
$DIMALTD
 70
3
  9
$DIMALTF
 40
0.03937007874
  9
$DIMLFAC
 40
100.0
  9
$DIMTOFL
 70
1
  9
$DIMTVP
 40
0.0
  9
$DIMTIX
 70
0
  9
$DIMSOXD
 70
0
  9
$DIMSAH
 70
0
  9
$DIMBLK1
  1

  9
$DIMBLK2
  1

  9
$DIMSTYLE
  2
EZDXF
  9
$DIMCLRD
 70
0
  9
$DIMCLRE
 70
0
  9
$DIMCLRT
 70
0
  9
$DIMTFAC
 40
0.5
  9
$DIMGAP
 40
0.1
  9
$DIMJUST
 70
0
  9
$DIMSD1
 70
0
  9
$DIMSD2
 70
0
  9
$DIMTOLJ
 70
0
  9
$DIMTZIN
 70
8
  9
$DIMALTZ
 70
0
  9
$DIMALTTZ
 70
0
  9
$DIMUPT
 70
1
  9
$DIMDEC
 70
2
  9
$DIMTDEC
 70
2
  9
$DIMALTU
 70
2
  9
$DIMALTTD
 70
3
  9
$DIMTXSTY
  7
OpenSansCondensed-Light
  9
$DIMAUNIT
 70
0
  9
$DIMADEC
 70
2
  9
$DIMALTRND
 40
0.0
  9
$DIMAZIN
 70
3
  9
$DIMDSEP
 70
46
  9
$DIMATFIT
 70
3
  9
$DIMFRAC
 70
0
  9
$DIMLDRBLK
  1

  9
$DIMLUNIT
 70
2
  9
$DIMLWD
 70
-2
  9
$DIMLWE
 70
-2
  9
$DIMTMOVE
 70
2
  9
$DIMFXL
 40
1.0
  9
$DIMFXLON
 70
0
  9
$DIMJOGANG
 40
0.785398163397
  9
$DIMTFILL
 70
0
  9
$DIMTFILLCLR
 70
0
  9
$DIMARCSYM
 70
0
  9
$DIMLTYPE
  6

  9
$DIMLTEX1
  6

  9
$DIMLTEX2
  6

  9
$LUNITS
 70
2
  9
$LUPREC
 70
4
  9
$SKETCHINC
 40
1.0
  9
$FILLETRAD
 40
10.0
  9
$AUNITS
 70
0
  9
$AUPREC
 70
2
  9
$MENU
  1
.
  9
$ELEVATION
 40
0.0
  9
$PELEVATION
 40
0.0
  9
$THICKNESS
 40
0.0
  9
$LIMCHECK
 70
0
  9
$CHAMFERA
 40
0.0
  9
$CHAMFERB
 40
0.0
  9
$CHAMFERC
 40
0.0
  9
$CHAMFERD
 40
0.0
  9
$SKPOLY
 70
0
  9
$TDCREATE
 40
2460396.440162037
  9
$TDUCREATE
 40
2458532.153996898
  9
$TDUPDATE
 40
2460396.440162037
  9
$TDUUPDATE
 40
2458532.1544311
  9
$TDINDWG
 40
0.0
  9
$TDUSRTIMER
 40
0.0
  9
$USRTIMER
 70
1
  9
$ANGBASE
 50
0.0
  9
$ANGDIR
 70
0
  9
$PDMODE
 70
0
  9
$PDSIZE
 40
0.0
  9
$PLINEWID
 40
0.0
  9
$SPLFRAME
 70
0
  9
$SPLINETYPE
 70
6
  9
$SPLINESEGS
 70
8
  9
$HANDSEED
  5
BB
  9
$SURFTAB1
 70
6
  9
$SURFTAB2
 70
6
  9
$SURFTYPE
 70
6
  9
$SURFU
 70
6
  9
$SURFV
 70
6
  9
$UCSBASE
  2

  9
$UCSNAME
  2

  9
$UCSORG
 10
0.0
 20
0.0
 30
0.0
  9
$UCSXDIR
 10
1.0
 20
0.0
 30
0.0
  9
$UCSYDIR
 10
0.0
 20
1.0
 30
0.0
  9
$UCSORTHOREF
  2

  9
$UCSORTHOVIEW
 70
0
  9
$UCSORGTOP
 10
0.0
 20
0.0
 30
0.0
  9
$UCSORGBOTTOM
 10
0.0
 20
0.0
 30
0.0
  9
$UCSORGLEFT
 10
0.0
 20
0.0
 30
0.0
  9
$UCSORGRIGHT
 10
0.0
 20
0.0
 30
0.0
  9
$UCSORGFRONT
 10
0.0
 20
0.0
 30
0.0
  9
$UCSORGBACK
 10
0.0
 20
0.0
 30
0.0
  9
$PUCSBASE
  2

  9
$PUCSNAME
  2

  9
$PUCSORG
 10
0.0
 20
0.0
 30
0.0
  9
$PUCSXDIR
 10
1.0
 20
0.0
 30
0.0
  9
$PUCSYDIR
 10
0.0
 20
1.0
 30
0.0
  9
$PUCSORTHOREF
  2

  9
$PUCSORTHOVIEW
 70
0
  9
$PUCSORGTOP
 10
0.0
 20
0.0
 30
0.0
  9
$PUCSORGBOTTOM
 10
0.0
 20
0.0
 30
0.0
  9
$PUCSORGLEFT
 10
0.0
 20
0.0
 30
0.0
  9
$PUCSORGRIGHT
 10
0.0
 20
0.0
 30
0.0
  9
$PUCSORGFRONT
 10
0.0
 20
0.0
 30
0.0
  9
$PUCSORGBACK
 10
0.0
 20
0.0
 30
0.0
  9
$USERI1
 70
0
  9
$USERI2
 70
0
  9
$USERI3
 70
0
  9
$USERI4
 70
0
  9
$USERI5
 70
0
  9
$USERR1
 40
0.0
  9
$USERR2
 40
0.0
  9
$USERR3
 40
0.0
  9
$USERR4
 40
0.0
  9
$USERR5
 40
0.0
  9
$WORLDVIEW
 70
1
  9
$SHADEDGE
 70
3
  9
$SHADEDIF
 70
70
  9
$TILEMODE
 70
1
  9
$MAXACTVP
 70
64
  9
$PINSBASE
 10
0.0
 20
0.0
 30
0.0
  9
$PLIMCHECK
 70
0
  9
$PEXTMIN
 10
1e+20
 20
1e+20
 30
1e+20
  9
$PEXTMAX
 10
-1e+20
 20
-1e+20
 30
-1e+20
  9
$PLIMMIN
 10
0.0
 20
0.0
  9
$PLIMMAX
 10
420.0
 20
297.0
  9
$UNITMODE
 70
0
  9
$VISRETAIN
 70
1
  9
$PLINEGEN
 70
0
  9
$PSLTSCALE
 70
1
  9
$TREEDEPTH
 70
3020
  9
$CMLSTYLE
  2
Standard
  9
$CMLJUST
 70
0
  9
$CMLSCALE
 40
20.0
  9
$PROXYGRAPHICS
 70
1
  9
$MEASUREMENT
 70
1
  9
$CELWEIGHT
370
-1
  9
$ENDCAPS
280
0
  9
$JOINSTYLE
280
0
  9
$LWDISPLAY
290
0
  9
$INSUNITS
 70
6
  9
$HYPERLINKBASE
  1

  9
$STYLESHEET
  1

  9
$XEDIT
290
1
  9
$CEPSNTYPE
380
0
  9
$PSTYLEMODE
290
1
  9
$FINGERPRINTGUID
  2
{F24617E3-D593-4667-ADAF-D58FF5A35DE4}
  9
$VERSIONGUID
  2
{C8F8DDCC-42D0-4EC8-ABF8-1037FDDE11F0}
  9
$EXTNAMES
290
1
  9
$PSVPSCALE
 40
0.0
  9
$OLESTARTUP
290
0
  9
$SORTENTS
280
127
  9
$INDEXCTL
280
0
  9
$HIDETEXT
280
1
  9
$XCLIPFRAME
290
0
  9
$HALOGAP
280
0
  9
$OBSCOLOR
 70
257
  9
$OBSLTYPE
280
0
  9
$INTERSECTIONDISPLAY
280
0
  9
$INTERSECTIONCOLOR
 70
257
  9
$DIMASSOC
280
2
  9
$PROJECTNAME
  1

  9
$CAMERADISPLAY
290
0
  9
$LENSLENGTH
 40
50.0
  9
$CAMERAHEIGHT
 40
0.0
  9
$STEPSPERSEC
 40
24.0
  9
$STEPSIZE
 40
100.0
  9
$3DDWFPREC
 40
2.0
  9
$PSOLWIDTH
 40
0.005
  9
$PSOLHEIGHT
 40
0.08
  9
$LOFTANG1
 40
1.570796326795
  9
$LOFTANG2
 40
1.570796326795
  9
$LOFTMAG1
 40
0.0
  9
$LOFTMAG2
 40
0.0
  9
$LOFTPARAM
 70
7
  9
$LOFTNORMALS
280
1
  9
$LATITUDE
 40
37.795
  9
$LONGITUDE
 40
-122.394
  9
$NORTHDIRECTION
 40
0.0
  9
$TIMEZONE
 70
-8000
  9
$LIGHTGLYPHDISPLAY
280
1
  9
$TILEMODELIGHTSYNCH
280
1
  9
$CMATERIAL
347
20
  9
$SOLIDHIST
280
0
  9
$SHOWHIST
280
1
  9
$DWFFRAME
280
2
  9
$DGNFRAME
280
2
  9
$REALWORLDSCALE
290
1
  9
$INTERFERECOLOR
 62
256
  9
$CSHADOW
280
0
  9
$SHADOWPLANELOCATION
 40
0.0
  0
ENDSEC
  0
SECTION
  2
CLASSES
  0
CLASS
  1
ACDBDICTIONARYWDFLT
  2
AcDbDictionaryWithDefault
  3
ObjectDBX Classes
 90
0
 91
0
280
0
281
0
  0
CLASS
  1
SUN
  2
AcDbSun
  3
SCENEOE
 90
1153
 91
0
280
0
281
0
  0
CLASS
  1
VISUALSTYLE
  2
AcDbVisualStyle
  3
ObjectDBX Classes
 90
4095
 91
0
280
0
281
0
  0
CLASS
  1
MATERIAL
  2
AcDbMaterial
  3
ObjectDBX Classes
 90
1153
 91
0
280
0
281
0
  0
CLASS
  1
SCALE
  2
AcDbScale
  3
ObjectDBX Classes
 90
1153
 91
0
280
0
281
0
  0
CLASS
  1
TABLESTYLE
  2
AcDbTableStyle
  3
ObjectDBX Classes
 90
4095
 91
0
280
0
281
0
  0
CLASS
  1
MLEADERSTYLE
  2
AcDbMLeaderStyle
  3
ACDB_MLEADERSTYLE_CLASS
 90
4095
 91
0
280
0
281
0
  0
CLASS
  1
DICTIONARYVAR
  2
AcDbDictionaryVar
  3
ObjectDBX Classes
 90
0
 91
0
280
0
281
0
  0
CLASS
  1
CELLSTYLEMAP
  2
AcDbCellStyleMap
  3
ObjectDBX Classes
 90
1152
 91
0
280
0
281
0
  0
CLASS
  1
MENTALRAYRENDERSETTINGS
  2
AcDbMentalRayRenderSettings
  3
SCENEOE
 90
1024
 91
0
280
0
281
0
  0
CLASS
  1
ACDBDETAILVIEWSTYLE
  2
AcDbDetailViewStyle
  3
ObjectDBX Classes
 90
1025
 91
0
280
0
281
0
  0
CLASS
  1
ACDBSECTIONVIEWSTYLE
  2
AcDbSectionViewStyle
  3
ObjectDBX Classes
 90
1025
 91
0
280
0
281
0
  0
CLASS
  1
RASTERVARIABLES
  2
AcDbRasterVariables
  3
ISM
 90
0
 91
0
280
0
281
0
  0
CLASS
  1
LAYOUT
  2
AcDbLayout
  3
ObjectDBX Classes
 90
0
 91
0
280
0
281
0
  0
CLASS
  1
ACDBPLACEHOLDER
  2
AcDbPlaceHolder
  3
ObjectDBX Classes
 90
0
 91
0
280
0
281
0
  0
ENDSEC
  0
SECTION
  2
TABLES
  0
TABLE
  2
VPORT
  5
8
330
0
100
AcDbSymbolTable
 70
1
  0
VPORT
  5
23
330
8
100
AcDbSymbolTableRecord
100
AcDbViewportTableRecord
  2
*Active
 70
0
 10
0.0
 20
0.0
 11
1.0
 21
1.0
 12
0.0
 22
0.0
 13
0.0
 23
0.0
 14
0.5
 24
0.5
 15
0.5
 25
0.5
 16
0.0
 26
0.0
 36
1.0
 17
0.0
 27
0.0
 37
0.0
 40
1000.0
 41
1.34
 42
50.0
 43
0.0
 44
0.0
 50
0.0
 51
0.0
 71
0
 72
1000
 73
1
 74
3
 75
0
 76
0
 77
0
 78
0
281
0
 65
0
146
0.0
  0
ENDTAB
  0
TABLE
  2
LTYPE
  5
2
330
0
100
AcDbSymbolTable
 70
21
  0
LTYPE
  5
24
330
2
100
AcDbSymbolTableRecord
100
AcDbLinetypeTableRecord
  2
ByBlock
 70
0
  3

 72
65
 73
0
 40
0.0
  0
LTYPE
  5
25
330
2
100
AcDbSymbolTableRecord
100
AcDbLinetypeTableRecord
  2
ByLayer
 70
0
  3

 72
65
 73
0
 40
0.0
  0
LTYPE
  5
26
330
2
100
AcDbSymbolTableRecord
100
AcDbLinetypeTableRecord
  2
Continuous
 70
0
  3

 72
65
 73
0
 40
0.0
  0
LTYPE
  5
2F
330
2
100
AcDbSymbolTableRecord
100
AcDbLinetypeTableRecord
  2
CENTER
 70
0
  3
Center ____ _ ____ _ ____ _ ____ _ ____ _ ____
 72
65
 73
4
 40
5.08
 49
3.175
 74
0
 49
-0.635
 74
0
 49
0.635
 74
0
 49
-0.635
 74
0
  0
LTYPE
  5
30
330
2
100
AcDbSymbolTableRecord
100
AcDbLinetypeTableRecord
  2
CENTERX2
 70
0
  3
Center (2x) ________  __  ________  __  ________
 72
65
 73
4
 40
8.89
 49
6.35
 74
0
 49
-0.635
 74
0
 49
1.27
 74
0
 49
-0.635
 74
0
  0
LTYPE
  5
31
330
2
100
AcDbSymbolTableRecord
100
AcDbLinetypeTableRecord
  2
CENTER2
 70
0
  3
Center (.5x) ____ _ ____ _ ____ _ ____ _ ____
 72
65
 73
4
 40
2.54
 49
1.587
 74
0
 49
-0.318
 74
0
 49
0.318
 74
0
 49
-0.318
 74
0
  0
LTYPE
  5
32
330
2
100
AcDbSymbolTableRecord
100
AcDbLinetypeTableRecord
  2
DASHED
 70
0
  3
Dashed __ __ __ __ __ __ __ __ __ __ __ __ __ _
 72
65
 73
2
 40
1.524
 49
1.27
 74
0
 49
-0.254
 74
0
  0
LTYPE
  5
33
330
2
100
AcDbSymbolTableRecord
100
AcDbLinetypeTableRecord
  2
DASHEDX2
 70
0
  3
Dashed (2x) ____  ____  ____  ____  ____  ____
 72
65
 73
2
 40
3.048
 49
2.54
 74
0
 49
-0.508
 74
0
  0
LTYPE
  5
34
330
2
100
AcDbSymbolTableRecord
100
AcDbLinetypeTableRecord
  2
DASHED2
 70
0
  3
Dashed (.5x) _ _ _ _ _ _ _ _ _ _ _ _ _ _
 72
65
 73
2
 40
0.762
 49
0.635
 74
0
 49
-0.127
 74
0
  0
LTYPE
  5
35
330
2
100
AcDbSymbolTableRecord
100
AcDbLinetypeTableRecord
  2
PHANTOM
 70
0
  3
Phantom ______  __  __  ______  __  __  ______
 72
65
 73
6
 40
6.35
 49
3.175
 74
0
 49
-0.635
 74
0
 49
0.635
 74
0
 49
-0.635
 74
0
 49
0.635
 74
0
 49
-0.635
 74
0
  0
LTYPE
  5
36
330
2
100
AcDbSymbolTableRecord
100
AcDbLinetypeTableRecord
  2
PHANTOMX2
 70
0
  3
Phantom (2x)____________    ____    ____    ____________
 72
65
 73
6
 40
10.795
 49
6.35
 74
0
 49
-0.635
 74
0
 49
1.27
 74
0
 49
-0.635
 74
0
 49
1.27
 74
0
 49
-0.635
 74
0
  0
LTYPE
  5
37
330
2
100
AcDbSymbolTableRecord
100
AcDbLinetypeTableRecord
  2
PHANTOM2
 70
0
  3
Phantom (.5x) ___ _ _ ___ _ _ ___ _ _ ___ _ _ ___
 72
65
 73
6
 40
3.175
 49
1.587
 74
0
 49
-0.318
 74
0
 49
0.318
 74
0
 49
-0.318
 74
0
 49
0.318
 74
0
 49
-0.318
 74
0
  0
LTYPE
  5
38
330
2
100
AcDbSymbolTableRecord
100
AcDbLinetypeTableRecord
  2
DASHDOT
 70
0
  3
Dash dot __ . __ . __ . __ . __ . __ . __ . __
 72
65
 73
4
 40
3.556
 49
2.54
 74
0
 49
-0.508
 74
0
 49
0.0
 74
0
 49
-0.508
 74
0
  0
LTYPE
  5
39
330
2
100
AcDbSymbolTableRecord
100
AcDbLinetypeTableRecord
  2
DASHDOTX2
 70
0
  3
Dash dot (2x) ____  .  ____  .  ____  .  ____
 72
65
 73
4
 40
6.096
 49
5.08
 74
0
 49
-0.508
 74
0
 49
0.0
 74
0
 49
-0.508
 74
0
  0
LTYPE
  5
3A
330
2
100
AcDbSymbolTableRecord
100
AcDbLinetypeTableRecord
  2
DASHDOT2
 70
0
  3
Dash dot (.5x) _ . _ . _ . _ . _ . _ . _ . _
 72
65
 73
4
 40
1.778
 49
1.27
 74
0
 49
-0.254
 74
0
 49
0.0
 74
0
 49
-0.254
 74
0
  0
LTYPE
  5
3B
330
2
100
AcDbSymbolTableRecord
100
AcDbLinetypeTableRecord
  2
DOT
 70
0
  3
Dot .  .  .  .  .  .  .  .  .  .  .  .  .  .  .  .
 72
65
 73
2
 40
0.508
 49
0.0
 74
0
 49
-0.508
 74
0
  0
LTYPE
  5
3C
330
2
100
AcDbSymbolTableRecord
100
AcDbLinetypeTableRecord
  2
DOTX2
 70
0
  3
Dot (2x) .    .    .    .    .    .    .    . 
 72
65
 73
2
 40
1.016
 49
0.0
 74
0
 49
-1.016
 74
0
  0
LTYPE
  5
3D
330
2
100
AcDbSymbolTableRecord
100
AcDbLinetypeTableRecord
  2
DOT2
 70
0
  3
Dot (.5) . . . . . . . . . . . . . . . . . . . 
 72
65
 73
2
 40
0.254
 49
0.0
 74
0
 49
-0.254
 74
0
  0
LTYPE
  5
3E
330
2
100
AcDbSymbolTableRecord
100
AcDbLinetypeTableRecord
  2
DIVIDE
 70
0
  3
Divide __ . . __ . . __ . . __ . . __ . . __
 72
65
 73
6
 40
4.064
 49
2.54
 74
0
 49
-0.508
 74
0
 49
0.0
 74
0
 49
-0.508
 74
0
 49
0.0
 74
0
 49
-0.508
 74
0
  0
LTYPE
  5
3F
330
2
100
AcDbSymbolTableRecord
100
AcDbLinetypeTableRecord
  2
DIVIDEX2
 70
0
  3
Divide (2x) ____  . .  ____  . .  ____  . .  ____
 72
65
 73
6
 40
6.604
 49
5.08
 74
0
 49
-0.508
 74
0
 49
0.0
 74
0
 49
-0.508
 74
0
 49
0.0
 74
0
 49
-0.508
 74
0
  0
LTYPE
  5
40
330
2
100
AcDbSymbolTableRecord
100
AcDbLinetypeTableRecord
  2
DIVIDE2
 70
0
  3
Divide(.5x) _ . _ . _ . _ . _ . _ . _ . _
 72
65
 73
6
 40
2.032
 49
1.27
 74
0
 49
-0.254
 74
0
 49
0.0
 74
0
 49
-0.254
 74
0
 49
0.0
 74
0
 49
-0.254
 74
0
  0
ENDTAB
  0
TABLE
  2
LAYER
  5
1
330
0
100
AcDbSymbolTable
 70
3
  0
LAYER
  5
27
330
1
100
AcDbSymbolTableRecord
100
AcDbLayerTableRecord
  2
0
 70
0
 62
7
  6
Continuous
370
-3
390
13
347
21
  0
LAYER
  5
28
330
1
100
AcDbSymbolTableRecord
100
AcDbLayerTableRecord
  2
Defpoints
 70
0
 62
7
  6
Continuous
290
0
370
-3
390
13
347
21
  0
LAYER
  5
8A
330
1
100
AcDbSymbolTableRecord
100
AcDbLayerTableRecord
  2
Layer
 70
0
 62
1
  6
Continuous
370
50
390
13
347
21
  0
ENDTAB
  0
TABLE
  2
STYLE
  5
5
330
0
100
AcDbSymbolTable
 70
26
  0
STYLE
  5
29
330
5
100
AcDbSymbolTableRecord
100
AcDbTextStyleTableRecord
  2
Standard
 70
0
 40
0.0
 41
1.0
 50
0.0
 71
0
 42
2.5
  3
txt
  4

  0
STYLE
  5
41
330
5
100
AcDbSymbolTableRecord
100
AcDbTextStyleTableRecord
  2
OpenSans-Light
 70
0
 40
0.0
 41
1.0
 50
0.0
 71
0
 42
2.5
  3
OpenSans-Light.ttf
  4

  0
STYLE
  5
42
330
5
100
AcDbSymbolTableRecord
100
AcDbTextStyleTableRecord
  2
OpenSans-Light-Italic
 70
0
 40
0.0
 41
1.0
 50
0.0
 71
0
 42
2.5
  3
OpenSans-LightItalic.ttf
  4

  0
STYLE
  5
43
330
5
100
AcDbSymbolTableRecord
100
AcDbTextStyleTableRecord
  2
OpenSans
 70
0
 40
0.0
 41
1.0
 50
0.0
 71
0
 42
2.5
  3
OpenSans-Regular.ttf
  4

  0
STYLE
  5
44
330
5
100
AcDbSymbolTableRecord
100
AcDbTextStyleTableRecord
  2
OpenSans-Italic
 70
0
 40
0.0
 41
1.0
 50
0.0
 71
0
 42
2.5
  3
OpenSans-Italic.ttf
  4

  0
STYLE
  5
45
330
5
100
AcDbSymbolTableRecord
100
AcDbTextStyleTableRecord
  2
OpenSans-SemiBold
 70
0
 40
0.0
 41
1.0
 50
0.0
 71
0
 42
2.5
  3
OpenSans-SemiBold.ttf
  4

  0
STYLE
  5
46
330
5
100
AcDbSymbolTableRecord
100
AcDbTextStyleTableRecord
  2
OpenSans-SemiBoldItalic
 70
0
 40
0.0
 41
1.0
 50
0.0
 71
0
 42
2.5
  3
OpenSans-SemiBoldItalic.ttf
  4

  0
STYLE
  5
47
330
5
100
AcDbSymbolTableRecord
100
AcDbTextStyleTableRecord
  2
OpenSans-Bold
 70
0
 40
0.0
 41
1.0
 50
0.0
 71
0
 42
2.5
  3
OpenSans-Bold.ttf
  4

  0
STYLE
  5
48
330
5
100
AcDbSymbolTableRecord
100
AcDbTextStyleTableRecord
  2
OpenSans-BoldItalic
 70
0
 40
0.0
 41
1.0
 50
0.0
 71
0
 42
2.5
  3
OpenSans-BoldItalic.ttf
  4

  0
STYLE
  5
49
330
5
100
AcDbSymbolTableRecord
100
AcDbTextStyleTableRecord
  2
OpenSans-ExtraBold
 70
0
 40
0.0
 41
1.0
 50
0.0
 71
0
 42
2.5
  3
OpenSans-ExtraBold.ttf
  4

  0
STYLE
  5
4A
330
5
100
AcDbSymbolTableRecord
100
AcDbTextStyleTableRecord
  2
OpenSans-ExtraBoldItalic
 70
0
 40
0.0
 41
1.0
 50
0.0
 71
0
 42
2.5
  3
OpenSans-ExtraBoldItalic.ttf
  4

  0
STYLE
  5
4B
330
5
100
AcDbSymbolTableRecord
100
AcDbTextStyleTableRecord
  2
OpenSansCondensed-Bold
 70
0
 40
0.0
 41
1.0
 50
0.0
 71
0
 42
2.5
  3
OpenSansCondensed-Bold.ttf
  4

  0
STYLE
  5
4C
330
5
100
AcDbSymbolTableRecord
100
AcDbTextStyleTableRecord
  2
OpenSansCondensed-Light
 70
0
 40
0.0
 41
1.0
 50
0.0
 71
0
 42
2.5
  3
OpenSansCondensed-Light.ttf
  4

  0
STYLE
  5
4D
330
5
100
AcDbSymbolTableRecord
100
AcDbTextStyleTableRecord
  2
OpenSansCondensed-Italic
 70
0
 40
0.0
 41
1.0
 50
0.0
 71
0
 42
2.5
  3
OpenSansCondensed-LightItalic.ttf
  4

  0
STYLE
  5
4E
330
5
100
AcDbSymbolTableRecord
100
AcDbTextStyleTableRecord
  2
LiberationSans
 70
0
 40
0.0
 41
1.0
 50
0.0
 71
0
 42
2.5
  3
LiberationSans-Regular.ttf
  4

  0
STYLE
  5
4F
330
5
100
AcDbSymbolTableRecord
100
AcDbTextStyleTableRecord
  2
LiberationSans-Bold
 70
0
 40
0.0
 41
1.0
 50
0.0
 71
0
 42
2.5
  3
LiberationSans-Bold.ttf
  4

  0
STYLE
  5
50
330
5
100
AcDbSymbolTableRecord
100
AcDbTextStyleTableRecord
  2
LiberationSans-BoldItalic
 70
0
 40
0.0
 41
1.0
 50
0.0
 71
0
 42
2.5
  3
LiberationSans-BoldItalic.ttf
  4

  0
STYLE
  5
51
330
5
100
AcDbSymbolTableRecord
100
AcDbTextStyleTableRecord
  2
LiberationSans-Italic
 70
0
 40
0.0
 41
1.0
 50
0.0
 71
0
 42
2.5
  3
LiberationSans-Italic.ttf
  4

  0
STYLE
  5
52
330
5
100
AcDbSymbolTableRecord
100
AcDbTextStyleTableRecord
  2
LiberationSerif
 70
0
 40
0.0
 41
1.0
 50
0.0
 71
0
 42
2.5
  3
LiberationSerif-Regular.ttf
  4

  0
STYLE
  5
53
330
5
100
AcDbSymbolTableRecord
100
AcDbTextStyleTableRecord
  2
LiberationSerif-Bold
 70
0
 40
0.0
 41
1.0
 50
0.0
 71
0
 42
2.5
  3
LiberationSerif-Bold.ttf
  4

  0
STYLE
  5
54
330
5
100
AcDbSymbolTableRecord
100
AcDbTextStyleTableRecord
  2
LiberationSerif-BoldItalic
 70
0
 40
0.0
 41
1.0
 50
0.0
 71
0
 42
2.5
  3
LiberationSerif-BoldItalic.ttf
  4

  0
STYLE
  5
55
330
5
100
AcDbSymbolTableRecord
100
AcDbTextStyleTableRecord
  2
LiberationSerif-Italic
 70
0
 40
0.0
 41
1.0
 50
0.0
 71
0
 42
2.5
  3
LiberationSerif-Italic.ttf
  4

  0
STYLE
  5
56
330
5
100
AcDbSymbolTableRecord
100
AcDbTextStyleTableRecord
  2
LiberationMono
 70
0
 40
0.0
 41
1.0
 50
0.0
 71
0
 42
2.5
  3
LiberationMono-Regular.ttf
  4

  0
STYLE
  5
57
330
5
100
AcDbSymbolTableRecord
100
AcDbTextStyleTableRecord
  2
LiberationMono-Bold
 70
0
 40
0.0
 41
1.0
 50
0.0
 71
0
 42
2.5
  3
LiberationMono-Bold.ttf
  4

  0
STYLE
  5
58
330
5
100
AcDbSymbolTableRecord
100
AcDbTextStyleTableRecord
  2
LiberationMono-BoldItalic
 70
0
 40
0.0
 41
1.0
 50
0.0
 71
0
 42
2.5
  3
LiberationMono-BoldItalic.ttf
  4

  0
STYLE
  5
59
330
5
100
AcDbSymbolTableRecord
100
AcDbTextStyleTableRecord
  2
LiberationMono-Italic
 70
0
 40
0.0
 41
1.0
 50
0.0
 71
0
 42
2.5
  3
LiberationMono-Italic.ttf
  4

  0
ENDTAB
  0
TABLE
  2
VIEW
  5
7
330
0
100
AcDbSymbolTable
 70
0
  0
ENDTAB
  0
TABLE
  2
UCS
  5
6
330
0
100
AcDbSymbolTable
 70
0
  0
ENDTAB
  0
TABLE
  2
APPID
  5
3
330
0
100
AcDbSymbolTable
 70
3
  0
APPID
  5
2A
330
3
100
AcDbSymbolTableRecord
100
AcDbRegAppTableRecord
  2
ACAD
 70
0
  0
APPID
  5
B8
330
3
100
AcDbSymbolTableRecord
100
AcDbRegAppTableRecord
  2
HATCHBACKGROUNDCOLOR
 70
0
  0
APPID
  5
B9
330
3
100
AcDbSymbolTableRecord
100
AcDbRegAppTableRecord
  2
EZDXF
 70
0
  0
ENDTAB
  0
TABLE
  2
DIMSTYLE
  5
4
330
0
100
AcDbSymbolTable
 70
12
100
AcDbDimStyleTable
  0
DIMSTYLE
105
2B
330
4
100
AcDbSymbolTableRecord
100
AcDbDimStyleTableRecord
  2
Standard
 70
0
 40
1.0
 41
2.5
 42
0.625
 43
3.75
 44
1.25
 45
0.0
 46
0.0
 47
0.0
 48
0.0
 49
2.5
140
2.5
141
2.5
142
0.0
143
0.03937007874
144
1.0
145
0.0
146
1.0
147
0.625
148
0.0
 69
0
 70
0
 71
0
 72
0
 73
0
 74
0
 75
0
 76
0
 77
1
 78
8
 79
3
170
0
171
3
172
1
173
0
174
0
175
0
176
0
177
0
178
0
179
2
271
2
272
2
273
2
274
3
275
0
276
0
277
2
278
44
279
0
280
0
281
0
282
0
283
0
284
8
285
0
286
0
288
0
289
3
290
0
371
-2
372
-2
  0
DIMSTYLE
105
73
330
4
100
AcDbSymbolTableRecord
100
AcDbDimStyleTableRecord
  2
EZDXF
 70
0
 40
1.0
 41
0.175
 42
0.125
 43
3.75
 44
0.375
 45
0.0
 46
0.0
 47
0.0
 48
0.0
 49
2.5
140
0.25
141
2.5
142
0.0
143
0.03937007874
144
100.0
145
0.0
146
0.5
147
0.1
148
0.0
 69
0
 70
0
 71
0
 72
0
 73
0
 74
0
 75
0
 76
0
 77
1
 78
12
 79
3
170
0
171
3
172
1
173
0
174
0
175
0
176
0
177
0
178
0
179
2
271
2
272
2
273
2
274
3
275
0
276
0
277
2
278
46
279
2
280
0
281
0
282
0
283
0
284
8
285
0
286
0
288
1
289
3
290
0
340
4C
342
74
371
-2
372
-2
  0
DIMSTYLE
105
7C
330
4
100
AcDbSymbolTableRecord
100
AcDbDimStyleTableRecord
  2
EZ_M_100_H25_CM
 70
0
 40
1.0
 41
0.25
 42
0.125
 43
3.75
 44
0.375
 45
0.0
 46
0.0
 47
0.0
 48
0.0
 49
2.5
140
0.25
141
2.5
142
0.125
143
0.03937007874
144
100.0
145
0.0
146
0.5
147
0.1
148
0.0
 69
0
 70
0
 71
0
 72
0
 73
0
 74
0
 75
0
 76
0
 77
1
 78
12
 79
3
170
0
171
3
172
1
173
0
174
0
175
0
176
0
177
0
178
0
179
2
271
2
272
2
273
2
274
3
275
0
276
0
277
2
278
46
279
2
280
0
281
0
282
0
283
0
284
8
285
0
286
0
288
1
289
3
290
0
340
4C
371
-2
372
-2
  0
DIMSTYLE
105
7D
330
4
100
AcDbSymbolTableRecord
100
AcDbDimStyleTableRecord
  2
EZ_M_50_H25_CM
 70
0
 40
1.0
 41
0.125
 42
0.0625
 43
3.75
 44
0.1875
 45
0.0
 46
0.0
 47
0.0
 48
0.0
 49
2.5
140
0.125
141
2.5
142
0.0625
143
0.03937007874
144
100.0
145
0.0
146
0.5
147
0.05
148
0.0
 69
0
 70
0
 71
0
 72
0
 73
0
 74
0
 75
0
 76
0
 77
1
 78
12
 79
3
170
0
171
3
172
1
173
0
174
0
175
0
176
0
177
0
178
0
179
2
271
2
272
2
273
2
274
3
275
0
276
0
277
2
278
46
279
2
280
0
281
0
282
0
283
0
284
8
285
0
286
0
288
1
289
3
290
0
340
4C
371
-2
372
-2
  0
DIMSTYLE
105
7E
330
4
100
AcDbSymbolTableRecord
100
AcDbDimStyleTableRecord
  2
EZ_M_25_H25_CM
 70
0
 40
1.0
 41
0.0625
 42
0.03125
 43
3.75
 44
0.09375
 45
0.0
 46
0.0
 47
0.0
 48
0.0
 49
2.5
140
0.0625
141
2.5
142
0.03125
143
0.03937007874
144
100.0
145
0.0
146
0.5
147
0.025
148
0.0
 69
0
 70
0
 71
0
 72
0
 73
0
 74
0
 75
0
 76
0
 77
1
 78
12
 79
3
170
0
171
3
172
1
173
0
174
0
175
0
176
0
177
0
178
0
179
2
271
2
272
2
273
2
274
3
275
0
276
0
277
2
278
46
279
2
280
0
281
0
282
0
283
0
284
8
285
0
286
0
288
1
289
3
290
0
340
4C
371
-2
372
-2
  0
DIMSTYLE
105
7F
330
4
100
AcDbSymbolTableRecord
100
AcDbDimStyleTableRecord
  2
EZ_M_20_H25_CM
 70
0
 40
1.0
 41
0.05
 42
0.025
 43
3.75
 44
0.07500000000000001
 45
0.0
 46
0.0
 47
0.0
 48
0.0
 49
2.5
140
0.05
141
2.5
142
0.025
143
0.03937007874
144
100.0
145
0.0
146
0.5
147
0.020000000000000004
148
0.0
 69
0
 70
0
 71
0
 72
0
 73
0
 74
0
 75
0
 76
0
 77
1
 78
12
 79
3
170
0
171
3
172
1
173
0
174
0
175
0
176
0
177
0
178
0
179
2
271
2
272
2
273
2
274
3
275
0
276
0
277
2
278
46
279
2
280
0
281
0
282
0
283
0
284
8
285
0
286
0
288
1
289
3
290
0
340
4C
371
-2
372
-2
  0
DIMSTYLE
105
80
330
4
100
AcDbSymbolTableRecord
100
AcDbDimStyleTableRecord
  2
EZ_M_10_H25_CM
 70
0
 40
1.0
 41
0.025
 42
0.0125
 43
3.75
 44
0.037500000000000006
 45
0.0
 46
0.0
 47
0.0
 48
0.0
 49
2.5
140
0.025
141
2.5
142
0.0125
143
0.03937007874
144
100.0
145
0.0
146
0.5
147
0.010000000000000002
148
0.0
 69
0
 70
0
 71
0
 72
0
 73
0
 74
0
 75
0
 76
0
 77
1
 78
12
 79
3
170
0
171
3
172
1
173
0
174
0
175
0
176
0
177
0
178
0
179
2
271
2
272
2
273
2
274
3
275
0
276
0
277
2
278
46
279
2
280
0
281
0
282
0
283
0
284
8
285
0
286
0
288
1
289
3
290
0
340
4C
371
-2
372
-2
  0
DIMSTYLE
105
81
330
4
100
AcDbSymbolTableRecord
100
AcDbDimStyleTableRecord
  2
EZ_M_5_H25_CM
 70
0
 40
1.0
 41
0.0125
 42
0.00625
 43
3.75
 44
0.018750000000000003
 45
0.0
 46
0.0
 47
0.0
 48
0.0
 49
2.5
140
0.0125
141
2.5
142
0.00625
143
0.03937007874
144
100.0
145
0.0
146
0.5
147
0.005000000000000001
148
0.0
 69
0
 70
0
 71
0
 72
0
 73
0
 74
0
 75
0
 76
0
 77
1
 78
12
 79
3
170
0
171
3
172
1
173
0
174
0
175
0
176
0
177
0
178
0
179
2
271
2
272
2
273
2
274
3
275
0
276
0
277
2
278
46
279
2
280
0
281
0
282
0
283
0
284
8
285
0
286
0
288
1
289
3
290
0
340
4C
371
-2
372
-2
  0
DIMSTYLE
105
82
330
4
100
AcDbSymbolTableRecord
100
AcDbDimStyleTableRecord
  2
EZ_M_1_H25_CM
 70
0
 40
1.0
 41
0.0025
 42
0.00125
 43
3.75
 44
0.00375
 45
0.0
 46
0.0
 47
0.0
 48
0.0
 49
2.5
140
0.0025
141
2.5
142
0.00125
143
0.03937007874
144
100.0
145
0.0
146
0.5
147
0.001
148
0.0
 69
0
 70
0
 71
0
 72
0
 73
0
 74
0
 75
0
 76
0
 77
1
 78
12
 79
3
170
0
171
3
172
1
173
0
174
0
175
0
176
0
177
0
178
0
179
2
271
2
272
2
273
2
274
3
275
0
276
0
277
2
278
46
279
2
280
0
281
0
282
0
283
0
284
8
285
0
286
0
288
1
289
3
290
0
340
4C
371
-2
372
-2
  0
DIMSTYLE
105
83
330
4
100
AcDbSymbolTableRecord
100
AcDbDimStyleTableRecord
  2
EZ_RADIUS
 70
0
 40
1.0
 41
0.25
 42
0.125
 43
3.75
 44
0.375
 45
0.0
 46
0.0
 47
0.0
 48
0.0
 49
2.5
140
0.25
141
0.0
142
0.0
143
0.03937007874
144
100.0
145
0.0
146
0.5
147
0.1
148
0.0
 69
0
 70
0
 71
0
 72
0
 73
0
 74
0
 75
0
 76
0
 77
1
 78
12
 79
3
170
0
171
3
172
0
173
0
174
0
175
0
176
0
177
0
178
0
179
2
271
2
272
2
273
2
274
3
275
0
276
0
277
2
278
46
279
1
280
0
281
0
282
0
283
0
284
8
285
0
286
0
288
1
289
3
290
0
340
4C
342
84
371
-2
372
-2
  0
DIMSTYLE
105
88
330
4
100
AcDbSymbolTableRecord
100
AcDbDimStyleTableRecord
  2
EZ_RADIUS_INSIDE
 70
0
 40
1.0
 41
0.25
 42
0.125
 43
3.75
 44
0.375
 45
0.0
 46
0.0
 47
0.0
 48
0.0
 49
2.5
140
0.25
141
0.0
142
0.0
143
0.03937007874
144
100.0
145
0.0
146
0.5
147
0.1
148
0.0
 69
0
 70
0
 71
0
 72
0
 73
0
 74
0
 75
0
 76
0
 77
0
 78
12
 79
3
170
0
171
3
172
0
173
0
174
1
175
0
176
0
177
0
178
0
179
2
271
2
272
2
273
2
274
3
275
0
276
0
277
2
278
46
279
0
280
0
281
0
282
0
283
0
284
8
285
0
286
0
288
1
289
0
290
0
340
4C
342
84
371
-2
372
-2
  0
DIMSTYLE
105
89
330
4
100
AcDbSymbolTableRecord
100
AcDbDimStyleTableRecord
  2
EZ_CURVED
 70
0
 40
1.0
 41
0.25
 42
0.125
 43
3.75
 44
0.375
 45
0.0
 46
0.0
 47
0.0
 48
0.0
 49
2.5
140
0.25
141
2.5
142
0.0
143
0.03937007874
144
100.0
145
0.0
146
0.5
147
0.1
148
0.0
 69
0
 70
0
 71
0
 72
0
 73
0
 74
0
 75
0
 76
0
 77
1
 78
12
 79
2
 90
2
170
0
171
3
172
1
173
0
174
0
175
0
176
0
177
0
178
0
179
2
271
2
272
2
273
2
274
3
275
0
276
0
277
2
278
46
279
2
280
0
281
0
282
0
283
0
284
8
285
0
286
0
288
1
289
3
290
0
340
4C
371
-2
372
-2
  0
ENDTAB
  0
TABLE
  2
BLOCK_RECORD
  5
9
330
0
100
AcDbSymbolTable
 70
5
  0
BLOCK_RECORD
  5
17
330
9
100
AcDbSymbolTableRecord
100
AcDbBlockTableRecord
  2
*Model_Space
340
1A
 70
0
280
1
281
0
  0
BLOCK_RECORD
  5
1B
330
9
100
AcDbSymbolTableRecord
100
AcDbBlockTableRecord
  2
*Paper_Space
340
1E
 70
0
280
1
281
0
  0
BLOCK_RECORD
  5
74
330
9
100
AcDbSymbolTableRecord
100
AcDbBlockTableRecord
  2
_ARCHTICK
340
0
 70
0
280
1
281
0
  0
BLOCK_RECORD
  5
78
330
9
100
AcDbSymbolTableRecord
100
AcDbBlockTableRecord
  2
_CLOSEDFILLED
340
0
 70
0
280
1
281
0
  0
BLOCK_RECORD
  5
84
330
9
100
AcDbSymbolTableRecord
100
AcDbBlockTableRecord
  2
_CLOSEDBLANK
340
0
 70
0
280
1
281
0
  0
ENDTAB
  0
ENDSEC
  0
SECTION
  2
BLOCKS
  0
BLOCK
  5
18
330
17
100
AcDbEntity
  8
0
100
AcDbBlockBegin
  2
*Model_Space
 70
0
 10
0.0
 20
0.0
 30
0.0
  3
*Model_Space
  1

  0
ENDBLK
  5
19
330
17
100
AcDbEntity
  8
0
100
AcDbBlockEnd
  0
BLOCK
  5
1C
330
1B
100
AcDbEntity
  8
0
100
AcDbBlockBegin
  2
*Paper_Space
 70
0
 10
0.0
 20
0.0
 30
0.0
  3
*Paper_Space
  1

  0
ENDBLK
  5
1D
330
1B
100
AcDbEntity
  8
0
100
AcDbBlockEnd
  0
BLOCK
  5
75
330
74
100
AcDbEntity
  8
0
100
AcDbBlockBegin
  2
_ARCHTICK
 70
0
 10
0.0
 20
0.0
 30
0.0
  3
_ARCHTICK
  1

  0
LWPOLYLINE
  5
77
330
74
100
AcDbEntity
  8
0
  6
BYBLOCK
 62
0
100
AcDbPolyline
 90
2
 70
0
 43
0.15
 10
-0.5
 20
-0.5000000000000001
 10
0.5000000000000001
 20
0.5
  0
ENDBLK
  5
76
330
74
100
AcDbEntity
  8
0
100
AcDbBlockEnd
  0
BLOCK
  5
79
330
78
100
AcDbEntity
  8
0
100
AcDbBlockBegin
  2
_CLOSEDFILLED
 70
0
 10
0.0
 20
0.0
 30
0.0
  3
_CLOSEDFILLED
  1

  0
SOLID
  5
7B
330
78
100
AcDbEntity
  8
0
  6
BYBLOCK
 62
0
100
AcDbTrace
 10
-1.0
 20
0.1643989837240255
 30
0.0
 11
0.0
 21
0.0
 31
0.0
 12
-1.0
 22
-0.1643989837240255
 32
0.0
 13
-1.0
 23
-0.1643989837240255
 33
0.0
  0
ENDBLK
  5
7A
330
78
100
AcDbEntity
  8
0
100
AcDbBlockEnd
  0
BLOCK
  5
85
330
84
100
AcDbEntity
  8
0
100
AcDbBlockBegin
  2
_CLOSEDBLANK
 70
0
 10
0.0
 20
0.0
 30
0.0
  3
_CLOSEDBLANK
  1

  0
LWPOLYLINE
  5
87
330
84
100
AcDbEntity
  8
0
  6
BYBLOCK
 62
0
100
AcDbPolyline
 90
3
 70
1
 10
-1.0
 20
0.1643989837240255
 10
0.0
 20
0.0
 10
-1.0
 20
-0.1643989837240255
  0
ENDBLK
  5
86
330
84
100
AcDbEntity
  8
0
100
AcDbBlockEnd
  0
ENDSEC
  0
SECTION
  2
ENTITIES
  0
LWPOLYLINE
  5
8B
330
17
100
AcDbEntity
  8
Layer
100
AcDbPolyline
 90
303
 70
1
 10
537.832695798528
 20
60.09293665746286
 10
536.0069476244144
 20
60.631698864967234
 10
533.0800280537501
 20
61.50581642302377
 10
529.9185083392272
 20
62.46009475183665
 10
526.519576993688
 20
63.483918956008175
 10
522.881956144056
 20
64.56341766748
 10
519.0229149397587
 20
65.71010924582976
 10
514.9665466636504
 20
66.92714780229431
 10
510.7356474203234
 20
68.19708729577762
 10
506.35113636061675
 20
69.4941446290466
 10
501.8380475640394
 20
70.80781908983562
 10
497.2192495808931
 20
72.13632518975494
 10
492.5297534883075
 20
73.50689798989816
 10
487.78337401743926
 20
74.9016802448751
 10
482.99249016997686
 20
76.30869600723722
 10
478.166103746549
 20
77.71507528283949
 10
473.30631112737484
 20
79.10369028004276
 10
468.42004241705416
 20
80.48302886050325
 10
463.5261701121615
 20
81.88628733901568
 10
458.62499493529253
 20
83.30008671085287
 10
453.7162597387792
 20
84.71268571134733
 10
448.7986083971083
 20
86.1120110770684
 10
443.86957974067946
 20
87.48622171330295
 10
438.92673579707935
 20
88.83556321245685
 10
433.9834976454666
 20
90.19709517217044
 10
429.04848315030705
 20
91.58314217520083
 10
424.1145317164437
 20
92.96705664218346
 10
419.17666175603745
 20
94.3341913308425
 10
414.230803766503
 20
95.67043314425861
 10
409.27380290646164
 20
96.96927486404238
 10
405.3642209367191
 20
97.9739476303547
 10
405.1028860281744
 20
96.9569893885493
 10
404.04374453098615
 20
97.22917031875012
 10
399.07986997834473
 20
98.51938415907642
 10
394.1258081882196
 20
99.81883436488425
 10
389.1737572962692
 20
101.10863694963759
 10
384.2219731202236
 20
102.37907411288586
 10
379.26498776511255
 20
103.61743170326054
 10
374.2951545005033
 20
104.82108119620652
 10
369.31641134995596
 20
106.00920169005849
 10
364.3423600430449
 20
107.20202562213598
 10
359.3776276323646
 20
108.39424180883275
 10
354.41254734989775
 20
109.56523279041691
 10
349.4466898339807
 20
110.70778331088923
 10
344.4691993306562
 20
111.81370641456193
 10
339.48836567191023
 20
112.90279633072836
 10
334.50853913093124
 20
113.98262000450936
 10
329.53319064703084
 20
115.0541976239807
 10
324.5633625479998
 20
116.10896540957957
 10
319.5917660423112
 20
117.13121183689451
 10
314.6160100215833
 20
118.11819210617456
 10
309.6345658958205
 20
119.07618915320637
 10
304.6525520285207
 20
120.02106762712948
 10
299.6775329430913
 20
120.9613005748676
 10
294.70914433602394
 20
121.88696831844706
 10
289.74289886035467
 20
122.7851752070652
 10
284.77575763386915
 20
123.65123499726562
 10
279.8064706978841
 20
124.48965194390851
 10
274.8398944695994
 20
125.31191659130673
 10
269.87799415084055
 20
126.12069512929205
 10
264.92294505683327
 20
126.91448973052393
 10
259.97567020244105
 20
127.68593451574584
 10
255.03252317838377
 20
128.42539362088093
 10
250.09211427757657
 20
129.13378462148856
 10
245.1571713981767
 20
129.8205116699718
 10
240.22886821518887
 20
130.48953140219763
 10
235.31046379524847
 20
131.1410712898886
 10
230.40420902330976
 20
131.76798080154808
 10
225.5149064050198
 20
132.36545994807773
 10
220.64740828432693
 20
132.93249609837815
 10
215.80247732888637
 20
133.46931987869084
 10
210.97870787821964
 20
133.97855763218337
 10
206.1730811698097
 20
134.4606051681653
 10
201.38516462306234
 20
134.91563111488676
 10
196.61086899482115
 20
135.33669151038032
 10
191.84625340327221
 20
135.72176971869817
 10
187.09228862528693
 20
136.0772077493745
 10
182.35066296374094
 20
136.40617839643696
 10
177.6229914028139
 20
136.7081504421846
 10
172.9088698761754
 20
136.97888557955355
 10
168.20877226137674
 20
137.21625179555593
 10
163.5222518679975
 20
137.4180485483447
 10
158.84937869612796
 20
137.58444561687097
 10
154.19180414431523
 20
137.71825410591015
 10
149.55246407253622
 20
137.82051339318494
 10
144.92987096283107
 20
137.88571377187947
 10
140.32419162057832
 20
137.91695393946839
 10
135.74432867701904
 20
137.91989297808283
 10
131.1810237843993
 20
137.87889043217643
 10
126.64729569675396
 20
137.81273498398886
 10
122.14158081930277
 20
137.70246067553006
 10
117.6572698120035
 20
137.5432210993257
 10
113.20415226582563
 20
137.3573081940044
 10
108.78865768697966
 20
137.1431916002454
 10
104.41442588873535
 20
136.88915141732258
 10
100.08376712951076
 20
136.58531408657714
 10
95.79530746969232
 20
136.22807311261346
 10
91.55097061846786
 20
135.83193658153968
 10
87.36285545253956
 20
135.41814986338198
 10
83.24789468404911
 20
134.98487412321703
 10
79.20680014109736
 20
134.50138863290604
 10
75.24733804848194
 20
133.96481761802016
 10
71.3717961343749
 20
133.37509564279682
 10
67.58832900260933
 20
132.74970419024507
 10
63.90542254858727
 20
132.10512807912562
 10
60.33461130790252
 20
131.45409316571227
 10
56.894301714543246
 20
130.79803939849074
 10
53.58720817597188
 20
130.11280614894588
 10
50.419986611830836
 20
129.39953307003717
 10
47.39391107170786
 20
128.6604208336998
 10
44.51032587261088
 20
127.90686486058503
 10
41.76966033193
 20
127.14971522877792
 10
39.17076428103462
 20
126.39675808208264
 10
36.71329266846746
 20
125.65447914349059
 10
34.392629155339876
 20
124.92378114065133
 10
32.20760746969381
 20
124.20840523589143
 10
30.157355533745147
 20
123.50460782184656
 10
28.232668878938114
 20
122.80212828067981
 10
26.42142169649074
 20
122.0985748985414
 10
24.7175121915582
 20
121.40145169906953
 10
23.11537248722044
 20
120.71408065208689
 10
21.607530594084665
 20
120.03566513706447
 10
20.186358563520656
 20
119.36645980836641
 10
18.844750585037275
 20
118.70778710052895
 10
17.576420467103304
 20
118.06118876320261
 10
16.378693789942986
 20
117.42941319478481
 10
15.245242969010178
 20
116.8089951815767
 10
14.181129379904036
 20
116.20541548169471
 10
13.172313605747433
 20
115.60483293694281
 10
12.221471757506293
 20
115.01377501241763
 10
11.315473284665188
 20
114.42189818325873
 10
10.464357434693028
 20
113.84395671869173
 10
9.65573477349787
 20
113.26677963298535
 10
8.904090107837277
 20
112.70737651480673
 10
8.178931084395117
 20
112.13124061728028
 10
7.500334165829912
 20
111.5697583053309
 10
6.860923999267925
 20
111.01097694251172
 10
6.257465666373406
 20
110.45254243405644
 10
5.689332909721685
 20
109.89671802506945
 10
5.1576076858476085
 20
109.34625324131824
 10
4.658436767937303
 20
108.79520418602833
 10
4.193382690131955
 20
108.24841738514985
 10
3.7599141937317597
 20
107.70461045497817
 10
3.3544954018123576
 20
107.16082505252871
 10
2.9751940515990327
 20
106.61674468371456
 10
2.620863673720777
 20
106.07260461177182
 10
2.300463591628585
 20
105.54633035726177
 10
2.0212654626615176
 20
105.0426174000435
 10
1.7891041740860771
 20
104.55703233420203
 10
1.5954219446425952
 20
104.0519660151181
 10
1.4331838659512073
 20
103.5193804755859
 10
1.2950560333705141
 20
102.97376751492997
 10
1.1708416820913499
 20
102.4061054084288
 10
1.0791277947545268
 20
101.95281703243036
 10
1.0154194758461301
 20
101.42395517478721
 10
1.0329259569843998
 20
100.99960040600138
 10
1.0472212713461033
 20
100.45446793243424
 10
1.0731591201667925
 20
99.92769717485069
 10
1.1232999689106578
 20
99.41741715149423
 10
1.2050518866649043
 20
98.91502085240596
 10
1.3254082743586366
 20
98.41730653709845
 10
1.4954611151495385
 20
97.90894456715885
 10
1.7037230845510862
 20
97.41114634389278
 10
1.9729839871222623
 20
96.9008006581043
 10
2.2842546575409415
 20
96.38606874870192
 10
2.6368940263773197
 20
95.86691430518673
 10
3.020483715741193
 20
95.35032357668888
 10
3.4307879394277734
 20
94.84186660881717
 10
3.879748539502401
 20
94.33610919729759
 10
4.367226795135707
 20
93.83320683702738
 10
4.891646919137088
 20
93.33397837790467
 10
5.446456473549318
 20
92.84345171398896
 10
6.0464360791837635
 20
92.35629214163676
 10
6.6873687985226695
 20
91.87138918312826
 10
7.367162620504075
 20
91.38876840328048
 10
8.086801950648322
 20
90.90758606560418
 10
8.849428972505422
 20
90.42581641231263
 10
9.654753245608674
 20
89.9422012623498
 10
10.501176555361184
 20
89.4572558469906
 10
11.390513384083874
 20
88.972309117014
 10
12.329390022899219
 20
88.48736246389402
 10
13.32149172690174
 20
88.00176849919814
 10
14.372053827600439
 20
87.5139365473979
 10
15.482937709228253
 20
87.02204691975226
 10
16.6563082822168
 20
86.5248624175241
 10
17.89640124304347
 20
86.02165290256323
 10
19.20769470341469
 20
85.51234457597687
 10
20.595384752229563
 20
84.99771964750937
 10
22.066061368403354
 20
84.47913809807434
 10
23.62763339964019
 20
83.95817097834467
 10
25.290502506926174
 20
83.4355329236957
 10
27.069087718589543
 20
82.90770183076438
 10
28.962704176178704
 20
82.36524243389933
 10
30.966975827822836
 20
81.80696394624545
 10
33.10194540885277
 20
81.24298378814682
 10
35.37911349615274
 20
80.67415407646482
 10
37.80098349256829
 20
80.09917431288955
 10
40.376420942984396
 20
79.52339796413567
 10
43.11383318548087
 20
78.95168908788906
 10
46.02090012097196
 20
78.38584977533466
 10
49.10790086609677
 20
77.81920372239433
 10
52.35215386453669
 20
77.22868578104219
 10
55.7485170062227
 20
76.62663716523771
 10
59.301583231186584
 20
76.03514018428967
 10
63.00980352899404
 20
75.46395490619432
 10
66.86351501951714
 20
74.91270893408375
 10
70.85080885095746
 20
74.3808715213676
 10
74.97358680399228
 20
73.8695400617463
 10
79.19988971517435
 20
73.34590438472148
 10
83.51453101068842
 20
72.8219347216921
 10
87.91785102194892
 20
72.32514010686253
 10
92.40458888266696
 20
71.86215937971005
 10
96.96527509628368
 20
71.4292250289651
 10
101.5963803264912
 20
71.02266315445054
 10
105.47724986573665
 20
70.69403258725812
 10
105.38865333983833
 20
69.64777704696276
 10
106.2001404216265
 20
69.57906050457018
 10
110.93903910765036
 20
69.17424835590982
 10
115.72364217653704
 20
68.7886010456483
 10
120.55080382890029
 20
68.42939548110427
 10
125.41780943397292
 20
68.09777639129771
 10
130.32065177164276
 20
67.7823677535166
 10
135.25476238516205
 20
67.47024308842295
 10
140.21675567259152
 20
67.15888986213733
 10
145.20428795897215
 20
66.85405365033293
 10
150.217078080563
 20
66.56773546518767
 10
155.25421845877338
 20
66.30197157648277
 10
160.31331802020375
 20
66.05136030762856
 10
165.3935097257389
 20
65.81490609644726
 10
170.4923428221121
 20
65.58466273305294
 10
175.6077818266275
 20
65.35746744316003
 10
180.73830328282673
 20
65.1357085422483
 10
185.88322660124967
 20
64.9226960873765
 10
191.04135858328365
 20
64.71884749246752
 10
196.21083111158254
 20
64.52436774910343
 10
201.38825337529568
 20
64.33750291365024
 10
206.5699418927984
 20
64.15967312029451
 10
211.75147111157673
 20
63.99232454943113
 10
216.9275177672774
 20
63.83115578737196
 10
222.09471744688847
 20
63.671910681269665
 10
227.25463764898817
 20
63.51520635704428
 10
232.4138099005992
 20
63.36643301830174
 10
237.57875954746697
 20
63.23291169025526
 10
242.75265579984872
 20
63.115848138984624
 10
247.93463617765158
 20
63.00795987572666
 10
253.12284321078835
 20
62.8991867796979
 10
258.31567471560516
 20
62.78380179383976
 10
263.51299462455114
 20
62.66755660773174
 10
268.71659133956484
 20
62.56724302954971
 10
273.9281982552829
 20
62.49149054761467
 10
279.1478021635685
 20
62.43033009643123
 10
284.3741368963999
 20
62.36626371794929
 10
289.6058088882843
 20
62.29024018027724
 10
294.84097862469446
 20
62.20381941695561
 10
300.0797240818911
 20
62.12754454429418
 10
305.3248754364286
 20
62.08562864320307
 10
310.57781503877607
 20
62.070922233180944
 10
315.83700576039774
 20
62.05302990954273
 10
321.09984307477276
 20
62.01363311562811
 10
326.36493341960823
 20
61.95976341862014
 10
331.6316736954323
 20
61.9103098975863
 10
336.902341818208
 20
61.89304532227494
 10
342.17965457950874
 20
61.906271459791235
 10
347.4608868064523
 20
61.91356975502986
 10
352.7450519833052
 20
61.90552768292589
 10
358.0309633858101
 20
61.88217175522641
 10
363.31709458912104
 20
61.85431312943088
 10
368.60443025990503
 20
61.846464609496465
 10
373.8966594148683
 20
61.87216482764395
 10
379.1919700340301
 20
61.895946749848136
 10
384.48832518311053
 20
61.90210596287684
 10
389.7862630647244
 20
61.897444102513745
 10
395.0842385804759
 20
61.87775802419494
 10
400.3802613496339
 20
61.85449891106111
 10
405.6777295175741
 20
61.859523735404146
 10
410.9779328674576
 20
61.881055502377215
 10
416.2777996523332
 20
61.88970833308066
 10
421.57710024519076
 20
61.887346826758375
 10
426.876216082664
 20
61.87512419279952
 10
432.17127072723196
 20
61.84694537057247
 10
437.4634077824978
 20
61.8323147828992
 10
442.75480934432755
 20
61.83894232373121
 10
448.0424715553919
 20
61.83802436437279
 10
453.32348714518304
 20
61.81771167325683
 10
458.59563820715385
 20
61.78198517134765
 10
463.8550448442694
 20
61.73206068043968
 10
469.09828742316444
 20
61.679488342649975
 10
474.3217708532026
 20
61.63229513162216
 10
479.51768705181826
 20
61.57892302623157
 10
484.6744447091127
 20
61.51226859398932
 10
489.7811206516024
 20
61.4407811424686
 10
494.82171399159205
 20
61.35864118809367
 10
499.77112124130804
 20
61.2511583855089
 10
504.60820594043275
 20
61.1446866286741
 10
509.30416246020616
 20
61.038994747177945
 10
513.8303079759733
 20
60.93589495752107
 10
518.1531467190862
 20
60.820160349323146
 10
522.2433540913892
 20
60.694251909396
 10
526.0827123943793
 20
60.57349965710945
 10
529.6613359000173
 20
60.460252122034
 10
532.9741410765339
 20
60.344340770742896
 10
536.0227281166208
 20
60.225000878658726
 10
537.9151154444173
 20
60.14660229169823
  0
LWPOLYLINE
  5
8C
330
17
100
AcDbEntity
  8
Layer
100
AcDbPolyline
 90
5
 70
0
 10
353.04615977253775
 20
105.77509934401488
 10
349.14800075981907
 20
106.67195848098149
 10
350.04485989678574
 20
110.57011749370011
 10
353.9430189095044
 20
109.6732583567335
 10
353.04615977253775
 20
105.77509934401488
  0
LWPOLYLINE
  5
8D
330
17
100
AcDbEntity
  8
Layer
100
AcDbPolyline
 90
5
 70
0
 10
139.8301154955378
 20
133.91726272675768
 10
135.83011628076773
 20
133.91976908644708
 10
135.83262264045712
 20
137.91976830121715
 10
139.8326218552272
 20
137.91726194152776
 10
139.8301154955378
 20
133.91726272675768
  0
LWPOLYLINE
  5
8E
330
17
100
AcDbEntity
  8
Layer
100
AcDbPolyline
 90
5
 70
0
 10
59.10962027837567
 20
127.17218975917459
 10
55.19286876838268
 20
126.36036612748629
 10
54.38104513669438
 20
130.27711763747928
 10
58.297796646687374
 20
131.08894126916758
 10
59.10962027837567
 20
127.17218975917459
  0
LWPOLYLINE
  5
8F
330
17
100
AcDbEntity
  8
Layer
100
AcDbPolyline
 90
5
 70
0
 10
15.771958615296294
 20
111.33350679014139
 10
14.073738486850589
 20
110.27707487310089
 10
11.43265869424936
 20
114.52262519421514
 10
13.130878822695065
 20
115.57905711125564
 10
15.771958615296294
 20
111.33350679014139
  0
LWPOLYLINE
  5
90
330
17
100
AcDbEntity
  8
Layer
100
AcDbPolyline
 90
5
 70
0
 10
25.9812067222889
 20
88.44605938279311
 10
27.898575937126378
 20
87.87711712386563
 10
26.47622028980766
 20
83.08369408677193
 10
24.558851074970182
 20
83.6526363456994
 10
25.9812067222889
 20
88.44605938279311
  0
LWPOLYLINE
  5
91
330
17
100
AcDbEntity
  8
Layer
100
AcDbPolyline
 90
5
 70
0
 10
77.17193285340255
 20
77.6277535930117
 10
81.14158034722735
 20
77.13592153349288
 10
80.64974828770852
 20
73.16627403966808
 10
76.68010079388372
 20
73.65810609918691
 10
77.17193285340255
 20
77.6277535930117
  0
LINE
  5
92
330
17
100
AcDbEntity
  8
Layer
100
AcDbLine
 10
518.7520266111774
 20
65.79138429728934
 30
0.0
 11
518.6100109649108
 21
65.31197679190848
 31
0.0
  0
LINE
  5
93
330
17
100
AcDbEntity
  8
Layer
100
AcDbLine
 10
517.9589925131384
 20
61.32551733483966
 30
0.0
 11
517.941115549457
 21
60.825837022870566
 31
0.0
  0
LINE
  5
94
330
17
100
AcDbEntity
  8
Layer
100
AcDbLine
 10
499.572052742133
 20
71.45958778685875
 30
0.0
 11
499.4301923615951
 21
70.98013431421134
 31
0.0
  0
LINE
  5
95
330
17
100
AcDbEntity
  8
Layer
100
AcDbLine
 10
497.96049124620697
 20
61.79058126758165
 30
0.0
 11
497.94574074010654
 21
61.29079889237242
 31
0.0
  0
LINE
  5
96
330
17
100
AcDbEntity
  8
Layer
100
AcDbLine
 10
461.1464348209975
 20
82.57274887902855
 30
0.0
 11
461.0060473802976
 21
82.09286205227278
 31
0.0
  0
LINE
  5
97
330
17
100
AcDbEntity
  8
Layer
100
AcDbLine
 10
457.9563530976392
 20
62.286278537547304
 30
0.0
 11
457.94588041155487
 21
61.78638822673284
 31
0.0
  0
LWPOLYLINE
  5
98
330
17
100
AcDbEntity
  8
Layer
100
AcDbPolyline
 90
300
 70
1
 10
231.6759999999996
 20
100.0
 10
231.66955834986857
 20
100.62541459538794
 10
231.6502362439268
 20
101.2505530252967
 10
231.61804221427238
 20
101.87513924619398
 10
231.57299047688247
 20
102.49889745838749
 10
231.51510092533604
 20
103.12155222781018
 10
231.44439912202944
 20
103.74282860764438
 10
231.36091628688862
 20
104.36245225973036
 10
231.2646892835835
 20
104.98014957570648
 10
231.15576060324977
 20
105.5956477978269
 10
231.03417834572625
 20
106.20867513940372
 10
230.89999619831514
 20
106.81896090482032
 10
230.7532734120754
 20
107.42623560906293
 10
230.59407477565898
 20
108.03023109671766
 10
230.42247058670213
 20
108.63068066038029
 10
230.23853662078383
 20
109.22731915842688
 10
230.04235409796544
 20
109.81988313209274
 10
229.83400964692635
 20
110.40811092180847
 10
229.61359526671092
 20
110.99174278274141
 10
229.38120828610457
 20
111.57052099949169
 10
229.13695132065598
 20
112.14418999989203
 10
228.88093222736498
 20
112.71249646786134
 10
228.61326405705591
 20
113.27518945526182
 10
228.33406500445767
 20
113.8320204927107
 10
228.04345835601202
 20
114.38274369929725
 10
227.7415724354341
 20
114.92711589115697
 10
227.42854054704796
 20
115.46489668885461
 10
227.10450091692329
 20
115.99584862352907
 10
226.76959663183868
 20
116.51973724175289
 10
226.42397557609848
 20
117.03633120906034
 10
226.06779036623126
 20
117.54540241209816
 10
225.70119828359873
 20
118.04672605935404
 10
225.32436120494452
 20
118.54008078041818
 10
224.9374455309142
 20
119.02524872373426
 10
224.54062211257732
 20
119.50201565279657
 10
224.13406617598434
 20
119.97017104075074
 10
223.71795724479188
 20
120.42950816335659
 10
223.29247906099002
 20
120.8798241902716
 10
222.85781950376696
 20
121.32092027461525
 10
222.41417050654707
 20
121.75260164077403
 10
221.96172797223826
 20
122.17467767040898
 10
221.50069168672692
 20
122.58696198662733
 10
221.03126523065802
 20
122.9892725362813
 10
220.55365588953967
 20
123.38143167035771
 10
220.06807456221168
 20
123.76326622242264
 10
219.57473566771847
 20
124.13460758508701
 10
219.07385705062782
 20
124.49529178445873
 10
218.56565988483675
 20
124.84515955254905
 10
218.05036857590733
 20
125.18405639760074
 10
217.52821066197552
 20
125.51183267230738
 10
216.99941671327676
 20
125.82834363989335
 10
216.46422023033267
 20
126.13344953802547
 10
215.92285754084372
 20
126.42701564052824
 10
215.3755676953336
 20
126.708912316875
 10
214.82259236159123
 20
126.97901508942921
 10
214.26417571795713
 20
127.23720468841019
 10
213.70056434550102
 20
127.48336710455938
 10
213.1320071191387
 20
127.71739363948356
 10
212.5587550977358
 20
127.93918095365302
 10
211.98106141324726
 20
128.1486311120334
 10
211.3991811589414
 20
128.34565162733102
 10
210.8133712767579
 20
128.53015550083265
 10
210.22389044384954
 20
128.70206126082178
 10
209.6309989583576
 20
128.86129299855415
 10
209.03495862447141
 20
129.0077804017769
 10
208.43603263682328
 20
129.1414587857766
 10
207.83448546426888
 20
129.262269121942
 10
207.23058273310534
 20
129.3701580638297
 10
206.6245911097782
 20
129.4650779707201
 10
206.01677818312896
 20
129.5469869286544
 10
205.4074123462354
 20
129.61584876894267
 10
204.79676267789674
 20
129.67163308413473
 10
204.18509882381602
 20
129.7143152414474
 10
203.57269087753218
 20
129.74387639364159
 10
202.9598092611543
 20
129.7603034873446
 10
202.34672460595084
 20
129.76358926881437
 10
201.73370763284655
 20
129.75373228714224
 10
201.12102903287953
 20
129.73073689489388
 10
200.50895934767203
 20
129.69461324618715
 10
199.8977688499665
 20
129.64537729220837
 10
199.287727424281
 20
129.58305077416878
 10
198.6791044477358
 20
129.50766121370418
 10
198.07216867110387
 20
129.4192419007222
 10
197.46718810013823
 20
129.31783187870232
 10
196.86442987722813
 20
129.20347592745543
 10
196.26416016343651
 20
129.0762245433504
 10
195.66664402097064
 20
128.93613391701615
 10
195.07214529613827
 20
128.7832659085296
 10
194.48092650284048
 20
128.6176880200998
 10
193.8932487066529
 20
128.43947336626115
 10
193.30937140954657
 20
128.2487006415878
 10
192.72955243529898
 20
128.0454540859445
 10
192.15404781564666
 20
127.82982344728862
 10
191.58311167722852
 20
127.60190394203993
 10
191.01699612937074
 20
127.36179621303572
 10
190.45595115276248
 20
127.10960628508985
 10
189.90022448907135
 20
126.84544551817505
 10
189.35006153154768
 20
126.56943055824956
 10
188.8057052166658
 20
126.28168328574955
 10
188.26739591685015
 20
125.98233076177013
 10
187.73537133433342
 20
125.67150517195878
 10
187.20986639619417
 20
125.34934376814587
 10
186.69111315061957
 20
125.01598880773808
 10
186.17934066443934
 20
124.67158749090164
 10
185.67477492197634
 20
124.31629189556274
 10
185.1776387252584
 20
123.95025891025432
 10
184.688151595635
 20
123.57365016483844
 10
184.20652967684296
 20
123.18663195913511
 10
183.73298563956342
 20
122.78937518948895
 10
183.26772858751244
 20
122.38205527330621
 10
182.81096396510668
 20
121.96485207159536
 10
182.36289346674494
 20
121.53794980954551
 10
181.9237149477456
 20
121.1015369951778
 10
181.49362233697926
 20
120.65580633610553
 10
181.07280555123523
 20
120.20095465443991
 10
180.66145041135965
 20
119.73718279987898
 10
180.25973856020215
 20
119.264695561018
 10
179.86784738240755
 20
118.7837015749206
 10
179.48594992608778
 20
118.29441323499049
 10
179.1142148264087
 20
117.79704659718455
 10
178.75280623112553
 20
117.2918212846086
 10
178.40188372809993
 20
116.77896039053803
 10
178.06160227483034
 20
116.258690379906
 10
177.7321121300272
 20
115.731240989303
 10
177.41355878726293
 20
115.19684512553165
 10
177.10608291072606
 20
114.65573876276153
 10
176.80982027310787
 20
114.10816083832965
 10
176.52490169564902
 20
113.55435314723249
 10
176.25145299037248
 20
112.99456023535615
 10
175.98959490452864
 20
112.42902929149166
 10
175.73944306727662
 20
111.8580100381835
 10
175.50110793862564
 20
111.28175462145909
 10
175.27469476065914
 20
110.70051749948821
 10
175.0603035110627
 20
110.11455533022142
 10
174.8580288589768
 20
109.52412685805714
 10
174.66796012319352
 20
108.92949279958746
 10
174.49018123271594
 20
108.33091572847297
 10
174.3247706896974
 20
107.72865995949763
 10
174.17180153477722
 20
107.12299143185484
 10
174.03134131482796
 20
106.51417759171615
 10
173.9034520531286
 20
105.90248727413453
 10
173.7881902219769
 20
105.28819058433446
 10
173.68560671775273
 20
104.67155877844097
 10
173.59574683844374
 20
104.05286414370067
 10
173.51865026364294
 20
103.4323798782473
 10
173.45435103702744
 20
102.81037997046514
 10
173.40287755132556
 20
102.18713907800344
 10
173.36425253577963
 20
101.56293240649538
 10
173.3384930461091
 20
100.93803558803495
 10
173.3256104569795
 20
100.31272455946562
 10
173.3256104569795
 20
99.68727544053439
 10
173.3384930461091
 20
99.06196441196505
 10
173.36425253577963
 20
98.43706759350462
 10
173.40287755132556
 20
97.81286092199656
 10
173.45435103702744
 20
97.18962002953485
 10
173.51865026364294
 20
96.5676201217527
 10
173.59574683844374
 20
95.94713585629933
 10
173.68560671775273
 20
95.32844122155903
 10
173.7881902219769
 20
94.71180941566556
 10
173.9034520531286
 20
94.09751272586547
 10
174.03134131482796
 20
93.48582240828385
 10
174.17180153477722
 20
92.87700856814514
 10
174.3247706896974
 20
92.27134004050237
 10
174.49018123271594
 20
91.66908427152703
 10
174.66796012319352
 20
91.07050720041254
 10
174.8580288589768
 20
90.47587314194287
 10
175.0603035110627
 20
89.8854446697786
 10
175.27469476065914
 20
89.29948250051179
 10
175.50110793862564
 20
88.7182453785409
 10
175.73944306727662
 20
88.14198996181649
 10
175.98959490452864
 20
87.57097070850836
 10
176.25145299037248
 20
87.00543976464387
 10
176.52490169564902
 20
86.44564685276751
 10
176.80982027310787
 20
85.89183916167036
 10
177.10608291072606
 20
85.34426123723847
 10
177.41355878726293
 20
84.80315487446833
 10
177.7321121300272
 20
84.26875901069698
 10
178.06160227483034
 20
83.74130962009401
 10
178.40188372809993
 20
83.22103960946198
 10
178.75280623112553
 20
82.7081787153914
 10
179.1142148264087
 20
82.20295340281545
 10
179.48594992608778
 20
81.70558676500951
 10
179.86784738240755
 20
81.2162984250794
 10
180.25973856020215
 20
80.735304438982
 10
180.66145041135965
 20
80.26281720012102
 10
181.07280555123523
 20
79.79904534556009
 10
181.49362233697926
 20
79.34419366389449
 10
181.9237149477456
 20
78.89846300482222
 10
182.36289346674494
 20
78.4620501904545
 10
182.81096396510668
 20
78.03514792840465
 10
183.26772858751244
 20
77.61794472669379
 10
183.73298563956342
 20
77.21062481051106
 10
184.20652967684293
 20
76.8133680408649
 10
184.68815159563496
 20
76.42634983516156
 10
185.17763872525836
 20
76.04974108974568
 10
185.67477492197634
 20
75.68370810443727
 10
186.1793406644393
 20
75.32841250909837
 10
186.69111315061957
 20
74.98401119226192
 10
187.2098663961942
 20
74.65065623185413
 10
187.73537133433342
 20
74.32849482804122
 10
188.26739591685015
 20
74.01766923822987
 10
188.8057052166658
 20
73.71831671425045
 10
189.3500615315477
 20
73.43056944175044
 10
189.90022448907135
 20
73.15455448182495
 10
190.45595115276245
 20
72.89039371491015
 10
191.0169961293707
 20
72.63820378696428
 10
191.5831116772285
 20
72.39809605796009
 10
192.15404781564666
 20
72.17017655271138
 10
192.72955243529898
 20
71.9545459140555
 10
193.30937140954654
 20
71.75129935841221
 10
193.8932487066529
 20
71.56052663373886
 10
194.48092650284048
 20
71.38231197990021
 10
195.07214529613827
 20
71.21673409147041
 10
195.66664402097064
 20
71.06386608298384
 10
196.26416016343651
 20
70.9237754566496
 10
196.86442987722816
 20
70.79652407254456
 10
197.46718810013823
 20
70.68216812129769
 10
198.07216867110387
 20
70.5807580992778
 10
198.6791044477358
 20
70.49233878629582
 10
199.28772742428097
 20
70.41694922583122
 10
199.89776884996647
 20
70.35462270779163
 10
200.508959347672
 20
70.30538675381285
 10
201.12102903287953
 20
70.26926310510612
 10
201.73370763284652
 20
70.24626771285774
 10
202.34672460595084
 20
70.23641073118563
 10
202.9598092611543
 20
70.2396965126554
 10
203.57269087753218
 20
70.25612360635843
 10
204.18509882381602
 20
70.28568475855259
 10
204.79676267789674
 20
70.32836691586527
 10
205.4074123462354
 20
70.38415123105733
 10
206.01677818312896
 20
70.4530130713456
 10
206.6245911097782
 20
70.53492202927991
 10
207.23058273310534
 20
70.6298419361703
 10
207.83448546426888
 20
70.73773087805799
 10
208.43603263682328
 20
70.85854121422341
 10
209.03495862447141
 20
70.99221959822309
 10
209.63099895835757
 20
71.13870700144585
 10
210.22389044384954
 20
71.2979387391782
 10
210.8133712767579
 20
71.46984449916734
 10
211.39918115894136
 20
71.65434837266898
 10
211.98106141324726
 20
71.8513688879666
 10
212.5587550977358
 20
72.06081904634698
 10
213.1320071191387
 20
72.28260636051644
 10
213.70056434550102
 20
72.51663289544062
 10
214.26417571795713
 20
72.76279531158981
 10
214.82259236159123
 20
73.0209849105708
 10
215.37556769533361
 20
73.291087683125
 10
215.92285754084372
 20
73.57298435947177
 10
216.4642202303327
 20
73.86655046197454
 10
216.99941671327676
 20
74.17165636010665
 10
217.5282106619755
 20
74.48816732769261
 10
218.0503685759073
 20
74.81594360239924
 10
218.56565988483675
 20
75.15484044745094
 10
219.07385705062782
 20
75.50470821554126
 10
219.57473566771847
 20
75.86539241491299
 10
220.06807456221165
 20
76.23673377757734
 10
220.55365588953967
 20
76.61856832964229
 10
221.03126523065802
 20
77.0107274637187
 10
221.50069168672692
 20
77.41303801337267
 10
221.96172797223826
 20
77.82532232959102
 10
222.41417050654707
 20
78.24739835922597
 10
222.85781950376696
 20
78.67907972538475
 10
223.29247906099002
 20
79.1201758097284
 10
223.7179572447919
 20
79.57049183664343
 10
224.13406617598434
 20
80.02982895924924
 10
224.5406221125773
 20
80.49798434720341
 10
224.9374455309142
 20
80.97475127626572
 10
225.32436120494452
 20
81.4599192195818
 10
225.70119828359873
 20
81.95327394064596
 10
226.06779036623126
 20
82.45459758790184
 10
226.42397557609848
 20
82.96366879093966
 10
226.76959663183868
 20
83.48026275824711
 10
227.10450091692329
 20
84.00415137647093
 10
227.42854054704796
 20
84.53510331114539
 10
227.7415724354341
 20
85.07288410884304
 10
228.04345835601205
 20
85.61725630070275
 10
228.33406500445767
 20
86.16797950728932
 10
228.61326405705591
 20
86.72481054473818
 10
228.88093222736498
 20
87.28750353213866
 10
229.13695132065598
 20
87.85581000010795
 10
229.38120828610457
 20
88.42947900050831
 10
229.61359526671092
 20
89.00825721725857
 10
229.83400964692632
 20
89.59188907819151
 10
230.04235409796544
 20
90.18011686790724
 10
230.23853662078383
 20
90.7726808415731
 10
230.42247058670213
 20
91.36931933961971
 10
230.59407477565898
 20
91.96976890328234
 10
230.7532734120754
 20
92.57376439093706
 10
230.89999619831514
 20
93.18103909517968
 10
231.03417834572625
 20
93.79132486059628
 10
231.15576060324977
 20
94.4043522021731
 10
231.2646892835835
 20
95.01985042429352
 10
231.36091628688862
 20
95.63754774026965
 10
231.44439912202944
 20
96.25717139235563
 10
231.51510092533604
 20
96.87844777218979
 10
231.57299047688247
 20
97.5011025416125
 10
231.61804221427238
 20
98.124860753806
 10
231.6502362439268
 20
98.74944697470329
 10
231.66955834986857
 20
99.37458540461205
 10
231.6759999999996
 20
99.99999999999999
  0
LINE
  5
99
330
17
100
AcDbEntity
  8
Layer
100
AcDbLine
 10
391.43024325791896
 20
99.99999999999997
 30
0.0
 11
395.43024325791896
 21
99.99999999999997
 31
0.0
  0
LINE
  5
9A
330
17
100
AcDbEntity
  8
Layer
100
AcDbLine
 10
3.069598976174291
 20
100.00000000000003
 30
0.0
 11
-0.9304010238257092
 21
100.00000000000003
 31
0.0
  0
LINE
  5
9B
330
17
100
AcDbEntity
  8
Layer
100
AcDbLine
 10
85.04172783252321
 20
100.00000000000001
 30
0.0
 11
74.04172783252321
 21
100.00000000000001
 31
0.0
  0
LWPOLYLINE
  5
9C
330
17
100
AcDbEntity
  8
Layer
100
AcDbPolyline
 90
5
 70
0
 10
74.54172783252321
 20
95.00000000000001
 10
74.54172783252321
 20
105.00000000000001
 10
84.54172783252321
 20
105.00000000000001
 10
84.54172783252321
 20
95.00000000000001
 10
74.54172783252321
 20
95.00000000000001
  0
LINE
  5
9D
330
17
100
AcDbEntity
  8
Layer
100
AcDbLine
 10
202.74992111704665
 20
100.0
 30
0.0
 11
191.74992111704665
 21
100.0
 31
0.0
  0
LWPOLYLINE
  5
9E
330
17
100
AcDbEntity
  8
Layer
100
AcDbPolyline
 90
5
 70
0
 10
192.24992111704665
 20
95.0
 10
192.24992111704665
 20
105.0
 10
202.24992111704665
 20
105.0
 10
202.24992111704665
 20
95.0
 10
192.24992111704665
 20
95.0
  0
LINE
  5
9F
330
17
100
AcDbEntity
  8
Layer
100
AcDbLine
 10
320.45811440157
 20
99.99999999999999
 30
0.0
 11
309.45811440157
 21
99.99999999999999
 31
0.0
  0
LWPOLYLINE
  5
A0
330
17
100
AcDbEntity
  8
Layer
100
AcDbPolyline
 90
5
 70
0
 10
309.95811440157
 20
94.99999999999999
 10
309.95811440157
 20
104.99999999999999
 10
319.95811440157
 20
104.99999999999999
 10
319.95811440157
 20
94.99999999999999
 10
309.95811440157
 20
94.99999999999999
  0
LINE
  5
A1
330
17
100
AcDbEntity
  8
Layer
100
AcDbLine
 10
535.7231615119615
 20
60.28043673078017
 30
0.0
 11
539.7113725208692
 21
59.9735606182729
 31
0.0
  0
LINE
  5
A2
330
17
100
AcDbEntity
  8
Layer
100
AcDbLine
 10
3.009524980300313
 20
101.27051711853358
 30
0.0
 11
-0.9786860286073704
 21
101.57739323104086
 31
0.0
  0
LINE
  5
A3
330
17
100
AcDbEntity
  8
Layer
100
AcDbLine
 10
538.928653066514
 20
60.03378759793868
 30
0.0
 11
534.9404420576063
 21
60.340663710445945
 31
0.0
  0
LINE
  5
A4
330
17
100
AcDbEntity
  8
Layer
100
AcDbLine
 10
202.49999999999966
 20
129.76399999999992
 30
0.0
 11
202.49999999999966
 21
130.26399999999992
 31
0.0
  0
LINE
  5
A5
330
17
100
AcDbEntity
  8
Layer
100
AcDbLine
 10
202.49999999999966
 20
70.23600000000008
 30
0.0
 11
202.49999999999966
 21
69.73600000000008
 31
0.0
  0
LINE
  5
A6
330
17
100
AcDbEntity
  8
Layer
100
AcDbLine
 10
231.6759999999996
 20
100.0
 30
0.0
 11
232.1759999999996
 21
100.0
 31
0.0
  0
LINE
  5
A7
330
17
100
AcDbEntity
  8
Layer
100
AcDbLine
 10
173.32399999999973
 20
100.0
 30
0.0
 11
172.82399999999973
 21
100.0
 31
0.0
  0
LINE
  5
A8
330
17
100
AcDbEntity
  8
Layer
100
AcDbLine
 10
37.49999999999966
 20
123.89210397709846
 30
0.0
 11
37.49999999999966
 21
127.89210397709846
 31
0.0
  0
LINE
  5
A9
330
17
100
AcDbEntity
  8
Layer
100
AcDbLine
 10
37.49999999999966
 20
82.17063125221878
 30
0.0
 11
37.49999999999966
 21
78.17063125221878
 31
0.0
  0
LINE
  5
AA
330
17
100
AcDbEntity
  8
Layer
100
AcDbLine
 10
37.49999999999966
 20
94.81492579719472
 30
0.0
 11
37.49999999999966
 21
83.81492579719472
 31
0.0
  0
LWPOLYLINE
  5
AB
330
17
100
AcDbEntity
  8
Layer
100
AcDbPolyline
 90
5
 70
0
 10
42.49999999999966
 20
84.31492579719472
 10
32.49999999999966
 20
84.31492579719472
 10
32.49999999999966
 20
94.31492579719472
 10
42.49999999999966
 20
94.31492579719472
 10
42.49999999999966
 20
84.31492579719472
  0
LINE
  5
AC
330
17
100
AcDbEntity
  8
Layer
100
AcDbLine
 10
37.49999999999966
 20
108.53136761465862
 30
0.0
 11
37.49999999999966
 21
97.53136761465862
 31
0.0
  0
LWPOLYLINE
  5
AD
330
17
100
AcDbEntity
  8
Layer
100
AcDbPolyline
 90
5
 70
0
 10
42.49999999999966
 20
98.03136761465862
 10
32.49999999999966
 20
98.03136761465862
 10
32.49999999999966
 20
108.03136761465862
 10
42.49999999999966
 20
108.03136761465862
 10
42.49999999999966
 20
98.03136761465862
  0
LINE
  5
AE
330
17
100
AcDbEntity
  8
Layer
100
AcDbLine
 10
37.49999999999966
 20
122.24780943212252
 30
0.0
 11
37.49999999999966
 21
111.24780943212252
 31
0.0
  0
LWPOLYLINE
  5
AF
330
17
100
AcDbEntity
  8
Layer
100
AcDbPolyline
 90
5
 70
0
 10
42.49999999999966
 20
111.74780943212252
 10
32.49999999999966
 20
111.74780943212252
 10
32.49999999999966
 20
121.74780943212252
 10
42.49999999999966
 20
121.74780943212252
 10
42.49999999999966
 20
111.74780943212252
  0
LINE
  5
B0
330
17
100
AcDbEntity
  8
Layer
100
AcDbLine
 10
332.49999999999966
 20
112.41521393988961
 30
0.0
 11
332.49999999999966
 21
116.41521393988961
 31
0.0
  0
LINE
  5
B1
330
17
100
AcDbEntity
  8
Layer
100
AcDbLine
 10
332.49999999999966
 20
63.9074656120933
 30
0.0
 11
332.49999999999966
 21
59.9074656120933
 31
0.0
  0
LINE
  5
B2
330
17
100
AcDbEntity
  8
Layer
100
AcDbLine
 10
332.49999999999966
 20
77.90901527765256
 30
0.0
 11
332.49999999999966
 21
66.90901527765256
 31
0.0
  0
LWPOLYLINE
  5
B3
330
17
100
AcDbEntity
  8
Layer
100
AcDbPolyline
 90
5
 70
0
 10
337.49999999999966
 20
67.40901527765256
 10
327.49999999999966
 20
67.40901527765256
 10
327.49999999999966
 20
77.40901527765256
 10
337.49999999999966
 20
77.40901527765256
 10
337.49999999999966
 20
67.40901527765256
  0
LINE
  5
B4
330
17
100
AcDbEntity
  8
Layer
100
AcDbLine
 10
332.49999999999966
 20
93.66133977599145
 30
0.0
 11
332.49999999999966
 21
82.66133977599145
 31
0.0
  0
LWPOLYLINE
  5
B5
330
17
100
AcDbEntity
  8
Layer
100
AcDbPolyline
 90
5
 70
0
 10
337.49999999999966
 20
83.16133977599145
 10
327.49999999999966
 20
83.16133977599145
 10
327.49999999999966
 20
93.16133977599145
 10
337.49999999999966
 20
93.16133977599145
 10
337.49999999999966
 20
83.16133977599145
  0
LINE
  5
B6
330
17
100
AcDbEntity
  8
Layer
100
AcDbLine
 10
332.49999999999966
 20
109.41366427433036
 30
0.0
 11
332.49999999999966
 21
98.41366427433036
 31
0.0
  0
LWPOLYLINE
  5
B7
330
17
100
AcDbEntity
  8
Layer
100
AcDbPolyline
 90
5
 70
0
 10
337.49999999999966
 20
98.91366427433036
 10
327.49999999999966
 20
98.91366427433036
 10
327.49999999999966
 20
108.91366427433036
 10
337.49999999999966
 20
108.91366427433036
 10
337.49999999999966
 20
98.91366427433036
  0
ENDSEC
  0
SECTION
  2
OBJECTS
  0
DICTIONARY
  5
A
330
0
100
AcDbDictionary
280
0
281
1
  3
ACAD_COLOR
350
B
  3
ACAD_GROUP
350
C
  3
ACAD_LAYOUT
350
D
  3
ACAD_MATERIAL
350
E
  3
ACAD_MLEADERSTYLE
350
F
  3
ACAD_MLINESTYLE
350
10
  3
ACAD_PLOTSETTINGS
350
11
  3
ACAD_PLOTSTYLENAME
350
12
  3
ACAD_SCALELIST
350
14
  3
ACAD_TABLESTYLE
350
15
  3
ACAD_VISUALSTYLE
350
16
  3
EZDXF_META
350
2D
  0
DICTIONARY
  5
B
330
A
100
AcDbDictionary
280
0
281
1
  0
DICTIONARY
  5
C
330
A
100
AcDbDictionary
280
0
281
1
  0
DICTIONARY
  5
D
330
A
100
AcDbDictionary
280
0
281
1
  3
Model
350
1A
  3
Layout1
350
1E
  0
DICTIONARY
  5
E
330
A
100
AcDbDictionary
280
0
281
1
  3
ByBlock
350
1F
  3
ByLayer
350
20
  3
Global
350
21
  0
DICTIONARY
  5
F
330
A
100
AcDbDictionary
280
0
281
1
  3
Standard
350
2C
  0
DICTIONARY
  5
10
330
A
100
AcDbDictionary
280
0
281
1
  3
Standard
350
22
  0
DICTIONARY
  5
11
330
A
100
AcDbDictionary
280
0
281
1
  0
ACDBDICTIONARYWDFLT
  5
12
330
A
100
AcDbDictionary
280
0
281
1
  3
Normal
350
13
100
AcDbDictionaryWithDefault
340
13
  0
ACDBPLACEHOLDER
  5
13
330
12
  0
DICTIONARY
  5
14
330
A
100
AcDbDictionary
280
0
281
1
  0
DICTIONARY
  5
15
330
A
100
AcDbDictionary
280
0
281
1
  0
DICTIONARY
  5
16
330
A
100
AcDbDictionary
280
0
281
1
  3
2dWireframe
350
5A
  3
Basic
350
5B
  3
Brighten
350
5C
  3
ColorChange
350
5D
  3
Conceptual
350
5E
  3
Dim
350
5F
  3
EdgeColorOff
350
60
  3
Facepattern
350
61
  3
Flat
350
62
  3
FlatWithEdges
350
63
  3
Gouraud
350
64
  3
GouraudWithEdges
350
65
  3
Hidden
350
66
  3
JitterOff
350
67
  3
Linepattern
350
68
  3
Modeling
350
69
  3
OverhangOff
350
6A
  3
Realistic
350
6B
  3
Shaded
350
6C
  3
Shaded with edges
350
6D
  3
Shades of Gray
350
6E
  3
Sketchy
350
6F
  3
Thicken
350
70
  3
Wireframe
350
71
  3
X-Ray
350
72
  0
LAYOUT
  5
1A
330
D
100
AcDbPlotSettings
  1

  2
Adobe PDF
  4
A3
  6

 40
7.5
 41
20.0
 42
7.5
 43
20.0
 44
420.0
 45
297.0
 46
0.0
 47
0.0
 48
0.0
 49
0.0
140
0.0
141
0.0
142
1.0
143
1.0
 70
1024
 72
1
 73
0
 74
5
  7

 75
16
 76
0
 77
2
 78
300
147
1.0
148
0.0
149
0.0
100
AcDbLayout
  1
Model
 70
1
 71
0
 10
0.0
 20
0.0
 11
420.0
 21
297.0
 12
0.0
 22
0.0
 32
0.0
 14
1e+20
 24
1e+20
 34
1e+20
 15
-1e+20
 25
-1e+20
 35
-1e+20
146
0.0
 13
0.0
 23
0.0
 33
0.0
 16
1.0
 26
0.0
 36
0.0
 17
0.0
 27
1.0
 37
0.0
 76
1
330
17
  0
LAYOUT
  5
1E
330
D
100
AcDbPlotSettings
  1

  2
Adobe PDF
  4
A3
  6

 40
7.5
 41
20.0
 42
7.5
 43
20.0
 44
420.0
 45
297.0
 46
0.0
 47
0.0
 48
0.0
 49
0.0
140
0.0
141
0.0
142
1.0
143
1.0
 70
0
 72
1
 73
0
 74
5
  7

 75
16
 76
0
 77
2
 78
300
147
1.0
148
0.0
149
0.0
100
AcDbLayout
  1
Layout1
 70
1
 71
1
 10
0.0
 20
0.0
 11
420.0
 21
297.0
 12
0.0
 22
0.0
 32
0.0
 14
1e+20
 24
1e+20
 34
1e+20
 15
-1e+20
 25
-1e+20
 35
-1e+20
146
0.0
 13
0.0
 23
0.0
 33
0.0
 16
1.0
 26
0.0
 36
0.0
 17
0.0
 27
1.0
 37
0.0
 76
1
330
1B
  0
MATERIAL
  5
1F
102
{ACAD_REACTORS
330
E
102
}
330
E
100
AcDbMaterial
  1
ByBlock
  2

 70
0
 40
1.0
 71
1
 41
1.0
 91
-1023410177
 42
1.0
 72
1
  3

 73
1
 74
1
 75
1
 44
0.5
 73
0
 45
1.0
 46
1.0
 77
1
  4

 78
1
 79
1
170
1
 48
1.0
171
1
  6

172
1
173
1
174
1
140
1.0
141
1.0
175
1
  7

176
1
177
1
178
1
143
1.0
179
1
  8

270
1
271
1
272
1
145
1.0
146
1.0
273
1
  9

274
1
275
1
276
1
 42
1.0
 72
1
  3

 73
1
 74
1
 75
1
 94
63
  0
MATERIAL
  5
20
102
{ACAD_REACTORS
330
E
102
}
330
E
100
AcDbMaterial
  1
ByLayer
  2

 70
0
 40
1.0
 71
1
 41
1.0
 91
-1023410177
 42
1.0
 72
1
  3

 73
1
 74
1
 75
1
 44
0.5
 73
0
 45
1.0
 46
1.0
 77
1
  4

 78
1
 79
1
170
1
 48
1.0
171
1
  6

172
1
173
1
174
1
140
1.0
141
1.0
175
1
  7

176
1
177
1
178
1
143
1.0
179
1
  8

270
1
271
1
272
1
145
1.0
146
1.0
273
1
  9

274
1
275
1
276
1
 42
1.0
 72
1
  3

 73
1
 74
1
 75
1
 94
63
  0
MATERIAL
  5
21
102
{ACAD_REACTORS
330
E
102
}
330
E
100
AcDbMaterial
  1
Global
  2

 70
0
 40
1.0
 71
1
 41
1.0
 91
-1023410177
 42
1.0
 72
1
  3

 73
1
 74
1
 75
1
 44
0.5
 73
0
 45
1.0
 46
1.0
 77
1
  4

 78
1
 79
1
170
1
 48
1.0
171
1
  6

172
1
173
1
174
1
140
1.0
141
1.0
175
1
  7

176
1
177
1
178
1
143
1.0
179
1
  8

270
1
271
1
272
1
145
1.0
146
1.0
273
1
  9

274
1
275
1
276
1
 42
1.0
 72
1
  3

 73
1
 74
1
 75
1
 94
63
  0
MLINESTYLE
  5
22
102
{ACAD_REACTORS
330
10
102
}
330
10
100
AcDbMlineStyle
  2
Standard
 70
0
  3

 62
256
 51
90.0
 52
90.0
 71
2
 49
0.5
 62
256
  6
BYLAYER
 49
-0.5
 62
256
  6
BYLAYER
  0
MLEADERSTYLE
  5
2C
102
{ACAD_REACTORS
330
F
102
}
330
F
100
AcDbMLeaderStyle
179
2
170
2
171
1
172
0
 90
2
 40
0.0
 41
0.0
173
1
 91
-1056964608
 92
-2
290
1
 42
2.0
291
1
 43
8.0
  3
Standard
 44
4.0
300

342
29
174
1
175
1
176
0
178
1
 93
-1056964608
 45
4.0
292
0
297
0
 46
4.0
 94
-1056964608
 47
1.0
 49
1.0
140
1.0
294
1
141
0.0
177
0
142
1.0
295
0
296
0
143
3.75
271
0
272
9
273
9
  0
DICTIONARY
  5
2D
330
A
100
AcDbDictionary
281
1
  3
CREATED_BY_EZDXF
350
2E
  3
WRITTEN_BY_EZDXF
350
BA
  0
DICTIONARYVAR
  5
2E
330
2D
100
DictionaryVariables
280
0
  1
1.1.0 @ 2024-03-26T01:33:50.170335+00:00
  0
VISUALSTYLE
  5
5A
102
{ACAD_REACTORS
330
16
102
}
330
16
100
AcDbVisualStyle
  2
2dWireframe
 70
4
 90
0
 40
0.6
 62
7
290
0
291
0
  0
VISUALSTYLE
  5
5B
102
{ACAD_REACTORS
330
16
102
}
330
16
100
AcDbVisualStyle
  2
Basic
 70
7
 90
1
 40
0.6
 62
7
290
0
291
1
  0
VISUALSTYLE
  5
5C
102
{ACAD_REACTORS
330
16
102
}
330
16
100
AcDbVisualStyle
  2
Brighten
 70
12
 90
2
 40
0.6
 62
7
290
0
291
1
  0
VISUALSTYLE
  5
5D
102
{ACAD_REACTORS
330
16
102
}
330
16
100
AcDbVisualStyle
  2
ColorChange
 70
16
 90
2
 40
0.6
 62
8
290
0
291
1
  0
VISUALSTYLE
  5
5E
102
{ACAD_REACTORS
330
16
102
}
330
16
100
AcDbVisualStyle
  2
Conceptual
 70
9
 90
3
 40
0.6
 62
7
290
0
291
0
  0
VISUALSTYLE
  5
5F
102
{ACAD_REACTORS
330
16
102
}
330
16
100
AcDbVisualStyle
  2
Dim
 70
11
 90
2
 40
0.6
 62
7
290
0
291
1
  0
VISUALSTYLE
  5
60
102
{ACAD_REACTORS
330
16
102
}
330
16
100
AcDbVisualStyle
  2
EdgeColorOff
 70
22
 90
2
 40
0.6
 62
7
290
0
291
1
  0
VISUALSTYLE
  5
61
102
{ACAD_REACTORS
330
16
102
}
330
16
100
AcDbVisualStyle
  2
Facepattern
 70
15
 90
2
 40
0.6
 62
7
290
0
291
1
  0
VISUALSTYLE
  5
62
102
{ACAD_REACTORS
330
16
102
}
330
16
100
AcDbVisualStyle
  2
Flat
 70
0
 90
2
 40
0.6
 62
7
290
0
291
1
  0
VISUALSTYLE
  5
63
102
{ACAD_REACTORS
330
16
102
}
330
16
100
AcDbVisualStyle
  2
FlatWithEdges
 70
1
 90
2
 40
0.6
 62
7
290
0
291
1
  0
VISUALSTYLE
  5
64
102
{ACAD_REACTORS
330
16
102
}
330
16
100
AcDbVisualStyle
  2
Gouraud
 70
2
 90
2
 40
0.6
 62
7
290
0
291
1
  0
VISUALSTYLE
  5
65
102
{ACAD_REACTORS
330
16
102
}
330
16
100
AcDbVisualStyle
  2
GouraudWithEdges
 70
3
 90
2
 40
0.6
 62
7
290
0
291
1
  0
VISUALSTYLE
  5
66
102
{ACAD_REACTORS
330
16
102
}
330
16
100
AcDbVisualStyle
  2
Hidden
 70
6
 90
1
 40
0.6
 62
7
290
0
291
0
  0
VISUALSTYLE
  5
67
102
{ACAD_REACTORS
330
16
102
}
330
16
100
AcDbVisualStyle
  2
JitterOff
 70
20
 90
2
 40
0.6
 62
7
290
0
291
1
  0
VISUALSTYLE
  5
68
102
{ACAD_REACTORS
330
16
102
}
330
16
100
AcDbVisualStyle
  2
Linepattern
 70
14
 90
2
 40
0.6
 62
7
290
0
291
1
  0
VISUALSTYLE
  5
69
102
{ACAD_REACTORS
330
16
102
}
330
16
100
AcDbVisualStyle
  2
Modeling
 70
10
 90
2
 40
0.6
 62
7
290
0
291
0
  0
VISUALSTYLE
  5
6A
102
{ACAD_REACTORS
330
16
102
}
330
16
100
AcDbVisualStyle
  2
OverhangOff
 70
21
 90
2
 40
0.6
 62
7
290
0
291
1
  0
VISUALSTYLE
  5
6B
102
{ACAD_REACTORS
330
16
102
}
330
16
100
AcDbVisualStyle
  2
Realistic
 70
8
 90
2
 40
0.6
 62
7
290
0
291
0
  0
VISUALSTYLE
  5
6C
102
{ACAD_REACTORS
330
16
102
}
330
16
100
AcDbVisualStyle
  2
Shaded
 70
27
 90
2
 40
0.6
 62
7
290
0
291
0
  0
VISUALSTYLE
  5
6D
102
{ACAD_REACTORS
330
16
102
}
330
16
100
AcDbVisualStyle
  2
Shaded with edges
 70
26
 90
2
 40
0.6
 62
7
290
0
291
0
  0
VISUALSTYLE
  5
6E
102
{ACAD_REACTORS
330
16
102
}
330
16
100
AcDbVisualStyle
  2
Shades of Gray
 70
23
 90
2
 40
0.6
 62
7
290
0
291
0
  0
VISUALSTYLE
  5
6F
102
{ACAD_REACTORS
330
16
102
}
330
16
100
AcDbVisualStyle
  2
Sketchy
 70
24
 90
1
 40
0.6
 62
7
290
0
291
0
  0
VISUALSTYLE
  5
70
102
{ACAD_REACTORS
330
16
102
}
330
16
100
AcDbVisualStyle
  2
Thicken
 70
13
 90
2
 40
0.6
 62
7
290
0
291
1
  0
VISUALSTYLE
  5
71
102
{ACAD_REACTORS
330
16
102
}
330
16
100
AcDbVisualStyle
  2
Wireframe
 70
5
 90
0
 40
0.6
 62
7
290
0
291
0
  0
VISUALSTYLE
  5
72
102
{ACAD_REACTORS
330
16
102
}
330
16
100
AcDbVisualStyle
  2
X-Ray
 70
25
 90
2
 40
0.5
 62
7
290
0
291
0
  0
DICTIONARYVAR
  5
BA
330
2D
100
DictionaryVariables
280
0
  1
1.1.0 @ 2024-03-26T01:33:50.189588+00:00
  0
ENDSEC
  0
EOF
