  0
SECTION
  2
HEADER
  9
$ACADVER
  1
AC1021
  9
$ACADMAINTVER
 70
25
  9
$DWGCODEPAGE
  3
ANSI_1252
  9
$LASTSAVEDBY
  1
ezdxf
  9
$INSBASE
 10
0.0
 20
0.0
 30
0.0
  9
$EXTMIN
 10
1e+20
 20
1e+20
 30
1e+20
  9
$EXTMAX
 10
-1e+20
 20
-1e+20
 30
-1e+20
  9
$LIMMIN
 10
0.0
 20
0.0
  9
$LIMMAX
 10
420.0
 20
297.0
  9
$ORTHOMODE
 70
0
  9
$REGENMODE
 70
1
  9
$FILLMODE
 70
1
  9
$QTEXTMODE
 70
0
  9
$MIRRTEXT
 70
1
  9
$LTSCALE
 40
1.0
  9
$ATTMODE
 70
1
  9
$TEXTSIZE
 40
2.5
  9
$TRACEWID
 40
1.0
  9
$TEXTSTYLE
  7
OpenSans
  9
$CLAYER
  8
0
  9
$CELTYPE
  6
ByLayer
  9
$CECOLOR
 62
256
  9
$CELTSCALE
 40
1.0
  9
$DISPSILH
 70
0
  9
$DIMSCALE
 40
1.0
  9
$DIMASZ
 40
0.175
  9
$DIMEXO
 40
0.125
  9
$DIMDLI
 40
3.75
  9
$DIMRND
 40
0.0
  9
$DIMDLE
 40
0.0
  9
$DIMEXE
 40
0.375
  9
$DIMTP
 40
0.0
  9
$DIMTM
 40
0.0
  9
$DIMTXT
 40
0.25
  9
$DIMCEN
 40
2.5
  9
$DIMTSZ
 40
0.0
  9
$DIMTOL
 70
0
  9
$DIMLIM
 70
0
  9
$DIMTIH
 70
0
  9
$DIMTOH
 70
0
  9
$DIMSE1
 70
0
  9
$DIMSE2
 70
0
  9
$DIMTAD
 70
1
  9
$DIMZIN
 70
12
  9
$DIMBLK
  1
ARCHTICK
  9
$DIMASO
 70
1
  9
$DIMSHO
 70
1
  9
$DIMPOST
  1

  9
$DIMAPOST
  1

  9
$DIMALT
 70
0
  9
$DIMALTD
 70
3
  9
$DIMALTF
 40
0.03937007874
  9
$DIMLFAC
 40
100.0
  9
$DIMTOFL
 70
1
  9
$DIMTVP
 40
0.0
  9
$DIMTIX
 70
0
  9
$DIMSOXD
 70
0
  9
$DIMSAH
 70
0
  9
$DIMBLK1
  1

  9
$DIMBLK2
  1

  9
$DIMSTYLE
  2
EZDXF
  9
$DIMCLRD
 70
0
  9
$DIMCLRE
 70
0
  9
$DIMCLRT
 70
0
  9
$DIMTFAC
 40
0.5
  9
$DIMGAP
 40
0.1
  9
$DIMJUST
 70
0
  9
$DIMSD1
 70
0
  9
$DIMSD2
 70
0
  9
$DIMTOLJ
 70
0
  9
$DIMTZIN
 70
8
  9
$DIMALTZ
 70
0
  9
$DIMALTTZ
 70
0
  9
$DIMUPT
 70
1
  9
$DIMDEC
 70
2
  9
$DIMTDEC
 70
2
  9
$DIMALTU
 70
2
  9
$DIMALTTD
 70
3
  9
$DIMTXSTY
  7
OpenSansCondensed-Light
  9
$DIMAUNIT
 70
0
  9
$DIMADEC
 70
2
  9
$DIMALTRND
 40
0.0
  9
$DIMAZIN
 70
3
  9
$DIMDSEP
 70
46
  9
$DIMATFIT
 70
3
  9
$DIMFRAC
 70
0
  9
$DIMLDRBLK
  1

  9
$DIMLUNIT
 70
2
  9
$DIMLWD
 70
-2
  9
$DIMLWE
 70
-2
  9
$DIMTMOVE
 70
2
  9
$DIMFXL
 40
1.0
  9
$DIMFXLON
 70
0
  9
$DIMJOGANG
 40
0.785398163397
  9
$DIMTFILL
 70
0
  9
$DIMTFILLCLR
 70
0
  9
$DIMARCSYM
 70
0
  9
$DIMLTYPE
  6

  9
$DIMLTEX1
  6

  9
$DIMLTEX2
  6

  9
$LUNITS
 70
2
  9
$LUPREC
 70
4
  9
$SKETCHINC
 40
1.0
  9
$FILLETRAD
 40
10.0
  9
$AUNITS
 70
0
  9
$AUPREC
 70
2
  9
$MENU
  1
.
  9
$ELEVATION
 40
0.0
  9
$PELEVATION
 40
0.0
  9
$THICKNESS
 40
0.0
  9
$LIMCHECK
 70
0
  9
$CHAMFERA
 40
0.0
  9
$CHAMFERB
 40
0.0
  9
$CHAMFERC
 40
0.0
  9
$CHAMFERD
 40
0.0
  9
$SKPOLY
 70
0
  9
$TDCREATE
 40
2460396.440138889
  9
$TDUCREATE
 40
2458532.153996898
  9
$TDUPDATE
 40
2460396.440138889
  9
$TDUUPDATE
 40
2458532.1544311
  9
$TDINDWG
 40
0.0
  9
$TDUSRTIMER
 40
0.0
  9
$USRTIMER
 70
1
  9
$ANGBASE
 50
0.0
  9
$ANGDIR
 70
0
  9
$PDMODE
 70
0
  9
$PDSIZE
 40
0.0
  9
$PLINEWID
 40
0.0
  9
$SPLFRAME
 70
0
  9
$SPLINETYPE
 70
6
  9
$SPLINESEGS
 70
8
  9
$HANDSEED
  5
BB
  9
$SURFTAB1
 70
6
  9
$SURFTAB2
 70
6
  9
$SURFTYPE
 70
6
  9
$SURFU
 70
6
  9
$SURFV
 70
6
  9
$UCSBASE
  2

  9
$UCSNAME
  2

  9
$UCSORG
 10
0.0
 20
0.0
 30
0.0
  9
$UCSXDIR
 10
1.0
 20
0.0
 30
0.0
  9
$UCSYDIR
 10
0.0
 20
1.0
 30
0.0
  9
$UCSORTHOREF
  2

  9
$UCSORTHOVIEW
 70
0
  9
$UCSORGTOP
 10
0.0
 20
0.0
 30
0.0
  9
$UCSORGBOTTOM
 10
0.0
 20
0.0
 30
0.0
  9
$UCSORGLEFT
 10
0.0
 20
0.0
 30
0.0
  9
$UCSORGRIGHT
 10
0.0
 20
0.0
 30
0.0
  9
$UCSORGFRONT
 10
0.0
 20
0.0
 30
0.0
  9
$UCSORGBACK
 10
0.0
 20
0.0
 30
0.0
  9
$PUCSBASE
  2

  9
$PUCSNAME
  2

  9
$PUCSORG
 10
0.0
 20
0.0
 30
0.0
  9
$PUCSXDIR
 10
1.0
 20
0.0
 30
0.0
  9
$PUCSYDIR
 10
0.0
 20
1.0
 30
0.0
  9
$PUCSORTHOREF
  2

  9
$PUCSORTHOVIEW
 70
0
  9
$PUCSORGTOP
 10
0.0
 20
0.0
 30
0.0
  9
$PUCSORGBOTTOM
 10
0.0
 20
0.0
 30
0.0
  9
$PUCSORGLEFT
 10
0.0
 20
0.0
 30
0.0
  9
$PUCSORGRIGHT
 10
0.0
 20
0.0
 30
0.0
  9
$PUCSORGFRONT
 10
0.0
 20
0.0
 30
0.0
  9
$PUCSORGBACK
 10
0.0
 20
0.0
 30
0.0
  9
$USERI1
 70
0
  9
$USERI2
 70
0
  9
$USERI3
 70
0
  9
$USERI4
 70
0
  9
$USERI5
 70
0
  9
$USERR1
 40
0.0
  9
$USERR2
 40
0.0
  9
$USERR3
 40
0.0
  9
$USERR4
 40
0.0
  9
$USERR5
 40
0.0
  9
$WORLDVIEW
 70
1
  9
$SHADEDGE
 70
3
  9
$SHADEDIF
 70
70
  9
$TILEMODE
 70
1
  9
$MAXACTVP
 70
64
  9
$PINSBASE
 10
0.0
 20
0.0
 30
0.0
  9
$PLIMCHECK
 70
0
  9
$PEXTMIN
 10
1e+20
 20
1e+20
 30
1e+20
  9
$PEXTMAX
 10
-1e+20
 20
-1e+20
 30
-1e+20
  9
$PLIMMIN
 10
0.0
 20
0.0
  9
$PLIMMAX
 10
420.0
 20
297.0
  9
$UNITMODE
 70
0
  9
$VISRETAIN
 70
1
  9
$PLINEGEN
 70
0
  9
$PSLTSCALE
 70
1
  9
$TREEDEPTH
 70
3020
  9
$CMLSTYLE
  2
Standard
  9
$CMLJUST
 70
0
  9
$CMLSCALE
 40
20.0
  9
$PROXYGRAPHICS
 70
1
  9
$MEASUREMENT
 70
1
  9
$CELWEIGHT
370
-1
  9
$ENDCAPS
280
0
  9
$JOINSTYLE
280
0
  9
$LWDISPLAY
290
0
  9
$INSUNITS
 70
6
  9
$HYPERLINKBASE
  1

  9
$STYLESHEET
  1

  9
$XEDIT
290
1
  9
$CEPSNTYPE
380
0
  9
$PSTYLEMODE
290
1
  9
$FINGERPRINTGUID
  2
{B3014124-D011-4C60-B68C-E7D3663CADBA}
  9
$VERSIONGUID
  2
{BB033B40-61CB-4D71-9C56-5905ED7E5C4D}
  9
$EXTNAMES
290
1
  9
$PSVPSCALE
 40
0.0
  9
$OLESTARTUP
290
0
  9
$SORTENTS
280
127
  9
$INDEXCTL
280
0
  9
$HIDETEXT
280
1
  9
$XCLIPFRAME
290
0
  9
$HALOGAP
280
0
  9
$OBSCOLOR
 70
257
  9
$OBSLTYPE
280
0
  9
$INTERSECTIONDISPLAY
280
0
  9
$INTERSECTIONCOLOR
 70
257
  9
$DIMASSOC
280
2
  9
$PROJECTNAME
  1

  9
$CAMERADISPLAY
290
0
  9
$LENSLENGTH
 40
50.0
  9
$CAMERAHEIGHT
 40
0.0
  9
$STEPSPERSEC
 40
24.0
  9
$STEPSIZE
 40
100.0
  9
$3DDWFPREC
 40
2.0
  9
$PSOLWIDTH
 40
0.005
  9
$PSOLHEIGHT
 40
0.08
  9
$LOFTANG1
 40
1.570796326795
  9
$LOFTANG2
 40
1.570796326795
  9
$LOFTMAG1
 40
0.0
  9
$LOFTMAG2
 40
0.0
  9
$LOFTPARAM
 70
7
  9
$LOFTNORMALS
280
1
  9
$LATITUDE
 40
37.795
  9
$LONGITUDE
 40
-122.394
  9
$NORTHDIRECTION
 40
0.0
  9
$TIMEZONE
 70
-8000
  9
$LIGHTGLYPHDISPLAY
280
1
  9
$TILEMODELIGHTSYNCH
280
1
  9
$CMATERIAL
347
20
  9
$SOLIDHIST
280
0
  9
$SHOWHIST
280
1
  9
$DWFFRAME
280
2
  9
$DGNFRAME
280
2
  9
$REALWORLDSCALE
290
1
  9
$INTERFERECOLOR
 62
256
  9
$CSHADOW
280
0
  9
$SHADOWPLANELOCATION
 40
0.0
  0
ENDSEC
  0
SECTION
  2
CLASSES
  0
CLASS
  1
ACDBDICTIONARYWDFLT
  2
AcDbDictionaryWithDefault
  3
ObjectDBX Classes
 90
0
 91
0
280
0
281
0
  0
CLASS
  1
SUN
  2
AcDbSun
  3
SCENEOE
 90
1153
 91
0
280
0
281
0
  0
CLASS
  1
VISUALSTYLE
  2
AcDbVisualStyle
  3
ObjectDBX Classes
 90
4095
 91
0
280
0
281
0
  0
CLASS
  1
MATERIAL
  2
AcDbMaterial
  3
ObjectDBX Classes
 90
1153
 91
0
280
0
281
0
  0
CLASS
  1
SCALE
  2
AcDbScale
  3
ObjectDBX Classes
 90
1153
 91
0
280
0
281
0
  0
CLASS
  1
TABLESTYLE
  2
AcDbTableStyle
  3
ObjectDBX Classes
 90
4095
 91
0
280
0
281
0
  0
CLASS
  1
MLEADERSTYLE
  2
AcDbMLeaderStyle
  3
ACDB_MLEADERSTYLE_CLASS
 90
4095
 91
0
280
0
281
0
  0
CLASS
  1
DICTIONARYVAR
  2
AcDbDictionaryVar
  3
ObjectDBX Classes
 90
0
 91
0
280
0
281
0
  0
CLASS
  1
CELLSTYLEMAP
  2
AcDbCellStyleMap
  3
ObjectDBX Classes
 90
1152
 91
0
280
0
281
0
  0
CLASS
  1
MENTALRAYRENDERSETTINGS
  2
AcDbMentalRayRenderSettings
  3
SCENEOE
 90
1024
 91
0
280
0
281
0
  0
CLASS
  1
ACDBDETAILVIEWSTYLE
  2
AcDbDetailViewStyle
  3
ObjectDBX Classes
 90
1025
 91
0
280
0
281
0
  0
CLASS
  1
ACDBSECTIONVIEWSTYLE
  2
AcDbSectionViewStyle
  3
ObjectDBX Classes
 90
1025
 91
0
280
0
281
0
  0
CLASS
  1
RASTERVARIABLES
  2
AcDbRasterVariables
  3
ISM
 90
0
 91
0
280
0
281
0
  0
CLASS
  1
LAYOUT
  2
AcDbLayout
  3
ObjectDBX Classes
 90
0
 91
0
280
0
281
0
  0
CLASS
  1
ACDBPLACEHOLDER
  2
AcDbPlaceHolder
  3
ObjectDBX Classes
 90
0
 91
0
280
0
281
0
  0
ENDSEC
  0
SECTION
  2
TABLES
  0
TABLE
  2
VPORT
  5
8
330
0
100
AcDbSymbolTable
 70
1
  0
VPORT
  5
23
330
8
100
AcDbSymbolTableRecord
100
AcDbViewportTableRecord
  2
*Active
 70
0
 10
0.0
 20
0.0
 11
1.0
 21
1.0
 12
0.0
 22
0.0
 13
0.0
 23
0.0
 14
0.5
 24
0.5
 15
0.5
 25
0.5
 16
0.0
 26
0.0
 36
1.0
 17
0.0
 27
0.0
 37
0.0
 40
1000.0
 41
1.34
 42
50.0
 43
0.0
 44
0.0
 50
0.0
 51
0.0
 71
0
 72
1000
 73
1
 74
3
 75
0
 76
0
 77
0
 78
0
281
0
 65
0
146
0.0
  0
ENDTAB
  0
TABLE
  2
LTYPE
  5
2
330
0
100
AcDbSymbolTable
 70
21
  0
LTYPE
  5
24
330
2
100
AcDbSymbolTableRecord
100
AcDbLinetypeTableRecord
  2
ByBlock
 70
0
  3

 72
65
 73
0
 40
0.0
  0
LTYPE
  5
25
330
2
100
AcDbSymbolTableRecord
100
AcDbLinetypeTableRecord
  2
ByLayer
 70
0
  3

 72
65
 73
0
 40
0.0
  0
LTYPE
  5
26
330
2
100
AcDbSymbolTableRecord
100
AcDbLinetypeTableRecord
  2
Continuous
 70
0
  3

 72
65
 73
0
 40
0.0
  0
LTYPE
  5
2F
330
2
100
AcDbSymbolTableRecord
100
AcDbLinetypeTableRecord
  2
CENTER
 70
0
  3
Center ____ _ ____ _ ____ _ ____ _ ____ _ ____
 72
65
 73
4
 40
5.08
 49
3.175
 74
0
 49
-0.635
 74
0
 49
0.635
 74
0
 49
-0.635
 74
0
  0
LTYPE
  5
30
330
2
100
AcDbSymbolTableRecord
100
AcDbLinetypeTableRecord
  2
CENTERX2
 70
0
  3
Center (2x) ________  __  ________  __  ________
 72
65
 73
4
 40
8.89
 49
6.35
 74
0
 49
-0.635
 74
0
 49
1.27
 74
0
 49
-0.635
 74
0
  0
LTYPE
  5
31
330
2
100
AcDbSymbolTableRecord
100
AcDbLinetypeTableRecord
  2
CENTER2
 70
0
  3
Center (.5x) ____ _ ____ _ ____ _ ____ _ ____
 72
65
 73
4
 40
2.54
 49
1.587
 74
0
 49
-0.318
 74
0
 49
0.318
 74
0
 49
-0.318
 74
0
  0
LTYPE
  5
32
330
2
100
AcDbSymbolTableRecord
100
AcDbLinetypeTableRecord
  2
DASHED
 70
0
  3
Dashed __ __ __ __ __ __ __ __ __ __ __ __ __ _
 72
65
 73
2
 40
1.524
 49
1.27
 74
0
 49
-0.254
 74
0
  0
LTYPE
  5
33
330
2
100
AcDbSymbolTableRecord
100
AcDbLinetypeTableRecord
  2
DASHEDX2
 70
0
  3
Dashed (2x) ____  ____  ____  ____  ____  ____
 72
65
 73
2
 40
3.048
 49
2.54
 74
0
 49
-0.508
 74
0
  0
LTYPE
  5
34
330
2
100
AcDbSymbolTableRecord
100
AcDbLinetypeTableRecord
  2
DASHED2
 70
0
  3
Dashed (.5x) _ _ _ _ _ _ _ _ _ _ _ _ _ _
 72
65
 73
2
 40
0.762
 49
0.635
 74
0
 49
-0.127
 74
0
  0
LTYPE
  5
35
330
2
100
AcDbSymbolTableRecord
100
AcDbLinetypeTableRecord
  2
PHANTOM
 70
0
  3
Phantom ______  __  __  ______  __  __  ______
 72
65
 73
6
 40
6.35
 49
3.175
 74
0
 49
-0.635
 74
0
 49
0.635
 74
0
 49
-0.635
 74
0
 49
0.635
 74
0
 49
-0.635
 74
0
  0
LTYPE
  5
36
330
2
100
AcDbSymbolTableRecord
100
AcDbLinetypeTableRecord
  2
PHANTOMX2
 70
0
  3
Phantom (2x)____________    ____    ____    ____________
 72
65
 73
6
 40
10.795
 49
6.35
 74
0
 49
-0.635
 74
0
 49
1.27
 74
0
 49
-0.635
 74
0
 49
1.27
 74
0
 49
-0.635
 74
0
  0
LTYPE
  5
37
330
2
100
AcDbSymbolTableRecord
100
AcDbLinetypeTableRecord
  2
PHANTOM2
 70
0
  3
Phantom (.5x) ___ _ _ ___ _ _ ___ _ _ ___ _ _ ___
 72
65
 73
6
 40
3.175
 49
1.587
 74
0
 49
-0.318
 74
0
 49
0.318
 74
0
 49
-0.318
 74
0
 49
0.318
 74
0
 49
-0.318
 74
0
  0
LTYPE
  5
38
330
2
100
AcDbSymbolTableRecord
100
AcDbLinetypeTableRecord
  2
DASHDOT
 70
0
  3
Dash dot __ . __ . __ . __ . __ . __ . __ . __
 72
65
 73
4
 40
3.556
 49
2.54
 74
0
 49
-0.508
 74
0
 49
0.0
 74
0
 49
-0.508
 74
0
  0
LTYPE
  5
39
330
2
100
AcDbSymbolTableRecord
100
AcDbLinetypeTableRecord
  2
DASHDOTX2
 70
0
  3
Dash dot (2x) ____  .  ____  .  ____  .  ____
 72
65
 73
4
 40
6.096
 49
5.08
 74
0
 49
-0.508
 74
0
 49
0.0
 74
0
 49
-0.508
 74
0
  0
LTYPE
  5
3A
330
2
100
AcDbSymbolTableRecord
100
AcDbLinetypeTableRecord
  2
DASHDOT2
 70
0
  3
Dash dot (.5x) _ . _ . _ . _ . _ . _ . _ . _
 72
65
 73
4
 40
1.778
 49
1.27
 74
0
 49
-0.254
 74
0
 49
0.0
 74
0
 49
-0.254
 74
0
  0
LTYPE
  5
3B
330
2
100
AcDbSymbolTableRecord
100
AcDbLinetypeTableRecord
  2
DOT
 70
0
  3
Dot .  .  .  .  .  .  .  .  .  .  .  .  .  .  .  .
 72
65
 73
2
 40
0.508
 49
0.0
 74
0
 49
-0.508
 74
0
  0
LTYPE
  5
3C
330
2
100
AcDbSymbolTableRecord
100
AcDbLinetypeTableRecord
  2
DOTX2
 70
0
  3
Dot (2x) .    .    .    .    .    .    .    . 
 72
65
 73
2
 40
1.016
 49
0.0
 74
0
 49
-1.016
 74
0
  0
LTYPE
  5
3D
330
2
100
AcDbSymbolTableRecord
100
AcDbLinetypeTableRecord
  2
DOT2
 70
0
  3
Dot (.5) . . . . . . . . . . . . . . . . . . . 
 72
65
 73
2
 40
0.254
 49
0.0
 74
0
 49
-0.254
 74
0
  0
LTYPE
  5
3E
330
2
100
AcDbSymbolTableRecord
100
AcDbLinetypeTableRecord
  2
DIVIDE
 70
0
  3
Divide __ . . __ . . __ . . __ . . __ . . __
 72
65
 73
6
 40
4.064
 49
2.54
 74
0
 49
-0.508
 74
0
 49
0.0
 74
0
 49
-0.508
 74
0
 49
0.0
 74
0
 49
-0.508
 74
0
  0
LTYPE
  5
3F
330
2
100
AcDbSymbolTableRecord
100
AcDbLinetypeTableRecord
  2
DIVIDEX2
 70
0
  3
Divide (2x) ____  . .  ____  . .  ____  . .  ____
 72
65
 73
6
 40
6.604
 49
5.08
 74
0
 49
-0.508
 74
0
 49
0.0
 74
0
 49
-0.508
 74
0
 49
0.0
 74
0
 49
-0.508
 74
0
  0
LTYPE
  5
40
330
2
100
AcDbSymbolTableRecord
100
AcDbLinetypeTableRecord
  2
DIVIDE2
 70
0
  3
Divide(.5x) _ . _ . _ . _ . _ . _ . _ . _
 72
65
 73
6
 40
2.032
 49
1.27
 74
0
 49
-0.254
 74
0
 49
0.0
 74
0
 49
-0.254
 74
0
 49
0.0
 74
0
 49
-0.254
 74
0
  0
ENDTAB
  0
TABLE
  2
LAYER
  5
1
330
0
100
AcDbSymbolTable
 70
3
  0
LAYER
  5
27
330
1
100
AcDbSymbolTableRecord
100
AcDbLayerTableRecord
  2
0
 70
0
 62
7
  6
Continuous
370
-3
390
13
347
21
  0
LAYER
  5
28
330
1
100
AcDbSymbolTableRecord
100
AcDbLayerTableRecord
  2
Defpoints
 70
0
 62
7
  6
Continuous
290
0
370
-3
390
13
347
21
  0
LAYER
  5
8A
330
1
100
AcDbSymbolTableRecord
100
AcDbLayerTableRecord
  2
Layer
 70
0
 62
1
  6
Continuous
370
50
390
13
347
21
  0
ENDTAB
  0
TABLE
  2
STYLE
  5
5
330
0
100
AcDbSymbolTable
 70
26
  0
STYLE
  5
29
330
5
100
AcDbSymbolTableRecord
100
AcDbTextStyleTableRecord
  2
Standard
 70
0
 40
0.0
 41
1.0
 50
0.0
 71
0
 42
2.5
  3
txt
  4

  0
STYLE
  5
41
330
5
100
AcDbSymbolTableRecord
100
AcDbTextStyleTableRecord
  2
OpenSans-Light
 70
0
 40
0.0
 41
1.0
 50
0.0
 71
0
 42
2.5
  3
OpenSans-Light.ttf
  4

  0
STYLE
  5
42
330
5
100
AcDbSymbolTableRecord
100
AcDbTextStyleTableRecord
  2
OpenSans-Light-Italic
 70
0
 40
0.0
 41
1.0
 50
0.0
 71
0
 42
2.5
  3
OpenSans-LightItalic.ttf
  4

  0
STYLE
  5
43
330
5
100
AcDbSymbolTableRecord
100
AcDbTextStyleTableRecord
  2
OpenSans
 70
0
 40
0.0
 41
1.0
 50
0.0
 71
0
 42
2.5
  3
OpenSans-Regular.ttf
  4

  0
STYLE
  5
44
330
5
100
AcDbSymbolTableRecord
100
AcDbTextStyleTableRecord
  2
OpenSans-Italic
 70
0
 40
0.0
 41
1.0
 50
0.0
 71
0
 42
2.5
  3
OpenSans-Italic.ttf
  4

  0
STYLE
  5
45
330
5
100
AcDbSymbolTableRecord
100
AcDbTextStyleTableRecord
  2
OpenSans-SemiBold
 70
0
 40
0.0
 41
1.0
 50
0.0
 71
0
 42
2.5
  3
OpenSans-SemiBold.ttf
  4

  0
STYLE
  5
46
330
5
100
AcDbSymbolTableRecord
100
AcDbTextStyleTableRecord
  2
OpenSans-SemiBoldItalic
 70
0
 40
0.0
 41
1.0
 50
0.0
 71
0
 42
2.5
  3
OpenSans-SemiBoldItalic.ttf
  4

  0
STYLE
  5
47
330
5
100
AcDbSymbolTableRecord
100
AcDbTextStyleTableRecord
  2
OpenSans-Bold
 70
0
 40
0.0
 41
1.0
 50
0.0
 71
0
 42
2.5
  3
OpenSans-Bold.ttf
  4

  0
STYLE
  5
48
330
5
100
AcDbSymbolTableRecord
100
AcDbTextStyleTableRecord
  2
OpenSans-BoldItalic
 70
0
 40
0.0
 41
1.0
 50
0.0
 71
0
 42
2.5
  3
OpenSans-BoldItalic.ttf
  4

  0
STYLE
  5
49
330
5
100
AcDbSymbolTableRecord
100
AcDbTextStyleTableRecord
  2
OpenSans-ExtraBold
 70
0
 40
0.0
 41
1.0
 50
0.0
 71
0
 42
2.5
  3
OpenSans-ExtraBold.ttf
  4

  0
STYLE
  5
4A
330
5
100
AcDbSymbolTableRecord
100
AcDbTextStyleTableRecord
  2
OpenSans-ExtraBoldItalic
 70
0
 40
0.0
 41
1.0
 50
0.0
 71
0
 42
2.5
  3
OpenSans-ExtraBoldItalic.ttf
  4

  0
STYLE
  5
4B
330
5
100
AcDbSymbolTableRecord
100
AcDbTextStyleTableRecord
  2
OpenSansCondensed-Bold
 70
0
 40
0.0
 41
1.0
 50
0.0
 71
0
 42
2.5
  3
OpenSansCondensed-Bold.ttf
  4

  0
STYLE
  5
4C
330
5
100
AcDbSymbolTableRecord
100
AcDbTextStyleTableRecord
  2
OpenSansCondensed-Light
 70
0
 40
0.0
 41
1.0
 50
0.0
 71
0
 42
2.5
  3
OpenSansCondensed-Light.ttf
  4

  0
STYLE
  5
4D
330
5
100
AcDbSymbolTableRecord
100
AcDbTextStyleTableRecord
  2
OpenSansCondensed-Italic
 70
0
 40
0.0
 41
1.0
 50
0.0
 71
0
 42
2.5
  3
OpenSansCondensed-LightItalic.ttf
  4

  0
STYLE
  5
4E
330
5
100
AcDbSymbolTableRecord
100
AcDbTextStyleTableRecord
  2
LiberationSans
 70
0
 40
0.0
 41
1.0
 50
0.0
 71
0
 42
2.5
  3
LiberationSans-Regular.ttf
  4

  0
STYLE
  5
4F
330
5
100
AcDbSymbolTableRecord
100
AcDbTextStyleTableRecord
  2
LiberationSans-Bold
 70
0
 40
0.0
 41
1.0
 50
0.0
 71
0
 42
2.5
  3
LiberationSans-Bold.ttf
  4

  0
STYLE
  5
50
330
5
100
AcDbSymbolTableRecord
100
AcDbTextStyleTableRecord
  2
LiberationSans-BoldItalic
 70
0
 40
0.0
 41
1.0
 50
0.0
 71
0
 42
2.5
  3
LiberationSans-BoldItalic.ttf
  4

  0
STYLE
  5
51
330
5
100
AcDbSymbolTableRecord
100
AcDbTextStyleTableRecord
  2
LiberationSans-Italic
 70
0
 40
0.0
 41
1.0
 50
0.0
 71
0
 42
2.5
  3
LiberationSans-Italic.ttf
  4

  0
STYLE
  5
52
330
5
100
AcDbSymbolTableRecord
100
AcDbTextStyleTableRecord
  2
LiberationSerif
 70
0
 40
0.0
 41
1.0
 50
0.0
 71
0
 42
2.5
  3
LiberationSerif-Regular.ttf
  4

  0
STYLE
  5
53
330
5
100
AcDbSymbolTableRecord
100
AcDbTextStyleTableRecord
  2
LiberationSerif-Bold
 70
0
 40
0.0
 41
1.0
 50
0.0
 71
0
 42
2.5
  3
LiberationSerif-Bold.ttf
  4

  0
STYLE
  5
54
330
5
100
AcDbSymbolTableRecord
100
AcDbTextStyleTableRecord
  2
LiberationSerif-BoldItalic
 70
0
 40
0.0
 41
1.0
 50
0.0
 71
0
 42
2.5
  3
LiberationSerif-BoldItalic.ttf
  4

  0
STYLE
  5
55
330
5
100
AcDbSymbolTableRecord
100
AcDbTextStyleTableRecord
  2
LiberationSerif-Italic
 70
0
 40
0.0
 41
1.0
 50
0.0
 71
0
 42
2.5
  3
LiberationSerif-Italic.ttf
  4

  0
STYLE
  5
56
330
5
100
AcDbSymbolTableRecord
100
AcDbTextStyleTableRecord
  2
LiberationMono
 70
0
 40
0.0
 41
1.0
 50
0.0
 71
0
 42
2.5
  3
LiberationMono-Regular.ttf
  4

  0
STYLE
  5
57
330
5
100
AcDbSymbolTableRecord
100
AcDbTextStyleTableRecord
  2
LiberationMono-Bold
 70
0
 40
0.0
 41
1.0
 50
0.0
 71
0
 42
2.5
  3
LiberationMono-Bold.ttf
  4

  0
STYLE
  5
58
330
5
100
AcDbSymbolTableRecord
100
AcDbTextStyleTableRecord
  2
LiberationMono-BoldItalic
 70
0
 40
0.0
 41
1.0
 50
0.0
 71
0
 42
2.5
  3
LiberationMono-BoldItalic.ttf
  4

  0
STYLE
  5
59
330
5
100
AcDbSymbolTableRecord
100
AcDbTextStyleTableRecord
  2
LiberationMono-Italic
 70
0
 40
0.0
 41
1.0
 50
0.0
 71
0
 42
2.5
  3
LiberationMono-Italic.ttf
  4

  0
ENDTAB
  0
TABLE
  2
VIEW
  5
7
330
0
100
AcDbSymbolTable
 70
0
  0
ENDTAB
  0
TABLE
  2
UCS
  5
6
330
0
100
AcDbSymbolTable
 70
0
  0
ENDTAB
  0
TABLE
  2
APPID
  5
3
330
0
100
AcDbSymbolTable
 70
3
  0
APPID
  5
2A
330
3
100
AcDbSymbolTableRecord
100
AcDbRegAppTableRecord
  2
ACAD
 70
0
  0
APPID
  5
B8
330
3
100
AcDbSymbolTableRecord
100
AcDbRegAppTableRecord
  2
HATCHBACKGROUNDCOLOR
 70
0
  0
APPID
  5
B9
330
3
100
AcDbSymbolTableRecord
100
AcDbRegAppTableRecord
  2
EZDXF
 70
0
  0
ENDTAB
  0
TABLE
  2
DIMSTYLE
  5
4
330
0
100
AcDbSymbolTable
 70
12
100
AcDbDimStyleTable
  0
DIMSTYLE
105
2B
330
4
100
AcDbSymbolTableRecord
100
AcDbDimStyleTableRecord
  2
Standard
 70
0
 40
1.0
 41
2.5
 42
0.625
 43
3.75
 44
1.25
 45
0.0
 46
0.0
 47
0.0
 48
0.0
 49
2.5
140
2.5
141
2.5
142
0.0
143
0.03937007874
144
1.0
145
0.0
146
1.0
147
0.625
148
0.0
 69
0
 70
0
 71
0
 72
0
 73
0
 74
0
 75
0
 76
0
 77
1
 78
8
 79
3
170
0
171
3
172
1
173
0
174
0
175
0
176
0
177
0
178
0
179
2
271
2
272
2
273
2
274
3
275
0
276
0
277
2
278
44
279
0
280
0
281
0
282
0
283
0
284
8
285
0
286
0
288
0
289
3
290
0
371
-2
372
-2
  0
DIMSTYLE
105
73
330
4
100
AcDbSymbolTableRecord
100
AcDbDimStyleTableRecord
  2
EZDXF
 70
0
 40
1.0
 41
0.175
 42
0.125
 43
3.75
 44
0.375
 45
0.0
 46
0.0
 47
0.0
 48
0.0
 49
2.5
140
0.25
141
2.5
142
0.0
143
0.03937007874
144
100.0
145
0.0
146
0.5
147
0.1
148
0.0
 69
0
 70
0
 71
0
 72
0
 73
0
 74
0
 75
0
 76
0
 77
1
 78
12
 79
3
170
0
171
3
172
1
173
0
174
0
175
0
176
0
177
0
178
0
179
2
271
2
272
2
273
2
274
3
275
0
276
0
277
2
278
46
279
2
280
0
281
0
282
0
283
0
284
8
285
0
286
0
288
1
289
3
290
0
340
4C
342
74
371
-2
372
-2
  0
DIMSTYLE
105
7C
330
4
100
AcDbSymbolTableRecord
100
AcDbDimStyleTableRecord
  2
EZ_M_100_H25_CM
 70
0
 40
1.0
 41
0.25
 42
0.125
 43
3.75
 44
0.375
 45
0.0
 46
0.0
 47
0.0
 48
0.0
 49
2.5
140
0.25
141
2.5
142
0.125
143
0.03937007874
144
100.0
145
0.0
146
0.5
147
0.1
148
0.0
 69
0
 70
0
 71
0
 72
0
 73
0
 74
0
 75
0
 76
0
 77
1
 78
12
 79
3
170
0
171
3
172
1
173
0
174
0
175
0
176
0
177
0
178
0
179
2
271
2
272
2
273
2
274
3
275
0
276
0
277
2
278
46
279
2
280
0
281
0
282
0
283
0
284
8
285
0
286
0
288
1
289
3
290
0
340
4C
371
-2
372
-2
  0
DIMSTYLE
105
7D
330
4
100
AcDbSymbolTableRecord
100
AcDbDimStyleTableRecord
  2
EZ_M_50_H25_CM
 70
0
 40
1.0
 41
0.125
 42
0.0625
 43
3.75
 44
0.1875
 45
0.0
 46
0.0
 47
0.0
 48
0.0
 49
2.5
140
0.125
141
2.5
142
0.0625
143
0.03937007874
144
100.0
145
0.0
146
0.5
147
0.05
148
0.0
 69
0
 70
0
 71
0
 72
0
 73
0
 74
0
 75
0
 76
0
 77
1
 78
12
 79
3
170
0
171
3
172
1
173
0
174
0
175
0
176
0
177
0
178
0
179
2
271
2
272
2
273
2
274
3
275
0
276
0
277
2
278
46
279
2
280
0
281
0
282
0
283
0
284
8
285
0
286
0
288
1
289
3
290
0
340
4C
371
-2
372
-2
  0
DIMSTYLE
105
7E
330
4
100
AcDbSymbolTableRecord
100
AcDbDimStyleTableRecord
  2
EZ_M_25_H25_CM
 70
0
 40
1.0
 41
0.0625
 42
0.03125
 43
3.75
 44
0.09375
 45
0.0
 46
0.0
 47
0.0
 48
0.0
 49
2.5
140
0.0625
141
2.5
142
0.03125
143
0.03937007874
144
100.0
145
0.0
146
0.5
147
0.025
148
0.0
 69
0
 70
0
 71
0
 72
0
 73
0
 74
0
 75
0
 76
0
 77
1
 78
12
 79
3
170
0
171
3
172
1
173
0
174
0
175
0
176
0
177
0
178
0
179
2
271
2
272
2
273
2
274
3
275
0
276
0
277
2
278
46
279
2
280
0
281
0
282
0
283
0
284
8
285
0
286
0
288
1
289
3
290
0
340
4C
371
-2
372
-2
  0
DIMSTYLE
105
7F
330
4
100
AcDbSymbolTableRecord
100
AcDbDimStyleTableRecord
  2
EZ_M_20_H25_CM
 70
0
 40
1.0
 41
0.05
 42
0.025
 43
3.75
 44
0.07500000000000001
 45
0.0
 46
0.0
 47
0.0
 48
0.0
 49
2.5
140
0.05
141
2.5
142
0.025
143
0.03937007874
144
100.0
145
0.0
146
0.5
147
0.020000000000000004
148
0.0
 69
0
 70
0
 71
0
 72
0
 73
0
 74
0
 75
0
 76
0
 77
1
 78
12
 79
3
170
0
171
3
172
1
173
0
174
0
175
0
176
0
177
0
178
0
179
2
271
2
272
2
273
2
274
3
275
0
276
0
277
2
278
46
279
2
280
0
281
0
282
0
283
0
284
8
285
0
286
0
288
1
289
3
290
0
340
4C
371
-2
372
-2
  0
DIMSTYLE
105
80
330
4
100
AcDbSymbolTableRecord
100
AcDbDimStyleTableRecord
  2
EZ_M_10_H25_CM
 70
0
 40
1.0
 41
0.025
 42
0.0125
 43
3.75
 44
0.037500000000000006
 45
0.0
 46
0.0
 47
0.0
 48
0.0
 49
2.5
140
0.025
141
2.5
142
0.0125
143
0.03937007874
144
100.0
145
0.0
146
0.5
147
0.010000000000000002
148
0.0
 69
0
 70
0
 71
0
 72
0
 73
0
 74
0
 75
0
 76
0
 77
1
 78
12
 79
3
170
0
171
3
172
1
173
0
174
0
175
0
176
0
177
0
178
0
179
2
271
2
272
2
273
2
274
3
275
0
276
0
277
2
278
46
279
2
280
0
281
0
282
0
283
0
284
8
285
0
286
0
288
1
289
3
290
0
340
4C
371
-2
372
-2
  0
DIMSTYLE
105
81
330
4
100
AcDbSymbolTableRecord
100
AcDbDimStyleTableRecord
  2
EZ_M_5_H25_CM
 70
0
 40
1.0
 41
0.0125
 42
0.00625
 43
3.75
 44
0.018750000000000003
 45
0.0
 46
0.0
 47
0.0
 48
0.0
 49
2.5
140
0.0125
141
2.5
142
0.00625
143
0.03937007874
144
100.0
145
0.0
146
0.5
147
0.005000000000000001
148
0.0
 69
0
 70
0
 71
0
 72
0
 73
0
 74
0
 75
0
 76
0
 77
1
 78
12
 79
3
170
0
171
3
172
1
173
0
174
0
175
0
176
0
177
0
178
0
179
2
271
2
272
2
273
2
274
3
275
0
276
0
277
2
278
46
279
2
280
0
281
0
282
0
283
0
284
8
285
0
286
0
288
1
289
3
290
0
340
4C
371
-2
372
-2
  0
DIMSTYLE
105
82
330
4
100
AcDbSymbolTableRecord
100
AcDbDimStyleTableRecord
  2
EZ_M_1_H25_CM
 70
0
 40
1.0
 41
0.0025
 42
0.00125
 43
3.75
 44
0.00375
 45
0.0
 46
0.0
 47
0.0
 48
0.0
 49
2.5
140
0.0025
141
2.5
142
0.00125
143
0.03937007874
144
100.0
145
0.0
146
0.5
147
0.001
148
0.0
 69
0
 70
0
 71
0
 72
0
 73
0
 74
0
 75
0
 76
0
 77
1
 78
12
 79
3
170
0
171
3
172
1
173
0
174
0
175
0
176
0
177
0
178
0
179
2
271
2
272
2
273
2
274
3
275
0
276
0
277
2
278
46
279
2
280
0
281
0
282
0
283
0
284
8
285
0
286
0
288
1
289
3
290
0
340
4C
371
-2
372
-2
  0
DIMSTYLE
105
83
330
4
100
AcDbSymbolTableRecord
100
AcDbDimStyleTableRecord
  2
EZ_RADIUS
 70
0
 40
1.0
 41
0.25
 42
0.125
 43
3.75
 44
0.375
 45
0.0
 46
0.0
 47
0.0
 48
0.0
 49
2.5
140
0.25
141
0.0
142
0.0
143
0.03937007874
144
100.0
145
0.0
146
0.5
147
0.1
148
0.0
 69
0
 70
0
 71
0
 72
0
 73
0
 74
0
 75
0
 76
0
 77
1
 78
12
 79
3
170
0
171
3
172
0
173
0
174
0
175
0
176
0
177
0
178
0
179
2
271
2
272
2
273
2
274
3
275
0
276
0
277
2
278
46
279
1
280
0
281
0
282
0
283
0
284
8
285
0
286
0
288
1
289
3
290
0
340
4C
342
84
371
-2
372
-2
  0
DIMSTYLE
105
88
330
4
100
AcDbSymbolTableRecord
100
AcDbDimStyleTableRecord
  2
EZ_RADIUS_INSIDE
 70
0
 40
1.0
 41
0.25
 42
0.125
 43
3.75
 44
0.375
 45
0.0
 46
0.0
 47
0.0
 48
0.0
 49
2.5
140
0.25
141
0.0
142
0.0
143
0.03937007874
144
100.0
145
0.0
146
0.5
147
0.1
148
0.0
 69
0
 70
0
 71
0
 72
0
 73
0
 74
0
 75
0
 76
0
 77
0
 78
12
 79
3
170
0
171
3
172
0
173
0
174
1
175
0
176
0
177
0
178
0
179
2
271
2
272
2
273
2
274
3
275
0
276
0
277
2
278
46
279
0
280
0
281
0
282
0
283
0
284
8
285
0
286
0
288
1
289
0
290
0
340
4C
342
84
371
-2
372
-2
  0
DIMSTYLE
105
89
330
4
100
AcDbSymbolTableRecord
100
AcDbDimStyleTableRecord
  2
EZ_CURVED
 70
0
 40
1.0
 41
0.25
 42
0.125
 43
3.75
 44
0.375
 45
0.0
 46
0.0
 47
0.0
 48
0.0
 49
2.5
140
0.25
141
2.5
142
0.0
143
0.03937007874
144
100.0
145
0.0
146
0.5
147
0.1
148
0.0
 69
0
 70
0
 71
0
 72
0
 73
0
 74
0
 75
0
 76
0
 77
1
 78
12
 79
2
 90
2
170
0
171
3
172
1
173
0
174
0
175
0
176
0
177
0
178
0
179
2
271
2
272
2
273
2
274
3
275
0
276
0
277
2
278
46
279
2
280
0
281
0
282
0
283
0
284
8
285
0
286
0
288
1
289
3
290
0
340
4C
371
-2
372
-2
  0
ENDTAB
  0
TABLE
  2
BLOCK_RECORD
  5
9
330
0
100
AcDbSymbolTable
 70
5
  0
BLOCK_RECORD
  5
17
330
9
100
AcDbSymbolTableRecord
100
AcDbBlockTableRecord
  2
*Model_Space
340
1A
 70
0
280
1
281
0
  0
BLOCK_RECORD
  5
1B
330
9
100
AcDbSymbolTableRecord
100
AcDbBlockTableRecord
  2
*Paper_Space
340
1E
 70
0
280
1
281
0
  0
BLOCK_RECORD
  5
74
330
9
100
AcDbSymbolTableRecord
100
AcDbBlockTableRecord
  2
_ARCHTICK
340
0
 70
0
280
1
281
0
  0
BLOCK_RECORD
  5
78
330
9
100
AcDbSymbolTableRecord
100
AcDbBlockTableRecord
  2
_CLOSEDFILLED
340
0
 70
0
280
1
281
0
  0
BLOCK_RECORD
  5
84
330
9
100
AcDbSymbolTableRecord
100
AcDbBlockTableRecord
  2
_CLOSEDBLANK
340
0
 70
0
280
1
281
0
  0
ENDTAB
  0
ENDSEC
  0
SECTION
  2
BLOCKS
  0
BLOCK
  5
18
330
17
100
AcDbEntity
  8
0
100
AcDbBlockBegin
  2
*Model_Space
 70
0
 10
0.0
 20
0.0
 30
0.0
  3
*Model_Space
  1

  0
ENDBLK
  5
19
330
17
100
AcDbEntity
  8
0
100
AcDbBlockEnd
  0
BLOCK
  5
1C
330
1B
100
AcDbEntity
  8
0
100
AcDbBlockBegin
  2
*Paper_Space
 70
0
 10
0.0
 20
0.0
 30
0.0
  3
*Paper_Space
  1

  0
ENDBLK
  5
1D
330
1B
100
AcDbEntity
  8
0
100
AcDbBlockEnd
  0
BLOCK
  5
75
330
74
100
AcDbEntity
  8
0
100
AcDbBlockBegin
  2
_ARCHTICK
 70
0
 10
0.0
 20
0.0
 30
0.0
  3
_ARCHTICK
  1

  0
LWPOLYLINE
  5
77
330
74
100
AcDbEntity
  8
0
  6
BYBLOCK
 62
0
100
AcDbPolyline
 90
2
 70
0
 43
0.15
 10
-0.5
 20
-0.5000000000000001
 10
0.5000000000000001
 20
0.5
  0
ENDBLK
  5
76
330
74
100
AcDbEntity
  8
0
100
AcDbBlockEnd
  0
BLOCK
  5
79
330
78
100
AcDbEntity
  8
0
100
AcDbBlockBegin
  2
_CLOSEDFILLED
 70
0
 10
0.0
 20
0.0
 30
0.0
  3
_CLOSEDFILLED
  1

  0
SOLID
  5
7B
330
78
100
AcDbEntity
  8
0
  6
BYBLOCK
 62
0
100
AcDbTrace
 10
-1.0
 20
0.1643989837240255
 30
0.0
 11
0.0
 21
0.0
 31
0.0
 12
-1.0
 22
-0.1643989837240255
 32
0.0
 13
-1.0
 23
-0.1643989837240255
 33
0.0
  0
ENDBLK
  5
7A
330
78
100
AcDbEntity
  8
0
100
AcDbBlockEnd
  0
BLOCK
  5
85
330
84
100
AcDbEntity
  8
0
100
AcDbBlockBegin
  2
_CLOSEDBLANK
 70
0
 10
0.0
 20
0.0
 30
0.0
  3
_CLOSEDBLANK
  1

  0
LWPOLYLINE
  5
87
330
84
100
AcDbEntity
  8
0
  6
BYBLOCK
 62
0
100
AcDbPolyline
 90
3
 70
1
 10
-1.0
 20
0.1643989837240255
 10
0.0
 20
0.0
 10
-1.0
 20
-0.1643989837240255
  0
ENDBLK
  5
86
330
84
100
AcDbEntity
  8
0
100
AcDbBlockEnd
  0
ENDSEC
  0
SECTION
  2
ENTITIES
  0
LWPOLYLINE
  5
8B
330
17
100
AcDbEntity
  8
Layer
100
AcDbPolyline
 90
303
 70
1
 10
934.7058980165496
 20
6.001812379211046
 10
931.9101297590735
 20
7.139791800300159
 10
927.4071693386279
 20
8.88509874710681
 10
922.5381049813145
 20
10.812084805266664
 10
917.2182043685445
 20
12.880597957004994
 10
911.4145168249267
 20
15.095397448766207
 10
905.1712851524976
 20
17.476762142620288
 10
898.5637549660103
 20
20.009770140620418
 10
891.6494587623226
 20
22.64847724679572
 10
884.5363693736963
 20
25.35955325249435
 10
877.3547194776445
 20
28.06975786520985
 10
870.1115674389869
 20
30.749582114495595
 10
862.7700965894022
 20
33.52305768355862
 10
855.3439475266835
 20
36.34031343739417
 10
847.788368817208
 20
39.14840634889216
 10
840.11003495656
 20
41.99041050573114
 10
832.3000846934807
 20
44.84470568401221
 10
824.3420197994103
 20
47.76421767698968
 10
816.2571427759553
 20
50.72496777836855
 10
808.0799534296891
 20
53.712673972551855
 10
799.844227523886
 20
56.718503736335684
 10
791.5821594794384
 20
59.73363489612198
 10
783.3163620225109
 20
62.74351115806873
 10
775.0525460033597
 20
65.74048978500547
 10
766.7915668474184
 20
68.72320598236348
 10
758.5361511372676
 20
71.69128136729017
 10
750.2959470643043
 20
74.64344146017288
 10
742.0872226249994
 20
77.57137256670525
 10
733.9104825388428
 20
80.46594618197058
 10
725.749877191904
 20
83.32829415227724
 10
717.5992419984557
 20
86.16395483997424
 10
709.4661471821148
 20
88.97143595201028
 10
705.4410519425926
 20
90.34804994717105
 10
705.1012665557449
 20
89.35454811482006
 10
701.0178681688344
 20
90.7511108865554
 10
692.9266429199228
 20
93.48856962670874
 10
684.8469037806924
 20
96.19058240943488
 10
676.7725192523724
 20
98.85779953623869
 10
668.6979074346214
 20
101.49267567844839
 10
660.6239947572412
 20
104.09905129823802
 10
652.57314545368
 20
106.67520991878004
 10
644.5740149830218
 20
109.20817174978745
 10
636.6334594120128
 20
111.68407740113418
 10
628.7406665965987
 20
114.09828604589228
 10
620.882997635138
 20
116.45109381743416
 10
613.0494308325543
 20
118.74396233453685
 10
605.2302089465326
 20
120.97893099610496
 10
597.4200915597671
 20
123.15827740097014
 10
589.6197648365207
 20
125.28223708415612
 10
581.8303447228594
 20
127.34823238461496
 10
574.0449149557139
 20
129.35426206016953
 10
566.2521996359351
 20
131.30231494193316
 10
558.4461783566165
 20
133.19557471213997
 10
550.6244905217961
 20
135.0359093907783
 10
542.7865039490437
 20
136.82449082058204
 10
534.9334713388204
 20
138.56186891814235
 10
527.068640367336
 20
140.24774763107771
 10
519.1937932843482
 20
141.88028165117692
 10
511.3036744661894
 20
143.45834300540076
 10
503.3906413264443
 20
144.98415895806195
 10
495.4520803924761
 20
146.4608465020591
 10
487.489868336728
 20
147.89078902153793
 10
479.5121966957537
 20
149.2748135643766
 10
471.5280973024152
 20
150.61106857273046
 10
463.5423950054314
 20
151.89685069928782
 10
455.5570709679402
 20
153.131351556257
 10
447.57595521958064
 20
154.31369800516455
 10
439.6014191111018
 20
155.44210683782956
 10
431.6328280519167
 20
156.5149477544358
 10
423.6676589616694
 20
157.53204681723903
 10
415.70610141574065
 20
158.49366565042533
 10
407.7489207842431
 20
159.39908621782632
 10
399.79464642514415
 20
160.2474870680833
 10
391.8418225884071
 20
161.0389816093907
 10
383.89194667150326
 20
161.77363988142875
 10
375.9437538099613
 20
162.4498691744066
 10
367.99335578351565
 20
163.06730918015032
 10
360.0367657035078
 20
163.62748585612871
 10
352.0767618649841
 20
164.13216400290355
 10
344.118902131155
 20
164.58148732420062
 10
336.1680990126247
 20
164.97433042919022
 10
328.22723454074423
 20
165.30925044257634
 10
320.2966658915772
 20
165.58508315466497
 10
312.3767066462912
 20
165.80179646271012
 10
304.46975737617345
 20
165.96013321191782
 10
296.58352818560576
 20
166.0618798825094
 10
288.7327927532066
 20
166.10680854928205
 10
280.929186828252
 20
166.0911561870957
 10
273.1774183793815
 20
166.00924959457876
 10
265.4705362103471
 20
165.85366983615486
 10
257.7870981843937
 20
165.62014190544727
 10
250.11052869016441
 20
165.31261680118985
 10
242.44350910109983
 20
164.93696119637332
 10
234.79476679286262
 20
164.49330753048213
 10
227.167385114602
 20
163.97995860519234
 10
219.56347097349317
 20
163.39711825719672
 10
211.98980353585424
 20
162.7458390299198
 10
204.45336708921488
 20
162.02541631618274
 10
196.9597086570965
 20
161.23488127313712
 10
189.51299869049745
 20
160.3729704775635
 10
182.11680521827213
 20
159.43882693607696
 10
174.7752376287299
 20
158.43248127785856
 10
167.49646067313998
 20
157.35347673468556
 10
160.2816747580668
 20
156.1952700208676
 10
153.11714181267587
 20
154.95446328800767
 10
146.00374205382673
 20
153.64317796900184
 10
138.97937517361206
 20
152.27720648717792
 10
132.08266598281355
 20
150.85567097932218
 10
125.32603847891025
 20
149.36837145213704
 10
118.70742233609695
 20
147.80771908330425
 10
112.22177442888719
 20
146.1699921191177
 10
105.86515234302067
 20
144.45453182749225
 10
99.6381343392861
 20
142.66371509906023
 10
93.5473435466671
 20
140.80349439737432
 10
87.60680038725019
 20
138.88193411475515
 10
81.83306303827823
 20
136.90469933903097
 10
76.23684316105556
 20
134.8763895995174
 10
70.8296024638197
 20
132.81008394653153
 10
65.63356864782804
 20
130.72681040867568
 10
60.675342737240555
 20
128.64399582869925
 10
55.97461260357386
 20
126.57213836215533
 10
51.541861814137064
 20
124.5177308018841
 10
47.377742145756656
 20
122.48409640994755
 10
43.47590621613455
 20
120.4765814975674
 10
39.82868179495699
 20
118.5043014916791
 10
36.427656980525626
 20
116.5760322242495
 10
33.264079471823095
 20
114.69984406615546
 10
30.32896148761074
 20
112.8799491358848
 10
27.61144852322593
 20
111.11616962545877
 10
25.099177131817385
 20
109.40557984139943
 10
22.778048776996002
 20
107.74299443041562
 10
20.63092480015871
 20
106.12313408576767
 10
18.64109126267141
 20
104.54710520770624
 10
16.795390425787787
 20
103.0184017367396
 10
15.084024079878986
 20
101.53783838416453
 10
13.49775926484756
 20
100.10232791712033
 10
12.027835770654747
 20
98.7091995231353
 10
10.666319009551444
 20
97.35580781635205
 10
9.405796785999428
 20
96.03933257586851
 10
8.238248489675755
 20
94.75580623178875
 10
7.1554895274506976
 20
93.50354365766732
 10
6.1524385702108475
 20
92.28531529047658
 10
5.227453958717376
 20
91.10163956609843
 10
4.374537410196524
 20
89.94096839955768
 10
3.5814548998902183
 20
88.79577329759032
 10
2.8452458963179197
 20
87.68649056886144
 10
2.1784722950556556
 20
86.62957863222586
 10
1.5840703981442061
 20
85.59082856317968
 10
1.0445123004795391
 20
84.53567621235354
 10
0.5479835575752645
 20
83.50215396498217
 10
0.10757206183836843
 20
82.53135652533402
 10
-0.2640063082740767
 20
81.58932227348686
 10
-0.5720331065301707
 20
80.63434198748999
 10
-0.8294878976612949
 20
79.68435480859006
 10
-1.0402935269425484
 20
78.7658565139604
 10
-1.2002542071998619
 20
77.87355306540533
 10
-1.3092093641798215
 20
76.9800093566605
 10
-1.36453083779611
 20
76.1520610354936
 10
-1.366234098166501
 20
75.3146758920057
 10
-1.2990820556203744
 20
74.47363590262265
 10
-1.1549256463896995
 20
73.6210548255651
 10
-0.9349973759536852
 20
72.76253065973087
 10
-0.6413607536705968
 20
71.90582787613924
 10
-0.2737580325704698
 20
71.05674858109849
 10
0.16904176609114074
 20
70.2209055341943
 10
0.6945468011361982
 20
69.39666942792604
 10
1.3062096651443653
 20
68.58171954997606
 10
1.99760607885338
 20
67.77850166420346
 10
2.7641834274893426
 20
66.98909901987234
 10
3.603883788725227
 20
66.21547761078779
 10
4.516754066084843
 20
65.45969532104274
 10
5.506897612798241
 20
64.72258145654848
 10
6.578701065253881
 20
64.00373476954891
 10
7.7372387872310355
 20
63.30094711917913
 10
8.986353712554262
 20
62.610050297598974
 10
10.327487770130801
 20
61.92564962670285
 10
11.761491934563935
 20
61.242869949822094
 10
13.291777516589548
 20
60.55795060349605
 10
14.923756716256662
 20
59.86820041083979
 10
16.664059031421573
 20
59.172010581117
 10
18.51954948656504
 20
58.46992182086278
 10
20.50299033119279
 20
57.765429472216894
 10
22.6345704078351
 20
57.06108935971707
 10
24.932779257114532
 20
56.35351224422088
 10
27.411973580562346
 20
55.63627532924263
 10
30.087928374678143
 20
54.904363878508306
 10
32.978358284628484
 20
54.15491846740003
 10
36.10159014398374
 20
53.390279039180754
 10
39.48142477222592
 20
52.61853631373588
 10
43.146410980265046
 20
51.84699485212346
 10
47.12882325236836
 20
51.07992702823269
 10
51.46431659725471
 20
50.316477764248354
 10
56.17897892292348
 20
49.54717571787595
 10
61.27785002609255
 20
48.766510094751304
 10
66.75620626994544
 20
47.98545037448391
 10
72.61314432309695
 20
47.219750568689534
 10
78.84602922455207
 20
46.47739582150392
 10
85.44536292225666
 20
45.759048831836175
 10
92.38349564132068
 20
45.05853376828891
 10
99.59934802558263
 20
44.372249582681164
 10
107.01822091317041
 20
43.71047986752549
 10
114.58584403562557
 20
43.08980727422009
 10
122.27942966465
 20
42.525807965184946
 10
130.11773500787774
 20
42.02417023631083
 10
138.1264531876441
 20
41.570182890964986
 10
146.2846057222046
 20
41.145238244982124
 10
154.55616035325775
 20
40.748880099996356
 10
162.9369110623164
 20
40.38376635515253
 10
171.42710524861778
 20
40.04105035867689
 10
179.99864248904322
 20
39.70945219088774
 10
182.8747991769918
 20
39.60167648457276
 10
182.8354810386662
 20
38.55241289328665
 10
188.57173507000024
 20
38.3374626011585
 10
197.18986309093552
 20
38.02926539992585
 10
205.80424651648173
 20
37.74718019567129
 10
214.44066048482168
 20
37.49585866293325
 10
223.12108426351725
 20
37.26673337936818
 10
231.83921290349963
 20
37.0500916886162
 10
240.5740647243403
 20
36.841775037325476
 10
249.30098604794858
 20
36.64507281056762
 10
258.01775877076767
 20
36.47016681581745
 10
266.75220963616374
 20
36.3208905153579
 10
275.5282848096103
 20
36.190519579731905
 10
284.3454249560693
 20
36.06646281940961
 10
293.18201961373404
 20
35.93562631409162
 10
302.0383023243817
 20
35.798330073990385
 10
310.9038979157706
 20
35.66766340565998
 10
319.7913090695898
 20
35.546561843898644
 10
328.7003553484157
 20
35.428528478436306
 10
337.6164284856483
 20
35.30835853319877
 10
346.5346423625112
 20
35.18378145993253
 10
355.45461625810583
 20
35.054251345316956
 10
364.37360910710913
 20
34.922230513014895
 10
373.28454181170065
 20
34.79411491485605
 10
382.19485576807864
 20
34.67473716855132
 10
391.11314633989844
 20
34.55967426153187
 10
400.0307579054617
 20
34.44146508549524
 10
408.94909355551755
 20
34.31753743704881
 10
417.8694381703175
 20
34.18909901931025
 10
426.78765250935373
 20
34.06184675451061
 10
435.70160576031765
 20
33.94058047821984
 10
444.6170258140828
 20
33.825341336464305
 10
453.5316259972028
 20
33.71310622091653
 10
462.43732185966167
 20
33.59864694194512
 10
471.3315622169054
 20
33.477529606175864
 10
480.2186192034164
 20
33.34790932421127
 10
489.10352524928345
 20
33.210148077947025
 10
497.9863654012931
 20
33.06641513716207
 10
506.8599256317832
 20
32.91689593056789
 10
515.7209653352082
 20
32.7592019293016
 10
524.5732075586988
 20
32.58974187914416
 10
533.4291559411997
 20
32.40583880667336
 10
542.304716451461
 20
32.210692117870025
 10
551.1981257000498
 20
32.011513494781695
 10
560.0953274826654
 20
31.81505053814793
 10
568.9956977864357
 20
31.625051932833074
 10
577.8974784645212
 20
31.437230156395145
 10
586.7911583864666
 20
31.244003340725214
 10
595.6814068465228
 20
31.04245479933256
 10
604.5735834989175
 20
30.833572072735933
 10
613.463347105585
 20
30.624104824886615
 10
622.3419555808548
 20
30.420039635701073
 10
631.2049424152533
 20
30.215314773827274
 10
640.0434932187982
 20
30.001070731139436
 10
648.8677288994691
 20
29.772177583360772
 10
657.6939625584232
 20
29.52792580227029
 10
666.528384266723
 20
29.2760512463029
 10
675.349831927166
 20
29.022631684699334
 10
684.130132888463
 20
28.767210233678625
 10
692.8473942596484
 20
28.502521867136323
 10
701.5021872753335
 20
28.215764196721693
 10
710.120852390037
 20
27.903368430812634
 10
718.7003353420394
 20
27.578525230058517
 10
727.19583549838
 20
27.240097103679574
 10
735.602129855095
 20
26.86468100029316
 10
743.9617518494708
 20
26.44171333888741
 10
752.3031124695626
 20
25.979001528013725
 10
760.6112274461966
 20
25.49712631340803
 10
768.8467964767167
 20
25.02604344600674
 10
776.9268756795807
 20
24.548295281473187
 10
784.8441316430565
 20
23.99389667666793
 10
792.7318532686274
 20
23.35037590153118
 10
800.6217752849162
 20
22.704049418591637
 10
808.4329623635235
 20
22.08025658572467
 10
816.1346238793597
 20
21.40201585962498
 10
823.7977965767841
 20
20.636571598854474
 10
831.4417127172204
 20
19.874444147634946
 10
839.00778781543
 20
19.157986683711542
 10
846.4641128625349
 20
18.394226480400306
 10
853.8789085226981
 20
17.50210191876974
 10
861.3400446329958
 20
16.54273948200951
 10
868.7626770540558
 20
15.589705624456357
 10
875.9939275436395
 20
14.624670280110536
 10
883.0692751372778
 20
13.528879237895552
 10
890.1038490127842
 20
12.360953763479358
 10
897.0048039389462
 20
11.17592021053818
 10
903.6766877761888
 20
10.01785565716203
 10
910.0241133696541
 20
8.864283025932167
 10
916.0271138422997
 20
7.726656994932611
 10
921.6585367001294
 20
6.662189681290371
 10
926.8905519474367
 20
5.641066789292637
 10
931.7090022137656
 20
4.678674331608164
 10
934.6866829255077
 20
4.052030240561237
  0
LWPOLYLINE
  5
8C
330
17
100
AcDbEntity
  8
Layer
100
AcDbPolyline
 90
5
 70
0
 10
613.9107658744857
 20
114.32400442079287
 10
610.0718275927826
 20
115.44763819977683
 10
611.1954613717666
 20
119.28657648148001
 10
615.0343996534697
 20
118.16294270249605
 10
613.9107658744857
 20
114.32400442079287
  0
LWPOLYLINE
  5
8D
330
17
100
AcDbEntity
  8
Layer
100
AcDbPolyline
 90
5
 70
0
 10
242.15307710424537
 20
160.91338758557788
 10
238.15979092748205
 20
160.68172940965673
 10
237.9281327515609
 20
164.67501558642005
 10
241.92141892832421
 20
164.9066737623412
 10
242.15307710424537
 20
160.91338758557788
  0
LWPOLYLINE
  5
8E
330
17
100
AcDbEntity
  8
Layer
100
AcDbPolyline
 90
5
 70
0
 10
100.12107033291987
 20
138.62878893507985
 10
96.29555126425375
 20
137.46028396920605
 10
95.12704629837994
 20
141.2858030378722
 10
98.95256536704606
 20
142.454308003746
 10
100.12107033291987
 20
138.62878893507985
  0
LWPOLYLINE
  5
8F
330
17
100
AcDbEntity
  8
Layer
100
AcDbPolyline
 90
5
 70
0
 10
23.116361263268622
 20
101.71321937032856
 10
21.548730366946593
 20
100.47123170014153
 10
18.443761191479048
 20
104.39030894094661
 10
20.011392087801077
 20
105.63229661113364
 10
23.116361263268622
 20
101.71321937032856
  0
LWPOLYLINE
  5
90
330
17
100
AcDbEntity
  8
Layer
100
AcDbPolyline
 90
5
 70
0
 10
42.66418657267024
 20
57.058236632673406
 10
44.62131424517856
 20
56.64634918020352
 10
43.59159561400384
 20
51.7535299989327
 10
41.63446794149552
 20
52.16541745140258
 10
42.66418657267024
 20
57.058236632673406
  0
LWPOLYLINE
  5
91
330
17
100
AcDbEntity
  8
Layer
100
AcDbPolyline
 90
5
 70
0
 10
134.13841851971873
 20
45.80268026349141
 10
138.1320076608944
 20
45.5763049744604
 10
137.9056323718634
 20
41.58271583328474
 10
133.91204323068771
 20
41.80909112231575
 10
134.13841851971873
 20
45.80268026349141
  0
LINE
  5
92
330
17
100
AcDbEntity
  8
Layer
100
AcDbLine
 10
916.500311159999
 20
13.154559899558947
 30
0.0
 11
916.2967346891937
 21
12.697879901601368
 31
0.0
  0
LINE
  5
93
330
17
100
AcDbEntity
  8
Layer
100
AcDbLine
 10
915.0536307965206
 20
8.419610859092899
 30
0.0
 11
914.9807966320766
 21
7.924944118256462
 31
0.0
  0
LINE
  5
94
330
17
100
AcDbEntity
  8
Layer
100
AcDbLine
 10
897.8041606053328
 20
20.29965460294082
 30
0.0
 11
897.6130597767617
 21
19.837615131337515
 31
0.0
  0
LINE
  5
95
330
17
100
AcDbEntity
  8
Layer
100
AcDbLine
 10
895.3728465629183
 20
11.963462907695714
 30
0.0
 11
895.292116325729
 21
11.470023317874052
 31
0.0
  0
LINE
  5
96
330
17
100
AcDbEntity
  8
Layer
100
AcDbLine
 10
860.3735655984708
 20
34.432228865880006
 30
0.0
 11
860.1896866642569
 21
33.96726807446599
 31
0.0
  0
LINE
  5
97
330
17
100
AcDbEntity
  8
Layer
100
AcDbLine
 10
855.788123076848
 20
17.760559781946355
 30
0.0
 11
855.7115301845795
 21
17.266461078392155
 31
0.0
  0
LWPOLYLINE
  5
98
330
17
100
AcDbEntity
  8
Layer
100
AcDbPolyline
 90
300
 70
1
 10
401.3096686440678
 20
100.0
 10
401.29892022226267
 20
101.02446205476882
 10
401.26667970304777
 20
102.04847173593403
 10
401.2129613229287
 20
103.0715768696475
 10
401.13778880242995
 20
104.09332568148373
 10
401.0411953356204
 20
105.11326699593086
 10
400.9232235754557
 20
106.13095043561692
 10
400.7839256149442
 20
107.14592662018391
 10
400.6233629641438
 20
108.15774736472147
 10
400.4416065230011
 20
109.16596587767273
 10
400.23873655004377
 20
110.17013695812489
 10
400.01484262694095
 20
111.16981719239737
 10
399.7700236189462
 20
112.16456514984088
 10
399.50438763124146
 20
113.15394157776072
 10
399.2180519612009
 20
114.13750959537838
 10
398.9111430465959
 20
115.11483488674585
 10
398.5837964097632
 20
116.08548589252732
 10
398.2361565977624
 20
117.04903400056355
 10
397.8683771185481
 20
118.00505373513502
 10
397.4806203731849
 20
118.95312294484002
 10
397.07305758413565
 20
119.89282298900476
 10
396.6458687196548
 20
120.82373892254338
 10
396.199242414319
 20
121.74545967918598
 10
395.7333758857315
 20
122.65757825299393
 10
395.2484748474368
 20
123.55969187808222
 10
394.74475341808284
 20
124.45140220646954
 10
394.22243402687246
 20
125.33231548397755
 10
393.681747315345
 20
126.20204272410163
 10
393.1229320355312
 20
127.06019987977636
 10
392.5462349445275
 20
127.9064080129599
 10
391.9519106955345
 20
128.74029346196235
 10
391.3402217254096
 20
129.5614880064443
 10
390.71143813878234
 20
130.36962903001245
 10
390.06583758878355
 20
131.16435968034088
 10
389.40370515444175
 20
131.94532902674703
 10
388.7253332148001
 20
132.7121922151527
 10
388.0310213198103
 20
133.46461062036192
 10
387.32107605805936
 20
134.20225199558845
 10
386.5958109213892
 20
134.9247906191664
 10
385.8555461664671
 20
135.63190743837993
 10
385.1006086733695
 20
136.3232902103478
 10
384.33133180124105
 20
136.99863363990113
 10
383.5480552410924
 20
137.65763951439314
 10
382.7511248658024
 20
138.30001683538143
 10
381.9408925773903
 20
138.92548194712467
 10
381.1177161516256
 20
139.5337586618371
 10
380.28195908004466
 20
140.12457838164522
 10
379.4339904094427
 20
140.69768021719295
 10
378.57418457891345
 20
141.25281110284325
 10
377.70292125450703
 20
141.78972590842457
 10
376.8205851615805
 20
142.30818754747355
 10
375.9275659149137
 20
142.80796708192563
 10
375.0242578466665
 20
143.2888438232078
 10
374.11105983225264
 20
143.75060542968833
 10
373.1883751142077
 20
144.1930480004409
 10
372.25661112412854
 20
144.6159761652816
 10
371.3161793027629
 20
145.01920317103867
 10
370.367494918329
 20
145.40255096401773
 10
369.4109768831443
 20
145.76585026862506
 10
368.44704756864616
 20
146.108940662115
 10
367.4761326188841
 20
146.43167064542826
 10
366.4986607625675
 20
146.73389771008934
 10
365.5150636237513
 20
147.01548840113458
 10
364.5257755312425
 20
147.27631837604187
 10
363.53123332681315
 20
147.516272459637
 10
362.5318761723033
 20
147.73524469495163
 10
361.5281453556993
 20
147.93313839001095
 10
360.52048409627355
 20
148.10986616053017
 10
359.5093373488714
 20
148.2653499685009
 10
358.4951516074316
 20
148.39952115665062
 10
357.478374707827
 20
148.51232047875968
 10
356.45945563011315
 20
148.60369812582286
 10
355.4388443002709
 20
148.67361374804366
 10
354.4169913915322
 20
148.72203647265147
 10
353.3943481253752
 20
148.74894491753423
 10
352.3713660722776
 20
148.75432720068025
 10
351.34849695231605
 20
148.7381809454248
 10
350.32619243569883
 20
148.7005132814996
 10
349.30490394332156
 20
148.64134084188473
 10
348.285082447432
 20
148.5606897554637
 10
347.2671782724935
 20
148.4585956354859
 10
346.2516408963346
 20
148.33510356384056
 10
345.23891875167214
 20
148.19026807115017
 10
344.2294590280958
 20
148.02415311269095
 10
343.2237074746021
 20
147.8368320401523
 10
342.22210820276405
 20
147.62838756924648
 10
341.2251034906239
 20
147.39891174318393
 10
340.2331335873956
 20
147.1485058920294
 10
339.2466365190635
 20
146.87728058795756
 10
338.2660478949618
 20
146.5853555964274
 10
337.29180071542226
 20
146.27285982329715
 10
336.32432518057317
 20
145.93993125790308
 10
335.36404850037525
 20
145.58671691212737
 10
334.4113947059775
 20
145.21337275548177
 10
333.4667844624772
 20
144.8200636462357
 10
332.53063488316616
 20
144.40696325861975
 10
331.60335934534476
 20
143.97425400613585
 10
330.6853673077867
 20
143.5221269610086
 10
329.77706412993325
 20
143.05078176981328
 10
328.87885089289796
 20
142.56042656531736
 10
327.99112422236055
 20
142.05127787457508
 10
327.1142761134282
 20
141.5235605233152
 10
326.24869375754156
 20
140.97750753666418
 10
325.3947593715019
 20
140.4133600362489
 10
324.5528500286947
 20
139.8313671337241
 10
323.7233374925852
 20
139.2317858207718
 10
322.9065880525575
 20
138.6148808556209
 10
322.1029623621719
 20
137.98092464613742
 10
321.3128152799104
 20
137.33019712953688
 10
320.5364957124808
 20
136.6629856487719
 10
319.77434646075
 20
135.97958482564957
 10
319.026704068372
 20
135.2802964307349
 10
318.29389867318037
 20
134.56542925009728
 10
317.57625386140825
 20
133.83529894895938
 10
316.874086524802
 20
133.09022793230815
 10
316.18770672069076
 20
132.33054520252995
 10
315.51741753507355
 20
131.55658621413232
 10
314.8635149487854
 20
130.76869272561672
 10
314.2262877068002
 20
129.96721264856748
 10
313.60601719072935
 20
129.15249989402415
 10
313.0029772945715
 20
128.32491421620395
 10
312.41743430376846
 20
127.48482105364478
 10
311.8496467776213
 20
126.63259136783759
 10
311.2998654351176
 20
125.76860147942043
 10
310.7683330442214
 20
124.89323290200569
 10
310.2552843146732
 20
124.00687217371456
 10
309.76094579434897
 20
123.10991068649253
 10
309.28553576922315
 20
122.20274451328189
 10
308.82926416697956
 20
121.28577423312693
 10
308.3923324643131
 20
120.35940475428964
 10
307.9749335979635
 20
119.4240451354535
 10
307.57725187952
 20
118.48010840509471
 10
307.19946291403426
 20
117.52801137910056
 10
306.84173352247814
 20
116.56817447671503
 10
306.5042216680805
 20
115.60102153489373
 10
306.187076386575
 20
114.6269796211493
 10
305.89043772038974
 20
113.64647884497046
 10
305.6144366568092
 20
112.65995216789774
 10
305.3591950701332
 20
111.66783521233987
 10
305.12482566786105
 20
110.6705660692152
 10
304.9114319409231
 20
109.66858510450308
 10
304.7191081179818
 20
108.66233476479059
 10
304.5479391238233
 20
107.65225938190062
 10
304.39800054185685
 20
106.63880497668751
 10
304.2693585807392
 20
105.62241906208668
 10
304.162070045139
 20
104.60355044550558
 10
304.0761823106533
 20
103.58264903064298
 10
304.0117333028878
 20
102.56016561882417
 10
303.96875148071
 20
101.53655170993966
 10
303.94725582368255
 20
100.51225930307574
 10
303.94725582368255
 20
99.48774069692428
 10
303.96875148071
 20
98.46344829006036
 10
304.0117333028878
 20
97.43983438117584
 10
304.0761823106533
 20
96.417350969357
 10
304.162070045139
 20
95.39644955449441
 10
304.2693585807392
 20
94.37758093791334
 10
304.39800054185685
 20
93.3611950233125
 10
304.5479391238233
 20
92.3477406180994
 10
304.7191081179818
 20
91.33766523520943
 10
304.9114319409231
 20
90.33141489549692
 10
305.12482566786105
 20
89.32943393078479
 10
305.3591950701332
 20
88.33216478766012
 10
305.6144366568092
 20
87.34004783210227
 10
305.89043772038974
 20
86.35352115502955
 10
306.187076386575
 20
85.37302037885071
 10
306.5042216680805
 20
84.39897846510628
 10
306.84173352247814
 20
83.43182552328499
 10
307.19946291403426
 20
82.47198862089945
 10
307.57725187952
 20
81.51989159490527
 10
307.9749335979635
 20
80.5759548645465
 10
308.3923324643131
 20
79.64059524571037
 10
308.82926416697956
 20
78.71422576687308
 10
309.28553576922315
 20
77.79725548671813
 10
309.76094579434897
 20
76.89008931350749
 10
310.2552843146732
 20
75.99312782628544
 10
310.76833304422144
 20
75.1067670979943
 10
311.2998654351176
 20
74.23139852057956
 10
311.8496467776213
 20
73.36740863216241
 10
312.41743430376846
 20
72.51517894635523
 10
313.00297729457145
 20
71.67508578379605
 10
313.60601719072935
 20
70.84750010597587
 10
314.2262877068002
 20
70.03278735143252
 10
314.8635149487854
 20
69.2313072743833
 10
315.5174175350736
 20
68.44341378586766
 10
316.1877067206908
 20
67.66945479747002
 10
316.874086524802
 20
66.90977206769185
 10
317.57625386140825
 20
66.16470105104062
 10
318.2938986731803
 20
65.43457074990273
 10
319.026704068372
 20
64.7197035692651
 10
319.77434646075
 20
64.02041517435043
 10
320.5364957124808
 20
63.33701435122811
 10
321.3128152799104
 20
62.66980287046312
 10
322.1029623621719
 20
62.019075353862576
 10
322.9065880525575
 20
61.385119144379104
 10
323.7233374925852
 20
60.7682141792282
 10
324.5528500286947
 20
60.168632866275914
 10
325.39475937150183
 20
59.586639963751125
 10
326.24869375754156
 20
59.022492463335816
 10
327.1142761134282
 20
58.47643947668478
 10
327.99112422236055
 20
57.9487221254249
 10
328.87885089289796
 20
57.43957343468265
 10
329.77706412993325
 20
56.94921823018673
 10
330.6853673077867
 20
56.47787303899138
 10
331.60335934534476
 20
56.02574599386414
 10
332.5306348831661
 20
55.59303674138025
 10
333.4667844624772
 20
55.179936353764305
 10
334.41139470597744
 20
54.78662724451824
 10
335.3640485003752
 20
54.413283087872614
 10
336.32432518057317
 20
54.060068742096924
 10
337.29180071542226
 20
53.72714017670287
 10
338.2660478949618
 20
53.41464440357261
 10
339.2466365190635
 20
53.12271941204245
 10
340.2331335873956
 20
52.85149410797061
 10
341.2251034906239
 20
52.601088256816084
 10
342.22210820276405
 20
52.37161243075352
 10
343.2237074746021
 20
52.163167959847705
 10
344.22945902809585
 20
51.97584688730903
 10
345.23891875167214
 20
51.80973192884983
 10
346.25164089633466
 20
51.66489643615943
 10
347.2671782724935
 20
51.54140436451412
 10
348.28508244743193
 20
51.4393102445363
 10
349.30490394332156
 20
51.35865915811527
 10
350.32619243569883
 20
51.29948671850039
 10
351.348496952316
 20
51.26181905457521
 10
352.3713660722776
 20
51.24567279931974
 10
353.3943481253752
 20
51.251055082465754
 10
354.4169913915322
 20
51.27796352734854
 10
355.4388443002709
 20
51.32638625195634
 10
356.45945563011315
 20
51.39630187417713
 10
357.478374707827
 20
51.48767952124033
 10
358.4951516074316
 20
51.60047884334939
 10
359.50933734887144
 20
51.73465003149909
 10
360.52048409627355
 20
51.890133839469826
 10
361.52814535569934
 20
52.06686160998905
 10
362.53187617230327
 20
52.264755305048354
 10
363.53123332681315
 20
52.48372754036298
 10
364.52577553124246
 20
52.723681623958115
 10
365.5150636237513
 20
52.984511598865424
 10
366.4986607625675
 20
53.266102289910656
 10
367.4761326188841
 20
53.56832935457175
 10
368.44704756864616
 20
53.89105933788498
 10
369.4109768831443
 20
54.23414973137495
 10
370.367494918329
 20
54.597449035982265
 10
371.3161793027629
 20
54.98079682896132
 10
372.25661112412854
 20
55.384023834718406
 10
373.1883751142077
 20
55.80695199955908
 10
374.11105983225264
 20
56.24939457031168
 10
375.02425784666656
 20
56.711156176792215
 10
375.92756591491377
 20
57.19203291807438
 10
376.8205851615805
 20
57.69181245252645
 10
377.702921254507
 20
58.21027409157541
 10
378.5741845789134
 20
58.747188897156725
 10
379.4339904094427
 20
59.302319782807025
 10
380.28195908004466
 20
59.875421618354785
 10
381.1177161516256
 20
60.46624133816289
 10
381.9408925773903
 20
61.07451805287533
 10
382.7511248658024
 20
61.69998316461858
 10
383.5480552410924
 20
62.342360485606854
 10
384.33133180124105
 20
63.00136636009886
 10
385.1006086733695
 20
63.6767097896522
 10
385.8555461664671
 20
64.36809256162007
 10
386.5958109213892
 20
65.0752093808336
 10
387.32107605805936
 20
65.79774800441157
 10
388.0310213198103
 20
66.53538937963809
 10
388.7253332148001
 20
67.2878077848473
 10
389.40370515444175
 20
68.05467097325294
 10
390.06583758878355
 20
68.83564031965909
 10
390.71143813878234
 20
69.63037096998755
 10
391.3402217254096
 20
70.4385119935557
 10
391.9519106955345
 20
71.25970653803763
 10
392.5462349445275
 20
72.0935919870401
 10
393.1229320355312
 20
72.93980012022364
 10
393.681747315345
 20
73.79795727589837
 10
394.22243402687246
 20
74.66768451602245
 10
394.74475341808284
 20
75.54859779353046
 10
395.2484748474368
 20
76.44030812191778
 10
395.7333758857315
 20
77.34242174700609
 10
396.199242414319
 20
78.25454032081403
 10
396.6458687196548
 20
79.17626107745664
 10
397.07305758413565
 20
80.10717701099522
 10
397.4806203731849
 20
81.04687705515997
 10
397.8683771185481
 20
81.99494626486496
 10
398.2361565977624
 20
82.95096599943645
 10
398.5837964097632
 20
83.91451410747267
 10
398.9111430465959
 20
84.88516511325413
 10
399.2180519612009
 20
85.86249040462162
 10
399.5043876312414
 20
86.84605842223928
 10
399.7700236189462
 20
87.83543485015912
 10
400.01484262694095
 20
88.83018280760263
 10
400.23873655004377
 20
89.82986304187511
 10
400.4416065230011
 20
90.83403412232727
 10
400.6233629641438
 20
91.84225263527854
 10
400.7839256149442
 20
92.8540733798161
 10
400.9232235754557
 20
93.86904956438309
 10
401.0411953356204
 20
94.88673300406911
 10
401.13778880242995
 20
95.90667431851624
 10
401.2129613229287
 20
96.92842313035248
 10
401.26667970304777
 20
97.95152826406594
 10
401.29892022226267
 20
98.97553794523117
 10
401.3096686440678
 20
99.99999999999999
  0
LINE
  5
99
330
17
100
AcDbEntity
  8
Layer
100
AcDbLine
 10
671.2722312444538
 20
99.99999999999996
 30
0.0
 11
675.2722312444538
 21
99.99999999999996
 31
0.0
  0
LINE
  5
9A
330
17
100
AcDbEntity
  8
Layer
100
AcDbLine
 10
15.389790602277571
 20
100.00000000000004
 30
0.0
 11
11.389790602277571
 21
100.00000000000004
 31
0.0
  0
LINE
  5
9B
330
17
100
AcDbEntity
  8
Layer
100
AcDbLine
 10
150.86627873071282
 20
100.00000000000003
 30
0.0
 11
139.86627873071282
 21
100.00000000000003
 31
0.0
  0
LWPOLYLINE
  5
9C
330
17
100
AcDbEntity
  8
Layer
100
AcDbPolyline
 90
5
 70
0
 10
140.36627873071282
 20
95.00000000000003
 10
140.36627873071282
 20
105.00000000000003
 10
150.36627873071282
 20
105.00000000000003
 10
150.36627873071282
 20
95.00000000000003
 10
140.36627873071282
 20
95.00000000000003
  0
LINE
  5
9D
330
17
100
AcDbEntity
  8
Layer
100
AcDbLine
 10
348.8310109233657
 20
100.0
 30
0.0
 11
337.8310109233657
 21
100.0
 31
0.0
  0
LWPOLYLINE
  5
9E
330
17
100
AcDbEntity
  8
Layer
100
AcDbPolyline
 90
5
 70
0
 10
338.3310109233657
 20
95.0
 10
338.3310109233657
 20
105.0
 10
348.3310109233657
 20
105.0
 10
348.3310109233657
 20
95.0
 10
338.3310109233657
 20
95.0
  0
LINE
  5
9F
330
17
100
AcDbEntity
  8
Layer
100
AcDbLine
 10
546.7957431160186
 20
99.99999999999997
 30
0.0
 11
535.7957431160186
 21
99.99999999999997
 31
0.0
  0
LWPOLYLINE
  5
A0
330
17
100
AcDbEntity
  8
Layer
100
AcDbPolyline
 90
5
 70
0
 10
536.2957431160186
 20
94.99999999999997
 10
536.2957431160186
 20
104.99999999999997
 10
546.2957431160186
 20
104.99999999999997
 10
546.2957431160186
 20
94.99999999999997
 10
536.2957431160186
 20
94.99999999999997
  0
LINE
  5
A1
330
17
100
AcDbEntity
  8
Layer
100
AcDbLine
 10
0.6919940440370169
 20
76.8847813698287
 30
0.0
 11
-3.2962169648706663
 21
77.19165748233598
 31
0.0
  0
LINE
  5
A2
330
17
100
AcDbEntity
  8
Layer
100
AcDbLine
 10
594.816964432122
 20
31.16935637125735
 30
0.0
 11
598.8051754410296
 21
30.862480258750082
 31
0.0
  0
LINE
  5
A3
330
17
100
AcDbEntity
  8
Layer
100
AcDbLine
 10
925.0868641737452
 20
5.756472578371984
 30
0.0
 11
929.0750751826529
 21
5.449596465864715
 31
0.0
  0
LINE
  5
A4
330
17
100
AcDbEntity
  8
Layer
100
AcDbLine
 10
352.6271186440678
 20
148.755
 30
0.0
 11
352.6271186440678
 21
149.255
 31
0.0
  0
LINE
  5
A5
330
17
100
AcDbEntity
  8
Layer
100
AcDbLine
 10
352.6271186440678
 20
51.24500000000001
 30
0.0
 11
352.6271186440678
 21
50.74500000000001
 31
0.0
  0
LINE
  5
A6
330
17
100
AcDbEntity
  8
Layer
100
AcDbLine
 10
401.3096686440678
 20
100.0
 30
0.0
 11
401.8096686440678
 21
100.0
 31
0.0
  0
LINE
  5
A7
330
17
100
AcDbEntity
  8
Layer
100
AcDbLine
 10
303.94456864406783
 20
100.0
 30
0.0
 11
303.44456864406783
 21
100.0
 31
0.0
  0
LINE
  5
A8
330
17
100
AcDbEntity
  8
Layer
100
AcDbLine
 10
92.62711864406782
 20
138.50583346360787
 30
0.0
 11
92.62711864406782
 21
142.50583346360787
 31
0.0
  0
LINE
  5
A9
330
17
100
AcDbEntity
  8
Layer
100
AcDbLine
 10
92.62711864406782
 20
47.0353633089818
 30
0.0
 11
92.62711864406782
 21
43.0353633089818
 31
0.0
  0
LINE
  5
AA
330
17
100
AcDbEntity
  8
Layer
100
AcDbLine
 10
92.62711864406782
 20
69.62945733990702
 30
0.0
 11
92.62711864406782
 21
58.62945733990701
 31
0.0
  0
LWPOLYLINE
  5
AB
330
17
100
AcDbEntity
  8
Layer
100
AcDbPolyline
 90
5
 70
0
 10
97.62711864406782
 20
59.12945733990702
 10
87.62711864406782
 20
59.12945733990702
 10
87.62711864406782
 20
69.12945733990702
 10
97.62711864406782
 20
69.12945733990702
 10
97.62711864406782
 20
59.12945733990702
  0
LINE
  5
AC
330
17
100
AcDbEntity
  8
Layer
100
AcDbLine
 10
92.62711864406782
 20
98.27059838629484
 30
0.0
 11
92.62711864406782
 21
87.27059838629484
 31
0.0
  0
LWPOLYLINE
  5
AD
330
17
100
AcDbEntity
  8
Layer
100
AcDbPolyline
 90
5
 70
0
 10
97.62711864406782
 20
87.77059838629484
 10
87.62711864406782
 20
87.77059838629484
 10
87.62711864406782
 20
97.77059838629484
 10
97.62711864406782
 20
97.77059838629484
 10
97.62711864406782
 20
87.77059838629484
  0
LINE
  5
AE
330
17
100
AcDbEntity
  8
Layer
100
AcDbLine
 10
92.62711864406782
 20
126.91173943268265
 30
0.0
 11
92.62711864406782
 21
115.91173943268265
 31
0.0
  0
LWPOLYLINE
  5
AF
330
17
100
AcDbEntity
  8
Layer
100
AcDbPolyline
 90
5
 70
0
 10
97.62711864406782
 20
116.41173943268265
 10
87.62711864406782
 20
116.41173943268265
 10
87.62711864406782
 20
126.41173943268265
 10
97.62711864406782
 20
126.41173943268265
 10
97.62711864406782
 20
116.41173943268265
  0
LINE
  5
B0
330
17
100
AcDbEntity
  8
Layer
100
AcDbLine
 10
582.6271186440679
 20
125.1369032801727
 30
0.0
 11
582.6271186440679
 21
129.1369032801727
 31
0.0
  0
LINE
  5
B1
330
17
100
AcDbEntity
  8
Layer
100
AcDbLine
 10
582.6271186440679
 20
33.3344725443404
 30
0.0
 11
582.6271186440679
 21
29.3344725443404
 31
0.0
  0
LINE
  5
B2
330
17
100
AcDbEntity
  8
Layer
100
AcDbLine
 10
582.6271186440679
 20
55.99495869150685
 30
0.0
 11
582.6271186440679
 21
44.99495869150685
 31
0.0
  0
LWPOLYLINE
  5
B3
330
17
100
AcDbEntity
  8
Layer
100
AcDbPolyline
 90
5
 70
0
 10
587.6271186440679
 20
45.49495869150685
 10
577.6271186440679
 20
45.49495869150685
 10
577.6271186440679
 20
55.49495869150685
 10
587.6271186440679
 20
55.49495869150685
 10
587.6271186440679
 20
45.49495869150685
  0
LINE
  5
B4
330
17
100
AcDbEntity
  8
Layer
100
AcDbLine
 10
582.6271186440679
 20
84.73568791225655
 30
0.0
 11
582.6271186440679
 21
73.73568791225655
 31
0.0
  0
LWPOLYLINE
  5
B5
330
17
100
AcDbEntity
  8
Layer
100
AcDbPolyline
 90
5
 70
0
 10
587.6271186440679
 20
74.23568791225655
 10
577.6271186440679
 20
74.23568791225655
 10
577.6271186440679
 20
84.23568791225655
 10
587.6271186440679
 20
84.23568791225655
 10
587.6271186440679
 20
74.23568791225655
  0
LINE
  5
B6
330
17
100
AcDbEntity
  8
Layer
100
AcDbLine
 10
582.6271186440679
 20
113.47641713300624
 30
0.0
 11
582.6271186440679
 21
102.47641713300624
 31
0.0
  0
LWPOLYLINE
  5
B7
330
17
100
AcDbEntity
  8
Layer
100
AcDbPolyline
 90
5
 70
0
 10
587.6271186440679
 20
102.97641713300624
 10
577.6271186440679
 20
102.97641713300624
 10
577.6271186440679
 20
112.97641713300624
 10
587.6271186440679
 20
112.97641713300624
 10
587.6271186440679
 20
102.97641713300624
  0
ENDSEC
  0
SECTION
  2
OBJECTS
  0
DICTIONARY
  5
A
330
0
100
AcDbDictionary
280
0
281
1
  3
ACAD_COLOR
350
B
  3
ACAD_GROUP
350
C
  3
ACAD_LAYOUT
350
D
  3
ACAD_MATERIAL
350
E
  3
ACAD_MLEADERSTYLE
350
F
  3
ACAD_MLINESTYLE
350
10
  3
ACAD_PLOTSETTINGS
350
11
  3
ACAD_PLOTSTYLENAME
350
12
  3
ACAD_SCALELIST
350
14
  3
ACAD_TABLESTYLE
350
15
  3
ACAD_VISUALSTYLE
350
16
  3
EZDXF_META
350
2D
  0
DICTIONARY
  5
B
330
A
100
AcDbDictionary
280
0
281
1
  0
DICTIONARY
  5
C
330
A
100
AcDbDictionary
280
0
281
1
  0
DICTIONARY
  5
D
330
A
100
AcDbDictionary
280
0
281
1
  3
Model
350
1A
  3
Layout1
350
1E
  0
DICTIONARY
  5
E
330
A
100
AcDbDictionary
280
0
281
1
  3
ByBlock
350
1F
  3
ByLayer
350
20
  3
Global
350
21
  0
DICTIONARY
  5
F
330
A
100
AcDbDictionary
280
0
281
1
  3
Standard
350
2C
  0
DICTIONARY
  5
10
330
A
100
AcDbDictionary
280
0
281
1
  3
Standard
350
22
  0
DICTIONARY
  5
11
330
A
100
AcDbDictionary
280
0
281
1
  0
ACDBDICTIONARYWDFLT
  5
12
330
A
100
AcDbDictionary
280
0
281
1
  3
Normal
350
13
100
AcDbDictionaryWithDefault
340
13
  0
ACDBPLACEHOLDER
  5
13
330
12
  0
DICTIONARY
  5
14
330
A
100
AcDbDictionary
280
0
281
1
  0
DICTIONARY
  5
15
330
A
100
AcDbDictionary
280
0
281
1
  0
DICTIONARY
  5
16
330
A
100
AcDbDictionary
280
0
281
1
  3
2dWireframe
350
5A
  3
Basic
350
5B
  3
Brighten
350
5C
  3
ColorChange
350
5D
  3
Conceptual
350
5E
  3
Dim
350
5F
  3
EdgeColorOff
350
60
  3
Facepattern
350
61
  3
Flat
350
62
  3
FlatWithEdges
350
63
  3
Gouraud
350
64
  3
GouraudWithEdges
350
65
  3
Hidden
350
66
  3
JitterOff
350
67
  3
Linepattern
350
68
  3
Modeling
350
69
  3
OverhangOff
350
6A
  3
Realistic
350
6B
  3
Shaded
350
6C
  3
Shaded with edges
350
6D
  3
Shades of Gray
350
6E
  3
Sketchy
350
6F
  3
Thicken
350
70
  3
Wireframe
350
71
  3
X-Ray
350
72
  0
LAYOUT
  5
1A
330
D
100
AcDbPlotSettings
  1

  2
Adobe PDF
  4
A3
  6

 40
7.5
 41
20.0
 42
7.5
 43
20.0
 44
420.0
 45
297.0
 46
0.0
 47
0.0
 48
0.0
 49
0.0
140
0.0
141
0.0
142
1.0
143
1.0
 70
1024
 72
1
 73
0
 74
5
  7

 75
16
 76
0
 77
2
 78
300
147
1.0
148
0.0
149
0.0
100
AcDbLayout
  1
Model
 70
1
 71
0
 10
0.0
 20
0.0
 11
420.0
 21
297.0
 12
0.0
 22
0.0
 32
0.0
 14
1e+20
 24
1e+20
 34
1e+20
 15
-1e+20
 25
-1e+20
 35
-1e+20
146
0.0
 13
0.0
 23
0.0
 33
0.0
 16
1.0
 26
0.0
 36
0.0
 17
0.0
 27
1.0
 37
0.0
 76
1
330
17
  0
LAYOUT
  5
1E
330
D
100
AcDbPlotSettings
  1

  2
Adobe PDF
  4
A3
  6

 40
7.5
 41
20.0
 42
7.5
 43
20.0
 44
420.0
 45
297.0
 46
0.0
 47
0.0
 48
0.0
 49
0.0
140
0.0
141
0.0
142
1.0
143
1.0
 70
0
 72
1
 73
0
 74
5
  7

 75
16
 76
0
 77
2
 78
300
147
1.0
148
0.0
149
0.0
100
AcDbLayout
  1
Layout1
 70
1
 71
1
 10
0.0
 20
0.0
 11
420.0
 21
297.0
 12
0.0
 22
0.0
 32
0.0
 14
1e+20
 24
1e+20
 34
1e+20
 15
-1e+20
 25
-1e+20
 35
-1e+20
146
0.0
 13
0.0
 23
0.0
 33
0.0
 16
1.0
 26
0.0
 36
0.0
 17
0.0
 27
1.0
 37
0.0
 76
1
330
1B
  0
MATERIAL
  5
1F
102
{ACAD_REACTORS
330
E
102
}
330
E
100
AcDbMaterial
  1
ByBlock
  2

 70
0
 40
1.0
 71
1
 41
1.0
 91
-1023410177
 42
1.0
 72
1
  3

 73
1
 74
1
 75
1
 44
0.5
 73
0
 45
1.0
 46
1.0
 77
1
  4

 78
1
 79
1
170
1
 48
1.0
171
1
  6

172
1
173
1
174
1
140
1.0
141
1.0
175
1
  7

176
1
177
1
178
1
143
1.0
179
1
  8

270
1
271
1
272
1
145
1.0
146
1.0
273
1
  9

274
1
275
1
276
1
 42
1.0
 72
1
  3

 73
1
 74
1
 75
1
 94
63
  0
MATERIAL
  5
20
102
{ACAD_REACTORS
330
E
102
}
330
E
100
AcDbMaterial
  1
ByLayer
  2

 70
0
 40
1.0
 71
1
 41
1.0
 91
-1023410177
 42
1.0
 72
1
  3

 73
1
 74
1
 75
1
 44
0.5
 73
0
 45
1.0
 46
1.0
 77
1
  4

 78
1
 79
1
170
1
 48
1.0
171
1
  6

172
1
173
1
174
1
140
1.0
141
1.0
175
1
  7

176
1
177
1
178
1
143
1.0
179
1
  8

270
1
271
1
272
1
145
1.0
146
1.0
273
1
  9

274
1
275
1
276
1
 42
1.0
 72
1
  3

 73
1
 74
1
 75
1
 94
63
  0
MATERIAL
  5
21
102
{ACAD_REACTORS
330
E
102
}
330
E
100
AcDbMaterial
  1
Global
  2

 70
0
 40
1.0
 71
1
 41
1.0
 91
-1023410177
 42
1.0
 72
1
  3

 73
1
 74
1
 75
1
 44
0.5
 73
0
 45
1.0
 46
1.0
 77
1
  4

 78
1
 79
1
170
1
 48
1.0
171
1
  6

172
1
173
1
174
1
140
1.0
141
1.0
175
1
  7

176
1
177
1
178
1
143
1.0
179
1
  8

270
1
271
1
272
1
145
1.0
146
1.0
273
1
  9

274
1
275
1
276
1
 42
1.0
 72
1
  3

 73
1
 74
1
 75
1
 94
63
  0
MLINESTYLE
  5
22
102
{ACAD_REACTORS
330
10
102
}
330
10
100
AcDbMlineStyle
  2
Standard
 70
0
  3

 62
256
 51
90.0
 52
90.0
 71
2
 49
0.5
 62
256
  6
BYLAYER
 49
-0.5
 62
256
  6
BYLAYER
  0
MLEADERSTYLE
  5
2C
102
{ACAD_REACTORS
330
F
102
}
330
F
100
AcDbMLeaderStyle
179
2
170
2
171
1
172
0
 90
2
 40
0.0
 41
0.0
173
1
 91
-1056964608
 92
-2
290
1
 42
2.0
291
1
 43
8.0
  3
Standard
 44
4.0
300

342
29
174
1
175
1
176
0
178
1
 93
-1056964608
 45
4.0
292
0
297
0
 46
4.0
 94
-1056964608
 47
1.0
 49
1.0
140
1.0
294
1
141
0.0
177
0
142
1.0
295
0
296
0
143
3.75
271
0
272
9
273
9
  0
DICTIONARY
  5
2D
330
A
100
AcDbDictionary
281
1
  3
CREATED_BY_EZDXF
350
2E
  3
WRITTEN_BY_EZDXF
350
BA
  0
DICTIONARYVAR
  5
2E
330
2D
100
DictionaryVariables
280
0
  1
1.1.0 @ 2024-03-26T01:33:48.693732+00:00
  0
VISUALSTYLE
  5
5A
102
{ACAD_REACTORS
330
16
102
}
330
16
100
AcDbVisualStyle
  2
2dWireframe
 70
4
 90
0
 40
0.6
 62
7
290
0
291
0
  0
VISUALSTYLE
  5
5B
102
{ACAD_REACTORS
330
16
102
}
330
16
100
AcDbVisualStyle
  2
Basic
 70
7
 90
1
 40
0.6
 62
7
290
0
291
1
  0
VISUALSTYLE
  5
5C
102
{ACAD_REACTORS
330
16
102
}
330
16
100
AcDbVisualStyle
  2
Brighten
 70
12
 90
2
 40
0.6
 62
7
290
0
291
1
  0
VISUALSTYLE
  5
5D
102
{ACAD_REACTORS
330
16
102
}
330
16
100
AcDbVisualStyle
  2
ColorChange
 70
16
 90
2
 40
0.6
 62
8
290
0
291
1
  0
VISUALSTYLE
  5
5E
102
{ACAD_REACTORS
330
16
102
}
330
16
100
AcDbVisualStyle
  2
Conceptual
 70
9
 90
3
 40
0.6
 62
7
290
0
291
0
  0
VISUALSTYLE
  5
5F
102
{ACAD_REACTORS
330
16
102
}
330
16
100
AcDbVisualStyle
  2
Dim
 70
11
 90
2
 40
0.6
 62
7
290
0
291
1
  0
VISUALSTYLE
  5
60
102
{ACAD_REACTORS
330
16
102
}
330
16
100
AcDbVisualStyle
  2
EdgeColorOff
 70
22
 90
2
 40
0.6
 62
7
290
0
291
1
  0
VISUALSTYLE
  5
61
102
{ACAD_REACTORS
330
16
102
}
330
16
100
AcDbVisualStyle
  2
Facepattern
 70
15
 90
2
 40
0.6
 62
7
290
0
291
1
  0
VISUALSTYLE
  5
62
102
{ACAD_REACTORS
330
16
102
}
330
16
100
AcDbVisualStyle
  2
Flat
 70
0
 90
2
 40
0.6
 62
7
290
0
291
1
  0
VISUALSTYLE
  5
63
102
{ACAD_REACTORS
330
16
102
}
330
16
100
AcDbVisualStyle
  2
FlatWithEdges
 70
1
 90
2
 40
0.6
 62
7
290
0
291
1
  0
VISUALSTYLE
  5
64
102
{ACAD_REACTORS
330
16
102
}
330
16
100
AcDbVisualStyle
  2
Gouraud
 70
2
 90
2
 40
0.6
 62
7
290
0
291
1
  0
VISUALSTYLE
  5
65
102
{ACAD_REACTORS
330
16
102
}
330
16
100
AcDbVisualStyle
  2
GouraudWithEdges
 70
3
 90
2
 40
0.6
 62
7
290
0
291
1
  0
VISUALSTYLE
  5
66
102
{ACAD_REACTORS
330
16
102
}
330
16
100
AcDbVisualStyle
  2
Hidden
 70
6
 90
1
 40
0.6
 62
7
290
0
291
0
  0
VISUALSTYLE
  5
67
102
{ACAD_REACTORS
330
16
102
}
330
16
100
AcDbVisualStyle
  2
JitterOff
 70
20
 90
2
 40
0.6
 62
7
290
0
291
1
  0
VISUALSTYLE
  5
68
102
{ACAD_REACTORS
330
16
102
}
330
16
100
AcDbVisualStyle
  2
Linepattern
 70
14
 90
2
 40
0.6
 62
7
290
0
291
1
  0
VISUALSTYLE
  5
69
102
{ACAD_REACTORS
330
16
102
}
330
16
100
AcDbVisualStyle
  2
Modeling
 70
10
 90
2
 40
0.6
 62
7
290
0
291
0
  0
VISUALSTYLE
  5
6A
102
{ACAD_REACTORS
330
16
102
}
330
16
100
AcDbVisualStyle
  2
OverhangOff
 70
21
 90
2
 40
0.6
 62
7
290
0
291
1
  0
VISUALSTYLE
  5
6B
102
{ACAD_REACTORS
330
16
102
}
330
16
100
AcDbVisualStyle
  2
Realistic
 70
8
 90
2
 40
0.6
 62
7
290
0
291
0
  0
VISUALSTYLE
  5
6C
102
{ACAD_REACTORS
330
16
102
}
330
16
100
AcDbVisualStyle
  2
Shaded
 70
27
 90
2
 40
0.6
 62
7
290
0
291
0
  0
VISUALSTYLE
  5
6D
102
{ACAD_REACTORS
330
16
102
}
330
16
100
AcDbVisualStyle
  2
Shaded with edges
 70
26
 90
2
 40
0.6
 62
7
290
0
291
0
  0
VISUALSTYLE
  5
6E
102
{ACAD_REACTORS
330
16
102
}
330
16
100
AcDbVisualStyle
  2
Shades of Gray
 70
23
 90
2
 40
0.6
 62
7
290
0
291
0
  0
VISUALSTYLE
  5
6F
102
{ACAD_REACTORS
330
16
102
}
330
16
100
AcDbVisualStyle
  2
Sketchy
 70
24
 90
1
 40
0.6
 62
7
290
0
291
0
  0
VISUALSTYLE
  5
70
102
{ACAD_REACTORS
330
16
102
}
330
16
100
AcDbVisualStyle
  2
Thicken
 70
13
 90
2
 40
0.6
 62
7
290
0
291
1
  0
VISUALSTYLE
  5
71
102
{ACAD_REACTORS
330
16
102
}
330
16
100
AcDbVisualStyle
  2
Wireframe
 70
5
 90
0
 40
0.6
 62
7
290
0
291
0
  0
VISUALSTYLE
  5
72
102
{ACAD_REACTORS
330
16
102
}
330
16
100
AcDbVisualStyle
  2
X-Ray
 70
25
 90
2
 40
0.5
 62
7
290
0
291
0
  0
DICTIONARYVAR
  5
BA
330
2D
100
DictionaryVariables
280
0
  1
1.1.0 @ 2024-03-26T01:33:48.717772+00:00
  0
ENDSEC
  0
EOF
