  0
SECTION
  2
HEADER
  9
$ACADVER
  1
AC1021
  9
$ACADMAINTVER
 70
25
  9
$DWGCODEPAGE
  3
ANSI_1252
  9
$LASTSAVEDBY
  1
ezdxf
  9
$INSBASE
 10
0.0
 20
0.0
 30
0.0
  9
$EXTMIN
 10
1e+20
 20
1e+20
 30
1e+20
  9
$EXTMAX
 10
-1e+20
 20
-1e+20
 30
-1e+20
  9
$LIMMIN
 10
0.0
 20
0.0
  9
$LIMMAX
 10
420.0
 20
297.0
  9
$ORTHOMODE
 70
0
  9
$REGENMODE
 70
1
  9
$FILLMODE
 70
1
  9
$QTEXTMODE
 70
0
  9
$MIRRTEXT
 70
1
  9
$LTSCALE
 40
1.0
  9
$ATTMODE
 70
1
  9
$TEXTSIZE
 40
2.5
  9
$TRACEWID
 40
1.0
  9
$TEXTSTYLE
  7
OpenSans
  9
$CLAYER
  8
0
  9
$CELTYPE
  6
ByLayer
  9
$CECOLOR
 62
256
  9
$CELTSCALE
 40
1.0
  9
$DISPSILH
 70
0
  9
$DIMSCALE
 40
1.0
  9
$DIMASZ
 40
0.175
  9
$DIMEXO
 40
0.125
  9
$DIMDLI
 40
3.75
  9
$DIMRND
 40
0.0
  9
$DIMDLE
 40
0.0
  9
$DIMEXE
 40
0.375
  9
$DIMTP
 40
0.0
  9
$DIMTM
 40
0.0
  9
$DIMTXT
 40
0.25
  9
$DIMCEN
 40
2.5
  9
$DIMTSZ
 40
0.0
  9
$DIMTOL
 70
0
  9
$DIMLIM
 70
0
  9
$DIMTIH
 70
0
  9
$DIMTOH
 70
0
  9
$DIMSE1
 70
0
  9
$DIMSE2
 70
0
  9
$DIMTAD
 70
1
  9
$DIMZIN
 70
12
  9
$DIMBLK
  1
ARCHTICK
  9
$DIMASO
 70
1
  9
$DIMSHO
 70
1
  9
$DIMPOST
  1

  9
$DIMAPOST
  1

  9
$DIMALT
 70
0
  9
$DIMALTD
 70
3
  9
$DIMALTF
 40
0.03937007874
  9
$DIMLFAC
 40
100.0
  9
$DIMTOFL
 70
1
  9
$DIMTVP
 40
0.0
  9
$DIMTIX
 70
0
  9
$DIMSOXD
 70
0
  9
$DIMSAH
 70
0
  9
$DIMBLK1
  1

  9
$DIMBLK2
  1

  9
$DIMSTYLE
  2
EZDXF
  9
$DIMCLRD
 70
0
  9
$DIMCLRE
 70
0
  9
$DIMCLRT
 70
0
  9
$DIMTFAC
 40
0.5
  9
$DIMGAP
 40
0.1
  9
$DIMJUST
 70
0
  9
$DIMSD1
 70
0
  9
$DIMSD2
 70
0
  9
$DIMTOLJ
 70
0
  9
$DIMTZIN
 70
8
  9
$DIMALTZ
 70
0
  9
$DIMALTTZ
 70
0
  9
$DIMUPT
 70
1
  9
$DIMDEC
 70
2
  9
$DIMTDEC
 70
2
  9
$DIMALTU
 70
2
  9
$DIMALTTD
 70
3
  9
$DIMTXSTY
  7
OpenSansCondensed-Light
  9
$DIMAUNIT
 70
0
  9
$DIMADEC
 70
2
  9
$DIMALTRND
 40
0.0
  9
$DIMAZIN
 70
3
  9
$DIMDSEP
 70
46
  9
$DIMATFIT
 70
3
  9
$DIMFRAC
 70
0
  9
$DIMLDRBLK
  1

  9
$DIMLUNIT
 70
2
  9
$DIMLWD
 70
-2
  9
$DIMLWE
 70
-2
  9
$DIMTMOVE
 70
2
  9
$DIMFXL
 40
1.0
  9
$DIMFXLON
 70
0
  9
$DIMJOGANG
 40
0.785398163397
  9
$DIMTFILL
 70
0
  9
$DIMTFILLCLR
 70
0
  9
$DIMARCSYM
 70
0
  9
$DIMLTYPE
  6

  9
$DIMLTEX1
  6

  9
$DIMLTEX2
  6

  9
$LUNITS
 70
2
  9
$LUPREC
 70
4
  9
$SKETCHINC
 40
1.0
  9
$FILLETRAD
 40
10.0
  9
$AUNITS
 70
0
  9
$AUPREC
 70
2
  9
$MENU
  1
.
  9
$ELEVATION
 40
0.0
  9
$PELEVATION
 40
0.0
  9
$THICKNESS
 40
0.0
  9
$LIMCHECK
 70
0
  9
$CHAMFERA
 40
0.0
  9
$CHAMFERB
 40
0.0
  9
$CHAMFERC
 40
0.0
  9
$CHAMFERD
 40
0.0
  9
$SKPOLY
 70
0
  9
$TDCREATE
 40
2460396.440138889
  9
$TDUCREATE
 40
2458532.153996898
  9
$TDUPDATE
 40
2460396.440138889
  9
$TDUUPDATE
 40
2458532.1544311
  9
$TDINDWG
 40
0.0
  9
$TDUSRTIMER
 40
0.0
  9
$USRTIMER
 70
1
  9
$ANGBASE
 50
0.0
  9
$ANGDIR
 70
0
  9
$PDMODE
 70
0
  9
$PDSIZE
 40
0.0
  9
$PLINEWID
 40
0.0
  9
$SPLFRAME
 70
0
  9
$SPLINETYPE
 70
6
  9
$SPLINESEGS
 70
8
  9
$HANDSEED
  5
BB
  9
$SURFTAB1
 70
6
  9
$SURFTAB2
 70
6
  9
$SURFTYPE
 70
6
  9
$SURFU
 70
6
  9
$SURFV
 70
6
  9
$UCSBASE
  2

  9
$UCSNAME
  2

  9
$UCSORG
 10
0.0
 20
0.0
 30
0.0
  9
$UCSXDIR
 10
1.0
 20
0.0
 30
0.0
  9
$UCSYDIR
 10
0.0
 20
1.0
 30
0.0
  9
$UCSORTHOREF
  2

  9
$UCSORTHOVIEW
 70
0
  9
$UCSORGTOP
 10
0.0
 20
0.0
 30
0.0
  9
$UCSORGBOTTOM
 10
0.0
 20
0.0
 30
0.0
  9
$UCSORGLEFT
 10
0.0
 20
0.0
 30
0.0
  9
$UCSORGRIGHT
 10
0.0
 20
0.0
 30
0.0
  9
$UCSORGFRONT
 10
0.0
 20
0.0
 30
0.0
  9
$UCSORGBACK
 10
0.0
 20
0.0
 30
0.0
  9
$PUCSBASE
  2

  9
$PUCSNAME
  2

  9
$PUCSORG
 10
0.0
 20
0.0
 30
0.0
  9
$PUCSXDIR
 10
1.0
 20
0.0
 30
0.0
  9
$PUCSYDIR
 10
0.0
 20
1.0
 30
0.0
  9
$PUCSORTHOREF
  2

  9
$PUCSORTHOVIEW
 70
0
  9
$PUCSORGTOP
 10
0.0
 20
0.0
 30
0.0
  9
$PUCSORGBOTTOM
 10
0.0
 20
0.0
 30
0.0
  9
$PUCSORGLEFT
 10
0.0
 20
0.0
 30
0.0
  9
$PUCSORGRIGHT
 10
0.0
 20
0.0
 30
0.0
  9
$PUCSORGFRONT
 10
0.0
 20
0.0
 30
0.0
  9
$PUCSORGBACK
 10
0.0
 20
0.0
 30
0.0
  9
$USERI1
 70
0
  9
$USERI2
 70
0
  9
$USERI3
 70
0
  9
$USERI4
 70
0
  9
$USERI5
 70
0
  9
$USERR1
 40
0.0
  9
$USERR2
 40
0.0
  9
$USERR3
 40
0.0
  9
$USERR4
 40
0.0
  9
$USERR5
 40
0.0
  9
$WORLDVIEW
 70
1
  9
$SHADEDGE
 70
3
  9
$SHADEDIF
 70
70
  9
$TILEMODE
 70
1
  9
$MAXACTVP
 70
64
  9
$PINSBASE
 10
0.0
 20
0.0
 30
0.0
  9
$PLIMCHECK
 70
0
  9
$PEXTMIN
 10
1e+20
 20
1e+20
 30
1e+20
  9
$PEXTMAX
 10
-1e+20
 20
-1e+20
 30
-1e+20
  9
$PLIMMIN
 10
0.0
 20
0.0
  9
$PLIMMAX
 10
420.0
 20
297.0
  9
$UNITMODE
 70
0
  9
$VISRETAIN
 70
1
  9
$PLINEGEN
 70
0
  9
$PSLTSCALE
 70
1
  9
$TREEDEPTH
 70
3020
  9
$CMLSTYLE
  2
Standard
  9
$CMLJUST
 70
0
  9
$CMLSCALE
 40
20.0
  9
$PROXYGRAPHICS
 70
1
  9
$MEASUREMENT
 70
1
  9
$CELWEIGHT
370
-1
  9
$ENDCAPS
280
0
  9
$JOINSTYLE
280
0
  9
$LWDISPLAY
290
0
  9
$INSUNITS
 70
6
  9
$HYPERLINKBASE
  1

  9
$STYLESHEET
  1

  9
$XEDIT
290
1
  9
$CEPSNTYPE
380
0
  9
$PSTYLEMODE
290
1
  9
$FINGERPRINTGUID
  2
{6E068D2E-63E6-4A79-B889-70B0778E5557}
  9
$VERSIONGUID
  2
{2D90E84E-225B-4441-BF61-81D60DABDBCE}
  9
$EXTNAMES
290
1
  9
$PSVPSCALE
 40
0.0
  9
$OLESTARTUP
290
0
  9
$SORTENTS
280
127
  9
$INDEXCTL
280
0
  9
$HIDETEXT
280
1
  9
$XCLIPFRAME
290
0
  9
$HALOGAP
280
0
  9
$OBSCOLOR
 70
257
  9
$OBSLTYPE
280
0
  9
$INTERSECTIONDISPLAY
280
0
  9
$INTERSECTIONCOLOR
 70
257
  9
$DIMASSOC
280
2
  9
$PROJECTNAME
  1

  9
$CAMERADISPLAY
290
0
  9
$LENSLENGTH
 40
50.0
  9
$CAMERAHEIGHT
 40
0.0
  9
$STEPSPERSEC
 40
24.0
  9
$STEPSIZE
 40
100.0
  9
$3DDWFPREC
 40
2.0
  9
$PSOLWIDTH
 40
0.005
  9
$PSOLHEIGHT
 40
0.08
  9
$LOFTANG1
 40
1.570796326795
  9
$LOFTANG2
 40
1.570796326795
  9
$LOFTMAG1
 40
0.0
  9
$LOFTMAG2
 40
0.0
  9
$LOFTPARAM
 70
7
  9
$LOFTNORMALS
280
1
  9
$LATITUDE
 40
37.795
  9
$LONGITUDE
 40
-122.394
  9
$NORTHDIRECTION
 40
0.0
  9
$TIMEZONE
 70
-8000
  9
$LIGHTGLYPHDISPLAY
280
1
  9
$TILEMODELIGHTSYNCH
280
1
  9
$CMATERIAL
347
20
  9
$SOLIDHIST
280
0
  9
$SHOWHIST
280
1
  9
$DWFFRAME
280
2
  9
$DGNFRAME
280
2
  9
$REALWORLDSCALE
290
1
  9
$INTERFERECOLOR
 62
256
  9
$CSHADOW
280
0
  9
$SHADOWPLANELOCATION
 40
0.0
  0
ENDSEC
  0
SECTION
  2
CLASSES
  0
CLASS
  1
ACDBDICTIONARYWDFLT
  2
AcDbDictionaryWithDefault
  3
ObjectDBX Classes
 90
0
 91
0
280
0
281
0
  0
CLASS
  1
SUN
  2
AcDbSun
  3
SCENEOE
 90
1153
 91
0
280
0
281
0
  0
CLASS
  1
VISUALSTYLE
  2
AcDbVisualStyle
  3
ObjectDBX Classes
 90
4095
 91
0
280
0
281
0
  0
CLASS
  1
MATERIAL
  2
AcDbMaterial
  3
ObjectDBX Classes
 90
1153
 91
0
280
0
281
0
  0
CLASS
  1
SCALE
  2
AcDbScale
  3
ObjectDBX Classes
 90
1153
 91
0
280
0
281
0
  0
CLASS
  1
TABLESTYLE
  2
AcDbTableStyle
  3
ObjectDBX Classes
 90
4095
 91
0
280
0
281
0
  0
CLASS
  1
MLEADERSTYLE
  2
AcDbMLeaderStyle
  3
ACDB_MLEADERSTYLE_CLASS
 90
4095
 91
0
280
0
281
0
  0
CLASS
  1
DICTIONARYVAR
  2
AcDbDictionaryVar
  3
ObjectDBX Classes
 90
0
 91
0
280
0
281
0
  0
CLASS
  1
CELLSTYLEMAP
  2
AcDbCellStyleMap
  3
ObjectDBX Classes
 90
1152
 91
0
280
0
281
0
  0
CLASS
  1
MENTALRAYRENDERSETTINGS
  2
AcDbMentalRayRenderSettings
  3
SCENEOE
 90
1024
 91
0
280
0
281
0
  0
CLASS
  1
ACDBDETAILVIEWSTYLE
  2
AcDbDetailViewStyle
  3
ObjectDBX Classes
 90
1025
 91
0
280
0
281
0
  0
CLASS
  1
ACDBSECTIONVIEWSTYLE
  2
AcDbSectionViewStyle
  3
ObjectDBX Classes
 90
1025
 91
0
280
0
281
0
  0
CLASS
  1
RASTERVARIABLES
  2
AcDbRasterVariables
  3
ISM
 90
0
 91
0
280
0
281
0
  0
CLASS
  1
LAYOUT
  2
AcDbLayout
  3
ObjectDBX Classes
 90
0
 91
0
280
0
281
0
  0
CLASS
  1
ACDBPLACEHOLDER
  2
AcDbPlaceHolder
  3
ObjectDBX Classes
 90
0
 91
0
280
0
281
0
  0
ENDSEC
  0
SECTION
  2
TABLES
  0
TABLE
  2
VPORT
  5
8
330
0
100
AcDbSymbolTable
 70
1
  0
VPORT
  5
23
330
8
100
AcDbSymbolTableRecord
100
AcDbViewportTableRecord
  2
*Active
 70
0
 10
0.0
 20
0.0
 11
1.0
 21
1.0
 12
0.0
 22
0.0
 13
0.0
 23
0.0
 14
0.5
 24
0.5
 15
0.5
 25
0.5
 16
0.0
 26
0.0
 36
1.0
 17
0.0
 27
0.0
 37
0.0
 40
1000.0
 41
1.34
 42
50.0
 43
0.0
 44
0.0
 50
0.0
 51
0.0
 71
0
 72
1000
 73
1
 74
3
 75
0
 76
0
 77
0
 78
0
281
0
 65
0
146
0.0
  0
ENDTAB
  0
TABLE
  2
LTYPE
  5
2
330
0
100
AcDbSymbolTable
 70
21
  0
LTYPE
  5
24
330
2
100
AcDbSymbolTableRecord
100
AcDbLinetypeTableRecord
  2
ByBlock
 70
0
  3

 72
65
 73
0
 40
0.0
  0
LTYPE
  5
25
330
2
100
AcDbSymbolTableRecord
100
AcDbLinetypeTableRecord
  2
ByLayer
 70
0
  3

 72
65
 73
0
 40
0.0
  0
LTYPE
  5
26
330
2
100
AcDbSymbolTableRecord
100
AcDbLinetypeTableRecord
  2
Continuous
 70
0
  3

 72
65
 73
0
 40
0.0
  0
LTYPE
  5
2F
330
2
100
AcDbSymbolTableRecord
100
AcDbLinetypeTableRecord
  2
CENTER
 70
0
  3
Center ____ _ ____ _ ____ _ ____ _ ____ _ ____
 72
65
 73
4
 40
5.08
 49
3.175
 74
0
 49
-0.635
 74
0
 49
0.635
 74
0
 49
-0.635
 74
0
  0
LTYPE
  5
30
330
2
100
AcDbSymbolTableRecord
100
AcDbLinetypeTableRecord
  2
CENTERX2
 70
0
  3
Center (2x) ________  __  ________  __  ________
 72
65
 73
4
 40
8.89
 49
6.35
 74
0
 49
-0.635
 74
0
 49
1.27
 74
0
 49
-0.635
 74
0
  0
LTYPE
  5
31
330
2
100
AcDbSymbolTableRecord
100
AcDbLinetypeTableRecord
  2
CENTER2
 70
0
  3
Center (.5x) ____ _ ____ _ ____ _ ____ _ ____
 72
65
 73
4
 40
2.54
 49
1.587
 74
0
 49
-0.318
 74
0
 49
0.318
 74
0
 49
-0.318
 74
0
  0
LTYPE
  5
32
330
2
100
AcDbSymbolTableRecord
100
AcDbLinetypeTableRecord
  2
DASHED
 70
0
  3
Dashed __ __ __ __ __ __ __ __ __ __ __ __ __ _
 72
65
 73
2
 40
1.524
 49
1.27
 74
0
 49
-0.254
 74
0
  0
LTYPE
  5
33
330
2
100
AcDbSymbolTableRecord
100
AcDbLinetypeTableRecord
  2
DASHEDX2
 70
0
  3
Dashed (2x) ____  ____  ____  ____  ____  ____
 72
65
 73
2
 40
3.048
 49
2.54
 74
0
 49
-0.508
 74
0
  0
LTYPE
  5
34
330
2
100
AcDbSymbolTableRecord
100
AcDbLinetypeTableRecord
  2
DASHED2
 70
0
  3
Dashed (.5x) _ _ _ _ _ _ _ _ _ _ _ _ _ _
 72
65
 73
2
 40
0.762
 49
0.635
 74
0
 49
-0.127
 74
0
  0
LTYPE
  5
35
330
2
100
AcDbSymbolTableRecord
100
AcDbLinetypeTableRecord
  2
PHANTOM
 70
0
  3
Phantom ______  __  __  ______  __  __  ______
 72
65
 73
6
 40
6.35
 49
3.175
 74
0
 49
-0.635
 74
0
 49
0.635
 74
0
 49
-0.635
 74
0
 49
0.635
 74
0
 49
-0.635
 74
0
  0
LTYPE
  5
36
330
2
100
AcDbSymbolTableRecord
100
AcDbLinetypeTableRecord
  2
PHANTOMX2
 70
0
  3
Phantom (2x)____________    ____    ____    ____________
 72
65
 73
6
 40
10.795
 49
6.35
 74
0
 49
-0.635
 74
0
 49
1.27
 74
0
 49
-0.635
 74
0
 49
1.27
 74
0
 49
-0.635
 74
0
  0
LTYPE
  5
37
330
2
100
AcDbSymbolTableRecord
100
AcDbLinetypeTableRecord
  2
PHANTOM2
 70
0
  3
Phantom (.5x) ___ _ _ ___ _ _ ___ _ _ ___ _ _ ___
 72
65
 73
6
 40
3.175
 49
1.587
 74
0
 49
-0.318
 74
0
 49
0.318
 74
0
 49
-0.318
 74
0
 49
0.318
 74
0
 49
-0.318
 74
0
  0
LTYPE
  5
38
330
2
100
AcDbSymbolTableRecord
100
AcDbLinetypeTableRecord
  2
DASHDOT
 70
0
  3
Dash dot __ . __ . __ . __ . __ . __ . __ . __
 72
65
 73
4
 40
3.556
 49
2.54
 74
0
 49
-0.508
 74
0
 49
0.0
 74
0
 49
-0.508
 74
0
  0
LTYPE
  5
39
330
2
100
AcDbSymbolTableRecord
100
AcDbLinetypeTableRecord
  2
DASHDOTX2
 70
0
  3
Dash dot (2x) ____  .  ____  .  ____  .  ____
 72
65
 73
4
 40
6.096
 49
5.08
 74
0
 49
-0.508
 74
0
 49
0.0
 74
0
 49
-0.508
 74
0
  0
LTYPE
  5
3A
330
2
100
AcDbSymbolTableRecord
100
AcDbLinetypeTableRecord
  2
DASHDOT2
 70
0
  3
Dash dot (.5x) _ . _ . _ . _ . _ . _ . _ . _
 72
65
 73
4
 40
1.778
 49
1.27
 74
0
 49
-0.254
 74
0
 49
0.0
 74
0
 49
-0.254
 74
0
  0
LTYPE
  5
3B
330
2
100
AcDbSymbolTableRecord
100
AcDbLinetypeTableRecord
  2
DOT
 70
0
  3
Dot .  .  .  .  .  .  .  .  .  .  .  .  .  .  .  .
 72
65
 73
2
 40
0.508
 49
0.0
 74
0
 49
-0.508
 74
0
  0
LTYPE
  5
3C
330
2
100
AcDbSymbolTableRecord
100
AcDbLinetypeTableRecord
  2
DOTX2
 70
0
  3
Dot (2x) .    .    .    .    .    .    .    . 
 72
65
 73
2
 40
1.016
 49
0.0
 74
0
 49
-1.016
 74
0
  0
LTYPE
  5
3D
330
2
100
AcDbSymbolTableRecord
100
AcDbLinetypeTableRecord
  2
DOT2
 70
0
  3
Dot (.5) . . . . . . . . . . . . . . . . . . . 
 72
65
 73
2
 40
0.254
 49
0.0
 74
0
 49
-0.254
 74
0
  0
LTYPE
  5
3E
330
2
100
AcDbSymbolTableRecord
100
AcDbLinetypeTableRecord
  2
DIVIDE
 70
0
  3
Divide __ . . __ . . __ . . __ . . __ . . __
 72
65
 73
6
 40
4.064
 49
2.54
 74
0
 49
-0.508
 74
0
 49
0.0
 74
0
 49
-0.508
 74
0
 49
0.0
 74
0
 49
-0.508
 74
0
  0
LTYPE
  5
3F
330
2
100
AcDbSymbolTableRecord
100
AcDbLinetypeTableRecord
  2
DIVIDEX2
 70
0
  3
Divide (2x) ____  . .  ____  . .  ____  . .  ____
 72
65
 73
6
 40
6.604
 49
5.08
 74
0
 49
-0.508
 74
0
 49
0.0
 74
0
 49
-0.508
 74
0
 49
0.0
 74
0
 49
-0.508
 74
0
  0
LTYPE
  5
40
330
2
100
AcDbSymbolTableRecord
100
AcDbLinetypeTableRecord
  2
DIVIDE2
 70
0
  3
Divide(.5x) _ . _ . _ . _ . _ . _ . _ . _
 72
65
 73
6
 40
2.032
 49
1.27
 74
0
 49
-0.254
 74
0
 49
0.0
 74
0
 49
-0.254
 74
0
 49
0.0
 74
0
 49
-0.254
 74
0
  0
ENDTAB
  0
TABLE
  2
LAYER
  5
1
330
0
100
AcDbSymbolTable
 70
3
  0
LAYER
  5
27
330
1
100
AcDbSymbolTableRecord
100
AcDbLayerTableRecord
  2
0
 70
0
 62
7
  6
Continuous
370
-3
390
13
347
21
  0
LAYER
  5
28
330
1
100
AcDbSymbolTableRecord
100
AcDbLayerTableRecord
  2
Defpoints
 70
0
 62
7
  6
Continuous
290
0
370
-3
390
13
347
21
  0
LAYER
  5
8A
330
1
100
AcDbSymbolTableRecord
100
AcDbLayerTableRecord
  2
Layer
 70
0
 62
1
  6
Continuous
370
50
390
13
347
21
  0
ENDTAB
  0
TABLE
  2
STYLE
  5
5
330
0
100
AcDbSymbolTable
 70
26
  0
STYLE
  5
29
330
5
100
AcDbSymbolTableRecord
100
AcDbTextStyleTableRecord
  2
Standard
 70
0
 40
0.0
 41
1.0
 50
0.0
 71
0
 42
2.5
  3
txt
  4

  0
STYLE
  5
41
330
5
100
AcDbSymbolTableRecord
100
AcDbTextStyleTableRecord
  2
OpenSans-Light
 70
0
 40
0.0
 41
1.0
 50
0.0
 71
0
 42
2.5
  3
OpenSans-Light.ttf
  4

  0
STYLE
  5
42
330
5
100
AcDbSymbolTableRecord
100
AcDbTextStyleTableRecord
  2
OpenSans-Light-Italic
 70
0
 40
0.0
 41
1.0
 50
0.0
 71
0
 42
2.5
  3
OpenSans-LightItalic.ttf
  4

  0
STYLE
  5
43
330
5
100
AcDbSymbolTableRecord
100
AcDbTextStyleTableRecord
  2
OpenSans
 70
0
 40
0.0
 41
1.0
 50
0.0
 71
0
 42
2.5
  3
OpenSans-Regular.ttf
  4

  0
STYLE
  5
44
330
5
100
AcDbSymbolTableRecord
100
AcDbTextStyleTableRecord
  2
OpenSans-Italic
 70
0
 40
0.0
 41
1.0
 50
0.0
 71
0
 42
2.5
  3
OpenSans-Italic.ttf
  4

  0
STYLE
  5
45
330
5
100
AcDbSymbolTableRecord
100
AcDbTextStyleTableRecord
  2
OpenSans-SemiBold
 70
0
 40
0.0
 41
1.0
 50
0.0
 71
0
 42
2.5
  3
OpenSans-SemiBold.ttf
  4

  0
STYLE
  5
46
330
5
100
AcDbSymbolTableRecord
100
AcDbTextStyleTableRecord
  2
OpenSans-SemiBoldItalic
 70
0
 40
0.0
 41
1.0
 50
0.0
 71
0
 42
2.5
  3
OpenSans-SemiBoldItalic.ttf
  4

  0
STYLE
  5
47
330
5
100
AcDbSymbolTableRecord
100
AcDbTextStyleTableRecord
  2
OpenSans-Bold
 70
0
 40
0.0
 41
1.0
 50
0.0
 71
0
 42
2.5
  3
OpenSans-Bold.ttf
  4

  0
STYLE
  5
48
330
5
100
AcDbSymbolTableRecord
100
AcDbTextStyleTableRecord
  2
OpenSans-BoldItalic
 70
0
 40
0.0
 41
1.0
 50
0.0
 71
0
 42
2.5
  3
OpenSans-BoldItalic.ttf
  4

  0
STYLE
  5
49
330
5
100
AcDbSymbolTableRecord
100
AcDbTextStyleTableRecord
  2
OpenSans-ExtraBold
 70
0
 40
0.0
 41
1.0
 50
0.0
 71
0
 42
2.5
  3
OpenSans-ExtraBold.ttf
  4

  0
STYLE
  5
4A
330
5
100
AcDbSymbolTableRecord
100
AcDbTextStyleTableRecord
  2
OpenSans-ExtraBoldItalic
 70
0
 40
0.0
 41
1.0
 50
0.0
 71
0
 42
2.5
  3
OpenSans-ExtraBoldItalic.ttf
  4

  0
STYLE
  5
4B
330
5
100
AcDbSymbolTableRecord
100
AcDbTextStyleTableRecord
  2
OpenSansCondensed-Bold
 70
0
 40
0.0
 41
1.0
 50
0.0
 71
0
 42
2.5
  3
OpenSansCondensed-Bold.ttf
  4

  0
STYLE
  5
4C
330
5
100
AcDbSymbolTableRecord
100
AcDbTextStyleTableRecord
  2
OpenSansCondensed-Light
 70
0
 40
0.0
 41
1.0
 50
0.0
 71
0
 42
2.5
  3
OpenSansCondensed-Light.ttf
  4

  0
STYLE
  5
4D
330
5
100
AcDbSymbolTableRecord
100
AcDbTextStyleTableRecord
  2
OpenSansCondensed-Italic
 70
0
 40
0.0
 41
1.0
 50
0.0
 71
0
 42
2.5
  3
OpenSansCondensed-LightItalic.ttf
  4

  0
STYLE
  5
4E
330
5
100
AcDbSymbolTableRecord
100
AcDbTextStyleTableRecord
  2
LiberationSans
 70
0
 40
0.0
 41
1.0
 50
0.0
 71
0
 42
2.5
  3
LiberationSans-Regular.ttf
  4

  0
STYLE
  5
4F
330
5
100
AcDbSymbolTableRecord
100
AcDbTextStyleTableRecord
  2
LiberationSans-Bold
 70
0
 40
0.0
 41
1.0
 50
0.0
 71
0
 42
2.5
  3
LiberationSans-Bold.ttf
  4

  0
STYLE
  5
50
330
5
100
AcDbSymbolTableRecord
100
AcDbTextStyleTableRecord
  2
LiberationSans-BoldItalic
 70
0
 40
0.0
 41
1.0
 50
0.0
 71
0
 42
2.5
  3
LiberationSans-BoldItalic.ttf
  4

  0
STYLE
  5
51
330
5
100
AcDbSymbolTableRecord
100
AcDbTextStyleTableRecord
  2
LiberationSans-Italic
 70
0
 40
0.0
 41
1.0
 50
0.0
 71
0
 42
2.5
  3
LiberationSans-Italic.ttf
  4

  0
STYLE
  5
52
330
5
100
AcDbSymbolTableRecord
100
AcDbTextStyleTableRecord
  2
LiberationSerif
 70
0
 40
0.0
 41
1.0
 50
0.0
 71
0
 42
2.5
  3
LiberationSerif-Regular.ttf
  4

  0
STYLE
  5
53
330
5
100
AcDbSymbolTableRecord
100
AcDbTextStyleTableRecord
  2
LiberationSerif-Bold
 70
0
 40
0.0
 41
1.0
 50
0.0
 71
0
 42
2.5
  3
LiberationSerif-Bold.ttf
  4

  0
STYLE
  5
54
330
5
100
AcDbSymbolTableRecord
100
AcDbTextStyleTableRecord
  2
LiberationSerif-BoldItalic
 70
0
 40
0.0
 41
1.0
 50
0.0
 71
0
 42
2.5
  3
LiberationSerif-BoldItalic.ttf
  4

  0
STYLE
  5
55
330
5
100
AcDbSymbolTableRecord
100
AcDbTextStyleTableRecord
  2
LiberationSerif-Italic
 70
0
 40
0.0
 41
1.0
 50
0.0
 71
0
 42
2.5
  3
LiberationSerif-Italic.ttf
  4

  0
STYLE
  5
56
330
5
100
AcDbSymbolTableRecord
100
AcDbTextStyleTableRecord
  2
LiberationMono
 70
0
 40
0.0
 41
1.0
 50
0.0
 71
0
 42
2.5
  3
LiberationMono-Regular.ttf
  4

  0
STYLE
  5
57
330
5
100
AcDbSymbolTableRecord
100
AcDbTextStyleTableRecord
  2
LiberationMono-Bold
 70
0
 40
0.0
 41
1.0
 50
0.0
 71
0
 42
2.5
  3
LiberationMono-Bold.ttf
  4

  0
STYLE
  5
58
330
5
100
AcDbSymbolTableRecord
100
AcDbTextStyleTableRecord
  2
LiberationMono-BoldItalic
 70
0
 40
0.0
 41
1.0
 50
0.0
 71
0
 42
2.5
  3
LiberationMono-BoldItalic.ttf
  4

  0
STYLE
  5
59
330
5
100
AcDbSymbolTableRecord
100
AcDbTextStyleTableRecord
  2
LiberationMono-Italic
 70
0
 40
0.0
 41
1.0
 50
0.0
 71
0
 42
2.5
  3
LiberationMono-Italic.ttf
  4

  0
ENDTAB
  0
TABLE
  2
VIEW
  5
7
330
0
100
AcDbSymbolTable
 70
0
  0
ENDTAB
  0
TABLE
  2
UCS
  5
6
330
0
100
AcDbSymbolTable
 70
0
  0
ENDTAB
  0
TABLE
  2
APPID
  5
3
330
0
100
AcDbSymbolTable
 70
3
  0
APPID
  5
2A
330
3
100
AcDbSymbolTableRecord
100
AcDbRegAppTableRecord
  2
ACAD
 70
0
  0
APPID
  5
B8
330
3
100
AcDbSymbolTableRecord
100
AcDbRegAppTableRecord
  2
HATCHBACKGROUNDCOLOR
 70
0
  0
APPID
  5
B9
330
3
100
AcDbSymbolTableRecord
100
AcDbRegAppTableRecord
  2
EZDXF
 70
0
  0
ENDTAB
  0
TABLE
  2
DIMSTYLE
  5
4
330
0
100
AcDbSymbolTable
 70
12
100
AcDbDimStyleTable
  0
DIMSTYLE
105
2B
330
4
100
AcDbSymbolTableRecord
100
AcDbDimStyleTableRecord
  2
Standard
 70
0
 40
1.0
 41
2.5
 42
0.625
 43
3.75
 44
1.25
 45
0.0
 46
0.0
 47
0.0
 48
0.0
 49
2.5
140
2.5
141
2.5
142
0.0
143
0.03937007874
144
1.0
145
0.0
146
1.0
147
0.625
148
0.0
 69
0
 70
0
 71
0
 72
0
 73
0
 74
0
 75
0
 76
0
 77
1
 78
8
 79
3
170
0
171
3
172
1
173
0
174
0
175
0
176
0
177
0
178
0
179
2
271
2
272
2
273
2
274
3
275
0
276
0
277
2
278
44
279
0
280
0
281
0
282
0
283
0
284
8
285
0
286
0
288
0
289
3
290
0
371
-2
372
-2
  0
DIMSTYLE
105
73
330
4
100
AcDbSymbolTableRecord
100
AcDbDimStyleTableRecord
  2
EZDXF
 70
0
 40
1.0
 41
0.175
 42
0.125
 43
3.75
 44
0.375
 45
0.0
 46
0.0
 47
0.0
 48
0.0
 49
2.5
140
0.25
141
2.5
142
0.0
143
0.03937007874
144
100.0
145
0.0
146
0.5
147
0.1
148
0.0
 69
0
 70
0
 71
0
 72
0
 73
0
 74
0
 75
0
 76
0
 77
1
 78
12
 79
3
170
0
171
3
172
1
173
0
174
0
175
0
176
0
177
0
178
0
179
2
271
2
272
2
273
2
274
3
275
0
276
0
277
2
278
46
279
2
280
0
281
0
282
0
283
0
284
8
285
0
286
0
288
1
289
3
290
0
340
4C
342
74
371
-2
372
-2
  0
DIMSTYLE
105
7C
330
4
100
AcDbSymbolTableRecord
100
AcDbDimStyleTableRecord
  2
EZ_M_100_H25_CM
 70
0
 40
1.0
 41
0.25
 42
0.125
 43
3.75
 44
0.375
 45
0.0
 46
0.0
 47
0.0
 48
0.0
 49
2.5
140
0.25
141
2.5
142
0.125
143
0.03937007874
144
100.0
145
0.0
146
0.5
147
0.1
148
0.0
 69
0
 70
0
 71
0
 72
0
 73
0
 74
0
 75
0
 76
0
 77
1
 78
12
 79
3
170
0
171
3
172
1
173
0
174
0
175
0
176
0
177
0
178
0
179
2
271
2
272
2
273
2
274
3
275
0
276
0
277
2
278
46
279
2
280
0
281
0
282
0
283
0
284
8
285
0
286
0
288
1
289
3
290
0
340
4C
371
-2
372
-2
  0
DIMSTYLE
105
7D
330
4
100
AcDbSymbolTableRecord
100
AcDbDimStyleTableRecord
  2
EZ_M_50_H25_CM
 70
0
 40
1.0
 41
0.125
 42
0.0625
 43
3.75
 44
0.1875
 45
0.0
 46
0.0
 47
0.0
 48
0.0
 49
2.5
140
0.125
141
2.5
142
0.0625
143
0.03937007874
144
100.0
145
0.0
146
0.5
147
0.05
148
0.0
 69
0
 70
0
 71
0
 72
0
 73
0
 74
0
 75
0
 76
0
 77
1
 78
12
 79
3
170
0
171
3
172
1
173
0
174
0
175
0
176
0
177
0
178
0
179
2
271
2
272
2
273
2
274
3
275
0
276
0
277
2
278
46
279
2
280
0
281
0
282
0
283
0
284
8
285
0
286
0
288
1
289
3
290
0
340
4C
371
-2
372
-2
  0
DIMSTYLE
105
7E
330
4
100
AcDbSymbolTableRecord
100
AcDbDimStyleTableRecord
  2
EZ_M_25_H25_CM
 70
0
 40
1.0
 41
0.0625
 42
0.03125
 43
3.75
 44
0.09375
 45
0.0
 46
0.0
 47
0.0
 48
0.0
 49
2.5
140
0.0625
141
2.5
142
0.03125
143
0.03937007874
144
100.0
145
0.0
146
0.5
147
0.025
148
0.0
 69
0
 70
0
 71
0
 72
0
 73
0
 74
0
 75
0
 76
0
 77
1
 78
12
 79
3
170
0
171
3
172
1
173
0
174
0
175
0
176
0
177
0
178
0
179
2
271
2
272
2
273
2
274
3
275
0
276
0
277
2
278
46
279
2
280
0
281
0
282
0
283
0
284
8
285
0
286
0
288
1
289
3
290
0
340
4C
371
-2
372
-2
  0
DIMSTYLE
105
7F
330
4
100
AcDbSymbolTableRecord
100
AcDbDimStyleTableRecord
  2
EZ_M_20_H25_CM
 70
0
 40
1.0
 41
0.05
 42
0.025
 43
3.75
 44
0.07500000000000001
 45
0.0
 46
0.0
 47
0.0
 48
0.0
 49
2.5
140
0.05
141
2.5
142
0.025
143
0.03937007874
144
100.0
145
0.0
146
0.5
147
0.020000000000000004
148
0.0
 69
0
 70
0
 71
0
 72
0
 73
0
 74
0
 75
0
 76
0
 77
1
 78
12
 79
3
170
0
171
3
172
1
173
0
174
0
175
0
176
0
177
0
178
0
179
2
271
2
272
2
273
2
274
3
275
0
276
0
277
2
278
46
279
2
280
0
281
0
282
0
283
0
284
8
285
0
286
0
288
1
289
3
290
0
340
4C
371
-2
372
-2
  0
DIMSTYLE
105
80
330
4
100
AcDbSymbolTableRecord
100
AcDbDimStyleTableRecord
  2
EZ_M_10_H25_CM
 70
0
 40
1.0
 41
0.025
 42
0.0125
 43
3.75
 44
0.037500000000000006
 45
0.0
 46
0.0
 47
0.0
 48
0.0
 49
2.5
140
0.025
141
2.5
142
0.0125
143
0.03937007874
144
100.0
145
0.0
146
0.5
147
0.010000000000000002
148
0.0
 69
0
 70
0
 71
0
 72
0
 73
0
 74
0
 75
0
 76
0
 77
1
 78
12
 79
3
170
0
171
3
172
1
173
0
174
0
175
0
176
0
177
0
178
0
179
2
271
2
272
2
273
2
274
3
275
0
276
0
277
2
278
46
279
2
280
0
281
0
282
0
283
0
284
8
285
0
286
0
288
1
289
3
290
0
340
4C
371
-2
372
-2
  0
DIMSTYLE
105
81
330
4
100
AcDbSymbolTableRecord
100
AcDbDimStyleTableRecord
  2
EZ_M_5_H25_CM
 70
0
 40
1.0
 41
0.0125
 42
0.00625
 43
3.75
 44
0.018750000000000003
 45
0.0
 46
0.0
 47
0.0
 48
0.0
 49
2.5
140
0.0125
141
2.5
142
0.00625
143
0.03937007874
144
100.0
145
0.0
146
0.5
147
0.005000000000000001
148
0.0
 69
0
 70
0
 71
0
 72
0
 73
0
 74
0
 75
0
 76
0
 77
1
 78
12
 79
3
170
0
171
3
172
1
173
0
174
0
175
0
176
0
177
0
178
0
179
2
271
2
272
2
273
2
274
3
275
0
276
0
277
2
278
46
279
2
280
0
281
0
282
0
283
0
284
8
285
0
286
0
288
1
289
3
290
0
340
4C
371
-2
372
-2
  0
DIMSTYLE
105
82
330
4
100
AcDbSymbolTableRecord
100
AcDbDimStyleTableRecord
  2
EZ_M_1_H25_CM
 70
0
 40
1.0
 41
0.0025
 42
0.00125
 43
3.75
 44
0.00375
 45
0.0
 46
0.0
 47
0.0
 48
0.0
 49
2.5
140
0.0025
141
2.5
142
0.00125
143
0.03937007874
144
100.0
145
0.0
146
0.5
147
0.001
148
0.0
 69
0
 70
0
 71
0
 72
0
 73
0
 74
0
 75
0
 76
0
 77
1
 78
12
 79
3
170
0
171
3
172
1
173
0
174
0
175
0
176
0
177
0
178
0
179
2
271
2
272
2
273
2
274
3
275
0
276
0
277
2
278
46
279
2
280
0
281
0
282
0
283
0
284
8
285
0
286
0
288
1
289
3
290
0
340
4C
371
-2
372
-2
  0
DIMSTYLE
105
83
330
4
100
AcDbSymbolTableRecord
100
AcDbDimStyleTableRecord
  2
EZ_RADIUS
 70
0
 40
1.0
 41
0.25
 42
0.125
 43
3.75
 44
0.375
 45
0.0
 46
0.0
 47
0.0
 48
0.0
 49
2.5
140
0.25
141
0.0
142
0.0
143
0.03937007874
144
100.0
145
0.0
146
0.5
147
0.1
148
0.0
 69
0
 70
0
 71
0
 72
0
 73
0
 74
0
 75
0
 76
0
 77
1
 78
12
 79
3
170
0
171
3
172
0
173
0
174
0
175
0
176
0
177
0
178
0
179
2
271
2
272
2
273
2
274
3
275
0
276
0
277
2
278
46
279
1
280
0
281
0
282
0
283
0
284
8
285
0
286
0
288
1
289
3
290
0
340
4C
342
84
371
-2
372
-2
  0
DIMSTYLE
105
88
330
4
100
AcDbSymbolTableRecord
100
AcDbDimStyleTableRecord
  2
EZ_RADIUS_INSIDE
 70
0
 40
1.0
 41
0.25
 42
0.125
 43
3.75
 44
0.375
 45
0.0
 46
0.0
 47
0.0
 48
0.0
 49
2.5
140
0.25
141
0.0
142
0.0
143
0.03937007874
144
100.0
145
0.0
146
0.5
147
0.1
148
0.0
 69
0
 70
0
 71
0
 72
0
 73
0
 74
0
 75
0
 76
0
 77
0
 78
12
 79
3
170
0
171
3
172
0
173
0
174
1
175
0
176
0
177
0
178
0
179
2
271
2
272
2
273
2
274
3
275
0
276
0
277
2
278
46
279
0
280
0
281
0
282
0
283
0
284
8
285
0
286
0
288
1
289
0
290
0
340
4C
342
84
371
-2
372
-2
  0
DIMSTYLE
105
89
330
4
100
AcDbSymbolTableRecord
100
AcDbDimStyleTableRecord
  2
EZ_CURVED
 70
0
 40
1.0
 41
0.25
 42
0.125
 43
3.75
 44
0.375
 45
0.0
 46
0.0
 47
0.0
 48
0.0
 49
2.5
140
0.25
141
2.5
142
0.0
143
0.03937007874
144
100.0
145
0.0
146
0.5
147
0.1
148
0.0
 69
0
 70
0
 71
0
 72
0
 73
0
 74
0
 75
0
 76
0
 77
1
 78
12
 79
2
 90
2
170
0
171
3
172
1
173
0
174
0
175
0
176
0
177
0
178
0
179
2
271
2
272
2
273
2
274
3
275
0
276
0
277
2
278
46
279
2
280
0
281
0
282
0
283
0
284
8
285
0
286
0
288
1
289
3
290
0
340
4C
371
-2
372
-2
  0
ENDTAB
  0
TABLE
  2
BLOCK_RECORD
  5
9
330
0
100
AcDbSymbolTable
 70
5
  0
BLOCK_RECORD
  5
17
330
9
100
AcDbSymbolTableRecord
100
AcDbBlockTableRecord
  2
*Model_Space
340
1A
 70
0
280
1
281
0
  0
BLOCK_RECORD
  5
1B
330
9
100
AcDbSymbolTableRecord
100
AcDbBlockTableRecord
  2
*Paper_Space
340
1E
 70
0
280
1
281
0
  0
BLOCK_RECORD
  5
74
330
9
100
AcDbSymbolTableRecord
100
AcDbBlockTableRecord
  2
_ARCHTICK
340
0
 70
0
280
1
281
0
  0
BLOCK_RECORD
  5
78
330
9
100
AcDbSymbolTableRecord
100
AcDbBlockTableRecord
  2
_CLOSEDFILLED
340
0
 70
0
280
1
281
0
  0
BLOCK_RECORD
  5
84
330
9
100
AcDbSymbolTableRecord
100
AcDbBlockTableRecord
  2
_CLOSEDBLANK
340
0
 70
0
280
1
281
0
  0
ENDTAB
  0
ENDSEC
  0
SECTION
  2
BLOCKS
  0
BLOCK
  5
18
330
17
100
AcDbEntity
  8
0
100
AcDbBlockBegin
  2
*Model_Space
 70
0
 10
0.0
 20
0.0
 30
0.0
  3
*Model_Space
  1

  0
ENDBLK
  5
19
330
17
100
AcDbEntity
  8
0
100
AcDbBlockEnd
  0
BLOCK
  5
1C
330
1B
100
AcDbEntity
  8
0
100
AcDbBlockBegin
  2
*Paper_Space
 70
0
 10
0.0
 20
0.0
 30
0.0
  3
*Paper_Space
  1

  0
ENDBLK
  5
1D
330
1B
100
AcDbEntity
  8
0
100
AcDbBlockEnd
  0
BLOCK
  5
75
330
74
100
AcDbEntity
  8
0
100
AcDbBlockBegin
  2
_ARCHTICK
 70
0
 10
0.0
 20
0.0
 30
0.0
  3
_ARCHTICK
  1

  0
LWPOLYLINE
  5
77
330
74
100
AcDbEntity
  8
0
  6
BYBLOCK
 62
0
100
AcDbPolyline
 90
2
 70
0
 43
0.15
 10
-0.5
 20
-0.5000000000000001
 10
0.5000000000000001
 20
0.5
  0
ENDBLK
  5
76
330
74
100
AcDbEntity
  8
0
100
AcDbBlockEnd
  0
BLOCK
  5
79
330
78
100
AcDbEntity
  8
0
100
AcDbBlockBegin
  2
_CLOSEDFILLED
 70
0
 10
0.0
 20
0.0
 30
0.0
  3
_CLOSEDFILLED
  1

  0
SOLID
  5
7B
330
78
100
AcDbEntity
  8
0
  6
BYBLOCK
 62
0
100
AcDbTrace
 10
-1.0
 20
0.1643989837240255
 30
0.0
 11
0.0
 21
0.0
 31
0.0
 12
-1.0
 22
-0.1643989837240255
 32
0.0
 13
-1.0
 23
-0.1643989837240255
 33
0.0
  0
ENDBLK
  5
7A
330
78
100
AcDbEntity
  8
0
100
AcDbBlockEnd
  0
BLOCK
  5
85
330
84
100
AcDbEntity
  8
0
100
AcDbBlockBegin
  2
_CLOSEDBLANK
 70
0
 10
0.0
 20
0.0
 30
0.0
  3
_CLOSEDBLANK
  1

  0
LWPOLYLINE
  5
87
330
84
100
AcDbEntity
  8
0
  6
BYBLOCK
 62
0
100
AcDbPolyline
 90
3
 70
1
 10
-1.0
 20
0.1643989837240255
 10
0.0
 20
0.0
 10
-1.0
 20
-0.1643989837240255
  0
ENDBLK
  5
86
330
84
100
AcDbEntity
  8
0
100
AcDbBlockEnd
  0
ENDSEC
  0
SECTION
  2
ENTITIES
  0
LWPOLYLINE
  5
8B
330
17
100
AcDbEntity
  8
Layer
100
AcDbPolyline
 90
303
 70
1
 10
998.7296004886246
 20
-0.40698399597988555
 10
995.7418873280254
 20
0.8091192923864696
 10
990.9307509594452
 20
2.673871635298781
 10
985.7280627974583
 20
4.73289240415572
 10
980.0436554890405
 20
6.943134412427156
 10
973.8425054306639
 20
9.309613291902949
 10
967.1717626021859
 20
11.85404412485002
 10
960.1116813225067
 20
14.560538321232144
 10
952.7238564136562
 20
17.37995847490329
 10
945.1235418562411
 20
20.276734831597437
 10
937.449878841927
 20
23.172614220254673
 10
929.7108868317679
 20
26.03588876811699
 10
921.866685145686
 20
28.999286968305697
 10
913.9317712361993
 20
32.0095519237602
 10
905.8587200577806
 20
35.0099677008328
 10
897.6544269517551
 20
38.04664641332982
 10
889.3096582244634
 20
41.09640116803977
 10
880.8065792145867
 20
44.21585815081691
 10
872.1679988071246
 20
47.379379088804114
 10
863.430795449703
 20
50.57169804694628
 10
854.6310558897676
 20
53.783378399738474
 10
845.8031506955988
 20
57.0050042464066
 10
836.9712434434732
 20
60.22102156291748
 10
828.141449976667
 20
63.42325912086585
 10
819.3146894326544
 20
66.61025679990499
 10
810.4938800298853
 20
69.78160855397668
 10
801.6893159902078
 20
72.93595790006148
 10
792.9183588107869
 20
76.06442905128361
 10
784.181561597087
 20
79.15726327538863
 10
775.4620143264774
 20
82.21566109197954
 10
766.7531231984597
 20
85.24554267027669
 10
758.0629612445916
 20
88.24531889586889
 10
753.7622127347197
 20
89.71620846146816
 10
753.422427347872
 20
88.72270662911717
 10
749.0590617004898
 20
90.21502038959134
 10
740.4133780322885
 20
93.14006526081735
 10
731.7799499284422
 20
96.02724104218098
 10
723.1522482946837
 20
98.87723508730781
 10
714.5243479677863
 20
101.6926576564565
 10
705.897253420942
 20
104.47760801808607
 10
697.2947562812346
 20
107.23028569867265
 10
688.747383407561
 20
109.93684998314652
 10
680.2624980889344
 20
112.58247884227474
 10
671.8285971957689
 20
115.16219708869554
 10
663.4321967492996
 20
117.67631421040568
 10
655.061533206064
 20
120.12638766119179
 10
646.7062008249259
 20
122.51459070381253
 10
638.3605966632972
 20
124.84335800819063
 10
630.0254217032539
 20
127.11294980443952
 10
621.7018496742597
 20
129.3206160561428
 10
613.3825267069984
 20
131.4642083462816
 10
605.0554375242035
 20
133.54584344497476
 10
596.7141458529757
 20
135.56892433922266
 10
588.3561266287389
 20
137.53544796284552
 10
579.9807022313121
 20
139.44666716059623
 10
571.589205869122
 20
141.30317086601752
 10
563.1850842631536
 20
143.104647711067
 10
554.7702327653848
 20
144.84912742613014
 10
546.3390727340766
 20
146.53539709320637
 10
537.883462738588
 20
148.165832160427
 10
529.4006119979666
 20
149.74376348707295
 10
520.892519677689
 20
151.27173941995756
 10
512.3679053039006
 20
152.75064972140677
 10
503.83639833594543
 20
154.17851934294976
 10
495.3031708359579
 20
155.55245675029482
 10
486.7703417662836
 20
156.87159774087726
 10
478.2419886034086
 20
158.1350113833392
 10
469.7206412399504
 20
159.3407924705203
 10
461.2056369299603
 20
160.4871966103797
 10
452.69429009688776
 20
161.57403653331554
 10
444.1867917982747
 20
162.6015931259115
 10
435.683955312252
 20
163.56909945397632
 10
427.1842215858619
 20
164.4756762808557
 10
418.6860385570798
 20
165.32144442554767
 10
410.19098166107443
 20
166.106480840688
 10
401.69771293241814
 20
166.82908218263597
 10
393.20210312290016
 20
167.48886147760544
 10
384.699902092992
 20
168.0874489037049
 10
376.19405903284496
 20
168.62673174693998
 10
367.6904943347461
 20
169.10686456883144
 10
359.1944504384294
 20
169.5266449213704
 10
350.7090084181235
 20
169.88453064915683
 10
342.2345644668439
 20
170.17927703453137
 10
333.77146426975384
 20
170.4108495044802
 10
325.3222867002548
 20
170.5800417727549
 10
316.8952421948069
 20
170.68876329148515
 10
308.50606557759113
 20
170.73677030867862
 10
300.16716061972517
 20
170.7200404798843
 10
291.88353458955373
 20
170.63250942144407
 10
283.6478095423772
 20
170.46624849386333
 10
275.4371905195374
 20
170.21669279705026
 10
267.2339861765724
 20
169.88806648634414
 10
259.04097964108905
 20
169.4866353104959
 10
250.86747369230721
 20
169.01253910461563
 10
242.71678825894202
 20
168.46396558435563
 10
234.59117990276445
 20
167.84113290637333
 10
226.4978658884962
 20
167.14516324529106
 10
218.4443046547002
 20
166.37530259236718
 10
210.43641908772932
 20
165.53051443079733
 10
202.47867005480913
 20
164.6094484029058
 10
194.57487945244063
 20
163.61118922836945
 10
186.72942140386095
 20
162.53576654257057
 10
178.95094814702477
 20
161.38267960841569
 10
171.2408201049367
 20
160.1449465458602
 10
163.58454105271156
 20
158.8189694907
 10
155.9830030796726
 20
157.41769569055714
 10
148.47645246050266
 20
155.95795126620456
 10
141.10608479782763
 20
154.43877680143873
 10
133.8852462006624
 20
152.84928130414957
 10
126.81178829412102
 20
151.18136525240448
 10
119.880364687302
 20
149.43105895728817
 10
113.0867909498927
 20
147.597664179505
 10
106.4317100485219
 20
145.6837272188369
 10
99.92218963896471
 20
143.69560553375356
 10
93.57315005658336
 20
141.64189494177572
 10
87.40228350119418
 20
139.52864476591225
 10
81.42114918908197
 20
137.36080914262283
 10
75.64204158688995
 20
135.1523847885719
 10
70.08860741055128
 20
132.92580190019297
 10
64.78917688443119
 20
130.6996395694415
 10
59.7647576346987
 20
128.4850953030793
 10
55.02655137367475
 20
126.28909750174049
 10
50.5753397820223
 20
124.11523070214265
 10
46.404425799451246
 20
121.96924919182096
 10
42.50562403904655
 20
119.86090209389789
 10
38.8699491850474
 20
117.79957127901348
 10
35.487984641181185
 20
115.79384326742623
 10
32.350064001503085
 20
113.84817615938573
 10
29.44455436058945
 20
111.96234870055478
 10
26.758228914483425
 20
110.13321098250955
 10
24.27609267568971
 20
108.35525910123928
 10
21.980014226658227
 20
106.62298657631372
 10
19.852164381280318
 20
104.93761145291197
 10
17.87837733762018
 20
103.30278920247272
 10
16.048090813159035
 20
101.71930936771287
 10
14.351455443264285
 20
100.18388024982843
 10
12.779108445187887
 20
98.69363842565254
 10
11.32257093971782
 20
97.24574787294958
 10
9.973931385447543
 20
95.8371942760643
 10
8.724709833141617
 20
94.46383226842376
 10
7.566200120877113
 20
93.12391351508116
 10
6.492810218029092
 20
91.8202025376467
 10
5.502646074181314
 20
90.55304342800851
 10
4.58965803257729
 20
89.31055619584741
 10
3.741117172867348
 20
88.08524396922527
 10
2.9531561563121045
 20
86.89792931373594
 10
2.2384341728910613
 20
85.76482418569955
 10
1.6010738713634396
 20
84.65076935387228
 10
1.0234342387129232
 20
83.52107373695874
 10
0.49188425351178466
 20
82.41458767369907
 10
0.019270288065285968
 20
81.37245674639347
 10
-0.37990384974625613
 20
80.3598648330334
 10
-0.7103892614139227
 20
79.33486167236154
 10
-0.9864600352679531
 20
78.31585416614828
 10
-1.2126954164503445
 20
77.32953715158655
 10
-1.3844412726788846
 20
76.37052965220765
 10
-1.501291557170191
 20
75.41139705010912
 10
-1.5607035678252146
 20
74.5184519458972
 10
-1.5621411104402796
 20
73.61526978918278
 10
-1.4892325844161292
 20
72.70777131907568
 10
-1.3333947704847446
 20
71.78850838062918
 10
-1.0960350103504197
 20
70.86340890788969
 10
-0.779347691973328
 20
69.94055100647786
 10
-0.3830370300708523
 20
69.02606325542271
 10
0.0942400795983076
 20
68.12592439796697
 10
0.6601523253222012
 20
67.23891259748643
 10
1.3179774597358573
 20
66.36286914759856
 10
2.0608634765043234
 20
65.50013708886156
 10
2.884018707225266
 20
64.65271472368097
 10
3.785313118619797
 20
63.822554218053554
 10
4.7648553538329566
 20
63.01176037598373
 10
5.82691225229371
 20
62.22127264128174
 10
6.976032946584553
 20
61.45070309804898
 10
8.217445403714748
 20
60.697741362892494
 10
9.555112570787571
 20
59.95793226442799
 10
10.990615154538602
 20
59.22541832915958
 10
12.525014524297603
 20
58.49486901203735
 10
14.162070682582453
 20
57.76218679613198
 10
15.907649232122878
 20
57.02444539387259
 10
17.768935808140384
 20
56.27987696342291
 10
19.75347060713858
 20
55.52898317729136
 10
21.87489405354154
 20
54.7755082876532
 10
24.154450478804847
 20
54.02229505602885
 10
26.611725402102365
 20
53.26576011247505
 10
29.262149266149265
 20
52.49899759509682
 10
32.12268196015373
 20
51.71661094551816
 10
35.21241463191376
 20
50.91549919083283
 10
38.55109806090945
 20
50.09812522398702
 10
42.16410173301949
 20
49.27315661453637
 10
46.081810822902185
 20
48.44842833976239
 10
50.33856534733587
 20
47.62853179176593
 10
54.972239939142185
 20
46.81258319588521
 10
60.0107761296905
 20
45.99043895848759
 10
65.45988443365098
 20
45.1561556062168
 10
71.3146011914439
 20
44.321444474656865
 10
77.57381071592113
 20
43.50316099615312
 10
84.23457875017687
 20
42.70984942601405
 10
91.28665551459721
 20
41.94222384661762
 10
98.70053017735108
 20
41.193676792598794
 10
106.4111498823998
 20
40.46033812543441
 10
114.33882453826936
 20
39.753185491838735
 10
122.42559292404218
 20
39.08993811004398
 10
130.6470127423109
 20
38.487248900363234
 10
139.02286063700484
 20
37.95121212843054
 10
147.58051541735455
 20
37.46610849229693
 10
156.29779491748812
 20
37.01204073992964
 10
165.13626154398094
 20
36.58851815371905
 10
174.0912845212862
 20
36.198386327633685
 10
183.1630904908021
 20
35.83219307856092
 10
192.32176241642077
 20
35.477881115904665
 10
195.3948888528828
 20
35.36272453432038
 10
195.35557071455722
 20
34.313460943034286
 10
201.4847170590419
 20
34.08378814057386
 10
210.69313884011527
 20
33.754481287865616
 10
219.8975789901249
 20
33.45307438622291
 10
229.1255294803936
 20
33.18453912409197
 10
238.40046808358076
 20
32.93972128198399
 10
247.71567692807665
 20
32.70824242422579
 10
257.0487637243573
 20
32.48565855023253
 10
266.3734127973441
 20
32.275483810992725
 10
275.687233685187
 20
32.088597910571124
 10
285.01992060519797
 20
31.92909752227844
 10
294.39703775665924
 20
31.78979795738468
 10
303.81798528455096
 20
31.657245663053246
 10
313.2597208660783
 20
31.51744931961366
 10
322.7225378064255
 20
31.370750173992974
 10
332.1953161396164
 20
31.231134487391188
 10
341.6913814034363
 20
31.101739290677074
 10
351.2105447539619
 20
30.975622662221582
 10
360.7372081239233
 20
30.84722324638659
 10
370.26615694188337
 20
30.714114921166072
 10
379.7969946810236
 20
30.57571423655142
 10
389.3268059301302
 20
30.43465194293978
 10
398.848022137969
 20
30.29776210005052
 10
408.3685623177357
 20
30.170208727398773
 10
417.8975992052683
 20
30.04726603346549
 10
427.4259017639277
 20
29.920961727663737
 10
436.9549822342549
 20
29.788547278803875
 10
446.4862287252394
 20
29.651312870388736
 10
456.0152155382663
 20
29.515345618828718
 10
465.53964986647543
 20
29.385774306408067
 10
475.0656408981608
 20
29.26264303398837
 10
484.5907374836728
 20
29.142721749301586
 10
494.10630445693926
 20
29.020424191505427
 10
503.6096251671987
 20
28.89101271724357
 10
513.1052720424377
 20
28.752515989759885
 10
522.5986281883304
 20
28.605320678450724
 10
532.0897771732971
 20
28.451744719583715
 10
541.5710021711238
 20
28.291986394852245
 10
551.038836856392
 20
28.12349369678371
 10
560.4972630787219
 20
27.94242939888362
 10
569.9596616543839
 20
27.74593277395111
 10
579.4430404669112
 20
27.537422004529162
 10
588.9455126609087
 20
27.32460268394445
 10
598.452050030615
 20
27.11468473324574
 10
607.9619579399593
 20
26.911674165218187
 10
617.4733458682965
 20
26.71099007876198
 10
626.976068494632
 20
26.504531028373705
 10
636.4751284970266
 20
26.289180287089323
 10
645.9762717676485
 20
26.065992558255104
 10
655.4748567825384
 20
25.842179810953056
 10
664.9615013598876
 20
25.624139571426795
 10
674.4314228795049
 20
25.405395232333916
 10
683.8752177047406
 20
25.176480285332644
 10
693.3037159882676
 20
24.93191312727464
 10
702.7343766978228
 20
24.670934813198215
 10
712.1738052934818
 20
24.401811155961255
 10
721.5993668523474
 20
24.131036816849246
 10
730.9809358082729
 20
23.858124333882543
 10
740.2951019721866
 20
23.57531184330101
 10
749.54251113905
 20
23.26891927968363
 10
758.7513643110913
 20
22.935131349031522
 10
767.9183410303718
 20
22.588044052269908
 10
776.995495946896
 20
22.22644538949463
 10
785.9773017728221
 20
21.82532810142517
 10
794.9092716789345
 20
21.373402000332334
 10
803.8218016835253
 20
20.87900638935716
 10
812.6989113357943
 20
20.364129182031263
 10
821.4984233627306
 20
19.860788262241527
 10
830.1315222719554
 20
19.35034370140167
 10
838.5906275889031
 20
18.758004632353547
 10
847.0185191405842
 20
18.070414026569267
 10
855.4488348190534
 20
17.379819650622423
 10
863.79471045834
 20
16.71332820093025
 10
872.0234503088857
 20
15.98867286249083
 10
880.2114307079751
 20
15.170807619548512
 10
888.378982510042
 20
14.356472087199279
 10
896.4629753628301
 20
13.590972130855178
 10
904.4293955695001
 20
12.774967109236272
 10
912.3517346586738
 20
11.821777569153795
 10
920.3238423120433
 20
10.796713757491176
 10
928.2546522461088
 20
9.778432490070728
 10
935.9804849066859
 20
8.74740028996871
 10
943.540047328903
 20
7.576618552665153
 10
951.0562063520094
 20
6.32873767444535
 10
958.4297093552392
 20
5.062558108532741
 10
965.5582680810035
 20
3.825227716563276
 10
972.3401609625255
 20
2.592696465710887
 10
978.7542831743231
 20
1.3771589346894757
 10
984.7711871200738
 20
0.2398274573338881
 10
990.3613772973982
 20
-0.851199481694735
 10
995.5095020899931
 20
-1.8794364024522139
 10
998.6911052874882
 20
-2.5489953769602067
  0
LWPOLYLINE
  5
8C
330
17
100
AcDbEntity
  8
Layer
100
AcDbPolyline
 90
5
 70
0
 10
655.9279792891303
 20
115.70493377694226
 10
652.0890410074272
 20
116.82856755592621
 10
653.2126747864112
 20
120.66750583762939
 10
657.0516130681143
 20
119.54387205864543
 10
655.9279792891303
 20
115.70493377694226
  0
LWPOLYLINE
  5
8D
330
17
100
AcDbEntity
  8
Layer
100
AcDbPolyline
 90
5
 70
0
 10
258.5780555616226
 20
165.453055104889
 10
254.5847693848593
 20
165.22139692896783
 10
254.3531112089382
 20
169.21468310573115
 10
258.3463973857015
 20
169.4463412816523
 10
258.5780555616226
 20
165.453055104889
  0
LWPOLYLINE
  5
8E
330
17
100
AcDbEntity
  8
Layer
100
AcDbPolyline
 90
5
 70
0
 10
106.73670298670315
 20
141.59444833926045
 10
102.91118391803703
 20
140.42594337338664
 10
101.74267895216322
 20
144.2514624420528
 10
105.56819802082934
 20
145.4199674079266
 10
106.73670298670315
 20
141.59444833926045
  0
LWPOLYLINE
  5
8F
330
17
100
AcDbEntity
  8
Layer
100
AcDbPolyline
 90
5
 70
0
 10
24.36934427203965
 20
102.13692958636506
 10
22.801713378093954
 20
100.89494191317863
 10
19.69674419512791
 20
104.81401914804286
 10
21.264375089073607
 20
106.05600682122929
 10
24.36934427203965
 20
102.13692958636506
  0
LWPOLYLINE
  5
90
330
17
100
AcDbEntity
  8
Layer
100
AcDbPolyline
 90
5
 70
0
 10
45.56132745572
 20
53.66772191253819
 10
47.51845512822832
 20
53.25583446006831
 10
46.4887364970536
 20
48.363015278797484
 10
44.53160882454528
 20
48.77490273126737
 10
45.56132745572
 20
53.66772191253819
  0
LWPOLYLINE
  5
91
330
17
100
AcDbEntity
  8
Layer
100
AcDbPolyline
 90
5
 70
0
 10
143.44014008731148
 20
41.70724124518644
 10
147.43372922848715
 20
41.48086595615543
 10
147.20735393945614
 20
37.487276814979765
 10
143.21376479828047
 20
37.71365210401078
 10
143.44014008731148
 20
41.70724124518644
  0
LINE
  5
92
330
17
100
AcDbEntity
  8
Layer
100
AcDbLine
 10
980.5586107018058
 20
6.7429067401512555
 30
0.0
 11
980.352696286256
 21
6.287276129383315
 31
0.0
  0
LINE
  5
93
330
17
100
AcDbEntity
  8
Layer
100
AcDbLine
 10
979.0551776059069
 20
1.8286223135474273
 30
0.0
 11
978.9844974830752
 21
1.3336432026382
 31
0.0
  0
LINE
  5
94
330
17
100
AcDbEntity
  8
Layer
100
AcDbLine
 10
961.8602655992215
 20
13.890215557323614
 30
0.0
 11
961.6679679690769
 21
13.428672903345927
 31
0.0
  0
LINE
  5
95
330
17
100
AcDbEntity
  8
Layer
100
AcDbLine
 10
959.3797845914299
 20
5.40509515560241
 30
0.0
 11
959.2997208854988
 21
4.911546978630227
 31
0.0
  0
LINE
  5
96
330
17
100
AcDbEntity
  8
Layer
100
AcDbLine
 10
924.4308828026461
 20
28.030579249450582
 30
0.0
 11
924.2463569426078
 21
27.5658748197567
 31
0.0
  0
LINE
  5
97
330
17
100
AcDbEntity
  8
Layer
100
AcDbLine
 10
919.8221760927495
 20
11.365147122104176
 30
0.0
 11
919.7448966795092
 21
10.871155328357318
 31
0.0
  0
LWPOLYLINE
  5
98
330
17
100
AcDbEntity
  8
Layer
100
AcDbPolyline
 90
300
 70
1
 10
430.9722657894736
 20
100.0
 10
430.96030008655276
 20
101.13792929086259
 10
430.9244082615077
 20
102.27535610418434
 10
430.86460616315804
 20
103.41177818430438
 10
430.7809201984269
 20
104.54669371922371
 10
430.6733873206804
 20
105.67960156219128
 10
430.5420550134102
 20
106.81000145299629
 10
430.3869812692661
 20
107.93739423886903
 10
430.2082345644479
 20
109.06128209489266
 10
430.0058938284686
 20
110.18116874382868
 10
429.780048409301
 20
111.29655967525902
 10
429.53079803392455
 20
112.4069623639479
 10
429.2582527642882
 20
113.5118864873271
 10
428.9625329487106
 20
114.61084414200865
 10
428.6437691687375
 20
115.70335005922912
 10
428.30210218148045
 20
116.78892181913079
 10
427.93768285746285
 20
117.86708006378457
 10
427.5506721139992
 20
118.93734870886101
 10
427.1412408441392
 20
119.99925515385576
 10
426.70956984120556
 20
121.05233049077657
 10
426.25584971896114
 20
122.09610971119993
 10
425.7802808274392
 20
123.13013191160572
 10
425.2830731644744
 20
124.15394049689912
 10
424.7644462829737
 20
125.16708338203028
 10
424.22462919396816
 20
126.16911319162224
 10
423.6638602654877
 20
127.1595874575194
 10
423.0823871173049
 20
128.1380688141689
 10
422.48046651159285
 20
129.10412519174903
 10
421.8583642395463
 20
130.05733000695906
 10
421.21635500401555
 20
130.99726235138638
 10
420.55472229820595
 20
131.9235071773679
 10
419.8737582804945
 20
132.83565548126327
 10
419.1737636454215
 20
133.73330448405957
 10
418.4550474909122
 20
134.61605780922696
 10
417.71792718178773
 20
135.48352565774763
 10
416.9627282096258
 20
136.33532498023985
 10
416.1897840490329
 20
137.17107964610193
 10
415.3994360103909
 20
137.9904206096009
 10
414.5920330891446
 20
138.79298607283266
 10
413.76793181169467
 20
139.5784216454818
 10
412.92749607796577
 20
140.34638050131034
 10
412.0710970007188
 20
141.09652353130647
 10
411.19911274167754
 20
141.82851949342552
 10
410.3119283445435
 20
142.54204515885715
 10
409.4099355649712
 20
143.2367854547541
 10
408.49353269757984
 20
143.91243360335943
 10
407.56312440007804
 20
144.56869125747096
 10
406.6191215145778
 20
145.20526863218305
 10
405.6619408861786
 20
145.82188463284746
 10
404.6920051789003
 20
146.41826697919666
 10
403.7097426890463
 20
146.9941523255754
 10
402.7155871560804
 20
147.5492863772266
 10
401.7099775710993
 20
148.0834240025806
 10
400.69335798298664
 20
148.59632934149874
 10
399.66617730233355
 20
149.0877759094222
 10
398.62888910321226
 20
149.5575466973813
 10
397.5819514228907
 20
150.00543426782073
 10
396.525826559576
 20
150.43124084619794
 10
395.4609808682766
 20
150.83477840831483
 10
394.3878845548732
 20
151.21586876334405
 10
393.3070114684889
 20
151.57434363251292
 10
392.2188388922508
 20
151.9100447234107
 10
391.1238473325353
 20
152.22282379988602
 10
390.0225203067899
 20
152.5125427475038
 10
388.9153441300255
 20
152.77907363453272
 10
387.8028077000735
 20
153.0222987684362
 10
386.68540228170224
 20
153.24211074784216
 10
385.5636212896882
 20
153.43841250996846
 10
384.43796007093795
 20
153.61111737348307
 10
383.30891568575714
 20
153.76014907678012
 10
382.17698668836226
 20
153.8854418116548
 10
381.04267290673357
 20
153.9869402523626
 10
379.90647522190477
 20
154.06459958004933
 10
378.76889534678816
 20
154.11838550254208
 10
377.63043560463245
 20
154.14827426949168
 10
376.49159870721087
 20
154.15425268286
 10
375.35288753283766
 20
154.13631810274802
 10
374.2148049043114
 20
154.0944784485614
 10
373.0778533668826
 20
154.02875219551365
 10
371.94253496634366
 20
153.93916836646778
 10
370.8093510273397
 20
153.82576651912086
 10
369.6788019319978
 20
153.68859672853628
 10
368.55138689897217
 20
153.52771956503204
 10
367.4276037630034
 20
153.34320606743472
 10
366.30794875508855
 20
153.13513771171054
 10
365.1929162833595
 20
152.90360637498807
 10
364.08299871476635
 20
152.6487142949877
 10
362.97868615766197
 20
152.37057402487648
 10
361.88046624538384
 20
152.06930838356766
 10
360.7888239209291
 20
151.74505040148756
 10
359.70424122281725
 20
151.39794326183278
 10
358.6271970722355
 20
151.02814023734473
 10
357.5581670615607
 20
150.63580462262863
 10
356.49762324435125
 20
150.2211096620473
 10
355.44603392690124
 20
149.7842384732211
 10
354.40386346144976
 20
149.32538396616866
 10
353.3715720411361
 20
148.84474875812302
 10
352.3496154967913
 20
148.34254508406156
 10
351.338445095656
 20
147.8189947029892
 10
350.33850734211387
 20
147.2743288000156
 10
349.35024378052736
 20
146.70878788427063
 10
348.3740908002646
 20
146.122621682702
 10
347.4104794430018
 20
145.51608902980308
 10
346.4598352123876
 20
144.88945775331882
 10
345.5225778861524
 20
144.2430045559805
 10
344.59912133074675
 20
143.57701489332166
 10
343.68987331858904
 20
142.89178284762897
 10
342.79523534800506
 20
142.18761099808376
 10
341.91560246593764
 20
141.46481028715147
 10
341.05136309350473
 20
140.72369988327847
 10
340.2028988544839
 20
139.96460703995598
 10
339.3705844067979
 20
139.1878669512142
 10
338.5547872770761
 20
138.39382260361026
 10
337.7558676983654
 20
137.5828246247748
 10
336.9741784510614
 20
136.75523112858474
 10
336.2100647071301
 20
135.91140755703026
 10
335.46386387769013
 20
135.05172651884598
 10
334.73590546402147
 20
134.1765676249774
 10
334.0265109120666
 20
133.28631732095525
 10
333.33599347048954
 20
132.38136871625224
 10
332.66465805235356
 20
131.46212141069685
 10
332.0128011004804
 20
130.52898131802138
 10
331.38071045654954
 20
129.58236048662178
 10
330.76866523399525
 20
128.62267691760871
 10
330.1769356947581
 20
127.6503543802301
 10
329.6057831299446
 20
126.66582222474642
 10
329.05545974444885
 20
125.66951519284181
 10
328.5262085455857
 20
124.6618732256544
 10
328.01826323578547
 20
123.6433412695106
 10
327.53184810939774
 20
122.6143690794494
 10
327.0671779536492
 20
121.57541102062319
 10
326.6244579537996
 20
120.5269258676629
 10
326.2038836025378
 20
119.469376602096
 10
325.8056406136577
 20
118.40323020790693
 10
325.4299048400522
 20
117.32895746533012
 10
325.0768421960614
 20
116.24703274296668
 10
324.74660858421
 20
115.15793378831658
 10
324.43934982636426
 20
114.06214151681883
 10
324.1552015993422
 20
112.96013979949268
 10
323.8942893750016
 20
111.8524152492739
 10
323.65672836483594
 20
110.73945700614019
 10
323.4426234690995
 20
109.62175652112057
 10
323.252069230487
 20
108.49980733928476
 10
323.08514979238595
 20
107.37410488180724
 10
322.9419388617212
 20
106.24514622720343
 10
322.82249967640814
 20
105.11342989183376
 10
322.72688497742877
 20
103.97945560977276
 10
322.65513698554236
 20
102.84372411214076
 10
322.60728738264237
 20
101.70673690599492
 10
322.5833572977665
 20
100.56899605287799
 10
322.5833572977665
 20
99.43100394712202
 10
322.60728738264237
 20
98.2932630940051
 10
322.65513698554236
 20
97.15627588785925
 10
322.72688497742877
 20
96.02054439022723
 10
322.82249967640814
 20
94.88657010816624
 10
322.9419388617212
 20
93.75485377279657
 10
323.08514979238595
 20
92.62589511819277
 10
323.252069230487
 20
91.50019266071526
 10
323.4426234690995
 20
90.37824347887943
 10
323.65672836483594
 20
89.26054299385983
 10
323.8942893750017
 20
88.14758475072608
 10
324.1552015993422
 20
87.0398602005073
 10
324.43934982636426
 20
85.93785848318119
 10
324.7466085842099
 20
84.84206621168342
 10
325.0768421960614
 20
83.75296725703333
 10
325.42990484005213
 20
82.6710425346699
 10
325.8056406136577
 20
81.59676979209308
 10
326.2038836025378
 20
80.53062339790401
 10
326.6244579537996
 20
79.47307413233709
 10
327.0671779536492
 20
78.4245889793768
 10
327.53184810939774
 20
77.38563092055061
 10
328.01826323578547
 20
76.35665873048941
 10
328.5262085455857
 20
75.33812677434561
 10
329.05545974444885
 20
74.3304848071582
 10
329.6057831299446
 20
73.33417777525358
 10
330.1769356947581
 20
72.34964561976989
 10
330.76866523399525
 20
71.37732308239126
 10
331.38071045654954
 20
70.41763951337822
 10
332.0128011004804
 20
69.47101868197862
 10
332.6646580523535
 20
68.53787858930315
 10
333.33599347048954
 20
67.61863128374779
 10
334.0265109120666
 20
66.71368267904477
 10
334.73590546402147
 20
65.8234323750226
 10
335.46386387769013
 20
64.94827348115399
 10
336.2100647071301
 20
64.08859244296974
 10
336.97417845106133
 20
63.24476887141528
 10
337.7558676983654
 20
62.41717537522521
 10
338.55478727707606
 20
61.60617739638975
 10
339.37058440679783
 20
60.81213304878581
 10
340.2028988544839
 20
60.03539296004405
 10
341.05136309350473
 20
59.27630011672153
 10
341.91560246593764
 20
58.53518971284853
 10
342.79523534800506
 20
57.812389001916266
 10
343.689873318589
 20
57.10821715237104
 10
344.5991213307467
 20
56.422985106678354
 10
345.5225778861524
 20
55.75699544401952
 10
346.4598352123876
 20
55.1105422466812
 10
347.4104794430018
 20
54.483910970196916
 10
348.3740908002646
 20
53.877378317298
 10
349.35024378052736
 20
53.291212115729365
 10
350.33850734211387
 20
52.72567119998438
 10
351.338445095656
 20
52.181005297010806
 10
352.3496154967913
 20
51.65745491593843
 10
353.3715720411361
 20
51.15525124187698
 10
354.4038634614497
 20
50.67461603383134
 10
355.4460339269012
 20
50.215761526778905
 10
356.49762324435125
 20
49.77889033795273
 10
357.5581670615607
 20
49.364195377371374
 10
358.62719707223545
 20
48.971859762655285
 10
359.7042412228172
 20
48.602056738167235
 10
360.7888239209291
 20
48.25494959851245
 10
361.88046624538384
 20
47.930691616432334
 10
362.97868615766197
 20
47.62942597512354
 10
364.08299871476635
 20
47.3512857050123
 10
365.1929162833595
 20
47.096393625011935
 10
366.30794875508855
 20
46.86486228828945
 10
367.42760376300345
 20
46.65679393256528
 10
368.55138689897217
 20
46.47228043496794
 10
369.6788019319978
 20
46.31140327146372
 10
370.8093510273397
 20
46.17423348087913
 10
371.9425349663436
 20
46.06083163353222
 10
373.0778533668826
 20
45.97124780448636
 10
374.2148049043114
 20
45.90552155143858
 10
375.3528875328376
 20
45.86368189725198
 10
376.4915987072108
 20
45.84574731713999
 10
377.63043560463245
 20
45.851725730508306
 10
378.76889534678816
 20
45.8816144974579
 10
379.90647522190477
 20
45.93540041995068
 10
381.04267290673357
 20
46.01305974763741
 10
382.17698668836226
 20
46.11455818834519
 10
383.30891568575714
 20
46.23985092321989
 10
384.43796007093795
 20
46.38888262651693
 10
385.5636212896882
 20
46.56158749003155
 10
386.6854022817023
 20
46.75788925215786
 10
387.8028077000735
 20
46.977701231563806
 10
388.91534413002546
 20
47.22092636546727
 10
390.0225203067899
 20
47.487457252496185
 10
391.12384733253526
 20
47.77717620011397
 10
392.2188388922508
 20
48.0899552765893
 10
393.3070114684889
 20
48.425656367487086
 10
394.38788455487315
 20
48.78413123665595
 10
395.4609808682766
 20
49.16522159168516
 10
396.525826559576
 20
49.568759153802056
 10
397.5819514228907
 20
49.99456573217926
 10
398.62888910321226
 20
50.4424533026187
 10
399.66617730233355
 20
50.91222409057782
 10
400.69335798298664
 20
51.403670658501255
 10
401.7099775710993
 20
51.91657599741938
 10
402.7155871560804
 20
52.450713622773414
 10
403.70974268904627
 20
53.00584767442456
 10
404.6920051789003
 20
53.58173302080332
 10
405.6619408861786
 20
54.17811536715254
 10
406.6191215145778
 20
54.79473136781692
 10
407.56312440007804
 20
55.43130874252903
 10
408.49353269757984
 20
56.08756639664057
 10
409.40993556497114
 20
56.76321454524589
 10
410.3119283445435
 20
57.457954841142836
 10
411.19911274167754
 20
58.17148050657448
 10
412.0710970007188
 20
58.90347646869353
 10
412.92749607796577
 20
59.653619498689665
 10
413.76793181169467
 20
60.421578354518196
 10
414.5920330891446
 20
61.20701392716733
 10
415.3994360103909
 20
62.009579390399104
 10
416.1897840490329
 20
62.82892035389807
 10
416.9627282096258
 20
63.66467501976013
 10
417.71792718178773
 20
64.51647434225234
 10
418.4550474909122
 20
65.38394219077301
 10
419.17376364542145
 20
66.26669551594043
 10
419.8737582804944
 20
67.16434451873671
 10
420.5547222982059
 20
68.0764928226321
 10
421.21635500401555
 20
69.0027376486136
 10
421.8583642395463
 20
69.94266999304094
 10
422.48046651159285
 20
70.89587480825097
 10
423.0823871173049
 20
71.8619311858311
 10
423.6638602654877
 20
72.8404125424806
 10
424.22462919396816
 20
73.83088680837776
 10
424.7644462829737
 20
74.83291661796973
 10
425.2830731644744
 20
75.84605950310089
 10
425.7802808274392
 20
76.8698680883943
 10
426.25584971896114
 20
77.90389028880004
 10
426.70956984120556
 20
78.94766950922342
 10
427.1412408441392
 20
80.00074484614423
 10
427.5506721139992
 20
81.06265129113896
 10
427.93768285746285
 20
82.13291993621542
 10
428.30210218148045
 20
83.2110781808692
 10
428.6437691687375
 20
84.29664994077086
 10
428.9625329487106
 20
85.38915585799134
 10
429.2582527642882
 20
86.48811351267288
 10
429.53079803392455
 20
87.5930376360521
 10
429.780048409301
 20
88.70344032474098
 10
430.0058938284686
 20
89.81883125617134
 10
430.2082345644479
 20
90.93871790510735
 10
430.3869812692661
 20
92.06260576113098
 10
430.5420550134102
 20
93.18999854700373
 10
430.6733873206804
 20
94.32039843780869
 10
430.7809201984269
 20
95.45330628077626
 10
430.86460616315804
 20
96.58822181569559
 10
430.9244082615077
 20
97.72464389581563
 10
430.96030008655276
 20
98.8620707091374
 10
430.9722657894736
 20
99.99999999999999
  0
LINE
  5
99
330
17
100
AcDbEntity
  8
Layer
100
AcDbLine
 10
717.7115201200229
 20
99.99999999999996
 30
0.0
 11
721.7115201200229
 21
99.99999999999996
 31
0.0
  0
LINE
  5
9A
330
17
100
AcDbEntity
  8
Layer
100
AcDbLine
 10
16.157444273981014
 20
100.00000000000004
 30
0.0
 11
12.157444273981014
 21
100.00000000000004
 31
0.0
  0
LINE
  5
9B
330
17
100
AcDbEntity
  8
Layer
100
AcDbLine
 10
160.76825944318938
 20
100.00000000000003
 30
0.0
 11
149.76825944318938
 21
100.00000000000003
 31
0.0
  0
LWPOLYLINE
  5
9C
330
17
100
AcDbEntity
  8
Layer
100
AcDbPolyline
 90
5
 70
0
 10
150.26825944318938
 20
95.00000000000003
 10
150.26825944318938
 20
105.00000000000003
 10
160.26825944318938
 20
105.00000000000003
 10
160.26825944318938
 20
95.00000000000003
 10
150.26825944318938
 20
95.00000000000003
  0
LINE
  5
9D
330
17
100
AcDbEntity
  8
Layer
100
AcDbLine
 10
372.434482197002
 20
100.0
 30
0.0
 11
361.434482197002
 21
100.0
 31
0.0
  0
LWPOLYLINE
  5
9E
330
17
100
AcDbEntity
  8
Layer
100
AcDbPolyline
 90
5
 70
0
 10
361.934482197002
 20
95.0
 10
361.934482197002
 20
105.0
 10
371.934482197002
 20
105.0
 10
371.934482197002
 20
95.0
 10
361.934482197002
 20
95.0
  0
LINE
  5
9F
330
17
100
AcDbEntity
  8
Layer
100
AcDbLine
 10
584.1007049508146
 20
99.99999999999997
 30
0.0
 11
573.1007049508146
 21
99.99999999999997
 31
0.0
  0
LWPOLYLINE
  5
A0
330
17
100
AcDbEntity
  8
Layer
100
AcDbPolyline
 90
5
 70
0
 10
573.6007049508146
 20
94.99999999999997
 10
573.6007049508146
 20
104.99999999999997
 10
583.6007049508146
 20
104.99999999999997
 10
583.6007049508146
 20
94.99999999999997
 10
573.6007049508146
 20
94.99999999999997
  0
LINE
  5
A1
330
17
100
AcDbEntity
  8
Layer
100
AcDbLine
 10
0.5003913551291816
 20
75.32015600891266
 30
0.0
 11
-3.4878196537785016
 21
75.62703212141994
 31
0.0
  0
LINE
  5
A2
330
17
100
AcDbEntity
  8
Layer
100
AcDbLine
 10
636.2654460252762
 20
26.400701143211904
 30
0.0
 11
640.2536570341839
 21
26.093825030704636
 31
0.0
  0
LINE
  5
A3
330
17
100
AcDbEntity
  8
Layer
100
AcDbLine
 10
988.3190269214005
 20
-0.6883455642886815
 30
0.0
 11
992.3072379303081
 21
-0.9952216767959499
 31
0.0
  0
LINE
  5
A4
330
17
100
AcDbEntity
  8
Layer
100
AcDbLine
 10
376.77631578947364
 20
154.155
 30
0.0
 11
376.77631578947364
 21
154.655
 31
0.0
  0
LINE
  5
A5
330
17
100
AcDbEntity
  8
Layer
100
AcDbLine
 10
376.77631578947364
 20
45.845000000000006
 30
0.0
 11
376.77631578947364
 21
45.345000000000006
 31
0.0
  0
LINE
  5
A6
330
17
100
AcDbEntity
  8
Layer
100
AcDbLine
 10
430.9722657894736
 20
100.0
 30
0.0
 11
431.4722657894736
 21
100.0
 31
0.0
  0
LINE
  5
A7
330
17
100
AcDbEntity
  8
Layer
100
AcDbLine
 10
322.58036578947366
 20
100.0
 30
0.0
 11
322.08036578947366
 21
100.0
 31
0.0
  0
LINE
  5
A8
330
17
100
AcDbEntity
  8
Layer
100
AcDbLine
 10
116.77631578947364
 20
146.59336332620603
 30
0.0
 11
116.77631578947364
 21
150.59336332620603
 31
0.0
  0
LINE
  5
A9
330
17
100
AcDbEntity
  8
Layer
100
AcDbLine
 10
116.77631578947364
 20
41.55327130938817
 30
0.0
 11
116.77631578947364
 21
37.55327130938817
 31
0.0
  0
LINE
  5
AA
330
17
100
AcDbEntity
  8
Layer
100
AcDbLine
 10
116.77631578947364
 20
66.86128971275174
 30
0.0
 11
116.77631578947364
 21
55.86128971275174
 31
0.0
  0
LWPOLYLINE
  5
AB
330
17
100
AcDbEntity
  8
Layer
100
AcDbPolyline
 90
5
 70
0
 10
121.77631578947364
 20
56.36128971275174
 10
111.77631578947364
 20
56.36128971275174
 10
111.77631578947364
 20
66.36128971275174
 10
121.77631578947364
 20
66.36128971275174
 10
121.77631578947364
 20
56.36128971275174
  0
LINE
  5
AC
330
17
100
AcDbEntity
  8
Layer
100
AcDbLine
 10
116.77631578947364
 20
99.5733173177971
 30
0.0
 11
116.77631578947364
 21
88.5733173177971
 31
0.0
  0
LWPOLYLINE
  5
AD
330
17
100
AcDbEntity
  8
Layer
100
AcDbPolyline
 90
5
 70
0
 10
121.77631578947364
 20
89.0733173177971
 10
111.77631578947364
 20
89.0733173177971
 10
111.77631578947364
 20
99.0733173177971
 10
121.77631578947364
 20
99.0733173177971
 10
121.77631578947364
 20
89.0733173177971
  0
LINE
  5
AE
330
17
100
AcDbEntity
  8
Layer
100
AcDbLine
 10
116.77631578947364
 20
132.28534492284246
 30
0.0
 11
116.77631578947364
 21
121.28534492284246
 31
0.0
  0
LWPOLYLINE
  5
AF
330
17
100
AcDbEntity
  8
Layer
100
AcDbPolyline
 90
5
 70
0
 10
121.77631578947364
 20
121.78534492284246
 10
111.77631578947364
 20
121.78534492284246
 10
111.77631578947364
 20
131.78534492284246
 10
121.77631578947364
 20
131.78534492284246
 10
121.77631578947364
 20
121.78534492284246
  0
LINE
  5
B0
330
17
100
AcDbEntity
  8
Layer
100
AcDbLine
 10
606.7763157894736
 20
131.11565223182362
 30
0.0
 11
606.7763157894736
 21
135.11565223182362
 31
0.0
  0
LINE
  5
B1
330
17
100
AcDbEntity
  8
Layer
100
AcDbLine
 10
606.7763157894736
 20
28.936984387855674
 30
0.0
 11
606.7763157894736
 21
24.936984387855674
 31
0.0
  0
LINE
  5
B2
330
17
100
AcDbEntity
  8
Layer
100
AcDbLine
 10
606.7763157894736
 20
53.672717956649265
 30
0.0
 11
606.7763157894736
 21
42.672717956649265
 31
0.0
  0
LWPOLYLINE
  5
B3
330
17
100
AcDbEntity
  8
Layer
100
AcDbPolyline
 90
5
 70
0
 10
611.7763157894736
 20
43.172717956649265
 10
601.7763157894736
 20
43.172717956649265
 10
601.7763157894736
 20
53.172717956649265
 10
611.7763157894736
 20
53.172717956649265
 10
611.7763157894736
 20
43.172717956649265
  0
LINE
  5
B4
330
17
100
AcDbEntity
  8
Layer
100
AcDbLine
 10
606.7763157894736
 20
85.52631830983964
 30
0.0
 11
606.7763157894736
 21
74.52631830983964
 31
0.0
  0
LWPOLYLINE
  5
B5
330
17
100
AcDbEntity
  8
Layer
100
AcDbPolyline
 90
5
 70
0
 10
611.7763157894736
 20
75.02631830983964
 10
601.7763157894736
 20
75.02631830983964
 10
601.7763157894736
 20
85.02631830983964
 10
611.7763157894736
 20
85.02631830983964
 10
611.7763157894736
 20
75.02631830983964
  0
LINE
  5
B6
330
17
100
AcDbEntity
  8
Layer
100
AcDbLine
 10
606.7763157894736
 20
117.37991866303003
 30
0.0
 11
606.7763157894736
 21
106.37991866303003
 31
0.0
  0
LWPOLYLINE
  5
B7
330
17
100
AcDbEntity
  8
Layer
100
AcDbPolyline
 90
5
 70
0
 10
611.7763157894736
 20
106.87991866303003
 10
601.7763157894736
 20
106.87991866303003
 10
601.7763157894736
 20
116.87991866303003
 10
611.7763157894736
 20
116.87991866303003
 10
611.7763157894736
 20
106.87991866303003
  0
ENDSEC
  0
SECTION
  2
OBJECTS
  0
DICTIONARY
  5
A
330
0
100
AcDbDictionary
280
0
281
1
  3
ACAD_COLOR
350
B
  3
ACAD_GROUP
350
C
  3
ACAD_LAYOUT
350
D
  3
ACAD_MATERIAL
350
E
  3
ACAD_MLEADERSTYLE
350
F
  3
ACAD_MLINESTYLE
350
10
  3
ACAD_PLOTSETTINGS
350
11
  3
ACAD_PLOTSTYLENAME
350
12
  3
ACAD_SCALELIST
350
14
  3
ACAD_TABLESTYLE
350
15
  3
ACAD_VISUALSTYLE
350
16
  3
EZDXF_META
350
2D
  0
DICTIONARY
  5
B
330
A
100
AcDbDictionary
280
0
281
1
  0
DICTIONARY
  5
C
330
A
100
AcDbDictionary
280
0
281
1
  0
DICTIONARY
  5
D
330
A
100
AcDbDictionary
280
0
281
1
  3
Model
350
1A
  3
Layout1
350
1E
  0
DICTIONARY
  5
E
330
A
100
AcDbDictionary
280
0
281
1
  3
ByBlock
350
1F
  3
ByLayer
350
20
  3
Global
350
21
  0
DICTIONARY
  5
F
330
A
100
AcDbDictionary
280
0
281
1
  3
Standard
350
2C
  0
DICTIONARY
  5
10
330
A
100
AcDbDictionary
280
0
281
1
  3
Standard
350
22
  0
DICTIONARY
  5
11
330
A
100
AcDbDictionary
280
0
281
1
  0
ACDBDICTIONARYWDFLT
  5
12
330
A
100
AcDbDictionary
280
0
281
1
  3
Normal
350
13
100
AcDbDictionaryWithDefault
340
13
  0
ACDBPLACEHOLDER
  5
13
330
12
  0
DICTIONARY
  5
14
330
A
100
AcDbDictionary
280
0
281
1
  0
DICTIONARY
  5
15
330
A
100
AcDbDictionary
280
0
281
1
  0
DICTIONARY
  5
16
330
A
100
AcDbDictionary
280
0
281
1
  3
2dWireframe
350
5A
  3
Basic
350
5B
  3
Brighten
350
5C
  3
ColorChange
350
5D
  3
Conceptual
350
5E
  3
Dim
350
5F
  3
EdgeColorOff
350
60
  3
Facepattern
350
61
  3
Flat
350
62
  3
FlatWithEdges
350
63
  3
Gouraud
350
64
  3
GouraudWithEdges
350
65
  3
Hidden
350
66
  3
JitterOff
350
67
  3
Linepattern
350
68
  3
Modeling
350
69
  3
OverhangOff
350
6A
  3
Realistic
350
6B
  3
Shaded
350
6C
  3
Shaded with edges
350
6D
  3
Shades of Gray
350
6E
  3
Sketchy
350
6F
  3
Thicken
350
70
  3
Wireframe
350
71
  3
X-Ray
350
72
  0
LAYOUT
  5
1A
330
D
100
AcDbPlotSettings
  1

  2
Adobe PDF
  4
A3
  6

 40
7.5
 41
20.0
 42
7.5
 43
20.0
 44
420.0
 45
297.0
 46
0.0
 47
0.0
 48
0.0
 49
0.0
140
0.0
141
0.0
142
1.0
143
1.0
 70
1024
 72
1
 73
0
 74
5
  7

 75
16
 76
0
 77
2
 78
300
147
1.0
148
0.0
149
0.0
100
AcDbLayout
  1
Model
 70
1
 71
0
 10
0.0
 20
0.0
 11
420.0
 21
297.0
 12
0.0
 22
0.0
 32
0.0
 14
1e+20
 24
1e+20
 34
1e+20
 15
-1e+20
 25
-1e+20
 35
-1e+20
146
0.0
 13
0.0
 23
0.0
 33
0.0
 16
1.0
 26
0.0
 36
0.0
 17
0.0
 27
1.0
 37
0.0
 76
1
330
17
  0
LAYOUT
  5
1E
330
D
100
AcDbPlotSettings
  1

  2
Adobe PDF
  4
A3
  6

 40
7.5
 41
20.0
 42
7.5
 43
20.0
 44
420.0
 45
297.0
 46
0.0
 47
0.0
 48
0.0
 49
0.0
140
0.0
141
0.0
142
1.0
143
1.0
 70
0
 72
1
 73
0
 74
5
  7

 75
16
 76
0
 77
2
 78
300
147
1.0
148
0.0
149
0.0
100
AcDbLayout
  1
Layout1
 70
1
 71
1
 10
0.0
 20
0.0
 11
420.0
 21
297.0
 12
0.0
 22
0.0
 32
0.0
 14
1e+20
 24
1e+20
 34
1e+20
 15
-1e+20
 25
-1e+20
 35
-1e+20
146
0.0
 13
0.0
 23
0.0
 33
0.0
 16
1.0
 26
0.0
 36
0.0
 17
0.0
 27
1.0
 37
0.0
 76
1
330
1B
  0
MATERIAL
  5
1F
102
{ACAD_REACTORS
330
E
102
}
330
E
100
AcDbMaterial
  1
ByBlock
  2

 70
0
 40
1.0
 71
1
 41
1.0
 91
-1023410177
 42
1.0
 72
1
  3

 73
1
 74
1
 75
1
 44
0.5
 73
0
 45
1.0
 46
1.0
 77
1
  4

 78
1
 79
1
170
1
 48
1.0
171
1
  6

172
1
173
1
174
1
140
1.0
141
1.0
175
1
  7

176
1
177
1
178
1
143
1.0
179
1
  8

270
1
271
1
272
1
145
1.0
146
1.0
273
1
  9

274
1
275
1
276
1
 42
1.0
 72
1
  3

 73
1
 74
1
 75
1
 94
63
  0
MATERIAL
  5
20
102
{ACAD_REACTORS
330
E
102
}
330
E
100
AcDbMaterial
  1
ByLayer
  2

 70
0
 40
1.0
 71
1
 41
1.0
 91
-1023410177
 42
1.0
 72
1
  3

 73
1
 74
1
 75
1
 44
0.5
 73
0
 45
1.0
 46
1.0
 77
1
  4

 78
1
 79
1
170
1
 48
1.0
171
1
  6

172
1
173
1
174
1
140
1.0
141
1.0
175
1
  7

176
1
177
1
178
1
143
1.0
179
1
  8

270
1
271
1
272
1
145
1.0
146
1.0
273
1
  9

274
1
275
1
276
1
 42
1.0
 72
1
  3

 73
1
 74
1
 75
1
 94
63
  0
MATERIAL
  5
21
102
{ACAD_REACTORS
330
E
102
}
330
E
100
AcDbMaterial
  1
Global
  2

 70
0
 40
1.0
 71
1
 41
1.0
 91
-1023410177
 42
1.0
 72
1
  3

 73
1
 74
1
 75
1
 44
0.5
 73
0
 45
1.0
 46
1.0
 77
1
  4

 78
1
 79
1
170
1
 48
1.0
171
1
  6

172
1
173
1
174
1
140
1.0
141
1.0
175
1
  7

176
1
177
1
178
1
143
1.0
179
1
  8

270
1
271
1
272
1
145
1.0
146
1.0
273
1
  9

274
1
275
1
276
1
 42
1.0
 72
1
  3

 73
1
 74
1
 75
1
 94
63
  0
MLINESTYLE
  5
22
102
{ACAD_REACTORS
330
10
102
}
330
10
100
AcDbMlineStyle
  2
Standard
 70
0
  3

 62
256
 51
90.0
 52
90.0
 71
2
 49
0.5
 62
256
  6
BYLAYER
 49
-0.5
 62
256
  6
BYLAYER
  0
MLEADERSTYLE
  5
2C
102
{ACAD_REACTORS
330
F
102
}
330
F
100
AcDbMLeaderStyle
179
2
170
2
171
1
172
0
 90
2
 40
0.0
 41
0.0
173
1
 91
-1056964608
 92
-2
290
1
 42
2.0
291
1
 43
8.0
  3
Standard
 44
4.0
300

342
29
174
1
175
1
176
0
178
1
 93
-1056964608
 45
4.0
292
0
297
0
 46
4.0
 94
-1056964608
 47
1.0
 49
1.0
140
1.0
294
1
141
0.0
177
0
142
1.0
295
0
296
0
143
3.75
271
0
272
9
273
9
  0
DICTIONARY
  5
2D
330
A
100
AcDbDictionary
281
1
  3
CREATED_BY_EZDXF
350
2E
  3
WRITTEN_BY_EZDXF
350
BA
  0
DICTIONARYVAR
  5
2E
330
2D
100
DictionaryVariables
280
0
  1
1.1.0 @ 2024-03-26T01:33:48.275276+00:00
  0
VISUALSTYLE
  5
5A
102
{ACAD_REACTORS
330
16
102
}
330
16
100
AcDbVisualStyle
  2
2dWireframe
 70
4
 90
0
 40
0.6
 62
7
290
0
291
0
  0
VISUALSTYLE
  5
5B
102
{ACAD_REACTORS
330
16
102
}
330
16
100
AcDbVisualStyle
  2
Basic
 70
7
 90
1
 40
0.6
 62
7
290
0
291
1
  0
VISUALSTYLE
  5
5C
102
{ACAD_REACTORS
330
16
102
}
330
16
100
AcDbVisualStyle
  2
Brighten
 70
12
 90
2
 40
0.6
 62
7
290
0
291
1
  0
VISUALSTYLE
  5
5D
102
{ACAD_REACTORS
330
16
102
}
330
16
100
AcDbVisualStyle
  2
ColorChange
 70
16
 90
2
 40
0.6
 62
8
290
0
291
1
  0
VISUALSTYLE
  5
5E
102
{ACAD_REACTORS
330
16
102
}
330
16
100
AcDbVisualStyle
  2
Conceptual
 70
9
 90
3
 40
0.6
 62
7
290
0
291
0
  0
VISUALSTYLE
  5
5F
102
{ACAD_REACTORS
330
16
102
}
330
16
100
AcDbVisualStyle
  2
Dim
 70
11
 90
2
 40
0.6
 62
7
290
0
291
1
  0
VISUALSTYLE
  5
60
102
{ACAD_REACTORS
330
16
102
}
330
16
100
AcDbVisualStyle
  2
EdgeColorOff
 70
22
 90
2
 40
0.6
 62
7
290
0
291
1
  0
VISUALSTYLE
  5
61
102
{ACAD_REACTORS
330
16
102
}
330
16
100
AcDbVisualStyle
  2
Facepattern
 70
15
 90
2
 40
0.6
 62
7
290
0
291
1
  0
VISUALSTYLE
  5
62
102
{ACAD_REACTORS
330
16
102
}
330
16
100
AcDbVisualStyle
  2
Flat
 70
0
 90
2
 40
0.6
 62
7
290
0
291
1
  0
VISUALSTYLE
  5
63
102
{ACAD_REACTORS
330
16
102
}
330
16
100
AcDbVisualStyle
  2
FlatWithEdges
 70
1
 90
2
 40
0.6
 62
7
290
0
291
1
  0
VISUALSTYLE
  5
64
102
{ACAD_REACTORS
330
16
102
}
330
16
100
AcDbVisualStyle
  2
Gouraud
 70
2
 90
2
 40
0.6
 62
7
290
0
291
1
  0
VISUALSTYLE
  5
65
102
{ACAD_REACTORS
330
16
102
}
330
16
100
AcDbVisualStyle
  2
GouraudWithEdges
 70
3
 90
2
 40
0.6
 62
7
290
0
291
1
  0
VISUALSTYLE
  5
66
102
{ACAD_REACTORS
330
16
102
}
330
16
100
AcDbVisualStyle
  2
Hidden
 70
6
 90
1
 40
0.6
 62
7
290
0
291
0
  0
VISUALSTYLE
  5
67
102
{ACAD_REACTORS
330
16
102
}
330
16
100
AcDbVisualStyle
  2
JitterOff
 70
20
 90
2
 40
0.6
 62
7
290
0
291
1
  0
VISUALSTYLE
  5
68
102
{ACAD_REACTORS
330
16
102
}
330
16
100
AcDbVisualStyle
  2
Linepattern
 70
14
 90
2
 40
0.6
 62
7
290
0
291
1
  0
VISUALSTYLE
  5
69
102
{ACAD_REACTORS
330
16
102
}
330
16
100
AcDbVisualStyle
  2
Modeling
 70
10
 90
2
 40
0.6
 62
7
290
0
291
0
  0
VISUALSTYLE
  5
6A
102
{ACAD_REACTORS
330
16
102
}
330
16
100
AcDbVisualStyle
  2
OverhangOff
 70
21
 90
2
 40
0.6
 62
7
290
0
291
1
  0
VISUALSTYLE
  5
6B
102
{ACAD_REACTORS
330
16
102
}
330
16
100
AcDbVisualStyle
  2
Realistic
 70
8
 90
2
 40
0.6
 62
7
290
0
291
0
  0
VISUALSTYLE
  5
6C
102
{ACAD_REACTORS
330
16
102
}
330
16
100
AcDbVisualStyle
  2
Shaded
 70
27
 90
2
 40
0.6
 62
7
290
0
291
0
  0
VISUALSTYLE
  5
6D
102
{ACAD_REACTORS
330
16
102
}
330
16
100
AcDbVisualStyle
  2
Shaded with edges
 70
26
 90
2
 40
0.6
 62
7
290
0
291
0
  0
VISUALSTYLE
  5
6E
102
{ACAD_REACTORS
330
16
102
}
330
16
100
AcDbVisualStyle
  2
Shades of Gray
 70
23
 90
2
 40
0.6
 62
7
290
0
291
0
  0
VISUALSTYLE
  5
6F
102
{ACAD_REACTORS
330
16
102
}
330
16
100
AcDbVisualStyle
  2
Sketchy
 70
24
 90
1
 40
0.6
 62
7
290
0
291
0
  0
VISUALSTYLE
  5
70
102
{ACAD_REACTORS
330
16
102
}
330
16
100
AcDbVisualStyle
  2
Thicken
 70
13
 90
2
 40
0.6
 62
7
290
0
291
1
  0
VISUALSTYLE
  5
71
102
{ACAD_REACTORS
330
16
102
}
330
16
100
AcDbVisualStyle
  2
Wireframe
 70
5
 90
0
 40
0.6
 62
7
290
0
291
0
  0
VISUALSTYLE
  5
72
102
{ACAD_REACTORS
330
16
102
}
330
16
100
AcDbVisualStyle
  2
X-Ray
 70
25
 90
2
 40
0.5
 62
7
290
0
291
0
  0
DICTIONARYVAR
  5
BA
330
2D
100
DictionaryVariables
280
0
  1
1.1.0 @ 2024-03-26T01:33:48.292282+00:00
  0
ENDSEC
  0
EOF
