  0
SECTION
  2
HEADER
  9
$ACADVER
  1
AC1021
  9
$ACADMAINTVER
 70
25
  9
$DWGCODEPAGE
  3
ANSI_1252
  9
$LASTSAVEDBY
  1
ezdxf
  9
$INSBASE
 10
0.0
 20
0.0
 30
0.0
  9
$EXTMIN
 10
1e+20
 20
1e+20
 30
1e+20
  9
$EXTMAX
 10
-1e+20
 20
-1e+20
 30
-1e+20
  9
$LIMMIN
 10
0.0
 20
0.0
  9
$LIMMAX
 10
420.0
 20
297.0
  9
$ORTHOMODE
 70
0
  9
$REGENMODE
 70
1
  9
$FILLMODE
 70
1
  9
$QTEXTMODE
 70
0
  9
$MIRRTEXT
 70
1
  9
$LTSCALE
 40
1.0
  9
$ATTMODE
 70
1
  9
$TEXTSIZE
 40
2.5
  9
$TRACEWID
 40
1.0
  9
$TEXTSTYLE
  7
OpenSans
  9
$CLAYER
  8
0
  9
$CELTYPE
  6
ByLayer
  9
$CECOLOR
 62
256
  9
$CELTSCALE
 40
1.0
  9
$DISPSILH
 70
0
  9
$DIMSCALE
 40
1.0
  9
$DIMASZ
 40
0.175
  9
$DIMEXO
 40
0.125
  9
$DIMDLI
 40
3.75
  9
$DIMRND
 40
0.0
  9
$DIMDLE
 40
0.0
  9
$DIMEXE
 40
0.375
  9
$DIMTP
 40
0.0
  9
$DIMTM
 40
0.0
  9
$DIMTXT
 40
0.25
  9
$DIMCEN
 40
2.5
  9
$DIMTSZ
 40
0.0
  9
$DIMTOL
 70
0
  9
$DIMLIM
 70
0
  9
$DIMTIH
 70
0
  9
$DIMTOH
 70
0
  9
$DIMSE1
 70
0
  9
$DIMSE2
 70
0
  9
$DIMTAD
 70
1
  9
$DIMZIN
 70
12
  9
$DIMBLK
  1
ARCHTICK
  9
$DIMASO
 70
1
  9
$DIMSHO
 70
1
  9
$DIMPOST
  1

  9
$DIMAPOST
  1

  9
$DIMALT
 70
0
  9
$DIMALTD
 70
3
  9
$DIMALTF
 40
0.03937007874
  9
$DIMLFAC
 40
100.0
  9
$DIMTOFL
 70
1
  9
$DIMTVP
 40
0.0
  9
$DIMTIX
 70
0
  9
$DIMSOXD
 70
0
  9
$DIMSAH
 70
0
  9
$DIMBLK1
  1

  9
$DIMBLK2
  1

  9
$DIMSTYLE
  2
EZDXF
  9
$DIMCLRD
 70
0
  9
$DIMCLRE
 70
0
  9
$DIMCLRT
 70
0
  9
$DIMTFAC
 40
0.5
  9
$DIMGAP
 40
0.1
  9
$DIMJUST
 70
0
  9
$DIMSD1
 70
0
  9
$DIMSD2
 70
0
  9
$DIMTOLJ
 70
0
  9
$DIMTZIN
 70
8
  9
$DIMALTZ
 70
0
  9
$DIMALTTZ
 70
0
  9
$DIMUPT
 70
1
  9
$DIMDEC
 70
2
  9
$DIMTDEC
 70
2
  9
$DIMALTU
 70
2
  9
$DIMALTTD
 70
3
  9
$DIMTXSTY
  7
OpenSansCondensed-Light
  9
$DIMAUNIT
 70
0
  9
$DIMADEC
 70
2
  9
$DIMALTRND
 40
0.0
  9
$DIMAZIN
 70
3
  9
$DIMDSEP
 70
46
  9
$DIMATFIT
 70
3
  9
$DIMFRAC
 70
0
  9
$DIMLDRBLK
  1

  9
$DIMLUNIT
 70
2
  9
$DIMLWD
 70
-2
  9
$DIMLWE
 70
-2
  9
$DIMTMOVE
 70
2
  9
$DIMFXL
 40
1.0
  9
$DIMFXLON
 70
0
  9
$DIMJOGANG
 40
0.785398163397
  9
$DIMTFILL
 70
0
  9
$DIMTFILLCLR
 70
0
  9
$DIMARCSYM
 70
0
  9
$DIMLTYPE
  6

  9
$DIMLTEX1
  6

  9
$DIMLTEX2
  6

  9
$LUNITS
 70
2
  9
$LUPREC
 70
4
  9
$SKETCHINC
 40
1.0
  9
$FILLETRAD
 40
10.0
  9
$AUNITS
 70
0
  9
$AUPREC
 70
2
  9
$MENU
  1
.
  9
$ELEVATION
 40
0.0
  9
$PELEVATION
 40
0.0
  9
$THICKNESS
 40
0.0
  9
$LIMCHECK
 70
0
  9
$CHAMFERA
 40
0.0
  9
$CHAMFERB
 40
0.0
  9
$CHAMFERC
 40
0.0
  9
$CHAMFERD
 40
0.0
  9
$SKPOLY
 70
0
  9
$TDCREATE
 40
2460396.440150463
  9
$TDUCREATE
 40
2458532.153996898
  9
$TDUPDATE
 40
2460396.440150463
  9
$TDUUPDATE
 40
2458532.1544311
  9
$TDINDWG
 40
0.0
  9
$TDUSRTIMER
 40
0.0
  9
$USRTIMER
 70
1
  9
$ANGBASE
 50
0.0
  9
$ANGDIR
 70
0
  9
$PDMODE
 70
0
  9
$PDSIZE
 40
0.0
  9
$PLINEWID
 40
0.0
  9
$SPLFRAME
 70
0
  9
$SPLINETYPE
 70
6
  9
$SPLINESEGS
 70
8
  9
$HANDSEED
  5
B4
  9
$SURFTAB1
 70
6
  9
$SURFTAB2
 70
6
  9
$SURFTYPE
 70
6
  9
$SURFU
 70
6
  9
$SURFV
 70
6
  9
$UCSBASE
  2

  9
$UCSNAME
  2

  9
$UCSORG
 10
0.0
 20
0.0
 30
0.0
  9
$UCSXDIR
 10
1.0
 20
0.0
 30
0.0
  9
$UCSYDIR
 10
0.0
 20
1.0
 30
0.0
  9
$UCSORTHOREF
  2

  9
$UCSORTHOVIEW
 70
0
  9
$UCSORGTOP
 10
0.0
 20
0.0
 30
0.0
  9
$UCSORGBOTTOM
 10
0.0
 20
0.0
 30
0.0
  9
$UCSORGLEFT
 10
0.0
 20
0.0
 30
0.0
  9
$UCSORGRIGHT
 10
0.0
 20
0.0
 30
0.0
  9
$UCSORGFRONT
 10
0.0
 20
0.0
 30
0.0
  9
$UCSORGBACK
 10
0.0
 20
0.0
 30
0.0
  9
$PUCSBASE
  2

  9
$PUCSNAME
  2

  9
$PUCSORG
 10
0.0
 20
0.0
 30
0.0
  9
$PUCSXDIR
 10
1.0
 20
0.0
 30
0.0
  9
$PUCSYDIR
 10
0.0
 20
1.0
 30
0.0
  9
$PUCSORTHOREF
  2

  9
$PUCSORTHOVIEW
 70
0
  9
$PUCSORGTOP
 10
0.0
 20
0.0
 30
0.0
  9
$PUCSORGBOTTOM
 10
0.0
 20
0.0
 30
0.0
  9
$PUCSORGLEFT
 10
0.0
 20
0.0
 30
0.0
  9
$PUCSORGRIGHT
 10
0.0
 20
0.0
 30
0.0
  9
$PUCSORGFRONT
 10
0.0
 20
0.0
 30
0.0
  9
$PUCSORGBACK
 10
0.0
 20
0.0
 30
0.0
  9
$USERI1
 70
0
  9
$USERI2
 70
0
  9
$USERI3
 70
0
  9
$USERI4
 70
0
  9
$USERI5
 70
0
  9
$USERR1
 40
0.0
  9
$USERR2
 40
0.0
  9
$USERR3
 40
0.0
  9
$USERR4
 40
0.0
  9
$USERR5
 40
0.0
  9
$WORLDVIEW
 70
1
  9
$SHADEDGE
 70
3
  9
$SHADEDIF
 70
70
  9
$TILEMODE
 70
1
  9
$MAXACTVP
 70
64
  9
$PINSBASE
 10
0.0
 20
0.0
 30
0.0
  9
$PLIMCHECK
 70
0
  9
$PEXTMIN
 10
1e+20
 20
1e+20
 30
1e+20
  9
$PEXTMAX
 10
-1e+20
 20
-1e+20
 30
-1e+20
  9
$PLIMMIN
 10
0.0
 20
0.0
  9
$PLIMMAX
 10
420.0
 20
297.0
  9
$UNITMODE
 70
0
  9
$VISRETAIN
 70
1
  9
$PLINEGEN
 70
0
  9
$PSLTSCALE
 70
1
  9
$TREEDEPTH
 70
3020
  9
$CMLSTYLE
  2
Standard
  9
$CMLJUST
 70
0
  9
$CMLSCALE
 40
20.0
  9
$PROXYGRAPHICS
 70
1
  9
$MEASUREMENT
 70
1
  9
$CELWEIGHT
370
-1
  9
$ENDCAPS
280
0
  9
$JOINSTYLE
280
0
  9
$LWDISPLAY
290
0
  9
$INSUNITS
 70
6
  9
$HYPERLINKBASE
  1

  9
$STYLESHEET
  1

  9
$XEDIT
290
1
  9
$CEPSNTYPE
380
0
  9
$PSTYLEMODE
290
1
  9
$FINGERPRINTGUID
  2
{744839DB-6A32-45BE-85EC-B8E3F3401FE8}
  9
$VERSIONGUID
  2
{199C76B1-70F7-4926-8093-057FD4736FC5}
  9
$EXTNAMES
290
1
  9
$PSVPSCALE
 40
0.0
  9
$OLESTARTUP
290
0
  9
$SORTENTS
280
127
  9
$INDEXCTL
280
0
  9
$HIDETEXT
280
1
  9
$XCLIPFRAME
290
0
  9
$HALOGAP
280
0
  9
$OBSCOLOR
 70
257
  9
$OBSLTYPE
280
0
  9
$INTERSECTIONDISPLAY
280
0
  9
$INTERSECTIONCOLOR
 70
257
  9
$DIMASSOC
280
2
  9
$PROJECTNAME
  1

  9
$CAMERADISPLAY
290
0
  9
$LENSLENGTH
 40
50.0
  9
$CAMERAHEIGHT
 40
0.0
  9
$STEPSPERSEC
 40
24.0
  9
$STEPSIZE
 40
100.0
  9
$3DDWFPREC
 40
2.0
  9
$PSOLWIDTH
 40
0.005
  9
$PSOLHEIGHT
 40
0.08
  9
$LOFTANG1
 40
1.570796326795
  9
$LOFTANG2
 40
1.570796326795
  9
$LOFTMAG1
 40
0.0
  9
$LOFTMAG2
 40
0.0
  9
$LOFTPARAM
 70
7
  9
$LOFTNORMALS
280
1
  9
$LATITUDE
 40
37.795
  9
$LONGITUDE
 40
-122.394
  9
$NORTHDIRECTION
 40
0.0
  9
$TIMEZONE
 70
-8000
  9
$LIGHTGLYPHDISPLAY
280
1
  9
$TILEMODELIGHTSYNCH
280
1
  9
$CMATERIAL
347
20
  9
$SOLIDHIST
280
0
  9
$SHOWHIST
280
1
  9
$DWFFRAME
280
2
  9
$DGNFRAME
280
2
  9
$REALWORLDSCALE
290
1
  9
$INTERFERECOLOR
 62
256
  9
$CSHADOW
280
0
  9
$SHADOWPLANELOCATION
 40
0.0
  0
ENDSEC
  0
SECTION
  2
CLASSES
  0
CLASS
  1
ACDBDICTIONARYWDFLT
  2
AcDbDictionaryWithDefault
  3
ObjectDBX Classes
 90
0
 91
0
280
0
281
0
  0
CLASS
  1
SUN
  2
AcDbSun
  3
SCENEOE
 90
1153
 91
0
280
0
281
0
  0
CLASS
  1
VISUALSTYLE
  2
AcDbVisualStyle
  3
ObjectDBX Classes
 90
4095
 91
0
280
0
281
0
  0
CLASS
  1
MATERIAL
  2
AcDbMaterial
  3
ObjectDBX Classes
 90
1153
 91
0
280
0
281
0
  0
CLASS
  1
SCALE
  2
AcDbScale
  3
ObjectDBX Classes
 90
1153
 91
0
280
0
281
0
  0
CLASS
  1
TABLESTYLE
  2
AcDbTableStyle
  3
ObjectDBX Classes
 90
4095
 91
0
280
0
281
0
  0
CLASS
  1
MLEADERSTYLE
  2
AcDbMLeaderStyle
  3
ACDB_MLEADERSTYLE_CLASS
 90
4095
 91
0
280
0
281
0
  0
CLASS
  1
DICTIONARYVAR
  2
AcDbDictionaryVar
  3
ObjectDBX Classes
 90
0
 91
0
280
0
281
0
  0
CLASS
  1
CELLSTYLEMAP
  2
AcDbCellStyleMap
  3
ObjectDBX Classes
 90
1152
 91
0
280
0
281
0
  0
CLASS
  1
MENTALRAYRENDERSETTINGS
  2
AcDbMentalRayRenderSettings
  3
SCENEOE
 90
1024
 91
0
280
0
281
0
  0
CLASS
  1
ACDBDETAILVIEWSTYLE
  2
AcDbDetailViewStyle
  3
ObjectDBX Classes
 90
1025
 91
0
280
0
281
0
  0
CLASS
  1
ACDBSECTIONVIEWSTYLE
  2
AcDbSectionViewStyle
  3
ObjectDBX Classes
 90
1025
 91
0
280
0
281
0
  0
CLASS
  1
RASTERVARIABLES
  2
AcDbRasterVariables
  3
ISM
 90
0
 91
0
280
0
281
0
  0
CLASS
  1
LAYOUT
  2
AcDbLayout
  3
ObjectDBX Classes
 90
0
 91
0
280
0
281
0
  0
CLASS
  1
ACDBPLACEHOLDER
  2
AcDbPlaceHolder
  3
ObjectDBX Classes
 90
0
 91
0
280
0
281
0
  0
ENDSEC
  0
SECTION
  2
TABLES
  0
TABLE
  2
VPORT
  5
8
330
0
100
AcDbSymbolTable
 70
1
  0
VPORT
  5
23
330
8
100
AcDbSymbolTableRecord
100
AcDbViewportTableRecord
  2
*Active
 70
0
 10
0.0
 20
0.0
 11
1.0
 21
1.0
 12
0.0
 22
0.0
 13
0.0
 23
0.0
 14
0.5
 24
0.5
 15
0.5
 25
0.5
 16
0.0
 26
0.0
 36
1.0
 17
0.0
 27
0.0
 37
0.0
 40
1000.0
 41
1.34
 42
50.0
 43
0.0
 44
0.0
 50
0.0
 51
0.0
 71
0
 72
1000
 73
1
 74
3
 75
0
 76
0
 77
0
 78
0
281
0
 65
0
146
0.0
  0
ENDTAB
  0
TABLE
  2
LTYPE
  5
2
330
0
100
AcDbSymbolTable
 70
21
  0
LTYPE
  5
24
330
2
100
AcDbSymbolTableRecord
100
AcDbLinetypeTableRecord
  2
ByBlock
 70
0
  3

 72
65
 73
0
 40
0.0
  0
LTYPE
  5
25
330
2
100
AcDbSymbolTableRecord
100
AcDbLinetypeTableRecord
  2
ByLayer
 70
0
  3

 72
65
 73
0
 40
0.0
  0
LTYPE
  5
26
330
2
100
AcDbSymbolTableRecord
100
AcDbLinetypeTableRecord
  2
Continuous
 70
0
  3

 72
65
 73
0
 40
0.0
  0
LTYPE
  5
2F
330
2
100
AcDbSymbolTableRecord
100
AcDbLinetypeTableRecord
  2
CENTER
 70
0
  3
Center ____ _ ____ _ ____ _ ____ _ ____ _ ____
 72
65
 73
4
 40
5.08
 49
3.175
 74
0
 49
-0.635
 74
0
 49
0.635
 74
0
 49
-0.635
 74
0
  0
LTYPE
  5
30
330
2
100
AcDbSymbolTableRecord
100
AcDbLinetypeTableRecord
  2
CENTERX2
 70
0
  3
Center (2x) ________  __  ________  __  ________
 72
65
 73
4
 40
8.89
 49
6.35
 74
0
 49
-0.635
 74
0
 49
1.27
 74
0
 49
-0.635
 74
0
  0
LTYPE
  5
31
330
2
100
AcDbSymbolTableRecord
100
AcDbLinetypeTableRecord
  2
CENTER2
 70
0
  3
Center (.5x) ____ _ ____ _ ____ _ ____ _ ____
 72
65
 73
4
 40
2.54
 49
1.587
 74
0
 49
-0.318
 74
0
 49
0.318
 74
0
 49
-0.318
 74
0
  0
LTYPE
  5
32
330
2
100
AcDbSymbolTableRecord
100
AcDbLinetypeTableRecord
  2
DASHED
 70
0
  3
Dashed __ __ __ __ __ __ __ __ __ __ __ __ __ _
 72
65
 73
2
 40
1.524
 49
1.27
 74
0
 49
-0.254
 74
0
  0
LTYPE
  5
33
330
2
100
AcDbSymbolTableRecord
100
AcDbLinetypeTableRecord
  2
DASHEDX2
 70
0
  3
Dashed (2x) ____  ____  ____  ____  ____  ____
 72
65
 73
2
 40
3.048
 49
2.54
 74
0
 49
-0.508
 74
0
  0
LTYPE
  5
34
330
2
100
AcDbSymbolTableRecord
100
AcDbLinetypeTableRecord
  2
DASHED2
 70
0
  3
Dashed (.5x) _ _ _ _ _ _ _ _ _ _ _ _ _ _
 72
65
 73
2
 40
0.762
 49
0.635
 74
0
 49
-0.127
 74
0
  0
LTYPE
  5
35
330
2
100
AcDbSymbolTableRecord
100
AcDbLinetypeTableRecord
  2
PHANTOM
 70
0
  3
Phantom ______  __  __  ______  __  __  ______
 72
65
 73
6
 40
6.35
 49
3.175
 74
0
 49
-0.635
 74
0
 49
0.635
 74
0
 49
-0.635
 74
0
 49
0.635
 74
0
 49
-0.635
 74
0
  0
LTYPE
  5
36
330
2
100
AcDbSymbolTableRecord
100
AcDbLinetypeTableRecord
  2
PHANTOMX2
 70
0
  3
Phantom (2x)____________    ____    ____    ____________
 72
65
 73
6
 40
10.795
 49
6.35
 74
0
 49
-0.635
 74
0
 49
1.27
 74
0
 49
-0.635
 74
0
 49
1.27
 74
0
 49
-0.635
 74
0
  0
LTYPE
  5
37
330
2
100
AcDbSymbolTableRecord
100
AcDbLinetypeTableRecord
  2
PHANTOM2
 70
0
  3
Phantom (.5x) ___ _ _ ___ _ _ ___ _ _ ___ _ _ ___
 72
65
 73
6
 40
3.175
 49
1.587
 74
0
 49
-0.318
 74
0
 49
0.318
 74
0
 49
-0.318
 74
0
 49
0.318
 74
0
 49
-0.318
 74
0
  0
LTYPE
  5
38
330
2
100
AcDbSymbolTableRecord
100
AcDbLinetypeTableRecord
  2
DASHDOT
 70
0
  3
Dash dot __ . __ . __ . __ . __ . __ . __ . __
 72
65
 73
4
 40
3.556
 49
2.54
 74
0
 49
-0.508
 74
0
 49
0.0
 74
0
 49
-0.508
 74
0
  0
LTYPE
  5
39
330
2
100
AcDbSymbolTableRecord
100
AcDbLinetypeTableRecord
  2
DASHDOTX2
 70
0
  3
Dash dot (2x) ____  .  ____  .  ____  .  ____
 72
65
 73
4
 40
6.096
 49
5.08
 74
0
 49
-0.508
 74
0
 49
0.0
 74
0
 49
-0.508
 74
0
  0
LTYPE
  5
3A
330
2
100
AcDbSymbolTableRecord
100
AcDbLinetypeTableRecord
  2
DASHDOT2
 70
0
  3
Dash dot (.5x) _ . _ . _ . _ . _ . _ . _ . _
 72
65
 73
4
 40
1.778
 49
1.27
 74
0
 49
-0.254
 74
0
 49
0.0
 74
0
 49
-0.254
 74
0
  0
LTYPE
  5
3B
330
2
100
AcDbSymbolTableRecord
100
AcDbLinetypeTableRecord
  2
DOT
 70
0
  3
Dot .  .  .  .  .  .  .  .  .  .  .  .  .  .  .  .
 72
65
 73
2
 40
0.508
 49
0.0
 74
0
 49
-0.508
 74
0
  0
LTYPE
  5
3C
330
2
100
AcDbSymbolTableRecord
100
AcDbLinetypeTableRecord
  2
DOTX2
 70
0
  3
Dot (2x) .    .    .    .    .    .    .    . 
 72
65
 73
2
 40
1.016
 49
0.0
 74
0
 49
-1.016
 74
0
  0
LTYPE
  5
3D
330
2
100
AcDbSymbolTableRecord
100
AcDbLinetypeTableRecord
  2
DOT2
 70
0
  3
Dot (.5) . . . . . . . . . . . . . . . . . . . 
 72
65
 73
2
 40
0.254
 49
0.0
 74
0
 49
-0.254
 74
0
  0
LTYPE
  5
3E
330
2
100
AcDbSymbolTableRecord
100
AcDbLinetypeTableRecord
  2
DIVIDE
 70
0
  3
Divide __ . . __ . . __ . . __ . . __ . . __
 72
65
 73
6
 40
4.064
 49
2.54
 74
0
 49
-0.508
 74
0
 49
0.0
 74
0
 49
-0.508
 74
0
 49
0.0
 74
0
 49
-0.508
 74
0
  0
LTYPE
  5
3F
330
2
100
AcDbSymbolTableRecord
100
AcDbLinetypeTableRecord
  2
DIVIDEX2
 70
0
  3
Divide (2x) ____  . .  ____  . .  ____  . .  ____
 72
65
 73
6
 40
6.604
 49
5.08
 74
0
 49
-0.508
 74
0
 49
0.0
 74
0
 49
-0.508
 74
0
 49
0.0
 74
0
 49
-0.508
 74
0
  0
LTYPE
  5
40
330
2
100
AcDbSymbolTableRecord
100
AcDbLinetypeTableRecord
  2
DIVIDE2
 70
0
  3
Divide(.5x) _ . _ . _ . _ . _ . _ . _ . _
 72
65
 73
6
 40
2.032
 49
1.27
 74
0
 49
-0.254
 74
0
 49
0.0
 74
0
 49
-0.254
 74
0
 49
0.0
 74
0
 49
-0.254
 74
0
  0
ENDTAB
  0
TABLE
  2
LAYER
  5
1
330
0
100
AcDbSymbolTable
 70
3
  0
LAYER
  5
27
330
1
100
AcDbSymbolTableRecord
100
AcDbLayerTableRecord
  2
0
 70
0
 62
7
  6
Continuous
370
-3
390
13
347
21
  0
LAYER
  5
28
330
1
100
AcDbSymbolTableRecord
100
AcDbLayerTableRecord
  2
Defpoints
 70
0
 62
7
  6
Continuous
290
0
370
-3
390
13
347
21
  0
LAYER
  5
8A
330
1
100
AcDbSymbolTableRecord
100
AcDbLayerTableRecord
  2
Layer
 70
0
 62
1
  6
Continuous
370
50
390
13
347
21
  0
ENDTAB
  0
TABLE
  2
STYLE
  5
5
330
0
100
AcDbSymbolTable
 70
26
  0
STYLE
  5
29
330
5
100
AcDbSymbolTableRecord
100
AcDbTextStyleTableRecord
  2
Standard
 70
0
 40
0.0
 41
1.0
 50
0.0
 71
0
 42
2.5
  3
txt
  4

  0
STYLE
  5
41
330
5
100
AcDbSymbolTableRecord
100
AcDbTextStyleTableRecord
  2
OpenSans-Light
 70
0
 40
0.0
 41
1.0
 50
0.0
 71
0
 42
2.5
  3
OpenSans-Light.ttf
  4

  0
STYLE
  5
42
330
5
100
AcDbSymbolTableRecord
100
AcDbTextStyleTableRecord
  2
OpenSans-Light-Italic
 70
0
 40
0.0
 41
1.0
 50
0.0
 71
0
 42
2.5
  3
OpenSans-LightItalic.ttf
  4

  0
STYLE
  5
43
330
5
100
AcDbSymbolTableRecord
100
AcDbTextStyleTableRecord
  2
OpenSans
 70
0
 40
0.0
 41
1.0
 50
0.0
 71
0
 42
2.5
  3
OpenSans-Regular.ttf
  4

  0
STYLE
  5
44
330
5
100
AcDbSymbolTableRecord
100
AcDbTextStyleTableRecord
  2
OpenSans-Italic
 70
0
 40
0.0
 41
1.0
 50
0.0
 71
0
 42
2.5
  3
OpenSans-Italic.ttf
  4

  0
STYLE
  5
45
330
5
100
AcDbSymbolTableRecord
100
AcDbTextStyleTableRecord
  2
OpenSans-SemiBold
 70
0
 40
0.0
 41
1.0
 50
0.0
 71
0
 42
2.5
  3
OpenSans-SemiBold.ttf
  4

  0
STYLE
  5
46
330
5
100
AcDbSymbolTableRecord
100
AcDbTextStyleTableRecord
  2
OpenSans-SemiBoldItalic
 70
0
 40
0.0
 41
1.0
 50
0.0
 71
0
 42
2.5
  3
OpenSans-SemiBoldItalic.ttf
  4

  0
STYLE
  5
47
330
5
100
AcDbSymbolTableRecord
100
AcDbTextStyleTableRecord
  2
OpenSans-Bold
 70
0
 40
0.0
 41
1.0
 50
0.0
 71
0
 42
2.5
  3
OpenSans-Bold.ttf
  4

  0
STYLE
  5
48
330
5
100
AcDbSymbolTableRecord
100
AcDbTextStyleTableRecord
  2
OpenSans-BoldItalic
 70
0
 40
0.0
 41
1.0
 50
0.0
 71
0
 42
2.5
  3
OpenSans-BoldItalic.ttf
  4

  0
STYLE
  5
49
330
5
100
AcDbSymbolTableRecord
100
AcDbTextStyleTableRecord
  2
OpenSans-ExtraBold
 70
0
 40
0.0
 41
1.0
 50
0.0
 71
0
 42
2.5
  3
OpenSans-ExtraBold.ttf
  4

  0
STYLE
  5
4A
330
5
100
AcDbSymbolTableRecord
100
AcDbTextStyleTableRecord
  2
OpenSans-ExtraBoldItalic
 70
0
 40
0.0
 41
1.0
 50
0.0
 71
0
 42
2.5
  3
OpenSans-ExtraBoldItalic.ttf
  4

  0
STYLE
  5
4B
330
5
100
AcDbSymbolTableRecord
100
AcDbTextStyleTableRecord
  2
OpenSansCondensed-Bold
 70
0
 40
0.0
 41
1.0
 50
0.0
 71
0
 42
2.5
  3
OpenSansCondensed-Bold.ttf
  4

  0
STYLE
  5
4C
330
5
100
AcDbSymbolTableRecord
100
AcDbTextStyleTableRecord
  2
OpenSansCondensed-Light
 70
0
 40
0.0
 41
1.0
 50
0.0
 71
0
 42
2.5
  3
OpenSansCondensed-Light.ttf
  4

  0
STYLE
  5
4D
330
5
100
AcDbSymbolTableRecord
100
AcDbTextStyleTableRecord
  2
OpenSansCondensed-Italic
 70
0
 40
0.0
 41
1.0
 50
0.0
 71
0
 42
2.5
  3
OpenSansCondensed-LightItalic.ttf
  4

  0
STYLE
  5
4E
330
5
100
AcDbSymbolTableRecord
100
AcDbTextStyleTableRecord
  2
LiberationSans
 70
0
 40
0.0
 41
1.0
 50
0.0
 71
0
 42
2.5
  3
LiberationSans-Regular.ttf
  4

  0
STYLE
  5
4F
330
5
100
AcDbSymbolTableRecord
100
AcDbTextStyleTableRecord
  2
LiberationSans-Bold
 70
0
 40
0.0
 41
1.0
 50
0.0
 71
0
 42
2.5
  3
LiberationSans-Bold.ttf
  4

  0
STYLE
  5
50
330
5
100
AcDbSymbolTableRecord
100
AcDbTextStyleTableRecord
  2
LiberationSans-BoldItalic
 70
0
 40
0.0
 41
1.0
 50
0.0
 71
0
 42
2.5
  3
LiberationSans-BoldItalic.ttf
  4

  0
STYLE
  5
51
330
5
100
AcDbSymbolTableRecord
100
AcDbTextStyleTableRecord
  2
LiberationSans-Italic
 70
0
 40
0.0
 41
1.0
 50
0.0
 71
0
 42
2.5
  3
LiberationSans-Italic.ttf
  4

  0
STYLE
  5
52
330
5
100
AcDbSymbolTableRecord
100
AcDbTextStyleTableRecord
  2
LiberationSerif
 70
0
 40
0.0
 41
1.0
 50
0.0
 71
0
 42
2.5
  3
LiberationSerif-Regular.ttf
  4

  0
STYLE
  5
53
330
5
100
AcDbSymbolTableRecord
100
AcDbTextStyleTableRecord
  2
LiberationSerif-Bold
 70
0
 40
0.0
 41
1.0
 50
0.0
 71
0
 42
2.5
  3
LiberationSerif-Bold.ttf
  4

  0
STYLE
  5
54
330
5
100
AcDbSymbolTableRecord
100
AcDbTextStyleTableRecord
  2
LiberationSerif-BoldItalic
 70
0
 40
0.0
 41
1.0
 50
0.0
 71
0
 42
2.5
  3
LiberationSerif-BoldItalic.ttf
  4

  0
STYLE
  5
55
330
5
100
AcDbSymbolTableRecord
100
AcDbTextStyleTableRecord
  2
LiberationSerif-Italic
 70
0
 40
0.0
 41
1.0
 50
0.0
 71
0
 42
2.5
  3
LiberationSerif-Italic.ttf
  4

  0
STYLE
  5
56
330
5
100
AcDbSymbolTableRecord
100
AcDbTextStyleTableRecord
  2
LiberationMono
 70
0
 40
0.0
 41
1.0
 50
0.0
 71
0
 42
2.5
  3
LiberationMono-Regular.ttf
  4

  0
STYLE
  5
57
330
5
100
AcDbSymbolTableRecord
100
AcDbTextStyleTableRecord
  2
LiberationMono-Bold
 70
0
 40
0.0
 41
1.0
 50
0.0
 71
0
 42
2.5
  3
LiberationMono-Bold.ttf
  4

  0
STYLE
  5
58
330
5
100
AcDbSymbolTableRecord
100
AcDbTextStyleTableRecord
  2
LiberationMono-BoldItalic
 70
0
 40
0.0
 41
1.0
 50
0.0
 71
0
 42
2.5
  3
LiberationMono-BoldItalic.ttf
  4

  0
STYLE
  5
59
330
5
100
AcDbSymbolTableRecord
100
AcDbTextStyleTableRecord
  2
LiberationMono-Italic
 70
0
 40
0.0
 41
1.0
 50
0.0
 71
0
 42
2.5
  3
LiberationMono-Italic.ttf
  4

  0
ENDTAB
  0
TABLE
  2
VIEW
  5
7
330
0
100
AcDbSymbolTable
 70
0
  0
ENDTAB
  0
TABLE
  2
UCS
  5
6
330
0
100
AcDbSymbolTable
 70
0
  0
ENDTAB
  0
TABLE
  2
APPID
  5
3
330
0
100
AcDbSymbolTable
 70
3
  0
APPID
  5
2A
330
3
100
AcDbSymbolTableRecord
100
AcDbRegAppTableRecord
  2
ACAD
 70
0
  0
APPID
  5
B1
330
3
100
AcDbSymbolTableRecord
100
AcDbRegAppTableRecord
  2
HATCHBACKGROUNDCOLOR
 70
0
  0
APPID
  5
B2
330
3
100
AcDbSymbolTableRecord
100
AcDbRegAppTableRecord
  2
EZDXF
 70
0
  0
ENDTAB
  0
TABLE
  2
DIMSTYLE
  5
4
330
0
100
AcDbSymbolTable
 70
12
100
AcDbDimStyleTable
  0
DIMSTYLE
105
2B
330
4
100
AcDbSymbolTableRecord
100
AcDbDimStyleTableRecord
  2
Standard
 70
0
 40
1.0
 41
2.5
 42
0.625
 43
3.75
 44
1.25
 45
0.0
 46
0.0
 47
0.0
 48
0.0
 49
2.5
140
2.5
141
2.5
142
0.0
143
0.03937007874
144
1.0
145
0.0
146
1.0
147
0.625
148
0.0
 69
0
 70
0
 71
0
 72
0
 73
0
 74
0
 75
0
 76
0
 77
1
 78
8
 79
3
170
0
171
3
172
1
173
0
174
0
175
0
176
0
177
0
178
0
179
2
271
2
272
2
273
2
274
3
275
0
276
0
277
2
278
44
279
0
280
0
281
0
282
0
283
0
284
8
285
0
286
0
288
0
289
3
290
0
371
-2
372
-2
  0
DIMSTYLE
105
73
330
4
100
AcDbSymbolTableRecord
100
AcDbDimStyleTableRecord
  2
EZDXF
 70
0
 40
1.0
 41
0.175
 42
0.125
 43
3.75
 44
0.375
 45
0.0
 46
0.0
 47
0.0
 48
0.0
 49
2.5
140
0.25
141
2.5
142
0.0
143
0.03937007874
144
100.0
145
0.0
146
0.5
147
0.1
148
0.0
 69
0
 70
0
 71
0
 72
0
 73
0
 74
0
 75
0
 76
0
 77
1
 78
12
 79
3
170
0
171
3
172
1
173
0
174
0
175
0
176
0
177
0
178
0
179
2
271
2
272
2
273
2
274
3
275
0
276
0
277
2
278
46
279
2
280
0
281
0
282
0
283
0
284
8
285
0
286
0
288
1
289
3
290
0
340
4C
342
74
371
-2
372
-2
  0
DIMSTYLE
105
7C
330
4
100
AcDbSymbolTableRecord
100
AcDbDimStyleTableRecord
  2
EZ_M_100_H25_CM
 70
0
 40
1.0
 41
0.25
 42
0.125
 43
3.75
 44
0.375
 45
0.0
 46
0.0
 47
0.0
 48
0.0
 49
2.5
140
0.25
141
2.5
142
0.125
143
0.03937007874
144
100.0
145
0.0
146
0.5
147
0.1
148
0.0
 69
0
 70
0
 71
0
 72
0
 73
0
 74
0
 75
0
 76
0
 77
1
 78
12
 79
3
170
0
171
3
172
1
173
0
174
0
175
0
176
0
177
0
178
0
179
2
271
2
272
2
273
2
274
3
275
0
276
0
277
2
278
46
279
2
280
0
281
0
282
0
283
0
284
8
285
0
286
0
288
1
289
3
290
0
340
4C
371
-2
372
-2
  0
DIMSTYLE
105
7D
330
4
100
AcDbSymbolTableRecord
100
AcDbDimStyleTableRecord
  2
EZ_M_50_H25_CM
 70
0
 40
1.0
 41
0.125
 42
0.0625
 43
3.75
 44
0.1875
 45
0.0
 46
0.0
 47
0.0
 48
0.0
 49
2.5
140
0.125
141
2.5
142
0.0625
143
0.03937007874
144
100.0
145
0.0
146
0.5
147
0.05
148
0.0
 69
0
 70
0
 71
0
 72
0
 73
0
 74
0
 75
0
 76
0
 77
1
 78
12
 79
3
170
0
171
3
172
1
173
0
174
0
175
0
176
0
177
0
178
0
179
2
271
2
272
2
273
2
274
3
275
0
276
0
277
2
278
46
279
2
280
0
281
0
282
0
283
0
284
8
285
0
286
0
288
1
289
3
290
0
340
4C
371
-2
372
-2
  0
DIMSTYLE
105
7E
330
4
100
AcDbSymbolTableRecord
100
AcDbDimStyleTableRecord
  2
EZ_M_25_H25_CM
 70
0
 40
1.0
 41
0.0625
 42
0.03125
 43
3.75
 44
0.09375
 45
0.0
 46
0.0
 47
0.0
 48
0.0
 49
2.5
140
0.0625
141
2.5
142
0.03125
143
0.03937007874
144
100.0
145
0.0
146
0.5
147
0.025
148
0.0
 69
0
 70
0
 71
0
 72
0
 73
0
 74
0
 75
0
 76
0
 77
1
 78
12
 79
3
170
0
171
3
172
1
173
0
174
0
175
0
176
0
177
0
178
0
179
2
271
2
272
2
273
2
274
3
275
0
276
0
277
2
278
46
279
2
280
0
281
0
282
0
283
0
284
8
285
0
286
0
288
1
289
3
290
0
340
4C
371
-2
372
-2
  0
DIMSTYLE
105
7F
330
4
100
AcDbSymbolTableRecord
100
AcDbDimStyleTableRecord
  2
EZ_M_20_H25_CM
 70
0
 40
1.0
 41
0.05
 42
0.025
 43
3.75
 44
0.07500000000000001
 45
0.0
 46
0.0
 47
0.0
 48
0.0
 49
2.5
140
0.05
141
2.5
142
0.025
143
0.03937007874
144
100.0
145
0.0
146
0.5
147
0.020000000000000004
148
0.0
 69
0
 70
0
 71
0
 72
0
 73
0
 74
0
 75
0
 76
0
 77
1
 78
12
 79
3
170
0
171
3
172
1
173
0
174
0
175
0
176
0
177
0
178
0
179
2
271
2
272
2
273
2
274
3
275
0
276
0
277
2
278
46
279
2
280
0
281
0
282
0
283
0
284
8
285
0
286
0
288
1
289
3
290
0
340
4C
371
-2
372
-2
  0
DIMSTYLE
105
80
330
4
100
AcDbSymbolTableRecord
100
AcDbDimStyleTableRecord
  2
EZ_M_10_H25_CM
 70
0
 40
1.0
 41
0.025
 42
0.0125
 43
3.75
 44
0.037500000000000006
 45
0.0
 46
0.0
 47
0.0
 48
0.0
 49
2.5
140
0.025
141
2.5
142
0.0125
143
0.03937007874
144
100.0
145
0.0
146
0.5
147
0.010000000000000002
148
0.0
 69
0
 70
0
 71
0
 72
0
 73
0
 74
0
 75
0
 76
0
 77
1
 78
12
 79
3
170
0
171
3
172
1
173
0
174
0
175
0
176
0
177
0
178
0
179
2
271
2
272
2
273
2
274
3
275
0
276
0
277
2
278
46
279
2
280
0
281
0
282
0
283
0
284
8
285
0
286
0
288
1
289
3
290
0
340
4C
371
-2
372
-2
  0
DIMSTYLE
105
81
330
4
100
AcDbSymbolTableRecord
100
AcDbDimStyleTableRecord
  2
EZ_M_5_H25_CM
 70
0
 40
1.0
 41
0.0125
 42
0.00625
 43
3.75
 44
0.018750000000000003
 45
0.0
 46
0.0
 47
0.0
 48
0.0
 49
2.5
140
0.0125
141
2.5
142
0.00625
143
0.03937007874
144
100.0
145
0.0
146
0.5
147
0.005000000000000001
148
0.0
 69
0
 70
0
 71
0
 72
0
 73
0
 74
0
 75
0
 76
0
 77
1
 78
12
 79
3
170
0
171
3
172
1
173
0
174
0
175
0
176
0
177
0
178
0
179
2
271
2
272
2
273
2
274
3
275
0
276
0
277
2
278
46
279
2
280
0
281
0
282
0
283
0
284
8
285
0
286
0
288
1
289
3
290
0
340
4C
371
-2
372
-2
  0
DIMSTYLE
105
82
330
4
100
AcDbSymbolTableRecord
100
AcDbDimStyleTableRecord
  2
EZ_M_1_H25_CM
 70
0
 40
1.0
 41
0.0025
 42
0.00125
 43
3.75
 44
0.00375
 45
0.0
 46
0.0
 47
0.0
 48
0.0
 49
2.5
140
0.0025
141
2.5
142
0.00125
143
0.03937007874
144
100.0
145
0.0
146
0.5
147
0.001
148
0.0
 69
0
 70
0
 71
0
 72
0
 73
0
 74
0
 75
0
 76
0
 77
1
 78
12
 79
3
170
0
171
3
172
1
173
0
174
0
175
0
176
0
177
0
178
0
179
2
271
2
272
2
273
2
274
3
275
0
276
0
277
2
278
46
279
2
280
0
281
0
282
0
283
0
284
8
285
0
286
0
288
1
289
3
290
0
340
4C
371
-2
372
-2
  0
DIMSTYLE
105
83
330
4
100
AcDbSymbolTableRecord
100
AcDbDimStyleTableRecord
  2
EZ_RADIUS
 70
0
 40
1.0
 41
0.25
 42
0.125
 43
3.75
 44
0.375
 45
0.0
 46
0.0
 47
0.0
 48
0.0
 49
2.5
140
0.25
141
0.0
142
0.0
143
0.03937007874
144
100.0
145
0.0
146
0.5
147
0.1
148
0.0
 69
0
 70
0
 71
0
 72
0
 73
0
 74
0
 75
0
 76
0
 77
1
 78
12
 79
3
170
0
171
3
172
0
173
0
174
0
175
0
176
0
177
0
178
0
179
2
271
2
272
2
273
2
274
3
275
0
276
0
277
2
278
46
279
1
280
0
281
0
282
0
283
0
284
8
285
0
286
0
288
1
289
3
290
0
340
4C
342
84
371
-2
372
-2
  0
DIMSTYLE
105
88
330
4
100
AcDbSymbolTableRecord
100
AcDbDimStyleTableRecord
  2
EZ_RADIUS_INSIDE
 70
0
 40
1.0
 41
0.25
 42
0.125
 43
3.75
 44
0.375
 45
0.0
 46
0.0
 47
0.0
 48
0.0
 49
2.5
140
0.25
141
0.0
142
0.0
143
0.03937007874
144
100.0
145
0.0
146
0.5
147
0.1
148
0.0
 69
0
 70
0
 71
0
 72
0
 73
0
 74
0
 75
0
 76
0
 77
0
 78
12
 79
3
170
0
171
3
172
0
173
0
174
1
175
0
176
0
177
0
178
0
179
2
271
2
272
2
273
2
274
3
275
0
276
0
277
2
278
46
279
0
280
0
281
0
282
0
283
0
284
8
285
0
286
0
288
1
289
0
290
0
340
4C
342
84
371
-2
372
-2
  0
DIMSTYLE
105
89
330
4
100
AcDbSymbolTableRecord
100
AcDbDimStyleTableRecord
  2
EZ_CURVED
 70
0
 40
1.0
 41
0.25
 42
0.125
 43
3.75
 44
0.375
 45
0.0
 46
0.0
 47
0.0
 48
0.0
 49
2.5
140
0.25
141
2.5
142
0.0
143
0.03937007874
144
100.0
145
0.0
146
0.5
147
0.1
148
0.0
 69
0
 70
0
 71
0
 72
0
 73
0
 74
0
 75
0
 76
0
 77
1
 78
12
 79
2
 90
2
170
0
171
3
172
1
173
0
174
0
175
0
176
0
177
0
178
0
179
2
271
2
272
2
273
2
274
3
275
0
276
0
277
2
278
46
279
2
280
0
281
0
282
0
283
0
284
8
285
0
286
0
288
1
289
3
290
0
340
4C
371
-2
372
-2
  0
ENDTAB
  0
TABLE
  2
BLOCK_RECORD
  5
9
330
0
100
AcDbSymbolTable
 70
5
  0
BLOCK_RECORD
  5
17
330
9
100
AcDbSymbolTableRecord
100
AcDbBlockTableRecord
  2
*Model_Space
340
1A
 70
0
280
1
281
0
  0
BLOCK_RECORD
  5
1B
330
9
100
AcDbSymbolTableRecord
100
AcDbBlockTableRecord
  2
*Paper_Space
340
1E
 70
0
280
1
281
0
  0
BLOCK_RECORD
  5
74
330
9
100
AcDbSymbolTableRecord
100
AcDbBlockTableRecord
  2
_ARCHTICK
340
0
 70
0
280
1
281
0
  0
BLOCK_RECORD
  5
78
330
9
100
AcDbSymbolTableRecord
100
AcDbBlockTableRecord
  2
_CLOSEDFILLED
340
0
 70
0
280
1
281
0
  0
BLOCK_RECORD
  5
84
330
9
100
AcDbSymbolTableRecord
100
AcDbBlockTableRecord
  2
_CLOSEDBLANK
340
0
 70
0
280
1
281
0
  0
ENDTAB
  0
ENDSEC
  0
SECTION
  2
BLOCKS
  0
BLOCK
  5
18
330
17
100
AcDbEntity
  8
0
100
AcDbBlockBegin
  2
*Model_Space
 70
0
 10
0.0
 20
0.0
 30
0.0
  3
*Model_Space
  1

  0
ENDBLK
  5
19
330
17
100
AcDbEntity
  8
0
100
AcDbBlockEnd
  0
BLOCK
  5
1C
330
1B
100
AcDbEntity
  8
0
100
AcDbBlockBegin
  2
*Paper_Space
 70
0
 10
0.0
 20
0.0
 30
0.0
  3
*Paper_Space
  1

  0
ENDBLK
  5
1D
330
1B
100
AcDbEntity
  8
0
100
AcDbBlockEnd
  0
BLOCK
  5
75
330
74
100
AcDbEntity
  8
0
100
AcDbBlockBegin
  2
_ARCHTICK
 70
0
 10
0.0
 20
0.0
 30
0.0
  3
_ARCHTICK
  1

  0
LWPOLYLINE
  5
77
330
74
100
AcDbEntity
  8
0
  6
BYBLOCK
 62
0
100
AcDbPolyline
 90
2
 70
0
 43
0.15
 10
-0.5
 20
-0.5000000000000001
 10
0.5000000000000001
 20
0.5
  0
ENDBLK
  5
76
330
74
100
AcDbEntity
  8
0
100
AcDbBlockEnd
  0
BLOCK
  5
79
330
78
100
AcDbEntity
  8
0
100
AcDbBlockBegin
  2
_CLOSEDFILLED
 70
0
 10
0.0
 20
0.0
 30
0.0
  3
_CLOSEDFILLED
  1

  0
SOLID
  5
7B
330
78
100
AcDbEntity
  8
0
  6
BYBLOCK
 62
0
100
AcDbTrace
 10
-1.0
 20
0.1643989837240255
 30
0.0
 11
0.0
 21
0.0
 31
0.0
 12
-1.0
 22
-0.1643989837240255
 32
0.0
 13
-1.0
 23
-0.1643989837240255
 33
0.0
  0
ENDBLK
  5
7A
330
78
100
AcDbEntity
  8
0
100
AcDbBlockEnd
  0
BLOCK
  5
85
330
84
100
AcDbEntity
  8
0
100
AcDbBlockBegin
  2
_CLOSEDBLANK
 70
0
 10
0.0
 20
0.0
 30
0.0
  3
_CLOSEDBLANK
  1

  0
LWPOLYLINE
  5
87
330
84
100
AcDbEntity
  8
0
  6
BYBLOCK
 62
0
100
AcDbPolyline
 90
3
 70
1
 10
-1.0
 20
0.1643989837240255
 10
0.0
 20
0.0
 10
-1.0
 20
-0.1643989837240255
  0
ENDBLK
  5
86
330
84
100
AcDbEntity
  8
0
100
AcDbBlockEnd
  0
ENDSEC
  0
SECTION
  2
ENTITIES
  0
LWPOLYLINE
  5
8B
330
17
100
AcDbEntity
  8
Layer
100
AcDbPolyline
 90
208
 70
1
 10
651.9406267243519
 20
90.0496700231329
 10
651.9406267243519
 20
90.0496700231329
 10
648.1652349747067
 20
91.34089212036733
 10
640.6839984729895
 20
93.87197753277736
 10
633.2134015635663
 20
96.3702828026653
 10
625.7477501632967
 20
98.83641746855744
 10
618.2818400133167
 20
101.27266503025051
 10
610.8165116838084
 20
103.68258122356933
 10
603.3725590577194
 20
106.06454198085136
 10
595.9765787691845
 20
108.4065146602546
 10
588.6348688631676
 20
110.69569892135324
 10
581.3373773849887
 20
112.9278217846451
 10
574.0723951466117
 20
115.10316469138073
 10
566.8297165992236
 20
117.22308382722366
 10
559.6002979480285
 20
119.28947132044163
 10
552.3792976087714
 20
121.30443196773213
 10
545.167385443863
 20
123.26817413575733
 10
537.9656138288268
 20
125.17830980264043
 10
530.7675479341452
 20
127.03299964095609
 10
523.5627252892625
 20
128.83409172941663
 10
516.3455830032316
 20
130.58452848159686
 10
509.1139414206268
 20
132.2860360926265
 10
501.86721834746743
 20
133.93969729067584
 10
494.60657791318556
 20
135.5460190677442
 10
487.3350488144083
 20
137.10472222101052
 10
480.05428887121707
 20
138.61409891884853
 10
472.75939782904277
 20
140.07311464062002
 10
465.44328190613055
 20
141.48383362585759
 10
458.1035226960074
 20
142.8491375818513
 10
450.7418621101159
 20
144.17122840867617
 10
443.3659108160052
 20
145.45086415876168
 10
435.984043166344
 20
146.68632913276895
 10
428.6007020221867
 20
147.87512701773943
 10
421.2177169465461
 20
149.01651083063646
 10
413.8386457398241
 20
150.10967101396594
 10
406.46568533255675
 20
151.15295857701364
 10
399.0982321093454
 20
152.14486873879562
 10
391.733941760408
 20
153.08524222864233
 10
384.373002230523
 20
153.97431947916732
 10
377.0161261836824
 20
154.8114362494784
 10
369.66194024334305
 20
155.59583466084706
 10
362.30909461733086
 20
156.32761996845446
 10
354.9590008497586
 20
157.00685460667643
 10
347.61047449834564
 20
157.63206757981487
 10
340.25989251029324
 20
158.2029279159324
 10
332.90355761301265
 20
158.72084691391365
 10
325.54406009089456
 20
159.18745462166828
 10
318.18655896992465
 20
159.602882797693
 10
310.8356037883912
 20
159.9660908257971
 10
303.49385760015025
 20
160.27574505392658
 10
296.16163465667364
 20
160.53076984341698
 10
288.8392132198414
 20
160.73113580919323
 10
281.5287977014463
 20
160.87752983331023
 10
274.2375477643457
 20
160.9716031081521
 10
266.9791796805839
 20
161.0131451203961
 10
259.7644842583835
 20
160.99867813565825
 10
252.59784019110197
 20
160.9229593126887
 10
245.47276577081493
 20
160.77913046788765
 10
238.36930717099688
 20
160.5632355221378
 10
231.27211625671754
 20
160.27892496028454
 10
224.1837624563298
 20
159.9316264111729
 10
217.11234011390576
 20
159.52146417797235
 10
210.06067230502327
 20
159.0468676745212
 10
203.03070129399828
 20
158.5080249833692
 10
196.02872427214976
 20
157.90591204301325
 10
189.0612038886213
 20
157.23987859552102
 10
182.13327366054764
 20
156.50903024970762
 10
175.24878453682464
 20
155.71219922350224
 10
168.41102525321233
 20
154.84859264803333
 10
161.62381394926032
 20
153.91824224581217
 10
154.89477906660258
 20
152.92073962107358
 10
148.22494496933692
 20
151.850024008748
 10
141.6014076716087
 20
150.70291760830372
 10
135.02503432875838
 20
149.49063333060425
 10
128.53114303446733
 20
148.2278263742773
 10
122.15553033676264
 20
146.91370859682465
 10
115.90960576992609
 20
145.53884020893386
 10
109.79138487403475
 20
144.09619423568074
 10
103.7961581617684
 20
142.58232168986845
 10
97.9202494734019
 20
140.99660730336353
 10
92.16416588344029
 20
139.34124159091965
 10
86.53404147366143
 20
137.6217314599697
 10
81.04290662442384
 20
135.8455566541377
 10
75.70607190702171
 20
134.01795954098932
 10
70.53331656809453
 20
132.1431495369958
 10
65.5351861385355
 20
130.23319611412484
 10
60.73234717784578
 20
128.30758469878666
 10
56.14949832707464
 20
126.38247448377956
 10
51.804875543427954
 20
124.46759423903326
 10
47.70817231672072
 20
122.56895751884497
 10
43.85989750976523
 20
120.68960014334365
 10
40.2540884393369
 20
118.83441958764055
 10
36.88363742557618
 20
117.01183411630555
 10
33.74076340962773
 20
115.2299528264194
 10
30.817444916477257
 20
113.49627824589055
 10
28.105440755468862
 20
111.81475187578722
 10
25.59475278138632
 20
110.18524370574515
 10
23.273967371749052
 20
108.6050747128918
 10
21.129972222982133
 20
107.06940999826692
 10
19.1467208650717
 20
105.57322018276697
 10
17.308726296450118
 20
104.11748883625987
 10
15.603939799914485
 20
102.70553218897405
 10
14.023403772951326
 20
101.3381926504977
 10
12.558563386057529
 20
100.01260792454964
 10
11.20132135298735
 20
98.72631910149909
 10
9.944341889537384
 20
97.476890524553
 10
8.780762156713251
 20
96.26171550661309
 10
7.703066886987699
 20
95.07702208122006
 10
6.703645292377701
 20
93.92119466091142
 10
5.777977893251034
 20
92.79701019045925
 10
4.9247006991226385
 20
91.70517891070435
 10
4.137871946427538
 20
90.63451788312425
 10
3.4058020709687185
 20
89.57746382617808
 10
2.726528167425613
 20
88.55402810705327
 10
2.1125050927051348
 20
87.58094029094755
 10
1.5653639866873732
 20
86.62503693557468
 10
1.0677013801310409
 20
85.65189353586754
 10
0.6097013402145421
 20
84.69864260404167
 10
0.20471746803116275
 20
83.80632287030507
 10
-0.13650135268852637
 20
82.94191279739341
 10
-0.41982025403893886
 20
82.06396834334623
 10
-0.6567946275583836
 20
81.18991404148555
 10
-0.8506251786297412
 20
80.34602667270444
 10
-0.9976203695444497
 20
79.52710784413037
 10
-1.097889683236474
 20
78.70572191222655
 10
-1.1487109428118174
 20
77.94927995633329
 10
-1.150706533202083
 20
77.18428155326346
 10
-1.089887499637598
 20
76.41635601937699
 10
-0.9585824155120122
 20
75.63713515042096
 10
-0.7578314398989505
 20
74.85185396671558
 10
-0.4895540956846389
 20
74.06793189315695
 10
-0.15353448385906177
 20
73.29081186638969
 10
0.25133501919077617
 20
72.52570400820974
 10
0.7323859654130729
 20
71.7705307310638
 10
1.2932632979680534
 20
71.02279309141976
 10
1.9280133025486634
 20
70.2850498644203
 10
2.6323463597981913
 20
69.55947775381776
 10
3.4042838804246003
 20
68.84805796611336
 10
4.24380484496055
 20
68.15279676634805
 10
5.154832746906379
 20
67.47440229196181
 10
6.141575452076381
 20
66.81245862812386
 10
7.208938337291386
 20
66.1648701163295
 10
8.360632303482419
 20
65.52778425236335
 10
9.597946602799198
 20
64.8963155035679
 10
10.921500743586762
 20
64.26608970988394
 10
12.334322422488526
 20
63.63371679799467
 10
13.841325027517314
 20
62.99676424859482
 10
15.448526220686006
 20
62.35379825139355
 10
17.162048234370218
 20
61.705402456303204
 10
18.99368719185304
 20
61.054798366496584
 10
20.962470737016247
 20
60.404226132108256
 10
23.08568266707516
 20
59.750510087457556
 10
25.37649839919402
 20
59.08775888310762
 10
27.849389388702264
 20
58.411377839507445
 10
30.520555886770126
 20
57.71877328032382
 10
33.40675818994248
 20
57.01214988005466
 10
36.53007134063961
 20
56.29896373734615
 10
39.91702386983087
 20
55.58593587458805
 10
43.59761786128473
 20
54.876987697026046
 10
47.605066398990516
 20
54.17129569774888
 10
51.96341812279269
 20
53.460128113368754
 10
56.67697493746124
 20
52.738450162342524
 10
61.74127726779267
 20
52.016415169666956
 10
67.15565540609862
 20
51.30856541632555
 10
72.91780366249174
 20
50.62227093896902
 10
79.01905099977861
 20
49.958137906861246
 10
85.43379508928393
 20
49.31046535173968
 10
92.10532803017571
 20
48.6759482658026
 10
98.96444144364045
 20
48.064106676183826
 10
105.96092567133621
 20
47.49027283757885
 10
113.0738132631009
 20
46.96883831465359
 10
120.32073989130646
 20
46.50504477472132
 10
127.72554416584595
 20
46.08529009060786
 10
135.26857184092717
 20
45.69238529930089
 10
142.9164368933985
 20
45.32591217886248
 10
150.6654006022612
 20
44.98832213553136
 10
158.51573320353842
 20
44.67143469427479
 10
166.44133282520704
 20
44.36482516186927
 10
169.10079277639235
 20
44.26516954301637
 10
169.04462400735582
 20
42.7662215554648
 10
174.34940496909493
 20
42.56744013392636
 10
182.3194746187215
 20
42.282420362583196
 10
190.28634384346884
 20
42.0215413150109
 10
198.2731931013157
 20
41.7891237774122
 10
206.3002550133805
 20
41.57724489097689
 10
214.36195435316876
 20
41.376915389924605
 10
222.43924525996067
 20
41.18428120280531
 10
230.50968766637766
 20
41.002377089823135
 10
238.57095441313965
 20
40.84062596005535
 10
246.64825989081112
 20
40.70258165459791
 10
254.76345058164065
 20
40.58202846236534
 10
262.91597939009705
 20
40.467322866040185
 10
271.0865135151681
 20
40.346348295917885
 10
279.27585987461094
 20
40.219391487360056
 10
287.4739623601967
 20
40.098563005449535
 10
295.6919310680189
 20
39.986583423949405
 10
303.9296524946106
 20
39.87744425731374
 10
312.1737624799372
 20
39.766331014602194
 10
320.419826298851
 20
39.651143159223196
 10
328.6676305418761
 20
39.5313738756921
 10
336.9148212134461
 20
39.40929723989164
 10
345.15478977716833
 20
39.29082852762231
 10
353.39398495568395
 20
39.18044228298379
 10
361.6402023531801
 20
39.07405042393253
 10
369.88567279189465
 20
38.964751033683655
 10
378.1318699981349
 20
38.8501633572329
 10
386.7491831965825
 20
38.72613591396168
 10
651.9406267243519
 20
90.0496700231329
  0
LWPOLYLINE
  5
8C
330
17
100
AcDbEntity
  8
Layer
100
AcDbPolyline
 90
5
 70
0
 10
567.6854287965672
 20
112.80477171408015
 10
563.8464904995768
 20
113.92840544083472
 10
564.9701242263314
 20
117.76734373782514
 10
568.8090625233218
 20
116.64371001107057
 10
567.6854287965672
 20
112.80477171408015
  0
LWPOLYLINE
  5
8D
330
17
100
AcDbEntity
  8
Layer
100
AcDbPolyline
 90
5
 70
0
 10
224.08309795894192
 20
155.91906154712484
 10
220.08981177894597
 20
155.68740342692763
 10
219.85815365874876
 20
159.68068960692358
 10
223.8514398387447
 20
159.9123477271208
 10
224.08309795894192
 20
155.91906154712484
  0
LWPOLYLINE
  5
8E
330
17
100
AcDbEntity
  8
Layer
100
AcDbPolyline
 90
5
 70
0
 10
92.84286640987764
 20
135.36611173949132
 10
89.01734735560908
 20
134.19760672648187
 10
87.84884234259962
 20
138.02312578075043
 10
91.67436139686819
 20
139.19163079375988
 10
92.84286640987764
 20
135.36611173949132
  0
LWPOLYLINE
  5
8F
330
17
100
AcDbEntity
  8
Layer
100
AcDbPolyline
 90
5
 70
0
 10
21.737889047465497
 20
101.2470735889274
 10
20.1702581535198
 20
100.00508591574098
 10
17.065288970553755
 20
103.92416315060521
 10
18.632919864499453
 20
105.16615082379164
 10
21.737889047465497
 20
101.2470735889274
  0
LWPOLYLINE
  5
90
330
17
100
AcDbEntity
  8
Layer
100
AcDbPolyline
 90
5
 70
0
 10
39.47689014751693
 20
60.78831945679226
 10
41.434017820025254
 20
60.376432004322375
 10
40.40429918885054
 20
55.48361282305155
 10
38.447171516342216
 20
55.895500275521435
 10
39.47689014751693
 20
60.78831945679226
  0
LWPOLYLINE
  5
91
330
17
100
AcDbEntity
  8
Layer
100
AcDbPolyline
 90
5
 70
0
 10
123.90510743926133
 20
50.30828722891298
 10
127.89869658043698
 20
50.08191193988197
 10
127.67232129140596
 20
46.08832279870631
 10
123.67873215023032
 20
46.31469808773732
 10
123.90510743926133
 20
50.30828722891298
  0
LWPOLYLINE
  5
92
330
17
100
AcDbEntity
  8
Layer
100
AcDbPolyline
 90
300
 70
1
 10
374.1830646707272
 20
100.0
 10
374.17243962572235
 20
101.019126047867
 10
374.14056918242846
 20
102.03780207836083
 10
374.0874674139361
 20
103.05557827282333
 10
374.01315776849145
 20
104.07200520993858
 10
373.917673059142
 20
105.08663406418475
 10
373.80105544924726
 20
106.09901680402277
 10
373.66335643386105
 20
107.10870638973446
 10
373.50463681699205
 20
108.11525697082271
 10
373.32496668475494
 20
109.11822408288644
 10
373.12442537442223
 20
110.11716484388366
 10
372.9031014393911
 20
111.11163814969564
 10
372.6610926100807
 20
112.10120486890608
 10
372.39850575077725
 20
113.08542803670925
 10
372.1154568124457
 20
114.06387304786124
 10
371.81207078152903
 20
115.03610784858947
 10
371.4884816247579
 20
116.00170312737548
 10
371.14483222999445
 20
116.96023250452677
 10
370.78127434313734
 20
117.9112727204541
 10
370.3979685011148
 20
118.85440382257097
 10
369.9950839609962
 20
119.78920935073293
 10
369.57279862525274
 20
120.7152765211346
 10
369.13129896320095
 20
121.63219640858335
 10
368.6707799286628
 20
122.53956412706928
 10
368.1914448738798
 20
123.4369790085513
 10
367.6935054597183
 20
124.32404477988105
 10
367.17718156220616
 20
125.20036973778582
 10
366.64270117544123
 20
126.06556692183374
 10
366.0903003109162
 20
126.91925428530462
 10
365.52022289330205
 20
127.76105486389106
 10
364.93272065273806
 20
128.5905969421552
 10
364.3280530136749
 20
129.40751421766782
 10
363.7064869803197
 20
130.21144596275727
 10
363.0682970187352
 20
131.00203718379646
 10
362.4137649356426
 20
131.77893877795825
 10
361.74317975398384
 20
132.54180768736933
 10
361.0568375852975
 20
133.29030705059498
 10
360.355041498964
 20
134.02410635138745
 10
359.6381013883786
 20
134.74288156463285
 10
358.9063338341115
 20
135.44631529943132
 10
358.1600619641145
 20
136.13409693924808
 10
357.39961531103705
 20
136.80592277907283
 10
356.6253296667137
 20
137.46149615952734
 10
355.8375469338879
 20
138.10052759786197
 10
355.0366149752375
 20
138.722734915783
 10
354.22288745976834
 20
139.32784336405473
 10
353.39672370664385
 20
139.91558574382086
 10
352.5584885265199
 20
140.4857025245921
 10
351.70855206045485
 20
141.03794195884754
 10
350.84728961646533
 20
141.57206019319918
 10
349.9750815038011
 20
142.08782137607074
 10
349.09231286501114
 20
142.58499776184317
 10
348.19937350587526
 20
143.0633698114206
 10
347.29665772327724
 20
143.52272628917265
 10
346.38456413109424
 20
143.96286435621016
 10
345.46349548418
 20
144.3835896599531
 10
344.5338585005199
 20
144.78471641995122
 10
343.59606368163554
 20
145.16606750991954
 10
342.650525131319
 20
145.5274745359522
 10
341.69766037277606
 20
145.86877791088045
 10
340.73789016425985
 20
146.1898269247421
 10
339.77163831327584
 20
146.4904798113305
 10
338.79933148944036
 20
146.7706038107946
 10
337.8213990360752
 20
147.0300752282621
 10
336.8382727806218
 20
147.26877948845944
 10
335.8503868439586
 20
147.48661118630517
 10
334.8581774487049
 20
147.68347413345367
 10
333.862082726598
 20
147.85928140076942
 10
332.8625425250258
 20
148.01395535671236
 10
331.8599982128032
 20
148.1474277016178
 10
330.85489248527574
 20
148.25963949785557
 10
329.84766916883774
 20
148.35054119585544
 10
328.8387730249513
 20
148.42009265598648
 10
327.8286495537519
 20
148.46826316628193
 10
326.8177447973284
 20
148.4950314560004
 10
325.806505142763
 20
148.50038570501874
 10
324.7953771250196
 20
148.4843235490514
 10
323.78480722976656
 20
148.44685208069416
 10
322.7752416962208
 20
148.38798784629265
 10
321.76712632010145
 20
148.30775683863567
 10
320.76090625677915
 20
148.2061944854776
 10
319.7570258247075
 20
148.08334563389454
 10
318.75592830922494
 20
147.93926453048095
 10
317.7580557668123
 20
147.7740147973961
 10
316.763848829893
 20
147.58766940427012
 10
315.77374651226233
 20
147.38031063598277
 10
314.78818601523125
 20
147.15203005632878
 10
313.80760253457055
 20
146.90292846758572
 10
312.83242906834084
 20
146.6331158660027
 10
311.86309622569246
 20
146.34271139322908
 10
310.9000320367209
 20
146.03184328370475
 10
309.9436617634607
 20
145.70064880803562
 10
308.9944077121015
 20
145.34927421237865
 10
308.0526890465099
 20
144.97787465386367
 10
307.1189216031381
 20
144.58661413208037
 10
306.1935177074026
 20
144.1756654166608
 10
305.27688599161235
 20
143.74520997098892
 10
304.36943121452896
 20
143.29543787207183
 10
303.47155408263603
 20
142.82654772660672
 10
302.5836510731988
 20
142.3387465832821
 10
301.7061142591906
 20
141.83224984135063
 10
300.839331136165
 20
141.30728115551514
 10
299.9836844511482
 20
140.76407233716878
 10
299.13955203362866
 20
140.20286325203384
 10
298.30730662871883
 20
139.62390171424357
 10
297.4873157325608
 20
139.02744337691465
 10
296.67994143005063
 20
138.41375161925785
 10
295.8855402349518
 20
137.78309743027725
 10
295.1044629324688
 20
137.13575928910905
 10
294.3370544243501
 20
136.47202304205305
 10
293.5836535765895
 20
135.79218177635107
 10
292.8445930697922
 20
135.09653569076767
 10
292.12019925227276
 20
134.38539196303103
 10
291.41079199594833
 20
133.6590646141918
 10
290.71668455509274
 20
132.9178743699603
 10
290.03818342801196
 20
132.16214851908302
 10
289.3755882217031
 20
131.39222076882112
 10
288.7291915195564
 20
130.60843109759483
 10
288.0992787521588
 20
129.81112560485832
 10
287.48612807125556
 20
129.00065635827215
 10
286.8900102269265
 20
128.17738123823997
 10
286.3111884480303
 20
127.34166377987864
 10
285.74991832597
 20
126.49387301249138
 10
285.206447701831
 20
125.63438329661474
 10
284.68101655694176
 20
124.76357415871168
 10
284.1738569069043
 20
123.8818301235832
 10
283.68519269914293
 20
122.9895405445731
 10
283.21523971401535
 20
122.0870994316405
 10
282.7642054695301
 20
121.17490527737611
 10
282.3322891297124
 20
120.25336088103914
 10
281.91968141665893
 20
119.32287317069249
 10
281.5265645263205
 20
118.38385302351475
 10
281.1531120480491
 20
117.43671508436842
 10
280.79948888794604
 20
116.48187758270439
 10
280.4658511960439
 20
115.51976214788361
 10
280.15234629735517
 20
114.55079362299747
 10
279.8591126268176
 20
113.57539987726898
 10
279.5862796681652
 20
112.59401161711779
 10
279.33396789675203
 20
111.60706219597236
 10
279.1022887263533
 20
110.61498742291334
 10
278.8913444599689
 20
109.6182253702325
 10
278.70122824464823
 20
108.6172161799922
 10
278.5320240303602
 20
107.61240186967137
 10
278.3838065329225
 20
106.60422613698276
 10
278.2566412010095
 20
105.5931341639486
 10
278.15058418725187
 20
104.5795724203208
 10
278.0656823234413
 20
103.5639884664324
 10
278.00197309985083
 20
102.54683075556764
 10
277.95948464867996
 20
101.5285484359374
 10
277.93823573163274
 20
100.50959115234824
 10
277.93823573163274
 20
99.49040884765178
 10
277.95948464867996
 20
98.47145156406262
 10
278.00197309985083
 20
97.45316924443237
 10
278.0656823234413
 20
96.43601153356758
 10
278.15058418725187
 20
95.42042757967918
 10
278.2566412010095
 20
94.40686583605141
 10
278.3838065329225
 20
93.39577386301725
 10
278.5320240303602
 20
92.38759813032864
 10
278.70122824464823
 20
91.3827838200078
 10
278.8913444599689
 20
90.38177462976752
 10
279.1022887263534
 20
89.38501257708664
 10
279.33396789675203
 20
88.39293780402762
 10
279.5862796681652
 20
87.40598838288223
 10
279.8591126268176
 20
86.42460012273104
 10
280.15234629735517
 20
85.44920637700254
 10
280.4658511960439
 20
84.4802378521164
 10
280.79948888794604
 20
83.51812241729563
 10
281.1531120480491
 20
82.5632849156316
 10
281.5265645263205
 20
81.61614697648525
 10
281.919681416659
 20
80.6771268293075
 10
282.3322891297124
 20
79.74663911896087
 10
282.7642054695301
 20
78.8250947226239
 10
283.21523971401535
 20
77.9129005683595
 10
283.68519269914293
 20
77.01045945542691
 10
284.1738569069043
 20
76.1181698764168
 10
284.68101655694176
 20
75.23642584128831
 10
285.206447701831
 20
74.36561670338524
 10
285.74991832596993
 20
73.50612698750864
 10
286.3111884480303
 20
72.65833622012137
 10
286.8900102269265
 20
71.82261876176003
 10
287.48612807125556
 20
70.99934364172785
 10
288.0992787521588
 20
70.18887439514168
 10
288.7291915195564
 20
69.39156890240517
 10
289.3755882217031
 20
68.60777923117887
 10
290.03818342801196
 20
67.83785148091698
 10
290.71668455509274
 20
67.08212563003971
 10
291.41079199594833
 20
66.34093538580821
 10
292.12019925227276
 20
65.614608036969
 10
292.8445930697922
 20
64.90346430923236
 10
293.5836535765894
 20
64.20781822364896
 10
294.3370544243501
 20
63.527976957946954
 10
295.1044629324687
 20
62.864240710890975
 10
295.8855402349518
 20
62.21690256972276
 10
296.67994143005063
 20
61.586248380742155
 10
297.4873157325608
 20
60.97255662308536
 10
298.30730662871883
 20
60.37609828575645
 10
299.13955203362866
 20
59.79713674796618
 10
299.9836844511481
 20
59.23592766283121
 10
300.839331136165
 20
58.692718844484865
 10
301.7061142591906
 20
58.16775015864936
 10
302.5836510731988
 20
57.66125341671791
 10
303.47155408263603
 20
57.17345227339327
 10
304.36943121452896
 20
56.70456212792817
 10
305.27688599161235
 20
56.25479002901106
 10
306.1935177074025
 20
55.82433458333923
 10
307.1189216031381
 20
55.41338586791964
 10
308.0526890465099
 20
55.02212534613635
 10
308.9944077121015
 20
54.65072578762136
 10
309.9436617634607
 20
54.299351191964384
 10
310.9000320367209
 20
53.968156716295255
 10
311.86309622569246
 20
53.65728860677094
 10
312.83242906834084
 20
53.366884133997296
 10
313.80760253457055
 20
53.09707153241428
 10
314.78818601523125
 20
52.84796994367123
 10
315.77374651226233
 20
52.61968936401723
 10
316.763848829893
 20
52.41233059572989
 10
317.7580557668123
 20
52.225985202603916
 10
318.75592830922494
 20
52.06073546951905
 10
319.7570258247075
 20
51.91665436610547
 10
320.7609062567791
 20
51.7938055145224
 10
321.76712632010145
 20
51.69224316136434
 10
322.77524169622075
 20
51.61201215370736
 10
323.78480722976656
 20
51.55314791930585
 10
324.7953771250196
 20
51.51567645094862
 10
325.806505142763
 20
51.49961429498124
 10
326.8177447973284
 20
51.5049685439996
 10
327.8286495537519
 20
51.531736833718085
 10
328.8387730249513
 20
51.579907344013506
 10
329.84766916883774
 20
51.64945880414456
 10
330.85489248527574
 20
51.74036050214441
 10
331.8599982128032
 20
51.85257229838221
 10
332.8625425250258
 20
51.98604464328764
 10
333.862082726598
 20
52.14071859923058
 10
334.8581774487049
 20
52.31652586654634
 10
335.8503868439585
 20
52.51338881369483
 10
336.8382727806218
 20
52.73122051154054
 10
337.82139903607515
 20
52.96992477173791
 10
338.79933148944036
 20
53.22939618920541
 10
339.77163831327584
 20
53.50952018866952
 10
340.73789016425985
 20
53.81017307525789
 10
341.69766037277606
 20
54.13122208911954
 10
342.650525131319
 20
54.47252546404781
 10
343.59606368163554
 20
54.83393249008046
 10
344.5338585005199
 20
55.21528358004878
 10
345.46349548418
 20
55.616410340046926
 10
346.38456413109424
 20
56.03713564378986
 10
347.29665772327724
 20
56.47727371082736
 10
348.19937350587526
 20
56.9366301885794
 10
349.09231286501114
 20
57.41500223815682
 10
349.9750815038011
 20
57.912178623929236
 10
350.84728961646533
 20
58.427939806800815
 10
351.70855206045485
 20
58.962058041152446
 10
352.5584885265199
 20
59.514297475407886
 10
353.39672370664385
 20
60.084414256179144
 10
354.22288745976834
 20
60.672156635945264
 10
355.0366149752375
 20
61.277265084216985
 10
355.8375469338879
 20
61.89947240213803
 10
356.6253296667137
 20
62.53850384047266
 10
357.39961531103705
 20
63.19407722092717
 10
358.1600619641145
 20
63.86590306075191
 10
358.9063338341115
 20
64.55368470056868
 10
359.6381013883786
 20
65.25711843536716
 10
360.355041498964
 20
65.97589364861255
 10
361.05683758529756
 20
66.70969294940504
 10
361.74317975398384
 20
67.45819231263064
 10
362.4137649356426
 20
68.22106122204173
 10
363.0682970187352
 20
68.99796281620353
 10
363.7064869803197
 20
69.78855403724273
 10
364.32805301367483
 20
70.59248578233215
 10
364.93272065273806
 20
71.4094030578448
 10
365.52022289330205
 20
72.23894513610892
 10
366.0903003109162
 20
73.08074571469538
 10
366.64270117544123
 20
73.93443307816626
 10
367.17718156220616
 20
74.79963026221418
 10
367.6935054597183
 20
75.67595522011895
 10
368.1914448738798
 20
76.5630209914487
 10
368.6707799286628
 20
77.46043587293073
 10
369.13129896320095
 20
78.36780359141665
 10
369.57279862525274
 20
79.28472347886542
 10
369.99508396099617
 20
80.21079064926704
 10
370.3979685011148
 20
81.14559617742901
 10
370.78127434313734
 20
82.08872727954589
 10
371.14483222999445
 20
83.03976749547321
 10
371.48848162475787
 20
83.99829687262451
 10
371.81207078152903
 20
84.96389215141052
 10
372.1154568124457
 20
85.93612695213876
 10
372.39850575077725
 20
86.91457196329075
 10
372.6610926100807
 20
87.89879513109392
 10
372.9031014393911
 20
88.88836185030436
 10
373.12442537442223
 20
89.88283515611634
 10
373.32496668475494
 20
90.88177591711356
 10
373.50463681699205
 20
91.8847430291773
 10
373.66335643386105
 20
92.89129361026555
 10
373.80105544924726
 20
93.90098319597725
 10
373.9176730591419
 20
94.91336593581522
 10
374.01315776849145
 20
95.9279947900614
 10
374.0874674139361
 20
96.94442172717666
 10
374.14056918242846
 20
97.96219792163916
 10
374.17243962572235
 20
98.98087395213298
 10
374.1830646707272
 20
99.99999999999999
  0
LINE
  5
93
330
17
100
AcDbEntity
  8
Layer
100
AcDbLine
 10
620.1819374074703
 20
99.99999999999996
 30
0.0
 11
624.1819374074703
 21
99.99999999999996
 31
0.0
  0
LINE
  5
94
330
17
100
AcDbEntity
  8
Layer
100
AcDbLine
 10
14.545259993505397
 20
100.00000000000004
 30
0.0
 11
10.545259993505397
 21
100.00000000000004
 31
0.0
  0
LINE
  5
95
330
17
100
AcDbEntity
  8
Layer
100
AcDbLine
 10
139.97259547629835
 20
100.00000000000003
 30
0.0
 11
128.97259547629835
 21
100.00000000000003
 31
0.0
  0
LWPOLYLINE
  5
96
330
17
100
AcDbEntity
  8
Layer
100
AcDbPolyline
 90
5
 70
0
 10
129.47259547629835
 20
95.00000000000003
 10
129.47259547629835
 20
105.00000000000003
 10
139.47259547629835
 20
105.00000000000003
 10
139.47259547629835
 20
95.00000000000003
 10
129.47259547629835
 20
95.00000000000003
  0
LINE
  5
97
330
17
100
AcDbEntity
  8
Layer
100
AcDbLine
 10
322.86359870048784
 20
100.0
 30
0.0
 11
311.86359870048784
 21
100.0
 31
0.0
  0
LWPOLYLINE
  5
98
330
17
100
AcDbEntity
  8
Layer
100
AcDbPolyline
 90
5
 70
0
 10
312.36359870048784
 20
95.0
 10
312.36359870048784
 20
105.0
 10
322.36359870048784
 20
105.0
 10
322.36359870048784
 20
95.0
 10
312.36359870048784
 20
95.0
  0
LINE
  5
99
330
17
100
AcDbEntity
  8
Layer
100
AcDbLine
 10
505.7546019246773
 20
99.99999999999997
 30
0.0
 11
494.7546019246773
 21
99.99999999999999
 31
0.0
  0
LWPOLYLINE
  5
9A
330
17
100
AcDbEntity
  8
Layer
100
AcDbPolyline
 90
5
 70
0
 10
495.2546019246773
 20
94.99999999999997
 10
495.2546019246773
 20
104.99999999999997
 10
505.2546019246773
 20
104.99999999999997
 10
505.2546019246773
 20
94.99999999999997
 10
495.2546019246773
 20
94.99999999999997
  0
LINE
  5
9B
330
17
100
AcDbEntity
  8
Layer
100
AcDbLine
 10
0.9027862735078429
 20
78.60610767182803
 30
0.0
 11
-3.0854247353998403
 21
78.91298378433531
 31
0.0
  0
LINE
  5
9C
330
17
100
AcDbEntity
  8
Layer
100
AcDbLine
 10
422.43150720767176
 20
46.171240283537664
 30
0.0
 11
426.41971821657944
 21
45.86436417103038
 31
0.0
  0
LINE
  5
9D
330
17
100
AcDbEntity
  8
Layer
100
AcDbLine
 10
326.0593220338983
 20
148.501055
 30
0.0
 11
326.0593220338983
 21
149.001055
 31
0.0
  0
LINE
  5
9E
330
17
100
AcDbEntity
  8
Layer
100
AcDbLine
 10
326.0593220338983
 20
51.498945000000006
 30
0.0
 11
326.0593220338983
 21
50.998945000000006
 31
0.0
  0
LINE
  5
9F
330
17
100
AcDbEntity
  8
Layer
100
AcDbLine
 10
374.1830646707272
 20
100.0
 30
0.0
 11
374.6830646707272
 21
100.0
 31
0.0
  0
LINE
  5
A0
330
17
100
AcDbEntity
  8
Layer
100
AcDbLine
 10
277.9355793970694
 20
100.0
 30
0.0
 11
277.4355793970694
 21
100.0
 31
0.0
  0
LINE
  5
A1
330
17
100
AcDbEntity
  8
Layer
100
AcDbLine
 10
106.0593220338983
 20
141.15379993700157
 30
0.0
 11
106.0593220338983
 21
145.15379993700157
 31
0.0
  0
LINE
  5
A2
330
17
100
AcDbEntity
  8
Layer
100
AcDbLine
 10
106.0593220338983
 20
49.483059556093906
 30
0.0
 11
106.0593220338983
 21
45.483059556093906
 31
0.0
  0
LINE
  5
A3
330
17
100
AcDbEntity
  8
Layer
100
AcDbLine
 10
106.0593220338983
 20
72.11720763227544
 30
0.0
 11
106.0593220338983
 21
61.11720763227544
 31
0.0
  0
LWPOLYLINE
  5
A4
330
17
100
AcDbEntity
  8
Layer
100
AcDbPolyline
 90
5
 70
0
 10
111.0593220338983
 20
61.61720763227544
 10
101.0593220338983
 20
61.61720763227544
 10
101.0593220338983
 20
71.61720763227544
 10
111.0593220338983
 20
71.61720763227544
 10
111.0593220338983
 20
61.61720763227544
  0
LINE
  5
A5
330
17
100
AcDbEntity
  8
Layer
100
AcDbLine
 10
106.0593220338983
 20
100.81842974654774
 30
0.0
 11
106.0593220338983
 21
89.81842974654774
 31
0.0
  0
LWPOLYLINE
  5
A6
330
17
100
AcDbEntity
  8
Layer
100
AcDbPolyline
 90
5
 70
0
 10
111.0593220338983
 20
90.31842974654774
 10
101.0593220338983
 20
90.31842974654774
 10
101.0593220338983
 20
100.31842974654774
 10
111.0593220338983
 20
100.31842974654774
 10
111.0593220338983
 20
90.31842974654774
  0
LINE
  5
A7
330
17
100
AcDbEntity
  8
Layer
100
AcDbLine
 10
106.0593220338983
 20
129.51965186082003
 30
0.0
 11
106.0593220338983
 21
118.51965186082003
 31
0.0
  0
LWPOLYLINE
  5
A8
330
17
100
AcDbEntity
  8
Layer
100
AcDbPolyline
 90
5
 70
0
 10
111.0593220338983
 20
119.01965186082003
 10
101.0593220338983
 20
119.01965186082003
 10
101.0593220338983
 20
129.01965186082003
 10
111.0593220338983
 20
129.01965186082003
 10
111.0593220338983
 20
119.01965186082003
  0
LINE
  5
A9
330
17
100
AcDbEntity
  8
Layer
100
AcDbLine
 10
526.0593220338983
 20
126.20998189820051
 30
0.0
 11
526.0593220338983
 21
130.2099818982005
 31
0.0
  0
LINE
  5
AA
330
17
100
AcDbEntity
  8
Layer
100
AcDbLine
 10
526.0593220338983
 20
67.6873702858454
 30
0.0
 11
526.0593220338983
 21
63.687370285845404
 31
0.0
  0
LINE
  5
AB
330
17
100
AcDbEntity
  8
Layer
100
AcDbLine
 10
526.0593220338983
 20
83.69189260831642
 30
0.0
 11
526.0593220338983
 21
72.69189260831642
 31
0.0
  0
LWPOLYLINE
  5
AC
330
17
100
AcDbEntity
  8
Layer
100
AcDbPolyline
 90
5
 70
0
 10
531.0593220338983
 20
73.19189260831642
 10
521.0593220338983
 20
73.19189260831642
 10
521.0593220338983
 20
83.19189260831642
 10
531.0593220338983
 20
83.19189260831642
 10
531.0593220338983
 20
73.19189260831642
  0
LINE
  5
AD
330
17
100
AcDbEntity
  8
Layer
100
AcDbLine
 10
526.0593220338983
 20
102.44867609202296
 30
0.0
 11
526.0593220338983
 21
91.44867609202296
 31
0.0
  0
LWPOLYLINE
  5
AE
330
17
100
AcDbEntity
  8
Layer
100
AcDbPolyline
 90
5
 70
0
 10
531.0593220338983
 20
91.94867609202296
 10
521.0593220338983
 20
91.94867609202296
 10
521.0593220338983
 20
101.94867609202296
 10
531.0593220338983
 20
101.94867609202296
 10
531.0593220338983
 20
91.94867609202296
  0
LINE
  5
AF
330
17
100
AcDbEntity
  8
Layer
100
AcDbLine
 10
526.0593220338983
 20
121.20545957572949
 30
0.0
 11
526.0593220338983
 21
110.20545957572949
 31
0.0
  0
LWPOLYLINE
  5
B0
330
17
100
AcDbEntity
  8
Layer
100
AcDbPolyline
 90
5
 70
0
 10
531.0593220338983
 20
110.70545957572949
 10
521.0593220338983
 20
110.70545957572949
 10
521.0593220338983
 20
120.70545957572949
 10
531.0593220338983
 20
120.70545957572949
 10
531.0593220338983
 20
110.70545957572949
  0
ENDSEC
  0
SECTION
  2
OBJECTS
  0
DICTIONARY
  5
A
330
0
100
AcDbDictionary
280
0
281
1
  3
ACAD_COLOR
350
B
  3
ACAD_GROUP
350
C
  3
ACAD_LAYOUT
350
D
  3
ACAD_MATERIAL
350
E
  3
ACAD_MLEADERSTYLE
350
F
  3
ACAD_MLINESTYLE
350
10
  3
ACAD_PLOTSETTINGS
350
11
  3
ACAD_PLOTSTYLENAME
350
12
  3
ACAD_SCALELIST
350
14
  3
ACAD_TABLESTYLE
350
15
  3
ACAD_VISUALSTYLE
350
16
  3
EZDXF_META
350
2D
  0
DICTIONARY
  5
B
330
A
100
AcDbDictionary
280
0
281
1
  0
DICTIONARY
  5
C
330
A
100
AcDbDictionary
280
0
281
1
  0
DICTIONARY
  5
D
330
A
100
AcDbDictionary
280
0
281
1
  3
Model
350
1A
  3
Layout1
350
1E
  0
DICTIONARY
  5
E
330
A
100
AcDbDictionary
280
0
281
1
  3
ByBlock
350
1F
  3
ByLayer
350
20
  3
Global
350
21
  0
DICTIONARY
  5
F
330
A
100
AcDbDictionary
280
0
281
1
  3
Standard
350
2C
  0
DICTIONARY
  5
10
330
A
100
AcDbDictionary
280
0
281
1
  3
Standard
350
22
  0
DICTIONARY
  5
11
330
A
100
AcDbDictionary
280
0
281
1
  0
ACDBDICTIONARYWDFLT
  5
12
330
A
100
AcDbDictionary
280
0
281
1
  3
Normal
350
13
100
AcDbDictionaryWithDefault
340
13
  0
ACDBPLACEHOLDER
  5
13
330
12
  0
DICTIONARY
  5
14
330
A
100
AcDbDictionary
280
0
281
1
  0
DICTIONARY
  5
15
330
A
100
AcDbDictionary
280
0
281
1
  0
DICTIONARY
  5
16
330
A
100
AcDbDictionary
280
0
281
1
  3
2dWireframe
350
5A
  3
Basic
350
5B
  3
Brighten
350
5C
  3
ColorChange
350
5D
  3
Conceptual
350
5E
  3
Dim
350
5F
  3
EdgeColorOff
350
60
  3
Facepattern
350
61
  3
Flat
350
62
  3
FlatWithEdges
350
63
  3
Gouraud
350
64
  3
GouraudWithEdges
350
65
  3
Hidden
350
66
  3
JitterOff
350
67
  3
Linepattern
350
68
  3
Modeling
350
69
  3
OverhangOff
350
6A
  3
Realistic
350
6B
  3
Shaded
350
6C
  3
Shaded with edges
350
6D
  3
Shades of Gray
350
6E
  3
Sketchy
350
6F
  3
Thicken
350
70
  3
Wireframe
350
71
  3
X-Ray
350
72
  0
LAYOUT
  5
1A
330
D
100
AcDbPlotSettings
  1

  2
Adobe PDF
  4
A3
  6

 40
7.5
 41
20.0
 42
7.5
 43
20.0
 44
420.0
 45
297.0
 46
0.0
 47
0.0
 48
0.0
 49
0.0
140
0.0
141
0.0
142
1.0
143
1.0
 70
1024
 72
1
 73
0
 74
5
  7

 75
16
 76
0
 77
2
 78
300
147
1.0
148
0.0
149
0.0
100
AcDbLayout
  1
Model
 70
1
 71
0
 10
0.0
 20
0.0
 11
420.0
 21
297.0
 12
0.0
 22
0.0
 32
0.0
 14
1e+20
 24
1e+20
 34
1e+20
 15
-1e+20
 25
-1e+20
 35
-1e+20
146
0.0
 13
0.0
 23
0.0
 33
0.0
 16
1.0
 26
0.0
 36
0.0
 17
0.0
 27
1.0
 37
0.0
 76
1
330
17
  0
LAYOUT
  5
1E
330
D
100
AcDbPlotSettings
  1

  2
Adobe PDF
  4
A3
  6

 40
7.5
 41
20.0
 42
7.5
 43
20.0
 44
420.0
 45
297.0
 46
0.0
 47
0.0
 48
0.0
 49
0.0
140
0.0
141
0.0
142
1.0
143
1.0
 70
0
 72
1
 73
0
 74
5
  7

 75
16
 76
0
 77
2
 78
300
147
1.0
148
0.0
149
0.0
100
AcDbLayout
  1
Layout1
 70
1
 71
1
 10
0.0
 20
0.0
 11
420.0
 21
297.0
 12
0.0
 22
0.0
 32
0.0
 14
1e+20
 24
1e+20
 34
1e+20
 15
-1e+20
 25
-1e+20
 35
-1e+20
146
0.0
 13
0.0
 23
0.0
 33
0.0
 16
1.0
 26
0.0
 36
0.0
 17
0.0
 27
1.0
 37
0.0
 76
1
330
1B
  0
MATERIAL
  5
1F
102
{ACAD_REACTORS
330
E
102
}
330
E
100
AcDbMaterial
  1
ByBlock
  2

 70
0
 40
1.0
 71
1
 41
1.0
 91
-1023410177
 42
1.0
 72
1
  3

 73
1
 74
1
 75
1
 44
0.5
 73
0
 45
1.0
 46
1.0
 77
1
  4

 78
1
 79
1
170
1
 48
1.0
171
1
  6

172
1
173
1
174
1
140
1.0
141
1.0
175
1
  7

176
1
177
1
178
1
143
1.0
179
1
  8

270
1
271
1
272
1
145
1.0
146
1.0
273
1
  9

274
1
275
1
276
1
 42
1.0
 72
1
  3

 73
1
 74
1
 75
1
 94
63
  0
MATERIAL
  5
20
102
{ACAD_REACTORS
330
E
102
}
330
E
100
AcDbMaterial
  1
ByLayer
  2

 70
0
 40
1.0
 71
1
 41
1.0
 91
-1023410177
 42
1.0
 72
1
  3

 73
1
 74
1
 75
1
 44
0.5
 73
0
 45
1.0
 46
1.0
 77
1
  4

 78
1
 79
1
170
1
 48
1.0
171
1
  6

172
1
173
1
174
1
140
1.0
141
1.0
175
1
  7

176
1
177
1
178
1
143
1.0
179
1
  8

270
1
271
1
272
1
145
1.0
146
1.0
273
1
  9

274
1
275
1
276
1
 42
1.0
 72
1
  3

 73
1
 74
1
 75
1
 94
63
  0
MATERIAL
  5
21
102
{ACAD_REACTORS
330
E
102
}
330
E
100
AcDbMaterial
  1
Global
  2

 70
0
 40
1.0
 71
1
 41
1.0
 91
-1023410177
 42
1.0
 72
1
  3

 73
1
 74
1
 75
1
 44
0.5
 73
0
 45
1.0
 46
1.0
 77
1
  4

 78
1
 79
1
170
1
 48
1.0
171
1
  6

172
1
173
1
174
1
140
1.0
141
1.0
175
1
  7

176
1
177
1
178
1
143
1.0
179
1
  8

270
1
271
1
272
1
145
1.0
146
1.0
273
1
  9

274
1
275
1
276
1
 42
1.0
 72
1
  3

 73
1
 74
1
 75
1
 94
63
  0
MLINESTYLE
  5
22
102
{ACAD_REACTORS
330
10
102
}
330
10
100
AcDbMlineStyle
  2
Standard
 70
0
  3

 62
256
 51
90.0
 52
90.0
 71
2
 49
0.5
 62
256
  6
BYLAYER
 49
-0.5
 62
256
  6
BYLAYER
  0
MLEADERSTYLE
  5
2C
102
{ACAD_REACTORS
330
F
102
}
330
F
100
AcDbMLeaderStyle
179
2
170
2
171
1
172
0
 90
2
 40
0.0
 41
0.0
173
1
 91
-1056964608
 92
-2
290
1
 42
2.0
291
1
 43
8.0
  3
Standard
 44
4.0
300

342
29
174
1
175
1
176
0
178
1
 93
-1056964608
 45
4.0
292
0
297
0
 46
4.0
 94
-1056964608
 47
1.0
 49
1.0
140
1.0
294
1
141
0.0
177
0
142
1.0
295
0
296
0
143
3.75
271
0
272
9
273
9
  0
DICTIONARY
  5
2D
330
A
100
AcDbDictionary
281
1
  3
CREATED_BY_EZDXF
350
2E
  3
WRITTEN_BY_EZDXF
350
B3
  0
DICTIONARYVAR
  5
2E
330
2D
100
DictionaryVariables
280
0
  1
1.1.0 @ 2024-03-26T01:33:49.044320+00:00
  0
VISUALSTYLE
  5
5A
102
{ACAD_REACTORS
330
16
102
}
330
16
100
AcDbVisualStyle
  2
2dWireframe
 70
4
 90
0
 40
0.6
 62
7
290
0
291
0
  0
VISUALSTYLE
  5
5B
102
{ACAD_REACTORS
330
16
102
}
330
16
100
AcDbVisualStyle
  2
Basic
 70
7
 90
1
 40
0.6
 62
7
290
0
291
1
  0
VISUALSTYLE
  5
5C
102
{ACAD_REACTORS
330
16
102
}
330
16
100
AcDbVisualStyle
  2
Brighten
 70
12
 90
2
 40
0.6
 62
7
290
0
291
1
  0
VISUALSTYLE
  5
5D
102
{ACAD_REACTORS
330
16
102
}
330
16
100
AcDbVisualStyle
  2
ColorChange
 70
16
 90
2
 40
0.6
 62
8
290
0
291
1
  0
VISUALSTYLE
  5
5E
102
{ACAD_REACTORS
330
16
102
}
330
16
100
AcDbVisualStyle
  2
Conceptual
 70
9
 90
3
 40
0.6
 62
7
290
0
291
0
  0
VISUALSTYLE
  5
5F
102
{ACAD_REACTORS
330
16
102
}
330
16
100
AcDbVisualStyle
  2
Dim
 70
11
 90
2
 40
0.6
 62
7
290
0
291
1
  0
VISUALSTYLE
  5
60
102
{ACAD_REACTORS
330
16
102
}
330
16
100
AcDbVisualStyle
  2
EdgeColorOff
 70
22
 90
2
 40
0.6
 62
7
290
0
291
1
  0
VISUALSTYLE
  5
61
102
{ACAD_REACTORS
330
16
102
}
330
16
100
AcDbVisualStyle
  2
Facepattern
 70
15
 90
2
 40
0.6
 62
7
290
0
291
1
  0
VISUALSTYLE
  5
62
102
{ACAD_REACTORS
330
16
102
}
330
16
100
AcDbVisualStyle
  2
Flat
 70
0
 90
2
 40
0.6
 62
7
290
0
291
1
  0
VISUALSTYLE
  5
63
102
{ACAD_REACTORS
330
16
102
}
330
16
100
AcDbVisualStyle
  2
FlatWithEdges
 70
1
 90
2
 40
0.6
 62
7
290
0
291
1
  0
VISUALSTYLE
  5
64
102
{ACAD_REACTORS
330
16
102
}
330
16
100
AcDbVisualStyle
  2
Gouraud
 70
2
 90
2
 40
0.6
 62
7
290
0
291
1
  0
VISUALSTYLE
  5
65
102
{ACAD_REACTORS
330
16
102
}
330
16
100
AcDbVisualStyle
  2
GouraudWithEdges
 70
3
 90
2
 40
0.6
 62
7
290
0
291
1
  0
VISUALSTYLE
  5
66
102
{ACAD_REACTORS
330
16
102
}
330
16
100
AcDbVisualStyle
  2
Hidden
 70
6
 90
1
 40
0.6
 62
7
290
0
291
0
  0
VISUALSTYLE
  5
67
102
{ACAD_REACTORS
330
16
102
}
330
16
100
AcDbVisualStyle
  2
JitterOff
 70
20
 90
2
 40
0.6
 62
7
290
0
291
1
  0
VISUALSTYLE
  5
68
102
{ACAD_REACTORS
330
16
102
}
330
16
100
AcDbVisualStyle
  2
Linepattern
 70
14
 90
2
 40
0.6
 62
7
290
0
291
1
  0
VISUALSTYLE
  5
69
102
{ACAD_REACTORS
330
16
102
}
330
16
100
AcDbVisualStyle
  2
Modeling
 70
10
 90
2
 40
0.6
 62
7
290
0
291
0
  0
VISUALSTYLE
  5
6A
102
{ACAD_REACTORS
330
16
102
}
330
16
100
AcDbVisualStyle
  2
OverhangOff
 70
21
 90
2
 40
0.6
 62
7
290
0
291
1
  0
VISUALSTYLE
  5
6B
102
{ACAD_REACTORS
330
16
102
}
330
16
100
AcDbVisualStyle
  2
Realistic
 70
8
 90
2
 40
0.6
 62
7
290
0
291
0
  0
VISUALSTYLE
  5
6C
102
{ACAD_REACTORS
330
16
102
}
330
16
100
AcDbVisualStyle
  2
Shaded
 70
27
 90
2
 40
0.6
 62
7
290
0
291
0
  0
VISUALSTYLE
  5
6D
102
{ACAD_REACTORS
330
16
102
}
330
16
100
AcDbVisualStyle
  2
Shaded with edges
 70
26
 90
2
 40
0.6
 62
7
290
0
291
0
  0
VISUALSTYLE
  5
6E
102
{ACAD_REACTORS
330
16
102
}
330
16
100
AcDbVisualStyle
  2
Shades of Gray
 70
23
 90
2
 40
0.6
 62
7
290
0
291
0
  0
VISUALSTYLE
  5
6F
102
{ACAD_REACTORS
330
16
102
}
330
16
100
AcDbVisualStyle
  2
Sketchy
 70
24
 90
1
 40
0.6
 62
7
290
0
291
0
  0
VISUALSTYLE
  5
70
102
{ACAD_REACTORS
330
16
102
}
330
16
100
AcDbVisualStyle
  2
Thicken
 70
13
 90
2
 40
0.6
 62
7
290
0
291
1
  0
VISUALSTYLE
  5
71
102
{ACAD_REACTORS
330
16
102
}
330
16
100
AcDbVisualStyle
  2
Wireframe
 70
5
 90
0
 40
0.6
 62
7
290
0
291
0
  0
VISUALSTYLE
  5
72
102
{ACAD_REACTORS
330
16
102
}
330
16
100
AcDbVisualStyle
  2
X-Ray
 70
25
 90
2
 40
0.5
 62
7
290
0
291
0
  0
DICTIONARYVAR
  5
B3
330
2D
100
DictionaryVariables
280
0
  1
1.1.0 @ 2024-03-26T01:33:49.056057+00:00
  0
ENDSEC
  0
EOF
