  0
SECTION
  2
HEADER
  9
$ACADVER
  1
AC1021
  9
$ACADMAINTVER
 70
25
  9
$DWGCODEPAGE
  3
ANSI_1252
  9
$LASTSAVEDBY
  1
ezdxf
  9
$INSBASE
 10
0.0
 20
0.0
 30
0.0
  9
$EXTMIN
 10
1e+20
 20
1e+20
 30
1e+20
  9
$EXTMAX
 10
-1e+20
 20
-1e+20
 30
-1e+20
  9
$LIMMIN
 10
0.0
 20
0.0
  9
$LIMMAX
 10
420.0
 20
297.0
  9
$ORTHOMODE
 70
0
  9
$REGENMODE
 70
1
  9
$FILLMODE
 70
1
  9
$QTEXTMODE
 70
0
  9
$MIRRTEXT
 70
1
  9
$LTSCALE
 40
1.0
  9
$ATTMODE
 70
1
  9
$TEXTSIZE
 40
2.5
  9
$TRACEWID
 40
1.0
  9
$TEXTSTYLE
  7
OpenSans
  9
$CLAYER
  8
0
  9
$CELTYPE
  6
ByLayer
  9
$CECOLOR
 62
256
  9
$CELTSCALE
 40
1.0
  9
$DISPSILH
 70
0
  9
$DIMSCALE
 40
1.0
  9
$DIMASZ
 40
0.175
  9
$DIMEXO
 40
0.125
  9
$DIMDLI
 40
3.75
  9
$DIMRND
 40
0.0
  9
$DIMDLE
 40
0.0
  9
$DIMEXE
 40
0.375
  9
$DIMTP
 40
0.0
  9
$DIMTM
 40
0.0
  9
$DIMTXT
 40
0.25
  9
$DIMCEN
 40
2.5
  9
$DIMTSZ
 40
0.0
  9
$DIMTOL
 70
0
  9
$DIMLIM
 70
0
  9
$DIMTIH
 70
0
  9
$DIMTOH
 70
0
  9
$DIMSE1
 70
0
  9
$DIMSE2
 70
0
  9
$DIMTAD
 70
1
  9
$DIMZIN
 70
12
  9
$DIMBLK
  1
ARCHTICK
  9
$DIMASO
 70
1
  9
$DIMSHO
 70
1
  9
$DIMPOST
  1

  9
$DIMAPOST
  1

  9
$DIMALT
 70
0
  9
$DIMALTD
 70
3
  9
$DIMALTF
 40
0.03937007874
  9
$DIMLFAC
 40
100.0
  9
$DIMTOFL
 70
1
  9
$DIMTVP
 40
0.0
  9
$DIMTIX
 70
0
  9
$DIMSOXD
 70
0
  9
$DIMSAH
 70
0
  9
$DIMBLK1
  1

  9
$DIMBLK2
  1

  9
$DIMSTYLE
  2
EZDXF
  9
$DIMCLRD
 70
0
  9
$DIMCLRE
 70
0
  9
$DIMCLRT
 70
0
  9
$DIMTFAC
 40
0.5
  9
$DIMGAP
 40
0.1
  9
$DIMJUST
 70
0
  9
$DIMSD1
 70
0
  9
$DIMSD2
 70
0
  9
$DIMTOLJ
 70
0
  9
$DIMTZIN
 70
8
  9
$DIMALTZ
 70
0
  9
$DIMALTTZ
 70
0
  9
$DIMUPT
 70
1
  9
$DIMDEC
 70
2
  9
$DIMTDEC
 70
2
  9
$DIMALTU
 70
2
  9
$DIMALTTD
 70
3
  9
$DIMTXSTY
  7
OpenSansCondensed-Light
  9
$DIMAUNIT
 70
0
  9
$DIMADEC
 70
2
  9
$DIMALTRND
 40
0.0
  9
$DIMAZIN
 70
3
  9
$DIMDSEP
 70
46
  9
$DIMATFIT
 70
3
  9
$DIMFRAC
 70
0
  9
$DIMLDRBLK
  1

  9
$DIMLUNIT
 70
2
  9
$DIMLWD
 70
-2
  9
$DIMLWE
 70
-2
  9
$DIMTMOVE
 70
2
  9
$DIMFXL
 40
1.0
  9
$DIMFXLON
 70
0
  9
$DIMJOGANG
 40
0.785398163397
  9
$DIMTFILL
 70
0
  9
$DIMTFILLCLR
 70
0
  9
$DIMARCSYM
 70
0
  9
$DIMLTYPE
  6

  9
$DIMLTEX1
  6

  9
$DIMLTEX2
  6

  9
$LUNITS
 70
2
  9
$LUPREC
 70
4
  9
$SKETCHINC
 40
1.0
  9
$FILLETRAD
 40
10.0
  9
$AUNITS
 70
0
  9
$AUPREC
 70
2
  9
$MENU
  1
.
  9
$ELEVATION
 40
0.0
  9
$PELEVATION
 40
0.0
  9
$THICKNESS
 40
0.0
  9
$LIMCHECK
 70
0
  9
$CHAMFERA
 40
0.0
  9
$CHAMFERB
 40
0.0
  9
$CHAMFERC
 40
0.0
  9
$CHAMFERD
 40
0.0
  9
$SKPOLY
 70
0
  9
$TDCREATE
 40
2460396.440162037
  9
$TDUCREATE
 40
2458532.153996898
  9
$TDUPDATE
 40
2460396.440162037
  9
$TDUUPDATE
 40
2458532.1544311
  9
$TDINDWG
 40
0.0
  9
$TDUSRTIMER
 40
0.0
  9
$USRTIMER
 70
1
  9
$ANGBASE
 50
0.0
  9
$ANGDIR
 70
0
  9
$PDMODE
 70
0
  9
$PDSIZE
 40
0.0
  9
$PLINEWID
 40
0.0
  9
$SPLFRAME
 70
0
  9
$SPLINETYPE
 70
6
  9
$SPLINESEGS
 70
8
  9
$HANDSEED
  5
B4
  9
$SURFTAB1
 70
6
  9
$SURFTAB2
 70
6
  9
$SURFTYPE
 70
6
  9
$SURFU
 70
6
  9
$SURFV
 70
6
  9
$UCSBASE
  2

  9
$UCSNAME
  2

  9
$UCSORG
 10
0.0
 20
0.0
 30
0.0
  9
$UCSXDIR
 10
1.0
 20
0.0
 30
0.0
  9
$UCSYDIR
 10
0.0
 20
1.0
 30
0.0
  9
$UCSORTHOREF
  2

  9
$UCSORTHOVIEW
 70
0
  9
$UCSORGTOP
 10
0.0
 20
0.0
 30
0.0
  9
$UCSORGBOTTOM
 10
0.0
 20
0.0
 30
0.0
  9
$UCSORGLEFT
 10
0.0
 20
0.0
 30
0.0
  9
$UCSORGRIGHT
 10
0.0
 20
0.0
 30
0.0
  9
$UCSORGFRONT
 10
0.0
 20
0.0
 30
0.0
  9
$UCSORGBACK
 10
0.0
 20
0.0
 30
0.0
  9
$PUCSBASE
  2

  9
$PUCSNAME
  2

  9
$PUCSORG
 10
0.0
 20
0.0
 30
0.0
  9
$PUCSXDIR
 10
1.0
 20
0.0
 30
0.0
  9
$PUCSYDIR
 10
0.0
 20
1.0
 30
0.0
  9
$PUCSORTHOREF
  2

  9
$PUCSORTHOVIEW
 70
0
  9
$PUCSORGTOP
 10
0.0
 20
0.0
 30
0.0
  9
$PUCSORGBOTTOM
 10
0.0
 20
0.0
 30
0.0
  9
$PUCSORGLEFT
 10
0.0
 20
0.0
 30
0.0
  9
$PUCSORGRIGHT
 10
0.0
 20
0.0
 30
0.0
  9
$PUCSORGFRONT
 10
0.0
 20
0.0
 30
0.0
  9
$PUCSORGBACK
 10
0.0
 20
0.0
 30
0.0
  9
$USERI1
 70
0
  9
$USERI2
 70
0
  9
$USERI3
 70
0
  9
$USERI4
 70
0
  9
$USERI5
 70
0
  9
$USERR1
 40
0.0
  9
$USERR2
 40
0.0
  9
$USERR3
 40
0.0
  9
$USERR4
 40
0.0
  9
$USERR5
 40
0.0
  9
$WORLDVIEW
 70
1
  9
$SHADEDGE
 70
3
  9
$SHADEDIF
 70
70
  9
$TILEMODE
 70
1
  9
$MAXACTVP
 70
64
  9
$PINSBASE
 10
0.0
 20
0.0
 30
0.0
  9
$PLIMCHECK
 70
0
  9
$PEXTMIN
 10
1e+20
 20
1e+20
 30
1e+20
  9
$PEXTMAX
 10
-1e+20
 20
-1e+20
 30
-1e+20
  9
$PLIMMIN
 10
0.0
 20
0.0
  9
$PLIMMAX
 10
420.0
 20
297.0
  9
$UNITMODE
 70
0
  9
$VISRETAIN
 70
1
  9
$PLINEGEN
 70
0
  9
$PSLTSCALE
 70
1
  9
$TREEDEPTH
 70
3020
  9
$CMLSTYLE
  2
Standard
  9
$CMLJUST
 70
0
  9
$CMLSCALE
 40
20.0
  9
$PROXYGRAPHICS
 70
1
  9
$MEASUREMENT
 70
1
  9
$CELWEIGHT
370
-1
  9
$ENDCAPS
280
0
  9
$JOINSTYLE
280
0
  9
$LWDISPLAY
290
0
  9
$INSUNITS
 70
6
  9
$HYPERLINKBASE
  1

  9
$STYLESHEET
  1

  9
$XEDIT
290
1
  9
$CEPSNTYPE
380
0
  9
$PSTYLEMODE
290
1
  9
$FINGERPRINTGUID
  2
{0AEE45B4-E89A-42BB-966D-2B48504B0D46}
  9
$VERSIONGUID
  2
{56572E20-3AF0-454A-9B77-2AC01A2134D4}
  9
$EXTNAMES
290
1
  9
$PSVPSCALE
 40
0.0
  9
$OLESTARTUP
290
0
  9
$SORTENTS
280
127
  9
$INDEXCTL
280
0
  9
$HIDETEXT
280
1
  9
$XCLIPFRAME
290
0
  9
$HALOGAP
280
0
  9
$OBSCOLOR
 70
257
  9
$OBSLTYPE
280
0
  9
$INTERSECTIONDISPLAY
280
0
  9
$INTERSECTIONCOLOR
 70
257
  9
$DIMASSOC
280
2
  9
$PROJECTNAME
  1

  9
$CAMERADISPLAY
290
0
  9
$LENSLENGTH
 40
50.0
  9
$CAMERAHEIGHT
 40
0.0
  9
$STEPSPERSEC
 40
24.0
  9
$STEPSIZE
 40
100.0
  9
$3DDWFPREC
 40
2.0
  9
$PSOLWIDTH
 40
0.005
  9
$PSOLHEIGHT
 40
0.08
  9
$LOFTANG1
 40
1.570796326795
  9
$LOFTANG2
 40
1.570796326795
  9
$LOFTMAG1
 40
0.0
  9
$LOFTMAG2
 40
0.0
  9
$LOFTPARAM
 70
7
  9
$LOFTNORMALS
280
1
  9
$LATITUDE
 40
37.795
  9
$LONGITUDE
 40
-122.394
  9
$NORTHDIRECTION
 40
0.0
  9
$TIMEZONE
 70
-8000
  9
$LIGHTGLYPHDISPLAY
280
1
  9
$TILEMODELIGHTSYNCH
280
1
  9
$CMATERIAL
347
20
  9
$SOLIDHIST
280
0
  9
$SHOWHIST
280
1
  9
$DWFFRAME
280
2
  9
$DGNFRAME
280
2
  9
$REALWORLDSCALE
290
1
  9
$INTERFERECOLOR
 62
256
  9
$CSHADOW
280
0
  9
$SHADOWPLANELOCATION
 40
0.0
  0
ENDSEC
  0
SECTION
  2
CLASSES
  0
CLASS
  1
ACDBDICTIONARYWDFLT
  2
AcDbDictionaryWithDefault
  3
ObjectDBX Classes
 90
0
 91
0
280
0
281
0
  0
CLASS
  1
SUN
  2
AcDbSun
  3
SCENEOE
 90
1153
 91
0
280
0
281
0
  0
CLASS
  1
VISUALSTYLE
  2
AcDbVisualStyle
  3
ObjectDBX Classes
 90
4095
 91
0
280
0
281
0
  0
CLASS
  1
MATERIAL
  2
AcDbMaterial
  3
ObjectDBX Classes
 90
1153
 91
0
280
0
281
0
  0
CLASS
  1
SCALE
  2
AcDbScale
  3
ObjectDBX Classes
 90
1153
 91
0
280
0
281
0
  0
CLASS
  1
TABLESTYLE
  2
AcDbTableStyle
  3
ObjectDBX Classes
 90
4095
 91
0
280
0
281
0
  0
CLASS
  1
MLEADERSTYLE
  2
AcDbMLeaderStyle
  3
ACDB_MLEADERSTYLE_CLASS
 90
4095
 91
0
280
0
281
0
  0
CLASS
  1
DICTIONARYVAR
  2
AcDbDictionaryVar
  3
ObjectDBX Classes
 90
0
 91
0
280
0
281
0
  0
CLASS
  1
CELLSTYLEMAP
  2
AcDbCellStyleMap
  3
ObjectDBX Classes
 90
1152
 91
0
280
0
281
0
  0
CLASS
  1
MENTALRAYRENDERSETTINGS
  2
AcDbMentalRayRenderSettings
  3
SCENEOE
 90
1024
 91
0
280
0
281
0
  0
CLASS
  1
ACDBDETAILVIEWSTYLE
  2
AcDbDetailViewStyle
  3
ObjectDBX Classes
 90
1025
 91
0
280
0
281
0
  0
CLASS
  1
ACDBSECTIONVIEWSTYLE
  2
AcDbSectionViewStyle
  3
ObjectDBX Classes
 90
1025
 91
0
280
0
281
0
  0
CLASS
  1
RASTERVARIABLES
  2
AcDbRasterVariables
  3
ISM
 90
0
 91
0
280
0
281
0
  0
CLASS
  1
LAYOUT
  2
AcDbLayout
  3
ObjectDBX Classes
 90
0
 91
0
280
0
281
0
  0
CLASS
  1
ACDBPLACEHOLDER
  2
AcDbPlaceHolder
  3
ObjectDBX Classes
 90
0
 91
0
280
0
281
0
  0
ENDSEC
  0
SECTION
  2
TABLES
  0
TABLE
  2
VPORT
  5
8
330
0
100
AcDbSymbolTable
 70
1
  0
VPORT
  5
23
330
8
100
AcDbSymbolTableRecord
100
AcDbViewportTableRecord
  2
*Active
 70
0
 10
0.0
 20
0.0
 11
1.0
 21
1.0
 12
0.0
 22
0.0
 13
0.0
 23
0.0
 14
0.5
 24
0.5
 15
0.5
 25
0.5
 16
0.0
 26
0.0
 36
1.0
 17
0.0
 27
0.0
 37
0.0
 40
1000.0
 41
1.34
 42
50.0
 43
0.0
 44
0.0
 50
0.0
 51
0.0
 71
0
 72
1000
 73
1
 74
3
 75
0
 76
0
 77
0
 78
0
281
0
 65
0
146
0.0
  0
ENDTAB
  0
TABLE
  2
LTYPE
  5
2
330
0
100
AcDbSymbolTable
 70
21
  0
LTYPE
  5
24
330
2
100
AcDbSymbolTableRecord
100
AcDbLinetypeTableRecord
  2
ByBlock
 70
0
  3

 72
65
 73
0
 40
0.0
  0
LTYPE
  5
25
330
2
100
AcDbSymbolTableRecord
100
AcDbLinetypeTableRecord
  2
ByLayer
 70
0
  3

 72
65
 73
0
 40
0.0
  0
LTYPE
  5
26
330
2
100
AcDbSymbolTableRecord
100
AcDbLinetypeTableRecord
  2
Continuous
 70
0
  3

 72
65
 73
0
 40
0.0
  0
LTYPE
  5
2F
330
2
100
AcDbSymbolTableRecord
100
AcDbLinetypeTableRecord
  2
CENTER
 70
0
  3
Center ____ _ ____ _ ____ _ ____ _ ____ _ ____
 72
65
 73
4
 40
5.08
 49
3.175
 74
0
 49
-0.635
 74
0
 49
0.635
 74
0
 49
-0.635
 74
0
  0
LTYPE
  5
30
330
2
100
AcDbSymbolTableRecord
100
AcDbLinetypeTableRecord
  2
CENTERX2
 70
0
  3
Center (2x) ________  __  ________  __  ________
 72
65
 73
4
 40
8.89
 49
6.35
 74
0
 49
-0.635
 74
0
 49
1.27
 74
0
 49
-0.635
 74
0
  0
LTYPE
  5
31
330
2
100
AcDbSymbolTableRecord
100
AcDbLinetypeTableRecord
  2
CENTER2
 70
0
  3
Center (.5x) ____ _ ____ _ ____ _ ____ _ ____
 72
65
 73
4
 40
2.54
 49
1.587
 74
0
 49
-0.318
 74
0
 49
0.318
 74
0
 49
-0.318
 74
0
  0
LTYPE
  5
32
330
2
100
AcDbSymbolTableRecord
100
AcDbLinetypeTableRecord
  2
DASHED
 70
0
  3
Dashed __ __ __ __ __ __ __ __ __ __ __ __ __ _
 72
65
 73
2
 40
1.524
 49
1.27
 74
0
 49
-0.254
 74
0
  0
LTYPE
  5
33
330
2
100
AcDbSymbolTableRecord
100
AcDbLinetypeTableRecord
  2
DASHEDX2
 70
0
  3
Dashed (2x) ____  ____  ____  ____  ____  ____
 72
65
 73
2
 40
3.048
 49
2.54
 74
0
 49
-0.508
 74
0
  0
LTYPE
  5
34
330
2
100
AcDbSymbolTableRecord
100
AcDbLinetypeTableRecord
  2
DASHED2
 70
0
  3
Dashed (.5x) _ _ _ _ _ _ _ _ _ _ _ _ _ _
 72
65
 73
2
 40
0.762
 49
0.635
 74
0
 49
-0.127
 74
0
  0
LTYPE
  5
35
330
2
100
AcDbSymbolTableRecord
100
AcDbLinetypeTableRecord
  2
PHANTOM
 70
0
  3
Phantom ______  __  __  ______  __  __  ______
 72
65
 73
6
 40
6.35
 49
3.175
 74
0
 49
-0.635
 74
0
 49
0.635
 74
0
 49
-0.635
 74
0
 49
0.635
 74
0
 49
-0.635
 74
0
  0
LTYPE
  5
36
330
2
100
AcDbSymbolTableRecord
100
AcDbLinetypeTableRecord
  2
PHANTOMX2
 70
0
  3
Phantom (2x)____________    ____    ____    ____________
 72
65
 73
6
 40
10.795
 49
6.35
 74
0
 49
-0.635
 74
0
 49
1.27
 74
0
 49
-0.635
 74
0
 49
1.27
 74
0
 49
-0.635
 74
0
  0
LTYPE
  5
37
330
2
100
AcDbSymbolTableRecord
100
AcDbLinetypeTableRecord
  2
PHANTOM2
 70
0
  3
Phantom (.5x) ___ _ _ ___ _ _ ___ _ _ ___ _ _ ___
 72
65
 73
6
 40
3.175
 49
1.587
 74
0
 49
-0.318
 74
0
 49
0.318
 74
0
 49
-0.318
 74
0
 49
0.318
 74
0
 49
-0.318
 74
0
  0
LTYPE
  5
38
330
2
100
AcDbSymbolTableRecord
100
AcDbLinetypeTableRecord
  2
DASHDOT
 70
0
  3
Dash dot __ . __ . __ . __ . __ . __ . __ . __
 72
65
 73
4
 40
3.556
 49
2.54
 74
0
 49
-0.508
 74
0
 49
0.0
 74
0
 49
-0.508
 74
0
  0
LTYPE
  5
39
330
2
100
AcDbSymbolTableRecord
100
AcDbLinetypeTableRecord
  2
DASHDOTX2
 70
0
  3
Dash dot (2x) ____  .  ____  .  ____  .  ____
 72
65
 73
4
 40
6.096
 49
5.08
 74
0
 49
-0.508
 74
0
 49
0.0
 74
0
 49
-0.508
 74
0
  0
LTYPE
  5
3A
330
2
100
AcDbSymbolTableRecord
100
AcDbLinetypeTableRecord
  2
DASHDOT2
 70
0
  3
Dash dot (.5x) _ . _ . _ . _ . _ . _ . _ . _
 72
65
 73
4
 40
1.778
 49
1.27
 74
0
 49
-0.254
 74
0
 49
0.0
 74
0
 49
-0.254
 74
0
  0
LTYPE
  5
3B
330
2
100
AcDbSymbolTableRecord
100
AcDbLinetypeTableRecord
  2
DOT
 70
0
  3
Dot .  .  .  .  .  .  .  .  .  .  .  .  .  .  .  .
 72
65
 73
2
 40
0.508
 49
0.0
 74
0
 49
-0.508
 74
0
  0
LTYPE
  5
3C
330
2
100
AcDbSymbolTableRecord
100
AcDbLinetypeTableRecord
  2
DOTX2
 70
0
  3
Dot (2x) .    .    .    .    .    .    .    . 
 72
65
 73
2
 40
1.016
 49
0.0
 74
0
 49
-1.016
 74
0
  0
LTYPE
  5
3D
330
2
100
AcDbSymbolTableRecord
100
AcDbLinetypeTableRecord
  2
DOT2
 70
0
  3
Dot (.5) . . . . . . . . . . . . . . . . . . . 
 72
65
 73
2
 40
0.254
 49
0.0
 74
0
 49
-0.254
 74
0
  0
LTYPE
  5
3E
330
2
100
AcDbSymbolTableRecord
100
AcDbLinetypeTableRecord
  2
DIVIDE
 70
0
  3
Divide __ . . __ . . __ . . __ . . __ . . __
 72
65
 73
6
 40
4.064
 49
2.54
 74
0
 49
-0.508
 74
0
 49
0.0
 74
0
 49
-0.508
 74
0
 49
0.0
 74
0
 49
-0.508
 74
0
  0
LTYPE
  5
3F
330
2
100
AcDbSymbolTableRecord
100
AcDbLinetypeTableRecord
  2
DIVIDEX2
 70
0
  3
Divide (2x) ____  . .  ____  . .  ____  . .  ____
 72
65
 73
6
 40
6.604
 49
5.08
 74
0
 49
-0.508
 74
0
 49
0.0
 74
0
 49
-0.508
 74
0
 49
0.0
 74
0
 49
-0.508
 74
0
  0
LTYPE
  5
40
330
2
100
AcDbSymbolTableRecord
100
AcDbLinetypeTableRecord
  2
DIVIDE2
 70
0
  3
Divide(.5x) _ . _ . _ . _ . _ . _ . _ . _
 72
65
 73
6
 40
2.032
 49
1.27
 74
0
 49
-0.254
 74
0
 49
0.0
 74
0
 49
-0.254
 74
0
 49
0.0
 74
0
 49
-0.254
 74
0
  0
ENDTAB
  0
TABLE
  2
LAYER
  5
1
330
0
100
AcDbSymbolTable
 70
3
  0
LAYER
  5
27
330
1
100
AcDbSymbolTableRecord
100
AcDbLayerTableRecord
  2
0
 70
0
 62
7
  6
Continuous
370
-3
390
13
347
21
  0
LAYER
  5
28
330
1
100
AcDbSymbolTableRecord
100
AcDbLayerTableRecord
  2
Defpoints
 70
0
 62
7
  6
Continuous
290
0
370
-3
390
13
347
21
  0
LAYER
  5
8A
330
1
100
AcDbSymbolTableRecord
100
AcDbLayerTableRecord
  2
Layer
 70
0
 62
1
  6
Continuous
370
50
390
13
347
21
  0
ENDTAB
  0
TABLE
  2
STYLE
  5
5
330
0
100
AcDbSymbolTable
 70
26
  0
STYLE
  5
29
330
5
100
AcDbSymbolTableRecord
100
AcDbTextStyleTableRecord
  2
Standard
 70
0
 40
0.0
 41
1.0
 50
0.0
 71
0
 42
2.5
  3
txt
  4

  0
STYLE
  5
41
330
5
100
AcDbSymbolTableRecord
100
AcDbTextStyleTableRecord
  2
OpenSans-Light
 70
0
 40
0.0
 41
1.0
 50
0.0
 71
0
 42
2.5
  3
OpenSans-Light.ttf
  4

  0
STYLE
  5
42
330
5
100
AcDbSymbolTableRecord
100
AcDbTextStyleTableRecord
  2
OpenSans-Light-Italic
 70
0
 40
0.0
 41
1.0
 50
0.0
 71
0
 42
2.5
  3
OpenSans-LightItalic.ttf
  4

  0
STYLE
  5
43
330
5
100
AcDbSymbolTableRecord
100
AcDbTextStyleTableRecord
  2
OpenSans
 70
0
 40
0.0
 41
1.0
 50
0.0
 71
0
 42
2.5
  3
OpenSans-Regular.ttf
  4

  0
STYLE
  5
44
330
5
100
AcDbSymbolTableRecord
100
AcDbTextStyleTableRecord
  2
OpenSans-Italic
 70
0
 40
0.0
 41
1.0
 50
0.0
 71
0
 42
2.5
  3
OpenSans-Italic.ttf
  4

  0
STYLE
  5
45
330
5
100
AcDbSymbolTableRecord
100
AcDbTextStyleTableRecord
  2
OpenSans-SemiBold
 70
0
 40
0.0
 41
1.0
 50
0.0
 71
0
 42
2.5
  3
OpenSans-SemiBold.ttf
  4

  0
STYLE
  5
46
330
5
100
AcDbSymbolTableRecord
100
AcDbTextStyleTableRecord
  2
OpenSans-SemiBoldItalic
 70
0
 40
0.0
 41
1.0
 50
0.0
 71
0
 42
2.5
  3
OpenSans-SemiBoldItalic.ttf
  4

  0
STYLE
  5
47
330
5
100
AcDbSymbolTableRecord
100
AcDbTextStyleTableRecord
  2
OpenSans-Bold
 70
0
 40
0.0
 41
1.0
 50
0.0
 71
0
 42
2.5
  3
OpenSans-Bold.ttf
  4

  0
STYLE
  5
48
330
5
100
AcDbSymbolTableRecord
100
AcDbTextStyleTableRecord
  2
OpenSans-BoldItalic
 70
0
 40
0.0
 41
1.0
 50
0.0
 71
0
 42
2.5
  3
OpenSans-BoldItalic.ttf
  4

  0
STYLE
  5
49
330
5
100
AcDbSymbolTableRecord
100
AcDbTextStyleTableRecord
  2
OpenSans-ExtraBold
 70
0
 40
0.0
 41
1.0
 50
0.0
 71
0
 42
2.5
  3
OpenSans-ExtraBold.ttf
  4

  0
STYLE
  5
4A
330
5
100
AcDbSymbolTableRecord
100
AcDbTextStyleTableRecord
  2
OpenSans-ExtraBoldItalic
 70
0
 40
0.0
 41
1.0
 50
0.0
 71
0
 42
2.5
  3
OpenSans-ExtraBoldItalic.ttf
  4

  0
STYLE
  5
4B
330
5
100
AcDbSymbolTableRecord
100
AcDbTextStyleTableRecord
  2
OpenSansCondensed-Bold
 70
0
 40
0.0
 41
1.0
 50
0.0
 71
0
 42
2.5
  3
OpenSansCondensed-Bold.ttf
  4

  0
STYLE
  5
4C
330
5
100
AcDbSymbolTableRecord
100
AcDbTextStyleTableRecord
  2
OpenSansCondensed-Light
 70
0
 40
0.0
 41
1.0
 50
0.0
 71
0
 42
2.5
  3
OpenSansCondensed-Light.ttf
  4

  0
STYLE
  5
4D
330
5
100
AcDbSymbolTableRecord
100
AcDbTextStyleTableRecord
  2
OpenSansCondensed-Italic
 70
0
 40
0.0
 41
1.0
 50
0.0
 71
0
 42
2.5
  3
OpenSansCondensed-LightItalic.ttf
  4

  0
STYLE
  5
4E
330
5
100
AcDbSymbolTableRecord
100
AcDbTextStyleTableRecord
  2
LiberationSans
 70
0
 40
0.0
 41
1.0
 50
0.0
 71
0
 42
2.5
  3
LiberationSans-Regular.ttf
  4

  0
STYLE
  5
4F
330
5
100
AcDbSymbolTableRecord
100
AcDbTextStyleTableRecord
  2
LiberationSans-Bold
 70
0
 40
0.0
 41
1.0
 50
0.0
 71
0
 42
2.5
  3
LiberationSans-Bold.ttf
  4

  0
STYLE
  5
50
330
5
100
AcDbSymbolTableRecord
100
AcDbTextStyleTableRecord
  2
LiberationSans-BoldItalic
 70
0
 40
0.0
 41
1.0
 50
0.0
 71
0
 42
2.5
  3
LiberationSans-BoldItalic.ttf
  4

  0
STYLE
  5
51
330
5
100
AcDbSymbolTableRecord
100
AcDbTextStyleTableRecord
  2
LiberationSans-Italic
 70
0
 40
0.0
 41
1.0
 50
0.0
 71
0
 42
2.5
  3
LiberationSans-Italic.ttf
  4

  0
STYLE
  5
52
330
5
100
AcDbSymbolTableRecord
100
AcDbTextStyleTableRecord
  2
LiberationSerif
 70
0
 40
0.0
 41
1.0
 50
0.0
 71
0
 42
2.5
  3
LiberationSerif-Regular.ttf
  4

  0
STYLE
  5
53
330
5
100
AcDbSymbolTableRecord
100
AcDbTextStyleTableRecord
  2
LiberationSerif-Bold
 70
0
 40
0.0
 41
1.0
 50
0.0
 71
0
 42
2.5
  3
LiberationSerif-Bold.ttf
  4

  0
STYLE
  5
54
330
5
100
AcDbSymbolTableRecord
100
AcDbTextStyleTableRecord
  2
LiberationSerif-BoldItalic
 70
0
 40
0.0
 41
1.0
 50
0.0
 71
0
 42
2.5
  3
LiberationSerif-BoldItalic.ttf
  4

  0
STYLE
  5
55
330
5
100
AcDbSymbolTableRecord
100
AcDbTextStyleTableRecord
  2
LiberationSerif-Italic
 70
0
 40
0.0
 41
1.0
 50
0.0
 71
0
 42
2.5
  3
LiberationSerif-Italic.ttf
  4

  0
STYLE
  5
56
330
5
100
AcDbSymbolTableRecord
100
AcDbTextStyleTableRecord
  2
LiberationMono
 70
0
 40
0.0
 41
1.0
 50
0.0
 71
0
 42
2.5
  3
LiberationMono-Regular.ttf
  4

  0
STYLE
  5
57
330
5
100
AcDbSymbolTableRecord
100
AcDbTextStyleTableRecord
  2
LiberationMono-Bold
 70
0
 40
0.0
 41
1.0
 50
0.0
 71
0
 42
2.5
  3
LiberationMono-Bold.ttf
  4

  0
STYLE
  5
58
330
5
100
AcDbSymbolTableRecord
100
AcDbTextStyleTableRecord
  2
LiberationMono-BoldItalic
 70
0
 40
0.0
 41
1.0
 50
0.0
 71
0
 42
2.5
  3
LiberationMono-BoldItalic.ttf
  4

  0
STYLE
  5
59
330
5
100
AcDbSymbolTableRecord
100
AcDbTextStyleTableRecord
  2
LiberationMono-Italic
 70
0
 40
0.0
 41
1.0
 50
0.0
 71
0
 42
2.5
  3
LiberationMono-Italic.ttf
  4

  0
ENDTAB
  0
TABLE
  2
VIEW
  5
7
330
0
100
AcDbSymbolTable
 70
0
  0
ENDTAB
  0
TABLE
  2
UCS
  5
6
330
0
100
AcDbSymbolTable
 70
0
  0
ENDTAB
  0
TABLE
  2
APPID
  5
3
330
0
100
AcDbSymbolTable
 70
3
  0
APPID
  5
2A
330
3
100
AcDbSymbolTableRecord
100
AcDbRegAppTableRecord
  2
ACAD
 70
0
  0
APPID
  5
B1
330
3
100
AcDbSymbolTableRecord
100
AcDbRegAppTableRecord
  2
HATCHBACKGROUNDCOLOR
 70
0
  0
APPID
  5
B2
330
3
100
AcDbSymbolTableRecord
100
AcDbRegAppTableRecord
  2
EZDXF
 70
0
  0
ENDTAB
  0
TABLE
  2
DIMSTYLE
  5
4
330
0
100
AcDbSymbolTable
 70
12
100
AcDbDimStyleTable
  0
DIMSTYLE
105
2B
330
4
100
AcDbSymbolTableRecord
100
AcDbDimStyleTableRecord
  2
Standard
 70
0
 40
1.0
 41
2.5
 42
0.625
 43
3.75
 44
1.25
 45
0.0
 46
0.0
 47
0.0
 48
0.0
 49
2.5
140
2.5
141
2.5
142
0.0
143
0.03937007874
144
1.0
145
0.0
146
1.0
147
0.625
148
0.0
 69
0
 70
0
 71
0
 72
0
 73
0
 74
0
 75
0
 76
0
 77
1
 78
8
 79
3
170
0
171
3
172
1
173
0
174
0
175
0
176
0
177
0
178
0
179
2
271
2
272
2
273
2
274
3
275
0
276
0
277
2
278
44
279
0
280
0
281
0
282
0
283
0
284
8
285
0
286
0
288
0
289
3
290
0
371
-2
372
-2
  0
DIMSTYLE
105
73
330
4
100
AcDbSymbolTableRecord
100
AcDbDimStyleTableRecord
  2
EZDXF
 70
0
 40
1.0
 41
0.175
 42
0.125
 43
3.75
 44
0.375
 45
0.0
 46
0.0
 47
0.0
 48
0.0
 49
2.5
140
0.25
141
2.5
142
0.0
143
0.03937007874
144
100.0
145
0.0
146
0.5
147
0.1
148
0.0
 69
0
 70
0
 71
0
 72
0
 73
0
 74
0
 75
0
 76
0
 77
1
 78
12
 79
3
170
0
171
3
172
1
173
0
174
0
175
0
176
0
177
0
178
0
179
2
271
2
272
2
273
2
274
3
275
0
276
0
277
2
278
46
279
2
280
0
281
0
282
0
283
0
284
8
285
0
286
0
288
1
289
3
290
0
340
4C
342
74
371
-2
372
-2
  0
DIMSTYLE
105
7C
330
4
100
AcDbSymbolTableRecord
100
AcDbDimStyleTableRecord
  2
EZ_M_100_H25_CM
 70
0
 40
1.0
 41
0.25
 42
0.125
 43
3.75
 44
0.375
 45
0.0
 46
0.0
 47
0.0
 48
0.0
 49
2.5
140
0.25
141
2.5
142
0.125
143
0.03937007874
144
100.0
145
0.0
146
0.5
147
0.1
148
0.0
 69
0
 70
0
 71
0
 72
0
 73
0
 74
0
 75
0
 76
0
 77
1
 78
12
 79
3
170
0
171
3
172
1
173
0
174
0
175
0
176
0
177
0
178
0
179
2
271
2
272
2
273
2
274
3
275
0
276
0
277
2
278
46
279
2
280
0
281
0
282
0
283
0
284
8
285
0
286
0
288
1
289
3
290
0
340
4C
371
-2
372
-2
  0
DIMSTYLE
105
7D
330
4
100
AcDbSymbolTableRecord
100
AcDbDimStyleTableRecord
  2
EZ_M_50_H25_CM
 70
0
 40
1.0
 41
0.125
 42
0.0625
 43
3.75
 44
0.1875
 45
0.0
 46
0.0
 47
0.0
 48
0.0
 49
2.5
140
0.125
141
2.5
142
0.0625
143
0.03937007874
144
100.0
145
0.0
146
0.5
147
0.05
148
0.0
 69
0
 70
0
 71
0
 72
0
 73
0
 74
0
 75
0
 76
0
 77
1
 78
12
 79
3
170
0
171
3
172
1
173
0
174
0
175
0
176
0
177
0
178
0
179
2
271
2
272
2
273
2
274
3
275
0
276
0
277
2
278
46
279
2
280
0
281
0
282
0
283
0
284
8
285
0
286
0
288
1
289
3
290
0
340
4C
371
-2
372
-2
  0
DIMSTYLE
105
7E
330
4
100
AcDbSymbolTableRecord
100
AcDbDimStyleTableRecord
  2
EZ_M_25_H25_CM
 70
0
 40
1.0
 41
0.0625
 42
0.03125
 43
3.75
 44
0.09375
 45
0.0
 46
0.0
 47
0.0
 48
0.0
 49
2.5
140
0.0625
141
2.5
142
0.03125
143
0.03937007874
144
100.0
145
0.0
146
0.5
147
0.025
148
0.0
 69
0
 70
0
 71
0
 72
0
 73
0
 74
0
 75
0
 76
0
 77
1
 78
12
 79
3
170
0
171
3
172
1
173
0
174
0
175
0
176
0
177
0
178
0
179
2
271
2
272
2
273
2
274
3
275
0
276
0
277
2
278
46
279
2
280
0
281
0
282
0
283
0
284
8
285
0
286
0
288
1
289
3
290
0
340
4C
371
-2
372
-2
  0
DIMSTYLE
105
7F
330
4
100
AcDbSymbolTableRecord
100
AcDbDimStyleTableRecord
  2
EZ_M_20_H25_CM
 70
0
 40
1.0
 41
0.05
 42
0.025
 43
3.75
 44
0.07500000000000001
 45
0.0
 46
0.0
 47
0.0
 48
0.0
 49
2.5
140
0.05
141
2.5
142
0.025
143
0.03937007874
144
100.0
145
0.0
146
0.5
147
0.020000000000000004
148
0.0
 69
0
 70
0
 71
0
 72
0
 73
0
 74
0
 75
0
 76
0
 77
1
 78
12
 79
3
170
0
171
3
172
1
173
0
174
0
175
0
176
0
177
0
178
0
179
2
271
2
272
2
273
2
274
3
275
0
276
0
277
2
278
46
279
2
280
0
281
0
282
0
283
0
284
8
285
0
286
0
288
1
289
3
290
0
340
4C
371
-2
372
-2
  0
DIMSTYLE
105
80
330
4
100
AcDbSymbolTableRecord
100
AcDbDimStyleTableRecord
  2
EZ_M_10_H25_CM
 70
0
 40
1.0
 41
0.025
 42
0.0125
 43
3.75
 44
0.037500000000000006
 45
0.0
 46
0.0
 47
0.0
 48
0.0
 49
2.5
140
0.025
141
2.5
142
0.0125
143
0.03937007874
144
100.0
145
0.0
146
0.5
147
0.010000000000000002
148
0.0
 69
0
 70
0
 71
0
 72
0
 73
0
 74
0
 75
0
 76
0
 77
1
 78
12
 79
3
170
0
171
3
172
1
173
0
174
0
175
0
176
0
177
0
178
0
179
2
271
2
272
2
273
2
274
3
275
0
276
0
277
2
278
46
279
2
280
0
281
0
282
0
283
0
284
8
285
0
286
0
288
1
289
3
290
0
340
4C
371
-2
372
-2
  0
DIMSTYLE
105
81
330
4
100
AcDbSymbolTableRecord
100
AcDbDimStyleTableRecord
  2
EZ_M_5_H25_CM
 70
0
 40
1.0
 41
0.0125
 42
0.00625
 43
3.75
 44
0.018750000000000003
 45
0.0
 46
0.0
 47
0.0
 48
0.0
 49
2.5
140
0.0125
141
2.5
142
0.00625
143
0.03937007874
144
100.0
145
0.0
146
0.5
147
0.005000000000000001
148
0.0
 69
0
 70
0
 71
0
 72
0
 73
0
 74
0
 75
0
 76
0
 77
1
 78
12
 79
3
170
0
171
3
172
1
173
0
174
0
175
0
176
0
177
0
178
0
179
2
271
2
272
2
273
2
274
3
275
0
276
0
277
2
278
46
279
2
280
0
281
0
282
0
283
0
284
8
285
0
286
0
288
1
289
3
290
0
340
4C
371
-2
372
-2
  0
DIMSTYLE
105
82
330
4
100
AcDbSymbolTableRecord
100
AcDbDimStyleTableRecord
  2
EZ_M_1_H25_CM
 70
0
 40
1.0
 41
0.0025
 42
0.00125
 43
3.75
 44
0.00375
 45
0.0
 46
0.0
 47
0.0
 48
0.0
 49
2.5
140
0.0025
141
2.5
142
0.00125
143
0.03937007874
144
100.0
145
0.0
146
0.5
147
0.001
148
0.0
 69
0
 70
0
 71
0
 72
0
 73
0
 74
0
 75
0
 76
0
 77
1
 78
12
 79
3
170
0
171
3
172
1
173
0
174
0
175
0
176
0
177
0
178
0
179
2
271
2
272
2
273
2
274
3
275
0
276
0
277
2
278
46
279
2
280
0
281
0
282
0
283
0
284
8
285
0
286
0
288
1
289
3
290
0
340
4C
371
-2
372
-2
  0
DIMSTYLE
105
83
330
4
100
AcDbSymbolTableRecord
100
AcDbDimStyleTableRecord
  2
EZ_RADIUS
 70
0
 40
1.0
 41
0.25
 42
0.125
 43
3.75
 44
0.375
 45
0.0
 46
0.0
 47
0.0
 48
0.0
 49
2.5
140
0.25
141
0.0
142
0.0
143
0.03937007874
144
100.0
145
0.0
146
0.5
147
0.1
148
0.0
 69
0
 70
0
 71
0
 72
0
 73
0
 74
0
 75
0
 76
0
 77
1
 78
12
 79
3
170
0
171
3
172
0
173
0
174
0
175
0
176
0
177
0
178
0
179
2
271
2
272
2
273
2
274
3
275
0
276
0
277
2
278
46
279
1
280
0
281
0
282
0
283
0
284
8
285
0
286
0
288
1
289
3
290
0
340
4C
342
84
371
-2
372
-2
  0
DIMSTYLE
105
88
330
4
100
AcDbSymbolTableRecord
100
AcDbDimStyleTableRecord
  2
EZ_RADIUS_INSIDE
 70
0
 40
1.0
 41
0.25
 42
0.125
 43
3.75
 44
0.375
 45
0.0
 46
0.0
 47
0.0
 48
0.0
 49
2.5
140
0.25
141
0.0
142
0.0
143
0.03937007874
144
100.0
145
0.0
146
0.5
147
0.1
148
0.0
 69
0
 70
0
 71
0
 72
0
 73
0
 74
0
 75
0
 76
0
 77
0
 78
12
 79
3
170
0
171
3
172
0
173
0
174
1
175
0
176
0
177
0
178
0
179
2
271
2
272
2
273
2
274
3
275
0
276
0
277
2
278
46
279
0
280
0
281
0
282
0
283
0
284
8
285
0
286
0
288
1
289
0
290
0
340
4C
342
84
371
-2
372
-2
  0
DIMSTYLE
105
89
330
4
100
AcDbSymbolTableRecord
100
AcDbDimStyleTableRecord
  2
EZ_CURVED
 70
0
 40
1.0
 41
0.25
 42
0.125
 43
3.75
 44
0.375
 45
0.0
 46
0.0
 47
0.0
 48
0.0
 49
2.5
140
0.25
141
2.5
142
0.0
143
0.03937007874
144
100.0
145
0.0
146
0.5
147
0.1
148
0.0
 69
0
 70
0
 71
0
 72
0
 73
0
 74
0
 75
0
 76
0
 77
1
 78
12
 79
2
 90
2
170
0
171
3
172
1
173
0
174
0
175
0
176
0
177
0
178
0
179
2
271
2
272
2
273
2
274
3
275
0
276
0
277
2
278
46
279
2
280
0
281
0
282
0
283
0
284
8
285
0
286
0
288
1
289
3
290
0
340
4C
371
-2
372
-2
  0
ENDTAB
  0
TABLE
  2
BLOCK_RECORD
  5
9
330
0
100
AcDbSymbolTable
 70
5
  0
BLOCK_RECORD
  5
17
330
9
100
AcDbSymbolTableRecord
100
AcDbBlockTableRecord
  2
*Model_Space
340
1A
 70
0
280
1
281
0
  0
BLOCK_RECORD
  5
1B
330
9
100
AcDbSymbolTableRecord
100
AcDbBlockTableRecord
  2
*Paper_Space
340
1E
 70
0
280
1
281
0
  0
BLOCK_RECORD
  5
74
330
9
100
AcDbSymbolTableRecord
100
AcDbBlockTableRecord
  2
_ARCHTICK
340
0
 70
0
280
1
281
0
  0
BLOCK_RECORD
  5
78
330
9
100
AcDbSymbolTableRecord
100
AcDbBlockTableRecord
  2
_CLOSEDFILLED
340
0
 70
0
280
1
281
0
  0
BLOCK_RECORD
  5
84
330
9
100
AcDbSymbolTableRecord
100
AcDbBlockTableRecord
  2
_CLOSEDBLANK
340
0
 70
0
280
1
281
0
  0
ENDTAB
  0
ENDSEC
  0
SECTION
  2
BLOCKS
  0
BLOCK
  5
18
330
17
100
AcDbEntity
  8
0
100
AcDbBlockBegin
  2
*Model_Space
 70
0
 10
0.0
 20
0.0
 30
0.0
  3
*Model_Space
  1

  0
ENDBLK
  5
19
330
17
100
AcDbEntity
  8
0
100
AcDbBlockEnd
  0
BLOCK
  5
1C
330
1B
100
AcDbEntity
  8
0
100
AcDbBlockBegin
  2
*Paper_Space
 70
0
 10
0.0
 20
0.0
 30
0.0
  3
*Paper_Space
  1

  0
ENDBLK
  5
1D
330
1B
100
AcDbEntity
  8
0
100
AcDbBlockEnd
  0
BLOCK
  5
75
330
74
100
AcDbEntity
  8
0
100
AcDbBlockBegin
  2
_ARCHTICK
 70
0
 10
0.0
 20
0.0
 30
0.0
  3
_ARCHTICK
  1

  0
LWPOLYLINE
  5
77
330
74
100
AcDbEntity
  8
0
  6
BYBLOCK
 62
0
100
AcDbPolyline
 90
2
 70
0
 43
0.15
 10
-0.5
 20
-0.5000000000000001
 10
0.5000000000000001
 20
0.5
  0
ENDBLK
  5
76
330
74
100
AcDbEntity
  8
0
100
AcDbBlockEnd
  0
BLOCK
  5
79
330
78
100
AcDbEntity
  8
0
100
AcDbBlockBegin
  2
_CLOSEDFILLED
 70
0
 10
0.0
 20
0.0
 30
0.0
  3
_CLOSEDFILLED
  1

  0
SOLID
  5
7B
330
78
100
AcDbEntity
  8
0
  6
BYBLOCK
 62
0
100
AcDbTrace
 10
-1.0
 20
0.1643989837240255
 30
0.0
 11
0.0
 21
0.0
 31
0.0
 12
-1.0
 22
-0.1643989837240255
 32
0.0
 13
-1.0
 23
-0.1643989837240255
 33
0.0
  0
ENDBLK
  5
7A
330
78
100
AcDbEntity
  8
0
100
AcDbBlockEnd
  0
BLOCK
  5
85
330
84
100
AcDbEntity
  8
0
100
AcDbBlockBegin
  2
_CLOSEDBLANK
 70
0
 10
0.0
 20
0.0
 30
0.0
  3
_CLOSEDBLANK
  1

  0
LWPOLYLINE
  5
87
330
84
100
AcDbEntity
  8
0
  6
BYBLOCK
 62
0
100
AcDbPolyline
 90
3
 70
1
 10
-1.0
 20
0.1643989837240255
 10
0.0
 20
0.0
 10
-1.0
 20
-0.1643989837240255
  0
ENDBLK
  5
86
330
84
100
AcDbEntity
  8
0
100
AcDbBlockEnd
  0
ENDSEC
  0
SECTION
  2
ENTITIES
  0
LWPOLYLINE
  5
8B
330
17
100
AcDbEntity
  8
Layer
100
AcDbPolyline
 90
214
 70
1
 10
395.25959179851304
 20
97.93363469658719
 10
395.25959179851304
 20
97.93363469658719
 10
394.22484733500414
 20
98.19431825630473
 10
389.3756249719265
 20
99.43019713850941
 10
384.53607361236834
 20
100.67509745605322
 10
379.6985972097649
 20
101.9105769257433
 10
374.86156568113347
 20
103.12714022538262
 10
370.01963852831534
 20
104.31237417907764
 10
365.1652009353875
 20
105.46371788195131
 10
360.301983560841
 20
106.59990619873147
 10
355.44335056574437
 20
107.74069866078368
 10
350.5939678789804
 20
108.8809051197659
 10
345.7443942418245
 20
110.00039016879516
 10
340.8942666429919
 20
111.09210798051691
 10
336.03281121806447
 20
112.14806842393205
 10
331.1681138104971
 20
113.18760219937964
 10
326.3044299619462
 20
114.2181023466512
 10
321.4452110208011
 20
115.24056578033624
 10
316.5915751518358
 20
116.2466299265426
 10
311.7363873287882
 20
117.22095239340501
 10
306.8772633816079
 20
118.16085646276866
 10
302.0126072288867
 20
119.07247834705761
 10
297.1473872609225
 20
119.97131083343825
 10
292.2890833066996
 20
120.86563042196313
 10
287.4374123510768
 20
121.74575284674101
 10
282.5879967826912
 20
122.59908679064486
 10
277.7378264424516
 20
123.42105750636307
 10
272.8856043153968
 20
124.21606247935297
 10
268.0360809664905
 20
124.99532410204405
 10
263.1911907309162
 20
125.76144811242034
 10
258.3531063034324
 20
126.51297667277736
 10
253.5227839009808
 20
127.24272482614808
 10
248.6966327867574
 20
127.9412861932664
 10
243.87322767208695
 20
128.60955820892033
 10
239.05522693908026
 20
129.25672279154395
 10
234.2437822214584
 20
129.88664232612854
 10
229.4421268665549
 20
130.4995470469598
 10
224.65247154582406
 20
131.08847360346314
 10
219.87949747308056
 20
131.64876446487983
 10
215.12793851138179
 20
132.17945472158968
 10
210.39852171626953
 20
132.68077452721724
 10
205.6898808316711
 20
133.1552779345662
 10
200.9990682774044
 20
133.6033372057579
 10
196.325717158559
 20
134.02511016851273
 10
191.6658324200346
 20
134.41380676863895
 10
187.01551172934035
 20
134.76744618940822
 10
182.37569629735412
 20
135.0922183413784
 10
177.7480470436862
 20
135.39122461095036
 10
173.13417173803387
 20
135.6639526783801
 10
168.5336794938436
 20
135.90626682570715
 10
163.94704358463852
 20
136.1160894070094
 10
159.37381985869
 20
136.29127230933852
 10
154.81405487693996
 20
136.43198201169136
 10
150.26936063255317
 20
136.54096824324043
 10
145.74264901796442
 20
136.61925803800182
 10
141.23242632751413
 20
136.66146993599426
 10
136.73882075905044
 20
136.67062747681524
 10
132.27066122595193
 20
136.65229449389713
 10
127.8187146998872
 20
136.59116535139006
 10
123.39589767389334
 20
136.50563723630904
 10
119.00065798345675
 20
136.377197966691
 10
114.62635408121601
 20
136.20107909139935
 10
110.28262700484522
 20
135.99908230050704
 10
105.9758414763602
 20
135.7697498011029
 10
101.709589854688
 20
135.5016655076896
 10
97.48611877458045
 20
135.18520519370287
 10
93.30395440236275
 20
134.81683012718693
 10
89.16485574519254
 20
134.4106958169745
 10
85.0807307770866
 20
133.98760598125148
 10
81.06835098012121
 20
133.54587493838403
 10
77.12832499414726
 20
133.0555116197837
 10
73.26821504825654
 20
132.51374415779566
 10
69.49010350385296
 20
131.9204946537956
 10
65.80187167872873
 20
131.2928533520769
 10
62.211758906474046
 20
130.64694672631586
 10
58.73108282714867
 20
129.99526647759117
 10
55.378034592436904
 20
129.33935359229963
 10
52.1551431733659
 20
128.6556073043061
 10
49.068879159562044
 20
127.94516839152759
 10
46.12037544835175
 20
127.2101648124526
 10
43.31088746056369
 20
126.46171651071164
 10
40.640807138433416
 20
125.71041522334916
 10
38.108989135006766
 20
124.96385430564514
 10
35.71511839827062
 20
124.22837521198063
 10
33.45466307988906
 20
123.50482998067818
 10
31.326580147072264
 20
122.79690191324899
 10
29.330104316048846
 20
122.10096452618096
 10
27.456170023915206
 20
121.4069229489224
 10
25.69282669375616
 20
120.7123358770205
 10
24.03414643426447
 20
120.02451711194283
 10
22.474730872513987
 20
119.346702741608
 10
21.00726646597056
 20
118.67806928113339
 10
19.624284691179184
 20
118.01881701962319
 10
18.318839312983897
 20
117.37019769202035
 10
17.084794810652312
 20
116.73368680198698
 10
15.919612140869532
 20
116.11199747348546
 10
14.817080427567447
 20
115.50169175572142
 10
13.782296402486196
 20
114.90825019000326
 10
12.801390714093117
 20
114.31796949587283
 10
11.877093241631911
 20
113.73732443142282
 10
10.996410356678041
 20
113.15601217206297
 10
10.169361374655324
 20
112.58867292553074
 10
9.383671135450726
 20
112.02222730176004
 10
8.653789590787
 20
111.47364351827373
 10
7.949499637912567
 20
110.90862569942408
 10
7.2907515084444015
 20
110.35829816692171
 10
6.670244073789775
 20
109.81084191890558
 10
6.084776633115865
 20
109.2638964037388
 10
5.53376052551576
 20
108.71969864241366
 10
5.018306270197911
 20
108.18101473490171
 10
4.534572922697038
 20
107.64191661784542
 10
4.084092646259876
 20
107.10717448868621
 10
3.6643962366889866
 20
106.57552151180523
 10
3.2720270128721154
 20
106.04402790474718
 10
2.9051065190193412
 20
105.51238134172823
 10
2.562517197281693
 20
104.9808081609939
 10
2.253132523206517
 20
104.46723018646105
 10
1.9840896014119664
 20
103.97653677854814
 10
1.7609082815033616
 20
103.50429783031342
 10
1.5750475218071358
 20
103.01293754049298
 10
1.4196615033746127
 20
102.49417768925014
 10
1.2876790308294233
 20
101.96232618177888
 10
1.1692838818071039
 20
101.4087426372437
 10
1.0822970245352224
 20
100.9686963298992
 10
1.0227234967659058
 20
100.45387894655057
 10
1.0418450077714283
 20
100.04371065455013
 10
1.0582744125258614
 20
99.51284021836048
 10
1.085864542887066
 20
99.00086374337118
 10
1.1368091536056966
 20
98.50559955761173
 10
1.2183020256942427
 20
98.01855220849943
 10
1.3371566830344648
 20
97.53640407450457
 10
1.50442812266607
 20
97.0437454287167
 10
1.7085951020794425
 20
96.56176233224062
 10
1.9726252398834276
 20
96.06688645442617
 10
2.277683396539828
 20
95.56768683567216
 10
2.6232585932573613
 20
95.06402789661567
 10
2.9989933787373957
 20
94.56294486410391
 10
3.4005675519647696
 20
94.07004049949983
 10
3.8398673461206556
 20
93.57981422908718
 10
4.316780511880381
 20
93.0924149762894
 10
4.829756950482107
 20
92.6086624987305
 10
5.372189615581618
 20
92.13360050811288
 10
5.95885443442171
 20
91.6618245300918
 10
6.585556427917339
 20
91.19232526966081
 10
7.250214365371818
 20
90.72515968905499
 10
7.953791137761556
 20
90.25951820777618
 10
8.699402620238061
 20
89.79342154117708
 10
9.486735775425217
 20
89.32567010697272
 10
10.314149123484185
 20
88.85680739258052
 10
11.183382166209867
 20
88.3881495802603
 10
12.100970190948601
 20
87.91969132466065
 10
13.070523409266144
 20
87.45081494608897
 10
14.097204516370255
 20
86.97997488724334
 10
15.182815383125671
 20
86.5054191822864
 10
16.329439366880905
 20
86.02596802079853
 10
17.541197586133705
 20
85.54093567894151
 10
18.822438850832327
 20
85.0502789616238
 10
20.178213612496194
 20
84.55478996166023
 10
21.61494229765924
 20
84.05582562548928
 10
23.140347948815673
 20
83.55494947756603
 10
24.764644280461
 20
83.05288617743327
 10
26.502091937151306
 20
82.54621970939343
 10
28.351914330437836
 20
82.02578996556579
 10
30.30956192336768
 20
81.49049177096884
 10
32.39475172439498
 20
80.95022989913917
 10
34.61876559208173
 20
80.40587387633244
 10
36.98393834055338
 20
79.8561937662904
 10
39.49891456253894
 20
79.30644781831444
 10
42.17192169136766
 20
78.76141043677087
 10
45.01053584338513
 20
78.22285988938674
 10
48.025041234822254
 20
77.68429432970046
 10
51.19297299944523
 20
77.12318490456492
 10
54.50915864773768
 20
76.55156333543319
 10
57.978128319959666
 20
75.99096722696304
 10
61.598434178541964
 20
75.45089509743414
 10
65.36064639145215
 20
74.93094096854365
 10
69.2531128478517
 20
74.43053741421657
 10
73.27800189413074
 20
73.95072779781596
 10
77.40387191101419
 20
73.45940230052395
 10
81.615713834448
 20
72.96818413700531
 10
85.91391518073787
 20
72.50389180210362
 10
90.29339775256956
 20
72.07296968057932
 10
94.74493135816876
 20
71.67169993397212
 10
99.2651943061763
 20
71.29647429345022
 10
103.05321600814821
 20
70.99380239426931
 10
102.93374322901231
 20
69.49856787920301
 10
103.72549325325646
 20
69.4353051784139
 10
108.35312885588874
 20
69.06211263538779
 10
113.02586611329491
 20
68.7077985929203
 10
117.74004654594641
 20
68.37949435113092
 10
122.49189838973302
 20
68.07837015972076
 10
127.27744931269099
 20
67.79330251582532
 10
132.0932476053892
 20
67.51159841558614
 10
136.93673502534327
 20
67.23074842262923
 10
141.80614763423392
 20
66.95632082448428
 10
146.70027415272574
 20
66.70007737263055
 10
151.61756948287993
 20
66.46403128396454
 10
156.55611897423913
 20
66.24287977054392
 10
161.51448043680415
 20
66.03567042113637
 10
166.49071860991367
 20
65.83461915963863
 10
171.4833408992038
 20
65.63661138711811
 10
176.49093006637992
 20
65.44396804237826
 10
181.51255755461548
 20
65.25992564424078
 10
186.54703744184874
 20
65.08488673589385
 10
191.5923765727377
 20
64.91904799695307
 10
196.64554429203318
 20
64.76067363731228
 10
201.70294166083468
 20
64.61113273319184
 10
206.75975726822108
 20
64.47182904512252
 10
211.81082641945594
 20
64.33853955508242
 10
216.85331184701013
 20
64.20708456466768
 10
221.88915849645784
 20
64.0780632489887
 10
226.9248757357006
 20
63.95676372553871
 10
234.5840852488977
 20
63.803571151507704
 10
395.25959179851304
 20
97.93363469658719
  0
LWPOLYLINE
  5
8C
330
17
100
AcDbEntity
  8
Layer
100
AcDbPolyline
 90
5
 70
0
 10
344.4548557196755
 20
106.19056989597053
 10
340.55248490976487
 20
107.0689217969518
 10
341.4308368107462
 20
110.97129260686242
 10
345.3332076206568
 20
110.09294070588115
 10
344.4548557196755
 20
106.19056989597053
  0
LWPOLYLINE
  5
8D
330
17
100
AcDbEntity
  8
Layer
100
AcDbPolyline
 90
5
 70
0
 10
136.3242875913288
 20
132.668886267265
 10
132.32432151575978
 20
132.65241221807582
 10
132.3078474665706
 20
136.65237829364486
 10
136.30781354213963
 20
136.66885234283404
 10
136.3242875913288
 20
132.668886267265
  0
LWPOLYLINE
  5
8E
330
17
100
AcDbEntity
  8
Layer
100
AcDbPolyline
 90
5
 70
0
 10
57.62400652392557
 20
125.7269160374201
 10
53.71115129543804
 20
124.89651615730341
 10
52.880751415321356
 20
128.8093713857909
 10
56.793606643808886
 20
129.63977126590763
 10
57.62400652392557
 20
125.7269160374201
  0
LWPOLYLINE
  5
8F
330
17
100
AcDbEntity
  8
Layer
100
AcDbPolyline
 90
5
 70
0
 10
15.442855356000722
 20
110.07259463212844
 10
13.749667215908934
 20
109.00811639268318
 10
11.08847161729575
 20
113.24108674291264
 10
12.781659757387539
 20
114.30556498235791
 10
15.442855356000722
 20
110.07259463212844
  0
LWPOLYLINE
  5
90
330
17
100
AcDbEntity
  8
Layer
100
AcDbPolyline
 90
5
 70
0
 10
25.426039415307734
 20
88.06824489262812
 10
27.346086730033747
 20
87.50840714004846
 10
25.946492348584634
 20
82.70828885323343
 10
24.02644503385862
 20
83.26812660581308
 10
25.426039415307734
 20
88.06824489262812
  0
LWPOLYLINE
  5
91
330
17
100
AcDbEntity
  8
Layer
100
AcDbPolyline
 90
5
 70
0
 10
75.36871835858766
 20
77.73002067266293
 10
79.34065495238049
 20
77.25703050903437
 10
78.86766478875192
 20
73.28509391524153
 10
74.89572819495909
 20
73.7580840788701
 10
75.36871835858766
 20
77.73002067266293
  0
LWPOLYLINE
  5
92
330
17
100
AcDbEntity
  8
Layer
100
AcDbPolyline
 90
300
 70
1
 10
226.11662499999954
 20
100.0
 10
226.11032410089533
 20
100.61201915779354
 10
226.09142418588235
 20
101.22376806515604
 10
226.05993360063098
 20
101.83497659099145
 10
226.01586625049725
 20
102.44537484282095
 10
225.9592415943824
 20
103.05469328596
 10
225.8900846361405
 20
103.66266286253709
 10
225.80842591353746
 20
104.26901511030225
 10
225.71430148476642
 20
104.87348228117239
 10
225.60775291252543
 20
105.47579745946128
 10
225.48882724566445
 20
106.07569467974206
 10
225.35757699841017
 20
106.67290904429005
 10
225.21406012717685
 20
107.26717684005415
 10
225.0583400049747
 20
107.85823565510505
 10
224.890485393426
 20
108.44582449450903
 10
224.71057041240186
 20
109.02968389557589
 10
224.51867450729316
 20
109.60955604243043
 10
224.31488241392944
 20
110.18518487985669
 10
224.09928412116216
 20
110.75631622636466
 10
223.87197483112809
 20
111.32269788642974
 10
223.63305491721067
 20
111.8840797618551
 10
223.38262987971802
 20
112.44021396220815
 10
223.12081029929698
 20
112.9908549142818
 10
222.84771178810368
 20
113.5357594705328
 10
222.56345493875267
 20
114.07468701644878
 10
222.26816527106644
 20
114.60739957679692
 10
221.9619731766495
 20
115.13366192070701
 10
221.64501386131113
 20
115.65324166554291
 10
221.31742728536216
 20
116.16590937951604
 10
220.9793581018126
 20
116.6714386829961
 10
220.6309555924969
 20
117.16960634847389
 10
220.2723736021552
 20
117.66019239913236
 10
219.90377047049998
 20
118.14298020598207
 10
219.52530896229754
 20
118.61775658351854
 10
219.1371561954958
 20
119.084311883859
 10
218.73948356742966
 20
119.54244008931684
 10
218.33246667913667
 20
119.99193890337338
 10
217.91628525781675
 20
120.43260984000625
 10
217.49112307746955
 20
120.8642583113352
 10
217.05716787774512
 20
121.28669371354673
 10
216.61461128104332
 20
121.69972951105923
 10
216.16364870789877
 20
122.10318331889198
 10
215.70447929068865
 20
122.4968769832011
 10
215.23730578570147
 20
122.88063665994738
 10
214.76233448360554
 20
123.25429289166084
 10
214.27977511835692
 20
123.6176806822684
 10
213.78984077458665
 20
123.97063956995152
 10
213.29274779350877
 20
124.3130136980016
 10
212.78871567738994
 20
124.64465188364191
 10
212.2779669926236
 20
124.96540768478567
 10
211.76072727145075
 20
125.27513946470076
 10
211.23722491237137
 20
125.57371045455244
 10
210.70769107929007
 20
125.86098881379672
 10
210.17235959944048
 20
126.13684768839738
 10
209.631466860134
 20
126.40116526684113
 10
209.08525170437747
 20
126.6538248339262
 10
208.53395532540716
 20
126.89471482230039
 10
207.97782116018433
 20
127.12372886172618
 10
207.41709478190057
 20
127.34076582605076
 10
206.85202379153944
 20
127.54572987786052
 10
206.28285770854288
 20
127.73853051080019
 10
205.70984786063042
 20
127.91908258953777
 10
205.13324727282006
 20
128.08730638735807
 10
204.5533105556994
 20
128.24312762136768
 10
203.97029379299684
 20
128.38647748529615
 10
203.38445442850218
 20
128.51729267987912
 10
202.79605115238675
 20
128.63551544080917
 10
202.20534378697303
 20
128.74109356424324
 10
201.6125931720045
 20
128.83398042985414
 10
201.01806104946613
 20
128.9141350214169
 10
200.4220099480065
 20
128.98152194492033
 10
199.82470306701242
 20
129.03611144419602
 10
199.2264041603877
 20
129.07787941405786
 10
198.62737742008673
 20
129.10680741094615
 10
198.0278873594547
 20
129.12288266107186
 10
197.42819869642605
 20
129.12609806605704
 10
196.82857623663247
 20
129.11645220606937
 10
196.22928475647214
 20
129.0939493404491
 10
195.63058888619196
 20
129.05859940582818
 10
195.03275299303422
 20
129.0104180117426
 10
194.43604106449965
 20
128.94942643373963
 10
193.8407165917777
 20
128.87565160398316
 10
193.2470424533965
 20
128.78912609936114
 10
192.6552807991429
 20
128.68988812710063
 10
192.06569293430468
 20
128.57798150789648
 10
191.4785392042854
 20
128.45345565656146
 10
190.89407887964313
 20
128.316365560206
 10
190.31257004160406
 20
128.16677175395736
 10
189.73426946810088
 20
128.00474029422915
 10
189.15943252038704
 20
127.83034272955265
 10
188.58831303027634
 20
127.64365606898289
 10
188.02116318805793
 20
127.44476274809375
 10
187.45823343113622
 20
127.23375059257667
 10
186.89977233344476
 20
127.01071277945927
 10
186.3460264956829
 20
126.77574779596105
 10
185.79724043642412
 20
126.52895939600421
 10
185.25365648414316
 20
126.27045655439879
 10
184.71551467021087
 20
126.00035341872248
 10
184.18305262290292
 20
125.71876925891628
 10
183.65650546247002
 20
125.42582841461825
 10
183.13610569731534
 20
125.12166024025862
 10
182.62208312132526
 20
124.80639904794047
 10
182.11466471239908
 20
124.4801840481314
 10
181.61407453222168
 20
124.143159288192
 10
181.1205336273245
 20
123.79547358876859
 10
180.6342599314774
 20
123.43728047807829
 10
180.15546816945528
 20
123.06873812411527
 10
179.6843697622217
 20
122.69000926480811
 10
179.2211727335714
 20
122.30126113615944
 10
178.7660816182726
 20
121.90266539839918
 10
178.3192973717506
 20
121.49439806018418
 10
177.88101728135106
 20
121.07663940087781
 10
177.45143487922388
 20
120.64957389094363
 10
177.03073985686456
 20
120.21339011048842
 10
176.61911798135196
 20
119.76828066599059
 10
176.21675101331869
 20
119.31444210525048
 10
175.8238166266907
 20
118.85207483060042
 10
175.44048833023157
 20
118.38138301041273
 10
175.06693539092592
 20
117.90257448894471
 10
174.70332275923576
 20
117.4158606945604
 10
174.3498109962632
 20
116.92145654636985
 10
174.0065562028509
 20
116.41958035932689
 10
173.67370995065272
 20
115.9104537478273
 10
173.35141921520358
 20
115.39430152785022
 10
173.03982631101937
 20
114.87135161768572
 10
172.73906882875494
 20
114.34183493729249
 10
172.44927957444776
 20
113.80598530633009
 10
172.1705865108746
 20
113.26403934091074
 10
171.90311270104687
 20
112.7162363491164
 10
171.64697625386924
 20
112.16281822532696
 10
171.4022902719863
 20
111.60402934340652
 10
171.1691628018394
 20
111.04011644879479
 10
170.9476967859566
 20
110.47132854955126
 10
170.73799001749592
 20
109.89791680640015
 10
170.54013509706292
 20
109.32013442182507
 10
170.35421939182055
 20
108.73823652826181
 10
170.18032499691054
 20
108.15248007543906
 10
170.01852869920234
 20
107.56312371691668
 10
169.86890194338628
 20
106.97042769587154
 10
169.73151080042555
 20
106.37465373018144
 10
169.60641593838116
 20
105.77606489685793
 10
169.49367259562263
 20
105.17492551587883
 10
169.39333055643627
 20
104.571501033472
 10
169.30543412904183
 20
103.96605790490182
 10
169.23002212602728
 20
103.35886347680992
 10
169.16712784721022
 20
102.75018586916251
 10
169.1167790649336
 20
102.14029385685618
 10
169.07899801180233
 20
101.5294567510344
 10
169.05380137086587
 20
100.91794428016732
 10
169.04120026825154
 20
100.3060264709473
 10
169.04120026825154
 20
99.69397352905271
 10
169.05380137086587
 20
99.0820557198327
 10
169.07899801180233
 20
98.47054324896561
 10
169.1167790649336
 20
97.85970614314382
 10
169.16712784721022
 20
97.24981413083749
 10
169.23002212602728
 20
96.6411365231901
 10
169.30543412904183
 20
96.03394209509818
 10
169.39333055643627
 20
95.428498966528
 10
169.49367259562263
 20
94.82507448412117
 10
169.60641593838116
 20
94.22393510314207
 10
169.73151080042555
 20
93.62534626981855
 10
169.86890194338628
 20
93.02957230412846
 10
170.01852869920234
 20
92.43687628308334
 10
170.18032499691054
 20
91.84751992456094
 10
170.35421939182055
 20
91.2617634717382
 10
170.54013509706292
 20
90.67986557817494
 10
170.73799001749592
 20
90.10208319359985
 10
170.94769678595657
 20
89.52867145044875
 10
171.1691628018394
 20
88.9598835512052
 10
171.4022902719863
 20
88.39597065659348
 10
171.64697625386924
 20
87.83718177467304
 10
171.90311270104687
 20
87.2837636508836
 10
172.1705865108746
 20
86.73596065908927
 10
172.44927957444776
 20
86.19401469366993
 10
172.73906882875494
 20
85.65816506270751
 10
173.03982631101937
 20
85.12864838231428
 10
173.35141921520358
 20
84.60569847214977
 10
173.67370995065272
 20
84.08954625217271
 10
174.0065562028509
 20
83.58041964067311
 10
174.34981099626316
 20
83.07854345363015
 10
174.70332275923576
 20
82.5841393054396
 10
175.06693539092592
 20
82.09742551105529
 10
175.44048833023157
 20
81.61861698958727
 10
175.8238166266907
 20
81.14792516939958
 10
176.21675101331869
 20
80.68555789474952
 10
176.61911798135196
 20
80.23171933400941
 10
177.03073985686456
 20
79.78660988951158
 10
177.45143487922388
 20
79.35042610905639
 10
177.88101728135106
 20
78.92336059912219
 10
178.3192973717506
 20
78.50560193981582
 10
178.7660816182726
 20
78.09733460160082
 10
179.2211727335714
 20
77.69873886384056
 10
179.6843697622217
 20
77.30999073519189
 10
180.15546816945528
 20
76.93126187588474
 10
180.6342599314774
 20
76.56271952192171
 10
181.1205336273245
 20
76.20452641123143
 10
181.61407453222168
 20
75.85684071180802
 10
182.11466471239905
 20
75.5198159518686
 10
182.62208312132526
 20
75.19360095205953
 10
183.13610569731534
 20
74.87833975974138
 10
183.65650546247005
 20
74.57417158538175
 10
184.18305262290292
 20
74.28123074108372
 10
184.71551467021087
 20
73.99964658127752
 10
185.25365648414316
 20
73.72954344560121
 10
185.79724043642412
 20
73.47104060399579
 10
186.3460264956829
 20
73.22425220403895
 10
186.89977233344473
 20
72.98928722054073
 10
187.45823343113622
 20
72.76624940742333
 10
188.02116318805793
 20
72.55523725190625
 10
188.58831303027634
 20
72.35634393101711
 10
189.15943252038704
 20
72.16965727044735
 10
189.73426946810088
 20
71.99525970577085
 10
190.31257004160406
 20
71.83322824604264
 10
190.89407887964313
 20
71.683634439794
 10
191.4785392042854
 20
71.54654434343853
 10
192.0656929343047
 20
71.42201849210352
 10
192.6552807991429
 20
71.31011187289938
 10
193.2470424533965
 20
71.21087390063886
 10
193.8407165917777
 20
71.12434839601684
 10
194.43604106449962
 20
71.05057356626035
 10
195.03275299303422
 20
70.9895819882574
 10
195.63058888619193
 20
70.94140059417182
 10
196.22928475647214
 20
70.90605065955091
 10
196.82857623663247
 20
70.88354779393063
 10
197.42819869642605
 20
70.87390193394297
 10
198.0278873594547
 20
70.87711733892814
 10
198.62737742008673
 20
70.89319258905385
 10
199.2264041603877
 20
70.92212058594215
 10
199.82470306701242
 20
70.96388855580398
 10
200.4220099480065
 20
71.01847805507967
 10
201.01806104946613
 20
71.0858649785831
 10
201.6125931720045
 20
71.16601957014586
 10
202.20534378697303
 20
71.25890643575676
 10
202.79605115238675
 20
71.36448455919083
 10
203.38445442850215
 20
71.48270732012088
 10
203.9702937929968
 20
71.61352251470383
 10
204.5533105556994
 20
71.75687237863232
 10
205.13324727282006
 20
71.91269361264192
 10
205.70984786063042
 20
72.08091741046222
 10
206.28285770854285
 20
72.26146948919981
 10
206.85202379153944
 20
72.45427012213948
 10
207.41709478190057
 20
72.65923417394924
 10
207.97782116018433
 20
72.87627113827382
 10
208.53395532540716
 20
73.10528517769961
 10
209.08525170437747
 20
73.3461751660738
 10
209.631466860134
 20
73.59883473315887
 10
210.1723595994405
 20
73.86315231160262
 10
210.70769107929007
 20
74.13901118620328
 10
211.23722491237137
 20
74.42628954544757
 10
211.76072727145075
 20
74.72486053529923
 10
212.2779669926236
 20
75.03459231521431
 10
212.78871567738994
 20
75.35534811635807
 10
213.29274779350877
 20
75.68698630199839
 10
213.78984077458665
 20
76.02936043004847
 10
214.2797751183569
 20
76.3823193177316
 10
214.76233448360554
 20
76.74570710833916
 10
215.23730578570147
 20
77.11936334005262
 10
215.70447929068865
 20
77.5031230167989
 10
216.16364870789877
 20
77.89681668110802
 10
216.61461128104332
 20
78.30027048894077
 10
217.05716787774512
 20
78.71330628645327
 10
217.49112307746955
 20
79.1357416886648
 10
217.91628525781675
 20
79.56739015999376
 10
218.33246667913667
 20
80.00806109662662
 10
218.73948356742963
 20
80.45755991068314
 10
219.1371561954958
 20
80.91568811614098
 10
219.52530896229754
 20
81.38224341648144
 10
219.90377047049998
 20
81.85701979401793
 10
220.2723736021552
 20
82.33980760086764
 10
220.6309555924969
 20
82.8303936515261
 10
220.9793581018126
 20
83.3285613170039
 10
221.31742728536216
 20
83.83409062048396
 10
221.64501386131113
 20
84.34675833445709
 10
221.9619731766495
 20
84.86633807929299
 10
222.26816527106644
 20
85.39260042320309
 10
222.56345493875267
 20
85.92531298355122
 10
222.84771178810368
 20
86.46424052946722
 10
223.12081029929698
 20
87.0091450857182
 10
223.38262987971802
 20
87.55978603779185
 10
223.63305491721067
 20
88.11592023814488
 10
223.87197483112809
 20
88.67730211357025
 10
224.09928412116216
 20
89.24368377363533
 10
224.31488241392944
 20
89.8148151201433
 10
224.51867450729316
 20
90.39044395756956
 10
224.71057041240186
 20
90.97031610442411
 10
224.890485393426
 20
91.55417550549097
 10
225.0583400049747
 20
92.14176434489495
 10
225.21406012717685
 20
92.73282315994585
 10
225.35757699841017
 20
93.32709095570995
 10
225.48882724566445
 20
93.92430532025794
 10
225.60775291252543
 20
94.52420254053874
 10
225.71430148476642
 20
95.12651771882763
 10
225.80842591353746
 20
95.73098488969775
 10
225.8900846361405
 20
96.33733713746292
 10
225.9592415943824
 20
96.94530671403999
 10
226.01586625049725
 20
97.55462515717903
 10
226.05993360063098
 20
98.16502340900855
 10
226.09142418588235
 20
98.77623193484395
 10
226.11032410089533
 20
99.38798084220646
 10
226.11662499999954
 20
99.99999999999999
  0
LINE
  5
93
330
17
100
AcDbEntity
  8
Layer
100
AcDbLine
 10
385.1605157184824
 20
99.99999999999997
 30
0.0
 11
389.1605157184824
 21
99.99999999999997
 31
0.0
  0
LINE
  5
94
330
17
100
AcDbEntity
  8
Layer
100
AcDbLine
 10
3.0431977672899677
 20
100.00000000000003
 30
0.0
 11
-0.9568022327100323
 21
100.00000000000003
 31
0.0
  0
LINE
  5
95
330
17
100
AcDbEntity
  8
Layer
100
AcDbLine
 10
83.76666135752845
 20
100.00000000000001
 30
0.0
 11
72.76666135752845
 21
100.00000000000001
 31
0.0
  0
LWPOLYLINE
  5
96
330
17
100
AcDbEntity
  8
Layer
100
AcDbPolyline
 90
5
 70
0
 10
73.26666135752845
 20
95.00000000000001
 10
73.26666135752845
 20
105.00000000000001
 10
83.26666135752845
 20
105.00000000000001
 10
83.26666135752845
 20
95.00000000000001
 10
73.26666135752845
 20
95.00000000000001
  0
LINE
  5
97
330
17
100
AcDbEntity
  8
Layer
100
AcDbLine
 10
199.60185674288618
 20
100.0
 30
0.0
 11
188.60185674288618
 21
100.0
 31
0.0
  0
LWPOLYLINE
  5
98
330
17
100
AcDbEntity
  8
Layer
100
AcDbPolyline
 90
5
 70
0
 10
189.10185674288618
 20
95.0
 10
189.10185674288618
 20
105.0
 10
199.10185674288618
 20
105.0
 10
199.10185674288618
 20
95.0
 10
189.10185674288618
 20
95.0
  0
LINE
  5
99
330
17
100
AcDbEntity
  8
Layer
100
AcDbLine
 10
315.4370521282439
 20
99.99999999999999
 30
0.0
 11
304.4370521282439
 21
99.99999999999999
 31
0.0
  0
LWPOLYLINE
  5
9A
330
17
100
AcDbEntity
  8
Layer
100
AcDbPolyline
 90
5
 70
0
 10
304.9370521282439
 20
94.99999999999999
 10
304.9370521282439
 20
104.99999999999999
 10
314.9370521282439
 20
104.99999999999999
 10
314.9370521282439
 20
94.99999999999999
 10
304.9370521282439
 20
94.99999999999999
  0
LINE
  5
9B
330
17
100
AcDbEntity
  8
Layer
100
AcDbLine
 10
3.017534629837826
 20
100.30990483995369
 30
0.0
 11
-0.9720876363069806
 21
100.59785305314767
 31
0.0
  0
LINE
  5
9C
330
17
100
AcDbEntity
  8
Layer
100
AcDbLine
 10
302.1389812346125
 20
78.72102240144815
 30
0.0
 11
306.1286035007573
 21
78.43307418825417
 31
0.0
  0
LINE
  5
9D
330
17
100
AcDbEntity
  8
Layer
100
AcDbLine
 10
197.5781249999996
 20
129.12649999999994
 30
0.0
 11
197.5781249999996
 21
129.62649999999994
 31
0.0
  0
LINE
  5
9E
330
17
100
AcDbEntity
  8
Layer
100
AcDbLine
 10
197.5781249999996
 20
70.87350000000006
 30
0.0
 11
197.5781249999996
 21
70.37350000000006
 31
0.0
  0
LINE
  5
9F
330
17
100
AcDbEntity
  8
Layer
100
AcDbLine
 10
226.11662499999954
 20
100.0
 30
0.0
 11
226.61662499999954
 21
100.0
 31
0.0
  0
LINE
  5
A0
330
17
100
AcDbEntity
  8
Layer
100
AcDbLine
 10
169.03962499999966
 20
100.0
 30
0.0
 11
168.53962499999966
 21
100.0
 31
0.0
  0
LINE
  5
A1
330
17
100
AcDbEntity
  8
Layer
100
AcDbLine
 10
32.5781249999996
 20
121.21324082343472
 30
0.0
 11
32.5781249999996
 21
125.21324082343472
 31
0.0
  0
LINE
  5
A2
330
17
100
AcDbEntity
  8
Layer
100
AcDbLine
 10
32.5781249999996
 20
82.90534692945653
 30
0.0
 11
32.5781249999996
 21
78.90534692945653
 31
0.0
  0
LINE
  5
A3
330
17
100
AcDbEntity
  8
Layer
100
AcDbLine
 10
32.5781249999996
 20
94.86692570825215
 30
0.0
 11
32.5781249999996
 21
83.86692570825215
 31
0.0
  0
LWPOLYLINE
  5
A4
330
17
100
AcDbEntity
  8
Layer
100
AcDbPolyline
 90
5
 70
0
 10
37.5781249999996
 20
84.36692570825215
 10
27.578124999999602
 20
84.36692570825215
 10
27.578124999999602
 20
94.36692570825215
 10
37.5781249999996
 20
94.36692570825215
 10
37.5781249999996
 20
84.36692570825215
  0
LINE
  5
A5
330
17
100
AcDbEntity
  8
Layer
100
AcDbLine
 10
32.5781249999996
 20
107.55929387644562
 30
0.0
 11
32.5781249999996
 21
96.55929387644562
 31
0.0
  0
LWPOLYLINE
  5
A6
330
17
100
AcDbEntity
  8
Layer
100
AcDbPolyline
 90
5
 70
0
 10
37.5781249999996
 20
97.05929387644562
 10
27.578124999999602
 20
97.05929387644562
 10
27.578124999999602
 20
107.05929387644562
 10
37.5781249999996
 20
107.05929387644562
 10
37.5781249999996
 20
97.05929387644562
  0
LINE
  5
A7
330
17
100
AcDbEntity
  8
Layer
100
AcDbLine
 10
32.5781249999996
 20
120.25166204463909
 30
0.0
 11
32.5781249999996
 21
109.25166204463908
 31
0.0
  0
LWPOLYLINE
  5
A8
330
17
100
AcDbEntity
  8
Layer
100
AcDbPolyline
 90
5
 70
0
 10
37.5781249999996
 20
109.75166204463908
 10
27.578124999999602
 20
109.75166204463908
 10
27.578124999999602
 20
119.75166204463908
 10
37.5781249999996
 20
119.75166204463908
 10
37.5781249999996
 20
109.75166204463908
  0
LINE
  5
A9
330
17
100
AcDbEntity
  8
Layer
100
AcDbLine
 10
327.5781249999996
 20
111.9482363427817
 30
0.0
 11
327.5781249999996
 21
115.9482363427817
 31
0.0
  0
LINE
  5
AA
330
17
100
AcDbEntity
  8
Layer
100
AcDbLine
 10
327.5781249999996
 20
85.55700186522188
 30
0.0
 11
327.5781249999996
 21
81.55700186522188
 31
0.0
  0
LINE
  5
AB
330
17
100
AcDbEntity
  8
Layer
100
AcDbLine
 10
327.5781249999996
 20
95.13524876073384
 30
0.0
 11
327.5781249999996
 21
84.13524876073384
 31
0.0
  0
LWPOLYLINE
  5
AC
330
17
100
AcDbEntity
  8
Layer
100
AcDbPolyline
 90
5
 70
0
 10
332.5781249999996
 20
84.63524876073384
 10
322.5781249999996
 20
84.63524876073384
 10
322.5781249999996
 20
94.63524876073384
 10
332.5781249999996
 20
94.63524876073384
 10
332.5781249999996
 20
84.63524876073384
  0
LINE
  5
AD
330
17
100
AcDbEntity
  8
Layer
100
AcDbLine
 10
327.5781249999996
 20
104.2526191040018
 30
0.0
 11
327.5781249999996
 21
93.2526191040018
 31
0.0
  0
LWPOLYLINE
  5
AE
330
17
100
AcDbEntity
  8
Layer
100
AcDbPolyline
 90
5
 70
0
 10
332.5781249999996
 20
93.7526191040018
 10
322.5781249999996
 20
93.7526191040018
 10
322.5781249999996
 20
103.7526191040018
 10
332.5781249999996
 20
103.7526191040018
 10
332.5781249999996
 20
93.7526191040018
  0
LINE
  5
AF
330
17
100
AcDbEntity
  8
Layer
100
AcDbLine
 10
327.5781249999996
 20
113.36998944726973
 30
0.0
 11
327.5781249999996
 21
102.36998944726973
 31
0.0
  0
LWPOLYLINE
  5
B0
330
17
100
AcDbEntity
  8
Layer
100
AcDbPolyline
 90
5
 70
0
 10
332.5781249999996
 20
102.86998944726973
 10
322.5781249999996
 20
102.86998944726973
 10
322.5781249999996
 20
112.86998944726973
 10
332.5781249999996
 20
112.86998944726973
 10
332.5781249999996
 20
102.86998944726973
  0
ENDSEC
  0
SECTION
  2
OBJECTS
  0
DICTIONARY
  5
A
330
0
100
AcDbDictionary
280
0
281
1
  3
ACAD_COLOR
350
B
  3
ACAD_GROUP
350
C
  3
ACAD_LAYOUT
350
D
  3
ACAD_MATERIAL
350
E
  3
ACAD_MLEADERSTYLE
350
F
  3
ACAD_MLINESTYLE
350
10
  3
ACAD_PLOTSETTINGS
350
11
  3
ACAD_PLOTSTYLENAME
350
12
  3
ACAD_SCALELIST
350
14
  3
ACAD_TABLESTYLE
350
15
  3
ACAD_VISUALSTYLE
350
16
  3
EZDXF_META
350
2D
  0
DICTIONARY
  5
B
330
A
100
AcDbDictionary
280
0
281
1
  0
DICTIONARY
  5
C
330
A
100
AcDbDictionary
280
0
281
1
  0
DICTIONARY
  5
D
330
A
100
AcDbDictionary
280
0
281
1
  3
Model
350
1A
  3
Layout1
350
1E
  0
DICTIONARY
  5
E
330
A
100
AcDbDictionary
280
0
281
1
  3
ByBlock
350
1F
  3
ByLayer
350
20
  3
Global
350
21
  0
DICTIONARY
  5
F
330
A
100
AcDbDictionary
280
0
281
1
  3
Standard
350
2C
  0
DICTIONARY
  5
10
330
A
100
AcDbDictionary
280
0
281
1
  3
Standard
350
22
  0
DICTIONARY
  5
11
330
A
100
AcDbDictionary
280
0
281
1
  0
ACDBDICTIONARYWDFLT
  5
12
330
A
100
AcDbDictionary
280
0
281
1
  3
Normal
350
13
100
AcDbDictionaryWithDefault
340
13
  0
ACDBPLACEHOLDER
  5
13
330
12
  0
DICTIONARY
  5
14
330
A
100
AcDbDictionary
280
0
281
1
  0
DICTIONARY
  5
15
330
A
100
AcDbDictionary
280
0
281
1
  0
DICTIONARY
  5
16
330
A
100
AcDbDictionary
280
0
281
1
  3
2dWireframe
350
5A
  3
Basic
350
5B
  3
Brighten
350
5C
  3
ColorChange
350
5D
  3
Conceptual
350
5E
  3
Dim
350
5F
  3
EdgeColorOff
350
60
  3
Facepattern
350
61
  3
Flat
350
62
  3
FlatWithEdges
350
63
  3
Gouraud
350
64
  3
GouraudWithEdges
350
65
  3
Hidden
350
66
  3
JitterOff
350
67
  3
Linepattern
350
68
  3
Modeling
350
69
  3
OverhangOff
350
6A
  3
Realistic
350
6B
  3
Shaded
350
6C
  3
Shaded with edges
350
6D
  3
Shades of Gray
350
6E
  3
Sketchy
350
6F
  3
Thicken
350
70
  3
Wireframe
350
71
  3
X-Ray
350
72
  0
LAYOUT
  5
1A
330
D
100
AcDbPlotSettings
  1

  2
Adobe PDF
  4
A3
  6

 40
7.5
 41
20.0
 42
7.5
 43
20.0
 44
420.0
 45
297.0
 46
0.0
 47
0.0
 48
0.0
 49
0.0
140
0.0
141
0.0
142
1.0
143
1.0
 70
1024
 72
1
 73
0
 74
5
  7

 75
16
 76
0
 77
2
 78
300
147
1.0
148
0.0
149
0.0
100
AcDbLayout
  1
Model
 70
1
 71
0
 10
0.0
 20
0.0
 11
420.0
 21
297.0
 12
0.0
 22
0.0
 32
0.0
 14
1e+20
 24
1e+20
 34
1e+20
 15
-1e+20
 25
-1e+20
 35
-1e+20
146
0.0
 13
0.0
 23
0.0
 33
0.0
 16
1.0
 26
0.0
 36
0.0
 17
0.0
 27
1.0
 37
0.0
 76
1
330
17
  0
LAYOUT
  5
1E
330
D
100
AcDbPlotSettings
  1

  2
Adobe PDF
  4
A3
  6

 40
7.5
 41
20.0
 42
7.5
 43
20.0
 44
420.0
 45
297.0
 46
0.0
 47
0.0
 48
0.0
 49
0.0
140
0.0
141
0.0
142
1.0
143
1.0
 70
0
 72
1
 73
0
 74
5
  7

 75
16
 76
0
 77
2
 78
300
147
1.0
148
0.0
149
0.0
100
AcDbLayout
  1
Layout1
 70
1
 71
1
 10
0.0
 20
0.0
 11
420.0
 21
297.0
 12
0.0
 22
0.0
 32
0.0
 14
1e+20
 24
1e+20
 34
1e+20
 15
-1e+20
 25
-1e+20
 35
-1e+20
146
0.0
 13
0.0
 23
0.0
 33
0.0
 16
1.0
 26
0.0
 36
0.0
 17
0.0
 27
1.0
 37
0.0
 76
1
330
1B
  0
MATERIAL
  5
1F
102
{ACAD_REACTORS
330
E
102
}
330
E
100
AcDbMaterial
  1
ByBlock
  2

 70
0
 40
1.0
 71
1
 41
1.0
 91
-1023410177
 42
1.0
 72
1
  3

 73
1
 74
1
 75
1
 44
0.5
 73
0
 45
1.0
 46
1.0
 77
1
  4

 78
1
 79
1
170
1
 48
1.0
171
1
  6

172
1
173
1
174
1
140
1.0
141
1.0
175
1
  7

176
1
177
1
178
1
143
1.0
179
1
  8

270
1
271
1
272
1
145
1.0
146
1.0
273
1
  9

274
1
275
1
276
1
 42
1.0
 72
1
  3

 73
1
 74
1
 75
1
 94
63
  0
MATERIAL
  5
20
102
{ACAD_REACTORS
330
E
102
}
330
E
100
AcDbMaterial
  1
ByLayer
  2

 70
0
 40
1.0
 71
1
 41
1.0
 91
-1023410177
 42
1.0
 72
1
  3

 73
1
 74
1
 75
1
 44
0.5
 73
0
 45
1.0
 46
1.0
 77
1
  4

 78
1
 79
1
170
1
 48
1.0
171
1
  6

172
1
173
1
174
1
140
1.0
141
1.0
175
1
  7

176
1
177
1
178
1
143
1.0
179
1
  8

270
1
271
1
272
1
145
1.0
146
1.0
273
1
  9

274
1
275
1
276
1
 42
1.0
 72
1
  3

 73
1
 74
1
 75
1
 94
63
  0
MATERIAL
  5
21
102
{ACAD_REACTORS
330
E
102
}
330
E
100
AcDbMaterial
  1
Global
  2

 70
0
 40
1.0
 71
1
 41
1.0
 91
-1023410177
 42
1.0
 72
1
  3

 73
1
 74
1
 75
1
 44
0.5
 73
0
 45
1.0
 46
1.0
 77
1
  4

 78
1
 79
1
170
1
 48
1.0
171
1
  6

172
1
173
1
174
1
140
1.0
141
1.0
175
1
  7

176
1
177
1
178
1
143
1.0
179
1
  8

270
1
271
1
272
1
145
1.0
146
1.0
273
1
  9

274
1
275
1
276
1
 42
1.0
 72
1
  3

 73
1
 74
1
 75
1
 94
63
  0
MLINESTYLE
  5
22
102
{ACAD_REACTORS
330
10
102
}
330
10
100
AcDbMlineStyle
  2
Standard
 70
0
  3

 62
256
 51
90.0
 52
90.0
 71
2
 49
0.5
 62
256
  6
BYLAYER
 49
-0.5
 62
256
  6
BYLAYER
  0
MLEADERSTYLE
  5
2C
102
{ACAD_REACTORS
330
F
102
}
330
F
100
AcDbMLeaderStyle
179
2
170
2
171
1
172
0
 90
2
 40
0.0
 41
0.0
173
1
 91
-1056964608
 92
-2
290
1
 42
2.0
291
1
 43
8.0
  3
Standard
 44
4.0
300

342
29
174
1
175
1
176
0
178
1
 93
-1056964608
 45
4.0
292
0
297
0
 46
4.0
 94
-1056964608
 47
1.0
 49
1.0
140
1.0
294
1
141
0.0
177
0
142
1.0
295
0
296
0
143
3.75
271
0
272
9
273
9
  0
DICTIONARY
  5
2D
330
A
100
AcDbDictionary
281
1
  3
CREATED_BY_EZDXF
350
2E
  3
WRITTEN_BY_EZDXF
350
B3
  0
DICTIONARYVAR
  5
2E
330
2D
100
DictionaryVariables
280
0
  1
1.1.0 @ 2024-03-26T01:33:50.210207+00:00
  0
VISUALSTYLE
  5
5A
102
{ACAD_REACTORS
330
16
102
}
330
16
100
AcDbVisualStyle
  2
2dWireframe
 70
4
 90
0
 40
0.6
 62
7
290
0
291
0
  0
VISUALSTYLE
  5
5B
102
{ACAD_REACTORS
330
16
102
}
330
16
100
AcDbVisualStyle
  2
Basic
 70
7
 90
1
 40
0.6
 62
7
290
0
291
1
  0
VISUALSTYLE
  5
5C
102
{ACAD_REACTORS
330
16
102
}
330
16
100
AcDbVisualStyle
  2
Brighten
 70
12
 90
2
 40
0.6
 62
7
290
0
291
1
  0
VISUALSTYLE
  5
5D
102
{ACAD_REACTORS
330
16
102
}
330
16
100
AcDbVisualStyle
  2
ColorChange
 70
16
 90
2
 40
0.6
 62
8
290
0
291
1
  0
VISUALSTYLE
  5
5E
102
{ACAD_REACTORS
330
16
102
}
330
16
100
AcDbVisualStyle
  2
Conceptual
 70
9
 90
3
 40
0.6
 62
7
290
0
291
0
  0
VISUALSTYLE
  5
5F
102
{ACAD_REACTORS
330
16
102
}
330
16
100
AcDbVisualStyle
  2
Dim
 70
11
 90
2
 40
0.6
 62
7
290
0
291
1
  0
VISUALSTYLE
  5
60
102
{ACAD_REACTORS
330
16
102
}
330
16
100
AcDbVisualStyle
  2
EdgeColorOff
 70
22
 90
2
 40
0.6
 62
7
290
0
291
1
  0
VISUALSTYLE
  5
61
102
{ACAD_REACTORS
330
16
102
}
330
16
100
AcDbVisualStyle
  2
Facepattern
 70
15
 90
2
 40
0.6
 62
7
290
0
291
1
  0
VISUALSTYLE
  5
62
102
{ACAD_REACTORS
330
16
102
}
330
16
100
AcDbVisualStyle
  2
Flat
 70
0
 90
2
 40
0.6
 62
7
290
0
291
1
  0
VISUALSTYLE
  5
63
102
{ACAD_REACTORS
330
16
102
}
330
16
100
AcDbVisualStyle
  2
FlatWithEdges
 70
1
 90
2
 40
0.6
 62
7
290
0
291
1
  0
VISUALSTYLE
  5
64
102
{ACAD_REACTORS
330
16
102
}
330
16
100
AcDbVisualStyle
  2
Gouraud
 70
2
 90
2
 40
0.6
 62
7
290
0
291
1
  0
VISUALSTYLE
  5
65
102
{ACAD_REACTORS
330
16
102
}
330
16
100
AcDbVisualStyle
  2
GouraudWithEdges
 70
3
 90
2
 40
0.6
 62
7
290
0
291
1
  0
VISUALSTYLE
  5
66
102
{ACAD_REACTORS
330
16
102
}
330
16
100
AcDbVisualStyle
  2
Hidden
 70
6
 90
1
 40
0.6
 62
7
290
0
291
0
  0
VISUALSTYLE
  5
67
102
{ACAD_REACTORS
330
16
102
}
330
16
100
AcDbVisualStyle
  2
JitterOff
 70
20
 90
2
 40
0.6
 62
7
290
0
291
1
  0
VISUALSTYLE
  5
68
102
{ACAD_REACTORS
330
16
102
}
330
16
100
AcDbVisualStyle
  2
Linepattern
 70
14
 90
2
 40
0.6
 62
7
290
0
291
1
  0
VISUALSTYLE
  5
69
102
{ACAD_REACTORS
330
16
102
}
330
16
100
AcDbVisualStyle
  2
Modeling
 70
10
 90
2
 40
0.6
 62
7
290
0
291
0
  0
VISUALSTYLE
  5
6A
102
{ACAD_REACTORS
330
16
102
}
330
16
100
AcDbVisualStyle
  2
OverhangOff
 70
21
 90
2
 40
0.6
 62
7
290
0
291
1
  0
VISUALSTYLE
  5
6B
102
{ACAD_REACTORS
330
16
102
}
330
16
100
AcDbVisualStyle
  2
Realistic
 70
8
 90
2
 40
0.6
 62
7
290
0
291
0
  0
VISUALSTYLE
  5
6C
102
{ACAD_REACTORS
330
16
102
}
330
16
100
AcDbVisualStyle
  2
Shaded
 70
27
 90
2
 40
0.6
 62
7
290
0
291
0
  0
VISUALSTYLE
  5
6D
102
{ACAD_REACTORS
330
16
102
}
330
16
100
AcDbVisualStyle
  2
Shaded with edges
 70
26
 90
2
 40
0.6
 62
7
290
0
291
0
  0
VISUALSTYLE
  5
6E
102
{ACAD_REACTORS
330
16
102
}
330
16
100
AcDbVisualStyle
  2
Shades of Gray
 70
23
 90
2
 40
0.6
 62
7
290
0
291
0
  0
VISUALSTYLE
  5
6F
102
{ACAD_REACTORS
330
16
102
}
330
16
100
AcDbVisualStyle
  2
Sketchy
 70
24
 90
1
 40
0.6
 62
7
290
0
291
0
  0
VISUALSTYLE
  5
70
102
{ACAD_REACTORS
330
16
102
}
330
16
100
AcDbVisualStyle
  2
Thicken
 70
13
 90
2
 40
0.6
 62
7
290
0
291
1
  0
VISUALSTYLE
  5
71
102
{ACAD_REACTORS
330
16
102
}
330
16
100
AcDbVisualStyle
  2
Wireframe
 70
5
 90
0
 40
0.6
 62
7
290
0
291
0
  0
VISUALSTYLE
  5
72
102
{ACAD_REACTORS
330
16
102
}
330
16
100
AcDbVisualStyle
  2
X-Ray
 70
25
 90
2
 40
0.5
 62
7
290
0
291
0
  0
DICTIONARYVAR
  5
B3
330
2D
100
DictionaryVariables
280
0
  1
1.1.0 @ 2024-03-26T01:33:50.223016+00:00
  0
ENDSEC
  0
EOF
