  0
SECTION
  2
HEADER
  9
$ACADVER
  1
AC1021
  9
$ACADMAINTVER
 70
25
  9
$DWGCODEPAGE
  3
ANSI_1252
  9
$LASTSAVEDBY
  1
ezdxf
  9
$INSBASE
 10
0.0
 20
0.0
 30
0.0
  9
$EXTMIN
 10
1e+20
 20
1e+20
 30
1e+20
  9
$EXTMAX
 10
-1e+20
 20
-1e+20
 30
-1e+20
  9
$LIMMIN
 10
0.0
 20
0.0
  9
$LIMMAX
 10
420.0
 20
297.0
  9
$ORTHOMODE
 70
0
  9
$REGENMODE
 70
1
  9
$FILLMODE
 70
1
  9
$QTEXTMODE
 70
0
  9
$MIRRTEXT
 70
1
  9
$LTSCALE
 40
1.0
  9
$ATTMODE
 70
1
  9
$TEXTSIZE
 40
2.5
  9
$TRACEWID
 40
1.0
  9
$TEXTSTYLE
  7
OpenSans
  9
$CLAYER
  8
0
  9
$CELTYPE
  6
ByLayer
  9
$CECOLOR
 62
256
  9
$CELTSCALE
 40
1.0
  9
$DISPSILH
 70
0
  9
$DIMSCALE
 40
1.0
  9
$DIMASZ
 40
0.175
  9
$DIMEXO
 40
0.125
  9
$DIMDLI
 40
3.75
  9
$DIMRND
 40
0.0
  9
$DIMDLE
 40
0.0
  9
$DIMEXE
 40
0.375
  9
$DIMTP
 40
0.0
  9
$DIMTM
 40
0.0
  9
$DIMTXT
 40
0.25
  9
$DIMCEN
 40
2.5
  9
$DIMTSZ
 40
0.0
  9
$DIMTOL
 70
0
  9
$DIMLIM
 70
0
  9
$DIMTIH
 70
0
  9
$DIMTOH
 70
0
  9
$DIMSE1
 70
0
  9
$DIMSE2
 70
0
  9
$DIMTAD
 70
1
  9
$DIMZIN
 70
12
  9
$DIMBLK
  1
ARCHTICK
  9
$DIMASO
 70
1
  9
$DIMSHO
 70
1
  9
$DIMPOST
  1

  9
$DIMAPOST
  1

  9
$DIMALT
 70
0
  9
$DIMALTD
 70
3
  9
$DIMALTF
 40
0.03937007874
  9
$DIMLFAC
 40
100.0
  9
$DIMTOFL
 70
1
  9
$DIMTVP
 40
0.0
  9
$DIMTIX
 70
0
  9
$DIMSOXD
 70
0
  9
$DIMSAH
 70
0
  9
$DIMBLK1
  1

  9
$DIMBLK2
  1

  9
$DIMSTYLE
  2
EZDXF
  9
$DIMCLRD
 70
0
  9
$DIMCLRE
 70
0
  9
$DIMCLRT
 70
0
  9
$DIMTFAC
 40
0.5
  9
$DIMGAP
 40
0.1
  9
$DIMJUST
 70
0
  9
$DIMSD1
 70
0
  9
$DIMSD2
 70
0
  9
$DIMTOLJ
 70
0
  9
$DIMTZIN
 70
8
  9
$DIMALTZ
 70
0
  9
$DIMALTTZ
 70
0
  9
$DIMUPT
 70
1
  9
$DIMDEC
 70
2
  9
$DIMTDEC
 70
2
  9
$DIMALTU
 70
2
  9
$DIMALTTD
 70
3
  9
$DIMTXSTY
  7
OpenSansCondensed-Light
  9
$DIMAUNIT
 70
0
  9
$DIMADEC
 70
2
  9
$DIMALTRND
 40
0.0
  9
$DIMAZIN
 70
3
  9
$DIMDSEP
 70
46
  9
$DIMATFIT
 70
3
  9
$DIMFRAC
 70
0
  9
$DIMLDRBLK
  1

  9
$DIMLUNIT
 70
2
  9
$DIMLWD
 70
-2
  9
$DIMLWE
 70
-2
  9
$DIMTMOVE
 70
2
  9
$DIMFXL
 40
1.0
  9
$DIMFXLON
 70
0
  9
$DIMJOGANG
 40
0.785398163397
  9
$DIMTFILL
 70
0
  9
$DIMTFILLCLR
 70
0
  9
$DIMARCSYM
 70
0
  9
$DIMLTYPE
  6

  9
$DIMLTEX1
  6

  9
$DIMLTEX2
  6

  9
$LUNITS
 70
2
  9
$LUPREC
 70
4
  9
$SKETCHINC
 40
1.0
  9
$FILLETRAD
 40
10.0
  9
$AUNITS
 70
0
  9
$AUPREC
 70
2
  9
$MENU
  1
.
  9
$ELEVATION
 40
0.0
  9
$PELEVATION
 40
0.0
  9
$THICKNESS
 40
0.0
  9
$LIMCHECK
 70
0
  9
$CHAMFERA
 40
0.0
  9
$CHAMFERB
 40
0.0
  9
$CHAMFERC
 40
0.0
  9
$CHAMFERD
 40
0.0
  9
$SKPOLY
 70
0
  9
$TDCREATE
 40
2460396.440162037
  9
$TDUCREATE
 40
2458532.153996898
  9
$TDUPDATE
 40
2460396.440162037
  9
$TDUUPDATE
 40
2458532.1544311
  9
$TDINDWG
 40
0.0
  9
$TDUSRTIMER
 40
0.0
  9
$USRTIMER
 70
1
  9
$ANGBASE
 50
0.0
  9
$ANGDIR
 70
0
  9
$PDMODE
 70
0
  9
$PDSIZE
 40
0.0
  9
$PLINEWID
 40
0.0
  9
$SPLFRAME
 70
0
  9
$SPLINETYPE
 70
6
  9
$SPLINESEGS
 70
8
  9
$HANDSEED
  5
BB
  9
$SURFTAB1
 70
6
  9
$SURFTAB2
 70
6
  9
$SURFTYPE
 70
6
  9
$SURFU
 70
6
  9
$SURFV
 70
6
  9
$UCSBASE
  2

  9
$UCSNAME
  2

  9
$UCSORG
 10
0.0
 20
0.0
 30
0.0
  9
$UCSXDIR
 10
1.0
 20
0.0
 30
0.0
  9
$UCSYDIR
 10
0.0
 20
1.0
 30
0.0
  9
$UCSORTHOREF
  2

  9
$UCSORTHOVIEW
 70
0
  9
$UCSORGTOP
 10
0.0
 20
0.0
 30
0.0
  9
$UCSORGBOTTOM
 10
0.0
 20
0.0
 30
0.0
  9
$UCSORGLEFT
 10
0.0
 20
0.0
 30
0.0
  9
$UCSORGRIGHT
 10
0.0
 20
0.0
 30
0.0
  9
$UCSORGFRONT
 10
0.0
 20
0.0
 30
0.0
  9
$UCSORGBACK
 10
0.0
 20
0.0
 30
0.0
  9
$PUCSBASE
  2

  9
$PUCSNAME
  2

  9
$PUCSORG
 10
0.0
 20
0.0
 30
0.0
  9
$PUCSXDIR
 10
1.0
 20
0.0
 30
0.0
  9
$PUCSYDIR
 10
0.0
 20
1.0
 30
0.0
  9
$PUCSORTHOREF
  2

  9
$PUCSORTHOVIEW
 70
0
  9
$PUCSORGTOP
 10
0.0
 20
0.0
 30
0.0
  9
$PUCSORGBOTTOM
 10
0.0
 20
0.0
 30
0.0
  9
$PUCSORGLEFT
 10
0.0
 20
0.0
 30
0.0
  9
$PUCSORGRIGHT
 10
0.0
 20
0.0
 30
0.0
  9
$PUCSORGFRONT
 10
0.0
 20
0.0
 30
0.0
  9
$PUCSORGBACK
 10
0.0
 20
0.0
 30
0.0
  9
$USERI1
 70
0
  9
$USERI2
 70
0
  9
$USERI3
 70
0
  9
$USERI4
 70
0
  9
$USERI5
 70
0
  9
$USERR1
 40
0.0
  9
$USERR2
 40
0.0
  9
$USERR3
 40
0.0
  9
$USERR4
 40
0.0
  9
$USERR5
 40
0.0
  9
$WORLDVIEW
 70
1
  9
$SHADEDGE
 70
3
  9
$SHADEDIF
 70
70
  9
$TILEMODE
 70
1
  9
$MAXACTVP
 70
64
  9
$PINSBASE
 10
0.0
 20
0.0
 30
0.0
  9
$PLIMCHECK
 70
0
  9
$PEXTMIN
 10
1e+20
 20
1e+20
 30
1e+20
  9
$PEXTMAX
 10
-1e+20
 20
-1e+20
 30
-1e+20
  9
$PLIMMIN
 10
0.0
 20
0.0
  9
$PLIMMAX
 10
420.0
 20
297.0
  9
$UNITMODE
 70
0
  9
$VISRETAIN
 70
1
  9
$PLINEGEN
 70
0
  9
$PSLTSCALE
 70
1
  9
$TREEDEPTH
 70
3020
  9
$CMLSTYLE
  2
Standard
  9
$CMLJUST
 70
0
  9
$CMLSCALE
 40
20.0
  9
$PROXYGRAPHICS
 70
1
  9
$MEASUREMENT
 70
1
  9
$CELWEIGHT
370
-1
  9
$ENDCAPS
280
0
  9
$JOINSTYLE
280
0
  9
$LWDISPLAY
290
0
  9
$INSUNITS
 70
6
  9
$HYPERLINKBASE
  1

  9
$STYLESHEET
  1

  9
$XEDIT
290
1
  9
$CEPSNTYPE
380
0
  9
$PSTYLEMODE
290
1
  9
$FINGERPRINTGUID
  2
{76C70620-4997-43FA-B59A-F58063730F84}
  9
$VERSIONGUID
  2
{E2DC2C21-5027-4947-A437-E283653A0692}
  9
$EXTNAMES
290
1
  9
$PSVPSCALE
 40
0.0
  9
$OLESTARTUP
290
0
  9
$SORTENTS
280
127
  9
$INDEXCTL
280
0
  9
$HIDETEXT
280
1
  9
$XCLIPFRAME
290
0
  9
$HALOGAP
280
0
  9
$OBSCOLOR
 70
257
  9
$OBSLTYPE
280
0
  9
$INTERSECTIONDISPLAY
280
0
  9
$INTERSECTIONCOLOR
 70
257
  9
$DIMASSOC
280
2
  9
$PROJECTNAME
  1

  9
$CAMERADISPLAY
290
0
  9
$LENSLENGTH
 40
50.0
  9
$CAMERAHEIGHT
 40
0.0
  9
$STEPSPERSEC
 40
24.0
  9
$STEPSIZE
 40
100.0
  9
$3DDWFPREC
 40
2.0
  9
$PSOLWIDTH
 40
0.005
  9
$PSOLHEIGHT
 40
0.08
  9
$LOFTANG1
 40
1.570796326795
  9
$LOFTANG2
 40
1.570796326795
  9
$LOFTMAG1
 40
0.0
  9
$LOFTMAG2
 40
0.0
  9
$LOFTPARAM
 70
7
  9
$LOFTNORMALS
280
1
  9
$LATITUDE
 40
37.795
  9
$LONGITUDE
 40
-122.394
  9
$NORTHDIRECTION
 40
0.0
  9
$TIMEZONE
 70
-8000
  9
$LIGHTGLYPHDISPLAY
280
1
  9
$TILEMODELIGHTSYNCH
280
1
  9
$CMATERIAL
347
20
  9
$SOLIDHIST
280
0
  9
$SHOWHIST
280
1
  9
$DWFFRAME
280
2
  9
$DGNFRAME
280
2
  9
$REALWORLDSCALE
290
1
  9
$INTERFERECOLOR
 62
256
  9
$CSHADOW
280
0
  9
$SHADOWPLANELOCATION
 40
0.0
  0
ENDSEC
  0
SECTION
  2
CLASSES
  0
CLASS
  1
ACDBDICTIONARYWDFLT
  2
AcDbDictionaryWithDefault
  3
ObjectDBX Classes
 90
0
 91
0
280
0
281
0
  0
CLASS
  1
SUN
  2
AcDbSun
  3
SCENEOE
 90
1153
 91
0
280
0
281
0
  0
CLASS
  1
VISUALSTYLE
  2
AcDbVisualStyle
  3
ObjectDBX Classes
 90
4095
 91
0
280
0
281
0
  0
CLASS
  1
MATERIAL
  2
AcDbMaterial
  3
ObjectDBX Classes
 90
1153
 91
0
280
0
281
0
  0
CLASS
  1
SCALE
  2
AcDbScale
  3
ObjectDBX Classes
 90
1153
 91
0
280
0
281
0
  0
CLASS
  1
TABLESTYLE
  2
AcDbTableStyle
  3
ObjectDBX Classes
 90
4095
 91
0
280
0
281
0
  0
CLASS
  1
MLEADERSTYLE
  2
AcDbMLeaderStyle
  3
ACDB_MLEADERSTYLE_CLASS
 90
4095
 91
0
280
0
281
0
  0
CLASS
  1
DICTIONARYVAR
  2
AcDbDictionaryVar
  3
ObjectDBX Classes
 90
0
 91
0
280
0
281
0
  0
CLASS
  1
CELLSTYLEMAP
  2
AcDbCellStyleMap
  3
ObjectDBX Classes
 90
1152
 91
0
280
0
281
0
  0
CLASS
  1
MENTALRAYRENDERSETTINGS
  2
AcDbMentalRayRenderSettings
  3
SCENEOE
 90
1024
 91
0
280
0
281
0
  0
CLASS
  1
ACDBDETAILVIEWSTYLE
  2
AcDbDetailViewStyle
  3
ObjectDBX Classes
 90
1025
 91
0
280
0
281
0
  0
CLASS
  1
ACDBSECTIONVIEWSTYLE
  2
AcDbSectionViewStyle
  3
ObjectDBX Classes
 90
1025
 91
0
280
0
281
0
  0
CLASS
  1
RASTERVARIABLES
  2
AcDbRasterVariables
  3
ISM
 90
0
 91
0
280
0
281
0
  0
CLASS
  1
LAYOUT
  2
AcDbLayout
  3
ObjectDBX Classes
 90
0
 91
0
280
0
281
0
  0
CLASS
  1
ACDBPLACEHOLDER
  2
AcDbPlaceHolder
  3
ObjectDBX Classes
 90
0
 91
0
280
0
281
0
  0
ENDSEC
  0
SECTION
  2
TABLES
  0
TABLE
  2
VPORT
  5
8
330
0
100
AcDbSymbolTable
 70
1
  0
VPORT
  5
23
330
8
100
AcDbSymbolTableRecord
100
AcDbViewportTableRecord
  2
*Active
 70
0
 10
0.0
 20
0.0
 11
1.0
 21
1.0
 12
0.0
 22
0.0
 13
0.0
 23
0.0
 14
0.5
 24
0.5
 15
0.5
 25
0.5
 16
0.0
 26
0.0
 36
1.0
 17
0.0
 27
0.0
 37
0.0
 40
1000.0
 41
1.34
 42
50.0
 43
0.0
 44
0.0
 50
0.0
 51
0.0
 71
0
 72
1000
 73
1
 74
3
 75
0
 76
0
 77
0
 78
0
281
0
 65
0
146
0.0
  0
ENDTAB
  0
TABLE
  2
LTYPE
  5
2
330
0
100
AcDbSymbolTable
 70
21
  0
LTYPE
  5
24
330
2
100
AcDbSymbolTableRecord
100
AcDbLinetypeTableRecord
  2
ByBlock
 70
0
  3

 72
65
 73
0
 40
0.0
  0
LTYPE
  5
25
330
2
100
AcDbSymbolTableRecord
100
AcDbLinetypeTableRecord
  2
ByLayer
 70
0
  3

 72
65
 73
0
 40
0.0
  0
LTYPE
  5
26
330
2
100
AcDbSymbolTableRecord
100
AcDbLinetypeTableRecord
  2
Continuous
 70
0
  3

 72
65
 73
0
 40
0.0
  0
LTYPE
  5
2F
330
2
100
AcDbSymbolTableRecord
100
AcDbLinetypeTableRecord
  2
CENTER
 70
0
  3
Center ____ _ ____ _ ____ _ ____ _ ____ _ ____
 72
65
 73
4
 40
5.08
 49
3.175
 74
0
 49
-0.635
 74
0
 49
0.635
 74
0
 49
-0.635
 74
0
  0
LTYPE
  5
30
330
2
100
AcDbSymbolTableRecord
100
AcDbLinetypeTableRecord
  2
CENTERX2
 70
0
  3
Center (2x) ________  __  ________  __  ________
 72
65
 73
4
 40
8.89
 49
6.35
 74
0
 49
-0.635
 74
0
 49
1.27
 74
0
 49
-0.635
 74
0
  0
LTYPE
  5
31
330
2
100
AcDbSymbolTableRecord
100
AcDbLinetypeTableRecord
  2
CENTER2
 70
0
  3
Center (.5x) ____ _ ____ _ ____ _ ____ _ ____
 72
65
 73
4
 40
2.54
 49
1.587
 74
0
 49
-0.318
 74
0
 49
0.318
 74
0
 49
-0.318
 74
0
  0
LTYPE
  5
32
330
2
100
AcDbSymbolTableRecord
100
AcDbLinetypeTableRecord
  2
DASHED
 70
0
  3
Dashed __ __ __ __ __ __ __ __ __ __ __ __ __ _
 72
65
 73
2
 40
1.524
 49
1.27
 74
0
 49
-0.254
 74
0
  0
LTYPE
  5
33
330
2
100
AcDbSymbolTableRecord
100
AcDbLinetypeTableRecord
  2
DASHEDX2
 70
0
  3
Dashed (2x) ____  ____  ____  ____  ____  ____
 72
65
 73
2
 40
3.048
 49
2.54
 74
0
 49
-0.508
 74
0
  0
LTYPE
  5
34
330
2
100
AcDbSymbolTableRecord
100
AcDbLinetypeTableRecord
  2
DASHED2
 70
0
  3
Dashed (.5x) _ _ _ _ _ _ _ _ _ _ _ _ _ _
 72
65
 73
2
 40
0.762
 49
0.635
 74
0
 49
-0.127
 74
0
  0
LTYPE
  5
35
330
2
100
AcDbSymbolTableRecord
100
AcDbLinetypeTableRecord
  2
PHANTOM
 70
0
  3
Phantom ______  __  __  ______  __  __  ______
 72
65
 73
6
 40
6.35
 49
3.175
 74
0
 49
-0.635
 74
0
 49
0.635
 74
0
 49
-0.635
 74
0
 49
0.635
 74
0
 49
-0.635
 74
0
  0
LTYPE
  5
36
330
2
100
AcDbSymbolTableRecord
100
AcDbLinetypeTableRecord
  2
PHANTOMX2
 70
0
  3
Phantom (2x)____________    ____    ____    ____________
 72
65
 73
6
 40
10.795
 49
6.35
 74
0
 49
-0.635
 74
0
 49
1.27
 74
0
 49
-0.635
 74
0
 49
1.27
 74
0
 49
-0.635
 74
0
  0
LTYPE
  5
37
330
2
100
AcDbSymbolTableRecord
100
AcDbLinetypeTableRecord
  2
PHANTOM2
 70
0
  3
Phantom (.5x) ___ _ _ ___ _ _ ___ _ _ ___ _ _ ___
 72
65
 73
6
 40
3.175
 49
1.587
 74
0
 49
-0.318
 74
0
 49
0.318
 74
0
 49
-0.318
 74
0
 49
0.318
 74
0
 49
-0.318
 74
0
  0
LTYPE
  5
38
330
2
100
AcDbSymbolTableRecord
100
AcDbLinetypeTableRecord
  2
DASHDOT
 70
0
  3
Dash dot __ . __ . __ . __ . __ . __ . __ . __
 72
65
 73
4
 40
3.556
 49
2.54
 74
0
 49
-0.508
 74
0
 49
0.0
 74
0
 49
-0.508
 74
0
  0
LTYPE
  5
39
330
2
100
AcDbSymbolTableRecord
100
AcDbLinetypeTableRecord
  2
DASHDOTX2
 70
0
  3
Dash dot (2x) ____  .  ____  .  ____  .  ____
 72
65
 73
4
 40
6.096
 49
5.08
 74
0
 49
-0.508
 74
0
 49
0.0
 74
0
 49
-0.508
 74
0
  0
LTYPE
  5
3A
330
2
100
AcDbSymbolTableRecord
100
AcDbLinetypeTableRecord
  2
DASHDOT2
 70
0
  3
Dash dot (.5x) _ . _ . _ . _ . _ . _ . _ . _
 72
65
 73
4
 40
1.778
 49
1.27
 74
0
 49
-0.254
 74
0
 49
0.0
 74
0
 49
-0.254
 74
0
  0
LTYPE
  5
3B
330
2
100
AcDbSymbolTableRecord
100
AcDbLinetypeTableRecord
  2
DOT
 70
0
  3
Dot .  .  .  .  .  .  .  .  .  .  .  .  .  .  .  .
 72
65
 73
2
 40
0.508
 49
0.0
 74
0
 49
-0.508
 74
0
  0
LTYPE
  5
3C
330
2
100
AcDbSymbolTableRecord
100
AcDbLinetypeTableRecord
  2
DOTX2
 70
0
  3
Dot (2x) .    .    .    .    .    .    .    . 
 72
65
 73
2
 40
1.016
 49
0.0
 74
0
 49
-1.016
 74
0
  0
LTYPE
  5
3D
330
2
100
AcDbSymbolTableRecord
100
AcDbLinetypeTableRecord
  2
DOT2
 70
0
  3
Dot (.5) . . . . . . . . . . . . . . . . . . . 
 72
65
 73
2
 40
0.254
 49
0.0
 74
0
 49
-0.254
 74
0
  0
LTYPE
  5
3E
330
2
100
AcDbSymbolTableRecord
100
AcDbLinetypeTableRecord
  2
DIVIDE
 70
0
  3
Divide __ . . __ . . __ . . __ . . __ . . __
 72
65
 73
6
 40
4.064
 49
2.54
 74
0
 49
-0.508
 74
0
 49
0.0
 74
0
 49
-0.508
 74
0
 49
0.0
 74
0
 49
-0.508
 74
0
  0
LTYPE
  5
3F
330
2
100
AcDbSymbolTableRecord
100
AcDbLinetypeTableRecord
  2
DIVIDEX2
 70
0
  3
Divide (2x) ____  . .  ____  . .  ____  . .  ____
 72
65
 73
6
 40
6.604
 49
5.08
 74
0
 49
-0.508
 74
0
 49
0.0
 74
0
 49
-0.508
 74
0
 49
0.0
 74
0
 49
-0.508
 74
0
  0
LTYPE
  5
40
330
2
100
AcDbSymbolTableRecord
100
AcDbLinetypeTableRecord
  2
DIVIDE2
 70
0
  3
Divide(.5x) _ . _ . _ . _ . _ . _ . _ . _
 72
65
 73
6
 40
2.032
 49
1.27
 74
0
 49
-0.254
 74
0
 49
0.0
 74
0
 49
-0.254
 74
0
 49
0.0
 74
0
 49
-0.254
 74
0
  0
ENDTAB
  0
TABLE
  2
LAYER
  5
1
330
0
100
AcDbSymbolTable
 70
3
  0
LAYER
  5
27
330
1
100
AcDbSymbolTableRecord
100
AcDbLayerTableRecord
  2
0
 70
0
 62
7
  6
Continuous
370
-3
390
13
347
21
  0
LAYER
  5
28
330
1
100
AcDbSymbolTableRecord
100
AcDbLayerTableRecord
  2
Defpoints
 70
0
 62
7
  6
Continuous
290
0
370
-3
390
13
347
21
  0
LAYER
  5
8A
330
1
100
AcDbSymbolTableRecord
100
AcDbLayerTableRecord
  2
Layer
 70
0
 62
1
  6
Continuous
370
50
390
13
347
21
  0
ENDTAB
  0
TABLE
  2
STYLE
  5
5
330
0
100
AcDbSymbolTable
 70
26
  0
STYLE
  5
29
330
5
100
AcDbSymbolTableRecord
100
AcDbTextStyleTableRecord
  2
Standard
 70
0
 40
0.0
 41
1.0
 50
0.0
 71
0
 42
2.5
  3
txt
  4

  0
STYLE
  5
41
330
5
100
AcDbSymbolTableRecord
100
AcDbTextStyleTableRecord
  2
OpenSans-Light
 70
0
 40
0.0
 41
1.0
 50
0.0
 71
0
 42
2.5
  3
OpenSans-Light.ttf
  4

  0
STYLE
  5
42
330
5
100
AcDbSymbolTableRecord
100
AcDbTextStyleTableRecord
  2
OpenSans-Light-Italic
 70
0
 40
0.0
 41
1.0
 50
0.0
 71
0
 42
2.5
  3
OpenSans-LightItalic.ttf
  4

  0
STYLE
  5
43
330
5
100
AcDbSymbolTableRecord
100
AcDbTextStyleTableRecord
  2
OpenSans
 70
0
 40
0.0
 41
1.0
 50
0.0
 71
0
 42
2.5
  3
OpenSans-Regular.ttf
  4

  0
STYLE
  5
44
330
5
100
AcDbSymbolTableRecord
100
AcDbTextStyleTableRecord
  2
OpenSans-Italic
 70
0
 40
0.0
 41
1.0
 50
0.0
 71
0
 42
2.5
  3
OpenSans-Italic.ttf
  4

  0
STYLE
  5
45
330
5
100
AcDbSymbolTableRecord
100
AcDbTextStyleTableRecord
  2
OpenSans-SemiBold
 70
0
 40
0.0
 41
1.0
 50
0.0
 71
0
 42
2.5
  3
OpenSans-SemiBold.ttf
  4

  0
STYLE
  5
46
330
5
100
AcDbSymbolTableRecord
100
AcDbTextStyleTableRecord
  2
OpenSans-SemiBoldItalic
 70
0
 40
0.0
 41
1.0
 50
0.0
 71
0
 42
2.5
  3
OpenSans-SemiBoldItalic.ttf
  4

  0
STYLE
  5
47
330
5
100
AcDbSymbolTableRecord
100
AcDbTextStyleTableRecord
  2
OpenSans-Bold
 70
0
 40
0.0
 41
1.0
 50
0.0
 71
0
 42
2.5
  3
OpenSans-Bold.ttf
  4

  0
STYLE
  5
48
330
5
100
AcDbSymbolTableRecord
100
AcDbTextStyleTableRecord
  2
OpenSans-BoldItalic
 70
0
 40
0.0
 41
1.0
 50
0.0
 71
0
 42
2.5
  3
OpenSans-BoldItalic.ttf
  4

  0
STYLE
  5
49
330
5
100
AcDbSymbolTableRecord
100
AcDbTextStyleTableRecord
  2
OpenSans-ExtraBold
 70
0
 40
0.0
 41
1.0
 50
0.0
 71
0
 42
2.5
  3
OpenSans-ExtraBold.ttf
  4

  0
STYLE
  5
4A
330
5
100
AcDbSymbolTableRecord
100
AcDbTextStyleTableRecord
  2
OpenSans-ExtraBoldItalic
 70
0
 40
0.0
 41
1.0
 50
0.0
 71
0
 42
2.5
  3
OpenSans-ExtraBoldItalic.ttf
  4

  0
STYLE
  5
4B
330
5
100
AcDbSymbolTableRecord
100
AcDbTextStyleTableRecord
  2
OpenSansCondensed-Bold
 70
0
 40
0.0
 41
1.0
 50
0.0
 71
0
 42
2.5
  3
OpenSansCondensed-Bold.ttf
  4

  0
STYLE
  5
4C
330
5
100
AcDbSymbolTableRecord
100
AcDbTextStyleTableRecord
  2
OpenSansCondensed-Light
 70
0
 40
0.0
 41
1.0
 50
0.0
 71
0
 42
2.5
  3
OpenSansCondensed-Light.ttf
  4

  0
STYLE
  5
4D
330
5
100
AcDbSymbolTableRecord
100
AcDbTextStyleTableRecord
  2
OpenSansCondensed-Italic
 70
0
 40
0.0
 41
1.0
 50
0.0
 71
0
 42
2.5
  3
OpenSansCondensed-LightItalic.ttf
  4

  0
STYLE
  5
4E
330
5
100
AcDbSymbolTableRecord
100
AcDbTextStyleTableRecord
  2
LiberationSans
 70
0
 40
0.0
 41
1.0
 50
0.0
 71
0
 42
2.5
  3
LiberationSans-Regular.ttf
  4

  0
STYLE
  5
4F
330
5
100
AcDbSymbolTableRecord
100
AcDbTextStyleTableRecord
  2
LiberationSans-Bold
 70
0
 40
0.0
 41
1.0
 50
0.0
 71
0
 42
2.5
  3
LiberationSans-Bold.ttf
  4

  0
STYLE
  5
50
330
5
100
AcDbSymbolTableRecord
100
AcDbTextStyleTableRecord
  2
LiberationSans-BoldItalic
 70
0
 40
0.0
 41
1.0
 50
0.0
 71
0
 42
2.5
  3
LiberationSans-BoldItalic.ttf
  4

  0
STYLE
  5
51
330
5
100
AcDbSymbolTableRecord
100
AcDbTextStyleTableRecord
  2
LiberationSans-Italic
 70
0
 40
0.0
 41
1.0
 50
0.0
 71
0
 42
2.5
  3
LiberationSans-Italic.ttf
  4

  0
STYLE
  5
52
330
5
100
AcDbSymbolTableRecord
100
AcDbTextStyleTableRecord
  2
LiberationSerif
 70
0
 40
0.0
 41
1.0
 50
0.0
 71
0
 42
2.5
  3
LiberationSerif-Regular.ttf
  4

  0
STYLE
  5
53
330
5
100
AcDbSymbolTableRecord
100
AcDbTextStyleTableRecord
  2
LiberationSerif-Bold
 70
0
 40
0.0
 41
1.0
 50
0.0
 71
0
 42
2.5
  3
LiberationSerif-Bold.ttf
  4

  0
STYLE
  5
54
330
5
100
AcDbSymbolTableRecord
100
AcDbTextStyleTableRecord
  2
LiberationSerif-BoldItalic
 70
0
 40
0.0
 41
1.0
 50
0.0
 71
0
 42
2.5
  3
LiberationSerif-BoldItalic.ttf
  4

  0
STYLE
  5
55
330
5
100
AcDbSymbolTableRecord
100
AcDbTextStyleTableRecord
  2
LiberationSerif-Italic
 70
0
 40
0.0
 41
1.0
 50
0.0
 71
0
 42
2.5
  3
LiberationSerif-Italic.ttf
  4

  0
STYLE
  5
56
330
5
100
AcDbSymbolTableRecord
100
AcDbTextStyleTableRecord
  2
LiberationMono
 70
0
 40
0.0
 41
1.0
 50
0.0
 71
0
 42
2.5
  3
LiberationMono-Regular.ttf
  4

  0
STYLE
  5
57
330
5
100
AcDbSymbolTableRecord
100
AcDbTextStyleTableRecord
  2
LiberationMono-Bold
 70
0
 40
0.0
 41
1.0
 50
0.0
 71
0
 42
2.5
  3
LiberationMono-Bold.ttf
  4

  0
STYLE
  5
58
330
5
100
AcDbSymbolTableRecord
100
AcDbTextStyleTableRecord
  2
LiberationMono-BoldItalic
 70
0
 40
0.0
 41
1.0
 50
0.0
 71
0
 42
2.5
  3
LiberationMono-BoldItalic.ttf
  4

  0
STYLE
  5
59
330
5
100
AcDbSymbolTableRecord
100
AcDbTextStyleTableRecord
  2
LiberationMono-Italic
 70
0
 40
0.0
 41
1.0
 50
0.0
 71
0
 42
2.5
  3
LiberationMono-Italic.ttf
  4

  0
ENDTAB
  0
TABLE
  2
VIEW
  5
7
330
0
100
AcDbSymbolTable
 70
0
  0
ENDTAB
  0
TABLE
  2
UCS
  5
6
330
0
100
AcDbSymbolTable
 70
0
  0
ENDTAB
  0
TABLE
  2
APPID
  5
3
330
0
100
AcDbSymbolTable
 70
3
  0
APPID
  5
2A
330
3
100
AcDbSymbolTableRecord
100
AcDbRegAppTableRecord
  2
ACAD
 70
0
  0
APPID
  5
B8
330
3
100
AcDbSymbolTableRecord
100
AcDbRegAppTableRecord
  2
HATCHBACKGROUNDCOLOR
 70
0
  0
APPID
  5
B9
330
3
100
AcDbSymbolTableRecord
100
AcDbRegAppTableRecord
  2
EZDXF
 70
0
  0
ENDTAB
  0
TABLE
  2
DIMSTYLE
  5
4
330
0
100
AcDbSymbolTable
 70
12
100
AcDbDimStyleTable
  0
DIMSTYLE
105
2B
330
4
100
AcDbSymbolTableRecord
100
AcDbDimStyleTableRecord
  2
Standard
 70
0
 40
1.0
 41
2.5
 42
0.625
 43
3.75
 44
1.25
 45
0.0
 46
0.0
 47
0.0
 48
0.0
 49
2.5
140
2.5
141
2.5
142
0.0
143
0.03937007874
144
1.0
145
0.0
146
1.0
147
0.625
148
0.0
 69
0
 70
0
 71
0
 72
0
 73
0
 74
0
 75
0
 76
0
 77
1
 78
8
 79
3
170
0
171
3
172
1
173
0
174
0
175
0
176
0
177
0
178
0
179
2
271
2
272
2
273
2
274
3
275
0
276
0
277
2
278
44
279
0
280
0
281
0
282
0
283
0
284
8
285
0
286
0
288
0
289
3
290
0
371
-2
372
-2
  0
DIMSTYLE
105
73
330
4
100
AcDbSymbolTableRecord
100
AcDbDimStyleTableRecord
  2
EZDXF
 70
0
 40
1.0
 41
0.175
 42
0.125
 43
3.75
 44
0.375
 45
0.0
 46
0.0
 47
0.0
 48
0.0
 49
2.5
140
0.25
141
2.5
142
0.0
143
0.03937007874
144
100.0
145
0.0
146
0.5
147
0.1
148
0.0
 69
0
 70
0
 71
0
 72
0
 73
0
 74
0
 75
0
 76
0
 77
1
 78
12
 79
3
170
0
171
3
172
1
173
0
174
0
175
0
176
0
177
0
178
0
179
2
271
2
272
2
273
2
274
3
275
0
276
0
277
2
278
46
279
2
280
0
281
0
282
0
283
0
284
8
285
0
286
0
288
1
289
3
290
0
340
4C
342
74
371
-2
372
-2
  0
DIMSTYLE
105
7C
330
4
100
AcDbSymbolTableRecord
100
AcDbDimStyleTableRecord
  2
EZ_M_100_H25_CM
 70
0
 40
1.0
 41
0.25
 42
0.125
 43
3.75
 44
0.375
 45
0.0
 46
0.0
 47
0.0
 48
0.0
 49
2.5
140
0.25
141
2.5
142
0.125
143
0.03937007874
144
100.0
145
0.0
146
0.5
147
0.1
148
0.0
 69
0
 70
0
 71
0
 72
0
 73
0
 74
0
 75
0
 76
0
 77
1
 78
12
 79
3
170
0
171
3
172
1
173
0
174
0
175
0
176
0
177
0
178
0
179
2
271
2
272
2
273
2
274
3
275
0
276
0
277
2
278
46
279
2
280
0
281
0
282
0
283
0
284
8
285
0
286
0
288
1
289
3
290
0
340
4C
371
-2
372
-2
  0
DIMSTYLE
105
7D
330
4
100
AcDbSymbolTableRecord
100
AcDbDimStyleTableRecord
  2
EZ_M_50_H25_CM
 70
0
 40
1.0
 41
0.125
 42
0.0625
 43
3.75
 44
0.1875
 45
0.0
 46
0.0
 47
0.0
 48
0.0
 49
2.5
140
0.125
141
2.5
142
0.0625
143
0.03937007874
144
100.0
145
0.0
146
0.5
147
0.05
148
0.0
 69
0
 70
0
 71
0
 72
0
 73
0
 74
0
 75
0
 76
0
 77
1
 78
12
 79
3
170
0
171
3
172
1
173
0
174
0
175
0
176
0
177
0
178
0
179
2
271
2
272
2
273
2
274
3
275
0
276
0
277
2
278
46
279
2
280
0
281
0
282
0
283
0
284
8
285
0
286
0
288
1
289
3
290
0
340
4C
371
-2
372
-2
  0
DIMSTYLE
105
7E
330
4
100
AcDbSymbolTableRecord
100
AcDbDimStyleTableRecord
  2
EZ_M_25_H25_CM
 70
0
 40
1.0
 41
0.0625
 42
0.03125
 43
3.75
 44
0.09375
 45
0.0
 46
0.0
 47
0.0
 48
0.0
 49
2.5
140
0.0625
141
2.5
142
0.03125
143
0.03937007874
144
100.0
145
0.0
146
0.5
147
0.025
148
0.0
 69
0
 70
0
 71
0
 72
0
 73
0
 74
0
 75
0
 76
0
 77
1
 78
12
 79
3
170
0
171
3
172
1
173
0
174
0
175
0
176
0
177
0
178
0
179
2
271
2
272
2
273
2
274
3
275
0
276
0
277
2
278
46
279
2
280
0
281
0
282
0
283
0
284
8
285
0
286
0
288
1
289
3
290
0
340
4C
371
-2
372
-2
  0
DIMSTYLE
105
7F
330
4
100
AcDbSymbolTableRecord
100
AcDbDimStyleTableRecord
  2
EZ_M_20_H25_CM
 70
0
 40
1.0
 41
0.05
 42
0.025
 43
3.75
 44
0.07500000000000001
 45
0.0
 46
0.0
 47
0.0
 48
0.0
 49
2.5
140
0.05
141
2.5
142
0.025
143
0.03937007874
144
100.0
145
0.0
146
0.5
147
0.020000000000000004
148
0.0
 69
0
 70
0
 71
0
 72
0
 73
0
 74
0
 75
0
 76
0
 77
1
 78
12
 79
3
170
0
171
3
172
1
173
0
174
0
175
0
176
0
177
0
178
0
179
2
271
2
272
2
273
2
274
3
275
0
276
0
277
2
278
46
279
2
280
0
281
0
282
0
283
0
284
8
285
0
286
0
288
1
289
3
290
0
340
4C
371
-2
372
-2
  0
DIMSTYLE
105
80
330
4
100
AcDbSymbolTableRecord
100
AcDbDimStyleTableRecord
  2
EZ_M_10_H25_CM
 70
0
 40
1.0
 41
0.025
 42
0.0125
 43
3.75
 44
0.037500000000000006
 45
0.0
 46
0.0
 47
0.0
 48
0.0
 49
2.5
140
0.025
141
2.5
142
0.0125
143
0.03937007874
144
100.0
145
0.0
146
0.5
147
0.010000000000000002
148
0.0
 69
0
 70
0
 71
0
 72
0
 73
0
 74
0
 75
0
 76
0
 77
1
 78
12
 79
3
170
0
171
3
172
1
173
0
174
0
175
0
176
0
177
0
178
0
179
2
271
2
272
2
273
2
274
3
275
0
276
0
277
2
278
46
279
2
280
0
281
0
282
0
283
0
284
8
285
0
286
0
288
1
289
3
290
0
340
4C
371
-2
372
-2
  0
DIMSTYLE
105
81
330
4
100
AcDbSymbolTableRecord
100
AcDbDimStyleTableRecord
  2
EZ_M_5_H25_CM
 70
0
 40
1.0
 41
0.0125
 42
0.00625
 43
3.75
 44
0.018750000000000003
 45
0.0
 46
0.0
 47
0.0
 48
0.0
 49
2.5
140
0.0125
141
2.5
142
0.00625
143
0.03937007874
144
100.0
145
0.0
146
0.5
147
0.005000000000000001
148
0.0
 69
0
 70
0
 71
0
 72
0
 73
0
 74
0
 75
0
 76
0
 77
1
 78
12
 79
3
170
0
171
3
172
1
173
0
174
0
175
0
176
0
177
0
178
0
179
2
271
2
272
2
273
2
274
3
275
0
276
0
277
2
278
46
279
2
280
0
281
0
282
0
283
0
284
8
285
0
286
0
288
1
289
3
290
0
340
4C
371
-2
372
-2
  0
DIMSTYLE
105
82
330
4
100
AcDbSymbolTableRecord
100
AcDbDimStyleTableRecord
  2
EZ_M_1_H25_CM
 70
0
 40
1.0
 41
0.0025
 42
0.00125
 43
3.75
 44
0.00375
 45
0.0
 46
0.0
 47
0.0
 48
0.0
 49
2.5
140
0.0025
141
2.5
142
0.00125
143
0.03937007874
144
100.0
145
0.0
146
0.5
147
0.001
148
0.0
 69
0
 70
0
 71
0
 72
0
 73
0
 74
0
 75
0
 76
0
 77
1
 78
12
 79
3
170
0
171
3
172
1
173
0
174
0
175
0
176
0
177
0
178
0
179
2
271
2
272
2
273
2
274
3
275
0
276
0
277
2
278
46
279
2
280
0
281
0
282
0
283
0
284
8
285
0
286
0
288
1
289
3
290
0
340
4C
371
-2
372
-2
  0
DIMSTYLE
105
83
330
4
100
AcDbSymbolTableRecord
100
AcDbDimStyleTableRecord
  2
EZ_RADIUS
 70
0
 40
1.0
 41
0.25
 42
0.125
 43
3.75
 44
0.375
 45
0.0
 46
0.0
 47
0.0
 48
0.0
 49
2.5
140
0.25
141
0.0
142
0.0
143
0.03937007874
144
100.0
145
0.0
146
0.5
147
0.1
148
0.0
 69
0
 70
0
 71
0
 72
0
 73
0
 74
0
 75
0
 76
0
 77
1
 78
12
 79
3
170
0
171
3
172
0
173
0
174
0
175
0
176
0
177
0
178
0
179
2
271
2
272
2
273
2
274
3
275
0
276
0
277
2
278
46
279
1
280
0
281
0
282
0
283
0
284
8
285
0
286
0
288
1
289
3
290
0
340
4C
342
84
371
-2
372
-2
  0
DIMSTYLE
105
88
330
4
100
AcDbSymbolTableRecord
100
AcDbDimStyleTableRecord
  2
EZ_RADIUS_INSIDE
 70
0
 40
1.0
 41
0.25
 42
0.125
 43
3.75
 44
0.375
 45
0.0
 46
0.0
 47
0.0
 48
0.0
 49
2.5
140
0.25
141
0.0
142
0.0
143
0.03937007874
144
100.0
145
0.0
146
0.5
147
0.1
148
0.0
 69
0
 70
0
 71
0
 72
0
 73
0
 74
0
 75
0
 76
0
 77
0
 78
12
 79
3
170
0
171
3
172
0
173
0
174
1
175
0
176
0
177
0
178
0
179
2
271
2
272
2
273
2
274
3
275
0
276
0
277
2
278
46
279
0
280
0
281
0
282
0
283
0
284
8
285
0
286
0
288
1
289
0
290
0
340
4C
342
84
371
-2
372
-2
  0
DIMSTYLE
105
89
330
4
100
AcDbSymbolTableRecord
100
AcDbDimStyleTableRecord
  2
EZ_CURVED
 70
0
 40
1.0
 41
0.25
 42
0.125
 43
3.75
 44
0.375
 45
0.0
 46
0.0
 47
0.0
 48
0.0
 49
2.5
140
0.25
141
2.5
142
0.0
143
0.03937007874
144
100.0
145
0.0
146
0.5
147
0.1
148
0.0
 69
0
 70
0
 71
0
 72
0
 73
0
 74
0
 75
0
 76
0
 77
1
 78
12
 79
2
 90
2
170
0
171
3
172
1
173
0
174
0
175
0
176
0
177
0
178
0
179
2
271
2
272
2
273
2
274
3
275
0
276
0
277
2
278
46
279
2
280
0
281
0
282
0
283
0
284
8
285
0
286
0
288
1
289
3
290
0
340
4C
371
-2
372
-2
  0
ENDTAB
  0
TABLE
  2
BLOCK_RECORD
  5
9
330
0
100
AcDbSymbolTable
 70
5
  0
BLOCK_RECORD
  5
17
330
9
100
AcDbSymbolTableRecord
100
AcDbBlockTableRecord
  2
*Model_Space
340
1A
 70
0
280
1
281
0
  0
BLOCK_RECORD
  5
1B
330
9
100
AcDbSymbolTableRecord
100
AcDbBlockTableRecord
  2
*Paper_Space
340
1E
 70
0
280
1
281
0
  0
BLOCK_RECORD
  5
74
330
9
100
AcDbSymbolTableRecord
100
AcDbBlockTableRecord
  2
_ARCHTICK
340
0
 70
0
280
1
281
0
  0
BLOCK_RECORD
  5
78
330
9
100
AcDbSymbolTableRecord
100
AcDbBlockTableRecord
  2
_CLOSEDFILLED
340
0
 70
0
280
1
281
0
  0
BLOCK_RECORD
  5
84
330
9
100
AcDbSymbolTableRecord
100
AcDbBlockTableRecord
  2
_CLOSEDBLANK
340
0
 70
0
280
1
281
0
  0
ENDTAB
  0
ENDSEC
  0
SECTION
  2
BLOCKS
  0
BLOCK
  5
18
330
17
100
AcDbEntity
  8
0
100
AcDbBlockBegin
  2
*Model_Space
 70
0
 10
0.0
 20
0.0
 30
0.0
  3
*Model_Space
  1

  0
ENDBLK
  5
19
330
17
100
AcDbEntity
  8
0
100
AcDbBlockEnd
  0
BLOCK
  5
1C
330
1B
100
AcDbEntity
  8
0
100
AcDbBlockBegin
  2
*Paper_Space
 70
0
 10
0.0
 20
0.0
 30
0.0
  3
*Paper_Space
  1

  0
ENDBLK
  5
1D
330
1B
100
AcDbEntity
  8
0
100
AcDbBlockEnd
  0
BLOCK
  5
75
330
74
100
AcDbEntity
  8
0
100
AcDbBlockBegin
  2
_ARCHTICK
 70
0
 10
0.0
 20
0.0
 30
0.0
  3
_ARCHTICK
  1

  0
LWPOLYLINE
  5
77
330
74
100
AcDbEntity
  8
0
  6
BYBLOCK
 62
0
100
AcDbPolyline
 90
2
 70
0
 43
0.15
 10
-0.5
 20
-0.5000000000000001
 10
0.5000000000000001
 20
0.5
  0
ENDBLK
  5
76
330
74
100
AcDbEntity
  8
0
100
AcDbBlockEnd
  0
BLOCK
  5
79
330
78
100
AcDbEntity
  8
0
100
AcDbBlockBegin
  2
_CLOSEDFILLED
 70
0
 10
0.0
 20
0.0
 30
0.0
  3
_CLOSEDFILLED
  1

  0
SOLID
  5
7B
330
78
100
AcDbEntity
  8
0
  6
BYBLOCK
 62
0
100
AcDbTrace
 10
-1.0
 20
0.1643989837240255
 30
0.0
 11
0.0
 21
0.0
 31
0.0
 12
-1.0
 22
-0.1643989837240255
 32
0.0
 13
-1.0
 23
-0.1643989837240255
 33
0.0
  0
ENDBLK
  5
7A
330
78
100
AcDbEntity
  8
0
100
AcDbBlockEnd
  0
BLOCK
  5
85
330
84
100
AcDbEntity
  8
0
100
AcDbBlockBegin
  2
_CLOSEDBLANK
 70
0
 10
0.0
 20
0.0
 30
0.0
  3
_CLOSEDBLANK
  1

  0
LWPOLYLINE
  5
87
330
84
100
AcDbEntity
  8
0
  6
BYBLOCK
 62
0
100
AcDbPolyline
 90
3
 70
1
 10
-1.0
 20
0.1643989837240255
 10
0.0
 20
0.0
 10
-1.0
 20
-0.1643989837240255
  0
ENDBLK
  5
86
330
84
100
AcDbEntity
  8
0
100
AcDbBlockEnd
  0
ENDSEC
  0
SECTION
  2
ENTITIES
  0
LWPOLYLINE
  5
8B
330
17
100
AcDbEntity
  8
Layer
100
AcDbPolyline
 90
303
 70
1
 10
577.185235910846
 20
50.931908981451436
 10
575.3198331692724
 20
51.55969589301594
 10
572.3220491235768
 20
52.553796422709745
 10
569.0833760742366
 20
53.644217067246245
 10
565.5804015695647
 20
54.81436619517079
 10
561.8039610228146
 20
56.05658519208084
 10
557.7763489539637
 20
57.383223388198296
 10
553.5318689358677
 20
58.792545637758124
 10
549.0991421813184
 20
60.262024060925164
 10
544.518642421828
 20
61.76675686718928
 10
539.8385479931958
 20
63.28195417227428
 10
535.0743369892731
 20
64.7994687188729
 10
530.2405881809362
 20
66.36711561079194
 10
525.3497081481078
 20
67.96105918145315
 10
520.3978383420051
 20
69.56070206430775
 10
515.392910740625
 20
71.16825429939874
 10
510.33363399827647
 20
72.7674878889193
 10
505.2210086182579
 20
74.37682617915834
 10
500.07219298804
 20
76.01173331009905
 10
494.89585250752873
 20
77.66007729816089
 10
489.700152727233
 20
79.31211149776986
 10
484.4922231410776
 20
80.95786178412278
 10
479.2760851920897
 20
82.58611576059542
 10
474.051694246127
 20
84.19518384885278
 10
468.8277985306436
 20
85.80859640156949
 10
463.61045906312415
 20
87.4341824668809
 10
458.39753428449535
 20
89.05445033583277
 10
453.189866296669
 20
90.65790038882903
 10
447.98493813186053
 20
92.23319929801649
 10
442.77683356192705
 20
93.77646056876122
 10
437.5655759178872
 20
95.29853146648647
 10
435.24032814221397
 20
95.97937887863996
 10
434.9452698552749
 20
94.97168814864956
 10
432.06619581257394
 20
95.81469945853202
 10
426.87342071637784
 20
97.33622144934102
 10
421.68612227707456
 20
98.84268754659408
 10
416.50170069923485
 20
100.32789267275636
 10
411.31517555809603
 20
101.7838298783449
 10
406.1204294308005
 20
103.20949371326047
 10
400.9202872099855
 20
104.61819380022611
 10
395.7289895962964
 20
106.02241666418506
 10
390.55655024528653
 20
107.41547001795529
 10
385.398452374718
 20
108.78072094152982
 10
380.25161485608464
 20
110.11238564262122
 10
375.1061501987324
 20
111.405368133888
 10
369.964534716671
 20
112.67274737153089
 10
364.82708505593826
 20
113.91988200908534
 10
359.69469529188416
 20
115.14796092920216
 10
354.56821521005037
 20
116.3514946400725
 10
349.4433450068221
 20
117.51975546949215
 10
344.31682034223576
 20
118.65051794134624
 10
339.1848978956946
 20
119.74835209499419
 10
334.0493600102773
 20
120.82423798704673
 10
328.9143697530089
 20
121.88405645555518
 10
323.7795164092985
 20
122.92170532775319
 10
318.6422884966777
 20
123.92902264183178
 10
313.5016425050217
 20
124.90292250056177
 10
308.35728085123054
 20
125.84586094621325
 10
303.2108951559282
 20
126.76495919355642
 10
298.0617956802467
 20
127.66248569331884
 10
292.91069165190504
 20
128.53824293179412
 10
287.75862927954205
 20
129.38807079090643
 10
282.6054317526737
 20
130.20595863267812
 10
277.452549590658
 20
130.99204018763982
 10
272.302847980474
 20
131.75171032247286
 10
267.15753765853395
 20
132.48731833310535
 10
262.01962539336705
 20
133.19879347717148
 10
256.89117335477425
 20
133.88108893067306
 10
251.77512242448535
 20
134.5307125312691
 10
246.67396808867434
 20
135.14697035897862
 10
241.5882963229923
 20
135.73007201485447
 10
236.5173767854501
 20
136.28153313170606
 10
231.45887553245112
 20
136.80140897528898
 10
226.41206939506998
 20
137.2898420534818
 10
221.37479159430188
 20
137.742367254608
 10
216.34425600368618
 20
138.15728989683723
 10
211.32004557013158
 20
138.53861368227834
 10
206.3022041583378
 20
138.88876296283564
 10
201.2924528395656
 20
139.20783089277808
 10
196.29196325233042
 20
139.49311755595065
 10
191.30226439711538
 20
139.74297079511533
 10
186.32380443182737
 20
139.95561555865174
 10
181.35671881755934
 20
140.13087454664768
 10
176.40210527694242
 20
140.27055331159872
 10
171.46233331476688
 20
140.37550753514967
 10
166.53851496809753
 20
140.44262210794997
 10
161.63454474135372
 20
140.47383838058073
 10
156.7588227954258
 20
140.47188091857512
 10
151.90702771936563
 20
140.42527005020958
 10
147.0852569779488
 20
140.34429246524726
 10
142.2871401050447
 20
140.21566214669855
 10
137.50464062534013
 20
140.03722726036193
 10
132.74459187729823
 20
139.8248061010915
 10
128.01318576746314
 20
139.57744838846867
 10
123.31348058105135
 20
139.28717402123453
 10
118.64755820056064
 20
138.94766201878747
 10
114.0165622038709
 20
138.55687408354987
 10
109.42359852144601
 20
138.1240072503686
 10
104.87744710324738
 20
137.66248623813556
 10
100.3894777898495
 20
137.17077636939052
 10
95.96147051802959
 20
136.6288772874535
 10
91.59953439397945
 20
136.0349457083103
 10
87.30773021106171
 20
135.38893011073716
 10
83.09146509196847
 20
134.7004824378521
 10
78.95230439416883
 20
133.97929816444838
 10
74.89764108512
 20
133.2365169761021
 10
70.9484890413226
 20
132.47691868282303
 10
67.11708679064981
 20
131.6848892343096
 10
63.41065593746072
 20
130.85863281494062
 10
59.82974680830921
 20
129.99778156099393
 10
56.373950267731686
 20
129.1087797227595
 10
53.04245776695345
 20
128.1984405452547
 10
49.83458341955392
 20
127.2723514617325
 10
46.75151383559984
 20
126.33610040273065
 10
43.794080116497696
 20
125.3923747287417
 10
40.96491671868904
 20
124.44478338250124
 10
38.26510097069544
 20
123.491695904296
 10
35.69209803950449
 20
122.52983891675697
 10
33.24490079568929
 20
121.56333689567305
 10
30.926143528701886
 20
120.60137671763178
 10
28.736877250216452
 20
119.64863478739454
 10
26.67506805665937
 20
118.7063134403518
 10
24.735781838806133
 20
117.77533958835227
 10
22.912556992380587
 20
116.85773997820989
 10
21.19934235897665
 20
115.95669927168146
 10
19.59172855843454
 20
115.07585046343736
 10
18.084140817138348
 20
114.21527458082944
 10
16.676586101207135
 20
113.37903569620616
 10
15.359140062077188
 20
112.55909547273293
 10
14.129519979513077
 20
111.75847014155893
 10
12.97704787806984
 20
110.9699191902758
 10
11.901390065487561
 20
110.2001201392777
 10
10.891941637088706
 20
109.44166647727987
 10
9.95275281930671
 20
108.7050874211746
 10
9.065891755057379
 20
107.97107134085829
 10
8.238997266159373
 20
107.25708154845772
 10
7.466101492951225
 20
106.5553900907724
 10
6.743427768214389
 20
105.86405652796255
 10
6.068534642569233
 20
105.18370429162279
 10
5.439581444341002
 20
104.5145744028663
 10
4.8524553222754605
 20
103.85272059635457
 10
4.307232576409433
 20
103.20235061915213
 10
3.8022810362830057
 20
102.56337058539067
 10
3.3328724536055176
 20
101.92982654316977
 10
2.893845906132867
 20
101.29820040246413
 10
2.485632060820137
 20
100.67644052186276
 10
2.118372613676769
 20
100.08259396921842
 10
1.7949155043868075
 20
99.50681106120363
 10
1.5134580437830607
 20
98.93256102164602
 10
1.2685325832835872
 20
98.35171694111176
 10
1.0591114783050557
 20
97.77741947594359
 10
0.8821165377275406
 20
97.20696308181819
 10
0.7278570600659577
 20
96.61329576887714
 10
0.6081294890318532
 20
96.09253842398753
 10
0.5222873770984222
 20
95.59137347247555
 10
0.4923734101797095
 20
95.04761896496584
 10
0.4747377777278814
 20
94.49382442874813
 10
0.4773511860604742
 20
93.95642804198445
 10
0.5082223004587831
 20
93.43517302109181
 10
0.5754651000192723
 20
92.91838966940466
 10
0.6858642216631381
 20
92.40059533474933
 10
0.845877674803404
 20
91.8738303524858
 10
1.0484134482684908
 20
91.3530507697197
 10
1.3063768939368003
 20
90.82666449674188
 10
1.6089500813765198
 20
90.30041084342226
 10
1.9581591383768
 20
89.77333052101538
 10
2.3490718448071277
 20
89.24847864902087
 10
2.777250518907323
 20
88.73022765256587
 10
3.2489467046901552
 20
88.21628244668241
 10
3.763402700766733
 20
87.70755632709945
 10
4.319556993696011
 20
87.20521631180132
 10
4.914336275349598
 20
86.71231992152126
 10
5.558561595012492
 20
86.22567911768022
 10
6.251083766253771
 20
85.74373368323481
 10
6.991835915620385
 20
85.26526353595324
 10
7.781799285176561
 20
84.78853313914536
 10
8.622907971410342
 20
84.31141668868273
 10
9.515623574216562
 20
83.8323060895666
 10
10.460195108709229
 20
83.35082331089663
 10
11.459299745336011
 20
82.86750863516704
 10
12.518319745381547
 20
82.3829315717526
 10
13.642664919480268
 20
81.89756420121071
 10
14.841301661804408
 20
81.41072477128714
 10
16.12049833619517
 20
80.9201517984537
 10
17.485124939957387
 20
80.42349633657307
 10
18.94160415733913
 20
79.919151244623
 10
20.496858619333437
 20
79.40649475544569
 10
22.158338491250703
 20
78.88674747471387
 10
23.93630500693422
 20
78.36269724726321
 10
25.843181387959106
 20
77.83706153606882
 10
27.89380000049519
 20
77.31138693709384
 10
30.106210164951165
 20
76.78343849353598
 10
32.487024415477094
 20
76.24446332579063
 10
35.035129459739835
 20
75.69187580020922
 10
37.76091974116625
 20
75.13556344467378
 10
40.67169565608941
 20
74.58000166641297
 10
43.76941616117867
 20
74.0259522167597
 10
47.0577255923352
 20
73.4770366227584
 10
50.53491510445588
 20
72.93503285055839
 10
54.18965678753645
 20
72.40055167354043
 10
58.0086452036721
 20
71.8722855474819
 10
61.96580456934075
 20
71.33864859115923
 10
66.05259237080207
 20
70.81124492721312
 10
70.27662534290576
 20
70.30586759242408
 10
74.64320444382838
 20
69.82531727390302
 10
79.14033678816023
 20
69.36486284478272
 10
83.75130457252428
 20
68.92402942490271
 10
88.47569316848399
 20
68.50449336057551
 10
93.29449511649878
 20
68.08238813659786
 10
98.19109432623364
 20
67.66254335773866
 10
103.15441758285512
 20
67.26243367331024
 10
108.17200834106042
 20
66.88783666855332
 10
113.11384309166169
 20
66.54754447584143
 10
113.04171144118996
 20
65.50002501301498
 10
113.16937305596964
 20
65.49122752190573
 10
118.28693829375142
 20
65.16701074715604
 10
123.45274305321504
 20
64.85441206023401
 10
128.65803143658414
 20
64.54003055301345
 10
133.89691566530854
 20
64.24004871108997
 10
139.16117801195003
 20
63.959985213658534
 10
144.44850023754617
 20
63.70310080180797
 10
149.76325612273408
 20
63.46300120523171
 10
155.10852228904437
 20
63.22967728743875
 10
160.48203149374797
 20
62.99839147469771
 10
165.87684345194066
 20
62.769620102817385
 10
171.292697994221
 20
62.55119772805647
 10
176.72648730074593
 20
62.347667156298236
 10
182.1798561287774
 20
62.15626062886222
 10
187.65216973275952
 20
61.9747401257638
 10
193.13823619691107
 20
61.79669712122819
 10
198.63554431217221
 20
61.61952933005853
 10
204.1429998307443
 20
61.44464219297877
 10
209.65944848556197
 20
61.27478034039302
 10
215.1823798490515
 20
61.11179028324583
 10
220.71248883542685
 20
60.95699397456917
 10
226.2497516934547
 20
60.80816664194818
 10
231.78961781577095
 20
60.66438503321552
 10
237.3295326427259
 20
60.52595064237077
 10
242.86635132266375
 20
60.39038995789731
 10
248.3969099831221
 20
60.25636282388447
 10
253.92174667374022
 20
60.12544758825406
 10
259.44651629425545
 20
60.001127106952545
 10
264.9748529088577
 20
59.88737681702958
 10
270.50676434298356
 20
59.783686734086075
 10
276.0410356110325
 20
59.68426947681052
 10
281.57752343517456
 20
59.58218525432407
 10
287.11646468294066
 20
59.47383030944957
 10
292.65784607109566
 20
59.36344495456153
 10
298.2010283231172
 20
59.26190092574767
 10
303.74627438405344
 20
59.17417137956289
 10
309.294464387539
 20
59.09294178544614
 10
314.8478520160111
 20
59.00627474597071
 10
320.40946937384024
 20
58.90912827190756
 10
325.97776371152327
 20
58.80428850485397
 10
331.54934973167235
 20
58.706662817219254
 10
337.12585336674215
 20
58.63277773600082
 10
342.7076806280351
 20
58.576956673033806
 10
348.2915014243016
 20
58.51774288032409
 10
353.8768416504337
 20
58.4426194846344
 10
359.4641199689178
 20
58.356363873010864
 10
365.0519085264343
 20
58.27281940098244
 10
370.6395121530631
 20
58.21135675730948
 10
376.22749495101186
 20
58.16936616695078
 10
381.811986159675
 20
58.121202225628984
 10
387.39484325235685
 20
58.059537368979434
 10
392.9792945667341
 20
57.984217838596045
 10
398.56593334312083
 20
57.90412739191557
 10
404.15018213768815
 20
57.836563146006704
 10
409.7273774131644
 20
57.79010602011636
 10
415.29105739979366
 20
57.740117549766424
 10
420.840047488122
 20
57.673331202668805
 10
426.3810392792514
 20
57.593239745097506
 10
431.91241602456853
 20
57.50040291037278
 10
437.4220375693387
 20
57.40194273491152
 10
442.9106324024285
 20
57.31258446002381
 10
448.38937390531373
 20
57.222099503137045
 10
453.86324769624287
 20
57.113503430037696
 10
459.3283335716095
 20
56.99307383759355
 10
464.77549166873956
 20
56.8689538969824
 10
470.18216942187627
 20
56.732965785289615
 10
475.546927599317
 20
56.586822190383316
 10
480.90333420518164
 20
56.43230291535135
 10
486.25765095406257
 20
56.27220383438618
 10
491.58877186905966
 20
56.10521156003492
 10
496.88742408363646
 20
55.91486491259577
 10
502.1677792311033
 20
55.693821277739694
 10
507.43265221192803
 20
55.47188660374196
 10
512.666199069277
 20
55.26472087778848
 10
517.8555225012384
 20
55.04193194455324
 10
523.0090553801335
 20
54.77887483623048
 10
528.1412073693549
 20
54.49606102907414
 10
533.2213369949245
 20
54.20794368957551
 10
538.1964877492569
 20
53.900666194491656
 10
543.0605817758757
 20
53.56170598990666
 10
547.823310326564
 20
53.2054271887764
 10
552.4432855394967
 20
52.84652631683744
 10
556.8759853232709
 20
52.48617426338169
 10
561.0787696456042
 20
52.120417028232445
 10
565.0343841785533
 20
51.76188695442344
 10
568.7306106020354
 20
51.42622787184894
 10
572.1568010123178
 20
51.099530629451756
 10
575.3110098208209
 20
50.7851774682612
 10
577.2653150930283
 20
50.580035779951466
  0
LWPOLYLINE
  5
8C
330
17
100
AcDbEntity
  8
Layer
100
AcDbPolyline
 90
5
 70
0
 10
379.003619102766
 20
106.30163237177543
 10
375.12422286985765
 20
107.27645792955302
 10
376.0990484276352
 20
111.15585416246138
 10
379.9784446605435
 20
110.18102860468379
 10
379.003619102766
 20
106.30163237177543
  0
LWPOLYLINE
  5
8D
330
17
100
AcDbEntity
  8
Layer
100
AcDbPolyline
 90
5
 70
0
 10
150.0987961007152
 20
136.39430904022092
 10
146.0993611166136
 20
136.327079523307
 10
146.03213159969968
 20
140.32651450740858
 10
150.03156658380126
 20
140.3937440243225
 10
150.0987961007152
 20
136.39430904022092
  0
LWPOLYLINE
  5
8E
330
17
100
AcDbEntity
  8
Layer
100
AcDbPolyline
 90
5
 70
0
 10
63.18821311736546
 20
126.69113365872528
 10
59.29906529673493
 20
125.75597098341962
 10
58.36390262142927
 20
129.64511880405013
 10
62.253050442059795
 20
130.5802814793558
 10
63.18821311736546
 20
126.69113365872528
  0
LWPOLYLINE
  5
8F
330
17
100
AcDbEntity
  8
Layer
100
AcDbPolyline
 90
5
 70
0
 10
16.516599315844708
 20
107.35480593552307
 10
14.890540034550687
 20
106.19036134099846
 10
11.979428548239175
 20
110.25550954423352
 10
13.605487829533198
 20
111.41995413875813
 10
16.516599315844708
 20
107.35480593552307
  0
LWPOLYLINE
  5
90
330
17
100
AcDbEntity
  8
Layer
100
AcDbPolyline
 90
5
 70
0
 10
27.248080289015352
 20
82.63860736471194
 10
29.185485162743102
 20
82.14215761372405
 10
27.944360785273343
 20
77.29864542940466
 10
26.006955911545592
 20
77.79509518039255
 10
27.248080289015352
 20
82.63860736471194
  0
LWPOLYLINE
  5
91
330
17
100
AcDbEntity
  8
Layer
100
AcDbPolyline
 90
5
 70
0
 10
82.59912920135581
 20
73.04208547161306
 10
86.58345029276505
 20
72.68826992566923
 10
86.22963474682122
 20
68.70394883425999
 10
82.24531365541198
 20
69.05776438020382
 10
82.59912920135581
 20
73.04208547161306
  0
LINE
  5
92
330
17
100
AcDbEntity
  8
Layer
100
AcDbLine
 10
558.3419999441135
 20
57.19690598811699
 30
0.0
 11
558.1815424566556
 21
56.72335198410193
 31
0.0
  0
LINE
  5
93
330
17
100
AcDbEntity
  8
Layer
100
AcDbLine
 10
557.3953154731684
 20
52.9428652770986
 30
0.0
 11
557.3536655962512
 21
52.44460300905818
 31
0.0
  0
LINE
  5
94
330
17
100
AcDbEntity
  8
Layer
100
AcDbLine
 10
539.3410634832996
 20
63.440414823965256
 30
0.0
 11
539.1827908779683
 21
62.96612611189042
 31
0.0
  0
LINE
  5
95
330
17
100
AcDbEntity
  8
Layer
100
AcDbLine
 10
537.4496598937781
 20
54.44766669479672
 30
0.0
 11
537.4100269825681
 21
53.94923993754043
 31
0.0
  0
LINE
  5
96
330
17
100
AcDbEntity
  8
Layer
100
AcDbLine
 10
501.2450544375331
 20
75.63931377032603
 30
0.0
 11
501.0896750216615
 21
75.16406937306985
 31
0.0
  0
LINE
  5
97
330
17
100
AcDbEntity
  8
Layer
100
AcDbLine
 10
497.4796661294607
 20
56.39038828408186
 30
0.0
 11
497.44771111062505
 21
55.89141045213819
 31
0.0
  0
LWPOLYLINE
  5
98
330
17
100
AcDbEntity
  8
Layer
100
AcDbPolyline
 90
300
 70
1
 10
249.2259999999997
 20
100.0
 10
249.21899534576136
 20
100.67899634576555
 10
249.19798447610452
 20
101.35769286585935
 10
249.1629766688377
 20
102.03578986700418
 10
249.11398738242312
 20
102.71298792065357
 10
249.0510382491505
 20
103.38898799521094
 10
248.97415706558505
 20
104.06349158807353
 10
248.88337778029313
 20
104.73620085744278
 10
248.77874047885157
 20
105.40681875384287
 10
248.66029136614702
 20
106.07504915128943
 10
248.52808274597322
 20
106.74059697805039
 10
248.38217299793496
 20
107.4031683469414
 10
248.22262655166946
 20
108.06247068509809
 10
248.04951385839598
 20
108.71821286316806
 10
247.86291135980653
 20
109.37010532386537
 10
247.66290145431145
 20
110.01786020983089
 10
247.4495724606545
 20
110.66119149074201
 10
247.22301857891378
 20
111.29981508961562
 10
246.98333984890573
 20
111.93344900824843
 10
246.73064210601032
 20
112.5618134517395
 10
246.46503693443705
 20
113.18463095203975
 10
246.1866416179526
 20
113.80162649047412
 10
245.89557908809158
 20
114.41252761918192
 10
245.59197786987343
 20
115.0170645814223
 10
245.2759720250494
 20
115.61497043069116
 10
244.94770109290465
 20
116.20598114859717
 10
244.6073100286416
 20
116.78983576144496
 10
244.2549491393718
 20
117.36627645547367
 10
243.89077401774463
 20
117.93504869070027
 10
243.51494547324182
 20
118.49590131331729
 10
243.12762946116865
 20
119.04858666659521
 10
242.72899700937265
 20
119.59286070024078
 10
242.31922414272256
 20
120.12848307816266
 10
241.89849180538073
 20
120.65521728459714
 10
241.4669857809032
 20
121.17283072854686
 10
241.02489661020303
 20
121.68109484648636
 10
240.57241950741263
 20
122.17978520328937
 10
240.1097542736829
 20
122.66868159133305
 10
239.63710520895648
 20
123.14756812773544
 10
239.15468102175473
 20
123.61623334968326
 10
238.66269473701792
 20
124.07447030780796
 10
238.16136360203942
 20
124.52207665756873
 10
237.65090899053536
 20
124.95885474860216
 10
237.13155630489234
 20
125.38461171199904
 10
236.60353487663596
 20
125.79915954546988
 10
236.0670778651645
 20
126.20231519636144
 10
235.52242215479237
 20
126.59390064248755
 10
234.96980825014856
 20
126.97374297073881
 10
234.40948016997666
 20
127.34167445343606
 10
233.841685339383
 20
127.6975326223942
 10
233.2666744805807
 20
128.04116034066368
 10
232.68470150217775
 20
128.37240587191758
 10
232.09602338705827
 20
128.6911229474543
 10
231.50090007890586
 20
128.99717083078548
 10
230.89959436742004
 20
129.29041437978148
 10
230.29237177227554
 20
129.57072410634615
 10
229.67950042587637
 20
129.83797623359536
 10
229.06125095495608
 20
130.09205275051312
 10
228.43789636107655
 20
130.33284146406208
 10
227.80971190007836
 20
130.5602360487249
 10
227.1769749605353
 20
130.77413609345433
 10
226.53996494126764
 20
130.97444714601218
 10
225.8989631279673
 20
131.16108075467665
 10
225.25425256899013
 20
131.33395450730006
 10
224.60611795036962
 20
131.49299206769987
 10
223.95484547010759
 20
131.6381232093665
 10
223.3007227117973
 20
131.76928384647343
 10
222.64403851763447
 20
131.88641606217556
 10
221.98508286087286
 20
131.98946813418388
 10
221.3241467177801
 20
132.07839455760444
 10
220.66152193915093
 20
132.15315606503205
 10
219.99750112143388
 20
132.2137196438896
 10
219.33237747752915
 20
132.26005855100564
 10
218.66644470731387
 20
132.29215232442328
 10
217.99999686795258
 20
132.3099867924356
 10
217.3333282440499
 20
132.3135540798437
 10
216.66673321770264
 20
132.30285261143376
 10
216.00050613850905
 20
132.27788711267306
 10
215.3349411935922
 20
132.23866860762303
 10
214.67033227769537
 20
132.1852144140714
 10
214.0069728634063
 20
132.1175481358853
 10
213.34515587156804
 20
132.03569965258828
 10
212.68517354193324
 20
131.93970510616643
 10
212.02731730411944
 20
131.8296068851091
 10
211.37187764892184
 20
131.70545360569128
 10
210.71914400004079
 20
131.56730009050617
 10
210.06940458628043
 20
131.41520734425683
 10
209.42294631427495
 20
131.24924252681848
 10
208.78005464179876
 20
131.06947892358235
 10
208.14101345171628
 20
130.87599591309512
 10
207.50610492662727
 20
130.6688789320074
 10
206.87560942426305
 20
130.44821943734752
 10
206.2498053536883
 20
130.21411486613644
 10
205.6289690523634
 20
129.96666859236254
 10
205.01337466412184
 20
129.7059898813344
 10
204.40329401811576
 20
129.4321938414324
 10
203.79899650878397
 20
129.1454013732801
 10
203.2007489768949
 20
128.84573911635792
 10
202.60881559171727
 20
128.53333939308263
 10
202.0234577343704
 20
128.20834015037764
 10
201.44493388240556
 20
127.87088489875946
 10
200.87349949566973
 20
127.5211226489674
 10
200.3094069035015
 20
127.15920784616479
 10
199.75290519330974
 20
126.78530030174022
 10
199.20424010058352
 20
126.39956512273938
 10
198.6636539003822
 20
126.00217263895843
 10
198.13138530035366
 20
125.59329832773113
 10
197.60766933532776
 20
125.17312273644309
 10
197.0927372635314
 20
124.74183140280695
 10
196.58681646447158
 20
124.29961477293432
 10
196.0901303385309
 20
123.84666811724004
 10
195.6028982083203
 20
123.3831914442163
 10
195.12533522183233
 20
122.90938941211448
 10
194.65765225743786
 20
122.42547123857392
 10
194.20005583076818
 20
121.93165060823718
 10
193.75274800352344
 20
121.42814557839301
 10
193.3159262942479
 20
120.91517848268833
 10
192.88978359111138
 20
120.39297583295203
 10
192.47450806673513
 20
119.86176821917358
 10
192.07028309510025
 20
119.32179020768115
 10
191.67728717057486
 20
118.7732802375636
 10
191.29569382909588
 20
118.21648051538254
 10
190.92567157154065
 20
117.65163690822075
 10
190.56738378932155
 20
117.07899883511415
 10
190.220988692237
 20
116.4988191569154
 10
189.88663923861046
 20
115.91135406463769
 10
189.56448306774828
 20
115.31686296632793
 10
189.2546624347465
 20
114.71560837251953
 10
188.95731414767482
 20
114.10785578031509
 10
188.67256950716614
 20
113.49387355615043
 10
188.4005542484378
 20
112.87393281729142
 10
188.1413884857705
 20
112.24830731211628
 10
187.89518665946926
 20
111.61727329923607
 10
187.66205748532968
 20
110.98110942550647
 10
187.4421039066322
 20
110.34009660298544
 10
187.23542304868525
 20
109.69451788489012
 10
187.04210617593736
 20
109.04465834060865
 10
186.8622386516775
 20
108.39080492982148
 10
186.69589990034086
 20
107.73324637578813
 10
186.54316337243745
 20
107.07227303785498
 10
186.4040965121182
 20
106.40817678324095
 10
186.27876072739383
 20
105.74125085815696
 10
186.16721136301845
 20
105.07178975831681
 10
186.06949767605118
 20
104.4000890988961
 10
185.9856628141054
 20
103.72644548399688
 10
185.9157437962961
 20
103.05115637567566
 10
185.85977149689327
 20
102.3745199625925
 10
185.81777063168863
 20
101.69683502833934
 10
185.78975974708186
 20
101.01840081950549
 10
185.77575121189108
 20
100.33951691353892
 10
185.77575121189108
 20
99.6604830864611
 10
185.78975974708186
 20
98.98159918049451
 10
185.81777063168863
 20
98.30316497166068
 10
185.85977149689327
 20
97.6254800374075
 10
185.9157437962961
 20
96.94884362432433
 10
185.9856628141054
 20
96.27355451600312
 10
186.06949767605118
 20
95.5999109011039
 10
186.16721136301845
 20
94.92821024168319
 10
186.27876072739383
 20
94.25874914184305
 10
186.4040965121182
 20
93.59182321675907
 10
186.54316337243745
 20
92.92772696214502
 10
186.69589990034086
 20
92.26675362421187
 10
186.8622386516775
 20
91.60919507017852
 10
187.04210617593736
 20
90.95534165939135
 10
187.23542304868525
 20
90.30548211510988
 10
187.4421039066322
 20
89.65990339701457
 10
187.66205748532968
 20
89.01889057449353
 10
187.89518665946926
 20
88.38272670076394
 10
188.1413884857705
 20
87.7516926878837
 10
188.4005542484378
 20
87.12606718270858
 10
188.67256950716614
 20
86.50612644384958
 10
188.95731414767482
 20
85.89214421968491
 10
189.2546624347465
 20
85.28439162748049
 10
189.56448306774828
 20
84.68313703367208
 10
189.88663923861046
 20
84.08864593536231
 10
190.220988692237
 20
83.5011808430846
 10
190.56738378932155
 20
82.92100116488584
 10
190.92567157154065
 20
82.34836309177926
 10
191.29569382909588
 20
81.78351948461747
 10
191.67728717057486
 20
81.22671976243642
 10
192.07028309510025
 20
80.67820979231885
 10
192.47450806673513
 20
80.13823178082642
 10
192.88978359111138
 20
79.60702416704797
 10
193.3159262942479
 20
79.08482151731165
 10
193.75274800352344
 20
78.57185442160699
 10
194.20005583076818
 20
78.06834939176282
 10
194.65765225743786
 20
77.57452876142608
 10
195.12533522183233
 20
77.09061058788552
 10
195.60289820832028
 20
76.6168085557837
 10
196.0901303385309
 20
76.15333188275997
 10
196.58681646447158
 20
75.70038522706568
 10
197.0927372635314
 20
75.25816859719305
 10
197.60766933532776
 20
74.82687726355692
 10
198.13138530035366
 20
74.40670167226887
 10
198.66365390038217
 20
73.99782736104159
 10
199.2042401005835
 20
73.60043487726062
 10
199.75290519330974
 20
73.21469969825979
 10
200.3094069035015
 20
72.84079215383521
 10
200.87349949566973
 20
72.4788773510326
 10
201.44493388240556
 20
72.12911510124054
 10
202.0234577343704
 20
71.79165984962235
 10
202.60881559171727
 20
71.46666060691737
 10
203.2007489768949
 20
71.15426088364208
 10
203.79899650878397
 20
70.85459862671989
 10
204.40329401811576
 20
70.5678061585676
 10
205.01337466412184
 20
70.29401011866562
 10
205.6289690523634
 20
70.03333140763748
 10
206.24980535368826
 20
69.78588513386357
 10
206.87560942426305
 20
69.5517805626525
 10
207.50610492662727
 20
69.3311210679926
 10
208.14101345171628
 20
69.12400408690489
 10
208.78005464179876
 20
68.93052107641765
 10
209.42294631427495
 20
68.75075747318152
 10
210.06940458628043
 20
68.58479265574316
 10
210.71914400004079
 20
68.43269990949383
 10
211.37187764892184
 20
68.29454639430871
 10
212.02731730411946
 20
68.17039311489091
 10
212.68517354193327
 20
68.06029489383357
 10
213.34515587156804
 20
67.96430034741172
 10
214.00697286340628
 20
67.8824518641147
 10
214.67033227769537
 20
67.8147855859286
 10
215.3349411935922
 20
67.76133139237697
 10
216.00050613850902
 20
67.72211288732693
 10
216.66673321770264
 20
67.69714738856622
 10
217.3333282440499
 20
67.6864459201563
 10
217.99999686795258
 20
67.69001320756438
 10
218.66644470731387
 20
67.70784767557673
 10
219.33237747752915
 20
67.73994144899436
 10
219.99750112143388
 20
67.7862803561104
 10
220.66152193915093
 20
67.84684393496795
 10
221.3241467177801
 20
67.92160544239555
 10
221.98508286087286
 20
68.0105318658161
 10
222.64403851763447
 20
68.11358393782444
 10
223.3007227117973
 20
68.23071615352659
 10
223.95484547010759
 20
68.36187679063347
 10
224.6061179503696
 20
68.50700793230011
 10
225.25425256899013
 20
68.66604549269994
 10
225.8989631279673
 20
68.83891924532335
 10
226.5399649412676
 20
69.0255528539878
 10
227.1769749605353
 20
69.22586390654567
 10
227.80971190007833
 20
69.43976395127511
 10
228.43789636107655
 20
69.6671585359379
 10
229.06125095495608
 20
69.9079472494869
 10
229.67950042587637
 20
70.16202376640464
 10
230.29237177227554
 20
70.42927589365384
 10
230.89959436742004
 20
70.70958562021853
 10
231.50090007890586
 20
71.00282916921452
 10
232.09602338705827
 20
71.30887705254571
 10
232.68470150217777
 20
71.62759412808242
 10
233.26667448058066
 20
71.95883965933632
 10
233.841685339383
 20
72.30246737760578
 10
234.40948016997666
 20
72.65832554656393
 10
234.96980825014856
 20
73.02625702926117
 10
235.52242215479237
 20
73.40609935751243
 10
236.0670778651645
 20
73.79768480363856
 10
236.60353487663596
 20
74.20084045453011
 10
237.13155630489234
 20
74.61538828800096
 10
237.65090899053536
 20
75.04114525139784
 10
238.16136360203942
 20
75.47792334243127
 10
238.66269473701792
 20
75.92552969219204
 10
239.15468102175473
 20
76.38376665031674
 10
239.63710520895648
 20
76.85243187226456
 10
240.1097542736829
 20
77.33131840866696
 10
240.57241950741263
 20
77.82021479671064
 10
241.024896610203
 20
78.31890515351364
 10
241.46698578090317
 20
78.82716927145313
 10
241.8984918053807
 20
79.34478271540284
 10
242.31922414272256
 20
79.87151692183733
 10
242.72899700937265
 20
80.40713929975921
 10
243.12762946116865
 20
80.95141333340477
 10
243.51494547324182
 20
81.50409868668271
 10
243.89077401774463
 20
82.06495130929973
 10
244.2549491393718
 20
82.63372354452633
 10
244.6073100286416
 20
83.21016423855504
 10
244.94770109290465
 20
83.79401885140283
 10
245.2759720250494
 20
84.38502956930884
 10
245.59197786987343
 20
84.9829354185777
 10
245.89557908809158
 20
85.58747238081808
 10
246.1866416179526
 20
86.1983735095259
 10
246.46503693443702
 20
86.81536904796022
 10
246.73064210601032
 20
87.43818654826049
 10
246.98333984890573
 20
88.06655099175155
 10
247.22301857891378
 20
88.70018491038437
 10
247.44957246065448
 20
89.33880850925799
 10
247.66290145431145
 20
89.98213979016911
 10
247.86291135980653
 20
90.62989467613463
 10
248.04951385839598
 20
91.28178713683194
 10
248.22262655166944
 20
91.9375293149019
 10
248.38217299793496
 20
92.5968316530586
 10
248.52808274597322
 20
93.25940302194961
 10
248.66029136614702
 20
93.92495084871057
 10
248.77874047885157
 20
94.59318124615713
 10
248.88337778029313
 20
95.26379914255723
 10
248.97415706558505
 20
95.93650841192648
 10
249.0510382491505
 20
96.61101200478903
 10
249.11398738242312
 20
97.2870120793464
 10
249.1629766688377
 20
97.9642101329958
 10
249.19798447610452
 20
98.64230713414065
 10
249.21899534576136
 20
99.32100365423443
 10
249.2259999999997
 20
99.99999999999999
  0
LINE
  5
99
330
17
100
AcDbEntity
  8
Layer
100
AcDbLine
 10
415.64627919408986
 20
99.99999999999997
 30
0.0
 11
419.64627919408986
 21
99.99999999999997
 31
0.0
  0
LINE
  5
9A
330
17
100
AcDbEntity
  8
Layer
100
AcDbLine
 10
4.071973864849184
 20
100.00000000000003
 30
0.0
 11
0.07197386484918411
 21
100.00000000000003
 31
0.0
  0
LINE
  5
9B
330
17
100
AcDbEntity
  8
Layer
100
AcDbLine
 10
90.6868349306973
 20
100.00000000000001
 30
0.0
 11
79.6868349306973
 21
100.00000000000001
 31
0.0
  0
LWPOLYLINE
  5
9C
330
17
100
AcDbEntity
  8
Layer
100
AcDbPolyline
 90
5
 70
0
 10
80.1868349306973
 20
95.00000000000001
 10
80.1868349306973
 20
105.00000000000001
 10
90.1868349306973
 20
105.00000000000001
 10
90.1868349306973
 20
95.00000000000001
 10
80.1868349306973
 20
95.00000000000001
  0
LINE
  5
9D
330
17
100
AcDbEntity
  8
Layer
100
AcDbLine
 10
215.3591265294695
 20
100.0
 30
0.0
 11
204.3591265294695
 21
100.0
 31
0.0
  0
LWPOLYLINE
  5
9E
330
17
100
AcDbEntity
  8
Layer
100
AcDbPolyline
 90
5
 70
0
 10
204.8591265294695
 20
95.0
 10
204.8591265294695
 20
105.0
 10
214.8591265294695
 20
105.0
 10
214.8591265294695
 20
95.0
 10
204.8591265294695
 20
95.0
  0
LINE
  5
9F
330
17
100
AcDbEntity
  8
Layer
100
AcDbLine
 10
340.03141812824174
 20
99.99999999999999
 30
0.0
 11
329.03141812824174
 21
99.99999999999999
 31
0.0
  0
LWPOLYLINE
  5
A0
330
17
100
AcDbEntity
  8
Layer
100
AcDbPolyline
 90
5
 70
0
 10
329.53141812824174
 20
94.99999999999999
 10
329.53141812824174
 20
104.99999999999999
 10
339.53141812824174
 20
104.99999999999999
 10
339.53141812824174
 20
94.99999999999999
 10
329.53141812824174
 20
94.99999999999999
  0
LINE
  5
A1
330
17
100
AcDbEntity
  8
Layer
100
AcDbLine
 10
2.492652711923853
 20
95.00640374141742
 30
0.0
 11
-1.4955582969838304
 21
95.31327985392468
 31
0.0
  0
LINE
  5
A2
330
17
100
AcDbEntity
  8
Layer
100
AcDbLine
 10
529.3051258477699
 20
54.470393130346416
 30
0.0
 11
533.2933368566776
 21
54.16351701783913
 31
0.0
  0
LINE
  5
A3
330
17
100
AcDbEntity
  8
Layer
100
AcDbLine
 10
565.976377294233
 20
51.648694113034495
 30
0.0
 11
569.9645883031407
 21
51.34181800052721
 31
0.0
  0
LINE
  5
A4
330
17
100
AcDbEntity
  8
Layer
100
AcDbLine
 10
217.49999999999974
 20
132.31399999999994
 30
0.0
 11
217.49999999999974
 21
132.81399999999994
 31
0.0
  0
LINE
  5
A5
330
17
100
AcDbEntity
  8
Layer
100
AcDbLine
 10
217.49999999999974
 20
67.68600000000006
 30
0.0
 11
217.49999999999974
 21
67.18600000000006
 31
0.0
  0
LINE
  5
A6
330
17
100
AcDbEntity
  8
Layer
100
AcDbLine
 10
249.2259999999997
 20
100.0
 30
0.0
 11
249.7259999999997
 21
100.0
 31
0.0
  0
LINE
  5
A7
330
17
100
AcDbEntity
  8
Layer
100
AcDbLine
 10
185.7739999999998
 20
100.0
 30
0.0
 11
185.2739999999998
 21
100.0
 31
0.0
  0
LINE
  5
A8
330
17
100
AcDbEntity
  8
Layer
100
AcDbLine
 10
52.499999999999744
 20
126.04183708706285
 30
0.0
 11
52.499999999999744
 21
130.04183708706285
 31
0.0
  0
LINE
  5
A9
330
17
100
AcDbEntity
  8
Layer
100
AcDbLine
 10
52.499999999999744
 20
74.64765251591729
 30
0.0
 11
52.499999999999744
 21
70.64765251591729
 31
0.0
  0
LINE
  5
AA
330
17
100
AcDbEntity
  8
Layer
100
AcDbLine
 10
52.499999999999744
 20
89.22648943014639
 30
0.0
 11
52.499999999999744
 21
78.22648943014639
 31
0.0
  0
LWPOLYLINE
  5
AB
330
17
100
AcDbEntity
  8
Layer
100
AcDbPolyline
 90
5
 70
0
 10
57.499999999999744
 20
78.72648943014639
 10
47.499999999999744
 20
78.72648943014639
 10
47.499999999999744
 20
88.72648943014639
 10
57.499999999999744
 20
88.72648943014639
 10
57.499999999999744
 20
78.72648943014639
  0
LINE
  5
AC
330
17
100
AcDbEntity
  8
Layer
100
AcDbLine
 10
52.499999999999744
 20
105.84474480149007
 30
0.0
 11
52.499999999999744
 21
94.84474480149007
 31
0.0
  0
LWPOLYLINE
  5
AD
330
17
100
AcDbEntity
  8
Layer
100
AcDbPolyline
 90
5
 70
0
 10
57.499999999999744
 20
95.34474480149007
 10
47.499999999999744
 20
95.34474480149007
 10
47.499999999999744
 20
105.34474480149007
 10
57.499999999999744
 20
105.34474480149007
 10
57.499999999999744
 20
95.34474480149007
  0
LINE
  5
AE
330
17
100
AcDbEntity
  8
Layer
100
AcDbLine
 10
52.499999999999744
 20
122.46300017283373
 30
0.0
 11
52.499999999999744
 21
111.46300017283373
 31
0.0
  0
LWPOLYLINE
  5
AF
330
17
100
AcDbEntity
  8
Layer
100
AcDbPolyline
 90
5
 70
0
 10
57.499999999999744
 20
111.96300017283373
 10
47.499999999999744
 20
111.96300017283373
 10
47.499999999999744
 20
121.96300017283373
 10
57.499999999999744
 20
121.96300017283373
 10
57.499999999999744
 20
111.96300017283373
  0
LINE
  5
B0
330
17
100
AcDbEntity
  8
Layer
100
AcDbLine
 10
347.4999999999998
 20
115.94840094520002
 30
0.0
 11
347.4999999999998
 21
119.94840094520002
 31
0.0
  0
LINE
  5
B1
330
17
100
AcDbEntity
  8
Layer
100
AcDbLine
 10
347.4999999999998
 20
60.52613638057743
 30
0.0
 11
347.4999999999998
 21
56.52613638057743
 31
0.0
  0
LINE
  5
B2
330
17
100
AcDbEntity
  8
Layer
100
AcDbLine
 10
347.4999999999998
 20
75.91058929350194
 30
0.0
 11
347.4999999999998
 21
64.91058929350194
 31
0.0
  0
LWPOLYLINE
  5
B3
330
17
100
AcDbEntity
  8
Layer
100
AcDbPolyline
 90
5
 70
0
 10
352.4999999999998
 20
65.41058929350194
 10
342.4999999999998
 20
65.41058929350194
 10
342.4999999999998
 20
75.41058929350194
 10
352.4999999999998
 20
75.41058929350194
 10
352.4999999999998
 20
65.41058929350194
  0
LINE
  5
B4
330
17
100
AcDbEntity
  8
Layer
100
AcDbLine
 10
347.4999999999998
 20
93.73726866288872
 30
0.0
 11
347.4999999999998
 21
82.73726866288872
 31
0.0
  0
LWPOLYLINE
  5
B5
330
17
100
AcDbEntity
  8
Layer
100
AcDbPolyline
 90
5
 70
0
 10
352.4999999999998
 20
83.23726866288872
 10
342.4999999999998
 20
83.23726866288872
 10
342.4999999999998
 20
93.23726866288872
 10
352.4999999999998
 20
93.23726866288872
 10
352.4999999999998
 20
83.23726866288872
  0
LINE
  5
B6
330
17
100
AcDbEntity
  8
Layer
100
AcDbLine
 10
347.4999999999998
 20
111.5639480322755
 30
0.0
 11
347.4999999999998
 21
100.5639480322755
 31
0.0
  0
LWPOLYLINE
  5
B7
330
17
100
AcDbEntity
  8
Layer
100
AcDbPolyline
 90
5
 70
0
 10
352.4999999999998
 20
101.0639480322755
 10
342.4999999999998
 20
101.0639480322755
 10
342.4999999999998
 20
111.0639480322755
 10
352.4999999999998
 20
111.0639480322755
 10
352.4999999999998
 20
101.0639480322755
  0
ENDSEC
  0
SECTION
  2
OBJECTS
  0
DICTIONARY
  5
A
330
0
100
AcDbDictionary
280
0
281
1
  3
ACAD_COLOR
350
B
  3
ACAD_GROUP
350
C
  3
ACAD_LAYOUT
350
D
  3
ACAD_MATERIAL
350
E
  3
ACAD_MLEADERSTYLE
350
F
  3
ACAD_MLINESTYLE
350
10
  3
ACAD_PLOTSETTINGS
350
11
  3
ACAD_PLOTSTYLENAME
350
12
  3
ACAD_SCALELIST
350
14
  3
ACAD_TABLESTYLE
350
15
  3
ACAD_VISUALSTYLE
350
16
  3
EZDXF_META
350
2D
  0
DICTIONARY
  5
B
330
A
100
AcDbDictionary
280
0
281
1
  0
DICTIONARY
  5
C
330
A
100
AcDbDictionary
280
0
281
1
  0
DICTIONARY
  5
D
330
A
100
AcDbDictionary
280
0
281
1
  3
Model
350
1A
  3
Layout1
350
1E
  0
DICTIONARY
  5
E
330
A
100
AcDbDictionary
280
0
281
1
  3
ByBlock
350
1F
  3
ByLayer
350
20
  3
Global
350
21
  0
DICTIONARY
  5
F
330
A
100
AcDbDictionary
280
0
281
1
  3
Standard
350
2C
  0
DICTIONARY
  5
10
330
A
100
AcDbDictionary
280
0
281
1
  3
Standard
350
22
  0
DICTIONARY
  5
11
330
A
100
AcDbDictionary
280
0
281
1
  0
ACDBDICTIONARYWDFLT
  5
12
330
A
100
AcDbDictionary
280
0
281
1
  3
Normal
350
13
100
AcDbDictionaryWithDefault
340
13
  0
ACDBPLACEHOLDER
  5
13
330
12
  0
DICTIONARY
  5
14
330
A
100
AcDbDictionary
280
0
281
1
  0
DICTIONARY
  5
15
330
A
100
AcDbDictionary
280
0
281
1
  0
DICTIONARY
  5
16
330
A
100
AcDbDictionary
280
0
281
1
  3
2dWireframe
350
5A
  3
Basic
350
5B
  3
Brighten
350
5C
  3
ColorChange
350
5D
  3
Conceptual
350
5E
  3
Dim
350
5F
  3
EdgeColorOff
350
60
  3
Facepattern
350
61
  3
Flat
350
62
  3
FlatWithEdges
350
63
  3
Gouraud
350
64
  3
GouraudWithEdges
350
65
  3
Hidden
350
66
  3
JitterOff
350
67
  3
Linepattern
350
68
  3
Modeling
350
69
  3
OverhangOff
350
6A
  3
Realistic
350
6B
  3
Shaded
350
6C
  3
Shaded with edges
350
6D
  3
Shades of Gray
350
6E
  3
Sketchy
350
6F
  3
Thicken
350
70
  3
Wireframe
350
71
  3
X-Ray
350
72
  0
LAYOUT
  5
1A
330
D
100
AcDbPlotSettings
  1

  2
Adobe PDF
  4
A3
  6

 40
7.5
 41
20.0
 42
7.5
 43
20.0
 44
420.0
 45
297.0
 46
0.0
 47
0.0
 48
0.0
 49
0.0
140
0.0
141
0.0
142
1.0
143
1.0
 70
1024
 72
1
 73
0
 74
5
  7

 75
16
 76
0
 77
2
 78
300
147
1.0
148
0.0
149
0.0
100
AcDbLayout
  1
Model
 70
1
 71
0
 10
0.0
 20
0.0
 11
420.0
 21
297.0
 12
0.0
 22
0.0
 32
0.0
 14
1e+20
 24
1e+20
 34
1e+20
 15
-1e+20
 25
-1e+20
 35
-1e+20
146
0.0
 13
0.0
 23
0.0
 33
0.0
 16
1.0
 26
0.0
 36
0.0
 17
0.0
 27
1.0
 37
0.0
 76
1
330
17
  0
LAYOUT
  5
1E
330
D
100
AcDbPlotSettings
  1

  2
Adobe PDF
  4
A3
  6

 40
7.5
 41
20.0
 42
7.5
 43
20.0
 44
420.0
 45
297.0
 46
0.0
 47
0.0
 48
0.0
 49
0.0
140
0.0
141
0.0
142
1.0
143
1.0
 70
0
 72
1
 73
0
 74
5
  7

 75
16
 76
0
 77
2
 78
300
147
1.0
148
0.0
149
0.0
100
AcDbLayout
  1
Layout1
 70
1
 71
1
 10
0.0
 20
0.0
 11
420.0
 21
297.0
 12
0.0
 22
0.0
 32
0.0
 14
1e+20
 24
1e+20
 34
1e+20
 15
-1e+20
 25
-1e+20
 35
-1e+20
146
0.0
 13
0.0
 23
0.0
 33
0.0
 16
1.0
 26
0.0
 36
0.0
 17
0.0
 27
1.0
 37
0.0
 76
1
330
1B
  0
MATERIAL
  5
1F
102
{ACAD_REACTORS
330
E
102
}
330
E
100
AcDbMaterial
  1
ByBlock
  2

 70
0
 40
1.0
 71
1
 41
1.0
 91
-1023410177
 42
1.0
 72
1
  3

 73
1
 74
1
 75
1
 44
0.5
 73
0
 45
1.0
 46
1.0
 77
1
  4

 78
1
 79
1
170
1
 48
1.0
171
1
  6

172
1
173
1
174
1
140
1.0
141
1.0
175
1
  7

176
1
177
1
178
1
143
1.0
179
1
  8

270
1
271
1
272
1
145
1.0
146
1.0
273
1
  9

274
1
275
1
276
1
 42
1.0
 72
1
  3

 73
1
 74
1
 75
1
 94
63
  0
MATERIAL
  5
20
102
{ACAD_REACTORS
330
E
102
}
330
E
100
AcDbMaterial
  1
ByLayer
  2

 70
0
 40
1.0
 71
1
 41
1.0
 91
-1023410177
 42
1.0
 72
1
  3

 73
1
 74
1
 75
1
 44
0.5
 73
0
 45
1.0
 46
1.0
 77
1
  4

 78
1
 79
1
170
1
 48
1.0
171
1
  6

172
1
173
1
174
1
140
1.0
141
1.0
175
1
  7

176
1
177
1
178
1
143
1.0
179
1
  8

270
1
271
1
272
1
145
1.0
146
1.0
273
1
  9

274
1
275
1
276
1
 42
1.0
 72
1
  3

 73
1
 74
1
 75
1
 94
63
  0
MATERIAL
  5
21
102
{ACAD_REACTORS
330
E
102
}
330
E
100
AcDbMaterial
  1
Global
  2

 70
0
 40
1.0
 71
1
 41
1.0
 91
-1023410177
 42
1.0
 72
1
  3

 73
1
 74
1
 75
1
 44
0.5
 73
0
 45
1.0
 46
1.0
 77
1
  4

 78
1
 79
1
170
1
 48
1.0
171
1
  6

172
1
173
1
174
1
140
1.0
141
1.0
175
1
  7

176
1
177
1
178
1
143
1.0
179
1
  8

270
1
271
1
272
1
145
1.0
146
1.0
273
1
  9

274
1
275
1
276
1
 42
1.0
 72
1
  3

 73
1
 74
1
 75
1
 94
63
  0
MLINESTYLE
  5
22
102
{ACAD_REACTORS
330
10
102
}
330
10
100
AcDbMlineStyle
  2
Standard
 70
0
  3

 62
256
 51
90.0
 52
90.0
 71
2
 49
0.5
 62
256
  6
BYLAYER
 49
-0.5
 62
256
  6
BYLAYER
  0
MLEADERSTYLE
  5
2C
102
{ACAD_REACTORS
330
F
102
}
330
F
100
AcDbMLeaderStyle
179
2
170
2
171
1
172
0
 90
2
 40
0.0
 41
0.0
173
1
 91
-1056964608
 92
-2
290
1
 42
2.0
291
1
 43
8.0
  3
Standard
 44
4.0
300

342
29
174
1
175
1
176
0
178
1
 93
-1056964608
 45
4.0
292
0
297
0
 46
4.0
 94
-1056964608
 47
1.0
 49
1.0
140
1.0
294
1
141
0.0
177
0
142
1.0
295
0
296
0
143
3.75
271
0
272
9
273
9
  0
DICTIONARY
  5
2D
330
A
100
AcDbDictionary
281
1
  3
CREATED_BY_EZDXF
350
2E
  3
WRITTEN_BY_EZDXF
350
BA
  0
DICTIONARYVAR
  5
2E
330
2D
100
DictionaryVariables
280
0
  1
1.1.0 @ 2024-03-26T01:33:50.038159+00:00
  0
VISUALSTYLE
  5
5A
102
{ACAD_REACTORS
330
16
102
}
330
16
100
AcDbVisualStyle
  2
2dWireframe
 70
4
 90
0
 40
0.6
 62
7
290
0
291
0
  0
VISUALSTYLE
  5
5B
102
{ACAD_REACTORS
330
16
102
}
330
16
100
AcDbVisualStyle
  2
Basic
 70
7
 90
1
 40
0.6
 62
7
290
0
291
1
  0
VISUALSTYLE
  5
5C
102
{ACAD_REACTORS
330
16
102
}
330
16
100
AcDbVisualStyle
  2
Brighten
 70
12
 90
2
 40
0.6
 62
7
290
0
291
1
  0
VISUALSTYLE
  5
5D
102
{ACAD_REACTORS
330
16
102
}
330
16
100
AcDbVisualStyle
  2
ColorChange
 70
16
 90
2
 40
0.6
 62
8
290
0
291
1
  0
VISUALSTYLE
  5
5E
102
{ACAD_REACTORS
330
16
102
}
330
16
100
AcDbVisualStyle
  2
Conceptual
 70
9
 90
3
 40
0.6
 62
7
290
0
291
0
  0
VISUALSTYLE
  5
5F
102
{ACAD_REACTORS
330
16
102
}
330
16
100
AcDbVisualStyle
  2
Dim
 70
11
 90
2
 40
0.6
 62
7
290
0
291
1
  0
VISUALSTYLE
  5
60
102
{ACAD_REACTORS
330
16
102
}
330
16
100
AcDbVisualStyle
  2
EdgeColorOff
 70
22
 90
2
 40
0.6
 62
7
290
0
291
1
  0
VISUALSTYLE
  5
61
102
{ACAD_REACTORS
330
16
102
}
330
16
100
AcDbVisualStyle
  2
Facepattern
 70
15
 90
2
 40
0.6
 62
7
290
0
291
1
  0
VISUALSTYLE
  5
62
102
{ACAD_REACTORS
330
16
102
}
330
16
100
AcDbVisualStyle
  2
Flat
 70
0
 90
2
 40
0.6
 62
7
290
0
291
1
  0
VISUALSTYLE
  5
63
102
{ACAD_REACTORS
330
16
102
}
330
16
100
AcDbVisualStyle
  2
FlatWithEdges
 70
1
 90
2
 40
0.6
 62
7
290
0
291
1
  0
VISUALSTYLE
  5
64
102
{ACAD_REACTORS
330
16
102
}
330
16
100
AcDbVisualStyle
  2
Gouraud
 70
2
 90
2
 40
0.6
 62
7
290
0
291
1
  0
VISUALSTYLE
  5
65
102
{ACAD_REACTORS
330
16
102
}
330
16
100
AcDbVisualStyle
  2
GouraudWithEdges
 70
3
 90
2
 40
0.6
 62
7
290
0
291
1
  0
VISUALSTYLE
  5
66
102
{ACAD_REACTORS
330
16
102
}
330
16
100
AcDbVisualStyle
  2
Hidden
 70
6
 90
1
 40
0.6
 62
7
290
0
291
0
  0
VISUALSTYLE
  5
67
102
{ACAD_REACTORS
330
16
102
}
330
16
100
AcDbVisualStyle
  2
JitterOff
 70
20
 90
2
 40
0.6
 62
7
290
0
291
1
  0
VISUALSTYLE
  5
68
102
{ACAD_REACTORS
330
16
102
}
330
16
100
AcDbVisualStyle
  2
Linepattern
 70
14
 90
2
 40
0.6
 62
7
290
0
291
1
  0
VISUALSTYLE
  5
69
102
{ACAD_REACTORS
330
16
102
}
330
16
100
AcDbVisualStyle
  2
Modeling
 70
10
 90
2
 40
0.6
 62
7
290
0
291
0
  0
VISUALSTYLE
  5
6A
102
{ACAD_REACTORS
330
16
102
}
330
16
100
AcDbVisualStyle
  2
OverhangOff
 70
21
 90
2
 40
0.6
 62
7
290
0
291
1
  0
VISUALSTYLE
  5
6B
102
{ACAD_REACTORS
330
16
102
}
330
16
100
AcDbVisualStyle
  2
Realistic
 70
8
 90
2
 40
0.6
 62
7
290
0
291
0
  0
VISUALSTYLE
  5
6C
102
{ACAD_REACTORS
330
16
102
}
330
16
100
AcDbVisualStyle
  2
Shaded
 70
27
 90
2
 40
0.6
 62
7
290
0
291
0
  0
VISUALSTYLE
  5
6D
102
{ACAD_REACTORS
330
16
102
}
330
16
100
AcDbVisualStyle
  2
Shaded with edges
 70
26
 90
2
 40
0.6
 62
7
290
0
291
0
  0
VISUALSTYLE
  5
6E
102
{ACAD_REACTORS
330
16
102
}
330
16
100
AcDbVisualStyle
  2
Shades of Gray
 70
23
 90
2
 40
0.6
 62
7
290
0
291
0
  0
VISUALSTYLE
  5
6F
102
{ACAD_REACTORS
330
16
102
}
330
16
100
AcDbVisualStyle
  2
Sketchy
 70
24
 90
1
 40
0.6
 62
7
290
0
291
0
  0
VISUALSTYLE
  5
70
102
{ACAD_REACTORS
330
16
102
}
330
16
100
AcDbVisualStyle
  2
Thicken
 70
13
 90
2
 40
0.6
 62
7
290
0
291
1
  0
VISUALSTYLE
  5
71
102
{ACAD_REACTORS
330
16
102
}
330
16
100
AcDbVisualStyle
  2
Wireframe
 70
5
 90
0
 40
0.6
 62
7
290
0
291
0
  0
VISUALSTYLE
  5
72
102
{ACAD_REACTORS
330
16
102
}
330
16
100
AcDbVisualStyle
  2
X-Ray
 70
25
 90
2
 40
0.5
 62
7
290
0
291
0
  0
DICTIONARYVAR
  5
BA
330
2D
100
DictionaryVariables
280
0
  1
1.1.0 @ 2024-03-26T01:33:50.054558+00:00
  0
ENDSEC
  0
EOF
