  0
SECTION
  2
HEADER
  9
$ACADVER
  1
AC1021
  9
$ACADMAINTVER
 70
25
  9
$DWGCODEPAGE
  3
ANSI_1252
  9
$LASTSAVEDBY
  1
ezdxf
  9
$INSBASE
 10
0.0
 20
0.0
 30
0.0
  9
$EXTMIN
 10
1e+20
 20
1e+20
 30
1e+20
  9
$EXTMAX
 10
-1e+20
 20
-1e+20
 30
-1e+20
  9
$LIMMIN
 10
0.0
 20
0.0
  9
$LIMMAX
 10
420.0
 20
297.0
  9
$ORTHOMODE
 70
0
  9
$REGENMODE
 70
1
  9
$FILLMODE
 70
1
  9
$QTEXTMODE
 70
0
  9
$MIRRTEXT
 70
1
  9
$LTSCALE
 40
1.0
  9
$ATTMODE
 70
1
  9
$TEXTSIZE
 40
2.5
  9
$TRACEWID
 40
1.0
  9
$TEXTSTYLE
  7
OpenSans
  9
$CLAYER
  8
0
  9
$CELTYPE
  6
ByLayer
  9
$CECOLOR
 62
256
  9
$CELTSCALE
 40
1.0
  9
$DISPSILH
 70
0
  9
$DIMSCALE
 40
1.0
  9
$DIMASZ
 40
0.175
  9
$DIMEXO
 40
0.125
  9
$DIMDLI
 40
3.75
  9
$DIMRND
 40
0.0
  9
$DIMDLE
 40
0.0
  9
$DIMEXE
 40
0.375
  9
$DIMTP
 40
0.0
  9
$DIMTM
 40
0.0
  9
$DIMTXT
 40
0.25
  9
$DIMCEN
 40
2.5
  9
$DIMTSZ
 40
0.0
  9
$DIMTOL
 70
0
  9
$DIMLIM
 70
0
  9
$DIMTIH
 70
0
  9
$DIMTOH
 70
0
  9
$DIMSE1
 70
0
  9
$DIMSE2
 70
0
  9
$DIMTAD
 70
1
  9
$DIMZIN
 70
12
  9
$DIMBLK
  1
ARCHTICK
  9
$DIMASO
 70
1
  9
$DIMSHO
 70
1
  9
$DIMPOST
  1

  9
$DIMAPOST
  1

  9
$DIMALT
 70
0
  9
$DIMALTD
 70
3
  9
$DIMALTF
 40
0.03937007874
  9
$DIMLFAC
 40
100.0
  9
$DIMTOFL
 70
1
  9
$DIMTVP
 40
0.0
  9
$DIMTIX
 70
0
  9
$DIMSOXD
 70
0
  9
$DIMSAH
 70
0
  9
$DIMBLK1
  1

  9
$DIMBLK2
  1

  9
$DIMSTYLE
  2
EZDXF
  9
$DIMCLRD
 70
0
  9
$DIMCLRE
 70
0
  9
$DIMCLRT
 70
0
  9
$DIMTFAC
 40
0.5
  9
$DIMGAP
 40
0.1
  9
$DIMJUST
 70
0
  9
$DIMSD1
 70
0
  9
$DIMSD2
 70
0
  9
$DIMTOLJ
 70
0
  9
$DIMTZIN
 70
8
  9
$DIMALTZ
 70
0
  9
$DIMALTTZ
 70
0
  9
$DIMUPT
 70
1
  9
$DIMDEC
 70
2
  9
$DIMTDEC
 70
2
  9
$DIMALTU
 70
2
  9
$DIMALTTD
 70
3
  9
$DIMTXSTY
  7
OpenSansCondensed-Light
  9
$DIMAUNIT
 70
0
  9
$DIMADEC
 70
2
  9
$DIMALTRND
 40
0.0
  9
$DIMAZIN
 70
3
  9
$DIMDSEP
 70
46
  9
$DIMATFIT
 70
3
  9
$DIMFRAC
 70
0
  9
$DIMLDRBLK
  1

  9
$DIMLUNIT
 70
2
  9
$DIMLWD
 70
-2
  9
$DIMLWE
 70
-2
  9
$DIMTMOVE
 70
2
  9
$DIMFXL
 40
1.0
  9
$DIMFXLON
 70
0
  9
$DIMJOGANG
 40
0.785398163397
  9
$DIMTFILL
 70
0
  9
$DIMTFILLCLR
 70
0
  9
$DIMARCSYM
 70
0
  9
$DIMLTYPE
  6

  9
$DIMLTEX1
  6

  9
$DIMLTEX2
  6

  9
$LUNITS
 70
2
  9
$LUPREC
 70
4
  9
$SKETCHINC
 40
1.0
  9
$FILLETRAD
 40
10.0
  9
$AUNITS
 70
0
  9
$AUPREC
 70
2
  9
$MENU
  1
.
  9
$ELEVATION
 40
0.0
  9
$PELEVATION
 40
0.0
  9
$THICKNESS
 40
0.0
  9
$LIMCHECK
 70
0
  9
$CHAMFERA
 40
0.0
  9
$CHAMFERB
 40
0.0
  9
$CHAMFERC
 40
0.0
  9
$CHAMFERD
 40
0.0
  9
$SKPOLY
 70
0
  9
$TDCREATE
 40
2460396.440138889
  9
$TDUCREATE
 40
2458532.153996898
  9
$TDUPDATE
 40
2460396.440138889
  9
$TDUUPDATE
 40
2458532.1544311
  9
$TDINDWG
 40
0.0
  9
$TDUSRTIMER
 40
0.0
  9
$USRTIMER
 70
1
  9
$ANGBASE
 50
0.0
  9
$ANGDIR
 70
0
  9
$PDMODE
 70
0
  9
$PDSIZE
 40
0.0
  9
$PLINEWID
 40
0.0
  9
$SPLFRAME
 70
0
  9
$SPLINETYPE
 70
6
  9
$SPLINESEGS
 70
8
  9
$HANDSEED
  5
BB
  9
$SURFTAB1
 70
6
  9
$SURFTAB2
 70
6
  9
$SURFTYPE
 70
6
  9
$SURFU
 70
6
  9
$SURFV
 70
6
  9
$UCSBASE
  2

  9
$UCSNAME
  2

  9
$UCSORG
 10
0.0
 20
0.0
 30
0.0
  9
$UCSXDIR
 10
1.0
 20
0.0
 30
0.0
  9
$UCSYDIR
 10
0.0
 20
1.0
 30
0.0
  9
$UCSORTHOREF
  2

  9
$UCSORTHOVIEW
 70
0
  9
$UCSORGTOP
 10
0.0
 20
0.0
 30
0.0
  9
$UCSORGBOTTOM
 10
0.0
 20
0.0
 30
0.0
  9
$UCSORGLEFT
 10
0.0
 20
0.0
 30
0.0
  9
$UCSORGRIGHT
 10
0.0
 20
0.0
 30
0.0
  9
$UCSORGFRONT
 10
0.0
 20
0.0
 30
0.0
  9
$UCSORGBACK
 10
0.0
 20
0.0
 30
0.0
  9
$PUCSBASE
  2

  9
$PUCSNAME
  2

  9
$PUCSORG
 10
0.0
 20
0.0
 30
0.0
  9
$PUCSXDIR
 10
1.0
 20
0.0
 30
0.0
  9
$PUCSYDIR
 10
0.0
 20
1.0
 30
0.0
  9
$PUCSORTHOREF
  2

  9
$PUCSORTHOVIEW
 70
0
  9
$PUCSORGTOP
 10
0.0
 20
0.0
 30
0.0
  9
$PUCSORGBOTTOM
 10
0.0
 20
0.0
 30
0.0
  9
$PUCSORGLEFT
 10
0.0
 20
0.0
 30
0.0
  9
$PUCSORGRIGHT
 10
0.0
 20
0.0
 30
0.0
  9
$PUCSORGFRONT
 10
0.0
 20
0.0
 30
0.0
  9
$PUCSORGBACK
 10
0.0
 20
0.0
 30
0.0
  9
$USERI1
 70
0
  9
$USERI2
 70
0
  9
$USERI3
 70
0
  9
$USERI4
 70
0
  9
$USERI5
 70
0
  9
$USERR1
 40
0.0
  9
$USERR2
 40
0.0
  9
$USERR3
 40
0.0
  9
$USERR4
 40
0.0
  9
$USERR5
 40
0.0
  9
$WORLDVIEW
 70
1
  9
$SHADEDGE
 70
3
  9
$SHADEDIF
 70
70
  9
$TILEMODE
 70
1
  9
$MAXACTVP
 70
64
  9
$PINSBASE
 10
0.0
 20
0.0
 30
0.0
  9
$PLIMCHECK
 70
0
  9
$PEXTMIN
 10
1e+20
 20
1e+20
 30
1e+20
  9
$PEXTMAX
 10
-1e+20
 20
-1e+20
 30
-1e+20
  9
$PLIMMIN
 10
0.0
 20
0.0
  9
$PLIMMAX
 10
420.0
 20
297.0
  9
$UNITMODE
 70
0
  9
$VISRETAIN
 70
1
  9
$PLINEGEN
 70
0
  9
$PSLTSCALE
 70
1
  9
$TREEDEPTH
 70
3020
  9
$CMLSTYLE
  2
Standard
  9
$CMLJUST
 70
0
  9
$CMLSCALE
 40
20.0
  9
$PROXYGRAPHICS
 70
1
  9
$MEASUREMENT
 70
1
  9
$CELWEIGHT
370
-1
  9
$ENDCAPS
280
0
  9
$JOINSTYLE
280
0
  9
$LWDISPLAY
290
0
  9
$INSUNITS
 70
6
  9
$HYPERLINKBASE
  1

  9
$STYLESHEET
  1

  9
$XEDIT
290
1
  9
$CEPSNTYPE
380
0
  9
$PSTYLEMODE
290
1
  9
$FINGERPRINTGUID
  2
{4AFE43F9-614A-44BA-B7DB-48A822A3ECD9}
  9
$VERSIONGUID
  2
{A929A874-5019-4F85-A7F3-2ABF18AA81B0}
  9
$EXTNAMES
290
1
  9
$PSVPSCALE
 40
0.0
  9
$OLESTARTUP
290
0
  9
$SORTENTS
280
127
  9
$INDEXCTL
280
0
  9
$HIDETEXT
280
1
  9
$XCLIPFRAME
290
0
  9
$HALOGAP
280
0
  9
$OBSCOLOR
 70
257
  9
$OBSLTYPE
280
0
  9
$INTERSECTIONDISPLAY
280
0
  9
$INTERSECTIONCOLOR
 70
257
  9
$DIMASSOC
280
2
  9
$PROJECTNAME
  1

  9
$CAMERADISPLAY
290
0
  9
$LENSLENGTH
 40
50.0
  9
$CAMERAHEIGHT
 40
0.0
  9
$STEPSPERSEC
 40
24.0
  9
$STEPSIZE
 40
100.0
  9
$3DDWFPREC
 40
2.0
  9
$PSOLWIDTH
 40
0.005
  9
$PSOLHEIGHT
 40
0.08
  9
$LOFTANG1
 40
1.570796326795
  9
$LOFTANG2
 40
1.570796326795
  9
$LOFTMAG1
 40
0.0
  9
$LOFTMAG2
 40
0.0
  9
$LOFTPARAM
 70
7
  9
$LOFTNORMALS
280
1
  9
$LATITUDE
 40
37.795
  9
$LONGITUDE
 40
-122.394
  9
$NORTHDIRECTION
 40
0.0
  9
$TIMEZONE
 70
-8000
  9
$LIGHTGLYPHDISPLAY
280
1
  9
$TILEMODELIGHTSYNCH
280
1
  9
$CMATERIAL
347
20
  9
$SOLIDHIST
280
0
  9
$SHOWHIST
280
1
  9
$DWFFRAME
280
2
  9
$DGNFRAME
280
2
  9
$REALWORLDSCALE
290
1
  9
$INTERFERECOLOR
 62
256
  9
$CSHADOW
280
0
  9
$SHADOWPLANELOCATION
 40
0.0
  0
ENDSEC
  0
SECTION
  2
CLASSES
  0
CLASS
  1
ACDBDICTIONARYWDFLT
  2
AcDbDictionaryWithDefault
  3
ObjectDBX Classes
 90
0
 91
0
280
0
281
0
  0
CLASS
  1
SUN
  2
AcDbSun
  3
SCENEOE
 90
1153
 91
0
280
0
281
0
  0
CLASS
  1
VISUALSTYLE
  2
AcDbVisualStyle
  3
ObjectDBX Classes
 90
4095
 91
0
280
0
281
0
  0
CLASS
  1
MATERIAL
  2
AcDbMaterial
  3
ObjectDBX Classes
 90
1153
 91
0
280
0
281
0
  0
CLASS
  1
SCALE
  2
AcDbScale
  3
ObjectDBX Classes
 90
1153
 91
0
280
0
281
0
  0
CLASS
  1
TABLESTYLE
  2
AcDbTableStyle
  3
ObjectDBX Classes
 90
4095
 91
0
280
0
281
0
  0
CLASS
  1
MLEADERSTYLE
  2
AcDbMLeaderStyle
  3
ACDB_MLEADERSTYLE_CLASS
 90
4095
 91
0
280
0
281
0
  0
CLASS
  1
DICTIONARYVAR
  2
AcDbDictionaryVar
  3
ObjectDBX Classes
 90
0
 91
0
280
0
281
0
  0
CLASS
  1
CELLSTYLEMAP
  2
AcDbCellStyleMap
  3
ObjectDBX Classes
 90
1152
 91
0
280
0
281
0
  0
CLASS
  1
MENTALRAYRENDERSETTINGS
  2
AcDbMentalRayRenderSettings
  3
SCENEOE
 90
1024
 91
0
280
0
281
0
  0
CLASS
  1
ACDBDETAILVIEWSTYLE
  2
AcDbDetailViewStyle
  3
ObjectDBX Classes
 90
1025
 91
0
280
0
281
0
  0
CLASS
  1
ACDBSECTIONVIEWSTYLE
  2
AcDbSectionViewStyle
  3
ObjectDBX Classes
 90
1025
 91
0
280
0
281
0
  0
CLASS
  1
RASTERVARIABLES
  2
AcDbRasterVariables
  3
ISM
 90
0
 91
0
280
0
281
0
  0
CLASS
  1
LAYOUT
  2
AcDbLayout
  3
ObjectDBX Classes
 90
0
 91
0
280
0
281
0
  0
CLASS
  1
ACDBPLACEHOLDER
  2
AcDbPlaceHolder
  3
ObjectDBX Classes
 90
0
 91
0
280
0
281
0
  0
ENDSEC
  0
SECTION
  2
TABLES
  0
TABLE
  2
VPORT
  5
8
330
0
100
AcDbSymbolTable
 70
1
  0
VPORT
  5
23
330
8
100
AcDbSymbolTableRecord
100
AcDbViewportTableRecord
  2
*Active
 70
0
 10
0.0
 20
0.0
 11
1.0
 21
1.0
 12
0.0
 22
0.0
 13
0.0
 23
0.0
 14
0.5
 24
0.5
 15
0.5
 25
0.5
 16
0.0
 26
0.0
 36
1.0
 17
0.0
 27
0.0
 37
0.0
 40
1000.0
 41
1.34
 42
50.0
 43
0.0
 44
0.0
 50
0.0
 51
0.0
 71
0
 72
1000
 73
1
 74
3
 75
0
 76
0
 77
0
 78
0
281
0
 65
0
146
0.0
  0
ENDTAB
  0
TABLE
  2
LTYPE
  5
2
330
0
100
AcDbSymbolTable
 70
21
  0
LTYPE
  5
24
330
2
100
AcDbSymbolTableRecord
100
AcDbLinetypeTableRecord
  2
ByBlock
 70
0
  3

 72
65
 73
0
 40
0.0
  0
LTYPE
  5
25
330
2
100
AcDbSymbolTableRecord
100
AcDbLinetypeTableRecord
  2
ByLayer
 70
0
  3

 72
65
 73
0
 40
0.0
  0
LTYPE
  5
26
330
2
100
AcDbSymbolTableRecord
100
AcDbLinetypeTableRecord
  2
Continuous
 70
0
  3

 72
65
 73
0
 40
0.0
  0
LTYPE
  5
2F
330
2
100
AcDbSymbolTableRecord
100
AcDbLinetypeTableRecord
  2
CENTER
 70
0
  3
Center ____ _ ____ _ ____ _ ____ _ ____ _ ____
 72
65
 73
4
 40
5.08
 49
3.175
 74
0
 49
-0.635
 74
0
 49
0.635
 74
0
 49
-0.635
 74
0
  0
LTYPE
  5
30
330
2
100
AcDbSymbolTableRecord
100
AcDbLinetypeTableRecord
  2
CENTERX2
 70
0
  3
Center (2x) ________  __  ________  __  ________
 72
65
 73
4
 40
8.89
 49
6.35
 74
0
 49
-0.635
 74
0
 49
1.27
 74
0
 49
-0.635
 74
0
  0
LTYPE
  5
31
330
2
100
AcDbSymbolTableRecord
100
AcDbLinetypeTableRecord
  2
CENTER2
 70
0
  3
Center (.5x) ____ _ ____ _ ____ _ ____ _ ____
 72
65
 73
4
 40
2.54
 49
1.587
 74
0
 49
-0.318
 74
0
 49
0.318
 74
0
 49
-0.318
 74
0
  0
LTYPE
  5
32
330
2
100
AcDbSymbolTableRecord
100
AcDbLinetypeTableRecord
  2
DASHED
 70
0
  3
Dashed __ __ __ __ __ __ __ __ __ __ __ __ __ _
 72
65
 73
2
 40
1.524
 49
1.27
 74
0
 49
-0.254
 74
0
  0
LTYPE
  5
33
330
2
100
AcDbSymbolTableRecord
100
AcDbLinetypeTableRecord
  2
DASHEDX2
 70
0
  3
Dashed (2x) ____  ____  ____  ____  ____  ____
 72
65
 73
2
 40
3.048
 49
2.54
 74
0
 49
-0.508
 74
0
  0
LTYPE
  5
34
330
2
100
AcDbSymbolTableRecord
100
AcDbLinetypeTableRecord
  2
DASHED2
 70
0
  3
Dashed (.5x) _ _ _ _ _ _ _ _ _ _ _ _ _ _
 72
65
 73
2
 40
0.762
 49
0.635
 74
0
 49
-0.127
 74
0
  0
LTYPE
  5
35
330
2
100
AcDbSymbolTableRecord
100
AcDbLinetypeTableRecord
  2
PHANTOM
 70
0
  3
Phantom ______  __  __  ______  __  __  ______
 72
65
 73
6
 40
6.35
 49
3.175
 74
0
 49
-0.635
 74
0
 49
0.635
 74
0
 49
-0.635
 74
0
 49
0.635
 74
0
 49
-0.635
 74
0
  0
LTYPE
  5
36
330
2
100
AcDbSymbolTableRecord
100
AcDbLinetypeTableRecord
  2
PHANTOMX2
 70
0
  3
Phantom (2x)____________    ____    ____    ____________
 72
65
 73
6
 40
10.795
 49
6.35
 74
0
 49
-0.635
 74
0
 49
1.27
 74
0
 49
-0.635
 74
0
 49
1.27
 74
0
 49
-0.635
 74
0
  0
LTYPE
  5
37
330
2
100
AcDbSymbolTableRecord
100
AcDbLinetypeTableRecord
  2
PHANTOM2
 70
0
  3
Phantom (.5x) ___ _ _ ___ _ _ ___ _ _ ___ _ _ ___
 72
65
 73
6
 40
3.175
 49
1.587
 74
0
 49
-0.318
 74
0
 49
0.318
 74
0
 49
-0.318
 74
0
 49
0.318
 74
0
 49
-0.318
 74
0
  0
LTYPE
  5
38
330
2
100
AcDbSymbolTableRecord
100
AcDbLinetypeTableRecord
  2
DASHDOT
 70
0
  3
Dash dot __ . __ . __ . __ . __ . __ . __ . __
 72
65
 73
4
 40
3.556
 49
2.54
 74
0
 49
-0.508
 74
0
 49
0.0
 74
0
 49
-0.508
 74
0
  0
LTYPE
  5
39
330
2
100
AcDbSymbolTableRecord
100
AcDbLinetypeTableRecord
  2
DASHDOTX2
 70
0
  3
Dash dot (2x) ____  .  ____  .  ____  .  ____
 72
65
 73
4
 40
6.096
 49
5.08
 74
0
 49
-0.508
 74
0
 49
0.0
 74
0
 49
-0.508
 74
0
  0
LTYPE
  5
3A
330
2
100
AcDbSymbolTableRecord
100
AcDbLinetypeTableRecord
  2
DASHDOT2
 70
0
  3
Dash dot (.5x) _ . _ . _ . _ . _ . _ . _ . _
 72
65
 73
4
 40
1.778
 49
1.27
 74
0
 49
-0.254
 74
0
 49
0.0
 74
0
 49
-0.254
 74
0
  0
LTYPE
  5
3B
330
2
100
AcDbSymbolTableRecord
100
AcDbLinetypeTableRecord
  2
DOT
 70
0
  3
Dot .  .  .  .  .  .  .  .  .  .  .  .  .  .  .  .
 72
65
 73
2
 40
0.508
 49
0.0
 74
0
 49
-0.508
 74
0
  0
LTYPE
  5
3C
330
2
100
AcDbSymbolTableRecord
100
AcDbLinetypeTableRecord
  2
DOTX2
 70
0
  3
Dot (2x) .    .    .    .    .    .    .    . 
 72
65
 73
2
 40
1.016
 49
0.0
 74
0
 49
-1.016
 74
0
  0
LTYPE
  5
3D
330
2
100
AcDbSymbolTableRecord
100
AcDbLinetypeTableRecord
  2
DOT2
 70
0
  3
Dot (.5) . . . . . . . . . . . . . . . . . . . 
 72
65
 73
2
 40
0.254
 49
0.0
 74
0
 49
-0.254
 74
0
  0
LTYPE
  5
3E
330
2
100
AcDbSymbolTableRecord
100
AcDbLinetypeTableRecord
  2
DIVIDE
 70
0
  3
Divide __ . . __ . . __ . . __ . . __ . . __
 72
65
 73
6
 40
4.064
 49
2.54
 74
0
 49
-0.508
 74
0
 49
0.0
 74
0
 49
-0.508
 74
0
 49
0.0
 74
0
 49
-0.508
 74
0
  0
LTYPE
  5
3F
330
2
100
AcDbSymbolTableRecord
100
AcDbLinetypeTableRecord
  2
DIVIDEX2
 70
0
  3
Divide (2x) ____  . .  ____  . .  ____  . .  ____
 72
65
 73
6
 40
6.604
 49
5.08
 74
0
 49
-0.508
 74
0
 49
0.0
 74
0
 49
-0.508
 74
0
 49
0.0
 74
0
 49
-0.508
 74
0
  0
LTYPE
  5
40
330
2
100
AcDbSymbolTableRecord
100
AcDbLinetypeTableRecord
  2
DIVIDE2
 70
0
  3
Divide(.5x) _ . _ . _ . _ . _ . _ . _ . _
 72
65
 73
6
 40
2.032
 49
1.27
 74
0
 49
-0.254
 74
0
 49
0.0
 74
0
 49
-0.254
 74
0
 49
0.0
 74
0
 49
-0.254
 74
0
  0
ENDTAB
  0
TABLE
  2
LAYER
  5
1
330
0
100
AcDbSymbolTable
 70
3
  0
LAYER
  5
27
330
1
100
AcDbSymbolTableRecord
100
AcDbLayerTableRecord
  2
0
 70
0
 62
7
  6
Continuous
370
-3
390
13
347
21
  0
LAYER
  5
28
330
1
100
AcDbSymbolTableRecord
100
AcDbLayerTableRecord
  2
Defpoints
 70
0
 62
7
  6
Continuous
290
0
370
-3
390
13
347
21
  0
LAYER
  5
8A
330
1
100
AcDbSymbolTableRecord
100
AcDbLayerTableRecord
  2
Layer
 70
0
 62
1
  6
Continuous
370
50
390
13
347
21
  0
ENDTAB
  0
TABLE
  2
STYLE
  5
5
330
0
100
AcDbSymbolTable
 70
26
  0
STYLE
  5
29
330
5
100
AcDbSymbolTableRecord
100
AcDbTextStyleTableRecord
  2
Standard
 70
0
 40
0.0
 41
1.0
 50
0.0
 71
0
 42
2.5
  3
txt
  4

  0
STYLE
  5
41
330
5
100
AcDbSymbolTableRecord
100
AcDbTextStyleTableRecord
  2
OpenSans-Light
 70
0
 40
0.0
 41
1.0
 50
0.0
 71
0
 42
2.5
  3
OpenSans-Light.ttf
  4

  0
STYLE
  5
42
330
5
100
AcDbSymbolTableRecord
100
AcDbTextStyleTableRecord
  2
OpenSans-Light-Italic
 70
0
 40
0.0
 41
1.0
 50
0.0
 71
0
 42
2.5
  3
OpenSans-LightItalic.ttf
  4

  0
STYLE
  5
43
330
5
100
AcDbSymbolTableRecord
100
AcDbTextStyleTableRecord
  2
OpenSans
 70
0
 40
0.0
 41
1.0
 50
0.0
 71
0
 42
2.5
  3
OpenSans-Regular.ttf
  4

  0
STYLE
  5
44
330
5
100
AcDbSymbolTableRecord
100
AcDbTextStyleTableRecord
  2
OpenSans-Italic
 70
0
 40
0.0
 41
1.0
 50
0.0
 71
0
 42
2.5
  3
OpenSans-Italic.ttf
  4

  0
STYLE
  5
45
330
5
100
AcDbSymbolTableRecord
100
AcDbTextStyleTableRecord
  2
OpenSans-SemiBold
 70
0
 40
0.0
 41
1.0
 50
0.0
 71
0
 42
2.5
  3
OpenSans-SemiBold.ttf
  4

  0
STYLE
  5
46
330
5
100
AcDbSymbolTableRecord
100
AcDbTextStyleTableRecord
  2
OpenSans-SemiBoldItalic
 70
0
 40
0.0
 41
1.0
 50
0.0
 71
0
 42
2.5
  3
OpenSans-SemiBoldItalic.ttf
  4

  0
STYLE
  5
47
330
5
100
AcDbSymbolTableRecord
100
AcDbTextStyleTableRecord
  2
OpenSans-Bold
 70
0
 40
0.0
 41
1.0
 50
0.0
 71
0
 42
2.5
  3
OpenSans-Bold.ttf
  4

  0
STYLE
  5
48
330
5
100
AcDbSymbolTableRecord
100
AcDbTextStyleTableRecord
  2
OpenSans-BoldItalic
 70
0
 40
0.0
 41
1.0
 50
0.0
 71
0
 42
2.5
  3
OpenSans-BoldItalic.ttf
  4

  0
STYLE
  5
49
330
5
100
AcDbSymbolTableRecord
100
AcDbTextStyleTableRecord
  2
OpenSans-ExtraBold
 70
0
 40
0.0
 41
1.0
 50
0.0
 71
0
 42
2.5
  3
OpenSans-ExtraBold.ttf
  4

  0
STYLE
  5
4A
330
5
100
AcDbSymbolTableRecord
100
AcDbTextStyleTableRecord
  2
OpenSans-ExtraBoldItalic
 70
0
 40
0.0
 41
1.0
 50
0.0
 71
0
 42
2.5
  3
OpenSans-ExtraBoldItalic.ttf
  4

  0
STYLE
  5
4B
330
5
100
AcDbSymbolTableRecord
100
AcDbTextStyleTableRecord
  2
OpenSansCondensed-Bold
 70
0
 40
0.0
 41
1.0
 50
0.0
 71
0
 42
2.5
  3
OpenSansCondensed-Bold.ttf
  4

  0
STYLE
  5
4C
330
5
100
AcDbSymbolTableRecord
100
AcDbTextStyleTableRecord
  2
OpenSansCondensed-Light
 70
0
 40
0.0
 41
1.0
 50
0.0
 71
0
 42
2.5
  3
OpenSansCondensed-Light.ttf
  4

  0
STYLE
  5
4D
330
5
100
AcDbSymbolTableRecord
100
AcDbTextStyleTableRecord
  2
OpenSansCondensed-Italic
 70
0
 40
0.0
 41
1.0
 50
0.0
 71
0
 42
2.5
  3
OpenSansCondensed-LightItalic.ttf
  4

  0
STYLE
  5
4E
330
5
100
AcDbSymbolTableRecord
100
AcDbTextStyleTableRecord
  2
LiberationSans
 70
0
 40
0.0
 41
1.0
 50
0.0
 71
0
 42
2.5
  3
LiberationSans-Regular.ttf
  4

  0
STYLE
  5
4F
330
5
100
AcDbSymbolTableRecord
100
AcDbTextStyleTableRecord
  2
LiberationSans-Bold
 70
0
 40
0.0
 41
1.0
 50
0.0
 71
0
 42
2.5
  3
LiberationSans-Bold.ttf
  4

  0
STYLE
  5
50
330
5
100
AcDbSymbolTableRecord
100
AcDbTextStyleTableRecord
  2
LiberationSans-BoldItalic
 70
0
 40
0.0
 41
1.0
 50
0.0
 71
0
 42
2.5
  3
LiberationSans-BoldItalic.ttf
  4

  0
STYLE
  5
51
330
5
100
AcDbSymbolTableRecord
100
AcDbTextStyleTableRecord
  2
LiberationSans-Italic
 70
0
 40
0.0
 41
1.0
 50
0.0
 71
0
 42
2.5
  3
LiberationSans-Italic.ttf
  4

  0
STYLE
  5
52
330
5
100
AcDbSymbolTableRecord
100
AcDbTextStyleTableRecord
  2
LiberationSerif
 70
0
 40
0.0
 41
1.0
 50
0.0
 71
0
 42
2.5
  3
LiberationSerif-Regular.ttf
  4

  0
STYLE
  5
53
330
5
100
AcDbSymbolTableRecord
100
AcDbTextStyleTableRecord
  2
LiberationSerif-Bold
 70
0
 40
0.0
 41
1.0
 50
0.0
 71
0
 42
2.5
  3
LiberationSerif-Bold.ttf
  4

  0
STYLE
  5
54
330
5
100
AcDbSymbolTableRecord
100
AcDbTextStyleTableRecord
  2
LiberationSerif-BoldItalic
 70
0
 40
0.0
 41
1.0
 50
0.0
 71
0
 42
2.5
  3
LiberationSerif-BoldItalic.ttf
  4

  0
STYLE
  5
55
330
5
100
AcDbSymbolTableRecord
100
AcDbTextStyleTableRecord
  2
LiberationSerif-Italic
 70
0
 40
0.0
 41
1.0
 50
0.0
 71
0
 42
2.5
  3
LiberationSerif-Italic.ttf
  4

  0
STYLE
  5
56
330
5
100
AcDbSymbolTableRecord
100
AcDbTextStyleTableRecord
  2
LiberationMono
 70
0
 40
0.0
 41
1.0
 50
0.0
 71
0
 42
2.5
  3
LiberationMono-Regular.ttf
  4

  0
STYLE
  5
57
330
5
100
AcDbSymbolTableRecord
100
AcDbTextStyleTableRecord
  2
LiberationMono-Bold
 70
0
 40
0.0
 41
1.0
 50
0.0
 71
0
 42
2.5
  3
LiberationMono-Bold.ttf
  4

  0
STYLE
  5
58
330
5
100
AcDbSymbolTableRecord
100
AcDbTextStyleTableRecord
  2
LiberationMono-BoldItalic
 70
0
 40
0.0
 41
1.0
 50
0.0
 71
0
 42
2.5
  3
LiberationMono-BoldItalic.ttf
  4

  0
STYLE
  5
59
330
5
100
AcDbSymbolTableRecord
100
AcDbTextStyleTableRecord
  2
LiberationMono-Italic
 70
0
 40
0.0
 41
1.0
 50
0.0
 71
0
 42
2.5
  3
LiberationMono-Italic.ttf
  4

  0
ENDTAB
  0
TABLE
  2
VIEW
  5
7
330
0
100
AcDbSymbolTable
 70
0
  0
ENDTAB
  0
TABLE
  2
UCS
  5
6
330
0
100
AcDbSymbolTable
 70
0
  0
ENDTAB
  0
TABLE
  2
APPID
  5
3
330
0
100
AcDbSymbolTable
 70
3
  0
APPID
  5
2A
330
3
100
AcDbSymbolTableRecord
100
AcDbRegAppTableRecord
  2
ACAD
 70
0
  0
APPID
  5
B8
330
3
100
AcDbSymbolTableRecord
100
AcDbRegAppTableRecord
  2
HATCHBACKGROUNDCOLOR
 70
0
  0
APPID
  5
B9
330
3
100
AcDbSymbolTableRecord
100
AcDbRegAppTableRecord
  2
EZDXF
 70
0
  0
ENDTAB
  0
TABLE
  2
DIMSTYLE
  5
4
330
0
100
AcDbSymbolTable
 70
12
100
AcDbDimStyleTable
  0
DIMSTYLE
105
2B
330
4
100
AcDbSymbolTableRecord
100
AcDbDimStyleTableRecord
  2
Standard
 70
0
 40
1.0
 41
2.5
 42
0.625
 43
3.75
 44
1.25
 45
0.0
 46
0.0
 47
0.0
 48
0.0
 49
2.5
140
2.5
141
2.5
142
0.0
143
0.03937007874
144
1.0
145
0.0
146
1.0
147
0.625
148
0.0
 69
0
 70
0
 71
0
 72
0
 73
0
 74
0
 75
0
 76
0
 77
1
 78
8
 79
3
170
0
171
3
172
1
173
0
174
0
175
0
176
0
177
0
178
0
179
2
271
2
272
2
273
2
274
3
275
0
276
0
277
2
278
44
279
0
280
0
281
0
282
0
283
0
284
8
285
0
286
0
288
0
289
3
290
0
371
-2
372
-2
  0
DIMSTYLE
105
73
330
4
100
AcDbSymbolTableRecord
100
AcDbDimStyleTableRecord
  2
EZDXF
 70
0
 40
1.0
 41
0.175
 42
0.125
 43
3.75
 44
0.375
 45
0.0
 46
0.0
 47
0.0
 48
0.0
 49
2.5
140
0.25
141
2.5
142
0.0
143
0.03937007874
144
100.0
145
0.0
146
0.5
147
0.1
148
0.0
 69
0
 70
0
 71
0
 72
0
 73
0
 74
0
 75
0
 76
0
 77
1
 78
12
 79
3
170
0
171
3
172
1
173
0
174
0
175
0
176
0
177
0
178
0
179
2
271
2
272
2
273
2
274
3
275
0
276
0
277
2
278
46
279
2
280
0
281
0
282
0
283
0
284
8
285
0
286
0
288
1
289
3
290
0
340
4C
342
74
371
-2
372
-2
  0
DIMSTYLE
105
7C
330
4
100
AcDbSymbolTableRecord
100
AcDbDimStyleTableRecord
  2
EZ_M_100_H25_CM
 70
0
 40
1.0
 41
0.25
 42
0.125
 43
3.75
 44
0.375
 45
0.0
 46
0.0
 47
0.0
 48
0.0
 49
2.5
140
0.25
141
2.5
142
0.125
143
0.03937007874
144
100.0
145
0.0
146
0.5
147
0.1
148
0.0
 69
0
 70
0
 71
0
 72
0
 73
0
 74
0
 75
0
 76
0
 77
1
 78
12
 79
3
170
0
171
3
172
1
173
0
174
0
175
0
176
0
177
0
178
0
179
2
271
2
272
2
273
2
274
3
275
0
276
0
277
2
278
46
279
2
280
0
281
0
282
0
283
0
284
8
285
0
286
0
288
1
289
3
290
0
340
4C
371
-2
372
-2
  0
DIMSTYLE
105
7D
330
4
100
AcDbSymbolTableRecord
100
AcDbDimStyleTableRecord
  2
EZ_M_50_H25_CM
 70
0
 40
1.0
 41
0.125
 42
0.0625
 43
3.75
 44
0.1875
 45
0.0
 46
0.0
 47
0.0
 48
0.0
 49
2.5
140
0.125
141
2.5
142
0.0625
143
0.03937007874
144
100.0
145
0.0
146
0.5
147
0.05
148
0.0
 69
0
 70
0
 71
0
 72
0
 73
0
 74
0
 75
0
 76
0
 77
1
 78
12
 79
3
170
0
171
3
172
1
173
0
174
0
175
0
176
0
177
0
178
0
179
2
271
2
272
2
273
2
274
3
275
0
276
0
277
2
278
46
279
2
280
0
281
0
282
0
283
0
284
8
285
0
286
0
288
1
289
3
290
0
340
4C
371
-2
372
-2
  0
DIMSTYLE
105
7E
330
4
100
AcDbSymbolTableRecord
100
AcDbDimStyleTableRecord
  2
EZ_M_25_H25_CM
 70
0
 40
1.0
 41
0.0625
 42
0.03125
 43
3.75
 44
0.09375
 45
0.0
 46
0.0
 47
0.0
 48
0.0
 49
2.5
140
0.0625
141
2.5
142
0.03125
143
0.03937007874
144
100.0
145
0.0
146
0.5
147
0.025
148
0.0
 69
0
 70
0
 71
0
 72
0
 73
0
 74
0
 75
0
 76
0
 77
1
 78
12
 79
3
170
0
171
3
172
1
173
0
174
0
175
0
176
0
177
0
178
0
179
2
271
2
272
2
273
2
274
3
275
0
276
0
277
2
278
46
279
2
280
0
281
0
282
0
283
0
284
8
285
0
286
0
288
1
289
3
290
0
340
4C
371
-2
372
-2
  0
DIMSTYLE
105
7F
330
4
100
AcDbSymbolTableRecord
100
AcDbDimStyleTableRecord
  2
EZ_M_20_H25_CM
 70
0
 40
1.0
 41
0.05
 42
0.025
 43
3.75
 44
0.07500000000000001
 45
0.0
 46
0.0
 47
0.0
 48
0.0
 49
2.5
140
0.05
141
2.5
142
0.025
143
0.03937007874
144
100.0
145
0.0
146
0.5
147
0.020000000000000004
148
0.0
 69
0
 70
0
 71
0
 72
0
 73
0
 74
0
 75
0
 76
0
 77
1
 78
12
 79
3
170
0
171
3
172
1
173
0
174
0
175
0
176
0
177
0
178
0
179
2
271
2
272
2
273
2
274
3
275
0
276
0
277
2
278
46
279
2
280
0
281
0
282
0
283
0
284
8
285
0
286
0
288
1
289
3
290
0
340
4C
371
-2
372
-2
  0
DIMSTYLE
105
80
330
4
100
AcDbSymbolTableRecord
100
AcDbDimStyleTableRecord
  2
EZ_M_10_H25_CM
 70
0
 40
1.0
 41
0.025
 42
0.0125
 43
3.75
 44
0.037500000000000006
 45
0.0
 46
0.0
 47
0.0
 48
0.0
 49
2.5
140
0.025
141
2.5
142
0.0125
143
0.03937007874
144
100.0
145
0.0
146
0.5
147
0.010000000000000002
148
0.0
 69
0
 70
0
 71
0
 72
0
 73
0
 74
0
 75
0
 76
0
 77
1
 78
12
 79
3
170
0
171
3
172
1
173
0
174
0
175
0
176
0
177
0
178
0
179
2
271
2
272
2
273
2
274
3
275
0
276
0
277
2
278
46
279
2
280
0
281
0
282
0
283
0
284
8
285
0
286
0
288
1
289
3
290
0
340
4C
371
-2
372
-2
  0
DIMSTYLE
105
81
330
4
100
AcDbSymbolTableRecord
100
AcDbDimStyleTableRecord
  2
EZ_M_5_H25_CM
 70
0
 40
1.0
 41
0.0125
 42
0.00625
 43
3.75
 44
0.018750000000000003
 45
0.0
 46
0.0
 47
0.0
 48
0.0
 49
2.5
140
0.0125
141
2.5
142
0.00625
143
0.03937007874
144
100.0
145
0.0
146
0.5
147
0.005000000000000001
148
0.0
 69
0
 70
0
 71
0
 72
0
 73
0
 74
0
 75
0
 76
0
 77
1
 78
12
 79
3
170
0
171
3
172
1
173
0
174
0
175
0
176
0
177
0
178
0
179
2
271
2
272
2
273
2
274
3
275
0
276
0
277
2
278
46
279
2
280
0
281
0
282
0
283
0
284
8
285
0
286
0
288
1
289
3
290
0
340
4C
371
-2
372
-2
  0
DIMSTYLE
105
82
330
4
100
AcDbSymbolTableRecord
100
AcDbDimStyleTableRecord
  2
EZ_M_1_H25_CM
 70
0
 40
1.0
 41
0.0025
 42
0.00125
 43
3.75
 44
0.00375
 45
0.0
 46
0.0
 47
0.0
 48
0.0
 49
2.5
140
0.0025
141
2.5
142
0.00125
143
0.03937007874
144
100.0
145
0.0
146
0.5
147
0.001
148
0.0
 69
0
 70
0
 71
0
 72
0
 73
0
 74
0
 75
0
 76
0
 77
1
 78
12
 79
3
170
0
171
3
172
1
173
0
174
0
175
0
176
0
177
0
178
0
179
2
271
2
272
2
273
2
274
3
275
0
276
0
277
2
278
46
279
2
280
0
281
0
282
0
283
0
284
8
285
0
286
0
288
1
289
3
290
0
340
4C
371
-2
372
-2
  0
DIMSTYLE
105
83
330
4
100
AcDbSymbolTableRecord
100
AcDbDimStyleTableRecord
  2
EZ_RADIUS
 70
0
 40
1.0
 41
0.25
 42
0.125
 43
3.75
 44
0.375
 45
0.0
 46
0.0
 47
0.0
 48
0.0
 49
2.5
140
0.25
141
0.0
142
0.0
143
0.03937007874
144
100.0
145
0.0
146
0.5
147
0.1
148
0.0
 69
0
 70
0
 71
0
 72
0
 73
0
 74
0
 75
0
 76
0
 77
1
 78
12
 79
3
170
0
171
3
172
0
173
0
174
0
175
0
176
0
177
0
178
0
179
2
271
2
272
2
273
2
274
3
275
0
276
0
277
2
278
46
279
1
280
0
281
0
282
0
283
0
284
8
285
0
286
0
288
1
289
3
290
0
340
4C
342
84
371
-2
372
-2
  0
DIMSTYLE
105
88
330
4
100
AcDbSymbolTableRecord
100
AcDbDimStyleTableRecord
  2
EZ_RADIUS_INSIDE
 70
0
 40
1.0
 41
0.25
 42
0.125
 43
3.75
 44
0.375
 45
0.0
 46
0.0
 47
0.0
 48
0.0
 49
2.5
140
0.25
141
0.0
142
0.0
143
0.03937007874
144
100.0
145
0.0
146
0.5
147
0.1
148
0.0
 69
0
 70
0
 71
0
 72
0
 73
0
 74
0
 75
0
 76
0
 77
0
 78
12
 79
3
170
0
171
3
172
0
173
0
174
1
175
0
176
0
177
0
178
0
179
2
271
2
272
2
273
2
274
3
275
0
276
0
277
2
278
46
279
0
280
0
281
0
282
0
283
0
284
8
285
0
286
0
288
1
289
0
290
0
340
4C
342
84
371
-2
372
-2
  0
DIMSTYLE
105
89
330
4
100
AcDbSymbolTableRecord
100
AcDbDimStyleTableRecord
  2
EZ_CURVED
 70
0
 40
1.0
 41
0.25
 42
0.125
 43
3.75
 44
0.375
 45
0.0
 46
0.0
 47
0.0
 48
0.0
 49
2.5
140
0.25
141
2.5
142
0.0
143
0.03937007874
144
100.0
145
0.0
146
0.5
147
0.1
148
0.0
 69
0
 70
0
 71
0
 72
0
 73
0
 74
0
 75
0
 76
0
 77
1
 78
12
 79
2
 90
2
170
0
171
3
172
1
173
0
174
0
175
0
176
0
177
0
178
0
179
2
271
2
272
2
273
2
274
3
275
0
276
0
277
2
278
46
279
2
280
0
281
0
282
0
283
0
284
8
285
0
286
0
288
1
289
3
290
0
340
4C
371
-2
372
-2
  0
ENDTAB
  0
TABLE
  2
BLOCK_RECORD
  5
9
330
0
100
AcDbSymbolTable
 70
5
  0
BLOCK_RECORD
  5
17
330
9
100
AcDbSymbolTableRecord
100
AcDbBlockTableRecord
  2
*Model_Space
340
1A
 70
0
280
1
281
0
  0
BLOCK_RECORD
  5
1B
330
9
100
AcDbSymbolTableRecord
100
AcDbBlockTableRecord
  2
*Paper_Space
340
1E
 70
0
280
1
281
0
  0
BLOCK_RECORD
  5
74
330
9
100
AcDbSymbolTableRecord
100
AcDbBlockTableRecord
  2
_ARCHTICK
340
0
 70
0
280
1
281
0
  0
BLOCK_RECORD
  5
78
330
9
100
AcDbSymbolTableRecord
100
AcDbBlockTableRecord
  2
_CLOSEDFILLED
340
0
 70
0
280
1
281
0
  0
BLOCK_RECORD
  5
84
330
9
100
AcDbSymbolTableRecord
100
AcDbBlockTableRecord
  2
_CLOSEDBLANK
340
0
 70
0
280
1
281
0
  0
ENDTAB
  0
ENDSEC
  0
SECTION
  2
BLOCKS
  0
BLOCK
  5
18
330
17
100
AcDbEntity
  8
0
100
AcDbBlockBegin
  2
*Model_Space
 70
0
 10
0.0
 20
0.0
 30
0.0
  3
*Model_Space
  1

  0
ENDBLK
  5
19
330
17
100
AcDbEntity
  8
0
100
AcDbBlockEnd
  0
BLOCK
  5
1C
330
1B
100
AcDbEntity
  8
0
100
AcDbBlockBegin
  2
*Paper_Space
 70
0
 10
0.0
 20
0.0
 30
0.0
  3
*Paper_Space
  1

  0
ENDBLK
  5
1D
330
1B
100
AcDbEntity
  8
0
100
AcDbBlockEnd
  0
BLOCK
  5
75
330
74
100
AcDbEntity
  8
0
100
AcDbBlockBegin
  2
_ARCHTICK
 70
0
 10
0.0
 20
0.0
 30
0.0
  3
_ARCHTICK
  1

  0
LWPOLYLINE
  5
77
330
74
100
AcDbEntity
  8
0
  6
BYBLOCK
 62
0
100
AcDbPolyline
 90
2
 70
0
 43
0.15
 10
-0.5
 20
-0.5000000000000001
 10
0.5000000000000001
 20
0.5
  0
ENDBLK
  5
76
330
74
100
AcDbEntity
  8
0
100
AcDbBlockEnd
  0
BLOCK
  5
79
330
78
100
AcDbEntity
  8
0
100
AcDbBlockBegin
  2
_CLOSEDFILLED
 70
0
 10
0.0
 20
0.0
 30
0.0
  3
_CLOSEDFILLED
  1

  0
SOLID
  5
7B
330
78
100
AcDbEntity
  8
0
  6
BYBLOCK
 62
0
100
AcDbTrace
 10
-1.0
 20
0.1643989837240255
 30
0.0
 11
0.0
 21
0.0
 31
0.0
 12
-1.0
 22
-0.1643989837240255
 32
0.0
 13
-1.0
 23
-0.1643989837240255
 33
0.0
  0
ENDBLK
  5
7A
330
78
100
AcDbEntity
  8
0
100
AcDbBlockEnd
  0
BLOCK
  5
85
330
84
100
AcDbEntity
  8
0
100
AcDbBlockBegin
  2
_CLOSEDBLANK
 70
0
 10
0.0
 20
0.0
 30
0.0
  3
_CLOSEDBLANK
  1

  0
LWPOLYLINE
  5
87
330
84
100
AcDbEntity
  8
0
  6
BYBLOCK
 62
0
100
AcDbPolyline
 90
3
 70
1
 10
-1.0
 20
0.1643989837240255
 10
0.0
 20
0.0
 10
-1.0
 20
-0.1643989837240255
  0
ENDBLK
  5
86
330
84
100
AcDbEntity
  8
0
100
AcDbBlockEnd
  0
ENDSEC
  0
SECTION
  2
ENTITIES
  0
LWPOLYLINE
  5
8B
330
17
100
AcDbEntity
  8
Layer
100
AcDbPolyline
 90
303
 70
1
 10
893.084726704533
 20
10.168107072211626
 10
890.4137399168387
 20
11.255298945284096
 10
886.1111216108959
 20
12.922955629738112
 10
881.4589427661649
 20
14.76410723751681
 10
876.3760043258116
 20
16.740483871218046
 10
870.83070320438
 20
18.85667810372668
 10
864.8653922765607
 20
21.13203512466714
 10
858.552061048426
 20
23.552261472991873
 10
851.9456011397004
 20
26.073488826861038
 10
845.1492519806246
 20
28.66384288392105
 10
838.287454912389
 20
31.25334217408573
 10
831.3666435007235
 20
33.81390721140028
 10
824.3519929608331
 20
36.4639159695653
 10
817.2565868577875
 20
39.15569836376686
 10
810.0374118464354
 20
41.838764095857485
 10
802.7009988527433
 20
44.55421226298832
 10
795.2387287451581
 20
47.28144111788684
 10
787.6349721009168
 20
50.07097086390323
 10
779.910052132614
 20
52.899901663965736
 10
772.0969223173568
 20
55.75459113820735
 10
764.2278560706261
 20
58.62659948431335
 10
756.3336331215714
 20
61.50749050480938
 10
748.4358580041458
 20
64.3833565203135
 10
740.539978286677
 20
67.24689836054327
 10
732.6468079760352
 20
70.09681320126886
 10
724.7589490742314
 20
72.93274064321209
 10
716.8856297947009
 20
75.75345951635836
 10
709.042407260004
 20
78.55102153718232
 10
701.2297547325591
 20
81.31670790592489
 10
693.4325119668999
 20
84.05160582250404
 10
685.6447933973759
 20
86.76100544329054
 10
677.8738423788552
 20
89.44347741723665
 10
674.027946582092
 20
90.75880380399379
 10
673.6881611952443
 20
89.76530197164283
 10
669.7867667359407
 20
91.09961797926246
 10
662.0559893830984
 20
93.71512884393111
 10
654.3361979251179
 20
96.29676900543468
 10
646.6215193361004
 20
98.84516467806341
 10
638.9065948674868
 20
101.36266938633146
 10
631.192300213849
 20
103.85295534502471
 10
623.5000716742487
 20
106.31436068273129
 10
615.8573481293906
 20
108.73446528779077
 10
608.270655905877
 20
111.10003557217271
 10
600.7296320624655
 20
113.40664807333715
 10
593.2221870737361
 20
115.65459024294805
 10
585.7377815128589
 20
117.84526139839724
 10
578.2670797201438
 20
119.98061391503119
 10
570.8050769523604
 20
122.0628232813295
 10
563.3524497408594
 20
124.0921089782841
 10
555.9102764672947
 20
126.0660054043573
 10
548.4719253520597
 20
127.9826069942707
 10
541.0266011583559
 20
129.84381940726428
 10
533.5685538296163
 20
131.65268375772814
 10
526.095529689287
 20
133.41098426005223
 10
518.6069260935669
 20
135.11984009836476
 10
511.10394340549067
 20
136.77977582472528
 10
503.5896999042423
 20
138.39050534331074
 10
496.0659043129525
 20
139.95026458207377
 10
488.5275109987846
 20
141.4579807898485
 10
480.96720166898615
 20
142.915784898123
 10
473.38247811729
 20
144.32665486739083
 10
465.77513738463904
 20
145.69286684121053
 10
458.1530277668113
 20
147.01520709742232
 10
450.52479258564586
 20
148.29190435820774
 10
442.89503096987767
 20
149.5203776147365
 10
435.26563450075275
 20
150.69985476384488
 10
427.640272345179
 20
151.82950023763811
 10
420.02121278741606
 20
152.9076101382565
 10
412.4078395403973
 20
153.932628336103
 10
404.79773516092405
 20
154.90438956034097
 10
397.1910882608393
 20
155.82314291286377
 10
389.58863306572994
 20
156.68820214562072
 10
381.9889564086253
 20
157.49878337289823
 10
374.39066515095294
 20
158.2549951852011
 10
366.7952059586541
 20
158.956903128166
 10
359.20136148946114
 20
159.60298641396605
 10
351.60540021297516
 20
160.1929020694761
 10
344.0035063773061
 20
160.72810829936526
 10
336.3983471802948
 20
161.21029027762816
 10
328.7952448086097
 20
161.63958464944614
 10
321.19889728921396
 20
162.01491611809428
 10
313.612057257666
 20
162.3349063492833
 10
306.03505652549785
 20
162.59844347074568
 10
298.468187803389
 20
162.80549698563198
 10
290.9137357501983
 20
162.95677667001334
 10
283.37908520940664
 20
163.05398906129827
 10
275.878385028475
 20
163.0969165231222
 10
268.4227716733297
 20
163.0819646112463
 10
261.0167585408527
 20
163.00371442800736
 10
253.65367185971445
 20
162.85507839126967
 10
246.31294894920467
 20
162.6319699516735
 10
238.97873952494578
 20
162.338162531564
 10
231.65365881100843
 20
161.9792633687549
 10
224.34606011893356
 20
161.55540009490818
 10
217.05887299985093
 20
161.06495032797758
 10
209.79410707197349
 20
160.50810859538956
 10
202.55825669821067
 20
159.88588217402048
 10
195.35799792522778
 20
159.19759857215536
 10
188.19863343186307
 20
158.4423329411106
 10
181.08414487241805
 20
157.61887837289095
 10
174.0179352389186
 20
156.72641576586938
 10
167.00394181813422
 20
155.7649763952857
 10
160.05001245109514
 20
154.7341320766421
 10
153.15724351927184
 20
153.62762465006966
 10
146.31238982022708
 20
152.44218629545531
 10
139.51632385264998
 20
151.1894015917669
 10
132.8054198186629
 20
149.88439096591844
 10
126.21663128287437
 20
148.52632957148273
 10
119.76178278723779
 20
147.1054666266079
 10
113.43885474487837
 20
145.61454530970855
 10
107.24300118013517
 20
144.0500050472886
 10
101.17043701097319
 20
142.4112127905071
 10
95.22169843355903
 20
140.70043529879536
 10
89.40311959443648
 20
138.9233617525443
 10
83.72813589103461
 20
137.08771106984483
 10
78.21256828381576
 20
135.1988985510612
 10
72.8665774470332
 20
133.26129319893647
 10
67.70108372615181
 20
131.28737750010941
 10
62.73739232465664
 20
129.29726794374128
 10
58.000980131233405
 20
127.30764230670125
 10
53.51067706803303
 20
125.32854410758321
 10
49.27649983839103
 20
123.36618295281552
 10
45.29901576994354
 20
121.42371225240889
 10
41.572104802572255
 20
119.506213096247
 10
38.08842830395923
 20
117.62238895168565
 10
34.83994714317686
 20
115.78062167098626
 10
31.81834087093688
 20
113.98864608145348
 10
29.015062873163288
 20
112.2505143912817
 10
26.41976467577524
 20
110.5660770365371
 10
24.020644091777
 20
108.93255408364493
 10
21.804185358715074
 20
107.34496726596413
 10
19.753895202152762
 20
105.79818496126727
 10
17.853784691722467
 20
104.2932409882152
 10
16.09135141877357
 20
102.83352427598983
 10
14.45729389851266
 20
101.41986590517959
 10
12.942779881926185
 20
100.04931155787402
 10
11.539440887487672
 20
98.719315637623
 10
10.239696165906821
 20
97.42735668937989
 10
9.036458141421235
 20
96.1707406713085
 10
7.922004815360026
 20
94.94561559736181
 10
6.888490661271192
 20
93.75033743231157
 10
5.931166352007324
 20
92.58768045864815
 10
5.048554305320408
 20
91.45827645154739
 10
4.234689636151188
 20
90.35079309439247
 10
3.477660046436597
 20
89.25768133721036
 10
2.775094511063287
 20
88.19912638688389
 10
2.139491675484919
 20
87.19174688510687
 10
1.5730166095560776
 20
86.2019516923222
 10
1.0582149384244417
 20
85.1952591761837
 10
0.5844531564075623
 20
84.20916997897189
 10
0.16497616549770555
 20
83.28474572918056
 10
-0.18866247088254795
 20
82.38858031034073
 10
-0.4820891482399361
 20
81.47912119776869
 10
-0.7274418744186164
 20
80.57400344621013
 10
-0.92821677566684
 20
79.69959342594552
 10
-1.0805160304034302
 20
78.85065361647013
 10
-1.184338643622425
 20
77.99974859404045
 10
-1.237000899850898
 20
77.2140540341718
 10
-1.2388769006875577
 20
76.41944287365801
 10
-1.1754670907214972
 20
75.62160688070477
 10
-1.0389046463256477
 20
74.81237501752538
 10
-0.8303084137395444
 20
73.99713079567638
 10
-0.551656819406162
 20
73.18343479528608
 10
-0.20271684469560114
 20
72.3768768860433
 10
0.21766959746815928
 20
71.58283190520343
 10
0.716906307299837
 20
70.79940565250746
 10
1.298559539085602
 20
70.02417209719279
 10
1.956483074673372
 20
69.25964378251342
 10
2.6862797056718932
 20
68.50795918084009
 10
3.485938388365753
 20
67.77109327529836
 10
4.355465889965899
 20
67.05107344781406
 10
5.29885928295306
 20
66.34865740474726
 10
6.320399566558024
 20
65.66343523143412
 10
7.425061248630357
 20
64.99326525385891
 10
8.616609243557264
 20
64.33416581632338
 10
9.896395262162116
 20
63.68104309939585
 10
11.265133503531956
 20
63.02931798985864
 10
12.726008597348027
 20
62.375448809336156
 10
14.284137991092507
 20
61.716897224058684
 10
15.945789643259616
 20
61.05215784082588
 10
17.717389655722627
 20
60.38179674180486
 10
19.61112938521927
 20
59.70914745520035
 10
21.646511511442156
 20
59.0365792706755
 10
23.841313090273104
 20
58.36082915158801
 10
26.20919279157198
 20
57.675788338344674
 10
28.76515533455671
 20
56.976690310773556
 10
31.526020504075802
 20
56.26083267503683
 10
34.50918944386842
 20
55.53047544515171
 10
37.737443199015786
 20
54.79333433677832
 10
41.238136778644844
 20
54.056369092670735
 10
45.042201884909844
 20
53.32364469615605
 10
49.18385057100767
 20
52.594324724953225
 10
53.68796572284617
 20
51.85937486066716
 10
58.559151110083235
 20
51.11356558923704
 10
63.792839132309666
 20
50.36738411709208
 10
69.388264508507
 20
49.635868433201736
 10
75.34298684697097
 20
48.92664020909694
 10
81.64799678624686
 20
48.240328739805555
 10
88.27685440602625
 20
47.57103879487347
 10
95.17106348284219
 20
46.915344259071105
 10
102.25916940844812
 20
46.28307752718724
 10
109.48930136581825
 20
45.690082379841186
 10
116.83974724555279
 20
45.15123498987097
 10
124.3286015299038
 20
44.67195973628068
 10
131.98046149294518
 20
44.23820078166306
 10
139.77513115599518
 20
43.832188777079594
 10
147.6781419451591
 20
43.4534899647809
 10
155.6855639722838
 20
43.10464022537639
 10
163.79765813107088
 20
42.77718655698475
 10
171.9875049604127
 20
42.46035440101319
 10
174.73561357663758
 20
42.35737692819854
 10
174.696295438312
 20
41.30811333691244
 10
180.17713409000675
 20
41.10273400211761
 10
188.41151801670074
 20
40.80825997506076
 10
196.64231144253694
 20
40.53873561383745
 10
204.8941734095731
 20
40.29860455513194
 10
213.1881090221322
 20
40.07968084758043
 10
221.51808176797664
 20
39.87268465132354
 10
229.86402698960143
 20
39.67364297941263
 10
238.2023714566044
 20
39.485699098835404
 10
246.53100911383865
 20
39.318581121444424
 10
254.87655267845795
 20
39.17595139865506
 10
263.261896448272
 20
39.051384875988404
 10
271.6865074298794
 20
38.93285097771139
 10
280.1297060000407
 20
38.80783917391781
 10
288.5916868489374
 20
38.67665566904343
 10
297.0625589873166
 20
38.55180666836058
 10
305.55429016631473
 20
38.43609671607888
 10
314.0667054126939
 20
38.32331819939122
 10
322.5858399225956
 20
38.20849815100313
 10
331.10702109627016
 20
38.08946715967366
 10
339.6298784912746
 20
37.96570371426514
 10
348.15178438201724
 20
37.839560645909025
 10
356.6659778594666
 20
37.71714909685944
 10
365.17958982576783
 20
37.60308624381508
 10
373.7008403006712
 20
37.493145907786975
 10
382.2214477340001
 20
37.38019929498455
 10
390.74274425931094
 20
37.261788830959844
 10
399.26594764888114
 20
37.13906859915356
 10
407.78710488576485
 20
37.01748186044707
 10
416.30419046869844
 20
36.90161460542759
 10
424.82268441089985
 20
36.791506059212566
 10
433.3404069632639
 20
36.68426764566914
 10
441.84963169040026
 20
36.574903953699206
 10
450.3479149768823
 20
36.459178554750395
 10
458.8393337381819
 20
36.33532876160987
 10
467.3286924340808
 20
36.20370050706966
 10
475.81607707243654
 20
36.066366414305065
 10
484.29460048991774
 20
35.92350355643211
 10
492.7611688192206
 20
35.77282968040376
 10
501.21933686255386
 20
35.61091343612753
 10
509.6810380146205
 20
35.43519730668247
 10
518.1614619003449
 20
35.248738473585334
 10
526.6589253942857
 20
35.0584275320804
 10
535.1600041806114
 20
34.87071153307885
 10
543.664120157823
 20
34.68917187512794
 10
552.1696012341681
 20
34.50971175832514
 10
560.6673485599501
 20
34.325087086654804
 10
569.1618146999658
 20
34.13251121794481
 10
577.6581082190564
 20
33.932928030827426
 10
586.1520830920015
 20
33.73278664929346
 10
594.6354133532285
 20
33.537806501145695
 10
603.1038379937635
 20
33.34219556177969
 10
611.5489256869338
 20
33.13748892786633
 10
619.9803362678394
 20
32.9187852980598
 10
628.4136379211877
 20
32.685407269470105
 10
636.85475067778
 20
32.44474618243996
 10
645.2834699097289
 20
32.202608788844046
 10
653.6728925364434
 20
31.958558083477698
 10
662.0021120467459
 20
31.70565202946618
 10
670.2716512049052
 20
31.431658807562485
 10
678.5066409417052
 20
31.133169874890612
 10
686.7042000469368
 20
30.822787339403575
 10
694.8215722368636
 20
30.49942214796134
 10
702.8537323194398
 20
30.140714128757992
 10
710.8412766368826
 20
29.73657206057173
 10
718.8113257288604
 20
29.294457572578807
 10
726.7495429339533
 20
28.834036624746346
 10
734.6184982392789
 20
28.383924395918115
 10
742.3390648390188
 20
27.9274318329728
 10
749.904069934529
 20
27.397697946091327
 10
757.4406324711354
 20
26.782826528930627
 10
764.9792499498687
 20
26.165278162334502
 10
772.4428413205846
 20
25.56924327499472
 10
779.8018544606359
 20
24.92117622609551
 10
787.1238548982026
 20
24.189810323730924
 10
794.4273607103339
 20
23.461622826070297
 10
801.656742634664
 20
22.7770473980148
 10
808.7814598989958
 20
22.04725103073598
 10
815.8663066310046
 20
21.194824203400287
 10
822.9952652303402
 20
20.27817357608967
 10
830.0875365115561
 20
19.367556409838244
 10
836.9972640577305
 20
18.44542496410223
 10
843.7578284138103
 20
17.398384625902338
 10
850.4793285815631
 20
16.282437363124316
 10
857.0730847093209
 20
15.150156025015505
 10
863.4480887499395
 20
14.04362140383472
 10
869.5130714866582
 20
12.941378984807187
 10
875.2488058113832
 20
11.854402443986658
 10
880.6296312533165
 20
10.83730339745297
 10
885.6288005460086
 20
9.861624430191895
 10
890.2329326862978
 20
8.942036802154306
 10
893.0780454210992
 20
8.343291249417518
  0
LWPOLYLINE
  5
8C
330
17
100
AcDbEntity
  8
Layer
100
AcDbPolyline
 90
5
 70
0
 10
586.5957939178535
 20
113.42627600017937
 10
582.7568556361504
 20
114.54990977916333
 10
583.8804894151343
 20
118.38884806086651
 10
587.7194276968374
 20
117.26521428188255
 10
586.5957939178535
 20
113.42627600017937
  0
LWPOLYLINE
  5
8D
330
17
100
AcDbEntity
  8
Layer
100
AcDbPolyline
 90
5
 70
0
 10
231.47536212406433
 20
157.96219491327554
 10
227.48207594406838
 20
157.73053679307833
 10
227.25041782387117
 20
161.72382297307428
 10
231.24370400386712
 20
161.9554810932715
 10
231.47536212406433
 20
157.96219491327554
  0
LWPOLYLINE
  5
8E
330
17
100
AcDbEntity
  8
Layer
100
AcDbPolyline
 90
5
 70
0
 10
95.82031349287286
 20
136.70084333724483
 10
91.99479443860429
 20
135.53233832423538
 10
90.82628942559484
 20
139.35785737850395
 10
94.6518084798634
 20
140.5263623915134
 10
95.82031349287286
 20
136.70084333724483
  0
LWPOLYLINE
  5
8F
330
17
100
AcDbEntity
  8
Layer
100
AcDbPolyline
 90
5
 70
0
 10
22.301809494326896
 20
101.43776958495987
 10
20.734178598004867
 20
100.19578191477284
 10
17.629209422537322
 20
104.11485915557792
 10
19.19684031885935
 20
105.35684682576495
 10
22.301809494326896
 20
101.43776958495987
  0
LWPOLYLINE
  5
90
330
17
100
AcDbEntity
  8
Layer
100
AcDbPolyline
 90
5
 70
0
 10
40.78078413962515
 20
59.262376483289096
 10
42.73791181213347
 20
58.85048903081921
 10
41.70819318095875
 20
53.95766984954839
 10
39.75106550845043
 20
54.36955730201827
 10
40.78078413962515
 20
59.262376483289096
  0
LWPOLYLINE
  5
91
330
17
100
AcDbEntity
  8
Layer
100
AcDbPolyline
 90
5
 70
0
 10
128.0914619721757
 20
48.46508437942234
 10
132.08505111335137
 20
48.23870909039133
 10
131.85867582432036
 20
44.24511994921567
 10
127.8650866831447
 20
44.47149523824668
 10
128.0914619721757
 20
48.46508437942234
  0
LINE
  5
92
330
17
100
AcDbEntity
  8
Layer
100
AcDbLine
 10
874.8561714441361
 20
17.32048151393367
 30
0.0
 11
874.6541687527741
 21
16.863103210247843
 31
0.0
  0
LINE
  5
93
330
17
100
AcDbEntity
  8
Layer
100
AcDbLine
 10
873.4470754558424
 20
12.704374298948295
 30
0.0
 11
873.3728401366805
 21
12.209915890799621
 31
0.0
  0
LINE
  5
94
330
17
100
AcDbEntity
  8
Layer
100
AcDbLine
 10
856.161455370259
 20
24.464589786700287
 30
0.0
 11
855.9711543163853
 21
24.002220336050087
 31
0.0
  0
LINE
  5
95
330
17
100
AcDbEntity
  8
Layer
100
AcDbLine
 10
853.7624342721514
 20
16.2259675215858
 30
0.0
 11
853.6812835563304
 21
15.732596909042101
 31
0.0
  0
LINE
  5
96
330
17
100
AcDbEntity
  8
Layer
100
AcDbLine
 10
818.731529694207
 20
38.596149678058296
 30
0.0
 11
818.5480571137647
 21
38.1310283904076
 31
0.0
  0
LINE
  5
97
330
17
100
AcDbEntity
  8
Layer
100
AcDbLine
 10
814.1579861341353
 20
21.903696486384064
 30
0.0
 11
814.0819299866405
 21
21.409514877632546
 31
0.0
  0
LWPOLYLINE
  5
98
330
17
100
AcDbEntity
  8
Layer
100
AcDbPolyline
 90
300
 70
1
 10
387.1243542556028
 20
100.0
 10
387.1132715996414
 20
101.06329364229664
 10
387.08002852554614
 20
102.12611776405379
 10
387.0246397125227
 20
103.18800305205899
 10
386.94712961871164
 20
104.24848060766236
 10
386.8475324703884
 20
105.30708215382897
 10
386.72589224684987
 20
106.36334024191693
 10
386.58226266099445
 20
107.4167884580894
 10
386.416707135604
 20
108.46696162926989
 10
386.22929877533784
 20
109.51339602854958
 10
386.0201203344522
 20
110.5556295799561
 10
385.78926418025793
 20
111.59320206249322
 10
385.53683225233385
 20
112.6256553133615
 10
385.2629360175131
 20
113.65253343027011
 10
384.96769642066243
 20
114.6733829727504
 10
384.65124383127653
 20
115.68775316238252
 10
384.31371798591033
 20
116.6951960818464
 10
383.9552679264754
 20
117.69526687270951
 10
383.5760519344273
 20
118.68752393186372
 10
383.17623746087264
 20
119.67152910652489
 10
382.75600105262777
 20
120.64684788770874
 10
382.3155282742604
 20
121.6130496020979
 10
381.85501362614957
 20
122.56970760221495
 10
381.37466045860003
 20
123.51639945481804
 10
380.874680882048
 20
124.45270712743557
 10
380.35529567339944
 20
125.37821717295742
 10
379.8167341785413
 20
126.29252091220167
 10
379.2592342110685
 20
127.19521461437577
 10
378.6830419472724
 20
128.0858996753527
 10
378.0884118174363
 20
128.9641827936833
 10
377.4756063934859
 20
129.8296761442673
 10
376.8448962730454
 20
130.6819975496056
 10
376.1965599599487
 20
131.5207706485595
 10
375.53088374126014
 20
132.3456250625409
 10
374.84816156085844
 20
133.1561965590612
 10
374.1486948896391
 20
133.95212721256604
 10
373.43279259239324
 20
134.73306556248522
 10
372.7007707914219
 20
135.4986667684277
 10
371.95295272694517
 20
136.24859276245348
 10
371.1896686143683
 20
136.9825123983549
 10
370.4112554984682
 20
137.70010159788148
 10
369.6180571045635
 20
138.40104349384356
 10
368.8104236867356
 20
139.08502857003228
 10
367.98871187316587
 20
139.75175479789291
 10
367.1532845086592
 20
140.40092776989238
 10
366.3045104944215
 20
141.0322608295212
 10
365.44276462516336
 20
141.645475197873
 10
364.56842742360163
 20
142.2403000967454
 10
363.6818849724309
 20
142.81647286820805
 10
362.78352874384046
 20
143.373739090585
 10
361.873755426651
 20
143.91185269080015
 10
360.95296675114827
 20
144.43057605303613
 10
360.0215693116901
 20
144.9296801236589
 10
359.07997438716586
 20
145.40894451236116
 10
358.1285977593873
 20
145.86815758948072
 10
357.1678595294908
 20
146.3071165794501
 10
356.1981839324328
 20
146.72562765033655
 10
355.21999914965954
 20
147.1235059994327
 10
354.2337371200341
 20
147.50057593486036
 10
353.2398333491043
 20
147.85667095315097
 10
352.2387267167958
 20
148.1916338127689
 10
351.2308592836152
 20
148.50531660354503
 10
350.2166760954483
 20
148.7975808119894
 10
349.19662498704065
 20
149.0682973824552
 10
348.1711563842461
 20
149.31734677412584
 10
347.1407231051314
 20
149.544619013801
 10
346.10578016002495
 20
149.75001374445762
 10
345.0667845505963
 20
149.93344026956473
 10
344.02419506805774
 20
150.09481759313252
 10
342.9784720905746
 20
150.23407445547787
 10
341.93007737997544
 20
150.35114936469057
 10
340.879473877851
 20
150.44599062378654
 10
339.8271255011321
 20
150.51855635353567
 10
338.77349693723704
 20
150.56881451095447
 10
337.71905343887886
 20
150.59674290345546
 10
336.6642606186226
 20
150.60232919864674
 10
335.609584243284
 20
150.5855709297776
 10
334.5554900282602
 20
150.54647549682784
 10
333.50244343188245
 20
150.48506016324
 10
332.4509094498833
 20
150.40135204829656
 10
331.40135241006726
 20
150.29538811514453
 10
330.354235767277
 20
150.16721515447387
 10
329.31002189874425
 20
150.01688976385572
 10
328.2691718999177
 20
149.84447832275075
 10
327.2321453808556
 20
149.65005696319778
 10
326.19940026327544
 20
149.43371153619603
 10
325.171392578348
 20
149.1955375737957
 10
324.1485762653274
 20
148.93564024691366
 10
323.1314029711041
 20
148.65413431889309
 10
322.1203218507701
 20
148.35114409482708
 10
321.1157793692851
 20
148.02680336666907
 10
320.1182191043299
 20
147.68125535415402
 10
319.1280815504351
 20
147.31465264155673
 10
318.1458039244709
 20
146.92715711031474
 10
317.17181997258473
 20
146.51893986754624
 10
316.20655977867096
 20
146.09018117049382
 10
315.25044957445806
 20
145.64107034692807
 10
314.30391155129655
 20
145.1718057115457
 10
313.3673636737314
 20
144.68259447839932
 10
312.4412194949404
 20
144.1736526693977
 10
311.52588797412085
 20
143.64520501891633
 10
310.6217732959048
 20
143.09748487456127
 10
309.7292746918822
 20
142.53073409412934
 10
308.8487862643118
 20
141.94520293881047
 10
307.98069681209637
 20
141.34114996267945
 10
307.1253896591004
 20
140.7188418985258
 10
306.2832424848846
 20
140.07855354007197
 10
305.4546271579339
 20
139.42056762063214
 10
304.63990957145006
 20
138.74517468826534
 10
303.83944948178413
 20
138.05267297747739
 10
303.0536003495778
 20
137.34336827752904
 10
302.2827091836852
 20
136.61757379740806
 10
301.52711638794386
 20
135.8756100275249
 10
300.7871556108615
 20
135.11780459819326
 10
300.06315359828653
 20
134.3444921349576
 10
299.3554300491263
 20
133.55601411083205
 10
298.6642974741768
 20
132.7527186955155
 10
297.99006105812697
 20
131.93496060164972
 10
297.3330185247976
 20
131.10310092818807
 10
296.6934600056749
 20
130.25750700094454
 10
296.0716679117967
 20
129.39855221039298
 10
295.4679168090473
 20
128.52661584678833
 10
294.8824732969176
 20
127.64208293268277
 10
294.31559589078154
 20
126.74534405291053
 10
293.7675349077434
 20
125.83679518211669
 10
293.2385323561049
 20
124.91683750990592
 10
292.72882182850054
 20
123.98587726368834
 10
292.2386283987506
 20
123.04432552930115
 10
291.76816852247407
 20
122.09259806948444
 10
291.3176499415083
 20
121.13111514029227
 10
290.88727159217615
 20
120.16030130551933
 10
290.47722351744085
 20
119.1805852492255
 10
290.08768678298907
 20
118.19239958644116
 10
289.7188333972767
 20
117.19618067213636
 10
289.37082623557524
 20
116.19236840853901
 10
289.0438189680506
 20
115.18140605088622
 10
288.73795599190635
 20
114.16374001169538
 10
288.4533723676225
 20
113.13981966364094
 10
288.190193759316
 20
112.11009714112404
 10
287.94853637925166
 20
111.07502714062278
 10
287.72850693652555
 20
110.03506671991099
 10
287.5302025899455
 20
108.99067509623431
 10
287.3537109051283
 20
107.94231344353297
 10
287.19910981583376
 20
106.89044468880022
 10
287.0664675895506
 20
105.83553330766682
 10
286.9558427973519
 20
104.77804511930174
 10
286.8672842880318
 20
103.71844708071941
 10
286.80083116653486
 20
102.65720708058484
 10
286.7565127766888
 20
101.59479373260689
 10
286.734348688247
 20
100.53167616861188
 10
286.734348688247
 20
99.46832383138812
 10
286.7565127766888
 20
98.40520626739313
 10
286.80083116653486
 20
97.34279291941517
 10
286.8672842880318
 20
96.28155291928057
 10
286.9558427973519
 20
95.22195488069825
 10
287.0664675895506
 20
94.16446669233319
 10
287.19910981583376
 20
93.1095553111998
 10
287.3537109051283
 20
92.05768655646705
 10
287.5302025899454
 20
91.0093249037657
 10
287.72850693652555
 20
89.96493328008903
 10
287.94853637925166
 20
88.9249728593772
 10
288.190193759316
 20
87.88990285887594
 10
288.4533723676225
 20
86.86018033635908
 10
288.73795599190635
 20
85.83625998830462
 10
289.0438189680506
 20
84.81859394911379
 10
289.37082623557524
 20
83.80763159146099
 10
289.7188333972767
 20
82.80381932786364
 10
290.08768678298907
 20
81.80760041355884
 10
290.47722351744085
 20
80.81941475077448
 10
290.88727159217615
 20
79.83969869448067
 10
291.3176499415083
 20
78.86888485970773
 10
291.76816852247407
 20
77.90740193051558
 10
292.2386283987506
 20
76.95567447069887
 10
292.72882182850054
 20
76.01412273631166
 10
293.2385323561049
 20
75.0831624900941
 10
293.7675349077434
 20
74.1632048178833
 10
294.31559589078154
 20
73.25465594708946
 10
294.8824732969176
 20
72.35791706731723
 10
295.4679168090473
 20
71.47338415321167
 10
296.0716679117967
 20
70.60144778960702
 10
296.6934600056749
 20
69.74249299905547
 10
297.3330185247976
 20
68.89689907181194
 10
297.99006105812697
 20
68.06503939835028
 10
298.6642974741768
 20
67.24728130448447
 10
299.3554300491263
 20
66.44398588916793
 10
300.06315359828653
 20
65.65550786504241
 10
300.7871556108615
 20
64.88219540180674
 10
301.52711638794386
 20
64.12438997247509
 10
302.2827091836852
 20
63.38242620259195
 10
303.0536003495778
 20
62.65663172247097
 10
303.83944948178413
 20
61.94732702252262
 10
304.63990957145006
 20
61.25482531173467
 10
305.4546271579339
 20
60.57943237936786
 10
306.2832424848846
 20
59.92144645992805
 10
307.12538965910034
 20
59.2811581014742
 10
307.98069681209637
 20
58.658850037320555
 10
308.8487862643118
 20
58.054797061189554
 10
309.7292746918822
 20
57.46926590587067
 10
310.6217732959048
 20
56.90251512543873
 10
311.52588797412085
 20
56.35479498108367
 10
312.4412194949404
 20
55.8263473306023
 10
313.3673636737314
 20
55.317405521600655
 10
314.30391155129655
 20
54.8281942884543
 10
315.25044957445806
 20
54.358929653071925
 10
316.20655977867096
 20
53.9098188295062
 10
317.17181997258473
 20
53.48106013245379
 10
318.1458039244709
 20
53.072842889685276
 10
319.12808155043507
 20
52.68534735844329
 10
320.1182191043299
 20
52.318744645845975
 10
321.11577936928506
 20
51.973196633330936
 10
322.1203218507701
 20
51.648855905172915
 10
323.1314029711041
 20
51.34586568110691
 10
324.1485762653274
 20
51.064359753086336
 10
325.171392578348
 20
50.80446242620431
 10
326.19940026327544
 20
50.56628846380396
 10
327.2321453808556
 20
50.34994303680221
 10
328.2691718999177
 20
50.15552167724926
 10
329.31002189874425
 20
49.9831102361443
 10
330.354235767277
 20
49.83278484552614
 10
331.40135241006726
 20
49.70461188485546
 10
332.4509094498832
 20
49.598647951703455
 10
333.5024434318824
 20
49.51493983676
 10
334.5554900282602
 20
49.453524503172176
 10
335.609584243284
 20
49.4144290702224
 10
336.66426061862256
 20
49.397670801353264
 10
337.71905343887886
 20
49.403257096544536
 10
338.77349693723704
 20
49.43118548904553
 10
339.8271255011321
 20
49.481443646464335
 10
340.879473877851
 20
49.55400937621344
 10
341.93007737997544
 20
49.64885063530942
 10
342.9784720905746
 20
49.76592554452214
 10
344.02419506805774
 20
49.90518240686748
 10
345.0667845505963
 20
50.06655973043527
 10
346.10578016002495
 20
50.249986255542396
 10
347.1407231051314
 20
50.455380986199
 10
348.17115638424605
 20
50.68265322587416
 10
349.19662498704065
 20
50.9317026175448
 10
350.2166760954483
 20
51.20241918801057
 10
351.23085928361513
 20
51.49468339645496
 10
352.2387267167958
 20
51.80836618723108
 10
353.23983334910423
 20
52.14332904684905
 10
354.2337371200341
 20
52.49942406513965
 10
355.21999914965954
 20
52.8764940005673
 10
356.1981839324328
 20
53.27437234966346
 10
357.1678595294908
 20
53.692883420549904
 10
358.1285977593873
 20
54.13184241051928
 10
359.07997438716586
 20
54.591055487638855
 10
360.0215693116901
 20
55.07031987634111
 10
360.95296675114827
 20
55.56942394696386
 10
361.873755426651
 20
56.08814730919983
 10
362.7835287438404
 20
56.62626090941498
 10
363.6818849724309
 20
57.18352713179194
 10
364.56842742360163
 20
57.75969990325459
 10
365.44276462516336
 20
58.35452480212699
 10
366.30451049442144
 20
58.96773917047878
 10
367.1532845086592
 20
59.59907223010761
 10
367.98871187316587
 20
60.24824520210708
 10
368.8104236867356
 20
60.91497142996773
 10
369.6180571045635
 20
61.59895650615643
 10
370.4112554984682
 20
62.29989840211853
 10
371.1896686143683
 20
63.01748760164507
 10
371.95295272694517
 20
63.75140723754651
 10
372.7007707914219
 20
64.50133323157232
 10
373.43279259239324
 20
65.2669344375148
 10
374.14869488963905
 20
66.04787278743393
 10
374.84816156085844
 20
66.84380344093879
 10
375.53088374126014
 20
67.65437493745908
 10
376.1965599599487
 20
68.4792293514405
 10
376.8448962730454
 20
69.31800245039439
 10
377.4756063934859
 20
70.1703238557327
 10
378.0884118174363
 20
71.03581720631668
 10
378.6830419472724
 20
71.91410032464731
 10
379.2592342110685
 20
72.80478538562423
 10
379.8167341785413
 20
73.70747908779833
 10
380.35529567339944
 20
74.62178282704258
 10
380.874680882048
 20
75.54729287256444
 10
381.37466045860003
 20
76.48360054518196
 10
381.8550136261496
 20
77.43029239778507
 10
382.3155282742604
 20
78.38695039790211
 10
382.75600105262777
 20
79.35315211229123
 10
383.17623746087264
 20
80.3284708934751
 10
383.5760519344273
 20
81.31247606813626
 10
383.9552679264754
 20
82.30473312729048
 10
384.31371798591033
 20
83.30480391815357
 10
384.65124383127653
 20
84.31224683761747
 10
384.96769642066243
 20
85.3266170272496
 10
385.2629360175131
 20
86.34746656972989
 10
385.53683225233385
 20
87.3743446866385
 10
385.78926418025793
 20
88.40679793750678
 10
386.0201203344522
 20
89.4443704200439
 10
386.22929877533784
 20
90.48660397145042
 10
386.416707135604
 20
91.53303837073013
 10
386.58226266099445
 20
92.58321154191061
 10
386.72589224684987
 20
93.63665975808308
 10
386.8475324703884
 20
94.692917846171
 10
386.94712961871164
 20
95.75151939233763
 10
387.0246397125227
 20
96.81199694794098
 10
387.08002852554614
 20
97.87388223594618
 10
387.1132715996414
 20
98.93670635770334
 10
387.1243542556028
 20
99.99999999999999
  0
LINE
  5
99
330
17
100
AcDbEntity
  8
Layer
100
AcDbLine
 10
641.0825121385501
 20
99.99999999999996
 30
0.0
 11
645.0825121385501
 21
99.99999999999996
 31
0.0
  0
LINE
  5
9A
330
17
100
AcDbEntity
  8
Layer
100
AcDbLine
 10
14.890749021539818
 20
100.00000000000004
 30
0.0
 11
10.890749021539818
 21
100.00000000000004
 31
0.0
  0
LINE
  5
9B
330
17
100
AcDbEntity
  8
Layer
100
AcDbLine
 10
144.42910164494185
 20
100.00000000000003
 30
0.0
 11
133.42910164494185
 21
100.00000000000003
 31
0.0
  0
LWPOLYLINE
  5
9C
330
17
100
AcDbEntity
  8
Layer
100
AcDbPolyline
 90
5
 70
0
 10
133.92910164494185
 20
95.00000000000003
 10
133.92910164494185
 20
105.00000000000003
 10
143.92910164494185
 20
105.00000000000003
 10
143.92910164494185
 20
95.00000000000003
 10
133.92910164494185
 20
95.00000000000003
  0
LINE
  5
9D
330
17
100
AcDbEntity
  8
Layer
100
AcDbLine
 10
333.48663058004496
 20
100.0
 30
0.0
 11
322.48663058004496
 21
100.0
 31
0.0
  0
LWPOLYLINE
  5
9E
330
17
100
AcDbEntity
  8
Layer
100
AcDbPolyline
 90
5
 70
0
 10
322.98663058004496
 20
95.0
 10
322.98663058004496
 20
105.0
 10
332.98663058004496
 20
105.0
 10
332.98663058004496
 20
95.0
 10
322.98663058004496
 20
95.0
  0
LINE
  5
9F
330
17
100
AcDbEntity
  8
Layer
100
AcDbLine
 10
522.5441595151481
 20
99.99999999999997
 30
0.0
 11
511.54415951514807
 21
99.99999999999997
 31
0.0
  0
LWPOLYLINE
  5
A0
330
17
100
AcDbEntity
  8
Layer
100
AcDbPolyline
 90
5
 70
0
 10
512.0441595151481
 20
94.99999999999997
 10
512.0441595151481
 20
104.99999999999997
 10
522.0441595151481
 20
104.99999999999997
 10
522.0441595151481
 20
94.99999999999997
 10
512.0441595151481
 20
94.99999999999997
  0
LINE
  5
A1
330
17
100
AcDbEntity
  8
Layer
100
AcDbLine
 10
0.8165530778642847
 20
77.90192873093667
 30
0.0
 11
-3.1716579310433985
 21
78.20880484344394
 31
0.0
  0
LINE
  5
A2
330
17
100
AcDbEntity
  8
Layer
100
AcDbLine
 10
567.8717193680668
 20
34.269411640030626
 30
0.0
 11
571.8599303769745
 21
33.96253552752336
 31
0.0
  0
LINE
  5
A3
330
17
100
AcDbEntity
  8
Layer
100
AcDbLine
 10
883.9790988548164
 20
9.946274389997214
 30
0.0
 11
887.967309863724
 21
9.639398277489946
 31
0.0
  0
LINE
  5
A4
330
17
100
AcDbEntity
  8
Layer
100
AcDbLine
 10
336.9279661016949
 20
150.6030275
 30
0.0
 11
336.9279661016949
 21
151.1030275
 31
0.0
  0
LINE
  5
A5
330
17
100
AcDbEntity
  8
Layer
100
AcDbLine
 10
336.9279661016949
 20
49.396972500000004
 30
0.0
 11
336.9279661016949
 21
48.896972500000004
 31
0.0
  0
LINE
  5
A6
330
17
100
AcDbEntity
  8
Layer
100
AcDbLine
 10
387.1243542556028
 20
100.0
 30
0.0
 11
387.6243542556028
 21
100.0
 31
0.0
  0
LINE
  5
A7
330
17
100
AcDbEntity
  8
Layer
100
AcDbLine
 10
286.731577947787
 20
100.0
 30
0.0
 11
286.231577947787
 21
100.0
 31
0.0
  0
LINE
  5
A8
330
17
100
AcDbEntity
  8
Layer
100
AcDbLine
 10
116.92796610169489
 20
144.43726390844373
 30
0.0
 11
116.92796610169489
 21
148.43726390844373
 31
0.0
  0
LINE
  5
A9
330
17
100
AcDbEntity
  8
Layer
100
AcDbLine
 10
116.92796610169489
 20
47.14558911761287
 30
0.0
 11
116.92796610169489
 21
43.14558911761287
 31
0.0
  0
LINE
  5
AA
330
17
100
AcDbEntity
  8
Layer
100
AcDbLine
 10
116.92796610169489
 20
70.90392407577905
 30
0.0
 11
116.92796610169489
 21
59.903924075779045
 31
0.0
  0
LWPOLYLINE
  5
AB
330
17
100
AcDbEntity
  8
Layer
100
AcDbPolyline
 90
5
 70
0
 10
121.92796610169489
 20
60.403924075779045
 10
111.92796610169489
 20
60.403924075779045
 10
111.92796610169489
 20
70.40392407577905
 10
121.92796610169489
 20
70.40392407577905
 10
121.92796610169489
 20
60.403924075779045
  0
LINE
  5
AC
330
17
100
AcDbEntity
  8
Layer
100
AcDbLine
 10
116.92796610169489
 20
101.2914265130283
 30
0.0
 11
116.92796610169489
 21
90.2914265130283
 31
0.0
  0
LWPOLYLINE
  5
AD
330
17
100
AcDbEntity
  8
Layer
100
AcDbPolyline
 90
5
 70
0
 10
121.92796610169489
 20
90.7914265130283
 10
111.92796610169489
 20
90.7914265130283
 10
111.92796610169489
 20
100.7914265130283
 10
121.92796610169489
 20
100.7914265130283
 10
121.92796610169489
 20
90.7914265130283
  0
LINE
  5
AE
330
17
100
AcDbEntity
  8
Layer
100
AcDbLine
 10
116.92796610169489
 20
131.67892895027757
 30
0.0
 11
116.92796610169489
 21
120.67892895027757
 31
0.0
  0
LWPOLYLINE
  5
AF
330
17
100
AcDbEntity
  8
Layer
100
AcDbPolyline
 90
5
 70
0
 10
121.92796610169489
 20
121.17892895027757
 10
111.92796610169489
 20
121.17892895027757
 10
111.92796610169489
 20
131.17892895027757
 10
121.92796610169489
 20
131.17892895027757
 10
121.92796610169489
 20
121.17892895027757
  0
LINE
  5
B0
330
17
100
AcDbEntity
  8
Layer
100
AcDbLine
 10
536.9279661016949
 20
128.8378966117607
 30
0.0
 11
536.9279661016949
 21
132.8378966117607
 31
0.0
  0
LINE
  5
B1
330
17
100
AcDbEntity
  8
Layer
100
AcDbLine
 10
536.9279661016949
 20
36.83297037300015
 30
0.0
 11
536.9279661016949
 21
32.83297037300015
 31
0.0
  0
LINE
  5
B2
330
17
100
AcDbEntity
  8
Layer
100
AcDbLine
 10
536.9279661016949
 20
59.533955620752266
 30
0.0
 11
536.9279661016949
 21
48.533955620752266
 31
0.0
  0
LWPOLYLINE
  5
B3
330
17
100
AcDbEntity
  8
Layer
100
AcDbPolyline
 90
5
 70
0
 10
541.9279661016949
 20
49.033955620752266
 10
531.9279661016949
 20
49.033955620752266
 10
531.9279661016949
 20
59.033955620752266
 10
541.9279661016949
 20
59.033955620752266
 10
541.9279661016949
 20
49.033955620752266
  0
LINE
  5
B4
330
17
100
AcDbEntity
  8
Layer
100
AcDbLine
 10
536.9279661016949
 20
88.33543349238043
 30
0.0
 11
536.9279661016949
 21
77.33543349238043
 31
0.0
  0
LWPOLYLINE
  5
B5
330
17
100
AcDbEntity
  8
Layer
100
AcDbPolyline
 90
5
 70
0
 10
541.9279661016949
 20
77.83543349238043
 10
531.9279661016949
 20
77.83543349238043
 10
531.9279661016949
 20
87.83543349238043
 10
541.9279661016949
 20
87.83543349238043
 10
541.9279661016949
 20
77.83543349238043
  0
LINE
  5
B6
330
17
100
AcDbEntity
  8
Layer
100
AcDbLine
 10
536.9279661016949
 20
117.1369113640086
 30
0.0
 11
536.9279661016949
 21
106.1369113640086
 31
0.0
  0
LWPOLYLINE
  5
B7
330
17
100
AcDbEntity
  8
Layer
100
AcDbPolyline
 90
5
 70
0
 10
541.9279661016949
 20
106.6369113640086
 10
531.9279661016949
 20
106.6369113640086
 10
531.9279661016949
 20
116.6369113640086
 10
541.9279661016949
 20
116.6369113640086
 10
541.9279661016949
 20
106.6369113640086
  0
ENDSEC
  0
SECTION
  2
OBJECTS
  0
DICTIONARY
  5
A
330
0
100
AcDbDictionary
280
0
281
1
  3
ACAD_COLOR
350
B
  3
ACAD_GROUP
350
C
  3
ACAD_LAYOUT
350
D
  3
ACAD_MATERIAL
350
E
  3
ACAD_MLEADERSTYLE
350
F
  3
ACAD_MLINESTYLE
350
10
  3
ACAD_PLOTSETTINGS
350
11
  3
ACAD_PLOTSTYLENAME
350
12
  3
ACAD_SCALELIST
350
14
  3
ACAD_TABLESTYLE
350
15
  3
ACAD_VISUALSTYLE
350
16
  3
EZDXF_META
350
2D
  0
DICTIONARY
  5
B
330
A
100
AcDbDictionary
280
0
281
1
  0
DICTIONARY
  5
C
330
A
100
AcDbDictionary
280
0
281
1
  0
DICTIONARY
  5
D
330
A
100
AcDbDictionary
280
0
281
1
  3
Model
350
1A
  3
Layout1
350
1E
  0
DICTIONARY
  5
E
330
A
100
AcDbDictionary
280
0
281
1
  3
ByBlock
350
1F
  3
ByLayer
350
20
  3
Global
350
21
  0
DICTIONARY
  5
F
330
A
100
AcDbDictionary
280
0
281
1
  3
Standard
350
2C
  0
DICTIONARY
  5
10
330
A
100
AcDbDictionary
280
0
281
1
  3
Standard
350
22
  0
DICTIONARY
  5
11
330
A
100
AcDbDictionary
280
0
281
1
  0
ACDBDICTIONARYWDFLT
  5
12
330
A
100
AcDbDictionary
280
0
281
1
  3
Normal
350
13
100
AcDbDictionaryWithDefault
340
13
  0
ACDBPLACEHOLDER
  5
13
330
12
  0
DICTIONARY
  5
14
330
A
100
AcDbDictionary
280
0
281
1
  0
DICTIONARY
  5
15
330
A
100
AcDbDictionary
280
0
281
1
  0
DICTIONARY
  5
16
330
A
100
AcDbDictionary
280
0
281
1
  3
2dWireframe
350
5A
  3
Basic
350
5B
  3
Brighten
350
5C
  3
ColorChange
350
5D
  3
Conceptual
350
5E
  3
Dim
350
5F
  3
EdgeColorOff
350
60
  3
Facepattern
350
61
  3
Flat
350
62
  3
FlatWithEdges
350
63
  3
Gouraud
350
64
  3
GouraudWithEdges
350
65
  3
Hidden
350
66
  3
JitterOff
350
67
  3
Linepattern
350
68
  3
Modeling
350
69
  3
OverhangOff
350
6A
  3
Realistic
350
6B
  3
Shaded
350
6C
  3
Shaded with edges
350
6D
  3
Shades of Gray
350
6E
  3
Sketchy
350
6F
  3
Thicken
350
70
  3
Wireframe
350
71
  3
X-Ray
350
72
  0
LAYOUT
  5
1A
330
D
100
AcDbPlotSettings
  1

  2
Adobe PDF
  4
A3
  6

 40
7.5
 41
20.0
 42
7.5
 43
20.0
 44
420.0
 45
297.0
 46
0.0
 47
0.0
 48
0.0
 49
0.0
140
0.0
141
0.0
142
1.0
143
1.0
 70
1024
 72
1
 73
0
 74
5
  7

 75
16
 76
0
 77
2
 78
300
147
1.0
148
0.0
149
0.0
100
AcDbLayout
  1
Model
 70
1
 71
0
 10
0.0
 20
0.0
 11
420.0
 21
297.0
 12
0.0
 22
0.0
 32
0.0
 14
1e+20
 24
1e+20
 34
1e+20
 15
-1e+20
 25
-1e+20
 35
-1e+20
146
0.0
 13
0.0
 23
0.0
 33
0.0
 16
1.0
 26
0.0
 36
0.0
 17
0.0
 27
1.0
 37
0.0
 76
1
330
17
  0
LAYOUT
  5
1E
330
D
100
AcDbPlotSettings
  1

  2
Adobe PDF
  4
A3
  6

 40
7.5
 41
20.0
 42
7.5
 43
20.0
 44
420.0
 45
297.0
 46
0.0
 47
0.0
 48
0.0
 49
0.0
140
0.0
141
0.0
142
1.0
143
1.0
 70
0
 72
1
 73
0
 74
5
  7

 75
16
 76
0
 77
2
 78
300
147
1.0
148
0.0
149
0.0
100
AcDbLayout
  1
Layout1
 70
1
 71
1
 10
0.0
 20
0.0
 11
420.0
 21
297.0
 12
0.0
 22
0.0
 32
0.0
 14
1e+20
 24
1e+20
 34
1e+20
 15
-1e+20
 25
-1e+20
 35
-1e+20
146
0.0
 13
0.0
 23
0.0
 33
0.0
 16
1.0
 26
0.0
 36
0.0
 17
0.0
 27
1.0
 37
0.0
 76
1
330
1B
  0
MATERIAL
  5
1F
102
{ACAD_REACTORS
330
E
102
}
330
E
100
AcDbMaterial
  1
ByBlock
  2

 70
0
 40
1.0
 71
1
 41
1.0
 91
-1023410177
 42
1.0
 72
1
  3

 73
1
 74
1
 75
1
 44
0.5
 73
0
 45
1.0
 46
1.0
 77
1
  4

 78
1
 79
1
170
1
 48
1.0
171
1
  6

172
1
173
1
174
1
140
1.0
141
1.0
175
1
  7

176
1
177
1
178
1
143
1.0
179
1
  8

270
1
271
1
272
1
145
1.0
146
1.0
273
1
  9

274
1
275
1
276
1
 42
1.0
 72
1
  3

 73
1
 74
1
 75
1
 94
63
  0
MATERIAL
  5
20
102
{ACAD_REACTORS
330
E
102
}
330
E
100
AcDbMaterial
  1
ByLayer
  2

 70
0
 40
1.0
 71
1
 41
1.0
 91
-1023410177
 42
1.0
 72
1
  3

 73
1
 74
1
 75
1
 44
0.5
 73
0
 45
1.0
 46
1.0
 77
1
  4

 78
1
 79
1
170
1
 48
1.0
171
1
  6

172
1
173
1
174
1
140
1.0
141
1.0
175
1
  7

176
1
177
1
178
1
143
1.0
179
1
  8

270
1
271
1
272
1
145
1.0
146
1.0
273
1
  9

274
1
275
1
276
1
 42
1.0
 72
1
  3

 73
1
 74
1
 75
1
 94
63
  0
MATERIAL
  5
21
102
{ACAD_REACTORS
330
E
102
}
330
E
100
AcDbMaterial
  1
Global
  2

 70
0
 40
1.0
 71
1
 41
1.0
 91
-1023410177
 42
1.0
 72
1
  3

 73
1
 74
1
 75
1
 44
0.5
 73
0
 45
1.0
 46
1.0
 77
1
  4

 78
1
 79
1
170
1
 48
1.0
171
1
  6

172
1
173
1
174
1
140
1.0
141
1.0
175
1
  7

176
1
177
1
178
1
143
1.0
179
1
  8

270
1
271
1
272
1
145
1.0
146
1.0
273
1
  9

274
1
275
1
276
1
 42
1.0
 72
1
  3

 73
1
 74
1
 75
1
 94
63
  0
MLINESTYLE
  5
22
102
{ACAD_REACTORS
330
10
102
}
330
10
100
AcDbMlineStyle
  2
Standard
 70
0
  3

 62
256
 51
90.0
 52
90.0
 71
2
 49
0.5
 62
256
  6
BYLAYER
 49
-0.5
 62
256
  6
BYLAYER
  0
MLEADERSTYLE
  5
2C
102
{ACAD_REACTORS
330
F
102
}
330
F
100
AcDbMLeaderStyle
179
2
170
2
171
1
172
0
 90
2
 40
0.0
 41
0.0
173
1
 91
-1056964608
 92
-2
290
1
 42
2.0
291
1
 43
8.0
  3
Standard
 44
4.0
300

342
29
174
1
175
1
176
0
178
1
 93
-1056964608
 45
4.0
292
0
297
0
 46
4.0
 94
-1056964608
 47
1.0
 49
1.0
140
1.0
294
1
141
0.0
177
0
142
1.0
295
0
296
0
143
3.75
271
0
272
9
273
9
  0
DICTIONARY
  5
2D
330
A
100
AcDbDictionary
281
1
  3
CREATED_BY_EZDXF
350
2E
  3
WRITTEN_BY_EZDXF
350
BA
  0
DICTIONARYVAR
  5
2E
330
2D
100
DictionaryVariables
280
0
  1
1.1.0 @ 2024-03-26T01:33:48.879022+00:00
  0
VISUALSTYLE
  5
5A
102
{ACAD_REACTORS
330
16
102
}
330
16
100
AcDbVisualStyle
  2
2dWireframe
 70
4
 90
0
 40
0.6
 62
7
290
0
291
0
  0
VISUALSTYLE
  5
5B
102
{ACAD_REACTORS
330
16
102
}
330
16
100
AcDbVisualStyle
  2
Basic
 70
7
 90
1
 40
0.6
 62
7
290
0
291
1
  0
VISUALSTYLE
  5
5C
102
{ACAD_REACTORS
330
16
102
}
330
16
100
AcDbVisualStyle
  2
Brighten
 70
12
 90
2
 40
0.6
 62
7
290
0
291
1
  0
VISUALSTYLE
  5
5D
102
{ACAD_REACTORS
330
16
102
}
330
16
100
AcDbVisualStyle
  2
ColorChange
 70
16
 90
2
 40
0.6
 62
8
290
0
291
1
  0
VISUALSTYLE
  5
5E
102
{ACAD_REACTORS
330
16
102
}
330
16
100
AcDbVisualStyle
  2
Conceptual
 70
9
 90
3
 40
0.6
 62
7
290
0
291
0
  0
VISUALSTYLE
  5
5F
102
{ACAD_REACTORS
330
16
102
}
330
16
100
AcDbVisualStyle
  2
Dim
 70
11
 90
2
 40
0.6
 62
7
290
0
291
1
  0
VISUALSTYLE
  5
60
102
{ACAD_REACTORS
330
16
102
}
330
16
100
AcDbVisualStyle
  2
EdgeColorOff
 70
22
 90
2
 40
0.6
 62
7
290
0
291
1
  0
VISUALSTYLE
  5
61
102
{ACAD_REACTORS
330
16
102
}
330
16
100
AcDbVisualStyle
  2
Facepattern
 70
15
 90
2
 40
0.6
 62
7
290
0
291
1
  0
VISUALSTYLE
  5
62
102
{ACAD_REACTORS
330
16
102
}
330
16
100
AcDbVisualStyle
  2
Flat
 70
0
 90
2
 40
0.6
 62
7
290
0
291
1
  0
VISUALSTYLE
  5
63
102
{ACAD_REACTORS
330
16
102
}
330
16
100
AcDbVisualStyle
  2
FlatWithEdges
 70
1
 90
2
 40
0.6
 62
7
290
0
291
1
  0
VISUALSTYLE
  5
64
102
{ACAD_REACTORS
330
16
102
}
330
16
100
AcDbVisualStyle
  2
Gouraud
 70
2
 90
2
 40
0.6
 62
7
290
0
291
1
  0
VISUALSTYLE
  5
65
102
{ACAD_REACTORS
330
16
102
}
330
16
100
AcDbVisualStyle
  2
GouraudWithEdges
 70
3
 90
2
 40
0.6
 62
7
290
0
291
1
  0
VISUALSTYLE
  5
66
102
{ACAD_REACTORS
330
16
102
}
330
16
100
AcDbVisualStyle
  2
Hidden
 70
6
 90
1
 40
0.6
 62
7
290
0
291
0
  0
VISUALSTYLE
  5
67
102
{ACAD_REACTORS
330
16
102
}
330
16
100
AcDbVisualStyle
  2
JitterOff
 70
20
 90
2
 40
0.6
 62
7
290
0
291
1
  0
VISUALSTYLE
  5
68
102
{ACAD_REACTORS
330
16
102
}
330
16
100
AcDbVisualStyle
  2
Linepattern
 70
14
 90
2
 40
0.6
 62
7
290
0
291
1
  0
VISUALSTYLE
  5
69
102
{ACAD_REACTORS
330
16
102
}
330
16
100
AcDbVisualStyle
  2
Modeling
 70
10
 90
2
 40
0.6
 62
7
290
0
291
0
  0
VISUALSTYLE
  5
6A
102
{ACAD_REACTORS
330
16
102
}
330
16
100
AcDbVisualStyle
  2
OverhangOff
 70
21
 90
2
 40
0.6
 62
7
290
0
291
1
  0
VISUALSTYLE
  5
6B
102
{ACAD_REACTORS
330
16
102
}
330
16
100
AcDbVisualStyle
  2
Realistic
 70
8
 90
2
 40
0.6
 62
7
290
0
291
0
  0
VISUALSTYLE
  5
6C
102
{ACAD_REACTORS
330
16
102
}
330
16
100
AcDbVisualStyle
  2
Shaded
 70
27
 90
2
 40
0.6
 62
7
290
0
291
0
  0
VISUALSTYLE
  5
6D
102
{ACAD_REACTORS
330
16
102
}
330
16
100
AcDbVisualStyle
  2
Shaded with edges
 70
26
 90
2
 40
0.6
 62
7
290
0
291
0
  0
VISUALSTYLE
  5
6E
102
{ACAD_REACTORS
330
16
102
}
330
16
100
AcDbVisualStyle
  2
Shades of Gray
 70
23
 90
2
 40
0.6
 62
7
290
0
291
0
  0
VISUALSTYLE
  5
6F
102
{ACAD_REACTORS
330
16
102
}
330
16
100
AcDbVisualStyle
  2
Sketchy
 70
24
 90
1
 40
0.6
 62
7
290
0
291
0
  0
VISUALSTYLE
  5
70
102
{ACAD_REACTORS
330
16
102
}
330
16
100
AcDbVisualStyle
  2
Thicken
 70
13
 90
2
 40
0.6
 62
7
290
0
291
1
  0
VISUALSTYLE
  5
71
102
{ACAD_REACTORS
330
16
102
}
330
16
100
AcDbVisualStyle
  2
Wireframe
 70
5
 90
0
 40
0.6
 62
7
290
0
291
0
  0
VISUALSTYLE
  5
72
102
{ACAD_REACTORS
330
16
102
}
330
16
100
AcDbVisualStyle
  2
X-Ray
 70
25
 90
2
 40
0.5
 62
7
290
0
291
0
  0
DICTIONARYVAR
  5
BA
330
2D
100
DictionaryVariables
280
0
  1
1.1.0 @ 2024-03-26T01:33:48.952770+00:00
  0
ENDSEC
  0
EOF
