  0
SECTION
  2
HEADER
  9
$ACADVER
  1
AC1021
  9
$ACADMAINTVER
 70
25
  9
$DWGCODEPAGE
  3
ANSI_1252
  9
$LASTSAVEDBY
  1
ezdxf
  9
$INSBASE
 10
0.0
 20
0.0
 30
0.0
  9
$EXTMIN
 10
1e+20
 20
1e+20
 30
1e+20
  9
$EXTMAX
 10
-1e+20
 20
-1e+20
 30
-1e+20
  9
$LIMMIN
 10
0.0
 20
0.0
  9
$LIMMAX
 10
420.0
 20
297.0
  9
$ORTHOMODE
 70
0
  9
$REGENMODE
 70
1
  9
$FILLMODE
 70
1
  9
$QTEXTMODE
 70
0
  9
$MIRRTEXT
 70
1
  9
$LTSCALE
 40
1.0
  9
$ATTMODE
 70
1
  9
$TEXTSIZE
 40
2.5
  9
$TRACEWID
 40
1.0
  9
$TEXTSTYLE
  7
OpenSans
  9
$CLAYER
  8
0
  9
$CELTYPE
  6
ByLayer
  9
$CECOLOR
 62
256
  9
$CELTSCALE
 40
1.0
  9
$DISPSILH
 70
0
  9
$DIMSCALE
 40
1.0
  9
$DIMASZ
 40
0.175
  9
$DIMEXO
 40
0.125
  9
$DIMDLI
 40
3.75
  9
$DIMRND
 40
0.0
  9
$DIMDLE
 40
0.0
  9
$DIMEXE
 40
0.375
  9
$DIMTP
 40
0.0
  9
$DIMTM
 40
0.0
  9
$DIMTXT
 40
0.25
  9
$DIMCEN
 40
2.5
  9
$DIMTSZ
 40
0.0
  9
$DIMTOL
 70
0
  9
$DIMLIM
 70
0
  9
$DIMTIH
 70
0
  9
$DIMTOH
 70
0
  9
$DIMSE1
 70
0
  9
$DIMSE2
 70
0
  9
$DIMTAD
 70
1
  9
$DIMZIN
 70
12
  9
$DIMBLK
  1
ARCHTICK
  9
$DIMASO
 70
1
  9
$DIMSHO
 70
1
  9
$DIMPOST
  1

  9
$DIMAPOST
  1

  9
$DIMALT
 70
0
  9
$DIMALTD
 70
3
  9
$DIMALTF
 40
0.03937007874
  9
$DIMLFAC
 40
100.0
  9
$DIMTOFL
 70
1
  9
$DIMTVP
 40
0.0
  9
$DIMTIX
 70
0
  9
$DIMSOXD
 70
0
  9
$DIMSAH
 70
0
  9
$DIMBLK1
  1

  9
$DIMBLK2
  1

  9
$DIMSTYLE
  2
EZDXF
  9
$DIMCLRD
 70
0
  9
$DIMCLRE
 70
0
  9
$DIMCLRT
 70
0
  9
$DIMTFAC
 40
0.5
  9
$DIMGAP
 40
0.1
  9
$DIMJUST
 70
0
  9
$DIMSD1
 70
0
  9
$DIMSD2
 70
0
  9
$DIMTOLJ
 70
0
  9
$DIMTZIN
 70
8
  9
$DIMALTZ
 70
0
  9
$DIMALTTZ
 70
0
  9
$DIMUPT
 70
1
  9
$DIMDEC
 70
2
  9
$DIMTDEC
 70
2
  9
$DIMALTU
 70
2
  9
$DIMALTTD
 70
3
  9
$DIMTXSTY
  7
OpenSansCondensed-Light
  9
$DIMAUNIT
 70
0
  9
$DIMADEC
 70
2
  9
$DIMALTRND
 40
0.0
  9
$DIMAZIN
 70
3
  9
$DIMDSEP
 70
46
  9
$DIMATFIT
 70
3
  9
$DIMFRAC
 70
0
  9
$DIMLDRBLK
  1

  9
$DIMLUNIT
 70
2
  9
$DIMLWD
 70
-2
  9
$DIMLWE
 70
-2
  9
$DIMTMOVE
 70
2
  9
$DIMFXL
 40
1.0
  9
$DIMFXLON
 70
0
  9
$DIMJOGANG
 40
0.785398163397
  9
$DIMTFILL
 70
0
  9
$DIMTFILLCLR
 70
0
  9
$DIMARCSYM
 70
0
  9
$DIMLTYPE
  6

  9
$DIMLTEX1
  6

  9
$DIMLTEX2
  6

  9
$LUNITS
 70
2
  9
$LUPREC
 70
4
  9
$SKETCHINC
 40
1.0
  9
$FILLETRAD
 40
10.0
  9
$AUNITS
 70
0
  9
$AUPREC
 70
2
  9
$MENU
  1
.
  9
$ELEVATION
 40
0.0
  9
$PELEVATION
 40
0.0
  9
$THICKNESS
 40
0.0
  9
$LIMCHECK
 70
0
  9
$CHAMFERA
 40
0.0
  9
$CHAMFERB
 40
0.0
  9
$CHAMFERC
 40
0.0
  9
$CHAMFERD
 40
0.0
  9
$SKPOLY
 70
0
  9
$TDCREATE
 40
2460396.440150463
  9
$TDUCREATE
 40
2458532.153996898
  9
$TDUPDATE
 40
2460396.440150463
  9
$TDUUPDATE
 40
2458532.1544311
  9
$TDINDWG
 40
0.0
  9
$TDUSRTIMER
 40
0.0
  9
$USRTIMER
 70
1
  9
$ANGBASE
 50
0.0
  9
$ANGDIR
 70
0
  9
$PDMODE
 70
0
  9
$PDSIZE
 40
0.0
  9
$PLINEWID
 40
0.0
  9
$SPLFRAME
 70
0
  9
$SPLINETYPE
 70
6
  9
$SPLINESEGS
 70
8
  9
$HANDSEED
  5
B4
  9
$SURFTAB1
 70
6
  9
$SURFTAB2
 70
6
  9
$SURFTYPE
 70
6
  9
$SURFU
 70
6
  9
$SURFV
 70
6
  9
$UCSBASE
  2

  9
$UCSNAME
  2

  9
$UCSORG
 10
0.0
 20
0.0
 30
0.0
  9
$UCSXDIR
 10
1.0
 20
0.0
 30
0.0
  9
$UCSYDIR
 10
0.0
 20
1.0
 30
0.0
  9
$UCSORTHOREF
  2

  9
$UCSORTHOVIEW
 70
0
  9
$UCSORGTOP
 10
0.0
 20
0.0
 30
0.0
  9
$UCSORGBOTTOM
 10
0.0
 20
0.0
 30
0.0
  9
$UCSORGLEFT
 10
0.0
 20
0.0
 30
0.0
  9
$UCSORGRIGHT
 10
0.0
 20
0.0
 30
0.0
  9
$UCSORGFRONT
 10
0.0
 20
0.0
 30
0.0
  9
$UCSORGBACK
 10
0.0
 20
0.0
 30
0.0
  9
$PUCSBASE
  2

  9
$PUCSNAME
  2

  9
$PUCSORG
 10
0.0
 20
0.0
 30
0.0
  9
$PUCSXDIR
 10
1.0
 20
0.0
 30
0.0
  9
$PUCSYDIR
 10
0.0
 20
1.0
 30
0.0
  9
$PUCSORTHOREF
  2

  9
$PUCSORTHOVIEW
 70
0
  9
$PUCSORGTOP
 10
0.0
 20
0.0
 30
0.0
  9
$PUCSORGBOTTOM
 10
0.0
 20
0.0
 30
0.0
  9
$PUCSORGLEFT
 10
0.0
 20
0.0
 30
0.0
  9
$PUCSORGRIGHT
 10
0.0
 20
0.0
 30
0.0
  9
$PUCSORGFRONT
 10
0.0
 20
0.0
 30
0.0
  9
$PUCSORGBACK
 10
0.0
 20
0.0
 30
0.0
  9
$USERI1
 70
0
  9
$USERI2
 70
0
  9
$USERI3
 70
0
  9
$USERI4
 70
0
  9
$USERI5
 70
0
  9
$USERR1
 40
0.0
  9
$USERR2
 40
0.0
  9
$USERR3
 40
0.0
  9
$USERR4
 40
0.0
  9
$USERR5
 40
0.0
  9
$WORLDVIEW
 70
1
  9
$SHADEDGE
 70
3
  9
$SHADEDIF
 70
70
  9
$TILEMODE
 70
1
  9
$MAXACTVP
 70
64
  9
$PINSBASE
 10
0.0
 20
0.0
 30
0.0
  9
$PLIMCHECK
 70
0
  9
$PEXTMIN
 10
1e+20
 20
1e+20
 30
1e+20
  9
$PEXTMAX
 10
-1e+20
 20
-1e+20
 30
-1e+20
  9
$PLIMMIN
 10
0.0
 20
0.0
  9
$PLIMMAX
 10
420.0
 20
297.0
  9
$UNITMODE
 70
0
  9
$VISRETAIN
 70
1
  9
$PLINEGEN
 70
0
  9
$PSLTSCALE
 70
1
  9
$TREEDEPTH
 70
3020
  9
$CMLSTYLE
  2
Standard
  9
$CMLJUST
 70
0
  9
$CMLSCALE
 40
20.0
  9
$PROXYGRAPHICS
 70
1
  9
$MEASUREMENT
 70
1
  9
$CELWEIGHT
370
-1
  9
$ENDCAPS
280
0
  9
$JOINSTYLE
280
0
  9
$LWDISPLAY
290
0
  9
$INSUNITS
 70
6
  9
$HYPERLINKBASE
  1

  9
$STYLESHEET
  1

  9
$XEDIT
290
1
  9
$CEPSNTYPE
380
0
  9
$PSTYLEMODE
290
1
  9
$FINGERPRINTGUID
  2
{742B3E5E-885C-493A-B478-8D8E4DF82584}
  9
$VERSIONGUID
  2
{A7583743-4573-4B14-BB22-AC93A1D09AC7}
  9
$EXTNAMES
290
1
  9
$PSVPSCALE
 40
0.0
  9
$OLESTARTUP
290
0
  9
$SORTENTS
280
127
  9
$INDEXCTL
280
0
  9
$HIDETEXT
280
1
  9
$XCLIPFRAME
290
0
  9
$HALOGAP
280
0
  9
$OBSCOLOR
 70
257
  9
$OBSLTYPE
280
0
  9
$INTERSECTIONDISPLAY
280
0
  9
$INTERSECTIONCOLOR
 70
257
  9
$DIMASSOC
280
2
  9
$PROJECTNAME
  1

  9
$CAMERADISPLAY
290
0
  9
$LENSLENGTH
 40
50.0
  9
$CAMERAHEIGHT
 40
0.0
  9
$STEPSPERSEC
 40
24.0
  9
$STEPSIZE
 40
100.0
  9
$3DDWFPREC
 40
2.0
  9
$PSOLWIDTH
 40
0.005
  9
$PSOLHEIGHT
 40
0.08
  9
$LOFTANG1
 40
1.570796326795
  9
$LOFTANG2
 40
1.570796326795
  9
$LOFTMAG1
 40
0.0
  9
$LOFTMAG2
 40
0.0
  9
$LOFTPARAM
 70
7
  9
$LOFTNORMALS
280
1
  9
$LATITUDE
 40
37.795
  9
$LONGITUDE
 40
-122.394
  9
$NORTHDIRECTION
 40
0.0
  9
$TIMEZONE
 70
-8000
  9
$LIGHTGLYPHDISPLAY
280
1
  9
$TILEMODELIGHTSYNCH
280
1
  9
$CMATERIAL
347
20
  9
$SOLIDHIST
280
0
  9
$SHOWHIST
280
1
  9
$DWFFRAME
280
2
  9
$DGNFRAME
280
2
  9
$REALWORLDSCALE
290
1
  9
$INTERFERECOLOR
 62
256
  9
$CSHADOW
280
0
  9
$SHADOWPLANELOCATION
 40
0.0
  0
ENDSEC
  0
SECTION
  2
CLASSES
  0
CLASS
  1
ACDBDICTIONARYWDFLT
  2
AcDbDictionaryWithDefault
  3
ObjectDBX Classes
 90
0
 91
0
280
0
281
0
  0
CLASS
  1
SUN
  2
AcDbSun
  3
SCENEOE
 90
1153
 91
0
280
0
281
0
  0
CLASS
  1
VISUALSTYLE
  2
AcDbVisualStyle
  3
ObjectDBX Classes
 90
4095
 91
0
280
0
281
0
  0
CLASS
  1
MATERIAL
  2
AcDbMaterial
  3
ObjectDBX Classes
 90
1153
 91
0
280
0
281
0
  0
CLASS
  1
SCALE
  2
AcDbScale
  3
ObjectDBX Classes
 90
1153
 91
0
280
0
281
0
  0
CLASS
  1
TABLESTYLE
  2
AcDbTableStyle
  3
ObjectDBX Classes
 90
4095
 91
0
280
0
281
0
  0
CLASS
  1
MLEADERSTYLE
  2
AcDbMLeaderStyle
  3
ACDB_MLEADERSTYLE_CLASS
 90
4095
 91
0
280
0
281
0
  0
CLASS
  1
DICTIONARYVAR
  2
AcDbDictionaryVar
  3
ObjectDBX Classes
 90
0
 91
0
280
0
281
0
  0
CLASS
  1
CELLSTYLEMAP
  2
AcDbCellStyleMap
  3
ObjectDBX Classes
 90
1152
 91
0
280
0
281
0
  0
CLASS
  1
MENTALRAYRENDERSETTINGS
  2
AcDbMentalRayRenderSettings
  3
SCENEOE
 90
1024
 91
0
280
0
281
0
  0
CLASS
  1
ACDBDETAILVIEWSTYLE
  2
AcDbDetailViewStyle
  3
ObjectDBX Classes
 90
1025
 91
0
280
0
281
0
  0
CLASS
  1
ACDBSECTIONVIEWSTYLE
  2
AcDbSectionViewStyle
  3
ObjectDBX Classes
 90
1025
 91
0
280
0
281
0
  0
CLASS
  1
RASTERVARIABLES
  2
AcDbRasterVariables
  3
ISM
 90
0
 91
0
280
0
281
0
  0
CLASS
  1
LAYOUT
  2
AcDbLayout
  3
ObjectDBX Classes
 90
0
 91
0
280
0
281
0
  0
CLASS
  1
ACDBPLACEHOLDER
  2
AcDbPlaceHolder
  3
ObjectDBX Classes
 90
0
 91
0
280
0
281
0
  0
ENDSEC
  0
SECTION
  2
TABLES
  0
TABLE
  2
VPORT
  5
8
330
0
100
AcDbSymbolTable
 70
1
  0
VPORT
  5
23
330
8
100
AcDbSymbolTableRecord
100
AcDbViewportTableRecord
  2
*Active
 70
0
 10
0.0
 20
0.0
 11
1.0
 21
1.0
 12
0.0
 22
0.0
 13
0.0
 23
0.0
 14
0.5
 24
0.5
 15
0.5
 25
0.5
 16
0.0
 26
0.0
 36
1.0
 17
0.0
 27
0.0
 37
0.0
 40
1000.0
 41
1.34
 42
50.0
 43
0.0
 44
0.0
 50
0.0
 51
0.0
 71
0
 72
1000
 73
1
 74
3
 75
0
 76
0
 77
0
 78
0
281
0
 65
0
146
0.0
  0
ENDTAB
  0
TABLE
  2
LTYPE
  5
2
330
0
100
AcDbSymbolTable
 70
21
  0
LTYPE
  5
24
330
2
100
AcDbSymbolTableRecord
100
AcDbLinetypeTableRecord
  2
ByBlock
 70
0
  3

 72
65
 73
0
 40
0.0
  0
LTYPE
  5
25
330
2
100
AcDbSymbolTableRecord
100
AcDbLinetypeTableRecord
  2
ByLayer
 70
0
  3

 72
65
 73
0
 40
0.0
  0
LTYPE
  5
26
330
2
100
AcDbSymbolTableRecord
100
AcDbLinetypeTableRecord
  2
Continuous
 70
0
  3

 72
65
 73
0
 40
0.0
  0
LTYPE
  5
2F
330
2
100
AcDbSymbolTableRecord
100
AcDbLinetypeTableRecord
  2
CENTER
 70
0
  3
Center ____ _ ____ _ ____ _ ____ _ ____ _ ____
 72
65
 73
4
 40
5.08
 49
3.175
 74
0
 49
-0.635
 74
0
 49
0.635
 74
0
 49
-0.635
 74
0
  0
LTYPE
  5
30
330
2
100
AcDbSymbolTableRecord
100
AcDbLinetypeTableRecord
  2
CENTERX2
 70
0
  3
Center (2x) ________  __  ________  __  ________
 72
65
 73
4
 40
8.89
 49
6.35
 74
0
 49
-0.635
 74
0
 49
1.27
 74
0
 49
-0.635
 74
0
  0
LTYPE
  5
31
330
2
100
AcDbSymbolTableRecord
100
AcDbLinetypeTableRecord
  2
CENTER2
 70
0
  3
Center (.5x) ____ _ ____ _ ____ _ ____ _ ____
 72
65
 73
4
 40
2.54
 49
1.587
 74
0
 49
-0.318
 74
0
 49
0.318
 74
0
 49
-0.318
 74
0
  0
LTYPE
  5
32
330
2
100
AcDbSymbolTableRecord
100
AcDbLinetypeTableRecord
  2
DASHED
 70
0
  3
Dashed __ __ __ __ __ __ __ __ __ __ __ __ __ _
 72
65
 73
2
 40
1.524
 49
1.27
 74
0
 49
-0.254
 74
0
  0
LTYPE
  5
33
330
2
100
AcDbSymbolTableRecord
100
AcDbLinetypeTableRecord
  2
DASHEDX2
 70
0
  3
Dashed (2x) ____  ____  ____  ____  ____  ____
 72
65
 73
2
 40
3.048
 49
2.54
 74
0
 49
-0.508
 74
0
  0
LTYPE
  5
34
330
2
100
AcDbSymbolTableRecord
100
AcDbLinetypeTableRecord
  2
DASHED2
 70
0
  3
Dashed (.5x) _ _ _ _ _ _ _ _ _ _ _ _ _ _
 72
65
 73
2
 40
0.762
 49
0.635
 74
0
 49
-0.127
 74
0
  0
LTYPE
  5
35
330
2
100
AcDbSymbolTableRecord
100
AcDbLinetypeTableRecord
  2
PHANTOM
 70
0
  3
Phantom ______  __  __  ______  __  __  ______
 72
65
 73
6
 40
6.35
 49
3.175
 74
0
 49
-0.635
 74
0
 49
0.635
 74
0
 49
-0.635
 74
0
 49
0.635
 74
0
 49
-0.635
 74
0
  0
LTYPE
  5
36
330
2
100
AcDbSymbolTableRecord
100
AcDbLinetypeTableRecord
  2
PHANTOMX2
 70
0
  3
Phantom (2x)____________    ____    ____    ____________
 72
65
 73
6
 40
10.795
 49
6.35
 74
0
 49
-0.635
 74
0
 49
1.27
 74
0
 49
-0.635
 74
0
 49
1.27
 74
0
 49
-0.635
 74
0
  0
LTYPE
  5
37
330
2
100
AcDbSymbolTableRecord
100
AcDbLinetypeTableRecord
  2
PHANTOM2
 70
0
  3
Phantom (.5x) ___ _ _ ___ _ _ ___ _ _ ___ _ _ ___
 72
65
 73
6
 40
3.175
 49
1.587
 74
0
 49
-0.318
 74
0
 49
0.318
 74
0
 49
-0.318
 74
0
 49
0.318
 74
0
 49
-0.318
 74
0
  0
LTYPE
  5
38
330
2
100
AcDbSymbolTableRecord
100
AcDbLinetypeTableRecord
  2
DASHDOT
 70
0
  3
Dash dot __ . __ . __ . __ . __ . __ . __ . __
 72
65
 73
4
 40
3.556
 49
2.54
 74
0
 49
-0.508
 74
0
 49
0.0
 74
0
 49
-0.508
 74
0
  0
LTYPE
  5
39
330
2
100
AcDbSymbolTableRecord
100
AcDbLinetypeTableRecord
  2
DASHDOTX2
 70
0
  3
Dash dot (2x) ____  .  ____  .  ____  .  ____
 72
65
 73
4
 40
6.096
 49
5.08
 74
0
 49
-0.508
 74
0
 49
0.0
 74
0
 49
-0.508
 74
0
  0
LTYPE
  5
3A
330
2
100
AcDbSymbolTableRecord
100
AcDbLinetypeTableRecord
  2
DASHDOT2
 70
0
  3
Dash dot (.5x) _ . _ . _ . _ . _ . _ . _ . _
 72
65
 73
4
 40
1.778
 49
1.27
 74
0
 49
-0.254
 74
0
 49
0.0
 74
0
 49
-0.254
 74
0
  0
LTYPE
  5
3B
330
2
100
AcDbSymbolTableRecord
100
AcDbLinetypeTableRecord
  2
DOT
 70
0
  3
Dot .  .  .  .  .  .  .  .  .  .  .  .  .  .  .  .
 72
65
 73
2
 40
0.508
 49
0.0
 74
0
 49
-0.508
 74
0
  0
LTYPE
  5
3C
330
2
100
AcDbSymbolTableRecord
100
AcDbLinetypeTableRecord
  2
DOTX2
 70
0
  3
Dot (2x) .    .    .    .    .    .    .    . 
 72
65
 73
2
 40
1.016
 49
0.0
 74
0
 49
-1.016
 74
0
  0
LTYPE
  5
3D
330
2
100
AcDbSymbolTableRecord
100
AcDbLinetypeTableRecord
  2
DOT2
 70
0
  3
Dot (.5) . . . . . . . . . . . . . . . . . . . 
 72
65
 73
2
 40
0.254
 49
0.0
 74
0
 49
-0.254
 74
0
  0
LTYPE
  5
3E
330
2
100
AcDbSymbolTableRecord
100
AcDbLinetypeTableRecord
  2
DIVIDE
 70
0
  3
Divide __ . . __ . . __ . . __ . . __ . . __
 72
65
 73
6
 40
4.064
 49
2.54
 74
0
 49
-0.508
 74
0
 49
0.0
 74
0
 49
-0.508
 74
0
 49
0.0
 74
0
 49
-0.508
 74
0
  0
LTYPE
  5
3F
330
2
100
AcDbSymbolTableRecord
100
AcDbLinetypeTableRecord
  2
DIVIDEX2
 70
0
  3
Divide (2x) ____  . .  ____  . .  ____  . .  ____
 72
65
 73
6
 40
6.604
 49
5.08
 74
0
 49
-0.508
 74
0
 49
0.0
 74
0
 49
-0.508
 74
0
 49
0.0
 74
0
 49
-0.508
 74
0
  0
LTYPE
  5
40
330
2
100
AcDbSymbolTableRecord
100
AcDbLinetypeTableRecord
  2
DIVIDE2
 70
0
  3
Divide(.5x) _ . _ . _ . _ . _ . _ . _ . _
 72
65
 73
6
 40
2.032
 49
1.27
 74
0
 49
-0.254
 74
0
 49
0.0
 74
0
 49
-0.254
 74
0
 49
0.0
 74
0
 49
-0.254
 74
0
  0
ENDTAB
  0
TABLE
  2
LAYER
  5
1
330
0
100
AcDbSymbolTable
 70
3
  0
LAYER
  5
27
330
1
100
AcDbSymbolTableRecord
100
AcDbLayerTableRecord
  2
0
 70
0
 62
7
  6
Continuous
370
-3
390
13
347
21
  0
LAYER
  5
28
330
1
100
AcDbSymbolTableRecord
100
AcDbLayerTableRecord
  2
Defpoints
 70
0
 62
7
  6
Continuous
290
0
370
-3
390
13
347
21
  0
LAYER
  5
8A
330
1
100
AcDbSymbolTableRecord
100
AcDbLayerTableRecord
  2
Layer
 70
0
 62
1
  6
Continuous
370
50
390
13
347
21
  0
ENDTAB
  0
TABLE
  2
STYLE
  5
5
330
0
100
AcDbSymbolTable
 70
26
  0
STYLE
  5
29
330
5
100
AcDbSymbolTableRecord
100
AcDbTextStyleTableRecord
  2
Standard
 70
0
 40
0.0
 41
1.0
 50
0.0
 71
0
 42
2.5
  3
txt
  4

  0
STYLE
  5
41
330
5
100
AcDbSymbolTableRecord
100
AcDbTextStyleTableRecord
  2
OpenSans-Light
 70
0
 40
0.0
 41
1.0
 50
0.0
 71
0
 42
2.5
  3
OpenSans-Light.ttf
  4

  0
STYLE
  5
42
330
5
100
AcDbSymbolTableRecord
100
AcDbTextStyleTableRecord
  2
OpenSans-Light-Italic
 70
0
 40
0.0
 41
1.0
 50
0.0
 71
0
 42
2.5
  3
OpenSans-LightItalic.ttf
  4

  0
STYLE
  5
43
330
5
100
AcDbSymbolTableRecord
100
AcDbTextStyleTableRecord
  2
OpenSans
 70
0
 40
0.0
 41
1.0
 50
0.0
 71
0
 42
2.5
  3
OpenSans-Regular.ttf
  4

  0
STYLE
  5
44
330
5
100
AcDbSymbolTableRecord
100
AcDbTextStyleTableRecord
  2
OpenSans-Italic
 70
0
 40
0.0
 41
1.0
 50
0.0
 71
0
 42
2.5
  3
OpenSans-Italic.ttf
  4

  0
STYLE
  5
45
330
5
100
AcDbSymbolTableRecord
100
AcDbTextStyleTableRecord
  2
OpenSans-SemiBold
 70
0
 40
0.0
 41
1.0
 50
0.0
 71
0
 42
2.5
  3
OpenSans-SemiBold.ttf
  4

  0
STYLE
  5
46
330
5
100
AcDbSymbolTableRecord
100
AcDbTextStyleTableRecord
  2
OpenSans-SemiBoldItalic
 70
0
 40
0.0
 41
1.0
 50
0.0
 71
0
 42
2.5
  3
OpenSans-SemiBoldItalic.ttf
  4

  0
STYLE
  5
47
330
5
100
AcDbSymbolTableRecord
100
AcDbTextStyleTableRecord
  2
OpenSans-Bold
 70
0
 40
0.0
 41
1.0
 50
0.0
 71
0
 42
2.5
  3
OpenSans-Bold.ttf
  4

  0
STYLE
  5
48
330
5
100
AcDbSymbolTableRecord
100
AcDbTextStyleTableRecord
  2
OpenSans-BoldItalic
 70
0
 40
0.0
 41
1.0
 50
0.0
 71
0
 42
2.5
  3
OpenSans-BoldItalic.ttf
  4

  0
STYLE
  5
49
330
5
100
AcDbSymbolTableRecord
100
AcDbTextStyleTableRecord
  2
OpenSans-ExtraBold
 70
0
 40
0.0
 41
1.0
 50
0.0
 71
0
 42
2.5
  3
OpenSans-ExtraBold.ttf
  4

  0
STYLE
  5
4A
330
5
100
AcDbSymbolTableRecord
100
AcDbTextStyleTableRecord
  2
OpenSans-ExtraBoldItalic
 70
0
 40
0.0
 41
1.0
 50
0.0
 71
0
 42
2.5
  3
OpenSans-ExtraBoldItalic.ttf
  4

  0
STYLE
  5
4B
330
5
100
AcDbSymbolTableRecord
100
AcDbTextStyleTableRecord
  2
OpenSansCondensed-Bold
 70
0
 40
0.0
 41
1.0
 50
0.0
 71
0
 42
2.5
  3
OpenSansCondensed-Bold.ttf
  4

  0
STYLE
  5
4C
330
5
100
AcDbSymbolTableRecord
100
AcDbTextStyleTableRecord
  2
OpenSansCondensed-Light
 70
0
 40
0.0
 41
1.0
 50
0.0
 71
0
 42
2.5
  3
OpenSansCondensed-Light.ttf
  4

  0
STYLE
  5
4D
330
5
100
AcDbSymbolTableRecord
100
AcDbTextStyleTableRecord
  2
OpenSansCondensed-Italic
 70
0
 40
0.0
 41
1.0
 50
0.0
 71
0
 42
2.5
  3
OpenSansCondensed-LightItalic.ttf
  4

  0
STYLE
  5
4E
330
5
100
AcDbSymbolTableRecord
100
AcDbTextStyleTableRecord
  2
LiberationSans
 70
0
 40
0.0
 41
1.0
 50
0.0
 71
0
 42
2.5
  3
LiberationSans-Regular.ttf
  4

  0
STYLE
  5
4F
330
5
100
AcDbSymbolTableRecord
100
AcDbTextStyleTableRecord
  2
LiberationSans-Bold
 70
0
 40
0.0
 41
1.0
 50
0.0
 71
0
 42
2.5
  3
LiberationSans-Bold.ttf
  4

  0
STYLE
  5
50
330
5
100
AcDbSymbolTableRecord
100
AcDbTextStyleTableRecord
  2
LiberationSans-BoldItalic
 70
0
 40
0.0
 41
1.0
 50
0.0
 71
0
 42
2.5
  3
LiberationSans-BoldItalic.ttf
  4

  0
STYLE
  5
51
330
5
100
AcDbSymbolTableRecord
100
AcDbTextStyleTableRecord
  2
LiberationSans-Italic
 70
0
 40
0.0
 41
1.0
 50
0.0
 71
0
 42
2.5
  3
LiberationSans-Italic.ttf
  4

  0
STYLE
  5
52
330
5
100
AcDbSymbolTableRecord
100
AcDbTextStyleTableRecord
  2
LiberationSerif
 70
0
 40
0.0
 41
1.0
 50
0.0
 71
0
 42
2.5
  3
LiberationSerif-Regular.ttf
  4

  0
STYLE
  5
53
330
5
100
AcDbSymbolTableRecord
100
AcDbTextStyleTableRecord
  2
LiberationSerif-Bold
 70
0
 40
0.0
 41
1.0
 50
0.0
 71
0
 42
2.5
  3
LiberationSerif-Bold.ttf
  4

  0
STYLE
  5
54
330
5
100
AcDbSymbolTableRecord
100
AcDbTextStyleTableRecord
  2
LiberationSerif-BoldItalic
 70
0
 40
0.0
 41
1.0
 50
0.0
 71
0
 42
2.5
  3
LiberationSerif-BoldItalic.ttf
  4

  0
STYLE
  5
55
330
5
100
AcDbSymbolTableRecord
100
AcDbTextStyleTableRecord
  2
LiberationSerif-Italic
 70
0
 40
0.0
 41
1.0
 50
0.0
 71
0
 42
2.5
  3
LiberationSerif-Italic.ttf
  4

  0
STYLE
  5
56
330
5
100
AcDbSymbolTableRecord
100
AcDbTextStyleTableRecord
  2
LiberationMono
 70
0
 40
0.0
 41
1.0
 50
0.0
 71
0
 42
2.5
  3
LiberationMono-Regular.ttf
  4

  0
STYLE
  5
57
330
5
100
AcDbSymbolTableRecord
100
AcDbTextStyleTableRecord
  2
LiberationMono-Bold
 70
0
 40
0.0
 41
1.0
 50
0.0
 71
0
 42
2.5
  3
LiberationMono-Bold.ttf
  4

  0
STYLE
  5
58
330
5
100
AcDbSymbolTableRecord
100
AcDbTextStyleTableRecord
  2
LiberationMono-BoldItalic
 70
0
 40
0.0
 41
1.0
 50
0.0
 71
0
 42
2.5
  3
LiberationMono-BoldItalic.ttf
  4

  0
STYLE
  5
59
330
5
100
AcDbSymbolTableRecord
100
AcDbTextStyleTableRecord
  2
LiberationMono-Italic
 70
0
 40
0.0
 41
1.0
 50
0.0
 71
0
 42
2.5
  3
LiberationMono-Italic.ttf
  4

  0
ENDTAB
  0
TABLE
  2
VIEW
  5
7
330
0
100
AcDbSymbolTable
 70
0
  0
ENDTAB
  0
TABLE
  2
UCS
  5
6
330
0
100
AcDbSymbolTable
 70
0
  0
ENDTAB
  0
TABLE
  2
APPID
  5
3
330
0
100
AcDbSymbolTable
 70
3
  0
APPID
  5
2A
330
3
100
AcDbSymbolTableRecord
100
AcDbRegAppTableRecord
  2
ACAD
 70
0
  0
APPID
  5
B1
330
3
100
AcDbSymbolTableRecord
100
AcDbRegAppTableRecord
  2
HATCHBACKGROUNDCOLOR
 70
0
  0
APPID
  5
B2
330
3
100
AcDbSymbolTableRecord
100
AcDbRegAppTableRecord
  2
EZDXF
 70
0
  0
ENDTAB
  0
TABLE
  2
DIMSTYLE
  5
4
330
0
100
AcDbSymbolTable
 70
12
100
AcDbDimStyleTable
  0
DIMSTYLE
105
2B
330
4
100
AcDbSymbolTableRecord
100
AcDbDimStyleTableRecord
  2
Standard
 70
0
 40
1.0
 41
2.5
 42
0.625
 43
3.75
 44
1.25
 45
0.0
 46
0.0
 47
0.0
 48
0.0
 49
2.5
140
2.5
141
2.5
142
0.0
143
0.03937007874
144
1.0
145
0.0
146
1.0
147
0.625
148
0.0
 69
0
 70
0
 71
0
 72
0
 73
0
 74
0
 75
0
 76
0
 77
1
 78
8
 79
3
170
0
171
3
172
1
173
0
174
0
175
0
176
0
177
0
178
0
179
2
271
2
272
2
273
2
274
3
275
0
276
0
277
2
278
44
279
0
280
0
281
0
282
0
283
0
284
8
285
0
286
0
288
0
289
3
290
0
371
-2
372
-2
  0
DIMSTYLE
105
73
330
4
100
AcDbSymbolTableRecord
100
AcDbDimStyleTableRecord
  2
EZDXF
 70
0
 40
1.0
 41
0.175
 42
0.125
 43
3.75
 44
0.375
 45
0.0
 46
0.0
 47
0.0
 48
0.0
 49
2.5
140
0.25
141
2.5
142
0.0
143
0.03937007874
144
100.0
145
0.0
146
0.5
147
0.1
148
0.0
 69
0
 70
0
 71
0
 72
0
 73
0
 74
0
 75
0
 76
0
 77
1
 78
12
 79
3
170
0
171
3
172
1
173
0
174
0
175
0
176
0
177
0
178
0
179
2
271
2
272
2
273
2
274
3
275
0
276
0
277
2
278
46
279
2
280
0
281
0
282
0
283
0
284
8
285
0
286
0
288
1
289
3
290
0
340
4C
342
74
371
-2
372
-2
  0
DIMSTYLE
105
7C
330
4
100
AcDbSymbolTableRecord
100
AcDbDimStyleTableRecord
  2
EZ_M_100_H25_CM
 70
0
 40
1.0
 41
0.25
 42
0.125
 43
3.75
 44
0.375
 45
0.0
 46
0.0
 47
0.0
 48
0.0
 49
2.5
140
0.25
141
2.5
142
0.125
143
0.03937007874
144
100.0
145
0.0
146
0.5
147
0.1
148
0.0
 69
0
 70
0
 71
0
 72
0
 73
0
 74
0
 75
0
 76
0
 77
1
 78
12
 79
3
170
0
171
3
172
1
173
0
174
0
175
0
176
0
177
0
178
0
179
2
271
2
272
2
273
2
274
3
275
0
276
0
277
2
278
46
279
2
280
0
281
0
282
0
283
0
284
8
285
0
286
0
288
1
289
3
290
0
340
4C
371
-2
372
-2
  0
DIMSTYLE
105
7D
330
4
100
AcDbSymbolTableRecord
100
AcDbDimStyleTableRecord
  2
EZ_M_50_H25_CM
 70
0
 40
1.0
 41
0.125
 42
0.0625
 43
3.75
 44
0.1875
 45
0.0
 46
0.0
 47
0.0
 48
0.0
 49
2.5
140
0.125
141
2.5
142
0.0625
143
0.03937007874
144
100.0
145
0.0
146
0.5
147
0.05
148
0.0
 69
0
 70
0
 71
0
 72
0
 73
0
 74
0
 75
0
 76
0
 77
1
 78
12
 79
3
170
0
171
3
172
1
173
0
174
0
175
0
176
0
177
0
178
0
179
2
271
2
272
2
273
2
274
3
275
0
276
0
277
2
278
46
279
2
280
0
281
0
282
0
283
0
284
8
285
0
286
0
288
1
289
3
290
0
340
4C
371
-2
372
-2
  0
DIMSTYLE
105
7E
330
4
100
AcDbSymbolTableRecord
100
AcDbDimStyleTableRecord
  2
EZ_M_25_H25_CM
 70
0
 40
1.0
 41
0.0625
 42
0.03125
 43
3.75
 44
0.09375
 45
0.0
 46
0.0
 47
0.0
 48
0.0
 49
2.5
140
0.0625
141
2.5
142
0.03125
143
0.03937007874
144
100.0
145
0.0
146
0.5
147
0.025
148
0.0
 69
0
 70
0
 71
0
 72
0
 73
0
 74
0
 75
0
 76
0
 77
1
 78
12
 79
3
170
0
171
3
172
1
173
0
174
0
175
0
176
0
177
0
178
0
179
2
271
2
272
2
273
2
274
3
275
0
276
0
277
2
278
46
279
2
280
0
281
0
282
0
283
0
284
8
285
0
286
0
288
1
289
3
290
0
340
4C
371
-2
372
-2
  0
DIMSTYLE
105
7F
330
4
100
AcDbSymbolTableRecord
100
AcDbDimStyleTableRecord
  2
EZ_M_20_H25_CM
 70
0
 40
1.0
 41
0.05
 42
0.025
 43
3.75
 44
0.07500000000000001
 45
0.0
 46
0.0
 47
0.0
 48
0.0
 49
2.5
140
0.05
141
2.5
142
0.025
143
0.03937007874
144
100.0
145
0.0
146
0.5
147
0.020000000000000004
148
0.0
 69
0
 70
0
 71
0
 72
0
 73
0
 74
0
 75
0
 76
0
 77
1
 78
12
 79
3
170
0
171
3
172
1
173
0
174
0
175
0
176
0
177
0
178
0
179
2
271
2
272
2
273
2
274
3
275
0
276
0
277
2
278
46
279
2
280
0
281
0
282
0
283
0
284
8
285
0
286
0
288
1
289
3
290
0
340
4C
371
-2
372
-2
  0
DIMSTYLE
105
80
330
4
100
AcDbSymbolTableRecord
100
AcDbDimStyleTableRecord
  2
EZ_M_10_H25_CM
 70
0
 40
1.0
 41
0.025
 42
0.0125
 43
3.75
 44
0.037500000000000006
 45
0.0
 46
0.0
 47
0.0
 48
0.0
 49
2.5
140
0.025
141
2.5
142
0.0125
143
0.03937007874
144
100.0
145
0.0
146
0.5
147
0.010000000000000002
148
0.0
 69
0
 70
0
 71
0
 72
0
 73
0
 74
0
 75
0
 76
0
 77
1
 78
12
 79
3
170
0
171
3
172
1
173
0
174
0
175
0
176
0
177
0
178
0
179
2
271
2
272
2
273
2
274
3
275
0
276
0
277
2
278
46
279
2
280
0
281
0
282
0
283
0
284
8
285
0
286
0
288
1
289
3
290
0
340
4C
371
-2
372
-2
  0
DIMSTYLE
105
81
330
4
100
AcDbSymbolTableRecord
100
AcDbDimStyleTableRecord
  2
EZ_M_5_H25_CM
 70
0
 40
1.0
 41
0.0125
 42
0.00625
 43
3.75
 44
0.018750000000000003
 45
0.0
 46
0.0
 47
0.0
 48
0.0
 49
2.5
140
0.0125
141
2.5
142
0.00625
143
0.03937007874
144
100.0
145
0.0
146
0.5
147
0.005000000000000001
148
0.0
 69
0
 70
0
 71
0
 72
0
 73
0
 74
0
 75
0
 76
0
 77
1
 78
12
 79
3
170
0
171
3
172
1
173
0
174
0
175
0
176
0
177
0
178
0
179
2
271
2
272
2
273
2
274
3
275
0
276
0
277
2
278
46
279
2
280
0
281
0
282
0
283
0
284
8
285
0
286
0
288
1
289
3
290
0
340
4C
371
-2
372
-2
  0
DIMSTYLE
105
82
330
4
100
AcDbSymbolTableRecord
100
AcDbDimStyleTableRecord
  2
EZ_M_1_H25_CM
 70
0
 40
1.0
 41
0.0025
 42
0.00125
 43
3.75
 44
0.00375
 45
0.0
 46
0.0
 47
0.0
 48
0.0
 49
2.5
140
0.0025
141
2.5
142
0.00125
143
0.03937007874
144
100.0
145
0.0
146
0.5
147
0.001
148
0.0
 69
0
 70
0
 71
0
 72
0
 73
0
 74
0
 75
0
 76
0
 77
1
 78
12
 79
3
170
0
171
3
172
1
173
0
174
0
175
0
176
0
177
0
178
0
179
2
271
2
272
2
273
2
274
3
275
0
276
0
277
2
278
46
279
2
280
0
281
0
282
0
283
0
284
8
285
0
286
0
288
1
289
3
290
0
340
4C
371
-2
372
-2
  0
DIMSTYLE
105
83
330
4
100
AcDbSymbolTableRecord
100
AcDbDimStyleTableRecord
  2
EZ_RADIUS
 70
0
 40
1.0
 41
0.25
 42
0.125
 43
3.75
 44
0.375
 45
0.0
 46
0.0
 47
0.0
 48
0.0
 49
2.5
140
0.25
141
0.0
142
0.0
143
0.03937007874
144
100.0
145
0.0
146
0.5
147
0.1
148
0.0
 69
0
 70
0
 71
0
 72
0
 73
0
 74
0
 75
0
 76
0
 77
1
 78
12
 79
3
170
0
171
3
172
0
173
0
174
0
175
0
176
0
177
0
178
0
179
2
271
2
272
2
273
2
274
3
275
0
276
0
277
2
278
46
279
1
280
0
281
0
282
0
283
0
284
8
285
0
286
0
288
1
289
3
290
0
340
4C
342
84
371
-2
372
-2
  0
DIMSTYLE
105
88
330
4
100
AcDbSymbolTableRecord
100
AcDbDimStyleTableRecord
  2
EZ_RADIUS_INSIDE
 70
0
 40
1.0
 41
0.25
 42
0.125
 43
3.75
 44
0.375
 45
0.0
 46
0.0
 47
0.0
 48
0.0
 49
2.5
140
0.25
141
0.0
142
0.0
143
0.03937007874
144
100.0
145
0.0
146
0.5
147
0.1
148
0.0
 69
0
 70
0
 71
0
 72
0
 73
0
 74
0
 75
0
 76
0
 77
0
 78
12
 79
3
170
0
171
3
172
0
173
0
174
1
175
0
176
0
177
0
178
0
179
2
271
2
272
2
273
2
274
3
275
0
276
0
277
2
278
46
279
0
280
0
281
0
282
0
283
0
284
8
285
0
286
0
288
1
289
0
290
0
340
4C
342
84
371
-2
372
-2
  0
DIMSTYLE
105
89
330
4
100
AcDbSymbolTableRecord
100
AcDbDimStyleTableRecord
  2
EZ_CURVED
 70
0
 40
1.0
 41
0.25
 42
0.125
 43
3.75
 44
0.375
 45
0.0
 46
0.0
 47
0.0
 48
0.0
 49
2.5
140
0.25
141
2.5
142
0.0
143
0.03937007874
144
100.0
145
0.0
146
0.5
147
0.1
148
0.0
 69
0
 70
0
 71
0
 72
0
 73
0
 74
0
 75
0
 76
0
 77
1
 78
12
 79
2
 90
2
170
0
171
3
172
1
173
0
174
0
175
0
176
0
177
0
178
0
179
2
271
2
272
2
273
2
274
3
275
0
276
0
277
2
278
46
279
2
280
0
281
0
282
0
283
0
284
8
285
0
286
0
288
1
289
3
290
0
340
4C
371
-2
372
-2
  0
ENDTAB
  0
TABLE
  2
BLOCK_RECORD
  5
9
330
0
100
AcDbSymbolTable
 70
5
  0
BLOCK_RECORD
  5
17
330
9
100
AcDbSymbolTableRecord
100
AcDbBlockTableRecord
  2
*Model_Space
340
1A
 70
0
280
1
281
0
  0
BLOCK_RECORD
  5
1B
330
9
100
AcDbSymbolTableRecord
100
AcDbBlockTableRecord
  2
*Paper_Space
340
1E
 70
0
280
1
281
0
  0
BLOCK_RECORD
  5
74
330
9
100
AcDbSymbolTableRecord
100
AcDbBlockTableRecord
  2
_ARCHTICK
340
0
 70
0
280
1
281
0
  0
BLOCK_RECORD
  5
78
330
9
100
AcDbSymbolTableRecord
100
AcDbBlockTableRecord
  2
_CLOSEDFILLED
340
0
 70
0
280
1
281
0
  0
BLOCK_RECORD
  5
84
330
9
100
AcDbSymbolTableRecord
100
AcDbBlockTableRecord
  2
_CLOSEDBLANK
340
0
 70
0
280
1
281
0
  0
ENDTAB
  0
ENDSEC
  0
SECTION
  2
BLOCKS
  0
BLOCK
  5
18
330
17
100
AcDbEntity
  8
0
100
AcDbBlockBegin
  2
*Model_Space
 70
0
 10
0.0
 20
0.0
 30
0.0
  3
*Model_Space
  1

  0
ENDBLK
  5
19
330
17
100
AcDbEntity
  8
0
100
AcDbBlockEnd
  0
BLOCK
  5
1C
330
1B
100
AcDbEntity
  8
0
100
AcDbBlockBegin
  2
*Paper_Space
 70
0
 10
0.0
 20
0.0
 30
0.0
  3
*Paper_Space
  1

  0
ENDBLK
  5
1D
330
1B
100
AcDbEntity
  8
0
100
AcDbBlockEnd
  0
BLOCK
  5
75
330
74
100
AcDbEntity
  8
0
100
AcDbBlockBegin
  2
_ARCHTICK
 70
0
 10
0.0
 20
0.0
 30
0.0
  3
_ARCHTICK
  1

  0
LWPOLYLINE
  5
77
330
74
100
AcDbEntity
  8
0
  6
BYBLOCK
 62
0
100
AcDbPolyline
 90
2
 70
0
 43
0.15
 10
-0.5
 20
-0.5000000000000001
 10
0.5000000000000001
 20
0.5
  0
ENDBLK
  5
76
330
74
100
AcDbEntity
  8
0
100
AcDbBlockEnd
  0
BLOCK
  5
79
330
78
100
AcDbEntity
  8
0
100
AcDbBlockBegin
  2
_CLOSEDFILLED
 70
0
 10
0.0
 20
0.0
 30
0.0
  3
_CLOSEDFILLED
  1

  0
SOLID
  5
7B
330
78
100
AcDbEntity
  8
0
  6
BYBLOCK
 62
0
100
AcDbTrace
 10
-1.0
 20
0.1643989837240255
 30
0.0
 11
0.0
 21
0.0
 31
0.0
 12
-1.0
 22
-0.1643989837240255
 32
0.0
 13
-1.0
 23
-0.1643989837240255
 33
0.0
  0
ENDBLK
  5
7A
330
78
100
AcDbEntity
  8
0
100
AcDbBlockEnd
  0
BLOCK
  5
85
330
84
100
AcDbEntity
  8
0
100
AcDbBlockBegin
  2
_CLOSEDBLANK
 70
0
 10
0.0
 20
0.0
 30
0.0
  3
_CLOSEDBLANK
  1

  0
LWPOLYLINE
  5
87
330
84
100
AcDbEntity
  8
0
  6
BYBLOCK
 62
0
100
AcDbPolyline
 90
3
 70
1
 10
-1.0
 20
0.1643989837240255
 10
0.0
 20
0.0
 10
-1.0
 20
-0.1643989837240255
  0
ENDBLK
  5
86
330
84
100
AcDbEntity
  8
0
100
AcDbBlockEnd
  0
ENDSEC
  0
SECTION
  2
ENTITIES
  0
LWPOLYLINE
  5
8B
330
17
100
AcDbEntity
  8
Layer
100
AcDbPolyline
 90
210
 70
1
 10
457.3363678591184
 20
93.57292394061271
 10
457.3363678591184
 20
93.57292394061271
 10
457.13024562620944
 20
93.63857967130608
 10
451.77014673353347
 20
95.33798834770569
 10
446.41853336626605
 20
97.01787536084782
 10
441.0721395663081
 20
98.6750644612884
 10
435.72634155849113
 20
100.30557810622128
 10
430.37611742093566
 20
101.90973497731308
 10
425.02325126255755
 20
103.49578605783478
 10
419.6826385275903
 20
105.06963812202478
 10
414.3689732480026
 20
106.62349219880446
 10
409.08205031982936
 20
108.14415696693852
 10
403.8166128042198
 20
109.62711571621179
 10
398.5634093783804
 20
111.06983947274372
 10
393.32009264680744
 20
112.47967124134448
 10
388.083604009455
 20
113.86009033451482
 10
382.85270316582364
 20
115.21244574833415
 10
377.6281160408604
 20
116.53390174002459
 10
372.4080156138988
 20
117.81798948027618
 10
367.18837625406104
 20
119.0629208314767
 10
361.963526615154
 20
120.27176939607554
 10
356.73244656644835
 20
121.45132721968136
 10
351.4965204992003
 20
122.60527331463925
 10
346.25532471008427
 20
123.73077813650362
 10
341.00797786998453
 20
124.82373195697015
 10
335.75506159070403
 20
125.88241203225489
 10
330.49703477021455
 20
126.90751311230865
 10
325.2329733488456
 20
127.90242286470253
 10
319.9599717487645
 20
128.8690631952779
 10
314.6775365163194
 20
129.80833979694992
 10
309.3868326281084
 20
130.7188349394835
 10
304.0905300940563
 20
131.5976456774839
 10
298.7923957878887
 20
132.44423678606887
 10
293.49544525759296
 20
133.26057316325932
 10
288.20094255296794
 20
134.0476280429895
 10
282.9117223127122
 20
134.8050767919409
 10
277.62965337641987
 20
135.52968762086036
 10
272.35605207797636
 20
136.2191006755904
 10
267.09139242807515
 20
136.87289748013615
 10
261.836079452439
 20
137.49126971935706
 10
256.5899801240106
 20
138.07478105073824
 10
251.35136111480838
 20
138.62319756840128
 10
246.11933493671688
 20
139.13663356113634
 10
240.89332218378593
 20
139.6127578711485
 10
235.67144800243233
 20
140.05016461417722
 10
230.4521617729873
 20
140.4508473411746
 10
225.23415634082141
 20
140.8165774112179
 10
220.01926784792653
 20
141.14797365230262
 10
214.8099658064485
 20
141.44365990145803
 10
209.60866236802224
 20
141.7024021285676
 10
204.41653396073139
 20
141.9227993408575
 10
199.2337446840879
 20
142.10438211960755
 10
194.06094086782628
 20
142.24809058611066
 10
188.90008450446155
 20
142.35461657367466
 10
183.75436512264548
 20
142.42289866521497
 10
178.63075495537586
 20
142.4538843457148
 10
173.53742025344718
 20
142.4477904605175
 10
168.4738217609596
 20
142.39674430746547
 10
163.44062972397262
 20
142.30375447814575
 10
158.42732473414742
 20
142.16044013023827
 10
153.42438126229888
 20
141.9669458244944
 10
148.43634833610713
 20
141.7334987201236
 10
143.4693126197152
 20
141.4596459714863
 10
138.52582408919523
 20
141.14063584749152
 10
133.6076778147655
 20
140.7732071171805
 10
128.71784115712438
 20
140.35664256917
 10
123.86026922748911
 20
139.89555918136227
 10
119.04125014531434
 20
139.39669451299102
 10
114.26790936846906
 20
138.85881872276292
 10
109.5424787746742
 20
138.2711396940332
 10
104.86956306046334
 20
137.63270436169867
 10
100.25426027311988
 20
136.94339364635633
 10
95.6996237404993
 20
136.20614452769723
 10
91.20154189137526
 20
135.42486859981776
 10
86.76418111356352
 20
134.60934499022207
 10
82.4112373288113
 20
133.76727498567575
 10
78.16211852810761
 20
132.89025734689545
 10
74.02449045255096
 20
131.97402242291443
 10
69.99793928444524
 20
131.0159267275253
 10
66.08052691533334
 20
130.0181441611316
 10
62.270459184869736
 20
128.98402740944135
 10
58.56748622953009
 20
127.91726754907401
 10
54.97432553828756
 20
126.822719345433
 10
51.49616392164887
 20
125.70448087004122
 10
48.13956246711123
 20
124.56623583091475
 10
44.90810293922334
 20
123.40845327281461
 10
41.80425498822055
 20
122.23365414004624
 10
38.83523073902592
 20
121.0510250373237
 10
36.011202964185884
 20
119.8711332810598
 10
33.339102570973864
 20
118.69986272876443
 10
30.821310328849364
 20
117.53999800473808
 10
28.45524606656852
 20
116.39303110369669
 10
26.23522243613246
 20
115.26165174517597
 10
24.155521943645283
 20
114.15046146548067
 10
22.210934603596485
 20
113.064125618826
 10
20.39597447370332
 20
112.00545583507713
 10
18.707569178138982
 20
110.97788714214767
 10
17.137512203952156
 20
109.97744830666085
 10
15.680367826911123
 20
109.00468491479052
 10
14.326167138202095
 20
108.05424866800678
 10
13.068151405863262
 20
107.12725613090694
 10
11.895681606896488
 20
106.2203468896811
 10
10.806233504895602
 20
105.33993557293851
 10
9.788530350123807
 20
104.47709127044905
 10
8.842702026580866
 20
103.63937368279801
 10
7.963045569920467
 20
102.82206260465625
 10
7.145085247233396
 20
102.02336892763614
 10
6.38505765347665
 20
101.24266399781695
 10
5.679064937864155
 20
100.47845029239744
 10
5.022344572266462
 20
99.72811454292378
 10
4.413669226464009
 20
98.99522845808929
 10
3.852015300072452
 20
98.28045918923958
 10
3.332035664769734
 20
97.57577178340925
 10
2.8461780636008314
 20
96.87547901237198
 10
2.395511126194293
 20
96.19298862759584
 10
1.9911357595167374
 20
95.54622175354405
 10
1.6330018572112124
 20
94.91510214917326
 10
1.312235175164517
 20
94.27425090394314
 10
1.0248192432923133
 20
93.63695374978883
 10
0.7765145232866928
 20
93.03091872008784
 10
0.5677804210335751
 20
92.43999773642567
 10
0.38958625960634663
 20
91.82835300742472
 10
0.245767890120419
 20
91.25478125952357
 10
0.13742878665769354
 20
90.71918921069347
 10
0.06931581794950148
 20
90.1366640933232
 10
0.026261227779997398
 20
89.58053265623012
 10
0.009480203907941132
 20
89.03785799329565
 10
0.024149298918928253
 20
88.51090347431548
 10
0.07867823854763856
 20
87.9858736324646
 10
0.17957881235327022
 20
87.45523226659587
 10
0.3298377647438713
 20
86.91688576084518
 10
0.5253496810921092
 20
86.38131154423313
 10
0.7722617178643816
 20
85.84511774338222
 10
1.0656734176249358
 20
85.3128255191774
 10
1.4098719722472595
 20
84.78239280734664
 10
1.8043672234414316
 20
84.253856636938
 10
2.244661601093867
 20
83.73080665680263
 10
2.7323402101000624
 20
83.21331791844507
 10
3.266168155024417
 20
82.70286515604968
 10
3.8454881411700796
 20
82.2009284322017
 10
4.470245167712619
 20
81.70915133183189
 10
5.147861547711898
 20
81.22579146882973
 10
5.879803534010023
 20
80.74911888671542
 10
6.667640458491206
 20
80.27706414973585
 10
7.512293010477691
 20
79.80716781609156
 10
8.414698837202081
 20
79.33706779792278
 10
9.37595276595971
 20
78.86487391587656
 10
10.397791085008748
 20
78.38958135982237
 10
11.48356073061953
 20
77.91106367806537
 10
12.637773044215066
 20
77.4300703106984
 10
13.86736796887618
 20
76.94797201363944
 10
15.184363731405199
 20
76.46495460479932
 10
16.598513829431255
 20
75.97858544622173
 10
18.116862942115034
 20
75.48563309856524
 10
19.74766347686071
 20
74.98372442117983
 10
21.499914950920754
 20
74.47172486198822
 10
23.383057335565127
 20
73.95114011720068
 10
25.410359639491446
 20
73.42599521985639
 10
27.59790802937539
 20
72.90000911246182
 10
29.96426650986561
 20
72.37534491209448
 10
32.53084651521195
 20
71.8505642462821
 10
35.309652293975915
 20
71.31795037627465
 10
38.301304976016525
 20
70.7743446693247
 10
41.50917689791012
 20
70.22868518543987
 10
44.93711058396397
 20
69.68840264036841
 10
48.58578695412109
 20
69.15637641449061
 10
52.45429407858836
 20
68.63471820733731
 10
56.53261219022099
 20
68.12241484092995
 10
60.79425704574359
 20
67.61873807432445
 10
65.20733549539472
 20
67.12647060769343
 10
69.74110223827245
 20
66.64468964690792
 10
74.3839868082174
 20
66.18447163823947
 10
79.14653684335198
 20
65.75597706967243
 10
84.03996460800471
 20
65.3559513794073
 10
89.05056931670413
 20
64.97592641751248
 10
94.1577236027519
 20
64.6155026699978
 10
99.35985949325749
 20
64.27650980342428
 10
104.64763828185899
 20
63.94337035376259
 10
110.00306764437128
 20
63.61494048602441
 10
115.4061578701539
 20
63.29979278690385
 10
118.81281762632051
 20
63.11358427678355
 10
118.73094961883115
 20
61.615820066585655
 10
120.76331162884699
 20
61.504730868075264
 10
126.22526652074707
 20
61.22955490052175
 10
131.71888190937653
 20
60.977487233850226
 10
137.251330628708
 20
60.73877383053522
 10
142.81740401634943
 20
60.50313269732541
 10
148.40683182079965
 20
60.277753964305944
 10
154.00733417717137
 20
60.066611138207215
 10
159.6164599807916
 20
59.87474473588161
 10
165.24519451716466
 20
59.70004297076143
 10
170.9030472603821
 20
59.53504997462715
 10
176.58885678572287
 20
59.37317990761062
 10
182.2925247680322
 20
59.210419063153886
 10
188.0140461561803
 20
59.050995664733506
 10
193.74794878655035
 20
58.90155933366561
 10
199.49901530787292
 20
58.76160745973658
 10
205.26668746629068
 20
58.62786069099857
 10
211.04371676444646
 20
58.4952539321777
 10
216.82740162075814
 20
58.36167617385129
 10
222.6171487771803
 20
58.22768701281963
 10
228.41148493312247
 20
58.095529026865314
 10
234.20675321444193
 20
57.968249127271314
 10
240.00542875281374
 20
57.84811647171051
 10
245.81028460874376
 20
57.73252537885503
 10
251.6162573289752
 20
57.61856762667636
 10
257.422401782517
 20
57.50556949063675
 10
263.2276015892597
 20
57.39261956748879
 10
271.3448507871617
 20
57.237638796178125
 10
457.3363678591184
 20
93.57292394061271
  0
LWPOLYLINE
  5
8C
330
17
100
AcDbEntity
  8
Layer
100
AcDbPolyline
 90
5
 70
0
 10
398.4825388334751
 20
106.94951585581813
 10
394.6197340125021
 20
107.98813942336713
 10
395.65835758005113
 20
111.85094424434007
 10
399.5211624010241
 20
110.81232067679107
 10
398.4825388334751
 20
106.94951585581813
  0
LWPOLYLINE
  5
8D
330
17
100
AcDbEntity
  8
Layer
100
AcDbPolyline
 90
5
 70
0
 10
157.83696178845608
 20
138.13460928674905
 10
153.83995164058345
 20
137.97998109461352
 10
153.68532344844792
 20
141.97699124248615
 10
157.68233359632055
 20
142.13161943462168
 10
157.83696178845608
 20
138.13460928674905
  0
LWPOLYLINE
  5
8E
330
17
100
AcDbEntity
  8
Layer
100
AcDbPolyline
 90
5
 70
0
 10
66.23742220783349
 20
125.91596837429888
 10
62.37713325696514
 20
124.86803268170907
 10
61.32919756437532
 20
128.72832163257743
 10
65.18948651524367
 20
129.77625732516725
 10
66.23742220783349
 20
125.91596837429888
  0
LWPOLYLINE
  5
8F
330
17
100
AcDbEntity
  8
Layer
100
AcDbPolyline
 90
5
 70
0
 10
16.864690370801316
 20
103.7138065985577
 10
15.25490841215645
 20
102.52696118081305
 10
12.287794867794798
 20
106.5514160774252
 10
13.897576826439664
 20
107.73826149516985
 10
16.864690370801316
 20
103.7138065985577
  0
LWPOLYLINE
  5
90
330
17
100
AcDbEntity
  8
Layer
100
AcDbPolyline
 90
5
 70
0
 10
28.1387995838564
 20
77.90145892452536
 10
30.091418271147543
 20
77.46870002855509
 10
29.009521031221862
 20
72.58715331032722
 10
27.05690234393072
 20
73.01991220629749
 10
28.1387995838564
 20
77.90145892452536
  0
LWPOLYLINE
  5
91
330
17
100
AcDbEntity
  8
Layer
100
AcDbPolyline
 90
5
 70
0
 10
86.7096927705523
 20
69.16496610450417
 10
90.69823874476282
 20
68.86247476312542
 10
90.39574740338406
 20
64.8739287889149
 10
86.40720142917354
 20
65.17642013029365
 10
86.7096927705523
 20
69.16496610450417
  0
LWPOLYLINE
  5
92
330
17
100
AcDbEntity
  8
Layer
100
AcDbPolyline
 90
300
 70
1
 10
262.38849999999974
 20
100.0
 10
262.38107309268094
 20
100.71918265854876
 10
262.35879565023777
 20
101.43804774628133
 10
262.3216775097617
 20
102.15627783261183
 10
262.26973506157856
 20
102.87355576735315
 10
262.2029912420113
 20
103.58956482076151
 10
262.1214755232517
 20
104.30398882339539
 10
262.0252239003465
 20
105.01651230572709
 10
261.9142788753026
 20
105.72682063744517
 10
261.7886894383199
 20
106.43460016638633
 10
261.64851104615843
 20
107.1395383570354
 10
261.4938055976498
 20
107.84132392853222
 10
261.32464140636495
 20
108.53964699212447
 10
261.1410931704487
 20
109.23419918800587
 10
260.9432419396348
 20
109.92467382147917
 10
260.73117507945716
 20
110.61076599838388
 10
260.50498623267123
 20
111.29217275972896
 10
260.26477527790433
 20
111.96859321547097
 10
260.01064828555184
 20
112.63972867737868
 10
259.7427174709396
 20
113.30528279092536
 10
259.4611011447728
 20
113.96496166615056
 10
259.16592366089327
 20
114.6184740074337
 10
258.8573153613683
 20
115.265531242122
 10
258.53541251893523
 20
115.90584764795602
 10
258.2003572768274
 20
116.5391404792366
 10
257.8522975860075
 20
117.16513009167734
 10
257.4913871398368
 20
117.78354006588773
 10
257.11778530620813
 20
118.39409732943213
 10
256.73165705717406
 20
118.99653227741082
 10
256.3331728960993
 20
119.59057889151
 10
255.92250878237166
 20
120.17597485746802
 10
255.49984605370307
 20
120.75246168090584
 10
255.06537134605605
 20
121.31978480147102
 10
254.61927651123057
 20
121.8776937052443
 10
254.16175853214756
 20
122.42594203535957
 10
253.69301943586697
 20
122.96428770078806
 10
253.21326620437816
 20
123.49249298323896
 10
252.72271068320256
 20
124.01032464212915
 10
252.22156948784857
 20
124.51755401757558
 10
251.71006390816044
 20
125.01395713136517
 10
251.18841981060262
 20
125.4993147858572
 10
250.65686753852376
 20
125.97341266077478
 10
250.11564181044335
 20
126.4360414078428
 10
249.56498161640684
 20
126.88699674323003
 10
249.00513011245414
 20
127.32607953775532
 10
248.436334513249
 20
127.75309590481726
 10
247.85884598291574
 20
128.1678572860092
 10
247.2729195241324
 20
128.57018053438114
 10
246.67881386552864
 20
128.95988799531253
 10
246.0767913474386
 20
129.33680758495933
 10
245.4671178060586
 20
129.70077286624144
 10
244.85006245606152
 20
130.05162312233668
 10
244.2258977717191
 20
130.38920342764885
 10
243.59489936658503
 20
130.71336471621834
 10
242.9573458717916
 20
131.02396384754567
 10
242.31351881301433
 20
131.32086366979814
 10
241.66370248615786
 20
131.60393308037234
 10
241.00818383181905
 20
131.87304708378528
 10
240.34725230858209
 20
132.1280868468689
 10
239.68119976520163
 20
132.36893975124352
 10
239.01032031173068
 20
132.59549944304683
 10
238.3349101896499
 20
132.80766587989683
 10
237.6552676410556
 20
133.0053453750678
 10
236.97169277696452
 20
133.1884506388595
 10
236.28448744479323
 20
133.3569008171421
 10
235.59395509507078
 20
133.51062152705896
 10
234.90040064744358
 20
133.64954488987198
 10
234.2041303560313
 20
133.77360956093497
 10
233.5054516741938
 20
133.88276075678175
 10
232.80467311876845
 20
133.97695027931698
 10
232.10210413383754
 20
134.05613653709906
 10
231.39805495408672
 20
134.12028456370575
 10
230.69283646781395
 20
134.1693660331743
 10
229.98676007965008
 20
134.20335927250954
 10
229.28013757305126
 20
134.2222492712539
 10
228.57328097262416
 20
134.2260276881157
 10
227.8665024063447
 20
134.21469285465244
 10
227.16011396773112
 20
134.18824977600747
 10
226.4544275780323
 20
134.14671012869994
 10
225.749754848492
 20
134.09009225546868
 10
225.04640694275025
 20
134.0184211571727
 10
224.34469443944218
 20
133.93172848175135
 10
223.64492719505526
 20
133.8300525102496
 10
222.9474142071053
 20
133.71343813991416
 10
222.25246347769206
 20
133.58193686436817
 10
221.56038187749397
 20
133.43560675087298
 10
220.8714750102627
 20
133.27451241468736
 10
220.18604707787742
 20
133.09872499053517
 10
219.50440074601744
 20
132.90832210119427
 10
218.82683701051374
 20
132.7033878232206
 10
218.15365506443777
 20
132.48401264982212
 10
217.48515216598608
 20
132.25029345089976
 10
216.82162350721944
 20
132.0023334302723
 10
216.16336208371456
 20
131.74024208010448
 10
215.51065856518514
 20
131.4641351325584
 10
214.8638011671307
 20
131.1741345086893
 10
214.22307552356838
 20
130.87036826460889
 10
213.58876456090525
 20
130.55297053493916
 10
212.9611483730058
 20
130.22208147358245
 10
212.34050409751055
 20
129.8778471918333
 10
211.72710579345966
 20
129.52041969385996
 10
211.12122432027635
 20
129.14995680958356
 10
210.52312721816293
 20
128.76662212498482
 10
209.93307858996252
 20
128.37058490986917
 10
209.35133898453884
 20
127.96202004312185
 10
208.778165281725
 20
127.5411079354865
 10
208.21381057889266
 20
127.10803444990067
 10
207.65852407919132
 20
126.66299081942408
 10
207.11255098150735
 20
126.20617356279546
 10
206.5761323721909
 20
125.7377843976554
 10
206.04950511859903
 20
125.25803015147356
 10
205.5329017645018
 20
124.76712267021938
 10
205.02655042739732
 20
124.26527872481701
 10
204.53067469778176
 20
123.75271991542522
 10
204.04549354041785
 20
123.22967257358513
 10
203.57122119764622
 20
122.69636766227853
 10
203.10806709478217
 20
122.1530406739411
 10
202.6562357476392
 20
121.59993152647561
 10
202.2159266722206
 20
121.03728445731092
 10
201.7873342966189
 20
120.4653479155536
 10
201.3706478751618
 20
119.88437445227983
 10
200.9660514048428
 20
119.29462060901594
 10
200.57372354407337
 20
118.69634680445682
 10
200.1938375337923
 20
118.08981721947251
 10
199.8265611209675
 20
117.47529968045322
 10
199.4720564845237
 20
116.85306554104481
 10
199.13048016372855
 20
116.22338956232664
 10
198.80198298906956
 20
115.5865497914848
 10
198.48671001565154
 20
114.94282743903432
 10
198.1848004591442
 20
114.29250675464452
 10
197.89638763430864
 20
113.63587490162236
 10
197.62159889612911
 20
112.9732218301092
 10
197.3605555835768
 20
112.30484014904695
 10
197.11337296602986
 20
111.63102499697028
 10
196.88016019237372
 20
110.95207391168167
 10
196.661020242804
 20
110.26828669886712
 10
196.45604988335342
 20
109.57996529971041
 10
196.26533962316256
 20
108.88741365756438
 10
196.08897367451357
 20
108.19093758373808
 10
195.9270299156445
 20
107.49084462245911
 10
195.77957985636039
 20
106.78744391507075
 10
195.64668860645648
 20
106.08104606352383
 10
195.5284148469677
 20
105.37196299322369
 10
195.4248108042567
 20
104.66050781529268
 10
195.3359222269522
 20
103.94699468830908
 10
195.26178836574758
 20
103.23173867958356
 10
195.202441956069
 20
102.5150556260343
 10
195.15790920362033
 20
101.79726199472229
 10
195.12820977281137
 20
101.0786747431084
 10
195.11335677807475
 20
100.35961117909387
 10
195.11335677807475
 20
99.64038882090614
 10
195.12820977281137
 20
98.92132525689162
 10
195.15790920362033
 20
98.20273800527772
 10
195.202441956069
 20
97.4849443739657
 10
195.26178836574758
 20
96.76826132041643
 10
195.3359222269522
 20
96.05300531169092
 10
195.4248108042567
 20
95.33949218470732
 10
195.5284148469677
 20
94.62803700677631
 10
195.64668860645645
 20
93.91895393647617
 10
195.77957985636039
 20
93.21255608492926
 10
195.9270299156445
 20
92.50915537754089
 10
196.08897367451357
 20
91.80906241626191
 10
196.26533962316256
 20
91.11258634243563
 10
196.45604988335342
 20
90.4200347002896
 10
196.661020242804
 20
89.7317133011329
 10
196.8801601923737
 20
89.04792608831835
 10
197.11337296602986
 20
88.36897500302973
 10
197.3605555835768
 20
87.69515985095305
 10
197.62159889612911
 20
87.0267781698908
 10
197.89638763430864
 20
86.36412509837763
 10
198.1848004591442
 20
85.7074932453555
 10
198.48671001565154
 20
85.0571725609657
 10
198.80198298906956
 20
84.41345020851521
 10
199.13048016372852
 20
83.77661043767337
 10
199.47205648452368
 20
83.14693445895519
 10
199.8265611209675
 20
82.52470031954678
 10
200.1938375337923
 20
81.91018278052749
 10
200.57372354407335
 20
81.30365319554319
 10
200.9660514048428
 20
80.70537939098408
 10
201.3706478751618
 20
80.11562554772017
 10
201.7873342966189
 20
79.5346520844464
 10
202.2159266722206
 20
78.96271554268908
 10
202.6562357476392
 20
78.40006847352439
 10
203.10806709478217
 20
77.8469593260589
 10
203.57122119764622
 20
77.30363233772145
 10
204.04549354041785
 20
76.77032742641487
 10
204.53067469778176
 20
76.24728008457478
 10
205.02655042739732
 20
75.734721275183
 10
205.5329017645018
 20
75.23287732978062
 10
206.04950511859903
 20
74.74196984852645
 10
206.5761323721909
 20
74.2622156023446
 10
207.11255098150735
 20
73.79382643720454
 10
207.65852407919132
 20
73.33700918057593
 10
208.21381057889263
 20
72.89196555009934
 10
208.778165281725
 20
72.4588920645135
 10
209.35133898453884
 20
72.03797995687816
 10
209.93307858996252
 20
71.62941509013085
 10
210.5231272181629
 20
71.23337787501518
 10
211.12122432027635
 20
70.85004319041644
 10
211.72710579345966
 20
70.47958030614004
 10
212.34050409751055
 20
70.1221528081667
 10
212.9611483730058
 20
69.77791852641755
 10
213.58876456090525
 20
69.44702946506084
 10
214.22307552356838
 20
69.1296317353911
 10
214.86380116713067
 20
68.82586549131071
 10
215.51065856518514
 20
68.53586486744162
 10
216.16336208371453
 20
68.25975791989552
 10
216.82162350721944
 20
67.9976665697277
 10
217.48515216598605
 20
67.74970654910024
 10
218.15365506443777
 20
67.51598735017788
 10
218.82683701051374
 20
67.2966121767794
 10
219.50440074601744
 20
67.09167789880573
 10
220.18604707787742
 20
66.90127500946484
 10
220.8714750102627
 20
66.72548758531264
 10
221.56038187749394
 20
66.56439324912702
 10
222.25246347769206
 20
66.41806313563183
 10
222.9474142071053
 20
66.28656186008584
 10
223.64492719505526
 20
66.1699474897504
 10
224.3446944394422
 20
66.06827151824865
 10
225.04640694275022
 20
65.9815788428273
 10
225.749754848492
 20
65.90990774453131
 10
226.45442757803227
 20
65.85328987130006
 10
227.16011396773112
 20
65.81175022399253
 10
227.8665024063447
 20
65.78530714534756
 10
228.57328097262416
 20
65.77397231188431
 10
229.28013757305126
 20
65.7777507287461
 10
229.98676007965008
 20
65.79664072749046
 10
230.69283646781395
 20
65.83063396682569
 10
231.39805495408672
 20
65.87971543629425
 10
232.10210413383754
 20
65.94386346290092
 10
232.80467311876845
 20
66.02304972068302
 10
233.50545167419384
 20
66.11723924321825
 10
234.2041303560313
 20
66.22639043906504
 10
234.90040064744358
 20
66.35045511012802
 10
235.59395509507075
 20
66.48937847294103
 10
236.2844874447932
 20
66.64309918285787
 10
236.9716927769645
 20
66.8115493611405
 10
237.6552676410556
 20
66.9946546249322
 10
238.3349101896499
 20
67.19233412010315
 10
239.01032031173068
 20
67.40450055695318
 10
239.68119976520163
 20
67.63106024875648
 10
240.34725230858209
 20
67.87191315313109
 10
241.00818383181905
 20
68.12695291621473
 10
241.66370248615786
 20
68.39606691962766
 10
242.31351881301433
 20
68.67913633020186
 10
242.9573458717916
 20
68.97603615245433
 10
243.59489936658503
 20
69.28663528378166
 10
244.22589777171913
 20
69.61079657235116
 10
244.85006245606152
 20
69.94837687766332
 10
245.46711780605858
 20
70.29922713375856
 10
246.0767913474386
 20
70.66319241504067
 10
246.67881386552864
 20
71.04011200468744
 10
247.27291952413236
 20
71.42981946561883
 10
247.8588459829157
 20
71.8321427139908
 10
248.436334513249
 20
72.24690409518273
 10
249.00513011245414
 20
72.67392046224468
 10
249.5649816164068
 20
73.11300325676996
 10
250.11564181044335
 20
73.5639585921572
 10
250.65686753852376
 20
74.02658733922522
 10
251.18841981060262
 20
74.5006852141428
 10
251.71006390816044
 20
74.98604286863483
 10
252.2215694878486
 20
75.48244598242442
 10
252.72271068320256
 20
75.98967535787087
 10
253.21326620437816
 20
76.50750701676104
 10
253.69301943586697
 20
77.03571229921192
 10
254.16175853214756
 20
77.57405796464042
 10
254.61927651123057
 20
78.12230629475569
 10
255.06537134605605
 20
78.68021519852897
 10
255.49984605370307
 20
79.24753831909415
 10
255.92250878237166
 20
79.82402514253198
 10
256.3331728960993
 20
80.40942110849
 10
256.73165705717406
 20
81.00346772258918
 10
257.11778530620813
 20
81.60590267056787
 10
257.4913871398368
 20
82.21645993411227
 10
257.8522975860075
 20
82.83486990832267
 10
258.2003572768274
 20
83.46085952076342
 10
258.53541251893523
 20
84.09415235204399
 10
258.8573153613683
 20
84.734468757878
 10
259.16592366089327
 20
85.38152599256631
 10
259.4611011447728
 20
86.03503833384943
 10
259.7427174709396
 20
86.69471720907462
 10
260.01064828555184
 20
87.3602713226213
 10
260.26477527790433
 20
88.03140678452901
 10
260.50498623267123
 20
88.70782724027103
 10
260.73117507945716
 20
89.3892340016161
 10
260.9432419396348
 20
90.07532617852081
 10
261.1410931704487
 20
90.76580081199413
 10
261.32464140636495
 20
91.46035300787553
 10
261.4938055976498
 20
92.15867607146778
 10
261.64851104615843
 20
92.8604616429646
 10
261.7886894383199
 20
93.56539983361368
 10
261.9142788753026
 20
94.27317936255484
 10
262.0252239003465
 20
94.98348769427292
 10
262.1214755232517
 20
95.69601117660461
 10
262.2029912420113
 20
96.41043517923848
 10
262.26973506157856
 20
97.12644423264683
 10
262.3216775097617
 20
97.84372216738815
 10
262.35879565023777
 20
98.56195225371866
 10
262.38107309268094
 20
99.28081734145123
 10
262.38849999999974
 20
99.99999999999999
  0
LINE
  5
93
330
17
100
AcDbEntity
  8
Layer
100
AcDbLine
 10
434.7282091825658
 20
99.99999999999997
 30
0.0
 11
438.7282091825658
 21
99.99999999999997
 31
0.0
  0
LINE
  5
94
330
17
100
AcDbEntity
  8
Layer
100
AcDbLine
 10
7.2603083330189975
 20
100.00000000000003
 30
0.0
 11
3.2603083330189975
 21
100.00000000000003
 31
0.0
  0
LINE
  5
95
330
17
100
AcDbEntity
  8
Layer
100
AcDbLine
 10
97.05388850292834
 20
100.00000000000001
 30
0.0
 11
86.05388850292834
 21
100.00000000000001
 31
0.0
  0
LWPOLYLINE
  5
96
330
17
100
AcDbEntity
  8
Layer
100
AcDbPolyline
 90
5
 70
0
 10
86.55388850292834
 20
95.00000000000001
 10
86.55388850292834
 20
105.00000000000001
 10
96.55388850292834
 20
105.00000000000001
 10
96.55388850292834
 20
95.00000000000001
 10
86.55388850292834
 20
95.00000000000001
  0
LINE
  5
97
330
17
100
AcDbEntity
  8
Layer
100
AcDbLine
 10
226.4942587577924
 20
100.0
 30
0.0
 11
215.4942587577924
 21
100.0
 31
0.0
  0
LWPOLYLINE
  5
98
330
17
100
AcDbEntity
  8
Layer
100
AcDbPolyline
 90
5
 70
0
 10
215.9942587577924
 20
95.0
 10
215.9942587577924
 20
105.0
 10
225.9942587577924
 20
105.0
 10
225.9942587577924
 20
95.0
 10
215.9942587577924
 20
95.0
  0
LINE
  5
99
330
17
100
AcDbEntity
  8
Layer
100
AcDbLine
 10
355.9346290126565
 20
99.99999999999999
 30
0.0
 11
344.9346290126565
 21
99.99999999999999
 31
0.0
  0
LWPOLYLINE
  5
9A
330
17
100
AcDbEntity
  8
Layer
100
AcDbPolyline
 90
5
 70
0
 10
345.4346290126565
 20
94.99999999999999
 10
345.4346290126565
 20
104.99999999999999
 10
355.4346290126565
 20
104.99999999999999
 10
355.4346290126565
 20
94.99999999999999
 10
345.4346290126565
 20
94.99999999999999
  0
LINE
  5
9B
330
17
100
AcDbEntity
  8
Layer
100
AcDbLine
 10
2.0497702817582137
 20
89.80689703655858
 30
0.0
 11
-1.9384407271494695
 21
90.11377314906585
 31
0.0
  0
LINE
  5
9C
330
17
100
AcDbEntity
  8
Layer
100
AcDbLine
 10
312.8611476729882
 20
65.89126493890389
 30
0.0
 11
316.84935868189586
 21
65.5843888263966
 31
0.0
  0
LINE
  5
9D
330
17
100
AcDbEntity
  8
Layer
100
AcDbLine
 10
228.74999999999977
 20
134.22649999999993
 30
0.0
 11
228.74999999999977
 21
134.72649999999993
 31
0.0
  0
LINE
  5
9E
330
17
100
AcDbEntity
  8
Layer
100
AcDbLine
 10
228.74999999999977
 20
65.77350000000006
 30
0.0
 11
228.74999999999977
 21
65.27350000000006
 31
0.0
  0
LINE
  5
9F
330
17
100
AcDbEntity
  8
Layer
100
AcDbLine
 10
262.38849999999974
 20
100.0
 30
0.0
 11
262.88849999999974
 21
100.0
 31
0.0
  0
LINE
  5
A0
330
17
100
AcDbEntity
  8
Layer
100
AcDbLine
 10
195.1114999999998
 20
100.0
 30
0.0
 11
194.6114999999998
 21
100.0
 31
0.0
  0
LINE
  5
A1
330
17
100
AcDbEntity
  8
Layer
100
AcDbLine
 10
63.74999999999977
 20
127.38559978294592
 30
0.0
 11
63.74999999999977
 21
131.38559978294592
 31
0.0
  0
LINE
  5
A2
330
17
100
AcDbEntity
  8
Layer
100
AcDbLine
 10
63.74999999999977
 20
69.2890326062018
 30
0.0
 11
63.74999999999977
 21
65.2890326062018
 31
0.0
  0
LINE
  5
A3
330
17
100
AcDbEntity
  8
Layer
100
AcDbLine
 10
63.74999999999977
 20
85.20834604155063
 30
0.0
 11
63.74999999999977
 21
74.20834604155063
 31
0.0
  0
LWPOLYLINE
  5
A4
330
17
100
AcDbEntity
  8
Layer
100
AcDbPolyline
 90
5
 70
0
 10
68.74999999999977
 20
74.70834604155063
 10
58.74999999999977
 20
74.70834604155063
 10
58.74999999999977
 20
84.70834604155063
 10
68.74999999999977
 20
84.70834604155063
 10
68.74999999999977
 20
74.70834604155063
  0
LINE
  5
A5
330
17
100
AcDbEntity
  8
Layer
100
AcDbLine
 10
63.74999999999977
 20
103.83731619457386
 30
0.0
 11
63.74999999999977
 21
92.83731619457386
 31
0.0
  0
LWPOLYLINE
  5
A6
330
17
100
AcDbEntity
  8
Layer
100
AcDbPolyline
 90
5
 70
0
 10
68.74999999999977
 20
93.33731619457386
 10
58.74999999999977
 20
93.33731619457386
 10
58.74999999999977
 20
103.33731619457386
 10
68.74999999999977
 20
103.33731619457386
 10
68.74999999999977
 20
93.33731619457386
  0
LINE
  5
A7
330
17
100
AcDbEntity
  8
Layer
100
AcDbLine
 10
63.74999999999977
 20
122.46628634759709
 30
0.0
 11
63.74999999999977
 21
111.46628634759709
 31
0.0
  0
LWPOLYLINE
  5
A8
330
17
100
AcDbEntity
  8
Layer
100
AcDbPolyline
 90
5
 70
0
 10
68.74999999999977
 20
111.96628634759709
 10
58.74999999999977
 20
111.96628634759709
 10
58.74999999999977
 20
121.96628634759709
 10
68.74999999999977
 20
121.96628634759709
 10
68.74999999999977
 20
111.96628634759709
  0
LINE
  5
A9
330
17
100
AcDbEntity
  8
Layer
100
AcDbLine
 10
358.7499999999998
 20
118.99638848524597
 30
0.0
 11
358.7499999999998
 21
122.99638848524597
 31
0.0
  0
LINE
  5
AA
330
17
100
AcDbEntity
  8
Layer
100
AcDbLine
 10
358.7499999999998
 20
76.31310046097883
 30
0.0
 11
358.7499999999998
 21
72.31310046097883
 31
0.0
  0
LINE
  5
AB
330
17
100
AcDbEntity
  8
Layer
100
AcDbLine
 10
358.7499999999998
 20
89.14975806583226
 30
0.0
 11
358.7499999999998
 21
78.14975806583226
 31
0.0
  0
LWPOLYLINE
  5
AC
330
17
100
AcDbEntity
  8
Layer
100
AcDbPolyline
 90
5
 70
0
 10
363.7499999999998
 20
78.64975806583226
 10
353.7499999999998
 20
78.64975806583226
 10
353.7499999999998
 20
88.64975806583226
 10
363.7499999999998
 20
88.64975806583226
 10
363.7499999999998
 20
78.64975806583226
  0
LINE
  5
AD
330
17
100
AcDbEntity
  8
Layer
100
AcDbLine
 10
358.7499999999998
 20
103.1547444731124
 30
0.0
 11
358.7499999999998
 21
92.1547444731124
 31
0.0
  0
LWPOLYLINE
  5
AE
330
17
100
AcDbEntity
  8
Layer
100
AcDbPolyline
 90
5
 70
0
 10
363.7499999999998
 20
92.6547444731124
 10
353.7499999999998
 20
92.6547444731124
 10
353.7499999999998
 20
102.6547444731124
 10
363.7499999999998
 20
102.6547444731124
 10
363.7499999999998
 20
92.6547444731124
  0
LINE
  5
AF
330
17
100
AcDbEntity
  8
Layer
100
AcDbLine
 10
358.7499999999998
 20
117.15973088039254
 30
0.0
 11
358.7499999999998
 21
106.15973088039254
 31
0.0
  0
LWPOLYLINE
  5
B0
330
17
100
AcDbEntity
  8
Layer
100
AcDbPolyline
 90
5
 70
0
 10
363.7499999999998
 20
106.65973088039254
 10
353.7499999999998
 20
106.65973088039254
 10
353.7499999999998
 20
116.65973088039254
 10
363.7499999999998
 20
116.65973088039254
 10
363.7499999999998
 20
106.65973088039254
  0
ENDSEC
  0
SECTION
  2
OBJECTS
  0
DICTIONARY
  5
A
330
0
100
AcDbDictionary
280
0
281
1
  3
ACAD_COLOR
350
B
  3
ACAD_GROUP
350
C
  3
ACAD_LAYOUT
350
D
  3
ACAD_MATERIAL
350
E
  3
ACAD_MLEADERSTYLE
350
F
  3
ACAD_MLINESTYLE
350
10
  3
ACAD_PLOTSETTINGS
350
11
  3
ACAD_PLOTSTYLENAME
350
12
  3
ACAD_SCALELIST
350
14
  3
ACAD_TABLESTYLE
350
15
  3
ACAD_VISUALSTYLE
350
16
  3
EZDXF_META
350
2D
  0
DICTIONARY
  5
B
330
A
100
AcDbDictionary
280
0
281
1
  0
DICTIONARY
  5
C
330
A
100
AcDbDictionary
280
0
281
1
  0
DICTIONARY
  5
D
330
A
100
AcDbDictionary
280
0
281
1
  3
Model
350
1A
  3
Layout1
350
1E
  0
DICTIONARY
  5
E
330
A
100
AcDbDictionary
280
0
281
1
  3
ByBlock
350
1F
  3
ByLayer
350
20
  3
Global
350
21
  0
DICTIONARY
  5
F
330
A
100
AcDbDictionary
280
0
281
1
  3
Standard
350
2C
  0
DICTIONARY
  5
10
330
A
100
AcDbDictionary
280
0
281
1
  3
Standard
350
22
  0
DICTIONARY
  5
11
330
A
100
AcDbDictionary
280
0
281
1
  0
ACDBDICTIONARYWDFLT
  5
12
330
A
100
AcDbDictionary
280
0
281
1
  3
Normal
350
13
100
AcDbDictionaryWithDefault
340
13
  0
ACDBPLACEHOLDER
  5
13
330
12
  0
DICTIONARY
  5
14
330
A
100
AcDbDictionary
280
0
281
1
  0
DICTIONARY
  5
15
330
A
100
AcDbDictionary
280
0
281
1
  0
DICTIONARY
  5
16
330
A
100
AcDbDictionary
280
0
281
1
  3
2dWireframe
350
5A
  3
Basic
350
5B
  3
Brighten
350
5C
  3
ColorChange
350
5D
  3
Conceptual
350
5E
  3
Dim
350
5F
  3
EdgeColorOff
350
60
  3
Facepattern
350
61
  3
Flat
350
62
  3
FlatWithEdges
350
63
  3
Gouraud
350
64
  3
GouraudWithEdges
350
65
  3
Hidden
350
66
  3
JitterOff
350
67
  3
Linepattern
350
68
  3
Modeling
350
69
  3
OverhangOff
350
6A
  3
Realistic
350
6B
  3
Shaded
350
6C
  3
Shaded with edges
350
6D
  3
Shades of Gray
350
6E
  3
Sketchy
350
6F
  3
Thicken
350
70
  3
Wireframe
350
71
  3
X-Ray
350
72
  0
LAYOUT
  5
1A
330
D
100
AcDbPlotSettings
  1

  2
Adobe PDF
  4
A3
  6

 40
7.5
 41
20.0
 42
7.5
 43
20.0
 44
420.0
 45
297.0
 46
0.0
 47
0.0
 48
0.0
 49
0.0
140
0.0
141
0.0
142
1.0
143
1.0
 70
1024
 72
1
 73
0
 74
5
  7

 75
16
 76
0
 77
2
 78
300
147
1.0
148
0.0
149
0.0
100
AcDbLayout
  1
Model
 70
1
 71
0
 10
0.0
 20
0.0
 11
420.0
 21
297.0
 12
0.0
 22
0.0
 32
0.0
 14
1e+20
 24
1e+20
 34
1e+20
 15
-1e+20
 25
-1e+20
 35
-1e+20
146
0.0
 13
0.0
 23
0.0
 33
0.0
 16
1.0
 26
0.0
 36
0.0
 17
0.0
 27
1.0
 37
0.0
 76
1
330
17
  0
LAYOUT
  5
1E
330
D
100
AcDbPlotSettings
  1

  2
Adobe PDF
  4
A3
  6

 40
7.5
 41
20.0
 42
7.5
 43
20.0
 44
420.0
 45
297.0
 46
0.0
 47
0.0
 48
0.0
 49
0.0
140
0.0
141
0.0
142
1.0
143
1.0
 70
0
 72
1
 73
0
 74
5
  7

 75
16
 76
0
 77
2
 78
300
147
1.0
148
0.0
149
0.0
100
AcDbLayout
  1
Layout1
 70
1
 71
1
 10
0.0
 20
0.0
 11
420.0
 21
297.0
 12
0.0
 22
0.0
 32
0.0
 14
1e+20
 24
1e+20
 34
1e+20
 15
-1e+20
 25
-1e+20
 35
-1e+20
146
0.0
 13
0.0
 23
0.0
 33
0.0
 16
1.0
 26
0.0
 36
0.0
 17
0.0
 27
1.0
 37
0.0
 76
1
330
1B
  0
MATERIAL
  5
1F
102
{ACAD_REACTORS
330
E
102
}
330
E
100
AcDbMaterial
  1
ByBlock
  2

 70
0
 40
1.0
 71
1
 41
1.0
 91
-1023410177
 42
1.0
 72
1
  3

 73
1
 74
1
 75
1
 44
0.5
 73
0
 45
1.0
 46
1.0
 77
1
  4

 78
1
 79
1
170
1
 48
1.0
171
1
  6

172
1
173
1
174
1
140
1.0
141
1.0
175
1
  7

176
1
177
1
178
1
143
1.0
179
1
  8

270
1
271
1
272
1
145
1.0
146
1.0
273
1
  9

274
1
275
1
276
1
 42
1.0
 72
1
  3

 73
1
 74
1
 75
1
 94
63
  0
MATERIAL
  5
20
102
{ACAD_REACTORS
330
E
102
}
330
E
100
AcDbMaterial
  1
ByLayer
  2

 70
0
 40
1.0
 71
1
 41
1.0
 91
-1023410177
 42
1.0
 72
1
  3

 73
1
 74
1
 75
1
 44
0.5
 73
0
 45
1.0
 46
1.0
 77
1
  4

 78
1
 79
1
170
1
 48
1.0
171
1
  6

172
1
173
1
174
1
140
1.0
141
1.0
175
1
  7

176
1
177
1
178
1
143
1.0
179
1
  8

270
1
271
1
272
1
145
1.0
146
1.0
273
1
  9

274
1
275
1
276
1
 42
1.0
 72
1
  3

 73
1
 74
1
 75
1
 94
63
  0
MATERIAL
  5
21
102
{ACAD_REACTORS
330
E
102
}
330
E
100
AcDbMaterial
  1
Global
  2

 70
0
 40
1.0
 71
1
 41
1.0
 91
-1023410177
 42
1.0
 72
1
  3

 73
1
 74
1
 75
1
 44
0.5
 73
0
 45
1.0
 46
1.0
 77
1
  4

 78
1
 79
1
170
1
 48
1.0
171
1
  6

172
1
173
1
174
1
140
1.0
141
1.0
175
1
  7

176
1
177
1
178
1
143
1.0
179
1
  8

270
1
271
1
272
1
145
1.0
146
1.0
273
1
  9

274
1
275
1
276
1
 42
1.0
 72
1
  3

 73
1
 74
1
 75
1
 94
63
  0
MLINESTYLE
  5
22
102
{ACAD_REACTORS
330
10
102
}
330
10
100
AcDbMlineStyle
  2
Standard
 70
0
  3

 62
256
 51
90.0
 52
90.0
 71
2
 49
0.5
 62
256
  6
BYLAYER
 49
-0.5
 62
256
  6
BYLAYER
  0
MLEADERSTYLE
  5
2C
102
{ACAD_REACTORS
330
F
102
}
330
F
100
AcDbMLeaderStyle
179
2
170
2
171
1
172
0
 90
2
 40
0.0
 41
0.0
173
1
 91
-1056964608
 92
-2
290
1
 42
2.0
291
1
 43
8.0
  3
Standard
 44
4.0
300

342
29
174
1
175
1
176
0
178
1
 93
-1056964608
 45
4.0
292
0
297
0
 46
4.0
 94
-1056964608
 47
1.0
 49
1.0
140
1.0
294
1
141
0.0
177
0
142
1.0
295
0
296
0
143
3.75
271
0
272
9
273
9
  0
DICTIONARY
  5
2D
330
A
100
AcDbDictionary
281
1
  3
CREATED_BY_EZDXF
350
2E
  3
WRITTEN_BY_EZDXF
350
B3
  0
DICTIONARYVAR
  5
2E
330
2D
100
DictionaryVariables
280
0
  1
1.1.0 @ 2024-03-26T01:33:49.945507+00:00
  0
VISUALSTYLE
  5
5A
102
{ACAD_REACTORS
330
16
102
}
330
16
100
AcDbVisualStyle
  2
2dWireframe
 70
4
 90
0
 40
0.6
 62
7
290
0
291
0
  0
VISUALSTYLE
  5
5B
102
{ACAD_REACTORS
330
16
102
}
330
16
100
AcDbVisualStyle
  2
Basic
 70
7
 90
1
 40
0.6
 62
7
290
0
291
1
  0
VISUALSTYLE
  5
5C
102
{ACAD_REACTORS
330
16
102
}
330
16
100
AcDbVisualStyle
  2
Brighten
 70
12
 90
2
 40
0.6
 62
7
290
0
291
1
  0
VISUALSTYLE
  5
5D
102
{ACAD_REACTORS
330
16
102
}
330
16
100
AcDbVisualStyle
  2
ColorChange
 70
16
 90
2
 40
0.6
 62
8
290
0
291
1
  0
VISUALSTYLE
  5
5E
102
{ACAD_REACTORS
330
16
102
}
330
16
100
AcDbVisualStyle
  2
Conceptual
 70
9
 90
3
 40
0.6
 62
7
290
0
291
0
  0
VISUALSTYLE
  5
5F
102
{ACAD_REACTORS
330
16
102
}
330
16
100
AcDbVisualStyle
  2
Dim
 70
11
 90
2
 40
0.6
 62
7
290
0
291
1
  0
VISUALSTYLE
  5
60
102
{ACAD_REACTORS
330
16
102
}
330
16
100
AcDbVisualStyle
  2
EdgeColorOff
 70
22
 90
2
 40
0.6
 62
7
290
0
291
1
  0
VISUALSTYLE
  5
61
102
{ACAD_REACTORS
330
16
102
}
330
16
100
AcDbVisualStyle
  2
Facepattern
 70
15
 90
2
 40
0.6
 62
7
290
0
291
1
  0
VISUALSTYLE
  5
62
102
{ACAD_REACTORS
330
16
102
}
330
16
100
AcDbVisualStyle
  2
Flat
 70
0
 90
2
 40
0.6
 62
7
290
0
291
1
  0
VISUALSTYLE
  5
63
102
{ACAD_REACTORS
330
16
102
}
330
16
100
AcDbVisualStyle
  2
FlatWithEdges
 70
1
 90
2
 40
0.6
 62
7
290
0
291
1
  0
VISUALSTYLE
  5
64
102
{ACAD_REACTORS
330
16
102
}
330
16
100
AcDbVisualStyle
  2
Gouraud
 70
2
 90
2
 40
0.6
 62
7
290
0
291
1
  0
VISUALSTYLE
  5
65
102
{ACAD_REACTORS
330
16
102
}
330
16
100
AcDbVisualStyle
  2
GouraudWithEdges
 70
3
 90
2
 40
0.6
 62
7
290
0
291
1
  0
VISUALSTYLE
  5
66
102
{ACAD_REACTORS
330
16
102
}
330
16
100
AcDbVisualStyle
  2
Hidden
 70
6
 90
1
 40
0.6
 62
7
290
0
291
0
  0
VISUALSTYLE
  5
67
102
{ACAD_REACTORS
330
16
102
}
330
16
100
AcDbVisualStyle
  2
JitterOff
 70
20
 90
2
 40
0.6
 62
7
290
0
291
1
  0
VISUALSTYLE
  5
68
102
{ACAD_REACTORS
330
16
102
}
330
16
100
AcDbVisualStyle
  2
Linepattern
 70
14
 90
2
 40
0.6
 62
7
290
0
291
1
  0
VISUALSTYLE
  5
69
102
{ACAD_REACTORS
330
16
102
}
330
16
100
AcDbVisualStyle
  2
Modeling
 70
10
 90
2
 40
0.6
 62
7
290
0
291
0
  0
VISUALSTYLE
  5
6A
102
{ACAD_REACTORS
330
16
102
}
330
16
100
AcDbVisualStyle
  2
OverhangOff
 70
21
 90
2
 40
0.6
 62
7
290
0
291
1
  0
VISUALSTYLE
  5
6B
102
{ACAD_REACTORS
330
16
102
}
330
16
100
AcDbVisualStyle
  2
Realistic
 70
8
 90
2
 40
0.6
 62
7
290
0
291
0
  0
VISUALSTYLE
  5
6C
102
{ACAD_REACTORS
330
16
102
}
330
16
100
AcDbVisualStyle
  2
Shaded
 70
27
 90
2
 40
0.6
 62
7
290
0
291
0
  0
VISUALSTYLE
  5
6D
102
{ACAD_REACTORS
330
16
102
}
330
16
100
AcDbVisualStyle
  2
Shaded with edges
 70
26
 90
2
 40
0.6
 62
7
290
0
291
0
  0
VISUALSTYLE
  5
6E
102
{ACAD_REACTORS
330
16
102
}
330
16
100
AcDbVisualStyle
  2
Shades of Gray
 70
23
 90
2
 40
0.6
 62
7
290
0
291
0
  0
VISUALSTYLE
  5
6F
102
{ACAD_REACTORS
330
16
102
}
330
16
100
AcDbVisualStyle
  2
Sketchy
 70
24
 90
1
 40
0.6
 62
7
290
0
291
0
  0
VISUALSTYLE
  5
70
102
{ACAD_REACTORS
330
16
102
}
330
16
100
AcDbVisualStyle
  2
Thicken
 70
13
 90
2
 40
0.6
 62
7
290
0
291
1
  0
VISUALSTYLE
  5
71
102
{ACAD_REACTORS
330
16
102
}
330
16
100
AcDbVisualStyle
  2
Wireframe
 70
5
 90
0
 40
0.6
 62
7
290
0
291
0
  0
VISUALSTYLE
  5
72
102
{ACAD_REACTORS
330
16
102
}
330
16
100
AcDbVisualStyle
  2
X-Ray
 70
25
 90
2
 40
0.5
 62
7
290
0
291
0
  0
DICTIONARYVAR
  5
B3
330
2D
100
DictionaryVariables
280
0
  1
1.1.0 @ 2024-03-26T01:33:49.956147+00:00
  0
ENDSEC
  0
EOF
