<?xml version="1.0" encoding="utf-8" ?>
<svg baseProfile="full" height="100%" version="1.1" width="100%" xmlns="http://www.w3.org/2000/svg" xmlns:ev="http://www.w3.org/2001/xml-events" xmlns:xlink="http://www.w3.org/1999/xlink"><defs /><style type="text/css"><![CDATA[.red { fill:none; stroke:red; stroke-width:3px; } .black { fill:none; stroke:black; stroke-width:3px; }]]></style><polygon class="red" points="0.0,491.3385826771654 0.0,264.56692913385825 75.59055118110236,158.35777601524876 80.09595234035521,158.58469892506457 102.53811411637537,159.50870444858367 125.63766375990906,160.23169462368753 149.53236404128063,160.75784665148018 174.20791403016938,161.17065727849177 199.5714157667294,161.52371066818353 225.4789081042726,161.75624755763909 252.02986432356573,161.78632010104252 279.2343435569823,161.67083298075522 302.3622047244095,161.45606774897988 377.9527559055118,264.56692913385825 377.9527559055118,491.3385826771654 302.5511811023622,491.3385826771654 302.5511811023622,377.9527559055118 75.4015748031496,377.9527559055118 75.4015748031496,491.3385826771654" /><line class="red" x1="188.9763779527559" x2="188.9763779527559" y1="161.3762304798015" y2="180.27386827507712" /><text class="red" font-size="37.795275590551185" x="264.56692913385825" y="321.2598425196851">29L</text><polygon class="red" points="377.9527559055118,491.3385826771654 377.9527559055118,264.56692913385825 453.54330708661416,135.00515463035163 468.42870663861447,134.65406564493787 505.1586261227874,133.80264513051884 541.7812416312661,132.9191683673779 578.292200277869,132.08781905931517 614.6293401437325,131.36282226060797 650.6511516899841,130.71126533473983 680.3149606299213,130.1623728500947 755.9055118110236,264.56692913385825 755.9055118110236,491.3385826771654 680.503937007874,491.3385826771654 680.503937007874,377.9527559055118 453.35433070866145,377.9527559055118 453.35433070866145,491.3385826771654" /><line class="red" x1="566.9291338582677" x2="566.9291338582677" y1="132.34655445700332" y2="151.24419225227894" /><text class="red" font-size="37.795275590551185" x="642.5196850393701" y="321.2598425196851">29T</text></svg>