<?xml version="1.0" encoding="utf-8" ?>
<svg baseProfile="full" height="100%" version="1.1" width="100%" xmlns="http://www.w3.org/2000/svg" xmlns:ev="http://www.w3.org/2001/xml-events" xmlns:xlink="http://www.w3.org/1999/xlink"><defs /><style type="text/css"><![CDATA[.red { fill:none; stroke:red; stroke-width:3px; } .black { fill:none; stroke:black; stroke-width:3px; }]]></style><polygon class="red" points="0.0,491.3385826771654 0.0,264.56692913385825 75.59055118110236,135.2448707380736 86.67979897466012,136.0943745322429 105.00815677475646,137.29217154605647 124.12925484319055,138.36603165360043 143.83794287801402,139.35872652518583 164.1573243635238,140.19536612067435 185.07253988443347,140.85001975148361 206.71077566328643,141.3264952775304 229.05800777565253,141.7003570345094 252.02681120616944,142.020085582585 275.4862608222819,142.230671609215 299.53026462497576,142.25791500882565 302.3622047244095,142.24589403636617 377.9527559055118,264.56692913385825 377.9527559055118,491.3385826771654 302.5511811023622,491.3385826771654 302.5511811023622,377.9527559055118 75.4015748031496,377.9527559055118 75.4015748031496,491.3385826771654" /><line class="red" x1="188.9763779527559" x2="188.9763779527559" y1="140.93598254975495" y2="159.83362034503057" /><text class="red" font-size="37.795275590551185" x="264.56692913385825" y="321.2598425196851">38L</text><polygon class="red" points="377.9527559055118,491.3385826771654 377.9527559055118,264.56692913385825 453.54330708661416,31.741853829316938 453.54330708661416,31.741853829316938 680.3149606299213,-12.957087369522867 680.3149606299213,-12.957087369522867 755.9055118110236,264.56692913385825 755.9055118110236,491.3385826771654 680.503937007874,491.3385826771654 680.503937007874,377.9527559055118 453.35433070866145,377.9527559055118 453.35433070866145,491.3385826771654" /><line class="red" x1="566.9291338582677" x2="566.9291338582677" y1="9.392383229897064" y2="28.290021025172678" /><text class="red" font-size="37.795275590551185" x="642.5196850393701" y="321.2598425196851">38T</text></svg>