<?xml version="1.0" encoding="utf-8" ?>
<svg baseProfile="full" height="100%" version="1.1" width="100%" xmlns="http://www.w3.org/2000/svg" xmlns:ev="http://www.w3.org/2001/xml-events" xmlns:xlink="http://www.w3.org/1999/xlink"><defs /><style type="text/css"><![CDATA[.red { fill:none; stroke:red; stroke-width:3px; } .black { fill:none; stroke:black; stroke-width:3px; }]]></style><polygon class="red" points="0.0,491.3385826771654 0.0,264.56692913385825 75.59055118110236,67.14297893646471 81.75311991838538,68.29960843942735 89.50863060142098,69.60954191998047 97.70381033757769,70.78979991505986 106.37645918850342,71.84182385967051 115.58695410134163,72.79689406214379 125.26244338178691,73.69652630674773 135.3196605307038,74.53722516215964 145.7277939885809,75.27258602918232 156.58528812911038,75.8598265102836 167.88300804562334,76.34400528958702 179.67780524500523,76.74124184525522 191.82417425474307,77.08016458934122 204.3431685817099,77.31457939986473 217.22896093852586,77.4287486772368 230.56986379851242,77.42314019484974 244.35391621975918,77.34441847659116 258.514509465427,77.22379254380922 272.96793333882266,77.02927492629107 287.7865797188086,76.71352988427003 302.3622047244095,76.32452659377157 377.9527559055118,264.56692913385825 377.9527559055118,491.3385826771654 302.5511811023622,491.3385826771654 302.5511811023622,377.9527559055118 75.4015748031496,377.9527559055118 75.4015748031496,491.3385826771654" /><line class="red" x1="188.9763779527559" x2="188.9763779527559" y1="77.00070191728724" y2="95.89833971256286" /><text class="red" font-size="37.795275590551185" x="264.56692913385825" y="321.2598425196851">69L</text><polygon class="red" points="377.9527559055118,491.3385826771654 377.9527559055118,264.56692913385825 453.54330708661416,45.80170171621921 471.25117659913894,45.083682723544655 491.21297778440606,44.26595792671026 511.0562215485736,43.430709485997966 530.7745003078031,42.65660095377723 550.3320611668624,41.95907578199143 569.6653515595838,41.30600779819099 588.7820510601467,40.650101208823855 607.7300679321114,40.02328518809384 626.4917402342412,39.47249712749681 645.0140088225155,39.02866915717988 663.2643178059238,38.66003956831173 680.3149606299213,38.33619609999255 755.9055118110236,264.56692913385825 755.9055118110236,491.3385826771654 680.503937007874,491.3385826771654 680.503937007874,377.9527559055118 453.35433070866145,377.9527559055118 453.35433070866145,491.3385826771654" /><line class="red" x1="566.9291338582677" x2="566.9291338582677" y1="41.39843573679531" y2="60.29607353207092" /><text class="red" font-size="37.795275590551185" x="642.5196850393701" y="321.2598425196851">69T</text></svg>