<?xml version="1.0" encoding="utf-8" ?>
<svg baseProfile="full" height="100%" version="1.1" width="100%" xmlns="http://www.w3.org/2000/svg" xmlns:ev="http://www.w3.org/2001/xml-events" xmlns:xlink="http://www.w3.org/1999/xlink"><defs /><style type="text/css"><![CDATA[.red { fill:none; stroke:red; stroke-width:3px; } .black { fill:none; stroke:black; stroke-width:3px; }]]></style><polygon class="red" points="0.0,491.3385826771654 0.0,264.56692913385825 75.59055118110236,171.94148603918728 88.49086618208105,172.34524141881508 113.79585677752686,172.90244126019883 139.9266054392424,173.33959493098075 166.78679361707918,173.71347634668268 194.22431265551666,173.95973252540415 222.34211413518437,173.99157328367812 251.15179435492564,173.8692661846079 280.7483816712835,173.59443238609163 302.3622047244095,173.39411430230746 377.9527559055118,264.56692913385825 377.9527559055118,491.3385826771654 302.5511811023622,491.3385826771654 302.5511811023622,377.9527559055118 75.4015748031496,377.9527559055118 75.4015748031496,491.3385826771654" /><line class="red" x1="188.9763779527559" x2="188.9763779527559" y1="173.91263146119093" y2="192.81026925646654" /><text class="red" font-size="37.795275590551185" x="264.56692913385825" y="321.2598425196851">23L</text><polygon class="red" points="377.9527559055118,491.3385826771654 377.9527559055118,264.56692913385825 453.54330708661416,146.198869698318 468.0318602871233,145.83845693689466 507.16701888533066,144.9154099470698 546.061253663444,144.01381932329548 584.8416318325901,143.0782890269778 623.503627378612,142.1979605186723 661.9816577921077,141.43024860472246 680.3149606299213,141.0986386696501 755.9055118110236,264.56692913385825 755.9055118110236,491.3385826771654 680.503937007874,491.3385826771654 680.503937007874,377.9527559055118 453.35433070866145,377.9527559055118 453.35433070866145,491.3385826771654" /><line class="red" x1="566.9291338582677" x2="566.9291338582677" y1="143.51040664235063" y2="162.40804443762624" /><text class="red" font-size="37.795275590551185" x="642.5196850393701" y="321.2598425196851">23T</text></svg>