<?xml version="1.0" encoding="utf-8" ?>
<svg baseProfile="full" height="100%" version="1.1" width="100%" xmlns="http://www.w3.org/2000/svg" xmlns:ev="http://www.w3.org/2001/xml-events" xmlns:xlink="http://www.w3.org/1999/xlink"><defs /><style type="text/css"><![CDATA[.red { fill:none; stroke:red; stroke-width:3px; } .black { fill:none; stroke:black; stroke-width:3px; }]]></style><polygon class="red" points="0.0,491.3385826771654 0.0,264.56692913385825 75.59055118110236,132.63044646731248 76.72530250005241,132.73621284940225 94.14877888166268,134.0709623768264 112.27196154867977,135.25535430818093 131.17932611402,136.31721234356246 150.6674418641918,137.2988009109131 170.75938260428984,138.12607987125546 191.44056232634682,138.77341172946166 212.83703405135884,139.24456477317858 234.93480353409723,139.61425343693986 257.6470321461095,139.9304114662708 280.8441914706401,140.138645614741 302.3622047244095,140.1630280098217 377.9527559055118,264.56692913385825 377.9527559055118,491.3385826771654 302.5511811023622,491.3385826771654 302.5511811023622,377.9527559055118 75.4015748031496,377.9527559055118 75.4015748031496,491.3385826771654" /><line class="red" x1="188.9763779527559" x2="188.9763779527559" y1="138.69628145590104" y2="157.59391925117666" /><text class="red" font-size="37.795275590551185" x="264.56692913385825" y="321.2598425196851">39L</text><polygon class="red" points="377.9527559055118,491.3385826771654 377.9527559055118,264.56692913385825 453.54330708661416,115.21152103418137 465.50283613177737,114.92301177037234 498.2033865573055,114.17842561701025 530.7480917380387,113.52909559389082 563.0099770956597,112.94554764360583 595.0194614605459,112.35325141824535 626.8355944411203,111.72869426437506 658.4485561748629,111.19759288684247 680.3149606299213,110.90871555832945 755.9055118110236,264.56692913385825 755.9055118110236,491.3385826771654 680.503937007874,491.3385826771654 680.503937007874,377.9527559055118 453.35433070866145,377.9527559055118 453.35433070866145,491.3385826771654" /><line class="red" x1="566.9291338582677" x2="566.9291338582677" y1="112.87302845739754" y2="131.77066625267315" /><text class="red" font-size="37.795275590551185" x="642.5196850393701" y="321.2598425196851">39T</text></svg>