<?xml version="1.0" encoding="utf-8" ?>
<svg baseProfile="full" height="100%" version="1.1" width="100%" xmlns="http://www.w3.org/2000/svg" xmlns:ev="http://www.w3.org/2001/xml-events" xmlns:xlink="http://www.w3.org/1999/xlink"><defs /><style type="text/css"><![CDATA[.red { fill:none; stroke:red; stroke-width:3px; } .black { fill:none; stroke:black; stroke-width:3px; }]]></style><polygon class="red" points="0.0,491.3385826771654 0.0,264.56692913385825 75.59055118110236,122.89940133972107 92.26045276908673,123.17828569851326 112.95118286473473,123.46631236851965 134.08181261920333,123.65601656743058 155.74095584374714,123.68056860593697 177.93387251723732,123.58637399056693 200.74196682308832,123.37457811286083 224.05381044964906,123.1585309478121 247.77447300658605,122.86549387825784 271.8992525202168,122.4727723002245 296.52561690735615,121.93644906825557 302.3622047244095,121.78910482046064 377.9527559055118,264.56692913385825 377.9527559055118,491.3385826771654 302.5511811023622,491.3385826771654 302.5511811023622,377.9527559055118 75.4015748031496,377.9527559055118 75.4015748031496,491.3385826771654" /><line class="red" x1="188.9763779527559" x2="188.9763779527559" y1="123.48383332673825" y2="142.38147112201386" /><text class="red" font-size="37.795275590551185" x="264.56692913385825" y="321.2598425196851">47L</text><polygon class="red" points="377.9527559055118,491.3385826771654 377.9527559055118,264.56692913385825 453.54330708661416,49.85317033782758 453.54330708661416,49.85317033782758 680.3149606299213,5.3440917460625315 680.3149606299213,5.3440917460625315 755.9055118110236,264.56692913385825 755.9055118110236,491.3385826771654 680.503937007874,491.3385826771654 680.503937007874,377.9527559055118 453.35433070866145,377.9527559055118 453.35433070866145,491.3385826771654" /><line class="red" x1="566.9291338582677" x2="566.9291338582677" y1="27.598631041945055" y2="46.49626883722067" /><text class="red" font-size="37.795275590551185" x="642.5196850393701" y="321.2598425196851">47T</text></svg>