<?xml version="1.0" encoding="utf-8" ?>
<svg baseProfile="full" height="100%" version="1.1" width="100%" xmlns="http://www.w3.org/2000/svg" xmlns:ev="http://www.w3.org/2001/xml-events" xmlns:xlink="http://www.w3.org/1999/xlink"><defs /><style type="text/css"><![CDATA[.red { fill:none; stroke:red; stroke-width:3px; } .black { fill:none; stroke:black; stroke-width:3px; }]]></style><polygon class="red" points="0.0,491.3385826771654 0.0,264.56692913385825 75.59055118110236,102.4605327598423 76.96472856386396,102.52975341931358 93.21774531450853,103.19903620850164 109.94868443169526,103.72278541954756 127.26447197520105,104.10410141274542 145.15161459508846,104.40335332038734 163.53317132419488,104.65924532169242 182.30318845442667,104.82778261716453 201.5449132772497,104.84960655272778 221.26123414326753,104.76593419033713 241.52845582892883,104.57773284631764 262.2406946175863,104.38578205346374 283.3155015234979,104.12543749309896 302.3622047244095,103.81539203620088 377.9527559055118,264.56692913385825 377.9527559055118,491.3385826771654 302.5511811023622,491.3385826771654 302.5511811023622,377.9527559055118 75.4015748031496,377.9527559055118 75.4015748031496,491.3385826771654" /><line class="red" x1="188.9763779527559" x2="188.9763779527559" y1="104.83535133872942" y2="123.73298913400504" /><text class="red" font-size="37.795275590551185" x="264.56692913385825" y="321.2598425196851">58L</text><polygon class="red" points="377.9527559055118,491.3385826771654 377.9527559055118,264.56692913385825 453.54330708661416,87.33158126340675 476.6933734352613,86.78556079655141 503.3269026147235,86.16818058443783 529.8836954240787,85.52753017350415 556.3602066133666,84.92466565409126 582.7102310926387,84.39893209429715 608.8305361362794,83.92647211879176 634.7462578600706,83.44693369806112 660.5067153506533,82.94125197992162 680.3149606299213,82.60847280391425 755.9055118110236,264.56692913385825 755.9055118110236,491.3385826771654 680.503937007874,491.3385826771654 680.503937007874,377.9527559055118 453.35433070866145,377.9527559055118 453.35433070866145,491.3385826771654" /><line class="red" x1="566.9291338582677" x2="566.9291338582677" y1="84.71379527148355" y2="103.61143306675916" /><text class="red" font-size="37.795275590551185" x="642.5196850393701" y="321.2598425196851">58T</text></svg>