<?xml version="1.0" encoding="utf-8" ?>
<svg baseProfile="full" height="100%" version="1.1" width="100%" xmlns="http://www.w3.org/2000/svg" xmlns:ev="http://www.w3.org/2001/xml-events" xmlns:xlink="http://www.w3.org/1999/xlink"><defs /><style type="text/css"><![CDATA[.red { fill:none; stroke:red; stroke-width:3px; } .black { fill:none; stroke:black; stroke-width:3px; }]]></style><polygon class="red" points="0.0,491.3385826771654 0.0,264.56692913385825 75.59055118110236,124.35803988201724 83.57250791264335,125.20582085269996 99.72461253453434,126.71133960018835 116.55571860267025,128.0007259105771 134.06337587044936,129.14490259455442 152.3295399265079,130.1707544134486 171.15593882272503,131.11902406809492 190.5655573265875,131.91822112299894 210.544629652087,132.54358766339612 231.21580921557495,132.99877326012324 252.56519080943116,133.35594264423122 274.50769496592955,133.66138911732844 296.9179834157145,133.86256763131894 302.3622047244095,133.8687374409244 377.9527559055118,264.56692913385825 377.9527559055118,491.3385826771654 302.5511811023622,491.3385826771654 302.5511811023622,377.9527559055118 75.4015748031496,377.9527559055118 75.4015748031496,491.3385826771654" /><line class="red" x1="188.9763779527559" x2="188.9763779527559" y1="131.85278616996118" y2="150.7504239652368" /><text class="red" font-size="37.795275590551185" x="264.56692913385825" y="321.2598425196851">42L</text><polygon class="red" points="377.9527559055118,491.3385826771654 377.9527559055118,264.56692913385825 453.54330708661416,23.17749441696742 453.54330708661416,23.17749441696742 680.3149606299213,-21.440795123622024 680.3149606299213,-21.440795123622024 755.9055118110236,264.56692913385825 755.9055118110236,491.3385826771654 680.503937007874,491.3385826771654 680.503937007874,377.9527559055118 453.35433070866145,377.9527559055118 453.35433070866145,491.3385826771654" /><line class="red" x1="566.9291338582677" x2="566.9291338582677" y1="0.868349646672641" y2="19.765987441948255" /><text class="red" font-size="37.795275590551185" x="642.5196850393701" y="321.2598425196851">42T</text></svg>