<?xml version="1.0" encoding="utf-8" ?>
<svg baseProfile="full" height="100%" version="1.1" width="100%" xmlns="http://www.w3.org/2000/svg" xmlns:ev="http://www.w3.org/2001/xml-events" xmlns:xlink="http://www.w3.org/1999/xlink"><defs /><style type="text/css"><![CDATA[.red { fill:none; stroke:red; stroke-width:3px; } .black { fill:none; stroke:black; stroke-width:3px; }]]></style><polygon class="red" points="0.0,491.3385826771654 0.0,264.56692913385825 75.59055118110236,111.95796037064468 83.89768353295892,112.21800005509147 102.202505842179,112.6210898396389 121.11017740145138,112.93741349226275 140.54135838807673,113.20791216115936 160.38438125659798,113.38607077637636 180.72493262565763,113.40913475873191 201.56697885870835,113.32067955407791 222.9891426444559,113.12175342201908 244.8830199957967,112.918849732713 267.16048856126525,112.64364494089841 289.8167978012114,112.2748351899562 302.3622047244095,112.00161758283008 377.9527559055118,264.56692913385825 377.9527559055118,491.3385826771654 302.5511811023622,491.3385826771654 302.5511811023622,377.9527559055118 75.4015748031496,377.9527559055118 75.4015748031496,491.3385826771654" /><line class="red" x1="188.9763779527559" x2="188.9763779527559" y1="113.3741150069792" y2="132.2717528022548" /><text class="red" font-size="37.795275590551185" x="264.56692913385825" y="321.2598425196851">53L</text><polygon class="red" points="377.9527559055118,491.3385826771654 377.9527559055118,264.56692913385825 453.54330708661416,39.31009526417051 453.54330708661416,39.31009526417051 680.3149606299213,-5.074878318569063 680.3149606299213,-5.074878318569063 755.9055118110236,264.56692913385825 755.9055118110236,491.3385826771654 680.503937007874,491.3385826771654 680.503937007874,377.9527559055118 453.35433070866145,377.9527559055118 453.35433070866145,491.3385826771654" /><line class="red" x1="566.9291338582677" x2="566.9291338582677" y1="17.117608472800725" y2="36.01524626807634" /><text class="red" font-size="37.795275590551185" x="642.5196850393701" y="321.2598425196851">53T</text></svg>