<?xml version="1.0" encoding="utf-8" ?>
<svg baseProfile="full" height="100%" version="1.1" width="100%" xmlns="http://www.w3.org/2000/svg" xmlns:ev="http://www.w3.org/2001/xml-events" xmlns:xlink="http://www.w3.org/1999/xlink"><defs /><style type="text/css"><![CDATA[.red { fill:none; stroke:red; stroke-width:3px; } .black { fill:none; stroke:black; stroke-width:3px; }]]></style><polygon class="red" points="0.0,491.3385826771654 0.0,264.56692913385825 75.59055118110236,124.81904448390708 87.09599589045376,125.01152825395309 108.01220082660575,125.30269265255322 129.37332811004023,125.49446365348348 151.26851555562746,125.51928207241184 173.7032547153691,125.42406003166673 196.75944769457192,125.209960310604 220.32512479015367,124.99156030113227 244.3041368887731,124.695331033711 268.691790710656,124.29832894342059 293.5863184432712,123.75616504463574 302.3622047244095,123.53461839635565 377.9527559055118,264.56692913385825 377.9527559055118,491.3385826771654 302.5511811023622,491.3385826771654 302.5511811023622,377.9527559055118 75.4015748031496,377.9527559055118 75.4015748031496,491.3385826771654" /><line class="red" x1="188.9763779527559" x2="188.9763779527559" y1="125.2822338668775" y2="144.17987166215312" /><text class="red" font-size="37.795275590551185" x="264.56692913385825" y="321.2598425196851">46L</text><polygon class="red" points="377.9527559055118,491.3385826771654 377.9527559055118,264.56692913385825 453.54330708661416,106.41264308567122 481.20415608237164,105.64362446310867 511.8099559638027,104.88228437798631 542.2969567725569,104.16321400431752 572.5957679557159,103.46087038624489 602.8067458429443,102.73206697885252 632.9260519891701,102.04625586578175 662.901688512744,101.44818398095339 680.3149606299213,101.13321543774572 755.9055118110236,264.56692913385825 755.9055118110236,491.3385826771654 680.503937007874,491.3385826771654 680.503937007874,377.9527559055118 453.35433070866145,377.9527559055118 453.35433070866145,491.3385826771654" /><line class="red" x1="566.9291338582677" x2="566.9291338582677" y1="103.59222617674891" y2="122.48986397202452" /><text class="red" font-size="37.795275590551185" x="642.5196850393701" y="321.2598425196851">46T</text></svg>