<?xml version="1.0" encoding="utf-8" ?>
<svg baseProfile="full" height="100%" version="1.1" width="100%" xmlns="http://www.w3.org/2000/svg" xmlns:ev="http://www.w3.org/2001/xml-events" xmlns:xlink="http://www.w3.org/1999/xlink"><defs /><style type="text/css"><![CDATA[.red { fill:none; stroke:red; stroke-width:3px; } .black { fill:none; stroke:black; stroke-width:3px; }]]></style><polygon class="red" points="0.0,491.3385826771654 0.0,264.56692913385825 75.59055118110236,113.82009975595508 78.68748335321152,113.91704298220031 97.19011261557449,114.32448752501773 116.30188996272386,114.6442255266378 135.94299580085294,114.91764552905278 156.0006198170321,115.09772840821876 176.56093649533915,115.12104039993278 197.62812780179638,115.03162862682609 219.28128000756118,114.8305575371594 241.41148507143862,114.62546326856284 263.9294859688186,114.34728643045833 286.8305402543789,113.97449137500092 302.3622047244095,113.6362378367852 377.9527559055118,264.56692913385825 377.9527559055118,491.3385826771654 302.5511811023622,491.3385826771654 302.5511811023622,377.9527559055118 75.4015748031496,377.9527559055118 75.4015748031496,491.3385826771654" /><line class="red" x1="188.9763779527559" x2="188.9763779527559" y1="115.06834772635983" y2="133.96598552163545" /><text class="red" font-size="37.795275590551185" x="264.56692913385825" y="321.2598425196851">52L</text><polygon class="red" points="377.9527559055118,491.3385826771654 377.9527559055118,264.56692913385825 453.54330708661416,96.77099407656169 480.6621230098766,96.09639516979672 509.2939271182119,95.42108171574807 537.7488541029566,94.76148042460534 566.1215302948035,94.07702392340127 594.4082647449007,93.43294054456322 622.5599737369856,92.87125971895455 650.4665193746388,92.3664904940519 678.1545742188991,91.85415716424615 680.3149606299213,91.81174841223924 755.9055118110236,264.56692913385825 755.9055118110236,491.3385826771654 680.503937007874,491.3385826771654 680.503937007874,377.9527559055118 453.35433070866145,377.9527559055118 453.35433070866145,491.3385826771654" /><line class="red" x1="566.9291338582677" x2="566.9291338582677" y1="94.05863494913365" y2="112.95627274440926" /><text class="red" font-size="37.795275590551185" x="642.5196850393701" y="321.2598425196851">52T</text></svg>