<?xml version="1.0" encoding="utf-8" ?>
<svg baseProfile="full" height="100%" version="1.1" width="100%" xmlns="http://www.w3.org/2000/svg" xmlns:ev="http://www.w3.org/2001/xml-events" xmlns:xlink="http://www.w3.org/1999/xlink"><defs /><style type="text/css"><![CDATA[.red { fill:none; stroke:red; stroke-width:3px; } .black { fill:none; stroke:black; stroke-width:3px; }]]></style><polygon class="red" points="0.0,491.3385826771654 0.0,264.56692913385825 75.59055118110236,148.67876479517747 86.52887473210092,149.29306797380275 107.41394828506623,150.34499646797371 128.94634707943897,151.23155945090826 151.10975352756236,151.92526253560015 174.03739759356904,152.43012463407308 197.71509706394806,152.82624288821364 222.05229952648938,153.16501420292707 246.91063069770524,153.3881435797431 272.3871787384559,153.41700363294956 298.49094872410683,153.30619306954202 302.3622047244095,153.27024460089615 377.9527559055118,264.56692913385825 377.9527559055118,491.3385826771654 302.5511811023622,491.3385826771654 302.5511811023622,377.9527559055118 75.4015748031496,377.9527559055118 75.4015748031496,491.3385826771654" /><line class="red" x1="188.9763779527559" x2="188.9763779527559" y1="152.68004768195715" y2="171.57768547723276" /><text class="red" font-size="37.795275590551185" x="264.56692913385825" y="321.2598425196851">33L</text><polygon class="red" points="377.9527559055118,491.3385826771654 377.9527559055118,264.56692913385825 453.54330708661416,127.34701222826516 477.1111100954697,126.80069711260143 512.2541169217867,125.95291420079514 547.2900788373595,125.1551506300417 582.1591794705605,124.4594441960723 616.7255357179873,123.83421332526865 651.0215486148372,123.19960761844709 680.3149606299213,122.62457157184645 755.9055118110236,264.56692913385825 755.9055118110236,491.3385826771654 680.503937007874,491.3385826771654 680.503937007874,377.9527559055118 453.35433070866145,377.9527559055118 453.35433070866145,491.3385826771654" /><line class="red" x1="566.9291338582677" x2="566.9291338582677" y1="124.763313252908" y2="143.66095104818362" /><text class="red" font-size="37.795275590551185" x="642.5196850393701" y="321.2598425196851">33T</text></svg>