<?xml version="1.0" encoding="utf-8" ?>
<svg baseProfile="full" height="100%" version="1.1" width="100%" xmlns="http://www.w3.org/2000/svg" xmlns:ev="http://www.w3.org/2001/xml-events" xmlns:xlink="http://www.w3.org/1999/xlink"><defs /><style type="text/css"><![CDATA[.red { fill:none; stroke:red; stroke-width:3px; } .black { fill:none; stroke:black; stroke-width:3px; }]]></style><polygon class="red" points="0.0,491.3385826771654 0.0,264.56692913385825 75.59055118110236,173.83808270263 83.18418081382015,174.0757481038333 108.69064145413358,174.63738334715867 135.02927564053869,175.0780145956221 162.10327616712914,175.45487144361107 189.75937044855175,175.70308752079916 218.10100696541576,175.7351808811975 247.14000161177472,175.611899499444 276.9718549114835,175.3348810218826 302.3622047244095,175.09956164488113 377.9527559055118,264.56692913385825 377.9527559055118,491.3385826771654 302.5511811023622,491.3385826771654 302.5511811023622,377.9527559055118 75.4015748031496,377.9527559055118 75.4015748031496,491.3385826771654" /><line class="red" x1="188.9763779527559" x2="188.9763779527559" y1="175.69606008866083" y2="194.59369788393644" /><text class="red" font-size="37.795275590551185" x="264.56692913385825" y="321.2598425196851">22L</text><polygon class="red" points="377.9527559055118,491.3385826771654 377.9527559055118,264.56692913385825 453.54330708661416,147.80203805110312 473.25482008122697,147.31170055412156 512.7010634920044,146.38131627594578 551.9044861695946,145.47255849368378 590.9931161470654,144.52959197834923 629.962402678718,143.64226644143758 668.7462745990188,142.86845236816737 680.3149606299213,142.65919977118756 755.9055118110236,264.56692913385825 755.9055118110236,491.3385826771654 680.503937007874,491.3385826771654 680.503937007874,377.9527559055118 453.35433070866145,377.9527559055118 453.35433070866145,491.3385826771654" /><line class="red" x1="566.9291338582677" x2="566.9291338582677" y1="145.1101068118703" y2="164.00774460714592" /><text class="red" font-size="37.795275590551185" x="642.5196850393701" y="321.2598425196851">22T</text></svg>