<?xml version="1.0" encoding="utf-8" ?>
<svg baseProfile="full" height="100%" version="1.1" width="100%" xmlns="http://www.w3.org/2000/svg" xmlns:ev="http://www.w3.org/2001/xml-events" xmlns:xlink="http://www.w3.org/1999/xlink"><defs /><style type="text/css"><![CDATA[.red { fill:none; stroke:red; stroke-width:3px; } .black { fill:none; stroke:black; stroke-width:3px; }]]></style><polygon class="red" points="0.0,491.3385826771654 0.0,264.56692913385825 75.59055118110236,163.08142593075252 89.33399763484351,163.6472769474214 112.90161887608235,164.38491066773128 137.2798472651366,164.9217076601837 162.4543225132801,165.34286447363087 188.33097388684916,165.7030589008118 214.76304680755618,165.94029954658708 241.8512071161207,165.97097833508906 269.6060409734199,165.85315293636188 298.12040476636366,165.58836866145282 302.3622047244095,165.54905562122565 377.9527559055118,264.56692913385825 377.9527559055118,491.3385826771654 302.5511811023622,491.3385826771654 302.5511811023622,377.9527559055118 75.4015748031496,377.9527559055118 75.4015748031496,491.3385826771654" /><line class="red" x1="188.9763779527559" x2="188.9763779527559" y1="165.70885171463465" y2="184.60648950991026" /><text class="red" font-size="37.795275590551185" x="264.56692913385825" y="321.2598425196851">27L</text><polygon class="red" points="377.9527559055118,491.3385826771654 377.9527559055118,264.56692913385825 453.54330708661416,138.83659390571108 481.71041369463137,138.17224083424026 519.1823841371869,137.30361913945967 556.5448039860057,136.40229545066927 593.7932609981236,135.5541532739519 630.8644204803182,134.81451129287575 667.6139596759823,134.14979133947543 680.3149606299213,133.91477485152524 755.9055118110236,264.56692913385825 755.9055118110236,491.3385826771654 680.503937007874,491.3385826771654 680.503937007874,377.9527559055118 453.35433070866145,377.9527559055118 453.35433070866145,491.3385826771654" /><line class="red" x1="566.9291338582677" x2="566.9291338582677" y1="136.16584570622092" y2="155.06348350149653" /><text class="red" font-size="37.795275590551185" x="642.5196850393701" y="321.2598425196851">27T</text></svg>