<?xml version="1.0" encoding="utf-8" ?>
<svg baseProfile="full" height="100%" version="1.1" width="100%" xmlns="http://www.w3.org/2000/svg" xmlns:ev="http://www.w3.org/2001/xml-events" xmlns:xlink="http://www.w3.org/1999/xlink"><defs /><style type="text/css"><![CDATA[.red { fill:none; stroke:red; stroke-width:3px; } .black { fill:none; stroke:black; stroke-width:3px; }]]></style><polygon class="red" points="0.0,491.3385826771654 0.0,264.56692913385825 75.59055118110236,80.23652897231977 82.28152552397762,80.91547637365943 93.29404792489345,81.92935582572517 104.69428795828469,82.83118436098852 116.58411556287246,83.57460791577796 128.95541167771745,84.20910151170284 141.8693228063848,84.75284358744057 155.17111811946017,85.23602650173052 168.88233231984384,85.60817120337754 182.99581392180136,85.85197263042772 197.60581997230457,85.96876597653556 212.69990405311125,86.00957719100091 228.2081591982398,86.00796735500205 244.0397699486636,85.928114528847 260.2705929865148,85.7188922392001 276.90105157106643,85.41505567867455 294.0011055515412,85.01636929335484 302.3622047244095,84.8215883015929 377.9527559055118,264.56692913385825 377.9527559055118,491.3385826771654 302.5511811023622,491.3385826771654 302.5511811023622,377.9527559055118 75.4015748031496,377.9527559055118 75.4015748031496,491.3385826771654" /><line class="red" x1="188.9763779527559" x2="188.9763779527559" y1="85.89978165133937" y2="104.79741944661498" /><text class="red" font-size="37.795275590551185" x="264.56692913385825" y="321.2598425196851">66L</text><polygon class="red" points="377.9527559055118,491.3385826771654 377.9527559055118,264.56692913385825 453.54330708661416,59.55003284666168 470.92160043925725,58.91038336994086 493.15103729317485,58.15486490981385 515.1866538346038,57.44703952332486 537.0493628502403,56.73566875904049 558.7817938938507,56.00404082011045 580.376722302231,55.3382021002177 601.795259593872,54.75472040851707 622.9682363074274,54.21783580639715 643.9038229555468,53.67585507008505 664.6540590039331,53.16417842738622 680.3149606299213,52.83628846898671 755.9055118110236,264.56692913385825 755.9055118110236,491.3385826771654 680.503937007874,491.3385826771654 680.503937007874,377.9527559055118 453.35433070866145,377.9527559055118 453.35433070866145,491.3385826771654" /><line class="red" x1="566.9291338582677" x2="566.9291338582677" y1="55.752833022156665" y2="74.65047081743228" /><text class="red" font-size="37.795275590551185" x="642.5196850393701" y="321.2598425196851">66T</text></svg>