<?xml version="1.0" encoding="utf-8" ?>
<svg baseProfile="full" height="100%" version="1.1" width="100%" xmlns="http://www.w3.org/2000/svg" xmlns:ev="http://www.w3.org/2001/xml-events" xmlns:xlink="http://www.w3.org/1999/xlink"><defs /><style type="text/css"><![CDATA[.red { fill:none; stroke:red; stroke-width:3px; } .black { fill:none; stroke:black; stroke-width:3px; }]]></style><polygon class="red" points="0.0,491.3385826771654 0.0,264.56692913385825 75.59055118110236,121.10394648738276 77.14053970915705,121.13807826653249 97.06874020781436,121.4714736641381 117.54954545195852,121.75657900062623 138.46557405876922,121.94435893558818 159.90495197406568,121.96866296473604 181.87272357414918,121.87542491781869 204.449829459983,121.66577399772052 227.52534537400703,121.4519174119622 251.00547559903265,121.16185238869787 274.88551006704927,120.77311611517973 299.2622051325388,120.24223074541885 302.3622047244095,120.16397148042768 377.9527559055118,264.56692913385825 377.9527559055118,491.3385826771654 302.5511811023622,491.3385826771654 302.5511811023622,377.9527559055118 75.4015748031496,377.9527559055118 75.4015748031496,491.3385826771654" /><line class="red" x1="188.9763779527559" x2="188.9763779527559" y1="121.8094604100529" y2="140.70709820532852" /><text class="red" font-size="37.795275590551185" x="264.56692913385825" y="321.2598425196851">48L</text><polygon class="red" points="377.9527559055118,491.3385826771654 377.9527559055118,264.56692913385825 453.54330708661416,103.11874936791446 471.2042298209439,102.62774578313076 501.1741105649011,101.88222464836059 531.0276295735123,101.17809566187918 560.6968217619745,100.49034698471223 590.2800868752865,99.77668642333254 619.7736368325903,99.10512380487785 649.1264688332169,98.51947813539277 678.2238415335448,97.99316941089194 680.3149606299213,97.95447582595017 755.9055118110236,264.56692913385825 755.9055118110236,491.3385826771654 680.503937007874,491.3385826771654 680.503937007874,377.9527559055118 453.35433070866145,377.9527559055118 453.35433070866145,491.3385826771654" /><line class="red" x1="566.9291338582677" x2="566.9291338582677" y1="100.33999997831188" y2="119.2376377735875" /><text class="red" font-size="37.795275590551185" x="642.5196850393701" y="321.2598425196851">48T</text></svg>