<?xml version="1.0" encoding="utf-8" ?>
<svg baseProfile="full" height="100%" version="1.1" width="100%" xmlns="http://www.w3.org/2000/svg" xmlns:ev="http://www.w3.org/2001/xml-events" xmlns:xlink="http://www.w3.org/1999/xlink"><defs /><style type="text/css"><![CDATA[.red { fill:none; stroke:red; stroke-width:3px; } .black { fill:none; stroke:black; stroke-width:3px; }]]></style><polygon class="red" points="0.0,491.3385826771654 0.0,264.56692913385825 75.59055118110236,72.08489740980764 82.52212084480402,73.10297654523129 91.47008580348694,74.21383776463858 100.97159631266629,75.22601698016638 110.9526697463591,76.18229837333757 121.32856167756665,77.07893023803172 132.0676215192326,77.86791852016847 143.26942802888232,78.50528421714739 154.92519323979218,79.03755584821732 167.09320370468106,79.48153104292044 179.62488294963936,79.86637654563708 192.54143669962644,80.14446941090358 205.83659338958887,80.29955215991015 219.60064791343729,80.33237058228758 233.8214857559327,80.29104352810765 248.4314037099864,80.20756994792464 263.3443166838582,80.04869777294624 278.63376381481265,79.76582159926892 294.29940159305454,79.39169446677715 302.3622047244095,79.15844765681356 377.9527559055118,264.56692913385825 377.9527559055118,491.3385826771654 302.5511811023622,491.3385826771654 302.5511811023622,377.9527559055118 75.4015748031496,377.9527559055118 75.4015748031496,491.3385826771654" /><line class="red" x1="188.9763779527559" x2="188.9763779527559" y1="80.06771384429112" y2="98.96535163956673" /><text class="red" font-size="37.795275590551185" x="264.56692913385825" y="321.2598425196851">68L</text><polygon class="red" points="377.9527559055118,491.3385826771654 377.9527559055118,264.56692913385825 453.54330708661416,50.36528843492613 465.1570428317752,49.90532776048423 485.9155161171099,49.121929465411824 506.5109851086411,48.336107364672216 526.9839857054928,47.531872511967435 547.3278518309932,46.79035027674047 567.5057877916405,46.12736463260342 587.452362460524,45.509588926495326 607.1754107711936,44.8882610320199 626.724224146566,44.296459146886605 646.0804903090858,43.78255142083361 665.1895603478288,43.37829034514891 680.3149606299213,43.11522098166671 755.9055118110236,264.56692913385825 755.9055118110236,491.3385826771654 680.503937007874,491.3385826771654 680.503937007874,377.9527559055118 453.35433070866145,377.9527559055118 453.35433070866145,491.3385826771654" /><line class="red" x1="566.9291338582677" x2="566.9291338582677" y1="46.14631172809459" y2="65.0439495233702" /><text class="red" font-size="37.795275590551185" x="642.5196850393701" y="321.2598425196851">68T</text></svg>