<?xml version="1.0" encoding="utf-8" ?>
<svg baseProfile="full" height="100%" version="1.1" width="100%" xmlns="http://www.w3.org/2000/svg" xmlns:ev="http://www.w3.org/2001/xml-events" xmlns:xlink="http://www.w3.org/1999/xlink"><defs /><style type="text/css"><![CDATA[.red { fill:none; stroke:red; stroke-width:3px; } .black { fill:none; stroke:black; stroke-width:3px; }]]></style><polygon class="red" points="0.0,491.3385826771654 0.0,264.56692913385825 75.59055118110236,96.54305947377543 78.5043260639651,96.7067056828289 93.72804425721,97.47357236609867 109.42279736002553,98.11987905083708 125.57928497093775,98.62565663822113 142.3016516550149,98.99390835660915 159.5764769112713,99.28291721726202 177.32825908586642,99.53004521801228 195.45447277312445,99.69280972163733 214.03690166820547,99.71388962912522 233.0777873140034,99.63308697209254 252.65204373961302,99.45132050089671 272.6552993906605,99.26594144591411 293.0085093008379,99.01451302441922 302.3622047244095,98.86225375476715 377.9527559055118,264.56692913385825 377.9527559055118,491.3385826771654 302.5511811023622,491.3385826771654 302.5511811023622,377.9527559055118 75.4015748031496,377.9527559055118 75.4015748031496,491.3385826771654" /><line class="red" x1="188.9763779527559" x2="188.9763779527559" y1="99.63463960922081" y2="118.53227740449643" /><text class="red" font-size="37.795275590551185" x="264.56692913385825" y="321.2598425196851">61L</text><polygon class="red" points="377.9527559055118,491.3385826771654 377.9527559055118,264.56692913385825 453.54330708661416,82.62936035924247 460.39309659378546,82.46780033695279 486.11592687018305,81.871530664364 511.76477798871565,81.25278329855536 537.3361775475987,80.67052820885499 562.7853597704644,80.16276828196817 588.0125445170993,79.70646293116141 613.0420996806555,79.24332196496829 637.9219293174367,78.75492733891457 662.6431698993001,78.33961005368383 680.3149606299213,78.10614829100427 755.9055118110236,264.56692913385825 755.9055118110236,491.3385826771654 680.503937007874,491.3385826771654 680.503937007874,377.9527559055118 453.35433070866145,377.9527559055118 453.35433070866145,491.3385826771654" /><line class="red" x1="566.9291338582677" x2="566.9291338582677" y1="80.0878163478626" y2="98.98545414313821" /><text class="red" font-size="37.795275590551185" x="642.5196850393701" y="321.2598425196851">61T</text></svg>