<?xml version="1.0" encoding="utf-8" ?>
<svg baseProfile="full" height="100%" version="1.1" width="100%" xmlns="http://www.w3.org/2000/svg" xmlns:ev="http://www.w3.org/2001/xml-events" xmlns:xlink="http://www.w3.org/1999/xlink"><defs /><style type="text/css"><![CDATA[.red { fill:none; stroke:red; stroke-width:3px; } .black { fill:none; stroke:black; stroke-width:3px; }]]></style><polygon class="red" points="0.0,491.3385826771654 0.0,264.56692913385825 75.59055118110236,167.7636440921791 76.12988115331154,167.78584944625914 100.16557399225542,168.53812671177502 125.02733048899222,169.08556866888728 150.7007309963908,169.51507166877002 177.09053200696906,169.8824071334401 204.04718551083977,170.1243515355352 231.6725499086757,170.1556365691356 259.9777383898576,170.03547289196854 289.0567405428434,169.7654453873513 302.3622047244095,169.64212990605745 377.9527559055118,264.56692913385825 377.9527559055118,491.3385826771654 302.5511811023622,491.3385826771654 302.5511811023622,377.9527559055118 75.4015748031496,377.9527559055118 75.4015748031496,491.3385826771654" /><line class="red" x1="188.9763779527559" x2="188.9763779527559" y1="169.9890863208376" y2="188.88672411611321" /><text class="red" font-size="37.795275590551185" x="264.56692913385825" y="321.2598425196851">25L</text><polygon class="red" points="377.9527559055118,491.3385826771654 377.9527559055118,264.56692913385825 453.54330708661416,142.67189933257112 456.5413487400957,142.5973209789954 494.9921207506486,141.69041602354264 533.2061421508109,140.80459314841937 571.3083663407456,139.8854225339607 609.2943217183787,139.02048748858863 647.0995008169042,138.2662003251437 680.3149606299213,137.66540424777304 755.9055118110236,264.56692913385825 755.9055118110236,491.3385826771654 680.503937007874,491.3385826771654 680.503937007874,377.9527559055118 453.35433070866145,377.9527559055118 453.35433070866145,491.3385826771654" /><line class="red" x1="566.9291338582677" x2="566.9291338582677" y1="139.99106628304241" y2="158.88870407831803" /><text class="red" font-size="37.795275590551185" x="642.5196850393701" y="321.2598425196851">25T</text></svg>