<?xml version="1.0" encoding="utf-8" ?>
<svg baseProfile="full" height="100%" version="1.1" width="100%" xmlns="http://www.w3.org/2000/svg" xmlns:ev="http://www.w3.org/2001/xml-events" xmlns:xlink="http://www.w3.org/1999/xlink"><defs /><style type="text/css"><![CDATA[.red { fill:none; stroke:red; stroke-width:3px; } .black { fill:none; stroke:black; stroke-width:3px; }]]></style><polygon class="red" points="0.0,491.3385826771654 0.0,264.56692913385825 75.59055118110236,153.54995844610613 93.75495031271055,154.4648476965192 115.742230597907,155.370131949746 138.37370864373554,156.0784785796439 161.78488081742478,156.59398564277672 185.96150554705866,156.99845008335274 210.81185764660927,157.34436243555535 236.19476940098878,157.5721955686911 262.2085215310107,157.6016618669961 288.8626461405444,157.48851302514868 302.3622047244095,157.36315617494552 377.9527559055118,264.56692913385825 377.9527559055118,491.3385826771654 302.5511811023622,491.3385826771654 302.5511811023622,377.9527559055118 75.4015748031496,377.9527559055118 75.4015748031496,491.3385826771654" /><line class="red" x1="188.9763779527559" x2="188.9763779527559" y1="157.04041655534752" y2="175.93805435062313" /><text class="red" font-size="37.795275590551185" x="264.56692913385825" y="321.2598425196851">31L</text><polygon class="red" points="377.9527559055118,491.3385826771654 377.9527559055118,264.56692913385825 453.54330708661416,131.1737153569763 455.1469995829739,131.13589045562685 491.1348681094695,130.30167112155198 527.0176792765263,129.4360412840865 562.7911395576142,128.62148484467843 598.3942598071467,127.91113322834013 633.688343703986,127.27273933000424 668.7064182425083,126.62477273430022 680.3149606299213,126.39689447560636 755.9055118110236,264.56692913385825 755.9055118110236,491.3385826771654 680.503937007874,491.3385826771654 680.503937007874,377.9527559055118 453.35433070866145,377.9527559055118 453.35433070866145,491.3385826771654" /><line class="red" x1="566.9291338582677" x2="566.9291338582677" y1="128.53892379611682" y2="147.43656159139243" /><text class="red" font-size="37.795275590551185" x="642.5196850393701" y="321.2598425196851">31T</text></svg>