<?xml version="1.0" encoding="utf-8" ?>
<svg baseProfile="full" height="100%" version="1.1" width="100%" xmlns="http://www.w3.org/2000/svg" xmlns:ev="http://www.w3.org/2001/xml-events" xmlns:xlink="http://www.w3.org/1999/xlink"><defs /><style type="text/css"><![CDATA[.red { fill:none; stroke:red; stroke-width:3px; } .black { fill:none; stroke:black; stroke-width:3px; }]]></style><polygon class="red" points="0.0,491.3385826771654 0.0,264.56692913385825 75.59055118110236,165.4225360549038 82.7319393940777,165.71656319684024 106.53359643416911,166.46151868975312 131.15358887706452,167.00363816453552 156.57752675483573,167.42896807120042 182.71075294690934,167.79273301712595 209.4051161591982,168.03232554106114 236.7618785123982,168.06330745211233 264.79188968163896,167.9443129141652 293.5885726546037,167.67690702440206 302.3622047244095,167.59559281699956 377.9527559055118,264.56692913385825 377.9527559055118,491.3385826771654 302.5511811023622,491.3385826771654 302.5511811023622,377.9527559055118 75.4015748031496,377.9527559055118 75.4015748031496,491.3385826771654" /><line class="red" x1="188.9763779527559" x2="188.9763779527559" y1="167.84896949286593" y2="186.74660728814155" /><text class="red" font-size="37.795275590551185" x="264.56692913385825" y="321.2598425196851">26L</text><polygon class="red" points="377.9527559055118,491.3385826771654 377.9527559055118,264.56692913385825 453.54330708661416,58.261643022142096 453.54330708661416,58.261643022142096 680.3149606299213,13.353931517966316 680.3149606299213,13.353931517966316 755.9055118110236,264.56692913385825 755.9055118110236,491.3385826771654 680.503937007874,491.3385826771654 680.503937007874,377.9527559055118 453.35433070866145,377.9527559055118 453.35433070866145,491.3385826771654" /><line class="red" x1="566.9291338582677" x2="566.9291338582677" y1="35.80778727005418" y2="54.70542506532979" /><text class="red" font-size="37.795275590551185" x="642.5196850393701" y="321.2598425196851">26T</text></svg>