<?xml version="1.0" encoding="utf-8" ?>
<svg baseProfile="full" height="100%" version="1.1" width="100%" xmlns="http://www.w3.org/2000/svg" xmlns:ev="http://www.w3.org/2001/xml-events" xmlns:xlink="http://www.w3.org/1999/xlink"><defs /><style type="text/css"><![CDATA[.red { fill:none; stroke:red; stroke-width:3px; } .black { fill:none; stroke:black; stroke-width:3px; }]]></style><polygon class="red" points="0.0,491.3385826771654 0.0,264.56692913385825 75.59055118110236,143.74141282954838 80.79547419501228,144.08156233897478 100.62901727375936,145.19542935372692 121.07294625742156,146.22514523942823 142.1504635609707,147.0929869520706 163.84579841138884,147.77204649155647 186.28991436971296,148.26626362536962 209.46868858083724,148.65403569307455 233.29274140636926,148.98566597029878 257.6264919944214,149.2040915907951 282.5658359459007,149.23234539890313 302.3622047244095,149.14831133437332 377.9527559055118,264.56692913385825 377.9527559055118,491.3385826771654 302.5511811023622,491.3385826771654 302.5511811023622,377.9527559055118 75.4015748031496,377.9527559055118 75.4015748031496,491.3385826771654" /><line class="red" x1="188.9763779527559" x2="188.9763779527559" y1="148.3112071382975" y2="167.20884493357312" /><text class="red" font-size="37.795275590551185" x="264.56692913385825" y="321.2598425196851">35L</text><polygon class="red" points="377.9527559055118,491.3385826771654 377.9527559055118,264.56692913385825 453.54330708661416,123.52095950568389 463.087352081752,123.29972310364417 497.4905545670472,122.46978711750376 531.7890181171049,121.68881641540497 565.9240991339751,121.00775516380452 599.7627277319896,120.39568732053306 633.3366789871667,119.7744425025939 666.7075006479084,119.11936616146102 680.3149606299213,118.89075905577096 755.9055118110236,264.56692913385825 755.9055118110236,491.3385826771654 680.503937007874,491.3385826771654 680.503937007874,377.9527559055118 453.35433070866145,377.9527559055118 453.35433070866145,491.3385826771654" /><line class="red" x1="566.9291338582677" x2="566.9291338582677" y1="120.98957625225881" y2="139.88721404753443" /><text class="red" font-size="37.795275590551185" x="642.5196850393701" y="321.2598425196851">35T</text></svg>