<?xml version="1.0" encoding="utf-8" ?>
<svg baseProfile="full" height="100%" version="1.1" width="100%" xmlns="http://www.w3.org/2000/svg" xmlns:ev="http://www.w3.org/2001/xml-events" xmlns:xlink="http://www.w3.org/1999/xlink"><defs /><style type="text/css"><![CDATA[.red { fill:none; stroke:red; stroke-width:3px; } .black { fill:none; stroke:black; stroke-width:3px; }]]></style><polygon class="red" points="0.0,491.3385826771654 0.0,264.56692913385825 75.59055118110236,137.8404532396279 79.21081906765755,138.11778668765936 97.74435200083315,139.32898878393195 117.07918357236122,140.4148509636384 137.00844389183635,141.41865213945857 157.55526612275787,142.2646523700932 178.7045174425201,142.9266277735054 200.58451727521447,143.4084257818821 223.18121201720794,143.78646063207896 246.4065902662294,144.10975969889915 270.1283301739237,144.322697603689 294.4409360212532,144.35024412584886 302.3622047244095,144.31661971497806 377.9527559055118,264.56692913385825 377.9527559055118,491.3385826771654 302.5511811023622,491.3385826771654 302.5511811023622,377.9527559055118 75.4015748031496,377.9527559055118 75.4015748031496,491.3385826771654" /><line class="red" x1="188.9763779527559" x2="188.9763779527559" y1="143.15281433538826" y2="162.05045213066387" /><text class="red" font-size="37.795275590551185" x="264.56692913385825" y="321.2598425196851">37L</text><polygon class="red" points="377.9527559055118,491.3385826771654 377.9527559055118,264.56692913385825 453.54330708661416,119.0508013426354 480.26639848651735,118.40613885366378 513.7044472768076,117.6447598316621 546.9831720746247,116.98078462615865 579.9727850816581,116.38407364834143 612.7043310882171,115.77841653409854 645.2380126904072,115.1397736014917 677.5639110950339,114.59669455923824 680.3149606299213,114.5603504053754 755.9055118110236,264.56692913385825 755.9055118110236,491.3385826771654 680.503937007874,491.3385826771654 680.503937007874,377.9527559055118 453.35433070866145,377.9527559055118 453.35433070866145,491.3385826771654" /><line class="red" x1="566.9291338582677" x2="566.9291338582677" y1="116.62000517849174" y2="135.51764297376735" /><text class="red" font-size="37.795275590551185" x="642.5196850393701" y="321.2598425196851">37T</text></svg>