<?xml version="1.0" encoding="utf-8" ?>
<svg baseProfile="full" height="100%" version="1.1" width="100%" xmlns="http://www.w3.org/2000/svg" xmlns:ev="http://www.w3.org/2001/xml-events" xmlns:xlink="http://www.w3.org/1999/xlink"><defs /><style type="text/css"><![CDATA[.red { fill:none; stroke:red; stroke-width:3px; } .black { fill:none; stroke:black; stroke-width:3px; }]]></style><polygon class="red" points="0.0,491.3385826771654 0.0,264.56692913385825 75.59055118110236,106.30414617934991 82.41437728416423,106.58514098027791 99.52828407220062,107.12087127376515 117.23968552199216,107.5108967835028 135.53503971763348,107.81697738913749 154.33644614974753,108.07871205747927 173.53566557529507,108.25109788084927 193.2169210166128,108.27341783512941 213.38353202944376,108.18783233583349 234.1127305551396,107.99534107659821 255.29762476887038,107.79900912516348 276.85349633860477,107.53272047221878 298.7755704417086,107.17586663482211 302.3622047244095,107.09775608085772 377.9527559055118,264.56692913385825 377.9527559055118,491.3385826771654 302.5511811023622,491.3385826771654 302.5511811023622,377.9527559055118 75.4015748031496,377.9527559055118 75.4015748031496,491.3385826771654" /><line class="red" x1="188.9763779527559" x2="188.9763779527559" y1="108.26860875536363" y2="127.16624655063924" /><text class="red" font-size="37.795275590551185" x="264.56692913385825" y="321.2598425196851">56L</text><polygon class="red" points="377.9527559055118,491.3385826771654 377.9527559055118,264.56692913385825 453.54330708661416,90.47491500554099 460.1501354548519,90.3105656912328 487.56022466291137,89.66406776961696 514.8008864440089,89.03261386449668 541.9629737143204,88.37736142346989 569.0428926572112,87.7607572842486 595.9934786407541,87.22304130251632 622.7091972157324,86.73981157721181 649.2156966463468,86.24934152012281 675.5632393727969,85.73213507392609 680.3149606299213,85.652305954302 755.9055118110236,264.56692913385825 755.9055118110236,491.3385826771654 680.503937007874,491.3385826771654 680.503937007874,377.9527559055118 453.35433070866145,377.9527559055118 453.35433070866145,491.3385826771654" /><line class="red" x1="566.9291338582677" x2="566.9291338582677" y1="87.8088871338058" y2="106.70652492908141" /><text class="red" font-size="37.795275590551185" x="642.5196850393701" y="321.2598425196851">56T</text></svg>