<?xml version="1.0" encoding="utf-8" ?>
<svg baseProfile="full" height="100%" version="1.1" width="100%" xmlns="http://www.w3.org/2000/svg" xmlns:ev="http://www.w3.org/2001/xml-events" xmlns:xlink="http://www.w3.org/1999/xlink"><defs /><style type="text/css"><![CDATA[.red { fill:none; stroke:red; stroke-width:3px; } .black { fill:none; stroke:black; stroke-width:3px; }]]></style><polygon class="red" points="0.0,491.3385826771654 0.0,264.56692913385825 75.59055118110236,127.18308253430058 75.71607920406166,127.19641507931152 92.05817585637374,128.71963068325965 109.0867386956678,130.0241380659935 126.79957109652628,131.18171983242996 145.27946865567867,132.21957372348652 164.32643983654748,133.1789496823676 183.96349908582158,133.98750737241778 204.17660721017364,134.62019568541797 225.089550827503,135.08070376447506 246.68839505098663,135.4420462418007 268.88747402598966,135.75106323364258 291.56005276735647,135.95459362579294 302.3622047244095,135.96683485977155 377.9527559055118,264.56692913385825 377.9527559055118,491.3385826771654 302.5511811023622,491.3385826771654 302.5511811023622,377.9527559055118 75.4015748031496,377.9527559055118 75.4015748031496,491.3385826771654" /><line class="red" x1="188.9763779527559" x2="188.9763779527559" y1="134.1444149520974" y2="153.04205274737302" /><text class="red" font-size="37.795275590551185" x="264.56692913385825" y="321.2598425196851">41L</text><polygon class="red" points="377.9527559055118,491.3385826771654 377.9527559055118,264.56692913385825 453.54330708661416,111.37603732328807 482.7023258370509,110.71209140237352 514.5130114014529,110.07740656162298 546.0471691096616,109.50702163887024 577.3345918328752,108.92808630239216 608.4331761918334,108.31761492725843 639.3332012546921,107.79849121444681 669.9805131251476,107.39360928201779 680.3149606299213,107.2765493869855 755.9055118110236,264.56692913385825 755.9055118110236,491.3385826771654 680.503937007874,491.3385826771654 680.503937007874,377.9527559055118 453.35433070866145,377.9527559055118 453.35433070866145,491.3385826771654" /><line class="red" x1="566.9291338582677" x2="566.9291338582677" y1="109.12062652428995" y2="128.01826431956556" /><text class="red" font-size="37.795275590551185" x="642.5196850393701" y="321.2598425196851">41T</text></svg>