<?xml version="1.0" encoding="utf-8" ?>
<svg baseProfile="full" height="100%" version="1.1" width="100%" xmlns="http://www.w3.org/2000/svg" xmlns:ev="http://www.w3.org/2001/xml-events" xmlns:xlink="http://www.w3.org/1999/xlink"><defs /><style type="text/css"><![CDATA[.red { fill:none; stroke:red; stroke-width:3px; } .black { fill:none; stroke:black; stroke-width:3px; }]]></style><polygon class="red" points="0.0,491.3385826771654 0.0,264.56692913385825 75.59055118110236,83.89053989847264 79.25128439300056,84.23792127452953 90.98176255329503,85.19896096154986 103.21528258280239,85.99831567414253 115.94404736639711,86.686937030857 129.23062824360693,87.2837061008056 142.91721117355598,87.81930248716355 157.02550761556404,88.24181992578872 171.54793046314,88.5334256749386 186.58071640211415,88.69576631028701 202.11124068802775,88.7813204844744 218.06848711537867,88.82442143715082 234.3592848676052,88.78794200915473 251.06066086300387,88.61950438795657 268.1734133113304,88.35486844342017 285.76849432474717,87.99401835782805 302.3622047244095,87.65401626920936 377.9527559055118,264.56692913385825 377.9527559055118,491.3385826771654 302.5511811023622,491.3385826771654 302.5511811023622,377.9527559055118 75.4015748031496,377.9527559055118 75.4015748031496,491.3385826771654" /><line class="red" x1="188.9763779527559" x2="188.9763779527559" y1="88.70896347232895" y2="107.60660126760456" /><text class="red" font-size="37.795275590551185" x="264.56692913385825" y="321.2598425196851">65L</text><polygon class="red" points="377.9527559055118,491.3385826771654 377.9527559055118,264.56692913385825 453.54330708661416,5.4359619812932465 453.54330708661416,5.4359619812932465 680.3149606299213,-41.150600934641375 680.3149606299213,-41.150600934641375 755.9055118110236,264.56692913385825 755.9055118110236,491.3385826771654 680.503937007874,491.3385826771654 680.503937007874,377.9527559055118 453.35433070866145,377.9527559055118 453.35433070866145,491.3385826771654" /><line class="red" x1="566.9291338582677" x2="566.9291338582677" y1="-17.857319476674093" y2="1.0403183186015212" /><text class="red" font-size="37.795275590551185" x="642.5196850393701" y="321.2598425196851">65T</text></svg>