<?xml version="1.0" encoding="utf-8" ?>
<svg baseProfile="full" height="100%" version="1.1" width="100%" xmlns="http://www.w3.org/2000/svg" xmlns:ev="http://www.w3.org/2001/xml-events" xmlns:xlink="http://www.w3.org/1999/xlink"><defs /><style type="text/css"><![CDATA[.red { fill:none; stroke:red; stroke-width:3px; } .black { fill:none; stroke:black; stroke-width:3px; }]]></style><polygon class="red" points="0.0,491.3385826771654 0.0,264.56692913385825 75.59055118110236,127.00346578960102 81.21920013200918,127.09763185152258 102.3919798329938,127.39236676838607 124.01539746168214,127.58648964795748 146.17918695190502,127.61161118943505 168.88910342358804,127.51522000947006 192.227615582812,127.29849867355324 216.08213766038284,127.07742128939321 240.35513372022746,126.77755952095083 265.04192037563865,126.37568650291962 290.24159950138153,125.82687632810286 302.3622047244095,125.52089245140382 377.9527559055118,264.56692913385825 377.9527559055118,491.3385826771654 302.5511811023622,491.3385826771654 302.5511811023622,377.9527559055118 75.4015748031496,377.9527559055118 75.4015748031496,491.3385826771654" /><line class="red" x1="188.9763779527559" x2="188.9763779527559" y1="127.32868965392771" y2="146.22632744920332" /><text class="red" font-size="37.795275590551185" x="264.56692913385825" y="321.2598425196851">45L</text><polygon class="red" points="377.9527559055118,491.3385826771654 377.9527559055118,264.56692913385825 453.54330708661416,108.35761085616366 456.0635412296269,108.283620841284 487.09696977214156,107.42083868523855 518.0775077167269,106.6501767186586 548.9378103005654,105.92230159896872 579.607646962575,105.21135739072355 610.1885270203144,104.4736305204982 640.6765823492973,103.77942297310005 671.0192286810371,103.1740284970873 680.3149606299213,103.00588875057798 755.9055118110236,264.56692913385825 755.9055118110236,491.3385826771654 680.503937007874,491.3385826771654 680.503937007874,377.9527559055118 453.35433070866145,377.9527559055118 453.35433070866145,491.3385826771654" /><line class="red" x1="566.9291338582677" x2="566.9291338582677" y1="105.50525251510919" y2="124.4028903103848" /><text class="red" font-size="37.795275590551185" x="642.5196850393701" y="321.2598425196851">45T</text></svg>