<?xml version="1.0" encoding="utf-8" ?>
<svg baseProfile="full" height="100%" version="1.1" width="100%" xmlns="http://www.w3.org/2000/svg" xmlns:ev="http://www.w3.org/2001/xml-events" xmlns:xlink="http://www.w3.org/1999/xlink"><defs /><style type="text/css"><![CDATA[.red { fill:none; stroke:red; stroke-width:3px; } .black { fill:none; stroke:black; stroke-width:3px; }]]></style><polygon class="red" points="0.0,491.3385826771654 0.0,264.56692913385825 75.59055118110236,115.66262184454217 92.17771938897016,116.02788521039639 111.49360252399651,116.35103756101284 131.34463321362932,116.62737889694608 151.61685837746637,116.8093860400611 172.39694036502084,116.8329460411336 193.68927674488464,116.74257769957427 215.57341737066668,116.53936165229959 237.93995014708076,116.33207680441268 260.69848337637217,116.05092792001824 283.8442827075465,115.67414756004564 302.3622047244095,115.27085797390617 377.9527559055118,264.56692913385825 377.9527559055118,491.3385826771654 302.5511811023622,491.3385826771654 302.5511811023622,377.9527559055118 75.4015748031496,377.9527559055118 75.4015748031496,491.3385826771654" /><line class="red" x1="188.9763779527559" x2="188.9763779527559" y1="116.76258005348149" y2="135.6602178487571" /><text class="red" font-size="37.795275590551185" x="264.56692913385825" y="321.2598425196851">51L</text><polygon class="red" points="377.9527559055118,491.3385826771654 377.9527559055118,264.56692913385825 453.54330708661416,42.82095288605365 453.54330708661416,42.82095288605365 680.3149606299213,-1.6071405349874794 680.3149606299213,-1.6071405349874794 755.9055118110236,264.56692913385825 755.9055118110236,491.3385826771654 680.503937007874,491.3385826771654 680.503937007874,377.9527559055118 453.35433070866145,377.9527559055118 453.35433070866145,491.3385826771654" /><line class="red" x1="566.9291338582677" x2="566.9291338582677" y1="20.606906175533084" y2="39.5045439708087" /><text class="red" font-size="37.795275590551185" x="642.5196850393701" y="321.2598425196851">51T</text></svg>