<?xml version="1.0" encoding="utf-8" ?>
<svg baseProfile="full" height="100%" version="1.1" width="100%" xmlns="http://www.w3.org/2000/svg" xmlns:ev="http://www.w3.org/2001/xml-events" xmlns:xlink="http://www.w3.org/1999/xlink"><defs /><style type="text/css"><![CDATA[.red { fill:none; stroke:red; stroke-width:3px; } .black { fill:none; stroke:black; stroke-width:3px; }]]></style><polygon class="red" points="0.0,491.3385826771654 0.0,264.56692913385825 75.59055118110236,146.234007817811 93.57894600293014,147.2442486637649 114.24344727124378,148.28507085370097 135.54840532020467,149.16227320148937 157.4777759694756,149.84865451357837 180.16365598164077,150.34819412972138 203.59189282239242,150.7401392906441 227.67252046642932,151.07534008661298 252.26856134606322,151.2961175852691 277.4765073421782,151.3246745159264 302.3622047244095,151.21903564750795 377.9527559055118,264.56692913385825 377.9527559055118,491.3385826771654 302.5511811023622,491.3385826771654 302.5511811023622,377.9527559055118 75.4015748031496,377.9527559055118 75.4015748031496,491.3385826771654" /><line class="red" x1="188.9763779527559" x2="188.9763779527559" y1="150.49562749206166" y2="169.39326528733727" /><text class="red" font-size="37.795275590551185" x="264.56692913385825" y="321.2598425196851">34L</text><polygon class="red" points="377.9527559055118,491.3385826771654 377.9527559055118,264.56692913385825 453.54330708661416,41.04189699033208 453.54330708661416,41.04189699033208 680.3149606299213,-3.7366531358845236 680.3149606299213,-3.7366531358845236 755.9055118110236,264.56692913385825 755.9055118110236,491.3385826771654 680.503937007874,491.3385826771654 680.503937007874,377.9527559055118 453.35433070866145,377.9527559055118 453.35433070866145,491.3385826771654" /><line class="red" x1="566.9291338582677" x2="566.9291338582677" y1="18.652621927223777" y2="37.55025972249939" /><text class="red" font-size="37.795275590551185" x="642.5196850393701" y="321.2598425196851">34T</text></svg>