<?xml version="1.0" encoding="utf-8" ?>
<svg baseProfile="full" height="100%" version="1.1" width="100%" xmlns="http://www.w3.org/2000/svg" xmlns:ev="http://www.w3.org/2001/xml-events" xmlns:xlink="http://www.w3.org/1999/xlink"><defs /><style type="text/css"><![CDATA[.red { fill:none; stroke:red; stroke-width:3px; } .black { fill:none; stroke:black; stroke-width:3px; }]]></style><polygon class="red" points="0.0,491.3385826771654 0.0,264.56692913385825 75.59055118110236,93.61163951367098 76.80768134920191,93.6877604527574 91.21104328627467,94.4561765402114 106.05079814525146,95.16198460725684 121.34923670116711,95.7490005262747 137.0974824761526,96.19779310897468 153.39770476044015,96.51100975884424 170.23669435555303,96.74548343535946 187.5400781935822,96.93782797046731 205.20765937596116,97.04691973213522 223.32002107997613,97.01666406698314 241.87905250601358,96.8858489958094 260.9586783209638,96.65515128796335 280.4558717056046,96.41976728484661 300.29384421503715,96.11904924731994 302.3622047244095,96.0795772565121 377.9527559055118,264.56692913385825 377.9527559055118,491.3385826771654 302.5511811023622,491.3385826771654 302.5511811023622,377.9527559055118 75.4015748031496,377.9527559055118 75.4015748031496,491.3385826771654" /><line class="red" x1="188.9763779527559" x2="188.9763779527559" y1="96.94669667011522" y2="115.84433446539083" /><text class="red" font-size="37.795275590551185" x="264.56692913385825" y="321.2598425196851">62L</text><polygon class="red" points="377.9527559055118,491.3385826771654 377.9527559055118,264.56692913385825 453.54330708661416,78.01462898865122 474.1703460000947,77.47858892675481 499.1700781873712,76.80533097946272 524.0944766136885,76.16785445958732 548.8999057653126,75.60332787160752 573.488984455246,75.08956603476389 597.8853733886356,74.56968217992573 622.1359172041713,74.0255879426685 646.2321078368018,73.55315968750165 670.1308430948501,73.1703837741718 680.3149606299213,73.02645568204451 755.9055118110236,264.56692913385825 755.9055118110236,491.3385826771654 680.503937007874,491.3385826771654 680.503937007874,377.9527559055118 453.35433070866145,377.9527559055118 453.35433070866145,491.3385826771654" /><line class="red" x1="566.9291338582677" x2="566.9291338582677" y1="75.22662691998943" y2="94.12426471526504" /><text class="red" font-size="37.795275590551185" x="642.5196850393701" y="321.2598425196851">62T</text></svg>