<?xml version="1.0" encoding="utf-8" ?>
<svg baseProfile="full" height="100%" version="1.1" width="100%" xmlns="http://www.w3.org/2000/svg" xmlns:ev="http://www.w3.org/2001/xml-events" xmlns:xlink="http://www.w3.org/1999/xlink"><defs /><style type="text/css"><![CDATA[.red { fill:none; stroke:red; stroke-width:3px; } .black { fill:none; stroke:black; stroke-width:3px; }]]></style><polygon class="red" points="0.0,491.3385826771654 0.0,264.56692913385825 75.59055118110236,90.56408207415473 76.42681385536463,90.6234361004175 89.86988007582471,91.42634291705008 103.9011951753572,92.13544971576448 118.35676697990573,92.78235937112612 133.25868498696514,93.31231304614852 148.59849958298702,93.70641492372852 164.4764036222095,93.96696768786472 180.87939096793582,94.14935353111866 197.7342123388948,94.28943208972305 214.94300614169708,94.34742533127655 232.5851625677409,94.26847132045788 250.6622128076121,94.09034636497017 269.24709140571264,93.81349081093629 288.2381033594667,93.53093935205857 302.3622047244095,93.2772084206407 377.9527559055118,264.56692913385825 377.9527559055118,491.3385826771654 302.5511811023622,491.3385826771654 302.5511811023622,377.9527559055118 75.4015748031496,377.9527559055118 75.4015748031496,491.3385826771654" /><line class="red" x1="188.9763779527559" x2="188.9763779527559" y1="94.21664669554377" y2="113.11428449081939" /><text class="red" font-size="37.795275590551185" x="264.56692913385825" y="321.2598425196851">63L</text><polygon class="red" points="377.9527559055118,491.3385826771654 377.9527559055118,264.56692913385825 453.54330708661416,15.367350934493516 453.54330708661416,15.367350934493516 680.3149606299213,-30.027481965374932 680.3149606299213,-30.027481965374932 755.9055118110236,264.56692913385825 755.9055118110236,491.3385826771654 680.503937007874,491.3385826771654 680.503937007874,377.9527559055118 453.35433070866145,377.9527559055118 453.35433070866145,491.3385826771654" /><line class="red" x1="566.9291338582677" x2="566.9291338582677" y1="-7.330065515440708" y2="11.567572279834906" /><text class="red" font-size="37.795275590551185" x="642.5196850393701" y="321.2598425196851">63T</text></svg>