<?xml version="1.0" encoding="utf-8" ?>
<svg baseProfile="full" height="100%" version="1.1" width="100%" xmlns="http://www.w3.org/2000/svg" xmlns:ev="http://www.w3.org/2001/xml-events" xmlns:xlink="http://www.w3.org/1999/xlink"><defs /><style type="text/css"><![CDATA[.red { fill:none; stroke:red; stroke-width:3px; } .black { fill:none; stroke:black; stroke-width:3px; }]]></style><polygon class="red" points="0.0,491.3385826771654 0.0,264.56692913385825 75.59055118110236,117.476397319819 87.16532616236577,117.73128289577511 106.68531508526911,118.05784959538795 126.74627062640576,118.33711226483945 147.23309693790065,118.5210436719035 168.23294423470242,118.54485168233441 189.75042568797278,118.45352677232245 211.86555473377211,118.2481657674399 234.46841522272285,118.03869034026252 257.4674807839257,117.7545694095781 280.85802516071413,117.3738037450903 302.3622047244095,116.90547799785816 377.9527559055118,264.56692913385825 377.9527559055118,491.3385826771654 302.5511811023622,491.3385826771654 302.5511811023622,377.9527559055118 75.4015748031496,377.9527559055118 75.4015748031496,491.3385826771654" /><line class="red" x1="188.9763779527559" x2="188.9763779527559" y1="118.45681200065724" y2="137.35444979593285" /><text class="red" font-size="37.795275590551185" x="264.56692913385825" y="321.2598425196851">50L</text><polygon class="red" points="377.9527559055118,491.3385826771654 377.9527559055118,264.56692913385825 453.54330708661416,99.94249480520284 461.56144378313854,99.71957705600926 490.91811678738867,98.98930990907866 520.1607783458621,98.29958868881363 549.2228379326654,97.62591370465395 578.2008085850451,96.9268551733669 607.0909507887454,96.26903217472056 635.8432212851011,95.69536892717372 664.3451804540917,95.17982995247189 680.3149606299213,94.88432883982057 755.9055118110236,264.56692913385825 755.9055118110236,491.3385826771654 680.503937007874,491.3385826771654 680.503937007874,377.9527559055118 453.35433070866145,377.9527559055118 453.35433070866145,491.3385826771654" /><line class="red" x1="566.9291338582677" x2="566.9291338582677" y1="97.19877070790074" y2="116.09640850317635" /><text class="red" font-size="37.795275590551185" x="642.5196850393701" y="321.2598425196851">50T</text></svg>