<?xml version="1.0" encoding="utf-8" ?>
<svg baseProfile="full" height="100%" version="1.1" width="100%" xmlns="http://www.w3.org/2000/svg" xmlns:ev="http://www.w3.org/2001/xml-events" xmlns:xlink="http://www.w3.org/1999/xlink"><defs /><style type="text/css"><![CDATA[.red { fill:none; stroke:red; stroke-width:3px; } .black { fill:none; stroke:black; stroke-width:3px; }]]></style><polygon class="red" points="0.0,491.3385826771654 0.0,264.56692913385825 75.59055118110236,108.21963206179049 77.01269326899211,108.27819336616608 94.31808389245339,108.81991420087388 112.22729229538777,109.21429446888158 130.7267522789062,109.5237894235126 149.73808356252397,109.78844542537263 169.15190413572935,109.96275551269161 189.05292488629442,109.98532347633028 209.44468097253196,109.89878140858161 230.40486791824503,109.70414519173852 251.82608984451247,109.50562266101332 273.6224937461583,109.23636196177864 295.7893128948763,108.87552281986683 302.3622047244095,108.73237670894923 377.9527559055118,264.56692913385825 377.9527559055118,491.3385826771654 302.5511811023622,491.3385826771654 302.5511811023622,377.9527559055118 75.4015748031496,377.9527559055118 75.4015748031496,491.3385826771654" /><line class="red" x1="188.9763779527559" x2="188.9763779527559" y1="109.98523667131485" y2="128.88287446659047" /><text class="red" font-size="37.795275590551185" x="264.56692913385825" y="321.2598425196851">55L</text><polygon class="red" points="377.9527559055118,491.3385826771654 377.9527559055118,264.56692913385825 453.54330708661416,35.803047966278314 453.54330708661416,35.803047966278314 680.3149606299213,-8.536899375472899 680.3149606299213,-8.536899375472899 755.9055118110236,264.56692913385825 755.9055118110236,491.3385826771654 680.503937007874,491.3385826771654 680.503937007874,377.9527559055118 453.35433070866145,377.9527559055118 453.35433070866145,491.3385826771654" /><line class="red" x1="566.9291338582677" x2="566.9291338582677" y1="13.633074295402707" y2="32.53071209067832" /><text class="red" font-size="37.795275590551185" x="642.5196850393701" y="321.2598425196851">55T</text></svg>