<?xml version="1.0" encoding="utf-8" ?>
<svg baseProfile="full" height="100%" version="1.1" width="100%" xmlns="http://www.w3.org/2000/svg" xmlns:ev="http://www.w3.org/2001/xml-events" xmlns:xlink="http://www.w3.org/1999/xlink"><defs /><style type="text/css"><![CDATA[.red { fill:none; stroke:red; stroke-width:3px; } .black { fill:none; stroke:black; stroke-width:3px; }]]></style><polygon class="red" points="0.0,491.3385826771654 0.0,264.56692913385825 75.59055118110236,87.34988925515597 77.25242235617242,87.4907308275931 89.82941186597014,88.3479504770151 102.91543617288949,89.09270982575015 116.57448798016458,89.74460070549475 130.6456661082043,90.33477289740978 145.15086694854085,90.80989353054434 160.0820706817408,91.15159960738214 175.5374926116508,91.36186020148534 191.50432142030894,91.49460605819365 207.91042678886157,91.58493660925683 224.66028917025687,91.59440598895605 241.83211332770094,91.46939121982757 259.4270667848264,91.24665921800778 277.5170932266584,90.92641946651304 296.00181652148024,90.59953830816494 302.3622047244095,90.46743075802351 377.9527559055118,264.56692913385825 377.9527559055118,491.3385826771654 302.5511811023622,491.3385826771654 302.5511811023622,377.9527559055118 75.4015748031496,377.9527559055118 75.4015748031496,491.3385826771654" /><line class="red" x1="188.9763779527559" x2="188.9763779527559" y1="91.47358910953517" y2="110.37122690481078" /><text class="red" font-size="37.795275590551185" x="264.56692913385825" y="321.2598425196851">64L</text><polygon class="red" points="377.9527559055118,491.3385826771654 377.9527559055118,264.56692913385825 453.54330708661416,68.78847967888487 473.91851576184035,68.12535698497277 497.54861661154865,67.38831259300883 521.0662152732814,66.72107485143943 544.3787403918775,66.10312844416342 567.5084625180159,65.48040390380169 590.5001141838311,64.83548960027076 613.3458567195798,64.25934908127635 636.0046994150327,63.769270978708505 658.4037598399944,63.32701914080326 680.3149606299213,62.88276897803303 755.9055118110236,264.56692913385825 755.9055118110236,491.3385826771654 680.503937007874,491.3385826771654 680.503937007874,377.9527559055118 453.35433070866145,377.9527559055118 453.35433070866145,491.3385826771654" /><line class="red" x1="566.9291338582677" x2="566.9291338582677" y1="65.49600124523937" y2="84.39363904051498" /><text class="red" font-size="37.795275590551185" x="642.5196850393701" y="321.2598425196851">64T</text></svg>