<?xml version="1.0" encoding="utf-8" ?>
<svg baseProfile="full" height="100%" version="1.1" width="100%" xmlns="http://www.w3.org/2000/svg" xmlns:ev="http://www.w3.org/2001/xml-events" xmlns:xlink="http://www.w3.org/1999/xlink"><defs /><style type="text/css"><![CDATA[.red { fill:none; stroke:red; stroke-width:3px; } .black { fill:none; stroke:black; stroke-width:3px; }]]></style><polygon class="red" points="0.0,491.3385826771654 0.0,264.56692913385825 75.59055118110236,129.90758620490226 84.39173917821313,130.727921766331 101.61775878866524,132.04755022141 119.53576632260297,133.2185370703055 138.22939738484934,134.2683930335245 157.4969408503697,135.2388752966404 177.36144084505565,136.05679362183662 197.80858476826018,136.69680370743987 218.9632924394308,137.16263426882682 240.81159929254193,137.52814983937031 263.26725308604955,137.84073734995673 286.20212211899826,138.046619620267 302.3622047244095,138.06493170964268 377.9527559055118,264.56692913385825 377.9527559055118,491.3385826771654 302.5511811023622,491.3385826771654 302.5511811023622,377.9527559055118 75.4015748031496,377.9527559055118 75.4015748031496,491.3385826771654" /><line class="red" x1="188.9763779527559" x2="188.9763779527559" y1="136.42034937908545" y2="155.31798717436106" /><text class="red" font-size="37.795275590551185" x="264.56692913385825" y="321.2598425196851">40L</text><polygon class="red" points="377.9527559055118,491.3385826771654 377.9527559055118,264.56692913385825 453.54330708661416,27.457062198078575 453.54330708661416,27.457062198078575 680.3149606299213,-17.20247545130792 680.3149606299213,-17.20247545130792 755.9055118110236,264.56692913385825 755.9055118110236,491.3385826771654 680.503937007874,491.3385826771654 680.503937007874,377.9527559055118 453.35433070866145,377.9527559055118 453.35433070866145,491.3385826771654" /><line class="red" x1="566.9291338582677" x2="566.9291338582677" y1="5.127293373385328" y2="24.02493116866094" /><text class="red" font-size="37.795275590551185" x="642.5196850393701" y="321.2598425196851">40T</text></svg>