<?xml version="1.0" encoding="utf-8" ?>
<svg baseProfile="full" height="100%" version="1.1" width="100%" xmlns="http://www.w3.org/2000/svg" xmlns:ev="http://www.w3.org/2001/xml-events" xmlns:xlink="http://www.w3.org/1999/xlink"><defs /><style type="text/css"><![CDATA[.red { fill:none; stroke:red; stroke-width:3px; } .black { fill:none; stroke:black; stroke-width:3px; }]]></style><polygon class="red" points="0.0,491.3385826771654 0.0,264.56692913385825 75.59055118110236,121.52892115776785 76.0214905263731,121.57876086646047 91.42893662122538,123.21522662608845 107.39104921269484,124.70304851711711 124.0246985096727,125.97731375516065 141.32718064437267,127.108085356679 159.37961119733734,128.1219351034107 177.98543780890282,129.05909845382223 197.16761556735344,129.8489348735801 216.91265209400035,130.46697964137434 237.34206760364702,130.91684275577154 258.44198656787574,131.26983904666167 280.12791590586954,131.57171500101435 302.2759140640727,131.770541636845 302.3622047244095,131.77063943290443 377.9527559055118,264.56692913385825 377.9527559055118,491.3385826771654 302.5511811023622,491.3385826771654 302.5511811023622,377.9527559055118 75.4015748031496,377.9527559055118 75.4015748031496,491.3385826771654" /><line class="red" x1="188.9763779527559" x2="188.9763779527559" y1="129.51165628757337" y2="148.409294082849" /><text class="red" font-size="37.795275590551185" x="264.56692913385825" y="321.2598425196851">43L</text><polygon class="red" points="377.9527559055118,491.3385826771654 377.9527559055118,264.56692913385825 453.54330708661416,107.55674651195824 467.2012651167962,107.24575718773684 498.27793106486706,106.62571752935514 529.0843611236634,106.06849563413465 559.6497222052045,105.50292118653903 590.0307579425468,104.90653559014197 620.2178463345214,104.39938954205115 650.1579864725077,104.00385013182336 679.7557024603574,103.66859220264826 680.3149606299213,103.66196060997117 755.9055118110236,264.56692913385825 755.9055118110236,491.3385826771654 680.503937007874,491.3385826771654 680.503937007874,377.9527559055118 453.35433070866145,377.9527559055118 453.35433070866145,491.3385826771654" /><line class="red" x1="566.9291338582677" x2="566.9291338582677" y1="105.36002493054355" y2="124.25766272581916" /><text class="red" font-size="37.795275590551185" x="642.5196850393701" y="321.2598425196851">43T</text></svg>