<?xml version="1.0" encoding="utf-8" ?>
<svg baseProfile="full" height="100%" version="1.1" width="100%" xmlns="http://www.w3.org/2000/svg" xmlns:ev="http://www.w3.org/2001/xml-events" xmlns:xlink="http://www.w3.org/1999/xlink"><defs /><style type="text/css"><![CDATA[.red { fill:none; stroke:red; stroke-width:3px; } .black { fill:none; stroke:black; stroke-width:3px; }]]></style><polygon class="red" points="0.0,491.3385826771654 0.0,264.56692913385825 75.59055118110236,170.0448882318476 93.79755155034218,170.61473473379687 118.90107210092026,171.16749917323898 144.8239352379461,171.6011752663395 171.47031106702912,171.97208124975418 198.68925486248168,172.21637753000914 226.5832213049531,172.24796568615875 255.1635870980765,172.1266328697718 284.52490843108336,171.85398375030053 302.3622047244095,171.6886668914799 377.9527559055118,264.56692913385825 377.9527559055118,491.3385826771654 302.5511811023622,491.3385826771654 302.5511811023622,377.9527559055118 75.4015748031496,377.9527559055118 75.4015748031496,491.3385826771654" /><line class="red" x1="188.9763779527559" x2="188.9763779527559" y1="172.12920222602042" y2="191.02684002129604" /><text class="red" font-size="37.795275590551185" x="264.56692913385825" y="321.2598425196851">24L</text><polygon class="red" points="377.9527559055118,491.3385826771654 377.9527559055118,264.56692913385825 453.54330708661416,62.57539094915637 453.54330708661416,62.57539094915637 680.3149606299213,17.638500432703836 680.3149606299213,17.638500432703836 755.9055118110236,264.56692913385825 755.9055118110236,491.3385826771654 680.503937007874,491.3385826771654 680.503937007874,377.9527559055118 453.35433070866145,377.9527559055118 453.35433070866145,491.3385826771654" /><line class="red" x1="566.9291338582677" x2="566.9291338582677" y1="40.106945690930104" y2="59.00458348620572" /><text class="red" font-size="37.795275590551185" x="642.5196850393701" y="321.2598425196851">24T</text></svg>