<?xml version="1.0" encoding="utf-8" ?>
<svg baseProfile="full" height="100%" version="1.1" width="100%" xmlns="http://www.w3.org/2000/svg" xmlns:ev="http://www.w3.org/2001/xml-events" xmlns:xlink="http://www.w3.org/1999/xlink"><defs /><style type="text/css"><![CDATA[.red { fill:none; stroke:red; stroke-width:3px; } .black { fill:none; stroke:black; stroke-width:3px; }]]></style><polygon class="red" points="0.0,491.3385826771654 0.0,264.56692913385825 75.59055118110236,104.38865758471593 87.81606129933624,104.89208859438975 104.7384842519478,105.42182834665635 122.25207874859655,105.80749909812414 140.34332715636089,106.11016535476244 158.93480873697115,106.3689786895859 177.9194270148608,106.53944024900693 197.38091714693115,106.56151219392859 217.3223830863555,106.47688326308537 237.8205931920341,106.28653696145795 258.76915969322823,106.09239558931364 280.08449893105126,105.82907898265887 301.7618279885411,105.47621044977745 302.3622047244095,105.46313531958128 377.9527559055118,264.56692913385825 377.9527559055118,491.3385826771654 302.5511811023622,491.3385826771654 302.5511811023622,377.9527559055118 75.4015748031496,377.9527559055118 75.4015748031496,491.3385826771654" /><line class="red" x1="188.9763779527559" x2="188.9763779527559" y1="106.5519803171336" y2="125.44961811240921" /><text class="red" font-size="37.795275590551185" x="264.56692913385825" y="321.2598425196851">57L</text><polygon class="red" points="377.9527559055118,491.3385826771654 377.9527559055118,264.56692913385825 453.54330708661416,32.30006929922615 453.54330708661416,32.30006929922615 680.3149606299213,-11.992816174659367 680.3149606299213,-11.992816174659367 755.9055118110236,264.56692913385825 755.9055118110236,491.3385826771654 680.503937007874,491.3385826771654 680.503937007874,377.9527559055118 453.35433070866145,377.9527559055118 453.35433070866145,491.3385826771654" /><line class="red" x1="566.9291338582677" x2="566.9291338582677" y1="10.153626562283364" y2="29.051264357558978" /><text class="red" font-size="37.795275590551185" x="642.5196850393701" y="321.2598425196851">57T</text></svg>