<?xml version="1.0" encoding="utf-8" ?>
<svg baseProfile="full" height="100%" version="1.1" width="100%" xmlns="http://www.w3.org/2000/svg" xmlns:ev="http://www.w3.org/2001/xml-events" xmlns:xlink="http://www.w3.org/1999/xlink"><defs /><style type="text/css"><![CDATA[.red { fill:none; stroke:red; stroke-width:3px; } .black { fill:none; stroke:black; stroke-width:3px; }]]></style><polygon class="red" points="0.0,491.3385826771654 0.0,264.56692913385825 75.59055118110236,118.62796359989568 84.06104280461591,119.60760916539732 99.2853653831063,121.22463240444142 115.05748589085522,122.69475743404587 131.49367841667504,123.95390159974426 148.59098541829576,125.07126811880357 166.42968246816656,126.07311579337284 184.81493679508048,126.9991728395496 203.76967380811925,127.77964862416127 223.28067453591348,128.3903716193525 243.46832599171887,128.83491225141984 264.3187823263203,129.18373544909218 285.7481368458094,129.48204088470027 302.3622047244095,129.63119050235332 377.9527559055118,264.56692913385825 377.9527559055118,491.3385826771654 302.5511811023622,491.3385826771654 302.5511811023622,377.9527559055118 75.4015748031496,377.9527559055118 75.4015748031496,491.3385826771654" /><line class="red" x1="188.9763779527559" x2="188.9763779527559" y1="127.17052336002462" y2="146.06816115530023" /><text class="red" font-size="37.795275590551185" x="264.56692913385825" y="321.2598425196851">44L</text><polygon class="red" points="377.9527559055118,491.3385826771654 377.9527559055118,264.56692913385825 453.54330708661416,105.64710116374067 459.4507347566688,105.51259008041848 490.1603908965743,104.89987301322128 520.6029571306644,104.34923263176688 550.8072873913691,103.79033862861252 580.8295488179035,103.20099592158374 610.6601688744362,102.69983870585332 640.2467231461877,102.3089705567262 669.4948491524233,101.9776724904359 680.3149606299213,101.84936936895099 755.9055118110236,264.56692913385825 755.9055118110236,491.3385826771654 680.503937007874,491.3385826771654 680.503937007874,377.9527559055118 453.35433070866145,377.9527559055118 453.35433070866145,491.3385826771654" /><line class="red" x1="566.9291338582677" x2="566.9291338582677" y1="103.4738637134115" y2="122.37150150868712" /><text class="red" font-size="37.795275590551185" x="642.5196850393701" y="321.2598425196851">44T</text></svg>