<?xml version="1.0" encoding="utf-8" ?>
<svg baseProfile="full" height="100%" version="1.1" width="100%" xmlns="http://www.w3.org/2000/svg" xmlns:ev="http://www.w3.org/2001/xml-events" xmlns:xlink="http://www.w3.org/1999/xlink"><defs /><style type="text/css"><![CDATA[.red { fill:none; stroke:red; stroke-width:3px; } .black { fill:none; stroke:black; stroke-width:3px; }]]></style><polygon class="red" points="0.0,491.3385826771654 0.0,264.56692913385825 75.59055118110236,151.12352082693985 79.47880346127147,151.34188728384072 100.58444929888844,152.40492208224634 122.34428883867304,153.3008457003271 144.7417310856489,154.001870557622 167.91113920549685,154.5120551384249 191.83830130550336,154.91234648578313 216.43207858654932,155.25468831924115 241.55270004934698,155.48016957421703 267.29785013473327,155.50933274997283 293.67679743232566,155.3973530473453 302.3622047244095,155.3167003879227 377.9527559055118,264.56692913385825 377.9527559055118,491.3385826771654 302.5511811023622,491.3385826771654 302.5511811023622,377.9527559055118 75.4015748031496,377.9527559055118 75.4015748031496,491.3385826771654" /><line class="red" x1="188.9763779527559" x2="188.9763779527559" y1="154.86446771310966" y2="173.76210550838528" /><text class="red" font-size="37.795275590551185" x="264.56692913385825" y="321.2598425196851">32L</text><polygon class="red" points="377.9527559055118,491.3385826771654 377.9527559055118,264.56692913385825 453.54330708661416,45.34110503549226 453.54330708661416,45.34110503549226 680.3149606299213,0.5282418277051875 680.3149606299213,0.5282418277051875 755.9055118110236,264.56692913385825 755.9055118110236,491.3385826771654 680.503937007874,491.3385826771654 680.503937007874,377.9527559055118 453.35433070866145,377.9527559055118 453.35433070866145,491.3385826771654" /><line class="red" x1="566.9291338582677" x2="566.9291338582677" y1="22.934673431598696" y2="41.83231122687431" /><text class="red" font-size="37.795275590551185" x="642.5196850393701" y="321.2598425196851">32T</text></svg>