<?xml version="1.0" encoding="utf-8" ?>
<svg baseProfile="full" height="100%" version="1.1" width="100%" xmlns="http://www.w3.org/2000/svg" xmlns:ev="http://www.w3.org/2001/xml-events" xmlns:xlink="http://www.w3.org/1999/xlink"><defs /><style type="text/css"><![CDATA[.red { fill:none; stroke:red; stroke-width:3px; } .black { fill:none; stroke:black; stroke-width:3px; }]]></style><polygon class="red" points="0.0,491.3385826771654 0.0,264.56692913385825 75.59055118110236,110.09581888022512 89.10788371270615,110.51895712798273 107.21489906878344,110.9176921542603 125.91846484017873,111.2306014578877 145.13972097530035,111.49817879326599 164.76814269616364,111.67441314453401 184.88892875597605,111.6972291175311 205.50582991562015,111.60973048132985 226.69700528135047,111.41294930687877 248.35455492015456,111.21223619686316 270.3914911537118,110.94000345133855 292.80305534804387,110.57517900491155 302.3622047244095,110.36699720821605 377.9527559055118,264.56692913385825 377.9527559055118,491.3385826771654 302.5511811023622,491.3385826771654 302.5511811023622,377.9527559055118 75.4015748031496,377.9527559055118 75.4015748031496,491.3385826771654" /><line class="red" x1="188.9763779527559" x2="188.9763779527559" y1="111.67988188248876" y2="130.57751967776437" /><text class="red" font-size="37.795275590551185" x="264.56692913385825" y="321.2598425196851">54L</text><polygon class="red" points="377.9527559055118,491.3385826771654 377.9527559055118,264.56692913385825 453.54330708661416,93.62295453021864 470.4061292323644,93.20348043051479 498.42707589056175,92.54257474268252 526.2748702736943,91.89704714454592 554.0422520045618,91.22719267343552 581.7255787010561,90.59684891440588 609.2767261888698,90.04715051073543 636.5878582951857,89.55315103563186 663.6851354326228,89.05174934218451 680.3149606299213,88.72530314004996 755.9055118110236,264.56692913385825 755.9055118110236,491.3385826771654 680.503937007874,491.3385826771654 680.503937007874,377.9527559055118 453.35433070866145,377.9527559055118 453.35433070866145,491.3385826771654" /><line class="red" x1="566.9291338582677" x2="566.9291338582677" y1="90.93376097576083" y2="109.83139877103645" /><text class="red" font-size="37.795275590551185" x="642.5196850393701" y="321.2598425196851">54T</text></svg>