<?xml version="1.0" encoding="utf-8" ?>
<svg baseProfile="full" height="100%" version="1.1" width="100%" xmlns="http://www.w3.org/2000/svg" xmlns:ev="http://www.w3.org/2001/xml-events" xmlns:xlink="http://www.w3.org/1999/xlink"><defs /><style type="text/css"><![CDATA[.red { fill:none; stroke:red; stroke-width:3px; } .black { fill:none; stroke:black; stroke-width:3px; }]]></style><polygon class="red" points="0.0,491.3385826771654 0.0,264.56692913385825 75.59055118110236,155.95386828235354 86.92545132653277,156.5247733107919 109.14017235714107,157.43941819916483 132.0056862018222,158.15508660166574 155.6586224293526,158.67591614712848 180.08470978861396,159.08455368092228 205.19163670666933,159.43403655186944 230.83683875263057,159.66422156316514 257.11919292728817,159.69399098401936 284.04849484876326,159.579673002952 302.3622047244095,159.40961196196452 377.9527559055118,264.56692913385825 377.9527559055118,491.3385826771654 302.5511811023622,491.3385826771654 302.5511811023622,377.9527559055118 75.4015748031496,377.9527559055118 75.4015748031496,491.3385826771654" /><line class="red" x1="188.9763779527559" x2="188.9763779527559" y1="159.20832373560307" y2="178.1059615308787" /><text class="red" font-size="37.795275590551185" x="264.56692913385825" y="321.2598425196851">30L</text><polygon class="red" points="377.9527559055118,491.3385826771654 377.9527559055118,264.56692913385825 453.54330708661416,49.64428836235493 453.54330708661416,49.64428836235493 680.3149606299213,4.798515764231524 680.3149606299213,4.798515764231524 755.9055118110236,264.56692913385825 755.9055118110236,491.3385826771654 680.503937007874,491.3385826771654 680.503937007874,377.9527559055118 453.35433070866145,377.9527559055118 453.35433070866145,491.3385826771654" /><line class="red" x1="566.9291338582677" x2="566.9291338582677" y1="27.221402063293226" y2="46.11903985856884" /><text class="red" font-size="37.795275590551185" x="642.5196850393701" y="321.2598425196851">30T</text></svg>