<?xml version="1.0" encoding="utf-8" ?>
<svg baseProfile="full" height="100%" version="1.1" width="100%" xmlns="http://www.w3.org/2000/svg" xmlns:ev="http://www.w3.org/2001/xml-events" xmlns:xlink="http://www.w3.org/1999/xlink"><defs /><style type="text/css"><![CDATA[.red { fill:none; stroke:red; stroke-width:3px; } .black { fill:none; stroke:black; stroke-width:3px; }]]></style><polygon class="red" points="0.0,491.3385826771654 0.0,264.56692913385825 75.59055118110236,119.29017219460945 82.15293293576133,119.43468058115383 101.8770276465417,119.76466162976305 122.14790803918214,120.04684563273287 142.84933549833488,120.23270130374584 164.06894810438405,120.25675732353523 185.81157463106103,120.16447584507057 208.15769209687755,119.95696988258021 230.996880298365,119.74530387611242 254.23647819147914,119.45821089913795 277.8717676138816,119.07345993013502 301.9987933577213,118.54801242258208 302.3622047244095,118.53883812969809 377.9527559055118,264.56692913385825 377.9527559055118,491.3385826771654 302.5511811023622,491.3385826771654 302.5511811023622,377.9527559055118 75.4015748031496,377.9527559055118 75.4015748031496,491.3385826771654" /><line class="red" x1="188.9763779527559" x2="188.9763779527559" y1="120.13508749336404" y2="139.03272528863965" /><text class="red" font-size="37.795275590551185" x="264.56692913385825" y="321.2598425196851">49L</text><polygon class="red" points="377.9527559055118,491.3385826771654 377.9527559055118,264.56692913385825 453.54330708661416,46.335383858723276 453.54330708661416,46.335383858723276 680.3149606299213,1.865958438712255 680.3149606299213,1.865958438712255 755.9055118110236,264.56692913385825 755.9055118110236,491.3385826771654 680.503937007874,491.3385826771654 680.503937007874,377.9527559055118 453.35433070866145,377.9527559055118 453.35433070866145,491.3385826771654" /><line class="red" x1="566.9291338582677" x2="566.9291338582677" y1="24.100671148717765" y2="42.99830894399338" /><text class="red" font-size="37.795275590551185" x="642.5196850393701" y="321.2598425196851">49T</text></svg>