<?xml version="1.0" encoding="utf-8" ?>
<svg baseProfile="full" height="100%" version="1.1" width="100%" xmlns="http://www.w3.org/2000/svg" xmlns:ev="http://www.w3.org/2001/xml-events" xmlns:xlink="http://www.w3.org/1999/xlink"><defs /><style type="text/css"><![CDATA[.red { fill:none; stroke:red; stroke-width:3px; } .black { fill:none; stroke:black; stroke-width:3px; }]]></style><polygon class="red" points="0.0,491.3385826771654 0.0,264.56692913385825 75.59055118110236,76.38161260908242 76.54689672609601,76.50306101238868 86.33917260817157,77.57398910089375 96.62558609664893,78.58864080955823 107.31991563093135,79.54299983899557 118.38968027842839,80.38747762003163 129.9356006600034,81.07690458384536 141.9492274275354,81.6592813738904 154.4902788108201,82.15209194441229 167.4071031932184,82.5850243616639 180.7210666989161,82.90902735889216 194.4254563596926,83.10732096581683 208.61254860961225,83.18094011308784 223.27006710743746,83.17945747086594 238.32920922819193,83.13565601682166 253.7015214402241,83.01500551689696 269.4616978235845,82.76763697829972 285.60978106086395,82.42730330910058 302.2147380716849,81.99355478580003 302.3622047244095,81.98970550154269 377.9527559055118,264.56692913385825 377.9527559055118,491.3385826771654 302.5511811023622,491.3385826771654 302.5511811023622,377.9527559055118 75.4015748031496,377.9527559055118 75.4015748031496,491.3385826771654" /><line class="red" x1="188.9763779527559" x2="188.9763779527559" y1="83.02847634460619" y2="101.9261141398818" /><text class="red" font-size="37.795275590551185" x="264.56692913385825" y="321.2598425196851">67L</text><polygon class="red" points="377.9527559055118,491.3385826771654 377.9527559055118,264.56692913385825 453.54330708661416,-4.482581951144425 453.54330708661416,-4.482581951144425 665.4810343832451,-49.12294370654456 680.3149606299213,-49.12294370654456 755.9055118110236,264.56692913385825 755.9055118110236,491.3385826771654 680.503937007874,491.3385826771654 680.503937007874,377.9527559055118 453.35433070866145,377.9527559055118 453.35433070866145,491.3385826771654" /><line class="red" x1="566.9291338582677" x2="566.9291338582677" y1="-28.364994910765745" y2="-9.467357115490131" /><text class="red" font-size="37.795275590551185" x="642.5196850393701" y="321.2598425196851">67T</text></svg>