<?xml version="1.0" encoding="utf-8" ?>
<svg baseProfile="full" height="100%" version="1.1" width="100%" xmlns="http://www.w3.org/2000/svg" xmlns:ev="http://www.w3.org/2001/xml-events" xmlns:xlink="http://www.w3.org/1999/xlink"><defs /><style type="text/css"><![CDATA[.red { fill:none; stroke:red; stroke-width:3px; } .black { fill:none; stroke:black; stroke-width:3px; }]]></style><polygon class="red" points="0.0,491.3385826771654 0.0,264.56692913385825 75.59055118110236,141.229892810484 88.05927896893536,142.04474510109935 107.67908854458858,143.14661004368895 127.90244524359923,144.1652196251556 148.7525218017364,145.0237007026517 170.2138208533022,145.69543846953462 192.41617275778492,146.18433312101786 215.3454843392816,146.56793209550506 238.9129623463093,146.8959918539847 262.9844226427794,147.1120655963211 287.6551645496232,147.14001628187987 302.3622047244095,147.07758662708028 377.9527559055118,264.56692913385825 377.9527559055118,491.3385826771654 302.5511811023622,491.3385826771654 302.5511811023622,377.9527559055118 75.4015748031496,377.9527559055118 75.4015748031496,491.3385826771654" /><line class="red" x1="188.9763779527559" x2="188.9763779527559" y1="146.10858901563597" y2="165.00622681091158" /><text class="red" font-size="37.795275590551185" x="264.56692913385825" y="321.2598425196851">36L</text><polygon class="red" points="377.9527559055118,491.3385826771654 377.9527559055118,264.56692913385825 453.54330708661416,36.74692399171306 453.54330708661416,36.74692399171306 680.3149606299213,-7.995817647219951 680.3149606299213,-7.995817647219951 755.9055118110236,264.56692913385825 755.9055118110236,491.3385826771654 680.503937007874,491.3385826771654 680.503937007874,377.9527559055118 453.35433070866145,377.9527559055118 453.35433070866145,491.3385826771654" /><line class="red" x1="566.9291338582677" x2="566.9291338582677" y1="14.375553172246555" y2="33.27319096752217" /><text class="red" font-size="37.795275590551185" x="642.5196850393701" y="321.2598425196851">36T</text></svg>