<?xml version="1.0" encoding="utf-8" ?>
<svg baseProfile="full" height="100%" version="1.1" width="100%" xmlns="http://www.w3.org/2000/svg" xmlns:ev="http://www.w3.org/2001/xml-events" xmlns:xlink="http://www.w3.org/1999/xlink"><defs /><style type="text/css"><![CDATA[.red { fill:none; stroke:red; stroke-width:3px; } .black { fill:none; stroke:black; stroke-width:3px; }]]></style><polygon class="red" points="0.0,491.3385826771654 0.0,264.56692913385825 75.59055118110236,98.5268001052109 88.14027235942757,99.15896605050364 104.02111334485272,99.81293143672531 120.36908479118983,100.32469956532998 137.28925842840994,100.69730604198793 154.76818947254333,100.98972925163719 172.72989649864223,101.2397785859057 191.07071133355822,101.40446735347979 209.87290553788654,101.42579527032609 229.13893625709113,101.34403604484078 248.944181102718,101.16012461603702 269.1837644663022,100.97255498176406 289.77750670839094,100.71815451397913 302.3622047244095,100.51330023693453 377.9527559055118,264.56692913385825 377.9527559055118,491.3385826771654 302.5511811023622,491.3385826771654 302.5511811023622,377.9527559055118 75.4015748031496,377.9527559055118 75.4015748031496,491.3385826771654" /><line class="red" x1="188.9763779527559" x2="188.9763779527559" y1="101.38566158140924" y2="120.28329937668485" /><text class="red" font-size="37.795275590551185" x="264.56692913385825" y="321.2598425196851">60L</text><polygon class="red" points="377.9527559055118,491.3385826771654 377.9527559055118,264.56692913385825 453.54330708661416,84.19676732664641 465.82652220761105,83.90705382348585 491.85291878506143,83.30374730438803 517.8044171338372,82.67769892353851 543.6775205695216,82.08857402393392 569.4269835445227,81.57482288607804 594.9518750568262,81.11313266037172 620.2768190737945,80.64452587599942 645.4501913285094,80.15036888591715 670.463087821189,79.73015164693692 680.3149606299213,79.59999868866817 755.9055118110236,264.56692913385825 755.9055118110236,491.3385826771654 680.503937007874,491.3385826771654 680.503937007874,377.9527559055118 453.35433070866145,377.9527559055118 453.35433070866145,491.3385826771654" /><line class="red" x1="566.9291338582677" x2="566.9291338582677" y1="81.62465977470566" y2="100.52229756998128" /><text class="red" font-size="37.795275590551185" x="642.5196850393701" y="321.2598425196851">60T</text></svg>