<?xml version="1.0" encoding="utf-8" ?>
<svg baseProfile="full" height="100%" version="1.1" width="100%" xmlns="http://www.w3.org/2000/svg" xmlns:ev="http://www.w3.org/2001/xml-events" xmlns:xlink="http://www.w3.org/1999/xlink"><defs /><style type="text/css"><![CDATA[.red { fill:none; stroke:red; stroke-width:3px; } .black { fill:none; stroke:black; stroke-width:3px; }]]></style><polygon class="red" points="0.0,491.3385826771654 0.0,264.56692913385825 75.59055118110236,100.49366777489018 82.5525004616457,100.84435973490861 98.6194293296806,101.50598382261342 115.15888461144249,102.02374249243877 132.27686520180544,102.4007037273667 149.9599020338158,102.69654128601229 168.13153391141856,102.94951195379906 186.6869498939924,103.11612498532213 205.70890940756811,103.13770091152696 225.20008520017927,103.05498511758901 245.2363184658234,102.86892873117739 265.71222954194417,102.6791685176139 286.54650411594434,102.42179600353904 302.3622047244095,102.16434632625976 377.9527559055118,264.56692913385825 377.9527559055118,491.3385826771654 302.5511811023622,491.3385826771654 302.5511811023622,377.9527559055118 75.4015748031496,377.9527559055118 75.4015748031496,491.3385826771654" /><line class="red" x1="188.9763779527559" x2="188.9763779527559" y1="103.11872180142893" y2="122.01635959670455" /><text class="red" font-size="37.795275590551185" x="264.56692913385825" y="321.2598425196851">59L</text><polygon class="red" points="377.9527559055118,491.3385826771654 377.9527559055118,264.56692913385825 453.54330708661416,28.80144160876938 453.54330708661416,28.80144160876938 680.3149606299213,-15.442205099584328 680.3149606299213,-15.442205099584328 755.9055118110236,264.56692913385825 755.9055118110236,491.3385826771654 680.503937007874,491.3385826771654 680.503937007874,377.9527559055118 453.35433070866145,377.9527559055118 453.35433070866145,491.3385826771654" /><line class="red" x1="566.9291338582677" x2="566.9291338582677" y1="6.679618254592526" y2="25.57725604986814" /><text class="red" font-size="37.795275590551185" x="642.5196850393701" y="321.2598425196851">59T</text></svg>