<?xml version="1.0" encoding="utf-8" ?>
<svg baseProfile="full" height="100%" version="1.1" width="100%" xmlns="http://www.w3.org/2000/svg" xmlns:ev="http://www.w3.org/2001/xml-events" xmlns:xlink="http://www.w3.org/1999/xlink"><defs /><style type="text/css"><![CDATA[.red { fill:none; stroke:red; stroke-width:3px; } .black { fill:none; stroke:black; stroke-width:3px; }]]></style><polygon class="red" points="0.0,491.3385826771654 0.0,264.56692913385825 75.59055118110236,160.7403136569135 95.93605587560955,161.5779906980025 119.26964131799582,162.30830264570943 143.40610565320856,162.83977715583194 168.3311182717248,163.25676087606132 193.95119482678922,163.61338478449773 220.1209774559145,163.84827355211314 246.9405357198433,163.8786492180658 274.420192265201,163.7619929585586 302.3622047244095,163.5025235359917 377.9527559055118,264.56692913385825 377.9527559055118,491.3385826771654 302.5511811023622,491.3385826771654 302.5511811023622,377.9527559055118 75.4015748031496,377.9527559055118 75.4015748031496,491.3385826771654" /><line class="red" x1="188.9763779527559" x2="188.9763779527559" y1="163.5441368010438" y2="182.44177459631942" /><text class="red" font-size="37.795275590551185" x="264.56692913385825" y="321.2598425196851">28L</text><polygon class="red" points="377.9527559055118,491.3385826771654 377.9527559055118,264.56692913385825 453.54330708661416,53.951207737992945 453.54330708661416,53.951207737992945 680.3149606299213,9.073844948721216 680.3149606299213,9.073844948721216 755.9055118110236,264.56692913385825 755.9055118110236,491.3385826771654 680.503937007874,491.3385826771654 680.503937007874,377.9527559055118 453.35433070866145,377.9527559055118 453.35433070866145,491.3385826771654" /><line class="red" x1="566.9291338582677" x2="566.9291338582677" y1="31.51252634335708" y2="50.410164138632695" /><text class="red" font-size="37.795275590551185" x="642.5196850393701" y="321.2598425196851">28T</text></svg>